<?xml version="1.0" encoding="UTF-8"?>
<svg id="Layer_2" data-name="Layer 2" xmlns="http://www.w3.org/2000/svg" viewBox="0 0 253.05 269.49">
  <defs>
    <style>
      .cls-1 {
        fill: #f7a387;
      }

      .cls-2 {
        fill: #fa4040;
      }

      .cls-3 {
        fill: #ed7d00;
      }

      .cls-4 {
        fill: #f68e2a;
      }

      .cls-5, .cls-6, .cls-7 {
        fill: #fff;
      }

      .cls-8 {
        fill: #ffdb9c;
      }

      .cls-9 {
        fill: #eeffe1;
      }

      .cls-10 {
        fill: #fbdb9e;
      }

      .cls-11 {
        fill: #fbb63a;
      }

      .cls-12 {
        fill: #ae5601;
      }

      .cls-13 {
        fill: #a72e08;
      }

      .cls-14 {
        fill: #d6e6ff;
      }

      .cls-15 {
        fill: #c8eefd;
      }

      .cls-16 {
        fill: #d15f39;
      }

      .cls-17 {
        fill: #c5d5dc;
      }

      .cls-18 {
        fill: #de761b;
      }

      .cls-19 {
        fill: #202020;
      }

      .cls-20 {
        fill: #181828;
      }

      .cls-21 {
        fill: #86ff33;
      }

      .cls-22 {
        fill: #889faa;
      }

      .cls-23 {
        fill: #54ca01;
      }

      .cls-24 {
        fill: #4fcdff;
      }

      .cls-6 {
        opacity: .7;
      }

      .cls-6, .cls-7, .cls-25 {
        isolation: isolate;
      }

      .cls-7, .cls-25 {
        opacity: .8;
      }

      .cls-25 {
        fill: #ffc38c;
      }
    </style>
  </defs>
  <g id="Layer_1-2" data-name="Layer 1">
    <g>
      <rect class="cls-5" x="74.17" y="1.5" width="89.82" height="44.24"/>
      <g id="Layer_2-2" data-name="Layer 2">
        <g id="Layer_1-2" data-name="Layer 1-2">
          <path class="cls-20" d="M246.19,261.19c-.55,0-1-.45-1-1v-48.89c0-.55,.45-1,1-1s1,.45,1,1v48.89c0,.55-.45,1-1,1Z"/>
          <path class="cls-20" d="M237.74,261.19c-.55,0-1-.45-1-1v-48.89c0-.55,.45-1,1-1s1,.45,1,1v48.89c0,.55-.45,1-1,1Z"/>
          <circle class="cls-21" cx="229.07" cy="243.55" r="22.98"/>
          <path class="cls-9" d="M250.45,246.07c-.07,0-.15,0-.22-.02-.82-.12-1.38-.89-1.26-1.71,1.52-10.11-8.59-17.32-8.69-17.39-.68-.47-.85-1.41-.37-2.09,.47-.68,1.41-.85,2.09-.37,.48,.33,11.74,8.32,9.95,20.29-.11,.74-.75,1.28-1.48,1.28Z"/>
          <path class="cls-20" d="M229.07,267.53c-13.22,0-23.98-10.76-23.98-23.98s10.76-23.98,23.98-23.98,23.98,10.76,23.98,23.98-10.76,23.98-23.98,23.98Zm0-45.96c-12.12,0-21.98,9.86-21.98,21.98s9.86,21.98,21.98,21.98,21.98-9.86,21.98-21.98-9.86-21.98-21.98-21.98Z"/>
          <path class="cls-23" d="M225.86,226.12h0c3.77,0,6.82,3.05,6.82,6.82h0v28.72h-6.82v-35.54h0Z"/>
          <path class="cls-20" d="M191.07,161c-.13,0-.26-.02-.38-.08-.48-.2-47.64-20.18-43.16-65.29,.06-.55,.54-.95,1.09-.9,.55,.05,.95,.54,.9,1.09-4.32,43.62,41.47,63.06,41.94,63.25,.51,.21,.75,.79,.54,1.31-.16,.39-.53,.62-.92,.62Z"/>
          <path class="cls-20" d="M209.4,157c-.2,0-.4-.06-.57-.18-.16-.11-16.03-11.25-30.92-28.78-13.8-16.24-29.57-41.45-26.36-69.34,.06-.55,.57-.94,1.11-.88,.55,.06,.94,.56,.88,1.11-6,52.08,55.81,95.81,56.44,96.25,.45,.32,.56,.94,.25,1.39-.19,.28-.51,.43-.82,.43Z"/>
          <path class="cls-20" d="M232.86,146.67h-74.06c-.55,0-1-.45-1-1s.45-1,1-1h74.06c.55,0,1,.45,1,1s-.45,1-1,1Z"/>
          <polyline class="cls-11" points="226.87 181.31 226.87 160.18 155.98 160.18 155.98 265.35 226.87 265.35 226.87 190.03"/>
          <rect class="cls-3" x="155.98" y="160.19" width="70.89" height="6.97"/>
          <rect class="cls-3" x="190.1" y="236.33" width="36.76" height="6.97"/>
          <rect class="cls-3" x="220.54" y="164.73" width="6.33" height="99.25"/>
          <path class="cls-8" d="M164.76,263.98h-7.23v-78.36c0-3.99,3.24-7.23,7.23-7.23h0v85.59h0Z"/>
          <path class="cls-20" d="M226.87,266.85h-70.89c-.83,0-1.5-.67-1.5-1.5v-105.17c0-.83,.67-1.5,1.5-1.5h70.89c.83,0,1.5,.67,1.5,1.5v21.13c0,.83-.67,1.5-1.5,1.5s-1.5-.67-1.5-1.5v-19.63h-67.89v102.17h67.89v-73.82c0-.83,.67-1.5,1.5-1.5s1.5,.67,1.5,1.5v75.32c0,.83-.67,1.5-1.5,1.5Z"/>
          <rect class="cls-22" x="138.55" y="152.86" width="96" height="8"/>
          <path class="cls-17" d="M234.48,158.27h-84.41c-2.76,0-5-2.24-5-5h89.41v5h0Z"/>
          <path class="cls-5" d="M227.67,155.6h-6.84c-1.24,0-2.24-1-2.24-2.24h0s11.32,0,11.32,0h0c0,1.24-1,2.24-2.24,2.24h0Z"/>
          <path class="cls-5" d="M215.32,155.6h-6.84c-1.24,0-2.24-1-2.24-2.24h0s11.32,0,11.32,0h0c0,1.24-1,2.24-2.24,2.24Z"/>
          <path class="cls-20" d="M235.13,161.86h-98v-10h98v10Zm-96-2h94v-6h-94v6Z"/>
          <path class="cls-20" d="M224.97,153.29c-.41,0-.75-.34-.75-.75v-6.72c0-.41,.34-.75,.75-.75s.75,.34,.75,.75v6.72c0,.41-.34,.75-.75,.75Z"/>
          <path class="cls-20" d="M212.03,153.29c-.41,0-.75-.34-.75-.75v-6.72c0-.41,.34-.75,.75-.75s.75,.34,.75,.75v6.72c0,.41-.34,.75-.75,.75Z"/>
          <path class="cls-20" d="M199.08,153.29c-.41,0-.75-.34-.75-.75v-6.72c0-.41,.34-.75,.75-.75s.75,.34,.75,.75v6.72c0,.41-.34,.75-.75,.75Z"/>
          <circle class="cls-22" cx="187.13" cy="157.3" r="1.64"/>
          <circle class="cls-22" cx="192.2" cy="157.84" r="1.24"/>
          <circle class="cls-22" cx="184.42" cy="156.07" r=".68"/>
          <path class="cls-20" d="M233.88,157.34h-12.93c-.28,0-.5-.22-.5-.5s.22-.5,.5-.5h12.93c.28,0,.5,.22,.5,.5s-.22,.5-.5,.5Z"/>
          <rect class="cls-22" x="186.41" y="200.23" width="48" height="8"/>
          <path class="cls-17" d="M226.84,205.54h-36.41c-2.76,0-5-2.24-5-5h41.41v5h0Z"/>
          <path class="cls-5" d="M194.43,202.97h-6.84c-1.24,0-2.24-1-2.24-2.24h0s11.32,0,11.32,0h0c0,1.24-1,2.24-2.24,2.24Z"/>
          <path class="cls-20" d="M235,209.23h-50v-10h50v10Zm-48-2h46v-6h-46v6Z"/>
          <path class="cls-5" d="M167.19,168.77c-.28,0-.5-.22-.5-.5v-5c0-.28,.22-.5,.5-.5s.5,.22,.5,.5v5c0,.28-.22,.5-.5,.5Z"/>
          <path class="cls-5" d="M163.49,174.03c-.28,0-.5-.22-.5-.5v-4c0-.28,.22-.5,.5-.5s.5,.22,.5,.5v4c0,.28-.22,.5-.5,.5Z"/>
          <path class="cls-5" d="M170.55,178.67c-.28,0-.5-.22-.5-.5v-4c0-.28,.22-.5,.5-.5s.5,.22,.5,.5v4c0,.28-.22,.5-.5,.5Z"/>
          <path class="cls-5" d="M178.94,179.54c-.28,0-.5-.22-.5-.5v-5c0-.28,.22-.5,.5-.5s.5,.22,.5,.5v5c0,.28-.22,.5-.5,.5Z"/>
          <path class="cls-5" d="M173.8,174.03c-.28,0-.5-.22-.5-.5v-4c0-.28,.22-.5,.5-.5s.5,.22,.5,.5v4c0,.28-.22,.5-.5,.5Z"/>
          <path class="cls-5" d="M158.19,169.37h32.55c.41,0,.75-.34,.75-.75s-.34-.75-.75-.75h-32.55c-.41,0-.75,.34-.75,.75s.34,.75,.75,.75Z"/>
          <path class="cls-5" d="M158.19,174.7h42.55c.41,0,.75-.34,.75-.75s-.34-.75-.75-.75h-42.55c-.41,0-.75,.34-.75,.75s.34,.75,.75,.75Z"/>
          <path class="cls-5" d="M161.19,180h29.55c.41,0,.75-.34,.75-.75s-.34-.75-.75-.75h-29.55c-.41,0-.75,.34-.75,.75s.34,.75,.75,.75Z"/>
          <rect class="cls-15" x="190.51" y="208.61" width="36.22" height="27.75"/>
          <path class="cls-24" d="M226.97,236.9h-36.7v-28.82h36.7v28.82Zm-33.7-3h30.7v-22.82h-30.7v22.82Z"/>
          <polygon class="cls-7" points="227 217.35 201.67 236.59 189.83 236.6 226.74 207.74 227 217.35"/>
          <polygon class="cls-7" points="220.09 208.91 190.37 232.06 189.83 225.46 211.48 208.83 220.09 208.91"/>
          <path class="cls-19" d="M227.73,237.36h-38.22v-29.75h38.22v29.75Zm-36.22-2h34.22v-25.75h-34.22v25.75Z"/>
          <rect class="cls-19" x="198.79" y="208.18" width="2" height="28.48"/>
          <path class="cls-5" d="M215.67,223.6h0c.28,.36,.22,.88-.14,1.17l-7.06,5.56c-.36,.28-.88,.22-1.17-.14h0c-.28-.36-.22-.88,.14-1.17l7.06-5.56c.36-.28,.88-.22,1.17,.14Z"/>
          <path class="cls-5" d="M220.28,216.02h0c.28,.36,.22,.88-.14,1.17l-7.06,5.56c-.36,.28-.88,.22-1.17-.14h0c-.28-.36-.22-.88,.14-1.17l7.06-5.56c.36-.28,.88-.22,1.17,.14Z"/>
          <path class="cls-5" d="M209.69,211.27h0c.28,.36,.22,.88-.14,1.17l-7.06,5.56c-.36,.28-.88,.22-1.17-.14h0c-.28-.36-.22-.88,.14-1.17l7.06-5.56c.36-.28,.88-.22,1.17,.14Z"/>
          <path class="cls-10" d="M165.39,235.29h0c1.94,0,3.51,1.57,3.51,3.51v17.32c0,1.94-1.57,3.51-3.51,3.51h0c-1.94,0-3.51-1.57-3.51-3.51v-17.32c0-1.94,1.57-3.51,3.51-3.51Z"/>
          <path class="cls-10" d="M165.39,197.51h0c1.94,0,3.51,1.57,3.51,3.51v17.32c0,1.94-1.57,3.51-3.51,3.51h0c-1.94,0-3.51-1.57-3.51-3.51v-17.32c0-1.94,1.57-3.51,3.51-3.51Z"/>
          <path class="cls-20" d="M163.75,253.14h-7c-.55,0-1-.45-1-1s.45-1,1-1h7c.55,0,1,.45,1,1s-.45,1-1,1Z"/>
          <circle class="cls-20" cx="167.86" cy="252.21" r="1.39"/>
          <path class="cls-20" d="M163.75,191.79h-7c-.55,0-1-.45-1-1s.45-1,1-1h7c.55,0,1,.45,1,1s-.45,1-1,1Z"/>
          <circle class="cls-20" cx="167.86" cy="190.87" r="1.39"/>
          <path class="cls-20" d="M226.2,180.37h-7c-.28,0-.5-.22-.5-.5s.22-.5,.5-.5h7c.28,0,.5,.22,.5,.5s-.22,.5-.5,.5Z"/>
          <circle class="cls-20" cx="216.66" cy="179.8" r=".81"/>
          <path class="cls-20" d="M226.5,256.5h-7c-.55,0-1-.45-1-1s.45-1,1-1h7c.55,0,1,.45,1,1s-.45,1-1,1Z"/>
          <circle class="cls-20" cx="215.4" cy="255.42" r="1.39"/>
          <path class="cls-20" d="M251.25,250.66h-7c-.55,0-1-.45-1-1s.45-1,1-1h7c.55,0,1,.45,1,1s-.45,1-1,1Z"/>
          <circle class="cls-20" cx="240.15" cy="249.59" r="1.39"/>
          <path class="cls-20" d="M30.43,175.51c-.44,0-.84-.29-.96-.74-.15-.53,.17-1.08,.7-1.23,.22-.06,22.26-6.33,22.26-25.38,0-.55,.45-1,1-1s1,.45,1,1c0,20.59-23.5,27.24-23.74,27.31-.09,.02-.18,.04-.26,.04Z"/>
          <path class="cls-20" d="M82.92,175.57H8.87c-.55,0-1-.45-1-1s.45-1,1-1H82.92c.55,0,1,.45,1,1s-.45,1-1,1Z"/>
          <polyline class="cls-5" points="14.85 210.21 14.85 189.07 85.74 189.07 85.74 264.25 14.85 264.25 14.85 218.92"/>
          <rect class="cls-17" x="14.85" y="189.08" width="70.89" height="6.97"/>
          <path class="cls-20" d="M85.74,265.75H14.85c-.83,0-1.5-.67-1.5-1.5v-45.33c0-.83,.67-1.5,1.5-1.5s1.5,.67,1.5,1.5v43.83H84.24v-72.18H16.35v19.64c0,.83-.67,1.5-1.5,1.5s-1.5-.67-1.5-1.5v-21.14c0-.83,.67-1.5,1.5-1.5H85.74c.83,0,1.5,.67,1.5,1.5v75.18c0,.83-.67,1.5-1.5,1.5Z"/>
          <rect class="cls-22" x="7.17" y="181.75" width="96" height="8"/>
          <path class="cls-17" d="M7.29,182.19H96.67c0,2.76-2.24,5-5,5H7.29v-5h0Z"/>
          <path class="cls-5" d="M11.82,182.26h11.32c0,1.24-1,2.24-2.24,2.24h-6.84c-1.24,0-2.24-1-2.24-2.24h0Z"/>
          <path class="cls-5" d="M24.16,182.26h11.32c0,1.24-1,2.24-2.24,2.24h-6.84c-1.24,0-2.24-1-2.24-2.24h0Z"/>
          <path class="cls-20" d="M104.59,190.75H6.59v-10H104.59v10Zm-96-2H102.59v-6H8.59v6Z"/>
          <path class="cls-20" d="M16.75,182.18c-.41,0-.75-.34-.75-.75v-6.72c0-.41,.34-.75,.75-.75s.75,.34,.75,.75v6.72c0,.41-.34,.75-.75,.75Z"/>
          <path class="cls-20" d="M29.7,182.18c-.41,0-.75-.34-.75-.75v-6.72c0-.41,.34-.75,.75-.75s.75,.34,.75,.75v6.72c0,.41-.34,.75-.75,.75Z"/>
          <rect class="cls-4" x="22.16" y="201.37" width="67.48" height="54.04"/>
          <path class="cls-18" d="M89.2,255.35H22.6v-53.93H89.2v53.93Zm-63.6-3h60.6v-47.93H25.6v47.93Z"/>
          <path class="cls-20" d="M42.64,182.18c-.41,0-.75-.34-.75-.75v-6.72c0-.41,.34-.75,.75-.75s.75,.34,.75,.75v6.72c0,.41-.34,.75-.75,.75Z"/>
          <circle class="cls-22" cx="54.59" cy="186.19" r="1.64"/>
          <circle class="cls-22" cx="49.52" cy="186.74" r="1.24"/>
          <circle class="cls-22" cx="57.31" cy="184.96" r=".68"/>
          <path class="cls-12" d="M23.18,233.48h26.1c.55,0,1,.45,1,1h0c0,.55-.45,1-1,1H23.18v-1.95h0v-.05Z"/>
          <path class="cls-12" d="M31.46,254.13v-19.38c0-.46,.38-.84,.84-.84h.26c.46,0,.84,.38,.84,.84v19.38h-1.94Z"/>
          <path class="cls-12" d="M41.15,254.13v-19.38c0-.46,.38-.84,.84-.84h.26c.46,0,.84,.38,.84,.84v19.38h-1.94Z"/>
          <polygon class="cls-25" points="34.32 255.34 25.27 255.34 40.27 200.86 49.32 200.86 34.32 255.34"/>
          <polygon class="cls-25" points="47.96 255.34 38.9 255.34 53.9 200.86 62.96 200.86 47.96 255.34"/>
          <path class="cls-20" d="M89.64,256.19H22.16c-.55,0-1-.45-1-1v-54.04c0-.55,.45-1,1-1H89.64c.55,0,1,.45,1,1v54.04c0,.55-.45,1-1,1Zm-66.48-2H88.64v-52.04H23.16v52.04Z"/>
          <polyline class="cls-5" points="51.17 137.6 51.17 122.5 73.17 122.5 73.17 192.5 51.17 192.5 51.17 171.03"/>
          <polygon class="cls-14" points="72.97 121.72 72.97 191.72 50.97 191.72 50.97 187.83 69.46 187.83 69.46 121.72 72.97 121.72"/>
          <rect class="cls-16" x="80.67" y="63" width="78" height="198"/>
          <path class="cls-1" d="M152.94,76.71c-.28,0-.5-.22-.5-.5v-4c0-.28,.22-.5,.5-.5s.5,.22,.5,.5v4c0,.28-.22,.5-.5,.5Z"/>
          <path class="cls-1" d="M151.14,81.38c-.28,0-.5-.22-.5-.5v-4c0-.28,.22-.5,.5-.5s.5,.22,.5,.5v4c0,.28-.22,.5-.5,.5Z"/>
          <path class="cls-1" d="M148.49,81.76h9.51c.41,0,.75-.34,.75-.75s-.34-.75-.75-.75h-9.55c-.41,0-.75,.34-.75,.75s.34,.75,.75,.75h.04Z"/>
          <path class="cls-1" d="M138.17,72.32h19.55c.41,0,.75-.34,.75-.75s-.34-.75-.75-.75h-19.55c-.41,0-.75,.34-.75,.75s.34,.75,.75,.75Z"/>
          <path class="cls-1" d="M144.17,77.14h13.55c.41,0,.75-.34,.75-.75s-.34-.75-.75-.75h-13.55c-.41,0-.75,.34-.75,.75s.34,.75,.75,.75Z"/>
          <rect class="cls-13" x="80.81" y="62.66" width="78" height="7.52"/>
          <rect class="cls-13" x="80.67" y="93" width="78" height="8.5"/>
          <rect class="cls-13" x="152.61" y="101.78" width="5.96" height="160.5"/>
          <path class="cls-1" d="M80.66,106.5h0c3.87,0,7,3.13,7,7v148h-7V106.5h0Z"/>
          <path class="cls-20" d="M158.08,114.96c-.83,0-1.5-.67-1.5-1.5v-48.46H82.58v6.45c0,.83-.67,1.5-1.5,1.5s-1.5-.67-1.5-1.5v-7.95c0-.83,.67-1.5,1.5-1.5h77c.83,0,1.5,.67,1.5,1.5v49.96c0,.83-.67,1.5-1.5,1.5Z"/>
          <path class="cls-20" d="M81.08,123.53c-.83,0-1.5-.67-1.5-1.5v-43.09c0-.83,.67-1.5,1.5-1.5s1.5,.67,1.5,1.5v43.09c0,.83-.67,1.5-1.5,1.5Z"/>
          <rect class="cls-20" x="74.17" y="137.5" width="6" height="4"/>
          <path class="cls-20" d="M73.17,193.5h-22c-.55,0-1-.45-1-1v-22.47c0-.55,.45-1,1-1s1,.45,1,1v21.47h20V123.5h-20v14.1c0,.55-.45,1-1,1s-1-.45-1-1v-15.1c0-.55,.45-1,1-1h22c.55,0,1,.45,1,1v70c0,.55-.45,1-1,1Z"/>
          <path class="cls-20" d="M51.17,165.76c-.55,0-1-.45-1-1v-13.47c0-.55,.45-1,1-1s1,.45,1,1v13.47c0,.55-.45,1-1,1Z"/>
          <path class="cls-20" d="M51.17,147.05c-.55,0-1-.45-1-1v-2.47c0-.55,.45-1,1-1s1,.45,1,1v2.47c0,.55-.45,1-1,1Z"/>
          <path class="cls-15" d="M119.58,105.5h0c13.25,0,24,10.75,24,24v54h-48v-54c0-13.25,10.75-24,24-24Z"/>
          <path class="cls-24" d="M143.93,182.81h-48.69v-52.28c0-13.42,10.92-24.34,24.34-24.35h0c13.43,0,24.35,10.92,24.35,24.35v52.28Zm-44.69-4h40.69v-48.28c0-11.22-9.13-20.35-20.35-20.35-11.22,0-20.34,9.13-20.34,20.35v48.28Z"/>
          <path class="cls-15" d="M119.9,199.67h0c13.53,0,24.5,10.97,24.5,24.5v37.5h-49v-37.5c0-13.53,10.97-24.5,24.5-24.5h0Z"/>
          <path class="cls-24" d="M143.43,260.24h-47.69v-36.5c0-13.15,10.69-23.84,23.84-23.85h0c13.15,0,23.84,10.7,23.84,23.85v36.5Zm-44.69-3h41.69v-33.5c0-11.5-9.35-20.85-20.84-20.85-11.49,0-20.85,9.35-20.85,20.85v33.5Z"/>
          <path class="cls-20" d="M89.17,110.5h-7c-.55,0-1-.45-1-1s.45-1,1-1h7c.55,0,1,.45,1,1s-.45,1-1,1Z"/>
          <circle class="cls-20" cx="93.27" cy="109.57" r="1.39"/>
          <path class="cls-1" d="M95.67,70.5c-.28,0-.5-.22-.5-.5v-6c0-.28,.22-.5,.5-.5s.5,.22,.5,.5v6c0,.28-.22,.5-.5,.5Z"/>
          <path class="cls-1" d="M91.97,75.76c-.28,0-.5-.22-.5-.5v-4c0-.28,.22-.5,.5-.5s.5,.22,.5,.5v4c0,.28-.22,.5-.5,.5Z"/>
          <path class="cls-1" d="M99.03,80.41c-.28,0-.5-.22-.5-.5v-4c0-.28,.22-.5,.5-.5s.5,.22,.5,.5v4c0,.28-.22,.5-.5,.5Z"/>
          <path class="cls-1" d="M107.42,81.27c-.28,0-.5-.22-.5-.5v-5c0-.28,.22-.5,.5-.5s.5,.22,.5,.5v5c0,.28-.22,.5-.5,.5Z"/>
          <path class="cls-1" d="M102.27,75.76c-.28,0-.5-.22-.5-.5v-4c0-.28,.22-.5,.5-.5s.5,.22,.5,.5v4c0,.28-.22,.5-.5,.5Z"/>
          <rect class="cls-19" x="81.17" y="221.5" width="7" height="2"/>
          <rect class="cls-19" x="151.17" y="221.5" width="7" height="2"/>
          <rect class="cls-19" x="151.17" y="172.5" width="7" height="2"/>
          <rect class="cls-19" x="151.17" y="100.5" width="7" height="2"/>
          <circle class="cls-2" cx="62.17" cy="137.5" r="5"/>
          <circle class="cls-2" cx="62.17" cy="175.5" r="5"/>
          <rect class="cls-22" x="71.17" y="85.5" width="96" height="8"/>
          <path class="cls-17" d="M71.17,85.5h89.38c0,2.76-2.24,5-5,5H71.17v-5h0Z"/>
          <path class="cls-14" d="M165.17,5V46c0,1.39-1.13,2.52-2.52,2.52H76.65c-1.38-.02-2.48-1.14-2.48-2.52v-4.8c9.57-7.87,21.87-11.62,34.2-10.44,10.56,1.08,20.47,5.75,31,7,4.1,.5,8.69,.33,11.76-2.45,2.29-2.07,3.28-5.24,3.61-8.31,.35-3.27,0-6.75-1.79-9.5-.74-1.12-1.7-2.08-2.45-3.2-1.33-2.16-2.08-4.63-2.16-7.17-.18-1.53,0-3.09,.54-4.54l.05-.11h13.71c1.39,0,2.52,1.12,2.53,2.51,0,0,0,0,0,.01Z"/>
          <rect class="cls-17" x="71.58" y="56.5" width="96" height="8"/>
          <path class="cls-5" d="M72.17,56.35h52.58c0,2.21-1.79,4-4,4h-48.58v-4h0Z"/>
          <polygon class="cls-20" points="168.58 65.5 70.58 65.5 70.58 55.5 92.67 55.5 92.67 57.5 72.58 57.5 72.58 63.5 166.58 63.5 166.58 57.5 111.56 57.5 111.56 55.5 168.58 55.5 168.58 65.5"/>
          <rect class="cls-20" x="96.76" y="55.5" width="11.31" height="2"/>
          <path class="cls-20" d="M76.59,49.02c-1.06,0-2.07-.41-2.82-1.17-.76-.76-1.18-1.76-1.19-2.84V4c.02-2.21,1.82-4,4.02-4h18.15V3h-18.14c-.56,0-1.02,.45-1.03,1.01V45c0,.28,.11,.53,.3,.72,.19,.19,.46,.29,.72,.3h85.96c.56,0,1.02-.46,1.02-1.02V4c0-.55-.46-1-1.02-1h-40.93V0h40.93c2.2,0,4,1.79,4.02,3.99V45c0,2.22-1.8,4.02-4.02,4.02H76.59Z"/>
          <rect class="cls-20" x="101.13" width="14.34" height="3"/>
          <rect class="cls-20" x="81.13" y="47.5" width="4.07" height="8"/>
          <rect class="cls-20" x="154.31" y="47.5" width="4.07" height="8"/>
          <rect class="cls-20" x="117.72" y="47.5" width="4.07" height="8"/>
          <circle class="cls-2" cx="84.17" cy="10.5" r="3"/>
          <circle class="cls-2" cx="84.17" cy="37.5" r="3"/>
          <circle class="cls-2" cx="155.17" cy="10.5" r="3"/>
          <circle class="cls-2" cx="155.17" cy="37.5" r="3"/>
          <path class="cls-13" d="M145.36,112.54h9.27c.89,0,1.61,.72,1.61,1.61h0c0,.89-.72,1.6-1.61,1.6h-9.27c-.89,0-1.61-.72-1.61-1.61h0c0-.89,.72-1.6,1.61-1.6Z"/>
          <rect class="cls-13" x="133.22" y="192.04" width="21.49" height="3.21" rx="1.6" ry="1.6"/>
          <circle class="cls-13" cx="129.38" cy="193.54" r="1.75"/>
          <polygon class="cls-7" points="142.89 214.08 95.38 254.08 95.38 242.09 137.89 207.09 142.89 214.08"/>
          <polygon class="cls-7" points="142.89 235.89 111.38 261.89 95.38 261.9 143.89 222.9 142.89 235.89"/>
          <polygon class="cls-6" points="142.89 136.08 95.38 176.08 95.38 164.09 143 124.66 142.89 136.08"/>
          <polygon class="cls-6" points="142.89 157.9 111.38 183.9 95.38 183.91 143.89 144.91 142.89 157.9"/>
          <path class="cls-20" d="M158.08,263H81.08c-.83,0-1.5-.67-1.5-1.5v-18.52c0-.83,.67-1.5,1.5-1.5s1.5,.67,1.5,1.5v17.02h74V127.29c0-.83,.67-1.5,1.5-1.5s1.5,.67,1.5,1.5v134.21c0,.83-.67,1.5-1.5,1.5Z"/>
          <path class="cls-20" d="M145.08,262.5h-51v-38.5c0-14.06,11.44-25.5,25.5-25.5s25.5,11.44,25.5,25.5v38.5Zm-49-2h47v-36.5c0-12.96-10.54-23.5-23.5-23.5s-23.5,10.54-23.5,23.5v36.5Z"/>
          <rect class="cls-19" x="118.17" y="199.5" width="2" height="61"/>
          <rect class="cls-19" x="95.17" y="218.5" width="49" height="2"/>
          <rect class="cls-19" x="107.17" y="214.73" width="2" height="4.77"/>
          <rect class="cls-19" x="107.17" y="201.5" width="2" height="9.33"/>
          <rect class="cls-19" x="129.17" y="201.5" width="2" height="18"/>
          <path class="cls-5" d="M81.65,136.83h0c2.41,.02,4.35,1.97,4.35,4.38v9.54c0,2.42-1.96,4.38-4.38,4.38h0v-18.3h.03Z"/>
          <path class="cls-5" d="M116.23,148.67h0c.51,.61,.42,1.51-.18,2.01l-11.87,9.89c-.61,.51-1.51,.42-2.01-.18h0c-.51-.61-.42-1.51,.18-2.01l11.87-9.89c.61-.51,1.51-.42,2.01,.18Z"/>
          <path class="cls-5" d="M136.29,135.62h0c.51,.61,.42,1.51-.18,2.01l-11.87,9.89c-.61,.51-1.51,.42-2.01-.18h0c-.51-.61-.42-1.51,.18-2.01l11.87-9.89c.61-.51,1.51-.42,2.01,.18Z"/>
          <rect class="cls-5" x="123.81" y="160.69" width="18.31" height="2.86" rx="1.43" ry="1.43" transform="translate(-72.98 122.75) rotate(-39.82)"/>
          <path class="cls-5" d="M120.15,165.64h0c.51,.61,.42,1.51-.18,2.01l-11.87,9.89c-.61,.51-1.51,.42-2.01-.18h0c-.51-.61-.42-1.51,.18-2.01l11.87-9.89c.61-.51,1.51-.42,2.01,.18Z"/>
          <path class="cls-5" d="M81.65,199h0c2.39,.02,4.33,1.95,4.35,4.34v9.54c0,2.42-1.96,4.38-4.38,4.38h0v-18.26h.03Z"/>
          <path class="cls-20" d="M81.08,236.43c-.83,0-1.5-.67-1.5-1.5v-106.4c0-.83,.67-1.5,1.5-1.5s1.5,.67,1.5,1.5v106.4c0,.83-.67,1.5-1.5,1.5Z"/>
          <path class="cls-20" d="M144.58,184.5h-50v-55c0-13.79,11.21-25,25-25s25,11.21,25,25v55Zm-48-2h46v-53c0-12.68-10.32-23-23-23s-23,10.32-23,23v53Z"/>
          <rect class="cls-19" x="118.17" y="128.5" width="2" height="56"/>
          <rect class="cls-19" x="95.17" y="127.5" width="49" height="2"/>
          <rect class="cls-5" x="100.35" y="131.87" width="3.41" height="16.85" rx="1.7" ry="1.7"/>
          <rect class="cls-5" x="27.63" y="214.57" width="3.41" height="16.85" rx="1.7" ry="1.7"/>
          <path class="cls-1" d="M86.67,71.1h32.55c.41,0,.75-.34,.75-.75s-.34-.75-.75-.75h-32.55c-.41,0-.75,.34-.75,.75s.34,.75,.75,.75Z"/>
          <path class="cls-1" d="M86.67,76.43h42.55c.41,0,.75-.34,.75-.75s-.34-.75-.75-.75h-42.55c-.41,0-.75,.34-.75,.75s.34,.75,.75,.75Z"/>
          <path class="cls-1" d="M89.67,81.76h29.55c.41,0,.75-.34,.75-.75s-.34-.75-.75-.75h-29.55c-.41,0-.75,.34-.75,.75s.34,.75,.75,.75Z"/>
          <circle class="cls-22" cx="118.59" cy="89.94" r="1.64"/>
          <circle class="cls-22" cx="113.52" cy="90.49" r="1.24"/>
          <circle class="cls-22" cx="121.3" cy="88.71" r=".68"/>
          <path class="cls-5" d="M71.82,85.81h11.32c0,1.25-1.01,2.26-2.26,2.26h-9.06v-2.26h0Z"/>
          <path class="cls-5" d="M84.16,85.81h11.32c0,1.25-1.01,2.26-2.26,2.26h-6.8c-1.25,0-2.26-1.01-2.26-2.26h0s0,0,0,0Z"/>
          <polygon class="cls-20" points="168.58 94.5 70.58 94.5 70.58 84.5 138.2 84.5 138.2 86.5 72.58 86.5 72.58 92.5 166.58 92.5 166.58 86.5 143.24 86.5 143.24 84.5 168.58 84.5 168.58 94.5"/>
          <path class="cls-20" d="M63.64,261.19c-.55,0-1-.45-1-1v-62.89c0-.55,.45-1,1-1s1,.45,1,1v62.89c0,.55-.45,1-1,1Z"/>
          <circle class="cls-5" cx="29.34" cy="209.9" r="1.9"/>
          <path class="cls-20" d="M59.06,123.61c-.48,0-.91-.35-.99-.84-.09-.54,.28-1.06,.83-1.15,.05,0,5.33-.9,10.5-4.15,6.83-4.29,10.3-10.49,10.3-18.42,0-.55,.45-1,1-1s1,.45,1,1c0,20.67-22.26,24.51-22.48,24.55-.05,0-.11,.01-.16,.01Z"/>
          <path class="cls-20" d="M20.77,186.23H7.84c-.28,0-.5-.22-.5-.5s.22-.5,.5-.5h12.93c.28,0,.5,.22,.5,.5s-.22,.5-.5,.5Z"/>
          <path class="cls-20" d="M89.17,191.97h-7c-.55,0-1-.45-1-1s.45-1,1-1h7c.55,0,1,.45,1,1s-.45,1-1,1Z"/>
          <circle class="cls-20" cx="93.27" cy="191.04" r="1.39"/>
          <rect class="cls-22" x=".58" y="260.49" width="246" height="8"/>
          <rect class="cls-17" x=".58" y="260.49" width="230" height="4"/>
          <path class="cls-20" d="M248,269.49H0v-10H248v10Zm-246-2H246v-6H2v6Z"/>
          <rect class="cls-5" x="204.53" y="161.3" width="21.91" height="14.07"/>
          <rect class="cls-17" x="204.53" y="161.08" width="21.91" height="3.18"/>
          <path class="cls-20" d="M226.44,176.15h-21.91c-.55,0-1-.45-1-1v-14.07c0-.55,.45-1,1-1h21.91c.55,0,1,.45,1,1v14.07c0,.55-.45,1-1,1Zm-20.91-2h19.91v-12.07h-19.91v12.07Z"/>
          <path class="cls-20" d="M215.61,171.77c-1.71,0-3.1-1.39-3.1-3.1s1.39-3.1,3.1-3.1,3.1,1.39,3.1,3.1-1.39,3.1-3.1,3.1Zm0-4.7c-.88,0-1.6,.72-1.6,1.6s.72,1.6,1.6,1.6,1.6-.72,1.6-1.6-.72-1.6-1.6-1.6Z"/>
        </g>
      </g>
    </g>
  </g>
</svg>