<?xml version="1.0" encoding="UTF-8"?>
<svg id="Layer_2" data-name="Layer 2" xmlns="http://www.w3.org/2000/svg" viewBox="0 0 56.67 71.33">
  <defs>
    <style>
      .cls-1 {
        fill: #000201;
      }

      .cls-2 {
        fill: #e3e3ee;
      }

      .cls-3, .cls-4 {
        fill: #fff;
      }

      .cls-5 {
        fill: #2ff382;
      }

      .cls-6 {
        fill: #c9c9d7;
      }

      .cls-7 {
        fill: #dbefff;
      }

      .cls-8, .cls-9 {
        fill: #06cb56;
      }

      .cls-10 {
        fill: #8080b9;
      }

      .cls-11 {
        fill: #61ffa0;
      }

      .cls-12, .cls-13 {
        fill: #5ccce8;
      }

      .cls-13 {
        opacity: .52;
      }

      .cls-13, .cls-4, .cls-9 {
        isolation: isolate;
      }

      .cls-4 {
        opacity: .53;
      }

      .cls-9 {
        opacity: .6;
      }
    </style>
  </defs>
  <g id="Layer_3" data-name="Layer 3">
    <g>
      <rect class="cls-6" x=".49" y=".49" width="44.23" height="70.35" rx="4.1" ry="4.1"/>
      <rect class="cls-7" x="4.15" y="4.58" width="36.29" height="62.17" rx="1.79" ry="1.79"/>
      <path class="cls-12" d="M5.99,66.74c-.6,0-1.09-.49-1.09-1.09v-5.02c0-.6,.49-1.09,1.09-1.09,.6,0,1.09,.49,1.09,1.09h0v5.02c0,.6-.49,1.08-1.09,1.09Z"/>
      <path class="cls-12" d="M5.99,55.45c-.6,0-1.09-.49-1.09-1.09,0,0,0,0,0,0v-7.74c0-.6,.49-1.09,1.09-1.09,.6,0,1.09,.49,1.09,1.09h0v7.74c0,.6-.49,1.09-1.09,1.09Z"/>
      <path class="cls-4" d="M5.99,52.5c-.6,0-1.09-.49-1.09-1.09h0v-1.53c0-.6,.49-1.09,1.09-1.09,.6,0,1.09,.49,1.09,1.09h0v1.53c0,.6-.49,1.08-1.09,1.09Z"/>
      <path class="cls-12" d="M5.99,42.35c-.6,0-1.08-.48-1.09-1.07,0,0,0,0,0-.01V5.21c0-.6,.49-1.09,1.09-1.09,.6,0,1.09,.49,1.09,1.09h0V41.26c0,.6-.49,1.09-1.09,1.09Z"/>
      <polygon class="cls-3" points="29.22 5.05 31.6 5.05 23.03 66.97 20.64 66.97 29.22 5.05"/>
      <polygon class="cls-3" points="15.59 5.05 25.59 5.05 17.02 66.97 7.63 66.97 15.59 5.05"/>
      <path class="cls-1" d="M26.15,.97h-3.27c-.27,0-.49-.22-.49-.49,0-.27,.22-.48,.49-.48h3.28c.27,0,.49,.22,.49,.49,0,.27-.23,.48-.49,.48Z"/>
      <path class="cls-1" d="M28.15,67.21h-2.73c-.27,0-.49-.22-.49-.49,0-.27,.22-.49,.49-.49h2.73c.27,0,.49,.22,.49,.49,0,.27-.22,.49-.49,.49Z"/>
      <path class="cls-1" d="M27.5,64.73h-9.98c-.22-.03-.38-.23-.35-.45,.02-.18,.17-.33,.35-.35h9.98c.22,.03,.38,.23,.35,.45-.02,.18-.17,.33-.35,.35Z"/>
      <path class="cls-10" d="M3.74,20.37c-.6,0-1.09-.49-1.09-1.09h0v-6.22c0-.6,.49-1.09,1.09-1.09,.6,0,1.09,.49,1.09,1.09h0v6.25c-.01,.59-.5,1.06-1.09,1.06Z"/>
      <path class="cls-10" d="M3.74,57.33c-.6,0-1.09-.49-1.09-1.09h0v-6.2c0-.6,.49-1.09,1.09-1.09,.6,0,1.09,.49,1.09,1.09h0v6.22c0,.59-.49,1.07-1.09,1.06Z"/>
      <path class="cls-10" d="M3.74,44.37c-.6,0-1.09-.49-1.09-1.09h0V25.65c0-.6,.49-1.09,1.09-1.09,.6,0,1.09,.49,1.09,1.09h0v17.64c0,.6-.48,1.08-1.07,1.09,0,0,0,0-.01,0Z"/>
      <path class="cls-2" d="M42.91,35.44c-.91,0-1.65-.74-1.65-1.65v-12.79c0-.91,.74-1.65,1.65-1.65,.91,0,1.65,.74,1.65,1.65v12.8c0,.91-.74,1.64-1.65,1.64Z"/>
      <path class="cls-2" d="M42.91,46.16c-.91,0-1.65-.74-1.65-1.65v-4.64c0-.91,.74-1.65,1.65-1.65,.91,0,1.65,.74,1.65,1.65v4.64c0,.91-.74,1.65-1.65,1.65Z"/>
      <path class="cls-2" d="M42.91,17.31c-.91,0-1.65-.74-1.65-1.65v-4.64c0-.91,.74-1.65,1.65-1.65,.91,0,1.65,.74,1.65,1.65v4.67c-.02,.9-.75,1.62-1.65,1.62Z"/>
      <path class="cls-3" d="M42.91,30.81c-.91,0-1.65-.74-1.65-1.65v-3.55c0-.91,.74-1.65,1.65-1.65,.91,0,1.65,.74,1.65,1.65v3.55c0,.91-.74,1.65-1.65,1.65Z"/>
      <path class="cls-3" d="M12.09,4.44H6.66c-1,0-1.81-.81-1.81-1.81s.81-1.81,1.81-1.81h5.43c1,0,1.81,.81,1.81,1.81s-.81,1.81-1.81,1.81Z"/>
      <path class="cls-6" d="M16.6,4.44v1c0,1.35,.91,2.41,2.03,2.41h9.52c1.12,0,2.03-1.09,2.03-2.41v-1.02"/>
      <path class="cls-1" d="M28.02,8.52h-9.17c-1.33,0-2.41-1.08-2.41-2.41,0-.25,.21-.46,.46-.46s.46,.21,.46,.46c0,.83,.67,1.5,1.5,1.5h9.17c.83,0,1.49-.67,1.5-1.5-.03-.25,.15-.48,.4-.51s.48,.15,.51,.4c0,.03,0,.07,0,.11,0,1.33-1.08,2.41-2.41,2.41Z"/>
      <circle class="cls-1" cx="20.63" cy="5.45" r=".63"/>
      <path class="cls-1" d="M26.21,5.76h-3.33c-.17,.03-.33-.07-.36-.24-.03-.17,.07-.33,.24-.36,.04,0,.08,0,.12,0h3.33c.17-.03,.33,.07,.36,.24,.03,.17-.07,.33-.24,.36-.04,0-.08,0-.12,0Z"/>
      <path class="cls-1" d="M38.95,67.24H6.25c-1.26,0-2.28-1.02-2.28-2.28V6.37c0-1.26,1.02-2.28,2.28-2.28h10.26c.27,0,.49,.22,.49,.49,0,.27-.22,.49-.49,.49H6.25c-.72,0-1.3,.58-1.3,1.3v58.6c0,.72,.58,1.3,1.3,1.3H38.95c.72,0,1.3-.58,1.3-1.3V6.37c0-.72-.58-1.3-1.3-1.3h-8.38c-.27,0-.49-.22-.49-.49,0-.27,.22-.49,.49-.49h8.38c1.26,0,2.28,1.02,2.28,2.28v58.6c0,1.26-1.02,2.28-2.28,2.28Z"/>
      <path class="cls-1" d="M40.61,71.33H4.59c-2.54,0-4.59-2.06-4.59-4.6V4.58C0,2.05,2.06,0,4.59,0h15.3c.27,.03,.47,.27,.44,.55-.03,.23-.21,.41-.44,.44H4.59C2.59,.98,.97,2.6,.97,4.6v62.16c0,2,1.62,3.62,3.62,3.62H40.61c2,0,3.62-1.62,3.62-3.62V4.6c0-2-1.62-3.62-3.62-3.62h-11.18c-.27-.03-.47-.27-.44-.55,.03-.23,.21-.41,.44-.44h11.18c2.54,0,4.59,2.06,4.6,4.59v62.16c0,2.53-2.06,4.58-4.6,4.59Z"/>
      <rect class="cls-3" x="13.36" y="19.53" width="38.17" height="27.03" rx="2.58" ry="2.58"/>
      <path class="cls-1" d="M35.05,23.78H17.51c-.27,0-.49-.22-.49-.49,0-.27,.22-.49,.49-.49h17.55c.27,0,.49,.22,.49,.49,0,.27-.22,.49-.49,.49h0Z"/>
      <path class="cls-1" d="M30.83,27.35h-13.32c-.27,0-.49-.22-.49-.49,0-.27,.22-.49,.49-.49h13.32c.27,0,.49,.22,.49,.49,0,.27-.22,.49-.49,.49h0Z"/>
      <path class="cls-1" d="M25.4,30.93h-7.89c-.27,0-.49-.22-.49-.49,0-.27,.22-.49,.49-.49h7.9c.27,0,.49,.22,.49,.49,0,.27-.22,.49-.49,.49h0Z"/>
      <path class="cls-13" d="M25.41,46.3h-6.52c-.6,0-1.09-.49-1.09-1.09s.49-1.09,1.09-1.09h6.52c.6,0,1.09,.49,1.09,1.09s-.49,1.09-1.09,1.09Z"/>
      <path class="cls-13" d="M45.34,46.3h-6.52c-.6,0-1.09-.49-1.09-1.09s.49-1.09,1.09-1.09h6.52c.6,0,1.09,.49,1.09,1.09s-.49,1.09-1.09,1.09Z"/>
      <path class="cls-13" d="M33.14,46.3h-2.93c-.6,0-1.09-.49-1.09-1.09s.49-1.09,1.09-1.09h2.93c.6,0,1.09,.49,1.09,1.09s-.49,1.09-1.09,1.09Z"/>
      <path class="cls-1" d="M48.95,46.83H15.94c-1.7,0-3.07-1.38-3.07-3.07V21.89c0-1.7,1.38-3.07,3.07-3.07H48.95c1.7,0,3.07,1.38,3.07,3.07v21.88c0,1.7-1.38,3.07-3.07,3.07ZM15.94,19.8c-1.16,0-2.1,.92-2.11,2.08,0,0,0,0,0,.01v21.88c0,1.16,.93,2.1,2.09,2.1,0,0,.02,0,.02,0H48.95c1.15,0,2.09-.93,2.09-2.09V21.89c0-1.15-.94-2.09-2.09-2.09H15.94Z"/>
      <circle class="cls-5" cx="42.17" cy="54.58" r="13.97"/>
      <g>
        <circle class="cls-11" cx="36.54" cy="46.5" r="1.85"/>
        <circle class="cls-11" cx="39.14" cy="49.33" r="1"/>
      </g>
      <path class="cls-3" d="M41.36,60.1c-.3,0-.58-.11-.8-.31l-4.32-3.86c-.5-.44-.54-1.21-.1-1.71,.44-.5,1.21-.54,1.71-.1h0l3.37,3.02,5.13-6.43c.42-.52,1.18-.61,1.7-.19,.52,.42,.61,1.18,.19,1.7h0l-5.93,7.43c-.21,.26-.51,.42-.84,.45h-.1Z"/>
      <circle class="cls-1" cx="31.08" cy="46.13" r=".6"/>
      <path class="cls-8" d="M44.72,68.4c-.5,.03-.93-.35-.96-.85s.35-.93,.85-.96c.22,0,5.15-.66,8.26-6.08,.25-.42,.78-.56,1.21-.33,.42,.24,.57,.78,.33,1.21-3.62,6.25-9.38,6.96-9.66,6.98l-.04,.04Z"/>
      <path class="cls-8" d="M54.91,58.6c-.1,0-.2-.02-.3-.05-.47-.16-.72-.67-.56-1.14,0,0,0,0,0-.01,.24-.86,.4-1.75,.46-2.64,.03-.49,.45-.86,.94-.83,.01,0,.02,0,.03,0,.5,.04,.87,.47,.83,.97-.08,1.05-.27,2.09-.56,3.1-.13,.36-.47,.61-.86,.61Z"/>
      <path class="cls-9" d="M39.96,68.19c-.06,0-.11,0-.17,0-1.03-.19-2.05-.49-3.02-.89-.45-.22-.64-.76-.43-1.21,.22-.45,.76-.64,1.21-.43h0c.83,.33,1.69,.58,2.57,.75,.5,.04,.87,.49,.82,.99-.04,.5-.49,.87-.99,.82v-.04Z"/>
      <path class="cls-1" d="M42.19,69.09c-8.02,0-14.52-6.49-14.53-14.51,0-2.49,.64-4.95,1.86-7.12,.17-.25,.51-.32,.76-.14,.22,.15,.3,.44,.19,.68-3.63,6.46-1.33,14.64,5.13,18.27,6.46,3.63,14.64,1.33,18.27-5.13,3.63-6.46,1.33-14.64-5.13-18.27-5.23-2.94-11.77-2.05-16.02,2.17-.21,.22-.56,.22-.78,0-.22-.21-.22-.56,0-.78,5.69-5.64,14.88-5.6,20.52,.09,5.64,5.69,5.6,14.88-.09,20.52-2.71,2.68-6.36,4.2-10.18,4.21Z"/>
    </g>
  </g>
</svg>