<?xml version="1.0" encoding="UTF-8"?>
<svg id="Layer_2" data-name="Layer 2" xmlns="http://www.w3.org/2000/svg" viewBox="0 0 75.78 63.62">
  <defs>
    <style>
      .cls-1 {
        fill: #000201;
      }

      .cls-2 {
        fill: #ffe0c4;
      }

      .cls-3 {
        fill: #f81c46;
      }

      .cls-4 {
        fill: #fff;
      }

      .cls-5 {
        fill: #ffc58c;
      }

      .cls-6 {
        fill: #fbb570;
      }

      .cls-7 {
        fill: #ff5f84;
      }

      .cls-8 {
        fill: #2ff382;
      }

      .cls-9 {
        fill: #c9c9d7;
      }

      .cls-10 {
        fill: #d07828;
      }

      .cls-11, .cls-12 {
        fill: #06cb56;
      }

      .cls-13 {
        fill: #6f6372;
      }

      .cls-14 {
        fill: #8080b9;
      }

      .cls-15 {
        fill: #61ffa0;
      }

      .cls-16 {
        fill: #4c404f;
      }

      .cls-12 {
        isolation: isolate;
        opacity: .6;
      }
    </style>
  </defs>
  <g id="Layer_3" data-name="Layer 3">
    <g>
      <rect class="cls-9" x=".46" y="43.69" width="74.86" height="19.46" rx="9.73" ry="9.73"/>
      <path class="cls-14" d="M65.53,63.62H10.24c-5.49,0-9.93-4.45-9.94-9.94v-.25c0-5.48,4.45-9.93,9.94-9.93h55.29c5.48,.01,9.92,4.45,9.93,9.93v.25c0,5.48-4.45,9.93-9.93,9.94ZM10.24,45.52c-4.37,0-7.91,3.54-7.91,7.91v.25c0,4.37,3.54,7.91,7.91,7.91h55.29c4.36-.02,7.89-3.55,7.89-7.91v-.25c0-4.37-3.54-7.91-7.91-7.91H10.24Z"/>
      <path class="cls-1" d="M65.59,63.61H10.18c-5.62,0-10.18-4.56-10.18-10.18s4.56-10.18,10.18-10.18h7.89c.25,.03,.44,.25,.41,.51-.02,.22-.19,.39-.41,.41h-7.89c-5.12,0-9.26,4.15-9.26,9.27,0,5.11,4.15,9.26,9.26,9.26h55.41c5.12,0,9.26-4.15,9.26-9.27,0-5.11-4.15-9.26-9.26-9.26h-26.15c-.25,.03-.48-.16-.51-.41s.16-.48,.41-.51c.03,0,.06,0,.1,0h26.15c5.62,0,10.18,4.56,10.18,10.18s-4.56,10.18-10.18,10.18Z"/>
      <path class="cls-13" d="M10.65,47.07h54.47c3.43,0,6.2,2.78,6.2,6.2h0c0,3.43-2.78,6.2-6.2,6.2H10.65c-3.43,0-6.2-2.78-6.2-6.2h0c0-3.43,2.78-6.2,6.2-6.2Z"/>
      <path class="cls-13" d="M10.8,47.07h54.47c3.43,0,6.2,2.78,6.2,6.2h0c0,3.43-2.78,6.2-6.2,6.2H10.8c-3.43,0-6.2-2.78-6.2-6.2h0c0-3.43,2.78-6.2,6.2-6.2Z"/>
      <path class="cls-16" d="M32.58,59.69h-8.28c-.42,0-.76-.34-.76-.76s.34-.76,.76-.76h8.28c.42,0,.76,.34,.76,.76s-.34,.76-.76,.76h0Z"/>
      <path class="cls-16" d="M16.8,59.73h0l-6.25-.05c-.42,0-.76-.34-.76-.76s.34-.76,.76-.76h0l6.26,.05c.42,0,.76,.34,.76,.76s-.34,.76-.76,.76h0Z"/>
      <path class="cls-16" d="M65.28,59.73h0l-6.25-.05c-.42,0-.76-.34-.76-.76s.34-.76,.76-.76l6.25,.05c.42,0,.76,.34,.76,.76s-.34,.76-.76,.76Z"/>
      <path class="cls-16" d="M58.06,59.69h-10.66c-.42,0-.76-.34-.76-.76s.34-.76,.76-.76h10.66c.42,0,.76,.34,.76,.76s-.34,.76-.76,.76Z"/>
      <path class="cls-16" d="M52.17,48.9h-6.11c-.42,0-.76-.34-.76-.76s.34-.76,.76-.76h6.11c.42,0,.76,.34,.76,.76s-.34,.76-.76,.76Z"/>
      <path class="cls-16" d="M30.46,48.9h-6.14c-.42,0-.76-.34-.76-.76s.34-.76,.76-.76h6.14c.42,0,.76,.34,.76,.76s-.34,.76-.76,.76Z"/>
      <path class="cls-1" d="M65.12,60.08H10.64c-3.68,0-6.66-2.98-6.66-6.66s2.98-6.66,6.66-6.66h54.48c3.68,0,6.66,2.98,6.66,6.66s-2.98,6.66-6.66,6.66ZM10.64,47.68c-3.17,0-5.74,2.57-5.74,5.74s2.57,5.74,5.74,5.74h54.48c3.17,0,5.74-2.57,5.75-5.74s-2.57-5.74-5.74-5.75H10.64Z"/>
      <circle class="cls-9" cx="18.01" cy="53.37" r="5.79"/>
      <path class="cls-1" d="M18.01,59.51c-2.56,.01-4.87-1.55-5.8-3.94-.09-.23,.03-.49,.25-.58,.23-.09,.48,.02,.58,.25,0,0,0,0,0,0,1.08,2.75,4.19,4.1,6.93,3.02,2.75-1.08,4.1-4.19,3.02-6.93-1.08-2.75-4.19-4.1-6.93-3.02-2.04,.8-3.38,2.77-3.39,4.97,.03,.25-.15,.47-.4,.49-.25,.03-.47-.15-.49-.4,0-.03,0-.06,0-.1,0-3.44,2.79-6.23,6.23-6.23,3.44,0,6.23,2.79,6.23,6.23,0,3.44-2.79,6.23-6.23,6.23h0Z"/>
      <circle class="cls-4" cx="18.01" cy="53.33" r="2.68"/>
      <path class="cls-1" d="M17.99,56.41c-1.73,0-3.13-1.4-3.13-3.13,0-1.73,1.4-3.13,3.13-3.13s3.13,1.4,3.13,3.13h0c0,1.73-1.4,3.13-3.13,3.13Zm0-5.37c-1.24,0-2.24,1-2.24,2.24s1,2.24,2.24,2.24,2.24-1,2.24-2.24h0c0-1.24-1-2.25-2.24-2.25h0Z"/>
      <circle class="cls-9" cx="59.9" cy="53.37" r="5.79"/>
      <path class="cls-1" d="M59.9,59.51c-3.44,0-6.23-2.79-6.23-6.23,0-3.44,2.79-6.23,6.23-6.23,3.44,0,6.23,2.79,6.23,6.23h0c0,3.44-2.79,6.23-6.23,6.23Zm0-11.57c-2.95,0-5.35,2.39-5.35,5.34,0,2.95,2.39,5.35,5.34,5.35,2.95,0,5.35-2.39,5.35-5.34h0c0-2.96-2.39-5.35-5.34-5.35Z"/>
      <circle class="cls-4" cx="59.9" cy="53.33" r="2.68"/>
      <path class="cls-1" d="M59.9,56.41c-1.73,0-3.13-1.4-3.13-3.13,0-1.73,1.4-3.13,3.13-3.13s3.13,1.4,3.13,3.13h0c0,1.73-1.4,3.13-3.13,3.13Zm0-5.37c-1.24,0-2.24,1-2.24,2.24s1,2.24,2.24,2.24,2.24-1,2.24-2.24h0c0-1.24-1.01-2.24-2.24-2.24Z"/>
      <circle class="cls-9" cx="38.96" cy="53.37" r="5.79"/>
      <path class="cls-1" d="M38.96,59.51c-3.44,0-6.23-2.79-6.23-6.23,0-3.44,2.79-6.23,6.23-6.23,3.44,0,6.23,2.79,6.23,6.23h0c0,3.44-2.79,6.23-6.23,6.23Zm0-11.57c-2.95,0-5.35,2.39-5.35,5.34,0,2.95,2.39,5.35,5.34,5.35,2.95,0,5.35-2.39,5.35-5.34h0c0-2.96-2.39-5.35-5.34-5.35Z"/>
      <circle class="cls-4" cx="38.96" cy="53.33" r="2.68"/>
      <path class="cls-1" d="M38.96,56.41c-1.73,0-3.13-1.4-3.13-3.13,0-.24,.2-.44,.44-.44,.24,0,.44,.2,.44,.44,0,1.24,1,2.24,2.24,2.25,1.24,0,2.24-1,2.25-2.24,0-1.24-1-2.24-2.24-2.25h0c-.25-.03-.42-.25-.4-.49,.02-.21,.19-.38,.4-.4,1.73-.07,3.19,1.27,3.26,3,.07,1.73-1.27,3.19-3,3.26-.08,0-.17,0-.25,0h0Z"/>
      <path class="cls-4" d="M14.77,52.08c0-.07,.04-.14,.06-.21s.03-.08,.04-.11,.08-.19,0-.05,0,0,0-.04l.06-.11c.04-.07,.08-.14,.12-.21s.1-.15,.15-.23c.03-.03,.05-.07,.08-.1-.05,.08-.09,.12,0,0,.12-.13,.24-.26,.37-.38l.2-.18c.13-.1-.14,.11,0,0l.11-.08c.16-.11,.33-.21,.51-.3l.13-.06,.09-.04-.09,.04s.24-.09,.29-.11c.22-.07,.44-.13,.67-.17,.41-.11,.65-.53,.53-.94-.13-.39-.54-.61-.94-.51-1.74,.32-3.41,1.6-3.84,3.37-.11,.41,.13,.83,.53,.94,.41,.11,.83-.13,.94-.53h0Z"/>
      <circle class="cls-4" cx="19.34" cy="49.17" r=".79"/>
      <path class="cls-4" d="M56.82,52.08l.06-.21,.04-.11v-.05c-.06,.13,0,0,0-.04l.06-.11c.04-.07,.08-.14,.12-.21s.1-.15,.15-.23l.08-.1c-.05,.08-.09,.12,0,0,.11-.13,.24-.26,.37-.38l.2-.18c.13-.1-.14,.11,0,0l.11-.08c.16-.11,.33-.21,.51-.3l.13-.06,.09-.04-.09,.04s.24-.09,.29-.11c.22-.07,.44-.13,.67-.17,.4-.11,.64-.53,.53-.94-.13-.39-.54-.61-.94-.51-1.74,.32-3.41,1.6-3.84,3.37-.12,.4,.1,.83,.5,.96,.4,.12,.83-.1,.96-.5,0-.01,0-.03,.01-.04h0Z"/>
      <circle class="cls-4" cx="61.39" cy="49.17" r=".79"/>
      <path class="cls-1" d="M34.27,44.16h-11.91c-.25-.03-.44-.25-.41-.51,.02-.22,.19-.39,.41-.41h11.91c.25,.03,.44,.25,.41,.51-.02,.22-.19,.39-.41,.41Z"/>
      <circle class="cls-1" cx="17.99" cy="53.27" r="1.08"/>
      <circle class="cls-1" cx="38.89" cy="53.27" r="1.08"/>
      <circle class="cls-1" cx="59.88" cy="53.27" r="1.08"/>
      <circle class="cls-1" cx="36.64" cy="43.5" r=".68"/>
      <path class="cls-5" d="M39.47,9.36h-5.05c-.98-.07-1.72-.93-1.65-1.92,.07-.88,.77-1.58,1.65-1.65h5.05c.98,.07,1.72,.93,1.65,1.92-.07,.88-.77,1.58-1.65,1.65Z"/>
      <polygon class="cls-3" points="19.99 5.65 20.21 17.23 35.05 17.23 35.05 5.69 19.99 5.65"/>
      <path class="cls-1" d="M35.24,17.62h-14.84c-.21,0-.39-.17-.39-.39h0V6.12c-.02-.22,.13-.41,.34-.43,.22-.02,.41,.13,.43,.34,0,.03,0,.06,0,.09v10.72h14.05V6.2c-.02-.22,.13-.41,.34-.43,.22-.02,.41,.13,.43,.34,0,.03,0,.06,0,.09v11.03c0,.21-.17,.38-.38,.39Z"/>
      <circle class="cls-7" cx="24.79" cy="10.13" r="1.56"/>
      <circle class="cls-7" cx="26.99" cy="12.51" r=".85"/>
      <rect class="cls-6" x="19.24" y="5.69" width="36.97" height="34.27"/>
      <path class="cls-2" d="M37.23,9.21h-12.18c-.98-.07-1.72-.93-1.65-1.92,.07-.88,.77-1.58,1.65-1.65h12.18c.98-.07,1.84,.66,1.92,1.65,.07,.98-.66,1.84-1.65,1.92-.09,0-.18,0-.27,0h0Z"/>
      <path class="cls-5" d="M49.22,9.32h-5.05c-.98-.07-1.72-.93-1.65-1.92,.07-.88,.77-1.58,1.65-1.65h5.05c.98,.07,1.72,.93,1.65,1.92-.07,.88-.77,1.58-1.65,1.65Z"/>
      <path class="cls-10" d="M49.59,39.54H25.52c-.49,0-.89-.4-.89-.88,0-.49,.4-.89,.88-.89h24.08c.49,0,.89,.4,.89,.88,0,.49-.4,.89-.88,.89h0Z"/>
      <polygon class="cls-3" points="29.74 5.6 29.97 17.18 37.6 14.05 44.8 17.18 44.8 5.65 29.74 5.6"/>
      <path class="cls-1" d="M30.14,17.57c-.08,0-.15-.02-.21-.06-.11-.08-.17-.2-.17-.33V6.07c-.02-.22,.13-.41,.34-.43,.22-.02,.41,.13,.43,.34,0,.03,0,.06,0,.09v10.51l6.76-2.98c.1-.04,.21-.04,.31,0l6.98,2.99V6.15c.02-.22,.22-.37,.43-.34,.18,.02,.32,.16,.34,.34v11.05c0,.22-.18,.39-.39,.39-.05,0-.1-.01-.15-.03l-7.36-3.16-7.16,3.16c-.05,.01-.11,.02-.16,.01Z"/>
      <path class="cls-1" d="M19.24,13.68c-.25,0-.46-.21-.46-.46V5.69c0-.25,.21-.46,.46-.46h13.2c.25,0,.46,.21,.46,.46s-.21,.46-.46,.46h-12.73v7.07c0,.25-.2,.46-.46,.46,0,0-.01,0-.02,0Z"/>
      <circle class="cls-7" cx="34.73" cy="9.09" r="1.56"/>
      <circle class="cls-7" cx="36.93" cy="11.47" r=".85"/>
      <path class="cls-1" d="M56.2,40.42H19.24c-.25,0-.46-.21-.46-.46V19.18c0-.25,.21-.46,.46-.46,.25,0,.46,.2,.46,.46v20.33H55.74V6.15h-18.68c-.25,0-.46-.21-.46-.46s.21-.46,.46-.46h19.14c.25,0,.46,.21,.46,.46V39.97c0,.25-.21,.46-.46,.46Z"/>
      <g>
        <path class="cls-1" d="M49.57,33.15h-.07c-.14-.04-.22-.19-.18-.33l.86-2.99c.04-.14,.18-.22,.33-.18,0,0,0,0,0,0,.14,.04,.22,.19,.18,.33l-.86,2.99c-.03,.11-.14,.19-.25,.18Z"/>
        <path class="cls-1" d="M50.66,35.21h-.07c-.14-.04-.22-.18-.18-.33,0,0,0,0,0,0l1.71-5.97c.04-.14,.18-.22,.32-.19,0,0,0,0,0,0,.14,.04,.22,.18,.18,.33,0,0,0,0,0,0l-1.71,5.96c-.03,.11-.14,.19-.25,.19Z"/>
      </g>
      <path class="cls-1" d="M19.23,17.29c-.25,0-.46-.21-.46-.46v-1.48c0-.25,.2-.46,.46-.46,.25,0,.46,.2,.46,.46h0v1.48c0,.25-.21,.46-.46,.46Z"/>
      <rect class="cls-4" x="22.54" y="27.02" width="14.38" height="8.27"/>
      <path class="cls-1" d="M36.91,35.53h-14.37c-.22,0-.39-.18-.39-.39v-8.26c0-.21,.17-.39,.38-.39,0,0,0,0,.01,0h14.37c.22,0,.39,.18,.39,.39v8.26c0,.22-.18,.39-.39,.39Zm-13.99-.78h13.6v-7.48h-13.6v7.48Z"/>
      <path class="cls-1" d="M33.58,29.68h-8.58c-.13,0-.24-.11-.24-.24s.11-.24,.24-.24h8.58c.13,0,.24,.11,.24,.24s-.11,.24-.24,.24Z"/>
      <path class="cls-1" d="M31.52,31.43h-6.52c-.13,0-.24-.11-.24-.24s.11-.24,.24-.24h6.52c.13,0,.24,.11,.24,.24s-.11,.24-.24,.24h0Z"/>
      <path class="cls-1" d="M28.86,33.17h-3.86c-.13,0-.24-.11-.24-.24s.11-.24,.24-.24h3.86c.13,0,.24,.11,.24,.24s-.11,.24-.24,.24h0Z"/>
      <circle class="cls-8" cx="55.01" cy="12.25" r="11.79"/>
      <circle class="cls-15" cx="50.26" cy="5.44" r="1.56"/>
      <circle class="cls-15" cx="52.46" cy="7.83" r=".85"/>
      <path class="cls-4" d="M54.33,16.92c-.25,0-.49-.09-.68-.26l-3.64-3.26c-.42-.37-.46-1.02-.09-1.44,.37-.42,1.02-.46,1.44-.09h0l2.84,2.55,4.33-5.43c.32-.46,.96-.57,1.42-.25,.46,.32,.57,.96,.25,1.42-.02,.04-.05,.07-.08,.1l-5,6.27c-.17,.22-.43,.36-.71,.38h-.09Z"/>
      <circle class="cls-1" cx="45.66" cy="5.13" r=".51"/>
      <path class="cls-11" d="M57.16,23.92c-.39,0-.71-.3-.76-.68-.05-.42,.25-.79,.67-.84,0,0,0,0,0,0h0c.18,0,4.34-.56,6.97-5.13,.21-.37,.68-.49,1.04-.29,.37,.21,.49,.68,.29,1.04h0c-3.06,5.27-7.92,5.87-8.15,5.89h-.07Z"/>
      <path class="cls-11" d="M65.79,15.67c-.09,0-.17-.01-.25-.04-.4-.14-.6-.57-.47-.97,.21-.73,.34-1.48,.39-2.23,.03-.42,.39-.73,.81-.7,0,0,0,0,0,0,.42,.04,.73,.4,.7,.82-.07,.88-.23,1.76-.47,2.61-.11,.31-.39,.51-.72,.51Z"/>
      <path class="cls-12" d="M53.14,23.76s-.1,0-.14,0c-.87-.16-1.73-.41-2.55-.75-.38-.18-.54-.64-.36-1.02,.18-.38,.64-.54,1.02-.36,.7,.28,1.43,.49,2.17,.63,.42,.08,.69,.48,.61,.9-.07,.35-.39,.61-.75,.61Z"/>
      <path class="cls-1" d="M55.01,24.5c-6.77,0-12.26-5.47-12.26-12.24,0-2.1,.54-4.17,1.57-6.01,.12-.22,.39-.3,.61-.18,0,0,0,0,0,0,.22,.12,.3,.4,.18,.63-3.06,5.45-1.13,12.36,4.33,15.42s12.36,1.13,15.42-4.33c3.06-5.45,1.13-12.36-4.33-15.42-4.41-2.48-9.93-1.73-13.52,1.83-.18,.18-.47,.18-.65,0-.18-.18-.18-.47,0-.65,4.8-4.77,12.56-4.73,17.33,.07,4.77,4.8,4.73,12.56-.07,17.33-2.3,2.28-5.4,3.55-8.63,3.55h.02Z"/>
    </g>
  </g>
</svg>