<?xml version="1.0" encoding="UTF-8"?>
<svg id="Layer_2" data-name="Layer 2" xmlns="http://www.w3.org/2000/svg" viewBox="0 0 73.49 71.49">
  <defs>
    <style>
      .cls-1 {
        fill: #000201;
      }

      .cls-2, .cls-3 {
        fill: #fff;
      }

      .cls-4 {
        fill: #e2ffee;
      }

      .cls-5 {
        fill: #86cba4;
      }

      .cls-6 {
        fill: #2ff382;
      }

      .cls-7 {
        fill: #bee1ce;
      }

      .cls-8 {
        fill: #dbefff;
      }

      .cls-9, .cls-10 {
        fill: #06cb56;
      }

      .cls-11 {
        fill: #61ffa0;
      }

      .cls-12 {
        fill: #5ccce8;
      }

      .cls-3 {
        opacity: .53;
      }

      .cls-3, .cls-10 {
        isolation: isolate;
      }

      .cls-10 {
        opacity: .6;
      }
    </style>
  </defs>
  <g id="Layer_3" data-name="Layer 3">
    <g>
      <polygon class="cls-7" points="46.32 70.98 28.39 70.98 30.17 58.32 44.54 58.32 46.32 70.98"/>
      <path class="cls-5" d="M40.75,63.61h-7.3c-.65,0-1.19-.53-1.19-1.19s.53-1.19,1.19-1.19h7.3c.65,0,1.19,.53,1.19,1.19s-.53,1.19-1.19,1.19Z"/>
      <path class="cls-1" d="M46.32,71.49H28.39c-.28,0-.51-.23-.5-.51,0-.03,0-.05,0-.08l1.78-12.66c.04-.25,.25-.44,.5-.44h14.37c.25,0,.47,.19,.5,.44l1.78,12.66c.02,.14-.02,.29-.12,.4-.09,.12-.23,.19-.39,.2Zm-17.35-1.01h16.76l-1.64-11.65h-13.48l-1.64,11.65Z"/>
      <path class="cls-1" d="M52.09,71.49h-4c-.28,0-.5-.23-.5-.51,0-.28,.23-.5,.5-.5h3.99c.28,0,.5,.23,.5,.5h0c0,.28-.22,.5-.5,.51Z"/>
      <path class="cls-1" d="M26.57,71.49h-3.96c-.28,0-.5-.23-.5-.51,0-.28,.23-.5,.5-.5h3.99c.28-.03,.53,.17,.56,.45,.03,.28-.17,.53-.45,.56-.04,0-.07,0-.11,0h-.03Z"/>
      <rect class="cls-7" x=".55" y="6.73" width="72.43" height="54.32" rx="4.23" ry="4.23"/>
      <rect class="cls-8" x="4.75" y="11.13" width="64.01" height="46.14" rx="1.84" ry="1.84"/>
      <path class="cls-12" d="M61.13,13.28h-5.17c-.62,0-1.12-.5-1.12-1.12s.5-1.12,1.12-1.12h5.17c.62,0,1.12,.5,1.12,1.12s-.5,1.12-1.12,1.12Z"/>
      <polygon class="cls-2" points="27 56.98 24.54 56.98 33.37 10.97 35.82 10.97 27 56.98"/>
      <polygon class="cls-2" points="41.02 56.98 30.72 56.98 39.55 10.97 49.85 10.97 41.02 56.98"/>
      <path class="cls-1" d="M.53,32.2c-.28,0-.5-.23-.5-.51v-3.37c0-.28,.23-.5,.5-.5s.5,.23,.5,.5v3.37c0,.28-.22,.51-.5,.51Z"/>
      <path class="cls-1" d="M68.73,29.59c-.28,0-.51-.23-.51-.51v-2.81c0-.28,.23-.5,.51-.5,.28,0,.5,.23,.5,.5h0v2.81c0,.28-.22,.51-.5,.51Z"/>
      <path class="cls-1" d="M68.73,45.24c-.28,0-.51-.22-.51-.5v-12.89c0-.28,.23-.5,.51-.5,.28,0,.5,.23,.5,.5h0v12.89c0,.28-.23,.5-.5,.5h0Z"/>
      <path class="cls-4" d="M34.82,10.06h-13.17c-.82,0-1.48-.66-1.48-1.48s.66-1.48,1.48-1.48h13.17c.82,0,1.48,.66,1.48,1.48s-.66,1.48-1.48,1.48h0Z"/>
      <path class="cls-4" d="M45.87,10.06h-4.78c-.82,0-1.48-.66-1.48-1.48s.66-1.48,1.48-1.48h4.78c.82,0,1.48,.66,1.48,1.48s-.66,1.48-1.48,1.48Z"/>
      <path class="cls-4" d="M16.16,10.06h-4.78c-.82,0-1.48-.66-1.48-1.48s.66-1.48,1.48-1.48h4.78c.82,0,1.48,.66,1.48,1.48s-.66,1.48-1.48,1.48Z"/>
      <path class="cls-2" d="M30.07,10.27h-3.66c-.93,.06-1.74-.66-1.79-1.59-.06-.93,.66-1.74,1.59-1.79,.07,0,.13,0,.2,0h3.66c.93-.06,1.74,.66,1.79,1.59s-.66,1.74-1.59,1.79c-.07,0-.13,0-.2,0Z"/>
      <path class="cls-1" d="M68.75,61.55H4.74c-2.62,0-4.74-2.12-4.74-4.74v-22.05c0-.28,.23-.5,.5-.5s.5,.23,.5,.5v22.06c0,2.05,1.67,3.72,3.72,3.72H68.74c2.05,0,3.72-1.67,3.72-3.72V10.95c0-2.05-1.67-3.72-3.72-3.72H4.73c-2.05,0-3.72,1.67-3.72,3.72v14c0,.28-.23,.5-.5,.5s-.5-.23-.5-.5H0V10.95c0-2.62,2.12-4.74,4.74-4.74H68.75c2.62,0,4.74,2.12,4.74,4.74V56.82c0,2.61-2.13,4.73-4.74,4.73Z"/>
      <path class="cls-1" d="M68.77,23.45c-.28,0-.5-.23-.5-.5h0V12.68c0-.74-.6-1.33-1.34-1.33H6.61c-.74,0-1.34,.59-1.35,1.33,0,0,0,0,0,0v6.37c0,.28-.23,.5-.5,.5s-.5-.23-.5-.5v-6.37c0-1.31,1.06-2.37,2.37-2.37h60.3c1.31,0,2.37,1.06,2.37,2.37v10.26c0,.28-.22,.5-.5,.5,0,0-.02,0-.02,0Z"/>
      <path class="cls-1" d="M4.75,45.33c-.28,0-.5-.23-.5-.5h0V23.26c0-.28,.23-.5,.5-.5s.5,.23,.5,.5v21.56c0,.28-.23,.5-.5,.5h0Z"/>
      <path class="cls-7" d="M68.93,48.06v7.53c.01,1.04-.82,1.9-1.86,1.91,0,0,0,0-.01,0H6.19c-1.04-.01-1.87-.87-1.86-1.91h0v-7.53H68.93Z"/>
      <path class="cls-5" d="M61.89,50.67h-7.28c-.65,0-1.19-.53-1.19-1.19s.53-1.19,1.19-1.19h7.29c.65,0,1.19,.53,1.19,1.19s-.53,1.19-1.19,1.19h-.01Z"/>
      <path class="cls-5" d="M48.06,50.67H22.98c-.65,0-1.19-.53-1.19-1.19s.53-1.19,1.19-1.19h25.07c.65,0,1.19,.53,1.19,1.19s-.53,1.19-1.19,1.19Z"/>
      <path class="cls-5" d="M15.58,50.74h-7.3c-.65,0-1.19-.53-1.19-1.19s.53-1.19,1.19-1.19h7.3c.65,0,1.19,.53,1.19,1.19s-.53,1.19-1.19,1.19h0Z"/>
      <ellipse class="cls-2" cx="37.4" cy="54.42" rx="2.34" ry="2.2"/>
      <path class="cls-1" d="M37.43,57.33c-1.72,0-3.11-1.39-3.11-3.11,0-1.72,1.39-3.11,3.11-3.11,1.72,0,3.11,1.39,3.11,3.11h0c0,1.71-1.39,3.1-3.11,3.11Zm0-5.2c-1.16,0-2.09,.94-2.09,2.09s.94,2.09,2.09,2.09,2.09-.94,2.09-2.09h0c0-1.16-.94-2.09-2.09-2.09Z"/>
      <path class="cls-12" d="M18.1,47.56h-7.94c-.62,0-1.12-.5-1.12-1.12,0-.62,.5-1.12,1.12-1.12h7.97c.62,0,1.12,.5,1.12,1.12,0,.62-.5,1.12-1.12,1.12h-.03Z"/>
      <path class="cls-3" d="M15.04,47.56h-1.57c-.62,0-1.12-.5-1.12-1.12,0-.62,.5-1.12,1.12-1.12h1.57c.62,0,1.12,.5,1.12,1.12,0,.62-.5,1.12-1.12,1.12Z"/>
      <path class="cls-12" d="M64.04,47.42h-16.43c-.62,.04-1.15-.42-1.2-1.04-.04-.62,.42-1.15,1.04-1.2,.05,0,.11,0,.16,0h16.43c.62-.04,1.15,.42,1.2,1.04,.04,.62-.42,1.15-1.04,1.2-.05,0-.11,0-.16,0Z"/>
      <path class="cls-1" d="M68.24,48.4H5.11c-.28,0-.5-.23-.5-.5,0-.28,.23-.5,.5-.5h63.13c.28,0,.5,.22,.5,.5,0,.28-.22,.5-.5,.5h0Z"/>
      <path class="cls-2" d="M2.66,29.24c-.62,0-1.12-.5-1.12-1.12h0v-11.17c0-.62,.5-1.12,1.12-1.12,.62,0,1.12,.5,1.12,1.12v11.17c0,.62-.5,1.12-1.12,1.12Z"/>
      <path class="cls-1" d="M33.83,68.19h-4.57c-.21,0-.39-.17-.39-.39s.17-.39,.39-.39h4.57c.21,0,.39,.17,.39,.39s-.17,.39-.39,.39Z"/>
      <path class="cls-1" d="M37.29,68.19h-1.6c-.21,0-.39-.17-.39-.39s.17-.39,.39-.39h1.6c.21,0,.39,.17,.39,.39s-.17,.39-.39,.39Z"/>
      <circle class="cls-6" cx="18.39" cy="14.26" r="13.72"/>
      <circle class="cls-11" cx="12.86" cy="6.34" r="1.81"/>
      <circle class="cls-11" cx="15.41" cy="9.1" r=".98"/>
      <path class="cls-2" d="M17.6,19.69c-.29,0-.57-.11-.79-.3l-4.24-3.79c-.49-.44-.54-1.19-.1-1.68,.44-.49,1.19-.54,1.68-.1l3.31,2.96,5.04-6.32c.37-.54,1.11-.67,1.65-.29,.54,.37,.67,1.11,.29,1.65-.03,.04-.06,.08-.09,.12l-5.82,7.3c-.2,.25-.5,.41-.83,.44h-.1Z"/>
      <circle class="cls-1" cx="7.5" cy="5.97" r=".59"/>
      <path class="cls-9" d="M20.89,27.84c-.45,0-.83-.34-.88-.79-.06-.48,.29-.92,.78-.98,0,0,0,0,0,0,.21,0,5.06-.66,8.12-5.98,.25-.43,.79-.57,1.21-.33,.43,.25,.57,.79,.33,1.21h0c-3.56,6.13-9.22,6.83-9.48,6.86h-.08Z"/>
      <path class="cls-9" d="M30.91,18.21c-.1,0-.2-.02-.3-.05-.46-.17-.7-.67-.55-1.14,.24-.85,.39-1.71,.46-2.59,.04-.49,.47-.86,.96-.82s.86,.47,.82,.96h0c-.08,1.03-.26,2.05-.55,3.05-.13,.36-.46,.59-.84,.59Z"/>
      <path class="cls-10" d="M16.21,27.66c-.06,0-.11,0-.17,0-1.02-.19-2.01-.48-2.96-.87-.44-.21-.63-.74-.42-1.19s.74-.63,1.19-.42c.81,.33,1.66,.57,2.52,.73,.49,.04,.85,.48,.81,.97-.04,.49-.48,.85-.97,.81v-.03Z"/>
      <path class="cls-1" d="M18.39,28.52c-7.88,0-14.26-6.37-14.27-14.25,0-2.45,.63-4.86,1.83-6.99,.14-.26,.46-.35,.72-.21,0,0,0,0,0,0,.26,.15,.35,.47,.21,.73-3.56,6.35-1.31,14.38,5.04,17.95s14.38,1.31,17.95-5.04c3.56-6.35,1.31-14.38-5.04-17.95C19.69-.12,13.27,.75,9.09,4.9c-.21,.21-.54,.21-.75,0-.21-.21-.21-.55,0-.76,5.59-5.55,14.62-5.51,20.17,.08,5.55,5.59,5.51,14.62-.08,20.17-2.67,2.65-6.28,4.14-10.05,4.14h.02Z"/>
    </g>
  </g>
</svg>