<?xml version="1.0" encoding="UTF-8"?>
<svg id="Layer_2" data-name="Layer 2" xmlns="http://www.w3.org/2000/svg" viewBox="0 0 63.75 72.31">
  <defs>
    <style>
      .cls-1 {
        fill: #000201;
      }

      .cls-2 {
        fill: #fff;
      }

      .cls-3 {
        fill: #ff3e6c;
      }

      .cls-4, .cls-5 {
        fill: #b60034;
      }

      .cls-6 {
        fill: #3bb6cb;
      }

      .cls-7, .cls-8 {
        fill: #5ccce8;
      }

      .cls-5 {
        opacity: .49;
      }

      .cls-5, .cls-8 {
        isolation: isolate;
      }

      .cls-8 {
        opacity: .58;
      }
    </style>
  </defs>
  <g id="Layer_3" data-name="Layer 3">
    <g>
      <ellipse class="cls-8" cx="36.48" cy="67.14" rx="19.1" ry="1.88"/>
      <ellipse class="cls-6" cx="36.48" cy="67.14" rx="12.79" ry=".73"/>
      <path class="cls-1" d="M36.58,72.31c-13.18,0-27.17-1.7-27.17-4.85s13.99-4.85,27.17-4.85,27.16,1.7,27.16,4.85-13.99,4.85-27.16,4.85Zm0-8.88c-16.36,0-26.35,2.35-26.35,4.03s10.02,4.03,26.35,4.03,26.35-2.35,26.35-4.03-10.02-4.03-26.35-4.03h0Z"/>
      <path class="cls-1" d="M36.48,69.39c-1.99,0-19.51-.06-19.51-2.27s17.49-2.27,19.51-2.27,19.51,.06,19.51,2.27-17.51,2.27-19.51,2.27Zm-18.62-2.27c1.06,.63,7.76,1.49,18.62,1.49s17.56-.84,18.63-1.49c-1.06-.63-7.76-1.48-18.63-1.48s-17.56,.86-18.62,1.51v-.03Z"/>
      <path class="cls-3" d="M15.62,1.38c10.7-3.57,22.8,3.78,26.37,14.47,4.93,14.76-2.86,44.68-4.33,50-.14,.52-.54,.93-1.05,1.1h0c-.51,.17-1.07,.07-1.5-.25C30.71,63.31,6.55,44.09,1.62,29.33-1.95,18.63,3.3,5.47,13.99,1.9"/>
      <path class="cls-5" d="M37.55,65.77c-.14,.52-.53,.93-1.04,1.09L12.77,2.23c.36-.16,.73-.3,1.11-.42l1.62-.54c10.7-3.57,22.8,3.78,26.37,14.47,4.93,14.79-2.86,44.68-4.33,50.03Z"/>
      <circle class="cls-2" cx="21.86" cy="22.78" r="13.72"/>
      <path class="cls-7" d="M9.56,27.86c-.41,0-.77-.25-.91-.63-2.43-7.3,1.51-15.19,8.81-17.62,7.3-2.43,15.19,1.51,17.62,8.81,.17,.5-.09,1.05-.59,1.22s-1.05-.09-1.22-.59c-2.26-6.24-9.15-9.46-15.38-7.21-6,2.17-9.25,8.65-7.41,14.76,.16,.51-.12,1.05-.63,1.21,0,0,0,0,0,0-.09,.03-.18,.05-.28,.05Z"/>
      <path class="cls-4" d="M36.26,66.87c-.63-.1-1.2-.41-1.63-.88-.09-.08-.18-.15-.25-.2-1.62-1.26-5.93-4.68-10.88-9.18-.27-.25-.29-.67-.04-.94,.24-.27,.66-.3,.93-.05,0,0,0,0,.01,.01,4.91,4.47,9.19,7.86,10.8,9.11,.09,.06,.19,.15,.3,.25,.2,.18,.41,.35,.63,.5,.09-.26,.17-.52,.22-.79,.03-.14,.06-.28,.09-.38,.5-1.83,1.8-6.76,3-12.92,.07-.36,.42-.6,.79-.53s.6,.42,.53,.79c-1.21,6.2-2.52,11.17-3.02,13.01,0,.09-.05,.2-.08,.31-.14,.68-.35,1.6-1.08,1.85-.1,.03-.21,.05-.32,.05Z"/>
      <path class="cls-4" d="M21.52,38.34c-.73,0-1.47-.05-2.2-.14-.4-.06-.68-.44-.62-.84,.06-.39,.41-.66,.8-.62,4.89,.67,9.8-1.08,13.15-4.71,.29-.28,.75-.28,1.04,0s.28,.75,0,1.04c-1.87,1.97-4.17,3.47-6.72,4.4-1.76,.58-3.6,.87-5.45,.86Z"/>
      <circle class="cls-1" cx="16.57" cy="50.25" r=".57"/>
      <circle class="cls-1" cx="3.44" cy="33.59" r=".57"/>
      <circle class="cls-1" cx="34.7" cy="27.93" r=".57"/>
      <path class="cls-4" d="M9.2,16.4c-.41-.02-.73-.36-.71-.77,0-.11,.03-.21,.08-.31,1.73-3.29,4.66-5.78,8.18-6.96,.38-.13,.8,.07,.93,.45,0,0,0,0,0,.01,.13,.39-.08,.8-.47,.93,0,0,0,0,0,0-3.17,1.05-5.81,3.29-7.37,6.25-.12,.24-.37,.4-.65,.4Z"/>
      <path class="cls-1" d="M21.85,37.01c-7.86-.01-14.23-6.4-14.21-14.27,0-.99,.11-1.98,.31-2.94,.05-.28,.32-.46,.6-.4,.01,0,.02,0,.03,0,.28,.06,.46,.34,.4,.62,0,0,0,0,0,0-1.5,7.14,3.07,14.15,10.21,15.65,5.36,1.13,10.86-1.17,13.82-5.77,.15-.24,.47-.31,.71-.15s.31,.47,.15,.71h0c-2.62,4.09-7.14,6.56-12,6.56l-.03-.02Z"/>
      <path class="cls-4" d="M40.62,49.01h-.13c-.4-.07-.66-.46-.59-.86,.88-4.77,1.51-9.58,1.89-14.42,0-.41,.34-.73,.75-.72s.73,.34,.72,.75c0,.03,0,.06,0,.08-.38,4.88-1.01,9.75-1.89,14.57-.07,.35-.38,.61-.74,.6Z"/>
      <path class="cls-2" d="M1.5,21.71h-.04c-.52-.02-.92-.46-.91-.98,0-.38,.39-9.44,7.1-15.35,.39-.35,.99-.31,1.34,.08s.31,.99-.08,1.34C2.82,12.19,2.45,20.71,2.45,20.8c-.02,.51-.44,.91-.95,.91Z"/>
      <path class="cls-2" d="M15.12,48.62c-.26,0-.51-.11-.69-.3-2.58-2.69-5.01-5.53-7.28-8.49-.31-.42-.23-1.01,.19-1.32s1.01-.23,1.32,.19c2.22,2.91,4.6,5.69,7.14,8.33,.36,.38,.35,.97-.03,1.33-.18,.17-.41,.26-.65,.26Z"/>
      <path class="cls-1" d="M36.1,67.59c-.47,0-.93-.16-1.3-.45-6.04-4.7-11.79-9.74-17.25-15.1-.21-.19-.22-.51-.02-.72,.19-.21,.51-.22,.72-.02,0,0,.01,.01,.02,.02,5.43,5.33,11.15,10.35,17.15,15.03,.29,.22,.68,.28,1.03,.17,.35-.12,.62-.4,.71-.76,1.58-5.74,9.19-35.15,4.34-49.71C37.87,5.15,25.85-1.48,15.79,1.87c-.26,.08-.54-.06-.63-.32-.08-.26,.06-.54,.32-.63,10.58-3.53,23.2,3.4,27.02,14.82,4.95,14.83-2.73,44.5-4.32,50.29-.19,.68-.7,1.23-1.37,1.45-.23,.07-.46,.1-.7,.09Z"/>
      <path class="cls-1" d="M2.63,32.4c-.2,0-.38-.12-.47-.3-.39-.84-.73-1.7-1.03-2.58C-.63,24.02-.33,18.05,1.99,12.75,4.4,7.2,8.61,3.18,13.84,1.43c.28-.06,.55,.11,.62,.39,.05,.24-.07,.48-.29,.58C4.09,5.76-1.54,18.27,2.11,29.18c.28,.84,.61,1.67,.99,2.48,.12,.26,0,.56-.25,.68,0,0,0,0,0,0-.07,.03-.14,.05-.21,.06Z"/>
      <path class="cls-1" d="M15.02,49.25c-.14,0-.27-.06-.36-.16-4.59-4.83-8.15-9.31-10.56-13.32-.15-.24-.07-.55,.17-.7,0,0,0,0,0,0,.24-.14,.56-.06,.7,.18,2.37,3.95,5.88,8.35,10.43,13.12,.2,.2,.2,.52,0,.72,0,0,0,0,0,0-.1,.11-.24,.17-.38,.17Z"/>
      <path class="cls-1" d="M35.34,25.8h-.09c-.28-.05-.46-.32-.41-.6,1.31-7.18-3.46-14.06-10.64-15.36-5.65-1.03-11.32,1.71-14.02,6.78-.13,.25-.44,.35-.69,.22,0,0,0,0,0,0-.25-.14-.34-.44-.21-.69,3.67-6.95,12.28-9.61,19.23-5.93,3.23,1.71,5.69,4.6,6.85,8.07,.76,2.29,.93,4.74,.49,7.12-.05,.24-.26,.41-.5,.41Z"/>
    </g>
  </g>
</svg>