<?xml version="1.0" encoding="UTF-8"?>
<svg id="Layer_2" data-name="Layer 2" xmlns="http://www.w3.org/2000/svg" viewBox="0 0 72.88 61.89">
  <defs>
    <style>
      .cls-1 {
        fill: #000201;
      }

      .cls-2 {
        fill: #ffe0c4;
      }

      .cls-3 {
        fill: #f81c46;
      }

      .cls-4 {
        fill: #fff;
      }

      .cls-5 {
        fill: #ffc58c;
      }

      .cls-6 {
        fill: #fbb570;
      }

      .cls-7 {
        fill: #ff5f84;
      }

      .cls-8 {
        fill: #9c9cc5;
      }

      .cls-9 {
        fill: #c9c9d7;
      }

      .cls-10, .cls-11, .cls-12 {
        fill: #d07828;
      }

      .cls-13 {
        fill: #6f6372;
      }

      .cls-14 {
        fill: #8080b9;
      }

      .cls-15 {
        fill: #4c404f;
      }

      .cls-11 {
        opacity: .73;
      }

      .cls-11, .cls-12 {
        isolation: isolate;
      }

      .cls-12 {
        opacity: .62;
      }
    </style>
  </defs>
  <g id="Layer_3" data-name="Layer 3">
    <g>
      <rect class="cls-6" x="11.84" y="26.07" width="18.61" height="17.25"/>
      <path class="cls-2" d="M20.9,27.84h-6.14c-.5-.04-.87-.47-.83-.97,.03-.45,.39-.8,.83-.83h6.14c.5,.04,.87,.47,.83,.97-.03,.45-.39,.8-.83,.83Z"/>
      <path class="cls-5" d="M26.94,27.91h-2.54c-.5-.04-.87-.47-.83-.97,.03-.45,.39-.8,.83-.83h2.54c.5,.04,.87,.47,.83,.97-.03,.45-.39,.8-.83,.83Z"/>
      <path class="cls-10" d="M27.12,43.27H15c-.66-.04-1.16-.61-1.12-1.27,.04-.6,.52-1.08,1.12-1.12h12.12c.66-.04,1.23,.46,1.27,1.12,.04,.66-.46,1.23-1.12,1.27-.05,0-.1,0-.15,0Z"/>
      <polygon class="cls-3" points="17.13 26.02 17.24 31.85 24.71 31.85 24.71 26.04 17.13 26.02"/>
      <path class="cls-1" d="M24.8,32.29h-7.46c-.24,0-.44-.2-.44-.44h0v-5.59c0-.24,.2-.44,.44-.44,.24,0,.44,.2,.44,.44v5.15h6.58v-5.11c.03-.24,.25-.42,.49-.4,.21,.02,.37,.19,.4,.4v5.53c.01,.24-.18,.45-.42,.46,0,0-.02,0-.02,0Z"/>
      <path class="cls-1" d="M11.84,30.3c-.24,0-.44-.2-.44-.44h0v-3.79c0-.24,.2-.44,.44-.44h6.65c.24,0,.44,.2,.44,.44,0,.24-.2,.44-.44,.44h-6.2v3.36c0,.24-.2,.43-.44,.43Z"/>
      <path class="cls-12" d="M29.41,38.51c-.66,0-1.2-.53-1.2-1.19v-5.72c.04-.66,.61-1.16,1.27-1.12,.6,.04,1.08,.52,1.12,1.12v5.72c0,.66-.53,1.19-1.19,1.19h0Z"/>
      <path class="cls-12" d="M29.41,36.3c-.66,0-1.2-.53-1.2-1.19v-1.01c-.04-.66,.46-1.23,1.12-1.27,.66-.04,1.23,.46,1.27,1.12,0,.05,0,.1,0,.15v1.01c0,.66-.53,1.19-1.19,1.19h0Z"/>
      <circle class="cls-7" cx="19.55" cy="28.28" r=".78"/>
      <circle class="cls-7" cx="20.65" cy="29.48" r=".43"/>
      <path class="cls-11" d="M23.28,37.67h-5.16c-.13,0-.26-.05-.35-.14l-2.1-2.07h-3.8c-.27,0-.49-.22-.49-.49s.22-.49,.49-.49h4.01c.13,0,.26,.05,.35,.14l2.07,2.07h4.99c.27,0,.49,.22,.49,.49s-.22,.49-.49,.49Z"/>
      <path class="cls-1" d="M30.45,43.77H11.84c-.24,0-.44-.2-.44-.44,0,0,0,0,0,0v-10.46c0-.24,.2-.44,.44-.44,.24,0,.44,.2,.44,.44h0v10.02H30.01V26.51h-9.19c-.24,0-.44-.2-.44-.44,0-.24,.2-.44,.44-.44h9.63c.24,0,.44,.2,.44,.44h0v17.25c0,.24-.19,.44-.44,.45,0,0,0,0,0,0Z"/>
      <rect class="cls-6" x="41.52" y="26.07" width="18.61" height="17.25"/>
      <path class="cls-5" d="M50.58,27.84h-6.14c-.5-.04-.87-.47-.83-.97,.03-.45,.39-.8,.83-.83h6.14c.5,.04,.87,.47,.83,.97-.03,.45-.39,.8-.83,.83Z"/>
      <path class="cls-5" d="M56.62,27.91h-2.54c-.5-.04-.87-.47-.83-.97,.03-.45,.39-.8,.83-.83h2.54c.5-.04,.93,.34,.97,.83s-.34,.93-.83,.97c-.04,0-.09,0-.13,0Z"/>
      <path class="cls-12" d="M59.3,38.51c-.66,0-1.19-.53-1.19-1.19h0v-5.72c.04-.66,.61-1.16,1.27-1.12,.6,.04,1.08,.52,1.12,1.12v5.72c0,.66-.54,1.19-1.2,1.19Z"/>
      <path class="cls-12" d="M59.3,36.3c-.66,0-1.19-.53-1.19-1.19h0v-1.01c-.04-.66,.46-1.23,1.12-1.27s1.23,.46,1.27,1.12c0,.05,0,.1,0,.15v1.01c0,.66-.54,1.19-1.2,1.19Z"/>
      <polygon class="cls-3" points="45.98 26.02 46.1 31.85 53.56 31.85 53.56 26.04 45.98 26.02"/>
      <path class="cls-1" d="M53.65,32.29h-7.47c-.24,0-.44-.2-.44-.44h0v-5.59c.03-.24,.25-.42,.49-.4,.21,.02,.37,.19,.4,.4v5.15h6.58v-5.39c0-.24,.2-.44,.44-.44s.44,.2,.44,.44h0v5.81c.01,.24-.18,.45-.42,.46,0,0-.01,0-.02,0Z"/>
      <path class="cls-10" d="M56.81,43.27h-12.12c-.66,.04-1.23-.46-1.27-1.12s.46-1.23,1.12-1.27c.05,0,.1,0,.15,0h12.12c.66-.04,1.23,.46,1.27,1.12s-.46,1.23-1.12,1.27c-.05,0-.1,0-.15,0Z"/>
      <polyline class="cls-9" points="24.62 10.45 30.04 15.87 30.04 21.8 26.58 21.8 26.58 17.78 23.19 14.39 18.41 14.39 15.02 17.78 15.02 21.91 11.56 21.91 11.56 15.87 16.98 10.45"/>
      <path class="cls-1" d="M15.02,22.43h-3.46c-.24,0-.44-.19-.45-.44,0,0,0,0,0,0v-6.12c0-.12,.05-.23,.13-.31l5.4-5.42c.18-.18,.46-.18,.64,0,.18,.18,.18,.46,0,.64l-5.29,5.27v5.5h3.02c.24,0,.44,.2,.44,.44,0,.24-.2,.44-.44,.44Z"/>
      <path class="cls-1" d="M30.04,22.43c-.24,0-.44-.2-.44-.44h0v-5.94l-5.29-5.27c-.16-.19-.13-.47,.07-.63,.16-.13,.4-.13,.56,0l5.43,5.41c.08,.08,.13,.2,.13,.31v6.12c0,.24-.2,.44-.44,.44,0,0,0,0,0,0Z"/>
      <path class="cls-1" d="M15.02,22.43c-.24,0-.44-.2-.44-.44h0v-4.21c0-.12,.04-.23,.13-.31l3.41-3.39c.17-.17,.45-.17,.63,0,.17,.17,.17,.45,0,.62l-3.26,3.26v4.03c0,.24-.2,.44-.44,.44,0,0-.01,0-.02,0Z"/>
      <path class="cls-1" d="M30.04,22.43h-3.46c-.24,0-.44-.2-.44-.44h0v-4.03l-3.26-3.27c-.17-.17-.17-.45,0-.62,.17-.17,.45-.17,.63,0l3.39,3.39c.08,.08,.13,.2,.13,.31v3.78h3.02c.24,0,.44,.2,.44,.44,0,.24-.2,.44-.44,.44h0Z"/>
      <rect class="cls-9" x="18.67" y=".44" width="4.29" height="13.76"/>
      <rect class="cls-4" x="18.67" y=".44" width="4.29" height="1.4"/>
      <path class="cls-1" d="M22.96,14.64h-4.29c-.24,0-.44-.2-.44-.44V7.19c.03-.24,.25-.42,.49-.4,.21,.02,.37,.19,.4,.4v6.57h3.41V.88h-3.43v3.45c-.03,.24-.25,.42-.49,.4-.21-.02-.37-.19-.4-.4V.44c0-.24,.2-.44,.44-.44h0s4.29,0,4.29,0c.24,0,.44,.2,.44,.44h0V14.2c0,.24-.19,.43-.42,.44Z"/>
      <circle class="cls-1" cx="20.81" cy="5.01" r=".65"/>
      <circle class="cls-1" cx="20.83" cy="10.14" r=".65"/>
      <circle class="cls-1" cx="20.83" cy="7.58" r=".65"/>
      <path class="cls-8" d="M13.22,21.06c-.27,0-.49-.22-.49-.49v-3.78c0-.14,.05-.27,.15-.36l3.81-3.74c.2-.19,.52-.19,.71,0,.19,.2,.19,.52,0,.71h0l-3.65,3.59v3.54c.02,.27-.18,.5-.45,.52-.02,0-.05,0-.07,0Z"/>
      <path class="cls-8" d="M28.24,21.06c-.27,0-.49-.22-.49-.49v-3.57l-3.66-3.59c-.2-.2-.2-.52,0-.72,.2-.2,.52-.2,.72,0l3.81,3.74c.1,.09,.15,.23,.15,.36v3.75c.02,.27-.18,.5-.45,.52-.02,0-.04,0-.07,0Z"/>
      <polyline class="cls-9" points="54.18 10.45 59.6 15.87 59.6 21.8 56.14 21.8 56.14 17.78 52.75 14.39 47.97 14.39 44.58 17.78 44.58 21.91 41.12 21.91 41.12 15.87 46.54 10.45"/>
      <path class="cls-1" d="M44.57,22.43h-3.43c-.24,0-.44-.2-.44-.44h0v-6.12c0-.12,.05-.23,.13-.31l5.4-5.42c.18-.17,.46-.17,.63,0s.17,.46,0,.63l-5.28,5.27v5.5h3c.24,0,.44,.2,.44,.44,0,.24-.2,.44-.44,.44h0Z"/>
      <path class="cls-1" d="M59.6,22.43c-.24,0-.44-.2-.44-.44h0v-5.94l-5.28-5.27c-.16-.19-.13-.47,.07-.63,.16-.13,.4-.13,.56,0l5.42,5.42c.08,.08,.13,.2,.13,.31v6.11c0,.24-.2,.44-.44,.44,0,0,0,0,0,0Z"/>
      <path class="cls-1" d="M44.57,22.43c-.24,0-.44-.2-.44-.44h0v-4.21c0-.12,.05-.23,.13-.31l3.39-3.39c.17-.17,.45-.17,.62,0,.17,.16,.18,.44,.01,.61,0,0,0,0-.01,.01l-3.26,3.26v4.03c0,.24-.2,.44-.44,.44,0,0,0,0,0,0Z"/>
      <path class="cls-1" d="M59.6,22.43h-3.46c-.24,0-.44-.2-.44-.44h0v-4.03l-3.26-3.27c-.17-.17-.17-.45,0-.62,.17-.17,.45-.17,.63,0l3.39,3.39c.08,.08,.13,.2,.13,.31v3.78h3.02c.24,0,.44,.2,.44,.44,0,.24-.2,.44-.44,.44h0Z"/>
      <rect class="cls-9" x="48.23" y=".44" width="4.29" height="13.76"/>
      <rect class="cls-4" x="48.23" y=".44" width="4.29" height="1.4"/>
      <path class="cls-1" d="M52.51,14.64h-4.29c-.24,0-.44-.2-.44-.44h0V7.19c0-.24,.2-.44,.44-.44s.44,.2,.44,.44h0v6.57h3.43V.88h-3.43v3.45c0,.24-.2,.44-.44,.44s-.44-.2-.44-.44V.44c0-.24,.2-.44,.44-.44h0s4.29,0,4.29,0c.24,0,.44,.2,.44,.44h0V14.2c0,.24-.2,.44-.44,.44h0Z"/>
      <circle class="cls-1" cx="50.36" cy="5.01" r=".65"/>
      <circle class="cls-1" cx="50.38" cy="10.14" r=".65"/>
      <circle class="cls-1" cx="50.38" cy="7.58" r=".65"/>
      <path class="cls-8" d="M42.79,21.06c-.27,0-.49-.22-.49-.49v-3.78c0-.14,.05-.27,.15-.36l3.81-3.74c.2-.2,.52-.19,.72,0,.2,.2,.19,.52,0,.72l-3.67,3.59v3.54c.02,.27-.18,.5-.45,.52-.02,0-.03,0-.05,0Z"/>
      <path class="cls-8" d="M57.79,21.06c-.27,0-.49-.22-.49-.49v-3.57l-3.66-3.59c-.2-.2-.2-.52,0-.72,.2-.2,.52-.2,.72,0l3.81,3.74c.1,.09,.15,.23,.15,.36v3.75c.02,.27-.18,.5-.45,.52-.03,0-.05,0-.08,0Z"/>
      <circle class="cls-7" cx="48.31" cy="28.28" r=".78"/>
      <circle class="cls-7" cx="49.41" cy="29.48" r=".43"/>
      <path class="cls-1" d="M41.52,32.26c-.24,0-.44-.2-.44-.44h0v-5.75c0-.24,.2-.44,.44-.44h6.65c.24,0,.44,.2,.44,.44,0,.24-.2,.44-.44,.44h-6.21v5.32c0,.24-.2,.43-.44,.43Z"/>
      <path class="cls-11" d="M52.89,37.67h-5.21c-.13,0-.25-.05-.34-.14l-2.07-2.07h-3.32c-.27,0-.49-.22-.49-.49s.22-.49,.49-.49h3.52c.13,0,.25,.05,.34,.14l2.07,2.07h5c.27,0,.49,.22,.49,.49s-.22,.49-.49,.49Z"/>
      <path class="cls-1" d="M60.13,43.77h-18.61c-.24,0-.44-.2-.44-.44,0,0,0,0,0,0v-8.99c0-.24,.2-.44,.44-.44s.44,.2,.44,.44v8.55h17.72V26.51h-9.19c-.24,0-.44-.2-.44-.44,0-.24,.2-.44,.44-.44h9.64c.24,0,.44,.2,.44,.44h0v17.25c0,.24-.2,.44-.44,.45Z"/>
      <rect class="cls-9" x=".44" y="42.72" width="72" height="18.71" rx="9.35" ry="9.35"/>
      <path class="cls-14" d="M63.03,61.89H9.85c-5.28,0-9.55-4.28-9.55-9.56v-.24c0-5.28,4.28-9.55,9.55-9.56H63.03c5.28,0,9.55,4.28,9.56,9.56v.24c0,5.28-4.28,9.55-9.56,9.56ZM9.85,44.48c-4.2,0-7.6,3.41-7.61,7.61v.24c0,4.2,3.41,7.6,7.61,7.61H63.03c4.2,0,7.6-3.41,7.61-7.61v-.24c0-4.2-3.41-7.6-7.61-7.61H9.85Z"/>
      <path class="cls-1" d="M63.09,61.87H9.79c-5.41,0-9.79-4.39-9.79-9.79s4.39-9.79,9.79-9.79h7.59c.24,0,.44,.2,.44,.44s-.2,.44-.44,.44h-7.59c-4.92,.12-8.82,4.2-8.71,9.12,.11,4.76,3.95,8.6,8.71,8.71H63.09c4.92-.12,8.82-4.2,8.71-9.12-.11-4.76-3.95-8.6-8.71-8.71h-25.15c-.24,0-.44-.2-.44-.44s.2-.44,.44-.44h25.15c5.41,0,9.79,4.39,9.79,9.79s-4.39,9.79-9.79,9.79Z"/>
      <path class="cls-13" d="M10.25,45.97H62.64c3.29,0,5.96,2.67,5.96,5.96h0c0,3.29-2.67,5.96-5.96,5.96H10.25c-3.29,0-5.96-2.67-5.96-5.96h0c0-3.29,2.67-5.96,5.96-5.96Z"/>
      <path class="cls-13" d="M10.39,45.97H62.77c3.29,0,5.96,2.67,5.96,5.96h0c0,3.29-2.67,5.96-5.96,5.96H10.39c-3.29,0-5.96-2.67-5.96-5.96h0c0-3.29,2.67-5.96,5.96-5.96Z"/>
      <path class="cls-15" d="M31.34,58.1h-7.97c-.41,0-.73-.33-.73-.73s.33-.73,.73-.73h7.97c.41,0,.73,.33,.73,.73s-.33,.73-.73,.73Z"/>
      <path class="cls-15" d="M16.16,58.15h0l-6.02-.04c-.41,0-.73-.34-.73-.74,0-.41,.34-.73,.74-.72h0l6.01,.04c.41,0,.73,.33,.73,.73s-.33,.73-.73,.73h0Z"/>
      <path class="cls-15" d="M62.8,58.15h0l-5.99-.04c-.41,0-.73-.33-.73-.73s.33-.73,.73-.73h0l6.02,.04c.41,0,.73,.33,.73,.73s-.33,.73-.73,.73h-.02Z"/>
      <path class="cls-15" d="M55.83,58.1h-10.24c-.41,0-.73-.33-.73-.73s.33-.73,.73-.73h10.24c.41,0,.73,.33,.73,.73s-.33,.73-.73,.73Z"/>
      <path class="cls-15" d="M50.18,47.73h-5.88c-.41,0-.73-.33-.73-.73s.33-.73,.73-.73h5.88c.41,0,.73,.33,.73,.73s-.33,.73-.73,.73Z"/>
      <path class="cls-15" d="M29.3,47.73h-5.88c-.41,0-.73-.33-.73-.73s.33-.73,.73-.73h5.88c.41,0,.73,.33,.73,.73s-.33,.73-.73,.73Z"/>
      <path class="cls-1" d="M62.64,58.48H10.24c-3.54,.1-6.49-2.69-6.59-6.23-.1-3.54,2.69-6.49,6.23-6.59,.12,0,.24,0,.35,0H62.64c3.54,.1,6.33,3.05,6.23,6.59-.09,3.4-2.83,6.14-6.23,6.23ZM10.24,46.55c-3.05-.09-5.6,2.31-5.69,5.36-.09,3.05,2.31,5.6,5.36,5.69,.11,0,.22,0,.33,0H62.64c3.05,.09,5.6-2.31,5.69-5.36,.09-3.05-2.31-5.6-5.36-5.69-.11,0-.22,0-.33,0H10.24Z"/>
      <circle class="cls-9" cx="17.33" cy="52.03" r="5.57"/>
      <path class="cls-1" d="M17.33,57.93c-2.46,0-4.68-1.5-5.58-3.79-.09-.22,.02-.47,.24-.55,.22-.09,.47,.02,.55,.24h0c1.04,2.64,4.03,3.94,6.67,2.9,2.64-1.04,3.94-4.03,2.9-6.67-1.04-2.64-4.03-3.94-6.67-2.9-1.96,.77-3.26,2.67-3.26,4.78,.03,.24-.15,.45-.38,.47-.24,.03-.45-.15-.47-.38,0-.03,0-.06,0-.09,0-3.31,2.68-6,5.99-6,3.31,0,6,2.68,6,5.99s-2.68,6-5.99,6c0,0,0,0,0,0Z"/>
      <circle class="cls-4" cx="17.33" cy="51.98" r="2.58"/>
      <path class="cls-1" d="M17.31,54.94c-1.66,0-3.01-1.35-3.01-3.01,0-1.66,1.35-3.01,3.01-3.01,1.66,0,3,1.34,3.01,2.99,.01,1.66-1.33,3.02-2.99,3.03,0,0-.01,0-.02,0Zm0-5.17c-1.19,0-2.15,.96-2.15,2.15,0,1.19,.96,2.15,2.15,2.15s2.15-.96,2.15-2.15-.96-2.15-2.15-2.15h0Z"/>
      <circle class="cls-9" cx="57.61" cy="52.03" r="5.57"/>
      <path class="cls-1" d="M57.61,57.93c-3.31,0-5.99-2.68-5.99-5.99,0-3.31,2.68-5.99,5.99-5.99,3.31,0,5.99,2.68,5.99,5.99,0,3.31-2.68,5.99-5.99,5.99Zm0-11.13c-2.84,0-5.14,2.3-5.13,5.14s2.3,5.14,5.14,5.13c2.84,0,5.13-2.3,5.13-5.14,0-2.84-2.31-5.13-5.14-5.14Z"/>
      <circle class="cls-4" cx="57.61" cy="51.98" r="2.58"/>
      <path class="cls-1" d="M57.61,54.95c-1.66,0-3.01-1.35-3.01-3.01s1.35-3.01,3.01-3.01,3.01,1.35,3.01,3.01-1.35,3.01-3.01,3.01h0Zm0-5.17c-1.19,0-2.15,.96-2.15,2.15s.96,2.15,2.15,2.15,2.15-.96,2.15-2.15-.96-2.15-2.15-2.15Z"/>
      <circle class="cls-9" cx="37.47" cy="52.03" r="5.57"/>
      <path class="cls-1" d="M37.47,57.93c-3.31,0-5.99-2.69-5.99-6,0-3.31,2.69-5.99,6-5.99,3.31,0,5.99,2.69,5.99,5.99,0,3.31-2.69,5.99-6,5.99Zm0-11.13c-2.84,0-5.14,2.3-5.14,5.14s2.3,5.14,5.14,5.14,5.14-2.3,5.14-5.14c0-2.83-2.3-5.13-5.14-5.14Z"/>
      <circle class="cls-4" cx="37.47" cy="51.98" r="2.58"/>
      <path class="cls-1" d="M37.47,54.95c-1.66,0-3-1.35-3.01-3.01,.03-.24,.24-.41,.47-.38,.2,.02,.36,.18,.38,.38,0,1.19,.96,2.15,2.15,2.15,1.19,0,2.15-.96,2.15-2.15s-.96-2.15-2.15-2.15c0,0,0,0,0,0-.24,0-.43-.19-.43-.43,0-.23,.19-.43,.43-.43,1.66-.07,3.06,1.23,3.13,2.89s-1.23,3.06-2.89,3.13c-.08,0-.16,0-.24,0Z"/>
      <path class="cls-4" d="M14.2,50.78c.02-.07,.03-.14,.06-.21,0-.04,.02-.07,.03-.11,0,0,.07-.18,0-.05s0,0,0-.03l.05-.1c.03-.07,.07-.14,.11-.21s.09-.15,.14-.22,.05-.06,.07-.1c-.04,.07-.09,.11,0,0,.11-.13,.23-.25,.35-.37l.2-.17c.12-.1-.14,.1,0,0l.11-.08c.16-.11,.32-.2,.49-.28l.13-.06,.09-.04-.09,.03s.24-.09,.27-.1c.21-.07,.42-.12,.64-.16,.38-.12,.6-.52,.49-.9-.13-.37-.52-.59-.9-.49-1.68,.3-3.28,1.54-3.69,3.24-.12,.39,.1,.8,.48,.92,.39,.12,.8-.1,.92-.48,0-.01,0-.03,.01-.04h.03Z"/>
      <circle class="cls-4" cx="18.6" cy="47.98" r=".76"/>
      <path class="cls-4" d="M54.65,50.78c0-.07,.03-.14,.05-.21s.02-.07,.04-.11,.07-.18,0-.05,0,0,0-.03c.01-.04,.03-.07,.05-.1,.03-.07,.07-.14,.11-.21s.09-.15,.14-.22,.05-.06,.07-.1c-.04,.07-.09,.11,0,0,.11-.13,.23-.25,.35-.37l.2-.17c.12-.1-.14,.1,0,0l.11-.08c.16-.11,.32-.2,.49-.28l.13-.06,.08-.04-.08,.03s.24-.09,.27-.1c.21-.07,.42-.12,.64-.16,.38-.12,.6-.52,.49-.9-.13-.37-.52-.59-.9-.49-1.68,.3-3.28,1.54-3.7,3.24-.11,.39,.12,.8,.51,.91,.39,.11,.8-.12,.91-.51h.02Z"/>
      <circle class="cls-4" cx="59.05" cy="47.98" r=".76"/>
      <path class="cls-1" d="M32.96,43.16h-11.45c-.24,0-.44-.2-.44-.44s.2-.44,.44-.44h11.45c.24,0,.44,.2,.44,.44s-.2,.44-.44,.44Z"/>
      <circle class="cls-1" cx="17.31" cy="51.93" r="1.04"/>
      <circle class="cls-1" cx="37.41" cy="51.93" r="1.04"/>
      <circle class="cls-1" cx="57.59" cy="51.93" r="1.04"/>
      <circle class="cls-1" cx="35.24" cy="42.53" r=".65"/>
    </g>
  </g>
</svg>