<?xml version="1.0" encoding="UTF-8"?>
<svg id="Layer_2" data-name="Layer 2" xmlns="http://www.w3.org/2000/svg" viewBox="0 0 71.11 65.01">
  <defs>
    <style>
      .cls-1 {
        fill: #000201;
      }

      .cls-2 {
        fill: #f81c46;
      }

      .cls-3 {
        fill: #e3e3ee;
      }

      .cls-4, .cls-5 {
        fill: #fff;
      }

      .cls-6 {
        fill: #c9c9d7;
      }

      .cls-7 {
        fill: #dbefff;
      }

      .cls-8, .cls-9 {
        fill: #8080b9;
      }

      .cls-10 {
        fill: #5ccce8;
      }

      .cls-9 {
        opacity: .52;
      }

      .cls-9, .cls-5 {
        isolation: isolate;
      }

      .cls-5 {
        opacity: .53;
      }
    </style>
  </defs>
  <g id="Layer_3" data-name="Layer 3">
    <g>
      <rect class="cls-6" x="31.41" y="51.04" width="8.26" height="8.46"/>
      <path class="cls-8" d="M39.11,56.73h-7.05c-.6,0-1.08-.49-1.08-1.08,0-.6,.49-1.08,1.08-1.08h7.05c.6,0,1.08,.48,1.08,1.08,0,.6-.48,1.08-1.08,1.08h0Z"/>
      <path class="cls-1" d="M39.67,60.54h-8.25c-.27,0-.49-.22-.49-.49h0v-8.46c0-.27,.22-.49,.49-.49h8.25c.27,0,.49,.22,.49,.49v8.46c0,.27-.22,.49-.49,.49Zm-7.76-.97h7.28v-7.49h-7.28v7.49Z"/>
      <rect class="cls-6" x=".5" y=".5" width="70.08" height="54.28" rx="4.09" ry="4.09"/>
      <rect class="cls-7" x="4.57" y="4.76" width="61.94" height="46.36" rx="1.78" ry="1.78"/>
      <path class="cls-6" d="M24.93,59.62h21.22c1.35,0,2.45,1.1,2.45,2.45h0c0,1.35-1.1,2.45-2.45,2.45H24.93c-1.35,0-2.45-1.1-2.45-2.45h0c0-1.35,1.1-2.45,2.45-2.45Z"/>
      <path class="cls-10" d="M54.16,50.41h-7.71c-.6,0-1.08-.49-1.08-1.08,0-.6,.49-1.08,1.08-1.08h7.71c.6,0,1.08,.49,1.08,1.08,0,.6-.49,1.08-1.08,1.08Z"/>
      <path class="cls-5" d="M51.2,50.41h-1.52c-.6,0-1.08-.48-1.08-1.08,0-.6,.48-1.08,1.08-1.08h1.52c.6,0,1.08,.48,1.08,1.08,0,.6-.48,1.08-1.08,1.08h0Z"/>
      <path class="cls-10" d="M59.09,6.84h-5c-.6,0-1.08-.49-1.08-1.08s.49-1.08,1.08-1.08h5c.6,0,1.08,.49,1.08,1.08s-.49,1.08-1.08,1.08Z"/>
      <path class="cls-10" d="M65.41,50.41h-5c-.6,0-1.08-.48-1.08-1.08,0-.6,.48-1.08,1.08-1.08h5c.6,0,1.08,.49,1.08,1.08,0,.6-.49,1.08-1.08,1.08Z"/>
      <path class="cls-10" d="M41.12,50.41H5.2c-.6,0-1.08-.49-1.08-1.08,0-.6,.49-1.08,1.08-1.08H41.12c.6,0,1.08,.49,1.08,1.08,0,.6-.49,1.08-1.08,1.08Z"/>
      <g>
        <polygon class="cls-4" points="26.09 50.85 23.72 50.85 32.26 4.6 34.63 4.6 26.09 50.85"/>
        <polygon class="cls-4" points="39.67 50.85 29.7 50.85 38.24 4.6 48.2 4.6 39.67 50.85"/>
      </g>
      <g>
        <path class="cls-1" d="M9.76,15.8s-.08,0-.11,0c-.22-.06-.34-.29-.28-.51l1.32-4.59c.08-.21,.32-.32,.53-.24,.19,.07,.29,.27,.26,.46l-1.33,4.58c-.05,.17-.21,.29-.39,.3Z"/>
        <path class="cls-1" d="M11.43,18.98s-.08,0-.11,0c-.22-.06-.34-.29-.28-.5,0,0,0,0,0,0l2.63-9.18c.07-.21,.29-.34,.5-.28,.22,.06,.34,.29,.28,.51l-2.63,9.18c-.06,.17-.22,.28-.4,.28Z"/>
      </g>
      <path class="cls-1" d="M.49,25.15C.22,25.15,0,24.93,0,24.66H0v-3.23c0-.27,.22-.49,.49-.49,.27,0,.49,.22,.49,.49H.97v3.26c-.02,.26-.23,.46-.49,.46Z"/>
      <path class="cls-1" d="M66.47,22.62c-.27,0-.49-.22-.49-.49h0v-2.72c0-.27,.22-.49,.49-.49s.49,.22,.49,.49v2.72c0,.27-.22,.49-.49,.49h0Z"/>
      <path class="cls-9" d="M45.18,64.52h-6.2c-.6,0-1.08-.49-1.08-1.08,0-.6,.49-1.08,1.08-1.08h6.2c.6,0,1.08,.49,1.08,1.08,0,.6-.49,1.08-1.08,1.08Z"/>
      <path class="cls-8" d="M19.22,52.62h-6.2c-.6,0-1.08-.48-1.08-1.08,0-.6,.48-1.08,1.08-1.08h6.2c.6,0,1.08,.49,1.08,1.08,0,.6-.49,1.08-1.08,1.08Z"/>
      <path class="cls-8" d="M56.06,52.62h-6.19c-.6,0-1.08-.48-1.08-1.08,0-.6,.48-1.08,1.08-1.08h6.19c.6,0,1.08,.49,1.08,1.08,0,.6-.49,1.08-1.08,1.08Z"/>
      <path class="cls-8" d="M43.12,52.62H25.55c-.6,0-1.08-.49-1.08-1.08,0-.6,.49-1.08,1.08-1.08h17.57c.6,0,1.08,.49,1.08,1.08,0,.6-.49,1.08-1.08,1.08Z"/>
      <path class="cls-1" d="M46.15,65.01H24.93c-1.62,0-2.94-1.32-2.93-2.94,0-1.62,1.31-2.93,2.93-2.93,.27,0,.49,.22,.49,.49h0c0,.27-.22,.49-.49,.49-1.08,0-1.96,.87-1.96,1.95,0,1.08,.87,1.96,1.95,1.96h21.22c1.08,0,1.96-.88,1.95-1.96,0-1.08-.88-1.95-1.95-1.95H27.96c-.27,0-.49-.22-.49-.49,0-.27,.22-.49,.49-.49h18.2c1.62,0,2.94,1.32,2.93,2.94,0,1.62-1.31,2.93-2.93,2.93Z"/>
      <g>
        <path class="cls-3" d="M33.66,3.93h-12.74c-.91,0-1.64-.73-1.64-1.64,0-.91,.73-1.64,1.64-1.64h12.74c.91,0,1.64,.73,1.64,1.64s-.73,1.64-1.64,1.64h0Z"/>
        <path class="cls-3" d="M44.35,3.93h-4.62c-.91,0-1.64-.74-1.64-1.64,0-.91,.73-1.64,1.64-1.64h4.62c.91,0,1.64,.73,1.64,1.64s-.73,1.64-1.64,1.64h0Z"/>
        <path class="cls-3" d="M15.61,3.93h-4.62c-.91,0-1.64-.74-1.64-1.64,0-.91,.73-1.64,1.64-1.64h4.62c.91,0,1.64,.74,1.64,1.64,0,.91-.73,1.64-1.64,1.64Z"/>
        <path class="cls-4" d="M29.07,3.93h-3.54c-.91,0-1.64-.74-1.64-1.64,0-.91,.73-1.64,1.64-1.64h3.54c.91,0,1.64,.73,1.64,1.64s-.73,1.64-1.64,1.64h0Z"/>
      </g>
      <path class="cls-1" d="M66.49,55.26H4.59C2.05,55.26,0,53.2,0,50.67V27.63c0-.27,.22-.49,.49-.49,.27,0,.49,.22,.49,.49H.97v23.04c0,1.99,1.61,3.6,3.6,3.6h61.93c1.99,0,3.6-1.61,3.6-3.6V4.59c0-1.99-1.61-3.6-3.6-3.6H4.59c-1.99,0-3.61,1.61-3.61,3.6H.97v13.54c0,.27-.22,.49-.49,.49-.27,0-.49-.22-.49-.49V4.59C0,2.05,2.05,0,4.59,0h61.93c2.53,0,4.59,2.05,4.59,4.59V50.67c0,2.53-2.05,4.59-4.59,4.59,0,0-.02,0-.03,0Z"/>
      <path class="cls-1" d="M66.51,16.69c-.27,0-.49-.22-.49-.49h0V6.24c0-.72-.58-1.3-1.3-1.3H6.35c-.72,0-1.3,.58-1.3,1.3v6.19c0,.27-.22,.49-.49,.49-.27,0-.49-.22-.49-.49h0V6.24c0-1.27,1.03-2.29,2.29-2.29h58.35c1.27,0,2.29,1.03,2.29,2.29v9.96c0,.27-.22,.49-.49,.49,0,0-.02,0-.02,0Z"/>
      <path class="cls-1" d="M4.57,32.69c-.27,0-.49-.22-.49-.49h0v-15.7c0-.27,.22-.49,.49-.49,.27,0,.49,.22,.49,.49h0v15.7c0,.27-.22,.49-.49,.49Z"/>
      <path class="cls-1" d="M64.73,51.31H6.35c-1.27,0-2.29-1.03-2.29-2.29v-13.11c0-.27,.22-.49,.49-.49,.27,0,.49,.22,.49,.49v13.13c0,.71,.58,1.29,1.3,1.29h58.39c.71,0,1.29-.58,1.3-1.29V26.87c0-.27,.22-.49,.49-.49s.49,.22,.49,.49v22.17c-.01,1.25-1.02,2.26-2.27,2.27Z"/>
      <path class="cls-4" d="M2.63,17.98c-.59,0-1.07-.48-1.08-1.07V6.11c0-.6,.49-1.08,1.08-1.08,.6,0,1.08,.49,1.08,1.08v10.8c0,.6-.49,1.08-1.09,1.07Z"/>
      <rect class="cls-2" x="22.29" y="27.41" width="7.04" height="12.53"/>
      <rect class="cls-2" x="41.16" y="20.19" width="7.04" height="19.76"/>
      <rect class="cls-2" x="31.72" y="23.24" width="7.04" height="16.71"/>
      <path class="cls-1" d="M29.33,40.35h-7.04c-.23,0-.42-.19-.42-.42,0,0,0,0,0,0v-12.51c0-.23,.19-.42,.42-.42h7.04c.24,0,.43,.19,.43,.42v12.53c-.01,.23-.2,.41-.43,.41Zm-6.61-.85h6.18v-11.65h-6.18v11.65Z"/>
      <path class="cls-1" d="M48.2,40.35h-7.04c-.23,0-.42-.19-.42-.42,0,0,0,0,0,0V20.19c0-.24,.19-.43,.42-.43h7.04c.24,0,.43,.19,.43,.43v19.75c-.01,.23-.2,.41-.43,.41Zm-6.61-.85h6.18V20.57h-6.18v18.92Z"/>
      <path class="cls-1" d="M38.77,40.35h-7.04c-.23,0-.42-.19-.42-.42,0,0,0,0,0,0V23.24c0-.23,.18-.43,.42-.43,0,0,0,0,0,0h7.04c.24,0,.43,.19,.43,.43v16.7c-.01,.23-.2,.41-.43,.41Zm-6.61-.85h6.18v-15.83h-6.18v15.83Z"/>
      <path class="cls-1" d="M24.23,24.51c-.16,0-.3-.09-.38-.22-.11-.2-.03-.46,.17-.57l10.12-5.68s.1-.05,.15-.05l10.94-1.45c.24-.03,.45,.14,.48,.37,0,0,0,0,0,0,.03,.24-.13,.45-.36,.49,0,0,0,0,0,0l-10.86,1.43-10.04,5.64c-.07,.03-.14,.05-.21,.05Z"/>
    </g>
  </g>
</svg>