<?xml version="1.0" encoding="UTF-8"?>
<svg id="Layer_2" data-name="Layer 2" xmlns="http://www.w3.org/2000/svg" viewBox="0 0 466 415">
  <defs>
    <style>
      .cls-1 {
        fill: #f59b79;
      }

      .cls-2, .cls-3 {
        fill: #f57a59;
      }

      .cls-4 {
        fill: #f8c5a6;
      }

      .cls-5 {
        fill: #f3a0ca;
      }

      .cls-6 {
        fill: #f06733;
      }

      .cls-7 {
        fill: #ee4517;
      }

      .cls-8 {
        fill: #ebe0fd;
      }

      .cls-9 {
        fill: #fff;
      }

      .cls-10 {
        fill: #ffe6d7;
      }

      .cls-11 {
        fill: #ffe5d5;
      }

      .cls-12 {
        fill: #ffc4ad;
      }

      .cls-13 {
        fill: #ff9a80;
      }

      .cls-14 {
        fill: #fbb63a;
      }

      .cls-15 {
        fill: #ff3838;
      }

      .cls-16 {
        fill: #ff61bf;
      }

      .cls-17 {
        fill: #b994fc;
      }

      .cls-18, .cls-19 {
        fill: #c3268a;
      }

      .cls-20 {
        fill: #bbf0f9;
      }

      .cls-21 {
        fill: #d08600;
      }

      .cls-22 {
        fill: #dbc7ff;
      }

      .cls-23 {
        fill: #202020;
      }

      .cls-24 {
        fill: #9b63ff;
      }

      .cls-25 {
        fill: #3acddd;
      }

      .cls-19, .cls-3 {
        isolation: isolate;
      }

      .cls-19, .cls-26 {
        opacity: .5;
      }

      .cls-3, .cls-27 {
        opacity: .4;
      }
    </style>
  </defs>
  <g id="Layer_1-2" data-name="Layer 1">
    <g>
      <rect class="cls-9" x="27.3" y="40" width="271.9" height="188.82"/>
      <g id="Layer_2-2" data-name="Layer 2">
        <g id="Layer_1-2" data-name="Layer 1-2">
          <path class="cls-23" d="M53.58,192.7c-.21,0-.43-.06-.62-.19-.51-.34-.65-1.03-.31-1.55l25.22-37.84c.19-.28,.5-.47,.84-.49,.34-.03,.67,.11,.91,.36l16.62,18.01,26.12-28.55c.28-.3,.69-.43,1.09-.33l55.93,13.6,42.25-45.25c.2-.22,.49-.35,.79-.35,.25-.04,.59,.1,.8,.31,5.17,5,11.13,10.35,13.03,11.47,3.04-3.72,21.38-26.48,31.32-38.82,.39-.48,1.09-.55,1.57-.17,.48,.39,.56,1.09,.17,1.57-1.26,1.57-30.9,38.37-31.8,39.39-.2,.23-.63,.42-.93,.43-1.45,.04-6.12-3.81-14.09-11.49l-41.92,44.9c-.27,.3-.69,.42-1.08,.32l-55.92-13.6-26.49,28.95c-.21,.23-.54,.4-.82,.36-.31,0-.61-.13-.82-.36l-16.48-17.86-24.43,36.66c-.22,.32-.57,.5-.93,.5Z"/>
          <circle class="cls-23" cx="266.11" cy="85.04" r="7.38"/>
          <path class="cls-1" d="M23.01,35.08V236.53H304.75V35.08H23.01ZM293.35,224.84H34.35V46.78H293.35V224.84Z"/>
          <rect class="cls-12" x="23.01" y="35.08" width="4.29" height="201.42"/>
          <rect class="cls-8" x="35.34" y="47.91" width="6.19" height="175.67"/>
          <rect class="cls-8" x="38.19" y="47.91" width="254.74" height="6.19"/>
          <path d="M23.01,205.41c-.62,0-1.12-.5-1.12-1.12v-44.86c0-.62,.5-1.12,1.12-1.12s1.12,.5,1.12,1.12v44.86c0,.62-.5,1.12-1.12,1.12Z"/>
          <path d="M304.75,237.65H23.01c-.62,0-1.12-.5-1.12-1.12v-23.31c0-.62,.5-1.12,1.12-1.12s1.12,.5,1.12,1.12v22.19H303.64V36.2H24.13v36.27c0,.62-.5,1.12-1.12,1.12s-1.12-.5-1.12-1.12V35.08c0-.62,.5-1.12,1.12-1.12H304.75c.62,0,1.12,.5,1.12,1.12V236.54c0,.62-.5,1.12-1.12,1.12Z"/>
          <path d="M23.01,146.91c-.62,0-1.12-.5-1.12-1.12v-49.3c0-.62,.5-1.12,1.12-1.12s1.12,.5,1.12,1.12v49.3c0,.62-.5,1.12-1.12,1.12Z"/>
          <path d="M293.38,225.95H34.41c-.62,0-1.12-.5-1.12-1.12V46.78c0-.62,.5-1.12,1.12-1.12H293.38c.62,0,1.12,.5,1.12,1.12V224.84c0,.62-.5,1.12-1.12,1.12Zm-257.85-2.23H292.26V47.9H35.53V223.72Z"/>
          <path d="M53.67,60.66h-19.47c-.41,0-.74-.33-.74-.74s.33-.74,.74-.74h19.47c.41,0,.74,.33,.74,.74s-.33,.74-.74,.74Z"/>
          <path d="M61.24,60.66h-2.35c-.41,0-.74-.33-.74-.74s.33-.74,.74-.74h2.35c.41,0,.74,.33,.74,.74s-.33,.74-.74,.74Z"/>
          <path d="M82.79,41.48H35.01c-.41,0-.74-.33-.74-.74s.33-.74,.74-.74h47.78c.41,0,.74,.33,.74,.74s-.33,.74-.74,.74Z"/>
          <path class="cls-17" d="M154.3,10.14S145.6-1.41,124.59,1.62c-15.27,2.17-23.55,20.03-25.72,30.28-2.17,10.24-7.5,23.37-14.68,44.33-7.17,20.96-1.96,30.13,5.75,39.56s6.37,26.38,6.37,26.38c3.19,28.4,27.27,31.91,27.27,31.91,0,0,33.31,5.21,49.09,3.69,4.6,.13,9.17-.75,13.4-2.56,9.17-4.26,14.56-16.25,15.06-26.38,0-5.86,.72-11.7,2.17-17.39,3.45-9.49,5.36-19.47,5.66-29.56-.21-8.93-4.55-16.97-4.35-23.49s5.95-15.42,4.55-30.42c-1.16-16.45-9.98-31.4-23.82-40.37-12.24-8.04-27.12-3.42-33.31-.86"/>
          <circle class="cls-4" cx="113.12" cy="91.2" r="8.81"/>
          <path class="cls-3" d="M112.08,82.45l2.08,17.5c-.61,.06-1.23,.06-1.85,0l-2.17-17.09c.62-.23,1.27-.37,1.94-.42Z"/>
          <circle class="cls-4" cx="113.12" cy="91.2" r="10.57"/>
          <path class="cls-2" d="M111.87,80.69l2.5,20.84c-.74,.07-1.49,.07-2.23,0l-.8-3.27c-1.09-4.25-1.64-8.62-1.64-13.01v-4.05c.7-.25,1.43-.42,2.17-.51Z"/>
          <path d="M114.49,102.51c-6.25,.72-11.91-3.73-12.68-9.97-.34-3,.52-6.02,2.38-8.4,1.88-2.37,4.62-3.91,7.62-4.26,.44-.05,.84,.27,.89,.71,.05,.44-.27,.84-.71,.89-5.33,.81-8.99,5.8-8.18,11.13,.78,5.09,5.37,8.7,10.5,8.25,.46,0,.83,.39,.82,.85,0,.37-.26,.69-.61,.79h-.03Z"/>
          <path d="M107.94,92.47c-.16,0-.32-.06-.45-.17-.27-.25-.29-.67-.05-.95,1.53-1.69,3.71-2.68,5.99-2.72,.39-.07,.67,.29,.68,.66,0,.37-.29,.67-.66,.68-1.91,.03-3.74,.86-5.02,2.28-.13,.15-.31,.22-.5,.22Z"/>
          <path class="cls-9" d="M104.19,92.42c-.4,0-.73-.31-.74-.71-.16-3.51,1.59-6.83,4.58-8.68,.35-.21,.81-.11,1.02,.24,.22,.35,.11,.81-.24,1.02-2.53,1.56-4.01,4.37-3.88,7.34,.02,.41-.3,.76-.71,.78-.01,0-.02,0-.03,0Z"/>
          <rect class="cls-6" x="34.29" y="224.84" width="228.63" height="3.1"/>
          <polygon class="cls-20" points="461.91 244.33 261.11 244.33 261.11 106.14 282.28 103.17 464.88 103.17 461.91 244.33"/>
          <polygon class="cls-25" points="461.91 244.33 261.11 244.33 261.11 236.92 282.28 236.92 461.91 236.92 461.91 244.33"/>
          <path class="cls-9" d="M286.24,149.79h-.06c-1.64-.03-2.95-1.4-2.91-3.04l.86-40.75c.03-1.62,1.36-2.91,2.98-2.91h154.18c1.64,0,2.98,1.33,2.98,2.98s-1.33,2.98-2.98,2.98h-151.26l-.8,37.84c-.03,1.62-1.36,2.91-2.98,2.91Z"/>
          <polygon class="cls-25" points="281.41 244.33 261.97 244.33 261.97 106.86 284.39 103.17 281.41 244.33"/>
          <path d="M266.77,122.04c.61-1.75,1.3-3.47,2.08-5.15,.7-1.75,1.81-3.3,3.24-4.52h0c-.83,1.64-1.76,3.23-2.77,4.76-.92,1.61-1.73,3.24-2.56,4.91h0Z"/>
          <path d="M265.66,119.06c.27-1.57,.68-3.12,1.22-4.61,.43-1.57,1.31-2.99,2.53-4.08h0c-.59,1.47-1.27,2.9-2.02,4.29-.66,1.43-1.2,2.9-1.64,4.41h-.09Z"/>
          <path d="M273.46,236.74c-.81-1.67-1.52-3.38-2.14-5.12-.73-1.7-1.05-3.54-.92-5.39h0c.58,1.75,1.05,3.53,1.43,5.33,.48,1.76,1.07,3.51,1.67,5.27h0l-.03-.09Z"/>
          <path d="M270.64,235.43c-.95-1.29-1.76-2.68-2.41-4.14-.82-1.42-1.2-3.04-1.1-4.67h0c.6,1.45,1.12,2.93,1.55,4.44,.55,1.49,1.2,2.94,1.94,4.35h0l.03,.03Z"/>
          <path d="M458.75,245.45h-195.05c-2.04,0-3.71-1.66-3.71-3.71V108.26c-.01-1.78,1.32-3.3,3.09-3.52l19.03-2.68h179.61c2.36-.01,4.27,1.91,4.27,4.26l-2.98,134.85c0,2.33-1.91,4.25-4.26,4.28h-.01ZM282.28,104.28l-18.9,2.67c-.67,.08-1.16,.64-1.15,1.3V241.75c0,.81,.66,1.47,1.47,1.47h195.05c1.13-.01,2.04-.94,2.04-2.07l2.98-134.85c0-1.1-.91-2.01-2.04-2.01h-179.45Z"/>
          <path d="M281.41,245.45h-.02c-.62-.01-1.11-.52-1.09-1.14l2.98-141.17c.01-.62,.54-1.15,1.14-1.09,.62,.01,1.11,.52,1.09,1.14l-2.98,141.17c-.01,.61-.51,1.09-1.12,1.09Z"/>
          <path d="M302.37,235.08h-19.47c-.41,0-.74-.33-.74-.74s.33-.74,.74-.74h19.47c.41,0,.74,.33,.74,.74s-.33,.74-.74,.74Z"/>
          <path d="M309.93,235.08h-2.35c-.41,0-.74-.33-.74-.74s.33-.74,.74-.74h2.35c.41,0,.74,.33,.74,.74s-.33,.74-.74,.74Z"/>
          <path d="M311.3,121.15h-26.91c-.41,0-.74-.33-.74-.74s.33-.74,.74-.74h26.91c.41,0,.74,.33,.74,.74s-.33,.74-.74,.74Z"/>
          <path d="M322.61,121.15h-6.1c-.41,0-.74-.33-.74-.74s.33-.74,.74-.74h6.1c.41,0,.74,.33,.74,.74s-.33,.74-.74,.74Z"/>
          <path d="M332.14,114.18h-47.75c-.41,0-.74-.33-.74-.74s.33-.74,.74-.74h47.75c.41,0,.74,.33,.74,.74s-.33,.74-.74,.74Z"/>
          <path d="M292.04,66.49h-9.08c-.41,0-.74-.33-.74-.74s.33-.74,.74-.74h9.08c.41,0,.74,.33,.74,.74s-.33,.74-.74,.74Z"/>
          <path d="M277.75,66.49h-6.1c-.41,0-.74-.33-.74-.74s.33-.74,.74-.74h6.1c.41,0,.74,.33,.74,.74s-.33,.74-.74,.74Z"/>
          <path d="M292.04,59.53h-29.92c-.41,0-.74-.33-.74-.74s.33-.74,.74-.74h29.92c.41,0,.74,.33,.74,.74s-.33,.74-.74,.74Z"/>
          <path class="cls-25" d="M334.43,242.73c-.13,.03-.26,.03-.39,0-.77-.18-1.25-.95-1.07-1.71,0-.03,.02-.07,.03-.1,.27-1.01,7.03-24.92,22.54-32.24,.75-.34,1.63-.02,1.99,.71,.36,.74,.04,1.63-.7,1.99,0,0-.01,0-.02,0-14.29,6.73-20.84,30.1-20.84,30.34-.21,.66-.86,1.09-1.55,1.01Z"/>
          <path class="cls-20" d="M359.47,212.66h0c-16.91,0-30.6,52.04-30.6,68.47v1.67h61.12v-1.52c0-16.58-13.6-68.62-30.51-68.62Z"/>
          <path d="M388.43,282.66h-59.54c-.62,0-1.12-.5-1.12-1.12v-1.52c0-16.3,13.16-69.59,30.89-69.59,7.97,0,15.81,8.81,22.09,24.82,5.43,13.84,8.8,31,8.8,44.77v1.52c0,.62-.5,1.12-1.12,1.12Zm-58.42-2.23h57.31v-.4c0-25.98-13.11-67.35-28.65-67.35s-28.65,51.34-28.65,67.35v.4Z"/>
          <path class="cls-25" d="M366.97,246.57c0,7.44-3.72,13.49-8.34,13.49-.85,0-1.69-.21-2.44-.6,3.39-1.7,5.95-6.82,5.95-12.89s-2.47-11.19-5.95-12.89c.76-.39,1.59-.59,2.44-.6,4.55,0,8.34,6.04,8.34,13.49Z"/>
          <path d="M358.66,261.17c-5.28,0-9.42-6.41-9.42-14.6s4.14-14.6,9.42-14.6,9.42,6.41,9.42,14.6-4.14,14.6-9.42,14.6Zm0-26.97c-3.9,0-7.19,5.66-7.19,12.37s3.29,12.37,7.19,12.37,7.19-5.66,7.19-12.37-3.29-12.37-7.19-12.37Z"/>
          <path d="M325.05,291.74c-.62,0-1.12-.5-1.12-1.12v-9.05c0-.62,.5-1.12,1.12-1.12s1.12,.5,1.12,1.12v9.05c0,.62-.5,1.12-1.12,1.12Z"/>
          <rect class="cls-20" x="300.7" y="281.58" width="107.71" height="9.05"/>
          <rect class="cls-25" x="300.7" y="281.58" width="24.35" height="9.05"/>
          <path d="M408.41,291.74h-107.71c-.62,0-1.12-.5-1.12-1.12v-9.05c0-.62,.5-1.12,1.12-1.12h107.71c.62,0,1.12,.5,1.12,1.12v9.05c0,.62-.5,1.12-1.12,1.12Zm-106.59-2.23h105.47v-6.82h-105.47v6.82Z"/>
          <path d="M325.05,291.74c-.62,0-1.12-.5-1.12-1.12v-9.05c0-.62,.5-1.12,1.12-1.12s1.12,.5,1.12,1.12v9.05c0,.62-.5,1.12-1.12,1.12Z"/>
          <path class="cls-22" d="M207.34,53.21c-.74,0-1.38-.55-1.47-1.29-2.34-17.72-8.4-30.42-18.03-37.75-10.56-8.03-21.85-6.56-21.96-6.55-.82,.12-1.57-.45-1.68-1.26-.11-.81,.45-1.57,1.26-1.68,.51-.07,12.56-1.68,24.13,7.08,10.32,7.82,16.79,21.2,19.23,39.77,.11,.82-.47,1.56-1.28,1.67-.07,0-.13,.01-.2,.01Z"/>
          <path class="cls-22" d="M168.76,178.42c-14.71-.34-29.38-1.66-43.91-3.93,0,0-24.05-3.51-27.24-31.91-.67-9.07-2.82-17.97-6.37-26.35-5.45-10.93-12.95-18.58-5.78-39.56,7.17-20.99,12.5-34.15,14.68-44.36S108.42,3.91,123.72,1.74c2.85-.35,5.73-.43,8.6-.24-1.31,0,0,0-6.91,2.59-14.44,5.42-18.96,18.01-21.23,28.22-2.26,10.21-7.5,23.37-14.68,44.36-7.17,20.99-1.88,30.1,5.75,39.56,7.62,9.47,6.37,26.35,6.37,26.35,3.19,28.4,27.24,31.91,27.24,31.91,13.22,2.03,26.53,3.35,39.89,3.93Z"/>
          <path d="M96.75,129.48c.48,2.45,.76,4.94,.83,7.44,.02,2.37,.16,4.73,.42,7.09,.55,4.61,1.95,9.09,4.14,13.19,2.2,4.09,5.36,7.58,9.2,10.18,1.89,1.29,3.88,2.41,5.95,3.36,1.07,.48,2.14,.89,3.24,1.28l1.67,.51,.83,.24h.68c.26,.09,.49,.23,.68,.42l-.89-.42c5.95,.8,11.67,1.67,17.53,2.32,5.86,.65,11.64,.92,17.45,1.34,5.78,.35,11.58,.27,17.36-.24,2.83-.19,5.63-.72,8.34-1.58,2.61-.93,4.97-2.42,6.94-4.38,4.04-4.1,6.84-9.26,8.07-14.88,1.43-5.51,.74-11.4,1.43-17.39,.18-1.49,.39-2.98,.71-4.47s.83-2.98,1.25-4.35c.86-2.77,1.7-5.57,2.41-8.37,1.53-5.56,2.42-11.27,2.65-17.03-.12-5.75-1.13-11.44-2.98-16.88-.91-2.89-1.36-5.9-1.34-8.93,.38-3.04,1.08-6.03,2.08-8.93,1.92-5.43,2.92-11.15,2.98-16.91-.14-5.75-1.14-11.45-2.98-16.91-3.65-11.06-11.02-20.53-20.84-26.79-4.79-3.07-10.39-4.61-16.08-4.41-5.73,.18-11.38,1.44-16.64,3.72-.57-.16-.9-.75-.75-1.32,.05-.18,.14-.34,.27-.47,5.52-2.4,11.43-3.74,17.45-3.96,6.14-.23,12.2,1.43,17.36,4.76,10.12,6.57,17.71,16.38,21.52,27.83,1.86,5.68,2.87,11.61,2.98,17.59,.06,6-.8,11.98-2.56,17.71-.92,2.67-1.57,5.42-1.94,8.22,0,2.79,.45,5.56,1.31,8.22,1.9,5.68,2.91,11.63,2.98,17.62-.27,5.96-1.18,11.88-2.71,17.65-.71,2.98-1.55,5.69-2.44,8.51-.92,2.7-1.59,5.48-1.99,8.31-.39,2.98-.63,5.72-.83,8.66-.12,3.02-.57,6.01-1.34,8.93-1.41,5.9-4.29,11.34-8.37,15.84-2.15,2.24-4.76,4-7.65,5.15-2.9,.95-5.9,1.6-8.93,1.94-5.94,.57-11.91,.68-17.86,.33-5.95-.15-11.91-.89-17.59-1.61s-11.91-1.55-17.33-2.29l-.89-.45c.11,.17,.28,.29,.48,.36h-.63l-.89-.24-1.79-.54c-1.16-.42-2.32-.86-3.45-1.37-2.29-.97-4.46-2.2-6.46-3.66-4.06-2.9-7.45-6.65-9.91-10.99-2.41-4.35-3.88-9.16-4.29-14.11-.24-2.44-.27-4.97-.33-7.26-.07-2.35-.32-4.69-.74-7-.11-.58,.28-1.14,.86-1.25,0,0,0,0,0,0,.55-.2,1.16,.08,1.37,.63Z"/>
          <path d="M153.58,10.79c-2.22-2.49-5.01-4.41-8.13-5.6-3.12-1.34-6.42-2.21-9.79-2.56-3.4-.31-6.83-.2-10.21,.33-3.31,.24-6.51,1.26-9.35,2.98-2.86,1.75-5.31,4.08-7.2,6.85-2.07,2.76-3.8,5.76-5.15,8.93-1.37,3.14-2.5,6.39-3.36,9.7-.83,3.39-1.91,6.85-2.98,10.18-2.26,6.67-4.14,13.46-6.46,20.06s-4.88,13.22-6.79,19.83-3.42,13.57-1.28,20.03c2.14,6.46,7.35,11.4,10.51,17.86h0c.34,.49,.22,1.15-.27,1.49-.49,.34-1.15,.22-1.49-.27-.06-.09-.11-.19-.15-.3-2.98-5.95-8.45-11.07-10.69-18.25-.99-3.52-1.36-7.19-1.1-10.84,.17-3.6,.8-7.16,1.88-10.6,2.14-6.82,4.47-13.37,6.82-20.01s5.3-13.01,7.23-19.71c1.01-3.33,1.82-6.72,2.44-10.15,.69-3.52,1.75-6.97,3.16-10.27,1.42-3.33,3.22-6.49,5.36-9.41,2.3-2.87,5.04-5.35,8.13-7.35,3.13-1.92,6.67-3.09,10.33-3.42,3.58-.42,7.2-.42,10.78,0,7.4,.46,14.33,3.77,19.35,9.23,.4,.42,.4,1.07,0,1.49-.4,.41-1.06,.42-1.47,.02,0,0-.01,0-.02-.02l-.09-.24Z"/>
          <path d="M110.15,158.14c-.12,0-.23-.06-.3-.16-3.04-4.29-4.87-9.32-5.28-14.57-.09-1.28-.09-2.59-.09-3.85s0-2.55-.09-3.8c-.01-.2,.14-.38,.34-.4,.18-.05,.38,.14,.4,.34,.09,1.28,.09,2.59,.09,3.85s0,2.55,.09,3.8c.4,5.1,2.18,10.01,5.14,14.19,.12,.17,.08,.4-.09,.52-.07,.05-.14,.07-.22,.07Z"/>
          <path d="M112.23,155.64c-.11,0-.21-.05-.28-.13-2.92-3.48-4.53-7.9-4.52-12.45,0-.21,.17-.37,.37-.37h0c.21,0,.37,.17,.37,.37,0,4.37,1.54,8.62,4.35,11.97,.13,.16,.11,.39-.05,.52-.07,.06-.16,.09-.24,.09Z"/>
          <path class="cls-16" d="M220.06,251.78c-2.67-2.88-4.84-6.18-6.43-9.76-3.39-6.85-8.22-17.5-15.63-30.87-7.41-13.37-11.37-21.88-14.35-28.34s-4.26-11.58-8.37-17c-8.13-10.75-20.42-10.06-27.36-9.7s-18.37,8.16-18.37,8.16c-22.15,19.71-72.37,78.47-72.37,78.47l-11.61,28.16h23.49l4.35-13.63s36.32-34.89,36.14-35.37l-2.23-4.97c10.45,18.84,9.85,73.05,9.85,73.05h56.83l9.32-57.96c2.89,10.63,6.88,20.92,11.91,30.72,2.41,4.79,7.89,7.17,12.21,12.27l3.93,2.77,12.56,5.03,14.47,1.88,15.21-1.16,1.31-4.11c0-.48,1.61-4.23,1.61-4.23l1.79-2.98s-2.29-1.31-2.53-1.31"/>
          <path class="cls-18" d="M254.14,280.15c-.39,1.16-1.1,3.51-1.1,3.51l-15.24,1.16-14.53-1.88-12.47-5.12-3.9-2.77c-4.29-5.09-9.79-7.47-12.21-12.27-1.46-2.98-2.77-5.66-3.9-8.28,7.44,8.57,30.45,31.05,63.35,25.63Z"/>
          <path class="cls-19" d="M121.07,284.82h-2.98c.29-20.88-2.38-41.7-7.95-61.83-.31-.91-.52-1.85-.63-2.8h2.98c0,.24,.24,1.01,.54,2.17,5.62,20.33,8.33,41.36,8.04,62.46Z"/>
          <g class="cls-26">
            <path class="cls-18" d="M182.07,231.33l-8.42,57.43h-56.83v-2.62c21.46-6.1,48.41-6.64,53.82-39.06,1.07-6.37,7.98-10.24,11.43-15.75Z"/>
          </g>
          <path class="cls-5" d="M51.41,266.78c-.28,0-.56-.05-.84-.16-1.14-.46-1.69-1.76-1.23-2.91l7.83-19.35c.09-.23,.23-.45,.39-.63l19.62-22.39c-.17-.29-.28-.62-.31-.96-.05-.62,.16-1.24,.58-1.69l9.53-10.33,21.5-23.05c.84-.9,2.25-.95,3.16-.11s.95,2.25,.11,3.16l-29.49,31.71c.15,.27,.25,.57,.28,.88,.06,.61-.14,1.22-.54,1.68l-20.83,23.77-7.69,19c-.35,.87-1.19,1.4-2.07,1.4Z"/>
          <polygon class="cls-18" points="77.76 253.06 106.96 218.55 108.57 221.11 108.57 222.99 103.93 229.51 77.76 253.06"/>
          <path class="cls-9" d="M107.32,190.99c-.37,0-.74-.14-1.03-.41-.6-.57-.62-1.51-.05-2.1l18.1-19.02c.57-.6,1.51-.61,2.1-.05,.6,.57,.62,1.51,.05,2.1l-18.1,19.02c-.29,.31-.69,.46-1.08,.46Z"/>
          <path d="M184.13,221v4.44l-.3,4.52-1.1,8.93-2.59,17.47c-1.85,11.64-3.45,23.31-5.21,34.95-.07,.49-.49,.85-.98,.86h-28.4c-9.47,0-18.93,.3-28.43,.21-.53,0-.95-.43-.95-.95,0-.01,0-.02,0-.03,0-12.32-.51-24.68-1.67-36.94-.6-6.13-1.4-12.24-2.53-18.28-.94-6.04-2.74-11.92-5.36-17.45h0c-.19-.36-.05-.81,.31-1,0,0,0,0,.01,0,.36-.19,.81-.05,1,.31,0,0,0,0,0,.01,2.82,5.63,4.78,11.65,5.81,17.86,1.2,6.1,2.1,12.26,2.68,18.46,1.19,12.35,1.7,24.74,1.67,37.15l-.98-.98c9.5,0,18.96,.27,28.43,.24h14.2c4.73,0,9.47-.18,14.2-.18l-.98,.86c1.67-11.67,3.48-23.31,5.03-34.98l2.56-17.5,1.46-8.72,.39-4.26v-5c.02-.45,.38-.8,.83-.8,.44-.05,.84,.27,.89,.71,0,.03,0,.06,0,.09Z"/>
          <path d="M99.76,195.47c-.27,0-.53-.09-.75-.29-.46-.41-.5-1.12-.08-1.58,8.97-9.96,16.61-18.09,22.7-24.16,5.77-5.88,13.03-10.19,20.96-12.46,1.67-.5,3.42-.81,5.17-.93,1.04-.05,2.15-.17,3.32-.29,6.89-.71,16.33-1.68,23.55,7.94,3.65,4.87,6.58,10.22,8.73,15.91,.22,.58-.07,1.22-.65,1.44-.57,.22-1.22-.07-1.44-.65-2.07-5.49-4.9-10.66-8.42-15.35-6.45-8.61-14.82-7.75-21.53-7.06-1.21,.13-2.36,.24-3.41,.3-1.57,.11-3.15,.39-4.68,.85-7.58,2.17-14.49,6.28-20,11.89-6.07,6.05-13.68,14.14-22.62,24.08-.22,.24-.52,.37-.83,.37Z"/>
          <path d="M84.01,213.33c-.26,0-.52-.09-.73-.27-.47-.41-.51-1.11-.11-1.58,2.59-2.98,5.25-5.97,7.97-8.95,.42-.45,1.12-.49,1.58-.07,.46,.42,.49,1.12,.07,1.58-2.7,2.97-5.35,5.94-7.93,8.91-.22,.25-.53,.38-.84,.38Z"/>
          <path d="M56.56,273.02h-11.02c-.37,0-.72-.19-.93-.5-.21-.31-.25-.7-.1-1.05l11.61-28.13c.04-.1,.1-.2,.17-.29,.09-.11,9.28-11.18,21.36-25.23,.4-.47,1.11-.52,1.57-.12,.47,.4,.52,1.11,.12,1.57-11.35,13.21-20.16,23.79-21.22,25.07l-10.91,26.43h9.35c.62,0,1.12,.5,1.12,1.12s-.5,1.12-1.12,1.12Z"/>
          <path d="M69.07,273.02h-8.54c-.62,0-1.12-.5-1.12-1.12s.5-1.12,1.12-1.12h7.72l4.01-12.85c.06-.18,.16-.34,.3-.48,13.57-12.92,34.04-32.58,35.5-34.39,.12-.24,.33-.43,.6-.53,.58-.22,1.22,.08,1.44,.65,.35,.94,.44,1.16-35.79,35.68l-4.17,13.36c-.15,.47-.58,.78-1.07,.78Z"/>
          <path class="cls-4" d="M111.67,71.43s-1.01,28.55,8.1,45.93c9.11,17.39,19.59,27.12,33.64,27.12s30.31-9.47,34.06-32.75c2.56-15.84,5.95-17.86,4.91-47.81,0,0-32-11.16-37.24-43.64,0,0-13.9,51.03-55.37,51.03"/>
          <path class="cls-11" d="M142.42,141.72c-8.42-3.96-15.42-12.35-21.76-24.47-9.11-17.39-8.13-45.82-8.13-45.82h-11.91c7.58,.04,15.04-1.8,21.73-5.36-1.64,17.09-2.44,55.52,20.06,75.64Z"/>
          <path class="cls-2" d="M181.39,125.49c-.21,0-.42-.04-.62-.14-.75-.34-1.08-1.23-.73-1.97,2.99-6.52,5.12-13.41,6.35-20.47,2.13-12.07,3.13-24.39,2.97-36.64-30.9-14.03-35.82-39.57-36.01-40.66-.15-.81,.39-1.58,1.2-1.73,.8-.15,1.58,.39,1.73,1.2,.05,.25,4.99,25.58,35.16,38.86,.53,.23,.88,.75,.89,1.33,.23,12.75-.78,25.59-3,38.15-1.26,7.31-3.48,14.45-6.57,21.2-.25,.55-.79,.87-1.35,.87Z"/>
          <circle class="cls-10" cx="121.76" cy="81.32" r="3.48"/>
          <circle class="cls-10" cx="126.02" cy="76.97" r="1.4"/>
          <circle class="cls-10" cx="127.24" cy="71.94" r=".89"/>
          <circle class="cls-10" cx="123.4" cy="72.47" r="1.64"/>
          <circle class="cls-10" cx="122.71" cy="90.16" r="1.94"/>
          <circle class="cls-10" cx="126.13" cy="85.33" r=".92"/>
          <path class="cls-24" d="M103.16,71.2c-.75,0-1.22-.03-1.36-.05-1.64-.14-2.85-1.58-2.71-3.22,.14-1.63,1.56-2.85,3.21-2.71,1.25,.1,30.7,1.8,46.26-44.92,.52-1.56,2.2-2.41,3.76-1.88,1.56,.52,2.4,2.21,1.88,3.76-15.41,46.25-44.34,49.02-51.05,49.02Z"/>
          <path class="cls-17" d="M115.92,62.26c12.12-6.14,21.76-16.28,27.27-28.7"/>
          <path d="M115.66,61.73c5.91-3.09,11.29-7.11,15.93-11.91,4.71-4.77,8.54-10.33,11.31-16.43,.11-.21,.35-.3,.57-.21,.21,.09,.31,.34,.22,.55,0,0,0,.01,0,.02-2.75,6.21-6.54,11.9-11.19,16.85-4.65,5.05-10.2,9.19-16.37,12.21-.3,.15-.66,.03-.8-.27s-.03-.66,.27-.8h.09Z"/>
          <path d="M124.68,48.99c2.95-1.81,5.62-4.02,7.95-6.58,2.29-2.61,4.2-5.53,5.69-8.66,.1-.23,.36-.33,.59-.23,.01,0,.02,.01,.04,.02,.23,.12,.32,.39,.21,.63-1.49,3.21-3.39,6.21-5.66,8.93-2.35,2.7-5.07,5.05-8.1,6.97-.3,.2-.71,.12-.91-.18,0,0-.01-.02-.02-.02-.21-.3-.13-.7,.16-.91,0,0,.01,0,.02-.01l.03,.06Z"/>
          <path class="cls-24" d="M192.61,64.14c-.39,0-.78-.08-1.16-.24-34.75-14.66-37.54-43.34-37.54-43.62,0-1.64,1.33-2.98,2.98-2.98s2.89,1.24,2.97,2.81c.09,.85,2.87,25.2,33.91,38.3,1.51,.64,2.23,2.39,1.59,3.9-.48,1.14-1.58,1.82-2.74,1.82Zm-32.75-43.85h0Z"/>
          <path class="cls-9" d="M88.45,100.16c-2.2-4.58-.89-11.73,0-16.55,.27-1.4-1.88-1.99-2.14-.6-1.1,5.63-2.38,12.92,.18,18.28,.63,1.28,2.56,0,1.94-1.13h.03Z"/>
          <path class="cls-9" d="M88.03,105.61c.55,1.17,1.2,2.3,1.94,3.36,.83,1.19,2.77,0,1.94-1.13-.75-1.06-1.4-2.18-1.94-3.36-.63-1.28-2.56-.15-1.94,1.13Z"/>
          <path class="cls-9" d="M101.87,44.64c1.98-4.6,3.38-9.43,4.17-14.38,.27-1.4-1.88-1.99-2.14-.6-.75,4.76-2.08,9.41-3.96,13.84-.6,1.28,1.34,2.44,1.94,1.13Z"/>
          <path class="cls-9" d="M107.53,25.38c.24-1.12,.64-2.21,1.19-3.22,.71-1.25-1.22-2.38-1.91-1.13-.65,1.17-1.14,2.44-1.43,3.75-.3,1.4,1.85,1.99,2.14,.6Z"/>
          <path class="cls-9" d="M134.98,62.08c.71-.39,1.38-.86,1.99-1.4,1.1-.92-.48-2.5-1.58-1.58-.47,.41-.99,.76-1.55,1.04-1.25,.68,0,2.62,1.13,1.94Z"/>
          <path class="cls-9" d="M140.72,57.26c4.39-4.28,7.97-9.33,10.57-14.88,.63-1.31-1.31-2.44-1.94-1.13-2.52,5.34-5.98,10.19-10.21,14.32-1.01,.98,.57,2.59,1.58,1.58v.12Z"/>
          <path class="cls-9" d="M114.82,94.95c-.07,.7-.07,1.41,0,2.11,.18,1.43,2.41,1.43,2.23,0-.07-.7-.07-1.41,0-2.11,0-1.46-2.14-1.43-2.23,0Z"/>
          <path class="cls-9" d="M115.77,102.39c1.26,5.98,3.54,11.69,6.76,16.88,.77,1.22,2.68,0,1.94-1.13-3.12-5.02-5.33-10.55-6.52-16.34-.3-1.4-2.44-.8-2.17,.6Z"/>
          <path class="cls-24" d="M114.58,103.43c1.2,4.58,2.76,9.06,4.67,13.4,1.89,4.34,4.2,8.47,6.91,12.35,2.61,3.91,5.86,7.35,9.62,10.18,3.82,2.67,8.18,4.48,12.77,5.3h0c.61,.12,1,.7,.89,1.31-.13,.6-.71,.99-1.31,.89-4.94-.9-9.62-2.84-13.75-5.69-3.98-2.96-7.53-6.47-10.54-10.42-2.92-3.97-5.4-8.26-7.38-12.77-2.01-4.45-3.61-9.08-4.79-13.81-.17-.79,.32-1.58,1.1-1.79,.79-.19,1.58,.29,1.79,1.07l.03-.03Z"/>
          <path class="cls-24" d="M195.59,78.34c.04,6.54-.4,13.08-1.31,19.56-.86,6.5-2.33,12.9-4.41,19.11-2.14,6.27-5.28,12.14-9.32,17.39-4.16,5.32-9.89,9.18-16.37,11.04-.58,.17-1.2-.17-1.36-.75,0,0,0-.01,0-.02-.17-.6,.17-1.23,.77-1.4h0c6.04-1.71,11.36-5.32,15.18-10.3,1.94-2.47,3.63-5.13,5.03-7.95,1.33-2.9,2.49-5.89,3.45-8.93,1.93-6.08,3.31-12.31,4.14-18.64,.88-6.32,1.29-12.7,1.22-19.08h0c0-.82,.67-1.49,1.49-1.49s1.49,.67,1.49,1.49v-.03Z"/>
          <path d="M168.76,107.57c-.33,0-.63-.22-.72-.55l-5.21-18.78c-.11-.4,.12-.81,.52-.92,.4-.11,.81,.12,.92,.52l5.21,18.78c.11,.4-.12,.81-.52,.92-.07,.02-.13,.03-.2,.03Z"/>
          <path class="cls-4" d="M149.68,138.86c-.21,0-2.11,15.12-3.13,23.34-.61,4.48,2.47,8.63,6.94,9.35h.21c4.56,.36,8.54-3.03,8.91-7.59,.01-.13,.02-.26,.02-.39l1.19-23.34"/>
          <path class="cls-2" d="M149.44,145.14c3.27,1.25,6.7,2.02,10.18,2.29l2.32,17.62,1.79-22.36-14.29,2.44Z"/>
          <path d="M154.26,172.66c-.24,0-.49,0-.73-.03-.03,0-.27,0-.3-.01-5.08-.82-8.54-5.46-7.86-10.56q2.24-19.19,3.49-19.19c.62,0,1.12,.5,1.12,1.12,0,.17-.04,.33-.1,.47-.24,1.05-1.13,7.99-2.29,17.88-.52,3.91,2.12,7.46,6,8.09,2.04,.12,3.89-.48,5.34-1.72,1.46-1.25,2.34-2.99,2.49-4.91l.02-.29,1.04-20.85c.03-.62,.57-1.09,1.17-1.06,.62,.03,1.09,.56,1.06,1.17l-1.06,21.2c-.19,2.51-1.35,4.79-3.26,6.43-1.72,1.48-3.87,2.27-6.12,2.27Z"/>
          <path d="M153.42,145.6c-13.73,0-24.73-8.81-34.64-27.72-9.14-17.45-8.27-45.31-8.23-46.49,0-.12,.03-.23,.06-.34-3.39,.79-7.01,1.22-10.86,1.22-.62,0-1.12-.5-1.12-1.12s.5-1.12,1.12-1.12c40.13,0,54.16-49.7,54.29-50.2,.14-.51,.57-.86,1.14-.82,.52,.03,.96,.42,1.04,.94,5.07,31.42,36.05,42.78,36.36,42.89,.42,.15,.72,.54,.74,.99,.53,9.11,.27,18.33-.75,27.4-.74,5.78-2.99,23.33-8.41,34.36-5.48,11.98-17.56,19.84-30.76,20Zm-41.01-75c.24,.21,.38,.53,.37,.87-.01,.28-.89,28.46,7.97,45.38,9.48,18.09,19.86,26.52,32.65,26.52,12.33-.15,23.62-7.5,28.76-18.73,5.27-10.73,7.49-28,8.21-33.67,.98-8.69,1.24-17.53,.78-26.29-4.54-1.84-29.71-13.16-36.28-40.19-3.84,10.63-16.34,38.93-42.46,46.11Z"/>
          <path d="M240.98,285.88c-2.45,0-4.9-.13-7.35-.39-21.72-2.07-28.5-9.66-33.95-15.76-.94-1.05-1.85-2.07-2.8-3.02-5.24-5.24-11.85-25.11-14.45-33.41-.18-.59,.14-1.21,.73-1.4,.58-.19,1.21,.14,1.4,.73,1.99,6.35,8.87,27.48,13.89,32.5,.98,.98,1.92,2.03,2.89,3.11,5.46,6.11,11.65,13.04,32.51,15.02,6.39,.68,12.83,.44,19.14-.7,.63-3.41,1.9-6.73,3.72-9.69l-35.44-18.37c-.1-.05-.19-.12-.28-.2l-5.66-5.66c-.08-.08-.15-.18-.21-.29l-32.33-64.12c-.28-.55-.06-1.22,.49-1.5,.55-.28,1.22-.06,1.5,.49l32.25,63.96,5.41,5.41,36.37,18.85c.28,.15,.49,.41,.57,.72,.08,.31,.02,.64-.16,.9-2.14,3.17-3.58,6.84-4.17,10.62-.07,.47-.43,.84-.89,.93-4.36,.84-8.78,1.27-13.2,1.27Z"/>
          <polygon class="cls-16" points="165.46 165.5 168.76 173.45 163.88 176.94 151.38 176.37 140.51 169.82 144.38 163.21 154 167.08 165.46 165.5"/>
          <path class="cls-16" d="M143.19,162.02s6.76,8.93,23.82,2.98"/>
          <path class="cls-14" d="M42.93,290.03l-2.62-24.5s26.97,.57,34.21,3.19l-4.35,21.32"/>
          <path class="cls-21" d="M69.11,289.15l-2.1-2.1,1.05,1.05-1.29-.73c.46-1.07,2.46-10.69,3.73-17.18l2.92,.57c-3.42,17.5-3.93,18.02-4.31,18.39Z"/>
          <path d="M70.17,291.15c-.07,0-.15,0-.22-.02-.6-.12-.99-.71-.87-1.32l4.15-20.33c-7.05-1.98-26.5-2.65-31.67-2.8l2.48,23.23c.07,.61-.38,1.16-.99,1.23-.64,.05-1.16-.38-1.23-.99l-2.62-24.5c-.03-.32,.07-.64,.29-.87,.22-.24,.48-.4,.85-.36,1.11,.02,27.24,.6,34.56,3.25,.52,.19,.82,.73,.71,1.27l-4.35,21.32c-.11,.53-.57,.89-1.09,.89Z"/>
          <path d="M65.08,276.61s-.03,0-.04,0l-23.43-1.31c-.41-.02-.72-.37-.7-.78,.02-.41,.34-.71,.78-.7l23.43,1.31c.41,.02,.72,.37,.7,.78-.02,.4-.35,.7-.74,.7Z"/>
          <circle class="cls-4" cx="265.9" cy="276.63" r="13.34"/>
          <path class="cls-2" d="M279.24,277.77c0,7.37-5.97,13.34-13.34,13.34h0c-.51,.03-1.01,.03-1.52,0,7.31-.78,12.6-7.33,11.83-14.64-.66-6.24-5.59-11.16-11.83-11.83,.51-.03,1.01-.03,1.52,0,7.29,0,13.22,5.84,13.34,13.13Z"/>
          <path d="M265.9,292.16c-7.97,0-14.45-6.48-14.45-14.45s6.48-14.45,14.45-14.45,14.45,6.48,14.45,14.45-6.48,14.45-14.45,14.45Zm0-26.67c-6.74,0-12.22,5.48-12.22,12.22s5.48,12.22,12.22,12.22,12.22-5.48,12.22-12.22-5.48-12.22-12.22-12.22Z"/>
          <ellipse class="cls-11" cx="261.1" cy="274.14" rx="4.55" ry="3.9" transform="translate(-91.59 411.75) rotate(-67.71)"/>
          <path d="M44.48,270.25c-.19,0-.35-.15-.37-.34-.03-.37-.33-3.6-.33-3.9,0-.2,.17-.37,.37-.37s.37,.17,.37,.37,.2,2.46,.33,3.84c.02,.2-.13,.39-.34,.4-.01,0-.02,0-.03,0Z"/>
          <path d="M47.72,270.25c-.19,0-.35-.15-.37-.34-.03-.37-.33-3.6-.33-3.9,0-.2,.17-.37,.37-.37s.37,.17,.37,.37,.2,2.46,.33,3.84c.02,.2-.13,.39-.34,.4-.01,0-.02,0-.03,0Z"/>
          <path d="M56.03,270.84s-.03,0-.05,0c-.2-.03-.35-.21-.32-.42,.2-1.59,.53-4.19,.53-4.42,0-.2,.17-.37,.37-.37h0c.2,0,.37,.16,.37,.37,0,.31-.45,3.81-.54,4.51-.02,.19-.18,.32-.37,.32Z"/>
          <path d="M59.66,271.14s-.03,0-.05,0c-.2-.03-.35-.21-.32-.42,.2-1.59,.53-4.19,.53-4.42,0-.2,.17-.37,.37-.37h0c.2,0,.37,.16,.37,.37,0,.31-.45,3.81-.54,4.51-.02,.19-.18,.32-.37,.32Z"/>
          <path d="M63.53,271.38s-.03,0-.05,0c-.2-.03-.35-.21-.32-.42,.2-1.58,.53-4.17,.53-4.39,0-.2,.17-.37,.37-.37h0c.2,0,.37,.17,.37,.37,0,.28-.45,3.78-.54,4.48-.02,.19-.18,.32-.37,.32Z"/>
          <path d="M67.52,271.8s-.03,0-.05,0c-.2-.03-.35-.21-.32-.42,.2-1.58,.53-4.17,.53-4.39,0-.2,.17-.37,.37-.37h0c.2,0,.37,.17,.37,.37,0,.28-.45,3.78-.54,4.48-.02,.19-.18,.32-.37,.32Z"/>
          <path d="M70.17,272.72s-.03,0-.05,0c-.2-.03-.35-.21-.32-.42,.2-1.58,.53-4.17,.53-4.39,0-.2,.17-.37,.37-.37,.21-.03,.37,.16,.37,.37,0,.28-.45,3.78-.54,4.48-.02,.19-.18,.32-.37,.32Z"/>
          <path d="M51.74,270.25c-.19,0-.35-.15-.37-.34-.03-.37-.33-3.6-.33-3.9,0-.2,.17-.37,.37-.37s.37,.17,.37,.37,.2,2.46,.33,3.84c.02,.2-.13,.39-.34,.4-.01,0-.02,0-.03,0Z"/>
          <path d="M134.36,230.86c-6.01,0-11.55-3.4-14.25-8.78-.18-.37-.03-.82,.33-1,.36-.18,.81-.04,1,.33,2.53,5.03,7.84,8.15,13.42,7.96,5.67-.31,11.23-2.05,16.07-5.04,.35-.21,.81-.11,1.02,.24,.22,.35,.11,.81-.24,1.02-5.05,3.12-10.86,4.94-16.78,5.26-.19,0-.38,.01-.57,.01Z"/>
          <path d="M165.91,228.29c-.32,0-.61-.2-.71-.52-.12-.39,.1-.81,.49-.93,5.05-1.58,9.6-4.17,13.54-7.7,3.82-3.49,5.9-8.47,5.71-13.65-.36-4.84-3.37-9.28-6.29-13.58-.52-.77-1.04-1.53-1.54-2.3-2.92-4.47-5.35-9.28-7.22-14.29-.14-.39,.05-.81,.44-.96,.38-.15,.81,.05,.96,.44,1.83,4.91,4.21,9.61,7.07,13.99,.5,.76,1.01,1.51,1.53,2.28,3.02,4.46,6.14,9.06,6.54,14.33,.21,5.64-2.05,11.04-6.19,14.84-4.1,3.68-8.84,6.37-14.09,8.02-.07,.02-.15,.03-.22,.03Z"/>
          <path d="M132.08,82.98c-.71,0-1.37-.2-1.95-.56-.84-.53-1.42-1.36-1.64-2.33-.07-.3-.1-.61-.09-.91,.01-.41,.41-.73,.76-.73,.41,.01,.74,.35,.73,.76,0,.18,.01,.37,.05,.55,.13,.58,.48,1.08,.99,1.4s1.11,.42,1.68,.29c.73-.32,1.5-.88,2.1-1.58,2.42-2.3,5.38-3.72,8.62-4.18,3.27-.4,6.55,.42,9.23,2.33,.34,.24,.41,.7,.17,1.04-.24,.34-.7,.41-1.04,.17-2.37-1.69-5.28-2.43-8.17-2.07-2.91,.41-5.59,1.7-7.74,3.73-.7,.82-1.66,1.51-2.72,1.96-.34,.08-.67,.12-.98,.12Z"/>
          <path d="M133.96,81.73c-.13,0-.25-.03-.37-.1-1.78-1.02-2.4-3.3-1.38-5.08,.05-.08,.1-.16,.15-.24,.23-.34,.69-.43,1.03-.2,.34,.23,.43,.69,.2,1.03-.7,1.22-.33,2.58,.74,3.2,.36,.2,.48,.66,.27,1.02-.14,.24-.39,.37-.65,.37Z"/>
          <path d="M169.69,78.43c-.12,0-.24-.03-.35-.09-.36-.19-.5-.65-.3-1.01,.62-1.15,1.56-2.1,2.7-2.74,1.55-1.07,3.43-1.7,5.39-1.79,1.81,.09,3.49,.52,5.06,1.26,1.4,.68,2.89,1.1,4.42,1.24,1.31,.05,2.57-.59,3.3-1.7,.23-.34,.69-.43,1.03-.21,.34,.23,.43,.69,.21,1.03-1.02,1.53-2.81,2.43-4.64,2.36-1.75-.16-3.41-.63-4.97-1.39-1.39-.66-2.88-1.03-4.42-1.12-1.6,.08-3.22,.62-4.6,1.57-.96,.53-1.69,1.28-2.18,2.18-.13,.25-.39,.39-.65,.39Z"/>
          <path d="M182.79,75.69c-.41,0-.74-.33-.74-.74,0-.41,.33-.75,.74-.75,.91,0,1.83-.23,2.65-.64,.65-.36,1.08-1.08,1.11-1.86,.01-.41,.35-.73,.77-.72,.41,.01,.73,.36,.72,.77-.04,1.3-.77,2.49-1.9,3.13-1.05,.53-2.19,.8-3.34,.81h0Z"/>
          <path class="cls-9" d="M52.28,287.95c.67,.66,1.21,1.44,1.61,2.29,.16,.99,.16,1.99,0,2.98,.01,2.66,2.18,4.81,4.85,4.8,1.67,0,3.21-.88,4.08-2.3,.91-1.56,.91-3.5,0-5.06v-.42c-.03-.33-.14-.65-.33-.92-.42-.57-1.25-.71-1.73-1.22s-.27-2.23-.15-3.42c.19-2.14-1.1-4.14-3.13-4.85-2.11-.53-4.32,.33-5.51,2.14-1.1,1.88-.98,4.22,.3,5.98Z"/>
          <rect class="cls-2" x="29.44" y="308.43" width="368.13" height="105.09"/>
          <rect class="cls-7" x="29.44" y="308.43" width="368.13" height="13.84"/>
          <path d="M397.57,415H29.44c-.82,0-1.49-.67-1.49-1.49v-105.09c0-.82,.67-1.49,1.49-1.49H397.57c.82,0,1.49,.67,1.49,1.49v105.09c0,.82-.67,1.49-1.49,1.49Zm-366.64-2.98H396.08v-102.11H30.93v102.11Z"/>
          <path d="M70.44,303.84h-9.65c-.82,0-1.49-.67-1.49-1.49s.67-1.49,1.49-1.49h9.65c.82,0,1.49,.67,1.49,1.49s-.67,1.49-1.49,1.49Z"/>
          <rect class="cls-2" x="1.49" y="290.45" width="428.71" height="23.88"/>
          <rect class="cls-7" x="1.64" y="308.43" width="428.45" height="5.86"/>
          <path class="cls-13" d="M188.92,299.88H1.64v-9.44H198.39c-.02,5.22-4.25,9.44-9.47,9.44Z"/>
          <path d="M49.95,303.47H1.64c-.62,0-1.12-.5-1.12-1.12s.5-1.12,1.12-1.12H49.95c.62,0,1.12,.5,1.12,1.12s-.5,1.12-1.12,1.12Z"/>
          <path d="M64.09,303.47h-6.31c-.62,0-1.12-.5-1.12-1.12s.5-1.12,1.12-1.12h6.31c.62,0,1.12,.5,1.12,1.12s-.5,1.12-1.12,1.12Z"/>
          <path class="cls-9" d="M162.01,296.64H4.32c-1.64,0-2.98-1.33-2.98-2.98s1.33-2.98,2.98-2.98H162.01c1.64,0,2.98,1.33,2.98,2.98s-1.33,2.98-2.98,2.98Z"/>
          <path d="M430.2,315.81H1.49c-.82,0-1.49-.67-1.49-1.49v-23.88c0-.82,.67-1.49,1.49-1.49H430.2c.82,0,1.49,.67,1.49,1.49v23.88c0,.82-.67,1.49-1.49,1.49ZM2.98,312.83H428.71v-20.9H2.98v20.9Z"/>
          <path d="M49.95,414.63c-.62,0-1.12-.5-1.12-1.12v-99.22c0-.62,.5-1.12,1.12-1.12s1.12,.5,1.12,1.12v99.22c0,.62-.5,1.12-1.12,1.12Z"/>
          <path d="M378.37,414.63c-.62,0-1.12-.5-1.12-1.12v-99.22c0-.62,.5-1.12,1.12-1.12s1.12,.5,1.12,1.12v99.22c0,.62-.5,1.12-1.12,1.12Z"/>
          <path d="M36.41,336.23s-.1,0-.14-.03c-.2-.08-.3-.3-.22-.5,1.37-3.46,3.15-6.74,5.32-9.76,.12-.17,.37-.22,.54-.09,.17,.12,.21,.36,.09,.54-2.12,2.97-3.88,6.2-5.22,9.59-.06,.15-.21,.24-.36,.24Z"/>
          <path d="M35.34,333.29s-.06,0-.08,0c-.21-.05-.34-.25-.29-.46,.71-3.16,1.99-6.13,3.81-8.82,.12-.18,.36-.22,.54-.1,.18,.12,.22,.36,.1,.54-1.76,2.61-3.01,5.49-3.69,8.56-.04,.18-.2,.3-.38,.3Z"/>
          <path d="M300.29,352.34c.61-1.75,1.32-3.47,2.11-5.15,.68-1.75,1.78-3.31,3.22-4.52h0c-.83,1.63-1.75,3.22-2.74,4.76-.92,1.58-1.73,3.24-2.59,4.91h0s0,.03,0,0Z"/>
          <path d="M299.21,349.42c.25-1.59,.65-3.14,1.22-4.64,.44-1.57,1.31-2.99,2.53-4.08h0c-.6,1.46-1.29,2.88-2.05,4.26-.66,1.44-1.22,2.92-1.7,4.44h0s-.03,.06,0,.03Z"/>
          <path d="M41.68,404.79c-.17,0-.33-.11-.37-.28-1-3.59-1.53-7.29-1.59-11.02,0-.21,.17-.39,.38-.39h0c.21,0,.38,.17,.39,.38,.06,3.66,.58,7.3,1.56,10.83,.06,.2-.06,.42-.27,.48-.03,0-.07,.01-.1,.01Z"/>
          <path d="M38.88,403.1c-.15,0-.29-.08-.35-.23-1.33-2.96-2.09-6.1-2.27-9.34-.01-.21,.15-.4,.37-.41,.17-.02,.39,.15,.41,.37,.17,3.14,.91,6.19,2.2,9.06,.09,.19,0,.42-.19,.51-.05,.02-.1,.03-.16,.03Z"/>
          <path d="M69.78,387.73c-.12,0-.24-.06-.32-.16-2.16-3.03-3.94-6.32-5.28-9.79-.08-.2,.02-.42,.22-.5,.2-.08,.42,.02,.5,.22,1.32,3.41,3.07,6.64,5.19,9.62,.12,.17,.08,.42-.09,.54-.07,.05-.15,.07-.23,.07Z"/>
          <path d="M66.74,387.08c-.1,0-.2-.04-.28-.12-2.28-2.33-4.09-5.02-5.38-8-.09-.2,0-.42,.2-.51,.2-.09,.42,0,.51,.2,1.25,2.9,3.01,5.51,5.22,7.77,.15,.15,.15,.4,0,.55-.07,.07-.17,.11-.27,.11Z"/>
          <path d="M313.95,398.39c-1.1-1.46-2.2-2.98-3.19-4.55-1.11-1.53-1.81-3.31-2.05-5.18h0c.95,1.64,1.76,3.24,2.53,4.91s1.79,3.22,2.74,4.82h-.03Z"/>
          <path d="M310.91,397.71c-1.19-1.06-2.28-2.24-3.24-3.51-1.09-1.22-1.8-2.73-2.05-4.35h0c.92,1.34,1.7,2.65,2.47,4.02,.84,1.35,1.77,2.63,2.8,3.84h0s.03,.03,.03,0Z"/>
          <polygon class="cls-1" points="38.34 260.83 36.2 263.03 34.95 258.33 38.34 258.68 38.34 260.83"/>
          <circle class="cls-1" cx="42.27" cy="260.05" r="1.1"/>
          <circle class="cls-1" cx="30.54" cy="260.68" r="1.1"/>
          <circle class="cls-1" cx="34.29" cy="265.35" r="1.1"/>
          <circle class="cls-1" cx="35.34" cy="254.52" r="1.1"/>
          <path class="cls-18" d="M197.37,262.17c-.45,0-.89-.2-1.18-.58-4.87-6.3-11.49-27.73-11.77-28.63-.24-.79,.2-1.62,.99-1.86,.79-.25,1.62,.2,1.86,.99,.07,.22,6.73,21.81,11.27,27.69,.5,.65,.38,1.58-.27,2.09-.27,.21-.59,.31-.91,.31Z"/>
          <path class="cls-15" d="M151.83,115.22c2.73,3.68,7.94,4.45,11.62,1.72,.25-.18,.48-.38,.7-.59,.4,.42,.97,.64,1.55,.6,.7-.03,1.39-.23,1.99-.6,0,0,3.22,3.33,8.1-1.4,0,0-2.65,11.73-11.91,11.64-5.8,.39-10.94-3.68-11.91-9.41-.15-2.23-.15-1.96-.15-1.96Z"/>
          <path class="cls-23" d="M163.06,127.37c-5.81,0-10.84-4.2-11.82-10.06-.07-1.07-.11-1.57-.13-1.8l-.03-.04v-.97l.72-.03c.39-.02,.57,0,.69,.4,2.5,3.27,7.2,3.94,10.51,1.48,.22-.17,.44-.34,.64-.53l.54-.5,.51,.53c.25,.26,.61,.39,.95,.37,.56-.06,1.11-.33,1.51-.75l.57-.59,.53,.62s.97,1.07,2.55,1.13c1.36,.01,2.92-.69,4.47-2.19l1.79-1.74-.55,2.44c-.03,.12-2.87,12.22-12.53,12.22h-.11c-.27,.02-.54,.03-.81,.03Zm-10.33-10.11c.95,5.24,5.7,8.94,11.1,8.6,6.16,.05,9.22-5.54,10.49-8.79-1.21,.74-2.42,1.08-3.61,1.04-1.4-.06-2.44-.68-3.03-1.14-.56,.4-1.22,.66-1.91,.73-.58,.04-1.13-.09-1.6-.37-.09,.08-.19,.15-.29,.22-3.4,2.53-8.02,2.3-11.15-.28Z"/>
          <path class="cls-23" d="M164.51,122.86c-6.64,0-11.9-5.62-12.12-5.86l.55-.5c.05,.06,5.26,5.62,11.59,5.62,.13,0,.27,0,.4,0,3.53-.13,6.76-2.01,9.6-5.59l.58,.46c-2.98,3.76-6.4,5.74-10.16,5.88-.15,0-.29,0-.43,0Z"/>
          <path d="M357.12,274.69h-26.94c-.62,0-1.12-.5-1.12-1.12s.5-1.12,1.12-1.12h26.94c.62,0,1.12,.5,1.12,1.12s-.5,1.12-1.12,1.12Z"/>
          <path d="M368.43,274.69h-6.1c-.62,0-1.12-.5-1.12-1.12s.5-1.12,1.12-1.12h6.1c.62,0,1.12,.5,1.12,1.12s-.5,1.12-1.12,1.12Z"/>
          <g class="cls-27">
            <path class="cls-22" d="M127.21,32.43c2.06-2.06,3.14-4.89,2.98-7.8-.42-3.02-2.68-5.47-5.66-6.13-2.64-.44-5.32,.42-7.2,2.32-1.88,1.86-3.04,4.33-3.27,6.97,0,1.77-.31,3.52-.92,5.18-.87,1.22-1.86,2.34-2.98,3.33-1.07,1.05-1.38,2.65-.77,4.02,.89,1.4,2.98,1.37,4.58,.86,2.85-1.1,5.46-2.72,7.71-4.79,2.09-.94,3.97-2.29,5.54-3.96Z"/>
            <path class="cls-22" d="M122.71,38.24c-2.56,.65-4.26,2.65-3.78,4.47s2.98,2.74,5.48,2.08,4.26-2.65,3.78-4.47c-.99-2.03-3.39-2.94-5.48-2.08Z"/>
          </g>
          <polygon class="cls-16" points="163.79 162.05 167.39 169.08 163.58 172.71 152.87 173.33 142.98 168.3 145.63 161.81 154.18 164.52 163.79 162.05"/>
          <path d="M154,165.11c-6.6,0-9.87-3.66-10.06-3.89-.27-.31-.23-.78,.08-1.05,.31-.27,.78-.24,1.05,.07,.26,.3,6.45,7.11,19.58,.48,.36-.19,.81-.04,1,.33,.18,.37,.04,.82-.33,1-4.5,2.27-8.27,3.05-11.32,3.05Z"/>
          <path class="cls-25" d="M263.76,290.54c0-8.7,7.05-15.75,15.75-15.75s15.75,7.05,15.75,15.75h-31.5Z"/>
          <path class="cls-9" d="M267.36,285.8c-.21,0-.42-.04-.62-.13-.75-.34-1.08-1.22-.74-1.97,1.89-4.15,5.49-7.28,9.86-8.58,.79-.23,1.62,.22,1.85,1s-.22,1.62-1,1.85c-3.55,1.05-6.46,3.59-8,6.96-.25,.55-.79,.87-1.36,.87Z"/>
          <path d="M295.26,291.65h-31.5c-.62,0-1.12-.5-1.12-1.12,0-9.3,7.57-16.86,16.86-16.86s16.86,7.57,16.86,16.86c0,.62-.5,1.12-1.12,1.12Zm-30.34-2.23h29.18c-.57-7.55-6.9-13.52-14.59-13.52s-14.02,5.97-14.59,13.52Z"/>
        </g>
      </g>
    </g>
  </g>
</svg>