<?xml version="1.0" encoding="UTF-8"?>
<svg id="Layer_2" data-name="Layer 2" xmlns="http://www.w3.org/2000/svg" viewBox="0 0 2038.4 1950.29">
  <defs>
    <style>
      .cls-1 {
        fill: #f8a121;
      }

      .cls-2 {
        fill: #f99e19;
      }

      .cls-3 {
        fill: #ecac77;
      }

      .cls-4 {
        fill: #fdc6a2;
      }

      .cls-5 {
        fill: #fdcc91;
      }

      .cls-6, .cls-7, .cls-8, .cls-9 {
        fill: #fff;
      }

      .cls-10 {
        fill: #f5be67;
      }

      .cls-11, .cls-12 {
        fill: #f2a83d;
      }

      .cls-13, .cls-14, .cls-15 {
        fill: #ff9976;
      }

      .cls-16 {
        fill: #ffbe69;
      }

      .cls-17 {
        fill: #8feae9;
      }

      .cls-18 {
        fill: #b1c8e5;
      }

      .cls-19 {
        fill: #c8e8eb;
      }

      .cls-20, .cls-21 {
        fill: #e0860e;
      }

      .cls-22 {
        fill: #c67305;
      }

      .cls-23 {
        fill: #0b1615;
      }

      .cls-24 {
        fill: #1b3331;
      }

      .cls-25, .cls-26 {
        fill: #71a0d3;
      }

      .cls-27 {
        fill: #70bf44;
      }

      .cls-28 {
        fill: #6f6575;
      }

      .cls-29 {
        fill: #539627;
      }

      .cls-30 {
        fill: #52b5b2;
      }

      .cls-31 {
        fill: #302835;
      }

      .cls-32 {
        fill: #625768;
      }

      .cls-33 {
        fill: #504656;
      }

      .cls-21, .cls-12, .cls-26, .cls-7, .cls-8, .cls-14, .cls-15, .cls-9 {
        isolation: isolate;
      }

      .cls-21, .cls-34 {
        opacity: .34;
      }

      .cls-12 {
        opacity: .32;
      }

      .cls-26, .cls-35 {
        opacity: .3;
      }

      .cls-7 {
        opacity: .16;
      }

      .cls-8 {
        opacity: .23;
      }

      .cls-14 {
        opacity: .24;
      }

      .cls-36 {
        opacity: .14;
      }

      .cls-37 {
        opacity: .45;
      }

      .cls-38 {
        opacity: .41;
      }

      .cls-39 {
        opacity: .53;
      }

      .cls-40 {
        opacity: .52;
      }

      .cls-15 {
        opacity: .09;
      }

      .cls-9 {
        opacity: .1;
      }
    </style>
  </defs>
  <g id="Layer_1-2" data-name="Layer 1">
    <g>
      <path class="cls-3" d="M2036.1,1849.46l.5-66.3-71.2,19.4c-126.7-43.6-411.9-82-759.4-100.5-59.6-3.2-121.1-5.7-183.9-7.6C460,1677.26,2.6,1719.86,.5,1789.56s451.9,140,1014,157c62.8,1.9,124.3,3.1,184,3.5,465.3,3.6,821.5-35.3,837.1-95.1l.1-1,.4-1.3c0-.4,.1-.9,.1-1.3,0-.7-.1-1.3-.1-1.9Z"/>
      <path class="cls-5" d="M2036.1,1849.46c.1,.6,.1,1.3,.1,1.9,0,.4-.1,.9-.1,1.3l-.3,1.3-.1,1c-15.6,59.8-371.8,98.7-837.1,95.1-59.7-.5-121.2-1.6-184-3.5C452.4,1929.46-1.5,1859.26,.6,1789.56c.2-5.8,3.5-11.4,9.7-16.8,68.6,63.3,491.5,123.2,1004.3,138.7,62.8,1.9,124.3,3.1,184,3.5,465.3,3.6,821.5-35.3,837.1-95.1h.4v-2.3c0-.4,.1-.9,.1-1.3,0-.6,0-1.3-.1-1.9l.2-31.2,.3-.1-.5,66.4Z"/>
      <path class="cls-28" d="M2036.6,1783.06c0,61.9-359.7,113.4-834.3,124.1-59.7,1.3-121.2,2.1-184,2.1C455.9,1909.26,0,1852.76,0,1783.06s455.9-126.2,1018.3-126.2c62.8,0,124.4,.7,184,2.1,474.6,10.7,834.3,62.2,834.3,124.1Z"/>
      <ellipse class="cls-32" cx="1202.4" cy="1783.06" rx="834.3" ry="124.1"/>
      <path class="cls-33" d="M2038.4,1783.06c0,61.9-359.7,113.4-834.3,124.1-18.9-.4-37.6-.9-56.1-1.5,446.5-13.4,778.2-63.2,778.2-122.7s-331.7-109.3-778.2-122.7c18.5-.5,37.2-1,56.1-1.5,474.6,10.9,834.3,62.4,834.3,124.3Z"/>
      <g class="cls-34">
        <path class="cls-19" d="M696.9,446.16c-73-8.5-144.4-27.5-212-56.3-7-3-15.3-9.5-11.9-16.3,1.5-3,4.9-4.5,8-5.8l46.2-18.7-21.6-18.9c16.2,2.3,28.1-17.9,24.3-33.9s-17.2-27.5-29.9-37.8c-12-9.7-24.1-19.4-36.2-28.9-4.7-3.7-9.6-7.7-11.9-13.2-7-17.1,14.6-34.6,11.3-52.8-2.7-15-20.2-21.5-34.9-25.3l-76.7-19.7c-21.1-5.4-46.8-16.5-46.5-38.2,.2-23.3,29.6-33,52.8-36.1l108.5-14.4c16.7-2.2,33.8-4.4,50.2-.7s32.3,14.6,37.1,30.7c4,13.3,0,27.8,2.8,41.4,4.3,20.8,23.2,34.9,40.6,46.9l75.2,51.9c12.7,8.8,25.4,17.6,39.4,24.1,20.7,9.7,43.5,14.2,66.2,17.7,23.8,3.6,48,6.2,71.8,3.4,12.9-1.5,25.9-4.6,38.7-2.4,10.6,1.8,20.1,7.2,29.6,12.2,130,68.9,283.1,93.1,428,67.8-5.6,8.6-15.8,12.6-25.6,15.8-82.8,26.9-171.5,27.2-258.5,27.2h-129c-16.5,0-33.3,0-49.3,4.1-16.1,4.1-31,12.1-45.5,20.5-31.5,18.3-61.7,38.6-90.5,60.9"/>
      </g>
      <path class="cls-19" d="M847.1,173.16c20.5,20.5,57,21.8,78.9,2.8,9.7-8.5,17.8-20.8,30.5-22.7,10.3-1.5,20.1,4.5,30.3,6.8,15.8,3.6,32-1.9,47.7-6,37.1-9.6,76.6-11.2,113.5-1.1,20.2,5.5,39.7,14.6,60.6,15.8,24.1,1.4,48.2-7.7,72-4.3,18.2,2.6,34.4,12.2,51.2,19.6,26.8,11.8,55.7,18.3,85,19.1,15.3,.4,30.8-.8,45.8,1.8,37.7,6.6,73.5,36.4,109.9,24.6-21.5,8.7-45.3,8.9-68.4,9-344.6,.8-689.2-1-1033.8-5.4"/>
      <path class="cls-19" d="M733.5,291.96c-243.1,7.9-486.4,7.5-729.7-1.4l77.7-9.1c44.3-5.2,89.2-10.6,130.1-28.2,38.8-16.8,75.7-44.8,117.9-42.5,17.1,.9,33.6,6.9,50.6,9s36.3-.7,47.3-13.9c5.6-6.7,8.6-15.4,15.2-21.1,14.2-12.1,37.1-4.3,53.4-13.2,14.2-7.7,23.1-27.5,39.2-26.1,7.3,.6,14,6,21.2,4.9,7-1,11.7-7.4,16.4-12.7,17.6-19.9,43.7-30.1,70.2-27.4"/>
      <path class="cls-27" d="M489.9,838.96c-39.9-14.4-80.1-29-116.6-50.8s-69.4-51.4-88.2-89.5c-36.7-74.1-7.9-182,47.6-243.3,14,49.9,35.1,98.5,67.8,138.6s77.8,71.5,128.7,81.5"/>
      <path class="cls-29" d="M308.8,549.76c-1.8,11.6-2.1,23.4-1.1,35.1,1,10.9,3.3,21.6,6.8,32,3.5,10.2,8.1,20,13.7,29.2,5.6,9.3,12.1,18.1,19.2,26.3,7.2,8.3,14.9,16.1,23.1,23.4,8.5,7.6,17.5,14.8,26.8,21.6s18.6,13.1,28.2,19.2,19.2,11.7,29,17.3c9.5,5.4,19.1,10.6,28.8,15.8,9,4.8,18.1,9.6,27.2,14.3l6.3,3.3c2.1,1.3,4.9,.6,6.2-1.5s.6-4.9-1.5-6.2c0,0-.1,0-.1-.1-8.8-4.7-17.7-9.3-26.5-14-9.4-5-18.8-10-28.1-15.2-9.7-5.4-19.4-11-28.9-16.8s-19-12-28.2-18.4c-4.6-3.2-9.1-6.5-13.6-9.9l-1.6-1.2c.6,.5,.3,.2-.1-.1l-1-.8-3.2-2.5c-2.2-1.8-4.4-3.5-6.5-5.3-8.4-7-16.3-14.5-23.8-22.5-3.6-3.9-7.1-7.9-10.4-12l-1.2-1.5-.6-.8-.3-.3c-.4-.5,.5,.7,.2,.2-.8-1.1-1.6-2.1-2.4-3.2-1.5-2.1-3-4.2-4.5-6.4-2.9-4.3-5.6-8.8-8.1-13.4-1.2-2.2-2.4-4.5-3.5-6.9-.6-1.2-1.1-2.4-1.6-3.6l-.8-1.7c-.1-.2-.5-.9-.2-.4s.1,.2,0,0-.2-.4-.3-.7c-4-9.6-6.8-19.7-8.5-30-.1-.6-.2-1.3-.3-1.9,0-.3-.1-.6-.1-.9-.1-.6,.1,.9,0,.3,0-.2,0-.4-.1-.6-.2-1.3-.3-2.7-.5-4.1-.3-2.7-.4-5.4-.5-8.1-.2-5.7,0-11.3,.4-17,.1-1.4,.3-2.7,.4-4.1,.1-.7,.2-1.4,.3-2.1l.1-.5c.1-.6-.1,.8,0,.2,.1-.4,.1-.8,.2-1.2,.3-2.3-.6-5-3.1-5.5-2.2-.4-5.3,.7-5.7,3.2h0Z"/>
      <ellipse class="cls-28" cx="1015.7" cy="1746.36" rx="339.2" ry="42.1"/>
      <g class="cls-36">
        <path class="cls-18" d="M633.1,1339.26c-40.2-70.2-123.5-101.7-183.3-156.2-50.1-45.9-83-107.6-93.3-174.8-9.7-64.5,2.1-131.2-10.7-195.2-7.5-37.5-23.3-73.8-23.1-112,.2-47.9,25.5-91.8,52.4-131.4,26-38.3,57.2-77.1,101.3-90.8,39-12.1,81.4-2.4,119.9,11.3,79.6,28.4,152.2,73.3,230.4,105.4,69.5,28.5,142.7,46.7,217.4,54.1,43.3,4.2,89.1,5.5,126.1,28.4,74.6,46.2,76.7,152.2,117.6,229.8,13.9,26.4,33.4,51.3,36.7,81,6.6,58.6-50.8,104-105.3,126.3s-117.5,38-151.1,86.6c-21.9,31.7-27.5,73-51.7,103-42.1,52.2-137.8,43.2-169.4-16-16.7-31.2-16-68.3-18-103.6-1.9-33.5-6.6-66.8-14-99.6-5.2-23-11.9-46.2-26.2-64.9s-37.8-31.9-61-28.3c-25.5,4-44.4,27.3-51.3,52.2-6.9,24.8-4,51.2-1.1,76.8"/>
      </g>
      <path class="cls-27" d="M1038.1,954.46c-15.1-42.7-7.7-90,3.5-133.9s26-87.8,25.4-133.1c-.3-25.1-5.4-49.9-5.6-75s5.4-51.7,23-69.6c11.8,32.9,22.4,66.1,31.9,99.7,4.8,17,9.4,34.3,10.6,52,1.7,23.6-2.6,47.2-6.1,70.7-9.5,63.1-12.8,131.6,19.5,186.7"/>
      <g class="cls-37">
        <path class="cls-29" d="M1140.2,952.06l-102.1,2.5-.3-.7,71.1-1.7c-32.3-55-29.1-123.6-19.5-186.7,3.5-23.4,7.8-47,6.1-70.7-1.2-17.7-5.8-34.9-10.6-52-6.1-21.5-12.7-42.9-19.7-64.2,3.4-13.3,9.5-25.8,19.1-35.6,11.8,32.9,22.4,66.1,31.9,99.7,4.8,17,9.4,34.3,10.6,52,1.7,23.6-2.6,47.2-6.1,70.7-9.6,63.1-12.8,131.6,19.5,186.7Z"/>
      </g>
      <path class="cls-29" d="M1113.22,961.83c-5.77-1.12-11.17-5.68-16.04-13.55-25.42-41.1-31.38-159.65-20.12-200.02l2.89,.81c-5.61,20.12-6.98,59.28-3.51,99.79,3.82,44.43,12.3,80.09,23.29,97.85,4.41,7.14,9.14,11.24,14.06,12.19l-.57,2.95Z"/>
      <path class="cls-27" d="M1090.5,951.56c-12.6-43.5-2.6-90.3,11-133.5s30.9-86.2,32.8-131.5c1.1-25-2.6-50.1-1.4-75.2s8.3-51.3,26.8-68.2c9.9,33.5,18.6,67.3,26.2,101.4,3.9,17.3,7.4,34.8,7.7,52.5,.3,23.7-5.2,47-10.1,70.2-13.1,62.5-20.2,130.7,9,187.5"/>
      <g class="cls-37">
        <path class="cls-29" d="M1192.6,954.86l-102.1-3.3c-.1-.3-.1-.5-.2-.8l71.1,2.3c-29.2-56.8-22.1-125-9-187.5,4.8-23.2,10.4-46.5,10.1-70.2-.2-17.7-3.8-35.2-7.7-52.5-4.9-21.8-10.2-43.6-16-65.2,4.2-13.1,10.9-25.2,21-34.4,9.9,33.5,18.6,67.3,26.2,101.4,3.8,17.3,7.4,34.8,7.7,52.5,.3,23.7-5.2,47-10.1,70.2-13.1,62.4-20.2,130.7,9,187.5Z"/>
      </g>
      <path class="cls-29" d="M1165.13,963.21c-5.72-1.45-10.88-6.35-15.31-14.55-23.07-42.6-22.35-161.23-8.83-200.79l2.84,.97c-6.74,19.73-10.32,58.72-9.12,99.34,1.31,44.54,7.78,80.65,17.76,99.06,4.02,7.43,8.54,11.83,13.42,13.07l-.74,2.91Z"/>
      <path class="cls-27" d="M995,957.76c-18.7-41.3-15.3-89-7.9-133.7s18.4-89.7,13.9-134.8c-2.5-24.9-9.7-49.2-12-74.2s1-51.9,16.9-71.3c14.5,31.8,27.9,64,40.3,96.6,6.3,16.6,12.3,33.4,15,50.9,3.7,23.4,1.4,47.3-.1,70.9-4.1,63.7-1.5,132.3,35.4,184.4"/>
      <g class="cls-37">
        <path class="cls-29" d="M1096.5,946.56l-101.5,11.2-.3-.7,70.7-7.8c-36.9-52.1-39.5-120.6-35.4-184.4,1.5-23.7,3.8-47.5,.1-70.9-2.8-17.5-8.8-34.3-15-50.9-7.9-20.9-16.3-41.7-25.1-62.2,2.3-13.6,7.2-26.5,16-37.1,14.5,31.7,27.9,64,40.3,96.6,6.3,16.6,12.3,33.4,15,50.9,3.7,23.4,1.4,47.3-.1,70.9-4.2,63.8-1.6,132.3,35.3,184.4Z"/>
      </g>
      <path class="cls-29" d="M1070.54,958.75c-5.86-.64-11.64-4.75-17.18-12.22-28.8-38.83-44.87-156.41-37.13-197.55l2.95,.55c-3.86,20.52-1.88,59.64,5.04,99.67,7.59,43.92,19.09,78.74,31.56,95.54,5.02,6.77,10.1,10.48,15.09,11.02l-.33,2.98Z"/>
      <path class="cls-10" d="M1154.2,1166.16h-331.6v-243.1h373.6c16.6,0,30,13.5,30,30,0,1.6-.1,3.2-.4,4.8l-28.2,171.4c-3.5,21.3-21.8,36.9-43.4,36.9Z"/>
      <path class="cls-12" d="M1225.8,957.96l-28.2,171.4c-3.5,21.2-21.9,36.8-43.4,36.8h-28.4c21.5,0,39.9-15.6,43.4-36.8l28.2-171.4c2.7-16.3-8.4-31.8-24.7-34.5-1.6-.3-3.2-.4-4.8-.4h28.4c16.6,0,30,13.5,30,30-.1,1.7-.2,3.3-.5,4.9Z"/>
      <rect class="cls-2" x="867.1" y="962.16" width="377.4" height="12.9"/>
      <rect class="cls-2" x="859.7" y="1005.26" width="377.4" height="12.9"/>
      <rect class="cls-2" x="850.8" y="1047.16" width="377.4" height="12.9"/>
      <rect class="cls-2" x="838.7" y="1089.06" width="377.4" height="12.9"/>
      <rect class="cls-2" x="835.8" y="1122.96" width="377.4" height="12.9"/>
      <rect class="cls-24" x="896.9" y="1099.56" width="375.5" height="23.4"/>
      <polygon class="cls-24" points="1250.5 1753.16 1190.6 1110.76 1213.7 1106.76 1273.6 1749.16 1250.5 1753.16"/>
      <polygon class="cls-24" points="871.1 1760.46 931.1 1118.06 908 1114.16 848 1756.56 871.1 1760.46"/>
      <path class="cls-4" d="M1013.8,974.26c-12.4,43.3,24.3,89.9,10.4,132.7-8.3,25.5-32.3,41.9-54.8,56.5-7.2,4.7-17.2,9.3-23.8,3.7-4.8-4.2-4.6-12.1-1.2-17.6s9-9,14.4-12.4c13.8-8.9,27.5-19,35.8-33.2,2.6-4.4,4.7-9.6,3.5-14.5s-6.8-9.1-11.4-7c-6.6,3-5.7,14.4-12.4,17.1-5.5,2.1-11.1-4-11.2-9.9s3.3-11.1,5.7-16.4c16.2-35.1-4.2-80.8,17.3-113"/>
      <path class="cls-4" d="M498.4,979.56c14.9,42.5-19,91.2-2.5,133.1,9.8,24.9,34.7,40,58,53.2,7.5,4.3,17.8,8.3,24,2.3,4.6-4.4,3.9-12.4,.2-17.6s-9.5-8.4-15.1-11.6c-14.3-8.1-28.5-17.3-37.7-31-2.8-4.2-5.2-9.3-4.4-14.3s6.2-9.5,11-7.7c6.8,2.6,6.5,14.1,13.4,16.3,5.6,1.8,10.8-4.7,10.6-10.6s-3.9-10.9-6.7-16.1c-18.2-34.1-.6-81-23.9-111.8"/>
      <g class="cls-40">
        <path class="cls-13" d="M539.4,1025.66c-11.1,2.8-22.9,2.5-34.4,1.7-1.7-.1-3.4-.3-5-.4,1.4-7.7,2.1-15.4,2.2-23.2l2.8,.2c11.1,.8,22.5,1.1,33.2-1.4,.7,7.6,.9,15.3,1.2,23.1Z"/>
      </g>
      <g class="cls-40">
        <path class="cls-13" d="M975.4,1022.96c11.2,2.1,23,1.2,34.4-.3,1.7-.2,3.3-.5,5-.7-1.8-7.6-3-15.3-3.5-23l-2.8,.4c-11,1.4-22.4,2.4-33.2,.5-.2,7.5,0,15.3,.1,23.1Z"/>
      </g>
      <path class="cls-1" d="M596.3,603.96c-35.2,101.7-46.8,212.8-33.4,320.4,.4,3.1,.8,6.2,1.3,9.4l40.4,456.4,15.3,354.2c1.1,15.3,12.9,27.2,27.1,27.2h41c14.1,0,25.8-11.6,27-26.8l21-339.6,23.1-203.4,29.8,540.8c.8,15.2,12.2,27.1,26.2,27.6l38.2,1.3c14.4,.5,26.7-11.3,27.9-26.9l67.7-855.2"/>
      <polygon class="cls-22" points="647.5 1761.18 639.3 1378.78 606.2 990.85 608.2 990.68 641.3 1378.68 649.5 1761.14 647.5 1761.18"/>
      <polygon class="cls-22" points="877.3 1761.18 875.3 1761.14 883.5 1378.74 916.6 990.68 918.6 990.85 885.5 1378.85 877.3 1761.18"/>
      <path class="cls-21" d="M942.4,986.76l-8,101.7c-40.5,12.2-88,19.1-138.6,19.1-91.2,0-171.9-22.6-221-57.3l-7.3-80.7c3.9,11.4,24.3,22.5,33.1,30.8,17.8,16.8,30.5,32,54.8,34.8,56.9,6.6,114.4,13.2,171.3,6.8,43.7-5.1,89.8-20,115.7-55.2Z"/>
      <path class="cls-30" d="M659.1,430.66c3.3-1.1,160.7-56.8,242,32.2,81.3,89-187.7,53.6-187.7,53.6l-54.3-85.8Z"/>
      <path class="cls-4" d="M712.5,444.26c11.2-32.1,19.6-65.1,25.3-98.6,19.8,16.7,45.9,23.8,71.4,19.4,2-.4,4.2-.7,5.9,.3,1.2,.9,2.1,2.1,2.5,3.6,2.8,7.3,2.1,15.5,2.4,23.3,.7,19,7.8,37.2,11.3,55.9,.6,3.2,1.1,6.6-.1,9.6-1.5,3.9-5.4,6.2-9.1,8-34.8,16.8-76,8.1-113.6-.9"/>
      <path class="cls-15" d="M831.8,457.46c-1.1,2.5-3,4.6-5.4,6-26.9-25.5-46.5-60-59.1-87.8,5.3,1,10.6,1.5,16,1.5,1.5,0,3,0,4.5-.1,10.6-.5,21.1-3,30.9-7.2,2.3,7,1.7,14.7,1.9,22.2,.5,12.8,3.8,25.2,7.1,37.7,1.6,6,3.1,12.1,4.3,18.2,.5,3.1,1,6.5-.2,9.5Z"/>
      <path class="cls-22" d="M760.3,1209.46c7.1-20.6,12.2-41.9,15.1-63.5,3.1-22.3,4.1-44.9,3.1-67.4-.6-12.6-1.9-25.1-4-37.5-.3-1.8-3.1-1-2.8,.8,3.6,22,5,44.3,4.1,66.6-.8,22.2-3.6,44.3-8.4,66-2.6,11.6-5.9,23.1-9.8,34.3-.7,1.7,2.1,2.5,2.7,.7h0Z"/>
      <path class="cls-22" d="M780,1138.26c7.1-.5,14.6-1.3,20.8-5.1,3-1.8,5.4-4.4,7-7.4,2.1-4.1,2.6-8.8,3.2-13.2,2.6-19.8,5.2-39.8,4.5-59.9-.3-11.1-1.8-22.1-4.6-32.8-.2-.6-.8-1-1.5-.8-.6,.2-1,.8-.8,1.5h0c5,18.5,5.3,37.8,4,56.8-.7,9.5-1.8,19-3,28.5-.4,4.7-1.1,9.4-2.1,14-.8,3.8-2.7,7.2-5.6,9.8-5.9,5.1-14.4,5.9-21.8,6.4-1.6,0-1.6,2.3-.1,2.2h0Z"/>
      <path class="cls-22" d="M582.1,1113.76c14.4-1.9,27-10.4,35.9-21.7,10.1-12.9,14.9-29.1,15.6-45.3,.4-9.7-.5-19.5-2.8-29-.4-1.8-3.2-1-2.8,.8,3.7,16.1,4,33.1-.8,49-4.1,13.8-12.4,26.6-24.3,35-6.2,4.4-13.4,7.3-20.9,8.4-1.7,.2-1.7,3.1,.1,2.8h0Z"/>
      <path class="cls-22" d="M889.8,1012.86c-3.2,13.7-1.8,28,4,40.8,5.6,12.4,15.6,22.3,28,27.8,6.8,3,14.1,4.4,21.5,4.2,1.8,0,1.9-2.9,0-2.9-12.7,.2-25-4.5-34.3-13.1-9.7-8.8-15.6-21-17.4-33.9-1.1-7.4-.7-15,1-22.2,.4-1.7-2.4-2.5-2.8-.7h0Z"/>
      <path class="cls-25" d="M458.8,952.06c.5,9.5,1,19.2,3.7,28.3s7.8,17.9,15.8,23.2,18.2,6.6,27.9,7.3c14.9,1.1,30.5,1.2,44.1-5s24.6-20.3,22.8-35.2c-1.5-12-10.9-23.4-7.2-34.9"/>
      <path class="cls-25" d="M1048.4,948.86c0,9.5,0,19.2-2.2,28.5s-6.8,18.3-14.5,24-17.8,7.5-27.4,8.8c-14.8,1.9-30.4,2.8-44.3-2.6s-25.7-19-24.6-33.9c.9-12,9.7-24,5.3-35.2"/>
      <path class="cls-18" d="M578.5,960.46c-1,1.2-2.1,2.3-3.2,3.4"/>
      <path class="cls-17" d="M1055,915.06c-1.4,15.4-3.6,31.5-12.4,44.3-17.9,26.1-54.5,28.7-86.3,28.2-.8,1.2-1.5,2.4-2.4,3.6-25.5,37-72.8,52.5-117.4,57.5-57.4,6.5-115.4,6.5-172.8,.1-24.3-2.8-49-13.2-66.8-30-15.2-14.3-21.3-35.3-24.7-56.2-26.2,25.9-70.5,23.3-106.6,12.8-8-2.3-16.3-5.2-21.8-11.4-7.7-8.6-8.1-21.3-8-32.8,1.2-149,29.2-305.8,122.8-421.8,31.3-38.8,68.9-73.1,117.7-83.3,5.8-1.2,11.9-2.1,17.6-.4,6.7,2,11.9,7.1,17.4,11.4,22.7,17.8,52.3,24.2,80.4,17.2,24.9-6.4,49.2-23.4,74.2-16.9,14.3,3.7,25.4,14.6,35.5,25.5,110.9,120.4,168.3,288.9,153.6,452.2Z"/>
      <g class="cls-35">
        <path class="cls-25" d="M942.9,1004.76c-26.8,27.4-67.5,39.6-106.2,44-57.4,6.5-115.4,6.5-172.8,.1-24.3-2.8-49-13.2-66.8-30-15.2-14.3-21.3-35.3-24.7-56.2-26.2,25.9-70.5,23.3-106.6,12.8-8-2.3-16.3-5.2-21.8-11.4-7.7-8.6-8.1-21.3-8-32.8,.2-24.2,1.1-48.7,2.9-73.2,20.5,51.7,79,77,130.6,56.5,1.4-.5,2.8-1.1,4.1-1.7,6.9,21,24,37.6,43.5,48,19.5,10.4,41.4,15.7,63.1,20.1,86.3,17.7,174.5,25.7,262.7,23.8Z"/>
      </g>
      <g class="cls-35">
        <path class="cls-25" d="M1054.6,915.06c-1.4,15.4-3.6,31.5-12.4,44.3-10.3,15-26.8,22.2-45,25.6,6.7-13.7,8.7-30,9.9-45.7,14.2-180.5-39.7-366.5-145-502.5,1,.2,2.1,.4,3.1,.7,14.3,3.7,25.4,14.6,35.5,25.5,111.1,120.3,168.5,288.8,153.9,452.1Z"/>
      </g>
      <path class="cls-30" d="M967.4,851.96c3.3,18.3,6,36.9,6.7,55.5,.7,18.2-.5,36.8-5.7,54.3-2.8,9.7-7,19-12.3,27.6-1,1.6,1.6,3.2,2.6,1.5,9.8-15.6,15.1-33.4,17.3-51.6,2.3-18.8,1.4-37.8-.9-56.5-1.2-10.6-2.9-21.2-4.8-31.7-.4-1.8-3.3-1-2.9,.9h0Z"/>
      <path class="cls-30" d="M571.3,963.26c-5.2-26.2-7.7-53-8.8-79.7-1.1-28.1-.6-56.2,1-84.3,1.6-26.7,4.1-53.4,7.7-80,3-22.2,6.7-44.4,11.4-66.4,3.1-14.7,6.6-29.7,11.9-43.8,.4-1,.9-2.2,1.3-3.2,.7-1.8-1.8-3.3-2.6-1.5-5.5,13-8.8,27-11.9,40.7-4.8,21.4-8.6,43-11.7,64.7-3.8,26.3-6.6,52.6-8.4,79.1-1.9,28.3-2.8,56.7-2,85,.7,27.1,2.9,54.3,7.5,81,.5,3.1,1.1,6.1,1.7,9.2,.3,1.9,3.2,1.1,2.9-.8h0Z"/>
      <path class="cls-26" d="M568.8,964.86c-8.4,8.3-18.6,13.6-29.8,16.8-6.5,1.8-13.3,2.9-20,3.3-.3-147.1,52.6-314.7,69.4-364.2-12.4,41.3-27.5,130.5-28.9,219.8-.7,43.2,1.8,86.4,9.3,124.3Z"/>
      <ellipse class="cls-8" cx="378.7" cy="607.66" rx="36.1" ry="48.6"/>
      <ellipse class="cls-8" cx="539.4" cy="574.26" rx="50.8" ry="68.4"/>
      <ellipse class="cls-8" cx="620.4" cy="516.46" rx="21" ry="24.7"/>
      <ellipse class="cls-33" cx="1691.4" cy="1776.06" rx="250.6" ry="70.1"/>
      <ellipse class="cls-33" cx="468.9" cy="1836.56" rx="195.4" ry="7.9"/>
      <ellipse class="cls-33" cx="395.2" cy="1794.46" rx="195.4" ry="7.9"/>
      <ellipse class="cls-7" cx="1236.8" cy="1782.16" rx="22.2" ry="12"/>
      <ellipse class="cls-33" cx="1542.4" cy="1828.66" rx="50.8" ry="21"/>
      <ellipse class="cls-33" cx="1540.6" cy="1712.96" rx="27.7" ry="11.5"/>
      <ellipse class="cls-33" cx="559.1" cy="1825.16" rx="22.2" ry="9.7"/>
      <ellipse class="cls-11" cx="1128.2" cy="1151.26" rx="21" ry="7.9"/>
      <ellipse class="cls-11" cx="1174" cy="1071.16" rx="10.8" ry="5"/>
      <ellipse class="cls-11" cx="1171.4" cy="1029.16" rx="11.1" ry="3.8"/>
      <ellipse class="cls-11" cx="1136.9" cy="1068.26" rx="3.5" ry="3.2"/>
      <ellipse class="cls-22" cx="650.2" cy="1062.16" rx="6.4" ry="9.3"/>
      <ellipse class="cls-22" cx="881.61" cy="1059.01" rx="6.4" ry="9.3" transform="translate(-441.14 672.94) rotate(-33.95)"/>
      <circle class="cls-22" cx="793.8" cy="1071.06" r="6.6"/>
      <circle class="cls-22" cx="793.4" cy="1094.46" r="6.6"/>
      <circle class="cls-22" cx="792.2" cy="1116.66" r="6.6"/>
      <path class="cls-31" d="M802.8,1785.06v37.5c0,9.9,4.8,19.1,12.9,24.8l61.6,43.3c5.1,3.6,11.2,5.5,17.4,5.5h32c16.7,0,30.3-13.6,30.3-30.3h0c0-9.6-4.5-18.6-12.2-24.3l-101.4-52.3"/>
      <path class="cls-31" d="M696.9,1784.76v37.5c0,9.9-4.8,19.1-12.9,24.8l-61.6,43.3c-5.1,3.6-11.2,5.5-17.4,5.5h-32c-16.7,0-30.3-13.6-30.3-30.3h0c0-9.6,4.5-18.6,12.2-24.3l101.4-75.3"/>
      <g class="cls-38">
        <path class="cls-16" d="M657.2,1267.76c0,11.8-16.1,18.3-26.5,12.9s-15.2-18-16.2-29.8,.8-23.7-.8-35.4c-1.9-14.5-9-28.9-5.8-43.2,2.3-10,9.4-18.3,18.9-22.2,12.2-4.8,26.5-1.4,37.5,5.8s19.3,17.8,27.2,28.3c7.8,10.3,15.6,24.1,9,35.2-5,8.4-16,10.8-23,17.7-14.9,14.6-6.1,42.7-20.3,58.1-9.7,10.6-27.9,10.2-39,1.1s-15.2-24.8-12.9-39,10.4-26.8,20.1-37.4"/>
      </g>
      <g class="cls-38">
        <path class="cls-16" d="M631.7,1316.76c3.3,.5,6.6,.3,9.8-.5,1.7-.5,3.5-.6,5.3-.4,4.4,.9,7.2,5.6,7.5,10.1,.3,6.3-2.9,12.2-8.4,15.4-5.5,3-12.2,2.9-17.6-.3-5.3-3.3-8.7-9-9.1-15.2-.2-2.8,.5-5.9,2.6-7.8,2.5-2.3,6.5-2.1,9.9-1.3h0Z"/>
      </g>
      <circle class="cls-24" cx="656" cy="68.76" r="33.7"/>
      <path class="cls-24" d="M763.1,287.16c2.9,12.9,1.7,26.6,13.9,31.7s-80.4,20.4-69.2,13.4c-20.5,11.1-49,3.7-61.4-16-3.9-6.2-6.7-13.6-13-17.4-8.6-5.1-21.8-1.8-27.6-10-3.7-5.1-2.2-12.1-2.3-18.4-.5-18.9-17-35.3-15-54.1,1-8.9,6-16.8,10.9-24.3,16.1-24.7,35.2-51.5,64.1-57.4"/>
      <path class="cls-24" d="M709.7,306.66c-18.7-3.3-37,12.1-55.6,8.2-11.8-2.5-20.5-12-28.3-21.1-11-12.6-22.4-26-25.7-42.4-3-14.6,.8-29.7,3.8-44.3,8.7-42.1,11.5-86,28.8-125.4S687.3,7.36,730.2,9.76c21,1.3,40.8,11.3,61.8,13,23.3,1.9,49.5-6,68.6,7.5,8.3,5.9,13.8,15,21.2,22,6.8,6.4,15.2,10.9,22.3,16.9,22.5,19.1,29.8,54.1,16.6,80.5s-45.4,41.8-74.2,35.4"/>
      <path class="cls-23" d="M702.5,336.66c-11.5,2.7-23.7,1.2-34.2-4.3-2.1-5.3-3.9-10.7-5.3-16.3-1.5-5.6-2.6-11.4-3.2-17.1-1.6-13.6-.4-27.3,3.5-40.5,3.7,19.1,10.7,37.3,20.7,53.9,5.3,8.7,11.5,16.8,18.5,24.3Z"/>
      <ellipse class="cls-4" cx="786.3" cy="224.16" rx="131" ry="151.8"/>
      <path class="cls-14" d="M917.3,224.16c0,83.8-58.7,151.8-131,151.8-5.5,0-10.9-.4-16.3-1.2,64.7-9.3,114.7-73.2,114.7-150.6s-50-141.3-114.7-150.6c5.4-.8,10.9-1.2,16.3-1.2,72.3,0,131,68,131,151.8Z"/>
      <circle class="cls-4" cx="659.1" cy="228.06" r="30.3"/>
      <path class="cls-6" d="M863.1,273.56c0,20-16.3,49.3-36.3,49.3s-36.3-16.3-36.3-36.3l72.6-13Z"/>
      <g class="cls-39">
        <path class="cls-13" d="M676.3,201.06c5,4.9,13.6,4.3,19.5,.6s9.9-9.9,13.7-15.8,7.8-12,13.8-15.7c7.6-4.6,17.2-4.6,25.1-8.7,10.1-5.1,15.8-15.8,22-25.3,7.9-12.1,17.6-23,28.6-32.4,.8-.8,1.8-1.4,2.8-1.9,4.6-1.9,9.2,2.5,12.6,6.1,4.8,5,10.3,9.2,16.4,12.4,2.8,1.5,6.2,2.8,9.2,1.8,3.3-1.2,5.1-4.9,5.1-8.4s-1.5-6.8-2.9-10c-5.1-11.2-11.2-22.6-21.7-28.7-8-4.6-17.5-5.6-26.7-6.4l-31.3-2.9c-2.9-.4-5.9-.4-8.8,.1-3.2,.6-6.1,2.3-8.9,3.9-11.1,6.3-22.4,12.9-30.6,22.7-5,5.9-8.7,12.9-11.9,19.9-5.2,11.4-9.3,23.2-12.4,35.3"/>
      </g>
      <path class="cls-24" d="M641.3,190.36c15.1,3.4,28.3,19.1,43.1,14.3,15.2-4.9,16.5-26.6,28.5-37.1,8-7,20-8.2,27.9-15.4,7.4-6.8,9.7-17.7,16.6-25,5.8-6.2,14-9.3,21-14.2,12.1-8.7,19.5-22.5,20-37.3,.3-11.1-3.9-23-13.2-29.2-13.5-8.9-31.5-3.1-46.5,3"/>
      <path class="cls-24" d="M787.7,58.06c.3,11.1,8.9,20.2,18,26.6s19.5,11.4,26.6,19.9c6,7.1,9.5,16.4,16.7,22.3,3.6,3,8,4.9,12,7.5,12.9,8.4,21.9,23.6,36.9,27,2.2,.6,4.6,.6,6.8-.1,6-2.3,6.4-10.6,5.1-16.9-4.8-22.9-18.8-42.7-32.4-61.7"/>
      <path class="cls-13" d="M652,242.86c-3.4-4.6-4.5-10.5-3-15.9,1.6-5.3,4.9-9.9,9.5-13.1,1.5-1.1,.1-3.7-1.5-2.6-5.2,3.6-9.1,8.8-10.9,14.9-1.8,6.3-.6,13,3.3,18.3,1.2,1.4,3.8-.1,2.6-1.6Z"/>
      <path class="cls-13" d="M647.5,228.16c2.9-.2,5.8,.5,8.4,1.9,2.9,1.8,5.2,4.5,6.5,7.7,.4,.7,1.3,.9,2,.5s.9-1.3,.5-2c-1.6-3.6-4.2-6.7-7.5-8.8-3-1.7-6.5-2.5-9.9-2.3-2,.1-2,3.1,0,3h0Z"/>
      <path class="cls-13" d="M827.5,216.16c-1.1,2-.3,4,.5,5.9s1.8,4.1,2.9,6.1c2.1,4,4.7,7.7,7.6,11.2,.7,.9,1.5,1.7,2.2,2.6,.4,.4,.8,.8,1.2,1.2,.3,.5,.2,.6-.3,1-1.5,1.6-3.7,2.4-5.6,3.3l-14.2,6.7c-1.7,.8-.2,3.4,1.5,2.6l11.3-5.4c3.2-1.5,7.2-2.8,9.5-5.6,1.1-1.4,1.5-2.9,.3-4.3s-2.4-2.6-3.6-4c-2.3-2.8-4.4-5.7-6.2-8.9-1-1.8-2-3.6-2.8-5.4-.5-1-.9-2-1.3-3-.3-.8-.8-1.9-.4-2.6,.9-1.7-1.7-3.2-2.6-1.5v.1Z"/>
      <path class="cls-24" d="M736.4,201.66c4.4-1.3,8.7-3.1,12.7-5.4,8-4.4,18.2-6,27.7-7.7,5.2-.9,10.7-2.1,13.2-7,1.6-3.4,1.2-7.4-1.2-10.4-5-6.6-15.5-7.4-23.4-4.4-6.7,2.6-11.8,7.4-15.7,12.7s-6.8,11-10.4,16.4c-1.4,2-2.8,4-4.1,6l1.2-.2Z"/>
      <path class="cls-24" d="M895.7,188.66c-4.6-.4-9.1-1.3-13.5-2.8-8.7-2.8-19-2.3-28.7-2-5.3,.1-10.9,.1-14.3-4.2-2.3-3-2.6-7-.9-10.4,3.6-7.4,13.7-10.4,22.1-9,7.1,1.2,13,4.9,17.9,9.4s8.8,9.5,13.5,14c1.7,1.7,3.5,3.3,5.2,5.1l-1.3-.1Z"/>
      <ellipse class="cls-24" cx="632.28" cy="135.08" rx="52.1" ry="37.6" transform="translate(335.67 709.57) rotate(-74.75)"/>
      <ellipse class="cls-24" cx="702.47" cy="41.77" rx="52.1" ry="37.7" transform="translate(73.23 356.84) rotate(-30)"/>
      <ellipse class="cls-24" cx="826.77" cy="46.64" rx="49.2" ry="35.5" transform="translate(87.45 419.64) rotate(-30)"/>
      <ellipse class="cls-24" cx="776.9" cy="230.46" rx="12.7" ry="18.4"/>
      <ellipse class="cls-24" cx="872" cy="222.56" rx="12.7" ry="18.4"/>
      <circle class="cls-6" cx="788.5" cy="221.86" r="4.5"/>
      <circle class="cls-6" cx="880.4" cy="214.46" r="4.5"/>
      <ellipse class="cls-9" cx="667.53" cy="96.45" rx="39.8" ry="23" transform="translate(105.49 469.3) rotate(-41.78)"/>
      <circle class="cls-9" cx="691.4" cy="42.06" r="8.8"/>
      <path class="cls-29" d="M312.56,635.89c-13.33,0-27.27-7.51-28.06-7.94-1.21-.66-1.66-2.18-.99-3.39,.66-1.21,2.18-1.66,3.39-1,.23,.13,23.4,12.59,36.09,4.77,1.17-.73,2.71-.36,3.44,.81,.73,1.17,.36,2.72-.81,3.44-3.9,2.41-8.44,3.31-13.06,3.31Z"/>
      <path class="cls-29" d="M329.62,681.5c-2.65,0-5.43-.18-8.33-.53-10.4-1.27-18.63-4.34-18.98-4.47-1.29-.49-1.94-1.93-1.46-3.22s1.93-1.95,3.22-1.46c.31,.12,31.49,11.59,46.56-1.83,1.03-.92,2.61-.83,3.53,.21,.92,1.03,.83,2.61-.21,3.53-5.77,5.13-14.08,7.77-24.34,7.77Z"/>
      <path class="cls-29" d="M368.5,688.36c-.83,0-1.63-.41-2.11-1.16-.74-1.16-.4-2.71,.76-3.45,17-10.84,14.48-43.95,14.45-44.29-.11-1.38,.91-2.58,2.29-2.7,1.37-.12,2.58,.91,2.7,2.28,.03,.37,.73,9.12-.88,19.47-2.19,14.04-7.68,24.23-15.86,29.45-.42,.27-.88,.39-1.34,.39Z"/>
      <path class="cls-29" d="M418.3,726.06c-.73,0-1.46-.32-1.95-.94-.86-1.08-.69-2.65,.39-3.51,15.71-12.59,9.57-45.24,9.51-45.57-.26-1.35,.62-2.67,1.98-2.93,1.35-.27,2.67,.62,2.93,1.97,.07,.36,1.73,8.99,1.26,19.45-.64,14.2-4.98,24.91-12.55,30.98-.46,.37-1.01,.55-1.56,.55Z"/>
      <path class="cls-29" d="M368.83,721.79c-1.45,0-2.93-.05-4.44-.14-10.47-.64-18.87-3.2-19.22-3.31-1.32-.41-2.06-1.81-1.65-3.12,.41-1.32,1.8-2.06,3.12-1.65,.32,.1,32.15,9.66,46.39-4.67,.97-.98,2.56-.98,3.54-.01,.98,.97,.98,2.56,.01,3.54-6.13,6.17-15.66,9.37-27.74,9.37Z"/>
      <rect class="cls-31" x="820.2" y="1756.06" width="41.2" height="46.4"/>
      <path class="cls-20" d="M879.6,1787.76h-88.1c-4.2,0-7.6-3.4-7.6-7.6h0l-4-23.4c0-4.2,3.4-7.6,7.6-7.6h97.1c4.2,0,7.6,3.4,7.6,7.6l-5,23.4c0,4.2-3.4,7.6-7.6,7.6h0Z"/>
      <path class="cls-20" d="M706.5,1786.56h-90.1c-4.2,0-7.6-3.4-7.6-7.6l-3-23.4c0-4.2,3.4-7.6,7.6-7.6h97.1c4.2,0,7.6,3.4,7.6,7.6l-4,23.4c0,4.2-3.4,7.6-7.6,7.6h0Z"/>
      <g>
        <path class="cls-22" d="M725.8,1760.26h-127.3c-.55,0-1-.45-1-1s.45-1,1-1h127.3c.55,0,1,.45,1,1s-.45,1-1,1Z"/>
        <path class="cls-22" d="M721.8,1768.06h-119.3c-.55,0-1-.45-1-1s.45-1,1-1h119.3c.55,0,1,.45,1,1s-.45,1-1,1Z"/>
        <path class="cls-22" d="M720.8,1776.56h-117.3c-.55,0-1-.45-1-1s.45-1,1-1h117.3c.55,0,1,.45,1,1s-.45,1-1,1Z"/>
      </g>
      <g>
        <path class="cls-22" d="M897.6,1760.26h-127.4c-.55,0-1-.45-1-1s.45-1,1-1h127.4c.55,0,1,.45,1,1s-.45,1-1,1Z"/>
        <path class="cls-22" d="M893.6,1768.06h-119.4c-.55,0-1-.45-1-1s.45-1,1-1h119.4c.55,0,1,.45,1,1s-.45,1-1,1Z"/>
        <path class="cls-22" d="M892.6,1776.56h-117.4c-.55,0-1-.45-1-1s.45-1,1-1h117.4c.55,0,1,.45,1,1s-.45,1-1,1Z"/>
      </g>
    </g>
  </g>
</svg>