<?xml version="1.0" encoding="UTF-8"?>
<svg id="Layer_2" data-name="Layer 2" xmlns="http://www.w3.org/2000/svg" viewBox="0 0 58.8 58.84">
  <defs>
    <style>
      .cls-1, .cls-2, .cls-3 {
        fill: #f9d606;
      }

      .cls-4 {
        fill: #ede6e6;
      }

      .cls-5 {
        fill: #fff;
      }

      .cls-6 {
        fill: #8eaeba;
      }

      .cls-7 {
        fill: #dae4e5;
      }

      .cls-8 {
        fill: #415e6d;
      }

      .cls-9 {
        fill: #2e4751;
      }

      .cls-10 {
        fill: #74ce3a;
      }

      .cls-2 {
        opacity: .2;
      }

      .cls-2, .cls-3 {
        isolation: isolate;
      }

      .cls-3 {
        opacity: .52;
      }
    </style>
  </defs>
  <g id="Layer_1-2" data-name="Layer 1">
    <g>
      <path class="cls-1" d="M5.54,37.24H52.57c-4.15,12.99-18.05,20.15-31.03,16-7.61-2.43-13.57-8.39-16-16Z"/>
      <path class="cls-2" d="M53.19,24.46H4.92C7.8,11.13,20.95,2.67,34.28,5.55c9.47,2.05,16.86,9.44,18.91,18.91Z"/>
      <path class="cls-3" d="M53.76,29.96c0,2.01-.41,4-1.18,5.85H5.54c-1.33-3.14-1.55-6.63-.62-9.91H53.19c.37,1.32,.56,2.68,.57,4.06Z"/>
      <path d="M29.41,58.84C13.17,58.82,0,45.65,0,29.41,.03,13.18,13.18,.03,29.41,0c16.25,.02,29.4,13.2,29.39,29.45-.02,16.22-13.16,29.37-29.39,29.39ZM29.41,1.5C14.01,1.51,1.53,13.99,1.53,29.39s12.49,27.88,27.89,27.88c15.4,0,27.88-12.49,27.88-27.89,0-1.98-.21-3.95-.63-5.88C53.86,10.68,42.53,1.54,29.41,1.5Z"/>
      <circle class="cls-5" cx="40.19" cy="13.31" r=".48"/>
      <circle class="cls-5" cx="10.47" cy="28.25" r=".48"/>
      <circle class="cls-5" cx="30.62" cy="28.73" r=".48"/>
      <circle class="cls-5" cx="22.1" cy="48.23" r=".48"/>
      <circle class="cls-5" cx="15.9" cy="14.44" r=".48"/>
      <circle class="cls-5" cx="43.19" cy="45.27" r=".84"/>
      <circle class="cls-5" cx="49.85" cy="26.27" r=".84"/>
      <circle class="cls-5" cx="15.06" cy="42.24" r=".84"/>
      <path class="cls-5" d="M17.2,36.83c-3.29,0-5.96-2.67-5.96-5.97,0-3.29,2.67-5.96,5.96-5.96v11.93Z"/>
      <path class="cls-5" d="M41.61,36.83c3.29,0,5.97-2.67,5.97-5.97s-2.67-5.97-5.97-5.97v11.93Z"/>
      <path class="cls-4" d="M26.9,41.98h4.78c.91,0,1.65,.74,1.65,1.65h0c0,.91-.74,1.65-1.65,1.65h-4.78c-.91,0-1.65-.74-1.65-1.65h0c0-.91,.74-1.65,1.65-1.65Z"/>
      <path d="M38.71,44.04h-5.16c-.23,0-.41-.18-.41-.41,0-.23,.18-.41,.41-.41,0,0,0,0,0,0h5.16c2.24,0,4.06-1.82,4.07-4.07v-8.05c0-.23,.19-.41,.41-.41,.23,0,.41,.18,.41,.41v8.05c0,2.7-2.19,4.89-4.89,4.89Z"/>
      <path d="M38.62,42.28h-3.8c-.17,0-.3-.13-.31-.3,0-.17,.13-.3,.3-.31,0,0,0,0,0,0h3.8c1.66,0,3-1.34,3-3v-5.93c0-.17,.14-.3,.31-.3,.17,0,.3,.14,.3,.3v5.93c0,1.99-1.62,3.6-3.61,3.61Z"/>
      <path class="cls-7" d="M17.2,36.83c-2.59,0-4.68-2.67-4.68-5.97s2.1-5.97,4.68-5.97v11.93Z"/>
      <path class="cls-7" d="M41.61,36.83c2.59,0,4.68-2.67,4.68-5.97s-2.1-5.97-4.68-5.97v11.93Z"/>
      <path d="M41.61,37.3c-.26,0-.47-.21-.47-.47h0v-2.93c0-.26,.21-.47,.47-.47s.47,.21,.47,.47v2.44c3.03-.26,5.27-2.92,5.02-5.94-.23-2.67-2.34-4.79-5.02-5.02v6.12c0,.26-.21,.47-.47,.47s-.47-.21-.47-.47v-6.61c0-.26,.21-.47,.47-.47h0c3.55,0,6.44,2.87,6.44,6.42s-2.87,6.44-6.42,6.44c0,0-.01,0-.02,0h0Z"/>
      <path class="cls-8" d="M39.87,23.15c0-5.41-4.69-9.79-10.47-9.79s-10.47,4.38-10.47,9.79l-1.87-.56c0-6.38,5.52-11.54,12.34-11.54s12.34,5.17,12.34,11.54"/>
      <path class="cls-5" d="M31.68,43.4h-4.78c-.91,0-1.65,1.13-1.65,.22h0c0-.91,.74-1.65,1.65-1.65h4.78c.91,0,1.65,.74,1.65,1.65h0c0,.91-.74-.22-1.65-.22Z"/>
      <path d="M31.68,45.68h-4.78c-1.14,0-2.06-.92-2.06-2.06,0-1.14,.92-2.06,2.06-2.06h4.78c1.14,0,2.06,.92,2.06,2.06s-.92,2.06-2.06,2.06h0Zm-4.78-3.29c-.68,0-1.23,.56-1.23,1.24,0,.68,.55,1.23,1.23,1.23h4.78c.68,0,1.23-.56,1.23-1.24,0-.68-.55-1.23-1.23-1.23h-4.78Z"/>
      <path class="cls-10" d="M11.05,32.26c-.64,0-1.16-.52-1.16-1.17,0-.64,.52-1.16,1.16-1.16"/>
      <path d="M17.2,37.3c-3.55,0-6.44-2.87-6.44-6.42,0-3.55,2.87-6.44,6.42-6.44,0,0,.01,0,.02,0,.26,0,.47,.21,.47,.47h0v11.93c0,.26-.21,.47-.47,.47h0Zm-.47-11.91c-3.03,.26-5.27,2.92-5.02,5.94,.23,2.67,2.34,4.79,5.02,5.02v-10.96Z"/>
      <path d="M11.05,32.49c-.77,0-1.4-.63-1.4-1.4s.63-1.4,1.4-1.4c.13,0,.23,.11,.23,.23,0,.13-.1,.23-.23,.23-.51,0-.93,.42-.93,.93,0,.51,.42,.93,.93,.93h0c.13,0,.23,.11,.23,.23,0,.13-.1,.23-.23,.23Z"/>
      <g>
        <path d="M14.72,34.04c-.08,0-.15-.06-.16-.14l-.22-1.53c-.01-.09,.05-.17,.13-.18,.09-.01,.17,.05,.18,.14l.22,1.53c.01,.09-.05,.17-.13,.18h-.02Z"/>
        <path d="M13.95,33.68c-.08,0-.15-.06-.16-.14l-.22-1.53c-.01-.09,.05-.17,.13-.18,.09-.01,.17,.05,.18,.13l.22,1.53c.01,.09-.05,.17-.13,.18h-.02Z"/>
      </g>
      <g>
        <path d="M41.74,23.32c-.25,0-.45-.2-.45-.45,0-6.12-5.33-11.09-11.89-11.09s-11.89,4.98-11.89,11.09c0,.25-.2,.45-.45,.45-.25,0-.45-.2-.45-.45,0-6.61,5.74-11.99,12.79-11.99s12.79,5.38,12.79,11.99c0,.25-.2,.45-.45,.45Z"/>
        <path d="M39.87,23.81c-.21,0-.38-.17-.38-.38,0-5.19-4.52-9.41-10.08-9.41s-10.08,4.22-10.08,9.41c0,.21-.17,.38-.38,.38-.21,0-.38-.17-.38-.38,0-5.61,4.87-10.17,10.85-10.17s10.85,4.56,10.85,10.17c0,.21-.17,.38-.38,.38Z"/>
      </g>
      <path class="cls-6" d="M20.71,16.59c-.14,0-.25-.11-.25-.25,0-.05,.01-.1,.04-.14,.67-.94,1.59-1.69,2.64-2.17,.13-.05,.27,0,.33,.14,.05,.13,0,.27-.13,.33-.96,.44-1.8,1.12-2.42,1.98-.05,.07-.12,.11-.21,.11Z"/>
      <path class="cls-6" d="M35.74,14.6s-.1-.01-.14-.04c-.7-.45-1.46-.82-2.25-1.1-.13-.04-.2-.18-.16-.32,.04-.13,.18-.2,.31-.16,.83,.29,1.63,.68,2.37,1.16,.12,.08,.15,.23,.07,.35-.05,.07-.12,.11-.21,.11h0Z"/>
      <path class="cls-8" d="M17.6,22.24h0c.94,0,1.7,.76,1.7,1.7v14.32c0,.94-.76,1.7-1.7,1.7h0c-.94,0-1.7-.76-1.7-1.7v-14.32c0-.94,.76-1.7,1.7-1.7Z"/>
      <path class="cls-9" d="M19.29,32.74v5.38c0,.94-.76,1.69-1.69,1.69s-1.7-.76-1.7-1.69v-5.38c0,.94,.76,1.69,1.7,1.69s1.69-.76,1.69-1.69Z"/>
      <path class="cls-8" d="M41.03,22.24h0c.94,0,1.7,.76,1.7,1.7v14.32c0,.94-.76,1.7-1.7,1.7h0c-.94,0-1.7-.76-1.7-1.7v-14.32c0-.94,.76-1.7,1.7-1.7Z"/>
      <path d="M17.6,40.18c-1.09,0-1.98-.89-1.98-1.98v-14.32c0-1.09,.89-1.98,1.98-1.98s1.98,.89,1.98,1.98v14.32c0,1.09-.89,1.98-1.98,1.98Zm0-17.72c-.78,0-1.41,.63-1.42,1.42v14.32c0,.78,.63,1.42,1.41,1.42,.78,0,1.42-.63,1.42-1.41,0,0,0,0,0,0v-14.32c0-.78-.63-1.41-1.42-1.42Z"/>
      <path class="cls-9" d="M42.72,32.74v5.38c0,.94-.76,1.7-1.69,1.7-.94,0-1.7-.76-1.7-1.69h0v-5.38c0,.94,.76,1.7,1.69,1.7,.94,0,1.7-.76,1.7-1.69h0Z"/>
      <path d="M41.03,40.18c-1.09,0-1.98-.89-1.98-1.98v-14.32c0-1.09,.89-1.98,1.98-1.98s1.98,.89,1.98,1.98v14.32c0,1.09-.89,1.98-1.98,1.98Zm0-17.72c-.78,0-1.41,.63-1.42,1.42v14.32c0,.78,.63,1.42,1.41,1.42,.78,0,1.42-.63,1.42-1.41h0v-14.33c0-.78-.63-1.41-1.42-1.42Z"/>
      <path class="cls-6" d="M17.2,28.98c-.14,0-.25-.11-.25-.25v-3.83c0-.14,.11-.25,.25-.25s.25,.11,.25,.25v3.83c0,.14-.11,.25-.25,.25Z"/>
      <path class="cls-6" d="M41.03,33.5c-.14,0-.25-.11-.25-.25v-3.83c0-.14,.11-.25,.25-.25s.25,.11,.25,.25v3.83c0,.14-.11,.25-.25,.25Z"/>
      <path d="M29.05,44.14h-1.84c-.09,0-.16-.07-.16-.16s.07-.16,.16-.16h1.83c.09,0,.16,.07,.16,.16s-.07,.16-.16,.16Z"/>
    </g>
  </g>
</svg>