<?xml version="1.0" encoding="UTF-8"?>
<svg id="Layer_2" data-name="Layer 2" xmlns="http://www.w3.org/2000/svg" viewBox="0 0 58.8 58.86">
  <defs>
    <style>
      .cls-1 {
        fill: #fff;
      }

      .cls-2, .cls-3 {
        fill: #9cef65;
      }

      .cls-4 {
        fill: #dae4e5;
      }

      .cls-5 {
        fill: #74ce3a;
      }

      .cls-3 {
        isolation: isolate;
        opacity: .5;
      }
    </style>
  </defs>
  <g id="Layer_1-2" data-name="Layer 1">
    <g>
      <path d="M29.41,58.86C13.17,58.84,0,45.67,0,29.43-.02,13.19,13.14,.02,29.37,0c16.24-.02,29.41,13.14,29.43,29.37,0,.02,0,.04,0,.06,0,16.24-13.16,29.4-29.39,29.43ZM29.41,1.52C14.01,1.53,1.53,14.02,1.53,29.42c0,15.4,12.49,27.88,27.89,27.88,15.4,0,27.88-12.49,27.88-27.89,0-1.98-.21-3.95-.63-5.88C53.86,10.71,42.53,1.56,29.41,1.52Z"/>
      <circle class="cls-1" cx="15.78" cy="28.29" r=".48"/>
      <path class="cls-5" d="M5.88,36.98H52.92c-4.15,12.99-18.05,20.15-31.03,16-7.61-2.43-13.57-8.39-16-16Z"/>
      <path class="cls-3" d="M53.54,24.2H5.26C8.15,10.87,21.3,2.4,34.63,5.29c9.47,2.05,16.86,9.44,18.91,18.91Z"/>
      <path class="cls-2" d="M54.1,29.74c0,1.9-.41,3.77-1.18,5.5H5.88c-1.33-2.92-1.55-6.23-.62-9.31H53.54c.37,1.24,.56,2.52,.57,3.81Z"/>
      <path d="M27.56,47.72c-1.37,0-2.58-.92-2.95-2.24l-1.33-4.77c-.35-1.27-1.67-2.01-2.94-1.66s-2.01,1.67-1.66,2.94l.45,1.59c.05,.18-.05,.37-.23,.42-.18,.05-.37-.05-.42-.23,0,0,0,0,0,0l-.45-1.59c-.45-1.63,.5-3.32,2.13-3.77,1.63-.45,3.32,.5,3.77,2.13h0l1.33,4.77c.35,1.27,1.67,2.01,2.94,1.66l1.53-.43c1.27-.36,2.01-1.67,1.66-2.94l-1.14-4.07c-.05-.18,.05-.37,.23-.42,.18-.05,.37,.05,.42,.23,0,0,0,0,0,0l1.14,4.07c.45,1.63-.5,3.32-2.13,3.77l-1.53,.43c-.27,.08-.55,.11-.83,.11Z"/>
      <path class="cls-1" d="M24.81,22.74c.43,2.12,1.45,6.32,2.03,8.4,.06,.33,.37,.56,.71,.52l1.79-.2c1.17-.13,2.24,.69,2.4,1.86l1.25,5.17c.39,1.11-.18,2.33-1.29,2.75l-3.26,.55c-.96,.17-1.92-.28-2.4-1.13-4.56-7.89-6.75-16.92-6.3-26.02,.04-.97,.68-1.82,1.61-2.1l3.26-.55c1.17-.14,2.24,.69,2.4,1.85l1.25,5.18c.39,1.11-.18,2.33-1.29,2.75l-1.79,.2c-.32,.12-.49,.46-.39,.78Z"/>
      <path class="cls-4" d="M25.83,22.5c.43,2.12,1.45,6.32,2.03,8.4,.06,.33,.37,.56,.71,.52l1.79-.2c1.17-.13,2.24,.69,2.4,1.86l1.25,5.17c.39,1.11-.18,2.33-1.29,2.75l-3.26,.55c-.96,.17-1.92-.28-2.4-1.13-2.28-3.92-3.97-8.15-5.03-12.56-1.08-4.4-1.5-8.94-1.27-13.47,.04-.97,.68-1.82,1.61-2.1l3.26-.55c1.17-.14,2.24,.69,2.4,1.85l1.25,5.18c.39,1.11-.18,2.33-1.29,2.75l-1.79,.2c-.32,.12-.49,.46-.39,.78Z"/>
      <path d="M28.48,42.41c-1.02,0-1.98-.47-2.6-1.27-2.42-3.14-4.64-8.72-5.58-12.62-.94-3.89-1.52-9.88-.81-13.77,.24-1.27,1.2-2.29,2.46-2.59l3.31-.8c1.52-.37,3.06,.56,3.43,2.08,0,0,0,0,0,0l1.25,5.18c.36,1.52-.57,3.05-2.09,3.42l-1.46,.35c-.12,.03-.2,.15-.18,.28,.15,.76,.37,1.79,.63,2.89,.06,.25-.1,.5-.35,.56-.25,.06-.5-.1-.56-.35-.26-1.11-.49-2.16-.64-2.93-.12-.61,.27-1.21,.88-1.36l1.46-.35c1.02-.25,1.65-1.27,1.41-2.3l-1.25-5.18c-.25-1.02-1.28-1.65-2.3-1.4l-3.31,.8c-.9,.22-1.59,.94-1.77,1.85-.69,3.77-.12,9.59,.8,13.39,.92,3.8,3.08,9.23,5.42,12.27,.57,.73,1.52,1.06,2.42,.84l3.31-.8c1.02-.25,1.65-1.27,1.41-2.3l-1.25-5.17c-.25-1.02-1.28-1.65-2.3-1.41,0,0,0,0,0,0l-1.46,.35c-.61,.15-1.22-.21-1.4-.81-.3-1.02-.42-1.42-.77-2.89-.06-.25,.09-.5,.34-.56,.25-.06,.5,.09,.56,.34,.35,1.45,.47,1.84,.74,2.76,.06,.21,.19,.27,.31,.25l1.46-.35c1.52-.37,3.06,.57,3.43,2.09l1.25,5.17c.36,1.52-.57,3.05-2.09,3.42l-3.31,.8c-.25,.06-.52,.09-.78,.09Z"/>
      <path d="M25.66,14.74c-.12,0-.23-.08-.26-.2l-.63-2.58c-.03-.14,.05-.29,.2-.32,.14-.03,.29,.05,.32,.2l.63,2.58c.03,.14-.05,.29-.2,.32-.02,0-.04,0-.06,0Z"/>
      <g>
        <path d="M33.14,28.2c-.14,0-.25-.11-.25-.25,0-.12,.08-.22,.19-.24,1.19-.29,1.92-1.48,1.63-2.67-.29-1.19-1.48-1.92-2.67-1.63h0c-.13,.03-.27-.05-.3-.18,0,0,0,0,0,0-.03-.14,.05-.27,.18-.3,0,0,0,0,0,0,1.46-.35,2.93,.54,3.28,2,.35,1.46-.54,2.93-2,3.28-.02,0-.04,0-.06,0Z"/>
        <path d="M34.17,29.9c-.14,0-.25-.11-.25-.25,0-.12,.08-.22,.19-.24,2.2-.53,3.56-2.75,3.02-4.96-.26-1.06-.92-1.97-1.85-2.54-.93-.57-2.05-.75-3.1-.48-.13,.03-.27-.05-.3-.18,0,0,0,0,0,0-.03-.14,.05-.27,.18-.3,0,0,0,0,0,0,2.48-.6,4.97,.93,5.56,3.4,.6,2.47-.92,4.96-3.39,5.56-.02,0-.04,0-.06,0Z"/>
        <path d="M35.7,31.94c-.14,0-.25-.11-.25-.25,0-.12,.08-.22,.19-.24,3.46-.83,5.59-4.32,4.75-7.78-.83-3.46-4.32-5.59-7.78-4.75,0,0,0,0-.01,0-.14,.03-.27-.05-.3-.19-.03-.13,.05-.27,.19-.3,3.73-.91,7.49,1.39,8.4,5.12,.91,3.73-1.39,7.49-5.12,8.4,0,0,0,0,0,0-.02,0-.04,0-.06,0Z"/>
      </g>
      <g>
        <path d="M21.57,22.95c-.13,0-.24-.1-.25-.23-.3-2.54-.29-5.11,.05-7.64,.02-.13,.14-.23,.28-.21,0,0,0,0,.01,0,.14,.02,.23,.15,.21,.29,0,0,0,0,0,0-.33,2.49-.34,5.01-.04,7.51,.01,.14-.09,.26-.22,.27,0,0,0,0,0,0h-.03Z"/>
        <path d="M22,26.09c-.12,0-.23-.09-.25-.21-.07-.39-.13-.78-.19-1.18-.02-.14,.07-.26,.21-.28s.26,.07,.28,.21h0c.06,.4,.12,.79,.19,1.17,.02,.14-.07,.27-.2,.29-.01,0-.03,0-.04,0Z"/>
      </g>
      <path d="M29.35,42.11c-.12,0-.23-.08-.26-.2l-.63-2.58c-.04-.14,.05-.29,.19-.32,.14-.04,.29,.05,.32,.19,0,0,0,0,0,0l.63,2.58c.03,.14-.05,.29-.2,.32-.02,0-.04,0-.06,0Z"/>
      <path d="M25.66,14.74c-.12,0-.23-.08-.26-.2l-.63-2.58c-.03-.14,.05-.29,.2-.32,.14-.03,.29,.05,.32,.2l.63,2.58c.03,.14-.05,.29-.2,.32-.02,0-.04,0-.06,0Z"/>
      <g>
        <path d="M33.14,28.2c-.14,0-.25-.11-.25-.25,0-.12,.08-.22,.19-.24,1.19-.29,1.92-1.48,1.63-2.67-.29-1.19-1.48-1.92-2.67-1.63h0c-.13,.03-.27-.05-.3-.18,0,0,0,0,0,0-.03-.14,.05-.27,.18-.3,0,0,0,0,0,0,1.46-.35,2.93,.54,3.28,2,.35,1.46-.54,2.93-2,3.28-.02,0-.04,0-.06,0Z"/>
        <path d="M34.17,29.9c-.14,0-.25-.11-.25-.25,0-.12,.08-.22,.19-.24,2.2-.53,3.56-2.75,3.02-4.96-.26-1.06-.92-1.97-1.85-2.54-.93-.57-2.05-.75-3.1-.48-.13,.03-.27-.05-.3-.18,0,0,0,0,0,0-.03-.14,.05-.27,.18-.3,0,0,0,0,0,0,2.48-.6,4.97,.93,5.56,3.4,.6,2.47-.92,4.96-3.39,5.56-.02,0-.04,0-.06,0Z"/>
        <path d="M35.7,31.94c-.14,0-.25-.11-.25-.25,0-.12,.08-.22,.19-.24,3.46-.83,5.59-4.32,4.75-7.78-.83-3.46-4.32-5.59-7.78-4.75,0,0,0,0-.01,0-.14,.03-.27-.05-.3-.19-.03-.13,.05-.27,.19-.3,3.73-.91,7.49,1.39,8.4,5.12,.91,3.73-1.39,7.49-5.12,8.4,0,0,0,0,0,0-.02,0-.04,0-.06,0Z"/>
      </g>
      <circle class="cls-1" cx="37.11" cy="15.54" r=".42"/>
      <circle class="cls-1" cx="28.72" cy="29.05" r=".42"/>
      <circle class="cls-1" cx="21.26" cy="46.13" r=".42"/>
      <circle class="cls-1" cx="15.83" cy="16.53" r=".42"/>
      <circle class="cls-1" cx="37.84" cy="39.36" r=".74"/>
      <circle class="cls-1" cx="11.29" cy="21.7" r="1.39"/>
      <circle class="cls-1" cx="45.57" cy="26.89" r=".74"/>
      <circle class="cls-1" cx="15.09" cy="40.88" r=".74"/>
    </g>
  </g>
</svg>