<?xml version="1.0" encoding="UTF-8"?>
<svg id="Layer_2" data-name="Layer 2" xmlns="http://www.w3.org/2000/svg" viewBox="0 0 58.8 58.86">
  <defs>
    <style>
      .cls-1 {
        fill: #f4a376;
      }

      .cls-2 {
        fill: #f9968f;
      }

      .cls-3 {
        fill: #000201;
      }

      .cls-4 {
        fill: #e89176;
      }

      .cls-5 {
        fill: #fdc6a2;
      }

      .cls-6, .cls-7, .cls-8, .cls-9 {
        fill: #fff;
      }

      .cls-10, .cls-11 {
        fill: #ff9976;
      }

      .cls-12, .cls-13 {
        fill: #303030;
      }

      .cls-14 {
        fill: #84c7ce;
      }

      .cls-15 {
        fill: #dcfaff;
      }

      .cls-16 {
        fill: #c3e9ed;
      }

      .cls-17 {
        fill: #e25959;
      }

      .cls-18 {
        fill: #40aaf2;
      }

      .cls-19 {
        fill: #5e5e5e;
      }

      .cls-13 {
        opacity: .29;
      }

      .cls-13, .cls-20, .cls-7, .cls-8, .cls-9, .cls-21, .cls-11 {
        isolation: isolate;
      }

      .cls-20 {
        opacity: .21;
      }

      .cls-20, .cls-21 {
        fill: #7fccf7;
      }

      .cls-7 {
        opacity: .35;
      }

      .cls-8 {
        opacity: .55;
      }

      .cls-9 {
        opacity: .6;
      }

      .cls-21 {
        opacity: .57;
      }

      .cls-11 {
        opacity: .25;
      }
    </style>
  </defs>
  <g id="Layer_1-2" data-name="Layer 1">
    <g>
      <path d="M29.41,58.86C13.17,58.85,0,45.68,0,29.43-.02,13.19,13.13,.02,29.37,0s29.42,13.13,29.43,29.37c0,.02,0,.04,0,.06,0,16.24-13.16,29.4-29.39,29.43ZM29.41,1.52C14.01,1.53,1.54,14.02,1.54,29.42s12.5,27.87,27.89,27.87c15.4,0,27.87-12.5,27.87-27.89,0-1.97-.21-3.94-.63-5.87C53.86,10.71,42.53,1.57,29.41,1.52Z"/>
      <path class="cls-18" d="M5.88,36.98H52.92c-4.15,12.99-18.05,20.15-31.03,16-7.61-2.43-13.57-8.39-16-16Z"/>
      <path class="cls-20" d="M53.54,24.2H5.26C8.15,10.87,21.3,2.4,34.63,5.29c9.47,2.05,16.86,9.44,18.91,18.91h0Z"/>
      <path class="cls-21" d="M54.1,29.51c0,2.01-.41,4-1.18,5.85H5.88c-1.33-3.14-1.55-6.63-.62-9.91H53.54c.37,1.32,.56,2.68,.57,4.06Z"/>
      <circle class="cls-6" cx="40.19" cy="13.34" r=".48"/>
      <circle class="cls-6" cx="10.47" cy="28.28" r=".48"/>
      <circle class="cls-6" cx="22.1" cy="48.25" r=".48"/>
      <circle class="cls-6" cx="49.85" cy="26.29" r=".84"/>
      <circle class="cls-6" cx="15.06" cy="42.26" r=".84"/>
      <circle class="cls-8" cx="27" cy="47.63" r=".18"/>
      <path class="cls-5" d="M18.23,31.91h1.21c1.6,.04,2.87,1.36,2.84,2.95h0c-.02,1.59-1.33,2.86-2.92,2.84h-.01s-1.21,0-1.21,0c-1.6-.03-2.87-1.35-2.84-2.95h0c.03-1.6,1.34-2.87,2.94-2.84h0s0,0,0,0h0Z"/>
      <path class="cls-3" d="M19.4,37.97h-1.27c-.68-.01-1.35-.25-1.89-.66-.12-.09-.14-.26-.05-.38,.09-.12,.26-.14,.38-.05,.45,.35,1,.54,1.56,.55h1.25c1.45,0,2.63-1.18,2.63-2.63,0-1.43-1.15-2.6-2.58-2.63h-1.21c-.7-.03-1.38,.24-1.88,.74-.5,.48-.79,1.15-.8,1.84,0,.36,.06,.71,.2,1.04,.06,.14,0,.3-.15,.35s-.3,0-.35-.15h0c-.66-1.61,.11-3.46,1.72-4.13,.38-.16,.79-.24,1.2-.24h.05s1.21,0,1.21,0c1.75,.03,3.14,1.48,3.11,3.22-.03,1.72-1.43,3.1-3.15,3.11h0Z"/>
      <path class="cls-4" d="M18.58,33.42h.64c.83,.02,1.49,.71,1.47,1.54h0c-.02,.83-.71,1.49-1.53,1.47h-.64c-.83-.02-1.49-.7-1.47-1.53h0c.02-.83,.7-1.49,1.53-1.48Z"/>
      <path class="cls-6" d="M16.53,33.85c.09-.26,.28-.48,.53-.61,.21-.08,.13-.43-.09-.35-.34,.14-.61,.42-.76,.76-.09,.21,.22,.39,.31,.18h0Z"/>
      <ellipse class="cls-6" cx="16.11" cy="34.48" rx=".29" ry=".23" transform="translate(-20.36 45.38) rotate(-81.6)"/>
      <path class="cls-5" d="M39.31,31.91h1.21c1.6,.03,2.88,1.35,2.86,2.95h0s0,0,0,0h0c-.03,1.6-1.35,2.87-2.94,2.84h-1.21c-1.6-.04-2.87-1.36-2.84-2.95h0c.03-1.6,1.35-2.87,2.94-2.84h-.01Z"/>
      <path class="cls-3" d="M40.48,37.99h-1.26c-1.75-.03-3.14-1.47-3.11-3.22,.03-1.72,1.42-3.1,3.14-3.11,.02,0,.04,0,.06,0h1.21c1.75,.03,3.15,1.47,3.13,3.23v.02c-.05,1.72-1.45,3.09-3.17,3.09Zm-.04-.54h.04c1.43,0,2.6-1.15,2.63-2.58v-.02c.02-1.45-1.14-2.64-2.59-2.67h-1.14s-.04,0-.06,0h-.04c-1.45,0-2.63,1.18-2.63,2.63,0,1.43,1.15,2.6,2.58,2.63h1.21Z"/>
      <path class="cls-4" d="M39.61,33.42h.61c.83,.02,1.49,.71,1.47,1.54h0c-.02,.83-.71,1.49-1.53,1.47h-.61c-.83-.02-1.49-.71-1.47-1.54h0c.02-.83,.71-1.49,1.53-1.47Z"/>
      <path class="cls-5" d="M36.71,18.28l.35,.33c2.03,2.02,3.16,4.77,3.15,7.63v11.11c.06,5.95-4.71,10.82-10.66,10.89-5.95,.06-10.82-4.71-10.89-10.66v-11.34c0-3.03,1.27-5.92,3.51-7.96,3.58-3.28,10.95-3.24,14.53,0Z"/>
      <path class="cls-11" d="M40.22,26.33v11.12c.02,5.94-4.78,10.78-10.72,10.81h-.04V15.92c2.64-.08,5.22,.78,7.28,2.43,.13,.11,.24,.22,.35,.34,2.02,2.03,3.15,4.78,3.13,7.64Z"/>
      <circle class="cls-8" cx="25.15" cy="46.99" r=".13"/>
      <ellipse class="cls-6" cx="20.3" cy="39.59" rx=".53" ry=".3" transform="translate(-23.67 46.4) rotate(-71.66)"/>
      <circle class="cls-8" cx="21.27" cy="39.89" r=".17"/>
      <path class="cls-8" d="M20.74,40.06c.07,0,.13,.06,.13,.13s-.06,.13-.13,.13c-.07,0-.13-.06-.13-.13h0c0-.07,.06-.13,.13-.13Z"/>
      <circle class="cls-8" cx="20.92" cy="38.97" r=".18"/>
      <path class="cls-10" d="M40.23,26.12v11.11c.02,5.95-4.79,10.79-10.74,10.81h-.79c5.6-.43,10.49-5.11,10.49-10.81v-11.11c0-2.86-1.63-5.6-3.64-7.62-.11-.12-.23-.23-.36-.33-1.84-1.52-4.14-2.37-6.53-2.43,2.9-.26,5.78,.61,8.06,2.43,.12,.1,.24,.22,.35,.33,2.02,2.02,3.16,4.77,3.15,7.62Z"/>
      <path class="cls-6" d="M29.94,48.15h-.61c-5.79,.04-10.56-4.55-10.74-10.34v-11.1c-.09-3.02,1.05-5.94,3.16-8.09,.12-.12,.22-.22,.35-.33,2.23-1.78,5.04-2.65,7.89-2.43-2.44,.02-4.79,.88-6.67,2.43-.12,.11-.23,.22-.35,.33-2.03,2.02-3.18,4.76-3.18,7.62v11.12c-.02,5.72,4.44,10.46,10.15,10.79Z"/>
      <path class="cls-3" d="M21.13,44.58c-.09,0-.17-.04-.23-.11-1.61-1.94-2.52-4.37-2.56-6.89v-6.17c0-.16,.13-.29,.29-.3,.16,0,.29,.13,.3,.29h0v6.17c.04,2.38,.9,4.68,2.42,6.51,.1,.12,.09,.31-.04,.41-.05,.04-.12,.07-.19,.07Z"/>
      <path class="cls-3" d="M29.42,48.43c-2.73,0-5.37-1.01-7.4-2.84-.12-.11-.13-.29-.02-.41,.11-.12,.29-.13,.41-.02,0,0,0,0,0,0,1.92,1.73,4.42,2.69,7.01,2.69h0c5.79,0,10.48-4.7,10.48-10.49v-11.11c0-2.78-1.1-5.45-3.07-7.42l-.35-.33c-3.54-3.17-10.69-3.17-14.16,0-2.18,1.98-3.41,4.79-3.41,7.74,0,.16-.13,.29-.29,.29h0c-.16,0-.29-.13-.29-.29h0c0-3.11,1.3-6.08,3.6-8.18,3.66-3.35,11.2-3.35,14.95,0l.36,.34c2.08,2.08,3.25,4.9,3.25,7.84v11.11c0,6.11-4.96,11.07-11.07,11.08h0Z"/>
      <path class="cls-3" d="M18.63,29.38c-.16,0-.29-.13-.29-.29h0v-1.21c0-.16,.13-.29,.3-.29,.16,0,.29,.13,.29,.29v1.21c0,.16-.13,.29-.29,.29h0Z"/>
      <path class="cls-6" d="M19.81,34.02h0c.15,0,.26,.12,.26,.27v2.33c0,.15-.12,.27-.26,.27h0c-.15,0-.26-.12-.26-.27v-2.33c0-.15,.12-.27,.26-.27Z"/>
      <path class="cls-10" d="M39.03,27.92h0c.15,0,.26,.12,.26,.27v2.33c0,.15-.12,.27-.26,.27h0c-.15,0-.26-.12-.26-.27v-2.33c0-.15,.12-.27,.26-.27h0Z"/>
      <path class="cls-3" d="M31.96,30.63h0c.28,0,.5,.23,.5,.5v1.26c0,.28-.22,.5-.5,.5h0c-.28,0-.5-.23-.5-.5v-1.26c0-.28,.22-.5,.5-.5Z"/>
      <circle class="cls-6" cx="31.45" cy="31.55" r=".32"/>
      <path class="cls-19" d="M27.16,28.48l-4.12-.24c-.61-.04-1.08-.53-1.09-1.14h0c0-.59,.46-1.09,1.05-1.14l4.11-.4c.64-.06,1.21,.41,1.27,1.05h0s0,.06,0,.08v.64c0,.64-.53,1.15-1.17,1.15h-.05Z"/>
      <path class="cls-12" d="M27.16,28.48l-4.12-.24c-.61-.04-1.08-.53-1.09-1.14h0c0-.61-.17,.39,.43,.33l5.55,.34c.67-.06,.44-1.78,.45-1.1v.64c.01,.64-.5,1.17-1.14,1.18h0s-.05,0-.08,0Z"/>
      <path class="cls-3" d="M27.22,28.69s-.04,0-.06,0l-4.13-.24c-.71-.05-1.27-.63-1.29-1.34,0-.7,.53-1.28,1.23-1.35l.7-.07c.11-.02,.21,.06,.22,.17,0,0,0,.01,0,.02,.01,.11-.07,.21-.18,.23,0,0,0,0,0,0l-.7,.07c-.48,.04-.86,.45-.86,.94,.01,.5,.4,.9,.9,.93l4.18,.24c.53,0,.94-.44,.94-.97v-.65s0-.04,0-.06c-.06-.52-.52-.91-1.04-.87l-1.63,.16c-.11,.01-.21-.07-.22-.18,0,0,0,0,0,0-.01-.11,.07-.21,.19-.23l1.63-.16c.75-.07,1.42,.48,1.49,1.24,0,.03,0,.07,0,.1v.64c.01,.75-.59,1.37-1.34,1.38h-.02Z"/>
      <circle class="cls-12" cx="26.27" cy="27.6" r=".31"/>
      <circle class="cls-12" cx="25.46" cy="27.25" r=".16"/>
      <circle class="cls-12" cx="27.37" cy="27.64" r=".39"/>
      <path class="cls-19" d="M31.15,28.53l4.13-.25c.6-.03,1.08-.53,1.09-1.13h0c.01-.61-.44-1.13-1.05-1.19l-4.12-.39c-.64-.06-1.21,.42-1.26,1.06,0,.03,0,.05,0,.08v.64c-.02,.64,.49,1.17,1.13,1.19,.03,0,.06,0,.09,0Z"/>
      <path class="cls-12" d="M31.15,28.53l4.13-.25c.6-.03,1.08-.53,1.09-1.13h0c0-.61,.17,.39-.44,.33l-5.55,.34c-.67-.07-.44-1.78-.45-1.1v.64c-.01,.64,.5,1.17,1.14,1.18h0s.05,0,.07,0Z"/>
      <path class="cls-3" d="M31.07,28.74c-.75-.01-1.35-.63-1.34-1.39v-.64s0-.07,0-.1c.07-.75,.73-1.31,1.49-1.24l1.63,.16c.11,.01,.2,.11,.19,.22,0,0,0,0,0,0,0,.11-.1,.19-.21,.19,0,0-.01,0-.02,0l-1.63-.16c-.53-.05-.99,.34-1.04,.87v.07s0,.64,0,.64c-.01,.53,.41,.96,.93,.97,0,0,0,0,0,0h.06s4.12-.25,4.12-.25c.5-.03,.89-.44,.9-.93,0-.5-.37-.93-.86-.98l-.7-.07c-.11-.01-.2-.11-.19-.22h0c0-.11,.09-.19,.19-.19,.01,0,.02,0,.03,0l.7,.07c.71,.08,1.25,.68,1.24,1.4-.02,.71-.58,1.29-1.29,1.34l-4.22,.25Z"/>
      <circle class="cls-12" cx="32.04" cy="27.65" r=".31"/>
      <circle class="cls-12" cx="32.84" cy="27.3" r=".16"/>
      <circle class="cls-12" cx="30.93" cy="27.68" r=".39"/>
      <circle class="cls-2" cx="29.42" cy="34.7" r="1.57"/>
      <path class="cls-17" d="M30.99,34.7c.05,.87-.6,1.61-1.47,1.67-.87,.05-1.61-.6-1.67-1.47,0-.07,0-.13,0-.2,0-.87,.66,.98,1.52,.98s1.62-1.83,1.62-.98Z"/>
      <path class="cls-3" d="M29.42,36.63c-.98,0-1.78-.8-1.78-1.78,0-.98,.8-1.78,1.78-1.78,.98,0,1.78,.8,1.78,1.78,0,.98-.8,1.78-1.78,1.78Zm0-3.14c-.75,0-1.36,.61-1.36,1.37,0,.75,.61,1.36,1.37,1.36,.75,0,1.36-.61,1.36-1.36,0-.75-.61-1.36-1.37-1.36Z"/>
      <path class="cls-19" d="M18.41,31.89h0c-.44,0-.8-.35-.81-.79h0s.79-6.2,.79-6.2c0-.44-.43-.66,0-.66h0c.45,0,.81,.36,.81,.81h0v6.07c-.01,.43-.36,.77-.79,.78Z"/>
      <path class="cls-12" d="M18.58,26.71h0c-.34,0-.22-.2-.22-.54l.27-4.65c0-.34-.39-.7-.05-.7h0c.33,0,.61,.27,.61,.61v4.66c.01,.33-.25,.61-.59,.62h0s-.01,0-.02,0Z"/>
      <path class="cls-3" d="M18.4,32.16c-.58,0-1.06-.47-1.06-1.06l.76-6.65h0c-.1-.06-.17-.17-.17-.29,0-.2,.16-.36,.36-.36,.12,0,.23,.07,.29,.17,.06-.02,.12-.03,.18-.05,.19-.1,.42-.1,.61,0,.12,.1,.18,.25,.17,.4l-.09,6.8c-.01,.57-.47,1.04-1.05,1.05,0,0,0,0-.01,0Zm.22-7.66l-.76,6.62c.01,.29,.25,.51,.54,.51h0c.29,0,.52-.24,.53-.53l.08-6.71s-.06,.02-.09,.03c-.1,.03-.2,.06-.3,.08h0Z"/>
      <path class="cls-19" d="M40.22,31.98h0c.42,0,.76-.34,.76-.76h0l-.75-5.69c0-.42,.41-.76,0-.76h0c-.42,0-.76,.34-.76,.76v5.69c0,.41,.33,.75,.75,.76Z"/>
      <path class="cls-3" d="M40.22,32.23h0c-.55-.01-.99-.46-.99-1.01v-5.69c0-.56,.45-1.01,1.01-1.01,.14-.01,.28,.05,.37,.16,.08,.16,.07,.35-.03,.5-.05,.11-.09,.23-.1,.35l.74,5.66c.02,.56-.43,1.02-.98,1.04,0,0-.01,0-.02,0Zm-.12-7.18c-.22,.06-.37,.26-.37,.48v5.69c0,.28,.22,.51,.5,.51s.51-.22,.51-.5c0,0,0,0,0-.01l-.74-5.66c0-.18,.04-.35,.11-.52h0Z"/>
      <path class="cls-19" d="M39.56,12.93c.76,0-.99-1.14-1.7-1.43-2.22-.89-4.74-.64-6.74,.67l1.1-1.87c-.29-.55-.83-.92-1.44-1.01-.61-.09-1.24-.02-1.82,.21-1.91,.68-3.4,2.19-4.06,4.11l-1.21-.25c-1.06-.09-2.12,0-3.15,.27-1.15,.27-2.19,.86-3.03,1.69-.58,.69-.95,1.53-1.06,2.43-.08,.53-.04,1.21,.45,1.44,.26,.09,.54,.11,.81,.08,.08,0,.15,.01,.22,.04,.21,.12,.14,.44,.05,.66-.4,1-.56,2.08-.48,3.15,0,.31,.08,.61,.24,.87,.4,.45,1.02,.62,1.6,.45,1.51-.32,2.67-1.55,2.88-3.09l.91-.11c.46,.17,.97,.16,1.43-.03,.65-.39,1.14-.99,1.41-1.7l1.11-2.14c.36,1.1,.94,2.12,1.7,3,.48,.63,1.16,1.07,1.93,1.27,.61,.11,1.23-.1,1.66-.55l.81-.05c.57,1.14,1.55,2.03,2.74,2.49,.09,.03,.17,.07,.25,.13,.08,.09,.14,.21,.17,.33,.59,1.77,1.72,3.31,3.25,4.4,.46,.4,1.07,.59,1.68,.51,.5-.17,.91-.55,1.1-1.04,.66-1.41,.25-3.08-.3-4.54-.31-1.12-1.06-2.06-2.07-2.61l.07-.07c.45,.14,.91,.2,1.38,.18,.46-.02,.9-.23,1.21-.56,.32-.43,.46-.97,.38-1.5-.08-.89-.47-1.72-1.1-2.36-1.18-.99-2.67-1.55-4.21-1.56-1.18-.16-2.37-.08-3.51,.25,0,0,2.86-2.13,5.37-2.14Z"/>
      <path class="cls-12" d="M42.06,23.28c.56,1.46,.97,3.13,.3,4.54-.19,.49-.59,.88-1.1,1.04-.61,.08-1.22-.11-1.68-.52-1.53-1.09-2.67-2.64-3.25-4.43-.03-.12-.09-.23-.17-.33-.08-.05-.16-.1-.25-.13-1.21-.45-2.2-1.33-2.79-2.47l-.8,.05c.07-.07,.14-.14,.21-.2,.21-.19,.46-.33,.73-.42,.68-.18,1.37,.25,2.07,.28,.57,.01,1.11-.25,1.44-.72,.32-.47,.36-1.08,.1-1.58-.33-.61-1.04-.89-1.5-1.4-.52-.6-.68-1.44-.4-2.19,.91-.15,1.83-.16,2.75-.05,1.55,.02,3.05,.57,4.25,1.56,.63,.63,1.02,1.47,1.09,2.36,.08,.53-.06,1.07-.38,1.5-.32,.34-.75,.54-1.21,.56-.47,.02-.93-.04-1.38-.18l-.07,.07c1,.57,1.73,1.52,2.04,2.63Z"/>
      <path class="cls-13" d="M32.34,21.11c-.42,.45-1.05,.66-1.66,.55-.77-.2-1.45-.64-1.93-1.27-.33-.38-.63-.78-.89-1.21,.4-1,1.06-1.87,1.9-2.54,.54-.41,1.14-.75,1.66-1.21,1.18-1.04,1.79-2.59,1.64-4.15,1.58-.46,3.28-.38,4.81,.23,.7,.29,2.46,1.43,1.7,1.43-2.51,0-5.34,2.14-5.34,2.14,.25-.08,.51-.15,.77-.2-.26,.74-.1,1.56,.41,2.15,.46,.51,1.17,.79,1.5,1.4,.26,.51,.22,1.11-.1,1.58-.33,.46-.87,.73-1.44,.72-.7,0-1.4-.45-2.07-.28-.27,.08-.52,.23-.73,.42-.08,.06-.15,.13-.21,.2"/>
      <circle class="cls-3" cx="23.9" cy="13.41" r=".32"/>
      <circle class="cls-3" cx="41.28" cy="15.83" r=".32"/>
      <circle class="cls-3" cx="36.1" cy="13.81" r=".32"/>
      <circle class="cls-3" cx="42.11" cy="23.43" r=".32"/>
      <circle class="cls-12" cx="35.17" cy="20.48" r=".75"/>
      <circle class="cls-12" cx="35.22" cy="16.57" r=".65"/>
      <circle class="cls-12" cx="34.01" cy="17.16" r=".33"/>
      <circle class="cls-12" cx="30.89" cy="20.98" r=".61"/>
      <path class="cls-3" d="M40.32,15.69s-.07,0-.1-.02c-.81-.29-1.65-.46-2.51-.52-1.14-.16-2.3-.08-3.41,.24-.16,.05-.33-.05-.38-.21s.05-.33,.21-.38c0,0,0,0,0,0,1.18-.34,2.42-.43,3.64-.26,.9,.06,1.8,.25,2.65,.55,.16,.06,.24,.23,.18,.39-.04,.12-.16,.2-.29,.2h0Z"/>
      <path class="cls-3" d="M41.68,22.78c-.13,0-.24-.08-.29-.2-.26-.72-.79-1.32-1.49-1.65-.15-.07-.21-.25-.14-.41,.07-.13,.22-.2,.36-.16,.41,.13,.84,.18,1.28,.17,.38-.02,.74-.19,1-.47,.26-.36,.37-.81,.3-1.26-.07-.75-.37-1.46-.87-2.03-.11-.13-.1-.32,.03-.43s.32-.1,.43,.03c.58,.66,.94,1.49,1.01,2.36,.08,.61-.07,1.22-.44,1.71-.37,.41-.89,.66-1.44,.69-.07,0-.15,0-.22,0,.33,.35,.59,.77,.75,1.23,.06,.16-.02,.33-.18,.39-.03,.01-.07,.02-.1,.02Z"/>
      <path class="cls-3" d="M40.98,29.25c-.59,0-1.17-.21-1.61-.6-1.57-1.13-2.74-2.73-3.33-4.56-.02-.08-.05-.16-.11-.22,0,0-.06-.02-.11-.04-1.27-.47-2.32-1.4-2.95-2.61-.08-.15-.02-.33,.13-.41,.15-.08,.33-.02,.41,.13,.55,1.07,1.48,1.9,2.6,2.32,.12,.04,.23,.1,.33,.17,.14,.14,.24,.31,.28,.5,.56,1.71,1.66,3.2,3.12,4.25,.4,.36,.93,.53,1.47,.46,.39-.15,.71-.46,.86-.86,.41-1.04,.42-2.19,.06-3.24-.06-.16,.03-.33,.18-.39,.16-.06,.33,.03,.39,.18,0,0,0,0,0,0,.42,1.19,.39,2.49-.06,3.66-.23,.58-.7,1.02-1.29,1.22-.12,.02-.24,.02-.37,.02Z"/>
      <path class="cls-3" d="M24.92,13.93s-.07,0-.1-.02c-.16-.05-.24-.23-.19-.39,.68-2,2.25-3.59,4.24-4.29,.62-.24,1.3-.32,1.96-.23,.36,.06,.69,.2,.99,.4,.51,.37,.65,1.08,.33,1.62-.09,.14-.27,.19-.42,.11-.14-.09-.19-.27-.11-.42,0,0,0,0,0,0,.16-.27,.1-.62-.16-.81-.22-.15-.47-.25-.73-.3-.56-.07-1.13,0-1.66,.2-1.83,.64-3.26,2.08-3.88,3.92-.04,.12-.16,.21-.29,.21Z"/>
      <path class="cls-3" d="M37.17,13.71c-.17,0-.3-.13-.3-.3,0-.14,.09-.26,.22-.29,.64-.17,1.29-.31,1.95-.39-.32-.42-.77-.73-1.28-.9-2.14-.86-4.56-.62-6.48,.63-.14,.09-.33,.05-.42-.09-.09-.14-.05-.32,.09-.42,2.09-1.36,4.71-1.62,7.02-.69,.8,.26,1.46,.83,1.85,1.57,.08,.15,.02,.33-.13,.41-.03,.02-.07,.03-.11,.03-.79,.08-1.57,.23-2.34,.43-.03,0-.05,.01-.08,.01Z"/>
      <path class="cls-6" d="M17.32,16.93s-.08,0-.12-.03c-.15-.07-.22-.25-.16-.4,.91-1.66,2.6-2.73,4.49-2.84,.17-.02,.32,.1,.34,.26,.02,.17-.1,.32-.26,.34-1.67,.09-3.18,1.02-4.01,2.48-.05,.11-.16,.18-.28,.18Z"/>
      <circle class="cls-6" cx="22.68" cy="13.84" r=".34"/>
      <path class="cls-3" d="M16.84,16.72c-.17,0-.3-.14-.3-.3,0-.04,0-.08,.02-.12,.18-.43,.42-.82,.73-1.16,.88-.87,1.98-1.49,3.19-1.78,.76-.23,1.55-.33,2.34-.32,.17,0,.3,.14,.3,.31,0,.16-.14,.3-.3,.3-.05,0-.1,0-.15,0-.69,0-1.37,.1-2.04,.3-1.1,.26-2.1,.82-2.91,1.61-.26,.29-.46,.62-.61,.97-.05,.11-.16,.19-.28,.19Z"/>
      <path class="cls-6" d="M18.11,23.97c-.14,0-.26-.09-.29-.23-.28-1.11-.19-2.29,.25-3.35,.06-.15,.24-.23,.4-.16,.15,.06,.23,.24,.16,.4-.39,.94-.47,1.98-.22,2.97,.04,.16-.06,.33-.22,.37-.02,0-.05,0-.07,0Z"/>
      <path class="cls-3" d="M18.96,24.87c-.53,0-1.04-.23-1.39-.62-.21-.32-.32-.69-.32-1.07-.08-1.11,.09-2.23,.5-3.27,.05-.09,.07-.2,.06-.3-.32,.05-.65,.03-.96-.08-.57-.26-.79-.91-.66-1.78,.02-.16,.18-.28,.34-.25,0,0,0,0,0,0,.17,.03,.28,.18,.25,.35-.07,.45-.04,.97,.28,1.12,.21,.06,.43,.08,.65,.05,.13,0,.26,.01,.38,.07,.17,.09,.47,.36,.21,1.04-.38,.96-.54,2-.46,3.03,0,.26,.07,.51,.2,.73,.33,.33,.81,.45,1.26,.32,1.38-.31,2.42-1.45,2.61-2.86,.02-.17,.17-.28,.34-.26,.17,.02,.28,.17,.26,.34,0,0,0,0,0,0-.22,1.65-1.44,2.99-3.06,3.37-.16,.05-.33,.07-.5,.07Z"/>
      <path class="cls-3" d="M31.03,22.04c-.13,0-.26-.01-.38-.03-.84-.21-1.58-.7-2.12-1.38-.64-.73-1.15-1.56-1.51-2.46l-.79,1.52c-.29,.76-.82,1.4-1.52,1.81-.53,.24-1.14,.26-1.68,.06-.16-.06-.24-.23-.18-.39,.06-.16,.23-.24,.39-.18,.39,.14,.82,.13,1.2-.03,.57-.35,1.01-.89,1.24-1.52l1.12-2.17c.06-.11,.17-.17,.29-.16,.12,.01,.23,.09,.26,.21,.34,1.08,.9,2.07,1.64,2.93,.44,.58,1.07,.99,1.78,1.17,.5,.09,1.01-.09,1.36-.46,.11-.12,.3-.13,.43-.02,.12,.11,.13,.3,.02,.43,0,0,0,0,0,0-.4,.43-.96,.68-1.55,.68Z"/>
      <circle class="cls-9" cx="17.23" cy="18.5" r=".25"/>
      <circle class="cls-6" cx="19.85" cy="14.98" r=".36"/>
      <circle class="cls-9" cx="19.35" cy="15.8" r=".21"/>
      <circle class="cls-9" cx="20.91" cy="15.15" r=".25"/>
      <circle class="cls-7" cx="20.14" cy="15.72" r=".18"/>
      <circle class="cls-9" cx="18.74" cy="21.48" r=".18"/>
      <circle class="cls-7" cx="18.9" cy="22.36" r=".18"/>
      <circle class="cls-9" cx="19.06" cy="23.85" r=".25"/>
      <path class="cls-3" d="M19.89,21.19h-.08c-.1-.04-.15-.16-.1-.25h0s1.07-2.53,1.07-2.53c.04-.1,.16-.14,.25-.1h0c.1,.04,.15,.16,.1,.26l-1.07,2.52c-.04,.07-.11,.11-.18,.1Z"/>
      <path class="cls-3" d="M21.32,19.97s-.05,0-.08,0c-.1-.04-.15-.15-.11-.25h0l.57-1.35c.04-.1,.15-.15,.26-.11,.1,.04,.15,.15,.11,.26,0,0,0,0,0,0l-.58,1.35c-.03,.06-.1,.1-.17,.1Z"/>
      <g>
        <circle class="cls-6" cx="43.96" cy="48.03" r=".59"/>
        <g>
          <circle class="cls-5" cx="31.44" cy="46.49" r="4.88"/>
          <circle class="cls-1" cx="31.44" cy="46.49" r="3.07"/>
          <path d="M31.44,51.64c-2.84,0-5.14-2.3-5.14-5.15,0-2.84,2.3-5.14,5.15-5.14,2.84,0,5.14,2.3,5.14,5.14,0,2.84-2.31,5.14-5.15,5.14Zm0-9.75c-2.55,0-4.61,2.06-4.61,4.61s2.06,4.61,4.61,4.61,4.61-2.06,4.61-4.61c0-2.55-2.07-4.61-4.61-4.61Z"/>
          <g>
            <circle class="cls-6" cx="36.35" cy="39.5" r=".34"/>
            <path class="cls-6" d="M45.48,48.5l-6.94,4.17c-1.33,.8-3.06,.37-3.86-.96l-8.91-14.81-.65-1.08c-.8-1.33-.37-3.06,.96-3.86l6.94-4.17c1.33-.8,3.06-.37,3.86,.96l9.56,15.89c.8,1.33,.37,3.06-.96,3.86Z"/>
            <path class="cls-15" d="M36.94,28.84l9.44,15.7h0s-11.76,7.09-11.76,7.09h0s-9.44-15.71-9.44-15.71l11.76-7.07Z"/>
            <path class="cls-14" d="M34.94,51.37c-.15,0-.29-.08-.36-.21l-9.01-14.99c-.12-.2-.06-.46,.14-.58,0,0,0,0,0,0l11.02-6.63c.2-.12,.46-.05,.58,.15,.12,.2,.05,.46-.14,.58l-10.66,6.41,8.8,14.63c.12,.2,.06,.46-.14,.58-.07,.04-.14,.06-.22,.06Z"/>
            <path d="M25.25,36.26c-.13,0-.24-.11-.24-.24,0-.09,.04-.16,.12-.21l2.63-1.58c.12-.07,.26-.03,.33,.09,.07,.11,.03,.26-.08,.33l-2.63,1.58s-.08,.03-.12,.03Z"/>
            <path d="M28.85,34.09c-.13,0-.24-.11-.24-.24,0-.09,.04-.16,.12-.21l8.15-4.9c.12-.07,.26-.03,.33,.09,.07,.11,.03,.26-.08,.33l-8.15,4.9s-.08,.03-.12,.03Z"/>
            <path d="M34.69,51.97c-.13,0-.24-.11-.24-.24,0-.09,.04-.16,.12-.21l2.09-1.25c.12-.07,.26-.03,.33,.09,.07,.11,.03,.26-.08,.33l-2.09,1.25s-.08,.03-.12,.03Z"/>
            <path d="M38.08,49.93c-.13,0-.24-.11-.24-.24,0-.09,.04-.16,.12-.21l8.37-5.03c.11-.07,.26-.03,.33,.08,.07,.11,.03,.26-.08,.33h0l-8.37,5.03s-.08,.03-.12,.03Z"/>
            <path class="cls-16" d="M39.62,50.95c-.19,0-.35-.16-.35-.35,0-.12,.06-.24,.17-.3l3.45-2.08c.17-.1,.38-.04,.48,.12,.1,.17,.04,.38-.12,.48l-3.45,2.08c-.05,.03-.12,.05-.18,.05Z"/>
            <path class="cls-6" d="M44.56,42.95c-.15,0-.29-.08-.36-.21l-2.18-3.63c-.12-.2-.06-.46,.14-.58,.2-.12,.46-.06,.58,.14,0,0,0,0,0,0l2.18,3.63c.12,.2,.06,.46-.14,.58-.07,.04-.14,.06-.22,.06Z"/>
            <path class="cls-6" d="M40.9,36.87c-.15,0-.29-.08-.36-.21l-2.18-3.63c-.12-.2-.06-.46,.14-.58,.2-.12,.46-.06,.58,.14,0,0,0,0,0,0l2.18,3.63c.12,.2,.06,.46-.14,.58-.07,.04-.14,.06-.22,.06Z"/>
            <path d="M37.1,53.4c-1.1,0-2.13-.57-2.69-1.52l-9.56-15.89c-.89-1.48-.41-3.41,1.07-4.31,0,0,0,0,0,0l6.94-4.17c1.49-.89,3.41-.41,4.3,1.07l9.56,15.89c.89,1.48,.41,3.41-1.07,4.3,0,0,0,0,0,0l-6.94,4.17c-.49,.29-1.04,.45-1.61,.45Zm-2.62-25.69c-.45,0-.89,.12-1.27,.35l-6.94,4.17c-1.17,.71-1.55,2.23-.85,3.41l9.56,15.89c.71,1.17,2.23,1.55,3.41,.85l6.94-4.17h0c1.17-.71,1.55-2.23,.85-3.41,0,0,0,0,0,0l-9.56-15.89c-.45-.75-1.26-1.2-2.13-1.2Z"/>
            <path d="M30.5,31.69c-.05,0-.1,0-.15-.02-.16-.04-.29-.14-.38-.28-.08-.14-.11-.31-.07-.46,.04-.16,.14-.29,.28-.38,.29-.17,.66-.08,.84,.21h0c.17,.29,.08,.67-.21,.84-.09,.06-.2,.09-.31,.09h0Zm0-.94c-.18,0-.33,.15-.33,.33,0,.18,.15,.33,.33,.33s.33-.15,.33-.33c0-.06-.02-.12-.05-.17h0c-.06-.1-.17-.16-.28-.16Z"/>
            <path d="M39.52,50.62c-.14,0-.26-.12-.26-.26,0-.09,.05-.17,.12-.22l3.45-2.08c.12-.07,.28-.03,.35,.09s.03,.28-.09,.35l-3.45,2.08s-.09,.04-.13,.04Z"/>
          </g>
          <g>
            <rect class="cls-5" x="36.04" y="34.22" width="6.32" height="2.52" rx="1.26" ry="1.26" transform="translate(-12.98 26.98) rotate(-32.9)"/>
            <path d="M37.61,38.03c-.84,0-1.52-.68-1.52-1.52,0-.11,.01-.22,.03-.32,.08-.39,.32-.74,.66-.96l3.2-2.07c.7-.46,1.64-.25,2.1,.45s.25,1.64-.45,2.1h0l-3.2,2.07c-.24,.16-.53,.24-.82,.24Zm3.19-4.59c-.19,0-.38,.06-.54,.16l-3.2,2.07c-.46,.3-.6,.92-.3,1.38,.3,.46,.92,.6,1.38,.3,0,0,0,0,0,0l3.2-2.07c.46-.3,.6-.92,.3-1.38-.18-.28-.5-.46-.84-.46h0Z"/>
            <path class="cls-5" d="M38.28,37.57l3.2-2.07c.58-.38,1.36-.21,1.74,.37h0c.38,.58,.21,1.36-.37,1.74l-3.2,2.07c-.58,.38-1.36,.21-1.74-.37h0c-.38-.58-.21-1.36,.37-1.74h0Z"/>
            <path d="M38.97,40.14c-.84,0-1.52-.68-1.52-1.52,0-.52,.26-1,.69-1.28l3.2-2.07c.7-.46,1.64-.26,2.1,.45,.46,.7,.26,1.64-.45,2.1,0,0,0,0,0,0l-3.2,2.07c-.24,.16-.53,.24-.82,.24Zm3.19-4.58c-.19,0-.38,.06-.54,.16l-3.2,2.07c-.46,.3-.6,.92-.3,1.38s.92,.6,1.38,.3l3.2-2.07h0c.46-.3,.6-.92,.3-1.38-.18-.29-.5-.46-.84-.46h0Z"/>
            <rect class="cls-5" x="38.77" y="38.44" width="6.32" height="2.52" rx="1.26" ry="1.26" transform="translate(-14.84 29.15) rotate(-32.9)"/>
            <rect class="cls-5" x="40.14" y="40.56" width="6.32" height="2.52" rx="1.26" ry="1.26" transform="translate(-15.77 30.23) rotate(-32.9)"/>
            <path d="M40.34,42.25c-.84,0-1.52-.68-1.52-1.51,0-.52,.26-1,.69-1.28l3.2-2.07c.7-.46,1.64-.26,2.1,.45,.46,.7,.26,1.64-.45,2.1,0,0,0,0,0,0l-3.2,2.07c-.24,.16-.53,.24-.82,.24Zm3.19-4.58c-.19,0-.38,.06-.54,.16l-3.2,2.07c-.46,.3-.6,.92-.3,1.38s.92,.6,1.38,.3l3.2-2.07h0c.46-.3,.6-.92,.3-1.38-.19-.28-.5-.46-.84-.46h0Z"/>
            <path d="M41.71,44.37c-.11,0-.22-.01-.32-.03-.82-.18-1.34-.98-1.17-1.8,.08-.39,.32-.74,.66-.96l3.2-2.07c.7-.46,1.64-.25,2.1,.45s.25,1.64-.45,2.1l-3.2,2.07c-.24,.16-.53,.24-.82,.24Zm3.19-4.59c-.19,0-.38,.06-.54,.16l-3.2,2.07c-.46,.3-.6,.92-.3,1.38s.92,.6,1.38,.3h0l3.2-2.07h0c.46-.3,.6-.92,.3-1.38-.14-.22-.37-.38-.63-.43-.07-.01-.14-.02-.21-.02Z"/>
          </g>
          <path class="cls-5" d="M26.91,40.99l.83-2.07c.42-1.05,1.61-1.56,2.66-1.14h0c1.05,.42,1.56,1.61,1.14,2.66l-.83,2.07c-.42,1.05-1.61,1.56-2.66,1.14h0c-1.05-.42-1.56-1.61-1.14-2.66h0Z"/>
          <path d="M28.81,44.07c-1.28,0-2.31-1.04-2.31-2.32,0-.29,.06-.59,.17-.86l.83-2.07c.48-1.19,1.82-1.76,3.01-1.29s1.76,1.82,1.29,3.01l-.83,2.07c-.35,.88-1.21,1.45-2.15,1.45Zm.84-6.16c-.73,0-1.38,.44-1.66,1.12l-.83,2.07c-.37,.91,.08,1.95,.99,2.32s1.95-.08,2.32-.99h0l.83-2.07h0c.37-.91-.08-1.95-.99-2.32-.21-.08-.43-.13-.66-.13Z"/>
        </g>
      </g>
    </g>
  </g>
</svg>