<?xml version="1.0" encoding="UTF-8"?>
<svg id="Layer_2" data-name="Layer 2" xmlns="http://www.w3.org/2000/svg" viewBox="0 0 58.8 58.86">
  <defs>
    <style>
      .cls-1, .cls-2, .cls-3 {
        fill: #f9d606;
      }

      .cls-4 {
        fill: #fff;
      }

      .cls-5 {
        fill: #140c10;
      }

      .cls-6 {
        fill: #21363d;
      }

      .cls-7 {
        fill: #415e6d;
      }

      .cls-8, .cls-9 {
        fill: #7fccf7;
      }

      .cls-10 {
        fill: #2a444f;
      }

      .cls-11 {
        fill: #5f7c87;
      }

      .cls-12 {
        fill: #23ef06;
      }

      .cls-2 {
        opacity: .2;
      }

      .cls-2, .cls-9, .cls-3 {
        isolation: isolate;
      }

      .cls-9, .cls-13 {
        opacity: .21;
      }

      .cls-3 {
        opacity: .52;
      }
    </style>
  </defs>
  <g id="Layer_1-2" data-name="Layer 1">
    <g>
      <g>
        <g>
          <g>
            <path class="cls-1" d="M5.88,36.98H52.92c-4.15,12.99-18.05,20.15-31.03,16-7.61-2.43-13.57-8.39-16-16Z"/>
            <path class="cls-2" d="M53.54,24.2H5.26C8.15,10.87,21.3,2.4,34.63,5.29c9.47,2.05,16.86,9.44,18.91,18.91h0Z"/>
            <path class="cls-3" d="M54.1,29.69c0,2.01-.41,4-1.18,5.85H5.88c-1.33-3.14-1.55-6.63-.62-9.91H53.54c.37,1.32,.56,2.68,.56,4.06Z"/>
          </g>
          <path d="M29.41,58.86C13.17,58.84,0,45.68,0,29.43-.02,13.19,13.13,.02,29.37,0s29.42,13.13,29.43,29.37c0,.02,0,.04,0,.06,0,16.24-13.16,29.4-29.39,29.43ZM29.41,1.52C14.01,1.53,1.53,14.02,1.53,29.42s12.49,27.88,27.89,27.88,27.88-12.49,27.88-27.89c0-1.98-.21-3.95-.63-5.88C53.86,10.71,42.53,1.57,29.41,1.52Z"/>
          <circle class="cls-4" cx="29.4" cy="29.44" r=".48"/>
          <circle class="cls-4" cx="29.4" cy="29.44" r=".48"/>
          <circle class="cls-4" cx="29.4" cy="29.44" r=".84"/>
          <circle class="cls-4" cx="29.4" cy="29.44" r=".84"/>
          <circle class="cls-4" cx="8.29" cy="31.95" r=".84"/>
          <circle class="cls-4" cx="14" cy="14.97" r="1.06"/>
          <circle class="cls-4" cx="49.58" cy="39.22" r=".6"/>
        </g>
        <circle class="cls-4" cx="31.64" cy="50.15" r=".49"/>
        <circle class="cls-4" cx="37.11" cy="47.07" r=".61"/>
      </g>
      <circle class="cls-4" cx="36.7" cy="9.63" r=".25"/>
      <g>
        <path class="cls-6" d="M26.98,27.2v19.12c0,.53-.43,.95-.95,.95h-8.39c-.53,0-.95-.43-.95-.95h0V14.49c0-.53,.43-.95,.95-.95h8.39c.53,0,.95,.43,.95,.95h0v9.26"/>
        <path d="M26.03,47.71h-8.39c-.77,0-1.39-.62-1.39-1.39V14.49c0-.77,.62-1.39,1.39-1.39h8.39c.77,0,1.39,.62,1.39,1.39v9.26c0,.24-.19,.44-.43,.44-.24,0-.44-.19-.44-.43h0V14.49c0-.28-.23-.51-.51-.51h-8.39c-.28,0-.51,.23-.51,.51v31.84c0,.28,.23,.51,.51,.51h8.39c.28,0,.51-.23,.51-.51V27.2c0-.24,.19-.44,.43-.44,.24,0,.44,.19,.44,.43h0v19.13c0,.77-.62,1.39-1.39,1.39Z"/>
        <path class="cls-10" d="M33.68,43.71H14.96c-.55,0-.99-.44-.99-.99h0V16.25c0-.55,.44-.99,.99-.99h18.72v28.44h0Z"/>
        <path class="cls-5" d="M33.68,44.08H14.96c-.75,0-1.36-.61-1.36-1.36V16.25c0-.75,.61-1.36,1.36-1.36h18.72c.21,0,.37,.17,.38,.38v28.44c0,.21-.17,.37-.38,.38ZM14.96,15.64c-.34,0-.61,.27-.61,.61v26.47c0,.34,.27,.61,.61,.61h18.35V15.64H14.96Z"/>
        <path class="cls-7" d="M33.68,41.72H14.96c-.55,0-.99-.44-.99-.99h0V14.26c0-.55,.44-.99,.99-.99h18.72v28.44h0Z"/>
        <path class="cls-5" d="M33.68,42.09H14.96c-.75,0-1.36-.61-1.36-1.36V14.26c0-.75,.61-1.36,1.36-1.36h18.72c.21,0,.37,.17,.38,.38v28.44c0,.21-.17,.37-.38,.38ZM14.96,13.65c-.34,0-.61,.27-.61,.61v26.47c0,.34,.27,.61,.61,.61h18.35V13.65H14.96Z"/>
        <path class="cls-11" d="M44.83,14.26v1.6c0-.54-.44-.99-.98-.99H25.12v-1.6h18.72c.54,0,.99,.44,.99,.98h0Z"/>
        <path class="cls-10" d="M25.12,15.26h18.72c.55,0,.99,.44,.99,.99h0v26.47c0,.55-.44,.99-.99,.99H25.12V15.26h0Z"/>
        <path class="cls-5" d="M43.85,44.08H25.12c-.21,0-.37-.17-.38-.38V15.26c0-.21,.17-.37,.38-.38h18.73c.75,0,1.36,.61,1.36,1.36v26.47c0,.75-.61,1.36-1.36,1.36Zm-18.35-.75h18.35c.34,0,.61-.27,.61-.61V16.25c0-.34-.27-.61-.61-.61H25.5v27.69Z"/>
        <path class="cls-7" d="M25.12,13.27h18.72c.55,0,.99,.44,.99,.99h0v26.47c0,.55-.44,.99-.99,.99H25.12V13.27h0Z"/>
        <path class="cls-5" d="M43.85,42.09H25.12c-.21,0-.37-.17-.38-.38V13.27c0-.21,.17-.37,.38-.38h18.73c.75,0,1.36,.61,1.36,1.36v26.47c0,.75-.61,1.36-1.36,1.36Zm-18.35-.75h18.35c.34,0,.61-.27,.61-.61V14.26c0-.34-.27-.61-.61-.61H25.5v27.69Z"/>
        <rect class="cls-7" x="16.69" y="11.6" width="10.29" height="33.74" rx=".95" ry=".95"/>
        <rect class="cls-10" x="16.69" y="37.04" width="10.29" height="8.3" rx=".95" ry=".95"/>
        <path d="M18.04,47.71c-2.33,0-4.22-1.89-4.22-4.22v-.97c0-1.58,1.28-2.86,2.86-2.86,.24,0,.44,.2,.44,.44s-.2,.44-.44,.44c-1.1,0-1.99,.89-1.99,1.99v.97c0,1.85,1.51,3.35,3.36,3.34,1.85,0,3.34-1.5,3.34-3.34v-.73c0-.24,.19-.44,.43-.44,.24,0,.44,.19,.44,.43h0v.73c0,2.33-1.89,4.22-4.22,4.22Z"/>
        <rect class="cls-9" x="29.27" y="16.6" width="13.17" height="5.08"/>
        <rect class="cls-7" x="29.27" y="20.28" width="13.17" height="1.39"/>
        <path d="M42.44,22.05h-13.17c-.2,0-.37-.16-.37-.37h0v-5.08c0-.2,.16-.37,.37-.37h13.17c.2,0,.37,.16,.37,.37h0v5.08c0,.2-.16,.37-.37,.37h0Zm-12.8-.74h12.43v-4.34h-12.43v4.34Z"/>
        <g class="cls-13">
          <g>
            <rect class="cls-8" x="29.27" y="23.55" width="3.69" height="1.72"/>
            <rect class="cls-8" x="34.01" y="23.55" width="3.69" height="1.72"/>
            <rect class="cls-8" x="38.75" y="23.55" width="3.69" height="1.72"/>
          </g>
          <g>
            <rect class="cls-8" x="29.27" y="26.24" width="3.69" height="1.72"/>
            <rect class="cls-8" x="34.01" y="26.24" width="3.69" height="1.72"/>
            <rect class="cls-8" x="38.75" y="26.24" width="3.69" height="1.72"/>
          </g>
          <g>
            <rect class="cls-8" x="29.27" y="28.94" width="3.69" height="1.72"/>
            <rect class="cls-8" x="34.01" y="28.94" width="3.69" height="1.72"/>
            <rect class="cls-8" x="38.75" y="28.94" width="3.69" height="1.72"/>
          </g>
        </g>
        <rect class="cls-12" x="30.56" y="18.42" width="1.98" height="1.43"/>
        <rect class="cls-12" x="33.17" y="18.42" width=".99" height="1.43"/>
        <rect class="cls-12" x="34.86" y="18.42" width=".99" height="1.43"/>
        <rect class="cls-12" x="36.65" y="18.42" width=".49" height="1.43"/>
        <path class="cls-11" d="M18.04,30.16c-.2,0-.37-.16-.37-.37h0v-1.65c0-.2,.17-.37,.37-.37,.2,0,.37,.16,.37,.37v1.65c0,.2-.16,.37-.37,.37h0Z"/>
        <path class="cls-11" d="M18.04,26.61c-.2,0-.37-.16-.37-.37h0v-8.08c0-.2,.17-.37,.37-.37,.2,0,.37,.16,.37,.37v8.08c0,.2-.16,.37-.37,.37h0Z"/>
        <g>
          <path d="M24.69,15.65c-.08,0-.14-.06-.16-.13l-.22-1.5c-.01-.09,.05-.16,.13-.18,.09-.01,.16,.05,.18,.13l.22,1.5c.01,.09-.05,.16-.13,.18h-.02Z"/>
          <path d="M23.94,15.3c-.08,0-.14-.06-.16-.13l-.22-1.5c-.01-.09,.05-.17,.13-.18,.09-.01,.16,.05,.18,.13l.22,1.5c.01,.09-.05,.17-.13,.18h-.02Z"/>
        </g>
        <g>
          <path d="M42.92,39.92c-.08,0-.14-.06-.16-.13l-.22-1.5c-.01-.09,.05-.17,.13-.18,.08-.01,.16,.05,.18,.13l.22,1.5c.01,.09-.05,.17-.13,.18h-.02Z"/>
          <path d="M42.17,39.57c-.08,0-.14-.06-.16-.13l-.22-1.5c-.01-.09,.05-.16,.13-.18,.08,0,.16,.05,.18,.13l.22,1.5c.01,.09-.05,.16-.13,.18h-.02Z"/>
        </g>
        <g>
          <g>
            <path d="M32.95,25.5h-3.69c-.13,0-.23-.1-.23-.23h0v-1.72c0-.13,.1-.23,.23-.23h3.69c.13,0,.23,.1,.23,.23h0v1.72c0,.13-.1,.23-.23,.23h0Zm-3.46-.46h3.23v-1.26h-3.23v1.26Z"/>
            <path d="M37.7,25.5h-3.69c-.13,0-.23-.1-.23-.23h0v-1.72c0-.13,.1-.23,.23-.23h3.69c.13,0,.23,.1,.23,.23h0v1.72c0,.13-.1,.23-.23,.23h0Zm-3.46-.46h3.23v-1.26h-3.23v1.26Z"/>
            <path d="M42.44,25.5h-3.69c-.13,0-.23-.1-.23-.23h0v-1.72c0-.13,.1-.23,.23-.23h3.69c.13,0,.23,.1,.23,.23h0v1.72c0,.13-.1,.23-.23,.23h0Zm-3.46-.46h3.23v-1.26h-3.23v1.26Z"/>
          </g>
          <g>
            <path d="M32.95,28.19h-3.69c-.13,0-.23-.1-.23-.23h0v-1.72c0-.13,.1-.23,.23-.23h3.69c.13,0,.23,.1,.23,.23h0v1.72c0,.13-.1,.23-.23,.23h0Zm-3.46-.46h3.23v-1.26h-3.23v1.26Z"/>
            <path d="M37.7,28.19h-3.69c-.13,0-.23-.1-.23-.23h0v-1.72c0-.13,.1-.23,.23-.23h3.69c.13,0,.23,.1,.23,.23h0v1.72c0,.13-.1,.23-.23,.23h0Zm-3.46-.46h3.23v-1.26h-3.23v1.26Z"/>
            <path d="M42.44,28.19h-3.69c-.13,0-.23-.1-.23-.23h0v-1.72c0-.13,.1-.23,.23-.23h3.69c.13,0,.23,.1,.23,.23h0v1.72c0,.13-.1,.23-.23,.23h0Zm-3.46-.46h3.23v-1.26h-3.23v1.26Z"/>
          </g>
          <g>
            <path d="M32.95,30.89h-3.69c-.13,0-.23-.1-.23-.23h0v-1.72c0-.13,.1-.23,.23-.23h3.69c.13,0,.23,.1,.23,.23h0v1.72c0,.13-.1,.23-.23,.23h0Zm-3.46-.46h3.23v-1.26h-3.23v1.26Z"/>
            <path d="M37.7,30.89h-3.69c-.13,0-.23-.1-.23-.23h0v-1.72c0-.13,.1-.23,.23-.23h3.69c.13,0,.23,.1,.23,.23h0v1.72c0,.13-.1,.23-.23,.23h0Zm-3.46-.46h3.23v-1.26h-3.23v1.26Z"/>
            <path d="M42.44,30.89h-3.69c-.13,0-.23-.1-.23-.23h0v-1.72c0-.13,.1-.23,.23-.23h3.69c.13,0,.23,.1,.23,.23h0v1.72c0,.13-.1,.23-.23,.23h0Zm-3.46-.46h3.23v-1.26h-3.23v1.26Z"/>
          </g>
        </g>
        <path class="cls-10" d="M27.52,38.03c-.27,0-.49-.22-.49-.49h0V17.44c0-.27,.22-.49,.49-.49,.27,0,.49,.22,.49,.49v20.1c0,.27-.22,.49-.49,.49h0Z"/>
        <path d="M26.03,45.78h-8.39c-.77,0-1.39-.62-1.39-1.39V12.55c0-.77,.62-1.39,1.39-1.39h8.39c.77,0,1.39,.62,1.39,1.39v9.26c0,.24-.19,.44-.43,.44-.24,0-.44-.19-.44-.43h0V12.55c0-.28-.23-.51-.51-.51h-8.39c-.28,0-.51,.23-.51,.51v31.84c0,.28,.23,.51,.51,.51h8.39c.28,0,.51-.23,.51-.51V25.27c0-.24,.19-.44,.43-.44,.24,0,.44,.19,.44,.43h0v19.13c0,.77-.62,1.39-1.39,1.39Z"/>
        <circle cx="26.98" cy="23.55" r=".4"/>
        <path class="cls-5" d="M24.38,37.42h-5.36c-.21,0-.38-.17-.38-.38s.17-.38,.38-.38h5.36c.21,0,.38,.17,.38,.38s-.17,.38-.38,.38Z"/>
      </g>
    </g>
  </g>
</svg>