<?xml version="1.0" encoding="UTF-8"?>
<svg id="Layer_2" data-name="Layer 2" xmlns="http://www.w3.org/2000/svg" viewBox="0 0 58.8 58.84">
  <defs>
    <style>
      .cls-1 {
        fill: #f9b56d;
      }

      .cls-2 {
        fill: #f28d33;
      }

      .cls-3 {
        fill: #fff;
      }

      .cls-4 {
        fill: #fcd9b5;
      }

      .cls-5 {
        fill: #84c7ce;
      }

      .cls-6 {
        fill: #dcfaff;
      }

      .cls-7 {
        fill: #c3e9ed;
      }
    </style>
  </defs>
  <g id="Layer_1-2" data-name="Layer 1">
    <g>
      <path d="M29.41,58.84C13.17,58.82,0,45.65,0,29.41,0,13.17,13.16,0,29.4,0c13.84,0,25.81,9.65,28.74,23.18,.44,2.05,.66,4.14,.66,6.23,0,16.24-13.16,29.4-29.39,29.43ZM29.41,1.5C13.99,1.48,1.48,13.97,1.46,29.39c-.02,15.42,12.47,27.93,27.89,27.95,12.15,.01,22.91-7.84,26.62-19.41,.89-2.75,1.34-5.63,1.33-8.52,.01-15.4-12.46-27.9-27.86-27.91-.01,0-.02,0-.03,0Z"/>
      <g>
        <path class="cls-2" d="M5.88,36.96H52.92c-4.15,12.99-18.05,20.15-31.03,16-7.61-2.43-13.57-8.39-16-16Z"/>
        <path class="cls-4" d="M53.54,24.18H5.26C8.15,10.85,21.3,2.38,34.63,5.27c9.47,2.05,16.86,9.44,18.91,18.91Z"/>
        <path class="cls-1" d="M54.1,29.67c0,2.01-.41,4-1.18,5.85H5.88c-1.33-3.14-1.55-6.63-.62-9.91H53.54c.37,1.32,.56,2.68,.57,4.06Z"/>
      </g>
      <circle class="cls-3" cx="40.19" cy="13.31" r=".48"/>
      <circle class="cls-3" cx="10.47" cy="28.25" r=".48"/>
      <circle class="cls-3" cx="30.62" cy="28.73" r=".48"/>
      <circle class="cls-3" cx="22.1" cy="48.23" r=".48"/>
      <circle class="cls-3" cx="15.9" cy="14.44" r=".48"/>
      <circle class="cls-3" cx="41.03" cy="40.51" r=".84"/>
      <circle class="cls-3" cx="49.85" cy="26.27" r=".84"/>
      <circle class="cls-3" cx="15.06" cy="42.24" r=".84"/>
      <path class="cls-3" d="M35.16,46.4h-11.52c-2.21,0-4-1.79-4-4h0V16.02c0-2.21,1.79-4,4-4h11.52c2.21,0,4,1.79,4,4h0v26.38c0,2.21-1.79,4-4,4h0Z"/>
      <path class="cls-6" d="M39.16,16.17v26.08H19.64V16.17h19.53Z"/>
      <path class="cls-5" d="M20.52,42.26c-.33,0-.6-.27-.6-.6V16.76c0-.33,.27-.6,.6-.6h18.3c.33,0,.6,.28,.6,.61,0,.33-.27,.6-.6,.6H21.12v24.29c0,.33-.27,.6-.6,.6Z"/>
      <path d="M24.01,16.69h-4.37c-.19,0-.35-.15-.35-.34,0-.19,.15-.35,.34-.35,0,0,0,0,0,0h4.37c.19,0,.35,.15,.35,.34,0,.19-.15,.35-.34,.35,0,0,0,0,0,0Z"/>
      <path d="M23.1,42.77h-3.46c-.19,0-.35-.15-.35-.34,0-.19,.15-.35,.34-.35,0,0,0,0,0,0h3.46c.19,0,.35,.15,.35,.34,0,.19-.15,.35-.34,.35,0,0,0,0,0,0Z"/>
      <path class="cls-7" d="M32.21,45.16h-5.73c-.28,0-.5-.22-.5-.5s.22-.5,.5-.5h5.73c.28,0,.5,.22,.5,.5s-.22,.5-.5,.5Z"/>
      <path class="cls-3" d="M38.42,39.05c-.33,0-.6-.27-.6-.6v-6.02c0-.33,.27-.61,.6-.61,.33,0,.61,.27,.61,.6,0,0,0,0,0,0v6.02c0,.33-.27,.6-.6,.6Z"/>
      <path class="cls-3" d="M38.42,28.94c-.33,0-.6-.27-.6-.6v-6.02c0-.33,.27-.61,.6-.61,.33,0,.61,.27,.61,.6,0,0,0,0,0,0v6.02c0,.33-.27,.6-.6,.6Z"/>
      <path d="M35.16,46.87h-11.52c-2.46,0-4.46-2-4.46-4.46V16.02c0-2.46,2-4.46,4.46-4.46h11.52c2.46,0,4.46,2,4.46,4.46v26.38c0,2.46-2,4.46-4.46,4.46ZM23.64,12.49c-1.95,0-3.53,1.58-3.53,3.53v26.38c0,1.95,1.58,3.53,3.53,3.53h11.52c1.95,0,3.53-1.58,3.53-3.53V16.02c0-1.95-1.58-3.53-3.53-3.53h-11.52Z"/>
      <path d="M32.27,44.66h-5.73c-.2,0-.37-.17-.37-.37,0-.2,.16-.36,.37-.37h5.73c.2,0,.37,.16,.37,.37,0,.2-.16,.37-.37,.37,0,0,0,0,0,0Z"/>
      <g>
        <path d="M30.95,15.31c-.48,0-.87-.39-.87-.87,0-.48,.39-.87,.87-.87,.48,0,.87,.39,.87,.87h0c0,.48-.39,.87-.87,.87Zm0-1.34c-.26,0-.47,.21-.47,.47,0,.26,.21,.47,.47,.47,.26,0,.47-.21,.47-.47,0-.26-.21-.47-.47-.47Z"/>
        <path d="M29.42,14.64h-3.04c-.11,0-.2-.09-.2-.2s.09-.2,.2-.2h3.04c.11,0,.2,.09,.2,.2s-.09,.2-.2,.2Z"/>
      </g>
      <g>
        <polygon class="cls-3" points="29 42.25 27 42.25 29.29 16.55 31.28 16.55 29 42.25"/>
        <polygon class="cls-3" points="31.31 42.27 30.07 42.25 32.36 16.55 33.6 16.57 31.31 42.27"/>
      </g>
      <path d="M39.16,16.69h-13.53c-.19,0-.35-.15-.35-.34,0-.19,.15-.35,.34-.35,0,0,0,0,0,0h13.53c.19,0,.35,.15,.35,.34,0,.19-.15,.35-.34,.35,0,0,0,0,0,0Z"/>
      <path d="M39.16,42.77h-13.9c-.19,0-.35-.15-.35-.34,0-.19,.15-.35,.34-.35,0,0,0,0,0,0h13.9c.19,0,.35,.15,.35,.34,0,.19-.15,.35-.34,.35,0,0,0,0,0,0Z"/>
      <g>
        <path d="M19.18,22.22c-.27,0-.5-.22-.5-.5v-2.49c0-.27,.22-.49,.5-.49,.27,0,.49,.22,.49,.49v2.49c0,.27-.22,.5-.5,.5Z"/>
        <path d="M19.18,25.82c-.27,0-.5-.22-.5-.5v-1.53c0-.27,.22-.49,.5-.49,.27,0,.49,.22,.49,.49v1.53c0,.27-.22,.5-.5,.5Z"/>
      </g>
    </g>
  </g>
</svg>