<?xml version="1.0" encoding="UTF-8"?>
<svg id="Layer_2" data-name="Layer 2" xmlns="http://www.w3.org/2000/svg" viewBox="0 0 58.87 58.87">
  <defs>
    <style>
      .cls-1 {
        fill: #fff;
      }

      .cls-2 {
        fill: #8eaeba;
      }

      .cls-3 {
        fill: #b0cacc;
      }

      .cls-4 {
        fill: #dae4e5;
      }

      .cls-5 {
        fill: #99b9ba;
      }

      .cls-6 {
        fill: #74ce3a;
      }

      .cls-7 {
        opacity: .21;
      }

      .cls-7, .cls-8 {
        fill: #9cef65;
        isolation: isolate;
      }

      .cls-8 {
        opacity: .55;
      }
    </style>
  </defs>
  <g id="Layer_1-2" data-name="Layer 1">
    <g>
      <path class="cls-8" d="M54.17,29.76c0,1.9-.41,3.77-1.18,5.5H5.95c-1.33-2.92-1.55-6.23-.62-9.31H53.61c.37,1.24,.56,2.52,.57,3.81Z"/>
      <path class="cls-6" d="M5.95,36.99H52.99c-4.15,12.99-18.05,20.15-31.03,16-7.61-2.43-13.57-8.39-16-16Z"/>
      <g>
        <rect class="cls-3" x="39.6" y="33.04" width="2.97" height="5.81" transform="translate(-3.41 4.32) rotate(-5.78)"/>
        <path d="M39.89,39.24c-.06,0-.12-.02-.17-.06-.05-.04-.09-.11-.1-.18l-.58-5.78c-.01-.14,.09-.27,.24-.29,0,0,0,0,0,0l2.51-.25c.39-.04,.74,.24,.78,.63,0,0,0,0,0,0l.49,4.89c.04,.39-.24,.74-.63,.78h0s-2.51,.25-2.51,.25h-.03Zm-.29-5.8l.53,5.25,2.25-.23s.09-.03,.12-.07c.03-.04,.04-.08,.04-.13l-.49-4.89c0-.1-.09-.17-.19-.16,0,0,0,0,0,0l-2.25,.23Z"/>
      </g>
      <path d="M29.48,58.87C13.22,58.9,.02,45.74,0,29.48-.02,13.22,13.14,.02,29.39,0c16.26-.02,29.45,13.14,29.48,29.39,0,3.06-.47,6.11-1.41,9.03-3.86,12.2-15.19,20.49-27.99,20.45ZM29.48,1.54C14.08,1.54,1.6,14.03,1.6,29.43c0,15.4,12.49,27.88,27.89,27.88,15.4,0,27.88-12.49,27.88-27.89,0-1.98-.21-3.95-.63-5.88C53.93,10.72,42.6,1.58,29.48,1.54Z"/>
      <path d="M17.52,32.43c-2.44,0-4.42-1.97-4.42-4.41,0-2.44,1.97-4.42,4.41-4.42,0,0,0,0,.01,0,.19,0,.34,.15,.34,.34,0,.19-.15,.33-.34,.34-2.07,0-3.74,1.67-3.74,3.74,0,2.07,1.67,3.74,3.74,3.74h0c.19,0,.34,.15,.34,.34s-.15,.34-.34,.34Z"/>
      <path class="cls-7" d="M53.61,24.21H5.33C8.22,10.88,21.37,2.42,34.7,5.3c9.47,2.05,16.86,9.44,18.91,18.91Z"/>
      <g>
        <rect class="cls-3" x="24.59" y="23.51" width="2.31" height="2.31"/>
        <rect class="cls-3" x="30.82" y="23.51" width="2.31" height="2.31"/>
      </g>
      <circle class="cls-1" cx="37.18" cy="15.56" r=".42"/>
      <circle class="cls-1" cx="15.9" cy="16.55" r=".42"/>
      <circle class="cls-1" cx="37.91" cy="39.38" r=".74"/>
      <circle class="cls-1" cx="11.36" cy="21.72" r="1.39"/>
      <circle class="cls-1" cx="45.64" cy="26.91" r=".74"/>
      <circle class="cls-1" cx="15.16" cy="40.9" r=".74"/>
      <g>
        <path d="M26.9,26.12h-2.31c-.16,0-.3-.13-.3-.3v-2.31c0-.16,.13-.3,.3-.3h2.31c.16,0,.3,.13,.3,.3v2.31c0,.16-.13,.3-.3,.3Zm-2.02-.59h1.72v-1.72h-1.72v1.72Z"/>
        <path d="M33.14,26.12h-2.31c-.16,0-.3-.13-.3-.3v-2.31c0-.16,.13-.3,.3-.3h2.31c.16,0,.3,.13,.3,.3v2.31c0,.16-.13,.3-.3,.3Zm-2.02-.59h1.72v-1.72h-1.72v1.72Z"/>
      </g>
      <path class="cls-4" d="M38.33,44.99H19.39c-1.48,.08-2.73-1.06-2.81-2.54,0-.08,0-.16,0-.24l1.41-14.15c.19-1.39,1.41-2.41,2.81-2.35h16.12c1.4-.06,2.62,.96,2.81,2.35l1.41,14.15c.05,1.48-1.1,2.72-2.58,2.77-.08,0-.16,0-.24,0Z"/>
      <path class="cls-1" d="M34.35,19.23c-2.01-.05-8.13,0-10.14,.09-.31-.02-.58,.22-.61,.53l-.19,1.65c-.12,1.09-1.09,1.88-2.18,1.78l-4.93,.06c-1.09,.12-2.07-.65-2.21-1.73l.18-3.06c.05-.9,.66-1.67,1.52-1.93,3.34-1.23,10.92-1.89,14.51-1.93,4.2-.06,8.39,.5,12.43,1.65,.87,.23,1.5,.99,1.56,1.89l-.18,3.06c-.12,1.09-1.08,1.88-2.17,1.78l-4.94,.06c-1.09,.12-2.07-.65-2.21-1.73l.19-1.65c-.04-.31-.31-.54-.63-.52Z"/>
      <path class="cls-4" d="M34.35,20.2c-2.01-.05-8.13,0-10.14,.09-.31-.02-.58,.22-.61,.53l-.19,1.65c-.12,1.09-1.09,1.88-2.18,1.78l-4.93,.06c-1.09,.12-2.07-.65-2.21-1.73l.18-3.06c.05-.9,.66-1.67,1.52-1.93,4.67-1.55,9.6-2.2,14.51-1.93,4.47,.18,8.9,.88,13.21,2.08,.95,.32,.77,.64,.78,1.47l-.18,3.06c-.12,1.09-1.08,1.88-2.17,1.78l-4.94,.06c-1.09,.12-2.07-.65-2.21-1.73l.19-1.65c-.04-.31-.31-.54-.63-.52Z"/>
      <path class="cls-3" d="M16.61,24.32c-.64,0-1.25-.29-1.67-.78-.45-.51-.69-1.17-.69-1.85,0-.22,.17-.4,.39-.4,0,0,0,0,0,0h0c.22,0,.4,.18,.4,.39,0,.49,.17,.96,.49,1.33,.27,.32,.67,.5,1.08,.51l4.39-.05c.94-.1,1.62-.94,1.54-1.88l-.02-1.44c-.03-.55,.37-1.02,.92-1.08,.88-.06,1.23-.08,2.47-.1h0c.22,0,.4,.18,.4,.4,0,.22-.18,.4-.39,.4-1.21,.02-1.55,.04-2.32,.09-.14,0-.27,.11-.27,.25,0,.01,0,.02,0,.03l.02,1.44c.09,1.38-.94,2.58-2.33,2.69l-4.39,.05h-.02Z"/>
      <g>
        <path d="M41.89,18.16s-.06,0-.09-.02c-2.18-.82-4.45-1.36-6.77-1.6-.13-.02-.22-.13-.2-.26,0,0,0,0,0,0,.02-.13,.13-.21,.26-.2,2.36,.25,4.67,.8,6.89,1.63,.12,.05,.17,.19,.12,.3-.04,.09-.12,.14-.21,.14Z"/>
        <path d="M33.23,16.36h-.02c-.37-.03-.74-.06-1.1-.08-.13,0-.23-.12-.22-.24,0,0,0,0,0,0,0-.13,.12-.22,.24-.22,.36,.02,.73,.05,1.11,.08,.13,.01,.22,.12,.21,.25-.01,.12-.11,.21-.23,.21Z"/>
      </g>
      <circle class="cls-3" cx="29.07" cy="35.3" r="5.06"/>
      <circle class="cls-3" cx="28.86" cy="36.57" r="5.06"/>
      <circle class="cls-1" cx="28.86" cy="35.36" r="1.4"/>
      <path d="M28.86,36.92c-.9,0-1.63-.73-1.63-1.63s.73-1.63,1.63-1.63c.9,0,1.63,.73,1.63,1.63,0,.9-.73,1.63-1.63,1.63Zm0-2.79c-.64,0-1.17,.52-1.17,1.17,0,.64,.52,1.17,1.17,1.17,.64,0,1.17-.52,1.17-1.17h0c0-.64-.52-1.17-1.17-1.17Z"/>
      <g>
        <circle cx="28.86" cy="38.48" r=".34"/>
        <circle cx="28.86" cy="31.99" r=".34"/>
      </g>
      <circle cx="25.61" cy="35.36" r=".34"/>
      <circle cx="32.11" cy="35.36" r=".34"/>
      <circle cx="39.93" cy="30.6" r=".34"/>
      <circle cx="32.44" cy="31.65" r=".34"/>
      <g>
        <circle cx="26.56" cy="33.06" r=".34"/>
        <circle cx="31.16" cy="37.65" r=".34"/>
      </g>
      <g>
        <circle cx="31.16" cy="33" r=".34"/>
        <circle cx="26.56" cy="37.59" r=".34"/>
      </g>
      <path d="M28.86,40.74c-3.01,0-5.44-2.44-5.44-5.45,0-3.01,2.44-5.44,5.45-5.44,.88,0,1.75,.22,2.54,.63,.18,.1,.25,.33,.16,.51-.1,.18-.33,.25-.51,.16-2.29-1.2-5.11-.32-6.32,1.96-1.2,2.29-.32,5.11,1.96,6.32,2.29,1.2,5.11,.32,6.32-1.96,.72-1.37,.72-3.01-.01-4.37-.1-.18-.03-.41,.16-.51s.41-.03,.51,.16c1.41,2.66,.4,5.95-2.25,7.37-.79,.42-1.66,.64-2.55,.64Z"/>
      <rect class="cls-5" x="16.58" y="42.69" width="24.56" height=".5"/>
      <path d="M41.14,42.83h-5.55c-.13,0-.23-.1-.23-.23s.1-.23,.23-.23c0,0,0,0,0,0h5.55c.13,0,.23,.1,.23,.23s-.1,.23-.23,.23c0,0,0,0,0,0Z"/>
      <path d="M34.14,42.83H16.58c-.13,0-.23-.1-.23-.23s.1-.23,.23-.23c0,0,0,0,0,0h17.55c.13,0,.23,.1,.23,.23s-.1,.23-.23,.23c0,0,0,0,0,0Z"/>
      <rect class="cls-1" x="22" y="25.67" width="11.92" height="1"/>
      <path class="cls-1" d="M19.06,34.99s-.02,0-.04,0c-.21-.02-.36-.2-.34-.41,0,0,0,0,0,0l.49-5.06c.01-.2,.19-.35,.39-.34,0,0,.02,0,.02,0,.21,.02,.36,.2,.34,.41,0,0,0,0,0,0l-.49,5.06c-.02,.19-.18,.34-.37,.34Z"/>
      <circle class="cls-1" cx="18.89" cy="36.13" r=".52"/>
      <path d="M16.27,24.88c-1.41,0-2.56-1.14-2.57-2.55l-.04-3.16c-.02-1.18,.66-2.26,1.74-2.76,3.49-1.6,9.85-2.37,13.25-2.41,3.7-.04,10.63,.68,14,2.13,1.08,.47,1.79,1.54,1.8,2.72l.04,3.16c.02,1.42-1.12,2.59-2.54,2.61l-4.94,.06c-.68,0-1.34-.26-1.83-.73-.49-.48-.77-1.13-.77-1.82l-.02-1.4c0-.15-.12-.27-.26-.27-.72-.02-1.7-.04-2.75-.03h0c-.21,0-.38-.17-.38-.38,0-.21,.17-.38,.38-.38,1.05,0,2.05,0,2.78,.03,.55,.02,.99,.47,.99,1.02l.02,1.4c0,.48,.2,.94,.55,1.28,.34,.35,.8,.54,1.29,.52l4.94-.06c1-.01,1.81-.84,1.79-1.84l-.04-3.16c0-.88-.53-1.67-1.34-2.03-3.27-1.41-10.06-2.1-13.69-2.07-3.34,.04-9.56,.79-12.94,2.34-.8,.37-1.3,1.18-1.29,2.06l.04,3.16c0,.99,.82,1.8,1.81,1.8h.02l4.93-.06c1-.01,1.81-.83,1.8-1.84,0,0,0,0,0,0l-.02-1.4c0-.55,.42-1.01,.97-1.04h.11c.88-.06,1.27-.08,2.65-.1h0c.21,0,.38,.17,.38,.38,0,.21-.17,.38-.37,.38-1.36,.02-1.75,.04-2.62,.09h-.11c-.15,.02-.26,.14-.26,.28l.02,1.4c.01,1.42-1.13,2.59-2.55,2.61l-4.93,.06h-.03Z"/>
      <g>
        <path d="M37.37,29.73c-.08,0-.15-.06-.16-.14l-.22-1.53c-.01-.09,.05-.17,.13-.18,.09-.01,.17,.04,.18,.13,0,0,0,0,0,0l.22,1.53c.01,.09-.05,.17-.13,.18h-.02Z"/>
        <path d="M36.61,29.37c-.08,0-.15-.06-.16-.14l-.22-1.53c-.01-.09,.05-.17,.13-.18,.09-.01,.17,.05,.18,.13l.22,1.53c.01,.09-.05,.17-.13,.18h-.02Z"/>
      </g>
      <path class="cls-2" d="M40.27,39.41c-.26,0-.47-.2-.5-.46l-.34-3.89c-.02-.28,.18-.52,.46-.54,.28-.02,.52,.18,.54,.46l.34,3.89c.02,.28-.18,.52-.45,.54,0,0,0,0,0,0-.01,0-.03,0-.04,0Z"/>
      <path d="M38.33,45.37H19.39c-.93,0-1.82-.37-2.45-1.05-.54-.57-.81-1.35-.74-2.14l1.41-14.15c.22-1.58,1.59-2.75,3.19-2.7h16.12c1.6-.05,2.97,1.12,3.19,2.7l.09,.91c.02,.21-.13,.39-.34,.42-.2,.03-.39-.12-.41-.32,0,0,0-.01,0-.02l-.09-.92c-.18-1.19-1.23-2.06-2.43-2.01H20.8c-1.21-.05-2.25,.82-2.43,2.01l-1.41,14.15c-.05,.57,.15,1.13,.54,1.55,.49,.52,1.18,.81,1.89,.8h18.94c.71,0,1.4-.28,1.89-.8,.39-.42,.59-.98,.54-1.56l-1.02-10.23c-.02-.21,.13-.39,.34-.42,.2-.03,.38,.1,.41,.3,0,.01,0,.03,0,.04l1.02,10.23c.07,.79-.2,1.56-.74,2.14-.63,.68-1.52,1.06-2.45,1.05Z"/>
    </g>
  </g>
</svg>