<?xml version="1.0" encoding="UTF-8"?>
<svg id="Layer_2" data-name="Layer 2" xmlns="http://www.w3.org/2000/svg" viewBox="0 0 58.8 58.85">
  <defs>
    <style>
      .cls-1 {
        fill: #f4a376;
      }

      .cls-2 {
        fill: #fdc6a2;
      }

      .cls-3 {
        fill: #fff;
      }

      .cls-4 {
        fill: #84c7ce;
      }

      .cls-5 {
        fill: #dcfaff;
      }

      .cls-6 {
        fill: #c3e9ed;
      }

      .cls-7 {
        fill: #40aaf2;
      }

      .cls-8, .cls-9 {
        fill: #7fccf7;
      }

      .cls-9 {
        isolation: isolate;
        opacity: .21;
      }
    </style>
  </defs>
  <g id="Layer_1-2" data-name="Layer 1">
    <g>
      <path d="M29.41,58.85C13.17,58.83,0,45.66,0,29.42-.01,13.18,13.15,.01,29.38,0c16.24-.01,29.41,13.15,29.42,29.38,0,.01,0,.02,0,.04,0,16.24-13.16,29.4-29.39,29.43ZM29.41,1.51C14.01,1.52,1.53,14.01,1.53,29.41c0,15.4,12.49,27.88,27.89,27.88,15.4,0,27.88-12.49,27.88-27.89,0-1.98-.21-3.95-.63-5.88C53.86,10.7,42.53,1.56,29.41,1.51h0Z"/>
      <path class="cls-7" d="M6.66,36.76H53.69c-4.15,12.99-18.05,20.15-31.03,16-7.61-2.43-13.57-8.39-16-16Z"/>
      <path class="cls-9" d="M54.31,23.98H6.04C8.92,10.65,22.07,2.18,35.4,5.07c9.47,2.05,16.86,9.44,18.91,18.91Z"/>
      <path class="cls-8" d="M54.88,29.47c0,2.01-.41,4-1.18,5.85H6.66c-1.33-3.14-1.55-6.63-.62-9.91H54.31c.37,1.32,.56,2.68,.57,4.06Z"/>
      <circle class="cls-3" cx="40.97" cy="13.11" r=".48"/>
      <circle class="cls-3" cx="11.24" cy="28.06" r=".48"/>
      <circle class="cls-3" cx="22.87" cy="48.03" r=".48"/>
      <circle class="cls-3" cx="16.67" cy="14.24" r=".48"/>
      <circle class="cls-3" cx="41.81" cy="40.31" r=".84"/>
      <circle class="cls-3" cx="50.63" cy="26.07" r=".84"/>
      <circle class="cls-3" cx="15.84" cy="42.04" r=".84"/>
      <circle class="cls-2" cx="23.99" cy="38.13" r="6.94"/>
      <circle class="cls-1" cx="23.99" cy="38.13" r="4.37"/>
      <path d="M23.99,45.44c-4.04,0-7.32-3.28-7.32-7.32,0-4.04,3.28-7.32,7.32-7.32,4.04,0,7.32,3.28,7.32,7.32h0c0,4.04-3.28,7.32-7.32,7.32Zm0-13.88c-3.62,0-6.56,2.94-6.56,6.56s2.94,6.56,6.56,6.56c3.62,0,6.56-2.94,6.56-6.56h0c0-3.62-2.94-6.55-6.56-6.56Z"/>
      <circle class="cls-3" cx="30.97" cy="28.18" r=".48"/>
      <path class="cls-3" d="M43.97,40.98l-9.88,5.94c-1.89,1.14-4.35,.53-5.49-1.37,0,0,0,0,0,0L15.94,24.49l-.93-1.54c-1.14-1.89-.53-4.35,1.37-5.49h0s9.88-5.94,9.88-5.94c1.89-1.14,4.35-.53,5.49,1.37,0,0,0,0,0,0l13.6,22.61c1.14,1.89,.53,4.35-1.37,5.49Z"/>
      <path class="cls-5" d="M31.82,13.01l13.43,22.33v.02s-16.72,10.06-16.72,10.06v-.02S15.09,23.07,15.09,23.07L31.82,13.01Z"/>
      <path class="cls-4" d="M28.98,45.07c-.21,0-.41-.11-.52-.29L15.63,23.44c-.17-.29-.08-.66,.21-.83l15.68-9.43c.29-.17,.66-.08,.83,.21,.17,.29,.08,.66-.21,.83l-15.16,9.12,12.51,20.81c.17,.29,.08,.66-.21,.83-.09,.06-.2,.09-.31,.09h0Z"/>
      <path d="M15.18,23.56c-.19,0-.35-.15-.35-.35,0-.12,.06-.23,.17-.3l3.74-2.25c.16-.1,.38-.04,.47,.12,.1,.16,.04,.37-.12,.47l-3.74,2.25c-.05,.03-.12,.05-.18,.05Z"/>
      <path d="M28.62,45.92c-.19,0-.35-.15-.35-.35,0-.12,.06-.23,.17-.3l2.97-1.78c.16-.1,.38-.04,.47,.12,.1,.16,.04,.37-.12,.47l-2.97,1.78c-.05,.03-.12,.05-.18,.05Z"/>
      <path class="cls-6" d="M35.63,44.47c-.28,0-.5-.22-.5-.5,0-.18,.09-.34,.24-.43l4.91-2.95c.24-.14,.54-.07,.69,.17s.07,.54-.17,.69l-4.91,2.95c-.08,.05-.17,.07-.26,.07Z"/>
      <path class="cls-3" d="M42.66,33.09c-.21,0-.41-.11-.52-.29l-3.1-5.16c-.17-.29-.08-.66,.2-.83,.29-.17,.66-.08,.83,.2,0,0,0,0,0,0l3.1,5.16c.17,.29,.08,.66-.21,.83-.09,.06-.2,.09-.31,.09h0Z"/>
      <path class="cls-3" d="M37.45,24.43c-.21,0-.41-.11-.52-.29l-3.1-5.16c-.17-.29-.08-.66,.2-.83s.66-.08,.83,.2c0,0,0,0,0,0l3.1,5.16c.17,.29,.08,.66-.21,.83-.09,.06-.2,.09-.31,.09h0Z"/>
      <path d="M32.04,47.96c-1.57,0-3.02-.82-3.83-2.16L14.61,23.18c-1.27-2.11-.58-4.85,1.53-6.13l9.88-5.94c2.11-1.27,4.85-.58,6.13,1.52l13.59,22.61c1.27,2.11,.59,4.85-1.52,6.13h0l-9.88,5.94c-.69,.42-1.48,.64-2.29,.64Zm-3.73-36.54c-.64,0-1.27,.17-1.81,.5l-9.88,5.94c-1.67,1.01-2.21,3.17-1.21,4.85l13.6,22.61c1.01,1.67,3.17,2.21,4.85,1.21l9.88-5.94c1.67-1.01,2.21-3.17,1.21-4.85L31.34,13.13c-.64-1.06-1.79-1.71-3.03-1.71Z"/>
      <path d="M22.66,17.07c-.07,0-.14,0-.21-.03-.47-.12-.75-.59-.64-1.06,.12-.47,.59-.75,1.06-.64,.47,.12,.75,.59,.64,1.06-.06,.23-.2,.42-.4,.54-.13,.08-.29,.13-.45,.12Zm0-1.34c-.26,0-.47,.21-.47,.47,0,.21,.15,.4,.35,.45,.25,.06,.5-.09,.57-.34s-.09-.5-.34-.57c-.04,0-.08-.01-.11-.01Z"/>
      <path d="M35.49,43.99c-.2,0-.37-.16-.37-.37,0-.13,.07-.25,.18-.31l4.91-2.95c.17-.1,.4-.05,.5,.12s.05,.4-.12,.5l-4.91,2.95c-.06,.03-.12,.05-.19,.05Z"/>
      <g>
        <path class="cls-2" d="M31.79,22.42l4.55-2.94c.83-.54,1.94-.3,2.48,.53h0c.54,.83,.3,1.94-.53,2.48l-4.55,2.94c-.83,.54-1.94,.3-2.48-.53h0c-.54-.83-.3-1.94,.53-2.48Z"/>
        <path d="M32.76,26.08c-1.19,0-2.16-.96-2.16-2.15,0-.73,.37-1.42,.99-1.82l4.55-2.94c1-.65,2.34-.36,2.98,.64,.65,1,.36,2.33-.64,2.98h0l-4.55,2.94c-.35,.23-.75,.35-1.17,.35Zm4.54-6.52c-.27,0-.54,.08-.77,.23l-4.55,2.94c-.66,.43-.85,1.31-.42,1.97,.43,.66,1.31,.85,1.96,.42l4.55-2.94c.66-.43,.85-1.31,.42-1.97-.2-.32-.53-.54-.89-.62-.1-.02-.2-.03-.3-.03Z"/>
        <path class="cls-2" d="M33.73,25.43l4.55-2.94c.83-.54,1.94-.3,2.48,.53h0c.54,.83,.3,1.94-.53,2.48l-4.55,2.94c-.83,.54-1.94,.3-2.48-.53h0c-.54-.83-.3-1.94,.53-2.48Z"/>
        <path d="M34.71,29.09c-.15,0-.31-.02-.46-.05-1.17-.25-1.91-1.4-1.66-2.56,.12-.56,.46-1.05,.94-1.36l4.55-2.94c1-.65,2.34-.36,2.99,.64s.36,2.34-.64,2.99h0l-4.55,2.94c-.35,.23-.75,.35-1.17,.35Zm4.54-6.52c-.27,0-.54,.08-.77,.23l-4.55,2.94c-.66,.43-.85,1.31-.42,1.97,.2,.32,.53,.54,.9,.62,.37,.08,.75,0,1.07-.2l4.55-2.94c.66-.43,.85-1.31,.42-1.97-.26-.4-.71-.65-1.19-.65h0Z"/>
        <path class="cls-2" d="M35.67,28.43l4.55-2.94c.83-.54,1.94-.3,2.48,.53h0c.54,.83,.3,1.94-.53,2.48l-4.55,2.94c-.83,.54-1.94,.3-2.48-.53h0c-.54-.83-.3-1.94,.53-2.48Z"/>
        <path class="cls-2" d="M37.62,31.44l4.55-2.94c.83-.54,1.94-.3,2.48,.53h0c.54,.83,.3,1.94-.53,2.48h0l-4.55,2.94c-.83,.54-1.94,.3-2.48-.53h0c-.54-.83-.3-1.94,.53-2.48h0Z"/>
        <path d="M36.65,32.1c-.15,0-.31-.02-.46-.05-1.17-.25-1.91-1.4-1.66-2.56,.12-.56,.46-1.05,.94-1.36l4.55-2.94c1-.65,2.34-.36,2.99,.64s.36,2.34-.64,2.99h0l-4.55,2.94c-.35,.23-.75,.35-1.17,.35Zm4.54-6.52c-.27,0-.54,.08-.77,.23l-4.55,2.94c-.66,.43-.85,1.31-.43,1.97s1.31,.85,1.97,.43c0,0,0,0,0,0l4.55-2.94c.66-.43,.85-1.31,.42-1.97-.2-.32-.53-.54-.9-.62-.1-.02-.2-.03-.3-.03h0Z"/>
        <path d="M38.6,35.1c-.15,0-.31-.02-.46-.05-1.17-.25-1.91-1.4-1.66-2.56,.12-.56,.46-1.05,.94-1.36l4.55-2.94c1-.65,2.34-.36,2.98,.64,.65,1,.36,2.33-.64,2.98h0l-4.55,2.94c-.35,.23-.75,.35-1.17,.35Zm4.54-6.52c-.27,0-.54,.08-.77,.23l-4.55,2.94c-.66,.43-.85,1.31-.42,1.97,.43,.66,1.31,.85,1.96,.42l4.55-2.94c.66-.43,.85-1.31,.42-1.97-.2-.32-.53-.54-.89-.62-.1-.02-.2-.03-.3-.03h0Z"/>
      </g>
      <rect class="cls-2" x="16.35" y="26.99" width="9" height="5.83" rx="2.91" ry="2.91" transform="translate(-14.67 38.11) rotate(-68.13)"/>
      <path d="M20.25,34.67c-1.82,0-3.29-1.48-3.29-3.3,0-.42,.08-.83,.24-1.22l1.18-2.94c.68-1.69,2.6-2.51,4.28-1.83s2.51,2.6,1.83,4.28l-1.18,2.94c-.5,1.25-1.71,2.07-3.06,2.07Zm1.19-8.77c-1.04,0-1.97,.63-2.36,1.59l-1.18,2.94c-.52,1.3,.11,2.77,1.41,3.3,1.3,.52,2.77-.11,3.3-1.41l1.18-2.94c.52-1.3-.11-2.78-1.41-3.3-.3-.12-.62-.18-.94-.18Z"/>
      <g>
        <polygon class="cls-3" points="36.97 40.26 35.31 41.36 23.03 18.67 24.69 17.57 36.97 40.26"/>
        <polygon class="cls-3" points="38.91 38.99 37.87 39.66 25.59 16.97 26.63 16.3 38.91 38.99"/>
      </g>
      <path d="M33.44,43.02c-.19,0-.35-.15-.35-.35,0-.12,.06-.23,.17-.3l11.91-7.16c.16-.1,.38-.04,.47,.12,.1,.16,.04,.37-.12,.47l-11.91,7.16c-.05,.03-.12,.05-.18,.05Z"/>
      <path d="M20.31,20.48c-.19,0-.35-.15-.35-.35,0-.12,.06-.23,.17-.3l11.59-6.97c.16-.1,.38-.04,.47,.12,.1,.16,.04,.37-.12,.47l-11.59,6.97c-.05,.03-.12,.05-.18,.05Z"/>
    </g>
  </g>
</svg>