<?xml version="1.0" encoding="UTF-8"?>
<svg id="Layer_2" data-name="Layer 2" xmlns="http://www.w3.org/2000/svg" viewBox="0 0 58.8 58.86">
  <defs>
    <style>
      .cls-1 {
        fill: #f9b56d;
      }

      .cls-2 {
        fill: #f8e760;
      }

      .cls-3 {
        fill: #ede6e6;
      }

      .cls-4 {
        fill: #fff;
      }

      .cls-5 {
        fill: #fcd9b5;
      }

      .cls-6 {
        fill: #f21d1d;
      }

      .cls-7 {
        fill: #72def8;
      }

      .cls-8 {
        fill: #c90e0e;
      }

      .cls-9 {
        fill: #140c10;
      }

      .cls-10 {
        fill: #7b93ee;
      }

      .cls-11 {
        fill: #7fccf7;
        isolation: isolate;
        opacity: .21;
      }
    </style>
  </defs>
  <g id="Layer_1-2" data-name="Layer 1">
    <g>
      <path class="cls-5" d="M54.09,23.95H5.82C8.7,10.62,21.85,2.15,35.18,5.04c9.47,2.05,16.86,9.44,18.91,18.91h0Z"/>
      <path d="M29.41,58.86C13.17,58.84,0,45.68,0,29.43-.02,13.19,13.13,.02,29.37,0s29.42,13.13,29.43,29.37c0,.02,0,.04,0,.06,0,9.76-4.84,18.89-12.92,24.38-.34,.23-.81,.14-1.04-.2-.23-.34-.14-.81,.2-1.04,12.75-8.65,16.08-25.99,7.43-38.74C43.84,1.08,26.49-2.25,13.74,6.39,6.1,11.57,1.52,20.2,1.5,29.43c0,15.42,12.51,27.93,27.93,27.93,3.33,0,6.64-.6,9.76-1.76,.39-.14,.82,.05,.96,.44,.14,.39-.05,.82-.44,.96-3.29,1.23-6.78,1.86-10.3,1.86Z"/>
      <path class="cls-10" d="M5.88,36.98H52.92c-4.15,12.99-18.05,20.15-31.03,16-7.61-2.43-13.57-8.39-16-16Z"/>
      <path class="cls-7" d="M54.1,29.69c.15,1.98-.1,3.97-.73,5.85H5.47c-.64-1.88-.9-3.87-.77-5.85,0-1.37,.19-2.74,.57-4.06H53.54c.37,1.32,.56,2.68,.57,4.06Z"/>
      <circle class="cls-4" cx="50.69" cy="28.28" r=".84"/>
      <circle class="cls-7" cx="48.4" cy="39.55" r=".84"/>
      <circle class="cls-7" cx="9.99" cy="40.97" r=".84"/>
      <circle class="cls-4" cx="43.71" cy="47.86" r=".42"/>
      <circle class="cls-4" cx="10.47" cy="28.28" r=".48"/>
      <circle class="cls-4" cx="22.89" cy="49.89" r=".48"/>
      <circle class="cls-10" cx="47.56" cy="30.98" r=".48"/>
      <circle class="cls-4" cx="15.06" cy="42.26" r=".84"/>
      <rect class="cls-4" x="40.26" y="13.27" width="4.02" height="32.23" rx="1.2" ry="1.2"/>
      <rect class="cls-11" x="39.27" y="13.27" width="4.02" height="32.23" rx="1.2" ry="1.2"/>
      <path class="cls-9" d="M43.08,46.22h-1.62c-.92,0-1.66-.74-1.66-1.66V14.74c0-.92,.74-1.66,1.66-1.66h1.62c.92,0,1.66,.74,1.66,1.66v29.83c0,.92-.74,1.66-1.66,1.66Zm-1.62-32.23c-.41,0-.74,.33-.74,.74v29.83c0,.41,.33,.74,.74,.74h1.62c.41,0,.74-.33,.74-.74V14.74c0-.41-.33-.74-.74-.74h-1.62Z"/>
      <path class="cls-4" d="M23.92,47.1h-7.11c-.4-.02-.71-.35-.7-.76V12.54c-.02-.4,.3-.74,.7-.76h22.43c.4,.02,.71,.35,.7,.76V46.34c.02,.4-.3,.74-.7,.76h-12.94"/>
      <path class="cls-2" d="M26.06,47.1h-7.11c-.4-.02-.71-.35-.7-.76V12.54c-.02-.4,.3-.74,.7-.76h22.43c.4,.02,.71,.35,.7,.76V46.34c.02,.4-.3,.74-.7,.76h-12.94"/>
      <path class="cls-1" d="M41.74,12.54V46.34c0,.4-.31,.74-.71,.75H18.59c18.2-3.09,22.76-24.58,22.41-35.31h.04c.4,.01,.72,.35,.71,.75,0,0,0,0,0,0Z"/>
      <path class="cls-9" d="M41.32,47.56h-14c-.25,0-.46-.21-.46-.46s.21-.46,.46-.46h14c.16,0,.3-.13,.3-.3V12.54c0-.16-.13-.3-.3-.3H17.05c-.16,0-.3,.13-.3,.3v11.36c0,.25-.2,.46-.46,.46-.25,0-.46-.2-.46-.46h0V12.54c0-.67,.54-1.22,1.22-1.22h24.28c.67,0,1.22,.54,1.22,1.22V46.34c0,.67-.54,1.22-1.22,1.22Z"/>
      <path class="cls-9" d="M16.29,37.47c-.25,0-.46-.21-.46-.46h0v-7.86c0-.25,.2-.46,.46-.46,.25,0,.46,.2,.46,.46h0v7.86c0,.25-.2,.46-.46,.46h0Z"/>
      <path class="cls-9" d="M24.74,47.56h-7.7c-.67,0-1.22-.54-1.22-1.22v-2.74c0-.25,.2-.46,.46-.46,.25,0,.46,.2,.46,.46h0v2.74c0,.16,.13,.3,.3,.3h7.7c.25,0,.46,.21,.46,.46s-.21,.46-.46,.46h0Z"/>
      <circle class="cls-9" cx="16.29" cy="40.5" r=".55"/>
      <circle class="cls-4" cx="18.37" cy="17.75" r="1.09"/>
      <circle class="cls-4" cx="18.37" cy="26.62" r=".62"/>
      <circle class="cls-4" cx="18.37" cy="22.38" r=".44"/>
      <circle class="cls-4" cx="19.5" cy="19.44" r=".44"/>
      <circle class="cls-4" cx="19.29" cy="28.38" r=".44"/>
      <g>
        <path class="cls-9" d="M40.26,18.66c-.07,0-.13-.03-.17-.08l-.99-1.15c-.08-.1-.07-.24,.02-.32s.24-.07,.32,.02h0s.99,1.15,.99,1.15c.08,.1,.07,.24-.02,.32-.04,.04-.09,.06-.15,.06Z"/>
        <path class="cls-9" d="M39.08,18.87c-.07,0-.13-.03-.18-.08l-1.45-1.76c-.08-.1-.07-.24,.03-.32,.1-.08,.24-.07,.32,.03l1.45,1.76c.08,.1,.07,.24-.03,.32,0,0,0,0,0,0-.04,.03-.09,.05-.15,.05Z"/>
      </g>
      <path class="cls-4" d="M26.83,28.09c-.03,1.22,0,3.65,.07,4.86,0,.19,.13,.35,.32,.37l1,.11c.66,.07,1.14,.66,1.09,1.32l.04,3c.07,.66-.39,1.26-1.05,1.35l-1.86-.1c-.55-.03-1.02-.39-1.17-.92-1.52-4.9-1.6-10.13-.22-15.07,.14-.53,.6-.91,1.15-.95l1.86,.1c.66,.07,1.14,.66,1.09,1.32l.04,3c.07,.66-.39,1.26-1.05,1.35l-1-.11c-.19,.02-.33,.19-.31,.38Z"/>
      <path class="cls-4" d="M27.42,28.08c-.03,1.22,0,3.65,.07,4.86,0,.19,.13,.35,.32,.37l1,.11c.66,.07,1.14,.66,1.09,1.32l.04,3c.07,.66-.39,1.26-1.05,1.35l-1.86-.1c-.55-.03-1.02-.39-1.17-.92-1.52-4.9-1.6-10.13-.22-15.07,.14-.53,.6-.91,1.15-.95l1.86,.1c.66,.07,1.14,.66,1.09,1.32l.04,3c.07,.66-.39,1.26-1.05,1.35l-1-.11c-.19,.02-.33,.19-.31,.38Z"/>
      <path d="M26.81,39.51c-.77,0-1.46-.44-1.79-1.13-1.93-4.93-2.01-10.4-.22-15.38,.31-.71,1.01-1.18,1.78-1.19l1.92-.03h.03c.94,0,1.7,.75,1.71,1.69l.04,3c.01,.95-.75,1.72-1.69,1.74h-.85c-.03,.47-.04,1.06-.03,1.69,0,.21-.17,.38-.38,.38h0c-.21,0-.38-.17-.38-.38,0-.65,0-1.25,.02-1.69,.01-.41,.35-.74,.76-.75h.85c.53-.02,.95-.45,.94-.98l-.04-3c-.02-.52-.45-.93-.97-.94l-1.92,.03c-.48,0-.91,.29-1.09,.73-1.7,4.79-1.62,10.03,.21,14.76,.21,.43,.64,.7,1.12,.7l1.92-.03c.53,0,.95-.44,.94-.97l-.04-3c-.02-.52-.45-.94-.97-.94h-.85s-.01,.01-.01,.01c-.41,0-.75-.32-.78-.73-.04-.61-.05-.86-.07-1.69,0-.21,.16-.38,.37-.38,0,0,0,0,0,0h0c.21,0,.38,.17,.38,.37,.01,.81,.03,1.05,.06,1.56l.03,.48v-.38s.84-.01,.84-.01h.03c.94,0,1.7,.75,1.71,1.69l.04,3c.01,.95-.74,1.72-1.69,1.74l-1.92,.03h-.03Z"/>
      <path class="cls-3" d="M15.08,15.77h4.39c.84,0,1.51,.68,1.51,1.51h0c0,.84-.68,1.51-1.51,1.51h-4.39c-.84,0-1.51-.68-1.51-1.51h0c0-.84,.68-1.51,1.51-1.51Z"/>
      <path class="cls-4" d="M19.48,17.07h-4.39c-.84,0-1.51,1.04-1.51,.21h0c0-.84,.68-1.51,1.51-1.51h4.39c.84,0,1.51,.68,1.51,1.51h0c0,.84-.68-.21-1.51-.21Z"/>
      <path d="M19.48,19.07h-4.39c-.99,0-1.79-.8-1.79-1.79,0-.99,.8-1.79,1.79-1.79h4.39c.99,0,1.79,.8,1.79,1.79,0,.99-.8,1.79-1.79,1.79Zm-4.39-3.02c-.68,0-1.23,.56-1.23,1.24,0,.68,.55,1.23,1.23,1.23h4.39c.68,0,1.23-.56,1.23-1.24,0-.68-.55-1.23-1.23-1.23h-4.39Z"/>
      <path d="M17.06,17.75h-1.69c-.08,0-.15-.07-.14-.15,0-.08,.07-.14,.14-.14h1.69c.08,0,.15,.07,.14,.15,0,.08-.07,.14-.14,.14Z"/>
      <path class="cls-3" d="M15.08,23.48h4.39c.84,0,1.51,.68,1.51,1.51h0c0,.84-.68,1.51-1.51,1.51h-4.39c-.84,0-1.51-.68-1.51-1.51h0c0-.84,.68-1.51,1.51-1.51Z"/>
      <path class="cls-4" d="M19.48,24.78h-4.39c-.84,0-1.51,1.04-1.51,.21h0c0-.84,.68-1.51,1.51-1.51h4.39c.84,0,1.51,.68,1.51,1.51h0c0,.84-.68-.21-1.51-.21Z"/>
      <path d="M19.48,26.78h-4.39c-.99,0-1.79-.81-1.79-1.8,0-.99,.8-1.79,1.79-1.79h4.39c.99,0,1.79,.81,1.79,1.8,0,.99-.8,1.79-1.79,1.79Zm-4.39-3.02c-.68,0-1.23,.55-1.23,1.23s.55,1.23,1.23,1.23h4.39c.68,0,1.23-.55,1.23-1.23s-.55-1.23-1.23-1.23h-4.39Z"/>
      <path d="M17.06,25.46h-1.69c-.08,0-.15-.07-.14-.15,0-.08,.07-.14,.14-.14h1.69c.08,0,.15,.07,.14,.15,0,.08-.07,.14-.14,.14Z"/>
      <path class="cls-3" d="M15.08,38.89h4.39c.84,0,1.51,.68,1.51,1.51h0c0,.84-.68,1.51-1.51,1.51h-4.39c-.84,0-1.51-.68-1.51-1.51h0c0-.84,.68-1.51,1.51-1.51Z"/>
      <path class="cls-4" d="M19.48,40.2h-4.39c-.84,0-1.51,1.04-1.51,.21h0c0-.84,.68-1.51,1.51-1.51h4.39c.84,0,1.51,.68,1.51,1.51h0c0,.84-.68-.21-1.51-.21Z"/>
      <path d="M19.48,42.19h-4.39c-.99,0-1.79-.81-1.78-1.8,0-.98,.8-1.78,1.78-1.78h4.39c.99,0,1.79,.81,1.78,1.8,0,.98-.8,1.78-1.78,1.78Zm-4.39-3.02c-.68,0-1.23,.55-1.23,1.23s.55,1.23,1.23,1.23h4.39c.68,0,1.23-.55,1.23-1.23s-.55-1.23-1.23-1.23h-4.39Z"/>
      <path d="M17.06,40.87h-1.69c-.08,0-.15-.07-.14-.15,0-.08,.07-.14,.14-.14h1.69c.08,0,.15,.07,.14,.15,0,.08-.07,.14-.14,.14Z"/>
      <path class="cls-3" d="M15.08,31.18h4.39c.84,0,1.51,.68,1.51,1.51h0c0,.84-.68,1.51-1.51,1.51h-4.39c-.84,0-1.51-.68-1.51-1.51h0c0-.84,.68-1.51,1.51-1.51Z"/>
      <path class="cls-4" d="M19.48,32.49h-4.39c-.84,0-1.51,1.04-1.51,.21h0c0-.84,.68-1.51,1.51-1.51h4.39c.84,0,1.51,.68,1.51,1.51h0c0,.84-.68-.21-1.51-.21Z"/>
      <path d="M19.48,34.49h-4.39c-.99,0-1.79-.81-1.79-1.8,0-.99,.8-1.79,1.79-1.79h4.39c.99,0,1.79,.81,1.79,1.8,0,.99-.8,1.79-1.79,1.79Zm-4.39-3.02c-.68,0-1.23,.55-1.23,1.23s.55,1.23,1.23,1.23h4.39c.68,0,1.23-.55,1.23-1.23s-.55-1.23-1.23-1.23h-4.39Z"/>
      <path d="M17.06,33.17h-1.69c-.08,0-.15-.07-.14-.15,0-.08,.07-.14,.14-.14h1.69c.08,0,.15,.07,.14,.15,0,.08-.07,.14-.14,.14Z"/>
      <rect class="cls-6" x="42.08" y="18.43" width="3.15" height="3.72"/>
      <rect class="cls-8" x="42.08" y="18.43" width="1.38" height="3.72"/>
      <path d="M45.23,22.41h-3.15c-.14,0-.26-.11-.26-.26v-3.72c0-.14,.11-.26,.26-.26h3.15c.14,0,.26,.11,.26,.26h0v.98c0,.14-.12,.26-.26,.26-.14,0-.25-.11-.26-.26v-.72h-2.64v3.21h2.64v-1.39c0-.14,.11-.26,.26-.26,.14,0,.26,.11,.26,.26,0,0,0,0,0,0v1.65c0,.14-.11,.26-.26,.26Z"/>
      <g>
        <g>
          <path d="M34.55,30.42c-.15,0-.28-.12-.28-.28h0c0-1.08-.54-2.09-1.43-2.69-.13-.09-.16-.26-.08-.39,.09-.13,.26-.16,.39-.08,1.05,.71,1.68,1.89,1.68,3.15,0,.15-.12,.28-.28,.28h0Z"/>
          <path d="M36.1,30.42c-.15,0-.28-.12-.28-.28h0c0-1.71-.91-3.29-2.39-4.14-.13-.08-.18-.25-.1-.38,.08-.13,.25-.18,.38-.1,0,0,0,0,0,0,1.65,.96,2.67,2.72,2.67,4.63,0,.15-.12,.28-.28,.28h0Z"/>
          <path d="M37.6,30.42c-.15,0-.28-.12-.28-.28h0c0-2.24-1.2-4.32-3.14-5.44-.13-.08-.18-.25-.1-.38,.08-.13,.25-.18,.38-.1,0,0,0,0,0,0,2.11,1.23,3.41,3.48,3.42,5.92,0,.15-.12,.28-.28,.28h0Z"/>
        </g>
        <g>
          <path d="M33,33.35c-.15,0-.28-.12-.28-.28,0-.09,.05-.18,.12-.23,.89-.6,1.43-1.61,1.43-2.69,0-.15,.13-.28,.28-.28h0c.15,0,.28,.12,.28,.28h0c0,1.26-.63,2.45-1.67,3.15-.05,.03-.1,.05-.16,.05Z"/>
          <path d="M33.57,34.81c-.15,0-.28-.12-.28-.28,0-.1,.05-.19,.14-.24,1.48-.86,2.38-2.44,2.39-4.15,0-.15,.12-.28,.28-.28h0c.15,0,.28,.12,.28,.28,0,1.91-1.02,3.67-2.67,4.63-.04,.02-.09,.04-.14,.04Z"/>
          <path d="M34.32,36.11c-.15,0-.28-.12-.28-.28,0-.1,.05-.19,.14-.24,1.94-1.13,3.13-3.2,3.13-5.44,0-.15,.12-.28,.28-.28h0c.15,0,.28,.12,.28,.28,0,2.44-1.3,4.7-3.41,5.93-.04,.02-.09,.04-.14,.04Z"/>
        </g>
      </g>
    </g>
  </g>
</svg>