<?xml version="1.0" encoding="UTF-8"?>
<svg id="Layer_2" data-name="Layer 2" xmlns="http://www.w3.org/2000/svg" viewBox="0 0 58.8 58.86">
  <defs>
    <style>
      .cls-1 {
        fill: #f9b56d;
      }

      .cls-2 {
        fill: #f28d33;
      }

      .cls-3 {
        fill: #fff;
      }

      .cls-4 {
        fill: #fcd9b5;
      }

      .cls-5 {
        fill: #84c7ce;
      }

      .cls-6 {
        fill: #dcfaff;
      }

      .cls-7 {
        fill: #c3e9ed;
      }
    </style>
  </defs>
  <g id="Layer_1-2" data-name="Layer 1">
    <g>
      <path d="M29.41,58.86C13.17,58.84,0,45.68,0,29.43-.02,13.19,13.13,.02,29.37,0s29.42,13.13,29.43,29.37c0,.02,0,.04,0,.06,0,16.24-13.16,29.4-29.39,29.43ZM29.41,1.52C14.01,1.53,1.53,14.02,1.53,29.42c0,15.4,12.49,27.88,27.89,27.88,15.4,0,27.88-12.49,27.88-27.89,0-1.98-.21-3.95-.63-5.88C53.86,10.71,42.53,1.57,29.41,1.52h0Z"/>
      <path class="cls-2" d="M5.88,36.98H52.92c-4.15,12.99-18.05,20.15-31.03,16-7.61-2.43-13.57-8.39-16-16Z"/>
      <path class="cls-4" d="M53.8,24.11H5.53C8.42,10.78,21.56,2.31,34.89,5.2c9.47,2.05,16.86,9.44,18.91,18.91Z"/>
      <path class="cls-1" d="M54.1,29.69c0,2.01-.41,4-1.18,5.85H5.88c-1.33-3.14-1.55-6.63-.62-9.91H53.54c.37,1.32,.56,2.68,.57,4.06Z"/>
      <circle class="cls-3" cx="40.19" cy="13.33" r=".48"/>
      <circle class="cls-3" cx="10.47" cy="28.28" r=".48"/>
      <circle class="cls-3" cx="30.62" cy="28.75" r=".48"/>
      <circle class="cls-3" cx="22.1" cy="48.25" r=".48"/>
      <circle class="cls-3" cx="15.9" cy="14.46" r=".48"/>
      <circle class="cls-3" cx="41.03" cy="40.53" r=".84"/>
      <circle class="cls-3" cx="49.85" cy="26.29" r=".84"/>
      <circle class="cls-3" cx="15.06" cy="42.26" r=".84"/>
      <path class="cls-3" d="M35.16,46.42h-11.52c-2.21,0-4-1.79-4-4V16.04c0-2.21,1.79-4,4-4h11.52c2.21,0,4,1.79,4,4v26.38c0,2.21-1.79,4-4,4Z"/>
      <path class="cls-6" d="M39.16,16.19v26.08H19.64V16.19h19.53Z"/>
      <path class="cls-5" d="M20.52,42.28c-.33,0-.6-.27-.6-.6V16.79c0-.33,.27-.6,.6-.6h18.3c.33,0,.61,.27,.61,.6,0,.33-.27,.61-.6,.61,0,0,0,0,0,0H21.12v24.28c0,.33-.27,.6-.6,.6Z"/>
      <path d="M24.01,16.71h-4.37c-.19,0-.35-.15-.35-.34,0-.19,.15-.35,.34-.35h4.37c.19,0,.35,.15,.35,.34,0,.19-.15,.35-.34,.35h0Z"/>
      <path d="M39.16,16.71h-13.53c-.19,0-.35-.15-.35-.34,0-.19,.15-.35,.34-.35h13.53c.19,0,.35,.15,.35,.34,0,.19-.15,.35-.34,.35h0Z"/>
      <path d="M23.1,42.79h-3.46c-.19,0-.35-.15-.35-.34,0-.19,.15-.35,.34-.35h3.46c.19,0,.35,.15,.35,.34,0,.19-.15,.35-.34,.35h0Z"/>
      <path d="M39.16,42.79h-13.9c-.19,0-.35-.15-.35-.34,0-.19,.15-.35,.34-.35h13.9c.19,0,.35,.15,.35,.34,0,.19-.15,.35-.34,.35h0Z"/>
      <path class="cls-7" d="M32.21,45.19h-5.73c-.28,0-.5-.22-.5-.5s.22-.5,.5-.5h5.73c.28,0,.5,.22,.5,.5s-.22,.5-.5,.5Z"/>
      <path class="cls-3" d="M38.42,39.07c-.33,0-.6-.27-.6-.6v-6.02c0-.33,.27-.61,.6-.61,.33,0,.61,.27,.61,.6,0,0,0,0,0,0v6.02c0,.33-.27,.6-.6,.6Z"/>
      <path class="cls-3" d="M38.42,28.96c-.33,0-.6-.27-.6-.6v-6.02c0-.33,.27-.61,.6-.61,.33,0,.61,.27,.61,.6,0,0,0,0,0,0v6.02c0,.33-.27,.6-.6,.6Z"/>
      <path d="M35.16,46.89h-11.52c-2.46,0-4.46-2-4.46-4.46V16.04c0-2.46,2-4.46,4.46-4.46h11.52c2.46,0,4.46,2,4.46,4.46v26.38c0,2.46-2,4.46-4.46,4.46ZM23.64,12.51c-1.95,0-3.53,1.58-3.53,3.53v26.38c0,1.95,1.58,3.53,3.53,3.53h11.52c1.95,0,3.53-1.58,3.53-3.53V16.04c0-1.95-1.58-3.53-3.53-3.53h-11.52Z"/>
      <path d="M29.67,15.07c-.48,0-.87-.39-.87-.87,0-.48,.39-.87,.87-.87,.48,0,.87,.39,.87,.87h0c0,.48-.39,.87-.87,.87Zm0-1.34c-.26,0-.47,.21-.47,.47,0,.26,.21,.47,.47,.47,.26,0,.47-.21,.47-.47h0c0-.26-.21-.47-.47-.47Z"/>
      <path d="M32.27,44.69h-5.73c-.2,0-.37-.16-.37-.37s.16-.37,.37-.37h5.74c.2,0,.37,.16,.37,.37s-.16,.37-.37,.37h0Z"/>
      <circle class="cls-3" cx="29.4" cy="30.62" r="1.84"/>
      <g>
        <g>
          <path d="M26.51,28.94c-.15,0-.28-.12-.28-.28,0-.06,.02-.11,.05-.16,.7-1.04,1.87-1.66,3.12-1.66,.15,0,.28,.12,.28,.28s-.12,.28-.28,.28h0c-1.07,0-2.06,.53-2.66,1.42-.05,.08-.14,.12-.23,.12Z"/>
          <path d="M25.06,28.38s-.1-.01-.14-.04c-.13-.08-.18-.25-.1-.38h0c.95-1.63,2.69-2.64,4.58-2.64,.15,0,.28,.12,.28,.28s-.12,.28-.28,.28h0c-1.69,0-3.25,.9-4.1,2.37-.05,.09-.14,.14-.24,.14Z"/>
          <path d="M23.78,27.63s-.1-.01-.14-.04c-.13-.08-.18-.25-.1-.38,0,0,0,0,0,0,1.21-2.09,3.45-3.38,5.87-3.38,.15,0,.28,.12,.28,.28s-.12,.28-.28,.28h0c-2.22,0-4.27,1.19-5.38,3.11-.05,.09-.14,.14-.24,.14Z"/>
        </g>
        <g>
          <path d="M32.29,28.94c-.09,0-.18-.05-.23-.12-.6-.88-1.59-1.41-2.66-1.41h0c-.15,0-.28-.12-.28-.28,0-.15,.13-.27,.28-.28,1.25,0,2.42,.62,3.12,1.66,.09,.13,.05,.3-.08,.39,0,0,0,0,0,0-.05,.03-.1,.05-.16,.05Z"/>
          <path d="M33.74,28.37c-.1,0-.19-.05-.24-.14-.85-1.46-2.41-2.36-4.1-2.36h0c-.15,0-.28-.13-.28-.28,0-.15,.13-.28,.28-.28,0,0,0,0,0,0,1.89,0,3.63,1.01,4.58,2.64,.08,.13,.03,.3-.1,.38-.04,.02-.09,.04-.14,.04Z"/>
          <path d="M35.03,27.63c-.1,0-.19-.05-.24-.14-1.12-1.92-3.16-3.1-5.38-3.1h0c-.15,0-.28-.12-.28-.28s.12-.28,.28-.28h0c2.42,0,4.65,1.29,5.86,3.38,.08,.13,.03,.3-.1,.38-.04,.02-.09,.04-.14,.04h0Z"/>
        </g>
      </g>
      <path d="M29.4,32.72c-1.17,0-2.11-.95-2.11-2.11s.95-2.11,2.11-2.11c1.17,0,2.11,.95,2.11,2.11,0,1.17-.95,2.11-2.11,2.11Zm0-3.67c-.86,0-1.56,.7-1.56,1.56,0,.86,.7,1.56,1.56,1.56,.86,0,1.56-.7,1.56-1.56h0c0-.86-.7-1.56-1.56-1.56Z"/>
      <g>
        <path d="M19.14,22.28c-.27,0-.5-.22-.5-.5v-2.49c0-.27,.22-.5,.49-.5s.5,.22,.5,.49c0,0,0,0,0,0v2.49c0,.27-.22,.5-.5,.5Z"/>
        <path d="M19.14,25.88c-.27,0-.5-.22-.5-.5v-1.53c0-.27,.22-.5,.49-.5s.5,.22,.5,.49c0,0,0,0,0,0v1.53c0,.27-.22,.5-.5,.5Z"/>
      </g>
    </g>
  </g>
</svg>