<svg width="243" height="213" viewBox="0 0 243 213" fill="none" xmlns="http://www.w3.org/2000/svg">
<g clip-path="url(#clip0_35_3618)">
<path d="M0.75 46.787C8.59 45.681 15.26 38.861 16.191 30.998C15.526 37.769 19.724 44.734 26.021 47.31C22.797 47.492 19.942 49.715 18.29 52.489C16.637 55.263 16.021 58.53 15.718 61.746C15.545 53.776 8.425 46.589 0.75 46.787Z" stroke="#010101" stroke-width="1.5" stroke-linecap="round" stroke-linejoin="round"/>
<path d="M218.229 113.794C225.378 112.785 231.459 106.567 232.308 99.397C231.702 105.571 235.529 111.922 241.271 114.27C238.331 114.436 235.728 116.463 234.221 118.992C232.714 121.522 232.152 124.501 231.876 127.432C231.718 120.165 225.227 113.613 218.229 113.794Z" stroke="#010101" stroke-width="1.5" stroke-linecap="round" stroke-linejoin="round"/>
<path d="M170.496 133.01C171.627 134.463 172.394 136.197 172.708 138.012C147.662 149.031 122.616 160.05 97.569 171.068C76.894 133.716 57.804 96.855 40.005 59.381C48.956 53.245 58 48.467 67.137 44.608C77.66 80.507 90.042 115.862 105.305 150.909C126.88 143.154 148.651 135.946 170.496 133.01Z" fill="#7B5FF1" stroke="#010101" stroke-width="1.5" stroke-linecap="round" stroke-linejoin="round"/>
<path d="M197.045 123.462C182.8 86.816 168.502 38.154 156.385 0.75C123.731 9.696 93.716 20.506 64.406 32.972C75.983 72.246 85.699 113.206 103.052 152.176C132.512 144.963 167.233 135.124 197.044 123.462H197.045Z" fill="#E3E3FF" stroke="#010101" stroke-width="1.5" stroke-linecap="round" stroke-linejoin="round"/>
<path d="M87.417 47.911C88.143 50.415 88.87 52.92 89.596 55.424C110.288 51.882 130.145 44.663 149.871 37.48C149.189 34.92 148.507 32.36 147.825 29.8C128.237 35.977 108.648 42.154 87.416 47.912L87.417 47.911Z" fill="white" stroke="#010101" stroke-width="1.5" stroke-linecap="round" stroke-linejoin="round"/>
<path d="M95.123 69.129C114.323 63.681 133.417 57.86 152.39 51.671" stroke="#010101" stroke-width="1.5" stroke-linecap="round" stroke-linejoin="round"/>
<path d="M100.085 80.064C119.267 73.999 138.448 67.934 157.63 61.869" stroke="#010101" stroke-width="1.5" stroke-linecap="round" stroke-linejoin="round"/>
<path d="M105.2 92.021C124.057 85.655 142.967 79.444 161.926 73.389" stroke="#010101" stroke-width="1.5" stroke-linecap="round" stroke-linejoin="round"/>
<path d="M109.416 103.399C129.011 98.38 148.449 92.75 167.693 86.52" stroke="#010101" stroke-width="1.5" stroke-linecap="round" stroke-linejoin="round"/>
<path d="M114.758 115.611C119.855 113.459 125.036 111.506 130.285 109.758" stroke="#010101" stroke-width="1.5" stroke-linecap="round" stroke-linejoin="round"/>
<path d="M142.83 123.128C142.295 119.185 142.376 114.915 144.528 111.568C146.68 108.221 151.472 106.35 154.824 108.493C156.762 109.732 157.806 111.945 158.752 114.042C160.054 113.137 160.533 111.478 161.131 110.01C161.729 108.542 162.787 106.982 164.369 106.881C165.534 106.807 166.571 107.56 167.688 107.898C169.785 108.533 172.012 107.678 174.035 106.837" stroke="#010101" stroke-width="1.5" stroke-linecap="round" stroke-linejoin="round"/>
<path d="M42.9189 175.411C51.9859 171.851 61.3979 169.171 70.9789 167.42" stroke="#010101" stroke-width="1.5" stroke-linecap="round" stroke-linejoin="round"/>
<path d="M83.945 180.129C80.58 186.305 77.064 192.399 73.401 198.404" stroke="#010101" stroke-width="1.5" stroke-linecap="round" stroke-linejoin="round"/>
<path d="M102.852 189.165C103.309 196.707 103.473 204.267 103.343 211.821" stroke="#010101" stroke-width="1.5" stroke-linecap="round" stroke-linejoin="round"/>
</g>
<defs>
<clipPath id="clip0_35_3618">
<rect width="242.021" height="212.572" fill="white"/>
</clipPath>
</defs>
</svg>
