<svg width="220" height="157" viewBox="0 0 220 157" fill="none" xmlns="http://www.w3.org/2000/svg">
<g clip-path="url(#clip0_35_3531)">
<path d="M98.756 135.366C105.022 134.482 110.353 129.031 111.097 122.747C110.566 128.159 113.92 133.725 118.953 135.784C116.376 135.93 114.095 137.706 112.774 139.923C111.453 142.14 110.961 144.752 110.718 147.321C110.58 140.951 104.89 135.207 98.756 135.366Z" stroke="#010101" stroke-width="1.5" stroke-linecap="round" stroke-linejoin="round"/>
<path d="M198.578 64.557C204.844 63.673 210.175 58.222 210.919 51.938C210.388 57.35 213.742 62.916 218.775 64.975C216.198 65.121 213.917 66.897 212.596 69.114C211.275 71.331 210.783 73.943 210.54 76.512C210.402 70.142 204.712 64.398 198.578 64.557Z" stroke="#010101" stroke-width="1.5" stroke-linecap="round" stroke-linejoin="round"/>
<path d="M163.633 142.039C159.643 137.902 156.533 132.916 154.57 127.508C153.047 123.311 152.219 118.675 153.443 114.381C154.058 112.226 155.358 110.065 157.47 109.331C159.366 108.672 161.458 109.306 163.294 110.118C167.106 111.804 170.598 114.304 173.181 117.582C175.791 120.895 177.394 124.872 179.25 128.819C177.854 132.713 176.367 136.697 173.621 139.786C170.875 142.875 166.474 144.985 163.633 142.039Z" fill="#55D087" stroke="#010101" stroke-width="1.5" stroke-linecap="round" stroke-linejoin="round"/>
<path d="M174.483 137.696C170.24 132.205 160.84 116.109 156.58 109.753L174.483 137.696Z" fill="#E3E3FF"/>
<path d="M174.483 137.696C170.24 132.205 160.84 116.109 156.58 109.753" stroke="#010101" stroke-width="1.5" stroke-linecap="round" stroke-linejoin="round"/>
<path d="M171.766 141.289C173.931 133.771 176.11 126.215 179.437 119.134C182.764 112.053 187.32 105.406 193.526 100.641C195.942 98.7859 199.474 97.2589 201.848 99.1689C203.473 100.476 203.738 102.84 203.59 104.92C203.352 108.252 202.39 111.484 201.433 114.684C197.954 126.322 194.469 137.975 190.075 149.299C183.53 146.753 177.014 144.134 171.767 141.29L171.766 141.289Z" fill="#55D087" stroke="#010101" stroke-width="1.5" stroke-linecap="round" stroke-linejoin="round"/>
<path d="M179.25 144.421C185.739 129.224 192.674 113.628 200.248 98.405L179.25 144.421Z" fill="#E3E3FF"/>
<path d="M179.25 144.421C185.739 129.224 192.674 113.628 200.248 98.405" stroke="#010101" stroke-width="1.5" stroke-linecap="round" stroke-linejoin="round"/>
<path d="M129.745 155.969H218.618H129.745Z" fill="#E3E3FF"/>
<path d="M129.745 155.969H218.618" stroke="#010101" stroke-width="1.5" stroke-linecap="round" stroke-linejoin="round"/>
<path d="M207.407 155.776C204.441 152.648 201.39 149.6 198.259 146.637C193.984 142.591 189.447 138.631 184.003 136.39C181.636 135.416 179.054 134.779 176.52 135.134C173.952 135.493 171.639 136.83 169.414 138.16C160.481 143.499 151.74 149.16 142.891 155.961C164.026 155.655 185.174 156.255 207.407 155.776Z" fill="#FF8B37" stroke="#010101" stroke-width="1.5" stroke-linecap="round" stroke-linejoin="round"/>
<path d="M167.364 73.692C172.103 73.568 176.852 75.695 179.917 79.312" stroke="#010101" stroke-width="1.5" stroke-linecap="round" stroke-linejoin="round"/>
<path d="M183.658 83.975C185.11 85.706 186.352 87.614 187.347 89.642" stroke="#010101" stroke-width="1.5" stroke-linecap="round" stroke-linejoin="round"/>
<path d="M190.079 93.51C191.384 95.278 192.55 97.148 193.562 99.098" stroke="#010101" stroke-width="1.5" stroke-linecap="round" stroke-linejoin="round"/>
<path d="M162.942 78.068C167.316 79.779 171.067 83.036 173.375 87.127" stroke="#010101" stroke-width="1.5" stroke-linecap="round" stroke-linejoin="round"/>
<path d="M175.631 90.7831C176.532 92.4911 177.433 94.1991 178.334 95.9071" stroke="#010101" stroke-width="1.5" stroke-linecap="round" stroke-linejoin="round"/>
<path d="M180.996 100.238C182.215 102.275 183.332 104.373 184.339 106.522" stroke="#010101" stroke-width="1.5" stroke-linecap="round" stroke-linejoin="round"/>
<path d="M158.276 84.5601C162.291 85.9641 165.754 88.8861 167.814 92.6081" stroke="#010101" stroke-width="1.5" stroke-linecap="round" stroke-linejoin="round"/>
<path d="M169.3 96.25C169.906 97.731 170.46 99.232 170.961 100.751" stroke="#010101" stroke-width="1.5" stroke-linecap="round" stroke-linejoin="round"/>
<path d="M171.757 106.038C172.173 108.368 172.411 110.729 172.468 113.095" stroke="#010101" stroke-width="1.5" stroke-linecap="round" stroke-linejoin="round"/>
<path d="M57.422 8.35C39.113 33.768 22.706 60.555 8.05801 88.267C28.881 100.599 72.844 121.413 72.844 121.413C72.844 121.413 79.345 101.915 82.808 93.933C103.081 89.166 123.065 83.168 142.51 76.009C143.134 82.356 146.624 86.647 150.828 88.793C156.253 80.568 160.599 73.724 165.65 65.461C157.48 59.694 147.627 60.947 143.842 68.249C125.007 73.98 104.719 79.226 86.423 85.773C92.33 67.223 107.762 32.369 107.762 32.369C107.762 32.369 59.088 9.229 57.422 8.349V8.35Z" fill="#E3E3FF" stroke="#010101" stroke-width="1.5" stroke-linecap="round" stroke-linejoin="round"/>
<path d="M108.041 32.132C108.255 25.596 106.484 19.008 103.021 13.461C99.558 7.914 94.418 3.429 88.453 0.75C84.034 6.549 80.133 12.101 76.628 17.548C80.755 19.194 84.672 21.316 88.578 23.433C94.74 26.772 100.901 30.112 108.041 32.132Z" fill="#E3E3FF" stroke="#010101" stroke-width="1.5" stroke-linecap="round" stroke-linejoin="round"/>
<path d="M37.426 10.9971C32.184 9.89305 26.672 10.5711 21.566 12.2081C17.225 13.6031 13.059 15.7251 9.75601 18.8641C3.82601 24.4941 1.22901 32.9131 0.812011 41.0801C0.589011 45.3531 0.919011 49.7221 2.51701 53.6851C5.31701 60.6411 11.789 65.5921 18.765 68.3631C18.862 68.3241 18.959 68.2951 19.046 68.2561C20.519 65.659 22.001 63.0821 23.512 60.5151C23.241 60.6121 22.969 60.6891 22.698 60.7771C14.627 55.8941 7.70001 49.18 10.49 36.0421C13.813 20.3851 30.022 18.6321 37.792 21.0831C40.505 21.9361 43.692 23.7381 45.678 25.2201C47.441 22.6041 49.214 20.0081 51.007 17.4211C47.606 14.1561 41.783 11.9181 37.424 10.9971H37.426Z" fill="#E3E3FF" stroke="#010101" stroke-width="1.5" stroke-linecap="round" stroke-linejoin="round"/>
<path d="M86.391 85.4449C85.018 88.2759 83.746 91.1559 82.578 94.0779L86.391 85.4449Z" fill="#E3E3FF"/>
<path d="M86.391 85.4449C85.018 88.2759 83.746 91.1559 82.578 94.0779" stroke="#010101" stroke-width="1.5" stroke-linecap="round" stroke-linejoin="round"/>
<path d="M144.031 67.812C142.941 70.8 142.156 73.682 142.545 76.897L144.031 67.812Z" fill="#E3E3FF"/>
<path d="M144.031 67.812C142.941 70.8 142.156 73.682 142.545 76.897" stroke="#010101" stroke-width="1.5" stroke-linecap="round" stroke-linejoin="round"/>
</g>
<defs>
<clipPath id="clip0_35_3531">
<rect width="219.526" height="156.719" fill="white"/>
</clipPath>
</defs>
</svg>
