<svg width="343" height="170" viewBox="0 0 343 170" fill="none" xmlns="http://www.w3.org/2000/svg">
<g clip-path="url(#clip0_35_3102)">
<path d="M101.386 165.894C93.7 152.567 94.341 151.032 86.655 137.706C81.275 128.376 75.308 118.496 64.644 113.148C58.891 110.263 51.008 109.143 46.03 112.658C34.416 120.86 44.482 142.545 56.185 165.866C73.969 166.432 80.315 165.894 101.386 165.894Z" fill="#55D087" stroke="#010101" stroke-width="1.5" stroke-linecap="round" stroke-linejoin="round"/>
<path d="M54.02 117.128C60.539 137.402 65.844 146.321 75.139 165.894" stroke="#010101" stroke-width="1.5" stroke-linecap="round" stroke-linejoin="round"/>
<path d="M60.553 165.894C47.379 145.913 39.045 133.031 21.088 127.443C17.568 126.348 13.521 125.849 10.243 127.231C6.535 128.794 3.668 132.371 4.252 135.862C6.492 149.251 14.456 156.637 19.422 166.301C35.446 166.384 48.434 165.831 60.553 165.894Z" fill="#55D087" stroke="#010101" stroke-width="1.5" stroke-linecap="round" stroke-linejoin="round"/>
<path d="M14.587 129.441C23.728 145.324 25.916 150.473 37.608 165.197" stroke="#010101" stroke-width="1.5" stroke-linecap="round" stroke-linejoin="round"/>
<path d="M293.342 128.378C289.737 128.876 286.485 130.954 283.848 133.463C279.268 137.821 276.551 144.327 277.539 150.572C277.97 153.294 279.07 155.888 280.573 158.198C284.124 163.656 290.018 167.531 296.435 168.632C303.863 169.907 307.302 166.307 308.935 164.885C313.261 161.117 317.089 155.404 316.92 149.186C316.709 141.376 311.808 125.825 293.341 128.378H293.342Z" fill="#010101" stroke="#010101" stroke-width="1.5" stroke-linecap="round" stroke-linejoin="round"/>
<path d="M295.367 137.907C293.516 138.163 291.847 139.229 290.493 140.517C288.141 142.754 286.747 146.095 287.254 149.3C287.475 150.698 288.04 152.029 288.812 153.215C290.635 156.017 293.661 158.006 296.956 158.572C300.77 159.227 302.535 157.378 303.373 156.648C305.594 154.714 307.559 151.78 307.473 148.588C307.365 144.578 304.849 136.595 295.368 137.905L295.367 137.907Z" fill="white" stroke="#010101" stroke-width="1.5" stroke-linecap="round" stroke-linejoin="round"/>
<path d="M235.168 128.378C231.563 128.876 228.311 130.954 225.674 133.463C221.094 137.821 218.377 144.327 219.365 150.572C219.796 153.294 220.896 155.888 222.399 158.198C225.95 163.656 231.844 167.531 238.261 168.632C245.689 169.907 249.128 166.307 250.761 164.885C255.087 161.117 258.915 155.404 258.746 149.186C258.535 141.376 253.635 125.825 235.168 128.378Z" fill="#010101" stroke="#010101" stroke-width="1.5" stroke-linecap="round" stroke-linejoin="round"/>
<path d="M237.193 137.907C235.342 138.163 233.673 139.229 232.319 140.517C229.967 142.754 228.573 146.095 229.08 149.3C229.301 150.698 229.866 152.029 230.638 153.215C232.461 156.017 235.487 158.006 238.782 158.572C242.596 159.227 244.361 157.378 245.199 156.648C247.42 154.714 249.385 151.78 249.299 148.588C249.191 144.578 246.675 136.595 237.194 137.905L237.193 137.907Z" fill="#010101" stroke="#010101" stroke-width="1.5" stroke-linecap="round" stroke-linejoin="round"/>
<path d="M99.934 126.101C96.329 126.599 93.077 128.677 90.44 131.186C85.86 135.544 83.143 142.05 84.131 148.295C84.562 151.017 85.662 153.611 87.165 155.921C90.716 161.379 96.61 165.254 103.027 166.355C110.455 167.63 113.894 164.03 115.527 162.608C119.853 158.84 123.681 153.127 123.512 146.909C123.301 139.099 118.401 123.548 99.934 126.101Z" fill="#010101" stroke="#010101" stroke-width="1.5" stroke-linecap="round" stroke-linejoin="round"/>
<path d="M101.958 135.63C100.107 135.886 98.438 136.952 97.084 138.24C94.732 140.477 93.338 143.818 93.845 147.023C94.066 148.421 94.631 149.752 95.403 150.938C97.226 153.74 100.252 155.729 103.547 156.295C107.361 156.95 109.126 155.101 109.964 154.371C112.185 152.437 114.15 149.503 114.064 146.311C113.956 142.301 111.44 134.318 101.959 135.628L101.958 135.63Z" fill="#010101" stroke="#010101" stroke-width="1.5" stroke-linecap="round" stroke-linejoin="round"/>
<path d="M323.697 118.111H270.125V145.15H323.697V118.111Z" fill="#7B5FF1" stroke="#010101" stroke-width="1.5" stroke-linecap="round" stroke-linejoin="round"/>
<path d="M293.342 128.378C289.737 128.876 286.485 130.954 283.848 133.463C279.268 137.821 276.551 144.327 277.539 150.572C277.97 153.294 279.07 155.888 280.573 158.198C284.124 163.656 290.018 167.531 296.435 168.632C303.863 169.907 307.302 166.307 308.935 164.885C313.261 161.117 317.089 155.404 316.92 149.186C316.709 141.376 311.808 125.825 293.341 128.378H293.342Z" fill="#010101" stroke="#010101" stroke-width="1.5" stroke-linecap="round" stroke-linejoin="round"/>
<path d="M294.618 134.381C292.118 134.727 289.863 136.167 288.034 137.907C284.858 140.929 282.974 145.441 283.659 149.771C283.958 151.659 284.721 153.457 285.763 155.06C288.225 158.845 292.312 161.532 296.763 162.296C301.914 163.18 304.299 160.684 305.431 159.698C308.431 157.085 311.085 153.123 310.969 148.811C310.823 143.395 307.424 132.611 294.618 134.382V134.381Z" fill="white" stroke="#010101" stroke-width="1.5" stroke-linecap="round" stroke-linejoin="round"/>
<path d="M65.574 146.197C120.042 146.197 162.362 148.764 214.022 146.141C214.022 133.692 215.804 83.819 215.804 33.555H65.574C66.044 47.105 64.845 125.204 65.574 146.197Z" fill="#7B5FF1" stroke="#010101" stroke-width="1.5" stroke-linecap="round" stroke-linejoin="round"/>
<path d="M72.741 139.261C83.974 139.261 92.702 141.509 103.356 139.212C103.356 128.312 103.724 84.643 103.724 40.632H72.742C72.839 52.497 72.591 120.88 72.741 139.261Z" fill="#010101" stroke="#010101" stroke-width="1.5" stroke-linecap="round" stroke-linejoin="round"/>
<path d="M258.366 56.327C266.655 55.984 274.952 55.829 283.502 56.309C287.215 56.517 290.455 58.876 291.89 62.307C296.516 73.368 301.473 84.227 306.48 94.599C315.914 95.415 319.945 96.505 326.635 97.555C331.292 98.286 334.756 102.229 334.893 106.941C335.144 115.56 335.669 130.05 336.674 145.138L321.694 145.152C318.143 133.891 312.825 125.102 298.57 124.492C281.959 123.856 275.587 135.423 272.76 146.197C269.279 146.356 268.418 145.701 257.589 146.197" fill="#E3E3FF"/>
<path d="M258.366 56.327C266.655 55.984 274.952 55.829 283.502 56.309C287.215 56.517 290.455 58.876 291.89 62.307C296.516 73.368 301.473 84.227 306.48 94.599C315.914 95.415 319.945 96.505 326.635 97.555C331.292 98.286 334.756 102.229 334.893 106.941C335.144 115.56 335.669 130.05 336.674 145.138L321.694 145.152C318.143 133.891 312.825 125.102 298.57 124.492C281.959 123.856 275.587 135.423 272.76 146.197C269.279 146.356 268.418 145.701 257.589 146.197" stroke="#010101" stroke-width="1.5" stroke-linecap="round" stroke-linejoin="round"/>
<path d="M268.369 96.18C280.744 96.18 282.067 95.2 298.57 95.2C292.842 84.921 289.69 77.576 283.529 63.98C274.98 63.365 274.77 63.777 268.369 64.146C267.666 74.271 268.055 85.098 268.369 96.18Z" fill="white" stroke="#010101" stroke-width="1.5" stroke-linecap="round" stroke-linejoin="round"/>
<path d="M110.446 146.197C164.914 146.197 207.234 148.764 258.894 146.141C258.894 133.692 260.676 83.819 260.676 33.555H111.1C111.57 47.105 110.446 117.173 110.446 146.197Z" fill="#7B5FF1" stroke="#010101" stroke-width="1.5" stroke-linecap="round" stroke-linejoin="round"/>
<path d="M265.911 105.253C266.328 104.419 267.166 103.859 268.053 103.572C268.94 103.285 269.884 103.237 270.815 103.192C272.236 103.123 273.658 103.054 275.079 102.985C275.988 102.941 276.92 102.899 277.789 103.169C278.658 103.439 279.468 104.088 279.668 104.977" stroke="#010101" stroke-width="1.5" stroke-linecap="round" stroke-linejoin="round"/>
<path d="M340.381 136.066C339.376 134.448 333.613 135.572 330.261 135.52C329.282 135.505 328.225 135.514 327.437 136.095C326.486 136.796 326.234 138.102 326.188 139.283C326.142 140.445 326.223 141.612 326.428 142.757C326.568 143.535 326.815 144.377 327.479 144.807C327.983 145.133 328.619 145.149 329.219 145.151C332.365 145.161 335.511 145.072 338.652 144.883C339.309 144.843 340.028 144.772 340.491 144.304C340.858 143.933 340.98 143.389 341.056 142.873C341.42 140.398 341.451 137.789 340.381 136.066Z" fill="white" stroke="#010101" stroke-width="1.5" stroke-linecap="round" stroke-linejoin="round"/>
<path d="M158.108 126.101C154.503 126.599 151.251 128.677 148.614 131.186C144.034 135.544 141.317 142.05 142.305 148.295C142.736 151.017 143.836 153.611 145.339 155.921C148.89 161.379 154.784 165.254 161.201 166.355C168.629 167.63 172.068 164.03 173.701 162.608C178.027 158.84 181.855 153.127 181.686 146.909C181.475 139.099 176.574 123.548 158.107 126.101H158.108Z" fill="#010101" stroke="#010101" stroke-width="1.5" stroke-linecap="round" stroke-linejoin="round"/>
<path d="M159.449 132.412C157.005 132.75 154.802 134.158 153.015 135.858C149.911 138.812 148.069 143.221 148.739 147.453C149.031 149.298 149.777 151.056 150.795 152.622C153.201 156.321 157.196 158.947 161.546 159.694C166.581 160.558 168.911 158.118 170.017 157.155C172.949 154.601 175.543 150.729 175.429 146.515C175.286 141.222 171.965 130.681 159.449 132.412Z" fill="white" stroke="#010101" stroke-width="1.5" stroke-linecap="round" stroke-linejoin="round"/>
<path d="M31.723 17.768C40.174 16.576 47.362 9.225 48.366 0.75C47.649 8.048 52.174 15.556 58.961 18.332C55.486 18.529 52.409 20.924 50.627 23.914C48.845 26.904 48.181 30.426 47.854 33.891C47.668 25.301 39.996 17.554 31.723 17.768Z" stroke="#010101" stroke-width="1.5" stroke-linecap="round" stroke-linejoin="round"/>
<path d="M0.75 89.134C5.268 88.496 9.112 84.566 9.648 80.035C9.265 83.937 11.684 87.951 15.313 89.435C13.455 89.54 11.81 90.821 10.857 92.42C9.904 94.019 9.549 95.902 9.375 97.755C9.275 93.162 5.173 89.019 0.75 89.134Z" stroke="#010101" stroke-width="1.5" stroke-linecap="round" stroke-linejoin="round"/>
<path d="M133.933 81.121C133.816 81.341 115.574 80.208 90.113 81.195C89.612 92.755 90.297 106.47 90.297 116.352C99.956 116.352 118.38 116.429 133.79 116.429C133.047 103.872 133.803 93.884 133.933 81.121Z" fill="#FF8B37" stroke="#010101" stroke-width="1.5" stroke-linecap="round" stroke-linejoin="round"/>
<path d="M90.624 115.953C108.616 99.522 131.567 83.271 133.933 81.121" stroke="#010101" stroke-width="1.5" stroke-linecap="round" stroke-linejoin="round"/>
<path d="M90.624 81.937C101.532 90.885 132.301 115.076 133.763 115.953" stroke="#010101" stroke-width="1.5" stroke-linecap="round" stroke-linejoin="round"/>
<path d="M120.543 116.839C120.426 117.149 102.184 115.548 76.723 116.944C76.222 133.276 76.907 152.654 76.907 166.615C86.566 166.615 104.99 166.724 120.4 166.724C119.657 148.983 120.413 134.87 120.543 116.839Z" fill="#FF8B37" stroke="#010101" stroke-width="1.5" stroke-linecap="round" stroke-linejoin="round"/>
<path d="M77.235 166.05C95.227 142.836 118.178 119.875 120.544 116.838" stroke="#010101" stroke-width="1.5" stroke-linecap="round" stroke-linejoin="round"/>
<path d="M77.235 117.991C88.143 130.633 118.912 164.811 120.374 166.051" stroke="#010101" stroke-width="1.5" stroke-linecap="round" stroke-linejoin="round"/>
<path d="M173.329 93.129C173.185 93.587 147.677 93.283 119.11 93.283C118.49 117.377 119.337 145.966 119.337 166.562C131.288 166.562 154.084 166.723 173.151 166.723C172.232 140.549 173.168 119.731 173.329 93.129Z" fill="#FF8B37" stroke="#010101" stroke-width="1.5" stroke-linecap="round" stroke-linejoin="round"/>
<path d="M136.678 93.314C136.678 119.611 136.658 144.555 136.658 166.613L136.678 93.314Z" fill="#FF8B37"/>
<path d="M136.678 93.314C136.678 119.611 136.658 144.555 136.658 166.613" stroke="#010101" stroke-width="1.5" stroke-linecap="round" stroke-linejoin="round"/>
<path d="M153.654 100.337C158.536 100.546 163.426 100.591 168.311 100.472L153.654 100.337Z" fill="#FF8B37"/>
<path d="M153.654 100.337C158.536 100.546 163.426 100.591 168.311 100.472" stroke="#010101" stroke-width="1.5" stroke-linecap="round" stroke-linejoin="round"/>
<path d="M153.653 105.877C156.052 105.857 158.452 105.883 160.85 105.953L153.653 105.877Z" fill="#FF8B37"/>
<path d="M153.653 105.877C156.052 105.857 158.452 105.883 160.85 105.953" stroke="#010101" stroke-width="1.5" stroke-linecap="round" stroke-linejoin="round"/>
<path d="M169.544 157.415C165.842 157.508 159.299 157.404 155.317 157.822C155.231 158.948 155.428 160.358 155.341 161.484C159.422 161.61 165.488 161.452 169.569 161.577C169.664 160.34 169.634 158.959 169.543 157.414L169.544 157.415Z" fill="#FF8B37" stroke="#010101" stroke-width="1.5" stroke-linecap="round" stroke-linejoin="round"/>
</g>
<defs>
<clipPath id="clip0_35_3102">
<rect width="342.035" height="169.651" fill="white"/>
</clipPath>
</defs>
</svg>
