<svg width="224" height="203" viewBox="0 0 224 203" fill="none" xmlns="http://www.w3.org/2000/svg">
<g clip-path="url(#clip0_35_3434)">
<path d="M201.965 62.854C208.464 61.937 213.993 56.283 214.766 49.765C214.215 55.378 217.695 61.152 222.915 63.287C220.242 63.438 217.876 65.28 216.506 67.58C215.136 69.88 214.625 72.588 214.374 75.254C214.231 68.647 208.329 62.689 201.966 62.853L201.965 62.854Z" stroke="#010101" stroke-width="1.5" stroke-linecap="round" stroke-linejoin="round"/>
<path d="M1.82098 145.016C10.534 143.787 17.946 136.208 18.981 127.469C18.242 134.994 22.907 142.734 29.905 145.597C26.322 145.8 23.15 148.269 21.313 151.353C19.476 154.436 18.791 158.067 18.454 161.64C18.262 152.783 10.351 144.796 1.82098 145.016Z" stroke="#010101" stroke-width="1.5" stroke-linecap="round" stroke-linejoin="round"/>
<path d="M85.797 149.895C84.726 154.597 85.858 159.754 88.802 163.575C91.745 167.396 96.442 169.807 101.262 169.971C103.729 170.055 118.327 167.533 115.868 149.984C115.835 149.749 94.727 149.995 85.797 149.895Z" fill="white" stroke="#010101" stroke-width="1.5" stroke-linecap="round" stroke-linejoin="round"/>
<path d="M96.945 54.428C96.667 51.485 95.955 48.489 96.652 45.616C96.749 45.216 96.879 44.811 97.142 44.495C97.405 44.179 97.83 43.968 98.231 44.06C98.572 44.138 98.832 44.412 99.044 44.691C100.103 46.082 100.496 47.865 100.682 49.603C100.859 51.26 100.886 52.942 101.248 54.566C102.868 54.459 104.431 54.283 105.991 54.104C105.681 51.817 105.707 49.496 105.449 47.202C105.19 44.908 104.615 42.581 103.252 40.718C101.889 38.855 99.609 37.539 97.318 37.822C94.17 38.21 92.042 41.403 91.511 44.53C90.98 47.657 91.598 50.853 91.623 54.025C93.785 54.438 95.756 54.618 97.612 54.657C97.391 54.593 97.168 54.521 96.944 54.429L96.945 54.428Z" fill="#7B5FF1" stroke="#010101" stroke-width="1.5" stroke-linecap="round" stroke-linejoin="round"/>
<path d="M46.134 151.584C51.441 150.094 53.953 143.374 55.988 138.251C57.924 133.375 59.305 128.279 60.096 123.092C62.053 110.247 60.833 104.461 61.68 91.495C62.527 78.529 66.574 64.749 76.997 56.991C86.946 49.586 100.72 49.304 112.637 52.735C117.699 54.192 122.672 56.306 126.666 59.74C134.916 66.833 137.738 78.284 138.631 88.123C139.188 99.456 139.751 110.84 142.003 121.961C144.255 133.082 146.801 143.202 153.477 151.6C123.466 157.887 79.96 155.325 46.134 151.584Z" fill="#E3E3FF" stroke="#010101" stroke-width="1.5" stroke-linecap="round" stroke-linejoin="round"/>
<path d="M107.076 14.751C111.278 9.65601 116.12 4.791 122.262 2.363C129.193 -0.375996 137.415 0.412004 143.7 4.417C147.196 6.645 150.189 10.004 150.987 14.072C151.785 18.14 149.869 22.859 146.027 24.415C145.496 24.63 144.922 24.785 144.355 24.705C142.961 24.507 142.118 22.885 142.333 21.493C142.548 20.101 143.535 18.954 144.603 18.037C151.263 12.316 162.106 13.399 168.747 19.142C175.388 24.885 178.149 34.189 177.674 42.956" stroke="#010101" stroke-width="1.5" stroke-linecap="round" stroke-linejoin="round"/>
<path d="M161.769 82.767C148.5 83.162 136.424 83.298 124.908 83.641C121.361 83.747 118.583 87.444 117.904 90.927C117.224 94.41 118.995 98.312 122.202 99.832C123.514 100.454 124.975 100.68 126.419 100.831C130.767 101.286 135.153 101.129 139.521 100.96C146.815 100.679 154.107 100.371 161.399 100.035C164.185 99.907 167.178 99.7 169.352 97.953C171.34 96.355 172.186 93.672 172.1 91.124C171.857 83.923 164.554 82.684 161.77 82.767H161.769Z" fill="#7B5FF1" stroke="#010101" stroke-width="1.5" stroke-linecap="round" stroke-linejoin="round"/>
<path d="M162.99 110.856C149.721 111.251 134.999 111.085 127.045 111.73C122.158 112.126 119.804 115.533 119.124 119.016C118.444 122.499 120.215 126.401 123.422 127.921C124.734 128.543 126.195 128.769 127.639 128.92C131.987 129.375 136.373 129.218 140.741 129.049C148.035 128.768 155.327 128.46 162.619 128.124C165.405 127.996 168.398 127.789 170.572 126.042C172.56 124.444 173.406 121.761 173.32 119.213C173.077 112.012 165.774 110.773 162.99 110.856Z" fill="#010101" stroke="#010101" stroke-width="1.5" stroke-linecap="round" stroke-linejoin="round"/>
<path d="M71.705 85.62C72.097 80.928 72.513 76.136 74.414 71.828C76.315 67.521 80.007 63.711 84.656 62.968" stroke="#010101" stroke-width="1.5" stroke-linecap="round" stroke-linejoin="round"/>
<path d="M0.75 62.51C8.447 64.001 16.145 65.493 23.842 66.984" stroke="#010101" stroke-width="1.5" stroke-linecap="round" stroke-linejoin="round"/>
<path d="M22.615 17.032C27.475 21.591 32.335 26.151 37.195 30.71" stroke="#010101" stroke-width="1.5" stroke-linecap="round" stroke-linejoin="round"/>
<path d="M62.588 22.145C64.744 15.967 66.226 9.55299 67 3.05499" stroke="#010101" stroke-width="1.5" stroke-linecap="round" stroke-linejoin="round"/>
<path d="M157.139 113.871C153.307 117.703 154.883 126.004 160.398 127.793C162.715 128.545 165.799 128.183 167.68 127.49C169.106 126.964 171.266 125.534 172.105 124.266C175.283 119.463 171.61 113.79 169.349 112.439C167.566 111.373 161.368 109.642 157.139 113.871Z" fill="white" stroke="#010101" stroke-width="1.5" stroke-linecap="round" stroke-linejoin="round"/>
<path d="M119.888 86.128C116.056 89.96 117.632 98.261 123.147 100.05C125.464 100.802 128.548 100.44 130.429 99.747C131.855 99.221 134.015 97.791 134.854 96.523C138.032 91.72 134.359 86.047 132.098 84.696C130.315 83.63 124.117 81.899 119.888 86.128Z" fill="white" stroke="#010101" stroke-width="1.5" stroke-linecap="round" stroke-linejoin="round"/>
<path d="M193.994 201.957C185.417 194.042 173.315 178.285 164.156 165.47C161.726 162.071 156.819 155.538 159.999 154.725C161.896 154.24 163.71 155.665 165.194 156.998C168.822 160.258 172.451 163.519 176.079 166.779C169.586 155.284 153.25 125.958 157.825 121.771C159.367 120.36 161.508 122.556 162.458 124.46C168.296 136.165 172.774 144.294 178.613 155.999C174.957 149.717 170.676 138.774 173.672 136.807C176.514 134.94 177.102 139.514 178.685 142.744C180.268 145.974 182.596 149.512 184.735 153.419C180.895 147.156 174.759 135.98 178.731 134.687C182.063 133.603 186.878 145.511 190.55 150.654C187.239 146.822 181.384 134.724 184.452 133.08C187.922 131.221 193.788 142.917 196.416 148.673C193.785 144.675 187.472 132.359 192.003 131.387C194.47 130.858 196.015 134.325 197.227 136.579C208.38 157.314 205.323 170.877 219.324 187.645" fill="white"/>
<path d="M193.994 201.957C185.417 194.042 173.315 178.285 164.156 165.47C161.726 162.071 156.819 155.538 159.999 154.725C161.896 154.24 163.71 155.665 165.194 156.998C168.822 160.258 172.451 163.519 176.079 166.779C169.586 155.284 153.25 125.958 157.825 121.771C159.367 120.36 161.508 122.556 162.458 124.46C168.296 136.165 172.774 144.294 178.613 155.999C174.957 149.717 170.676 138.774 173.672 136.807C176.514 134.94 177.102 139.514 178.685 142.744C180.268 145.974 182.596 149.512 184.735 153.419C180.895 147.156 174.759 135.98 178.731 134.687C182.063 133.603 186.878 145.511 190.55 150.654C187.239 146.822 181.384 134.724 184.452 133.08C187.922 131.221 193.788 142.917 196.416 148.673C193.785 144.675 187.472 132.359 192.003 131.387C194.47 130.858 196.015 134.325 197.227 136.579C208.38 157.314 205.323 170.877 219.324 187.645" stroke="#010101" stroke-width="1.5" stroke-linecap="round" stroke-linejoin="round"/>
<path d="M195.592 184.336C194.434 186.457 194.453 189.203 196.159 190.914C197.865 192.625 200.524 193.13 202.897 192.671C204.428 192.375 206.002 191.603 206.644 190.182C207.214 188.92 206.926 187.449 206.556 186.115C206.239 184.974 205.841 183.8 204.998 182.968C203.815 181.801 198.112 179.72 195.593 184.335L195.592 184.336Z" stroke="#010101" stroke-width="1.5" stroke-linecap="round" stroke-linejoin="round"/>
<path d="M203.278 182.003C205.359 180.673 209.923 178.069 212.004 176.739" stroke="#010101" stroke-width="1.5" stroke-linecap="round" stroke-linejoin="round"/>
<path d="M206.967 187.154C208.943 186.102 212.864 183.273 214.615 181.879" stroke="#010101" stroke-width="1.5" stroke-linecap="round" stroke-linejoin="round"/>
<path d="M186.671 194.319C189.811 191.735 190.69 190.56 194.791 187.47" stroke="#010101" stroke-width="1.5" stroke-linecap="round" stroke-linejoin="round"/>
<path d="M190.944 198.667C193.766 196.414 194.985 195.078 197.807 192.825" stroke="#010101" stroke-width="1.5" stroke-linecap="round" stroke-linejoin="round"/>
<path d="M199.406 183.662L200.524 187.433C201.51 186.808 202.496 186.182 203.482 185.557" stroke="#010101" stroke-width="1.5" stroke-linecap="round" stroke-linejoin="round"/>
</g>
<defs>
<clipPath id="clip0_35_3434">
<rect width="223.664" height="202.707" fill="white"/>
</clipPath>
</defs>
</svg>
