<svg width="226" height="190" viewBox="0 0 226 190" fill="none" xmlns="http://www.w3.org/2000/svg">
<g clip-path="url(#clip0_35_3276)">
<path d="M67.996 187.597C63.409 177.219 58.821 166.841 54.234 156.462C51.022 149.197 47.448 141.501 40.703 137.304C37.064 135.04 31.997 134.137 28.675 136.845C26.34 138.748 25.484 141.901 24.974 144.87C22.427 159.678 25.37 175.368 33.981 188.507C45.469 189.022 57.697 188.081 67.997 187.596L67.996 187.597Z" fill="#55D087" stroke="#010101" stroke-width="1.5" stroke-linecap="round" stroke-linejoin="round"/>
<path d="M33.714 140.349C37.346 156.115 41.902 171.669 47.351 186.903" stroke="#010101" stroke-width="1.5" stroke-linecap="round" stroke-linejoin="round"/>
<path d="M40.466 188.739C36.166 180.315 31.855 171.872 26.666 163.966C22.931 158.275 18.42 152.622 12.068 150.174C9.823 149.309 7.219 148.904 5.058 149.963C2.614 151.161 1.334 153.946 0.933003 156.638C0.0610032 162.49 2.439 168.314 5.148 173.575C7.709 178.547 10.613 183.343 14.93 188.311C25.294 188.444 32.628 188.64 40.466 188.74V188.739Z" fill="#55D087" stroke="#010101" stroke-width="1.5" stroke-linecap="round" stroke-linejoin="round"/>
<path d="M7.80499 151.696C13.26 164.065 19.589 176.049 26.728 187.529L7.80499 151.696Z" fill="#55D087"/>
<path d="M7.80499 151.696C13.26 164.065 19.589 176.049 26.728 187.529" stroke="#010101" stroke-width="1.5" stroke-linecap="round" stroke-linejoin="round"/>
<path d="M206.467 73.3359C206.389 59.3159 206.188 45.2969 205.863 31.2809C205.828 29.7729 205.779 28.2089 205.109 26.8569C204.439 25.5049 203.604 24.8179 201.483 24.7179C190.173 24.7179 178.477 24.7229 169.013 24.7229C166.67 24.7229 163.375 25.0049 163.358 29.5239C163.31 42.6249 163.437 56.2859 163.992 70.0169C165.304 69.8899 166.616 69.7639 167.835 69.5859C168.11 62.2359 166.581 37.8419 167.644 30.8409C167.727 30.2979 167.834 29.7279 168.187 29.3059C168.762 28.6169 169.775 28.5429 170.673 28.5229C179.258 28.3289 187.845 28.1159 196.432 28.1159C199.584 28.1159 201.053 28.7129 201.441 31.7009C202.61 40.6969 201.866 65.6179 202.746 72.3919C203.818 72.2819 204.889 72.1709 206.466 73.3349L206.467 73.3359Z" fill="#010101" stroke="#010101" stroke-width="1.5" stroke-linecap="round" stroke-linejoin="round"/>
<path d="M190.903 21.1899H178.913C177.02 21.1899 175.486 22.7243 175.486 24.6169V27.9389C175.486 29.8316 177.02 31.3659 178.913 31.3659H190.903C192.796 31.3659 194.33 29.8316 194.33 27.9389V24.6169C194.33 22.7243 192.796 21.1899 190.903 21.1899Z" fill="white" stroke="#010101" stroke-width="1.5" stroke-linecap="round" stroke-linejoin="round"/>
<path d="M161.914 177.202C161.569 180.079 161.478 182.986 161.643 185.878C161.668 186.313 161.707 186.773 161.958 187.13C162.17 187.431 162.507 187.618 162.845 187.766C163.826 188.194 165.092 188.32 165.864 187.58C166.519 186.953 166.583 185.947 166.606 185.041C166.669 182.522 166.732 180.002 166.794 177.483C166.796 177.399 166.797 177.31 166.754 177.237C166.675 177.102 166.489 177.085 166.333 177.085C164.829 177.076 163.326 177.068 161.913 177.203L161.914 177.202Z" fill="#010101" stroke="#010101" stroke-width="1.5" stroke-linecap="round" stroke-linejoin="round"/>
<path d="M203.371 177.202C203.026 180.079 202.935 182.986 203.1 185.878C203.125 186.313 203.164 186.773 203.415 187.13C203.627 187.431 203.964 187.618 204.302 187.766C205.283 188.194 206.549 188.32 207.321 187.58C207.976 186.953 208.04 185.947 208.063 185.041C208.126 182.522 208.189 180.002 208.251 177.483C208.253 177.399 208.254 177.31 208.211 177.237C208.132 177.102 207.946 177.085 207.79 177.085C206.286 177.076 204.783 177.068 203.37 177.203L203.371 177.202Z" fill="#010101" stroke="#010101" stroke-width="1.5" stroke-linecap="round" stroke-linejoin="round"/>
<path d="M144.853 82.4119C145.01 112.75 144.413 141.203 144.998 171.685C145.148 179.528 150.345 178.938 152.209 178.999C175.749 179.762 203.154 178.738 216.863 178.738C218.566 178.738 220.261 178.1 221.679 177.157C223.097 176.214 224.162 174.559 224.221 172.038C224.221 141.073 225.057 110.774 225.057 81.6879C225.057 76.7939 226.146 68.2939 213.957 67.5409C203.867 66.9179 170.265 66.3699 157.899 67.6319C156.081 67.8169 154.248 68.0459 152.53 68.6729C146.521 70.8649 144.832 78.0169 144.854 82.4129L144.853 82.4119Z" fill="#FF8B37" stroke="#010101" stroke-width="1.5" stroke-linecap="round" stroke-linejoin="round"/>
<path d="M164.075 81.761L163.661 164.185" stroke="#010101" stroke-width="1.5" stroke-linecap="round" stroke-linejoin="round"/>
<path d="M206.155 81.761L205.74 164.185" stroke="#010101" stroke-width="1.5" stroke-linecap="round" stroke-linejoin="round"/>
<path d="M185.115 81.863L184.7 164.287" stroke="#010101" stroke-width="1.5" stroke-linecap="round" stroke-linejoin="round"/>
<path d="M104.647 4.41935L29.7172 48.708L47.1772 78.2478L122.107 33.9591L104.647 4.41935Z" fill="#E3E3FF" stroke="#010101" stroke-width="1.5" stroke-linecap="round" stroke-linejoin="round"/>
<path d="M49.083 144.518L48.876 172.915C48.857 175.573 48.857 178.328 49.95 180.752C52.185 185.704 58.147 187.68 63.888 188.367C92.491 188.95 121.109 188.852 149.092 187.985C153.09 187.859 157.009 186.051 159.701 183.092C162.393 180.133 163.823 176.061 163.467 171.617C164.523 158.465 164.818 145.253 164.351 132.067C164.249 129.175 164.099 124.139 163.094 121.426C161.032 115.861 157.244 109.767 142.941 110.636C121.443 110.636 97.239 109.553 77.358 110.76C70.884 111.153 63.795 110.923 58.059 113.952C55.236 115.443 52.641 117.586 51.257 120.463C50.362 122.323 50.013 124.394 49.75 126.441C49.028 132.07 49.128 138.32 49.082 144.519L49.083 144.518Z" fill="#E3E3FF" stroke="#010101" stroke-width="1.5" stroke-linecap="round" stroke-linejoin="round"/>
<path d="M94.879 110.392C94.848 106.785 95.115 102.747 97.77 100.305C99.345 98.857 101.504 98.245 103.601 97.822C106.229 97.292 108.902 96.983 111.581 96.9C114.735 96.803 118.099 97.088 120.633 98.968C123.982 101.452 124.989 106.107 124.558 110.255C123.127 110.254 121.696 110.253 120.265 110.252C120.082 107.759 119.637 105.029 117.729 103.414C116.118 102.051 113.854 101.828 111.745 101.775C109.382 101.716 107.016 101.795 104.662 102.011C103.659 102.103 102.625 102.23 101.756 102.739C99.443 104.093 99.32 107.332 99.479 110.008C97.27 109.866 95.052 109.855 94.88 110.393L94.879 110.392Z" fill="#E3E3FF" stroke="#010101" stroke-width="1.5" stroke-linecap="round" stroke-linejoin="round"/>
<path d="M72.465 188.52C73.461 162.49 73.199 138.962 73.199 110.961C75.016 111.044 76.881 110.634 79.494 110.634C80.586 127.068 78.469 181.846 78.697 188.733C75.97 188.772 77.219 188.594 72.465 188.519V188.52Z" fill="#7B5FF1" stroke="#010101" stroke-width="1.5" stroke-linecap="round" stroke-linejoin="round"/>
<path d="M135.912 188.166C136.908 162.136 136.646 138.608 136.646 110.607C138.463 110.69 140.329 110.634 142.941 110.634C144.033 127.068 141.916 181.846 142.144 188.733C139.417 188.772 140.665 188.24 135.911 188.166H135.912Z" fill="#7B5FF1" stroke="#010101" stroke-width="1.5" stroke-linecap="round" stroke-linejoin="round"/>
<path d="M95.607 127.196C91.143 126.671 87.015 130.22 85.327 134.387C84.043 137.559 83.909 141.412 85.87 144.217C86.925 145.727 88.492 146.811 90.141 147.631C93.529 149.314 97.409 149.989 101.166 149.55C103.205 149.312 105.309 148.692 106.73 147.21C107.568 146.336 108.113 145.215 108.474 144.058C109.645 140.302 108.878 135.996 106.482 132.876C104.086 129.755 100.148 127.731 95.608 127.197L95.607 127.196Z" fill="white" stroke="#010101" stroke-width="1.5" stroke-linecap="round" stroke-linejoin="round"/>
<path d="M134.34 151.359C128.649 150.251 123.017 148.833 117.48 147.113C115.657 153.217 114.085 159.396 112.769 165.629C117.451 166.767 123.626 168.062 129.855 170.364C130.485 167.571 133.766 155.195 134.341 151.359H134.34Z" fill="#FF8B37" stroke="#010101" stroke-width="1.5" stroke-linecap="round" stroke-linejoin="round"/>
<path d="M87.589 0.750372L17.7906 52.7518L38.2913 80.2686L108.09 28.2672L87.589 0.750372Z" fill="white" stroke="#010101" stroke-width="1.5" stroke-linecap="round" stroke-linejoin="round"/>
<path d="M42.911 63.009C42.911 63.009 42.819 55.827 42.819 42.199" stroke="#010101" stroke-width="1.5" stroke-linecap="round" stroke-linejoin="round"/>
<path d="M34.373 57.244C37.302 54.723 40.231 52.202 43.16 49.682C45.086 52.234 47.316 54.556 49.787 56.585" stroke="#010101" stroke-width="1.5" stroke-linecap="round" stroke-linejoin="round"/>
<path d="M37.916 66.869L42.369 63.3C42.761 62.986 43.065 62.894 43.632 63.266C44.93 64.117 46.159 65.7 47.303 66.748" stroke="#010101" stroke-width="1.5" stroke-linecap="round" stroke-linejoin="round"/>
<path d="M56.652 38.3139C65.567 30.0589 75.146 22.522 85.266 15.799" stroke="#010101" stroke-width="1.5" stroke-linecap="round" stroke-linejoin="round"/>
<path d="M61.135 45.7419C67.325 41.1949 73.514 36.6479 79.704 32.1019" stroke="#010101" stroke-width="1.5" stroke-linecap="round" stroke-linejoin="round"/>
</g>
<defs>
<clipPath id="clip0_35_3276">
<rect width="225.831" height="189.489" fill="white"/>
</clipPath>
</defs>
</svg>
