<?xml version="1.0" encoding="UTF-8"?>
<svg id="Layer_2" data-name="Layer 2" xmlns="http://www.w3.org/2000/svg" viewBox="0 0 41.06 56.4">
  <defs>
    <style>
      .cls-1 {
        opacity: .4;
      }

      .cls-1, .cls-2, .cls-3, .cls-4, .cls-5, .cls-6, .cls-7, .cls-8 {
        fill: none;
        stroke-linecap: round;
        stroke-linejoin: round;
      }

      .cls-1, .cls-2, .cls-5 {
        isolation: isolate;
      }

      .cls-1, .cls-2, .cls-8 {
        stroke: #e27a0a;
      }

      .cls-1, .cls-7 {
        stroke-width: 2px;
      }

      .cls-9 {
        fill: #ffb966;
      }

      .cls-10 {
        fill: #9faf00;
      }

      .cls-11 {
        fill: #d8ff33;
      }

      .cls-12 {
        fill: #87c400;
      }

      .cls-13 {
        fill: #4c4047;
      }

      .cls-2 {
        opacity: .41;
      }

      .cls-2, .cls-5, .cls-6, .cls-8 {
        stroke-width: 4px;
      }

      .cls-3, .cls-4 {
        stroke-width: 1.15px;
      }

      .cls-3, .cls-5, .cls-6 {
        stroke: #fff;
      }

      .cls-4 {
        stroke: #4c4047;
      }

      .cls-5 {
        opacity: .32;
      }

      .cls-7 {
        stroke: #87c400;
      }
    </style>
  </defs>
  <g id="Layer_2-2" data-name="Layer 2">
    <g>
      <g>
        <path class="cls-12" d="M36.99,16.56l2.2,1.1c1.6,.8,1.9,3,.5,4.1l-6.4,3.9-2.8-3.5"/>
        <path class="cls-4" d="M32.89,25.86l6.7-4.1c1.4-1.1,1.1-3.3-.5-4.1l-2.2-1.1"/>
      </g>
      <path class="cls-10" d="M27.19,9.46l-1.8-1.7c-1.3-1.2-3.5-.7-4,1l-1.4,7.4,4.3,1.4"/>
      <path class="cls-4" d="M19.99,16.56l1.5-7.7c.6-1.7,2.7-2.2,4-1l1.8,1.7"/>
      <path class="cls-11" d="M22.59,16.26l2-10.1c.2-1,1.3-1.4,2.1-.9l1,.7,2.9-3.3,1-1.2c1-1.1,2.7-1.3,3.9-.5h0c1.2,.8,1.6,2.5,.9,3.8l-2.8,5.4,1.5-.8c.8-.4,1.8-.4,2.5,.2h0c.9,.6,1.2,1.7,.9,2.7l-1.3,4.3h0c1.1,.7,1.1,2.3,0,3.1l-4.6,3.1"/>
      <line class="cls-7" x1="26.29" y1="17.46" x2="31.99" y2="21.26"/>
      <line class="cls-7" x1="24.99" y1="10.26" x2="28.59" y2="12.56"/>
      <line class="cls-7" x1="34.99" y1="15.26" x2="37.09" y2="16.66"/>
      <path class="cls-9" d="M21.89,39.56l-12.6,14.5c-1.6,2-4.5,2.3-6.6,.9h0c-2.1-1.4-2.7-4.2-1.5-6.4L18.39,15.86c.5-1,1.8-1.2,2.7-.6l12.1,8.3c.9,.6,1.1,1.9,.4,2.8l-7.3,8.3"/>
      <path class="cls-3" d="M31.59,3.46l1-1.2c1-1.1,2.7-1.3,3.9-.5h0"/>
      <line class="cls-4" x1="24.59" y1="8.76" x2="28.59" y2="11.56"/>
      <line class="cls-4" x1="34.99" y1="13.66" x2="37.49" y2="15.36"/>
      <circle class="cls-13" cx="23.99" cy="37.26" r=".8"/>
      <line class="cls-2" x1="9.49" y1="51.46" x2="19.79" y2="39.96"/>
      <line class="cls-8" x1="12.39" y1="48.26" x2="16.49" y2="43.76"/>
      <g>
        <line class="cls-2" x1="26.09" y1="32.36" x2="31.09" y2="26.66"/>
        <line class="cls-8" x1="28.19" y1="30.16" x2="28.19" y2="30.06"/>
      </g>
      <line class="cls-4" x1="10.59" y1="45.36" x2="14.29" y2="47.86"/>
      <line class="cls-4" x1="26.19" y1="24.66" x2="31.59" y2="28.36"/>
      <line class="cls-5" x1="17.79" y1="19.46" x2="7.79" y2="38.56"/>
      <line class="cls-6" x1="14.89" y1="25.06" x2="10.59" y2="33.26"/>
      <line class="cls-4" x1="11.79" y1="29.76" x2="17.39" y2="33.56"/>
      <g>
        <path class="cls-4" d="M30.79,2.76l1-1.2c1-1.1,2.7-1.3,3.9-.5h0c1.2,.8,1.6,2.5,.9,3.8l-2.9,5.4,1.5-.8c.8-.4,1.8-.4,2.5,.2h0c.9,.6,1.2,1.7,.9,2.7l-1.3,4.3h0c1.1,.7,1.1,2.3,0,3.1l-4.6,3.1"/>
        <path class="cls-4" d="M22.89,16.06l1.9-9.8c.2-1,1.3-1.4,2.1-.9l1,.7"/>
      </g>
      <path class="cls-1" d="M1.49,51.86s1.4,3.4,4.7,3"/>
      <path class="cls-4" d="M16.69,19.16l1.8-3.4c.5-1,1.8-1.2,2.7-.6l12.1,8.3c.9,.6,1.1,1.9,.4,2.8l-7.3,8.3"/>
      <line class="cls-4" x1="4.69" y1="42.06" x2="15.39" y2="21.66"/>
      <path class="cls-4" d="M21.89,39.56l-12.6,14.5c-1.6,2-4.5,2.3-6.6,.9h0c-2.1-1.4-2.7-4.2-1.5-6.4l1.9-3.7"/>
    </g>
  </g>
</svg>