<?xml version="1.0" encoding="UTF-8"?>
<svg id="Layer_2" data-name="Layer 2" xmlns="http://www.w3.org/2000/svg" viewBox="0 0 59.21 61.81">
  <defs>
    <style>
      .cls-1 {
        fill: #efa603;
      }

      .cls-2 {
        fill: #fff;
      }

      .cls-3 {
        fill: #ffe5a4;
      }

      .cls-4 {
        fill: #ffd55f;
      }

      .cls-5 {
        fill: #92ff5f;
      }

      .cls-6 {
        fill: none;
        stroke: #4c4047;
        stroke-linecap: round;
        stroke-linejoin: round;
        stroke-width: 1.01px;
      }
    </style>
  </defs>
  <g id="Layer_2-2" data-name="Layer 2">
    <g>
      <path class="cls-5" d="M34.2,9.91c-2.5,3.6-8.7,3.5-8.7,3.5,0,0-2.1-5.8,.4-9.4S34.6,.51,34.6,.51c0,0,2.1,5.8-.4,9.4Z"/>
      <path class="cls-4" d="M22.2,58.91C10.2,58.91,.5,49.21,.5,37.21S10.2,15.51,22.2,15.51"/>
      <path class="cls-1" d="M28.3,58.91c-12,0-21.7-9.7-21.7-21.7S16.3,15.51,28.3,15.51"/>
      <circle class="cls-3" cx="35.5" cy="38.11" r="23.2"/>
      <circle class="cls-6" cx="35.5" cy="38.11" r="23.2"/>
      <path class="cls-6" d="M1,32.91C3,23.01,11.8,15.61,22.2,15.61"/>
      <path class="cls-6" d="M4.2,49.31c-2.3-3.5-3.7-7.6-3.7-12.1"/>
      <path class="cls-6" d="M22.2,58.91c-5.6,0-10.8-2.2-14.6-5.7"/>
      <circle class="cls-4" cx="34.9" cy="38.11" r="19"/>
      <ellipse class="cls-3" cx="35.5" cy="38.71" rx="2.3" ry="2.2"/>
      <line class="cls-6" x1="35.5" y1="19.31" x2="35.5" y2="35.61"/>
      <line class="cls-6" x1="32.6" y1="38.51" x2="16.6" y2="38.51"/>
      <line class="cls-6" x1="54.3" y1="38.51" x2="38.4" y2="38.51"/>
      <line class="cls-6" x1="35.5" y1="41.01" x2="35.5" y2="56.91"/>
      <line class="cls-6" x1="48.5" y1="51.31" x2="37.6" y2="40.21"/>
      <line class="cls-6" x1="33.8" y1="36.41" x2="22.1" y2="24.91"/>
      <line class="cls-6" x1="37.6" y1="36.41" x2="48.8" y2="25.21"/>
      <line class="cls-6" x1="22.5" y1="51.41" x2="33.7" y2="40.21"/>
      <path class="cls-6" d="M16.1,8.31s6.6,1.2,7.6,5.8"/>
      <path class="cls-6" d="M34.2,9.91c-2.5,3.6-8.7,3.5-8.7,3.5,0,0-2.1-5.8,.4-9.4S34.6,.51,34.6,.51c0,0,2.1,5.8-.4,9.4Z"/>
      <path class="cls-6" d="M30.8,6.41c-.8,3.5-5.3,7-5.3,7"/>
      <circle class="cls-6" cx="35.5" cy="38.11" r="19"/>
      <ellipse class="cls-6" cx="35.5" cy="38.31" rx="2.3" ry="2.2"/>
      <path class="cls-1" d="M20,36.21h6.9c.9,0,.9-1.4,0-1.4h-6.9c-.9,0-.9,1.4,0,1.4h0Z"/>
      <path class="cls-1" d="M27,52.21c1.7-1.7,3.4-3.4,5.1-5.1,.3-.3,.3-.7,0-1s-.7-.3-1,0c-1.7,1.7-3.4,3.4-5.1,5.1-.3,.3-.3,.7,0,1,.3,.2,.8,.2,1,0h0Z"/>
      <path class="cls-2" d="M37,23.01v6.9c0,.9,1.4,.9,1.4,0v-6.9c0-.9-1.4-.9-1.4,0h0Z"/>
      <path class="cls-1" d="M26.8,26.41l4.3,4.3c.3,.3,.7,.3,1,0s.3-.7,0-1l-4.3-4.3c-.3-.3-.7-.3-1,0-.3,.3-.3,.8,0,1h0Z"/>
      <path class="cls-2" d="M43.5,43.41h4.8c.4,0,.7-.3,.7-.7s-.3-.7-.7-.7h-4.8c-.4,0-.7,.3-.7,.7s.3,.7,.7,.7h0Z"/>
      <path class="cls-1" d="M43.9,36.61h6.8c.9,0,.9-1.4,0-1.4h-6.8c-.9,0-.9,1.4,0,1.4h0Z"/>
      <path class="cls-2" d="M20.3,41.71h6.4c.9,0,.9-1.4,0-1.4h-6.4c-1,0-1,1.4,0,1.4h0Z"/>
      <path class="cls-2" d="M4.4,33.41c.1-.6,.3-1.2,.5-1.8,0-.1,.1-.3,.1-.4s0-.1,.1-.2,0-.1,0,0v-.1c.1-.2,.2-.5,.4-.7,.2-.3,.1-.8-.2-1s-.8-.1-1,.2c-.6,1.1-1,2.3-1.2,3.6-.1,.4,.1,.8,.5,.9,.3,0,.7-.2,.8-.5h0Z"/>
    </g>
  </g>
</svg>