<?xml version="1.0" encoding="UTF-8"?>
<svg id="Layer_2" data-name="Layer 2" xmlns="http://www.w3.org/2000/svg" viewBox="0 0 65.71 42.51">
  <defs>
    <style>
      .cls-1 {
        fill: #fff;
      }

      .cls-2 {
        fill: #cacad8;
      }

      .cls-3 {
        fill: #a3a3c6;
      }

      .cls-4 {
        opacity: .55;
        stroke: #8080af;
        stroke-width: 2px;
      }

      .cls-4, .cls-5 {
        isolation: isolate;
      }

      .cls-4, .cls-6, .cls-7 {
        fill: none;
        stroke-linecap: round;
        stroke-linejoin: round;
      }

      .cls-5 {
        fill: #8080af;
        opacity: .81;
      }

      .cls-6 {
        stroke: #4c4047;
        stroke-width: 1.01px;
      }

      .cls-7 {
        stroke: #fff;
        stroke-width: 1.41px;
      }
    </style>
  </defs>
  <g id="Layer_2-2" data-name="Layer 2">
    <g>
      <path class="cls-2" d="M24.6,8.1s-2.9-3.7-6.4-4.8c.1-.2,22.3-10.1,33.7,8.6"/>
      <path class="cls-2" d="M14.6,29.5s-3.6,5.7-1.9,7c5,3.9,14.1,2.1,14.1,2.1"/>
      <path class="cls-5" d="M16.2,29.4s-2.6,4.1-1.4,5.1c3.6,2.8,10.1,1.5,10.1,1.5"/>
      <path class="cls-2" d="M.5,33.5c5.4-1.7,11.9-6.7,11.9-6.7,0,0,12.4,15.5,27.7,15.2s22.8-10.9,22.8-10.9l-4.2-2.7,6.5-.1S56.9,7.7,36.6,6.5c-16.2-1-23.2,10.8-23.2,10.8C13,8.2,2.9,6.1,2.9,6.1c0,0,6,14.3-2.4,27.4H.5Z"/>
      <path class="cls-3" d="M62.7,30.5s-7.5,10.6-22.8,10.9S12.2,26.2,12.2,26.2c0,0-6.5,4.9-11.9,6.7,1.7-2.6,2.8-5.2,3.4-7.8,.2-.1,.4-.2,.6-.3,4.6-2.4,10.3-1.8,14.3,1.5,5.1,4.2,12.7,8.9,21.2,8.8,9-.2,15.3-3.9,19-7l3.9,2.4h0Z"/>
      <path class="cls-6" d="M8.2,8.5c-2.6-1.8-5.3-2.4-5.3-2.4,0,0,5.9,14.4-2.4,27.4,5.4-1.7,11.9-6.7,11.9-6.7,0,0,12.4,15.5,27.7,15.2s22.8-10.9,22.8-10.9l-4.2-2.7,6.5-.1S56.9,7.7,36.6,6.5"/>
      <path class="cls-6" d="M32.8,6.5c-13.6,.9-19.4,10.8-19.4,10.8-.1-2.5-1-4.5-2.2-6.1"/>
      <path class="cls-6" d="M52.3,13.2s-10.1,9.1-5.3,27.4"/>
      <circle class="cls-1" cx="53.4" cy="21.2" r="1.9"/>
      <path class="cls-6" d="M14.6,29.5s-3.6,5.7-1.9,7c5,3.9,14.1,2.1,14.1,2.1"/>
      <path class="cls-6" d="M14.9,15.7c.1,0,3.9-1.7,9.3-2.6"/>
      <path class="cls-6" d="M44.1,20.9s-3.5,6.7-1.1,16"/>
      <circle class="cls-6" cx="53.4" cy="21.3" r="1.9"/>
      <path class="cls-7" d="M24.3,2.7s7.1-2.1,15.6,.5"/>
      <path class="cls-6" d="M24.6,8.1s-2.9-3.7-6.4-4.8c.1-.2,22.3-10.1,33.7,8.6"/>
      <g>
        <ellipse class="cls-1" cx="41.25" cy="10.52" rx="1.9" ry="1.3" transform="translate(9.59 38.97) rotate(-56.25)"/>
        <ellipse class="cls-1" cx="45.21" cy="10.85" rx=".8" ry=".9" transform="translate(11.07 42.41) rotate(-56.25)"/>
      </g>
      <path class="cls-4" d="M29.7,13.4s7-.6,13.2,2.7"/>
      <path class="cls-4" d="M33.9,13.5c1.9,.2,4.2,.6,6.5,1.5"/>
      <path class="cls-6" d="M29.4,12.6c6.2-.2,13.2,1,18.8,6.4"/>
    </g>
  </g>
</svg>