<?xml version="1.0" encoding="UTF-8"?>
<svg id="Layer_2" data-name="Layer 2" xmlns="http://www.w3.org/2000/svg" viewBox="0 0 59.77 60.22">
  <defs>
    <style>
      .cls-1 {
        fill: #fff;
      }

      .cls-2 {
        fill: #ade700;
      }

      .cls-3 {
        fill: #c6dee5;
      }

      .cls-4 {
        fill: #d8ff33;
      }

      .cls-5 {
        fill: #a2ce00;
      }

      .cls-6 {
        stroke: #4c4047;
        stroke-width: .96px;
      }

      .cls-6, .cls-7 {
        fill: none;
        stroke-linecap: round;
        stroke-linejoin: round;
      }

      .cls-7 {
        stroke: #fff;
        stroke-width: 1.35px;
      }
    </style>
  </defs>
  <g id="Layer_2-2" data-name="Layer 2">
    <g>
      <path class="cls-2" d="M28.39,18.04c1.2-2.6,3-4.9,5.2-6.6s5.2-2.6,8-2.3c.2,0,.4,.1,.5,.2,.1,.1,.2,.2,.2,.4,1.8,5.6-.6,12.3-5.6,15.5h-8.5l.2-7.2h0Z"/>
      <path class="cls-4" d="M28.49,20.64c.8-1.7,2-3.3,3.5-4.4,1.5-1.1,3.4-1.8,5.3-1.6,.1,0,.3,0,.4,.1,.1,.1,.1,.2,.1,.2,1.2,3.7-.4,8.2-3.7,10.3h-5.6v-4.6h0Z"/>
      <path class="cls-5" d="M22.49,25.74c-2.6-1.5-6.1-1.4-8.5-3.3-2.9-2.3-3.2-6.6-2.7-10.3s1.4-7.6-.1-11c.4-.5,1.1-.4,1.7-.2,5,1.6,9.6,4.8,12.4,9.2,2.8,4.4,4,10,2.7,15.1"/>
      <path class="cls-4" d="M23.49,25.54c-1.8-1.1-2.2-2.6-3.9-3.8-2-1.6-4.5-3.2-4.2-5.7s-1.1-8.6-2.1-10.9c.2-.3,.8-.2,1.1-.1,3.4,1.1,8.6,6.6,10.6,9.7,2,3,2.3,7.6,1.5,11.1"/>
      <path class="cls-1" d="M51.89,25.74h7.5c0,16.3-13.2,29.4-29.4,29.4S.49,41.94,.49,25.74H46.89"/>
      <path class="cls-3" d="M59.09,27.04c0,16.3-12.8,28.2-29.1,28.2S.69,42.94,.69,26.64l.3-.2c2,14.3,14.2,24.6,29.1,24.6s26.7-9.7,28.8-24h.2Z"/>
      <path class="cls-3" d="M40.59,53.94v1.7c-3.3,1.3-7,2.1-10.8,2.1s-7.5-.7-10.8-2.1v-2.1h.4c3.2,1.2,6,1.2,9.7,1.2,3.2,0,7.7-1,10.6-1.9l.9,1.1Z"/>
      <g>
        <path class="cls-3" d="M12.69,40.24H7.09c-.4,0-.7-.3-.7-.7s.3-.7,.7-.7h5.6c.4,0,.7,.3,.7,.7s-.3,.7-.7,.7h0Z"/>
        <path class="cls-3" d="M16.59,37.94H5.09c-.4,0-.7-.3-.7-.7s.3-.7,.7-.7h11.4c.4,0,.7,.3,.7,.7s-.3,.7-.6,.7h0Z"/>
        <path class="cls-3" d="M19.49,37.94h-.6c-.4,0-.7-.3-.7-.7s.3-.7,.7-.7h.6c.4,0,.7,.3,.7,.7s-.4,.7-.7,.7Z"/>
        <path class="cls-3" d="M9.39,35.54H2.89c-.4,0-.7-.3-.7-.7s.3-.7,.7-.7h6.5c.4,0,.7,.3,.7,.7s-.3,.7-.7,.7Z"/>
        <path class="cls-3" d="M11.99,35.54h-.2c-.4,0-.7-.3-.7-.7s.3-.7,.7-.7h.2c.4,0,.7,.3,.7,.7s-.3,.7-.7,.7Z"/>
      </g>
      <path class="cls-6" d="M40.79,53.64v3.9c0,1.2-1,2.2-2.2,2.2H21.29c-1.2,0-2.2-1-2.2-2.2v-4.4"/>
      <path class="cls-3" d="M26.39,48.34H10.69c-.2,0-.5-.2-.5-.4s.2-.4,.5-.4h15.7c.2,0,.5,.2,.5,.4s-.2,.4-.5,.4Z"/>
      <path class="cls-6" d="M21.39,25.54c-2.5-1.1-5.5-1.7-7.7-3.4-2.9-2.3-3.2-6.6-2.7-10.3s1.4-7.6-.1-11c.4-.5,1.1-.4,1.7-.2,5,1.6,9.6,4.8,12.4,9.2s4,10,2.7,15.1"/>
      <path class="cls-6" d="M28.39,18.04c1.2-2.6,3-4.9,5.2-6.6s5.2-2.6,8-2.3c.2,0,.4,.1,.5,.2,.1,.1,.2,.2,.2,.4,1.7,5.4-.9,12.2-5.5,15.6"/>
      <path class="cls-6" d="M16.39,8.24c4.7,4.5,7.6,11.9,8.4,17.1"/>
      <line class="cls-7" x1="7.39" y1="27.24" x2="23.99" y2="27.24"/>
      <line class="cls-6" x1="42.89" y1="25.74" x2="49.59" y2="25.74"/>
      <path class="cls-6" d="M32.89,55.04h-.2c-.9,.1-1.8,.1-2.8,.1C14.39,55.14,1.69,43.14,.49,27.94c-.1-1.2,.9-2.2,2.1-2.2H40.49"/>
      <path class="cls-6" d="M51.89,25.74h5.3c1.2,0,2.2,1.1,2.1,2.3-1,12.8-10.2,23.4-22.4,26.3"/>
      <ellipse class="cls-4" cx="15.49" cy="15.04" rx="1" ry="1.8"/>
      <ellipse class="cls-4" cx="37.88" cy="19.92" rx="1.7" ry="1.1" transform="translate(-2.99 32.62) rotate(-45)"/>
      <ellipse class="cls-4" cx="33.29" cy="16.04" rx="1" ry="1.8"/>
      <line class="cls-6" x1="10.09" y1="47.14" x2="23.99" y2="47.14"/>
      <line class="cls-6" x1="17.19" y1="15.14" x2="22.19" y2="16.74"/>
      <line class="cls-6" x1="20.19" y1="18.94" x2="23.49" y2="19.94"/>
      <line class="cls-6" x1="20.49" y1="13.24" x2="22.19" y2="9.74"/>
      <line class="cls-6" x1="22.29" y1="16.94" x2="23.99" y2="13.84"/>
      <g>
        <path class="cls-6" d="M28.29,25.34c3.2-2.7,7.4-6.4,9.9-12.1"/>
        <line class="cls-6" x1="33.29" y1="16.04" x2="34.29" y2="19.14"/>
        <line class="cls-6" x1="31.19" y1="18.14" x2="32.19" y2="21.74"/>
        <line class="cls-6" x1="31.89" y1="22.24" x2="34.59" y2="22.64"/>
        <line class="cls-6" x1="35.39" y1="18.04" x2="38.59" y2="18.14"/>
        <line class="cls-6" x1="33.79" y1="20.34" x2="35.89" y2="20.74"/>
      </g>
    </g>
  </g>
</svg>