<?xml version="1.0" encoding="UTF-8"?>
<svg id="Layer_2" data-name="Layer 2" xmlns="http://www.w3.org/2000/svg" viewBox="0 0 57.73 52.25">
  <defs>
    <style>
      .cls-1 {
        fill: #ffb000;
      }

      .cls-2 {
        fill: #fff;
      }

      .cls-3 {
        fill: #ffd55f;
      }

      .cls-4 {
        fill: #af694c;
      }

      .cls-5 {
        stroke-width: 1.16px;
      }

      .cls-5, .cls-6, .cls-7, .cls-8 {
        stroke-linecap: round;
        stroke-linejoin: round;
      }

      .cls-5, .cls-6, .cls-7, .cls-8, .cls-9 {
        fill: none;
      }

      .cls-5, .cls-7 {
        stroke: #4c4047;
      }

      .cls-6 {
        stroke: #fff1cf;
      }

      .cls-6, .cls-8, .cls-9 {
        stroke-width: 1.86px;
      }

      .cls-7 {
        stroke-width: .93px;
      }

      .cls-8 {
        stroke: #d67a00;
      }

      .cls-9 {
        stroke: #e29700;
        stroke-miterlimit: 10;
      }
    </style>
  </defs>
  <g id="Layer_2-2" data-name="Layer 2">
    <g>
      <path class="cls-3" d="M29.44,28.69c-6,3.5-14.3,5.5-25.6,2.8-1-.2-2.1,.1-2.7,1l-.1,.1c-.9,1.3-.4,3,.9,3.8,4.9,2.7,21.8,10.8,35.4,3,11.7-6.7,13.3-17.2,13.3-22.5,0-1.9-1.1-3.6-2.9-4.3h0l-1.8-10-1,6.6-4,7.8-4,5.5-3.4,3.3-4.1,2.9h0Z"/>
      <path class="cls-9" d="M1.14,33.59s36.7,16.6,48-15.4"/>
      <path class="cls-5" d="M29.44,28.69c-6,3.5-14.3,5.5-25.6,2.8-1-.2-2.1,.1-2.7,1l-.1,.1c-.9,1.3-.4,3,.9,3.8,4.9,2.7,21.8,10.8,35.4,3,11.7-6.7,13.3-17.2,13.3-22.5,0-1.9-1.1-3.6-2.9-4.3h0l-1.8-10"/>
      <path class="cls-7" d="M1.14,33.19s36.3,16.1,47.6-15.8"/>
      <path class="cls-3" d="M47.74,43.89c1.7-1.4,3.2-3,4.5-4.9,7.7-11.1,4.6-21.3,2.4-26-.8-1.7-2.6-2.8-4.5-2.7h0l-3.1-8.3c-.3-.9-1.1-1.5-2-1.4h0c-1.2,.1-2.1,1.2-1.9,2.4,.4,1.7,2.8,8.4,2.7,8.4,0,0,3.6,28.5-27.3,35-1,.2-1.9,1-2,2.1v.1c-.2,1.5,.9,2.9,2.4,3,4.2,.2,15.9,.4,25.2-5.1"/>
      <path class="cls-1" d="M52.14,39.29c-1.3,1.9-2.8,3.5-4.4,4.8l-3.5,2.5c-9.1,5.4-20.4,5.2-24.6,5-1.3-.1-2.3-1.1-2.4-2.4,4.9-.1,20.7-1.7,27.9-16,.7-1.3,1.3-2.7,2-4.2,2.7-6.4,2.8-13.6,.4-20.1l-1.7-4.5c.8,.1,1.4-1.3,1.7-.5l2.7,6.5c1.9-.1,3.6,1.7,4.4,3.4,2.1,4.6,5,14.6-2.5,25.5h0Z"/>
      <path class="cls-2" d="M20.84,35.89c3.5-.4,6.8-1.5,10-3.1,1.2-.6,.1-2.4-1.1-1.8-2.8,1.5-5.8,2.5-8.9,2.9-.6,.1-1.1,.4-1.1,1,0,.5,.5,1.1,1.1,1h0Z"/>
      <path class="cls-4" d="M45.04,.89h0c.9,0,1.7,.7,1.8,1.6v.3c0,.9-.7,1.7-1.6,1.8h0c-.9,0-1.7-.7-1.8-1.6v-.3c0-.9,.7-1.7,1.6-1.8Z"/>
      <path class="cls-5" d="M43.54,4.39s2.9,.9,3.9-1.3"/>
      <circle class="cls-2" cx="33.14" cy="30.19" r="1.1"/>
      <path class="cls-8" d="M43.84,37.69s4.1-4.9,4.6-9.3"/>
      <path class="cls-8" d="M32.54,46.59s2.1-.8,3.5-2"/>
      <path class="cls-8" d="M21.54,49.59s4-.5,5.3-.9"/>
      <path class="cls-7" d="M16.84,48.99s28.7,1.7,32.5-28.2"/>
      <path class="cls-8" d="M55.64,19.79s1.8,7-2.5,16.1"/>
      <path class="cls-5" d="M47.74,43.89c1.7-1.4,3.2-3,4.5-4.9,7.7-11.1,4.6-21.3,2.4-26-.8-1.7-2.6-2.8-4.5-2.7h0l-3.1-8.3c-.3-.9-1.1-1.5-2-1.4h0c-1.2,.1-2.1,1.2-1.9,2.4,.4,1.7,2.8,8.4,2.7,8.4,0,0,3.6,28.5-27.3,35-1,.2-1.9,1-2,2.1v.1c-.2,1.5,.9,2.9,2.4,3,4.2,.2,15.9,.4,25.2-5.1"/>
      <path class="cls-6" d="M40.94,18.59s-2.2,3.5-4.7,5.8"/>
      <line class="cls-6" x1="43.64" y1="13.79" x2="42.54" y2="16.09"/>
      <path class="cls-5" d="M43.54,11.59s-2.6,8.1-10,14.2"/>
    </g>
  </g>
</svg>