<?xml version="1.0" encoding="UTF-8"?>
<svg id="Layer_2" data-name="Layer 2" xmlns="http://www.w3.org/2000/svg" viewBox="0 0 30.91 57.47">
  <defs>
    <style>
      .cls-1 {
        opacity: .27;
      }

      .cls-1, .cls-2, .cls-3, .cls-4, .cls-5 {
        fill: none;
        stroke-linecap: round;
        stroke-linejoin: round;
      }

      .cls-1, .cls-3 {
        isolation: isolate;
        stroke: #c63509;
      }

      .cls-1, .cls-3, .cls-4 {
        stroke-width: 2px;
      }

      .cls-2 {
        stroke-width: .75px;
      }

      .cls-2, .cls-5 {
        stroke: #4c4047;
      }

      .cls-6 {
        fill: #ea5c2a;
      }

      .cls-7 {
        fill: #f48456;
      }

      .cls-8 {
        fill: #fff;
      }

      .cls-9 {
        fill: #c6dee5;
      }

      .cls-3 {
        opacity: .55;
      }

      .cls-4 {
        stroke: #ffcebd;
      }

      .cls-5 {
        stroke-width: 1.01px;
      }
    </style>
  </defs>
  <g id="Layer_2-2" data-name="Layer 2">
    <g>
      <rect class="cls-9" x="10.71" y="36.67" width="8.4" height="2.9"/>
      <path class="cls-7" d="M28,23.57c1.5-2.2,2.4-4.9,2.4-7.8,.1-7.8-5.9-14.5-13.7-15.2C7.81-.23,.41,6.77,.41,15.47c0,3,.9,5.8,2.4,8.2,1.9,3,3,6.3,3,9.8v1.6c0,1,.8,1.8,1.8,1.8h15.2c1,0,1.8-.8,1.8-1.8v-1c.1-3.7,1.3-7.3,3.4-10.5h0Z"/>
      <path class="cls-6" d="M30.11,15.47c.1,3.2-.8,6.1-2.4,8.5-2.1,3.2-3.3,6.8-3.4,10.6v.1c0,1-.7,2.3-1.7,2.3l-6-.1,.1-2.3c0-3.8,1.3-7.4,3.4-10.6,1.5-2.3,2.4-4.9,2.4-7.9,.1-6.9-4.7-13-11.2-14.7,2-.5,4.2-.7,6.5-.2,7,1.2,12.1,7.3,12.3,14.3h0Z"/>
      <g>
        <line class="cls-2" x1="25.11" y1="34.17" x2="29.11" y2="34.17"/>
        <line class="cls-2" x1="22.91" y1="31.77" x2="27" y2="31.77"/>
        <line class="cls-2" x1="21" y1="29.27" x2="24.91" y2="29.27"/>
      </g>
      <path class="cls-5" d="M20.11,37.47v9.1h.3c2.9,0,5.2,2.3,5.2,5.2s-2.3,5.2-5.2,5.2c-1.8,0-3.4-1-4.4-2.4-.9,1.4-2.5,2.4-4.4,2.4-2.9,0-5.2-2.3-5.2-5.2s2.3-5.2,5.2-5.2h.3v-9.1"/>
      <path class="cls-5" d="M4,5.87C2,8.17,.81,11.07,.5,14.27"/>
      <g>
        <line class="cls-2" x1="13.31" y1="37.17" x2="13.31" y2="41.77"/>
        <line class="cls-2" x1="13.31" y1="43.57" x2="13.31" y2="44.87"/>
      </g>
      <path class="cls-8" d="M8.31,7.17s0-.1,0,0h0s.2-.2,.3-.2c.1-.1,.3-.3,.3-.5v-.6l-.1-.3-.2-.2-.2-.2c-.1,0-.2-.1-.3-.1h-.6c-.1,0-.2,.1-.3,.1h0l-.2,.2c-.1,.1-.1,.2-.2,.2l-.1,.3v.6c0,.1,.1,.3,.2,.4,0,.1,.1,.1,.2,.2q.1,.1,.2,.1c.1,.1,.2,.1,.3,.1h.5c0-.1,.1-.1,.2-.1,.2-.1,.3-.2,.4-.3s.2-.2,.2-.4v-.4c0-.2,0-.3-.1-.4l-.2-.2c-.1-.1-.3-.2-.5-.3h-.3c-.2,0-.4,.1-.6,.2h0l.3-.1h0l1.3,1.7h0c-.3-.2-.4,0-.5,.2q0-.1,0,0l-.3,.1h-.6l-.3-.1h0l-.2-.2h0q-.1-.1-.2-.2h0c0-.1-.1-.2-.1-.3h0v-.3h0v-.3h0l.1-.3h0l.2-.2h0l.2-.2h0c-.1,.1-.2,.2-.3,.3-.1,.1-.2,.2-.2,.4v.5c0,.1,0,.3,.1,.4l.2,.2c.1,.1,.3,.2,.5,.3h.3c.2,0,.4-.1,.6-.1h0Z"/>
      <path class="cls-8" d="M5.31,11.17c.3-.6,.6-1.1,1-1.7,.1-.1,.1-.3,.1-.4v-.4c-.1-.3-.3-.5-.5-.7-.3-.1-.6-.2-.9-.1l-.3,.1c-.2,.1-.3,.2-.4,.4-.4,.5-.7,1.1-1,1.7-.1,.1-.1,.3-.1,.4v.4c.1,.3,.3,.5,.5,.7,.3,.1,.6,.2,.9,.1s.6-.3,.7-.5h0Z"/>
      <path class="cls-4" d="M3.21,23.07s2.3,3.3,2.9,6.9"/>
      <line class="cls-4" x1="1.31" y1="17.87" x2="1.61" y2="19.27"/>
      <path class="cls-5" d="M.5,16.67c.2,2.6,1,5,2.3,7.1,1.9,3,3,6.3,3,9.8v1.6c0,1,.8,1.8,1.8,1.8"/>
      <path class="cls-1" d="M22.11,2.97s4.2,1.7,6.4,6.9"/>
      <path class="cls-3" d="M24.71,4.67c.6,.5,1.3,1.2,2,2.1"/>
      <path class="cls-5" d="M9.61,36.97h13.2c1,0,1.8-.8,1.8-1.8v-1c0-3.8,1.3-7.4,3.4-10.6,1.5-2.2,2.4-4.9,2.4-7.8,.1-7.8-5.9-14.5-13.7-15.2C12.51,.17,8.51,1.67,5.61,4.17"/>
    </g>
  </g>
</svg>