<?xml version="1.0" encoding="UTF-8"?>
<svg id="Layer_2" data-name="Layer 2" xmlns="http://www.w3.org/2000/svg" viewBox="0 0 47.46 57.95">
  <defs>
    <style>
      .cls-1 {
        stroke-width: .75px;
      }

      .cls-1, .cls-2, .cls-3 {
        fill: none;
        stroke: #4c4047;
        stroke-linecap: round;
        stroke-linejoin: round;
      }

      .cls-2 {
        stroke-width: .75px;
      }

      .cls-4 {
        fill: #f9c662;
      }

      .cls-5 {
        fill: #e59e00;
      }

      .cls-6 {
        fill: #fff;
      }

      .cls-7 {
        fill: #ffe9b8;
      }

      .cls-8 {
        fill: #ffc533;
      }

      .cls-9 {
        fill: #80b1bc;
      }

      .cls-10 {
        fill: #ccf5ff;
      }

      .cls-11 {
        fill: #c6dee5;
      }

      .cls-12 {
        fill: #5ecbdd;
      }

      .cls-3 {
        stroke-width: 1.25px;
      }
    </style>
  </defs>
  <g id="Layer_2-2" data-name="Layer 2">
    <g>
      <path class="cls-11" d="M7.92,.62h25.5c2,0,3.6,1.6,3.6,3.6H4.32c0-2,1.6-3.6,3.6-3.6Z"/>
      <path class="cls-9" d="M13.82,.82h9.2c.9,0,1.5,.7,1.5,1.6h0c0,.9-.7,1.6-1.5,1.6H13.82c-.9,0-1.5-.7-1.5-1.6h0c-.1-.9,.6-1.6,1.5-1.6Z"/>
      <path class="cls-9" d="M5.82,.82h2.2c.9,0,1.5,.7,1.5,1.6h0c0,.9-.7,1.6-1.5,1.6h-2.2c-.9,0-1.5-.7-1.5-1.6h0c0-.9,.7-1.6,1.5-1.6Z"/>
      <path class="cls-10" d="M35.03,11.72c0,2.3,.9,6.8,2.4,8.6h0c.8,1,1.2,2.2,1.2,3.4v30.3c0,1.8-1.5,3.3-3.3,3.3H5.42c-1.8,0-3.3-1.5-3.3-3.3V23.72c0-1.2,.4-2.5,1.2-3.4h0c1.5-1.8,2.3-5,2.3-7.4l29.4-1.2h0Z"/>
      <path class="cls-12" d="M7.12,13.12h12.2c.9,0,1.5,.7,1.5,1.6h0c0,.9-.7,1.6-1.5,1.6H7.12c-.9,0-1.5-.7-1.5-1.6h0c0-.9,.7-1.6,1.5-1.6Z"/>
      <rect class="cls-6" x="2.12" y="27.52" width="36.5" height="3.6"/>
      <rect class="cls-6" x="2.12" y="25.82" width="36.5" height=".9"/>
      <rect class="cls-6" x="2.12" y="23.62" width="36.5" height=".9"/>
      <line class="cls-3" x1="34.03" y1="26.72" x2="37.92" y2="26.72"/>
      <line class="cls-3" x1="2.42" y1="51.52" x2="6.22" y2="51.52"/>
      <rect class="cls-6" x="6.62" y="35.42" width="27.5" height="12.8"/>
      <path class="cls-7" d="M3.42,9.12h-.9c-1.2,1.9,.3,4.4,2.5,4.1l5.1-.5c.4,0,.8,0,1.2,.1h0c2.9,1.1,6.1,1.1,8.9-.1l.2-.1c.6-.3,1.3-.3,1.9,0l.9,.7c1.6,1.2,3.6,1.7,5.6,1.3l2.4-1.5c.7-.5,1.5-.7,2.3-.4l2.6,.7c2.3,.6,4.2-1.8,3.1-3.9l-.3-.6"/>
      <path class="cls-3" d="M31.42,13.12c.7-.5,1.5-.7,2.3-.4l2.6,.7c2.3,.6,4.2-1.8,3.1-3.9l-.3-.6"/>
      <path class="cls-3" d="M3.62,9.12h-.9c-1.2,1.9,.3,4.4,2.5,4.1l5.1-.5c.4,0,.8,0,1.2,.1h0c2.9,1.1,6.1,1.1,8.9-.1l.2-.1c.6-.3,1.3-.3,1.9,0l.9,.7c1.6,1.2,3.6,1.7,5.6,1.3"/>
      <path class="cls-3" d="M7.92,.62h25.5c2,0,3.6,1.6,3.6,3.6H4.32c0-2,1.6-3.6,3.6-3.6Z"/>
      <path class="cls-8" d="M3.22,3.92H38.42c1.4,0,2.6,1.2,2.6,2.6h0c0,1.4-1.2,2.6-2.6,2.6H3.22c-1.4,0-2.6-1.2-2.6-2.6H.62c0-1.4,1.2-2.6,2.6-2.6Z"/>
      <path class="cls-12" d="M9.82,54.52h12.2c.9,0,1.5,.7,1.5,1.5h0c0,.9-.7,1.5-1.5,1.5H9.82c-.9,0-1.5-.7-1.5-1.5h0c0-.8,.7-1.5,1.5-1.5Z"/>
      <path class="cls-12" d="M19.32,47.92h12.2c.9,0,1.5,.7,1.5,1.5h0c0,.9-.7,1.5-1.5,1.5h-12.2c-.9,0-1.5-.7-1.5-1.5h0c0-.8,.7-1.5,1.5-1.5Z"/>
      <path class="cls-11" d="M9.82,35.52h12.2c.9,0,1.5,.7,1.5,1.6h0c0,.9-.7,1.6-1.5,1.6H9.82c-.9,0-1.5-.7-1.5-1.6h0c0-.9,.7-1.6,1.5-1.6Z"/>
      <polyline class="cls-3" points="30.03 35.42 34.12 35.42 34.12 48.22 6.62 48.22 6.62 35.42 26.62 35.42"/>
      <path class="cls-3" d="M2.12,35.42v-11.7c0-1.2,.4-2.5,1.2-3.4h0c1.5-1.8,2.3-4.1,2.3-6.4"/>
      <line class="cls-3" x1="2.12" y1="45.02" x2="2.12" y2="38.62"/>
      <path class="cls-3" d="M38.62,37.92v16.1c0,1.8-1.5,3.3-3.3,3.3H5.42c-1.8,0-3.3-1.5-3.3-3.3v-5.8"/>
      <path class="cls-3" d="M35.03,13.72c0,2.3,.9,4.8,2.4,6.6h0c.8,1,1.2,2.2,1.2,3.4v10.3"/>
      <path class="cls-5" d="M4.72,3.92h12.2c.9,0,1.5,.7,1.5,1.6h0c0,.9-.7,1.6-1.5,1.6H4.72c-.9,0-1.5-.7-1.5-1.6h0c-.1-.9,.6-1.6,1.5-1.6Z"/>
      <path class="cls-5" d="M22.72,3.92h2.2c.9,0,1.5,.7,1.5,1.6h0c0,.9-.7,1.6-1.5,1.6h-2.2c-.9,0-1.5-.7-1.5-1.6h0c0-.9,.7-1.6,1.5-1.6Z"/>
      <path class="cls-4" d="M24.62,8.62h2.2c.9,0,1.5,.7,1.5,1.5h0c0,.9-.7,1.5-1.5,1.5h-2.2c-.9,0-1.5-.7-1.5-1.5h0c0-.8,.7-1.5,1.5-1.5Z"/>
      <path class="cls-4" d="M5.42,8.62h2.2c.9,0,1.5,.7,1.5,1.5h0c0,.9-.7,1.5-1.5,1.5h-2.2c-.9,0-1.5-.7-1.5-1.5h0c0-.8,.7-1.5,1.5-1.5Z"/>
      <path class="cls-3" d="M15.22,9.12H3.22c-1.4,0-2.6-1.2-2.6-2.6H.62c0-1.4,1.2-2.6,2.6-2.6H38.42c1.4,0,2.6,1.2,2.6,2.6h0c0,1.4-1.2,2.6-2.6,2.6h-2.9"/>
      <line class="cls-3" x1="32.62" y1="9.12" x2="17.82" y2="9.12"/>
      <g>
        <line class="cls-1" x1="11.32" y1="39.82" x2="15.12" y2="39.82"/>
        <line class="cls-1" x1="11.32" y1="42.22" x2="21.82" y2="42.22"/>
        <line class="cls-1" x1="11.32" y1="44.62" x2="21.82" y2="44.62"/>
      </g>
      <ellipse class="cls-2" cx="43.46" cy="11.47" rx="2.4" ry="4.1" transform="translate(9.1 40.45) rotate(-54.93)"/>
    </g>
  </g>
</svg>