<?xml version="1.0" encoding="UTF-8"?>
<svg id="Layer_2" data-name="Layer 2" xmlns="http://www.w3.org/2000/svg" viewBox="0 0 38.15 57.1">
  <defs>
    <style>
      .cls-1 {
        stroke-width: 1.1px;
      }

      .cls-1, .cls-2 {
        stroke: #4c4047;
      }

      .cls-1, .cls-2, .cls-3, .cls-4, .cls-5 {
        fill: none;
        stroke-linecap: round;
        stroke-linejoin: round;
      }

      .cls-2 {
        stroke-width: .75px;
      }

      .cls-3 {
        opacity: .33;
        stroke: #c6dee5;
        stroke-width: 3px;
      }

      .cls-3, .cls-5 {
        isolation: isolate;
      }

      .cls-6 {
        fill: #f9ae4b;
      }

      .cls-7 {
        fill: #ffdd36;
      }

      .cls-8 {
        fill: #fff;
      }

      .cls-9 {
        fill: #4c4047;
      }

      .cls-4, .cls-5 {
        stroke: #f79014;
        stroke-width: 2px;
      }

      .cls-5 {
        opacity: .47;
      }
    </style>
  </defs>
  <g id="Layer_2-2" data-name="Layer 2">
    <g>
      <path class="cls-8" d="M29.9,7.25h6c.9,0,1.7,.8,1.7,1.7V54.85c0,.9-.8,1.7-1.7,1.7H2.6c-.9,0-1.7-.8-1.7-1.7v-17.5"/>
      <path class="cls-1" d="M.9,16.25v-7.4c0-.9,.8-1.7,1.7-1.7h6.2"/>
      <line class="cls-1" x1=".9" y1="31.15" x2=".9" y2="19.95"/>
      <polyline class="cls-6" points="14.3 12.55 8.8 12.55 8.8 .45 29.4 .45 29.4 12.55 17.5 12.55"/>
      <line class="cls-1" x1="15" y1="22.65" x2="27.9" y2="22.65"/>
      <line class="cls-1" x1="15" y1="27.05" x2="23.8" y2="27.05"/>
      <g>
        <line class="cls-1" x1="15" y1="40.15" x2="27.5" y2="40.15"/>
        <line class="cls-1" x1="15" y1="44.45" x2="23.4" y2="44.45"/>
      </g>
      <g>
        <line class="cls-1" x1="15" y1="31.45" x2="30.1" y2="31.45"/>
        <line class="cls-1" x1="15" y1="35.75" x2="23.4" y2="35.75"/>
      </g>
      <g>
        <circle class="cls-7" cx="9.4" cy="24.65" r="1.7"/>
        <circle class="cls-7" cx="9.4" cy="33.15" r="1.7"/>
        <circle class="cls-7" cx="9.4" cy="42.25" r="1.7"/>
      </g>
      <circle class="cls-9" cx=".9" cy="34.35" r=".9"/>
      <circle class="cls-8" cx="13.6" cy="6.15" r="1.7"/>
      <circle class="cls-8" cx="25.1" cy="6.15" r="1.7"/>
      <circle class="cls-1" cx="25.2" cy="6.35" r="1.7"/>
      <g>
        <line class="cls-3" x1="11.3" y1="13.95" x2="21.3" y2="13.95"/>
        <line class="cls-3" x1="14" y1="13.95" x2="17" y2="13.95"/>
      </g>
      <g>
        <line class="cls-3" x1="2.3" y1="41.65" x2="2.3" y2="51.55"/>
        <line class="cls-3" x1="2.3" y1="44.35" x2="2.3" y2="47.35"/>
      </g>
      <g>
        <line class="cls-3" x1="36.1" y1="17.55" x2="36.1" y2="27.45"/>
        <line class="cls-3" x1="36.1" y1="20.15" x2="36.1" y2="23.15"/>
      </g>
      <path class="cls-1" d="M29.9,7.25h6c.9,0,1.7,.8,1.7,1.7V54.85c0,.9-.8,1.7-1.7,1.7H2.6c-.9,0-1.7-.8-1.7-1.7v-17.5"/>
      <g>
        <line class="cls-5" x1="11.4" y1="1.65" x2="26.4" y2="1.65"/>
        <line class="cls-4" x1="19.7" y1="1.65" x2="23.1" y2="1.65"/>
        <line class="cls-4" x1="14.1" y1="1.65" x2="15.6" y2="1.65"/>
      </g>
      <g>
        <line class="cls-5" x1="13" y1="11.55" x2="28" y2="11.55"/>
        <line class="cls-4" x1="21.3" y1="11.55" x2="24.8" y2="11.55"/>
        <line class="cls-4" x1="15.8" y1="11.55" x2="17.2" y2="11.55"/>
      </g>
      <polyline class="cls-1" points="14.5 12.65 9 12.65 9 .55 29.6 .55 29.6 12.65 17.7 12.65"/>
      <circle class="cls-1" cx="13.6" cy="6.35" r="1.7"/>
      <g>
        <circle class="cls-2" cx="9.1" cy="24.65" r="1.7"/>
        <circle class="cls-2" cx="9.1" cy="33.15" r="1.7"/>
        <circle class="cls-2" cx="9.1" cy="42.15" r="1.7"/>
      </g>
      <line class="cls-2" x1="9" y1="10.45" x2="13.2" y2="10.45"/>
      <line class="cls-2" x1="25.2" y1="3.05" x2="29.4" y2="3.05"/>
      <line class="cls-2" x1="33" y1="51.35" x2="37.1" y2="51.35"/>
      <line class="cls-2" x1="28.7" y1="51.35" x2="30.8" y2="51.35"/>
    </g>
  </g>
</svg>