<?xml version="1.0" encoding="UTF-8"?>
<svg id="Layer_2" data-name="Layer 2" xmlns="http://www.w3.org/2000/svg" viewBox="0 0 26.45 63.97">
  <defs>
    <style>
      .cls-1 {
        stroke: #fff;
      }

      .cls-1, .cls-2, .cls-3, .cls-4, .cls-5, .cls-6, .cls-7, .cls-8, .cls-9, .cls-10, .cls-11 {
        fill: none;
        stroke-linecap: round;
        stroke-linejoin: round;
      }

      .cls-2 {
        stroke: #b7b7b7;
      }

      .cls-3 {
        opacity: .5;
      }

      .cls-3, .cls-5, .cls-7 {
        isolation: isolate;
      }

      .cls-3, .cls-7, .cls-9, .cls-10 {
        stroke-width: 2px;
      }

      .cls-3, .cls-10 {
        stroke: #ce0913;
      }

      .cls-4 {
        stroke-width: 1.1px;
      }

      .cls-4, .cls-6, .cls-8, .cls-11 {
        stroke: #4c4047;
      }

      .cls-5 {
        opacity: .55;
        stroke: #424242;
      }

      .cls-6 {
        stroke-width: .75px;
      }

      .cls-12 {
        fill: #ffdd36;
      }

      .cls-13 {
        fill: #ff3939;
      }

      .cls-14 {
        fill: #6b6b6b;
      }

      .cls-15 {
        fill: #4c4047;
      }

      .cls-7 {
        opacity: .67;
        stroke: #ffabb3;
      }

      .cls-8 {
        stroke-width: 1.15px;
      }

      .cls-9 {
        stroke: #ffe3e7;
      }

      .cls-11 {
        stroke-width: .79px;
      }
    </style>
  </defs>
  <g id="Layer_2-2" data-name="Layer 2">
    <g>
      <path class="cls-14" d="M.77,58.7H25.67v2.1c0,1.4-1.2,2.6-2.6,2.6H3.37c-1.4,0-2.6-1.2-2.6-2.6v-2.1h0Z"/>
      <path class="cls-13" d="M12.88,58.9l13-.1,.2-36.7c0-.9-.4-1.7-1.1-2.2h0c-1.4-1-1.5-3.1-.2-4.2l.4-.3c.6-.5,.9-1.2,.9-2h0c0-4.5-3.9-7.9-8.4-7.9l-4.7-.2h-4C4.47,5.3,.87,9,.87,13.4H.87c0,.8,.4,1.5,.9,2l.4,.3c1.3,1.1,1.2,3.2-.2,4.2h0c-.7,.5-1.1,1.3-1.1,2.2l-.2,36.7,13.1,.1h-.9Z"/>
      <path class="cls-14" d="M25.77,13.2c0,.8-.4,1.6-1,2.1l-.4,.3c-.6,.5-.9,1.2-1,1.9H2.77c-.1-.6-.4-1.2-.9-1.7,0,0,0-.1-.1-.1l-.2-.2-.4-.3-.1-.1c-.4-.5-.7-1.1-.7-1.8C.38,8.7,4.07,5,8.57,5h9c2.1,0,4.1,.8,5.5,2.1l.1,.1,.3,.3c1.5,1.6,2.3,3.6,2.3,5.7h0Z"/>
      <path class="cls-8" d="M21.57,6c-1.1-.6-2.5-1-3.9-1h-4.9"/>
      <path class="cls-8" d="M25.88,23.6v-1.8c0-.9-.4-1.7-1.1-2.2h0c-1.4-1-1.5-3.1-.2-4.2l.4-.3c.6-.5,.9-1.2,.9-2h0c0-1.7-.5-3.3-1.4-4.6"/>
      <line class="cls-8" x1="25.88" y1="50.4" x2="25.88" y2="27.3"/>
      <path class="cls-8" d="M12.77,63.4h9.8c1.8,0,3.3-1.5,3.3-3.3v-6.3"/>
      <path class="cls-15" d="M16.88,3.4c0-1.9-1.5-3.4-3.4-3.4s-3.4,1.5-3.4,3.4v1.8h6.9l-.1-1.8h0Z"/>
      <line class="cls-10" x1="23.68" y1="36.5" x2="23.68" y2="28.5"/>
      <line class="cls-3" x1="23.68" y1="46.1" x2="23.68" y2="42.5"/>
      <line class="cls-7" x1="1.77" y1="23.6" x2="1.77" y2="56.9"/>
      <line class="cls-9" x1="1.77" y1="32.9" x2="1.77" y2="48.4"/>
      <line class="cls-9" x1="1.77" y1="26.3" x2="1.77" y2="27.5"/>
      <line class="cls-11" x1="1.07" y1="58.9" x2="25.88" y2="58.9"/>
      <line class="cls-11" x1="22.97" y1="26.4" x2="22.97" y2="52.1"/>
      <path class="cls-8" d="M7.68,63.4H3.88c-1.8,0-3.3-1.5-3.3-3.3V31.4"/>
      <line class="cls-8" x1="13.68" y1="63.4" x2="11.38" y2="63.4"/>
      <line class="cls-8" x1="3.38" y1="17.4" x2="23.27" y2="17.4"/>
      <path class="cls-2" d="M1.57,12.2s-.1-6.6,8.8-6.4"/>
      <path class="cls-1" d="M2.07,10.2c.5-1.2,1.6-2.6,3.5-3.5"/>
      <path class="cls-8" d="M.57,27.4v-5.6c0-.9,.4-1.7,1.1-2.2h0c1.4-1,1.5-3.1,.2-4.2l-.4-.3c-.6-.5-.9-1.2-.9-2H.58C.58,8.6,4.28,5,8.68,5h4.9"/>
      <line class="cls-5" x1="4.07" y1="16.5" x2="22.27" y2="16.5"/>
      <line class="cls-5" x1="22.47" y1="59.5" x2="4.27" y2="59.5"/>
      <g>
        <line class="cls-11" x1=".57" y1="13.2" x2="10.47" y2="13.2"/>
        <line class="cls-11" x1="11.77" y1="13.2" x2="13.27" y2="13.2"/>
      </g>
      <line class="cls-11" x1="24.97" y1="10.3" x2="20.07" y2="10.3"/>
      <line class="cls-11" x1="6.18" y1="60.9" x2="1.27" y2="60.9"/>
      <g>
        <line class="cls-4" x1="12.97" y1="26.7" x2="17.88" y2="26.7"/>
        <line class="cls-4" x1="12.97" y1="31.1" x2="17.77" y2="31.1"/>
        <g>
          <line class="cls-4" x1="12.97" y1="44.2" x2="17.47" y2="44.2"/>
          <line class="cls-4" x1="12.97" y1="48.4" x2="17.38" y2="48.4"/>
        </g>
        <g>
          <line class="cls-4" x1="12.97" y1="35.5" x2="20.07" y2="35.5"/>
          <line class="cls-4" x1="12.97" y1="39.7" x2="17.38" y2="39.7"/>
        </g>
        <g>
          <circle class="cls-12" cx="7.38" cy="28.7" r="1.7"/>
          <circle class="cls-12" cx="7.38" cy="37.2" r="1.7"/>
          <circle class="cls-12" cx="7.38" cy="46.2" r="1.7"/>
        </g>
        <g>
          <circle class="cls-6" cx="7.07" cy="28.6" r="1.7"/>
          <circle class="cls-6" cx="7.07" cy="37.2" r="1.7"/>
          <circle class="cls-6" cx="7.07" cy="46.2" r="1.7"/>
        </g>
      </g>
    </g>
  </g>
</svg>