<?xml version="1.0" encoding="UTF-8"?>
<svg id="Layer_2" data-name="Layer 2" xmlns="http://www.w3.org/2000/svg" viewBox="0 0 43.61 64.61">
  <defs>
    <style>
      .cls-1 {
        fill: #eaad00;
      }

      .cls-2 {
        fill: #ffd55f;
      }

      .cls-3 {
        fill: #ffcd5f;
      }

      .cls-4, .cls-5 {
        fill: #db9905;
      }

      .cls-5 {
        isolation: isolate;
        opacity: .52;
      }

      .cls-6 {
        fill: none;
        stroke: #4c4047;
        stroke-linecap: round;
        stroke-linejoin: round;
        stroke-width: 1.01px;
      }

      .cls-7 {
        opacity: .31;
      }
    </style>
  </defs>
  <g id="Layer_2-2" data-name="Layer 2">
    <g>
      <g class="cls-7">
        <path class="cls-2" d="M30.41,11c-.5,3.9-5.7,5.1-5.7,5.1,0,0-4.8-2.4-4.3-6.3S26.6,.5,26.6,.5c0,0,4.3,6.6,3.8,10.5h0Z"/>
        <path class="cls-5" d="M28.61,12.4c-.3,2.7-4,3.5-4,3.5,0,0-3.3-1.6-3-4.4,.3-2.7,4.3-6.5,4.3-6.5,0,0,3,4.7,2.7,7.4h0Z"/>
        <g>
          <path class="cls-2" d="M25.61,19.2c-.7,.6-1.1,1.2-1.3,2-1,3.1,1.6,6.2,4.8,5.9,.8-.1,1.5-.3,2.2-.9,2.7-2.2,4.1-9.1,4.1-9.1,0,0-7.1-.2-9.8,2.1h0Z"/>
          <path class="cls-2" d="M23.41,29.2c-.7,.5-1.1,1.2-1.3,2-1,3.1,1.6,6.2,4.8,5.9,.8-.1,1.5-.3,2.2-.9,2.7-2.2,4.1-9.1,4.1-9.1,0,0-7.1-.1-9.8,2.1h0Z"/>
          <path class="cls-2" d="M21.41,37.5c-.8,.2-1.5,.7-2,1.3-2.1,2.5-.9,6.4,2.2,7.3,.7,.2,1.5,.3,2.4,0,3.4-1,7.2-6.9,7.2-6.9,0,0-6.5-2.7-9.8-1.7h0Z"/>
          <path class="cls-2" d="M17,46.3c-.8,.2-1.5,.7-2,1.3-2.1,2.5-.9,6.4,2.2,7.3,.7,.2,1.5,.3,2.4,0,3.4-1,7.2-6.9,7.2-6.9,0,0-6.5-2.7-9.8-1.7h0Z"/>
        </g>
        <path class="cls-3" d="M15.71,37.6c.6,.6,.9,1.4,1,2.2,.5,3.2-2.5,5.9-5.6,5.1-.8-.2-1.5-.6-2.1-1.2-2.4-2.6-2.7-9.7-2.7-9.7,0,0,7,1,9.4,3.6Z"/>
        <path class="cls-3" d="M11.61,46.3c.6,.6,.9,1.4,1,2.2,.5,3.2-2.5,5.9-5.6,5.1-.8-.2-1.5-.6-2.1-1.2-2.4-2.6-2.7-9.7-2.7-9.7,0,0,7,1,9.4,3.6Z"/>
        <path class="cls-2" d="M23,19.4c.4,.8,.5,1.6,.4,2.4-.3,3.2-3.9,5.1-6.8,3.5-.7-.4-1.3-.9-1.7-1.7-1.6-3.1-.1-10-.1-10,0,0,6.6,2.6,8.2,5.8h0Z"/>
        <path class="cls-5" d="M21.91,21.1c.2,.5,.3,1,.3,1.5-.2,2-2.5,3.2-4.2,2.2-.4-.2-.8-.6-1-1.1-1-2-.1-6.2-.1-6.2,0,0,4,1.7,5,3.6h0Z"/>
        <path class="cls-4" d="M28.81,25.8c-.5,.3-.9,.4-1.4,.5-2,.1-3.5-2-2.7-3.9,.2-.5,.5-.9,.9-1.2,1.8-1.3,6.2-.9,6.2-.9,0,0-1.2,4.2-3,5.5h0Z"/>
        <path class="cls-5" d="M26.11,35.7c-.5,.3-.9,.4-1.4,.5-2,.1-3.5-2-2.7-3.9,.2-.4,.5-.9,.9-1.2,1.8-1.3,6.2-.9,6.2-.9,0,0-1.2,4.2-3,5.5h0Z"/>
        <path class="cls-4" d="M22,44.3c-.5,.1-1,.1-1.5,0-1.9-.6-2.6-3-1.3-4.6,.3-.4,.7-.7,1.2-.8,2.1-.6,6.1,1.2,6.1,1.2,0,0-2.4,3.6-4.5,4.2Z"/>
        <path class="cls-5" d="M17.71,53.7c-.5,.1-1,.1-1.5,0-1.9-.6-2.6-3-1.3-4.6,.3-.4,.7-.7,1.2-.8,2.1-.6,6.1,1.2,6.1,1.2,0,0-2.4,3.6-4.5,4.2Z"/>
        <path class="cls-3" d="M20.21,30c.4,.8,.5,1.6,.4,2.4-.3,3.2-3.9,5.1-6.8,3.5-.7-.4-1.3-.9-1.7-1.7-1.6-3.1-.1-10-.1-10,0,0,6.6,2.7,8.2,5.8h0Z"/>
        <path class="cls-6" d="M.5,64.1S22.41,47.9,24.7,16.2"/>
        <path class="cls-6" d="M30.41,11c-.5,3.9-5.7,5.1-5.7,5.1,0,0-4.8-2.4-4.3-6.3S26.6,.5,26.6,.5c0,0,4.3,6.6,3.8,10.5h0Z"/>
        <g>
          <path class="cls-6" d="M25.61,19.2c-.7,.5-1.1,1.2-1.3,2-1,3.1,1.6,6.2,4.8,5.9,.8-.1,1.5-.3,2.2-.9,2.7-2.2,4.1-9.1,4.1-9.1,0,0-7-.1-9.8,2.1h0Z"/>
          <path class="cls-6" d="M23.41,29.2c-.7,.6-1.1,1.2-1.3,2-1,3.1,1.6,6.2,4.8,5.9,.8-.1,1.5-.3,2.2-.9,2.7-2.2,4.1-9.1,4.1-9.1,0,0-7-.1-9.8,2.1h0Z"/>
          <path class="cls-6" d="M21.41,37.5c-.8,.2-1.5,.7-2,1.3-2.1,2.5-.9,6.4,2.2,7.3,.7,.2,1.5,.3,2.4,0,3.4-1,7.2-6.9,7.2-6.9,0,0-6.4-2.7-9.8-1.7h0Z"/>
          <path class="cls-6" d="M17,46.3c-.8,.2-1.5,.7-2,1.3-2.1,2.5-.9,6.4,2.2,7.3,.7,.2,1.5,.3,2.4,0,3.4-1,7.2-6.9,7.2-6.9,0,0-6.4-2.7-9.8-1.7h0Z"/>
        </g>
        <path class="cls-4" d="M19.31,31.6c.2,.5,.3,1,.3,1.5-.2,2-2.5,3.2-4.2,2.2-.4-.2-.8-.6-1-1.1-1-2-.1-6.2-.1-6.2,0,0,4,1.6,5,3.6h0Z"/>
        <path class="cls-1" d="M15.71,39.2c.4,.4,.6,.9,.6,1.3,.3,2-1.5,3.7-3.5,3.2-.5-.1-.9-.3-1.3-.7-1.5-1.6-1.7-6-1.7-6,0,0,4.4,.6,5.9,2.2h0Z"/>
        <path class="cls-4" d="M11.11,48.4c.4,.4,.6,.9,.6,1.3,.3,2-1.5,3.7-3.5,3.2-.5-.1-.9-.3-1.3-.7-1.5-1.6-1.7-6-1.7-6,0,0,4.4,.6,5.9,2.2h0Z"/>
        <g>
          <path class="cls-6" d="M15.71,37.3c.6,.6,.9,1.4,1,2.2,.5,3.2-2.5,5.9-5.6,5.1-.8-.2-1.5-.6-2.1-1.2-2.4-2.6-2.7-9.7-2.7-9.7,0,0,7,.9,9.4,3.6Z"/>
          <path class="cls-6" d="M11.61,46c.6,.6,.9,1.4,1,2.2,.5,3.2-2.5,5.9-5.6,5.1-.8-.2-1.5-.6-2.1-1.2-2.4-2.6-2.7-9.7-2.7-9.7,0,0,7.1,1,9.4,3.6Z"/>
          <path class="cls-6" d="M23,19c.4,.8,.5,1.6,.4,2.4-.3,3.2-3.9,5.1-6.8,3.5-.7-.4-1.3-.9-1.7-1.7-1.6-3.1-.1-10-.1-10,0,0,6.6,2.7,8.2,5.8h0Z"/>
          <path class="cls-6" d="M20.31,29.7c.4,.8,.5,1.6,.4,2.4-.3,3.2-3.9,5.1-6.8,3.5-.7-.4-1.3-.9-1.7-1.7-1.6-3.1-.1-10-.1-10,0,0,6.5,2.7,8.2,5.8h0Z"/>
        </g>
      </g>
      <g>
        <path class="cls-2" d="M38.81,13.2c-.9,3.8-6.2,4.5-6.2,4.5,0,0-4.5-2.9-3.6-6.7,.9-3.8,7.1-8.6,7.1-8.6,0,0,3.6,6.9,2.7,10.8h0Z"/>
        <path class="cls-5" d="M36.91,14.4c-.6,2.7-4.3,3.1-4.3,3.1,0,0-3.1-2-2.5-4.7s5-6,5-6c0,0,2.4,4.9,1.8,7.6Z"/>
        <g>
          <path class="cls-2" d="M33.11,20.8c-.7,.5-1.2,1.1-1.5,1.8-1.3,3,.9,6.4,4.1,6.4,.8,0,1.6-.2,2.3-.7,3-1.9,5-8.6,5-8.6,0,0-6.9-.8-9.9,1.1h0Z"/>
          <path class="cls-2" d="M29.91,30.5c-.7,.5-1.2,1.1-1.5,1.8-1.3,3,.9,6.4,4.1,6.4,.8,0,1.6-.2,2.3-.7,3-1.9,5-8.6,5-8.6,0,0-7-.8-9.9,1.1h0Z"/>
          <path class="cls-2" d="M27,38.6c-.9,.2-1.6,.6-2.1,1.1-2.3,2.2-1.5,6.2,1.4,7.5,.7,.3,1.5,.4,2.4,.3,3.5-.7,7.9-6.1,7.9-6.1,0,0-6.1-3.5-9.6-2.8h0Z"/>
          <path class="cls-2" d="M21.71,46.9c-.9,.2-1.6,.6-2.1,1.1-2.3,2.2-1.5,6.2,1.4,7.5,.7,.3,1.5,.4,2.4,.3,3.5-.7,7.9-6.1,7.9-6.1,0,0-6.1-3.5-9.6-2.8h0Z"/>
        </g>
        <path class="cls-3" d="M21.31,38.1c.5,.7,.7,1.5,.8,2.3,.2,3.2-3.1,5.6-6.1,4.5-.7-.3-1.4-.7-1.9-1.4-2.1-2.9-1.6-9.9-1.6-9.9,0,0,6.8,1.6,8.8,4.5h0Z"/>
        <path class="cls-3" d="M16.41,46.3c.5,.7,.7,1.5,.8,2.3,.2,3.2-3.1,5.6-6.1,4.5-.7-.3-1.4-.7-1.9-1.4-2.1-2.9-1.6-9.9-1.6-9.9,0,0,6.7,1.7,8.8,4.5h0Z"/>
        <path class="cls-2" d="M30.5,20.7c.3,.8,.3,1.6,.2,2.4-.6,3.2-4.5,4.7-7.1,2.8-.6-.4-1.2-1-1.5-1.9-1.3-3.3,.9-10,.9-10,0,0,6.2,3.4,7.5,6.7Z"/>
        <path class="cls-5" d="M29.21,22.3c.2,.5,.2,1,.1,1.5-.4,2-2.8,2.9-4.4,1.7-.4-.3-.7-.6-.9-1.2-.8-2,.6-6.2,.6-6.2,0,0,3.8,2.2,4.6,4.2h0Z"/>
        <path class="cls-4" d="M35.71,27.7c-.5,.3-1,.3-1.5,.3-2-.1-3.2-2.4-2.3-4.1,.2-.4,.5-.8,1-1.1,1.9-1.1,6.2-.2,6.2-.2,0,0-1.5,4-3.4,5.1h0Z"/>
        <path class="cls-5" d="M31.91,37.3c-.5,.3-1,.3-1.5,.3-2-.1-3.2-2.4-2.3-4.1,.2-.4,.5-.8,1-1.1,1.9-1.1,6.2-.2,6.2-.2,0,0-1.5,4-3.4,5.1h0Z"/>
        <path class="cls-4" d="M27,45.4c-.5,.1-1,0-1.5-.2-1.8-.8-2.3-3.3-.8-4.7,.4-.3,.8-.6,1.3-.7,2.2-.4,6,1.8,6,1.8,0,0-2.9,3.4-5,3.8h0Z"/>
        <path class="cls-5" d="M21.71,54.3c-.5,.1-1,0-1.5-.2-1.8-.8-2.3-3.3-.8-4.7,.4-.3,.8-.6,1.3-.7,2.2-.4,6,1.8,6,1.8,0,0-2.9,3.4-5,3.8h0Z"/>
        <path class="cls-3" d="M26.71,31c.3,.8,.3,1.6,.2,2.4-.6,3.2-4.5,4.7-7.1,2.8-.6-.5-1.2-1.1-1.5-1.9-1.3-3.3,.9-10,.9-10,0,0,6.2,3.4,7.5,6.7Z"/>
        <path class="cls-6" d="M3.41,62.9s23.4-13.8,29.1-45.1"/>
        <path class="cls-6" d="M38.81,13.2c-.9,3.8-6.2,4.5-6.2,4.5,0,0-4.5-2.9-3.6-6.7,.9-3.8,7.1-8.6,7.1-8.6,0,0,3.6,6.9,2.7,10.8h0Z"/>
        <g>
          <path class="cls-6" d="M33.21,20.8c-.7,.5-1.2,1.1-1.5,1.8-1.3,3,.9,6.4,4.1,6.4,.8,0,1.6-.2,2.3-.7,3-1.9,5-8.6,5-8.6,0,0-7-.8-9.9,1.1h0Z"/>
          <path class="cls-6" d="M29.91,30.6c-.7,.5-1.2,1.1-1.5,1.8-1.3,3,.9,6.4,4.1,6.4,.8,0,1.6-.2,2.3-.7,3-1.9,5-8.6,5-8.6,0,0-6.9-.8-9.9,1.1h0Z"/>
          <path class="cls-6" d="M27.11,38.6c-.9,.2-1.6,.6-2.1,1.1-2.3,2.2-1.5,6.2,1.4,7.5,.7,.3,1.5,.4,2.4,.3,3.5-.7,7.9-6.1,7.9-6.1,0,0-6.2-3.4-9.6-2.8h0Z"/>
          <path class="cls-6" d="M21.81,46.9c-.9,.2-1.6,.6-2.1,1.1-2.3,2.2-1.5,6.2,1.4,7.5,.7,.3,1.5,.4,2.4,.3,3.5-.7,7.9-6.1,7.9-6.1,0,0-6.1-3.5-9.6-2.8h0Z"/>
        </g>
        <path class="cls-4" d="M25.61,32.5c.2,.5,.2,1,.1,1.5-.4,2-2.8,2.9-4.4,1.7-.4-.3-.7-.6-.9-1.2-.8-2,.6-6.2,.6-6.2,0,0,3.8,2.1,4.6,4.2h0Z"/>
        <path class="cls-1" d="M21.21,39.7c.3,.4,.5,.9,.5,1.4,.1,2-1.9,3.5-3.8,2.9-.5-.2-.9-.4-1.2-.9-1.3-1.8-1.1-6.1-1.1-6.1,0,0,4.3,1,5.6,2.7h0Z"/>
        <path class="cls-4" d="M15.71,48.3c.3,.4,.5,.9,.5,1.4,.1,2-1.9,3.5-3.8,2.9-.5-.2-.9-.4-1.2-.9-1.3-1.8-1.1-6.1-1.1-6.1,0,0,4.3,1,5.6,2.7h0Z"/>
        <g>
          <path class="cls-6" d="M21.41,37.8c.5,.7,.7,1.5,.8,2.3,.2,3.2-3.1,5.6-6.1,4.5-.7-.3-1.4-.7-1.9-1.4-2.1-2.9-1.6-9.9-1.6-9.9,0,0,6.7,1.6,8.8,4.5h0Z"/>
          <path class="cls-6" d="M16.5,46c.5,.7,.7,1.5,.8,2.3,.2,3.2-3.1,5.6-6.1,4.5-.7-.3-1.4-.7-1.9-1.4-2.1-2.9-1.6-9.9-1.6-9.9,0,0,6.7,1.7,8.8,4.5h0Z"/>
          <path class="cls-6" d="M30.61,20.4c.3,.8,.3,1.6,.2,2.4-.6,3.2-4.5,4.7-7.1,2.8-.6-.4-1.2-1-1.5-1.9-1.3-3.3,.9-10,.9-10,0,0,6.2,3.4,7.5,6.7Z"/>
          <path class="cls-6" d="M26.71,30.7c.3,.8,.3,1.6,.2,2.4-.6,3.2-4.5,4.7-7.1,2.8-.6-.4-1.2-1-1.5-1.9-1.3-3.3,.9-10,.9-10,0,0,6.2,3.4,7.5,6.7Z"/>
        </g>
      </g>
    </g>
  </g>
</svg>