<?xml version="1.0" encoding="UTF-8"?>
<svg id="Layer_2" data-name="Layer 2" xmlns="http://www.w3.org/2000/svg" viewBox="0 0 43.43 53.56">
  <defs>
    <style>
      .cls-1 {
        stroke-width: 1.1px;
      }

      .cls-1, .cls-2, .cls-3, .cls-4, .cls-5, .cls-6 {
        fill: none;
        stroke-linecap: round;
        stroke-linejoin: round;
      }

      .cls-1, .cls-3, .cls-6 {
        stroke: #4c4047;
      }

      .cls-2 {
        opacity: .29;
        stroke: #eda48a;
      }

      .cls-2, .cls-4, .cls-7, .cls-8 {
        isolation: isolate;
      }

      .cls-2, .cls-5 {
        stroke-width: 1.91px;
      }

      .cls-3 {
        stroke-width: .72px;
      }

      .cls-9, .cls-7, .cls-8 {
        fill: #fff;
      }

      .cls-10 {
        fill: #ff3939;
      }

      .cls-11 {
        fill: #bc0029;
      }

      .cls-12 {
        fill: #af694c;
      }

      .cls-13 {
        fill: #56fc76;
      }

      .cls-14 {
        fill: #4c4047;
      }

      .cls-4 {
        opacity: .69;
        stroke: #fff;
        stroke-width: 2.86px;
      }

      .cls-7 {
        opacity: .2;
      }

      .cls-8 {
        opacity: .42;
      }

      .cls-5 {
        stroke: #93482e;
      }

      .cls-15 {
        opacity: .26;
      }

      .cls-16 {
        opacity: .23;
      }

      .cls-17 {
        opacity: .51;
      }

      .cls-6 {
        stroke-width: .84px;
      }
    </style>
  </defs>
  <g id="Layer_2-2" data-name="Layer 2">
    <g>
      <path class="cls-12" d="M19.81,23.15s-5.8-7.5-9.6-9.4h0c.9-1.7,2.6-3.5,4.7-3.8h0s4,3.8,4.5,8.8"/>
      <path class="cls-5" d="M12.71,14.55c.7,.5,1.8,1.5,2.7,2.5"/>
      <path class="cls-2" d="M12.11,12.25c.9-1,2.6-1.6,2.6-1.6"/>
      <path class="cls-2" d="M13.41,11.25c.2-.2,.5-.3,.7-.4"/>
      <path class="cls-6" d="M17.11,20.05s-2.9-4.2-6.7-6.1h0c.9-1.7,2.6-3.5,4.7-3.8h0s4,3.8,4.5,8.8"/>
      <path class="cls-10" d="M41.31,23.75c-1.6-3.2-4.8-5.8-8.7-6.5-3.9-.6-8.2,1.1-9.7,4.4h-2.3c-1.4-3.3-6.8-5-10.6-4.4-3.9,.6-6.1,3.3-7.7,6.5s-1.9,6.8-1.5,10.3c.5,4.5,3.1,8.9,5.7,12.8,1.5,2.3,3.5,4.6,6.3,5.6,1.4,.5,2.9,.5,4.5,.3,2.7-.5,5.5-.5,8.2-.1,2,.3,4,.3,5.2-.2,2.8-1,4.8-3.3,6.3-5.6,2.6-3.9,5.1-8.3,5.7-12.8,.4-3.5,.2-7.1-1.4-10.3h0Z"/>
      <g class="cls-15">
        <path class="cls-9" d="M3.91,32.75c-.1-.6-.2-1.4-.2-2.2,0-.4,0-.7,.1-1.1,0-.2,0-.3,.1-.5,0,.2,.1-.3,.1-.4,.3-1.6,.8-2.8,1.6-4.1,.4-.7,.2-1.6-.5-2s-1.6-.1-2,.5c-1.9,3.1-2.5,6.9-1.8,10.4,.1,.8,1.1,1.2,1.8,1,.6-.1,1-.9,.8-1.6h0Z"/>
      </g>
      <g class="cls-15">
        <path class="cls-9" d="M3.81,30.05c0-.4,.1-.8,.1-1.2l-.1,.4c.1-.8,.3-1.6,.5-2.3s-.3-1.6-1-1.8c-.8-.2-1.5,.2-1.8,1-.4,1.3-.6,2.6-.7,3.9,0,.8,.7,1.5,1.4,1.4,.9,0,1.5-.5,1.6-1.4q0,.1,0,0Z"/>
      </g>
      <g class="cls-16">
        <path class="cls-11" d="M23.01,50.65c.9,1.6,2.3,2.7,4.2,2.7s3.7-.5,5.2-1.5c3.3-2.1,5.5-5.4,7.2-8.8,1.8-3.6,3.6-7.4,3.6-11.6,0-3.8-1.1-7.8-3.8-10.7-1.5-1.6-3.4-2.7-5.5-3.3-2.3-.6-4.5-.3-6.8,.2-1.8,.5-1,3.2,.8,2.8,2-.5,4-.8,6,0,1.8,.7,3.4,2,4.4,3.5,2.1,3.2,2.5,7.7,1.5,11.3-.6,2-1.5,4-2.5,5.9-.9,1.7-1.8,3.5-3,5s-2.6,2.9-4.3,3.7c-.8,.3-1.6,.5-2.4,.5-1,0-1.6-.4-2.1-1.3-.9-1.4-3.4,0-2.5,1.6h0Z"/>
      </g>
      <g class="cls-17">
        <path class="cls-11" d="M30.91,17.05c-1.3,0-2.6,.3-3.8,.6-.7,.2-1.2,1-1,1.8s1,1.2,1.8,1,1.5-.4,2.3-.5h-.4c.4,0,.7-.1,1.1-.1s.8-.1,1-.4c.2-.2,.4-.7,.4-1s-.1-.8-.4-1-.6-.4-1-.4h0Z"/>
      </g>
      <g class="cls-17">
        <path class="cls-11" d="M39.31,43.65c1.7-3.4,3.5-6.9,3.9-10.8,.1-.8-.7-1.4-1.4-1.4-.8,0-1.4,.7-1.4,1.4,0,.1-.1,.6,0,.4,0,.2-.1,.4-.1,.6-.1,.4-.2,.9-.3,1.3-.2,.8-.5,1.6-.8,2.4-.6,1.5-1.4,3.1-2.2,4.5-.3,.7-.2,1.5,.5,2,.5,.5,1.4,.3,1.8-.4h0Z"/>
      </g>
      <g class="cls-17">
        <path class="cls-11" d="M23.01,50.65c.2,.4,.4,.7,.7,1,.2,.2,.4,.5,.7,.7,.2,.2,.4,.3,.6,.5s.5,.2,.7,.3c.4,.2,.8,.2,1.2,.2,.3,0,.8-.2,1-.4s.4-.7,.4-1-.1-.8-.4-1-.6-.4-1-.4h.2c-.2,0-.4-.1-.7-.2l.3,.1c-.2-.1-.4-.2-.7-.4l.3,.2c-.3-.2-.5-.4-.7-.7l.2,.3c-.2-.2-.3-.5-.4-.7-.2-.3-.5-.6-.9-.7s-.8,0-1.1,.1-.6,.5-.7,.9c.1,.5,.1,.9,.3,1.2h0Z"/>
      </g>
      <g>
        <path class="cls-1" d="M5.71,45.75c.2,.4,.5,.7,.7,1.1,1.5,2.3,3.5,4.6,6.3,5.6,1.6,.6,3.2,.7,5.4,.4"/>
        <path class="cls-1" d="M20.61,21.75c-1.4-3.3-5.8-5-9.7-4.4s-7.1,3.3-8.7,6.5c-1.6,3.2-1.9,6.8-1.5,10.3,.3,2.8,1.4,5.5,2.8,8.1"/>
        <path class="cls-1" d="M24.41,52.85c2.6,.1,4.5,.2,6.3-.4,2.8-1,4.8-3.3,6.3-5.6,2.6-3.9,5.1-8.3,5.7-12.8,.4-3.5,.2-7.1-1.5-10.3-1.6-3.2-4.8-5.8-8.7-6.5-3.9-.6-8.2,1.1-9.7,4.4"/>
      </g>
      <ellipse class="cls-7" cx="12.81" cy="27.75" rx="5.3" ry="6"/>
      <ellipse class="cls-8" cx="10.64" cy="26.22" rx="2.3" ry="2" transform="translate(-17.09 31.89) rotate(-79.46)"/>
      <circle class="cls-14" cx="4.71" cy="44.05" r=".6"/>
      <path class="cls-13" d="M31.21,14.15c-2.7,6.2-10.2,8.9-10.2,8.9,0,0-3.3-7.3-.6-13.5C23.01,3.35,30.51,.55,30.51,.55c0,0,3.3,7.4,.7,13.6Z"/>
      <path class="cls-3" d="M28.41,5.45c-1.1,9.4-7.1,16.9-7.1,16.9"/>
      <circle class="cls-14" cx="21.11" cy="52.45" r="1.1"/>
      <path class="cls-4" d="M20.51,12.95s.5-5.8,6.1-9.2"/>
      <path class="cls-4" d="M21.51,9.65c.5-1.1,1.2-2.4,2.4-3.6"/>
      <path class="cls-1" d="M32.21,9.15c0,1.6-.3,3.4-1,5-2.7,6.2-10.2,8.9-10.2,8.9,0,0-3.3-7.3-.6-13.5C23.01,3.35,30.51,.55,30.51,.55c0,0,1.2,2.6,1.5,6"/>
      <line class="cls-3" x1="21.61" y1="16.55" x2="22.91" y2="19.35"/>
      <line class="cls-3" x1="24.51" y1="11.75" x2="25.41" y2="14.85"/>
      <line class="cls-3" x1="26.61" y1="6.15" x2="27.61" y2="9.15"/>
      <line class="cls-3" x1="24.71" y1="16.85" x2="26.81" y2="16.85"/>
      <line class="cls-3" x1="27.11" y1="11.45" x2="29.21" y2="11.45"/>
    </g>
  </g>
</svg>