<?xml version="1.0" encoding="UTF-8"?>
<svg id="Layer_2" data-name="Layer 2" xmlns="http://www.w3.org/2000/svg" viewBox="0 0 38.35 63.25">
  <defs>
    <style>
      .cls-1, .cls-2, .cls-3, .cls-4, .cls-5, .cls-6 {
        fill: none;
        stroke-linecap: round;
        stroke-linejoin: round;
      }

      .cls-1, .cls-2, .cls-3, .cls-5, .cls-6 {
        stroke-width: 3px;
      }

      .cls-1, .cls-2, .cls-5 {
        stroke: #7ae3f4;
      }

      .cls-2 {
        opacity: .53;
      }

      .cls-2, .cls-3, .cls-5 {
        isolation: isolate;
      }

      .cls-7 {
        fill: #ffa300;
      }

      .cls-8 {
        fill: #fff;
      }

      .cls-9 {
        fill: #ffd55f;
      }

      .cls-10 {
        fill: #ccf5ff;
      }

      .cls-11 {
        fill: #7ae3f4;
      }

      .cls-3 {
        opacity: .49;
      }

      .cls-3, .cls-6 {
        stroke: #ffa300;
      }

      .cls-4 {
        stroke: #4c4047;
        stroke-width: 1.15px;
      }

      .cls-5 {
        opacity: .47;
      }

      .cls-12 {
        opacity: .39;
      }

      .cls-13 {
        opacity: .51;
      }
    </style>
  </defs>
  <g id="Layer_2-2" data-name="Layer 2">
    <g>
      <path class="cls-10" d="M27.58,62.58H11.18c-1.4,0-2.5-1-2.6-2.4L4.57,24.48h29.2l-3.6,35.7c-.1,1.4-1.2,2.4-2.6,2.4h0Z"/>
      <path class="cls-9" d="M31.58,43.07l-1.5,16.8c-.1,1.4-1.2,2.4-2.6,2.4H11.07c-1.3,0-2.5-1-2.6-2.4l-1.7-14.7,3.8-1c2.5-1,5.6-1,7.4,1,1.2,1.4,3.2,.8,5,.8,.8,0,.9,.3,1.6,0l7-2.9h0Z"/>
      <path class="cls-10" d="M4.78,21.67c0-7.9,6.4-14.4,14.4-14.4s14.4,6.4,14.4,14.4"/>
      <path class="cls-8" d="M26.27,9.17l.2,.1c-.4,2.1-3.1,3.7-5.8,3.2-2.6-.5-4.5-2.9-4.2-4.9,.7-.1,1.6-.2,2.3-.2,2.7,0,5.3,.5,7.5,1.8h0Z"/>
      <path class="cls-4" d="M32.08,15.48c.9,1.9,1.4,4,1.4,6.2"/>
      <line class="cls-4" x1="24.68" y1=".57" x2="20.38" y2="11.98"/>
      <path class="cls-4" d="M26.58,9.57c-.4,2.1-2.9,3.3-5.6,2.8-2.6-.6-4.4-2.7-4-4.8"/>
      <g class="cls-13">
        <path class="cls-8" d="M9.18,15.38c.2-.3,.4-.7,.7-1l-.2,.3c.7-.9,1.5-1.7,2.4-2.4l-.3,.2c.5-.4,1.1-.8,1.7-1.1,.7-.4,1-1.4,.5-2.1s-1.3-.9-2-.5c-2.2,1.2-4,3-5.4,5.1-.3,.6-.1,1.6,.6,2,.8,.4,1.6,.2,2-.5h0Z"/>
      </g>
      <g class="cls-13">
        <path class="cls-8" d="M9.97,14.28c.5-.6,1.1-1.2,1.6-1.7,.1-.1,.2-.3,.3-.5,.1-.2,.1-.4,.1-.6s0-.4-.1-.6-.2-.3-.3-.5c-.3-.3-.7-.5-1.1-.4l-.3,.1c-.2,.1-.5,.2-.7,.4-.6,.5-1.1,1.1-1.6,1.7-.1,.1-.2,.3-.3,.5-.1,.2-.1,.4-.1,.6s0,.4,.1,.6,.2,.3,.3,.5c.3,.3,.7,.5,1.1,.4l.4-.1c.2-.1,.4-.2,.6-.4h0Z"/>
      </g>
      <path class="cls-11" d="M23.18,26.67H4.68v-2.2h28.8c-3.2,1.5-6.7,2.2-10.3,2.2Z"/>
      <g>
        <polygon class="cls-8" points="13.97 62.58 10.18 62.58 19.18 24.48 22.97 24.48 13.97 62.58"/>
        <polygon class="cls-8" points="16.28 62.58 14.78 62.58 23.77 24.48 25.27 24.48 16.28 62.58"/>
      </g>
      <g>
        <ellipse class="cls-8" cx="9.97" cy="49.07" rx="1.3" ry="1.4"/>
        <ellipse class="cls-8" cx="12.07" cy="46.78" rx=".6" ry=".7"/>
      </g>
      <g>
        <line class="cls-2" x1="31.88" y1="27.88" x2="30.68" y2="39.38"/>
        <line class="cls-1" x1="31.68" y1="29.98" x2="31.08" y2="35.57"/>
      </g>
      <g>
        <line class="cls-2" x1="6.68" y1="28.88" x2="7.88" y2="40.38"/>
        <line class="cls-1" x1="6.88" y1="30.98" x2="7.47" y2="36.48"/>
      </g>
      <polyline class="cls-4" points="6.28 39.48 4.57 24.48 33.77 24.48 32.88 32.57"/>
      <line class="cls-3" x1="19.28" y1="61.28" x2="27.77" y2="61.28"/>
      <line class="cls-6" x1="22.77" y1="61.28" x2="25.68" y2="61.28"/>
      <path class="cls-6" d="M22.47,46.98s2,.2,4.3-.5"/>
      <path class="cls-4" d="M6.88,45.17l3.1-1c2.7-.8,5.6-.6,8.1,.7h0c3.2,1.6,7,1.6,10.2-.2l3.3-1.8"/>
      <line class="cls-3" x1="30.27" y1="48.88" x2="29.27" y2="57.67"/>
      <line class="cls-6" x1="29.88" y1="51.88" x2="29.47" y2="54.98"/>
      <line class="cls-4" x1="7.88" y1="53.67" x2="6.68" y2="43.07"/>
      <path class="cls-4" d="M32.58,35.67l-2.4,24.6c-.1,1.4-1.2,2.4-2.6,2.4H11.18c-1.4,0-2.5-1-2.6-2.4l-.4-3.6"/>
      <g class="cls-12">
        <circle class="cls-7" cx="21.58" cy="54.08" r="1"/>
        <circle class="cls-7" cx="22.97" cy="52.57" r=".5"/>
        <circle class="cls-7" cx="20.58" cy="58.17" r=".9"/>
        <circle class="cls-7" cx="20.88" cy="49.38" r=".5"/>
        <circle class="cls-7" cx="25.88" cy="56.58" r=".6"/>
        <circle class="cls-7" cx="29.97" cy="45.98" r=".4"/>
        <circle class="cls-7" cx="25.38" cy="50.48" r=".3"/>
      </g>
      <path class="cls-10" d="M2.57,20.78H35.77c1.1,0,2,.9,2,2h0c0,1.1-.9,2-2,2H2.57c-1.1,0-2-.9-2-2H.57c0-1.1,.9-2,2-2Z"/>
      <g>
        <line class="cls-5" x1="16.57" y1="21.67" x2="31.58" y2="21.67"/>
        <line class="cls-1" x1="21.77" y1="21.67" x2="25.68" y2="21.67"/>
      </g>
      <g>
        <line class="cls-5" x1="18.78" y1="20.07" x2="28.77" y2="20.07"/>
        <line class="cls-1" x1="20.97" y1="20.07" x2="24.97" y2="20.07"/>
      </g>
      <path class="cls-4" d="M14.18,20.78h21.6c1.1,0,2,.9,2,2h0c0,1.1-.9,2-2,2H2.57c-1.1,0-2-.9-2-2H.57c0-1.1,.9-2,2-2H10.77"/>
      <path class="cls-4" d="M26.38,9.28c1.6,.9,3,2.2,4.1,3.6"/>
      <path class="cls-4" d="M19.18,7.38c2,0,3.9,.4,5.6,1.1"/>
      <path class="cls-4" d="M4.78,20.78c.4-6.7,5.5-12.2,12-13.2"/>
    </g>
  </g>
</svg>