<?xml version="1.0" encoding="UTF-8"?>
<svg id="Layer_2" data-name="Layer 2" xmlns="http://www.w3.org/2000/svg" viewBox="0 0 49.39 65.35">
  <defs>
    <style>
      .cls-1, .cls-2, .cls-3, .cls-4, .cls-5, .cls-6 {
        fill: none;
        stroke-linecap: round;
        stroke-linejoin: round;
      }

      .cls-1, .cls-4 {
        stroke: #fff;
        stroke-width: 2px;
      }

      .cls-1, .cls-5 {
        isolation: isolate;
        opacity: .42;
      }

      .cls-2 {
        stroke-width: .75px;
      }

      .cls-2, .cls-3 {
        stroke: #4c4047;
      }

      .cls-7 {
        fill: #ffedca;
      }

      .cls-8 {
        fill: #ffd576;
      }

      .cls-9 {
        fill: #07d329;
      }

      .cls-10 {
        fill: #56fc76;
      }

      .cls-3 {
        stroke-width: 1.25px;
      }

      .cls-5, .cls-6 {
        stroke: #07d329;
        stroke-width: 3px;
      }
    </style>
  </defs>
  <g id="Layer_2-2" data-name="Layer 2">
    <g>
      <g>
        <path class="cls-10" d="M25.73,58.28L5.43,15.68l6.1-4-6.8,3.3-3.7-2c-1-.5-.9-1.9,.1-2.4L21.53,.68c1-.5,2.1,.3,1.9,1.4l-.5,4.2-7,3.3,7.1-2.4,15.3,32.1,1.6,3.4,3.4,7.1-17.6,8.5h0Z"/>
        <path class="cls-10" d="M47.63,54.68l-20.6,9.8c-1,.5-2.2-.3-2.1-1.5l.5-4.6,18.2-8.7,4.1,2.4c1,.6,1,2.1-.1,2.6h0Z"/>
      </g>
      <path class="cls-9" d="M8.83,16.88h0c1.1-.5,2.3,0,2.8,1l2.5,5.3c.5,1.1,0,2.3-1,2.8h0c-1.1,.5-2.3,0-2.8-1l-2.5-5.3c-.5-1-.1-2.3,1-2.8Z"/>
      <path class="cls-9" d="M27.23,21.68h0c1.1-.5,2.3,0,2.8,1l2.5,5.3c.5,1.1,0,2.3-1,2.8h0c-1.1,.5-2.3,0-2.8-1l-2.5-5.3c-.5-1.1-.1-2.3,1-2.8Z"/>
      <line class="cls-3" x1="11.93" y1="15.88" x2="20.03" y2="11.98"/>
      <line class="cls-3" x1="24.93" y1="48.48" x2="36.33" y2="43.08"/>
      <path class="cls-8" d="M19.53,22.48h0c2.5-1.1,5.4-.1,6.6,2.4l5.7,12.4c1.1,2.5,.1,5.4-2.4,6.6h0c-2.5,1.1-5.4,.1-6.6-2.4l-5.7-12.4c-1.1-2.5-.1-5.4,2.4-6.6Z"/>
      <path class="cls-7" d="M23.33,37.18h0c-1,.5-2.3,0-2.8-1.1l-3.2-7.3c-.5-1.1,0-2.3,1-2.8h0c1.1-.5,2.3,0,2.8,1l3.2,7.3c.6,1.1,.1,2.4-1,2.9h0Z"/>
      <path class="cls-3" d="M21.43,38.18l-4.4-9.6c-1.1-2.5-.1-5.4,2.4-6.6h0c2.5-1.1,5.4-.1,6.5,2.4l5.7,12.4c1.1,2.5,.1,5.4-2.4,6.5h0c-2.5,1.2-5.4,.1-6.5-2.4"/>
      <line class="cls-1" x1="3.03" y1="11.38" x2="11.93" y2="6.98"/>
      <line class="cls-4" x1="5.53" y1="10.08" x2="9.13" y2="8.28"/>
      <line class="cls-6" x1="30.23" y1="57.38" x2="41.43" y2="52.18"/>
      <g>
        <line class="cls-5" x1="28.23" y1="55.98" x2="39.43" y2="50.78"/>
        <line class="cls-5" x1="31.83" y1="54.28" x2="35.13" y2="52.78"/>
      </g>
      <g>
        <line class="cls-5" x1="9.33" y1="14.58" x2="20.53" y2="9.28"/>
        <line class="cls-5" x1="12.93" y1="12.88" x2="16.23" y2="11.28"/>
      </g>
      <g>
        <line class="cls-3" x1="13.23" y1="31.58" x2="5.73" y2="15.78"/>
        <polyline class="cls-3" points="26.03 58.48 21.03 48.08 19.53 44.78 14.73 34.68"/>
        <line class="cls-3" x1="40.33" y1="42.98" x2="43.73" y2="49.98"/>
        <line class="cls-3" x1="23.43" y1="7.38" x2="38.73" y2="39.48"/>
        <path class="cls-3" d="M11.83,11.78l-6.8,3.3-3.7-2c-1-.5-.9-1.9,.1-2.4L21.83,.78c1-.5,2.1,.3,1.9,1.4l-.5,4.2-7,3.3"/>
        <path class="cls-3" d="M47.93,54.78l-20.6,9.8c-1,.5-2.2-.3-2.1-1.5l.5-4.6,18.2-8.7,4.1,2.4c1,.6,1,2.1-.1,2.6h0Z"/>
      </g>
      <g>
        <line class="cls-2" x1="28.13" y1="60.38" x2="29.63" y2="63.48"/>
        <line class="cls-2" x1="30.53" y1="59.58" x2="31.93" y2="62.68"/>
        <line class="cls-2" x1="44.43" y1="52.68" x2="45.83" y2="55.78"/>
        <line class="cls-2" x1="42.13" y1="53.48" x2="43.53" y2="56.58"/>
        <line class="cls-2" x1="32.83" y1="58.18" x2="34.23" y2="61.28"/>
        <line class="cls-2" x1="35.13" y1="57.08" x2="36.53" y2="60.18"/>
        <line class="cls-2" x1="37.43" y1="55.98" x2="38.83" y2="59.08"/>
        <line class="cls-2" x1="39.73" y1="54.48" x2="41.23" y2="57.58"/>
      </g>
      <g>
        <line class="cls-2" x1="21.33" y1="5.18" x2="19.93" y2="2.08"/>
        <line class="cls-2" x1="19.03" y1="5.98" x2="17.63" y2="2.88"/>
        <line class="cls-2" x1="5.13" y1="12.88" x2="3.73" y2="9.78"/>
        <line class="cls-2" x1="7.43" y1="12.18" x2="6.03" y2="9.08"/>
        <line class="cls-2" x1="16.73" y1="7.38" x2="15.23" y2="4.28"/>
        <line class="cls-2" x1="14.33" y1="8.48" x2="12.93" y2="5.38"/>
        <line class="cls-2" x1="12.03" y1="9.58" x2="10.63" y2="6.48"/>
        <line class="cls-2" x1="9.73" y1="11.08" x2="8.33" y2="7.98"/>
      </g>
    </g>
  </g>
</svg>