<?xml version="1.0" encoding="UTF-8"?>
<svg id="Layer_2" data-name="Layer 2" xmlns="http://www.w3.org/2000/svg" viewBox="0 0 60.95 49.55">
  <defs>
    <style>
      .cls-1, .cls-2, .cls-3, .cls-4, .cls-5, .cls-6, .cls-7, .cls-8, .cls-9 {
        fill: none;
        stroke-linecap: round;
        stroke-linejoin: round;
      }

      .cls-1, .cls-4, .cls-6, .cls-7, .cls-9 {
        stroke: #ffa300;
      }

      .cls-2 {
        opacity: .4;
      }

      .cls-2, .cls-3, .cls-8 {
        stroke: #fff;
      }

      .cls-2, .cls-4, .cls-10, .cls-11, .cls-12, .cls-7, .cls-8 {
        isolation: isolate;
      }

      .cls-2, .cls-6, .cls-8 {
        stroke-width: 2px;
      }

      .cls-3 {
        stroke-width: .75px;
      }

      .cls-13 {
        fill: #ffdd36;
      }

      .cls-14 {
        fill: #fff;
      }

      .cls-15 {
        fill: #ffea94;
      }

      .cls-16 {
        fill: #ffc639;
      }

      .cls-4 {
        opacity: .49;
      }

      .cls-4, .cls-7, .cls-9 {
        stroke-width: 3px;
      }

      .cls-5 {
        stroke: #4c4047;
        stroke-width: 1.15px;
      }

      .cls-10 {
        fill: #c6dee5;
      }

      .cls-10, .cls-11, .cls-12 {
        opacity: .45;
      }

      .cls-11 {
        fill: #e5d7f9;
      }

      .cls-12 {
        fill: #f3ebfc;
      }

      .cls-7 {
        opacity: .29;
      }

      .cls-8 {
        opacity: .72;
      }
    </style>
  </defs>
  <g id="Layer_2-2" data-name="Layer 2">
    <g>
      <ellipse class="cls-12" cx="43.57" cy="24.78" rx="16.8" ry="24.2"/>
      <ellipse class="cls-16" cx="43.58" cy="30.38" rx="10.1" ry="12"/>
      <ellipse class="cls-13" cx="41.48" cy="30.38" rx="5.5" ry="6.3"/>
      <ellipse class="cls-14" cx="38.68" cy="28.08" rx="1.3" ry="1.4"/>
      <ellipse class="cls-14" cx="40.68" cy="25.88" rx=".6" ry=".7"/>
      <path class="cls-11" d="M60.57,24.28c0,13.4-7.5,24.2-16.8,24.2-7.6,0-13.9-7.2-16.1-17.1,2.8,7.6,8.4,12.7,14.8,12.7,9.3,0,16.8-10.8,16.8-24.2,0-2.5-.3-4.9-.7-7.1,1.3,3.5,2,7.4,2,11.5Z"/>
      <path class="cls-16" d="M48.98,29.88c0,1.2-.9,2.6-2.4,2.9-.8,.2-1.7-.1-2.3-.6-.7-.5-1.1-1.4-1.1-2.3s.4-1.8,1.1-2.3c.7-.6,1.6-.8,2.3-.6,1.6,.3,2.4,1.7,2.4,2.9h0Zm0,0c0-.6-.3-1.3-.8-1.6-.5-.4-1.1-.5-1.6-.3-1.1,.3-1.4,1.2-1.4,1.9s.4,1.6,1.4,1.9c.5,.1,1.1,.1,1.6-.3,.5-.3,.8-.9,.8-1.6Z"/>
      <path class="cls-6" d="M40.78,19.68c1-.4,2.7-.8,4.8-.2"/>
      <path class="cls-5" d="M52.57,24.78c-.5-1.9-1.3-3.8-2.4-5.3-1.6-2.2-3.8-3.9-6.1-4.5"/>
      <path class="cls-6" d="M44.78,41.08s4.1,.1,7.1-6"/>
      <path class="cls-5" d="M53.68,31.48c-.5,6.1-4.8,10.9-10.1,10.9-5.6,0-10.1-5.4-10.1-12,0-3.3,1.1-6.2,2.9-8.4"/>
      <path class="cls-5" d="M38.78,19.78c1.4-.9,3.1-1.4,4.8-1.4,5.2,0,9.5,4.6,10.1,10.6"/>
      <path class="cls-1" d="M39.18,35.98s2.4,1.8,5.3-.4"/>
      <path class="cls-3" d="M37.28,26.08s1.6-2.2,4.1-2.1"/>
      <path class="cls-5" d="M32.18,6.98c3-4,7-6.4,11.4-6.4,9.3,0,16.8,10.8,16.8,24.2s-7.5,24.2-16.8,24.2-16.8-10.8-16.8-24.2"/>
      <ellipse class="cls-14" cx="17.38" cy="24.78" rx="16.8" ry="24.2"/>
      <ellipse class="cls-16" cx="17.38" cy="30.38" rx="10.1" ry="12"/>
      <ellipse class="cls-13" cx="15.28" cy="30.38" rx="5.5" ry="6.3"/>
      <ellipse class="cls-15" cx="15.28" cy="30.38" rx="3.1" ry="3.5"/>
      <g>
        <ellipse class="cls-14" cx="13.28" cy="30.98" rx="1.3" ry="1.4"/>
        <ellipse class="cls-14" cx="15.28" cy="28.68" rx=".6" ry=".7"/>
      </g>
      <path class="cls-10" d="M34.48,24.28c0,13.4-7.5,24.2-16.8,24.2-7.6,0-13.9-7.2-16.1-17.1,2.8,7.6,8.4,12.7,14.8,12.7,9.3,0,16.8-10.8,16.8-24.2,0-2.5-.3-4.9-.7-7.1,1.2,3.5,2,7.4,2,11.5Z"/>
      <path class="cls-5" d="M9.68,8.28c.3-.4,.7-.8,1.1-1.2"/>
      <path class="cls-5" d="M5.88,15.18s.8-2.5,2.5-5.2"/>
      <path class="cls-7" d="M14.18,20.08c1.3-.7,4.9-1.4,8.2,1.1"/>
      <path class="cls-4" d="M16.48,19.38c.8-.1,1.8,0,2.8,.2"/>
      <path class="cls-5" d="M26.98,26.68c-.8-6.6-6.1-12.4-11.7-11.7-1.2,.2-2.4,.6-3.4,1.2"/>
      <path class="cls-4" d="M16.98,41.38l1.6-.2s2.8-.2,5.4-3.3c1.2-1.4,2-3.2,2.4-5h0"/>
      <path class="cls-9" d="M20.88,40.48c1.1-.6,2.6-1.7,3.9-3.8"/>
      <path class="cls-5" d="M12.57,19.78c1.4-.9,3.1-1.4,4.8-1.4,5.6,0,10.1,5.4,10.1,12s-4.5,12-10.1,12-10.1-5.4-10.1-12c0-3.3,1.1-6.2,2.9-8.4"/>
      <path class="cls-1" d="M13.07,35.98s2.4,1.8,5.3-.4"/>
      <path class="cls-2" d="M11.57,27.18s1.4-2.4,4.2-2.2"/>
      <path class="cls-8" d="M12.57,26.08c.3-.3,.8-.6,1.3-.8"/>
      <path class="cls-5" d="M2.18,14.68c1.2-3.7,3-6.8,5.2-9.2"/>
      <path class="cls-5" d="M.68,22.58c.1-1.7,.3-3.3,.7-4.9"/>
      <path class="cls-5" d="M9.48,3.48c2.4-1.8,5.1-2.9,7.9-2.9,9.3,0,16.8,10.8,16.8,24.2s-7.5,24.2-16.8,24.2S1.07,38.78,.57,25.88"/>
    </g>
  </g>
</svg>