<?xml version="1.0" encoding="UTF-8"?>
<svg id="Layer_2" data-name="Layer 2" xmlns="http://www.w3.org/2000/svg" viewBox="0 0 50.75 57.25">
  <defs>
    <style>
      .cls-1, .cls-2, .cls-3, .cls-4, .cls-5, .cls-6 {
        fill: none;
      }

      .cls-1, .cls-3, .cls-4, .cls-5, .cls-6 {
        stroke: #4c4047;
        stroke-linecap: round;
        stroke-linejoin: round;
      }

      .cls-2 {
        stroke: #7ae3f4;
        stroke-miterlimit: 10;
        stroke-width: 1.3px;
      }

      .cls-3 {
        stroke-width: .75px;
      }

      .cls-7 {
        fill: #f4d182;
      }

      .cls-8 {
        fill: #fff;
      }

      .cls-9 {
        fill: #fcecc5;
      }

      .cls-10 {
        fill: #ccf5ff;
      }

      .cls-11, .cls-12 {
        fill: #5ecbdd;
      }

      .cls-4 {
        stroke-dasharray: 0 0 0 0 0 0 2.19 2.19;
      }

      .cls-5 {
        stroke-width: 1.15px;
      }

      .cls-12 {
        isolation: isolate;
        opacity: .48;
      }

      .cls-6 {
        stroke-dasharray: 0 0 0 0 0 0 2.45 2.45;
      }
    </style>
  </defs>
  <g id="Layer_2-2" data-name="Layer 2">
    <g>
      <path class="cls-9" d="M16.07,9.27c.5-1.6,1.4-3.8,3-4.3l1.9-1.2c3.8-1.1,6.8-.8,10.3-2.7,.1-.1,.3-.2,.4-.2l2.9-.1c1.9,.8,5.1,.5,6.7,1.8,1.1,.8,2.1,1.8,2.6,3.2,.4,1.1,.4,2.6,1,3.5"/>
      <ellipse class="cls-7" cx="31.38" cy="3.87" rx="2" ry="1.1"/>
      <polyline class="cls-10" points="11.07 14.98 .57 14.98 .97 36.48 5.68 36.48 6.47 20.27 11.18 20.27"/>
      <line class="cls-2" x1="1.18" y1="16.27" x2="9.68" y2="16.27"/>
      <path class="cls-10" d="M39.97,56.48H17.67L12.77,11.17c-.1-.8,.6-1.4,1.4-1.5l29.4-.4h6.6c-2.3,3.2-3.9,7-4.5,10.9l-5.7,36.3Z"/>
      <polygon class="cls-11" points="48.27 12.48 13.38 12.48 13.38 9.57 49.97 9.57 48.27 12.48"/>
      <g>
        <polygon class="cls-8" points="24.07 56.67 20.47 56.67 16.88 9.17 20.57 9.17 24.07 56.67"/>
        <polygon class="cls-8" points="26.38 56.78 24.97 56.78 21.27 9.17 22.77 9.17 26.38 56.78"/>
      </g>
      <g>
        <line class="cls-3" x1="15.47" y1="47.57" x2="21.27" y2="47.57"/>
        <line class="cls-3" x1="10.88" y1="45.37" x2="18.47" y2="45.37"/>
        <line class="cls-3" x1="8.38" y1="43.07" x2="14.57" y2="43.07"/>
      </g>
      <line class="cls-5" x1="27.97" y1="43.57" x2="41.38" y2="43.57"/>
      <g>
        <line class="cls-1" x1="30.88" y1="38.98" x2="32.88" y2="38.98"/>
        <line class="cls-6" x1="35.38" y1="38.98" x2="38.97" y2="38.98"/>
        <line class="cls-1" x1="40.27" y1="38.98" x2="42.27" y2="38.98"/>
      </g>
      <g>
        <line class="cls-1" x1="23.77" y1="48.28" x2="24.77" y2="48.28"/>
        <line class="cls-4" x1="26.97" y1="48.28" x2="38.97" y2="48.28"/>
        <line class="cls-1" x1="40.18" y1="48.28" x2="41.18" y2="48.28"/>
      </g>
      <g>
        <line class="cls-1" x1="38.07" y1="29.67" x2="40.07" y2="29.67"/>
        <line class="cls-1" x1="42.38" y1="29.67" x2="44.38" y2="29.67"/>
      </g>
      <line class="cls-5" x1="34.07" y1="34.27" x2="43.38" y2="34.27"/>
      <line class="cls-5" x1="40.38" y1="24.87" x2="44.77" y2="24.87"/>
      <line class="cls-5" x1="42.07" y1="20.17" x2="45.47" y2="20.17"/>
      <g>
        <path class="cls-5" d="M34.57,.57c6.7,0,10.3,3.2,10.3,8.4"/>
        <path class="cls-5" d="M16.07,9.27l.1-.3c1.3-3.4,4.4-5.8,8-6.2,2.6-.3,5.1-.7,7-1.8"/>
      </g>
      <g>
        <polyline class="cls-5" points="6.07 27.48 6.47 20.27 11.07 20.27"/>
        <polyline class="cls-5" points="11.07 14.98 .57 14.98 .97 36.48 5.68 36.48 5.88 31.37"/>
      </g>
      <circle class="cls-12" cx="40.97" cy="15.48" r=".8"/>
      <circle class="cls-12" cx="37.27" cy="14.37" r=".8"/>
      <circle class="cls-12" cx="43.97" cy="12.48" r=".8"/>
      <circle class="cls-12" cx="43.18" cy="14.98" r=".5"/>
      <circle class="cls-12" cx="38.68" cy="15.57" r=".5"/>
      <circle class="cls-12" cx="40.77" cy="13.77" r=".5"/>
      <ellipse class="cls-7" cx="34.38" cy="5.98" rx="2" ry="1.1"/>
      <ellipse class="cls-7" cx="27.38" cy="4.57" rx=".8" ry=".4"/>
      <ellipse class="cls-7" cx="29.77" cy="5.98" rx=".8" ry=".4"/>
      <ellipse class="cls-7" cx="23.38" cy="6.98" rx=".9" ry=".5"/>
      <ellipse class="cls-7" cx="39.07" cy="7.48" rx=".9" ry=".5"/>
      <ellipse class="cls-7" cx="27.07" cy="7.48" rx=".9" ry=".5"/>
      <path class="cls-11" d="M29.88,53.37h7.2c.8,0,1.4,.6,1.4,1.4h0c0,.8-.6,1.4-1.4,1.4h-7.2c-.8,0-1.4-.6-1.4-1.4h0c-.1-.7,.6-1.4,1.4-1.4Z"/>
      <path class="cls-11" d="M14.97,31.67l-1.2-11.4c0-.8,.6-1.5,1.4-1.5h0c.8,0,1.5,.6,1.5,1.4l1.2,11.4c0,.8-.6,1.4-1.4,1.5h0c-.8,0-1.5-.6-1.5-1.4h0Z"/>
      <path class="cls-5" d="M38.68,56.67H19.28c-.9,0-1.6-.7-1.6-1.6L12.78,10.87c-.1-.8,.6-1.4,1.4-1.4H50.18c-1.4,1.9-3.2,5-3.2,5,0,0-1,4.2-1.2,5.9l-5.5,34.9c-.1,.8-.7,1.4-1.6,1.4h0Z"/>
      <line class="cls-3" x1="1.18" y1="24.67" x2="3.88" y2="24.67"/>
      <line class="cls-3" x1="37.97" y1="16.27" x2="45.97" y2="16.27"/>
    </g>
  </g>
</svg>