<?xml version="1.0" encoding="UTF-8"?>
<svg id="Layer_2" data-name="Layer 2" xmlns="http://www.w3.org/2000/svg" viewBox="0 0 47.34 51.41">
  <defs>
    <style>
      .cls-1, .cls-2, .cls-3, .cls-4, .cls-5, .cls-6, .cls-7, .cls-8, .cls-9, .cls-10, .cls-11 {
        fill: none;
        stroke-linecap: round;
        stroke-linejoin: round;
      }

      .cls-1, .cls-4, .cls-7 {
        stroke: #fff;
      }

      .cls-2 {
        stroke: #05dd29;
      }

      .cls-3 {
        stroke: #f9b200;
      }

      .cls-4 {
        opacity: .62;
      }

      .cls-4, .cls-5, .cls-6, .cls-12, .cls-7, .cls-9, .cls-10, .cls-11 {
        isolation: isolate;
      }

      .cls-4, .cls-5, .cls-7, .cls-9, .cls-10 {
        stroke-width: 3px;
      }

      .cls-5, .cls-12 {
        opacity: .52;
      }

      .cls-5, .cls-9, .cls-10 {
        stroke: #ef9830;
      }

      .cls-6 {
        opacity: .31;
      }

      .cls-6, .cls-11 {
        stroke: #fcbb17;
        stroke-width: 2px;
      }

      .cls-13 {
        fill: #ed7d03;
      }

      .cls-14, .cls-12 {
        fill: #ef9830;
      }

      .cls-15 {
        fill: #f3be75;
      }

      .cls-16 {
        fill: #fff;
      }

      .cls-17 {
        fill: #ffd55f;
      }

      .cls-18 {
        fill: #92ff5f;
      }

      .cls-19 {
        fill: #4c4047;
      }

      .cls-7 {
        opacity: .47;
      }

      .cls-8 {
        stroke: #4c4047;
        stroke-width: 1.01px;
      }

      .cls-20 {
        opacity: .23;
      }

      .cls-21 {
        opacity: .81;
      }

      .cls-9 {
        opacity: .67;
      }

      .cls-10 {
        opacity: .35;
      }

      .cls-11 {
        opacity: .86;
      }
    </style>
  </defs>
  <g id="Layer_2-2" data-name="Layer 2">
    <g>
      <path class="cls-13" d="M37.81,9.8c4.1-3.2,8.4,3.9,9.1,6.1h0c0,.2,.1,.3,.1,.5,.7,2.4-1.2,3.1-2.4,5.3l-.5,2.1h0v25.4c0,1-.8,1.7-1.7,1.7h-6.5"/>
      <path class="cls-8" d="M44.11,23.8h0v25.4c0,1-.8,1.7-1.7,1.7h-4.5"/>
      <polyline class="cls-18" points="39.9 11.61 42.61 5.9 38.2 4.31 35.81 .5 33.2 1.81 28.81 4 24.61 1.7 20.3 3.7 16.11 1.7 12.7 4.2 9 2.11 2.4 6.8"/>
      <polyline class="cls-8" points="37.61 10.3 36.81 5.4 27.81 6.9"/>
      <polyline class="cls-17" points="1.6 14.5 .5 7.11 13 7.71"/>
      <path class="cls-15" d="M23.7,6.71c5.2,.1,10.4,1.5,15.2,4.2,1.8,1,3.2,2.8,3.9,5h0c0,.2,.1,.3,.1,.5,.7,2.4,.2,2.1-.9,4.2l-2,2.5h0v26.1c0,.9-.7,1.6-1.6,1.6H5.7c-1.1,0-1.9-.9-1.9-2V23.11l-.1-1.3-1.2-1.1c-1.2-2.1-2.3-2-1.6-4.4,.1-.2,.1-.3,.1-.5h0c.7-2.2,2.9-4.7,4.7-5.8,4.8-2.6,9.2-3.3,14.3-3.4"/>
      <polyline class="cls-17" points="37.5 10.4 36.61 5.5 27.61 7"/>
      <polyline class="cls-8" points="40 11.61 42.81 5.9 38.31 4.31 36 .5"/>
      <path class="cls-14" d="M39.9,49.3c-.1,.7-.6,1.2-1.3,1.2l-33.2,.4v.1c10.6-1.1,18.4-5,23.6-10.2,9-8.9,9.3-23.4,1-33h0l6.1,1.5,4.1,2.4,2.9,4.2-.1,3.6-1.9,2.3-1.1,2.2,.2,22-.3,3.3h0Z"/>
      <line class="cls-8" x1="31.2" y1="26.21" x2="31.2" y2="45.11"/>
      <g class="cls-20">
        <path class="cls-16" d="M4.9,15.3c.2-.4,.4-.8,.7-1.1l-.2,.3c.4-.5,.8-.9,1.3-1.3l-.3,.2c.5-.4,1-.7,1.6-.9,.3-.1,.6-.6,.7-.9,.1-.4,.1-.8-.1-1.2s-.5-.6-.9-.7h-.4c-.3,0-.5,.1-.8,.2-1.8,.8-3.3,2.2-4.1,3.9-.2,.4-.3,.8-.1,1.2,.1,.4,.4,.7,.7,.9,.4,.2,.8,.3,1.2,.1,.2-.2,.5-.4,.7-.7h0Z"/>
      </g>
      <g class="cls-21">
        <path class="cls-16" d="M11.3,11.11c.9-.3,1.7-.6,2.6-.8,.5-.1,1-.2,1.4-.3,.1,0,.2,0,.4-.1,0,0,.5-.1,.2,0s.2,0,.2,0h.4c.4,0,.8-.1,1.1-.4,.3-.3,.5-.7,.4-1.1,0-.8-.7-1.6-1.5-1.5-2.1,.2-4.1,.7-6.1,1.4-.4,.1-.7,.3-.9,.7-.2,.3-.3,.8-.1,1.2,.3,.6,1.1,1.2,1.9,.9h0Z"/>
      </g>
      <g class="cls-20">
        <path class="cls-16" d="M5.8,13.9c.3-.3,.6-.5,.9-.8l-.3,.2c.1-.1,.2-.1,.3-.2,.2-.1,.3-.2,.4-.4,.1-.1,.2-.3,.3-.5,.1-.2,.1-.4,0-.6,0-.2-.1-.4-.2-.6l-.2-.3c-.2-.2-.4-.3-.7-.4l-.4-.1c-.3,0-.5,.1-.8,.2-.5,.4-1,.8-1.4,1.2-.1,.1-.2,.3-.3,.5s-.1,.4-.1,.6,0,.4,.1,.6,.2,.4,.3,.5l.3,.2c.2,.1,.5,.2,.8,.2h.4c.2,0,.4-.1,.6-.3h0Z"/>
      </g>
      <path class="cls-8" d="M3.6,11.61s-5.7,5.6,0,10.3"/>
      <path class="cls-8" d="M39.7,11.4s6.4,5.1,1,10.5"/>
      <path class="cls-8" d="M44.31,11.61s5.7,5.6,0,10.3"/>
      <circle class="cls-19" cx="42.9" cy="10.21" r=".6"/>
      <line class="cls-7" x1="5.1" y1="26.61" x2="5.1" y2="40.3"/>
      <line class="cls-4" x1="5.1" y1="32.3" x2="5.1" y2="35.71"/>
      <g>
        <line class="cls-10" x1="14.61" y1="26.61" x2="14.61" y2="40.3"/>
        <line class="cls-10" x1="14.61" y1="32.3" x2="14.61" y2="35.71"/>
      </g>
      <line class="cls-5" x1="23.81" y1="28" x2="23.81" y2="41.71"/>
      <line class="cls-9" x1="23.81" y1="33.8" x2="23.81" y2="37.21"/>
      <line class="cls-8" x1="12.8" y1="26.21" x2="12.8" y2="45.11"/>
      <line class="cls-8" x1="22" y1="26.21" x2="22" y2="45.11"/>
      <ellipse class="cls-14" cx="33.2" cy="19.61" rx="1" ry="1.4"/>
      <circle class="cls-14" cx="32.11" cy="16.5" r=".5"/>
      <circle class="cls-12" cx="30.31" cy="20" r=".9"/>
      <circle class="cls-12" cx="29.2" cy="17.11" r=".9"/>
      <circle class="cls-14" cx="30.7" cy="14" r=".6"/>
      <circle class="cls-14" cx="33.61" cy="13.8" r=".8"/>
      <line class="cls-6" x1="3.5" y1="8.11" x2="6.3" y2="8.4"/>
      <line class="cls-11" x1="4.6" y1="8.21" x2="5.3" y2="8.3"/>
      <line class="cls-1" x1="1.6" y1="8.8" x2="2" y2="11.3"/>
      <line class="cls-1" x1="35.81" y1="6.11" x2="33.5" y2="6.5"/>
      <polyline class="cls-8" points="1.6 14.3 .5 7.11 11.7 8.11"/>
      <path class="cls-3" d="M33.11,7.71c1,.3,2.1,.7,3,1.2"/>
      <g>
        <path class="cls-8" d="M6.4,10.3c4.4-2.2,9.1-3.4,13.7-3.5"/>
        <path class="cls-8" d="M40.2,23.3h0v26c0,.9-.7,1.6-1.6,1.6H5.6c-.9,0-1.6-.7-1.6-1.6V23.3h0"/>
        <path class="cls-8" d="M23.81,6.8c4.9,.1,9.8,1.4,14.4,3.8"/>
      </g>
      <polyline class="cls-8" points="37.5 10 36.81 5.4 27.81 6.9"/>
      <line class="cls-1" x1="4.7" y1="5.81" x2="8.8" y2="3.2"/>
      <line class="cls-1" x1="12.8" y1="5.11" x2="16.5" y2="2.4"/>
      <line class="cls-2" x1="17.61" y1="3.4" x2="19.9" y2="4.4"/>
      <line class="cls-2" x1="24.61" y1="2.7" x2="28.4" y2="4.7"/>
      <polyline class="cls-8" points="33.11 1.81 28.81 4 24.5 1.81 20.3 3.7 16.11 1.81 12.5 4.4 9 2.11 3.3 5.61"/>
    </g>
  </g>
</svg>