<?xml version="1.0" encoding="UTF-8"?>
<svg id="Layer_2" data-name="Layer 2" xmlns="http://www.w3.org/2000/svg" viewBox="0 0 678.7 395.44">
  <defs>
    <style>
      .cls-1 {
        fill: #fff;
      }

      .cls-2 {
        fill: #ecebeb;
      }

      .cls-3 {
        fill: #9fb1bc;
      }

      .cls-4 {
        fill: #caeefc;
      }

      .cls-5 {
        fill: #c4c4c4;
      }

      .cls-6 {
        fill: #d2eef9;
      }

      .cls-7 {
        fill: #3e3127;
      }

      .cls-8 {
        fill: #455760;
      }

      .cls-9 {
        fill: #637582;
      }

      .cls-10 {
        fill: #78abba;
      }
    </style>
  </defs>
  <g id="Layer_1-2" data-name="Layer 1">
    <g id="Layer_2-2" data-name="Layer 2">
      <g id="Layer_1-2" data-name="Layer 1-2">
        <ellipse class="cls-7" cx="379.74" cy="379.21" rx="298.96" ry="16.23"/>
        <path class="cls-9" d="M587.29,351.34H175.93c-5.38-.02-9.73-4.39-9.73-9.77V79.76c0-5.4,4.37-15.92,9.77-15.92h411.32c5.38,0,9.75,10.53,9.75,15.92V341.58c0,5.39-4.36,9.76-9.75,9.77Z"/>
        <path class="cls-3" d="M597.1,70.11v9.5c0-5.4,1.79-9.77-3.59-9.77H171.8c-5.38-.08-5.6,4.37-5.6,9.77v-9.5c0-5.39,4.36-9.76,9.75-9.77h411.34c5.39-.02,9.79,4.33,9.81,9.73,0,.01,0,.03,0,.04Z"/>
        <polyline class="cls-4" points="183.73 344.72 183.73 83.35 579.47 83.35 579.47 344.47"/>
        <rect class="cls-10" x="184.09" y="334.15" width="395.75" height="9.54"/>
        <rect class="cls-1" x="184.09" y="85.85" width="395.75" height="9.54"/>
        <path class="cls-7" d="M601.2,346.42h-8.21V71.82c0-3.12-2.53-5.64-5.64-5.64H175.93c-3.1,.02-5.61,2.54-5.62,5.64V344.72h-8.21V71.82c.01-7.65,6.22-13.85,13.87-13.85h411.32c7.66-.02,13.89,6.17,13.91,13.83,0,0,0,.01,0,.02V346.42Z"/>
        <path class="cls-9" d="M122.19,346.42H641.03c8.41,0,15.22,6.82,15.22,15.22h0c0,8.41-6.82,15.22-15.22,15.22H122.19c-8.41,0-15.22-6.82-15.22-15.22h0c0-8.41,6.82-15.22,15.22-15.22Z"/>
        <path class="cls-8" d="M656.25,363.65c.01,8.4-6.79,15.21-15.18,15.22-.01,0-.03,0-.04,0H122.19c-8.41,0-15.22-6.82-15.22-15.22h0c0-2.68,.7-5.3,2.05-7.61,2.71,4.72,7.73,7.62,13.17,7.61H641.03c4.04,0,7.91-1.6,10.77-4.45,.94-.94,1.74-2,2.4-3.16,1.35,2.31,2.06,4.94,2.05,7.61Z"/>
        <path class="cls-7" d="M641.03,382.31H122.19c-10.67,0-19.33-8.64-19.34-19.32,0-10.67,8.64-19.33,19.32-19.34H641.03c10.67,0,19.32,8.67,19.32,19.34,0,10.66-8.65,19.31-19.32,19.32Zm-518.84-30.45c-6.14,0-11.13,4.97-11.13,11.11s4.97,11.13,11.11,11.13H641.03c6.14,0,11.12-4.99,11.11-11.13,0-6.13-4.98-11.11-11.11-11.11H122.19Z"/>
        <path class="cls-10" d="M340.94,248.4c-19.1,2.05-38.33,3.63-57.27,5.81l-96.95,11.14v-15.25l86.55-10.03c21.85-2.5,44.07-4.21,66.09-6.81,.12,5.08,.65,10.15,1.58,15.14Z"/>
        <path class="cls-10" d="M519.43,266.09c-19.3,48.73-74.45,72.58-123.18,53.28-30.27-11.99-52.28-38.66-58.31-70.66-.93-4.97-1.45-10.01-1.58-15.06v-2.52c0-2.63,.1-5.25,.31-7.82v-.27c1.03,12.62,4.61,24.91,10.53,36.11,24.53,46.45,82.06,64.21,128.51,39.69,14.51-7.66,26.78-18.94,35.64-32.75l15.43-22.08-7.35,22.08Z"/>
        <polygon class="cls-7" points="186.8 346.13 180.65 346.13 180.65 81.66 582.57 81.66 582.57 345.86 576.41 345.86 576.41 87.82 186.8 87.82 186.8 346.13"/>
        <path class="cls-7" d="M147.74,85.5c-18.06-10.42-24.26-33.5-13.85-51.57,5.66-9.82,15.44-16.58,26.63-18.4,.78-.12,1.54-.23,2.32-.29,9.72-.94,19.38,2.3,26.55,8.93,7.67,6.93,12.04,16.79,12.04,27.13v1.56h-4.1v-1.56c.02-9.17-3.83-17.92-10.61-24.09-6.33-5.84-14.84-8.7-23.41-7.88-.68,0-1.37,.14-2.05,.27-18.35,2.96-30.82,20.24-27.85,38.59,1.61,9.98,7.63,18.71,16.38,23.77l-2.05,3.55Z"/>
        <path class="cls-7" d="M213.4,27.86c-7.69,0-13.93-6.24-13.93-13.93S205.7,0,213.4,0s13.93,6.24,13.93,13.93c-.01,7.69-6.24,13.92-13.93,13.93Zm0-23.76c-5.43,0-9.83,4.4-9.83,9.83s4.4,9.83,9.83,9.83,9.83-4.4,9.83-9.83c-.01-5.42-4.41-9.82-9.83-9.83Z"/>
        <path class="cls-7" d="M586.63,43.77c-1.13,0-2.05-.92-2.05-2.05V11.39c0-1.13,.92-2.05,2.05-2.05s2.05,.92,2.05,2.05v30.33c0,1.13-.92,2.05-2.05,2.05Z"/>
        <path class="cls-7" d="M648.95,88.62h-29.57c-1.13,0-2.05-.92-2.05-2.05s.92-2.05,2.05-2.05h29.57c1.13,0,2.05,.92,2.05,2.05s-.92,2.05-2.05,2.05Z"/>
        <path class="cls-7" d="M638.67,31.5c-.58,0-1.13-.23-1.52-.66-.77-.83-.72-2.13,.11-2.9,0,0,.01,0,.02-.01l11.41-10.55c.77-.83,2.07-.87,2.9-.1,.83,.77,.87,2.07,.1,2.9-.06,.07-.13,.13-.21,.19l-11.41,10.57c-.38,.35-.88,.55-1.4,.55Z"/>
        <path class="cls-7" d="M611.93,56.24c-.57,0-1.11-.24-1.5-.66-.78-.83-.74-2.12,.09-2.9,0,0,0,0,.01-.01l16.11-14.92c.83-.77,2.13-.72,2.9,.11,0,0,0,.01,.01,.02,.76,.83,.71,2.13-.12,2.89l-16.11,14.92c-.38,.35-.88,.55-1.4,.55Z"/>
        <path class="cls-7" d="M601.73,46.41c-.38,0-.74-.1-1.07-.29-.97-.59-1.27-1.85-.68-2.82,0,0,0,0,0-.01l6.98-11.45c.59-.97,1.85-1.27,2.82-.68,0,0,0,0,.01,0,.96,.59,1.26,1.85,.68,2.81l-7,11.47c-.38,.6-1.04,.97-1.74,.96Z"/>
        <path class="cls-7" d="M628.04,72h-8.66c-1.13,0-2.05-.92-2.05-2.05s.92-2.05,2.05-2.05h8.66c1.13,0,2.05,.92,2.05,2.05s-.92,2.05-2.05,2.05Z"/>
        <path class="cls-2" d="M336.32,231.25c-23.47,2.89-47.19,4.66-70.63,7.35l-160.95,18.47c-21.48,2.46-43.62,8.47-65.25,3.84-21.63-4.64-35.39-24.93-35.39-46.54v1.66c0-21.65,13.87-41.92,35.39-46.54,21.52-4.62,43.77,1.37,65.25,3.84l160.95,18.47c23.35,2.69,47.19,4.43,70.65,7.35"/>
        <path class="cls-1" d="M332.28,204.51v7.84c-23.49-2.89-47.3-4.66-70.65-7.35l-160.95-18.47c-21.48-2.46-43.62-8.47-65.25-3.92C15.49,186.97,2.05,204.67,.29,224.48c-.17-1.3-.26-2.61-.29-3.92,.33-21.34,14.12-41.16,35.37-45.72,21.63-4.64,43.77,1.37,65.25,3.84l160.95,18.47c23.41,2.71,47.21,4.45,70.71,7.37Z"/>
        <path class="cls-5" d="M340.94,221.87v10.26c-23.49,2.91-47.19,4.68-70.65,7.35l-160.93,18.47c-21.48,2.65-43.71,8.56-65.27,3.92-21.22-4.56-35.03-24.38-35.37-45.7,.04-3.42,.44-6.82,1.19-10.16,3.8,17.19,16.42,31.76,34.18,35.56,21.65,4.64,43.79,8.6,65.27,6.16l160.93-18.47c23.35-2.71,47.15-4.47,70.65-7.39Z"/>
        <path class="cls-2" d="M519.43,245.63c-19.16,48.86-74.3,72.93-123.15,53.78-48.86-19.16-72.93-74.3-53.77-123.15,19.16-48.86,74.3-72.93,123.15-53.78,22.62,8.87,40.98,26.07,51.31,48.05h-75.92v75.1h78.38Z"/>
        <path class="cls-1" d="M518.61,174.98h-6.16c-28.31-44.01-86.94-56.74-130.95-28.44-25.45,16.37-41.56,43.92-43.33,74.13,0-1.85-.16-3.69-.16-5.56,.08-52.34,42.58-94.71,94.92-94.63,36.69,.06,70.05,21.28,85.64,54.49h.04Z"/>
        <path class="cls-5" d="M519.43,248.09c-19.33,48.72-74.49,72.54-123.21,53.21-36.12-14.33-59.85-49.24-59.9-88.09,0-3.43,.19-6.85,.57-10.26,1.24,11.82,4.72,23.3,10.26,33.81,24.57,46.43,82.12,64.15,128.54,39.58,12.8-6.77,23.88-16.38,32.41-28.09l11.33-.16Z"/>
        <rect class="cls-1" x="377.36" y="177.1" width="45.82" height="14.55"/>
        <rect class="cls-1" x="377.36" y="202.58" width="45.82" height="14.55"/>
        <rect class="cls-1" x="377.36" y="228.07" width="45.82" height="14.55"/>
        <path class="cls-7" d="M56.73,269.43c-6.08,.05-12.15-.55-18.1-1.79C16.76,262.97,.74,242.55,0,218.77H0v-1.68c.74-23.78,16.76-44.2,38.64-48.83,17.05-3.65,34.2-1.01,50.78,1.54,5.21,.8,10.59,1.64,15.8,2.24l160.95,18.47c10.51,1.21,21.32,2.26,31.78,3.26,12.76,1.23,25.96,2.5,38.99,4.1l-1.01,8.21c-12.82-1.6-25.98-2.85-38.68-4.1-10.51-1.01-21.36-2.05-31.95-3.26l-160.95-18.47c-5.36-.62-10.81-1.46-16.11-2.26-15.84-2.44-32.24-4.99-47.81-1.64-18.47,3.84-31.87,21.3-32.23,41.59,.37,20.29,13.77,37.75,32.15,41.69,15.57,3.34,31.97,.8,47.83-1.64,5.27-.82,10.73-1.66,16.09-2.28,53.65-6.14,107.3-12.3,160.95-18.47,10.59-1.21,21.42-2.26,31.91-3.26,12.72-1.23,25.87-2.48,38.7-4.1l1.01,8.21c-12.95,1.6-26.14,2.87-38.99,4.1-10.44,1.01-21.24,2.05-31.74,3.26l-160.95,18.47c-5.19,.6-10.59,1.42-15.78,2.22-10.78,1.93-21.7,3.04-32.65,3.3Z"/>
        <path class="cls-7" d="M431.1,312.95c-54.61,0-98.88-44.27-98.88-98.88s44.27-98.88,98.88-98.88c38.4,0,73.33,22.23,89.58,57.02l2.75,5.83h-78.36v66.89h80.37l-2.22,5.6c-14.78,37.91-51.44,62.75-92.13,62.42Zm0-189.53c-50.08,.13-90.56,40.84-90.43,90.91,.13,50.08,40.84,90.56,90.91,90.43,34.86-.09,66.58-20.16,81.59-51.62h-76.31v-83.31h73.4c-16.1-28.6-46.34-46.33-79.16-46.41Z"/>
        <path class="cls-7" d="M425.23,196.3h-49.92v-18.67h49.92v18.67Zm-45.82-4.1h41.71v-10.46h-41.71v10.46Z"/>
        <path class="cls-7" d="M425.23,221.77h-49.92v-18.63h49.92v18.63Zm-45.82-4.1h41.71v-10.42h-41.71v10.42Z"/>
        <path class="cls-7" d="M425.23,247.25h-49.92v-18.65h49.92v18.65Zm-45.82-4.1h41.71v-10.44h-41.71v10.44Z"/>
        <circle class="cls-5" cx="97.22" cy="246.96" r="6.36"/>
        <circle class="cls-5" cx="414.6" cy="286.98" r="8.88"/>
        <circle class="cls-10" cx="554.25" cy="330.02" r="8.88"/>
        <path class="cls-1" d="M216.1,95.08c0,4.91-3.99,8.88-8.89,8.88-4.9,0-8.87-3.98-8.88-8.88,0-4.8,3.98-4.8,8.91-4.8s8.86,0,8.86,4.8Z"/>
        <circle class="cls-6" cx="219.22" cy="106.41" r="4.43"/>
        <circle class="cls-6" cx="198.07" cy="106.25" r="2.22"/>
        <circle class="cls-5" cx="104.83" cy="238.86" r="2.46"/>
        <circle class="cls-5" cx="425.83" cy="276.04" r="2.46"/>
        <circle class="cls-10" cx="560.7" cy="314.59" r="2.46"/>
        <circle class="cls-5" cx="404.3" cy="274.38" r="4.02"/>
        <circle class="cls-10" cx="535.81" cy="316.44" r="6.2"/>
        <path class="cls-7" d="M129.27,198.87h-.21l-22.02-2.59c-1.13-.13-1.95-1.15-1.82-2.29,.13-1.13,1.15-1.95,2.29-1.82l22.02,2.56c1.13,.06,2,1.03,1.94,2.16s-1.03,2-2.16,1.94l-.04,.02Z"/>
        <path class="cls-7" d="M133.37,205.82h-.21l-13.15-1.54c-1.13-.13-1.95-1.15-1.82-2.29,.13-1.13,1.15-1.95,2.29-1.82l13.15,1.54c1.13,.06,2,1.03,1.94,2.16s-1.03,2-2.16,1.94h-.04Z"/>
        <path class="cls-7" d="M605.55,361.54c-.56,.01-1.01-.43-1.03-.98,0,0,0-.01,0-.02-.01-.57,.44-1.03,1.01-1.05,0,0,.01,0,.02,0h22.16c.56-.01,1.01,.43,1.03,.98,0,0,0,.01,0,.02,0,.56-.44,1.02-1.01,1.05h-22.18Z"/>
        <path class="cls-7" d="M619.38,365.89c-.56,.01-1.01-.43-1.03-.98,0,0,0-.01,0-.02,0-.57,.46-1.04,1.03-1.05h13.23c.57,0,1.03,.46,1.03,1.03,.01,.56-.43,1.01-.98,1.03,0,0-.01,0-.02,0h-13.26Z"/>
        <path class="cls-7" d="M126.83,361.54c-.56,.01-1.01-.43-1.03-.98,0,0,0-.01,0-.02-.01-.57,.44-1.03,1.01-1.05,0,0,.01,0,.02,0h22.16c.55,.01,1,.45,1.03,1.01-.01,.57-.46,1.02-1.03,1.05h-22.16Z"/>
        <path class="cls-7" d="M140.66,365.89c-.56,0-1.01-.45-1.03-1.01,0-.57,.46-1.04,1.03-1.05h13.23c.57,0,1.03,.46,1.03,1.03s-.46,1.03-1.03,1.03h-13.23Z"/>
        <path class="cls-7" d="M524.42,135.42c-.52,0-1.02-.2-1.4-.55-.82-.77-.87-2.06-.1-2.89l23.12-25.01c.71-.88,2-1.02,2.89-.31,.88,.71,1.02,2,.31,2.89-.06,.07-.12,.13-.18,.19l-23.12,25.03c-.39,.42-.94,.66-1.52,.66Z"/>
        <path class="cls-7" d="M547.85,124.41c-1.13,0-2.06-.9-2.07-2.04,0-.52,.19-1.03,.55-1.41l13.83-14.96c.76-.85,2.06-.92,2.91-.16,.85,.76,.92,2.06,.16,2.91h0l-13.83,14.96c-.39,.45-.96,.7-1.56,.7Z"/>
        <path class="cls-7" d="M632.14,326.06c-7.69,0-13.93-6.24-13.93-13.93,0-7.69,6.24-13.93,13.93-13.93s13.93,6.24,13.93,13.93c-.01,7.69-6.24,13.92-13.93,13.93Zm0-23.76c-5.43,0-9.83,4.4-9.83,9.83,0,5.43,4.4,9.83,9.83,9.83s9.83-4.4,9.83-9.83c-.01-5.42-4.41-9.82-9.83-9.83Z"/>
        <path class="cls-7" d="M428.04,363.7h-92.13c-11.63,0-22.32-6.37-27.84-16.6-.54-1-.17-2.24,.83-2.78s2.24-.17,2.78,.83c4.83,8.87,14.13,14.38,24.23,14.36h92.13c10.1,.02,19.4-5.49,24.23-14.36,.54-1,1.78-1.37,2.78-.83s1.37,1.78,.83,2.78h0c-5.53,10.23-16.22,16.6-27.84,16.6Z"/>
        <path class="cls-1" d="M454.08,141.76c-.14,.02-.29,.02-.43,0-12.39-2.74-25.23-2.81-37.65-.21-1.1,.24-2.2-.46-2.44-1.56-.24-1.11,.46-2.2,1.57-2.44,0,0,0,0,0,0,12.99-2.75,26.42-2.68,39.38,.21,1.1,.24,1.81,1.32,1.58,2.42-.22,.93-1.05,1.59-2.01,1.58Z"/>
        <path class="cls-1" d="M389.14,152.7c-.64,0-1.23-.3-1.62-.8-.69-.89-.54-2.17,.35-2.87,4.42-3.13,9.23-5.68,14.3-7.57,1.05-.42,2.25,.1,2.67,1.15s-.1,2.25-1.15,2.67c-4.7,1.76-9.15,4.11-13.26,7-.37,.29-.83,.44-1.29,.43Z"/>
        <path class="cls-1" d="M200.55,138.15c-1.7,0-3.08-1.38-3.08-3.08v-13.01c0-1.7,1.38-3.08,3.08-3.08s3.08,1.38,3.08,3.08v13.01c0,1.7-1.38,3.08-3.08,3.08Z"/>
        <path class="cls-1" d="M200.55,174.02c-1.7,0-3.08-1.38-3.08-3.08v-20.38c0-1.7,1.38-3.08,3.08-3.08s3.08,1.38,3.08,3.08v20.38c0,1.7-1.38,3.08-3.08,3.08Z"/>
        <path class="cls-1" d="M191.03,194.23v.94c-.02,3,2.21,5.54,5.19,5.91l48.4,6.03c3.25,.4,6.21-1.92,6.6-5.17,.03-.24,.04-.48,.04-.72v-2.42"/>
      </g>
    </g>
  </g>
</svg>