<?xml version="1.0" encoding="UTF-8"?>
<svg id="Layer_2" data-name="Layer 2" xmlns="http://www.w3.org/2000/svg" viewBox="0 0 351.19 173.96">
  <defs>
    <style>
      .cls-1 {
        fill: #016eac;
      }

      .cls-2 {
        fill: #006a87;
      }

      .cls-3 {
        fill: #038cc6;
      }

      .cls-4 {
        fill: #ed2861;
      }

      .cls-5 {
        fill: #ffddcf;
      }

      .cls-6, .cls-7, .cls-8, .cls-9, .cls-10 {
        fill: #f7946d;
      }

      .cls-11 {
        fill: #ea9c7d;
      }

      .cls-12 {
        fill: #ef9673;
      }

      .cls-13 {
        fill: #ef7f11;
      }

      .cls-14 {
        fill: #e5805c;
      }

      .cls-15, .cls-16 {
        fill: #fff;
      }

      .cls-17 {
        fill: #ffd9ca;
      }

      .cls-18 {
        fill: #ffd7d7;
      }

      .cls-19 {
        fill: #ffb999;
      }

      .cls-20 {
        fill: #ffbb7d;
      }

      .cls-21 {
        fill: #e5dfe1;
      }

      .cls-22 {
        fill: #f69;
      }

      .cls-23 {
        fill: #7eb246;
      }

      .cls-24 {
        fill: #b5ea7d;
      }

      .cls-25 {
        fill: #913734;
      }

      .cls-26 {
        fill: #bb5047;
      }

      .cls-27 {
        fill: #a84848;
      }

      .cls-28, .cls-29 {
        fill: #c14c30;
      }

      .cls-30, .cls-31 {
        fill: #cc5c00;
      }

      .cls-32 {
        fill: #ce094a;
      }

      .cls-33 {
        fill: #cc7171;
      }

      .cls-34 {
        fill: #dd7873;
      }

      .cls-35, .cls-36 {
        fill: #e27352;
      }

      .cls-37 {
        fill: #133543;
      }

      .cls-38 {
        fill: #081b21;
      }

      .cls-39 {
        fill: #35798e;
      }

      .cls-40 {
        fill: #93cc5c;
      }

      .cls-41 {
        fill: #7178dd;
      }

      .cls-42, .cls-43 {
        fill: #9b3934;
      }

      .cls-44, .cls-45 {
        fill: #4853bc;
      }

      .cls-46 {
        fill: #392f2f;
      }

      .cls-47 {
        fill: #81ba45;
      }

      .cls-48 {
        fill: #772828;
      }

      .cls-31 {
        opacity: .5;
      }

      .cls-31, .cls-36, .cls-7, .cls-8, .cls-9, .cls-43, .cls-45, .cls-10, .cls-29, .cls-16 {
        isolation: isolate;
      }

      .cls-36 {
        opacity: .48;
      }

      .cls-7 {
        opacity: .81;
      }

      .cls-8 {
        opacity: .82;
      }

      .cls-9, .cls-49 {
        opacity: .83;
      }

      .cls-43 {
        opacity: .65;
      }

      .cls-45 {
        opacity: .52;
      }

      .cls-10 {
        opacity: .55;
      }

      .cls-29 {
        opacity: .51;
      }

      .cls-16 {
        opacity: .47;
      }
    </style>
  </defs>
  <g id="Layer_1-2" data-name="Layer 1">
    <g id="Layer_2-2" data-name="Layer 2">
      <g id="Sketch">
        <circle class="cls-4" cx="302.74" cy="99.85" r="12.39"/>
        <polygon class="cls-4" points="311.31 45.42 311.31 99.53 293.27 99.53 293.64 49.38 293.67 45.49 293.67 45.42 311.31 45.42"/>
        <circle class="cls-4" cx="338.8" cy="99.85" r="12.39"/>
        <rect class="cls-4" x="337" y="60.85" width="12.73" height="38.46"/>
        <path class="cls-32" d="M297.89,84.17l3,3,3.62,3.66,6.49,6.56c1.04,1.07,2.26,1.96,3.6,2.61v-1c0-.58-.03-1.16-.12-1.73-1.3-.67-2.47-1.55-3.48-2.61l-6.47-6.54-1.05-1.06-5.56-5.62c-2.01-2.02-3.28-4.66-3.58-7.5-.42,3.77,.89,7.53,3.55,10.23Z"/>
        <path class="cls-32" d="M343.69,84.17l-3,3-3.62,3.66-6.48,6.54c-1.03,1.08-2.25,1.97-3.59,2.63,0-.35-.05-.69-.05-1,0-.58,.04-1.16,.13-1.73,1.31-.63,2.51-1.48,3.54-2.52l6.48-6.54,1-1.06,5.57-5.62c2.01-2.02,3.28-4.66,3.58-7.5,.39,3.74-.92,7.46-3.56,10.14Z"/>
        <path class="cls-22" d="M301,87.38c-.55,0-1-.45-1-1v-5.1c0-.55,.45-1,1-1s1,.45,1,1v5.1c0,.55-.45,1-1,1Z"/>
        <path class="cls-22" d="M303.15,105.38c-.55,0-1-.45-1-1v-5.09c0-.55,.45-1,1-1s1,.45,1,1v5.09c0,.55-.45,1-1,1Z"/>
        <path class="cls-22" d="M297.75,96.38c-.55,0-1-.45-1-1v-5.09c0-.55,.45-1,1-1s1,.45,1,1v5.09c0,.55-.45,1-1,1Z"/>
        <path class="cls-22" d="M340.36,87.38c-.55,0-1-.45-1-1v-5.1c0-.55,.45-1,1-1s1,.45,1,1v5.1c0,.55-.45,1-1,1Z"/>
        <path class="cls-22" d="M342.54,105.38c-.55,0-1-.45-1-1v-5.09c0-.55,.45-1,1-1s1,.45,1,1v5.09c0,.55-.45,1-1,1Z"/>
        <path class="cls-22" d="M337.14,96.38c-.55,0-1-.45-1-1v-5.09c0-.55,.45-1,1-1s1,.45,1,1v5.09c0,.55-.45,1-1,1Z"/>
        <path class="cls-19" d="M28.44,118.61h0c.44,0,.79,.35,.79,.79h0v37.39c0,.44-.35,.79-.79,.79h-1.91c-4.69,0-8.5-3.81-8.5-8.5h0v-20.08c.01-5.74,4.67-10.39,10.41-10.39Z"/>
        <rect class="cls-5" x="20.78" y="129.87" width="3.01" height="16.7" rx="1.5" ry="1.5"/>
        <path class="cls-19" d="M65.68,125.36c0,1.87-.69,3.39-1.57,3.39l-16.49,.08c-.88,0-1.6-1.51-1.6-3.38v-15.45c.07-1.72,.72-3.07,1.54-3.11h0l16.44-.11h.06c.85,.06,1.54,1.54,1.55,3.37v12.03l.07,3.18Z"/>
        <rect class="cls-7" x="45.95" y="106.83" width="19.67" height="6.65" transform="translate(-.52 .26) rotate(-.27)"/>
        <path class="cls-19" d="M84.29,157.58h-1.89c-.44,0-.79-.35-.79-.79h0v-37.39c0-.44,.35-.79,.79-.79h0c5.75,0,10.41,4.67,10.4,10.42h0v20c.03,4.69-3.76,8.52-8.45,8.55-.02,0-.04,0-.06,0Z"/>
        <rect class="cls-3" x="32.79" y="131.68" width="18.09" height="37.47" transform="translate(-.71 .2) rotate(-.27)"/>
        <rect class="cls-3" x="60.6" y="131.55" width="18.09" height="37.47" transform="translate(-.71 .33) rotate(-.27)"/>
        <rect class="cls-1" x="32.74" y="131.68" width="18.09" height="19.28" transform="translate(-.67 .2) rotate(-.27)"/>
        <rect class="cls-1" x="60.55" y="131.55" width="18.09" height="19.28" transform="translate(-.66 .33) rotate(-.27)"/>
        <path class="cls-13" d="M87.21,142.81c.01,2.78-2.22,5.06-5,5.1l-52.53,.24c-2.79,.02-5.08-2.23-5.1-5.02,0-.01,0-.02,0-.03l-.11-22.82c-.01-2.78,2.22-5.06,5-5.1l10.4-.05h6.1l19.66-.13h4.09l12.28-.07c2.81-.01,5.09,2.25,5.1,5.06,0,0,0,0,0,.01l.11,22.81Z"/>
        <circle class="cls-35" cx="11.23" cy="80" r="11.23"/>
        <circle class="cls-28" cx="11.23" cy="80" r="6.08"/>
        <circle class="cls-35" cx="100.13" cy="80" r="11.23"/>
        <circle class="cls-28" cx="100.13" cy="80" r="6.08"/>
        <rect class="cls-19" x="11.23" y="47.88" width="88.84" height="63.83" rx="15.96" ry="15.96" transform="translate(-.38 .26) rotate(-.27)"/>
        <path class="cls-10" d="M11.29,79.89c.06,8.79,7.21,15.89,16,15.89l56.91-.27c8.23-.04,15.09-6.31,15.86-14.51l.07,14.5c0,8.79-7.1,15.94-15.89,16l-56.91,.27c-8.79,0-15.94-7.1-16-15.89"/>
        <circle class="cls-46" cx="71.71" cy="77.22" r="3.72"/>
        <path class="cls-6" d="M71.71,87.83c-8.13-.02-14.7-6.61-14.71-14.74v-1h2v1c0,7.04,5.71,12.74,12.75,12.73,7.03,0,12.73-5.7,12.73-12.73v-1h2v1c0,8.15-6.61,14.75-14.76,14.74,0,0,0,0-.01,0Z"/>
        <rect class="cls-6" x="57.97" y="69.59" width="41.96" height="3"/>
        <rect class="cls-46" x="68.95" y="68.1" width="33.98" height="2.5"/>
        <circle class="cls-46" cx="38.56" cy="77.22" r="3.72"/>
        <path class="cls-6" d="M38.56,87.83c-8.14,0-14.73-6.6-14.74-14.74v-1h2v1c0,7.04,5.7,12.74,12.74,12.74s12.74-5.7,12.74-12.74v-1h2v1c0,8.14-6.6,14.73-14.74,14.74Z"/>
        <rect class="cls-6" x="11.34" y="69.59" width="40.96" height="3"/>
        <polygon class="cls-16" points="34.25 69.35 27.77 79.86 31.01 82.84 39.8 69.35 34.25 69.35"/>
        <polygon class="cls-16" points="41.32 69.35 32.73 83.28 34.84 84.59 44.22 69.35 41.32 69.35"/>
        <polygon class="cls-16" points="69.1 69.35 62.62 79.86 65.86 82.84 74.65 69.35 69.1 69.35"/>
        <polygon class="cls-16" points="76.17 69.35 67.59 83.28 69.69 84.59 79.08 69.35 76.17 69.35"/>
        <path class="cls-46" d="M38.56,86.35c-8.28,0-15-6.72-15-15,0-1.8,1.46-3.26,3.26-3.26h23.47c1.8,0,3.26,1.46,3.26,3.26h0c0,8.28-6.71,14.99-14.99,15Zm-11.73-15.75c-.42,0-.76,.34-.76,.76h0c0,6.9,5.6,12.5,12.5,12.5s12.5-5.6,12.5-12.5c0-.42-.34-.76-.76-.76H26.83Z"/>
        <path class="cls-46" d="M71.71,86.35c-8.28,0-15-6.72-15-15,0-1.8,1.47-3.26,3.27-3.25,0,0,.01,0,.02,0h23.44c1.8,0,3.26,1.46,3.26,3.26h0c0,8.28-6.71,14.98-14.99,14.99Zm-11.71-15.75c-.42,0-.76,.34-.76,.76h0c0,6.9,5.6,12.5,12.5,12.5s12.5-5.6,12.5-12.5c0-.42-.34-.76-.76-.76h-23.48Z"/>
        <rect class="cls-46" x="51.62" y="74.39" width="7.19" height="2.5"/>
        <path class="cls-38" d="M17.52,55.76v17.35h-3.83c-4.83,0-8.74-3.91-8.74-8.74v-17.36h3.82c4.83,0,8.74,3.9,8.75,8.73,0,0,0,.01,0,.02Z"/>
        <path class="cls-38" d="M43.56,40.47l-9.34,11.91h0l-5.74-4.51c-4.4-3.45-5.17-9.82-1.72-14.23l9.34-11.91h0l5.74,4.51c4.4,3.45,5.17,9.82,1.72,14.23Z"/>
        <path class="cls-38" d="M34.55,38.64l-1.87,14.95h0l-7.21-.9c-5.53-.69-9.45-5.73-8.76-11.26l1.87-14.95h0l7.21,.9c5.53,.69,9.45,5.73,8.76,11.26Z"/>
        <rect class="cls-46" x="8.34" y="68.1" width="32.98" height="2.5"/>
        <path class="cls-6" d="M39.11,61.06H17.51v-3h21.6c1.84,.02,3.67-.23,5.43-.75,2.31-.68,4.39-1.98,6-3.77l.44-.46h14.5v3h-13.24c-1.88,1.93-4.23,3.34-6.82,4.1-2.05,.61-4.17,.9-6.31,.88Z"/>
        <rect class="cls-19" x="38.19" y="89.18" width="35.39" height="13.37" rx="6.68" ry="6.68"/>
        <path class="cls-35" d="M62.46,97.79h-14.46c-.28,0-.5-.22-.5-.5s.22-.5,.5-.5h14.5c.28,0,.5,.22,.5,.5s-.22,.5-.5,.5h-.04Z"/>
        <path class="cls-36" d="M32,101.4c-.28,0-.5-.22-.5-.5v-7.73c-4.65-3-5.43-6.67-5.46-6.83-.05-.27,.12-.52,.38-.58,0,0,0,0,0,0,.27-.06,.53,.12,.59,.39,0,0,0,0,0,0,0,0,.77,3.51,5.25,6.32,.15,.09,.24,.26,.23,.43v8c0,.28-.22,.5-.5,.5h0Z"/>
        <path class="cls-36" d="M78.5,101.4c-.28,0-.5-.22-.5-.5v-8c0-.18,.09-.34,.24-.43,4.48-2.81,5.24-6.29,5.25-6.32,.05-.28,.32-.46,.6-.4s.46,.32,.4,.6c0,.16-.81,3.8-5.47,6.83v7.73c0,.28-.22,.5-.5,.5,0,0-.01,0-.02,0Z"/>
        <path class="cls-19" d="M69.72,115c-.26,2.86-1.71,5.47-4,7.2-3.11,2.43-6.95,3.72-10.9,3.67-3.1,.02-6.15-.81-8.82-2.4-3.39-2-5.71-5.11-6.14-8.34h6.1v-.94l19.67,.34v.47h4.09Z"/>
        <rect class="cls-20" x="29.12" y="122.37" width="3.57" height="9.36" rx="1.72" ry="1.72"/>
        <path class="cls-36" d="M55,122.62c-.78,0-1.27-.22-1.47-.67-.3-.69,.26-1.77,1-2.78-.42-.2-.87-.3-1.33-.31-.13,0-.24-.1-.25-.23,0,0,0,0,0-.01-.01-.13,.09-.25,.22-.26,0,0,.01,0,.02,0,.57,.01,1.13,.15,1.64,.41,.54-.7,1.12-1.37,1.74-2,.1-.1,.25-.1,.35,0,0,0,0,0,0,0,.1,.1,.1,.25,0,.35-.59,.59-1.14,1.22-1.65,1.88,1.06,.62,1.94,1.57,2,2.34,0,.44-.23,1.19-2,1.27h-.28Zm0-3.21c-.69,1-1.17,1.88-1,2.35s.73,.39,1.18,.37,1.57-.16,1.55-.76-.8-1.36-1.73-1.96Z"/>
        <path class="cls-36" d="M50,121.81c-.56,0-.92-.17-1.06-.49-.22-.5,.18-1.28,.7-2-.31-.15-.65-.22-1-.22-.11,0-.19-.08-.19-.18,0-.1,.08-.18,.18-.19,.41,.01,.81,.12,1.18,.3,.55-.7,1.14-1.3,1.26-1.43,.07-.07,.19-.07,.26,0,.07,.07,.07,.19,0,.26-.42,.42-.82,.87-1.19,1.34,.76,.45,1.41,1.14,1.42,1.69,0,.32-.16,.87-1.46,.92h-.1Zm0-2.33c-.5,.69-.84,1.35-.69,1.7s.53,.28,.85,.26,1.14-.11,1.12-.54-.67-1.03-1.36-1.42h.08Z"/>
        <path class="cls-36" d="M59.45,121.81c-.57,0-.93-.17-1.07-.49-.22-.5,.19-1.28,.7-2-.31-.15-.65-.22-1-.22-.11,0-.18-.08-.18-.18,0-.1,.07-.18,.17-.19,0,0,0,0,0,0,.41,.02,.82,.12,1.19,.3,.39-.5,.81-.98,1.26-1.43,.07-.07,.19-.07,.26,0,.07,.07,.07,.18,0,.25,0,0,0,0,0,0-.42,.42-.82,.87-1.19,1.34,.77,.45,1.41,1.14,1.43,1.69,0,.32-.17,.87-1.47,.92h-.1Zm0-2.33c-.5,.69-.85,1.35-.7,1.7s.53,.28,.86,.26,1.13-.11,1.12-.54-.63-1.03-1.32-1.42h.04Z"/>
        <path class="cls-36" d="M92.14,150.12c-.32,0-.84-.2-.89-1.46,0-.67,.16-1.07,.48-1.2,.5-.22,1.28,.18,2,.7,.15-.31,.23-.65,.23-1-.01-.09,.06-.18,.15-.19,0,0,.01,0,.02,0,.09,0,.18,.08,.19,.18,0,.41-.11,.81-.3,1.18,.5,.39,.98,.81,1.43,1.26,.07,.07,.07,.19,0,.26-.07,.07-.19,.07-.26,0-.42-.43-.87-.82-1.34-1.19-.45,.76-1.14,1.4-1.69,1.42l-.02,.04Zm-.08-2.37c-.06-.02-.12-.02-.18,0-.25,.1-.29,.52-.27,.85s.12,1.15,.55,1.12,1-.59,1.41-1.28c-.43-.36-.96-.6-1.51-.69Z"/>
        <path class="cls-36" d="M91.91,144.91c-.22,0-.57-.14-.61-1,0-.43,.1-.7,.33-.8s.86,.12,1.35,.47c.1-.2,.15-.42,.15-.65,0-.07,.05-.12,.12-.12,.07,0,.12,.05,.12,.12,0,.28-.07,.55-.2,.79,.35,.26,.68,.55,1,.85,.05,.05,.05,.12,0,.17,0,0,0,0,0,0-.04,.05-.11,.05-.15,.02,0,0-.01,0-.02-.02-.28-.29-.58-.55-.9-.8-.3,.51-.76,1-1.14,1l-.05-.03Zm-.06-1.59s-.08-.01-.12,0c-.17,.07-.19,.35-.18,.57s.07,.76,.36,.76h0c.28,0,.68-.4,1-.86-.3-.25-.67-.42-1.06-.47Z"/>
        <path class="cls-36" d="M92.14,141c-.32,0-.84-.2-.89-1.47,0-.67,.16-1.07,.48-1.2,.5-.22,1.28,.18,2,.7,.15-.31,.23-.65,.23-1,0-.1,.07-.18,.17-.19,0,0,0,0,0,0,.1,0,.18,.08,.19,.18,0,.41-.11,.81-.3,1.18,.5,.39,.98,.82,1.43,1.27,.07,.07,.07,.18,0,.25-.07,.07-.19,.07-.26,0-.42-.43-.87-.82-1.34-1.19-.45,.76-1.14,1.41-1.69,1.43l-.02,.04Zm-.08-2.38c-.06-.01-.12-.01-.18,0-.25,.11-.29,.52-.27,.85s.12,1.14,.55,1.12,1-.59,1.41-1.27c-.44-.35-.96-.58-1.51-.67v-.03Z"/>
        <path class="cls-36" d="M18.55,150.12h0c-.56,0-1.24-.66-1.69-1.42-.47,.37-.92,.76-1.34,1.19-.07,.07-.19,.07-.26,0s-.07-.19,0-.26h0c.45-.45,.93-.87,1.43-1.26-.19-.37-.29-.77-.3-1.18,0-.1,.08-.18,.18-.18s.18,.08,.18,.18h0c0,.35,.08,.69,.23,1,.72-.52,1.51-.92,2-.7,.35,.15,.51,.55,.48,1.2-.07,1.23-.59,1.43-.91,1.43Zm-1.43-1.64c.39,.69,1,1.27,1.41,1.28h0c.42,0,.51-.7,.53-1.12s0-.75-.27-.85-.99,.21-1.67,.69Z"/>
        <path class="cls-36" d="M18.78,144.91h0c-.37,0-.83-.45-1.13-1-.32,.25-.62,.51-.9,.8-.05,.05-.13,.05-.18,0-.04-.05-.04-.12,0-.17,.32-.3,.65-.59,1-.85-.12-.25-.19-.52-.2-.79,0-.07,.06-.12,.13-.12,.07,0,.12,.05,.12,.12,0,.23,.05,.45,.15,.65,.49-.35,1-.62,1.35-.47s.34,.37,.32,.8c-.09,.89-.44,1.03-.66,1.03Zm-1-1.1c.26,.46,.67,.85,.95,.86h0c.29,0,.35-.47,.36-.76s0-.5-.18-.57-.63,.13-1.09,.47h-.04Z"/>
        <path class="cls-36" d="M18.55,141h0c-.56,0-1.24-.67-1.69-1.43-.47,.37-.92,.76-1.34,1.19-.07,.07-.19,.07-.26,0-.07-.07-.07-.18,0-.25,.45-.45,.93-.88,1.43-1.27-.19-.37-.29-.77-.3-1.18,0-.1,.08-.18,.18-.18s.18,.08,.18,.18h0c0,.35,.08,.69,.23,1,.72-.52,1.51-.92,2-.7,.35,.15,.51,.55,.48,1.2-.07,1.27-.59,1.44-.91,1.44Zm-1.43-1.64c.39,.68,1,1.26,1.41,1.27h0c.42,0,.51-.7,.53-1.12s0-.74-.27-.85-.99,.23-1.67,.73v-.03Z"/>
        <polygon class="cls-30" points="77.34 136.84 76.54 136.84 76.54 136.24 76.74 136.24 76.74 136.04 77.34 136.04 77.34 136.84"/>
        <path class="cls-30" d="M75.6,136.84h-.93v-.6h.93v.6Zm-1.87,0h-.93v-.6h.93v.6Zm-1.87,0h-.93v-.6h.93v.6Z"/>
        <polygon class="cls-30" points="69.99 136.84 69.19 136.84 69.19 136.04 69.79 136.04 69.79 136.24 69.99 136.24 69.99 136.84"/>
        <path class="cls-30" d="M69.79,135h-.6v-1h.6v1Zm0-2.07h-.6v-1h.6v1Zm0-2.06h-.6v-1h.6v1Zm0-2.07h-.6v-1h.6v1Z"/>
        <polygon class="cls-30" points="69.79 126.74 69.19 126.74 69.19 125.94 69.99 125.94 69.99 126.55 69.79 126.55 69.79 126.74"/>
        <path class="cls-30" d="M75.6,126.55h-.93v-.61h.93v.61Zm-1.87,0h-.93v-.61h.93v.61Zm-1.87,0h-.93v-.61h.93v.61Z"/>
        <polygon class="cls-30" points="77.34 126.74 76.74 126.74 76.74 126.55 76.54 126.55 76.54 125.94 77.34 125.94 77.34 126.74"/>
        <path class="cls-30" d="M77.34,135h-.6v-1h.6v1Zm0-2.07h-.6v-1h.6v1Zm0-2.06h-.6v-1h.6v1Zm0-2.07h-.6v-1h.6v1Z"/>
        <rect class="cls-30" x="68.09" y="129.28" width=".5" height=".61"/>
        <path class="cls-30" d="M77.67,129.89h-.91v-.61h.91v.61Zm-1.82,0h-.91v-.61h.91v.61Zm-1.81,0h-.91v-.61h.87l.04,.61Zm-1.82,0h-.91v-.61h.91v.61Zm-1.82,0h-.91v-.61h.91v.61Z"/>
        <rect class="cls-30" x="78.58" y="129.28" width=".5" height=".61"/>
        <circle class="cls-19" cx="58.25" cy="125.56" r="1.25"/>
        <circle class="cls-19" cx="61.75" cy="126.41" r=".55"/>
        <circle class="cls-19" cx="60.18" cy="128.53" r=".69"/>
        <circle class="cls-19" cx="54.19" cy="125.81" r="1"/>
        <circle class="cls-19" cx="61.97" cy="124.39" r=".78"/>
        <circle class="cls-31" cx="79.01" cy="143.14" r="1.18"/>
        <path class="cls-2" d="M35,168c-.14,0-.25-.11-.25-.25v-1c0-.14,.11-.25,.25-.25s.25,.11,.25,.25v1c0,.14-.11,.25-.25,.25Zm0-3c-.14,0-.25-.11-.25-.25v-1c0-.14,.11-.25,.25-.25s.25,.11,.25,.25v1c0,.14-.11,.25-.25,.25Zm0-3c-.14,0-.25-.11-.25-.25v-1c0-.14,.11-.25,.25-.25s.25,.11,.25,.25v1c0,.14-.11,.25-.25,.25Zm0-3c-.14,0-.25-.11-.25-.25v-1c0-.14,.11-.25,.25-.25s.25,.11,.25,.25v1c0,.14-.11,.25-.25,.25Zm0-3c-.14,0-.25-.11-.25-.25v-1c0-.14,.11-.25,.25-.25s.25,.11,.25,.25v1c0,.14-.11,.25-.25,.25Zm0-3c-.14,0-.25-.11-.25-.25v-1c0-.14,.11-.25,.25-.25s.25,.11,.25,.25v1c0,.14-.11,.25-.25,.25Zm0-3c-.14,0-.25-.11-.25-.25v-1c0-.14,.11-.25,.25-.25s.25,.11,.25,.25v1c0,.14-.11,.25-.25,.25Z"/>
        <path class="cls-2" d="M48.77,168c-.14,0-.25-.11-.25-.25v-1c0-.14,.11-.25,.25-.25s.25,.11,.25,.25v1c0,.14-.11,.25-.25,.25Zm0-3c-.14,0-.25-.11-.25-.25v-1c0-.14,.11-.25,.25-.25s.25,.11,.25,.25v1c0,.14-.11,.25-.25,.25Zm0-3c-.14,0-.25-.11-.25-.25v-1c0-.14,.11-.25,.25-.25s.25,.11,.25,.25v1c0,.14-.11,.25-.25,.25Zm0-3c-.14,0-.25-.11-.25-.25v-1c0-.14,.11-.25,.25-.25s.25,.11,.25,.25v1c0,.14-.11,.25-.25,.25Zm0-3c-.14,0-.25-.11-.25-.25v-1c0-.14,.11-.25,.25-.25s.25,.11,.25,.25v1c0,.14-.11,.25-.25,.25Zm0-3c-.14,0-.25-.11-.25-.25v-1c0-.14,.11-.25,.25-.25s.25,.11,.25,.25v1c0,.14-.11,.25-.25,.25Zm0-3c-.14,0-.25-.11-.25-.25v-1c0-.14,.11-.25,.25-.25s.25,.11,.25,.25v1c0,.14-.11,.25-.25,.25Z"/>
        <path class="cls-2" d="M62.83,168c-.14,0-.25-.11-.25-.25v-1c0-.14,.11-.25,.25-.25s.25,.11,.25,.25v1c0,.14-.11,.25-.25,.25Zm0-3c-.14,0-.25-.11-.25-.25v-1c0-.14,.11-.25,.25-.25s.25,.11,.25,.25v1c0,.14-.11,.25-.25,.25Zm0-3c-.14,0-.25-.11-.25-.25v-1c0-.14,.11-.25,.25-.25s.25,.11,.25,.25v1c0,.14-.11,.25-.25,.25Zm0-3c-.14,0-.25-.11-.25-.25v-1c0-.14,.11-.25,.25-.25s.25,.11,.25,.25v1c0,.14-.11,.25-.25,.25Zm0-3c-.14,0-.25-.11-.25-.25v-1c0-.14,.11-.25,.25-.25s.25,.11,.25,.25v1c0,.14-.11,.25-.25,.25Zm0-3c-.14,0-.25-.11-.25-.25v-1c0-.14,.11-.25,.25-.25s.25,.11,.25,.25v1c0,.14-.11,.25-.25,.25Zm0-3c-.14,0-.25-.11-.25-.25v-1c0-.14,.11-.25,.25-.25s.25,.11,.25,.25v1c0,.14-.11,.25-.25,.25Z"/>
        <path class="cls-2" d="M76.62,168c-.14,0-.25-.11-.25-.25v-1c0-.14,.11-.25,.25-.25s.25,.11,.25,.25v1c0,.14-.11,.25-.25,.25Zm0-3c-.14,0-.25-.11-.25-.25v-1c0-.14,.11-.25,.25-.25s.25,.11,.25,.25v1c0,.14-.11,.25-.25,.25Zm0-3c-.14,0-.25-.11-.25-.25v-1c0-.14,.11-.25,.25-.25s.25,.11,.25,.25v1c0,.14-.11,.25-.25,.25Zm0-3c-.14,0-.25-.11-.25-.25v-1c0-.14,.11-.25,.25-.25s.25,.11,.25,.25v1c0,.14-.11,.25-.25,.25Zm0-3c-.14,0-.25-.11-.25-.25v-1c0-.14,.11-.25,.25-.25s.25,.11,.25,.25v1c0,.14-.11,.25-.25,.25Zm0-3c-.14,0-.25-.11-.25-.25v-1c0-.14,.11-.25,.25-.25s.25,.11,.25,.25v1c0,.14-.11,.25-.25,.25Zm0-3c-.14,0-.25-.11-.25-.25v-1c0-.14,.11-.25,.25-.25s.25,.11,.25,.25v1c0,.14-.11,.25-.25,.25Z"/>
        <path class="cls-30" d="M63.84,145.88h-1c-.14,0-.25-.11-.25-.25s.11-.25,.25-.25h1c.14,0,.25,.11,.25,.25s-.11,.25-.25,.25Zm-3,0h-1c-.14,0-.25-.11-.25-.25s.11-.25,.25-.25h1c.14,0,.25,.11,.25,.25s-.11,.25-.25,.25Zm-3,0h-1c-.14,0-.25-.11-.25-.25s.11-.25,.25-.25h1c.14,0,.25,.11,.25,.25s-.11,.25-.25,.25Zm-3,0h-1c-.14,0-.25-.11-.25-.25s.11-.25,.25-.25h1c.14,0,.25,.11,.25,.25s-.11,.25-.25,.25Zm-3,0h-1c-.14,0-.25-.11-.25-.25s.11-.25,.25-.25h1c.14,0,.25,.11,.25,.25s-.11,.25-.25,.25Zm-3,0h-1c-.14,0-.25-.11-.25-.25s.11-.25,.25-.25h1c.14,0,.25,.11,.25,.25s-.11,.25-.25,.25Zm-3,0h-1c-.14,0-.25-.11-.25-.25s.11-.25,.25-.25h1c.14,0,.25,.11,.25,.25s-.11,.25-.25,.25Z"/>
        <path class="cls-46" d="M62.59,165.68h14.29c2.29,0,4.14,1.85,4.14,4.14h0c0,2.29-1.85,4.14-4.14,4.14h-14.29c-2.29,0-4.14-1.85-4.14-4.14h0c0-2.29,1.85-4.14,4.14-4.14Z"/>
        <path class="cls-46" d="M34.77,165.68h14.29c2.29,0,4.14,1.85,4.14,4.14h0c0,2.29-1.85,4.14-4.14,4.14h-14.29c-2.29,0-4.14-1.85-4.14-4.14h0c0-2.29,1.85-4.14,4.14-4.14Z"/>
        <path class="cls-37" d="M53.49,36.6h40.14v2c0,8.01-6.49,14.5-14.5,14.5H39v-2c0-8,6.49-14.49,14.49-14.5Z"/>
        <path class="cls-38" d="M106.18,50.12v15.07h-7.27c-5.56,0-10.08-4.51-10.09-10.07v-15.09h7.29c5.56,.01,10.07,4.53,10.07,10.09Z"/>
        <path class="cls-37" d="M31.31,29.78h24.58v11.85c0,9.09-7.37,16.46-16.46,16.46H14.85v-11.85c0-9.09,7.37-16.46,16.46-16.46h0Z"/>
        <path class="cls-39" d="M20.15,44c-.13,.02-.27,.02-.4,0-.8-.22-1.27-1.04-1.05-1.84,1.02-3.36,3.2-6.26,6.16-8.16,.73-.39,1.64-.11,2.03,.62,.36,.68,.15,1.52-.49,1.95-2.28,1.5-3.97,3.74-4.81,6.34-.18,.65-.77,1.1-1.44,1.09Z"/>
        <circle class="cls-39" cx="30.98" cy="33.74" r="1.75"/>
        <path class="cls-39" d="M46.73,41.53h-9.48c-.83,0-1.5-.67-1.5-1.5s.67-1.5,1.5-1.5h9.48c.83,0,1.5,.67,1.5,1.5s-.67,1.5-1.5,1.5Z"/>
        <path class="cls-39" d="M56.89,47.46h-6.89c-.83,0-1.5-.67-1.5-1.5s.67-1.5,1.5-1.5h6.93c.83,0,1.5,.67,1.5,1.5s-.67,1.5-1.5,1.5h-.04Z"/>
        <path class="cls-39" d="M72.41,44h-6.93c-.83,0-1.5-.67-1.5-1.5s.67-1.5,1.5-1.5h6.93c.83,0,1.5,.67,1.5,1.5s-.67,1.5-1.5,1.5Z"/>
        <circle class="cls-35" cx="55.89" cy="89.18" r="4.4"/>
        <circle class="cls-11" cx="152.19" cy="64.87" r="8.49"/>
        <circle class="cls-48" cx="231.4" cy="35.14" r="8.85"/>
        <circle class="cls-48" cx="159.61" cy="35.14" r="8.85"/>
        <circle class="cls-48" cx="195.19" cy="14.01" r="8.85"/>
        <circle class="cls-25" cx="210.38" cy="18.73" r="4.33"/>
        <circle class="cls-25" cx="213.34" cy="33.96" r="10.58"/>
        <circle class="cls-25" cx="185.52" cy="48.95" r="5.07"/>
        <circle class="cls-25" cx="201.35" cy="15.69" r="8.47"/>
        <circle class="cls-25" cx="209.02" cy="29.19" r="13.74"/>
        <circle class="cls-25" cx="189.78" cy="50.79" r="23.15"/>
        <circle class="cls-25" cx="185.54" cy="43.02" r="10.54"/>
        <circle class="cls-25" cx="182.56" cy="28.79" r="7.91"/>
        <circle class="cls-25" cx="182.97" cy="20.65" r="14.49"/>
        <circle class="cls-25" cx="174.66" cy="29.42" r="16.19"/>
        <circle class="cls-25" cx="186.19" cy="49.43" r="6.21"/>
        <circle class="cls-25" cx="215.21" cy="49.3" r="7.34"/>
        <circle class="cls-25" cx="209.24" cy="10.71" r="7.91"/>
        <circle class="cls-25" cx="216.26" cy="8.85" r="8.85"/>
        <circle class="cls-25" cx="227.9" cy="37.29" r="8.47"/>
        <circle class="cls-25" cx="219.59" cy="27.01" r="17.88"/>
        <circle class="cls-29" cx="152.19" cy="64.87" r="4.6"/>
        <circle class="cls-11" cx="241.23" cy="64.87" r="8.49"/>
        <circle class="cls-29" cx="241.23" cy="64.87" r="4.6"/>
        <rect class="cls-19" x="152.22" y="30.18" width="88.84" height="63.83" rx="15.96" ry="15.96" transform="translate(-.29 .93) rotate(-.27)"/>
        <path class="cls-36" d="M200,44.37h-6.73c-.25,0-.46-.21-.46-.46,0-.25,.21-.46,.46-.46h6.73c.25,0,.46,.21,.46,.46,0,.25-.21,.46-.46,.46Z"/>
        <path class="cls-36" d="M200.85,47.12h-8.41c-.25,.04-.49-.14-.52-.39s.14-.49,.39-.52c.04,0,.09,0,.14,0h8.41c.25-.04,.49,.14,.52,.39s-.14,.49-.39,.52c-.04,0-.09,0-.14,0Z"/>
        <path class="cls-36" d="M202.54,49.88h-11.79c-.25,0-.45-.21-.45-.46,0-.25,.19-.45,.44-.46,0,0,0,0,.01,0h11.79c.25,0,.45,.2,.45,.45,0,0,0,0,0,.01,0,.25-.2,.45-.45,.46Z"/>
        <path class="cls-19" d="M206.52,107.68c0,1.87-.69,3.39-1.57,3.39l-16.49,.08c-.88,0-1.6-1.51-1.6-3.38v-15.48c.07-1.72,.72-3.07,1.54-3.11h0l16.48-.08h.06c.85,.06,1.54,1.54,1.55,3.37v12.03l.03,3.18Z"/>
        <rect class="cls-7" x="186.78" y="89.13" width="19.67" height="6.65" transform="translate(-.43 .93) rotate(-.27)"/>
        <path class="cls-19" d="M169.66,100.92h0c.44,0,.79,.35,.79,.79v49.39c0,.44-.35,.79-.79,.79h-1.91c-4.69,0-8.5-3.81-8.5-8.5v-32c0-5.75,4.66-10.41,10.41-10.41h0v-.06Z"/>
        <path class="cls-47" d="M165.63,102.6l.07,27.46h-6.45v-18.72c0-4.23,2.55-8.03,6.46-9.64-.05,.3-.08,.6-.08,.9Z"/>
        <path class="cls-19" d="M225.51,151.89h-1.91c-.44,0-.79-.35-.79-.79v-49.39c0-.44,.35-.79,.79-.79h0c5.75,0,10.41,4.66,10.41,10.41h0v32c0,4.69-3.81,8.5-8.5,8.5v.06Z"/>
        <path class="cls-47" d="M227.66,102.6l-.07,27.46h6.41v-18.72c0-4.23-2.55-8.03-6.46-9.64,.07,.3,.11,.6,.12,.9Z"/>
        <path class="cls-19" d="M211.56,97.31c-.27,2.87-1.74,5.48-4.05,7.2-3.11,2.43-6.95,3.72-10.9,3.67-3.08,.01-6.11-.81-8.76-2.39-3.39-2-5.71-5.11-6.14-8.34h6.1v-.94l19.67,.34v.51l4.08-.05Z"/>
        <path class="cls-36" d="M196.57,104.94c-.78,0-1.27-.23-1.47-.68-.3-.68,.26-1.77,1-2.77-.41-.21-.87-.32-1.33-.32-.12,.02-.23-.07-.25-.19,0-.02,0-.04,0-.05,0-.14,.1-.25,.24-.26,0,0,0,0,0,0,.57,0,1.13,.15,1.64,.41,.54-.7,1.12-1.37,1.75-2,.08-.11,.24-.13,.35-.05,.11,.08,.13,.24,.05,.35-.01,.02-.03,.04-.05,.05-.59,.59-1.14,1.21-1.65,1.86,1.06,.62,2,1.57,2,2.34,0,.44-.23,1.2-2,1.27l-.28,.04Zm0-3.22c-.69,1-1.16,1.87-1,2.34s.73,.4,1.18,.37,1.57-.15,1.55-.75-.82-1.42-1.78-1.96h.05Z"/>
        <path class="cls-36" d="M196.59,104.12c-.56,0-.92-.16-1.06-.49-.22-.49,.18-1.28,.7-2-.31-.14-.66-.22-1-.22-.1,0-.18-.08-.19-.18,0-.1,.08-.18,.18-.18,.41,0,.81,.1,1.18,.29,.39-.5,.82-.97,1.27-1.42,.08-.06,.19-.03,.25,.05,.04,.06,.04,.14,0,.2-.43,.42-.82,.87-1.19,1.35,.76,.44,1.41,1.13,1.43,1.69,0,.32-.17,.86-1.47,.92h-.1Zm0-2.34c-.5,.69-.85,1.36-.7,1.7s.53,.28,.85,.27,1.14-.12,1.12-.55-.62-1.03-1.3-1.42h.03Z"/>
        <path class="cls-36" d="M196.59,104.12c-.56,0-.92-.16-1.06-.49-.22-.49,.18-1.28,.7-2-.31-.14-.66-.22-1-.22-.1,0-.18-.08-.19-.18,0-.1,.08-.18,.18-.18,.41,0,.81,.1,1.18,.29,.39-.5,.82-.97,1.27-1.42,.08-.06,.19-.03,.25,.05,.04,.06,.04,.14,0,.2-.43,.42-.82,.87-1.19,1.35,.76,.44,1.41,1.13,1.43,1.69,0,.32-.17,.86-1.47,.92h-.1Zm0-2.34c-.5,.69-.85,1.36-.7,1.7s.53,.28,.85,.27,1.14-.12,1.12-.55-.62-1.03-1.3-1.42h.03Z"/>
        <polygon class="cls-3" points="191.77 167.43 173.68 167.51 173.53 114.04 191.62 113.95 191.77 167.43"/>
        <polygon class="cls-3" points="219.59 167.29 201.5 167.38 201.34 113.91 219.43 113.83 219.59 167.29"/>
        <polygon class="cls-1" points="191.69 145.24 173.6 145.32 173.53 114.04 191.62 113.95 191.69 145.24"/>
        <polygon class="cls-1" points="219.5 145.11 201.41 145.19 201.34 113.91 219.43 113.83 219.5 145.11"/>
        <path class="cls-40" d="M228,137.13c.01,2.8-2.25,5.08-5.05,5.1l-52.53,.24c-2.79,.02-5.08-2.23-5.1-5.02,0-.01,0-.02,0-.03l-.11-34.82c-.01-2.78,2.22-5.06,5-5.1h16.5l19.66-.09h4.09l12.28-.06c2.81-.01,5.09,2.25,5.1,5.06h0s.16,34.72,.16,34.72Z"/>
        <path class="cls-2" d="M175.8,166.27c-.14,0-.25-.11-.25-.25v-1c0-.14,.11-.25,.25-.25s.25,.11,.25,.25v1c0,.14-.11,.25-.25,.25Zm0-3c-.14,0-.25-.11-.25-.25v-1c0-.14,.11-.25,.25-.25s.25,.11,.25,.25v1c0,.14-.11,.25-.25,.25Zm0-3c-.14,0-.25-.11-.25-.25v-1c0-.14,.11-.25,.25-.25s.25,.11,.25,.25v1c0,.14-.11,.25-.25,.25Zm0-3c-.14,0-.25-.11-.25-.25v-1c0-.14,.11-.25,.25-.25s.25,.11,.25,.25v1c0,.14-.11,.25-.25,.25Zm0-3c-.14,0-.25-.11-.25-.25v-1c0-.14,.11-.25,.25-.25s.25,.11,.25,.25v1c0,.14-.11,.25-.25,.25Zm0-3c-.14,0-.25-.11-.25-.25v-1c0-.14,.11-.25,.25-.25s.25,.11,.25,.25v1c0,.14-.11,.25-.25,.25Zm0-3c-.14,0-.25-.11-.25-.25v-1c0-.14,.11-.25,.25-.25s.25,.11,.25,.25v1c0,.14-.11,.25-.25,.25Zm0-3c-.14,0-.25-.11-.25-.25v-1c0-.14,.11-.25,.25-.25s.25,.11,.25,.25v1c0,.14-.11,.25-.25,.25Zm0-3c-.14,0-.25-.11-.25-.25v-.52c0-.14,.11-.25,.25-.25s.25,.11,.25,.25v.5c.01,.14-.09,.26-.23,.27,0,0-.01,0-.02,0Z"/>
        <path class="cls-2" d="M189.6,166.27c-.14,0-.25-.11-.25-.25v-1c0-.14,.11-.25,.25-.25s.25,.11,.25,.25v1c0,.14-.11,.25-.25,.25Zm0-3c-.14,0-.25-.11-.25-.25v-1c0-.14,.11-.25,.25-.25s.25,.11,.25,.25v1c0,.14-.11,.25-.25,.25Zm0-3c-.14,0-.25-.11-.25-.25v-1c0-.14,.11-.25,.25-.25s.25,.11,.25,.25v1c0,.14-.11,.25-.25,.25Zm0-3c-.14,0-.25-.11-.25-.25v-1c0-.14,.11-.25,.25-.25s.25,.11,.25,.25v1c0,.14-.11,.25-.25,.25Zm0-3c-.14,0-.25-.11-.25-.25v-1c0-.14,.11-.25,.25-.25s.25,.11,.25,.25v1c0,.14-.11,.25-.25,.25Zm0-3c-.14,0-.25-.11-.25-.25v-1c0-.14,.11-.25,.25-.25s.25,.11,.25,.25v1c0,.14-.11,.25-.25,.25Zm0-3c-.14,0-.25-.11-.25-.25v-1c0-.14,.11-.25,.25-.25s.25,.11,.25,.25v1c0,.14-.11,.25-.25,.25Zm0-3c-.14,0-.25-.11-.25-.25v-1c0-.14,.11-.25,.25-.25s.25,.11,.25,.25v1c0,.14-.11,.25-.25,.25Zm0-3c-.14,0-.25-.11-.25-.25v-.52c0-.14,.11-.25,.25-.25s.25,.11,.25,.25v.5c.01,.14-.09,.26-.23,.27,0,0-.01,0-.02,0Z"/>
        <path class="cls-2" d="M203.66,166.27c-.14,0-.25-.11-.25-.25v-1c0-.14,.11-.25,.25-.25s.25,.11,.25,.25v1c0,.14-.11,.25-.25,.25Zm0-3c-.14,0-.25-.11-.25-.25v-1c0-.14,.11-.25,.25-.25s.25,.11,.25,.25v1c0,.14-.11,.25-.25,.25Zm0-3c-.14,0-.25-.11-.25-.25v-1c0-.14,.11-.25,.25-.25s.25,.11,.25,.25v1c0,.14-.11,.25-.25,.25Zm0-3c-.14,0-.25-.11-.25-.25v-1c0-.14,.11-.25,.25-.25s.25,.11,.25,.25v1c0,.14-.11,.25-.25,.25Zm0-3c-.14,0-.25-.11-.25-.25v-1c0-.14,.11-.25,.25-.25s.25,.11,.25,.25v1c0,.14-.11,.25-.25,.25Zm0-3c-.14,0-.25-.11-.25-.25v-1c0-.14,.11-.25,.25-.25s.25,.11,.25,.25v1c0,.14-.11,.25-.25,.25Zm0-3c-.14,0-.25-.11-.25-.25v-1c0-.14,.11-.25,.25-.25s.25,.11,.25,.25v1c0,.14-.11,.25-.25,.25Zm0-3c-.14,0-.25-.11-.25-.25v-1c0-.14,.11-.25,.25-.25s.25,.11,.25,.25v1c0,.14-.11,.25-.25,.25Zm0-3c-.14,0-.25-.11-.25-.25v-.52c0-.14,.11-.25,.25-.25s.25,.11,.25,.25v.5c.01,.14-.09,.26-.23,.27,0,0-.01,0-.02,0Z"/>
        <path class="cls-2" d="M217.45,166.27c-.14,0-.25-.11-.25-.25v-1c0-.14,.11-.25,.25-.25s.25,.11,.25,.25v1c0,.14-.11,.25-.25,.25Zm0-3c-.14,0-.25-.11-.25-.25v-1c0-.14,.11-.25,.25-.25s.25,.11,.25,.25v1c0,.14-.11,.25-.25,.25Zm0-3c-.14,0-.25-.11-.25-.25v-1c0-.14,.11-.25,.25-.25s.25,.11,.25,.25v1c0,.14-.11,.25-.25,.25Zm0-3c-.14,0-.25-.11-.25-.25v-1c0-.14,.11-.25,.25-.25s.25,.11,.25,.25v1c0,.14-.11,.25-.25,.25Zm0-3c-.14,0-.25-.11-.25-.25v-1c0-.14,.11-.25,.25-.25s.25,.11,.25,.25v1c0,.14-.11,.25-.25,.25Zm0-3c-.14,0-.25-.11-.25-.25v-1c0-.14,.11-.25,.25-.25s.25,.11,.25,.25v1c0,.14-.11,.25-.25,.25Zm0-3c-.14,0-.25-.11-.25-.25v-1c0-.14,.11-.25,.25-.25s.25,.11,.25,.25v1c0,.14-.11,.25-.25,.25Zm0-3c-.14,0-.25-.11-.25-.25v-1c0-.14,.11-.25,.25-.25s.25,.11,.25,.25v1c0,.14-.11,.25-.25,.25Zm0-3c-.14,0-.25-.11-.25-.25v-.52c0-.14,.11-.25,.25-.25s.25,.11,.25,.25v.5c.01,.14-.09,.26-.23,.27,0,0-.01,0-.02,0Z"/>
        <path class="cls-23" d="M168.22,133.73h56.84c2.5,0,4.52,2.02,4.52,4.52h0c0,2.5-2.02,4.52-4.52,4.52h-56.84c-2.5,0-4.52-2.02-4.52-4.52h0c0-2.5,2.02-4.52,4.52-4.52Z"/>
        <path class="cls-23" d="M215.23,119h8.14v6c0,2.25-1.82,4.07-4.07,4.07h0c-2.25,0-4.07-1.82-4.07-4.07h0v-6h0Z"/>
        <path class="cls-15" d="M216,118.11h6.61c.79,0,1.43,.64,1.43,1.43h0c0,.79-.64,1.43-1.43,1.43h-6.61c-.79,0-1.43-.64-1.43-1.43h0c0-.79,.64-1.43,1.43-1.43Z"/>
        <circle class="cls-15" cx="180.34" cy="60.62" r="7.34"/>
        <circle class="cls-15" cx="213.38" cy="60.62" r="7.34"/>
        <circle class="cls-46" cx="213.59" cy="60.54" r="3.72"/>
        <circle class="cls-46" cx="180.44" cy="60.54" r="3.72"/>
        <path class="cls-19" d="M172.91,55.67c.15-4.11,3.6-7.31,7.71-7.16,3.89,.14,7.02,3.27,7.16,7.16h-14.87Z"/>
        <path class="cls-19" d="M207,55.67c.15-4.11,3.6-7.31,7.71-7.16,3.89,.14,7.02,3.27,7.16,7.16h-14.87Z"/>
        <rect class="cls-10" x="206.79" y="49.83" width="13.55" height="4.52" rx="2.26" ry="2.26"/>
        <rect class="cls-10" x="173.19" y="49.83" width="13.55" height="4.52" rx="2.26" ry="2.26"/>
        <rect class="cls-26" x="206.79" y="48.7" width="13.55" height="4.52" rx="2.26" ry="2.26"/>
        <rect class="cls-26" x="173.29" y="48.7" width="13.55" height="4.52" rx="2.26" ry="2.26"/>
        <path class="cls-34" d="M179.87,51.67h-4.16c-.55,0-1-.45-1-1s.45-1,1-1h4.16c.55,0,1,.45,1,1s-.45,1-1,1Z"/>
        <circle class="cls-34" cx="182.79" cy="50.77" r=".75"/>
        <circle class="cls-12" cx="164.44" cy="150.25" r="7.2"/>
        <circle class="cls-12" cx="228.67" cy="150.25" r="7.2"/>
        <path class="cls-24" d="M161.9,115.45h0c.51,0,.92,.41,.92,.92v8.18c0,.51-.41,.92-.92,.92h0c-.51,0-.92-.41-.92-.92v-8.18c0-.51,.41-.92,.92-.92Z"/>
        <path class="cls-36" d="M160,141h0c-.4,0-.9-.48-1.23-1-.35,.27-.68,.56-1,.87-.05,.05-.14,.05-.19,0-.05-.05-.05-.13,0-.18,.31-.33,.65-.64,1-.92-.13-.27-.2-.57-.21-.87,0-.07,.06-.13,.13-.13h0c.07,0,.13,.06,.13,.13,0,0,0,0,0,.01,0,.24,.06,.48,.17,.7,.53-.38,1.1-.67,1.46-.51s.38,.4,.36,.87c.04,.85-.34,1.03-.62,1.03Zm-1-1.19c.28,.5,.73,.92,1,.93h0c.31,0,.38-.51,.39-.82s0-.54-.19-.62-.7,.1-1.2,.47v.04Z"/>
        <path class="cls-36" d="M160.22,137.16h0c-.27,0-.61-.33-.83-.7-.23,.18-.45,.37-.66,.58-.03,.03-.09,.03-.12,0s-.03-.09,0-.12c.21-.23,.45-.43,.7-.62-.09-.18-.14-.38-.15-.58,0-.05,.04-.09,.09-.09h0s.09,.04,.09,.09c0,.16,.04,.32,.11,.47,.36-.25,.74-.45,1-.34s.25,.27,.23,.59c-.05,.62-.31,.72-.46,.72Zm-.71-.81c.2,.34,.49,.62,.7,.63h0c.21,0,.26-.34,.27-.55s0-.37-.14-.42-.49,.1-.83,.34Z"/>
        <path class="cls-36" d="M160,134.32h0c-.4,0-.9-.48-1.23-1-.35,.27-.68,.56-1,.87-.05,.05-.14,.05-.19,0-.05-.05-.05-.13,0-.18,.31-.33,.65-.64,1-.93-.13-.27-.21-.56-.21-.86,0-.07,.06-.13,.13-.13h0c.07,0,.13,.06,.13,.13,0,0,0,0,0,.01,0,.24,.07,.48,.17,.7,.53-.38,1.1-.67,1.46-.51s.38,.4,.36,.87c.04,.89-.34,1.03-.62,1.03Zm-1-1.19c.28,.5,.73,.92,1,.93h0c.31,0,.38-.51,.39-.82s0-.54-.19-.62-.7,.14-1.2,.51Z"/>
        <path class="cls-36" d="M233.2,141c-.23,0-.61-.14-.65-1.07,0-.47,.1-.76,.35-.87s.94,.13,1.47,.51c.11-.22,.16-.46,.16-.7,.02-.07,.1-.12,.17-.1,.05,.01,.08,.05,.1,.1,0,.3-.08,.6-.22,.87,.36,.28,.69,.59,1,.92,.05,.03,.06,.1,.03,.15,0,.01-.02,.02-.03,.03-.05,.05-.13,.05-.18,0-.32-.31-.65-.6-1-.87-.33,.56-.83,1-1.24,1l.04,.03Zm0-1.73s-.09-.01-.14,0c-.18,.08-.21,.38-.2,.62s.09,.82,.39,.82h0c.31,0,.75-.43,1-.93-.31-.28-.69-.46-1.1-.55l.05,.04Z"/>
        <path class="cls-36" d="M233,137.16c-.16,0-.41-.1-.44-.72,0-.32,.07-.52,.24-.59s.63,.09,1,.34c.08-.15,.12-.31,.12-.47,0-.04,.03-.08,.07-.09,0,0,0,0,.01,0h0s.09,.04,.09,.09c0,.2-.05,.4-.14,.58,.25,.19,.48,.4,.7,.62,.03,.03,.03,.09,0,.12-.03,.04-.09,.04-.13,0,0,0,0,0,0,0-.21-.21-.43-.4-.66-.58-.22,.37-.55,.69-.83,.7h-.03Zm0-1.17h-.09c-.12,.05-.14,.26-.13,.42s0,.55,.26,.55h0c.2,0,.5-.29,.69-.63-.21-.17-.46-.28-.73-.33h0Z"/>
        <path class="cls-36" d="M233.2,134.32c-.23,0-.61-.14-.65-1.07,0-.47,.1-.76,.35-.87s.94,.13,1.47,.51c.11-.22,.16-.46,.16-.7,0-.07,.05-.13,.12-.14,0,0,0,0,.01,0h0c.07,0,.13,.06,.13,.13h0c0,.3-.08,.59-.22,.86,.36,.29,.69,.6,1,.93,.05,.03,.06,.1,.03,.15,0,.01-.02,.02-.03,.03-.05,.05-.13,.05-.18,0-.32-.31-.65-.6-1-.87-.33,.56-.83,1-1.24,1l.05,.04Zm0-1.73s-.09-.01-.14,0c-.18,.08-.21,.38-.2,.62s.09,.82,.39,.82h0c.31,0,.75-.43,1-.93-.32-.26-.7-.44-1.1-.51h.05Z"/>
        <circle class="cls-25" cx="222.07" cy="28.98" r="4.94"/>
        <path class="cls-46" d="M175.42,165.39h14.29c2.29,0,4.14,1.85,4.14,4.14h0c0,2.29-1.85,4.14-4.14,4.14h-14.29c-2.29,0-4.14-1.85-4.14-4.14h0c0-2.29,1.85-4.14,4.14-4.14Z"/>
        <path class="cls-46" d="M173.19,167.79c0-5.2,4.21-9.41,9.41-9.41s9.41,4.21,9.41,9.41h-18.82Z"/>
        <path class="cls-46" d="M203.64,165.39h14.29c2.29,0,4.14,1.85,4.14,4.14h0c0,2.29-1.85,4.14-4.14,4.14h-14.29c-2.29,0-4.14-1.85-4.14-4.14h0c0-2.29,1.85-4.14,4.14-4.14Z"/>
        <path class="cls-46" d="M201.41,167.79c0-5.2,4.21-9.41,9.41-9.41s9.41,4.21,9.41,9.41h-18.82Z"/>
        <path class="cls-9" d="M226.1,37.19c-.02,3.11-2.56,5.62-5.67,5.61-2.43-.01-4.57-1.58-5.33-3.89-3.72,4.08-10.05,4.37-14.13,.65-.39-.35-.75-.74-1.07-1.14-3.31,4.42-9.58,5.31-14,2-1.56-1.17-2.75-2.78-3.41-4.62-.93,1.1-2.29,1.74-3.73,1.74-1.66,0-3.21-.83-4.12-2.22-1.86,2-4.98,2.11-6.98,.25-1.38-1.28-1.91-3.23-1.37-5.03,.66,2.05,2.56,3.44,4.71,3.46,1.38,0,2.69-.58,3.62-1.6,.92,1.38,2.46,2.21,4.12,2.22,1.44,0,2.8-.64,3.73-1.74,1.87,5.2,7.59,7.9,12.79,6.03,1.84-.66,3.44-1.85,4.62-3.41,3.45,4.31,9.75,5.01,14.06,1.55,.41-.33,.79-.69,1.14-1.07,.94,2.97,4.11,4.61,7.08,3.67,1.84-.58,3.26-2.07,3.75-3.94,.13,.48,.19,.98,.19,1.48Z"/>
        <circle class="cls-25" cx="228.03" cy="28.21" r="5.65"/>
        <path class="cls-26" d="M187.18,69.93h18.92c4.68,0,8.47,3.79,8.47,8.47h-35.86c0-4.68,3.79-8.47,8.47-8.47Z"/>
        <path class="cls-26" d="M241.12,78v.77h0v.63c-.55,11.68-8.33,21.77-19.49,25.26-2.11,3.65-5.49,6.39-9.5,7.68-1.84,3.24-5.27,5.24-9,5.25l-12.4,.06c-3.25,.02-6.32-1.49-8.29-4.08-.25-.34-.49-.69-.7-1.06,0-.02,0-.04,0-.06-2.72-.86-5.17-2.39-7.14-4.45-.51-.54-.98-1.11-1.42-1.71-.3-.42-.59-.85-.86-1.29v-.06c-4.61-1.36-8.78-3.89-12.12-7.34-.25-.26-.5-.52-.74-.8s-.35-.39-.52-.59l-.57-.69h0c-.22-.28-.43-.56-.63-.84-.21-.29-.42-.58-.62-.88-.41-.59-.78-1.19-1.12-1.82-2.22-3.88-3.45-8.25-3.59-12.72v-.83h0l88.71-.43Z"/>
        <path class="cls-43" d="M241.09,79.39c-.55,11.68-8.33,21.77-19.49,25.26-2.11,3.65-5.49,6.39-9.5,7.68-1.84,3.24-5.27,5.24-9,5.25l-12.4,.06c-3.25,.02-6.32-1.49-8.29-4.08-.25-.34-.49-.69-.7-1.06-2.74-.87-5.21-2.42-7.18-4.51-.51-.54-.98-1.11-1.42-1.71-.3-.42-.58-.85-.84-1.29h0c-4.62-1.37-8.81-3.92-12.15-7.4-.25-.26-.5-.52-.74-.8s-.35-.39-.52-.59l-.57-.69h0c-.22-.28-.43-.56-.63-.84-.21-.29-.42-.58-.62-.88-.39-.59-.77-1.2-1.12-1.82-2.03-3.61-3.23-7.63-3.5-11.77v-.84c5.25,6.43,11.96,11.5,19.58,14.78,15.97,6.9,34.09,6.82,50-.23,7.38-3.28,13.88-8.24,19-14.48l.09-.04Z"/>
        <path class="cls-23" d="M228,106.44c-1.98,1.23-4.11,2.21-6.33,2.9-2.11,3.65-5.49,6.39-9.5,7.68-1.84,3.24-5.27,5.24-9,5.25l-12.4,.06c-3.25,.02-6.32-1.49-8.29-4.08-.25-.34-.49-.69-.7-1.06-2.74-.87-5.21-2.42-7.18-4.51-.51-.54-.98-1.11-1.42-1.71-.3-.42-.58-.85-.84-1.29h0c-2.47-.74-4.83-1.81-7-3.2v-4c0-.26,.02-.53,.06-.79,2.17,1.38,4.53,2.45,7,3.18h0c.26,.44,.54,.87,.84,1.29,.44,.6,.91,1.17,1.42,1.71,1.97,2.09,4.44,3.64,7.18,4.51,.21,.37,.45,.72,.7,1.06,1.97,2.59,5.04,4.1,8.29,4.08l12.4-.06c3.73,0,7.16-2.01,9-5.25,4.01-1.29,7.39-4.03,9.5-7.68,2.21-.68,4.32-1.65,6.29-2.87,0,.18,0,.35,0,.53l-.02,4.25Z"/>
        <path class="cls-15" d="M183.63,75.2h26c.76,0,1.37,.61,1.37,1.37h0c0,4.55-3.68,8.23-8.23,8.23h-12.29c-4.55,0-8.23-3.68-8.23-8.23h0c0-.76,.61-1.37,1.37-1.37h.01Z"/>
        <circle class="cls-35" cx="196.64" cy="67.82" r="4.4"/>
        <path class="cls-26" d="M152.24,67.51h0l.07,10.87h7.19v-3.62c0-4-3.25-7.25-7.25-7.25,0,0,0,0-.01,0Z"/>
        <path class="cls-26" d="M241.19,67.51h0l-.06,10.87h-7.19v-3.62c0-4,3.25-7.25,7.25-7.25h0Z"/>
        <circle class="cls-17" cx="158.73" cy="60.27" r="1.94"/>
        <path class="cls-33" d="M158.69,27.51h-.12c-.41-.07-.69-.45-.62-.86,1.57-9.21,10.27-15.43,19.49-13.93,.41,.07,.68,.46,.62,.86-.07,.41-.46,.68-.87,.61-8.41-1.39-16.36,4.29-17.76,12.7-.07,.36-.38,.61-.74,.61Z"/>
        <path class="cls-18" d="M161.49,20.75c-.16,0-.31-.05-.44-.14-.33-.25-.41-.71-.17-1.05,1.65-2.3,3.85-4.15,6.39-5.38,.37-.18,.82-.02,1,.35,.18,.37,.03,.81-.33,.99,0,0-.01,0-.02,0-2.31,1.13-4.31,2.81-5.82,4.9-.14,.2-.37,.32-.61,.32Z"/>
        <circle class="cls-25" cx="216.59" cy="15.53" r="1.88"/>
        <circle class="cls-25" cx="217.87" cy="22.13" r="4.59"/>
        <circle class="cls-25" cx="205.81" cy="28.63" r="2.19"/>
        <circle class="cls-25" cx="212.67" cy="14.22" r="3.67"/>
        <circle class="cls-25" cx="216" cy="20.06" r="5.95"/>
        <circle class="cls-25" cx="207.66" cy="29.42" r="10.03"/>
        <circle class="cls-25" cx="205.82" cy="26.06" r="4.57"/>
        <circle class="cls-25" cx="204.53" cy="19.89" r="3.43"/>
        <circle class="cls-25" cx="204.71" cy="16.36" r="6.28"/>
        <circle class="cls-25" cx="195.52" cy="22.36" r="7.01"/>
        <circle class="cls-25" cx="206.1" cy="28.83" r="2.69"/>
        <circle class="cls-25" cx="218.68" cy="28.78" r="3.18"/>
        <circle class="cls-25" cx="223.39" cy="14.93" r="3.1"/>
        <circle class="cls-25" cx="216.09" cy="12.06" r="3.43"/>
        <circle class="cls-25" cx="218.49" cy="12.04" r="3.83"/>
        <circle class="cls-25" cx="224.18" cy="23.57" r="3.67"/>
        <circle class="cls-25" cx="221.79" cy="19.04" r="7.75"/>
        <circle class="cls-25" cx="200.79" cy="15.75" r="1.88"/>
        <circle class="cls-25" cx="202.07" cy="22.35" r="4.59"/>
        <circle class="cls-25" cx="190.02" cy="28.84" r="2.19"/>
        <circle class="cls-25" cx="196.87" cy="14.43" r="3.67"/>
        <circle class="cls-25" cx="200.2" cy="20.28" r="5.95"/>
        <circle class="cls-25" cx="191.86" cy="29.64" r="10.03"/>
        <circle class="cls-25" cx="190.02" cy="26.27" r="4.57"/>
        <circle class="cls-25" cx="188.74" cy="20.11" r="3.43"/>
        <circle class="cls-25" cx="188.91" cy="16.58" r="6.28"/>
        <circle class="cls-25" cx="179.72" cy="22.57" r="7.01"/>
        <circle class="cls-25" cx="190.3" cy="29.05" r="2.69"/>
        <circle class="cls-25" cx="202.88" cy="29" r="3.18"/>
        <circle class="cls-25" cx="207.59" cy="15.14" r="3.1"/>
        <circle class="cls-25" cx="200.29" cy="12.27" r="3.43"/>
        <circle class="cls-25" cx="202.69" cy="12.26" r="3.83"/>
        <circle class="cls-25" cx="208.38" cy="23.79" r="3.67"/>
        <circle class="cls-25" cx="205.99" cy="19.26" r="7.75"/>
        <circle class="cls-25" cx="170.97" cy="29.26" r="4.94"/>
        <circle class="cls-25" cx="178.71" cy="29.88" r="4.94"/>
        <circle class="cls-25" cx="220.43" cy="34.47" r="5.65"/>
        <circle class="cls-43" cx="207.03" cy="95.66" r="2.14"/>
        <circle class="cls-42" cx="210.41" cy="94.43" r=".91"/>
        <circle class="cls-42" cx="216.02" cy="93.97" r=".45"/>
        <circle class="cls-42" cx="200.78" cy="96.86" r=".38"/>
        <circle class="cls-42" cx="203.24" cy="99.49" r="1.01"/>
        <circle class="cls-42" cx="199.58" cy="93.59" r=".39"/>
        <circle class="cls-42" cx="196.95" cy="94.31" r=".72"/>
        <circle class="cls-42" cx="197.48" cy="97.34" r=".87"/>
        <circle class="cls-42" cx="202.6" cy="92.83" r=".37"/>
        <circle class="cls-27" cx="173.66" cy="22.74" r="4.41"/>
        <circle class="cls-27" cx="182.45" cy="26.86" r="1.94"/>
        <polygon class="cls-3" points="318.15 170.12 308.38 170.17 308.23 127.58 318 127.53 318.15 170.12"/>
        <polygon class="cls-3" points="333.17 170.05 323.4 170.1 323.25 127.5 333.02 127.46 333.17 170.05"/>
        <path class="cls-2" d="M310.07,170.28c-.09,0-.17-.08-.17-.17v-.68c0-.09,.08-.17,.17-.17,.09,0,.17,.08,.17,.17v.68c0,.09-.08,.17-.17,.17Zm0-2c-.09,0-.17-.08-.17-.17v-.67c0-.09,.08-.17,.17-.17,.09,0,.17,.08,.17,.17h0v.67c-.01,.08-.08,.15-.17,.15v.02Zm0-2c-.09,0-.17-.08-.17-.17h0v-.67c0-.09,.08-.17,.17-.17,.09,0,.17,.08,.17,.17h0v.67c-.02,.08-.09,.13-.17,.13v.04Zm0-2c-.09,0-.17-.08-.17-.17v-.67c0-.09,.08-.17,.17-.17,.09,0,.17,.08,.17,.17v.67c-.03,.07-.09,.12-.17,.12v.05Zm0-2c-.09,0-.17-.08-.17-.17v-.67c0-.09,.08-.17,.17-.17,.09,0,.17,.08,.17,.17h0v.56c.02,.1-.05,.19-.15,.21,0,0-.02,0-.02,0v.07Zm0-2c-.09,0-.17-.08-.17-.17h0v-.67c0-.09,.08-.17,.17-.17,.09,0,.17,.08,.17,.17h0v.56c.01,.09-.06,.18-.15,.19,0,0-.01,0-.02,0v.09Zm0-2c-.09,0-.17-.08-.17-.17v-.67c0-.09,.08-.17,.17-.17,.09,0,.17,.08,.17,.17h0v.56c0,.1-.07,.17-.17,.18v.1Zm0-2c-.09,0-.17-.08-.17-.17v-.67c0-.09,.08-.17,.17-.17,.09,0,.17,.08,.17,.17v.56c0,.09-.08,.16-.17,.16v.12Zm0-2c-.09,0-.17-.08-.17-.17h0v-.67c0-.09,.08-.17,.17-.17,.09,0,.17,.08,.17,.17v.56c-.01,.08-.09,.14-.17,.14v.14Zm0-2c-.09,0-.17-.08-.17-.17v-.67c0-.09,.08-.17,.17-.17,.09,0,.17,.08,.17,.17h0v.56c-.02,.08-.09,.13-.17,.13v.15Zm0-2c-.09,0-.17-.08-.17-.17v-.67c0-.09,.08-.17,.17-.17,.09,0,.17,.08,.17,.17h0v.67c-.05,.03-.12,.03-.17,0v.17Zm0-2c-.09,0-.17-.08-.17-.17h0v-.67c0-.09,.08-.17,.17-.17,.09,0,.17,.08,.17,.17v.67c-.06,.02-.12,.02-.17-.02v.19Zm0-2c-.09,0-.17-.08-.17-.17v-.32c0-.09,.08-.17,.17-.17,.09,0,.17,.08,.17,.17h0v.32c-.06,.02-.12,0-.17-.03v.2Z"/>
        <path class="cls-2" d="M316.3,170.28c-.09,0-.17-.08-.17-.17v-.68c0-.09,.08-.17,.17-.17,.09,0,.17,.08,.17,.17v.68c0,.09-.08,.17-.17,.17Zm0-2c-.09,0-.17-.08-.17-.17v-.67c0-.09,.08-.17,.17-.17,.09,0,.17,.08,.17,.17v.67c-.01,.08-.08,.15-.17,.15v.02Zm0-2c-.09,0-.17-.08-.17-.17h0v-.67c0-.09,.08-.17,.17-.17,.09,0,.17,.08,.17,.17h0v.67c-.02,.08-.09,.13-.17,.13v.04Zm0-2c-.09,0-.17-.08-.17-.17v-.67c0-.09,.08-.17,.17-.17,.09,0,.17,.08,.17,.17v.67c-.03,.07-.09,.12-.17,.12v.05Zm0-2c-.09,0-.17-.08-.17-.17v-.67c0-.09,.08-.17,.17-.17,.09,0,.17,.08,.17,.17h0v.56c.02,.1-.05,.19-.15,.21,0,0-.02,0-.02,0v.07Zm0-2c-.09,0-.17-.08-.17-.17h0v-.67c0-.09,.08-.17,.17-.17,.09,0,.17,.08,.17,.17v.56c.01,.09-.06,.18-.15,.19,0,0-.01,0-.02,0v.09Zm0-2c-.09,0-.17-.08-.17-.17v-.67c0-.09,.08-.17,.17-.17,.09,0,.17,.08,.17,.17h0v.56c0,.1-.07,.17-.17,.18v.1Zm0-2c-.09,0-.17-.08-.17-.17v-.67c0-.09,.08-.17,.17-.17,.09,0,.17,.08,.17,.17v.56c0,.09-.08,.16-.17,.16v.12Zm0-2c-.09,0-.17-.08-.17-.17h0v-.67c0-.09,.08-.17,.17-.17,.09,0,.17,.08,.17,.17v.56c-.01,.08-.09,.14-.17,.14v.14Zm0-2c-.09,0-.17-.08-.17-.17v-.67c0-.09,.08-.17,.17-.17,.09,0,.17,.08,.17,.17v.56c-.02,.08-.09,.13-.17,.13v.15Zm0-2c-.09,0-.17-.08-.17-.17v-.67c0-.09,.08-.17,.17-.17,.09,0,.17,.08,.17,.17h0v.67c-.05,.03-.12,.03-.17,0v.17Zm0-2c-.09,0-.17-.08-.17-.17h0v-.67c0-.09,.08-.17,.17-.17,.09,0,.17,.08,.17,.17v.67c-.06,.02-.12,.02-.17-.02v.19Zm0-2c-.09,0-.17-.08-.17-.17v-.32c0-.09,.08-.17,.17-.17,.09,0,.17,.08,.17,.17h0v.32c-.06,.02-.12,0-.17-.03v.2Z"/>
        <path class="cls-2" d="M325.12,170.28c-.09,0-.17-.08-.17-.17v-.68c0-.09,.08-.17,.17-.17,.09,0,.17,.08,.17,.17v.68c0,.09-.08,.17-.17,.17Zm0-2c-.09,0-.17-.08-.17-.17v-.67c0-.09,.08-.17,.17-.17,.09,0,.17,.08,.17,.17v.67c-.01,.08-.08,.15-.17,.15v.02Zm0-2c-.09,0-.17-.08-.17-.17h0v-.67c0-.09,.08-.17,.17-.17,.09,0,.17,.08,.17,.17v.67c-.02,.08-.09,.13-.17,.13v.04Zm0-2c-.09,0-.17-.08-.17-.17v-.67c0-.09,.08-.17,.17-.17,.09,0,.17,.08,.17,.17v.67c-.03,.07-.09,.12-.17,.12v.05Zm0-2c-.1-.02-.17-.11-.15-.21,0-.03,.01-.05,.03-.07v-.67c0-.09,.08-.17,.17-.17,.09,0,.17,.08,.17,.17v.67c.02,.1-.04,.19-.14,.21-.03,0-.05,0-.08,0v.07Zm0-2c-.09,0-.17-.09-.16-.18,0-.04,.02-.07,.04-.1v-.67c0-.09,.08-.17,.17-.17,.09,0,.17,.08,.17,.17v.67c.02,.09-.05,.18-.14,.2-.03,0-.05,0-.08,0v.09Zm0-2c-.1-.02-.17-.11-.15-.21,0-.03,.01-.05,.03-.07v-.67c0-.09,.08-.17,.17-.17,.09,0,.17,.08,.17,.17v.67c0,.1-.08,.18-.18,.18-.01,0-.03,0-.04,0v.1Zm0-2c-.1-.02-.17-.11-.15-.21,0-.03,.01-.05,.03-.07v-.67c0-.09,.08-.17,.17-.17,.09,0,.17,.08,.17,.17v.67c0,.1-.1,.17-.19,.16,0,0-.02,0-.03,0v.12Zm0-2c-.09,0-.17-.09-.16-.18,0-.04,.02-.07,.04-.1v-.67c0-.09,.08-.17,.17-.17,.09,0,.17,.08,.17,.17v.67c-.01,.09-.1,.16-.19,.15,0,0-.02,0-.03,0v.14Zm0-2c-.1-.02-.17-.11-.15-.21,0-.03,.01-.05,.03-.07v-.67c0-.09,.08-.17,.17-.17,.09,0,.17,.08,.17,.17v.67c-.02,.1-.12,.15-.22,.13,0,0,0,0,0,0v.15Zm0-2c-.09,0-.17-.08-.17-.17v-.67c0-.09,.08-.17,.17-.17,.09,0,.17,.08,.17,.17v.67c-.05,.03-.12,.03-.17,0v.17Zm0-2c-.09,0-.17-.08-.17-.17h0v-.67c0-.09,.08-.17,.17-.17,.09,0,.17,.08,.17,.17v.67c-.06,.02-.12,.02-.17-.02v.19Zm0-2c-.09,0-.17-.08-.17-.17v-.32c0-.09,.08-.17,.17-.17,.09,0,.17,.08,.17,.17v.32c-.06,.02-.12,0-.17-.03v.2Z"/>
        <path class="cls-2" d="M331.35,170.28c-.09,0-.17-.08-.17-.17v-.68c0-.09,.08-.16,.17-.16,.09,0,.16,.06,.17,.15,0,0,0,0,0,.01v.68c0,.09-.08,.17-.17,.17h0Zm0-2c-.09,0-.17-.08-.17-.17v-.67c0-.09,.08-.17,.17-.17,.09,0,.17,.08,.17,.17h0v.67c-.01,.09-.08,.15-.17,.15v.02Zm0-2c-.09,0-.17-.08-.17-.17h0v-.67c0-.09,.08-.17,.17-.17,.09,0,.17,.08,.17,.17h0v.67c-.02,.08-.09,.14-.17,.13v.04Zm0-2c-.09,0-.17-.08-.17-.17v-.67c0-.09,.08-.17,.17-.17h0c.09,0,.16,.06,.17,.15,0,0,0,.01,0,.02v.67c-.02,.07-.09,.12-.17,.12v.05Zm0-2c-.09,0-.17-.08-.17-.17v-.67c0-.09,.08-.17,.17-.17,.09,0,.17,.08,.17,.17h0v.56c.02,.09-.03,.18-.13,.21-.01,0-.03,0-.04,0v.07Zm0-2c-.09,0-.17-.08-.17-.17h0v-.67c0-.09,.08-.17,.17-.17,.09,0,.17,.08,.17,.17h0v.56c.02,.09-.04,.17-.13,.19-.01,0-.03,0-.04,0v.09Zm0-2c-.09,0-.17-.08-.17-.17v-.67c0-.09,.08-.17,.17-.17h0c.09,0,.16,.06,.17,.15,0,0,0,.01,0,.02v.56c0,.09-.07,.17-.16,.18,0,0,0,0-.01,0v.1Zm0-2c-.09,0-.17-.08-.17-.17v-.67c0-.09,.08-.17,.17-.17,.09,0,.17,.08,.17,.17h0v.56c0,.09-.08,.16-.17,.16v.12Zm0-2c-.09,0-.17-.08-.17-.17h0v-.67c0-.09,.08-.17,.17-.17,.09,0,.17,.08,.17,.17h0v.56c-.01,.08-.09,.15-.17,.14v.14Zm0-2c-.09,0-.17-.08-.17-.17v-.67c0-.09,.08-.17,.17-.17h0c.09,0,.16,.06,.17,.15,0,0,0,.01,0,.02v.56c-.02,.08-.09,.13-.17,.13v.15Zm0-2c-.09,0-.17-.08-.17-.17v-.67c0-.09,.08-.17,.17-.17,.09,0,.17,.08,.17,.17h0v.67c-.05,.03-.12,.03-.17,0v.17Zm0-2c-.09,0-.17-.08-.17-.17h0v-.67c0-.09,.08-.17,.17-.17,.09,0,.17,.08,.17,.17h0v.67c-.06,.03-.12,.02-.17-.02v.19Zm0-2c-.09,0-.17-.08-.17-.17v-.32c0-.09,.08-.17,.17-.17,.09,0,.17,.08,.17,.17h0v.32c-.06,.02-.12,.01-.17-.03v.2Z"/>
        <circle class="cls-19" cx="301.37" cy="139.45" r="4.56"/>
        <circle class="cls-19" cx="341.7" cy="139.45" r="4.56"/>
        <path class="cls-44" d="M304.52,108.57l.07,27.46h-6.45v-18.72c0-4.23,2.55-8.03,6.46-9.64-.05,.3-.08,.6-.08,.9Z"/>
        <path class="cls-44" d="M337.88,108.57l-.07,27.43h6.45v-18.69c0-4.23-2.55-8.03-6.46-9.64,.05,.3,.08,.6,.08,.9Z"/>
        <polygon class="cls-1" points="318.06 151.29 308.29 151.34 308.23 127.58 318 127.53 318.06 151.29"/>
        <polygon class="cls-1" points="333.08 151.22 323.31 151.27 323.25 127.5 333.02 127.46 333.08 151.22"/>
        <rect class="cls-41" x="303.94" y="104.36" width="34.85" height="43.87" rx="5.93" ry="5.93"/>
        <path class="cls-41" d="M301.37,117.56h0c.51,0,.92,.41,.92,.92v8.18c0,.51-.41,.92-.92,.92h0c-.51,0-.92-.41-.92-.92v-8.18c0-.51,.41-.92,.92-.92Z"/>
        <rect class="cls-46" x="304.73" y="168.07" width="14.79" height="5.43" rx="2.71" ry="2.71"/>
        <path class="cls-46" d="M306,169.64c0-3.41,2.77-6.17,6.17-6.17,3.4,0,6.16,2.76,6.17,6.17h-12.34Z"/>
        <rect class="cls-46" x="320.82" y="168.07" width="14.79" height="5.43" rx="2.71" ry="2.71"/>
        <path class="cls-46" d="M322.07,169.64c.14-3.4,3.01-6.05,6.41-5.92,3.21,.13,5.79,2.7,5.92,5.92h-12.33Z"/>
        <rect class="cls-19" x="314.24" y="94.42" width="13.17" height="10.03"/>
        <path class="cls-8" d="M314.24,85.78h13.17v10.7c0,3.63-2.95,6.58-6.58,6.58h0c-3.63,0-6.58-2.95-6.58-6.58v-10.7h-.01Z"/>
        <path class="cls-4" d="M322.35,26h8.65c10.33,0,18.71,8.38,18.71,18.71v30.08h-27.36V26h0Z"/>
        <circle class="cls-19" cx="296.79" cy="59.28" r="4.96"/>
        <circle class="cls-14" cx="296.79" cy="59.28" r="2.58"/>
        <circle class="cls-19" cx="343.7" cy="59.28" r="4.96"/>
        <circle class="cls-14" cx="343.7" cy="59.28" r="2.58"/>
        <rect class="cls-19" x="297.97" y="49.55" width="45.73" height="45.73" rx="13.16" ry="13.16" transform="translate(43.59 249.38) rotate(-45.27)"/>
        <rect class="cls-19" x="297.96" y="31.46" width="45.73" height="45.73" rx="13.16" ry="13.16" transform="translate(-.25 1.51) rotate(-.27)"/>
        <path class="cls-10" d="M347.7,73c-.17,3.23-1.52,6.29-3.81,8.58l-13.66,13.83c-5.12,5.16-13.44,5.2-18.61,.09l-13.79-13.67c-2.36-2.34-3.73-5.51-3.83-8.83,9.59,14.84,29.4,19.1,44.25,9.5,3.81-2.46,7.04-5.7,9.5-9.5h-.05Z"/>
        <circle class="cls-35" cx="320.9" cy="69.39" r="1.59"/>
        <rect class="cls-41" x="310.11" y="101.4" width="22.5" height="4.43" rx="2.21" ry="2.21"/>
        <path class="cls-45" d="M332.61,105.11c0,.59-.23,1.15-.65,1.56-.42,.42-.98,.65-1.57,.65h-18.06c-1.22,0-2.21-.99-2.22-2.21,0-.26,.04-.52,.13-.76,.33,.87,1.16,1.45,2.09,1.45h18.06c.59,0,1.15-.23,1.57-.65,.23-.23,.4-.5,.52-.8,.09,.24,.13,.5,.13,.76Z"/>
        <path class="cls-44" d="M312.78,102.06h0c.36,0,.66,.3,.66,.66v1.95c0,.36-.3,.66-.66,.66h0c-.36,0-.66-.3-.66-.66v-1.95c0-.36,.3-.66,.66-.66Z"/>
        <path class="cls-44" d="M315.64,102.06h0c.36,0,.66,.3,.66,.66v1.95c0,.36-.3,.66-.66,.66h0c-.36,0-.66-.3-.66-.66v-1.95c0-.36,.3-.66,.66-.66Z"/>
        <path class="cls-44" d="M318.5,102.06h0c.36,0,.66,.3,.66,.66v1.95c0,.36-.3,.66-.66,.66h0c-.36,0-.66-.3-.66-.66v-1.95c0-.36,.3-.66,.66-.66Z"/>
        <path class="cls-44" d="M321.36,102.06h0c.36,0,.66,.3,.66,.66v1.95c0,.36-.3,.66-.66,.66h0c-.36,0-.66-.3-.66-.66v-1.95c0-.36,.3-.66,.66-.66Z"/>
        <path class="cls-44" d="M324.22,102.06h0c.36,0,.66,.3,.66,.66v1.95c0,.36-.3,.66-.66,.66h0c-.36,0-.66-.3-.66-.66v-1.95c0-.36,.3-.66,.66-.66Z"/>
        <path class="cls-44" d="M329.94,102.06h0c.36,0,.66,.3,.66,.66v1.95c0,.36-.3,.66-.66,.66h0c-.36,0-.66-.3-.66-.66v-1.95c0-.36,.3-.66,.66-.66Z"/>
        <path class="cls-44" d="M327.08,102.06h0c.36,0,.66,.3,.66,.66v1.95c0,.36-.3,.66-.66,.66h0c-.36,0-.66-.3-.66-.66v-1.95c0-.36,.3-.66,.66-.66Z"/>
        <g class="cls-49">
          <rect class="cls-6" x="307.19" y="52.43" width="9.11" height="3.95" rx="1.97" ry="1.97"/>
          <rect class="cls-6" x="325.38" y="52.25" width="9.11" height="3.95" rx="1.97" ry="1.97"/>
        </g>
        <path class="cls-17" d="M302.49,61.35c-.83,0-1.5-.67-1.5-1.5v-6.93c0-.83,.67-1.5,1.5-1.5s1.5,.67,1.5,1.5v6.93c0,.83-.67,1.5-1.5,1.5Z"/>
        <path class="cls-17" d="M158.73,54.92c-.83,0-1.5-.67-1.5-1.5v-6.94c0-.83,.67-1.5,1.5-1.5s1.5,.67,1.5,1.5v6.94c0,.83-.67,1.5-1.5,1.5Z"/>
        <circle class="cls-21" cx="346.28" cy="64.23" r="1.87"/>
        <circle class="cls-15" cx="346.28" cy="64.23" r=".93"/>
        <circle class="cls-21" cx="297.07" cy="64.23" r="1.87"/>
        <circle class="cls-15" cx="297.07" cy="64.23" r=".93"/>
        <path class="cls-4" d="M316,22.92h31.63v.39c0,12.33-9.99,22.32-22.32,22.32h-31.65v-.39c0-12.33,9.99-22.32,22.32-22.32,0,0,.01,0,.02,0Z"/>
        <path class="cls-22" d="M315,32h-5.09c-.55,0-1-.45-1-1s.45-1,1-1h5.09c.55,0,1,.45,1,1s-.45,1-1,1Z"/>
        <path class="cls-22" d="M333,29.86h-5.1c-.55,0-1-.45-1-1s.45-1,1-1h5.1c.55,0,1,.45,1,1s-.45,1-1,1Z"/>
        <path class="cls-22" d="M324,35.26h-5.09c-.55,0-1-.45-1-1s.45-1,1-1h5.09c.55,0,1,.45,1,1s-.45,1-1,1Z"/>
        <path class="cls-9" d="M342.7,39.67c-4.23,5.28-10.64,8.35-17.41,8.33h-27.36v-2.41h27.38c6.37,.02,12.45-2.69,16.69-7.45,.26,.49,.5,1.01,.7,1.53Z"/>
        <path class="cls-35" d="M318.65,76.11c-.77,.07-1.54-.1-2.21-.47-.27-.2-.43-.51-.43-.85,.03-.21,.23-.36,.45-.32,.17,.03,.3,.16,.32,.32,0,.1,.05,.19,.13,.24,.95,.75,5.34,0,7.88-.61,.2-.05,.41,.08,.46,.28,.05,.2-.08,.41-.28,.46-2.07,.53-4.19,.85-6.32,.95Z"/>
        <rect class="cls-46" x="328.12" y="57.65" width="3.87" height="8.42" rx="1.93" ry="1.93"/>
        <path class="cls-46" d="M330.93,58.11l2.35-1.11h0c-.22,.85-.66,1.63-1.28,2.25l-1.1,1.15,.03-2.29Z"/>
        <path class="cls-46" d="M331.18,59.43l2.6-.18h0c-.51,.71-1.2,1.28-2,1.64l-1.46,.66,.86-2.12Z"/>
        <circle class="cls-15" cx="329.4" cy="63.3" r=".65"/>
        <rect class="cls-46" x="310.12" y="57.65" width="3.87" height="8.42" rx="1.93" ry="1.93"/>
        <path class="cls-46" d="M311.17,58.11l-2.35-1.11h0c.21,.85,.65,1.63,1.26,2.25l1.12,1.15-.03-2.29Z"/>
        <path class="cls-46" d="M310.92,59.43l-2.6-.18h0c.51,.71,1.2,1.28,2,1.64l1.46,.66-.86-2.12Z"/>
        <circle class="cls-15" cx="312.7" cy="63.3" r=".65"/>
        <rect class="cls-4" x="307.19" y="51.09" width="9.11" height="3.95" rx="1.97" ry="1.97"/>
        <rect class="cls-4" x="325.38" y="50.91" width="9.11" height="3.95" rx="1.97" ry="1.97"/>
      </g>
    </g>
  </g>
</svg>