<svg width="512" height="512" viewBox="0 0 512 512" fill="none" xmlns="http://www.w3.org/2000/svg">
<path d="M152.39 472H225.088H360.448C380.536 472 399.903 464.513 414.775 451L435.086 432.543C460.36 409.577 459.422 369.343 433.458 347.161C406.161 323.84 407.203 280.888 435.97 259.409C461.469 240.37 465.989 203.91 445.912 179.211L408.868 133.641C381.998 100.587 338.75 85.596 297.207 94.9369L134.965 131.416C128.912 132.777 122.6 130.712 118.519 126.036C106.459 112.218 71.6109 127.214 71.0622 145.553C70.1931 174.596 67.6173 203.118 65.7374 219.711C65.3746 222.913 64.5668 226.021 62.9936 228.833C60.9967 232.402 58.4719 236.056 55.4352 239.857C22.0095 281.69 4.47138 334.808 26.142 383.784L29.8629 392.194C51.331 440.712 99.3671 472 152.39 472Z" fill="#E7E8FF"/>
<path d="M481.268 233.709H495.406V245.797H481.268V262.15H468.207V245.797H454.027V233.709H468.207V217.816H481.268V233.709Z" fill="#032068"/>
<path d="M461.231 158.313H468.805V164.759H461.231V173.481H454.235V164.759H446.638V158.313H454.235V149.836H461.231V158.313Z" fill="#032068"/>
<path d="M96.0302 152.682L90.3934 151.727C89.3895 151.557 89.1943 150.199 90.1095 149.753L95.1284 147.307C95.432 147.159 95.6457 146.874 95.7021 146.541L96.7228 140.517C96.8871 139.546 98.1776 139.318 98.665 140.173L101.724 145.538C101.873 145.799 102.126 145.983 102.42 146.044L109.062 147.428C110.049 147.633 110.204 148.977 109.291 149.402L103.524 152.087C103.243 152.218 103.035 152.467 102.955 152.766L101.166 159.451C100.903 160.434 99.5335 160.502 99.1745 159.55L96.8352 153.345C96.7038 152.997 96.3973 152.744 96.0302 152.682Z" fill="#F4AD5E"/>
<path d="M136.505 94.8912L134.994 93.8306C134.161 93.2458 134.568 91.9359 135.586 91.9263L137.378 91.9095C137.716 91.9063 138.031 91.7404 138.225 91.4639L139.511 89.6312C140.076 88.8258 141.34 89.1739 141.413 90.1552L141.583 92.4538C141.606 92.7532 141.755 93.0287 141.994 93.2103L144.048 94.7693C144.85 95.3786 144.413 96.6589 143.406 96.6505L141.087 96.6313C140.777 96.6287 140.482 96.7635 140.281 96.9994L138.589 98.9864C137.929 99.7613 136.663 99.2343 136.748 98.22L136.947 95.8358C136.979 95.4648 136.81 95.1051 136.505 94.8912Z" fill="#F4AD5E"/>
<path d="M462.904 396.957C428.754 410.225 400.308 447.95 391.536 471.602H408.894C431.891 460.522 463.556 440.776 467.186 400.174C467.396 397.826 465.11 396.1 462.904 396.957Z" fill="#032068"/>
<path d="M457.101 309.383C394.464 340.191 377.612 417.027 369.814 469.443H400.192C439.228 416.964 475.501 384.345 461.808 311.761C461.404 309.62 459.064 308.418 457.101 309.383Z" fill="white"/>
<path fill-rule="evenodd" clip-rule="evenodd" d="M459.282 312.232C459.183 311.706 458.631 311.483 458.241 311.675C427.644 326.724 408.117 353.06 395.248 382.334C382.849 410.541 376.711 441.295 372.799 466.887H398.898C403.995 460.062 409.01 453.603 413.851 447.368C427.448 429.854 439.673 414.109 448.485 396.977C460.466 373.685 466.022 347.959 459.282 312.232ZM455.962 307.092C459.497 305.353 463.626 307.534 464.334 311.289C471.287 348.147 465.553 375.022 453.061 399.306C444.016 416.892 431.362 433.188 417.651 450.847C412.62 457.326 407.448 463.988 402.258 470.964L401.488 472H366.836L367.272 469.069C371.179 442.805 377.38 410.218 390.538 380.286C403.704 350.336 423.922 322.85 455.962 307.092Z" fill="#032068"/>
<path fill-rule="evenodd" clip-rule="evenodd" d="M444.689 348.898L455.313 326.649L450.67 324.456L426.363 375.359L422.226 357.358L417.215 358.498L422.803 382.814L396.266 438.384L394.057 423.036L388.969 423.761L392.276 446.74L381.958 468.347L386.602 470.541L411.925 417.511L430.035 410.681L428.212 405.9L415.11 410.841L441.181 356.244L458.444 348.002L456.219 343.393L444.689 348.898Z" fill="#032068"/>
<path d="M171.765 58.2116C171.765 48.4175 179.704 40.4778 189.498 40.4778H391.25C401.044 40.4778 408.984 48.4175 408.984 58.2116V452.704C408.984 462.498 401.044 470.438 391.25 470.438H189.498C179.704 470.438 171.765 462.498 171.765 452.704V58.2116Z" fill="white"/>
<path fill-rule="evenodd" clip-rule="evenodd" d="M170.287 58.2116C170.287 47.6013 178.888 39 189.498 39H391.25C401.86 39 410.462 47.6013 410.462 58.2116V452.704C410.462 463.314 401.86 471.916 391.25 471.916H189.498C178.888 471.916 170.287 463.314 170.287 452.704V58.2116ZM189.498 41.9556C180.52 41.9556 173.242 49.2337 173.242 58.2116V452.704C173.242 461.682 180.52 468.96 189.498 468.96H391.25C400.228 468.96 407.506 461.682 407.506 452.704V58.2116C407.506 49.2337 400.228 41.9556 391.25 41.9556H189.498Z" fill="#032068"/>
<path d="M239.151 392.409C239.151 391.141 238.851 390.146 238.249 389.424C237.647 388.702 236.591 388.02 235.079 387.378C233.568 386.736 232.172 386.086 230.892 385.428C229.612 384.77 228.509 384.008 227.583 383.141C226.658 382.274 225.948 381.271 225.455 380.132C224.961 378.992 224.714 377.612 224.714 375.991C224.714 373.279 225.594 371.048 227.352 369.298C228.607 368.039 230.16 367.155 232.012 366.647C233.333 366.284 234.385 365.173 234.385 363.802V362.977C234.385 361.961 235.209 361.137 236.225 361.137C237.24 361.137 238.064 361.961 238.064 362.977V363.923C238.064 365.298 239.086 366.426 240.38 366.892C242.127 367.52 243.568 368.539 244.704 369.948C245.77 371.248 246.485 372.781 246.85 374.547C247.179 376.145 245.81 377.484 244.178 377.484H242.269C240.637 377.484 239.445 376.105 238.872 374.577C238.74 374.225 238.579 373.91 238.388 373.632C237.771 372.733 236.892 372.284 235.75 372.284C234.732 372.284 233.938 372.621 233.367 373.295C232.812 373.953 232.534 374.868 232.534 376.039C232.534 377.227 232.858 378.174 233.506 378.88C234.154 379.57 235.195 380.236 236.629 380.878C238.064 381.504 239.413 382.162 240.678 382.852C241.958 383.526 243.061 384.296 243.987 385.163C244.912 386.03 245.637 387.041 246.162 388.196C246.686 389.352 246.948 390.74 246.948 392.361C246.948 395.105 246.108 397.344 244.426 399.078C243.223 400.33 241.701 401.206 239.861 401.704C238.601 402.045 237.601 403.105 237.601 404.41V405.11C237.601 406.126 236.778 406.95 235.762 406.95C234.746 406.95 233.923 406.126 233.923 405.11V404.385C233.923 403.077 232.929 402.007 231.661 401.685C229.378 401.104 227.548 400.042 226.172 398.5C224.945 397.102 224.138 395.401 223.753 393.399C223.444 391.796 224.811 390.459 226.444 390.459H228.329C229.962 390.459 231.164 391.835 231.731 393.366C231.912 393.856 232.149 394.283 232.442 394.648C233.228 395.595 234.339 396.068 235.773 396.068C236.822 396.068 237.647 395.747 238.249 395.105C238.851 394.447 239.151 393.549 239.151 392.409Z" fill="#F4AD5E"/>
<path d="M292.207 163.849C302.562 163.849 307.85 155.474 309.578 150.306C309.812 149.605 310.49 149.131 311.224 149.218C323.729 150.701 331.04 153.079 343.191 162.371C348.945 166.771 363.232 181.646 370.079 194.74C370.358 195.272 370.271 195.917 369.874 196.369L350.143 218.822C349.58 219.463 348.592 219.495 347.988 218.892L340.837 211.741C339.868 210.772 338.211 211.513 338.308 212.881C340.238 240.067 342.52 288.657 338.019 293.158C332.108 299.069 253.044 298.33 247.133 293.158C242.656 289.241 244.89 240.867 246.813 213.36C246.912 211.94 245.142 211.22 244.21 212.295L238.583 218.788C238.015 219.443 237.009 219.471 236.405 218.849L214.6 196.362C214.169 195.917 214.056 195.256 214.338 194.706C217.679 188.201 226.261 175.467 237.527 165.327C248.689 155.282 264.24 150.154 272.991 149.197C273.808 149.108 274.504 149.744 274.692 150.543C275.911 155.725 282.008 163.849 292.207 163.849Z" fill="#F4AD5E"/>
<path d="M371.27 290.941C371.27 306.857 358.368 319.759 342.452 319.759C326.537 319.759 313.635 306.857 313.635 290.941C313.635 275.026 326.537 262.124 342.452 262.124C358.368 262.124 371.27 275.026 371.27 290.941Z" fill="white"/>
<path fill-rule="evenodd" clip-rule="evenodd" d="M342.452 263.602C327.353 263.602 315.112 275.842 315.112 290.941C315.112 306.04 327.353 318.281 342.452 318.281C357.551 318.281 369.792 306.04 369.792 290.941C369.792 275.842 357.551 263.602 342.452 263.602ZM312.157 290.941C312.157 274.21 325.72 260.646 342.452 260.646C359.184 260.646 372.747 274.21 372.747 290.941C372.747 307.673 359.184 321.236 342.452 321.236C325.72 321.236 312.157 307.673 312.157 290.941Z" fill="#032068"/>
<path d="M347.365 286.131H357.969V295.398H347.365V307.936H337.57V295.398H326.935V286.131H337.57V273.946H347.365V286.131Z" fill="#032068"/>
<path d="M243.205 54.8927L235.517 40.4771H345.231L336.192 55.5415C333.522 59.9928 328.711 62.7164 323.52 62.7164H256.245C250.787 62.7164 245.774 59.7083 243.205 54.8927Z" fill="#032068"/>
<path d="M406.075 49.3729H173.162C180.871 41.6632 188.235 40.23 190.953 40.4771H388.283C397.772 40.4771 404.098 46.4076 406.075 49.3729Z" fill="#032068"/>
<path d="M405.962 462.007H174.787C182.799 469.841 187.429 471.298 190.254 471.046H390.495C400.356 471.046 403.908 465.02 405.962 462.007Z" fill="#032068"/>
<path d="M198.961 99.2793C198.961 96.8307 200.946 94.8458 203.394 94.8458H279.141C281.589 94.8458 283.574 96.8307 283.574 99.2793V99.4781C283.574 101.927 281.589 103.912 279.141 103.912H203.394C200.946 103.912 198.961 101.927 198.961 99.4781V99.2793Z" fill="#F4AD5E"/>
<path d="M267.822 381.827C267.822 379.378 269.807 377.393 272.256 377.393H348.002C350.451 377.393 352.436 379.378 352.436 381.827V382.026C352.436 384.474 350.451 386.459 348.002 386.459H272.256C269.807 386.459 267.822 384.474 267.822 382.026V381.827Z" fill="#E7E8FF"/>
<path d="M198.961 424.684C198.961 422.235 200.946 420.25 203.394 420.25H279.141C281.589 420.25 283.574 422.235 283.574 424.684V424.882C283.574 427.331 281.589 429.316 279.141 429.316H203.394C200.946 429.316 198.961 427.331 198.961 424.882V424.684Z" fill="#E7E8FF"/>
<path fill-rule="evenodd" clip-rule="evenodd" d="M392.33 61.6047V73.6923H389.375V61.6047H392.33Z" fill="#032068"/>
<path fill-rule="evenodd" clip-rule="evenodd" d="M384.775 63.1157V73.6923H381.82V63.1157H384.775Z" fill="#032068"/>
<path fill-rule="evenodd" clip-rule="evenodd" d="M377.221 66.1376V73.6923H374.265V66.1376H377.221Z" fill="#032068"/>
<path fill-rule="evenodd" clip-rule="evenodd" d="M369.666 69.1595V73.6923H366.71V69.1595H369.666Z" fill="#032068"/>
<path d="M201.321 342.665C201.321 341.441 202.313 340.448 203.538 340.448H377.92C379.144 340.448 380.137 341.441 380.137 342.665C380.137 343.889 379.144 344.882 377.92 344.882H203.538C202.313 344.882 201.321 343.889 201.321 342.665Z" fill="#E7E8FF"/>
<path d="M201.321 122.47C201.321 121.246 202.313 120.254 203.538 120.254H377.92C379.144 120.254 380.137 121.246 380.137 122.47C380.137 123.695 379.144 124.687 377.92 124.687H203.538C202.313 124.687 201.321 123.695 201.321 122.47Z" fill="#E7E8FF"/>
<path d="M110.374 238.256L106.655 257.582C108.39 259.564 113.943 263.677 122.273 264.272C130.603 264.867 138.139 261.051 140.866 259.069L138.635 241.23C151.278 234.54 146.816 209.268 140.866 200.348C134.916 191.428 110.374 189.942 104.424 210.754C99.6639 227.404 106.407 236.027 110.374 238.256Z" fill="#EFCB96"/>
<path d="M304.844 305.971L297.568 310.323L306.431 326.523C315.363 322.016 320.795 326.517 330.38 318.277C338.049 311.685 332.621 302.933 328.948 299.381C333.619 296.941 343.039 291.455 343.346 289.022C343.73 285.981 340.109 282.981 338.184 283.828C336.644 284.506 325.915 290.761 320.743 293.803C318.895 293.086 314.512 292.182 311.771 294.307C309.03 296.433 306.011 302.969 304.844 305.971Z" fill="#EFCB96"/>
<path d="M56.0816 278.395C76.9059 256.988 102.193 257.583 125.992 257.583C178.053 257.583 214.495 308.871 224.907 308.127C235.319 307.384 294.746 298.33 298.465 298.33C302.183 298.33 313.339 319.886 312.596 330.292C311.852 340.699 259.862 374.281 245.731 380.228C234.427 384.985 209.289 378.246 198.133 374.281C199.125 398.811 199.918 449.504 195.158 456.045C189.208 464.221 182.515 467.195 145.329 470.911C108.142 474.628 41.2071 467.938 36.7448 464.221C32.2824 460.505 15.9205 387.661 16.6642 374.281C17.4079 360.902 30.0512 305.154 56.0816 278.395Z" fill="#F4AD5E"/>
<path d="M262.767 370.431C236.737 365.971 215.238 372.299 208.545 377.255C215.238 379.484 229.002 383.364 239.712 381.58C250.421 379.796 256.817 375.634 262.767 370.431Z" fill="#032068"/>
<path d="M21.1265 405.5C29.4562 378.741 24.5972 359.167 21.1265 352.725C19.887 356.194 17.2591 365.362 16.6642 374.281C16.0692 383.201 19.3912 398.81 21.1265 405.5Z" fill="#032068"/>
<path d="M42.6944 328.94C32.5798 372.349 35.0093 437.214 37.4884 464.221L42.6948 465.708C37.9349 390.188 40.7113 343.063 42.6944 328.94Z" fill="#032068"/>
<path d="M160.203 351.239C168.533 359.564 188.96 370.069 198.133 374.281V384.688C189.803 381.714 169.376 361.15 160.203 351.239Z" fill="#032068"/>
<path d="M118.554 247.176H108.886C107.15 246.185 101.895 240.04 94.7549 223.39C87.6152 206.74 95.7466 197.623 100.705 195.145C114.835 170.616 153.509 177.306 154.997 184.739C156.484 192.172 149.791 198.118 142.353 201.091C134.916 204.065 132.685 213.727 131.197 219.674C129.71 225.62 130.454 223.39 126.735 219.674C123.016 215.957 117.067 215.957 115.579 221.904C114.389 226.661 120.042 227.85 123.016 227.85L118.554 247.176Z" fill="#032068"/>
</svg>
