<svg width="512" height="512" viewBox="0 0 512 512" fill="none" xmlns="http://www.w3.org/2000/svg">
<path d="M388.338 166.147C368.173 169.116 325.076 137.192 306.048 120.858C297.893 95.6155 379.441 128.283 400.94 140.161C422.44 152.04 413.543 162.434 388.338 166.147Z" fill="#E7E8FF"/>
<path d="M20.333 336.213C11.6864 359.674 17.6912 388.237 27.7815 413.088C40.7507 445.029 74.5877 460.892 109.019 460.892H336.064C389.519 460.892 439.137 397.815 467.024 352.144C499.59 298.809 478.11 244.088 455.937 211.533C433.764 178.977 381.102 207.377 331.906 178.977C282.709 150.578 291.717 136.032 250.142 118.023C195.821 94.4919 77.8446 93.3882 77.8446 219.152C77.8446 271.909 39.7345 283.57 20.333 336.213Z" fill="#E7E8FF"/>
<path d="M286.69 92.2928C286.69 88.154 290.038 84.7988 294.168 84.7988H486.493C490.623 84.7988 493.97 88.154 493.97 92.2928V451.546C493.97 455.684 490.623 459.04 486.493 459.04H294.168C290.038 459.04 286.69 455.684 286.69 451.546V92.2928Z" fill="#032068"/>
<path fill-rule="evenodd" clip-rule="evenodd" d="M284.839 91.9558C284.839 86.9799 288.87 82.9462 293.843 82.9462H486.818C491.79 82.9462 495.821 86.9799 495.821 91.9558V451.883C495.821 456.859 491.79 460.892 486.818 460.892H293.843C288.87 460.892 284.839 456.859 284.839 451.883V91.9558ZM293.843 85.9494C290.528 85.9494 287.84 88.6385 287.84 91.9558V451.883C287.84 455.2 290.528 457.889 293.843 457.889H486.818C490.133 457.889 492.82 455.2 492.82 451.883V91.9558C492.82 88.6385 490.133 85.9494 486.818 85.9494H293.843Z" fill="#032068"/>
<path d="M286.69 105.256C286.69 101.12 290.038 97.7676 294.168 97.7676H486.493C490.623 97.7676 493.97 101.12 493.97 105.256V451.552C493.97 455.687 490.623 459.04 486.493 459.04H294.168C290.038 459.04 286.69 455.687 286.69 451.552V105.256Z" fill="white"/>
<path fill-rule="evenodd" clip-rule="evenodd" d="M284.839 104.918C284.839 99.9458 288.87 95.9149 293.843 95.9149H486.818C491.79 95.9149 495.821 99.9458 495.821 104.918V451.889C495.821 456.861 491.79 460.892 486.818 460.892H293.843C288.87 460.892 284.839 456.861 284.839 451.889V104.918ZM293.843 98.916C290.528 98.916 287.84 101.603 287.84 104.918V451.889C287.84 455.204 290.528 457.891 293.843 457.891H486.818C490.133 457.891 492.82 455.204 492.82 451.889V104.918C492.82 101.603 490.133 98.916 486.818 98.916H293.843Z" fill="#032068"/>
<path d="M403.285 131.919C403.285 129.429 405.341 127.41 407.877 127.41H450.514C453.05 127.41 455.105 129.429 455.105 131.919V324.844C455.105 327.334 453.05 329.352 450.514 329.352H407.877C405.341 329.352 403.285 327.334 403.285 324.844V131.919Z" fill="#F4AD5E"/>
<path d="M403.285 223.518L455.105 157.053V168.401L403.285 234.866V223.518Z" fill="white"/>
<path d="M403.285 253.28L455.105 188.549V214.599L403.285 279.33L403.285 253.28Z" fill="white"/>
<path d="M47.5369 364.455C34.5445 389.543 55.9064 435.44 69.3638 457.264C70.1794 458.587 71.6285 459.374 73.1824 459.374H93.8075C96.5753 459.374 98.698 456.876 98.273 454.141C84.9842 368.615 52.0761 357.078 47.5369 364.455Z" fill="white"/>
<path fill-rule="evenodd" clip-rule="evenodd" d="M48.855 365.211C42.6919 377.179 44.6079 394.376 49.9811 411.632C55.3325 428.819 63.9749 445.632 70.656 456.467C71.1879 457.33 72.1411 457.857 73.1827 457.857H93.8077C95.636 457.857 97.0567 456.197 96.7734 454.374C90.152 411.759 78.6712 387.791 68.454 375.426C63.3403 369.238 58.5999 366.023 55.0079 364.761C51.3241 363.467 49.4326 364.336 48.855 365.211ZM70.7942 373.492C81.488 386.434 93.1056 410.996 99.7731 453.908C100.34 457.555 97.5149 460.892 93.8077 460.892H73.1827C71.1163 460.892 69.1715 459.843 68.0721 458.061C61.2957 447.071 52.5285 430.025 47.0827 412.535C41.6674 395.143 39.3961 376.875 46.1893 363.757L46.2151 363.707L46.2444 363.659C47.9679 360.858 51.891 360.449 56.0138 361.897C60.284 363.397 65.4524 367.028 70.7942 373.492Z" fill="#032068"/>
<path d="M86.5805 316.016C57.2399 333.089 70.7307 413.957 81.9314 455.484C82.4628 457.454 84.2529 458.796 86.2934 458.796H101.636C103.827 458.796 105.713 457.22 106.098 455.063C120.597 373.884 108.69 308.569 87.2468 315.713C87.0192 315.789 86.7878 315.896 86.5805 316.016Z" fill="#032068"/>
<path d="M157.505 369.664C126.721 371.831 101.993 423.228 91.6858 453.518C90.6994 456.416 92.8855 459.374 95.9473 459.374H112.579C113.564 459.374 114.519 459.062 115.298 458.458C151.686 430.257 176.398 369.664 157.505 369.664Z" fill="white"/>
<path fill-rule="evenodd" clip-rule="evenodd" d="M157.557 371.182C150.294 371.708 143.286 375.136 136.647 380.593C129.992 386.064 123.788 393.51 118.178 401.889C106.957 418.65 98.2498 438.94 93.1227 454.007C92.4827 455.888 93.8901 457.857 95.9474 457.857H112.579C113.243 457.857 113.867 457.647 114.368 457.259C132.32 443.346 147.457 421.37 155.747 402.865C159.898 393.597 162.263 385.35 162.481 379.515C162.59 376.584 162.149 374.462 161.318 373.122C160.564 371.905 159.409 371.195 157.557 371.182ZM158.517 404.106C150.077 422.948 134.664 445.369 116.228 459.658C115.172 460.477 113.886 460.892 112.579 460.892H95.9474C91.8809 460.892 88.9161 456.945 90.2488 453.029C95.4291 437.806 104.24 417.252 115.655 400.201C121.364 391.674 127.758 383.971 134.72 378.248C141.681 372.526 149.289 368.721 157.399 368.149L157.452 368.146H157.505C160.346 368.146 162.537 369.327 163.898 371.523C165.19 373.606 165.634 376.438 165.515 379.629C165.275 386.036 162.73 394.7 158.517 404.106Z" fill="#032068"/>
<path fill-rule="evenodd" clip-rule="evenodd" d="M58.0718 376.363C61.7665 382.073 65.9051 391.499 69.9478 402.114C72.5739 409.009 75.1767 416.453 77.6093 423.789L81.3978 412.028L84.2873 412.959L79.2175 428.698C82.9815 440.323 86.2293 451.31 88.3565 458.968L85.4315 459.781C84.4444 456.227 83.2137 451.949 81.8007 447.22L71.6874 441.602L73.1616 438.948L80.542 443.048C79.2025 438.65 77.7338 433.96 76.1786 429.168C73.4399 420.727 70.4357 411.978 67.3988 403.953L52.9868 400.661L53.6628 397.702L66.0877 400.539C62.3922 391.067 58.7318 382.971 55.5231 378.012L58.0718 376.363Z" fill="#032068"/>
<path fill-rule="evenodd" clip-rule="evenodd" d="M92.0671 353.86C91.5443 342.511 90.9063 333.629 90.1225 329.448L87.1388 330.008C87.9672 334.426 88.6584 344.752 89.2163 358.151C89.5318 365.731 89.8035 374.252 90.0355 383.17L79.883 372.66L77.6997 374.77L90.1481 387.656C90.3647 396.595 90.5432 405.83 90.6875 414.833C90.9528 431.374 91.1031 447.127 91.1642 458.804L94.1999 458.788C94.1394 447.226 93.9915 431.675 93.7314 415.317L103.721 402.426L101.322 400.567L93.6512 410.464C93.5171 402.638 93.3571 394.7 93.1685 386.99C92.9211 376.871 92.6243 367.142 92.2721 358.576L100.831 347.437L98.4239 345.588L92.0671 353.86Z" fill="white"/>
<path fill-rule="evenodd" clip-rule="evenodd" d="M139.212 396.565C145.103 389.167 150.716 383.134 155.517 379.563L153.706 377.127C148.036 381.343 141.512 388.601 134.89 397.154C131.788 401.161 128.649 405.473 125.547 409.924V401.496H122.512V414.342C118.418 420.379 114.433 426.573 110.735 432.529C104.543 442.502 99.1526 451.821 95.4033 458.643L98.0638 460.105C101.709 453.472 106.927 444.445 112.929 434.752L127.007 433.101L126.653 430.085L114.985 431.454C118.263 426.234 121.736 420.884 125.285 415.662C129.1 410.048 132.999 404.588 136.836 399.601H150.56V396.565H139.212Z" fill="#032068"/>
<path d="M145.551 461L147.157 444.941L329.431 430.487L332.643 461H145.551Z" fill="#032068"/>
<path d="M131.098 216.898C143.304 207.262 204.168 204.05 217.016 212.08C186.77 245.269 111.506 311.648 107.009 302.012C101.389 289.967 115.842 228.942 131.098 216.898Z" fill="#032068"/>
<path d="M142.339 413.625C140.734 421.119 138.485 433.86 142.339 444.138C149.927 464.371 313.809 454.708 331.037 440.926C340.672 433.217 335.052 410.413 331.037 397.565C339.066 405.595 361.55 413.625 375.2 397.565C388.85 381.506 370.382 313.254 339.066 263.47C314.014 223.643 272.955 213.686 255.558 213.686C254.487 217.701 248.331 225.73 232.272 225.73C216.212 225.73 208.451 217.701 206.577 213.686C182.488 215.292 131.901 228.139 105.402 298.801C84.2564 355.189 83.7229 395.157 94.1615 413.625C102.512 428.399 129.76 419.781 142.339 413.625Z" fill="#F4AD5E"/>
<path d="M177.67 322.89L124.674 341.358L164.823 319.678L174.458 295.589L172.049 319.678L177.67 322.89Z" fill="#032068"/>
<path d="M194.532 347.782C196.1 292.909 180.322 243.903 173.345 223.178C173.073 222.368 173.526 221.508 174.343 221.257L181.961 218.913C182.713 218.681 183.51 219.042 183.797 219.775C195.648 250.033 206.543 313.705 204.168 345.373C198.033 381.414 159.431 418.432 142.216 430.549C141.233 431.241 139.942 430.51 140.012 429.311C140.25 425.229 140.954 421.987 141.414 420.439C141.491 420.181 141.648 419.951 141.849 419.773C183.985 382.661 194.532 356.325 194.532 347.782Z" fill="#032068"/>
<path d="M192.123 358.22C179.276 380.061 153.581 404.257 142.339 413.625L140.733 424.063C171.567 397.084 187.841 368.926 192.123 358.22Z" fill="#032068"/>
<path d="M289.896 321.479C280.037 289.737 272.374 240.395 269.48 217.481C269.347 216.425 270.317 215.569 271.35 215.827L277.809 217.442C278.43 217.597 278.888 218.142 278.954 218.778C285.05 278.308 293.27 302.882 298.868 323.68C299.207 324.939 297.901 325.994 296.735 325.411L290.662 322.375C290.293 322.191 290.018 321.872 289.896 321.479Z" fill="#032068"/>
<path d="M334.069 424.069C324.225 414.078 311.697 392.493 304.329 378.511C303.579 377.088 305.265 375.685 306.543 376.663L314.666 382.874C314.87 383.03 315.03 383.235 315.136 383.47C319.573 393.333 328.697 402.448 333.087 406.103C333.321 406.298 333.493 406.552 333.577 406.845C334.988 411.76 335.892 418.362 336.355 422.945C336.489 424.273 335.006 425.02 334.069 424.069Z" fill="#032068"/>
<path d="M181.685 325.298L191.32 348.585C194.532 347.782 199.35 346.979 205.774 343.767C220.316 336.496 219.424 323.693 213.001 314.057C207.862 306.348 198.279 311.38 192.926 315.663L192.927 304.421C185.861 307.633 180.882 319.945 181.685 325.298Z" fill="#EFCB96"/>
<path d="M303.323 326.453L290.945 345.71C288.204 344.473 284.027 342.976 278.804 339.067C266.981 330.216 269.848 318.916 277.148 311.341C282.988 305.282 292.556 310.969 296.649 315.662L294.101 306.027C303.322 310.042 304.906 321.798 303.323 326.453Z" fill="#EFCB96"/>
<path d="M290.888 351.796C299.881 369.14 321.401 389.536 331.037 397.566L333.445 406.398C309.035 389.696 294.903 363.038 290.888 351.796Z" fill="#032068"/>
<path d="M339.035 334.907C339.048 334.917 339.059 334.926 339.067 334.934C339.056 334.925 339.045 334.916 339.035 334.907C337.732 333.906 311.709 322.881 306.145 322.087L309.357 317.269L302.933 291.574L315.781 318.875C321.655 322.613 334.509 331.04 339.035 334.907Z" fill="#032068"/>
<path d="M213 193.612L208.183 220.11C232.593 236.812 248.332 228.139 253.15 221.716L246.726 199.233C255.559 192.006 257.968 179.962 253.15 158.281C246.726 134.996 229.595 137.94 219.424 141.419C195.014 153.624 205.238 182.37 213 193.612Z" fill="#EFCB96"/>
<path d="M200.154 164.705C199.582 181.294 205.973 191.048 211.159 194.876C212.009 195.503 213.136 194.901 213.474 193.901C213.797 192.942 214.212 191.969 214.607 189.597C215.25 185.743 214.34 184.779 213.804 184.779C201.76 180.764 210.592 163.902 213.001 164.705C215.41 165.508 215.41 175.947 217.819 176.75C220.228 177.553 221.031 159.887 223.44 157.478C225.849 155.069 233.076 155.069 243.514 157.478C253.953 159.887 267.928 160.542 261.179 137.404C255.559 118.132 225.849 130.98 216.213 133.389C206.578 135.798 200.957 141.419 200.154 164.705Z" fill="#032068"/>
<path d="M225.848 201.641C236.769 203.569 244.316 200.838 246.725 199.233L249.134 207.262C234.36 209.832 227.454 204.586 225.848 201.641Z" fill="#032068"/>
<path d="M123.068 420.049C113.433 399.493 95.4998 390.606 87.7378 388.733C88.2731 395.96 90.9497 411.858 97.3734 417.64C103.797 423.421 117.18 421.655 123.068 420.049Z" fill="#032068"/>
<path d="M337.964 402.455C352.097 387.038 372.524 382.041 380.018 381.506C380.286 386.324 378.483 398.308 367.563 404.732C356.642 411.155 342.515 405.667 337.964 402.455Z" fill="#032068"/>
<path d="M192.909 56.2428L187.902 62.7296C187.597 63.1243 187.1 63.3142 186.613 63.2219L180.424 62.0489C179.093 61.7966 178.29 63.4893 179.317 64.382L184.181 68.6078C184.536 68.9164 184.704 69.3916 184.623 69.8578L183.402 76.8257C183.173 78.1356 184.767 78.9464 185.67 77.9789L190.667 72.6241C190.96 72.3097 191.385 72.1578 191.809 72.2162L197.591 73.0127C198.894 73.1921 199.632 71.5501 198.641 70.6758L194.341 66.8799C193.995 66.5751 193.83 66.1114 193.905 65.6539L195.26 57.2838C195.482 55.9149 193.753 55.1493 192.909 56.2428Z" fill="#F4AD5E"/>
<path d="M58.2294 230.836L54.7242 235.47C54.5109 235.752 54.1631 235.887 53.8224 235.822L49.4901 234.984C48.558 234.803 47.9957 236.013 48.7151 236.65L52.12 239.669C52.3686 239.889 52.486 240.228 52.4288 240.561L51.5746 245.539C51.414 246.474 52.5302 247.053 53.1621 246.362L56.6597 242.537C56.865 242.313 57.1628 242.204 57.4592 242.246L61.507 242.815C62.4188 242.943 62.9352 241.77 62.2419 241.146L59.2316 238.434C58.9899 238.217 58.8744 237.885 58.9262 237.559L59.8754 231.58C60.0306 230.602 58.8202 230.055 58.2294 230.836Z" fill="#F4AD5E"/>
<path d="M132.355 125.856C132.355 152.907 110.426 174.837 83.3741 174.837C56.3226 174.837 34.3931 152.907 34.3931 125.856C34.3931 98.8042 56.3226 76.8747 83.3741 76.8747C110.426 76.8747 132.355 98.8042 132.355 125.856Z" fill="white"/>
<path fill-rule="evenodd" clip-rule="evenodd" d="M83.3739 78.3926C57.1607 78.3926 35.9107 99.6425 35.9107 125.856C35.9107 152.069 57.1607 173.319 83.3739 173.319C109.587 173.319 130.837 152.069 130.837 125.856C130.837 99.6425 109.587 78.3926 83.3739 78.3926ZM32.875 125.856C32.875 97.966 55.4841 75.3568 83.3739 75.3568C111.264 75.3568 133.873 97.966 133.873 125.856C133.873 153.745 111.264 176.355 83.3739 176.355C55.4841 176.355 32.875 153.745 32.875 125.856Z" fill="#032068"/>
<path d="M93.8122 125.856C93.8122 131.621 89.1387 136.294 83.3736 136.294C77.6086 136.294 72.9351 131.621 72.9351 125.856C72.9351 120.091 77.6086 115.417 83.3736 115.417C89.1387 115.417 93.8122 120.091 93.8122 125.856Z" fill="#F4AD5E"/>
<path fill-rule="evenodd" clip-rule="evenodd" d="M82.1557 84.7701L85.7441 125.163L67.6789 146.9L65.3442 144.96L82.6096 124.185L79.1319 85.0387L82.1557 84.7701Z" fill="#032068"/>
</svg>
