<svg width="512" height="512" viewBox="0 0 512 512" fill="none" xmlns="http://www.w3.org/2000/svg">
<path d="M369.898 440.356H252.873H134.331C108.679 440.356 83.9695 430.682 65.13 413.264L39.6497 389.705C4.45131 357.162 9.36788 299.867 49.0349 272.956C75.7344 254.843 87.6804 220.98 77.8767 190.232C60.2682 135.005 111.148 82.21 166.881 98.0601C182.313 102.449 198.763 101.603 213.663 95.6537L286.717 66.4875C356.117 38.7798 430.363 93.9429 423.914 168.422L423.523 172.941C420.972 202.404 432.795 231.287 455.27 250.495C487.289 277.861 496.521 323.549 477.642 361.21L468.484 379.48C449.778 416.796 411.624 440.356 369.898 440.356Z" fill="#E7E8FF"/>
<path fill-rule="evenodd" clip-rule="evenodd" d="M226.521 319.738C227.104 318.788 228.348 318.475 229.301 319.04L234.953 322.391C235.906 322.956 236.206 324.184 235.623 325.135C235.146 325.913 235.261 326.899 235.838 327.594C237.457 329.542 238.669 331.759 239.443 334.115C239.724 334.975 240.501 335.597 241.416 335.608C242.535 335.622 243.418 336.531 243.39 337.639L243.223 344.193C243.195 345.299 242.266 346.184 241.149 346.17C240.235 346.159 239.429 346.76 239.103 347.609C238.659 348.767 238.101 349.902 237.428 351C236.755 352.098 235.995 353.113 235.161 354.04C234.55 354.72 234.386 355.702 234.823 356.491C235.357 357.456 234.994 358.677 234.013 359.218L228.198 362.424C227.215 362.965 225.985 362.621 225.45 361.655C225.012 360.864 224.091 360.479 223.186 360.635C220.706 361.063 218.147 361.044 215.639 360.545C214.745 360.367 213.805 360.728 213.328 361.506C212.745 362.457 211.501 362.769 210.548 362.205L204.896 358.854C203.944 358.289 203.644 357.06 204.226 356.11C204.703 355.331 204.589 354.346 204.011 353.651C202.393 351.703 201.181 349.486 200.407 347.13C200.125 346.27 199.349 345.648 198.433 345.637C197.315 345.623 196.431 344.714 196.459 343.606L196.626 337.053C196.655 335.946 197.583 335.061 198.7 335.075C199.614 335.086 200.42 334.485 200.747 333.635C201.191 332.478 201.748 331.343 202.421 330.245C203.095 329.147 203.855 328.132 204.688 327.205C205.3 326.525 205.464 325.543 205.027 324.753C204.493 323.788 204.856 322.568 205.837 322.026L211.652 318.821C212.635 318.28 213.865 318.624 214.4 319.59C214.837 320.381 215.759 320.766 216.663 320.61C219.143 320.182 221.703 320.201 224.21 320.7C225.104 320.877 226.044 320.517 226.521 319.738ZM229.824 346.491C226.48 351.945 219.339 353.739 213.872 350.498C208.405 347.257 206.683 340.208 210.027 334.754C213.37 329.3 220.512 327.506 225.978 330.747C231.445 333.989 233.167 341.038 229.824 346.491Z" fill="white"/>
<path fill-rule="evenodd" clip-rule="evenodd" d="M180.28 347.591C181.267 345.943 183.375 345.401 184.989 346.38L194.562 352.193C196.176 353.173 196.684 355.304 195.697 356.952C194.889 358.303 195.083 360.013 196.062 361.218C198.804 364.597 200.857 368.443 202.167 372.531C202.644 374.021 203.959 375.101 205.51 375.12C207.405 375.145 208.901 376.722 208.854 378.643L208.57 390.012C208.523 391.931 206.95 393.466 205.058 393.442C203.51 393.422 202.144 394.465 201.592 395.939C200.839 397.947 199.895 399.916 198.755 401.821C197.614 403.726 196.326 405.486 194.915 407.093C193.879 408.274 193.601 409.977 194.341 411.347C195.246 413.021 194.632 415.139 192.969 416.077L183.12 421.637C181.455 422.577 179.371 421.98 178.466 420.304C177.724 418.932 176.163 418.264 174.631 418.535C170.43 419.277 166.094 419.244 161.847 418.379C160.332 418.07 158.74 418.696 157.932 420.046C156.945 421.695 154.837 422.237 153.223 421.257L143.65 415.444C142.036 414.464 141.528 412.334 142.515 410.685C143.323 409.334 143.129 407.624 142.15 406.419C139.409 403.04 137.356 399.194 136.046 395.107C135.568 393.616 134.253 392.537 132.702 392.517C130.808 392.493 129.311 390.916 129.358 388.994L129.642 377.626C129.69 375.707 131.262 374.171 133.154 374.195C134.703 374.215 136.068 373.173 136.621 371.698C137.374 369.691 138.317 367.722 139.458 365.817C140.598 363.912 141.886 362.152 143.298 360.544C144.334 359.364 144.612 357.661 143.871 356.291C142.967 354.617 143.581 352.499 145.244 351.56L155.093 346C156.758 345.061 158.841 345.658 159.747 347.334C160.489 348.706 162.05 349.373 163.582 349.103C167.783 348.361 172.118 348.394 176.365 349.259C177.88 349.567 179.472 348.942 180.28 347.591ZM185.874 394C180.211 403.461 168.113 406.572 158.853 400.95C149.593 395.327 146.677 383.1 152.34 373.639C158.003 364.178 170.1 361.066 179.36 366.689C188.62 372.311 191.537 384.539 185.874 394Z" fill="white"/>
<path d="M110.028 113.424C110.028 108.742 113.823 104.947 118.504 104.947H400.455C405.136 104.947 408.931 108.742 408.931 113.424V315.181C408.931 319.862 405.136 323.657 400.455 323.657H118.504C113.823 323.657 110.028 319.862 110.028 315.181V113.424Z" fill="white"/>
<path fill-rule="evenodd" clip-rule="evenodd" d="M108.757 113.424C108.757 108.041 113.121 103.677 118.504 103.677H400.455C405.838 103.677 410.201 108.041 410.201 113.424V315.181C410.201 320.564 405.838 324.927 400.455 324.927H118.504C113.121 324.927 108.757 320.564 108.757 315.181V113.424ZM118.504 106.218C114.524 106.218 111.298 109.444 111.298 113.424V315.181C111.298 319.16 114.524 322.386 118.504 322.386H400.455C404.434 322.386 407.66 319.16 407.66 315.181V113.424C407.66 109.444 404.434 106.218 400.455 106.218H118.504Z" fill="#032068"/>
<path d="M110.028 113.424C110.028 108.742 113.823 104.947 118.504 104.947H400.455C405.136 104.947 408.931 108.742 408.931 113.424V128.901H110.028V113.424Z" fill="#032068"/>
<path d="M132.008 117.095C132.008 119.97 129.678 122.301 126.802 122.301C123.927 122.301 121.596 119.97 121.596 117.095C121.596 114.219 123.927 111.889 126.802 111.889C129.678 111.889 132.008 114.219 132.008 117.095Z" fill="white"/>
<path d="M149.362 117.095C149.362 119.97 147.032 122.301 144.156 122.301C141.281 122.301 138.95 119.97 138.95 117.095C138.95 114.219 141.281 111.889 144.156 111.889C147.032 111.889 149.362 114.219 149.362 117.095Z" fill="white"/>
<path d="M166.716 117.095C166.716 119.97 164.386 122.301 161.51 122.301C158.635 122.301 156.304 119.97 156.304 117.095C156.304 114.219 158.635 111.889 161.51 111.889C164.386 111.889 166.716 114.219 166.716 117.095Z" fill="white"/>
<path d="M135.907 151.53C135.907 150.1 137.066 148.942 138.495 148.942H163.08C164.51 148.942 165.668 150.1 165.668 151.53C165.668 152.959 164.51 154.118 163.08 154.118H138.495C137.066 154.118 135.907 152.959 135.907 151.53Z" fill="#F4AD5E"/>
<path d="M135.907 291.277C135.907 289.847 137.066 288.689 138.495 288.689H163.08C164.51 288.689 165.668 289.847 165.668 291.277C165.668 292.706 164.51 293.864 163.08 293.864H138.495C137.066 293.864 135.907 292.706 135.907 291.277Z" fill="#F4AD5E"/>
<path d="M188.958 291.277C188.958 289.847 190.117 288.689 191.546 288.689H216.132C217.561 288.689 218.719 289.847 218.719 291.277C218.719 292.706 217.561 293.864 216.132 293.864H191.546C190.117 293.864 188.958 292.706 188.958 291.277Z" fill="#F4AD5E"/>
<path d="M242.01 291.277C242.01 289.847 243.168 288.689 244.598 288.689H269.183C270.612 288.689 271.771 289.847 271.771 291.277C271.771 292.706 270.612 293.864 269.183 293.864H244.598C243.168 293.864 242.01 292.706 242.01 291.277Z" fill="#F4AD5E"/>
<path d="M295.064 291.277C295.064 289.847 296.223 288.689 297.652 288.689H322.237C323.667 288.689 324.825 289.847 324.825 291.277C324.825 292.706 323.667 293.864 322.237 293.864H297.652C296.223 293.864 295.064 292.706 295.064 291.277Z" fill="#F4AD5E"/>
<path d="M135.907 187.003C135.907 185.277 137.306 183.878 139.032 183.878H182.774C184.499 183.878 185.898 185.277 185.898 187.003C185.898 188.728 184.499 190.127 182.774 190.127H139.032C137.306 190.127 135.907 188.728 135.907 187.003Z" fill="#F4AD5E"/>
<path d="M135.907 210.956C135.907 209.806 136.84 208.874 137.99 208.874H246.304C247.454 208.874 248.386 209.806 248.386 210.956C248.386 212.107 247.454 213.039 246.304 213.039H137.99C136.84 213.039 135.907 212.107 135.907 210.956Z" fill="#E7E8FF"/>
<path d="M135.907 233.869C135.907 232.719 136.84 231.786 137.99 231.786H246.304C247.454 231.786 248.386 232.719 248.386 233.869C248.386 235.019 247.454 235.952 246.304 235.952H137.99C136.84 235.952 135.907 235.019 135.907 233.869Z" fill="#E7E8FF"/>
<path d="M135.907 256.781C135.907 255.631 136.84 254.698 137.99 254.698H246.304C247.454 254.698 248.386 255.631 248.386 256.781C248.386 257.932 247.454 258.864 246.304 258.864H137.99C136.84 258.864 135.907 257.932 135.907 256.781Z" fill="#E7E8FF"/>
<path d="M284.71 223.944C284.71 222.541 285.848 221.403 287.251 221.403H296.402C297.806 221.403 298.943 222.541 298.943 223.944V251.211C298.943 252.614 297.806 253.752 296.402 253.752H287.251C285.848 253.752 284.71 252.614 284.71 251.211V223.944Z" fill="#E7E8FF"/>
<path d="M308.002 216.18C308.002 214.777 309.14 213.639 310.543 213.639H319.695C321.098 213.639 322.236 214.777 322.236 216.18V251.211C322.236 252.614 321.098 253.752 319.695 253.752H310.543C309.14 253.752 308.002 252.614 308.002 251.211V216.18Z" fill="#E7E8FF"/>
<path d="M331.295 205.829C331.295 204.425 332.433 203.288 333.836 203.288H342.987C344.391 203.288 345.528 204.425 345.528 205.829V251.211C345.528 252.614 344.391 253.752 342.987 253.752H333.836C332.433 253.752 331.295 252.614 331.295 251.211V205.829Z" fill="#E7E8FF"/>
<path d="M354.584 196.771C354.584 195.368 355.722 194.23 357.125 194.23H366.277C367.68 194.23 368.818 195.368 368.818 196.771V251.211C368.818 252.614 367.68 253.752 366.277 253.752H357.125C355.722 253.752 354.584 252.614 354.584 251.211V196.771Z" fill="#F4AD5E"/>
<path fill-rule="evenodd" clip-rule="evenodd" d="M269.855 262.233V191.642H272.396V262.233C272.396 263.636 273.534 264.774 274.937 264.774H380.465V267.315H274.937C272.13 267.315 269.855 265.04 269.855 262.233Z" fill="#032068"/>
<path fill-rule="evenodd" clip-rule="evenodd" d="M340.333 191.899C337.607 192.295 335.354 192.722 333.762 193.446C332.179 194.165 330.407 195.578 328.404 197.379C327.683 198.027 326.925 198.732 326.146 199.457C324.836 200.676 323.463 201.954 322.091 203.123C317.753 206.818 312.543 210.238 306.955 208.375C303.439 207.203 298.514 207.711 293.6 208.967C288.74 210.208 284.134 212.114 281.399 213.482L280.263 211.209C283.134 209.773 287.91 207.797 292.971 206.505C297.977 205.226 303.511 204.549 307.759 205.964C311.875 207.337 316.047 204.934 320.443 201.188C321.787 200.044 323.068 198.851 324.339 197.668C325.128 196.933 325.912 196.202 326.705 195.489C328.706 193.691 330.734 192.031 332.71 191.133C334.677 190.239 337.276 189.776 339.968 189.384C340.656 189.284 341.353 189.188 342.057 189.091C344.178 188.8 346.356 188.501 348.504 188.053C354.246 186.857 359.151 184.717 361.166 179.536L363.534 180.457C361.02 186.922 354.926 189.311 349.023 190.541C346.781 191.008 344.477 191.324 342.337 191.618C341.65 191.713 340.98 191.805 340.333 191.899Z" fill="#032068"/>
<path d="M295.063 207.169C295.063 208.599 293.904 209.757 292.475 209.757C291.046 209.757 289.887 208.599 289.887 207.169C289.887 205.74 291.046 204.582 292.475 204.582C293.904 204.582 295.063 205.74 295.063 207.169Z" fill="#F4AD5E"/>
<path d="M318.355 205.876C318.355 207.305 317.197 208.464 315.768 208.464C314.338 208.464 313.18 207.305 313.18 205.876C313.18 204.446 314.338 203.288 315.768 203.288C317.197 203.288 318.355 204.446 318.355 205.876Z" fill="#F4AD5E"/>
<path d="M341.645 190.348C341.645 191.777 340.486 192.936 339.057 192.936C337.628 192.936 336.469 191.777 336.469 190.348C336.469 188.919 337.628 187.76 339.057 187.76C340.486 187.76 341.645 188.919 341.645 190.348Z" fill="#F4AD5E"/>
<path d="M364.938 179.997C364.938 181.426 363.779 182.585 362.35 182.585C360.92 182.585 359.762 181.426 359.762 179.997C359.762 178.567 360.92 177.409 362.35 177.409C363.779 177.409 364.938 178.567 364.938 179.997Z" fill="#F4AD5E"/>
<path d="M107.304 217.805L109.836 229.82V237.409L104.139 242.468L87.0491 240.571V229.188L87.6821 215.908C80.7194 207.054 78.1875 189.98 85.7831 181.126C93.3788 172.273 113.001 171.008 116.799 191.877C119.837 208.572 111.735 216.119 107.304 217.805Z" fill="#EFCB96"/>
<path d="M148.448 451.79L141.964 380.962H51.1862L42.1085 451.79H148.448Z" fill="#032068"/>
<path d="M209.213 248.792C209.213 250.816 207.103 254.273 206.048 255.748L207.314 263.337L216.808 264.602C219.34 261.44 226.936 260.175 228.835 255.116C230.354 251.069 226.092 246.684 223.771 245.63L231.639 234.626C232.56 233.338 232.343 231.56 231.14 230.53C229.865 229.437 227.945 229.578 226.842 230.845L216.176 243.101C216.176 243.522 215.796 243.48 214.277 239.939C212.378 235.512 210.479 237.409 209.213 238.041C207.947 238.674 209.213 246.263 209.213 248.792Z" fill="#EFCB96"/>
<path d="M99.7082 236.144C108.317 236.144 110.469 229.399 110.469 226.026C116.545 226.026 120.525 228.99 121.791 229.833L131.99 258.91L133.889 381.595C112.621 388.171 85.7828 384.335 75.0223 381.595L68.0596 230.453C72.2436 227.793 78.3563 226.631 82.749 226.218C84.8984 226.016 86.7476 227.536 87.846 229.393C89.755 232.62 93.486 236.144 99.7082 236.144Z" fill="white"/>
<path fill-rule="evenodd" clip-rule="evenodd" d="M120.81 230.588L130.817 259.119L132.699 380.727C112.405 386.698 87.1805 383.324 76.1558 380.666L69.2654 231.095C73.1861 228.832 78.7167 227.777 82.8589 227.387C84.3499 227.247 85.8397 228.31 86.8338 229.99C88.8917 233.469 92.9602 237.319 99.7079 237.319C104.366 237.319 107.406 235.471 109.25 233.063C110.697 231.173 111.364 228.997 111.57 227.235C116.226 227.531 119.404 229.636 120.81 230.588ZM122.187 228.683C120.672 227.653 116.552 224.852 110.468 224.852H109.293V226.026C109.293 227.51 108.81 229.773 107.383 231.637C105.998 233.445 103.658 234.97 99.7079 234.97C94.0111 234.97 90.6176 231.771 88.8575 228.795C87.6549 226.762 85.4462 224.785 82.6385 225.049C78.2021 225.466 71.8566 226.647 67.4283 229.462L66.8539 229.827L73.8879 382.518L74.7317 382.732C85.578 385.495 112.666 389.387 134.236 382.716L135.077 382.456L133.162 258.702L122.77 229.074L122.443 228.856C122.368 228.807 122.283 228.749 122.187 228.683Z" fill="#032068"/>
<path d="M121.863 291.795C120.977 276.313 116.156 248.421 112.984 231.794C112.208 224.739 109.553 224.234 118.127 226.696C148.151 235.316 155.417 274.76 164.905 275.352C171.659 275.774 187.971 264.508 198.59 256.351C201.784 253.898 206.319 254.121 209.167 256.967L215.955 263.749C218.034 265.826 218.807 268.891 217.654 271.593C209.811 289.961 187.761 318.953 173.767 325.944C161.614 332.015 151.824 323.414 148.448 318.355C148.659 334.587 148.954 369.2 148.448 377.8C147.815 388.551 148.448 397.404 140.852 398.669C133.256 399.934 118.698 397.404 118.698 394.875C118.698 392.345 123.129 313.928 121.863 291.795Z" fill="#F4AD5E"/>
<path d="M91.4798 291.163C91.0142 279.534 85.1627 248.128 81.5988 230.362C80.7063 225.913 81.0619 225.645 76.3814 226.944C43.5749 236.052 17.5281 292.142 19.954 314.561C21.9795 333.28 36.8332 362.834 44.0069 375.271C43.5849 382.859 43.5005 398.29 46.5388 399.302C50.3366 400.566 83.2512 399.302 85.1501 395.507C87.049 391.713 92.1128 306.972 91.4798 291.163Z" fill="#F4AD5E"/>
<path d="M84.2811 376.698C88.2567 374.983 90.0872 370.372 88.3698 366.4L75.9009 337.563C74.1834 333.591 69.5683 331.762 65.5928 333.478L23.2107 351.77C19.2351 353.486 17.4046 358.097 19.122 362.069L31.5909 390.906C33.3084 394.878 37.9234 396.707 41.899 394.991L84.2811 376.698Z" fill="white"/>
<path fill-rule="evenodd" clip-rule="evenodd" d="M84.7471 377.776C89.3185 375.803 91.4235 370.501 89.4486 365.934L76.9797 337.097C75.0048 332.53 69.698 330.427 65.1266 332.4L22.7444 350.692C18.173 352.665 16.0681 357.967 18.0429 362.535L30.5119 391.371C32.4867 395.939 37.7935 398.042 42.365 396.069L84.7471 377.776ZM87.2907 366.865C88.7507 370.242 87.1946 374.162 83.8149 375.62L41.4328 393.913C38.0531 395.371 34.1298 393.817 32.6698 390.44L20.2008 361.603C18.7408 358.227 20.297 354.307 23.6767 352.848L66.0588 334.556C69.4384 333.097 73.3618 334.652 74.8218 338.029L87.2907 366.865Z" fill="#032068"/>
<path d="M23.1185 291.795C27.1273 298.119 33.246 315.573 25.6504 334.798C21.8525 327.63 16.0292 308.996 23.1185 291.795Z" fill="#032068"/>
<path d="M185.792 316.458C179.674 314.983 164.271 314.055 151.612 322.15C156.676 327.842 170.601 334.671 185.792 316.458Z" fill="#032068"/>
<path d="M145.283 282.941C146.549 294.324 147.815 308.869 148.448 319.62C151.486 323.162 158.998 326.576 162.374 327.841C153.765 318.229 149.081 296.854 145.283 282.941Z" fill="#032068"/>
<path d="M72.4099 379.883C71.9036 378.365 66.7132 373.348 64.1813 371.029C58.9064 370.397 48.7365 371.029 50.2556 378.618C52.1545 388.104 54.0534 395.693 64.1813 392.531C72.2836 390.001 71.3551 384.731 69.878 382.412C70.933 382.202 72.9163 381.401 72.4099 379.883Z" fill="#EFCB96"/>
<path d="M96.708 451.765L102.642 417.407V451.765H96.708Z" fill="white"/>
<path d="M88.3144 203.26L87.6814 214.643L87.5261 227.087C87.2927 227.077 86.5826 226.008 86.3508 226.002C75.0176 225.733 65.5652 231.447 62.2568 234.133C57.826 215.794 73.1233 203.26 73.1233 196.304C73.1233 189.347 76.2882 167.846 97.8092 167.214C113.952 166.739 118.371 179.941 118.686 189.409C118.718 190.372 117.837 191.08 116.932 190.746C112.597 189.148 107.056 184.701 103.76 181.206C102.843 180.234 100.952 180.545 100.355 181.74C98.8316 184.79 96.6028 187.614 95.006 189.544C94.7723 189.826 94.6454 190.178 94.6385 190.544C94.6044 192.337 94.4174 194.77 94.1289 197.173C93.9267 198.858 91.5821 198.852 91.0519 197.24C90.4559 195.426 89.7369 193.692 88.9473 192.509C86.4155 188.715 82.6176 191.877 82.6176 196.304C82.6176 199.845 86.4155 202.417 88.3144 203.26Z" fill="#032068"/>
<path d="M122.495 228.556C119.963 226.026 117.22 213.589 116.165 207.687C115.153 212.746 109.836 216.54 107.304 217.805L109.27 227.087L109.857 225.326C114.921 225.326 120.174 227.502 122.495 228.556Z" fill="#032068"/>
<path d="M52.8182 376.843L61.9881 373.234C65.5065 371.849 67.5337 368.154 66.821 364.444C64.8438 354.15 62.3179 340.631 60.4644 329.805L28.8158 343.651C32.3605 353.263 39.1544 366.628 42.1082 372.109L43.6026 374.161C45.7043 377.049 49.4937 378.151 52.8182 376.843Z" fill="#F4AD5E"/>
<path d="M57.9329 312.031C57.9329 306.466 67.8494 290.108 72.4912 280.412C62.2949 310.7 61.7016 317.814 66.4484 362.868C63.4816 348.048 57.9329 314.687 57.9329 312.031Z" fill="#032068"/>
<path d="M97.3019 217.629C101.574 219.526 105.807 218.419 107.389 217.629L108.576 223.557C102.879 223.557 98.6864 219.605 97.3019 217.629Z" fill="#032068"/>
<path d="M414.432 316.635L416.406 326.998L414.432 337.854C409.333 338.512 398.937 339.828 398.148 339.828C397.358 339.828 391.568 334.893 388.772 332.426L391.733 316.635C383.442 313.872 380.712 301.667 380.383 295.91C378.409 272.223 394.2 269.263 397.161 269.263C400.122 269.263 418.873 269.263 421.341 289.001C423.315 304.792 417.557 314.003 414.432 316.635Z" fill="#EFCB96"/>
<path d="M462.299 439.014H384.825L286.624 438.52C280.547 434.558 278.847 428.164 278.83 422.741C278.817 418.298 282.02 414.723 286.022 412.793C301.924 405.127 326.06 393.264 330.543 390.161C336.958 385.72 342.88 361.54 354.723 342.789C364.197 327.787 382.028 324.366 389.266 324.53C389.924 327.491 392.72 333.413 402.589 333.413C412.459 333.413 416.571 327.491 417.887 324.53C422.986 324.53 437.132 327.294 448.976 338.347C463.77 352.155 470.186 383.702 476.104 412.8L476.117 412.86C480.854 436.152 468.879 439.672 462.299 439.014Z" fill="#F4AD5E"/>
<path d="M429.237 401.017L421.835 370.916L423.316 401.017L389.61 409.238C385.282 410.294 381.235 412.985 380.416 417.363C378.955 425.174 381.869 433.48 385.318 436.547C382.357 432.31 382.357 416.315 385.812 413.847C388.575 411.873 422.822 405.458 439.6 402.498L429.237 401.017Z" fill="#032068"/>
<path d="M355.709 363.021L337.451 439.014H329.556L355.709 363.021Z" fill="#032068"/>
<path d="M409.006 306.766C410.98 318.214 413.776 319.431 414.928 318.609C428.745 309.726 428.412 281.348 419.862 271.73C411.967 262.848 406.045 266.302 389.761 262.354C373.476 258.406 368.048 265.315 371.009 274.197C375.271 286.983 388.774 280.119 392.228 281.599C395.682 283.08 400.124 287.027 402.098 294.923C404.071 302.818 405.058 301.338 406.539 296.896C408.019 292.455 411.967 286.04 414.928 293.936C417.296 300.252 411.967 305.121 409.006 306.766Z" fill="#032068"/>
<path d="M350.775 439.014C350.775 425.591 370.679 421.578 380.384 421.249C380.384 427.96 384.496 435.888 386.799 439.014H350.775Z" fill="#EFCB96"/>
<path d="M254.863 438.107C254.863 426.176 270.635 423.641 279.143 423.348C279.143 429.314 284.426 435.329 286.445 438.107H254.863Z" fill="#EFCB96"/>
<path fill-rule="evenodd" clip-rule="evenodd" d="M477.172 421.202C477.406 430.728 474.065 439.014 463.872 439.014H454.895C457.264 423.223 469.793 413.683 475.715 410.887C475.845 411.525 475.975 412.163 476.104 412.8L476.116 412.86C476.748 415.964 477.082 418.733 477.172 421.202Z" fill="#032068"/>
<path d="M401.204 316.485C396.608 318.017 393.424 317.123 391.828 316.485L390.348 323.393C396.476 322.627 399.927 318.24 401.204 316.485Z" fill="#032068"/>
<path d="M305.648 379.906L327.668 430.211C328.773 432.736 326.935 435.571 324.192 435.571H257.001C255.458 435.571 254.068 434.632 253.485 433.195L233.071 382.89C232.051 380.377 233.889 377.625 236.587 377.625H302.172C303.678 377.625 305.041 378.52 305.648 379.906Z" fill="white"/>
<path fill-rule="evenodd" clip-rule="evenodd" d="M302.172 378.419C303.365 378.419 304.445 379.128 304.926 380.226L326.946 430.531C327.822 432.531 326.365 434.778 324.192 434.778H257.001C255.778 434.778 254.677 434.034 254.215 432.895L233.801 382.59C232.993 380.599 234.449 378.419 236.587 378.419H302.172ZM306.37 379.586C305.637 377.912 303.991 376.832 302.172 376.832H236.587C233.328 376.832 231.109 380.155 232.34 383.19L252.754 433.495C253.459 435.23 255.137 436.365 257.001 436.365H324.192C327.504 436.365 329.725 432.941 328.39 429.891L306.37 379.586Z" fill="#032068"/>
<path d="M285.125 402.574C283.89 399.693 281.07 397.827 277.952 397.827C272.336 397.827 268.554 403.61 270.778 408.798L271.332 410.091C272.567 412.972 275.387 414.838 278.506 414.838C284.122 414.838 287.903 409.055 285.68 403.867L285.125 402.574Z" fill="#F4AD5E"/>
<path d="M258.056 440.356H374.667C376.564 440.356 378.102 438.809 378.102 436.9C378.102 434.992 376.564 433.445 374.667 433.445H258.056C255.594 433.445 253.932 435.973 254.894 438.252C255.433 439.527 256.678 440.356 258.056 440.356Z" fill="#032068"/>
<path d="M444.464 158.31L448.573 154.65C449.305 153.998 450.436 154.668 450.217 155.623L449.018 160.862C448.945 161.179 449.03 161.511 449.244 161.754L453.124 166.141C453.749 166.847 453.141 167.954 452.21 167.806L446.363 166.879C446.079 166.834 445.789 166.914 445.566 167.098L440.531 171.255C439.783 171.873 438.687 171.182 438.92 170.24L440.392 164.296C440.463 164.006 440.404 163.7 440.228 163.46L436.318 158.099C435.743 157.311 436.518 156.241 437.445 156.544L443.484 158.516C443.823 158.627 444.196 158.548 444.464 158.31Z" fill="#F4AD5E"/>
<path d="M463.193 223.438L464.895 222.941C465.834 222.666 466.566 223.759 465.96 224.529L464.892 225.885C464.691 226.141 464.625 226.478 464.714 226.789L465.307 228.857C465.567 229.765 464.546 230.505 463.77 229.97L461.952 228.717C461.715 228.554 461.419 228.501 461.14 228.571L458.739 229.176C457.801 229.413 457.109 228.315 457.722 227.564L459.134 225.834C459.323 225.602 459.4 225.3 459.345 225.007L458.882 222.542C458.702 221.58 459.858 220.947 460.563 221.62L462.222 223.203C462.48 223.449 462.85 223.539 463.193 223.438Z" fill="#F4AD5E"/>
<path d="M38.8813 442.897C38.8813 440.792 40.2158 439.085 41.8619 439.085H455.161C456.808 439.085 458.142 440.792 458.142 442.897V447.979C458.142 450.084 456.808 451.79 455.161 451.79H41.8619C40.2158 451.79 38.8813 450.084 38.8813 447.979V442.897Z" fill="white"/>
<path fill-rule="evenodd" clip-rule="evenodd" d="M37.8877 442.897C37.8877 440.09 39.6669 437.815 41.8617 437.815H455.161C457.356 437.815 459.135 440.09 459.135 442.897V447.979C459.135 450.785 457.356 453.061 455.161 453.061H41.8617C39.6669 453.061 37.8877 450.785 37.8877 447.979V442.897ZM41.8617 440.356C40.7643 440.356 39.8747 441.493 39.8747 442.897V447.979C39.8747 449.382 40.7643 450.52 41.8617 450.52H455.161C456.259 450.52 457.148 449.382 457.148 447.979V442.897C457.148 441.493 456.259 440.356 455.161 440.356H41.8617Z" fill="#032068"/>
</svg>
