<svg width="512" height="512" viewBox="0 0 512 512" fill="none" xmlns="http://www.w3.org/2000/svg">
<path d="M106.787 462.545H278.649H428.859C468.277 462.545 491.201 418.104 468.283 386.118C459.33 373.622 456.865 357.624 461.643 343.023L488.288 261.605C505.574 208.785 493.344 150.78 456.191 109.378L437.672 88.7401C397.339 43.7933 329.594 35.0439 278.589 67.4567C250.437 85.347 215.755 91.0226 183.425 82.7367L173.315 80.1458C120.217 66.5376 65.2646 94.4736 45.1072 145.323L44.3591 147.21C33.8999 173.594 34.7323 203.1 46.6623 228.856L51.7321 239.801C65.0269 268.504 60.9025 302.406 41.2916 327.247C14.5708 361.095 17.8697 409.944 49.1887 439.612C64.7321 454.336 85.3505 462.545 106.787 462.545Z" fill="#E7E8FF"/>
<path d="M403.883 462.728H391.776C403.201 428.532 417.339 412.663 425.378 407.305C426.891 406.296 428.655 407.513 428.496 409.322C426.24 435.01 411.375 455.456 403.883 462.728Z" fill="white"/>
<path fill-rule="evenodd" clip-rule="evenodd" d="M426.859 408.316C427.067 408.454 427.266 408.754 427.226 409.211C425.04 434.102 410.809 454.032 403.361 461.457H393.552C404.821 428.573 418.495 413.422 426.086 408.362C426.411 408.146 426.673 408.192 426.859 408.316ZM428.269 406.197C427.235 405.513 425.859 405.455 424.67 406.247C416.311 411.819 402.042 427.978 390.567 462.326L390.008 464H404.401L404.772 463.64C412.418 456.217 427.476 435.503 429.765 409.433C429.884 408.081 429.281 406.868 428.269 406.197Z" fill="#032068"/>
<path d="M431.186 339.25C437.276 387.236 407.722 442.097 391.776 464H373.934C382.436 373.522 410.919 342.276 427.054 336.485C429.005 335.785 430.925 337.197 431.186 339.25Z" fill="#032068"/>
<path fill-rule="evenodd" clip-rule="evenodd" d="M411.939 373.139L417.966 354.882L420.387 355.678L405.343 401.244L416.738 396.084L417.791 398.4L404.259 404.527L391.847 442.124L402.659 436.793L403.788 439.073L390.728 445.512L384.703 463.762L382.282 462.966L394.521 425.896L388.045 409.796L390.41 408.848L395.759 422.146L410.686 376.933L405.882 364.643L408.257 363.719L411.939 373.139Z" fill="white"/>
<path d="M401.634 307.392C420.716 354.526 396.487 430.091 381.581 462.728H360.553C361.023 360.031 383.194 317.177 396.806 305.965C398.472 304.592 400.825 305.393 401.634 307.392Z" fill="white"/>
<path fill-rule="evenodd" clip-rule="evenodd" d="M397.617 306.946C398.503 306.215 399.907 306.522 400.452 307.868C409.853 331.09 408.622 361.467 403.101 390.257C397.671 418.573 388.132 445.146 380.759 461.457H361.834C362.156 410.867 367.774 374.999 374.975 350.396C382.249 325.543 391.099 312.314 397.617 306.946ZM402.816 306.916C401.742 304.264 398.44 302.969 395.994 304.984C388.9 310.828 379.86 324.632 372.528 349.683C365.183 374.778 359.514 411.289 359.278 462.723L359.273 464H382.4L382.74 463.256C390.23 446.857 400.048 419.71 405.604 390.735C411.153 361.801 412.496 330.829 402.816 306.916Z" fill="#032068"/>
<path fill-rule="evenodd" clip-rule="evenodd" d="M388.636 357.061L393.068 330.908L395.581 331.332L386.682 383.848L397.471 377.091L398.826 379.245L386.113 387.208L378.651 431.242L386.752 427.255L387.879 429.536L378.127 434.335L373.279 462.941L370.766 462.517L378.778 415.235L370.877 399.071L373.168 397.956L379.508 410.927L387.933 361.212L379.814 345.696L382.073 344.519L388.636 357.061Z" fill="#032068"/>
<path d="M421.149 125.484C421.149 151.407 400.134 172.422 374.211 172.422C348.288 172.422 327.273 151.407 327.273 125.484C327.273 99.5604 348.288 78.5455 374.211 78.5455C400.134 78.5455 421.149 99.5604 421.149 125.484Z" fill="white"/>
<path fill-rule="evenodd" clip-rule="evenodd" d="M374.211 80C349.091 80 328.727 100.364 328.727 125.483C328.727 150.603 349.091 170.967 374.211 170.967C399.331 170.967 419.694 150.603 419.694 125.483C419.694 100.364 399.331 80 374.211 80ZM325.818 125.483C325.818 98.757 347.484 77.0909 374.211 77.0909C400.937 77.0909 422.603 98.757 422.603 125.483C422.603 152.21 400.937 173.876 374.211 173.876C347.484 173.876 325.818 152.21 325.818 125.483Z" fill="#032068"/>
<path d="M384.214 125.484C384.214 131.008 379.735 135.487 374.211 135.487C368.686 135.487 364.208 131.008 364.208 125.484C364.208 119.959 368.686 115.48 374.211 115.48C379.735 115.48 384.214 119.959 384.214 125.484Z" fill="#F4AD5E"/>
<path fill-rule="evenodd" clip-rule="evenodd" d="M373.043 86.1116L376.482 124.819L359.17 145.65L356.933 143.791L373.478 123.882L370.146 86.369L373.043 86.1116Z" fill="#032068"/>
<path d="M359.306 206.496L361.676 198.917C362.098 197.568 364.003 197.553 364.446 198.896L366.872 206.262C367.019 206.708 367.372 207.055 367.82 207.195L375.919 209.728C377.224 210.136 377.296 211.955 376.028 212.466L368.072 215.671C367.685 215.827 367.384 216.141 367.244 216.534L364.096 225.417C363.629 226.736 361.75 226.698 361.336 225.361L358.72 216.922C358.593 216.511 358.29 216.177 357.893 216.011L349.027 212.297C347.723 211.751 347.887 209.853 349.265 209.537L358.243 207.48C358.747 207.364 359.151 206.99 359.306 206.496Z" fill="#F4AD5E"/>
<path d="M431.262 273.026L433.005 271.145C433.966 270.108 435.692 270.913 435.515 272.316L435.202 274.785C435.143 275.251 435.313 275.716 435.657 276.035L437.938 278.148C438.941 279.077 438.225 280.751 436.861 280.667L433.665 280.472C433.249 280.446 432.842 280.601 432.547 280.896L430.017 283.43C429.028 284.42 427.348 283.579 427.548 282.194L428.009 279.006C428.071 278.58 427.94 278.149 427.653 277.828L425.236 275.126C424.293 274.073 425.255 272.43 426.635 272.736L429.879 273.458C430.384 273.57 430.91 273.406 431.262 273.026Z" fill="#F4AD5E"/>
<path d="M101.153 141.645L95.1548 149.637C94.7898 150.123 94.1946 150.357 93.6117 150.244L86.1981 148.798C84.6031 148.487 83.6409 150.573 84.8718 151.673L90.6984 156.879C91.1238 157.26 91.3247 157.845 91.2269 158.42L89.7652 167.005C89.4904 168.619 91.4003 169.618 92.4817 168.425L98.4669 161.828C98.8183 161.441 99.3278 161.253 99.8351 161.325L106.762 162.307C108.322 162.528 109.206 160.505 108.019 159.427L102.868 154.751C102.454 154.375 102.257 153.804 102.345 153.24L103.97 142.927C104.235 141.241 102.164 140.297 101.153 141.645Z" fill="#F4AD5E"/>
<path d="M31.3731 247.157L27.2943 252.485C27.0461 252.809 26.6414 252.965 26.245 252.89L21.2038 251.926C20.1192 251.719 19.4649 253.109 20.3019 253.843L24.264 257.314C24.5532 257.567 24.6899 257.957 24.6234 258.34L23.6294 264.064C23.4425 265.14 24.7413 265.806 25.4766 265.011L29.5466 260.613C29.7855 260.354 30.132 260.229 30.4769 260.277L35.1871 260.932C36.2481 261.079 36.849 259.73 36.0422 259.012L32.5393 255.894C32.258 255.644 32.1236 255.263 32.184 254.887L33.2885 248.012C33.4691 246.888 32.0606 246.259 31.3731 247.157Z" fill="#F4AD5E"/>
<path d="M125.95 216.111L86.5051 243.006C86.4155 243.067 86.2934 243.044 86.2322 242.954C81.8505 236.54 83.5013 227.792 89.9196 223.416L106.446 212.148C112.864 207.771 121.619 209.424 126.001 215.838C126.062 215.927 126.039 216.049 125.95 216.111Z" fill="#032068"/>
<path d="M130.905 229.988L97.6323 252.675C95.8386 253.898 93.3917 253.436 92.1671 251.644L88.5572 246.359C87.3326 244.567 87.794 242.122 89.5878 240.899L122.861 218.212C124.655 216.989 127.101 217.45 128.326 219.243L131.936 224.527C133.161 226.32 132.699 228.765 130.905 229.988Z" fill="#F4AD5E"/>
<path d="M130.159 249.915L116.482 259.24C109.277 264.153 99.4483 262.298 94.5294 255.098C94.4501 254.982 94.4799 254.823 94.5962 254.744L133.944 227.915C134.06 227.836 134.219 227.866 134.298 227.982C139.217 235.182 137.364 245.002 130.159 249.915Z" fill="#032068"/>
<path d="M85.8986 266.757C86.9267 270.143 85.4702 276.231 84.6134 278.851L109.676 281.875C109.891 279.859 110.448 275.344 110.962 273.409C111.604 270.99 117.388 266.152 118.673 262.524C119.701 259.622 117.816 250.027 116.745 245.593C111.604 246.197 110.319 249.221 109.676 250.43C109.034 251.64 108.391 260.71 108.391 261.315C106.276 262.323 100.751 261.92 95.5788 257.082L87.1838 245.593C82.0431 254.059 84.6134 262.524 85.8986 266.757Z" fill="#EFCB96"/>
<path d="M260.379 221.594L266.536 247.276C264.975 252.777 258.249 264.076 243.832 265.265C229.414 266.454 222.091 254.298 220.232 248.072L220.827 230.899C217.407 230.174 210.069 225.138 208.076 210.797C205.585 192.871 207.603 168.529 220.123 161.453C232.642 154.377 253.079 157.728 267.411 184.751C278.877 206.369 267.5 218.32 260.379 221.594Z" fill="#EFCB96"/>
<path d="M256.639 212.838C256.97 216.84 258.941 224.4 261.051 229.599C266.306 232.188 282.423 207.69 282.522 184.513C282.601 165.972 271.247 161.939 265.436 160.739C264.826 157.431 259.103 147.561 237.747 142.876C211.053 137.018 189.853 148.84 195.596 169.52C201.339 190.2 232.881 181.555 237.887 181.142C242.893 180.73 242.306 185.815 247.304 197.491C252.302 209.166 251.723 202.163 253.312 196.995C254.9 191.828 262.414 185.164 264.326 196.087C266.237 207.01 256.225 207.836 256.639 212.838Z" fill="#032068"/>
<path d="M241.94 230.164C231.659 232.624 223.582 231.678 220.829 230.897L220.408 237.984C226.015 237.522 237.099 232.578 241.94 230.164Z" fill="#032068"/>
<path d="M244.597 252.169C229.325 252.169 221.488 244.808 219.478 241.127C206.555 242.77 187.555 249.738 172.714 259.489C172.289 259.763 171.829 260.07 171.337 260.411C167.066 263.319 163.18 266.46 159.937 269.769C150.058 278.896 137.163 293.181 125.506 312.342C124.296 302.909 121.294 283.317 118.97 280.414C116.064 276.786 81.9292 273.883 76.8452 278.237C71.7613 282.591 47.0677 385.631 60.8671 409.577C74.6664 433.523 106.913 434.249 123.327 419.736L144.389 399.418L139.305 463.981H344.064C353.443 464.316 374.811 460.367 385.26 441.896C398.322 418.808 367.175 305.373 347.08 277.266C331.004 254.779 287.466 243.804 267.706 241.127C266.366 244.808 259.869 252.169 244.597 252.169Z" fill="#F4AD5E"/>
<path d="M200.394 395.097L204.261 461.743C204.301 462.436 204.875 462.977 205.569 462.977H243.285C243.979 462.977 244.553 462.436 244.594 461.743L248.461 395.097C248.504 394.346 247.906 393.712 247.152 393.712H201.702C200.949 393.712 200.35 394.346 200.394 395.097Z" fill="white"/>
<path fill-rule="evenodd" clip-rule="evenodd" d="M199.085 395.173C198.998 393.67 200.195 392.402 201.702 392.402H247.152C248.659 392.402 249.856 393.67 249.769 395.173L245.902 461.819C245.822 463.205 244.674 464.287 243.285 464.287H205.569C204.18 464.287 203.032 463.205 202.952 461.819L199.085 395.173ZM247.152 395.022L201.702 395.022L205.569 461.668H243.285L247.152 395.022Z" fill="#032068"/>
<path d="M205.569 462.977H243.284C243.979 462.977 244.553 462.436 244.593 461.743L247.195 416.888C247.232 416.256 246.797 415.683 246.177 415.55C226.968 411.443 222.359 424.703 203.626 416.72C202.707 416.328 201.665 417.022 201.723 418.019L204.26 461.743C204.3 462.436 204.874 462.977 205.569 462.977Z" fill="#032068"/>
<path fill-rule="evenodd" clip-rule="evenodd" d="M215.499 420.637C211.925 420.697 207.942 419.983 203.112 417.925C203.103 417.921 203.097 417.92 203.093 417.919C203.089 417.918 203.085 417.918 203.08 417.919C203.069 417.92 203.056 417.925 203.043 417.933C203.038 417.937 203.034 417.94 203.032 417.943C203.032 417.943 203.032 417.943 203.032 417.943L205.569 461.667H243.284L245.886 416.827C237.387 415.014 231.928 416.716 226.492 418.412C226.031 418.555 225.57 418.699 225.107 418.841C222.135 419.75 219.057 420.577 215.499 420.637ZM246.451 414.269L246.177 415.55L246.176 415.552M246.451 414.269C237.255 412.303 231.215 414.191 225.73 415.905ZM225.73 415.905C225.263 416.05 224.8 416.195 224.339 416.336ZM224.339 416.336C221.416 417.231 218.629 417.965 215.455 418.018ZM215.455 418.018C212.295 418.071 208.677 417.449 204.141 415.515ZM246.451 414.269C247.707 414.538 248.578 415.69 248.504 416.964L245.901 461.819C245.821 463.204 244.673 464.287 243.284 464.287H205.569C204.18 464.287 203.032 463.204 202.951 461.819L200.414 418.095C200.297 416.07 202.38 414.765 204.141 415.515M246.451 414.269L246.177 415.55Z" fill="#032068"/>
<path d="M215.328 345.933C215.058 344.353 216.121 342.853 217.702 342.583V342.583C219.284 342.313 220.785 343.375 221.056 344.955L228.155 386.44C228.426 388.02 227.363 389.52 225.781 389.79V389.79C224.2 390.06 222.699 388.998 222.428 387.418L215.328 345.933Z" fill="#032068"/>
<path d="M262.389 423.79L262.661 449.094C259.528 448.857 254.188 452.713 242.027 453.497C227.996 454.4 220.708 449.893 221.121 432.596C221.533 415.298 236.77 419.293 240.886 419.32C245.001 419.348 242.295 416.302 249.174 414.835C254.676 413.661 260.277 420.316 262.389 423.79Z" fill="#EFCB96"/>
<path d="M156.963 305.812L145.116 398.693L133.495 409.577L156.963 305.812Z" fill="#032068"/>
<path d="M323.055 387.083L317.244 339.917L313.613 389.26C306.06 393.904 275.846 405.949 263.5 416.834C272.215 411.748 314.823 396.032 338.307 387.083H323.055Z" fill="#032068"/>
<path d="M355.737 464C341.793 464 290.372 458.195 266.405 455.292L297.635 464H355.737Z" fill="#032068"/>
<path d="M254.2 395.79H194.361C193.637 395.79 193.05 395.204 193.05 394.481V386.941C193.05 386.218 193.637 385.631 194.361 385.631H254.2C254.924 385.631 255.51 386.218 255.51 386.941V394.481C255.51 395.204 254.924 395.79 254.2 395.79Z" fill="#032068"/>
<path d="M203.218 380.552L200.313 387.083H248.248L245.342 380.552H203.218Z" fill="white"/>
<path fill-rule="evenodd" clip-rule="evenodd" d="M202.367 379.242H246.195L250.265 388.392H198.296L202.367 379.242ZM204.07 381.861L202.33 385.773H246.231L244.491 381.861H204.07Z" fill="#032068"/>
<path d="M125.739 58.3262C119.158 61.2714 115.888 63.7186 110.63 69.1882C105.559 74.4636 110.749 92.9059 124.589 112.338C138.429 131.771 153.655 141.992 160.75 139.559C167.566 136.289 170.955 133.967 175.888 128.717C175.923 128.679 175.956 128.639 175.985 128.597C180.7 121.646 175.341 104.264 161.983 85.5098C148.636 66.7701 133.418 56.474 125.907 58.2681C125.849 58.2819 125.793 58.3018 125.739 58.3262Z" fill="white"/>
<path fill-rule="evenodd" clip-rule="evenodd" d="M142.372 63.3423C148.89 68.1125 156.107 75.4578 162.832 84.9006C169.556 94.3402 174.294 103.471 176.755 111.159C177.986 115.002 178.658 118.519 178.709 121.552C178.759 124.577 178.191 127.207 176.848 129.187L175.985 128.597L176.848 129.187C176.784 129.28 176.716 129.363 176.648 129.436L175.888 128.717L176.648 129.436C176.648 129.436 176.648 129.436 176.648 129.436C171.613 134.794 168.114 137.188 161.2 140.504L161.145 140.531L161.088 140.55C159.003 141.265 156.461 141.012 153.711 140.055C150.943 139.091 147.851 137.375 144.586 134.996C138.052 130.235 130.709 122.733 123.74 112.947C116.771 103.162 111.955 93.5945 109.521 85.7664C108.306 81.8556 107.671 78.3368 107.682 75.4193C107.693 72.5275 108.341 70.0613 109.879 68.4607C115.216 62.9089 118.593 60.377 125.314 57.3693L125.739 58.3262L125.314 57.3693C125.419 57.3224 125.536 57.2798 125.666 57.2489L125.907 58.2681L125.909 58.2736M125.907 58.2681L125.666 57.2489C127.825 56.7331 130.411 57.1082 133.2 58.1506C136.005 59.199 139.113 60.9578 142.372 63.3423M126.161 59.2845C127.755 58.9072 129.884 59.1475 132.472 60.1143C135.049 61.0774 137.988 62.7275 141.142 65.0353C147.447 69.6495 154.513 76.8222 161.134 86.1191C167.768 95.4339 172.389 104.371 174.768 111.8C175.957 115.516 176.575 118.82 176.621 121.587C176.667 124.358 176.139 126.505 175.127 128C170.31 133.126 167.037 135.378 160.358 138.586C158.899 139.066 156.896 138.946 154.395 138.075C151.88 137.199 148.97 135.601 145.812 133.3C139.499 128.701 132.309 121.375 125.438 111.729C118.567 102.082 113.868 92.7123 111.514 85.1423C110.337 81.3541 109.76 78.0587 109.77 75.4272C109.779 72.7701 110.385 70.9527 111.382 69.9156C116.559 64.5292 119.721 62.1667 126.161 59.2845Z" fill="#032068"/>
<path fill-rule="evenodd" clip-rule="evenodd" d="M121.095 60.6416C122.082 60.085 124.072 62.0098 123.972 63.1417C123.258 71.2316 128.794 86.0256 139.774 101.443C151.734 118.235 164.729 128.15 172.618 128.963C173.858 129.091 174.972 128.994 175.936 128.663C175.937 128.663 175.938 128.662 175.939 128.662C175.942 128.661 175.945 128.664 175.943 128.667C175.943 128.667 175.943 128.667 175.943 128.667C170.98 133.958 167.592 136.284 160.751 139.566C153.656 141.999 138.43 131.777 124.59 112.345C110.75 92.9128 105.56 74.4705 110.631 69.195C114.492 65.1789 117.28 62.7923 121.095 60.6416Z" fill="#032068"/>
<path fill-rule="evenodd" clip-rule="evenodd" d="M176.293 129.648L176.273 129.655C176.259 129.66 176.245 129.664 176.232 129.669C176.252 129.663 176.273 129.656 176.293 129.648ZM173.129 130.053C172.925 130.043 172.719 130.027 172.511 130.005C168.259 129.567 162.842 126.727 157.064 122.008C151.25 117.26 144.949 110.511 138.925 102.052C133.393 94.2855 129.222 86.6604 126.52 79.9364C123.829 73.2417 122.554 67.3379 122.932 63.0494C122.932 63.0532 122.932 63.0526 122.931 63.0476C122.928 63.0253 122.91 62.9147 122.797 62.7141C122.67 62.4908 122.473 62.2464 122.24 62.035C122.004 61.8198 121.778 61.6819 121.614 61.6212C121.579 61.6083 121.552 61.6007 121.533 61.5962C117.878 63.6673 115.18 65.9715 111.382 69.9225C110.385 70.9596 109.78 72.7771 109.77 75.4341C109.76 78.0656 110.337 81.361 111.515 85.1492C113.868 92.7192 118.568 102.089 125.439 111.736C132.309 121.382 139.5 128.707 145.813 133.307C148.971 135.608 151.88 137.206 154.396 138.082C156.897 138.953 158.9 139.073 160.358 138.593C166.076 135.847 169.298 133.801 173.129 130.053ZM121.495 61.5903C121.495 61.5902 121.497 61.59 121.502 61.5905C121.497 61.5908 121.495 61.5905 121.495 61.5903ZM176.386 129.609L176.389 129.607L176.386 129.609ZM175.565 127.683C176.505 127.313 177.399 128.4 176.799 129.265C176.769 129.309 176.737 129.349 176.702 129.385C171.638 134.784 168.14 137.183 161.201 140.511L161.146 140.538L161.088 140.557C159.004 141.272 156.461 141.019 153.712 140.062C150.944 139.098 147.852 137.382 144.586 135.003C138.052 130.242 130.71 122.74 123.74 112.954C116.771 103.169 111.956 93.6015 109.522 85.7733C108.306 81.8625 107.672 78.3437 107.683 75.4263C107.693 72.5344 108.341 70.0683 109.88 68.4677C113.778 64.4127 116.647 61.9479 120.584 59.7282C121.205 59.3777 121.867 59.4817 122.336 59.6554C122.82 59.8344 123.27 60.1442 123.642 60.4821C124.018 60.8238 124.361 61.238 124.61 61.6766C124.847 62.0928 125.064 62.6472 125.012 63.2342C124.676 67.0355 125.812 72.5736 128.456 79.1526C131.088 85.7025 135.174 93.1829 140.623 100.834C146.559 109.167 152.736 115.772 158.381 120.383C164.062 125.022 169.087 127.546 172.724 127.921C173.835 128.036 174.782 127.946 175.565 127.683Z" fill="#032068"/>
<path fill-rule="evenodd" clip-rule="evenodd" d="M141.141 80.9055C141.009 79.7006 141.12 78.4991 141.746 77.5631L143.479 78.7313C143.25 79.0734 143.108 79.6868 143.216 80.6775C143.322 81.6469 143.653 82.8381 144.19 84.1905C145.262 86.8902 147.088 90.0669 149.249 93.101C151.409 96.1334 153.868 98.9746 156.179 101.018C157.335 102.041 158.43 102.843 159.411 103.371C160.409 103.909 161.193 104.112 161.76 104.077L161.89 106.168C160.766 106.238 159.575 105.838 158.424 105.217C157.256 104.588 156.028 103.678 154.799 102.591C152.339 100.415 149.776 97.4445 147.551 94.3195C145.326 91.1962 143.403 87.8695 142.25 84.9662C141.675 83.517 141.274 82.1317 141.141 80.9055Z" fill="#032068"/>
</svg>
