<svg width="512" height="512" viewBox="0 0 512 512" fill="none" xmlns="http://www.w3.org/2000/svg">
<path d="M75.0576 458.822H275.338H397.21C410.288 458.822 423.041 454.738 433.701 447.138L447.118 437.573C474.904 417.763 475.737 376.661 448.779 355.733C422.488 335.324 422.502 295.496 448.808 275.106L458.216 267.815C485.614 246.578 489.453 206.544 466.591 180.457L423.768 131.592C394.078 97.7124 341.706 97.0084 311.122 130.077C283.673 159.756 237.876 162.699 206.878 136.774L196.888 128.419C172.613 108.117 139.227 102.731 109.832 114.374C66.8912 131.382 44.8613 179.252 59.8067 223.076L78.9899 279.325C88.2543 306.49 75.5068 336.281 49.4956 348.252C29.6938 357.366 17 377.219 17 399.077V400.573C17 432.743 42.9933 458.822 75.0576 458.822Z" fill="#E7E8FF"/>
<path d="M245.793 64.4044C245.793 58.5323 250.553 53.7719 256.425 53.7719H483.774C489.646 53.7719 494.406 58.5322 494.406 64.4044V291.753C494.406 297.625 489.646 302.385 483.774 302.385H256.425C250.553 302.385 245.793 297.625 245.793 291.753V64.4044Z" fill="white"/>
<path fill-rule="evenodd" clip-rule="evenodd" d="M244.199 64.4044C244.199 57.6521 249.673 52.1782 256.425 52.1782H483.774C490.526 52.1782 496 57.6521 496 64.4044V291.753C496 298.505 490.526 303.979 483.774 303.979H256.425C249.673 303.979 244.199 298.505 244.199 291.753V64.4044ZM256.425 55.3656C251.433 55.3656 247.387 59.4124 247.387 64.4044V291.753C247.387 296.745 251.433 300.791 256.425 300.791H483.774C488.766 300.791 492.812 296.745 492.812 291.753V64.4044C492.812 59.4124 488.766 55.3656 483.774 55.3656H256.425Z" fill="#032068"/>
<path d="M245.793 64.4044C245.793 58.5322 250.553 53.7719 256.425 53.7719H483.774C489.646 53.7719 494.406 58.5322 494.406 64.4044V90.4264H245.793V64.4044Z" fill="#032068"/>
<path d="M279.431 72.3599C279.431 76.7597 275.864 80.3264 271.464 80.3264C267.064 80.3264 263.498 76.7597 263.498 72.3599C263.498 67.9602 267.064 64.3934 271.464 64.3934C275.864 64.3934 279.431 67.9602 279.431 72.3599Z" fill="white"/>
<path d="M305.988 72.3599C305.988 76.7597 302.421 80.3264 298.021 80.3264C293.621 80.3264 290.055 76.7597 290.055 72.3599C290.055 67.9602 293.621 64.3934 298.021 64.3934C302.421 64.3934 305.988 67.9602 305.988 72.3599Z" fill="white"/>
<path d="M332.538 72.3599C332.538 76.7597 328.972 80.3264 324.572 80.3264C320.172 80.3264 316.605 76.7597 316.605 72.3599C316.605 67.9602 320.172 64.3934 324.572 64.3934C328.972 64.3934 332.538 67.9602 332.538 72.3599Z" fill="white"/>
<path d="M233.545 191.462C232.016 195.728 235.187 200.876 236.964 202.917L224.138 217.746C223.264 217.7 221.119 213.991 217.213 212.991C213.307 211.992 209.819 209.083 205.563 204.293C204.822 203.046 201.564 199.033 202.04 194.775C202.514 190.517 210.626 181.383 215.13 180.415C218.734 179.641 224.85 184.806 226.912 187.801C227.794 185.045 229.117 183.478 231.711 180.788C233.533 179.531 236.772 179.323 237.459 181.419C237.924 182.838 237.447 184.395 236.447 185.51C235.028 187.092 234.566 188.611 233.545 191.462Z" fill="#EFCB96"/>
<path d="M352.638 154.107L349.183 166.715C347.455 173.019 352.638 180.469 367.037 180.469C378.555 180.469 380.283 169.771 379.707 164.422L376.827 150.095C379.707 147.23 382.011 145.511 382.011 131.757C382.011 114.564 372.796 108.26 361.853 108.26C350.911 108.26 341.696 117.42 341.695 134.049C341.695 148.376 349.375 152.961 352.638 154.107Z" fill="#EFCB96"/>
<path d="M363.003 174.165C373.6 174.165 378.937 167.288 380.281 163.849L380.336 163.849C390.515 163.849 407.1 163.849 424.051 179.323C441.033 194.824 455.213 216.573 468.042 255.293C473.067 270.46 473.629 291.423 472.093 299.637H298.563C278.981 299.637 263.45 296.156 258.049 289.559C245.378 274.086 218.41 227.43 219.562 221.699C220.713 215.968 235.111 197.808 239.142 199.527C242.367 200.902 258.723 212.965 275.604 225.73C295.185 174.165 335.358 163.085 348.605 163.849C348.989 167.288 352.406 174.165 363.003 174.165Z" fill="#F4AD5E"/>
<path d="M324.415 142.072C315.661 151.241 316.16 167.288 317.504 174.165C332.264 165.352 343.647 163.652 348.561 163.849C348.561 164.82 349.248 166.817 349.589 166.866L352.636 154.107C346.505 151.521 342.269 146.657 341.693 133.476C341.693 123.192 346.493 115.71 349.181 113.418C358.395 112.845 363.003 124.306 365.882 128.891C368.186 132.559 369.914 131.947 370.49 131.183C373.37 124.306 378.553 123.733 379.705 131.183C380.626 137.143 376.249 140.162 373.946 140.926L379.918 165.331L380.432 164.308C390.712 164.308 404.562 167.516 409.653 169.58C411.381 151.241 396.983 144.937 392.375 133.476C387.768 122.014 394.103 116.283 389.496 108.833C386.081 103.311 379.705 102.529 375.673 101.383C371.642 100.237 369.338 95.652 364.731 93.3597C356.668 90.4943 348.989 97.5623 346.877 102.529C345.533 102.338 341.693 102.873 337.086 106.541C323.84 115.71 335.358 130.61 324.415 142.072Z" fill="#032068"/>
<path d="M416.726 229.761C422.127 255.293 428.349 291.353 427.529 299.637H435.632C435.924 283.653 421.452 238.496 416.726 229.761Z" fill="#032068"/>
<path d="M364.73 153.534C357.819 155.368 353.788 154.68 352.636 154.107L350.908 160.411C358.28 161.328 363.195 156.208 364.73 153.534Z" fill="#032068"/>
<path d="M301.939 222.371C297.078 242.796 294.062 282.392 293.161 299.637H287.76C288.84 271.687 297.663 236.48 301.939 222.371Z" fill="#032068"/>
<path d="M260.076 290.903C277.901 286.603 287.309 289.111 289.785 290.903L288.435 299.637C274.93 299.637 263.902 293.815 260.076 290.903Z" fill="#032068"/>
<path d="M121.977 284.478L119.177 299.232L121.977 314.689C129.213 315.626 143.963 317.499 145.084 317.499C146.204 317.499 154.42 310.474 158.387 306.961L154.186 284.478C165.949 280.543 169.824 263.166 170.291 254.969C173.091 221.245 150.685 217.029 146.484 217.029C142.283 217.029 115.676 217.029 112.175 245.133C109.374 267.616 117.543 280.731 121.977 284.478Z" fill="#EFCB96"/>
<path d="M54.0578 458.72H163.988L303.326 458.017C311.948 452.375 314.361 443.272 314.385 435.551C314.404 429.224 309.859 424.135 304.18 421.388C281.617 410.473 247.37 393.582 241.009 389.164C231.907 382.84 223.504 348.414 206.7 321.715C193.256 300.356 167.956 295.485 157.686 295.719C156.753 299.935 152.785 308.366 138.781 308.366C124.777 308.366 118.942 299.935 117.075 295.719C109.84 295.719 89.7676 299.654 72.963 315.392C51.9718 335.051 42.8674 379.968 34.4699 421.396L34.4524 421.483C27.7306 454.645 44.7219 459.657 54.0578 458.72Z" fill="#F4AD5E"/>
<path d="M100.971 404.621L111.474 361.763L109.373 404.621L157.199 416.325C163.34 417.828 169.082 421.66 170.244 427.894C172.317 439.015 168.182 450.841 163.288 455.207C167.489 449.175 167.489 426.401 162.588 422.888C158.666 420.078 110.073 410.944 86.2666 406.728L100.971 404.621Z" fill="#032068"/>
<path d="M205.3 350.521L231.207 458.72H242.41L205.3 350.521Z" fill="#032068"/>
<path d="M129.677 270.426C126.876 286.726 122.908 288.459 121.275 287.288C101.669 274.641 102.142 234.236 114.273 220.542C125.476 207.895 133.878 212.814 156.984 207.193C180.091 201.572 187.793 211.408 183.592 224.055C177.544 242.26 158.385 232.486 153.483 234.594C148.582 236.702 142.28 242.322 139.48 253.564C136.679 264.805 135.278 262.697 133.178 256.374C131.077 250.051 125.476 240.917 121.275 252.159C117.914 261.152 125.476 268.084 129.677 270.426Z" fill="#032068"/>
<path d="M212.301 458.72C212.301 439.61 184.06 433.895 170.29 433.427C170.29 442.982 164.455 454.27 161.187 458.72H212.301Z" fill="#EFCB96"/>
<path d="M348.393 457.429C348.393 440.442 326.013 436.832 313.941 436.416C313.941 444.909 306.445 453.473 303.581 457.429H348.393Z" fill="#EFCB96"/>
<path fill-rule="evenodd" clip-rule="evenodd" d="M32.9545 433.36C32.6235 446.923 37.3633 458.72 51.8263 458.72H64.5635C61.2026 436.238 43.425 422.655 35.0224 418.673C34.8379 419.582 34.6539 420.49 34.4702 421.396L34.4526 421.483C33.557 425.901 33.0824 429.845 32.9545 433.36Z" fill="#032068"/>
<path d="M140.747 284.264C147.268 286.445 151.786 285.173 154.05 284.264L156.151 294.1C147.456 293.01 142.558 286.763 140.747 284.264Z" fill="#032068"/>
<path d="M284.415 355.54L246.684 441.488C244.79 445.803 247.94 450.647 252.64 450.647H367.772C370.416 450.647 372.798 449.042 373.797 446.587L408.777 360.638C410.524 356.344 407.375 351.643 402.752 351.643H290.371C287.791 351.643 285.455 353.172 284.415 355.54Z" fill="white"/>
<path fill-rule="evenodd" clip-rule="evenodd" d="M290.371 352.999C288.327 352.999 286.476 354.21 285.652 356.086L247.921 442.035C246.421 445.453 248.916 449.291 252.64 449.291H367.772C369.867 449.291 371.754 448.02 372.546 446.074L407.525 360.126C408.91 356.724 406.415 352.999 402.752 352.999H290.371ZM283.178 354.994C284.434 352.133 287.255 350.287 290.371 350.287H402.752C408.336 350.287 412.139 355.965 410.028 361.151L375.049 447.099C373.842 450.065 370.966 452.003 367.772 452.003H252.64C246.964 452.003 243.16 446.153 245.447 440.942L283.178 354.994Z" fill="#032068"/>
<path d="M319.581 394.269C321.697 389.346 326.529 386.158 331.873 386.158C341.496 386.158 347.976 396.04 344.165 404.904L343.215 407.113C341.099 412.035 336.267 415.224 330.923 415.224C321.3 415.224 314.821 405.342 318.631 396.478L319.581 394.269Z" fill="#F4AD5E"/>
<path d="M365.965 458.822H166.151C162.901 458.822 160.266 456.178 160.266 452.918C160.266 449.657 162.901 447.014 166.151 447.014H365.965C370.182 447.014 373.031 451.333 371.382 455.227C370.459 457.406 368.326 458.822 365.965 458.822Z" fill="#032068"/>
<path d="M127.326 150.116C124.988 154.936 118.09 156.514 114.933 156.7L114.588 177.127C115.338 177.827 117.328 179.814 119.288 182.163C120.428 184.005 135.673 183.736 143.153 183.371C144.803 182.966 148.226 181.947 148.725 181.117C149.35 180.079 154.418 161.144 151.568 156.538C149.288 152.854 140.338 153.403 136.149 154.138C138.771 150.449 138.603 144.234 137.803 139.394C137.377 136.815 134.598 135.589 132.281 136.743C130.711 137.524 129.792 139.214 129.67 140.981C129.496 143.489 128.888 146.896 127.326 150.116Z" fill="#F4AD5E"/>
<path d="M99.493 154.065C99.4893 152.361 100.85 150.977 102.532 150.974L113.513 150.949C115.195 150.945 116.562 152.323 116.565 154.027L116.623 180.518C116.627 182.222 115.266 183.606 113.584 183.61L102.603 183.634C100.921 183.638 99.5543 182.26 99.5506 180.556L99.493 154.065Z" fill="#032068"/>
<path d="M189.807 85.6764L191.669 91.2939C191.783 91.6357 191.696 92.0068 191.444 92.2559L188.239 95.4243C187.549 96.106 188.238 97.275 189.189 97.0356L193.687 95.9024C194.016 95.8197 194.368 95.9159 194.615 96.1556L198.296 99.7371C198.988 100.41 200.118 99.8031 199.904 98.8732L198.716 93.7271C198.646 93.4249 198.727 93.1117 198.933 92.8858L201.748 89.8026C202.382 89.108 201.697 87.9985 200.772 88.2236L196.759 89.2009C196.437 89.2793 196.093 89.1862 195.849 88.9546L191.382 84.7171C190.651 84.0241 189.494 84.7295 189.807 85.6764Z" fill="#F4AD5E"/>
<path d="M411.826 395.331C404.683 399.386 415.219 418.994 421.617 428.654C421.844 428.997 422.264 429.142 422.658 429.023L430.053 426.799C430.502 426.664 430.784 426.22 430.711 425.756C428.03 408.754 420.792 390.241 411.826 395.331Z" fill="#032068"/>
<path d="M433.788 342.705C412.085 347.709 418.18 400.088 424.118 426.585C424.237 427.116 424.776 427.414 425.295 427.258L442.787 421.995C443.117 421.896 443.365 421.635 443.435 421.296C449.378 392.652 455.62 337.671 433.788 342.705Z" fill="white"/>
<path fill-rule="evenodd" clip-rule="evenodd" d="M425.03 426.354L442.518 421.092C445.482 406.802 448.511 385.985 448.088 369.398C447.876 361.08 446.797 353.954 444.498 349.25C443.354 346.91 441.942 345.239 440.252 344.284C438.581 343.339 436.536 343.038 433.997 343.624C428.987 344.779 425.484 348.673 423.159 354.543C420.831 360.421 419.749 368.138 419.527 376.608C419.083 393.525 422.072 413.148 425.03 426.354ZM421.414 353.85C423.864 347.664 427.738 343.134 433.58 341.787C436.498 341.114 439.034 341.43 441.176 342.641C443.3 343.841 444.936 345.862 446.184 348.417C448.669 353.501 449.752 360.967 449.966 369.345C450.394 386.146 447.332 407.133 444.354 421.486C444.211 422.179 443.702 422.703 443.055 422.898L425.563 428.16C424.548 428.465 423.446 427.883 423.202 426.794C420.223 413.503 417.199 393.701 417.649 376.563C417.874 368 418.967 360.028 421.414 353.85Z" fill="#032068"/>
<path d="M454.339 372.809C441.38 374.789 439.108 406.294 439.546 422.733C439.562 423.348 440.158 423.768 440.746 423.591L450.22 420.74C450.492 420.659 450.71 420.466 450.817 420.202C457.613 403.444 467.515 370.794 454.339 372.809Z" fill="#032068"/>
<path fill-rule="evenodd" clip-rule="evenodd" d="M435.33 364.272L435.511 350.195L433.632 350.175L433.262 378.995L426.036 372.046L424.734 373.408L433.229 381.577L432.864 409.937L426.534 404.642L425.329 406.091L432.833 412.368L432.674 424.754L434.553 424.774L434.878 399.497L442.378 392.123L441.064 390.778L434.912 396.826L435.294 367.032L441.496 360.535L440.14 359.233L435.33 364.272Z" fill="#032068"/>
<path d="M408.878 421.043C408.502 419.283 409.838 417.622 411.63 417.622H454.574C456.327 417.622 457.653 419.214 457.345 420.948L451.029 456.491C450.789 457.839 449.621 458.822 448.258 458.822H419.21C417.882 458.822 416.735 457.89 416.457 456.586L408.878 421.043Z" fill="#F4AD5E"/>
<path d="M441.226 125.359L442.748 132.635C442.84 133.078 442.678 133.532 442.328 133.812L437.872 137.376C436.913 138.142 437.607 139.695 438.828 139.516L444.608 138.667C445.03 138.605 445.457 138.77 445.73 139.102L449.815 144.058C450.583 144.99 452.082 144.372 451.947 143.179L451.199 136.579C451.156 136.192 451.301 135.809 451.591 135.553L455.548 132.046C456.44 131.256 455.742 129.779 454.556 129.943L449.404 130.659C448.99 130.716 448.573 130.555 448.302 130.234L443.33 124.356C442.516 123.395 440.97 124.132 441.226 125.359Z" fill="#F4AD5E"/>
<path d="M52.2401 276.68L50.5692 278.741C50.4675 278.867 50.3017 278.927 50.1393 278.898L48.0741 278.525C47.6298 278.445 47.3617 278.983 47.7047 279.266L49.3278 280.609C49.4463 280.708 49.5022 280.859 49.475 281.007L49.0678 283.221C48.9912 283.637 49.5233 283.895 49.8246 283.588L51.4919 281.886C51.5897 281.786 51.7317 281.738 51.873 281.756L53.8026 282.009C54.2373 282.066 54.4834 281.544 54.1529 281.267L52.7179 280.06C52.6027 279.963 52.5476 279.816 52.5723 279.671L53.0248 277.011C53.0988 276.576 52.5218 276.332 52.2401 276.68Z" fill="#F4AD5E"/>
</svg>
