<svg width="512" height="512" viewBox="0 0 512 512" fill="none" xmlns="http://www.w3.org/2000/svg">
<path d="M203.846 446.51H296.939H388.013C422.201 446.51 452.275 423.883 461.794 390.999L467.881 369.973C475.861 342.406 460.868 313.412 433.782 304.03C396.374 291.073 385.261 243.471 413.054 215.248L415.841 212.418C443.529 184.302 434.539 137.13 398.458 121.201L293.46 74.8497C261.868 60.9034 225.574 62.5991 195.416 79.4304L178.272 88.9986C142.84 108.774 126.048 150.674 137.998 189.493C147.387 219.99 139.146 253.186 116.591 275.731L115.18 277.141C78.7325 313.57 80.5655 373.251 119.18 407.369L133.209 419.765C152.715 436.999 177.833 446.51 203.846 446.51Z" fill="#E7E8FF"/>
<path d="M490.847 399.281C491.137 421.35 476.131 439.984 468.51 446.51H456.831C465.513 417.064 479.868 402.422 487.912 397.55C489.251 396.738 490.826 397.712 490.847 399.281Z" fill="#032068"/>
<path d="M492.081 326.872C504.046 371.998 473.887 425.443 460.918 445.338H434.639C445.927 360.195 464.851 339.502 488.775 325.519C490.06 324.768 491.699 325.431 492.081 326.872Z" fill="white"/>
<path fill-rule="evenodd" clip-rule="evenodd" d="M489.363 326.531C489.995 326.162 490.772 326.493 490.952 327.173C496.847 349.404 492.381 373.78 484.75 395.172C477.261 416.168 466.773 434.15 460.285 444.167H435.974C441.592 402.424 449.059 376.489 458.004 359.285C467.012 341.961 477.544 333.439 489.363 326.531ZM493.21 326.571C492.626 324.368 490.125 323.374 488.187 324.507C476.083 331.582 465.19 340.398 455.933 358.202C446.708 375.944 439.132 402.561 433.482 445.184L433.306 446.51H461.55L461.896 445.979C468.409 435.988 479.242 417.567 486.949 395.961C494.649 374.375 499.28 349.466 493.21 326.571Z" fill="#032068"/>
<path d="M449.709 354.634C460.044 392.45 448.214 431.749 440.479 446.51H421.208C416.873 400.421 434.491 366.906 446.075 353.731C447.218 352.431 449.253 352.963 449.709 354.634Z" fill="#032068"/>
<path fill-rule="evenodd" clip-rule="evenodd" d="M475.722 358.982L482.009 341.265L484.209 342.051L469.81 382.631L479.269 379.782L479.941 382.026L468.838 385.37L455.742 422.277L467.529 417.881L468.343 420.077L454.719 425.158L447.419 445.731L445.219 444.945L460.045 403.163L454.562 387.741L456.763 386.954L461.283 399.672L474.398 362.714L470.311 349.023L472.549 348.351L475.722 358.982Z" fill="#032068"/>
<path fill-rule="evenodd" clip-rule="evenodd" d="M439.855 384.831L442.834 368.393L445.132 368.813L439.085 402.177L446.943 398.026L448.031 400.099L438.554 405.105L433.367 433.722L439.864 428.601L441.307 430.444L432.737 437.198L431.117 446.134L428.819 445.714L432.973 422.795L426.121 413.834L427.975 412.408L433.537 419.682L439.332 387.714L433.783 381.7L435.497 380.108L439.855 384.831Z" fill="white"/>
<path d="M237.443 103.851C237.443 95.6521 244.09 89.0056 252.289 89.0056H419.299C427.498 89.0056 434.145 95.6521 434.145 103.851V430.681C434.145 438.88 427.498 445.527 419.299 445.527H252.289C244.09 445.527 237.443 438.88 237.443 430.681V103.851Z" fill="white"/>
<path fill-rule="evenodd" clip-rule="evenodd" d="M236.206 103.851C236.206 94.9688 243.406 87.7684 252.289 87.7684H419.299C428.181 87.7684 435.381 94.9688 435.381 103.851V430.681C435.381 439.563 428.181 446.764 419.299 446.764H252.289C243.406 446.764 236.206 439.563 236.206 430.681V103.851ZM252.289 90.2427C244.773 90.2427 238.68 96.3353 238.68 103.851V430.681C238.68 438.197 244.773 444.289 252.289 444.289H419.299C426.815 444.289 432.907 438.197 432.907 430.681V103.851C432.907 96.3353 426.815 90.2427 419.299 90.2427H252.289Z" fill="#032068"/>
<path d="M258.475 325.272C258.475 334.838 266.229 342.592 275.794 342.592C279.098 342.592 282.185 341.667 284.812 340.062L289.843 341.847C290.758 342.171 291.674 341.363 291.464 340.414L290.234 334.839C292.054 332.098 293.114 328.809 293.114 325.272C293.114 315.707 285.36 307.953 275.794 307.953C266.229 307.953 258.475 315.707 258.475 325.272Z" fill="white"/>
<path fill-rule="evenodd" clip-rule="evenodd" d="M275.794 309.19C266.912 309.19 259.712 316.39 259.712 325.273C259.712 334.155 266.912 341.355 275.794 341.355C278.864 341.355 281.729 340.496 284.167 339.007L284.67 338.699L290.256 340.681L288.913 334.592L289.203 334.155C290.893 331.61 291.877 328.558 291.877 325.273C291.877 316.39 284.676 309.19 275.794 309.19ZM257.237 325.273C257.237 315.024 265.545 306.716 275.794 306.716C286.043 306.716 294.351 315.024 294.351 325.273C294.351 328.869 293.326 332.23 291.553 335.075L292.672 340.148C293.091 342.045 291.26 343.662 289.429 343.013L284.942 341.421C282.241 342.954 279.118 343.829 275.794 343.829C265.545 343.829 257.237 335.521 257.237 325.273Z" fill="#032068"/>
<path d="M284.817 319.636C285.514 323.119 282.815 327.618 281.378 329.431C278.891 332.571 275.41 335.304 273.125 335.326C266.271 335.391 266.647 331.233 267.057 330.606C267.466 329.979 270.137 326.838 272.231 328.687C274.326 330.537 276.186 329.481 278.449 327.174C280.712 324.868 280.279 323.003 278.396 321.566C276.512 320.13 278.768 316.993 279.794 315.737C280.821 314.481 283.945 315.282 284.817 319.636Z" fill="#F4AD5E"/>
<path d="M296.648 100.896L290.306 89.005H381.28L373.819 101.439C371.584 105.166 367.557 107.446 363.211 107.446H307.563C302.995 107.446 298.798 104.928 296.648 100.896Z" fill="#032068"/>
<path d="M431.731 96.3813H238.601C244.993 89.9885 251.099 88.8001 253.353 89.005H416.979C424.847 89.005 430.092 93.9225 431.731 96.3813Z" fill="#032068"/>
<path d="M431.641 438.535H239.951C246.595 445.032 250.434 446.239 252.777 446.031H418.815C426.992 446.031 429.937 441.034 431.641 438.535Z" fill="#032068"/>
<path d="M294.351 142.18C294.351 140.13 296.012 138.468 298.062 138.468H371.052C373.101 138.468 374.763 140.13 374.763 142.18C374.763 144.229 373.101 145.891 371.052 145.891H298.062C296.012 145.891 294.351 144.229 294.351 142.18Z" fill="#F4AD5E"/>
<path d="M306.722 212.077C306.722 211.052 307.552 210.221 308.577 210.221H376.619C377.644 210.221 378.474 211.052 378.474 212.077C378.474 213.101 377.644 213.932 376.619 213.932H308.577C307.552 213.932 306.722 213.101 306.722 212.077Z" fill="#E7E8FF"/>
<path d="M306.722 268.984C306.722 267.959 307.552 267.128 308.577 267.128H376.619C377.644 267.128 378.474 267.959 378.474 268.984C378.474 270.009 377.644 270.84 376.619 270.84H308.577C307.552 270.84 306.722 270.009 306.722 268.984Z" fill="#E7E8FF"/>
<path d="M306.722 325.891C306.722 324.866 307.552 324.035 308.577 324.035H376.619C377.644 324.035 378.474 324.866 378.474 325.891C378.474 326.916 377.644 327.747 376.619 327.747H308.577C307.552 327.747 306.722 326.916 306.722 325.891Z" fill="#E7E8FF"/>
<path d="M306.722 382.798C306.722 381.774 307.552 380.943 308.577 380.943H376.619C377.644 380.943 378.474 381.774 378.474 382.798C378.474 383.823 377.644 384.654 376.619 384.654H308.577C307.552 384.654 306.722 383.823 306.722 382.798Z" fill="#E7E8FF"/>
<path d="M251.052 171.549C251.052 170.524 251.883 169.693 252.907 169.693H418.681C419.706 169.693 420.536 170.524 420.536 171.549C420.536 172.574 419.706 173.405 418.681 173.405H252.907C251.883 173.405 251.052 172.574 251.052 171.549Z" fill="#E7E8FF"/>
<path d="M251.052 421.446C251.052 420.421 251.883 419.591 252.907 419.591H418.681C419.706 419.591 420.536 420.421 420.536 421.446C420.536 422.471 419.706 423.302 418.681 423.302H252.907C251.883 423.302 251.052 422.471 251.052 421.446Z" fill="#E7E8FF"/>
<path fill-rule="evenodd" clip-rule="evenodd" d="M422.083 106.989V117.108H419.609V106.989H422.083Z" fill="#032068"/>
<path fill-rule="evenodd" clip-rule="evenodd" d="M415.759 108.254V117.108H413.285V108.254H415.759Z" fill="#032068"/>
<path fill-rule="evenodd" clip-rule="evenodd" d="M409.435 110.784V117.108H406.96V110.784H409.435Z" fill="#032068"/>
<path fill-rule="evenodd" clip-rule="evenodd" d="M403.11 113.313V117.108H400.636V113.313H403.11Z" fill="#032068"/>
<path d="M394.557 264.654C394.557 262.604 396.219 260.943 398.268 260.943H416.825C418.875 260.943 420.537 262.604 420.537 264.654V272.077C420.537 274.126 418.875 275.788 416.825 275.788H398.268C396.219 275.788 394.557 274.126 394.557 272.077V264.654Z" fill="white"/>
<path fill-rule="evenodd" clip-rule="evenodd" d="M393.32 264.654C393.32 261.921 395.535 259.705 398.268 259.705H416.825C419.558 259.705 421.773 261.921 421.773 264.654V272.077C421.773 274.81 419.558 277.025 416.825 277.025H398.268C395.535 277.025 393.32 274.81 393.32 272.077V264.654ZM398.268 262.18C396.902 262.18 395.794 263.287 395.794 264.654V272.077C395.794 273.443 396.902 274.551 398.268 274.551H416.825C418.191 274.551 419.299 273.443 419.299 272.077V264.654C419.299 263.287 418.191 262.18 416.825 262.18H398.268Z" fill="#032068"/>
<path d="M409.402 264.654C409.402 262.604 411.064 260.943 413.114 260.943H416.825C418.875 260.943 420.536 262.604 420.536 264.654V272.077C420.536 274.126 418.875 275.788 416.825 275.788H413.114C411.064 275.788 409.402 274.126 409.402 272.077V264.654Z" fill="#F4AD5E"/>
<path fill-rule="evenodd" clip-rule="evenodd" d="M408.165 264.654C408.165 261.921 410.381 259.705 413.113 259.705H416.825C419.558 259.705 421.773 261.921 421.773 264.654V272.077C421.773 274.81 419.558 277.025 416.825 277.025H413.113C410.381 277.025 408.165 274.81 408.165 272.077V264.654ZM413.113 262.18C411.747 262.18 410.639 263.287 410.639 264.654V272.077C410.639 273.443 411.747 274.551 413.113 274.551H416.825C418.191 274.551 419.299 273.443 419.299 272.077V264.654C419.299 263.287 418.191 262.18 416.825 262.18H413.113Z" fill="#032068"/>
<path d="M394.557 321.561C394.557 319.511 396.219 317.85 398.268 317.85H416.825C418.875 317.85 420.537 319.511 420.537 321.561V328.984C420.537 331.034 418.875 332.695 416.825 332.695H398.268C396.219 332.695 394.557 331.034 394.557 328.984V321.561Z" fill="white"/>
<path fill-rule="evenodd" clip-rule="evenodd" d="M393.32 321.561C393.32 318.828 395.535 316.613 398.268 316.613H416.825C419.558 316.613 421.773 318.828 421.773 321.561V328.984C421.773 331.717 419.558 333.932 416.825 333.932H398.268C395.535 333.932 393.32 331.717 393.32 328.984V321.561ZM398.268 319.087C396.902 319.087 395.794 320.195 395.794 321.561V328.984C395.794 330.35 396.902 331.458 398.268 331.458H416.825C418.191 331.458 419.299 330.35 419.299 328.984V321.561C419.299 320.195 418.191 319.087 416.825 319.087H398.268Z" fill="#032068"/>
<path d="M394.557 321.561C394.557 319.511 396.219 317.85 398.268 317.85H401.98C404.03 317.85 405.691 319.511 405.691 321.561V328.984C405.691 331.034 404.03 332.695 401.98 332.695H398.268C396.219 332.695 394.557 331.034 394.557 328.984V321.561Z" fill="#032068"/>
<path fill-rule="evenodd" clip-rule="evenodd" d="M393.32 321.561C393.32 318.828 395.535 316.613 398.268 316.613H401.98C404.713 316.613 406.928 318.828 406.928 321.561V328.984C406.928 331.717 404.713 333.932 401.98 333.932H398.268C395.535 333.932 393.32 331.717 393.32 328.984V321.561ZM398.268 319.087C396.902 319.087 395.794 320.195 395.794 321.561V328.984C395.794 330.35 396.902 331.458 398.268 331.458H401.98C403.346 331.458 404.454 330.35 404.454 328.984V321.561C404.454 320.195 403.346 319.087 401.98 319.087H398.268Z" fill="#032068"/>
<path d="M394.557 379.705C394.557 377.656 396.219 375.994 398.268 375.994H416.825C418.875 375.994 420.537 377.656 420.537 379.705V387.128C420.537 389.178 418.875 390.84 416.825 390.84H398.268C396.219 390.84 394.557 389.178 394.557 387.128V379.705Z" fill="white"/>
<path fill-rule="evenodd" clip-rule="evenodd" d="M393.32 379.706C393.32 376.973 395.535 374.757 398.268 374.757H416.825C419.558 374.757 421.773 376.973 421.773 379.706V387.128C421.773 389.861 419.558 392.077 416.825 392.077H398.268C395.535 392.077 393.32 389.861 393.32 387.128V379.706ZM398.268 377.231C396.902 377.231 395.794 378.339 395.794 379.706V387.128C395.794 388.495 396.902 389.602 398.268 389.602H416.825C418.191 389.602 419.299 388.495 419.299 387.128V379.706C419.299 378.339 418.191 377.231 416.825 377.231H398.268Z" fill="#032068"/>
<path d="M394.557 379.705C394.557 377.656 396.219 375.994 398.268 375.994H401.98C404.03 375.994 405.691 377.656 405.691 379.705V387.128C405.691 389.178 404.03 390.84 401.98 390.84H398.268C396.219 390.84 394.557 389.178 394.557 387.128V379.705Z" fill="#032068"/>
<path fill-rule="evenodd" clip-rule="evenodd" d="M393.32 379.706C393.32 376.973 395.535 374.757 398.268 374.757H401.98C404.713 374.757 406.928 376.973 406.928 379.706V387.128C406.928 389.861 404.713 392.077 401.98 392.077H398.268C395.535 392.077 393.32 389.861 393.32 387.128V379.706ZM398.268 377.231C396.902 377.231 395.794 378.339 395.794 379.706V387.128C395.794 388.495 396.902 389.602 398.268 389.602H401.98C403.346 389.602 404.454 388.495 404.454 387.128V379.706C404.454 378.339 403.346 377.231 401.98 377.231H398.268Z" fill="#032068"/>
<path d="M394.557 208.984C394.557 206.934 396.219 205.272 398.268 205.272H416.825C418.875 205.272 420.537 206.934 420.537 208.984V216.406C420.537 218.456 418.875 220.118 416.825 220.118H398.268C396.219 220.118 394.557 218.456 394.557 216.406V208.984Z" fill="white"/>
<path fill-rule="evenodd" clip-rule="evenodd" d="M393.32 208.984C393.32 206.251 395.535 204.035 398.268 204.035H416.825C419.558 204.035 421.773 206.251 421.773 208.984V216.407C421.773 219.14 419.558 221.355 416.825 221.355H398.268C395.535 221.355 393.32 219.14 393.32 216.407V208.984ZM398.268 206.51C396.902 206.51 395.794 207.617 395.794 208.984V216.407C395.794 217.773 396.902 218.881 398.268 218.881H416.825C418.191 218.881 419.299 217.773 419.299 216.407V208.984C419.299 207.617 418.191 206.51 416.825 206.51H398.268Z" fill="#032068"/>
<path d="M394.557 208.984C394.557 206.934 396.219 205.272 398.268 205.272H401.98C404.03 205.272 405.691 206.934 405.691 208.984V216.406C405.691 218.456 404.03 220.118 401.98 220.118H398.268C396.219 220.118 394.557 218.456 394.557 216.406V208.984Z" fill="#032068"/>
<path fill-rule="evenodd" clip-rule="evenodd" d="M393.32 208.984C393.32 206.251 395.535 204.035 398.268 204.035H401.98C404.713 204.035 406.928 206.251 406.928 208.984V216.407C406.928 219.14 404.713 221.355 401.98 221.355H398.268C395.535 221.355 393.32 219.14 393.32 216.407V208.984ZM398.268 206.51C396.902 206.51 395.794 207.617 395.794 208.984V216.407C395.794 217.773 396.902 218.881 398.268 218.881H401.98C403.346 218.881 404.454 217.773 404.454 216.407V208.984C404.454 207.617 403.346 206.51 401.98 206.51H398.268Z" fill="#032068"/>
<path d="M257.237 260.943C257.237 258.893 258.899 257.231 260.949 257.231H289.402C291.452 257.231 293.114 258.893 293.114 260.943V277.025C293.114 279.075 291.452 280.736 289.402 280.736H260.949C258.899 280.736 257.237 279.075 257.237 277.025V260.943Z" fill="white"/>
<path fill-rule="evenodd" clip-rule="evenodd" d="M256 260.943C256 258.21 258.215 255.994 260.948 255.994H289.402C292.135 255.994 294.351 258.21 294.351 260.943V277.025C294.351 279.758 292.135 281.974 289.402 281.974H260.948C258.215 281.974 256 279.758 256 277.025V260.943ZM260.948 258.468C259.582 258.468 258.474 259.576 258.474 260.943V277.025C258.474 278.392 259.582 279.499 260.948 279.499H289.402C290.769 279.499 291.876 278.392 291.876 277.025V260.943C291.876 259.576 290.769 258.468 289.402 258.468H260.948Z" fill="#032068"/>
<path fill-rule="evenodd" clip-rule="evenodd" d="M271.406 268.984L263.901 263.157L265.419 261.203L275.176 268.778L284.932 261.203L286.45 263.157L278.883 269.032L285.656 274.85L284.044 276.727L276.889 270.581L276.693 270.733C275.8 271.426 274.551 271.426 273.658 270.733L273.423 270.55L265.419 276.765L263.901 274.811L271.406 268.984Z" fill="#F4AD5E"/>
<path fill-rule="evenodd" clip-rule="evenodd" d="M275.175 195.376C265.952 195.376 258.474 202.853 258.474 212.077C258.474 221.3 265.952 228.778 275.175 228.778C284.399 228.778 291.876 221.3 291.876 212.077C291.876 202.853 284.399 195.376 275.175 195.376ZM256 212.077C256 201.486 264.585 192.901 275.175 192.901C285.765 192.901 294.351 201.486 294.351 212.077C294.351 222.667 285.765 231.252 275.175 231.252C264.585 231.252 256 222.667 256 212.077Z" fill="#032068"/>
<path d="M282.755 210.772L272.691 205.08C271.867 204.613 270.845 205.209 270.845 206.156V218.965C270.845 219.969 271.977 220.555 272.797 219.975L282.86 212.859C283.601 212.335 283.545 211.219 282.755 210.772Z" fill="#F4AD5E"/>
<path d="M260.949 373.52C260.949 371.47 262.61 369.809 264.66 369.809H285.691C287.741 369.809 289.402 371.47 289.402 373.52V394.551C289.402 396.601 287.741 398.262 285.691 398.262H264.66C262.61 398.262 260.949 396.601 260.949 394.551V373.52Z" fill="white"/>
<path fill-rule="evenodd" clip-rule="evenodd" d="M259.711 373.52C259.711 370.787 261.927 368.572 264.66 368.572H285.691C288.424 368.572 290.639 370.787 290.639 373.52V394.551C290.639 397.284 288.424 399.499 285.691 399.499H264.66C261.927 399.499 259.711 397.284 259.711 394.551V373.52ZM264.66 371.046C263.293 371.046 262.186 372.154 262.186 373.52V394.551C262.186 395.917 263.293 397.025 264.66 397.025H285.691C287.057 397.025 288.165 395.917 288.165 394.551V373.52C288.165 372.154 287.057 371.046 285.691 371.046H264.66Z" fill="#032068"/>
<path d="M281.979 384.035C281.979 387.793 278.933 390.84 275.175 390.84C271.417 390.84 268.371 387.793 268.371 384.035C268.371 380.278 271.417 377.231 275.175 377.231C278.933 377.231 281.979 380.278 281.979 384.035Z" fill="#F4AD5E"/>
<path d="M285.691 375.376C285.691 376.401 284.86 377.231 283.835 377.231C282.81 377.231 281.979 376.401 281.979 375.376C281.979 374.351 282.81 373.52 283.835 373.52C284.86 373.52 285.691 374.351 285.691 375.376Z" fill="#F4AD5E"/>
<path d="M94.6697 293.108L92.1955 306.097L94.6697 319.706C101.061 320.53 114.092 322.18 115.082 322.18C116.072 322.18 123.329 315.994 126.835 312.901L123.123 293.108C133.515 289.644 136.938 274.345 137.35 267.128C139.824 237.437 120.031 233.726 116.319 233.726C112.608 233.726 89.1027 233.726 86.0099 258.468C83.5357 278.262 90.7522 289.809 94.6697 293.108Z" fill="#EFCB96"/>
<path d="M111.177 293.108C116.938 295.028 121.779 293.908 123.779 293.108L124.979 300.309C117.298 299.349 112.777 295.308 111.177 293.108Z" fill="#032068"/>
<path d="M109.515 314.139C97.1442 314.139 91.9896 306.716 90.3401 303.005L86.0103 304.242L113.227 445.273H117.557H183.742L142.299 311.664L128.072 303.005H126.216C125.392 306.716 121.886 314.139 109.515 314.139Z" fill="white"/>
<path fill-rule="evenodd" clip-rule="evenodd" d="M91.0337 301.52L91.4703 302.502C92.9848 305.91 97.7722 312.901 109.515 312.901C115.434 312.901 119.091 311.134 121.359 309.052C123.649 306.948 124.635 304.418 125.008 302.736L125.224 301.767H128.419L143.342 310.851L185.421 446.51H112.205L84.5806 303.363L91.0337 301.52ZM127.171 304.242C126.586 306.196 125.382 308.717 123.032 310.874C120.248 313.431 115.967 315.376 109.515 315.376C97.4996 315.376 91.8725 308.666 89.6804 304.48L87.4394 305.12L114.248 444.036H182.063L141.256 312.478L127.725 304.242H127.171Z" fill="#032068"/>
<path d="M110.752 376.613C107.288 354.345 95.2884 317.85 89.7214 302.386C79.206 304.242 55.8245 311.417 46.4224 325.272C37.0203 339.128 24.3605 385.066 19.2059 406.303C13.6389 425.479 13.6389 446.51 34.6698 446.51H129.928C139.825 427.334 136.732 418.056 133.639 414.345C131.165 411.376 120.188 408.984 115.009 408.159C113.663 397.079 112.183 385.809 110.752 376.613Z" fill="#F4AD5E"/>
<path d="M150.958 376.613C147 351.87 133.639 316.819 127.453 302.386C134.67 302.798 151.577 306.221 161.474 316.613C173.845 329.602 193.639 377.85 197.35 382.798C204.773 391.458 261.725 414.517 262.917 418.675C267.866 425.479 262.299 443.417 256.113 446.51H159C157.969 433.108 154.917 401.355 150.958 376.613Z" fill="#F4AD5E"/>
<path d="M76.1132 398.881L85.3916 361.149L82.9174 398.262L128.864 409.887C132.321 410.762 135.483 412.912 136.488 416.333C139.595 426.917 134.879 439.172 131.165 443.417C134.953 439.087 134.876 418.056 130.546 414.963C127.082 412.489 84.1545 404.448 63.1235 400.736L76.1132 398.881Z" fill="#032068"/>
<path d="M168.278 351.252L191.165 446.51H201.062L168.278 351.252Z" fill="#032068"/>
<path d="M174.464 446.51C174.464 429.685 149.515 424.654 137.35 424.242C137.35 432.654 133.021 440.943 129.309 446.51H174.464Z" fill="#EFCB96"/>
<path d="M294.464 446.51C294.464 431.554 274.82 426.464 264.155 426.097C264.155 433.575 259.263 443.028 256.732 446.51H294.464Z" fill="#EFCB96"/>
<path d="M90.9587 261.561C88.4844 268.489 95.2886 272.695 98.9999 273.932L92.8143 305.479L91.5772 303.004C77.3504 304.242 64.1545 310.427 58.7937 314.138C55.7009 294.963 67.4535 286.922 74.2576 272.077C81.0617 257.231 75.4947 222.592 110.134 222.592C137.845 222.592 141.887 247.334 140.443 259.705C128.072 256.242 120.856 243.417 118.794 237.437C117.557 240.53 107.041 268.365 103.33 261.561C99.6185 254.757 94.0514 252.901 90.9587 261.561Z" fill="#032068"/>
<path d="M149.103 308.571C140.691 300.159 137.35 280.736 136.732 272.077C134.752 286.427 126.835 292.077 123.124 293.108L124.979 303.004C135.866 302.51 145.598 306.51 149.103 308.571Z" fill="#032068"/>
<path d="M43.3299 446.51C40.3609 426.716 25.3917 414.139 17.969 410.633C13.9586 426.807 14.8763 446.51 32.1959 446.51H43.3299Z" fill="#032068"/>
<path d="M250.869 352.334L216.335 430.755C214.601 434.692 217.484 439.112 221.786 439.112H327.165C329.585 439.112 331.764 437.648 332.679 435.407L364.695 356.985C366.295 353.067 363.413 348.778 359.181 348.778H256.32C253.959 348.778 251.82 350.173 250.869 352.334Z" fill="white"/>
<path fill-rule="evenodd" clip-rule="evenodd" d="M256.32 350.015C254.449 350.015 252.755 351.12 252.001 352.832L217.466 431.254C216.093 434.373 218.377 437.875 221.785 437.875H327.164C329.082 437.875 330.809 436.715 331.533 434.94L363.55 356.518C364.817 353.414 362.534 350.015 359.181 350.015H256.32ZM249.736 351.835C250.886 349.225 253.468 347.541 256.32 347.541H359.181C364.291 347.541 367.772 352.721 365.84 357.453L333.824 435.875C332.719 438.581 330.087 440.349 327.164 440.349H221.785C216.59 440.349 213.108 435.011 215.202 430.257L249.736 351.835Z" fill="#032068"/>
<path d="M283.056 387.671C284.993 383.18 289.416 380.271 294.307 380.271C303.115 380.271 309.045 389.287 305.557 397.375L304.688 399.39C302.751 403.882 298.329 406.791 293.437 406.791C284.629 406.791 278.699 397.775 282.187 389.687L283.056 387.671Z" fill="#F4AD5E"/>
<path d="M325.51 446.571H142.624C139.649 446.571 137.237 444.159 137.237 441.184C137.237 438.209 139.649 435.797 142.624 435.797H325.51C329.37 435.797 331.978 439.738 330.468 443.29C329.623 445.279 327.671 446.571 325.51 446.571Z" fill="#032068"/>
<path d="M96.5028 129.196L92.7728 123.565C92.1086 122.563 90.5488 123.002 90.5052 124.204L90.2662 130.795C90.2517 131.194 90.0458 131.561 89.7131 131.782L83.6958 135.768C82.7267 136.41 83.0978 137.913 84.2543 138.03L91.5129 138.765C91.8658 138.801 92.1864 138.987 92.3933 139.275L97.067 145.786C97.7612 146.753 99.2869 146.278 99.3089 145.088L99.4483 137.574C99.4551 137.208 99.6237 136.864 99.9086 136.634L106.272 131.502C107.208 130.747 106.626 129.236 105.426 129.304L97.6043 129.748C97.1651 129.773 96.7458 129.563 96.5028 129.196Z" fill="#F4AD5E"/>
<path d="M53.465 200.575L51.596 199.451C50.5654 198.831 49.3455 199.897 49.8226 201.001L50.6622 202.945C50.8205 203.311 50.7923 203.731 50.5866 204.073L49.223 206.34C48.6238 207.336 49.6046 208.533 50.6993 208.142L53.2635 207.226C53.5975 207.107 53.9667 207.137 54.2773 207.308L56.944 208.779C57.9862 209.354 59.1598 208.27 58.6684 207.185L57.5375 204.69C57.3863 204.357 57.3907 203.974 57.5492 203.644L58.885 200.864C59.4059 199.781 58.2308 198.666 57.176 199.243L54.6967 200.6C54.3108 200.812 53.8419 200.802 53.465 200.575Z" fill="#F4AD5E"/>
<path d="M194.014 257.669L187.484 265.978C187.086 266.483 186.439 266.726 185.804 266.608L177.733 265.106C175.997 264.783 174.949 266.951 176.289 268.094L182.632 273.506C183.095 273.901 183.314 274.51 183.208 275.107L181.616 284.032C181.317 285.709 183.396 286.748 184.574 285.509L191.09 278.65C191.472 278.248 192.027 278.053 192.579 278.128L200.12 279.148C201.819 279.378 202.781 277.275 201.489 276.155L195.881 271.293C195.431 270.903 195.215 270.309 195.312 269.723L197.08 259.003C197.369 257.249 195.115 256.269 194.014 257.669Z" fill="#F4AD5E"/>
<path d="M190.815 189.423C190.815 196.127 185.362 201.561 178.635 201.561C171.908 201.561 166.455 196.127 166.455 189.423C166.455 182.72 171.908 177.285 178.635 177.285C185.362 177.285 190.815 182.72 190.815 189.423Z" fill="#F4AD5E"/>
<path d="M146.645 190.701H212.548C213.5 190.701 214.15 189.744 213.797 188.864L211.099 182.144C209.134 177.246 208.124 172.02 208.124 166.745V156.523C208.124 140.823 195.352 128.095 179.597 128.095C163.842 128.095 151.07 140.823 151.07 156.523V166.745C151.07 172.02 150.06 177.246 148.095 182.144L145.397 188.864C145.044 189.744 145.694 190.701 146.645 190.701Z" fill="#032068"/>
<path d="M215.175 138.955C215.175 147.423 208.287 154.287 199.79 154.287C191.293 154.287 184.405 147.423 184.405 138.955C184.405 130.487 191.293 123.623 199.79 123.623C208.287 123.623 215.175 130.487 215.175 138.955Z" fill="white"/>
<path fill-rule="evenodd" clip-rule="evenodd" d="M199.79 124.265C191.649 124.265 185.049 130.842 185.049 138.955C185.049 147.068 191.649 153.645 199.79 153.645C207.931 153.645 214.531 147.068 214.531 138.955C214.531 130.842 207.931 124.265 199.79 124.265ZM183.761 138.955C183.761 130.133 190.937 122.981 199.79 122.981C208.643 122.981 215.82 130.133 215.82 138.955C215.82 147.777 208.643 154.929 199.79 154.929C190.937 154.929 183.761 147.777 183.761 138.955Z" fill="#032068"/>
<path fill-rule="evenodd" clip-rule="evenodd" d="M197.614 139.937C197.865 139.687 197.865 139.28 197.614 139.029L192.223 133.657C191.971 133.407 191.971 133 192.223 132.749L193.563 131.414C193.814 131.163 194.222 131.163 194.474 131.414L199.864 136.786C200.116 137.037 200.524 137.037 200.776 136.786L206.166 131.414C206.418 131.163 206.826 131.163 207.078 131.414L208.417 132.749C208.669 133 208.669 133.407 208.417 133.657L203.026 139.029C202.775 139.28 202.775 139.687 203.026 139.937L208.417 145.31C208.669 145.56 208.669 145.967 208.417 146.218L207.078 147.553C206.826 147.803 206.418 147.803 206.166 147.553L200.776 142.181C200.524 141.93 200.116 141.93 199.864 142.181L194.474 147.553C194.222 147.803 193.814 147.803 193.563 147.553L192.223 146.218C191.971 145.967 191.971 145.56 192.223 145.31L197.614 139.937Z" fill="#F4AD5E"/>
</svg>
