<svg width="512" height="512" viewBox="0 0 512 512" fill="none" xmlns="http://www.w3.org/2000/svg">
<path d="M98.115 439.24H423.281C470.212 439.24 501.615 391.071 482.578 348.283C476.183 333.911 475.254 317.707 479.964 302.701L492.737 262.009C506.05 219.593 477.151 175.627 432.846 170.892L428.281 170.404C401.325 167.523 379.098 148.046 372.759 121.754C361.194 73.776 301.826 56.3742 266.076 90.4833L246.688 108.982C228.901 125.953 204.115 133.532 179.849 129.419L176.298 128.818C126.113 120.313 82.1325 162.957 89.2343 213.235C93.0919 240.546 81.6129 267.766 59.3435 284.114L49.4455 291.381C30.6513 305.178 18.6307 326.3 16.3877 349.469C11.7292 397.587 49.6497 439.24 98.115 439.24Z" fill="#E7E8FF"/>
<path d="M238.593 152.609C238.593 147.062 243.079 142.564 248.613 142.564H432.114C437.648 142.564 442.134 147.062 442.134 152.609V388.417C442.134 393.965 437.648 398.462 432.114 398.462H248.613C243.079 398.462 238.593 393.965 238.593 388.417V152.609Z" fill="white"/>
<path fill-rule="evenodd" clip-rule="evenodd" d="M237.091 152.609C237.091 146.23 242.249 141.059 248.613 141.059H432.114C438.478 141.059 443.636 146.23 443.636 152.609V388.417C443.636 394.796 438.478 399.968 432.114 399.968H248.613C242.249 399.968 237.091 394.796 237.091 388.417V152.609ZM248.613 144.07C243.908 144.07 240.095 147.893 240.095 152.609V388.417C240.095 393.133 243.908 396.956 248.613 396.956H432.114C436.819 396.956 440.632 393.133 440.632 388.417V152.609C440.632 147.893 436.819 144.07 432.114 144.07H248.613Z" fill="#032068"/>
<path d="M238.593 152.609C238.593 147.062 243.079 142.564 248.613 142.564H432.114C437.648 142.564 442.134 147.062 442.134 152.609V177.687H238.593V152.609Z" fill="#032068"/>
<path d="M270.292 160.125C270.292 164.282 266.931 167.652 262.785 167.652C258.638 167.652 255.277 164.282 255.277 160.125C255.277 155.969 258.638 152.599 262.785 152.599C266.931 152.599 270.292 155.969 270.292 160.125Z" fill="white"/>
<path d="M295.319 160.125C295.319 164.282 291.958 167.652 287.811 167.652C283.665 167.652 280.304 164.282 280.304 160.125C280.304 155.969 283.665 152.599 287.811 152.599C291.958 152.599 295.319 155.969 295.319 160.125Z" fill="white"/>
<path d="M320.344 160.125C320.344 164.282 316.983 167.652 312.836 167.652C308.69 167.652 305.329 164.282 305.329 160.125C305.329 155.969 308.69 152.599 312.836 152.599C316.983 152.599 320.344 155.969 320.344 160.125Z" fill="white"/>
<path fill-rule="evenodd" clip-rule="evenodd" d="M410.525 212.393H325.333V209.382H410.525V212.393Z" fill="#E7E8FF"/>
<path fill-rule="evenodd" clip-rule="evenodd" d="M410.525 277.611H325.333V274.599H410.525V277.611Z" fill="#E7E8FF"/>
<path fill-rule="evenodd" clip-rule="evenodd" d="M410.525 347.487H325.333V344.475H410.525V347.487Z" fill="#E7E8FF"/>
<path fill-rule="evenodd" clip-rule="evenodd" d="M410.525 231.027H325.333V228.015H410.525V231.027Z" fill="#E7E8FF"/>
<path fill-rule="evenodd" clip-rule="evenodd" d="M410.525 296.244H325.333V293.233H410.525V296.244Z" fill="#E7E8FF"/>
<path fill-rule="evenodd" clip-rule="evenodd" d="M410.525 366.12H325.333V363.109H410.525V366.12Z" fill="#E7E8FF"/>
<path d="M268.022 210.063C268.022 204.515 272.509 200.018 278.043 200.018H296.726C302.26 200.018 306.746 204.515 306.746 210.063V228.793C306.746 234.341 302.26 238.838 296.726 238.838H278.043C272.509 238.838 268.022 234.341 268.022 228.793V210.063Z" fill="#F4AD5E"/>
<path fill-rule="evenodd" clip-rule="evenodd" d="M266.019 278.386C266.019 271.729 271.402 266.332 278.043 266.332H296.726C303.367 266.332 308.75 271.729 308.75 278.386V297.116C308.75 303.773 303.367 309.17 296.726 309.17H278.043C271.402 309.17 266.019 303.773 266.019 297.116V278.386ZM278.043 270.35C273.616 270.35 270.027 273.948 270.027 278.386V297.116C270.027 301.554 273.616 305.152 278.043 305.152H296.726C301.153 305.152 304.742 301.554 304.742 297.116V278.386C304.742 273.948 301.153 270.35 296.726 270.35H278.043Z" fill="#F4AD5E"/>
<path fill-rule="evenodd" clip-rule="evenodd" d="M266.019 346.709C266.019 340.052 271.402 334.655 278.043 334.655H296.726C303.367 334.655 308.75 340.052 308.75 346.709V365.439C308.75 372.097 303.367 377.493 296.726 377.493H278.043C271.402 377.493 266.019 372.097 266.019 365.439V346.709ZM278.043 338.673C273.616 338.673 270.027 342.271 270.027 346.709V365.439C270.027 369.877 273.616 373.475 278.043 373.475H296.726C301.153 373.475 304.742 369.877 304.742 365.439V346.709C304.742 342.271 301.153 338.673 296.726 338.673H278.043Z" fill="#F4AD5E"/>
<path fill-rule="evenodd" clip-rule="evenodd" d="M303.288 212.584L281.966 231.288L272.194 217.573L277.082 214.073L283 222.378L299.332 208.052L303.288 212.584Z" fill="white"/>
<path d="M477.998 397.034C463.149 397.034 451.187 423.884 447.062 437.308H457.116C470.264 423.884 492.846 397.034 477.998 397.034Z" fill="white"/>
<path fill-rule="evenodd" clip-rule="evenodd" d="M448.535 436.229H456.664C463.186 429.539 471.863 419.718 477.152 411.55C478.493 409.479 479.603 407.534 480.404 405.788C481.21 404.029 481.673 402.533 481.775 401.347C481.876 400.171 481.616 399.441 481.151 398.986C480.66 398.507 479.723 398.113 477.998 398.113C474.623 398.113 471.327 399.638 468.169 402.269C465.011 404.899 462.064 408.576 459.416 412.719C454.48 420.443 450.682 429.633 448.535 436.229ZM466.791 400.61C470.181 397.787 473.949 395.955 477.998 395.955C479.985 395.955 481.59 396.401 482.656 397.442C483.746 398.508 484.055 399.981 483.922 401.532C483.789 403.073 483.215 404.828 482.362 406.688C481.504 408.56 480.336 410.6 478.96 412.724C473.469 421.205 464.477 431.334 457.886 438.064L457.569 438.387H445.604L446.033 436.991C448.115 430.215 452.172 420.051 457.601 411.556C460.316 407.308 463.401 403.433 466.791 400.61Z" fill="#032068"/>
<path d="M474.131 342.045C447.527 337.088 431.08 404.521 426.182 438.857H450.156C469.233 408.652 500.735 347.002 474.131 342.045Z" fill="#032068"/>
<path fill-rule="evenodd" clip-rule="evenodd" d="M464.813 370.594L470.498 355.594L468.484 354.829L455.312 389.575L451.139 380.326L449.175 381.214L454.232 392.423L443.157 421.64L438.774 411.327L436.791 412.173L442.053 424.552L436.775 438.475L438.79 439.24L449.471 411.065L463.075 406.579L462.401 404.529L450.455 408.468L463.609 373.769L475.44 366.991L474.37 365.118L464.813 370.594Z" fill="white"/>
<path d="M286.145 302.651C286.145 305.519 283.03 310.419 281.473 312.51L283.341 323.266L297.358 325.059C301.096 320.577 312.309 318.785 315.112 311.614C317.355 305.878 311.063 299.663 307.637 298.17L319.119 282.751C320.537 280.846 320.21 278.161 318.377 276.653C316.548 275.15 313.864 275.347 312.273 277.101L296.424 294.584C296.424 295.182 295.863 295.122 293.62 290.103C290.817 283.829 288.014 286.518 286.145 287.414C284.276 288.31 286.145 299.066 286.145 302.651Z" fill="#EFCB96"/>
<path d="M135.187 248.557L132.565 263.376L135.573 278.826C142.846 279.672 157.674 281.359 158.798 281.345C159.922 281.331 168.077 274.186 172.014 270.615L167.51 248.143C179.265 244.049 182.931 226.589 183.295 218.37C185.674 184.545 163.134 180.609 158.918 180.664C154.702 180.718 127.999 181.06 124.845 209.262C122.322 231.825 130.688 244.86 135.187 248.557Z" fill="#EFCB96"/>
<path d="M153.388 272.017C139.333 272.017 134.214 262.743 132.34 257.58C130.44 257.873 125.774 258.827 123.068 259.262L142.386 358.344C143.931 386.985 142.147 411.54 142.386 438.074H167.885C168.4 421.045 165.567 379.244 165.567 358.344L179.475 259.262C175.921 258.579 173.22 258.54 170.976 258.488C170.039 263.651 167.443 272.017 153.388 272.017Z" fill="#F4AD5E"/>
<path d="M142.734 234.379C140.132 250.747 136.172 252.534 134.518 251.382C114.68 238.963 114.638 198.473 126.637 184.597C137.718 171.782 146.213 176.602 169.33 170.673C192.447 164.745 200.303 174.501 196.248 187.226C190.412 205.543 171.059 195.997 166.167 198.172C161.275 200.347 155.023 206.059 152.356 217.359C149.689 228.658 148.257 226.564 146.068 220.255C143.879 213.947 138.141 204.868 134.068 216.185C130.81 225.238 138.488 232.087 142.734 234.379Z" fill="#032068"/>
<path d="M46.57 356.796C61.406 304.159 74.3873 283.998 88.296 272.017C98.1769 263.506 111.264 259.982 121.291 258.149C123.142 257.811 124.897 259.036 125.301 260.877C129.725 281.025 141.069 316.93 146.249 356.796C147.794 385.437 147.556 411.54 147.794 438.074H84.4326C69.5893 438.074 28.0251 422.593 46.57 356.796Z" fill="white"/>
<path d="M221.555 282.577C211.622 268.248 195.489 261.28 183.324 258.342C181.411 257.88 179.557 259.17 179.22 261.112C174.496 288.303 162.705 338.79 160.93 358.344C160.93 379.244 161.446 421.045 160.93 438.074H234.634C235.216 422.65 235.252 408.197 234.811 394.726C257.519 394.726 299.245 338.218 300.79 333.574C302.336 328.929 289.972 305.707 279.927 307.255C268.337 311.899 246.701 336.67 243.906 329.703C241.67 324.13 228.074 295.963 221.555 282.577Z" fill="white"/>
<path fill-rule="evenodd" clip-rule="evenodd" d="M124.164 261.128C123.888 259.872 122.706 259.076 121.5 259.297C111.521 261.12 98.6916 264.6 89.0549 272.901C75.4107 284.654 62.5075 304.542 47.6902 357.113C38.4884 389.76 44.2614 409.651 53.8797 421.368C63.554 433.154 77.3035 436.908 84.4325 436.908H146.62C146.576 431.682 146.548 426.474 146.521 421.26C146.413 400.394 146.303 379.438 145.089 356.903C141.382 328.4 134.535 302.001 129.312 281.859C127.243 273.881 125.428 266.884 124.164 261.128ZM121.082 257.002C123.577 256.546 125.905 258.201 126.438 260.627C127.675 266.262 129.468 273.175 131.521 281.091C136.754 301.271 143.677 327.971 147.403 356.645L147.409 356.689L147.411 356.733C148.632 379.347 148.741 400.389 148.85 421.275C148.879 426.873 148.908 432.46 148.958 438.064L148.969 439.24H84.4325C76.7181 439.24 62.2638 435.254 52.0814 422.85C41.843 410.377 36.1064 389.628 45.4495 356.479C60.3041 303.776 73.3637 283.341 87.5369 271.133C97.6618 262.411 111.007 258.843 121.082 257.002ZM178.073 260.912C178.519 258.343 180.995 256.58 183.597 257.208C195.896 260.179 212.347 267.251 222.511 281.912L222.562 281.985L222.601 282.066C229.105 295.422 242.73 323.644 244.986 329.268C245.088 329.522 245.196 329.62 245.267 329.666C245.344 329.714 245.485 329.77 245.755 329.763C246.347 329.75 247.263 329.451 248.528 328.763C251.019 327.409 254.265 324.892 257.881 321.93C258.981 321.03 260.113 320.089 261.262 319.136C263.847 316.989 266.516 314.772 269.09 312.779C272.794 309.911 276.432 307.4 279.495 306.172L279.618 306.123L279.75 306.102C282.737 305.642 285.721 307.038 288.367 309.149C291.04 311.281 293.556 314.287 295.671 317.442C297.791 320.602 299.546 323.967 300.679 326.858C301.244 328.303 301.665 329.655 301.892 330.822C302.11 331.943 302.187 333.064 301.895 333.942C301.754 334.366 301.438 334.957 301.045 335.621C300.634 336.315 300.083 337.18 299.409 338.185C298.061 340.197 296.203 342.803 293.951 345.791C289.449 351.766 283.355 359.295 276.594 366.68C269.839 374.059 262.392 381.326 255.182 386.756C248.493 391.795 241.824 395.398 236.011 395.845C236.413 409.015 236.364 423.109 235.797 438.118L235.754 439.24H159.73L159.767 438.039C160.123 426.27 159.986 402.651 159.868 382.281C159.815 373.215 159.766 364.793 159.766 358.344V358.291L159.771 358.239C160.665 348.383 164.073 330.8 167.828 312.359C168.704 308.057 169.6 303.706 170.488 299.391C173.416 285.164 176.263 271.326 178.073 260.912ZM183.051 259.476C181.828 259.18 180.595 259.997 180.366 261.312C178.55 271.766 175.692 285.656 172.762 299.891C171.875 304.199 170.982 308.539 170.11 312.825C166.352 331.28 162.982 348.689 162.094 358.397C162.095 364.801 162.143 373.172 162.196 382.193C162.31 401.915 162.442 424.744 162.128 436.908H233.512C234.053 421.93 234.076 407.879 233.648 394.764L233.608 393.56H234.811C240.08 393.56 246.68 390.243 253.783 384.892C260.832 379.582 268.171 372.431 274.878 365.103C281.581 357.781 287.628 350.311 292.093 344.385C294.326 341.423 296.158 338.852 297.476 336.885C298.136 335.9 298.662 335.075 299.043 334.431C299.442 333.756 299.634 333.362 299.686 333.205C299.78 332.922 299.808 332.301 299.607 331.269C299.415 330.283 299.044 329.072 298.511 327.71C297.446 324.99 295.772 321.775 293.739 318.742C291.701 315.704 289.339 312.905 286.917 310.973C284.519 309.061 282.237 308.133 280.232 308.39C277.521 309.505 274.156 311.804 270.514 314.624C267.972 316.593 265.356 318.765 262.786 320.9C261.629 321.86 260.482 322.813 259.355 323.736C255.764 326.677 252.353 329.337 249.639 330.813C248.302 331.54 246.978 332.069 245.807 332.095C245.195 332.109 244.573 331.986 244.02 331.635C243.462 331.28 243.073 330.755 242.826 330.138C240.615 324.626 227.096 296.617 220.548 283.169C210.841 269.222 195.06 262.376 183.051 259.476Z" fill="#032068"/>
<path d="M115.34 310.351L118.431 260.036H123.84C126.931 272.422 134.349 302.92 139.294 325.833C144.24 348.746 144.961 367.375 144.703 373.826L118.431 325.833L127.704 312.674L115.34 310.351Z" fill="#E7E8FF"/>
<path d="M163.248 354.474C165.721 333.419 176.642 282.743 181.793 260.036L187.975 261.584L194.156 310.351L177.93 312.674L187.975 326.607L162.475 375.374V368.407C162.475 360.357 162.991 355.764 163.248 354.474Z" fill="#E7E8FF"/>
<path d="M226.611 321.962C229.702 336.825 233.051 377.18 234.338 395.5L239.747 393.178C238.511 371.504 230.475 336.67 226.611 321.962Z" fill="#032068"/>
<path d="M139.295 369.181C131.877 369.181 97.0533 373.826 80.5689 376.148C83.9172 374.342 91.0777 370.42 92.9322 369.181C94.7867 367.943 102.977 348.023 106.841 338.218L100.659 367.633C107.459 366.395 129.249 368.149 139.295 369.181Z" fill="#032068"/>
<path d="M148.567 404.015C128.168 421.973 92.6746 433.172 77.478 436.526C81.187 438.384 90.3565 438.332 94.4776 438.074C117.968 431.882 140.325 412.788 148.567 404.015Z" fill="#032068"/>
<path d="M158.612 321.094V393.164C158.612 395.494 160.844 397.173 163.078 396.523L204.083 384.598C205.536 384.175 206.552 382.863 206.6 381.348L208.706 314.56C208.775 312.372 206.844 310.659 204.684 310.992L161.574 317.636C159.87 317.898 158.612 319.367 158.612 321.094Z" fill="white"/>
<path fill-rule="evenodd" clip-rule="evenodd" d="M207.542 314.523C207.588 313.065 206.301 311.922 204.861 312.144L161.751 318.788C160.615 318.963 159.776 319.943 159.776 321.094V393.164C159.776 394.717 161.264 395.837 162.754 395.403L163.052 396.432L162.754 395.403L203.759 383.478C204.727 383.196 205.405 382.321 205.437 381.311L207.542 314.523ZM204.507 309.839C207.387 309.395 209.961 311.68 209.869 314.597L207.764 381.385C207.7 383.405 206.345 385.154 204.408 385.718L163.403 397.643C160.424 398.51 157.448 396.271 157.448 393.164V321.094C157.448 318.791 159.125 316.833 161.397 316.483L204.507 309.839Z" fill="#032068"/>
<path d="M157.84 356.796C147.949 361.131 144.961 368.665 144.704 373.052L148.567 393.178C151.658 391.939 157.324 390.339 159.385 390.081C177.157 384.663 174.839 366.859 172.521 361.44C170.667 357.106 161.961 361.182 157.84 363.763V356.796Z" fill="#EFCB96"/>
<path d="M94.3029 434.469C73 407.2 51.4012 397.913 43.2646 396.678C45.4837 410.757 51.4012 421.872 62.4965 430.764C71.3727 437.877 87.3992 436.198 94.3029 434.469Z" fill="#032068"/>
<path d="M152.624 248.12C159.399 250.286 165.05 248.899 167.381 247.93L169.615 257.759C160.606 256.748 154.531 250.677 152.624 248.12Z" fill="#032068"/>
<path d="M188.04 319.818L178.645 321.116C175.407 321.564 172.521 319.044 172.521 315.77L194.929 311.899C194.929 315.892 191.989 319.272 188.04 319.818Z" fill="#032068"/>
<path d="M143.158 368.407C140.685 366.549 112.765 371.245 99.1138 373.826L105.295 428.011C114.568 424.915 151.658 405.563 152.431 401.692C153.203 397.822 146.249 370.729 143.158 368.407Z" fill="white"/>
<path fill-rule="evenodd" clip-rule="evenodd" d="M182.292 265.997C179.584 259.074 174.266 255.01 167.886 255.01V252.677C175.415 252.677 181.477 257.522 184.459 265.146C187.435 272.753 187.386 283.157 182.878 294.644L180.711 293.791C185.056 282.72 185.006 272.937 182.292 265.997ZM120.409 294.554C112.549 268.448 125.19 255.677 133.693 254.242L134.08 256.542C127.397 257.67 115.044 268.655 122.638 293.881L120.409 294.554Z" fill="#032068"/>
<path d="M187.203 301.062C187.203 305.765 183.744 309.577 179.476 309.577C175.209 309.577 171.749 305.765 171.749 301.062C171.749 296.36 175.209 292.548 179.476 292.548C183.744 292.548 187.203 296.36 187.203 301.062Z" fill="#032068"/>
<path fill-rule="evenodd" clip-rule="evenodd" d="M125.994 295.571C125.303 295.276 124.326 295.154 122.953 295.375C121.376 295.629 120.39 296.129 119.791 296.712C119.21 297.277 118.894 298.016 118.834 298.973C118.708 300.987 119.733 303.77 121.615 306.921C122.743 308.811 124.132 310.755 125.641 312.638C126.641 309.728 127.433 306.862 127.853 304.297C128.379 301.084 128.278 298.591 127.518 297.066C127.159 296.346 126.662 295.857 125.994 295.571ZM127.376 314.718C128.631 311.257 129.642 307.778 130.15 304.674C130.691 301.372 130.708 298.245 129.601 296.024C129.026 294.87 128.143 293.955 126.908 293.426C125.694 292.907 124.242 292.805 122.583 293.073C120.704 293.375 119.217 294.019 118.169 295.039C117.104 296.075 116.6 297.395 116.51 298.827C116.337 301.59 117.693 304.897 119.617 308.119C121.021 310.471 122.801 312.892 124.718 315.188C123.409 318.631 121.875 322.032 120.383 324.969L122.458 326.027C123.805 323.375 125.2 320.326 126.443 317.181C129.359 320.435 132.423 323.292 134.875 325.129L136.269 323.261C133.712 321.345 130.417 318.224 127.376 314.718Z" fill="#032068"/>
<path d="M123.63 326.501C123.63 328.153 122.294 329.492 120.645 329.492C118.996 329.492 117.66 328.153 117.66 326.501C117.66 324.85 118.996 323.511 120.645 323.511C122.294 323.511 123.63 324.85 123.63 326.501Z" fill="#F4AD5E"/>
<path d="M139.084 324.953C139.084 326.605 137.747 327.944 136.098 327.944C134.449 327.944 133.113 326.605 133.113 324.953C133.113 323.301 134.449 321.962 136.098 321.962C137.747 321.962 139.084 323.301 139.084 324.953Z" fill="#F4AD5E"/>
<path d="M301.866 107.33H309.818V114.864H301.866V125.059H294.521V114.864H286.545V107.33H294.521V97.4223H301.866V107.33Z" fill="white"/>
<path d="M464.387 243.206H468.363V246.775H464.387V251.604H460.715V246.775H456.727V243.206H460.715V238.513H464.387V243.206Z" fill="white"/>
<path d="M213.672 214.746H219.636V219.902H213.672V226.877H208.163V219.902H202.182V214.746H208.163V207.968H213.672V214.746Z" fill="white"/>
<path d="M211.526 94.5198C202.521 87.2991 194.054 95.1736 191.817 100.012C189.581 95.1736 181.533 87.2991 172.528 94.5198C161.073 103.705 177.955 124.463 190.857 133.485C191.431 133.886 192.203 133.886 192.778 133.485C205.699 124.464 222.982 103.705 211.526 94.5198Z" fill="#F4AD5E"/>
<path fill-rule="evenodd" clip-rule="evenodd" d="M192.801 105.445L195.985 115.226L200.521 109.508L204.628 114.168L204.194 114.509L200.544 110.369L195.771 116.385L192.749 107.098L188.197 118.574L182.652 111.085L178.235 115.261L177.836 114.883L182.728 110.258L188.044 117.437L192.801 105.445Z" fill="white"/>
<path d="M466.007 312.725C435.114 300.785 419.398 291.477 401.658 271.983C399.898 270.049 396.84 270.02 395.04 271.917C374.811 293.237 358.673 301.133 331.39 312.668C329.661 313.399 328.59 315.18 328.742 317.051C334.249 384.72 349.234 414.397 396.467 437.556C397.667 438.145 399.105 438.137 400.3 437.539C444.185 415.591 462.754 393.165 468.795 317.171C468.948 315.248 467.806 313.42 466.007 312.725Z" fill="white"/>
<path fill-rule="evenodd" clip-rule="evenodd" d="M393.985 270.915C396.366 268.406 400.404 268.444 402.733 271.004C420.271 290.274 435.764 299.477 466.531 311.368C468.935 312.297 470.448 314.726 470.245 317.287C467.219 355.354 461.044 380.235 449.981 398.38C438.891 416.569 422.994 427.816 400.951 438.84C399.352 439.64 397.436 439.651 395.827 438.862C372.028 427.193 356.206 413.804 345.683 394.696C335.192 375.647 330.05 351.058 327.292 317.169C327.089 314.677 328.513 312.306 330.824 311.328C358.043 299.82 373.962 292.019 393.985 270.915ZM400.582 272.962C399.392 271.654 397.314 271.633 396.095 272.918L395.04 271.917L396.095 272.918C375.66 294.456 359.302 302.446 331.957 314.008C330.81 314.493 330.09 315.684 330.192 316.933C332.941 350.713 338.045 374.797 348.231 393.293C358.386 411.731 373.673 424.76 397.108 436.25C397.898 436.638 398.859 436.634 399.65 436.238C421.492 425.314 436.822 414.374 447.497 396.865C458.2 379.311 464.33 354.982 467.345 317.056C467.447 315.77 466.678 314.544 465.482 314.082C434.464 302.093 418.525 292.679 400.582 272.962Z" fill="#032068"/>
<path d="M389.489 342.631H370.279V360.444H389.489V384.545H407.234V360.444H426.5V342.631H407.234V319.208H389.489V342.631Z" fill="#032068"/>
</svg>
