<svg width="512" height="512" viewBox="0 0 512 512" fill="none" xmlns="http://www.w3.org/2000/svg">
<path d="M194.59 441.455H238.341H314.897C344.309 441.455 371.627 426.22 387.113 401.184L406.489 369.855C422.338 344.231 412.83 310.514 385.938 296.974C361.616 284.727 351.097 255.581 361.982 230.595L369.73 212.81C381.183 186.52 375.917 155.929 356.335 134.996L322.346 98.6613C286.397 60.232 225.811 59.241 188.628 96.4742L146.206 138.954C140.696 144.472 132.128 145.492 125.479 141.422C114.805 134.888 100.99 141.854 99.8783 154.332L94.6144 213.399C93.4563 226.395 87.5809 238.501 77.1667 246.343C56.624 261.81 28.2862 280.864 23.1018 293.544C-13.4356 382.904 98.1556 441.455 194.59 441.455Z" fill="#E7E8FF"/>
<path d="M157.818 86.4614C157.818 81.4369 161.892 77.3636 166.916 77.3636H436.448C441.472 77.3636 445.546 81.4369 445.546 86.4614V324.63C445.546 329.654 441.472 333.727 436.448 333.727H166.916C161.892 333.727 157.818 329.654 157.818 324.63V86.4614Z" fill="white"/>
<path fill-rule="evenodd" clip-rule="evenodd" d="M156.455 86.4614C156.455 80.6837 161.138 76 166.916 76H436.448C442.225 76 446.909 80.6837 446.909 86.4614V324.63C446.909 330.407 442.225 335.091 436.448 335.091H166.916C161.138 335.091 156.455 330.407 156.455 324.63V86.4614ZM166.916 78.7273C162.645 78.7273 159.182 82.19 159.182 86.4614V324.63C159.182 328.901 162.645 332.364 166.916 332.364H436.448C440.719 332.364 444.182 328.901 444.182 324.63V86.4614C444.182 82.19 440.719 78.7273 436.448 78.7273H166.916Z" fill="#032068"/>
<path d="M179.636 127.818C179.636 125.559 181.468 123.727 183.727 123.727H251.909C254.168 123.727 256 125.559 256 127.818C256 130.078 254.168 131.909 251.909 131.909H183.727C181.468 131.909 179.636 130.078 179.636 127.818Z" fill="#F4AD5E"/>
<path d="M157.818 86.4614C157.818 81.4369 161.892 77.3636 166.916 77.3636H436.448C441.472 77.3636 445.546 81.4369 445.546 86.4614V108.727H157.818V86.4614Z" fill="#032068"/>
<path d="M186.6 93.2685C186.6 97.0332 183.549 100.085 179.784 100.085C176.019 100.085 172.967 97.0332 172.967 93.2685C172.967 89.5039 176.019 86.452 179.784 86.452C183.549 86.452 186.6 89.5039 186.6 93.2685Z" fill="white"/>
<path d="M209.323 93.2685C209.323 97.0332 206.271 100.085 202.507 100.085C198.742 100.085 195.69 97.0332 195.69 93.2685C195.69 89.5039 198.742 86.452 202.507 86.452C206.271 86.452 209.323 89.5039 209.323 93.2685Z" fill="white"/>
<path d="M232.044 93.2685C232.044 97.0332 228.992 100.085 225.227 100.085C221.463 100.085 218.411 97.0332 218.411 93.2685C218.411 89.5039 221.463 86.452 225.227 86.452C228.992 86.452 232.044 89.5039 232.044 93.2685Z" fill="white"/>
<path d="M170.091 290.773C170.091 289.643 171.007 288.727 172.136 288.727H431.227C432.357 288.727 433.273 289.643 433.273 290.773C433.273 291.902 432.357 292.818 431.227 292.818H172.136C171.007 292.818 170.091 291.902 170.091 290.773Z" fill="#E7E8FF"/>
<path d="M170.091 301.682C170.091 300.552 171.007 299.636 172.136 299.636H431.227C432.357 299.636 433.273 300.552 433.273 301.682C433.273 302.811 432.357 303.727 431.227 303.727H172.136C171.007 303.727 170.091 302.811 170.091 301.682Z" fill="#E7E8FF"/>
<path d="M170.091 301.682C170.091 300.552 171.007 299.636 172.136 299.636H323.5C324.63 299.636 325.545 300.552 325.545 301.682C325.545 302.811 324.63 303.727 323.5 303.727H172.136C171.007 303.727 170.091 302.811 170.091 301.682Z" fill="#F4AD5E"/>
<path d="M329.636 301.682C329.636 304.318 327.499 306.455 324.864 306.455C322.228 306.455 320.091 304.318 320.091 301.682C320.091 299.046 322.228 296.909 324.864 296.909C327.499 296.909 329.636 299.046 329.636 301.682Z" fill="#032068"/>
<path d="M208.273 319.409L197.023 325.904L197.023 312.914L208.273 319.409Z" fill="#032068"/>
<path fill-rule="evenodd" clip-rule="evenodd" d="M226.341 317.834V313.273H229.068V319.409V325.545H226.341V320.984L217.818 325.904V312.914L226.341 317.834Z" fill="#032068"/>
<path fill-rule="evenodd" clip-rule="evenodd" d="M178.273 317.834V313.273H175.545V319.409V325.545H178.273V320.984L186.795 325.904V312.914L178.273 317.834Z" fill="#032068"/>
<path fill-rule="evenodd" clip-rule="evenodd" d="M406 316H392.364L392.364 324.182H406V316ZM392.364 314.636C391.611 314.636 391 315.247 391 316V324.182C391 324.935 391.611 325.545 392.364 325.545H406C406.753 325.545 407.364 324.935 407.364 324.182V316C407.364 315.247 406.753 314.636 406 314.636H392.364Z" fill="#E7E8FF"/>
<path fill-rule="evenodd" clip-rule="evenodd" d="M433.273 316H419.637L419.637 324.182H433.273V316ZM419.637 314.636C418.883 314.636 418.273 315.247 418.273 316V324.182C418.273 324.935 418.883 325.545 419.637 325.545H433.273C434.026 325.545 434.637 324.935 434.637 324.182V316C434.637 315.247 434.026 314.636 433.273 314.636H419.637Z" fill="#E7E8FF"/>
<path d="M380.091 320.091C380.091 323.856 377.038 326.909 373.273 326.909C369.507 326.909 366.455 323.856 366.455 320.091C366.455 316.325 369.507 313.273 373.273 313.273C377.038 313.273 380.091 316.325 380.091 320.091Z" fill="#E7E8FF"/>
<path d="M347.364 215.091C347.364 239.944 327.217 260.091 302.364 260.091C277.511 260.091 257.364 239.944 257.364 215.091C257.364 190.238 277.511 170.091 302.364 170.091C327.217 170.091 347.364 190.238 347.364 215.091Z" fill="#E7E8FF"/>
<path d="M246.455 320.983V316.821C246.455 316.222 246.845 315.693 247.417 315.517L252.522 313.947C253.213 313.734 253.956 314.097 254.176 314.786C255.25 318.147 255.099 320.233 254.182 323.02C253.956 323.707 253.214 324.069 252.523 323.857L247.417 322.286C246.845 322.11 246.455 321.581 246.455 320.983Z" fill="#E7E8FF"/>
<path fill-rule="evenodd" clip-rule="evenodd" d="M257.684 325.359C257.129 325.081 256.908 324.408 257.145 323.834C258.6 320.304 258.599 316.548 257.216 313.442C256.963 312.875 257.145 312.191 257.684 311.883C258.222 311.575 258.913 311.761 259.174 312.323C260.949 316.132 260.916 320.684 259.158 324.841C258.917 325.412 258.238 325.636 257.684 325.359Z" fill="#E7E8FF"/>
<path fill-rule="evenodd" clip-rule="evenodd" d="M263.296 318.801C263.349 316.541 262.851 314.183 261.592 311.125C261.356 310.552 261.61 309.889 262.177 309.637C262.744 309.386 263.409 309.641 263.646 310.214C264.997 313.482 265.604 316.174 265.541 318.853C265.479 321.488 264.77 324.024 263.631 326.98C263.408 327.559 262.752 327.837 262.177 327.605C261.602 327.372 261.325 326.718 261.548 326.139C262.641 323.298 263.243 321.055 263.296 318.801Z" fill="#E7E8FF"/>
<path d="M329.636 214.409L289.75 237.438L289.75 191.381L329.636 214.409Z" fill="#F4AD5E"/>
<path d="M353.492 257.244C353.492 253.163 356.81 249.854 360.903 249.854H452.462C456.554 249.854 459.872 253.163 459.872 257.244V434.756C459.872 438.838 456.554 442.146 452.462 442.146H360.903C356.81 442.146 353.492 438.838 353.492 434.756V257.244Z" fill="white"/>
<path fill-rule="evenodd" clip-rule="evenodd" d="M352.818 257.244C352.818 252.791 356.438 249.182 360.903 249.182H452.461C456.926 249.182 460.546 252.792 460.546 257.244V434.756C460.546 439.209 456.926 442.818 452.461 442.818H360.903C356.438 442.818 352.818 439.209 352.818 434.756V257.244ZM360.903 250.526C357.182 250.526 354.166 253.534 354.166 257.244V434.756C354.166 438.467 357.182 441.475 360.903 441.475H452.461C456.182 441.475 459.198 438.467 459.198 434.756V257.244C459.198 253.534 456.182 250.526 452.461 250.526H360.903Z" fill="#032068"/>
<path d="M385.498 256.243L382.081 249.853H431.282L427.26 256.538C426.043 258.561 423.85 259.8 421.484 259.8H391.442C388.954 259.8 386.669 258.432 385.498 256.243Z" fill="#032068"/>
<path d="M458.566 253.832H354.118C357.575 250.384 360.877 249.743 362.096 249.853H450.588C454.843 249.853 457.68 252.505 458.566 253.832Z" fill="#032068"/>
<path d="M458.517 438.375H354.848C358.441 441.879 360.517 442.53 361.784 442.418H451.581C456.003 442.418 457.596 439.723 458.517 438.375Z" fill="#032068"/>
<path d="M362.771 273.68C362.771 272.567 363.676 271.652 364.793 271.652H398.695C399.811 271.652 400.716 272.567 400.716 273.68C400.716 274.793 399.811 275.707 398.695 275.707H364.793C363.676 275.707 362.771 274.793 362.771 273.68Z" fill="#F4AD5E"/>
<path d="M362.771 379.384C362.771 378.288 363.662 377.401 364.76 377.401H423.742C424.84 377.401 425.73 378.288 425.73 379.384C425.73 380.479 424.84 381.366 423.742 381.366H364.76C363.662 381.366 362.771 380.479 362.771 379.384Z" fill="#F4AD5E"/>
<path d="M362.771 391.325C362.771 390.212 363.676 389.298 364.793 389.298H398.695C399.811 389.298 400.716 390.212 400.716 391.325C400.716 392.438 399.811 393.352 398.695 393.352H364.793C363.676 393.352 362.771 392.438 362.771 391.325Z" fill="#F4AD5E"/>
<path fill-rule="evenodd" clip-rule="evenodd" d="M362.098 288.869C362.098 287.385 363.304 286.182 364.792 286.182H448.229C449.718 286.182 450.924 287.385 450.924 288.869V365.471C450.924 366.956 449.718 368.159 448.229 368.159H364.792C363.304 368.159 362.098 366.956 362.098 365.471V288.869ZM364.792 287.525C364.048 287.525 363.445 288.127 363.445 288.869V365.471C363.445 366.214 364.048 366.815 364.792 366.815H448.229C448.973 366.815 449.577 366.214 449.577 365.471V288.869C449.577 288.127 448.973 287.525 448.229 287.525H364.792Z" fill="#E7E8FF"/>
<path d="M428.379 327.17C428.379 339.216 418.588 348.981 406.509 348.981C394.431 348.981 384.64 339.216 384.64 327.17C384.64 315.125 394.431 305.36 406.509 305.36C418.588 305.36 428.379 315.125 428.379 327.17Z" fill="#E7E8FF"/>
<path d="M408.715 336.423L408.715 318.578L415.125 318.578L415.125 336.423L408.715 336.423ZM397.894 336.423L397.894 318.578L404.303 318.578L404.303 336.423L397.894 336.423Z" fill="#F4AD5E"/>
<path d="M413.965 415.404L401.539 421.987L401.539 408.822L413.965 415.404Z" fill="#032068"/>
<path fill-rule="evenodd" clip-rule="evenodd" d="M432.888 413.708V408.793H435.834V422.016H432.888V417.1L423.68 422.402V408.406L432.888 413.708Z" fill="#032068"/>
<path fill-rule="evenodd" clip-rule="evenodd" d="M380.959 413.708V408.793H378.012V422.016H380.959V417.1L390.167 422.402L390.167 408.406L380.959 413.708Z" fill="#032068"/>
<path d="M112.58 92.9523L106.586 106.632C106.221 107.464 105.425 108.02 104.523 108.072L93.0495 108.742C90.581 108.886 89.9077 112.232 92.1214 113.355L102.6 118.666C103.365 119.053 103.872 119.819 103.934 120.679L104.855 133.53C105.028 135.946 108.209 136.672 109.379 134.563L115.855 122.888C116.236 122.203 116.921 121.746 117.697 121.662L128.284 120.507C130.669 120.247 131.249 117.019 129.109 115.913L119.819 111.112C119.073 110.726 118.575 109.98 118.504 109.139L117.203 93.7499C116.99 91.233 113.591 90.6465 112.58 92.9523Z" fill="#F4AD5E"/>
<path d="M67.0472 160.707L68.6217 164.685C68.9574 165.533 68.7967 166.497 68.2053 167.184L66.6503 168.99C65.027 170.875 66.9457 173.719 69.2854 172.896L71.6786 172.054C72.4845 171.77 73.381 171.938 74.0365 172.494L76.8142 174.85C78.6491 176.406 81.3612 174.627 80.6867 172.31L79.563 168.448C79.3431 167.692 79.4978 166.878 79.9784 166.26L81.4367 164.387C82.9208 162.48 81.021 159.785 78.7435 160.566L76.6744 161.276C75.8832 161.548 75.0073 161.387 74.3585 160.851L70.8205 157.928C68.8855 156.329 66.1204 158.366 67.0472 160.707Z" fill="#F4AD5E"/>
<path d="M485.683 187.01L481.184 192.838C480.911 193.192 480.464 193.363 480.027 193.28L474.467 192.226C473.271 191.999 472.549 193.52 473.472 194.322L477.842 198.119C478.161 198.396 478.312 198.823 478.238 199.242L477.142 205.501C476.936 206.678 478.368 207.407 479.18 206.538L483.668 201.727C483.932 201.444 484.314 201.308 484.695 201.36L489.89 202.076C491.06 202.237 491.723 200.762 490.833 199.976L486.969 196.566C486.659 196.292 486.511 195.876 486.577 195.465L487.796 187.945C487.995 186.715 486.441 186.028 485.683 187.01Z" fill="#F4AD5E"/>
<path d="M245.297 395.274C232.217 393.858 215.542 426.554 209.061 442.636H218.783C232.924 427.734 258.377 396.691 245.297 395.274Z" fill="#032068"/>
<path d="M243.088 347.027C217.281 349.151 201.696 411.062 197.13 441.751H213.922C234.397 409.291 268.895 344.902 243.088 347.027Z" fill="white"/>
<path fill-rule="evenodd" clip-rule="evenodd" d="M249.366 349.815C248.147 348.486 246.202 347.749 243.167 347.999C237.109 348.498 231.517 352.52 226.427 359.011C221.349 365.487 216.88 374.286 213.05 384.034C205.577 403.054 200.613 425.487 198.262 440.775H213.385C223.578 424.571 237.104 400.681 244.957 381.057C248.931 371.123 251.396 362.414 251.323 356.378C251.287 353.363 250.619 351.181 249.366 349.815ZM246.765 381.782C238.775 401.752 224.996 426.022 214.745 442.272L214.459 442.727H196L196.167 441.607C198.457 426.216 203.509 402.989 211.237 383.32C215.1 373.489 219.651 364.493 224.896 357.805C230.129 351.131 236.163 346.618 243.008 346.054C246.425 345.773 249.047 346.584 250.801 348.495C252.521 350.371 253.232 353.124 253.271 356.355C253.349 362.808 250.748 371.827 246.765 381.782Z" fill="#032068"/>
<path fill-rule="evenodd" clip-rule="evenodd" d="M236.703 370.808C239.05 365.322 241.227 360.219 243.1 355.819L241.308 355.054C239.179 360.056 236.657 365.967 233.938 372.315C231.896 377.086 229.743 382.103 227.564 387.168L222.754 377.146L220.998 377.991L226.542 389.542C223.689 396.166 220.813 402.817 218.103 409.049C216.65 412.39 215.245 415.61 213.915 418.642L210.872 409.141L209.017 409.737L212.732 421.335C210.236 427.009 208.064 431.884 206.429 435.453C205.595 437.274 204.903 438.749 204.38 439.816C204.118 440.35 203.902 440.774 203.734 441.086C203.65 441.241 203.581 441.362 203.527 441.451C203.483 441.525 203.459 441.559 203.452 441.568C203.45 441.571 203.45 441.571 203.452 441.569L204.948 442.818C205.103 442.632 205.278 442.327 205.447 442.014C205.633 441.67 205.862 441.22 206.128 440.676C206.662 439.586 207.363 438.093 208.199 436.267C209.873 432.613 212.104 427.605 214.664 421.783C216.244 418.19 217.949 414.287 219.727 410.199L230.628 405.92L229.917 404.104L220.826 407.673C223.315 401.941 225.921 395.909 228.506 389.906C230.92 384.301 233.315 378.721 235.577 373.437L245.248 369.166L244.462 367.381L236.703 370.808Z" fill="#032068"/>
<path d="M113.796 204.455C97.0957 216.248 104.115 237.213 107.261 245.337L105.883 261.914C107.31 267.133 112.489 277.57 121.784 277.57C131.078 277.57 135.338 268.66 136.306 264.205L134.854 251.626C145.745 247.695 146.471 231.972 145.745 219.393C144.883 204.455 128.506 194.068 113.796 204.455Z" fill="#EFCB96"/>
<path d="M107.786 241.227L106.339 255.482C105.857 254.426 104.747 251.364 104.169 247.562C103.445 242.811 91.8709 224.596 95.4879 211.133C98.3815 200.363 106.339 200.838 109.956 202.422C112.126 198.462 125.147 185 143.956 186.583C162.764 188.167 164.934 215.093 149.743 219.053C137.59 222.22 123.942 220.373 118.637 219.053C118.155 220.109 116.756 223.646 115.02 229.348C112.85 236.475 112.85 238.059 112.126 233.308C111.403 228.556 108.509 219.845 104.892 228.556C101.998 235.525 105.615 239.907 107.786 241.227Z" fill="#032068"/>
<path d="M118.294 251.34C123.271 254.267 130.968 252.56 134.194 251.34L134.886 256.462C127.696 258.218 120.829 253.779 118.294 251.34Z" fill="#032068"/>
<path d="M121.141 270.11C131.293 270.11 136.679 264.557 138.416 261.273C138.608 260.911 138.979 260.664 139.39 260.67C171.305 261.192 193.504 298.226 200.768 317.068C200.837 317.247 200.851 317.435 200.814 317.623L192.122 361.681C192.099 361.8 192.096 361.917 192.115 362.037C195.273 381.67 200.726 422.467 197.492 430C194.249 437.556 163.709 442.818 138.709 442.818C95.466 442.818 39.6555 441.739 32.6285 434.722C23.8448 425.952 35.3314 316.66 54.9258 289C70.2554 267.36 93.5114 260.301 103.588 260.631C103.995 260.645 104.334 260.915 104.504 261.284C106.012 264.57 111.001 270.11 121.141 270.11Z" fill="#F4AD5E"/>
<path d="M72.4924 418.531C62.7627 408.277 49.5196 376.029 44.1143 361.187C45.4656 381.651 63.7087 427.976 72.4924 427.976C91.9517 432.294 139.609 400.991 161.005 384.799C135.555 400.316 82.222 428.786 72.4924 418.531Z" fill="#032068"/>
<path d="M175.194 303.842L181.951 324.082H186.681L175.194 303.842Z" fill="#032068"/>
<path d="M100.195 417.857C83.9789 404.364 66.4115 401.89 59.6548 402.34C61.4566 408.412 68.8439 420.285 75.8709 421.905C82.8978 423.524 94.3392 420.106 100.195 417.857Z" fill="#032068"/>
<path d="M106.952 357.814L99.5194 322.058L114.384 355.79C127.898 352.417 142.537 352.417 150.195 352.417C119.114 357.814 104.249 363.885 90.0601 367.933L106.952 357.814Z" fill="#032068"/>
<path d="M165.059 349.718C161.816 351.337 156.501 356.239 154.249 358.488L158.303 376.029C161.546 375.489 170.014 373.106 173.843 371.981L175.194 340.273C168.438 342.297 169.113 347.694 165.059 349.718Z" fill="#EFCB96"/>
<path d="M176.491 322.846L171.915 388.766C171.866 389.467 172.523 390.008 173.203 389.827L231.959 374.183C232.362 374.075 232.66 373.735 232.713 373.321L240.557 311.311C240.645 310.621 240.033 310.047 239.349 310.176L177.323 321.91C176.865 321.997 176.523 322.382 176.491 322.846Z" fill="white"/>
<path fill-rule="evenodd" clip-rule="evenodd" d="M239.158 309.17C240.526 308.911 241.75 310.06 241.576 311.44L233.731 373.45C233.626 374.277 233.03 374.958 232.224 375.173L173.468 390.817C172.108 391.179 170.794 390.098 170.892 388.696L175.468 322.775C175.532 321.846 176.216 321.077 177.133 320.904L239.158 309.17L239.349 310.176L239.158 309.17ZM239.54 311.183L177.515 322.917L172.939 388.837L231.695 373.193L239.54 311.183Z" fill="#032068"/>
<path d="M215.291 352.087C213.367 359.287 208.3 364.189 203.973 363.036C199.647 361.884 197.699 355.113 199.623 347.913C201.547 340.713 206.614 335.81 210.94 336.963C215.267 338.115 217.215 344.886 215.291 352.087Z" fill="#F4AD5E"/>
<path d="M227.897 351.067C228.402 343.003 233.66 339.018 236.738 337.793C237.11 337.645 237.39 337.32 237.443 336.924L238.567 328.504C238.643 327.93 239.188 327.526 239.72 327.756C243.299 329.301 246.025 335.79 244.788 345.67C243.437 356.464 237.356 361.187 234.654 361.187C231.951 361.187 227.221 361.862 227.897 351.067Z" fill="#EFCB96"/>
</svg>
