<svg width="512" height="512" viewBox="0 0 512 512" fill="none" xmlns="http://www.w3.org/2000/svg">
<path d="M368.212 157.688C368.212 164.839 353.79 163.881 343.806 161.066C329.384 157.688 319.399 150.932 322.728 136.295C322.728 124.473 334.376 126.43 348.243 131.792C359.892 136.295 368.212 150.537 368.212 157.688Z" fill="#E7E8FF"/>
<path d="M33.463 352.462C33.463 368.078 40.6237 383.319 49.4206 395.93C63.093 415.529 87.3931 422.971 111.28 422.971H396.122C412.675 422.971 423.636 399.576 424.178 383.02C424.984 358.412 439.046 330.534 434.943 289.123C428.55 224.589 385.078 204.871 339.688 180.372C294.297 155.873 323.705 120.021 245.711 98.5095C167.716 76.9983 85.2462 148.105 87.8034 214.431C90.3606 280.758 33.463 290.318 33.463 352.462Z" fill="#E7E8FF"/>
<path d="M211.816 422.971H264.908C293.704 412.614 322.5 364.88 295.954 369.834C269.408 374.787 243.311 372.536 277.956 355.424C312.601 338.312 293.704 325.252 277.956 326.603C262.209 327.954 264.908 317.147 271.207 296.432C277.507 275.718 271.207 256.804 253.66 256.804C236.112 256.804 250.06 308.14 236.112 311.743C222.164 315.345 228.913 291.479 211.816 296.432C194.718 301.386 222.614 360.377 211.816 355.424C201.017 350.47 202.367 326.603 183.02 344.616C167.542 359.026 195.768 402.857 211.816 422.971Z" fill="white"/>
<path d="M152.153 106.03C152.153 101.171 156.093 97.2315 160.952 97.2315H316.652C321.512 97.2315 325.451 101.171 325.451 106.03V305.765C325.451 310.625 321.512 314.564 316.652 314.564H160.952C156.093 314.564 152.153 310.625 152.153 305.765V106.03Z" fill="white"/>
<path fill-rule="evenodd" clip-rule="evenodd" d="M150.834 106.03C150.834 100.442 155.364 95.9127 160.952 95.9127H316.652C322.24 95.9127 326.77 100.442 326.77 106.03V305.765C326.77 311.353 322.24 315.883 316.652 315.883H160.952C155.364 315.883 150.834 311.353 150.834 305.765V106.03ZM160.952 98.5503C156.821 98.5503 153.472 101.899 153.472 106.03V305.765C153.472 309.896 156.821 313.245 160.952 313.245H316.652C320.783 313.245 324.132 309.896 324.132 305.765V106.03C324.132 101.899 320.783 98.5503 316.652 98.5503H160.952Z" fill="#032068"/>
<path d="M152.153 106.03C152.153 101.171 156.093 97.2315 160.952 97.2315H316.652C321.512 97.2315 325.451 101.171 325.451 106.03V127.061H152.153V106.03Z" fill="#032068"/>
<path d="M179.142 112.146C179.142 115.677 176.28 118.539 172.75 118.539C169.22 118.539 166.358 115.677 166.358 112.146C166.358 108.616 169.22 105.754 172.75 105.754C176.28 105.754 179.142 108.616 179.142 112.146Z" fill="white"/>
<path d="M200.451 112.146C200.451 115.677 197.589 118.539 194.059 118.539C190.528 118.539 187.667 115.677 187.667 112.146C187.667 108.616 190.528 105.754 194.059 105.754C197.589 105.754 200.451 108.616 200.451 112.146Z" fill="white"/>
<path d="M221.757 112.146C221.757 115.677 218.895 118.539 215.365 118.539C211.835 118.539 208.973 115.677 208.973 112.146C208.973 108.616 211.835 105.754 215.365 105.754C218.895 105.754 221.757 108.616 221.757 112.146Z" fill="white"/>
<path fill-rule="evenodd" clip-rule="evenodd" d="M267.212 151.108H177.012V148.47H267.212V151.108Z" fill="#E7E8FF"/>
<path fill-rule="evenodd" clip-rule="evenodd" d="M267.212 243.438H177.012V240.801H267.212V243.438Z" fill="#E7E8FF"/>
<path fill-rule="evenodd" clip-rule="evenodd" d="M267.212 269.007H177.012V266.369H267.212V269.007Z" fill="#E7E8FF"/>
<path fill-rule="evenodd" clip-rule="evenodd" d="M177.824 178.474C177.824 172.886 182.354 168.357 187.942 168.357H275.459C281.047 168.357 285.577 172.886 285.577 178.474V212.014C285.577 217.602 281.047 222.131 275.459 222.131H187.942C182.354 222.131 177.824 217.602 177.824 212.014V178.474ZM187.942 170.994C183.811 170.994 180.462 174.343 180.462 178.474V212.014C180.462 216.145 183.811 219.494 187.942 219.494H275.459C279.59 219.494 282.939 216.145 282.939 212.014V178.474C282.939 174.343 279.59 170.994 275.459 170.994H187.942Z" fill="#F4AD5E"/>
<path d="M230.281 290.691C230.281 285.832 234.22 281.893 239.079 281.893H239.948C244.808 281.893 248.747 285.832 248.747 290.691V291.561C248.747 296.42 244.808 300.359 239.948 300.359H239.079C234.22 300.359 230.281 296.42 230.281 291.561V290.691Z" fill="#F4AD5E"/>
<path fill-rule="evenodd" clip-rule="evenodd" d="M263.054 290.691C263.054 285.104 267.583 280.574 273.171 280.574H274.04C279.628 280.574 284.157 285.104 284.157 290.691V291.561C284.157 297.148 279.628 301.678 274.04 301.678H273.171C267.583 301.678 263.054 297.148 263.054 291.561V290.691ZM273.171 283.212C269.04 283.212 265.691 286.561 265.691 290.691V291.561C265.691 295.692 269.04 299.04 273.171 299.04H274.04C278.171 299.04 281.52 295.692 281.52 291.561V290.691C281.52 286.561 278.171 283.212 274.04 283.212H273.171Z" fill="#E7E8FF"/>
<path fill-rule="evenodd" clip-rule="evenodd" d="M216.759 183.378C215.171 180.874 211.495 180.939 209.997 183.499L198.856 202.531C197.672 204.553 195.505 205.796 193.162 205.796H179.143V203.158H193.162C194.568 203.158 195.869 202.412 196.58 201.199L207.721 182.166C210.217 177.902 216.341 177.793 218.987 181.966L228.836 197.497C230.296 199.799 233.59 199.973 235.283 197.837L243.226 187.823C245.718 184.68 250.416 184.47 253.179 187.379L260.926 195.534C261.673 196.321 262.711 196.766 263.797 196.766H283.548V199.404H263.797C261.988 199.404 260.259 198.661 259.013 197.35L251.266 189.195C249.608 187.45 246.788 187.576 245.292 189.462L237.35 199.476C234.528 203.034 229.04 202.744 226.608 198.91L216.759 183.378Z" fill="#F4AD5E"/>
<path d="M236.445 422.297C227.923 406.956 190.28 396.333 172.524 392.782L157.577 422.297H236.445Z" fill="#032068"/>
<path d="M108.283 222.79L104.223 235.501L128.331 244.51L131.65 226.165C135.529 226.61 144.392 223.917 148.811 209.582C154.336 191.664 147.056 168.981 131.713 166.7C116.369 164.419 105.175 177.352 102.375 194.196C100.135 207.671 105.38 218.873 108.283 222.79Z" fill="#EFCB96"/>
<path d="M108.191 222.086C110.666 223.479 120.859 224.002 125.647 224.089C129.167 223.626 130.91 220.531 133.078 215.232C134.813 210.992 132.06 207.486 130.467 206.263C120.721 197.515 130.729 189.036 133.878 188.622C137.081 188.201 137.524 194.39 137.602 200.001C137.628 201.858 139.76 202.212 140.475 200.499C142.093 196.618 143.937 192.571 145.453 189.548C146.845 186.769 149.438 184.948 152.247 183.619C166.901 176.687 166.066 163.314 162.419 160.514C158.435 157.456 156.267 162.756 142.054 158.177C127.842 153.598 107.235 154.875 98.134 178.278C89.0326 201.681 105.096 220.343 108.191 222.086Z" fill="#032068"/>
<path d="M288.292 362.952C284.609 347.192 263.959 344.099 254.095 344.522L252.78 362.952H288.292Z" fill="#EFCB96"/>
<path d="M94.3972 231.558C82.4652 240.649 67.6119 265.486 62.3689 283.463C49.3314 328.163 31.9229 415.373 77.6819 422.297C116.564 422.344 148.921 422.317 160.239 422.297C165.529 414.321 175.319 396.081 172.168 385.68L170.392 370.055C191.176 379.179 228.578 372.777 250.021 367.087C254.119 365.999 256.686 362.028 256.196 357.817L254.347 341.912C253.852 337.655 250.333 334.392 246.063 334.031C199.686 330.106 187.593 314.602 176.785 299.741C165.421 284.116 144.114 250.024 134.881 242.212C125.648 234.399 109.312 220.194 94.3972 231.558Z" fill="#F4AD5E"/>
<path d="M115.705 316.076C129.342 343.349 152.637 362.242 171.103 370.764L171.814 384.259C132.041 360.395 117.836 328.861 115.705 316.076Z" fill="#032068"/>
<path d="M178.205 372.895C174.181 364.136 160.023 346.19 135.591 344.486C142.93 352.772 161.728 370.054 178.205 372.895Z" fill="#032068"/>
<path d="M35.6581 377.696C43.6252 415.217 61.9778 420.993 74.0709 420.993H162.278C177.928 420.993 175.794 416.07 175.794 411.806C170.814 390.488 158.721 381.96 122.442 371.301C86.1637 360.642 78.3389 318.004 66.2459 290.29C54.153 262.576 21.4311 261.865 17.163 267.55C12.8949 273.235 25.6992 330.795 35.6581 377.696Z" fill="white"/>
<path fill-rule="evenodd" clip-rule="evenodd" d="M20.4422 267.001C19.2206 267.435 18.5255 267.932 18.2176 268.342C18.1338 268.454 17.9802 268.772 17.8546 269.449C17.7346 270.096 17.6611 270.95 17.6424 272.015C17.6049 274.143 17.7872 276.978 18.1627 280.42C18.913 287.298 20.4171 296.452 22.3718 306.925C25.6013 324.23 30.0441 345.049 34.3009 364.997C35.1958 369.191 36.0825 373.346 36.948 377.422C40.8941 396.006 47.3706 406.531 54.1797 412.417C60.9714 418.288 68.2442 419.674 74.0708 419.674H162.278C166.136 419.674 168.81 419.369 170.655 418.882C172.497 418.396 173.404 417.757 173.878 417.17C174.342 416.595 174.526 415.9 174.565 414.985C174.584 414.522 174.565 414.033 174.538 413.492C174.534 413.418 174.53 413.342 174.526 413.265C174.504 412.852 174.48 412.406 174.476 411.962C172.037 401.618 167.912 394.491 160.064 388.612C152.09 382.637 140.201 377.893 122.071 372.566C103.441 367.093 92.1861 353.408 84.1033 337.797C80.0631 329.994 76.7947 321.67 73.7907 313.601C73.1281 311.821 72.479 310.056 71.8376 308.311C69.5609 302.118 67.3808 296.189 65.0371 290.817C59.1803 277.395 48.3395 270.511 38.4067 267.663C33.4342 266.238 28.7236 265.836 25.0344 266.122C23.1882 266.266 21.6323 266.579 20.4422 267.001ZM39.1335 265.128C49.6519 268.143 61.2185 275.471 67.4546 289.763C69.8326 295.212 72.0489 301.241 74.3301 307.447C74.9675 309.181 75.61 310.928 76.2625 312.681C79.2604 320.734 82.4831 328.932 86.4456 336.585C94.3681 351.886 105.165 364.85 122.814 370.036C140.963 375.368 153.259 380.217 161.646 386.501C170.123 392.852 174.533 400.61 177.078 411.506L177.112 411.654V411.806C177.112 412.225 177.135 412.649 177.159 413.115C177.163 413.195 177.168 413.276 177.172 413.358C177.2 413.902 177.225 414.498 177.2 415.096C177.15 416.302 176.889 417.638 175.931 418.826C174.982 420.003 173.488 420.862 171.329 421.432C169.172 422.001 166.244 422.312 162.278 422.312H74.0708C67.8044 422.312 59.8543 420.809 52.4547 414.412C45.0724 408.031 38.3891 396.907 34.368 377.97C33.504 373.901 32.6184 369.751 31.7241 365.56C27.4673 345.612 23.0154 324.75 19.779 307.409C17.8212 296.919 16.3021 287.686 15.5407 280.706C15.1605 277.221 14.9649 274.259 15.0052 271.968C15.0254 270.824 15.1047 269.812 15.2612 268.968C15.4121 268.155 15.6586 267.357 16.1083 266.758C16.8674 265.747 18.1286 265.023 19.5606 264.515C21.0242 263.996 22.8193 263.649 24.83 263.493C28.8545 263.18 33.8804 263.622 39.1335 265.128Z" fill="#032068"/>
<path d="M469.72 364.944H223.978C219.271 364.944 215.455 368.76 215.455 373.467C215.455 378.174 219.271 381.99 223.978 381.99H469.72C474.427 381.99 478.242 378.174 478.242 373.467C478.242 368.76 474.427 364.944 469.72 364.944Z" fill="white"/>
<path fill-rule="evenodd" clip-rule="evenodd" d="M214.136 373.467C214.136 368.032 218.542 363.626 223.978 363.626H469.72C475.155 363.626 479.561 368.032 479.561 373.467C479.561 378.903 475.155 383.309 469.72 383.309H223.978C218.542 383.309 214.136 378.903 214.136 373.467ZM223.978 366.263C219.999 366.263 216.774 369.489 216.774 373.467C216.774 377.446 219.999 380.671 223.978 380.671H469.72C473.698 380.671 476.924 377.446 476.924 373.467C476.924 369.489 473.698 366.263 469.72 366.263H223.978Z" fill="#032068"/>
<path d="M241.989 421.051L251.05 382.806H273.64L256.814 421.051H241.989Z" fill="white"/>
<path fill-rule="evenodd" clip-rule="evenodd" d="M250.006 381.488H275.661L257.675 422.37H240.321L250.006 381.488ZM252.092 384.125L243.657 419.732H255.953L271.619 384.125H252.092Z" fill="#032068"/>
<path d="M449.038 421.051L440.406 382.806H417.387L433.932 421.051H449.038Z" fill="white"/>
<path fill-rule="evenodd" clip-rule="evenodd" d="M441.813 381.047H414.709L432.776 422.811H451.239L441.813 381.047ZM438.999 384.566L446.837 419.291H435.088L420.066 384.566H438.999Z" fill="#032068"/>
<path d="M109.527 94.2401L104.741 100.413C104.45 100.788 103.975 100.969 103.51 100.881L97.5951 99.7652C96.3225 99.5251 95.5548 101.136 96.537 101.985L101.186 106.007C101.525 106.3 101.685 106.752 101.607 107.196L100.441 113.827C100.222 115.073 101.746 115.845 102.609 114.924L107.384 109.829C107.664 109.529 108.071 109.385 108.476 109.44L114.002 110.198C115.247 110.369 115.952 108.806 115.005 107.974L110.895 104.362C110.565 104.072 110.408 103.631 110.479 103.196L111.774 95.2308C111.986 93.9281 110.334 93.1996 109.527 94.2401Z" fill="#F4AD5E"/>
<path d="M350.866 94.4853L347.638 95.1827C347.442 95.2251 347.242 95.1547 347.121 95.0001L345.576 93.0343C345.244 92.6114 344.553 92.9239 344.623 93.4651L344.959 96.0266C344.983 96.2136 344.907 96.4033 344.759 96.5256L342.539 98.353C342.122 98.6966 342.385 99.3595 342.913 99.2959L345.836 98.944C346.008 98.9234 346.176 98.9869 346.287 99.1147L347.81 100.859C348.153 101.252 348.811 100.938 348.747 100.412L348.466 98.1294C348.443 97.9461 348.517 97.7606 348.661 97.6391L351.294 95.4154C351.725 95.0517 351.41 94.3677 350.866 94.4853Z" fill="#F4AD5E"/>
<path d="M393.718 160.658L390.877 174.153V182.675L397.269 188.357L416.445 186.226V173.442L415.735 158.527C423.548 148.584 426.389 129.408 417.866 119.464C409.343 109.521 387.326 108.101 383.064 131.538C379.655 150.289 388.746 158.764 393.718 160.658Z" fill="#EFCB96"/>
<path d="M347.552 423.446L354.828 343.899H456.686L466.872 423.446H347.552Z" fill="#032068"/>
<path d="M279.37 195.46C279.37 197.733 281.738 201.615 282.921 203.272L281.501 211.795L270.847 213.216C268.006 209.665 259.483 208.244 257.353 202.562C255.648 198.017 260.43 193.092 263.035 191.909L254.207 179.55C253.173 178.103 253.416 176.107 254.766 174.95C256.197 173.722 258.351 173.88 259.588 175.303L271.557 189.068C271.557 189.541 271.984 189.494 273.688 185.516C275.819 180.545 277.95 182.676 279.37 183.386C280.791 184.096 279.37 192.619 279.37 195.46Z" fill="#EFCB96"/>
<path d="M402.241 181.255C392.582 181.255 390.167 173.679 390.167 169.891C383.349 169.891 378.883 173.22 377.463 174.167L366.019 206.824L363.889 344.609C387.753 351.996 417.867 347.687 429.941 344.609L437.753 174.863C433.058 171.875 426.2 170.571 421.271 170.107C418.859 169.879 416.784 171.587 415.552 173.672C413.41 177.297 409.223 181.255 402.241 181.255Z" fill="white"/>
<path fill-rule="evenodd" clip-rule="evenodd" d="M378.563 175.015L367.335 207.058L365.223 343.635C387.994 350.341 416.298 346.551 428.668 343.566L436.4 175.584C432 173.042 425.795 171.857 421.147 171.42C419.474 171.262 417.802 172.456 416.687 174.343C414.378 178.251 409.813 182.574 402.241 182.574C397.015 182.574 393.603 180.499 391.535 177.795C389.911 175.672 389.162 173.228 388.931 171.249C383.707 171.582 380.141 173.945 378.563 175.015ZM377.018 172.876C378.718 171.719 383.341 168.572 390.167 168.572H391.486V169.891C391.486 171.557 392.029 174.1 393.63 176.192C395.183 178.223 397.809 179.936 402.241 179.936C408.633 179.936 412.441 176.343 414.416 173.001C415.766 170.718 418.244 168.497 421.394 168.794C426.372 169.263 433.492 170.588 438.461 173.75L439.106 174.16L431.213 345.646L430.266 345.887C418.096 348.99 387.702 353.361 363.499 345.869L362.555 345.577L364.704 206.589L376.364 173.315L376.731 173.07C376.815 173.014 376.911 172.949 377.018 172.876Z" fill="#032068"/>
<path d="M377.382 243.756C378.376 226.368 383.786 195.044 387.345 176.369C388.215 168.446 391.194 167.878 381.574 170.643C347.885 180.325 339.732 224.624 329.086 225.29C321.508 225.763 303.205 213.11 291.289 203.949C287.706 201.194 282.617 201.445 279.421 204.641L271.805 212.257C269.472 214.59 268.604 218.033 269.899 221.067C278.698 241.696 303.441 274.257 319.143 282.108C332.779 288.927 343.764 279.268 347.552 273.586C347.316 291.815 346.984 330.689 347.552 340.348C348.263 352.422 347.552 362.365 356.075 363.786C364.598 365.206 380.933 362.365 380.933 359.524C380.933 356.683 375.962 268.614 377.382 243.756Z" fill="#F4AD5E"/>
<path d="M411.474 243.046C411.996 229.986 418.562 194.714 422.561 174.761C423.562 169.765 423.163 169.463 428.415 170.922C465.226 181.151 494.452 244.146 491.73 269.324C489.458 290.347 472.791 323.539 464.741 337.507C465.215 346.03 465.31 363.36 461.9 364.496C457.639 365.917 420.707 364.496 418.576 360.235C416.445 355.973 410.763 260.802 411.474 243.046Z" fill="#F4AD5E"/>
<path d="M419.551 339.11C415.09 337.183 413.036 332.005 414.963 327.544L428.954 295.157C430.881 290.697 436.06 288.643 440.521 290.57L488.076 311.114C492.537 313.041 494.591 318.219 492.664 322.68L478.673 355.067C476.746 359.527 471.568 361.581 467.107 359.654L419.551 339.11Z" fill="white"/>
<path fill-rule="evenodd" clip-rule="evenodd" d="M419.028 340.321C413.899 338.105 411.537 332.151 413.753 327.021L427.744 294.634C429.96 289.505 435.914 287.143 441.044 289.359L488.599 309.903C493.729 312.119 496.091 318.074 493.875 323.203L479.884 355.59C477.668 360.719 471.713 363.081 466.584 360.865L419.028 340.321ZM416.174 328.067C414.536 331.859 416.282 336.262 420.074 337.9L467.63 358.444C471.422 360.082 475.824 358.336 477.463 354.544L491.454 322.157C493.092 318.365 491.346 313.963 487.554 312.324L439.998 291.78C436.206 290.142 431.803 291.888 430.165 295.68L416.174 328.067Z" fill="#032068"/>
<path d="M488.18 243.756C483.681 250.858 476.816 270.461 485.339 292.052C489.6 284.003 496.134 263.074 488.18 243.756Z" fill="#032068"/>
<path d="M305.649 271.455C312.515 269.798 329.797 268.756 344.002 277.847C338.32 284.239 322.695 291.91 305.649 271.455Z" fill="#032068"/>
<path d="M351.103 233.813C349.683 246.597 348.262 262.932 347.552 275.006C344.143 278.984 335.715 282.819 331.927 284.239C341.586 273.444 346.842 249.438 351.103 233.813Z" fill="#032068"/>
<path d="M432.871 342.687C433.44 340.982 439.264 335.348 442.105 332.744C448.023 332.033 459.435 332.744 457.73 341.266C455.599 351.92 453.469 360.443 442.105 356.892C433.013 354.051 434.055 348.132 435.712 345.528C434.529 345.291 432.303 344.391 432.871 342.687Z" fill="#EFCB96"/>
<path d="M405.607 423.417L398.949 384.83V423.417H405.607Z" fill="white"/>
<path d="M415.025 144.323L415.736 157.107L415.91 171.083C416.172 171.072 416.969 169.871 417.229 169.865C429.945 169.563 440.551 175.98 444.264 178.996C449.235 158.399 432.071 144.323 432.071 136.51C432.071 128.697 428.52 104.55 404.372 103.839C386.258 103.307 381.299 118.133 380.946 128.767C380.91 129.848 381.899 130.644 382.914 130.269C387.779 128.474 393.996 123.479 397.695 119.554C398.724 118.463 400.845 118.812 401.515 120.154C403.224 123.579 405.725 126.751 407.517 128.918C407.779 129.236 407.922 129.63 407.929 130.042C407.968 132.056 408.177 134.788 408.501 137.487C408.728 139.379 411.359 139.372 411.954 137.561C412.622 135.525 413.429 133.578 414.315 132.249C417.156 127.987 421.418 131.538 421.418 136.51C421.418 140.487 417.156 143.376 415.025 144.323Z" fill="#032068"/>
<path d="M376.672 172.732C379.513 169.891 382.591 155.923 383.775 149.294C384.911 154.976 390.877 159.238 393.718 160.658L391.512 171.083L390.853 169.105C385.171 169.105 379.277 171.549 376.672 172.732Z" fill="#032068"/>
<path d="M454.855 339.273L444.566 335.219C440.618 333.664 438.343 329.515 439.143 325.347C441.362 313.786 444.196 298.604 446.276 286.445L481.787 301.995C477.81 312.791 470.187 327.8 466.872 333.956L465.196 336.261C462.837 339.504 458.585 340.742 454.855 339.273Z" fill="#F4AD5E"/>
<path d="M449.116 266.483C449.116 260.233 437.989 241.862 432.78 230.972C444.221 264.989 444.887 272.978 439.561 323.578C442.89 306.933 449.116 269.466 449.116 266.483Z" fill="#032068"/>
<path d="M404.941 160.46C400.148 162.591 395.399 161.348 393.623 160.46L392.292 167.118C398.683 167.118 403.388 162.679 404.941 160.46Z" fill="#032068"/>
</svg>
