<svg width="512" height="512" viewBox="0 0 512 512" fill="none" xmlns="http://www.w3.org/2000/svg">
<path d="M280.396 478.304H227.918H136.09C100.812 478.304 68.0437 460.066 49.4693 430.092L26.2272 392.586C7.21748 361.91 18.6217 321.545 50.8781 305.334C80.0517 290.673 92.6692 255.779 79.6132 225.867L70.3195 204.574C56.582 173.101 62.8987 136.477 86.3868 111.417L127.156 67.9178C170.275 21.9109 242.947 20.7246 287.547 65.2994L338.432 116.155C345.042 122.761 355.319 123.982 363.294 119.11C376.098 111.287 392.668 119.627 394.001 134.565L400.315 205.28C401.704 220.838 408.752 235.332 421.244 244.719C445.884 263.236 479.875 286.048 486.093 301.228C529.919 408.208 396.068 478.304 280.396 478.304Z" fill="#E7E8FF"/>
<path d="M49.8393 396.834C89.71 416.614 106.289 458.819 109.072 477.743H94.1247C60.6438 454.434 48.3498 418.106 46.1762 399.351C45.9406 397.318 48.0057 395.925 49.8393 396.834Z" fill="#032068"/>
<path d="M60.5646 336.95C105.336 358.674 118.48 439.012 119.42 477.168H99.2989C52.8467 410.119 51.4224 358.625 57.028 338.501C57.4537 336.972 59.1373 336.258 60.5646 336.95Z" fill="white"/>
<path fill-rule="evenodd" clip-rule="evenodd" d="M58.3653 338.873C58.5475 338.219 59.2732 337.867 59.9583 338.199C81.8137 348.804 96.1375 373.846 105.109 401.328C113.838 428.067 117.388 456.776 117.992 475.78H100.027C54.1428 409.258 52.917 358.433 58.3653 338.873ZM61.1705 335.701C59.0011 334.648 56.3595 335.726 55.6903 338.128C49.9438 358.758 51.5428 410.676 98.1574 477.959L98.5716 478.557H120.843L120.808 477.134C120.335 457.951 116.799 428.19 107.749 400.466C98.72 372.809 84.0861 346.82 61.1705 335.701Z" fill="#032068"/>
<path fill-rule="evenodd" clip-rule="evenodd" d="M62.9285 353.475L81.3566 403.231L70.5564 398.296L69.4024 400.821L82.7176 406.905L99.4257 452.017L90.0387 448.284L89.0124 450.864L100.724 455.522L108.919 477.65L111.523 476.686L94.8999 431.803L103.44 412.775L100.906 411.638L93.5238 428.087L75.4899 379.395L79.9302 364.897L77.2751 364.084L73.9002 375.103L65.5325 352.51L62.9285 353.475Z" fill="#032068"/>
<path d="M398.073 81.9227L403.341 76.4728C404.28 75.5022 405.911 76.3059 405.713 77.6413L404.628 84.9636C404.562 85.4066 404.714 85.8541 405.036 86.1653L410.861 91.7953C411.799 92.702 411.082 94.2847 409.781 94.1773L401.621 93.5034C401.225 93.4706 400.833 93.6098 400.546 93.8854L394.056 100.114C393.092 101.039 391.506 100.203 391.725 98.8847L393.108 90.5652C393.176 90.1599 393.06 89.7456 392.793 89.4337L386.821 82.4682C385.943 81.4437 386.894 79.895 388.205 80.2159L396.745 82.3063C397.224 82.4237 397.73 82.2777 398.073 81.9227Z" fill="#F4AD5E"/>
<path d="M430.958 169.495L433.25 168.637C434.514 168.164 435.642 169.59 434.89 170.711L433.566 172.684C433.316 173.055 433.261 173.525 433.418 173.944L434.459 176.724C434.917 177.946 433.589 179.067 432.461 178.412L429.819 176.876C429.475 176.676 429.061 176.633 428.684 176.759L425.44 177.837C424.172 178.258 423.099 176.821 423.863 175.725L425.622 173.203C425.857 172.866 425.93 172.442 425.823 172.046L424.918 168.705C424.565 167.403 426.09 166.413 427.135 167.266L429.594 169.271C429.976 169.583 430.496 169.668 430.958 169.495Z" fill="#F4AD5E"/>
<path d="M60.831 229.669L56.9377 234.755C56.7008 235.064 56.3145 235.213 55.9361 235.141L51.1241 234.221C50.0888 234.023 49.4643 235.35 50.2633 236.05L54.0451 239.363C54.3213 239.605 54.4517 239.978 54.3882 240.343L53.4394 245.807C53.2611 246.834 54.5008 247.469 55.2027 246.711L59.0875 242.512C59.3156 242.266 59.6463 242.147 59.9756 242.192L64.4716 242.817C65.4844 242.958 66.0579 241.67 65.2878 240.985L61.9442 238.009C61.6757 237.77 61.5474 237.406 61.605 237.047L62.6593 230.485C62.8317 229.412 61.4873 228.811 60.831 229.669Z" fill="#F4AD5E"/>
<path d="M107.247 89.5749C107.247 80.3734 114.706 72.9141 123.907 72.9141H313.453C322.654 72.9141 330.114 80.3734 330.114 89.5749V460.2C330.114 469.402 322.654 476.861 313.453 476.861H123.907C114.706 476.861 107.247 469.402 107.247 460.2V89.5749Z" fill="white"/>
<path fill-rule="evenodd" clip-rule="evenodd" d="M105.858 89.5749C105.858 79.6066 113.939 71.5256 123.908 71.5256H313.453C323.421 71.5256 331.502 79.6066 331.502 89.5749V460.2C331.502 470.168 323.421 478.249 313.453 478.249H123.908C113.939 478.249 105.858 470.168 105.858 460.2V89.5749ZM123.908 74.3024C115.473 74.3024 108.635 81.1401 108.635 89.5749V460.2C108.635 468.635 115.473 475.472 123.908 475.472H313.453C321.888 475.472 328.726 468.635 328.726 460.2V89.5749C328.726 81.1402 321.888 74.3024 313.453 74.3024H123.908Z" fill="#032068"/>
<path d="M174.365 86.4567L167.142 72.9133H270.218L261.726 87.0664C259.217 91.2483 254.698 93.8071 249.821 93.8071H186.616C181.488 93.8071 176.778 90.9811 174.365 86.4567Z" fill="#032068"/>
<path d="M327.381 81.2709H108.559C115.802 74.0277 122.72 72.6812 125.274 72.9134H310.666C319.58 72.9134 325.523 78.4851 327.381 81.2709Z" fill="#032068"/>
<path d="M327.275 468.94H110.086C117.613 476.3 121.964 477.669 124.618 477.433H312.743C322.008 477.433 325.345 471.771 327.275 468.94Z" fill="#032068"/>
<path d="M132.797 120.095C132.797 117.795 134.662 115.93 136.962 115.93H208.126C210.426 115.93 212.291 117.795 212.291 120.095V120.282C212.291 122.582 210.426 124.447 208.126 124.447H136.962C134.662 124.447 132.797 122.582 132.797 120.282V120.095Z" fill="#F4AD5E"/>
<path fill-rule="evenodd" clip-rule="evenodd" d="M130.85 148.131C130.85 145.064 133.336 142.577 136.403 142.577H301.624C304.691 142.577 307.177 145.064 307.177 148.131V299.467C307.177 302.534 304.691 305.021 301.624 305.021H136.403C133.336 305.021 130.85 302.534 130.85 299.467V148.131ZM136.403 145.354C134.87 145.354 133.626 146.597 133.626 148.131V299.467C133.626 301.001 134.87 302.244 136.403 302.244H301.624C303.157 302.244 304.4 301.001 304.4 299.467V148.131C304.4 146.597 303.157 145.354 301.624 145.354H136.403Z" fill="#E7E8FF"/>
<path d="M175.279 411.66C175.279 409.36 177.144 407.495 179.444 407.495H258.583C260.884 407.495 262.748 409.36 262.748 411.66V433.875C262.748 436.175 260.884 438.04 258.583 438.04H179.444C177.144 438.04 175.279 436.175 175.279 433.875V411.66Z" fill="#F4AD5E"/>
<path fill-rule="evenodd" clip-rule="evenodd" d="M314.468 92.7627V104.119H311.691V92.7627H314.468Z" fill="#032068"/>
<path fill-rule="evenodd" clip-rule="evenodd" d="M307.371 94.1823V104.119H304.594V94.1823H307.371Z" fill="#032068"/>
<path fill-rule="evenodd" clip-rule="evenodd" d="M300.273 97.0214V104.119H297.496V97.0214H300.273Z" fill="#032068"/>
<path fill-rule="evenodd" clip-rule="evenodd" d="M293.175 99.8604V104.119H290.398V99.8604H293.175Z" fill="#032068"/>
<path d="M132.238 225.882H307.177V241.154H132.238V225.882Z" fill="#E7E8FF"/>
<path d="M171.113 143.966H186.386V228.658H171.113V143.966Z" fill="#E7E8FF"/>
<path d="M247.476 234.212H262.748V303.632H247.476V234.212Z" fill="#E7E8FF"/>
<path fill-rule="evenodd" clip-rule="evenodd" d="M221.098 237.869C226.014 237.869 247.523 199.924 247.523 185.448C247.523 170.973 235.692 159.238 221.098 159.238C206.504 159.238 194.673 170.973 194.673 185.448C194.673 199.924 214.338 237.869 221.098 237.869ZM221.099 199.198C228.574 199.198 234.634 193.138 234.634 185.663C234.634 178.188 228.574 172.128 221.099 172.128C213.624 172.128 207.564 178.188 207.564 185.663C207.564 193.138 213.624 199.198 221.099 199.198Z" fill="#F4AD5E"/>
<path d="M188.143 383.028C188.143 388.873 183.404 393.611 177.56 393.611C171.715 393.611 166.977 388.873 166.977 383.028C166.977 377.184 171.715 372.446 177.56 372.446C183.404 372.446 188.143 377.184 188.143 383.028Z" fill="white"/>
<path fill-rule="evenodd" clip-rule="evenodd" d="M177.56 373.834C172.482 373.834 168.365 377.95 168.365 383.028C168.365 388.106 172.482 392.223 177.56 392.223C182.637 392.223 186.754 388.106 186.754 383.028C186.754 377.95 182.637 373.834 177.56 373.834ZM165.588 383.028C165.588 376.417 170.948 371.057 177.56 371.057C184.171 371.057 189.531 376.417 189.531 383.028C189.531 389.64 184.171 394.999 177.56 394.999C170.948 394.999 165.588 389.64 165.588 383.028Z" fill="#032068"/>
<path d="M269.781 383.028C269.781 388.873 265.381 393.611 259.954 393.611C254.527 393.611 250.127 388.873 250.127 383.028C250.127 377.184 254.527 372.446 259.954 372.446C265.381 372.446 269.781 377.184 269.781 383.028Z" fill="white"/>
<path fill-rule="evenodd" clip-rule="evenodd" d="M259.954 373.834C255.389 373.834 251.516 377.852 251.516 383.028C251.516 388.205 255.389 392.223 259.954 392.223C264.519 392.223 268.392 388.205 268.392 383.028C268.392 377.852 264.519 373.834 259.954 373.834ZM248.739 383.028C248.739 376.515 253.665 371.057 259.954 371.057C266.243 371.057 271.169 376.515 271.169 383.028C271.169 389.541 266.243 394.999 259.954 394.999C253.665 394.999 248.739 389.541 248.739 383.028Z" fill="#032068"/>
<path d="M271.194 381.464C270.017 375.774 265.088 371.504 259.187 371.504C253.285 371.504 248.356 375.774 247.18 381.464H190.392C189.216 375.774 184.287 371.504 178.385 371.504C172.484 371.504 167.555 375.774 166.378 381.464C164.499 381.464 160.587 381.149 159.974 379.891C159.207 378.319 156.861 360.758 158.441 358.399C161.252 354.205 184.778 351.061 186.824 350.536C189.861 344.63 195.885 333.023 197.684 329.941C197.887 329.592 197.774 329.133 197.424 328.932C196.202 328.227 196.701 326.341 198.112 326.326C203.406 326.27 209.509 326.162 213.928 326.162C224.156 326.162 255.097 324.851 257.142 326.162C259.187 327.472 260.466 326.686 262.256 334.549C264.046 342.411 265.069 348.964 267.114 351.323C269.16 353.682 271.717 353.944 272.74 358.399C273.762 362.855 276.064 379.105 275.808 380.677C274.529 380.939 272.647 381.726 271.194 381.464Z" fill="white"/>
<path fill-rule="evenodd" clip-rule="evenodd" d="M227.302 327.305C221.886 327.433 216.982 327.55 213.929 327.55C210.955 327.55 207.223 327.599 203.48 327.648C201.67 327.672 199.857 327.696 198.127 327.714C198.127 327.714 198.127 327.714 198.127 327.714C198.125 327.717 198.124 327.721 198.123 327.724C198.122 327.727 198.122 327.729 198.122 327.731C199.16 328.332 199.459 329.653 198.883 330.641C197.108 333.682 191.106 345.246 188.059 351.171L187.774 351.726L187.169 351.881C186.739 351.991 185.564 352.189 183.994 352.454C183.427 352.549 182.809 352.653 182.156 352.765C179.625 353.198 176.425 353.767 173.208 354.45C169.982 355.134 166.776 355.923 164.22 356.79C162.941 357.224 161.861 357.665 161.037 358.104C160.176 358.563 159.751 358.939 159.595 359.172C159.595 359.172 159.595 359.173 159.594 359.175C159.582 359.203 159.479 359.451 159.401 360.102C159.325 360.73 159.29 361.551 159.295 362.525C159.304 364.466 159.469 366.883 159.709 369.303C159.949 371.718 160.261 374.107 160.56 375.983C160.709 376.922 160.854 377.721 160.981 378.325C161.045 378.628 161.103 378.87 161.152 379.05C161.174 379.131 161.192 379.188 161.204 379.226C161.246 379.256 161.338 379.315 161.516 379.391C161.864 379.54 162.356 379.674 162.952 379.783C163.721 379.924 164.565 380.005 165.304 380.045C166.994 374.318 172.193 370.116 178.385 370.116C184.589 370.116 189.795 374.333 191.476 380.075H246.096C247.777 374.333 252.983 370.116 259.187 370.116C265.399 370.116 270.611 374.345 272.284 380.098C272.565 380.065 272.883 380.004 273.24 379.918C273.577 379.836 273.91 379.742 274.256 379.645L274.377 379.611C274.388 379.608 274.399 379.605 274.41 379.602C274.409 379.583 274.408 379.564 274.406 379.544C274.368 378.967 274.297 378.207 274.2 377.309C274.006 375.514 273.713 373.211 273.378 370.811C272.706 365.99 271.883 360.871 271.387 358.71C270.944 356.781 270.209 355.848 269.384 355.108C269.051 354.81 268.719 354.555 268.339 354.263C268.187 354.146 268.027 354.024 267.856 353.89C267.287 353.443 266.663 352.921 266.065 352.232C265.4 351.465 264.883 350.44 264.448 349.311C264.008 348.167 263.616 346.819 263.243 345.339C262.8 343.58 262.361 341.545 261.892 339.363C261.579 337.913 261.253 336.398 260.902 334.857C260.008 330.929 259.295 329.461 258.732 328.792C258.483 328.496 258.238 328.326 257.896 328.143C257.817 328.101 257.713 328.048 257.592 327.988C257.28 327.832 256.856 327.62 256.462 327.374C256.434 327.366 256.35 327.342 256.183 327.311C255.904 327.26 255.511 327.212 255.001 327.169C253.984 327.083 252.604 327.027 250.94 326.997C247.619 326.936 243.261 326.976 238.628 327.058C234.896 327.124 230.981 327.217 227.302 327.305ZM158.726 380.5C158.542 380.121 158.391 379.499 158.265 378.9C158.124 378.234 157.971 377.385 157.818 376.42C157.51 374.487 157.191 372.043 156.946 369.577C156.701 367.116 156.528 364.602 156.518 362.538C156.513 361.509 156.548 360.559 156.644 359.769C156.73 359.052 156.89 358.221 157.288 357.626C157.835 356.811 158.76 356.171 159.731 355.653C160.74 355.116 161.975 354.619 163.328 354.16C166.038 353.241 169.369 352.425 172.632 351.733C175.903 351.04 179.144 350.463 181.688 350.028C182.462 349.895 183.16 349.778 183.771 349.675C184.691 349.52 185.412 349.398 185.894 349.31C188.851 343.565 194.165 333.333 196.197 329.743C194.45 328.128 195.517 324.965 198.097 324.937C199.81 324.919 201.612 324.895 203.417 324.872C207.172 324.823 210.937 324.773 213.929 324.773C216.956 324.773 221.793 324.658 227.172 324.53C230.856 324.442 234.795 324.349 238.579 324.282C243.217 324.2 247.617 324.159 250.991 324.22C252.675 324.251 254.127 324.308 255.234 324.402C255.786 324.448 256.278 324.506 256.682 324.58C257.018 324.641 257.509 324.747 257.891 324.993C258.179 325.177 258.397 325.285 258.662 325.416C258.82 325.494 258.993 325.58 259.208 325.695C259.738 325.979 260.307 326.35 260.857 327.004C261.892 328.235 262.714 330.305 263.61 334.24C263.979 335.864 264.311 337.407 264.624 338.862C265.083 340.993 265.5 342.934 265.936 344.66C266.298 346.096 266.657 347.32 267.04 348.313C267.428 349.322 267.806 350.001 268.163 350.413C268.589 350.904 269.052 351.299 269.569 351.704C269.691 351.8 269.821 351.9 269.956 352.003C270.364 352.316 270.82 352.666 271.238 353.041C272.458 354.136 273.513 355.562 274.093 358.089C274.62 360.384 275.458 365.617 276.129 370.428C276.465 372.844 276.763 375.177 276.961 377.011C277.06 377.926 277.135 378.728 277.177 379.358C277.215 379.921 277.241 380.516 277.179 380.9L277.025 381.845L276.087 382.037C275.823 382.092 275.512 382.176 275.128 382.284C275.088 382.295 275.048 382.307 275.008 382.318C274.667 382.414 274.283 382.522 273.893 382.617C273.049 382.821 271.975 383.015 270.947 382.83L270.024 382.663L269.834 381.745C268.784 376.663 264.394 372.892 259.187 372.892C253.98 372.892 249.59 376.663 248.54 381.745L248.311 382.852H189.262L189.033 381.745C187.982 376.663 183.592 372.892 178.385 372.892C173.178 372.892 168.789 376.663 167.738 381.745L167.509 382.852H166.379C165.383 382.852 163.847 382.77 162.452 382.515C161.758 382.388 161.04 382.208 160.423 381.944C159.862 381.704 159.107 381.28 158.726 380.5Z" fill="#032068"/>
<path d="M272.232 380.005C271.04 374.856 266.046 370.993 260.067 370.993C254.087 370.993 249.094 374.856 247.902 380.005L245.819 379.916C246.25 375.914 249.703 367.91 260.067 367.91C270.43 367.91 273.884 375.973 274.316 380.005H272.232Z" fill="#032068"/>
<path d="M190.366 380.005C189.174 374.856 184.181 370.993 178.201 370.993C172.222 370.993 167.228 374.856 166.036 380.005C165.475 380.005 164.734 379.98 163.953 379.916C164.384 375.914 167.838 367.91 178.201 367.91C188.564 367.91 192.019 375.973 192.451 380.005H190.366Z" fill="#032068"/>
<path d="M183.607 383.028C183.607 386.368 181.238 389.076 178.316 389.076C175.393 389.076 173.024 386.368 173.024 383.028C173.024 379.688 175.393 376.981 178.316 376.981C181.238 376.981 183.607 379.688 183.607 383.028Z" fill="#032068"/>
<path d="M265.245 383.028C265.245 386.368 262.537 389.076 259.198 389.076C255.858 389.076 253.15 386.368 253.15 383.028C253.15 379.688 255.858 376.981 259.198 376.981C262.537 376.981 265.245 379.688 265.245 383.028Z" fill="#032068"/>
<path d="M160.54 380.005H164.175C164.549 376.877 166.199 373.662 166.977 372.446H160.54C158.315 372.446 156.571 374.358 156.777 376.574C156.957 378.518 158.588 380.005 160.54 380.005Z" fill="#032068"/>
<path d="M274.683 380.005H272.745C272.349 376.877 270.604 373.662 269.781 372.446H274.683C276.917 372.446 278.663 374.371 278.445 376.594C278.255 378.529 276.628 380.005 274.683 380.005Z" fill="#032068"/>
<path d="M160.929 366.398C160.929 368.903 160.253 370.934 159.418 370.934C158.583 370.934 157.906 368.903 157.906 366.398C157.906 363.893 158.583 361.863 159.418 361.863C160.253 361.863 160.929 363.893 160.929 366.398Z" fill="#F4AD5E"/>
<path d="M275.828 367.91C275.828 369.58 275.151 370.934 274.316 370.934C273.481 370.934 272.804 369.58 272.804 367.91C272.804 366.24 273.481 364.886 274.316 364.886C275.151 364.886 275.828 366.24 275.828 367.91Z" fill="#F4AD5E"/>
<path d="M196.31 352.792H223.227C225.528 352.792 227.393 350.927 227.393 348.627V336.003C227.393 333.752 225.608 331.908 223.358 331.851C214.466 331.627 201.574 331.44 200.693 331.963C199.922 332.421 195.92 340.161 192.596 346.821C191.223 349.574 193.234 352.792 196.31 352.792Z" fill="white"/>
<path d="M231.5 348.627V335.987C231.5 333.743 233.277 331.901 235.521 331.838C243.254 331.62 253.831 331.451 254.349 331.963C254.841 332.45 256.132 341.197 257.068 348.103C257.405 350.59 255.464 352.792 252.954 352.792H235.665C233.365 352.792 231.5 350.927 231.5 348.627Z" fill="white"/>
<path fill-rule="evenodd" clip-rule="evenodd" d="M201.186 333.252C201.185 333.252 201.191 333.251 201.204 333.248C201.193 333.251 201.186 333.253 201.186 333.252ZM201.43 333.21C201.502 333.201 201.589 333.191 201.69 333.181C202.102 333.14 202.68 333.107 203.405 333.081C204.85 333.03 206.802 333.011 209.018 333.016C213.448 333.025 218.882 333.127 223.323 333.239C224.814 333.277 226.004 334.499 226.004 336.003V348.627C226.004 350.16 224.761 351.404 223.227 351.404H196.31C194.254 351.404 192.931 349.261 193.839 347.441C195.498 344.115 197.323 340.529 198.826 337.722C199.579 336.316 200.243 335.12 200.761 334.255C201.022 333.82 201.234 333.488 201.394 333.261C201.407 333.243 201.419 333.226 201.43 333.21ZM201.568 333.033C201.576 333.024 201.58 333.021 201.58 333.021C201.58 333.021 201.576 333.026 201.568 333.033ZM209.024 330.239C213.484 330.248 218.943 330.351 223.393 330.463C226.402 330.539 228.781 333.005 228.781 336.003V348.627C228.781 351.694 226.294 354.18 223.227 354.18H196.31C192.214 354.18 189.515 349.887 191.354 346.202C193.018 342.867 194.856 339.253 196.378 336.411C197.138 334.992 197.826 333.75 198.379 332.828C198.654 332.368 198.907 331.968 199.126 331.658C199.235 331.504 199.349 331.354 199.463 331.222C199.554 331.118 199.735 330.917 199.984 330.769L200.682 331.944L199.984 330.769C200.272 330.598 200.596 330.536 200.738 330.509C200.94 330.471 201.173 330.441 201.42 330.417C201.916 330.369 202.56 330.333 203.306 330.306C204.804 330.253 206.796 330.234 209.024 330.239ZM254.803 330.635C254.902 330.676 255.121 330.774 255.325 330.976C255.578 331.226 255.699 331.533 255.738 331.63L255.74 331.636C255.802 331.792 255.857 331.966 255.905 332.137C256.002 332.483 256.105 332.93 256.21 333.44C256.421 334.466 256.661 335.844 256.913 337.405C257.417 340.533 257.975 344.459 258.443 347.916C258.894 351.245 256.297 354.18 252.954 354.18H235.665C232.598 354.18 230.112 351.694 230.112 348.627V335.987C230.112 332.997 232.481 330.534 235.482 330.45C239.353 330.341 243.945 330.244 247.639 330.238C249.482 330.236 251.12 330.256 252.338 330.31C252.942 330.337 253.471 330.373 253.879 330.424C254.08 330.449 254.286 330.481 254.472 330.528C254.565 330.551 254.681 330.584 254.803 330.635ZM247.643 333.015C243.985 333.021 239.422 333.117 235.56 333.226C234.074 333.267 232.888 334.488 232.888 335.987V348.627C232.888 350.16 234.132 351.404 235.665 351.404H252.954C254.631 351.404 255.915 349.936 255.692 348.289C255.225 344.84 254.67 340.94 254.171 337.847C253.922 336.297 253.689 334.966 253.49 333.999C253.42 333.661 253.357 333.379 253.301 333.154C253.021 333.127 252.658 333.104 252.214 333.084C251.061 333.033 249.474 333.012 247.643 333.015ZM253.16 332.661C253.16 332.663 253.161 332.664 253.161 332.666C253.144 332.631 253.144 332.623 253.16 332.661Z" fill="#032068"/>
<path d="M389.342 265.292L396.09 281.741C396.09 286.726 393.241 296.696 381.844 296.696C370.447 296.696 363.599 290.215 361.599 286.975V274.264C357.85 274.264 353.352 269.03 351.102 265.292C348.853 261.553 338.356 239.122 350.352 224.915C362.349 210.709 378.845 220.429 389.342 233.888C397.739 244.655 392.841 259.31 389.342 265.292Z" fill="#EFCB96"/>
<path d="M482.318 476.894H410.338H323.36C309.864 458.949 300.866 325.856 309.114 311.65C322.136 289.218 348.103 283.984 360.1 280.994C362.099 284.732 367.898 289.218 378.095 289.218C388.292 289.218 394.84 281.741 396.84 278.003C411.336 280.744 443.927 289.368 458.323 301.929C476.318 317.631 489.816 388.664 495.064 433.526C499.263 469.417 488.316 477.392 482.318 476.894Z" fill="#F4AD5E"/>
<path d="M423.082 463.435C438.078 457.453 456.323 425.551 463.571 410.347C457.823 432.031 435.079 473.332 417.834 470.164C395.04 465.977 360.35 418.074 345.854 394.646C365.348 420.068 408.086 469.417 423.082 463.435Z" fill="#032068"/>
<path d="M395.34 452.967C411.536 444.592 432.58 446.985 441.078 449.228C437.829 455.459 429.081 467.622 420.083 466.426C411.086 465.229 399.839 456.955 395.34 452.967Z" fill="#032068"/>
<path d="M409.586 381.934L417.834 356.512L405.087 378.196C394.89 375.205 379.594 367.728 361.599 363.989C378.095 369.971 409.086 387.418 426.832 397.636L409.586 381.934Z" fill="#032068"/>
<path d="M351.852 358.755C352.452 359.952 355.601 364.239 357.101 366.232L346.603 384.177C345.715 382.931 343.188 379.99 340.189 378.196C336.44 375.953 324.859 373.71 324.859 364.737C324.859 357.559 329.858 351.777 332.357 349.783C328.358 345.546 319.611 338.567 319.611 336.324C319.611 334.652 320.361 331.838 323.36 332.585C326.359 333.333 336.856 345.297 339.106 346.044C341.355 346.792 347.353 346.044 349.603 347.54C351.852 349.035 351.102 357.26 351.852 358.755Z" fill="#EFCB96"/>
<path d="M378.845 270.526C373.446 274.713 365.098 274.763 361.599 274.264V279.498C368.797 279.498 376.095 273.516 378.845 270.526Z" fill="#032068"/>
<path d="M384.843 259.31C385.443 261.703 389.592 268.781 391.591 272.021C397.589 269.778 399.09 237.626 395.341 227.906C392.341 220.13 381.094 218.186 376.595 218.933C373.596 216.69 369.849 212.204 347.355 215.943C324.862 219.681 324.862 245.103 339.857 245.851C354.853 246.599 360.849 239.122 363.099 239.869C365.348 240.617 366.848 242.112 372.096 248.842C377.345 255.571 375.845 255.571 376.595 248.842C377.345 242.112 380.344 242.112 385.593 245.851C390.841 249.59 384.093 256.319 384.843 259.31Z" fill="#032068"/>
<path d="M278.153 304.256L288.568 349.956C288.671 350.411 289.023 350.769 289.478 350.882L307.173 355.282C308.066 355.504 308.883 354.713 308.686 353.816L299.373 311.43C299.286 311.033 299.009 310.704 298.633 310.55L279.835 302.837C278.905 302.456 277.93 303.278 278.153 304.256Z" fill="white"/>
<path fill-rule="evenodd" clip-rule="evenodd" d="M280.307 301.693C278.447 300.93 276.496 302.574 276.942 304.53L287.357 350.23C287.565 351.14 288.269 351.857 289.177 352.083L289.477 350.882L289.177 352.083L306.873 356.483C308.659 356.927 310.292 355.345 309.898 353.552L300.585 311.165C300.411 310.372 299.858 309.714 299.105 309.405L280.307 301.693ZM279.363 303.982L298.161 311.694L307.473 354.081L289.778 349.681L279.363 303.982Z" fill="#032068"/>
<path d="M303.419 357.498V363.964C296.027 367.627 281.502 373.015 282.546 365.257C283.85 355.558 279.937 354.265 277.98 343.274C276.414 334.48 280.372 330.989 282.546 330.342C282.981 332.066 283.981 335.903 284.503 337.454C285.155 339.394 291.678 336.161 296.896 335.515C302.114 334.868 305.376 344.567 306.028 349.739C306.681 354.912 303.419 355.558 303.419 357.498Z" fill="#EFCB96"/>
<path d="M324.109 429.04C324.109 438.611 317.612 444.742 314.362 446.985L315.112 451.471C318.611 452.219 326.416 443.247 327.108 434.274C328.302 418.798 315.241 379.827 308.463 362.008C308.43 361.918 308.396 361.831 308.364 361.746C308.397 361.833 308.43 361.92 308.463 362.008C312.321 372.258 324.109 417.181 324.109 429.04Z" fill="#032068"/>
<path d="M291.694 363.989C279.696 363.989 281.371 361.746 278.372 356.512C278.372 374.707 271.625 413.338 274.623 428.292C278.371 446.985 291.694 453.715 299.94 452.219C308.187 450.724 321.685 446.985 323.935 430.536C325.734 417.376 313.188 375.703 306.689 356.512C305.94 358.257 302.048 363.989 291.694 363.989Z" fill="#F4AD5E"/>
<path d="M277.446 438.013C296.041 427.844 315.186 433.277 322.434 437.265C320.435 442.25 313.137 452.369 299.94 452.967C286.744 453.565 279.446 443.247 277.446 438.013Z" fill="#032068"/>
</svg>
