<svg width="512" height="512" viewBox="0 0 512 512" fill="none" xmlns="http://www.w3.org/2000/svg">
<path d="M98.9439 436.197H423.433C470.266 436.197 501.603 388.06 482.606 345.302C476.224 330.939 475.297 314.747 479.998 299.751L492.744 259.087C506.029 216.7 477.191 172.764 432.978 168.032L428.422 167.545C401.523 164.666 379.341 145.203 373.016 118.929C361.475 70.9831 302.231 53.5932 266.555 87.679L247.207 106.165C229.457 123.124 204.723 130.698 180.507 126.588L176.964 125.987C126.883 117.488 82.9947 160.103 90.0817 210.347C93.9313 237.639 82.4762 264.84 60.2532 281.177L50.3758 288.439C31.6208 302.226 19.6252 323.334 17.3869 346.487C12.7381 394.573 50.5796 436.197 98.9439 436.197Z" fill="#E7E8FF"/>
<path d="M186.372 394.874C195.749 406.747 173.608 426.38 161.366 434.712H154.332C161.105 416.485 176.995 383 186.372 394.874Z" fill="white"/>
<path fill-rule="evenodd" clip-rule="evenodd" d="M182.429 393.527C183.421 393.663 184.458 394.239 185.502 395.56C187.583 398.195 187.952 401.269 187.07 404.656C186.177 408.084 184.01 411.771 181.107 415.432C175.397 422.635 167.071 429.453 161.023 433.604H155.934C159.351 424.649 164.696 412.69 170.303 404.111C173.284 399.551 176.248 396.092 178.934 394.475C180.258 393.678 181.418 393.387 182.429 393.527ZM168.447 402.899C162.391 412.165 156.691 425.181 153.293 434.326L152.738 435.82H161.707L161.989 435.628C168.163 431.426 176.857 424.362 182.845 416.809C185.836 413.037 188.211 409.068 189.215 405.215C190.229 401.321 189.85 397.488 187.242 394.187C185.941 392.54 184.43 391.565 182.732 391.331C181.053 391.1 179.38 391.62 177.79 392.577C174.648 394.468 171.457 398.294 168.447 402.899Z" fill="#032068"/>
<path d="M168.399 334.725C189.029 350.973 169.701 408.153 157.458 434.712H136.359C137.141 398.779 142.611 314.415 168.399 334.725Z" fill="#032068"/>
<path fill-rule="evenodd" clip-rule="evenodd" d="M158.578 362.523L161.837 344.681L164.018 345.079L156.29 387.385L167.889 381.391L168.907 383.36L155.787 390.14L147.608 434.911L145.427 434.513L150.202 408.375L141.669 394.678L143.551 393.507L150.794 405.133L157.788 366.848L152.508 352.288L154.593 351.533L158.578 362.523Z" fill="white"/>
<path d="M106.663 322.226C137.296 324.726 149.643 398.259 151.988 434.712H132.451C112.915 411.278 68.3722 319.102 106.663 322.226Z" fill="white"/>
<path fill-rule="evenodd" clip-rule="evenodd" d="M96.7364 326.008C98.8535 324.016 102.002 322.958 106.573 323.331C113.762 323.918 120.019 328.679 125.432 336.368C130.839 344.048 135.286 354.489 138.875 366.065C145.896 388.711 149.554 415.439 150.803 433.604H132.974C123.284 421.766 107.582 393.354 98.9205 368.15C94.5335 355.384 92.0172 343.618 92.8939 335.305C93.3306 331.163 94.5946 328.025 96.7364 326.008ZM96.8236 368.87C105.646 394.544 121.724 423.575 131.6 435.422L131.932 435.82H153.17L153.094 434.641C151.918 416.361 148.236 388.771 140.993 365.409C137.373 353.732 132.843 343.043 127.246 335.093C121.655 327.152 114.882 321.785 106.754 321.122C101.752 320.714 97.9162 321.853 95.2164 324.395C92.5413 326.913 91.1557 330.646 90.6889 335.073C89.7584 343.896 92.4192 356.053 96.8236 368.87Z" fill="#032068"/>
<path d="M109.789 401.904C118.541 398.155 131.319 423.699 136.268 436.197H128.454C120.639 430.729 98.8487 406.591 109.789 401.904Z" fill="#032068"/>
<path fill-rule="evenodd" clip-rule="evenodd" d="M112.668 352.916L106.4 335.092L108.491 334.357L122.62 374.529L129.206 365.326L131.009 366.616L123.518 377.083L143.657 434.345L141.565 435.08L130.154 402.635L119.356 395.81L120.541 393.937L128.968 399.263L113.697 355.842L100.725 349.79L101.663 347.781L112.668 352.916Z" fill="#032068"/>
<path d="M437.133 344.021L433.899 348.259C433.703 348.517 433.382 348.641 433.068 348.581L429.071 347.815C428.212 347.65 427.693 348.756 428.357 349.339L431.497 352.1C431.727 352.302 431.835 352.612 431.782 352.917L430.994 357.469C430.846 358.325 431.876 358.855 432.459 358.223L435.685 354.724C435.874 354.519 436.149 354.419 436.422 354.458L440.156 354.978C440.997 355.095 441.473 354.022 440.834 353.451L438.057 350.971C437.834 350.772 437.728 350.469 437.775 350.17L438.651 344.701C438.794 343.807 437.678 343.307 437.133 344.021Z" fill="white"/>
<path d="M168.02 77.4561L167.693 81.8123C167.673 82.0774 167.509 82.3041 167.267 82.4002L164.194 83.6218C163.532 83.8846 163.669 84.8788 164.382 84.9921L167.758 85.5284C168.004 85.5675 168.217 85.7352 168.316 85.9695L169.801 89.471C170.08 90.1293 171.02 90.0449 171.138 89.351L171.789 85.5106C171.827 85.2851 171.97 85.0958 172.174 85.0023L174.959 83.7253C175.587 83.4376 175.435 82.4849 174.744 82.3695L171.742 81.8683C171.501 81.8281 171.294 81.6648 171.194 81.4366L169.361 77.2616C169.061 76.5788 168.075 76.7218 168.02 77.4561Z" fill="#F4AD5E"/>
<path d="M336.742 115.015C336.742 112.428 338.839 110.33 341.427 110.33H464.363C466.951 110.33 469.049 112.428 469.049 115.015V302.88C469.049 305.468 466.951 307.565 464.363 307.565H341.427C338.839 307.565 336.742 305.468 336.742 302.88V115.015Z" fill="white"/>
<path fill-rule="evenodd" clip-rule="evenodd" d="M336.04 115.015C336.04 112.04 338.452 109.628 341.427 109.628H464.364C467.339 109.628 469.751 112.04 469.751 115.015V302.88C469.751 305.855 467.339 308.267 464.364 308.267H341.427C338.452 308.267 336.04 305.855 336.04 302.88V115.015ZM341.427 111.032C339.227 111.032 337.444 112.815 337.444 115.015V302.88C337.444 305.08 339.227 306.863 341.427 306.863H464.364C466.563 306.863 468.346 305.08 468.346 302.88V115.015C468.346 112.815 466.563 111.032 464.364 111.032H341.427Z" fill="#032068"/>
<path d="M336.742 115.015C336.742 112.428 338.839 110.33 341.427 110.33H464.363C466.951 110.33 469.049 112.428 469.049 115.015V138.506H336.742V115.015Z" fill="#032068"/>
<path d="M362.599 124.619C362.599 128.001 359.858 130.743 356.475 130.743C353.093 130.743 350.352 128.001 350.352 124.619C350.352 121.237 353.093 118.495 356.475 118.495C359.858 118.495 362.599 121.237 362.599 124.619Z" fill="white"/>
<path d="M383.013 124.619C383.013 128.001 380.272 130.743 376.89 130.743C373.507 130.743 370.766 128.001 370.766 124.619C370.766 121.237 373.507 118.495 376.89 118.495C380.272 118.495 383.013 121.237 383.013 124.619Z" fill="white"/>
<path d="M403.424 124.619C403.424 128.001 400.682 130.743 397.3 130.743C393.918 130.743 391.176 128.001 391.176 124.619C391.176 121.237 393.918 118.495 397.3 118.495C400.682 118.495 403.424 121.237 403.424 124.619Z" fill="white"/>
<path d="M444.548 209.56C444.548 232.564 425.899 251.212 402.895 251.212C379.891 251.212 361.243 232.564 361.243 209.56C361.243 186.556 379.891 167.908 402.895 167.908C425.899 167.908 444.548 186.556 444.548 209.56Z" fill="#E7E8FF"/>
<path d="M379.619 268.543C379.619 267.767 380.248 267.138 381.024 267.138H425.992C426.768 267.138 427.397 267.767 427.397 268.543V273.084C427.397 273.86 426.768 274.489 425.992 274.489H381.024C380.248 274.489 379.619 273.86 379.619 273.084V268.543Z" fill="#032068"/>
<path d="M409.877 202.187H424.946V215.213H409.877V232.836H395.957V215.213H380.844V202.187H395.957V185.059H409.877V202.187Z" fill="#032068"/>
<path d="M179.934 113.819C179.934 111.215 182.031 109.105 184.619 109.105H307.555C310.143 109.105 312.24 111.215 312.24 113.819V302.851C312.24 305.455 310.143 307.565 307.555 307.565H184.619C182.031 307.565 179.934 305.455 179.934 302.851V113.819Z" fill="white"/>
<path fill-rule="evenodd" clip-rule="evenodd" d="M179.231 113.819C179.231 110.825 181.643 108.398 184.619 108.398H307.555C310.531 108.398 312.943 110.825 312.943 113.819V302.851C312.943 305.845 310.531 308.272 307.555 308.272H184.619C181.643 308.272 179.231 305.845 179.231 302.851V113.819ZM184.619 109.812C182.419 109.812 180.636 111.606 180.636 113.819V302.851C180.636 305.064 182.419 306.859 184.619 306.859H307.555C309.755 306.859 311.538 305.064 311.538 302.851V113.819C311.538 111.606 309.755 109.812 307.555 109.812H184.619Z" fill="#032068"/>
<path d="M179.934 113.819C179.934 111.215 182.031 109.105 184.619 109.105H307.555C310.143 109.105 312.24 111.215 312.24 113.819V137.456H179.934V113.819Z" fill="#032068"/>
<path d="M205.791 123.482C205.791 126.885 203.049 129.644 199.667 129.644C196.285 129.644 193.543 126.885 193.543 123.482C193.543 120.079 196.285 117.32 199.667 117.32C203.049 117.32 205.791 120.079 205.791 123.482Z" fill="white"/>
<path d="M226.205 123.482C226.205 126.885 223.464 129.644 220.081 129.644C216.699 129.644 213.958 126.885 213.958 123.482C213.958 120.079 216.699 117.32 220.081 117.32C223.464 117.32 226.205 120.079 226.205 123.482Z" fill="white"/>
<path d="M246.615 123.482C246.615 126.885 243.874 129.644 240.492 129.644C237.109 129.644 234.368 126.885 234.368 123.482C234.368 120.079 237.109 117.32 240.492 117.32C243.874 117.32 246.615 120.079 246.615 123.482Z" fill="white"/>
<path d="M271.129 202.628C271.609 202.195 272.321 202.147 272.854 202.511L294.949 217.584C295.335 217.847 295.565 218.285 295.565 218.753V238.746C295.565 239.526 294.937 240.159 294.161 240.159H233.183C231.894 240.159 231.286 238.559 232.245 237.693L271.129 202.628Z" fill="#032068"/>
<path d="M262.736 185.376C262.736 190.27 258.792 194.238 253.928 194.238C249.064 194.238 245.121 190.27 245.121 185.376C245.121 180.482 249.064 176.514 253.928 176.514C258.792 176.514 262.736 180.482 262.736 185.376Z" fill="#F4AD5E"/>
<path fill-rule="evenodd" clip-rule="evenodd" d="M196.383 158.592C196.383 157.422 197.326 156.473 198.49 156.473H294.161C295.325 156.473 296.268 157.422 296.268 158.592V238.746C296.268 239.917 295.325 240.866 294.161 240.866H198.49C197.326 240.866 196.383 239.917 196.383 238.746V158.592ZM198.49 157.886C198.102 157.886 197.787 158.202 197.787 158.592V238.746C197.787 239.136 198.102 239.452 198.49 239.452H294.161C294.549 239.452 294.864 239.136 294.864 238.746V158.592C294.864 158.202 294.549 157.886 294.161 157.886H198.49Z" fill="#E7E8FF"/>
<path d="M197.084 218.285C197.084 217.853 197.28 217.445 197.616 217.177L226.994 193.759C227.524 193.336 228.279 193.355 228.789 193.803L278.733 237.681C279.711 238.54 279.107 240.159 277.809 240.159H198.488C197.713 240.159 197.084 239.526 197.084 238.746V218.285Z" fill="#E7E8FF"/>
<path fill-rule="evenodd" clip-rule="evenodd" d="M228.328 194.335C228.073 194.111 227.695 194.102 227.43 194.313L198.052 217.731C197.884 217.865 197.786 218.069 197.786 218.285V238.746C197.786 239.136 198.101 239.452 198.489 239.452H277.809C278.458 239.452 278.76 238.643 278.271 238.213L228.328 194.335ZM226.558 193.206C227.354 192.571 228.486 192.598 229.251 193.27L279.195 237.149C280.661 238.437 279.756 240.866 277.809 240.866H198.489C197.325 240.866 196.382 239.916 196.382 238.746V218.285C196.382 217.637 196.676 217.025 197.18 216.623L226.558 193.206Z" fill="#E7E8FF"/>
<path d="M282.228 306.286L272.856 299.892C272.322 299.528 271.61 299.577 271.13 300.01L264.17 306.286H282.228Z" fill="#032068"/>
<path d="M262.736 282.757C262.736 287.652 258.792 291.619 253.928 291.619C249.064 291.619 245.121 287.652 245.121 282.757C245.121 277.863 249.064 273.896 253.928 273.896C258.792 273.896 262.736 277.863 262.736 282.757Z" fill="#F4AD5E"/>
<path fill-rule="evenodd" clip-rule="evenodd" d="M196.382 255.974C196.382 254.803 197.325 253.854 198.489 253.854H294.16C295.324 253.854 296.267 254.803 296.267 255.974V306.333H294.863V255.974C294.863 255.583 294.548 255.267 294.16 255.267H198.489C198.101 255.267 197.786 255.583 197.786 255.974V306.333H196.382V255.974Z" fill="#E7E8FF"/>
<path d="M246.084 306.332L228.793 291.185C228.281 290.737 227.524 290.72 226.994 291.147L208.107 306.332H246.084Z" fill="#E7E8FF"/>
<path d="M23.1255 115.015C23.1255 112.428 25.2425 110.33 27.854 110.33H151.929C154.54 110.33 156.657 112.428 156.657 115.015V302.88C156.657 305.468 154.54 307.565 151.929 307.565H27.854C25.2425 307.565 23.1255 305.468 23.1255 302.88V115.015Z" fill="white"/>
<path fill-rule="evenodd" clip-rule="evenodd" d="M22.4165 115.015C22.4165 112.04 24.8508 109.628 27.8538 109.628H151.929C154.932 109.628 157.366 112.04 157.366 115.015V302.88C157.366 305.855 154.932 308.267 151.929 308.267H27.8538C24.8508 308.267 22.4165 305.855 22.4165 302.88V115.015ZM27.8538 111.032C25.6337 111.032 23.834 112.815 23.834 115.015V302.88C23.834 305.08 25.6337 306.863 27.8538 306.863H151.929C154.149 306.863 155.948 305.08 155.948 302.88V115.015C155.948 112.815 154.149 111.032 151.929 111.032H27.8538Z" fill="#032068"/>
<path d="M23.1255 115.015C23.1255 112.428 25.2425 110.33 27.854 110.33H151.929C154.54 110.33 156.657 112.428 156.657 115.015V138.506H23.1255V115.015Z" fill="#032068"/>
<path d="M49.2225 124.619C49.2225 128.001 46.4553 130.743 43.0419 130.743C39.6285 130.743 36.8613 128.001 36.8613 124.619C36.8613 121.237 39.6285 118.495 43.0419 118.495C46.4553 118.495 49.2225 121.237 49.2225 124.619Z" fill="white"/>
<path d="M69.826 124.619C69.826 128.001 67.0589 130.743 63.6454 130.743C60.232 130.743 57.4648 128.001 57.4648 124.619C57.4648 121.237 60.232 118.495 63.6454 118.495C67.0589 118.495 69.826 121.237 69.826 124.619Z" fill="white"/>
<path d="M90.4246 124.619C90.4246 128.001 87.6575 130.743 84.2441 130.743C80.8306 130.743 78.0635 128.001 78.0635 124.619C78.0635 121.237 80.8306 118.495 84.2441 118.495C87.6575 118.495 90.4246 121.237 90.4246 124.619Z" fill="white"/>
<path d="M113.383 176.483C113.383 189.339 102.866 199.76 89.8916 199.76C76.9175 199.76 66.3999 189.339 66.3999 176.483C66.3999 163.628 76.9175 153.207 89.8916 153.207C102.866 153.207 113.383 163.628 113.383 176.483Z" fill="#E7E8FF"/>
<path d="M90.1187 176.764C83.7184 176.764 78.4088 181.461 77.4117 187.613C77.2255 188.762 78.1954 189.712 79.3697 189.712H100.868C102.042 189.712 103.012 188.762 102.826 187.613C101.829 181.461 96.519 176.764 90.1187 176.764Z" fill="white"/>
<path d="M96.4594 169.148C96.4594 172.513 93.7062 175.241 90.31 175.241C86.9138 175.241 84.1606 172.513 84.1606 169.148C84.1606 165.783 86.9138 163.055 90.31 163.055C93.7062 163.055 96.4594 165.783 96.4594 169.148Z" fill="white"/>
<path d="M65.1631 214.64C65.1631 213.864 65.7977 213.235 66.5806 213.235H111.965C112.748 213.235 113.383 213.864 113.383 214.64V219.181C113.383 219.957 112.748 220.586 111.965 220.586H66.5806C65.7977 220.586 65.1631 219.957 65.1631 219.181V214.64Z" fill="#032068"/>
<path d="M37.9624 241.591C37.9624 240.816 38.597 240.187 39.3799 240.187H66.2187C67.0015 240.187 67.6362 240.816 67.6362 241.591V269.409C67.6362 270.185 67.0015 270.813 66.2187 270.813H39.3799C38.597 270.813 37.9624 270.185 37.9624 269.409V241.591Z" fill="#E7E8FF"/>
<path d="M75.0547 241.591C75.0547 240.815 75.6893 240.187 76.4722 240.187H103.311C104.094 240.187 104.728 240.815 104.728 241.591V269.409C104.728 270.184 104.094 270.813 103.311 270.813H76.4722C75.6893 270.813 75.0547 270.184 75.0547 269.409V241.591Z" fill="#E7E8FF"/>
<path d="M112.147 241.591C112.147 240.815 112.782 240.187 113.565 240.187H140.404C141.187 240.187 141.821 240.815 141.821 241.591V269.409C141.821 270.184 141.187 270.813 140.404 270.813H113.565C112.782 270.813 112.147 270.184 112.147 269.409V241.591Z" fill="#F4AD5E"/>
<path d="M37.9624 286.919C37.9624 286.143 38.597 285.514 39.3799 285.514H66.2187C67.0015 285.514 67.6362 286.143 67.6362 286.919V306.34H37.9624V286.919Z" fill="#E7E8FF"/>
<path d="M75.0547 286.919C75.0547 286.143 75.6893 285.514 76.4722 285.514H103.311C104.094 285.514 104.728 286.143 104.728 286.919V306.34H75.0547V286.919Z" fill="#E7E8FF"/>
<path d="M112.147 286.919C112.147 286.143 112.782 285.514 113.565 285.514H140.404C141.187 285.514 141.821 286.143 141.821 286.919V306.34H112.147V286.919Z" fill="#E7E8FF"/>
<path d="M130.931 257.338H168.296M168.296 257.338V217.46C168.296 215.803 169.639 214.46 171.296 214.46H179.934M168.296 257.338V326.004C168.296 327.661 169.639 329.004 171.296 329.004H399.283C400.94 329.004 402.283 327.661 402.283 326.004V308.79" stroke="#032068" stroke-width="2"/>
<path d="M185.719 283.344C185.719 285.946 189.711 290.157 191.012 291.458L179.952 299.265C179.952 298.398 178.781 296.012 174.097 293.41C168.242 290.157 164.339 288.205 163.038 282.35C161.737 276.495 165.64 270.314 169.543 271.29C174.748 272.591 179.302 280.398 179.952 277.796C180.473 275.714 179.466 274.031 179.25 272.73C179.683 272.296 180.176 269.469 182.778 271.551C186.031 274.153 185.719 280.091 185.719 283.344Z" fill="#EFCB96"/>
<path d="M327.783 260.524L330.731 275.893C329.356 277.469 324.954 280.74 318.351 281.213C311.748 281.686 305.775 278.651 303.613 277.075L305.382 262.889C295.36 257.569 298.897 237.472 303.613 230.379C308.329 223.285 327.783 222.103 332.5 238.654C336.273 251.894 330.928 258.751 327.783 260.524Z" fill="#EFCB96"/>
<path d="M367.339 287.138C350.833 270.114 330.789 270.587 311.924 270.587C270.657 270.587 241.77 311.373 233.517 310.781C225.264 310.19 193.429 284.773 190.482 284.773C187.534 284.773 171.617 296.004 172.207 304.279C172.796 312.555 205.809 363.389 217.01 368.118C225.971 371.901 245.897 366.541 254.74 363.389C253.954 382.895 253.325 423.208 257.098 428.409C261.814 434.911 267.12 437.276 296.596 440.231C322.668 442.845 367.188 438.985 379.572 436.014C384.657 435.062 384.772 405.15 384.194 390.313C399.449 390.313 400.144 372.364 398.584 363.389C397.995 352.749 387.973 308.417 367.339 287.138Z" fill="#F4AD5E"/>
<path d="M204.63 356.296C225.381 354.404 241.181 361.812 246.486 365.753C241.181 367.526 228.447 370.718 219.958 369.3C211.469 367.881 206.202 360.039 204.63 356.296Z" fill="#032068"/>
<path d="M377.261 323.686C380.959 338.981 383.425 374.477 384.195 390.313H387.662C385.351 359.607 380.343 333.149 377.261 323.686Z" fill="#032068"/>
<path d="M284.808 345.065C278.205 351.685 262.013 360.039 254.742 363.389V371.664C261.345 369.3 277.537 352.946 284.808 345.065Z" fill="#032068"/>
<path d="M399.22 370.615C394.597 371.773 385.121 377.335 384.196 390.313C388.819 390.699 398.642 389.734 399.22 370.615Z" fill="#032068"/>
<path d="M338.115 228.955C334.186 222.391 326.294 218.926 322.839 218.014C302.652 212.544 295.561 228.955 298.289 233.331C301.016 237.707 298.834 242.084 301.562 247.007C304.29 251.93 304.29 255.759 301.562 263.965C298.834 272.17 299.925 278.187 301.562 283.111C303.199 288.034 298.834 291.863 301.562 299.521C304.29 307.18 315.747 306.086 321.203 303.351C326.658 300.615 333.749 309.368 343.025 307.727C352.301 306.086 355.572 298.427 351.208 289.675C346.845 280.923 349.572 283.111 351.208 275.452C352.845 267.794 347.389 263.965 343.025 256.306C338.66 248.648 343.025 237.16 338.115 228.955Z" fill="#032068"/>
</svg>
