<?xml version="1.0" encoding="UTF-8"?>
<svg id="Layer_2" data-name="Layer 2" xmlns="http://www.w3.org/2000/svg" viewBox="0 0 682.9 924.99">
  <defs>
    <style>
      .cls-1 {
        fill: #f57a59;
      }

      .cls-2 {
        fill: #f9c582;
      }

      .cls-3 {
        fill: #0268c4;
      }

      .cls-4 {
        fill: #00abaf;
      }

      .cls-5, .cls-6, .cls-7 {
        fill: #fff;
      }

      .cls-8 {
        fill: #ffb999;
      }

      .cls-9, .cls-10 {
        fill: #faf9f8;
      }

      .cls-11 {
        fill: #fcefdc;
      }

      .cls-12 {
        fill: #8f46b7;
      }

      .cls-13 {
        fill: #8bd2fc;
      }

      .cls-14 {
        fill: #e0f3fc;
      }

      .cls-15 {
        fill: #14b8c4;
      }

      .cls-16 {
        fill: #232144;
      }

      .cls-17 {
        fill: #429dc1;
      }

      .cls-18 {
        fill: #1c3244;
      }

      .cls-19 {
        fill: #2e4c64;
      }

      .cls-20 {
        fill: #37f44d;
      }

      .cls-21 {
        fill: #398ae2;
      }

      .cls-22 {
        fill: #601c8c;
      }

      .cls-23 {
        fill: #00a1ad;
        opacity: .14;
      }

      .cls-23, .cls-6, .cls-10, .cls-7 {
        isolation: isolate;
      }

      .cls-6 {
        opacity: .8;
      }

      .cls-10 {
        opacity: .52;
      }

      .cls-7 {
        opacity: .6;
      }
    </style>
  </defs>
  <g id="Layer_2-2" data-name="Layer 2">
    <g id="Layer_1-2" data-name="Layer 1-2">
      <g>
        <g>
          <path class="cls-17" d="M408.71,76.02h242.46c4.66,0,8.48,3.79,8.48,8.48v209.47c0,3.47-2.8,6.31-6.31,6.31H331.51c-3.47,0-6.31-2.8-6.31-6.31v-34.57"/>
          <path class="cls-16" d="M653.34,302.04H331.51c-4.45,0-8.06-3.62-8.06-8.06v-34.57c0-.97,.78-1.75,1.75-1.75s1.75,.78,1.75,1.75v34.57c0,2.51,2.04,4.56,4.56,4.56h321.83c2.51,0,4.56-2.04,4.56-4.56V84.51c0-3.71-3.02-6.73-6.73-6.73h-242.46c-.97,0-1.75-.78-1.75-1.75s.78-1.75,1.75-1.75h242.46c5.64,0,10.24,4.59,10.24,10.24v209.47c0,4.45-3.62,8.06-8.06,8.06Z"/>
        </g>
        <ellipse class="cls-23" cx="199.17" cy="888.01" rx="199.17" ry="36.99"/>
        <path class="cls-8" d="M64.37,496.3l11.22,15.5,6.1,14.2,1.33,14.51-7.26,12.06-3.37,15.99,.25,4.14s-18.3-21.6-17.98-22.26,2.8-15.18,2.98-19.95"/>
        <path class="cls-8" d="M72.11,497.46l2.98-12.55,36.78-97.32,12.2-68.29-21.11-9.75-20.12-14.34-5.12,78.53c-.04,.74-.32,2.42-.49,3.12l-22.93,101.14-4.14,17.98s-6.28,26.47-6.28,47.61,4.28,32.92,14.86,34.57c10.59,1.65,17.14-7.92,17.14-7.92l1.23-8.9-5.05-63.84,.04-.04Z"/>
        <path class="cls-1" d="M79.58,546.05c2.52-6.24,3.02-13.18,1.61-19.77-.28-1.4-1.93-2.21-3.23-1.82-1.44,.39-2.14,1.86-1.82,3.23,1.19,5.64,.6,11.5-1.61,16.97-.53,1.33,.6,2.87,1.82,3.23,1.51,.42,2.7-.53,3.23-1.82h0Z"/>
        <path class="cls-1" d="M44.63,563.16c2.52,6.31,6.56,12.41,13.39,14.48,3.3,.98,6.84,.81,9.96-.7s5.43-4.42,7.33-7.29-2.66-5.47-4.56-2.66c-1.33,2.03-2.87,4.03-5.08,5.22-2.07,1.12-4.49,.95-6.66,.25-4.73-1.58-7.61-6.31-9.36-10.69-.53-1.33-1.75-2.24-3.23-1.82-1.26,.35-2.35,1.89-1.82,3.23h.04Z"/>
        <path class="cls-21" d="M116.85,420.93s-31.17,39.58-31.17,80.67,11.88,70.29,11.88,70.29c0,0,32.67,85.61,36.64,125.23,3.96,39.58,2.49,115.83,2.49,115.83,0,0,22.75,8.41,46.03,0v-46.03l18.79-131.64s9.08,56.27,9.08,94.52-7.92,77.86-7.92,77.86c25.07,18.48,47.05,4.63,47.05,4.63l1.12-52.8,15.85-78.53s5.92-19.81,19.81-106.89c13.88-87.08-24.58-145.18-24.58-145.18-110.36,23.28-145-7.92-145-7.92l-.07-.04Z"/>
        <path class="cls-3" d="M179.36,805.52c-1.94,0-3.51-1.57-3.51-3.51v-31.41c0-1.94,1.57-3.51,3.51-3.51s3.51,1.57,3.51,3.51v31.41c0,1.94-1.57,3.51-3.51,3.51Z"/>
        <path class="cls-3" d="M187.57,717.56c-.16,0-.32-.01-.48-.03-1.92-.26-3.26-2.03-2.99-3.95l6.31-45.68c.26-1.92,2.02-3.26,3.95-2.99,1.92,.26,3.26,2.03,2.99,3.95l-6.31,45.68c-.24,1.76-1.75,3.03-3.47,3.03Z"/>
        <path class="cls-5" d="M75.9,400.98c-.26,0-.52-.03-.79-.09-1.89-.43-3.07-2.31-2.63-4.2l3.33-14.51c.43-1.89,2.31-3.07,4.2-2.63,1.89,.43,3.07,2.31,2.63,4.2l-3.33,14.51c-.37,1.62-1.82,2.72-3.41,2.72Z"/>
        <path class="cls-14" d="M321.24,75.57h317.52c4.66,0,8.48,3.79,8.48,8.48v207.3c0,4.66-3.79,8.48-8.48,8.48H312.79V84.02c0-4.66,3.79-8.48,8.48-8.48l-.04,.04Z"/>
        <path class="cls-13" d="M314.16,292.72l333.09,.6h0c0,3.3-2.66,5.92-5.96,5.92l-321.24-.56c-3.26,0-5.92-2.66-5.92-5.92h0l.04-.04Z"/>
        <path class="cls-16" d="M641.67,302.04H319.8c-4.45,0-8.06-3.62-8.06-8.06v-34.57c0-.97,.78-1.75,1.75-1.75s1.75,.78,1.75,1.75v34.57c0,2.51,2.04,4.56,4.56,4.56h321.87c2.51,0,4.56-2.04,4.56-4.56V84.51c0-3.71-3.02-6.73-6.73-6.73h-242.46c-.97,0-1.75-.78-1.75-1.75s.78-1.75,1.75-1.75h242.46c5.65,0,10.24,4.59,10.24,10.24v209.47c0,4.45-3.62,8.06-8.06,8.06Z"/>
        <path class="cls-16" d="M313.49,210.51c-.97,0-1.75-.78-1.75-1.75V84.51c0-5.64,4.59-10.24,10.24-10.24h25.91c.97,0,1.75,.78,1.75,1.75s-.78,1.75-1.75,1.75h-25.91c-3.71,0-6.73,3.02-6.73,6.73v124.25c0,.97-.78,1.75-1.75,1.75Z"/>
        <rect class="cls-13" x="330.95" y="92.96" width="301.85" height="5.82"/>
        <path class="cls-16" d="M385.04,77.6h-25.84c-.97,0-1.75-.78-1.75-1.75s.78-1.75,1.75-1.75h25.84c.97,0,1.75,.78,1.75,1.75s-.78,1.75-1.75,1.75Z"/>
        <g>
          <path class="cls-16" d="M398.23,83.98h-9.47c-.48,0-.88-.39-.88-.88s.39-.88,.88-.88h9.47c.48,0,.88,.39,.88,.88s-.39,.88-.88,.88Z"/>
          <path class="cls-16" d="M383.71,83.98h-18.37c-.48,0-.88-.39-.88-.88s.39-.88,.88-.88h18.37c.48,0,.88,.39,.88,.88s-.39,.88-.88,.88Z"/>
        </g>
        <g>
          <polygon class="cls-7" points="507.75 284.38 500.35 284.38 547.57 91.1 554.97 91.1 507.75 284.38"/>
          <polygon class="cls-6" points="540.53 284.38 517.39 284.38 564.58 91.1 587.72 91.1 540.53 284.38"/>
        </g>
        <polygon class="cls-7" points="496.25 284.38 488.85 284.38 536.04 91.1 543.47 91.1 496.25 284.38"/>
        <path class="cls-16" d="M632.63,286.69H330.77c-.97,0-1.75-.78-1.75-1.75v-86.77c0-.97,.78-1.75,1.75-1.75s1.75,.78,1.75,1.75v85.02h298.35V93.13H332.53v50.52c0,.97-.78,1.75-1.75,1.75s-1.75-.78-1.75-1.75v-52.27c0-.97,.78-1.75,1.75-1.75h301.85c.97,0,1.75,.78,1.75,1.75v193.56c0,.97-.78,1.75-1.75,1.75Z"/>
        <circle class="cls-5" cx="346.3" cy="117.39" r="6.1"/>
        <circle class="cls-5" cx="356.75" cy="127.84" r="4.1"/>
        <circle class="cls-5" cx="345.81" cy="128.12" r="2.49"/>
        <g>
          <path class="cls-15" d="M489.76,93.24c-50.73,0-91.85,41.12-91.85,91.85s41.12,91.85,91.85,91.85,91.85-41.12,91.85-91.85h0c-.11-50.69-41.16-91.78-91.85-91.85Zm0,8.34c21.35,0,41.86,8.24,57.29,22.96-2.8-1.44-5.89-2.21-9.01-2.24-5.43,0-14.44,2.35-14.44,17.95,1.12,6.59,3.86,12.83,7.92,18.13,5.5,8.94,11.78,19.04,10.2,26.96-3.58,10.62-8.59,25.21-13.46,38.98l-23.38-72.64h1.58c2.28,0,4.14-1.82,4.17-4.1v-.07c0-2.31-1.86-4.17-4.17-4.17h-37.58c-2.28,.04-4.14,1.89-4.17,4.17,0,2.31,1.86,4.17,4.17,4.17h3.09l13.29,37.76c-3.44,10.1-7.78,22.72-12.02,34.92l-23.45-72.64h2.42c2.28,0,4.14-1.82,4.17-4.1v-.07c0-2.31-1.86-4.17-4.17-4.17h-34.67c14.93-25.77,42.46-41.68,72.25-41.75v-.04Zm-83.51,83.51c0-11.5,2.38-22.89,7.01-33.41h3.68l38.49,109.49c-29.9-13.5-49.15-43.26-49.19-76.08Zm83.51,83.51c-7.54,0-15.04-1.05-22.3-3.09,3.68-10.27,14.27-40.07,22.3-63.32l22.3,63.32c-7.26,2.07-14.76,3.09-22.3,3.09Zm34.32-7.43c5.61-15.53,17.88-50.2,24.96-71.41,.18-.28,.28-.6,.35-.91,.14-.42,.25-.84,.35-1.26,1.09-3.09,1.93-5.85,2.66-8.1,4.42-14.02,8.59-32.25,5.19-42.91,26.85,37.3,18.41,89.29-18.86,116.18-4.56,3.3-9.47,6.1-14.62,8.41h-.04Z"/>
          <path class="cls-4" d="M582,182.18v2.1c0,50.73-41.12,91.85-91.85,91.85s-91.85-41.12-91.85-91.85v-2.1c1.23,50.73,43.33,90.87,94.06,89.68,49.05-1.16,88.49-40.63,89.68-89.68h-.04Z"/>
          <path class="cls-5" d="M398.3,187.33v-2.1c0-50.73,41.12-91.85,91.85-91.85s91.85,41.12,91.85,91.85v2.1c-1.23-50.73-43.33-90.87-94.06-89.68-49.05,1.16-88.49,40.63-89.68,89.68h.04Z"/>
          <path class="cls-5" d="M444.96,218.29c-.44,0-.84-.27-.99-.71l-11.01-31.76c-.19-.55,.1-1.15,.65-1.34,.55-.19,1.15,.1,1.34,.65l11.01,31.76c.19,.55-.1,1.15-.65,1.34-.11,.04-.23,.06-.34,.06Z"/>
          <path class="cls-5" d="M431.99,180.88c-.44,0-.84-.27-.99-.71l-7.36-21.25c-.19-.55,.1-1.15,.65-1.34,.55-.19,1.15,.1,1.34,.65l7.36,21.25c.19,.55-.1,1.15-.65,1.34-.11,.04-.23,.06-.34,.06Z"/>
          <path class="cls-4" d="M523.07,259.73c-.12,0-.24-.02-.36-.06-.55-.2-.83-.8-.63-1.35l10.83-30.04c.2-.55,.8-.83,1.35-.63,.55,.2,.83,.8,.63,1.35l-10.83,30.04c-.15,.43-.56,.7-.99,.7Z"/>
          <path class="cls-4" d="M468.06,258.92c-.12,0-.24-.02-.36-.06-.55-.2-.83-.8-.63-1.35l10.8-30.01c.2-.55,.8-.83,1.35-.63,.55,.2,.83,.8,.63,1.35l-10.8,30.01c-.15,.43-.56,.7-.99,.7Z"/>
          <path class="cls-4" d="M515.57,192.52c-.45,0-.86-.29-1-.74l-9.54-30.43c-.17-.55,.13-1.14,.69-1.32,.55-.17,1.14,.13,1.32,.69l9.54,30.43c.17,.55-.13,1.14-.69,1.32-.1,.03-.21,.05-.31,.05Z"/>
          <path class="cls-5" d="M447.03,146.72h-25.14c-1.04,0-1.88-.84-1.88-1.88s.84-1.88,1.88-1.88h25.14c1.04,0,1.88,.84,1.88,1.88s-.84,1.88-1.88,1.88Z"/>
          <path class="cls-5" d="M499.12,146.72h-25.17c-1.04,0-1.88-.84-1.88-1.88s.84-1.88,1.88-1.88h25.17c1.04,0,1.88,.84,1.88,1.88s-.84,1.88-1.88,1.88Z"/>
          <path class="cls-5" d="M484.33,185.39c-.77,0-1.5-.48-1.77-1.25l-9.01-25.66c-.34-.98,.17-2.05,1.15-2.39,.98-.34,2.05,.17,2.39,1.15l9.01,25.66c.34,.98-.17,2.05-1.15,2.39-.21,.07-.42,.11-.62,.11Z"/>
          <path class="cls-16" d="M489.76,277.91c-51.18,0-92.82-41.64-92.82-92.82s41.64-92.82,92.82-92.82h0c51.07,.07,92.71,41.71,92.81,92.81,0,51.18-41.64,92.82-92.82,92.82Zm0-183.71c-50.12,0-90.89,40.77-90.89,90.89s40.77,90.89,90.89,90.89,90.89-40.77,90.89-90.89c-.1-50.04-40.88-90.81-90.89-90.89h0Zm0,175.41c-7.59,0-15.18-1.05-22.56-3.14-.26-.07-.47-.25-.59-.49-.12-.24-.14-.51-.05-.77,3.86-10.76,14.38-40.4,22.29-63.3,.13-.39,.5-.65,.91-.65h0c.41,0,.77,.26,.91,.64l8.31,23.56c.18,.5-.09,1.05-.59,1.23-.5,.18-1.05-.09-1.23-.59l-7.39-20.96c-7.56,21.83-17.09,48.69-21.05,59.74,13.79,3.72,28.29,3.72,42.08,0l-10.39-29.53c-.18-.5,.09-1.05,.59-1.23,.5-.18,1.05,.09,1.23,.59l10.73,30.5c.09,.25,.07,.53-.05,.76-.12,.24-.34,.41-.59,.48-7.38,2.09-14.97,3.14-22.56,3.14Zm34.32-7.45c-.24,0-.47-.09-.65-.26-.28-.26-.38-.67-.25-1.04,5.96-16.51,18.02-50.62,24.95-71.39,.02-.07,.06-.14,.1-.21,.1-.15,.17-.35,.23-.61,0-.03,.02-.07,.03-.1,.13-.4,.23-.79,.33-1.19,.78-2.23,1.42-4.22,1.98-5.98,.25-.78,.48-1.51,.71-2.19,4.23-13.44,8.57-31.7,5.19-42.32-.14-.45,.06-.94,.48-1.15,.42-.21,.94-.09,1.22,.3,13.45,18.65,18.7,42.29,14.4,64.87-.1,.52-.6,.86-1.13,.77-.52-.1-.87-.6-.77-1.13,3.9-20.47-.23-41.83-11.35-59.36,1.33,11.17-2.47,26.75-6.21,38.62-.23,.69-.46,1.42-.71,2.19-.57,1.77-1.21,3.78-1.97,5.94-.08,.35-.19,.77-.33,1.2-.09,.4-.22,.75-.4,1.06-6.65,19.91-17.97,51.98-24.15,69.15,20.59-10.03,36.19-28.21,42.96-50.2,.16-.51,.7-.8,1.21-.64,.51,.16,.79,.7,.64,1.21-7.16,23.26-23.97,42.35-46.1,52.38-.13,.06-.26,.09-.4,.09Zm-68.64,0c-.13,0-.27-.03-.4-.08-20.41-9.18-36.08-25.73-44.13-46.6-8.04-20.88-7.52-43.66,1.46-64.15,.15-.35,.5-.58,.88-.58h3.68c.41,0,.77,.26,.91,.64l7.15,20.3c.18,.5-.09,1.05-.59,1.23-.5,.18-1.05-.09-1.23-.59l-6.93-19.66h-2.37c-8.54,19.88-8.96,41.91-1.18,62.11,7.58,19.69,22.12,35.44,41.05,44.57l-19.75-56.21c-.18-.5,.09-1.05,.59-1.23,.5-.18,1.05,.09,1.23,.59l20.51,58.37c.13,.36,.03,.77-.26,1.03-.18,.17-.42,.25-.65,.25Zm17.77-36.85h-.01c-.41,0-.78-.27-.91-.67l-23.45-72.64c-.09-.29-.04-.61,.14-.86,.18-.25,.47-.4,.78-.4h2.42c1.74,0,3.18-1.41,3.21-3.15,0-1.82-1.44-3.26-3.21-3.26h-34.67c-.34,0-.66-.18-.84-.48-.17-.3-.17-.67,0-.96,15.02-25.91,42.91-42.07,72.84-42.23,.08-.02,.17-.04,.25-.04,21.68,0,42.26,8.25,57.95,23.23,.35,.33,.4,.87,.12,1.26-.28,.39-.8,.52-1.23,.3-2.66-1.37-5.63-2.1-8.58-2.14-6.13,0-13.44,2.94-13.47,16.9,1.1,6.38,3.77,12.47,7.72,17.62l.21,.32c5.54,8.99,11.81,19.19,10.18,27.41,0,.04-.02,.08-.03,.12-4.03,11.97-9.06,26.55-13.47,39-.14,.39-.52,.63-.92,.64-.41,0-.78-.27-.9-.67l-23.38-72.64c-.09-.29-.04-.61,.14-.86,.18-.25,.47-.4,.78-.4h1.58c1.74,0,3.18-1.41,3.21-3.15,0-1.82-1.44-3.26-3.21-3.26h-37.58c-1.74,.03-3.18,1.47-3.21,3.22,0,1.75,1.44,3.19,3.21,3.19h3.08c.41,0,.77,.26,.91,.64l13.29,37.76c.07,.2,.07,.43,0,.63-3.36,9.88-7.75,22.61-12.03,34.92-.13,.39-.5,.65-.91,.65Zm-22.13-72.64l22.16,68.64c3.93-11.31,7.87-22.78,10.97-31.88l-12.95-36.8h-2.4c-2.83,0-5.14-2.3-5.14-5.14,.04-2.8,2.34-5.09,5.12-5.14h37.6c2.83,0,5.14,2.3,5.14,5.14-.04,2.87-2.35,5.14-5.14,5.14h-.25l22.1,68.66c4.15-11.79,8.75-25.12,12.49-36.22,1.45-7.47-4.6-17.3-9.94-25.96l-.15-.24c-4.1-5.33-6.91-11.75-8.05-18.47,0-.05-.01-.11-.01-.16,0-16.46,9.65-18.91,15.41-18.91,1.56,.02,3.12,.21,4.64,.57-14.73-12.47-33.24-19.31-52.66-19.37-.08,.02-.17,.03-.25,.03-28.78,.07-55.66,15.29-70.56,39.83h32.98c2.83,0,5.14,2.3,5.14,5.14-.04,2.87-2.35,5.14-5.14,5.14h-1.09Zm38.68-51.06h0Zm-56.93,96.25c-.4,0-.77-.25-.91-.65l-6.87-19.56c-.18-.5,.09-1.05,.59-1.23,.5-.18,1.05,.09,1.23,.59l6.87,19.56c.18,.5-.09,1.05-.59,1.23-.11,.04-.21,.05-.32,.05Z"/>
          <circle class="cls-5" cx="481.07" cy="165.95" r="1.75"/>
          <circle class="cls-5" cx="483.24" cy="169.14" r=".35"/>
          <circle class="cls-5" cx="479.53" cy="157.08" r=".84"/>
          <circle class="cls-5" cx="481.63" cy="160.55" r=".39"/>
          <circle class="cls-5" cx="485.17" cy="162.83" r=".88"/>
          <circle class="cls-5" cx="484.01" cy="175.34" r="1.51"/>
          <circle class="cls-5" cx="485.45" cy="170.79" r=".77"/>
          <circle class="cls-5" cx="489.27" cy="180.11" r=".77"/>
          <circle class="cls-5" cx="486.4" cy="183.2" r=".84"/>
          <circle class="cls-5" cx="475.53" cy="152.42" r=".6"/>
          <circle class="cls-5" cx="481.07" cy="147.33" r="1.61"/>
          <circle class="cls-5" cx="488.54" cy="150.87" r=".63"/>
          <circle class="cls-5" cx="492.43" cy="147.89" r="1.26"/>
          <circle class="cls-4" cx="528.78" cy="237.57" r="1.96"/>
          <circle class="cls-4" cx="522.12" cy="247.67" r="1.4"/>
          <circle class="cls-4" cx="524.05" cy="242.52" r=".53"/>
          <circle class="cls-4" cx="523.73" cy="229.4" r="1.26"/>
          <circle class="cls-4" cx="520.79" cy="257.42" r=".21"/>
          <circle class="cls-4" cx="520.93" cy="254.16" r=".53"/>
          <path class="cls-20" d="M481.91,93.24c-50.73,0-91.85,41.12-91.85,91.85s41.12,91.85,91.85,91.85,91.85-41.12,91.85-91.85h0c-.11-50.69-41.16-91.78-91.85-91.85Zm0,8.34c21.35,0,41.86,8.24,57.29,22.96-2.8-1.44-5.89-2.21-9.01-2.24-5.43,0-14.44,2.35-14.44,17.95,1.12,6.59,3.86,12.83,7.92,18.13,5.5,8.94,11.78,19.04,10.2,26.96-3.58,10.62-8.59,25.21-13.46,38.98l-23.38-72.64h1.58c2.28,0,4.14-1.82,4.17-4.1v-.07c0-2.31-1.86-4.17-4.17-4.17h-37.58c-2.28,.04-4.14,1.89-4.17,4.17,0,2.31,1.86,4.17,4.17,4.17h3.09l13.29,37.76c-3.44,10.1-7.78,22.72-12.02,34.92l-23.45-72.64h2.42c2.28,0,4.14-1.82,4.17-4.1v-.07c0-2.31-1.86-4.17-4.17-4.17h-34.67c14.93-25.77,42.46-41.68,72.25-41.75v-.04Zm-83.51,83.51c0-11.5,2.38-22.89,7.01-33.41h3.68l38.49,109.49c-29.9-13.5-49.15-43.26-49.19-76.08Zm83.51,83.51c-7.54,0-15.04-1.05-22.3-3.09,3.68-10.27,14.27-40.07,22.3-63.32l22.3,63.32c-7.26,2.07-14.76,3.09-22.3,3.09Zm34.32-7.43c5.61-15.53,17.88-50.2,24.96-71.41,.18-.28,.28-.6,.35-.91,.14-.42,.25-.84,.35-1.26,1.09-3.09,1.93-5.85,2.66-8.1,4.42-14.02,8.59-32.25,5.19-42.91,26.85,37.3,18.41,89.29-18.86,116.18-4.56,3.3-9.47,6.1-14.62,8.41h-.04Z"/>
          <path class="cls-4" d="M574.15,182.18v2.1c0,50.73-41.12,91.85-91.85,91.85s-91.85-41.12-91.85-91.85v-2.1c1.23,50.73,43.33,90.87,94.06,89.68,49.05-1.16,88.49-40.63,89.68-89.68h-.04Z"/>
          <path class="cls-5" d="M390.44,187.33v-2.1c0-50.73,41.12-91.85,91.85-91.85s91.85,41.12,91.85,91.85v2.1c-1.23-50.73-43.33-90.87-94.06-89.68-49.05,1.16-88.49,40.63-89.68,89.68h.04Z"/>
          <path class="cls-5" d="M437.11,218.29c-.44,0-.84-.27-.99-.71l-11.01-31.76c-.19-.55,.1-1.15,.65-1.34,.55-.19,1.15,.1,1.34,.65l11.01,31.76c.19,.55-.1,1.15-.65,1.34-.11,.04-.23,.06-.34,.06Z"/>
          <path class="cls-5" d="M424.13,180.88c-.44,0-.84-.27-.99-.71l-7.36-21.25c-.19-.55,.1-1.15,.65-1.34,.55-.19,1.15,.1,1.34,.65l7.36,21.25c.19,.55-.1,1.15-.65,1.34-.11,.04-.23,.06-.34,.06Z"/>
          <path class="cls-4" d="M515.22,259.73c-.12,0-.24-.02-.36-.06-.55-.2-.83-.8-.63-1.35l10.8-30.04c.2-.55,.8-.83,1.35-.63,.55,.2,.83,.8,.63,1.35l-10.8,30.04c-.15,.43-.56,.7-.99,.7Z"/>
          <path class="cls-4" d="M460.21,258.92c-.12,0-.24-.02-.36-.06-.55-.2-.83-.8-.63-1.35l10.8-30.01c.2-.55,.8-.83,1.35-.63,.55,.2,.83,.8,.63,1.35l-10.8,30.01c-.15,.43-.56,.7-.99,.7Z"/>
          <path class="cls-4" d="M507.71,192.52c-.45,0-.86-.29-1-.74l-9.57-30.43c-.17-.55,.13-1.14,.69-1.32,.55-.17,1.14,.13,1.32,.69l9.57,30.43c.17,.55-.13,1.14-.69,1.32-.1,.03-.21,.05-.32,.05Z"/>
          <path class="cls-5" d="M439.17,146.72h-25.14c-1.04,0-1.88-.84-1.88-1.88s.84-1.88,1.88-1.88h25.14c1.04,0,1.88,.84,1.88,1.88s-.84,1.88-1.88,1.88Z"/>
          <path class="cls-5" d="M491.24,146.72h-25.14c-1.04,0-1.88-.84-1.88-1.88s.84-1.88,1.88-1.88h25.14c1.04,0,1.88,.84,1.88,1.88s-.84,1.88-1.88,1.88Z"/>
          <path class="cls-5" d="M476.48,185.39c-.77,0-1.5-.48-1.77-1.25l-9.01-25.66c-.34-.98,.17-2.05,1.15-2.39,.98-.34,2.05,.17,2.39,1.15l9.01,25.66c.34,.98-.17,2.05-1.15,2.39-.21,.07-.42,.11-.62,.11Z"/>
          <path class="cls-16" d="M481.91,277.91c-51.18,0-92.82-41.64-92.82-92.82s41.64-92.82,92.82-92.82h0c51.07,.07,92.71,41.71,92.81,92.81,0,51.18-41.64,92.82-92.82,92.82Zm0-183.71c-50.12,0-90.89,40.77-90.89,90.89s40.77,90.89,90.89,90.89,90.89-40.77,90.89-90.89c-.1-50.04-40.88-90.81-90.89-90.89h0Zm0,175.41c-7.59,0-15.18-1.05-22.56-3.14-.26-.07-.47-.25-.59-.49-.12-.24-.14-.51-.05-.77,3.86-10.76,14.38-40.4,22.29-63.3,.13-.39,.5-.65,.91-.65h0c.41,0,.77,.26,.91,.64l8.31,23.56c.18,.5-.09,1.05-.59,1.23-.5,.18-1.05-.09-1.23-.59l-7.39-20.96c-7.56,21.83-17.09,48.69-21.05,59.74,13.79,3.72,28.29,3.72,42.08,0l-10.39-29.53c-.18-.5,.09-1.05,.59-1.23,.5-.18,1.05,.09,1.23,.59l10.73,30.5c.09,.25,.07,.53-.05,.76-.12,.24-.34,.41-.59,.48-7.38,2.09-14.97,3.14-22.56,3.14Zm34.32-7.45c-.24,0-.47-.09-.65-.26-.28-.26-.38-.67-.25-1.04,5.96-16.51,18.02-50.62,24.95-71.39,.02-.07,.06-.14,.1-.21,.1-.15,.17-.35,.23-.61,0-.03,.02-.07,.03-.1,.13-.39,.23-.78,.32-1.17,0-.03,.02-.08,.03-.11,.75-2.14,1.39-4.14,1.96-5.9,.25-.77,.48-1.5,.7-2.18,4.23-13.44,8.57-31.7,5.19-42.32-.14-.45,.06-.94,.48-1.15,.42-.21,.94-.09,1.22,.3,13.45,18.65,18.7,42.29,14.4,64.87-.1,.52-.6,.86-1.13,.77-.52-.1-.87-.6-.77-1.13,3.9-20.47-.23-41.83-11.35-59.36,1.33,11.17-2.47,26.75-6.21,38.62-.22,.69-.46,1.41-.7,2.17-.57,1.78-1.21,3.79-1.97,5.96-.09,.36-.19,.78-.33,1.2-.09,.4-.22,.75-.4,1.06-6.65,19.91-17.97,51.98-24.15,69.15,20.59-10.03,36.19-28.21,42.96-50.2,.16-.51,.7-.8,1.21-.64,.51,.16,.79,.7,.64,1.21-7.16,23.26-23.97,42.35-46.1,52.38-.13,.06-.26,.09-.4,.09Zm-68.64,0c-.13,0-.27-.03-.4-.08-20.41-9.18-36.08-25.73-44.13-46.6-8.04-20.88-7.52-43.66,1.46-64.15,.15-.35,.5-.58,.88-.58h3.68c.41,0,.77,.26,.91,.64l7.15,20.3c.18,.5-.09,1.05-.59,1.23-.5,.18-1.05-.09-1.23-.59l-6.93-19.66h-2.37c-8.54,19.88-8.96,41.91-1.18,62.11,7.58,19.69,22.12,35.44,41.05,44.57l-19.75-56.21c-.18-.5,.09-1.05,.59-1.23,.5-.18,1.05,.09,1.23,.59l20.51,58.37c.13,.36,.03,.77-.26,1.03-.18,.17-.42,.25-.65,.25Zm17.77-36.85h-.01c-.41,0-.78-.27-.91-.67l-23.45-72.64c-.09-.29-.04-.61,.14-.86,.18-.25,.47-.4,.78-.4h2.42c1.74,0,3.18-1.41,3.21-3.15,0-1.82-1.44-3.26-3.21-3.26h-34.67c-.34,0-.66-.18-.84-.48-.17-.3-.17-.67,0-.96,15.02-25.91,42.91-42.07,72.84-42.23,.08-.02,.17-.04,.25-.04,21.68,0,42.26,8.25,57.95,23.23,.35,.33,.4,.87,.12,1.26-.28,.39-.8,.52-1.23,.3-2.66-1.37-5.63-2.1-8.58-2.14-6.13,0-13.44,2.94-13.47,16.9,1.1,6.38,3.77,12.47,7.72,17.62l.21,.32c5.54,8.99,11.81,19.19,10.18,27.41,0,.04-.02,.08-.03,.12-4.03,11.97-9.06,26.55-13.47,39-.14,.39-.5,.63-.92,.64-.41,0-.78-.27-.9-.67l-23.38-72.64c-.09-.29-.04-.61,.14-.86,.18-.25,.47-.4,.78-.4h1.58c1.74,0,3.18-1.41,3.21-3.15,0-1.82-1.44-3.26-3.21-3.26h-37.58c-1.74,.03-3.18,1.47-3.21,3.22,0,1.75,1.44,3.19,3.21,3.19h3.08c.41,0,.77,.26,.91,.64l13.29,37.76c.07,.2,.07,.43,0,.63-3.38,9.95-7.77,22.68-12.03,34.92-.13,.39-.5,.65-.91,.65Zm-22.13-72.64l22.16,68.64c3.91-11.26,7.85-22.72,10.97-31.88l-12.95-36.8h-2.4c-2.83,0-5.14-2.3-5.14-5.14,.04-2.8,2.34-5.09,5.12-5.14h37.6c2.83,0,5.14,2.3,5.14,5.14-.04,2.87-2.35,5.14-5.14,5.14h-.25l22.1,68.66c4.15-11.79,8.75-25.12,12.49-36.22,1.45-7.47-4.6-17.3-9.94-25.96l-.15-.24c-4.1-5.33-6.91-11.75-8.05-18.47,0-.05-.01-.11-.01-.16,0-16.46,9.65-18.91,15.41-18.91,1.56,.02,3.12,.21,4.64,.57-14.73-12.47-33.24-19.31-52.66-19.37-.08,.02-.17,.03-.25,.03-28.78,.07-55.66,15.29-70.56,39.83h32.98c2.83,0,5.14,2.3,5.14,5.14-.04,2.87-2.35,5.14-5.14,5.14h-1.09Zm38.68-51.06h0Zm-56.93,96.25c-.4,0-.77-.25-.91-.65l-6.87-19.56c-.18-.5,.09-1.05,.59-1.23,.5-.18,1.05,.09,1.23,.59l6.87,19.56c.18,.5-.09,1.05-.59,1.23-.11,.04-.21,.05-.32,.05Z"/>
          <circle class="cls-5" cx="473.22" cy="165.95" r="1.75"/>
          <circle class="cls-5" cx="475.39" cy="169.14" r=".35"/>
          <circle class="cls-5" cx="471.64" cy="157.08" r=".84"/>
          <circle class="cls-5" cx="473.78" cy="160.55" r=".39"/>
          <circle class="cls-5" cx="477.28" cy="162.83" r=".88"/>
          <circle class="cls-5" cx="476.16" cy="175.34" r="1.51"/>
          <circle class="cls-5" cx="477.6" cy="170.79" r=".77"/>
          <circle class="cls-5" cx="481.42" cy="180.11" r=".77"/>
          <circle class="cls-5" cx="478.51" cy="183.2" r=".84"/>
          <circle class="cls-5" cx="467.68" cy="152.42" r=".6"/>
          <circle class="cls-5" cx="473.22" cy="147.33" r="1.61"/>
          <circle class="cls-5" cx="480.68" cy="150.87" r=".63"/>
          <circle class="cls-5" cx="484.57" cy="147.89" r="1.26"/>
          <circle class="cls-4" cx="520.93" cy="237.57" r="1.96"/>
          <circle class="cls-4" cx="514.27" cy="247.67" r="1.4"/>
          <circle class="cls-4" cx="516.2" cy="242.52" r=".53"/>
          <circle class="cls-4" cx="515.88" cy="229.4" r="1.26"/>
          <circle class="cls-4" cx="512.94" cy="257.42" r=".21"/>
          <circle class="cls-4" cx="513.08" cy="254.16" r=".53"/>
        </g>
        <path class="cls-19" d="M200.29,854.14l-1.09-13.57c-.63-7.78,5.15-14.58,12.94-15.22l1.96-.18,.32,3.65s15.25-10.87,36.29-2.38l1.12,13.81s23.98,17.18,33.34,31.83l2,3.33s20.58,28.29-2.14,30.12c-22.68,1.82-47.61-7.43-47.61-7.43l-37.16-44,.04,.03Z"/>
        <path class="cls-18" d="M284.95,904.45c-22.72,1.86-47.61-7.4-47.61-7.4l-8.69-10.31c12.31,5.92,26.29,8.34,39.86,6.73,4.77-.56,9.57-1.61,13.6-4.17,3.68-2.31,6.42-5.54,8.52-9.29,4.66,8.38,10.48,23.14-5.68,24.44Z"/>
        <path class="cls-8" d="M221.6,816.38l-8.1-3.12-1.61,1.33,3.72,15.22s9.78-5.92,19.42-5.33l.56-7.57-14.02-.49,.04-.04Z"/>
        <path class="cls-1" d="M213.61,818.07c3.02,1.33,6.35,1.79,9.57,2.28,3.23,.49,6.59,.77,9.89,.32,2.84-.39,2.42-5.57-.46-5.19s-5.82,.11-8.69-.35-5.78-.77-8.45-1.93-4.52,3.68-1.89,4.84h0l.04,.04Z"/>
        <path class="cls-8" d="M155.27,816.38c.98,.32-6.17-.49-6.17-.49l-4.94,1.12,4.21,20.3s8.55-10.66,19.07-7.05l4.35,1.96,.53-16.16-17,.32h-.04Z"/>
        <path class="cls-1" d="M145.53,820.17c3.72,1.12,7.75,1.3,11.6,1.58s7.89,.28,11.74-.42c3.33-.6,2.21-5.75-1.12-5.15s-6.91,.56-10.34,.32-6.94-.32-10.2-1.3-4.94,4-1.68,4.98h0Z"/>
        <path class="cls-8" d="M392.62,214.68s21.21-25.35,32.95-23.66c0,0,9.82,1.61,8.87,10.87h0c-.88,8.24-4.91,15.81-11.29,21.14h0c-6.35,5.29-12.27,11.04-17.77,17.18l-5.47,11.46s-7.29-36.99-7.29-36.99Z"/>
        <path class="cls-8" d="M273.91,335.46s45.54,41.89,68.29,42.25l3.65-1.96,52.45-119.76-17.14-8.24-51.15,77.2,5.92,10.9-39.58-68.78-19.32,19.14-21.11,12.55-2.98,14.34,20.96,22.44v-.07Z"/>
        <path class="cls-9" d="M369.09,271.97c-.33,0-.66-.09-.95-.28-.81-.53-1.04-1.61-.52-2.42l9.15-14.13c.53-.81,1.61-1.05,2.42-.52,.81,.53,1.04,1.61,.52,2.42l-9.15,14.13c-.34,.52-.9,.8-1.47,.8Z"/>
        <path class="cls-9" d="M338.91,318.24c-.32,0-.65-.09-.94-.27-.82-.52-1.06-1.6-.54-2.42l18.62-29.2c.52-.82,1.6-1.06,2.42-.54,.82,.52,1.06,1.6,.54,2.42l-18.62,29.2c-.33,.52-.9,.81-1.48,.81Z"/>
        <path class="cls-22" d="M294.73,268.11l13.74-2.59,2.24,2.1s-7.05,13.04-7.22,12.55c-1.54-3.47-8.73-12.06-8.73-12.06h-.04Z"/>
        <path class="cls-1" d="M309.81,266.5l1.58,1.82-4.94-6.45-10.24,5.61,6.59-5.43s-13.53-.32-15.18,.32-16.16,14.86-16.16,14.86c0,0-14.86,38.95-14.86,39.93s19.14,19.81,19.14,19.81c0,0,24.08-17.49,20.47-34.32-3.61-16.83,5.29-23.42,5.29-23.42l-4.66-8.24"/>
        <path class="cls-3" d="M198.22,524.49c3.19,29.62,4.24,59.81-.11,89.4-.49,3.3,4.59,4.73,5.08,1.4,4.42-30.08,3.54-60.65,.28-90.8-.35-3.33-5.61-3.37-5.26,0h0Z"/>
        <path class="cls-5" d="M247.11,768.85h0c.97,0,1.75,.78,1.75,1.75v35.87c0,.97-.79,1.75-1.75,1.75h0c-.97,0-1.75-.78-1.75-1.75v-35.87c0-.97,.79-1.75,1.75-1.75Z"/>
        <path class="cls-5" d="M263.57,667.67c-6.21,26.05-11.81,52.24-15.78,78.71-.49,3.3,4.56,4.73,5.08,1.4,3.96-26.47,9.57-52.66,15.78-78.71,.77-3.3-4.28-4.7-5.08-1.4h0Z"/>
        <path class="cls-5" d="M284.92,513.2c1.16,34.53-2.1,68.99-9.78,102.69-.74,3.3,4.31,4.7,5.08,1.4,7.75-34.11,11.11-69.1,9.96-104.09-.11-3.37-5.36-3.4-5.26,0h0Z"/>
        <path class="cls-3" d="M171.36,815.82c-18.69,2.87-34.39-2.94-34.39-2.94,0,0,1.47-76.22-2.49-115.8-3.96-39.62-36.6-125.23-36.6-125.23,0,0-11.88-29.2-11.88-70.29s31.17-80.67,31.17-80.67c0,0,4.63,4.17,15.92,8.34-9.05,13.78-25.31,42.67-25.31,72.33,0,41.09,11.88,70.29,11.88,70.29,0,0,32.67,85.61,36.64,125.23,3.93,39.58-.84,118.78-.84,118.78,0,0,8.27-1.16,15.92,0v-.04Z"/>
        <path class="cls-12" d="M283.8,282.83s12.06-14.02,27.73-16.83c-16.83-36.14-65.98-56.41-65.98-56.41l16.34,37.93,21.95,35.3h-.04Z"/>
        <path class="cls-22" d="M246.88,215.52c5.47,11.25,10.52,22.75,16.55,33.73,5.68,10.34,12.31,20.16,18.48,30.19,1.75,2.87,6.31,.25,4.56-2.66-6.17-10.06-12.8-19.84-18.48-30.19-6.03-10.97-11.08-22.47-16.55-33.73-1.47-3.05-6.03-.39-4.56,2.66h0Z"/>
        <path class="cls-5" d="M80.88,364.9s-.09,0-.13,0c-.97-.07-1.69-.91-1.62-1.88l2.94-39.58c.07-.97,.93-1.69,1.88-1.62,.97,.07,1.69,.91,1.62,1.88l-2.94,39.58c-.07,.92-.84,1.62-1.75,1.62Z"/>
        <path class="cls-5" d="M59.25,465.87c-.13,0-.25-.01-.38-.04-.95-.21-1.54-1.15-1.33-2.09l7.92-35.79c.21-.94,1.15-1.54,2.09-1.33,.95,.21,1.54,1.15,1.33,2.09l-7.92,35.79c-.18,.82-.91,1.37-1.71,1.37Z"/>
        <path class="cls-1" d="M86.14,280.69l-4.63,21.11s18.79,23.77,41.58,22.12l4.94-14.86s-41.89-28.36-41.89-28.36Z"/>
        <path class="cls-12" d="M258.48,328.97l-8.52-2.56c2.94,1.33,5.78,2.17,8.52,2.56l21-6.28-8.24,10.13c-29.2,23.28-1.23,95.53-1.23,95.53-110.36,23.24-153.2-7.43-153.2-7.43,28.71-34.64,12.9-100.48,12.9-100.48l4.87,.21c1.96,.21,3.96,.32,5.99,.28l-5.99-.28c-36.04-3.23-60.65-37.65-60.65-37.65,0,0,29.03-88.1,101.95-106.26l39.93,6.28,1.72-.42c5.12-2.84,.6,.77,.6,.77l-2.31-.35,1.72-1.4s23.77,13.85,32.92,38.11,16.34,34.39,21.77,44.07c5.47,9.64,17.84,24.75,17.84,39.09,0,12.52-12.97,28.99-31.59,26.08Z"/>
        <path class="cls-22" d="M259.85,430.22c-90.87,18.76-134.1-1.72-145.88-8.94-1.89-1.16-2.28-3.72-.95-5.47,8.1-10.66,13.81-23.17,15.6-36.46,2,1.3,3.86-47.26,4.77-44.56,17.81,54.45,76.15,90.03,126.45,95.43Z"/>
        <path class="cls-22" d="M131.99,330.02c3.16,25.28,6.42,52.34-5.05,76.11-1.47,3.05,3.09,5.71,4.56,2.66,11.92-24.75,9.05-52.38,5.75-78.78-.42-3.33-5.68-3.37-5.26,0h0Z"/>
        <path class="cls-11" d="M249.47,55.06c-2.49-38.53-41.23-50.9-41.23-50.9l-4.28-.67c-44.87-7.92-65.17,17-65.17,17l-3.47,3.47s-21.11,19.14-22.44,52.8c-1.33,33.66-6.94,85.47-19.81,109.56-12.87,24.08-20.12,51.15-11.22,77.2l14.76-25,18.05-23.28,25.49-22.02,27.21-14.58,14.34-4.7,32.43,.25,4.7,3.65,14.34,16.41,10.9,14.09,26.22,13.6-.74-20.54,5.19-15.6,5.92-16.09-.25-17.07-7.92-25-13.6-18.05-10.9-11.15-3.72-25.73-8.66-20.54,13.78,2.87,.07,.04Z"/>
        <path class="cls-9" d="M263.32,200.55c-1.4-6.45,1.58-12.69,4.49-18.27,2.7-5.15,5.4-10.31,5.96-16.2,.14-1.68-2.49-1.68-2.63,0-1.16,12.45-13.22,21.95-10.34,35.13,.35,1.65,2.91,.95,2.52-.7h0v.04Z"/>
        <path class="cls-2" d="M154.43,123.7c2,8.76,7.43,16.27,14.06,22.19,3.33,2.98,7.89,5.01,8.76,9.75,1.02,5.5,1.26,11.22,1.65,16.79,.21,3.37,5.47,3.4,5.26,0-.35-5.54-.84-11.08-1.58-16.58-.32-2.38-.84-4.73-2.31-6.7-1.33-1.82-3.3-3.05-5.05-4.42-7.33-5.75-13.6-13.15-15.71-22.44-.74-3.3-5.82-1.89-5.08,1.4h0Z"/>
        <path class="cls-2" d="M217.05,173.45c-.25-4.63-2.66-16.02,2.28-18.72,2.77-1.54,6.03-2.07,8.97-3.23,3.51-1.37,6.73-3.26,9.75-5.5,13.08-9.89,18.97-26.22,16.02-42.25-.6-3.33-5.68-1.93-5.08,1.4,3.09,16.9-5.82,34.36-21.74,41.16-4.77,2.03-12.41,2.56-14.65,8.1-2.35,5.82-1.09,13.01-.77,19.07,.18,3.37,5.43,3.4,5.26,0h0l-.04-.04Z"/>
        <path class="cls-2" d="M238.05,66.91s7.54-5.19,10.66-10.52l-3.19-3.37-8.24-1.82,.77,15.71Z"/>
        <path class="cls-9" d="M81.62,248.02c-1.72-16.37,.91-32.95,7.78-47.96,.7-1.54-1.58-2.87-2.28-1.33-7.08,15.39-9.92,32.43-8.13,49.29,.18,1.68,2.8,1.68,2.63,0h0Z"/>
        <path class="cls-9" d="M112.68,91.45c-.49,10.38-1.54,20.72-3.19,30.99-.25,1.65,2.28,2.38,2.52,.7,1.65-10.52,2.73-21.07,3.26-31.69,.07-1.68-2.56-1.68-2.63,0h.04Z"/>
        <path class="cls-9" d="M115.17,71.75c-.08,0-.15,0-.23-.02-.96-.12-1.64-1-1.51-1.96,.14-1.11,3.74-27.49,20.42-44.88,.67-.7,1.78-.72,2.48-.05,.7,.67,.72,1.78,.05,2.48-15.87,16.55-19.44,42.64-19.47,42.91-.12,.88-.87,1.53-1.74,1.53Z"/>
        <g>
          <path class="cls-19" d="M236.68,897.19c-6.1-22.72-39.58-46.31-52.27-54.59l-7.89-7.33c-1.19-1.65-2.7-3.19-4.7-4.38l-.98-.91-.28,.28c-2.49-1.16-5.54-1.82-9.43-1.51-9.01,.74-12.8,6.03-14.34,11.18l.18-2.07-.18,2.07s-21,14.58-21.32,40.67c-.04,3.16,1.47,6.14,4.03,7.96,11.46,8.1,47.4,30.26,102.44,18.23l6.59-4.45-.39-.14c1.54-.39-3.05-4.56-1.51-5.05l.04,.03Z"/>
          <path class="cls-19" d="M236.82,897.16s-.11,0-.14,.04c.32,1.19,.6,2.38,.74,3.54l-.63-3.58h.04Z"/>
        </g>
        <path class="cls-18" d="M238.08,902.35h0c.07,2.77-2.07,5.08-4.84,5.22h-.95c-55.04,12.06-91.78-10.9-103.25-19-2.59-1.82-4.1-4.8-4.07-7.96,0-3.89,.49-7.75,1.26-11.5,.67,1.65,1.79,3.05,3.3,4.1,11.46,8.13,47.36,30.29,102.44,18.27l1.61-1.09c1.12,2.28,2,4.56,2.59,6.8-.67,.21-.18,1.12,.49,2.1h0c.84,1.3,1.89,2.7,1.02,2.94l.39,.11Z"/>
        <path class="cls-19" d="M106.02,885.45c-.14-.7-.32-1.4-.49-2.1,.04,0,.11-.04,.14-.04,0,0,.35,2.14,.35,2.14Z"/>
        <polyline class="cls-8" points="387.78 239.26 378.38 231.33 376.77 207.95 380.21 201.04 386.17 199.43 388.62 201.04 389.53 205.35 389.99 215.63 400.15 216.5 398.3 242.48"/>
        <path class="cls-8" d="M380.8,225.23l-1.96,2.8,2.63,24.58,14.51,4.77,7.75-12.45s-4.28-7.01-4.14-7.85"/>
        <path class="cls-22" d="M212.42,173.45c4.35,1.37,7.05,3.33,7.05,5.5,0,4.17-9.96,7.54-22.26,7.54s-22.26-3.37-22.26-7.54c0-2.31,2.35-4.14,7.15-5.54"/>
        <path class="cls-16" d="M76.5,551.15c-.41,0-.82-.19-1.08-.56-.42-.59-.28-1.41,.31-1.83,.31-.22,7.37-5.51,5.35-19.78-.72-5.06-2.71-10.19-5.91-15.22l-5.96-9.29c-.39-.61-.21-1.42,.4-1.82,.61-.39,1.42-.21,1.82,.4l5.96,9.29c3.4,5.36,5.52,10.83,6.29,16.27,2.26,15.97-6.08,22.04-6.43,22.3-.23,.16-.49,.24-.76,.24Z"/>
        <path class="cls-8" d="M212.35,152s-1.86,12.59-1.86,33.38l-27.87-.25c0-24.08-.56-36.67-.56-36.67"/>
        <path class="cls-8" d="M240.08,61.34l3.16,9.19c4.31,12.62,6.52,25.84,6.52,39.16h0c0,23.94-21.11,43.4-46.87,43.4-21.32,0-39.3-13.29-44.87-31.45l-7.89,.35-7.68-4.77-2.98-8.1,.74-7.92,.32-3.3,2.66-2.03,2.73-1.61,5.68-.98,1.72-.25,2.73-10.13,13.11-10.38,21.28-11.39,8.17-1.23,2.73-32.92,4.94,4.21,5.68,11.64,2.98,6.17,3.23,2.98,13.6-.49,7.19,.49,3.96,10.9-2.8-1.47-.04-.07Z"/>
        <path class="cls-1" d="M212.35,152s.77,3.12-.6,7.92c-3.68,.88-6.17,1.05-10.13,1.05-7.92,0-14.02-1.96-20.58-5.19-.77-4.28,.98-7.33,.98-7.33l2.91,1.51c5.33,1.96,11.11,3.05,17.18,3.05,3.51,0,6.94-.35,10.24-1.05h0v.04Z"/>
        <path class="cls-1" d="M241.83,135.03c-1.47,1.89-3.12,3.65-4.87,5.29-8.48,7.85-20.19,12.73-33.09,12.73-21.35,0-39.34-13.29-44.91-31.45l-6.38-28.36,1.72-.25,2.73-10.13,7.36-5.85-4.8,2.87,.88,5.43,6.42,28.36c5.57,18.16,23.56,31.45,44.91,31.45,11.43,0,21.91-3.82,30.04-10.1Z"/>
        <path class="cls-16" d="M260.06,475.19c-.99,0-2-.35-2.89-1.02-1.15-.86-2.04-2.18-2.5-3.72-.46-1.53-.44-3.12,.04-4.48,.53-1.47,1.59-2.55,2.92-2.94,1.32-.4,2.8-.09,4.05,.86,1.15,.86,2.04,2.18,2.5,3.72,.46,1.53,.44,3.12-.04,4.48-.53,1.47-1.59,2.55-2.92,2.94-.38,.11-.77,.17-1.16,.17Zm-1.27-9.7c-.13,0-.27,.02-.41,.06-.71,.21-1.05,.91-1.19,1.31-.29,.82-.29,1.85,0,2.83,.29,.98,.86,1.85,1.56,2.37,.34,.25,1.01,.65,1.72,.44,.71-.21,1.05-.91,1.19-1.31,.29-.82,.29-1.85,0-2.83s-.86-1.85-1.56-2.37c-.27-.2-.76-.5-1.31-.5Z"/>
        <path class="cls-16" d="M120.74,470.5c-.4,0-.79-.06-1.19-.17-2.67-.8-3.96-4.06-2.96-7.42,1.01-3.36,3.88-5.37,6.55-4.57,2.67,.8,3.96,4.06,2.96,7.42-.86,2.86-3.07,4.75-5.36,4.75Zm1.22-9.71c-1.12,0-2.35,1.2-2.85,2.87h0c-.56,1.88-.02,3.78,1.19,4.15,1.21,.36,2.71-.92,3.27-2.81,.56-1.88,.02-3.78-1.19-4.15-.14-.04-.28-.06-.42-.06Zm-4.11,2.49h0Z"/>
        <g>
          <path class="cls-16" d="M135.04,415.98c-.13,0-.27-.03-.4-.1-.43-.22-.6-.75-.38-1.18l7.82-15.25c.22-.43,.75-.6,1.18-.38,.43,.22,.6,.75,.38,1.18l-7.82,15.25c-.16,.3-.46,.48-.78,.48Z"/>
          <path class="cls-16" d="M134.17,408.73c-.13,0-.27-.03-.4-.1-.43-.22-.6-.75-.38-1.18l7.82-15.25c.22-.43,.75-.6,1.18-.38,.43,.22,.6,.75,.38,1.18l-7.82,15.25c-.16,.3-.46,.48-.78,.48Z"/>
        </g>
        <g>
          <path class="cls-16" d="M96.8,291.91c-.13,0-.27-.03-.4-.1-.43-.22-.6-.75-.38-1.18l7.82-15.25c.22-.43,.75-.6,1.18-.38,.43,.22,.6,.75,.38,1.18l-7.82,15.25c-.16,.3-.46,.48-.78,.48Z"/>
          <path class="cls-16" d="M95.88,284.66c-.13,0-.27-.03-.4-.1-.43-.22-.6-.75-.38-1.18l7.82-15.25c.22-.43,.75-.6,1.18-.38,.43,.22,.6,.75,.38,1.18l-7.82,15.25c-.16,.3-.46,.48-.78,.48Z"/>
        </g>
        <g>
          <path class="cls-16" d="M113.52,554.43c-.36,0-.69-.22-.82-.58l-5.89-16.09c-.17-.45,.07-.96,.52-1.12,.46-.17,.96,.07,1.12,.52l5.89,16.09c.17,.45-.07,.96-.52,1.12-.1,.04-.2,.05-.3,.05Z"/>
          <path class="cls-16" d="M119.44,558.71c-.36,0-.69-.22-.82-.58l-5.89-16.09c-.17-.45,.07-.96,.52-1.12,.46-.16,.96,.07,1.12,.52l5.89,16.09c.17,.45-.07,.96-.52,1.12-.1,.04-.2,.05-.3,.05Z"/>
        </g>
        <g>
          <path class="cls-16" d="M208.07,628.09s-.07,0-.11,0c-.48-.06-.82-.5-.76-.98l2.1-17c.06-.48,.5-.81,.98-.76,.48,.06,.82,.5,.76,.98l-2.1,17c-.05,.44-.43,.77-.87,.77Z"/>
          <path class="cls-16" d="M211.4,634.61s-.07,0-.11,0c-.48-.06-.82-.5-.76-.98l2.1-17c.06-.48,.5-.81,.98-.76,.48,.06,.82,.5,.76,.98l-2.1,17c-.05,.44-.43,.77-.87,.77Z"/>
        </g>
        <path class="cls-16" d="M202.85,154.36c-21.31,0-40.28-13.31-46.13-32.38-.21-.69,.18-1.43,.87-1.64,.69-.21,1.43,.18,1.64,.87,5.52,17.97,23.45,30.52,43.62,30.52,25.12,0,45.56-18.88,45.56-42.09,0-13.18-2.17-26.21-6.45-38.73l-3.15-9.18c-.24-.69,.13-1.43,.82-1.67,.69-.24,1.44,.13,1.67,.82l3.16,9.19c4.38,12.8,6.59,26.12,6.59,39.59,0,24.66-21.62,44.72-48.19,44.72Z"/>
        <path class="cls-16" d="M197.2,187.81c-11.43,0-23.58-3.1-23.58-8.85,0-2.9,2.66-5.17,7.92-6.73,.7-.21,1.43,.19,1.64,.89s-.19,1.43-.89,1.64c-3.89,1.16-6.04,2.65-6.04,4.21,0,2.6,7.97,6.22,20.95,6.22s20.95-3.62,20.95-6.22c0-1.41-2.4-3.08-6.13-4.25-.69-.22-1.08-.96-.86-1.65,.22-.69,.96-1.08,1.65-.86,5.14,1.62,7.97,4.02,7.97,6.76,0,5.75-12.15,8.85-23.58,8.85Z"/>
        <path class="cls-16" d="M220.41,106.68c-.49,0-.95-.27-1.18-.74-.32-.65-.05-1.44,.6-1.76,1.51-.74,2.81-1.77,3.87-3.05,.46-.56,1.29-.64,1.85-.18,.56,.46,.64,1.29,.18,1.85-1.3,1.58-2.9,2.84-4.75,3.75-.19,.09-.38,.13-.58,.13Z"/>
        <path class="cls-16" d="M121.44,87.33h-.03c-.73-.01-1.3-.61-1.29-1.34,.03-1.41,.82-34.7,13.35-44.89,.56-.46,1.39-.37,1.85,.19,.46,.56,.37,1.39-.19,1.85-11.59,9.42-12.38,42.57-12.38,42.9-.01,.72-.6,1.29-1.31,1.29Z"/>
        <path class="cls-16" d="M97.08,208.65c-.48,0-.88-.39-.88-.88v-.35s0-.08,0-.11c1.21-9.14,3.62-18.06,7.18-26.52,.19-.45,.7-.66,1.15-.47,.45,.19,.66,.7,.47,1.15-3.49,8.29-5.86,17.04-7.05,26.01v.29c0,.48-.39,.88-.88,.88Z"/>
        <path class="cls-16" d="M106.16,177.52c-.12,0-.24-.02-.36-.08-.44-.2-.64-.72-.44-1.16l1.4-3.12c5.88-13.09,8.86-26.98,8.86-41.29,0-.48,.39-.88,.88-.88s.88,.39,.88,.88c0,14.56-3.03,28.69-9.02,42.01l-1.4,3.12c-.15,.32-.47,.52-.8,.52Z"/>
        <path class="cls-16" d="M114.85,174.82c-.14,0-.29-.04-.42-.11-.42-.23-.58-.77-.34-1.19,5.04-9.13,6.34-18.91,6.35-19,.06-.48,.5-.82,.98-.76,.48,.06,.82,.5,.76,.98-.05,.41-1.34,10.2-6.55,19.63-.16,.29-.46,.45-.77,.45Z"/>
        <path class="cls-16" d="M105.95,203.78c-.05,0-.11,0-.16-.02-.48-.09-.79-.55-.7-1.02,.02-.13,2.44-12.73,6.03-22.51,.17-.45,.67-.69,1.13-.52,.45,.17,.69,.67,.52,1.13-3.54,9.63-5.93,22.1-5.96,22.23-.08,.42-.45,.71-.86,.71Z"/>
        <path class="cls-16" d="M256.45,185.06c-.16,0-.32-.04-.46-.13-.41-.26-.54-.8-.28-1.21,1.08-1.74,2.81-4.53,4.09-6.68,4.31-7.14,5.35-14.27,3.08-21.19-.15-.46,.1-.96,.56-1.11,.46-.15,.96,.1,1.11,.56,2.44,7.42,1.35,15.04-3.24,22.64-1.29,2.16-3.02,4.96-4.11,6.71-.17,.27-.45,.41-.74,.41Z"/>
        <path class="cls-16" d="M262.55,183.13c-.14,0-.28-.03-.41-.1-.43-.23-.59-.76-.36-1.19,.56-1.05,1.12-2.13,1.68-3.21,1.81-3.66,3.81-8.05,4.76-12.78,1.28-6.16,.6-12.01-1.9-16.47-.24-.42-.09-.96,.33-1.19,.42-.24,.96-.09,1.19,.33,2.71,4.83,3.45,11.11,2.09,17.68-.99,4.92-3.04,9.44-4.91,13.22-.57,1.1-1.13,2.19-1.69,3.25-.16,.3-.46,.46-.77,.46Z"/>
        <path class="cls-16" d="M258.13,205.42c-.44,0-.83-.34-.87-.79-.43-4.28-.78-9.24,.52-13.89,.44-1.61,1.1-3.25,2.13-5.31,.22-.43,.74-.61,1.18-.39,.43,.22,.61,.74,.39,1.18-.98,1.95-1.59,3.49-2.01,4.99-1.22,4.36-.88,9.12-.46,13.25,.05,.48-.3,.91-.78,.96-.03,0-.06,0-.09,0Z"/>
        <path class="cls-16" d="M270.19,221.99c-.62,0-1.18-.45-1.29-1.08-1.88-10.54-.71-21.86,3.3-31.89,.85-2.14,1.84-4.26,2.8-6.3,1.93-4.11,3.75-7.98,4.6-12.23,.77-3.95,.76-8.35-.01-13.86-2.93-21.39-14.03-41.66-30.44-55.63-.55-.47-.62-1.3-.15-1.85,.47-.55,1.3-.62,1.85-.15,16.9,14.38,28.32,35.25,31.34,57.27,.82,5.8,.81,10.48-.01,14.73-.92,4.56-2.89,8.77-4.8,12.84-.94,2.01-1.92,4.08-2.74,6.15-3.83,9.57-4.95,20.39-3.15,30.45,.13,.71-.35,1.4-1.06,1.53-.08,.01-.16,.02-.23,.02Z"/>
        <path class="cls-11" d="M223.81,50.85c-.25,.07-12.62,5.54-12.62,5.54l5.92,9.5s14.02-6.94,24.82-4.38l-3.54-9.57"/>
        <path class="cls-16" d="M189.44,84.43h0c2.38-.98,5.11,.17,6.08,2.55l3.17,7.75c.98,2.38-.17,5.11-2.55,6.08h0c-2.38,.98-5.11-.17-6.08-2.55l-3.17-7.75c-.98-2.38,.17-5.11,2.55-6.08Z"/>
        <path class="cls-16" d="M231.18,70.77h0c2.52-.54,4.99,1.07,5.53,3.59l1.74,8.2c.54,2.52-1.07,4.99-3.59,5.53h0c-2.52,.54-4.99-1.07-5.53-3.59l-1.74-8.2c-.54-2.52,1.07-4.99,3.59-5.53Z"/>
        <path class="cls-5" d="M192.57,120.72s25,2.98,38.35-13.36c0,0,1.23,18.55-13.11,25.24-14.34,6.7-25.24-11.88-25.24-11.88Z"/>
        <path class="cls-16" d="M191.24,333.08c-7.39,0-13.77-1.75-19.07-5.24-10.74-7.08-12.98-18.65-13.07-19.14-.13-.71,.34-1.4,1.05-1.53,.71-.13,1.4,.34,1.53,1.05,.02,.11,2.16,11,11.97,17.44,7.57,4.97,17.66,6.08,29.99,3.29,.71-.16,1.41,.28,1.57,.99,.16,.71-.28,1.41-.99,1.57-4.62,1.05-8.95,1.57-12.98,1.57Z"/>
        <path class="cls-16" d="M61.71,579.49c-.81,0-1.66-.06-2.53-.2-11.23-1.75-17.94-15.93-17.94-37.93,0-20.58,7.54-46.11,7.96-47.51l3.63-17.44,14.41-63.16c.16-.71,.86-1.15,1.57-.99,.71,.16,1.15,.87,.99,1.57l-14.41,63.14-3.64,17.47s-.02,.08-.03,.11c-.08,.26-7.87,26.15-7.87,46.81s6.02,33.82,15.72,35.34c9.52,1.48,14.95-7.57,15.17-7.95,.37-.63,1.17-.84,1.8-.47,.63,.37,.84,1.17,.47,1.79-.24,.42-5.61,9.43-15.32,9.43Z"/>
        <path class="cls-16" d="M70.5,406.22c-.1,0-.19-.01-.29-.03-.71-.16-1.15-.87-.99-1.57l6.94-30.47c.19-.76,.29-1.39,.32-1.94l3.93-56.86c.05-.72,.67-1.27,1.4-1.22,.72,.05,1.27,.68,1.22,1.4l-3.93,56.83c-.03,.7-.16,1.5-.39,2.4l-6.94,30.44c-.14,.61-.68,1.02-1.28,1.02Z"/>
        <path class="cls-16" d="M82.18,310.34s-.06,0-.09,0c-.72-.05-1.27-.68-1.22-1.4l1.02-14.65c.05-.72,.68-1.28,1.4-1.22,.72,.05,1.27,.68,1.22,1.4l-1.02,14.65c-.05,.69-.63,1.22-1.31,1.22Z"/>
        <path class="cls-16" d="M71.8,498.95c-.11,0-.22-.01-.33-.04-.7-.18-1.12-.9-.94-1.6l3.47-13.36s.03-.09,.04-.14l36.56-96.37,12.84-68.74c.13-.71,.82-1.18,1.53-1.05,.71,.13,1.18,.82,1.05,1.53l-12.87,68.85c-.01,.08-.04,.15-.06,.22l-36.58,96.41-3.45,13.29c-.15,.59-.69,.98-1.27,.98Z"/>
        <path class="cls-16" d="M195.57,438.5c-11.95,0-23.41-.75-34.33-2.25-25.19-3.46-40.71-10.03-47.72-13.63-1.4-.74-2.41-2.03-2.76-3.55-.35-1.48-.04-3.03,.84-4.26,25.01-34.24,16.47-93.51,16.38-94.11-.14-.96,.52-1.85,1.47-1.99,.95-.14,1.85,.52,1.99,1.47,.02,.15,2.28,15.44,1.32,34.83-.56,11.41-2.1,22.01-4.59,31.5-3.12,11.93-7.74,22.14-13.74,30.36-.29,.4-.39,.9-.27,1.4,.12,.53,.48,.98,.97,1.24,12.6,6.49,60.82,26.24,151.51,7.76,.36-.07,.54-.31,.62-.45,.08-.13,.19-.4,.07-.73-2.44-6.9-8.33-25.02-10.4-44.14-2.64-24.4,1.81-41.37,13.24-50.47,.76-.6,1.86-.48,2.46,.28,.6,.76,.48,1.86-.28,2.46-25.07,19.95-5.83,79.06-1.72,90.7,.42,1.2,.3,2.52-.34,3.63-.64,1.11-1.72,1.9-2.97,2.15-25.47,5.19-49.49,7.8-71.78,7.8Z"/>
        <path class="cls-16" d="M289.44,238.82c-.31,0-.63-.11-.88-.34-19.76-17.77-43.31-27.61-43.55-27.7-.67-.28-.99-1.05-.71-1.72,.28-.67,1.05-.99,1.72-.71,.24,.1,24.21,10.11,44.3,28.18,.54,.49,.58,1.32,.1,1.86-.26,.29-.62,.44-.98,.44Z"/>
        <path class="cls-16" d="M283.8,284.15c-.3,0-.61-.1-.86-.32-.55-.47-.61-1.3-.14-1.85,.49-.57,11.71-13.44,26.81-16.92-3.81-7.64-9.35-15.12-16.51-22.28-.51-.51-.51-1.35,0-1.86,.51-.51,1.35-.51,1.86,0,7.84,7.84,13.81,16.09,17.76,24.53,.17,.37,.16,.8-.02,1.16-.19,.36-.53,.62-.94,.69-15.04,2.69-26.85,16.25-26.97,16.39-.26,.3-.63,.46-1,.46Z"/>
        <path class="cls-16" d="M304.23,280.68c-.21,0-.43-.05-.63-.16-.64-.35-.87-1.15-.53-1.78l7.26-13.36c.35-.64,1.15-.87,1.78-.53,.64,.35,.87,1.15,.53,1.78l-7.26,13.36c-.24,.44-.69,.69-1.16,.69Z"/>
        <path class="cls-16" d="M83.26,502.97c-1.34,0-2.13-.06-2.18-.07-.72-.07-1.26-.7-1.19-1.43,.06-.72,.7-1.26,1.43-1.19,.11,0,10.91,.9,22.67-4.03,15.68-6.57,25.57-19.85,29.38-39.47,.14-.71,.82-1.18,1.54-1.04,.71,.14,1.18,.83,1.04,1.54-8.33,42.84-43.53,45.68-52.69,45.68Z"/>
        <path class="cls-16" d="M288.51,505.27c-7.9,0-14.94-2.17-20.99-6.48-16.22-11.55-19.69-34.16-19.83-35.12-.1-.72,.39-1.39,1.11-1.49,.72-.11,1.39,.39,1.49,1.11,.03,.22,3.46,22.48,18.76,33.36,7.72,5.49,17.21,7.21,28.21,5.12,.71-.14,1.4,.33,1.54,1.05,.14,.71-.33,1.4-1.05,1.54-3.2,.61-6.28,.91-9.24,.91Z"/>
        <path class="cls-16" d="M110.75,610.56c-.73,0-1.41-.46-1.66-1.19-7.09-20.86-13.13-36.73-13.19-36.89-.11-.26-12-29.96-12-70.92,0-36.94,25.08-72.97,30.1-79.81,.57-.78,1.67-.95,2.45-.38,.78,.57,.95,1.67,.38,2.45-4.91,6.69-29.42,41.89-29.42,77.74,0,40.23,11.64,69.34,11.76,69.63,.07,.19,6.14,16.12,13.25,37.05,.31,.92-.18,1.91-1.1,2.22-.19,.06-.38,.09-.56,.09Z"/>
        <path class="cls-16" d="M230.09,818.97c-7.81,0-17.91-2.12-28.53-9.94-.55-.4-.81-1.09-.68-1.75,.08-.39,7.89-39.86,7.89-77.52,0-27.16-4.65-63.8-7.29-82.38l-17.08,119.63v45.91c0,.74-.46,1.4-1.16,1.65-23.61,8.53-46.28,.35-47.23,0-.7-.26-1.16-.93-1.14-1.68,.01-.76,1.42-76.57-2.48-115.62-1.95-19.37-10.85-49.69-17.98-71.71-.3-.92,.21-1.91,1.13-2.21,.92-.3,1.91,.21,2.21,1.13,7.18,22.19,16.15,52.77,18.13,72.44,3.64,36.44,2.69,104.52,2.52,114.75,4.78,1.49,23.46,6.44,42.5,.02v-44.79c0-.08,0-.17,.02-.25l18.79-131.64c.12-.86,.85-1.5,1.72-1.5h.02c.86,0,1.59,.62,1.73,1.47,.09,.56,9.1,56.81,9.1,94.8,0,34.46-6.47,70.39-7.74,77.1,9.71,6.88,19.99,9.66,30.6,8.29,6.36-.82,11-2.99,12.78-3.93l1.1-51.8c0-.1,.01-.21,.03-.31l15.85-78.53c.01-.05,.02-.11,.04-.16,.02-.08,2.4-8.13,7.46-34.95,.18-.95,1.1-1.57,2.05-1.4,.95,.18,1.58,1.1,1.4,2.05-4.9,25.95-7.25,34.28-7.52,35.23l-15.8,78.3-1.12,52.64c-.01,.59-.32,1.13-.82,1.45-.24,.15-5.92,3.68-14.83,4.87-1.71,.23-3.61,.38-5.67,.38Z"/>
        <path class="cls-16" d="M276.12,636.89c-.1,0-.21,0-.31-.03-.95-.17-1.58-1.08-1.41-2.04,3.02-16.61,6.48-37.16,10.3-61.07,1.59-9.96,2.56-20.1,2.89-30.14,.03-.97,.85-1.74,1.81-1.69,.97,.03,1.73,.84,1.69,1.81-.33,10.18-1.32,20.47-2.93,30.58-3.82,23.93-7.29,44.5-10.31,61.14-.15,.85-.89,1.44-1.72,1.44Z"/>
        <path class="cls-16" d="M289.3,530.24c-.94,0-1.72-.75-1.75-1.7-1.79-54.22-22.18-90.55-26.25-97.28-.5-.83-.24-1.91,.59-2.41,.83-.5,1.91-.24,2.41,.59,4.15,6.86,24.94,43.89,26.76,98.98,.03,.97-.73,1.78-1.69,1.81-.02,0-.04,0-.06,0Z"/>
        <path class="cls-16" d="M201.48,636.96c-.09,0-.18,0-.27-.02-.96-.15-1.61-1.05-1.46-2,2.94-18.85,4.43-38.19,4.43-57.47v-24.58c0-16.35-1.64-32.77-4.87-48.8-.19-.95,.42-1.87,1.37-2.06,.95-.19,1.87,.42,2.06,1.37,3.28,16.26,4.94,32.91,4.94,49.5v24.58c0,19.46-1.51,38.98-4.47,58.01-.13,.86-.88,1.48-1.73,1.48Z"/>
        <g>
          <path class="cls-16" d="M147.59,840.61c-.84,0-1.58-.6-1.73-1.46l-4.03-23.49c-.16-.95,.48-1.86,1.43-2.02,.95-.17,1.86,.48,2.02,1.43l4.03,23.49c.16,.95-.48,1.86-1.43,2.02-.1,.02-.2,.03-.3,.03Z"/>
          <path class="cls-16" d="M171.47,832.72s-.05,0-.08,0c-.97-.04-1.72-.86-1.67-1.83l.63-14.27c.04-.97,.87-1.71,1.83-1.67,.97,.04,1.72,.86,1.67,1.83l-.63,14.27c-.04,.94-.82,1.68-1.75,1.68Z"/>
          <path class="cls-16" d="M200.98,913.06c-34.48,0-58.89-12.94-71.82-22.07-3.03-2.16-4.81-5.68-4.77-9.41,.32-26.6,20.48-42.36,21.34-43.02,.77-.59,1.87-.44,2.46,.32s.45,1.87-.32,2.46c-.2,.15-19.66,15.43-19.96,40.28-.03,2.58,1.2,5.02,3.3,6.51,12.56,8.87,36.27,21.42,69.8,21.43,9.62,0,20.04-1.03,31.25-3.48,.95-.21,1.88,.39,2.09,1.34,.21,.95-.39,1.88-1.34,2.09-11.47,2.5-22.15,3.56-32,3.56Z"/>
          <path class="cls-16" d="M146.61,852.95c-.85,0-1.6-.62-1.73-1.5-.06-.42-1.45-10.32,4.02-17.21,2.92-3.68,7.2-5.77,12.71-6.22,5.71-.46,10.46,.91,14.12,4.07,6.39,5.53,7.03,14.5,7.06,14.88,.06,.97-.67,1.8-1.64,1.86-.97,.08-1.8-.67-1.86-1.64,0-.08-.59-7.92-5.87-12.47-2.92-2.51-6.79-3.59-11.52-3.21-4.5,.37-7.95,2.01-10.24,4.89-4.53,5.68-3.33,14.44-3.31,14.53,.14,.96-.52,1.85-1.48,1.99-.09,.01-.17,.02-.26,.02Z"/>
          <path class="cls-16" d="M238.08,903.5c-.86,0-1.61-.63-1.73-1.51-3.87-27.98-56.55-59.63-57.08-59.95-.83-.5-1.1-1.57-.61-2.4,.5-.83,1.57-1.11,2.4-.61,.14,.08,13.75,8.22,27.67,19.84,18.89,15.76,29.35,30.11,31.08,42.64,.13,.96-.54,1.84-1.5,1.98-.08,.01-.16,.02-.24,.02Z"/>
          <path class="cls-16" d="M278.85,907.57c-19.18,0-37.94-6.33-41.46-7.58-33.06,9.74-61.32,3.28-79.25-3.88-19.53-7.8-31.04-17.83-31.52-18.25-.73-.64-.8-1.75-.16-2.47,.64-.73,1.75-.8,2.47-.16,.45,.4,46.19,39.75,108,21.23,.37-.11,.76-.1,1.11,.04,.25,.09,24.84,9.1,46.86,7.33,4.41-.35,7.23-1.8,8.38-4.3,2.93-6.35-4.44-18.78-7.52-23.04-.57-.78-.39-1.88,.39-2.45,.78-.57,1.88-.39,2.45,.39,.5,.69,12.25,17.04,7.87,26.56-1.72,3.74-5.52,5.87-11.29,6.33-2.11,.17-4.23,.25-6.34,.25Z"/>
          <path class="cls-16" d="M214.55,829.43c-.81,0-1.54-.57-1.71-1.4l-2.98-14.34c-.2-.95,.41-1.88,1.36-2.07,.95-.2,1.88,.41,2.07,1.36l2.98,14.34c.2,.95-.41,1.88-1.36,2.07-.12,.03-.24,.04-.36,.04Z"/>
          <path class="cls-16" d="M233.77,824.66c-.06,0-.12,0-.18,0-.96-.1-1.67-.96-1.57-1.92l.53-5.22c.1-.96,.94-1.67,1.92-1.57,.96,.1,1.67,.96,1.57,1.92l-.53,5.22c-.09,.9-.85,1.58-1.74,1.58Z"/>
          <path class="cls-16" d="M285.16,873.91c-.58,0-1.14-.29-1.48-.81-9.07-14.2-32.65-31.18-32.88-31.35-.42-.3-.68-.77-.73-1.28l-1.03-12.72c-19.52-7.21-37.98,5.1-38.16,5.22-.8,.55-1.89,.34-2.44-.46s-.34-1.89,.46-2.43c.84-.57,20.8-13.92,42.45-5.19,.62,.25,1.04,.82,1.09,1.48l1.06,13.01c4.02,2.94,24.47,18.26,33.14,31.83,.52,.82,.28,1.9-.53,2.42-.29,.19-.62,.28-.94,.28Z"/>
          <path class="cls-16" d="M200.29,855.89c-.9,0-1.67-.7-1.75-1.61l-1.09-13.57c-.34-4.23,.98-8.34,3.72-11.56,2.75-3.23,6.59-5.19,10.82-5.54l1.95-.17c.97-.08,1.82,.63,1.9,1.59s-.63,1.82-1.59,1.9l-1.96,.18c-3.31,.27-6.31,1.8-8.44,4.32s-3.17,5.71-2.9,9.01l1.09,13.57c.08,.96-.64,1.81-1.61,1.89-.05,0-.1,0-.14,0Z"/>
          <path class="cls-16" d="M275.35,900.31c-19.04,0-41.88-10.09-43.25-10.7-.88-.4-1.28-1.43-.88-2.32s1.43-1.28,2.32-.88c.12,.05,11.76,5.23,25.03,8.25,11.92,2.71,27.63,4.2,34.81-4.04,.63-.73,1.74-.81,2.47-.17,.73,.63,.81,1.74,.17,2.47-4.76,5.48-12.36,7.4-20.67,7.4Z"/>
        </g>
        <path class="cls-16" d="M262.71,330.59c-4.35,0-8.85-1-13.32-3.02-.66-.3-.96-1.08-.66-1.74,.3-.66,1.08-.96,1.74-.66,11.62,5.23,20.43,2.22,25.77-1.24,7.35-4.75,12.48-13.42,12.48-21.09,0-10.74-7.28-22.06-13.13-31.16-1.69-2.62-3.28-5.1-4.51-7.29-1.05-1.87-2.16-3.76-3.35-5.77-1.75-2.97-3.73-6.33-5.85-10.24-.35-.64-.11-1.44,.53-1.78,.64-.34,1.44-.11,1.78,.53,2.09,3.87,4.06,7.21,5.8,10.15,1.19,2.02,2.32,3.92,3.38,5.82,1.2,2.12,2.77,4.57,4.43,7.15,6.03,9.38,13.54,21.06,13.54,32.58,0,8.65-5.5,18.01-13.68,23.3-4.57,2.95-9.66,4.44-14.96,4.44Z"/>
        <path class="cls-16" d="M259.92,243.09c-.49,0-.95-.27-1.18-.74-3.31-6.74-6.42-13.99-9.52-22.17-8.88-23.55-31.28-36.57-31.5-36.7-.63-.36-.85-1.16-.49-1.79s1.16-.85,1.79-.49c.95,.54,23.44,13.63,32.66,38.05,3.06,8.1,6.14,15.27,9.42,21.94,.32,.65,.05,1.44-.6,1.76-.19,.09-.38,.13-.58,.13Z"/>
        <path class="cls-16" d="M76.92,562.12c-.73,0-1.31-.59-1.31-1.31,0-18.04-5.48-33.73-5.53-33.88-.24-.68,.12-1.44,.8-1.68,.69-.25,1.44,.12,1.68,.8,.23,.66,5.68,16.27,5.68,34.76,0,.73-.59,1.31-1.31,1.31Z"/>
        <path class="cls-9" d="M145.53,25.93c7.47-6.91,16.55-11.85,26.4-14.37,1.65-.42,.95-2.94-.7-2.52-10.27,2.63-19.77,7.85-27.56,15.04-1.26,1.16,.63,3.02,1.86,1.86h0Z"/>
        <path class="cls-9" d="M128.31,88.65c-.14-10.17,1.33-20.26,4.35-29.97,.49-1.61-2.03-2.31-2.52-.7-3.09,9.92-4.59,20.3-4.45,30.68,0,1.68,2.66,1.68,2.63,0h0Z"/>
        <path class="cls-9" d="M121.09,174.5c4.07-8.48,6.28-17.7,6.42-27.14,0-1.68-2.59-1.68-2.63,0-.14,8.94-2.21,17.74-6.07,25.8-.74,1.51,1.54,2.84,2.28,1.33h0Z"/>
        <path class="cls-9" d="M178.41,10.43l2.21-.32s.32-.11,.46-.25c.14-.11,.25-.21,.35-.39,.18-.28,.25-.7,.14-1.02s-.32-.63-.6-.77l-.32-.14c-.25-.07-.46-.07-.7,0l-2.21,.32s-.32,.11-.46,.25c-.14,.11-.25,.21-.35,.39-.18,.28-.25,.7-.14,1.02s.32,.63,.6,.77l.32,.14c.25,.07,.46,.07,.7,0h0Z"/>
        <path class="cls-2" d="M159.06,80.02c11.57-8.03,23.94-15.64,37.55-19.67,3.23-.95,1.86-6.03-1.4-5.08-14.06,4.17-26.85,11.88-38.81,20.19-2.77,1.93-.14,6.49,2.66,4.56h0Z"/>
        <path class="cls-16" d="M183.14,65.61h0c-.48,0-.87-.4-.87-.88,.02-4.34-.64-16.27-3.86-19.31-.35-.33-.37-.89-.04-1.24,.33-.35,.89-.37,1.24-.04,4.43,4.17,4.42,19.92,4.41,20.59,0,.48-.39,.87-.88,.87Z"/>
        <path class="cls-16" d="M191.91,61.3c-.47,0-.86-.37-.88-.84,0-.19-.81-19.16-7.45-26.51-.32-.36-.3-.91,.06-1.24,.36-.32,.91-.3,1.24,.06,7.07,7.82,7.87,26.81,7.9,27.62,.02,.48-.36,.89-.84,.91-.01,0-.02,0-.03,0Z"/>
        <path class="cls-2" d="M202.32,26.59c6.77,5.96,11.29,14.06,12.8,22.96,.28,1.65,2.8,.95,2.52-.7-1.58-9.29-6.38-17.91-13.46-24.12-1.26-1.12-3.12,.74-1.86,1.86h0Z"/>
        <path class="cls-2" d="M150.65,47.7c3.3,8.55,5.22,17.6,5.64,26.75,.14,3.37,5.4,3.4,5.26,0-.42-9.64-2.35-19.18-5.82-28.15-.53-1.33-1.75-2.24-3.23-1.82-1.26,.35-2.35,1.89-1.82,3.23h-.04Z"/>
        <path class="cls-1" d="M202.04,57.37c.95-9.33,1.54-18.72,1.82-28.08l-2.24,.95c1.79,2,3.37,4.24,4.84,6.52,2.66,4.21,5.05,9.01,5.26,14.09,.07,1.68,2.7,1.68,2.63,0-.21-5.43-2.59-10.59-5.43-15.15-1.61-2.56-3.4-5.08-5.43-7.36-.81-.88-2.21-.14-2.24,.95-.25,9.4-.84,18.76-1.82,28.08-.18,1.68,2.45,1.68,2.63,0h0Z"/>
        <path class="cls-1" d="M156.75,91.13c.42-1.47,.91-2.94,1.4-4.38,.42-1.23,.98-2.35,1.93-3.3s2.07-1.61,3.12-2.38c1.26-.91,2.52-1.82,3.82-2.7,.56-.42,.84-1.16,.46-1.79-.35-.56-1.23-.88-1.79-.46-1.33,.95-2.66,1.89-4.03,2.87-1.23,.88-2.52,1.72-3.61,2.8s-1.75,2.42-2.28,3.86c-.6,1.58-1.09,3.19-1.58,4.84s2.07,2.31,2.52,.7h0l.04-.07Z"/>
        <path class="cls-11" d="M171.79,83.84s10.73-10.38,24.08-12.87v-11.04l-29.2,14.86,5.12,9.08v-.04Z"/>
        <ellipse class="cls-1" cx="151.38" cy="107.37" rx="13.11" ry="14.37"/>
        <g>
          <path class="cls-16" d="M146.02,113.01c-.44,0-.85-.28-1-.71-.06-.19-1.54-4.68,.55-8.69,1.26-2.42,3.52-4.11,6.71-5.04,.56-.16,1.14,.16,1.3,.72,.16,.56-.16,1.14-.72,1.3-2.61,.76-4.44,2.1-5.42,3.98-1.68,3.2-.44,7.02-.43,7.05,.18,.55-.11,1.15-.66,1.33-.11,.04-.22,.05-.34,.05Z"/>
          <path class="cls-16" d="M152.47,110.38c-.58,0-1.05-.47-1.05-1.05,0-1.89-3.67-3.52-4.96-3.94-.55-.18-.85-.78-.67-1.33,.18-.55,.77-.85,1.33-.67,.66,.21,6.4,2.2,6.4,5.94,0,.58-.47,1.05-1.05,1.05Z"/>
        </g>
        <circle class="cls-5" cx="196.19" cy="90.29" r="2.24"/>
        <circle class="cls-5" cx="236.61" cy="78.23" r="2.24"/>
        <path class="cls-16" d="M152.99,123.02c-8.15,0-15.86-7.73-15.86-15.9,0-4.2,.91-7.45,2.79-9.94,.44-.58,1.26-.7,1.84-.26,.58,.44,.7,1.26,.26,1.84-1.52,2.02-2.26,4.75-2.26,8.36,0,6.01,5.9,13.27,13.23,13.27,4.13,0,8.73-2.6,10.71-6.04,.36-.63,1.17-.85,1.79-.48,.63,.36,.85,1.17,.48,1.79-2.45,4.26-7.91,7.36-12.99,7.36Z"/>
        <path class="cls-9" d="M263.81,126.96c3.23,4.73,5.57,9.99,6.98,15.53,.42,1.65,2.94,.95,2.52-.7-1.47-5.75-3.93-11.25-7.26-16.16-.95-1.4-3.23-.07-2.28,1.33h.04Z"/>
        <path class="cls-9" d="M229.98,186c6.14,5.99,11.57,12.66,16.16,19.91,.91,1.44,3.19,.11,2.28-1.33-4.7-7.43-10.27-14.3-16.58-20.44-1.23-1.19-3.09,.67-1.86,1.86h0Z"/>
        <path class="cls-9" d="M91.08,254.82c-.54,0-1.1-.13-1.61-.4-1.72-.89-2.39-3.01-1.5-4.72,.65-1.25,16.23-30.84,49.12-56.57,1.52-1.19,3.73-.92,4.92,.6,1.19,1.53,.92,3.73-.6,4.92-31.64,24.75-47.07,53.99-47.22,54.28-.62,1.2-1.85,1.89-3.11,1.89Z"/>
        <path class="cls-16" d="M211.56,135.11c-11.61,0-19.8-13.69-19.9-13.85-.2-.34-.19-.77,.03-1.11,.22-.33,.61-.52,1-.47,.24,.03,24.59,2.71,37.42-12.98,.27-.33,.72-.47,1.13-.34,.41,.13,.7,.5,.73,.93,.01,.19,1.1,19.34-13.72,26.26-2.33,1.09-4.57,1.55-6.7,1.55Zm-16.91-13.17c3.09,4.31,11.99,14.72,22.72,9.72,10.29-4.8,12.17-16.24,12.47-21.5-11.51,11.82-29.04,12.09-35.19,11.78Z"/>
        <path class="cls-22" d="M74.46,284.73c12.73,14.58,28.4,27.03,46.87,33.27,3.23,1.09,4.59-4,1.4-5.08-17.63-5.96-32.43-18.05-44.56-31.9-2.24-2.56-5.92,1.19-3.72,3.72h0Z"/>
        <path class="cls-16" d="M140.08,322.26c-14.57,0-29.12-5.13-43.26-15.24-11.54-8.26-19.54-17.62-22.44-21.26-1.23-1.55-1.56-3.6-.87-5.48,.42-1.13,1.33-3.54,2.83-7.1,.28-.67,1.05-.99,1.72-.71,.67,.28,.99,1.05,.71,1.72-1.47,3.52-2.38,5.89-2.78,6.99-.37,1.01-.2,2.1,.46,2.93,26.46,33.22,55.78,35.55,64.13,35.51,.73,0,1.32,.58,1.33,1.3,0,.73-.58,1.32-1.3,1.33-.17,0-.34,0-.51,0Z"/>
        <path class="cls-16" d="M79.65,270.19c-.18,0-.37-.04-.54-.12-.66-.3-.95-1.08-.65-1.74,6.11-13.47,13.37-26.08,21.59-37.49,.43-.59,1.25-.72,1.84-.3s.72,1.25,.3,1.84c-8.12,11.27-15.29,23.73-21.33,37.04-.22,.48-.7,.77-1.2,.77Z"/>
        <path class="cls-16" d="M106.47,225.85c-.29,0-.57-.09-.82-.28-.57-.45-.66-1.28-.21-1.85,13.01-16.41,27.65-29.12,43.49-37.78,.64-.35,1.44-.11,1.78,.52,.35,.64,.11,1.44-.52,1.78-15.53,8.49-29.89,20.97-42.69,37.1-.26,.33-.64,.5-1.03,.5Z"/>
        <path class="cls-16" d="M158.25,184.09c-.51,0-.99-.29-1.2-.79-.29-.66,0-1.44,.67-1.73,5.72-2.52,11.73-4.57,17.85-6.1,.7-.18,1.42,.25,1.59,.96,.18,.7-.25,1.42-.96,1.59-5.97,1.49-11.84,3.5-17.42,5.96-.17,.08-.35,.11-.53,.11Z"/>
        <path class="cls-2" d="M169.05,77.5c8.34-5.71,17.35-11.64,27.31-14.06,1.65-.39,.95-2.94-.7-2.52-10.17,2.49-19.42,8.48-27.94,14.3-1.4,.95-.07,3.23,1.33,2.28h0Z"/>
        <path class="cls-16" d="M170.17,80.77c-.12,0-.25-.05-.33-.15-.16-.18-.14-.46,.05-.62,.17-.15,4.27-3.64,8.41-5.5,.22-.1,.48,0,.58,.22s0,.48-.22,.58c-4.03,1.81-8.16,5.33-8.2,5.37-.08,.07-.18,.11-.29,.11Z"/>
        <path class="cls-16" d="M216.27,62.9c-.16,0-.31-.08-.39-.23-.11-.21-.03-.48,.18-.59,.2-.11,4.95-2.64,9.41-3.51,.24-.04,.47,.11,.51,.35,.05,.24-.11,.47-.35,.51-4.33,.85-9.12,3.4-9.17,3.43-.07,.04-.14,.05-.21,.05Z"/>
        <path class="cls-16" d="M171.93,84.75s-.03,0-.05,0c-.24-.01-.47-.13-.63-.32-3.72-4.55-4.99-9.21-5.04-9.41-.12-.47,.15-.95,.62-1.07,.46-.12,.95,.15,1.07,.62,.01,.04,1.1,4.01,4.13,8.02,2.58-2.31,11.78-9.95,23.11-12.3v-10.32c0-.48,.39-.88,.88-.88s.88,.39,.88,.88v11.04c0,.42-.3,.78-.72,.86-12.95,2.41-23.53,12.53-23.64,12.63-.16,.16-.38,.25-.61,.25Z"/>
        <path class="cls-2" d="M212.98,57.76c-.35,0-.67-.21-.81-.55-.18-.45,.03-.96,.48-1.14l11.08-4.52c.13-.05,.27-.08,.41-.06l14.3,1.23c.48,.04,.84,.47,.8,.95s-.46,.84-.95,.8l-14.09-1.21-10.88,4.44c-.11,.04-.22,.06-.33,.06Z"/>
        <path class="cls-16" d="M217.47,66.45c-.29,0-.58-.15-.74-.41l-5.92-9.5c-.13-.22-.17-.48-.09-.72s.25-.44,.48-.54c12.43-5.49,12.66-5.56,12.73-5.58,.47-.13,.95,.14,1.08,.6,.13,.45-.12,.92-.56,1.07-.47,.18-6.88,3.01-11.63,5.1l4.98,7.98c2.89-1.32,13.75-5.89,23.13-4.42l-3-8.11c-.17-.45,.06-.96,.52-1.13,.46-.17,.96,.06,1.13,.52l3.54,9.57c.11,.3,.05,.64-.17,.89-.21,.24-.55,.35-.86,.27-10.37-2.46-24.09,4.25-24.23,4.31-.12,.06-.26,.09-.39,.09Z"/>
        <path class="cls-5" d="M400.75,211.24c4.03-5.22,9.47-9.19,14.76-13.04,.56-.42,.84-1.16,.46-1.79-.32-.56-1.23-.88-1.79-.46-5.68,4.17-11.36,8.38-15.67,13.99-.42,.56-.07,1.47,.46,1.79,.67,.39,1.37,.11,1.79-.46h0v-.04Z"/>
        <path class="cls-16" d="M399.94,252.98c-.19,0-.38-.04-.56-.13-.66-.31-.93-1.1-.62-1.75l5.47-11.46c.05-.11,.12-.22,.21-.31,5.61-6.25,11.63-12.07,17.91-17.31,6.13-5.12,9.98-12.32,10.82-20.27,.4-3.91-1.3-6.78-5.06-8.52-.66-.31-.95-1.09-.64-1.75,.31-.66,1.09-.95,1.75-.64,4.76,2.2,7.09,6.17,6.58,11.18-.92,8.63-5.09,16.45-11.75,22.01-6.14,5.12-12.03,10.81-17.51,16.91l-5.39,11.29c-.23,.47-.7,.75-1.19,.75Z"/>
        <path class="cls-16" d="M392.62,216c-.3,0-.6-.1-.84-.31-.56-.47-.63-1.29-.17-1.85,.67-.81,16.62-19.76,28.81-23.55,.69-.22,1.43,.17,1.65,.87,.22,.69-.17,1.43-.87,1.65-11.45,3.56-27.41,22.54-27.57,22.73-.26,.31-.63,.47-1.01,.47Z"/>
        <path class="cls-5" d="M377.4,214.36c-.21,6.56,.46,13.11,1.96,19.49,.39,1.65,2.91,.95,2.52-.7-1.44-6.17-2.07-12.48-1.86-18.79,.04-1.68-2.59-1.68-2.63,0h0Z"/>
        <path class="cls-16" d="M379.78,240.11c-.56,0-1.09-.37-1.26-.94-.26-.86-6.3-21.25-1.36-36.34,1.12-3.3,4.16-5.48,7.38-5.32,1.94,.09,3.63,.84,4.75,2.13,1.24,1.42,1.76,3.39,1.54,5.86-.07,.57-.1,1.07-.13,1.54v.11c-.39,4.96-.14,6.7,0,7.25,.2,.12,.37,.3,.48,.53,.32,.65,.06,1.44-.59,1.76-.47,.24-1.05,.19-1.51-.12-.81-.54-1.62-1.78-1.02-9.61v-.09c.04-.52,.08-1.06,.15-1.64,.15-1.69-.15-3-.9-3.86-.87-1-2.19-1.2-2.9-1.23-2.04-.11-4.04,1.38-4.76,3.52-4.69,14.29,1.32,34.55,1.38,34.75,.21,.7-.18,1.43-.88,1.64-.13,.04-.25,.06-.38,.06Zm9.65-25.77s0,0,0,0c0,0,0,0,0,0Zm0,0s0,0,0,0c0,0,0,0,0,0Zm0,0s0,0,0,0c0,0,0,0,0,0Zm0,0s0,0,0,0c0,0,0,0,0,0Zm0,0s0,0,0,0c0,0,0,0,0,0Zm0,0h0Zm0,0s0,0,0,0c0,0,0,0,0,0Zm0,0h0s0,0,0,0Z"/>
        <path class="cls-1" d="M347.81,365.26c-.24,0-.48-.05-.71-.15-.89-.39-1.29-1.43-.9-2.31l32.32-73.27c.39-.89,1.43-1.29,2.31-.9,.89,.39,1.29,1.43,.9,2.31l-32.32,73.27c-.29,.66-.93,1.05-1.6,1.05Z"/>
        <g>
          <path class="cls-16" d="M335.93,337.09c-.45,0-.89-.23-1.14-.65l-17.18-29.52c-.37-.63-.15-1.43,.48-1.8,.63-.37,1.43-.15,1.8,.48l17.18,29.52c.37,.63,.15,1.43-.48,1.8-.21,.12-.44,.18-.66,.18Z"/>
          <path class="cls-16" d="M315.39,301.78c-.45,0-.89-.23-1.14-.65l-17.07-29.34c-.37-.63-.15-1.43,.48-1.8,.63-.37,1.43-.15,1.8,.48l17.07,29.34c.37,.63,.15,1.43-.48,1.8-.21,.12-.44,.18-.66,.18Z"/>
          <path class="cls-16" d="M342.2,379.02h-.02c-9.72-.15-24.33-7.39-43.44-21.51-14.12-10.44-25.61-20.98-25.72-21.08-.53-.49-.57-1.32-.08-1.86,.49-.53,1.32-.57,1.86-.08,.45,.42,45.43,41.56,67.42,41.9,.73,.01,1.31,.61,1.29,1.33-.01,.72-.6,1.29-1.31,1.29Z"/>
          <path class="cls-16" d="M330,326.22c-.25,0-.5-.07-.72-.22-.61-.4-.77-1.22-.37-1.82l51.11-77.23c.4-.61,1.22-.77,1.82-.37,.61,.4,.77,1.22,.37,1.82l-51.11,77.23c-.25,.38-.67,.59-1.1,.59Z"/>
          <path class="cls-16" d="M345.81,377.02c-.18,0-.36-.04-.53-.11-.67-.29-.97-1.07-.68-1.73l52.48-119.76c.29-.67,1.07-.97,1.73-.68,.67,.29,.97,1.07,.68,1.73l-52.48,119.76c-.22,.49-.7,.79-1.2,.79Z"/>
        </g>
        <path class="cls-16" d="M141.08,317.45s-.03,0-.04,0c-.73-.02-1.3-.63-1.27-1.36,0-.29,1.02-29.42,10.29-60.39,.21-.7,.94-1.09,1.64-.88,.7,.21,1.09,.94,.88,1.64-9.17,30.65-10.17,59.43-10.18,59.72-.02,.71-.61,1.27-1.31,1.27Z"/>
        <path class="cls-16" d="M330.81,188.39c-.97,0-1.75-.78-1.75-1.75v-32.81c0-.97,.78-1.75,1.75-1.75s1.75,.78,1.75,1.75v32.81c0,.97-.78,1.75-1.75,1.75Z"/>
        <path class="cls-16" d="M313.74,250.02c-.97,0-1.75-.78-1.75-1.75v-26.08c0-.97,.78-1.75,1.75-1.75s1.75,.78,1.75,1.75v26.08c0,.97-.78,1.75-1.75,1.75Z"/>
        <g>
          <rect class="cls-13" x="357.28" y="116.69" width="81.41" height="61.63"/>
          <rect class="cls-5" x="349.88" y="116.69" width="81.41" height="61.63"/>
          <path class="cls-16" d="M427.29,179.39h-72.99c-3.2,0-5.8-2.6-5.8-5.8v-53.39c0-3.2,2.6-5.8,5.8-5.8h72.99c3.2,0,5.8,2.6,5.8,5.8v53.39c0,3.2-2.6,5.8-5.8,5.8Zm-72.99-62.37c-1.75,0-3.17,1.42-3.17,3.17v53.39c0,1.75,1.42,3.17,3.17,3.17h72.99c1.75,0,3.17-1.42,3.17-3.17v-53.39c0-1.75-1.42-3.17-3.17-3.17h-72.99Z"/>
          <path class="cls-16" d="M434.2,179.36h-6.42c-.73,0-1.31-.59-1.31-1.31s.59-1.31,1.31-1.31h6.42c1.9,0,3.45-1.55,3.45-3.45v-52.8c0-1.9-1.55-3.45-3.45-3.45h-6.42c-.73,0-1.31-.59-1.31-1.31s.59-1.31,1.31-1.31h6.42c3.35,0,6.08,2.73,6.08,6.08v52.8c0,3.35-2.73,6.08-6.08,6.08Z"/>
          <path class="cls-16" d="M367.18,142.23c-4.68,0-8.48-3.81-8.48-8.48s3.81-8.48,8.48-8.48,8.48,3.81,8.48,8.48-3.81,8.48-8.48,8.48Zm0-14.34c-3.23,0-5.85,2.63-5.85,5.85s2.63,5.85,5.85,5.85,5.85-2.63,5.85-5.85-2.63-5.85-5.85-5.85Z"/>
          <path class="cls-16" d="M415.44,152.15h-54.69c-.73,0-1.31-.59-1.31-1.31s.59-1.31,1.31-1.31h54.69c.73,0,1.31,.59,1.31,1.31s-.59,1.31-1.31,1.31Z"/>
          <path class="cls-16" d="M390.93,158.29h-30.19c-.73,0-1.31-.59-1.31-1.31s.59-1.31,1.31-1.31h30.19c.73,0,1.31,.59,1.31,1.31s-.59,1.31-1.31,1.31Z"/>
        </g>
        <g>
          <g>
            <rect class="cls-13" x="618.39" y="217.03" width="63.32" height="47.92"/>
            <rect class="cls-5" x="612.61" y="217.03" width="63.32" height="47.92"/>
            <path class="cls-16" d="M672.84,265.76h-56.79c-2.47,0-4.49-2.01-4.49-4.49v-41.54c0-2.47,2.01-4.49,4.49-4.49h56.79c2.47,0,4.49,2.01,4.49,4.49v41.54c0,2.47-2.01,4.49-4.49,4.49Zm-56.79-48.49c-1.35,0-2.45,1.1-2.45,2.45v41.54c0,1.35,1.1,2.45,2.45,2.45h56.79c1.35,0,2.45-1.1,2.45-2.45v-41.54c0-1.35-1.1-2.45-2.45-2.45h-56.79Z"/>
            <path class="cls-16" d="M678.17,265.76h-4.98c-.56,0-1.02-.46-1.02-1.02s.46-1.02,1.02-1.02h4.98c1.51,0,2.7-1.19,2.7-2.7v-41.05c0-1.51-1.19-2.7-2.7-2.7h-4.98c-.56,0-1.02-.46-1.02-1.02s.46-1.02,1.02-1.02h4.98c2.61,0,4.73,2.12,4.73,4.73v41.05c0,2.61-2.12,4.73-4.73,4.73Z"/>
            <path class="cls-16" d="M626.07,236.87c-3.63,0-6.59-2.96-6.59-6.59s2.96-6.59,6.59-6.59,6.59,2.96,6.59,6.59-2.96,6.59-6.59,6.59Zm0-11.15c-2.51,0-4.56,2.04-4.56,4.56s2.04,4.56,4.56,4.56,4.56-2.04,4.56-4.56-2.04-4.56-4.56-4.56Z"/>
            <path class="cls-16" d="M663.62,244.58h-42.53c-.56,0-1.02-.46-1.02-1.02s.46-1.02,1.02-1.02h42.53c.56,0,1.02,.46,1.02,1.02s-.46,1.02-1.02,1.02Z"/>
            <path class="cls-16" d="M644.55,249.39h-23.45c-.56,0-1.02-.46-1.02-1.02s.46-1.02,1.02-1.02h23.45c.56,0,1.02,.46,1.02,1.02s-.46,1.02-1.02,1.02Z"/>
          </g>
          <g>
            <rect class="cls-13" x="618.39" y="103.51" width="63.32" height="47.92"/>
            <rect class="cls-5" x="612.61" y="103.51" width="63.32" height="47.92"/>
            <path class="cls-16" d="M672.84,152.24h-56.79c-2.47,0-4.49-2.01-4.49-4.49v-41.54c0-2.47,2.01-4.49,4.49-4.49h56.79c2.47,0,4.49,2.01,4.49,4.49v41.54c0,2.47-2.01,4.49-4.49,4.49Zm-56.79-48.49c-1.35,0-2.45,1.1-2.45,2.45v41.54c0,1.35,1.1,2.45,2.45,2.45h56.79c1.35,0,2.45-1.1,2.45-2.45v-41.54c0-1.35-1.1-2.45-2.45-2.45h-56.79Z"/>
            <path class="cls-16" d="M678.17,152.24h-4.98c-.56,0-1.02-.46-1.02-1.02s.46-1.02,1.02-1.02h4.98c1.51,0,2.7-1.19,2.7-2.7v-41.05c0-1.51-1.19-2.7-2.7-2.7h-4.98c-.56,0-1.02-.46-1.02-1.02s.46-1.02,1.02-1.02h4.98c2.61,0,4.73,2.12,4.73,4.73v41.05c0,2.61-2.12,4.73-4.73,4.73Z"/>
            <path class="cls-16" d="M626.07,123.35c-3.63,0-6.59-2.96-6.59-6.59s2.96-6.59,6.59-6.59,6.59,2.96,6.59,6.59-2.96,6.59-6.59,6.59Zm0-11.15c-2.51,0-4.56,2.04-4.56,4.56s2.04,4.56,4.56,4.56,4.56-2.04,4.56-4.56-2.04-4.56-4.56-4.56Z"/>
            <path class="cls-16" d="M663.62,131.07h-42.53c-.56,0-1.02-.46-1.02-1.02s.46-1.02,1.02-1.02h42.53c.56,0,1.02,.46,1.02,1.02s-.46,1.02-1.02,1.02Z"/>
            <path class="cls-16" d="M644.55,135.87h-23.45c-.56,0-1.02-.46-1.02-1.02s.46-1.02,1.02-1.02h23.45c.56,0,1.02,.46,1.02,1.02s-.46,1.02-1.02,1.02Z"/>
          </g>
          <g>
            <rect class="cls-13" x="618.08" y="161.53" width="59.95" height="45.37"/>
            <rect class="cls-5" x="612.61" y="161.53" width="59.95" height="45.37"/>
            <path class="cls-16" d="M669.61,207.69h-53.74c-2.35,0-4.26-1.91-4.26-4.26v-39.34c0-2.35,1.91-4.26,4.26-4.26h53.74c2.35,0,4.26,1.91,4.26,4.26v39.34c0,2.35-1.91,4.26-4.26,4.26Zm-53.74-45.93c-1.29,0-2.33,1.05-2.33,2.33v39.34c0,1.29,1.05,2.33,2.33,2.33h53.74c1.29,0,2.33-1.05,2.33-2.33v-39.34c0-1.29-1.05-2.33-2.33-2.33h-53.74Z"/>
            <path class="cls-16" d="M674.66,207.65h-4.7c-.53,0-.96-.43-.96-.96s.43-.96,.96-.96h4.7c1.4,0,2.54-1.14,2.54-2.54v-38.88c0-1.4-1.14-2.54-2.54-2.54h-4.7c-.53,0-.96-.43-.96-.96s.43-.96,.96-.96h4.7c2.46,0,4.47,2,4.47,4.47v38.88c0,2.46-2,4.47-4.47,4.47Z"/>
            <path class="cls-16" d="M625.35,180.31c-3.44,0-6.24-2.8-6.24-6.24s2.8-6.24,6.24-6.24,6.24,2.8,6.24,6.24-2.8,6.24-6.24,6.24Zm0-10.55c-2.38,0-4.31,1.93-4.31,4.31s1.93,4.31,4.31,4.31,4.31-1.93,4.31-4.31-1.93-4.31-4.31-4.31Z"/>
            <path class="cls-16" d="M660.88,187.63h-40.25c-.53,0-.96-.43-.96-.96s.43-.96,.96-.96h40.25c.53,0,.96,.43,.96,.96s-.43,.96-.96,.96Z"/>
            <path class="cls-16" d="M642.86,192.15h-22.23c-.53,0-.96-.43-.96-.96s.43-.96,.96-.96h22.23c.53,0,.96,.43,.96,.96s-.43,.96-.96,.96Z"/>
          </g>
        </g>
        <g>
          <path class="cls-16" d="M169.02,861.54c-.34,0-.67-.13-.92-.4-.48-.51-.45-1.31,.06-1.78,.16-.15,3.97-3.7,9.79-6.76,7.79-4.1,15.45-5.29,22.16-3.46,.67,.18,1.07,.88,.88,1.55s-.88,1.07-1.55,.88c-14.78-4.04-29.4,9.49-29.55,9.62-.24,.23-.55,.34-.86,.34Z"/>
          <path class="cls-16" d="M174.41,866.94c-.34,0-.67-.13-.92-.4-.48-.51-.45-1.31,.06-1.78,.16-.15,3.97-3.7,9.79-6.76,7.79-4.1,15.45-5.29,22.16-3.46,.67,.18,1.07,.88,.88,1.55s-.88,1.07-1.55,.88c-14.75-4.04-29.4,9.49-29.55,9.62-.24,.23-.55,.34-.86,.34Z"/>
          <path class="cls-16" d="M181.18,872.3c-.34,0-.67-.13-.92-.4-.48-.51-.45-1.31,.06-1.78,.16-.15,3.97-3.7,9.79-6.76,7.79-4.1,15.45-5.29,22.16-3.46,.67,.18,1.07,.88,.88,1.55-.18,.67-.88,1.07-1.55,.88-14.76-4.04-29.4,9.49-29.55,9.62-.24,.23-.55,.34-.86,.34Z"/>
        </g>
        <g>
          <path class="cls-16" d="M236.75,856.17c-.34,0-.67-.13-.92-.4-.48-.51-.45-1.31,.06-1.78,.16-.15,3.97-3.7,9.79-6.76,7.79-4.1,15.45-5.29,22.16-3.46,.67,.18,1.07,.88,.88,1.55s-.88,1.07-1.55,.88c-14.76-4.04-29.4,9.49-29.55,9.62-.24,.23-.55,.34-.86,.34Z"/>
          <path class="cls-16" d="M242.15,861.54c-.34,0-.67-.13-.92-.4-.48-.51-.45-1.31,.06-1.78,.16-.15,3.97-3.7,9.79-6.76,7.79-4.1,15.45-5.29,22.16-3.46,.67,.18,1.07,.88,.88,1.55-.18,.67-.88,1.07-1.55,.88-14.78-4.04-29.4,9.49-29.55,9.62-.24,.23-.55,.34-.86,.34Z"/>
          <path class="cls-16" d="M248.88,866.94c-.34,0-.67-.13-.92-.4-.48-.51-.45-1.31,.06-1.78,.16-.15,3.97-3.7,9.79-6.76,7.79-4.1,15.45-5.29,22.16-3.46,.67,.18,1.07,.88,.88,1.55-.18,.67-.88,1.07-1.55,.88-14.76-4.04-29.4,9.49-29.55,9.62-.24,.23-.55,.34-.86,.34Z"/>
        </g>
        <path class="cls-2" d="M217.33,50.92c10.03-1.4,20.12,.95,29.87,3.16,3.3,.74,4.7-4.31,1.4-5.08-10.76-2.45-21.6-4.7-32.64-3.16-1.4,.21-2.17,2-1.82,3.23,.42,1.51,1.82,2.03,3.23,1.82h0l-.04,.04Z"/>
        <path class="cls-16" d="M156.64,83.93c-.38,0-.77-.17-1.02-.49-.46-.57-.37-1.39,.2-1.85,4.33-3.49,26.33-20.73,41.74-23.6,.46-3.95,2.12-19.23,2.12-32.52,0-.53,.32-1.01,.81-1.21,.49-.2,1.06-.09,1.43,.29,.55,.55,12.98,13.11,13.93,24.79,5.16-.23,23.64-.69,34.15,3.89,.64,.28,.95,1.01,.71,1.66-2.5,6.72-8.15,10.82-8.39,10.99-.59,.42-1.41,.29-1.83-.3s-.29-1.41,.3-1.83c.05-.04,4.57-3.33,6.97-8.59-11.76-4.43-32.86-3.14-33.08-3.12-.36,.03-.72-.1-.98-.35-.27-.25-.42-.6-.42-.96,0-8.15-7.24-17.56-11.01-21.89-.27,14.65-2.2,30.3-2.22,30.47-.07,.59-.53,1.05-1.11,1.14-14.76,2.18-37.14,19.72-41.47,23.21-.24,.2-.53,.29-.82,.29Z"/>
        <g>
          <path class="cls-16" d="M249.47,55.74c-.69,0-1.27-.54-1.31-1.23-2.37-37.16-39.94-49.61-40.32-49.74-.69-.22-1.07-.96-.85-1.65,.22-.69,.96-1.07,1.65-.85,.4,.13,39.66,13.1,42.14,52.07,.05,.72-.5,1.35-1.23,1.4-.03,0-.06,0-.08,0Z"/>
          <path class="cls-16" d="M203.93,4.17c-.08,0-.15,0-.23-.02-7.22-1.28-14.33-1.75-21.16-1.42-.74,.03-1.34-.52-1.38-1.25-.04-.73,.52-1.34,1.25-1.38,7.02-.35,14.34,.14,21.75,1.46,.72,.13,1.19,.81,1.07,1.52-.11,.64-.67,1.09-1.29,1.09Z"/>
          <path class="cls-16" d="M164.7,5.72c-.56,0-1.09-.37-1.26-.93-.21-.69,.18-1.43,.88-1.64,3.67-1.11,7.61-1.95,11.71-2.5,.72-.09,1.38,.41,1.48,1.13,.1,.72-.41,1.38-1.13,1.48-3.96,.53-7.76,1.34-11.29,2.41-.13,.04-.26,.06-.38,.06Z"/>
          <path class="cls-16" d="M138.76,21.18c-.29,0-.59-.1-.83-.3-.56-.46-.65-1.29-.19-1.85,.26-.32,6.6-7.96,19.97-13.53,.67-.28,1.44,.04,1.72,.71,.28,.67-.04,1.44-.71,1.72-12.72,5.29-18.88,12.69-18.95,12.77-.26,.32-.64,.48-1.02,.48Z"/>
          <path class="cls-16" d="M81.86,264.2c-.55,0-1.06-.35-1.25-.89-3.34-9.85-4.6-20.3-3.75-31.06,.06-.72,.69-1.26,1.41-1.21,.72,.06,1.26,.69,1.21,1.41-.83,10.4,.39,20.5,3.62,30.01,.23,.69-.14,1.43-.82,1.67-.14,.05-.28,.07-.42,.07Z"/>
          <path class="cls-16" d="M79.13,225.95c-.07,0-.14,0-.21-.02-.72-.12-1.2-.79-1.08-1.51,2.06-12.52,6.8-25.77,14.09-39.39,.99-1.86,1.86-3.71,2.68-5.64,.28-.67,1.06-.98,1.72-.7,.67,.28,.98,1.05,.7,1.72-.85,2-1.76,3.92-2.78,5.85-7.16,13.37-11.81,26.35-13.82,38.58-.11,.64-.66,1.1-1.3,1.1Z"/>
          <path class="cls-16" d="M98.3,174.7c-.14,0-.29-.02-.43-.07-.69-.24-1.05-.99-.81-1.67,9.74-28.2,13.08-70.73,14.06-87.71,.04-.72,.67-1.27,1.39-1.24,.73,.04,1.28,.66,1.24,1.39-.99,17.09-4.35,59.91-14.2,88.42-.19,.54-.7,.89-1.24,.89Z"/>
          <path class="cls-16" d="M112.89,77.41s-.04,0-.05,0c-.73-.03-1.29-.64-1.26-1.37,1.34-33.82,22.65-53.52,22.87-53.72,.54-.49,1.37-.45,1.86,.09,.49,.54,.45,1.37-.09,1.86-.21,.19-20.71,19.2-22.01,51.88-.03,.71-.61,1.26-1.31,1.26Z"/>
        </g>
        <path class="cls-16" d="M220.94,50.92c-.48,0-.88-.39-.88-.88,0-10.59-10.21-21.41-10.31-21.52-.33-.35-.32-.9,.03-1.24,.35-.33,.9-.32,1.24,.03,.44,.46,10.8,11.43,10.8,22.73,0,.48-.39,.88-.88,.88Z"/>
        <path class="cls-16" d="M228.02,51.24c-.48,0-.88-.39-.88-.88,0-5.77-4.27-12.5-4.31-12.57-.26-.41-.14-.95,.27-1.21,.41-.26,.95-.14,1.21,.26,.19,.29,4.59,7.23,4.59,13.52,0,.48-.39,.88-.88,.88Z"/>
        <path class="cls-10" d="M173.96,23.54c-1.72-2.63-4.49-4.38-7.68-4.42-1.54,0-3.09,.42-4.42,1.16-1.3,.7-2.52,1.93-3.19,3.26-.49,.95-.74,1.93-.91,2.94-.63,.39-1.26,.84-1.75,1.37-.98,.98-1.72,2.24-2.1,3.58-.88,3.12,.39,6.59,3.12,8.38,2.45,1.58,5.89,1.4,8.31-.18,1.37-.88,2.49-2.07,3.72-3.09,.56-.39,1.09-.77,1.68-1.12,.35-.18,.67-.35,1.02-.56,.88-.53,1.54-1.16,2.17-1.93,1.05-1.37,1.65-3.16,1.51-4.91-.14-1.58-.53-3.12-1.4-4.45l-.07-.04Z"/>
        <path class="cls-10" d="M144.3,38.58c1.37,.81,3.02,.98,4.45,.28,.7-.35,1.3-.88,1.75-1.51,.42-.6,.7-1.44,.7-2.17,0-.53-.11-1.05-.25-1.54,.21-.32,.39-.67,.49-1.02,.21-.67,.28-1.4,.14-2.1-.32-1.61-1.65-2.87-3.3-3.09-1.47-.18-2.94,.7-3.68,1.96-.42,.7-.67,1.47-.98,2.24-.18,.32-.32,.6-.53,.88-.11,.18-.25,.32-.32,.49-.28,.42-.46,.88-.53,1.37-.18,.84,0,1.79,.42,2.52,.42,.67,.95,1.3,1.65,1.68h-.04Z"/>
        <path class="cls-2" d="M147.31,50.54c2.91,6.1,4.52,12.8,4.66,19.53,.07,3.51-.25,6.98-.81,10.41-.28,1.65-.6,3.3-.91,4.94-.32,1.47-.39,3.96-1.19,5.22l1.58-1.19h-1.33c-1.09,.11-2.14,.42-3.19,.63-3.33,.67-1.93,5.75,1.4,5.08,.88-.18,1.75-.46,2.59-.49,.67-.04,1.26,.07,1.93-.14,2.03-.7,2.31-2.98,2.7-4.8,1.05-4.87,2-9.78,2.38-14.72,.7-9.36-1.19-18.65-5.22-27.1-1.47-3.05-5.99-.39-4.56,2.66h0l-.04-.04Z"/>
        <path class="cls-16" d="M145.81,95.75c-.53,0-1.03-.32-1.23-.85-.26-.68,.08-1.44,.76-1.7,1.94-.74,4.23-1.15,6.8-1.23,8.49-21.28-2.71-45.18-2.82-45.43-.31-.65-.04-1.44,.62-1.75,.65-.31,1.44-.04,1.75,.62,.5,1.04,12.1,25.83,2.55,48.37-.21,.49-.68,.8-1.21,.8-2.62,0-4.89,.36-6.75,1.07-.15,.06-.31,.09-.47,.09Z"/>
        <path class="cls-16" d="M182.02,185.14c-.73,0-1.31-.59-1.31-1.31v-35.34c0-.73,.59-1.31,1.31-1.31s1.31,.59,1.31,1.31v35.34c0,.73-.59,1.31-1.31,1.31Z"/>
        <path class="cls-16" d="M211.75,185.14c-.73,0-1.31-.59-1.31-1.31v-30.78c0-.73,.59-1.31,1.31-1.31s1.31,.59,1.31,1.31v30.78c0,.73-.59,1.31-1.31,1.31Z"/>
      </g>
    </g>
  </g>
</svg>