<?xml version="1.0" encoding="UTF-8"?>
<svg id="Layer_2" data-name="Layer 2" xmlns="http://www.w3.org/2000/svg" xmlns:xlink="http://www.w3.org/1999/xlink" viewBox="0 0 60.2 72.1">
  <defs>
    <style>
      .cls-1 {
        fill: url(#linear-gradient);
      }

      .cls-2, .cls-3, .cls-4 {
        fill: #ff9d23;
      }

      .cls-5, .cls-6, .cls-7 {
        fill: #fff;
      }

      .cls-8 {
        fill: #cec1bc;
      }

      .cls-9, .cls-10 {
        fill: #aa7dff;
      }

      .cls-11, .cls-12, .cls-13 {
        fill: #389bf3;
      }

      .cls-14 {
        fill: #732e54;
      }

      .cls-6 {
        opacity: .3;
      }

      .cls-6, .cls-7, .cls-3, .cls-12, .cls-13, .cls-4, .cls-10 {
        isolation: isolate;
      }

      .cls-7 {
        opacity: .7;
      }

      .cls-3, .cls-12 {
        opacity: .8;
      }

      .cls-13, .cls-4, .cls-10 {
        opacity: .5;
      }
    </style>
    <linearGradient id="linear-gradient" x1="366.08" y1="510.29" x2="367.08" y2="510.29" gradientTransform="translate(-4961.95 3690.39) scale(13.6 -7.1)" gradientUnits="userSpaceOnUse">
      <stop offset=".04" stop-color="#f27b40"/>
      <stop offset="1" stop-color="#ec697d"/>
    </linearGradient>
  </defs>
  <g id="Layer_1-2" data-name="Layer 1">
    <g id="Asset-23">
      <path class="cls-14" d="M23.96,5.45c-.55,0-1-.45-1-1V1c0-.55,.45-1,1-1s1,.45,1,1v3.45c0,.55-.45,1-1,1Z"/>
      <path class="cls-14" d="M12.07,8.2c-.29,0-.58-.13-.78-.37l-2.01-2.49c-.35-.43-.28-1.06,.15-1.41,.43-.35,1.06-.28,1.41,.15l2.01,2.49c.35,.43,.28,1.06-.15,1.41-.18,.15-.41,.22-.63,.22Z"/>
      <path class="cls-14" d="M35.95,8.2c-.22,0-.44-.07-.63-.22-.43-.35-.5-.98-.15-1.41l2-2.49c.35-.43,.98-.5,1.41-.15,.43,.35,.5,.98,.15,1.41l-2,2.49c-.2,.25-.49,.37-.78,.37Z"/>
      <path id="Path" class="cls-12" d="M53.92,31.79l-20.07,13.05c-1.22,.67-2.74,.28-3.49-.88-.75-1.17-.47-2.72,.64-3.55l20-13.05c.79-.51,1.8-.57,2.64-.14,.84,.43,1.39,1.27,1.44,2.22s-.41,1.84-1.2,2.35h.04Z"/>
      <path id="Path-2" data-name="Path" class="cls-3" d="M27.1,49.23l-13.42,8.77c-1.22,.8-2.86,.45-3.66-.78-.8-1.22-.45-2.86,.78-3.65l13.42-8.77c1.22-.8,2.86-.45,3.66,.78,.8,1.22,.45,2.86-.77,3.65h0Z"/>
      <path id="Path-3" data-name="Path" class="cls-9" d="M44.5,28.73l-20.07,13c-.79,.51-1.8,.57-2.64,.14-.84-.43-1.39-1.27-1.44-2.22s.41-1.84,1.2-2.35l20.06-13.01c1.22-.75,2.82-.38,3.6,.82,.78,1.2,.47,2.81-.71,3.62h0Z"/>
      <path id="Path-4" data-name="Path" class="cls-11" d="M17.67,46.16l-13.41,8.73c-1.22,.75-2.82,.38-3.6-.82-.78-1.2-.47-2.81,.71-3.62l13.42-8.72c.79-.51,1.8-.57,2.64-.14,.84,.43,1.39,1.27,1.44,2.22s-.41,1.84-1.2,2.35h0Z"/>
      <path id="Path-5" data-name="Path" class="cls-2" d="M50.55,24.79l-.12,.08c-.79,.52-1.8,.57-2.64,.14-.84-.43-1.39-1.27-1.44-2.22-.05-.94,.4-1.84,1.2-2.36l.13-.08c1.22-.8,2.86-.45,3.66,.77,.8,1.22,.45,2.86-.78,3.66Z"/>
      <path id="Path-6" data-name="Path" class="cls-13" d="M52.9,41.65l-20.07,13.05c-1.21,.62-2.7,.22-3.43-.93-.73-1.15-.47-2.67,.6-3.5l20-13.05c1.22-.8,2.86-.45,3.65,.77,.8,1.22,.45,2.86-.77,3.66h.02Z"/>
      <path id="Path-7" data-name="Path" class="cls-10" d="M26.08,59.09l-13.42,8.72c-1.22,.8-2.86,.45-3.65-.77-.8-1.22-.45-2.86,.77-3.66l13.42-8.72c1.22-.8,2.86-.45,3.65,.78,.8,1.22,.45,2.86-.77,3.65h0Z"/>
      <path id="Path-8" data-name="Path" class="cls-4" d="M59,37.72l-.12,.08c-.79,.51-1.8,.57-2.64,.14-.84-.43-1.39-1.27-1.44-2.22s.41-1.84,1.2-2.35l.12-.08c.79-.51,1.8-.57,2.64-.14,.84,.43,1.39,1.27,1.44,2.22s-.41,1.84-1.2,2.35h0Z"/>
      <path id="Path-9" data-name="Path" class="cls-5" d="M6.59,37.71c1.26,3,3.2,5.66,4.82,8.49,1.62,2.83,3,6,2.81,9.23h19c-.15-3.26,1.18-6.4,2.8-9.23,1.62-2.83,3.56-5.5,4.83-8.49,5.25-12.44-2.85-28.22-17.12-28-14.29-.22-22.37,15.56-17.14,28Z"/>
      <path id="Path-10" data-name="Path" class="cls-8" d="M23.94,9.56V55.28h9.51c-.15-3.26,1.18-6.4,2.8-9.23,1.62-2.83,3.57-5.5,4.83-8.49,5.23-12.44-2.85-28.22-17.14-28Z"/>
      <path class="cls-14" d="M16.16,56.72c-1.44,0-2.66-1.08-2.83-2.52-.37-2.55-1.25-4.97-2.62-7.18-.54-.94-1.1-1.83-1.65-2.73-1.16-1.87-2.36-3.8-3.25-5.9h0c-2.84-6.77-2.03-14.79,2.12-20.93,3.7-5.47,9.5-8.56,15.95-8.46,6.39-.1,12.23,2.98,15.93,8.46,4.15,6.14,4.96,14.16,2.11,20.93-.88,2.11-2.09,4.06-3.26,5.94-.55,.88-1.09,1.76-1.61,2.66-1.4,2.24-2.28,4.66-2.64,7.23-.17,1.44-1.38,2.52-2.87,2.5h-15.39ZM7.65,37.61c.83,1.95,1.93,3.73,3.11,5.62,.57,.91,1.14,1.83,1.67,2.76,1.5,2.41,2.47,5.1,2.88,7.94,.05,.46,.42,.78,.86,.78h15.39c.47,.03,.83-.32,.88-.76,.4-2.87,1.38-5.56,2.91-8,.51-.89,1.06-1.79,1.62-2.69,1.18-1.9,2.29-3.7,3.11-5.66,2.59-6.15,1.85-13.45-1.93-19.04-3.31-4.91-8.56-7.68-14.28-7.58-5.8-.11-10.98,2.67-14.29,7.58-3.78,5.59-4.52,12.88-1.93,19.04Z"/>
      <path id="Path-11" data-name="Path" class="cls-1" d="M16.8,63.78h13.6v.3c0,1.8-.72,3.53-1.99,4.81-1.28,1.28-3,1.99-4.81,1.99h0c-3.76,0-6.8-3.04-6.8-6.8v-.3h0Z"/>
      <path class="cls-14" d="M23.8,72.1c-2.04,0-4.05-.83-5.5-2.27-1.46-1.45-2.3-3.47-2.3-5.53v-1.3h15.63v1.3c0,2.08-.81,4.04-2.28,5.52-1.47,1.47-3.43,2.28-5.52,2.28h-.03Zm-5.75-7.1c.16,1.28,.75,2.5,1.66,3.41,1.09,1.08,2.55,1.67,4.12,1.69,1.55,0,3.01-.6,4.11-1.7,.93-.93,1.5-2.12,1.66-3.4h-11.54Z"/>
      <path class="cls-14" d="M37.34,64.97H9.98c-.55,0-1-.45-1-1s.45-1,1-1h27.36c.55,0,1,.45,1,1s-.45,1-1,1Z"/>
      <path class="cls-14" d="M31.2,61.07H14.84c-.55,0-1-.45-1-1s.45-1,1-1H31.2c.55,0,1,.45,1,1s-.45,1-1,1Z"/>
      <path class="cls-14" d="M43.26,15.86c-.34,0-.67-.17-.86-.48-.29-.47-.13-1.09,.34-1.37l3.7-2.24c.47-.29,1.09-.13,1.37,.34,.29,.47,.13,1.09-.34,1.37l-3.7,2.24c-.16,.1-.34,.14-.52,.14Z"/>
      <path class="cls-14" d="M4.7,15.86c-.18,0-.35-.05-.52-.14L.48,13.48c-.47-.29-.62-.9-.34-1.37,.29-.47,.9-.62,1.37-.34l3.7,2.24c.47,.29,.62,.9,.34,1.37-.19,.31-.52,.48-.86,.48Z"/>
      <path class="cls-14" d="M23.94,56.28c-.55,0-1-.45-1-1v-8.14c0-.55,.45-1,1-1s1,.45,1,1v8.14c0,.55-.45,1-1,1Z"/>
      <path class="cls-14" d="M23.97,48.65l-4.32-6.03c-.32-.45-.22-1.07,.23-1.4,.45-.32,1.07-.22,1.4,.23l2.7,3.77,2.71-3.77c.32-.45,.95-.55,1.4-.23,.45,.32,.55,.95,.23,1.4l-4.33,6.03Z"/>
      <path class="cls-5" d="M34.58,39.27c-.08,0-.17-.02-.25-.07-.24-.14-.32-.44-.19-.68,.38-.66,.7-1.36,.96-2.08,.09-.26,.38-.39,.64-.3,.26,.09,.39,.38,.3,.64-.28,.77-.63,1.52-1.04,2.24-.09,.16-.26,.25-.43,.25Z"/>
      <path class="cls-6" d="M36.68,32.94s-.07,0-.11-.01c-.27-.06-.44-.33-.38-.6,.18-.79,.28-1.61,.31-2.42,0-.28,.26-.51,.52-.48,.28,0,.49,.24,.48,.52-.03,.87-.14,1.75-.33,2.6-.05,.23-.26,.39-.49,.39Z"/>
      <path class="cls-5" d="M37.08,25.88c-.23,0-.44-.16-.49-.39-.87-3.96-3.42-7.35-6.98-9.29-.24-.13-.33-.44-.2-.68,.13-.24,.43-.33,.68-.2,3.82,2.08,6.54,5.71,7.48,9.95,.06,.27-.11,.54-.38,.6-.04,0-.07,.01-.11,.01Z"/>
      <path class="cls-7" d="M14.1,17.44c-.15,0-.3-.07-.4-.2-.17-.22-.13-.53,.09-.7,1.72-1.31,3.74-2.25,5.85-2.7,1.91-.42,3.86-.47,5.8-.14,.27,.05,.46,.3,.41,.58-.05,.27-.31,.46-.58,.41-1.81-.31-3.63-.26-5.42,.14-1.97,.42-3.86,1.3-5.45,2.52-.09,.07-.2,.1-.3,.1Z"/>
      <path class="cls-5" d="M11.09,22.5c-.16,0-.33-.04-.48-.12-.48-.27-.66-.88-.39-1.36,1.13-2.05,2.74-3.85,4.66-5.2,.45-.32,1.07-.21,1.39,.24,.32,.45,.21,1.08-.24,1.39-1.67,1.18-3.07,2.75-4.06,4.54-.18,.33-.52,.52-.88,.52Z"/>
      <path class="cls-5" d="M14.51,40.67c-.23,0-.45-.08-.64-.23-4.94-4.12-6.84-10.73-4.82-16.84,.17-.52,.74-.81,1.26-.64,.52,.17,.81,.74,.64,1.26-1.76,5.33-.11,11.09,4.2,14.68,.42,.35,.48,.98,.13,1.41-.2,.24-.48,.36-.77,.36Z"/>
    </g>
  </g>
</svg>