<?xml version="1.0" encoding="UTF-8"?>
<svg id="Layer_2" data-name="Layer 2" xmlns="http://www.w3.org/2000/svg" xmlns:xlink="http://www.w3.org/1999/xlink" viewBox="0 0 81.61 64.37">
  <defs>
    <style>
      .cls-1 {
        fill: url(#linear-gradient);
      }

      .cls-2, .cls-3, .cls-4 {
        fill: #ff9d23;
      }

      .cls-5 {
        fill: #fff;
      }

      .cls-6 {
        fill: #cec1bc;
      }

      .cls-7, .cls-8 {
        fill: #aa7dff;
      }

      .cls-9, .cls-10, .cls-11 {
        fill: #389bf3;
      }

      .cls-12 {
        fill: #732e54;
      }

      .cls-3, .cls-10 {
        opacity: .8;
      }

      .cls-3, .cls-10, .cls-11, .cls-4, .cls-8 {
        isolation: isolate;
      }

      .cls-11, .cls-4, .cls-8 {
        opacity: .5;
      }

      .cls-13 {
        fill: url(#linear-gradient-3);
      }

      .cls-14 {
        fill: url(#linear-gradient-4);
      }

      .cls-15 {
        fill: url(#linear-gradient-2);
      }

      .cls-16 {
        fill: url(#linear-gradient-5);
      }
    </style>
    <linearGradient id="linear-gradient" x1="184.21" y1="376.55" x2="185.21" y2="376.55" gradientTransform="translate(-5781.56 -2832.73) rotate(90) scale(15.46 -15.46)" gradientUnits="userSpaceOnUse">
      <stop offset=".04" stop-color="#f27b40"/>
      <stop offset="1" stop-color="#ec697d"/>
    </linearGradient>
    <linearGradient id="linear-gradient-2" x1="128.42" y1="396.69" x2="128.42" y2="397.69" gradientTransform="translate(-1176.82 3918.01) scale(9.72 -9.72)" xlink:href="#linear-gradient"/>
    <linearGradient id="linear-gradient-3" x1="128.42" y1="397.69" x2="128.42" y2="396.69" gradientTransform="translate(-1242.59 3883.9) scale(9.72 -9.72)" xlink:href="#linear-gradient"/>
    <linearGradient id="linear-gradient-4" x1="128.42" y1="396.69" x2="128.42" y2="397.69" gradientTransform="translate(-1239.29 3918.01) scale(9.72 -9.72)" xlink:href="#linear-gradient"/>
    <linearGradient id="linear-gradient-5" x1="128.42" y1="397.69" x2="128.42" y2="396.69" gradientTransform="translate(-1172.7 3883.9) scale(9.72 -9.72)" xlink:href="#linear-gradient"/>
  </defs>
  <g id="Layer_1-2" data-name="Layer 1">
    <g id="Asset-26">
      <path id="Path" class="cls-10" d="M63.35,11.86l-20.06,13.05c-.79,.52-1.8,.57-2.64,.14-.84-.43-1.39-1.27-1.44-2.22-.05-.94,.4-1.84,1.2-2.36L60.47,7.48c.79-.51,1.8-.57,2.64-.14,.84,.43,1.39,1.27,1.44,2.22,.05,.94-.41,1.84-1.2,2.35v-.05Z"/>
      <path id="Path-2" data-name="Path" class="cls-3" d="M36.53,29.3l-13.42,8.7c-1.22,.8-2.86,.45-3.66-.78-.8-1.22-.45-2.86,.77-3.65l13.42-8.72c.79-.51,1.8-.57,2.64-.14,.84,.43,1.39,1.27,1.44,2.22s-.41,1.84-1.2,2.35v.02Z"/>
      <path id="Path-3" data-name="Path" class="cls-7" d="M53.93,8.79l-20.07,13.05c-1.22,.7-2.77,.32-3.53-.86-.76-1.18-.47-2.75,.67-3.57L51.07,4.41c.79-.51,1.8-.57,2.64-.14,.84,.43,1.39,1.27,1.44,2.22,.05,.94-.41,1.84-1.2,2.35l-.02-.05Z"/>
      <path id="Path-4" data-name="Path" class="cls-9" d="M27.11,26.23l-13.42,8.77c-.79,.51-1.8,.57-2.64,.14-.84-.43-1.39-1.27-1.44-2.22s.41-1.84,1.2-2.35l13.42-8.77c1.22-.8,2.86-.45,3.66,.78s.45,2.86-.77,3.65h0Z"/>
      <path id="Path-5" data-name="Path" class="cls-2" d="M60,4.86l-.12,.08c-.79,.51-1.8,.57-2.64,.14-.84-.43-1.39-1.27-1.44-2.21s.41-1.84,1.2-2.35l.1-.08c.79-.52,1.8-.57,2.64-.15,.84,.43,1.4,1.27,1.45,2.22,.05,.94-.4,1.85-1.19,2.36h0Z"/>
      <path id="Path-6" data-name="Path" class="cls-11" d="M62.33,21.72l-20.06,13.05c-1.22,.75-2.82,.38-3.6-.82-.78-1.2-.47-2.81,.71-3.62l20.07-13c.79-.51,1.8-.57,2.64-.14,.84,.43,1.39,1.27,1.44,2.22s-.41,1.84-1.2,2.35v-.04Z"/>
      <path id="Path-7" data-name="Path" class="cls-8" d="M35.51,39.16l-13.42,8.72c-1.22,.8-2.86,.45-3.66-.78-.8-1.22-.45-2.86,.77-3.65l13.42-8.73c.79-.58,1.84-.67,2.72-.24,.88,.43,1.45,1.31,1.49,2.29,.03,.98-.48,1.9-1.33,2.39h0Z"/>
      <path id="Path-8" data-name="Path" class="cls-4" d="M68.39,17.79l-.13,.08c-1.22,.7-2.78,.33-3.54-.86-.77-1.18-.47-2.76,.66-3.58l.12-.08c1.22-.75,2.82-.38,3.6,.82,.78,1.2,.47,2.81-.71,3.62h0Z"/>
      <path class="cls-12" d="M70,53.41c-.29-16.38-13.86-29.7-30.24-29.7s-29.94,13.32-30.23,29.7l-2-.04c.31-17.46,14.77-31.66,32.23-31.66s31.92,14.2,32.24,31.66l-2,.04Z"/>
      <rect id="Rectangle" class="cls-1" x="32.16" y="15.19" width="15.46" height="15.46"/>
      <path class="cls-12" d="M48.93,31.96H31.47V14.5h17.46V31.96Zm-15.46-2h13.46v-13.46h-13.46v13.46Z"/>
      <rect class="cls-12" x="9.59" y="22.07" width="22.6" height="2"/>
      <rect class="cls-12" x="48.24" y="22.07" width="22.61" height="2"/>
      <circle id="Oval" class="cls-15" cx="71.42" cy="57.29" r="4.86"/>
      <path class="cls-12" d="M71.21,63.36c-3.23,0-5.86-2.63-5.86-5.86s2.63-5.86,5.86-5.86,5.86,2.63,5.86,5.86-2.63,5.86-5.86,5.86Zm0-9.72c-2.13,0-3.86,1.73-3.86,3.86s1.73,3.86,3.86,3.86,3.86-1.73,3.86-3.86-1.73-3.86-3.86-3.86Z"/>
      <circle id="Oval-2" data-name="Oval" class="cls-13" cx="5.65" cy="23.18" r="4.86"/>
      <path class="cls-12" d="M5.86,28.83c-3.23,0-5.86-2.63-5.86-5.86s2.63-5.86,5.86-5.86,5.86,2.63,5.86,5.86-2.63,5.86-5.86,5.86Zm0-9.72c-2.13,0-3.86,1.73-3.86,3.86s1.73,3.86,3.86,3.86,3.86-1.73,3.86-3.86-1.73-3.86-3.86-3.86Z"/>
      <circle id="Oval-3" data-name="Oval" class="cls-14" cx="8.95" cy="57.29" r="4.86"/>
      <path class="cls-12" d="M8.74,63.36c-3.23,0-5.86-2.63-5.86-5.86s2.63-5.86,5.86-5.86,5.86,2.63,5.86,5.86-2.63,5.86-5.86,5.86Zm0-9.72c-2.13,0-3.86,1.73-3.86,3.86s1.73,3.86,3.86,3.86,3.86-1.73,3.86-3.86-1.73-3.86-3.86-3.86Z"/>
      <circle id="Oval-4" data-name="Oval" class="cls-16" cx="75.54" cy="23.18" r="4.86"/>
      <path class="cls-12" d="M75.75,28.83c-3.23,0-5.86-2.63-5.86-5.86s2.63-5.86,5.86-5.86,5.86,2.63,5.86,5.86-2.63,5.86-5.86,5.86Zm0-9.72c-2.13,0-3.86,1.73-3.86,3.86s1.73,3.86,3.86,3.86,3.86-1.73,3.86-3.86-1.73-3.86-3.86-3.86Z"/>
      <path id="Path-9" data-name="Path" class="cls-5" d="M39.89,27.33c.1-.18,.29-.29,.5-.29s.4,.11,.5,.29l9.67,17.67,9.19,16.86c.18,.3,.14,.68-.08,.94-.22,.27-.59,.36-.92,.24l-17.4-5.7c-.18-.06-.37-.06-.55,0l-17.14,6.5c-.31,.09-.65,0-.86-.24s-.27-.59-.14-.89l8.43-17.26,8.8-18.12Z"/>
      <path id="Path-10" data-name="Path" class="cls-6" d="M59,62.32l-17.4-5.71c-.18-.06-.37-.06-.55,0l-17.15,6.5c-.31,.1-.66,.01-.87-.23-.22-.25-.27-.6-.13-.9l1.54-3.15,16.56-5.64c.18-.07,.39-.07,.57,0l17.15,5.61,1.28,2.35c.17,.3,.13,.67-.09,.93s-.59,.36-.91,.24h0Z"/>
      <path class="cls-12" d="M23.58,64.37c-.53,0-1.03-.22-1.37-.62-.48-.54-.59-1.31-.29-1.97L39.2,26.32c.28-.48,.8-.78,1.36-.78s1.08,.3,1.36,.78l18.85,34.6c.38,.64,.3,1.48-.2,2.07-.5,.59-1.32,.8-2.04,.52l-17.28-5.7-17.06,6.47c-.2,.06-.41,.09-.61,.09ZM40.58,28.04L23.93,62.24l16.69-6.33c.41-.15,.85-.15,1.25,0l16.94,5.59L40.58,28.04Zm18.44,33.85s0,0,0,0h0Zm.18-.28h0s0,0,0,0Zm-17.99-3.83s0,0,0,0h0Z"/>
    </g>
  </g>
</svg>