<?xml version="1.0" encoding="UTF-8"?>
<svg id="Layer_2" data-name="Layer 2" xmlns="http://www.w3.org/2000/svg" xmlns:xlink="http://www.w3.org/1999/xlink" viewBox="0 0 73.94 67.39">
  <defs>
    <style>
      .cls-1 {
        fill: url(#linear-gradient);
      }

      .cls-2, .cls-3, .cls-4 {
        fill: #ff9d23;
      }

      .cls-5 {
        fill: #fff;
      }

      .cls-6, .cls-7 {
        fill: #aa7dff;
      }

      .cls-8, .cls-9, .cls-10 {
        fill: #389bf3;
      }

      .cls-11, .cls-12, .cls-13 {
        fill: #732e54;
      }

      .cls-12 {
        opacity: .2;
      }

      .cls-12, .cls-3, .cls-9, .cls-13, .cls-10, .cls-4, .cls-7 {
        isolation: isolate;
      }

      .cls-3, .cls-9 {
        opacity: .8;
      }

      .cls-13, .cls-10, .cls-4, .cls-7 {
        opacity: .5;
      }
    </style>
    <linearGradient id="linear-gradient" x1="269.95" y1="632.61" x2="269.88" y2="632.67" gradientTransform="translate(-8036.92 30812.17) scale(29.91 -48.65)" gradientUnits="userSpaceOnUse">
      <stop offset=".04" stop-color="#f27b40"/>
      <stop offset="1" stop-color="#ec697d"/>
    </linearGradient>
  </defs>
  <g id="Layer_1-2" data-name="Layer 1">
    <g id="Asset-19">
      <path id="Path" class="cls-9" d="M67.71,23.28l-20.07,13c-1.22,.8-2.86,.45-3.65-.77-.8-1.22-.45-2.86,.77-3.66l20.07-13c1.22-.8,2.86-.45,3.65,.77s.45,2.86-.78,3.66h0Z"/>
      <path id="Path-2" data-name="Path" class="cls-3" d="M40.89,40.72l-13.42,8.72c-1.23,.8-2.86,.45-3.66-.78s-.45-2.86,.78-3.66l13.41-8.71c.79-.51,1.8-.57,2.64-.14,.84,.43,1.39,1.27,1.44,2.22s-.41,1.84-1.2,2.35h0Z"/>
      <path id="Path-3" data-name="Path" class="cls-6" d="M58.29,20.22l-20.07,13c-.79,.51-1.8,.57-2.64,.14s-1.39-1.27-1.44-2.22,.41-1.84,1.2-2.35l20.07-13c1.22-.7,2.78-.33,3.54,.86,.77,1.18,.47,2.76-.66,3.58h0Z"/>
      <path id="Path-4" data-name="Path" class="cls-8" d="M31.47,37.65l-13.42,8.73c-.79,.58-1.84,.67-2.72,.24-.88-.43-1.45-1.31-1.49-2.29s.48-1.9,1.33-2.39l13.42-8.72c1.22-.8,2.86-.45,3.66,.77,.8,1.22,.45,2.86-.78,3.66h0Z"/>
      <path id="Path-5" data-name="Path" class="cls-2" d="M64.34,16.28l-.12,.08c-.79,.51-1.8,.57-2.64,.14s-1.39-1.27-1.44-2.22,.41-1.84,1.2-2.35l.12-.08c1.22-.8,2.86-.45,3.65,.77,.8,1.22,.45,2.86-.77,3.66h0Z"/>
      <path id="Path-6" data-name="Path" class="cls-10" d="M66.69,33.14l-20.07,13c-1.22,.8-2.86,.45-3.65-.77-.8-1.22-.45-2.86,.78-3.66l20.07-13c.79-.51,1.8-.57,2.64-.14,.84,.43,1.39,1.27,1.44,2.22s-.41,1.84-1.2,2.35Z"/>
      <path id="Path-7" data-name="Path" class="cls-7" d="M39.87,50.58l-13.42,8.72c-1.22,.8-2.86,.45-3.66-.77-.8-1.22-.45-2.86,.77-3.66l13.43-8.72c.79-.51,1.8-.57,2.64-.14,.84,.43,1.39,1.27,1.44,2.22s-.41,1.84-1.2,2.35h-.01Z"/>
      <path id="Path-8" data-name="Path" class="cls-4" d="M72.74,29.21l-.12,.08c-1.22,.8-2.86,.45-3.66-.78-.8-1.22-.45-2.86,.78-3.65l.12-.08c.79-.51,1.8-.57,2.64-.14,.84,.43,1.39,1.27,1.44,2.22s-.41,1.84-1.2,2.35Z"/>
      <rect id="Rectangle" class="cls-5" x="1.49" y=".84" width="46.44" height="65.39"/>
      <rect class="cls-11" x="41.69" y="47.98" width="1" height="13.26"/>
      <rect class="cls-13" x="41.69" y="41.76" width="1" height="4.32"/>
      <rect class="cls-12" x="41.69" y="36.58" width="1" height="3.32"/>
      <path class="cls-11" d="M44.44,67.39H4c-2.21,0-4-1.79-4-4V4C0,1.79,1.79,0,4,0H44.44c2.21,0,4,1.79,4,4V63.39c0,2.21-1.79,4-4,4ZM4,2c-1.1,0-2,.9-2,2V63.39c0,1.1,.9,2,2,2H44.44c1.1,0,2-.9,2-2V4c0-1.1-.9-2-2-2H4Z"/>
      <path class="cls-11" d="M36.17,12.08H13.85c-.55,0-1-.45-1-1s.45-1,1-1h22.32c.55,0,1,.45,1,1s-.45,1-1,1Z"/>
      <path class="cls-11" d="M21.17,17.66h-7.32c-.55,0-1-.45-1-1s.45-1,1-1h7.32c.55,0,1,.45,1,1s-.45,1-1,1Z"/>
      <path class="cls-11" d="M21.17,28.83h-7.32c-.55,0-1-.45-1-1s.45-1,1-1h7.32c.55,0,1,.45,1,1s-.45,1-1,1Z"/>
      <path class="cls-11" d="M34.17,23.24H13.85c-.55,0-1-.45-1-1s.45-1,1-1h20.32c.55,0,1,.45,1,1s-.45,1-1,1Z"/>
      <path class="cls-11" d="M34.61,59.82H13.58c-.55,0-1-.45-1-1s.45-1,1-1h21.03c.55,0,1,.45,1,1s-.45,1-1,1Z"/>
      <path id="Path-9" data-name="Path" class="cls-1" d="M51.42,8.6h0c.73,.43,1.27,1.14,1.48,1.97,.21,.83,.08,1.7-.36,2.43L29.13,52.25l-6.05,4.54,.53-7.79L47,9.71c.44-.74,1.15-1.27,1.98-1.48,.83-.21,1.71-.08,2.44,.37h0Z"/>
      <polygon id="Path-10" data-name="Path" class="cls-5" points="29.47 51.16 23.48 55.65 24.01 47.82 29.47 51.16"/>
      <path class="cls-11" d="M21.53,58.99l1.5-11.32L46.03,9.12c1.19-1.99,3.79-2.65,5.78-1.46h0c1.99,1.19,2.64,3.79,1.45,5.78L30.29,51.98l-8.76,7.01Zm3.43-10.65l-.79,5.98,4.58-3.67L51.55,12.42c.62-1.05,.28-2.41-.76-3.04-1.05-.63-2.41-.28-3.04,.77L24.96,48.34Z"/>
    </g>
  </g>
</svg>