<?xml version="1.0" encoding="UTF-8"?>
<svg id="Layer_2" data-name="Layer 2" xmlns="http://www.w3.org/2000/svg" xmlns:xlink="http://www.w3.org/1999/xlink" viewBox="0 0 59.98 68.75">
  <defs>
    <style>
      .cls-1 {
        fill: url(#linear-gradient);
      }

      .cls-2, .cls-3, .cls-4 {
        fill: #ff9d23;
      }

      .cls-5, .cls-6, .cls-7 {
        fill: #fff;
      }

      .cls-8 {
        fill: #cec1bc;
      }

      .cls-9, .cls-10 {
        fill: #aa7dff;
      }

      .cls-11, .cls-12, .cls-13 {
        fill: #389bf3;
      }

      .cls-14 {
        fill: #732e54;
      }

      .cls-6 {
        opacity: .3;
      }

      .cls-6, .cls-3, .cls-12, .cls-13, .cls-4, .cls-10, .cls-7 {
        isolation: isolate;
      }

      .cls-3, .cls-12 {
        opacity: .8;
      }

      .cls-13, .cls-4, .cls-10 {
        opacity: .5;
      }

      .cls-7 {
        opacity: .6;
      }
    </style>
    <linearGradient id="linear-gradient" x1="384.24" y1="630.52" x2="385.24" y2="630.52" gradientTransform="translate(-15039.99 12685.2) scale(39.15 -20.06)" gradientUnits="userSpaceOnUse">
      <stop offset=".04" stop-color="#f27b40"/>
      <stop offset="1" stop-color="#ec697d"/>
    </linearGradient>
  </defs>
  <g id="Layer_1-2" data-name="Layer 1">
    <g id="Asset-18">
      <path id="Path" class="cls-14" d="M13.77,14.77c-.77,.18-1.59,.05-2.27-.37s-1.16-1.09-1.34-1.86L8.06,3.54c-.29-1.58,.71-3.11,2.27-3.47,1.56-.36,3.13,.57,3.57,2.12l2.1,9c.36,1.6-.63,3.2-2.23,3.58Z"/>
      <path id="Path-2" data-name="Path" class="cls-5" d="M38.77,14.68H4.3l1.38-3.88c.1-.31,.39-.51,.72-.51h30.28c.32,0,.61,.2,.72,.51l1.37,3.88Z"/>
      <path id="Path-3" data-name="Path" class="cls-12" d="M53.75,27.88l-20.07,13c-.79,.58-1.84,.67-2.72,.24-.88-.43-1.45-1.31-1.49-2.29-.03-.98,.48-1.9,1.33-2.39l20.07-13c.79-.51,1.8-.57,2.64-.14,.84,.43,1.39,1.28,1.44,2.22s-.41,1.84-1.2,2.36Z"/>
      <path id="Path-4" data-name="Path" class="cls-3" d="M26.93,45.3l-13.42,8.72c-1.22,.8-2.86,.45-3.66-.77-.8-1.22-.45-2.86,.78-3.66l13.42-8.71c1.22-.7,2.78-.33,3.54,.86,.77,1.18,.47,2.76-.66,3.58v-.02Z"/>
      <path id="Path-5" data-name="Path" class="cls-9" d="M44.32,24.79l-20.06,13.09c-1.22,.7-2.78,.33-3.54-.86-.77-1.18-.47-2.76,.66-3.58l20.06-13c.79-.51,1.8-.57,2.64-.14,.84,.43,1.39,1.27,1.44,2.22s-.41,1.84-1.2,2.35v-.08Z"/>
      <path id="Path-6" data-name="Path" class="cls-11" d="M17.5,42.23l-13.42,8.72c-1.22,.8-2.86,.45-3.65-.78-.8-1.22-.45-2.86,.78-3.65l13.42-8.72c.79-.51,1.8-.57,2.64-.14,.84,.43,1.39,1.27,1.44,2.22s-.41,1.84-1.2,2.35h0Z"/>
      <path id="Path-7" data-name="Path" class="cls-2" d="M50.38,20.88l-.13,.08c-1.22,.7-2.78,.33-3.54-.86s-.47-2.76,.66-3.58l.13-.08c1.22-.7,2.78-.33,3.54,.86s.47,2.76-.66,3.58Z"/>
      <path id="Path-8" data-name="Path" class="cls-13" d="M52.73,37.72l-20.07,13c-1.22,.8-2.86,.45-3.66-.78-.8-1.22-.45-2.86,.78-3.65l20.07-13c1.22-.8,2.86-.45,3.66,.78,.8,1.22,.45,2.86-.78,3.65h0Z"/>
      <path id="Path-9" data-name="Path" class="cls-10" d="M25.91,55.15l-13.42,8.73c-1.22,.8-2.86,.45-3.65-.78-.8-1.22-.45-2.86,.77-3.65l13.39-8.73c1.22-.8,2.86-.45,3.66,.78,.8,1.22,.45,2.86-.78,3.65h.03Z"/>
      <path id="Path-10" data-name="Path" class="cls-4" d="M58.78,33.78l-.12,.08c-.79,.51-1.8,.57-2.64,.14-.84-.43-1.39-1.27-1.44-2.21-.05-.94,.41-1.84,1.2-2.35l.12-.08c.79-.51,1.8-.57,2.64-.14s1.39,1.27,1.44,2.22c.05,.94-.41,1.84-1.2,2.35Z"/>
      <path id="Path-11" data-name="Path" class="cls-5" d="M40.41,19.64l-2.9,46.57c-.06,.97-.86,1.73-1.83,1.73H10c-.97,0-1.78-.76-1.84-1.73L5.3,19.64"/>
      <path id="Path-12" data-name="Path" class="cls-8" d="M40,19.45l-2.87,46.57c-.06,.97-.87,1.73-1.84,1.73H9.65c-.97,0-1.78-.76-1.84-1.73l-.73-11.65c3.28,2.12,7.29,2.8,11.09,1.88,4.57-1.13,8.34-4.52,10.78-8.55,2.44-4.03,3.67-8.65,4.57-13.27,.95-4.95,1.55-9.96,1.8-15l4.68,.02Z"/>
      <path class="cls-14" d="M35.3,68.75H9.64c-1.5,0-2.74-1.18-2.84-2.67L3.91,20.52c-.03-.55,.38-1.03,.93-1.06,.54-.05,1.03,.38,1.06,.93l2.89,45.57c.03,.44,.4,.79,.84,.79h25.65c.44,0,.81-.35,.84-.79l2.87-45.57c.04-.55,.51-.96,1.06-.94,.55,.03,.97,.51,.94,1.06l-2.87,45.57c-.1,1.49-1.34,2.66-2.83,2.67Z"/>
      <path class="cls-14" d="M41.64,21.33H2.76c-.5,0-.98-.2-1.34-.55-.35-.35-.55-.84-.55-1.34v-3.2c0-.49,.19-.98,.54-1.34,.35-.36,.84-.56,1.35-.56H41.64c.46,0,.91,.19,1.23,.51,.32,.32,.51,.77,.51,1.23v3.51c0,.46-.19,.91-.51,1.23-.32,.32-.77,.51-1.23,.51ZM2.87,19.33H41.38v-2.99H2.84l.03,2.99Zm38.77-2.99h0Z"/>
      <path class="cls-14" d="M4.69,16.09c-.11,0-.22-.02-.33-.06-.52-.18-.79-.76-.61-1.28l1.38-3.89c.26-.7,.92-1.16,1.65-1.18h12.52c.55,0,1,.45,1,1s-.45,1-1,1H6.96l-1.32,3.73c-.15,.41-.53,.67-.94,.67Z"/>
      <path class="cls-14" d="M39.17,16.09c-.41,0-.8-.26-.94-.67l-1.32-3.73h-12.33c-.55,0-1-.45-1-1s.45-1,1-1h12.5c.75,.01,1.41,.48,1.66,1.16l1.38,3.9c.18,.52-.09,1.09-.61,1.28-.11,.04-.22,.06-.33,.06Z"/>
      <polygon id="Path-13" data-name="Path" class="cls-1" points="41.28 46.92 4.13 46.92 3.13 26.86 42.28 26.86 41.28 46.92"/>
      <path class="cls-14" d="M40.25,48.02H5c-1.1,0-2-.9-2-2l-.9-18.01c-.03-.54,.17-1.08,.55-1.48,.37-.39,.9-.62,1.45-.62H41.11c.54,0,1.07,.23,1.45,.62,.38,.39,.58,.93,.55,1.48l-.9,18.06c0,1.04-.85,1.92-1.94,1.95h-.01ZM4.1,27.91l.9,18.06,35.2,.05,.9-18.11H4.1Z"/>
      <path class="cls-6" d="M12.26,44.37h-1.1c-.28,0-.5-.22-.5-.5s.22-.5,.5-.5h1.1c.28,0,.5,.22,.5,.5s-.22,.5-.5,.5Z"/>
      <path class="cls-5" d="M8.76,44.39h0c-1.1,0-2.01-.87-2.07-1.97l-.26-4.43c-.02-.28,.19-.51,.47-.53,.28,0,.51,.19,.53,.47l.26,4.43c.03,.58,.5,1.03,1.07,1.03,.28,0,.5,.23,.5,.5,0,.28-.23,.5-.5,.5Z"/>
      <path class="cls-7" d="M6.86,36.08c-.27,0-.49-.21-.5-.48l-.06-1.33c-.01-.28,.2-.51,.48-.52,.27-.01,.51,.2,.52,.48l.06,1.33c.01,.28-.2,.51-.48,.52,0,0-.02,0-.02,0Z"/>
      <path class="cls-5" d="M6.69,32.81c-.27,0-.49-.21-.5-.48l-.09-1.89c-.01-.28,.2-.51,.48-.52,.26-.02,.51,.2,.52,.48l.09,1.89c.01,.28-.2,.51-.48,.52,0,0-.02,0-.02,0Z"/>
    </g>
  </g>
</svg>