<?xml version="1.0" encoding="UTF-8"?>
<svg id="Layer_2" data-name="Layer 2" xmlns="http://www.w3.org/2000/svg" xmlns:xlink="http://www.w3.org/1999/xlink" viewBox="0 0 59.78 71.94">
  <defs>
    <style>
      .cls-1 {
        fill: url(#linear-gradient);
      }

      .cls-2, .cls-3, .cls-4 {
        fill: #ff9d23;
      }

      .cls-5, .cls-6, .cls-7 {
        fill: #fff;
      }

      .cls-8 {
        fill: #cec1bc;
      }

      .cls-9, .cls-10 {
        fill: #aa7dff;
      }

      .cls-11, .cls-12, .cls-13 {
        fill: #389bf3;
      }

      .cls-14, .cls-15, .cls-16 {
        fill: #732e54;
      }

      .cls-15 {
        opacity: .2;
      }

      .cls-15, .cls-6, .cls-3, .cls-12, .cls-16, .cls-13, .cls-4, .cls-10, .cls-7 {
        isolation: isolate;
      }

      .cls-6 {
        opacity: .3;
      }

      .cls-3, .cls-12 {
        opacity: .8;
      }

      .cls-16, .cls-13, .cls-4, .cls-10 {
        opacity: .5;
      }

      .cls-7 {
        opacity: .6;
      }
    </style>
    <linearGradient id="linear-gradient" x1="247.98" y1="521.28" x2="248.98" y2="521.28" gradientTransform="translate(-3267.74 15434.1) scale(13.26 -29.5)" gradientUnits="userSpaceOnUse">
      <stop offset=".04" stop-color="#f27b40"/>
      <stop offset="1" stop-color="#ec697d"/>
    </linearGradient>
  </defs>
  <g id="Layer_1-2" data-name="Layer 1">
    <g id="Asset-21">
      <path id="Path" class="cls-12" d="M53.55,24.94l-20.07,13.06c-.79,.51-1.8,.57-2.64,.14s-1.39-1.27-1.44-2.22,.41-1.84,1.2-2.35l20.07-13c1.22-.8,2.86-.45,3.66,.77,.8,1.22,.45,2.86-.78,3.66v-.06Z"/>
      <path id="Path-2" data-name="Path" class="cls-3" d="M26.73,42.38l-13.42,8.72c-.79,.51-1.8,.57-2.64,.14-.84-.43-1.39-1.27-1.44-2.22-.05-.94,.41-1.84,1.2-2.35l13.42-8.73c1.22-.7,2.78-.33,3.54,.86s.47,2.76-.66,3.58h0Z"/>
      <path id="Path-3" data-name="Path" class="cls-9" d="M44.12,21.87l-20.06,13.05c-1.22,.7-2.78,.33-3.54-.86s-.47-2.76,.66-3.58l20.06-13c.79-.51,1.8-.57,2.64-.14s1.39,1.27,1.44,2.22-.41,1.84-1.2,2.35v-.04Z"/>
      <path id="Path-4" data-name="Path" class="cls-11" d="M17.3,39.31L3.88,48c-1.21,.64-2.7,.26-3.45-.88-.75-1.14-.5-2.67,.57-3.52l13.42-8.73c1.22-.7,2.78-.33,3.54,.86s.47,2.76-.66,3.58Z"/>
      <path id="Path-5" data-name="Path" class="cls-2" d="M50.18,17.94l-.13,.08c-1.22,.7-2.78,.33-3.54-.86-.77-1.18-.47-2.76,.66-3.58l.13-.08c1.22-.7,2.78-.33,3.54,.86,.77,1.18,.47,2.76-.66,3.58h0Z"/>
      <path id="Path-6" data-name="Path" class="cls-13" d="M52.53,34.8l-20.07,13c-1.22,.8-2.86,.45-3.66-.77-.8-1.22-.45-2.86,.78-3.66l20.07-13c1.22-.8,2.86-.45,3.66,.77,.8,1.22,.45,2.86-.78,3.65h0Z"/>
      <path id="Path-7" data-name="Path" class="cls-10" d="M25.71,52.23l-13.42,8.77c-.79,.58-1.84,.67-2.72,.24-.88-.43-1.45-1.31-1.49-2.29-.03-.98,.48-1.9,1.33-2.39l13.39-8.76c1.22-.8,2.86-.45,3.66,.78,.8,1.22,.45,2.86-.78,3.65h.03Z"/>
      <path id="Path-8" data-name="Path" class="cls-4" d="M58.58,30.86l-.12,.08c-.79,.51-1.8,.57-2.64,.14-.84-.43-1.39-1.27-1.44-2.22s.41-1.84,1.2-2.35l.12-.08c.79-.51,1.8-.57,2.64-.14,.84,.43,1.39,1.27,1.44,2.21s-.41,1.84-1.2,2.35Z"/>
      <rect id="Rectangle" class="cls-5" x="2.57" y=".39" width="49.06" height="23.54" rx="4.51" ry="4.51"/>
      <path id="Path-9" data-name="Path" class="cls-8" d="M51.37,14.94v4.06c0,2.83-2.29,5.12-5.12,5.12H7.43c-2.83,0-5.12-2.29-5.12-5.12v-4.06c0,1.36,.54,2.66,1.5,3.62,.96,.96,2.26,1.5,3.62,1.5H46.25c2.83,0,5.12-2.29,5.12-5.12Z"/>
      <rect id="Rectangle-2" data-name="Rectangle" class="cls-1" x="20.43" y="41.66" width="13.26" height="29.5" rx="1.73" ry="1.73"/>
      <path class="cls-14" d="M14.08,34.52c-.55,0-.99-.44-1-.99l-.12-8.56c0-.55,.43-1.01,.99-1.01,.53-.03,1.01,.43,1.01,.99l.12,8.56c0,.55-.43,1.01-.99,1.01h-.01Z"/>
      <path class="cls-14" d="M17.85,31.28c-.54,0-.99-.43-1-.98l-.12-5.32c-.01-.55,.42-1.01,.98-1.02,.54-.04,1.01,.42,1.02,.98l.12,5.32c.01,.55-.42,1.01-.98,1.02,0,0-.02,0-.02,0Z"/>
      <circle id="Oval" class="cls-14" cx="14.11" cy="36.84" r="1"/>
      <path class="cls-14" d="M38.88,29.79c-.54,0-.98-.43-1-.97l-.12-3.83c-.02-.55,.42-1.01,.97-1.03,.57-.04,1.01,.42,1.03,.97l.12,3.83c.02,.55-.42,1.01-.97,1.03-.01,0-.02,0-.03,0Z"/>
      <path class="cls-14" d="M42.66,35.82c-.55,0-.99-.44-1-.99l-.12-9.86c0-.55,.44-1.01,.99-1.01,.56,0,1.01,.44,1.01,.99l.12,9.86c0,.55-.44,1.01-.99,1.01h-.01Z"/>
      <circle id="Oval-2" data-name="Oval" class="cls-14" cx="38.82" cy="32.27" r="1"/>
      <path class="cls-6" d="M29.32,68.02h-1.1c-.28,0-.5-.22-.5-.5s.22-.5,.5-.5h1.1c.28,0,.5,.22,.5,.5s-.22,.5-.5,.5Z"/>
      <path class="cls-5" d="M25.83,68.02h-2.99v-7.35c0-.28,.22-.5,.5-.5s.5,.22,.5,.5v6.35h1.99c.28,0,.5,.22,.5,.5s-.22,.5-.5,.5Z"/>
      <path class="cls-7" d="M23.34,57.49c-.28,0-.5-.22-.5-.5v-1.33c0-.28,.22-.5,.5-.5s.5,.22,.5,.5v1.33c0,.28-.22,.5-.5,.5Z"/>
      <path class="cls-5" d="M23.34,52.61c-.28,0-.5-.22-.5-.5v-3.64c0-.28,.22-.5,.5-.5s.5,.22,.5,.5v3.64c0,.28-.22,.5-.5,.5Z"/>
      <path class="cls-14" d="M47.05,25.54H7.01c-3.04,0-5.51-2.47-5.51-5.51V5.51C1.5,2.47,3.97,0,7.01,0H47.05c3.04,0,5.51,2.47,5.51,5.51v14.52c0,3.04-2.47,5.51-5.51,5.51ZM7.01,2c-1.94,0-3.51,1.57-3.51,3.51v14.52c0,1.94,1.57,3.51,3.51,3.51H47.05c1.94,0,3.51-1.57,3.51-3.51V5.51c0-1.94-1.57-3.51-3.51-3.51H7.01Z"/>
      <rect class="cls-14" x="26.03" y="24.43" width="2" height="17.74"/>
      <path class="cls-14" d="M31.93,71.94h-9.8c-1.51,0-2.73-1.22-2.73-2.73v-26.04c0-1.51,1.22-2.73,2.73-2.73h9.8c1.51,0,2.73,1.22,2.73,2.73v26.04c0,1.51-1.22,2.73-2.73,2.73Zm-9.8-29.5c-.4,0-.73,.33-.73,.73v26.04c0,.4,.33,.73,.73,.73h9.8c.4,0,.73-.33,.73-.73v-26.04c0-.4-.33-.73-.73-.73h-9.8Z"/>
      <rect class="cls-14" x="7.45" y="4.59" width="13.26" height="1"/>
      <rect class="cls-16" x="22.61" y="4.59" width="4.32" height="1"/>
      <rect class="cls-15" x="28.79" y="4.59" width="3.31" height="1"/>
    </g>
  </g>
</svg>