<?xml version="1.0" encoding="UTF-8"?>
<svg id="Layer_2" data-name="Layer 2" xmlns="http://www.w3.org/2000/svg" xmlns:xlink="http://www.w3.org/1999/xlink" viewBox="0 0 64.05 71.81">
  <defs>
    <style>
      .cls-1 {
        fill: url(#linear-gradient);
      }

      .cls-1, .cls-2, .cls-3 {
        fill-rule: evenodd;
      }

      .cls-4, .cls-5, .cls-6 {
        fill: #ff9d23;
      }

      .cls-7 {
        fill: #fff;
      }

      .cls-8, .cls-2 {
        fill: #cec1bc;
      }

      .cls-9, .cls-10 {
        fill: #aa7dff;
      }

      .cls-11, .cls-12, .cls-13 {
        fill: #389bf3;
      }

      .cls-14 {
        fill: #732e54;
      }

      .cls-5, .cls-12 {
        opacity: .8;
      }

      .cls-5, .cls-12, .cls-13, .cls-6, .cls-10 {
        isolation: isolate;
      }

      .cls-13, .cls-6, .cls-10 {
        opacity: .5;
      }

      .cls-3 {
        fill: url(#linear-gradient-2);
      }
    </style>
    <linearGradient id="linear-gradient" x1="259.3" y1="410.53" x2="260.3" y2="410.53" gradientTransform="translate(-5865.53 8108.56) scale(22.69 -19.65)" gradientUnits="userSpaceOnUse">
      <stop offset=".04" stop-color="#f27b40"/>
      <stop offset="1" stop-color="#ec697d"/>
    </linearGradient>
    <linearGradient id="linear-gradient-2" x1="264.07" y1="411.8" x2="265.07" y2="411.8" gradientTransform="translate(-7688.43 10724.87) scale(29.24 -25.95)" xlink:href="#linear-gradient"/>
  </defs>
  <g id="Layer_1-2" data-name="Layer 1">
    <g id="Asset-25">
      <path id="Path" class="cls-12" d="M53.75,19.53l-20.07,13c-.79,.51-1.8,.57-2.64,.14-.84-.43-1.39-1.27-1.44-2.21s.41-1.84,1.2-2.35l20.07-13c1.22-.8,2.86-.45,3.66,.77,.8,1.22,.45,2.86-.78,3.66h0Z"/>
      <path id="Path-2" data-name="Path" class="cls-5" d="M26.93,37l-13.42,8.69c-1.22,.8-2.86,.45-3.66-.77-.8-1.22-.45-2.86,.78-3.66l13.42-8.72c1.23-.8,2.87-.44,3.67,.79,.8,1.23,.44,2.87-.79,3.67Z"/>
      <path id="Path-3" data-name="Path" class="cls-9" d="M44.32,16.46l-20.06,13.05c-.79,.51-1.8,.57-2.64,.14-.84-.43-1.39-1.27-1.44-2.22s.41-1.84,1.2-2.35l20.06-13.08c.79-.51,1.8-.57,2.64-.14,.84,.43,1.39,1.27,1.44,2.22s-.41,1.84-1.2,2.35v.03Z"/>
      <path id="Path-4" data-name="Path" class="cls-11" d="M17.5,33.9l-13.42,8.72c-1.22,.8-2.86,.45-3.65-.77-.8-1.22-.45-2.86,.78-3.66l13.42-8.72c.79-.51,1.8-.57,2.64-.14,.84,.43,1.39,1.27,1.44,2.22,.05,.94-.41,1.84-1.2,2.35Z"/>
      <path id="Path-5" data-name="Path" class="cls-4" d="M50.38,12.53l-.13,.08c-.79,.51-1.8,.57-2.64,.14s-1.39-1.27-1.44-2.22,.41-1.84,1.2-2.35l.13-.08c1.22-.8,2.86-.45,3.65,.77,.8,1.22,.45,2.86-.77,3.65h0Z"/>
      <path id="Path-6" data-name="Path" class="cls-13" d="M52.73,29.39l-20.07,13c-.78,.68-1.88,.84-2.83,.42s-1.56-1.35-1.57-2.39c-.01-1.03,.58-1.98,1.51-2.42l20.07-13c1.22-.8,2.86-.45,3.66,.77,.8,1.22,.45,2.86-.78,3.66v-.04Z"/>
      <path id="Path-7" data-name="Path" class="cls-10" d="M25.91,46.83l-13.42,8.72c-.79,.51-1.8,.57-2.64,.14-.84-.43-1.39-1.27-1.44-2.22s.41-1.84,1.2-2.35l13.39-8.73c1.22-.7,2.78-.33,3.54,.86,.77,1.18,.47,2.76-.66,3.58h.03Z"/>
      <path id="Path-8" data-name="Path" class="cls-6" d="M58.78,25.46l-.12,.08c-1.22,.7-2.78,.33-3.54-.86-.77-1.18-.47-2.76,.66-3.58l.12-.1c.79-.58,1.84-.67,2.72-.24,.88,.43,1.45,1.31,1.49,2.29,.03,.98-.48,1.9-1.33,2.39v.02Z"/>
      <rect id="Rectangle" class="cls-7" x="2.05" y="1.36" width="37.52" height="69.81" rx="5.9" ry="5.9"/>
      <path id="Path-9" data-name="Path" class="cls-8" d="M39.63,5.5v62c0,1.27-1.03,2.3-2.3,2.3l-30.62,1.09c-2.38,0-3.48-2.63-4.26-4.75,.61,.23,1.26,.34,1.91,.34h29.64c1.27,0,2.3-1.03,2.3-2.3V2.18c.01-.64-.09-1.27-.3-1.87,2.18,.79,3.63,2.87,3.63,5.19Z"/>
      <circle id="Oval" class="cls-7" cx="16.52" cy="22.51" r="7.67"/>
      <path id="Path-10" data-name="Path" class="cls-2" d="M24.43,22.76c0,4.24-3.43,7.67-7.67,7.67s-7.67-3.43-7.67-7.67c-.01-.68,.08-1.35,.27-2,.9,3.36,3.94,5.69,7.41,5.69s6.51-2.33,7.41-5.69c.17,.65,.26,1.33,.25,2h0Z"/>
      <path class="cls-14" d="M17.22,31.88c-4.78,0-8.67-3.89-8.67-8.67s3.89-8.67,8.67-8.67,8.67,3.89,8.67,8.67-3.89,8.67-8.67,8.67Zm0-15.34c-3.68,0-6.67,2.99-6.67,6.67s2.99,6.67,6.67,6.67,6.67-2.99,6.67-6.67-2.99-6.67-6.67-6.67Z"/>
      <path class="cls-14" d="M36.25,71.81H6.79c-2.77,0-5.03-2.26-5.03-5.03V5.03C1.76,2.26,4.02,0,6.79,0h29.46c2.77,0,5.03,2.26,5.03,5.03v61.75c0,2.77-2.26,5.03-5.03,5.03ZM6.79,2c-1.67,0-3.03,1.36-3.03,3.03v61.75c0,1.67,1.36,3.03,3.03,3.03h29.46c1.67,0,3.03-1.36,3.03-3.03V5.03c0-1.67-1.36-3.03-3.03-3.03H6.79Z"/>
      <path class="cls-14" d="M25.28,7.82H12.83c-.55,0-1-.45-1-1s.45-1,1-1h12.45c.55,0,1,.45,1,1s-.45,1-1,1Z"/>
      <circle id="Oval-2" data-name="Oval" class="cls-14" cx="29.02" cy="6.81" r="1.19"/>
      <path class="cls-14" d="M22.71,60.38c-.55,0-.99-.44-1-.99l-.13-12.84c0-.55,.44-1,.99-1.01,.54,.02,1,.44,1.01,.99l.13,12.84c0,.55-.44,1-.99,1.01h-.01Z"/>
      <path class="cls-14" d="M26.76,56.9c-.55,0-.99-.44-1-.99l-.13-9.36c0-.55,.43-1.01,.99-1.01,.51-.03,1.01,.43,1.01,.99l.13,9.36c0,.55-.43,1.01-.99,1.01h-.01Z"/>
      <circle id="Oval-3" data-name="Oval" class="cls-14" cx="22.75" cy="62.94" r="1"/>
      <path class="cls-14" d="M49.33,55.3c-.54,0-.99-.44-1-.98l-.13-7.76c0-.55,.43-1.01,.98-1.02,.51-.03,1.01,.43,1.02,.98l.13,7.76c0,.55-.43,1.01-.98,1.02h-.02Z"/>
      <path class="cls-14" d="M53.38,58.12c-.55,0-.99-.44-1-.99l-.13-10.58c0-.55,.44-1.01,.99-1.01h.01c.55,0,.99,.44,1,.99l.13,10.58c0,.55-.44,1.01-.99,1.01h-.01Z"/>
      <circle id="Oval-4" data-name="Oval" class="cls-14" cx="49.26" cy="58.04" r="1"/>
      <polygon id="Path-11" data-name="Path" class="cls-1" points="29.36 31.79 35.04 41.61 40.71 51.44 29.36 51.44 18.02 51.44 23.69 41.61 29.36 31.79"/>
      <path class="cls-14" d="M42.92,52.32H16.77l13.07-22.65,13.08,22.65Zm-22.69-2h19.23l-9.62-16.65-9.61,16.65Z"/>
      <polygon id="Path-12" data-name="Path" class="cls-3" points="47.48 25.66 54.78 38.63 62.09 51.61 47.48 51.61 32.85 51.61 40.16 38.63 47.48 25.66"/>
      <path class="cls-14" d="M64.05,52.35H31.39l16.33-28.99,16.33,28.99Zm-29.24-2h25.82l-12.91-22.91-12.91,22.91Z"/>
    </g>
  </g>
</svg>