<?xml version="1.0" encoding="UTF-8"?>
<svg id="Layer_2" data-name="Layer 2" xmlns="http://www.w3.org/2000/svg" viewBox="0 0 78.04 54.8">
  <defs>
    <style>
      .cls-1, .cls-2, .cls-3 {
        fill: #ff9d23;
      }

      .cls-4 {
        fill: #fff;
      }

      .cls-5 {
        fill: #cec1bc;
      }

      .cls-6, .cls-7 {
        fill: #aa7dff;
      }

      .cls-8, .cls-9, .cls-10 {
        fill: #389bf3;
      }

      .cls-11 {
        fill: #732e54;
      }

      .cls-2, .cls-9 {
        opacity: .8;
      }

      .cls-2, .cls-9, .cls-10, .cls-3, .cls-7 {
        isolation: isolate;
      }

      .cls-10, .cls-3, .cls-7 {
        opacity: .5;
      }
    </style>
  </defs>
  <g id="Layer_1-2" data-name="Layer 1">
    <g id="Asset-20">
      <path class="cls-11" d="M61.35,28.62c-.77,0-1.54-.29-2.12-.88-1.17-1.17-1.17-3.07,0-4.24l10.14-10.14c1.17-1.17,3.07-1.17,4.24,0,1.17,1.17,1.17,3.07,0,4.24l-10.14,10.14c-.59,.59-1.35,.88-2.12,.88Z"/>
      <polygon id="Path" class="cls-11" points="78.04 8.93 76.09 16.2 74.14 23.47 68.82 18.15 63.49 12.82 70.77 10.88 78.04 8.93"/>
      <path id="Path-2" data-name="Path" class="cls-9" d="M53.77,11.86l-20.07,13.05c-.79,.51-1.8,.57-2.64,.14-.84-.43-1.39-1.27-1.44-2.22-.05-.94,.41-1.84,1.2-2.35L50.89,7.48c1.22-.8,2.86-.45,3.66,.78,.8,1.22,.45,2.86-.78,3.65v-.05Z"/>
      <path id="Path-3" data-name="Path" class="cls-2" d="M26.95,29.3l-13.42,8.7c-.79,.51-1.8,.57-2.64,.14s-1.39-1.27-1.44-2.22c-.05-.94,.41-1.84,1.2-2.35l13.42-8.72c1.22-.8,2.86-.45,3.66,.77s.45,2.86-.77,3.66v.02Z"/>
      <path id="Path-4" data-name="Path" class="cls-6" d="M44.34,8.79l-20.06,13.05c-.79,.51-1.8,.57-2.64,.14-.84-.43-1.39-1.27-1.44-2.22s.41-1.84,1.2-2.35L41.46,4.41c.79-.51,1.8-.57,2.64-.14,.84,.43,1.39,1.27,1.44,2.22,.05,.94-.41,1.84-1.2,2.35v-.05Z"/>
      <path id="Path-5" data-name="Path" class="cls-8" d="M17.52,26.23l-13.42,8.77c-1.24,.8-2.88,.44-3.68-.8-.8-1.24-.44-2.88,.8-3.68l13.42-8.72c.79-.51,1.8-.57,2.64-.14,.84,.43,1.39,1.27,1.44,2.22s-.41,1.84-1.2,2.35h0Z"/>
      <path id="Path-6" data-name="Path" class="cls-1" d="M50.4,4.86l-.13,.08c-1.22,.8-2.86,.45-3.65-.78-.8-1.22-.45-2.86,.77-3.65l.13-.08c1.22-.8,2.86-.45,3.65,.78,.8,1.22,.45,2.86-.77,3.66h0Z"/>
      <path id="Path-7" data-name="Path" class="cls-10" d="M52.75,21.72l-20.07,13.05c-1.22,.7-2.78,.33-3.54-.86-.77-1.18-.47-2.76,.66-3.58l20.07-13c1.22-.8,2.86-.45,3.66,.77,.8,1.22,.45,2.86-.78,3.66v-.04Z"/>
      <path id="Path-8" data-name="Path" class="cls-7" d="M25.93,39.16l-13.42,8.72c-.79,.51-1.8,.57-2.64,.14-.84-.43-1.39-1.27-1.44-2.22s.41-1.84,1.2-2.35l13.39-8.73c1.22-.7,2.78-.33,3.54,.86s.47,2.76-.66,3.58h.03Z"/>
      <path id="Path-9" data-name="Path" class="cls-3" d="M58.8,17.79l-.12,.08c-1.22,.7-2.78,.33-3.54-.86-.77-1.18-.47-2.76,.66-3.58l.12-.08c.79-.58,1.84-.67,2.72-.24,.88,.43,1.45,1.31,1.49,2.29,.03,.98-.48,1.9-1.33,2.39h0Z"/>
      <path id="Path-10" data-name="Path" class="cls-4" d="M73.66,36.73c0-4.52-1.8-8.86-5-12.06-3.2-3.2-7.54-5-12.06-5-1.79,0-3.57,.28-5.28,.83-2.72-5.97-9.22-9.25-15.64-7.89s-11.03,6.99-11.1,13.55c0,.67,.06,1.34,.16,2-6.83,.66-11.94,6.58-11.59,13.43s6.01,12.23,12.87,12.21h30.83c9.33-.13,16.82-7.74,16.81-17.07h0Z"/>
      <path id="Path-11" data-name="Path" class="cls-5" d="M73.51,37.46c0,9.32-7.48,16.92-16.8,17.06H25.87c-4.27,0-8.25-2.11-10.64-5.65,2.13,1.45,4.64,2.22,7.21,2.22h30.83c6.41-.09,12.23-3.77,15.06-9.53s2.2-12.61-1.64-17.74c4.3,3.21,6.83,8.27,6.82,13.64Z"/>
      <path class="cls-11" d="M25.98,54.8c-7.39,0-13.46-5.77-13.83-13.16-.35-7.06,4.62-13.17,11.48-14.34-.03-.38-.05-.76-.05-1.14,.07-7.1,4.96-13.07,11.89-14.54,6.64-1.41,13.25,1.73,16.37,7.67,1.55-.42,3.14-.63,4.75-.63,4.83,0,9.36,1.88,12.77,5.29,3.41,3.41,5.29,7.95,5.29,12.77h0c.01,9.83-7.97,17.93-17.8,18.07H25.98ZM38.63,13.29c-.91,0-1.82,.09-2.74,.29-6.01,1.27-10.24,6.45-10.31,12.58,0,.6,.05,1.22,.15,1.83l.16,1.05-1.06,.1c-6.31,.61-11.01,6.05-10.69,12.39,.32,6.32,5.51,11.26,11.83,11.26h30.87c8.72-.12,15.82-7.33,15.81-16.07h0c0-4.29-1.67-8.32-4.7-11.36-3.03-3.03-7.07-4.7-11.36-4.7-1.69,0-3.36,.27-4.97,.78l-.85,.27-.37-.81c-2.15-4.73-6.77-7.62-11.78-7.62Z"/>
      <path class="cls-11" d="M35.61,34.53c-.32,0-.64-.15-.83-.44-2.1-3.11-5.6-4.97-9.35-4.97h0c-.55,0-1-.45-1-1s.45-1,1-1h0c4.42,0,8.53,2.19,11.01,5.85,.31,.46,.19,1.08-.27,1.39-.17,.12-.37,.17-.56,.17Z"/>
      <path class="cls-11" d="M46,25.7c-.21,0-.41-.06-.59-.19-.45-.33-.54-.95-.21-1.4,2.48-3.38,6.47-5.41,10.67-5.41h0c.55,0,1,.45,1,1,0,.55-.45,1-1,1-3.56,0-6.95,1.72-9.05,4.59-.2,.27-.5,.41-.81,.41Z"/>
    </g>
  </g>
</svg>