<?xml version="1.0" encoding="UTF-8"?>
<svg id="Layer_2" data-name="Layer 2" xmlns="http://www.w3.org/2000/svg" xmlns:xlink="http://www.w3.org/1999/xlink" viewBox="0 0 71.29 64.92">
  <defs>
    <style>
      .cls-1 {
        fill: url(#linear-gradient);
      }

      .cls-2, .cls-3, .cls-4 {
        fill: #ff9d23;
      }

      .cls-5, .cls-6, .cls-7 {
        fill: #fff;
      }

      .cls-8, .cls-9 {
        fill: #aa7dff;
      }

      .cls-10, .cls-11, .cls-12 {
        fill: #389bf3;
      }

      .cls-13 {
        fill: #732e54;
      }

      .cls-6 {
        opacity: .3;
      }

      .cls-6, .cls-3, .cls-11, .cls-12, .cls-4, .cls-9, .cls-7 {
        isolation: isolate;
      }

      .cls-3, .cls-11 {
        opacity: .8;
      }

      .cls-12, .cls-4, .cls-9 {
        opacity: .5;
      }

      .cls-7 {
        opacity: .6;
      }

      .cls-14 {
        fill: url(#linear-gradient-3);
      }

      .cls-15 {
        fill: url(#linear-gradient-2);
      }

      .cls-16 {
        fill: #cec1bc;
        fill-rule: evenodd;
      }
    </style>
    <linearGradient id="linear-gradient" x1="134.95" y1="514.95" x2="135.95" y2="514.95" gradientTransform="translate(-1512.37 29361.33) scale(11.59 -56.95)" gradientUnits="userSpaceOnUse">
      <stop offset=".04" stop-color="#f27b40"/>
      <stop offset="1" stop-color="#ec697d"/>
    </linearGradient>
    <linearGradient id="linear-gradient-2" x1="134.88" y1="514.19" x2="135.88" y2="514.19" gradientTransform="translate(-1526.67 20610.53) scale(11.57 -40)" xlink:href="#linear-gradient"/>
    <linearGradient id="linear-gradient-3" x1="135.13" y1="512.85" x2="136.13" y2="512.85" gradientTransform="translate(-1557.2 13538.53) scale(11.64 -26.3)" xlink:href="#linear-gradient"/>
  </defs>
  <g id="Layer_1-2" data-name="Layer 1">
    <g id="Asset-22">
      <path id="Path" class="cls-11" d="M53.77,11.86l-20.07,13.05c-.79,.51-1.8,.57-2.64,.14-.84-.43-1.39-1.27-1.44-2.22-.05-.94,.41-1.84,1.2-2.35L50.89,7.48c1.22-.8,2.86-.45,3.66,.78,.8,1.22,.45,2.86-.78,3.65v-.05Z"/>
      <path id="Path-2" data-name="Path" class="cls-3" d="M26.95,29.3l-13.42,8.7c-.79,.51-1.8,.57-2.64,.14s-1.39-1.27-1.44-2.22c-.05-.94,.41-1.84,1.2-2.35l13.42-8.72c1.22-.8,2.86-.45,3.66,.77s.45,2.86-.77,3.66v.02Z"/>
      <path id="Path-3" data-name="Path" class="cls-8" d="M44.34,8.79l-20.06,13.05c-.79,.51-1.8,.57-2.64,.14-.84-.43-1.39-1.27-1.44-2.22s.41-1.84,1.2-2.35L41.46,4.41c.79-.51,1.8-.57,2.64-.14,.84,.43,1.39,1.27,1.44,2.22,.05,.94-.41,1.84-1.2,2.35v-.05Z"/>
      <path id="Path-4" data-name="Path" class="cls-10" d="M17.52,26.23l-13.42,8.77c-1.24,.8-2.88,.44-3.68-.8-.8-1.24-.44-2.88,.8-3.68l13.42-8.72c.79-.51,1.8-.57,2.64-.14,.84,.43,1.39,1.27,1.44,2.22s-.41,1.84-1.2,2.35h0Z"/>
      <path id="Path-5" data-name="Path" class="cls-2" d="M50.4,4.86l-.13,.08c-1.22,.8-2.86,.45-3.65-.78-.8-1.22-.45-2.86,.77-3.65l.13-.08c1.22-.8,2.86-.45,3.65,.78,.8,1.22,.45,2.86-.77,3.66h0Z"/>
      <path id="Path-6" data-name="Path" class="cls-12" d="M52.75,21.72l-20.07,13.05c-1.22,.7-2.78,.33-3.54-.86-.77-1.18-.47-2.76,.66-3.58l20.07-13c1.22-.8,2.86-.45,3.66,.77,.8,1.22,.45,2.86-.78,3.66v-.04Z"/>
      <path id="Path-7" data-name="Path" class="cls-9" d="M25.93,39.16l-13.42,8.72c-.79,.51-1.8,.57-2.64,.14-.84-.43-1.39-1.27-1.44-2.22s.41-1.84,1.2-2.35l13.39-8.73c1.22-.7,2.78-.33,3.54,.86s.47,2.76-.66,3.58h.03Z"/>
      <path id="Path-8" data-name="Path" class="cls-4" d="M58.8,17.79l-.12,.08c-1.22,.7-2.78,.33-3.54-.86-.77-1.18-.47-2.76,.66-3.58l.12-.08c.79-.58,1.84-.67,2.72-.24,.88,.43,1.45,1.31,1.49,2.29,.03,.98-.48,1.9-1.33,2.39h0Z"/>
      <path class="cls-13" d="M16.99,60.71c-.38,0-.74-.21-.91-.58-.23-.5-.01-1.1,.49-1.33l38.56-17.82c.5-.23,1.1-.01,1.33,.49,.23,.5,.01,1.1-.49,1.33L17.41,60.62c-.14,.06-.28,.09-.42,.09Z"/>
      <rect id="Rectangle" class="cls-5" x="33.88" y="21.16" width="11.57" height="38.38"/>
      <rect id="Rectangle-2" data-name="Rectangle" class="cls-1" x="51.74" y="6.25" width="11.59" height="56.95"/>
      <path class="cls-13" d="M64.92,64.92h-14.89V5.97h14.89v58.95Zm-12.89-2h10.89V7.97h-10.89V62.92Z"/>
      <rect id="Rectangle-3" data-name="Rectangle" class="cls-15" x="33.91" y="22.97" width="11.57" height="40"/>
      <path class="cls-13" d="M47.06,64.92h-14.89V21.06h14.89v43.86Zm-12.89-2h10.89V23.06h-10.89V62.92Z"/>
      <rect id="Rectangle-4" data-name="Rectangle" class="cls-14" x="15.74" y="37.4" width="11.64" height="26.3"/>
      <path class="cls-13" d="M29.21,64.91H14.32v-28.3h14.89v28.3Zm-12.89-2h10.89v-24.3h-10.89v24.3Z"/>
      <circle id="Oval" class="cls-5" cx="63.42" cy="7.85" r="6.3"/>
      <path id="Path-9" data-name="Path" class="cls-16" d="M69.91,8.06c.09,2.31-1.09,4.48-3.07,5.66-1.99,1.18-4.46,1.18-6.44,0s-3.16-3.36-3.07-5.66c0-.55,.07-1.09,.22-1.62,.74,2.75,3.23,4.67,6.09,4.67s5.35-1.91,6.08-4.67c.13,.53,.2,1.07,.2,1.62Z"/>
      <path class="cls-13" d="M63.99,15.73c-4.02,0-7.3-3.27-7.3-7.3s3.27-7.3,7.3-7.3,7.3,3.27,7.3,7.3-3.27,7.3-7.3,7.3Zm0-12.6c-2.92,0-5.3,2.38-5.3,5.3s2.38,5.3,5.3,5.3,5.3-2.38,5.3-5.3-2.38-5.3-5.3-5.3Z"/>
      <circle id="Oval-2" data-name="Oval" class="cls-5" cx="16.12" cy="37.23" r="6.3"/>
      <path id="Path-10" data-name="Path" class="cls-16" d="M22.62,37.44c0,3.48-2.82,6.3-6.3,6.3s-6.3-2.82-6.3-6.3c0-.55,.07-1.09,.23-1.62,.73,2.76,3.23,4.68,6.08,4.68s5.35-1.92,6.08-4.68c.14,.53,.21,1.07,.21,1.62Z"/>
      <path class="cls-13" d="M16.7,45.1c-4.02,0-7.3-3.27-7.3-7.3s3.27-7.3,7.3-7.3,7.3,3.27,7.3,7.3-3.27,7.3-7.3,7.3Zm0-12.6c-2.92,0-5.3,2.38-5.3,5.3s2.38,5.3,5.3,5.3,5.3-2.38,5.3-5.3-2.38-5.3-5.3-5.3Z"/>
      <path class="cls-6" d="M59.73,60.9h-.97c-.28,0-.5-.22-.5-.5s.22-.5,.5-.5h.97c.28,0,.5,.22,.5,.5s-.22,.5-.5,.5Z"/>
      <path class="cls-5" d="M56.65,60.9h-2.69v-6.55c0-.28,.22-.5,.5-.5s.5,.22,.5,.5v5.55h1.69c.28,0,.5,.22,.5,.5s-.22,.5-.5,.5Z"/>
      <path class="cls-7" d="M54.46,51.61c-.28,0-.5-.22-.5-.5v-1.16c0-.28,.22-.5,.5-.5s.5,.22,.5,.5v1.16c0,.28-.22,.5-.5,.5Z"/>
      <path class="cls-5" d="M54.46,47.31c-.28,0-.5-.22-.5-.5v-3.21c0-.28,.22-.5,.5-.5s.5,.22,.5,.5v3.21c0,.28-.22,.5-.5,.5Z"/>
    </g>
  </g>
</svg>