<?xml version="1.0" encoding="UTF-8"?>
<svg id="Layer_2" data-name="Layer 2" xmlns="http://www.w3.org/2000/svg" xmlns:xlink="http://www.w3.org/1999/xlink" viewBox="0 0 94.03 70.25">
  <defs>
    <style>
      .cls-1 {
        fill: url(#linear-gradient);
      }

      .cls-2, .cls-3, .cls-4 {
        fill: #ff9d23;
      }

      .cls-5, .cls-6, .cls-7 {
        fill: #fff;
      }

      .cls-8 {
        fill: #cec1bc;
      }

      .cls-9, .cls-10 {
        fill: #aa7dff;
      }

      .cls-11, .cls-12, .cls-13 {
        fill: #389bf3;
      }

      .cls-14 {
        fill: #732e54;
      }

      .cls-6 {
        opacity: .3;
      }

      .cls-6, .cls-7, .cls-3, .cls-12, .cls-13, .cls-4, .cls-10 {
        isolation: isolate;
      }

      .cls-7 {
        opacity: .7;
      }

      .cls-3, .cls-12 {
        opacity: .8;
      }

      .cls-13, .cls-4, .cls-10 {
        opacity: .5;
      }
    </style>
    <linearGradient id="linear-gradient" x1="421.85" y1="412.85" x2="422.85" y2="412.85" gradientTransform="translate(-23578.81 23161.49) scale(55.94 -56)" gradientUnits="userSpaceOnUse">
      <stop offset=".04" stop-color="#f27b40"/>
      <stop offset="1" stop-color="#ec697d"/>
    </linearGradient>
  </defs>
  <g id="Layer_1-2" data-name="Layer 1">
    <g id="Asset-24">
      <path id="Path" class="cls-5" d="M46.81,26.83h42.55c1.82,0,3.29,1.47,3.29,3.29v34.32c0,1.82-1.47,3.29-3.29,3.29H46.81c-1.86,0-3.37-1.51-3.37-3.37V30.2c0-1.86,1.51-3.37,3.37-3.37Z"/>
      <path id="Path-2" data-name="Path" class="cls-8" d="M92.34,29.39v34.81c0,1.69,.83,3-.85,3H46.26c-1.47,0-2.75-1.02-3.06-2.46,.23,.09,.47,.16,.71,.18h43c.8,0,1.58-.32,2.14-.9,.56-.57,.87-1.35,.86-2.15V27.01c.02-.2,.02-.39,0-.59,1.42,.27,2.44,1.52,2.43,2.97Z"/>
      <path id="Path-3" data-name="Path" class="cls-12" d="M58.4,12.83l-21.84,14.19c-.86,.56-1.95,.62-2.87,.15-.91-.47-1.51-1.38-1.57-2.41s.44-2,1.3-2.56l21.83-14.19c1.33-.77,3.02-.37,3.86,.92,.84,1.29,.52,3-.72,3.9Z"/>
      <path id="Path-4" data-name="Path" class="cls-3" d="M29.21,31.8l-14.6,9.49c-1.33,.77-3.02,.37-3.86-.92s-.52-3,.72-3.9l14.61-9.49c1.33-.86,3.11-.49,3.98,.85,.86,1.33,.49,3.11-.85,3.97h0Z"/>
      <path id="Path-5" data-name="Path" class="cls-9" d="M48.14,9.49l-21.83,14.2c-.86,.56-1.96,.62-2.88,.15-.92-.47-1.52-1.39-1.57-2.41s.44-2.01,1.31-2.57L45.01,4.67c.86-.56,1.95-.62,2.87-.15,.91,.47,1.51,1.38,1.57,2.41s-.44,2-1.3,2.56h0Z"/>
      <path id="Path-6" data-name="Path" class="cls-11" d="M18.96,28.46l-14.61,9.46c-1.33,.79-3.05,.39-3.89-.91-.84-1.3-.51-3.03,.76-3.92l14.6-9.49c1.33-.77,3.02-.37,3.86,.92,.84,1.29,.52,3-.72,3.9v.04Z"/>
      <path id="Path-7" data-name="Path" class="cls-2" d="M54.73,5.21l-.13,.08c-.86,.63-2,.73-2.95,.26-.96-.47-1.58-1.42-1.62-2.48-.04-1.06,.51-2.06,1.43-2.6l.13-.08c1.33-.77,3.02-.37,3.86,.92s.52,3-.72,3.9h0Z"/>
      <path id="Path-8" data-name="Path" class="cls-13" d="M57.29,23.56l-21.84,14.19c-.86,.56-1.96,.62-2.88,.15-.92-.47-1.52-1.39-1.57-2.41-.05-1.03,.44-2.01,1.31-2.57l21.84-14.2c1.33-.87,3.12-.49,3.98,.85,.87,1.33,.49,3.12-.84,3.98h0Z"/>
      <path id="Path-9" data-name="Path" class="cls-10" d="M28.1,42.53l-14.6,9.49c-.86,.63-2,.73-2.95,.26-.96-.47-1.58-1.42-1.62-2.48-.04-1.06,.51-2.06,1.43-2.6l14.61-9.49c1.33-.86,3.11-.49,3.98,.84,.86,1.33,.49,3.11-.84,3.98h0Z"/>
      <path id="Path-10" data-name="Path" class="cls-4" d="M63.91,19.27l-.13,.09c-.86,.63-2,.73-2.95,.26-.96-.47-1.58-1.42-1.62-2.48-.04-1.06,.51-2.06,1.43-2.6l.14-.09c.86-.56,1.95-.62,2.87-.15,.91,.47,1.51,1.38,1.56,2.41,.05,1.03-.44,2-1.3,2.56h0Z"/>
      <path class="cls-14" d="M89.81,68.85H45c-1.2,0-2.18-.98-2.18-2.18V28.13c-.01-.56,.21-1.13,.62-1.55,.41-.42,.98-.66,1.56-.66h44.81c2.33,0,4.22,1.89,4.22,4.22v34.49c0,2.33-1.89,4.22-4.22,4.22ZM45,27.92s-.1,.02-.13,.05c-.03,.03-.05,.08-.05,.13v38.56c0,.1,.08,.18,.18,.18h44.81c1.22,0,2.22-1,2.22-2.22V30.14c0-1.22-1-2.22-2.22-2.22H45Z"/>
      <path class="cls-14" d="M93.02,35.71h-13.03c-.55,0-1-.45-1-1s.45-1,1-1h13.03c.55,0,1,.45,1,1s-.45,1-1,1Z"/>
      <path class="cls-14" d="M59.78,35.71h-15.96c-.55,0-1-.45-1-1s.45-1,1-1h15.96c.55,0,1,.45,1,1s-.45,1-1,1Z"/>
      <path id="Shape" class="cls-1" d="M71.46,36.33h-2.22c-1.85-.04-3.33-1.56-3.33-3.41,0-.92,.4-1.8,1.09-2.41l1.43-1.4c.68-.67,1.07-1.58,1.07-2.54s-.38-1.87-1.07-2.54l-3.25-3.22c-1.43-1.36-3.67-1.36-5.1,0l-1.37,1.37c-.63,.71-1.53,1.12-2.48,1.12-1.85,.01-3.38-1.46-3.43-3.31v-2.23c.01-1.99-1.58-3.62-3.57-3.66h-4.42c-1.99,.04-3.58,1.67-3.56,3.66v2.22c-.05,1.85-1.57,3.31-3.42,3.3-.92,0-1.8-.39-2.42-1.08l-1.41-1.39c-.69-.66-1.61-1.02-2.56-1-.94,0-1.85,.35-2.54,1l-3.28,3.2c-1.4,1.4-1.4,3.68,0,5.08l1.37,1.36c.71,.63,1.12,1.52,1.13,2.47,0,1.85-1.47,3.37-3.32,3.41h-2.22c-.96-.01-1.89,.36-2.58,1.03-.69,.67-1.08,1.59-1.09,2.56v4.43c.05,1.98,1.69,3.56,3.67,3.53h2.22c1.85,.05,3.32,1.57,3.32,3.42,0,.94-.42,1.84-1.13,2.46l-1.37,1.36c-1.4,1.4-1.4,3.67,0,5.07l3.29,3.19c.68,.66,1.6,1.02,2.55,1,.95,0,1.86-.35,2.55-1l1.41-1.4c.61-.67,1.47-1.06,2.38-1.06,1.85-.01,3.38,1.46,3.43,3.31v2.21c-.02,1.99,1.58,3.63,3.57,3.66h4.43c1.99-.04,3.58-1.67,3.56-3.66v-2.22c.04-1.38,.91-2.61,2.21-3.09s2.76-.13,3.69,.9l1.37,1.37c1.43,1.36,3.67,1.36,5.1,0l3.25-3.24c1.4-1.4,1.4-3.68,0-5.08l-1.43-1.41c-.69-.61-1.08-1.48-1.07-2.4,0-1.85,1.47-3.37,3.32-3.41h2.22c.93,0,1.81-.38,2.45-1.05,.64-.67,.98-1.57,.94-2.49v-4.4c.07-.93-.26-1.85-.9-2.54-.64-.68-1.54-1.06-2.48-1.05h0Zm-24.44,17.42c-4.72,0-8.97-2.83-10.78-7.19-1.81-4.36-.81-9.37,2.52-12.71,3.33-3.34,8.35-4.34,12.71-2.53,4.36,1.8,7.2,6.06,7.2,10.77,0,6.44-5.21,11.65-11.65,11.66h0Z"/>
      <path id="Path-11" data-name="Path" class="cls-5" d="M58.39,41.18c0,6.35-5.08,11.53-11.43,11.66-4.74,.09-9.06-2.69-10.94-7.04-1.88-4.35-.94-9.4,2.38-12.78,3.32-3.38,8.35-4.42,12.73-2.63,4.39,1.79,7.25,6.06,7.25,10.79h0Z"/>
      <path id="Path-12" data-name="Path" class="cls-5" d="M58.21,42.4c0,.46-.03,.93-.09,1.39-.64-5.78-5.53-10.15-11.34-10.15s-10.7,4.37-11.34,10.15c-.06-.46-.09-.93-.09-1.39,0-6.31,5.12-11.43,11.43-11.43s11.43,5.12,11.43,11.43h0Z"/>
      <path id="Path-13" data-name="Path" class="cls-8" d="M35.43,40.55c0-.46,.03-.93,.09-1.39,.64,5.78,5.53,10.15,11.34,10.15s10.7-4.37,11.34-10.15c.06,.46,.09,.93,.09,1.39,0,6.31-5.12,11.43-11.43,11.43s-11.43-5.12-11.43-11.43h0Z"/>
      <path class="cls-14" d="M44.84,70.25c-2.55-.04-4.59-2.14-4.57-4.67v-2.2c-.04-1.26-1.12-2.31-2.41-2.31,0,0-.02,0-.02,0-.64,0-1.25,.27-1.67,.75l-1.45,1.44c-.9,.84-2.04,1.29-3.23,1.29-.03,0-.07,0-.11,0-1.17,0-2.29-.45-3.16-1.28l-3.29-3.2c-1.79-1.8-1.79-4.71-.01-6.49l1.37-1.36c.55-.48,.84-1.12,.83-1.79,0-1.3-1.05-2.38-2.34-2.41h-2.25c-2.48,0-4.56-2.01-4.62-4.52v-4.46c.05-2.53,2.11-4.55,4.62-4.55h2.27c1.28-.03,2.33-1.11,2.32-2.4,0-.65-.3-1.28-.79-1.71l-1.42-1.41c-1.78-1.79-1.78-4.7,0-6.48l3.29-3.22c.89-.84,2.03-1.27,3.26-1.29,1.16-.03,2.37,.44,3.23,1.28l1.42,1.41c.47,.51,1.08,.79,1.72,.79h.02c1.29,0,2.37-1.05,2.41-2.34v-2.19c-.03-2.52,2-4.61,4.53-4.65h4.44c2.54,.04,4.58,2.13,4.57,4.66v2.22c.04,1.26,1.12,2.31,2.41,2.31h.02c.67,0,1.29-.28,1.73-.78l1.41-1.42c1.83-1.75,4.68-1.74,6.5-.02l3.26,3.23c.86,.86,1.35,2.04,1.35,3.25s-.49,2.4-1.35,3.25l-1.44,1.41c-.52,.45-.79,1.05-.79,1.68,0,1.31,1.05,2.39,2.35,2.41h2.2c1.18-.02,2.35,.49,3.18,1.36,.82,.87,1.25,2.06,1.18,3.25v4.38c.05,1.15-.39,2.33-1.21,3.19-.82,.86-1.98,1.35-3.17,1.35h-2.22c-1.28,.04-2.3,1.09-2.3,2.41,0,.64,.27,1.25,.74,1.67l1.46,1.43c1.79,1.8,1.79,4.71,0,6.5l-3.21,3.24c-1.84,1.75-4.68,1.75-6.5,.02l-1.39-1.39c-.7-.77-1.72-1.02-2.64-.68-.92,.34-1.54,1.2-1.56,2.19v2.19c.03,2.52-2,4.61-4.53,4.66h-4.45Zm-6.97-11.18c2.35,0,4.33,1.91,4.4,4.28v2.24c-.01,1.45,1.15,2.64,2.59,2.66h4.41c1.41-.03,2.57-1.22,2.55-2.65v-2.22c.04-1.83,1.17-3.41,2.86-4.04,1.7-.63,3.58-.17,4.79,1.18l1.33,1.33c1.03,.98,2.66,.97,3.7-.02l3.19-3.22c1.01-1.01,1.01-2.66,0-3.67l-1.42-1.39c-.86-.77-1.38-1.92-1.37-3.13,0-2.4,1.87-4.34,4.27-4.41h2.25c.65,0,1.28-.27,1.73-.74,.45-.47,.69-1.11,.66-1.76v-4.48c.04-.71-.19-1.35-.64-1.82-.44-.47-1.06-.73-1.71-.73h-2.24c-2.4-.05-4.34-2.03-4.33-4.41,0-1.21,.52-2.36,1.43-3.15l1.39-1.36c.48-.48,.76-1.15,.76-1.83s-.28-1.35-.76-1.84l-3.25-3.22c-1.03-.98-2.66-.98-3.71,.01l-1.35,1.35c-.77,.88-1.95,1.41-3.18,1.41h-.04c-2.36,0-4.33-1.91-4.4-4.28v-2.26c0-1.44-1.15-2.63-2.59-2.65h-4.4c-1.41,.02-2.57,1.21-2.55,2.64v2.23c-.07,2.4-2.05,4.31-4.41,4.31h-.03c-1.2,0-2.35-.52-3.15-1.41l-1.37-1.36c-.48-.46-1.15-.7-1.83-.71-.73,0-1.38,.25-1.88,.73l-3.27,3.2c-1,1-1,2.64,0,3.65l1.37,1.37c.87,.76,1.41,1.93,1.42,3.16,.01,2.39-1.91,4.37-4.3,4.42h-2.24c-1.44-.02-2.64,1.13-2.67,2.57v4.41c.03,1.4,1.21,2.54,2.63,2.54h2.26c2.4,.06,4.33,2.04,4.32,4.41,0,1.24-.53,2.43-1.47,3.25l-1.32,1.32c-1,1-1,2.65,0,3.65l3.28,3.19c.49,.47,1.14,.71,1.83,.72,.75,.02,1.38-.25,1.88-.73l1.39-1.38c.76-.86,1.91-1.37,3.11-1.37,.02,0,.03,0,.05,0Z"/>
      <path class="cls-14" d="M47.05,53.3c-.07,0-.13,0-.2,0-6.72-.11-12.17-5.67-12.14-12.39,.03-6.72,5.52-12.24,12.24-12.29,6.87,.13,12.44,5.81,12.44,12.66v.03c-.19,6.65-5.7,11.99-12.33,11.99Zm-.11-22.68c-5.6,.05-10.2,4.67-10.23,10.3-.02,5.63,4.54,10.29,10.17,10.38,5.65,.08,10.33-4.41,10.5-10.03,0-5.76-4.69-10.53-10.45-10.65Zm11.45,10.66h0Z"/>
      <path class="cls-5" d="M59.91,50.22c-.08,0-.17-.02-.24-.06-.24-.13-.33-.44-.19-.68,.37-.66,.7-1.36,.97-2.08,.1-.26,.39-.39,.64-.29,.26,.1,.39,.38,.29,.64-.29,.76-.63,1.51-1.03,2.22-.09,.16-.26,.25-.44,.25Z"/>
      <path class="cls-6" d="M62.02,43.93s-.07,0-.1-.01c-.27-.06-.44-.32-.39-.59,.17-.8,.27-1.62,.31-2.43,.01-.28,.25-.49,.52-.47,.28,.01,.49,.25,.48,.52-.04,.87-.15,1.74-.33,2.59-.05,.24-.26,.4-.49,.4Z"/>
      <path class="cls-5" d="M62.43,36.83c-.23,0-.44-.16-.49-.39-.88-3.96-3.42-7.35-6.99-9.29-.24-.13-.33-.44-.2-.68,.13-.24,.44-.33,.68-.2,3.82,2.08,6.55,5.7,7.49,9.95,.06,.27-.11,.54-.38,.6-.04,0-.07,.01-.11,.01Z"/>
      <path class="cls-7" d="M39.45,28.42c-.15,0-.3-.07-.4-.2-.17-.22-.12-.53,.1-.7,3.31-2.51,7.55-3.56,11.65-2.87,.27,.05,.46,.3,.41,.58-.05,.27-.3,.46-.58,.41-3.83-.64-7.79,.34-10.87,2.68-.09,.07-.2,.1-.3,.1Z"/>
    </g>
  </g>
</svg>