<svg width="512" height="512" viewBox="0 0 512 512" fill="none" xmlns="http://www.w3.org/2000/svg">
<path d="M155.096 473.537H227.974H363.67C383.808 473.537 403.223 466.032 418.132 452.485L438.493 433.983C463.83 410.959 462.889 370.626 436.861 348.388C409.497 325.01 410.541 281.951 439.379 260.419C464.942 241.332 469.473 204.782 449.346 180.022L412.211 134.339C385.274 101.203 341.919 86.1747 300.272 95.5386L137.628 132.108C131.56 133.472 125.233 131.403 121.141 126.715C109.051 112.863 74.1165 127.896 73.5664 146.28C72.6952 175.395 70.113 203.988 68.2284 220.622C67.8647 223.832 67.0549 226.948 65.4778 229.766C63.476 233.344 60.9449 237.008 57.9007 240.818C24.3921 282.755 6.81045 336.005 28.5348 385.103L32.265 393.533C53.7863 442.172 101.942 473.537 155.096 473.537Z" fill="#E7E8FF"/>
<path d="M465.169 396.62C429.59 409.443 399.752 448.944 390.668 473.537H408.31C432.071 462.041 464.938 441.404 467.713 398.553C467.803 397.174 466.469 396.151 465.169 396.62Z" fill="#032068"/>
<path d="M458.965 307.18C393.942 338.068 376.586 417.379 368.593 471.334H399.466C439.461 417.342 476.602 383.948 461.739 308.6C461.492 307.347 460.119 306.632 458.965 307.18Z" fill="white" stroke="#032068" stroke-width="2"/>
<path d="M383.295 471.335L394.119 448.573M453.128 324.486L439.161 353.856M439.161 353.856L457.538 345.045M439.161 353.856L425.195 383.226M425.195 383.226L419.314 357.527M425.195 383.226L409.482 416.267M409.482 416.267L428.87 408.924M409.482 416.267L394.119 448.573M394.119 448.573L390.646 424.343" stroke="#032068" stroke-width="2"/>
<path d="M173.037 58.7223C173.037 48.9039 180.996 40.9445 190.815 40.9445H393.067C402.885 40.9445 410.845 48.9039 410.845 58.7223V454.193C410.845 464.012 402.885 471.971 393.067 471.971H190.815C180.997 471.971 173.037 464.012 173.037 454.193V58.7223Z" fill="white"/>
<path fill-rule="evenodd" clip-rule="evenodd" d="M171.556 58.7223C171.556 48.0857 180.178 39.463 190.815 39.463H393.067C403.704 39.463 412.326 48.0857 412.326 58.7223V454.193C412.326 464.83 403.704 473.453 393.067 473.453H190.815C180.178 473.453 171.556 464.83 171.556 454.193V58.7223ZM190.815 42.426C181.815 42.426 174.519 49.7221 174.519 58.7223V454.193C174.519 463.194 181.815 470.49 190.815 470.49H393.067C402.067 470.49 409.363 463.194 409.363 454.193V58.7223C409.363 49.7221 402.067 42.426 393.067 42.426H190.815Z" fill="#032068"/>
<path d="M240.591 393.749C240.591 392.478 240.289 391.48 239.686 390.756C239.083 390.032 238.024 389.349 236.509 388.705C234.994 388.061 233.594 387.41 232.311 386.75C231.028 386.091 229.922 385.326 228.994 384.458C228.066 383.589 227.355 382.583 226.86 381.441C226.366 380.299 226.118 378.915 226.118 377.29C226.118 374.571 227 372.334 228.762 370.581C230.02 369.318 231.577 368.432 233.434 367.923C234.759 367.559 235.813 366.445 235.813 365.071V364.243C235.813 363.225 236.639 362.4 237.657 362.4C238.675 362.4 239.501 363.225 239.501 364.243V365.192C239.501 366.57 240.525 367.701 241.822 368.168C243.574 368.798 245.019 369.82 246.157 371.232C247.226 372.535 247.943 374.072 248.308 375.842C248.639 377.445 247.266 378.786 245.63 378.786H243.716C242.08 378.786 240.885 377.404 240.311 375.872C240.179 375.519 240.017 375.204 239.826 374.925C239.207 374.024 238.326 373.573 237.182 373.573C236.161 373.573 235.365 373.911 234.793 374.587C234.236 375.247 233.958 376.164 233.958 377.338C233.958 378.529 234.282 379.478 234.932 380.186C235.581 380.878 236.625 381.545 238.063 382.189C239.501 382.816 240.854 383.476 242.122 384.168C243.405 384.844 244.511 385.616 245.438 386.485C246.366 387.354 247.093 388.367 247.619 389.526C248.144 390.684 248.407 392.076 248.407 393.701C248.407 396.452 247.564 398.696 245.879 400.434C244.672 401.689 243.147 402.567 241.302 403.067C240.04 403.408 239.037 404.471 239.037 405.779V406.482C239.037 407.5 238.211 408.326 237.193 408.326C236.175 408.326 235.349 407.5 235.349 406.482V405.755C235.349 404.443 234.353 403.371 233.082 403.047C230.794 402.465 228.959 401.401 227.579 399.855C226.349 398.453 225.541 396.748 225.154 394.741C224.845 393.134 226.216 391.794 227.852 391.794H229.742C231.379 391.794 232.583 393.173 233.152 394.708C233.334 395.199 233.572 395.627 233.865 395.993C234.653 396.943 235.767 397.417 237.205 397.417C238.256 397.417 239.083 397.095 239.686 396.452C240.289 395.792 240.591 394.891 240.591 393.749Z" fill="#032068"/>
<path d="M293.778 164.622C304.159 164.622 309.46 156.226 311.192 151.046C311.427 150.342 312.106 149.867 312.842 149.955C325.378 151.441 332.707 153.825 344.889 163.14C350.657 167.551 364.979 182.463 371.844 195.589C372.123 196.123 372.036 196.77 371.638 197.222L351.858 219.731C351.293 220.374 350.302 220.406 349.697 219.801L342.529 212.633C341.557 211.661 339.897 212.404 339.994 213.775C341.928 241.028 344.216 289.739 339.704 294.251C333.778 300.177 254.518 299.437 248.592 294.251C244.104 290.324 246.344 241.831 248.271 214.256C248.37 212.832 246.596 212.11 245.662 213.188L240.021 219.697C239.452 220.354 238.443 220.382 237.838 219.758L215.978 197.215C215.546 196.77 215.433 196.107 215.716 195.555C219.065 189.034 227.668 176.268 238.963 166.103C250.152 156.033 265.742 150.893 274.515 149.934C275.333 149.844 276.031 150.481 276.22 151.283C277.442 156.478 283.553 164.622 293.778 164.622Z" fill="#032068"/>
<path d="M373.038 292.029C373.038 307.984 360.104 320.918 344.149 320.918C328.194 320.918 315.26 307.984 315.26 292.029C315.26 276.074 328.194 263.14 344.149 263.14C360.104 263.14 373.038 276.074 373.038 292.029Z" fill="white"/>
<path fill-rule="evenodd" clip-rule="evenodd" d="M344.149 264.622C329.012 264.622 316.741 276.893 316.741 292.029C316.741 307.166 329.012 319.437 344.149 319.437C359.285 319.437 371.556 307.166 371.556 292.029C371.556 276.893 359.285 264.622 344.149 264.622ZM313.778 292.029C313.778 275.256 327.376 261.659 344.149 261.659C360.922 261.659 374.519 275.256 374.519 292.029C374.519 308.802 360.922 322.4 344.149 322.4C327.376 322.4 313.778 308.802 313.778 292.029Z" fill="#032068"/>
<path d="M349.074 287.207H359.704V296.497H349.074V309.066H339.254V296.497H328.593V287.207H339.254V274.992H349.074V287.207Z" fill="#032068"/>
<path d="M244.655 55.3951L236.947 40.9438H346.933L337.872 56.0456C335.195 60.5079 330.373 63.2383 325.169 63.2383H257.727C252.255 63.2383 247.229 60.2227 244.655 55.3951Z" fill="#032068"/>
<path d="M407.928 49.8616H174.438C182.166 42.1329 189.548 40.6961 192.273 40.9438H390.093C399.605 40.9438 405.947 46.889 407.928 49.8616Z" fill="#032068"/>
<path d="M407.815 463.519H176.066C184.098 471.373 188.74 472.833 191.572 472.581H392.31C402.195 472.581 405.756 466.54 407.815 463.519Z" fill="#032068"/>
<path d="M200.302 99.8918C200.302 97.4372 202.292 95.4474 204.746 95.4474H280.68C283.135 95.4474 285.125 97.4372 285.125 99.8918V100.091C285.125 102.546 283.135 104.536 280.68 104.536H204.746C202.292 104.536 200.302 102.546 200.302 100.091V99.8918Z" fill="#032068"/>
<path d="M269.333 383.14C269.333 380.686 271.323 378.696 273.777 378.696H349.712C352.166 378.696 354.156 380.686 354.156 383.14V383.34C354.156 385.794 352.166 387.784 349.712 387.784H273.777C271.323 387.784 269.333 385.794 269.333 383.34V383.14Z" fill="#E7E8FF"/>
<path d="M200.302 426.103C200.302 423.649 202.292 421.659 204.746 421.659H280.68C283.135 421.659 285.125 423.649 285.125 426.103V426.303C285.125 428.757 283.135 430.747 280.68 430.747H204.746C202.292 430.747 200.302 428.757 200.302 426.303V426.103Z" fill="#E7E8FF"/>
<path fill-rule="evenodd" clip-rule="evenodd" d="M394.15 62.1238V74.2414H391.188V62.1238H394.15Z" fill="#032068"/>
<path fill-rule="evenodd" clip-rule="evenodd" d="M386.577 63.6385V74.2414H383.614V63.6385H386.577Z" fill="#032068"/>
<path fill-rule="evenodd" clip-rule="evenodd" d="M379.003 66.6679V74.2414H376.04V66.6679H379.003Z" fill="#032068"/>
<path fill-rule="evenodd" clip-rule="evenodd" d="M371.43 69.6973V74.2414H368.467V69.6973H371.43Z" fill="#032068"/>
<path d="M202.667 343.881C202.667 342.654 203.662 341.659 204.889 341.659H379.704C380.931 341.659 381.926 342.654 381.926 343.881C381.926 345.108 380.931 346.103 379.704 346.103H204.889C203.662 346.103 202.667 345.108 202.667 343.881Z" fill="#E7E8FF"/>
<path d="M202.667 123.14C202.667 121.913 203.662 120.918 204.889 120.918H379.704C380.931 120.918 381.926 121.913 381.926 123.14C381.926 124.368 380.931 125.363 379.704 125.363H204.889C203.662 125.363 202.667 124.368 202.667 123.14Z" fill="#E7E8FF"/>
<path d="M481.827 236.137H496V248.254H481.827V264.648H468.734V248.254H454.519V236.137H468.734V220.204H481.827V236.137Z" fill="#032068"/>
<path d="M463.222 157.059H470.815V163.118H463.222V171.315H456.208V163.118H448.593V157.059H456.208V149.093H463.222V157.059Z" fill="#032068"/>
<path d="M95.3171 136.367L96.127 145.104C96.1763 145.635 95.9254 146.148 95.4764 146.433L89.7668 150.056C88.5384 150.835 89.1445 152.746 90.6022 152.689L97.502 152.422C98.0058 152.402 98.4843 152.65 98.7607 153.074L102.892 159.409C103.668 160.6 105.511 160.064 105.512 158.646L105.52 150.801C105.521 150.341 105.743 149.91 106.118 149.645L111.234 146.026C112.386 145.211 111.766 143.388 110.351 143.432L104.207 143.622C103.713 143.637 103.246 143.396 102.97 142.985L97.9211 135.455C97.0954 134.224 95.1805 134.894 95.3171 136.367Z" fill="white"/>
<path d="M144.368 86.6712L140.669 89.3455C140.444 89.5082 140.148 89.5315 139.902 89.4058L136.768 87.8069C136.094 87.4629 135.399 88.2399 135.81 88.8778L137.755 91.8975C137.897 92.118 137.913 92.3979 137.796 92.6339L136.051 96.1603C135.723 96.8232 136.451 97.5066 137.086 97.1322L140.602 95.0602C140.809 94.9385 141.061 94.9243 141.278 95.0221L144.253 96.3561C144.923 96.6567 145.575 95.8964 145.181 95.2741L143.471 92.5725C143.333 92.3556 143.317 92.0822 143.429 91.8497L145.466 87.5964C145.799 86.9007 144.992 86.2204 144.368 86.6712Z" fill="#E7E8FF"/>
<path d="M111.272 237.771L107.543 257.157C109.283 259.145 114.851 263.271 123.202 263.867C131.553 264.464 139.109 260.636 141.844 258.648L139.607 240.753C152.283 234.042 147.809 208.691 141.844 199.744C135.878 190.796 111.272 189.305 105.306 210.183C100.534 226.884 107.295 235.534 111.272 237.771Z" fill="white"/>
<path fill-rule="evenodd" clip-rule="evenodd" d="M123.763 195.06C116.557 196.115 109.377 200.651 106.552 210.538C101.912 226.778 108.55 234.754 111.907 236.642L112.72 237.099L108.941 256.748C110.879 258.644 115.924 262.049 123.295 262.576C130.683 263.103 137.47 259.974 140.462 258.027L138.211 240.027L139.001 239.609C144.634 236.627 146.699 229.331 146.422 221.131C146.148 213.011 143.583 204.687 140.767 200.462C139.485 198.539 137.113 196.907 134.051 195.894C131.006 194.886 127.388 194.53 123.763 195.06ZM134.864 193.435C138.28 194.565 141.221 196.475 142.922 199.026C146.07 203.748 148.725 212.574 149.011 221.044C149.283 229.113 147.409 237.501 140.999 241.448L143.224 259.246L142.606 259.695C139.711 261.801 131.858 265.784 123.111 265.159C114.4 264.537 108.521 260.24 106.57 258.009L106.153 257.533L109.834 238.393C105.297 235.229 99.4366 226.015 104.062 209.827C107.202 198.837 115.308 193.68 123.388 192.498C127.406 191.91 131.431 192.299 134.864 193.435Z" fill="#032068"/>
<path d="M306.248 305.696L298.953 310.062L307.839 326.312C316.794 321.791 322.24 326.306 331.85 318.041C339.538 311.428 334.096 302.648 330.414 299.085C335.098 296.638 344.542 291.134 344.85 288.694C345.235 285.644 341.604 282.634 339.674 283.484C338.13 284.165 327.374 290.439 322.188 293.49C320.335 292.771 315.941 291.864 313.193 293.996C310.445 296.128 307.418 302.685 306.248 305.696Z" fill="white"/>
<path fill-rule="evenodd" clip-rule="evenodd" d="M340.927 284.734C340.508 284.589 340.279 284.633 340.197 284.669C339.508 284.973 336.52 286.659 332.944 288.72C329.418 290.752 325.436 293.082 322.846 294.606L322.305 294.925L321.72 294.697C320.913 294.384 319.497 294.013 317.988 293.968C316.466 293.922 315.028 294.212 313.987 295.019C312.847 295.903 311.512 297.855 310.265 300.137C309.05 302.362 308.024 304.703 307.455 306.165L307.294 306.579L300.687 310.533L308.39 324.62C311.832 323.107 314.831 322.793 317.585 322.504C318.214 322.438 318.83 322.373 319.436 322.296C322.931 321.85 326.437 320.988 331.006 317.059C332.756 315.554 333.704 313.977 334.142 312.437C334.582 310.887 334.527 309.293 334.14 307.731C333.356 304.571 331.242 301.688 329.514 300.016L328.225 298.768L329.815 297.938C332.131 296.728 335.62 294.763 338.556 292.809C340.027 291.83 341.325 290.876 342.259 290.039C342.728 289.619 343.075 289.255 343.304 288.955C343.528 288.662 343.564 288.526 343.566 288.527C343.566 288.527 343.566 288.529 343.565 288.532C343.688 287.559 343.163 286.429 342.247 285.573C341.804 285.16 341.333 284.875 340.927 284.734ZM344.014 283.68C345.299 284.88 346.397 286.78 346.135 288.856C346.054 289.501 345.708 290.075 345.363 290.527C344.998 291.005 344.521 291.49 343.987 291.968C342.918 292.925 341.504 293.958 339.991 294.965C337.545 296.593 334.748 298.216 332.515 299.431C334.177 301.364 335.902 304.08 336.653 307.108C337.126 309.013 337.22 311.076 336.633 313.144C336.044 315.22 334.79 317.221 332.695 319.022C327.654 323.358 323.632 324.372 319.763 324.865C319.078 324.952 318.41 325.024 317.75 325.094C314.731 325.415 311.889 325.718 308.423 327.468L307.304 328.032L297.219 309.59L305.206 304.811C305.828 303.262 306.824 301.035 307.992 298.896C309.239 296.613 310.791 294.221 312.399 292.973C314.107 291.648 316.24 291.325 318.065 291.379C319.582 291.425 321.01 291.734 322.051 292.069C324.639 290.547 328.344 288.382 331.65 286.476C335.135 284.467 338.297 282.676 339.153 282.299C340.035 281.911 340.984 282.013 341.776 282.288C342.582 282.567 343.356 283.066 344.014 283.68Z" fill="#032068"/>
<path d="M56.8393 278.034C77.7177 256.561 103.07 257.157 126.931 257.157C179.127 257.157 215.664 308.605 226.103 307.859C236.543 307.114 296.124 298.031 299.852 298.031C303.58 298.031 314.765 319.654 314.02 330.093C313.274 340.532 261.149 374.219 246.982 380.184C235.648 384.956 210.445 378.196 199.26 374.219C200.254 398.825 201.049 449.676 196.277 456.238C190.312 464.439 183.601 467.422 146.318 471.15C109.035 474.878 41.9262 468.167 37.4523 464.439C32.9783 460.711 16.5739 387.64 17.3195 374.219C18.0652 360.798 30.7414 304.877 56.8393 278.034Z" fill="white"/>
<path fill-rule="evenodd" clip-rule="evenodd" d="M124.929 255.861C125.598 255.862 126.265 255.862 126.931 255.862C153.454 255.862 175.919 268.93 192.955 281.753C199.17 286.432 204.705 291.112 209.445 295.119C211.197 296.601 212.84 297.99 214.368 299.253C217.22 301.61 219.654 303.513 221.68 304.802C222.692 305.445 223.568 305.913 224.317 306.208C225.074 306.505 225.624 306.595 226.011 306.568C231.172 306.199 248.61 303.753 265.312 301.384C266.684 301.189 268.049 300.995 269.402 300.803C276.269 299.829 282.804 298.901 288.047 298.179C291.185 297.748 293.866 297.389 295.881 297.138C297.846 296.894 299.285 296.737 299.852 296.737C300.388 296.737 300.873 296.926 301.268 297.148C301.671 297.375 302.065 297.682 302.441 298.03C303.193 298.726 303.991 299.691 304.798 300.822C306.416 303.092 308.177 306.193 309.784 309.595C311.393 313.001 312.865 316.749 313.889 320.323C314.907 323.874 315.513 327.353 315.311 330.185C315.188 331.91 314.064 333.846 312.522 335.8C310.935 337.812 308.723 340.062 306.091 342.445C300.822 347.215 293.746 352.626 286.278 357.876C271.37 368.357 254.703 378.338 247.484 381.378C244.417 382.669 240.516 383.145 236.309 383.119C232.082 383.094 227.443 382.561 222.842 381.758C214.564 380.314 206.312 377.979 200.628 376.063C201.094 388.368 201.486 406.207 201.225 422.016C201.088 430.334 200.771 438.113 200.185 444.237C199.892 447.298 199.53 449.971 199.083 452.104C198.649 454.176 198.098 455.935 197.324 456.999C195.784 459.117 194.154 460.954 191.959 462.551C189.767 464.144 187.069 465.458 183.431 466.606C176.202 468.889 165.075 470.576 146.447 472.438C127.692 474.314 101.505 473.561 79.4831 471.882C68.464 471.041 58.4601 469.967 50.9198 468.866C47.1522 468.316 43.9804 467.757 41.597 467.213C40.407 466.942 39.3912 466.669 38.5865 466.396C37.8305 466.14 37.1026 465.834 36.6229 465.434C36.1099 465.007 35.6823 464.27 35.3185 463.531C34.9244 462.73 34.5014 461.7 34.0563 460.49C33.1647 458.064 32.1496 454.816 31.0683 451.011C28.9039 443.395 26.4513 433.467 24.1645 423.247C21.8775 413.026 19.7523 402.495 18.2448 393.672C16.7476 384.91 15.8302 377.676 16.0263 374.147C16.4082 367.274 19.8019 349.813 26.3471 330.74C32.8907 311.671 42.6596 290.761 55.9105 277.132C76.6273 255.824 101.706 255.843 124.929 255.861ZM125.172 258.451C101.776 258.438 77.7107 258.425 57.7675 278.937C44.9204 292.15 35.3022 312.622 28.7968 331.58C22.2931 350.533 18.9759 367.744 18.6121 374.291C18.4354 377.473 19.2889 384.406 20.7977 393.236C22.296 402.005 24.4118 412.491 26.6919 422.681C28.9723 432.873 31.413 442.75 33.5595 450.303C34.6336 454.082 35.6282 457.259 36.4872 459.596C36.9174 460.766 37.3048 461.702 37.6423 462.388C37.811 462.73 37.9582 462.992 38.0821 463.182C38.2146 463.384 38.2838 463.447 38.2809 463.445C38.3605 463.511 38.6812 463.694 39.418 463.944C40.106 464.177 41.0272 464.427 42.1732 464.689C44.4618 465.211 47.5581 465.758 51.2938 466.304C58.7599 467.393 68.7023 468.462 79.6801 469.3C101.652 470.975 127.661 471.714 146.189 469.861C164.843 467.996 175.714 466.327 182.652 464.137C186.098 463.048 188.526 461.845 190.435 460.456C192.341 459.07 193.787 457.459 195.23 455.476C195.648 454.9 196.117 453.634 196.549 451.573C196.968 449.573 197.319 447.005 197.607 443.991C198.183 437.966 198.499 430.265 198.636 421.974C198.909 405.397 198.462 386.559 197.966 374.272L197.888 372.358L199.693 372.999C205.231 374.968 214.257 377.631 223.287 379.207C227.802 379.995 232.288 380.506 236.324 380.53C240.38 380.554 243.879 380.086 246.479 378.991C253.428 376.065 269.907 366.22 284.789 355.757C292.217 350.535 299.196 345.193 304.353 340.525C306.934 338.188 309.028 336.048 310.489 334.196C311.996 332.286 312.664 330.886 312.728 330.001C312.898 327.614 312.385 324.475 311.4 321.036C310.42 317.621 309.003 314.005 307.442 310.701C305.88 307.392 304.193 304.435 302.689 302.325C301.934 301.265 301.252 300.459 300.682 299.931C300.397 299.668 300.169 299.501 299.999 299.406C299.9 299.35 299.844 299.332 299.826 299.327C299.431 299.332 298.202 299.459 296.201 299.708C294.203 299.957 291.535 300.314 288.4 300.745C283.163 301.466 276.635 302.392 269.769 303.367C268.415 303.559 267.048 303.753 265.676 303.948C249.046 306.306 231.474 308.774 226.195 309.151C225.277 309.216 224.319 308.991 223.368 308.618C222.409 308.24 221.379 307.679 220.291 306.987C218.117 305.605 215.576 303.611 212.718 301.25C211.153 299.956 209.487 298.547 207.72 297.053C202.994 293.057 197.549 288.453 191.397 283.822C174.505 271.108 152.603 258.452 126.931 258.452C126.345 258.452 125.759 258.452 125.172 258.451Z" fill="#032068"/>
<path d="M264.061 370.356C237.963 365.883 216.409 372.231 209.698 377.202C216.409 379.438 230.208 383.33 240.946 381.541C251.683 379.751 258.096 375.576 264.061 370.356Z" fill="#032068"/>
<path d="M21.7936 405.535C30.1449 378.693 25.2733 359.058 21.7936 352.596C20.5508 356.076 17.9161 365.272 17.3196 374.219C16.7231 383.167 20.0537 398.825 21.7936 405.535Z" fill="#032068"/>
<path d="M43.4172 328.736C33.2763 372.281 35.7121 437.348 38.1976 464.439L43.4176 465.93C38.6454 390.175 41.4289 342.903 43.4172 328.736Z" fill="#032068"/>
<path d="M161.231 351.105C169.583 359.456 190.063 369.994 199.26 374.219V384.658C190.909 381.675 170.428 361.047 161.231 351.105Z" fill="#032068"/>
<path d="M119.474 246.718H109.78C108.04 245.724 102.771 239.56 95.6128 222.858C88.4545 206.156 96.607 197.01 101.578 194.525C115.746 169.919 154.52 176.63 156.011 184.086C157.502 191.542 150.791 197.507 143.335 200.49C135.878 203.472 133.641 213.165 132.15 219.13C130.659 225.095 131.404 222.858 127.676 219.13C123.948 215.402 117.983 215.402 116.491 221.367C115.298 226.139 120.965 227.332 123.948 227.332L119.474 246.718Z" fill="#032068"/>
</svg>
