<svg width="512" height="512" viewBox="0 0 512 512" fill="none" xmlns="http://www.w3.org/2000/svg">
<path d="M393.273 159.26C372.831 162.27 329.142 129.912 309.852 113.357C301.585 87.7715 384.255 120.882 406.049 132.922C427.844 144.962 418.825 155.497 393.273 159.26Z" fill="#E7E8FF"/>
<path d="M20.2114 331.635C11.446 355.414 17.5333 384.365 27.7622 409.553C40.9096 441.928 75.2116 458.007 110.116 458.007H340.281C394.471 458.007 444.77 394.073 473.04 347.782C506.055 293.723 484.279 238.259 461.801 205.262C439.324 172.265 385.938 201.05 336.066 172.265C286.193 143.48 295.325 128.737 253.179 110.483C198.111 86.6326 78.5133 85.5139 78.5133 212.985C78.5133 266.458 39.8795 278.277 20.2114 331.635Z" fill="#E7E8FF"/>
<path d="M44.7262 354.46C30.8292 381.399 53.6783 430.678 68.0726 454.111C68.945 455.531 70.4949 456.377 72.157 456.377H94.2179C97.1784 456.377 99.4489 453.694 98.9944 450.758C84.7804 358.927 49.5814 346.54 44.7262 354.46Z" fill="white"/>
<path fill-rule="evenodd" clip-rule="evenodd" d="M46.1362 355.272C39.5441 368.123 41.5934 386.587 47.3407 405.116C53.0646 423.569 62.3087 441.622 69.4549 453.256C70.0238 454.182 71.0434 454.747 72.1575 454.747H94.2184C96.174 454.747 97.6935 452.965 97.3905 451.008C90.3082 405.252 78.0281 379.516 67.0996 366.241C61.6299 359.596 56.5595 356.144 52.7175 354.789C48.7772 353.4 46.754 354.333 46.1362 355.272ZM69.6027 364.164C81.041 378.059 93.4674 404.433 100.599 450.507C101.205 454.423 98.1837 458.007 94.2184 458.007H72.1575C69.9472 458.007 67.867 456.881 66.6911 454.966C59.443 443.167 50.0654 424.864 44.2404 406.085C38.4482 387.411 36.0188 367.796 43.2849 353.711L43.3125 353.657L43.3439 353.606C45.1873 350.599 49.3835 350.159 53.7934 351.714C58.3609 353.324 63.889 357.223 69.6027 364.164Z" fill="#032068"/>
<path d="M86.4877 302.451C55.1044 320.783 69.5344 407.611 81.5149 452.2C82.0833 454.315 83.998 455.756 86.1805 455.756H102.591C104.935 455.756 106.952 454.064 107.364 451.748C122.872 364.585 110.136 294.455 87.2003 302.126C86.9569 302.207 86.7094 302.322 86.4877 302.451Z" fill="#032068"/>
<path d="M162.35 360.053C129.423 362.381 102.973 417.566 91.9485 450.089C90.8935 453.201 93.2318 456.377 96.5068 456.377H114.296C115.35 456.377 116.372 456.042 117.205 455.393C156.126 425.113 182.558 360.053 162.35 360.053Z" fill="white"/>
<path fill-rule="evenodd" clip-rule="evenodd" d="M162.406 361.683C154.638 362.248 147.142 365.929 140.04 371.789C132.922 377.663 126.286 385.657 120.285 394.655C108.283 412.651 98.97 434.436 93.4859 450.614C92.8013 452.633 94.3067 454.747 96.5072 454.747H114.297C115.007 454.747 115.675 454.522 116.211 454.105C135.412 439.167 151.603 415.571 160.47 395.702C164.91 385.751 167.44 376.896 167.673 370.631C167.79 367.484 167.318 365.206 166.429 363.767C165.622 362.46 164.386 361.697 162.406 361.683ZM163.433 397.034C154.405 417.265 137.92 441.34 118.2 456.682C117.07 457.561 115.694 458.007 114.297 458.007H96.5072C92.1576 458.007 88.9864 453.769 90.412 449.564C95.9529 433.219 105.377 411.15 117.587 392.841C123.693 383.686 130.532 375.415 137.979 369.271C145.424 363.127 153.562 359.041 162.237 358.427L162.293 358.423H162.351C165.39 358.423 167.733 359.691 169.189 362.049C170.57 364.286 171.045 367.327 170.917 370.753C170.662 377.632 167.939 386.935 163.433 397.034Z" fill="#032068"/>
<path fill-rule="evenodd" clip-rule="evenodd" d="M55.9947 367.247C59.9465 373.377 64.3733 383.498 68.6974 394.895C71.5063 402.299 74.2903 410.292 76.8923 418.169L80.9445 405.54L84.0352 406.54L78.6125 423.439C82.6385 435.921 86.1124 447.719 88.3877 455.941L85.2591 456.813C84.2032 452.998 82.8868 448.404 81.3755 443.327L70.5581 437.294L72.135 434.445L80.0292 438.847C78.5964 434.125 77.0255 429.09 75.362 423.944C72.4326 414.881 69.2193 405.487 65.971 396.87L50.5557 393.336L51.2787 390.158L64.5686 393.205C60.6158 383.035 56.7006 374.342 53.2685 369.017L55.9947 367.247Z" fill="#032068"/>
<path fill-rule="evenodd" clip-rule="evenodd" d="M92.3568 343.085C91.7977 330.899 91.1153 321.362 90.2769 316.873L87.0854 317.474C87.9716 322.218 88.7109 333.306 89.3076 347.692C89.6451 355.83 89.9357 364.98 90.1838 374.555L79.3246 363.271L76.9893 365.536L90.3043 379.372C90.536 388.969 90.7268 398.886 90.8813 408.552C91.165 426.313 91.3258 443.227 91.3912 455.764L94.6382 455.747C94.5734 443.333 94.4153 426.636 94.137 409.072L104.822 395.231L102.256 393.234L94.0513 403.862C93.9078 395.458 93.7367 386.935 93.535 378.657C93.2703 367.792 92.9529 357.346 92.5762 348.148L101.731 336.188L99.1562 334.202L92.3568 343.085Z" fill="white"/>
<path fill-rule="evenodd" clip-rule="evenodd" d="M142.783 388.938C149.085 380.994 155.088 374.516 160.224 370.683L158.286 368.067C152.222 372.594 145.244 380.386 138.161 389.57C134.843 393.872 131.484 398.502 128.168 403.282V394.233H124.92V408.025C120.542 414.508 116.279 421.157 112.324 427.553C105.701 438.261 99.9351 448.267 95.9248 455.592L98.7705 457.162C102.669 450.04 108.251 440.347 114.67 429.939L129.729 428.166L129.35 424.929L116.87 426.398C120.376 420.794 124.091 415.049 127.887 409.442C131.967 403.415 136.138 397.552 140.242 392.197H154.921V388.938H142.783Z" fill="#032068"/>
<path d="M286.38 88.2596C286.38 83.5759 290.171 79.7791 294.847 79.7791H487.533C492.209 79.7791 496 83.5759 496 88.2595V449.526C496 454.21 492.209 458.007 487.533 458.007H294.847C290.171 458.007 286.38 454.21 286.38 449.526V88.2596Z" fill="#032068"/>
<path fill-rule="evenodd" clip-rule="evenodd" d="M284.687 88.2596C284.687 82.6392 289.236 78.083 294.847 78.083H487.533C493.145 78.083 497.694 82.6392 497.694 88.2595V449.526C497.694 455.147 493.145 459.703 487.533 459.703H294.847C289.236 459.703 284.687 455.147 284.687 449.526V88.2596ZM294.847 81.4752C291.106 81.4752 288.073 84.5127 288.073 88.2596V449.526C288.073 453.273 291.106 456.311 294.847 456.311H487.533C491.274 456.311 494.307 453.273 494.307 449.526V88.2595C494.307 84.5126 491.274 81.4752 487.533 81.4752H294.847Z" fill="#032068"/>
<path d="M286.38 101.081C286.38 96.3974 290.171 92.6006 294.847 92.6006H487.533C492.209 92.6006 496 96.3974 496 101.081V449.527C496 454.21 492.209 458.007 487.533 458.007H294.847C290.171 458.007 286.38 454.21 286.38 449.527V101.081Z" fill="white"/>
<path fill-rule="evenodd" clip-rule="evenodd" d="M284.687 101.081C284.687 95.4607 289.236 90.9045 294.847 90.9045H487.533C493.145 90.9045 497.694 95.4607 497.694 101.081V449.527C497.694 455.147 493.145 459.703 487.533 459.703H294.847C289.236 459.703 284.687 455.147 284.687 449.527V101.081ZM294.847 94.2967C291.106 94.2967 288.073 97.3341 288.073 101.081V449.527C288.073 453.273 291.106 456.311 294.847 456.311H487.533C491.274 456.311 494.307 453.273 494.307 449.527V101.081C494.307 97.3341 491.274 94.2967 487.533 94.2967H294.847Z" fill="#032068"/>
<path d="M404.791 128.139C404.791 125.329 407.066 123.051 409.871 123.051H450.916C453.721 123.051 455.996 125.329 455.996 128.139V321.501C455.996 324.311 453.721 326.589 450.916 326.589H409.871C407.066 326.589 404.791 324.311 404.791 321.501V128.139Z" fill="#E7E8FF"/>
<path d="M404.791 219.211L455.996 153.502V164.72L404.791 230.429V219.211Z" fill="white"/>
<path d="M404.791 249.661L455.996 183.952V210.396L404.791 276.105L404.791 249.661Z" fill="white"/>
<path d="M132.263 125.759C132.263 152.83 110.317 174.776 83.2451 174.776C56.1734 174.776 34.2275 152.83 34.2275 125.759C34.2275 98.687 56.1734 76.7411 83.2451 76.7411C110.317 76.7411 132.263 98.687 132.263 125.759Z" fill="white"/>
<path fill-rule="evenodd" clip-rule="evenodd" d="M83.2455 78.2601C57.0128 78.2601 35.747 99.5259 35.747 125.759C35.747 151.991 57.0128 173.257 83.2455 173.257C109.478 173.257 130.744 151.991 130.744 125.759C130.744 99.5259 109.478 78.2601 83.2455 78.2601ZM32.709 125.759C32.709 97.8481 55.335 75.2221 83.2455 75.2221C111.156 75.2221 133.782 97.8481 133.782 125.759C133.782 153.669 111.156 176.295 83.2455 176.295C55.335 176.295 32.709 153.669 32.709 125.759Z" fill="#032068"/>
<path d="M93.6915 125.759C93.6915 131.528 89.0146 136.205 83.2452 136.205C77.4758 136.205 72.7988 131.528 72.7988 125.759C72.7988 119.989 77.4758 115.312 83.2452 115.312C89.0146 115.312 93.6915 119.989 93.6915 125.759Z" fill="#E7E8FF"/>
<path fill-rule="evenodd" clip-rule="evenodd" d="M82.0262 84.6424L85.6173 125.065L67.5386 146.819L65.2021 144.877L82.4804 124.087L79.0001 84.9112L82.0262 84.6424Z" fill="#032068"/>
<path d="M190.665 65.845L188.305 76.0102C188.162 76.6286 187.692 77.1032 187.087 77.2405L179.395 78.9862C177.74 79.3618 177.7 81.76 179.34 82.2918L187.102 84.8088C187.669 84.9925 188.108 85.4671 188.256 86.0572L190.48 94.8755C190.899 96.5333 193.145 96.6822 193.675 95.0873L196.611 86.2602C196.783 85.7419 197.191 85.3482 197.706 85.203L204.737 83.2194C206.321 82.7726 206.312 80.4671 204.724 79.9384L197.831 77.6427C197.277 77.4583 196.847 76.9959 196.694 76.4199L193.897 65.8826C193.44 64.1592 191.063 64.1316 190.665 65.845Z" fill="#E7E8FF"/>
<path d="M59.8056 232.87L57.0495 236.27C56.8818 236.477 56.6083 236.577 56.3405 236.528L52.934 235.913C52.2011 235.781 51.7589 236.668 52.3246 237.136L55.0018 239.352C55.1973 239.513 55.2896 239.762 55.2447 240.007L54.573 243.659C54.4467 244.346 55.3243 244.771 55.8213 244.264L58.5714 241.457C58.7329 241.292 58.967 241.212 59.2001 241.243L62.3828 241.661C63.0998 241.755 63.5058 240.894 62.9607 240.436L60.5937 238.446C60.4036 238.286 60.3128 238.043 60.3536 237.803L61.0999 233.416C61.222 232.698 60.2702 232.297 59.8056 232.87Z" fill="#E7E8FF"/>
<path d="M142.431 458.115L144.038 442.043L326.447 427.579L329.662 458.115H142.431Z" fill="#032068"/>
<path d="M127.966 213.831C140.181 204.188 201.09 200.973 213.948 209.009C183.68 242.223 108.359 308.651 103.859 299.008C98.2345 286.955 112.699 225.884 127.966 213.831Z" fill="#032068"/>
<path d="M139.216 410.704C137.609 418.204 135.359 430.954 139.216 441.24C146.809 461.489 310.813 451.818 328.054 438.026C337.697 430.311 332.072 407.49 328.054 394.633C336.089 402.669 358.589 410.704 372.25 394.633C385.911 378.562 367.428 310.259 336.089 260.438C311.018 220.581 269.929 210.616 252.518 210.616C251.447 214.634 245.286 222.67 229.215 222.67C213.144 222.67 205.376 214.634 203.502 210.616C179.395 212.224 128.769 225.081 102.251 295.794C81.0894 352.224 80.5555 392.222 91.0019 410.704C99.359 425.49 126.627 416.865 139.216 410.704Z" fill="white"/>
<path fill-rule="evenodd" clip-rule="evenodd" d="M204.439 209.032L204.878 209.974C206.477 213.4 213.669 221.151 229.215 221.151C244.749 221.151 250.193 213.443 251.051 210.225L251.352 209.097H252.519C270.312 209.097 311.959 219.223 337.376 259.629C353.129 284.673 365.644 314.344 372.511 339.796C375.945 352.519 377.982 364.244 378.289 373.843C378.592 383.339 377.217 391.136 373.408 395.617C366.173 404.128 356.579 406.232 347.861 405.181C341.411 404.404 335.347 401.895 330.908 398.897C332.538 404.68 334.134 411.585 334.69 418.129C335.049 422.351 334.982 426.498 334.17 430.131C333.357 433.766 331.77 436.998 329.003 439.212C327.744 440.219 325.922 441.132 323.719 441.976C321.494 442.828 318.782 443.646 315.672 444.427C309.451 445.99 301.542 447.429 292.555 448.698C274.575 451.237 252.167 453.109 230.073 453.916C207.985 454.723 186.156 454.466 169.345 452.731C160.948 451.864 153.735 450.621 148.348 448.93C145.656 448.085 143.358 447.109 141.58 445.972C139.815 444.842 138.429 443.468 137.794 441.773C134.253 432.329 135.649 421.024 137.125 413.352C130.786 416.158 122.063 419.112 113.695 420.068C104.147 421.159 94.3441 419.704 89.6799 411.452C84.2442 401.835 81.776 386.864 83.2593 367.365C84.7456 347.825 90.2112 323.575 100.829 295.261C114.197 259.615 133.684 238.455 152.957 226.014C172.21 213.586 191.16 209.917 203.401 209.101L204.439 209.032ZM253.601 212.148C251.614 217.034 244.578 224.189 229.215 224.189C213.699 224.189 205.397 216.916 202.625 212.203C190.739 213.122 172.814 216.813 154.605 228.567C135.909 240.635 116.825 261.26 103.674 296.328C93.1301 324.444 87.748 348.408 86.2885 367.595C84.8259 386.823 87.314 401.092 92.3247 409.957C96.0175 416.49 104.027 418.115 113.35 417.05C122.559 415.998 132.352 412.372 138.549 409.34L141.356 407.966L140.701 411.023C139.088 418.553 136.956 430.887 140.638 440.707C140.952 441.543 141.738 442.466 143.218 443.413C144.685 444.351 146.705 445.23 149.258 446.032C154.361 447.634 161.341 448.85 169.657 449.709C186.271 451.424 207.944 451.684 229.962 450.88C251.973 450.076 274.273 448.211 292.13 445.69C301.061 444.429 308.854 443.008 314.931 441.481C317.971 440.717 320.558 439.933 322.632 439.139C324.729 438.335 326.209 437.556 327.105 436.839C329.159 435.196 330.486 432.683 331.205 429.468C331.924 426.249 332.008 422.441 331.663 418.386C330.975 410.278 328.604 401.485 326.604 395.086L329.128 393.559C332.889 397.32 340.201 401.198 348.225 402.165C356.181 403.124 364.667 401.209 371.093 393.649C374.114 390.095 375.552 383.327 375.252 373.939C374.956 364.654 372.975 353.176 369.578 340.587C362.786 315.414 350.39 286.023 334.804 261.246C310.587 222.748 271.21 212.552 253.601 212.148Z" fill="#032068"/>
<path d="M174.573 319.901L121.538 338.383L161.716 316.687L171.359 292.58L168.948 316.687L174.573 319.901Z" fill="#032068"/>
<path d="M191.447 344.812C193.016 289.898 177.226 240.856 170.245 220.115C169.972 219.305 170.426 218.445 171.243 218.193L178.866 215.847C179.62 215.616 180.417 215.977 180.705 216.71C192.564 246.99 203.467 310.71 201.09 342.401C194.951 378.47 156.32 415.515 139.092 427.641C138.109 428.333 136.817 427.602 136.887 426.402C137.124 422.317 137.829 419.073 138.29 417.523C138.366 417.265 138.524 417.035 138.725 416.857C180.893 379.717 191.447 353.362 191.447 344.812Z" fill="#032068"/>
<path d="M189.038 355.258C176.181 377.115 150.466 401.329 139.217 410.704L137.609 421.151C168.466 394.151 184.752 365.973 189.038 355.258Z" fill="#032068"/>
<path d="M286.883 318.49C277.016 286.724 269.348 237.345 266.452 214.415C266.318 213.358 267.29 212.501 268.323 212.759L274.787 214.375C275.408 214.531 275.867 215.076 275.932 215.713C282.034 275.287 290.259 299.879 295.862 320.693C296.201 321.952 294.893 323.008 293.727 322.425L287.649 319.386C287.281 319.202 287.005 318.883 286.883 318.49Z" fill="#032068"/>
<path d="M331.089 421.156C321.238 411.158 308.7 389.556 301.327 375.565C300.576 374.14 302.263 372.736 303.543 373.714L311.671 379.931C311.876 380.087 312.036 380.292 312.142 380.527C316.583 390.398 325.712 399.519 330.106 403.177C330.34 403.372 330.512 403.627 330.596 403.919C332.009 408.838 332.913 415.445 333.376 420.031C333.51 421.36 332.026 422.108 331.089 421.156Z" fill="#032068"/>
<path d="M178.591 322.312L188.233 345.616C191.448 344.812 196.269 344.008 202.698 340.794C217.251 333.518 216.358 320.705 209.93 311.062C204.787 303.348 195.198 308.384 189.841 312.669L189.841 301.419C182.77 304.634 177.787 316.955 178.591 322.312Z" fill="white"/>
<path fill-rule="evenodd" clip-rule="evenodd" d="M191.361 299.06L191.36 309.674C193.785 308.05 196.687 306.543 199.634 305.883C201.67 305.428 203.805 305.359 205.838 306.009C207.897 306.668 209.733 308.028 211.194 310.22C214.543 315.243 216.55 321.235 215.685 327.039C214.807 332.929 211.018 338.333 203.377 342.153C197.771 344.956 193.308 345.99 190.168 346.718C189.603 346.849 189.081 346.97 188.602 347.089L187.331 347.407L177.117 322.721L177.089 322.537C176.848 320.928 177.051 318.94 177.538 316.889C178.03 314.813 178.838 312.565 179.899 310.395C181.986 306.124 185.201 301.86 189.213 300.037L191.361 299.06ZM180.07 321.914L189.142 343.836C189.265 343.808 189.389 343.779 189.515 343.749C192.647 343.022 196.757 342.066 202.019 339.435C208.932 335.979 211.973 331.338 212.68 326.592C213.4 321.76 211.746 316.524 208.666 311.905C207.556 310.24 206.265 309.336 204.912 308.903C203.533 308.462 201.972 308.473 200.298 308.848C196.913 309.606 193.39 311.776 190.79 313.855L188.322 315.83L188.323 304.143C186.112 305.902 184.127 308.663 182.628 311.729C181.659 313.712 180.93 315.749 180.494 317.59C180.074 319.359 179.946 320.853 180.07 321.914Z" fill="#032068"/>
<path d="M300.32 323.468L287.933 342.739C285.19 341.501 281.01 340.003 275.783 336.091C263.951 327.233 266.82 315.925 274.125 308.345C279.97 302.281 289.545 307.972 293.641 312.669L291.091 303.026C300.319 307.044 301.904 318.809 300.32 323.468Z" fill="white"/>
<path fill-rule="evenodd" clip-rule="evenodd" d="M288.82 300.381L290.872 308.139C289.123 306.871 287.119 305.753 285.033 305.035C281.081 303.674 276.516 303.675 273.031 307.291C269.21 311.256 266.426 316.318 266.259 321.692C266.09 327.151 268.631 332.634 274.872 337.307C279.445 340.729 283.282 342.382 285.972 343.54C286.455 343.748 286.901 343.94 287.308 344.123L288.502 344.662L301.698 324.133L301.758 323.957C302.683 321.235 302.628 316.778 301.2 312.523C299.754 308.218 296.814 303.861 291.697 301.633L288.82 300.381ZM298.935 322.812L287.356 340.827C287.285 340.797 287.214 340.766 287.142 340.735C284.461 339.578 280.957 338.067 276.693 334.875C271.102 330.69 269.162 326.09 269.296 321.786C269.432 317.396 271.735 313.014 275.219 309.399C277.579 306.95 280.724 306.765 284.044 307.908C287.392 309.06 290.595 311.487 292.496 313.667L295.109 312.28L293.518 306.265C295.863 308.174 297.409 310.776 298.32 313.49C299.559 317.181 299.542 320.832 298.935 322.812Z" fill="#032068"/>
<path d="M287.876 348.83C296.876 366.187 318.411 386.597 328.054 394.633L330.465 403.472C306.037 386.758 291.894 360.08 287.876 348.83Z" fill="#032068"/>
<path d="M336.058 331.927C336.071 331.938 336.082 331.947 336.09 331.955C336.079 331.946 336.069 331.937 336.058 331.927C334.754 330.926 308.712 319.893 303.144 319.098L306.358 314.276L299.93 288.562L312.787 315.884C318.666 319.625 331.529 328.058 336.058 331.927Z" fill="#032068"/>
<path d="M209.93 190.527L205.109 217.045C229.537 233.759 245.288 225.081 250.109 218.652L243.681 196.152C252.52 188.92 254.931 176.867 250.109 155.171C243.681 131.867 226.537 134.814 216.358 138.296C191.93 150.51 202.162 179.277 209.93 190.527Z" fill="white"/>
<path fill-rule="evenodd" clip-rule="evenodd" d="M216.947 139.7C211.16 142.614 207.493 146.462 205.308 150.721C203.102 155.02 202.36 159.835 202.588 164.702C203.047 174.48 207.417 184.215 211.18 189.664L211.537 190.181L206.781 216.341C218.39 224.074 227.797 225.832 234.786 225.018C241.495 224.238 246.096 221.078 248.434 218.317L241.946 195.609L242.719 194.977C250.844 188.329 253.419 177.091 248.635 155.538C245.529 144.312 239.971 139.722 234.24 138.154C228.375 136.549 221.957 137.996 216.947 139.7ZM235.042 135.224C242.028 137.136 248.25 142.716 251.574 154.767L251.584 154.804L251.593 154.841C256.308 176.059 254.31 188.805 245.41 196.675L251.778 218.96L251.325 219.564C248.664 223.112 243.144 227.104 235.138 228.036C227.102 228.971 216.696 226.813 204.252 218.299L203.439 217.742L208.325 190.866C204.406 184.984 200.031 175.008 199.554 164.844C199.307 159.587 200.101 154.216 202.605 149.335C205.117 144.436 209.305 140.125 215.679 136.937L215.771 136.892L215.867 136.859C221.022 135.095 228.221 133.357 235.042 135.224Z" fill="#032068"/>
<path d="M197.074 161.599C196.501 178.2 202.896 187.962 208.087 191.792C208.937 192.42 210.066 191.818 210.403 190.816C210.727 189.857 211.142 188.883 211.538 186.51C212.18 182.652 211.27 181.688 210.734 181.688C198.681 177.67 207.52 160.795 209.93 161.599C212.341 162.403 212.341 172.849 214.752 173.653C217.163 174.456 217.966 156.778 220.377 154.367C222.787 151.956 230.02 151.956 240.466 154.367C250.912 156.778 264.898 157.433 258.144 134.277C252.519 114.991 222.787 127.849 213.145 130.26C203.502 132.67 197.878 138.296 197.074 161.599Z" fill="#032068"/>
<path d="M222.787 198.563C233.716 200.492 241.269 197.759 243.68 196.152L246.091 204.188C231.305 206.759 224.394 201.509 222.787 198.563Z" fill="#032068"/>
<path d="M119.93 417.133C110.287 396.562 92.341 387.669 84.5732 385.794C85.109 393.026 87.7875 408.936 94.216 414.722C100.645 420.508 114.037 418.74 119.93 417.133Z" fill="#032068"/>
<path d="M336.893 399.454C351.036 384.026 369.571 379.097 377.071 378.562C377.339 383.383 375.143 394.633 364.214 401.062C353.286 407.49 341.446 402.669 336.893 399.454Z" fill="#032068"/>
</svg>
