<svg width="512" height="512" viewBox="0 0 512 512" fill="none" xmlns="http://www.w3.org/2000/svg">
<path d="M370.969 441.252H254.01H135.534C109.896 441.252 85.2004 431.584 66.3715 414.175L40.9055 390.63C5.7269 358.105 10.6407 300.842 50.2855 273.946C76.9699 255.843 88.9092 222 79.1111 191.269C61.5125 136.073 112.364 83.3074 168.065 99.1487C183.488 103.535 199.929 102.689 214.821 96.7436L287.834 67.5938C357.195 39.9017 431.399 95.0338 424.954 169.471L424.563 173.988C422.014 203.434 433.83 232.3 456.292 251.498C488.293 278.849 497.52 324.511 478.652 362.151L469.499 380.41C450.804 417.706 412.671 441.252 370.969 441.252Z" fill="#E7E8FF"/>
<path fill-rule="evenodd" clip-rule="evenodd" d="M230.175 322.406C230.698 321.534 231.814 321.247 232.669 321.765L237.742 324.841C238.597 325.36 238.866 326.487 238.343 327.359C237.915 328.074 238.018 328.979 238.536 329.616C239.989 331.404 241.077 333.439 241.771 335.602C242.024 336.391 242.72 336.962 243.542 336.972C244.546 336.985 245.339 337.82 245.314 338.836L245.164 344.852C245.138 345.867 244.305 346.679 243.303 346.667C242.482 346.656 241.759 347.208 241.466 347.988C241.067 349.05 240.567 350.092 239.963 351.1C239.359 352.108 238.676 353.039 237.929 353.89C237.38 354.514 237.232 355.415 237.625 356.14C238.104 357.026 237.778 358.146 236.898 358.643L231.679 361.585C230.797 362.082 229.693 361.766 229.213 360.879C228.82 360.153 227.993 359.8 227.182 359.943C224.956 360.336 222.659 360.319 220.409 359.861C219.606 359.698 218.762 360.029 218.334 360.743C217.811 361.615 216.694 361.902 215.839 361.384L210.767 358.308C209.912 357.79 209.643 356.662 210.166 355.79C210.594 355.075 210.491 354.171 209.973 353.533C208.52 351.745 207.432 349.71 206.738 347.547C206.485 346.759 205.789 346.188 204.967 346.177C203.963 346.164 203.17 345.33 203.195 344.313L203.345 338.298C203.371 337.283 204.204 336.47 205.206 336.483C206.027 336.493 206.75 335.942 207.043 335.162C207.442 334.099 207.942 333.058 208.546 332.05C209.15 331.042 209.833 330.11 210.58 329.26C211.129 328.635 211.277 327.734 210.884 327.009C210.405 326.124 210.731 325.003 211.612 324.506L216.83 321.564C217.712 321.067 218.816 321.383 219.296 322.27C219.689 322.996 220.516 323.349 221.328 323.206C223.553 322.814 225.85 322.831 228.1 323.288C228.903 323.452 229.746 323.121 230.175 322.406ZM233.138 346.962C230.138 351.968 223.728 353.614 218.822 350.639C213.916 347.664 212.371 341.194 215.371 336.188C218.372 331.182 224.781 329.536 229.687 332.511C234.594 335.486 236.139 341.956 233.138 346.962Z" fill="white"/>
<path fill-rule="evenodd" clip-rule="evenodd" d="M181.225 345.148C182.247 343.462 184.43 342.907 186.101 343.91L196.015 349.856C197.686 350.858 198.212 353.038 197.191 354.724C196.353 356.106 196.555 357.855 197.568 359.088C200.407 362.544 202.533 366.479 203.89 370.661C204.385 372.185 205.746 373.289 207.352 373.309C209.314 373.334 210.864 374.947 210.815 376.913L210.521 388.543C210.472 390.505 208.843 392.077 206.884 392.052C205.281 392.032 203.867 393.098 203.294 394.606C202.515 396.66 201.538 398.674 200.357 400.623C199.176 402.572 197.842 404.372 196.38 406.016C195.307 407.224 195.02 408.966 195.786 410.367C196.723 412.08 196.087 414.246 194.365 415.206L184.166 420.894C182.442 421.855 180.284 421.244 179.346 419.53C178.578 418.126 176.961 417.444 175.375 417.72C171.025 418.479 166.534 418.446 162.137 417.561C160.568 417.245 158.919 417.885 158.082 419.266C157.06 420.953 154.877 421.507 153.206 420.505L143.292 414.559C141.621 413.557 141.095 411.377 142.116 409.69C142.954 408.309 142.752 406.559 141.739 405.326C138.9 401.87 136.774 397.936 135.418 393.755C134.923 392.23 133.561 391.126 131.955 391.106C129.993 391.081 128.443 389.467 128.492 387.502L128.786 375.873C128.835 373.91 130.464 372.338 132.423 372.363C134.027 372.383 135.441 371.317 136.013 369.809C136.793 367.755 137.77 365.741 138.951 363.792C140.132 361.843 141.466 360.043 142.927 358.398C144 357.191 144.288 355.449 143.521 354.048C142.585 352.335 143.221 350.169 144.942 349.209L155.142 343.521C156.866 342.56 159.024 343.17 159.962 344.885C160.73 346.289 162.347 346.971 163.933 346.695C168.283 345.936 172.773 345.969 177.17 346.854C178.739 347.17 180.388 346.53 181.225 345.148ZM187.017 392.622C181.153 402.3 168.625 405.483 159.036 399.732C149.447 393.98 146.427 381.472 152.291 371.794C158.155 362.116 170.683 358.932 180.273 364.684C189.862 370.436 192.882 382.944 187.017 392.622Z" fill="white"/>
<path d="M445.493 159.365L449.6 155.707C450.332 155.056 451.462 155.724 451.243 156.679L450.044 161.916C449.972 162.233 450.056 162.564 450.27 162.807L454.148 167.191C454.772 167.897 454.165 169.003 453.234 168.855L447.391 167.929C447.107 167.884 446.817 167.964 446.594 168.148L441.562 172.303C440.815 172.92 439.719 172.23 439.952 171.289L441.423 165.347C441.495 165.058 441.435 164.752 441.26 164.512L437.352 159.154C436.777 158.366 437.551 157.297 438.478 157.6L444.514 159.571C444.853 159.681 445.226 159.603 445.493 159.365Z" fill="#032068"/>
<path d="M464.212 224.456L465.913 223.959C466.851 223.685 467.583 224.777 466.977 225.547L465.91 226.902C465.709 227.158 465.643 227.494 465.732 227.806L466.324 229.872C466.584 230.78 465.564 231.519 464.788 230.985L462.971 229.732C462.735 229.569 462.439 229.516 462.16 229.586L459.76 230.191C458.823 230.428 458.131 229.331 458.744 228.58L460.155 226.851C460.344 226.619 460.421 226.317 460.366 226.024L459.904 223.561C459.723 222.6 460.879 221.966 461.584 222.639L463.241 224.221C463.499 224.467 463.869 224.557 464.212 224.456Z" fill="#032068"/>
<path d="M111.245 117.043C111.245 112.364 115.038 108.571 119.717 108.571H401.509C406.188 108.571 409.98 112.364 409.98 117.043V318.687C409.98 323.365 406.188 327.158 401.509 327.158H119.717C115.038 327.158 111.245 323.365 111.245 318.687V117.043Z" fill="white"/>
<path fill-rule="evenodd" clip-rule="evenodd" d="M109.976 117.043C109.976 111.663 114.337 107.302 119.717 107.302H401.509C406.889 107.302 411.25 111.663 411.25 117.043V318.687C411.25 324.067 406.889 328.428 401.509 328.428H119.717C114.337 328.428 109.976 324.067 109.976 318.687V117.043ZM119.717 109.841C115.739 109.841 112.515 113.066 112.515 117.043V318.687C112.515 322.664 115.739 325.888 119.717 325.888H401.509C405.487 325.888 408.711 322.664 408.711 318.687V117.043C408.711 113.066 405.487 109.841 401.509 109.841H119.717Z" fill="#032068"/>
<path d="M111.245 117.043C111.245 112.364 115.038 108.571 119.717 108.571H401.509C406.188 108.571 409.98 112.364 409.98 117.043V132.512H111.245V117.043Z" fill="#032068"/>
<path d="M133.214 120.712C133.214 123.586 130.884 125.915 128.011 125.915C125.137 125.915 122.808 123.586 122.808 120.712C122.808 117.838 125.137 115.509 128.011 115.509C130.884 115.509 133.214 117.838 133.214 120.712Z" fill="white"/>
<path d="M150.558 120.712C150.558 123.586 148.228 125.915 145.355 125.915C142.481 125.915 140.151 123.586 140.151 120.712C140.151 117.838 142.481 115.509 145.355 115.509C148.228 115.509 150.558 117.838 150.558 120.712Z" fill="white"/>
<path d="M167.902 120.712C167.902 123.586 165.572 125.915 162.698 125.915C159.825 125.915 157.495 123.586 157.495 120.712C157.495 117.838 159.825 115.509 162.698 115.509C165.572 115.509 167.902 117.838 167.902 120.712Z" fill="white"/>
<path d="M137.11 155.128C137.11 153.699 138.268 152.541 139.697 152.541H164.268C165.697 152.541 166.855 153.699 166.855 155.128C166.855 156.556 165.697 157.714 164.268 157.714H139.697C138.268 157.714 137.11 156.556 137.11 155.128Z" fill="#032068"/>
<path d="M137.11 294.796C137.11 293.367 138.268 292.209 139.697 292.209H164.268C165.697 292.209 166.855 293.367 166.855 294.796C166.855 296.224 165.697 297.382 164.268 297.382H139.697C138.268 297.382 137.11 296.224 137.11 294.796Z" fill="#032068"/>
<path d="M190.132 294.796C190.132 293.367 191.29 292.209 192.718 292.209H217.29C218.718 292.209 219.876 293.367 219.876 294.796C219.876 296.224 218.718 297.382 217.29 297.382H192.718C191.29 297.382 190.132 296.224 190.132 294.796Z" fill="#032068"/>
<path d="M243.153 294.796C243.153 293.367 244.311 292.209 245.74 292.209H270.311C271.74 292.209 272.898 293.367 272.898 294.796C272.898 296.224 271.74 297.382 270.311 297.382H245.74C244.311 297.382 243.153 296.224 243.153 294.796Z" fill="#032068"/>
<path d="M296.178 294.796C296.178 293.367 297.336 292.209 298.764 292.209H323.335C324.764 292.209 325.922 293.367 325.922 294.796C325.922 296.224 324.764 297.382 323.335 297.382H298.764C297.336 297.382 296.178 296.224 296.178 294.796Z" fill="#032068"/>
<path d="M137.11 190.581C137.11 188.856 138.508 187.458 140.233 187.458H183.95C185.675 187.458 187.073 188.856 187.073 190.581C187.073 192.305 185.675 193.703 183.95 193.703H140.233C138.508 193.703 137.11 192.305 137.11 190.581Z" fill="#032068"/>
<path d="M137.11 214.521C137.11 213.371 138.042 212.439 139.192 212.439H247.445C248.594 212.439 249.526 213.371 249.526 214.521C249.526 215.671 248.594 216.603 247.445 216.603H139.192C138.042 216.603 137.11 215.671 137.11 214.521Z" fill="#E7E8FF"/>
<path d="M137.11 237.421C137.11 236.271 138.042 235.339 139.192 235.339H247.445C248.594 235.339 249.526 236.271 249.526 237.421C249.526 238.571 248.594 239.503 247.445 239.503H139.192C138.042 239.503 137.11 238.571 137.11 237.421Z" fill="#E7E8FF"/>
<path d="M137.11 260.32C137.11 259.171 138.042 258.239 139.192 258.239H247.445C248.594 258.239 249.526 259.171 249.526 260.32C249.526 261.47 248.594 262.402 247.445 262.402H139.192C138.042 262.402 137.11 261.47 137.11 260.32Z" fill="#E7E8FF"/>
<path d="M285.829 227.501C285.829 226.099 286.966 224.962 288.369 224.962H297.515C298.918 224.962 300.055 226.099 300.055 227.501V254.753C300.055 256.156 298.918 257.293 297.515 257.293H288.369C286.966 257.293 285.829 256.156 285.829 254.753V227.501Z" fill="#E7E8FF"/>
<path d="M309.108 219.742C309.108 218.339 310.245 217.202 311.648 217.202H320.794C322.197 217.202 323.334 218.339 323.334 219.742V254.753C323.334 256.155 322.197 257.292 320.794 257.292H311.648C310.245 257.292 309.108 256.155 309.108 254.753V219.742Z" fill="#E7E8FF"/>
<path d="M332.388 209.396C332.388 207.994 333.525 206.857 334.927 206.857H344.074C345.476 206.857 346.613 207.994 346.613 209.396V254.753C346.613 256.155 345.476 257.292 344.074 257.292H334.927C333.525 257.292 332.388 256.155 332.388 254.753V209.396Z" fill="#E7E8FF"/>
<path d="M355.665 200.344C355.665 198.941 356.802 197.804 358.205 197.804H367.351C368.754 197.804 369.891 198.941 369.891 200.344V254.753C369.891 256.155 368.754 257.292 367.351 257.292H358.205C356.802 257.292 355.665 256.155 355.665 254.753V200.344Z" fill="#032068"/>
<path fill-rule="evenodd" clip-rule="evenodd" d="M270.982 265.769V195.218H273.522V265.769C273.522 267.171 274.659 268.308 276.062 268.308H381.53V270.848H276.062C273.256 270.848 270.982 268.574 270.982 265.769Z" fill="#032068"/>
<path fill-rule="evenodd" clip-rule="evenodd" d="M341.422 195.474C338.697 195.871 336.445 196.297 334.854 197.02C333.272 197.739 331.501 199.151 329.499 200.951C328.778 201.599 328.021 202.303 327.242 203.028C325.933 204.247 324.561 205.523 323.189 206.692C318.854 210.385 313.647 213.803 308.062 211.941C304.548 210.77 299.626 211.278 294.714 212.532C289.857 213.773 285.254 215.678 282.52 217.045L281.385 214.774C284.255 213.339 289.028 211.364 294.086 210.072C299.089 208.794 304.62 208.117 308.865 209.532C312.979 210.903 317.149 208.502 321.543 204.759C322.885 203.615 324.166 202.422 325.436 201.24C326.224 200.505 327.009 199.775 327.801 199.062C329.8 197.265 331.828 195.606 333.803 194.708C335.768 193.815 338.366 193.352 341.056 192.961C341.744 192.861 342.441 192.765 343.144 192.668C345.264 192.377 347.441 192.078 349.588 191.631C355.326 190.435 360.229 188.296 362.242 183.118L364.609 184.039C362.097 190.5 356.007 192.887 350.106 194.117C347.865 194.584 345.563 194.9 343.424 195.194C342.738 195.288 342.068 195.38 341.422 195.474Z" fill="#032068"/>
<path d="M296.177 210.736C296.177 212.165 295.019 213.323 293.59 213.323C292.162 213.323 291.004 212.165 291.004 210.736C291.004 209.308 292.162 208.15 293.59 208.15C295.019 208.15 296.177 209.308 296.177 210.736Z" fill="#032068"/>
<path d="M319.456 209.443C319.456 210.871 318.298 212.029 316.87 212.029C315.441 212.029 314.283 210.871 314.283 209.443C314.283 208.015 315.441 206.857 316.87 206.857C318.298 206.857 319.456 208.015 319.456 209.443Z" fill="#032068"/>
<path d="M342.732 193.924C342.732 195.353 341.574 196.511 340.146 196.511C338.718 196.511 337.56 195.353 337.56 193.924C337.56 192.496 338.718 191.338 340.146 191.338C341.574 191.338 342.732 192.496 342.732 193.924Z" fill="#032068"/>
<path d="M366.012 183.579C366.012 185.007 364.854 186.165 363.425 186.165C361.997 186.165 360.839 185.007 360.839 183.579C360.839 182.15 361.997 180.992 363.425 180.992C364.854 180.992 366.012 182.15 366.012 183.579Z" fill="#032068"/>
<path d="M415.616 317.699L417.595 328.075L415.616 338.944C410.505 339.603 400.086 340.921 399.295 340.921C398.503 340.921 392.7 335.98 389.897 333.51L392.865 317.699C384.556 314.933 381.819 302.713 381.489 296.949C379.511 273.234 395.338 270.269 398.305 270.269C401.273 270.269 420.068 270.269 422.541 290.032C424.519 305.842 418.749 315.064 415.616 317.699Z" fill="white"/>
<path fill-rule="evenodd" clip-rule="evenodd" d="M410.21 273.606C415.325 275.955 420.403 280.634 421.594 290.15C423.54 305.703 417.842 314.581 415.001 316.97L414.574 317.33L416.624 328.079L414.802 338.088C412.272 338.413 408.77 338.858 405.719 339.233C404.048 339.439 402.515 339.624 401.351 339.757C400.769 339.824 400.282 339.877 399.918 339.914C399.735 339.933 399.587 339.946 399.475 339.955C399.45 339.957 399.427 339.959 399.407 339.961C399.37 339.942 399.322 339.916 399.26 339.88C399.058 339.762 398.783 339.58 398.443 339.336C397.767 338.851 396.898 338.17 395.952 337.402C394.241 336.011 392.319 334.364 390.935 333.152L393.956 317.058L393.167 316.795C389.394 315.539 386.783 312.095 385.062 308.073C383.35 304.074 382.602 299.69 382.442 296.894L382.441 296.882L382.44 296.87C381.471 285.246 384.866 278.889 388.685 275.421C392.556 271.906 397.009 271.223 398.305 271.223C399.769 271.223 405.031 271.227 410.21 273.606ZM399.484 339.995C399.484 339.995 399.48 339.993 399.471 339.991C399.48 339.994 399.484 339.996 399.484 339.995ZM398.314 269.316H398.305C396.634 269.316 391.69 270.115 387.401 274.011C383.06 277.952 379.532 284.932 380.537 297.016C380.708 299.985 381.494 304.586 383.307 308.823C385.008 312.796 387.688 316.616 391.779 318.311L388.859 333.866L389.266 334.224C390.673 335.465 392.835 337.326 394.748 338.881C395.703 339.657 396.607 340.366 397.33 340.884C397.689 341.142 398.019 341.365 398.297 341.527C398.435 341.607 398.578 341.683 398.716 341.742C398.827 341.789 399.044 341.874 399.295 341.874C399.563 341.874 400.44 341.781 401.569 341.652C402.741 341.517 404.28 341.332 405.952 341.126C409.297 340.714 413.182 340.219 415.738 339.89L416.43 339.801L418.565 328.071L416.654 318.049C420.112 314.769 425.417 305.336 423.488 289.914C422.205 279.667 416.649 274.465 411.007 271.874C405.439 269.316 399.83 269.316 398.314 269.316Z" fill="#032068"/>
<path d="M463.592 440.228H385.941L287.516 439.734C281.426 435.766 279.722 429.364 279.705 423.935C279.692 419.486 282.902 415.907 286.913 413.975C302.851 406.3 327.042 394.422 331.535 391.315C337.965 386.869 343.9 362.66 355.77 343.885C365.267 328.866 383.138 325.44 390.392 325.605C391.052 328.569 393.854 334.498 403.746 334.498C413.638 334.498 417.76 328.569 419.079 325.605C424.189 325.605 438.368 328.371 450.238 339.438C465.066 353.263 471.497 384.848 477.428 413.981L477.441 414.042C482.189 437.362 470.187 440.886 463.592 440.228Z" fill="white"/>
<path fill-rule="evenodd" clip-rule="evenodd" d="M389.654 326.554C390.116 328.114 391.077 330.136 392.962 331.865C395.181 333.901 398.595 335.451 403.746 335.451C413.529 335.451 418.004 329.887 419.676 326.57C425.038 326.775 438.361 329.668 449.587 340.135C456.812 346.872 462.067 358.023 466.26 371.257C470.444 384.466 473.525 399.593 476.494 414.171L476.506 414.232C478.853 425.76 477.001 432.11 474.05 435.501C471.093 438.9 466.803 439.59 463.687 439.279L463.64 439.274H385.941L287.807 438.782C282.276 435.046 280.676 429.115 280.66 423.932C280.648 419.983 283.508 416.674 287.328 414.834C295.299 410.995 305.337 406.104 313.945 401.784C322.514 397.483 329.763 393.701 332.079 392.099C333.902 390.838 335.57 388.289 337.214 385.105C338.88 381.878 340.61 377.812 342.493 373.343C342.62 373.04 342.748 372.736 342.877 372.429C346.571 363.652 350.891 353.388 356.578 344.394C361.195 337.091 367.858 332.59 374.287 329.932C380.307 327.443 386.073 326.59 389.654 326.554ZM373.557 328.17C366.864 330.938 359.843 335.659 354.964 343.376C349.191 352.507 344.817 362.9 341.136 371.646C341.001 371.967 340.867 372.286 340.733 372.603C338.844 377.089 337.143 381.082 335.517 384.232C333.869 387.424 332.384 389.569 330.992 390.531C328.815 392.037 321.722 395.747 313.088 400.08C304.493 404.394 294.466 409.28 286.499 413.116C282.297 415.14 278.736 418.989 278.751 423.938C278.768 429.542 280.533 436.322 286.995 440.532L287.231 440.685L385.936 441.181L385.941 441.181H463.546C467.023 441.517 472.001 440.762 475.491 436.752C479.002 432.716 480.777 425.645 478.376 413.852L478.358 413.762C475.396 399.216 472.297 383.996 468.079 370.681C463.866 357.383 458.492 345.829 450.89 338.742C438.819 327.488 424.397 324.651 419.079 324.651H418.459L418.207 325.217C416.992 327.948 413.154 333.544 403.746 333.544C399.006 333.544 396.073 332.131 394.253 330.461C392.415 328.774 391.624 326.746 391.324 325.398L391.162 324.669L390.414 324.652C386.654 324.566 380.241 325.406 373.557 328.17Z" fill="#032068"/>
<path d="M430.454 402.185L423.035 372.047L424.519 402.185L390.736 410.415C386.399 411.472 382.342 414.167 381.522 418.551C380.057 426.371 382.978 434.687 386.435 437.757C383.468 433.515 383.468 417.501 386.93 415.03C389.7 413.054 424.025 406.631 440.841 403.667L430.454 402.185Z" fill="#032068"/>
<path d="M356.76 364.142L338.46 440.228H330.546L356.76 364.142Z" fill="#032068"/>
<path d="M410.178 307.818C412.156 319.281 414.959 320.499 416.113 319.676C429.961 310.783 429.627 282.369 421.059 272.74C413.145 263.846 407.21 267.305 390.888 263.352C374.567 259.4 369.126 266.317 372.094 275.21C376.366 288.012 389.899 281.139 393.361 282.621C396.824 284.103 401.275 288.056 403.253 295.961C405.232 303.866 406.221 302.384 407.705 297.937C409.188 293.49 413.145 287.068 416.113 294.973C418.487 301.297 413.145 306.171 410.178 307.818Z" fill="#032068"/>
<path d="M351.814 440.227C351.814 426.789 371.763 422.771 381.49 422.441C381.49 429.16 385.612 437.098 387.92 440.227H351.814Z" fill="white"/>
<path fill-rule="evenodd" clip-rule="evenodd" d="M382.445 421.455L381.458 421.488C376.516 421.656 368.968 422.757 362.62 425.546C356.3 428.323 350.86 432.931 350.86 440.228V441.181H389.809L388.688 439.662C387.587 438.169 386.016 435.473 384.723 432.319C383.427 429.16 382.445 425.627 382.445 422.441V421.455ZM380.563 423.437C380.739 426.679 381.74 430.076 382.956 433.042C383.949 435.462 385.104 437.641 386.127 439.274H352.806C353.251 433.656 357.623 429.825 363.389 427.291C369.055 424.801 375.799 423.702 380.563 423.437Z" fill="#032068"/>
<path d="M255.683 439.32C255.683 427.374 271.491 424.836 280.019 424.543C280.019 430.516 285.313 436.538 287.337 439.32H255.683Z" fill="white"/>
<path fill-rule="evenodd" clip-rule="evenodd" d="M280.973 423.556L279.986 423.59C275.674 423.738 269.452 424.453 264.274 426.686C259.084 428.925 254.728 432.805 254.728 439.32V440.273H289.21L288.109 438.759C287.824 438.368 287.489 437.93 287.122 437.45C286.118 436.137 284.869 434.505 283.735 432.634C282.189 430.084 280.973 427.268 280.973 424.543V423.556ZM279.108 425.536C279.359 428.436 280.66 431.243 282.102 433.622C283.202 435.436 284.44 437.083 285.42 438.366H256.675C257.066 433.491 260.475 430.402 265.031 428.437C269.537 426.493 274.978 425.75 279.108 425.536Z" fill="#032068"/>
<path fill-rule="evenodd" clip-rule="evenodd" d="M478.499 422.394C478.733 431.932 475.385 440.228 465.169 440.228H456.172C458.546 424.418 471.103 414.866 477.039 412.066C477.169 412.706 477.299 413.344 477.429 413.981L477.441 414.042C478.074 417.149 478.409 419.922 478.499 422.394Z" fill="#032068"/>
<path d="M402.358 317.549C397.751 319.083 394.56 318.188 392.96 317.549L391.477 324.466C397.618 323.699 401.078 319.307 402.358 317.549Z" fill="#032068"/>
<path d="M306.755 380.836L328.762 431.113C329.867 433.637 328.029 436.47 325.288 436.47H258.135C256.592 436.47 255.203 435.532 254.62 434.095L234.218 383.819C233.199 381.307 235.035 378.557 237.732 378.557H303.281C304.785 378.557 306.148 379.451 306.755 380.836Z" fill="white"/>
<path fill-rule="evenodd" clip-rule="evenodd" d="M303.281 379.35C304.473 379.35 305.552 380.058 306.033 381.156L328.04 431.432C328.915 433.432 327.46 435.677 325.288 435.677H258.134C256.912 435.677 255.812 434.933 255.35 433.795L234.948 383.519C234.14 381.529 235.595 379.35 237.732 379.35H303.281ZM307.476 380.517C306.743 378.843 305.098 377.763 303.281 377.763H237.732C234.475 377.763 232.257 381.085 233.488 384.118L253.89 434.395C254.594 436.13 256.272 437.263 258.134 437.263H325.288C328.598 437.263 330.817 433.841 329.483 430.793L307.476 380.517Z" fill="#032068"/>
<path d="M286.243 403.491C285.008 400.612 282.19 398.747 279.073 398.747C273.46 398.747 269.681 404.527 271.904 409.712L272.458 411.004C273.692 413.884 276.51 415.749 279.627 415.749C285.24 415.749 289.019 409.969 286.797 404.783L286.243 403.491Z" fill="#032068"/>
<path d="M259.189 441.252H375.734C377.63 441.252 379.167 439.706 379.167 437.799C379.167 435.891 377.63 434.345 375.734 434.345H259.189C256.729 434.345 255.067 436.871 256.029 439.149C256.568 440.424 257.811 441.252 259.189 441.252Z" fill="#032068"/>
<path d="M40.1377 443.791C40.1377 441.688 41.4714 439.982 43.1165 439.982H456.184C457.829 439.982 459.163 441.688 459.163 443.791V448.871C459.163 450.974 457.829 452.68 456.184 452.68H43.1165C41.4714 452.68 40.1377 450.974 40.1377 448.871V443.791Z" fill="white"/>
<path fill-rule="evenodd" clip-rule="evenodd" d="M39.1445 443.791C39.1445 440.986 40.9228 438.712 43.1163 438.712H456.184C458.377 438.712 460.156 440.986 460.156 443.791V448.871C460.156 451.676 458.377 453.95 456.184 453.95H43.1163C40.9228 453.95 39.1445 451.676 39.1445 448.871V443.791ZM43.1163 441.252C42.0196 441.252 41.1304 442.389 41.1304 443.791V448.871C41.1304 450.273 42.0195 451.41 43.1163 451.41H456.184C457.281 451.41 458.17 450.273 458.17 448.871V443.791C458.17 442.389 457.281 441.252 456.184 441.252H43.1163Z" fill="#032068"/>
<path d="M108.631 217.556L111.157 229.565V237.149L105.473 242.206L88.4234 240.309V228.933L89.0549 215.66C82.1086 206.811 79.5827 189.747 87.1604 180.898C94.7382 172.05 114.314 170.785 118.103 191.643C121.134 208.329 113.051 215.871 108.631 217.556Z" fill="white"/>
<path fill-rule="evenodd" clip-rule="evenodd" d="M103.836 176.284C109.612 177.368 115.129 181.838 116.949 191.853C119.89 208.043 112.049 214.997 108.213 216.46L107.276 216.817L109.983 229.687V236.622L105.084 240.982L89.5953 239.259V228.961L90.2462 215.279L89.9762 214.935C86.6669 210.719 84.3652 204.469 83.8288 198.179C83.2912 191.877 84.5406 185.76 88.05 181.662C91.5642 177.558 97.9297 175.176 103.836 176.284ZM104.268 173.977C97.5443 172.716 90.3331 175.389 86.2695 180.134C82.2011 184.885 80.9246 191.724 81.4922 198.379C82.0466 204.88 84.375 211.418 87.8625 216.035L87.2502 228.905V241.36L105.862 243.43L112.328 237.676V229.443L109.973 218.246C115.002 215.745 122.191 207.591 119.256 191.433C117.286 180.59 111.121 175.264 104.268 173.977Z" fill="#032068"/>
<path d="M149.677 451.41L143.208 380.622H52.6442L43.5878 451.41H149.677Z" fill="#032068"/>
<path d="M210.299 248.526C210.299 250.549 208.194 254.004 207.141 255.479L208.404 263.063L217.876 264.327C220.402 261.167 227.98 259.903 229.875 254.846C231.39 250.801 227.138 246.419 224.823 245.366L232.672 234.368C233.591 233.08 233.375 231.304 232.175 230.274C230.902 229.182 228.987 229.323 227.887 230.589L217.245 242.838C217.245 243.259 216.866 243.217 215.351 239.678C213.456 235.253 211.562 237.149 210.299 237.781C209.036 238.414 210.299 245.998 210.299 248.526Z" fill="white"/>
<path fill-rule="evenodd" clip-rule="evenodd" d="M232.938 229.383C231.176 227.871 228.525 228.066 227.002 229.819L217.255 241.038C217.038 240.597 216.766 240.003 216.429 239.215C215.437 236.9 214.201 235.66 212.588 235.66C211.878 235.66 211.265 235.916 210.82 236.145C210.595 236.26 210.385 236.384 210.213 236.485L210.207 236.488C210.021 236.597 209.89 236.674 209.775 236.732C209.175 237.032 208.929 237.617 208.819 237.967C208.692 238.367 208.629 238.831 208.597 239.289C208.531 240.214 208.576 241.369 208.656 242.524C208.721 243.471 208.813 244.459 208.897 245.369C208.917 245.576 208.936 245.779 208.954 245.977C209.054 247.068 209.126 247.959 209.126 248.526C209.126 249.234 208.723 250.383 208.069 251.678C207.442 252.917 206.685 254.099 206.187 254.796L205.905 255.192L207.39 264.112L218.378 265.578L218.792 265.06C219.285 264.444 220.077 263.861 221.143 263.236C221.793 262.855 222.464 262.503 223.175 262.128C223.655 261.876 224.153 261.614 224.676 261.327C227.118 259.986 229.859 258.231 230.973 255.259C231.92 252.729 231.022 250.212 229.759 248.33C228.842 246.964 227.642 245.788 226.521 245.005L233.626 235.05C234.898 233.268 234.599 230.808 232.938 229.383ZM216.073 242.838V242.828C216.073 242.833 216.073 242.837 216.073 242.838ZM228.772 231.359C229.449 230.579 230.628 230.493 231.412 231.165C232.151 231.799 232.284 232.893 231.718 233.685L223.041 245.844L224.338 246.434C225.265 246.856 226.749 248.055 227.812 249.639C228.875 251.222 229.345 252.919 228.777 254.434C227.996 256.519 226.001 257.923 223.549 259.269C223.109 259.51 222.641 259.757 222.169 260.006C221.409 260.406 220.638 260.812 219.958 261.211C219.041 261.749 218.138 262.354 217.418 263.082L209.419 262.014L208.377 255.757C208.906 254.977 209.581 253.885 210.161 252.738C210.822 251.431 211.472 249.841 211.472 248.526C211.472 247.83 211.386 246.824 211.289 245.762C211.27 245.558 211.251 245.35 211.231 245.14C211.147 244.232 211.058 243.278 210.995 242.362C210.917 241.226 210.883 240.207 210.936 239.454C210.96 239.106 211.001 238.865 211.042 238.715C211.16 238.65 211.274 238.583 211.375 238.524L211.395 238.512C211.575 238.406 211.732 238.314 211.89 238.233C212.214 238.067 212.43 238.007 212.588 238.007C212.712 238.007 213.37 238.031 214.273 240.14C215.029 241.906 215.546 242.909 215.911 243.423C216.005 243.555 216.121 243.702 216.26 243.828C216.353 243.911 216.674 244.193 217.162 244.193C217.85 244.193 218.197 243.689 218.31 243.416C218.314 243.407 218.317 243.398 218.321 243.388L228.772 231.359ZM211.085 238.596C211.085 238.595 211.082 238.601 211.076 238.615C211.083 238.603 211.086 238.596 211.085 238.596Z" fill="#032068"/>
<path d="M101.052 235.885C109.64 235.885 111.788 229.144 111.788 225.773C117.85 225.773 121.82 228.735 123.083 229.578L133.258 258.639L135.152 381.254C113.935 387.827 87.1597 383.993 76.4245 381.254L69.4782 230.197C73.6524 227.538 79.7507 226.378 84.133 225.964C86.2774 225.762 88.1223 227.282 89.218 229.138C91.1226 232.363 94.8448 235.885 101.052 235.885Z" fill="white"/>
<path fill-rule="evenodd" clip-rule="evenodd" d="M122.105 230.333L132.088 258.847L133.966 380.387C113.719 386.354 88.554 382.982 77.5552 380.326L70.6811 230.839C74.5926 228.577 80.1101 227.522 84.2426 227.133C85.7301 226.993 87.2164 228.055 88.2081 229.735C90.2612 233.212 94.3201 237.059 101.052 237.059C105.699 237.059 108.732 235.213 110.571 232.806C112.015 230.917 112.681 228.743 112.886 226.981C117.531 227.277 120.701 229.38 122.105 230.333ZM123.478 228.429C121.967 227.399 117.857 224.599 111.787 224.599H110.615V225.773C110.615 227.255 110.132 229.518 108.709 231.38C107.328 233.187 104.993 234.712 101.052 234.712C95.3686 234.712 91.983 231.515 90.2271 228.541C89.0273 226.509 86.8238 224.532 84.0227 224.796C79.5967 225.213 73.2661 226.393 68.8483 229.207L68.2753 229.572L75.2927 382.176L76.1345 382.391C86.9553 385.152 113.979 389.042 135.499 382.375L136.338 382.115L134.427 258.43L124.06 228.819L123.733 228.602C123.659 228.552 123.574 228.494 123.478 228.429Z" fill="#032068"/>
<path d="M123.155 291.505C122.272 276.031 117.462 248.156 114.297 231.537C113.697 228.387 116.349 225.556 119.428 226.442C149.382 235.058 156.631 274.479 166.096 275.072C172.834 275.493 189.107 264.233 199.702 256.08C202.888 253.629 207.412 253.852 210.254 256.697L217.026 263.474C219.099 265.55 219.871 268.614 218.72 271.314C210.896 289.672 188.898 318.648 174.937 325.635C162.812 331.702 153.045 323.106 149.677 318.05C149.888 334.272 150.182 368.866 149.677 377.462C149.046 388.206 149.677 397.055 142.099 398.319C134.522 399.583 119.998 397.055 119.998 394.527C119.998 391.998 124.418 313.626 123.155 291.505Z" fill="white"/>
<path fill-rule="evenodd" clip-rule="evenodd" d="M119.751 225.314C115.679 224.143 112.412 227.91 113.145 231.757C116.311 248.386 121.105 276.187 121.984 291.571C122.611 302.561 121.826 327.617 120.878 350.314C120.29 364.377 119.639 377.545 119.231 385.804C118.983 390.829 118.824 394.037 118.824 394.527C118.824 395.422 119.447 396.043 119.933 396.407C120.469 396.808 121.178 397.155 121.962 397.458C123.543 398.07 125.679 398.6 128.007 399.001C132.649 399.802 138.32 400.139 142.292 399.476C144.43 399.12 146.066 398.207 147.277 396.806C148.466 395.431 149.177 393.667 149.634 391.713C150.32 388.782 150.486 385.127 150.663 381.229C150.718 380.015 150.774 378.777 150.847 377.531C151.322 369.449 151.095 338.671 150.891 321.454C152.791 323.505 155.389 325.628 158.531 327.079C163.189 329.231 169.038 329.898 175.46 326.684C182.691 323.066 191.816 313.891 200.049 303.466C208.312 293.004 215.832 281.08 219.798 271.774C221.159 268.58 220.223 265.016 217.854 262.644L217.025 263.474L217.854 262.644L211.082 255.867C207.81 252.592 202.624 252.351 198.986 255.15C193.706 259.213 187.027 264.038 180.844 267.788C177.751 269.663 174.807 271.255 172.24 272.349C169.631 273.459 167.565 273.988 166.168 273.9C165.396 273.852 164.501 273.397 163.426 272.331C162.359 271.275 161.239 269.742 160.013 267.807C158.792 265.879 157.504 263.613 156.087 261.117L156.037 261.028C154.639 258.565 153.121 255.89 151.444 253.153C144.675 242.098 135.175 229.751 119.751 225.314ZM115.448 231.318C114.981 228.865 117.018 226.97 119.104 227.57C133.633 231.749 142.735 243.421 149.445 254.379C151.101 257.084 152.603 259.729 154.005 262.2L154.048 262.276C155.458 264.76 156.775 267.078 158.032 269.063C159.285 271.041 160.518 272.753 161.776 274C163.026 275.237 164.428 276.143 166.022 276.243C167.995 276.366 170.489 275.645 173.158 274.508C175.868 273.354 178.918 271.7 182.059 269.795C188.346 265.982 195.101 261.1 200.416 257.011C203.151 254.906 207.012 255.113 209.424 257.526L216.196 264.304C217.974 266.084 218.581 268.648 217.641 270.853C213.783 279.906 206.392 291.649 198.209 302.011C189.997 312.41 181.142 321.217 174.412 324.585C168.709 327.439 163.613 326.842 159.514 324.948C155.368 323.033 152.24 319.783 150.652 317.399L148.453 314.097L148.504 318.065C148.715 334.315 149.008 368.851 148.506 377.393C148.426 378.746 148.367 380.052 148.31 381.306C148.135 385.139 147.982 388.478 147.351 391.178C146.94 392.937 146.348 394.293 145.504 395.27C144.683 396.219 143.557 396.886 141.906 397.161C138.3 397.763 132.92 397.467 128.405 396.688C126.155 396.3 124.187 395.803 122.808 395.269C122.111 394.999 121.627 394.744 121.338 394.528C121.256 394.466 121.204 394.419 121.172 394.386C121.192 393.616 121.338 390.664 121.56 386.193C121.965 378.004 122.623 364.719 123.221 350.412C124.167 327.761 124.961 302.57 124.325 291.438C123.437 275.875 118.611 247.926 115.448 231.318ZM121.127 394.333C121.127 394.333 121.128 394.336 121.131 394.34C121.129 394.336 121.127 394.333 121.127 394.333Z" fill="#032068"/>
<path d="M92.8432 290.873C92.3788 279.251 86.541 247.862 82.9855 230.107C82.4968 227.666 80.1763 226.024 77.7803 226.69C45.0511 235.793 19.0656 291.852 21.4858 314.258C23.5065 332.966 38.3253 362.504 45.4821 374.934C45.0611 382.518 44.9769 397.94 48.008 398.951C51.7969 400.215 84.634 398.951 86.5284 395.159C88.4228 391.367 93.4747 306.674 92.8432 290.873Z" fill="white"/>
<path fill-rule="evenodd" clip-rule="evenodd" d="M78.0948 227.821C79.7467 227.362 81.463 228.473 81.8364 230.337C85.4 248.133 91.2123 279.413 91.6721 290.92C91.985 298.748 90.8854 323.803 89.4631 347.448C88.753 359.255 87.9643 370.681 87.2352 379.388C86.8705 383.744 86.5215 387.41 86.2056 390.1C86.0474 391.447 85.899 392.536 85.7629 393.34C85.6948 393.743 85.6318 394.061 85.5752 394.297C85.5261 394.503 85.4924 394.6 85.4826 394.627C85.469 394.642 85.4005 394.722 85.202 394.847C84.9527 395.003 84.5851 395.178 84.085 395.359C83.0865 395.722 81.7057 396.064 80.0299 396.375C76.6878 396.996 72.3365 397.466 67.8964 397.78C63.4617 398.095 58.9704 398.251 55.3594 398.251C53.5529 398.251 51.9782 398.212 50.7469 398.135C49.476 398.056 48.6994 397.942 48.3869 397.84C48.3876 397.839 48.2519 397.768 48.0448 397.383C47.8256 396.976 47.6105 396.37 47.4157 395.563C47.0279 393.956 46.7725 391.776 46.6214 389.335C46.3199 384.466 46.4444 378.764 46.6534 374.999L46.6727 374.65L46.4986 374.348C42.9404 368.168 37.4675 357.717 32.6354 346.486C27.7917 335.228 23.6426 323.302 22.6521 314.132C22.0718 308.76 23.1922 301.232 25.7803 292.746C28.3604 284.286 32.3684 274.974 37.4698 266.069C47.7125 248.19 62.1893 232.245 78.0948 227.821ZM84.1357 229.876C83.5317 226.859 80.6071 224.686 77.4669 225.56C60.6433 230.239 45.7627 246.874 35.4354 264.902C30.2517 273.95 26.1716 283.423 23.5373 292.06C20.911 300.672 19.6908 308.553 20.3206 314.384C21.3508 323.922 25.6215 336.119 30.4815 347.414C35.2755 358.556 40.6923 368.933 44.2931 375.217C44.0926 379.035 43.981 384.638 44.2807 389.48C44.4348 391.968 44.7004 394.308 45.1361 396.114C45.3531 397.013 45.6255 397.837 45.9801 398.496C46.3198 399.127 46.8372 399.797 47.6378 400.064C48.2775 400.278 49.3536 400.4 50.6008 400.478C51.8979 400.559 53.525 400.599 55.3594 400.599C59.0302 400.599 63.5769 400.44 68.062 400.122C72.5415 399.804 76.9915 399.326 80.4576 398.683C82.1858 398.362 83.7109 397.993 84.8856 397.565C85.472 397.352 86.0079 397.112 86.4496 396.834C86.8732 396.568 87.3202 396.199 87.5777 395.684C87.7012 395.437 87.7882 395.127 87.8558 394.844C87.9294 394.537 88.0023 394.162 88.0751 393.732C88.2208 392.871 88.3746 391.737 88.5346 390.374C88.8551 387.645 89.2066 383.949 89.5721 379.584C90.3033 370.852 91.0933 359.406 91.804 347.59C93.2234 323.99 94.334 298.799 94.0154 290.826C93.5463 279.089 87.6831 247.591 84.1357 229.876Z" fill="#032068"/>
<path d="M85.6613 376.36C89.6275 374.646 91.4538 370.037 89.7404 366.068L77.3008 337.247C75.5874 333.277 70.9832 331.449 67.017 333.164L24.7347 351.446C20.7685 353.161 18.9422 357.769 20.6556 361.739L33.0952 390.56C34.8086 394.53 39.4128 396.357 43.379 394.642L85.6613 376.36Z" fill="white"/>
<path fill-rule="evenodd" clip-rule="evenodd" d="M86.1269 377.438C90.6876 375.466 92.7876 370.167 90.8174 365.602L78.3778 336.781C76.4076 332.217 71.1133 330.115 66.5526 332.087L24.2702 350.369C19.7096 352.341 17.6096 357.64 19.5798 362.204L32.0194 391.025C33.9896 395.59 39.2839 397.692 43.8446 395.72L86.1269 377.438ZM88.6646 366.533C90.1212 369.908 88.5686 373.825 85.1969 375.283L42.9146 393.565C39.5429 395.023 35.6288 393.469 34.1722 390.094L21.7326 361.274C20.276 357.899 21.8285 353.981 25.2003 352.523L67.4826 334.241C70.8543 332.784 74.7684 334.338 76.225 337.712L88.6646 366.533Z" fill="#032068"/>
<path d="M24.6427 291.505C28.6421 297.825 34.7464 315.269 27.1686 334.483C23.3797 327.32 17.5701 308.696 24.6427 291.505Z" fill="#032068"/>
<path d="M186.934 316.154C180.829 314.679 165.463 313.752 152.834 321.842C157.885 327.531 171.778 334.357 186.934 316.154Z" fill="#032068"/>
<path d="M146.52 282.656C147.783 294.033 149.046 308.57 149.678 319.314C152.709 322.854 160.202 326.267 163.57 327.531C154.982 317.924 150.309 296.561 146.52 282.656Z" fill="#032068"/>
<path d="M73.8183 379.543C73.3131 378.026 68.135 373.012 65.6091 370.695C60.3466 370.063 50.2006 370.695 51.7161 378.279C53.6106 387.76 55.505 395.344 65.6091 392.184C73.6923 389.656 72.766 384.389 71.2924 382.071C72.3449 381.861 74.3235 381.06 73.8183 379.543Z" fill="white"/>
<path fill-rule="evenodd" clip-rule="evenodd" d="M51.5633 373.11C50.5198 374.529 50.1329 376.338 50.5667 378.509C51.0398 380.877 51.523 383.18 52.1431 385.235C52.7616 387.285 53.5388 389.168 54.6397 390.667C55.7584 392.19 57.2185 393.322 59.1531 393.815C61.0606 394.301 63.3062 394.134 65.9591 393.304C70.2326 391.967 72.4096 389.805 73.1549 387.396C73.6787 385.702 73.4403 384.056 72.9422 382.761C73.2491 382.62 73.556 382.448 73.8363 382.241C74.2181 381.959 74.6146 381.564 74.8547 381.029C75.1086 380.464 75.1484 379.825 74.931 379.172C74.8155 378.825 74.605 378.473 74.394 378.162C74.1708 377.834 73.892 377.473 73.5808 377.097C72.9576 376.345 72.1609 375.479 71.3149 374.603C69.6205 372.849 67.6765 370.999 66.4017 369.829L66.1236 369.574L65.7491 369.529C63.0345 369.203 58.9831 369.187 55.7422 370.295C54.114 370.851 52.5775 371.73 51.5633 373.11ZM65.0978 371.818C62.5753 371.557 59.1369 371.615 56.5001 372.516C55.1234 372.987 54.0787 373.649 53.4523 374.501C52.8552 375.313 52.5422 376.427 52.8662 378.049C53.3403 380.421 53.8044 382.622 54.3881 384.556C54.9733 386.496 55.6564 388.089 56.529 389.276C57.3837 390.44 58.41 391.204 59.7316 391.54C61.0803 391.884 62.8605 391.814 65.2596 391.064C69.0694 389.872 70.4708 388.137 70.9147 386.701C71.3791 385.2 70.9142 383.662 70.3035 382.701L69.3847 381.256L71.0628 380.92C71.4913 380.835 72.0671 380.631 72.4433 380.353C72.6245 380.219 72.6937 380.116 72.7155 380.068C72.7159 380.067 72.7163 380.066 72.7167 380.065C72.725 380.047 72.7398 380.015 72.7063 379.914C72.7062 379.914 72.7052 379.911 72.7029 379.905C72.7004 379.899 72.6967 379.89 72.6915 379.879C72.6808 379.855 72.6653 379.824 72.6436 379.785C72.5997 379.705 72.5378 379.604 72.4549 379.482C72.2884 379.237 72.06 378.939 71.7753 378.595C71.2066 377.909 70.4561 377.091 69.6287 376.235C68.0955 374.647 66.3422 372.969 65.0978 371.818Z" fill="#032068"/>
<path d="M98.0589 451.385L103.979 417.046V451.385H98.0589Z" fill="white"/>
<path d="M89.6858 203.019L89.0544 214.396L88.4232 225.772C76.8044 225.267 67.1635 230.618 63.7954 233.357C59.375 215.028 74.5306 203.019 74.5306 196.067C74.5306 189.115 77.688 167.625 99.1583 166.993C115.263 166.519 119.672 179.713 119.986 189.176C120.018 190.139 119.139 190.846 118.237 190.513C113.911 188.915 108.383 184.471 105.095 180.978C104.18 180.007 102.294 180.318 101.698 181.512C100.178 184.56 97.9548 187.382 96.3617 189.311C96.1286 189.593 96.002 189.945 95.9951 190.311C95.9611 192.103 95.7745 194.534 95.4867 196.936C95.2849 198.62 92.9459 198.614 92.417 197.002C91.8223 195.19 91.105 193.457 90.3173 192.275C87.7914 188.483 84.0025 191.643 84.0025 196.067C84.0025 199.606 87.7914 202.177 89.6858 203.019Z" fill="#032068"/>
<path d="M123.786 228.301C121.26 225.773 118.524 213.343 117.471 207.444C116.461 212.5 111.156 216.292 108.631 217.556L110.525 225.141C115.577 225.141 121.471 227.248 123.786 228.301Z" fill="#032068"/>
<path d="M54.2724 376.505L63.4207 372.898C66.9308 371.514 68.9532 367.821 68.2422 364.113C66.2697 353.825 63.7497 340.313 61.9006 329.493L30.3265 343.332C33.8628 352.939 40.6407 366.296 43.5876 371.773L45.0785 373.825C47.1752 376.711 50.9558 377.812 54.2724 376.505Z" fill="white"/>
<path d="M59.3753 311.73C59.3753 306.168 69.2685 289.819 73.8994 280.128C63.7271 310.4 63.1352 317.509 67.8708 362.538C64.911 347.726 59.3753 314.384 59.3753 311.73Z" fill="#032068"/>
<path d="M98.6512 217.38C102.913 219.276 107.136 218.17 108.715 217.38L109.898 223.305C104.216 223.305 100.032 219.355 98.6512 217.38Z" fill="#032068"/>
</svg>
