<svg width="512" height="512" viewBox="0 0 512 512" fill="none" xmlns="http://www.w3.org/2000/svg">
<path d="M157.25 423.408H350.841H402.309C444.35 423.408 469.077 376.2 445.126 341.665C439.083 332.95 435.844 322.6 435.844 311.996V233.067C435.844 196.061 400.241 169.459 364.732 179.934C338.772 187.592 311.074 175.387 299.219 151.065L291.306 134.832C273.632 98.5734 229.249 84.4061 193.822 103.714L121.609 143.071C89.7586 160.43 79.7803 201.429 100.094 231.472L114.104 252.192C127.322 271.741 120.46 298.442 99.4533 309.203C79.2677 319.543 71.9893 344.758 83.5619 364.257L98.9825 390.24C111.186 410.802 133.332 423.408 157.25 423.408Z" fill="#E7E8FF"/>
<path d="M280.104 160.013C173.826 160.013 87.6699 246.293 87.6699 352.724C87.6699 377.221 92.234 400.65 100.557 422.205H459.652C467.975 400.65 472.539 377.221 472.539 352.724C472.539 246.293 386.383 160.013 280.104 160.013Z" fill="white"/>
<path fill-rule="evenodd" clip-rule="evenodd" d="M280.104 161.4C174.589 161.4 89.054 247.06 89.054 352.724C89.054 376.711 93.4613 399.664 101.508 420.818H458.7C466.747 399.664 471.154 376.711 471.154 352.724C471.154 247.06 385.619 161.4 280.104 161.4ZM86.2852 352.724C86.2852 245.526 173.062 158.626 280.104 158.626C387.147 158.626 473.923 245.526 473.923 352.724C473.923 377.395 469.326 400.993 460.943 422.706L460.6 423.592H99.608L99.2656 422.706C90.8819 400.993 86.2852 377.395 86.2852 352.724Z" fill="#032068"/>
<path d="M333.313 204.541C334.528 202.838 337.104 197.825 337.687 191.401C338.216 185.569 346.398 178.493 351.536 174.872C364.171 178.679 396.292 193.737 423.699 223.52C451.107 253.303 464.762 294.813 468.163 311.846H457.959C454.071 313.306 445.713 316.226 443.38 316.226C441.048 316.226 437.063 313.306 435.362 311.846H428.073L416.41 322.066C414.223 323.039 408.975 325.569 405.476 327.905C401.978 330.241 399.159 328.879 398.187 327.905L395.272 322.066L381.422 319.146V316.226L377.049 311.846H368.302C366.601 311.846 361.158 309.51 352.994 300.167C347.163 297.247 352.994 295.057 326.024 270.238C326.024 267.902 319.221 266.345 315.819 265.858L307.072 270.238L297.596 273.158C295.41 272.671 291.036 270.53 291.036 265.858C291.036 260.018 285.205 261.478 285.205 258.558V249.069C287.877 246.636 294.098 239.433 297.596 230.09C299.929 224.25 307.801 224.25 311.446 224.98V219.14L315.819 216.22L326.024 212.571C326.753 210.867 328.794 207.169 331.127 206.001C333.459 204.833 333.556 204.541 333.313 204.541Z" fill="#032068"/>
<path d="M213.771 173.882L210.855 172.422C199.679 176.072 171.494 188.92 148.169 211.111C124.843 233.302 113.179 253.935 110.263 261.478L111.723 265.858C111.236 267.318 109.826 271.114 108.076 274.618C106.327 278.122 108.805 278.998 110.263 278.998C110.749 280.457 112.158 284.545 113.908 289.217C115.657 293.889 116.095 297.003 116.095 297.977C116.581 299.193 117.844 302.94 119.01 308.196C120.468 314.766 117.553 314.766 116.095 316.226C114.929 317.394 115.609 318.659 116.095 319.146C117.553 321.579 121.197 327.759 124.113 333.015C127.758 339.585 126.3 339.585 127.029 342.505C127.758 345.424 131.402 344.695 135.047 339.585C137.234 337.395 137.234 338.125 138.691 331.555C140.149 324.985 138.691 328.635 138.691 321.336C139.42 318.416 139.42 319.146 141.607 317.686C143.794 316.226 146.709 316.226 146.709 311.846C146.709 307.466 145.98 308.926 146.709 306.736C147.438 304.546 149.625 305.276 154.727 300.167C155.456 297.247 155.456 297.977 157.643 290.677C159.829 283.377 159.1 287.757 165.661 281.917C172.221 276.078 170.034 278.998 170.763 276.078C171.492 273.158 175.137 271.698 180.239 270.238C185.342 268.778 188.986 271.698 191.173 270.238C193.36 268.778 195.546 270.238 197.735 270.238C199.924 270.238 203.567 270.238 205.753 268.048C207.939 265.858 205.753 262.208 205.753 260.018V252.719C205.753 251.259 203.567 249.069 203.567 247.609C203.567 246.149 199.193 243.959 197.735 241.039C196.277 238.119 195.548 236.659 197.735 234.47C199.485 232.718 199.436 228.873 199.193 227.17C198.707 225.953 197.735 222.644 197.735 219.14V214.03C197.735 211.841 197.735 211.111 203.567 207.461C207.211 206.001 205.753 206.001 205.753 197.971V192.861C205.753 190.672 205.024 182.642 205.753 181.182C206.336 180.014 207.939 179.235 208.668 178.992L213.042 176.072L213.771 173.882Z" fill="#032068"/>
<path d="M203.567 212.571C203.567 211.403 206.482 210.137 207.94 209.651L211.585 211.111C212.8 211.597 215.375 212.717 215.958 213.3C216.687 214.03 218.874 214.03 221.79 212.571C224.705 211.111 225.434 212.571 227.621 211.111C229.808 209.651 235.639 212.571 236.368 214.03C237.097 215.49 240.741 216.22 241.47 218.41C242.199 220.6 240.013 224.98 239.284 224.98C238.555 224.98 234.181 231.55 232.723 231.55C231.266 231.55 224.705 234.47 223.247 234.47C221.79 234.47 221.061 235.929 218.874 235.929C216.687 235.929 217.416 238.849 215.229 241.039C213.48 242.791 213.043 244.689 213.043 245.419C212.071 246.636 210.127 248.777 210.127 247.609C210.127 246.149 209.398 246.149 209.398 244.689V238.849V235.929C209.398 234.47 207.94 235.929 207.94 234.47C207.94 233.01 203.567 231.55 203.567 224.98C203.566 222.79 202.838 223.52 202.838 222.06C202.838 220.6 202.109 219.87 202.838 219.14L203.567 218.41L203.567 212.571Z" fill="#032068"/>
<path d="M315.819 414.041C317.52 415.258 321.943 418.421 326.024 421.341C326.445 421.642 326.797 421.93 327.088 422.205H342.668C342.164 421.077 341.49 419.817 340.603 418.421V414.041C342.79 411.365 346.872 404.99 345.706 400.902C345.706 397.252 345.706 398.712 352.994 389.222C357.367 382.653 352.994 387.033 358.826 382.653C364.658 378.273 363.2 379.733 370.489 373.163C374.134 368.053 372.676 370.243 374.134 366.594C375.591 362.944 374.134 357.834 378.507 354.914C382.006 352.578 381.908 353.454 381.422 354.184H386.525C388.858 354.184 388.955 350.291 388.712 348.344C387.254 347.614 382.881 344.403 377.049 337.395C378.021 335.935 379.382 332.431 377.049 330.095C374.132 327.175 375.591 326.445 374.134 325.715C372.676 324.985 367.573 320.606 365.387 316.226C363.2 311.846 363.2 311.846 360.284 311.846C357.952 311.846 356.883 309.899 356.64 308.926C353.967 308.196 348.038 306.298 345.706 304.546C342.79 302.356 345.706 300.167 345.706 297.977C345.706 295.787 340.603 290.677 337.688 290.677C334.772 290.677 335.501 287.027 333.314 286.297C331.565 285.713 331.613 281.674 331.856 279.727L322.38 277.538C319.465 277.051 313.342 276.37 312.176 277.538C310.718 278.997 304.157 278.998 301.971 279.727C299.784 280.457 297.596 285.567 297.596 287.027C297.596 288.487 292.495 293.597 288.121 293.597C283.748 293.597 285.205 297.977 280.832 300.167C276.459 302.356 275.73 306.736 274.272 308.926C272.814 311.116 273.543 311.846 277.916 319.146C282.29 326.445 279.374 322.066 280.103 323.525C280.832 324.985 280.103 327.905 280.832 330.095C281.561 332.285 285.205 332.285 288.121 333.015C291.038 333.745 291.036 335.935 292.495 337.395C293.662 338.563 294.439 341.288 294.681 342.505C293.953 343.478 292.495 346.008 292.495 348.344V354.184C292.495 356.374 292.495 360.024 291.036 361.484C289.578 362.944 288.121 365.134 288.121 366.594C288.121 368.053 285.205 369.513 288.121 373.163C291.038 373.163 291.036 376.083 292.495 376.813C293.662 377.397 294.439 379.003 294.681 379.733C294.924 380.706 295.848 382.945 297.596 384.113C299.782 385.573 301.242 387.763 304.157 389.222C307.073 390.682 309.26 393.602 311.447 395.792C313.196 397.544 312.176 398.469 311.447 398.712L315.819 404.552V409.662V414.041Z" fill="#032068"/>
<path d="M370.489 411.121C370.489 408.786 375.834 403.335 378.507 400.902V398.712C381.18 397.739 386.817 395.938 387.983 396.522C389.149 397.106 390.899 398.225 391.628 398.712C393.328 400.659 397.022 404.552 398.187 404.552C399.644 404.552 398.187 409.662 399.646 411.121C401.104 412.581 401.833 414.041 404.019 415.501C406.206 416.961 405.476 418.421 410.58 418.421H416.41C419.325 418.421 419.327 421.341 422.971 419.881C425.887 418.713 428.56 419.394 429.531 419.881L430.989 422.071H376.857C377.342 421.368 377.889 420.638 378.507 419.881C382.006 418.713 379.965 418.421 378.507 418.421C375.834 416.961 370.489 413.457 370.489 411.121Z" fill="#032068"/>
<path d="M413.495 406.742L414.953 400.902V395.792C415.439 395.306 417.139 393.894 420.056 392.142C423.701 389.952 420.784 394.332 422.971 396.522C425.158 398.712 425.887 400.902 425.887 403.092C425.887 405.282 428.073 406.742 435.362 404.552C436.819 404.552 440.465 404.552 441.923 406.742C440.466 408.932 438.278 412.581 435.362 412.581C433.029 412.581 432.447 411.608 432.447 411.121C430.26 411.608 425.304 412.581 422.971 412.581H416.41C416.41 411.608 416.119 409.662 414.953 409.662C413.787 409.662 413.495 407.715 413.495 406.742Z" fill="#032068"/>
<path d="M148.169 419.881C145.01 418.908 138.691 416.377 138.691 414.041C138.691 411.705 138.692 407.715 138.693 406.012C138.45 404.552 137.674 401.34 136.506 400.172C135.047 398.712 127.761 403.822 131.404 396.522C134.318 390.682 135.047 380.95 135.047 376.813L138.693 370.243C140.878 369.027 145.541 366.594 146.709 366.594C147.877 366.594 149.627 363.187 150.356 361.484V359.294C150.599 358.077 152.105 355.498 156.187 354.914C165.663 354.184 177.326 348.344 180.97 348.344C183.886 348.344 187.044 344.451 188.259 342.505H194.82C197.735 342.505 199.922 341.045 200.651 342.505C201.38 343.965 206.482 345.424 208.669 348.344C210.231 350.43 213.46 352.671 215.344 353.82C215.435 353.538 215.72 353.826 215.958 354.184C215.776 354.08 215.57 353.958 215.344 353.82C215.249 354.113 215.364 355.021 215.958 357.104C217.416 362.214 210.856 362.944 216.687 368.053C222.519 373.163 222.519 369.513 224.705 373.163C224.705 392.872 222.519 396.522 222.519 398.712C222.519 400.902 219.603 399.442 224.705 404.552C229.808 409.662 231.994 409.662 233.452 409.662C234.91 409.662 236.368 408.202 237.097 411.121C237.097 418.421 240.741 418.421 240.741 419.881C240.741 421.163 239.617 419.63 240.331 422.205H151.418L148.169 419.881Z" fill="#032068"/>
<path fill-rule="evenodd" clip-rule="evenodd" d="M364.295 347.637C371.232 347.637 401.579 294.24 401.579 273.87C401.579 253.5 384.886 236.987 364.295 236.987C343.703 236.987 327.011 253.5 327.011 273.87C327.011 294.24 354.757 347.637 364.295 347.637ZM364.296 293.219C374.843 293.219 383.393 284.691 383.393 274.172C383.393 263.653 374.843 255.126 364.296 255.126C353.749 255.126 345.199 263.653 345.199 274.172C345.199 284.691 353.749 293.219 364.296 293.219Z" fill="white"/>
<path d="M121.239 171.768C101.438 185.773 109.76 210.669 113.491 220.317L111.856 240.003C113.549 246.201 119.69 258.596 130.709 258.596C141.729 258.596 146.78 248.015 147.928 242.724L146.206 227.786C159.12 223.118 159.981 204.445 159.12 189.507C158.098 171.768 138.68 159.432 121.239 171.768Z" fill="white"/>
<path fill-rule="evenodd" clip-rule="evenodd" d="M145.766 170.447C139.019 166.906 130.298 166.865 121.948 172.771C112.464 179.479 109.699 188.767 109.769 197.667C109.839 206.615 112.782 215.078 114.636 219.874L114.738 220.137L113.099 239.886C113.94 242.856 115.813 247.222 118.741 250.852C121.735 254.564 125.709 257.367 130.709 257.367C135.773 257.367 139.471 254.953 142.081 251.853C144.646 248.806 146.111 245.145 146.684 242.659L144.874 226.961L145.789 226.631C151.684 224.499 154.956 219.148 156.635 212.209C158.312 205.273 158.322 197.02 157.894 189.578C157.407 181.142 152.549 174.008 145.766 170.447ZM110.633 239.89L112.243 220.496C110.359 215.593 107.384 206.931 107.312 197.686C107.238 188.224 110.213 178.061 120.53 170.765C129.621 164.335 139.33 164.294 146.908 168.272C154.449 172.23 159.81 180.133 160.346 189.436C160.778 196.932 160.789 205.484 159.023 212.787C157.335 219.763 153.958 225.844 147.535 228.583L149.172 242.786L149.129 242.985C148.52 245.788 146.895 249.949 143.961 253.435C141.004 256.948 136.666 259.824 130.709 259.824C124.69 259.824 120.083 256.43 116.829 252.395C113.719 248.539 111.731 243.97 110.793 240.757L110.547 240.732L110.633 239.89Z" fill="#032068"/>
<path d="M129.66 251.542C142.59 251.542 148.659 243.602 150.076 239.632C162.093 241.348 186.566 251.443 199.517 270.87C214.967 294.047 226.984 355.852 231.276 370.445C234.709 382.119 247.965 409.388 255.118 421.692H209.625H81.1704C68.1263 422.543 39.6564 422.883 30.1286 417.438C18.2189 410.632 7.15988 375.752 30.1286 306.841C48.5036 251.712 91.6621 239.064 110.944 239.632C111.795 243.602 116.729 251.542 129.66 251.542Z" fill="white"/>
<path fill-rule="evenodd" clip-rule="evenodd" d="M149.257 238.273L150.25 238.415C156.434 239.299 165.7 242.311 175.046 247.537C184.399 252.767 193.925 260.267 200.539 270.189C208.392 281.97 215.302 303.41 220.766 323.555C223.507 333.66 225.898 343.492 227.87 351.702C228.101 352.665 228.326 353.604 228.545 354.518C230.202 361.427 231.517 366.911 232.454 370.099C234.141 375.834 238.275 385.492 242.912 395.308C247.541 405.104 252.627 414.963 256.18 421.075L257.253 422.921H81.2103C74.6501 423.347 64.2457 423.644 54.2705 423.153C49.2731 422.907 44.3605 422.462 40.082 421.731C35.8325 421.004 32.093 419.976 29.5191 418.505C26.2353 416.628 23.1661 412.919 20.7512 407.475C18.3287 402.014 16.5233 394.718 15.8242 385.522C14.426 367.129 17.4438 341.013 28.9631 306.452C47.5332 250.738 91.2349 237.823 110.981 238.404L111.944 238.432L112.146 239.374C112.883 242.816 117.347 250.313 129.66 250.313C142.014 250.313 147.656 242.756 148.919 239.218L149.257 238.273ZM109.998 240.843C90.7481 240.708 49.1865 253.548 31.294 307.229C19.8446 341.58 16.9076 367.359 18.2741 385.336C18.9574 394.324 20.7143 401.332 22.9971 406.479C25.2876 411.642 28.0669 414.845 30.7381 416.372C32.928 417.623 36.3202 418.594 40.4961 419.309C44.6431 420.018 49.4496 420.456 54.3912 420.699C64.2737 421.185 74.6042 420.889 81.0904 420.466L81.1303 420.463H252.999C249.495 414.248 244.899 405.264 240.691 396.357C236.054 386.544 231.844 376.731 230.097 370.792C229.141 367.539 227.809 361.986 226.159 355.104C225.939 354.184 225.713 353.241 225.481 352.276C223.51 344.069 221.126 334.266 218.395 324.198C212.916 303.998 206.091 282.947 198.495 271.551C192.158 262.046 182.972 254.785 173.847 249.682C165.192 244.842 156.675 241.99 150.843 240.995C148.743 245.543 142.247 252.771 129.66 252.771C117.021 252.771 111.469 245.474 109.998 240.843Z" fill="#032068"/>
<path d="M202.95 331.817L220.976 421.949H213.25L202.95 331.817Z" fill="#032068"/>
<path d="M67.7089 421.742C47.2002 396.745 25.5165 387.825 17.2383 386.49C17.2383 394.502 21.2439 409.724 28.454 416.935C34.2221 422.703 57.0273 422.543 67.7089 421.742Z" fill="#032068"/>
<path d="M127.96 329.812C122.005 332.364 77.7692 353.065 57.3525 362.991C59.9046 358.737 70.1129 351.931 72.665 349.379C75.2171 346.827 84.5747 317.05 84.5747 321.304C84.5747 325.558 79.4706 345.125 82.0226 345.125C84.5747 345.125 120.304 329.812 127.96 329.812Z" fill="#032068"/>
<path d="M145.825 354.483C109.755 402.806 80.3213 419.991 70.1129 422.543H87.9775C118.602 398.722 139.303 367.245 145.825 354.483Z" fill="#032068"/>
<path d="M155.923 291.703L149.389 355.412C149.306 356.225 150.024 356.891 150.829 356.747L181.532 351.236C182.051 351.143 182.452 350.729 182.53 350.207L191.532 289.64C191.648 288.862 191.014 288.178 190.23 288.234L157.058 290.603C156.463 290.646 155.984 291.11 155.923 291.703Z" fill="white"/>
<path fill-rule="evenodd" clip-rule="evenodd" d="M190.142 287.008C191.71 286.896 192.979 288.265 192.748 289.82L183.745 350.388C183.59 351.431 182.787 352.259 181.749 352.445L151.046 357.956C149.438 358.245 148.001 356.913 148.168 355.287L154.701 291.578C154.823 290.391 155.78 289.463 156.97 289.378L190.142 287.008ZM190.317 289.459L157.145 291.829L150.612 355.538L181.315 350.027L190.317 289.459Z" fill="#032068"/>
<path d="M114.113 215.436L112.398 232.365C111.826 231.111 110.511 227.474 109.825 222.96C108.967 217.317 95.2436 195.687 99.5321 179.699C102.963 166.908 112.398 167.473 116.686 169.354C119.26 164.651 134.698 148.663 156.999 150.544C179.3 152.425 181.873 184.401 163.861 189.103C149.451 192.865 133.269 190.671 126.979 189.103C126.407 190.357 124.749 194.558 122.69 201.329C120.117 209.794 120.117 211.674 119.26 206.032C118.402 200.389 114.971 190.044 110.682 200.389C107.251 208.665 111.54 213.869 114.113 215.436Z" fill="#032068"/>
<path d="M126.574 227.447C132.476 230.922 141.602 228.895 145.427 227.447L146.247 233.529C137.722 235.614 129.58 230.343 126.574 227.447Z" fill="#032068"/>
<path d="M140.718 321.304C138.676 326.749 134.763 330.379 133.062 331.513L144.121 348.528C147.523 345.125 151.777 345.125 161.134 340.872C170.492 336.618 173.044 321.304 170.492 312.797C168.45 305.991 156.597 311.095 151.777 314.498L152.627 305.14C146.673 307.692 143.27 314.498 140.718 321.304Z" fill="white"/>
<path fill-rule="evenodd" clip-rule="evenodd" d="M154.038 303.199L153.226 312.129C155.693 310.711 158.888 309.293 161.91 308.62C163.908 308.175 165.967 308.025 167.725 308.532C169.568 309.064 171.029 310.311 171.669 312.444C173.022 316.952 173.004 323.146 171.464 328.755C169.93 334.346 166.795 339.648 161.643 341.99C157.837 343.72 154.845 344.763 152.458 345.595C151.874 345.799 151.326 345.99 150.811 346.175C148.182 347.121 146.488 347.898 144.99 349.397L143.917 350.469L131.37 331.165L132.38 330.491C133.906 329.474 137.632 326.037 139.568 320.873C140.855 317.44 142.383 313.934 144.375 310.946C146.368 307.955 148.874 305.412 152.144 304.011L154.038 303.199ZM146.419 312.308C144.583 315.063 143.133 318.363 141.868 321.736C140.042 326.608 136.8 330.102 134.718 331.806L144.375 346.665C145.995 345.399 147.806 344.645 149.979 343.863C150.519 343.668 151.085 343.471 151.681 343.263C154.063 342.433 156.932 341.433 160.626 339.753C164.832 337.841 167.652 333.36 169.095 328.104C170.533 322.866 170.515 317.149 169.316 313.15C168.935 311.88 168.149 311.212 167.044 310.893C165.856 310.55 164.266 310.613 162.444 311.018C158.813 311.827 154.792 313.874 152.486 315.502L150.313 317.036L151.197 307.307C149.365 308.523 147.796 310.242 146.419 312.308Z" fill="#032068"/>
<path d="M319.393 124.993L322.949 105.682L327.833 109.076L331.399 119.018C335.61 120.253 347.71 124.679 362.683 129.555C381.399 135.65 386.683 138.709 391.448 147.646C396.214 156.583 389.935 156.399 387.061 155.405C384.399 155.17 340.836 135.155 319.393 124.993Z" fill="#032068"/>
<path d="M369.123 140.491L352.006 133.055L328.275 150.215L333.894 153.673L369.123 140.491Z" fill="#032068"/>
<path d="M351.153 113.356L354.395 126.972L369.167 131.608L357.637 115.409L351.153 113.356Z" fill="#032068"/>
<path fill-rule="evenodd" clip-rule="evenodd" d="M287.756 121.537C286.239 121.521 284.682 121.522 283.086 121.541L283.058 119.136C284.671 119.117 286.246 119.116 287.781 119.132L287.756 121.537ZM297.069 121.859C295.577 121.768 294.025 121.695 292.418 121.64L292.5 119.236C294.128 119.291 295.701 119.366 297.216 119.458L297.069 121.859ZM278.414 121.645C276.885 121.695 275.327 121.761 273.741 121.844L273.615 119.442C275.217 119.358 276.791 119.291 278.335 119.241L278.414 121.645ZM269.071 122.135C267.537 122.246 265.981 122.372 264.405 122.515L264.187 120.12C265.778 119.975 267.35 119.847 268.898 119.736L269.071 122.135ZM304.026 122.447C303.286 122.365 302.524 122.287 301.74 122.215L301.962 119.82C302.759 119.894 303.536 119.972 304.291 120.056L304.026 122.447ZM259.753 122.982C258.224 123.15 256.679 123.334 255.118 123.534L254.811 121.148C256.387 120.946 257.947 120.761 259.491 120.591L259.753 122.982ZM250.49 124.172C248.962 124.397 247.422 124.638 245.87 124.896L245.476 122.523C247.042 122.263 248.597 122.019 250.139 121.792L250.49 124.172ZM241.261 125.706C239.737 125.988 238.205 126.287 236.663 126.603L236.181 124.246C237.737 123.927 239.284 123.626 240.822 123.341L241.261 125.706ZM232.099 127.583C230.59 127.922 229.073 128.277 227.552 128.65L226.98 126.313C228.516 125.937 230.048 125.578 231.572 125.236L232.099 127.583ZM223.021 129.806C221.521 130.205 220.017 130.62 218.51 131.053L217.846 128.741C219.369 128.304 220.888 127.884 222.403 127.481L223.021 129.806ZM214.033 132.387C212.553 132.845 211.07 133.319 209.587 133.812L208.829 131.529C210.329 131.031 211.827 130.551 213.323 130.089L214.033 132.387ZM205.166 135.331C203.702 135.851 202.238 136.389 200.775 136.945L199.921 134.696C201.4 134.134 202.881 133.59 204.361 133.064L205.166 135.331ZM196.432 138.649C194.994 139.232 193.558 139.832 192.124 140.451L191.171 138.243C192.621 137.617 194.074 137.009 195.528 136.42L196.432 138.649ZM187.855 142.353C186.445 143.001 185.037 143.667 183.634 144.352L182.579 142.19C183.999 141.497 185.424 140.823 186.851 140.167L187.855 142.353ZM179.467 146.448C178.089 147.163 176.715 147.896 175.348 148.648L174.189 146.54C175.574 145.778 176.964 145.036 178.36 144.313L179.467 146.448ZM171.283 150.95C169.944 151.731 168.612 152.531 167.286 153.35L166.022 151.304C167.365 150.474 168.715 149.664 170.071 148.873L171.283 150.95ZM163.35 155.856C162.051 156.707 160.76 157.577 159.477 158.467L158.105 156.491C159.406 155.588 160.715 154.706 162.032 153.843L163.35 155.856ZM155.686 161.176C154.437 162.094 153.197 163.031 151.967 163.989L150.489 162.092C151.737 161.12 152.994 160.169 154.261 159.237L155.686 161.176ZM148.323 166.91C147.13 167.895 145.946 168.9 144.773 169.925L143.19 168.114C144.38 167.074 145.581 166.054 146.792 165.055L148.323 166.91ZM141.309 173.044C140.171 174.098 139.044 175.173 137.929 176.268L136.244 174.552C137.375 173.44 138.519 172.349 139.674 171.279L141.309 173.044ZM134.658 179.578C134.119 180.14 133.583 180.707 133.05 181.279L131.29 179.639C131.831 179.059 132.375 178.483 132.923 177.913L134.658 179.578Z" fill="#032068"/>
<path d="M463.222 256.054C454.045 235.643 436.88 213.773 429.444 205.39C433.792 208.292 444.246 216.18 451.281 224.515C454.545 221.98 462.48 218.504 468.115 224.884C475.159 232.857 467.839 237.509 467.799 239.313C467.76 241.116 473.144 242.437 471.837 247.221C470.529 252.004 468.111 252.553 468.633 256.173C469.155 259.793 465.522 260.881 463.222 256.054Z" fill="#E7E8FF"/>
</svg>
