<svg width="512" height="512" viewBox="0 0 512 512" fill="none" xmlns="http://www.w3.org/2000/svg">
<path d="M106.787 461.091H278.649H428.859C468.276 461.091 491.201 416.65 468.283 384.663C459.329 372.167 456.864 356.17 461.643 341.569L488.288 260.151C505.574 207.33 493.344 149.326 456.191 107.923L437.671 87.2855C397.338 42.3387 329.594 33.5894 278.589 66.0022C250.436 83.8924 215.755 89.568 183.424 81.2821L173.315 78.6912C120.217 65.083 65.2641 93.019 45.1068 143.868L44.3586 145.755C33.8994 172.14 34.7318 201.645 46.6618 227.401L51.7316 238.346C65.0265 267.049 60.902 300.951 41.2911 325.792C14.5703 359.64 17.8692 408.489 49.1882 438.157C64.7316 452.881 85.35 461.091 106.787 461.091Z" fill="#E7E8FF"/>
<path d="M403.883 461.274H391.776C403.201 427.077 417.339 411.208 425.378 405.85C426.891 404.842 428.655 406.058 428.496 407.867C426.24 433.555 411.375 454.001 403.883 461.274Z" fill="white"/>
<path fill-rule="evenodd" clip-rule="evenodd" d="M426.859 406.861C427.067 406.999 427.266 407.299 427.226 407.756C425.04 432.647 410.809 452.578 403.361 460.002H393.552C404.821 427.118 418.495 411.967 426.086 406.908C426.411 406.691 426.673 406.738 426.859 406.861ZM428.269 404.743C427.235 404.058 425.859 404.001 424.67 404.793C416.311 410.364 402.042 426.523 390.567 460.872L390.008 462.545H404.401L404.772 462.185C412.418 454.762 427.476 434.049 429.765 407.978C429.884 406.626 429.281 405.413 428.269 404.743Z" fill="#032068"/>
<path d="M431.186 337.795C437.276 385.782 407.722 440.643 391.776 462.545H373.934C382.436 372.068 410.919 340.821 427.054 335.03C429.005 334.33 430.925 335.742 431.186 337.795Z" fill="#032068"/>
<path fill-rule="evenodd" clip-rule="evenodd" d="M411.939 371.684L417.966 353.427L420.387 354.223L405.343 399.789L416.738 394.63L417.791 396.945L404.259 403.073L391.847 440.669L402.659 435.338L403.788 437.618L390.728 444.058L384.703 462.308L382.282 461.512L394.521 424.441L388.045 408.341L390.41 407.394L395.759 420.691L410.686 375.478L405.882 363.188L408.257 362.264L411.939 371.684Z" fill="white"/>
<path d="M401.634 305.938C420.716 353.072 396.487 428.636 381.581 461.274H360.553C361.023 358.576 383.195 315.722 396.806 304.51C398.472 303.138 400.825 303.939 401.634 305.938Z" fill="white"/>
<path fill-rule="evenodd" clip-rule="evenodd" d="M397.617 305.491C398.504 304.761 399.908 305.068 400.453 306.414C409.854 329.635 408.623 360.012 403.101 388.803C397.671 417.118 388.132 443.691 380.76 460.002H361.835C362.157 409.412 367.774 373.544 374.975 348.941C382.249 324.088 391.1 310.859 397.617 305.491ZM402.816 305.461C401.742 302.809 398.441 301.515 395.995 303.53C388.901 309.373 379.86 323.177 372.528 348.228C365.184 373.323 359.514 409.835 359.279 461.268L359.273 462.545H382.401L382.741 461.801C390.23 445.403 400.048 418.256 405.605 389.281C411.154 360.346 412.497 329.374 402.816 305.461Z" fill="#032068"/>
<path fill-rule="evenodd" clip-rule="evenodd" d="M388.637 355.606L393.069 329.453L395.582 329.877L386.683 382.394L397.471 375.637L398.826 377.791L386.113 385.753L378.651 429.787L386.752 425.801L387.88 428.082L378.127 432.881L373.28 461.486L370.766 461.062L378.779 413.78L370.878 397.617L373.169 396.502L379.509 409.472L387.934 359.757L379.814 344.241L382.074 343.064L388.637 355.606Z" fill="#032068"/>
<path d="M421.148 124.029C421.148 149.952 400.134 170.967 374.21 170.967C348.287 170.967 327.272 149.952 327.272 124.029C327.272 98.1058 348.287 77.0909 374.21 77.0909C400.134 77.0909 421.148 98.1058 421.148 124.029Z" fill="white"/>
<path fill-rule="evenodd" clip-rule="evenodd" d="M374.211 78.5454C349.091 78.5454 328.727 98.9091 328.727 124.029C328.727 149.149 349.091 169.512 374.211 169.512C399.331 169.512 419.694 149.149 419.694 124.029C419.694 98.9091 399.331 78.5454 374.211 78.5454ZM325.818 124.029C325.818 97.3024 347.484 75.6364 374.211 75.6364C400.937 75.6364 422.603 97.3024 422.603 124.029C422.603 150.755 400.937 172.421 374.211 172.421C347.484 172.421 325.818 150.755 325.818 124.029Z" fill="#032068"/>
<path d="M384.214 124.029C384.214 129.554 379.736 134.032 374.211 134.032C368.687 134.032 364.208 129.554 364.208 124.029C364.208 118.504 368.687 114.026 374.211 114.026C379.736 114.026 384.214 118.504 384.214 124.029Z" fill="#E7E8FF"/>
<path fill-rule="evenodd" clip-rule="evenodd" d="M373.044 84.657L376.483 123.365L359.171 144.196L356.934 142.336L373.479 122.428L370.146 84.9144L373.044 84.657Z" fill="#032068"/>
<path d="M359.306 205.042L361.677 197.463C362.099 196.113 364.004 196.099 364.446 197.442L366.873 204.807C367.02 205.253 367.372 205.6 367.82 205.74L375.92 208.274C377.224 208.681 377.297 210.5 376.029 211.011L368.072 214.216C367.685 214.372 367.384 214.686 367.245 215.079L364.097 223.962C363.629 225.281 361.751 225.244 361.336 223.907L358.721 215.467C358.594 215.056 358.291 214.722 357.894 214.556L349.028 210.842C347.724 210.296 347.887 208.399 349.265 208.083L358.243 206.025C358.747 205.91 359.152 205.535 359.306 205.042Z" fill="white"/>
<path d="M431.262 271.572L433.005 269.691C433.966 268.653 435.693 269.459 435.515 270.862L435.203 273.331C435.144 273.796 435.313 274.262 435.657 274.581L437.939 276.694C438.941 277.623 438.226 279.296 436.861 279.213L433.666 279.017C433.25 278.992 432.843 279.146 432.548 279.441L430.018 281.975C429.029 282.966 427.348 282.124 427.549 280.739L428.01 277.551C428.071 277.125 427.941 276.694 427.654 276.373L425.236 273.672C424.293 272.618 425.256 270.975 426.636 271.282L429.88 272.003C430.384 272.116 430.911 271.951 431.262 271.572Z" fill="white"/>
<path d="M101.153 140.19L95.1553 148.182C94.7903 148.669 94.1951 148.903 93.6122 148.789L86.1986 147.344C84.6036 147.033 83.6414 149.118 84.8723 150.218L90.6989 155.425C91.1243 155.805 91.3252 156.39 91.2274 156.965L89.7657 165.55C89.4909 167.164 91.4008 168.163 92.4822 166.971L98.4674 160.373C98.8188 159.986 99.3283 159.799 99.8356 159.871L106.762 160.852C108.323 161.073 109.206 159.05 108.02 157.973L102.869 153.296C102.455 152.92 102.257 152.349 102.346 151.785L103.97 141.473C104.236 139.786 102.165 138.843 101.153 140.19Z" fill="white"/>
<path d="M31.3736 245.702L27.2948 251.031C27.0466 251.355 26.6419 251.511 26.2455 251.435L21.2043 250.472C20.1197 250.264 19.4654 251.655 20.3024 252.388L24.2645 255.859C24.5537 256.112 24.6904 256.503 24.6239 256.886L23.6299 262.609C23.443 263.685 24.7418 264.351 25.4771 263.556L29.547 259.158C29.786 258.9 30.1324 258.775 30.4774 258.823L35.1876 259.477C36.2486 259.624 36.8495 258.276 36.0427 257.558L32.5398 254.44C32.2585 254.189 32.1241 253.808 32.1845 253.433L33.2889 246.558C33.4696 245.433 32.0611 244.804 31.3736 245.702Z" fill="#032068"/>
<path d="M126.254 215.348L86.6254 242.496C86.5354 242.558 86.4128 242.534 86.3514 242.444C81.9564 235.98 83.6208 227.159 90.0689 222.742L106.672 211.368C113.121 206.95 121.911 208.609 126.306 215.073C126.367 215.164 126.344 215.287 126.254 215.348Z" fill="#032068"/>
<path d="M131.199 229.372L97.8341 252.229C96.0146 253.475 93.5343 253.007 92.2941 251.183L88.7162 245.921C87.4761 244.097 87.9457 241.608 89.7652 240.361L123.13 217.504C124.95 216.258 127.43 216.726 128.67 218.55L132.248 223.812C133.488 225.636 133.019 228.125 131.199 229.372Z" fill="white"/>
<path fill-rule="evenodd" clip-rule="evenodd" d="M87.6171 246.674C85.9635 244.242 86.5897 240.923 89.0158 239.261L122.382 216.403C124.808 214.741 128.115 215.365 129.769 217.797L133.347 223.06C135 225.492 134.374 228.81 131.948 230.472L98.5819 253.33C96.1559 254.992 92.8487 254.368 91.1951 251.936L87.6171 246.674ZM90.5128 241.463C89.2998 242.294 88.9867 243.953 89.8135 245.169L93.3915 250.431C94.2183 251.647 95.8719 251.959 97.0849 251.128L130.451 228.271C131.664 227.44 131.977 225.78 131.15 224.564L127.572 219.302C126.745 218.086 125.092 217.774 123.879 218.605L90.5128 241.463Z" fill="#032068"/>
<path d="M130.477 249.456L116.735 258.87C109.497 263.829 99.6288 261.966 94.6949 254.71C94.6153 254.593 94.6454 254.433 94.7622 254.353L134.294 227.271C134.411 227.191 134.57 227.221 134.65 227.338C139.584 234.595 137.715 244.497 130.477 249.456Z" fill="#032068"/>
<path d="M86.0266 266.458C87.0592 269.874 85.5963 276.016 84.7358 278.659L109.909 281.71C110.124 279.676 110.683 275.121 111.2 273.169C111.845 270.728 117.654 265.848 118.944 262.187C119.977 259.259 118.084 249.579 117.008 245.105C111.845 245.716 110.554 248.766 109.909 249.986C109.263 251.206 108.618 260.357 108.618 260.967C106.493 261.984 100.944 261.577 95.7492 256.697L87.3174 245.105C82.1541 253.646 84.7357 262.187 86.0266 266.458Z" fill="white"/>
<path fill-rule="evenodd" clip-rule="evenodd" d="M87.2153 242.703L96.7479 255.807C99.1559 258.042 101.607 259.229 103.661 259.75C105.24 260.151 106.51 260.144 107.34 259.981C107.407 258.942 107.536 257.259 107.698 255.577C107.82 254.31 107.964 253.008 108.119 251.938C108.197 251.404 108.28 250.911 108.369 250.501C108.447 250.138 108.558 249.694 108.735 249.36C108.766 249.302 108.8 249.235 108.838 249.16C109.16 248.534 109.744 247.394 110.853 246.346C112.123 245.146 114.007 244.117 116.853 243.781L118.024 243.642L118.3 244.792C118.845 247.059 119.597 250.64 120.083 254.036C120.326 255.733 120.506 257.409 120.557 258.865C120.607 260.269 120.546 261.644 120.198 262.632C119.81 263.731 119.115 264.846 118.354 265.892C117.583 266.949 116.685 268.014 115.839 269.004C115.735 269.126 115.631 269.247 115.529 269.366C114.788 270.233 114.107 271.028 113.555 271.75C112.897 272.611 112.57 273.186 112.484 273.511C111.999 275.345 111.448 279.791 111.231 281.85L111.088 283.196L82.9696 279.789L83.4722 278.245C83.8827 276.984 84.4449 274.86 84.7767 272.65C85.116 270.389 85.1798 268.252 84.7546 266.845L84.7371 266.787C83.4418 262.502 80.7095 253.464 86.1809 244.413L87.2153 242.703ZM111.204 250.379C111.163 250.459 111.123 250.536 111.083 250.611C111.087 250.603 111.086 250.606 111.081 250.623C111.067 250.665 111.025 250.797 110.967 251.065C110.897 251.392 110.824 251.818 110.75 252.324C110.603 253.331 110.465 254.584 110.344 255.834C110.225 257.08 110.125 258.309 110.055 259.264C110.02 259.741 109.992 260.147 109.974 260.452C109.964 260.604 109.958 260.728 109.953 260.822C109.951 260.868 109.949 260.905 109.948 260.933C109.947 260.958 109.947 260.968 109.947 260.968L109.947 261.809L109.19 262.171C107.744 262.863 105.478 262.964 103.009 262.337C100.484 261.696 97.5988 260.262 94.8408 257.671L94.7495 257.585L87.4839 247.597C83.9752 254.969 86.1021 262.112 87.2986 266.071C87.9061 268.08 87.7547 270.722 87.4055 273.047C87.1615 274.673 86.8036 276.248 86.4578 277.524L108.738 280.224C109.007 277.933 109.468 274.516 109.915 272.826C110.151 271.931 110.793 270.981 111.446 270.126C112.046 269.341 112.78 268.483 113.514 267.626C113.616 267.506 113.719 267.387 113.821 267.267C114.669 266.275 115.505 265.281 116.207 264.317C116.918 263.342 117.433 262.474 117.691 261.742C117.859 261.267 117.949 260.334 117.9 258.959C117.854 257.636 117.687 256.064 117.451 254.416C117.059 251.673 116.485 248.79 115.997 246.628C114.377 246.994 113.354 247.647 112.676 248.288C111.915 249.007 111.527 249.755 111.204 250.379Z" fill="#032068"/>
<path d="M261.279 220.884L267.457 246.788C265.886 252.337 259.124 263.737 244.635 264.942C230.147 266.146 222.792 253.888 220.927 247.608L221.531 230.285C218.094 229.554 210.722 224.477 208.724 210.012C206.228 191.931 208.265 167.377 220.848 160.234C233.431 153.092 253.967 156.465 268.36 183.718C279.873 205.52 268.437 217.579 261.279 220.884Z" fill="white"/>
<path fill-rule="evenodd" clip-rule="evenodd" d="M243.438 160.319C251.58 163.533 260.098 170.925 267.184 184.343C272.8 194.976 272.731 203.041 270.577 208.767C268.403 214.545 264.033 218.144 260.723 219.672L259.731 220.13L266.08 246.751C264.433 252.088 257.991 262.493 244.526 263.612C237.721 264.178 232.62 261.598 228.963 258.114C225.358 254.68 223.179 250.38 222.263 247.431L222.899 229.212L221.807 228.98C219.071 228.398 211.986 223.909 210.042 209.829C208.808 200.898 208.7 190.389 210.437 181.271C212.188 172.081 215.74 164.666 221.502 161.395C227.439 158.026 235.298 157.107 243.438 160.319ZM244.413 157.837C235.54 154.335 226.84 155.301 220.194 159.074C213.373 162.945 209.615 171.379 207.825 180.772C206.022 190.237 206.144 201.046 207.407 210.196C209.289 223.822 215.894 229.715 220.166 231.273L219.59 247.78L219.652 247.989C220.641 251.317 223.055 256.165 227.131 260.049C231.24 263.963 237.06 266.91 244.744 266.271C259.975 265.005 267.073 253.025 268.735 247.151L268.83 246.816L262.818 221.603C266.487 219.621 270.814 215.692 273.065 209.708C275.54 203.128 275.432 194.262 269.534 183.093C262.228 169.258 253.282 161.337 244.413 157.837Z" fill="#032068"/>
<path d="M257.512 212.046C257.843 216.082 259.821 223.707 261.94 228.949C267.218 231.558 283.42 206.844 283.528 183.468C283.614 164.767 272.208 160.704 266.37 159.496C265.758 156.16 260.012 146.207 238.557 141.489C211.739 135.591 190.435 147.522 196.197 168.378C201.96 189.234 233.654 180.503 238.684 180.085C243.714 179.666 243.122 184.795 248.139 196.57C253.157 208.344 252.577 201.281 254.175 196.068C255.773 190.855 263.325 184.132 265.241 195.148C267.158 206.164 257.098 207.001 257.512 212.046Z" fill="#032068"/>
<path d="M242.755 229.539C232.427 232.022 224.315 231.072 221.55 230.286L221.123 237.43C226.756 236.962 237.891 231.974 242.755 229.539Z" fill="#032068"/>
<path d="M245.421 251.741C230.082 251.741 222.211 244.314 220.193 240.601C207.213 242.259 188.129 249.288 173.224 259.126C172.796 259.402 172.334 259.712 171.84 260.056C167.55 262.99 163.647 266.159 160.39 269.498C150.468 278.705 137.517 293.117 125.808 312.449C124.593 302.932 121.577 283.165 119.243 280.237C116.325 276.577 82.0403 273.648 76.934 278.041C71.8278 282.433 47.0259 386.389 60.8858 410.548C74.7456 434.707 107.134 435.439 123.62 420.797L144.774 400.299L139.668 465.435H345.325C354.744 465.773 376.207 461.789 386.702 443.154C399.821 419.861 368.537 305.418 348.354 277.06C332.208 254.374 288.478 243.301 268.632 240.601C267.286 244.314 260.76 251.741 245.421 251.741Z" fill="white"/>
<path fill-rule="evenodd" clip-rule="evenodd" d="M267.748 239.134L267.382 240.145C266.266 243.224 260.323 250.407 245.421 250.407C230.514 250.407 223.12 243.201 221.359 239.962L220.925 239.162L220.025 239.277C206.822 240.964 187.551 248.074 172.499 258.008C172.06 258.291 171.588 258.608 171.086 258.957C166.754 261.921 162.789 265.136 159.463 268.541C150.017 277.31 137.872 290.736 126.633 308.582C126.016 304.139 125.176 298.643 124.252 293.629C123.651 290.367 123.01 287.288 122.368 284.829C122.048 283.601 121.721 282.506 121.393 281.61C121.077 280.751 120.715 279.948 120.281 279.404C119.934 278.969 119.447 278.64 118.97 278.384C118.473 278.118 117.881 277.874 117.228 277.65C115.92 277.2 114.255 276.789 112.372 276.422C108.6 275.688 103.824 275.111 98.9975 274.788C94.1718 274.465 89.2515 274.394 85.1936 274.685C83.1668 274.831 81.3222 275.07 79.798 275.424C78.3211 275.768 76.9616 276.26 76.0688 277.028C75.7462 277.305 75.4798 277.686 75.2613 278.049C75.0295 278.435 74.7922 278.902 74.5507 279.433C74.0671 280.497 73.5299 281.895 72.9534 283.569C71.7988 286.922 70.4557 291.473 69.0379 296.86C66.2011 307.64 63.0472 321.839 60.4877 336.654C57.9291 351.465 55.9583 366.927 55.4995 380.223C55.2701 386.871 55.4175 393.006 56.0673 398.263C56.7144 403.497 57.8718 407.969 59.7336 411.214C66.9026 423.71 78.8678 430.134 91.1161 431.548C103.333 432.959 115.941 429.398 124.501 421.796L124.522 421.777L143.174 403.704L138.23 466.769H345.302C350.194 466.941 358.093 465.996 366.121 462.641C374.177 459.274 382.432 453.447 387.859 443.811C389.646 440.637 390.609 436.061 390.975 430.582C391.342 425.07 391.111 418.499 390.406 411.234C388.994 396.699 385.667 379.256 381.306 361.684C376.943 344.108 371.537 326.368 365.952 311.237C360.38 296.14 354.591 283.528 349.436 276.285C341.128 264.612 325.85 256.056 310.356 250.091C294.816 244.107 278.82 240.641 268.81 239.279L267.748 239.134ZM161.317 270.454C160.229 271.571 159.218 272.703 158.294 273.849L158.006 273.614C148.687 282.758 137.325 296.002 126.944 313.142L124.972 316.397L124.49 312.618C123.884 307.876 122.83 300.581 121.638 294.115C121.042 290.88 120.415 287.873 119.797 285.505C119.487 284.32 119.186 283.316 118.898 282.533C118.597 281.713 118.354 281.258 118.205 281.07C118.205 281.071 118.197 281.061 118.177 281.041C118.17 281.035 118.162 281.028 118.152 281.02C118.134 281.004 118.112 280.986 118.085 280.965C117.999 280.902 117.879 280.825 117.716 280.737C117.388 280.561 116.939 280.371 116.366 280.174C115.22 279.78 113.688 279.396 111.866 279.042C108.23 278.334 103.568 277.768 98.8207 277.45C94.0721 277.132 89.2814 277.066 85.3835 277.347C83.4325 277.487 81.738 277.712 80.3985 278.023C79.0116 278.346 78.1827 278.723 77.7989 279.054C77.8024 279.051 77.7112 279.139 77.5372 279.428C77.3765 279.695 77.1864 280.064 76.9691 280.541C76.5352 281.495 76.0294 282.805 75.4661 284.44C74.3412 287.707 73.0171 292.188 71.6083 297.541C68.7917 308.244 65.654 322.368 63.1072 337.11C60.5595 351.857 58.6094 367.188 58.1564 380.316C57.9299 386.88 58.0788 392.864 58.7056 397.934C59.3351 403.026 60.4344 407.088 62.0376 409.883C68.7285 421.545 79.8875 427.566 91.4199 428.898C102.973 430.231 114.791 426.844 122.717 419.817L146.375 396.894L141.106 464.101H345.349L345.373 464.102C349.901 464.264 357.43 463.383 365.099 460.178C372.752 456.979 380.476 451.497 385.544 442.498C387.037 439.848 387.966 435.753 388.322 430.404C388.676 425.088 388.457 418.674 387.76 411.492C386.365 397.131 383.069 379.824 378.726 362.329C374.385 344.838 369.006 327.194 363.459 312.164C357.899 297.099 352.209 284.772 347.272 277.836C339.434 266.822 324.774 258.499 309.404 252.582C294.586 246.876 279.329 243.489 269.444 242.062C267.217 246.487 260.04 253.075 245.421 253.075C230.609 253.075 222.345 246.33 219.508 242.039C206.775 243.861 188.386 250.715 173.954 260.241C173.496 260.543 173.042 260.848 172.593 261.155C169.784 263.112 165.883 266.219 161.317 270.454Z" fill="#032068"/>
<path d="M201.025 395.953L204.907 463.166C204.948 463.871 205.53 464.423 206.234 464.423H244.091C244.795 464.423 245.378 463.871 245.418 463.166L249.301 395.953C249.345 395.187 248.738 394.542 247.974 394.542H202.352C201.587 394.542 200.98 395.187 201.025 395.953Z" fill="white"/>
<path fill-rule="evenodd" clip-rule="evenodd" d="M199.698 396.03C199.609 394.498 200.823 393.208 202.352 393.208H247.974C249.503 393.208 250.716 394.498 250.628 396.03L246.746 463.243C246.664 464.654 245.5 465.757 244.091 465.757H206.234C204.826 465.757 203.662 464.654 203.58 463.243L199.698 396.03ZM247.974 395.876L202.352 395.876L206.234 463.089H244.091L247.974 395.876Z" fill="#032068"/>
<path d="M206.234 464.423H244.091C244.795 464.423 245.377 463.871 245.418 463.166L248.031 417.935C248.068 417.291 247.627 416.707 246.998 416.572C227.72 412.437 223.086 425.797 204.292 417.763C203.359 417.365 202.302 418.071 202.361 419.087L204.907 463.166C204.948 463.871 205.53 464.423 206.234 464.423Z" fill="#032068"/>
<path fill-rule="evenodd" clip-rule="evenodd" d="M216.205 421.719C212.616 421.781 208.618 421.063 203.77 418.991C203.761 418.987 203.755 418.985 203.751 418.985C203.747 418.984 203.742 418.984 203.737 418.985C203.726 418.986 203.712 418.991 203.699 418.999C203.693 419.003 203.689 419.007 203.687 419.009C203.687 419.009 203.687 419.01 203.687 419.01L206.233 463.089H244.09L246.702 417.873C238.175 416.048 232.697 417.764 227.24 419.473C226.778 419.618 226.316 419.763 225.852 419.905C222.869 420.822 219.778 421.657 216.205 421.719ZM247.275 415.267L246.998 416.57L247.275 415.267C248.549 415.541 249.432 416.715 249.357 418.012L246.744 463.243C246.663 464.654 245.499 465.757 244.09 465.757H206.233C204.825 465.757 203.661 464.654 203.579 463.243L201.033 419.164C200.914 417.1 203.028 415.773 204.812 416.536C209.362 418.481 212.991 419.106 216.159 419.051C219.343 418.996 222.14 418.256 225.074 417.354C225.535 417.212 226 417.067 226.468 416.92C231.975 415.191 238.042 413.287 247.275 415.267Z" fill="#032068"/>
<path d="M216.025 346.338C215.753 344.744 216.821 343.23 218.409 342.958C219.998 342.685 221.506 343.757 221.777 345.351L228.908 387.204C229.18 388.798 228.112 390.312 226.524 390.584C224.935 390.857 223.427 389.786 223.156 388.191L216.025 346.338Z" fill="#032068"/>
<path d="M263.292 424.887L263.565 450.415C260.418 450.176 255.055 454.067 242.84 454.857C228.748 455.769 221.428 451.222 221.842 433.77C222.256 416.319 237.561 420.349 241.694 420.377C245.828 420.405 243.11 417.332 250.018 415.852C255.545 414.667 261.17 421.381 263.292 424.887Z" fill="white"/>
<path fill-rule="evenodd" clip-rule="evenodd" d="M261.967 425.273L262.222 449.161C261.606 449.258 260.973 449.427 260.333 449.62C259.721 449.805 259.003 450.047 258.227 450.308C257.582 450.526 256.897 450.756 256.2 450.979C253.009 451.998 248.724 453.14 242.755 453.526C235.793 453.976 230.914 453.036 227.792 450.209C224.688 447.4 222.967 442.399 223.171 433.802C223.27 429.632 224.254 426.907 225.6 425.114C226.938 423.33 228.733 422.336 230.714 421.808C232.716 421.275 234.87 421.23 236.835 421.336C237.8 421.388 238.699 421.475 239.508 421.553L239.563 421.559C240.348 421.635 241.1 421.707 241.685 421.711C242.878 421.719 243.792 421.505 244.533 420.981C245.096 420.582 245.492 420.024 245.758 419.65C245.804 419.585 245.846 419.526 245.884 419.474C246.181 419.072 246.504 418.69 247.095 418.315C247.707 417.926 248.674 417.504 250.296 417.156C252.449 416.695 254.817 417.749 257.083 419.637C259.173 421.379 260.93 423.632 261.967 425.273ZM258.781 417.584C256.322 415.535 253.114 413.824 249.741 414.547C247.909 414.94 246.625 415.457 245.674 416.06C244.703 416.676 244.152 417.338 243.748 417.886C243.658 418.007 243.583 418.111 243.518 418.2C243.263 418.552 243.168 418.682 243.002 418.8C242.874 418.89 242.577 419.049 241.703 419.043C241.26 419.04 240.637 418.982 239.799 418.901L239.747 418.896C238.946 418.819 238 418.727 236.978 418.672C234.899 418.56 232.425 418.592 230.033 419.23C227.619 419.872 225.253 421.141 223.476 423.509C221.706 425.868 220.622 429.183 220.514 433.739C220.304 442.593 222.035 448.592 226.011 452.191C229.968 455.772 235.795 456.65 242.926 456.188C249.171 455.784 253.675 454.585 257.006 453.521C257.815 453.263 258.513 453.027 259.144 452.814C259.859 452.572 260.489 452.359 261.1 452.175C262.221 451.836 262.942 451.706 263.464 451.746L264.91 451.855L264.617 424.507L264.428 424.194C263.31 422.347 261.282 419.669 258.781 417.584Z" fill="#032068"/>
<path d="M157.403 305.86L145.504 399.567L133.832 410.548L157.403 305.86Z" fill="#032068"/>
<path d="M324.224 387.853L318.388 340.268L314.74 390.05C307.154 394.735 276.808 406.888 264.407 417.869C273.161 412.738 315.956 396.882 339.542 387.853H324.224Z" fill="#032068"/>
<path d="M357.05 465.454C343.044 465.454 291.398 459.598 267.325 456.669L298.692 465.454H357.05Z" fill="#032068"/>
<path d="M255.053 396.638H194.978C194.244 396.638 193.648 396.041 193.648 395.304V387.723C193.648 386.986 194.244 386.389 194.978 386.389H255.053C255.787 386.389 256.383 386.986 256.383 387.723V395.304C256.383 396.041 255.787 396.638 255.053 396.638Z" fill="#032068"/>
<path d="M203.861 381.265L200.943 387.853H249.088L246.17 381.265H203.861Z" fill="white"/>
<path fill-rule="evenodd" clip-rule="evenodd" d="M202.998 379.931H247.035L251.134 389.187H198.898L202.998 379.931ZM204.726 382.599L202.989 386.519H247.043L245.307 382.599H204.726Z" fill="#032068"/>
<path d="M127.188 58.198C120.61 61.0989 117.341 63.5102 112.084 68.8978C107.013 74.0957 112.203 92.2667 126.043 111.413C139.883 130.56 155.109 140.631 162.204 138.234C169.019 135.013 172.407 132.725 177.339 127.555C177.376 127.515 177.411 127.474 177.442 127.429C182.152 120.578 176.792 103.454 163.437 84.9795C150.094 66.52 134.879 56.3757 127.367 58.137C127.305 58.1515 127.246 58.1724 127.188 58.198Z" fill="white"/>
<path fill-rule="evenodd" clip-rule="evenodd" d="M143.871 63.0869C150.395 67.7921 157.615 75.0336 164.342 84.34C171.067 93.6429 175.808 102.644 178.273 110.227C179.505 114.017 180.18 117.488 180.231 120.485C180.282 123.474 179.714 126.081 178.361 128.047L177.442 127.429L178.361 128.047C178.293 128.146 178.22 128.233 178.148 128.309C173.108 133.594 169.602 135.956 162.684 139.226L162.625 139.254L162.564 139.275C160.459 139.986 157.899 139.732 155.142 138.786C152.367 137.834 149.268 136.139 145.999 133.793C139.458 129.097 132.111 121.7 125.138 112.053C118.166 102.407 113.346 92.9738 110.91 85.2525C109.693 81.3952 109.056 77.9209 109.067 75.0372C109.078 72.1803 109.727 69.7295 111.284 68.1342C116.624 62.6602 120.008 60.16 126.734 57.1935C126.846 57.1443 126.971 57.0994 127.11 57.0669L127.366 58.1341L127.11 57.0669C129.288 56.5562 131.888 56.9314 134.684 57.9617C137.497 58.9982 140.61 60.735 143.871 63.0869ZM176.527 126.802C177.527 125.344 178.053 123.244 178.007 120.522C177.96 117.805 177.343 114.556 176.155 110.9C173.779 103.589 169.162 94.7911 162.532 85.6192C155.916 76.4659 148.857 69.4056 142.56 64.8641C139.41 62.5927 136.477 60.9699 133.907 60.0229C131.328 59.0722 129.213 58.8385 127.637 59.2042C121.21 62.0388 118.056 64.3613 112.885 69.6615C111.905 70.6652 111.302 72.435 111.292 75.0454C111.282 77.629 111.857 80.8687 113.033 84.5973C115.384 92.0476 120.08 101.273 126.948 110.774C133.815 120.274 141 127.486 147.306 132.013C150.461 134.277 153.364 135.848 155.871 136.708C158.363 137.563 160.348 137.678 161.786 137.212C168.454 134.056 171.72 131.843 176.527 126.802Z" fill="#032068"/>
<path fill-rule="evenodd" clip-rule="evenodd" d="M122.549 60.477C123.537 59.9286 125.526 61.8251 125.426 62.9404V62.9404C124.713 70.9112 130.248 85.4877 141.228 100.678C153.188 117.224 166.183 126.992 174.072 127.794C175.312 127.92 176.426 127.824 177.39 127.499C177.391 127.498 177.392 127.498 177.393 127.497C177.396 127.496 177.399 127.499 177.397 127.502V127.502C177.397 127.502 177.397 127.502 177.397 127.502C172.434 132.715 169.046 135.007 162.205 138.241C155.11 140.638 139.884 130.567 126.044 111.42C112.204 92.2736 107.014 74.1025 112.085 68.9046C115.946 64.9476 118.735 62.5961 122.549 60.477Z" fill="#032068"/>
<path fill-rule="evenodd" clip-rule="evenodd" d="M177.772 128.532L177.749 128.539C177.733 128.545 177.718 128.55 177.702 128.555C177.725 128.548 177.749 128.54 177.772 128.532ZM174.424 128.926C174.27 128.917 174.114 128.904 173.958 128.888C169.686 128.454 164.256 125.645 158.474 120.993C152.655 116.311 146.351 109.656 140.323 101.318C134.789 93.6616 130.614 86.1439 127.91 79.5132C125.22 72.9169 123.94 67.0909 124.317 62.8503C124.317 62.8516 124.317 62.8523 124.317 62.8523C124.315 62.8524 124.307 62.7538 124.191 62.5524C124.068 62.3393 123.876 62.104 123.648 61.8999C123.416 61.6918 123.198 61.5615 123.044 61.5055C123.026 61.4988 123.01 61.4937 122.997 61.4899C119.362 63.5226 116.672 65.7864 112.885 69.6682C111.906 70.672 111.302 72.4417 111.292 75.0521C111.283 77.6357 111.858 80.8754 113.034 84.604C115.385 92.0543 120.08 101.28 126.948 110.78C133.815 120.281 141.001 127.492 147.307 132.019C150.461 134.284 153.365 135.854 155.872 136.715C158.364 137.57 160.349 137.684 161.787 137.219C167.44 134.543 170.648 132.545 174.424 128.926ZM122.945 61.4789C122.944 61.4787 122.947 61.4787 122.953 61.4795C122.947 61.4795 122.945 61.4791 122.945 61.4789ZM176.995 126.469C177.997 126.08 178.947 127.223 178.309 128.13C178.277 128.175 178.243 128.217 178.206 128.256C173.135 133.582 169.629 135.95 162.685 139.233L162.626 139.261L162.564 139.281C160.46 139.993 157.9 139.739 155.143 138.793C152.367 137.841 149.269 136.146 146 133.799C139.459 129.103 132.112 121.706 125.139 112.06C118.166 102.414 113.347 92.9805 110.911 85.2592C109.694 81.4019 109.057 77.9276 109.068 75.0439C109.079 72.187 109.728 69.7362 111.284 68.1409C115.185 64.1431 118.059 61.7095 122.004 59.518C122.65 59.1591 123.335 59.2671 123.814 59.4418C124.308 59.622 124.766 59.9327 125.142 60.2696C125.522 60.6105 125.871 61.0241 126.124 61.4632C126.363 61.8788 126.587 62.4394 126.534 63.0373C126.2 66.767 127.331 72.2119 129.973 78.6904C132.603 85.1383 136.686 92.5041 142.133 100.038C148.065 108.246 154.238 114.748 159.878 119.287C165.556 123.856 170.568 126.332 174.185 126.7C175.288 126.812 176.223 126.724 176.995 126.469Z" fill="#032068"/>
<path fill-rule="evenodd" clip-rule="evenodd" d="M142.527 80.4503C142.395 79.2561 142.504 78.0534 143.143 77.1119L144.99 78.3383C144.774 78.6563 144.631 79.2416 144.738 80.2108C144.843 81.1578 145.172 82.3252 145.707 83.6545C146.777 86.308 148.6 89.4331 150.759 92.4197C152.916 95.4046 155.372 98.1997 157.678 100.209C158.832 101.215 159.923 102.001 160.898 102.519C161.89 103.046 162.661 103.24 163.21 103.206L163.348 105.402C162.206 105.472 161.002 105.071 159.846 104.457C158.671 103.833 157.439 102.933 156.208 101.86C153.743 99.7119 151.177 96.781 148.949 93.6989C146.722 90.6186 144.796 87.3361 143.641 84.4689C143.064 83.0379 142.661 81.6667 142.527 80.4503Z" fill="#032068"/>
</svg>
