<svg width="512" height="512" viewBox="0 0 512 512" fill="none" xmlns="http://www.w3.org/2000/svg">
<path d="M74.3552 460.864H275.661H398.158C411.303 460.864 424.122 456.76 434.837 449.12L448.322 439.506C476.25 419.595 477.088 378.282 449.991 357.247C423.565 336.733 423.58 296.701 450.021 276.207L459.477 268.878C487.016 247.533 490.874 207.293 467.895 181.072L424.853 131.957C395.01 97.904 342.37 97.1963 311.629 130.435C284.039 160.266 238.008 163.223 206.851 137.166L196.81 128.768C172.41 108.362 138.853 102.948 109.307 114.651C66.1469 131.746 44.004 179.861 59.0261 223.91L78.3075 280.447C87.6195 307.752 74.8067 337.695 48.6621 349.728C28.7589 358.888 16 378.843 16 400.813V402.316C16 434.651 42.1265 460.864 74.3552 460.864Z" fill="#E7E8FF"/>
<path d="M122.928 284.201L120.111 299.036L122.928 314.578C130.205 315.52 145.04 317.403 146.167 317.403C147.294 317.403 155.556 310.339 159.547 306.807L155.321 284.201C167.152 280.244 171.049 262.772 171.518 254.53C174.335 220.621 151.8 216.382 147.575 216.382C143.35 216.382 116.59 216.382 113.069 244.64C110.252 267.246 118.468 280.433 122.928 284.201Z" fill="white"/>
<path fill-rule="evenodd" clip-rule="evenodd" d="M130.626 221.153C123.342 224.512 116.113 231.203 114.417 244.809C111.646 267.047 119.759 279.742 123.803 283.158L124.412 283.672L121.493 299.042L124.087 313.353C127.69 313.818 132.676 314.454 137.02 314.991C139.398 315.285 141.581 315.549 143.239 315.74C144.068 315.836 144.761 315.912 145.279 315.964C145.539 315.991 145.75 316.01 145.91 316.023C145.946 316.026 145.978 316.029 146.007 316.031C146.059 316.005 146.128 315.967 146.216 315.916C146.504 315.747 146.895 315.486 147.379 315.137C148.341 314.444 149.58 313.47 150.925 312.372C153.363 310.383 156.098 308.029 158.069 306.296L153.768 283.283L154.892 282.907C160.264 281.111 163.98 276.186 166.431 270.436C168.869 264.717 169.934 258.449 170.162 254.452L170.163 254.434L170.164 254.417C171.545 237.797 166.711 228.707 161.273 223.748C155.762 218.722 149.42 217.745 147.575 217.745C145.491 217.745 137.999 217.752 130.626 221.153ZM145.897 316.08C145.897 316.08 145.903 316.077 145.915 316.074C145.903 316.079 145.897 316.081 145.897 316.08ZM147.563 215.019H147.575C149.955 215.019 156.994 216.161 163.102 221.731C169.281 227.367 174.305 237.347 172.874 254.625C172.63 258.871 171.512 265.45 168.93 271.508C166.508 277.189 162.693 282.652 156.868 285.075L161.025 307.317L160.446 307.829C158.442 309.602 155.364 312.264 152.64 314.487C151.281 315.597 149.993 316.61 148.964 317.351C148.453 317.72 147.982 318.038 147.587 318.27C147.39 318.385 147.187 318.494 146.99 318.578C146.833 318.645 146.524 318.767 146.167 318.767C145.785 318.767 144.535 318.633 142.929 318.449C141.26 318.257 139.068 317.991 136.687 317.697C131.925 317.108 126.394 316.401 122.754 315.93L121.769 315.802L118.729 299.03L121.45 284.701C116.527 280.011 108.973 266.523 111.721 244.471C113.546 229.819 121.458 222.381 129.49 218.676C137.419 215.019 145.405 215.019 147.563 215.019Z" fill="#032068"/>
<path d="M54.619 459.399H165.179L305.317 458.693C313.988 453.019 316.415 443.866 316.438 436.102C316.458 429.741 311.887 424.624 306.175 421.862C283.483 410.887 249.039 393.904 242.642 389.461C233.488 383.103 225.037 348.487 208.136 321.642C194.615 300.166 169.17 295.268 158.842 295.504C157.903 299.742 153.912 308.22 139.828 308.22C125.744 308.22 119.876 299.742 117.998 295.504C110.721 295.504 90.5335 299.46 73.6326 315.284C52.521 335.051 43.3644 380.214 34.9188 421.87L34.9012 421.957C28.1408 455.302 45.2295 460.341 54.619 459.399Z" fill="white"/>
<path fill-rule="evenodd" clip-rule="evenodd" d="M159.893 296.861C159.234 299.092 157.867 301.983 155.183 304.455C152.024 307.366 147.162 309.583 139.828 309.583C125.9 309.583 119.528 301.627 117.146 296.884C109.513 297.177 90.5439 301.314 74.5594 316.281C64.272 325.913 56.7902 341.858 50.8211 360.78C44.8631 379.667 40.4762 401.297 36.25 422.142L36.2323 422.229C32.8906 438.712 35.5275 447.792 39.7291 452.641C43.9397 457.501 50.0479 458.488 54.4834 458.043L54.5508 458.036H165.179L304.903 457.331C312.778 451.99 315.057 443.51 315.079 436.098C315.096 430.453 311.024 425.72 305.585 423.09C294.235 417.601 279.944 410.608 267.688 404.43C255.487 398.28 245.166 392.872 241.868 390.582C239.272 388.779 236.898 385.134 234.557 380.582C232.185 375.967 229.721 370.154 227.041 363.763C226.86 363.33 226.677 362.895 226.494 362.456C221.234 349.907 215.083 335.23 206.987 322.37C200.413 311.928 190.926 305.492 181.772 301.691C173.201 298.132 164.991 296.912 159.893 296.861ZM182.811 299.172C192.342 303.129 202.338 309.88 209.285 320.914C217.504 333.97 223.732 348.831 228.972 361.336C229.165 361.796 229.356 362.252 229.546 362.706C232.236 369.119 234.658 374.83 236.973 379.332C239.319 383.897 241.434 386.964 243.415 388.34C246.515 390.493 256.614 395.798 268.908 401.994C281.145 408.162 295.422 415.148 306.765 420.634C312.749 423.528 317.818 429.03 317.797 436.106C317.772 444.12 315.26 453.814 306.059 459.834L305.723 460.054L165.186 460.762L165.179 460.762H54.6853C49.7343 461.242 42.646 460.164 37.6779 454.43C32.6779 448.659 30.1506 438.547 33.5692 421.686L33.5955 421.556C37.8123 400.758 42.2246 378.995 48.2301 359.958C54.2286 340.942 61.8809 324.422 72.7051 314.288C89.8909 298.197 110.425 294.141 117.997 294.141H118.88L119.239 294.95C120.969 298.854 126.434 306.857 139.828 306.857C146.577 306.857 150.753 304.835 153.345 302.447C155.962 300.036 157.088 297.136 157.515 295.208L157.746 294.165L158.81 294.141C164.164 294.019 173.295 295.22 182.811 299.172Z" fill="#032068"/>
<path d="M101.8 405.003L112.363 361.909L110.251 405.003L158.351 416.772C164.527 418.283 170.302 422.135 171.471 428.404C173.555 439.586 169.397 451.477 164.475 455.867C168.7 449.801 168.7 426.902 163.77 423.37C159.827 420.544 110.955 411.361 87.0117 407.122L101.8 405.003Z" fill="#032068"/>
<path d="M206.728 350.606L232.783 459.399H244.051L206.728 350.606Z" fill="#032068"/>
<path d="M130.671 270.072C127.854 286.461 123.864 288.204 122.221 287.026C102.503 274.31 102.978 233.683 115.179 219.914C126.446 207.198 134.896 212.143 158.135 206.492C181.374 200.84 189.12 210.73 184.895 223.446C178.813 241.751 159.544 231.924 154.614 234.043C149.685 236.162 143.347 241.814 140.53 253.117C137.713 264.42 136.305 262.301 134.192 255.943C132.079 249.585 126.446 240.401 122.221 251.704C118.84 260.747 126.446 267.717 130.671 270.072Z" fill="#032068"/>
<path d="M213.769 459.399C213.769 440.184 185.366 434.438 171.517 433.967C171.517 443.575 165.649 454.925 162.362 459.399H213.769Z" fill="white"/>
<path fill-rule="evenodd" clip-rule="evenodd" d="M170.158 432.557L171.563 432.605C178.599 432.844 189.345 434.418 198.383 438.406C207.382 442.377 215.128 448.966 215.128 459.399V460.762H159.673L161.268 458.59C162.836 456.455 165.073 452.6 166.914 448.091C168.759 443.574 170.158 438.521 170.158 433.967V432.557ZM172.836 435.391C172.585 440.027 171.161 444.883 169.429 449.125C168.016 452.584 166.371 455.7 164.915 458.036H212.357C211.724 450.002 205.498 444.524 197.289 440.902C189.222 437.342 179.62 435.769 172.836 435.391Z" fill="#032068"/>
<path d="M350.642 458.101C350.642 441.02 328.134 437.391 315.992 436.972C315.992 445.512 308.453 454.124 305.572 458.101H350.642Z" fill="white"/>
<path fill-rule="evenodd" clip-rule="evenodd" d="M314.632 435.561L316.038 435.61C322.177 435.821 331.036 436.843 338.408 440.037C345.798 443.238 352 448.786 352 458.101V459.464H302.904L304.472 457.299C304.877 456.74 305.354 456.114 305.878 455.427C307.307 453.55 309.085 451.216 310.7 448.541C312.901 444.896 314.632 440.868 314.632 436.972V435.561ZM317.288 438.392C316.931 442.538 315.078 446.552 313.024 449.954C311.458 452.547 309.696 454.903 308.301 456.738H349.228C348.67 449.766 343.817 445.349 337.331 442.54C330.915 439.761 323.167 438.697 317.288 438.392Z" fill="#032068"/>
<path fill-rule="evenodd" clip-rule="evenodd" d="M33.3941 433.899C33.0611 447.537 37.8282 459.399 52.3741 459.399H65.1843C61.8041 436.793 43.9245 423.136 35.4738 419.132C35.2882 420.046 35.1032 420.959 34.9184 421.87L34.9008 421.957C34 426.4 33.5227 430.365 33.3941 433.899Z" fill="#032068"/>
<path d="M141.804 283.986C148.363 286.179 152.907 284.899 155.184 283.986L157.297 293.876C148.552 292.779 143.626 286.499 141.804 283.986Z" fill="#032068"/>
<path d="M247.401 64.2841C247.401 58.4497 252.131 53.7199 257.966 53.7199H483.852C489.687 53.7199 494.416 58.4496 494.416 64.2841V290.171C494.416 296.005 489.687 300.735 483.852 300.735H257.966C252.131 300.735 247.401 296.005 247.401 290.171V64.2841Z" fill="white"/>
<path fill-rule="evenodd" clip-rule="evenodd" d="M245.818 64.2841C245.818 57.5751 251.257 52.1365 257.966 52.1365H483.853C490.562 52.1365 496 57.5751 496 64.2841V290.171C496 296.88 490.562 302.318 483.853 302.318H257.966C251.257 302.318 245.818 296.88 245.818 290.171V64.2841ZM257.966 55.3033C253.006 55.3033 248.985 59.3241 248.985 64.2841V290.171C248.985 295.131 253.006 299.151 257.966 299.151H483.853C488.813 299.151 492.833 295.131 492.833 290.171V64.2841C492.833 59.3241 488.813 55.3033 483.853 55.3033H257.966Z" fill="#032068"/>
<path d="M247.401 64.2841C247.401 58.4496 252.131 53.7199 257.966 53.7199H483.852C489.687 53.7199 494.416 58.4496 494.416 64.2841V90.1388H247.401V64.2841Z" fill="#032068"/>
<path d="M280.824 72.1884C280.824 76.5599 277.28 80.1037 272.908 80.1037C268.537 80.1037 264.993 76.5599 264.993 72.1884C264.993 67.8169 268.537 64.2731 272.908 64.2731C277.28 64.2731 280.824 67.8169 280.824 72.1884Z" fill="white"/>
<path d="M307.209 72.1884C307.209 76.5599 303.666 80.1037 299.294 80.1037C294.923 80.1037 291.379 76.5599 291.379 72.1884C291.379 67.8169 294.923 64.2731 299.294 64.2731C303.666 64.2731 307.209 67.8169 307.209 72.1884Z" fill="white"/>
<path d="M333.589 72.1884C333.589 76.5599 330.046 80.1037 325.674 80.1037C321.303 80.1037 317.759 76.5599 317.759 72.1884C317.759 67.8169 321.303 64.2731 325.674 64.2731C330.046 64.2731 333.589 67.8169 333.589 72.1884Z" fill="white"/>
<path d="M127.591 152.03C125.182 156.875 118.075 158.461 114.822 158.649L114.467 179.18C115.24 179.884 117.29 181.881 119.309 184.242C120.484 186.094 136.19 185.823 143.897 185.456C145.596 185.049 149.123 184.025 149.637 183.191C150.281 182.147 155.502 163.116 152.566 158.486C150.217 154.782 140.997 155.334 136.68 156.073C139.382 152.366 139.208 146.118 138.384 141.253C137.945 138.661 135.082 137.43 132.695 138.589C131.078 139.374 130.132 141.073 130.005 142.849C129.826 145.37 129.2 148.794 127.591 152.03Z" fill="white"/>
<path d="M98.9161 156C98.9123 154.288 100.314 152.896 102.047 152.893L113.361 152.868C115.093 152.864 116.501 154.249 116.505 155.962L116.564 182.589C116.568 184.301 115.167 185.692 113.434 185.696L102.12 185.72C100.387 185.724 98.9792 184.339 98.9754 182.627L98.9161 156Z" fill="#032068"/>
<path d="M192.136 88.7584L192.842 95.0482C192.885 95.4309 192.712 95.8007 192.393 96.007L188.336 98.6301C187.463 99.1944 187.926 100.569 188.974 100.525L193.935 100.315C194.297 100.299 194.644 100.477 194.849 100.781L197.911 105.333C198.486 106.189 199.804 105.798 199.785 104.778L199.681 99.1281C199.675 98.7963 199.829 98.4858 200.094 98.294L203.724 95.6753C204.542 95.0854 204.07 93.7741 203.052 93.8091L198.635 93.9612C198.28 93.9734 197.94 93.8009 197.735 93.5053L193.997 88.0955C193.386 87.2107 192.017 87.6982 192.136 88.7584Z" fill="#E7E8FF"/>
<path d="M51.34 277.498L49.5869 279.842C49.4802 279.985 49.3047 280.055 49.1319 280.023L46.9335 279.623C46.4606 279.537 46.1816 280.147 46.549 280.464L48.288 281.964C48.415 282.073 48.4761 282.243 48.4487 282.411L48.04 284.915C47.9631 285.385 48.5312 285.671 48.848 285.321L50.6012 283.383C50.7041 283.269 50.8544 283.213 51.0047 283.233L53.0576 283.499C53.5201 283.559 53.776 282.967 53.4218 282.657L51.8841 281.309C51.7607 281.201 51.7006 281.035 51.7253 280.871L52.1773 277.864C52.2513 277.372 51.6356 277.103 51.34 277.498Z" fill="#E7E8FF"/>
<path d="M285.506 357.053L247.363 443.441C245.448 447.778 248.633 452.647 253.384 452.647H369.775C372.448 452.647 374.856 451.034 375.866 448.566L411.228 362.177C412.995 357.861 409.811 353.136 405.137 353.136H291.527C288.919 353.136 286.557 354.672 285.506 357.053Z" fill="white"/>
<path fill-rule="evenodd" clip-rule="evenodd" d="M291.528 354.498C289.462 354.498 287.59 355.716 286.758 357.602L248.614 443.991C247.097 447.427 249.62 451.284 253.385 451.284H369.776C371.894 451.284 373.801 450.006 374.602 448.051L409.964 361.662C411.363 358.242 408.841 354.498 405.138 354.498H291.528ZM284.257 356.503C285.526 353.628 288.378 351.773 291.528 351.773H405.138C410.783 351.773 414.627 357.48 412.494 362.692L377.132 449.081C375.912 452.062 373.004 454.01 369.776 454.01H253.385C247.647 454.01 243.801 448.13 246.113 442.892L284.257 356.503Z" fill="#032068"/>
<path d="M321.058 395.98C323.197 391.032 328.082 387.828 333.484 387.828C343.212 387.828 349.763 397.76 345.91 406.669L344.95 408.89C342.811 413.838 337.926 417.042 332.524 417.042C322.795 417.042 316.245 407.11 320.098 398.201L321.058 395.98Z" fill="#032068"/>
<path d="M367.949 460.864H165.95C162.664 460.864 160 458.207 160 454.93C160 451.652 162.664 448.995 165.95 448.995H367.948C372.212 448.995 375.092 453.336 373.425 457.25C372.491 459.441 370.335 460.864 367.949 460.864Z" fill="#032068"/>
<path d="M415.445 397.823C408.381 401.861 418.76 421.315 425.066 430.896C425.29 431.236 425.705 431.379 426.094 431.261L433.405 429.04C433.849 428.905 434.129 428.464 434.057 428.004C431.435 411.126 424.312 392.754 415.445 397.823Z" fill="#032068"/>
<path d="M437.158 345.555C415.713 350.559 421.65 402.551 427.473 428.849C427.59 429.375 428.121 429.671 428.635 429.515L445.921 424.261C446.247 424.162 446.492 423.903 446.562 423.566C452.477 395.119 458.729 340.522 437.158 345.555Z" fill="white"/>
<path fill-rule="evenodd" clip-rule="evenodd" d="M428.374 428.617L445.657 423.365C448.607 409.173 451.631 388.5 451.24 372.033C451.043 363.776 449.989 356.703 447.726 352.036C446.6 349.716 445.208 348.058 443.54 347.113C441.891 346.178 439.872 345.882 437.363 346.468C432.413 347.623 428.947 351.494 426.641 357.326C424.332 363.166 423.251 370.829 423.018 379.238C422.553 396.033 425.474 415.51 428.374 428.617ZM424.918 356.641C427.348 350.495 431.181 345.992 436.954 344.645C439.837 343.972 442.341 344.281 444.456 345.48C446.552 346.668 448.164 348.672 449.393 351.206C451.839 356.25 452.897 363.66 453.094 371.978C453.491 388.657 450.434 409.498 447.47 423.753C447.327 424.44 446.823 424.962 446.184 425.156L428.898 430.409C427.896 430.714 426.808 430.137 426.568 429.056C423.648 415.866 420.692 396.212 421.164 379.196C421.399 370.695 422.491 362.778 424.918 356.641Z" fill="#032068"/>
<path d="M457.404 375.445C444.606 377.432 442.313 408.707 442.719 425.023C442.735 425.634 443.321 426.049 443.903 425.873L453.262 423.028C453.53 422.946 453.746 422.755 453.852 422.492C460.588 405.847 470.417 373.425 457.404 375.445Z" fill="#032068"/>
<path fill-rule="evenodd" clip-rule="evenodd" d="M438.652 366.963L438.853 352.984L436.996 352.967L436.585 381.586L429.455 374.697L428.167 376.052L436.548 384.151L436.143 412.313L429.896 407.065L428.702 408.506L436.108 414.727L435.931 427.026L437.788 427.043L438.149 401.942L445.572 394.608L444.276 393.275L438.187 399.291L438.612 369.704L444.751 363.242L443.413 361.951L438.652 366.963Z" fill="#032068"/>
<path d="M412.527 423.344C412.156 421.595 413.473 419.946 415.241 419.946H457.591C459.319 419.946 460.627 421.527 460.323 423.249L454.094 458.549C453.858 459.888 452.707 460.864 451.362 460.864H422.716C421.407 460.864 420.276 459.939 420.001 458.643L412.527 423.344Z" fill="#032068"/>
<path d="M230.708 190.953C229.186 195.191 232.34 200.303 234.107 202.329L221.344 217.059C220.474 217.013 218.341 213.33 214.455 212.338C210.568 211.346 207.099 208.458 202.864 203.701C202.127 202.463 198.887 198.477 199.361 194.249C199.833 190.02 207.906 180.947 212.388 179.986C215.973 179.216 222.058 184.345 224.109 187.319C224.987 184.581 226.303 183.025 228.885 180.353C230.698 179.104 233.921 178.897 234.604 180.978C235.066 182.388 234.592 183.934 233.596 185.042C232.184 186.614 231.724 188.122 230.708 190.953Z" fill="white"/>
<path fill-rule="evenodd" clip-rule="evenodd" d="M232.217 178.402C230.873 178.339 229.393 178.767 228.302 179.518L228.218 179.577L228.146 179.65C226.09 181.779 224.745 183.287 223.801 185.299C222.64 183.997 221.072 182.579 219.414 181.418C218.256 180.608 217.019 179.898 215.809 179.439C214.613 178.987 213.343 178.741 212.172 178.993C210.831 179.28 209.342 180.135 207.909 181.217C206.453 182.315 204.962 183.718 203.609 185.214C202.257 186.71 201.023 188.321 200.091 189.845C199.176 191.341 198.487 192.855 198.344 194.138C198.075 196.532 198.861 198.794 199.742 200.55C200.373 201.808 201.152 202.967 201.623 203.669C201.787 203.913 201.913 204.101 201.983 204.219L202.033 204.302L202.097 204.375C206.348 209.149 209.992 212.248 214.198 213.322C215.894 213.754 217.247 214.786 218.33 215.794C218.674 216.115 218.941 216.384 219.197 216.64C219.375 216.819 219.547 216.992 219.735 217.172C219.934 217.363 220.146 217.556 220.357 217.707C220.537 217.836 220.869 218.051 221.288 218.073L221.79 218.1L235.459 202.326L234.881 201.663C234.061 200.724 232.897 199.036 232.125 197.096C231.349 195.143 231.029 193.082 231.671 191.293C231.75 191.072 231.826 190.86 231.899 190.657C232.778 188.197 233.205 187.002 234.359 185.718C235.543 184.4 236.174 182.487 235.576 180.663C235.051 179.061 233.56 178.465 232.217 178.402ZM232.118 180.431C233.011 180.473 233.473 180.814 233.631 181.294C233.957 182.29 233.64 183.468 232.833 184.366C231.399 185.961 230.838 187.539 230.001 189.892C229.918 190.124 229.833 190.364 229.744 190.613C228.864 193.062 229.36 195.676 230.222 197.844C230.928 199.621 231.919 201.199 232.775 202.31L221.161 215.713C221.16 215.712 221.159 215.711 221.158 215.71C221.044 215.602 220.895 215.452 220.724 215.281C220.43 214.988 220.074 214.631 219.73 214.312C218.558 213.219 216.901 211.913 214.71 211.354C211.161 210.448 207.881 207.792 203.693 203.097C203.554 202.871 203.385 202.62 203.195 202.338C202.731 201.65 202.145 200.779 201.574 199.642C200.769 198.04 200.172 196.194 200.377 194.36C200.47 193.528 200.968 192.323 201.839 190.898C202.693 189.501 203.847 187.991 205.131 186.57C206.416 185.149 207.813 183.839 209.146 182.834C210.501 181.811 211.702 181.172 212.602 180.978C213.224 180.845 214.059 180.952 215.077 181.338C216.08 181.717 217.165 182.331 218.233 183.079C220.382 184.583 222.321 186.526 223.264 187.894L224.447 189.61L225.083 187.626C225.877 185.149 227.034 183.738 229.546 181.134C230.264 180.668 231.259 180.391 232.118 180.431ZM221.614 216.096C221.614 216.096 221.609 216.094 221.602 216.09C221.61 216.095 221.614 216.097 221.614 216.096Z" fill="#032068"/>
<path d="M349.196 153.854L345.758 166.376C344.039 172.637 349.196 180.037 363.522 180.037C374.982 180.037 376.701 169.412 376.128 164.1L373.263 149.87C376.128 147.024 378.42 145.317 378.42 131.656C378.42 114.581 369.252 108.32 358.364 108.32C347.477 108.32 338.309 117.417 338.309 133.933C338.308 148.163 345.949 152.716 349.196 153.854Z" fill="white"/>
<path fill-rule="evenodd" clip-rule="evenodd" d="M345.039 115.585C341.572 119.702 339.332 125.858 339.332 133.933C339.332 140.858 341.187 145.332 343.353 148.192C345.526 151.064 348.068 152.381 349.537 152.896L350.434 153.211L346.745 166.644C345.989 169.399 346.725 172.426 349.318 174.809C351.933 177.212 356.52 179.021 363.522 179.021C368.855 179.021 371.814 176.588 373.436 173.581C375.091 170.511 375.38 166.775 375.116 164.253L372.153 149.536L372.54 149.152C372.65 149.043 372.758 148.936 372.864 148.831C374.158 147.554 375.179 146.547 375.957 144.465C376.823 142.15 377.397 138.457 377.397 131.656C377.397 123.294 375.155 117.75 371.745 114.296C368.335 110.843 363.616 109.336 358.365 109.336C353.225 109.336 348.498 111.476 345.039 115.585ZM343.47 114.281C347.317 109.712 352.618 107.304 358.365 107.304C364.001 107.304 369.309 108.927 373.206 112.873C377.102 116.819 379.443 122.944 379.443 131.656C379.443 138.516 378.872 142.507 377.875 145.172C376.948 147.651 375.663 148.937 374.374 150.206L377.14 163.946L377.145 163.991C377.446 166.782 377.155 170.987 375.239 174.54C373.28 178.173 369.649 181.053 363.522 181.053C356.198 181.053 351.044 179.162 347.929 176.3C344.792 173.418 343.809 169.615 344.772 166.109L347.97 154.461C346.203 153.683 343.801 152.165 341.717 149.414C339.251 146.156 337.286 141.238 337.286 133.933C337.286 125.492 339.63 118.841 343.47 114.281Z" fill="#032068"/>
<path d="M359.509 173.776C370.052 173.776 375.362 166.945 376.699 163.53L376.754 163.53C386.882 163.53 403.382 163.53 420.247 178.898C437.143 194.294 451.251 215.895 464.015 254.351C469.015 269.415 469.574 290.235 468.046 298.393H295.394C275.912 298.393 260.46 294.935 255.085 288.384C242.479 273.016 215.647 226.678 216.793 220.986C217.939 215.294 232.264 197.258 236.275 198.965C239.484 200.331 255.757 212.311 272.552 224.99C292.034 173.776 332.004 162.771 345.183 163.53C345.565 166.945 348.965 173.776 359.509 173.776Z" fill="white"/>
<path fill-rule="evenodd" clip-rule="evenodd" d="M272.085 223.362C291.9 172.815 331.731 161.738 345.243 162.516L346.105 162.566L346.2 163.418C346.367 164.908 347.214 167.245 349.248 169.204C351.256 171.139 354.478 172.76 359.509 172.76C369.547 172.76 374.529 166.27 375.746 163.162L375.999 162.514L376.76 162.514C386.945 162.514 403.78 162.514 420.939 178.15C438.001 193.697 452.186 215.467 464.987 254.033C467.522 261.672 468.922 270.733 469.499 278.891C470.076 287.036 469.839 294.378 469.052 298.579L468.896 299.409H295.395C285.6 299.409 276.781 298.541 269.708 296.833C262.68 295.135 257.198 292.567 254.293 289.025C247.933 281.273 238.039 265.785 229.893 251.559C225.816 244.438 222.162 237.607 219.595 232.19C218.313 229.483 217.293 227.111 216.627 225.221C216.295 224.278 216.044 223.434 215.895 222.718C215.751 222.03 215.677 221.35 215.791 220.787C216.118 219.162 217.325 216.827 218.892 214.361C220.486 211.854 222.537 209.083 224.676 206.548C226.81 204.019 229.061 201.692 231.059 200.094C232.054 199.298 233.026 198.65 233.92 198.258C234.778 197.882 235.778 197.648 236.678 198.031C237.589 198.419 239.295 199.487 241.511 200.985C243.763 202.507 246.633 204.536 249.921 206.914C256.215 211.465 264.061 217.311 272.085 223.362ZM344.311 164.514C330.783 164.267 292.438 175.589 273.509 225.349L273.024 226.623L271.933 225.799C263.538 219.461 255.277 213.301 248.717 208.557C245.436 206.184 242.586 204.169 240.36 202.665C238.098 201.136 236.565 200.194 235.872 199.899C235.769 199.855 235.444 199.811 234.746 200.117C234.085 200.407 233.272 200.933 232.342 201.676C230.489 203.158 228.335 205.375 226.244 207.854C224.157 210.326 222.162 213.024 220.622 215.446C219.056 217.91 218.042 219.964 217.797 221.185C217.767 221.333 217.768 221.682 217.898 222.306C218.022 222.902 218.242 223.652 218.558 224.55C219.19 226.345 220.177 228.646 221.446 231.324C223.982 236.677 227.608 243.458 231.672 250.554C239.807 264.762 249.632 280.127 255.879 287.742C258.348 290.752 263.279 293.189 270.191 294.858C277.059 296.517 285.707 297.377 295.395 297.377H467.182C467.811 293.297 467.992 286.567 467.459 279.033C466.888 270.975 465.509 262.094 463.044 254.669C450.316 216.323 436.286 194.891 419.556 179.647C403.322 164.855 387.479 164.553 377.372 164.547C375.555 168.393 369.946 174.792 359.509 174.792C353.996 174.792 350.247 172.998 347.823 170.663C345.767 168.682 344.707 166.352 344.311 164.514Z" fill="#032068"/>
<path d="M321.116 141.901C312.407 151.008 312.903 166.945 314.24 173.775C330.284 164.213 342.318 162.961 346.329 163.53L349.194 153.854C342.891 152.147 338.88 146.455 338.307 133.364C337.849 122.891 343.082 115.719 345.756 113.442C354.924 112.873 359.508 124.257 362.373 128.81C364.666 132.453 366.385 131.846 366.958 131.087C369.823 124.257 374.98 123.688 376.126 131.087C377.043 137.006 372.688 140.004 370.396 140.763L376.126 163.53C387.586 163.075 400.765 167.135 405.922 169.222C407.642 151.008 393.316 144.747 388.732 133.364C384.148 121.98 390.451 116.288 385.867 108.889C382.469 103.405 376.126 102.628 372.115 101.49C368.104 100.351 365.812 95.7978 361.227 93.5211C353.205 90.6752 345.565 97.6951 343.464 102.628C342.127 102.438 338.307 102.969 333.723 106.612C320.544 115.719 332.004 130.518 321.116 141.901Z" fill="#032068"/>
<path d="M412.959 228.994C418.333 254.351 424.524 290.165 423.708 298.393H431.769C432.06 282.518 417.662 237.668 412.959 228.994Z" fill="#032068"/>
<path d="M361.227 153.285C354.351 155.107 350.34 154.424 349.194 153.854L347.475 160.115C354.809 161.026 359.699 155.941 361.227 153.285Z" fill="#032068"/>
<path d="M298.754 221.653C293.917 241.939 290.917 281.266 290.021 298.393H284.646C285.721 270.633 294.499 235.667 298.754 221.653Z" fill="#032068"/>
<path d="M257.103 289.718C274.838 285.448 284.198 287.939 286.662 289.718L285.318 298.393C271.882 298.393 260.909 292.61 257.103 289.718Z" fill="#032068"/>
</svg>
