<svg width="512" height="512" viewBox="0 0 512 512" fill="none" xmlns="http://www.w3.org/2000/svg">
<path d="M203.847 446.396H296.939H388.012C422.2 446.396 452.274 423.77 461.793 390.886L467.88 369.86C475.86 342.293 460.867 313.299 433.781 303.917C396.374 290.96 385.26 243.358 413.054 215.135L415.84 212.306C443.528 184.19 434.538 137.018 398.457 121.089L293.46 74.738C261.868 60.7918 225.575 62.4875 195.417 79.3187L178.273 88.8868C142.841 108.662 126.049 150.562 137.999 189.381C147.387 219.878 139.147 253.074 116.592 275.618L115.181 277.028C78.7335 313.458 80.5666 373.138 119.181 407.256L133.21 419.651C152.716 436.886 177.834 446.396 203.847 446.396Z" fill="#E7E8FF"/>
<path d="M490.845 399.168C491.136 421.237 476.13 439.87 468.509 446.396H456.829C465.512 416.951 479.866 402.309 487.91 397.436C489.249 396.625 490.825 397.599 490.845 399.168Z" fill="#032068"/>
<path d="M492.08 326.759C504.045 371.885 473.886 425.33 460.917 445.225H434.639C445.926 360.082 464.85 339.389 488.774 325.406C490.059 324.656 491.698 325.318 492.08 326.759Z" fill="white"/>
<path fill-rule="evenodd" clip-rule="evenodd" d="M489.362 326.418C489.994 326.05 490.771 326.38 490.951 327.06C496.846 349.291 492.38 373.667 484.749 395.059C477.26 416.054 466.772 434.037 460.284 444.053H435.974C441.591 402.311 449.058 376.376 458.003 359.172C467.011 341.848 477.543 333.327 489.362 326.418ZM493.209 326.458C492.625 324.255 490.124 323.262 488.186 324.394C476.082 331.469 465.19 340.285 455.932 358.089C446.707 375.831 439.132 402.448 433.481 445.07L433.305 446.396H461.549L461.895 445.866C468.408 435.874 479.241 417.454 486.948 395.848C494.648 374.262 499.279 349.353 493.209 326.458Z" fill="#032068"/>
<path d="M449.708 354.521C460.043 392.337 448.213 431.636 440.478 446.396H421.207C416.872 400.308 434.49 366.793 446.074 353.618C447.217 352.319 449.252 352.85 449.708 354.521Z" fill="#032068"/>
<path fill-rule="evenodd" clip-rule="evenodd" d="M475.722 358.869L482.008 341.152L484.209 341.938L469.809 382.518L479.269 379.669L479.941 381.913L468.837 385.257L455.741 422.164L467.528 417.768L468.342 419.964L454.719 425.045L447.419 445.618L445.218 444.832L460.044 403.05L454.562 387.628L456.762 386.841L461.283 399.559L474.397 362.601L470.31 348.91L472.548 348.238L475.722 358.869Z" fill="#032068"/>
<path fill-rule="evenodd" clip-rule="evenodd" d="M439.854 384.718L442.833 368.28L445.131 368.7L439.084 402.064L446.942 397.913L448.03 399.986L438.553 404.992L433.366 433.609L439.863 428.488L441.306 430.33L432.736 437.085L431.116 446.02L428.818 445.601L432.972 422.681L426.12 413.721L427.974 412.295L433.537 419.569L439.331 387.601L433.782 381.587L435.496 379.995L439.854 384.718Z" fill="white"/>
<path d="M96.5038 129.084L92.7739 123.453C92.1096 122.451 90.5498 122.89 90.5062 124.092L90.2672 130.683C90.2528 131.082 90.0468 131.449 89.7141 131.67L83.6969 135.656C82.7278 136.298 83.0989 137.801 84.2554 137.918L91.514 138.653C91.8669 138.689 92.1875 138.875 92.3943 139.163L97.068 145.674C97.7622 146.641 99.2879 146.166 99.3099 144.976L99.4493 137.462C99.4561 137.096 99.6247 136.752 99.9096 136.522L106.273 131.39C107.209 130.635 106.627 129.124 105.426 129.192L97.6053 129.636C97.1661 129.661 96.7468 129.451 96.5038 129.084Z" fill="#032068"/>
<path d="M53.4659 200.463L51.597 199.339C50.5664 198.718 49.3465 199.785 49.8236 200.889L50.6632 202.832C50.8215 203.199 50.7933 203.619 50.5876 203.961L49.224 206.227C48.6248 207.223 49.6056 208.421 50.7003 208.03L53.2644 207.114C53.5985 206.995 53.9677 207.024 54.2782 207.196L56.9449 208.667C57.9872 209.242 59.1607 208.157 58.6693 207.073L57.5384 204.578C57.3873 204.245 57.3916 203.861 57.5502 203.531L58.8859 200.752C59.4068 199.668 58.2317 198.554 57.177 199.131L54.6977 200.488C54.3118 200.699 53.8428 200.69 53.4659 200.463Z" fill="#032068"/>
<path d="M194.014 257.557L187.484 265.865C187.086 266.37 186.439 266.614 185.804 266.496L177.733 264.993C175.997 264.67 174.949 266.838 176.289 267.981L182.632 273.394C183.095 273.789 183.314 274.397 183.208 274.995L181.616 283.919C181.317 285.597 183.396 286.635 184.574 285.396L191.09 278.538C191.472 278.135 192.027 277.94 192.579 278.015L200.12 279.035C201.819 279.265 202.78 277.162 201.489 276.042L195.881 271.181C195.431 270.79 195.215 270.196 195.312 269.61L197.08 258.89C197.369 257.137 195.114 256.156 194.014 257.557Z" fill="white"/>
<path d="M191.198 193.874C191.198 200.79 185.553 206.397 178.591 206.397C171.628 206.397 165.983 200.79 165.983 193.874C165.983 186.958 171.628 181.351 178.591 181.351C185.553 181.351 191.198 186.958 191.198 193.874Z" fill="white"/>
<path fill-rule="evenodd" clip-rule="evenodd" d="M178.59 182.224C172.113 182.224 166.862 187.44 166.862 193.874C166.862 200.308 172.113 205.524 178.59 205.524C185.067 205.524 190.318 200.308 190.318 193.874C190.318 187.44 185.067 182.224 178.59 182.224ZM165.104 193.874C165.104 186.475 171.142 180.477 178.59 180.477C186.039 180.477 192.077 186.475 192.077 193.874C192.077 201.273 186.039 207.271 178.59 207.271C171.142 207.271 165.104 201.273 165.104 193.874Z" fill="#032068"/>
<path d="M145.478 195.192H213.693C214.678 195.192 215.351 194.205 214.985 193.297L212.193 186.363C210.158 181.31 209.113 175.918 209.113 170.476V159.93C209.113 143.731 195.893 130.599 179.585 130.599C163.278 130.599 150.058 143.731 150.058 159.93V170.476C150.058 175.918 149.013 181.31 146.978 186.363L144.186 193.297C143.82 194.205 144.493 195.192 145.478 195.192Z" fill="#032068"/>
<path d="M216.412 141.804C216.412 150.54 209.283 157.623 200.487 157.623C191.692 157.623 184.562 150.54 184.562 141.804C184.562 133.067 191.692 125.985 200.487 125.985C209.283 125.985 216.412 133.067 216.412 141.804Z" fill="white"/>
<path fill-rule="evenodd" clip-rule="evenodd" d="M200.487 126.859C192.178 126.859 185.441 133.55 185.441 141.804C185.441 150.058 192.178 156.749 200.487 156.749C208.796 156.749 215.533 150.058 215.533 141.804C215.533 133.55 208.796 126.859 200.487 126.859ZM183.683 141.804C183.683 132.585 191.206 125.112 200.487 125.112C209.768 125.112 217.291 132.585 217.291 141.804C217.291 151.023 209.768 158.496 200.487 158.496C191.206 158.496 183.683 151.023 183.683 141.804Z" fill="#032068"/>
<path fill-rule="evenodd" clip-rule="evenodd" d="M198.084 142.967C198.427 142.626 198.427 142.073 198.084 141.731L192.804 136.487C192.461 136.146 192.461 135.593 192.804 135.252L193.891 134.173C194.234 133.832 194.791 133.832 195.134 134.173L200.414 139.417C200.757 139.758 201.314 139.758 201.657 139.417L206.937 134.173C207.28 133.832 207.837 133.832 208.18 134.173L209.266 135.252C209.61 135.593 209.61 136.146 209.266 136.487L203.987 141.731C203.644 142.073 203.644 142.626 203.987 142.967L209.266 148.211C209.61 148.552 209.61 149.105 209.266 149.446L208.18 150.525C207.837 150.866 207.28 150.866 206.937 150.525L201.657 145.281C201.314 144.94 200.757 144.94 200.414 145.281L195.134 150.525C194.791 150.866 194.234 150.866 193.891 150.525L192.804 149.446C192.461 149.105 192.461 148.552 192.804 148.211L198.084 142.967Z" fill="#E7E8FF"/>
<path d="M237.443 103.739C237.443 95.5403 244.09 88.8938 252.289 88.8938H419.298C427.497 88.8938 434.144 95.5403 434.144 103.739V430.568C434.144 438.767 427.497 445.413 419.298 445.413H252.289C244.09 445.413 237.443 438.767 237.443 430.568V103.739Z" fill="white"/>
<path fill-rule="evenodd" clip-rule="evenodd" d="M236.206 103.739C236.206 94.857 243.406 87.6567 252.288 87.6567H419.298C428.18 87.6567 435.38 94.857 435.38 103.739V430.568C435.38 439.45 428.18 446.65 419.298 446.65H252.288C243.406 446.65 236.206 439.45 236.206 430.568V103.739ZM252.288 90.1309C244.773 90.1309 238.68 96.2235 238.68 103.739V430.568C238.68 438.083 244.773 444.176 252.288 444.176H419.298C426.814 444.176 432.906 438.083 432.906 430.568V103.739C432.906 96.2235 426.814 90.1309 419.298 90.1309H252.288Z" fill="#032068"/>
<path d="M258.475 325.16C258.475 334.725 266.229 342.479 275.794 342.479C279.098 342.479 282.185 341.554 284.812 339.949L289.843 341.734C290.758 342.058 291.674 341.25 291.464 340.301L290.234 334.726C292.054 331.985 293.114 328.696 293.114 325.16C293.114 315.594 285.359 307.84 275.794 307.84C266.229 307.84 258.475 315.594 258.475 325.16Z" fill="white"/>
<path fill-rule="evenodd" clip-rule="evenodd" d="M275.794 309.077C266.912 309.077 259.712 316.278 259.712 325.16C259.712 334.042 266.912 341.242 275.794 341.242C278.863 341.242 281.729 340.383 284.167 338.894L284.67 338.586L290.256 340.568L288.913 334.48L289.203 334.042C290.892 331.497 291.876 328.445 291.876 325.16C291.876 316.278 284.676 309.077 275.794 309.077ZM257.237 325.16C257.237 314.911 265.545 306.603 275.794 306.603C286.042 306.603 294.351 314.911 294.351 325.16C294.351 328.756 293.326 332.117 291.553 334.962L292.672 340.035C293.091 341.932 291.26 343.549 289.429 342.9L284.942 341.308C282.241 342.841 279.118 343.716 275.794 343.716C265.545 343.716 257.237 335.408 257.237 325.16Z" fill="#032068"/>
<path d="M284.817 319.523C285.515 323.006 282.816 327.505 281.379 329.319C278.892 332.458 275.41 335.191 273.126 335.213C266.272 335.278 266.648 331.12 267.057 330.493C267.467 329.866 270.137 326.725 272.232 328.574C274.327 330.424 276.186 329.368 278.449 327.061C280.712 324.755 280.279 322.89 278.396 321.453C276.513 320.017 278.768 316.88 279.795 315.624C280.822 314.368 283.945 315.169 284.817 319.523Z" fill="#032068"/>
<path d="M296.648 100.784L290.306 88.8932H381.279L373.819 101.328C371.583 105.054 367.556 107.334 363.211 107.334H307.563C302.995 107.334 298.798 104.816 296.648 100.784Z" fill="#032068"/>
<path d="M431.73 96.2695H238.601C244.993 89.8767 251.099 88.6883 253.353 88.8932H416.978C424.846 88.8932 430.091 93.8107 431.73 96.2695Z" fill="#032068"/>
<path d="M431.64 438.422H239.951C246.595 444.918 250.434 446.126 252.777 445.918H418.815C426.991 445.918 429.936 440.921 431.64 438.422Z" fill="#032068"/>
<path d="M294.351 142.068C294.351 140.018 296.012 138.356 298.062 138.356H371.051C373.101 138.356 374.763 140.018 374.763 142.068C374.763 144.117 373.101 145.779 371.051 145.779H298.062C296.012 145.779 294.351 144.117 294.351 142.068Z" fill="#032068"/>
<path d="M306.722 211.964C306.722 210.939 307.552 210.109 308.577 210.109H376.618C377.643 210.109 378.474 210.939 378.474 211.964C378.474 212.989 377.643 213.82 376.618 213.82H308.577C307.552 213.82 306.722 212.989 306.722 211.964Z" fill="#E7E8FF"/>
<path d="M306.722 268.871C306.722 267.846 307.552 267.016 308.577 267.016H376.618C377.643 267.016 378.474 267.846 378.474 268.871C378.474 269.896 377.643 270.727 376.618 270.727H308.577C307.552 270.727 306.722 269.896 306.722 268.871Z" fill="#E7E8FF"/>
<path d="M306.722 325.778C306.722 324.753 307.552 323.923 308.577 323.923H376.618C377.643 323.923 378.474 324.753 378.474 325.778C378.474 326.803 377.643 327.634 376.618 327.634H308.577C307.552 327.634 306.722 326.803 306.722 325.778Z" fill="#E7E8FF"/>
<path d="M306.722 382.685C306.722 381.66 307.552 380.83 308.577 380.83H376.618C377.643 380.83 378.474 381.66 378.474 382.685C378.474 383.71 377.643 384.541 376.618 384.541H308.577C307.552 384.541 306.722 383.71 306.722 382.685Z" fill="#E7E8FF"/>
<path d="M251.052 171.437C251.052 170.412 251.883 169.581 252.907 169.581H418.68C419.705 169.581 420.536 170.412 420.536 171.437C420.536 172.462 419.705 173.293 418.68 173.293H252.907C251.883 173.293 251.052 172.462 251.052 171.437Z" fill="#E7E8FF"/>
<path d="M251.052 421.333C251.052 420.308 251.883 419.477 252.907 419.477H418.68C419.705 419.477 420.536 420.308 420.536 421.333C420.536 422.358 419.705 423.189 418.68 423.189H252.907C251.883 423.189 251.052 422.358 251.052 421.333Z" fill="#E7E8FF"/>
<path fill-rule="evenodd" clip-rule="evenodd" d="M422.083 106.877V116.996H419.608V106.877H422.083Z" fill="#032068"/>
<path fill-rule="evenodd" clip-rule="evenodd" d="M415.758 108.142V116.996H413.284V108.142H415.758Z" fill="#032068"/>
<path fill-rule="evenodd" clip-rule="evenodd" d="M409.434 110.672V116.996H406.96V110.672H409.434Z" fill="#032068"/>
<path fill-rule="evenodd" clip-rule="evenodd" d="M403.11 113.201V116.996H400.636V113.201H403.11Z" fill="#032068"/>
<path d="M394.557 264.541C394.557 262.492 396.218 260.83 398.268 260.83H416.825C418.874 260.83 420.536 262.492 420.536 264.541V271.964C420.536 274.014 418.874 275.675 416.825 275.675H398.268C396.218 275.675 394.557 274.014 394.557 271.964V264.541Z" fill="white"/>
<path fill-rule="evenodd" clip-rule="evenodd" d="M393.319 264.541C393.319 261.808 395.535 259.593 398.268 259.593H416.824C419.557 259.593 421.773 261.808 421.773 264.541V271.964C421.773 274.697 419.557 276.912 416.824 276.912H398.268C395.535 276.912 393.319 274.697 393.319 271.964V264.541ZM398.268 262.067C396.901 262.067 395.794 263.175 395.794 264.541V271.964C395.794 273.33 396.901 274.438 398.268 274.438H416.824C418.191 274.438 419.299 273.33 419.299 271.964V264.541C419.299 263.175 418.191 262.067 416.824 262.067H398.268Z" fill="#032068"/>
<path d="M409.401 264.541C409.401 262.492 411.063 260.83 413.113 260.83H416.824C418.874 260.83 420.535 262.492 420.535 264.541V271.964C420.535 274.014 418.874 275.675 416.824 275.675H413.113C411.063 275.675 409.401 274.014 409.401 271.964V264.541Z" fill="#E7E8FF"/>
<path fill-rule="evenodd" clip-rule="evenodd" d="M408.165 264.541C408.165 261.808 410.381 259.593 413.113 259.593H416.825C419.558 259.593 421.773 261.808 421.773 264.541V271.964C421.773 274.697 419.558 276.912 416.825 276.912H413.113C410.381 276.912 408.165 274.697 408.165 271.964V264.541ZM413.113 262.067C411.747 262.067 410.639 263.175 410.639 264.541V271.964C410.639 273.33 411.747 274.438 413.113 274.438H416.825C418.191 274.438 419.299 273.33 419.299 271.964V264.541C419.299 263.175 418.191 262.067 416.825 262.067H413.113Z" fill="#032068"/>
<path d="M394.557 321.448C394.557 319.399 396.218 317.737 398.268 317.737H416.825C418.874 317.737 420.536 319.399 420.536 321.448V328.871C420.536 330.921 418.874 332.582 416.825 332.582H398.268C396.218 332.582 394.557 330.921 394.557 328.871V321.448Z" fill="white"/>
<path fill-rule="evenodd" clip-rule="evenodd" d="M393.319 321.448C393.319 318.715 395.535 316.5 398.268 316.5H416.824C419.557 316.5 421.773 318.715 421.773 321.448V328.871C421.773 331.604 419.557 333.819 416.824 333.819H398.268C395.535 333.819 393.319 331.604 393.319 328.871V321.448ZM398.268 318.974C396.901 318.974 395.794 320.082 395.794 321.448V328.871C395.794 330.237 396.901 331.345 398.268 331.345H416.824C418.191 331.345 419.299 330.237 419.299 328.871V321.448C419.299 320.082 418.191 318.974 416.824 318.974H398.268Z" fill="#032068"/>
<path d="M394.557 321.448C394.557 319.399 396.218 317.737 398.268 317.737H401.979C404.029 317.737 405.691 319.399 405.691 321.448V328.871C405.691 330.921 404.029 332.582 401.979 332.582H398.268C396.218 332.582 394.557 330.921 394.557 328.871V321.448Z" fill="#032068"/>
<path fill-rule="evenodd" clip-rule="evenodd" d="M393.319 321.448C393.319 318.715 395.535 316.5 398.268 316.5H401.979C404.712 316.5 406.928 318.715 406.928 321.448V328.871C406.928 331.604 404.712 333.819 401.979 333.819H398.268C395.535 333.819 393.319 331.604 393.319 328.871V321.448ZM398.268 318.974C396.901 318.974 395.794 320.082 395.794 321.448V328.871C395.794 330.237 396.901 331.345 398.268 331.345H401.979C403.346 331.345 404.453 330.237 404.453 328.871V321.448C404.453 320.082 403.346 318.974 401.979 318.974H398.268Z" fill="#032068"/>
<path d="M394.557 379.592C394.557 377.543 396.218 375.881 398.268 375.881H416.825C418.874 375.881 420.536 377.543 420.536 379.592V387.015C420.536 389.065 418.874 390.726 416.825 390.726H398.268C396.218 390.726 394.557 389.065 394.557 387.015V379.592Z" fill="white"/>
<path fill-rule="evenodd" clip-rule="evenodd" d="M393.319 379.592C393.319 376.86 395.535 374.644 398.268 374.644H416.824C419.557 374.644 421.773 376.86 421.773 379.592V387.015C421.773 389.748 419.557 391.964 416.824 391.964H398.268C395.535 391.964 393.319 389.748 393.319 387.015V379.592ZM398.268 377.118C396.901 377.118 395.794 378.226 395.794 379.592V387.015C395.794 388.382 396.901 389.489 398.268 389.489H416.824C418.191 389.489 419.299 388.382 419.299 387.015V379.592C419.299 378.226 418.191 377.118 416.824 377.118H398.268Z" fill="#032068"/>
<path d="M394.557 379.592C394.557 377.543 396.218 375.881 398.268 375.881H401.979C404.029 375.881 405.691 377.543 405.691 379.592V387.015C405.691 389.065 404.029 390.726 401.979 390.726H398.268C396.218 390.726 394.557 389.065 394.557 387.015V379.592Z" fill="#032068"/>
<path fill-rule="evenodd" clip-rule="evenodd" d="M393.319 379.592C393.319 376.86 395.535 374.644 398.268 374.644H401.979C404.712 374.644 406.928 376.86 406.928 379.592V387.015C406.928 389.748 404.712 391.964 401.979 391.964H398.268C395.535 391.964 393.319 389.748 393.319 387.015V379.592ZM398.268 377.118C396.901 377.118 395.794 378.226 395.794 379.592V387.015C395.794 388.382 396.901 389.489 398.268 389.489H401.979C403.346 389.489 404.453 388.382 404.453 387.015V379.592C404.453 378.226 403.346 377.118 401.979 377.118H398.268Z" fill="#032068"/>
<path d="M394.557 208.871C394.557 206.822 396.218 205.16 398.268 205.16H416.825C418.874 205.16 420.536 206.822 420.536 208.871V216.294C420.536 218.344 418.874 220.005 416.825 220.005H398.268C396.218 220.005 394.557 218.344 394.557 216.294V208.871Z" fill="white"/>
<path fill-rule="evenodd" clip-rule="evenodd" d="M393.319 208.872C393.319 206.139 395.535 203.923 398.268 203.923H416.824C419.557 203.923 421.773 206.139 421.773 208.872V216.294C421.773 219.027 419.557 221.243 416.824 221.243H398.268C395.535 221.243 393.319 219.027 393.319 216.294V208.872ZM398.268 206.397C396.901 206.397 395.794 207.505 395.794 208.872V216.294C395.794 217.661 396.901 218.768 398.268 218.768H416.824C418.191 218.768 419.299 217.661 419.299 216.294V208.872C419.299 207.505 418.191 206.397 416.824 206.397H398.268Z" fill="#032068"/>
<path d="M394.557 208.871C394.557 206.822 396.218 205.16 398.268 205.16H401.979C404.029 205.16 405.691 206.822 405.691 208.871V216.294C405.691 218.344 404.029 220.005 401.979 220.005H398.268C396.218 220.005 394.557 218.344 394.557 216.294V208.871Z" fill="#032068"/>
<path fill-rule="evenodd" clip-rule="evenodd" d="M393.319 208.872C393.319 206.139 395.535 203.923 398.268 203.923H401.979C404.712 203.923 406.928 206.139 406.928 208.872V216.294C406.928 219.027 404.712 221.243 401.979 221.243H398.268C395.535 221.243 393.319 219.027 393.319 216.294V208.872ZM398.268 206.397C396.901 206.397 395.794 207.505 395.794 208.872V216.294C395.794 217.661 396.901 218.768 398.268 218.768H401.979C403.346 218.768 404.453 217.661 404.453 216.294V208.872C404.453 207.505 403.346 206.397 401.979 206.397H398.268Z" fill="#032068"/>
<path d="M257.237 260.83C257.237 258.78 258.899 257.119 260.949 257.119H289.402C291.452 257.119 293.113 258.78 293.113 260.83V276.912C293.113 278.962 291.452 280.624 289.402 280.624H260.949C258.899 280.624 257.237 278.962 257.237 276.912V260.83Z" fill="white"/>
<path fill-rule="evenodd" clip-rule="evenodd" d="M256 260.83C256 258.097 258.215 255.882 260.948 255.882H289.402C292.135 255.882 294.35 258.097 294.35 260.83V276.912C294.35 279.645 292.135 281.861 289.402 281.861H260.948C258.215 281.861 256 279.645 256 276.912V260.83ZM260.948 258.356C259.582 258.356 258.474 259.464 258.474 260.83V276.912C258.474 278.279 259.582 279.387 260.948 279.387H289.402C290.768 279.387 291.876 278.279 291.876 276.912V260.83C291.876 259.464 290.768 258.356 289.402 258.356H260.948Z" fill="#032068"/>
<path fill-rule="evenodd" clip-rule="evenodd" d="M271.406 268.871L263.901 263.044L265.419 261.09L275.176 268.666L284.932 261.09L286.45 263.044L278.883 268.92L285.656 274.737L284.044 276.614L276.889 270.468L276.693 270.62C275.8 271.313 274.551 271.313 273.658 270.62L273.423 270.437L265.419 276.652L263.901 274.698L271.406 268.871Z" fill="#032068"/>
<path fill-rule="evenodd" clip-rule="evenodd" d="M275.175 195.263C265.951 195.263 258.474 202.741 258.474 211.964C258.474 221.188 265.951 228.665 275.175 228.665C284.399 228.665 291.876 221.188 291.876 211.964C291.876 202.741 284.399 195.263 275.175 195.263ZM256 211.964C256 201.374 264.585 192.789 275.175 192.789C285.765 192.789 294.35 201.374 294.35 211.964C294.35 222.554 285.765 231.139 275.175 231.139C264.585 231.139 256 222.554 256 211.964Z" fill="#032068"/>
<path d="M282.756 210.66L272.692 204.967C271.867 204.501 270.846 205.097 270.846 206.044V218.853C270.846 219.856 271.978 220.442 272.797 219.863L282.861 212.747C283.602 212.223 283.545 211.107 282.756 210.66Z" fill="#032068"/>
<path d="M260.948 373.407C260.948 371.357 262.61 369.696 264.66 369.696H285.69C287.74 369.696 289.402 371.357 289.402 373.407V394.438C289.402 396.487 287.74 398.149 285.69 398.149H264.66C262.61 398.149 260.948 396.487 260.948 394.438V373.407Z" fill="white"/>
<path fill-rule="evenodd" clip-rule="evenodd" d="M259.711 373.407C259.711 370.674 261.926 368.458 264.659 368.458H285.69C288.423 368.458 290.639 370.674 290.639 373.407V394.438C290.639 397.171 288.423 399.386 285.69 399.386H264.659C261.926 399.386 259.711 397.171 259.711 394.438V373.407ZM264.659 370.933C263.293 370.933 262.185 372.04 262.185 373.407V394.438C262.185 395.804 263.293 396.912 264.659 396.912H285.69C287.057 396.912 288.164 395.804 288.164 394.438V373.407C288.164 372.04 287.057 370.933 285.69 370.933H264.659Z" fill="#032068"/>
<path d="M281.979 383.922C281.979 387.68 278.933 390.726 275.175 390.726C271.417 390.726 268.371 387.68 268.371 383.922C268.371 380.165 271.417 377.118 275.175 377.118C278.933 377.118 281.979 380.165 281.979 383.922Z" fill="#032068"/>
<path d="M285.69 375.263C285.69 376.288 284.859 377.118 283.834 377.118C282.809 377.118 281.979 376.288 281.979 375.263C281.979 374.238 282.809 373.407 283.834 373.407C284.859 373.407 285.69 374.238 285.69 375.263Z" fill="#032068"/>
<path d="M95.8396 292.995L93.3654 305.984L95.8396 319.593C102.231 320.417 115.262 322.067 116.252 322.067C117.242 322.067 124.499 315.881 128.004 312.789L124.293 292.995C134.685 289.531 138.107 274.232 138.52 267.016C140.994 237.325 121.2 233.614 117.489 233.614C113.778 233.614 90.2726 233.614 87.1798 258.356C84.7056 278.15 91.9221 289.696 95.8396 292.995Z" fill="white"/>
<path fill-rule="evenodd" clip-rule="evenodd" d="M102.62 237.83C96.2339 240.766 89.8949 246.613 88.4078 258.509C85.9754 277.969 93.0981 289.069 96.6369 292.049L97.1907 292.515L94.6241 305.99L96.8953 318.481C100.057 318.888 104.42 319.442 108.223 319.911C110.312 320.169 112.23 320.4 113.685 320.567C114.413 320.651 115.022 320.718 115.477 320.763C115.705 320.786 115.89 320.804 116.03 320.815C116.057 320.817 116.081 320.819 116.103 320.821C116.147 320.799 116.203 320.768 116.274 320.727C116.525 320.58 116.867 320.352 117.291 320.047C118.136 319.441 119.223 318.589 120.405 317.628C122.537 315.893 124.93 313.84 126.659 312.324L122.879 292.162L123.902 291.821C128.603 290.254 131.861 285.956 134.012 280.926C136.15 275.924 137.085 270.441 137.285 266.945L137.286 266.929L137.287 266.913C138.499 252.371 134.256 244.427 129.492 240.096C124.66 235.703 119.102 234.851 117.489 234.851C115.659 234.851 109.087 234.857 102.62 237.83ZM117.479 232.376H117.489C119.588 232.376 125.782 233.379 131.157 238.265C136.597 243.211 141.012 251.963 139.754 267.102C139.54 270.823 138.557 276.589 136.287 281.899C134.162 286.867 130.814 291.652 125.701 293.787L129.35 313.251L128.823 313.716C127.063 315.269 124.359 317.6 121.966 319.547C120.771 320.519 119.639 321.407 118.735 322.057C118.285 322.38 117.871 322.659 117.521 322.863C117.348 322.965 117.168 323.061 116.993 323.135C116.853 323.194 116.575 323.304 116.252 323.304C115.913 323.304 114.813 323.187 113.403 323.025C111.937 322.857 110.012 322.625 107.92 322.367C103.737 321.851 98.8789 321.232 95.6817 320.82L94.7846 320.704L92.1074 305.979L94.4943 293.448C90.1578 289.315 83.541 277.496 85.9527 258.202C87.5584 245.357 94.5182 238.832 101.586 235.582C108.559 232.376 115.581 232.376 117.479 232.376Z" fill="#032068"/>
<path d="M112.347 292.995C118.108 294.915 122.949 293.795 124.949 292.995L126.149 300.196C118.468 299.236 113.948 295.195 112.347 292.995Z" fill="#032068"/>
<path d="M110.686 314.026C98.3146 314.026 93.1599 306.603 91.5105 302.892L87.1807 304.129L114.397 445.159H118.727H184.912L143.469 311.551L129.242 302.892H127.387C126.562 306.603 123.057 314.026 110.686 314.026Z" fill="white"/>
<path fill-rule="evenodd" clip-rule="evenodd" d="M92.204 301.407L92.6407 302.389C94.1552 305.797 98.9426 312.789 110.685 312.789C116.605 312.789 120.262 311.021 122.529 308.939C124.82 306.836 125.805 304.305 126.179 302.623L126.394 301.655H129.589L144.512 310.738L186.591 446.396H113.376L85.751 303.251L92.204 301.407ZM128.341 304.129C127.757 306.083 126.552 308.604 124.203 310.762C121.418 313.319 117.137 315.263 110.685 315.263C98.6699 315.263 93.0429 308.553 90.8508 304.367L88.6098 305.007L115.418 443.922H183.233L142.426 312.365L128.895 304.129H128.341Z" fill="#032068"/>
<path d="M111.922 376.5C108.459 354.232 96.4586 317.737 90.8916 302.273C80.3762 304.129 56.9948 311.304 47.5928 325.16C38.1907 339.015 25.531 384.953 20.3764 406.19C14.8094 425.365 14.8094 446.396 35.8402 446.396H131.098C140.994 427.221 137.902 417.943 134.809 414.231C132.335 411.262 121.358 408.871 116.179 408.046C114.833 396.966 113.353 385.695 111.922 376.5Z" fill="white"/>
<path fill-rule="evenodd" clip-rule="evenodd" d="M91.7026 300.874L90.6765 301.055C85.3285 301.999 76.7544 304.284 68.3161 308.089C59.9048 311.881 51.4608 317.256 46.569 324.465C44.1372 328.049 41.5425 333.625 38.9472 340.227C36.3432 346.851 33.7085 354.585 31.2114 362.536C26.2212 378.426 21.7638 395.231 19.1806 405.872C16.3841 415.514 14.9213 425.814 16.9346 433.787C17.9497 437.807 19.8659 441.3 23.0011 443.781C26.1389 446.264 30.3733 447.633 35.8402 447.633H131.851L132.197 446.964C142.199 427.585 139.312 417.703 135.759 413.439C134.95 412.468 133.577 411.668 132.089 411C130.558 410.312 128.732 409.691 126.852 409.146C123.506 408.177 119.899 407.426 117.295 406.977C115.978 396.189 114.539 385.271 113.145 376.309C109.661 353.912 97.6221 317.317 92.0555 301.854L91.7026 300.874ZM90.0822 303.681C95.7876 319.661 107.328 355.011 110.7 376.69C112.127 385.866 113.605 397.121 114.95 408.195L115.063 409.121L115.984 409.268C118.537 409.674 122.524 410.468 126.164 411.523C127.985 412.05 129.691 412.635 131.076 413.257C132.504 413.898 133.431 414.51 133.858 415.023C136.46 418.145 139.712 426.653 130.341 445.159H35.8402C30.7916 445.159 27.1394 443.9 24.5363 441.84C21.9305 439.779 20.2514 436.816 19.3335 433.181C17.4827 425.852 18.7988 416.061 21.5644 406.535L21.572 406.509L21.5785 406.482C24.1509 395.884 28.5974 379.117 33.572 363.278C36.0594 355.357 38.6747 347.682 41.2498 341.132C43.8337 334.56 46.3471 329.198 48.6164 325.854C53.1266 319.208 61.0743 314.068 69.333 310.344C77.0411 306.869 84.8741 304.693 90.0822 303.681Z" fill="#032068"/>
<path d="M152.128 376.5C148.17 351.757 134.809 316.706 128.623 302.273C135.84 302.685 152.747 306.108 162.644 316.5C175.015 329.489 194.809 377.737 198.52 382.685C205.943 391.345 262.895 414.403 264.087 418.561C269.035 425.365 263.469 443.303 257.283 446.396H160.17C159.139 432.994 156.087 401.242 152.128 376.5Z" fill="white"/>
<path fill-rule="evenodd" clip-rule="evenodd" d="M126.699 300.924L127.486 302.76C133.665 317.178 146.974 352.112 150.907 376.695C154.858 401.391 157.907 433.106 158.936 446.491L159.024 447.633H257.575L257.836 447.503C259.699 446.571 261.358 444.627 262.717 442.329C264.096 439.996 265.257 437.145 266.055 434.193C266.852 431.243 267.3 428.144 267.218 425.311C267.139 422.564 266.558 419.941 265.185 417.971C265.067 417.704 264.9 417.481 264.752 417.309C264.547 417.072 264.296 416.839 264.023 416.614C263.476 416.163 262.746 415.664 261.884 415.13C260.154 414.057 257.766 412.763 254.947 411.318C250.295 408.934 244.389 406.099 238.173 403.116C236.852 402.482 235.516 401.841 234.176 401.197C226.517 397.512 218.689 393.7 212.315 390.27C209.128 388.555 206.322 386.945 204.092 385.504C201.857 384.059 200.297 382.844 199.487 381.911C199.096 381.379 198.437 380.197 197.524 378.395C196.612 376.592 195.492 374.263 194.207 371.553C193.493 370.047 192.728 368.425 191.922 366.713C189.83 362.274 187.456 357.234 184.942 352.067C181.459 344.906 177.695 337.475 174.023 331.014C170.364 324.579 166.745 319.012 163.54 315.647C158.406 310.256 151.504 306.718 145.034 304.475C138.558 302.231 132.414 301.251 128.694 301.038L126.699 300.924ZM144.224 306.813C150.486 308.983 156.986 312.352 161.748 317.353C164.729 320.482 168.223 325.818 171.872 332.237C175.506 338.63 179.242 346.006 182.717 353.149C185.224 358.301 187.587 363.318 189.677 367.753C190.485 369.469 191.252 371.097 191.971 372.613C193.257 375.325 194.389 377.678 195.317 379.512C196.227 381.31 196.99 382.707 197.531 383.427L197.555 383.46L197.581 383.49C198.634 384.719 200.468 386.107 202.748 387.581C205.058 389.074 207.928 390.719 211.143 392.449C217.572 395.908 225.448 399.744 233.104 403.426C234.45 404.074 235.79 404.717 237.113 405.352C243.329 408.335 249.198 411.152 253.819 413.52C256.623 414.958 258.938 416.215 260.58 417.233C261.404 417.743 262.027 418.175 262.449 418.523C262.66 418.697 262.797 418.831 262.878 418.925C262.896 418.946 262.909 418.962 262.919 418.975L262.958 419.112L263.086 419.289C264.118 420.707 264.671 422.819 264.745 425.382C264.818 427.922 264.415 430.776 263.666 433.548C262.917 436.318 261.836 438.957 260.587 441.069C259.399 443.078 258.136 444.482 256.971 445.159H161.314C160.203 431.148 157.208 400.415 153.35 376.304C149.53 352.431 137.044 319.121 130.563 303.68C134.097 304.067 139.045 305.018 144.224 306.813Z" fill="#032068"/>
<path d="M77.2836 398.768L86.5619 361.036L84.0877 398.149L130.034 409.774C133.491 410.649 136.653 412.798 137.658 416.22C140.765 426.803 136.049 439.059 132.335 443.303C136.124 438.974 136.046 417.943 131.716 414.85C128.252 412.376 85.3248 404.335 64.2939 400.623L77.2836 398.768Z" fill="#032068"/>
<path d="M169.448 351.139L192.335 446.396H202.232L169.448 351.139Z" fill="#032068"/>
<path d="M175.633 446.396C175.633 429.572 150.685 424.541 138.52 424.128C138.52 432.541 134.19 440.829 130.479 446.396H175.633Z" fill="white"/>
<path fill-rule="evenodd" clip-rule="evenodd" d="M137.283 422.849L138.562 422.892C144.746 423.101 154.191 424.48 162.136 427.975C170.046 431.454 176.87 437.235 176.87 446.396V447.633H128.167L129.449 445.71C133.125 440.197 137.283 432.164 137.283 424.128V422.849ZM139.725 425.421C139.363 432.802 135.987 439.916 132.744 445.159H174.346C173.771 438.174 168.329 433.402 161.14 430.24C154.079 427.134 145.677 425.757 139.725 425.421Z" fill="#032068"/>
<path d="M295.633 446.396C295.633 431.441 275.989 426.351 265.324 425.984C265.324 433.462 260.432 442.914 257.901 446.396H295.633Z" fill="white"/>
<path fill-rule="evenodd" clip-rule="evenodd" d="M264.087 424.704L265.366 424.748C270.828 424.935 278.594 426.327 285.04 429.618C291.49 432.911 296.87 438.259 296.87 446.396V447.633H255.473L256.9 445.669C258.098 444.02 259.909 440.876 261.418 437.217C262.931 433.547 264.087 429.488 264.087 425.984V424.704ZM266.517 427.282C266.279 430.9 265.102 434.773 263.705 438.16C262.594 440.854 261.317 443.306 260.193 445.159H294.346C293.842 439.008 289.581 434.714 283.915 431.821C278.337 428.973 271.611 427.615 266.517 427.282Z" fill="#032068"/>
<path d="M100.17 273.82L93.3655 302.892C80.0047 302.892 65.3244 310.314 59.9636 314.026C56.8708 294.85 68.6233 286.809 75.4274 271.964C82.2315 257.119 76.6645 222.48 111.304 222.48C139.015 222.48 143.056 247.222 141.613 259.593C129.242 256.129 122.025 243.304 119.963 237.325C118.726 240.418 108.211 268.253 104.499 261.449C100.788 254.644 95.2211 252.789 92.1284 261.449C89.6542 268.376 96.4583 272.583 100.17 273.82Z" fill="#032068"/>
<path d="M150.272 308.459C141.86 300.046 138.52 280.624 137.901 271.964C135.922 286.314 128.005 291.964 124.293 292.995L126.149 302.892C137.035 302.397 146.767 306.397 150.272 308.459Z" fill="#032068"/>
<path d="M44.4997 446.396C41.5307 426.603 26.5616 414.025 19.1389 410.52C15.1286 426.694 16.0462 446.396 33.3657 446.396H44.4997Z" fill="#032068"/>
<path d="M250.868 352.22L216.334 430.642C214.6 434.579 217.484 438.999 221.785 438.999H327.164C329.584 438.999 331.763 437.534 332.678 435.294L364.694 356.872C366.294 352.954 363.412 348.665 359.18 348.665H256.319C253.958 348.665 251.82 350.059 250.868 352.22Z" fill="white"/>
<path fill-rule="evenodd" clip-rule="evenodd" d="M256.32 349.902C254.449 349.902 252.755 351.007 252.001 352.719L217.466 431.14C216.093 434.259 218.377 437.762 221.785 437.762H327.164C329.081 437.762 330.808 436.601 331.533 434.826L363.549 356.405C364.816 353.301 362.533 349.902 359.18 349.902H256.32ZM249.736 351.722C250.885 349.112 253.468 347.428 256.32 347.428H359.18C364.291 347.428 367.771 352.608 365.84 357.34L333.824 435.761C332.719 438.467 330.087 440.236 327.164 440.236H221.785C216.59 440.236 213.108 434.898 215.202 430.143L249.736 351.722Z" fill="#032068"/>
<path d="M283.056 387.558C284.993 383.066 289.415 380.157 294.307 380.157C303.115 380.157 309.045 389.173 305.557 397.261L304.688 399.277C302.751 403.768 298.328 406.677 293.437 406.677C284.629 406.677 278.699 397.661 282.187 389.573L283.056 387.558Z" fill="#032068"/>
<path d="M325.51 446.457H142.624C139.649 446.457 137.237 444.046 137.237 441.07C137.237 438.095 139.649 435.684 142.624 435.684H325.51C329.37 435.684 331.977 439.624 330.468 443.177C329.623 445.166 327.671 446.457 325.51 446.457Z" fill="#032068"/>
</svg>
