<svg width="512" height="512" viewBox="0 0 512 512" fill="none" xmlns="http://www.w3.org/2000/svg">
<path d="M98.115 439.126H423.281C470.212 439.126 501.615 390.855 482.578 347.977C476.183 333.574 475.254 317.337 479.964 302.299L492.737 261.521C506.05 219.016 477.151 174.957 432.846 170.212L428.281 169.723C401.325 166.836 379.098 147.319 372.759 120.971C361.194 72.8919 301.826 55.4534 266.076 89.6344L246.688 108.172C228.901 125.178 204.115 132.773 179.849 128.652L176.298 128.049C126.113 119.527 82.1325 162.261 89.2343 212.645C93.0919 240.013 81.6129 267.29 59.3435 283.673L49.4455 290.955C30.6513 304.781 18.6307 325.948 16.3877 349.165C11.7292 397.385 49.6497 439.126 98.115 439.126Z" fill="#E7E8FF"/>
<path d="M285.852 303.195C285.852 306.019 282.78 310.843 281.244 312.901L283.087 323.49L296.911 325.255C300.598 320.843 311.657 319.078 314.422 312.019C316.633 306.372 310.428 300.254 307.049 298.783L318.373 283.604C319.772 281.729 319.45 279.086 317.641 277.602C315.838 276.121 313.19 276.315 311.621 278.042L295.99 295.254C295.99 295.842 295.437 295.783 293.225 290.842C290.46 284.666 287.695 287.313 285.852 288.195C284.009 289.077 285.852 299.666 285.852 303.195Z" fill="white"/>
<path fill-rule="evenodd" clip-rule="evenodd" d="M318.369 276.714C316.092 274.846 312.751 275.091 310.771 277.271L295.878 293.668C295.508 293.009 294.986 291.967 294.272 290.373C292.834 287.161 291.161 285.723 289.192 285.723C288.299 285.723 287.507 286.032 286.886 286.337C286.574 286.491 286.278 286.657 286.025 286.799L286.021 286.801C285.755 286.951 285.545 287.069 285.355 287.16C284.692 287.477 284.387 288.12 284.232 288.588C284.063 289.098 283.975 289.705 283.929 290.33C283.836 291.59 283.899 293.176 284.015 294.785C284.11 296.102 284.243 297.475 284.367 298.745C284.395 299.035 284.423 299.319 284.449 299.596C284.595 301.114 284.703 302.379 284.703 303.195C284.703 304.297 284.066 305.986 283.108 307.799C282.18 309.554 281.062 311.224 280.323 312.215L280.027 312.611L282.101 324.521L297.389 326.473L297.791 325.991C298.573 325.055 299.803 324.201 301.374 323.319C302.33 322.783 303.333 322.279 304.383 321.75C305.082 321.398 305.803 321.036 306.545 320.646C310.102 318.778 313.936 316.405 315.49 312.438C316.798 309.097 315.569 305.739 313.771 303.176C312.345 301.143 310.445 299.435 308.767 298.4L319.293 284.291C321.058 281.924 320.651 278.587 318.369 276.714ZM312.471 278.814C313.628 277.54 315.581 277.397 316.912 278.489C318.246 279.584 318.484 281.534 317.452 282.918L305.262 299.258L306.59 299.836C308.058 300.475 310.297 302.222 311.891 304.494C313.487 306.77 314.255 309.294 313.352 311.6C312.141 314.692 309.063 316.731 305.478 318.613C304.816 318.961 304.124 319.309 303.433 319.657C302.335 320.211 301.236 320.765 300.251 321.317C298.836 322.11 297.488 322.987 296.462 324.04L284.072 322.458L282.458 313.185C283.235 312.104 284.262 310.529 285.138 308.872C286.1 307.052 286.999 304.917 286.999 303.195C286.999 302.247 286.877 300.865 286.735 299.377C286.708 299.093 286.68 298.804 286.651 298.511C286.528 297.243 286.398 295.905 286.305 294.62C286.191 293.03 286.139 291.583 286.219 290.499C286.259 289.953 286.329 289.56 286.412 289.309C286.433 289.246 286.451 289.202 286.465 289.173C286.69 289.06 286.917 288.932 287.123 288.816L287.147 288.803C287.408 288.656 287.65 288.52 287.898 288.398C288.4 288.152 288.818 288.02 289.192 288.02C289.758 288.02 290.849 288.346 292.176 291.311C293.281 293.779 294.016 295.135 294.514 295.806C294.642 295.978 294.785 296.149 294.947 296.288C295.066 296.392 295.393 296.656 295.868 296.656C296.526 296.656 296.886 296.191 297.015 295.891C297.03 295.857 297.043 295.822 297.054 295.789L312.471 278.814Z" fill="#032068"/>
<path d="M136.967 249.942L134.381 264.53L137.348 279.741C144.522 280.573 159.145 282.234 160.254 282.22C161.363 282.206 169.406 275.172 173.289 271.657L168.847 249.534C180.441 245.504 184.056 228.315 184.415 220.224C186.761 186.924 164.531 183.05 160.373 183.103C156.214 183.157 129.879 183.493 126.768 211.258C124.28 233.469 132.531 246.302 136.967 249.942Z" fill="white"/>
<path fill-rule="evenodd" clip-rule="evenodd" d="M143.67 187.826C136.492 191.238 129.414 197.944 127.908 211.386C125.455 233.286 133.614 245.706 137.695 249.054L138.214 249.48L135.548 264.52L138.314 278.697C141.875 279.109 146.863 279.678 151.201 280.157C153.545 280.416 155.698 280.647 157.332 280.814C158.149 280.897 158.833 280.963 159.346 281.008C159.602 281.031 159.811 281.048 159.971 281.059C160.028 281.062 160.078 281.066 160.119 281.068C160.18 281.038 160.266 280.992 160.381 280.923C160.67 280.749 161.056 280.484 161.53 280.134C162.473 279.438 163.683 278.465 164.995 277.37C167.404 275.359 170.11 272.975 172.034 271.242L167.524 248.778L168.469 248.45C173.809 246.594 177.434 241.655 179.782 235.964C182.119 230.299 183.092 224.114 183.267 220.173L183.268 220.158L183.269 220.143C184.422 203.776 179.537 194.858 174.071 190.016C168.541 185.117 162.24 184.228 160.386 184.251C158.331 184.278 150.923 184.378 143.67 187.826ZM160.347 181.956L160.357 181.955C162.662 181.926 169.555 182.947 175.594 188.297C181.694 193.702 186.749 203.367 185.56 220.29C185.375 224.44 184.36 230.887 181.905 236.84C179.582 242.471 175.879 247.865 170.163 250.259L174.542 272.07L174.059 272.508C172.111 274.272 169.117 276.92 166.467 279.133C165.143 280.237 163.892 281.245 162.894 281.982C162.397 282.349 161.943 282.663 161.564 282.89C161.376 283.004 161.185 283.108 161.003 283.189C160.853 283.254 160.58 283.364 160.268 283.368C159.906 283.373 158.691 283.26 157.099 283.098C155.455 282.931 153.296 282.698 150.949 282.439C146.255 281.921 140.803 281.298 137.215 280.881L136.382 280.785L133.213 264.54L135.722 250.382C130.875 245.959 123.192 232.864 125.626 211.13C127.231 196.807 134.877 189.463 142.684 185.752C150.403 182.083 158.229 181.983 160.347 181.956Z" fill="#032068"/>
<path d="M154.918 273.037C141.056 273.037 136.008 263.907 134.16 258.825C132.285 259.113 127.684 260.052 125.015 260.481L144.067 358.023C145.591 386.219 143.832 410.392 144.067 436.514H169.216C169.724 419.749 166.93 378.598 166.93 358.023L180.648 260.481C177.142 259.808 174.478 259.77 172.264 259.719C171.34 264.801 168.78 273.037 154.918 273.037Z" fill="white"/>
<path fill-rule="evenodd" clip-rule="evenodd" d="M134.917 257.547L135.239 258.433C136.127 260.877 137.768 264.24 140.804 266.986C143.815 269.709 148.267 271.889 154.918 271.889C161.606 271.889 165.376 269.913 167.6 267.505C169.86 265.057 170.683 261.997 171.135 259.513L171.31 258.548L172.291 258.571C172.377 258.573 172.463 258.575 172.55 258.577C174.719 258.626 177.394 258.687 180.864 259.353L181.937 259.559L168.078 358.103C168.081 367.512 168.666 381.213 169.252 394.94C169.305 396.177 169.358 397.414 169.411 398.649C170.045 413.585 170.619 428.114 170.364 436.549L170.33 437.662H142.929L142.919 436.525C142.83 426.61 143.025 417.019 143.221 407.403C143.544 391.573 143.868 375.677 142.925 358.165L123.66 259.536L124.833 259.347C126.148 259.136 127.949 258.797 129.672 258.472C129.737 258.46 129.803 258.448 129.868 258.435C131.504 258.126 133.06 257.833 133.985 257.69L134.917 257.547ZM126.367 261.417L145.209 357.881L145.213 357.961C146.165 375.563 145.838 391.664 145.515 407.597C145.328 416.823 145.142 425.993 145.206 435.366H168.097C168.272 426.901 167.725 413.073 167.116 398.746C167.064 397.507 167.011 396.265 166.958 395.022C166.371 381.277 165.782 367.486 165.782 358.023V357.943L179.356 261.417C176.935 261.022 174.949 260.934 173.205 260.889C172.678 263.368 171.68 266.471 169.286 269.063C166.534 272.044 162.093 274.185 154.918 274.185C147.708 274.185 142.704 271.801 139.264 268.689C136.218 265.934 134.451 262.66 133.424 260.112C132.56 260.264 131.443 260.475 130.254 260.699C130.202 260.709 130.15 260.719 130.098 260.728C128.84 260.966 127.517 261.215 126.367 261.417Z" fill="#032068"/>
<path d="M144.411 235.984C141.844 252.097 137.939 253.857 136.307 252.723C116.742 240.497 116.7 200.636 128.534 186.976C139.463 174.36 147.842 179.105 170.641 173.268C193.441 167.432 201.188 177.036 197.19 189.564C191.433 207.597 172.347 198.199 167.522 200.34C162.697 202.481 156.531 208.105 153.9 219.228C151.27 230.352 149.857 228.29 147.698 222.08C145.54 215.869 139.88 206.931 135.864 218.073C132.65 226.986 140.223 233.727 144.411 235.984Z" fill="#032068"/>
<path d="M49.5673 356.499C64.1995 304.679 77.0025 284.832 90.7202 273.037C100.465 264.658 113.373 261.189 123.262 259.385C125.087 259.052 126.819 260.258 127.217 262.071C131.58 281.905 142.768 317.252 147.877 356.499C149.401 384.695 149.166 410.392 149.401 436.514H86.9099C72.2704 436.514 31.277 421.273 49.5673 356.499Z" fill="white"/>
<path d="M222.149 283.433C212.352 269.327 196.441 262.467 184.443 259.575C182.557 259.12 180.728 260.39 180.395 262.302C175.736 289.07 164.107 338.773 162.357 358.023C162.357 378.598 162.865 419.749 162.357 436.514H235.048C235.623 421.329 235.658 407.101 235.223 393.839C257.619 393.839 298.772 338.21 300.296 333.637C301.82 329.065 289.627 306.204 279.72 307.728C268.288 312.3 246.95 336.686 244.193 329.827C241.988 324.34 228.578 296.612 222.149 283.433Z" fill="white"/>
<path fill-rule="evenodd" clip-rule="evenodd" d="M126.096 262.317C125.824 261.081 124.658 260.297 123.468 260.515C113.626 262.31 100.973 265.736 91.4688 273.908C78.0119 285.478 65.286 305.056 50.6722 356.811C41.5968 388.951 47.2905 408.532 56.7767 420.068C66.3181 431.67 79.8788 435.366 86.9099 435.366H148.243C148.2 430.221 148.173 425.094 148.146 419.961C148.039 399.419 147.931 378.789 146.733 356.604C143.077 328.544 136.325 302.555 131.173 282.726C129.132 274.872 127.342 267.984 126.096 262.317ZM123.056 258.256C125.517 257.807 127.813 259.436 128.339 261.824C129.559 267.371 131.327 274.177 133.351 281.97C138.512 301.836 145.341 328.122 149.016 356.351L149.021 356.394L149.024 356.437C150.227 378.7 150.335 399.414 150.442 419.976C150.471 425.487 150.5 430.988 150.55 436.504L150.56 437.662H86.9099C79.3014 437.662 65.0457 433.738 55.0031 421.526C44.9053 409.247 39.2475 388.821 48.4623 356.187C63.1129 304.303 75.9931 284.186 89.9716 272.167C99.9575 263.581 113.119 260.068 123.056 258.256ZM179.264 262.105C179.704 259.576 182.146 257.84 184.712 258.459C196.843 261.383 213.068 268.345 223.092 282.778L223.142 282.851L223.18 282.93C229.596 296.079 243.033 323.862 245.258 329.399C245.359 329.649 245.465 329.745 245.536 329.79C245.612 329.838 245.75 329.892 246.017 329.886C246.601 329.873 247.504 329.579 248.752 328.901C251.208 327.568 254.41 325.091 257.977 322.175C259.061 321.288 260.178 320.363 261.311 319.424C263.86 317.31 266.493 315.128 269.031 313.166C272.685 310.342 276.272 307.87 279.293 306.662L279.415 306.613L279.545 306.593C282.491 306.14 285.434 307.514 288.044 309.592C290.68 311.691 293.161 314.651 295.248 317.756C297.338 320.867 299.069 324.18 300.186 327.026C300.744 328.448 301.158 329.78 301.383 330.929C301.598 332.033 301.674 333.136 301.385 334C301.246 334.417 300.935 334.999 300.548 335.653C300.142 336.336 299.599 337.187 298.934 338.177C297.605 340.157 295.772 342.723 293.551 345.665C289.11 351.547 283.1 358.959 276.433 366.229C269.77 373.494 262.425 380.647 255.315 385.993C248.717 390.954 242.139 394.501 236.407 394.941C236.804 407.906 236.754 421.781 236.195 436.557L236.154 437.662H161.174L161.209 436.479C161.561 424.893 161.425 401.642 161.309 381.588C161.257 372.663 161.209 364.371 161.209 358.023V357.971L161.214 357.919C162.096 348.216 165.457 330.907 169.16 312.752C170.024 308.517 170.908 304.234 171.783 299.985C174.671 285.98 177.48 272.357 179.264 262.105ZM184.174 260.691C182.967 260.4 181.752 261.204 181.526 262.499C179.735 272.79 176.916 286.465 174.026 300.478C173.152 304.72 172.271 308.992 171.41 313.211C167.704 331.38 164.38 348.518 163.505 358.075C163.505 364.379 163.553 372.62 163.605 381.501C163.718 400.917 163.848 423.39 163.538 435.366H233.942C234.476 420.62 234.498 406.788 234.076 393.877L234.037 392.691H235.223C240.42 392.691 246.929 389.426 253.935 384.158C260.887 378.931 268.125 371.891 274.74 364.677C281.351 357.468 287.315 350.115 291.718 344.281C293.92 341.364 295.728 338.834 297.028 336.897C297.678 335.928 298.197 335.115 298.573 334.481C298.967 333.817 299.155 333.429 299.207 333.274C299.3 332.996 299.327 332.384 299.129 331.369C298.94 330.398 298.574 329.205 298.048 327.865C296.998 325.187 295.347 322.022 293.342 319.037C291.332 316.046 289.002 313.29 286.613 311.388C284.249 309.505 281.998 308.592 280.02 308.845C277.347 309.943 274.028 312.206 270.436 314.982C267.929 316.92 265.348 319.059 262.814 321.16C261.673 322.106 260.541 323.044 259.43 323.953C255.888 326.848 252.524 329.466 249.847 330.919C248.528 331.635 247.223 332.156 246.068 332.182C245.464 332.195 244.851 332.075 244.306 331.729C243.755 331.38 243.372 330.863 243.128 330.255C240.947 324.829 227.614 297.255 221.156 284.016C211.582 270.286 196.018 263.546 184.174 260.691Z" fill="#032068"/>
<path d="M117.394 310.776L120.442 261.243H125.777C128.825 273.436 136.141 303.46 141.018 326.017C145.896 348.574 146.607 366.914 146.353 373.264L120.442 326.017L129.587 313.062L117.394 310.776Z" fill="#E7E8FF"/>
<path d="M164.643 354.213C167.082 333.485 177.853 283.596 182.934 261.243L189.03 262.767L195.127 310.776L179.123 313.062L189.03 326.779L163.881 374.788V367.93C163.881 360.004 164.389 355.483 164.643 354.213Z" fill="#E7E8FF"/>
<path d="M227.136 322.207C230.184 336.838 233.487 376.566 234.757 394.601L240.091 392.315C238.872 370.978 230.946 336.686 227.136 322.207Z" fill="#032068"/>
<path d="M141.018 368.692C133.702 368.692 99.3572 373.264 83.0992 375.55C86.4016 373.772 93.4636 369.911 95.2927 368.692C97.1217 367.472 105.2 347.862 109.01 338.21L102.914 367.167C109.62 365.948 131.111 367.675 141.018 368.692Z" fill="#032068"/>
<path d="M150.163 402.984C130.044 420.663 95.0386 431.688 80.0508 434.99C83.7088 436.819 92.7524 436.768 96.8169 436.514C119.985 430.418 142.034 411.62 150.163 402.984Z" fill="#032068"/>
<path d="M160.071 321.351V392.301C160.071 394.596 162.273 396.249 164.476 395.609L204.918 383.868C206.351 383.452 207.353 382.161 207.4 380.67L209.477 314.919C209.545 312.765 207.64 311.079 205.51 311.406L162.992 317.947C161.312 318.206 160.071 319.651 160.071 321.351Z" fill="white"/>
<path fill-rule="evenodd" clip-rule="evenodd" d="M208.329 314.883C208.374 313.447 207.104 312.323 205.684 312.541L163.166 319.082C162.046 319.254 161.219 320.218 161.219 321.351V392.301C161.219 393.831 162.687 394.933 164.156 394.506L164.45 395.519L164.156 394.506L204.597 382.766C205.553 382.489 206.221 381.628 206.252 380.633L208.329 314.883ZM205.335 310.272C208.175 309.835 210.715 312.084 210.624 314.955L208.547 380.706C208.485 382.694 207.148 384.416 205.238 384.971L164.796 396.711C161.858 397.564 158.923 395.36 158.923 392.301V321.351C158.923 319.085 160.577 317.157 162.817 316.812L205.335 310.272Z" fill="#032068"/>
<path d="M159.309 356.499C149.554 360.766 146.608 368.184 146.354 372.502L150.164 392.315C153.212 391.096 158.801 389.521 160.833 389.267C178.361 383.933 176.075 366.405 173.789 361.071C171.96 356.804 163.374 360.817 159.309 363.357V356.499Z" fill="white"/>
<path fill-rule="evenodd" clip-rule="evenodd" d="M160.457 354.743V361.356C162.398 360.289 164.808 359.175 167.084 358.554C168.591 358.142 170.149 357.915 171.511 358.138C172.932 358.37 174.198 359.113 174.844 360.619C176.072 363.484 177.254 369.449 175.859 375.43C174.441 381.504 170.361 387.567 161.167 390.365L161.073 390.394L160.975 390.406C160.055 390.521 158.224 390.956 156.193 391.533C154.18 392.106 152.062 392.792 150.59 393.381L149.298 393.898L145.198 372.578L145.207 372.434C145.485 367.707 148.678 359.896 158.848 355.447L160.457 354.743ZM147.508 372.43L151.034 390.761C152.411 390.269 154.03 389.761 155.565 389.325C157.537 388.764 159.46 388.296 160.588 388.141C168.858 385.594 172.377 380.245 173.623 374.908C174.895 369.458 173.791 363.992 172.733 361.523C172.464 360.895 171.971 360.54 171.14 360.404C170.251 360.258 169.065 360.393 167.689 360.769C164.955 361.516 161.898 363.092 159.917 364.331L158.16 365.429V358.315C150.215 362.415 147.776 368.734 147.508 372.43Z" fill="#032068"/>
<path d="M96.6449 432.964C75.6346 406.119 54.3324 396.977 46.3076 395.761C48.4962 409.621 54.3324 420.563 65.2753 429.317C74.0296 436.32 89.836 434.667 96.6449 432.964Z" fill="#032068"/>
<path d="M154.165 249.511C160.846 251.644 166.42 250.279 168.719 249.325L170.922 259C162.037 258.005 156.045 252.029 154.165 249.511Z" fill="#032068"/>
<path d="M189.094 320.095L179.828 321.374C176.635 321.814 173.788 319.333 173.788 316.11L195.889 312.3C195.889 316.231 192.988 319.558 189.094 320.095Z" fill="#032068"/>
<path d="M144.829 367.929C142.39 366.101 114.853 370.724 101.39 373.264L107.486 426.607C116.632 423.559 153.212 404.508 153.974 400.698C154.736 396.887 147.877 370.216 144.829 367.929Z" fill="white"/>
<path fill-rule="evenodd" clip-rule="evenodd" d="M183.425 267.111C180.754 260.295 175.509 256.294 169.217 256.294V253.998C176.643 253.998 182.622 258.767 185.563 266.273C188.498 273.762 188.449 284.004 184.003 295.313L181.866 294.473C186.151 283.574 186.102 273.943 183.425 267.111ZM122.392 295.224C114.641 269.523 127.108 256.951 135.494 255.538L135.876 257.802C129.284 258.913 117.1 269.727 124.591 294.561L122.392 295.224Z" fill="#032068"/>
<path d="M188.269 301.631C188.269 306.261 184.857 310.014 180.648 310.014C176.439 310.014 173.027 306.261 173.027 301.631C173.027 297.002 176.439 293.249 180.648 293.249C184.857 293.249 188.269 297.002 188.269 301.631Z" fill="#032068"/>
<path fill-rule="evenodd" clip-rule="evenodd" d="M127.9 296.226C127.219 295.935 126.255 295.815 124.901 296.033C123.345 296.283 122.373 296.775 121.783 297.348C121.209 297.905 120.898 298.633 120.839 299.574C120.714 301.557 121.725 304.297 123.581 307.399C124.694 309.259 126.064 311.173 127.552 313.027C128.539 310.162 129.319 307.34 129.733 304.815C130.252 301.653 130.153 299.199 129.403 297.697C129.049 296.989 128.559 296.507 127.9 296.226ZM129.264 315.074C130.501 311.668 131.498 308.243 131.999 305.187C132.533 301.936 132.549 298.858 131.457 296.671C130.89 295.536 130.02 294.634 128.801 294.114C127.604 293.603 126.173 293.502 124.536 293.766C122.683 294.064 121.216 294.698 120.183 295.701C119.132 296.721 118.635 298.021 118.547 299.431C118.376 302.15 119.713 305.407 121.611 308.578C122.996 310.893 124.751 313.277 126.641 315.538C125.351 318.927 123.838 322.275 122.366 325.166L124.412 326.208C125.741 323.598 127.117 320.595 128.343 317.5C131.219 320.703 134.241 323.515 136.659 325.323L138.034 323.485C135.513 321.599 132.263 318.526 129.264 315.074Z" fill="#032068"/>
<path d="M125.569 326.675C125.569 328.301 124.251 329.619 122.625 329.619C120.999 329.619 119.681 328.301 119.681 326.675C119.681 325.049 120.999 323.731 122.625 323.731C124.251 323.731 125.569 325.049 125.569 326.675Z" fill="#032068"/>
<path d="M140.811 325.151C140.811 326.777 139.492 328.095 137.866 328.095C136.24 328.095 134.922 326.777 134.922 325.151C134.922 323.525 136.24 322.207 137.866 322.207C139.492 322.207 140.811 323.525 140.811 325.151Z" fill="#032068"/>
<path d="M211.137 94.0699C201.794 86.0537 193.009 94.7958 190.688 100.167C188.368 94.7958 180.018 86.0537 170.675 94.0699C158.79 104.267 176.306 127.313 189.692 137.328C190.287 137.774 191.089 137.774 191.685 137.328C205.091 127.313 223.023 104.267 211.137 94.0699Z" fill="#032068"/>
<path fill-rule="evenodd" clip-rule="evenodd" d="M191.71 106.199L195.013 117.057L199.719 110.71L203.981 115.883L203.531 116.262L199.743 111.665L194.791 118.344L191.655 108.034L186.932 120.774L181.179 112.461L176.597 117.096L176.183 116.677L181.259 111.542L186.774 119.512L191.71 106.199Z" fill="white"/>
<path d="M303.536 104.363H314.537V113.539H303.536V125.955H293.375V113.539H282.342V104.363H293.375V92.2964H303.536V104.363Z" fill="white"/>
<path d="M212.414 214.312H219.415V220.297H212.414V228.394H205.948V220.297H198.927V214.312H205.948V206.443H212.414V214.312Z" fill="white"/>
<path d="M470.976 242.531H476.976V247.718H470.976V254.735H465.433V247.718H459.415V242.531H465.433V235.711H470.976V242.531Z" fill="white"/>
<path d="M482.279 397.296C467.34 397.296 455.305 423.906 451.155 437.211H461.27C474.498 423.906 497.218 397.296 482.279 397.296Z" fill="white"/>
<path fill-rule="evenodd" clip-rule="evenodd" d="M452.636 436.142H460.815C467.377 429.511 476.107 419.777 481.428 411.682C482.777 409.63 483.894 407.702 484.699 405.971C485.51 404.228 485.976 402.746 486.079 401.57C486.181 400.404 485.919 399.682 485.451 399.231C484.958 398.756 484.014 398.365 482.279 398.365C478.883 398.365 475.568 399.877 472.39 402.484C469.213 405.091 466.248 408.734 463.584 412.841C458.618 420.496 454.796 429.604 452.636 436.142ZM471.004 400.84C474.414 398.042 478.205 396.227 482.279 396.227C484.279 396.227 485.893 396.668 486.965 397.7C488.062 398.757 488.373 400.217 488.239 401.754C488.106 403.281 487.527 405.02 486.67 406.863C485.807 408.719 484.631 410.74 483.247 412.846C477.722 421.251 468.676 431.289 462.044 437.96L461.726 438.28H449.688L450.119 436.896C452.214 430.181 456.296 420.107 461.758 411.688C464.489 407.478 467.593 403.638 471.004 400.84Z" fill="#032068"/>
<path d="M478.388 342.797C451.622 337.884 435.074 404.716 430.146 438.746H454.267C473.46 408.81 505.155 347.71 478.388 342.797Z" fill="#032068"/>
<path fill-rule="evenodd" clip-rule="evenodd" d="M469.013 371.091L474.733 356.226L472.707 355.467L459.454 389.904L455.255 380.736L453.28 381.617L458.368 392.726L447.225 421.682L442.816 411.462L440.821 412.299L446.115 424.569L440.805 438.367L442.832 439.126L453.577 411.202L467.265 406.755L466.587 404.724L454.568 408.628L467.802 374.239L479.705 367.521L478.628 365.664L469.013 371.091Z" fill="white"/>
<path d="M238.486 150.747C238.486 145.165 243 140.64 248.568 140.64H433.188C438.756 140.64 443.269 145.165 443.269 150.747V387.992C443.269 393.574 438.756 398.099 433.188 398.099H248.568C243 398.099 238.486 393.574 238.486 387.992V150.747Z" fill="white"/>
<path fill-rule="evenodd" clip-rule="evenodd" d="M236.976 150.747C236.976 144.329 242.166 139.126 248.568 139.126H433.188C439.59 139.126 444.78 144.329 444.78 150.747V387.992C444.78 394.41 439.59 399.613 433.188 399.613H248.568C242.166 399.613 236.976 394.41 236.976 387.992V150.747ZM248.568 142.155C243.835 142.155 239.998 146.002 239.998 150.747V387.992C239.998 392.737 243.835 396.584 248.568 396.584H433.188C437.921 396.584 441.758 392.737 441.758 387.992V150.747C441.758 146.002 437.921 142.155 433.188 142.155H248.568Z" fill="#032068"/>
<path d="M238.486 150.747C238.486 145.165 243 140.64 248.568 140.64H433.188C438.756 140.64 443.269 145.165 443.269 150.747V175.978H238.486V150.747Z" fill="#032068"/>
<path d="M270.379 158.309C270.379 162.491 266.998 165.881 262.826 165.881C258.654 165.881 255.272 162.491 255.272 158.309C255.272 154.127 258.654 150.736 262.826 150.736C266.998 150.736 270.379 154.127 270.379 158.309Z" fill="white"/>
<path d="M295.559 158.309C295.559 162.491 292.177 165.881 288.006 165.881C283.834 165.881 280.452 162.491 280.452 158.309C280.452 154.127 283.834 150.736 288.006 150.736C292.177 150.736 295.559 154.127 295.559 158.309Z" fill="white"/>
<path d="M320.737 158.309C320.737 162.491 317.355 165.881 313.183 165.881C309.012 165.881 305.63 162.491 305.63 158.309C305.63 154.127 309.012 150.736 313.183 150.736C317.355 150.736 320.737 154.127 320.737 158.309Z" fill="white"/>
<path fill-rule="evenodd" clip-rule="evenodd" d="M411.467 210.895H325.756V207.866H411.467V210.895Z" fill="#E7E8FF"/>
<path fill-rule="evenodd" clip-rule="evenodd" d="M411.467 276.51H325.756V273.481H411.467V276.51Z" fill="#E7E8FF"/>
<path fill-rule="evenodd" clip-rule="evenodd" d="M411.467 346.813H325.756V343.783H411.467V346.813Z" fill="#E7E8FF"/>
<path fill-rule="evenodd" clip-rule="evenodd" d="M411.467 229.642H325.756V226.613H411.467V229.642Z" fill="#E7E8FF"/>
<path fill-rule="evenodd" clip-rule="evenodd" d="M411.467 295.258H325.756V292.228H411.467V295.258Z" fill="#E7E8FF"/>
<path fill-rule="evenodd" clip-rule="evenodd" d="M411.467 365.56H325.756V362.53H411.467V365.56Z" fill="#E7E8FF"/>
<path d="M268.096 208.551C268.096 202.969 272.609 198.444 278.177 198.444H296.974C302.542 198.444 307.055 202.969 307.055 208.551V227.395C307.055 232.976 302.542 237.501 296.974 237.501H278.177C272.609 237.501 268.096 232.976 268.096 227.395V208.551Z" fill="#032068"/>
<path fill-rule="evenodd" clip-rule="evenodd" d="M266.08 277.291C266.08 270.593 271.496 265.163 278.178 265.163H296.975C303.656 265.163 309.072 270.593 309.072 277.291V296.135C309.072 302.833 303.656 308.262 296.975 308.262H278.178C271.496 308.262 266.08 302.833 266.08 296.135V277.291ZM278.178 269.206C273.723 269.206 270.113 272.825 270.113 277.291V296.135C270.113 300.6 273.723 304.22 278.178 304.22H296.975C301.429 304.22 305.04 300.6 305.04 296.135V277.291C305.04 272.825 301.429 269.206 296.975 269.206H278.178Z" fill="#032068"/>
<path fill-rule="evenodd" clip-rule="evenodd" d="M266.08 346.03C266.08 339.333 271.496 333.903 278.178 333.903H296.975C303.656 333.903 309.072 339.333 309.072 346.03V364.874C309.072 371.572 303.656 377.002 296.975 377.002H278.178C271.496 377.002 266.08 371.572 266.08 364.874V346.03ZM278.178 337.945C273.723 337.945 270.113 341.565 270.113 346.03V364.874C270.113 369.34 273.723 372.96 278.178 372.96H296.975C301.429 372.96 305.04 369.34 305.04 364.874V346.03C305.04 341.565 301.429 337.945 296.975 337.945H278.178Z" fill="#032068"/>
<path fill-rule="evenodd" clip-rule="evenodd" d="M303.577 211.087L282.124 229.905L272.293 216.107L277.211 212.585L283.165 220.941L299.597 206.527L303.577 211.087Z" fill="white"/>
<path d="M465.824 311.839C434.743 299.826 418.931 290.461 401.083 270.849C399.312 268.903 396.236 268.873 394.425 270.782C374.072 292.232 357.836 300.176 330.387 311.782C328.648 312.517 327.569 314.309 327.722 316.191C333.263 384.272 348.339 414.13 395.861 437.431C397.068 438.023 398.515 438.015 399.717 437.414C443.87 415.332 462.552 392.769 468.629 316.312C468.783 314.377 467.635 312.538 465.824 311.839Z" fill="white"/>
<path fill-rule="evenodd" clip-rule="evenodd" d="M393.363 269.774C395.758 267.25 399.821 267.288 402.165 269.864C419.809 289.251 435.397 298.51 466.351 310.474C468.77 311.408 470.292 313.852 470.088 316.428C467.043 354.728 460.831 379.761 449.701 398.016C438.543 416.316 422.549 427.631 400.372 438.723C398.762 439.528 396.835 439.539 395.216 438.745C371.272 427.005 355.354 413.534 344.767 394.31C334.211 375.144 329.038 350.406 326.263 316.31C326.059 313.803 327.492 311.417 329.817 310.434C357.202 298.855 373.218 291.006 393.363 269.774ZM400 271.834C398.803 270.518 396.712 270.496 395.486 271.789L394.425 270.782L395.486 271.789C374.926 293.458 358.469 301.497 330.956 313.129C329.803 313.617 329.078 314.815 329.181 316.073C331.947 350.058 337.082 374.289 347.33 392.898C357.546 411.448 372.927 424.557 396.505 436.117C397.3 436.507 398.267 436.503 399.062 436.105C421.037 425.115 436.461 414.108 447.202 396.492C457.97 378.831 464.137 354.354 467.17 316.196C467.273 314.902 466.499 313.669 465.296 313.204C434.089 301.142 418.053 291.671 400 271.834Z" fill="#032068"/>
<path d="M388.839 341.927H369.513V359.849H388.839V384.097H406.693V359.849H426.076V341.927H406.693V318.361H388.839V341.927Z" fill="#032068"/>
</svg>
