<svg width="512" height="512" viewBox="0 0 512 512" fill="none" xmlns="http://www.w3.org/2000/svg">
<path d="M366.453 158.499C366.453 165.636 352.059 164.679 342.095 161.87C327.702 158.499 317.737 151.757 321.059 137.149C321.059 125.35 332.684 127.304 346.524 132.654C358.149 137.149 366.453 151.362 366.453 158.499Z" fill="#E7E8FF"/>
<path d="M32.3717 352.884C32.3717 368.469 39.5181 383.679 48.2974 396.265C61.9424 415.825 86.194 423.252 110.033 423.252H394.306C410.826 423.252 421.765 399.903 422.306 383.381C423.111 358.822 437.144 331 433.05 289.672C426.67 225.267 383.284 205.588 337.985 181.138C292.685 156.688 322.034 120.907 244.195 99.439C166.356 77.9707 84.0514 148.935 86.6035 215.129C89.1555 281.323 32.3717 290.864 32.3717 352.884Z" fill="#E7E8FF"/>
<path d="M212.081 423.252H267.798C298.018 412.259 328.238 361.596 300.379 366.854C272.52 372.111 245.134 369.722 281.492 351.559C317.85 333.397 298.018 319.537 281.492 320.971C264.965 322.404 267.798 310.934 274.409 288.948C281.02 266.962 274.409 246.888 255.994 246.888C237.579 246.888 252.216 301.375 237.579 305.198C222.941 309.022 230.024 283.69 212.081 288.948C194.138 294.205 223.413 356.817 212.081 351.559C200.748 346.302 202.165 320.971 181.861 340.089C165.618 355.383 195.24 401.904 212.081 423.252Z" fill="white"/>
<path d="M150.825 105.628C150.825 100.779 154.757 96.8473 159.606 96.8473H314.996C319.845 96.8473 323.777 100.779 323.777 105.628V304.964C323.777 309.814 319.845 313.745 314.996 313.745H159.606C154.757 313.745 150.825 309.814 150.825 304.964V105.628Z" fill="white"/>
<path fill-rule="evenodd" clip-rule="evenodd" d="M149.509 105.628C149.509 100.052 154.029 95.5312 159.606 95.5312H314.995C320.572 95.5312 325.092 100.052 325.092 105.628V304.964C325.092 310.541 320.572 315.061 314.995 315.061H159.606C154.029 315.061 149.509 310.541 149.509 304.964V105.628ZM159.606 98.1634C155.483 98.1634 152.141 101.506 152.141 105.628V304.964C152.141 309.087 155.483 312.429 159.606 312.429H314.995C319.118 312.429 322.46 309.087 322.46 304.964V105.628C322.46 101.506 319.118 98.1634 314.995 98.1634H159.606Z" fill="#032068"/>
<path d="M150.825 105.628C150.825 100.779 154.757 96.8473 159.606 96.8473H314.996C319.845 96.8473 323.777 100.779 323.777 105.628V126.618H150.825V105.628Z" fill="#032068"/>
<path d="M177.76 111.732C177.76 115.256 174.904 118.112 171.38 118.112C167.857 118.112 165.001 115.256 165.001 111.732C165.001 108.209 167.857 105.353 171.38 105.353C174.904 105.353 177.76 108.209 177.76 111.732Z" fill="white"/>
<path d="M199.026 111.732C199.026 115.256 196.17 118.112 192.647 118.112C189.124 118.112 186.268 115.256 186.268 111.732C186.268 108.209 189.124 105.353 192.647 105.353C196.17 105.353 199.026 108.209 199.026 111.732Z" fill="white"/>
<path d="M220.29 111.732C220.29 115.256 217.434 118.112 213.911 118.112C210.387 118.112 207.531 115.256 207.531 111.732C207.531 108.209 210.387 105.353 213.911 105.353C217.434 105.353 220.29 108.209 220.29 111.732Z" fill="white"/>
<path fill-rule="evenodd" clip-rule="evenodd" d="M265.654 150.616H175.634V147.984H265.654V150.616Z" fill="#E7E8FF"/>
<path fill-rule="evenodd" clip-rule="evenodd" d="M265.654 242.762H175.634V240.13H265.654V242.762Z" fill="#E7E8FF"/>
<path fill-rule="evenodd" clip-rule="evenodd" d="M265.654 268.28H175.634V265.647H265.654V268.28Z" fill="#E7E8FF"/>
<path fill-rule="evenodd" clip-rule="evenodd" d="M176.444 177.928C176.444 172.351 180.965 167.831 186.541 167.831H273.884C279.461 167.831 283.982 172.351 283.982 177.928V211.401C283.982 216.977 279.461 221.498 273.884 221.498H186.541C180.965 221.498 176.444 216.977 176.444 211.401V177.928ZM186.541 170.463C182.419 170.463 179.077 173.805 179.077 177.928V211.401C179.077 215.523 182.419 218.865 186.541 218.865H273.884C278.007 218.865 281.349 215.523 281.349 211.401V177.928C281.349 173.805 278.007 170.463 273.884 170.463H186.541Z" fill="#032068"/>
<path d="M228.797 289.921C228.797 285.071 232.728 281.14 237.578 281.14H238.445C243.295 281.14 247.226 285.071 247.226 289.921V290.788C247.226 295.638 243.295 299.569 238.445 299.569H237.578C232.728 299.569 228.797 295.638 228.797 290.788V289.921Z" fill="#032068"/>
<path fill-rule="evenodd" clip-rule="evenodd" d="M261.504 289.921C261.504 284.344 266.025 279.824 271.601 279.824H272.468C278.045 279.824 282.565 284.344 282.565 289.921V290.788C282.565 296.365 278.045 300.885 272.468 300.885H271.601C266.025 300.885 261.504 296.365 261.504 290.788V289.921ZM271.601 282.456C267.478 282.456 264.136 285.798 264.136 289.921V290.788C264.136 294.911 267.478 298.253 271.601 298.253H272.468C276.591 298.253 279.933 294.911 279.933 290.788V289.921C279.933 285.798 276.591 282.456 272.468 282.456H271.601Z" fill="#E7E8FF"/>
<path fill-rule="evenodd" clip-rule="evenodd" d="M215.302 182.822C213.717 180.323 210.048 180.388 208.553 182.942L197.434 201.937C196.253 203.955 194.09 205.195 191.752 205.195H177.761V202.562H191.752C193.155 202.562 194.453 201.818 195.163 200.607L206.281 181.612C208.772 177.357 214.884 177.248 217.525 181.412L227.354 196.913C228.811 199.21 232.099 199.383 233.789 197.252L241.715 187.258C244.203 184.121 248.891 183.912 251.648 186.814L259.38 194.953C260.126 195.738 261.162 196.183 262.245 196.183H281.957V198.815H262.245C260.44 198.815 258.715 198.074 257.471 196.766L249.74 188.627C248.085 186.885 245.271 187.011 243.778 188.894L235.851 198.888C233.035 202.438 227.558 202.149 225.131 198.322L215.302 182.822Z" fill="#032068"/>
<path d="M467.757 362.709H222.506C217.808 362.709 214 366.517 214 371.215C214 375.913 217.808 379.721 222.506 379.721H467.757C472.454 379.721 476.262 375.913 476.262 371.215C476.262 366.517 472.454 362.709 467.757 362.709Z" fill="white"/>
<path fill-rule="evenodd" clip-rule="evenodd" d="M212.684 371.215C212.684 365.791 217.081 361.393 222.506 361.393H467.756C473.181 361.393 477.578 365.791 477.578 371.215C477.578 376.64 473.181 381.037 467.756 381.037H222.506C217.081 381.037 212.684 376.64 212.684 371.215ZM222.506 364.025C218.535 364.025 215.316 367.244 215.316 371.215C215.316 375.186 218.535 378.405 222.506 378.405H467.756C471.727 378.405 474.946 375.186 474.946 371.215C474.946 367.244 471.727 364.025 467.756 364.025H222.506Z" fill="#032068"/>
<path d="M240.48 418.704L249.523 380.536H272.068L255.276 418.704H240.48Z" fill="white"/>
<path fill-rule="evenodd" clip-rule="evenodd" d="M248.482 379.219H274.085L256.135 420.02H238.816L248.482 379.219ZM250.564 381.852L242.145 417.388H254.417L270.051 381.852H250.564Z" fill="#032068"/>
<path d="M447.116 418.704L438.501 380.536H415.529L432.04 418.704H447.116Z" fill="white"/>
<path fill-rule="evenodd" clip-rule="evenodd" d="M439.905 378.779H412.855L430.886 420.46H449.312L439.905 378.779ZM437.097 382.292L444.919 416.948H433.194L418.201 382.292H437.097Z" fill="#032068"/>
<path d="M107.785 92.9728L102.792 99.669C102.488 100.076 101.993 100.272 101.508 100.177L95.336 98.9664C94.0082 98.7059 93.2072 100.453 94.2319 101.375L99.0823 105.737C99.4364 106.055 99.6037 106.546 99.5223 107.027L98.3054 114.22C98.0767 115.572 99.6666 116.409 100.567 115.41L105.549 109.883C105.842 109.558 106.266 109.402 106.688 109.462L112.454 110.284C113.753 110.469 114.489 108.774 113.501 107.872L109.213 103.953C108.869 103.639 108.704 103.16 108.778 102.688L110.13 94.0475C110.351 92.6344 108.627 91.8441 107.785 92.9728Z" fill="#E7E8FF"/>
<path d="M347.715 92.1884L345.761 94.5991C345.643 94.7457 345.449 94.8163 345.259 94.782L342.844 94.3461C342.324 94.2523 342.011 94.8814 342.412 95.2132L344.31 96.7835C344.448 96.8982 344.514 97.0748 344.482 97.248L344.006 99.8375C343.916 100.324 344.538 100.626 344.891 100.266L346.84 98.2761C346.955 98.1592 347.121 98.1028 347.286 98.1245L349.542 98.4205C350.051 98.4871 350.339 97.8769 349.952 97.552L348.274 96.1414C348.139 96.0281 348.075 95.8558 348.104 95.6858L348.633 92.5753C348.719 92.0666 348.045 91.7821 347.715 92.1884Z" fill="#E7E8FF"/>
<path d="M392.039 161.463L389.204 174.931V183.437L395.583 189.107L414.721 186.981V174.222L414.013 159.337C421.81 149.413 424.645 130.275 416.139 120.352C407.633 110.429 385.66 109.011 381.407 132.402C378.005 151.115 387.078 159.573 392.039 161.463Z" fill="white"/>
<path fill-rule="evenodd" clip-rule="evenodd" d="M397.421 115.178C390.938 116.393 384.745 121.407 382.703 132.637C379.401 150.795 388.202 158.593 392.509 160.233L393.56 160.634L390.521 175.068V182.846L396.021 187.734L413.406 185.803V174.253L412.675 158.909L412.978 158.524C416.693 153.796 419.276 146.786 419.879 139.732C420.482 132.665 419.08 125.804 415.14 121.209C411.196 116.607 404.051 113.935 397.421 115.178ZM396.936 112.59C404.483 111.175 412.578 114.174 417.139 119.495C421.705 124.823 423.138 132.493 422.501 139.956C421.879 147.247 419.265 154.579 415.351 159.757L416.038 174.191V188.159L395.147 190.48L387.889 184.028V174.794L390.532 162.236C384.888 159.432 376.818 150.288 380.113 132.166C382.324 120.006 389.243 114.033 396.936 112.59Z" fill="#032068"/>
<path d="M345.966 423.726L353.227 344.338H454.882L465.047 423.726H345.966Z" fill="#032068"/>
<path d="M277.92 196.195C277.92 198.464 280.283 202.339 281.464 203.992L280.047 212.498L269.414 213.916C266.579 210.372 258.073 208.954 255.947 203.284C254.246 198.747 259.018 193.833 261.617 192.651L252.807 180.317C251.776 178.873 252.018 176.881 253.365 175.726C254.794 174.502 256.943 174.659 258.178 176.079L270.123 189.816C270.123 190.289 270.548 190.241 272.25 186.272C274.376 181.31 276.502 183.437 277.92 184.146C279.338 184.854 277.92 193.36 277.92 196.195Z" fill="white"/>
<path fill-rule="evenodd" clip-rule="evenodd" d="M252.508 174.727C254.486 173.032 257.462 173.25 259.171 175.216L270.112 187.798C270.355 187.303 270.661 186.637 271.04 185.754C272.153 183.157 273.54 181.766 275.35 181.766C276.148 181.766 276.836 182.054 277.335 182.31C277.587 182.439 277.824 182.578 278.016 182.691L278.023 182.695C278.231 182.817 278.379 182.904 278.508 182.968C279.182 183.305 279.457 183.961 279.582 184.353C279.724 184.803 279.795 185.322 279.831 185.836C279.904 186.874 279.854 188.169 279.764 189.464C279.691 190.526 279.588 191.635 279.493 192.655C279.471 192.887 279.45 193.115 279.43 193.336C279.318 194.56 279.236 195.559 279.236 196.195C279.236 196.989 279.688 198.278 280.423 199.73C281.127 201.12 281.976 202.445 282.535 203.227L282.852 203.671L281.185 213.674L268.851 215.319L268.386 214.738C267.834 214.047 266.944 213.393 265.748 212.693C265.018 212.265 264.265 211.87 263.467 211.45C262.928 211.167 262.369 210.873 261.782 210.551C259.041 209.048 255.964 207.079 254.714 203.746C253.65 200.909 254.659 198.087 256.077 195.975C257.106 194.443 258.453 193.125 259.711 192.247L251.736 181.082C250.308 179.083 250.643 176.325 252.508 174.727ZM271.439 189.816V189.805C271.439 189.811 271.439 189.815 271.439 189.816ZM257.185 176.943C256.424 176.069 255.101 175.972 254.221 176.726C253.392 177.436 253.243 178.663 253.878 179.552L263.618 193.188L262.162 193.85C261.121 194.323 259.455 195.667 258.262 197.443C257.069 199.219 256.541 201.122 257.179 202.822C258.055 205.159 260.295 206.734 263.047 208.243C263.541 208.514 264.066 208.79 264.596 209.069C265.45 209.519 266.315 209.974 267.078 210.421C268.108 211.024 269.121 211.703 269.929 212.519L278.908 211.322L280.078 204.304C279.483 203.429 278.726 202.206 278.075 200.919C277.333 199.453 276.604 197.67 276.604 196.195C276.604 195.414 276.699 194.287 276.809 193.096C276.83 192.867 276.851 192.634 276.873 192.398C276.968 191.379 277.068 190.31 277.138 189.283C277.226 188.008 277.265 186.866 277.205 186.021C277.177 185.631 277.132 185.36 277.085 185.193C276.953 185.12 276.826 185.045 276.712 184.978L276.69 184.965C276.488 184.846 276.311 184.743 276.134 184.652C275.77 184.465 275.527 184.399 275.35 184.399C275.211 184.399 274.473 184.426 273.459 186.791C272.61 188.772 272.031 189.895 271.621 190.472C271.515 190.621 271.385 190.785 271.229 190.926C271.125 191.02 270.764 191.336 270.216 191.336C269.445 191.336 269.055 190.771 268.928 190.465C268.924 190.454 268.919 190.444 268.915 190.433L257.185 176.943ZM277.037 185.059C277.037 185.058 277.041 185.064 277.048 185.08C277.04 185.067 277.037 185.059 277.037 185.059Z" fill="#032068"/>
<path d="M400.546 182.019C390.906 182.019 388.496 174.458 388.496 170.678C381.691 170.678 377.234 174 375.817 174.946L364.396 207.537L362.27 345.047C386.086 352.419 416.14 348.119 428.19 345.047L435.987 175.64C431.301 172.658 424.456 171.356 419.537 170.893C417.13 170.666 415.059 172.37 413.829 174.452C411.691 178.069 407.513 182.019 400.546 182.019Z" fill="white"/>
<path fill-rule="evenodd" clip-rule="evenodd" d="M376.915 175.792L365.709 207.77L363.601 344.074C386.327 350.767 414.574 346.985 426.92 344.006L434.636 176.36C430.246 173.823 424.052 172.64 419.414 172.203C417.744 172.046 416.076 173.237 414.963 175.121C412.658 179.021 408.102 183.335 400.546 183.335C395.33 183.335 391.925 181.265 389.861 178.566C388.24 176.447 387.493 174.009 387.262 172.033C382.049 172.365 378.49 174.724 376.915 175.792ZM375.373 173.657C377.07 172.502 381.683 169.362 388.496 169.362H389.812V170.678C389.812 172.341 390.354 174.878 391.951 176.967C393.502 178.993 396.122 180.703 400.546 180.703C406.925 180.703 410.725 177.117 412.696 173.782C414.043 171.503 416.516 169.287 419.661 169.583C424.629 170.051 431.734 171.374 436.693 174.529L437.337 174.939L429.46 346.082L428.515 346.322C416.369 349.418 386.035 353.781 361.881 346.304L360.938 346.013L363.083 207.303L374.72 174.095L375.087 173.85C375.17 173.795 375.266 173.73 375.373 173.657Z" fill="#032068"/>
<path d="M375.736 244.395C376.728 227.042 382.127 195.78 385.679 177.143C386.352 173.61 383.375 170.435 379.919 171.429C346.298 181.091 338.161 225.302 327.536 225.966C319.974 226.438 301.707 213.81 289.815 204.667C286.239 201.918 281.16 202.169 277.971 205.359L270.369 212.96C268.042 215.287 267.176 218.724 268.467 221.752C277.249 242.34 301.942 274.836 317.613 282.671C331.222 289.476 342.185 279.836 345.966 274.165C345.729 292.358 345.399 331.154 345.966 340.794C346.675 352.844 345.966 362.767 354.472 364.185C362.977 365.603 379.28 362.767 379.28 359.932C379.28 357.097 374.318 269.203 375.736 244.395Z" fill="white"/>
<path fill-rule="evenodd" clip-rule="evenodd" d="M379.556 170.164C384.127 168.85 387.794 173.075 386.972 177.389C383.417 196.038 378.036 227.217 377.05 244.47C376.346 256.794 377.227 284.894 378.291 310.349C378.951 326.12 379.681 340.887 380.139 350.15C380.418 355.785 380.596 359.383 380.596 359.932C380.596 360.936 379.897 361.633 379.352 362.041C378.751 362.491 377.954 362.88 377.074 363.22C375.3 363.906 372.902 364.5 370.289 364.95C365.078 365.849 358.713 366.226 354.255 365.483C351.855 365.083 350.018 364.059 348.659 362.488C347.325 360.947 346.526 358.968 346.013 356.777C345.244 353.489 345.058 349.391 344.859 345.019C344.797 343.657 344.734 342.269 344.652 340.871C344.119 331.808 344.374 297.292 344.602 277.983C342.47 280.283 339.553 282.664 336.027 284.291C330.799 286.704 324.233 287.453 317.024 283.848C308.908 279.79 298.665 269.501 289.424 257.81C280.149 246.076 271.708 232.704 267.256 222.268C265.728 218.686 266.779 214.688 269.439 212.029L270.369 212.96L269.439 212.029L277.04 204.428C280.712 200.755 286.534 200.485 290.617 203.624C296.544 208.181 304.041 213.591 310.981 217.797C314.453 219.901 317.758 221.686 320.639 222.912C323.567 224.158 325.887 224.75 327.454 224.652C328.321 224.598 329.325 224.087 330.533 222.892C331.73 221.707 332.988 219.989 334.364 217.818C335.734 215.656 337.179 213.116 338.77 210.316L338.826 210.216C340.396 207.454 342.1 204.454 343.982 201.384C351.58 188.986 362.243 175.139 379.556 170.164ZM384.386 176.896C384.91 174.145 382.624 172.021 380.283 172.694C363.974 177.381 353.758 190.47 346.226 202.759C344.367 205.793 342.681 208.76 341.107 211.531L341.059 211.616C339.476 214.401 337.998 217.001 336.587 219.228C335.181 221.446 333.797 223.366 332.384 224.763C330.982 226.151 329.407 227.167 327.618 227.279C325.404 227.418 322.604 226.609 319.609 225.334C316.567 224.04 313.144 222.185 309.617 220.048C302.56 215.772 294.978 210.297 289.013 205.711C285.943 203.351 281.608 203.582 278.901 206.289L271.3 213.89C269.304 215.886 268.623 218.761 269.678 221.235C274.008 231.387 282.304 244.557 291.489 256.177C300.708 267.84 310.646 277.716 318.201 281.494C324.602 284.694 330.322 284.025 334.923 281.901C339.577 279.753 343.088 276.108 344.871 273.435L347.339 269.732L347.282 274.182C347.045 292.406 346.716 331.137 347.279 340.717C347.369 342.235 347.436 343.7 347.5 345.105C347.696 349.404 347.868 353.149 348.576 356.177C349.038 358.149 349.701 359.671 350.649 360.765C351.57 361.83 352.835 362.578 354.688 362.887C358.736 363.561 364.775 363.23 369.842 362.356C372.368 361.921 374.577 361.363 376.125 360.765C376.907 360.462 377.45 360.176 377.774 359.933C377.867 359.864 377.925 359.811 377.961 359.775C377.939 358.911 377.775 355.6 377.526 350.586C377.071 341.402 376.332 326.504 375.661 310.458C374.599 285.056 373.709 256.804 374.422 244.32C375.419 226.867 380.836 195.522 384.386 176.896ZM378.011 359.715C378.012 359.715 378.01 359.718 378.007 359.723C378.009 359.718 378.011 359.715 378.011 359.715Z" fill="#032068"/>
<path d="M409.76 243.686C410.281 230.653 416.834 195.451 420.825 175.538C421.374 172.801 423.978 170.96 426.668 171.707C463.405 181.916 492.573 244.784 489.856 269.912C487.588 290.893 470.955 324.019 462.921 337.959C463.394 346.465 463.488 363.76 460.086 364.894C455.833 366.312 418.975 364.894 416.848 360.641C414.722 356.388 409.051 261.407 409.76 243.686Z" fill="white"/>
<path fill-rule="evenodd" clip-rule="evenodd" d="M426.315 172.975C424.461 172.46 422.534 173.706 422.115 175.797C418.115 195.755 411.591 230.835 411.075 243.739C410.724 252.518 411.958 280.617 413.554 307.135C414.351 320.375 415.237 333.189 416.055 342.955C416.464 347.839 416.856 351.951 417.211 354.968C417.388 356.478 417.555 357.7 417.708 358.602C417.784 359.053 417.855 359.41 417.918 359.675C417.973 359.906 418.011 360.014 418.022 360.044C418.038 360.062 418.114 360.151 418.337 360.291C418.617 360.467 419.03 360.662 419.591 360.866C420.712 361.273 422.262 361.656 424.143 362.005C427.894 362.701 432.778 363.228 437.762 363.581C442.74 363.934 447.781 364.109 451.835 364.109C453.862 364.109 455.63 364.065 457.012 363.979C458.438 363.89 459.31 363.763 459.661 363.648C459.66 363.647 459.813 363.567 460.045 363.136C460.291 362.679 460.532 361.999 460.751 361.094C461.186 359.292 461.473 356.847 461.643 354.109C461.981 348.65 461.841 342.255 461.607 338.032L461.585 337.641L461.781 337.302C465.774 330.371 471.918 318.65 477.341 306.055C482.778 293.43 487.436 280.055 488.547 269.771C489.199 263.746 487.941 255.304 485.036 245.787C482.14 236.299 477.641 225.856 471.915 215.87C460.418 195.818 444.168 177.936 426.315 172.975ZM419.534 175.28C420.212 171.897 423.495 169.46 427.02 170.439C445.904 175.686 462.607 194.343 474.199 214.56C480.017 224.708 484.597 235.332 487.554 245.018C490.502 254.676 491.871 263.515 491.164 270.054C490.008 280.751 485.214 294.429 479.759 307.097C474.378 319.592 468.298 331.23 464.256 338.277C464.481 342.558 464.606 348.842 464.27 354.272C464.097 357.063 463.799 359.687 463.31 361.712C463.066 362.721 462.761 363.645 462.362 364.384C461.981 365.092 461.4 365.843 460.502 366.143C459.784 366.382 458.576 366.519 457.176 366.606C455.72 366.697 453.894 366.742 451.835 366.742C447.714 366.742 442.611 366.563 437.576 366.207C432.548 365.851 427.553 365.315 423.663 364.593C421.723 364.233 420.011 363.819 418.692 363.34C418.034 363.101 417.433 362.831 416.937 362.52C416.461 362.221 415.96 361.808 415.671 361.23C415.532 360.953 415.434 360.605 415.358 360.288C415.276 359.944 415.194 359.523 415.112 359.041C414.949 358.076 414.776 356.804 414.596 355.275C414.237 352.215 413.842 348.07 413.432 343.175C412.611 333.381 411.724 320.545 410.927 307.293C409.333 280.827 408.087 252.575 408.444 243.634C408.971 230.471 415.552 195.147 419.534 175.28Z" fill="#032068"/>
<path d="M417.821 339.559C413.369 337.636 411.319 332.468 413.242 328.016L427.205 295.694C429.128 291.242 434.296 289.192 438.748 291.115L486.209 311.618C490.661 313.542 492.711 318.71 490.787 323.162L476.824 355.483C474.901 359.935 469.733 361.985 465.281 360.062L417.821 339.559Z" fill="white"/>
<path fill-rule="evenodd" clip-rule="evenodd" d="M417.299 340.767C412.18 338.556 409.823 332.613 412.035 327.494L425.998 295.172C428.209 290.053 434.152 287.696 439.271 289.907L486.731 310.41C491.851 312.622 494.208 318.564 491.996 323.683L478.033 356.005C475.822 361.125 469.879 363.482 464.76 361.27L417.299 340.767ZM414.451 328.538C412.816 332.322 414.559 336.716 418.343 338.351L465.804 358.854C469.588 360.489 473.982 358.746 475.617 354.961L489.58 322.64C491.215 318.855 489.472 314.461 485.688 312.826L438.227 292.324C434.442 290.689 430.049 292.431 428.414 296.216L414.451 328.538Z" fill="#032068"/>
<path d="M486.312 244.395C481.823 251.483 474.971 271.047 483.477 292.595C487.73 284.561 494.251 263.675 486.312 244.395Z" fill="#032068"/>
<path d="M304.146 272.039C310.998 270.385 328.246 269.346 342.423 278.418C336.752 284.798 321.158 292.453 304.146 272.039Z" fill="#032068"/>
<path d="M349.509 234.472C348.092 247.23 346.674 263.533 345.965 275.583C342.563 279.552 334.151 283.38 330.371 284.798C340.011 274.024 345.256 250.066 349.509 234.472Z" fill="#032068"/>
<path d="M431.115 343.128C431.682 341.427 437.495 335.804 440.33 333.205C446.237 332.496 457.626 333.205 455.924 341.711C453.798 352.343 451.671 360.849 440.33 357.305C431.257 354.469 432.297 348.563 433.951 345.964C432.769 345.727 430.548 344.83 431.115 343.128Z" fill="white"/>
<path fill-rule="evenodd" clip-rule="evenodd" d="M456.096 335.914C457.267 337.506 457.702 339.534 457.215 341.969C456.684 344.624 456.141 347.207 455.445 349.512C454.751 351.811 453.879 353.923 452.643 355.604C451.387 357.311 449.748 358.581 447.577 359.134C445.436 359.679 442.915 359.491 439.937 358.561C435.14 357.062 432.697 354.637 431.86 351.935C431.272 350.036 431.54 348.189 432.099 346.737C431.754 346.579 431.41 346.386 431.095 346.154C430.667 345.838 430.222 345.395 429.952 344.795C429.667 344.161 429.623 343.444 429.867 342.712C429.996 342.323 430.233 341.928 430.469 341.58C430.72 341.212 431.033 340.807 431.382 340.386C432.082 339.542 432.976 338.571 433.926 337.589C435.827 335.621 438.01 333.546 439.44 332.235L439.753 331.949L440.173 331.898C443.22 331.533 447.768 331.515 451.405 332.757C453.233 333.381 454.958 334.366 456.096 335.914ZM440.904 334.465C443.735 334.173 447.595 334.237 450.555 335.248C452.1 335.776 453.273 336.518 453.976 337.474C454.646 338.385 454.997 339.634 454.634 341.453C454.101 344.113 453.58 346.581 452.925 348.751C452.268 350.926 451.502 352.712 450.522 354.044C449.563 355.349 448.411 356.205 446.927 356.583C445.414 356.968 443.415 356.89 440.722 356.048C436.446 354.712 434.873 352.766 434.375 351.156C433.853 349.473 434.375 347.747 435.061 346.67L436.092 345.05L434.209 344.673C433.728 344.577 433.081 344.348 432.659 344.037C432.456 343.886 432.378 343.771 432.353 343.717C432.353 343.716 432.353 343.715 432.352 343.714C432.343 343.693 432.326 343.657 432.364 343.545C432.364 343.544 432.365 343.541 432.368 343.535C432.37 343.528 432.374 343.518 432.38 343.505C432.392 343.479 432.41 343.444 432.434 343.4C432.483 343.31 432.553 343.197 432.646 343.06C432.833 342.786 433.089 342.451 433.409 342.066C434.047 341.295 434.889 340.379 435.818 339.418C437.539 337.638 439.507 335.756 440.904 334.465Z" fill="#032068"/>
<path d="M403.905 423.698L397.261 385.187V423.698H403.905Z" fill="white"/>
<path d="M413.305 145.161L414.014 157.919L414.722 170.678C427.764 170.111 438.585 176.112 442.366 179.184C447.328 158.628 430.316 145.161 430.316 137.364C430.316 129.567 426.772 105.467 402.672 104.758C384.595 104.226 379.646 119.023 379.294 129.636C379.258 130.715 380.244 131.509 381.258 131.135C386.112 129.343 392.318 124.359 396.009 120.442C397.036 119.352 399.153 119.701 399.821 121.04C401.527 124.459 404.023 127.624 405.811 129.787C406.073 130.104 406.215 130.497 406.223 130.908C406.261 132.918 406.47 135.645 406.793 138.338C407.02 140.227 409.645 140.22 410.239 138.413C410.907 136.38 411.712 134.437 412.596 133.111C415.431 128.858 419.684 132.402 419.684 137.364C419.684 141.333 415.431 144.215 413.305 145.161Z" fill="#032068"/>
<path d="M375.028 173.513C377.864 170.678 380.935 156.738 382.116 150.122C383.251 155.793 389.205 160.046 392.04 161.463L389.913 169.969C384.243 169.969 377.627 172.332 375.028 173.513Z" fill="#032068"/>
<path d="M453.054 339.721L442.786 335.676C438.846 334.124 436.576 329.982 437.374 325.824C439.588 314.286 442.416 299.133 444.492 286.998L479.933 302.518C475.963 313.292 468.356 328.272 465.048 334.415L463.374 336.716C461.021 339.952 456.777 341.188 453.054 339.721Z" fill="white"/>
<path d="M447.327 267.077C447.327 260.84 436.222 242.505 431.024 231.636C442.442 265.585 443.107 273.559 437.791 324.057C441.114 307.446 447.327 270.054 447.327 267.077Z" fill="#032068"/>
<path d="M403.241 161.266C398.457 163.392 393.717 162.152 391.945 161.266L390.616 167.91C396.995 167.91 401.69 163.481 403.241 161.266Z" fill="#032068"/>
<path d="M233.632 421.264C225.126 405.953 187.558 395.351 169.838 391.807L154.921 421.264H233.632Z" fill="#032068"/>
<path d="M105.726 222.155L101.674 234.841L125.734 243.832L129.046 225.523C132.917 225.968 141.763 223.28 146.173 208.974C151.687 191.091 144.421 168.454 129.109 166.177C113.796 163.9 102.625 176.808 99.83 193.618C97.5944 207.066 102.829 218.246 105.726 222.155Z" fill="white"/>
<path fill-rule="evenodd" clip-rule="evenodd" d="M110.705 173.672C105.883 178.481 102.491 185.638 101.128 193.834C98.962 206.864 104.055 217.69 106.783 221.371L107.185 221.913L103.309 234.047L124.719 242.048L127.97 224.075L129.196 224.216C132.309 224.573 140.651 222.419 144.915 208.586C147.585 199.926 147.159 190.094 144.217 182.182C141.266 174.247 135.914 168.519 128.915 167.479C121.714 166.408 115.499 168.89 110.705 173.672ZM108.846 171.808C114.164 166.503 121.19 163.669 129.302 164.875C137.616 166.111 143.552 172.841 146.684 181.264C149.825 189.711 150.274 200.138 147.431 209.361C143.252 222.917 135.041 226.749 130.138 226.881L126.748 245.616L100.039 235.635L104.272 222.38C101.166 217.832 96.3228 206.688 98.5315 193.402C99.9636 184.788 103.554 177.086 108.846 171.808Z" fill="#032068"/>
<path d="M105.634 221.452C108.104 222.843 118.277 223.364 123.055 223.451C126.568 222.989 128.307 219.901 130.472 214.612C132.203 210.381 129.455 206.882 127.865 205.661C118.138 196.931 128.127 188.468 131.27 188.055C134.466 187.635 134.908 193.812 134.987 199.412C135.012 201.265 137.14 201.618 137.853 199.908C139.468 196.035 141.309 191.997 142.821 188.979C144.211 186.206 146.798 184.388 149.602 183.062C164.226 176.144 163.393 162.797 159.754 160.004C155.778 156.952 153.614 162.241 139.429 157.671C125.245 153.102 104.68 154.375 95.597 177.732C86.5137 201.088 102.545 219.713 105.634 221.452Z" fill="#032068"/>
<path d="M285.374 362.037C281.699 346.308 261.091 343.221 251.246 343.644L249.934 362.037H285.374Z" fill="white"/>
<path fill-rule="evenodd" clip-rule="evenodd" d="M252.474 344.927L251.347 360.721H283.637C281.529 354.39 276.265 350.411 270.143 348.009C264.031 345.61 257.248 344.868 252.474 344.927ZM271.105 345.558C278.163 348.328 284.682 353.287 286.656 361.737L287.034 363.353H248.521L250.017 342.38L251.19 342.329C256.247 342.112 264.052 342.791 271.105 345.558Z" fill="#032068"/>
<path d="M91.8679 230.906C79.9598 239.979 65.1361 264.766 59.9036 282.706C46.8921 327.318 29.5184 414.353 75.186 421.264C113.99 421.311 146.283 421.283 157.578 421.264C162.857 413.303 172.629 395.1 169.483 384.719L167.711 369.125C188.453 378.231 225.781 371.842 247.181 366.163C251.271 365.078 253.833 361.115 253.344 356.912L251.498 341.039C251.004 336.79 247.492 333.534 243.23 333.174C196.946 329.257 184.877 313.784 174.091 298.952C162.75 283.358 141.485 249.335 132.27 241.538C123.056 233.741 106.753 219.565 91.8679 230.906Z" fill="white"/>
<path fill-rule="evenodd" clip-rule="evenodd" d="M113.668 230.251C106.856 227.271 99.6056 226.665 92.6653 231.953C86.9055 236.341 80.3246 244.641 74.5053 254.167C68.6998 263.67 63.7423 274.245 61.1668 283.075C54.6721 305.343 47.1157 338.117 46.856 366.135C46.726 380.154 48.4259 392.846 52.8946 402.415C57.318 411.887 64.431 418.274 75.2864 419.948C113.263 419.993 144.986 419.968 156.867 419.949C159.441 415.986 162.927 409.827 165.466 403.414C166.8 400.046 167.858 396.641 168.394 393.47C168.933 390.286 168.928 387.427 168.224 385.101L168.189 384.986L166.145 367L168.24 367.92C178.301 372.337 192.546 373.041 207.094 371.876C221.595 370.715 236.197 367.716 246.843 364.891C250.269 363.982 252.453 360.65 252.036 357.064L250.191 341.191C249.772 337.593 246.787 334.796 243.119 334.485C219.847 332.516 205.042 327.63 194.662 321.279C184.273 314.921 178.431 307.159 173.026 299.726C169.51 294.893 165.033 288.277 160.27 281.238C157.336 276.903 154.293 272.408 151.3 268.069C147.361 262.359 143.499 256.909 140.052 252.405C136.585 247.875 133.604 244.39 131.42 242.543C131.293 242.435 131.165 242.327 131.036 242.217C126.438 238.324 120.359 233.178 113.668 230.251ZM132.654 240.138C132.812 240.272 132.967 240.403 133.12 240.533C135.544 242.584 138.676 246.276 142.142 250.805C145.629 255.361 149.52 260.854 153.466 266.574C156.496 270.966 159.555 275.485 162.494 279.828C167.233 286.831 171.661 293.374 175.155 298.178C180.536 305.578 186.122 312.967 196.036 319.033C205.958 325.105 220.329 329.915 243.341 331.862C248.197 332.273 252.235 335.987 252.805 340.887L254.651 356.76C255.211 361.579 252.272 366.174 247.518 367.435C236.764 370.289 222.002 373.324 207.304 374.5C193.585 375.599 179.744 375.095 169.269 371.177L170.778 384.455C171.609 387.292 171.556 390.557 170.99 393.908C170.413 397.319 169.289 400.908 167.913 404.383C165.162 411.332 161.352 417.954 158.675 421.991L158.285 422.579L157.58 422.58C146.283 422.599 113.99 422.627 75.1841 422.58L75.0859 422.58L74.9888 422.565C63.0647 420.761 55.253 413.686 50.5096 403.529C45.7985 393.441 44.0923 380.291 44.2238 366.111C44.4869 337.73 52.1231 304.681 58.6398 282.338C61.2969 273.228 66.3674 262.439 72.259 252.795C78.1367 243.173 84.9216 234.543 91.07 229.859C99.0149 223.806 107.359 224.617 114.723 227.839C121.775 230.925 128.109 236.289 132.654 240.138Z" fill="#032068"/>
<path d="M113.133 315.255C126.742 342.473 149.991 361.328 168.421 369.834L169.129 383.301C129.436 359.485 115.259 328.014 113.133 315.255Z" fill="#032068"/>
<path d="M175.509 371.96C171.492 363.218 157.363 345.309 132.979 343.608C140.304 351.877 159.064 369.125 175.509 371.96Z" fill="#032068"/>
<path d="M35.8787 378.068C43.8299 415.514 62.1459 421.278 74.2148 421.278H162.246C177.864 421.278 175.734 416.365 175.734 412.11C170.765 390.834 158.696 382.323 122.49 371.685C86.2834 361.047 78.4742 318.495 66.4055 290.836C54.3367 263.177 21.6802 262.468 17.4206 268.142C13.161 273.815 25.9397 331.261 35.8787 378.068Z" fill="white"/>
<path fill-rule="evenodd" clip-rule="evenodd" d="M20.693 267.594C19.4739 268.026 18.7802 268.523 18.4729 268.932C18.3893 269.043 18.2359 269.361 18.1106 270.037C17.9908 270.683 17.9175 271.534 17.8988 272.598C17.8614 274.722 18.0433 277.551 18.4181 280.986C19.1669 287.85 20.668 296.986 22.6188 307.438C25.8419 324.708 30.2758 345.486 34.5241 365.394C35.4172 369.58 36.3021 373.727 37.1659 377.794C41.104 396.341 47.5677 406.845 54.3631 412.719C61.1413 418.579 68.3995 419.962 74.2145 419.962H162.245C166.096 419.962 168.764 419.657 170.606 419.171C172.444 418.686 173.35 418.049 173.822 417.463C174.285 416.889 174.469 416.196 174.508 415.282C174.527 414.82 174.508 414.332 174.481 413.793C174.477 413.718 174.473 413.643 174.469 413.566C174.447 413.153 174.423 412.708 174.419 412.266C171.985 401.942 167.868 394.829 160.036 388.961C152.078 382.999 140.212 378.264 122.118 372.948C103.526 367.485 92.2936 353.828 84.227 338.249C80.1949 330.461 76.933 322.154 73.9349 314.101C73.2737 312.324 72.6258 310.562 71.9857 308.821C69.7136 302.641 67.5379 296.723 65.1989 291.363C59.3537 277.967 48.5346 271.096 38.6216 268.255C33.659 266.832 28.9579 266.431 25.2761 266.717C23.4336 266.86 21.8807 267.173 20.693 267.594ZM39.347 265.724C49.8444 268.733 61.3879 276.047 67.6115 290.31C69.9848 295.749 72.1967 301.766 74.4733 307.959C75.1094 309.689 75.7506 311.433 76.4018 313.182C79.3937 321.219 82.61 329.401 86.5645 337.038C94.4712 352.309 105.246 365.247 122.86 370.422C140.973 375.744 153.245 380.584 161.615 386.855C170.075 393.194 174.476 400.936 177.016 411.81L177.05 411.958V412.11C177.05 412.527 177.072 412.951 177.097 413.416C177.101 413.496 177.105 413.576 177.109 413.658C177.137 414.201 177.163 414.796 177.138 415.392C177.087 416.597 176.828 417.93 175.871 419.116C174.924 420.29 173.433 421.147 171.278 421.716C169.126 422.284 166.204 422.594 162.245 422.594H74.2145C67.9606 422.594 60.0264 421.095 52.6416 414.711C45.274 408.342 38.6041 397.24 34.591 378.341C33.7288 374.28 32.8449 370.139 31.9524 365.956C27.7041 346.048 23.2611 325.228 20.0311 307.921C18.0773 297.452 16.5612 288.238 15.8014 281.272C15.4219 277.793 15.2267 274.837 15.2669 272.551C15.287 271.409 15.3663 270.399 15.5224 269.557C15.673 268.745 15.919 267.949 16.3678 267.352C17.1254 266.343 18.384 265.62 19.8132 265.113C21.2739 264.595 23.0654 264.249 25.0721 264.093C29.0885 263.78 34.1044 264.221 39.347 265.724Z" fill="#032068"/>
</svg>
