<svg width="512" height="512" viewBox="0 0 512 512" fill="none" xmlns="http://www.w3.org/2000/svg">
<path d="M280.713 479.417H227.973H135.685C100.231 479.417 67.2987 461.088 48.6315 430.965L25.2731 393.271C6.16835 362.442 17.6296 321.874 50.0473 305.583C79.3668 290.848 92.0474 255.78 78.9261 225.718L69.5859 204.319C55.7797 172.689 62.128 135.882 85.7335 110.696L126.706 66.9793C170.041 20.7424 243.077 19.5501 287.9 64.3478L339.039 115.458C345.682 122.097 356.01 123.324 364.025 118.427C376.893 110.566 393.546 118.947 394.886 133.96L401.232 205.028C402.628 220.664 409.711 235.23 422.265 244.665C447.029 263.275 481.189 286.2 487.439 301.456C531.484 408.971 396.963 479.417 280.713 479.417Z" fill="#E7E8FF"/>
<path d="M49.0036 397.541C89.0736 417.419 105.735 459.835 108.532 478.854H93.5104C59.8621 455.428 47.5066 418.919 45.3222 400.07C45.0853 398.026 47.1608 396.627 49.0036 397.541Z" fill="#032068"/>
<path d="M59.783 337.357C104.778 359.19 117.988 439.929 118.933 478.276H98.711C52.0265 410.892 50.595 359.14 56.2287 338.915C56.6565 337.379 58.3486 336.661 59.783 337.357Z" fill="white"/>
<path fill-rule="evenodd" clip-rule="evenodd" d="M57.5724 339.29C57.7555 338.632 58.4848 338.278 59.1734 338.613C81.1381 349.27 95.5335 374.438 104.55 402.057C113.322 428.93 116.89 457.782 117.497 476.881H99.4422C53.3288 410.027 52.0968 358.947 57.5724 339.29ZM60.3917 336.102C58.2114 335.044 55.5566 336.127 54.8841 338.541C49.1087 359.274 50.7158 411.451 97.5635 479.071L97.9797 479.672H120.362L120.327 478.242C119.852 458.964 116.298 429.053 107.203 401.191C98.1289 373.395 83.4218 347.277 60.3917 336.102Z" fill="#032068"/>
<path fill-rule="evenodd" clip-rule="evenodd" d="M62.1582 353.964L80.6784 403.969L69.8242 399.009L68.6644 401.548L82.0462 407.662L98.8379 452.999L89.4039 449.247L88.3725 451.84L100.142 456.522L108.379 478.761L110.996 477.792L94.2895 432.684L102.872 413.561L100.326 412.418L92.9065 428.95L74.7823 380.014L79.2449 365.444L76.5765 364.626L73.1847 375.701L64.7752 352.995L62.1582 353.964Z" fill="#032068"/>
<path d="M398.979 81.0542L404.274 75.577C405.217 74.6015 406.856 75.4093 406.658 76.7513L405.567 84.1102C405.501 84.5554 405.654 85.0052 405.978 85.318L411.831 90.9761C412.774 91.8874 412.053 93.4779 410.746 93.37L402.545 92.6928C402.147 92.6598 401.753 92.7996 401.464 93.0767L394.942 99.3366C393.973 100.266 392.379 99.4254 392.599 98.101L393.99 89.7398C394.058 89.3325 393.941 88.9161 393.673 88.6027L387.671 81.6024C386.788 80.5727 387.745 79.0163 389.062 79.3388L397.644 81.4397C398.126 81.5577 398.635 81.4109 398.979 81.0542Z" fill="#032068"/>
<path d="M432.028 169.065L434.332 168.202C435.602 167.726 436.736 169.16 435.98 170.287L434.649 172.269C434.398 172.643 434.343 173.114 434.501 173.536L435.547 176.33C436.007 177.558 434.673 178.684 433.539 178.025L430.884 176.482C430.538 176.281 430.122 176.238 429.743 176.364L426.483 177.448C425.208 177.871 424.13 176.427 424.898 175.325L426.665 172.791C426.902 172.452 426.976 172.026 426.868 171.628L425.958 168.271C425.603 166.962 427.135 165.967 428.186 166.825L430.657 168.839C431.041 169.153 431.563 169.239 432.028 169.065Z" fill="#032068"/>
<path d="M60.0506 229.539L56.1378 234.65C55.8997 234.961 55.5115 235.111 55.1312 235.038L50.2952 234.114C49.2547 233.915 48.627 235.249 49.43 235.953L53.2308 239.282C53.5083 239.525 53.6394 239.9 53.5756 240.267L52.6221 245.758C52.4428 246.79 53.6887 247.429 54.3941 246.666L58.2984 242.447C58.5276 242.199 58.86 242.08 59.1909 242.125L63.7094 242.753C64.7272 242.895 65.3036 241.601 64.5297 240.912L61.1694 237.921C60.8995 237.681 60.7706 237.315 60.8285 236.955L61.888 230.359C62.0613 229.281 60.7101 228.677 60.0506 229.539Z" fill="#032068"/>
<path d="M106.697 88.7447C106.697 79.4971 114.194 72.0005 123.441 72.0005H313.935C323.182 72.0005 330.679 79.4971 330.679 88.7447V461.223C330.679 470.471 323.182 477.967 313.935 477.967H123.441C114.194 477.967 106.697 470.471 106.697 461.223V88.7447Z" fill="white"/>
<path fill-rule="evenodd" clip-rule="evenodd" d="M105.302 88.7446C105.302 78.7264 113.423 70.6051 123.441 70.6051H313.935C323.953 70.6051 332.074 78.7264 332.074 88.7446V461.223C332.074 471.241 323.953 479.363 313.935 479.363H123.441C113.423 479.363 105.302 471.241 105.302 461.223V88.7446ZM123.441 73.3958C114.964 73.3958 108.092 80.2677 108.092 88.7446V461.223C108.092 469.7 114.964 476.572 123.441 476.572H313.935C322.412 476.572 329.283 469.7 329.283 461.223V88.7446C329.283 80.2677 322.412 73.3958 313.935 73.3958H123.441Z" fill="#032068"/>
<path d="M174.151 85.6109L166.892 71.9998H270.483L261.949 86.2236C259.427 90.4264 254.885 92.998 249.984 92.998H186.463C181.31 92.998 176.576 90.1578 174.151 85.6109Z" fill="#032068"/>
<path d="M327.932 80.3991H108.017C115.296 73.1197 122.249 71.7665 124.815 71.9998H311.134C320.093 71.9998 326.066 77.5994 327.932 80.3991Z" fill="#032068"/>
<path d="M327.826 470.007H109.551C117.116 477.404 121.488 478.779 124.155 478.542H313.222C322.532 478.542 325.886 472.852 327.826 470.007Z" fill="#032068"/>
<path d="M132.375 119.417C132.375 117.106 134.249 115.231 136.561 115.231H208.081C210.392 115.231 212.267 117.106 212.267 119.417V119.605C212.267 121.917 210.392 123.791 208.081 123.791H136.561C134.249 123.791 132.375 121.917 132.375 119.605V119.417Z" fill="#032068"/>
<path fill-rule="evenodd" clip-rule="evenodd" d="M130.418 147.593C130.418 144.511 132.917 142.012 135.999 142.012H302.046C305.128 142.012 307.627 144.511 307.627 147.593V299.686C307.627 302.769 305.128 305.268 302.046 305.268H135.999C132.917 305.268 130.418 302.769 130.418 299.686V147.593ZM135.999 144.803C134.458 144.803 133.209 146.052 133.209 147.593V299.686C133.209 301.228 134.458 302.477 135.999 302.477H302.046C303.587 302.477 304.837 301.228 304.837 299.686V147.593C304.837 146.052 303.587 144.803 302.046 144.803H135.999Z" fill="#E7E8FF"/>
<path d="M175.069 412.441C175.069 410.129 176.943 408.255 179.255 408.255H258.79C261.102 408.255 262.976 410.129 262.976 412.441V434.766C262.976 437.078 261.102 438.952 258.79 438.952H179.255C176.943 438.952 175.069 437.078 175.069 434.766V412.441Z" fill="#032068"/>
<path fill-rule="evenodd" clip-rule="evenodd" d="M314.955 91.9484V103.361H312.164V91.9484H314.955Z" fill="#032068"/>
<path fill-rule="evenodd" clip-rule="evenodd" d="M307.822 93.375V103.361H305.031V93.375H307.822Z" fill="#032068"/>
<path fill-rule="evenodd" clip-rule="evenodd" d="M300.688 96.2283V103.361H297.897V96.2283H300.688Z" fill="#032068"/>
<path fill-rule="evenodd" clip-rule="evenodd" d="M293.555 99.0815V103.361H290.765V99.0815H293.555Z" fill="#032068"/>
<path d="M131.813 225.733H307.627V241.082H131.813V225.733Z" fill="#E7E8FF"/>
<path d="M170.883 143.407H186.232V228.524H170.883V143.407Z" fill="#E7E8FF"/>
<path d="M247.627 234.105H262.976V303.872H247.627V234.105Z" fill="#E7E8FF"/>
<path fill-rule="evenodd" clip-rule="evenodd" d="M221.118 237.78C226.059 237.78 247.675 199.646 247.675 185.098C247.675 170.55 235.785 158.756 221.118 158.756C206.451 158.756 194.561 170.55 194.561 185.098C194.561 199.646 214.324 237.78 221.118 237.78ZM221.118 198.916C228.631 198.916 234.721 192.826 234.721 185.313C234.721 177.801 228.631 171.711 221.118 171.711C213.606 171.711 207.516 177.801 207.516 185.313C207.516 192.826 213.606 198.916 221.118 198.916Z" fill="#032068"/>
<path d="M187.998 383.665C187.998 389.539 183.236 394.301 177.362 394.301C171.488 394.301 166.727 389.539 166.727 383.665C166.727 377.792 171.488 373.03 177.362 373.03C183.236 373.03 187.998 377.792 187.998 383.665Z" fill="white"/>
<path fill-rule="evenodd" clip-rule="evenodd" d="M177.362 374.425C172.259 374.425 168.122 378.562 168.122 383.666C168.122 388.769 172.259 392.906 177.362 392.906C182.465 392.906 186.602 388.769 186.602 383.666C186.602 378.562 182.465 374.425 177.362 374.425ZM165.331 383.666C165.331 377.021 170.718 371.635 177.362 371.635C184.007 371.635 189.393 377.021 189.393 383.666C189.393 390.31 184.007 395.697 177.362 395.697C170.718 395.697 165.331 390.31 165.331 383.666Z" fill="#032068"/>
<path d="M270.044 383.665C270.044 389.539 265.622 394.301 260.168 394.301C254.714 394.301 250.292 389.539 250.292 383.665C250.292 377.792 254.714 373.03 260.168 373.03C265.622 373.03 270.044 377.792 270.044 383.665Z" fill="white"/>
<path fill-rule="evenodd" clip-rule="evenodd" d="M260.169 374.425C255.581 374.425 251.688 378.463 251.688 383.666C251.688 388.868 255.581 392.906 260.169 392.906C264.757 392.906 268.649 388.868 268.649 383.666C268.649 378.463 264.757 374.425 260.169 374.425ZM248.897 383.666C248.897 377.12 253.848 371.635 260.169 371.635C266.489 371.635 271.44 377.12 271.44 383.666C271.44 390.211 266.489 395.697 260.169 395.697C253.848 395.697 248.897 390.211 248.897 383.666Z" fill="#032068"/>
<path d="M271.465 382.093C270.283 376.374 265.329 372.084 259.398 372.084C253.467 372.084 248.513 376.374 247.331 382.093H190.259C189.077 376.374 184.123 372.084 178.192 372.084C172.261 372.084 167.308 376.374 166.125 382.093C164.237 382.093 160.305 381.777 159.689 380.513C158.918 378.932 156.56 361.284 158.149 358.913C160.973 354.698 184.617 351.538 186.673 351.011C189.725 345.076 195.779 333.41 197.587 330.312C197.792 329.962 197.678 329.501 197.326 329.298C196.098 328.59 196.599 326.694 198.017 326.679C203.338 326.623 209.471 326.514 213.913 326.514C224.192 326.514 255.288 325.197 257.343 326.514C259.398 327.831 260.683 327.041 262.482 334.943C264.281 342.845 265.309 349.431 267.365 351.801C269.421 354.172 271.991 354.435 273.018 358.913C274.046 363.391 276.359 379.722 276.102 381.303C274.817 381.566 272.925 382.356 271.465 382.093Z" fill="white"/>
<path fill-rule="evenodd" clip-rule="evenodd" d="M227.353 327.663C221.91 327.793 216.981 327.91 213.913 327.91C210.925 327.91 207.174 327.959 203.412 328.008C201.593 328.032 199.771 328.056 198.032 328.075C198.032 328.075 198.032 328.075 198.032 328.075C198.031 328.078 198.029 328.081 198.028 328.085C198.028 328.087 198.027 328.09 198.027 328.092C199.071 328.696 199.371 330.023 198.792 331.016C197.008 334.072 190.976 345.694 187.914 351.649L187.627 352.207L187.019 352.363C186.588 352.473 185.407 352.672 183.829 352.938C183.259 353.034 182.638 353.138 181.981 353.251C179.438 353.686 176.222 354.258 172.988 354.944C169.747 355.631 166.525 356.425 163.956 357.296C162.67 357.732 161.585 358.175 160.757 358.617C159.891 359.078 159.464 359.456 159.308 359.69C159.308 359.69 159.308 359.691 159.307 359.693C159.295 359.722 159.191 359.971 159.112 360.625C159.036 361.256 159.001 362.081 159.006 363.059C159.015 365.01 159.181 367.439 159.422 369.871C159.663 372.299 159.977 374.7 160.277 376.585C160.428 377.529 160.572 378.332 160.701 378.939C160.765 379.243 160.823 379.487 160.873 379.668C160.895 379.749 160.912 379.806 160.925 379.844C160.966 379.874 161.059 379.934 161.238 380.01C161.588 380.16 162.082 380.295 162.681 380.404C163.454 380.546 164.302 380.627 165.045 380.667C166.744 374.912 171.968 370.688 178.192 370.688C184.427 370.688 189.659 374.927 191.348 380.698H246.242C247.931 374.927 253.163 370.688 259.398 370.688C265.641 370.688 270.878 374.938 272.56 380.721C272.843 380.687 273.162 380.626 273.521 380.539C273.859 380.457 274.194 380.363 274.542 380.265L274.663 380.231C274.675 380.228 274.686 380.225 274.697 380.222C274.696 380.203 274.695 380.183 274.693 380.164C274.654 379.584 274.583 378.82 274.486 377.917C274.291 376.113 273.996 373.799 273.66 371.387C272.985 366.542 272.157 361.397 271.658 359.226C271.213 357.287 270.475 356.35 269.645 355.606C269.311 355.306 268.978 355.05 268.595 354.756C268.442 354.639 268.282 354.516 268.11 354.381C267.538 353.933 266.911 353.408 266.311 352.716C265.642 351.944 265.122 350.915 264.685 349.78C264.242 348.63 263.849 347.275 263.474 345.788C263.028 344.02 262.588 341.975 262.116 339.782C261.802 338.325 261.474 336.802 261.122 335.253C260.223 331.306 259.506 329.83 258.941 329.158C258.691 328.86 258.444 328.69 258.1 328.506C258.021 328.463 257.916 328.411 257.795 328.35C257.481 328.193 257.055 327.98 256.659 327.733C256.631 327.725 256.546 327.701 256.378 327.67C256.098 327.619 255.703 327.57 255.191 327.527C254.169 327.44 252.781 327.385 251.11 327.354C247.771 327.293 243.392 327.333 238.736 327.416C234.985 327.482 231.05 327.575 227.353 327.663ZM158.434 381.124C158.249 380.744 158.098 380.118 157.971 379.517C157.829 378.847 157.676 377.994 157.521 377.024C157.212 375.081 156.891 372.626 156.645 370.147C156.4 367.673 156.225 365.147 156.215 363.073C156.21 362.038 156.246 361.084 156.342 360.29C156.429 359.57 156.589 358.734 156.989 358.137C157.539 357.317 158.469 356.674 159.444 356.154C160.458 355.613 161.7 355.114 163.06 354.653C165.783 353.729 169.13 352.91 172.41 352.214C175.697 351.517 178.955 350.937 181.511 350.5C182.289 350.367 182.991 350.249 183.604 350.145C184.529 349.989 185.253 349.867 185.738 349.779C188.71 344.005 194.051 333.722 196.092 330.114C194.337 328.491 195.41 325.311 198.002 325.284C199.724 325.266 201.535 325.242 203.349 325.218C207.123 325.169 210.907 325.119 213.913 325.119C216.956 325.119 221.817 325.003 227.223 324.875C230.925 324.787 234.883 324.693 238.687 324.625C243.347 324.543 247.769 324.501 251.161 324.564C252.854 324.595 254.313 324.652 255.425 324.746C255.98 324.793 256.474 324.851 256.88 324.925C257.218 324.987 257.711 325.093 258.095 325.34C258.385 325.525 258.604 325.634 258.87 325.766C259.028 325.844 259.203 325.93 259.419 326.046C259.951 326.331 260.523 326.704 261.076 327.361C262.117 328.598 262.942 330.679 263.843 334.634C264.214 336.265 264.548 337.816 264.862 339.278C265.323 341.42 265.743 343.371 266.18 345.106C266.544 346.548 266.905 347.779 267.29 348.777C267.68 349.79 268.06 350.473 268.419 350.887C268.847 351.38 269.312 351.777 269.832 352.185C269.954 352.281 270.085 352.381 270.221 352.486C270.631 352.8 271.088 353.151 271.509 353.528C272.735 354.628 273.795 356.062 274.378 358.601C274.908 360.908 275.75 366.167 276.424 371.002C276.762 373.43 277.062 375.775 277.26 377.618C277.36 378.538 277.435 379.344 277.478 379.977C277.516 380.543 277.542 381.141 277.479 381.527L277.325 382.477L276.382 382.67C276.117 382.724 275.805 382.809 275.418 382.918C275.379 382.929 275.338 382.94 275.297 382.952C274.955 383.048 274.569 383.157 274.177 383.252C273.329 383.457 272.25 383.653 271.217 383.466L270.289 383.299L270.098 382.376C269.042 377.269 264.631 373.479 259.398 373.479C254.165 373.479 249.753 377.269 248.697 382.376L248.467 383.488H189.123L188.893 382.376C187.837 377.269 183.425 373.479 178.192 373.479C172.959 373.479 168.547 377.269 167.492 382.376L167.261 383.488H166.125C165.125 383.488 163.581 383.406 162.179 383.15C161.482 383.022 160.76 382.841 160.14 382.576C159.576 382.335 158.817 381.908 158.434 381.124Z" fill="#032068"/>
<path d="M272.508 380.627C271.31 375.453 266.291 371.57 260.282 371.57C254.272 371.57 249.254 375.453 248.056 380.627L245.962 380.537C246.396 376.516 249.867 368.472 260.282 368.472C270.697 368.472 274.168 376.575 274.602 380.627H272.508Z" fill="#032068"/>
<path d="M190.233 380.627C189.035 375.453 184.016 371.57 178.007 371.57C171.998 371.57 166.979 375.453 165.781 380.627C165.217 380.627 164.473 380.602 163.688 380.537C164.121 376.516 167.592 368.472 178.007 368.472C188.422 368.472 191.894 376.575 192.327 380.627H190.233Z" fill="#032068"/>
<path d="M183.439 383.665C183.439 387.022 181.058 389.743 178.122 389.743C175.185 389.743 172.804 387.022 172.804 383.665C172.804 380.309 175.185 377.588 178.122 377.588C181.058 377.588 183.439 380.309 183.439 383.665Z" fill="#032068"/>
<path d="M265.486 383.665C265.486 387.022 262.765 389.743 259.409 389.743C256.052 389.743 253.331 387.022 253.331 383.665C253.331 380.309 256.052 377.588 259.409 377.588C262.765 377.588 265.486 380.309 265.486 383.665Z" fill="#032068"/>
<path d="M160.258 380.627H163.911C164.286 377.483 165.945 374.252 166.727 373.03H160.258C158.022 373.03 156.269 374.952 156.476 377.179C156.657 379.132 158.296 380.627 160.258 380.627Z" fill="#032068"/>
<path d="M274.972 380.627H273.023C272.626 377.483 270.872 374.252 270.044 373.03H274.972C277.216 373.03 278.971 374.965 278.752 377.199C278.561 379.144 276.926 380.627 274.972 380.627Z" fill="#032068"/>
<path d="M160.649 366.952C160.649 369.47 159.969 371.51 159.13 371.51C158.291 371.51 157.61 369.47 157.61 366.952C157.61 364.435 158.291 362.394 159.13 362.394C159.969 362.394 160.649 364.435 160.649 366.952Z" fill="#E7E8FF"/>
<path d="M276.122 368.472C276.122 370.15 275.442 371.51 274.602 371.51C273.763 371.51 273.083 370.15 273.083 368.472C273.083 366.793 273.763 365.433 274.602 365.433C275.442 365.433 276.122 366.793 276.122 368.472Z" fill="#E7E8FF"/>
<path d="M196.207 353.278H223.258C225.57 353.278 227.444 351.404 227.444 349.092V336.405C227.444 334.143 225.651 332.289 223.39 332.232C214.454 332.007 201.496 331.82 200.612 332.345C199.837 332.805 195.814 340.584 192.474 347.278C191.094 350.044 193.115 353.278 196.207 353.278Z" fill="white"/>
<path d="M231.572 349.092V336.389C231.572 334.133 233.359 332.282 235.613 332.219C243.385 332 254.015 331.83 254.535 332.345C255.03 332.835 256.328 341.625 257.268 348.565C257.606 351.065 255.656 353.278 253.134 353.278H235.758C233.447 353.278 231.572 351.404 231.572 349.092Z" fill="white"/>
<path fill-rule="evenodd" clip-rule="evenodd" d="M201.107 333.641C201.107 333.641 201.112 333.639 201.125 333.636C201.114 333.639 201.107 333.641 201.107 333.641ZM201.353 333.598C201.425 333.589 201.512 333.579 201.614 333.569C202.028 333.528 202.609 333.495 203.337 333.469C204.79 333.417 206.751 333.398 208.979 333.403C213.43 333.412 218.892 333.515 223.355 333.627C224.854 333.665 226.049 334.893 226.049 336.405V349.092C226.049 350.633 224.8 351.883 223.259 351.883H196.207C194.141 351.883 192.811 349.729 193.723 347.901C195.391 344.558 197.225 340.954 198.735 338.132C199.492 336.719 200.159 335.518 200.68 334.648C200.942 334.211 201.155 333.877 201.316 333.649C201.329 333.631 201.341 333.614 201.353 333.598ZM201.491 333.421C201.499 333.412 201.503 333.408 201.503 333.408C201.503 333.409 201.499 333.413 201.491 333.421ZM208.985 330.612C213.467 330.621 218.953 330.725 223.426 330.838C226.45 330.914 228.84 333.392 228.84 336.405V349.092C228.84 352.174 226.341 354.673 223.259 354.673H196.207C192.09 354.673 189.378 350.359 191.226 346.655C192.898 343.304 194.746 339.671 196.275 336.815C197.039 335.389 197.731 334.141 198.286 333.214C198.563 332.752 198.817 332.35 199.037 332.039C199.147 331.884 199.261 331.732 199.376 331.6C199.467 331.496 199.649 331.294 199.9 331.145L200.601 332.326L199.9 331.145C200.189 330.973 200.514 330.91 200.657 330.883C200.86 330.845 201.095 330.816 201.342 330.791C201.841 330.743 202.488 330.706 203.238 330.68C204.743 330.626 206.746 330.607 208.985 330.612ZM254.992 331.01C255.092 331.051 255.312 331.15 255.517 331.353C255.771 331.604 255.893 331.913 255.932 332.01L255.934 332.017C255.997 332.173 256.051 332.348 256.1 332.52C256.198 332.868 256.301 333.316 256.406 333.829C256.618 334.86 256.86 336.245 257.113 337.814C257.619 340.957 258.18 344.903 258.651 348.378C259.104 351.723 256.494 354.673 253.134 354.673H235.759C232.676 354.673 230.178 352.174 230.178 349.092V336.389C230.178 333.384 232.559 330.909 235.575 330.824C239.465 330.715 244.08 330.617 247.792 330.612C249.645 330.609 251.291 330.629 252.515 330.683C253.123 330.71 253.654 330.747 254.064 330.798C254.266 330.823 254.473 330.856 254.66 330.902C254.753 330.925 254.87 330.959 254.992 331.01ZM247.796 333.402C244.12 333.408 239.534 333.504 235.653 333.614C234.159 333.656 232.968 334.883 232.968 336.389V349.092C232.968 350.633 234.218 351.883 235.759 351.883H253.134C254.819 351.883 256.11 350.407 255.886 348.752C255.416 345.286 254.859 341.367 254.358 338.258C254.107 336.701 253.872 335.363 253.673 334.391C253.603 334.052 253.539 333.768 253.483 333.542C253.202 333.515 252.836 333.491 252.391 333.471C251.232 333.42 249.637 333.4 247.796 333.402ZM253.341 333.047C253.341 333.048 253.342 333.049 253.342 333.051C253.325 333.016 253.326 333.008 253.341 333.047Z" fill="#032068"/>
<path d="M388.083 266.465L394.822 282.91C394.822 287.893 391.977 297.859 380.594 297.859C369.212 297.859 362.373 291.381 360.376 288.142V275.435C356.632 275.435 352.139 270.203 349.892 266.465C347.646 262.728 337.162 240.304 349.143 226.102C361.125 211.9 377.599 221.617 388.083 235.072C396.47 245.835 391.577 260.486 388.083 266.465Z" fill="white"/>
<path fill-rule="evenodd" clip-rule="evenodd" d="M368.814 221.28C375.45 223.518 382.023 229.125 387.194 235.762C391.155 240.845 392.01 246.877 391.418 252.444C390.826 258.021 388.788 263.028 387.11 265.899L386.83 266.378L393.694 283.126C393.654 285.446 392.963 288.822 391.047 291.619C389.111 294.444 385.893 296.735 380.594 296.735C369.966 296.735 363.529 290.856 361.502 287.813V274.311H360.376C358.968 274.311 357.188 273.281 355.348 271.537C353.562 269.844 351.939 267.685 350.858 265.887C349.795 264.118 346.667 257.706 345.291 250.01C343.912 242.305 344.327 233.556 350.005 226.826C352.872 223.426 355.955 221.517 359.09 220.708C362.23 219.897 365.514 220.167 368.814 221.28ZM358.526 218.531C354.874 219.474 351.404 221.676 348.282 225.378C341.978 232.85 341.644 242.414 343.073 250.405C344.505 258.407 347.743 265.075 348.926 267.044C350.092 268.983 351.838 271.309 353.797 273.167C355.394 274.682 357.298 276.043 359.249 276.442V288.46L359.417 288.731C361.59 292.257 368.77 298.983 380.594 298.983C386.677 298.983 390.574 296.292 392.906 292.888C395.198 289.544 395.948 285.57 395.948 282.91V282.689L389.332 266.545C391.085 263.387 393.059 258.316 393.658 252.681C394.29 246.736 393.398 240.062 388.971 234.381C383.659 227.563 376.752 221.584 369.535 219.15C365.909 217.927 362.172 217.59 358.526 218.531Z" fill="#032068"/>
<path d="M480.94 478.001H409.052H322.185C308.706 460.061 299.72 327.011 307.957 312.809C320.964 290.385 346.897 285.152 358.878 282.162C360.875 285.9 366.666 290.385 376.85 290.385C387.034 290.385 393.574 282.91 395.571 279.172C410.049 281.913 442.598 290.534 456.976 303.092C474.948 318.789 488.428 389.799 493.67 434.647C497.863 470.526 486.931 478.499 480.94 478.001Z" fill="white"/>
<path fill-rule="evenodd" clip-rule="evenodd" d="M394.967 277.914L394.577 278.643C392.689 282.177 386.462 289.26 376.85 289.26C366.993 289.26 361.634 284.932 359.872 281.633L359.458 280.859L358.605 281.072C357.949 281.235 357.249 281.406 356.509 281.587C343.852 284.674 319.535 290.604 306.983 312.246C306.379 313.286 305.902 314.775 305.511 316.568C305.116 318.383 304.791 320.594 304.53 323.134C304.009 328.216 303.736 334.687 303.684 342.081C303.578 356.871 304.352 375.428 305.805 394.09C307.257 412.752 309.39 431.545 312.007 446.808C313.315 454.438 314.748 461.204 316.282 466.639C317.804 472.032 319.463 476.252 321.284 478.675L321.622 479.125H480.895C484.484 479.4 489.065 477.12 492.147 470.435C495.229 463.749 496.896 452.546 494.788 434.517C492.164 412.059 487.476 383.046 481.19 357.668C478.047 344.98 474.498 333.175 470.598 323.541C466.715 313.951 462.422 306.355 457.717 302.246C450.355 295.816 438.447 290.464 426.68 286.389C414.877 282.301 403.067 279.447 395.781 278.068L394.967 277.914ZM425.941 288.513C437.662 292.572 449.218 297.81 456.234 303.938C460.515 307.677 464.647 314.843 468.51 324.384C472.355 333.881 475.874 345.574 479.003 358.207C485.261 383.471 489.934 412.387 492.551 434.777C494.637 452.627 492.934 463.35 490.101 469.495C487.281 475.612 483.427 477.079 481.033 476.88L480.986 476.876H322.767C321.322 474.728 319.863 471.034 318.45 466.03C316.945 460.699 315.528 454.017 314.227 446.429C311.626 431.255 309.5 412.534 308.05 393.916C306.601 375.298 305.831 356.808 305.936 342.097C305.988 334.739 306.26 328.346 306.771 323.363C307.027 320.871 307.341 318.75 307.712 317.046C308.088 315.322 308.506 314.107 308.932 313.372C320.983 292.594 344.399 286.865 357.118 283.753C357.535 283.651 357.941 283.552 358.334 283.455C360.886 287.413 366.976 291.509 376.85 291.509C386.98 291.509 393.647 284.533 396.148 280.428C403.388 281.842 414.672 284.61 425.941 288.513Z" fill="#032068"/>
<path d="M421.781 464.546C436.757 458.566 454.979 426.674 462.218 411.475C456.477 433.152 433.762 474.44 416.539 471.273C393.774 467.087 359.128 419.199 344.651 395.778C364.12 421.192 406.804 470.526 421.781 464.546Z" fill="#032068"/>
<path d="M394.073 454.081C410.248 445.71 431.265 448.102 439.752 450.344C436.507 456.573 427.771 468.732 418.785 467.536C409.799 466.34 398.566 458.068 394.073 454.081Z" fill="#032068"/>
<path d="M408.301 383.071L416.538 357.657L403.808 379.334C393.624 376.344 378.348 368.869 360.376 365.132C376.85 371.112 407.802 388.553 425.524 398.768L408.301 383.071Z" fill="#032068"/>
<path d="M350.641 359.9C351.24 361.096 354.385 365.381 355.883 367.374L345.399 385.314C344.512 384.068 341.988 381.128 338.992 379.334C335.248 377.092 323.683 374.849 323.683 365.879C323.683 358.704 328.675 352.923 331.171 350.93C327.177 346.694 318.441 339.718 318.441 337.475C318.441 335.804 319.19 332.991 322.185 333.738C325.181 334.486 335.664 346.445 337.911 347.193C340.157 347.94 346.148 347.193 348.394 348.687C350.641 350.182 349.892 358.405 350.641 359.9Z" fill="white"/>
<path fill-rule="evenodd" clip-rule="evenodd" d="M320.734 334.824C320.97 334.735 321.339 334.686 321.912 334.829C322.076 334.87 322.426 335.035 322.987 335.424C323.519 335.792 324.15 336.295 324.855 336.902C326.266 338.116 327.905 339.682 329.544 341.272C329.875 341.593 330.206 341.915 330.535 342.235C331.825 343.488 333.081 344.71 334.164 345.707C334.845 346.333 335.474 346.887 336.015 347.313C336.515 347.706 337.064 348.096 337.555 348.259C338.269 348.497 339.195 348.595 340.109 348.653C340.694 348.691 341.343 348.715 341.993 348.739C342.366 348.753 342.74 348.766 343.102 348.783C344.123 348.829 345.097 348.897 345.94 349.037C346.804 349.181 347.41 349.383 347.77 349.623C347.955 349.746 348.248 350.165 348.497 351.139C348.729 352.045 348.864 353.18 348.957 354.38C349.011 355.087 349.047 355.737 349.081 356.367C349.108 356.853 349.133 357.328 349.167 357.806C349.203 358.316 349.246 358.801 349.308 359.216C349.366 359.601 349.455 360.045 349.634 360.402C349.982 361.097 350.981 362.55 352.008 363.99C352.871 365.201 353.81 366.478 354.535 367.451L345.258 383.325C343.969 381.821 341.919 379.776 339.572 378.37C338.674 377.832 337.389 377.305 336.042 376.751C335.846 376.671 335.649 376.59 335.452 376.508C333.845 375.844 332.11 375.098 330.503 374.159C327.278 372.276 324.809 369.77 324.809 365.879C324.809 362.552 325.968 359.512 327.457 357.04C328.948 354.564 330.731 352.721 331.875 351.808L332.828 351.047L331.992 350.16C330.65 348.736 328.764 346.992 326.88 345.25C325.925 344.366 324.97 343.483 324.086 342.642C322.749 341.369 321.568 340.188 320.727 339.2C320.306 338.705 319.993 338.286 319.792 337.949C319.618 337.657 319.579 337.511 319.57 337.478C319.568 337.469 319.568 337.468 319.568 337.475C319.568 336.754 319.738 335.892 320.12 335.335C320.296 335.078 320.498 334.912 320.734 334.824ZM318.261 334.065C317.52 335.146 317.315 336.525 317.315 337.475C317.315 338.071 317.585 338.643 317.857 339.099C318.149 339.589 318.551 340.116 319.011 340.656C319.933 341.739 321.185 342.988 322.532 344.269C323.477 345.168 324.466 346.083 325.437 346.981C326.919 348.351 328.359 349.683 329.538 350.864C328.302 352.026 326.811 353.749 325.526 355.882C323.894 358.593 322.557 362.031 322.557 365.879C322.557 370.959 325.871 374.059 329.365 376.1C331.117 377.123 332.976 377.919 334.59 378.586C334.794 378.67 334.992 378.751 335.184 378.831C336.57 379.401 337.673 379.854 338.413 380.298C341.229 381.984 343.646 384.792 344.482 385.965L345.493 387.385L357.232 367.297L356.784 366.7C356.039 365.709 354.884 364.147 353.843 362.686C352.773 361.186 351.9 359.898 351.649 359.397C351.649 359.398 351.649 359.398 351.649 359.397C351.646 359.391 351.631 359.352 351.609 359.268C351.585 359.173 351.56 359.046 351.536 358.884C351.487 358.557 351.448 358.143 351.414 357.649C351.387 357.267 351.362 356.808 351.334 356.317C351.297 355.635 351.255 354.891 351.203 354.207C351.108 352.978 350.962 351.684 350.679 350.581C350.414 349.546 349.958 348.376 349.019 347.752C348.257 347.245 347.271 346.979 346.31 346.82C345.328 346.656 344.242 346.584 343.204 346.537C342.798 346.518 342.405 346.504 342.025 346.49C341.403 346.467 340.814 346.445 340.253 346.409C339.342 346.351 338.677 346.262 338.267 346.126C338.267 346.126 338.267 346.126 338.267 346.126C338.265 346.125 338.242 346.117 338.197 346.093C338.148 346.068 338.085 346.032 338.006 345.981C337.846 345.878 337.648 345.735 337.411 345.548C336.937 345.175 336.356 344.666 335.691 344.054C334.633 343.08 333.407 341.888 332.12 340.637C331.788 340.314 331.452 339.987 331.114 339.659C329.477 338.072 327.793 336.462 326.326 335.199C325.592 334.568 324.895 334.008 324.271 333.577C323.677 333.165 323.044 332.794 322.459 332.648C321.535 332.417 320.687 332.439 319.94 332.72C319.193 333.001 318.646 333.503 318.261 334.065Z" fill="#032068"/>
<path d="M377.6 271.698C372.208 275.883 363.871 275.933 360.376 275.435V280.667C367.565 280.667 374.854 274.688 377.6 271.698Z" fill="#032068"/>
<path d="M383.59 260.486C384.189 262.878 388.332 269.954 390.329 273.193C396.32 270.95 397.818 238.809 394.074 229.092C391.079 221.318 379.846 219.375 375.353 220.122C372.357 217.88 368.615 213.395 346.15 217.132C323.685 220.869 323.685 246.284 338.662 247.031C353.639 247.779 359.627 240.304 361.874 241.051C364.12 241.799 365.618 243.294 370.86 250.021C376.102 256.748 374.604 256.748 375.353 250.021C376.102 243.294 379.097 243.294 384.339 247.031C389.581 250.768 382.841 257.496 383.59 260.486Z" fill="#032068"/>
<path d="M276.987 305.205L287.453 351.17C287.547 351.584 287.866 351.909 288.279 352.012L306.196 356.471C307.007 356.673 307.748 355.955 307.569 355.14L298.216 312.531C298.137 312.171 297.886 311.872 297.545 311.732L278.514 303.916C277.67 303.57 276.785 304.317 276.987 305.205Z" fill="white"/>
<path fill-rule="evenodd" clip-rule="evenodd" d="M278.942 302.877C277.254 302.183 275.485 303.677 275.889 305.454L286.355 351.419C286.543 352.247 287.182 352.897 288.006 353.103L305.924 357.562C307.545 357.966 309.026 356.529 308.669 354.9L299.316 312.29L298.244 312.525L299.316 312.29C299.158 311.57 298.656 310.973 297.973 310.692L278.942 302.877ZM278.085 304.956L297.116 312.771L306.469 355.381L288.551 350.921L278.085 304.956Z" fill="#032068"/>
<path d="M302.27 358.643V365.106C294.887 368.769 280.381 374.155 281.423 366.399C282.726 356.704 278.817 355.411 276.863 344.423C275.3 335.632 279.252 332.142 281.423 331.496C281.857 333.219 282.856 337.054 283.378 338.606C284.029 340.545 290.543 337.313 295.755 336.666C300.967 336.02 304.224 345.716 304.876 350.886C305.527 356.057 302.27 356.704 302.27 358.643Z" fill="white"/>
<path fill-rule="evenodd" clip-rule="evenodd" d="M282.228 330.083L281.101 330.418C278.243 331.269 274.118 335.421 275.754 344.619C276.562 349.161 277.709 352.123 278.665 354.592C278.892 355.177 279.108 355.735 279.306 356.279C280.314 359.049 280.93 361.612 280.307 366.249C280.156 367.374 280.269 368.392 280.721 369.246C281.181 370.114 281.923 370.685 282.785 371.028C284.431 371.683 286.651 371.563 288.896 371.139C293.465 370.276 299.045 367.962 302.771 366.113L303.396 365.803V358.643C303.396 358.502 303.444 358.331 303.686 357.992C303.799 357.833 303.93 357.67 304.096 357.464C304.112 357.444 304.128 357.424 304.145 357.403C304.326 357.178 304.535 356.915 304.741 356.619C305.621 355.359 306.356 353.628 305.993 350.746C305.654 348.054 304.644 344.206 303.026 341.079C302.217 339.517 301.221 338.065 300.021 337.036C298.804 335.993 297.318 335.34 295.616 335.551C293.493 335.814 291.149 336.491 289.142 337.071C288.584 337.232 288.052 337.386 287.558 337.521C286.371 337.846 285.442 338.055 284.795 338.089C284.601 338.099 284.471 338.09 284.389 338.079C283.871 336.479 282.937 332.896 282.515 331.221L282.228 330.083ZM280.677 333.123C281.173 335.037 281.887 337.705 282.31 338.963C282.515 339.573 282.967 339.959 283.479 340.155C283.943 340.332 284.453 340.358 284.911 340.334C285.832 340.287 286.98 340.011 288.154 339.69C288.715 339.536 289.294 339.369 289.883 339.199C291.868 338.627 293.967 338.021 295.894 337.782C296.798 337.67 297.673 337.986 298.553 338.741C299.45 339.51 300.286 340.684 301.025 342.111C302.501 344.963 303.446 348.548 303.758 351.027C304.047 353.315 303.479 354.494 302.893 355.334C302.733 355.563 302.565 355.775 302.387 355.997C302.37 356.018 302.352 356.04 302.334 356.063C302.177 356.258 302.004 356.473 301.851 356.688C301.503 357.176 301.144 357.814 301.144 358.643V364.405C297.519 366.155 292.51 368.168 288.477 368.93C286.304 369.341 284.631 369.343 283.619 368.94C283.153 368.754 282.875 368.503 282.712 368.195C282.542 367.873 282.43 367.362 282.539 366.548C283.219 361.491 282.532 358.56 281.423 355.512C281.209 354.924 280.982 354.337 280.748 353.733C279.799 351.279 278.738 348.535 277.972 344.226C276.77 337.47 278.992 334.322 280.677 333.123Z" fill="#032068"/>
<path d="M322.934 430.162C322.934 439.73 316.445 445.859 313.2 448.101L313.948 452.586C317.443 453.334 325.238 444.364 325.929 435.394C327.122 419.923 314.077 380.964 307.308 363.151C307.274 363.061 307.241 362.974 307.209 362.889C307.242 362.976 307.275 363.063 307.308 363.151C311.16 373.398 322.934 418.307 322.934 430.162Z" fill="#032068"/>
<path d="M290.56 365.132C278.578 365.132 280.251 362.89 277.256 357.657C277.256 375.846 270.517 414.465 273.511 429.415C277.255 448.102 290.56 454.829 298.796 453.334C307.032 451.839 320.514 448.102 322.76 431.657C324.557 418.502 312.027 376.842 305.537 357.657C304.788 359.401 300.902 365.132 290.56 365.132Z" fill="white"/>
<path fill-rule="evenodd" clip-rule="evenodd" d="M276.13 353.424V357.657C276.13 364.674 275.117 374.765 274.048 385.422C273.743 388.47 273.432 391.563 273.14 394.644C272.484 401.548 271.92 408.372 271.708 414.414C271.497 420.436 271.632 425.762 272.407 429.635C276.239 448.762 290.008 456.072 298.998 454.44C303.154 453.685 308.776 452.345 313.658 449.031C318.587 445.685 322.707 440.365 323.876 431.809C324.351 428.336 323.875 423.117 322.85 417.055C321.82 410.957 320.211 403.883 318.347 396.639C314.619 382.148 309.855 366.909 306.604 357.297L305.662 354.512L304.502 357.214C303.91 358.593 300.401 364.008 290.56 364.008C287.587 364.008 285.526 363.868 284.053 363.594C282.59 363.323 281.788 362.935 281.261 362.495C280.727 362.049 280.366 361.462 279.93 360.549C279.823 360.325 279.711 360.079 279.59 359.814C279.237 359.041 278.812 358.11 278.234 357.099L276.13 353.424ZM283.642 365.805C285.319 366.116 287.543 366.256 290.56 366.256C298.702 366.256 303.134 362.847 305.22 360.255C308.412 369.856 312.732 383.852 316.165 397.198C318.021 404.411 319.613 411.417 320.629 417.429C321.652 423.478 322.068 428.4 321.644 431.505C320.567 439.394 316.823 444.164 312.391 447.172C307.912 450.212 302.675 451.487 298.595 452.228C291.113 453.586 278.271 447.441 274.616 429.194C273.894 425.592 273.749 420.485 273.959 414.493C274.168 408.521 274.727 401.75 275.382 394.857C275.67 391.823 275.977 388.762 276.281 385.735C277.14 377.173 277.972 368.882 278.268 362.251C278.657 362.966 279.127 363.644 279.815 364.219C280.742 364.993 281.955 365.492 283.642 365.805Z" fill="#032068"/>
<path d="M276.331 439.132C294.902 428.966 314.022 434.398 321.261 438.384C319.264 443.368 311.975 453.483 298.796 454.081C285.616 454.679 278.328 444.364 276.331 439.132Z" fill="#032068"/>
</svg>
