<svg width="512" height="512" viewBox="0 0 512 512" fill="none" xmlns="http://www.w3.org/2000/svg">
<path d="M98.9439 438.422H423.433C470.266 438.422 501.603 390.286 482.606 347.527C476.224 333.164 475.297 316.972 479.998 301.976L492.744 261.312C506.029 218.926 477.191 174.989 432.978 170.257L428.422 169.77C401.523 166.891 379.341 147.428 373.016 121.154C361.475 73.2082 302.231 55.8183 266.555 89.9041L247.207 108.39C229.457 125.349 204.723 132.923 180.507 128.813L176.964 128.212C126.883 119.713 82.9947 162.328 90.0817 212.572C93.9313 239.864 82.4762 267.065 60.2532 283.402L50.3758 290.664C31.6208 304.451 19.6252 325.559 17.3869 348.712C12.7381 396.798 50.5796 438.422 98.9439 438.422Z" fill="#E7E8FF"/>
<path d="M186.372 397.099C195.749 408.972 173.608 428.605 161.366 436.937H154.332C161.105 418.71 176.995 385.225 186.372 397.099Z" fill="white"/>
<path fill-rule="evenodd" clip-rule="evenodd" d="M182.43 395.752C183.422 395.888 184.459 396.464 185.502 397.785C187.583 400.42 187.952 403.494 187.07 406.882C186.177 410.309 184.011 413.996 181.108 417.658C175.398 424.86 167.071 431.678 161.023 435.829H155.935C159.352 426.874 164.696 414.915 170.304 406.336C173.285 401.776 176.248 398.317 178.934 396.7C180.259 395.903 181.418 395.612 182.43 395.752ZM168.448 405.124C162.391 414.39 156.692 427.406 153.294 436.551L152.738 438.045H161.707L161.99 437.853C168.164 433.651 176.858 426.587 182.846 419.034C185.836 415.262 188.212 411.293 189.216 407.44C190.23 403.546 189.85 399.714 187.242 396.412C185.942 394.765 184.431 393.79 182.732 393.556C181.054 393.325 179.38 393.845 177.791 394.802C174.648 396.693 171.458 400.519 168.448 405.124Z" fill="#032068"/>
<path d="M168.4 336.95C189.03 353.198 169.702 410.378 157.459 436.937H136.36C137.142 401.004 142.612 316.64 168.4 336.95Z" fill="#032068"/>
<path fill-rule="evenodd" clip-rule="evenodd" d="M158.578 364.748L161.837 346.906L164.018 347.304L156.29 389.61L167.889 383.616L168.907 385.585L155.787 392.365L147.608 437.136L145.427 436.738L150.202 410.601L141.669 396.903L143.551 395.732L150.794 407.358L157.788 369.073L152.508 354.513L154.593 353.758L158.578 364.748Z" fill="white"/>
<path d="M106.664 324.452C137.297 326.951 149.644 400.484 151.988 436.937H132.452C112.916 413.503 68.3727 321.327 106.664 324.452Z" fill="white"/>
<path fill-rule="evenodd" clip-rule="evenodd" d="M96.7364 328.233C98.8535 326.241 102.002 325.183 106.573 325.556C113.762 326.143 120.019 330.905 125.432 338.594C130.839 346.273 135.286 356.714 138.875 368.29C145.896 390.936 149.554 417.664 150.803 435.829H132.974C123.284 423.991 107.582 395.579 98.9205 370.375C94.5335 357.609 92.0172 345.843 92.8939 337.53C93.3306 333.388 94.5946 330.25 96.7364 328.233ZM96.8236 371.095C105.646 396.769 121.724 425.8 131.6 437.647L131.932 438.046H153.17L153.094 436.866C151.918 418.586 148.236 390.996 140.993 367.634C137.373 355.957 132.843 345.268 127.246 337.318C121.655 329.378 114.882 324.01 106.754 323.347C101.752 322.939 97.9162 324.079 95.2164 326.62C92.5413 329.138 91.1557 332.871 90.6889 337.298C89.7584 346.122 92.4192 358.278 96.8236 371.095Z" fill="#032068"/>
<path d="M109.79 404.129C118.542 400.38 131.319 425.924 136.269 438.422H128.454C120.639 432.954 98.8492 408.816 109.79 404.129Z" fill="#032068"/>
<path fill-rule="evenodd" clip-rule="evenodd" d="M112.669 355.141L106.4 337.318L108.492 336.583L122.62 376.754L129.206 367.551L131.01 368.841L123.518 379.308L143.657 436.57L141.566 437.305L130.155 404.86L119.357 398.035L120.542 396.162L128.969 401.488L113.698 358.067L100.725 352.015L101.663 350.007L112.669 355.141Z" fill="#032068"/>
<path d="M437.133 346.246L433.899 350.484C433.703 350.742 433.382 350.866 433.068 350.806L429.071 350.04C428.212 349.875 427.693 350.981 428.357 351.564L431.497 354.325C431.727 354.527 431.835 354.837 431.782 355.142L430.994 359.694C430.846 360.55 431.876 361.08 432.459 360.448L435.685 356.949C435.874 356.744 436.149 356.645 436.422 356.683L440.156 357.203C440.997 357.32 441.473 356.247 440.834 355.676L438.057 353.196C437.834 352.997 437.728 352.694 437.775 352.395L438.651 346.926C438.794 346.032 437.678 345.532 437.133 346.246Z" fill="white"/>
<path d="M168.02 79.6812L167.693 84.0374C167.673 84.3025 167.509 84.5292 167.267 84.6253L164.194 85.8469C163.532 86.1097 163.669 87.1039 164.382 87.2172L167.758 87.7534C168.004 87.7926 168.217 87.9603 168.316 88.1946L169.801 91.6961C170.08 92.3544 171.02 92.27 171.138 91.5761L171.789 87.7357C171.827 87.5102 171.97 87.3209 172.174 87.2274L174.959 85.9504C175.587 85.6627 175.435 84.71 174.744 84.5946L171.742 84.0934C171.501 84.0532 171.294 83.8899 171.194 83.6617L169.361 79.4867C169.061 78.8039 168.075 78.9469 168.02 79.6812Z" fill="#032068"/>
<path d="M181.158 117.112C181.158 114.595 183.173 112.555 185.658 112.555H306.515C309 112.555 311.015 114.595 311.015 117.112V304.009C311.015 306.525 309 308.565 306.515 308.565H185.658C183.173 308.565 181.158 306.525 181.158 304.009V117.112Z" fill="white"/>
<path fill-rule="evenodd" clip-rule="evenodd" d="M180.483 117.112C180.483 114.218 182.8 111.872 185.658 111.872H306.515C309.372 111.872 311.689 114.218 311.689 117.112V304.009C311.689 306.902 309.372 309.248 306.515 309.248H185.658C182.8 309.248 180.483 306.902 180.483 304.009V117.112ZM185.658 113.238C183.545 113.238 181.832 114.972 181.832 117.112V304.009C181.832 306.148 183.545 307.882 185.658 307.882H306.515C308.627 307.882 310.34 306.148 310.34 304.009V117.112C310.34 114.972 308.627 113.238 306.515 113.238H185.658Z" fill="#032068"/>
<path d="M181.158 117.112C181.158 114.595 183.173 112.555 185.658 112.555H306.515C309 112.555 311.015 114.595 311.015 117.112V140.557H181.158V117.112Z" fill="#032068"/>
<path d="M206.537 126.755C206.537 130.116 203.846 132.841 200.526 132.841C197.207 132.841 194.516 130.116 194.516 126.755C194.516 123.394 197.207 120.669 200.526 120.669C203.846 120.669 206.537 123.394 206.537 126.755Z" fill="white"/>
<path d="M226.574 126.755C226.574 130.116 223.883 132.841 220.563 132.841C217.244 132.841 214.553 130.116 214.553 126.755C214.553 123.394 217.244 120.669 220.563 120.669C223.883 120.669 226.574 123.394 226.574 126.755Z" fill="white"/>
<path d="M246.605 126.755C246.605 130.116 243.914 132.841 240.594 132.841C237.275 132.841 234.584 130.116 234.584 126.755C234.584 123.394 237.275 120.669 240.594 120.669C243.914 120.669 246.605 123.394 246.605 126.755Z" fill="white"/>
<path d="M270.682 204.908C271.143 204.49 271.826 204.443 272.339 204.795L294.056 219.703C294.427 219.958 294.648 220.381 294.648 220.834V240.625C294.648 241.38 294.044 241.991 293.299 241.991H233.344C232.106 241.991 231.522 240.444 232.444 239.608L270.682 204.908Z" fill="#032068"/>
<path d="M262.427 187.885C262.427 192.719 258.557 196.637 253.783 196.637C249.009 196.637 245.139 192.719 245.139 187.885C245.139 183.051 249.009 179.132 253.783 179.132C258.557 179.132 262.427 183.051 262.427 187.885Z" fill="#E7E8FF"/>
<path fill-rule="evenodd" clip-rule="evenodd" d="M197.316 161.402C197.316 160.27 198.222 159.353 199.34 159.353H293.299C294.417 159.353 295.323 160.27 295.323 161.402V240.625C295.323 241.757 294.417 242.674 293.299 242.674H199.34C198.222 242.674 197.316 241.757 197.316 240.625V161.402ZM199.34 160.719C198.967 160.719 198.665 161.024 198.665 161.402V240.625C198.665 241.002 198.967 241.308 199.34 241.308H293.299C293.672 241.308 293.974 241.002 293.974 240.625V161.402C293.974 161.024 293.672 160.719 293.299 160.719H199.34Z" fill="#E7E8FF"/>
<path d="M197.991 220.372C197.991 219.955 198.18 219.561 198.503 219.302L227.366 196.149C227.876 195.74 228.601 195.758 229.091 196.191L278.187 239.596C279.126 240.426 278.547 241.991 277.3 241.991H199.34C198.595 241.991 197.991 241.38 197.991 240.625V220.372Z" fill="#E7E8FF"/>
<path fill-rule="evenodd" clip-rule="evenodd" d="M228.647 196.705C228.402 196.489 228.039 196.48 227.785 196.684L198.921 219.837C198.76 219.967 198.665 220.164 198.665 220.372V240.625C198.665 241.002 198.967 241.308 199.34 241.308H277.3C277.923 241.308 278.213 240.526 277.744 240.111L228.647 196.705ZM226.947 195.614C227.712 195 228.8 195.027 229.534 195.676L278.631 239.082C280.039 240.327 279.169 242.674 277.3 242.674H199.34C198.222 242.674 197.316 241.757 197.316 240.625V220.372C197.316 219.747 197.599 219.155 198.083 218.766L226.947 195.614Z" fill="#E7E8FF"/>
<path d="M281.559 307.302L272.341 300.974C271.828 300.622 271.145 300.669 270.683 301.087L263.835 307.302H281.559Z" fill="#032068"/>
<path d="M262.427 284.064C262.427 288.897 258.557 292.816 253.783 292.816C249.009 292.816 245.139 288.897 245.139 284.064C245.139 279.23 249.009 275.311 253.783 275.311C258.557 275.311 262.427 279.23 262.427 284.064Z" fill="#E7E8FF"/>
<path fill-rule="evenodd" clip-rule="evenodd" d="M197.317 257.581C197.317 256.449 198.223 255.532 199.341 255.532H293.3C294.418 255.532 295.324 256.449 295.324 257.581V307.348H293.975V257.581C293.975 257.203 293.673 256.898 293.3 256.898H199.341C198.968 256.898 198.666 257.203 198.666 257.581V307.348H197.317V257.581Z" fill="#E7E8FF"/>
<path d="M246.084 307.348L229.095 292.371C228.603 291.937 227.876 291.922 227.367 292.334L208.811 307.348H246.084Z" fill="#E7E8FF"/>
<path d="M336.742 117.112C336.742 114.595 338.795 112.555 341.327 112.555H464.464C466.996 112.555 469.049 114.595 469.049 117.112V304.009C469.049 306.525 466.996 308.565 464.464 308.565H341.327C338.795 308.565 336.742 306.525 336.742 304.009V117.112Z" fill="white"/>
<path fill-rule="evenodd" clip-rule="evenodd" d="M336.055 117.112C336.055 114.218 338.415 111.872 341.327 111.872H464.464C467.376 111.872 469.736 114.218 469.736 117.112V304.009C469.736 306.902 467.376 309.248 464.464 309.248H341.327C338.415 309.248 336.055 306.902 336.055 304.009V117.112ZM341.327 113.238C339.174 113.238 337.429 114.972 337.429 117.112V304.009C337.429 306.148 339.174 307.882 341.327 307.882H464.464C466.616 307.882 468.362 306.148 468.362 304.009V117.112C468.362 114.972 466.616 113.238 464.464 113.238H341.327Z" fill="#032068"/>
<path d="M336.742 117.112C336.742 114.595 338.795 112.555 341.327 112.555H464.464C466.996 112.555 469.049 114.595 469.049 117.112V140.557H336.742V117.112Z" fill="#032068"/>
<path d="M362.599 126.755C362.599 130.116 359.858 132.841 356.475 132.841C353.093 132.841 350.352 130.116 350.352 126.755C350.352 123.394 353.093 120.669 356.475 120.669C359.858 120.669 362.599 123.394 362.599 126.755Z" fill="white"/>
<path d="M383.014 126.755C383.014 130.116 380.273 132.841 376.89 132.841C373.508 132.841 370.767 130.116 370.767 126.755C370.767 123.394 373.508 120.669 376.89 120.669C380.273 120.669 383.014 123.394 383.014 126.755Z" fill="white"/>
<path d="M403.424 126.755C403.424 130.116 400.682 132.841 397.3 132.841C393.918 132.841 391.176 130.116 391.176 126.755C391.176 123.394 393.918 120.669 397.3 120.669C400.682 120.669 403.424 123.394 403.424 126.755Z" fill="white"/>
<path d="M444.548 211.169C444.548 234.03 425.899 252.562 402.895 252.562C379.891 252.562 361.243 234.03 361.243 211.169C361.243 188.308 379.891 169.775 402.895 169.775C425.899 169.775 444.548 188.308 444.548 211.169Z" fill="#E7E8FF"/>
<path d="M379.619 269.755C379.619 269.001 380.235 268.389 380.994 268.389H426.022C426.781 268.389 427.397 269.001 427.397 269.755V274.328C427.397 275.082 426.781 275.694 426.022 275.694H380.994C380.235 275.694 379.619 275.082 379.619 274.328V269.755Z" fill="#032068"/>
<path d="M409.878 203.841H424.947V216.786H409.878V234.301H395.958V216.786H380.845V203.841H395.958V186.82H409.878V203.841Z" fill="#032068"/>
<path d="M23.125 117.14C23.125 114.608 25.1778 112.555 27.71 112.555H150.847C153.379 112.555 155.432 114.608 155.432 117.14V305.205C155.432 307.738 153.379 309.79 150.847 309.79H27.71C25.1778 309.79 23.125 307.738 23.125 305.205V117.14Z" fill="white"/>
<path fill-rule="evenodd" clip-rule="evenodd" d="M22.4375 117.14C22.4375 114.228 24.798 111.868 27.7097 111.868H150.847C153.758 111.868 156.119 114.228 156.119 117.14V305.205C156.119 308.117 153.758 310.478 150.847 310.478H27.7097C24.798 310.478 22.4375 308.117 22.4375 305.205V117.14ZM27.7097 113.242C25.557 113.242 23.812 114.987 23.812 117.14V305.205C23.812 307.358 25.557 309.103 27.7097 309.103H150.847C152.999 309.103 154.744 307.358 154.744 305.205V117.14C154.744 114.987 152.999 113.242 150.847 113.242H27.7097Z" fill="#032068"/>
<path d="M23.125 117.14C23.125 114.608 25.1778 112.555 27.71 112.555H150.847C153.379 112.555 155.432 114.608 155.432 117.14V140.732H23.125V117.14Z" fill="#032068"/>
<path d="M48.9821 126.844C48.9821 130.226 46.2404 132.968 42.8583 132.968C39.4761 132.968 36.7344 130.226 36.7344 126.844C36.7344 123.462 39.4761 120.72 42.8583 120.72C46.2404 120.72 48.9821 123.462 48.9821 126.844Z" fill="white"/>
<path d="M69.3972 126.844C69.3972 130.226 66.6554 132.968 63.2733 132.968C59.8912 132.968 57.1494 130.226 57.1494 126.844C57.1494 123.462 59.8912 120.72 63.2733 120.72C66.6554 120.72 69.3972 123.462 69.3972 126.844Z" fill="white"/>
<path d="M89.8063 126.844C89.8063 130.226 87.0646 132.968 83.6825 132.968C80.3003 132.968 77.5586 130.226 77.5586 126.844C77.5586 123.462 80.3003 120.72 83.6825 120.72C87.0646 120.72 89.8063 123.462 89.8063 126.844Z" fill="white"/>
<path d="M112.554 178.708C112.554 191.564 102.133 201.985 89.2782 201.985C76.4231 201.985 66.002 191.564 66.002 178.708C66.002 165.853 76.4231 155.432 89.2782 155.432C102.133 155.432 112.554 165.853 112.554 178.708Z" fill="#E7E8FF"/>
<path d="M89.5018 178.989C83.1449 178.989 77.8739 183.708 76.9042 189.883C76.7276 191.008 77.6677 191.937 78.8063 191.937H100.197C101.336 191.937 102.276 191.008 102.099 189.883C101.13 183.708 95.8587 178.989 89.5018 178.989Z" fill="white"/>
<path d="M95.7846 171.373C95.7846 174.738 93.0567 177.466 89.6916 177.466C86.3265 177.466 83.5986 174.738 83.5986 171.373C83.5986 168.008 86.3265 165.28 89.6916 165.28C93.0567 165.28 95.7846 168.008 95.7846 171.373Z" fill="white"/>
<path d="M64.7773 216.835C64.7773 216.076 65.3927 215.46 66.1518 215.46H111.18C111.939 215.46 112.555 216.076 112.555 216.835V221.436C112.555 222.195 111.939 222.811 111.18 222.811H66.1518C65.3927 222.811 64.7773 222.195 64.7773 221.436V216.835Z" fill="#032068"/>
<path d="M37.8262 243.786C37.8262 243.027 38.4415 242.412 39.2006 242.412H65.8532C66.6123 242.412 67.2277 243.027 67.2277 243.786V271.664C67.2277 272.423 66.6123 273.038 65.8532 273.038H39.2006C38.4415 273.038 37.8262 272.423 37.8262 271.664V243.786Z" fill="#E7E8FF"/>
<path d="M74.5781 243.786C74.5781 243.027 75.1935 242.412 75.9526 242.412H102.605C103.364 242.412 103.98 243.027 103.98 243.786V271.664C103.98 272.423 103.364 273.038 102.605 273.038H75.9526C75.1935 273.038 74.5781 272.423 74.5781 271.664V243.786Z" fill="#E7E8FF"/>
<path d="M111.33 243.786C111.33 243.027 111.945 242.412 112.705 242.412H139.357C140.116 242.412 140.732 243.027 140.732 243.786V271.664C140.732 272.423 140.116 273.038 139.357 273.038H112.705C111.945 273.038 111.33 272.423 111.33 271.664V243.786Z" fill="#E7E8FF"/>
<path d="M37.8262 289.114C37.8262 288.355 38.4415 287.74 39.2006 287.74H65.8532C66.6123 287.74 67.2277 288.355 67.2277 289.114V308.566H37.8262V289.114Z" fill="#E7E8FF"/>
<path d="M74.5781 289.114C74.5781 288.355 75.1935 287.739 75.9526 287.739H102.605C103.364 287.739 103.98 288.355 103.98 289.114V308.565H74.5781V289.114Z" fill="#E7E8FF"/>
<path d="M111.33 289.114C111.33 288.355 111.945 287.739 112.705 287.739H139.357C140.116 287.739 140.732 288.355 140.732 289.114V308.565H111.33V289.114Z" fill="#E7E8FF"/>
<path d="M130.931 259.563H168.295M168.295 259.563V219.685C168.295 218.029 169.638 216.685 171.295 216.685H179.933M168.295 259.563V328.229C168.295 329.886 169.638 331.229 171.295 331.229H399.282C400.939 331.229 402.282 329.886 402.282 328.229V311.015" stroke="#032068" stroke-width="2"/>
<path d="M184.256 284.843C184.256 287.417 188.207 291.582 189.494 292.869L178.549 300.59C178.549 299.732 177.39 297.373 172.755 294.799C166.961 291.582 163.098 289.651 161.81 283.86C160.522 278.069 164.385 271.956 168.248 272.921C173.399 274.208 177.905 281.93 178.549 279.356C179.064 277.296 178.068 275.632 177.854 274.345C178.283 273.916 178.771 271.12 181.346 273.179C184.565 275.753 184.256 281.626 184.256 284.843Z" fill="white"/>
<path fill-rule="evenodd" clip-rule="evenodd" d="M179.723 273.45C179.838 273.456 180.15 273.527 180.711 273.975C182.014 275.018 182.688 276.807 183.001 278.919C183.264 280.69 183.252 282.514 183.242 284.036C183.24 284.316 183.238 284.586 183.238 284.843C183.238 285.722 183.567 286.635 183.985 287.463C184.413 288.309 184.985 289.164 185.58 289.953C186.379 291.013 187.249 291.993 187.934 292.722L179.074 298.973C178.848 298.559 178.544 298.122 178.163 297.676C177.198 296.544 175.645 295.239 173.247 293.907C173.065 293.806 172.884 293.706 172.706 293.607C167.156 290.53 163.938 288.746 162.803 283.638C162.219 281.016 162.806 278.307 163.967 276.385C165.163 274.405 166.717 273.589 168.002 273.91C169.103 274.185 170.225 274.821 171.331 275.648C172.433 276.472 173.459 277.437 174.386 278.324C174.458 278.392 174.529 278.461 174.601 278.529C175.409 279.303 176.201 280.062 176.842 280.475C177.156 280.677 177.696 280.978 178.3 280.876C179.088 280.744 179.415 280.084 179.536 279.603C179.85 278.348 179.694 277.232 179.461 276.31C179.363 275.926 179.247 275.558 179.147 275.24C179.129 275.184 179.112 275.129 179.096 275.076C179.032 274.871 178.978 274.693 178.936 274.534C178.972 274.464 179.016 274.374 179.056 274.293C179.082 274.239 179.107 274.19 179.126 274.152C179.267 273.873 179.388 273.676 179.512 273.552C179.608 273.456 179.659 273.447 179.723 273.45ZM177.091 273.667C177.098 273.655 177.108 273.637 177.12 273.614C177.152 273.553 177.177 273.501 177.209 273.437C177.236 273.382 177.267 273.318 177.31 273.233C177.462 272.931 177.704 272.477 178.078 272.106C178.479 271.706 179.06 271.376 179.824 271.414C180.539 271.449 181.254 271.801 181.98 272.382C183.896 273.914 184.677 276.348 185.014 278.62C185.302 280.562 185.288 282.568 185.277 284.084C185.275 284.354 185.273 284.608 185.273 284.843C185.273 285.251 185.438 285.824 185.8 286.541C186.154 287.24 186.649 287.989 187.203 288.724C188.311 290.193 189.582 291.517 190.212 292.147L191.069 293.004L177.531 302.555V300.59C177.531 300.591 177.531 300.59 177.531 300.59C177.531 300.587 177.529 300.547 177.508 300.466C177.485 300.381 177.444 300.267 177.376 300.123C177.24 299.835 177.003 299.454 176.617 299.001C175.844 298.095 174.499 296.933 172.261 295.691C171.998 295.544 171.737 295.4 171.479 295.258C166.161 292.317 162.155 290.101 160.817 284.082C160.112 280.913 160.813 277.67 162.227 275.329C163.606 273.045 165.916 271.287 168.494 271.932C169.968 272.3 171.34 273.111 172.548 274.014C173.76 274.92 174.866 275.965 175.79 276.848C175.831 276.887 175.871 276.925 175.91 276.963C176.647 277.668 177.219 278.214 177.658 278.556C177.718 277.957 177.634 277.385 177.489 276.812C177.407 276.489 177.311 276.184 177.21 275.865C177.192 275.806 177.173 275.746 177.154 275.686C177.04 275.32 176.917 274.913 176.85 274.513L176.763 273.995L177.091 273.667Z" fill="#032068"/>
<path d="M324.848 262.273L327.765 277.473C326.404 279.032 322.048 282.267 315.514 282.735C308.979 283.203 303.067 280.202 300.928 278.643L302.678 264.611C292.76 259.35 296.261 239.472 300.928 232.457C305.596 225.441 324.848 224.272 329.516 240.641C333.249 253.737 327.96 260.519 324.848 262.273Z" fill="white"/>
<path fill-rule="evenodd" clip-rule="evenodd" d="M315.075 228.788C320.711 229.615 326.327 233.171 328.537 240.922C332.168 253.654 326.974 259.905 324.349 261.384L323.711 261.744L326.668 277.152C325.151 278.638 321.206 281.306 315.441 281.718C309.664 282.132 304.356 279.68 302.015 278.154L303.775 264.04L303.154 263.71C298.749 261.374 297.134 255.655 297.351 249.226C297.565 242.86 299.571 236.334 301.775 233.022C302.777 231.515 304.632 230.236 307.027 229.442C309.409 228.652 312.239 228.372 315.075 228.788ZM306.388 227.506C303.715 228.392 301.413 229.89 300.082 231.891C297.618 235.595 295.54 242.516 295.317 249.157C295.104 255.484 296.57 262.062 301.585 265.159L299.844 279.113L300.33 279.467C302.596 281.118 308.741 284.242 315.586 283.752C322.403 283.264 327.003 279.894 328.531 278.145L328.858 277.77L325.978 262.763C329.53 260.279 334.112 253.053 330.494 240.361C328.036 231.742 321.693 227.698 315.369 226.771C312.225 226.31 309.075 226.615 306.388 227.506Z" fill="#032068"/>
<path d="M363.994 288.595C347.659 271.758 327.822 272.226 309.153 272.226C268.314 272.226 239.727 312.565 231.559 311.981C223.391 311.396 191.886 286.257 188.969 286.257C186.052 286.257 170.3 297.365 170.884 305.55C171.467 313.735 204.138 364.013 215.223 368.69C224.091 372.432 243.811 367.131 252.562 364.013C251.784 383.306 251.162 423.178 254.895 428.323C259.563 434.754 264.814 437.093 293.984 440.016C319.786 442.601 363.845 438.783 376.1 435.844C381.133 434.903 381.246 405.318 380.674 390.643C395.771 390.643 396.459 372.89 394.915 364.013C394.332 353.49 384.414 309.642 363.994 288.595Z" fill="white"/>
<path fill-rule="evenodd" clip-rule="evenodd" d="M310.72 271.205C310.197 271.206 309.674 271.206 309.153 271.206C288.4 271.206 270.822 281.453 257.493 291.508C252.629 295.176 248.299 298.846 244.59 301.989C243.219 303.15 241.934 304.239 240.738 305.23C238.507 307.078 236.602 308.57 235.017 309.58C234.226 310.084 233.541 310.451 232.955 310.682C232.363 310.915 231.933 310.985 231.632 310.964C230.798 310.904 229.549 310.512 227.921 309.778C226.319 309.056 224.442 308.046 222.384 306.835C218.269 304.416 213.498 301.235 208.87 298.058C206.789 296.63 204.729 295.196 202.774 293.836C200.403 292.186 198.188 290.645 196.276 289.349C194.528 288.164 193.005 287.166 191.822 286.462C191.232 286.11 190.707 285.821 190.27 285.616C190.052 285.514 189.839 285.425 189.641 285.36C189.457 285.3 189.219 285.237 188.97 285.237C188.369 285.237 187.631 285.497 186.913 285.82C186.151 286.164 185.258 286.654 184.294 287.254C182.365 288.456 180.093 290.136 177.935 292.075C175.78 294.011 173.708 296.232 172.204 298.522C170.713 300.791 169.7 303.25 169.869 305.622C169.956 306.847 170.607 308.68 171.574 310.838C172.561 313.043 173.944 315.726 175.612 318.709C178.947 324.677 183.448 331.901 188.274 339.009C193.1 346.116 198.263 353.125 202.923 358.66C205.253 361.426 207.469 363.838 209.463 365.714C211.437 367.569 213.269 368.972 214.829 369.63C217.229 370.643 220.282 371.016 223.574 370.996C226.882 370.976 230.511 370.558 234.111 369.928C240.586 368.796 247.04 366.966 251.487 365.464C251.122 375.113 250.816 389.097 251.02 401.49C251.127 408.012 251.375 414.112 251.834 418.914C252.063 421.314 252.346 423.41 252.696 425.083C253.035 426.708 253.467 428.087 254.073 428.923C255.278 430.584 256.554 432.024 258.272 433.277C259.987 434.527 262.099 435.556 264.945 436.457C270.602 438.247 279.308 439.57 293.883 441.03C306.866 442.331 324.396 442.019 340.186 441.019C355.945 440.021 370.085 438.331 376.316 436.841C377.411 436.623 378.153 435.692 378.667 434.706C379.21 433.664 379.648 432.276 380.011 430.674C380.739 427.458 381.211 423.149 381.505 418.458C382.067 409.492 381.987 398.971 381.729 391.634C385.216 391.444 387.985 390.307 390.136 388.514C392.485 386.557 394.025 383.878 394.999 380.983C396.93 375.241 396.708 368.431 395.928 363.897C395.613 358.466 392.958 344.821 387.856 329.92C382.736 314.968 375.092 298.572 364.724 287.885C348.514 271.176 328.89 271.191 310.72 271.205ZM310.529 273.244C328.835 273.234 347.662 273.224 363.265 289.306C373.316 299.666 380.842 315.717 385.931 330.581C391.02 345.442 393.615 358.937 393.9 364.07L393.903 364.129L393.913 364.188C394.668 368.531 394.864 375.002 393.071 380.331C392.179 382.984 390.813 385.298 388.835 386.947C386.872 388.583 384.235 389.624 380.675 389.624H379.617L379.658 390.683C379.943 398.001 380.057 409.029 379.474 418.33C379.182 422.988 378.718 427.168 378.027 430.223C377.68 431.756 377.288 432.948 376.864 433.762C376.415 434.623 376.061 434.815 375.914 434.842L375.889 434.847L375.864 434.853C369.828 436.3 355.825 437.986 340.058 438.984C324.305 439.982 306.905 440.286 294.086 439.001C279.49 437.539 270.986 436.23 265.558 434.513C262.861 433.659 260.962 432.716 259.469 431.628C257.978 430.541 256.847 429.278 255.718 427.723C255.391 427.273 255.025 426.281 254.687 424.665C254.359 423.097 254.085 421.084 253.859 418.72C253.408 413.996 253.161 407.958 253.054 401.457C252.841 388.459 253.19 373.689 253.579 364.054L253.639 362.547L252.221 363.053C247.888 364.596 240.827 366.684 233.762 367.92C230.229 368.538 226.719 368.938 223.562 368.957C220.389 368.976 217.652 368.609 215.618 367.751C214.407 367.24 212.793 366.048 210.856 364.227C208.939 362.425 206.78 360.078 204.478 357.345C199.877 351.881 194.758 344.933 189.957 337.862C185.156 330.792 180.688 323.619 177.387 317.713C175.736 314.758 174.384 312.133 173.43 310.003C172.455 307.827 171.957 306.298 171.899 305.477C171.776 303.757 172.513 301.758 173.903 299.643C175.28 297.548 177.218 295.457 179.293 293.593C181.365 291.732 183.542 290.123 185.368 288.986C186.282 288.417 187.093 287.975 187.749 287.68C188.401 287.385 188.786 287.289 188.94 287.278C188.953 287.281 188.976 287.287 189.01 287.298C189.102 287.328 189.233 287.381 189.408 287.463C189.757 287.626 190.216 287.877 190.783 288.215C191.912 288.887 193.394 289.857 195.136 291.038C197.048 292.334 199.239 293.859 201.594 295.497C203.546 296.856 205.61 298.292 207.72 299.741C212.354 302.922 217.174 306.136 221.354 308.594C223.444 309.823 225.391 310.873 227.086 311.637C228.756 312.39 230.278 312.911 231.487 312.998C232.206 313.049 232.956 312.873 233.7 312.579C234.451 312.283 235.257 311.843 236.109 311.301C237.81 310.217 239.798 308.653 242.034 306.801C243.259 305.787 244.563 304.682 245.945 303.511C249.643 300.377 253.903 296.768 258.716 293.137C271.932 283.168 289.068 273.245 309.153 273.245C309.612 273.245 310.07 273.245 310.529 273.244Z" fill="#032068"/>
<path d="M202.971 356.997C223.507 355.126 239.143 362.454 244.394 366.351C239.143 368.105 226.541 371.262 218.14 369.859C209.739 368.456 204.527 360.7 202.971 356.997Z" fill="#032068"/>
<path d="M373.813 324.744C377.473 339.872 379.913 374.98 380.675 390.643H384.106C381.819 360.272 376.863 334.103 373.813 324.744Z" fill="#032068"/>
<path d="M282.318 345.889C275.784 352.437 259.76 360.7 252.564 364.013V372.198C259.098 369.859 275.123 353.685 282.318 345.889Z" fill="#032068"/>
<path d="M395.545 371.16C390.97 372.306 381.592 377.807 380.677 390.643C385.252 391.025 394.973 390.07 395.545 371.16Z" fill="#032068"/>
<path d="M335.073 231.048C331.186 224.556 323.375 221.129 319.956 220.228C299.978 214.817 292.96 231.048 295.66 235.377C298.36 239.705 296.2 244.034 298.899 248.903C301.599 253.772 301.599 257.56 298.899 265.676C296.2 273.791 297.28 279.743 298.899 284.612C300.519 289.482 296.2 293.269 298.899 300.844C301.599 308.418 312.937 307.336 318.337 304.631C323.736 301.926 330.753 310.583 339.933 308.959C349.112 307.336 352.35 299.762 348.031 291.105C343.713 282.448 346.412 284.612 348.031 277.038C349.651 269.463 344.252 265.676 339.933 258.101C335.613 250.526 339.933 239.164 335.073 231.048Z" fill="#032068"/>
</svg>
