<?xml version="1.0" encoding="UTF-8"?>
<svg id="Layer_2" data-name="Layer 2" xmlns="http://www.w3.org/2000/svg" viewBox="0 0 456.28 261.04">
  <defs>
    <style>
      .cls-1 {
        fill: #f9d1b7;
      }

      .cls-2 {
        fill: #f8d11d;
      }

      .cls-3 {
        fill: #00adae;
      }

      .cls-4 {
        fill: #00b1c9;
      }

      .cls-5 {
        fill: #6b251f;
      }

      .cls-6, .cls-7 {
        fill: #007c79;
      }

      .cls-8 {
        fill: #e6ebf4;
      }

      .cls-9 {
        fill: #e9ffa4;
      }

      .cls-10 {
        fill: #eabd00;
      }

      .cls-11 {
        fill: #e9def7;
      }

      .cls-12 {
        fill: #edf1f7;
      }

      .cls-13 {
        fill: #ffa402;
      }

      .cls-14, .cls-15, .cls-16, .cls-17 {
        fill: #fff;
      }

      .cls-18 {
        fill: #fffae6;
      }

      .cls-19 {
        fill: #fff4ee;
      }

      .cls-20 {
        fill: #ffe576;
      }

      .cls-21 {
        fill: #e4f0f9;
      }

      .cls-22, .cls-23 {
        fill: #feb06d;
      }

      .cls-24, .cls-25 {
        fill: #7d8bb6;
      }

      .cls-26 {
        fill: #738e02;
      }

      .cls-27 {
        fill: #71f4ea;
      }

      .cls-28 {
        fill: #9797c4;
      }

      .cls-29, .cls-30 {
        fill: #939caa;
      }

      .cls-31 {
        fill: #91423c;
      }

      .cls-32 {
        fill: #bc310c;
      }

      .cls-33 {
        fill: #ced3db;
      }

      .cls-34 {
        fill: #ccfffa;
      }

      .cls-35 {
        fill: #a9b6c9;
      }

      .cls-36 {
        fill: #a4cf3a;
      }

      .cls-37 {
        fill: #bebddf;
      }

      .cls-38, .cls-39, .cls-40 {
        fill: #d84a19;
      }

      .cls-41 {
        fill: #d2fffb;
      }

      .cls-42 {
        fill: #af8d00;
      }

      .cls-43, .cls-44 {
        fill: #253956;
      }

      .cls-45 {
        fill: #1fc8cc;
      }

      .cls-46 {
        fill: #172230;
      }

      .cls-47 {
        fill: #06bcc1;
      }

      .cls-48 {
        fill: #414a51;
      }

      .cls-49 {
        fill: #41ecf9;
      }

      .cls-50 {
        fill: #0cdfef;
      }

      .cls-51 {
        fill: #354c70;
      }

      .cls-52 {
        fill: #95a5ce;
      }

      .cls-53, .cls-54, .cls-55 {
        fill: #88b206;
      }

      .cls-56, .cls-57 {
        fill: #6e7984;
      }

      .cls-58 {
        fill: #2a3f5e;
      }

      .cls-59 {
        fill: #2d353a;
      }

      .cls-60 {
        fill: #48d5cf;
      }

      .cls-61 {
        fill: #57636d;
      }

      .cls-62 {
        fill: #769103;
      }

      .cls-63, .cls-39, .cls-54, .cls-30, .cls-15, .cls-7, .cls-44, .cls-23, .cls-16, .cls-64, .cls-17, .cls-25, .cls-57, .cls-40, .cls-55 {
        isolation: isolate;
      }

      .cls-63, .cls-54 {
        opacity: .65;
      }

      .cls-63, .cls-64 {
        fill: #f7f7f7;
      }

      .cls-39, .cls-65 {
        opacity: .66;
      }

      .cls-30, .cls-66 {
        opacity: .36;
      }

      .cls-15, .cls-67 {
        opacity: .55;
      }

      .cls-7 {
        opacity: .52;
      }

      .cls-44 {
        opacity: .54;
      }

      .cls-23, .cls-16 {
        opacity: .62;
      }

      .cls-64, .cls-68 {
        opacity: .44;
      }

      .cls-17 {
        opacity: .43;
      }

      .cls-25 {
        opacity: .45;
      }

      .cls-57, .cls-40 {
        opacity: .39;
      }

      .cls-55, .cls-69 {
        opacity: .42;
      }

      .cls-70 {
        opacity: .51;
      }

      .cls-71 {
        opacity: .48;
      }
    </style>
  </defs>
  <g id="Layer_1-2" data-name="Layer 1">
    <g id="Layer_2-2" data-name="Layer 2">
      <g id="Layer_2-2" data-name="Layer 2-2">
        <path class="cls-21" d="M192.8,72h-1.44c-.9-4.47-5.25-7.36-9.72-6.46-.72,.15-1.43,.39-2.08,.72-4.04-6.23-12.37-7.99-18.59-3.95-.33,.22-.66,.45-.97,.69-5.8-7.55-16.63-8.96-24.18-3.16-3.82,2.94-6.24,7.35-6.66,12.16h-.16c-1.57,0-2.84,1.27-2.84,2.84h0c.03,1.55,1.29,2.79,2.84,2.79h63.8c1.57,0,2.84-1.27,2.84-2.84h0c-.03-1.55-1.29-2.79-2.84-2.79Z"/>
        <circle class="cls-21" cx="162.57" cy="54.46" r="2.99"/>
        <circle class="cls-21" cx="181.95" cy="58.4" r="2.36"/>
        <polygon class="cls-60" points="114.32 237.14 64.14 237.14 64.14 202.79 89.41 174.92 114.32 202.79 114.32 237.14"/>
        <rect class="cls-25" x="64.13" y="233.09" width="50.18" height="4.05"/>
        <polygon class="cls-3" points="80.49 237.14 30.31 237.14 30.31 202.79 55.59 174.92 80.49 202.79 80.49 237.14"/>
        <path class="cls-6" d="M84.6,211.98h5.29c.47,0,.86,.39,.86,.86h0c0,.47-.39,.86-.86,.86h-5.29c-.47,0-.86-.39-.86-.86h0c0-.47,.39-.86,.86-.86Z"/>
        <path class="cls-6" d="M84,232.41h5.29c.47,0,.86,.39,.86,.86h0c0,.47-.39,.86-.86,.86h-5.29c-.47,0-.86-.39-.86-.86h0c0-.47,.39-.86,.86-.86Z"/>
        <path class="cls-6" d="M35.33,225.21h5.29c.47,0,.86,.39,.86,.86h0c0,.47-.39,.86-.86,.86h-5.29c-.47,0-.86-.39-.86-.86h0c0-.47,.39-.86,.86-.86Z"/>
        <path class="cls-6" d="M38.82,223.49h5.29c.47,0,.86,.39,.86,.86h0c0,.47-.39,.86-.86,.86h-5.29c-.47,0-.86-.39-.86-.86h0c0-.47,.39-.86,.86-.86Z"/>
        <path class="cls-6" d="M35.51,221.94h5.29c.47,0,.86,.39,.86,.86h0c0,.47-.39,.86-.86,.86h-5.29c-.47,0-.86-.39-.86-.86h0c0-.47,.39-.86,.86-.86Z"/>
        <path class="cls-6" d="M65.91,233.66h5.29c.47,0,.86,.39,.86,.86h0c0,.47-.39,.86-.86,.86h-5.29c-.47,0-.86-.39-.86-.86h0c0-.47,.39-.86,.86-.86Z"/>
        <path class="cls-6" d="M72.4,217.61h5.29c.47,0,.86,.39,.86,.86h0c0,.47-.39,.86-.86,.86h-5.29c-.47,0-.86-.39-.86-.86h0c0-.47,.39-.86,.86-.86Z"/>
        <rect class="cls-6" x="56.13" y="192.03" width="5.41" height="1.33" rx=".66" ry=".66"/>
        <rect class="cls-6" x="58.24" y="193.37" width="5.41" height="1.33" rx=".66" ry=".66"/>
        <rect class="cls-6" x="34.3" y="210.76" width="5.41" height="1.33" rx=".66" ry=".66"/>
        <rect class="cls-6" x="36.41" y="212.1" width="5.41" height="1.33" rx=".66" ry=".66"/>
        <g class="cls-70">
          <rect class="cls-6" x="106.27" y="223.26" width="5" height="1.23" rx=".61" ry=".61"/>
          <rect class="cls-6" x="104.13" y="224.49" width="5" height="1.23" rx=".61" ry=".61"/>
          <rect class="cls-6" x="106.27" y="225.72" width="5" height="1.23" rx=".61" ry=".61"/>
        </g>
        <polygon class="cls-51" points="55.59 174.92 90.07 174.92 114.98 202.79 80.51 202.79 55.59 174.92"/>
        <path class="cls-3" d="M32.82,206.39c-.91,0-1.64-.75-1.64-1.66,0-.41,.16-.81,.44-1.11l24.16-25.62c.59-.69,1.64-.77,2.33-.18,.69,.59,.77,1.64,.18,2.33-.03,.04-.07,.07-.1,.11l-24.18,25.61c-.3,.33-.73,.52-1.18,.52Z"/>
        <path class="cls-3" d="M81.05,209.37c-.46,0-.91-.2-1.22-.54l-26.2-28.62c-.68-.61-.73-1.66-.11-2.33s1.66-.73,2.33-.11c.08,.07,.15,.15,.21,.24l26.2,28.62c.61,.67,.56,1.72-.11,2.33-.3,.27-.69,.43-1.1,.43h0Z"/>
        <rect class="cls-22" x="88.19" y="157.92" width="8.96" height="28.4"/>
        <polygon class="cls-38" points="88.19 186.31 82.75 180.23 82.74 157.92 88.19 157.92 88.19 186.31"/>
        <path class="cls-3" d="M78.62,202.8h35.93v5.39h-30.7c-2.87,0-5.21-2.32-5.23-5.19v-.2Z"/>
        <path class="cls-43" d="M81.61,205.32c-.46,0-.91-.2-1.22-.54l-24.17-26.43-24.54,26.44c-.62,.67-1.65,.71-2.32,.09-.67-.62-.71-1.65-.09-2.32l25.73-27.75c.31-.34,.75-.53,1.21-.53h0c.46,0,.9,.2,1.21,.54l25.38,27.74c.62,.66,.58,1.7-.08,2.32-.31,.29-.71,.45-1.13,.44h.02Z"/>
        <path class="cls-38" d="M89.73,182.16h3.34c.45,0,.81,.36,.81,.8h0c0,.44-.36,.81-.81,.81h-3.34c-.45,0-.81-.36-.81-.8h0c0-.44,.36-.81,.81-.81Z"/>
        <path class="cls-38" d="M92.92,179.81h2.21c.29,0,.53,.24,.53,.53h0c0,.29-.24,.53-.53,.53h-2.21c-.29,0-.53-.24-.53-.53h0c0-.29,.24-.53,.53-.53Z"/>
        <path class="cls-38" d="M89.93,161.96h2.21c.29,0,.53,.24,.53,.53h0c0,.29-.24,.53-.53,.53h-2.21c-.29,0-.53-.24-.53-.53h0c0-.29,.24-.53,.53-.53Z"/>
        <path class="cls-32" d="M83.98,165.86h2.21c.29,0,.53,.24,.53,.53h0c0,.29-.24,.53-.53,.53h-2.21c-.29,0-.53-.24-.53-.53h0c0-.29,.24-.53,.53-.53Z"/>
        <path class="cls-32" d="M83.79,177.7h2.21c.29,0,.53,.24,.53,.53h0c0,.29-.24,.53-.53,.53h-2.21c-.29,0-.53-.24-.53-.53h0c0-.29,.24-.53,.53-.53Z"/>
        <path class="cls-43" d="M115.65,205.88h-35.82c-.91-.07-1.59-.86-1.52-1.77,.06-.81,.71-1.45,1.52-1.52h35.82c.91,.07,1.59,.86,1.52,1.77-.06,.81-.71,1.45-1.52,1.52Z"/>
        <path class="cls-24" d="M82,238.68H27.79c-.55,0-1-.45-1-1s.45-1,1-1h54.21c.55,0,1,.45,1,1s-.45,1-1,1Z"/>
        <path class="cls-52" d="M116.74,238.68h-36.8c-.55,0-1-.45-1-1s.45-1,1-1h36.8c.55,0,1,.45,1,1s-.45,1-1,1Z"/>
        <rect class="cls-44" x="83.46" y="196.66" width="6.32" height="1.86" rx=".93" ry=".93"/>
        <rect class="cls-44" x="86.81" y="193.97" width="6.32" height="1.86" rx=".93" ry=".93"/>
        <rect class="cls-44" x="75.19" y="182.72" width="6.32" height="1.86" rx=".93" ry=".93"/>
        <rect class="cls-44" x="64.97" y="177.24" width="6.32" height="1.86" rx=".93" ry=".93"/>
        <rect class="cls-44" x="102.33" y="198.43" width="6.32" height="1.86" rx=".93" ry=".93"/>
        <rect class="cls-14" x="109.55" y="210.7" width="1.73" height="9.17" rx=".86" ry=".86"/>
        <circle class="cls-32" cx="84.09" cy="172.23" r=".68"/>
        <circle class="cls-32" cx="85.76" cy="175.63" r=".25"/>
        <path class="cls-1" d="M95.39,172.62c-.36,0-.65-.29-.65-.65,0,0,0,0,0-.01v-10.11c-.04-.36,.21-.69,.57-.74,.36-.04,.69,.21,.74,.57,0,.05,0,.11,0,.16v10.15c-.02,.35-.31,.63-.66,.62Z"/>
        <path class="cls-1" d="M95.39,177.79c-.36,0-.65-.3-.65-.66v-2.26c-.04-.36,.21-.69,.57-.74,.36-.04,.69,.21,.74,.57,0,.05,0,.11,0,.16v2.26c0,.36-.3,.66-.66,.66Z"/>
        <path class="cls-19" d="M95.39,169.76c-.36,0-.65-.3-.65-.66v-4.93c-.04-.36,.21-.69,.57-.74,.36-.04,.69,.21,.74,.57,0,.05,0,.11,0,.16v4.93c0,.36-.3,.66-.66,.66Z"/>
        <rect class="cls-14" x="46.42" y="198.75" width="17.35" height="19.09"/>
        <rect class="cls-7" x="44.22" y="218.9" width="21.18" height="1.91"/>
        <rect class="cls-51" x="44.22" y="217.84" width="21.18" height="1.05"/>
        <rect class="cls-4" x="47.57" y="200.02" width="15.04" height="16.55"/>
        <polygon class="cls-50" points="55.37 216.57 54.15 216.57 57.45 200.02 58.67 200.02 55.37 216.57"/>
        <polygon class="cls-50" points="52.74 216.57 50.2 216.57 53.49 200.02 56.03 200.02 52.74 216.57"/>
        <path class="cls-51" d="M81.42,155.78h17.46c.61,0,1.11,.5,1.11,1.11h0c0,.61-.5,1.11-1.11,1.11h-17.46c-.61,0-1.11-.5-1.11-1.11h0c0-.61,.5-1.11,1.11-1.11Z"/>
        <rect class="cls-39" x="82.75" y="158" width="14.4" height="1.32"/>
        <rect class="cls-56" x="141.33" y="49.09" width="1.42" height="30.91"/>
        <polygon class="cls-33" points="158.24 238.2 126.81 238.2 126.81 74.05 141.9 60.23 158.24 74.05 158.24 238.2"/>
        <polygon class="cls-35" points="158.24 238.2 126.81 238.2 142 237.65 141.9 60.23 158.24 74.05 158.24 238.2"/>
        <rect class="cls-56" x="121.23" y="82.45" width="20.71" height="149.08"/>
        <rect class="cls-14" x="154.63" y="166.21" width="6.25" height="6.4"/>
        <rect class="cls-14" x="146.37" y="166.21" width="6.25" height="6.4"/>
        <rect class="cls-33" x="141.94" y="82.45" width="20.71" height="149.08"/>
        <rect class="cls-14" x="153.29" y="84.89" width="6.25" height="6.4"/>
        <rect class="cls-14" x="145.03" y="84.89" width="6.25" height="6.4"/>
        <rect class="cls-14" x="145.03" y="95.06" width="6.25" height="6.4"/>
        <rect class="cls-14" x="153.29" y="105.22" width="6.25" height="6.4"/>
        <rect class="cls-14" x="153.29" y="115.39" width="6.25" height="6.4"/>
        <rect class="cls-14" x="145.03" y="125.55" width="6.25" height="6.4"/>
        <rect class="cls-14" x="153.29" y="135.72" width="6.25" height="6.4"/>
        <rect class="cls-14" x="145.03" y="135.72" width="6.25" height="6.4"/>
        <rect class="cls-14" x="145.03" y="156.05" width="6.25" height="6.4"/>
        <rect class="cls-14" x="153.29" y="145.88" width="6.25" height="6.4"/>
        <rect class="cls-17" x="153.29" y="95.06" width="6.25" height="6.4"/>
        <rect class="cls-17" x="145.03" y="105.22" width="6.25" height="6.4"/>
        <rect class="cls-17" x="145.03" y="115.39" width="6.25" height="6.4"/>
        <rect class="cls-17" x="153.29" y="125.55" width="6.25" height="6.4"/>
        <rect class="cls-17" x="153.29" y="156.05" width="6.25" height="6.4"/>
        <rect class="cls-17" x="145.03" y="145.88" width="6.25" height="6.4"/>
        <g class="cls-65">
          <rect class="cls-14" x="132.59" y="84.89" width="6.25" height="6.4"/>
          <rect class="cls-14" x="124.33" y="84.89" width="6.25" height="6.4"/>
          <rect class="cls-14" x="132.59" y="95.06" width="6.25" height="6.4"/>
          <rect class="cls-14" x="124.33" y="95.06" width="6.25" height="6.4"/>
          <rect class="cls-14" x="132.59" y="105.22" width="6.25" height="6.4"/>
          <rect class="cls-14" x="124.33" y="105.22" width="6.25" height="6.4"/>
          <rect class="cls-14" x="132.59" y="115.39" width="6.25" height="6.4"/>
          <rect class="cls-14" x="124.33" y="115.39" width="6.25" height="6.4"/>
          <rect class="cls-14" x="132.59" y="125.55" width="6.25" height="6.4"/>
          <rect class="cls-14" x="124.33" y="125.55" width="6.25" height="6.4"/>
          <rect class="cls-14" x="132.59" y="135.72" width="6.25" height="6.4"/>
          <rect class="cls-14" x="124.33" y="135.72" width="6.25" height="6.4"/>
          <rect class="cls-14" x="132.59" y="166.21" width="6.25" height="6.4"/>
          <rect class="cls-14" x="124.33" y="166.21" width="6.25" height="6.4"/>
          <rect class="cls-14" x="132.59" y="156.05" width="6.25" height="6.4"/>
          <rect class="cls-14" x="124.33" y="156.05" width="6.25" height="6.4"/>
          <rect class="cls-14" x="132.59" y="145.88" width="6.25" height="6.4"/>
          <rect class="cls-14" x="124.33" y="145.88" width="6.25" height="6.4"/>
        </g>
        <rect class="cls-12" x="236.77" y="67.39" width="29.36" height="15.81"/>
        <rect class="cls-56" x="190.47" y="3.76" width="4.89" height="44.05"/>
        <rect class="cls-48" x="191.97" width="1.88" height="44.05"/>
        <path class="cls-26" d="M122.13,240.87h-38.23c0-14.11,11.43-25.54,25.54-25.54h12.69v25.54h0Z"/>
        <path class="cls-53" d="M98.85,220.26l-1.9,.9h0l-2.81-5.95c-.25-.52-.02-1.15,.5-1.4h0c.52-.25,1.15-.02,1.4,.5l2.83,6h0l-.02-.05Z"/>
        <path class="cls-53" d="M96.1,221.57l-1.17,.55h0l-1.74-3.68c-.15-.32-.01-.71,.31-.87h0c.32-.15,.71-.01,.87,.31l1.74,3.68h0Z"/>
        <path class="cls-62" d="M97.54,220.88l-1.01,.48h0l-1.5-3.18c-.13-.28-.01-.61,.27-.75h0c.28-.13,.61-.01,.75,.27l1.5,3.18h0Z"/>
        <path class="cls-62" d="M100.86,219.32l-.99,.47h0l-1.5-3.18c-.13-.28-.01-.61,.27-.75h0c.28-.13,.61-.01,.75,.27l1.5,3.18h-.03Z"/>
        <path class="cls-9" d="M108.66,217.04l-1.86,.02h0l-.06-5.86c0-.51,.41-.93,.92-.94h0c.51,0,.93,.41,.94,.92l.06,5.86h0Z"/>
        <path class="cls-9" d="M105.98,217.06h-1.17s-.04-3.59-.04-3.59c0-.31,.25-.57,.56-.58h0c.31,0,.57,.25,.58,.56h0l.04,3.6h.03Z"/>
        <path class="cls-62" d="M107.37,217.06h-1s-.03-3.1-.03-3.1c0-.27,.21-.49,.48-.5h0c.27,0,.49,.21,.5,.48h0l.03,3.11h.02Z"/>
        <path class="cls-62" d="M110.62,217.02h-1s-.03-3.1-.03-3.1c0-.27,.21-.49,.48-.5h0c.27,0,.49,.21,.5,.48h0l.03,3.11h.02Z"/>
        <path class="cls-60" d="M331.5,247l115.62-6.73c-1.26-.84-22.31-28.79-32-42.72-2.54-3.65-7.56-4.56-11.22-2.01-.34,.24-.67,.5-.97,.79h0c-3.31,3.17-6.1,2.94-9.13-.51l-12.8-14.67c-2.93-3.35-8.03-3.68-11.37-.75-.15,.13-.29,.26-.43,.4l-39.4,39.94v-4.27"/>
        <path class="cls-3" d="M286.92,158.88l-76.88,71v19.95h194.79v-10.3s-34.48-44.13-59.74-76.06c-7.54-9.54-19.04-15.1-31.2-15.1h0c-9.99-.01-19.62,3.74-26.97,10.51Z"/>
        <path class="cls-21" d="M356.11,153.17h.95c.51-2.52,2.73-4.34,5.31-4.34,.84,0,1.67,.2,2.42,.58,2.67-4.08,8.13-5.22,12.21-2.55,.22,.15,.44,.3,.65,.47,3.82-4.94,10.91-5.85,15.85-2.03,2.47,1.91,4.04,4.76,4.34,7.87h.16c1.03,0,1.86,.83,1.86,1.86h0c0,1.03-.83,1.86-1.86,1.86h-41.89c-1.03,0-1.86-.83-1.86-1.86h0c0-1.03,.83-1.86,1.86-1.86Z"/>
        <circle class="cls-21" cx="355.05" cy="145.64" r="1.35"/>
        <path class="cls-27" d="M398.14,203.34c-1.78,0-3.48-.74-4.68-2.05l-6.7-7.38c-.46-.51-.42-1.31,.09-1.77s1.31-.42,1.77,.09l6.7,7.37c1.27,1.39,3.36,1.64,4.92,.6l4.22-2.84c.57-.39,1.35-.23,1.74,.34,.39,.57,.23,1.35-.34,1.74h0l-4.22,2.83c-1.03,.7-2.25,1.07-3.5,1.07Z"/>
        <path class="cls-27" d="M430.22,224c-.39,0-.76-.19-1-.51l-13.9-18.85-2.7-3.55c-.54-.8-1.28-1.43-2.15-1.84-.63-.29-.9-1.03-.61-1.66,.29-.63,1.03-.9,1.66-.61h0c1.27,.58,2.35,1.5,3.13,2.65l2.67,3.51,13.9,18.86c.41,.55,.3,1.32-.24,1.74,0,0-.01,0-.02,.01-.21,.16-.47,.25-.74,.25Z"/>
        <path class="cls-27" d="M435.93,231.78c-.39,0-.76-.19-1-.51l-2.51-3.4c-.33-.61-.1-1.38,.51-1.71,.49-.27,1.1-.18,1.49,.22l2.51,3.4c.41,.56,.29,1.34-.27,1.75,0,0,0,0,0,0-.21,.16-.47,.25-.73,.25Z"/>
        <path class="cls-34" d="M424.62,216.58c-.4,0-.77-.19-1-.51l-11-14.95c-.45-.52-.39-1.31,.13-1.76,.52-.45,1.31-.39,1.76,.13,.04,.04,.07,.09,.1,.14l11,15c.41,.55,.3,1.34-.25,1.75-.22,.16-.48,.25-.75,.25v-.05Z"/>
        <circle class="cls-3" cx="403.06" cy="227.7" r="1.06"/>
        <circle class="cls-3" cx="400.02" cy="223.68" r=".75"/>
        <circle class="cls-3" cx="398.82" cy="226.73" r=".53"/>
        <circle class="cls-3" cx="394.63" cy="220.59" r="1.1"/>
        <path class="cls-27" d="M358.32,189.08c-.39,0-.76-.18-1-.49l-5.45-7.07c-.42-.54-.33-1.32,.21-1.74,0,0,0,0,.01,0,.55-.42,1.33-.32,1.76,.22l5.45,7.07c.42,.55,.32,1.34-.23,1.76-.21,.17-.48,.26-.75,.26Z"/>
        <path class="cls-27" d="M382.54,220.43c-.39,0-.76-.17-1-.48l-21.13-27.35c-.43-.55-.32-1.34,.23-1.77,.55-.43,1.34-.32,1.77,.23l21.14,27.36c.42,.55,.32,1.33-.23,1.75-.22,.18-.5,.27-.78,.26Z"/>
        <path class="cls-27" d="M388,227.54c-.39,0-.76-.18-1-.49l-3-3.9c-.42-.55-.32-1.34,.24-1.76,.55-.42,1.34-.32,1.76,.24l3,3.9c.42,.55,.32,1.33-.22,1.76-.23,.17-.5,.26-.78,.26Z"/>
        <path class="cls-41" d="M372.58,207.58c-.39,0-.76-.18-1-.49l-7.76-10.09c-.42-.55-.32-1.34,.24-1.76,.55-.42,1.34-.32,1.76,.24l7.77,10.08c.42,.55,.32,1.33-.22,1.76-.23,.17-.5,.27-.79,.27Z"/>
        <polygon class="cls-5" points="132.53 215.66 132.51 213.82 132.76 213.82 132.78 215.66 132.53 215.66"/>
        <path class="cls-36" d="M111,238.49c0-15.28,12.4-27.67,27.68-27.66,15.27,0,27.65,12.39,27.66,27.66h-55.34Z"/>
        <path class="cls-55" d="M129.85,238.49c0-10.08,8.18-18.26,18.26-18.26s18.26,8.18,18.26,18.26h-36.52Z"/>
        <path class="cls-36" d="M308.68,238.49c0-15.28,12.38-27.67,27.66-27.68,15.28,0,27.67,12.38,27.68,27.66v.02h-55.34Z"/>
        <path class="cls-54" d="M308.68,238.49c0-11.75,9.52-21.27,21.27-21.27s21.27,9.52,21.27,21.27h-42.54Z"/>
        <path class="cls-53" d="M126.93,226.99h0c.76,0,1.37,.62,1.36,1.38l-.05,8.63h-2.73s.05-8.63,.05-8.63c0-.76,.61-1.37,1.37-1.37h0Z"/>
        <path class="cls-53" d="M130.33,230.89h0c.46,0,.84,.38,.84,.84l-.03,5.27h-1.68s.03-5.31,.03-5.31c.02-.45,.39-.81,.84-.81Z"/>
        <path class="cls-62" d="M128.17,231.72h0c.4,0,.72,.33,.72,.72h0l-.02,4.56h-1.45s.02-4.58,.02-4.58c0-.4,.33-.72,.72-.72h0Z"/>
        <path class="cls-62" d="M123.38,231.69h0c.4,0,.72,.33,.72,.72h0l-.02,4.58h-1.45s.02-4.58,.02-4.58c0-.4,.33-.72,.72-.72h.01Z"/>
        <path class="cls-53" d="M356.75,226.98h0c.76,0,1.37,.62,1.36,1.38l-.05,8.63h-2.73s.05-8.63,.05-8.63c0-.76,.61-1.37,1.37-1.37h0Z"/>
        <path class="cls-53" d="M359.05,232.59h0c.46,0,.84,.38,.83,.85l-.05,5.27h0l-1.68-.02h0l.05-5.3c.02-.45,.4-.81,.85-.8Z"/>
        <path class="cls-62" d="M356.92,233.41h0c.4,0,.72,.33,.71,.73h0l-.05,4.56h-1.45s.05-4.58,.05-4.58c0-.4,.34-.71,.74-.7h0Z"/>
        <path class="cls-62" d="M353.19,231.69h0c.4,0,.72,.33,.72,.72h0l-.02,4.58h-1.45s.02-4.58,.02-4.58c0-.4,.32-.72,.71-.73,0,0,.01,0,.02,0Z"/>
        <rect class="cls-56" x="223.54" y="75.57" width="24.29" height="170.4"/>
        <rect class="cls-33" x="247.66" y="75.57" width="27.12" height="170.39"/>
        <g class="cls-71">
          <rect class="cls-14" x="262.68" y="122.77" width="6.78" height="30.49"/>
          <rect class="cls-14" x="252.89" y="122.77" width="6.78" height="30.49"/>
        </g>
        <path class="cls-21" d="M104.18,128.19h-1.43c-.9-4.47-5.26-7.36-9.73-6.46-.72,.15-1.42,.39-2.08,.72-4.06-6.21-12.39-7.95-18.61-3.89-.34,.22-.67,.46-.99,.72-5.82-7.53-16.65-8.92-24.18-3.09-3.77,2.91-6.16,7.26-6.62,12h-.19c-1.56,0-2.82,1.25-2.84,2.81h0c0,1.56,1.28,2.83,2.84,2.83h63.83c1.56-.01,2.81-1.27,2.82-2.83h0c-.02-1.55-1.27-2.8-2.82-2.81Z"/>
        <circle class="cls-21" cx="73.95" cy="110.69" r="2.99"/>
        <circle class="cls-21" cx="93.33" cy="114.64" r="2.36"/>
        <rect class="cls-56" x="177.09" y="37.14" width="31.54" height=".19"/>
        <rect class="cls-56" x="177.09" y="43.17" width="31.54" height="202.79"/>
        <rect class="cls-33" x="208.63" y="40.21" width="31.54" height="205.75"/>
        <rect class="cls-57" x="208.63" y="40.21" width="31.54" height="5.43"/>
        <rect class="cls-14" x="230.04" y="50.29" width="6.25" height="6.4"/>
        <rect class="cls-14" x="221.77" y="50.29" width="6.25" height="6.4"/>
        <rect class="cls-14" x="213.51" y="50.29" width="6.25" height="6.4"/>
        <rect class="cls-14" x="230.04" y="60.45" width="6.25" height="6.4"/>
        <rect class="cls-14" x="221.77" y="60.45" width="6.25" height="6.4"/>
        <rect class="cls-14" x="213.51" y="60.45" width="6.25" height="6.4"/>
        <rect class="cls-14" x="230.04" y="70.62" width="6.25" height="6.4"/>
        <rect class="cls-14" x="221.77" y="70.62" width="6.25" height="6.4"/>
        <rect class="cls-14" x="213.51" y="70.62" width="6.25" height="6.4"/>
        <rect class="cls-14" x="230.04" y="80.78" width="6.25" height="6.4"/>
        <rect class="cls-14" x="221.77" y="80.78" width="6.25" height="6.4"/>
        <rect class="cls-14" x="213.51" y="80.78" width="6.25" height="6.4"/>
        <rect class="cls-14" x="230.04" y="90.95" width="6.25" height="6.4"/>
        <rect class="cls-14" x="221.77" y="90.95" width="6.25" height="6.4"/>
        <rect class="cls-14" x="213.51" y="90.95" width="6.25" height="6.4"/>
        <rect class="cls-14" x="230.04" y="101.11" width="6.25" height="6.4"/>
        <rect class="cls-14" x="221.77" y="101.11" width="6.25" height="6.4"/>
        <rect class="cls-14" x="213.51" y="101.11" width="6.25" height="6.4"/>
        <rect class="cls-14" x="230.04" y="131.6" width="6.25" height="6.4"/>
        <rect class="cls-14" x="221.77" y="131.6" width="6.25" height="6.4"/>
        <rect class="cls-14" x="213.51" y="131.6" width="6.25" height="6.4"/>
        <rect class="cls-14" x="230.04" y="121.44" width="6.25" height="6.4"/>
        <rect class="cls-14" x="221.77" y="121.44" width="6.25" height="6.4"/>
        <rect class="cls-14" x="213.51" y="121.44" width="6.25" height="6.4"/>
        <rect class="cls-14" x="230.04" y="111.27" width="6.25" height="6.4"/>
        <rect class="cls-14" x="221.77" y="111.27" width="6.25" height="6.4"/>
        <rect class="cls-14" x="213.51" y="111.27" width="6.25" height="6.4"/>
        <g class="cls-66">
          <rect class="cls-14" x="198.05" y="50.29" width="6.25" height="6.4"/>
          <rect class="cls-14" x="189.79" y="50.29" width="6.25" height="6.4"/>
          <rect class="cls-14" x="181.52" y="50.29" width="6.25" height="6.4"/>
          <rect class="cls-14" x="198.05" y="60.45" width="6.25" height="6.4"/>
          <rect class="cls-14" x="189.79" y="60.45" width="6.25" height="6.4"/>
          <rect class="cls-14" x="181.52" y="60.45" width="6.25" height="6.4"/>
          <rect class="cls-14" x="198.05" y="70.62" width="6.25" height="6.4"/>
          <rect class="cls-14" x="189.79" y="70.62" width="6.25" height="6.4"/>
          <rect class="cls-14" x="181.52" y="70.62" width="6.25" height="6.4"/>
          <rect class="cls-14" x="198.05" y="80.78" width="6.25" height="6.4"/>
          <rect class="cls-14" x="189.79" y="80.78" width="6.25" height="6.4"/>
          <rect class="cls-14" x="181.52" y="80.78" width="6.25" height="6.4"/>
          <rect class="cls-14" x="198.05" y="90.95" width="6.25" height="6.4"/>
          <rect class="cls-14" x="189.79" y="90.95" width="6.25" height="6.4"/>
          <rect class="cls-14" x="181.52" y="90.95" width="6.25" height="6.4"/>
          <rect class="cls-14" x="198.05" y="101.11" width="6.25" height="6.4"/>
          <rect class="cls-14" x="189.79" y="101.11" width="6.25" height="6.4"/>
          <rect class="cls-14" x="181.52" y="101.11" width="6.25" height="6.4"/>
          <rect class="cls-14" x="198.05" y="131.6" width="6.25" height="6.4"/>
          <rect class="cls-14" x="189.79" y="131.6" width="6.25" height="6.4"/>
          <rect class="cls-14" x="181.52" y="131.6" width="6.25" height="6.4"/>
          <rect class="cls-14" x="198.05" y="121.44" width="6.25" height="6.4"/>
          <rect class="cls-14" x="189.79" y="121.44" width="6.25" height="6.4"/>
          <rect class="cls-14" x="181.52" y="121.44" width="6.25" height="6.4"/>
          <rect class="cls-14" x="198.05" y="111.27" width="6.25" height="6.4"/>
          <rect class="cls-14" x="189.79" y="111.27" width="6.25" height="6.4"/>
          <rect class="cls-14" x="181.52" y="111.27" width="6.25" height="6.4"/>
        </g>
        <rect class="cls-61" x="174.94" y="31.31" width="33.69" height="5.83"/>
        <polygon class="cls-56" points="242.33 31.31 242.33 37.33 174.94 37.33 174.94 37.14 208.63 37.14 208.63 31.31 242.33 31.31"/>
        <polygon class="cls-59" points="208.63 37.33 208.63 43.17 171.73 43.17 171.73 37.14 174.94 37.14 174.94 37.33 208.63 37.33"/>
        <polygon class="cls-48" points="245.53 37.14 245.53 43.17 208.63 43.17 208.63 37.33 174.94 37.33 174.94 37.14 245.53 37.14"/>
        <polygon class="cls-58" points="317.11 140.51 269.39 140.51 242.81 170.73 290.13 170.73 317.11 140.51"/>
        <polyline class="cls-58" points="310.78 140.51 248.15 140.51 221.57 171.15 283.81 171.15"/>
        <path class="cls-21" d="M333.6,98.15h-1.19c-.64-3.17-3.43-5.45-6.67-5.45-1.04,.01-2.07,.26-3,.72-3.35-5.11-10.2-6.54-15.31-3.19-.28,.18-.55,.38-.81,.58-4.8-6.19-13.71-7.32-19.91-2.52-3.09,2.4-5.06,5.97-5.43,9.86h-.16c-1.29,0-2.33,1.03-2.34,2.32,0,0,0,0,0,.01h0c0,1.29,1.05,2.34,2.34,2.34h52.48c1.29,0,2.33-1.04,2.33-2.33,0,0,0,0,0-.01h0c0-1.29-1.04-2.33-2.33-2.33Z"/>
        <circle class="cls-21" cx="334.93" cy="88.7" r="1.69"/>
        <circle class="cls-21" cx="345.66" cy="119.95" r="3.58"/>
        <circle class="cls-21" cx="323.82" cy="84.56" r="2.82"/>
        <path class="cls-31" d="M25.73,192.48c1.36,9.62,4.36,14.28,6.55,16.47v-.64c-.03-2.28,1.79-4.14,4.07-4.17,0,0,.01,0,.02,0,.07,0,.13-.07,.12-.14,0,0,0,0,0,0l-.11-11.37h4l.11,11.37c.02,2.28-1.8,4.15-4.08,4.18-.07,0-.13,.06-.13,.13h0l.13,13.06c0,.07,.06,.13,.13,.13h4.26c2.26-.04,4.13,1.75,4.2,4.01l.11,11.18h-4l-.11-11.14c0-.07-.06-.13-.13-.13h-4.26c-2.28,.03-4.14-1.79-4.17-4.07,0,0,0-.01,0-.02l-.11-7.33c-1.48-.85-2.8-1.96-3.88-3.28-3.33-3.95-5.58-9.9-6.68-17.69l3.96-.55Z"/>
        <path class="cls-53" d="M10.39,168.55c-2.12,.02-3.86-1.69-3.89-3.81l-.07-7.59c-.02-2.13,1.68-3.87,3.81-3.89h0l20.51-.2c4.65-.05,9.07,2.03,12,5.64,3.19,4.07,8.07,6.46,13.25,6.48h.58c1.55,0,2.8,1.24,2.81,2.79,0,.01,0,.02,0,.03v5.2l.06,5.75v1l.05,4.86,.06,6.1c.02,1.55-1.22,2.81-2.77,2.83h0l-41.25,.41c-1.54,.02-2.81-1.21-2.83-2.75,0,0,0-.01,0-.02v-.21c-.02-1.61-1.34-2.91-2.95-2.89h0c-1.63,0-2.97-1.31-3-2.94l-.06-11.67c0-1.66,1.34-3,3-3h1.86c.55,0,1-.45,1-1,0-.02,0-.04,0-.06h0c.03-.55-.39-1.02-.95-1.05-.04,0-.08,0-.12,0h-1.1Z"/>
        <path class="cls-36" d="M20.59,168.45c-2.13,.02-3.87-1.68-3.89-3.81,0,0,0,0,0,0l-.08-7.59c-.02-2.13,1.68-3.87,3.81-3.89h0l20.57-.16c4.65-.06,9.07,2.02,12,5.64,3.28,4,4,6.57,9.23,6.52h.58c1.54-.01,2.81,1.23,2.83,2.77v5.2l.06,5.76v5.86l.07,6.1c-.02,1.52-1.25,2.76-2.77,2.78l-37.21,.37c-1.53-.01-2.77-1.24-2.79-2.77v-.23c-.02-1.61-1.34-2.89-2.95-2.87-.02,0-.03,0-.05,0h0c-1.63,0-2.97-1.31-3-2.94l-.12-11.62c0-1.63,1.31-2.97,2.94-3h1.86c.59,0,1.06-.48,1.05-1.07h0c-.03-.57-.5-1.01-1.07-1l-1.07-.05Z"/>
        <circle class="cls-9" cx="22.84" cy="185.32" r="1.91"/>
        <circle class="cls-9" cx="31.82" cy="179.28" r=".52"/>
        <circle class="cls-9" cx="43.95" cy="180.93" r=".66"/>
        <circle class="cls-9" cx="48.74" cy="186.77" r="1.05"/>
        <circle class="cls-9" cx="33.25" cy="186.22" r="1.1"/>
        <circle class="cls-9" cx="13.19" cy="173.85" r="1.01"/>
        <path class="cls-9" d="M26.38,154.1c-.55,0-1-.45-1-1s.45-1,1-1l14.56-.1h0c.55,0,1,.45,1,1s-.45,1-1,1l-14.57,.14v-.04Z"/>
        <polygon class="cls-5" points="33.34 218.01 33.29 213.71 33.54 213.71 33.59 218.01 33.34 218.01"/>
        <polygon class="cls-5" points="41.91 228.74 41.87 224.43 42.12 224.43 42.16 228.74 41.91 228.74"/>
        <polygon class="cls-5" points="34.45 211.65 34.41 207.34 34.66 207.34 34.7 211.65 34.45 211.65"/>
        <polygon class="cls-5" points="38.73 200.28 38.69 195.97 38.94 195.97 38.98 200.27 38.73 200.28"/>
        <polygon class="cls-5" points="34.92 214.55 34.9 212.72 35.15 212.71 35.17 214.55 34.92 214.55"/>
        <polygon class="cls-5" points="34.44 220.01 34.4 215.71 34.65 215.71 34.69 220.01 34.44 220.01"/>
        <polygon class="cls-5" points="38.02 200.28 38.01 198.45 38.26 198.45 38.27 200.28 38.02 200.28"/>
        <polygon class="cls-5" points="37.55 205.75 37.51 201.44 37.76 201.44 37.8 205.75 37.55 205.75"/>
        <polygon class="cls-5" points="43.91 228.72 43.89 226.88 44.14 226.88 44.16 228.72 43.91 228.72"/>
        <polygon class="cls-5" points="43.43 234.18 43.39 229.88 43.64 229.88 43.68 234.18 43.43 234.18"/>
        <rect class="cls-5" x="36.41" y="193.87" width="4" height="2.1" transform="translate(-1.94 .39) rotate(-.57)"/>
        <path class="cls-53" d="M21,202.55c-1.66,1.89-1,5.23-1,5.23,0,0,3.4,.29,5.07-1.6s1-5.23,1-5.23c0,0-3.43-.28-5.07,1.6Z"/>
        <path class="cls-36" d="M41.17,199c-1.67,1.88-1,5.23-1,5.23,0,0,3.41,.28,5.08-1.6s1-5.23,1-5.23c0,0-3.41-.34-5.08,1.6Z"/>
        <path class="cls-53" d="M.78,196.21c-1.17,1.33-.68,3.69-.68,3.69,0,0,2.41,.2,3.58-1.13,1.17-1.33,.68-3.69,.68-3.69,0,0-2.36-.2-3.58,1.13Z"/>
        <path class="cls-36" d="M7.52,204.48c.92,1.52,3.31,1.76,3.31,1.76,0,0,.92-2.23,0-3.75s-3.31-1.76-3.31-1.76c0,0-.91,2.27,0,3.75Z"/>
        <path class="cls-36" d="M13,222.8c.91,1.52,3.31,1.76,3.31,1.76,0,0,.92-2.23,0-3.75s-3.31-1.76-3.31-1.76c0,0-.89,2.23,0,3.75Z"/>
        <path class="cls-36" d="M3.08,224.08c.91,1.52,3.31,1.76,3.31,1.76,0,0,.92-2.23,0-3.75s-3.31-1.76-3.31-1.76c0,0-.92,2.23,0,3.75Z"/>
        <path class="cls-9" d="M13.81,215.77c1.62,.73,3.72-.45,3.72-.45,0,0-.53-2.32-2.14-3.08s-3.72,.45-3.72,.45c0,0,.52,2.31,2.14,3.08Z"/>
        <path class="cls-9" d="M19.27,228.57c1.62,.73,3.73-.45,3.73-.45,0,0-.52-2.35-2.14-3.08s-3.73,.45-3.73,.45c0,0,.52,2.35,2.14,3.08Z"/>
        <rect class="cls-28" x="251.78" y="170.65" width="38.16" height="69.96"/>
        <polygon class="cls-11" points="274.51 237.44 198.27 237.44 198.27 185.26 236.67 142.91 274.51 185.26 274.51 237.44"/>
        <rect class="cls-25" x="198.27" y="231.29" width="76.24" height="6.15"/>
        <polygon class="cls-37" points="223.12 237.44 146.88 237.44 146.88 185.26 185.28 142.91 223.12 185.26 223.12 237.44"/>
        <polygon class="cls-11" points="337.12 237.81 289.74 237.81 289.74 170.5 315.64 142.42 337.12 170.5 337.12 237.81"/>
        <path class="cls-24" d="M229.36,199.21h8.02c.72,0,1.31,.59,1.31,1.31h0c0,.72-.59,1.31-1.31,1.31h-8.02c-.72,0-1.31-.59-1.31-1.31h0c0-.72,.59-1.31,1.31-1.31Z"/>
        <path class="cls-24" d="M151.91,230.82h8.02c.72,0,1.31,.59,1.31,1.31h0c0,.72-.59,1.31-1.31,1.31h-8.02c-.72,0-1.31-.59-1.31-1.31h0c0-.72,.59-1.31,1.31-1.31Z"/>
        <path class="cls-24" d="M299.86,175.48h8.02c.72,0,1.31,.59,1.31,1.31h0c0,.72-.59,1.31-1.31,1.31h-8.02c-.72,0-1.31-.59-1.31-1.31h0c0-.72,.59-1.31,1.31-1.31Z"/>
        <path class="cls-24" d="M323.01,179.44h8.02c.72,0,1.31,.59,1.31,1.31h0c0,.72-.59,1.31-1.31,1.31h-8.02c-.72,0-1.31-.59-1.31-1.31h0c0-.72,.59-1.31,1.31-1.31Z"/>
        <path class="cls-24" d="M228.46,230.25h8.02c.72,0,1.31,.59,1.31,1.31h0c0,.72-.59,1.31-1.31,1.31h-8.02c-.72,0-1.31-.59-1.31-1.31h0c0-.72,.59-1.31,1.31-1.31Z"/>
        <path class="cls-24" d="M205.74,209.37h8.02c.72,0,1.31,.59,1.31,1.31h0c0,.72-.59,1.31-1.31,1.31h-8.02c-.72,0-1.31-.59-1.31-1.31h0c0-.72,.59-1.31,1.31-1.31Z"/>
        <path class="cls-24" d="M159.25,227.44h8.02c.72,0,1.31,.59,1.31,1.31h0c0,.72-.59,1.31-1.31,1.31h-8.02c-.72,0-1.31-.59-1.31-1.31h0c0-.72,.59-1.31,1.31-1.31Z"/>
        <path class="cls-24" d="M153.6,221.22h8.02c.72,0,1.31,.59,1.31,1.31h0c0,.72-.59,1.31-1.31,1.31h-8.02c-.72,0-1.31-.59-1.31-1.31h0c0-.72,.59-1.31,1.31-1.31Z"/>
        <path class="cls-24" d="M152.69,193.37h8.02c.72,0,1.31,.59,1.31,1.31h0c0,.72-.59,1.31-1.31,1.31h-8.02c-.72,0-1.31-.59-1.31-1.31h0c0-.72,.59-1.31,1.31-1.31Z"/>
        <path class="cls-24" d="M200.98,232.15h8.02c.72,0,1.31,.59,1.31,1.31h0c0,.72-.59,1.31-1.31,1.31h-8.02c-.72,0-1.31-.59-1.31-1.31h0c0-.72,.59-1.31,1.31-1.31Z"/>
        <path class="cls-24" d="M298.48,226.86h8.02c.72,0,1.31,.59,1.31,1.31h0c0,.72-.59,1.31-1.31,1.31h-8.02c-.72,0-1.31-.59-1.31-1.31h0c0-.72,.59-1.31,1.31-1.31Z"/>
        <g class="cls-69">
          <rect class="cls-24" x="262.28" y="216.35" width="7.59" height="1.87" rx=".93" ry=".93"/>
          <rect class="cls-24" x="259.04" y="218.21" width="7.59" height="1.87" rx=".93" ry=".93"/>
          <rect class="cls-24" x="262.28" y="220.08" width="7.59" height="1.87" rx=".93" ry=".93"/>
        </g>
        <g class="cls-67">
          <rect class="cls-24" x="325.21" y="226.9" width="7.59" height="1.87" rx=".93" ry=".93"/>
          <rect class="cls-24" x="321.96" y="228.76" width="7.59" height="1.87" rx=".93" ry=".93"/>
          <rect class="cls-24" x="325.21" y="230.64" width="7.59" height="1.87" rx=".93" ry=".93"/>
        </g>
        <rect class="cls-14" x="318.49" y="186.2" width="14.34" height="22.35"/>
        <rect class="cls-49" x="319.89" y="187.67" width="11.53" height="19.38"/>
        <rect class="cls-14" x="297.22" y="186.2" width="14.34" height="22.35"/>
        <rect class="cls-49" x="298.63" y="187.67" width="11.53" height="19.38"/>
        <rect class="cls-45" x="298.6" y="187.68" width="2.11" height="19.38"/>
        <rect class="cls-45" x="319.85" y="187.68" width="2.11" height="19.38"/>
        <path class="cls-53" d="M7.96,247.13H448.76c3.84,0,6.96,3.11,6.96,6.96h0c0,3.84-3.12,6.96-6.96,6.96H7.96c-3.84,0-6.96-3.11-6.96-6.96h0c0-3.84,3.12-6.96,6.96-6.96Z"/>
        <path class="cls-36" d="M447,237c4.58,0,8.3,3.72,8.3,8.3h0c0,4.58-3.72,8.29-8.3,8.3H8.92c-4.58,0-8.29-3.72-8.3-8.3H.62c0-4.58,3.72-8.3,8.3-8.3h0"/>
        <rect class="cls-36" x="310.52" y="251.48" width="19.07" height="3.47" rx="1.73" ry="1.73"/>
        <rect class="cls-9" x="130.78" y="240.3" width="13.68" height="2.49" rx="1.24" ry="1.24"/>
        <circle class="cls-9" cx="422.28" cy="253.69" r=".53"/>
        <circle class="cls-9" cx="423.74" cy="248.78" r=".6"/>
        <circle class="cls-9" cx="419.62" cy="240.14" r=".6"/>
        <circle class="cls-9" cx="419.45" cy="247.08" r=".9"/>
        <circle class="cls-9" cx="421.51" cy="250.2" r=".56"/>
        <circle class="cls-9" cx="423.47" cy="251.96" r=".4"/>
        <circle class="cls-9" cx="425.07" cy="253.16" r=".47"/>
        <rect class="cls-53" x="392.59" y="251.48" width="19.07" height="3.47" rx="1.73" ry="1.73"/>
        <rect class="cls-53" x="23.92" y="251.48" width="19.07" height="3.47" rx="1.73" ry="1.73"/>
        <rect class="cls-53" x="87.05" y="251.48" width="19.07" height="3.47" rx="1.73" ry="1.73"/>
        <rect class="cls-53" x="425.72" y="251.86" width="19.07" height="3.47" rx="1.73" ry="1.73"/>
        <polygon class="cls-51" points="185.28 142.91 237.67 142.91 275.51 185.26 223.15 185.26 185.28 142.91"/>
        <path class="cls-47" d="M188.26,193.28c-.55,.14-1.12,.22-1.69,.22-3.66,.14-6.75-2.71-6.89-6.38s2.71-6.75,6.38-6.89c.17,0,.34,0,.52,0,.57,0,1.14,.08,1.69,.22-3.54,.95-5.65,4.59-4.7,8.13,.61,2.3,2.41,4.09,4.7,4.7Z"/>
        <path class="cls-49" d="M193.2,186.86c0,3.01-2.03,5.65-4.94,6.42-3.54-.95-5.65-4.59-4.7-8.13,.61-2.3,2.41-4.09,4.7-4.7,2.91,.77,4.94,3.4,4.94,6.41Z"/>
        <path class="cls-24" d="M338.13,174.59c-.79,0-1.53-.37-2-1l-22-27.67c-.82-1.11-.57-2.68,.54-3.49,1.05-.77,2.52-.6,3.37,.38l22,27.67c.86,1.09,.67,2.67-.42,3.52-.45,.35-1.01,.54-1.58,.54l.09,.05Z"/>
        <path class="cls-24" d="M150.69,190.73c-1.38,0-2.5-1.12-2.5-2.5,0-.64,.25-1.25,.69-1.72l36.7-39c.95-1.01,2.53-1.05,3.54-.11,1.01,.95,1.05,2.53,.1,3.54l-36.7,39c-.48,.5-1.14,.79-1.83,.79Z"/>
        <path class="cls-24" d="M224,195.25c-.7,0-1.38-.3-1.85-.82l-39.84-43.43c-.93-1.02-.86-2.6,.15-3.54s2.6-.86,3.54,.15l39.81,43.49c.93,1.03,.85,2.62-.18,3.54-.45,.41-1.04,.64-1.66,.65l.03-.05Z"/>
        <rect class="cls-22" x="234.82" y="117.09" width="13.62" height="43.14"/>
        <polygon class="cls-38" points="234.81 160.23 226.56 150.99 226.53 117.09 234.81 117.09 234.81 160.23"/>
        <path class="cls-24" d="M220.28,185.27h54.59v8.19h-46.65c-4.39,0-7.94-3.55-7.94-7.94h0v-.25h0Z"/>
        <path class="cls-43" d="M224.81,189.1c-.7,0-1.37-.29-1.84-.81l-36.72-40.16-37.25,40.17c-.94,1.01-2.52,1.07-3.54,.14-1.01-.94-1.07-2.52-.13-3.54h0l39.13-42.16c.47-.51,1.14-.8,1.83-.8h0c.7,0,1.37,.3,1.84,.82l38.55,42.15c.93,1.03,.85,2.62-.18,3.54-.46,.41-1.05,.64-1.67,.65h-.02Z"/>
        <rect class="cls-38" x="235.92" y="153.92" width="7.53" height="2.45" rx="1.22" ry="1.22"/>
        <rect class="cls-38" x="241.19" y="150.35" width="4.96" height="1.61" rx=".8" ry=".8"/>
        <path class="cls-38" d="M237.47,123.23h3.34c.45,0,.81,.36,.81,.81h0c0,.44-.36,.81-.81,.81h-3.34c-.45,0-.81-.36-.81-.81h0c0-.44,.36-.81,.81-.81Z"/>
        <rect class="cls-32" x="227.62" y="129.16" width="4.96" height="1.61" rx=".8" ry=".8"/>
        <rect class="cls-32" x="227.32" y="147.15" width="4.96" height="1.61" rx=".8" ry=".8"/>
        <rect class="cls-51" x="222.84" y="115.58" width="29.9" height="3.37" rx="1.68" ry="1.68"/>
        <g class="cls-68">
          <rect class="cls-46" x="276.23" y="162.86" width="7.7" height="2.13" rx="1.06" ry="1.06"/>
          <rect class="cls-46" x="249.13" y="145.17" width="7.7" height="2.13" rx="1.06" ry="1.06"/>
          <rect class="cls-46" x="288.09" y="148.56" width="7.7" height="2.13" rx="1.06" ry="1.06"/>
          <rect class="cls-46" x="271.34" y="158.72" width="7.7" height="2.13" rx="1.06" ry="1.06"/>
          <rect class="cls-46" x="292.8" y="144.6" width="7.7" height="2.13" rx="1.06" ry="1.06"/>
        </g>
        <path class="cls-43" d="M276.53,190h-54.41c-1.38,0-2.5-1.12-2.5-2.5s1.12-2.5,2.5-2.5h54.41c1.38,0,2.5,1.12,2.5,2.5s-1.12,2.5-2.5,2.5Z"/>
        <path class="cls-43" d="M338.81,172.08c-.52,0-1.01-.23-1.33-.64l-21.85-27.37-23.63,27.42c-.6,.71-1.67,.8-2.38,.2,0,0-.01-.01-.02-.02-.71-.62-.79-1.69-.18-2.4l24.94-29c.34-.38,.82-.59,1.32-.59,.51,0,.98,.24,1.3,.64l23.13,29c.59,.73,.47,1.8-.26,2.39-.3,.23-.66,.36-1.04,.37Z"/>
        <path class="cls-43" d="M293.21,172.28h-31.13c-.94,0-1.7-.76-1.7-1.7,0-.94,.76-1.7,1.7-1.7h31.14c.94,0,1.7,.76,1.7,1.7,0,.94-.76,1.7-1.7,1.7h0Z"/>
        <path class="cls-44" d="M229.05,175.95h6.78c.78,0,1.41,.63,1.41,1.41h0c0,.78-.63,1.41-1.41,1.41h-6.78c-.78,0-1.41-.63-1.41-1.41h0c0-.78,.63-1.41,1.41-1.41Z"/>
        <path class="cls-44" d="M234.13,171.85h6.78c.78,0,1.41,.63,1.41,1.41h0c0,.78-.63,1.41-1.41,1.41h-6.78c-.78,0-1.41-.63-1.41-1.41h0c0-.78,.63-1.41,1.41-1.41Z"/>
        <path class="cls-44" d="M216.48,154.77h6.78c.78,0,1.41,.63,1.41,1.41h0c0,.78-.63,1.41-1.41,1.41h-6.78c-.78,0-1.41-.63-1.41-1.41h0c0-.78,.63-1.41,1.41-1.41Z"/>
        <path class="cls-44" d="M200.95,146.44h6.78c.78,0,1.41,.63,1.41,1.41h0c0,.78-.63,1.41-1.41,1.41h-6.78c-.78,0-1.41-.63-1.41-1.41h0c0-.78,.63-1.41,1.41-1.41Z"/>
        <path class="cls-44" d="M257.71,178.63h6.78c.78,0,1.41,.63,1.41,1.41h0c0,.78-.63,1.41-1.41,1.41h-6.78c-.78,0-1.41-.63-1.41-1.41h0c0-.78,.63-1.41,1.41-1.41Z"/>
        <rect class="cls-39" x="226.54" y="118.95" width="21.88" height="2.01"/>
        <path class="cls-42" d="M98.4,197.32c-1.18,1.33-.68,3.69-.68,3.69,0,0,2.4,.2,3.57-1.13s.69-3.69,.69-3.69c0,0-2.41-.19-3.58,1.13Z"/>
        <path class="cls-10" d="M105.14,205.58c.91,1.53,3.31,1.77,3.31,1.77,0,0,.92-2.23,0-3.75s-3.31-1.77-3.31-1.77c0,0-.92,2.23,0,3.75Z"/>
        <path class="cls-10" d="M110.63,223.91c.92,1.52,3.32,1.76,3.32,1.76,0,0,.91-2.23,0-3.75s-3.31-1.77-3.31-1.77c0,0-.92,2.23-.01,3.76Z"/>
        <path class="cls-10" d="M100.69,225.19c.91,1.52,3.31,1.81,3.31,1.81,0,0,.92-2.23,0-3.75s-3.32-1.77-3.32-1.77c0,0-.9,2.18,.01,3.71Z"/>
        <path class="cls-20" d="M111.42,216.88c1.62,.72,3.73-.45,3.73-.45,0,0-.52-2.35-2.14-3.08s-3.73,.44-3.73,.44c0,0,.52,2.36,2.14,3.09Z"/>
        <path class="cls-20" d="M116.89,229.68c1.62,.72,3.72-.45,3.72-.45,0,0-.52-2.35-2.14-3.08s-3.72,.44-3.72,.44c0,0,.52,2.41,2.14,3.09Z"/>
        <rect class="cls-14" x="262.68" y="86.82" width="6.78" height="30.49"/>
        <rect class="cls-14" x="252.89" y="86.82" width="6.78" height="30.49"/>
        <path class="cls-14" d="M265.1,57.46h-.38c-.2-.01-.4,.03-.58,.13-.36,.14-.65,.43-.79,.79-.1,.18-.14,.38-.13,.58v.4c.07,.25,.2,.48,.39,.66l.3,.23c.23,.14,.49,.21,.76,.21h.38c.2,0,.39-.04,.57-.13,.19-.06,.35-.17,.49-.31,.14-.13,.25-.3,.31-.48,.09-.18,.13-.38,.13-.58l-.06-.4c-.07-.25-.2-.48-.38-.66l-.31-.24c-.23-.13-.49-.2-.75-.2h.05Z"/>
        <path class="cls-31" d="M126.19,193.58c-1.36,9.63-4.36,14.28-6.55,16.48v-.65c.02-2.28-1.81-4.14-4.09-4.17-.07,0-.13-.06-.13-.13h0l.11-11.37h-4l-.11,11.37c-.02,2.28,1.81,4.15,4.09,4.17h0c.07,0,.13,.06,.13,.13h0l-.13,13.07c0,.07-.06,.13-.13,.13h-4.26c-2.28-.02-4.15,1.81-4.18,4.09l-.11,11.17h4l.11-11.17c0-.07,.06-.13,.13-.13,0,0,0,0,.01,0h4.26c2.28,.02,4.14-1.81,4.17-4.09l.07-7.37c1.49-.84,2.8-1.96,3.88-3.29,3.34-3.94,5.58-9.89,6.68-17.68l-3.95-.56Z"/>
        <polygon class="cls-5" points="118.59 219.12 118.34 219.12 118.38 214.81 118.63 214.81 118.59 219.12"/>
        <polygon class="cls-5" points="110.02 229.85 109.77 229.84 109.81 225.54 110.06 225.54 110.02 229.85"/>
        <polygon class="cls-5" points="108.02 229.83 107.77 229.83 107.79 227.99 108.04 227.99 108.02 229.83"/>
        <polygon class="cls-5" points="108.49 235.29 108.24 235.29 108.29 230.98 108.54 230.99 108.49 235.29"/>
        <rect class="cls-2" x="102.89" y="157.17" width="34.73" height="60.14" rx="17.36" ry="17.36"/>
        <path class="cls-13" d="M119.69,217.17c-.55,0-1-.45-1-1v-42.07c0-.55,.45-1,1-1s1,.45,1,1v42.07c0,.55-.45,1-1,1Z"/>
        <path class="cls-13" d="M119.83,189.78c-.55,0-.99-.46-.99-1.01,0-.43,.28-.8,.69-.94l6.78-2.12c.52-.16,1.08,.13,1.25,.65,.17,.53-.12,1.09-.65,1.26,0,0,0,0-.01,0l-6.77,2.11c-.1,.04-.2,.05-.3,.05Z"/>
        <path class="cls-13" d="M119.4,199.24c-.1,0-.2-.01-.29-.05l-6.78-2.11c-.53-.17-.82-.73-.66-1.26,.17-.53,.73-.82,1.26-.65h0l6.77,2.12c.55,.08,.93,.6,.85,1.15-.08,.55-.6,.93-1.15,.85v-.05Z"/>
        <path class="cls-10" d="M131,203.66c1.67,1.88,1,5.23,1,5.23,0,0-3.41,.29-5.08-1.6s-1-5.23-1-5.23c0,0,3.36-.29,5.08,1.6Z"/>
        <path class="cls-10" d="M110.76,200.05c1.66,1.89,1,5.23,1,5.23,0,0-3.4,.29-5.07-1.6s-1-5.23-1-5.23c0,0,3.4-.28,5.07,1.6Z"/>
        <path class="cls-20" d="M134.65,174.36h0c-.55,0-1-.45-1-1,.07-5.45-4.47-11.06-9.72-12-.55-.1-.92-.62-.83-1.18,.1-.55,.62-.92,1.18-.82,6.14,1.09,11.45,7.63,11.37,14,0,.55-.45,1-1,1Z"/>
        <path class="cls-18" d="M133.53,169.26c-.39,0-.75-.23-.91-.59-.83-1.84-2.05-3.47-3.58-4.79-.42-.36-.47-.99-.11-1.41,.36-.42,.99-.47,1.41-.11,1.76,1.51,3.16,3.38,4.11,5.49,.22,.5,0,1.1-.51,1.32h0c-.13,.06-.27,.09-.41,.09Z"/>
        <path class="cls-20" d="M117.75,161.31c-.46,.02-.87-.27-1-.71-.16-.53,.14-1.09,.66-1.25,0,0,0,0,0,0,1.15-.34,2.36-.39,3.53-.15,.54,.14,.86,.69,.72,1.23-.14,.54-.69,.86-1.23,.71-.82-.15-1.66-.11-2.45,.13-.08,.02-.16,.04-.24,.04Z"/>
        <path class="cls-20" d="M134.65,193.55c-.55,0-1-.45-1-1v-15.34c0-.55,.45-1,1-1s1,.45,1,1v15.34c0,.55-.45,1-1,1Z"/>
        <path class="cls-18" d="M134.65,187.64c-.55,0-1-.45-1-1v-4.33c0-.55,.45-1,1-1s1,.45,1,1v4.33c0,.55-.45,1-1,1Z"/>
        <path class="cls-42" d="M417.06,201.54c-1.17,1.33-.68,3.69-.68,3.69,0,0,2.4,.2,3.58-1.13s.68-3.68,.68-3.68c0,0-2.4-.21-3.58,1.12Z"/>
        <path class="cls-10" d="M423.8,209.81c.91,1.52,3.31,1.76,3.31,1.76,0,0,.92-2.23,0-3.75s-3.31-1.76-3.31-1.76c0,0-.91,2.23,0,3.75Z"/>
        <path class="cls-10" d="M429.3,228.13c.91,1.52,3.31,1.76,3.31,1.76,0,0,.92-2.22,0-3.75s-3.32-1.76-3.32-1.76c0,0-.9,2.23,.01,3.75Z"/>
        <path class="cls-10" d="M419.35,229.41c.92,1.53,3.32,1.77,3.32,1.77,0,0,.91-2.23,0-3.76s-3.31-1.76-3.31-1.76c0,0-.92,2.23-.01,3.75Z"/>
        <path class="cls-20" d="M430.09,221.1c1.62,.73,3.72-.44,3.72-.44,0,0-.52-2.36-2.14-3.08s-3.67,.42-3.67,.42c0,0,.47,2.37,2.09,3.1Z"/>
        <path class="cls-20" d="M435.55,233.9c1.62,.73,3.73-.44,3.73-.44,0,0-.52-2.36-2.14-3.08s-3.73,.44-3.73,.44c0,0,.52,2.35,2.14,3.08Z"/>
        <path class="cls-31" d="M444.85,197.81c-1.35,9.62-4.35,14.28-6.54,16.47v-.64c.03-2.28-1.79-4.14-4.07-4.17,0,0-.01,0-.02,0-.07,0-.13-.06-.13-.13h0s.12-11.38,.12-11.38h-4l-.12,11.38c-.02,2.28,1.81,4.14,4.09,4.17,.07,0,.13,.06,.13,.13h0s-.13,13.07-.13,13.07c0,.07-.06,.13-.13,.13h0l-4.26-.05c-2.28-.02-4.14,1.81-4.17,4.09l-.11,11.12h4l.11-11.18c0-.07,.06-.13,.13-.13h0l4.26,.05c2.28,.02,4.14-1.81,4.17-4.09l.08-7.37c1.48-.85,2.8-1.97,3.88-3.29,3.33-4,5.58-9.9,6.67-17.68l-3.96-.5Z"/>
        <polygon class="cls-5" points="437.25 223.35 437 223.34 437.05 219.04 437.3 219.04 437.25 223.35"/>
        <polygon class="cls-5" points="428.68 234.07 428.43 234.07 428.47 229.77 428.72 229.77 428.68 234.07"/>
        <polygon class="cls-5" points="426.68 234.05 426.43 234.05 426.45 232.22 426.7 232.22 426.68 234.05"/>
        <polygon class="cls-5" points="427.16 239.52 426.91 239.51 426.95 235.21 427.2 235.21 427.16 239.52"/>
        <rect class="cls-2" x="421.55" y="161.4" width="34.73" height="60.14" rx="17.36" ry="17.36"/>
        <path class="cls-13" d="M438.35,221.39c-.55,0-1-.45-1-1v-42.07c0-.55,.45-1,1-1s1,.45,1,1v42.07c0,.55-.45,1-1,1Z"/>
        <path class="cls-13" d="M438.49,194c-.55,.08-1.07-.3-1.15-.85s.3-1.07,.85-1.15l6.78-2.11c.51-.21,1.1,.03,1.31,.54,.21,.51-.03,1.1-.54,1.31-.05,.02-.11,.04-.17,.05l-6.78,2.21c-.1,.02-.2,.02-.3,0Z"/>
        <path class="cls-13" d="M438.07,203.47c-.1,0-.2-.02-.3-.05l-6.77-2.12c-.53-.17-.82-.73-.65-1.26s.73-.82,1.26-.65l6.78,2.12c.55,.08,.93,.6,.85,1.15s-.6,.93-1.15,.85v-.04Z"/>
        <path class="cls-10" d="M449.62,207.89c1.66,1.88,1,5.23,1,5.23,0,0-3.4,.28-5.07-1.6s-1-5.23-1-5.23c0,0,3.45-.29,5.07,1.6Z"/>
        <path class="cls-10" d="M429.42,204.28c1.67,1.88,1,5.23,1,5.23,0,0-3.41,.29-5.08-1.6s-1-5.23-1-5.23c0,0,3.41-.29,5.08,1.6Z"/>
        <path class="cls-20" d="M453.31,178.59h0c-.55,0-1-.45-1-1,.08-5.46-4.46-11.06-9.71-12-.54-.1-.91-.62-.81-1.16,0,0,0,0,0,0,.1-.54,.62-.91,1.16-.81,0,0,0,0,0,0,6.14,1.09,11.45,7.63,11.36,14-.02,.54-.46,.97-1,.97Z"/>
        <path class="cls-18" d="M452.2,173.48c-.39,0-.75-.23-.91-.59-.83-1.84-2.06-3.47-3.59-4.78-.42-.36-.47-.99-.11-1.41,.36-.42,.99-.47,1.41-.11,1.76,1.5,3.16,3.38,4.11,5.49,.23,.5,0,1.09-.5,1.32-.13,.06-.27,.08-.41,.08Z"/>
        <path class="cls-20" d="M436.42,165.54c-.55,.08-1.06-.31-1.14-.86-.08-.55,.31-1.06,.86-1.14,1.14-.35,2.35-.4,3.52-.15,.52,.17,.81,.74,.64,1.26-.16,.48-.65,.77-1.15,.67-.82-.15-1.66-.11-2.45,.14-.09,.04-.18,.07-.28,.08Z"/>
        <path class="cls-20" d="M453.31,197.78c-.55,0-1-.45-1-1v-15.34c0-.55,.45-1,1-1s1,.45,1,1v15.34c0,.55-.45,1-1,1Z"/>
        <path class="cls-18" d="M453.31,191.86c-.55,0-1-.45-1-1v-4.33c0-.55,.45-1,1-1s1,.45,1,1v4.33c0,.55-.45,1-1,1Z"/>
        <path class="cls-14" d="M268.59,197.27h0c.73,0,1.32,.59,1.32,1.32v11.29c0,.73-.59,1.32-1.32,1.32h0c-.73,0-1.32-.59-1.32-1.32v-11.29c0-.73,.59-1.32,1.32-1.32Z"/>
        <rect class="cls-14" x="335.31" y="212.88" width="2.07" height="10.94" rx="1.03" ry="1.03"/>
        <rect class="cls-14" x="335.31" y="197.64" width="2.07" height="10.94" rx="1.03" ry="1.03"/>
        <rect class="cls-15" x="335.31" y="204.98" width="2.07" height="10.94" rx="1.03" ry="1.03"/>
        <rect class="cls-15" x="335.31" y="183.91" width="2.07" height="10.94" rx="1.03" ry="1.03"/>
        <rect class="cls-28" x="296.44" y="209.6" width="17.44" height="1.88"/>
        <rect class="cls-22" x="296.44" y="208.38" width="17.44" height="1.88"/>
        <rect class="cls-40" x="296.44" y="209.37" width="17.44" height=".89"/>
        <rect class="cls-28" x="316.82" y="209.6" width="17.44" height="1.88"/>
        <rect class="cls-22" x="316.82" y="208.38" width="17.44" height="1.88"/>
        <rect class="cls-40" x="316.82" y="209.37" width="17.44" height=".89"/>
        <circle class="cls-27" cx="373.71" cy="188.89" r="2.35"/>
        <circle class="cls-27" cx="379.29" cy="189.2" r=".97"/>
        <circle class="cls-27" cx="377.17" cy="191.94" r=".56"/>
        <circle class="cls-27" cx="377.38" cy="185.03" r="1.32"/>
        <rect class="cls-33" x="287.39" y="172.27" width="4.24" height="64.64"/>
        <path class="cls-29" d="M300,240.93h-5.57c-3.27,0-5.92-2.66-5.93-5.93v-4.13h2v4.13c0,2.17,1.76,3.92,3.93,3.93h5.57v2Z"/>
        <path class="cls-64" d="M288.26,220.14c-.41,0-.75-.34-.75-.75v-5.95c0-.41,.34-.75,.75-.75s.75,.34,.75,.75v5.95c0,.41-.34,.74-.75,.75Z"/>
        <path class="cls-30" d="M290.69,228.38c-.55,0-1-.45-1-1v-4.94c0-.55,.45-1,1-1s1,.45,1,1v4.94c0,.55-.45,1-1,1Z"/>
        <path class="cls-64" d="M290.92,195.93c-.41,0-.74-.34-.75-.75v-6c0-.41,.34-.75,.75-.75s.75,.34,.75,.75v6c0,.41-.34,.75-.75,.75Z"/>
        <path class="cls-63" d="M288.26,186.39c-.41,0-.74-.32-.75-.73,0,0,0-.01,0-.02v-5.94c0-.41,.34-.75,.75-.75s.75,.34,.75,.75v5.94c0,.41-.34,.75-.75,.75Z"/>
        <path class="cls-63" d="M288.26,206.3c-.41,0-.74-.32-.75-.73,0,0,0-.01,0-.02v-5.94c0-.41,.34-.75,.75-.75s.75,.34,.75,.75v5.94c0,.41-.34,.75-.75,.75Z"/>
        <circle class="cls-32" cx="228.58" cy="138.82" r="1.04"/>
        <circle class="cls-32" cx="231.12" cy="144" r=".38"/>
        <path class="cls-1" d="M245.76,139.42c-.55,0-1-.45-1-1v-15.36c0-.55,.45-1,1-1s1,.45,1,1v15.36c0,.55-.45,1-1,1Z"/>
        <path class="cls-1" d="M245.76,147.27c-.55,0-1-.45-1-1v-3.43c0-.55,.45-1,1-1s1,.45,1,1v3.43c0,.55-.45,1-1,1Z"/>
        <path class="cls-19" d="M245.76,135.07c-.55,0-1-.45-1-1v-7.48c0-.55,.45-1,1-1s1,.45,1,1v7.48c0,.55-.45,1-1,1Z"/>
        <path class="cls-8" d="M272.63,100.92c-.55,0-1-.45-1-1v-15.36c0-.55,.45-1,1-1s1,.45,1,1v15.36c0,.55-.45,1-1,1Z"/>
        <path class="cls-8" d="M272.63,108.77c-.55,0-1-.45-1-1v-3.44c0-.55,.45-1,1-1s1,.45,1,1v3.44c0,.55-.45,1-1,1Z"/>
        <path class="cls-14" d="M272.63,96.57c-.55,0-1-.45-1-1v-7.48c0-.55,.45-1,1-1s1,.45,1,1v7.48c0,.55-.45,1-1,1Z"/>
        <circle class="cls-38" cx="141.85" cy="49.18" r="2.5"/>
        <circle class="cls-23" cx="140.84" cy="48.59" r=".49"/>
        <circle class="cls-16" cx="142.52" cy="47.81" r=".49"/>
        <rect class="cls-12" x="240.17" y="74.09" width="36.22" height="3.25"/>
        <rect class="cls-56" x="124.33" y="74.09" width="37.15" height="1.62"/>
        <rect class="cls-56" x="127.45" y="69.8" width="30.9" height="1.62"/>
        <path class="cls-9" d="M286.42,242.55h-6.61c-.55,0-1-.45-1-1s.45-1,1-1h6.61c.55,0,1,.45,1,1s-.45,1-1,1Z"/>
        <path class="cls-9" d="M275.51,242.55h-62c-.55,0-1-.45-1-1s.45-1,1-1h62c.55,0,1,.45,1,1s-.45,1-1,1Z"/>
        <path class="cls-9" d="M208.63,242.55h-15c-.55,0-1-.45-1-1s.45-1,1-1h15c.55,0,1,.45,1,1s-.45,1-1,1Z"/>
        <path class="cls-14" d="M189.2,242.55h-3.6c-.55,0-1-.45-1-1s.45-1,1-1h3.6c.55,0,1,.45,1,1s-.45,1-1,1Z"/>
        <path class="cls-14" d="M245.76,242.55h-18.61c-.55,0-1-.45-1-1s.45-1,1-1h18.61c.55,0,1,.45,1,1s-.45,1-1,1Z"/>
        <path class="cls-9" d="M381.06,242.55h-62c-.55,0-1-.45-1-1s.45-1,1-1h62c.55,0,1,.45,1,1s-.45,1-1,1Z"/>
        <path class="cls-9" d="M401,242.55h-15c-.55,0-1-.45-1-1s.45-1,1-1h15c.55,0,1,.45,1,1s-.45,1-1,1Z"/>
        <path class="cls-14" d="M409,242.55h-3.6c-.55,0-1-.45-1-1s.45-1,1-1h3.6c.55,0,1,.45,1,1s-.45,1-1,1Z"/>
        <path class="cls-14" d="M367.42,242.55h-18.61c-.55,0-1-.45-1-1s.45-1,1-1h18.61c.55,0,1,.45,1,1s-.45,1-1,1h0Z"/>
      </g>
    </g>
  </g>
</svg>