<?xml version="1.0" encoding="UTF-8"?>
<svg id="Layer_2" data-name="Layer 2" xmlns="http://www.w3.org/2000/svg" viewBox="0 0 64.85 79.6">
  <defs>
    <style>
      .cls-1 {
        fill: #f2f2ff;
      }

      .cls-2 {
        fill: #000201;
      }

      .cls-3, .cls-4 {
        fill: #fff;
      }

      .cls-5 {
        fill: #c9c9d7;
      }

      .cls-6 {
        fill: #dbefff;
      }

      .cls-7 {
        fill: #8080b9;
      }

      .cls-4 {
        opacity: .44;
      }
    </style>
  </defs>
  <g id="Layer_3" data-name="Layer 3">
    <g>
      <path class="cls-7" d="M30.23,77.67l-18.81-.1,1.76-45.9,14.76,.09c.54,0,.98,.43,1,.98l1.29,44.93Z"/>
      <path class="cls-5" d="M17.2,50.18l15.61-10.89v11.3l.06-.03,14.43-10.06c.5-.35,1.19,0,1.19,.62v9.85h.03s14.28-9.98,14.28-9.98c.56-.39,1.34,0,1.34,.7v37.46h-28.05l-3.52-.07h-12.46"/>
      <polygon class="cls-7" points="23.16 78.67 20.45 78.67 20.09 75.16 19.32 48.53 22.24 46.5 23.16 78.67"/>
      <path class="cls-7" d="M63.01,79.02h-22.87c-.68,0-1.23-.55-1.23-1.23s.55-1.23,1.23-1.23h22.87c.68,0,1.23,.55,1.23,1.23s-.55,1.23-1.23,1.23Z"/>
      <path class="cls-7" d="M59.47,46.32l-7.07,4.95c-.58,.35-1.33,.16-1.68-.42s-.16-1.33,.42-1.68l7.07-4.95c.58-.35,1.33-.16,1.68,.42s.16,1.33-.42,1.68Z"/>
      <rect class="cls-6" x="23.87" y="59.7" width="7.18" height="7.18" rx=".83" ry=".83"/>
      <rect class="cls-6" x="37.24" y="59.7" width="7.18" height="7.18" rx=".83" ry=".83"/>
      <rect class="cls-6" x="50.61" y="59.7" width="7.18" height="7.18" rx=".83" ry=".83"/>
      <polygon class="cls-5" points="19.66 79.1 .82 78.97 3.31 13.88 17.79 14.02 19.66 79.1"/>
      <g>
        <path class="cls-2" d="M29.3,7.25c-.28,0-.5-.22-.5-.5,0-3.17-2.55-5.75-5.67-5.75s-5.67,2.58-5.67,5.75c0,.28-.22,.5-.5,.5s-.5-.22-.5-.5c0-3.72,2.99-6.75,6.67-6.75s6.67,3.03,6.67,6.75c0,.28-.22,.5-.5,.5Z"/>
        <path class="cls-2" d="M23.68,13.97c-.28,0-.5-.22-.5-.5,0-3.42-2.74-6.2-6.12-6.2s-6.12,2.78-6.12,6.2c0,.28-.22,.5-.5,.5s-.5-.22-.5-.5c0-3.97,3.19-7.2,7.12-7.2s7.12,3.23,7.12,7.2c0,.28-.22,.5-.5,.5Z"/>
      </g>
      <polygon class="cls-4" points="39.71 66.89 37.47 66.89 39.31 60.04 41.55 60.04 39.71 66.89"/>
      <polygon class="cls-3" points="41.6 66.89 40.59 66.89 42.43 60.04 43.44 60.04 41.6 66.89"/>
      <polygon class="cls-4" points="53.22 66.89 50.99 66.89 52.83 60.04 55.06 60.04 53.22 66.89"/>
      <polygon class="cls-3" points="55.11 66.89 54.1 66.89 55.94 60.04 56.95 60.04 55.11 66.89"/>
      <polygon class="cls-4" points="26.66 66.89 24.42 66.89 26.26 60.04 28.49 60.04 26.66 66.89"/>
      <polygon class="cls-3" points="28.55 66.89 27.54 66.89 29.38 60.04 30.39 60.04 28.55 66.89"/>
      <rect class="cls-6" x="2.99" y="14.27" width="15.28" height="9.28"/>
      <path class="cls-2" d="M17.98,24.15H8.22c-.28,0-.5-.22-.5-.5s.22-.5,.5-.5h9.76c.28,0,.5,.22,.5,.5s-.22,.5-.5,.5Z"/>
      <path class="cls-2" d="M6.16,24.15H2.69c-.28,0-.5-.22-.5-.5s.22-.5,.5-.5h3.46c.28,0,.5,.22,.5,.5s-.22,.5-.5,.5Z"/>
      <path class="cls-2" d="M10.24,16.87H3.28c-.28,0-.5-.22-.5-.5s.22-.5,.5-.5h6.96c.28,0,.5,.22,.5,.5s-.22,.5-.5,.5Z"/>
      <path class="cls-1" d="M1.75,55.27l.18-4.94c.03-.85,.74-1.51,1.59-1.48s1.51,.74,1.48,1.59l-.18,4.94c-.03,.85-.74,1.51-1.59,1.48s-1.51-.74-1.48-1.59Z"/>
      <path class="cls-1" d="M2.2,38.61l.27-9.7c.01-.85,.71-1.52,1.55-1.51s1.52,.71,1.51,1.55l-.27,9.7c-.01,.85-.71,1.52-1.55,1.51s-1.52-.71-1.51-1.55Z"/>
      <path class="cls-2" d="M43.59,67.38h-1.49c-.28,0-.5-.22-.5-.5s.22-.5,.5-.5h1.49c.18,0,.33-.15,.33-.33v-5.51c0-.18-.15-.33-.33-.33h-5.51c-.18,0-.33,.15-.33,.33v5.51c0,.18,.15,.33,.33,.33h1.51c.28,0,.5,.22,.5,.5s-.22,.5-.5,.5h-1.51c-.74,0-1.33-.6-1.33-1.33v-5.51c0-.74,.6-1.33,1.33-1.33h5.51c.74,0,1.33,.6,1.33,1.33v5.51c0,.74-.6,1.33-1.33,1.33Z"/>
      <path class="cls-2" d="M56.95,67.38h-5.51c-.74,0-1.33-.6-1.33-1.33v-5.51c0-.74,.6-1.33,1.33-1.33h5.51c.74,0,1.33,.6,1.33,1.33v5.51c0,.74-.6,1.33-1.33,1.33Zm-5.51-7.18c-.18,0-.33,.15-.33,.33v5.51c0,.18,.15,.33,.33,.33h5.51c.18,0,.33-.15,.33-.33v-5.51c0-.18-.15-.33-.33-.33h-5.51Z"/>
      <path class="cls-2" d="M30.22,67.38h-5.51c-.74,0-1.33-.6-1.33-1.33v-5.51c0-.74,.6-1.33,1.33-1.33h5.51c.74,0,1.33,.6,1.33,1.33v5.51c0,.74-.6,1.33-1.33,1.33Zm-5.51-7.18c-.18,0-.33,.15-.33,.33v5.51c0,.18,.15,.33,.33,.33h5.51c.18,0,.33-.15,.33-.33v-5.51c0-.18-.15-.33-.33-.33h-5.51Z"/>
      <g>
        <path class="cls-2" d="M29.29,42.23c-.27,0-.49-.21-.5-.49l-.26-9.04c-.01-.39-.33-.7-.72-.7h-9.03c-.28,0-.5-.22-.5-.5s.22-.5,.5-.5h9.03c.94,0,1.7,.74,1.72,1.67l.26,9.04c0,.28-.21,.51-.49,.51h-.01Z"/>
        <path class="cls-2" d="M1.16,61.36h-.02c-.28-.01-.49-.24-.48-.52l.58-15.06c.01-.27,.21-.49,.52-.48,.28,.01,.49,.24,.48,.52l-.58,15.06c-.01,.27-.23,.48-.5,.48Z"/>
        <g>
          <path class="cls-2" d="M33.03,51.05c-.28,0-.5-.22-.5-.5v-10.18l-.42-.48,.28,.41-5.46,3.76c-.23,.16-.54,.1-.7-.13-.16-.23-.1-.54,.13-.7l5.46-3.76c.33-.23,.76-.26,1.12-.07,.36,.19,.58,.56,.58,.96v10.18c0,.28-.22,.5-.5,.5Z"/>
          <path class="cls-2" d="M19.15,49.43c-.16,0-.31-.07-.41-.21-.16-.23-.1-.54,.12-.7l5.31-3.7c.22-.16,.54-.1,.7,.12,.16,.23,.1,.54-.12,.7l-5.31,3.7c-.09,.06-.19,.09-.29,.09Z"/>
          <path class="cls-2" d="M48.7,51.43c-.28,0-.5-.22-.5-.5v-9.8c0-.16-.11-.23-.15-.25-.05-.02-.17-.07-.29,.02l-7.15,4.99c-.22,.16-.54,.1-.7-.12-.16-.23-.1-.54,.12-.7l7.15-4.99c.39-.27,.9-.31,1.33-.08,.42,.22,.69,.66,.69,1.14v9.8c0,.28-.22,.5-.5,.5Z"/>
          <path class="cls-2" d="M33.09,51.02c-.16,0-.31-.07-.41-.21-.16-.23-.1-.54,.12-.7l4.96-3.46c.22-.16,.54-.1,.7,.12,.16,.23,.1,.54-.12,.7l-4.96,3.46c-.09,.06-.19,.09-.29,.09Z"/>
          <path class="cls-2" d="M48.74,51.44c-.16,0-.31-.07-.41-.21-.16-.23-.1-.54,.12-.7l5.25-3.68c.23-.16,.54-.1,.7,.12,.16,.23,.1,.54-.12,.7l-5.25,3.68c-.09,.06-.19,.09-.29,.09Z"/>
          <g>
            <path class="cls-2" d="M31.63,79.53h-11.3c-.28,0-.5-.22-.5-.5s.22-.5,.5-.5h11.3c.28,0,.5,.22,.5,.5s-.22,.5-.5,.5Z"/>
            <path class="cls-2" d="M63.16,79.6h-28.7c-.28,0-.5-.22-.5-.5s.22-.5,.5-.5h28.7c.38,0,.69-.31,.69-.69V41.49c0-.15-.1-.22-.15-.24-.04-.02-.16-.07-.28,.02l-6.83,4.79c-.23,.16-.54,.1-.7-.12-.16-.23-.1-.54,.12-.7l6.83-4.79c.39-.27,.89-.31,1.32-.09,.42,.22,.68,.65,.68,1.13v36.42c0,.93-.76,1.69-1.69,1.69Z"/>
            <path class="cls-2" d="M19.84,79.53H1.59c-.44,0-.84-.17-1.15-.49-.3-.32-.46-.73-.44-1.16l.55-14.34c.01-.28,.21-.47,.52-.48,.28,.01,.49,.24,.48,.52l-.55,14.34c0,.16,.05,.32,.17,.43,.11,.12,.26,.18,.43,.18H19.33l-1.83-63.55c0-.3-.25-.54-.55-.54H3.97c-.3,0-.54,.23-.55,.53l-1.06,27.74c-.01,.27-.23,.48-.5,.48h-.02c-.28-.01-.49-.24-.48-.52L2.42,14.94c.03-.84,.72-1.5,1.55-1.5h12.97c.85,0,1.53,.66,1.55,1.51l1.84,64.06c0,.14-.05,.27-.14,.36-.09,.1-.22,.15-.36,.15Z"/>
          </g>
        </g>
      </g>
      <g>
        <path class="cls-2" d="M5.12,71.1h-.09c-.17-.05-.27-.23-.23-.4l1.06-3.7c.05-.17,.23-.28,.4-.23,0,0,0,0,0,0,.17,.05,.27,.23,.23,.4l-1.06,3.7c-.04,.14-.17,.23-.31,.23Z"/>
        <path class="cls-2" d="M6.46,73.64h-.09c-.17-.05-.28-.23-.23-.4,0,0,0,0,0,0l2.11-7.37c.04-.17,.22-.27,.39-.23,0,0,0,0,.01,0,.17,.05,.28,.23,.23,.4,0,0,0,0,0,0l-2.11,7.36c-.04,.14-.17,.24-.31,.23Z"/>
      </g>
      <path class="cls-2" d="M13.97,19.92H2.99c-.28,0-.5-.22-.5-.5s.22-.5,.5-.5H13.97c.28,0,.5,.22,.5,.5s-.22,.5-.5,.5Z"/>
    </g>
  </g>
</svg>