<?xml version="1.0" encoding="UTF-8"?>
<svg id="Layer_2" data-name="Layer 2" xmlns="http://www.w3.org/2000/svg" viewBox="0 0 83.8 56.31">
  <defs>
    <style>
      .cls-1 {
        fill: #000201;
      }

      .cls-2 {
        fill: #ffe0c4;
      }

      .cls-3 {
        fill: #fcdc3f;
      }

      .cls-4, .cls-5 {
        fill: #e58f41;
      }

      .cls-6 {
        fill: #fff;
      }

      .cls-7 {
        fill: #ffefab;
      }

      .cls-8 {
        fill: #efc30c;
      }

      .cls-9 {
        fill: #fbb570;
      }

      .cls-10, .cls-11 {
        fill: #d89000;
      }

      .cls-12 {
        fill: #c9c9d7;
      }

      .cls-13 {
        fill: #dbefff;
      }

      .cls-14 {
        fill: #6f6372;
      }

      .cls-15 {
        fill: #8686b2;
      }

      .cls-16 {
        fill: #5ccce8;
      }

      .cls-11 {
        opacity: .58;
      }

      .cls-5 {
        opacity: .52;
      }
    </style>
  </defs>
  <g id="Layer_3" data-name="Layer 3">
    <g>
      <rect class="cls-9" x="78.93" y="28.95" width="4.37" height="4.37"/>
      <path class="cls-1" d="M83.3,33.82h-4.37c-.28,0-.5-.22-.5-.5v-4.37c0-.28,.22-.5,.5-.5h4.37c.28,0,.5,.22,.5,.5v4.37c0,.28-.22,.5-.5,.5Zm-3.87-1h3.37v-3.37h-3.37v3.37Z"/>
      <path class="cls-9" d="M17.62,48.42l-5.82-.1-1.16-5.36-.77-6.77L6.52,7.18c-.41-3.45,2.33-6.48,5.84-6.48H50.1c2.35,0,4.25,1.88,4.25,4.2V48.42H17.62Z"/>
      <path class="cls-3" d="M53.62,48.39V4.87c0-.25-.02-.5-.07-.73l.34,.12h19.1c3.88,0,7.03,3.15,7.03,7.03v15.26l-3.29-2.88,2.29,2.35c.96,.99,1.51,2.33,1.51,3.72v17.72c0,.64-.52,1.16-1.16,1.16h-23.04"/>
      <path class="cls-13" d="M57.64,7.46h14.6c2.32,0,4.21,1.89,4.21,4.21v11.33h-18.82c-.84,0-1.53-.68-1.53-1.53V8.99c0-.84,.68-1.53,1.53-1.53Z"/>
      <g>
        <path class="cls-1" d="M45.5,42.05h-.08c-.16-.05-.26-.21-.21-.37l.98-3.44c.04-.16,.21-.26,.37-.21,0,0,0,0,0,0,.16,.05,.26,.21,.21,.37l-.99,3.44c-.04,.13-.16,.21-.29,.21Z"/>
        <path class="cls-1" d="M46.74,44.41h-.08c-.16-.04-.26-.21-.21-.37,0,0,0,0,0,0l1.96-6.85c.04-.16,.2-.25,.36-.21,0,0,0,0,.01,0,.16,.04,.26,.21,.21,.37,0,0,0,0,0,0l-1.96,6.85c-.04,.13-.16,.22-.29,.22Z"/>
      </g>
      <path class="cls-2" d="M38.32,3.9h-12.98c-.92,0-1.67-.75-1.67-1.67,0-.92,.75-1.67,1.67-1.67h12.99c.92,0,1.67,.75,1.67,1.67s-.75,1.67-1.67,1.67h0Z"/>
      <path class="cls-2" d="M49.21,3.9h-4.71c-.92,0-1.67-.75-1.67-1.67,0-.92,.75-1.67,1.67-1.67h4.71c.92,0,1.67,.75,1.67,1.67s-.75,1.67-1.67,1.67h0Z"/>
      <path class="cls-2" d="M19.57,3.9h-4.71c-.92,0-1.67-.75-1.67-1.67,0-.92,.75-1.67,1.67-1.67h4.71c.92,0,1.67,.75,1.67,1.67,0,.92-.75,1.67-1.67,1.67Z"/>
      <path class="cls-6" d="M33.3,3.9h-3.61c-.92,0-1.67-.75-1.67-1.67,0-.92,.75-1.67,1.67-1.67h3.61c.92,0,1.67,.75,1.67,1.67s-.75,1.67-1.67,1.67h0Z"/>
      <path class="cls-8" d="M53.45,45.19v-12.98c0-.92,.75-1.67,1.67-1.67,.92,0,1.67,.75,1.67,1.67h0v12.99c0,.92-.75,1.67-1.67,1.67s-1.67-.75-1.67-1.67h0Z"/>
      <path class="cls-8" d="M53.45,26.45v-4.71c0-.92,.75-1.67,1.67-1.67,.92,0,1.67,.75,1.67,1.67v4.71c0,.92-.75,1.67-1.67,1.67-.92,0-1.67-.75-1.67-1.67Z"/>
      <path class="cls-10" d="M53.45,40.17v-3.61c0-.92,.75-1.67,1.67-1.67,.92,0,1.67,.75,1.67,1.67v3.61c0,.92-.75,1.67-1.67,1.67s-1.67-.75-1.67-1.67h0Z"/>
      <path class="cls-5" d="M9.62,34.02l-1.39-12.91c-.1-.92,.56-1.74,1.48-1.84,.92-.1,1.74,.56,1.84,1.48h0s1.39,12.91,1.39,12.91c.1,.92-.56,1.74-1.48,1.84s-1.74-.56-1.84-1.48h0Z"/>
      <path class="cls-4" d="M9.09,29.03l-.39-3.59c-.1-.92,.57-1.74,1.48-1.84,.92-.1,1.74,.57,1.84,1.48l.39,3.59c.1,.92-.56,1.74-1.48,1.84s-1.74-.56-1.84-1.48h0Z"/>
      <path class="cls-11" d="M53.45,13.31v-3.61c0-.92,.75-1.67,1.67-1.67,.92,0,1.67,.75,1.67,1.67v3.61c0,.92-.75,1.67-1.67,1.67s-1.67-.75-1.67-1.67h0Z"/>
      <path class="cls-16" d="M61.58,9.59h-4.12c-.49,0-.89-.4-.89-.89s.4-.89,.89-.89h4.12c.49,0,.89,.4,.89,.89s-.4,.89-.89,.89Z"/>
      <path class="cls-16" d="M56.84,13.72v-4.12c0-.49,.4-.89,.89-.89s.89,.4,.89,.89h0v4.12c0,.49-.4,.89-.89,.89s-.89-.4-.89-.89Z"/>
      <g>
        <polygon class="cls-6" points="61.02 23.03 60.06 23.03 63.52 7 64.48 7 61.02 23.03"/>
        <polygon class="cls-6" points="66.52 23.03 62.48 23.03 65.94 7 69.99 7 66.52 23.03"/>
      </g>
      <circle class="cls-14" cx="24.65" cy="48.26" r="7.37"/>
      <g>
        <path class="cls-1" d="M19.28,14.82H.62c-.34,0-.62-.28-.62-.62s.28-.62,.62-.62H19.28c.34,0,.62,.28,.62,.62s-.28,.62-.62,.62Z"/>
        <path class="cls-1" d="M12.84,18.59H3.54c-.34,0-.62-.28-.62-.62s.28-.62,.62-.62H12.84c.34,0,.62,.28,.62,.62s-.28,.62-.62,.62Z"/>
        <path class="cls-1" d="M13.43,28.88H4.71c-.34,0-.62-.28-.62-.62s.28-.62,.62-.62H13.43c.34,0,.62,.28,.62,.62s-.28,.62-.62,.62Z"/>
        <path class="cls-1" d="M21.61,33H4.13c-.34,0-.62-.28-.62-.62s.28-.62,.62-.62H21.61c.34,0,.62,.28,.62,.62s-.28,.62-.62,.62Z"/>
      </g>
      <circle class="cls-12" cx="24.41" cy="48.43" r="3.44"/>
      <path class="cls-7" d="M79.34,48.28h-3.9c-.83,0-1.5-.67-1.5-1.5s.67-1.5,1.5-1.5h2.4v-15.81c0-.83,.67-1.5,1.5-1.5s1.5,.67,1.5,1.5v17.32c0,.83-.67,1.5-1.5,1.5Z"/>
      <path class="cls-7" d="M61.83,46.71c.07-.35,.16-.7,.27-1.04,.05-.15,.11-.31,.17-.46,.07-.2-.17,.36-.04,.1,.04-.09,.08-.17,.12-.25,.14-.28,.3-.54,.47-.8,.04-.06,.09-.13,.13-.19,.16-.22,0,0-.07,.09,.12-.12,.22-.26,.33-.39,.23-.25,.47-.49,.73-.71,.07-.06,.13-.12,.2-.17,.04-.03,.08-.07,.13-.1,.1-.08,.06-.04-.13,.1,0,0,.4-.29,.44-.31,.3-.2,.61-.39,.93-.56,.17-.09,.35-.18,.52-.26,.08-.04,.16-.07,.24-.11l-.22,.09c.06-.03,.13-.05,.19-.07,.42-.16,.78-.37,1.01-.78,.21-.36,.3-.9,.17-1.3-.26-.8-1.2-1.52-2.08-1.18-1.69,.65-3.3,1.63-4.52,2.98-1.14,1.26-1.92,2.77-2.26,4.44-.18,.87,.25,1.87,1.18,2.08,.85,.19,1.89-.25,2.08-1.18h0Z"/>
      <circle class="cls-14" cx="68.54" cy="48.09" r="7.37"/>
      <circle class="cls-12" cx="68.69" cy="48.49" r="3.44"/>
      <circle class="cls-15" cx="68.61" cy="48.4" r="1.78"/>
      <circle class="cls-15" cx="24.95" cy="48.4" r="1.78"/>
      <g>
        <path class="cls-6" d="M20.8,46.55c0-.08,.04-.16,.06-.25s.03-.09,.05-.13,.09-.22,0-.06,0,0,0-.04l.06-.12c.04-.08,.09-.16,.13-.24s.11-.18,.17-.26c.03-.04,.06-.08,.09-.12-.05,.09-.11,.13,0,0,.13-.15,.27-.3,.42-.44l.23-.2c.15-.12-.16,.12,0,0l.13-.09c.19-.12,.38-.24,.58-.34l.15-.07,.11-.05-.1,.04s.28-.11,.33-.12c.25-.08,.51-.15,.77-.19,.47-.13,.74-.61,.61-1.08-.15-.45-.62-.7-1.08-.58-2,.36-3.91,1.84-4.41,3.87-.13,.47,.15,.95,.61,1.08,.47,.13,.95-.15,1.08-.61h0Z"/>
        <circle class="cls-6" cx="26.04" cy="43.21" r=".91"/>
      </g>
      <g>
        <g>
          <path class="cls-1" d="M62.56,29.53h-8.33c-.28,0-.5-.22-.5-.5s.22-.5,.5-.5h8.33c.28,0,.5,.22,.5,.5s-.22,.5-.5,.5Z"/>
          <path class="cls-1" d="M66.02,29.53h-1.29c-.28,0-.5-.22-.5-.5s.22-.5,.5-.5h1.29c.28,0,.5,.22,.5,.5s-.22,.5-.5,.5Z"/>
        </g>
        <g>
          <path class="cls-1" d="M38.85,1h-12.88c-.28,0-.5-.22-.5-.5s.22-.5,.5-.5h12.88c.28,0,.5,.22,.5,.5s-.22,.5-.5,.5Z"/>
          <g>
            <path class="cls-1" d="M76.72,23.99h-9.18c-.28,0-.5-.22-.5-.5s.22-.5,.5-.5h8.68V12.55c0-2.52-2.05-4.57-4.57-4.57h-13.6c-.55,0-1,.45-1,1v14.01h7.58c.28,0,.5,.22,.5,.5s-.22,.5-.5,.5h-8.08c-.28,0-.5-.22-.5-.5V8.98c0-1.1,.9-2,2-2h13.6c3.07,0,5.57,2.5,5.57,5.57v10.94c0,.28-.22,.5-.5,.5Z"/>
            <path class="cls-1" d="M43.93,48.72h-11.53c-.28,0-.5-.22-.5-.5s.22-.5,.5-.5h11.53c.28,0,.5,.22,.5,.5s-.22,.5-.5,.5Z"/>
            <path class="cls-1" d="M54.21,48.72h-6.66c-.28,0-.5-.22-.5-.5s.22-.5,.5-.5h6.15l-.57-24.13c0-.28,.21-.5,.49-.51,.27-.02,.51,.21,.51,.49l.58,24.64c0,.13-.05,.26-.14,.36-.09,.1-.22,.15-.36,.15Z"/>
            <path class="cls-1" d="M53.62,21.28c-.28,0-.5-.22-.5-.5V4.7c0-2.04-1.66-3.7-3.7-3.7h-5.82c-.28,0-.5-.22-.5-.5s.22-.5,.5-.5h5.82c2.59,0,4.7,2.11,4.7,4.7V20.78c0,.28-.22,.5-.5,.5Z"/>
            <path class="cls-1" d="M10.16,39.91c-.25,0-.47-.19-.5-.44L5.89,7.04c-.21-1.79,.36-3.58,1.55-4.92,1.2-1.34,2.91-2.11,4.71-2.11h9.33c.28,0,.5,.22,.5,.5s-.22,.5-.5,.5H12.16c-1.51,0-2.96,.65-3.97,1.78-1.01,1.13-1.48,2.64-1.31,4.14l3.77,32.43c.03,.27-.17,.52-.44,.55-.02,0-.04,0-.06,0Z"/>
            <path class="cls-1" d="M17.35,48.72h-6.17c-.25,0-.47-.19-.5-.44l-.68-5.83c-.03-.27,.17-.52,.44-.55,.27-.03,.52,.17,.55,.44l.63,5.39h5.72c.28,0,.5,.22,.5,.5s-.22,.5-.5,.5Z"/>
            <path class="cls-1" d="M80.01,27.46c-.28,0-.5-.22-.5-.5V11.11c0-3.6-2.93-6.53-6.53-6.53h-19.1c-.28,0-.5-.22-.5-.5s.22-.5,.5-.5h19.1c4.15,0,7.53,3.38,7.53,7.53v15.85c0,.28-.22,.5-.5,.5Z"/>
            <path class="cls-1" d="M24.82,56.31c-4.34,0-7.88-3.53-7.88-7.87s3.53-7.87,7.88-7.87,7.87,3.53,7.87,7.87-3.53,7.87-7.87,7.87Zm0-14.75c-3.79,0-6.88,3.08-6.88,6.87s3.08,6.87,6.88,6.87,6.87-3.08,6.87-6.87-3.08-6.87-6.87-6.87Z"/>
            <path class="cls-1" d="M24.92,52.37c-2.17,0-3.94-1.77-3.94-3.94s1.77-3.94,3.94-3.94,3.94,1.77,3.94,3.94-1.77,3.94-3.94,3.94Zm0-6.88c-1.62,0-2.94,1.32-2.94,2.94s1.32,2.94,2.94,2.94,2.94-1.32,2.94-2.94-1.32-2.94-2.94-2.94Z"/>
            <path class="cls-1" d="M80.51,35.91c-.28,0-.5-.22-.5-.5v-5.85c0-1.26-.49-2.46-1.37-3.37l-2.29-2.35c-.19-.2-.19-.51,0-.71,.2-.19,.52-.19,.71,0l2.29,2.35c1.06,1.09,1.65,2.54,1.65,4.06v5.85c0,.28-.22,.5-.5,.5Z"/>
            <path class="cls-1" d="M79.36,48.94h-2.86c-.28,0-.5-.22-.5-.5s.22-.5,.5-.5h2.86c.36,0,.66-.29,.66-.66v-9.36c0-.28,.22-.5,.5-.5s.5,.22,.5,.5v9.36c0,.91-.74,1.66-1.66,1.66Z"/>
            <path class="cls-1" d="M68.59,56.31c-4.34,0-7.87-3.53-7.87-7.87s3.53-7.87,7.87-7.87,7.87,3.53,7.87,7.87-3.53,7.87-7.87,7.87Zm0-14.75c-3.79,0-6.87,3.08-6.87,6.87s3.08,6.87,6.87,6.87,6.87-3.08,6.87-6.87-3.08-6.87-6.87-6.87Z"/>
            <path class="cls-1" d="M68.59,52.37c-2.17,0-3.94-1.77-3.94-3.94s1.77-3.94,3.94-3.94,3.94,1.77,3.94,3.94-1.77,3.94-3.94,3.94Zm0-6.88c-1.62,0-2.94,1.32-2.94,2.94s1.32,2.94,2.94,2.94,2.94-1.32,2.94-2.94-1.32-2.94-2.94-2.94Z"/>
            <path class="cls-1" d="M61.07,48.94h-4.75c-.28,0-.5-.22-.5-.5s.22-.5,.5-.5h4.75c.28,0,.5,.22,.5,.5s-.22,.5-.5,.5Z"/>
          </g>
        </g>
      </g>
    </g>
  </g>
</svg>