<?xml version="1.0" encoding="UTF-8"?>
<svg id="Layer_2" data-name="Layer 2" xmlns="http://www.w3.org/2000/svg" viewBox="0 0 77.48 54.31">
  <defs>
    <style>
      .cls-1 {
        fill: #000201;
      }

      .cls-2 {
        fill: #fcdc3f;
      }

      .cls-3 {
        fill: #ffefab;
      }

      .cls-4 {
        fill: #caf8ff;
      }

      .cls-5 {
        fill: #85e4f9;
      }

      .cls-6 {
        fill: #24b6ce;
      }
    </style>
  </defs>
  <g id="Layer_3" data-name="Layer 3">
    <g>
      <path class="cls-5" d="M49.82,21.78c-.36,.35-.52,.85-.44,1.34l1.65,9.59c.22,1.23-1.08,2.17-2.19,1.59l-8.61-4.53c-.44-.23-.97-.23-1.41,0l-1.29,.67-2.02,1.07-1.74,.91-3.56,1.87c-.44,.23-.91,.22-1.3,.05-.6-.25-1.03-.89-.89-1.64l1.65-9.59c.08-.49-.08-.99-.44-1.34l-6.97-6.79c-.9-.88-.4-2.4,.83-2.58l9.63-1.4c.49-.07,.92-.38,1.14-.83l2.65-5.37,1.66-3.35c.55-1.13,2.16-1.13,2.71,0l.56,1.15,.99,2.01,1.15,2.32,1.6,3.24c.22,.45,.65,.76,1.14,.83l9.63,1.4c1.24,.18,1.74,1.71,.84,2.58l-6.97,6.79Z"/>
      <path class="cls-2" d="M51.69,39.34l1.89,3.82c.1,.2,.28,.33,.5,.36l4.22,.61c.54,.08,.76,.75,.37,1.13l-3.05,2.98c-.16,.15-.23,.37-.19,.59l.72,4.2c.09,.54-.48,.95-.96,.7l-3.78-1.98c-.19-.1-.42-.1-.62,0l-3.78,1.98c-.49,.26-1.05-.16-.96-.7l.72-4.2c.04-.22-.03-.43-.19-.59l-3.05-2.98c-.39-.38-.18-1.05,.37-1.13l4.22-.61c.22-.03,.4-.17,.5-.36l1.89-3.82c.24-.49,.95-.49,1.19,0Z"/>
      <path class="cls-2" d="M69.8,30.33l1.89,3.82c.1,.2,.28,.33,.5,.36l4.22,.61c.54,.08,.76,.75,.37,1.13l-3.05,2.98c-.16,.15-.23,.37-.19,.59l.72,4.2c.09,.54-.48,.95-.96,.7l-3.78-1.98c-.19-.1-.42-.1-.62,0l-3.78,1.98c-.49,.26-1.05-.16-.96-.7l.72-4.2c.04-.22-.03-.43-.19-.59l-3.05-2.98c-.39-.38-.18-1.05,.37-1.13l4.22-.61c.22-.03,.4-.17,.5-.36l1.89-3.82c.24-.49,.95-.49,1.19,0Z"/>
      <path class="cls-3" d="M45.16,46.1c.88,.85,1.78,1.68,2.69,2.5l-.33-1.24c-.25,1.63-.5,3.26-.75,4.89-.1,.66,.17,1.4,.89,1.57,.61,.14,1.46-.19,1.57-.89,.13-.83,.26-1.65,.38-2.48l.26-1.68c.05-.34,.16-.72,.16-1.06,0-.83-.96-1.43-1.52-1.95-.52-.48-1.03-.96-1.54-1.45-.48-.46-1.33-.51-1.8,0s-.51,1.31,0,1.8h0Z"/>
      <path class="cls-3" d="M62.85,36.95c.88,.85,1.78,1.68,2.69,2.5l-.33-1.24c-.25,1.63-.5,3.26-.75,4.89-.1,.66,.17,1.4,.89,1.57,.61,.14,1.46-.19,1.57-.89,.13-.83,.26-1.65,.38-2.48l.26-1.68c.05-.34,.16-.72,.16-1.06,0-.83-.96-1.43-1.52-1.95-.52-.48-1.03-.96-1.54-1.45-.48-.46-1.33-.51-1.8,0s-.51,1.31,0,1.8h0Z"/>
      <path class="cls-2" d="M28.76,39.34l1.89,3.82c.1,.2,.28,.33,.5,.36l4.22,.61c.54,.08,.76,.75,.37,1.13l-3.05,2.98c-.16,.15-.23,.37-.19,.59l.72,4.2c.09,.54-.48,.95-.96,.7l-3.78-1.98c-.19-.1-.42-.1-.62,0l-3.78,1.98c-.49,.26-1.05-.16-.96-.7l.72-4.2c.04-.22-.03-.43-.19-.59l-3.05-2.98c-.39-.38-.18-1.05,.37-1.13l4.22-.61c.22-.03,.4-.17,.5-.36l1.89-3.82c.24-.49,.95-.49,1.19,0Z"/>
      <path class="cls-3" d="M21.82,45.84c.88,.85,1.78,1.68,2.69,2.5l-.33-1.24c-.25,1.63-.5,3.26-.75,4.89-.1,.66,.17,1.4,.89,1.57,.61,.14,1.46-.19,1.57-.89,.13-.83,.26-1.65,.38-2.48l.26-1.68c.05-.34,.16-.72,.16-1.06,0-.83-.96-1.43-1.52-1.95-.52-.48-1.03-.96-1.54-1.45-.48-.46-1.33-.51-1.8,0s-.51,1.31,0,1.8h0Z"/>
      <path class="cls-2" d="M8.87,30.18l1.89,3.82c.1,.2,.28,.33,.5,.36l4.22,.61c.54,.08,.76,.75,.37,1.13l-3.05,2.98c-.16,.15-.23,.37-.19,.59l.72,4.2c.09,.54-.48,.95-.96,.7l-3.78-1.98c-.19-.1-.42-.1-.62,0l-3.78,1.98c-.49,.26-1.05-.16-.96-.7l.72-4.2c.04-.22-.03-.43-.19-.59l-3.05-2.98c-.39-.38-.18-1.05,.37-1.13l4.22-.61c.22-.03,.4-.17,.5-.36l1.89-3.82c.24-.49,.95-.49,1.19,0Z"/>
      <path class="cls-3" d="M1.92,36.68c.88,.85,1.78,1.68,2.69,2.5l-.33-1.24c-.25,1.63-.5,3.26-.75,4.89-.1,.66,.17,1.4,.89,1.57,.61,.14,1.46-.19,1.57-.89,.13-.83,.26-1.65,.38-2.48l.26-1.68c.05-.34,.16-.72,.16-1.06,0-.83-.96-1.43-1.52-1.95-.52-.48-1.03-.96-1.54-1.45-.48-.46-1.33-.51-1.8,0s-.51,1.31,0,1.8h0Z"/>
      <path class="cls-4" d="M29.69,23.47c-.48,2.8-.96,5.6-1.44,8.39-.27,1.57,1.17,2.76,2.65,2.03,3.22-1.58,6.44-3.17,9.66-4.75h-1.82c3.26,1.73,6.52,3.46,9.77,5.19,2.05,1.09,3.87-2.02,1.82-3.11-2.89-1.54-5.78-3.07-8.67-4.61-.37-.19-.73-.41-1.1-.59-.88-.42-1.58-.12-2.36,.26l-4.9,2.41-4.23,2.08,2.65,2.03c.48-2.8,.96-5.6,1.44-8.39,.16-.96-.25-1.94-1.26-2.22-.87-.24-2.05,.29-2.22,1.26h0Z"/>
      <path class="cls-6" d="M46.3,14.32c2.4,.34,4.8,.69,7.2,1.03l1.02,.15c.5,.07,.93,.08,1.39-.18,.37-.22,.73-.65,.83-1.08,.19-.85-.26-2.07-1.26-2.22-2.4-.34-4.8-.69-7.2-1.03l-1.02-.15c-.5-.07-.93-.08-1.39,.18-.37,.22-.73,.65-.83,1.08-.19,.85,.26,2.07,1.26,2.22h0Z"/>
      <g>
        <path class="cls-1" d="M25.42,18.36c-.13,0-.25-.05-.35-.14l-3.06-2.98c-.55-.54-.75-1.33-.51-2.06,.24-.73,.86-1.26,1.62-1.37l3.14-.46c.26-.04,.53,.15,.57,.42,.04,.27-.15,.53-.42,.57l-3.14,.46c-.39,.06-.7,.31-.82,.69-.12,.37-.03,.76,.26,1.04l3.06,2.98c.2,.19,.2,.51,0,.71-.1,.1-.23,.15-.36,.15Z"/>
        <path class="cls-1" d="M23.78,54.31c-.24,0-.48-.08-.68-.22-.36-.26-.54-.7-.46-1.14l.72-4.21c0-.05,0-.11-.05-.14l-3.05-2.98c-.32-.31-.43-.77-.29-1.19s.5-.73,.94-.79l4.22-.61c.05,0,.1-.04,.12-.09l1.89-3.83c.2-.4,.6-.65,1.04-.65s.85,.25,1.04,.65h0l1.89,3.83s.07,.08,.12,.09l4.22,.61c.44,.06,.8,.37,.94,.79,.14,.42,.02,.88-.29,1.19l-3.05,2.98s-.06,.09-.05,.14l.72,4.2c.08,.44-.1,.88-.46,1.14-.36,.26-.83,.3-1.22,.09l-3.78-1.99s-.1-.03-.15,0l-3.78,1.99c-.17,.09-.36,.13-.54,.13Zm4.39-14.85s-.11,.01-.15,.09l-1.89,3.83c-.17,.34-.5,.58-.88,.64l-4.22,.61c-.09,.01-.12,.08-.13,.11s-.02,.11,.04,.17l3.05,2.98c.27,.27,.4,.65,.33,1.03l-.72,4.2c-.02,.09,.03,.14,.06,.16,.03,.02,.09,.05,.17,.01l3.78-1.99c.34-.18,.74-.18,1.08,0l3.78,1.99c.08,.04,.14,0,.17-.01s.08-.07,.06-.16l-.72-4.2c-.06-.38,.06-.76,.33-1.03l3.05-2.98c.06-.06,.05-.13,.04-.17s-.04-.1-.13-.11l-4.22-.61c-.38-.05-.71-.29-.88-.64l-1.89-3.83c-.04-.08-.11-.09-.15-.09Z"/>
        <path class="cls-1" d="M3.88,45.16c-.24,0-.48-.08-.68-.22-.36-.26-.54-.7-.46-1.14l.72-4.21c0-.05,0-.11-.05-.14l-3.05-2.98c-.32-.31-.43-.77-.29-1.19s.5-.73,.94-.79l4.22-.61c.05,0,.1-.04,.12-.09l1.89-3.83c.2-.4,.6-.65,1.04-.65s.85,.25,1.04,.65h0l1.89,3.83s.07,.08,.12,.09l4.22,.61c.44,.06,.8,.37,.94,.79,.14,.42,.02,.88-.29,1.19l-3.05,2.98s-.06,.09-.05,.14l.72,4.2c.08,.44-.1,.88-.46,1.14-.36,.26-.83,.3-1.22,.09l-3.78-1.99s-.1-.03-.15,0l-3.78,1.99c-.17,.09-.36,.13-.54,.13Zm4.39-14.85s-.11,.01-.15,.09l-1.89,3.83c-.17,.34-.5,.58-.88,.64l-4.22,.61c-.09,.01-.12,.08-.13,.11s-.02,.11,.04,.17l3.05,2.98c.27,.27,.4,.65,.33,1.03l-.72,4.2c-.02,.09,.03,.14,.06,.16,.03,.02,.09,.05,.17,.01l3.78-1.99c.34-.18,.74-.18,1.08,0l3.78,1.99c.08,.04,.14,.01,.17-.01,.03-.02,.08-.07,.06-.16l-.72-4.2c-.06-.38,.06-.76,.33-1.03l3.05-2.98c.06-.06,.05-.13,.04-.17s-.04-.1-.13-.11l-4.22-.61c-.38-.05-.71-.29-.88-.64l-1.89-3.83c-.04-.08-.11-.09-.15-.09Z"/>
        <path class="cls-1" d="M55.48,54.31c-.18,0-.37-.04-.54-.13l-3.78-1.99s-.1-.03-.15,0l-3.78,1.99c-.39,.21-.86,.17-1.22-.09-.36-.26-.54-.7-.46-1.14l.72-4.21c0-.05,0-.11-.05-.14l-3.05-2.98c-.32-.31-.43-.77-.29-1.19,.14-.42,.5-.73,.94-.79l4.22-.61c.05,0,.1-.04,.12-.09l1.89-3.83c.2-.4,.6-.65,1.04-.65s.84,.25,1.04,.65h0l1.89,3.83s.07,.08,.12,.09l4.22,.61c.44,.06,.8,.37,.94,.79,.14,.42,.02,.88-.29,1.19l-3.05,2.98s-.06,.09-.05,.14l.72,4.2c.08,.44-.1,.88-.46,1.14-.2,.15-.44,.22-.68,.22Zm-4.39-3.14c.19,0,.37,.04,.54,.13l3.77,1.99c.08,.04,.14,0,.17-.01,.03-.02,.08-.07,.06-.16l-.72-4.2c-.06-.38,.06-.76,.33-1.03l3.05-2.98c.06-.06,.05-.13,.04-.17-.01-.04-.04-.1-.13-.11l-4.22-.61c-.38-.05-.71-.29-.88-.64l-1.89-3.83c-.08-.16-.21-.16-.29,0l-1.89,3.83c-.17,.34-.5,.58-.88,.64l-4.22,.61c-.09,.01-.12,.08-.13,.11-.01,.04-.02,.11,.04,.17l3.05,2.98c.27,.27,.4,.65,.34,1.03l-.72,4.21c-.02,.09,.03,.14,.06,.16s.09,.05,.17,.01l3.78-1.99c.17-.09,.36-.13,.54-.13Z"/>
        <path class="cls-1" d="M73.6,45.31c-.18,0-.37-.04-.54-.13l-3.78-1.98s-.1-.03-.15,0l-3.78,1.98c-.4,.21-.86,.17-1.22-.09-.36-.26-.54-.7-.46-1.14l.72-4.2c0-.05,0-.11-.05-.14l-3.05-2.98c-.32-.31-.43-.77-.29-1.19,.14-.42,.5-.73,.94-.79l4.22-.61c.05,0,.1-.04,.12-.09l1.89-3.83c.2-.4,.6-.65,1.04-.65s.84,.25,1.04,.65l1.89,3.82s.07,.08,.12,.09l4.22,.61c.44,.06,.8,.37,.94,.79,.14,.42,.02,.88-.29,1.19l-3.05,2.98s-.06,.09-.05,.14l.72,4.2c.08,.44-.1,.88-.46,1.14-.2,.15-.44,.22-.68,.22Zm-4.39-3.14c.19,0,.37,.04,.54,.13l3.77,1.98c.08,.04,.14,0,.17-.01,.03-.02,.08-.07,.06-.16l-.72-4.2c-.06-.38,.06-.76,.33-1.03l3.05-2.98c.06-.06,.05-.13,.04-.17s-.04-.1-.13-.11l-4.22-.61c-.38-.05-.71-.29-.88-.64l-1.89-3.82h0c-.08-.16-.21-.16-.29,0l-1.89,3.83c-.17,.34-.5,.58-.88,.64l-4.22,.61c-.09,.01-.12,.07-.13,.11s-.02,.11,.04,.17l3.05,2.98c.27,.27,.4,.65,.34,1.03l-.72,4.21c-.02,.09,.03,.14,.06,.16,.03,.02,.09,.05,.17,.01l3.78-1.98c.17-.09,.36-.13,.54-.13Z"/>
        <path class="cls-1" d="M29.61,34.86c-.42,0-.83-.13-1.18-.39-.62-.45-.93-1.21-.8-1.97l1.65-9.59c.06-.33-.05-.66-.29-.9l-1.94-1.89c-.2-.19-.2-.51,0-.71,.2-.2,.51-.2,.71,0l1.94,1.89c.47,.46,.69,1.13,.58,1.78l-1.65,9.59c-.07,.39,.08,.76,.4,.99,.32,.23,.72,.26,1.07,.08l8.61-4.53c.58-.31,1.29-.31,1.87,0l8.61,4.53c.35,.18,.75,.15,1.07-.08,.32-.23,.47-.6,.4-.99l-1.64-9.59c-.11-.65,.1-1.32,.58-1.78l6.97-6.79c.28-.27,.38-.66,.26-1.04-.12-.38-.43-.63-.82-.69l-9.63-1.4c-.66-.1-1.22-.51-1.52-1.1L40.54,1.56c-.17-.35-.51-.56-.91-.56h0c-.39,0-.73,.21-.91,.56l-4.31,8.72c-.29,.59-.86,1-1.51,1.1l-3.15,.46c-.27,.03-.53-.15-.57-.42-.04-.27,.15-.53,.42-.57l3.15-.46c.33-.05,.62-.26,.76-.55L37.83,1.12c.34-.69,1.03-1.12,1.8-1.12h0c.77,0,1.46,.43,1.8,1.12l4.31,8.72c.15,.3,.43,.51,.76,.55l9.63,1.4c.76,.11,1.39,.64,1.62,1.37,.24,.73,.04,1.52-.51,2.06l-6.97,6.79c-.24,.23-.35,.57-.29,.9l1.64,9.59c.13,.76-.18,1.52-.8,1.97s-1.44,.51-2.12,.15l-8.61-4.53c-.29-.15-.65-.15-.94,0l-8.61,4.53c-.3,.16-.62,.23-.94,.23Z"/>
      </g>
    </g>
  </g>
</svg>