<?xml version="1.0" encoding="UTF-8"?>
<svg id="Layer_2" data-name="Layer 2" xmlns="http://www.w3.org/2000/svg" viewBox="0 0 69.5 72.29">
  <defs>
    <style>
      .cls-1 {
        fill: #f9943a;
      }

      .cls-2 {
        fill: #f9e1cd;
      }

      .cls-3 {
        fill: #000201;
      }

      .cls-4 {
        fill: #fff;
      }

      .cls-5 {
        fill: #ffcd9f;
      }

      .cls-6 {
        fill: #fc9d4f;
      }

      .cls-7 {
        fill: #d2eef3;
      }
    </style>
  </defs>
  <g id="Layer_3" data-name="Layer 3">
    <g>
      <polygon class="cls-1" points="67.57 29.29 55.04 21.18 12.54 21.48 .34 29.37 34.03 44.82 67.57 29.29"/>
      <path class="cls-5" d="M59.93,72.12H8.1c-4.29,0-7.77-3.48-7.77-7.77V29.62l27.16,12.37c3.95,1.8,8.47,1.81,12.43,.04l27.76-12.41v34.74c0,4.29-3.48,7.77-7.77,7.77Z"/>
      <path class="cls-4" d="M54.74,35.46V8.18c0-4.06,3.29-7.35,7.35-7.35H20.28c-4.06,0-7.35,3.29-7.35,7.35v26.22l14,7.17c4.22,2.16,9.2,2.29,13.53,.33l14.27-6.44Z"/>
      <path class="cls-6" d="M32.69,71.17H6.29c-1,0-1.82-.81-1.82-1.82s.81-1.82,1.82-1.82h26.4c1,0,1.82,.81,1.82,1.82s-.81,1.82-1.82,1.82Z"/>
      <path class="cls-6" d="M48.02,71.17h-6.85c-1,0-1.82-.81-1.82-1.82s.81-1.82,1.82-1.82h6.85c1,0,1.82,.81,1.82,1.82s-.81,1.82-1.82,1.82Z"/>
      <g>
        <path class="cls-3" d="M57.26,61.16h-.12c-.24-.07-.38-.31-.31-.55l1.44-5.05c.07-.24,.31-.38,.55-.31,0,0,0,0,0,0,.24,.07,.38,.31,.31,.55l-1.45,5.05c-.06,.19-.23,.31-.43,.31Z"/>
        <path class="cls-3" d="M59.09,64.64h-.12c-.24-.07-.38-.31-.31-.55,0,0,0,0,0,0l2.88-10.07c.06-.23,.3-.37,.53-.31,0,0,.01,0,.02,0,.24,.07,.38,.31,.31,.55,0,0,0,0,0,0l-2.88,10.06c-.05,.19-.23,.32-.43,.32Z"/>
      </g>
      <path class="cls-3" d="M12.93,34.57c-.28,0-.5-.22-.5-.5V7.85c0-4.33,3.52-7.85,7.85-7.85H54.59c.28,0,.5,.22,.5,.5s-.22,.5-.5,.5H20.28c-3.78,0-6.85,3.07-6.85,6.85v26.22c0,.28-.22,.5-.5,.5Z"/>
      <path class="cls-3" d="M54.74,35.63c-.28,0-.5-.22-.5-.5V7.85c0-4.33,3.52-7.85,7.85-7.85,.28,0,.5,.22,.5,.5s-.22,.5-.5,.5c-3.78,0-6.85,3.07-6.85,6.85v27.28c0,.28-.22,.5-.5,.5Z"/>
      <path class="cls-3" d="M69,8.3h-11.23c-.28,0-.5-.22-.5-.5s.22-.5,.5-.5h10.72c-.2-5.13-3.39-6.12-3.53-6.16-.26-.08-.42-.35-.34-.62,.08-.27,.35-.42,.61-.34,.17,.05,4.26,1.27,4.26,7.63,0,.28-.22,.5-.5,.5Z"/>
      <path class="cls-3" d="M8.49,24.63c-.16,0-.32-.08-.42-.23-.15-.23-.08-.54,.15-.69l4.21-2.72c.23-.15,.54-.08,.69,.15,.15,.23,.08,.54-.15,.69l-4.21,2.72c-.08,.05-.18,.08-.27,.08Z"/>
      <path class="cls-3" d="M.5,29.79c-.16,0-.32-.08-.42-.23-.15-.23-.08-.54,.15-.69l5.13-3.32c.23-.15,.54-.08,.69,.15,.15,.23,.08,.54-.15,.69L.77,29.71c-.08,.05-.18,.08-.27,.08Z"/>
      <path class="cls-3" d="M67.9,29.79c-.09,0-.19-.03-.27-.08l-12.2-7.88c-.23-.15-.3-.46-.15-.69,.15-.23,.46-.3,.69-.15l12.2,7.88c.23,.15,.3,.46,.15,.69-.1,.15-.26,.23-.42,.23Z"/>
      <g>
        <path class="cls-3" d="M43.73,10.08H20.5c-.28,0-.5-.22-.5-.5s.22-.5,.5-.5h23.23c.28,0,.5,.22,.5,.5s-.22,.5-.5,.5Z"/>
        <path class="cls-3" d="M43.73,14.6H20.5c-.28,0-.5-.22-.5-.5s.22-.5,.5-.5h23.23c.28,0,.5,.22,.5,.5s-.22,.5-.5,.5Z"/>
        <path class="cls-3" d="M30.63,19.13h-10.13c-.28,0-.5-.22-.5-.5s.22-.5,.5-.5h10.13c.28,0,.5,.22,.5,.5s-.22,.5-.5,.5Z"/>
      </g>
      <g>
        <path class="cls-3" d="M43.73,25.92H20.5c-.28,0-.5-.22-.5-.5s.22-.5,.5-.5h23.23c.28,0,.5,.22,.5,.5s-.22,.5-.5,.5Z"/>
        <path class="cls-3" d="M43.73,30.45H20.5c-.28,0-.5-.22-.5-.5s.22-.5,.5-.5h23.23c.28,0,.5,.22,.5,.5s-.22,.5-.5,.5Z"/>
      </g>
      <path class="cls-2" d="M17.06,41.87c-.25,0-.51-.05-.76-.17l-11.26-5.17c-.91-.42-1.31-1.5-.89-2.41,.42-.91,1.5-1.31,2.41-.89l11.26,5.17c.91,.42,1.31,1.5,.89,2.41-.31,.67-.96,1.06-1.65,1.06Z"/>
      <path class="cls-7" d="M37.51,42.16h-6.88c-.27,0-.53-.06-.78-.17l-11.26-5.17c-.94-.43-1.35-1.54-.92-2.47,.43-.94,1.54-1.35,2.47-.92l10.89,5h6.07l13.45-6.07c.94-.43,2.04,0,2.46,.93,.42,.94,0,2.04-.93,2.46l-13.81,6.23c-.24,.11-.5,.17-.77,.17Z"/>
      <path class="cls-2" d="M29.58,46.64c-.19,0-.39-.03-.58-.1l-4.58-1.54c-.95-.32-1.46-1.35-1.14-2.3,.32-.95,1.35-1.47,2.3-1.14l4.58,1.54c.95,.32,1.46,1.35,1.14,2.3-.26,.76-.96,1.24-1.72,1.24Z"/>
      <path class="cls-2" d="M39.52,46.2c-.71,0-1.38-.42-1.68-1.11-.39-.93,.05-1.99,.97-2.38l5.29-2.22c.93-.39,1.99,.05,2.38,.97,.39,.93-.05,1.99-.97,2.38l-5.29,2.22c-.23,.1-.47,.14-.7,.14Z"/>
      <path class="cls-3" d="M60.09,72.29H8.27C3.71,72.29,0,68.59,0,64.03v-17.77c0-.28,.22-.5,.5-.5s.5,.22,.5,.5v17.77c0,4.01,3.26,7.27,7.27,7.27H60.09c4.01,0,7.27-3.26,7.27-7.27V30.06l-27.06,12.1c-4.09,1.83-8.77,1.81-12.84-.04L1,30.07v11.39c0,.28-.22,.5-.5,.5S0,41.74,0,41.46v-12.17c0-.17,.09-.33,.23-.42,.14-.09,.32-.11,.48-.03l27.16,12.37c3.81,1.74,8.2,1.75,12.02,.04l27.76-12.42c.16-.07,.33-.05,.48,.04,.14,.09,.23,.25,.23,.42v34.74c0,4.56-3.71,8.27-8.27,8.27Z"/>
      <g>
        <path class="cls-3" d="M14.69,54.18c-.08,0-.17-.02-.25-.07-.24-.14-.32-.44-.18-.68l7.95-13.88c.14-.24,.44-.32,.68-.18,.24,.14,.32,.44,.18,.68l-7.95,13.88c-.09,.16-.26,.25-.43,.25Z"/>
        <path class="cls-3" d="M53.67,54.18c-.17,0-.34-.09-.43-.25l-7.95-13.88c-.14-.24-.05-.55,.18-.68,.24-.14,.54-.06,.68,.18l7.95,13.88c.14,.24,.05,.55-.18,.68-.08,.04-.16,.07-.25,.07Z"/>
      </g>
    </g>
  </g>
</svg>