<?xml version="1.0" encoding="UTF-8"?>
<svg id="Layer_2" data-name="Layer 2" xmlns="http://www.w3.org/2000/svg" viewBox="0 0 61.61 68.81">
  <defs>
    <style>
      .cls-1 {
        fill: #000201;
      }

      .cls-2 {
        fill: #eaeaf6;
      }

      .cls-3 {
        fill: #f81c46;
      }

      .cls-4 {
        fill: #ffafc2;
      }

      .cls-5 {
        fill: #c9c9d7;
      }

      .cls-6 {
        fill: #d2eef3;
      }
    </style>
  </defs>
  <g id="Layer_3" data-name="Layer 3">
    <g>
      <path class="cls-6" d="M60.86,61.71v2.67c0,1.97-1.6,3.56-3.57,3.56H3.92c-1.97,0-3.57-1.59-3.57-3.56v-2.67c0,1.97,1.6,3.56,3.57,3.56H57.29c1.97,0,3.57-1.59,3.57-3.56Z"/>
      <path class="cls-1" d="M45.43,68.81H4.17c-2.24,0-4.07-1.82-4.07-4.07v-20.12c0-.28,.22-.5,.5-.5s.5,.22,.5,.5v20.12c0,1.69,1.38,3.07,3.07,3.07H45.43c.28,0,.5,.22,.5,.5s-.22,.5-.5,.5Z"/>
      <path class="cls-1" d="M57.54,68.81h-8.28c-.28,0-.5-.22-.5-.5s.22-.5,.5-.5h8.28c1.69,0,3.07-1.38,3.07-3.07V16.24c0-.28,.22-.5,.5-.5s.5,.22,.5,.5v48.5c0,2.24-1.82,4.07-4.07,4.07Z"/>
      <path class="cls-3" d="M4.59,5.83H57.61c1.88,0,3.41,1.53,3.41,3.41v6.79H.69v-6.3c0-2.15,1.75-3.9,3.9-3.9Z"/>
      <path class="cls-4" d="M55.44,9.23h-3.72c-.84,0-1.52-.68-1.52-1.52s.68-1.52,1.52-1.52h3.72c.84,0,1.52,.68,1.52,1.52s-.68,1.52-1.52,1.52Z"/>
      <g>
        <path class="cls-6" d="M22.44,18.78h-7.36c-.84,0-1.52-.68-1.52-1.52s.68-1.52,1.52-1.52h7.36c.84,0,1.52,.68,1.52,1.52s-.68,1.52-1.52,1.52Z"/>
        <path class="cls-6" d="M38.52,18.78h-3.72c-.84,0-1.52-.68-1.52-1.52s.68-1.52,1.52-1.52h3.72c.84,0,1.52,.68,1.52,1.52s-.68,1.52-1.52,1.52Z"/>
      </g>
      <path class="cls-1" d="M.61,31.18c-.34,0-.61-.27-.61-.61V12.52c0-.34,.27-.61,.61-.61s.61,.27,.61,.61V30.57c0,.34-.27,.61-.61,.61Z"/>
      <path class="cls-6" d="M60.86,58v2.67c0,1.97-1.6,3.56-3.57,3.56H3.92c-1.97,0-3.57-1.59-3.57-3.56v-2.67c0,1.97,1.6,3.56,3.57,3.56H57.29c1.97,0,3.57-1.59,3.57-3.56Z"/>
      <path class="cls-1" d="M45.43,65.09H4.17c-2.24,0-4.07-1.82-4.07-4.07v-20.12c0-.28,.22-.5,.5-.5s.5,.22,.5,.5v20.12c0,1.69,1.38,3.07,3.07,3.07H45.43c.28,0,.5,.22,.5,.5s-.22,.5-.5,.5Z"/>
      <path class="cls-1" d="M57.54,65.09h-8.28c-.28,0-.5-.22-.5-.5s.22-.5,.5-.5h8.28c1.69,0,3.07-1.38,3.07-3.07V12.52c0-.28,.22-.5,.5-.5s.5,.22,.5,.5V61.03c0,2.24-1.82,4.07-4.07,4.07Z"/>
      <path class="cls-1" d="M57.54,61.75H19.22c-.28,0-.5-.22-.5-.5s.22-.5,.5-.5H57.54c1.69,0,3.07-1.38,3.07-3.07V9.18c0-1.69-1.38-3.07-3.07-3.07h-20.85c-.28,0-.5-.22-.5-.5s.22-.5,.5-.5h20.85c2.24,0,4.07,1.82,4.07,4.07V57.69c0,2.24-1.82,4.07-4.07,4.07Z"/>
      <path class="cls-1" d="M60.63,16.53H28.76c-.28,0-.5-.22-.5-.5s.22-.5,.5-.5h31.87c.28,0,.5,.22,.5,.5s-.22,.5-.5,.5Z"/>
      <path class="cls-1" d="M25.37,16.53H10.66c-.28,0-.5-.22-.5-.5s.22-.5,.5-.5h14.71c.28,0,.5,.22,.5,.5s-.22,.5-.5,.5Z"/>
      <path class="cls-1" d="M7.36,16.53H.78c-.28,0-.5-.22-.5-.5s.22-.5,.5-.5H7.36c.28,0,.5,.22,.5,.5s-.22,.5-.5,.5Z"/>
      <path class="cls-1" d="M33.2,30.25h-4.69c-.64,0-1.17-.52-1.17-1.17v-4.69c0-.64,.52-1.17,1.17-1.17h4.69c.64,0,1.17,.52,1.17,1.17v4.69c0,.64-.52,1.17-1.17,1.17Zm-4.69-6.11c-.14,0-.25,.11-.25,.25v4.69c0,.14,.11,.25,.25,.25h4.69c.14,0,.25-.11,.25-.25v-4.69c0-.14-.11-.25-.25-.25h-4.69Z"/>
      <path class="cls-1" d="M42.88,30.25h-4.69c-.64,0-1.17-.52-1.17-1.17v-4.69c0-.64,.52-1.17,1.17-1.17h4.69c.64,0,1.17,.52,1.17,1.17v4.69c0,.64-.52,1.17-1.17,1.17Zm-4.69-6.11c-.14,0-.25,.11-.25,.25v4.69c0,.14,.11,.25,.25,.25h4.69c.14,0,.25-.11,.25-.25v-4.69c0-.14-.11-.25-.25-.25h-4.69Z"/>
      <path class="cls-1" d="M52.56,30.25h-4.69c-.64,0-1.17-.52-1.17-1.17v-4.69c0-.64,.52-1.17,1.17-1.17h4.69c.64,0,1.17,.52,1.17,1.17v4.69c0,.64-.52,1.17-1.17,1.17Zm-4.69-6.11c-.14,0-.25,.11-.25,.25v4.69c0,.14,.11,.25,.25,.25h4.69c.14,0,.25-.11,.25-.25v-4.69c0-.14-.11-.25-.25-.25h-4.69Z"/>
      <path class="cls-1" d="M13.84,40.29h-4.69c-.64,0-1.17-.52-1.17-1.17v-4.69c0-.64,.52-1.17,1.17-1.17h4.69c.64,0,1.17,.52,1.17,1.17v4.69c0,.64-.52,1.17-1.17,1.17Zm-4.69-6.11c-.14,0-.25,.11-.25,.25v4.69c0,.14,.11,.25,.25,.25h4.69c.14,0,.25-.11,.25-.25v-4.69c0-.14-.11-.25-.25-.25h-4.69Z"/>
      <path class="cls-1" d="M23.52,40.29h-4.69c-.64,0-1.17-.52-1.17-1.17v-4.69c0-.64,.52-1.17,1.17-1.17h4.69c.64,0,1.17,.52,1.17,1.17v4.69c0,.64-.52,1.17-1.17,1.17Zm-4.69-6.11c-.14,0-.25,.11-.25,.25v4.69c0,.14,.11,.25,.25,.25h4.69c.14,0,.25-.11,.25-.25v-4.69c0-.14-.11-.25-.25-.25h-4.69Z"/>
      <path class="cls-1" d="M33.2,40.29h-4.69c-.64,0-1.17-.52-1.17-1.17v-4.69c0-.64,.52-1.17,1.17-1.17h4.69c.64,0,1.17,.52,1.17,1.17v4.69c0,.64-.52,1.17-1.17,1.17Zm-4.69-6.11c-.14,0-.25,.11-.25,.25v4.69c0,.14,.11,.25,.25,.25h4.69c.14,0,.25-.11,.25-.25v-4.69c0-.14-.11-.25-.25-.25h-4.69Z"/>
      <path class="cls-1" d="M42.88,40.29h-4.69c-.64,0-1.17-.52-1.17-1.17v-4.69c0-.64,.52-1.17,1.17-1.17h4.69c.64,0,1.17,.52,1.17,1.17v4.69c0,.64-.52,1.17-1.17,1.17Zm-4.69-6.11c-.14,0-.25,.11-.25,.25v4.69c0,.14,.11,.25,.25,.25h4.69c.14,0,.25-.11,.25-.25v-4.69c0-.14-.11-.25-.25-.25h-4.69Z"/>
      <path class="cls-1" d="M52.55,40.29h-4.69c-.64,0-1.17-.52-1.17-1.17v-4.69c0-.64,.52-1.17,1.17-1.17h4.69c.64,0,1.17,.52,1.17,1.17v4.69c0,.64-.52,1.17-1.17,1.17Zm-4.69-6.11c-.14,0-.25,.11-.25,.25v4.69c0,.14,.11,.25,.25,.25h4.69c.14,0,.25-.11,.25-.25v-4.69c0-.14-.11-.25-.25-.25h-4.69Z"/>
      <path class="cls-1" d="M13.84,50.33h-4.69c-.64,0-1.17-.52-1.17-1.17v-4.69c0-.64,.52-1.17,1.17-1.17h4.69c.64,0,1.17,.52,1.17,1.17v4.69c0,.64-.52,1.17-1.17,1.17Zm-4.69-6.11c-.14,0-.25,.11-.25,.25v4.69c0,.14,.11,.25,.25,.25h4.69c.14,0,.25-.11,.25-.25v-4.69c0-.14-.11-.25-.25-.25h-4.69Z"/>
      <path class="cls-1" d="M23.52,50.33h-4.69c-.64,0-1.17-.52-1.17-1.17v-4.69c0-.64,.52-1.17,1.17-1.17h4.69c.64,0,1.17,.52,1.17,1.17v4.69c0,.64-.52,1.17-1.17,1.17Zm-4.69-6.11c-.14,0-.25,.11-.25,.25v4.69c0,.14,.11,.25,.25,.25h4.69c.14,0,.25-.11,.25-.25v-4.69c0-.14-.11-.25-.25-.25h-4.69Z"/>
      <path class="cls-1" d="M33.2,50.33h-4.69c-.64,0-1.17-.52-1.17-1.17v-4.69c0-.64,.52-1.17,1.17-1.17h4.69c.64,0,1.17,.52,1.17,1.17v4.69c0,.64-.52,1.17-1.17,1.17Zm-4.69-6.11c-.14,0-.25,.11-.25,.25v4.69c0,.14,.11,.25,.25,.25h4.69c.14,0,.25-.11,.25-.25v-4.69c0-.14-.11-.25-.25-.25h-4.69Z"/>
      <path class="cls-1" d="M42.88,50.33h-4.69c-.64,0-1.17-.52-1.17-1.17v-4.69c0-.64,.52-1.17,1.17-1.17h4.69c.64,0,1.17,.52,1.17,1.17v4.69c0,.64-.52,1.17-1.17,1.17Zm-4.69-6.11c-.14,0-.25,.11-.25,.25v4.69c0,.14,.11,.25,.25,.25h4.69c.14,0,.25-.11,.25-.25v-4.69c0-.14-.11-.25-.25-.25h-4.69Z"/>
      <g>
        <path class="cls-1" d="M9.23,57.57H.78c-.25,0-.46-.2-.46-.46s.2-.46,.46-.46H9.23c.25,0,.46,.2,.46,.46s-.2,.46-.46,.46Z"/>
        <path class="cls-1" d="M12.75,57.57h-1.31c-.25,0-.46-.2-.46-.46s.2-.46,.46-.46h1.31c.25,0,.46,.2,.46,.46s-.2,.46-.46,.46Z"/>
      </g>
      <path class="cls-4" d="M10.13,9.23h-3.72c-.84,0-1.52-.68-1.52-1.52s.68-1.52,1.52-1.52h3.72c.84,0,1.52,.68,1.52,1.52s-.68,1.52-1.52,1.52Z"/>
      <path class="cls-4" d="M30.38,9.23h-7.36c-.84,0-1.52-.68-1.52-1.52s.68-1.52,1.52-1.52h7.36c.84,0,1.52,.68,1.52,1.52s-.68,1.52-1.52,1.52Z"/>
      <path class="cls-1" d="M.61,33.39c-.28,0-.5-.22-.5-.5V9.18C.11,6.94,1.93,5.12,4.17,5.12h29.04c.28,0,.5,.22,.5,.5s-.22,.5-.5,.5H4.17c-1.69,0-3.07,1.38-3.07,3.07v23.71c0,.28-.22,.5-.5,.5Z"/>
      <path class="cls-1" d="M15.21,61.75H4.17c-2.24,0-4.07-1.82-4.07-4.07v-21.05c0-.28,.22-.5,.5-.5s.5,.22,.5,.5v21.05c0,1.69,1.38,3.07,3.07,3.07H15.21c.28,0,.5,.22,.5,.5s-.22,.5-.5,.5Z"/>
      <rect class="cls-5" x="44.86" y=".5" width="3.82" height="10.23" rx="1.91" ry="1.91"/>
      <rect class="cls-5" x="14.57" y=".5" width="3.82" height="10.23" rx="1.91" ry="1.91"/>
      <path class="cls-2" d="M15.47,7.17c-.5,0-.91-.41-.91-.91V2.54c0-.5,.41-.91,.91-.91s.91,.41,.91,.91v3.72c0,.5-.41,.91-.91,.91Z"/>
      <path class="cls-2" d="M45.76,9.83c-.5,0-.91-.41-.91-.91v-3.72c0-.5,.41-.91,.91-.91s.91,.41,.91,.91v3.72c0,.5-.41,.91-.91,.91Z"/>
      <g>
        <path class="cls-1" d="M46.77,11.23c-1.33,0-2.41-1.08-2.41-2.41,0-.28,.22-.5,.5-.5s.5,.22,.5,.5c0,.78,.63,1.41,1.41,1.41s1.41-.63,1.41-1.41V2.41c0-.78-.63-1.41-1.41-1.41s-1.41,.63-1.41,1.41V6.79c0,.28-.22,.5-.5,.5s-.5-.22-.5-.5V2.41c0-1.33,1.08-2.41,2.41-2.41s2.41,1.08,2.41,2.41v6.41c0,1.33-1.08,2.41-2.41,2.41Z"/>
        <path class="cls-1" d="M16.48,11.23c-1.33,0-2.41-1.08-2.41-2.41V4.58c0-.28,.22-.5,.5-.5s.5,.22,.5,.5v4.24c0,.78,.63,1.41,1.41,1.41s1.41-.63,1.41-1.41V2.41c0-.78-.63-1.41-1.41-1.41s-1.41,.63-1.41,1.41c0,.28-.22,.5-.5,.5s-.5-.22-.5-.5c0-1.33,1.08-2.41,2.41-2.41s2.41,1.08,2.41,2.41v6.41c0,1.33-1.08,2.41-2.41,2.41Z"/>
      </g>
      <g>
        <path class="cls-1" d="M53.52,53.16h-.09c-.17-.05-.27-.22-.22-.39l1.02-3.57c.05-.17,.22-.27,.39-.22,0,0,0,0,0,0,.17,.05,.27,.22,.22,.39l-1.03,3.57c-.04,.13-.17,.22-.3,.22Z"/>
        <path class="cls-1" d="M54.81,55.62h-.09c-.17-.05-.27-.22-.22-.39,0,0,0,0,0,0l2.04-7.13c.04-.17,.21-.27,.38-.22,0,0,0,0,.01,0,.17,.05,.27,.22,.22,.39,0,0,0,0,0,0l-2.04,7.12c-.04,.14-.16,.23-.3,.22Z"/>
      </g>
    </g>
  </g>
</svg>