<svg width="583" height="483" viewBox="0 0 583 483" fill="none" xmlns="http://www.w3.org/2000/svg">
<g clip-path="url(#clip0_35_1681)">
<path d="M390.196 384.137C400.988 359.184 415.442 333.186 440.419 322.451C450.781 317.997 463.909 316.993 472.427 324.386C483.77 334.231 480.897 352.32 476.352 366.635C463.839 406.047 443.929 443.569 419.63 479.492C401.171 479.492 377.985 480.792 355.745 479.492C358.254 471.911 378.781 410.531 390.196 384.137Z" fill="#55D087" stroke="#010101" stroke-width="1.5" stroke-linecap="round" stroke-linejoin="round"/>
<path d="M497.425 374.792C505.205 372.761 514.667 372.329 520.387 377.98C526.097 383.622 527.413 392.457 526.415 400.423C522.205 433.992 488.45 465.011 477.343 478.554C458.249 479.257 445.331 479.492 419.629 479.492C425.619 465.279 478.845 379.642 497.425 374.792Z" fill="#55D087" stroke="#010101" stroke-width="1.5" stroke-linecap="round" stroke-linejoin="round"/>
<path d="M458.347 328.638C439.401 378.905 418.499 428.435 395.704 477.078" stroke="#010101" stroke-width="1.5" stroke-linecap="round" stroke-linejoin="round"/>
<path d="M422.303 343.067C426.198 355.661 432.872 370.917 436.768 383.511" stroke="#010101" stroke-width="1.5" stroke-linecap="round" stroke-linejoin="round"/>
<path d="M448.599 419.37C438.074 421.957 427.726 425.266 417.652 429.265" stroke="#010101" stroke-width="1.5" stroke-linecap="round" stroke-linejoin="round"/>
<path d="M427.025 405.887C422.235 393.673 416.745 374.703 410.227 358.083" stroke="#010101" stroke-width="1.5" stroke-linecap="round" stroke-linejoin="round"/>
<path d="M500.505 383.511C486.16 416.572 469.932 445.586 452.735 477.257" stroke="#010101" stroke-width="1.5" stroke-linecap="round" stroke-linejoin="round"/>
<path d="M516.274 407.597C507.627 410.516 494.689 413.358 484.915 416.657" stroke="#010101" stroke-width="1.5" stroke-linecap="round" stroke-linejoin="round"/>
<path d="M500.505 383.511C486.16 416.572 469.932 445.586 452.735 477.257" stroke="#010101" stroke-width="1.5" stroke-linecap="round" stroke-linejoin="round"/>
<path d="M471.583 442.472C467.091 433.389 463.079 426.155 458.587 417.073" stroke="#010101" stroke-width="1.5" stroke-linecap="round" stroke-linejoin="round"/>
<path d="M460.415 463.144C456.042 453.174 451.553 444.094 446.516 434.443" stroke="#010101" stroke-width="1.5" stroke-linecap="round" stroke-linejoin="round"/>
<path d="M478.106 161.841C487.035 156.14 494.552 151.477 503.481 145.777C504.852 144.902 507.833 143.475 508.717 145.317C509.346 146.629 506.891 150.342 499.617 154.199C507.009 149.797 510.441 147.987 517.832 143.585C518.767 143.028 519.913 142.459 520.78 142.957C521.668 143.467 521.686 144.888 521.101 145.862C520.517 146.836 519.523 147.465 518.574 148.05C513.127 151.408 513.034 152.112 507.587 155.47C514.568 150.972 515.155 150.156 522.559 146.6C523.785 146.011 525.396 145.498 526.199 146.48C527.795 149.065 522.779 151.732 518.92 153.886C516.709 155.12 514.591 156.27 509.266 159.02C514.679 156.482 516.766 155.16 522.183 152.634C523.2 152.16 524.291 151.674 525.337 151.841C526.383 152.008 527.265 153.135 526.809 154.191C526.519 154.863 525.828 155.255 525.193 155.588C519.304 158.676 517.414 160.29 511.525 163.378C515.831 161.2 516.308 160.929 520.865 159.656C522.218 159.278 524.084 159.231 524.342 160.598C524.581 161.861 523.142 162.883 521.952 163.458C510.237 169.121 501.283 172.477 489.569 178.14" fill="white"/>
<path d="M478.106 161.841C487.035 156.14 494.552 151.477 503.481 145.777C504.852 144.902 507.833 143.475 508.717 145.317C509.346 146.629 506.891 150.342 499.617 154.199C507.009 149.797 510.441 147.987 517.832 143.585C518.767 143.028 519.913 142.459 520.78 142.957C521.668 143.467 521.686 144.888 521.101 145.862C520.517 146.836 519.523 147.465 518.574 148.05C513.127 151.408 513.034 152.112 507.587 155.47C514.568 150.972 515.155 150.156 522.559 146.6C523.785 146.011 525.396 145.498 526.199 146.48C527.795 149.065 522.779 151.732 518.92 153.886C516.709 155.12 514.591 156.27 509.266 159.02C514.679 156.482 516.766 155.16 522.183 152.634C523.2 152.16 524.291 151.674 525.337 151.841C526.383 152.008 527.265 153.135 526.809 154.191C526.519 154.863 525.828 155.255 525.193 155.588C519.304 158.676 517.414 160.29 511.525 163.378C515.831 161.2 516.308 160.929 520.865 159.656C522.218 159.278 524.084 159.231 524.342 160.598C524.581 161.861 523.142 162.883 521.952 163.458C510.237 169.121 501.283 172.477 489.569 178.14" stroke="#010101" stroke-width="1.5" stroke-linecap="round" stroke-linejoin="round"/>
<path d="M499.617 154.198C500.163 156.22 500.53 158.318 500.362 160.406C500.193 162.494 499.451 164.583 498.011 166.103" fill="white"/>
<path d="M499.617 154.198C500.163 156.22 500.53 158.318 500.362 160.406C500.193 162.494 499.451 164.583 498.011 166.103" stroke="#010101" stroke-width="1.5" stroke-linecap="round" stroke-linejoin="round"/>
<path d="M175.59 479.486L155.332 28.154L356.494 28.264L376.752 479.596L175.59 479.486Z" fill="white" stroke="#010101" stroke-width="1.5" stroke-linecap="round" stroke-linejoin="round"/>
<path d="M189.336 479.486L170.524 41.667L343.887 41.777L362.698 479.596L189.336 479.486Z" fill="#E3E3FF" stroke="#010101" stroke-width="1.5" stroke-linecap="round" stroke-linejoin="round"/>
<path d="M189.336 479.486L170.524 41.667L98.01 10.45L116.822 448.269L189.336 479.486Z" fill="white" stroke="#010101" stroke-width="1.5" stroke-linecap="round" stroke-linejoin="round"/>
<path d="M321.039 102.054C320.432 105.163 319.826 108.272 319.409 111.684C318.936 112.26 319.095 113.165 319.571 113.738C320.047 114.311 320.76 114.624 321.454 114.894C325.082 116.307 328.94 117.077 332.819 117.4C334.375 117.529 336.032 117.566 337.388 116.793C338.165 116.35 338.789 115.668 339.583 115.257C339.802 115.143 340.039 115.048 340.212 114.872C340.359 114.722 340.449 114.527 340.535 114.336C341.787 111.569 341.88 108.339 343.266 105.503C342.652 104.406 343.994 103.506 343.633 102.302C343.272 101.101 342.397 100.133 341.538 99.219C339.597 97.153 337.603 95.125 335.911 92.85C334.219 90.576 332.826 88.025 332.252 85.249C331.635 82.267 331.984 79.18 331.842 76.138C331.773 74.664 331.561 73.123 330.694 71.928C329.836 70.746 328.408 70.051 326.956 69.893C325.504 69.735 324.031 70.072 322.688 70.648C320.86 71.431 319.198 72.689 318.154 74.382C316.767 76.631 316.581 79.446 317.002 82.055C317.262 83.661 317.736 85.232 318.409 86.713C319.054 88.133 319.879 89.467 320.507 90.895C322.019 94.332 321.804 98.144 321.041 102.055L321.039 102.054Z" fill="white" stroke="#010101" stroke-width="1.5" stroke-linecap="round" stroke-linejoin="round"/>
<path d="M328.332 76.956C327.007 82.88 326.595 89.007 327.115 95.054C327.334 97.605 327.746 100.221 329.08 102.406C330.578 104.86 333.134 106.542 335.869 107.426C338.605 108.31 341.525 108.459 344.399 108.372C348.063 108.261 351.734 107.772 355.22 106.64C355.818 106.446 356.429 106.221 356.884 105.787C357.321 105.369 357.572 104.797 357.797 104.236C360.75 96.884 361.237 88.812 361.69 80.902C361.988 75.698 362.285 70.493 362.583 65.289C366.711 62.692 368.966 57.421 367.994 52.641C367.644 50.923 366.779 49.141 365.168 48.449C364.417 48.126 363.578 48.075 362.76 48.083C361.09 48.1 359.422 48.348 357.819 48.818C356.3 49.264 354.834 49.91 353.276 50.189C350.831 50.627 348.327 50.139 345.886 49.676C340.744 48.7 335.509 47.823 330.299 48.318C325.089 48.813 319.833 50.833 316.423 54.803C313.186 58.572 311.931 63.689 311.714 68.652C311.194 80.536 315.968 91.938 320.979 102.589C322.423 97.55 322.685 94.243 324.061 89.439C322.029 88.702 320.759 87.449 320.137 85.051C319.715 83.426 319.847 81.675 320.366 80.078C321.561 76.402 326.125 75.586 328.332 76.954V76.956Z" fill="#010101" stroke="#010101" stroke-width="1.5" stroke-linecap="round" stroke-linejoin="round"/>
<path d="M336.209 73.726C335.593 76.016 334.973 78.337 334.95 80.708C334.927 83.079 335.564 85.547 337.177 87.286C339.09 89.347 342.03 90.075 344.823 90.402C350.112 91.022 355.526 90.556 360.631 89.042C361.497 81.119 362.029 73.159 362.227 65.192C357.866 65.154 353.506 65.116 349.145 65.078C348.804 67.812 346.717 70.078 344.282 71.367C341.847 72.656 339.076 73.13 336.209 73.726Z" fill="white" stroke="#010101" stroke-width="1.5" stroke-linecap="round" stroke-linejoin="round"/>
<path d="M353.159 78.172C353.731 79.865 354.302 81.558 354.874 83.251C355.126 83.996 355.366 84.858 354.958 85.529C354.586 86.139 353.805 86.357 353.092 86.4C352.379 86.444 351.641 86.37 350.969 86.612" stroke="#010101" stroke-width="1.5" stroke-linecap="round" stroke-linejoin="round"/>
<path d="M322.526 83.11C322.218 82.145 322.407 81.035 323.017 80.226C323.299 79.852 323.66 79.545 324.042 79.273C324.45 78.982 324.912 78.721 325.413 78.718" stroke="#010101" stroke-width="1.5" stroke-linecap="round" stroke-linejoin="round"/>
<path d="M314.352 115.627L293.488 114.877C290.015 114.752 286.478 114.634 283.126 115.551C279.034 116.67 275.524 119.242 272.239 121.946C261.358 130.9 251.516 141.061 242.895 152.208C235.117 162.264 227.894 173.309 224.911 185.74C223.55 191.412 223.18 197.619 225.731 202.865C230.609 212.897 254.81 211.462 264.518 209.872C260.04 219.392 256.377 229.295 253.706 239.969C264.747 240.91 275.79 241.827 286.833 242.743C309.262 244.604 331.692 246.465 353.741 249.218C360.221 222.421 367.04 195.707 373.642 169.554C382.741 179.194 390.092 190.421 399.627 199.629C409.162 208.837 421.78 216.11 434.989 215.003C440.315 214.557 445.436 212.775 450.381 210.749C466.487 204.151 481.398 194.818 494.95 183.896C495.441 183.501 495.951 183.073 496.164 182.48C496.452 181.679 491.476 164.171 487.268 150.842C469.201 159.212 451.582 168.546 433.961 179.219C420.567 166.645 409.927 151.461 397.491 137.94C394.06 134.209 390.457 130.576 386.229 127.781C374.585 120.082 359.771 118.747 346.464 118.597C346.752 116.831 346.866 115.363 346.897 113.118C346.908 112.316 346.318 111.633 345.523 111.534C336.813 110.45 326.733 109.641 318.363 109.043C317.922 109.011 317.45 108.988 317.068 109.213C316.771 109.388 316.573 109.689 316.394 109.984C315.381 111.658 315.158 113.55 314.352 115.627Z" fill="#7B5FF1" stroke="#010101" stroke-width="1.5" stroke-linecap="round" stroke-linejoin="round"/>
<path d="M324.007 109.533C323.286 111.881 322.764 114.29 322.446 116.725" stroke="#010101" stroke-width="1.5" stroke-linecap="round" stroke-linejoin="round"/>
<path d="M287.115 178.668C297.581 177.031 306.338 175.777 316.804 174.139C318.411 173.888 321.714 173.778 321.785 175.819C321.835 177.273 318.096 179.688 309.885 180.301C318.422 179.236 322.292 178.956 330.829 177.891C331.908 177.756 333.187 177.695 333.781 178.499C334.389 179.322 333.835 180.631 332.909 181.289C331.983 181.947 330.82 182.124 329.716 182.279C323.38 183.168 323.011 183.776 316.675 184.665C324.874 183.348 325.739 182.836 333.948 182.55C335.307 182.503 336.989 182.68 337.33 183.901C337.754 186.909 332.089 187.338 327.69 187.763C325.17 188.006 322.768 188.209 316.787 188.591C322.764 188.439 325.205 188.065 331.181 187.927C332.303 187.901 333.497 187.894 334.388 188.467C335.279 189.04 335.634 190.426 334.793 191.211C334.257 191.71 333.467 191.792 332.752 191.842C326.119 192.306 323.739 193.027 317.106 193.491C321.924 193.224 322.47 193.168 327.154 193.831C328.545 194.028 330.273 194.734 329.961 196.09C329.673 197.343 327.945 197.701 326.624 197.75C313.621 198.235 304.073 197.714 291.071 198.199" fill="white"/>
<path d="M287.115 178.668C297.581 177.031 306.338 175.777 316.804 174.139C318.411 173.888 321.714 173.778 321.785 175.819C321.835 177.273 318.096 179.688 309.885 180.301C318.422 179.236 322.292 178.956 330.829 177.891C331.908 177.756 333.187 177.695 333.781 178.499C334.389 179.322 333.835 180.631 332.909 181.289C331.983 181.947 330.82 182.124 329.716 182.279C323.38 183.168 323.011 183.776 316.675 184.665C324.874 183.348 325.739 182.836 333.948 182.55C335.307 182.503 336.989 182.68 337.33 183.901C337.754 186.909 332.089 187.338 327.69 187.763C325.17 188.006 322.768 188.209 316.787 188.591C322.764 188.439 325.205 188.065 331.181 187.927C332.303 187.901 333.497 187.894 334.388 188.467C335.279 189.04 335.634 190.426 334.793 191.211C334.257 191.71 333.467 191.792 332.752 191.842C326.119 192.306 323.739 193.027 317.106 193.491C321.924 193.224 322.47 193.168 327.154 193.831C328.545 194.028 330.273 194.734 329.961 196.09C329.673 197.343 327.945 197.701 326.624 197.75C313.621 198.235 304.073 197.714 291.071 198.199" stroke="#010101" stroke-width="1.5" stroke-linecap="round" stroke-linejoin="round"/>
<path d="M125.68 295.818C125.426 296.296 85.716 293.83 30.294 295.979C29.204 321.141 30.694 350.998 30.694 372.506C51.719 372.506 91.824 372.674 125.368 372.674C123.751 345.34 125.396 323.599 125.68 295.817V295.818Z" fill="#FF8B37" stroke="#010101" stroke-width="1.5" stroke-linecap="round" stroke-linejoin="round"/>
<path d="M31.4081 371.638C70.5721 335.872 120.53 300.497 125.68 295.818" stroke="#010101" stroke-width="1.5" stroke-linecap="round" stroke-linejoin="round"/>
<path d="M31.4081 297.593C55.1521 317.07 122.129 369.729 125.31 371.639" stroke="#010101" stroke-width="1.5" stroke-linecap="round" stroke-linejoin="round"/>
<path d="M96.535 373.566C96.281 374.241 56.571 370.757 1.14903 373.794C0.0590293 409.344 1.54903 451.526 1.54903 481.915C22.574 481.915 62.679 482.153 96.223 482.153C94.606 443.534 96.251 412.816 96.535 373.566Z" fill="#FF8B37" stroke="#010101" stroke-width="1.5" stroke-linecap="round" stroke-linejoin="round"/>
<path d="M2.26208 480.688C41.4261 430.156 91.3841 380.177 96.5341 373.566" stroke="#010101" stroke-width="1.5" stroke-linecap="round" stroke-linejoin="round"/>
<path d="M2.26208 376.073C26.0061 403.591 92.9831 477.989 96.1641 480.688" stroke="#010101" stroke-width="1.5" stroke-linecap="round" stroke-linejoin="round"/>
<path d="M211.437 321.956C211.123 322.952 155.6 322.292 93.416 322.292C92.067 374.739 93.911 436.97 93.911 481.802C119.925 481.802 169.547 482.153 211.051 482.153C209.05 425.179 211.086 379.863 211.437 321.956Z" fill="#FF8B37" stroke="#010101" stroke-width="1.5" stroke-linecap="round" stroke-linejoin="round"/>
<path d="M131.656 322.358C131.656 379.601 131.612 433.897 131.612 481.913" stroke="#010101" stroke-width="1.5" stroke-linecap="round" stroke-linejoin="round"/>
<path d="M168.608 337.646C179.236 338.102 189.879 338.199 200.514 337.939" stroke="#010101" stroke-width="1.5" stroke-linecap="round" stroke-linejoin="round"/>
<path d="M168.607 349.705C173.829 349.662 179.053 349.717 184.273 349.87" stroke="#010101" stroke-width="1.5" stroke-linecap="round" stroke-linejoin="round"/>
<path d="M203.197 461.892C195.138 462.095 180.896 461.867 172.228 462.778C172.04 465.23 172.469 468.299 172.281 470.75C181.165 471.023 194.369 470.68 203.253 470.953C203.459 468.261 203.395 465.255 203.197 461.892Z" fill="#E3E3FF" stroke="#010101" stroke-width="1.5" stroke-linecap="round" stroke-linejoin="round"/>
<path d="M332.25 110.676C332.088 112.831 331.832 114.978 331.483 117.11" stroke="#010101" stroke-width="1.5" stroke-linecap="round" stroke-linejoin="round"/>
<path d="M339.946 111.391C339.823 113.427 339.598 115.458 339.272 117.471" stroke="#010101" stroke-width="1.5" stroke-linecap="round" stroke-linejoin="round"/>
<path d="M434.503 179.749C434.654 183.986 434.553 188.231 434.203 192.456" stroke="#010101" stroke-width="1.5" stroke-linecap="round" stroke-linejoin="round"/>
<path d="M475.948 156.777C479.479 167.874 483.01 178.97 486.541 190.067" stroke="#010101" stroke-width="1.5" stroke-linecap="round" stroke-linejoin="round"/>
<path d="M238.392 457.549C236.368 463.91 235.105 470.512 235.018 476.969C235 478.308 235.946 479.474 237.255 479.759C238.021 479.926 238.858 479.953 239.63 479.945C242.253 479.917 244.877 479.862 247.5 479.862C261.707 479.862 275.674 479.565 289.762 479.417C290.765 479.406 291.808 479.387 292.706 478.941C293.604 478.495 294.31 477.489 294.072 476.515C293.874 475.706 293.123 475.171 292.408 474.746C287.704 471.953 282.137 470.673 277.805 467.331C276.585 466.39 275.483 465.299 274.219 464.42C272.514 463.235 270.547 462.459 268.57 461.868C266.685 461.304 264.754 460.907 262.814 460.58C254.978 459.262 247.223 457.853 238.393 457.549H238.392Z" fill="#010101" stroke="#010101" stroke-width="1.5" stroke-linecap="round" stroke-linejoin="round"/>
<path d="M227.238 384.565C221.738 385.689 216.315 387.188 210.444 389.102C209.264 389.487 208.482 390.606 208.523 391.847C209.104 409.59 209.262 436.822 211.294 439.846C215.519 446.133 218.096 421.561 227.519 416.045C230.336 414.396 230.11 395.546 227.238 384.565Z" fill="#010101" stroke="#010101" stroke-width="1.5" stroke-linecap="round" stroke-linejoin="round"/>
<path d="M258.565 410.762C259.81 412.214 258.121 414.323 256.516 415.361C247.757 421.027 237.262 424.912 227.038 426.984C224.23 412.588 222.846 396.208 222.915 381.54C233.329 377.434 243.744 373.329 253.267 370.109C261.55 382.981 263.588 399.68 258.565 410.762Z" fill="white" stroke="#010101" stroke-width="1.5" stroke-linecap="round" stroke-linejoin="round"/>
<path d="M234.539 378.391C234.293 393.314 236.565 408.276 241.23 422.454" stroke="#010101" stroke-width="1.5" stroke-linecap="round" stroke-linejoin="round"/>
<path d="M281.559 156.777C275.498 164.342 270.778 171.042 264.717 178.607" stroke="#010101" stroke-width="1.5" stroke-linecap="round" stroke-linejoin="round"/>
<path d="M256.602 239.069C249.104 269.18 259.171 300.7 258.602 331.725C258.357 345.107 256.123 358.37 253.55 371.505C248.043 399.614 240.097 430.635 230.921 458.437C247.396 464.62 265.215 467.197 283.858 465.588C289.44 441.645 292.649 428.696 299.354 403.877C325.318 391.111 351.763 378.008 377.388 364.572C386.456 359.817 396.009 354.534 400.886 345.53C405.459 337.089 405.044 326.71 402.303 317.51C397.98 303.002 388.483 290.687 379.145 278.771C370.183 267.336 364.324 258.008 354.234 247.188C326.838 244.909 294.95 239.069 256.603 239.069H256.602Z" fill="white" stroke="#010101" stroke-width="1.5" stroke-linecap="round" stroke-linejoin="round"/>
<path d="M310.2 348.811C310.556 345.093 310.362 332.793 310.122 328.3C309.087 308.917 309.662 296.788 308.22 278.223C310.945 280.849 313.519 283.627 316.092 286.403C327.514 298.728 338.984 311.112 347.83 326.006C335.642 333.139 323.832 340.919 310.2 348.81V348.811Z" fill="#E3E3FF" stroke="#010101" stroke-width="1.5" stroke-linecap="round" stroke-linejoin="round"/>
<path d="M399.006 312.434C391.631 313.781 386.356 320.462 383.476 327.384C381.807 331.396 380.695 335.657 380.402 339.992C379.935 346.912 381.609 353.961 385.136 359.933" stroke="#010101" stroke-width="1.5" stroke-linecap="round" stroke-linejoin="round"/>
<path d="M310.122 349.473C307.195 369.727 303.964 384.566 299.195 404.467" stroke="#010101" stroke-width="1.5" stroke-linecap="round" stroke-linejoin="round"/>
<path d="M309.92 326.627C304.49 327.606 299.568 331.108 296.865 335.919C295.427 338.479 294.605 341.352 294.188 344.258C292.771 354.139 296.768 365.259 305.577 369.954" stroke="#010101" stroke-width="1.5" stroke-linecap="round" stroke-linejoin="round"/>
<path d="M237.55 443.068C252.977 450.312 270.074 453.97 287.114 453.673" stroke="#010101" stroke-width="1.5" stroke-linecap="round" stroke-linejoin="round"/>
<path d="M373.556 169.098C374.72 164.879 375.883 160.66 377.047 156.441C376.883 157.329 376.718 158.217 373.556 169.098Z" stroke="#010101" stroke-width="1.5" stroke-linecap="round" stroke-linejoin="round"/>
<path d="M246.92 180.894C264.237 177.929 281.672 175.648 299.143 174.665C299.523 184.031 299.353 195.919 298.928 205.536C286.586 207.4 275.697 208.283 264.043 210.044" fill="#7B5FF1"/>
<path d="M246.92 180.894C264.237 177.929 281.672 175.648 299.143 174.665C299.523 184.031 299.353 195.919 298.928 205.536C286.586 207.4 275.697 208.283 264.043 210.044" stroke="#010101" stroke-width="1.5" stroke-linecap="round" stroke-linejoin="round"/>
<path d="M288.957 175.382C288.957 185.744 289.085 197.257 289.383 206.846Z" fill="#7B5FF1"/>
<path d="M288.957 175.382C288.957 185.744 289.085 197.257 289.383 206.846" stroke="#010101" stroke-width="1.5" stroke-linecap="round" stroke-linejoin="round"/>
<path d="M499.954 32.962C499.308 30.858 499.687 28.462 498.628 26.533C497.855 25.126 496.331 24.161 494.728 24.066C493.125 23.97 491.497 24.747 490.562 26.053C489.315 27.796 489.554 32.927 489.638 33.789C492.188 34.815 495.757 35.095 499.954 32.962Z" fill="#E3E3FF" stroke="#010101" stroke-width="1.5" stroke-linecap="round" stroke-linejoin="round"/>
<path d="M566.869 32.962C566.223 30.858 566.602 28.462 565.543 26.533C564.77 25.126 563.246 24.161 561.643 24.066C560.04 23.97 558.412 24.747 557.477 26.053C556.23 27.796 556.469 32.927 556.553 33.789C559.103 34.815 562.672 35.095 566.869 32.962Z" fill="#E3E3FF" stroke="#010101" stroke-width="1.5" stroke-linecap="round" stroke-linejoin="round"/>
<path d="M492.414 38.265C490.81 42.388 488.69 46.296 487.102 50.426C485.514 54.556 484.46 59.024 485.122 63.399C485.586 66.47 486.872 69.349 488.189 72.161C489.31 74.554 490.464 76.931 491.652 79.292C492.361 80.702 493.5 82.335 495.059 82.091C496.09 81.929 496.82 80.921 496.999 79.893C497.179 78.865 496.928 77.816 496.678 76.803C495.722 72.915 494.765 69.027 493.809 65.139C493.207 62.69 492.6 60.196 492.748 57.678C492.891 55.245 493.734 52.912 494.632 50.646C496.264 46.527 498.109 42.493 500.158 38.565C497.137 38.297 494.117 38.029 492.415 38.266L492.414 38.265Z" fill="#E3E3FF" stroke="#010101" stroke-width="1.5" stroke-linecap="round" stroke-linejoin="round"/>
<path d="M561.797 39.522C563.388 43.611 565.491 47.487 567.066 51.583C568.641 55.679 569.686 60.111 569.03 64.449C568.569 67.495 567.295 70.35 565.988 73.139C564.876 75.512 563.731 77.87 562.554 80.211C561.851 81.609 560.721 83.229 559.175 82.986C558.153 82.825 557.429 81.825 557.251 80.806C557.073 79.786 557.322 78.746 557.569 77.741C558.517 73.885 559.466 70.029 560.414 66.173C561.011 63.744 561.613 61.271 561.466 58.774C561.324 56.361 560.488 54.047 559.598 51.799C557.98 47.714 556.15 43.713 554.118 39.817C557.114 39.551 560.11 39.287 561.797 39.522Z" fill="#E3E3FF" stroke="#010101" stroke-width="1.5" stroke-linecap="round" stroke-linejoin="round"/>
<path d="M547.03 46.052C547.673 44.266 549.347 43.072 551.246 43.067C559.287 43.045 572.351 43.085 578.158 43.106C580.014 43.113 581.569 41.664 581.643 39.81C581.739 37.411 581.119 33.445 577.691 33.061C573.183 32.556 555.871 33.833 551.869 31.699C545.952 28.543 537.328 16.264 524.352 20.115C516.03 22.584 510.405 28.764 508.169 30.142C504.257 32.554 499.275 31.697 494.68 31.769C491.416 31.82 481.699 31.85 478.61 32.908C476.002 33.802 475.732 36.534 476.06 38.918C476.375 41.203 478.356 42.882 480.662 42.817C485.975 42.668 496.134 42.405 503.013 42.369C504.97 42.359 506.703 43.616 507.297 45.48C507.83 47.152 508.467 49.039 509.076 50.804C510.403 54.647 514.037 57.206 518.103 57.167L536.711 56.987C540.847 56.947 544.498 54.229 545.671 50.262C546.092 48.838 546.557 47.367 547.03 46.053V46.052Z" fill="#E3E3FF" stroke="#010101" stroke-width="1.5" stroke-linecap="round" stroke-linejoin="round"/>
<path d="M558.285 75.086C558.12 75.439 532.349 73.617 496.381 75.205C495.674 93.789 496.64 115.841 496.64 131.727C510.285 131.727 536.312 131.851 558.082 131.851C557.032 111.662 558.1 95.605 558.285 75.086Z" fill="#FF8B37" stroke="#010101" stroke-width="1.5" stroke-linecap="round" stroke-linejoin="round"/>
<path d="M497.104 131.085C522.521 104.669 554.943 78.541 558.285 75.085Z" fill="#E3E3FF"/>
<path d="M497.104 131.085C522.521 104.669 554.943 78.541 558.285 75.085" stroke="#010101" stroke-width="1.5" stroke-linecap="round" stroke-linejoin="round"/>
<path d="M497.104 76.397C512.513 90.782 555.98 129.675 558.045 131.086Z" fill="#E3E3FF"/>
<path d="M497.104 76.397C512.513 90.782 555.98 129.675 558.045 131.086" stroke="#010101" stroke-width="1.5" stroke-linecap="round" stroke-linejoin="round"/>
<path d="M561.673 16.801C561.694 18.698 561.481 21.671 561.502 23.568Z" fill="#E3E3FF"/>
<path d="M561.673 16.801C561.694 18.698 561.481 21.671 561.502 23.568" stroke="#010101" stroke-width="1.5" stroke-linecap="round" stroke-linejoin="round"/>
<path d="M543.067 16.014C556.19 16.48 568.054 16.222 580.036 16.222Z" fill="#E3E3FF"/>
<path d="M543.067 16.014C556.19 16.48 568.054 16.222 580.036 16.222" stroke="#010101" stroke-width="1.5" stroke-linecap="round" stroke-linejoin="round"/>
<path d="M494.88 17.195C494.901 19.092 494.688 22.065 494.709 23.962Z" fill="#E3E3FF"/>
<path d="M494.88 17.195C494.901 19.092 494.688 22.065 494.709 23.962" stroke="#010101" stroke-width="1.5" stroke-linecap="round" stroke-linejoin="round"/>
<path d="M476.274 16.408C489.397 16.874 501.261 16.616 513.243 16.616Z" fill="#E3E3FF"/>
<path d="M476.274 16.408C489.397 16.874 501.261 16.616 513.243 16.616" stroke="#010101" stroke-width="1.5" stroke-linecap="round" stroke-linejoin="round"/>
<path d="M528.672 32.482C526.484 32.758 524.36 33.813 522.995 35.546C521.631 37.279 521.111 39.706 521.859 41.781C522.915 44.708 526.252 46.36 529.361 46.227C536.229 45.934 538.425 38.724 532.33 33.533C531.136 32.516 529.621 32.362 528.672 32.482Z" fill="white" stroke="#010101" stroke-width="1.5" stroke-linecap="round" stroke-linejoin="round"/>
<path d="M121.186 220.247C123.389 219.949 125.72 221.015 126.936 222.876C128.152 224.737 128.192 227.3 127.034 229.198C124.972 232.578 119.316 232.737 116.976 229.543C114.636 226.349 116.333 220.904 121.186 220.247Z" fill="#010101"/>
<path d="M504.682 241.159C505.833 241.003 507.05 241.56 507.685 242.532C508.32 243.504 508.341 244.842 507.736 245.834C506.659 247.599 503.705 247.682 502.483 246.014C501.261 244.346 502.147 241.502 504.682 241.159Z" fill="#010101"/>
<path d="M52.7051 88.105C53.3621 88.016 54.0581 88.334 54.4211 88.89C54.7841 89.446 54.7961 90.21 54.4501 90.777C53.8351 91.786 52.1471 91.833 51.4481 90.88C50.7491 89.927 51.2561 88.302 52.7041 88.106L52.7051 88.105Z" fill="#010101"/>
<path d="M29.9191 255.707L25.4501 256.751" stroke="#010101" stroke-width="1.5" stroke-linecap="round" stroke-linejoin="round"/>
<path d="M320.861 0.0159973C320.156 -0.0790027 319.411 0.261997 319.022 0.856997C318.633 1.452 318.62 2.272 318.991 2.879C319.651 3.96 321.46 4.011 322.209 2.989C322.958 1.967 322.415 0.224997 320.862 0.0149973L320.861 0.0159973Z" fill="#010101"/>
<path d="M412.529 108.664C414.203 107.118 415.878 105.573 417.552 104.027" stroke="#010101" stroke-width="1.5" stroke-linecap="round" stroke-linejoin="round"/>
</g>
<defs>
<clipPath id="clip0_35_1681">
<rect width="582.402" height="482.902" fill="white"/>
</clipPath>
</defs>
</svg>
