<svg width="587" height="460" viewBox="0 0 587 460" fill="none" xmlns="http://www.w3.org/2000/svg">
<g clip-path="url(#clip0_35_1455)">
<path d="M78.627 120.296C84.818 118.582 87.4 117.383 87.4 117.383" stroke="#010101" stroke-width="1.5" stroke-linecap="round" stroke-linejoin="round"/>
<path d="M505.406 0.75C493.785 72.871 483.608 164.204 471.977 236.334C379.76 236.334 141.42 237.512 141.42 237.512C141.42 237.512 165.482 39.103 171.471 1.908C258.147 1.908 400.449 0.75 505.02 0.75H505.406Z" fill="#E3E3FF" stroke="#010101" stroke-width="1.5" stroke-linecap="round" stroke-linejoin="round"/>
<path d="M70.779 458.847C53.525 458.847 41.048 458.801 26.389 458.813C20.551 451.244 15.291 444.055 10.035 436.028C4.77898 428.002 -0.967019 419.8 1.23098 410.336C2.21398 406.104 4.63698 401.884 8.54898 400.439C12.564 398.956 16.986 400.741 20.687 402.948C30.37 408.722 58.576 443.109 70.779 458.847Z" fill="#55D087" stroke="#010101" stroke-width="1.5" stroke-linecap="round" stroke-linejoin="round"/>
<path d="M7.81201 401.675C18.213 420.675 32.089 440.57 44.272 458.48" stroke="#010101" stroke-width="1.5" stroke-linecap="round" stroke-linejoin="round"/>
<path d="M104.021 458.812C85.3679 458.92 77.3279 458.59 58.6809 458.846C49.2659 444.218 48.6989 441.141 35.2419 409.788C33.3809 405.453 30.3719 393.448 31.6149 385.408C34.4169 367.281 57.4929 367.138 69.4509 388.868C84.4579 416.14 89.3279 428.034 104.021 458.812Z" fill="#55D087" stroke="#010101" stroke-width="1.5" stroke-linecap="round" stroke-linejoin="round"/>
<path d="M42.291 373.893C53.388 400.772 68.009 431.805 80.564 458.034" stroke="#010101" stroke-width="1.5" stroke-linecap="round" stroke-linejoin="round"/>
<path d="M162.587 323.349C159.064 327.609 158.334 328.491 154.811 332.751" stroke="#010101" stroke-width="1.5" stroke-linecap="round" stroke-linejoin="round"/>
<path d="M578.608 106.128C575.15 108.083 571.693 110.038 568.235 111.993" stroke="#010101" stroke-width="1.5" stroke-linecap="round" stroke-linejoin="round"/>
<path d="M116.572 23.957C116.071 23.889 115.541 24.132 115.264 24.555C114.987 24.978 114.978 25.561 115.242 25.993C115.711 26.762 116.997 26.798 117.53 26.071C118.062 25.345 117.676 24.106 116.572 23.957Z" fill="#010101"/>
<path d="M451.334 358.309C450.697 358.223 450.023 358.531 449.672 359.069C449.32 359.607 449.309 360.348 449.644 360.897C450.24 361.874 451.875 361.92 452.552 360.997C453.229 360.074 452.738 358.499 451.335 358.31L451.334 358.309Z" fill="#010101"/>
<path d="M143.461 320.974C143.368 304.265 143.128 287.556 142.741 270.851C142.699 269.053 142.64 267.19 141.843 265.578C141.045 263.966 140.049 263.148 137.522 263.029C124.042 263.029 110.102 263.035 98.8239 263.035C96.0319 263.035 92.1039 263.371 92.0839 268.757C92.0269 284.371 92.1779 300.653 92.8389 317.018C94.4019 316.867 95.9659 316.716 97.4199 316.504C97.7479 307.744 95.9259 278.67 97.1929 270.327C97.2909 269.679 97.4199 269.001 97.8399 268.498C98.5259 267.677 99.7329 267.589 100.802 267.565C111.034 267.334 121.268 267.08 131.503 267.08C135.259 267.08 137.01 267.791 137.473 271.353C138.866 282.074 137.979 311.776 139.029 319.85C140.306 319.718 141.583 319.587 143.462 320.974H143.461Z" fill="#E3E3FF" stroke="#010101" stroke-width="1.5" stroke-linecap="round" stroke-linejoin="round"/>
<path d="M125.176 258.824H110.357C108.247 258.824 106.537 260.534 106.537 262.644V267.132C106.537 269.242 108.247 270.952 110.357 270.952H125.176C127.286 270.952 128.996 269.242 128.996 267.132V262.644C128.996 260.534 127.286 258.824 125.176 258.824Z" fill="white" stroke="#010101" stroke-width="1.5" stroke-linecap="round" stroke-linejoin="round"/>
<path d="M90.3619 444.764C89.9509 448.193 89.8429 451.657 90.0389 455.105C90.0689 455.624 90.1149 456.172 90.4139 456.597C90.6669 456.956 91.0689 457.179 91.4709 457.355C92.6399 457.865 94.1479 458.016 95.0699 457.134C95.8499 456.387 95.9269 455.187 95.9539 454.107C96.0289 451.104 96.1039 448.102 96.1789 445.099C96.1819 444.999 96.1829 444.893 96.1319 444.806C96.0379 444.645 95.8169 444.625 95.6299 444.624C93.8379 444.614 92.0459 444.604 90.3619 444.764Z" fill="#010101" stroke="#010101" stroke-width="1.5" stroke-linecap="round" stroke-linejoin="round"/>
<path d="M139.771 444.764C139.36 448.193 139.252 451.657 139.448 455.105C139.478 455.624 139.524 456.172 139.823 456.597C140.076 456.956 140.478 457.179 140.88 457.355C142.049 457.865 143.557 458.016 144.479 457.134C145.259 456.387 145.336 455.187 145.363 454.107C145.438 451.104 145.513 448.102 145.588 445.099C145.591 444.999 145.592 444.893 145.541 444.806C145.447 444.645 145.226 444.625 145.039 444.624C143.247 444.614 141.455 444.604 139.771 444.764Z" fill="#010101" stroke="#010101" stroke-width="1.5" stroke-linecap="round" stroke-linejoin="round"/>
<path d="M70.0279 331.79C70.2149 367.947 69.5039 401.859 70.1999 438.188C70.3789 447.535 76.5719 446.833 78.7939 446.905C106.85 447.814 139.512 446.594 155.851 446.594C157.88 446.594 159.901 445.834 161.59 444.71C163.279 443.586 164.549 441.614 164.619 438.609C164.619 401.704 165.615 365.593 165.615 330.927C165.615 325.095 166.913 314.964 152.385 314.066C140.36 313.323 100.312 312.671 85.5729 314.174C83.4059 314.395 81.2209 314.668 79.1749 315.414C72.0129 318.027 70.0009 326.55 70.0279 331.79Z" fill="#7B5FF1" stroke="#010101" stroke-width="1.5" stroke-linecap="round" stroke-linejoin="round"/>
<path d="M92.938 331.014L92.443 429.249" stroke="#010101" stroke-width="1.5" stroke-linecap="round" stroke-linejoin="round"/>
<path d="M143.089 331.014L142.595 429.249" stroke="#010101" stroke-width="1.5" stroke-linecap="round" stroke-linejoin="round"/>
<path d="M118.014 331.136L117.519 429.371" stroke="#010101" stroke-width="1.5" stroke-linecap="round" stroke-linejoin="round"/>
<path d="M187.826 153.731L69.2632 156.734L70.4471 203.475L189.01 200.472L187.826 153.731Z" fill="#7B5FF1" stroke="#010101" stroke-width="1.5" stroke-linecap="round" stroke-linejoin="round"/>
<path d="M169.958 138.045L52.3862 153.634L58.532 199.985L176.104 184.395L169.958 138.045Z" fill="white" stroke="#010101" stroke-width="1.5" stroke-linecap="round" stroke-linejoin="round"/>
<path d="M108.217 162.231C124.304 158.321 140.705 155.704 157.211 154.416" stroke="#010101" stroke-width="1.5" stroke-linecap="round" stroke-linejoin="round"/>
<path d="M108.625 174.045C119.008 172.74 129.391 171.434 139.775 170.129" stroke="#010101" stroke-width="1.5" stroke-linecap="round" stroke-linejoin="round"/>
<path d="M273.657 133.706C279.706 136.507 290.354 132.247 292.149 138.668C292.596 140.267 292.488 141.977 294.046 142.551C295.604 143.125 297.333 142.882 298.976 143.123C302.379 143.621 305.323 146.42 305.991 149.794C306.559 152.662 305.608 155.589 304.668 158.358C303.482 161.855 302.168 165.541 299.31 167.879C297.343 169.488 294.548 170.645 294.067 173.14C293.86 174.211 294.152 175.355 293.807 176.39C293.014 178.77 289.553 179.095 288.238 181.232C287.782 181.973 287.637 182.856 287.44 183.704C286.561 187.495 284.452 190.99 281.508 193.535C282.762 195.142 281.521 197.951 279.488 198.104C279.774 201.144 278.887 204.279 277.051 206.718C276.692 207.195 276.281 207.66 275.739 207.912C273.667 208.876 271.652 206.13 271.732 203.846C271.812 201.562 272.898 199.289 272.37 197.065C271.658 194.068 268.165 191.886 268.591 188.835C268.684 188.167 268.971 187.535 269.045 186.865C269.211 185.368 268.317 183.979 267.975 182.512C267.041 178.508 270.092 173.617 267.374 170.533C266.356 169.378 264.791 168.898 263.518 168.033C262.245 167.168 258.131 165.554 257.532 164.136C256.701 162.169 253.783 161.754 253.557 159.63C253.306 157.276 254.664 154.901 254.11 152.6C253.36 149.487 250.121 150.658 250.466 147.475C251.178 140.907 256.497 139.862 258.063 137.564C258.627 136.736 259.539 136.223 260.422 135.749C263.797 133.937 268.369 131.262 273.657 133.71V133.706Z" fill="white" stroke="#010101" stroke-width="1.5" stroke-linecap="round" stroke-linejoin="round"/>
<path d="M259.57 39.138C259.265 40.149 258.497 40.938 257.805 41.736C257.113 42.534 256.447 43.457 256.424 44.513C256.401 45.568 257.334 46.687 258.366 46.462C257.595 47.241 257.145 48.451 257.58 49.458C258.015 50.465 259.543 50.912 260.267 50.088C262.258 50.869 264.25 51.649 266.241 52.43C267.185 52.8 268.253 53.306 268.49 54.292C268.756 55.401 267.802 56.522 268.031 57.64C268.104 57.996 268.292 58.317 268.412 58.66C268.758 59.652 268.507 60.743 268.224 61.754C267.941 62.765 267.624 63.822 267.846 64.848C268.068 65.874 269.054 66.821 270.078 66.588C270.662 66.455 271.158 65.973 271.757 65.996C272.101 66.009 272.422 66.193 272.766 66.207C273.728 66.248 274.235 65.038 274.178 64.076C274.121 63.114 273.8 62.091 274.23 61.23C274.79 60.109 276.461 59.648 276.573 58.4C276.614 57.947 276.421 57.51 276.314 57.068C276.03 55.889 276.363 54.659 276.396 53.447C276.464 50.936 275.133 48.432 273.014 47.084C272.591 46.815 272.127 46.578 271.822 46.18C271.027 45.143 271.65 43.554 271.044 42.397C270.196 40.78 267.822 41.121 266.105 40.498C264.885 40.055 263.944 39.061 262.774 38.498C261.604 37.936 259.905 38.031 259.571 39.138H259.57Z" fill="white" stroke="#010101" stroke-width="1.5" stroke-linecap="round" stroke-linejoin="round"/>
<path d="M240.607 39.1C239.178 38.539 237.691 37.969 236.16 38.071C235.35 38.125 234.565 38.367 233.789 38.606C232.897 38.882 232.004 39.158 231.112 39.434C230.598 39.593 230.06 39.766 229.688 40.156C229.264 40.6 229.135 41.241 229.024 41.844C228.753 43.315 228.588 45.097 229.743 46.047C230.243 46.458 230.932 46.642 231.317 47.162C231.799 47.814 231.655 48.808 232.214 49.396C233.296 50.534 235.405 48.89 236.728 49.737C237.096 49.972 237.339 50.374 237.722 50.584C238.099 50.791 238.555 50.782 238.984 50.75C240.771 50.616 242.535 50.179 244.178 49.462C244.528 49.309 244.881 49.138 245.14 48.858C245.56 48.405 245.664 47.753 245.75 47.141C246.005 45.325 246.259 43.509 246.514 41.693C246.563 41.344 246.609 40.975 246.472 40.65C246.33 40.315 246.018 40.087 245.709 39.894C243.835 38.72 241.57 38.183 240.606 39.099L240.607 39.1Z" fill="white" stroke="#010101" stroke-width="1.5" stroke-linecap="round" stroke-linejoin="round"/>
<path d="M260.172 56.096C251.84 53.777 242.936 59.571 234.835 56.543C234.061 56.254 233.273 55.932 232.447 55.937C231.398 55.944 230.353 56.479 229.336 56.223C228.605 56.039 228.037 55.479 227.374 55.121C224.38 53.504 220.366 56.28 217.383 54.644C216.646 54.24 215.988 53.571 215.148 53.547C214.146 53.518 213.396 54.401 212.591 54.999C211.052 56.142 209.025 56.325 207.113 56.467C204.158 56.687 201.203 56.906 198.248 57.126C196.457 57.259 195.031 55.928 193.236 55.871C191.576 55.818 190.133 56.13 188.677 55.33C187.221 54.531 185.856 55.065 184.534 56.072C182.966 57.267 180.628 56.817 179.28 58.257C177.933 59.696 177.082 61.518 176.254 63.307C176.045 63.758 175.832 64.23 175.849 64.726C175.866 65.223 176.113 65.679 176.334 66.125C178.064 69.613 178.536 73.709 177.646 77.499C177.414 78.487 177.255 79.83 178.187 80.23C178.522 80.374 178.928 80.338 179.223 80.553C179.928 81.067 179.263 82.135 179.138 82.999C178.921 84.508 180.784 85.644 182.268 85.295C183.752 84.946 184.817 83.674 185.694 82.427C186.571 81.18 187.437 79.824 188.798 79.139C191.343 77.857 194.421 79.417 197.238 78.986C197.773 78.904 198.337 78.752 198.84 78.953C200.17 79.485 201.049 80.662 201.571 81.996C201.902 82.841 200.993 83.702 201.378 84.524C201.763 85.346 202.373 86.074 202.578 86.958C202.78 87.831 202.563 88.765 202.795 89.631C203.389 91.851 207.418 92.682 206.974 94.937C206.34 98.163 208.398 100.869 207.745 104.091C207.553 105.04 206.375 105.592 206.643 106.522C206.911 107.452 208.192 107.302 208.87 107.994C209.269 108.401 208.224 109.284 208.628 109.686C209.217 110.272 210.758 108.559 211.094 109.319C211.58 110.417 210.883 111.686 211.958 112.221C213.033 112.756 214.319 112.729 215.399 113.253C216.421 113.749 217.153 114.685 217.794 115.623C219.312 117.848 219.354 121.089 221.42 122.817C222.619 123.82 222.294 124.88 222.527 126.426C222.926 129.077 228.243 127.737 229.756 129.95C230.214 130.619 229.455 131.736 229.955 132.375C230.488 133.054 231.906 132.497 232.411 133.196C233.767 135.072 234.862 137.131 237.161 137.4C239.46 137.669 241.773 137.045 244.087 137.099C247.291 137.173 250.774 139.141 253.618 137.662C254.853 137.02 253.65 134.934 252.325 134.508C251 134.082 249.506 134.351 248.224 133.807C247.469 133.487 246.837 132.902 246.053 132.661C245.195 132.397 244.192 132.555 243.457 132.039C243.098 131.787 242.856 131.404 242.623 131.032C241.263 128.857 239.847 126.428 240.25 123.895C240.444 122.677 241.133 121.475 242.256 120.964C243.379 120.453 244.922 120.855 245.423 121.982C245.567 122.306 245.63 122.68 245.873 122.938C246.678 123.797 247.992 122.428 248.082 121.254C248.172 120.08 248.093 118.564 249.178 118.109C249.773 117.859 250.472 118.091 251.091 117.91C252.964 117.363 252.11 114.395 253.143 112.74C253.515 112.144 254.136 111.742 254.535 111.164C255.659 109.535 254.71 107.095 255.814 105.452C256.784 104.009 259.024 103.697 259.716 102.102C260.195 100.999 259.802 99.507 260.694 98.7C261.258 98.189 262.119 98.188 262.775 97.804C265.212 96.378 265.007 92.936 265.208 90.12C265.25 89.537 263.877 89.532 263.904 88.949C263.951 87.909 264.887 87.081 264.53 86.103C264.173 85.125 263.422 84.351 262.692 83.608C261.385 82.279 260.077 80.949 258.77 79.62C257.395 78.222 255.435 76.709 253.684 77.59C252.109 78.382 253.461 80.086 253.801 81.816C254.077 83.223 251.761 83.939 251.415 85.331C250.987 87.055 251.712 88.833 251.88 90.601C252.048 92.369 251.212 94.584 249.439 94.693C247.969 94.783 246.896 93.383 246.108 92.139C245.093 90.535 244.078 88.932 243.063 87.328C242.826 86.953 242.583 86.563 242.521 86.124C242.25 84.211 245.379 82.636 244.418 80.961C244.003 80.238 243.038 80.08 242.381 79.566C241.168 78.617 241.314 76.647 242.194 75.382C243.073 74.117 244.463 73.327 245.68 72.383C246.897 71.439 247.166 69.867 248.046 68.603C249.49 66.53 253.059 67.603 255.494 68.274C256.278 68.49 257.178 68.768 257.85 68.31C258.409 67.929 258.566 67.191 258.719 66.532C259.378 63.69 263.391 61.748 262.786 58.894C262.516 57.62 261.246 56.395 260.174 56.097L260.172 56.096Z" fill="white" stroke="#010101" stroke-width="1.5" stroke-linecap="round" stroke-linejoin="round"/>
<path d="M304.525 71.097C305.564 68.772 307.768 67.214 308.991 64.98C309.745 63.601 310.539 62.244 311.37 60.911C312.157 59.649 313.08 58.327 314.49 57.854C315.444 57.534 316.601 57.606 317.3 56.882C317.764 56.401 317.927 55.646 318.496 55.296C319.68 54.57 320.968 56.237 322.352 56.353C323.122 56.418 323.853 55.982 324.625 55.949C327.667 55.82 328.786 61.437 331.773 60.849C332.592 60.688 333.231 60.053 333.997 59.72C334.751 59.393 335.595 59.37 336.407 59.241C340.928 58.522 345.074 56.183 349.409 53.902C351.813 52.637 353.659 50.413 356.315 49.841C357.288 49.631 358.384 49.482 359.01 48.708C359.443 48.173 359.547 47.454 359.725 46.789C360.397 44.268 362.397 42.142 364.873 41.318C366.409 40.807 368.15 40.598 369.159 38.989C370.211 37.312 372.423 36.524 374.377 36.844C374.775 36.909 375.196 37.016 375.569 36.862C376.526 36.464 376.169 34.979 376.709 34.095C377.182 33.321 378.225 33.178 379.13 33.115C381.745 32.933 384.36 32.751 386.975 32.568C388.199 32.483 389.443 32.399 390.639 32.669C396.548 34.003 398.281 42.822 404.194 44.142C406.385 44.631 408.719 43.932 410.897 44.476C413.483 45.121 415.548 46.972 418.031 47.019C424.227 47.137 430.145 49.643 436.202 50.956C437.957 51.336 439.728 51.718 441.524 51.714C443.8 51.709 446.119 51.087 448.32 51.665C450.617 52.268 452.815 54.148 455.072 53.408C455.765 53.181 456.362 52.721 457.054 52.492C458.238 52.101 459.525 52.432 460.727 52.765C463.406 53.506 466.085 54.246 468.764 54.987C472.975 56.151 477.331 57.39 480.668 60.212C481.179 60.644 481.69 61.165 481.773 61.829C481.982 63.506 479.649 64.144 478.535 65.415C477.094 67.058 477.646 70.065 475.786 71.21C475.179 71.584 474.438 71.656 473.773 71.913C472.181 72.529 472.126 74.698 471.003 76.164C470.073 77.378 468.369 77.851 467.86 79.293C467.778 79.524 467.704 79.776 467.514 79.931C467.261 80.137 466.896 80.102 466.574 80.049C465.043 79.798 463.538 79.386 462.093 78.822C460.57 78.228 458.884 77.458 457.38 78.096C456.924 78.29 456.528 78.601 456.087 78.828C455.354 79.204 454.523 79.333 453.709 79.456C451.71 79.759 449.712 80.062 447.713 80.365C446.355 80.571 444.864 80.852 444.014 81.93C442.61 83.712 444.194 86.132 445.471 87.976C446.253 89.106 447.308 90.433 447.221 92.818C446.966 99.78 448.86 107.813 444.261 113.046C442.571 114.969 440.016 115.853 437.563 116.585C433.937 117.668 430.263 118.591 426.556 119.352C425.909 119.485 425.24 119.621 424.702 120.003C422.238 121.75 424.68 126.288 422.573 128.453C421.578 129.476 419.877 129.496 418.587 128.888C417.297 128.28 416.32 127.175 415.382 126.099C413.283 123.692 413.467 121.492 411.368 119.085C410.837 118.476 409.36 117.606 408.552 117.638C407.347 117.686 406.786 119.033 407.028 120.214C407.269 121.395 406.526 122.672 406.61 123.875C406.766 126.1 403.797 128.445 402.343 130.137C399.799 133.097 399.927 138.168 397.132 140.893C394.833 143.134 392.339 134.964 391.374 131.901C389.992 127.511 387.707 129.37 384.213 127.754C382.075 126.765 381.14 123.935 378.381 122.907C375.622 121.879 375.908 116.812 372.991 116.415C369.346 115.919 374.073 123.367 375.744 126.644C376.438 128.004 376.983 129.561 376.596 131.037C376.209 132.513 374.636 132.808 373.14 133.109C369.875 133.765 369.982 137.292 367.676 139.694C366.992 140.407 364.821 142.121 365.425 142.903C365.732 143.3 366.268 143.422 366.761 143.517C369.485 144.045 371.006 139.763 373.272 141.363C375.314 142.805 374.712 150.028 372.826 151.669C370.94 153.31 368.566 154.53 367.349 156.713C365.728 159.619 366.669 163.222 366.354 166.535C365.866 171.672 361.618 173.248 359.027 179.882C358.358 181.596 356.643 182.685 355.451 184.087C354.904 184.73 354.329 185.394 353.554 185.729C351.306 186.7 349.033 184.514 347.553 182.563C346.295 180.905 345.005 179.182 344.525 177.156C344.236 175.939 344.256 174.668 344.03 173.438C342.953 167.581 337.533 163.605 338.715 157.768C338.9 156.855 339.274 155.983 339.391 155.058C339.656 152.958 338.407 150.757 336.469 149.907C334.727 149.144 332.734 149.439 330.833 149.405C327.852 149.351 328.228 148.453 325.253 148.254C323.406 148.13 321.689 149.217 320.115 148.242C318.541 147.267 317.304 145.8 315.677 144.915C314.934 144.511 314.084 144.205 313.586 143.521C312.934 142.624 313.104 141.391 313.325 140.304C314.086 136.567 312.205 130.808 313.487 127.216C314.524 124.31 320.561 121.189 323.417 120.021C326.541 118.744 335.331 117.795 338.507 118.936C343.991 120.907 342.823 122.471 348.65 122.416C350.976 122.394 350.821 122.023 350.241 119.77C350.102 119.231 349.739 118.753 349.704 118.198C349.631 117.063 350.928 116.322 352.061 116.227C353.194 116.132 354.391 116.378 355.437 115.932C357.175 115.191 357.849 112.09 356.246 110.84C353.097 108.384 348.346 108.952 344.574 110.261C342.698 110.912 340.866 111.937 338.881 111.868C336.313 111.779 333.488 109.928 331.421 111.454C330.621 112.045 330.163 113.047 329.287 113.52C327.45 114.511 325.341 112.616 323.254 112.61C320.697 112.602 318.815 115.398 316.259 115.489C315.049 115.532 313.849 114.946 312.658 115.163C311.113 115.445 310.142 116.937 308.882 117.875C307.622 118.813 306.44 117.938 305.05 117.208C303.866 116.587 303.197 119.308 301.908 119.662C300.293 120.106 298.674 121.105 297.134 120.445C293.889 119.053 299.375 109.933 302.214 112.032C302.692 112.385 302.692 113.828 302.099 113.81C300.568 113.765 303.41 109.963 302.074 109.215C301.231 108.744 299.986 110.397 299.287 109.731C297.996 108.5 300.809 106.306 300.319 104.591C300.046 103.636 299.121 103.053 298.365 102.409C296.175 100.544 295.072 97.484 295.567 94.651C295.909 92.691 298 90.589 299.621 91.745C300.763 92.56 300.585 94.279 301.08 95.592C301.432 96.527 302.187 97.302 303.112 97.679C306.742 99.159 309.874 94.583 313.632 93.465C314.378 93.243 315.171 93.158 315.869 92.814C317.32 92.099 318.02 90.472 318.939 89.141C319.858 87.81 321.49 87.934 322.993 87.337C324.268 86.83 324.506 84.216 323.496 83.288C322.953 82.789 321.838 83.731 321.283 83.245C320.693 82.727 321.473 81.485 320.931 80.917C320.174 80.123 318.71 79.832 317.704 80.27C316.684 80.714 317.067 83.117 315.955 83.112C314.182 83.105 312.605 82.892 311.884 84.512C311.163 86.132 310.8 88.235 309.149 88.88C308.053 89.308 306.673 88.761 306.167 87.7C305.921 87.184 305.871 86.6 305.826 86.03C305.441 81.257 302.326 76.038 304.534 71.099L304.525 71.097Z" fill="white" stroke="#010101" stroke-width="1.5" stroke-linecap="round" stroke-linejoin="round"/>
<path d="M420.281 132.643C420.218 133.593 420.639 134.512 421.164 135.306C421.868 136.371 422.778 137.298 423.829 138.023C424.427 138.436 425.083 138.794 425.545 139.355C425.897 139.782 426.116 140.304 426.447 140.747C426.778 141.19 427.287 141.57 427.837 141.509C428.013 141.49 428.194 141.416 428.289 141.267C428.343 141.181 428.364 141.079 428.377 140.979C428.458 140.36 428.263 139.709 427.856 139.236C427.58 138.916 427.221 138.681 426.88 138.432C425.538 137.451 424.377 136.107 424.005 134.486C423.941 134.205 423.898 133.913 423.758 133.662C423.467 133.142 422.834 132.924 422.245 132.835C421.656 132.746 421.035 132.736 420.282 132.643H420.281Z" fill="white" stroke="#010101" stroke-width="1.5" stroke-linecap="round" stroke-linejoin="round"/>
<path d="M432.739 136.788C434.233 137.513 436.013 136.859 437.475 136.072C438.937 135.285 440.457 134.332 442.112 134.475C442.341 134.495 442.59 134.549 442.728 134.732C442.824 134.858 442.848 135.024 442.851 135.183C442.873 136.209 442.165 137.127 442.098 138.151C442.064 138.68 442.204 139.21 442.149 139.737C442.002 141.146 440.515 142.058 439.109 142.232C437.703 142.406 436.283 142.071 434.868 142.112C434.596 142.12 434.314 142.14 434.061 142.04C433.862 141.961 433.699 141.813 433.55 141.66C432.223 140.303 431.662 138.242 432.74 136.79L432.739 136.788Z" fill="white" stroke="#010101" stroke-width="1.5" stroke-linecap="round" stroke-linejoin="round"/>
<path d="M441.549 159.631C441.234 157.897 440.919 156.164 440.604 154.43C440.525 153.994 440.442 153.548 440.213 153.169C440.068 152.928 439.868 152.722 439.743 152.469C439.613 152.205 439.573 151.899 439.624 151.609C439.777 150.731 440.677 150.183 441.543 149.971C442.409 149.759 443.33 149.763 444.151 149.416C444.762 149.158 445.278 148.721 445.783 148.29C446.708 147.502 447.633 146.715 448.558 145.927C449.164 145.411 449.79 144.883 450.547 144.638C451.304 144.393 452.232 144.499 452.748 145.104C453.442 145.918 453.276 147.414 454.258 147.839C454.811 148.078 455.479 147.795 455.864 147.332C456.249 146.869 456.411 146.265 456.551 145.679C456.633 145.336 456.829 144.904 457.179 144.954C457.321 144.974 457.436 145.077 457.541 145.175C458.851 146.396 460.16 147.617 461.47 148.839C463.542 150.771 465.795 153.174 465.419 155.982C465.151 157.989 463.571 159.589 463.066 161.55C462.886 162.248 462.778 163.084 462.148 163.434C461.178 163.973 460.17 162.878 459.285 162.209C457.689 161.002 455.357 161.036 453.892 159.673C453.582 159.385 453.303 159.03 452.899 158.901C452.522 158.781 452.114 158.886 451.732 158.991C450.107 159.439 448.459 159.896 447.011 160.759C446.582 161.015 446.165 161.308 445.685 161.445C444.757 161.711 443.777 161.352 442.878 160.998C442.553 160.87 442.212 160.73 441.996 160.455C441.78 160.18 441.753 159.724 441.548 159.628L441.549 159.631Z" fill="white" stroke="#010101" stroke-width="1.5" stroke-linecap="round" stroke-linejoin="round"/>
<path d="M459.429 139.14C457.043 138.506 454.592 137.866 452.136 138.117C451.787 138.153 451.423 138.213 451.143 138.424C450.863 138.635 450.698 139.04 450.865 139.349C451.009 139.615 451.33 139.721 451.622 139.803C453.094 140.217 454.565 140.63 456.037 141.044C456.466 141.164 456.897 141.286 457.3 141.475C457.634 141.631 457.945 141.832 458.261 142.023C459.371 142.691 460.687 143.248 461.934 142.899C462.565 142.723 463.227 142.323 463.824 142.594C463.93 142.642 464.041 142.712 464.153 142.68C464.31 142.635 464.347 142.43 464.339 142.267C464.275 140.969 463.163 139.803 461.869 139.68C460.991 139.597 459.87 139.834 459.43 139.141L459.429 139.14Z" fill="white" stroke="#010101" stroke-width="1.5" stroke-linecap="round" stroke-linejoin="round"/>
<path d="M463.326 166.198L461.518 166.249C461.331 166.254 461.129 166.265 460.986 166.386C460.72 166.612 460.833 167.039 460.967 167.361C461.255 168.049 461.679 168.842 462.422 168.905C463.084 168.961 463.65 168.344 463.779 167.692C463.908 167.04 463.716 166.372 463.326 166.198Z" fill="white" stroke="#010101" stroke-width="1.5" stroke-linecap="round" stroke-linejoin="round"/>
<path d="M476.396 161.86C474.95 163.267 473.758 164.935 472.895 166.759C472.645 167.288 472.417 167.838 472.044 168.289C471.442 169.015 470.53 169.403 469.822 170.027C468.955 170.791 468.422 171.921 468.383 173.076C469.475 173.217 470.526 172.61 471.362 171.893C472.198 171.176 472.932 170.319 473.894 169.785C474.482 169.459 475.138 169.264 475.712 168.913C476.286 168.562 476.791 167.986 476.793 167.314C476.794 167.066 476.727 166.823 476.709 166.576C476.634 165.505 477.472 164.603 477.784 163.575C477.904 163.18 477.941 162.739 477.768 162.364C477.595 161.989 477.164 161.715 476.395 161.86H476.396Z" fill="white" stroke="#010101" stroke-width="1.5" stroke-linecap="round" stroke-linejoin="round"/>
<path d="M289.269 52.283C287.815 48.51 286.354 44.71 285.635 40.731C284.916 36.752 284.979 32.539 286.51 28.797C287.659 25.989 289.587 23.558 291.755 21.435C295.896 17.381 301.065 14.304 306.715 13.019C312.366 11.734 318.494 12.312 323.621 15.013C328.748 17.715 332.498 22.603 333.761 28.259C335.976 38.177 316.287 47.467 309.139 49.732C302.478 51.842 288.519 57.656 289.269 52.283Z" fill="#010101" stroke="#010101" stroke-width="1.5" stroke-linecap="round" stroke-linejoin="round"/>
<path d="M331.456 51.007C333.591 48.905 337.498 49.549 339.397 51.867C341.296 54.185 341.409 57.587 340.374 60.399C342.653 59.77 345.282 60.745 346.6 62.707C347.918 64.67 347.825 67.472 346.38 69.343C347.996 70.185 348.734 72.087 349.091 73.873C349.341 75.123 349.466 76.442 349.07 77.654C348.386 79.751 346.325 81.06 344.32 81.98C337.594 85.067 329.776 85.704 322.639 83.748C319.176 82.799 315.707 81.115 313.738 78.113C311.285 74.372 311.702 69.359 313.414 65.227C316.135 58.657 321.974 53.459 331.455 51.007H331.456Z" fill="#010101" stroke="#010101" stroke-width="1.5" stroke-linecap="round" stroke-linejoin="round"/>
<path d="M457.603 98.247C464.311 91.472 469.986 85.887 476.694 79.112C477.724 78.072 480.058 76.228 481.2 77.67C482.013 78.697 480.593 82.443 474.972 87.272C480.588 81.941 483.242 79.673 488.858 74.342C489.568 73.668 490.462 72.941 491.321 73.207C492.201 73.479 492.499 74.723 492.179 75.694C491.859 76.665 491.112 77.414 490.394 78.116C486.278 82.144 486.336 82.781 482.22 86.809C487.457 81.476 487.81 80.643 493.605 76.053C494.564 75.293 495.877 74.523 496.777 75.226C498.69 77.179 494.816 80.515 491.855 83.171C490.159 84.693 488.528 86.122 484.398 89.593C488.647 86.291 490.216 84.717 494.472 81.426C495.271 80.808 496.132 80.165 497.084 80.104C498.035 80.043 499.033 80.857 498.842 81.875C498.721 82.523 498.192 83.004 497.7 83.422C493.142 87.301 491.803 89.093 487.245 92.972C490.593 90.206 490.959 89.874 494.706 87.852C495.819 87.252 497.448 86.841 497.946 87.99C498.406 89.052 497.346 90.234 496.415 90.975C487.254 98.27 480.058 102.991 470.897 110.286" fill="white"/>
<path d="M457.603 98.247C464.311 91.472 469.986 85.887 476.694 79.112C477.724 78.072 480.058 76.228 481.2 77.67C482.013 78.697 480.593 82.443 474.972 87.272C480.588 81.941 483.242 79.673 488.858 74.342C489.568 73.668 490.462 72.941 491.321 73.207C492.201 73.479 492.499 74.723 492.179 75.694C491.859 76.665 491.112 77.414 490.394 78.116C486.278 82.144 486.336 82.781 482.22 86.809C487.457 81.476 487.81 80.643 493.605 76.053C494.564 75.293 495.877 74.523 496.777 75.226C498.69 77.179 494.816 80.515 491.855 83.171C490.159 84.693 488.528 86.122 484.398 89.593C488.647 86.291 490.216 84.717 494.472 81.426C495.271 80.808 496.132 80.165 497.084 80.104C498.035 80.043 499.033 80.857 498.842 81.875C498.721 82.523 498.192 83.004 497.7 83.422C493.142 87.301 491.803 89.093 487.245 92.972C490.593 90.206 490.959 89.874 494.706 87.852C495.819 87.252 497.448 86.841 497.946 87.99C498.406 89.052 497.346 90.234 496.415 90.975C487.254 98.27 480.058 102.991 470.897 110.286" stroke="#010101" stroke-width="1.5" stroke-linecap="round" stroke-linejoin="round"/>
<path d="M474.971 87.272C475.851 88.939 476.59 90.708 476.856 92.574C477.122 94.44 476.885 96.421 475.922 98.042" fill="white"/>
<path d="M474.971 87.272C475.851 88.939 476.59 90.708 476.856 92.574C477.122 94.44 476.885 96.421 475.922 98.042" stroke="#010101" stroke-width="1.5" stroke-linecap="round" stroke-linejoin="round"/>
<path d="M411.188 134.928C426.343 121.089 455.958 94.798 459.384 89.534C465.766 96.964 473.76 106.007 480.141 113.438C477.191 118.174 460.077 140.416 434.449 159.76C427.721 164.838 419.845 168.968 411.418 169.143C402.231 169.334 393.627 164.846 385.895 159.881C374.17 152.353 365.487 145.05 355.845 134.992C348.583 163.887 345.264 180.337 340.774 198.202C308.684 198.202 264.382 198.672 238.332 198.672C239.29 192.768 239.443 191.701 240.401 185.797C220.809 190.344 209.989 192.509 203.191 187.317C199.704 184.654 197.692 180.378 197.084 176.033C196.477 171.688 197.155 167.256 198.253 163.008C201.763 149.436 209.449 137.352 217.524 125.892C222.346 119.049 227.35 112.333 232.528 105.755C238.091 98.687 242.335 93.572 249.687 88.39C257.038 83.208 265.925 79.72 276.649 79.35C282.142 91.667 295.475 99.517 308.438 98.273C321.401 97.029 332.998 86.786 335.958 74.354C343.624 73.618 351.288 74.936 357.137 79.853C378.546 97.849 393.951 115.824 411.188 134.928Z" fill="#FF8B37" stroke="#010101" stroke-width="1.5" stroke-linecap="round" stroke-linejoin="round"/>
<path d="M218.835 158.998C238.753 152.625 258.815 146.703 278.965 141.606C280.681 151.48 282.397 161.353 283.968 171.16C268.527 176.86 251.146 182.517 240.4 185.796" stroke="#010101" stroke-width="1.5" stroke-linecap="round" stroke-linejoin="round"/>
<path d="M296.286 175.677C291.112 159.937 286.395 144.085 282.339 128.505C288.166 126.744 300.663 122.972 306.5 121.243C313.154 119.273 316.948 119.937 319.182 127.482C320.806 132.968 325.503 147.315 327.955 155.596C330.705 164.885 326.397 165.96 321.758 167.764C312.012 171.555 305.467 173.595 296.286 175.676V175.677Z" fill="#7B5FF1" stroke="#010101" stroke-width="1.5" stroke-linecap="round" stroke-linejoin="round"/>
<path d="M300.818 131.331C293.962 133.361 292.396 139.248 292.586 142.357C293.079 150.413 298.007 152.874 302.203 152.898C306.385 152.922 309.963 151.734 313.063 148.926C317.635 144.783 316.269 126.757 300.819 131.331H300.818Z" fill="white" stroke="#010101" stroke-width="1.5" stroke-linecap="round" stroke-linejoin="round"/>
<path d="M301.033 132.057C302.994 138.556 304.956 145.055 306.917 151.554" stroke="#010101" stroke-width="1.5" stroke-linecap="round" stroke-linejoin="round"/>
<path d="M298.14 132.452C297.123 135.126 297.009 139.229 297.503 142.047C298.237 146.241 299.938 150.639 303.598 152.815" stroke="#010101" stroke-width="1.5" stroke-linecap="round" stroke-linejoin="round"/>
<path d="M303.516 130.732C309.811 134.162 312.349 144.085 311.449 150.212" stroke="#010101" stroke-width="1.5" stroke-linecap="round" stroke-linejoin="round"/>
<path d="M293.502 145.937C301.511 143.558 307.188 142.159 315.196 139.78" stroke="#010101" stroke-width="1.5" stroke-linecap="round" stroke-linejoin="round"/>
<path d="M299.384 160.529C306.21 158.357 313.037 156.185 319.863 154.013" stroke="#010101" stroke-width="1.5" stroke-linecap="round" stroke-linejoin="round"/>
<path d="M307.587 163.105C310.325 162.451 313.025 161.639 315.669 160.673" stroke="#010101" stroke-width="1.5" stroke-linecap="round" stroke-linejoin="round"/>
<path d="M275.879 168.58C289.887 164.862 299.469 163.723 307.925 159.904C310.344 158.811 308.859 156.834 307.22 156.942C303.748 157.17 300.516 157.557 297.569 157.734C301.839 157.626 306.024 157.326 310.005 155.617C310.649 155.341 311.296 155.009 311.737 154.496C312.178 153.983 312.359 153.247 312 152.742C311.538 152.092 310.484 152.1 309.594 152.177C305.175 152.559 300.997 153.193 296.691 153.688C299.653 153.495 302.377 153.051 305.334 152.677C307.532 152.399 309.764 152.061 311.819 151.194C312.402 150.948 312.982 150.65 313.405 150.204C313.828 149.758 314.069 149.137 313.879 148.615C313.527 147.648 312.079 147.569 310.92 147.663C305.781 148.081 300.883 148.971 296.027 149.892C300.28 149.508 304.287 148.57 308.437 147.412C309.303 147.17 311.397 146.509 311.458 145.707C311.494 145.228 311.12 144.815 310.655 144.621C310.19 144.426 309.648 144.408 309.12 144.4C305.416 144.351 302.396 144.482 298.675 144.863C296.985 145.036 291.837 146.059 287.481 147.581L286.533 144.307C286.533 144.307 273.93 152.486 273.057 153.087" fill="white"/>
<path d="M275.879 168.58C289.887 164.862 299.469 163.723 307.925 159.904C310.344 158.811 308.859 156.834 307.22 156.942C303.748 157.17 300.516 157.557 297.569 157.734C301.839 157.626 306.024 157.326 310.005 155.617C310.649 155.341 311.296 155.009 311.737 154.496C312.178 153.983 312.359 153.247 312 152.742C311.538 152.092 310.484 152.1 309.594 152.177C305.175 152.559 300.997 153.193 296.691 153.688C299.653 153.495 302.377 153.051 305.334 152.677C307.532 152.399 309.764 152.061 311.819 151.194C312.402 150.948 312.982 150.65 313.405 150.204C313.828 149.758 314.069 149.137 313.879 148.615C313.527 147.648 312.079 147.569 310.92 147.663C305.781 148.081 300.883 148.971 296.027 149.892C300.28 149.508 304.287 148.57 308.437 147.412C309.303 147.17 311.397 146.509 311.458 145.707C311.494 145.228 311.12 144.815 310.655 144.621C310.19 144.426 309.648 144.408 309.12 144.4C305.416 144.351 302.396 144.482 298.675 144.863C296.985 145.036 291.837 146.059 287.481 147.581L286.533 144.307C286.533 144.307 273.93 152.486 273.057 153.087" stroke="#010101" stroke-width="1.5" stroke-linecap="round" stroke-linejoin="round"/>
<path d="M218.835 158.998C238.753 152.625 258.815 146.703 278.965 141.606C280.681 151.48 282.397 161.353 283.968 171.16C268.527 176.86 251.146 182.517 240.4 185.796" fill="#FF8B37"/>
<path d="M218.835 158.998C238.753 152.625 258.815 146.703 278.965 141.606C280.681 151.48 282.397 161.353 283.968 171.16C268.527 176.86 251.146 182.517 240.4 185.796" stroke="#010101" stroke-width="1.5" stroke-linecap="round" stroke-linejoin="round"/>
<path d="M256.835 126.155C251.633 134.848 246.161 143.279 241.15 152.084" stroke="#010101" stroke-width="1.5" stroke-linecap="round" stroke-linejoin="round"/>
<path d="M219.974 436.566C223.814 421.427 233.986 400.183 238.922 385.366C243.39 371.953 269.219 301.681 244.442 304.309C222.356 306.651 216.139 344.533 210.958 368.357C206.176 387.981 201.516 416.107 197.985 436.618C206.716 437.307 210.63 436.131 219.974 436.566Z" fill="white" stroke="#010101" stroke-width="1.5" stroke-linecap="round" stroke-linejoin="round"/>
<path d="M278.665 375.338C278.431 394.657 277.821 418.798 278.528 438.167C285.961 437.396 291.781 438.064 297.539 437.467C299.247 424.727 304.656 408.813 306.364 396.073C308.438 380.604 310.356 369.473 308.533 369.335C297.377 368.488 283.109 372.939 278.665 375.338Z" fill="white" stroke="#010101" stroke-width="1.5" stroke-linecap="round" stroke-linejoin="round"/>
<path d="M275.041 458.613C276.226 450.323 277.011 445.82 278.498 437.3C285.331 437.231 291.108 436.917 297.664 436.566C299.845 440.801 299.939 441.349 301.992 445.337C311.578 449.402 322.176 453.769 322.999 454.453C323.8 455.119 324.303 456.264 323.908 457.228C323.365 458.555 321.618 458.787 320.184 458.817C303.259 459.169 288.789 458.613 275.041 458.613Z" fill="#010101" stroke="#010101" stroke-width="1.5" stroke-linecap="round" stroke-linejoin="round"/>
<path d="M198.612 432.968C197.285 441.832 193.46 449.723 191.617 451.931C190.551 453.209 189.541 454.534 188.592 455.902C188.045 456.691 187.539 457.835 188.215 458.516C188.61 458.915 189.236 458.937 189.797 458.933C202.68 458.856 208.192 458.881 221.075 458.805C221.48 458.803 221.903 458.796 222.264 458.613C222.987 458.246 223.211 457.276 223.008 456.491C222.805 455.706 222.283 455.051 221.823 454.384C217.559 448.201 220.649 437.838 220.905 433.181C215.444 433.181 207.139 432.967 198.611 432.967L198.612 432.968Z" fill="#010101" stroke="#010101" stroke-width="1.5" stroke-linecap="round" stroke-linejoin="round"/>
<path d="M340.016 198.202C339.066 223.676 328.463 326.502 324.401 377.841C307.788 378.228 252.089 376.403 239.625 378.264C242.958 353.561 242.883 337.976 244.605 313.727C233.528 337.085 221.048 377.351 221.048 377.351L188.012 375.635C188.012 375.635 224.628 256.709 239.255 198.671C272.561 198.671 340.054 197.204 340.016 198.202Z" fill="#010101" stroke="#010101" stroke-width="1.5" stroke-linecap="round" stroke-linejoin="round"/>
<path d="M296.283 46.306C295.326 45.598 294.006 45.499 292.874 45.866C291.742 46.232 290.782 47.015 290.01 47.92C289.37 48.671 288.836 49.524 288.53 50.462C287.8 52.695 288.513 55.329 290.27 56.889C292.027 58.449 294.727 58.845 296.939 57.592C296.469 63.798 295.93 69.999 295.291 76.342C288.89 77.245 282.489 78.149 276.088 79.052C275.132 82.801 275.824 86.861 277.567 90.316C279.31 93.771 282.044 96.655 285.132 98.986C292.796 104.77 302.875 107.242 312.345 105.66C316.071 105.038 319.732 103.797 322.867 101.69C328.5 97.905 331.972 91.705 334.963 85.613C336.622 82.236 338.228 78.696 338.33 74.935C332.406 74.935 326.436 75.405 320.869 75.509C320.942 72.758 321.822 68.394 321.834 65.591C326.487 65.135 330.573 61.861 332.77 57.734C334.967 53.607 335.457 48.742 334.984 44.091C334.511 39.44 333.131 34.935 331.757 30.466C325.738 29.724 319.998 26.887 315.753 22.558C316.648 25.394 309.104 44.05 296.283 46.308V46.306Z" fill="white" stroke="#010101" stroke-width="1.5" stroke-linecap="round" stroke-linejoin="round"/>
<path d="M296.129 57.97C297.921 58.963 299.866 60.369 300.538 62.304C300.814 64.434 299.298 67.115 297.836 67.763C300.732 68.556 302.752 71.698 302.342 74.673C301.932 77.648 299.202 80.108 296.204 80.282C295.672 80.313 295.077 80.254 294.716 79.862C295.879 81.56 295.024 84.058 293.365 85.276C291.706 86.494 289.522 86.71 287.464 86.653C285.727 86.605 283.65 86.137 283.074 84.497C279.494 85.876 275.198 85.187 272.229 82.757C270.823 81.606 269.68 80.02 269.462 78.217C269.244 76.414 270.139 74.419 271.815 73.72C270.052 72.932 268.264 71.753 267.685 69.911C266.408 65.846 272.424 59.388 275.417 60.247C275.337 56.955 276.566 53.52 279.152 51.481C281.738 49.442 285.749 49.152 288.255 51.377C287.851 57.438 292.399 59.769 296.127 57.971L296.129 57.97Z" fill="#010101" stroke="#010101" stroke-width="1.5" stroke-linecap="round" stroke-linejoin="round"/>
<path d="M311.839 64.993C315.241 65.77 318.769 65.997 322.243 65.663" stroke="#010101" stroke-width="1.5" stroke-linecap="round" stroke-linejoin="round"/>
<path d="M325.332 38.611C326.663 41.242 327.995 43.873 329.326 46.504C329.437 46.724 329.552 46.963 329.514 47.207C329.446 47.646 328.948 47.855 328.523 47.984C327.237 48.376 325.952 48.767 324.666 49.159" stroke="#010101" stroke-width="1.5" stroke-linecap="round" stroke-linejoin="round"/>
<path d="M87.7309 164.345L72.1819 164.997C71.9129 165.008 71.6239 165.026 71.4119 165.193C71.2299 165.336 71.1379 165.564 71.0549 165.78C70.7649 166.531 70.4759 167.282 70.1859 168.032C70.1519 168.121 70.1169 168.217 70.1389 168.311C70.1839 168.498 70.4169 168.556 70.6069 168.579C74.7159 169.071 78.8319 169.504 82.9529 169.877" fill="#E3E3FF"/>
<path d="M87.7309 164.345L72.1819 164.997C71.9129 165.008 71.6239 165.026 71.4119 165.193C71.2299 165.336 71.1379 165.564 71.0549 165.78C70.7649 166.531 70.4759 167.282 70.1859 168.032C70.1519 168.121 70.1169 168.217 70.1389 168.311C70.1839 168.498 70.4169 168.556 70.6069 168.579C74.7159 169.071 78.8319 169.504 82.9529 169.877" stroke="#010101" stroke-width="1.5" stroke-linecap="round" stroke-linejoin="round"/>
<path d="M73.533 176.36C73.907 176.555 74.361 176.481 74.649 176.173C76.785 173.882 86.189 164.868 93.076 160.55C94.474 159.674 98.741 159.008 98.079 161.394C97.983 161.741 97.726 162.017 97.477 162.277C90.149 169.96 80.13 177.841 75.657 181.897C74.208 183.211 71.997 183.162 70.598 181.794C69.568 180.787 68.95 180.451 67.984 179.428C67.576 178.996 67.632 178.309 68.103 177.945C69.044 177.218 70.142 176.329 70.816 175.778C71.201 175.463 71.734 175.411 72.175 175.64L73.534 176.359L73.533 176.36Z" fill="#E3E3FF" stroke="#010101" stroke-width="1.5" stroke-linecap="round" stroke-linejoin="round"/>
<path d="M83.0869 172.683C83.7419 176.371 84.3979 180.06 85.0529 183.748C85.0949 183.985 85.1579 184.253 85.3689 184.37C85.5739 184.483 85.8279 184.402 86.0479 184.318C86.9499 183.975 87.2369 183.632 88.1389 183.289C88.4409 183.174 88.7589 183.048 88.9559 182.792C89.1099 182.592 89.2119 182.34 89.2119 182.087C89.2119 179.456 89.3819 173.811 89.3819 166.888" fill="#E3E3FF"/>
<path d="M83.0869 172.683C83.7419 176.371 84.3979 180.06 85.0529 183.748C85.0949 183.985 85.1579 184.253 85.3689 184.37C85.5739 184.483 85.8279 184.402 86.0479 184.318C86.9499 183.975 87.2369 183.632 88.1389 183.289C88.4409 183.174 88.7589 183.048 88.9559 182.792C89.1099 182.592 89.2119 182.34 89.2119 182.087C89.2119 179.456 89.3819 173.811 89.3819 166.888" stroke="#010101" stroke-width="1.5" stroke-linecap="round" stroke-linejoin="round"/>
<path d="M576.037 303.649L585.658 185.608L390.646 187.379L382.749 305.281L576.037 303.649Z" fill="white" stroke="#010101" stroke-width="1.5" stroke-linecap="round" stroke-linejoin="round"/>
<path d="M506.362 224.082L501.018 223.613L498.881 218.824L496.54 223.532L491.188 224.257L495.368 227.274L493.987 232.982L498.76 230.073L503.659 233.187L502.203 227.456L506.362 224.082Z" fill="#FF8B37" stroke="#010101" stroke-width="1.5" stroke-linecap="round" stroke-linejoin="round"/>
<path d="M525.651 224.082L520.307 223.613L518.169 218.824L515.829 223.532L510.476 224.257L514.657 227.274L513.275 232.982L518.048 230.073L522.948 233.187L521.491 227.456L525.651 224.082Z" fill="#FF8B37" stroke="#010101" stroke-width="1.5" stroke-linecap="round" stroke-linejoin="round"/>
<path d="M544.527 224.082L539.183 223.613L537.046 218.824L534.705 223.532L529.353 224.257L533.533 227.274L532.151 232.982L536.924 230.073L541.824 233.187L540.368 227.456L544.527 224.082Z" fill="#FF8B37" stroke="#010101" stroke-width="1.5" stroke-linecap="round" stroke-linejoin="round"/>
<path d="M447.081 289.577L476.795 289.397C476.795 289.397 478.602 250.982 478.109 231.85C469.163 231.539 450.079 232.294 450.079 232.294L447.081 289.578V289.577Z" fill="#7B5FF1" stroke="#010101" stroke-width="1.5" stroke-linecap="round" stroke-linejoin="round"/>
<path d="M447.681 289.576L451.049 218.569C451.049 218.569 419.526 218.302 406.297 218.599C405.227 239.024 404.196 262.284 402.744 289.993C415.462 289.993 447.681 289.576 447.681 289.576Z" fill="#7B5FF1" stroke="#010101" stroke-width="1.5" stroke-linecap="round" stroke-linejoin="round"/>
<path d="M454.697 223.362L403.048 223.448L403.177 218.656L454.377 218.522L454.697 223.362Z" fill="#FF8B37" stroke="#010101" stroke-width="1.5" stroke-linecap="round" stroke-linejoin="round"/>
<path d="M438.384 289.589C438.215 282.233 438.308 273.246 438.501 265.872C434.939 266.028 420.267 266.304 413.281 266.304C413.281 273.677 412.989 282.498 413.071 289.84C419.245 289.84 426.555 289.589 438.385 289.589H438.384Z" fill="white" stroke="#010101" stroke-width="1.5" stroke-linecap="round" stroke-linejoin="round"/>
<path d="M426.01 266.166C425.512 275.671 425.742 279.98 425.714 289.772" stroke="#010101" stroke-width="1.5" stroke-linecap="round" stroke-linejoin="round"/>
<path d="M473.38 242.824L455.341 242.978C455.341 242.978 455.033 246.355 455.091 247.737C461.131 247.786 467.179 247.707 473.229 247.501C473.49 245.847 473.38 242.824 473.38 242.824Z" fill="white" stroke="#010101" stroke-width="1.5" stroke-linecap="round" stroke-linejoin="round"/>
<path d="M472.828 253.363L454.789 253.517L454.539 258.277L472.677 258.041L472.828 253.363Z" fill="white" stroke="#010101" stroke-width="1.5" stroke-linecap="round" stroke-linejoin="round"/>
<path d="M450.452 230.928C459.619 230.928 470.32 230.853 480.698 230.853C480.625 232.486 480.463 235.983 480.463 235.983C480.463 235.983 459.914 236.405 450.123 236.405C450.193 234.353 450.234 232.859 450.453 230.929L450.452 230.928Z" fill="#FF8B37" stroke="#010101" stroke-width="1.5" stroke-linecap="round" stroke-linejoin="round"/>
<path d="M472.494 263.902L454.455 264.056L454.205 268.816L472.343 268.58L472.494 263.902Z" fill="white" stroke="#010101" stroke-width="1.5" stroke-linecap="round" stroke-linejoin="round"/>
<path d="M431.251 229.544C431.251 229.544 426.685 229.415 424.409 229.746C424.19 233.228 424.295 236.812 424.076 240.294C426.703 240.275 429.009 240.089 431.639 239.941C431.427 237.671 431.252 229.545 431.252 229.545L431.251 229.544Z" fill="white" stroke="#010101" stroke-width="1.5" stroke-linecap="round" stroke-linejoin="round"/>
<path d="M443.08 229.519C443.08 229.519 438.495 229.74 436.37 229.807C436.523 233.174 436.212 236.912 436.134 240.293C438.411 240.163 440.689 240.13 442.959 240.193C443.019 237.384 443.08 229.519 443.08 229.519Z" fill="white" stroke="#010101" stroke-width="1.5" stroke-linecap="round" stroke-linejoin="round"/>
<path d="M419.038 229.519C419.038 229.519 414.453 229.74 412.328 229.807C412.481 233.174 412.17 236.912 412.092 240.293C414.369 240.163 416.647 240.13 418.917 240.193C418.977 237.384 419.038 229.519 419.038 229.519Z" fill="white" stroke="#010101" stroke-width="1.5" stroke-linecap="round" stroke-linejoin="round"/>
<path d="M430.438 245.046C430.438 245.046 425.872 244.917 423.596 245.248C423.377 248.73 423.482 252.314 423.263 255.796C425.89 255.777 428.196 255.591 430.826 255.443C430.614 253.173 430.439 245.047 430.439 245.047L430.438 245.046Z" fill="white" stroke="#010101" stroke-width="1.5" stroke-linecap="round" stroke-linejoin="round"/>
<path d="M442.267 245.021C442.267 245.021 437.682 245.242 435.557 245.309C435.71 248.676 435.399 252.414 435.321 255.795C437.598 255.665 439.876 255.632 442.146 255.695C442.206 252.886 442.267 245.021 442.267 245.021Z" fill="white" stroke="#010101" stroke-width="1.5" stroke-linecap="round" stroke-linejoin="round"/>
<path d="M418.225 245.021C418.225 245.021 413.64 245.242 411.515 245.309C411.668 248.676 411.357 252.414 411.279 255.795C413.556 255.665 415.834 255.632 418.104 255.695C418.164 252.886 418.225 245.021 418.225 245.021Z" fill="white" stroke="#010101" stroke-width="1.5" stroke-linecap="round" stroke-linejoin="round"/>
<path d="M413.073 205.161C412.968 207.28 412.904 209.399 412.881 211.516" stroke="#010101" stroke-width="1.5" stroke-linecap="round" stroke-linejoin="round"/>
<path d="M413.171 207.961C414.262 207.959 415.698 208.087 416.847 207.828C417.088 207.774 417.324 207.698 417.57 207.691C417.516 207.696 417.462 207.694 417.407 207.695" stroke="#010101" stroke-width="1.5" stroke-linecap="round" stroke-linejoin="round"/>
<path d="M417.887 204.716C417.858 207.028 417.829 209.34 417.8 211.651" stroke="#010101" stroke-width="1.5" stroke-linecap="round" stroke-linejoin="round"/>
<path d="M427.257 204.818C428.728 204.704 430.2 204.648 431.669 204.651" stroke="#010101" stroke-width="1.5" stroke-linecap="round" stroke-linejoin="round"/>
<path d="M429.443 204.893C429.298 207.122 429.265 209.353 429.343 211.574" stroke="#010101" stroke-width="1.5" stroke-linecap="round" stroke-linejoin="round"/>
<path d="M436.833 211.164C435.83 211.24 434.827 211.316 433.824 211.391C433.968 209.061 434.044 206.731 433.961 204.387L436.837 204.206" stroke="#010101" stroke-width="1.5" stroke-linecap="round" stroke-linejoin="round"/>
<path d="M434.352 207.67L436.552 207.702" stroke="#010101" stroke-width="1.5" stroke-linecap="round" stroke-linejoin="round"/>
<path d="M440.033 204.304C439.992 206.706 439.909 209.11 439.782 211.514C440.73 211.414 441.683 211.384 442.628 211.425" stroke="#010101" stroke-width="1.5" stroke-linecap="round" stroke-linejoin="round"/>
<path d="M423.479 204.271C422.554 204.444 421.791 205.194 421.368 206.046C420.945 206.898 420.808 207.846 420.7 208.776C420.618 209.482 420.568 210.259 420.982 210.811C421.323 211.264 421.917 211.462 422.495 211.496C423.294 211.542 424.17 211.279 424.689 210.639C425.017 210.234 425.172 209.722 425.277 209.22C425.45 208.383 425.504 207.528 425.436 206.689C425.389 206.11 425.277 205.519 424.95 205.052C424.623 204.585 424.037 204.167 423.478 204.272L423.479 204.271Z" stroke="#010101" stroke-width="1.5" stroke-linecap="round" stroke-linejoin="round"/>
<path d="M445.969 200.528C433.972 200.321 421.95 200.475 409.628 201.27C409.421 205.955 409.214 210.641 409.313 215.242C410.478 215.45 411.681 215.444 412.876 215.438C423.942 215.38 435.009 215.323 446.075 215.265C445.722 213.498 446.451 203.646 445.969 200.528Z" stroke="#010101" stroke-width="1.5" stroke-linecap="round" stroke-linejoin="round"/>
<path d="M414.877 218.676C414.889 217.611 414.971 216.544 415.041 215.376C415.979 215.361 416.917 215.347 417.855 215.332C417.711 216.397 417.624 217.467 417.596 218.536C416.879 218.592 416.16 218.547 414.878 218.675L414.877 218.676Z" stroke="#010101" stroke-width="1.5" stroke-linecap="round" stroke-linejoin="round"/>
<path d="M437.035 215.405C437.074 216.481 437.054 217.563 436.976 218.644C437.72 218.576 439.021 218.625 439.76 218.677C439.787 217.523 439.814 216.369 439.841 215.215C438.966 215.216 437.537 215.16 437.034 215.405H437.035Z" stroke="#010101" stroke-width="1.5" stroke-linecap="round" stroke-linejoin="round"/>
<path d="M489.648 248.036C514.746 247.924 539.841 247.182 564.901 245.81" stroke="#010101" stroke-width="1.5" stroke-linecap="round" stroke-linejoin="round"/>
<path d="M490.582 262.424C516.394 261.626 539.089 260.828 564.901 260.03" stroke="#010101" stroke-width="1.5" stroke-linecap="round" stroke-linejoin="round"/>
<path d="M524.322 275.754C524.322 275.754 499.997 276.171 492.506 276.592C492.135 278.565 492.013 280.584 492.142 282.587C503.676 281.938 524.273 281.843 524.273 281.843L524.322 275.754Z" fill="#FF8B37" stroke="#010101" stroke-width="1.5" stroke-linecap="round" stroke-linejoin="round"/>
<path d="M355.403 280.642C354.902 280.574 354.372 280.817 354.095 281.24C353.818 281.663 353.809 282.246 354.073 282.678C354.542 283.447 355.828 283.483 356.361 282.756C356.893 282.03 356.507 280.791 355.403 280.642Z" fill="#010101"/>
<path d="M559.932 47.55C559.318 47.467 558.668 47.764 558.329 48.283C557.99 48.802 557.979 49.516 558.302 50.046C558.877 50.989 560.454 51.033 561.106 50.142C561.759 49.251 561.285 47.733 559.932 47.55Z" fill="#010101"/>
</g>
<defs>
<clipPath id="clip0_35_1455">
<rect width="586.408" height="459.684" fill="white"/>
</clipPath>
</defs>
</svg>
