<?xml version="1.0" encoding="UTF-8"?>
<svg id="Layer_2" data-name="Layer 2" xmlns="http://www.w3.org/2000/svg" viewBox="0 0 873.49 740.76">
  <defs>
    <style>
      .cls-1 {
        fill: #f57a59;
      }

      .cls-2 {
        fill: #0268c4;
      }

      .cls-3 {
        fill: #f0e0c9;
      }

      .cls-4 {
        fill: #fc7f1a;
      }

      .cls-5 {
        fill: #ffa350;
      }

      .cls-6, .cls-7, .cls-8 {
        fill: #fff;
      }

      .cls-9 {
        fill: #ffd4b0;
      }

      .cls-10 {
        fill: #ffb999;
      }

      .cls-11 {
        fill: #ffbe88;
      }

      .cls-12 {
        fill: #effdfd;
      }

      .cls-13 {
        fill: #ff8724;
      }

      .cls-14 {
        fill: #80deff;
      }

      .cls-15 {
        fill: #84ecff;
      }

      .cls-16 {
        fill: #b3f4f6;
      }

      .cls-17 {
        fill: #30cad6;
      }

      .cls-18 {
        fill: #8f46b7;
      }

      .cls-19 {
        fill: #dce9ff;
      }

      .cls-20 {
        fill: #acd9ea;
      }

      .cls-21 {
        fill: #c5f8ff;
      }

      .cls-22 {
        fill: #dbba8f;
      }

      .cls-23 {
        fill: #e0f3fc;
      }

      .cls-24 {
        fill: #232144;
      }

      .cls-25 {
        fill: #066dc9;
      }

      .cls-26 {
        fill: #1ba9db;
      }

      .cls-27 {
        fill: #1c3244;
      }

      .cls-28 {
        fill: #702d9b;
      }

      .cls-29 {
        fill: #86c0d1;
      }

      .cls-30 {
        fill: #2e4c64;
      }

      .cls-31 {
        fill: #398ae2;
      }

      .cls-32 {
        fill: #4ac8ff;
      }

      .cls-33 {
        fill: #4c4047;
      }

      .cls-34 {
        fill: #79b9cc;
      }

      .cls-35 {
        fill: #722aa0;
      }

      .cls-36, .cls-37 {
        fill: #52197f;
      }

      .cls-7 {
        opacity: .5;
      }

      .cls-7, .cls-37, .cls-8 {
        isolation: isolate;
      }

      .cls-37 {
        opacity: .69;
      }

      .cls-8 {
        opacity: .25;
      }
    </style>
  </defs>
  <g id="Layer_1-2" data-name="Layer 1">
    <g id="Layer_2-2" data-name="Layer 2">
      <g id="Layer_2-2" data-name="Layer 2-2">
        <polygon class="cls-23" points="14.92 642.07 63.45 401.18 78.74 403.61 36.01 641.61 14.92 642.07"/>
        <polygon class="cls-29" points="59.25 417.49 64.26 395.44 79.55 397.88 75.59 417.49 59.25 417.49"/>
        <path class="cls-24" d="M41.14,556.03c-.06,0-.11,0-.17-.02-.39-.09-.63-.48-.54-.87l3.3-13.76c.09-.39,.48-.63,.87-.53,.39,.09,.63,.49,.54,.87l-3.3,13.76c-.08,.33-.38,.55-.7,.55Z"/>
        <path class="cls-24" d="M36.68,560.11c-.06,0-.11,0-.17-.02-.39-.09-.63-.48-.54-.87l3.3-13.76c.09-.39,.48-.64,.87-.53,.39,.09,.63,.48,.54,.87l-3.3,13.76c-.08,.33-.38,.55-.7,.55Z"/>
        <path class="cls-6" d="M20.51,625.21c-.09,0-.19,0-.29-.03-.79-.16-1.29-.92-1.14-1.71l9.42-47.02c.16-.78,.92-1.3,1.7-1.13,.79,.16,1.29,.92,1.14,1.71l-9.42,47.02c-.14,.69-.74,1.16-1.42,1.16Z"/>
        <path class="cls-24" d="M14.92,643.83c-.52,0-1.01-.23-1.34-.63-.34-.41-.48-.95-.37-1.47l33.84-168.87c.19-.95,1.11-1.56,2.06-1.37,.95,.19,1.56,1.11,1.37,2.06l-33.41,166.73,17.47-.38,42.16-234.82-11.87-1.89-11.43,56.01c-.19,.95-1.11,1.56-2.07,1.37-.95-.19-1.56-1.12-1.37-2.07l11.76-57.65c.19-.92,1.05-1.52,1.99-1.38l15.3,2.43c.46,.07,.88,.33,1.15,.72,.27,.38,.38,.86,.3,1.33l-42.73,237.99c-.15,.82-.85,1.43-1.69,1.44l-21.09,.46s-.03,0-.04,0Z"/>
        <path class="cls-18" d="M561.48,147.77l-15.53,6.14-77.32,63.16c-4.17,3.42-10.32,2.81-13.74-1.36-.06-.07-.11-.14-.17-.21l-29.84-38.33c-11.04-.41-29.46,9.21-29.46,9.21l12.49,7.16-13.7,4.08,2.46,4.72,20.28-.64,.61,25.38,25.03,30.77c7.98,9.67,22.12,11.45,32.24,4.06l68.46-50.41"/>
        <polyline class="cls-3" points="359.38 201.86 282.55 201.86 282.55 359.43 417.12 359.43 417.12 201.86 386.3 201.86"/>
        <polyline class="cls-23" points="357.59 214.55 295.24 214.55 295.24 324.99 404.43 324.99 404.43 214.55 379.43 214.55"/>
        <polygon class="cls-20" points="353.5 323.74 328.76 323.74 366.8 215.16 391.54 215.16 353.5 323.74"/>
        <polygon class="cls-20" points="321.4 323.74 312.83 323.54 350.86 214.96 359.44 215.16 321.4 323.74"/>
        <polygon class="cls-20" points="306.28 323.74 297.67 323.54 335.71 214.96 344.32 215.16 306.28 323.74"/>
        <path class="cls-6" d="M297.59,202.99h49.13c2.96,0,5.36,2.4,5.36,5.36h0c0,2.96-2.4,5.36-5.36,5.36h-49.13c-2.96,0-5.36-2.4-5.36-5.36h0c0-2.96,2.4-5.36,5.36-5.36Z"/>
        <path class="cls-22" d="M402.78,330.26h0c0,2.96-2.4,5.36-5.36,5.36h-49.13c-2.96,0-5.36-2.4-5.36-5.36h0c0-2.96,2.4-5.36,5.36-5.36h49.13c2.96,0,5.36,2.4,5.36,5.36Z"/>
        <path class="cls-22" d="M350.86,353.15h0c0,2.96-2.4,5.36-5.36,5.36h-49.13c-2.96,0-5.36-2.4-5.36-5.36h0c0-2.96,2.4-5.36,5.36-5.36h49.13c2.96,0,5.36,2.4,5.36,5.36Z"/>
        <polygon class="cls-6" points="347.39 245.17 331.37 273.45 315.32 301.69 348.05 301.32 380.76 300.94 364.07 273.07 347.39 245.17"/>
        <path class="cls-24" d="M380.85,302.01h-65.45c-.52,0-1-.28-1.26-.73s-.26-1,0-1.45l32.74-56.17c.26-.45,.74-.72,1.25-.72h0c.52,0,.99,.27,1.25,.72l32.71,56.17c.26,.45,.26,1,0,1.45s-.74,.73-1.26,.73Zm-62.92-2.9h60.4l-30.19-51.85-30.22,51.85Z"/>
        <circle class="cls-6" cx="368.57" cy="256.47" r="6.14"/>
        <path class="cls-24" d="M369.09,262.9c-4.19,0-7.59-3.4-7.59-7.59s3.4-7.59,7.59-7.59,7.59,3.4,7.59,7.59-3.4,7.59-7.59,7.59Zm0-12.28c-2.59,0-4.69,2.1-4.69,4.69s2.1,4.69,4.69,4.69,4.69-2.1,4.69-4.69-2.1-4.69-4.69-4.69Z"/>
        <path class="cls-24" d="M417.12,289.47c-.8,0-1.45-.65-1.45-1.45v-84.71h-11.99c-.8,0-1.45-.65-1.45-1.45s.65-1.45,1.45-1.45h13.44c.8,0,1.45,.65,1.45,1.45v86.16c0,.8-.65,1.45-1.45,1.45Z"/>
        <path class="cls-24" d="M417.12,322.03c-.8,0-1.45-.65-1.45-1.45v-23.12c0-.8,.65-1.45,1.45-1.45s1.45,.65,1.45,1.45v23.12c0,.8-.65,1.45-1.45,1.45Z"/>
        <path class="cls-24" d="M414.05,360.88s-.09,0-.13,0h-19.57c-.8,0-1.45-.65-1.45-1.45s.65-1.45,1.45-1.45h19.61c.97,.05,1.77-.72,1.8-1.66v-24.88c0-.8,.65-1.45,1.45-1.45s1.45,.65,1.45,1.45v24.92c-.03,1.27-.55,2.41-1.44,3.26-.86,.81-1.98,1.26-3.16,1.26Z"/>
        <path class="cls-24" d="M386.44,360.94h-100.76c-2.52,0-4.58-2.05-4.58-4.58V201.86c0-.8,.65-1.45,1.45-1.45h79.61c.8,0,1.45,.65,1.45,1.45s-.65,1.45-1.45,1.45h-78.16v153.05c0,.93,.75,1.68,1.68,1.68h100.76c.8,0,1.45,.65,1.45,1.45s-.65,1.45-1.45,1.45Z"/>
        <path class="cls-34" d="M325.23,326.18h-28.36c-2.4,0-4.35-1.95-4.35-4.35v-33.52c0-2.4,1.95-4.35,4.35-4.35s4.35,1.95,4.35,4.35v29.17h24.02c2.4,0,4.35,1.95,4.35,4.35s-1.95,4.35-4.35,4.35Z"/>
        <path class="cls-24" d="M404.03,326.44h-110.44c-.8,0-1.45-.65-1.45-1.45v-110.44c0-.8,.65-1.45,1.45-1.45h64.14c.8,0,1.45,.65,1.45,1.45s-.65,1.45-1.45,1.45h-62.69v107.54h107.54v-108.99c0-.8,.65-1.45,1.45-1.45s1.45,.65,1.45,1.45v110.44c0,.8-.65,1.45-1.45,1.45Z"/>
        <path class="cls-33" d="M292.58,346.89c-.15,0-.3-.05-.43-.14-.32-.24-.39-.69-.16-1.01l8.34-11.44c.24-.32,.69-.39,1.01-.16,.32,.24,.39,.69,.16,1.01l-8.34,11.44c-.14,.19-.36,.3-.59,.3Z"/>
        <path class="cls-33" d="M298.25,344.83c-.15,0-.3-.05-.43-.14-.32-.24-.39-.69-.16-1.01l8.34-11.44c.24-.32,.69-.39,1.01-.16,.32,.24,.39,.69,.16,1.01l-8.34,11.44c-.14,.19-.36,.3-.59,.3Z"/>
        <polygon class="cls-23" points="240.57 640.8 187.61 401.15 172.69 403.5 218.12 641.55 240.57 640.8"/>
        <polygon class="cls-29" points="190.8 416.53 186.4 395.01 171.48 397.36 175.53 416.53 190.8 416.53"/>
        <path class="cls-24" d="M218.12,643.27c-.83,0-1.54-.59-1.69-1.4l-45.43-238.05c-.09-.46,.01-.93,.28-1.31s.68-.64,1.14-.71l14.92-2.35c.9-.13,1.75,.44,1.95,1.33l53.77,240.2c.11,.51,0,1.04-.33,1.45-.32,.41-.81,.65-1.33,.65l-23.26,.2h-.02Zm-43.4-238.35l44.82,234.89,19.69-.17-52.95-236.54-11.56,1.82Z"/>
        <path class="cls-24" d="M193.15,467.52c-.33,0-.63-.23-.71-.57l-2.96-13.85c-.08-.39,.17-.78,.56-.86,.38-.07,.78,.17,.86,.56l2.96,13.85c.08,.39-.17,.78-.56,.86-.05,0-.1,.02-.15,.02Z"/>
        <path class="cls-24" d="M190.86,473.11c-.33,0-.63-.23-.71-.57l-2.96-13.85c-.08-.39,.17-.78,.56-.86,.38-.07,.78,.17,.86,.56l2.96,13.85c.08,.39-.17,.78-.56,.86-.05,0-.1,.02-.15,.02Z"/>
        <polygon class="cls-23" points="139.32 616.75 137.29 400.28 122.2 399.59 121.33 616.75 139.32 616.75"/>
        <polygon class="cls-29" points="137.79 416.53 137.84 394.55 122.75 393.85 122.84 416.53 137.79 416.53"/>
        <path class="cls-24" d="M139.87,620.13h-17.99c-.46,0-.9-.18-1.22-.51-.32-.33-.51-.76-.5-1.22l.87-217.19c0-.47,.2-.92,.54-1.24,.34-.32,.81-.49,1.27-.47l15.09,.7c.91,.04,1.64,.79,1.65,1.71l2.03,216.5c0,.46-.17,.9-.5,1.23-.32,.33-.77,.51-1.23,.51Zm-16.26-3.45h14.52l-2-213.13-11.67-.54-.85,213.67Z"/>
        <path class="cls-24" d="M131.99,612.64c-.4,0-.72-.32-.72-.72l-.09-14.17c0-.4,.27-.77,.72-.73,.4,0,.72,.32,.72,.72l.09,14.17c0,.4-.32,.73-.72,.73h0Z"/>
        <path class="cls-24" d="M128.63,617.65c-.4,0-.72-.32-.72-.72l-.09-14.17c0-.4,.32-.73,.72-.73h0c.4,0,.72,.32,.72,.72l.09,14.17c0,.4-.32,.73-.72,.73h0Z"/>
        <path class="cls-10" d="M398.29,187.96c-11.51-4.42-24.54-.07-31.09,10.37l-3.53,12.4c0,13.47,7.94,24.39,17.73,24.39s17.7-10.92,17.7-24.39l-5.79-13.5s25.35-3.68,31.09-20.05"/>
        <polygon class="cls-36" points="757.41 201.11 742.87 185.99 750.43 182.51 771.52 187.61 757.41 201.11"/>
        <polygon class="cls-36" points="414.45 189.46 423.7 178.92 415.47 177.7 395.65 187.41 407.91 193.34 414.45 189.46"/>
        <path class="cls-18" d="M775.81,203.37c-24.13-4.49-30.27-20.05-30.27-20.05l-30.68,47.86-83.03-65.85-11.59,47.02,102.24,70.37,13.5-2.06"/>
        <polyline class="cls-3" points="795.1 209.51 871.9 209.51 871.9 367.05 737.36 367.05 737.36 209.51 768.16 209.51"/>
        <polyline class="cls-15" points="797.71 221.97 860.05 221.97 860.05 332.4 750.86 332.4 750.86 221.97 775.86 221.97"/>
        <path class="cls-30" d="M648.16,694.42v28.74s31.87,16.63,65.27,17.06c1.03,0,2.05-.08,3.07-.23l13.04-2.11c2.4-.41,4.16-2.49,4.17-4.93h0c.01-7.21-2.84-14.13-7.94-19.24-8.2-8.23-27.81-22.68-43.69-26.62"/>
        <path class="cls-27" d="M732.78,730.23c.04,.78,.04,1.57,0,2.35,0,2.43-1.77,4.5-4.17,4.9l-13.04,2.11c-1.02,.15-2.04,.23-3.07,.23-33.43-.41-65.27-17.06-65.27-17.06l1.56-8.69c19,12.08,67.82,23.99,84.01,16.08"/>
        <path class="cls-24" d="M711.29,740.76c-11.1,0-22.14-1.51-32.98-4.53-9.9-2.77-19.63-6.42-28.92-10.84-1.63-.78-2.65-2.44-2.59-4.25v-26.93c0-.8,.65-1.45,1.45-1.45s1.45,.65,1.45,1.45v26.97c-.02,.7,.35,1.31,.94,1.59,9.14,4.35,18.71,7.93,28.45,10.66,16.46,4.58,33.36,5.6,50.24,3.06,1.73-.25,3.02-1.76,3.03-3.49,.01-6.88-2.66-13.35-7.51-18.21-12.44-11.73-26.97-20.58-43.14-26.28-.76-.27-1.15-1.09-.89-1.85,.27-.76,1.1-1.15,1.85-.89,16.56,5.84,31.43,14.9,44.2,26.94,5.44,5.45,8.4,12.64,8.39,20.29,0,3.16-2.36,5.9-5.5,6.36-6.16,.93-12.32,1.39-18.46,1.39Z"/>
        <path class="cls-30" d="M558.53,697.46v30.91l-7.13,2.43c-10.62,3.62-21.77,5.47-33,5.48h0c-10.28,0-29.17-1.54-38.99-4.58l-2.9-.96c-2.26-.7-3.53-3.1-2.83-5.36,.17-.54,.44-1.04,.8-1.47,7.45-8.89,33.29-26.91,53.05-30.16"/>
        <path class="cls-27" d="M551.95,716.73l6.58-2.26,.26,13.65-7.13,2.43c-10.64,3.63-21.81,5.48-33.06,5.48-10.28,0-29.17-1.54-38.99-4.58l-2.9-.93c-2.27-.71-3.54-3.14-2.83-5.41,.16-.51,.41-.98,.74-1.4l1.77-2.06c.27,.18,.56,.32,.87,.41l2.9,.93,6.03,.38c18.45,1.16,45.63-.87,63.39-5.97l2.38-.67Z"/>
        <path class="cls-24" d="M517.59,737.73h-.03c-9.87,0-29.21-1.48-39.4-4.64l-2.92-.96c-2.98-.91-4.68-4.11-3.76-7.11,.23-.75,.6-1.44,1.12-2.04,7.45-8.9,33.59-27.31,53.91-30.65,.79-.14,1.53,.4,1.66,1.19,.13,.79-.4,1.53-1.19,1.66-19.67,3.23-44.95,21.04-52.17,29.66-.26,.31-.45,.64-.56,1.01-.45,1.49,.39,3.06,1.87,3.51l2.93,.96c9.88,3.07,28.83,4.5,38.51,4.5h.03c11.08,0,22.01-1.82,32.5-5.4l6.18-2.1v-29.87c0-.8,.65-1.45,1.45-1.45s1.45,.65,1.45,1.45v30.91c0,.62-.39,1.17-.98,1.37l-7.16,2.43c-10.79,3.68-22.04,5.55-33.44,5.55Z"/>
        <path class="cls-30" d="M533.09,686.42c-7.5,1.36-12.86,4.87-12.86,8.98,0,5.24,8.69,9.53,19.64,9.53s19.61-4.29,19.61-9.53c0-3.3-3.42-6.2-8.69-7.91"/>
        <path class="cls-24" d="M539.17,706.39c-11.83,0-21.09-4.82-21.09-10.98,0-4.77,5.52-8.86,14.05-10.41,.79-.12,1.54,.38,1.68,1.17,.14,.79-.38,1.54-1.17,1.69-6.87,1.25-11.67,4.36-11.67,7.56,0,3.9,7.31,8.08,18.19,8.08s18.16-4.18,18.16-8.08c0-2.49-2.95-5-7.69-6.53-.76-.25-1.18-1.06-.93-1.82,.25-.76,1.06-1.17,1.82-.93,6.16,2,9.69,5.38,9.69,9.29,0,6.16-9.25,10.98-21.06,10.98Z"/>
        <path class="cls-30" d="M674,680.43c7.94,1.36,13.59,4.87,13.59,8.95,0,5.27-9.3,9.56-20.74,9.56s-20.77-4.29-20.77-9.42c0-3.27,3.62-6.17,9.15-7.91"/>
        <path class="cls-10" d="M657.95,678.08v12.17h0c5.04,1.88,10.6,1.88,15.64,0h0v-15.21"/>
        <path class="cls-1" d="M657.95,668.9v12.17h0c5.04,1.88,10.6,1.88,15.64,0h0v-15.33"/>
        <path class="cls-10" d="M546.27,677.7v16.37h0c-5.04,1.88-10.6,1.88-15.64,0h0v-16.37"/>
        <path class="cls-1" d="M546.27,667.07v16.37h0c-5.04,1.88-10.6,1.88-15.64,0h0v-16.37"/>
        <path class="cls-31" d="M651.87,380.44v76.11l32.74,212.21-.43,.29c-11,7.55-24.62,10.23-37.66,7.42h0l-68.52-214.7-6.29-30.07,12.31,49.25-23,194.8-2.61,.52c-11.62,2.33-23.6,2.16-35.14-.52h0l-15.9-254.94c-.83-13.81-.83-27.65,0-41.46h0"/>
        <path class="cls-2" d="M682.29,668.75l-.43,.29c-10.98,7.59-24.62,10.27-37.66,7.42v-.14c14.14-46.35,15.01-121.68,13.88-168.99l24.22,161.42Z"/>
        <path class="cls-25" d="M650.94,402.45c-48.32,6.62-97.45,4.14-144.85-7.3v-5.79c0-5.56,.2-11.1,.52-16.63h2.55c.45,.27,.91,.5,1.39,.7,11.44,4.66,37.66,11.82,91.63,11.82l-2.55-11.82,50.96,.38,.17,15.53,.17,13.12Z"/>
        <path class="cls-6" d="M554.33,169.24l-49.45,199.38c-1.25,4.77,1.23,9.73,5.79,11.59,11.44,4.66,37.66,11.82,91.63,11.82l17.38-55.39-17.06-71.01,9.85-107.42-7.62-10.92-25.09-16.37-13.09,7.1-14.17,23.99,1.83,7.24Z"/>
        <polygon class="cls-28" points="543.63 211.28 504.84 368.56 486.1 370.12 524.25 243.61 525.27 224.46 543.63 211.28"/>
        <path class="cls-36" d="M505.25,362.3c-.23,0-.46-.03-.69-.08-1.55-.38-2.51-1.94-2.13-3.5l10.26-42.24c.38-1.55,1.95-2.51,3.5-2.13,1.55,.38,2.51,1.94,2.13,3.5l-10.26,42.24c-.32,1.33-1.51,2.21-2.81,2.21Z"/>
        <path class="cls-36" d="M517.8,310.59c-.23,0-.46-.03-.69-.08-1.55-.38-2.51-1.94-2.13-3.5l10.98-45.22c.38-1.55,1.95-2.51,3.5-2.13,1.55,.38,2.51,1.94,2.13,3.5l-10.98,45.22c-.32,1.33-1.51,2.21-2.81,2.21Z"/>
        <circle class="cls-4" cx="543.63" cy="32.82" r="13.91"/>
        <path class="cls-24" d="M543.64,47.88c-8.31,0-15.07-6.76-15.07-15.07s6.76-15.06,15.07-15.06,15.06,6.76,15.06,15.06-6.76,15.07-15.06,15.07Zm0-27.81c-7.03,0-12.75,5.72-12.75,12.75s5.72,12.75,12.75,12.75,12.75-5.72,12.75-12.75-5.72-12.75-12.75-12.75Z"/>
        <path class="cls-19" d="M604.13,387.65c2.9-26.39,10.14-53.22,2.9-79.44-3.49-10.8-6.28-21.81-8.37-32.97-.93-5.9-1.04-11.89-.35-17.82,.36-2.79,.98-5.53,1.85-8.2,.68-1.62,1.2-3.31,1.54-5.04,.23-2.55,0-5.27,0-7.82v-89.9c0-2.4-1.95-4.35-4.35-4.35s-4.35,1.95-4.35,4.35v86.13c.22,3.54,.22,7.09,0,10.63-.46,1.76-1.04,3.48-1.74,5.16-1.55,5.81-2.24,11.81-2.06,17.82,.69,11.82,2.91,23.51,6.61,34.76,1.62,5.53,3.36,11.07,4.58,16.72,1.2,6.3,1.64,12.72,1.3,19.12-.53,8.37-1.5,16.7-2.9,24.97-1.19,8.69-2.4,17.38-3.39,26.07-.61,5.56,8.08,5.5,8.69,0l.03-.2Z"/>
        <path class="cls-10" d="M757.18,195.81c1.04-.84,10.02-10.23,10.02-10.23h9.79c4.37,0,8.48,2.1,11.04,5.65h0c1.62,2.29,2.49,5.02,2.49,7.82v20.66l-6.81,12.08c-1.86,3.23-5.31,5.22-9.04,5.21h0c-1.93,0-3.83-.53-5.48-1.54l-1.16-.72c-3.02-1.86-4.88-5.14-4.93-8.69v-16.8h4.4c2.99,0,5.42-2.43,5.42-5.42h0"/>
        <path class="cls-18" d="M644.25,228.31l1.62,6.69c11.97,48.48,28.97,95.59,50.73,140.54h0s-6.55,11.59-40.91,27.29c-34.36,15.7-61.07,6-61.07,6,10.28-12.81,14.8-46.35,16.72-68.28,1.07-12.54-.46-25.17-4.52-37.08l-4.72-13.73c-4.89-14.4-5.6-29.89-2.03-44.67h0V123.61l31.35,24.94,7.76,12.69"/>
        <path class="cls-37" d="M696.05,376.09c-2.08,2.96-4.64,5.57-7.56,7.71-10.27,7.87-21.47,14.44-33.35,19.56-34.36,15.82-61.07,6-61.07,6h0c44.09-12.2,68.69-50.21,81.49-79.67,6.28,15.68,13.1,31.15,20.48,46.41Z"/>
        <path class="cls-36" d="M546.94,197.83l-3.65,12.78-68.49,50.32c-10.12,7.41-24.27,5.63-32.24-4.06l-5.45-6.63c9.38,8.6,23.5,9.47,33.87,2.09l75.96-54.49Z"/>
        <polyline class="cls-28" points="564.15 133.38 545.95 122.37 545.95 153.89 560.06 149.37 566.81 139.14"/>
        <path class="cls-10" d="M588.77,123.9v12.46c.03,3.74-2.15,7.15-5.56,8.69h0c-3.83,1.71-8.2,1.71-12.02,0h0c-3.41-1.54-5.59-4.95-5.56-8.69v-13.76"/>
        <path class="cls-1" d="M588.77,108.58v12.46c.05,3.75-2.14,7.16-5.56,8.69h0c-3.82,1.74-8.2,1.74-12.02,0h0c-3.42-1.53-5.61-4.94-5.56-8.69v-13.82"/>
        <path class="cls-10" d="M609.72,40.99v49.25c-.02,18.67-15.14,33.79-33.81,33.81h0c-18.67,0-33.81-15.14-33.81-33.81V48.81c0-1.94,1.33-8.43,1.62-10.28"/>
        <path class="cls-6" d="M576.84,122.71h-1.85c-18.64-.02-33.76-15.11-33.81-33.75V47.62c0-1.91,1.33-8.43,1.65-10.26h3.65c-.35,1.97-1.62,8.23-1.62,10.11v41.49c0,17.92,13.98,32.72,31.87,33.75h.12Z"/>
        <path class="cls-1" d="M609.51,40.38v49.25c0,18.69-10.84,30.82-29.26,33.69-1.8,.43-3.65,.63-5.5,.61,16.4-2.32,19.35-17.24,19.35-34.3V40.38l-50.64-2.11v-.35l66.05,2.46Z"/>
        <path class="cls-24" d="M575.91,125.12c-19.28,0-34.97-15.69-34.97-34.97V48.81c0-1.95,.15-3.91,.48-5.84,.11-.63,.69-1.06,1.34-.95,.63,.11,1.06,.7,.95,1.34-.3,1.8-.46,3.63-.45,5.45v41.35c0,18,14.65,32.65,32.65,32.65,17.99-.02,32.63-14.66,32.65-32.65v-24.39c0-.64,.52-1.16,1.16-1.16s1.16,.52,1.16,1.16v24.39c-.02,19.27-15.7,34.95-34.97,34.97Z"/>
        <path class="cls-1" d="M562.7,96.97h-6c-.62,0-1.11-.5-1.11-1.11v-4.09c0-.62,.5-1.11,1.11-1.11s1.11,.5,1.11,1.11v2.97h4.88c.62,0,1.11,.5,1.11,1.11s-.5,1.11-1.11,1.11Z"/>
        <path class="cls-1" d="M557.22,105.69h-.52c-.62,0-1.11-.5-1.11-1.11s.5-1.11,1.11-1.11h.52c4.82,0,9.59-1.26,13.79-3.62,.54-.3,1.22-.11,1.52,.42,.3,.54,.11,1.22-.42,1.52-4.54,2.55-9.68,3.9-14.89,3.91Z"/>
        <path class="cls-24" d="M555.6,61.41h-10.98c-1.6,0-2.9-1.3-2.9-2.9s1.3-2.9,2.9-2.9h10.98c1.6,0,2.9,1.3,2.9,2.9s-1.3,2.9-2.9,2.9Z"/>
        <path class="cls-24" d="M577.07,61.41h-10.98c-1.6,0-2.9-1.3-2.9-2.9s1.3-2.9,2.9-2.9h10.98c1.6,0,2.9,1.3,2.9,2.9s-1.3,2.9-2.9,2.9Z"/>
        <path class="cls-24" d="M577.2,147.49c-2.21,0-4.42-.46-6.48-1.38-3.83-1.73-6.28-5.56-6.25-9.76v-13.75c0-.64,.52-1.16,1.16-1.16s1.16,.52,1.16,1.16v13.76c-.03,3.29,1.89,6.28,4.88,7.63,3.51,1.57,7.55,1.57,11.07,0,2.99-1.35,4.9-4.34,4.88-7.62v-14.5c0-.64,.52-1.16,1.16-1.16s1.16,.52,1.16,1.16v14.49c.04,4.19-2.42,8.02-6.25,9.75-2.06,.92-4.28,1.38-6.49,1.38Z"/>
        <path class="cls-5" d="M590.45,66.08c-1.74-1.75-2.72-4.11-2.72-6.58h0c0-2.47,.98-4.83,2.72-6.58l1.04-1.01v-1.83c0-2.05-1.66-3.71-3.71-3.71h0c-3.14,.05-6.21-.97-8.69-2.9h0c-3.65-2.87-8.48-3.73-12.89-2.32l-8.89,2.9c-1.86,.63-3.84,.84-5.79,.61-14.11-1.59-14.17-13.79-14.17-20.28,0-6.95,2.9-16.86,16.63-17.18,10.63-.26,14.49,4.9,14.49,4.9l-4.87-3.39c5.04-5.09,11.99-7.82,19.15-7.53h0c7.19-.31,14.17,2.42,19.24,7.53,1.47,1.45,2.71,3.11,3.68,4.93l-10.43-.2,9.18,1.27s17.38,3.22,19.03,26.07c1.65,22.86-17.38,28.62-17.38,28.62"/>
        <path class="cls-4" d="M611.57,66.19c-1.94,1.43-4.08,2.56-6.34,3.36l-9.07-2v-7.53c3.82-5.61,5.51-12.4,4.78-19.15v-.87c-1.74-19.61-15.06-25.29-18.11-26.33h.41c-1.01-1.83-2.29-3.5-3.8-4.95-2.32-2.46-5.18-4.35-8.34-5.53,3.44-1.37,7.11-2.06,10.81-2.03h0c7.19-.32,14.18,2.43,19.24,7.56,1.26,1.5,2.34,3.14,3.22,4.9l.9,1.56c-.38,0-.35,0-.35,0l-10.52-1.83,10.78,1.62c3.07,1.04,15.99,5.45,17.38,25.78,1.07,14.08-5.45,21.64-10.98,25.44Z"/>
        <path class="cls-24" d="M599.52,145.69c-.24,0-.49-.08-.7-.23l-9.82-7.42c-.51-.39-.61-1.11-.23-1.62s1.11-.61,1.62-.23l9.82,7.42c.51,.39,.61,1.11,.23,1.62-.23,.3-.57,.46-.93,.46Z"/>
        <path class="cls-24" d="M764.77,187.67c-.26,0-.52-.07-.75-.21-6.86-4.19-18.17-2.71-18.29-2.7-.79,.09-1.52-.45-1.63-1.24-.11-.79,.45-1.52,1.24-1.63,.5-.07,12.45-1.64,20.19,3.1,.68,.42,.9,1.31,.48,1.99-.27,.45-.75,.69-1.24,.69Z"/>
        <path class="cls-24" d="M621.88,365.55c-.36,0-.71-.13-.99-.39-.58-.55-.61-1.46-.07-2.05,14.14-15.1,23.11-34.75,25.26-55.33,.08-.79,.77-1.4,1.59-1.29,.8,.08,1.37,.79,1.29,1.59-2.21,21.2-11.45,41.45-26.02,57.01-.28,.3-.67,.46-1.06,.46Z"/>
        <path class="cls-24" d="M602.3,393.18c-54.69,0-81.16-7.46-92.07-11.91-5.09-2.07-7.87-7.64-6.48-12.96l49.45-199.36c.15-.62,.79-1.01,1.4-.85,.62,.15,1,.78,.85,1.4l-49.45,199.38c-1.1,4.21,1.09,8.6,5.11,10.24,10.75,4.38,36.9,11.74,91.2,11.74,.64,0,1.16,.52,1.16,1.16s-.52,1.16-1.16,1.16Z"/>
        <path class="cls-24" d="M557.54,156.7c-.22,0-.45-.05-.66-.16-.71-.37-.99-1.24-.62-1.95l8.17-15.82c.37-.71,1.24-.99,1.95-.62,.71,.37,.99,1.24,.62,1.95l-8.17,15.82c-.26,.5-.76,.78-1.29,.78Z"/>
        <path class="cls-24" d="M486.1,372.28c-.31,0-.62-.14-.82-.38-.24-.28-.32-.67-.22-1.02l38.16-126.51,1.2-19.72c.04-.6,.54-1.05,1.15-1.02,.6,.04,1.05,.55,1.02,1.15l-1.24,19.96-37.71,125.13,16.45-2.36c.59-.1,1.14,.33,1.23,.92s-.33,1.14-.92,1.23l-18.14,2.61c-.05,0-.1,.01-.15,.01Z"/>
        <polyline class="cls-5" points="563.97 148.56 551.08 161.88 558.7 180.92 563.36 181.9 577.41 166.95 570.26 149.86"/>
        <polyline class="cls-5" points="565.13 180.86 576.98 311.75 552.91 352.25 534.91 311.75 560.26 174.75"/>
        <polygon class="cls-13" points="577.01 312.15 553.05 350.77 562.61 180.6 564.75 180.6 577.01 312.15"/>
        <path class="cls-24" d="M545.95,155.04c-.64,0-1.16-.52-1.16-1.16v-31.52c0-.42,.22-.8,.59-1.01,.36-.2,.81-.2,1.17,.02l18.19,11.01c.55,.33,.72,1.04,.39,1.59s-1.04,.72-1.59,.39l-16.44-9.94v29.46c0,.64-.52,1.16-1.16,1.16Z"/>
        <path class="cls-24" d="M460.89,267.55c-7.17,0-14.26-3.09-19.14-9l-24.25-29.55c-.38-.46-.31-1.15,.15-1.53,.46-.38,1.15-.31,1.53,.15l24.25,29.55c7.6,9.21,21.12,10.91,30.76,3.87l50.03-36.79,18.12-13.04c.49-.35,1.17-.24,1.52,.25,.35,.49,.24,1.17-.25,1.52l-18.11,13.04-50.02,36.79c-4.39,3.2-9.51,4.76-14.59,4.76Z"/>
        <path class="cls-24" d="M496.99,426.07c-.55,0-1.07-.31-1.31-.84-.34-.73-.02-1.59,.7-1.93,23.21-10.82,21.62-27.26,21.54-27.95-.09-.79,.48-1.51,1.27-1.6,.81-.09,1.51,.47,1.61,1.26,.09,.78,2.01,19.17-23.19,30.92-.2,.09-.41,.14-.61,.14Z"/>
        <path class="cls-24" d="M538.45,696.93c-2.82,0-5.64-.5-8.33-1.5-.57-.21-.94-.75-.94-1.36v-16.37c0-.8,.65-1.45,1.45-1.45s1.45,.65,1.45,1.45v15.34c4.14,1.32,8.6,1.32,12.75,0v-15.34c0-.8,.65-1.45,1.45-1.45s1.45,.65,1.45,1.45v16.37c0,.61-.38,1.15-.94,1.36-2.68,1-5.51,1.5-8.33,1.5Z"/>
        <path class="cls-24" d="M665.78,693.11c-2.82,0-5.64-.5-8.33-1.5-.57-.21-.94-.75-.94-1.36v-12.17c0-.8,.65-1.45,1.45-1.45s1.45,.65,1.45,1.45v11.14c4.14,1.32,8.6,1.32,12.75,0v-14.18c0-.8,.65-1.45,1.45-1.45s1.45,.65,1.45,1.45v15.21c0,.61-.37,1.15-.94,1.36-2.68,1-5.51,1.5-8.33,1.5Z"/>
        <path d="M774.64,238.45c-2.18,0-4.33-.6-6.2-1.75l-1.17-.73c-3.45-2.13-5.55-5.83-5.61-9.9v-9.61c0-.8,.65-1.45,1.45-1.45s1.45,.65,1.45,1.45v9.59c.04,3.05,1.62,5.85,4.24,7.46l1.17,.73c1.4,.86,3.02,1.31,4.68,1.31,.01,0,.02,0,.03,0,3.2,0,6.18-1.72,7.78-4.49l6.61-11.74v-20.28c0-2.52-.77-4.93-2.22-6.98-2.27-3.15-5.95-5.04-9.85-5.04h-9.18c-2.17,2.26-8.75,9.11-9.73,9.91-.63,.51-1.54,.4-2.04-.22-.5-.62-.4-1.53,.22-2.04,.71-.57,6.44-6.5,9.89-10.1,.27-.29,.65-.45,1.05-.45h9.8c4.83,0,9.39,2.34,12.2,6.25,1.81,2.55,2.77,5.55,2.76,8.67v20.65c0,.25-.06,.49-.19,.71l-6.81,12.08c-2.12,3.68-6.06,5.95-10.29,5.95-.02,0-.03,0-.04,0Z"/>
        <rect x="547.78" y="70.57" width="4.93" height="10.14" rx="2.09" ry="2.09"/>
        <rect x="566.58" y="70.57" width="4.93" height="10.14" rx="2.09" ry="2.09"/>
        <ellipse class="cls-9" cx="549.63" cy="21.79" rx="5.24" ry="7.04" transform="translate(109.01 351.06) rotate(-39.04)"/>
        <ellipse class="cls-9" cx="549.56" cy="31.96" rx="2.11" ry="2.84" transform="translate(365.09 550.63) rotate(-73.75)"/>
        <polyline class="cls-24" points="615.83 64.57 615.89 70.83 612.12 65.99"/>
        <polyline class="cls-24" points="616.38 62.54 619.25 68.1 613.71 65.5"/>
        <polyline class="cls-24" points="563.19 6.66 563.13 .37 566.9 5.21"/>
        <polyline class="cls-24" points="562.67 8.66 559.77 3.09 565.33 5.7"/>
        <circle class="cls-8" cx="547.86" cy="75.32" r="9.68"/>
        <path class="cls-7" d="M548.94,66.08l-7.16,16.34c-.84,0-.55-.61-1.3-.84l7.27-16.22c.58,.41,.61,.17,1.19,.72Z"/>
        <path class="cls-7" d="M545.92,65.67l-6.46,14.17c-.81,0-.52-.61-1.27-.84l6.03-13.33c.7,.38,1.13-.58,1.71,0Z"/>
        <circle class="cls-8" cx="569.27" cy="75.32" r="9.68"/>
        <path class="cls-7" d="M570.35,66.08l-7.33,16.34c-.81,0-.52-.61-1.27-.84l7.27-16.22c.7,.41,.75,.17,1.33,.72Z"/>
        <path class="cls-7" d="M567.33,65.67l-6.46,14.17c-.84,0-.55-.61-1.3-.84l6.03-13.33c.72,.38,1.16-.58,1.74,0Z"/>
        <path class="cls-1" d="M550.76,48.81c3.81-.08,7.59-.76,11.18-2.03,3.24-1.37,6.78-1.89,10.28-1.51,2.69,1,5.22,2.4,7.5,4.14,3.03,1.64,6.44,2.43,9.88,2.29l-2.4-2.38v2.09l.7-1.68c-4.29,4.61-6.49,13.5-1.1,18.22,2.29,2.03,5.79-1.33,3.36-3.36-2.05-2.45-2.35-5.92-.75-8.69,.54-1.02,1.17-1.99,1.88-2.9,.66-1.15,.9-2.49,.7-3.8-.03-1.3-1.07-2.36-2.38-2.4-3.08,.13-6.12-.71-8.69-2.4-2.49-1.95-5.38-3.33-8.46-4.06-7.5-1.13-14.25,3.77-21.67,3.56-1.32,.15-2.27,1.33-2.13,2.65,.12,1.12,1.01,2,2.13,2.13l-.03,.12Z"/>
        <circle class="cls-6" cx="548.47" cy="73.23" r="1.85"/>
        <circle class="cls-6" cx="567.01" cy="73.23" r="1.85"/>
        <path class="cls-24" d="M547.78,87.28c-6.53,0-11.85-5.32-11.85-11.85s5.31-11.85,11.85-11.85,11.85,5.31,11.85,11.85-5.31,11.85-11.85,11.85Zm0-21.38c-5.26,0-9.53,4.28-9.53,9.53s4.28,9.53,9.53,9.53,9.53-4.28,9.53-9.53-4.28-9.53-9.53-9.53Z"/>
        <path class="cls-24" d="M569.19,87.28c-6.53,0-11.85-5.32-11.85-11.85s5.31-11.85,11.85-11.85,11.85,5.31,11.85,11.85-5.31,11.85-11.85,11.85Zm0-21.38c-5.26,0-9.53,4.28-9.53,9.53s4.28,9.53,9.53,9.53,9.53-4.28,9.53-9.53-4.28-9.53-9.53-9.53Z"/>
        <path class="cls-24" d="M605.52,70.71c-.5,0-.95-.32-1.11-.82-.19-.61,.16-1.26,.77-1.45,.74-.23,18.13-5.84,16.57-27.43-.12-1.63-.34-3.28-.65-4.91-2.53-12.42-13.53-21.4-26.2-21.4-.07,0-.13-.01-.21,0-.64,0-1.15-.51-1.16-1.15,0-.64,.51-1.16,1.15-1.17,.07,0,.15,0,.22,0,13.77,0,25.72,9.75,28.47,23.27,.33,1.73,.56,3.47,.69,5.19,1.7,23.48-18,29.76-18.2,29.82-.11,.03-.23,.05-.34,.05Z"/>
        <path class="cls-24" d="M589.99,67.23c-.3,0-.59-.11-.82-.34-1.97-1.98-3.06-4.6-3.06-7.39,0-2.79,1.09-5.42,3.06-7.4l.7-.68v-1.34c.03-1.42-1.08-2.59-2.47-2.64-3.29,.01-6.68-1.07-9.36-3.14-3.35-2.65-7.76-3.44-11.8-2.13l-5.62,1.82c-.61,.2-1.26-.13-1.46-.74-.2-.61,.14-1.26,.74-1.46l5.62-1.82c4.79-1.54,10-.61,13.94,2.51,2.26,1.74,5.12,2.67,7.96,2.65,2.71,.08,4.83,2.32,4.77,4.98v1.8c0,.31-.13,.61-.35,.83l-1.04,1.01c-1.52,1.53-2.37,3.57-2.37,5.75,0,2.17,.85,4.22,2.38,5.76,.45,.45,.45,1.19,0,1.64-.23,.22-.52,.34-.82,.34Z"/>
        <path class="cls-24" d="M552.67,45.8c-.53,0-1.06-.03-1.58-.09-4.28-.21-8.3-2.1-11.24-5.32-.43-.47-.4-1.21,.07-1.64,.47-.43,1.21-.4,1.64,.07,2.53,2.77,5.98,4.39,9.72,4.58,.95,.11,1.83,.11,2.7,0,.65-.06,1.21,.38,1.29,1.02,.07,.64-.38,1.21-1.02,1.29-.52,.06-1.06,.09-1.58,.09Z"/>
        <path class="cls-24" d="M538.68,37.45c-.48,0-.92-.3-1.09-.77-1.21-3.42-1.77-6.99-1.66-10.62,.02-.64,.59-1.11,1.19-1.12,.64,.02,1.14,.55,1.12,1.19-.1,3.34,.41,6.63,1.53,9.77,.21,.6-.1,1.27-.7,1.48-.13,.05-.26,.07-.39,.07Z"/>
        <path class="cls-24" d="M537.2,23.11s-.06,0-.09,0c-.64-.05-1.12-.61-1.07-1.24,.81-10.7,6.6-15.9,17.7-15.9s15.22,5.12,15.39,5.33c.4,.5,.31,1.23-.19,1.63-.5,.39-1.23,.31-1.62-.18-.05-.05-3.77-4.46-13.58-4.46s-14.66,4.24-15.39,13.76c-.05,.61-.55,1.07-1.15,1.07Z"/>
        <path class="cls-24" d="M563.19,9.87c-.29,0-.59-.11-.81-.33-.46-.45-.46-1.18,0-1.64,5.26-5.32,12.54-8.2,20.02-7.87,.64,.03,1.14,.57,1.11,1.21-.03,.64-.57,1.16-1.21,1.11-6.81-.26-13.48,2.34-18.28,7.19-.23,.23-.53,.34-.82,.34Z"/>
        <path class="cls-24" d="M605.26,14.8c-.41,0-.81-.22-1.02-.61-.93-1.71-2.1-3.28-3.48-4.66-4.83-4.87-11.49-7.45-18.37-7.2-.63,.05-1.18-.47-1.21-1.11-.03-.64,.47-1.18,1.11-1.21,7.51-.32,14.83,2.55,20.11,7.87,1.53,1.53,2.84,3.28,3.88,5.19,.3,.56,.09,1.27-.47,1.57-.18,.09-.36,.14-.55,.14Z"/>
        <path class="cls-10" d="M589.58,80.53c4.08,4.02,10.65,3.97,14.67-.11,4.02-4.08,3.97-10.65-.11-14.67-4.04-3.98-10.52-3.98-14.56,0"/>
        <path class="cls-24" d="M596.86,84.67c-2.92,0-5.85-1.1-8.09-3.31-.46-.45-.46-1.18-.01-1.64,.45-.46,1.18-.46,1.64-.01,3.62,3.56,9.46,3.52,13.03-.1,1.73-1.75,2.67-4.07,2.65-6.54-.02-2.46-.99-4.77-2.75-6.49-3.57-3.51-9.37-3.51-12.93,0-.46,.45-1.19,.45-1.64-.01-.45-.46-.44-1.19,.01-1.64,4.46-4.4,11.72-4.4,16.19,0,2.19,2.16,3.41,5.05,3.44,8.13,.02,3.08-1.16,5.99-3.32,8.18-2.25,2.29-5.23,3.43-8.21,3.43Z"/>
        <circle class="cls-1" cx="597.49" cy="73.17" r="5.91"/>
        <path class="cls-24" d="M601.23,75.72c-.64,0-1.16-.52-1.16-1.16,0-2.28-1.86-4.14-4.14-4.14-.64,0-1.16-.52-1.16-1.16s.52-1.16,1.16-1.16c3.56,0,6.46,2.9,6.46,6.46,0,.64-.52,1.16-1.16,1.16Z"/>
        <path class="cls-24" d="M597.41,75.72c-.07,0-.15,0-.22-.02-.63-.12-1.04-.73-.92-1.36,.31-1.61,1.22-3.03,2.54-3.99,.52-.37,1.24-.26,1.62,.26,.38,.52,.26,1.24-.26,1.62-.85,.62-1.43,1.52-1.63,2.56-.11,.55-.59,.94-1.14,.94Z"/>
        <path class="cls-24" d="M579.88,76.59c-.33,0-.66-.14-.89-.41-.41-.49-.35-1.22,.14-1.63l15.56-13.09c.49-.41,1.22-.35,1.63,.14,.41,.49,.35,1.22-.14,1.63l-15.56,13.09c-.22,.18-.48,.27-.75,.27Z"/>
        <path class="cls-6" d="M542.33,282.11c-.09,0-.17,0-.26-.02-.79-.14-1.31-.9-1.16-1.68l6.81-37.34c.14-.79,.9-1.32,1.68-1.16,.79,.14,1.31,.9,1.16,1.68l-6.81,37.34c-.13,.7-.74,1.19-1.42,1.19Z"/>
        <path class="cls-24" d="M553.83,210.25c-.07,0-.13,0-.2-.02-.59-.11-.98-.68-.87-1.27l4.78-25.84c.11-.59,.66-.98,1.27-.87,.59,.11,.98,.68,.87,1.27l-4.78,25.84c-.1,.52-.55,.89-1.07,.89Z"/>
        <path class="cls-24" d="M538.68,291.71c-.07,0-.13,0-.2-.02-.59-.11-.98-.68-.87-1.27l13.59-73.06c.11-.59,.69-.98,1.27-.87,.59,.11,.98,.68,.87,1.27l-13.59,73.06c-.1,.52-.55,.89-1.07,.89Z"/>
        <path class="cls-6" d="M548.79,339.15c-.55,0-1.08-.32-1.32-.86l-10.4-23.29c-.33-.73,0-1.59,.73-1.91,.73-.33,1.59,0,1.91,.73l10.4,23.29c.33,.73,0,1.59-.73,1.91-.19,.09-.39,.13-.59,.13Z"/>
        <path class="cls-24" d="M552.91,352.49s-.04,0-.06,0c-.41-.02-.76-.27-.93-.64l-17.99-40.47c-.09-.2-.11-.42-.07-.64l2.64-14.28c.11-.59,.67-.98,1.26-.87,.59,.11,.98,.67,.87,1.26l-2.58,13.95,17,38.25,22.82-38.37-3.39-37.51c-.05-.6,.39-1.13,.98-1.18,.57-.05,1.12,.39,1.18,.98l3.42,37.86c.02,.23-.03,.46-.15,.65l-24.07,40.47c-.2,.33-.55,.53-.93,.53Z"/>
        <path class="cls-24" d="M573.15,269.75c-.56,0-1.03-.42-1.08-.99l-2.93-32.42c-.05-.6,.39-1.13,.98-1.18,.58-.07,1.12,.39,1.18,.98l2.93,32.42c.05,.6-.39,1.13-.98,1.18-.03,0-.07,0-.1,0Z"/>
        <path class="cls-24" d="M569.74,231.98c-.56,0-1.03-.42-1.08-.99l-4.61-50.84c-.05-.6,.39-1.13,.98-1.18,.58-.06,1.13,.39,1.18,.98l4.61,50.84c.05,.6-.39,1.13-.98,1.18-.03,0-.07,0-.1,0Z"/>
        <path class="cls-6" d="M602.18,210.55c-.8,0-1.45-.65-1.45-1.45V127.9c0-.55,.32-1.06,.81-1.3,.5-.24,1.09-.18,1.53,.16l20.86,16.37c.63,.5,.74,1.4,.25,2.03-.49,.63-1.4,.74-2.03,.25l-18.52-14.53v78.23c0,.8-.65,1.45-1.45,1.45Z"/>
        <path class="cls-24" d="M600.07,223.07c-.64,0-1.16-.52-1.16-1.16V123.61c0-.45,.25-.85,.65-1.04,.4-.19,.88-.14,1.23,.14l31.35,24.94c.11,.08,.2,.19,.27,.3l7.79,12.69c.34,.55,.16,1.26-.38,1.59-.54,.34-1.26,.17-1.59-.38l-7.69-12.52-29.31-23.32v95.89c0,.64-.52,1.16-1.16,1.16Z"/>
        <path class="cls-24" d="M597.9,268.46c-.62,0-1.13-.49-1.16-1.11-.32-7.63,.42-15.26,2.2-22.68l-.03-16.76c0-.64,.52-1.16,1.16-1.16s1.16,.52,1.16,1.16v17.03c-1.77,7.49-2.49,14.9-2.17,22.32,.03,.64-.47,1.18-1.11,1.21-.02,0-.03,0-.05,0Z"/>
        <ellipse class="cls-11" cx="548.1" cy="310.41" rx="4.4" ry="7.27"/>
        <circle class="cls-11" cx="545.11" cy="297.84" r="2.87"/>
        <path class="cls-35" d="M663.31,301.69c-.5,0-.99-.26-1.26-.73-8.79-15.47-19.91-63.68-21.29-69.77l-20.99-14.16c-.66-.45-.84-1.35-.39-2.01,.45-.66,1.35-.83,2.01-.39l21.47,14.49c.31,.21,.52,.52,.6,.88,.12,.53,12.14,53.74,21.11,69.54,.4,.7,.15,1.58-.54,1.97-.23,.13-.47,.19-.71,.19Z"/>
        <path class="cls-35" d="M719.77,279.24c-.28,0-.57-.08-.82-.26l-96.13-66.26c-.66-.45-.82-1.36-.37-2.01,.45-.66,1.36-.82,2.01-.37l96.13,66.26c.66,.45,.82,1.36,.37,2.01-.28,.41-.73,.63-1.19,.63Z"/>
        <path class="cls-24" d="M722.64,283.88c-.23,0-.46-.07-.66-.2l-102.27-70.37c-.53-.36-.66-1.08-.3-1.61s1.08-.66,1.61-.3l101.89,70.11,13.02-1.99c.64-.08,1.23,.34,1.32,.97,.1,.63-.34,1.23-.97,1.32l-13.47,2.06c-.06,0-.12,.01-.18,.01Z"/>
        <path class="cls-6" d="M705.58,228.75c-.63,0-1.26-.2-1.79-.62l-54.26-42.79c-1.26-.99-1.47-2.81-.48-4.07,.99-1.26,2.81-1.47,4.07-.48l54.26,42.79c1.26,.99,1.47,2.81,.48,4.07-.57,.73-1.42,1.1-2.28,1.1Z"/>
        <path class="cls-24" d="M714.85,232.63c-.32,0-.64-.11-.9-.31l-45.89-36.42c-.63-.5-.73-1.41-.23-2.04,.5-.62,1.41-.73,2.04-.23l44.63,35.42,29.82-46.51c.29-.46,.8-.71,1.36-.66,.54,.05,1.01,.4,1.21,.9,.06,.15,6.22,14.89,29.19,19.16,.79,.15,1.31,.9,1.16,1.69-.15,.79-.9,1.31-1.69,1.16-19.19-3.57-27.35-13.88-30.14-18.58l-29.33,45.75c-.22,.34-.58,.58-.98,.65-.08,.01-.16,.02-.24,.02Z"/>
        <path class="cls-24" d="M661.14,190.01c-.31,0-.63-.1-.9-.31l-29.32-23.23c-.63-.5-.73-1.41-.24-2.04,.5-.62,1.41-.73,2.04-.24l29.32,23.23c.63,.5,.73,1.41,.24,2.04-.29,.36-.71,.55-1.14,.55Z"/>
        <path class="cls-6" d="M559.74,179.35c-.58,0-1.12-.35-1.35-.92l-6.55-16.57c-.21-.53-.09-1.14,.32-1.55l9.5-9.59c.56-.57,1.48-.57,2.05,0,.57,.56,.57,1.48,0,2.05l-8.84,8.92,6.2,15.69c.29,.74-.07,1.58-.81,1.88-.17,.07-.36,.1-.53,.1Z"/>
        <path class="cls-24" d="M563.77,182.65c-.28,0-.57-.1-.79-.31-.47-.44-.49-1.17-.05-1.64l13.54-14.4-6.86-16.4c-.25-.59,.03-1.27,.62-1.52,.59-.25,1.27,.03,1.52,.62l7.15,17.09c.18,.42,.09,.91-.22,1.24l-14.05,14.95c-.23,.24-.54,.36-.84,.36Z"/>
        <path class="cls-24" d="M559.13,181.67c-.46,0-.89-.27-1.08-.73l-7.65-19.06c-.17-.42-.08-.91,.24-1.24l1.59-1.65c.44-.46,1.18-.47,1.64-.03,.46,.44,.47,1.18,.03,1.64l-1.07,1.11,7.37,18.37c.24,.59-.05,1.27-.64,1.51-.14,.06-.29,.08-.43,.08Z"/>
        <path class="cls-24" d="M555.8,158.15c-.29,0-.58-.11-.81-.33-.46-.45-.47-1.18-.03-1.64l8.58-8.84c.45-.46,1.18-.47,1.64-.03,.46,.45,.47,1.18,.03,1.64l-8.58,8.84c-.23,.23-.53,.35-.83,.35Z"/>
        <path class="cls-6" d="M474.57,217.07c-.42,0-.84-.18-1.13-.53-.5-.62-.41-1.53,.21-2.04l49.28-40.07c.62-.5,1.53-.41,2.04,.21,.5,.62,.41,1.53-.21,2.04l-49.28,40.07c-.27,.22-.59,.32-.91,.32Z"/>
        <path class="cls-6" d="M452.09,218.11c-.43,0-.86-.19-1.15-.56l-25.58-33.14c-.49-.63-.37-1.54,.26-2.03,.64-.49,1.54-.37,2.03,.26l25.58,33.14c.49,.63,.37,1.54-.26,2.03-.26,.2-.58,.3-.88,.3Z"/>
        <path class="cls-24" d="M462.61,220.37c-.46,0-.92-.03-1.38-.09-2.87-.36-5.44-1.82-7.21-4.11l-29.67-37.92c-.1,0-.21,0-.31,0-10.59,0-25.11,7.19-25.26,7.26-.54,.27-1.19,.05-1.46-.49s-.05-1.19,.49-1.46c.65-.32,16-7.87,27.12-7.47,.32,.01,.62,.16,.82,.42l29.98,38.33c1.42,1.83,3.47,3,5.77,3.29s4.58-.33,6.41-1.75l77.51-63.33c.09-.07,.18-.13,.29-.17l15.38-6.11c.56-.22,1.19,.05,1.41,.61,.22,.56-.05,1.19-.61,1.41l-15.23,6.05-77.19,63.08s-.22,.18-.23,.18c-1.92,1.49-4.24,2.28-6.63,2.28Z"/>
        <path class="cls-36" d="M676.55,338.69c-.57,0-1.12-.34-1.35-.91l-10.37-25.9c-.3-.74,.06-1.59,.81-1.88,.74-.3,1.59,.06,1.88,.81l10.37,25.9c.3,.74-.06,1.59-.81,1.88-.18,.07-.36,.1-.54,.1Z"/>
        <path class="cls-6" d="M611.17,359.4c-.15,0-.31-.02-.46-.07-.76-.25-1.17-1.08-.91-1.83,5.16-15.41,1.63-39.35,1.59-39.59-.12-.79,.43-1.53,1.22-1.65,.79-.13,1.53,.42,1.65,1.22,.15,1.01,3.67,24.87-1.71,40.95-.2,.61-.77,.99-1.37,.99Z"/>
        <path class="cls-24" d="M605.52,412.33s-.09,0-.13,0c-3.76-.43-7.49-1.24-11.09-2.39-.36-.12-.65-.4-.76-.77-.11-.36-.03-.76,.21-1.06,10.31-12.84,14.74-47.9,16.47-67.66,1.07-12.46-.43-24.77-4.46-36.61l-4.75-13.73c-1.35-4.02-2.4-8.17-3.15-12.35-.11-.63,.31-1.23,.94-1.34,.62-.11,1.23,.31,1.34,.94,.72,4.06,1.75,8.1,3.06,12l4.75,13.72c4.13,12.14,5.67,24.78,4.58,37.56-2.06,23.63-6.49,54.11-15.95,67.56,2.97,.86,6.01,1.47,9.08,1.82,.64,.07,1.09,.65,1.02,1.28-.07,.59-.57,1.03-1.15,1.03Z"/>
        <path class="cls-24" d="M615.43,413.27c-.49,0-.98,0-1.48-.01-.8-.01-1.44-.67-1.43-1.47s.73-1.5,1.47-1.43c14.08,.18,28.31-2.84,41.08-8.84,28.99-13.25,37.97-23.57,39.85-26.1-21.59-44.73-38.57-91.85-50.46-140.07l-1.36-5.04c-.21-.77,.25-1.57,1.02-1.78,.78-.21,1.57,.25,1.78,1.02l1.36,5.07c11.92,48.32,28.96,95.51,50.63,140.28,.21,.43,.19,.93-.04,1.34-.28,.49-7.17,12.18-41.57,27.89-12.7,5.98-26.81,9.12-40.87,9.12Z"/>
        <path class="cls-24" d="M636.34,323.83c-2.5,0-4.46-2.43-4.46-5.53s1.96-5.53,4.46-5.53,4.46,2.43,4.46,5.53-1.96,5.53-4.46,5.53Zm0-8.17c-.74,0-1.56,1.13-1.56,2.64s.83,2.64,1.56,2.64,1.56-1.13,1.56-2.64-.83-2.64-1.56-2.64Z"/>
        <path class="cls-24" d="M576.6,424.75c-2.3,0-4.1-2.27-4.1-5.17s1.8-5.17,4.1-5.17,4.1,2.27,4.1,5.17-1.8,5.17-4.1,5.17Zm0-8.17c-1.04,0-1.93,1.37-1.93,3s.88,3,1.93,3,1.93-1.37,1.93-3-.88-3-1.93-3Z"/>
        <path class="cls-24" d="M577.04,409.62c-2.3,0-4.1-2.27-4.1-5.17s1.8-5.17,4.1-5.17,4.1,2.27,4.1,5.17-1.8,5.17-4.1,5.17Zm0-8.17c-1.04,0-1.93,1.37-1.93,3s.88,3,1.93,3,1.93-1.37,1.93-3-.88-3-1.93-3Z"/>
        <path class="cls-6" d="M515.27,501.91c-2.26,0-4.17-1.75-4.33-4.04l-4.64-65.85c-.17-2.39,1.64-4.47,4.03-4.64,2.43-.22,4.47,1.64,4.64,4.03l4.64,65.85c.17,2.39-1.64,4.47-4.03,4.64-.1,0-.21,.01-.31,.01Z"/>
        <path class="cls-6" d="M524.69,669.65c-1.52,0-2.79-1.18-2.89-2.71l-4.52-70.34c-.1-1.6,1.11-2.98,2.71-3.08,1.6-.06,2.97,1.11,3.08,2.7l4.52,70.34c.1,1.6-1.11,2.98-2.71,3.08-.06,0-.13,0-.19,0Z"/>
        <path class="cls-2" d="M560.67,651.66c-.12,0-.24,0-.36-.02-1.59-.2-2.72-1.64-2.52-3.23l8.17-66.26c.2-1.59,1.66-2.74,3.23-2.52,1.59,.2,2.72,1.64,2.52,3.23l-8.17,66.26c-.18,1.47-1.43,2.54-2.87,2.54Z"/>
        <path class="cls-2" d="M571.57,531.4c-.32,0-.65-.02-.98-.07-3.97-.53-6.74-4.18-6.21-8.15l5.74-42.53c.54-3.96,4.18-6.74,8.15-6.21,3.97,.53,6.74,4.18,6.21,8.15l-5.74,42.53c-.49,3.64-3.6,6.28-7.17,6.28Z"/>
        <path class="cls-2" d="M676.81,645.11c-1.4,0-2.64-1.02-2.86-2.45l-4.9-31.49c-.24-1.58,.84-3.06,2.42-3.31,1.58-.23,3.06,.84,3.31,2.42l4.9,31.49c.24,1.58-.84,3.06-2.42,3.31-.15,.02-.3,.03-.45,.03Z"/>
        <path class="cls-6" d="M629.5,616.2c-1.23,0-2.37-.79-2.76-2.02l-36.53-115.6c-.48-1.52,.36-3.15,1.89-3.64,1.52-.48,3.15,.36,3.64,1.89l36.53,115.59c.48,1.53-.36,3.15-1.89,3.64-.29,.09-.58,.14-.87,.14Z"/>
        <path class="cls-24" d="M576.58,537.28c-.06,0-.11,0-.17,0-.79-.09-1.36-.81-1.27-1.61l6.58-56.41c.09-.79,.8-1.36,1.61-1.27,.79,.09,1.36,.81,1.27,1.61l-6.58,56.41c-.09,.74-.71,1.28-1.44,1.28Z"/>
        <path class="cls-24" d="M541.32,679.39c-6.36,0-12.72-.74-19.01-2.21-.63-.15-1.08-.69-1.12-1.33l-6.2-110.49c-.05-.8,.57-1.48,1.37-1.53,.8-.11,1.48,.57,1.53,1.36l6.14,109.4c11.03,2.44,22.25,2.52,33.35,.27l1.58-.31,14.57-125.03c.09-.79,.79-1.34,1.61-1.27,.79,.09,1.36,.81,1.27,1.61l-14.69,126.08c-.07,.63-.54,1.13-1.15,1.25l-2.61,.52c-5.53,1.12-11.08,1.68-16.63,1.68Z"/>
        <path class="cls-24" d="M515.71,559.56c-.76,0-1.39-.59-1.44-1.36l-.72-11.24c-.05-.8,.55-1.49,1.35-1.54,.83-.08,1.49,.55,1.54,1.35l.72,11.24c.05,.8-.55,1.49-1.35,1.54-.03,0-.06,0-.09,0Z"/>
        <path class="cls-24" d="M514.17,542.09c-.76,0-1.4-.59-1.44-1.36l-7.5-121.68c-.82-13.6-.82-27.39,0-41,.05-.8,.76-1.37,1.53-1.36,.8,.05,1.41,.74,1.36,1.53-.82,13.49-.82,27.16,0,40.64l7.5,121.68c.05,.8-.56,1.49-1.36,1.53-.03,0-.06,0-.09,0Z"/>
        <path class="cls-2" d="M572.11,457.38c-1.38,0-2.61-.99-2.85-2.4l-3.27-18.8c-.27-1.58,.78-3.08,2.36-3.35,1.58-.27,3.08,.78,3.35,2.36l3.27,18.8c.27,1.58-.78,3.08-2.36,3.35-.17,.03-.34,.04-.5,.04Z"/>
        <path class="cls-24" d="M652.97,465.96c-.71,0-1.32-.51-1.43-1.23l-1.51-10.02-.83-48.86c-.01-.8,.62-1.46,1.42-1.47h.02c.79,0,1.44,.63,1.45,1.42l.81,48.67,1.49,9.83c.12,.79-.43,1.53-1.22,1.65-.07,0-.15,.02-.22,.02Z"/>
        <path class="cls-24" d="M655.56,679.13c-3.53,0-7.06-.38-10.55-1.14-.51-.11-.91-.48-1.07-.98l-68.26-216.35-6.21-30.42c-.16-.79,.35-1.55,1.13-1.71,.78-.16,1.55,.35,1.71,1.13l6.17,30.27,67.96,215.4c12.24,2.46,25.07-.14,35.38-7.19l-28.09-193.4c-.12-.79,.43-1.53,1.23-1.64,.79-.13,1.52,.43,1.64,1.23l28.22,194.27c.08,.53-.15,1.07-.59,1.38l-.4,.29c-8.34,5.81-18.25,8.86-28.27,8.86Z"/>
        <path class="cls-2" d="M645.87,433.54h-.06c-17.01-.33-20.35-12.58-20.48-13.1-.4-1.55,.54-3.13,2.09-3.53,1.54-.4,3.11,.53,3.52,2.06,.11,.39,2.56,8.53,14.99,8.77,1.6,.03,2.87,1.35,2.84,2.95-.03,1.58-1.32,2.84-2.9,2.84Z"/>
        <path class="cls-24" d="M647.25,430.67c-4.04,0-7.69-.89-10.93-2.66-9.35-5.13-11.67-15.71-11.77-16.16-.16-.78,.34-1.55,1.12-1.71,.79-.17,1.55,.34,1.72,1.12,.02,.1,2.17,9.76,10.35,14.23,5.77,3.15,13.2,3.05,22.08-.31,.75-.28,1.58,.09,1.87,.84s-.09,1.58-.84,1.87c-4.91,1.86-9.46,2.79-13.59,2.79Z"/>
        <path class="cls-24" d="M666.41,700.43c-12.6,0-22.47-4.85-22.47-11.05,0-3.9,3.75-7.3,10.29-9.34,.79-.24,1.62,.2,1.87,.98s-.19,1.62-.98,1.87c-5.05,1.57-8.19,4.06-8.19,6.48,0,3.82,8,8.07,19.48,8.07s19.48-4.25,19.48-8.07c0-3.16-5.13-6.23-12.49-7.48-.81-.14-1.36-.91-1.22-1.72,.14-.81,.91-1.36,1.72-1.22,9.1,1.54,14.97,5.63,14.97,10.42,0,6.2-9.87,11.05-22.47,11.05Z"/>
        <polygon class="cls-16" points="818.74 331.39 794 331.39 832.04 222.78 856.78 222.78 818.74 331.39"/>
        <polygon class="cls-16" points="786.64 331.39 778.04 331.19 816.07 222.58 824.68 222.78 786.64 331.39"/>
        <polygon class="cls-16" points="771.52 331.39 762.91 331.19 800.95 222.58 809.56 222.78 771.52 331.39"/>
        <polygon class="cls-6" points="799.3 254.44 815.35 282.72 831.37 310.97 798.66 310.59 765.93 310.21 782.61 282.31 799.3 254.44"/>
        <circle class="cls-6" cx="835.34" cy="273.54" r="6.14"/>
        <rect class="cls-6" x="750.02" y="227.5" width="9.82" height="54.81" rx="4.9" ry="4.9"/>
        <path class="cls-6" d="M862.22,216h0c0,2.96-2.4,5.36-5.36,5.36h-49.13c-2.96,0-5.36-2.4-5.36-5.36h0c0-2.96,2.4-5.36,5.36-5.36h49.13c2.96,0,5.36,2.4,5.36,5.36Z"/>
        <path class="cls-22" d="M811.53,337.88h0c0,2.96-2.4,5.36-5.36,5.36h-49.13c-2.96,0-5.36-2.4-5.36-5.36h0c0-2.96,2.4-5.36,5.36-5.36h49.13c2.96,0,5.36,2.4,5.36,5.36Z"/>
        <path class="cls-22" d="M863.44,360.79h0c0,2.96-2.4,5.36-5.36,5.36h-49.13c-2.96,0-5.36-2.4-5.36-5.36h0c0-2.96,2.4-5.36,5.36-5.36h49.13c2.96,0,5.36,2.4,5.36,5.36Z"/>
        <path class="cls-24" d="M831.28,311.28h-65.45c-.52,0-1-.28-1.26-.73s-.26-1,0-1.45l32.74-56.17c.26-.45,.74-.72,1.25-.72h0c.52,0,.99,.27,1.25,.72l32.71,56.17c.26,.45,.26,1,0,1.45s-.74,.73-1.26,.73Zm-62.92-2.9h60.4l-30.19-51.85-30.22,51.85Z"/>
        <path class="cls-24" d="M834.82,279.94c-4.19,0-7.59-3.4-7.59-7.59s3.4-7.59,7.59-7.59,7.59,3.4,7.59,7.59-3.4,7.59-7.59,7.59Zm0-12.28c-2.59,0-4.69,2.1-4.69,4.69s2.1,4.69,4.69,4.69,4.69-2.1,4.69-4.69-2.1-4.69-4.69-4.69Z"/>
        <path class="cls-24" d="M737.36,297.12c-.8,0-1.45-.65-1.45-1.45v-86.16c0-.8,.65-1.45,1.45-1.45h30.8c.8,0,1.45,.65,1.45,1.45s-.65,1.45-1.45,1.45h-29.35v84.71c0,.8-.65,1.45-1.45,1.45Z"/>
        <path class="cls-24" d="M737.36,332.55c-.8,0-1.45-.65-1.45-1.45v-28.88c0-.8,.65-1.45,1.45-1.45s1.45,.65,1.45,1.45v28.88c0,.8-.65,1.45-1.45,1.45Z"/>
        <path class="cls-24" d="M760.13,368.5h-19.64c-2.52,0-4.58-2.05-4.58-4.58v-24.94c0-.8,.65-1.45,1.45-1.45s1.45,.65,1.45,1.45v24.94c0,.93,.75,1.68,1.68,1.68h19.64c.8,0,1.45,.65,1.45,1.45s-.65,1.45-1.45,1.45Z"/>
        <path class="cls-24" d="M868.92,368.5h-100.88c-.8,0-1.45-.65-1.45-1.45s.65-1.45,1.45-1.45h100.88c.93,0,1.68-.75,1.68-1.68V210.96h-75.5c-.8,0-1.45-.65-1.45-1.45s.65-1.45,1.45-1.45h76.95c.8,0,1.45,.65,1.45,1.45v154.41c0,2.52-2.05,4.58-4.58,4.58Z"/>
        <path class="cls-17" d="M857.79,332.78h-28.33c-1.6,0-2.9-1.3-2.9-2.9s1.3-2.9,2.9-2.9h25.44v-30.65c0-1.6,1.3-2.9,2.9-2.9s2.9,1.3,2.9,2.9v33.55c0,1.6-1.3,2.9-2.9,2.9Z"/>
        <path class="cls-24" d="M860.86,334.05h-110.44c-.8,0-1.45-.65-1.45-1.45v-110.44c0-.8,.65-1.45,1.45-1.45h9.82c.8,0,1.45,.65,1.45,1.45s-.65,1.45-1.45,1.45h-8.37v107.54h107.54v-107.54h-68.49c-.8,0-1.45-.65-1.45-1.45s.65-1.45,1.45-1.45h69.94c.8,0,1.45,.65,1.45,1.45v110.44c0,.8-.65,1.45-1.45,1.45Z"/>
        <path class="cls-24" d="M750.23,359.46c-.15,0-.3-.05-.43-.14-.32-.23-.39-.69-.16-1.01l8.31-11.44c.23-.33,.69-.39,1.01-.16,.32,.23,.39,.69,.16,1.01l-8.31,11.44c-.14,.2-.36,.3-.59,.3Z"/>
        <path class="cls-24" d="M755.9,357.4c-.15,0-.3-.05-.43-.14-.32-.23-.39-.69-.16-1.01l8.31-11.44c.24-.33,.69-.39,1.01-.16,.32,.23,.39,.69,.16,1.01l-8.31,11.44c-.14,.2-.36,.3-.59,.3Z"/>
        <path class="cls-24" d="M617.31,300.48c-.34,0-.64-.24-.71-.58l-2.84-13.88c-.08-.39,.17-.78,.56-.86,.39-.08,.78,.17,.86,.56l2.84,13.88c.08,.39-.17,.78-.56,.86-.05,0-.1,.01-.15,.01Z"/>
        <path class="cls-24" d="M612.99,296.25c-.34,0-.64-.24-.71-.58l-2.81-13.88c-.08-.39,.17-.78,.57-.85s.78,.17,.85,.57l2.81,13.88c.08,.39-.17,.78-.57,.85-.05,0-.1,.01-.15,.01Z"/>
        <path class="cls-33" d="M595.23,485.77c-.31,0-.6-.2-.69-.51l-4.12-13.56c-.12-.38,.1-.79,.48-.9,.39-.11,.79,.1,.9,.48l4.12,13.56c.12,.38-.1,.79-.48,.9-.07,.02-.14,.03-.21,.03Z"/>
        <path class="cls-33" d="M590.54,481.98c-.31,0-.6-.2-.69-.51l-4.11-13.56c-.12-.38,.1-.79,.48-.9,.39-.12,.79,.1,.9,.48l4.11,13.56c.12,.38-.1,.79-.48,.9-.07,.02-.14,.03-.21,.03Z"/>
        <path class="cls-24" d="M441.54,243.49c-.21,0-.42-.09-.56-.27l-8.95-10.95c-.25-.31-.21-.77,.1-1.02,.31-.25,.76-.21,1.02,.1l8.95,10.95c.25,.31,.21,.77-.1,1.02-.13,.11-.3,.16-.46,.16Z"/>
        <path class="cls-24" d="M435.78,241.78c-.21,0-.42-.09-.56-.27l-8.95-10.98c-.25-.31-.21-.77,.1-1.02,.31-.25,.77-.21,1.02,.1l8.95,10.98c.25,.31,.21,.77-.1,1.02-.13,.11-.3,.16-.46,.16Z"/>
        <path class="cls-24" d="M554.15,671.77s-.05,0-.08,0c-.4-.04-.69-.4-.65-.8l1.48-14.08c.04-.4,.4-.7,.79-.65,.4,.04,.69,.4,.65,.8l-1.48,14.08c-.04,.37-.35,.65-.72,.65Z"/>
        <path class="cls-24" d="M551.31,666.44s-.05,0-.07,0c-.4-.04-.69-.4-.65-.79l1.45-14.08c.04-.4,.42-.68,.79-.65,.4,.04,.69,.4,.65,.79l-1.45,14.08c-.04,.37-.35,.65-.72,.65Z"/>
        <path class="cls-24" d="M644.19,639.95c-.3,0-.57-.18-.68-.48l-4.81-13.33c-.14-.38,.06-.79,.44-.93,.38-.13,.79,.06,.93,.44l4.81,13.33c.14,.38-.06,.79-.44,.93-.08,.03-.16,.04-.25,.04Z"/>
        <path class="cls-24" d="M639.32,636.39c-.3,0-.57-.18-.68-.48l-4.81-13.3c-.14-.38,.06-.79,.43-.93,.37-.13,.79,.06,.93,.44l4.81,13.3c.14,.38-.06,.79-.43,.93-.08,.03-.16,.04-.25,.04Z"/>
        <path class="cls-24" d="M577.39,380.02c-32.79,0-70.85-12.47-71.23-12.6-.57-.19-.88-.8-.69-1.37,.19-.57,.8-.89,1.37-.69,.38,.12,38.11,12.49,70.55,12.49,.6,0,1.09,.49,1.09,1.09s-.49,1.09-1.09,1.09Z"/>
        <circle class="cls-24" cx="591.15" cy="13.58" r="1.3"/>
        <circle class="cls-24" cx="570.9" cy="14.42" r="1.3"/>
        <path class="cls-15" d="M230.72,395.13H20.71c-2.75,.02-5-2.2-5.01-4.95,0-.02,0-.04,0-.06L9.91,105.71c-.02-2.75,2.2-5,4.95-5.01,.02,0,.04,0,.06,0H230.72c2.77,0,5.01,2.24,5.01,5.01h0V390.11c0,2.77-2.24,5.01-5.01,5.01Z"/>
        <path class="cls-21" d="M15.44,100.35H231.01c2.38,0,4.32,1.93,4.32,4.32v.78H11.13v-.78c0-2.38,1.93-4.32,4.32-4.32h0Z"/>
        <path class="cls-23" d="M221.89,387.56H29c-2.42,0-4.37-1.96-4.37-4.37L18.83,114.4c.06-2.38,2-4.27,4.37-4.29H221.89c2.42,0,4.37,1.96,4.37,4.37h0V383.28c-.03,2.39-1.99,4.3-4.37,4.29Z"/>
        <path class="cls-12" d="M67.33,109.68l-49.25,29.55,2.43,40.15L126.95,110.11s-52.9-2.06-59.62-.43Z"/>
        <path class="cls-12" d="M165.39,109.68L19.96,192.82l1.65,56.58,205.11-115.07,.29-24.36s-59.62-1.13-61.62-.29Z"/>
        <path class="cls-12" d="M152.01,386.69l76.37-60-1.1-40.33-119.16,100.59s43.89-1.22,43.89-.26Z"/>
        <path class="cls-17" d="M11.13,208.35l8.84-7.76,3.91,167.02-8.17,8.17s-4.58-166.32-4.58-167.42Z"/>
        <path class="cls-17" d="M226.72,205.71l8.69-8.69v170.52l-8.17,8.17s-.52-168.81-.52-170Z"/>
        <path class="cls-24" d="M235.73,396.68H15.7c-.84,0-1.53-.68-1.55-1.52L8.36,105.74c-.01-1.77,.66-3.41,1.88-4.65,1.23-1.24,2.86-1.93,4.61-1.94H230.72c3.62,0,6.56,2.94,6.56,6.56V395.12c0,.86-.69,1.55-1.55,1.55Zm-218.51-3.1H234.18V105.71c0-1.91-1.55-3.46-3.46-3.46H14.92c-.97,0-1.83,.37-2.47,1.02-.65,.65-1,1.52-.99,2.43l5.76,287.88Z"/>
        <polyline class="cls-3" points="132.05 151.63 55.33 156.03 64.34 304.65 198.68 296.97 189.67 148.35 158.9 150.09"/>
        <polyline class="cls-15" points="130.98 164.4 68.72 167.97 75.03 269.51 184.05 263.28 177.74 161.74 152.79 163.16"/>
        <polygon class="cls-16" points="133.15 264.96 108.44 266.38 140.22 164.49 164.93 163.07 133.15 264.96"/>
        <polygon class="cls-16" points="101.08 266.79 92.5 267.07 124.28 165.19 132.86 164.9 101.08 266.79"/>
        <polygon class="cls-16" points="85.99 267.65 77.38 267.94 109.16 166.05 117.77 165.76 85.99 267.65"/>
        <path class="cls-6" d="M176.29,213.33h0c2.7-.15,4.76-2.47,4.61-5.17,0,0,0-.01,0-.02l-2.58-36.21c-.16-2.7-2.46-4.77-5.16-4.64h0c-2.71,.16-4.78,2.48-4.64,5.19l2.58,36.13c.07,2.69,2.31,4.81,5,4.73,.06,0,.12,0,.19,0Z"/>
        <rect class="cls-6" x="65.32" y="154.9" width="59.85" height="10.72" rx="5.36" ry="5.36" transform="translate(-8.99 5.69) rotate(-3.27)"/>
        <rect class="cls-22" x="122.9" y="265.01" width="59.85" height="10.72" rx="5.36" ry="5.36" transform="translate(-15.17 9.16) rotate(-3.27)"/>
        <rect class="cls-22" x="72.34" y="290.81" width="59.85" height="10.72" rx="5.36" ry="5.36" transform="translate(-16.73 6.32) rotate(-3.27)"/>
        <polygon class="cls-6" points="122.55 186.86 108.15 216 93.75 245.14 126.4 242.88 159.05 240.65 140.8 213.77 122.55 186.86"/>
        <path class="cls-24" d="M93.78,245.46c-.49,0-.94-.24-1.21-.66-.28-.43-.31-.99-.08-1.45l29.46-57.97c.23-.46,.69-.76,1.21-.79,.5-.03,1.01,.22,1.29,.65l35.87,54.23c.29,.43,.32,.98,.09,1.45-.23,.46-.69,.77-1.21,.8l-65.33,3.74s-.06,0-.08,0Zm29.63-56.55l-27.19,53.51,60.3-3.45-33.1-50.06Z"/>
        <circle class="cls-6" cx="144.33" cy="196.97" r="6.14"/>
        <path class="cls-24" d="M144.8,203.34c-4.19,0-7.59-3.4-7.59-7.59s3.4-7.59,7.59-7.59,7.59,3.4,7.59,7.59-3.4,7.59-7.59,7.59Zm0-12.28c-2.59,0-4.69,2.1-4.69,4.69s2.1,4.69,4.69,4.69,4.69-2.1,4.69-4.69-2.1-4.69-4.69-4.69Z"/>
        <path class="cls-24" d="M194.6,227.12c-.76,0-1.39-.59-1.44-1.36l-4.83-75.89-37.99,2.18c-.78,.02-1.48-.56-1.53-1.36-.05-.8,.56-1.48,1.36-1.53l39.43-2.26c.78-.03,1.48,.56,1.53,1.35l4.93,77.32c.05,.8-.56,1.49-1.35,1.54-.03,0-.06,0-.09,0Z"/>
        <path class="cls-33" d="M196.62,262.5c-.76,0-1.4-.6-1.44-1.37l-1.65-28.85c-.05-.8,.56-1.48,1.36-1.53,.76-.07,1.48,.56,1.53,1.36l1.65,28.85c.05,.8-.56,1.48-1.36,1.53-.03,0-.06,0-.08,0Z"/>
        <path class="cls-24" d="M175.94,299.7c-.76,0-1.4-.6-1.44-1.37-.05-.8,.57-1.48,1.37-1.53l19.61-1.1c.88-.08,1.58-.88,1.53-1.81l-1.42-24.85c-.05-.8,.56-1.48,1.36-1.53,.75-.06,1.48,.56,1.53,1.36l1.42,24.86c.12,2.5-1.73,4.63-4.21,4.86l-19.66,1.1s-.06,0-.08,0Z"/>
        <path class="cls-24" d="M67.2,305.87c-2.4,0-4.4-1.81-4.62-4.22l-8.69-145.53c-.02-.38,.11-.76,.36-1.05,.26-.29,.62-.46,1-.48l79.58-4.55c.75-.05,1.48,.56,1.53,1.36,.05,.8-.56,1.48-1.36,1.53l-78.13,4.47,8.6,144.04c.08,.89,.88,1.58,1.81,1.54l100.57-5.79c.78-.03,1.48,.56,1.53,1.36,.05,.8-.56,1.48-1.36,1.53l-100.59,5.79c-.08,0-.16,0-.24,0Z"/>
        <path class="cls-17" d="M75.3,270.09c-.71,0-1.4-.26-1.93-.73-.57-.51-.92-1.23-.96-2l-1.91-33.49c-.09-1.6,1.13-2.97,2.73-3.06,1.63-.07,2.97,1.13,3.06,2.73l1.75,30.6,25.41-1.46c1.59-.05,2.97,1.13,3.06,2.73,.09,1.6-1.13,2.97-2.73,3.06l-28.3,1.62c-.06,0-.11,0-.17,0Z"/>
        <path class="cls-24" d="M73.38,271.07c-.76,0-1.4-.59-1.44-1.36l-6.29-101.57c-.02-.38,.11-.76,.36-1.05s.62-.46,1-.48l64.03-3.65c.79-.04,1.48,.56,1.53,1.36,.05,.8-.56,1.48-1.36,1.53l-62.57,3.57,6.11,98.68,107.37-6.15-6.22-100.12c-.05-.8,.56-1.49,1.36-1.54,.83-.02,1.49,.56,1.54,1.36l6.31,101.57c.02,.38-.11,.76-.36,1.05-.26,.29-.62,.46-1,.48l-110.26,6.32s-.06,0-.08,0Z"/>
        <path class="cls-33" d="M73.59,291.55c-.14,0-.27-.04-.39-.12-.34-.22-.43-.66-.22-1l7.68-11.91c.22-.34,.67-.43,1-.22,.34,.22,.43,.66,.22,1l-7.68,11.91c-.14,.22-.37,.33-.61,.33Z"/>
        <path class="cls-33" d="M79.15,289.18c-.14,0-.27-.04-.39-.12-.34-.22-.43-.66-.22-1l7.68-11.91c.22-.34,.67-.44,1-.22,.34,.22,.43,.66,.22,1l-7.68,11.91c-.14,.22-.37,.33-.61,.33Z"/>
        <circle class="cls-12" cx="121.94" cy="175.09" r="4.37"/>
        <path class="cls-24" d="M122.02,180.64c-3.01,0-5.46-2.45-5.46-5.46s2.45-5.46,5.46-5.46,5.46,2.45,5.46,5.46-2.45,5.46-5.46,5.46Zm0-8.75c-1.81,0-3.29,1.48-3.29,3.29s1.48,3.29,3.29,3.29,3.29-1.48,3.29-3.29-1.48-3.29-3.29-3.29Z"/>
        <rect class="cls-6" x="68.23" y="318.24" width="123.24" height="49.63"/>
        <path class="cls-24" d="M177.85,333.77H81.32c-.8,0-1.45-.65-1.45-1.45s.65-1.45,1.45-1.45h96.53c.8,0,1.45,.65,1.45,1.45s-.65,1.45-1.45,1.45Z"/>
        <path class="cls-24" d="M128.78,344.37h-47.45c-.8,0-1.45-.65-1.45-1.45s.65-1.45,1.45-1.45h47.45c.8,0,1.45,.65,1.45,1.45s-.65,1.45-1.45,1.45Z"/>
        <path class="cls-24" d="M109.13,354.97h-27.81c-.8,0-1.45-.65-1.45-1.45s.65-1.45,1.45-1.45h27.81c.8,0,1.45,.65,1.45,1.45s-.65,1.45-1.45,1.45Z"/>
        <path class="cls-24" d="M191.47,369.23H97.14c-.75,0-1.36-.61-1.36-1.36s.61-1.36,1.36-1.36h92.97v-46.9H69.59v46.9h15.56c.75,0,1.36,.61,1.36,1.36s-.61,1.36-1.36,1.36h-16.92c-.75,0-1.36-.61-1.36-1.36v-49.63c0-.75,.61-1.36,1.36-1.36h123.24c.75,0,1.36,.61,1.36,1.36v49.63c0,.75-.61,1.36-1.36,1.36Z"/>
        <rect class="cls-32" x="1.1" y="393.91" width="251.58" height="9.82"/>
        <rect class="cls-14" x="1.1" y="393.91" width="251.58" height="3.97"/>
        <path class="cls-24" d="M22.37,404.8h-3.27c-.59,0-1.07-.48-1.07-1.07s.48-1.07,1.07-1.07h3.27c.59,0,1.07,.48,1.07,1.07s-.48,1.07-1.07,1.07Z"/>
        <path class="cls-24" d="M107.83,404.8H27.18c-.59,0-1.07-.48-1.07-1.07s.48-1.07,1.07-1.07H107.83c.59,0,1.07,.48,1.07,1.07s-.48,1.07-1.07,1.07Z"/>
        <path class="cls-6" d="M35.11,399.28h-13.65c-.6,0-1.09-.49-1.09-1.09s.49-1.09,1.09-1.09h13.65c.6,0,1.09,.49,1.09,1.09s-.49,1.09-1.09,1.09Z"/>
        <path class="cls-6" d="M46.56,399.28h-4.9c-.6,0-1.09-.49-1.09-1.09s.49-1.09,1.09-1.09h4.9c.6,0,1.09,.49,1.09,1.09s-.49,1.09-1.09,1.09Z"/>
        <rect class="cls-6" x="24.63" y="318.82" width="9.82" height="54.81" rx="4.9" ry="4.9"/>
        <rect class="cls-6" x="22.67" y="253.55" width="9.82" height="34.53" rx="4.9" ry="4.9" transform="translate(-8.82 1.04) rotate(-1.87)"/>
        <rect class="cls-20" x="217.11" y="215.97" width="9.82" height="34.53" rx="4.9" ry="4.9"/>
        <rect class="cls-20" x="217.11" y="345.44" width="9.82" height="34.53" rx="4.9" ry="4.9"/>
        <rect class="cls-20" x="217.11" y="138.5" width="9.82" height="34.53" rx="4.9" ry="4.9"/>
        <path class="cls-6" d="M26.62,137.4h0c-4.3,0-7.79-3.49-7.79-7.79v-16.02c0-2.7,2.19-4.9,4.9-4.9h0c2.7,0,4.9,2.19,4.9,4.9v21.79c0,1.1-.89,2-2,2v.03Z"/>
        <path class="cls-24" d="M223.97,388.55H27.47c-2.86,0-5.19-2.33-5.19-5.19L16.49,113.3c0-2.87,2.31-5.19,5.16-5.19H223.97c2.84,0,5.16,2.31,5.16,5.16V383.36c0,1.37-.52,2.67-1.48,3.65s-2.26,1.53-3.63,1.54h-.04ZM21.67,111.01c-1.28,0-2.29,1.01-2.29,2.26l5.79,270.06c0,1.29,1.03,2.32,2.29,2.32H224c.59,0,1.16-.24,1.58-.67,.42-.43,.65-1,.65-1.6V113.27c0-1.25-1.01-2.26-2.26-2.26H21.67Z"/>
        <path class="cls-24" d="M10.43,398.6H1.1c-.4,0-.72-.32-.72-.72s.32-.72,.72-.72H10.43c.4,0,.72,.32,.72,.72s-.32,.72-.72,.72Z"/>
        <rect class="cls-26" x="208.91" y="399.24" width="43.92" height="4.37" rx="2.17" ry="2.17"/>
        <path class="cls-24" d="M251.87,404.92H115.91c-.59,0-1.07-.48-1.07-1.07s.48-1.07,1.07-1.07H251.61v-7.68H2.13v7.56s11.34,0,11.34,0c.59,0,1.07,.48,1.07,1.07s-.48,1.07-1.07,1.07H1.88c-.98,.02-1.84-.76-1.88-1.78v-8.33c.15-1.13,1.02-1.81,2-1.73H251.87c1.02,0,1.85,.79,1.88,1.81v8.27c0,1.04-.84,1.88-1.88,1.88ZM1.86,402.66h0Zm.06-7.56h0Z"/>
        <path class="cls-1" d="M381.16,234.32c-2.69,0-4.57-.69-4.7-.74-.75-.28-1.13-1.12-.84-1.87,.28-.75,1.11-1.13,1.86-.84h0c.47,.17,11.69,4.11,17.49-11.43,.28-.75,1.12-1.12,1.86-.85,.75,.28,1.13,1.11,.85,1.86-2.34,6.28-5.81,10.5-10.3,12.54-2.25,1.02-4.42,1.33-6.23,1.33Z"/>
        <path class="cls-24" d="M381.95,236.57c-10.58,0-19.18-11.59-19.18-25.84,0-.8,.65-1.45,1.45-1.45s1.45,.65,1.45,1.45c0,12.65,7.3,22.94,16.28,22.94s16.14-10.13,16.25-22.65l-5.68-13.22c-.18-.41-.15-.89,.07-1.28,.22-.39,.61-.66,1.05-.73,.25-.04,24.55-3.75,29.93-19.09,.26-.75,1.09-1.16,1.85-.89,.75,.26,1.15,1.09,.89,1.85-5.1,14.54-24.29,19.46-30.4,20.67l5.07,11.82c.08,.18,.12,.37,.12,.57,0,14.25-8.59,25.84-19.15,25.84Z"/>
        <path class="cls-6" d="M370.85,198.67c-.29,0-.58-.09-.84-.27-.65-.46-.8-1.37-.34-2.02,2.9-4.07,7.14-7.06,11.94-8.43,.76-.22,1.57,.23,1.79,1,.22,.77-.23,1.57-1,1.79-4.17,1.19-7.85,3.79-10.37,7.33-.28,.4-.73,.61-1.18,.61Z"/>
        <path class="cls-24" d="M367.75,199.78c-.26,0-.53-.07-.77-.22-.68-.42-.88-1.32-.46-2,6.9-11.02,20.7-15.63,32.83-10.96,.75,.29,1.12,1.13,.83,1.87-.29,.75-1.13,1.11-1.87,.83-10.84-4.18-23.18-.06-29.34,9.79-.27,.44-.75,.68-1.23,.68Z"/>
        <path class="cls-1" d="M782.93,230.46c-.24,0-.49-.06-.72-.19-.69-.4-.93-1.28-.53-1.98l5.31-9.25v-16.59c0-.8,.65-1.45,1.45-1.45s1.45,.65,1.45,1.45v16.98c0,.25-.07,.5-.19,.72l-5.5,9.59c-.27,.47-.76,.73-1.26,.73Z"/>
        <path class="cls-24" d="M774.64,238.45c-2.18,0-4.33-.6-6.2-1.75l-1.17-.73c-3.45-2.13-5.55-5.83-5.61-9.9v-9.61c0-.8,.65-1.45,1.45-1.45s1.45,.65,1.45,1.45v9.59c.04,3.05,1.62,5.85,4.24,7.46l1.17,.73c1.4,.86,3.02,1.31,4.68,1.31,.01,0,.02,0,.03,0,3.2,0,6.18-1.72,7.78-4.49l6.61-11.74v-20.28c0-2.52-.77-4.93-2.22-6.98-2.27-3.15-5.95-5.04-9.85-5.04h-9.18c-2.17,2.26-8.75,9.11-9.73,9.91-.63,.51-1.54,.4-2.04-.22-.5-.62-.4-1.53,.22-2.04,.71-.57,6.44-6.5,9.89-10.1,.27-.29,.65-.45,1.05-.45h9.8c4.83,0,9.39,2.34,12.2,6.25,1.81,2.55,2.77,5.55,2.76,8.67v20.65c0,.25-.06,.49-.19,.71l-6.81,12.08c-2.12,3.68-6.06,5.95-10.29,5.95-.02,0-.03,0-.04,0Z"/>
      </g>
    </g>
  </g>
</svg>