<?xml version="1.0" encoding="UTF-8"?>
<svg id="Layer_2" data-name="Layer 2" xmlns="http://www.w3.org/2000/svg" viewBox="0 0 454.64 209.59">
  <defs>
    <style>
      .cls-1 {
        font-family: Jost-Medium, Jost;
        font-size: 23.2px;
        font-weight: 500;
      }

      .cls-1, .cls-2, .cls-3, .cls-4 {
        fill: #fff;
      }

      .cls-1, .cls-3, .cls-4 {
        isolation: isolate;
      }

      .cls-5 {
        fill: #f4ad5e;
      }

      .cls-6 {
        fill: #f7a65c;
      }

      .cls-7 {
        fill: #000201;
      }

      .cls-8 {
        fill: #ffdcc0;
      }

      .cls-9 {
        fill: #ffdcbd;
      }

      .cls-10 {
        fill: #ffc68d;
      }

      .cls-11 {
        fill: #ff4500;
      }

      .cls-12 {
        fill: #b6c1d1;
      }

      .cls-13 {
        fill: #bc2800;
      }

      .cls-14 {
        fill: #8bd2fc;
      }

      .cls-15 {
        fill: #cfabf4;
      }

      .cls-16 {
        fill: #abbcd3;
      }

      .cls-17 {
        fill: #dcf0ff;
      }

      .cls-18 {
        fill: #e28c37;
      }

      .cls-19 {
        fill: #e0e3e8;
      }

      .cls-20 {
        fill: #d83300;
      }

      .cls-21 {
        fill: #536b77;
      }

      .cls-22 {
        fill: #263f47;
      }

      .cls-3 {
        opacity: .8;
      }

      .cls-4 {
        opacity: .6;
      }
    </style>
  </defs>
  <g id="Layer_1-2" data-name="Layer 1">
    <g id="Layer_2-2" data-name="Layer 2">
      <g id="Layer_1-2" data-name="Layer 1-2">
        <g>
          <path class="cls-17" d="M410.12,160.97l-8.02,14.3-36.2-23.66,26.57-40.8c11.85,10.2,5.51,36.38,17.64,50.17Z"/>
          <path class="cls-7" d="M399.32,183.4c-.16,0-.32-.04-.46-.14l-37.28-24.34c-.39-.26-.5-.78-.25-1.17l35.66-54.63c3.7-5.65,11.29-7.25,16.94-3.56l35.93,23.46c.39,.26,.5,.78,.25,1.17-.25,.41-.78,.52-1.17,.25l-35.93-23.46c-4.87-3.17-11.4-1.8-14.59,3.07l-35.2,53.92,36.57,23.88c.39,.26,.5,.78,.25,1.17-.16,.25-.43,.38-.71,.38Z"/>
          <g>
            <path class="cls-17" d="M448.93,122.97h0c4.69,3.06,6.02,9.35,2.95,14.05h0s-7.46,11.43-7.46,11.43h0l-17-11.1h0l7.46-11.43c3.06-4.69,9.35-6.02,14.05-2.95h0Z"/>
            <path class="cls-7" d="M444.28,149.56c-.17,0-.33-.05-.46-.14l-14.61-9.55c-.39-.26-.5-.78-.25-1.17,.26-.4,.78-.5,1.17-.25l13.91,9.08,7.56-11.58c1.2-1.84,1.61-4.04,1.16-6.2s-1.72-4-3.56-5.21c-.39-.26-.5-.78-.25-1.17,.26-.39,.78-.5,1.17-.25,2.23,1.45,3.75,3.68,4.3,6.28,.54,2.6,.05,5.25-1.41,7.48l-8.03,12.29c-.12,.19-.31,.32-.54,.37-.06,.01-.11,.02-.17,.02Z"/>
          </g>
          <path class="cls-7" d="M398.27,182.72c-.16,0-.32-.04-.46-.14-.39-.26-.5-.78-.25-1.17l35.66-54.63c3.67-5.65,11.29-7.25,16.94-3.56,.39,.25,.5,.78,.25,1.17-.25,.4-.78,.51-1.17,.25-4.86-3.16-11.41-1.8-14.59,3.07l-35.66,54.63c-.16,.25-.43,.38-.71,.38Z"/>
          <g>
            <path class="cls-7" d="M407.31,130.89c-.16,0-.32-.04-.46-.14l-11.05-7.21c-.39-.26-.5-.78-.25-1.17,.25-.39,.8-.5,1.17-.25l11.05,7.21c.39,.26,.5,.78,.25,1.17-.16,.25-.43,.38-.71,.38Z"/>
            <path class="cls-7" d="M418.87,132.63c-.16,0-.32-.04-.46-.14l-19.96-13.03c-.39-.26-.5-.78-.25-1.17,.26-.39,.78-.51,1.17-.25l19.96,13.03c.39,.26,.5,.78,.25,1.17-.16,.25-.43,.38-.71,.38Z"/>
            <path class="cls-7" d="M424.18,124.5c-.16,0-.32-.04-.46-.14l-19.96-13.03c-.39-.26-.5-.78-.25-1.17,.26-.39,.8-.5,1.17-.25l19.96,13.03c.39,.26,.5,.78,.25,1.17-.16,.25-.43,.38-.71,.38Z"/>
            <path class="cls-7" d="M409.09,120.45c-.16,0-.32-.04-.46-.14l-7.52-4.91c-.39-.26-.5-.78-.25-1.17,.25-.39,.78-.51,1.17-.25l7.52,4.91c.39,.26,.5,.78,.25,1.17-.16,.25-.43,.38-.71,.38Z"/>
            <path class="cls-7" d="M419.53,127.26c-.16,0-.32-.04-.46-.14l-7.52-4.91c-.39-.25-.5-.78-.25-1.17s.8-.5,1.17-.25l7.52,4.91c.39,.25,.5,.78,.25,1.17-.16,.25-.43,.38-.71,.38Z"/>
          </g>
          <g>
            <polyline class="cls-10" points="331.03 110.94 391.24 110.94 406.16 206.86 295.32 206.86"/>
            <path class="cls-6" d="M331.02,110.94l2.04,5.76c13.3,37.55,39.11,69.39,73.1,90.16h-110.84"/>
            <polyline class="cls-9" points="331.03 110.94 391.24 110.94 391.78 117.33 313.17 117.33"/>
            <circle class="cls-18" cx="366.39" cy="124.23" r="4"/>
            <path class="cls-7" d="M354.54,150.15c-7.19,0-13.04-5.85-13.04-13.04v-11.79c0-.47,.38-.85,.85-.85s.85,.38,.85,.85v11.79c0,6.25,5.09,11.34,11.34,11.34s11.34-5.09,11.34-11.34v-8.2c0-.47,.38-.85,.85-.85s.85,.38,.85,.85v8.2c0,7.19-5.85,13.04-13.04,13.04Z"/>
            <path class="cls-7" d="M406.16,208.18h-110.84c-.73,0-1.32-.59-1.32-1.32s.59-1.32,1.32-1.32h109.3l-14.51-93.29h-59.09c-.73,0-1.32-.59-1.32-1.32s.59-1.32,1.32-1.32h60.21c.65,0,1.2,.47,1.3,1.12l14.92,95.92c.06,.38-.05,.77-.3,1.06s-.62,.46-1,.46Z"/>
            <g>
              <path class="cls-2" d="M353.19,117.9h-5.58c-.42,0-.77-.35-.77-.77s.35-.77,.77-.77h5.58c.42,0,.77,.35,.77,.77s-.35,.77-.77,.77Z"/>
              <circle class="cls-2" cx="356.19" cy="117.13" r="1"/>
            </g>
            <path class="cls-7" d="M366.49,129.07c-2.67,0-4.84-2.17-4.84-4.84s2.17-4.84,4.84-4.84,4.84,2.17,4.84,4.84-2.17,4.84-4.84,4.84Zm0-8c-1.74,0-3.15,1.41-3.15,3.15s1.41,3.15,3.15,3.15,3.15-1.41,3.15-3.15-1.41-3.15-3.15-3.15Z"/>
          </g>
          <path class="cls-17" d="M50.84,132.26c-9.67-.03-17.54,7.78-17.57,17.45-.03,9.67,7.78,17.54,17.45,17.57,9.67,.03,17.54-7.78,17.57-17.45,.07-9.64-7.69-17.5-17.33-17.57-.04,0-.09,0-.13,0Zm0,27.29c-5.4,.02-9.8-4.32-9.84-9.72,0-5.43,4.41-9.84,9.84-9.84s9.84,4.41,9.84,9.84h0c-.04,5.4-4.44,9.75-9.84,9.72h0Z"/>
          <g>
            <path class="cls-7" d="M51.11,168.46c-10.44,0-18.94-8.49-18.94-18.94s8.49-18.93,18.94-18.93,18.94,8.49,18.94,18.93-8.49,18.94-18.94,18.94Zm0-35c-8.86,0-16.07,7.21-16.07,16.06s7.21,16.07,16.07,16.07,16.07-7.21,16.07-16.07-7.21-16.06-16.07-16.06Z"/>
            <path class="cls-7" d="M51.11,160.18c-5.88,0-10.66-4.78-10.66-10.66s4.78-10.65,10.66-10.65,10.66,4.78,10.66,10.65-4.78,10.66-10.66,10.66Zm0-19.61c-4.94,0-8.96,4.02-8.96,8.96s4.02,8.96,8.96,8.96,8.96-4.02,8.96-8.96-4.02-8.96-8.96-8.96Z"/>
          </g>
          <g>
            <path class="cls-7" d="M51.11,168.46c-10.44,0-18.94-8.49-18.94-18.94s8.49-18.93,18.94-18.93,18.94,8.49,18.94,18.93-8.49,18.94-18.94,18.94Zm0-35c-8.86,0-16.07,7.21-16.07,16.06s7.21,16.07,16.07,16.07,16.07-7.21,16.07-16.07-7.21-16.06-16.07-16.06Z"/>
            <path class="cls-7" d="M51.11,160.18c-5.88,0-10.66-4.78-10.66-10.66s4.78-10.65,10.66-10.65,10.66,4.78,10.66,10.65-4.78,10.66-10.66,10.66Zm0-19.61c-4.94,0-8.96,4.02-8.96,8.96s4.02,8.96,8.96,8.96,8.96-4.02,8.96-8.96-4.02-8.96-8.96-8.96Z"/>
          </g>
          <path class="cls-2" d="M52.07,119.62H122.64v64.5h-48.2c-12.35,0-22.36-10.01-22.36-22.36v-42.14h0Z"/>
          <path class="cls-11" d="M56.35,119.62H126.91v64.5h-48.2c-12.35,0-22.36-10.01-22.36-22.36v-42.14h0Z"/>
          <path class="cls-13" d="M126.91,184.12l-47.2-.14c-9.49-.43-16.84-8.46-16.41-17.96,.05-1.15,.22-2.29,.5-3.41h26.32l.28-41.9,13.78-1.65,22.74,65.05Z"/>
          <path class="cls-7" d="M122.64,185.55h-48.2c-13.12,0-23.79-10.67-23.79-23.79v-42.14c0-.8,.64-1.44,1.44-1.44h15.43c.8,0,1.44,.64,1.44,1.44s-.64,1.44-1.44,1.44h-14v40.7c0,11.54,9.39,20.92,20.92,20.92h46.77v-61.63h-42.25c-.8,0-1.44-.64-1.44-1.44s.64-1.44,1.44-1.44h43.69c.8,0,1.44,.64,1.44,1.44v64.5c0,.8-.64,1.44-1.44,1.44Z"/>
          <rect class="cls-5" x="36.5" y="183.02" width="355.29" height="24.81"/>
          <rect class="cls-10" x="36.5" y="183.02" width="355.29" height="5.95"/>
          <rect class="cls-18" x="36.5" y="201.62" width="355.29" height="5.95"/>
          <g>
            <circle class="cls-7" cx="1.79" cy="207.81" r="1.79"/>
            <path class="cls-7" d="M30.02,209.06H8.37c-.68,0-1.24-.55-1.24-1.24s.55-1.24,1.24-1.24H30.02c.68,0,1.24,.55,1.24,1.24s-.55,1.24-1.24,1.24Z"/>
          </g>
          <g>
            <circle class="cls-7" cx="426.03" cy="206.94" r="1.79"/>
            <path class="cls-7" d="M419.45,208.19h-21.66c-.68,0-1.24-.55-1.24-1.24s.55-1.24,1.24-1.24h21.66c.68,0,1.24,.55,1.24,1.24s-.55,1.24-1.24,1.24Z"/>
          </g>
          <path class="cls-7" d="M103,101.59c-.73,0-1.32-.59-1.32-1.32V7.76c0-.73,.59-1.32,1.32-1.32s1.32,.59,1.32,1.32V100.27c0,.73-.59,1.32-1.32,1.32Z"/>
          <rect class="cls-21" x="93.83" y="1.1" width="248.98" height="166.94" rx="6.3" ry="6.3"/>
          <path class="cls-22" d="M342.84,157.38v6.84c0,2.09-2.79,3.87-6.38,3.87H100.19c-3.59,0-6.38-1.77-6.38-3.87v-6.84c0,2.17,2.79,3.87,6.38,3.87h236.27c3.59,0,6.38-1.69,6.38-3.87Z"/>
          <path class="cls-7" d="M337.04,169.71H100.67c-4.2,0-7.62-3.41-7.62-7.62v-24.12c0-.73,.59-1.32,1.32-1.32s1.32,.59,1.32,1.32v24.12c0,2.75,2.24,4.99,4.99,4.99h236.38c2.75,0,4.99-2.24,4.99-4.99V7.76c0-2.75-2.24-4.99-4.99-4.99H156.54c-.73,0-1.32-.59-1.32-1.32s.59-1.32,1.32-1.32h180.5c4.2,0,7.62,3.41,7.62,7.62V162.09c0,4.2-3.41,7.62-7.62,7.62Z"/>
          <path class="cls-7" d="M94.36,101.59c-.73,0-1.32-.59-1.32-1.32V7.76c0-4.2,3.41-7.62,7.62-7.62h19.3c.73,0,1.32,.59,1.32,1.32s-.59,1.32-1.32,1.32h-19.3c-2.75,0-4.99,2.24-4.99,4.99V100.27c0,.73-.59,1.32-1.32,1.32Z"/>
          <path class="cls-7" d="M94.36,127.09c-.73,0-1.32-.59-1.32-1.32v-14.55c0-.73,.59-1.32,1.32-1.32s1.32,.59,1.32,1.32v14.55c0,.73-.59,1.32-1.32,1.32Z"/>
          <rect class="cls-17" x="107.36" y="14.06" width="224.73" height="144.11"/>
          <rect class="cls-14" x="107.36" y="14.06" width="224.73" height="4.34"/>
          <rect class="cls-15" x="108.24" y="156.15" width="223.37" height=".9"/>
          <path class="cls-7" d="M107.2,83.62c-.73,0-1.32-.59-1.32-1.32v-22.03c0-.73,.59-1.32,1.32-1.32s1.32,.59,1.32,1.32v22.03c0,.73-.59,1.32-1.32,1.32Z"/>
          <path class="cls-7" d="M147.61,2.63h-19.22c-.73,0-1.32-.59-1.32-1.32s.59-1.32,1.32-1.32h19.22c.73,0,1.32,.59,1.32,1.32s-.59,1.32-1.32,1.32Z"/>
          <g>
            <path class="cls-7" d="M98.75,16.61c-.09,.02-.19,.02-.29,0-.39-.08-.65-.45-.57-.84,0,0,0,0,0,0v-.03s2.11-9.95,2.11-9.95c.08-.39,.47-.64,.86-.56,.39,.08,.64,.47,.56,.86h0l-2.11,9.95c-.05,.29-.28,.52-.57,.58Z"/>
            <path class="cls-7" d="M103.06,11.16c-.09,.02-.19,.02-.29,0-.39-.08-.65-.45-.57-.84v-.03s1.13-5.33,1.13-5.33c.08-.39,.47-.64,.86-.56,.39,.08,.64,.47,.56,.86l-1.13,5.32c-.05,.29-.28,.52-.57,.58Z"/>
          </g>
          <g>
            <path class="cls-7" d="M115.29,146.84c-.09,.02-.19,.02-.29,0-.39-.08-.65-.45-.57-.84v-.03s2.11-9.95,2.11-9.95c.08-.39,.47-.64,.86-.56,.39,.08,.64,.47,.56,.86h0l-2.11,9.95c-.05,.29-.28,.52-.57,.58Z"/>
            <path class="cls-7" d="M119.6,141.39c-.09,.02-.19,.02-.29,0-.39-.08-.65-.45-.57-.84v-.03s1.13-5.33,1.13-5.33c.09-.39,.47-.64,.87-.55,.39,.09,.63,.47,.56,.85l-1.13,5.32c-.05,.29-.28,.52-.57,.58Z"/>
          </g>
          <g>
            <path class="cls-7" d="M157.43,7.56h-7.05c-.47,0-.85-.38-.85-.85s.38-.85,.85-.85h7.05c.47,0,.85,.38,.85,.85s-.38,.85-.85,.85Z"/>
            <path class="cls-7" d="M146.64,7.56h-13.69c-.47,0-.85-.38-.85-.85s.38-.85,.85-.85h13.69c.47,0,.85,.38,.85,.85s-.38,.85-.85,.85Z"/>
          </g>
          <g>
            <path class="cls-7" d="M319.1,9.07h-7.06c-.47,0-.85-.38-.85-.85s.38-.85,.85-.85h7.06c.47,0,.85,.38,.85,.85s-.38,.85-.85,.85Z"/>
            <path class="cls-7" d="M308.3,9.07h-13.69c-.47,0-.85-.38-.85-.85s.38-.85,.85-.85h13.69c.47,0,.85,.38,.85,.85s-.38,.85-.85,.85Z"/>
          </g>
          <g>
            <path class="cls-19" d="M67.91,166.76H365.53c0,9.13-7.4,16.53-16.53,16.53H84.44c-9.13,0-16.53-7.4-16.53-16.53h0Z"/>
            <path class="cls-16" d="M362.09,175.02c-1.63,5.44-6.92,8.93-12.56,8.29H85.01c-6.08,.78-11.96-2.46-14.54-8.01l291.62-.28Z"/>
            <path class="cls-7" d="M348.53,184.06H83.97c-9.91,0-17.97-8.06-17.97-17.97,0-.8,.64-1.44,1.44-1.44H365.06c.8,0,1.44,.64,1.44,1.44,0,9.91-8.06,17.97-17.97,17.97Zm-279.58-16.53c.73,7.65,7.18,13.66,15.03,13.66H348.53c7.84,0,14.3-6.01,15.03-13.66H68.94Z"/>
          </g>
          <path class="cls-7" d="M226.48,175.87h-27.29c-.47,0-.85-.38-.85-.85s.38-.85,.85-.85h27.29c.47,0,.85,.38,.85,.85s-.38,.85-.85,.85Z"/>
          <path class="cls-7" d="M83.43,190.27h-27.29c-.47,0-.85-.38-.85-.85s.38-.85,.85-.85h27.29c.47,0,.85,.38,.85,.85s-.38,.85-.85,.85Z"/>
          <g>
            <circle class="cls-14" cx="215.67" cy="114.38" r="17.92"/>
            <circle class="cls-14" cx="215.67" cy="114.38" r="9.55"/>
          </g>
          <g>
            <circle class="cls-14" cx="215.67" cy="116.59" r="17.92"/>
            <circle class="cls-14" cx="215.67" cy="116.59" r="9.55"/>
          </g>
          <g>
            <circle class="cls-19" cx="215.67" cy="109.7" r="17.92"/>
            <circle class="cls-19" cx="215.67" cy="109.7" r="9.55"/>
          </g>
          <path class="cls-7" d="M215.67,128.93c-10.6,0-19.23-8.63-19.23-19.24s8.63-19.23,19.23-19.23,19.23,8.63,19.23,19.23-8.63,19.24-19.23,19.24Zm0-35.84c-9.15,0-16.6,7.45-16.6,16.6s7.45,16.6,16.6,16.6,16.6-7.45,16.6-16.6-7.45-16.6-16.6-16.6Z"/>
          <circle class="cls-12" cx="215.67" cy="112.45" r="8.07"/>
          <g>
            <path class="cls-11" d="M174.7,96.77c-3.09,6.21-4.7,13.06-4.68,20.01h-21.28c-.04-9.16,1.85-18.22,5.53-26.6l20.43,6.6Z"/>
            <path class="cls-11" d="M190.66,78.68c-6.86,4.47-12.38,10.73-15.96,18.09l-20.43-6.6c4.97-11.64,13.16-21.61,23.62-28.73l12.77,17.24Z"/>
            <path class="cls-11" d="M215.77,49.73v21.28c-8.95-.04-17.71,2.63-25.11,7.66l-12.77-17.24c11.13-7.69,24.35-11.78,37.88-11.71Z"/>
            <path class="cls-11" d="M253.45,61.44l-12.77,17.24c-7.33-5.03-16.02-7.7-24.9-7.66v-21.28c13.46-.04,26.61,4.05,37.67,11.71Z"/>
            <path class="cls-11" d="M277.07,90.17l-20.43,6.6c-3.59-7.36-9.11-13.61-15.96-18.09l12.77-17.24c10.46,7.12,18.66,17.09,23.63,28.73Z"/>
            <path class="cls-11" d="M282.61,116.77h-21.28c.01-6.94-1.59-13.79-4.68-20.01l20.43-6.6c3.69,8.38,5.57,17.45,5.53,26.6Z"/>
          </g>
          <path class="cls-20" d="M281.83,117.62h-.35c-.66-6.92-2.44-13.68-5.27-20.03-.82-1.99-1.76-3.87-2.69-5.74-5.07-9.17-12.21-17.03-20.85-22.96-1.05-.7-2.11-1.52-3.28-2.23-21.26-12.65-47.74-12.65-69,0-1.17,.7-2.23,1.52-3.28,2.23-8.67,5.94-15.82,13.85-20.85,23.08-1.03,1.83-1.97,3.7-2.81,5.62-2.85,6.33-4.59,13.11-5.16,20.03h-.35c-.05-9.15,1.82-18.21,5.51-26.59,4.99-11.66,13.2-21.65,23.66-28.82,30.32-20.86,71.81-13.2,92.68,17.12,2.53,3.68,4.68,7.59,6.43,11.7,3.72,8.37,5.64,17.43,5.62,26.59Z"/>
          <g>
            <path class="cls-7" d="M170.01,118.09h-21.28c-.73,0-1.32-.58-1.32-1.31-.03-9.41,1.86-18.54,5.65-27.14,.27-.61,.93-.95,1.61-.72l20.43,6.6c.37,.12,.66,.39,.81,.74s.14,.76-.03,1.1c-2.99,5.99-4.56,12.7-4.55,19.41,0,.35-.14,.68-.38,.93-.25,.25-.58,.38-.93,.38Zm-19.96-2.63h18.66c.17-6.17,1.59-12.3,4.15-17.9l-17.86-5.77c-3.15,7.53-4.82,15.48-4.95,23.66Z"/>
            <path class="cls-7" d="M174.7,98.09c-.14,0-.27-.02-.41-.06l-20.43-6.6c-.35-.11-.64-.37-.8-.71-.15-.33-.15-.72-.01-1.06,5.07-11.9,13.41-22.03,24.09-29.3,.58-.41,1.38-.28,1.8,.3l12.77,17.24c.22,.29,.3,.66,.24,1.02-.07,.35-.27,.67-.58,.87-6.66,4.34-12.02,10.41-15.5,17.57-.22,.46-.69,.74-1.18,.74Zm-18.64-8.72l17.97,5.81c3.48-6.72,8.55-12.5,14.76-16.81l-11.19-15.11c-9.38,6.65-16.79,15.64-21.54,26.11Z"/>
            <path class="cls-7" d="M190.66,79.99c-.4,0-.8-.18-1.06-.53l-12.77-17.24c-.21-.29-.3-.65-.24-1,.06-.35,.26-.66,.55-.86,11.41-7.88,24.68-12.13,38.64-11.94,.73,0,1.31,.59,1.31,1.32v21.28c0,.35-.14,.69-.39,.93-.25,.25-.58,.38-.93,.38h-.23c-8.65,0-16.99,2.57-24.14,7.43-.22,.15-.48,.23-.74,.23Zm-10.9-18.24l11.21,15.13c7.05-4.52,15.11-6.98,23.48-7.18v-18.66c-12.41,.18-24.34,3.86-34.69,10.7Z"/>
            <path class="cls-7" d="M240.68,79.99c-.26,0-.52-.07-.74-.23-7.09-4.86-15.36-7.43-23.93-7.43h-.23c-.35,0-.68-.14-.93-.38-.25-.25-.39-.58-.39-.93v-21.28c0-.8,.77-1.32,1.52-1.32,13.73,0,26.94,4.12,38.22,11.94,.29,.2,.49,.51,.55,.86,.06,.35-.03,.71-.24,1l-12.77,17.24c-.26,.35-.66,.53-1.06,.53Zm-23.59-10.28c8.3,.2,16.3,2.66,23.27,7.17l11.21-15.13c-10.28-6.81-22.14-10.48-34.48-10.7v18.65Z"/>
            <path class="cls-7" d="M256.64,98.09c-.49,0-.96-.27-1.18-.74-3.49-7.15-8.85-13.22-15.5-17.57-.3-.2-.51-.51-.58-.87-.06-.36,.02-.73,.24-1.02l12.77-17.24c.43-.57,1.22-.7,1.8-.3,10.69,7.28,19.02,17.41,24.1,29.3,.14,.34,.14,.73-.01,1.06-.15,.34-.45,.59-.8,.71l-20.43,6.6c-.14,.05-.27,.06-.41,.06Zm-14.09-19.73c6.21,4.32,11.27,10.1,14.76,16.81l17.97-5.81c-4.75-10.47-12.15-19.45-21.54-26.11l-11.19,15.11Z"/>
            <path class="cls-7" d="M282.6,118.09h-21.28c-.35,0-.69-.14-.93-.38-.25-.25-.38-.58-.38-.94,.02-6.7-1.56-13.41-4.54-19.41-.17-.34-.18-.74-.03-1.1s.44-.62,.81-.74l20.43-6.6c.65-.23,1.33,.11,1.61,.72,3.79,8.62,5.68,17.75,5.64,27.14,0,.73-.59,1.31-1.32,1.31Zm-19.99-2.63h18.66c-.13-8.17-1.78-16.11-4.94-23.66l-17.86,5.77c2.56,5.61,3.98,11.74,4.14,17.9Z"/>
          </g>
          <g>
            <polygon class="cls-11" points="224.83 64.33 223 88.41 221.17 112.48 214.57 111.04 207.98 109.58 216.4 86.95 224.83 64.33"/>
            <path class="cls-7" d="M221.19,113.48c-.07,0-.14,0-.21-.02l-13.19-2.89c-.27-.06-.51-.23-.64-.48-.14-.25-.15-.54-.06-.8l16.86-45.26c.17-.45,.64-.69,1.11-.61,.47,.1,.8,.54,.76,1.02l-3.67,48.14c-.02,.28-.16,.53-.38,.7-.17,.12-.37,.19-.58,.19Zm-11.9-4.56l11.02,2.41,3.07-40.22-14.08,37.8Z"/>
          </g>
          <circle class="cls-2" cx="215.67" cy="109.7" r="8.07"/>
          <path class="cls-7" d="M215.67,118.61c-4.92,0-8.92-4-8.92-8.92s4-8.92,8.92-8.92,8.92,4,8.92,8.92-4,8.92-8.92,8.92Zm0-16.14c-3.98,0-7.22,3.24-7.22,7.22s3.24,7.22,7.22,7.22,7.22-3.24,7.22-7.22-3.24-7.22-7.22-7.22Z"/>
          <g>
            <path class="cls-7" d="M156.78,108.2h-.05l-6.61-.42c-.47-.03-.82-.43-.8-.9,.03-.45,.4-.8,.85-.8h.05l6.61,.42c.47,.03,.82,.43,.8,.9-.03,.45-.4,.8-.85,.8Z"/>
            <path class="cls-7" d="M157.99,100.93c-.08,0-.17-.01-.25-.03l-5.93-1.79c-.45-.14-.7-.61-.57-1.06,.13-.44,.61-.69,1.06-.57l5.93,1.79c.45,.14,.7,.61,.57,1.06-.11,.37-.45,.6-.81,.6Z"/>
          </g>
          <g>
            <path class="cls-7" d="M168.04,82.02c-.21,0-.41-.07-.57-.22l-4.91-4.44c-.34-.31-.37-.85-.06-1.2,.32-.35,.85-.37,1.2-.06l4.91,4.44c.34,.31,.37,.85,.06,1.2-.17,.18-.4,.27-.63,.27Z"/>
            <path class="cls-7" d="M172.73,75.47c-.23,0-.46-.09-.63-.28l-3.72-4.13c-.31-.35-.29-.88,.06-1.2,.34-.33,.88-.29,1.2,.06l3.72,4.13c.31,.35,.29,.88-.06,1.2-.16,.15-.37,.22-.57,.22Z"/>
          </g>
          <g>
            <path class="cls-7" d="M237.37,62.38c-.09,0-.18-.01-.27-.04-.44-.15-.68-.63-.53-1.08l2.13-6.27c.15-.45,.62-.67,1.08-.53,.44,.15,.68,.63,.53,1.08l-2.13,6.27c-.12,.35-.45,.57-.81,.57Z"/>
            <path class="cls-7" d="M230.08,58.93c-.06,0-.13,0-.19-.02-.46-.11-.74-.56-.64-1.02l1.24-5.42c.1-.46,.54-.72,1.02-.64,.46,.11,.74,.56,.64,1.02l-1.24,5.42c-.09,.39-.44,.66-.83,.66Z"/>
          </g>
          <g>
            <path class="cls-7" d="M264.11,82.02c-.23,0-.46-.09-.63-.27-.31-.35-.29-.89,.06-1.2l4.91-4.44c.35-.32,.88-.29,1.2,.06,.31,.35,.29,.89-.06,1.2l-4.91,4.44c-.17,.15-.37,.22-.57,.22Z"/>
            <path class="cls-7" d="M259.42,75.47c-.2,0-.41-.07-.57-.22-.35-.31-.38-.85-.06-1.2l3.72-4.13c.31-.35,.84-.39,1.2-.06,.35,.31,.38,.85,.06,1.2l-3.72,4.13c-.17,.19-.39,.28-.63,.28Z"/>
          </g>
          <g>
            <path class="cls-7" d="M274.58,108.2c-.45,0-.82-.34-.85-.8-.03-.46,.33-.87,.8-.9l6.61-.42c.45-.05,.86,.33,.9,.8,.03,.46-.33,.87-.8,.9l-6.61,.42h-.05Z"/>
            <path class="cls-7" d="M273.37,100.93c-.37,0-.7-.23-.81-.6-.14-.45,.12-.92,.57-1.06l5.93-1.79c.45-.13,.93,.12,1.06,.57,.14,.45-.12,.92-.57,1.06l-5.93,1.79c-.08,.02-.17,.03-.25,.03Z"/>
          </g>
          <g>
            <polygon class="cls-4" points="252.74 156.56 247.22 156.56 282.36 12.67 287.88 12.67 252.74 156.56"/>
            <polygon class="cls-3" points="277.13 156.56 259.9 156.56 295.04 12.67 312.27 12.67 277.13 156.56"/>
          </g>
          <polygon class="cls-4" points="230.41 156.56 224.89 156.56 260.04 12.67 265.55 12.67 230.41 156.56"/>
          <path class="cls-7" d="M331.93,158.3H107.21c-.73,0-1.32-.59-1.32-1.32V92.39c0-.73,.59-1.32,1.32-1.32s1.32,.59,1.32,1.32v63.28h222.09V14.19H108.52V51.79c0,.73-.59,1.32-1.32,1.32s-1.32-.59-1.32-1.32V12.87c0-.73,.59-1.32,1.32-1.32h224.72c.73,0,1.32,.59,1.32,1.32V156.98c0,.73-.59,1.32-1.32,1.32Z"/>
          <g>
            <path class="cls-7" d="M194.92,62.2c-.35,0-.69-.22-.81-.57l-2.13-6.27c-.15-.45,.09-.93,.53-1.08,.42-.15,.93,.09,1.08,.53l2.13,6.27c.15,.45-.09,.93-.53,1.08-.09,.03-.18,.04-.27,.04Z"/>
            <path class="cls-7" d="M202.21,58.75c-.39,0-.74-.26-.83-.66l-1.24-5.42c-.1-.46,.18-.91,.64-1.02,.45-.1,.91,.18,1.02,.64l1.24,5.42c.1,.46-.18,.91-.64,1.02-.06,.01-.13,.02-.19,.02Z"/>
          </g>
          <circle class="cls-2" cx="118.78" cy="32.25" r="4.55"/>
          <circle class="cls-2" cx="126.56" cy="40.03" r="3.05"/>
          <circle class="cls-2" cx="118.42" cy="40.24" r="1.85"/>
          <path class="cls-8" d="M391.36,199.33c-34.26-.43-61.01-2.54-84.61-4.4-22.53-1.78-43.8-3.45-68.07-3.45-27.12,0-48.51,1.86-71.15,3.83-12.97,1.13-26.39,2.29-41.67,3.19-29.77,1.1-59.78-.73-89.22-5.38l.27-1.74c29.33,4.63,59.25,6.44,88.86,5.36,15.24-.89,28.64-2.06,41.6-3.19,22.68-1.97,44.11-3.84,71.3-3.84,24.34,0,45.64,1.68,68.21,3.47,23.58,1.86,50.3,3.97,84.5,4.39l-.02,1.76Z"/>
          <path class="cls-8" d="M237.85,201.06c-18.29-.22-36.74-1.68-54.85-4.32-48.45-5.74-97.51-5.15-145.82,1.76l-.25-1.74c48.48-6.93,97.71-7.52,146.3-1.77,18.05,2.64,36.42,4.09,54.63,4.31,24.25,0,45.52-1.68,68.03-3.45,23.61-1.86,50.38-3.97,84.64-4.4l.02,1.76c-34.21,.42-60.95,2.53-84.53,4.39-22.55,1.78-43.85,3.46-68.18,3.46Z"/>
          <path class="cls-7" d="M391.79,209.14H36.5c-.73,0-1.32-.59-1.32-1.32v-24.81c0-.73,.59-1.32,1.32-1.32h5.79c.73,0,1.32,.59,1.32,1.32s-.59,1.32-1.32,1.32h-4.47v22.18H390.47v-22.18H54.15c-.73,0-1.32-.59-1.32-1.32s.59-1.32,1.32-1.32H391.79c.73,0,1.32,.59,1.32,1.32v24.81c0,.73-.59,1.32-1.32,1.32Z"/>
          <circle class="cls-7" cx="89.22" cy="189.42" r="1.79"/>
          <circle class="cls-7" cx="47.96" cy="183.1" r="1.79"/>
          <circle class="cls-7" cx="73.44" cy="119.9" r="1.79"/>
          <g>
            <path class="cls-2" d="M100.72,176.08h-10.95c-.81,0-1.46-.66-1.46-1.46s.66-1.46,1.46-1.46h10.95c.81,0,1.46,.66,1.46,1.46s-.66,1.46-1.46,1.46Z"/>
            <circle class="cls-2" cx="83.88" cy="174.61" r="1.96"/>
          </g>
          <g>
            <path class="cls-11" d="M384.51,87.45l-27.29,14.37c-.73,.39-1.64,.1-2.02-.63l-21.16-40.18c-.5-.95-.6-2.07-.26-3.09l6.59-20.29,21.15,5.67c1.07,.29,1.98,1.01,2.5,2l21.13,40.13c.39,.73,.1,1.64-.63,2.02,0,0,0,0,0,0Z"/>
            <circle class="cls-11" cx="349.64" cy="54.35" r="4.97"/>
          </g>
          <path class="cls-20" d="M339.87,40.01l-.72,19.95c-.04,1.15,.38,2.26,1.17,3.09l30.81,32.29-3.02,1.59-31.31-33.03c-.79-.83-1.21-1.95-1.17-3.09l1.65-12.83,2.59-7.97Z"/>
          <g>
            <path class="cls-7" d="M356.53,103.32c-1.01,0-2-.54-2.5-1.5l-21.16-40.19c-.66-1.26-.8-2.76-.35-4.11l6.59-20.28c.22-.67,.92-1.05,1.6-.86l21.15,5.67c1.42,.38,2.63,1.34,3.32,2.64l21.13,40.14c.73,1.36,.2,3.07-1.17,3.8,0,0,0,0,0,0l-27.3,14.37c-.41,.22-.86,.32-1.3,.32Zm-15.31-64.08l-6.2,19.09c-.22,.68-.15,1.44,.18,2.08l21.16,40.18,27.54-14.3c.09-.05,.13-.15,.08-.24l-21.14-40.14c-.34-.65-.96-1.14-1.67-1.33l-19.95-5.35Zm43.29,48.22h0Z"/>
            <path class="cls-7" d="M349.64,60.64c-3.47,0-6.29-2.82-6.29-6.29s2.82-6.29,6.29-6.29,6.29,2.82,6.29,6.29-2.82,6.29-6.29,6.29Zm0-9.95c-2.02,0-3.66,1.64-3.66,3.66s1.64,3.66,3.66,3.66,3.66-1.64,3.66-3.66-1.64-3.66-3.66-3.66Z"/>
          </g>
          <g>
            <path class="cls-11" d="M399.09,74.36l-23.5,22.42c-.63,.6-1.63,.58-2.23-.05,0,0,0,0,0,0l-33.01-34.6c-.78-.82-1.2-1.92-1.16-3.06l.83-22.44,23.06-.36c1.17-.02,2.3,.45,3.11,1.3l32.97,34.56c.6,.63,.58,1.63-.05,2.23,0,0,0,0,0,0Z"/>
            <circle class="cls-11" cx="354.24" cy="50.87" r="5.24"/>
          </g>
          <path class="cls-20" d="M399.98,74.52l-23.55,22.49c-.61,.58-1.58,.56-2.16-.05-.02-.02-.04-.05-.06-.07l-18.74-19.68c12.64-2.08,23.14-10.88,27.41-22.96l17.22,18.04c.55,.66,.5,1.63-.12,2.23Z"/>
          <path class="cls-7" d="M374.5,98.54h-.07c-.77-.02-1.49-.33-2.02-.89l-33.02-34.61c-1.02-1.07-1.58-2.53-1.52-4.02l.82-22.44c.02-.7,.59-1.26,1.29-1.27l23.06-.35c1.61-.09,3.03,.6,4.08,1.72l5.34,5.39c.51,.52,.5,1.35-.01,1.86-.51,.51-1.35,.51-1.86-.01l-5.35-5.42c-.57-.6-1.24-.89-2.15-.92l-21.8,.34-.78,21.19c-.03,.78,.26,1.54,.79,2.1l33.02,34.61c.08,.09,.28,.09,.36,0l23.51-22.42c.09-.08,.09-.27,0-.37l-19.96-20.92c-.5-.53-.48-1.36,.05-1.86,.53-.5,1.36-.47,1.86,.05l19.96,20.92c.53,.56,.81,1.29,.8,2.06s-.33,1.49-.89,2.03l-23.51,22.42c-.54,.51-1.25,.8-2,.8Z"/>
          <circle class="cls-2" cx="354.05" cy="50.67" r="5.24"/>
          <path class="cls-7" d="M354.24,56.96c-3.35,0-6.08-2.73-6.08-6.09s2.73-6.08,6.08-6.08,6.09,2.73,6.09,6.08-2.73,6.09-6.09,6.09Zm0-10.47c-2.42,0-4.39,1.97-4.39,4.39s1.97,4.39,4.39,4.39,4.39-1.97,4.39-4.39-1.97-4.39-4.39-4.39Z"/>
          <path class="cls-7" d="M351.26,55.42c-.25,0-.49-.1-.66-.31-.3-.36-.24-.9,.13-1.19l2.65-2.14c2.44-1.97,3.96-4.78,4.28-7.89s-.58-6.18-2.55-8.61c-.73-.89-1.57-1.68-2.52-2.32-2.67-1.81-5.99-2.45-9.14-1.76-.5,.09-.92-.19-1.01-.65-.1-.46,.19-.91,.65-1.01,3.59-.81,7.41-.07,10.46,2.01,1.08,.74,2.05,1.63,2.88,2.66,2.26,2.79,3.3,6.29,2.92,9.86-.37,3.56-2.12,6.77-4.91,9.03l-2.65,2.14c-.15,.13-.34,.19-.53,.19Z"/>
          <text class="cls-1" transform="translate(370.86 83.58) rotate(-43.65)"><tspan x="0" y="0">%</tspan></text>
          <circle class="cls-7" cx="374.98" cy="47.13" r="1.79"/>
          <path class="cls-7" d="M218.83,9.86c-1.52,0-2.75-1.23-2.75-2.74s1.23-2.75,2.75-2.75,2.74,1.23,2.74,2.75-1.23,2.74-2.74,2.74Zm0-3.79c-.58,0-1.05,.47-1.05,1.05s.47,1.05,1.05,1.05,1.05-.47,1.05-1.05-.47-1.05-1.05-1.05Z"/>
        </g>
      </g>
    </g>
  </g>
</svg>