<?xml version="1.0" encoding="UTF-8"?>
<svg id="Layer_2" data-name="Layer 2" xmlns="http://www.w3.org/2000/svg" viewBox="0 0 463.88 239.98">
  <defs>
    <style>
      .cls-1, .cls-2, .cls-3 {
        fill: #f7f7f7;
      }

      .cls-4 {
        fill: #0288b2;
      }

      .cls-5 {
        fill: #00b1c9;
      }

      .cls-6, .cls-7 {
        fill: #00848e;
      }

      .cls-8 {
        fill: #00939e;
      }

      .cls-9 {
        fill: #008184;
      }

      .cls-10 {
        fill: #6b251f;
      }

      .cls-11, .cls-12 {
        fill: #e9ffa4;
      }

      .cls-13 {
        fill: #fee8c7;
      }

      .cls-14, .cls-15, .cls-16 {
        fill: #fff;
      }

      .cls-17 {
        fill: #e2f7b2;
      }

      .cls-18 {
        fill: #e4f0f9;
      }

      .cls-19 {
        fill: #feb06d;
      }

      .cls-20 {
        fill: #738e02;
      }

      .cls-21 {
        fill: #98ba60;
      }

      .cls-22 {
        fill: #7f8b99;
      }

      .cls-23, .cls-24 {
        fill: #939caa;
      }

      .cls-25 {
        fill: #b7502c;
      }

      .cls-26 {
        fill: #b5bcc6;
      }

      .cls-27 {
        fill: #8c97a5;
      }

      .cls-28 {
        fill: #c2dd8e;
      }

      .cls-29 {
        fill: #91423c;
      }

      .cls-30 {
        fill: #86382e;
      }

      .cls-31, .cls-32 {
        fill: #ced3db;
      }

      .cls-33 {
        fill: #a4cf3a;
      }

      .cls-34 {
        fill: #c19968;
      }

      .cls-35 {
        fill: #ddbb8e;
      }

      .cls-36, .cls-37, .cls-38 {
        fill: #dd764d;
      }

      .cls-39, .cls-40 {
        fill: #253956;
      }

      .cls-41 {
        fill: #1b235c;
      }

      .cls-42 {
        fill: #0cdfef;
      }

      .cls-43 {
        fill: #354c70;
      }

      .cls-44 {
        fill: #88b206;
      }

      .cls-45 {
        fill: #6e7984;
      }

      .cls-46 {
        fill: #769103;
      }

      .cls-15 {
        opacity: .28;
      }

      .cls-15, .cls-2, .cls-24, .cls-47, .cls-32, .cls-37, .cls-12, .cls-16, .cls-3, .cls-38, .cls-7, .cls-40 {
        isolation: isolate;
      }

      .cls-2 {
        opacity: .65;
      }

      .cls-24 {
        opacity: .36;
      }

      .cls-47 {
        fill: #6c8431;
      }

      .cls-47, .cls-32 {
        opacity: .52;
      }

      .cls-37 {
        opacity: .51;
      }

      .cls-12 {
        opacity: .59;
      }

      .cls-16 {
        opacity: .58;
      }

      .cls-3, .cls-38 {
        opacity: .44;
      }

      .cls-7 {
        opacity: .4;
      }

      .cls-40 {
        opacity: .47;
      }

      .cls-48 {
        opacity: .45;
      }

      .cls-49 {
        opacity: .39;
      }
    </style>
  </defs>
  <g id="Layer_1-2" data-name="Layer 1">
    <g id="Layer_2-2" data-name="Layer 2">
      <g id="Layer_2-2" data-name="Layer 2-2">
        <path class="cls-20" d="M403,195.08h16.51c18.35,0,33.23,14.88,33.23,33.23h-49.74v-33.23h0Z"/>
        <path class="cls-44" d="M438.8,193.05h0c.68,.33,.97,1.15,.64,1.83,0,0,0,.02-.01,.03l-3.68,7.79h0l-2.47-1.17h0l3.68-7.79c.3-.69,1.11-1.01,1.8-.71,.01,0,.02,.01,.04,.02Z"/>
        <path class="cls-44" d="M440.24,198h0c.42,.2,.6,.7,.4,1.12l-2.26,4.79h0l-1.52-.72h0l2.26-4.79c.2-.42,.7-.6,1.12-.4Z"/>
        <path class="cls-46" d="M437.93,197.83h0c.36,.17,.51,.6,.34,.96h0l-1.95,4.13h0l-1.31-.62h0l1.95-4.13c.17-.36,.6-.51,.96-.34,0,0,0,0,0,0Z"/>
        <path class="cls-46" d="M433.61,195.79h0c.36,.17,.51,.6,.34,.96h0l-1.95,4.13h0l-1.31-.62h0l1.95-4.13c.17-.36,.6-.51,.96-.34,0,0,0,0,0,0Z"/>
        <path class="cls-11" d="M421.77,188.5h0c.67,0,1.2,.55,1.2,1.22l-.08,7.62h0l-2.41-.02h0l.08-7.62c0-.66,.55-1.2,1.21-1.2Z"/>
        <path class="cls-11" d="M424.75,191.94h0c.41,0,.74,.34,.73,.75l-.05,4.68h0l-1.47-.02h0l.05-4.68c0-.41,.34-.74,.75-.73h0Z"/>
        <path class="cls-46" d="M422.83,192.66h0c.35,0,.64,.29,.63,.65h0s-.04,4-.04,4h-1.28s.04-4.01,.04-4.01c0-.35,.29-.64,.65-.63h0Z"/>
        <path class="cls-46" d="M418.6,192.62h0c.35,0,.64,.29,.63,.65h0s-.04,4-.04,4h-1.28s.04-4.01,.04-4.01c0-.35,.29-.64,.65-.63h0Z"/>
        <path class="cls-18" d="M447.3,117.36h-1.18c-.65-3.17-3.44-5.44-6.67-5.44-1.04,0-2.07,.25-3,.72-3.33-5.13-10.19-6.59-15.31-3.26-.3,.19-.58,.4-.86,.62-4.8-6.19-13.71-7.32-19.91-2.52-3.09,2.4-5.06,5.96-5.43,9.85h-.16c-1.29,0-2.33,1.04-2.33,2.33,0,0,0,0,0,.01h0c0,1.29,1.04,2.33,2.33,2.33h52.52c1.29,0,2.33-1.04,2.33-2.33h0c-.01-1.28-1.05-2.31-2.33-2.31Z"/>
        <circle class="cls-18" cx="448.63" cy="107.91" r="1.69"/>
        <path class="cls-18" d="M451.06,41.44h-1.18c-.73-3.67-4.31-6.05-7.98-5.32-.6,.12-1.18,.32-1.73,.6-3.34-5.12-10.19-6.57-15.32-3.23-.29,.19-.58,.4-.85,.61-4.8-6.19-13.71-7.32-19.91-2.52-3.09,2.4-5.06,5.97-5.43,9.86h-.15c-1.29,0-2.33,1.03-2.34,2.32,0,0,0,0,0,.01h0c0,1.29,1.05,2.34,2.34,2.34h52.51c1.29,0,2.34-1.05,2.34-2.34h0c0-1.28-1.02-2.31-2.3-2.33Z"/>
        <circle class="cls-18" cx="452.4" cy="31.99" r="1.69"/>
        <path class="cls-44" d="M353.86,193.93l24.14-5.64c13-3,26.94,0,36.24,7.87l25.68,21.68h-75.23l-10.83-23.91Z"/>
        <path class="cls-11" d="M423.41,206.97h0c.76,0,1.36,.63,1.36,1.38l-.09,8.62h0l-2.73-.03h0l.09-8.62c0-.75,.62-1.36,1.37-1.36Z"/>
        <path class="cls-11" d="M426.79,210.85h0c.46,0,.84,.38,.83,.85l-.05,5.33h0l-1.68-.02h0l.05-5.3c-.01-.46,.35-.85,.82-.86,.01,0,.02,0,.03,0Z"/>
        <path class="cls-46" d="M424.62,211.67h0c.4,0,.72,.33,.71,.73h0l-.05,4.63h-1.45s.05-4.58,.05-4.58c-.03-.4,.27-.74,.67-.77,.02,0,.05,0,.07,0Z"/>
        <path class="cls-46" d="M419.83,211.62h0c.4,0,.72,.33,.71,.73h0l-.05,4.57h-1.45s.05-4.58,.05-4.58c0-.4,.33-.72,.73-.71,0,0,0,0,.01,0Z"/>
        <path class="cls-18" d="M107.35,113.41h-1.18c-.74-3.68-4.32-6.06-8-5.32-.6,.12-1.18,.32-1.72,.6-3.35-5.11-10.2-6.54-15.31-3.19-.28,.18-.55,.38-.81,.58-4.79-6.19-13.7-7.33-19.89-2.54-3.1,2.4-5.07,5.97-5.44,9.87h-.16c-1.29,0-2.33,1.04-2.33,2.33h0c0,1.29,1.03,2.33,2.32,2.34,0,0,0,0,.01,0h52.52c1.29,0,2.33-1.04,2.33-2.33,0,0,0,0,0-.01h0c0-1.29-1.04-2.33-2.33-2.33,0,0,0,0-.01,0Z"/>
        <path class="cls-18" d="M182.53,70.64h-1.72c-.94-4.6-4.99-7.9-9.68-7.9-1.53-.02-3.04,.33-4.41,1-4.89-7.41-14.86-9.46-22.28-4.57-.39,.26-.77,.54-1.14,.83-6.96-8.99-19.89-10.64-28.88-3.68-4.5,3.48-7.35,8.66-7.9,14.32h-.23c-1.86,0-3.37,1.5-3.38,3.36h0c0,1.87,1.5,3.38,3.37,3.39,0,0,0,0,.01,0h76.24c1.87,0,3.39-1.52,3.39-3.39h0c-.02-1.86-1.53-3.36-3.39-3.36Z"/>
        <path class="cls-44" d="M15.12,226.07H456.92c3.84,0,6.96,3.11,6.96,6.96h0c0,3.84-3.12,6.96-6.96,6.96H15.12c-3.84,0-6.96-3.11-6.96-6.96h0c0-3.84,3.12-6.96,6.96-6.96Z"/>
        <g class="cls-49">
          <path class="cls-26" d="M88.48,102.71c-.14,.42-.57,.66-1,.57-2.93-.41-5.83-.98-8.69-1.71-3.89-.99-7.72-2.18-11.49-3.57-3.78-1.38-7.49-2.96-11.1-4.74-3.7-1.75-7.23-3.85-10.54-6.26l42.82,15.71Z"/>
          <path class="cls-31" d="M88.48,102.71l-42.82-15.71c4.09,.29,8.14,.96,12.11,2,7.81,1.99,15.39,4.78,22.63,8.32,2.65,1.3,5.23,2.75,7.73,4.33,.35,.22,.5,.67,.35,1.06Z"/>
          <path class="cls-26" d="M0,86.78c0,.42,.28,.78,.69,.87,2.89,.6,5.81,1.06,8.75,1.35,4.01,.42,8.04,.63,12.07,.62,4.02,.01,8.05-.19,12.05-.61,4.08-.39,8.12-1.15,12.06-2.27L0,86.78Z"/>
          <path class="cls-31" d="M0,86.78H45.62c-3.94-1.13-7.98-1.89-12.06-2.28-3.99-.42-7.99-.62-12-.61-4.03,0-8.06,.2-12.07,.62-2.96,.31-5.89,.77-8.8,1.39-.41,.09-.7,.46-.69,.88Z"/>
          <path class="cls-26" d="M58.11,43c-.39-.11-.81,.06-1,.42-1.4,2.6-2.66,5.27-3.77,8-1.51,3.73-2.83,7.54-3.94,11.41-1.14,3.87-2.06,7.79-2.76,11.76-.77,4.03-1.16,8.11-1.17,12.21l12.64-43.8Z"/>
          <path class="cls-31" d="M58.11,43l-12.67,43.86c2.18-3.49,4.03-7.17,5.53-11,1.52-3.71,2.83-7.51,3.94-11.36,1.13-3.87,2.05-7.79,2.75-11.76,.53-2.91,.89-5.85,1.1-8.8,.05-.43-.23-.83-.65-.94Z"/>
          <polygon class="cls-26" points="49.14 205.13 45.47 205.13 45.47 87.03 47.69 87.03 49.14 205.13"/>
          <polygon class="cls-31" points="45.47 87.03 45.47 205.13 41.8 205.13 43.24 87.03 45.47 87.03"/>
          <circle class="cls-31" cx="45.47" cy="86.83" r="4.05"/>
          <path class="cls-22" d="M47.76,92.2c-1.38,.96-3.2,.96-4.58,0v-2c1.36,.93,3.16,.93,4.52,0l.06,2Z"/>
          <circle class="cls-27" cx="45.47" cy="86.83" r="2.41"/>
          <circle class="cls-45" cx="45.47" cy="86.83" r="1.81"/>
          <rect class="cls-22" x="46.67" y="103.87" width=".7" height="4.87" rx=".35" ry=".35" transform="translate(-.94 .42) rotate(-.51)"/>
          <rect class="cls-22" x="46.07" y="168.33" width=".7" height="4.87" rx=".35" ry=".35" transform="translate(-1.52 .42) rotate(-.51)"/>
          <rect class="cls-15" x="40.99" y="145.49" width="4.87" height=".7" rx=".35" ry=".35" transform="translate(-102.81 187.96) rotate(-89.49)"/>
          <rect class="cls-15" x="41.73" y="158.28" width="4.87" height=".7" rx=".35" ry=".35" transform="translate(-114.85 201.38) rotate(-89.49)"/>
          <rect class="cls-15" x="41.93" y="97.28" width="4.87" height=".7" rx=".35" ry=".35" transform="translate(-53.66 141.12) rotate(-89.49)"/>
          <rect class="cls-15" x="41.93" y="181.88" width="4.87" height=".7" rx=".35" ry=".35" transform="translate(-138.25 224.97) rotate(-89.49)"/>
          <rect class="cls-15" x="40.5" y="200.43" width="4.87" height=".7" rx=".35" ry=".35" transform="translate(-158.22 241.93) rotate(-89.49)"/>
          <rect class="cls-15" x="42.07" y="113.6" width="4.87" height=".7" rx=".35" ry=".35" transform="translate(-69.84 157.44) rotate(-89.49)"/>
          <rect class="cls-22" x="47.81" y="198.91" width=".7" height="4.87" rx=".35" ry=".35" transform="translate(-1.79 .44) rotate(-.51)"/>
          <path class="cls-16" d="M14.17,84.54c-.19,0-.35-.16-.36-.35,0-.2,.15-.37,.35-.38,.08,0,7.29-.21,12.67-.1,.2,0,.36,.17,.35,.37,0,0,0,0,0,0,0,.19-.15,.35-.34,.36,0,0-.01,0-.02,0-5.37-.12-12.56,.09-12.63,.1h-.02Z"/>
        </g>
        <path class="cls-44" d="M88.29,193.67l-17.62-4.11c-9.46-2.21-19.67,0-26.46,5.75l-18.75,15.83h54.92l7.91-17.47Z"/>
        <path class="cls-33" d="M105.82,189l-18-5.22c-9.66-2.8-20.07,0-27,7.29l-19.1,20.07h56l8.1-22.14Z"/>
        <path class="cls-29" d="M58.32,157.14c.92,7,3.08,10.46,4.66,12.07v-.46c0-1.66,1.34-3,3-3,.05,0,.09-.04,.1-.09v-8.31h2.92v8.31c0,1.66-1.34,3-3,3-.06,0-.1,.04-.1,.1h0v9.54c0,.05,.05,.09,.1,.09h3.11c1.66,0,3,1.34,3,3v8.16h-2.9v-8.15c0-.05-.05-.1-.1-.1h-3.11c-1.66,0-3-1.34-3-3v-5.38c-1.07-.63-2.02-1.46-2.8-2.43-2.41-2.91-4-7.27-4.75-13l2.87-.35Z"/>
        <path class="cls-44" d="M47.3,139.56c-1.55,0-2.81-1.26-2.81-2.81v-5.54c0-1.55,1.24-2.8,2.79-2.81,0,0,.01,0,.02,0h15c3.39,0,6.59,1.55,8.7,4.2,2.3,2.99,5.84,4.77,9.61,4.83h.39c1.09,.03,1.97,.91,2,2v16.73c0,1.1-.9,2-2,2h-30.09c-1.1,0-2-.9-2-2v-.15c0-1.18-.95-2.13-2.13-2.14h0c-1.19,0-2.16-.97-2.17-2.16v-8.49c0-1.2,.97-2.17,2.17-2.17h1.35c.43,0,.77-.33,.78-.76,0,0,0,0,0-.01h0c0-.43-.35-.77-.78-.77l-.83,.05Z"/>
        <path class="cls-33" d="M54.74,139.56c-1.55,0-2.81-1.26-2.81-2.81v-5.54c0-1.55,1.26-2.81,2.81-2.81h15c3.4,0,6.61,1.54,8.72,4.2,2.3,2.99,5.84,4.77,9.61,4.83h.43c1.09,.03,1.97,.91,2,2v16.73c0,1.1-.9,2-2,2h-30.15c-1.1,0-2-.9-2-2v-.15c0-1.18-.94-2.13-2.12-2.14,0,0,0,0-.01,0h0c-1.19,.03-2.19-.92-2.22-2.11v-8.49c0-1.2,.97-2.17,2.17-2.17h1.36c.43,0,.77-.34,.77-.77h0c0-.42-.35-.76-.77-.77h-.79Z"/>
        <circle class="cls-11" cx="56.26" cy="151.89" r="1.4"/>
        <circle class="cls-11" cx="62.86" cy="147.55" r=".38"/>
        <circle class="cls-11" cx="71.71" cy="148.84" r=".49"/>
        <circle class="cls-11" cx="75.16" cy="153.14" r=".77"/>
        <circle class="cls-11" cx="63.86" cy="152.63" r=".81"/>
        <circle class="cls-11" cx="49.3" cy="143.45" r=".74"/>
        <path class="cls-11" d="M69.72,129.13h-10.64c-.4,0-.73-.33-.73-.73,0-.4,.33-.73,.73-.73h10.64c.4,0,.73,.33,.73,.73,0,.4-.33,.73-.73,.73Z"/>
        <rect class="cls-10" x="63.69" y="172.7" width=".18" height="3.14"/>
        <rect class="cls-10" x="69.87" y="180.59" width=".18" height="3.14"/>
        <rect class="cls-10" x="64.55" y="168.06" width=".18" height="3.14"/>
        <rect class="cls-10" x="67.76" y="159.79" width=".18" height="3.14"/>
        <rect class="cls-10" x="64.87" y="171.98" width=".18" height="1.34"/>
        <rect class="cls-10" x="64.48" y="174.17" width=".18" height="3.14"/>
        <rect class="cls-10" x="67.24" y="161.59" width=".18" height="1.34"/>
        <rect class="cls-10" x="66.85" y="163.77" width=".18" height="3.14"/>
        <rect class="cls-10" x="71.33" y="182.4" width=".18" height="1.34"/>
        <rect class="cls-10" x="70.94" y="184.58" width=".18" height="3.14"/>
        <rect class="cls-10" x="66.09" y="158.26" width="2.92" height="1.53"/>
        <path class="cls-44" d="M68.95,211.17h-2.26v-7c0-.61,.5-1.11,1.11-1.11h0c.61-.02,1.13,.46,1.15,1.07,0,.01,0,.03,0,.04v7h0Z"/>
        <path class="cls-46" d="M75.59,205.84h-2.22v-7c0-.61,.5-1.11,1.11-1.11h0c.61,0,1.11,.5,1.11,1.11h0v7h0Z"/>
        <path class="cls-44" d="M66.09,211.14h-3.61v-11.39c0-.99,.81-1.8,1.8-1.8h0c.99,0,1.8,.81,1.8,1.8h0v11.39h0Z"/>
        <path class="cls-44" d="M60.89,211.17h-2.22v-7c0-.61,.5-1.11,1.11-1.11h0c.61,0,1.11,.5,1.11,1.11h0v7h0Z"/>
        <path class="cls-46" d="M63.59,211.14h-1.91v-6c0-.55,.45-1,1-1h0c.55,0,1,.45,1,1v6h-.09Z"/>
        <path class="cls-46" d="M69.91,211.14h-1.91v-6c0-.55,.45-1,1-1h0c.55,0,1,.45,1,1v6h-.09Z"/>
        <path class="cls-44" d="M65.54,191.81l-1.81,.85h0l-2.69-5.7c-.24-.5-.02-1.1,.48-1.33h0c.5-.24,1.1-.02,1.33,.48l2.69,5.7h0Z"/>
        <path class="cls-44" d="M62.96,193.07l-1.08,.51h0l-1.65-3.5c-.14-.3-.01-.67,.29-.81h0c.3-.14,.67-.01,.81,.29h0l1.65,3.5h-.03Z"/>
        <path class="cls-46" d="M64.27,192.36l-.96,.45h0l-1.43-3.02c-.12-.26-.01-.58,.25-.71h0c.26-.12,.58-.01,.71,.25,0,0,1.43,3.02,1.43,3.02Z"/>
        <path class="cls-46" d="M67.46,190.9l-.96,.45h0l-1.43-3.02c-.12-.26-.01-.58,.25-.71h0c.26-.12,.58-.01,.71,.25l1.43,3.02h0Z"/>
        <path class="cls-44" d="M54.77,164.46c-1.23,1.37-.74,3.81-.74,3.81,0,0,2.48,.24,3.72-1.13s.74-3.81,.74-3.81c0,0-2.49-.23-3.72,1.13Z"/>
        <path class="cls-33" d="M69.55,162c-1.24,1.36-.75,3.81-.75,3.81,0,0,2.49,.23,3.72-1.13s.74-3.81,.74-3.81c0,0-2.48-.26-3.71,1.13Z"/>
        <path class="cls-44" d="M40.08,159.68c-.53,.79-.71,1.76-.52,2.69,.94,.1,1.89-.19,2.62-.79,.53-.79,.71-1.76,.52-2.69-.94-.1-1.89,.19-2.62,.79Z"/>
        <path class="cls-33" d="M44.94,165.77c.59,.74,1.46,1.21,2.4,1.31,.37-.88,.37-1.86,0-2.74-.57-.74-1.41-1.22-2.34-1.34-.4,.88-.42,1.88-.06,2.77Z"/>
        <path class="cls-33" d="M48.82,179.19c.6,.74,1.47,1.21,2.41,1.31,.36-.88,.36-1.86,0-2.74-.6-.74-1.46-1.21-2.41-1.31-.37,.88-.37,1.86,0,2.74Z"/>
        <path class="cls-33" d="M41.55,180.05c.6,.75,1.49,1.22,2.45,1.31,.36-.88,.36-1.86,0-2.74-.6-.74-1.46-1.21-2.41-1.31-.38,.87-.4,1.86-.04,2.74Z"/>
        <path class="cls-11" d="M49.45,174.06c.91,.27,1.89,.16,2.72-.3-.19-.93-.74-1.75-1.54-2.26-.91-.27-1.89-.17-2.72,.29,.19,.93,.74,1.75,1.54,2.27Z"/>
        <path class="cls-11" d="M53.34,183.45c.91,.27,1.9,.16,2.73-.3-.19-.93-.75-1.75-1.54-2.27-.91-.27-1.9-.16-2.73,.3,.19,.93,.75,1.75,1.54,2.27Z"/>
        <path class="cls-21" d="M218.5,186.1c12.49,.89,24.89-8.6,27.28-20.89,.44-2.26,0-5.36-2.24-5.77-.55-.02-1.09-.09-1.63-.2-1.48-.55-1.33-2.7-.73-4.16s1.33-3.29,.27-4.45c-.76-.84-2.14-.9-2.83-1.79-1.14-1.5,.64-3.57,.48-5.45-.18-2.31-3.1-3.44-3.81-5.63-.45-1.38,.06-2.89-.21-4.31-.31-1.6-1.55-2.83-2.46-4.17-1.79-2.63-2.42-5.88-3.92-8.68s-4.53-5.31-7.6-4.5c-2.66,.7-4.11,3.48-5.25,6l-12.85,28.27c-1.04,2.07-1.83,4.27-2.35,6.53-1,5.39,1.16,11,4.55,15.27s7.92,7.54,12.38,10.71"/>
        <path class="cls-17" d="M221.12,187.18c-.58,0-1.05-.47-1.05-1.05s.47-1.05,1.05-1.05h0c9.08-.13,15.67-6.54,15.73-6.6,.41-.41,1.08-.41,1.49,0s.41,1.08,0,1.49c-.3,.29-7.24,7.08-17.19,7.21h-.03Z"/>
        <path class="cls-28" d="M246.09,166.3c.47-2.66,.08-6.62-3.25-7.09-1.05-.15-1.75-.09-1.74-1.35,.1-.89,.35-1.76,.74-2.56,.58-1.57,.84-3.43-.47-4.71-.61-.48-1.28-.86-2-1.14-1.08-.58-.77-1.45-.46-2.43,.49-1.56,.85-3.07,0-4.58-.75-1.35-2.13-2.18-3-3.46-.48-.92-.64-1.98-.47-3,.08-1.04-.07-2.09-.45-3.07-.82-1.94-2.42-3.43-3.32-5.35-1-2.19-1.69-4.54-2.81-6.69-.63-1.21-2.45-.14-1.82,1.06,.94,1.81,1.55,3.75,2.34,5.63,.8,1.73,1.78,3.37,2.93,4.88,.59,.77,.93,1.7,1,2.67-.07,1.03-.07,2.06,0,3.09,.39,1.48,1.23,2.79,2.41,3.76,.54,.47,.99,1.03,1.33,1.65,.25,.82,.19,1.71-.18,2.49-.45,1.42-.89,3,.19,4.28,.54,.54,1.19,.96,1.91,1.22,1.13,.54,1.3,1.21,1,2.39-.44,1.56-1.24,2.91-1,4.59,.07,.73,.4,1.41,.93,1.92,.72,.5,1.58,.76,2.45,.74,1.94,.31,1.89,3,1.63,4.48-.23,1.33,1.8,1.9,2,.56l.11,.02Z"/>
        <rect class="cls-31" x="65.11" y="205.15" width="101.47" height="5.89"/>
        <rect class="cls-19" x="122.08" y="135.41" width="99.88" height="69.74"/>
        <rect class="cls-38" x="122.08" y="201.01" width="99.88" height="4.14"/>
        <polygon class="cls-43" points="203.26 93.31 185.5 114.36 173.34 135.41 197.65 135.41 227.57 135.41 215.42 114.36 203.26 93.31"/>
        <polyline class="cls-43" points="203.26 93.31 97.77 93.31 97.77 135.41 186.39 135.41"/>
        <rect class="cls-36" x="69.25" y="135.41" width="52.83" height="69.74"/>
        <rect class="cls-36" x="122.08" y="135.42" width="99.88" height="4.01"/>
        <rect class="cls-14" x="193" y="173.18" width="18.49" height="20.35"/>
        <rect class="cls-14" x="162.78" y="173.18" width="18.49" height="20.35"/>
        <rect class="cls-14" x="132.56" y="173.18" width="18.49" height="20.35"/>
        <rect class="cls-14" x="162.78" y="147.02" width="18.49" height="20.35"/>
        <rect class="cls-14" x="193" y="147.02" width="18.49" height="20.35"/>
        <rect class="cls-4" x="197.92" y="150.27" width="8.65" height="6.93"/>
        <rect class="cls-5" x="197.92" y="157.21" width="8.65" height="6.93"/>
        <rect class="cls-4" x="197.92" y="176.43" width="8.65" height="6.93"/>
        <rect class="cls-5" x="197.92" y="183.37" width="8.65" height="6.93"/>
        <rect class="cls-4" x="167.7" y="176.43" width="8.65" height="6.93"/>
        <rect class="cls-5" x="167.7" y="183.37" width="8.65" height="6.93"/>
        <rect class="cls-4" x="137.48" y="176.43" width="8.65" height="6.93"/>
        <rect class="cls-5" x="137.48" y="183.37" width="8.65" height="6.93"/>
        <rect class="cls-4" x="167.7" y="150.27" width="8.65" height="6.93"/>
        <rect class="cls-5" x="167.7" y="157.21" width="8.65" height="6.93"/>
        <rect class="cls-14" x="132.56" y="147.02" width="18.49" height="20.35"/>
        <rect class="cls-4" x="137.48" y="150.27" width="8.65" height="6.93"/>
        <rect class="cls-5" x="137.48" y="157.21" width="8.65" height="6.93"/>
        <polygon class="cls-36" points="94.17 93.31 80.21 114.71 69.77 136.11 94.17 136.11 122.08 136.11 108.12 114.71 94.17 93.31"/>
        <polygon class="cls-39" points="97.77 93.31 122.08 135.41 116.65 135.41 92.98 93.31 97.77 93.31"/>
        <polygon class="cls-39" points="92.98 93.31 66.57 135.41 72 135.41 97.77 93.31 92.98 93.31"/>
        <rect class="cls-1" x="130.77" y="205.15" width="94.18" height="3.26"/>
        <polyline class="cls-39" points="199.27 101.42 174.12 101.42 190.02 124.57 195.5 124.57"/>
        <polygon class="cls-14" points="190.02 124.57 208.51 124.57 208.51 112.64 199.27 101.42 190.02 112.64 190.02 124.57"/>
        <path class="cls-4" d="M203.59,115.6h-8.65v-2.61c0-2.39,1.94-4.33,4.33-4.33h0c2.39,0,4.33,1.94,4.33,4.33h0v2.61h-.01Z"/>
        <rect class="cls-5" x="194.94" y="115.6" width="8.65" height="6.93"/>
        <polyline class="cls-39" points="169.64 101.42 145.2 101.42 160.4 124.57 165.88 124.57"/>
        <polygon class="cls-14" points="160.4 124.57 178.89 124.57 178.89 112.64 169.64 101.42 160.4 112.64 160.4 124.57"/>
        <path class="cls-4" d="M173.97,115.6h-8.68v-2.61c0-2.39,1.94-4.33,4.33-4.33h0c2.39,0,4.33,1.94,4.33,4.33h0v2.61h.02Z"/>
        <rect class="cls-5" x="165.32" y="115.6" width="8.65" height="6.93"/>
        <polyline class="cls-39" points="140.02 101.42 116.28 101.42 130.78 124.57 136.26 124.57"/>
        <polygon class="cls-14" points="130.78 124.57 149.27 124.57 149.27 112.64 140.02 101.42 130.78 112.64 130.78 124.57"/>
        <path class="cls-4" d="M144.34,115.6h-8.65v-2.61c0-2.39,1.94-4.33,4.33-4.33,0,0,.01,0,.02,0h0c2.39,0,4.33,1.94,4.33,4.33h0v2.61h-.03Z"/>
        <rect class="cls-5" x="135.69" y="115.6" width="8.65" height="6.93"/>
        <polygon class="cls-41" points="225.31 163.83 227.29 205.15 224.96 205.15 223.87 205.15 223.87 163.83 225.31 163.83"/>
        <polygon class="cls-41" points="230.46 167.01 225.59 172.46 225.66 175.43 230.46 168.99 230.46 167.01"/>
        <polygon class="cls-41" points="233.27 175.33 225.59 181.48 225.66 184.46 233.27 176.61 233.27 175.33"/>
        <circle class="cls-28" cx="227.71" cy="151.26" r="1.72"/>
        <circle class="cls-28" cx="236.71" cy="154.89" r=".46"/>
        <circle class="cls-28" cx="241.59" cy="164.73" r=".6"/>
        <circle class="cls-28" cx="239.67" cy="171.22" r=".94"/>
        <circle class="cls-28" cx="232.28" cy="159.45" r=".99"/>
        <circle class="cls-28" cx="231.37" cy="138.33" r=".91"/>
        <circle class="cls-13" cx="354.28" cy="60" r="60"/>
        <circle class="cls-35" cx="330.57" cy="24.37" r="1.68"/>
        <circle class="cls-35" cx="349.79" cy="49.65" r="2.84"/>
        <circle class="cls-35" cx="400.09" cy="37.62" r="3.06"/>
        <circle class="cls-35" cx="369.69" cy="78.68" r="6.21"/>
        <path class="cls-34" d="M375.91,78.76c.02,3.44-2.75,6.23-6.19,6.25-3.44,.02-6.23-2.75-6.25-6.19,0-.55,.07-1.1,.21-1.63,.91,3.31,4.33,5.27,7.64,4.36,2.12-.58,3.78-2.24,4.36-4.36,.14,.51,.22,1.04,.23,1.57Z"/>
        <circle class="cls-35" cx="368.64" cy="24.75" r="5.16"/>
        <circle class="cls-14" cx="308.82" cy="43.2" r="1.55"/>
        <circle class="cls-14" cx="318.8" cy="27.62" r="3.79"/>
        <circle class="cls-14" cx="328.18" cy="11.11" r="1.81"/>
        <circle class="cls-14" cx="337.94" cy="16.4" r="2.45"/>
        <circle class="cls-14" cx="317.34" cy="45.01" r="1.81"/>
        <circle class="cls-35" cx="335.43" cy="91.13" r="2.25"/>
        <circle class="cls-35" cx="320.86" cy="58.25" r="2.37"/>
        <path class="cls-33" d="M329.85,187.51l24.63-7.15c13.23-3.85,27.51,.01,37,10l26.19,27.5h-76.76l-11.06-30.35Z"/>
        <path class="cls-29" d="M394.9,143.89c-1.26,9.64-4.21,14.32-6.38,16.54v-.64c0-2.28-1.85-4.12-4.13-4.13-.07,0-.13-.06-.13-.13h0v-11.38h-4v11.38c0,2.28,1.85,4.12,4.13,4.13,.07,0,.13,.06,.13,.13h0v13.06c0,.07-.06,.13-.13,.13h-4.27c-2.28,0-4.12,1.85-4.13,4.13v11.18h4v-11.18c0-.07,.06-.13,.13-.13h4.27c2.28,0,4.12-1.85,4.13-4.13v-7.37c1.48-.86,2.78-1.98,3.84-3.32,3.3-4,5.49-10,6.51-17.75l-3.97-.52Z"/>
        <path class="cls-44" d="M410,119.81c2.13,0,3.85-1.72,3.85-3.85h0v-7.59c0-2.13-1.72-3.85-3.85-3.85h-20.51c-4.65,0-9.05,2.12-11.95,5.76-3.14,4.1-7.99,6.54-13.16,6.62h-.58c-1.55,0-2.8,1.25-2.8,2.8v22.91c0,1.55,1.25,2.8,2.8,2.8h41.25c1.55,0,2.8-1.25,2.8-2.8v-.21c0-1.61,1.3-2.91,2.91-2.91,0,0,0,0,.01,0h0c1.66,0,3-1.34,3-3v-11.59c0-1.66-1.34-3-3-3h-1.86c-.58,0-1.05-.48-1.06-1.06h0c0-.58,.48-1.05,1.06-1.06l1.09,.03Z"/>
        <path class="cls-33" d="M399.81,119.81c2.13,0,3.85-1.72,3.85-3.85h0v-7.59c0-2.12-1.73-3.84-3.85-3.85h-20.52c-4.67-.02-9.09,2.1-12,5.76-3.14,4.1-7.98,6.54-13.15,6.62h-.59c-1.55,0-2.8,1.25-2.8,2.8v22.91c0,1.55,1.25,2.8,2.8,2.8h41.26c1.55,0,2.8-1.25,2.8-2.8v-.21c0-1.61,1.3-2.91,2.91-2.91h0c1.66,0,3-1.34,3-3v-11.59c0-1.66-1.34-3-3-3h-1.86c-.56-.03-1-.5-1-1.06h0c0-.56,.44-1.03,1-1.06l1.15,.03Z"/>
        <path class="cls-33" d="M157.22,183.54c-17.8,1.28-35.47-12.26-38.87-29.77-.63-3.23,0-7.63,3.18-8.22,.78-.03,1.56-.13,2.33-.29,2.11-.78,1.9-3.85,1-5.93s-1.9-4.68-.38-6.35c1.08-1.18,3-1.27,4-2.54,1.64-2.14-.9-5.09-.68-7.77,.27-3.28,4.42-4.9,5.44-8,.63-2-.09-4.12,.3-6.14,.44-2.27,2.19-4,3.5-5.94,2.55-3.75,3.45-8.37,5.59-12.37s6.45-7.56,10.83-6.41c3.79,1,5.86,5,7.47,8.52l18.3,40.32c1.49,2.96,2.62,6.08,3.36,9.31,1.43,7.67-1.65,15.64-6.49,21.76s-11.23,10.71-17.59,15.28"/>
        <rect class="cls-47" x="148.56" y="156.57" width="4" height="14.13"/>
        <path class="cls-11" d="M153.48,185.08h0c-14.18-.19-24.08-9.87-24.49-10.28-.57-.6-.54-1.55,.06-2.12,.57-.54,1.47-.54,2.05,0,.09,.1,9.48,9.24,22.42,9.41,.83,.02,1.49,.7,1.48,1.53-.01,.82-.69,1.48-1.51,1.47,0,0,0,0-.01,0Z"/>
        <polygon class="cls-30" points="155.23 176.51 149.28 184.26 149.38 188.51 155.23 179.33 155.23 176.51"/>
        <polygon class="cls-30" points="155.23 163.38 149.28 171.14 149.38 175.38 155.23 166.2 155.23 163.38"/>
        <rect class="cls-47" x="148.56" y="114.16" width="4" height="33.13"/>
        <path class="cls-11" d="M119.79,154.53c-.31-1.74-.41-4.33,.9-5.73,.76-.8,1.81-.61,2.81-.77,1.19-.15,2.25-.84,2.86-1.87,1.1-1.87,.67-4.32-.08-6.23-.52-1.09-.86-2.26-1-3.46,0-1.31,.87-1.72,1.93-2.2,2.34-1.05,3.75-2.76,3.31-5.44-.36-2.16-1.92-4.37-.52-6.44,1.18-1.73,3-2.9,4.11-4.72,.63-1.09,.97-2.32,1-3.58,.06-1.59-.35-3.22,.17-4.76,.61-1.42,1.45-2.74,2.47-3.9,.9-1.22,1.68-2.53,2.33-3.9,1.44-3.09,2.36-6.39,3.94-9.42,.9-1.7-1.69-3.22-2.59-1.51-1.45,2.78-2.36,5.77-3.59,8.64-.55,1.3-1.22,2.55-2,3.73-.8,1.18-1.75,2.26-2.49,3.48-.71,1.1-1.17,2.35-1.35,3.65-.17,1.62,.28,3.29-.06,4.89-.47,2.17-2.81,3.58-4.12,5.25-1.49,1.91-1.87,4.46-1,6.72,.28,.94,1,2.2,.72,3.21s-1.66,1.35-2.51,1.78c-2.52,1.25-3.2,3.72-2.55,6.33,.41,1.62,2.42,4.68,1.25,6.37-.35,.5-.89,.44-1.45,.48-.68,.03-1.36,.16-2,.39-1.12,.46-2.05,1.29-2.63,2.35-1.1,2.33-1.38,4.96-.79,7.46,.34,1.9,3.24,1.09,2.89-.8h.04Z"/>
        <rect class="cls-31" x="231.22" y="210.69" width="144.62" height="7.15"/>
        <rect class="cls-19" x="152.29" y="111.3" width="142.35" height="99.39"/>
        <polygon class="cls-43" points="178.94 51.3 204.26 81.3 221.58 111.3 186.94 111.3 141.29 111.3 159.61 81.3 178.94 51.3"/>
        <polyline class="cls-43" points="178.94 51.3 329.28 51.3 329.28 111.3 202.99 111.3"/>
        <polygon class="cls-36" points="369.57 210.69 294.29 210.69 294.48 111.3 369.57 111.02 369.57 210.69"/>
        <rect class="cls-36" x="152.29" y="111.3" width="142.35" height="5.72"/>
        <rect class="cls-14" x="210.29" y="127.86" width="26.35" height="29"/>
        <rect class="cls-5" x="212.04" y="129.78" width="22.85" height="25.15"/>
        <polygon class="cls-42" points="223.89 154.93 222.04 154.93 227.04 129.78 228.89 129.78 223.89 154.93"/>
        <polygon class="cls-42" points="219.89 154.93 216.03 154.93 221.03 129.78 224.89 129.78 219.89 154.93"/>
        <rect class="cls-14" x="306.9" y="165.14" width="20.95" height="29"/>
        <polygon class="cls-36" points="334.41 51.3 354.3 81.8 369.19 112.3 334.41 112.3 294.64 112.3 314.53 81.8 334.41 51.3"/>
        <rect class="cls-1" x="14.1" y="210.69" width="268.14" height="7.15"/>
        <polyline class="cls-39" points="184.63 62.85 220.47 62.85 197.81 95.85 190 95.85"/>
        <polygon class="cls-19" points="197.81 95.85 171.46 95.85 171.46 78.85 184.63 62.85 197.81 78.85 197.81 95.85"/>
        <path class="cls-5" d="M190.8,79.35v13.65h-12.33v-13.65c.14-3.4,3.01-6.05,6.41-5.92,3.21,.13,5.79,2.7,5.92,5.92Z"/>
        <polyline class="cls-39" points="226.85 62.85 261.68 62.85 240.03 95.85 232.22 95.85"/>
        <polygon class="cls-19" points="240.03 95.85 213.67 95.85 213.67 78.85 226.85 62.85 240.03 78.85 240.03 95.85"/>
        <path class="cls-5" d="M233,79.35v13.65h-12.31v-13.65c0-3.4,2.76-6.16,6.16-6.16s6.16,2.76,6.16,6.16h-.01Z"/>
        <polyline class="cls-39" points="269.06 62.85 302.9 62.85 282.24 95.85 274.43 95.85"/>
        <polygon class="cls-19" points="282.24 95.85 255.89 95.85 255.89 78.85 269.06 62.85 282.24 78.85 282.24 95.85"/>
        <path class="cls-5" d="M275.23,79.35v13.65h-12.33v-13.65c-.14-3.4,2.51-6.28,5.92-6.41,3.4-.14,6.28,2.51,6.41,5.92,0,.17,0,.33,0,.5h0Z"/>
        <polygon class="cls-30" points="147.52 151.8 144.69 210.69 148.02 210.69 149.56 210.69 149.56 151.8 147.52 151.8"/>
        <polygon class="cls-30" points="141.18 156.34 147.13 164.1 147.02 168.34 141.18 159.16 141.18 156.34"/>
        <polygon class="cls-30" points="136.18 168.2 147.13 176.96 147.02 181.2 136.18 170.02 136.18 168.2"/>
        <circle class="cls-11" cx="144.1" cy="133.89" r="2.45"/>
        <circle class="cls-11" cx="131.27" cy="139.07" r=".66"/>
        <circle class="cls-11" cx="124.31" cy="153.09" r=".85"/>
        <circle class="cls-11" cx="127.06" cy="162.34" r="1.34"/>
        <circle class="cls-11" cx="137.59" cy="145.56" r="1.41"/>
        <circle class="cls-11" cx="138.88" cy="115.46" r="1.29"/>
        <circle class="cls-11" cx="397.73" cy="136.7" r="1.91"/>
        <circle class="cls-11" cx="388.68" cy="130.76" r=".52"/>
        <circle class="cls-11" cx="376.57" cy="132.52" r=".66"/>
        <circle class="cls-11" cx="371.84" cy="138.41" r="1.05"/>
        <circle class="cls-11" cx="387.32" cy="137.71" r="1.1"/>
        <circle class="cls-11" cx="407.26" cy="125.14" r="1.01"/>
        <rect class="cls-39" x="152.25" y="102.95" width="12.8" height="3.54" rx="1.77" ry="1.77"/>
        <path class="cls-39" d="M196,55.96h9.26c.98,0,1.77,.79,1.77,1.77h0c0,.98-.79,1.77-1.77,1.77h-9.26c-.98,0-1.77-.79-1.77-1.77h0c0-.98,.79-1.77,1.77-1.77Z"/>
        <rect class="cls-39" x="264.61" y="104.06" width="12.8" height="3.54" rx="1.77" ry="1.77"/>
        <path class="cls-39" d="M248.48,53.96h9.26c.98,0,1.77,.79,1.77,1.77h0c0,.98-.79,1.77-1.77,1.77h-9.26c-.98,0-1.77-.79-1.77-1.77h0c0-.98,.79-1.77,1.77-1.77Z"/>
        <path class="cls-39" d="M307.42,55.73h9.26c.98,0,1.77,.79,1.77,1.77h0c0,.98-.79,1.77-1.77,1.77h-9.26c-.98,0-1.77-.79-1.77-1.77h0c0-.98,.79-1.77,1.77-1.77Z"/>
        <rect class="cls-39" x="197.81" y="104.06" width="12.8" height="3.54" rx="1.77" ry="1.77"/>
        <rect class="cls-36" x="159.74" y="119.2" width="10.64" height="2.62" rx="1.31" ry="1.31"/>
        <rect class="cls-36" x="170.84" y="123.06" width="10.64" height="2.62" rx="1.31" ry="1.31"/>
        <rect class="cls-36" x="265.69" y="121.84" width="10.64" height="2.62" rx="1.31" ry="1.31"/>
        <rect class="cls-25" x="312.05" y="118.77" width="10.64" height="2.62" rx="1.31" ry="1.31"/>
        <rect class="cls-25" x="336.3" y="109.31" width="10.64" height="2.62" rx="1.31" ry="1.31"/>
        <path class="cls-25" d="M344.84,202.38h8.02c.72,0,1.31,.59,1.31,1.31h0c0,.72-.59,1.31-1.31,1.31h-8.02c-.72,0-1.31-.59-1.31-1.31h0c0-.72,.59-1.31,1.31-1.31Z"/>
        <path class="cls-25" d="M302.88,196.18h8.02c.72,0,1.31,.59,1.31,1.31h0c0,.72-.59,1.31-1.31,1.31h-8.02c-.72,0-1.31-.59-1.31-1.31h0c0-.72,.59-1.31,1.31-1.31Z"/>
        <path class="cls-25" d="M315.07,202.41h8.02c.72,0,1.31,.59,1.31,1.31h0c0,.72-.59,1.31-1.31,1.31h-8.02c-.72,0-1.31-.59-1.31-1.31h0c0-.72,.59-1.31,1.31-1.31Z"/>
        <rect class="cls-25" x="352.54" y="117.89" width="10.64" height="2.62" rx="1.31" ry="1.31"/>
        <rect class="cls-36" x="208.35" y="121.13" width="10.64" height="2.62" rx="1.31" ry="1.31"/>
        <path class="cls-36" d="M219.45,201.11h8.02c.72,0,1.31,.59,1.31,1.31h0c0,.72-.59,1.31-1.31,1.31h-8.02c-.72,0-1.31-.59-1.31-1.31h0c0-.72,.59-1.31,1.31-1.31Z"/>
        <path class="cls-32" d="M153.66,212.08h8.02c.72,0,1.31,.59,1.31,1.31h0c0,.72-.59,1.31-1.31,1.31h-8.02c-.72,0-1.31-.59-1.31-1.31h0c0-.72,.59-1.31,1.31-1.31Z"/>
        <rect class="cls-32" x="184.42" y="214.08" width="9.33" height="2.3" rx="1.15" ry="1.15"/>
        <rect class="cls-32" x="220.22" y="212.94" width="9.33" height="2.3" rx="1.15" ry="1.15"/>
        <rect class="cls-32" x="243.86" y="212.25" width="9.33" height="2.3" rx="1.15" ry="1.15"/>
        <rect class="cls-32" x="269.88" y="214.08" width="9.33" height="2.3" rx="1.15" ry="1.15"/>
        <path class="cls-36" d="M261.68,202.38h8.02c.72,0,1.31,.59,1.31,1.31h0c0,.72-.59,1.31-1.31,1.31h-8.02c-.72,0-1.31-.59-1.31-1.31h0c0-.72,.59-1.31,1.31-1.31Z"/>
        <rect class="cls-36" x="154.42" y="168.45" width="7.59" height="1.87" rx=".93" ry=".93"/>
        <rect class="cls-36" x="157.67" y="170.31" width="7.59" height="1.87" rx=".93" ry=".93"/>
        <rect class="cls-36" x="154.42" y="172.18" width="7.59" height="1.87" rx=".93" ry=".93"/>
        <rect class="cls-36" x="169.29" y="201.85" width="7.59" height="1.87" rx=".93" ry=".93"/>
        <rect class="cls-36" x="166.04" y="203.72" width="7.59" height="1.87" rx=".93" ry=".93"/>
        <rect class="cls-36" x="169.29" y="205.59" width="7.59" height="1.87" rx=".93" ry=".93"/>
        <rect class="cls-36" x="198.31" y="174.05" width="7.59" height="1.87" rx=".93" ry=".93"/>
        <rect class="cls-36" x="195.06" y="175.91" width="7.59" height="1.87" rx=".93" ry=".93"/>
        <rect class="cls-36" x="198.31" y="177.78" width="7.59" height="1.87" rx=".93" ry=".93"/>
        <g class="cls-48">
          <rect class="cls-36" x="242.58" y="138.26" width="7.59" height="1.87" rx=".93" ry=".93"/>
          <rect class="cls-36" x="239.34" y="140.13" width="7.59" height="1.87" rx=".93" ry=".93"/>
          <rect class="cls-36" x="242.58" y="142.01" width="7.59" height="1.87" rx=".93" ry=".93"/>
        </g>
        <g class="cls-48">
          <rect class="cls-36" x="283.81" y="162.33" width="7.59" height="1.87" rx=".93" ry=".93"/>
          <rect class="cls-36" x="280.56" y="164.21" width="7.59" height="1.87" rx=".93" ry=".93"/>
          <rect class="cls-36" x="283.81" y="166.07" width="7.59" height="1.87" rx=".93" ry=".93"/>
        </g>
        <path class="cls-36" d="M240.25,179.89h8.02c.72,0,1.31,.59,1.31,1.31h0c0,.72-.59,1.31-1.31,1.31h-8.02c-.72,0-1.31-.59-1.31-1.31h0c0-.72,.59-1.31,1.31-1.31Z"/>
        <rect class="cls-14" x="213.15" y="132.47" width="2.05" height="9.88" rx="1.02" ry="1.02"/>
        <rect class="cls-37" x="206.35" y="158.46" width="32.18" height="2.91"/>
        <rect class="cls-43" x="206.35" y="156.86" width="32.18" height="1.6"/>
        <rect class="cls-14" x="167.22" y="127.86" width="26.35" height="29"/>
        <rect class="cls-37" x="162.88" y="158.46" width="32.18" height="2.91"/>
        <rect class="cls-43" x="162.88" y="156.86" width="32.18" height="1.6"/>
        <rect class="cls-40" x="166.91" y="97.45" width="32.18" height="2.91"/>
        <rect class="cls-39" x="166.91" y="95.85" width="32.18" height="1.6"/>
        <rect class="cls-40" x="209.2" y="97.45" width="32.18" height="2.91"/>
        <rect class="cls-39" x="209.2" y="95.85" width="32.18" height="1.6"/>
        <rect class="cls-40" x="251.92" y="97.45" width="32.18" height="2.91"/>
        <rect class="cls-39" x="251.92" y="95.85" width="32.18" height="1.6"/>
        <rect class="cls-5" x="168.97" y="129.78" width="22.85" height="25.15"/>
        <polygon class="cls-42" points="180.82 154.93 178.97 154.93 183.97 129.78 185.82 129.78 180.82 154.93"/>
        <polygon class="cls-42" points="176.82 154.93 172.97 154.93 177.97 129.78 181.82 129.78 176.82 154.93"/>
        <rect class="cls-14" x="252.86" y="127.86" width="26.35" height="29"/>
        <rect class="cls-37" x="248.53" y="158.46" width="32.18" height="2.91"/>
        <rect class="cls-43" x="248.53" y="156.86" width="32.18" height="1.6"/>
        <rect class="cls-5" x="254.61" y="129.78" width="22.85" height="25.15"/>
        <rect class="cls-14" x="306.9" y="127.86" width="20.95" height="29"/>
        <rect class="cls-8" x="309.06" y="129.78" width="16.85" height="25.15"/>
        <polygon class="cls-9" points="314.23 154.93 309.86 154.93 315.19 129.78 319.7 129.78 314.23 154.93"/>
        <polygon class="cls-9" points="317.45 154.93 316.07 154.93 321.4 129.78 322.92 129.78 317.45 154.93"/>
        <rect class="cls-14" x="79.04" y="144.51" width="12.47" height="17.26"/>
        <rect class="cls-8" x="80.33" y="145.66" width="10.03" height="14.97"/>
        <polygon class="cls-9" points="83.41 160.63 80.8 160.63 83.97 145.66 86.66 145.66 83.41 160.63"/>
        <polygon class="cls-9" points="85.32 160.63 84.5 160.63 87.67 145.66 88.58 145.66 85.32 160.63"/>
        <rect class="cls-14" x="96.92" y="144.51" width="12.47" height="17.26"/>
        <rect class="cls-8" x="98.21" y="145.66" width="10.03" height="14.97"/>
        <polygon class="cls-9" points="101.29 160.63 98.68 160.63 101.85 145.66 104.54 145.66 101.29 160.63"/>
        <polygon class="cls-9" points="103.2 160.63 102.38 160.63 105.55 145.66 106.46 145.66 103.2 160.63"/>
        <rect class="cls-14" x="79.04" y="166.32" width="12.47" height="17.26"/>
        <rect class="cls-8" x="80.33" y="167.47" width="10.03" height="14.97"/>
        <polygon class="cls-9" points="83.41 182.44 80.8 182.44 83.97 167.47 86.66 167.47 83.41 182.44"/>
        <polygon class="cls-9" points="85.32 182.44 84.5 182.44 87.67 167.47 88.58 167.47 85.32 182.44"/>
        <rect class="cls-14" x="96.92" y="166.32" width="12.47" height="17.26"/>
        <rect class="cls-8" x="98.21" y="167.47" width="10.03" height="14.97"/>
        <polygon class="cls-9" points="101.29 182.44 98.68 182.44 101.85 167.47 104.54 167.47 101.29 182.44"/>
        <polygon class="cls-9" points="103.2 182.44 102.38 182.44 105.55 167.47 106.46 167.47 103.2 182.44"/>
        <rect class="cls-14" x="337.96" y="127.86" width="20.95" height="29"/>
        <rect class="cls-8" x="340.01" y="129.78" width="16.85" height="25.15"/>
        <rect class="cls-14" x="329.28" y="90.1" width="8.45" height="13.09"/>
        <rect class="cls-8" x="330.11" y="90.97" width="6.8" height="11.36"/>
        <polygon class="cls-9" points="333.91 102.33 332.11 102.33 334.11 90.97 335.91 90.97 333.91 102.33"/>
        <rect class="cls-14" x="337.96" y="165.14" width="20.95" height="29"/>
        <rect class="cls-8" x="340.01" y="167.04" width="16.85" height="25.15"/>
        <rect class="cls-8" x="309.06" y="167.31" width="16.85" height="25.15"/>
        <polygon class="cls-42" points="266.47 154.93 264.61 154.93 269.61 129.78 271.47 129.78 266.47 154.93"/>
        <polygon class="cls-42" points="262.46 154.93 258.61 154.93 263.61 129.78 267.46 129.78 262.46 154.93"/>
        <rect class="cls-14" x="252.86" y="165.12" width="26.35" height="29"/>
        <rect class="cls-37" x="248.53" y="195.72" width="32.18" height="2.91"/>
        <rect class="cls-43" x="248.53" y="194.12" width="32.18" height="1.6"/>
        <rect class="cls-5" x="254.61" y="167.04" width="22.85" height="25.15"/>
        <polygon class="cls-42" points="266.47 192.19 264.61 192.19 269.61 167.04 271.47 167.04 266.47 192.19"/>
        <polygon class="cls-42" points="262.46 192.19 258.61 192.19 263.61 167.04 267.46 167.04 262.46 192.19"/>
        <rect class="cls-14" x="167.22" y="165.12" width="26.35" height="29"/>
        <rect class="cls-37" x="162.88" y="195.72" width="32.18" height="2.91"/>
        <rect class="cls-43" x="162.88" y="194.12" width="32.18" height="1.6"/>
        <rect class="cls-5" x="168.97" y="167.04" width="22.85" height="25.15"/>
        <polygon class="cls-42" points="180.82 192.19 178.97 192.19 183.97 167.04 185.82 167.04 180.82 192.19"/>
        <polygon class="cls-42" points="176.82 192.19 172.97 192.19 177.97 167.04 181.82 167.04 176.82 192.19"/>
        <rect class="cls-14" x="210.69" y="165.12" width="26.35" height="29"/>
        <rect class="cls-37" x="206.35" y="195.72" width="32.18" height="2.91"/>
        <rect class="cls-43" x="206.35" y="194.12" width="32.18" height="1.6"/>
        <rect class="cls-5" x="212.44" y="167.04" width="22.85" height="25.15"/>
        <polygon class="cls-42" points="224.29 192.19 222.44 192.19 227.44 167.04 229.29 167.04 224.29 192.19"/>
        <polygon class="cls-42" points="220.29 192.19 216.43 192.19 221.43 167.04 225.29 167.04 220.29 192.19"/>
        <rect class="cls-6" x="184.38" y="74.41" width=".5" height="17.6"/>
        <rect class="cls-6" x="179.47" y="79.1" width="10.44" height=".5"/>
        <rect class="cls-6" x="179.47" y="84.34" width="10.44" height=".5"/>
        <rect class="cls-6" x="179.47" y="89.59" width="10.44" height=".5"/>
        <rect class="cls-6" x="226.55" y="74.41" width=".5" height="17.6"/>
        <rect class="cls-6" x="221.63" y="79.1" width="10.44" height=".5"/>
        <rect class="cls-6" x="221.63" y="84.34" width="10.44" height=".5"/>
        <rect class="cls-6" x="221.63" y="89.59" width="10.44" height=".5"/>
        <rect class="cls-6" x="268.76" y="74.41" width=".5" height="17.6"/>
        <rect class="cls-6" x="263.85" y="79.1" width="10.44" height=".5"/>
        <rect class="cls-6" x="263.85" y="84.34" width="10.44" height=".5"/>
        <rect class="cls-6" x="263.85" y="89.59" width="10.44" height=".5"/>
        <path class="cls-7" d="M190.8,79.35v13.65h-12.33l10.23-18.27c.11,.08,.21,.17,.3,.27,1.16,1.15,1.8,2.72,1.8,4.35Z"/>
        <path class="cls-7" d="M233,79.35v13.65h-12.32l10.23-18.17c.1,.08,.2,.17,.29,.26,1.13,1.13,1.78,2.66,1.8,4.26Z"/>
        <path class="cls-7" d="M275.23,79.35v13.65h-12.33l10.23-18.17c.1,.08,.2,.17,.29,.26,1.14,1.13,1.79,2.66,1.81,4.26Z"/>
        <polygon class="cls-25" points="363.05 113.17 332.99 65.5 305.4 113.06 299.35 109.55 332.75 51.98 368.97 109.44 363.05 113.17"/>
        <polygon class="cls-39" points="329.28 51.3 294.64 111.3 302.38 111.3 336.11 51.3 329.28 51.3"/>
        <polygon class="cls-39" points="336.11 51.3 373.75 111.3 366.01 111.3 329.28 51.3 336.11 51.3"/>
        <rect class="cls-31" x="292.78" y="117.02" width="4.24" height="87.64"/>
        <path class="cls-23" d="M305.39,208.68h-5.57c-3.27,0-5.92-2.66-5.93-5.93v-4.12h2v4.12c0,2.17,1.76,3.92,3.93,3.93h5.57v2Z"/>
        <path class="cls-3" d="M293.64,187.89c-.41,0-.75-.34-.75-.75v-5.94c0-.41,.34-.75,.75-.75s.75,.34,.75,.75v5.94c0,.41-.34,.74-.75,.75Z"/>
        <path class="cls-24" d="M296.07,196.14c-.55,0-1-.45-1-1v-4.95c0-.55,.45-1,1-1s1,.45,1,1v4.95c0,.55-.45,1-1,1Z"/>
        <path class="cls-3" d="M296.3,155.68c-.41,0-.74-.34-.75-.75v-5.93c0-.41,.34-.75,.75-.75s.75,.34,.75,.75v5.94c0,.41-.34,.74-.75,.74Z"/>
        <path class="cls-2" d="M293.64,131.15c-.41,0-.75-.34-.75-.75v-6c0-.41,.34-.75,.75-.75s.75,.34,.75,.75v6c0,.41-.34,.74-.75,.75Z"/>
        <path class="cls-2" d="M293.64,166.06c-.41,0-.75-.34-.75-.75v-5.95c0-.41,.34-.75,.75-.75s.75,.34,.75,.75v5.95c0,.41-.34,.74-.75,.75Z"/>
        <polygon class="cls-10" points="146.43 200.67 146.18 200.66 146.45 194.11 146.7 194.12 146.43 200.67"/>
        <polygon class="cls-10" points="147.12 205.14 146.87 205.13 147.13 198.58 147.38 198.59 147.12 205.14"/>
        <polygon class="cls-10" points="146.85 188.51 146.6 188.5 146.87 181.95 147.12 181.96 146.85 188.51"/>
        <rect class="cls-10" x="148.89" y="201.86" width=".25" height="4.07"/>
        <rect class="cls-10" x="148.89" y="187.74" width=".25" height="4.07"/>
        <polygon class="cls-10" points="145.48 208.47 145.23 208.46 145.37 204.65 145.62 204.66 145.48 208.47"/>
        <path class="cls-11" d="M393.86,105.52h-14.57c-.55,0-1-.45-1-1s.45-1,1-1h14.57c.55,0,1,.45,1,1s-.45,1-1,1h0Z"/>
        <rect class="cls-10" x="387.3" y="165.2" width=".25" height="4.31"/>
        <rect class="cls-10" x="378.84" y="176.01" width=".25" height="4.31"/>
        <rect class="cls-10" x="386.12" y="158.84" width=".25" height="4.31"/>
        <rect class="cls-10" x="381.73" y="147.51" width=".25" height="4.31"/>
        <rect class="cls-10" x="385.69" y="164.22" width=".25" height="1.83"/>
        <rect class="cls-10" x="386.21" y="167.21" width=".25" height="4.31"/>
        <rect class="cls-10" x="382.44" y="149.99" width=".25" height="1.83"/>
        <rect class="cls-10" x="382.97" y="152.97" width=".25" height="4.31"/>
        <rect class="cls-10" x="376.84" y="178.48" width=".25" height="1.83"/>
        <rect class="cls-10" x="377.37" y="181.47" width=".25" height="4.31"/>
        <rect class="cls-10" x="380.26" y="145.41" width="4" height="2.1"/>
        <path class="cls-44" d="M381.86,206.74h0c.84,0,1.52,.68,1.52,1.52v9.59h-3v-9.59c0-.82,.66-1.5,1.48-1.52Z"/>
        <path class="cls-46" d="M372.78,199.48h0c.84,0,1.52,.68,1.52,1.52v9.59h-3v-9.59c0-.84,.68-1.52,1.52-1.52h-.04Z"/>
        <path class="cls-44" d="M386.73,199.77h0c1.36,0,2.47,1.11,2.47,2.47h0v15.6h-4.94v-15.6c0-1.36,1.11-2.47,2.47-2.47h0Z"/>
        <path class="cls-44" d="M392.9,206.74h0c.84,0,1.52,.68,1.52,1.52v9.59h-3v-9.59c0-.84,.68-1.52,1.52-1.52h-.04Z"/>
        <path class="cls-46" d="M389,208.26h0c.72,0,1.31,.59,1.31,1.31v8.28h-2.62v-8.28c0-.72,.59-1.31,1.31-1.31Z"/>
        <path class="cls-46" d="M380.34,208.26h0c.72,0,1.31,.59,1.31,1.31v8.28h-2.65v-8.28c0-.72,.59-1.31,1.31-1.31h.03Z"/>
        <path class="cls-44" d="M390.55,182.92h0c.68,.32,.98,1.14,.65,1.82l-3.68,7.79h0l-2.5-1.18h0l3.68-7.79c.32-.68,1.14-.98,1.82-.65h.02Z"/>
        <path class="cls-44" d="M391.98,187.86h0c.42,.2,.6,.7,.4,1.12l-2.26,4.79h0l-1.52-.72h0l2.26-4.79c.2-.42,.7-.6,1.12-.4Z"/>
        <path class="cls-46" d="M389.67,187.69h0c.36,.17,.51,.6,.34,.96h0l-1.95,4.13h0l-1.3-.61h0l1.95-4.13c.17-.36,.6-.51,.96-.34h0Z"/>
        <path class="cls-46" d="M385.35,185.65h0c.36,.17,.51,.6,.34,.96h0l-1.95,4.13h0l-1.31-.62h0l1.95-4.13c.17-.36,.6-.51,.96-.34,0,0,0,0,0,0Z"/>
        <path class="cls-44" d="M399.76,153.92c1.69,1.87,1,5.22,1,5.22,0,0-3.4,.32-5.09-1.55s-1-5.22-1-5.22c0,0,3.4-.32,5.09,1.55Z"/>
        <path class="cls-33" d="M379.53,150.51c1.69,1.87,1,5.22,1,5.22,0,0-3.4,.32-5.09-1.54s-1-5.22-1-5.22c0,0,3.4-.33,5.09,1.54Z"/>
        <path class="cls-44" d="M419.89,147.37c1.18,1.32,.71,3.69,.71,3.69,0,0-2.4,.22-3.59-1.09s-.71-3.69-.71-3.69c0,0,2.4-.22,3.59,1.09Z"/>
        <path class="cls-33" d="M413.23,155.71c-.9,1.53-3.29,1.8-3.29,1.8,0,0-.94-2.22-.05-3.76s3.3-1.79,3.3-1.79c0,0,.94,2.22,.04,3.75Z"/>
        <path class="cls-33" d="M407.91,174.08c-.89,1.54-3.29,1.8-3.29,1.8,0,0-.94-2.22,0-3.75s3.29-1.8,3.29-1.8c0,0,.9,2.22,0,3.75Z"/>
        <path class="cls-33" d="M417.87,175.27c-.9,1.53-3.29,1.79-3.29,1.79,0,0-.94-2.22,0-3.75s3.29-1.8,3.29-1.8c0,0,.9,2.22,0,3.76Z"/>
        <path class="cls-11" d="M407.06,167.06c-1.61,.75-3.73-.4-3.73-.4,0,0,.49-2.36,2.11-3.11s3.73,.41,3.73,.41c0,0-.5,2.36-2.11,3.1Z"/>
        <path class="cls-11" d="M401.72,179.92c-1.61,.74-3.73-.41-3.73-.41,0,0,.5-2.36,2.11-3.1s3.73,.4,3.73,.4c0,0-.5,2.36-2.11,3.11Z"/>
        <path class="cls-33" d="M16.46,217.03H455.58c4.58,0,8.3,3.72,8.3,8.3h0c0,4.58-3.72,8.3-8.3,8.3H16.46c-4.58,0-8.3-3.72-8.3-8.3h0c0-4.58,3.72-8.3,8.3-8.3Z"/>
        <rect class="cls-11" x="242.86" y="220.48" width="19.07" height="3.47" rx="1.73" ry="1.73"/>
        <rect class="cls-11" x="350.82" y="219.87" width="19.07" height="3.47" rx="1.73" ry="1.73"/>
        <rect class="cls-11" x="297.73" y="215.73" width="19.07" height="3.47" rx="1.73" ry="1.73"/>
        <rect class="cls-33" x="318.06" y="231.55" width="19.07" height="3.47" rx="1.73" ry="1.73"/>
        <rect class="cls-11" x="25.05" y="223.95" width="13.68" height="2.49" rx="1.24" ry="1.24"/>
        <rect class="cls-11" x="60.34" y="222.44" width="13.68" height="2.49" rx="1.24" ry="1.24"/>
        <rect class="cls-12" x="96.43" y="227.2" width="10.96" height="1.99" rx=".99" ry=".99"/>
        <rect class="cls-11" x="145.33" y="223.95" width="13.68" height="2.49" rx="1.24" ry="1.24"/>
        <rect class="cls-11" x="180.62" y="222.44" width="13.68" height="2.49" rx="1.24" ry="1.24"/>
        <rect class="cls-12" x="160.57" y="228.11" width="10.96" height="1.99" rx=".99" ry=".99"/>
        <rect class="cls-12" x="195.74" y="226.94" width="10.96" height="1.99" rx=".99" ry=".99"/>
        <rect class="cls-12" x="218.02" y="223.9" width="10.96" height="1.99" rx=".99" ry=".99"/>
        <circle class="cls-20" cx="411.09" cy="208.44" r=".53"/>
        <circle class="cls-20" cx="412.55" cy="203.52" r=".6"/>
        <circle class="cls-20" cx="408.43" cy="194.88" r=".6"/>
        <circle class="cls-20" cx="408.27" cy="201.83" r=".9"/>
        <circle class="cls-20" cx="410.33" cy="204.95" r=".56"/>
        <circle class="cls-20" cx="412.29" cy="206.71" r=".4"/>
        <circle class="cls-20" cx="413.88" cy="207.91" r=".47"/>
        <circle class="cls-11" cx="372.27" cy="192.24" r=".53"/>
        <circle class="cls-11" cx="373.73" cy="187.33" r=".6"/>
        <circle class="cls-11" cx="369.61" cy="178.69" r=".6"/>
        <circle class="cls-11" cx="369.44" cy="185.63" r=".9"/>
        <circle class="cls-11" cx="371.5" cy="188.76" r=".56"/>
        <circle class="cls-11" cx="373.46" cy="190.52" r=".4"/>
        <circle class="cls-11" cx="375.06" cy="191.71" r=".47"/>
        <circle class="cls-11" cx="429.82" cy="233.75" r=".53"/>
        <circle class="cls-11" cx="431.28" cy="228.84" r=".6"/>
        <circle class="cls-11" cx="427.16" cy="220.2" r=".6"/>
        <circle class="cls-11" cx="427" cy="227.14" r=".9"/>
        <circle class="cls-11" cx="429.06" cy="230.27" r=".56"/>
        <circle class="cls-11" cx="431.02" cy="232.03" r=".4"/>
        <circle class="cls-11" cx="432.61" cy="233.22" r=".47"/>
        <rect class="cls-36" x="366.45" y="123.73" width="10.33" height="2.75"/>
        <rect class="cls-36" x="364.13" y="129.2" width="7.84" height="2.75"/>
        <rect class="cls-25" x="367.62" y="126.48" width="5.84" height="2.75"/>
        <rect class="cls-36" x="146.49" y="136.25" width="10.33" height="2.75"/>
        <rect class="cls-36" x="151.31" y="141.77" width="7.84" height="2.75"/>
        <rect class="cls-19" x="149.81" y="139.01" width="5.84" height="2.75"/>
        <rect class="cls-36" x="363.23" y="192.44" width="10.33" height="2.75"/>
        <rect class="cls-36" x="360.9" y="197.91" width="7.84" height="2.75"/>
        <rect class="cls-25" x="364.4" y="195.2" width="5.84" height="2.75"/>
        <circle class="cls-18" cx="459.36" cy="139.16" r="3.58"/>
        <circle class="cls-18" cx="99.65" cy="56.34" r="3.58"/>
        <path class="cls-18" d="M241.58,29.39h-1.44c-.79-3.86-4.2-6.63-8.14-6.62-1.28,0-2.55,.3-3.69,.88-4.07-6.21-12.41-7.95-18.62-3.88-.34,.22-.67,.46-.99,.71-5.82-7.53-16.65-8.92-24.18-3.09-3.77,2.91-6.16,7.26-6.62,12h-.19c-1.57,0-2.84,1.27-2.84,2.84h0c0,1.57,1.27,2.84,2.84,2.84h63.84c1.56,0,2.83-1.28,2.83-2.84h0c0-1.55-1.25-2.82-2.8-2.84Z"/>
        <circle class="cls-18" cx="211.34" cy="11.9" r="2.99"/>
        <circle class="cls-18" cx="230.73" cy="15.84" r="2.36"/>
        <circle class="cls-18" cx="437.53" cy="103.77" r="2.82"/>
        <rect class="cls-14" x="90.61" y="122.04" width="8.45" height="13.09"/>
        <rect class="cls-8" x="91.43" y="122.91" width="6.8" height="11.36"/>
        <polygon class="cls-9" points="95.23 134.27 93.43 134.27 95.43 122.91 97.23 122.91 95.23 134.27"/>
        <circle class="cls-18" cx="71.69" cy="84.76" r="2.82"/>
        <rect class="cls-44" x="400.13" y="231.55" width="19.07" height="3.47" rx="1.73" ry="1.73"/>
        <rect class="cls-44" x="433.26" y="231.92" width="19.07" height="3.47" rx="1.73" ry="1.73"/>
        <polygon class="cls-9" points="346.05 154.93 341.67 154.93 347 129.78 351.52 129.78 346.05 154.93"/>
        <polygon class="cls-9" points="349.26 154.93 347.88 154.93 353.21 129.78 354.73 129.78 349.26 154.93"/>
        <polygon class="cls-9" points="314.61 192.58 310.23 192.58 315.56 167.43 320.08 167.43 314.61 192.58"/>
        <polygon class="cls-9" points="317.82 192.58 316.45 192.58 321.77 167.43 323.29 167.43 317.82 192.58"/>
        <polygon class="cls-9" points="346.7 192.22 342.33 192.22 347.66 167.07 352.18 167.07 346.7 192.22"/>
        <polygon class="cls-9" points="349.92 192.22 348.54 192.22 353.87 167.07 355.39 167.07 349.92 192.22"/>
      </g>
    </g>
  </g>
</svg>