<?xml version="1.0" encoding="UTF-8"?>
<svg id="Layer_2" data-name="Layer 2" xmlns="http://www.w3.org/2000/svg" viewBox="0 0 549.3 796.96">
  <defs>
    <style>
      .cls-1 {
        fill: #f97dca;
      }

      .cls-2 {
        fill: #f9ab80;
      }

      .cls-3, .cls-4, .cls-5 {
        fill: #e89176;
      }

      .cls-6 {
        fill: #e88d4f;
      }

      .cls-7 {
        fill: #fdc6a2;
      }

      .cls-8 {
        fill: #e8a55b;
      }

      .cls-9 {
        fill: #e89c7c;
      }

      .cls-10 {
        fill: #ea9b78;
      }

      .cls-11, .cls-12, .cls-13, .cls-14, .cls-15 {
        fill: #fff;
      }

      .cls-16 {
        fill: #ffdc48;
      }

      .cls-17 {
        fill: #ffece3;
      }

      .cls-18 {
        fill: #ffdecc;
      }

      .cls-19 {
        fill: #f67e41;
      }

      .cls-20 {
        fill: #ef309d;
      }

      .cls-21 {
        fill: #fbb33a;
      }

      .cls-22 {
        fill: #feecaa;
      }

      .cls-23 {
        fill: #ffc37b;
      }

      .cls-24 {
        fill: #fcede6;
      }

      .cls-25 {
        fill: #ff4dab;
      }

      .cls-26 {
        fill: #e4ecef;
      }

      .cls-27 {
        fill: #818789;
      }

      .cls-28 {
        fill: #6c5a70;
      }

      .cls-29 {
        fill: #a0a5a7;
      }

      .cls-30 {
        fill: #a06247;
      }

      .cls-31 {
        fill: #c0ffc0;
      }

      .cls-32 {
        fill: #ba8063;
      }

      .cls-33 {
        fill: #b0bac1;
      }

      .cls-34 {
        fill: #af143b;
      }

      .cls-35 {
        fill: #d87d3f;
      }

      .cls-36 {
        fill: #cbd9ef;
      }

      .cls-37 {
        fill: #c9ced2;
      }

      .cls-38 {
        fill: #d08c6f;
      }

      .cls-39 {
        fill: #d2f2ff;
      }

      .cls-40 {
        fill: #dafcd1;
      }

      .cls-41 {
        fill: #131321;
      }

      .cls-42 {
        fill: #42e8e0;
      }

      .cls-43, .cls-44 {
        fill: #181828;
      }

      .cls-45 {
        fill: #181728;
      }

      .cls-46 {
        fill: #1b1b2b;
      }

      .cls-47 {
        fill: #723f28;
      }

      .cls-48 {
        fill: #93f5fe;
      }

      .cls-49 {
        fill: #2fddd8;
      }

      .cls-50 {
        fill: #3a2c3d;
      }

      .cls-51 {
        fill: #2e2d4c;
      }

      .cls-52 {
        fill: #4f3e52;
      }

      .cls-12 {
        opacity: .75;
      }

      .cls-12, .cls-13, .cls-53, .cls-54, .cls-4, .cls-14, .cls-5, .cls-15, .cls-55, .cls-56, .cls-44 {
        isolation: isolate;
      }

      .cls-13 {
        opacity: .89;
      }

      .cls-53 {
        fill: #26abab;
      }

      .cls-53, .cls-54 {
        opacity: .5;
      }

      .cls-54 {
        fill: #076164;
      }

      .cls-4 {
        opacity: .49;
      }

      .cls-14 {
        opacity: .55;
      }

      .cls-5, .cls-57 {
        opacity: .62;
      }

      .cls-15 {
        opacity: .59;
      }

      .cls-55 {
        fill: #c08976;
        opacity: .39;
      }

      .cls-56 {
        fill: #670118;
      }

      .cls-56, .cls-58 {
        opacity: .4;
      }

      .cls-59 {
        opacity: .3;
      }

      .cls-60 {
        opacity: .25;
      }

      .cls-61 {
        opacity: .45;
      }

      .cls-62 {
        opacity: .35;
      }

      .cls-44 {
        opacity: .12;
      }
    </style>
  </defs>
  <g id="Layer_1-2" data-name="Layer 1">
    <g id="Layer_2-2" data-name="Layer 2">
      <g id="Layer_1-2" data-name="Layer 1-2">
        <ellipse class="cls-11" cx="97.75" cy="390.8" rx="34.2" ry="30.6"/>
        <ellipse class="cls-25" cx="98.95" cy="396.2" rx="34.2" ry="30"/>
        <path class="cls-1" d="M131.35,380.61c-5.65,1.54-11.7,.35-16.34-3.22-1.88-1.5-3.47-3.38-5.5-4.62-5.14-3.13-11.77-1.59-17.2,1s-10.61,6.11-16.53,6.9c-2.6,.33-5.24,.1-7.74-.67,7-8.81,18.45-14.54,31.39-14.54,13.28-.02,24.97,5.99,31.92,15.15Z"/>
        <g class="cls-60">
          <path class="cls-43" d="M353.45,543.84c-1.1,0-2-.9-2-2v-18.59c0-1.1,.9-2,2-2s2,.9,2,2v18.59c0,1.1-.9,2-2,2Z"/>
          <rect class="cls-23" x="152.37" y="547.26" width="322.16" height="13.64"/>
          <ellipse class="cls-11" cx="353.79" cy="457.6" rx="69.25" ry="61.96"/>
          <ellipse class="cls-23" cx="356.99" cy="468.54" rx="69.25" ry="60.75"/>
          <path class="cls-8" d="M424.7,470.09c0,33.55-31,60.75-69.26,60.75s-69.25-27.2-69.25-60.75c0-2.85,.23-5.7,.7-8.51,4.69,29.53,33.59,52.25,68.55,52.25s63.86-22.72,68.55-52.25c.48,2.81,.72,5.66,.71,8.51Z"/>
          <path class="cls-43" d="M356.47,534.04c-10.86,0-21.66-2.51-31.68-7.48-35.29-17.5-49.76-60.45-32.26-95.74,17.5-35.29,60.46-49.76,95.74-32.26,28.77,14.27,44.54,46.24,38.36,77.75-.27,1.35-1.58,2.24-2.93,1.97-1.35-.27-2.24-1.58-1.97-2.93,5.75-29.31-8.92-59.04-35.67-72.31-32.82-16.28-72.76-2.82-89.04,30-16.28,32.82-2.82,72.76,30,89.04,15.9,7.88,33.92,9.11,50.73,3.44,16.82-5.67,30.42-17.54,38.31-33.44,.61-1.24,2.11-1.74,3.35-1.13,1.24,.61,1.74,2.11,1.13,3.35-8.48,17.1-23.11,29.86-41.19,35.96-7.49,2.52-15.2,3.77-22.87,3.77Z"/>
          <ellipse class="cls-11" cx="357.43" cy="462.47" rx="28.93" ry="28.26"/>
          <path class="cls-43" d="M357.41,492.62c-3.19,0-6.39-.5-9.51-1.51-7.84-2.53-14.23-7.97-17.99-15.31-4.41-8.61-4.5-18.94-.25-27.63,.49-.99,1.68-1.4,2.68-.92,.99,.49,1.4,1.68,.92,2.68-3.7,7.56-3.62,16.55,.21,24.05,3.27,6.39,8.83,11.12,15.66,13.32,6.83,2.2,14.1,1.62,20.49-1.65,6.39-3.27,11.12-8.83,13.32-15.66,2.2-6.83,1.62-14.1-1.65-20.49-3.27-6.39-8.83-11.12-15.66-13.32-6.83-2.21-14.1-1.62-20.49,1.65-.98,.5-2.19,.11-2.69-.87-.5-.98-.11-2.19,.87-2.69,7.34-3.76,15.7-4.43,23.54-1.9,7.84,2.53,14.23,7.97,17.99,15.31,3.76,7.34,4.43,15.7,1.9,23.54-2.53,7.84-7.97,14.23-15.31,17.99-4.42,2.26-9.21,3.41-14.03,3.41Z"/>
          <path class="cls-43" d="M449.12,578.9h-9.65c-1.1,0-2-.9-2-2v-16.26c0-1.1,.9-2,2-2h9.65c1.1,0,2,.9,2,2v16.26c0,1.1-.9,2-2,2Zm-7.65-4h5.65v-12.26h-5.65v12.26Z"/>
          <path class="cls-43" d="M474.53,562.13H152.37c-1.1,0-2-.9-2-2v-18.29c0-1.1,.9-2,2-2H474.53c1.1,0,2,.9,2,2v18.29c0,1.1-.9,2-2,2Zm-320.16-4H472.53v-14.29H154.37v14.29Z"/>
          <path class="cls-43" d="M181.33,578.9h-9.65c-1.1,0-2-.9-2-2v-16.26c0-1.1,.9-2,2-2h9.65c1.1,0,2,.9,2,2v16.26c0,1.1-.9,2-2,2Zm-7.65-4h5.65v-12.26h-5.65v12.26Z"/>
          <polyline class="cls-37" points="163.71 785.2 151.86 785.2 151.86 575.37 472.5 575.37 472.5 785.2 438.34 785.2"/>
          <polyline class="cls-37" points="164.21 785.2 152.37 785.2 152.37 575.37 473.01 575.37 473.01 785.2 438.85 785.2"/>
          <polyline class="cls-6" points="362.76 785.2 362.76 633.8 443.03 633.8 443.03 785.2"/>
          <polygon class="cls-29" points="473.46 786.17 442.52 786.17 442.52 780.17 467.46 780.17 467.46 576.89 473.46 576.89 473.46 786.17"/>
          <rect class="cls-48" x="370.89" y="643.96" width="60.46" height="133.11"/>
          <path class="cls-43" d="M473.01,787.71h-34.16c-1.1,0-2-.9-2-2s.9-2,2-2h32.16v-205.83H154.37v205.83h9.84c1.1,0,2,.9,2,2s-.9,2-2,2h-11.84c-1.1,0-2-.9-2-2v-209.83c0-1.1,.9-2,2-2H473.01c1.1,0,2,.9,2,2v209.83c0,1.1-.9,2-2,2Z"/>
          <path class="cls-43" d="M442.14,787.2c-1.1,0-2-.9-2-2v-149.4h-76.27v149.4c0,1.1-.9,2-2,2s-2-.9-2-2v-151.4c0-1.1,.9-2,2-2h80.27c1.1,0,2,.9,2,2v151.4c0,1.1-.9,2-2,2Z"/>
          <polygon class="cls-12" points="396.29 776.05 384.6 776.05 399.84 643.45 411.53 643.45 396.29 776.05"/>
          <polygon class="cls-11" points="407.46 776.05 400.86 776.05 416.1 643.45 422.71 643.45 407.46 776.05"/>
          <path class="cls-43" d="M432.23,778.05h-60.46c-1.1,0-2-.9-2-2v-133.11c0-1.1,.9-2,2-2h60.46c1.1,0,2,.9,2,2v133.11c0,1.1-.9,2-2,2Zm-58.46-4h56.46v-129.11h-56.46v129.11Z"/>
          <g class="cls-58">
            <path class="cls-43" d="M368.85,594.65h-19.3c-.83,0-1.5-.67-1.5-1.5v-7.11c0-.83,.67-1.5,1.5-1.5h19.3c.83,0,1.5,.67,1.5,1.5s-.67,1.5-1.5,1.5h-17.8v4.11h17.8c.83,0,1.5,.67,1.5,1.5s-.67,1.5-1.5,1.5Z"/>
            <path class="cls-43" d="M382.57,594.65h-7.62c-.83,0-1.5-.67-1.5-1.5s.67-1.5,1.5-1.5h7.62c.83,0,1.5,.67,1.5,1.5s-.67,1.5-1.5,1.5Z"/>
          </g>
          <g class="cls-58">
            <path class="cls-43" d="M331.3,730.7h-19.31c-.83,0-1.5-.67-1.5-1.5v-7.11c0-.83,.67-1.5,1.5-1.5h19.31c.83,0,1.5,.67,1.5,1.5s-.67,1.5-1.5,1.5h-17.81v4.11h17.81c.83,0,1.5,.67,1.5,1.5s-.67,1.5-1.5,1.5Z"/>
            <path class="cls-43" d="M345.02,730.7h-7.62c-.83,0-1.5-.67-1.5-1.5s.67-1.5,1.5-1.5h7.62c.83,0,1.5,.67,1.5,1.5s-.67,1.5-1.5,1.5Z"/>
          </g>
          <g class="cls-58">
            <path class="cls-43" d="M266.03,661.78h-19.31c-.83,0-1.5-.67-1.5-1.5v-7.11c0-.83,.67-1.5,1.5-1.5h19.31c.83,0,1.5,.67,1.5,1.5s-.67,1.5-1.5,1.5h-17.81v4.11h17.81c.83,0,1.5,.67,1.5,1.5s-.67,1.5-1.5,1.5Z"/>
            <path class="cls-43" d="M279.75,661.78h-7.63c-.83,0-1.5-.67-1.5-1.5s.67-1.5,1.5-1.5h7.63c.83,0,1.5,.67,1.5,1.5s-.67,1.5-1.5,1.5Z"/>
          </g>
          <rect class="cls-35" x="363.26" y="635.83" width="4.06" height="109.74"/>
          <polyline class="cls-35" points="363.26 638.88 363.26 634.81 441 634.81 441 638.88"/>
          <path class="cls-43" d="M447.57,593.4c-.25,0-.51-.1-.7-.29-.39-.39-.4-1.02,0-1.41l9.95-10.08c.39-.39,1.02-.4,1.41,0,.39,.39,.4,1.02,0,1.41l-9.95,10.08c-.2,.2-.45,.3-.71,.3Z"/>
          <path class="cls-43" d="M459.55,588.2c-.25,0-.51-.1-.7-.29-.39-.39-.4-1.02,0-1.41l5.05-5.12c.39-.39,1.02-.4,1.41,0,.39,.39,.4,1.02,0,1.41l-5.05,5.12c-.2,.2-.45,.3-.71,.3Z"/>
          <g class="cls-58">
            <path class="cls-43" d="M457.26,620.56h-19.31c-.83,0-1.5-.67-1.5-1.5s.67-1.5,1.5-1.5h17.81v-4.11h-17.81c-.83,0-1.5-.67-1.5-1.5s.67-1.5,1.5-1.5h19.31c.83,0,1.5,.67,1.5,1.5v7.11c0,.83-.67,1.5-1.5,1.5Z"/>
            <path class="cls-43" d="M431.85,613.45h-7.62c-.83,0-1.5-.67-1.5-1.5s.67-1.5,1.5-1.5h7.62c.83,0,1.5,.67,1.5,1.5s-.67,1.5-1.5,1.5Z"/>
          </g>
          <g class="cls-58">
            <path class="cls-43" d="M201.65,604.91h-19.3c-.83,0-1.5-.67-1.5-1.5s.67-1.5,1.5-1.5h17.8v-4.11h-17.8c-.83,0-1.5-.67-1.5-1.5s.67-1.5,1.5-1.5h19.3c.83,0,1.5,.67,1.5,1.5v7.11c0,.83-.67,1.5-1.5,1.5Z"/>
            <path class="cls-43" d="M176.25,597.8h-7.62c-.83,0-1.5-.67-1.5-1.5s.67-1.5,1.5-1.5h7.62c.83,0,1.5,.67,1.5,1.5s-.67,1.5-1.5,1.5Z"/>
          </g>
          <g class="cls-58">
            <path class="cls-43" d="M214.35,752.25h-19.3c-.83,0-1.5-.67-1.5-1.5s.67-1.5,1.5-1.5h17.8v-4.11h-17.8c-.83,0-1.5-.67-1.5-1.5s.67-1.5,1.5-1.5h19.3c.83,0,1.5,.67,1.5,1.5v7.11c0,.83-.67,1.5-1.5,1.5Z"/>
            <path class="cls-43" d="M188.95,745.14h-7.62c-.83,0-1.5-.67-1.5-1.5s.67-1.5,1.5-1.5h7.62c.83,0,1.5,.67,1.5,1.5s-.67,1.5-1.5,1.5Z"/>
          </g>
        </g>
        <path class="cls-40" d="M358.22,738.83c11.95-15.49,9.09-37.74-6.41-49.69-15.49-11.95-37.74-9.09-49.69,6.41-4.79,6.2-7.38,13.82-7.38,21.65v68.5l99.91-.61c16.03-9.2,21.57-29.66,12.37-45.69-8.35-14.55-26.19-20.67-41.72-14.31"/>
        <path class="cls-11" d="M365.59,716.42c0,.81,0,1.61-.08,2.4-4.28-19.09-23.24-31.1-42.33-26.81-16.2,3.64-27.7,18.04-27.67,34.64v58.25h-.78v-68.48c-.33-19.56,15.27-35.69,34.83-36.02,19.56-.33,35.69,15.27,36.02,34.83,0,.4,0,.79,0,1.19h0Z"/>
        <path class="cls-45" d="M358.22,740.83c-.43,0-.86-.14-1.22-.42-.87-.67-1.04-1.93-.36-2.8,4.49-5.82,6.96-13.08,6.96-20.43,0-18.43-15-33.43-33.43-33.43h0c-18.43,0-33.43,15-33.43,33.43,0,1.1-.9,2-2,2s-2-.9-2-2c0-20.64,16.79-37.43,37.42-37.43h0c20.64,0,37.43,16.79,37.43,37.43,0,8.23-2.77,16.35-7.8,22.87-.39,.51-.99,.78-1.58,.78Z"/>
        <path class="cls-45" d="M394.69,787.08c-.69,0-1.36-.35-1.73-.99-.56-.95-.24-2.18,.72-2.74,.51-.3,1.02-.62,1.51-.94,14.46-9.6,18.43-29.17,8.83-43.64-.61-.92-.36-2.16,.56-2.77s2.16-.36,2.77,.56c10.81,16.3,6.35,38.36-9.95,49.18-.56,.37-1.13,.72-1.7,1.06-.32,.19-.67,.27-1.01,.27Z"/>
        <path class="cls-45" d="M396.74,730.58c-.39,0-.78-.11-1.13-.35-8.71-5.97-19.76-7.18-29.57-3.25-1.02,.41-2.19-.09-2.6-1.11-.41-1.03,.09-2.19,1.11-2.6,11.04-4.43,23.5-3.06,33.32,3.67,.91,.62,1.14,1.87,.52,2.78-.39,.57-1.01,.87-1.65,.87Z"/>
        <g class="cls-62">
          <path class="cls-36" d="M404.11,781.59c-1.17,1.68-2.86,2.93-4.82,3.54-.46,.15-.26,.87,.2,.73,2.14-.68,3.99-2.04,5.27-3.89,.28-.4-.37-.77-.65-.38h0Z"/>
        </g>
        <g class="cls-62">
          <path class="cls-36" d="M388.3,784.61c6.91,1.31,14.04,.58,20.54-2.1,.44-.18,.24-.91-.2-.72-6.37,2.64-13.37,3.37-20.14,2.1-.47-.09-.68,.63-.2,.72h0Z"/>
        </g>
        <g class="cls-62">
          <path class="cls-36" d="M410.64,780.79c.84-.44,1.51-1.14,1.92-2,.19-.44-.45-.82-.65-.38-.33,.76-.91,1.39-1.65,1.78-.43,.23-.05,.87,.38,.65v-.05Z"/>
        </g>
        <g class="cls-62">
          <path class="cls-36" d="M413.63,778.43c-1.13,3.58-3.66,6.55-7,8.25-.43,.22-.05,.87,.38,.65,3.51-1.8,6.16-4.93,7.35-8.7,.14-.46-.58-.66-.73-.2Z"/>
        </g>
        <path class="cls-43" d="M429.55,788.2h-118.8c-1.1,0-2-.9-2-2s.9-2,2-2h118.8c1.1,0,2,.9,2,2s-.9,2-2,2Z"/>
        <path class="cls-43" d="M487.15,788.2h-34.8c-1.1,0-2-.9-2-2s.9-2,2-2h34.8c1.1,0,2,.9,2,2s-.9,2-2,2Z"/>
        <g class="cls-59">
          <path class="cls-43" d="M120.01,311.21h-52.07c-9.86,0-18.9-4.98-24.18-13.31-4.09-6.46-5.42-14.13-3.75-21.59,1.67-7.46,6.15-13.82,12.61-17.92,13.34-8.45,31.06-4.47,39.51,8.87,.59,.93,.31,2.17-.62,2.76-.93,.59-2.17,.31-2.76-.62-7.27-11.47-22.51-14.89-33.99-7.63-5.56,3.52-9.41,8.99-10.85,15.41s-.3,13.02,3.23,18.57c4.54,7.17,12.32,11.45,20.8,11.45h52.07c4.15,0,8.06-1.62,10.99-4.56,2.94-2.94,4.55-6.84,4.55-11,0-4.15-1.62-8.06-4.56-10.99-2.94-2.93-6.84-4.55-10.99-4.55h0c-8.57,0-15.54,6.98-15.54,15.55,0,1.1-.9,2-2,2s-2-.9-2-2c0-10.77,8.77-19.54,19.54-19.55h.01c5.22,0,10.12,2.03,13.82,5.72,3.69,3.69,5.73,8.6,5.73,13.82,0,5.22-2.03,10.13-5.72,13.83-3.69,3.69-8.6,5.73-13.82,5.73Z"/>
        </g>
        <g class="cls-59">
          <path class="cls-43" d="M512.08,373.75h-68.83c-13.9,0-25.21-11.31-25.21-25.21s11.31-25.21,25.21-25.21,25.21,11.31,25.21,25.21c0,1.1-.9,2-2,2s-2-.9-2-2c0-11.7-9.51-21.21-21.21-21.21s-21.21,9.52-21.21,21.21,9.51,21.21,21.21,21.21h68.83c11.43,0,21.92-5.77,28.04-15.43,4.75-7.49,6.3-16.39,4.36-25.04-1.94-8.66-7.13-16.04-14.63-20.79-15.47-9.8-36.03-5.2-45.83,10.27-.59,.93-1.83,1.21-2.76,.62-.93-.59-1.21-1.83-.62-2.76,10.98-17.33,34.02-22.49,51.35-11.51,8.39,5.32,14.21,13.59,16.39,23.29,2.17,9.7,.44,19.66-4.88,28.06-6.86,10.82-18.6,17.29-31.42,17.29Z"/>
        </g>
        <path class="cls-40" d="M59.76,733.99c-13.01-16.87-9.88-41.1,6.99-54.11,16.87-13.01,41.1-9.88,54.11,6.99,5.21,6.75,8.03,15.04,8.03,23.56v74.56l-108.8-.66c-17.41-10.11-23.33-32.42-13.22-49.82,9.12-15.7,28.39-22.3,45.22-15.48"/>
        <path class="cls-11" d="M51.73,709.58c0,.88,0,1.76,.09,2.62,4.75-20.77,25.44-33.76,46.21-29.01,17.51,4,29.95,19.57,29.98,37.53v63.44h.86v-74.58c0-21.31-17.27-38.58-38.58-38.58s-38.58,17.27-38.58,38.58h.02Z"/>
        <path class="cls-45" d="M59.76,735.99c-.6,0-1.19-.27-1.59-.78-5.45-7.06-8.45-15.87-8.45-24.78,0-22.37,18.21-40.58,40.58-40.58,0,0,0,0,0,0,10.84,0,21.03,4.22,28.69,11.89,7.66,7.66,11.89,17.86,11.88,28.69,0,1.1-.9,2-2,2h0c-1.1,0-2-.9-2-2,0-9.77-3.8-18.96-10.71-25.87s-16.09-10.71-25.87-10.71c-20.17,0-36.58,16.41-36.58,36.58,0,8.04,2.7,15.97,7.61,22.34,.67,.88,.51,2.13-.36,2.81-.36,.28-.79,.42-1.22,.42Z"/>
        <path class="cls-45" d="M20.08,786.35c-.34,0-.69-.09-1.01-.27-.63-.37-1.25-.75-1.86-1.16-8.56-5.68-14.4-14.34-16.44-24.41-2.04-10.07-.04-20.32,5.64-28.88,.61-.92,1.85-1.17,2.77-.56,.92,.61,1.17,1.85,.56,2.77-5.08,7.67-6.88,16.86-5.05,25.88,1.83,9.02,7.06,16.79,14.73,21.87,.55,.36,1.1,.71,1.67,1.04,.95,.56,1.27,1.78,.72,2.74-.37,.64-1.04,.99-1.73,.99Z"/>
        <path class="cls-45" d="M17.77,724.83c-.64,0-1.26-.3-1.65-.87-.62-.91-.39-2.16,.52-2.78,10.64-7.29,24.14-8.78,36.11-3.99,1.03,.41,1.52,1.58,1.11,2.6s-1.57,1.52-2.6,1.11c-10.73-4.3-22.83-2.96-32.37,3.57-.35,.24-.74,.35-1.13,.35Z"/>
        <g class="cls-62">
          <path class="cls-33" d="M202.06,711.7c0-11.96,9.69-21.65,21.65-21.65s21.65,9.69,21.65,21.65"/>
          <path class="cls-33" d="M114.67,711.7c0-11.96,9.69-21.65,21.65-21.65s21.65,9.69,21.65,21.65"/>
          <path class="cls-33" d="M158.01,710.92c0-11.96,9.69-21.65,21.65-21.65s21.65,9.69,21.65,21.65"/>
        </g>
        <path class="cls-11" d="M108.37,717.21c0-11.96,9.69-21.65,21.65-21.65s21.65,9.69,21.65,21.65"/>
        <path class="cls-11" d="M195.01,718.79c0-11.96,9.69-21.65,21.65-21.65s21.65,9.69,21.65,21.65"/>
        <path class="cls-11" d="M150.88,717.99c0-11.96,9.69-21.65,21.65-21.65s21.65,9.69,21.65,21.65"/>
        <path class="cls-37" d="M228.01,719.18H106.95c-8.84-.04-16.04,7.08-16.08,15.92,0,.73,.04,1.46,.14,2.19h0v50.39H228.01v-68.5Z"/>
        <path class="cls-26" d="M91.84,766.06c-1.1,0-2-.9-2-2v-25.98c0-1.1,.9-2,2-2s2,.9,2,2v25.98c0,1.1-.9,2-2,2Z"/>
        <path class="cls-29" d="M227.25,774.9v10.42H90.25v-12.26c3.54,2.15,7.43,3.68,11.49,4.52,6.27,1.41,12.77,1.41,19.2,1.41,6,0,12.06-.11,18.06-.66,15.79-1.46,31.13-6.07,46.85-8.11,13.96-1.78,28.85-1.34,41.4,4.68Z"/>
        <path class="cls-26" d="M89.47,738.86l8.66-20.47H226.46v12.35c-7.48-2.89-15.54-3.91-23.5-3-7.59,.89-14.4,3.44-21.76,4.91-5.4,1.15-10.95,1.44-16.45,.87-4.74-.57-9.12-2-13.74-2.86-6.28-1.19-12.91-1.39-19.47-1.57-8.57-.25-17.4-.47-25.47,1.34-6.83,1.56-12.69,4.63-16.6,8.43Z"/>
        <path class="cls-40" d="M195.76,723.51c0-11.96,9.69-21.65,21.65-21.65s21.65,9.69,21.65,21.65"/>
        <path class="cls-40" d="M108.37,723.51c0-11.96,9.69-21.65,21.65-21.65s21.65,9.69,21.65,21.65"/>
        <path class="cls-40" d="M151.67,722.73c0-11.96,9.69-21.65,21.65-21.65s21.65,9.69,21.65,21.65"/>
        <path class="cls-45" d="M241.06,717.21h-4c0-10.83-8.81-19.65-19.65-19.65s-19.65,8.82-19.65,19.65h-4c0-13.04,10.61-23.65,23.65-23.65s23.65,10.61,23.65,23.65Z"/>
        <path class="cls-45" d="M151.67,719.21c-1.1,0-2-.9-2-2,0-10.83-8.81-19.65-19.65-19.65s-19.65,8.82-19.65,19.65c0,1.1-.9,2-2,2s-2-.9-2-2c0-13.04,10.61-23.65,23.65-23.65s23.65,10.61,23.65,23.65c0,1.1-.9,2-2,2Z"/>
        <path class="cls-45" d="M194.97,718.43c-1.1,0-2-.9-2-2,0-10.83-8.81-19.65-19.65-19.65s-19.65,8.82-19.65,19.65c0,1.1-.9,2-2,2s-2-.9-2-2c0-13.04,10.61-23.65,23.65-23.65s23.65,10.61,23.65,23.65c0,1.1-.9,2-2,2Z"/>
        <path class="cls-11" d="M227.25,718.39v5.52H106.16c-8.07-.01-14.89,5.99-15.9,14v-1.37c-1.17-8.76,4.99-16.8,13.75-17.97,.71-.09,1.43-.14,2.15-.14l121.09-.04Z"/>
        <path class="cls-45" d="M89.87,788.5c-1.1,0-2-.9-2-2v-50.26c-.6-4.72,.67-9.39,3.56-13.18,2.92-3.82,7.15-6.28,11.92-6.91,.8-.11,1.61-.15,2.43-.16h121.08c1.1,0,2,.9,2,2s-.9,2-2,2H105.77c-.64,0-1.27,.04-1.9,.12-3.71,.5-7,2.4-9.27,5.38s-3.25,6.65-2.75,10.36c.01,.09,.02,.18,.02,.26v50.39c0,1.1-.9,2-2,2Z"/>
        <path class="cls-45" d="M129.63,736.14h-39.26c-1.1,0-2-.9-2-2s.9-2,2-2h39.26c1.1,0,2,.9,2,2s-.9,2-2,2Z"/>
        <path class="cls-45" d="M217.02,736.38h-30.6c-1.1,0-2-.9-2-2s.9-2,2-2h30.6c1.1,0,2,.9,2,2s-.9,2-2,2Z"/>
        <path class="cls-45" d="M141.44,736.38h-5.41c-1.1,0-2-.9-2-2s.9-2,2-2h5.41c1.1,0,2,.9,2,2s-.9,2-2,2Z"/>
        <path class="cls-43" d="M16.65,752.72c-.13,0-.25-.05-.35-.14-.2-.19-.2-.51,0-.71l15.42-15.61c.19-.2,.51-.2,.71,0,.2,.19,.2,.51,0,.71l-15.42,15.61c-.1,.1-.23,.15-.36,.15Z"/>
        <path class="cls-43" d="M30.41,744.68c-.13,0-.25-.05-.35-.14-.2-.19-.2-.51,0-.71l7.83-7.94c.19-.2,.51-.2,.71,0,.2,.19,.2,.51,0,.71l-7.83,7.94c-.1,.1-.23,.15-.36,.15Z"/>
        <ellipse class="cls-29" cx="126.49" cy="775.58" rx="3.94" ry="1.97" transform="translate(-35.72 6.68) rotate(-2.65)"/>
        <circle class="cls-29" cx="133.58" cy="775.65" r="1.57"/>
        <ellipse class="cls-27" cx="159.94" cy="780.98" rx="1.97" ry="1.18"/>
        <circle class="cls-27" cx="164.27" cy="782.17" r=".79"/>
        <circle class="cls-27" cx="94.2" cy="781.38" r=".79"/>
        <ellipse class="cls-27" cx="99.32" cy="781.77" rx="2.76" ry="1.18"/>
        <ellipse class="cls-26" cx="154.43" cy="732.57" rx="2.76" ry="3.15"/>
        <circle class="cls-26" cx="149.31" cy="735.72" r="1.57"/>
        <circle class="cls-26" cx="172.93" cy="734.14" r="1.57"/>
        <circle class="cls-26" cx="176.86" cy="735.72" r=".79"/>
        <circle class="cls-26" cx="167.81" cy="735.32" r=".39"/>
        <circle class="cls-26" cx="169.39" cy="737.68" r=".39"/>
        <circle class="cls-11" cx="121.36" cy="703.83" r="2.76"/>
        <circle class="cls-11" cx="120.57" cy="712.49" r="1.97"/>
        <circle class="cls-11" cx="115.85" cy="708.55" r="1.97"/>
        <circle class="cls-31" cx="120.97" cy="710.52" r=".79"/>
        <circle class="cls-11" cx="124.9" cy="708.16" r=".79"/>
        <circle class="cls-11" cx="124.9" cy="711.31" r=".79"/>
        <ellipse class="cls-11" cx="169.78" cy="705.6" rx="3.94" ry="1.57"/>
        <path class="cls-43" d="M268.75,789.4H41.95c-1.1,0-2-.9-2-2s.9-2,2-2h226.8c1.1,0,2,.9,2,2s-.9,2-2,2Z"/>
        <path class="cls-7" d="M169.15,482.6c-2.47,0-4.91-.55-7.14-1.61l-61.2-28.8c-8.41-3.91-12.06-13.9-8.15-22.32,3.91-8.41,13.9-12.06,22.32-8.15,.05,.02,.09,.04,.14,.07l45.06,21.2,36.57-73.21c3.45-8.61,10.83-25,19.44-21.6,8.62,3.45,12.81,13.22,9.36,21.84,0,0,0,0,0,0l-40.8,102c-2.55,6.38-8.73,10.56-15.6,10.56v.02Z"/>
        <path class="cls-5" d="M165.06,480.3c-.28,0-.57-.06-.84-.19l-51.6-24c-1-.47-1.44-1.66-.97-2.66,.47-1,1.65-1.44,2.66-.97l51.6,24c1,.47,1.44,1.66,.97,2.66-.34,.73-1.06,1.16-1.81,1.16Z"/>
        <path class="cls-7" d="M325.15,481.4l2.38-64.32c.32-9.27,8.09-16.53,17.36-16.22,9.02,.31,16.18,7.68,16.23,16.71l-1.59,65.42"/>
        <path class="cls-5" d="M335.95,431.8c-1.05,0-1.94-.82-2-1.89-.06-1.1,.78-2.05,1.89-2.11l21.6-1.2c1.09-.06,2.05,.78,2.11,1.89,.06,1.1-.78,2.05-1.89,2.11l-21.6,1.2s-.08,0-.11,0Z"/>
        <rect class="cls-17" x="139.15" y="418.98" width="3" height="37.84" transform="translate(-315.31 377.55) rotate(-64.65)"/>
        <path class="cls-5" d="M182.03,471.59c-.26,0-.53-.05-.79-.16-1.02-.44-1.49-1.61-1.05-2.63l18-42c.44-1.02,1.61-1.48,2.63-1.05,1.02,.44,1.49,1.61,1.05,2.63l-18,42c-.33,.76-1.06,1.21-1.84,1.21Z"/>
        <path class="cls-5" d="M195.55,435.6c-.15,0-.31-.02-.46-.05l-25.2-6c-1.07-.26-1.74-1.33-1.48-2.41,.26-1.07,1.33-1.74,2.41-1.48l25.2,6c1.07,.26,1.74,1.33,1.48,2.41-.22,.92-1.04,1.54-1.94,1.54Z"/>
        <path class="cls-20" d="M133.15,396.2c0,16.57-15.31,30-34.2,30s-34.2-13.43-34.2-30c0-1.41,.11-2.81,.35-4.2,2.32,14.58,16.59,25.8,33.85,25.8s31.54-11.22,33.86-25.8c.23,1.39,.35,2.79,.34,4.2Z"/>
        <path class="cls-43" d="M98.87,429.44c-5.38,0-10.84-1.2-15.98-3.74-17.91-8.85-25.28-30.61-16.43-48.52,8.85-17.91,30.61-25.28,48.52-16.43,12.44,6.14,20.17,18.58,20.18,32.45,0,2.34-.22,4.69-.67,6.99-.21,1.08-1.26,1.79-2.34,1.59-1.08-.21-1.79-1.26-1.59-2.34,.39-2.05,.59-4.15,.59-6.23,0-12.34-6.89-23.4-17.95-28.86-15.93-7.87-35.29-1.31-43.16,14.62-7.87,15.93-1.31,35.29,14.62,43.16,15.93,7.87,35.29,1.31,43.16-14.62,.49-.99,1.69-1.4,2.68-.91,.99,.49,1.4,1.69,.91,2.68-6.31,12.76-19.18,20.17-32.53,20.17Z"/>
        <circle class="cls-11" cx="99.55" cy="393.92" r="14.29"/>
        <path class="cls-43" d="M99.52,408.24h-.01c-8.7,0-15.76-7.09-15.76-15.78,0-2.38,.56-4.78,1.6-6.92,.36-.74,1.26-1.05,2.01-.69,.74,.36,1.05,1.26,.69,2.01-.85,1.73-1.3,3.67-1.3,5.6,0,7.04,5.72,12.77,12.76,12.78,3.46-.02,6.62-1.32,9.03-3.73s3.74-5.62,3.75-9.03c0-3.41-1.32-6.62-3.73-9.03-2.41-2.41-5.62-3.74-9.03-3.75h-.02c-2.01,0-4.02,.49-5.81,1.41-.74,.38-1.64,.09-2.02-.64-.38-.74-.09-1.64,.64-2.02,2.21-1.14,4.7-1.75,7.19-1.75h.03c4.21,0,8.17,1.65,11.15,4.63,2.98,2.98,4.61,6.94,4.61,11.15,0,4.21-1.65,8.17-4.63,11.15-2.98,2.97-6.93,4.61-11.14,4.61Z"/>
        <path class="cls-43" d="M169.15,484.6h0c-2.75,0-5.51-.63-7.99-1.8l-61.19-28.8c-9.39-4.37-13.48-15.57-9.11-24.97,2.12-4.55,5.88-8.01,10.6-9.73,4.72-1.72,9.82-1.5,14.38,.61l43.39,20.41,29.7-64.13c3.65-9.05,17.44-28.01,27.78-23.86,5.33,2.14,8.38,4.13,10.2,6.68,2.25,3.15,2.42,7,.51,11.76l-40.8,102c-2.85,7.12-9.6,11.73-17.25,11.82-.07,0-.14,.01-.21,.01Zm-61.23-62.44c-5.58,0-10.94,3.17-13.44,8.56-3.44,7.4-.22,16.22,7.18,19.66l61.21,28.8c1.9,.9,4.01,1.39,6.11,1.42,.06,0,.12,0,.18,0h0c6.09,0,11.48-3.65,13.74-9.3l40.8-102c1.81-4.53,.84-6.71-.05-7.95-1.33-1.85-3.93-3.48-8.44-5.29-6.56-2.62-19.01,12.74-22.6,21.69-.01,.03-.03,.06-.04,.1l-30.57,66c-.22,.48-.63,.86-1.13,1.04-.5,.18-1.05,.16-1.53-.07l-45.2-21.26c-2.01-.94-4.13-1.38-6.21-1.38Z"/>
        <path class="cls-43" d="M326.35,513.44c-1.05,0-1.92-.81-1.99-1.86l-.16-2.34c0-.06,0-.11,0-.17l1.34-92c.17-5.06,2.29-9.71,5.96-13.14,3.67-3.43,8.45-5.23,13.47-5.05,10.13,.35,18.11,8.56,18.16,18.7l-1.59,85.9c-.02,1.09-.91,1.96-2,1.96h-31.18v6c0,1.08-.85,1.96-1.93,2-.02,0-.05,0-.07,0Zm1.95-12h29.26l1.55-83.89c-.04-7.93-6.32-14.4-14.3-14.67-8.15-.29-15.02,6.13-15.3,14.29l-1.23,84.27Z"/>
        <circle class="cls-7" cx="99.62" cy="423.27" r="21.5"/>
        <path class="cls-11" d="M237.16,334.78l-24.07,99.33-61-14.77c.72-4.21,7.92-53.83,85.07-84.56Z"/>
        <path class="cls-49" d="M250.87,339.57l-24.07,99.34-61-14.77s8.85-54.21,85.07-84.57Z"/>
        <path class="cls-43" d="M213.75,436.28c-.16,0-.31-.02-.47-.06l-54.93-13.29c-3.69-.89-5.89-4.46-5.89-9.56-.02-.24,0-.48,.08-.72,4.3-14.03,11.38-26.75,21.04-37.8,.73-.83,1.99-.92,2.82-.19,.83,.73,.92,1.99,.19,2.82-9.22,10.54-15.99,22.67-20.13,36.04,.02,1.58,.35,4.92,2.82,5.52l52.99,12.82,22.68-93.6c-21.26,8.87-38.6,19.64-51.56,32.06-.8,.76-2.06,.74-2.83-.06-.76-.8-.74-2.06,.06-2.83,14.06-13.47,33.06-25.03,56.45-34.35,.7-.28,1.49-.14,2.05,.35s.81,1.25,.63,1.98l-24.07,99.34c-.22,.92-1.04,1.53-1.94,1.53Zm-61.29-22.9c.01,.55,.36,1.22,.99,1.58-.57-.33-.94-.93-.99-1.58Z"/>
        <path class="cls-21" d="M222.13,756.55h8.8c14.8,0,26.8,12,26.8,26.8v.64c0,5.11-4.15,9.26-9.26,9.26h-43.88c-5.11,0-9.26-4.15-9.26-9.26h0v-.68c0-14.8,12-26.8,26.8-26.8v.04Z"/>
        <rect class="cls-52" x="280.2" y="544.05" width="38.51" height="171.48"/>
        <rect class="cls-50" x="280.2" y="544.05" width="38.51" height="46.91"/>
        <rect class="cls-50" x="280.61" y="588.32" width="4" height="97.68"/>
        <rect class="cls-52" x="212.57" y="544.05" width="40" height="171.48"/>
        <rect class="cls-50" x="214.06" y="544.05" width="38.51" height="45.41"/>
        <rect class="cls-50" x="244.68" y="588.32" width="4" height="97.68"/>
        <rect class="cls-7" x="219.12" y="729.3" width="21.77" height="30.14"/>
        <rect class="cls-2" x="219.12" y="729.3" width="21.77" height="16.44"/>
        <path class="cls-43" d="M240.89,761.22h-21.77c-.83,0-1.5-.67-1.5-1.5v-30.14c0-.83,.67-1.5,1.5-1.5h21.77c.83,0,1.5,.67,1.5,1.5v30.14c0,.83-.67,1.5-1.5,1.5Zm-20.27-3h18.77v-27.14h-18.77v27.14Z"/>
        <path class="cls-43" d="M250.66,720.28h-38.51c-1.1,0-2-.9-2-2v-69.56c0-1.1,.9-2,2-2s2,.9,2,2v67.56h34.51v-167.48h-34.51v88.36c0,1.1-.9,2-2,2s-2-.9-2-2v-90.36c0-1.1,.9-2,2-2h38.51c1.1,0,2,.9,2,2v171.48c0,1.1-.9,2-2,2Z"/>
        <rect class="cls-52" x="202.29" y="709.54" width="54.42" height="28.59" rx="13.94" ry="13.94"/>
        <path class="cls-28" d="M256.5,724.48v.72c0,.97-.1,1.94-.3,2.89-1.34-6.47-7.04-11.1-13.64-11.1h-26.55c-6.59,0-12.28,4.61-13.64,11.06-.2-.95-.3-1.92-.3-2.89v-.72c.02-7.68,6.26-13.9,13.94-13.9h26.54c7.7,0,13.94,6.23,13.95,13.93h0Z"/>
        <path class="cls-43" d="M242.64,739.65h-26.54c-8.51,0-15.44-6.93-15.44-15.44v-.71c0-8.51,6.93-15.44,15.44-15.44h26.54c8.51,0,15.44,6.93,15.44,15.44v.71c0,8.51-6.93,15.44-15.44,15.44Zm-26.54-28.59c-6.86,0-12.44,5.58-12.44,12.44v.71c0,6.86,5.58,12.44,12.44,12.44h26.54c6.86,0,12.44-5.58,12.44-12.44v-.71c0-6.86-5.58-12.44-12.44-12.44h-26.54Z"/>
        <path class="cls-43" d="M220.42,729.28h-16.17c-.55,0-1-.45-1-1s.45-1,1-1h16.17c.55,0,1,.45,1,1s-.45,1-1,1Z"/>
        <path class="cls-43" d="M254.74,719.65h-7.57c-.55,0-1-.45-1-1s.45-1,1-1h7.57c.55,0,1,.45,1,1s-.45,1-1,1Z"/>
        <rect class="cls-7" x="288.36" y="729.3" width="21.77" height="30.14"/>
        <rect class="cls-2" x="288.36" y="729.3" width="21.77" height="16.44"/>
        <path class="cls-43" d="M310.13,761.22h-21.77c-.83,0-1.5-.67-1.5-1.5v-30.14c0-.83,.67-1.5,1.5-1.5h21.77c.83,0,1.5,.67,1.5,1.5v30.14c0,.83-.67,1.5-1.5,1.5Zm-20.27-3h18.77v-27.14h-18.77v27.14Z"/>
        <path class="cls-43" d="M316.79,720.28h-38.51c-1.1,0-2-.9-2-2v-171.48c0-1.1,.9-2,2-2h38.51c1.1,0,2,.9,2,2v171.48c0,1.1-.9,2-2,2Zm-36.51-4h34.51v-167.48h-34.51v167.48Z"/>
        <rect class="cls-52" x="270.1" y="709.72" width="54.42" height="28.59" rx="13.94" ry="13.94"/>
        <path class="cls-28" d="M324.31,724.29v.7c0,.97-.1,1.94-.31,2.89-1.35-6.45-7.05-11.07-13.64-11.06h-26.53c-6.59,0-12.28,4.61-13.64,11.06-.21-.95-.31-1.92-.31-2.89v-.72c.03-7.69,6.26-13.91,13.95-13.94h26.53c7.7,.03,13.93,6.26,13.95,13.96Z"/>
        <path class="cls-43" d="M310.45,739.46h-26.54c-8.51,0-15.44-6.93-15.44-15.44v-.71c0-8.51,6.93-15.44,15.44-15.44h26.54c8.51,0,15.44,6.93,15.44,15.44v.71c0,8.51-6.93,15.44-15.44,15.44Zm-26.54-28.59c-6.86,0-12.44,5.58-12.44,12.44v.71c0,6.86,5.58,12.44,12.44,12.44h26.54c6.86,0,12.44-5.58,12.44-12.44v-.71c0-6.86-5.58-12.44-12.44-12.44h-26.54Z"/>
        <path class="cls-43" d="M288.23,729.09h-16.17c-.55,0-1-.45-1-1s.45-1,1-1h16.17c.55,0,1,.45,1,1s-.45,1-1,1Z"/>
        <path class="cls-43" d="M322.55,719.46h-7.57c-.55,0-1-.45-1-1s.45-1,1-1h7.57c.55,0,1,.45,1,1s-.45,1-1,1Z"/>
        <path class="cls-11" d="M195.6,485.35h132.89v67.74c0,15.71-12.72,28.44-28.43,28.45-.02,0-.03,0-.05,0h-76c-15.71,0-28.44-12.73-28.44-28.44h0v-67.75h.03Z"/>
        <path class="cls-52" d="M207.49,485.35h122.46v68.88c0,15.08-12.22,27.3-27.3,27.3h-67.86c-15.08,0-27.3-12.22-27.3-27.3v-68.88h0Z"/>
        <path class="cls-50" d="M266.23,566.27c-1,.22-2.02,.34-3.05,.34-7.58,.01-13.74-6.13-13.75-13.71,0-.01,0-.02,0-.03v-32.77h6.08v32.77c0,6.42,4.46,11.98,10.72,13.4Z"/>
        <rect class="cls-50" x="207.49" y="519.98" width="120.74" height="8.8"/>
        <path class="cls-43" d="M301.51,583.53h-76c-16.78,0-30.44-13.66-30.44-30.44v-67.74c0-1.1,.9-2,2-2h132.88c1.1,0,2,.9,2,2v67.74c0,16.78-13.66,30.44-30.44,30.44Zm-102.44-96.18v65.74c0,14.58,11.86,26.44,26.44,26.44h76c14.58,0,26.44-11.86,26.44-26.44v-65.74H199.07Z"/>
        <path class="cls-43" d="M262.89,567.61c-8.15,0-14.77-6.62-14.77-14.75v-32.76c0-.55,.45-1,1-1s1,.45,1,1v32.76c0,7.03,5.72,12.75,12.75,12.75,7.04,0,12.75-5.72,12.75-12.75v-6.48c0-.55,.45-1,1-1s1,.45,1,1v6.48c0,8.13-6.6,14.74-14.73,14.75Z"/>
        <path class="cls-43" d="M276.62,537.38c-.55,0-1-.45-1-1v-16.28c0-.55,.45-1,1-1s1,.45,1,1v16.28c0,.55-.45,1-1,1Z"/>
        <path class="cls-43" d="M257.83,536.9h-16.17c-.83,0-1.5-.67-1.5-1.5s.67-1.5,1.5-1.5h16.17c.83,0,1.5,.67,1.5,1.5s-.67,1.5-1.5,1.5Z"/>
        <path class="cls-43" d="M257.83,543.52h-16.17c-.83,0-1.5-.67-1.5-1.5s.67-1.5,1.5-1.5h16.17c.83,0,1.5,.67,1.5,1.5s-.67,1.5-1.5,1.5Z"/>
        <ellipse class="cls-11" cx="212.57" cy="547.88" rx="1.93" ry="2.92"/>
        <circle class="cls-11" cx="212.01" cy="555.15" r="1.37"/>
        <path class="cls-21" d="M294.2,756.55h8.81c14.8,0,26.8,12,26.8,26.8v.64c0,5.11-4.15,9.26-9.26,9.26h-43.89c-5.11,0-9.26-4.15-9.26-9.26h0v-.68c.02-14.79,12.01-26.76,26.8-26.76Z"/>
        <path class="cls-22" d="M312.52,775.88c-11.2-7.38-25.25-8.94-37.8-4.21h-.12c-5.11,0-7.2,17.44-7.2,12.32v-.68c0-14.8,12-26.8,26.8-26.8h8.81c14.8,0,26.8,12,26.8,26.8l-1.34-7.17c0,2.59-7.31,5.42-15.95-.26Z"/>
        <path class="cls-43" d="M329.8,784.35h-10.12c-.55,0-1-.45-1-1s.45-1,1-1h10.12c.55,0,1,.45,1,1s-.45,1-1,1Z"/>
        <path class="cls-43" d="M313.81,784.35h-34.42c-.55,0-1-.45-1-1s.45-1,1-1h34.42c.55,0,1,.45,1,1s-.45,1-1,1Z"/>
        <path class="cls-43" d="M273.54,784.35h-4.94c-.55,0-1-.45-1-1s.45-1,1-1h4.94c.55,0,1,.45,1,1s-.45,1-1,1Z"/>
        <rect class="cls-19" x="268.34" y="784.54" width="61.19" height="2"/>
        <rect class="cls-19" x="196.57" y="784.54" width="61.19" height="2"/>
        <path class="cls-22" d="M240.45,775.88c-11.2-7.38-25.25-8.94-37.8-4.21h-.12c-5.11,0-7.2,17.44-7.2,12.32v-.68c0-14.8,12-26.8,26.8-26.8h8.8c14.8,0,26.8,12,26.8,26.8l-1.34-7.17c0,2.59-7.3,5.42-15.94-.26Z"/>
        <path class="cls-43" d="M257.73,784.35h-44.09c-.55,0-1-.45-1-1s.45-1,1-1h44.09c.55,0,1,.45,1,1s-.45,1-1,1Z"/>
        <path class="cls-43" d="M207.86,784.35h-10.13c-.55,0-1-.45-1-1s.45-1,1-1h10.13c.55,0,1,.45,1,1s-.45,1-1,1Z"/>
        <path class="cls-49" d="M313.93,341.99l5.15,85,52.16-3.16s.77-45.74-57.31-81.84Z"/>
        <path class="cls-53" d="M307.01,334.74l5.63,92.85,39.73-2.41s-.36-49.9-45.36-90.44Z"/>
        <path class="cls-43" d="M318.51,429.04c-1.05,0-1.93-.82-1.99-1.88l-5.16-85c-.05-.75,.33-1.46,.97-1.84,.64-.38,1.44-.38,2.08,.02,46.55,28.94,55.93,64.09,57.81,77.86,.02,.18,.04,.35,.05,.52,.11,1.88-.52,3.7-1.77,5.11-1.25,1.41-2.98,2.25-4.86,2.36l-47,2.85s-.08,0-.12,0Zm-2.92-83.2l4.8,79.09,45-2.73c.82-.05,1.57-.41,2.11-1.02,.54-.61,.82-1.4,.77-2.21,0-.07-.01-.15-.02-.23-1.75-12.88-10.4-45.29-52.66-72.9Z"/>
        <path class="cls-49" d="M255.01,327.77h20.21c32.2,0,58.31,26.11,58.31,58.31v133.27H196.71v-133.27c0-32.2,26.1-58.3,58.3-58.31Z"/>
        <path class="cls-11" d="M262.53,328.43c-32.2,0-58.3,26.1-58.31,58.3v133.26h-8.88l-.53-23.47v-8.43l.53-101.38c0-32.2,26.11-58.3,58.31-58.3l8.88,.02Z"/>
        <path class="cls-42" d="M271.22,328.5c-32.2,0-58.31,26.11-58.31,58.31v133.27h-8.9v-133.27c0-32.2,26.11-58.31,58.31-58.31h8.9Z"/>
        <path class="cls-43" d="M209.23,363.13c-.16,0-.31-.07-.41-.21-.16-.23-.11-.54,.12-.7l7.87-5.59c.23-.16,.54-.11,.7,.12s.11,.54-.12,.7l-7.87,5.59c-.09,.06-.19,.09-.29,.09Z"/>
        <path class="cls-43" d="M213.28,363.96c-.16,0-.31-.07-.41-.21-.16-.23-.11-.54,.12-.7l3.82-2.72c.23-.16,.54-.11,.7,.12,.16,.23,.11,.54-.12,.7l-3.82,2.72c-.09,.06-.19,.09-.29,.09Z"/>
        <ellipse class="cls-43" cx="315.18" cy="574.18" rx="3.04" ry="2.92"/>
        <circle class="cls-43" cx="316.12" cy="566.12" r="1.64"/>
        <circle class="cls-43" cx="320.21" cy="559.46" r="1.52"/>
        <circle class="cls-43" cx="263.38" cy="559.5" r="1.01"/>
        <circle class="cls-43" cx="261.43" cy="553.5" r="1.4"/>
        <circle class="cls-43" cx="227.66" cy="728.18" r="3.15"/>
        <circle class="cls-43" cx="313.2" cy="731.69" r="2.04"/>
        <path class="cls-43" d="M331.07,544.96h0c-12.15,0-22.04-9.9-22.04-22.05v-3c0-.83,.67-1.5,1.5-1.5s1.5,.67,1.5,1.5v3c0,10.5,8.54,19.04,19.04,19.05,.83,0,1.5,.67,1.5,1.5,0,.83-.67,1.5-1.5,1.5Z"/>
        <path class="cls-43" d="M196.95,544.96c-.83,0-1.5-.67-1.5-1.5s.67-1.5,1.5-1.5c10.5,0,19.05-8.55,19.05-19.05v-3c0-.83,.67-1.5,1.5-1.5s1.5,.67,1.5,1.5v3c0,12.16-9.89,22.05-22.05,22.05Z"/>
        <path class="cls-43" d="M321.35,796.96h-43.85c-6.21,0-11.26-5.05-11.26-11.26v-.71c.02-15.85,12.92-28.75,28.77-28.77h8.8c15.88,0,28.8,12.92,28.8,28.8v.68c0,6.21-5.05,11.26-11.26,11.26Zm-26.34-36.74c-13.64,.02-24.76,11.13-24.77,24.77v.71c0,4,3.26,7.26,7.26,7.26h43.85c4,0,7.26-3.26,7.26-7.26v-.68c0-13.67-11.12-24.8-24.8-24.8h-8.8Z"/>
        <path class="cls-43" d="M316.49,748.2h-10.39c-.55,0-1-.45-1-1s.45-1,1-1h10.39c.55,0,1,.45,1,1s-.45,1-1,1Z"/>
        <path class="cls-43" d="M314.09,753.37h-7.99c-.55,0-1-.45-1-1s.45-1,1-1h7.99c.55,0,1,.45,1,1s-.45,1-1,1Z"/>
        <rect class="cls-54" x="326.97" y="401.05" width="4" height="117.08"/>
        <path class="cls-43" d="M196.29,492c-1.1,0-2-.9-2-2v-10.46c0-1.1,.9-2,2-2s2,.9,2,2v10.46c0,1.1-.9,2-2,2Z"/>
        <path class="cls-43" d="M333.11,521.35H196.29c-1.1,0-2-.9-2-2v-17.72c0-1.1,.9-2,2-2s2,.9,2,2v15.72h132.82v-131.27c0-15.04-5.85-29.18-16.48-39.81-10.63-10.64-24.77-16.49-39.81-16.5h-20.23c-15.04,0-29.17,5.85-39.8,16.48-10.64,10.63-16.49,24.77-16.5,39.81v82.48c0,1.1-.9,2-2,2s-2-.9-2-2v-82.46c0-16.13,6.28-31.27,17.67-42.66,11.39-11.38,26.53-17.65,42.63-17.65h20.21c16.13,0,31.27,6.28,42.66,17.67,11.39,11.39,17.66,26.53,17.65,42.64v133.27c0,1.1-.9,2-2,2Z"/>
        <path class="cls-43" d="M211.3,493.47c-.55,0-1-.45-1-1v-57.46c0-.55,.45-1,1-1s1,.45,1,1v57.46c0,.55-.45,1-1,1Z"/>
        <path class="cls-43" d="M217.6,446c-.55,0-1-.45-1-1v-17c0-.55,.45-1,1-1s1,.45,1,1v17c0,.55-.45,1-1,1Z"/>
        <ellipse class="cls-11" cx="230.9" cy="361.55" rx="4.39" ry="2.52" transform="translate(-184.93 466.96) rotate(-71.66)"/>
        <circle class="cls-14" cx="238.84" cy="364.02" r="1.42"/>
        <circle class="cls-14" cx="234.54" cy="366.53" r="1.09"/>
        <circle class="cls-14" cx="235.98" cy="356.44" r="1.45"/>
        <ellipse class="cls-11" cx="172.83" cy="405.11" rx="4.39" ry="2.52" transform="translate(-265.92 443.74) rotate(-71.93)"/>
        <circle class="cls-14" cx="181.24" cy="409.62" r="1.42"/>
        <circle class="cls-14" cx="176.94" cy="412.13" r="1.09"/>
        <circle class="cls-14" cx="178.38" cy="402.04" r="1.45"/>
        <path class="cls-7" d="M251.01,258.47l33,.62h0l-1,70.9c-.14,9.1-7.62,16.37-16.73,16.23-.02,0-.04,0-.06,0h0c-9.12-.2-16.37-7.74-16.21-16.86l1-70.9h0Z"/>
        <path class="cls-4" d="M284.82,308.38l-2.07,17.2c-3.76,.82-7.68,.51-11.26-.89-6.35-2.85-13-4.98-19.82-6.33h-.14l.16-10c10.96,1.96,22.17,1.96,33.13,0v.02Z"/>
        <path class="cls-46" d="M266.09,348.21c-.09,0-.19,0-.28,0-10.27-.21-18.43-8.68-18.26-18.88l1-70.9c0-.68,.37-1.32,.95-1.68,.39-.24,.84-.33,1.28-.28l32.83,.62c1.1,.02,1.98,.93,1.96,2.03l-1,70.89c-.15,10.1-8.41,18.2-18.47,18.2Zm-13.57-87.71l-.97,68.88c-.13,8.01,6.27,14.66,14.28,14.82,.07,0,.15,0,.22,0,7.93,0,14.4-6.35,14.52-14.26l.97-68.9-29.02-.55Z"/>
        <path class="cls-32" d="M319.62,27.36c-4.94-1.47-11.19,.36-14.76-3-41.33-38.7-101.39-13-101.39-13,25.31-.45,46.38,21.86,46.38,21.86v22h89.79s-1.27-19.79-3.13-20.87-16.89-6.99-16.89-6.99Z"/>
        <path class="cls-9" d="M304.86,24.38c-41.33-38.7-105.71-13.87-105.71-13.87,6.22-.11,21.17,3.88,26.62,5.84,19.85-9.33,49.51-6.63,74.77,7.21l4.32,.82Z"/>
        <path class="cls-11" d="M305.26,23.36c-8.89-8.49-20.28-13.88-32.48-15.37-23.16-5.17-45.39,.43-56.39,4.14-3.55-.83-7.19-1.21-10.84-1.14,0,0,58.46-26.89,99.71,12.37Z"/>
        <path class="cls-9" d="M357.22,50.21c40.53,46-10.33,170.52-10.33,170.52"/>
        <path class="cls-9" d="M185.46,183.13s-25.71-22.39-11.69-86.43c0,0-11,8.72-15.46,17,0,0-12.32-61.9,45.92-85.7,29.4-12,49.13,3,58.67,17.32"/>
        <path class="cls-32" d="M346.89,206.62l9.59-62.27c.03-23.54-9.33-46.13-26-62.75-1-1-1.91-1.87-2.91-2.77-15.56,9.41-36.56,15.16-59.83,15.16s-44.32-5.78-59.83-15.2c-18.45,16.8-28.94,40.61-28.9,65.56v33.31c-6.57-9.32-18.36-33.92-7.85-81.89,0,0-11,8.72-15.47,17,0,0-8.86-47,47.43-75.07,16.21-8.1,32.25-8.71,56.51,8.69l-.61-5.8s53.2-34.39,96.12,9.4c31.38,32,4.47,128.43-8.25,156.63Z"/>
        <path class="cls-30" d="M173.4,166.75s-11.54-54.42,26.91-82.2l-21.3,85.81-5.61-3.61Z"/>
        <path class="cls-43" d="M346.34,224.16c-.24,0-.49-.04-.73-.14-1.03-.4-1.54-1.56-1.13-2.59,.49-1.25,48.43-125.56,9.16-170.12-7.23-8.31-16.34-15.07-26.38-19.58-1.01-.45-1.46-1.64-1.01-2.64,.45-1.01,1.64-1.46,2.64-1.01,10.56,4.74,20.16,11.86,27.75,20.59,17.24,19.56,21.03,54.9,11.26,105.03-7.22,37.04-19.58,68.86-19.7,69.18-.31,.79-1.06,1.27-1.86,1.27Z"/>
        <path class="cls-41" d="M335.23,47.49c-.31,0-.62-.13-.85-.39-1.25-1.44-2.73-2.62-4.41-3.53-.54-.29-.75-.97-.45-1.52s.97-.75,1.52-.45c1.91,1.03,3.61,2.39,5.03,4.03,.41,.47,.36,1.17-.11,1.58-.21,.18-.47,.27-.73,.27Z"/>
        <ellipse class="cls-46" cx="325.4" cy="40.02" rx="1.62" ry="2.21" transform="translate(99.26 277.4) rotate(-53.4)"/>
        <path class="cls-7" d="M185.66,178.86l10.11,.2c13.18,.31,23.64,11.2,23.43,24.38h0c-.21,13.14-11.04,23.62-24.18,23.41-.03,0-.07,0-.1,0l-10.1-.2c-13.18-.31-23.65-11.19-23.44-24.38h0c.21-13.14,11.04-23.62,24.18-23.41,.03,0,.07,0,.1,0Z"/>
        <path class="cls-43" d="M153.79,203.99s-.02,0-.04,0c-1.1-.02-1.98-.93-1.96-2.04,.1-5.39,1.84-10.53,5.03-14.88,.65-.89,1.91-1.08,2.8-.43,.89,.65,1.08,1.91,.43,2.8-2.7,3.67-4.17,8.02-4.25,12.58-.02,1.09-.91,1.96-2,1.96Z"/>
        <path class="cls-43" d="M187.84,228.53c-.14,0-.29,0-.43,0,0,0-.1,0-.11,0l-10.11-.2c-10.62-.24-19.92-6.8-23.71-16.72-.39-1.03,.12-2.19,1.15-2.58,1.03-.39,2.19,.12,2.58,1.15,3.21,8.39,11.08,13.94,20.06,14.14l10.1,.2c5.91,.09,11.42-2.08,15.61-6.13,4.18-4.05,6.54-9.49,6.63-15.31,.19-12.04-9.44-22.07-21.49-22.35l-10.1-.2c-3.98-.09-7.9,.92-11.34,2.91-.96,.55-2.18,.23-2.73-.73-.55-.96-.23-2.18,.73-2.73,4.08-2.36,8.72-3.54,13.42-3.45l10.11,.2c14.24,.33,25.63,12.18,25.4,26.41-.11,6.89-2.9,13.33-7.85,18.12-4.85,4.69-11.2,7.26-17.93,7.26Z"/>
        <path class="cls-3" d="M182.34,198.41l5.26,.1c6.86,.15,12.32,5.82,12.2,12.68h0c-.11,6.84-5.74,12.29-12.58,12.18-.02,0-.04,0-.06,0l-5.26-.1c-6.86-.15-12.32-5.82-12.2-12.68h0c.11-6.84,5.74-12.29,12.58-12.18,.02,0,.04,0,.06,0Z"/>
        <path class="cls-11" d="M169.93,193.72c.81-2.13,2.4-3.87,4.45-4.87,1.69-.66,.95-3.42-.75-2.74-2.78,1.17-4.99,3.39-6.16,6.17-.4,.69-.17,1.58,.51,2,.68,.39,1.55,.17,1.95-.51v-.05Z"/>
        <ellipse class="cls-11" cx="167.41" cy="199.92" rx="2.36" ry="1.89" transform="translate(-55.33 335.49) rotate(-81.38)"/>
        <path class="cls-7" d="M346.12,178.86l10.11,.2c13.18,.31,23.64,11.2,23.43,24.38h0c-.21,13.14-11.04,23.62-24.18,23.41-.03,0-.07,0-.1,0l-10.1-.2c-13.18-.31-23.65-11.19-23.44-24.38h0c.21-13.14,11.04-23.62,24.18-23.41,.03,0,.07,0,.1,0Z"/>
        <path class="cls-43" d="M355.88,228.53c-.14,0-.29,0-.43,0,0,0-.1,0-.11,0l-10.1-.2c-14.21-.33-25.6-12.15-25.4-26.36,.1-6.89,2.87-13.33,7.81-18.14,4.94-4.8,11.48-7.36,18.35-7.3h.16s-.04,2-.04,2l.04-2,10.11,.2c14.23,.34,25.62,12.18,25.39,26.41-.11,6.89-2.9,13.33-7.85,18.12-4.85,4.69-11.2,7.26-17.93,7.26Zm-10.24-48c-5.71,0-11.1,2.18-15.2,6.17-4.17,4.06-6.52,9.5-6.6,15.32-.17,12.02,9.47,22.02,21.49,22.3l10.09,.2c5.91,.08,11.42-2.08,15.61-6.13,4.18-4.05,6.54-9.49,6.63-15.31,.19-12.04-9.44-22.06-21.48-22.35l-10.1-.2h-.13c-.1,0-.21,0-.32,0Z"/>
        <path class="cls-3" d="M350.39,198.41l5.26,.1c6.86,.15,12.32,5.82,12.2,12.68h0c-.11,6.84-5.74,12.29-12.58,12.18-.02,0-.04,0-.06,0l-5.26-.1c-6.87-.15-12.32-5.81-12.21-12.68h0c.12-6.85,5.77-12.3,12.62-12.18,.01,0,.02,0,.03,0Z"/>
        <path class="cls-11" d="M333.18,196.12c.8-2.13,2.4-3.88,4.45-4.87,1.68-.66,.95-3.42-.76-2.74-2.78,1.17-4.99,3.39-6.15,6.17-.37,.68-.15,1.54,.51,1.95,.68,.39,1.55,.17,1.95-.51h0Z"/>
        <ellipse class="cls-11" cx="329.86" cy="201.65" rx="2.36" ry="1.89" transform="translate(82.18 498.51) rotate(-81.6)"/>
        <path class="cls-7" d="M357.1,145.07v78.55c0,49.01-39.73,88.74-88.74,88.74s-88.74-39.73-88.74-88.74v-78.55c-.03-24.94,10.47-48.74,28.91-65.53,15.51,9.42,36.6,15.2,59.83,15.2s44.31-5.75,59.84-15.19c1,.9,2,1.82,2.91,2.77,16.67,16.63,26.02,39.21,25.99,62.75Z"/>
        <path class="cls-11" d="M276.34,311.07c-2.27,.18-4.57,.26-6.89,.26-49,0-94-39.1-88.74-88.74v-78.55c-.03-24.94,10.47-48.74,28.91-65.53,2.81,1.7,2.21,3.3,5.37,4.75-14.94,15.88-26.5,37.26-26.5,60.78v78.55c0,46.71,35.97,86.95,87.85,88.48Z"/>
        <circle class="cls-7" cx="318.63" cy="172.14" r="6.5"/>
        <ellipse class="cls-11" cx="201.85" cy="103.82" rx="9.83" ry="6.96" transform="translate(11.02 226.72) rotate(-60)"/>
        <ellipse class="cls-11" cx="213.77" cy="102.75" rx="2.03" ry="2.86"/>
        <circle class="cls-11" cx="211.89" cy="110.05" r="1.65"/>
        <path class="cls-5" d="M331.59,82.74c-.95-1-1.91-1.87-2.9-2.77-2.96,1.79-6.02,3.4-9.17,4.83,.41,.44,.79,.89,1.19,1.33-28.48,13.6-58.12,10.49-58.42,10.45-1.32-.15-2.51,.8-2.65,2.11-.15,1.32,.8,2.51,2.11,2.66,3.03,.3,6.07,.44,9.11,.41,11.57,0,32.47-1.7,53.06-11.86,12.71,15.74,19.63,35.36,19.6,55.59v78.55c0,46.28-35.57,84.8-81.71,88.46,2.32,.18,4.67,.28,7,.28,49,0,88.73-39.72,88.74-88.72v-78.57c.04-23.54-9.3-46.12-25.96-62.75Z"/>
        <g class="cls-57">
          <ellipse class="cls-3" cx="318.48" cy="97.54" rx="3.83" ry="2.91"/>
          <ellipse class="cls-3" cx="324.52" cy="100.76" rx="1.56" ry="1.18"/>
          <ellipse class="cls-3" cx="313.15" cy="101.95" rx="1.97" ry="1.5"/>
        </g>
        <path class="cls-30" d="M357.1,123.99c-.85,0-1.59-.6-1.76-1.43-5.5-25.72-19.65-37.45-19.8-37.57-.74-.66-.81-1.8-.15-2.54,.62-.7,1.67-.81,2.42-.25,.62,.5,15.29,12.66,21.05,39.61,.2,.97-.42,1.93-1.39,2.14-.12,.02-.25,.04-.37,.04Z"/>
        <path class="cls-46" d="M249.85,49.09c-.43,0-.85-.25-1.03-.68-3.38-7.9-11.94-13.74-21.79-14.88-4.45-.47-8.93-.18-13.29,.87-.6,.15-1.21-.23-1.35-.83-.14-.6,.23-1.21,.83-1.35,4.61-1.1,9.34-1.41,14.06-.91,10.65,1.23,19.91,7.59,23.6,16.22,.24,.57-.02,1.23-.59,1.47-.14,.06-.29,.09-.44,.09Z"/>
        <path class="cls-46" d="M199.43,39.65c-.41,0-.8-.22-1-.61-.28-.55-.07-1.23,.48-1.51,2.19-1.13,4.46-2.15,6.76-3.05,.58-.22,1.23,.06,1.45,.64,.22,.58-.06,1.23-.64,1.45-2.22,.87-4.42,1.86-6.54,2.95-.16,.08-.34,.12-.51,.12Z"/>
        <path class="cls-46" d="M293.73,27.36c-.32,0-.64-.14-.86-.4-11.27-13.53-35.68-15.19-35.93-15.21-.62-.04-1.09-.57-1.05-1.19,.04-.62,.56-1.09,1.19-1.05,.26,.02,6.46,.42,14.2,2.57,7.19,2,17.08,5.95,23.32,13.44,.4,.48,.33,1.18-.14,1.58-.21,.17-.46,.26-.72,.26Z"/>
        <circle class="cls-30" cx="287.08" cy="76.52" r="3.8"/>
        <circle class="cls-30" cx="294.42" cy="82.04" r="2.5"/>
        <circle class="cls-30" cx="279.79" cy="72.72" r="1.84"/>
        <circle class="cls-30" cx="276.11" cy="76.52" r=".83"/>
        <circle class="cls-30" cx="294.42" cy="74.92" r="1.6"/>
        <circle class="cls-30" cx="276.11" cy="83.63" r="3.46"/>
        <path class="cls-30" d="M218.56,86.09s8.46-7.84,6.36-18.92c6.71,5.45,9.56,14.35,7.28,22.68"/>
        <path class="cls-30" d="M245.62,89.84s6.2-14.43,2.46-33.62c0,0,11.18,13.24,10.3,39"/>
        <path class="cls-30" d="M255.41,92.99c4.63-1.92,7.7-10.82,7.56-17.21,4.47,5.46,5.87,12.81,3.71,19.53"/>
        <path class="cls-30" d="M229.84,89.49c3.52-1.46,5.86-8.22,5.75-13.08,3.4,4.15,4.46,9.74,2.82,14.84"/>
        <path class="cls-30" d="M235.74,89.71c2.59-1.07,4.31-6,4.23-9.63,2.48,3.06,3.25,7.16,2.04,10.91"/>
        <path class="cls-30" d="M240.53,90.99c2.59-1.07,4.31-6,4.23-9.63,2.5,3.05,3.29,7.17,2.08,10.93"/>
        <circle class="cls-46" cx="264.7" cy="51.87" r="2.23"/>
        <path class="cls-55" d="M326.86,291.66c-34.19,29.53-85.08,28.76-118.36-1.79l11.26-33c2.08-7.08,8-13.3,15.32-14.64h67.36c7.33,1.33,13.25,7.52,15.34,14.64l9.08,34.79Z"/>
        <path class="cls-51" d="M214.5,168.19c-1.16,.06-2.15-.83-2.21-1.99-.05-.86,.43-1.65,1.21-2.01,9.94-5.02,21.66-5.09,31.67-.21,1.04,.52,1.46,1.78,.94,2.82-.52,1.04-1.78,1.46-2.82,.94-8.8-4.28-19.09-4.22-27.84,.17-.29,.17-.61,.27-.95,.28Z"/>
        <path class="cls-51" d="M290.1,168.19c-1.16,.06-2.15-.83-2.21-1.99-.05-.86,.43-1.65,1.21-2.01,9.94-5.02,21.66-5.09,31.67-.21,1.04,.52,1.46,1.78,.94,2.82-.52,1.04-1.78,1.46-2.82,.94-8.8-4.28-19.09-4.22-27.84,.17-.29,.17-.61,.27-.95,.28Z"/>
        <path class="cls-46" d="M169.13,206.1c-.33,0-.67-.11-.95-.34-.64-.52-.74-1.47-.21-2.11,2.99-3.65,7.18-6.19,11.81-7.13,.81-.17,1.6,.36,1.77,1.17,.17,.81-.36,1.6-1.17,1.77-3.95,.81-7.53,2.97-10.09,6.09-.3,.36-.73,.55-1.16,.55Z"/>
        <path class="cls-46" d="M369.06,206.1c-.43,0-.87-.19-1.16-.55-2.55-3.12-6.13-5.28-10.08-6.09-.81-.17-1.33-.96-1.17-1.77,.17-.81,.96-1.34,1.77-1.17,4.62,.95,8.81,3.48,11.8,7.13,.52,.64,.43,1.59-.21,2.11-.28,.23-.62,.34-.95,.34Z"/>
        <path class="cls-51" d="M217.02,306.11c-.17,0-.34-.04-.5-.13-.48-.28-.64-.89-.37-1.37l2.5-4.35c.28-.48,.89-.64,1.37-.37,.48,.28,.64,.89,.37,1.37l-2.5,4.35c-.19,.32-.52,.5-.87,.5Z"/>
        <path class="cls-51" d="M232.66,305.73c-.17,0-.34-.04-.5-.13-.48-.28-.64-.89-.37-1.37l2.51-4.35c.28-.48,.89-.64,1.37-.37,.48,.28,.64,.89,.37,1.37l-2.51,4.35c-.19,.32-.52,.5-.87,.5Z"/>
        <path class="cls-51" d="M213.62,292.29c-.17,0-.34-.04-.5-.13-.48-.28-.64-.89-.37-1.37l2.51-4.36c.28-.48,.89-.64,1.37-.37,.48,.28,.64,.89,.37,1.37l-2.51,4.36c-.19,.32-.52,.5-.87,.5Z"/>
        <path class="cls-51" d="M229.79,265.04c-.17,0-.34-.04-.5-.13-.48-.28-.64-.89-.37-1.37l2.5-4.35c.28-.48,.89-.64,1.37-.37,.48,.28,.64,.89,.37,1.37l-2.5,4.35c-.19,.32-.52,.5-.87,.5Z"/>
        <path class="cls-51" d="M217.92,273.23c-.17,0-.34-.04-.5-.13-.48-.28-.64-.89-.37-1.37l2.51-4.35c.28-.48,.89-.64,1.37-.37,.48,.28,.64,.89,.37,1.37l-2.51,4.35c-.19,.32-.52,.5-.87,.5Z"/>
        <path class="cls-51" d="M222.53,282.26c-.17,0-.34-.04-.5-.13-.48-.28-.64-.89-.37-1.37l2.51-4.35c.28-.48,.89-.64,1.37-.37,.48,.28,.64,.89,.37,1.37l-2.51,4.35c-.19,.32-.52,.5-.87,.5Z"/>
        <path class="cls-51" d="M229.79,292.96c-.17,0-.34-.04-.5-.13-.48-.27-.64-.89-.37-1.37l2.5-4.36c.27-.48,.88-.64,1.37-.37,.48,.27,.64,.89,.37,1.37l-2.5,4.36c-.19,.32-.52,.5-.87,.5Z"/>
        <path class="cls-51" d="M320.14,306.11c-.35,0-.68-.18-.87-.5l-2.51-4.35c-.28-.48-.11-1.09,.37-1.37,.48-.28,1.09-.11,1.37,.37l2.51,4.35c.28,.48,.11,1.09-.37,1.37-.16,.09-.33,.13-.5,.13Z"/>
        <path class="cls-51" d="M306.23,310.36c-.35,0-.68-.18-.87-.5l-2.51-4.35c-.28-.48-.11-1.09,.37-1.37,.48-.28,1.09-.11,1.37,.37l2.51,4.35c.28,.48,.11,1.09-.37,1.37-.16,.09-.33,.13-.5,.13Z"/>
        <path class="cls-51" d="M323.53,292.29c-.35,0-.68-.18-.87-.5l-2.51-4.36c-.28-.48-.11-1.09,.37-1.37s1.09-.11,1.37,.37l2.51,4.36c.28,.48,.11,1.09-.37,1.37-.16,.09-.33,.13-.5,.13Z"/>
        <path class="cls-51" d="M303.99,262.86c-.35,0-.68-.18-.87-.5l-2.51-4.35c-.28-.48-.11-1.09,.37-1.37,.48-.28,1.09-.11,1.37,.37l2.51,4.35c.28,.48,.11,1.09-.37,1.37-.16,.09-.33,.13-.5,.13Z"/>
        <path class="cls-51" d="M319.23,273.23c-.35,0-.68-.18-.87-.5l-2.5-4.35c-.27-.48-.11-1.09,.37-1.37,.48-.27,1.09-.11,1.37,.37l2.5,4.35c.27,.48,.11,1.09-.37,1.37-.16,.09-.33,.13-.5,.13Z"/>
        <path class="cls-51" d="M311.11,280.08c-.35,0-.68-.18-.87-.5l-2.51-4.35c-.28-.48-.11-1.09,.37-1.37,.48-.28,1.09-.11,1.37,.37l2.51,4.35c.28,.48,.11,1.09-.37,1.37-.16,.09-.33,.13-.5,.13Z"/>
        <path class="cls-51" d="M305.24,292.29c-.35,0-.68-.18-.87-.5l-2.5-4.36c-.27-.48-.11-1.09,.37-1.37,.48-.27,1.09-.11,1.37,.37l2.5,4.36c.27,.48,.11,1.09-.37,1.37-.16,.09-.33,.13-.5,.13Z"/>
        <path class="cls-51" d="M241.67,316.06c-.55,0-1-.45-1-1v-6.25c0-.55,.45-1,1-1s1,.45,1,1v6.25c0,.55-.45,1-1,1Z"/>
        <path class="cls-51" d="M294.33,316.06c-.55,0-1-.45-1-1v-6.25c0-.55,.45-1,1-1s1,.45,1,1v6.25c0,.55-.45,1-1,1Z"/>
        <path class="cls-51" d="M250.81,305.5c-.55,0-1-.45-1-1v-6.25c0-.55,.45-1,1-1s1,.45,1,1v6.25c0,.55-.45,1-1,1Z"/>
        <path class="cls-51" d="M283.28,304.54c-.55,0-1-.45-1-1v-6.25c0-.55,.45-1,1-1s1,.45,1,1v6.25c0,.55-.45,1-1,1Z"/>
        <path class="cls-51" d="M293.36,295.41c-.55,0-1-.45-1-1v-2.65c0-.55,.45-1,1-1s1,.45,1,1v2.65c0,.55-.45,1-1,1Z"/>
        <path class="cls-51" d="M261.93,304.31c-.55,0-1-.45-1-1v-2.65c0-.55,.45-1,1-1s1,.45,1,1v2.65c0,.55-.45,1-1,1Z"/>
        <path class="cls-51" d="M263.25,319.21c-.55,0-1-.45-1-1v-6.25c0-.55,.45-1,1-1s1,.45,1,1v6.25c0,.55-.45,1-1,1Z"/>
        <path class="cls-43" d="M270.67,239.73c-.81,0-1.56-.49-1.87-1.29-2.01-5.28-3.21-10.82-3.57-16.46,0-.04,0-.08,0-.12v-13.73c0-1.1,.9-2,2-2s2,.9,2,2v13.67c.33,5.22,1.45,10.34,3.31,15.22,.39,1.03-.12,2.19-1.16,2.58-.23,.09-.48,.13-.71,.13Z"/>
        <path class="cls-38" d="M335.08,179.83c3.21,.2,5.98-2.25,6.17-5.47,.09-1.47-.38-2.93-1.32-4.06-.81-1-20.21-23.49-58.95-13.1-3.05,1.04-4.68,4.35-3.64,7.4,.94,2.76,3.78,4.4,6.64,3.84,31.23-8.42,46.4,8.6,47,9.33,1.03,1.21,2.51,1.95,4.1,2.06Z"/>
        <path class="cls-47" d="M278.22,163.44c.84,3.11,4.04,4.95,7.15,4.11,0,0,0,0,0,0,31.22-8.42,46.38,8.6,47,9.32,2.09,2.45,5.78,2.73,8.22,.63,1.68-1.44,2.4-3.71,1.86-5.85-.36,.64-.84,1.21-1.41,1.68-1.15,.98-2.64,1.47-4.15,1.37-1.56-.1-3.02-.82-4.05-2-.63-.73-15.74-17.74-47-9.32-3.11,.83-6.31-1.01-7.15-4.12h0c-.68,1.28-.84,2.78-.47,4.18Z"/>
        <path class="cls-46" d="M335.45,181.34c-.15,0-.3,0-.45-.01,0,0,0,0,0,0-1.98-.13-3.85-1.07-5.14-2.58-.16-.19-14.57-17.19-45.47-8.86-.03,0-.07,.02-.1,.02-3.58,.7-7.17-1.38-8.35-4.83-.63-1.85-.5-3.84,.36-5.6,.86-1.76,2.36-3.07,4.21-3.7,40.28-10.81,60.4,13.33,60.6,13.58,1.18,1.43,1.77,3.24,1.65,5.1-.12,1.95-.99,3.75-2.46,5.04-1.35,1.2-3.06,1.84-4.85,1.84Zm-.27-3.01c1.15,.07,2.26-.31,3.13-1.08,.87-.77,1.38-1.82,1.45-2.98,.07-1.1-.28-2.17-.98-3.02-.2-.24-19.08-22.89-57.4-12.61-1,.34-1.88,1.12-2.39,2.16-.51,1.04-.59,2.21-.21,3.31,.69,2.03,2.78,3.25,4.88,2.86,32.72-8.8,48.34,9.65,48.5,9.84,.75,.88,1.86,1.44,3.04,1.51Z"/>
        <path class="cls-38" d="M196.01,180.05c-3.21,.09-5.88-2.44-5.96-5.65-.04-1.49,.49-2.94,1.49-4.05,.85-.94,21.05-22.67,59.41-10.79,3.01,1.14,4.53,4.51,3.38,7.52-1.05,2.76-3.99,4.3-6.85,3.59-30.87-9.63-46.68,6.78-47.34,7.49-1.07,1.16-2.56,1.84-4.13,1.89Z"/>
        <path class="cls-47" d="M253.43,165.91c-.96,3.07-4.23,4.78-7.3,3.82-30.87-9.63-46.68,6.78-47.34,7.48-2.2,2.35-5.89,2.48-8.24,.29-1.61-1.5-2.24-3.78-1.62-5.9,.33,.66,.79,1.25,1.34,1.73,1.11,1.03,2.58,1.58,4.1,1.53,1.57-.04,3.05-.7,4.12-1.85,.66-.7,16.42-17.11,47.34-7.48,3.07,.96,6.34-.76,7.3-3.84,0,0,0,0,0,0h0c.63,1.32,.73,2.83,.3,4.22Z"/>
        <path class="cls-43" d="M194.67,181.63c-1.89,0-3.67-.71-5.04-2.02-1.42-1.35-2.22-3.17-2.27-5.12-.05-1.87,.62-3.67,1.86-5.06,.87-.97,21.73-23.39,60.97-11.22,3.87,1.48,5.76,5.72,4.32,9.5-1.31,3.43-5,5.37-8.58,4.5-30.16-9.4-45.27,6.38-45.9,7.05-1.32,1.44-3.21,2.31-5.17,2.37,0,0,0,0-.01,0-.06,0-.12,0-.19,0Zm.15-1.5h0Zm32.82-22.55c-23.32,0-35.55,13.15-36.19,13.86-.73,.82-1.12,1.88-1.09,2.98,.03,1.15,.5,2.23,1.34,3.02,.83,.79,1.93,1.23,3.08,1.19,1.16-.04,2.27-.55,3.06-1.4,.69-.74,17.05-17.84,48.9-7.91,2.01,.49,4.2-.66,4.97-2.69,.41-1.08,.38-2.26-.09-3.31-.47-1.06-1.33-1.87-2.41-2.28-8.01-2.48-15.2-3.46-21.57-3.46Z"/>
        <path class="cls-43" d="M268.29,314.37s0,0,0,0c-31.89,0-61.79-17.04-78.06-44.47-.56-.95-.25-2.18,.7-2.74s2.18-.25,2.74,.7c15.54,26.22,44.14,42.51,74.62,42.51,47.83,0,86.75-38.91,86.75-86.75v-78.55c.03-22.85-9.24-45.2-25.41-61.33-.56-.59-1.16-1.16-1.75-1.71-16.25,9.5-37.33,14.71-59.57,14.71s-43.29-5.22-59.57-14.72c-17.31,16.32-27.2,39.21-27.17,63.04v78.55c0,5.23,.47,10.5,1.41,15.64,.2,1.09-.52,2.13-1.61,2.33-1.09,.2-2.13-.52-2.33-1.61-.98-5.38-1.48-10.89-1.47-16.36v-78.55c-.03-25.45,10.75-49.87,29.56-67.01,.66-.6,1.63-.69,2.38-.23,15.83,9.61,36.71,14.91,58.79,14.91s42.98-5.29,58.78-14.9c.76-.46,1.72-.37,2.38,.22,1,.9,2.05,1.86,3.02,2.87,16.89,16.85,26.58,40.23,26.56,64.14v78.55c0,50.04-40.72,90.75-90.75,90.75Z"/>
        <ellipse class="cls-10" cx="310.42" cy="37.83" rx="4.7" ry="2.25"/>
        <circle class="cls-38" cx="317.03" cy="42.59" r="1.9"/>
        <ellipse class="cls-11" cx="193.8" cy="246.28" rx="4.05" ry="6.57" transform="translate(-71.41 79.33) rotate(-19.61)"/>
        <circle class="cls-13" cx="197.49" cy="236.04" r="1.97"/>
        <circle class="cls-15" cx="203.5" cy="247.49" r="2.37"/>
        <path class="cls-43" d="M187.12,261.18c-.75,0-1.47-.43-1.81-1.15-.91-1.96-1.63-4.02-2.13-6.12-.26-1.07,.41-2.15,1.48-2.41,1.08-.25,2.15,.41,2.41,1.48,.44,1.84,1.07,3.64,1.87,5.36,.47,1,.03,2.19-.97,2.66-.27,.13-.56,.19-.84,.19Z"/>
        <path class="cls-11" d="M251.19,199.48c.79-12.68-8.84-23.6-21.52-24.39-12.68-.79-23.6,8.84-24.39,21.52-.06,.96-.06,1.92,0,2.88l.36,8.8h45.19"/>
        <circle class="cls-43" cx="229.14" cy="191.2" r="13.33"/>
        <circle class="cls-11" cx="240.67" cy="197.54" r="5.94"/>
        <path class="cls-43" d="M250.99,208.44h-45.18c-.83,0-1.5-.67-1.5-1.5s.67-1.5,1.5-1.5h45.18c.83,0,1.5,.67,1.5,1.5s-.67,1.5-1.5,1.5Z"/>
        <path class="cls-11" d="M281.12,199.48c-.79-12.68,8.84-23.6,21.52-24.39,12.68-.79,23.6,8.84,24.39,21.52,.06,.96,.06,1.92,0,2.88l-.37,8.8h-45.18"/>
        <path class="cls-43" d="M326.5,208.44h-45.19c-.83,0-1.5-.67-1.5-1.5s.67-1.5,1.5-1.5h45.19c.83,0,1.5,.67,1.5,1.5s-.67,1.5-1.5,1.5Z"/>
        <circle class="cls-43" cx="304.64" cy="191.2" r="13.33"/>
        <circle class="cls-11" cx="316.17" cy="197.54" r="5.94"/>
        <path class="cls-43" d="M196.37,78.57c-.16,0-.31-.07-.41-.21-.16-.23-.11-.54,.12-.7l7.88-5.6c.23-.16,.54-.11,.7,.12,.16,.23,.11,.54-.12,.7l-7.88,5.6c-.09,.06-.19,.09-.29,.09Z"/>
        <path class="cls-43" d="M200.42,79.39c-.16,0-.31-.07-.41-.21-.16-.23-.11-.54,.12-.7l3.83-2.72c.23-.16,.54-.11,.7,.12,.16,.23,.11,.54-.12,.7l-3.83,2.72c-.09,.06-.19,.09-.29,.09Z"/>
        <path class="cls-43" d="M248.72,34.23c-.53,0-1.06-.21-1.45-.63-.21-.22-20.79-21.64-44.89-21.24-.97,.02-1.79-.64-1.99-1.58-.2-.94,.29-1.88,1.17-2.26,.62-.27,15.55-6.57,35.83-8.17,26.98-2.12,50.4,5.33,67.72,21.55,1.64,1.54,4.29,1.64,7.35,1.74,2.18,.08,4.44,.16,6.6,.8,1.06,.31,1.66,1.43,1.35,2.49-.31,1.06-1.43,1.66-2.49,1.35-1.67-.5-3.58-.56-5.6-.63-3.55-.12-7.22-.25-9.95-2.83C271.73-3.86,229.95,3.93,211.96,9.19c21.3,3.98,37.45,20.85,38.22,21.66,.76,.8,.72,2.07-.08,2.83-.39,.37-.88,.55-1.37,.55Z"/>
        <path class="cls-11" d="M173.29,53.71c-.44,0-.89-.15-1.26-.45-.86-.7-.99-1.96-.29-2.81,9.29-11.4,21.63-19.72,35.68-24.04,1.06-.32,2.17,.27,2.5,1.32s-.27,2.17-1.32,2.5c-13.3,4.09-24.97,11.95-33.76,22.74-.4,.49-.97,.74-1.55,.74Z"/>
        <circle class="cls-11" cx="180.87" cy="47.32" r="1.25"/>
        <g class="cls-61">
          <path class="cls-10" d="M279.48,46.8c-.96-1.52-2.24-2.82-3.74-3.81-1.56-.97-3.56-.86-5,.29-.65,.69-1.07,1.57-1.2,2.51-.29,1.61-.08,3.27,.58,4.77,.9,2,2.57,3.57,3.41,5.58,.43,1,.63,2.17,1.11,3.19,1.48,3.25,5.31,4.68,8.56,3.2,1.63-.74,2.87-2.12,3.44-3.81,.7-2,.6-4.65,2.45-5.7,.87-.42,1.85-.54,2.8-.34,1.68,.21,3.32,.71,5,.78,1.7,.19,3.4-.42,4.59-1.66,.54-.72,.91-1.56,1.08-2.45,.86-3.56,.18-7.71-2.58-10.11s-7.75-2.12-9.52,1.09c-.86,1.56-1.27,3.86-3,4.08-.78-.02-1.56-.19-2.28-.5-2.52-.52-4.99,1.09-5.51,3.61-.01,.07-.03,.14-.04,.22"/>
          <path class="cls-10" d="M308.48,55.23c-.45,1.85-1.8,3.36-3.6,4-1.78,.63-3.69,.85-5.57,.63-.62,.03-1.23-.19-1.7-.6-.25-.34-.38-.75-.37-1.17,0-.76,.32-1.48,.86-2h0c.22-.21,.51-.35,.81-.39,1.82-.26,3.52-1.04,4.9-2.25,.29-.32,.62-.58,1-.79,.43-.16,.89-.22,1.35-.18,.6-.02,1.19,.15,1.69,.49,.59,.59,.83,1.45,.63,2.26Z"/>
          <path class="cls-10" d="M178.65,69.37c1.81-.19,2.87-2.14,3.24-3.92s.42-3.72,1.51-5.17c1.59-2.14,5.05-2.23,7.13-.57,2.03,1.81,2.97,4.54,2.48,7.21-.21,1.71-.96,3.31-2.14,4.57-2.92,3-7.73,2.58-11.8,1.76-1.37-.27-2.71-1.1-2.73-2.5-.05-4.55,7-3,7.17-3.94"/>
          <path class="cls-10" d="M213.84,46.43c-.67-.27-1.4-.4-2.12-.36-3.41-.02-6.79,.55-10,1.71-1.44,.43-2.76,1.19-3.86,2.21-1.1,1.05-1.56,2.59-1.23,4.07,.35,.88,.81,1.72,1.38,2.48,.57,.94,.95,1.99,1.12,3.08-.54,.59-.97,1.26-1.27,2-.39,.91-.47,1.93-.24,2.89,.19,1.17,1.03,2.13,2.17,2.48,2.11,.56,4.16-1.21,5.17-3.14s1.48-4.16,2.82-5.88c1.16-1.28,2.51-2.39,4-3.27,1.49-.87,2.69-2.16,3.45-3.71,.62-1.65,.17-3.8-1.39-4.56Z"/>
          <path class="cls-10" d="M321.28,54.78c.52-.7,.47-1.68-.13-2.32-.6-.6-1.11-1.27-1.53-2-.4-1.28,.19-2.67,1.39-3.27,1.19-.55,2.57-.5,3.71,.15,1.11,.65,2.05,1.56,2.74,2.65,.46,.76,1.02,1.46,1.67,2.07,1.21,1,3,1.26,3.93,2.54,1.1,1.55,.32,3.68-.48,5.39-.31,.75-.71,1.46-1.19,2.11-1.4,1.54-3.36,2.48-5.44,2.6-1.47,.32-3.01,0-4.24-.87-1.2-1-1.45-2.79-1.38-4.38,.1-2.19,.67-4.33,1.68-6.27"/>
          <path class="cls-10" d="M345.71,55.65c-.52-1.26-1.48-2.28-2.7-2.89-1.28-.57-2.79-.15-3.6,1-.4,1.03-.49,2.15-.24,3.23,0,.05,0,.1,0,.15,.07,1.64-.36,3.25-1.21,4.65-1.38,2.46,.46,4.23,1.82,4.85,1.69,.71,3.64,.04,4.54-1.56,.36-.97,.61-1.98,.76-3,.39-1.42,1.31-2.73,1.29-4.21-.05-.78-.28-1.54-.66-2.22Z"/>
          <ellipse class="cls-10" cx="188.38" cy="51.88" rx="3.66" ry="2" transform="translate(3.97 116.47) rotate(-34.7)"/>
        </g>
        <ellipse class="cls-9" cx="241.1" cy="17.1" rx="1.8" ry="4.11" transform="translate(114.29 222.86) rotate(-62.41)"/>
        <circle class="cls-9" cx="248.54" cy="18.4" r="1.31"/>
        <path class="cls-11" d="M157.25,101.04s-.03,0-.04,0c-1.93-.02-3.48-1.61-3.46-3.54,0-.76,.3-18.8,7.56-34.23,.82-1.75,2.91-2.5,4.66-1.68,1.75,.82,2.5,2.91,1.68,4.66-6.6,14.02-6.9,31.16-6.9,31.33-.02,1.92-1.59,3.46-3.5,3.46Z"/>
        <path class="cls-43" d="M179.01,179.63c-.64,0-1.27-.31-1.66-.88-6.96-10.3-17.02-33.72-8.82-76.88-3.47,3.21-8.13,8-10.56,12.57-.4,.75-1.22,1.16-2.06,1.04-.84-.12-1.5-.76-1.67-1.59-.13-.65-3.11-16.11,1.13-34.76,3.94-17.3,15.12-40.56,46-53.18,35.78-14.61,55.8,10.13,61.08,18.06,.61,.92,.36,2.16-.56,2.77-.92,.61-2.16,.36-2.77-.56-6.23-9.35-24.17-29.67-56.24-16.58-23.47,9.59-38.13,26.49-43.58,50.23-2.65,11.56-2.36,22.03-1.82,28.01,5.18-6.8,12.57-12.66,12.94-12.96,.66-.52,1.58-.57,2.3-.12,.72,.45,1.07,1.3,.89,2.12-9.96,45.42,.14,69.36,7.04,79.58,.62,.92,.38,2.16-.54,2.78-.34,.23-.73,.34-1.12,.34Z"/>
        <path class="cls-46" d="M362.13,87.93c-.58,0-1.07-.44-1.12-1.03-2.19-27.33-19.38-39.04-19.55-39.16-.51-.34-.66-1.04-.32-1.55,.34-.52,1.04-.66,1.55-.32,.75,.49,18.27,12.37,20.55,40.85,.05,.62-.41,1.16-1.03,1.21-.03,0-.06,0-.09,0Z"/>
        <rect class="cls-11" x="249.38" y="469.4" width="192.34" height="44.4"/>
        <path class="cls-43" d="M441.72,515.8H249.38c-1.1,0-2-.9-2-2v-44.4c0-1.1,.9-2,2-2h147.03c1.1,0,2,.9,2,2s-.9,2-2,2H251.38v40.4h188.34v-40.4h-31.92c-1.1,0-2-.9-2-2s.9-2,2-2h33.92c1.1,0,2,.9,2,2v44.4c0,1.1-.9,2-2,2Z"/>
        <path class="cls-43" d="M440.35,491.71h-151.63c-.83,0-1.5-.67-1.5-1.5s.67-1.5,1.5-1.5h151.63c.83,0,1.5,.67,1.5,1.5s-.67,1.5-1.5,1.5Z"/>
        <path class="cls-43" d="M276.62,491.71h-25.81c-.83,0-1.5-.67-1.5-1.5s.67-1.5,1.5-1.5h25.81c.83,0,1.5,.67,1.5,1.5s-.67,1.5-1.5,1.5Z"/>
        <path class="cls-44" d="M440.35,495.81H253.21c-1.1,0-2-.9-2-2s.9-2,2-2h187.14c1.1,0,2,.9,2,2s-.9,2-2,2Z"/>
        <circle class="cls-7" cx="345.62" cy="504.87" r="21.5"/>
        <path class="cls-11" d="M82.38,380.65v-12.05l-3.19,1.52v10.53c0,.88,.72,1.59,1.6,1.59h0c.88,0,1.59-.71,1.59-1.59Z"/>
        <path class="cls-11" d="M93.18,371.05v-8.45l-3.17,1.52v6.93c0,.88,.72,1.59,1.6,1.59h0c.87-.01,1.57-.72,1.57-1.59Z"/>
        <circle class="cls-24" cx="127.15" cy="434.6" r="3"/>
        <circle class="cls-18" cx="125.35" cy="440" r=".6"/>
        <circle class="cls-18" cx="137.35" cy="442.4" r=".6"/>
        <circle class="cls-18" cx="136.15" cy="440" r=".6"/>
        <circle class="cls-18" cx="127.75" cy="438.8" r=".6"/>
        <circle class="cls-18" cx="132.55" cy="436.4" r=".6"/>
        <circle class="cls-18" cx="130.15" cy="438.8" r=".6"/>
        <circle class="cls-18" cx="133.75" cy="440" r=".6"/>
        <path class="cls-5" d="M347.35,525.99c-.97,0-1.82-.71-1.97-1.7-.17-1.09,.58-2.11,1.67-2.28,.6-.1,14.05-2.41,15.11-16.18,.08-1.1,1.05-1.92,2.15-1.84,1.1,.08,1.93,1.05,1.84,2.15-1.31,16.99-18.32,19.8-18.49,19.82-.1,.02-.21,.02-.31,.02Z"/>
        <path class="cls-5" d="M101.35,444.4c-.97,0-1.82-.71-1.97-1.7-.17-1.09,.58-2.11,1.67-2.28,.6-.1,14.05-2.41,15.11-16.18,.08-1.1,1.04-1.92,2.15-1.84,1.1,.08,1.93,1.05,1.84,2.15-1.31,16.99-18.32,19.8-18.49,19.82-.1,.02-.21,.02-.31,.02Z"/>
        <circle class="cls-5" cx="335.95" cy="519.8" r="3.6"/>
        <circle class="cls-5" cx="328.97" cy="511.4" r="3.6"/>
        <path class="cls-16" d="M124.75,386.4c-.44,0-.84-.29-.96-.74-.15-.53,.17-1.08,.7-1.23l13.2-3.6c.53-.15,1.08,.17,1.23,.7,.15,.53-.17,1.08-.7,1.23l-13.2,3.6c-.09,.02-.18,.04-.26,.04Z"/>
        <path class="cls-16" d="M59.95,394.8c-.44,0-.84-.29-.96-.74-.15-.53,.17-1.08,.7-1.23l13.2-3.6c.53-.15,1.08,.17,1.23,.7,.15,.53-.17,1.08-.7,1.23l-13.2,3.6c-.09,.02-.18,.04-.26,.04Z"/>
        <path class="cls-16" d="M118.75,402c-.06,0-.13,0-.2-.02-.54-.11-.89-.64-.78-1.18l1.2-6c.11-.54,.63-.89,1.18-.78,.54,.11,.89,.64,.78,1.18l-1.2,6c-.1,.48-.51,.8-.98,.8Z"/>
        <path class="cls-16" d="M76.75,409.2c-.06,0-.13,0-.2-.02-.54-.11-.89-.64-.78-1.18l1.2-6c.11-.54,.63-.89,1.18-.78,.54,.11,.89,.64,.78,1.18l-1.2,6c-.1,.48-.51,.8-.98,.8Z"/>
        <path class="cls-16" d="M79.15,394.8c-.06,0-.13,0-.2-.02-.54-.11-.89-.64-.78-1.18l1.2-6c.11-.54,.63-.89,1.18-.78,.54,.11,.89,.64,.78,1.18l-1.2,6c-.1,.48-.51,.8-.98,.8Z"/>
        <path class="cls-16" d="M117.55,390c-.12,0-.25-.02-.37-.07l-6-2.4c-.51-.21-.76-.79-.56-1.3,.2-.51,.78-.76,1.3-.56l6,2.4c.51,.21,.76,.79,.56,1.3-.16,.39-.53,.63-.93,.63Z"/>
        <path class="cls-16" d="M71.95,411.6c-.12,0-.25-.02-.37-.07l-6-2.4c-.51-.21-.76-.79-.56-1.3,.21-.51,.79-.76,1.3-.56l6,2.4c.51,.21,.76,.79,.56,1.3-.16,.39-.53,.63-.93,.63Z"/>
        <path class="cls-16" d="M133.15,394.8c-.12,0-.25-.02-.37-.07l-6-2.4c-.51-.21-.76-.79-.56-1.3,.21-.51,.79-.76,1.3-.56l6,2.4c.51,.21,.76,.79,.56,1.3-.16,.39-.53,.63-.93,.63Z"/>
        <path class="cls-16" d="M130.75,409.2c-.12,0-.25-.02-.37-.07l-6-2.4c-.51-.21-.76-.79-.56-1.3,.21-.51,.78-.76,1.3-.56l6,2.4c.51,.21,.76,.79,.56,1.3-.16,.39-.53,.63-.93,.63Z"/>
        <path class="cls-16" d="M69.55,381.6c-.12,0-.25-.02-.37-.07l-6-2.4c-.51-.21-.76-.79-.56-1.3,.21-.51,.78-.76,1.3-.56l6,2.4c.51,.21,.76,.79,.56,1.3-.16,.39-.53,.63-.93,.63Z"/>
        <ellipse class="cls-11" cx="145.74" cy="441.83" rx="1.2" ry="1.8" transform="translate(-306.09 330.9) rotate(-57.95)"/>
        <ellipse class="cls-11" cx="147.97" cy="445.47" rx=".44" ry=".65" transform="translate(-308.13 334.49) rotate(-57.95)"/>
        <ellipse class="cls-11" cx="121.75" cy="438.24" rx="1.2" ry="1.8" transform="translate(-314.3 308.87) rotate(-57.95)"/>
        <ellipse class="cls-11" cx="123.96" cy="441.87" rx=".44" ry=".65" transform="translate(-316.34 312.46) rotate(-57.95)"/>
        <path class="cls-43" d="M99.64,446.25c-6.68,0-13.31-2.89-17.85-8.46-8-9.82-6.53-24.33,3.28-32.34,.64-.52,1.59-.43,2.11,.21,.52,.64,.43,1.59-.21,2.11-8.53,6.97-9.81,19.58-2.85,28.12,6.97,8.55,19.59,9.84,28.14,2.87,8.55-6.97,9.84-19.59,2.87-28.14-.52-.64-.43-1.59,.22-2.11,.64-.52,1.59-.43,2.11,.22,8.01,9.83,6.53,24.35-3.3,32.36-4.26,3.47-9.4,5.16-14.51,5.16Z"/>
        <path class="cls-43" d="M345.64,527.85c-6.68,0-13.31-2.89-17.85-8.46-8-9.82-6.53-24.33,3.28-32.34,.64-.53,1.59-.43,2.11,.21,.52,.64,.43,1.59-.21,2.11-8.53,6.97-9.81,19.58-2.85,28.12,6.97,8.55,19.59,9.84,28.14,2.87,8.55-6.97,9.84-19.59,2.87-28.14-.52-.64-.43-1.59,.22-2.11,.64-.52,1.59-.43,2.11,.22,8.01,9.83,6.53,24.35-3.3,32.36-4.26,3.47-9.4,5.16-14.51,5.16Z"/>
        <ellipse class="cls-11" cx="204.55" cy="396.8" rx="1.8" ry="3"/>
        <circle class="cls-11" cx="207.55" cy="389" r="1.2"/>
        <circle class="cls-11" cx="208.15" cy="408.8" r="1.8"/>
        <ellipse class="cls-42" cx="218.35" cy="383.6" rx="2.4" ry="4.2"/>
        <path class="cls-11" d="M201.16,778.56l-2.76-1.15,.58-1.38c.26-.62,6.52-15.26,21.66-16.52l1.49-.12,.25,2.99-1.5,.12c-13.29,1.11-19.08,14.55-19.14,14.68l-.58,1.38Z"/>
        <path class="cls-43" d="M249.35,796.96h-43.92c-6.21,0-11.26-5.05-11.26-11.26v-.71c0-7.7,3.01-14.92,8.46-20.36,5.44-5.42,12.66-8.41,20.34-8.41h.03v2s0-2,0-2h8.8c15.88,0,28.8,12.92,28.8,28.8v.68c0,6.21-5.05,11.26-11.26,11.26Zm-26.38-36.74c-6.62,0-12.83,2.57-17.52,7.24-4.69,4.68-7.28,10.9-7.28,17.53v.71c0,4,3.26,7.26,7.26,7.26h43.92c4,0,7.26-3.26,7.26-7.26v-.68c0-13.67-11.12-24.8-24.8-24.8h-8.84Z"/>
        <path class="cls-34" d="M238.41,252.54h57.09v13.11c0,15.76-12.78,28.54-28.54,28.54h0c-15.76,0-28.54-12.78-28.54-28.54h0v-13.11h0Z"/>
        <ellipse class="cls-56" cx="266.95" cy="271.4" rx="17.4" ry="10.8"/>
        <path class="cls-11" d="M291.37,266.37h-48.24c-1.92,0-3.48-1.56-3.48-3.48h0v-11.65h55.2v11.64c0,1.92-1.55,3.48-3.47,3.49,0,0,0,0,0,0Z"/>
        <path class="cls-39" d="M291.11,266.37h-47.71c-2.07,0-3.74-1.67-3.74-3.74v-1.76h55.2v1.76c0,2.07-1.67,3.74-3.74,3.74h-.01Z"/>
        <path class="cls-46" d="M294.85,267.87h-55.2c-.83,0-1.5-.67-1.5-1.5s.67-1.5,1.5-1.5h55.2c.83,0,1.5,.67,1.5,1.5s-.67,1.5-1.5,1.5Z"/>
        <path class="cls-46" d="M267.21,294.64c-16.84,0-30.54-13.7-30.54-30.54v-6.77c0-4.6,3.74-8.34,8.34-8.34h44.4c4.6,0,8.34,3.74,8.34,8.34v6.77c0,16.84-13.7,30.54-30.54,30.54Zm-22.2-41.65c-2.39,0-4.34,1.95-4.34,4.34v6.77c0,14.63,11.91,26.54,26.54,26.54s26.54-11.91,26.54-26.54v-6.77c0-2.39-1.95-4.34-4.34-4.34h-44.4Z"/>
        <path class="cls-43" d="M280.95,199.64c-.79,0-1.45-.61-1.5-1.41-.06-1.02-.06-2.05,0-3.06,.41-6.53,3.34-12.51,8.24-16.84s11.21-6.49,17.74-6.08c13.48,.84,23.77,12.5,22.92,25.98-.05,.83-.78,1.45-1.59,1.4-.83-.05-1.46-.76-1.4-1.59,.74-11.83-8.28-22.06-20.11-22.8-5.74-.36-11.26,1.54-15.57,5.33-4.31,3.8-6.88,9.05-7.24,14.78-.06,.89-.06,1.8,0,2.69,.05,.83-.58,1.54-1.4,1.59-.03,0-.06,0-.1,0Z"/>
        <path class="cls-43" d="M251.35,199.64s-.07,0-.1,0c-.83-.05-1.45-.77-1.4-1.6,.06-.94,.06-1.89,0-2.83-.78-11.83-11.02-20.82-22.87-20.04-11.83,.78-20.82,11.04-20.04,22.87,.05,.83-.57,1.54-1.4,1.6-.82,.06-1.54-.57-1.6-1.4-.89-13.48,9.35-25.17,22.83-26.06,13.49-.89,25.17,9.35,26.06,22.83,.07,1.07,.07,2.16,0,3.23-.05,.79-.71,1.4-1.5,1.4Z"/>
        <path class="cls-43" d="M316.6,438.5h-38.22c-.83,0-1.5-.67-1.5-1.5v-48.79c0-.83,.67-1.5,1.5-1.5h38.22c.83,0,1.5,.67,1.5,1.5v48.79c0,.83-.67,1.5-1.5,1.5Zm-36.72-3h35.22v-45.79h-35.22v45.79Z"/>
        <path class="cls-43" d="M316.15,401.37h-36c-.83,0-1.5-.67-1.5-1.5s.67-1.5,1.5-1.5h36c.83,0,1.5,.67,1.5,1.5s-.67,1.5-1.5,1.5Z"/>
      </g>
    </g>
  </g>
</svg>