<svg width="138" height="138" viewBox="0 0 138 138" fill="none" xmlns="http://www.w3.org/2000/svg">
<g clip-path="url(#clip0_35_3982)">
<path d="M68.985 136.386C106.282 136.386 136.518 106.15 136.518 68.853C136.518 31.5556 106.282 1.32001 68.985 1.32001C31.6876 1.32001 1.45203 31.5556 1.45203 68.853C1.45203 106.15 31.6876 136.386 68.985 136.386Z" fill="white" stroke="#010101" stroke-width="1.5" stroke-linecap="round" stroke-linejoin="round"/>
<path d="M93.471 114.244C103.749 134.461 35.391 130.668 43.965 115.824L45.158 94.963C48.261 94.578 51.458 94.229 54.655 93.909C53.862 87.503 52.778 79.687 52.352 79.64C51.257 79.516 50.392 79.415 49.421 79.249C45.549 78.574 41.451 77.064 39.45 73.683C38.207 71.587 37.946 69.059 37.887 66.625C37.621 55.612 40.374 44.706 44.11 34.315C46.348 28.092 51.02 27.239 53.051 27.239C52.607 30.294 65.973 29.551 67.667 32.138C72.285 39.214 67.64 49.892 75.965 52.089C76.202 50.964 77.925 49.093 79.056 48.886C89.495 46.974 89.053 73.517 77.981 69.514C78.982 80.663 78.908 85.186 80.294 94.15C81.964 94.097 83.474 94.073 84.782 94.073C85.86 94.073 86.914 94.085 87.932 94.103L93.471 114.244Z" fill="white" stroke="#010101" stroke-width="1.5" stroke-linecap="round" stroke-linejoin="round"/>
<path d="M25.759 50.033C25.348 50.42 24.83 50.685 24.447 51.099C24.064 51.513 23.845 52.176 24.168 52.638C24.308 52.839 25.13 53.28 24.818 54.636C24.664 55.305 23.55 55.616 23.268 56.242C22.666 57.581 23.709 58.309 23.036 59.807C22.675 60.61 21.55 60.879 21.227 62.704C20.99 64.046 21.414 64.748 21.254 65.435C21.03 66.397 19.699 66.815 19.551 67.792C19.394 68.826 20.676 69.602 20.684 70.647C20.692 71.754 19.275 72.753 19.81 73.722C19.996 74.059 20.378 74.249 20.577 74.579C21.097 75.444 20.115 76.388 19.572 77.238C18.881 78.32 18.917 79.819 19.371 80.82C20.289 82.397 20.432 84.401 19.746 86.092C19.487 86.73 19.11 87.406 19.311 88.065C19.582 88.957 20.76 89.291 21.108 90.156C21.397 90.874 21.014 91.673 20.996 92.446C20.969 93.577 21.715 94.562 21.998 95.519C22.704 97.12 23.936 98.759 25.631 98.325C40.525 94.513 46.27 94.826 54.657 93.908C54.694 88.621 55.262 85.358 55.346 79.935C51.6 80.458 47.74 78.862 45.049 76.204C42.358 73.546 40.754 69.932 40.011 66.223C39.268 62.514 41.154 45.388 44.559 36.854C47.524 37.154 50.714 33.849 51.248 30.917C52.456 33.02 54.874 34.368 57.298 34.287C55.827 36.688 58.257 39.682 60.816 40.857C61.498 41.17 62.286 41.516 62.508 42.233C62.68 42.788 62.445 43.38 62.443 43.961C62.438 45.2 63.452 46.168 64.348 47.023C67.289 49.827 69.764 53.118 71.644 56.72C71.883 54.494 74.536 53.06 76.692 53.663C78.848 54.266 80.319 56.42 80.636 58.636C80.995 61.139 80.039 63.793 78.166 65.492C76.293 67.191 73.559 67.884 71.103 67.284C72.141 71.071 72.763 74.972 72.954 78.894C72.995 79.745 73.016 80.606 72.856 81.443C72.567 82.957 71.692 84.455 72.087 85.946C72.218 86.44 72.483 86.889 72.622 87.381C72.802 88.018 72.761 88.694 72.719 89.354C72.439 93.74 72.159 98.126 71.879 102.512C71.782 104.034 71.691 105.607 72.209 107.042C73.354 110.215 77.258 112.178 77.375 115.55C78.736 116.094 80.476 115.079 80.672 113.627C79.848 113.43 79.921 112.199 80.373 111.482C80.825 110.766 81.492 109.99 81.219 109.188C81.057 108.712 80.574 108.332 80.618 107.831C80.667 107.28 81.299 107.014 81.673 106.606C82.265 105.961 82.187 104.976 82.198 104.101C82.236 101.163 83.783 96.658 85.182 94.074C85.521 93.447 87.234 94.258 87.923 94.074C89.044 93.774 89.797 94.001 91.846 94.074C103.19 94.507 111.729 95.675 118.211 101.089C117.451 100.297 119.594 95.887 119.26 94.842C118.926 93.797 116.884 89.312 117.603 88.119C118.322 86.926 119.544 85.752 119.2 84.402C118.758 82.665 116.014 82.195 115.822 80.413C115.639 78.707 118.045 77.49 117.752 75.8C117.5 74.344 115.398 73.756 115.21 72.29C115.005 70.691 117.257 69.179 116.396 67.816C116.13 67.395 115.633 67.179 115.312 66.799C113.988 65.233 116.379 62.336 114.864 60.954C114.231 60.377 113.17 60.421 112.616 59.768C111.568 58.534 113.397 56.407 112.435 55.104C111.802 54.247 110.373 54.394 109.682 53.583C108.869 52.63 109.612 51.102 109.146 49.939C108.521 48.379 106.184 48.31 105.226 46.93C104.444 45.804 104.843 44.189 104.173 42.993C103.831 42.382 103.246 41.948 102.816 41.396C101.968 40.307 101.785 38.862 101.414 37.532C99.451 30.491 93.551 24.041 86.815 21.203C83.319 19.73 78.387 20.828 74.82 19.536C71.476 18.325 67.443 17.285 64.612 19.439C63.077 16.341 58.925 15.808 55.472 15.974C53.368 16.075 51.247 16.29 49.255 16.973C43.95 18.793 40.334 23.596 37.052 28.144C36.441 28.991 35.825 29.845 35.391 30.795C35.088 31.457 34.877 32.159 34.578 32.822C34.222 33.611 33.744 34.337 33.109 35.246C32.426 36.42 31.532 37.471 30.483 38.333C29.825 38.874 29.043 39.451 28.97 40.299C28.914 40.956 29.32 41.593 29.241 42.248C29.14 43.085 28.325 43.61 27.658 44.125C26.991 44.64 26.353 45.511 26.742 46.259C26.851 46.469 27.031 46.637 27.124 46.854C27.377 47.445 26.908 48.075 26.489 48.562C26.07 49.049 25.652 49.74 25.756 50.033H25.759Z" fill="#010101" stroke="#010101" stroke-width="1.5" stroke-linecap="round" stroke-linejoin="round"/>
<path d="M50.367 51.618C48.972 54.897 47.578 58.177 46.183 61.456C47.954 61.824 49.726 62.192 51.497 62.56" fill="white"/>
<path d="M50.367 51.618C48.972 54.897 47.578 58.177 46.183 61.456C47.954 61.824 49.726 62.192 51.497 62.56" stroke="#010101" stroke-width="1.5" stroke-linecap="round" stroke-linejoin="round"/>
<path d="M51.937 79.599C55.617 79.677 59.465 79.719 62.759 78.075L51.937 79.599Z" fill="white"/>
<path d="M51.937 79.599C55.617 79.677 59.465 79.719 62.759 78.075" stroke="#010101" stroke-width="1.5" stroke-linecap="round" stroke-linejoin="round"/>
<path d="M124.238 107.698C112.008 125.048 91.818 136.388 68.988 136.388C45.908 136.388 25.528 124.808 13.358 107.148C16.338 103.038 20.268 99.718 25.628 98.328C30.548 97.048 37.558 95.908 45.158 94.958L46.438 107.368C46.518 108.448 46.648 110.018 46.768 111.568C46.998 114.478 49.508 116.668 52.428 116.498L85.398 116.288C88.518 116.108 90.818 113.308 90.398 110.208C90.088 107.958 89.618 103.938 89.418 102.818L87.928 94.098C109.318 94.508 118.258 97.428 124.238 107.698Z" fill="#55D087" stroke="#010101" stroke-width="1.5" stroke-linecap="round" stroke-linejoin="round"/>
<path d="M87.929 94.103L87.923 94.074" stroke="#010101" stroke-width="1.5" stroke-linecap="round" stroke-linejoin="round"/>
</g>
<defs>
<clipPath id="clip0_35_3982">
<rect width="136.566" height="136.568" fill="white" transform="translate(0.702026 0.570007)"/>
</clipPath>
</defs>
</svg>
