<svg width="137" height="137" viewBox="0 0 137 137" fill="none" xmlns="http://www.w3.org/2000/svg">
<g clip-path="url(#clip0_35_3743)">
<path d="M136.148 0.75H1.082V135.816H136.148V0.75Z" fill="white" stroke="#010101" stroke-width="1.5" stroke-linecap="round" stroke-linejoin="round"/>
<path d="M55.542 32.068C55.126 33.258 54.916 34.519 54.924 35.78C55.835 35.924 57.078 35.861 57.287 34.963C57.478 34.139 56.366 33.475 55.589 33.809C54.812 34.143 54.446 35.058 54.399 35.902C54.349 36.817 54.604 37.778 55.241 38.436C55.877 39.095 56.929 39.378 57.754 38.981C58.579 38.584 59.005 37.447 58.522 36.669C58.039 35.891 56.677 35.856 56.255 36.669C56.052 37.059 56.081 37.528 56.161 37.96C56.325 38.852 56.711 39.742 57.422 40.305C58.133 40.868 59.214 41.018 59.95 40.488C60.686 39.958 60.823 38.701 60.102 38.151C59.205 37.467 57.783 38.395 57.692 39.519C57.601 40.643 58.42 41.654 59.362 42.274C60.059 42.733 60.969 43.051 61.715 42.679C62.461 42.307 62.609 40.988 61.82 40.718C61.32 40.547 60.754 40.91 60.552 41.398C60.35 41.886 60.433 42.447 60.603 42.948C60.857 43.696 61.339 44.416 62.069 44.716C62.799 45.016 63.786 44.743 64.077 44.009C64.368 43.275 63.587 42.309 62.85 42.592C62.214 42.837 62.08 43.682 62.178 44.355C62.34 45.47 62.994 46.632 64.088 46.905C65.182 47.178 66.481 46 65.988 44.986C65.156 44.855 64.482 45.756 64.424 46.596C64.369 47.402 64.729 48.262 65.431 48.661C66.133 49.06 67.158 48.863 67.55 48.158C67.942 47.453 67.441 46.386 66.634 46.352C66.199 47.166 66.303 48.261 66.946 48.922C67.589 49.583 68.749 49.696 69.459 49.106C70.169 48.516 70.242 47.283 69.554 46.667C69.221 47.41 68.881 48.22 69.063 49.014C69.245 49.808 70.215 50.451 71.022 50.315C71.528 49.819 71.911 49.198 72.126 48.522C71.849 48.384 71.493 48.55 71.335 48.816C71.177 49.082 71.178 49.414 71.23 49.719C71.382 50.607 72.003 51.448 72.874 51.679C73.745 51.91 74.799 51.371 74.967 50.486C75.049 50.057 74.801 49.5 74.364 49.52C74.044 49.535 73.823 49.85 73.719 50.153C73.38 51.148 73.917 52.419 74.933 52.689C75.949 52.959 77.116 51.888 76.78 50.892C76.359 51.315 76.412 52.107 76.885 52.47C77.358 52.833 78.137 52.681 78.437 52.166" stroke="#010101" stroke-width="1.5" stroke-linecap="round" stroke-linejoin="round"/>
<path d="M45.293 34.334C45.034 35.125 44.994 35.987 45.178 36.799C45.767 36.642 46.351 36.316 46.621 35.77C46.891 35.224 46.717 34.442 46.154 34.209C45.529 34.716 45.92 35.889 46.703 36.074C47.486 36.259 48.298 35.621 48.5 34.842C48.649 34.265 48.399 33.5 47.808 33.421C47.533 34.2 48.191 35.151 49.017 35.168C49.843 35.185 50.54 34.261 50.296 33.472C50.214 33.207 50.002 32.945 49.724 32.947C49.273 32.951 49.131 33.576 49.24 34.014C49.409 34.693 50.018 35.375 50.701 35.217C50.996 35.149 51.235 34.938 51.444 34.721C51.77 34.383 52.072 33.981 52.118 33.513C52.164 33.045 51.857 32.518 51.389 32.477C50.768 32.422 50.389 33.321 50.759 33.822C51.129 34.323 51.917 34.356 52.449 34.03C52.823 33.801 53.115 33.387 53.079 32.95C53.043 32.513 52.588 32.122 52.169 32.252C52.193 32.918 52.815 33.504 53.481 33.49C54.147 33.476 54.743 32.863 54.738 32.196" stroke="#010101" stroke-width="1.5" stroke-linecap="round" stroke-linejoin="round"/>
<path d="M45.072 36.5C43.86 35.296 43.969 33.04 45.291 31.959C45.878 31.479 46.773 31.245 47.389 31.688C48.005 32.131 47.855 33.355 47.098 33.415C46.242 33.483 45.966 32.218 46.314 31.433C46.589 30.813 47.202 30.22 47.861 30.381C48.693 30.584 48.817 31.77 48.44 32.539C48.246 32.935 47.82 33.334 47.419 33.151C47.261 33.079 47.152 32.929 47.072 32.775C46.462 31.608 47.195 30.113 48.292 29.386C48.917 28.972 49.784 28.742 50.397 29.175C51.01 29.608 50.829 30.847 50.078 30.834C49.402 30.18 49.391 29.041 49.852 28.222C50.395 27.256 51.686 26.659 52.668 27.174C53.65 27.689 53.703 29.439 52.653 29.794C51.734 28.622 52.388 26.799 53.557 25.877C54.04 25.496 54.632 25.203 55.245 25.246C55.858 25.289 56.467 25.753 56.512 26.366C56.557 26.979 55.846 27.561 55.3 27.278C55.03 26.443 55.074 25.468 55.591 24.758C56.108 24.048 57.153 23.712 57.917 24.143C58.681 24.574 58.875 25.817 58.182 26.355C57.489 26.893 56.235 26.185 56.453 25.335C56.521 25.07 56.698 24.847 56.888 24.651C57.281 24.245 57.779 23.904 58.341 23.844C58.903 23.784 59.526 24.07 59.723 24.6C59.92 25.13 59.519 25.831 58.954 25.818C58.809 25.1 58.798 24.307 59.186 23.685C59.574 23.063 60.465 22.722 61.076 23.127C61.687 23.532 61.54 24.713 60.812 24.798C60.606 23.872 61.014 22.742 61.918 22.455C62.822 22.168 63.914 23.245 63.424 24.057C63.186 24.133 62.909 23.899 62.946 23.652" stroke="#010101" stroke-width="1.5" stroke-linecap="round" stroke-linejoin="round"/>
<path d="M63.187 23.936C63.054 23.279 63.301 22.562 63.8 22.115C64.299 21.668 65.029 21.5 65.678 21.667C65.923 21.73 66.161 21.841 66.338 22.02C66.925 22.616 66.529 23.744 65.757 24.067C65.69 24.095 65.618 24.119 65.546 24.108C65.435 24.091 65.352 23.996 65.296 23.898C65.023 23.428 65.144 22.79 65.513 22.392C65.882 21.994 66.456 21.823 66.998 21.866C67.4 21.897 67.81 22.049 68.067 22.359C68.324 22.669 68.388 23.155 68.145 23.477C67.902 23.799 67.338 23.838 67.107 23.508C66.881 23.185 67.05 22.731 67.299 22.426C67.932 21.649 69.071 21.329 70.015 21.664C70.442 21.816 70.858 22.142 70.909 22.592C70.96 23.042 70.433 23.505 70.05 23.264C69.605 22.985 69.883 22.274 70.291 21.942C70.647 21.653 71.096 21.445 71.552 21.487C72.008 21.529 72.452 21.876 72.497 22.332C72.542 22.788 72.071 23.249 71.635 23.109C71.24 22.554 71.865 21.784 72.53 21.632C73.12 21.496 73.819 21.66 74.149 22.167C74.479 22.674 74.227 23.509 73.63 23.61C73.336 23.102 73.6 22.367 74.141 22.139C74.682 21.911 75.375 22.213 75.601 22.755C75.827 23.297 75.574 23.984 75.063 24.273C74.59 23.787 74.789 22.879 75.369 22.529C75.949 22.179 76.746 22.341 77.249 22.796C77.512 23.034 77.717 23.372 77.681 23.724C77.645 24.076 77.29 24.398 76.949 24.302" stroke="#010101" stroke-width="1.5" stroke-linecap="round" stroke-linejoin="round"/>
<path d="M77.246 24.802C77.531 24.229 77.238 23.477 77.572 22.932C77.857 22.468 78.518 22.349 79.027 22.543C79.536 22.737 79.915 23.169 80.223 23.618C80.608 24.179 80.924 24.879 80.711 25.525C80.498 26.171 79.507 26.51 79.12 25.95C78.834 25.536 79.06 24.952 79.402 24.583C79.884 24.064 80.61 23.755 81.311 23.853C82.012 23.951 82.652 24.494 82.787 25.189C82.922 25.884 82.479 26.667 81.792 26.839C81.26 26.025 82.017 24.814 82.985 24.724C83.953 24.634 84.846 25.416 85.152 26.339C85.29 26.755 85.325 27.241 85.088 27.61C84.851 27.979 84.27 28.131 83.96 27.821C83.669 27.529 83.767 27.012 84.036 26.699C84.693 25.936 86.095 26.194 86.582 27.075C87.069 27.956 86.691 29.151 85.885 29.753C85.442 29.511 85.454 28.831 85.75 28.422C86.358 27.58 87.814 27.662 88.419 28.506C89.024 29.35 88.736 30.651 87.9 31.268C87.533 31.051 87.602 30.425 87.969 30.21C88.336 29.995 88.838 30.147 89.12 30.466C89.402 30.785 89.501 31.228 89.52 31.654C89.551 32.344 89.312 33.143 88.26 34.543C88.63 34.09 89.016 33.623 89.541 33.366C90.066 33.109 90.772 33.122 91.164 33.555C91.637 34.079 91.449 34.915 91.121 35.54C90.981 35.807 90.812 36.072 90.559 36.236C90.306 36.4 89.95 36.439 89.711 36.256C89.296 35.939 89.516 35.234 89.939 34.927C90.685 34.385 91.858 34.641 92.367 35.41C92.876 36.179 92.691 37.305 92.009 37.925C91.783 38.13 91.495 38.29 91.19 38.279C90.885 38.268 90.577 38.044 90.549 37.74C90.516 37.37 90.882 37.082 91.241 36.985C92.021 36.774 92.956 37.21 93.197 37.982C93.438 38.754 92.813 39.699 92.005 39.688C91.923 39.687 91.839 39.676 91.766 39.638C91.447 39.467 91.619 38.951 91.922 38.754C92.691 38.255 93.821 38.813 94.129 39.677C94.437 40.541 94.097 41.522 93.53 42.243C93.409 42.396 93.093 42.488 93.087 42.293" stroke="#010101" stroke-width="1.5" stroke-linecap="round" stroke-linejoin="round"/>
<path d="M92.111 42.808C92.546 41.988 93.35 41.374 94.255 41.168C95.009 41.997 95.071 43.37 94.395 44.263C94.1 44.653 93.639 44.963 93.152 44.916C92.665 44.869 92.234 44.342 92.414 43.887C92.51 43.644 92.743 43.481 92.982 43.376C93.463 43.164 94.039 43.132 94.507 43.371C94.975 43.61 95.298 44.147 95.211 44.665C95.124 45.183 94.576 45.601 92.111 42.808Z" stroke="#010101" stroke-width="1.5" stroke-linecap="round" stroke-linejoin="round"/>
<path d="M49.013 31.834C49.665 31.463 50.253 30.979 50.743 30.41C50.427 30.213 49.997 30.601 50.05 30.969C50.103 31.337 50.46 31.591 50.819 31.688C51.434 31.854 52.11 31.681 52.629 31.312C53.148 30.943 53.521 30.396 53.769 29.81C53.863 29.589 53.941 29.346 53.888 29.112C53.835 28.878 53.601 28.671 53.367 28.728C53.215 28.766 53.104 28.903 53.048 29.049C52.809 29.673 53.468 30.359 54.136 30.367C54.804 30.375 55.391 29.919 55.825 29.41C56.06 29.134 56.277 28.813 56.299 28.451C56.321 28.089 56.076 27.69 55.714 27.661C55.38 27.635 55.101 27.914 54.93 28.202C54.784 28.448 54.675 28.733 54.716 29.016C54.789 29.513 55.338 29.846 55.837 29.794C56.336 29.742 56.764 29.387 57.033 28.963C57.189 28.716 57.305 28.41 57.205 28.135C57.064 27.747 56.484 27.63 56.181 27.911C55.878 28.192 55.923 28.744 56.247 29.001C56.571 29.258 57.086 29.2 57.373 28.903C57.66 28.606 57.712 28.122 57.531 27.75" stroke="#010101" stroke-width="1.5" stroke-linecap="round" stroke-linejoin="round"/>
<path d="M58.213 29.015C57.561 29.766 57.12 30.697 56.952 31.677C57.469 31.825 58.072 31.939 58.507 31.622C58.942 31.305 58.814 30.407 58.278 30.444C58.108 30.456 57.957 30.558 57.833 30.674C57.026 31.431 57.213 32.966 58.179 33.506C59.145 34.046 60.551 33.404 60.774 32.32C60.823 32.08 60.819 31.818 60.695 31.606C60.455 31.195 59.831 31.144 59.435 31.41C59.039 31.676 58.846 32.16 58.777 32.632C58.647 33.513 58.941 34.512 59.699 34.979C60.457 35.446 61.661 35.105 61.866 34.238C61.938 33.934 61.869 33.58 61.627 33.384C61.235 33.067 60.633 33.31 60.287 33.676C59.793 34.198 59.557 34.979 59.765 35.668C59.973 36.357 60.657 36.895 61.375 36.856C62.093 36.817 62.737 36.136 62.665 35.421C62.643 35.2 62.552 34.977 62.377 34.841C61.974 34.531 61.366 34.834 61.084 35.257C60.57 36.029 60.741 37.195 61.488 37.744C62.235 38.293 63.444 38.074 63.907 37.27C64.108 36.921 64.137 36.413 63.817 36.168C63.505 35.93 63.039 36.075 62.742 36.332C62.173 36.823 61.973 37.697 62.273 38.387C62.573 39.077 63.346 39.528 64.094 39.448C64.585 39.396 65.08 39.088 65.21 38.611C65.34 38.134 64.952 37.548 64.46 37.596C64.287 37.613 64.128 37.699 63.994 37.809C63.503 38.217 63.374 38.999 63.709 39.543C64.044 40.087 64.8 40.325 65.386 40.07C65.682 39.941 65.938 39.684 65.991 39.365C66.044 39.046 65.843 38.685 65.527 38.624C65.122 38.545 64.774 38.953 64.682 39.355C64.517 40.077 64.911 40.888 65.581 41.204C66.251 41.52 67.127 41.309 67.58 40.723" stroke="#010101" stroke-width="1.5" stroke-linecap="round" stroke-linejoin="round"/>
<path d="M67.406 41.392L66.745 40.468C66.004 40.747 65.805 41.829 66.278 42.463C66.751 43.097 67.675 43.272 68.43 43.035C68.836 42.908 69.253 42.607 69.266 42.182C69.278 41.808 68.942 41.483 68.572 41.427C68.202 41.371 67.826 41.54 67.551 41.793C66.813 42.471 66.8 43.783 67.524 44.475C68.248 45.167 69.559 45.095 70.202 44.327C70.566 43.893 70.652 43.128 70.17 42.83C69.575 42.462 68.841 43.203 68.797 43.901C68.751 44.624 69.125 45.359 69.737 45.748C70.349 46.137 71.173 46.163 71.809 45.814C72.265 45.564 72.633 45.088 72.609 44.568C72.585 44.048 72.056 43.567 71.557 43.713C71.257 43.801 71.044 44.075 70.931 44.367C70.662 45.067 70.914 45.931 71.518 46.376C72.122 46.821 73.022 46.806 73.611 46.342C73.859 46.146 74.059 45.862 74.073 45.546C74.087 45.23 73.871 44.896 73.557 44.85C73.272 44.809 73 45.005 72.837 45.243C72.392 45.891 72.586 46.852 73.175 47.372C73.764 47.892 74.65 47.992 75.394 47.739C75.815 47.596 76.245 47.275 76.253 46.83C76.264 46.236 75.416 45.912 74.93 46.255C74.444 46.598 74.363 47.322 74.596 47.869C74.884 48.544 75.591 49.018 76.325 49.027C77.059 49.036 77.778 48.579 78.081 47.911C78.169 47.717 78.222 47.481 78.117 47.296C77.967 47.031 77.563 47.019 77.312 47.192C77.061 47.365 76.927 47.658 76.805 47.936C76.682 48.216 76.557 48.534 76.673 48.817C76.854 49.26 77.458 49.297 77.935 49.253C78.255 49.223 78.587 49.185 78.861 49.018C79.135 48.851 79.336 48.517 79.246 48.208C78.746 48.093 78.257 48.721 78.49 49.178C78.723 49.635 79.518 49.607 79.719 49.135" stroke="#010101" stroke-width="1.5" stroke-linecap="round" stroke-linejoin="round"/>
<path d="M77.989 65.165C82.947 67.922 88.29 65.385 88.426 60.553C88.496 58.067 87.443 55.602 85.721 53.807C85.007 53.063 84.164 52.416 83.188 52.084C81.042 51.353 78.435 52.444 77.588 54.515C75.758 52.088 72.76 50.923 70.137 49.389C63.256 45.364 58.501 36.298 54.227 31.832C52.018 32.734 49.809 33.636 47.6 34.538C46.893 34.827 46.177 35.12 45.569 35.582C44.76 36.195 44.19 37.066 43.665 37.935C41.849 40.94 40.367 44.142 39.184 47.448C35.82 56.844 36.161 67.353 40.163 75.108C41.336 77.382 45.231 82.662 52.906 81.625C52.906 84.183 52.906 90.205 52.936 93.23C48.184 94.059 41.479 94.838 36.683 95.36C29.648 96.124 35.128 109.195 35.725 114.821C36.156 118.883 36.922 123.015 39.012 126.524C41.59 130.853 85.513 130.859 88.341 129.198C91.976 127.063 97.961 126.958 95.06 108.213C94.085 101.913 93.947 100.007 91.184 94.238C87.764 93.907 81.937 93.63 77.684 93.359C77.741 84.673 77.935 73.306 77.989 65.165Z" fill="white" stroke="#010101" stroke-width="1.5" stroke-linecap="round" stroke-linejoin="round"/>
<path d="M52.906 81.625C56.671 81.261 60.62 80.517 63.27 77.818" stroke="#010101" stroke-width="1.5" stroke-linecap="round" stroke-linejoin="round"/>
<path d="M84.494 46.606C84.693 47.181 83.885 47.625 83.29 47.498C82.513 47.331 81.857 46.489 82.131 45.743C82.187 45.59 82.288 45.441 82.442 45.387C82.667 45.307 82.925 45.473 83.009 45.696C83.093 45.919 83.038 46.173 82.934 46.388C82.603 47.074 81.728 47.458 81.012 47.197C80.296 46.936 79.875 46.037 80.169 45.334C80.367 44.862 81.044 44.543 81.387 44.922C81.72 45.29 81.38 45.907 80.929 46.114C80.2 46.448 79.208 46.077 78.945 45.319C78.682 44.561 79.308 43.616 80.111 43.629C80.239 43.631 80.373 43.657 80.471 43.738C80.729 43.951 80.602 44.37 80.42 44.651C80.12 45.115 79.708 45.527 79.191 45.72C78.674 45.913 78.042 45.853 77.635 45.479C77.013 44.906 77.129 43.901 77.383 43.095C77.456 42.865 77.545 42.623 77.739 42.479C77.933 42.335 78.261 42.35 78.367 42.567C78.418 42.672 78.407 42.796 78.382 42.911C78.202 43.743 77.281 44.337 76.449 44.158C75.617 43.979 75.021 43.06 75.199 42.227C75.341 41.562 76.207 41.019 76.702 41.485C77.05 41.813 76.957 42.41 76.672 42.794C76.11 43.552 74.896 43.712 74.157 43.126C73.418 42.54 73.295 41.323 73.903 40.602C74.107 40.36 74.481 40.174 74.727 40.373C74.834 40.459 74.885 40.598 74.911 40.733C75.023 41.313 74.741 41.932 74.27 42.288C73.799 42.644 73.167 42.752 72.586 42.646C72.165 41.614 72.002 40.478 72.118 39.369C71.628 39.153 71.954 38.715 72.257 38.798C72.56 38.881 72.695 39.251 72.663 39.563C72.565 40.501 71.29 41.009 70.489 40.51C69.688 40.011 69.501 38.822 69.969 38.003C70.282 37.457 71.139 37.093 71.5 37.609C71.596 37.746 71.63 37.919 71.63 38.086C71.627 39.1 70.249 39.747 69.396 39.197C68.543 38.647 68.465 37.281 69.153 36.536C69.223 36.46 69.304 36.387 69.403 36.357C69.807 36.234 70.029 36.847 69.917 37.255C69.718 37.982 68.891 38.618 68.227 38.26C67.622 37.934 67.599 37.073 67.762 36.405C67.901 35.838 68.477 35.168 68.933 35.532C69.046 35.622 69.111 35.76 69.145 35.9C69.374 36.833 68.109 37.661 67.27 37.192C66.431 36.723 66.338 35.408 66.99 34.702C67.233 34.438 67.604 34.241 67.946 34.351C68.379 34.491 68.533 35.054 68.419 35.495C68.107 36.706 66.269 37.04 65.403 36.138C64.537 35.236 64.75 33.623 65.683 32.79C65.772 32.71 65.87 32.635 65.985 32.599C66.536 32.43 66.874 33.254 66.703 33.805C66.382 34.837 64.916 35.462 64.156 34.693C63.645 34.176 63.68 33.33 63.892 32.634C64.033 32.173 64.34 31.66 64.822 31.661C65.294 31.663 65.613 32.205 65.561 32.674C65.467 33.511 64.375 34.049 63.654 33.614C62.979 33.206 62.836 32.277 62.959 31.498C63.055 30.893 63.531 30.168 64.104 30.385C64.334 30.472 64.487 30.7 64.546 30.938C64.76 31.799 63.721 32.628 62.879 32.35C62.037 32.072 61.642 30.978 61.973 30.155C62.09 29.864 62.295 29.59 62.588 29.478C62.881 29.366 63.265 29.467 63.399 29.751C63.471 29.904 63.464 30.083 63.428 30.249C63.196 31.327 61.652 31.837 60.824 31.109C59.996 30.382 60.302 28.785 61.34 28.416C61.66 28.302 62.033 28.299 62.323 28.475C62.834 28.785 62.882 29.601 62.464 30.029C62.046 30.457 61.311 30.473 60.817 30.135C60.323 29.797 60.071 29.176 60.086 28.579C60.097 28.128 60.328 27.61 60.774 27.543C61.315 27.462 61.705 28.154 61.556 28.68C61.407 29.206 60.937 29.567 60.495 29.889C60.214 28.952 60.178 27.943 59.062 26.538L59.111 27.827L59.619 28.024C60.295 27.501 60.746 26.696 60.84 25.847C60.434 25.716 59.998 26.168 60.076 26.588C60.154 27.008 60.623 27.281 61.046 27.225C61.469 27.169 61.823 26.848 62.015 26.467C62.207 26.086 62.26 25.65 62.278 25.224C61.883 25.162 61.534 25.548 61.473 25.944C61.347 26.767 62.243 27.53 63.059 27.366C63.875 27.202 64.41 26.272 64.246 25.456C64.203 25.241 64.058 24.994 63.84 25.019C63.748 25.03 63.669 25.09 63.604 25.156C63.141 25.623 63.195 26.483 63.69 26.915C64.185 27.347 65.013 27.303 65.486 26.845C65.959 26.387 66.04 25.593 65.703 25.028C65.131 25.269 64.878 26.038 65.147 26.596C65.416 27.154 66.123 27.439 66.722 27.277C67.321 27.115 67.775 26.557 67.873 25.944C67.946 25.484 67.598 24.86 67.17 25.044C66.825 25.193 66.868 25.722 67.104 26.015C67.772 26.842 69.218 26.511 69.83 25.642C70.084 25.28 70.201 24.703 69.836 24.453C69.576 24.275 69.193 24.39 68.995 24.636C68.797 24.882 68.75 25.217 68.761 25.532C68.781 26.092 69.015 26.701 69.525 26.933C69.947 27.125 70.47 27.001 70.819 26.696C71.168 26.391 71.357 25.934 71.416 25.474C71.45 25.212 71.429 24.91 71.23 24.737C70.975 24.515 70.531 24.652 70.373 24.951C70.215 25.25 70.299 25.632 70.5 25.905C70.845 26.376 71.505 26.565 72.067 26.408C72.629 26.251 73.078 25.783 73.276 25.234C73.338 25.06 73.377 24.862 73.298 24.696C73.219 24.53 72.982 24.433 72.842 24.552C72.862 24.728 72.882 24.904 72.902 25.081" stroke="#010101" stroke-width="1.5" stroke-linecap="round" stroke-linejoin="round"/>
<path d="M73.717 25.536C73.601 26.312 73.896 27.138 74.477 27.665C74.858 27.394 75.257 27.1 75.433 26.667C75.609 26.234 75.444 25.629 74.992 25.51C74.475 25.373 74.017 25.96 74.013 26.495C74.008 27.282 74.674 27.99 75.45 28.122C76.226 28.254 77.041 27.861 77.504 27.224C77.687 26.971 77.825 26.658 77.763 26.352C77.701 26.046 77.369 25.787 77.076 25.895C76.886 25.965 76.769 26.158 76.711 26.352C76.525 26.971 76.857 27.703 77.446 27.971C78.035 28.239 78.805 28.008 79.149 27.461C79.285 27.245 79.356 26.961 79.239 26.733C79.063 26.388 78.529 26.369 78.237 26.622C77.945 26.875 77.857 27.296 77.87 27.683C77.892 28.314 78.206 28.994 78.803 29.198C79.344 29.383 79.967 29.106 80.309 28.648C80.651 28.19 80.755 27.593 80.741 27.022C80.475 26.825 80.073 26.933 79.847 27.175C79.621 27.417 79.529 27.752 79.459 28.076C79.323 28.703 79.285 29.475 79.796 29.864C80.067 30.07 80.435 30.109 80.77 30.048C81.671 29.885 82.378 28.989 82.326 28.075C81.873 27.851 81.304 28.236 81.162 28.722C81.02 29.208 81.184 29.727 81.381 30.193C81.579 30.66 81.861 31.154 82.344 31.309C82.824 31.463 83.366 31.211 83.675 30.812C83.984 30.413 84.1 29.898 84.152 29.397C83.528 29.601 83.045 30.182 82.959 30.833C82.873 31.484 83.187 32.171 83.736 32.53C84.229 32.853 84.929 32.89 85.389 32.522C85.849 32.154 85.933 31.362 85.488 30.976C84.982 30.536 84.099 30.862 83.835 31.478C83.597 32.034 83.789 32.741 84.276 33.1C84.763 33.459 85.496 33.433 86.281 33.453C86.152 33.97 85.801 34.4 85.6 34.893C85.399 35.386 85.4 36.049 85.841 36.347C86.374 36.332 86.954 36.256 87.329 35.876C87.704 35.496 87.684 34.723 87.184 34.537C86.441 34.866 85.885 35.634 85.9 36.447C85.915 37.26 86.567 38.041 87.376 38.116C88.185 38.191 89.002 37.46 88.937 36.65C88.931 36.58 88.919 36.507 88.876 36.451C88.783 36.329 88.596 36.34 88.448 36.38C87.682 36.586 87.056 37.269 86.955 38.056C86.854 38.843 87.309 39.68 88.04 39.989C88.771 40.298 89.712 40.023 90.13 39.348C90.2 39.235 90.257 39.11 90.267 38.978C90.302 38.525 89.752 38.203 89.309 38.303C88.866 38.403 88.54 38.774 88.284 39.149C88.004 39.559 87.762 40.011 87.702 40.504C87.642 40.997 87.792 41.537 88.179 41.847C88.724 42.283 89.534 42.142 90.161 41.834C90.505 41.664 90.848 41.428 90.987 41.07C91.126 40.712 90.962 40.221 90.587 40.139C90.362 40.09 90.133 40.193 89.94 40.317C89.337 40.703 88.893 41.329 88.727 42.026C88.567 42.698 88.797 43.58 89.472 43.726C89.996 43.839 90.484 43.452 90.882 43.092C91.005 42.981 91.136 42.853 91.147 42.688C91.167 42.409 90.805 42.229 90.543 42.324C90.281 42.419 90.119 42.681 90.009 42.938C89.71 43.632 89.654 44.495 90.109 45.099C90.564 45.703 91.627 45.817 92.043 45.187" stroke="#010101" stroke-width="1.5" stroke-linecap="round" stroke-linejoin="round"/>
<path d="M86.821 31.363C86.424 32.076 86.448 33.005 86.882 33.696C87.535 33.372 88.064 32.806 88.341 32.132C88.216 31.989 87.974 31.972 87.83 32.094C87.686 32.216 87.665 32.459 86.821 31.363Z" stroke="#010101" stroke-width="1.5" stroke-linecap="round" stroke-linejoin="round"/>
<path d="M65.431 27.502C64.891 28.329 64.814 29.439 65.235 30.333C65.905 30.387 66.629 30.379 67.183 29.999C67.737 29.619 67.982 28.734 67.502 28.264C67.074 27.845 66.286 28.005 65.934 28.49C65.581 28.975 65.606 29.656 65.846 30.205C66.245 31.121 67.281 31.764 68.262 31.57C69.243 31.376 69.974 30.251 69.631 29.312C68.851 29.691 68.267 30.511 68.296 31.378C68.325 32.245 69.053 33.07 69.92 33.09C70.787 33.11 71.582 32.196 71.342 31.363C71.284 31.164 71.163 30.967 70.97 30.891C70.611 30.75 70.245 31.082 70.044 31.411C69.462 32.366 69.366 33.679 70.044 34.569C70.722 35.459 72.246 35.642 72.955 34.777C73.333 34.315 73.369 33.523 72.874 33.188C72.391 32.861 71.683 33.166 71.395 33.673C71.107 34.18 71.134 34.803 71.214 35.38C71.319 36.135 71.586 36.984 72.29 37.276C73.012 37.575 73.882 37.076 74.2 36.362C74.518 35.648 74.396 34.81 74.12 34.079C73.236 34.459 72.704 35.515 72.923 36.451C73.143 37.387 74.089 38.096 75.05 38.044C75.627 38.012 76.218 37.69 76.426 37.151C76.634 36.612 76.323 35.891 75.754 35.791C75.29 35.709 74.837 36.037 74.593 36.44C74.066 37.313 74.364 38.582 75.223 39.131C76.082 39.68 77.359 39.414 77.929 38.569C78.186 38.188 78.261 37.591 77.882 37.331C77.452 37.037 76.867 37.451 76.641 37.921C76.205 38.829 76.482 40.043 77.31 40.616C78.138 41.189 79.427 40.982 79.98 40.14C80.286 39.674 80.293 38.93 79.803 38.662C79.33 38.404 78.726 38.771 78.48 39.251C77.969 40.251 78.69 41.654 79.801 41.819C80.912 41.984 82.011 40.852 81.812 39.747C80.591 39.893 80.025 41.734 80.952 42.541C81.88 43.348 83.625 42.532 83.6 41.303C83.016 41.687 82.458 42.176 82.22 42.833C81.982 43.49 82.169 44.341 82.785 44.671C83.401 45.001 84.34 44.485 84.234 43.794C84.083 44.712 84.213 45.675 84.602 46.52C85.245 46.151 85.725 45.51 85.9 44.79C85.728 45.17 85.551 45.575 85.6 45.99C85.649 46.405 86.021 46.811 86.432 46.736" stroke="#010101" stroke-width="1.5" stroke-linecap="round" stroke-linejoin="round"/>
<path d="M71.148 27.361C70.409 27.453 69.734 27.956 69.437 28.639C70.183 29.359 71.558 29.247 72.178 28.416C72.384 28.14 72.483 27.698 72.21 27.489C72.091 27.398 71.931 27.38 71.782 27.391C70.937 27.453 70.321 28.427 70.555 29.241C70.789 30.055 71.737 30.558 72.565 30.375C73.393 30.192 74.022 29.41 74.117 28.568C73.07 28.352 72.009 29.509 72.314 30.533C72.619 31.557 74.142 31.944 74.899 31.189C75.04 31.048 75.156 30.875 75.193 30.679C75.328 29.962 74.173 29.526 73.69 30.073C73.207 30.62 73.527 31.58 74.182 31.901C74.837 32.222 75.65 32.021 76.245 31.598C76.755 31.235 77.113 30.381 76.58 30.053C76.271 29.862 75.855 30.015 75.586 30.26C74.708 31.058 75.021 32.725 76.095 33.231C77.169 33.737 78.592 33.019 78.917 31.878C79.007 31.562 79.013 31.189 78.8 30.939C78.661 30.776 78.449 30.691 78.238 30.65C77.355 30.48 76.392 31.087 76.166 31.958C75.94 32.829 76.485 33.828 77.339 34.109C78.279 34.418 79.301 33.905 80.03 33.236C80.355 32.939 80.664 32.575 80.706 32.137C80.783 31.329 79.84 30.706 79.042 30.855C78.244 31.004 77.646 31.681 77.269 32.399C76.809 33.275 76.64 34.485 77.372 35.151C78.333 36.027 79.863 35.238 80.824 34.363C81.204 34.017 81.584 33.638 81.747 33.152C81.91 32.666 81.784 32.044 81.336 31.793C80.735 31.457 80.019 31.932 79.498 32.382C78.971 32.836 78.428 33.312 78.145 33.948C77.862 34.584 77.92 35.428 78.467 35.859C78.821 36.137 79.303 36.192 79.751 36.157C80.739 36.08 81.69 35.604 82.345 34.86C82.873 34.26 83.111 33.159 82.407 32.781C81.855 32.485 81.197 32.898 80.739 33.324C79.865 34.138 79.11 35.564 79.935 36.427C80.298 36.806 80.865 36.919 81.388 36.88C82.588 36.791 83.699 35.949 84.109 34.818C84.187 34.602 84.242 34.367 84.191 34.143C84.075 33.635 83.439 33.391 82.936 33.528C82.433 33.665 82.052 34.069 81.733 34.481C81.194 35.176 80.733 36.061 80.98 36.905C81.242 37.801 82.32 38.322 83.22 38.073C84.12 37.824 84.759 36.922 84.816 35.99C84.827 35.816 84.807 35.615 84.667 35.512C84.534 35.414 84.347 35.445 84.19 35.497C83.45 35.745 82.847 36.446 82.835 37.226C82.823 38.006 83.501 38.769 84.281 38.74C85.061 38.711 85.689 37.77 85.33 37.076C84.936 37.233 84.527 37.399 84.238 37.71C83.708 38.28 83.84 39.378 84.561 39.672C85.282 39.966 86.178 39.027 85.746 38.379C84.997 38.61 84.377 39.301 84.347 40.085C84.317 40.869 84.972 41.65 85.756 41.653C86.54 41.656 87.217 40.756 86.91 40.035C86.485 40.391 86.051 40.78 85.869 41.304C85.687 41.828 85.864 42.517 86.381 42.717C86.898 42.917 87.558 42.272 87.247 41.814C86.864 42.075 86.643 42.555 86.693 43.016C86.994 43.04 87.282 43.189 87.477 43.419" stroke="#010101" stroke-width="1.5" stroke-linecap="round" stroke-linejoin="round"/>
<path d="M78.431 50.557C79.437 50.74 80.521 50.429 81.276 49.74L81.037 49.106C80.631 48.864 80.048 49.175 79.936 49.634C79.824 50.093 80.108 50.587 80.521 50.819C80.934 51.051 81.44 51.059 81.902 50.957C83.072 50.699 84.054 49.728 84.325 48.561C84.021 48.202 83.35 48.41 83.204 48.857C83.058 49.304 83.353 49.808 83.772 50.02C84.191 50.232 84.693 50.208 85.15 50.098C86.028 49.886 86.828 49.366 87.379 48.65C87.615 48.344 87.8 47.891 87.551 47.595C87.297 47.293 86.731 47.465 86.609 47.841C86.487 48.217 86.737 48.641 87.092 48.814C87.447 48.987 87.87 48.956 88.25 48.846C88.97 48.638 89.607 48.155 90.002 47.517C90.116 47.333 90.213 47.12 90.178 46.906C90.088 46.363 89.15 46.389 88.965 46.907C88.78 47.425 89.233 48.003 89.769 48.128C90.305 48.253 90.863 48.048 91.345 47.784C91.708 47.586 92.064 47.339 92.267 46.979C92.47 46.619 92.478 46.121 92.189 45.826C91.9 45.531 91.301 45.59 91.16 45.979C91.306 46.692 92.203 47.065 92.893 46.833C93.583 46.601 94.048 45.933 94.258 45.235C93.99 45.15 93.722 45.066 93.454 44.981C93.403 45.56 94.005 46.097 94.574 45.982C95.143 45.867 95.489 45.138 95.218 44.625" stroke="#010101" stroke-width="1.5" stroke-linecap="round" stroke-linejoin="round"/>
<path d="M86.666 42.897L85.852 44.389C86.089 44.799 86.598 44.996 87.071 44.966C87.544 44.936 87.983 44.713 88.375 44.447C88.591 44.3 88.815 44.109 88.841 43.849C88.883 43.432 88.338 43.147 87.946 43.298C87.554 43.449 87.332 43.865 87.222 44.27C87.107 44.692 87.083 45.159 87.271 45.553C87.459 45.947 87.902 46.24 88.331 46.152C88.76 46.064 89.055 45.516 86.666 42.897Z" stroke="#010101" stroke-width="1.5" stroke-linecap="round" stroke-linejoin="round"/>
<path d="M94.272 44.284C94.408 41.96 93.786 38.856 95.651 37.462C96.594 36.757 98.016 38.006 98.655 38.995C98.095 39.408 97.35 39.56 96.674 39.398C96.167 38.577 96.854 37.512 97.658 36.98C98.224 36.606 98.902 36.34 99.573 36.439C100.244 36.538 100.876 37.091 100.89 37.769C100.904 38.447 100.11 39.058 99.51 38.742C99.049 38.499 98.915 37.857 99.113 37.375C99.311 36.893 99.759 36.558 100.227 36.331C101.023 35.945 102.055 35.837 102.734 36.404C103.413 36.971 103.292 38.332 102.426 38.513C102.258 37.75 102.941 36.924 103.722 36.944C104.503 36.964 105.142 37.825 104.935 38.578C105.553 37.986 106.6 37.91 107.297 38.406C107.994 38.902 108.266 39.916 107.91 40.694" stroke="#010101" stroke-width="1.5" stroke-linecap="round" stroke-linejoin="round"/>
<path d="M107.294 95.356C109.355 95.392 111.029 92.958 110.257 91.046C109.582 91.437 108.907 91.829 108.231 92.22C110.213 91.339 110.924 88.44 109.576 86.741C108.69 86.893 107.867 87.384 107.313 88.092C108.309 86.77 109.344 85.345 109.451 83.693C109.558 82.041 108.272 80.197 106.627 80.377C107.19 79.352 108.03 78.502 108.611 77.487C109.192 76.472 109.478 75.152 108.863 74.157C108.248 73.162 106.484 72.995 106.004 74.061C108.312 72.129 109.034 68.54 107.653 65.865C108.068 65.055 108.496 64.154 108.275 63.271C108.054 62.388 106.816 61.779 106.204 62.452C108.089 61.555 108.298 58.45 106.55 57.308C108.382 56.372 108.133 53.122 106.18 52.476C107.246 51.343 106.332 49.1 104.778 49.034C106.102 48.103 105.594 45.61 104.011 45.271C103.494 45.238 103.114 45.952 103.43 46.362C103.839 45.476 104.224 44.354 103.604 43.599C102.985 42.844 101.37 43.915 102.137 44.52C102.679 43.566 102.623 42.165 101.702 41.568C100.782 40.971 99.239 41.991 99.707 42.983C100.972 42.157 99.62 39.945 98.115 40.078C96.61 40.211 95.561 41.582 94.411 43.3C95.417 42.781 96.678 42.792 97.675 43.328C97.732 43.961 97.493 44.614 97.042 45.062C96.917 44.414 97.599 43.789 98.254 43.872C98.909 43.955 99.401 44.609 99.415 45.269C99.429 45.929 99.038 46.552 98.506 46.942C98.207 46.348 98.858 45.589 99.52 45.659C100.182 45.729 100.658 46.411 100.675 47.076C100.692 47.741 100.344 48.367 99.909 48.87C99.686 48.164 100.478 47.419 101.207 47.55C101.936 47.681 102.423 48.468 102.384 49.208C102.345 49.948 101.884 50.611 101.31 51.079C100.811 51.219 100.433 50.456 100.741 50.04C101.049 49.624 101.691 49.604 102.158 49.827C102.855 50.16 103.299 50.96 103.212 51.728C103.125 52.496 102.515 53.177 101.761 53.347C101.552 52.528 102.653 51.82 103.42 52.176C104.187 52.532 104.465 53.544 104.239 54.358C104.013 55.172 103.409 55.823 102.789 56.397C102.508 55.566 102.957 54.3 103.811 54.501C104.309 54.618 104.553 55.185 104.62 55.692C104.778 56.893 104.334 58.158 103.459 58.997C102.937 58.748 103.158 57.824 103.723 57.701C104.288 57.578 104.843 58.08 104.968 58.645C105.093 59.21 104.9 59.795 104.658 60.321C104.386 60.911 103.951 61.539 103.303 61.588C103.326 60.951 103.738 60.345 104.321 60.088C105.381 61.607 105.191 63.871 103.894 65.193C103.686 64.563 104.2 63.806 104.862 63.768C105.199 64.545 105.541 65.34 105.607 66.184C105.673 67.028 105.412 67.947 104.739 68.46C104.623 68.076 104.507 67.656 104.655 67.282C104.803 66.908 105.341 66.68 105.618 66.972C105.754 67.115 105.781 67.327 105.801 67.523C105.909 68.575 105.936 69.827 105.093 70.467C104.635 70.267 104.754 69.476 105.225 69.307C105.696 69.138 106.231 69.489 106.417 69.953C106.603 70.417 106.521 70.944 106.376 71.422C106.225 71.919 105.906 72.471 105.387 72.491C104.868 72.511 104.662 71.533 105.181 71.539C105.906 71.964 106.33 72.85 106.208 73.681C106.086 74.512 105.425 75.238 104.609 75.438C104.066 74.98 104.785 73.97 105.465 74.176C106.145 74.382 106.375 75.308 106.076 75.953C105.777 76.598 105.129 77.001 104.49 77.31C104.214 76.68 105.148 76.036 105.745 76.377C106.342 76.718 106.443 77.588 106.144 78.207C105.845 78.826 105.264 79.252 104.704 79.652C104.765 79.105 105.32 78.663 105.867 78.726C106.732 79.74 106.418 81.518 105.257 82.174C105.012 81.636 105.435 80.917 106.024 80.87C106.465 81.642 106.614 82.575 106.437 83.446C106.331 83.968 105.938 84.564 105.418 84.449C104.956 84.347 104.82 83.647 105.158 83.316C105.496 82.985 106.103 83.055 106.435 83.393C106.767 83.731 106.852 84.255 106.755 84.719C106.6 85.458 106.004 86.087 105.274 86.281C104.792 85.823 105.637 84.979 106.229 85.282C106.821 85.585 106.93 86.402 106.766 87.047C106.474 88.197 105.528 89.157 104.382 89.465C104.632 88.744 105.013 87.909 105.767 87.794C106.781 87.64 107.412 89.077 106.946 89.991C106.481 90.905 105.442 91.346 104.485 91.715C104.401 91.125 104.807 90.552 105.324 90.254C105.841 89.956 106.45 89.875 107.042 89.8C107.348 89.761 107.698 89.736 107.922 89.948C108.072 90.09 108.124 90.307 108.145 90.513C108.264 91.711 107.45 92.937 106.3 93.292C106.21 92.832 106.792 92.442 107.232 92.604C107.672 92.766 107.894 93.292 107.839 93.758C107.784 94.224 107.513 94.635 107.219 95C106.865 95.441 106.311 95.881 107.294 95.356Z" stroke="#010101" stroke-width="1.5" stroke-linecap="round" stroke-linejoin="round"/>
<path d="M102.805 92.881C102.723 93.228 103.15 93.532 103.496 93.443C103.842 93.354 104.067 93.016 104.172 92.675C104.406 91.917 104.172 91.035 103.591 90.494C103.274 90.702 102.951 90.967 102.875 91.339C102.799 91.711 103.132 92.161 103.495 92.052C103.641 92.008 103.751 91.889 103.847 91.771C104.196 91.341 104.472 90.811 104.434 90.258C104.396 89.705 103.954 89.158 103.4 89.159C102.846 89.16 102.4 89.893 102.752 90.321C103.611 90.058 104.064 88.92 103.621 88.139C103.143 88.261 102.545 88.558 102.636 89.043C102.722 89.5 103.42 89.577 103.758 89.257C104.096 88.937 104.158 88.429 104.184 87.965C104.216 87.408 104.22 86.819 103.951 86.33C103.682 85.841 103.047 85.509 102.548 85.758C102.049 86.007 102.064 86.928 102.613 87.027C102.795 87.06 102.981 87.001 103.146 86.918C104.336 86.319 104.352 84.294 103.173 83.675C102.544 83.751 102.564 84.848 103.165 85.047C103.766 85.246 104.414 84.694 104.527 84.07C104.64 83.446 104.369 82.819 104.043 82.276C103.876 81.998 103.607 81.693 103.292 81.769C102.798 81.889 102.959 82.633 103.231 83.063C103.676 81.816 103.533 80.373 102.852 79.238C102.505 79.924 102.491 80.77 102.815 81.467C103.551 80.011 103.633 78.24 103.035 76.722C102.962 76.538 102.868 76.344 102.693 76.252C102.332 76.062 101.891 76.47 101.886 76.878C101.881 77.286 102.146 77.641 102.399 77.962C103.676 76.572 103.977 74.373 103.121 72.691C102.974 72.402 102.757 72.101 102.436 72.053C101.995 71.987 101.629 72.469 101.639 72.915C101.649 73.361 101.913 73.756 102.167 74.123C103.086 72.905 103.247 71.161 102.567 69.795C102.072 69.682 101.544 70.179 101.627 70.68C101.71 71.181 102.37 71.481 102.802 71.214C102.984 71.102 103.112 70.919 103.211 70.73C103.993 69.238 102.889 67.124 101.218 66.912C101.055 67.329 100.889 67.763 100.925 68.209C100.961 68.655 101.263 69.113 101.706 69.172C102.231 69.242 102.661 68.753 102.881 68.271C103.319 67.311 103.349 66.172 102.962 65.191C102.763 64.687 102.39 64.179 101.851 64.111C101.338 64.047 100.851 64.424 100.624 64.888C100.397 65.352 100.373 65.886 100.36 66.403C101.763 65.347 102.551 63.527 102.362 61.781C102.319 61.389 102.201 60.958 101.862 60.757C101.362 60.461 100.687 60.887 100.508 61.44C100.329 61.993 100.492 62.591 100.656 63.148C102.144 62.358 102.902 60.415 102.344 58.826C102.267 58.607 102.162 58.387 101.975 58.248C101.582 57.957 100.984 58.167 100.692 58.559C100.4 58.951 100.335 59.463 100.28 59.948C100.236 60.332 100.222 60.792 100.531 61.024C100.975 61.358 101.588 60.895 101.874 60.419C102.641 59.144 102.751 57.496 102.159 56.131C101.411 55.965 100.578 56.296 100.148 56.93C99.718 57.564 99.718 58.46 100.148 59.094C101.991 57.904 102.213 54.871 100.563 53.424C99.803 53.666 99.211 54.369 99.102 55.159C99.025 55.72 99.419 56.458 99.961 56.294C100.131 56.243 100.264 56.11 100.378 55.974C101.108 55.106 101.38 53.873 101.083 52.778C100.949 52.282 100.632 51.761 100.124 51.683C99.567 51.598 99.056 52.143 99.024 52.706C98.992 53.269 99.325 53.797 99.743 54.175C100.56 53.724 101.181 52.855 101.166 51.922C101.151 50.989 100.385 50.077 99.452 50.055C98.519 50.033 97.679 51.077 98.027 51.943C98.106 52.14 98.256 52.33 98.464 52.369C98.582 52.391 98.704 52.362 98.818 52.325C100.081 51.913 100.803 50.216 100.059 49.116C99.314 48.016 97.253 48.238 96.915 49.523C96.818 49.89 96.889 50.342 97.209 50.546C97.659 50.833 98.263 50.447 98.51 49.974C99.066 48.909 98.439 47.412 97.29 47.061C96.778 47.28 96.452 47.869 96.539 48.42C96.584 48.706 96.811 49.016 97.095 48.962C97.225 48.937 97.329 48.84 97.419 48.743C97.794 48.335 98.069 47.798 98.025 47.245C97.981 46.692 97.545 46.155 96.991 46.128C96.437 46.101 95.924 46.735 96.163 47.234C97.131 47.059 97.868 46.047 97.736 45.072C96.914 44.78 95.9 45.341 95.71 46.192C96.367 45.871 97.126 45.387 97.09 44.657C97.049 43.825 95.897 43.448 95.158 43.833C94.419 44.218 94.03 45.036 94.15 46.298L92.97 47.625C93.749 47.931 94.731 47.549 95.099 46.798C95.003 46.636 94.816 46.551 94.633 46.509C93.6 46.272 92.502 47.422 92.863 48.419C93.224 49.416 94.919 49.517 95.331 48.541C95.37 48.449 95.398 48.349 95.382 48.251C95.327 47.911 94.838 47.866 94.524 48.008C93.792 48.337 93.366 49.255 93.638 50.01C93.91 50.765 94.878 51.198 95.602 50.853C96.326 50.508 96.58 49.424 96.05 48.822C95.35 49.061 94.682 49.47 94.281 50.092C93.88 50.714 93.796 51.569 94.202 52.188C94.608 52.807 95.546 53.053 96.136 52.606C96.726 52.159 96.65 51.057 95.96 50.79C95.15 50.477 94.396 51.332 93.955 52.08C93.723 52.472 93.488 52.897 93.517 53.351C93.56 54.016 94.204 54.535 94.867 54.592C95.53 54.649 96.18 54.328 96.677 53.885C96.984 53.611 97.26 53.26 97.292 52.85C97.324 52.44 97.017 51.988 96.606 51.995C96.388 51.999 96.191 52.123 96.016 52.254C94.907 53.083 94.157 54.377 93.988 55.751C93.961 55.974 93.952 56.216 94.073 56.404C94.233 56.654 94.562 56.726 94.858 56.759C96.404 56.927 98.236 56.401 98.797 54.95C98.851 54.81 98.891 54.653 98.839 54.512C98.79 54.38 98.669 54.289 98.544 54.226C97.598 53.752 96.522 54.541 95.806 55.32C95.049 56.143 94.342 57.439 95.077 58.282C95.401 58.654 95.927 58.794 96.421 58.785C97.679 58.764 98.865 57.819 99.167 56.598C98.617 56.112 97.75 56.122 97.1 56.465C96.45 56.808 95.984 57.418 95.616 58.054C95.355 58.505 95.128 59.045 95.309 59.533C95.541 60.161 96.369 60.385 97.006 60.18C97.643 59.975 98.128 59.466 98.584 58.976C99.083 58.44 99.583 57.564 99.046 57.066C98.619 56.669 97.919 56.939 97.465 57.305C96.732 57.896 96.174 58.701 95.878 59.594C95.776 59.902 95.712 60.265 95.9 60.529C96.111 60.825 96.533 60.857 96.895 60.832C97.529 60.789 98.18 60.647 98.685 60.262C99.19 59.877 99.514 59.204 99.341 58.592C98.747 58.86 98.138 59.138 97.684 59.606C97.23 60.074 96.963 60.782 97.194 61.391C97.425 62 98.272 62.346 98.78 61.937C99.168 61.624 99.212 61.059 99.225 60.56C98.503 61.139 98.181 62.171 98.446 63.058C98.956 63.162 99.274 62.284 98.815 62.038C97.861 62.87 97.487 64.305 97.913 65.497C98.563 65.609 99.32 65.665 99.794 65.205C100.268 64.745 99.905 63.669 99.274 63.862C99.082 63.921 98.937 64.076 98.813 64.235C98.312 64.878 98.015 65.678 97.974 66.492C97.954 66.882 98.002 67.3 98.247 67.604C98.492 67.908 98.985 68.034 99.282 67.781C99.579 67.528 99.418 66.91 99.028 66.923C98.74 66.933 98.558 67.226 98.428 67.483C98.199 67.939 97.964 68.417 97.972 68.927C97.98 69.437 98.314 69.981 98.821 70.041C99.695 70.144 100.057 68.926 99.923 68.056C99.135 68.423 98.389 69.007 98.11 69.83C97.831 70.653 98.189 71.722 99.015 71.993C99.841 72.264 100.848 71.319 100.458 70.542C99.349 70.291 98.587 71.676 98.506 72.81C98.465 73.378 98.503 73.99 98.841 74.449C99.179 74.908 99.907 75.111 100.333 74.733C100.759 74.355 100.431 73.445 99.873 73.558C99.06 74.759 98.703 76.26 98.888 77.699C98.965 78.299 99.197 78.963 99.756 79.196C100.315 79.429 101.095 78.789 100.766 78.282C100.538 77.93 99.965 77.967 99.668 78.264C99.371 78.561 99.295 79.012 99.293 79.431C99.29 80.052 99.45 80.728 99.943 81.105C100.436 81.482 101.312 81.345 101.485 80.749C101.063 80.346 100.315 80.545 99.951 81C99.587 81.455 99.504 82.068 99.442 82.648C99.388 83.151 99.341 83.678 99.53 84.147C99.719 84.616 100.221 85.001 100.713 84.879C101.205 84.757 101.42 83.979 100.982 83.724C100.513 83.451 99.983 83.979 99.746 84.466C99.55 84.868 99.395 85.289 99.283 85.722C99.155 86.218 99.087 86.756 99.277 87.231C99.467 87.706 99.987 88.08 100.483 87.953C100.979 87.826 101.219 87.071 100.808 86.766C100.253 86.354 99.572 87.123 99.384 87.788C99.073 88.886 99.024 90.057 99.241 91.177C100.275 91.256 101.291 90.4 101.389 89.367C100.35 89.8 99.646 90.93 99.714 92.054C99.724 92.217 99.751 92.384 99.84 92.521C100.066 92.867 100.611 92.858 100.943 92.612C101.275 92.366 101.447 91.964 101.604 91.582C101.148 92.02 100.697 92.499 100.498 93.099C100.299 93.699 100.421 94.45 100.941 94.81C101.461 95.17 102.351 94.878 102.806 92.88L102.805 92.881Z" stroke="#010101" stroke-width="1.5" stroke-linecap="round" stroke-linejoin="round"/>
<path d="M91.273 48.688C90.455 49.206 89.81 49.993 89.463 50.896C90.417 50.951 91.344 50.167 91.446 49.216C90.119 49.003 88.981 50.785 89.732 51.9C90.713 52.401 92.085 51.735 92.299 50.655C91.504 50.717 90.655 50.977 90.203 51.634C89.751 52.291 89.965 53.402 90.736 53.606C91.134 53.712 91.556 53.56 91.917 53.361C92.594 52.988 93.228 52.191 92.876 51.502C92.058 51.323 91.183 51.708 90.633 52.34C90.083 52.972 89.824 53.814 89.75 54.648C89.73 54.876 89.724 55.114 89.81 55.327C89.919 55.595 90.164 55.789 90.427 55.91C91.12 56.229 91.999 56.087 92.556 55.566C93.113 55.045 93.313 54.177 93.04 53.464C92.148 53.448 91.33 54.044 90.861 54.802C90.392 55.56 90.215 56.461 90.104 57.346C90.057 57.722 90.025 58.126 90.205 58.459C90.669 59.313 91.954 59 92.827 58.573C93.188 58.396 93.594 58.161 93.653 57.763C93.712 57.363 93.349 56.992 92.951 56.925C92.553 56.858 92.15 57.028 91.817 57.256C90.964 57.841 90.417 58.898 90.563 59.922C90.709 60.946 91.619 61.846 92.654 61.86C93.689 61.874 94.66 60.885 94.519 59.86C94.495 59.685 94.44 59.509 94.321 59.379C93.986 59.013 93.364 59.201 92.98 59.515C92.267 60.098 91.86 61.068 92.041 61.971C92.222 62.874 93.034 63.639 93.954 63.676C94.874 63.713 95.779 62.941 95.804 62.02C95.815 61.618 95.623 61.168 95.238 61.05C94.798 60.916 94.366 61.262 94.051 61.598C93.489 62.195 92.962 62.883 92.838 63.694C92.714 64.505 93.13 65.447 93.921 65.663C94.638 65.859 95.406 65.394 95.785 64.754C96.164 64.114 96.235 63.344 96.262 62.602C95.681 62.387 95.011 62.708 94.632 63.198C94.253 63.688 94.098 64.31 93.953 64.912C93.874 65.24 93.796 65.593 93.919 65.907C94.108 66.389 94.719 66.588 95.225 66.481C95.731 66.374 96.155 66.042 96.559 65.718C97 65.365 97.468 64.971 97.603 64.422C97.738 63.873 97.322 63.172 96.764 63.258C96.498 63.299 96.287 63.498 96.109 63.699C95.399 64.5 94.917 65.5 94.734 66.554C94.622 67.196 94.675 67.972 95.215 68.336C96.045 68.897 97.138 67.946 97.377 66.973C97.486 66.531 97.385 65.905 96.932 65.86C96.699 65.837 96.49 65.995 96.323 66.159C95.535 66.935 95.114 68.07 95.206 69.173C95.271 69.953 95.655 70.78 96.386 71.059C97.117 71.338 98.117 70.721 97.964 69.954C97.824 69.252 96.869 68.991 96.222 69.296C95.575 69.601 95.18 70.258 94.831 70.883C94.492 71.489 94.153 72.125 94.109 72.818C94.065 73.511 94.405 74.278 95.061 74.508C95.891 74.799 96.745 74.139 97.282 73.443C97.584 73.051 97.862 72.541 97.677 72.082C97.516 71.682 97.049 71.481 96.618 71.475C95.037 71.451 94.14 73.307 93.985 74.881C93.926 75.474 93.962 76.174 94.446 76.522C94.957 76.89 95.759 76.597 96.024 76.027C96.289 75.457 96.084 74.743 95.646 74.291C94.014 74.745 93.596 76.867 93.74 78.555C93.761 78.798 93.79 79.051 93.921 79.257C94.199 79.693 94.857 79.747 95.307 79.493C95.757 79.239 96.036 78.765 96.246 78.293C96.421 77.898 96.524 77.35 96.167 77.106C95.808 76.86 95.328 77.164 95.041 77.491C94.548 78.054 94.178 78.796 94.309 79.533C94.44 80.27 95.239 80.896 95.939 80.634C96.639 80.372 96.658 79.105 95.921 78.975C95.266 78.86 94.804 79.603 94.629 80.245C94.394 81.104 94.346 82.126 94.947 82.783C95.548 83.44 96.943 83.224 97.003 82.335C97.06 81.493 95.846 81.046 95.134 81.499C94.422 81.952 94.177 82.873 94.117 83.715C94.083 84.2 94.09 84.689 94.14 85.173C94.159 85.356 94.186 85.547 94.29 85.699C94.626 86.195 95.495 85.867 95.672 85.295C95.849 84.723 95.584 84.118 95.324 83.578C94.601 83.868 94.319 84.734 94.203 85.504C94.117 86.073 94.078 86.677 94.314 87.202C94.55 87.727 95.143 88.13 95.696 87.972C96.249 87.814 96.493 86.952 96.014 86.633C95.399 86.223 94.688 87.053 94.521 87.773C94.366 88.443 94.333 89.14 94.424 89.822C94.442 89.953 94.466 90.089 94.543 90.196C94.751 90.484 95.239 90.393 95.459 90.113C95.679 89.833 95.704 89.453 95.722 89.098C95.112 89.233 94.554 89.702 94.439 90.317C94.324 90.932 94.762 91.631 95.384 91.689C96.006 91.747 96.583 91.003 96.288 90.452C96.025 89.961 95.27 89.909 94.836 90.258C94.402 90.607 94.257 91.219 94.309 91.774C94.346 92.173 94.489 92.591 94.814 92.826C95.139 93.061 95.674 93.021 95.867 92.669C96.06 92.317 95.651 91.79 95.292 91.969C95.197 92.017 95.124 92.099 95.059 92.183C94.815 92.494 94.626 92.876 94.659 93.269C94.692 93.662 95.013 94.048 95.408 94.043C95.803 94.038 96.118 93.515 95.867 93.21C95.643 93.274 95.541 93.592 95.686 93.774" stroke="#010101" stroke-width="1.5" stroke-linecap="round" stroke-linejoin="round"/>
<path d="M101.447 63.805C101.382 64.585 100.998 65.412 100.267 65.691C99.536 65.97 98.536 65.353 98.689 64.586C98.829 63.884 99.784 63.623 100.431 63.928C101.078 64.233 101.473 64.89 101.822 65.515C102.161 66.121 102.5 66.757 102.544 67.45C102.588 68.143 102.248 68.91 101.592 69.14C100.762 69.431 99.908 68.771 99.371 68.075C99.069 67.683 98.791 67.173 98.976 66.714C99.137 66.314 99.604 66.113 100.035 66.107C101.616 66.083 102.513 67.939 102.668 69.513C102.727 70.106 102.691 70.806 102.207 71.154C101.696 71.522 100.894 71.229 100.629 70.659C100.364 70.089 100.569 69.375 101.007 68.923C102.639 69.377 103.057 71.499 102.913 73.187C102.892 73.43 102.863 73.683 102.732 73.889C102.454 74.325 101.796 74.379 101.346 74.125C100.896 73.871 100.617 73.397 100.407 72.925C100.232 72.53 100.129 71.982 100.486 71.738C100.845 71.492 101.325 71.796 101.612 72.123C102.105 72.686 102.475 73.428 102.344 74.165C102.213 74.902 101.414 75.528 100.714 75.266C100.014 75.004 99.995 73.737 100.732 73.607C101.387 73.492 101.849 74.235 102.024 74.877C102.259 75.736 102.307 76.758 101.706 77.415C101.105 78.072 99.71 77.856 99.65 76.967C99.593 76.125 100.807 75.678 101.519 76.131C102.231 76.584 102.476 77.505 102.536 78.347C102.57 78.832 102.563 79.321 102.513 79.805C102.494 79.988 102.467 80.179 102.363 80.331C102.027 80.827 101.158 80.499 100.981 79.927C100.804 79.355 101.069 78.75 101.329 78.21C102.052 78.5 102.334 79.366 102.45 80.136C102.536 80.705 102.575 81.309 102.339 81.834C102.103 82.359 101.51 82.762 100.957 82.604C100.404 82.446 100.16 81.584 100.639 81.265C101.254 80.855 101.965 81.685 102.132 82.405C102.287 83.075 102.32 83.772 102.229 84.454C102.211 84.585 102.187 84.721 102.11 84.828C101.902 85.116 101.414 85.025 101.194 84.745C100.974 84.465 100.949 84.085 100.931 83.73C101.541 83.865 102.099 84.334 102.214 84.949C102.329 85.564 101.891 86.263 101.269 86.321C100.647 86.379 100.07 85.635 100.365 85.084C100.628 84.593 101.383 84.541 101.817 84.89C102.251 85.239 102.396 85.851 102.344 86.406C102.307 86.805 102.164 87.223 101.839 87.458C101.514 87.693 100.979 87.653 100.786 87.301C100.593 86.949 101.002 86.422 101.361 86.601C101.456 86.649 101.529 86.731 101.594 86.815C101.838 87.126 102.027 87.508 101.994 87.901C101.961 88.294 101.64 88.68 101.245 88.675C100.85 88.67 100.535 88.147 100.786 87.842C101.01 87.906 101.112 88.224 100.967 88.406" stroke="#010101" stroke-width="1.5" stroke-linecap="round" stroke-linejoin="round"/>
<path d="M87.511 50.227L85.976 51.966C87.126 51.941 88.232 51.218 88.718 50.176C88.411 49.25 87.006 49.095 86.293 49.761C85.58 50.427 85.493 51.554 85.772 52.488C86.323 52.536 86.9 52.581 87.411 52.368C87.922 52.155 88.335 51.597 88.188 51.063C88.054 50.575 87.531 50.306 87.04 50.179C85.904 49.885 84.655 50.053 83.638 50.638C83.314 50.824 83.001 51.065 82.847 51.406C82.693 51.747 82.749 52.204 83.055 52.418C83.279 52.575 83.575 52.572 83.846 52.539C84.492 52.461 85.121 52.247 85.681 51.916C86.011 51.72 86.345 51.437 86.375 51.054C86.405 50.671 85.918 50.297 85.631 50.551C85.279 51.353 85.712 52.405 86.526 52.726C87.34 53.047 88.375 52.574 88.665 51.748C88.728 51.568 88.755 51.353 88.643 51.197C88.464 50.947 88.068 51.018 87.808 51.182C86.709 51.872 86.635 53.416 86.684 54.712C87.328 55.193 88.251 55.267 88.963 54.895C89.675 54.523 90.142 53.723 90.115 52.92C88.549 53.138 87.274 54.651 87.324 56.231C87.331 56.456 87.369 56.697 87.523 56.862C87.638 56.985 87.802 57.049 87.964 57.094C88.722 57.304 89.571 57.158 90.216 56.707C90.358 56.608 90.5 56.477 90.518 56.305C90.544 56.049 90.265 55.847 90.009 55.854C89.753 55.861 89.524 56.012 89.315 56.161C88.856 56.487 88.39 56.849 88.151 57.359C87.912 57.869 87.983 58.568 88.451 58.881C88.803 59.117 89.275 59.077 89.676 58.937C90.283 58.726 90.865 57.991 90.453 57.497C90.064 57.801 89.597 57.99 89.201 58.285C88.805 58.58 88.469 59.036 88.527 59.526C88.607 60.205 89.496 60.586 90.107 60.28C90.718 59.974 90.979 59.179 90.805 58.517C89.962 58.956 89.397 59.882 89.392 60.832C89.39 61.216 89.506 61.645 89.841 61.832C90.137 61.997 90.508 61.92 90.82 61.788C91.17 61.64 91.516 61.398 91.627 61.034C91.738 60.67 91.488 60.196 91.108 60.206C90.829 60.213 90.62 60.453 90.448 60.672C90.004 61.239 89.538 61.98 89.858 62.625C90.09 63.093 90.743 63.291 91.196 63.031C91.649 62.771 91.807 62.107 91.519 61.671C90.996 61.892 90.553 62.371 90.508 62.937C90.463 63.503 90.92 64.1 91.488 64.09C92.056 64.08 92.486 63.316 92.124 62.879C92.034 62.77 91.858 62.694 91.759 62.795C91.66 62.896 91.898 63.075 91.922 62.936" stroke="#010101" stroke-width="1.5" stroke-linecap="round" stroke-linejoin="round"/>
<path d="M92.662 64.075L90.843 66.482L91.27 67.057C92.047 66.814 92.727 66.313 93.145 65.677C93.03 65.152 92.219 64.975 91.678 65.23C91.137 65.485 90.825 66.005 90.585 66.505C90.358 66.977 90.173 67.549 90.49 67.961C91.027 68.66 92.271 68.197 93.066 67.686C93.555 67.372 94.062 66.697 93.571 66.413C93.434 66.334 93.258 66.328 93.092 66.334C92.082 66.373 91.045 66.838 90.549 67.634C90.052 68.43 90.234 69.544 91.065 70.031C91.896 70.518 93.266 70.125 93.526 69.25C93.345 68.681 92.611 68.314 91.958 68.467C91.575 68.557 91.248 68.794 90.998 69.071C90.418 69.713 90.217 70.648 90.644 71.352C91.071 72.056 92.179 72.393 92.969 71.967C93.759 71.541 93.89 70.362 93.132 69.935C91.948 70.257 90.846 70.838 89.951 71.61C89.093 72.351 88.409 73.535 89.019 74.413C89.396 74.955 90.167 75.187 90.894 75.179C91.45 75.173 92.035 75.033 92.437 74.68C92.839 74.327 92.991 73.726 92.678 73.326C92.272 72.806 91.303 72.886 90.766 73.332C90.229 73.778 90.029 74.449 89.906 75.086C89.816 75.552 89.758 76.046 89.955 76.477C90.152 76.908 90.686 77.243 91.198 77.109C91.686 76.982 91.954 76.508 92.083 76.071C92.215 75.625 92.194 75.038 91.724 74.865C91.17 74.662 90.635 75.229 90.373 75.723C90.069 76.293 89.806 76.9 89.812 77.523C89.818 78.146 90.143 78.79 90.765 79.059C91.387 79.328 92.291 79.08 92.522 78.485C92.753 77.89 92 77.189 91.364 77.469C91 77.629 90.821 77.997 90.695 78.339C90.36 79.252 90.189 80.209 90.19 81.16C90.19 81.485 90.223 81.838 90.468 82.072C90.816 82.405 91.547 82.3 91.785 81.882C92.023 81.464 91.678 80.896 91.162 80.857C90.349 81.397 89.646 82.166 89.549 83.053C89.452 83.94 90.161 84.896 91.159 84.914C92.157 84.932 92.973 83.687 92.288 83.061C91.826 82.639 90.985 82.712 90.439 83.078C89.893 83.444 89.584 84.023 89.352 84.592C89.097 85.219 88.908 85.91 89.139 86.53C89.37 87.15 90.166 87.626 90.858 87.368C91.55 87.11 91.59 86 90.862 85.894C90.339 85.818 89.885 86.254 89.636 86.68C89.344 87.179 89.171 87.771 89.376 88.289C89.581 88.807 90.272 89.178 90.849 88.951C91.426 88.724 91.502 87.826 90.911 87.665C90.254 87.487 89.739 88.243 89.654 88.857C89.568 89.478 89.686 90.203 90.276 90.522C90.866 90.841 91.881 90.29 91.602 89.726C90.964 89.465 90.287 90.059 89.894 90.597C89.633 90.955 89.377 91.34 89.348 91.761C89.319 92.182 89.595 92.64 90.059 92.707C90.523 92.774 91.014 92.253 90.749 91.911C90.485 92.219 90.208 92.563 90.225 92.943C90.242 93.323 90.737 93.672 91.097 93.454" stroke="#010101" stroke-width="1.5" stroke-linecap="round" stroke-linejoin="round"/>
<path d="M88.968 61.94C88.519 62.578 88.071 63.216 87.622 63.854C88.579 63.919 89.494 63.046 89.473 62.087C88.805 62.208 88.133 62.439 87.641 62.907C87.149 63.375 86.88 64.121 87.12 64.756C87.36 65.391 88.196 65.774 88.775 65.419C89.354 65.064 89.273 63.99 88.614 63.829C88.21 63.73 87.797 63.97 87.504 64.265C86.947 64.826 86.638 65.667 86.839 66.432C87.04 67.197 87.819 67.807 88.601 67.694C89.383 67.581 89.97 66.646 89.629 65.932C89.264 65.168 88.135 65.064 87.424 65.523C86.713 65.982 86.335 66.804 86.039 67.597C85.815 68.198 85.674 69.005 86.204 69.367C86.416 69.512 86.686 69.538 86.942 69.527C88.433 69.46 89.745 68.091 89.75 66.599C88.52 65.99 86.823 67.057 86.84 68.43C86.848 69.045 87.2 69.688 87.785 69.877C88.37 70.066 89.118 69.625 89.104 69.01C89.089 68.309 88.158 67.932 87.511 68.203C86.864 68.474 86.479 69.134 86.186 69.771C85.916 70.358 85.688 71.066 86.011 71.626C86.348 72.211 87.172 72.354 87.808 72.126C88.444 71.898 88.933 71.392 89.399 70.903C88.975 70.195 87.944 70.005 87.214 70.389C86.484 70.773 86.063 71.607 86.015 72.43C85.974 73.131 86.205 73.885 86.766 74.306C87.327 74.727 88.243 74.681 88.637 74.101C89.031 73.521 88.572 72.538 87.873 72.596C87.546 72.623 87.268 72.84 87.033 73.068C86.442 73.643 85.966 74.414 86.005 75.238C86.043 76.062 86.758 76.876 87.579 76.789C88.4 76.702 88.873 75.459 88.203 74.977C87.551 75.409 86.894 75.93 86.645 76.671C86.396 77.412 86.765 78.401 87.536 78.533C88.307 78.665 88.933 77.433 88.257 77.041C87.688 76.711 86.994 77.297 86.763 77.913C86.582 78.396 86.54 78.962 86.793 79.411C87.046 79.86 87.654 80.122 88.109 79.88C88.564 79.638 88.617 78.848 88.148 78.633C87.677 78.417 87.161 78.866 86.938 79.333C86.578 80.087 86.569 80.999 86.914 81.76C87.356 81.684 87.84 81.542 88.066 81.154C88.292 80.766 87.993 80.122 87.556 80.224C87.34 80.274 87.196 80.475 87.087 80.669C86.708 81.347 86.531 82.223 86.935 82.887C87.339 83.551 88.478 83.712 88.862 83.037C88.878 82.42 87.979 82.137 87.466 82.479C86.953 82.821 86.771 83.483 86.67 84.092C86.597 84.533 86.549 85.004 86.737 85.409C86.925 85.814 87.437 86.099 87.833 85.894C88.229 85.689 88.161 84.933 87.714 84.913C87.446 84.901 87.234 85.132 87.089 85.357C86.555 86.184 86.356 87.22 86.546 88.186C86.892 88.317 87.285 88.322 87.635 88.2C87.798 87.821 87.772 87.365 87.566 87.007C86.851 87.319 86.357 88.032 86.197 88.796C86.021 89.636 86.325 90.665 87.129 90.966C87.933 91.267 88.958 90.264 88.458 89.566C88.04 88.982 87.087 89.19 86.559 89.677C85.846 90.335 85.563 91.561 86.222 92.272C86.882 92.983 88.424 92.41 88.213 91.464C87.447 91.664 87.174 92.83 87.772 93.349" stroke="#010101" stroke-width="1.5" stroke-linecap="round" stroke-linejoin="round"/>
<path d="M105.634 51.634C105.245 52.31 104.856 52.986 104.467 53.662C105.426 53.64 106.257 52.688 106.15 51.734C105.496 51.915 104.847 52.206 104.4 52.717C103.953 53.228 103.753 53.995 104.049 54.606C104.345 55.217 105.214 55.522 105.757 55.116C106.3 54.71 106.123 53.648 105.452 53.547C105.041 53.485 104.651 53.762 104.386 54.082C103.882 54.691 103.651 55.557 103.92 56.3C104.19 57.043 105.021 57.58 105.79 57.397C106.559 57.214 107.058 56.229 106.654 55.549C106.222 54.822 105.087 54.821 104.421 55.342C103.755 55.863 103.453 56.717 103.23 57.533C103.061 58.152 102.995 58.969 103.555 59.281C103.779 59.406 104.051 59.408 104.305 59.373C105.783 59.17 106.966 57.689 106.836 56.202C105.556 55.707 103.963 56.924 104.104 58.289C104.167 58.901 104.577 59.509 105.177 59.644C105.777 59.779 106.482 59.272 106.412 58.661C106.333 57.964 105.372 57.674 104.753 58.002C104.134 58.33 103.81 59.023 103.575 59.684C103.359 60.293 103.197 61.019 103.569 61.547C103.958 62.099 104.792 62.167 105.404 61.882C106.016 61.597 106.458 61.049 106.878 60.52C106.391 59.854 105.348 59.757 104.655 60.206C103.962 60.655 103.619 61.523 103.647 62.348C103.67 63.049 103.968 63.779 104.565 64.148C105.162 64.517 106.07 64.387 106.41 63.773C106.75 63.159 106.204 62.223 105.513 62.343C105.19 62.399 104.933 62.641 104.719 62.89C104.182 63.517 103.779 64.327 103.892 65.144C104.005 65.961 104.791 66.706 105.6 66.546C106.409 66.386 106.768 65.104 106.057 64.685C105.447 65.174 104.839 65.752 104.66 66.513C104.481 67.274 104.936 68.225 105.716 68.287C106.496 68.349 107.007 67.065 106.298 66.736C105.701 66.459 105.063 67.105 104.889 67.74C104.752 68.237 104.762 68.805 105.055 69.229C105.348 69.653 105.977 69.859 106.408 69.576C106.839 69.293 106.82 68.502 106.333 68.33C105.845 68.158 105.371 68.651 105.191 69.137C104.901 69.92 104.975 70.83 105.388 71.556C105.821 71.44 106.291 71.254 106.48 70.848C106.669 70.442 106.313 69.827 105.887 69.968C105.676 70.038 105.551 70.25 105.461 70.453C105.145 71.163 105.049 72.051 105.511 72.675C105.973 73.299 107.122 73.356 107.444 72.649C107.404 72.033 106.483 71.833 106.003 72.22C105.523 72.607 105.402 73.283 105.356 73.898C105.323 74.343 105.318 74.818 105.543 75.204C105.768 75.59 106.302 75.828 106.679 75.588C107.056 75.348 106.918 74.602 106.472 74.622C106.204 74.634 106.014 74.884 105.89 75.121C105.434 75.993 105.33 77.043 105.606 77.988C105.963 78.087 106.354 78.057 106.691 77.903C106.819 77.51 106.751 77.059 106.514 76.721C105.83 77.097 105.403 77.852 105.313 78.627C105.214 79.479 105.611 80.477 106.438 80.703C107.265 80.929 108.196 79.838 107.634 79.189C107.164 78.646 106.235 78.939 105.753 79.472C105.103 80.192 104.932 81.439 105.654 82.087C106.376 82.735 107.86 82.025 107.563 81.101C106.818 81.369 106.652 82.555 107.295 83.018" stroke="#010101" stroke-width="1.5" stroke-linecap="round" stroke-linejoin="round"/>
<path d="M106.45 79.262C106.743 79.686 107.372 79.892 107.803 79.609C108.234 79.326 108.215 78.535 107.728 78.363C107.24 78.191 106.766 78.684 106.586 79.17C106.296 79.953 106.37 80.863 106.783 81.589C107.216 81.473 107.686 81.287 107.875 80.881C108.064 80.475 107.708 79.86 107.282 80.001C107.071 80.071 106.946 80.283 106.856 80.486C106.54 81.196 106.444 82.084 106.906 82.708C107.368 83.332 108.517 83.389 108.839 82.682C108.799 82.066 107.878 81.866 107.398 82.253C106.918 82.64 106.797 83.316 106.751 83.931C106.718 84.376 106.713 84.851 106.938 85.237C107.163 85.623 107.697 85.861 108.074 85.621C108.451 85.381 108.313 84.635 107.867 84.655C107.599 84.667 107.409 84.917 107.285 85.154C106.829 86.026 106.725 87.076 107.001 88.021C107.358 88.12 107.749 88.09 108.086 87.936C108.214 87.543 108.146 87.092 107.909 86.754C107.225 87.13 106.798 87.885 106.708 88.66C106.609 89.512 107.006 90.51 107.833 90.736C108.66 90.962 109.591 89.871 109.029 89.222C108.559 88.679 107.63 88.972 107.148 89.505C106.498 90.225 106.327 91.472 107.049 92.12C107.771 92.768 109.255 92.058 108.958 91.134C108.213 91.402 108.047 92.588 108.69 93.051" stroke="#010101" stroke-width="1.5" stroke-linecap="round" stroke-linejoin="round"/>
<path d="M84.475 65.997C84.31 66.427 84.146 66.857 83.981 67.287C84.625 67.621 85.498 66.963 85.392 66.222C83.971 66.118 82.575 67.246 82.321 68.705C82.978 69.628 84.627 69.33 84.928 68.235C84.556 67.898 83.948 68.023 83.6 68.379C83.252 68.735 83.106 69.25 83.001 69.749C82.862 70.413 82.868 71.289 83.465 71.571C84.286 71.96 84.928 70.783 85.115 69.869C84.611 69.356 83.749 69.52 83.191 69.954C82.363 70.598 81.971 71.944 82.616 72.801C83.262 73.658 84.934 73.243 84.876 72.161C84.19 71.602 83.144 72.064 82.644 72.794C82.223 73.408 82.036 74.237 82.308 74.944C82.58 75.651 83.383 76.143 84.069 75.901C84.755 75.659 85.061 74.599 84.533 74.071C83.732 73.647 82.764 74.314 82.357 75.139C81.869 76.128 81.956 77.522 82.831 78.177C83.706 78.832 85.248 78.099 85.067 76.995C84.535 76.439 83.567 76.697 83.107 77.308C82.647 77.919 82.556 78.741 82.482 79.518C82.458 79.766 82.437 80.028 82.537 80.255C82.778 80.803 83.51 80.813 84.078 80.73C84.507 80.667 84.974 80.579 85.25 80.233C85.526 79.887 85.405 79.21 84.973 79.162C84.813 79.145 84.659 79.216 84.52 79.297C83.974 79.615 83.53 80.105 83.217 80.67C82.849 81.333 82.658 82.157 82.922 82.879C83.186 83.601 84.012 84.121 84.693 83.835C85.374 83.549 85.515 82.35 84.847 82.015C84.017 81.598 83.273 82.69 82.955 83.583C82.743 84.179 82.527 84.812 82.643 85.44C82.759 86.068 83.345 86.654 83.937 86.501C84.39 86.384 84.66 85.908 84.83 85.455C84.986 85.039 85.041 84.448 84.655 84.246C84.381 84.103 84.056 84.265 83.809 84.449C83.337 84.802 82.921 85.275 82.76 85.859C82.599 86.443 82.744 87.147 83.212 87.518C83.68 87.889 84.462 87.782 84.721 87.239C84.98 86.696 84.452 85.91 83.889 86.066C83.646 86.133 83.462 86.334 83.304 86.537C82.823 87.155 82.457 87.937 82.564 88.731C82.671 89.525 83.403 90.258 84.154 90.106C84.905 89.954 85.215 88.695 84.538 88.311C84.071 88.046 83.484 88.316 83.116 88.708C82.633 89.222 82.362 89.997 82.566 90.692C82.77 91.387 83.53 91.903 84.187 91.68C84.844 91.457 85.112 90.412 84.576 89.945C83.969 90.029 83.375 90.39 83.127 90.972C82.879 91.554 83.078 92.348 83.631 92.631C84.184 92.914 84.973 92.465 84.94 91.826C84.909 91.224 84.161 90.832 83.65 91.106C83.139 91.38 82.98 92.143 83.266 92.669C83.552 93.195 84.187 93.456 84.757 93.367" stroke="#010101" stroke-width="1.5" stroke-linecap="round" stroke-linejoin="round"/>
<path d="M81.301 67.141L79.157 68.943L79.365 69.677C79.945 69.776 80.588 69.5 80.864 68.98C81.14 68.46 80.979 67.733 80.479 67.423C79.716 66.952 78.697 67.601 78.317 68.413C77.909 69.287 77.994 70.441 78.713 71.083C79.432 71.725 80.788 71.549 81.142 70.652C81.478 69.802 80.717 68.784 79.807 68.699C78.897 68.614 78.032 69.296 77.708 70.151C77.384 71.006 77.523 71.979 77.87 72.824C78.213 73.659 78.917 74.495 79.819 74.446C80.488 74.41 81.066 73.837 81.181 73.178C81.296 72.519 80.986 71.822 80.464 71.402C79.147 72.638 78.119 74.61 78.962 76.207C79.304 76.855 80.123 77.362 80.764 77.007C81.021 76.865 81.196 76.613 81.357 76.368C81.909 75.525 82.299 74.177 81.416 73.692C80.554 73.218 79.628 74.215 79.219 75.109C78.919 75.765 78.662 76.463 78.677 77.184C78.692 77.905 79.03 78.656 79.669 78.992C80.308 79.328 81.235 79.093 81.5 78.422C81.765 77.751 81.051 76.878 80.373 77.124C79.902 77.295 79.689 77.83 79.557 78.313C79.312 79.206 79.154 80.123 79.085 81.046C79.043 81.616 79.121 82.328 79.653 82.537C80.149 82.733 80.678 82.33 80.991 81.898C81.352 81.399 81.606 80.781 81.504 80.173C81.402 79.565 80.853 79.012 80.24 79.065C79.589 79.122 79.163 79.773 78.943 80.388C78.486 81.664 78.481 83.097 78.929 84.377C79.035 84.679 79.195 85.002 79.495 85.11C79.892 85.253 80.313 84.944 80.549 84.595C80.954 83.995 80.935 82.969 80.244 82.756C79.552 82.542 78.981 83.332 78.757 84.021C78.451 84.96 78.311 85.952 78.344 86.939C78.366 87.585 78.529 88.328 79.107 88.616C80.029 89.075 81.011 87.907 81.011 86.877C81.011 86.113 80.41 85.19 79.686 85.436C79.298 85.568 79.09 85.979 78.938 86.36C78.666 87.042 78.446 87.789 78.621 88.502C78.796 89.215 79.5 89.843 80.218 89.688C80.781 89.567 81.183 88.943 81.061 88.381C80.939 87.819 80.315 87.417 79.753 87.54C79.294 87.64 78.945 88.025 78.741 88.448C78.347 89.268 78.484 90.401 79.251 90.89C80.018 91.379 81.291 90.758 81.166 89.857C81.166 89.857 79.18 88.438 78.433 90.899C77.686 93.36 80.095 93.461 81.015 93.235C81.935 93.009 82.328 91.805 79.733 91.673C77.138 91.541 79.045 93.254 80.293 93.517" stroke="#010101" stroke-width="1.5" stroke-linecap="round" stroke-linejoin="round"/>
<path d="M97.974 72.809C97.635 74.372 97.686 76.018 98.123 77.556C98.725 77.142 98.89 76.211 98.465 75.616C96.239 77.508 95.697 81.095 97.264 83.56C97.814 83.502 98.379 83.441 98.869 83.186C99.359 82.931 99.766 82.435 99.747 81.882C99.728 81.329 99.147 80.818 98.626 81.002C98.264 81.13 98.063 81.507 97.896 81.854C97.48 82.717 97.057 83.6 96.947 84.551C96.836 85.502 97.094 86.552 97.836 87.158C98.243 86.911 98.687 86.613 98.784 86.147C98.881 85.681 98.32 85.142 97.949 85.44C97.443 86.475 96.928 87.543 96.853 88.692C96.821 89.183 96.882 89.708 97.18 90.1C97.478 90.492 98.066 90.691 98.485 90.431C98.904 90.171 98.906 89.412 98.443 89.245C97.48 89.547 96.745 90.431 96.551 91.421C96.448 91.947 96.499 92.532 96.831 92.953C97.163 93.374 97.825 93.549 98.257 93.232C98.689 92.915 98.632 92.098 98.12 91.94C97.277 92.427 97.388 93.923 98.294 94.281" stroke="#010101" stroke-width="1.5" stroke-linecap="round" stroke-linejoin="round"/>
<path d="M92.693 70.888C92.354 72.451 92.405 74.097 92.842 75.635C93.444 75.221 93.609 74.29 93.184 73.695C90.958 75.587 90.416 79.174 91.983 81.639C92.533 81.581 93.098 81.52 93.588 81.265C94.078 81.01 94.485 80.514 94.466 79.961C94.447 79.408 93.866 78.897 93.345 79.081C92.983 79.209 92.782 79.586 92.615 79.933C92.199 80.796 91.776 81.679 91.666 82.63C91.556 83.581 91.813 84.631 92.555 85.237C92.962 84.99 93.406 84.692 93.503 84.226C93.6 83.76 93.039 83.221 92.668 83.519C92.162 84.554 91.647 85.622 91.572 86.771C91.54 87.262 91.601 87.787 91.899 88.179C92.197 88.571 92.785 88.77 93.204 88.51C93.623 88.25 93.625 87.491 93.162 87.324C92.199 87.626 91.464 88.51 91.27 89.5C91.167 90.026 91.218 90.611 91.55 91.032C91.882 91.453 92.544 91.628 92.976 91.311C93.408 90.994 93.351 90.177 92.839 90.019C91.996 90.506 92.107 92.002 93.013 92.36" stroke="#010101" stroke-width="1.5" stroke-linecap="round" stroke-linejoin="round"/>
<path d="M48.182 51.634C47.035 53.904 45.888 56.174 44.741 58.444C44.528 58.865 44.309 59.319 44.366 59.788C44.492 60.818 45.757 61.209 46.783 61.368C47.619 61.497 48.454 61.626 49.29 61.755" stroke="#010101" stroke-width="1.5" stroke-linecap="round" stroke-linejoin="round"/>
<path d="M96.556 78.8C96.556 78.8 97.859 80.726 99.191 79.141" stroke="#010101" stroke-width="1.5" stroke-linecap="round" stroke-linejoin="round"/>
<path d="M105.459 73.189C105.459 73.189 108.36 74.241 108.066 75.642C107.772 77.043 105.607 77.989 105.607 77.989" stroke="#010101" stroke-width="1.5" stroke-linecap="round" stroke-linejoin="round"/>
<path d="M110.14 135.779L28.62 135.819C30.85 123.439 29.69 102.419 29.31 96.619C32.16 96.059 35.38 95.529 38.81 95.049C39.26 100.419 40.63 116.129 41.64 120.669C41.64 120.669 82.07 123.569 92.78 120.669C92.78 120.669 91.19 103.689 89.83 93.629C94.29 93.819 98.17 94.229 101.56 94.869C102.41 103.349 105.25 126.229 110.14 135.779Z" fill="#E3E3FF" stroke="#010101" stroke-width="1.5" stroke-linecap="round" stroke-linejoin="round"/>
<path d="M134.41 135.819L110.14 135.779C105.25 126.229 102.41 103.349 101.56 94.869C113.59 97.139 119.5 100.339 123.95 109.209C129.6 120.479 134.41 135.819 134.41 135.819Z" fill="white" stroke="#010101" stroke-width="1.5" stroke-linecap="round" stroke-linejoin="round"/>
<path d="M28.62 135.819H0.75C1.02 134.179 1.46 132.469 2.08 130.659C5.22 121.569 8.85 101.769 24.22 97.759C25.74 97.369 27.44 96.979 29.31 96.619C29.69 102.419 30.85 123.439 28.62 135.819Z" fill="white" stroke="#010101" stroke-width="1.5" stroke-linecap="round" stroke-linejoin="round"/>
<path d="M103.957 51.911C103.844 51.776 103.75 51.616 103.734 51.44C103.689 50.946 104.246 50.612 104.737 50.539C105.648 50.403 106.64 50.755 107.186 51.496" stroke="#010101" stroke-width="1.5" stroke-linecap="round" stroke-linejoin="round"/>
<path d="M97.874 41.996C98.807 41.739 99.823 41.791 100.726 42.142C100.125 42.885 98.921 43.043 98.149 42.48C98.884 41.354 100.969 41.711 101.288 43.017C100.999 44.08 99.583 44.648 98.64 44.079C99.221 43.532 99.984 43.079 100.774 43.186C101.564 43.293 102.243 44.198 101.875 44.907C101.685 45.273 101.29 45.483 100.9 45.616C100.168 45.867 99.152 45.799 98.88 45.075C99.298 44.349 100.171 43.96 101.009 43.978C101.847 43.996 102.644 44.371 103.311 44.877C103.494 45.016 103.674 45.171 103.773 45.378C103.898 45.639 103.877 45.95 103.79 46.226C103.56 46.953 102.863 47.508 102.103 47.57C101.343 47.632 100.566 47.196 100.222 46.515C100.81 45.844 101.801 45.639 102.678 45.802C103.555 45.965 104.34 46.44 105.07 46.953C105.38 47.171 105.7 47.419 105.825 47.776C106.145 48.694 105.049 49.435 104.145 49.793C103.771 49.941 103.324 50.083 102.99 49.859C102.655 49.634 102.623 49.115 102.842 48.776C103.061 48.437 103.457 48.252 103.85 48.159C104.857 47.921 106.007 48.227 106.667 49.024C107.327 49.821 107.38 51.1 106.695 51.875" stroke="#010101" stroke-width="1.5" stroke-linecap="round" stroke-linejoin="round"/>
<path d="M102.941 89.789C102.941 89.789 102.67 93.266 104.553 93.63C106.436 93.994 107.414 93.088 107.232 92.604C107.05 92.12 106.515 89.159 105.325 90.254" stroke="#010101" stroke-width="1.5" stroke-linecap="round" stroke-linejoin="round"/>
</g>
<defs>
<clipPath id="clip0_35_3743">
<rect width="136.898" height="136.569" fill="white"/>
</clipPath>
</defs>
</svg>
