<svg width="137" height="137" viewBox="0 0 137 137" fill="none" xmlns="http://www.w3.org/2000/svg">
<g clip-path="url(#clip0_35_3790)">
<path d="M135.816 0.75H0.75V135.816H135.816V0.75Z" fill="white" stroke="#010101" stroke-width="1.5" stroke-linecap="round" stroke-linejoin="round"/>
<path d="M82.467 23.29C82.973 23.603 83.991 23.465 84.294 23.977C84.546 23.599 85.172 23.69 85.467 24.035C85.762 24.38 85.816 24.863 85.858 25.315C86.358 24.564 87.847 24.468 88.667 24.845C90.832 25.842 89.583 26.362 90.282 26.933C91.402 25.384 94.05 27.272 93.196 29.314C93.168 29.144 93.301 28.965 93.471 28.942C96.157 29.336 95.783 30.723 95.632 32.417C96.743 32.04 97.63 32.826 97.67 33.738C97.724 33.128 98.578 32.883 99.113 33.181C99.648 33.479 99.921 34.083 100.159 34.648C100.807 34.468 101.504 34.864 101.885 35.419C102.266 35.974 102.401 36.655 102.527 37.316C103.138 37.416 103.682 37.857 103.907 38.434C104.132 39.011 104.028 39.704 103.645 40.19C103.609 40.028 103.84 39.914 103.989 39.986C104.138 40.058 104.211 40.228 104.267 40.384C104.627 41.374 104.871 42.405 104.994 43.451C106.023 44.569 106.09 46.051 105.358 47.01C105.864 47.477 105.87 48.379 105.37 48.853C106.079 49.094 106.319 49.982 106.3 50.731C106.281 51.48 106.121 52.273 106.445 52.948C106.76 53.606 107.514 54.12 107.431 54.845C107.354 55.525 106.588 55.871 105.931 56.061C106.571 56.341 106.855 57.084 107.013 57.764C107.343 59.181 107.413 60.659 107.217 62.101C108.097 62.806 108.513 63.571 108.367 64.261C108.221 64.951 107.534 65.483 106.829 65.45C107.517 66.182 108.017 67.158 107.936 68.16C107.855 69.162 107.062 70.132 106.058 70.183C106.59 70.611 107.042 71.205 107.081 71.886C107.12 72.567 106.609 73.298 105.927 73.308C106.234 73.546 106.54 73.785 106.847 74.023C106.542 75.193 106.017 76.306 105.308 77.285C105.671 78.203 105.811 78.777 105.602 79.212C105.393 79.647 104.856 79.895 104.389 79.774C104.768 80.353 104.755 81.164 104.357 81.731C103.959 82.298 103.201 82.585 102.527 82.425C103.058 83.106 102.736 84.266 101.93 84.576C101.895 85.46 101.445 86.318 100.738 86.849C100.986 87.254 100.897 87.688 100.713 87.893C99.904 88.794 98.787 89.413 97.593 89.621C97.746 89.571 97.789 89.829 97.728 89.978C97.265 91.1 96.127 91.815 94.961 92.153C94.332 92.335 93.667 92.435 93.098 92.759C92.201 93.27 91.693 94.247 91.232 95.171C89.366 96.442 88.134 98.843 86.519 100.923C81.457 107.443 72.819 110.406 64.564 110.386C56.31 110.366 48.298 107.743 40.565 104.855C38.437 104.06 36.266 103.212 34.576 101.696C32.886 100.179 31.754 97.831 32.295 95.625C31.667 95.056 31.258 94.581 31.15 94.036C31.042 93.491 31.237 92.896 31.647 92.521C31.128 92.75 30.458 92.56 30.136 92.092C29.814 91.624 29.878 90.93 30.279 90.528C29.842 90.676 29.311 90.349 29.245 89.892C29.179 89.435 29.597 88.972 30.058 88.99C29.412 89.313 28.616 88.695 28.479 87.985C28.342 87.275 28.645 86.563 28.942 85.905C28.213 86.21 26.944 85.357 27.003 84.426C27.062 83.495 27.894 82.809 28.718 82.371C28.02 83.201 26.464 82.989 26.013 82.003C25.562 81.017 26.421 79.701 27.505 79.717C26.602 79.907 25.6 79.414 25.199 78.583C25.566 77.978 26.228 77.562 26.932 77.493C26.017 78.013 24.688 77.523 24.329 76.534C23.97 75.545 24.675 74.316 25.71 74.128C24.704 73.916 23.901 72.971 23.855 71.943C23.809 70.915 24.524 69.902 25.508 69.601C24.541 69.392 23.766 68.497 23.696 67.51C23.626 66.523 24.267 65.528 25.194 65.184C23.689 64.487 23.973 61.781 25.591 61.412C24.319 60.49 24.633 58.147 26.103 57.593C24.559 56.851 24.882 54.066 26.554 53.696C25.41 52.795 25.866 50.613 27.274 50.244C26.947 49.916 26.619 49.587 26.292 49.259C28.756 48.206 27.632 43.705 30.023 42.495C29.29 41.176 30.172 39.261 31.651 38.961C30.989 38.077 31.892 35.506 32.611 34.668C33.566 33.556 34.364 33.792 35.319 32.68C34.976 32.314 35.604 29.816 35.903 29.413C36.837 28.152 38.523 29.322 39.731 28.321C40.737 27.487 40.944 24.806 42.094 24.184C43.244 23.562 43.805 24.701 45.056 24.323C45.47 22.702 47.87 21.492 48.795 22.763C49.147 19.309 53.311 20.309 53.05 21.89C53.381 21.357 53.441 19.495 54.069 19.503C54.697 19.511 55.309 19.868 55.626 20.41C55.606 19.62 56.169 18.852 56.928 18.633C57.687 18.414 58.573 18.765 58.976 19.444C59.005 18.798 59.517 18.204 60.152 18.08C60.787 17.956 62.301 18.207 62.608 19.136C63.213 16.874 67.094 18.656 67.135 19.014C67.294 18.419 68.035 18.143 68.635 18.279C69.235 18.415 69.721 18.843 70.175 19.259C70.722 18.569 71.48 17.988 72.355 17.901C73.231 17.814 73.607 18.935 73.772 19.799C74.272 19.146 75.134 18.79 75.949 18.9C76.764 19.01 77.606 20.399 77.915 21.162C78.641 20.65 79.641 20.553 80.452 20.917C81.263 21.281 81.855 22.092 82.467 23.289V23.29Z" fill="#010101" stroke="#010101" stroke-width="1.5" stroke-linecap="round" stroke-linejoin="round"/>
<path d="M40.365 46.96C41.014 46.723 40.982 45.819 41.196 45.162C41.41 44.505 42.689 44.32 42.533 44.993C41.744 44.624 41.363 43.424 42.019 42.851C42.675 42.278 43.926 43.329 43.321 43.956C42.751 43.342 42.834 42.244 43.49 41.722C44.146 41.2 45.234 41.366 45.704 42.06C45.785 41.184 45.865 40.308 45.946 39.432C46.391 39.584 46.836 39.736 47.281 39.887C47.968 39.237 47.996 38.018 47.341 37.337C46.777 37.874 47.947 38.788 48.516 38.255C49.085 37.722 48.813 36.722 48.241 36.193C47.607 36.116 47.279 37.132 47.764 37.547C48.25 37.962 49.076 37.699 49.393 37.144C49.71 36.589 49.614 35.88 49.341 35.302C50.411 35.514 51.525 34.457 51.37 33.378C51.42 33.931 52.484 33.807 52.406 33.257C52.603 33.87 52.799 34.483 52.996 35.097C52.342 35.311 51.967 36.135 52.235 36.769C52.503 37.403 53.356 37.707 53.965 37.386C53.255 37.587 52.789 38.413 52.984 39.125C53.179 39.837 54.001 40.309 54.715 40.119C54.189 40.553 54.075 41.406 54.47 41.963C54.865 42.52 55.708 42.694 56.291 42.34C55.881 43.127 56.418 44.238 57.29 44.406C58.162 44.574 59.073 43.741 58.984 42.858C58.047 43.569 58.088 45.218 59.06 45.881C60.032 46.544 61.582 45.981 61.902 44.849C60.746 45.279 60.509 47.13 61.52 47.837C62.531 48.544 64.188 47.687 64.195 46.453C63.488 47.306 63.891 48.812 64.93 49.198C65.969 49.584 67.257 48.706 67.278 47.598C66.187 47.749 65.598 49.29 66.31 50.13C67.022 50.97 68.638 50.642 68.967 49.591C68.22 50.238 68.196 51.545 68.918 52.219C69.64 52.893 70.942 52.78 71.537 51.99C71.331 52.683 71.716 53.501 72.381 53.784C73.046 54.067 73.902 53.78 74.26 53.151C73.749 53.004 73.383 53.78 73.659 54.235C73.935 54.69 74.508 54.849 75.027 54.968C75.546 55.087 76.119 55.242 76.399 55.694C76.682 55.053 76.965 54.412 77.248 53.771C77.016 54.236 77.057 54.825 77.053 55.256C78.264 55.477 79.131 54.138 80.239 53.603C81.047 53.213 81.996 53.264 82.88 53.42C83.557 53.54 84.242 53.724 84.799 54.127C85.446 54.595 85.86 55.313 86.225 56.023C86.662 56.873 87.062 57.753 87.251 58.69C87.667 60.753 86.976 62.987 85.53 64.516C84.084 66.045 80.391 69.047 77.994 69.12C79.081 77.388 79.844 88.246 80.764 93.406C84.049 93.669 87.885 93.6 91.751 93.831C94.568 98.052 96.858 100.889 96.727 105.962C96.583 111.518 93.553 116.612 89.93 120.827C87.94 123.143 85.701 125.315 82.989 126.719C80.097 128.216 76.81 128.768 73.564 129.026C64.152 129.777 54.562 128.199 45.887 124.471C42.99 123.226 40.134 121.701 38.002 119.378C35.385 116.527 34.055 112.603 34.104 108.733C34.153 104.863 35.526 101.065 37.72 97.876C38.411 96.871 39.211 95.897 40.278 95.305C41.49 94.633 42.922 94.518 44.304 94.418C47.485 94.187 50.666 93.957 53.879 93.525C53.711 90.846 53.439 88.173 53.058 85.117C46.574 85.398 40.215 80.685 38.598 74.399C38.034 72.208 37.998 69.918 38.044 67.656C38.186 60.57 39.094 53.499 40.364 46.956L40.365 46.96Z" fill="white" stroke="#010101" stroke-width="1.5" stroke-linecap="round" stroke-linejoin="round"/>
<path d="M46.706 58.538C45.685 61.411 44.663 64.283 43.642 67.156C44.992 67.99 46.534 68.511 48.113 68.665" stroke="#010101" stroke-width="1.5" stroke-linecap="round" stroke-linejoin="round"/>
<path d="M52.132 85.199C55.229 85.514 58.253 84.294 61.127 83.098" stroke="#010101" stroke-width="1.5" stroke-linecap="round" stroke-linejoin="round"/>
<path d="M135.113 135.819L94.003 135.749L91.603 135.819H1.453C1.733 134.179 2.163 132.469 2.783 130.659C5.923 121.569 9.553 101.769 24.923 97.759C29.363 96.599 35.513 95.559 42.263 94.669C42.313 101.819 45.263 110.709 50.213 115.509C55.503 120.619 63.043 123.309 70.373 122.699C74.613 122.339 78.813 120.889 82.103 118.189C89.183 112.389 90.733 103.109 90.973 93.649C110.983 94.589 118.993 97.919 124.663 109.209C130.303 120.479 135.113 135.819 135.113 135.819Z" fill="#7B5FF1" stroke="#010101" stroke-width="1.5" stroke-linecap="round" stroke-linejoin="round"/>
<path d="M65.47 122.609C65.475 126.375 65.532 135.816 65.532 135.816" stroke="#010101" stroke-width="1.5" stroke-linecap="round" stroke-linejoin="round"/>
<path d="M73.28 128.874C72.749 128.928 72.225 129.188 71.924 129.629C71.623 130.07 71.585 130.698 71.893 131.135C72.198 131.567 72.749 131.737 73.264 131.856C73.464 131.902 73.674 131.945 73.872 131.894C74.052 131.848 74.203 131.73 74.348 131.613C74.585 131.422 74.822 131.223 74.99 130.969C75.158 130.715 75.251 130.395 75.169 130.102C75.117 129.914 74.998 129.751 74.863 129.61C74.569 129.304 74.205 128.779 73.279 128.873L73.28 128.874Z" stroke="#010101" stroke-width="1.5" stroke-linecap="round" stroke-linejoin="round"/>
</g>
<defs>
<clipPath id="clip0_35_3790">
<rect width="136.566" height="136.569" fill="white"/>
</clipPath>
</defs>
</svg>
