<svg width="137" height="137" viewBox="0 0 137 137" fill="none" xmlns="http://www.w3.org/2000/svg">
<g clip-path="url(#clip0_35_3701)">
<path d="M135.816 0.75H0.75V135.816H135.816V0.75Z" fill="white" stroke="#010101" stroke-width="1.5" stroke-linecap="round" stroke-linejoin="round"/>
<path d="M103.388 135.815H45.128C44.538 126.665 43.928 115.525 43.168 106.425C42.638 100.165 41.028 93.105 54.008 91.625C58.018 101.655 80.128 101.345 85.228 91.515C89.068 91.885 92.718 90.815 94.498 95.475C99.078 107.475 101.768 122.445 103.388 135.815Z" fill="#010101" stroke="#010101" stroke-width="1.5" stroke-linecap="round" stroke-linejoin="round"/>
<path d="M38.779 47.536C37.416 46.984 36.814 45.366 36.722 43.898C36.63 42.43 36.886 40.931 36.552 39.499C36.341 38.598 35.905 37.767 35.619 36.886C34.465 33.339 36.122 29.089 39.372 27.259C40.118 26.839 40.953 26.519 41.52 25.878C42.369 24.918 42.469 23.398 43.482 22.614C44.7 21.67 46.444 22.309 47.983 22.245C49.258 22.192 50.446 21.628 51.651 21.209C55.484 19.875 59.647 19.974 63.704 20.087C65.344 20.133 67.014 20.184 68.563 20.722C69.448 21.03 70.276 21.49 71.168 21.777C72.363 22.161 73.635 22.221 74.868 22.458C77.928 23.046 80.662 24.699 83.322 26.323C85.24 27.494 87.231 28.737 88.391 30.661C89.268 32.117 89.588 33.836 90.289 35.385C90.853 36.63 91.657 37.75 92.285 38.964C94.028 42.335 93.306 46.24 93.577 50.025C93.674 51.379 93.771 52.744 93.597 54.09C93.478 55.01 93.234 55.909 92.978 56.8C91.188 63.025 84.386 72.822 81.359 78.549C81.161 78.923 80.941 79.316 80.569 79.517C79.916 79.869 79.122 79.488 78.493 79.095C73.32 75.868 74.346 67.604 71.282 62.333C68.844 58.138 66.982 53.209 62.817 50.72C57.448 47.512 50.627 49.658 44.381 49.356C43.253 49.301 41.945 48.817 38.781 47.535L38.779 47.536Z" fill="#010101" stroke="#010101" stroke-width="1.5" stroke-linecap="round" stroke-linejoin="round"/>
<path d="M82.066 91.581C82.066 91.581 81.897 73.197 81.268 66.224C82.716 66.259 86.669 65.388 86.923 60.466C87.062 57.763 84.689 53.344 81.847 53.297C76.511 53.21 76.568 58.592 75.937 61.094C74.58 61.072 74.246 61.281 72.888 61.258C72.691 56.792 72.927 52.352 71.57 48.093C70.358 44.289 68.381 40.306 64.709 38.741C60.925 37.129 56.584 38.578 52.483 38.265C49.474 38.035 46.268 36.878 43.576 38.242C40.774 39.662 39.846 43.177 39.527 46.302C39.127 50.231 37.507 65.976 42.944 75.041C45.978 80.099 52.401 83.384 58.05 81.687L57.953 91.341C54.756 91.661 54.86 91.487 51.757 91.872L50.702 95.977C46.491 118.938 94.98 122.354 90.944 94.651L87.119 91.535C86.101 91.517 84.26 91.529 82.59 91.582" fill="white"/>
<path d="M82.066 91.581C82.066 91.581 81.897 73.197 81.268 66.224C82.716 66.259 86.669 65.388 86.923 60.466C87.062 57.763 84.689 53.344 81.847 53.297C76.511 53.21 76.568 58.592 75.937 61.094C74.58 61.072 74.246 61.281 72.888 61.258C72.691 56.792 72.927 52.352 71.57 48.093C70.358 44.289 68.381 40.306 64.709 38.741C60.925 37.129 56.584 38.578 52.483 38.265C49.474 38.035 46.268 36.878 43.576 38.242C40.774 39.662 39.846 43.177 39.527 46.302C39.127 50.231 37.507 65.976 42.944 75.041C45.978 80.099 52.401 83.384 58.05 81.687L57.953 91.341C54.756 91.661 54.86 91.487 51.757 91.872L50.702 95.977C46.491 118.938 94.98 122.354 90.944 94.651L87.119 91.535C86.101 91.517 84.26 91.529 82.59 91.582" stroke="#010101" stroke-width="1.5" stroke-linecap="round" stroke-linejoin="round"/>
<path d="M52.581 53.065L50.721 62.111C50.636 62.522 50.578 63.019 50.89 63.299C51.057 63.448 51.29 63.493 51.511 63.529C52.863 63.75 54.231 63.871 55.601 63.89" stroke="#010101" stroke-width="1.5" stroke-linecap="round" stroke-linejoin="round"/>
<path d="M65.3 77.726C63.204 80.157 60.596 81.192 57.259 81.884" stroke="#010101" stroke-width="1.5" stroke-linecap="round" stroke-linejoin="round"/>
<path d="M92.48 135.745L135.115 135.816C135.115 135.816 130.307 118.475 124.659 107.213C118.655 95.241 109.89 91.965 87.118 91.533L92.48 135.745Z" fill="#E3E3FF" stroke="#010101" stroke-width="1.5" stroke-linecap="round" stroke-linejoin="round"/>
<path d="M57.027 135.816H1.45099C1.72899 134.182 2.16099 132.465 2.78299 130.659C5.92699 121.57 9.55699 99.765 24.927 95.756C29.847 94.477 44.153 92.811 51.755 91.87L57.027 135.816Z" fill="#E3E3FF" stroke="#010101" stroke-width="1.5" stroke-linecap="round" stroke-linejoin="round"/>
<path d="M87.118 91.533L87.112 91.504" stroke="#010101" stroke-width="1.5" stroke-linecap="round" stroke-linejoin="round"/>
</g>
<defs>
<clipPath id="clip0_35_3701">
<rect width="136.566" height="136.566" fill="white"/>
</clipPath>
</defs>
</svg>
