<svg width="138" height="138" viewBox="0 0 138 138" fill="none" xmlns="http://www.w3.org/2000/svg">
<g clip-path="url(#clip0_35_3922)">
<path d="M68.849 136.386C106.146 136.386 136.382 106.15 136.382 68.853C136.382 31.5556 106.146 1.32001 68.849 1.32001C31.5516 1.32001 1.31604 31.5556 1.31604 68.853C1.31604 106.15 31.5516 136.386 68.849 136.386Z" fill="white" stroke="#010101" stroke-width="1.5" stroke-linecap="round" stroke-linejoin="round"/>
<path d="M55.942 32.638C55.526 33.828 55.316 35.089 55.324 36.35C56.235 36.494 57.478 36.431 57.687 35.533C57.878 34.709 56.766 34.045 55.989 34.379C55.212 34.713 54.846 35.628 54.799 36.472C54.749 37.387 55.004 38.348 55.641 39.006C56.277 39.665 57.329 39.948 58.154 39.551C58.979 39.154 59.405 38.017 58.922 37.239C58.439 36.461 57.077 36.426 56.655 37.239C56.452 37.629 56.481 38.098 56.561 38.53C56.725 39.422 57.111 40.312 57.822 40.875C58.533 41.438 59.614 41.588 60.35 41.058C61.086 40.528 61.223 39.271 60.502 38.721C59.605 38.037 58.183 38.965 58.092 40.089C58.001 41.213 58.82 42.224 59.762 42.844C60.459 43.303 61.369 43.621 62.115 43.249C62.861 42.877 63.009 41.558 62.22 41.288C61.72 41.117 61.154 41.48 60.952 41.968C60.75 42.456 60.833 43.017 61.003 43.518C61.257 44.266 61.739 44.986 62.469 45.286C63.199 45.586 64.186 45.313 64.477 44.579C64.768 43.845 63.987 42.879 63.25 43.162C62.614 43.407 62.48 44.252 62.578 44.925C62.74 46.04 63.394 47.202 64.488 47.475C65.582 47.748 66.881 46.57 66.388 45.556C65.556 45.425 64.882 46.326 64.824 47.166C64.769 47.972 65.129 48.832 65.831 49.231C66.533 49.63 67.558 49.433 67.95 48.728C68.342 48.023 67.841 46.956 67.034 46.922C66.599 47.736 66.703 48.831 67.346 49.492C67.989 50.153 69.149 50.266 69.859 49.676C70.569 49.086 70.642 47.853 69.954 47.237C69.621 47.98 69.281 48.79 69.463 49.584C69.645 50.378 70.615 51.021 71.422 50.885C71.928 50.389 72.311 49.768 72.526 49.092C72.249 48.954 71.893 49.12 71.735 49.386C71.577 49.652 71.578 49.984 71.63 50.289C71.782 51.177 72.403 52.018 73.274 52.249C74.145 52.48 75.199 51.941 75.367 51.056C75.449 50.627 75.201 50.07 74.764 50.09C74.444 50.105 74.223 50.42 74.119 50.723C73.78 51.718 74.317 52.989 75.333 53.259C76.349 53.529 77.516 52.458 77.18 51.462C76.759 51.885 76.812 52.677 77.285 53.04C77.758 53.403 78.537 53.251 78.837 52.736" stroke="#010101" stroke-width="1.5" stroke-linecap="round" stroke-linejoin="round"/>
<path d="M45.693 34.904C45.434 35.695 45.394 36.557 45.578 37.369C46.167 37.212 46.751 36.886 47.021 36.34C47.291 35.794 47.117 35.012 46.554 34.779C45.929 35.286 46.32 36.459 47.103 36.644C47.886 36.829 48.698 36.191 48.9 35.412C49.049 34.835 48.799 34.07 48.208 33.991C47.933 34.77 48.591 35.721 49.417 35.738C50.243 35.755 50.94 34.831 50.696 34.042C50.614 33.777 50.402 33.515 50.124 33.517C49.673 33.521 49.531 34.146 49.64 34.584C49.809 35.263 50.418 35.945 51.101 35.787C51.396 35.719 51.635 35.508 51.844 35.291C52.17 34.953 52.472 34.551 52.518 34.083C52.564 33.615 52.257 33.088 51.789 33.047C51.168 32.992 50.789 33.891 51.159 34.392C51.529 34.893 52.317 34.926 52.849 34.6C53.223 34.371 53.515 33.957 53.479 33.52C53.443 33.083 52.988 32.692 52.569 32.822C52.593 33.488 53.215 34.074 53.881 34.06C54.547 34.046 55.143 33.433 55.138 32.766" stroke="#010101" stroke-width="1.5" stroke-linecap="round" stroke-linejoin="round"/>
<path d="M45.472 37.07C44.26 35.866 44.369 33.61 45.691 32.529C46.278 32.049 47.173 31.815 47.789 32.258C48.405 32.701 48.255 33.925 47.498 33.985C46.642 34.053 46.366 32.788 46.714 32.003C46.989 31.383 47.602 30.79 48.261 30.951C49.093 31.154 49.217 32.34 48.84 33.109C48.646 33.505 48.22 33.904 47.819 33.721C47.661 33.649 47.552 33.499 47.472 33.345C46.862 32.178 47.595 30.683 48.692 29.956C49.317 29.542 50.184 29.312 50.797 29.745C51.41 30.178 51.229 31.417 50.478 31.404C49.802 30.75 49.791 29.611 50.252 28.792C50.795 27.826 52.086 27.229 53.068 27.744C54.05 28.259 54.103 30.009 53.053 30.364C52.134 29.192 52.788 27.369 53.957 26.447C54.44 26.066 55.032 25.773 55.645 25.816C56.258 25.859 56.867 26.323 56.912 26.936C56.957 27.549 56.246 28.131 55.7 27.848C55.43 27.013 55.474 26.038 55.991 25.328C56.508 24.618 57.553 24.282 58.317 24.713C59.081 25.144 59.275 26.387 58.582 26.925C57.889 27.463 56.635 26.755 56.853 25.905C56.921 25.64 57.098 25.417 57.288 25.221C57.681 24.815 58.179 24.474 58.741 24.414C59.303 24.354 59.926 24.64 60.123 25.17C60.32 25.7 59.919 26.401 59.354 26.388C59.209 25.67 59.198 24.877 59.586 24.255C59.974 23.633 60.865 23.292 61.476 23.697C62.087 24.102 61.94 25.283 61.212 25.368C61.006 24.442 61.414 23.312 62.318 23.025C63.222 22.738 64.314 23.815 63.824 24.627C63.586 24.703 63.309 24.469 63.346 24.222" stroke="#010101" stroke-width="1.5" stroke-linecap="round" stroke-linejoin="round"/>
<path d="M63.586 24.506C63.453 23.849 63.7 23.132 64.199 22.685C64.698 22.238 65.428 22.07 66.077 22.237C66.322 22.3 66.56 22.411 66.737 22.59C67.324 23.186 66.928 24.314 66.156 24.637C66.089 24.665 66.017 24.689 65.945 24.678C65.834 24.661 65.751 24.566 65.695 24.468C65.422 23.998 65.543 23.36 65.912 22.962C66.281 22.564 66.855 22.393 67.397 22.436C67.799 22.467 68.209 22.619 68.466 22.929C68.723 23.239 68.787 23.725 68.544 24.047C68.301 24.369 67.737 24.408 67.506 24.078C67.28 23.755 67.449 23.301 67.698 22.996C68.331 22.219 69.47 21.899 70.414 22.234C70.841 22.386 71.257 22.712 71.308 23.162C71.359 23.612 70.832 24.075 70.449 23.834C70.004 23.555 70.282 22.844 70.69 22.512C71.046 22.223 71.495 22.015 71.951 22.057C72.407 22.099 72.851 22.446 72.896 22.902C72.941 23.358 72.47 23.819 72.034 23.679C71.639 23.124 72.264 22.354 72.929 22.202C73.519 22.066 74.218 22.23 74.548 22.737C74.878 23.244 74.626 24.079 74.029 24.18C73.735 23.672 73.999 22.937 74.54 22.709C75.081 22.481 75.774 22.783 76 23.325C76.226 23.867 75.973 24.554 75.462 24.843C74.989 24.357 75.188 23.449 75.768 23.099C76.348 22.749 77.145 22.911 77.648 23.366C77.911 23.604 78.116 23.942 78.08 24.294C78.044 24.646 77.689 24.968 77.348 24.872" stroke="#010101" stroke-width="1.5" stroke-linecap="round" stroke-linejoin="round"/>
<path d="M77.6451 25.372C77.9301 24.799 77.637 24.047 77.971 23.502C78.256 23.038 78.917 22.919 79.426 23.113C79.935 23.307 80.314 23.739 80.622 24.188C81.007 24.749 81.323 25.449 81.11 26.095C80.897 26.741 79.9061 27.08 79.5191 26.52C79.2331 26.106 79.459 25.522 79.801 25.153C80.283 24.634 81.009 24.325 81.71 24.423C82.411 24.521 83.0511 25.064 83.1861 25.759C83.3211 26.454 82.878 27.237 82.191 27.409C81.659 26.595 82.416 25.384 83.384 25.294C84.352 25.204 85.245 25.986 85.551 26.909C85.689 27.325 85.724 27.811 85.487 28.18C85.25 28.549 84.669 28.701 84.359 28.391C84.068 28.099 84.1661 27.582 84.4351 27.269C85.0921 26.506 86.494 26.764 86.981 27.645C87.468 28.526 87.09 29.721 86.284 30.323C85.841 30.081 85.853 29.401 86.149 28.992C86.757 28.15 88.213 28.232 88.818 29.076C89.423 29.92 89.135 31.221 88.299 31.838C87.932 31.621 88.001 30.995 88.368 30.78C88.735 30.565 89.2371 30.717 89.5191 31.036C89.8011 31.355 89.9 31.798 89.919 32.224C89.95 32.914 89.7111 33.713 88.659 35.113C89.029 34.66 89.415 34.193 89.94 33.936C90.465 33.679 91.171 33.692 91.563 34.125C92.036 34.649 91.8481 35.485 91.5201 36.11C91.3801 36.377 91.211 36.642 90.958 36.806C90.705 36.97 90.349 37.009 90.11 36.826C89.695 36.509 89.9151 35.804 90.3381 35.497C91.0841 34.955 92.257 35.211 92.766 35.98C93.275 36.749 93.0901 37.875 92.4081 38.495C92.1821 38.7 91.8941 38.86 91.5891 38.849C91.2841 38.838 90.9761 38.614 90.9481 38.31C90.9151 37.94 91.281 37.652 91.64 37.555C92.42 37.344 93.355 37.78 93.596 38.552C93.837 39.324 93.212 40.269 92.404 40.258C92.322 40.257 92.238 40.246 92.165 40.208C91.846 40.037 92.018 39.521 92.321 39.324C93.09 38.825 94.22 39.383 94.528 40.247C94.836 41.111 94.496 42.092 93.929 42.813C93.808 42.966 93.492 43.058 93.486 42.863" stroke="#010101" stroke-width="1.5" stroke-linecap="round" stroke-linejoin="round"/>
<path d="M92.511 43.378C92.946 42.558 93.75 41.944 94.655 41.738C95.409 42.567 95.471 43.94 94.795 44.833C94.5 45.223 94.039 45.533 93.552 45.486C93.065 45.439 92.634 44.912 92.814 44.457C92.91 44.214 93.143 44.051 93.382 43.946C93.863 43.734 94.4391 43.702 94.9071 43.941C95.3751 44.18 95.698 44.717 95.611 45.235C95.524 45.753 94.976 46.171 92.511 43.378Z" stroke="#010101" stroke-width="1.5" stroke-linecap="round" stroke-linejoin="round"/>
<path d="M49.4131 32.404C50.0651 32.033 50.6531 31.549 51.1431 30.98C50.8271 30.783 50.3971 31.171 50.4501 31.539C50.5031 31.907 50.8601 32.161 51.2191 32.258C51.8341 32.424 52.5101 32.251 53.0291 31.882C53.5481 31.513 53.9211 30.966 54.1691 30.38C54.2631 30.159 54.3411 29.916 54.2881 29.682C54.2351 29.448 54.0011 29.241 53.7671 29.298C53.6151 29.336 53.5041 29.473 53.4481 29.619C53.2091 30.243 53.8681 30.929 54.5361 30.937C55.2041 30.945 55.7911 30.489 56.2251 29.98C56.4601 29.704 56.6771 29.383 56.6991 29.021C56.7211 28.659 56.4761 28.26 56.1141 28.231C55.7801 28.205 55.5011 28.484 55.3301 28.772C55.1841 29.018 55.0751 29.303 55.1161 29.586C55.1891 30.083 55.7381 30.416 56.2371 30.364C56.7361 30.312 57.1641 29.957 57.4331 29.533C57.5891 29.286 57.7051 28.98 57.6051 28.705C57.4641 28.317 56.8841 28.2 56.5811 28.481C56.2781 28.762 56.3231 29.314 56.6471 29.571C56.9711 29.828 57.4861 29.77 57.7731 29.473C58.0601 29.176 58.1121 28.692 57.9311 28.32" stroke="#010101" stroke-width="1.5" stroke-linecap="round" stroke-linejoin="round"/>
<path d="M58.6131 29.585C57.9611 30.336 57.5201 31.267 57.3521 32.247C57.8691 32.395 58.4721 32.509 58.9071 32.192C59.3421 31.875 59.2141 30.977 58.6781 31.014C58.5081 31.026 58.3571 31.128 58.2331 31.244C57.4261 32.001 57.6131 33.536 58.5791 34.076C59.5451 34.616 60.9511 33.974 61.1741 32.89C61.2231 32.65 61.2191 32.388 61.0951 32.176C60.8551 31.765 60.2311 31.714 59.8351 31.98C59.4391 32.246 59.2461 32.73 59.1771 33.202C59.0471 34.083 59.3411 35.082 60.0991 35.549C60.8571 36.016 62.0611 35.675 62.2661 34.808C62.3381 34.504 62.2691 34.15 62.0271 33.954C61.6351 33.637 61.033 33.88 60.687 34.246C60.193 34.768 59.9571 35.549 60.1651 36.238C60.3731 36.927 61.0571 37.465 61.7751 37.426C62.4931 37.387 63.1371 36.706 63.0651 35.991C63.0431 35.77 62.9521 35.547 62.7771 35.411C62.3741 35.101 61.7661 35.404 61.4841 35.827C60.9701 36.599 61.1411 37.765 61.8881 38.314C62.6351 38.863 63.8441 38.644 64.3071 37.84C64.5081 37.491 64.5371 36.983 64.2171 36.738C63.9051 36.5 63.4391 36.645 63.1421 36.902C62.5731 37.393 62.373 38.267 62.673 38.957C62.973 39.647 63.7461 40.098 64.4941 40.018C64.9851 39.966 65.4801 39.658 65.6101 39.181C65.7401 38.704 65.3521 38.118 64.8601 38.166C64.6871 38.183 64.5281 38.269 64.3941 38.379C63.9031 38.787 63.7741 39.569 64.1091 40.113C64.4441 40.657 65.2001 40.895 65.7861 40.64C66.0821 40.511 66.338 40.254 66.391 39.935C66.444 39.616 66.2431 39.255 65.9271 39.194C65.5221 39.115 65.1741 39.523 65.0821 39.925C64.9171 40.647 65.3111 41.458 65.9811 41.774C66.6511 42.09 67.5271 41.879 67.9801 41.293" stroke="#010101" stroke-width="1.5" stroke-linecap="round" stroke-linejoin="round"/>
<path d="M67.806 41.962L67.145 41.038C66.404 41.317 66.205 42.399 66.678 43.033C67.151 43.667 68.075 43.842 68.83 43.605C69.236 43.478 69.653 43.177 69.666 42.752C69.678 42.378 69.342 42.053 68.972 41.997C68.602 41.941 68.226 42.11 67.951 42.363C67.213 43.041 67.2 44.353 67.924 45.045C68.649 45.737 69.959 45.665 70.602 44.897C70.966 44.463 71.052 43.698 70.57 43.4C69.975 43.032 69.241 43.773 69.197 44.471C69.151 45.194 69.525 45.929 70.137 46.318C70.749 46.707 71.573 46.733 72.209 46.384C72.665 46.134 73.033 45.658 73.009 45.138C72.985 44.618 72.456 44.137 71.957 44.283C71.657 44.371 71.444 44.645 71.331 44.937C71.062 45.637 71.314 46.501 71.918 46.946C72.522 47.391 73.422 47.376 74.011 46.912C74.259 46.716 74.459 46.432 74.473 46.116C74.487 45.8 74.271 45.466 73.957 45.42C73.672 45.379 73.4 45.575 73.237 45.813C72.792 46.461 72.986 47.422 73.575 47.942C74.164 48.462 75.05 48.562 75.794 48.309C76.215 48.166 76.645 47.845 76.653 47.4C76.664 46.806 75.816 46.482 75.33 46.825C74.844 47.168 74.763 47.892 74.996 48.439C75.284 49.114 75.991 49.588 76.725 49.597C77.459 49.606 78.178 49.149 78.481 48.481C78.569 48.287 78.622 48.051 78.517 47.866C78.367 47.601 77.963 47.589 77.712 47.762C77.461 47.935 77.327 48.228 77.205 48.506C77.082 48.786 76.957 49.104 77.073 49.387C77.254 49.83 77.858 49.867 78.335 49.823C78.655 49.793 78.987 49.755 79.261 49.588C79.535 49.421 79.736 49.087 79.646 48.778C79.146 48.663 78.657 49.291 78.89 49.748C79.123 50.205 79.918 50.177 80.119 49.705" stroke="#010101" stroke-width="1.5" stroke-linecap="round" stroke-linejoin="round"/>
<path d="M78.389 65.735C83.347 68.492 88.69 65.955 88.826 61.123C88.896 58.637 87.843 56.172 86.121 54.377C85.407 53.633 84.5641 52.986 83.5881 52.654C81.4421 51.923 78.835 53.014 77.988 55.085C76.158 52.658 73.16 51.493 70.537 49.959C63.656 45.934 58.901 36.868 54.627 32.402C52.418 33.304 50.209 34.206 48 35.108C47.293 35.397 46.577 35.69 45.969 36.152C45.16 36.765 44.59 37.636 44.065 38.505C42.249 41.51 40.767 44.712 39.584 48.018C36.22 57.414 36.561 67.923 40.563 75.678C41.736 77.952 45.631 83.232 53.306 82.195C53.306 84.753 53.306 90.775 53.336 93.8C48.584 94.629 41.879 95.408 37.083 95.93C30.048 96.694 35.528 109.765 36.125 115.391C36.556 119.453 37.322 123.585 39.412 127.094C41.99 131.423 85.9131 131.429 88.7411 129.768C92.376 127.633 98.361 127.528 95.46 108.783C94.485 102.483 94.347 100.577 91.584 94.808C88.164 94.477 82.337 94.2 78.084 93.929C78.141 85.243 78.335 73.876 78.389 65.735Z" fill="white" stroke="#010101" stroke-width="1.5" stroke-linecap="round" stroke-linejoin="round"/>
<path d="M53.306 82.195C57.071 81.831 61.02 81.087 63.67 78.388" stroke="#010101" stroke-width="1.5" stroke-linecap="round" stroke-linejoin="round"/>
<path d="M84.8941 47.176C85.0931 47.751 84.2851 48.195 83.6901 48.068C82.9131 47.901 82.257 47.059 82.531 46.313C82.587 46.16 82.6881 46.011 82.8421 45.957C83.0671 45.877 83.3251 46.043 83.4091 46.266C83.4931 46.489 83.438 46.743 83.334 46.958C83.003 47.644 82.1281 48.028 81.4121 47.767C80.6961 47.506 80.275 46.607 80.569 45.904C80.767 45.432 81.4441 45.113 81.7871 45.492C82.1201 45.86 81.7801 46.477 81.3291 46.684C80.6001 47.018 79.6081 46.647 79.3451 45.889C79.0821 45.131 79.7081 44.186 80.5111 44.199C80.6391 44.201 80.7731 44.227 80.8711 44.308C81.1291 44.521 81.002 44.94 80.82 45.221C80.52 45.685 80.1081 46.097 79.5911 46.29C79.0741 46.483 78.4421 46.423 78.0351 46.049C77.4131 45.476 77.5291 44.471 77.7831 43.665C77.8561 43.435 77.945 43.193 78.139 43.049C78.333 42.905 78.661 42.92 78.767 43.137C78.818 43.242 78.8071 43.366 78.7821 43.481C78.6021 44.313 77.681 44.907 76.849 44.728C76.017 44.549 75.421 43.63 75.599 42.797C75.741 42.132 76.6071 41.589 77.1021 42.055C77.4501 42.383 77.357 42.98 77.072 43.364C76.51 44.122 75.296 44.282 74.557 43.696C73.818 43.11 73.6951 41.893 74.3031 41.172C74.5071 40.93 74.881 40.744 75.127 40.943C75.234 41.029 75.2851 41.168 75.3111 41.303C75.4231 41.883 75.141 42.502 74.67 42.858C74.199 43.214 73.567 43.322 72.986 43.216C72.565 42.184 72.4021 41.048 72.5181 39.939C72.0281 39.723 72.3541 39.285 72.6571 39.368C72.9601 39.451 73.0951 39.821 73.0631 40.133C72.9651 41.071 71.69 41.579 70.889 41.08C70.088 40.581 69.9011 39.392 70.3691 38.573C70.6821 38.027 71.5391 37.663 71.9001 38.179C71.9961 38.316 72.03 38.489 72.03 38.656C72.027 39.67 70.6491 40.317 69.7961 39.767C68.9431 39.217 68.8651 37.851 69.5531 37.106C69.6231 37.03 69.7041 36.957 69.8031 36.927C70.2071 36.804 70.4291 37.417 70.3171 37.825C70.1181 38.552 69.291 39.188 68.627 38.83C68.022 38.504 67.9991 37.643 68.1621 36.975C68.3011 36.408 68.877 35.738 69.333 36.102C69.446 36.192 69.511 36.33 69.545 36.47C69.774 37.403 68.509 38.231 67.67 37.762C66.831 37.293 66.738 35.978 67.39 35.272C67.633 35.008 68.0041 34.811 68.3461 34.921C68.7791 35.061 68.933 35.624 68.819 36.065C68.507 37.276 66.6691 37.61 65.8031 36.708C64.9371 35.806 65.15 34.193 66.083 33.36C66.172 33.28 66.2701 33.205 66.3851 33.169C66.9361 33 67.2741 33.824 67.1031 34.375C66.7821 35.407 65.3161 36.032 64.5561 35.263C64.0451 34.746 64.0801 33.9 64.2921 33.204C64.4331 32.743 64.74 32.23 65.222 32.231C65.694 32.233 66.013 32.775 65.961 33.244C65.867 34.081 64.7751 34.619 64.0541 34.184C63.3791 33.776 63.2361 32.847 63.3591 32.068C63.4551 31.463 63.9311 30.738 64.5041 30.955C64.7341 31.042 64.887 31.27 64.946 31.508C65.16 32.369 64.1211 33.198 63.2791 32.92C62.4371 32.642 62.0421 31.548 62.3731 30.725C62.4901 30.434 62.6951 30.16 62.9881 30.048C63.2811 29.936 63.6651 30.037 63.7991 30.321C63.8711 30.474 63.8641 30.653 63.8281 30.819C63.5961 31.897 62.0521 32.407 61.2241 31.679C60.3961 30.952 60.7021 29.355 61.7401 28.986C62.0601 28.872 62.4331 28.869 62.7231 29.045C63.2341 29.355 63.2821 30.171 62.8641 30.599C62.4461 31.027 61.7111 31.043 61.2171 30.705C60.7231 30.367 60.471 29.746 60.486 29.149C60.497 28.698 60.7281 28.18 61.1741 28.113C61.7151 28.032 62.1051 28.724 61.9561 29.25C61.8071 29.776 61.3371 30.137 60.8951 30.459C60.6141 29.522 60.5781 28.513 59.4621 27.108L59.5111 28.397L60.0191 28.594C60.6951 28.071 61.1461 27.266 61.2401 26.417C60.8341 26.286 60.3981 26.738 60.4761 27.158C60.5541 27.578 61.0231 27.851 61.4461 27.795C61.8691 27.739 62.2231 27.418 62.4151 27.037C62.6071 26.656 62.6601 26.22 62.6781 25.794C62.2831 25.732 61.9341 26.118 61.8731 26.514C61.7471 27.337 62.6431 28.1 63.4591 27.936C64.2751 27.772 64.8101 26.842 64.6461 26.026C64.6031 25.811 64.4581 25.564 64.2401 25.589C64.1481 25.6 64.0691 25.66 64.0041 25.726C63.5411 26.193 63.595 27.053 64.09 27.485C64.585 27.917 65.4131 27.873 65.8861 27.415C66.3591 26.957 66.4401 26.163 66.1031 25.598C65.5311 25.839 65.2781 26.608 65.5471 27.166C65.8161 27.724 66.5231 28.009 67.1221 27.847C67.7211 27.685 68.1751 27.127 68.2731 26.514C68.3461 26.054 67.998 25.43 67.57 25.614C67.225 25.763 67.2681 26.292 67.5041 26.585C68.1721 27.412 69.6181 27.081 70.2301 26.212C70.4841 25.85 70.601 25.273 70.236 25.023C69.976 24.845 69.5931 24.96 69.3951 25.206C69.1971 25.452 69.1501 25.787 69.1611 26.102C69.1811 26.662 69.4151 27.271 69.9251 27.503C70.3471 27.695 70.8701 27.571 71.2191 27.266C71.5681 26.961 71.7571 26.504 71.8161 26.044C71.8501 25.782 71.8291 25.48 71.6301 25.307C71.3751 25.085 70.9311 25.222 70.7731 25.521C70.6151 25.82 70.6991 26.202 70.9001 26.475C71.2451 26.946 71.9051 27.135 72.4671 26.978C73.0291 26.821 73.4781 26.353 73.6761 25.804C73.7381 25.63 73.7771 25.432 73.6981 25.266C73.6191 25.1 73.3821 25.003 73.2421 25.122C73.2621 25.298 73.2821 25.474 73.3021 25.651" stroke="#010101" stroke-width="1.5" stroke-linecap="round" stroke-linejoin="round"/>
<path d="M74.1171 26.106C74.0011 26.882 74.296 27.708 74.877 28.235C75.258 27.964 75.657 27.67 75.833 27.237C76.009 26.804 75.844 26.199 75.392 26.08C74.875 25.943 74.417 26.53 74.413 27.065C74.408 27.852 75.074 28.56 75.85 28.692C76.626 28.824 77.441 28.431 77.904 27.794C78.087 27.541 78.225 27.228 78.163 26.922C78.101 26.616 77.7691 26.357 77.4761 26.465C77.2861 26.535 77.169 26.728 77.111 26.922C76.925 27.541 77.257 28.273 77.846 28.541C78.435 28.809 79.205 28.578 79.549 28.031C79.685 27.815 79.756 27.531 79.639 27.303C79.463 26.958 78.929 26.939 78.637 27.192C78.345 27.445 78.2571 27.866 78.2701 28.253C78.2921 28.884 78.606 29.564 79.203 29.768C79.744 29.953 80.367 29.676 80.709 29.218C81.051 28.76 81.155 28.163 81.141 27.592C80.875 27.395 80.473 27.503 80.247 27.745C80.021 27.987 79.929 28.322 79.859 28.646C79.723 29.273 79.685 30.045 80.196 30.434C80.467 30.64 80.835 30.679 81.17 30.618C82.071 30.455 82.7781 29.559 82.7261 28.645C82.2731 28.421 81.7041 28.806 81.5621 29.292C81.4201 29.778 81.584 30.297 81.781 30.763C81.979 31.23 82.2611 31.724 82.7441 31.879C83.2241 32.033 83.7661 31.781 84.0751 31.382C84.3841 30.983 84.5 30.468 84.552 29.967C83.928 30.171 83.445 30.752 83.359 31.403C83.273 32.054 83.587 32.741 84.136 33.1C84.629 33.423 85.329 33.46 85.789 33.092C86.249 32.724 86.333 31.932 85.888 31.546C85.382 31.106 84.499 31.432 84.235 32.048C83.997 32.604 84.189 33.311 84.676 33.67C85.163 34.029 85.896 34.003 86.681 34.023C86.552 34.54 86.201 34.97 86 35.463C85.799 35.956 85.8001 36.619 86.2411 36.917C86.7741 36.902 87.3541 36.826 87.7291 36.446C88.1041 36.066 88.084 35.293 87.584 35.107C86.841 35.436 86.285 36.204 86.3 37.017C86.315 37.83 86.967 38.611 87.776 38.686C88.585 38.761 89.4021 38.03 89.3371 37.22C89.3311 37.15 89.319 37.077 89.276 37.021C89.183 36.899 88.996 36.91 88.848 36.95C88.082 37.156 87.4561 37.839 87.3551 38.626C87.2541 39.413 87.709 40.25 88.44 40.559C89.171 40.868 90.112 40.593 90.53 39.918C90.6 39.805 90.657 39.68 90.667 39.548C90.702 39.095 90.152 38.773 89.709 38.873C89.266 38.973 88.94 39.344 88.684 39.719C88.404 40.129 88.1621 40.581 88.1021 41.074C88.0421 41.567 88.192 42.107 88.579 42.417C89.124 42.853 89.9341 42.712 90.5611 42.404C90.9051 42.234 91.248 41.998 91.387 41.64C91.526 41.282 91.362 40.791 90.987 40.709C90.762 40.66 90.533 40.763 90.34 40.887C89.737 41.273 89.293 41.899 89.127 42.596C88.967 43.268 89.197 44.15 89.872 44.296C90.396 44.409 90.8841 44.022 91.2821 43.662C91.4051 43.551 91.5361 43.423 91.5471 43.258C91.5671 42.979 91.205 42.799 90.943 42.894C90.681 42.989 90.519 43.251 90.409 43.508C90.11 44.202 90.054 45.065 90.509 45.669C90.964 46.273 92.027 46.387 92.443 45.757" stroke="#010101" stroke-width="1.5" stroke-linecap="round" stroke-linejoin="round"/>
<path d="M87.2211 31.933C86.8241 32.646 86.8481 33.575 87.2821 34.266C87.9351 33.942 88.4641 33.376 88.7411 32.702C88.6161 32.559 88.3741 32.542 88.2301 32.664C88.0861 32.786 88.0651 33.029 87.2211 31.933Z" stroke="#010101" stroke-width="1.5" stroke-linecap="round" stroke-linejoin="round"/>
<path d="M65.8311 28.072C65.2911 28.899 65.2141 30.009 65.6351 30.903C66.3051 30.957 67.029 30.949 67.583 30.569C68.137 30.189 68.382 29.304 67.902 28.834C67.474 28.415 66.686 28.575 66.334 29.06C65.982 29.545 66.0061 30.226 66.2461 30.775C66.6451 31.691 67.6811 32.334 68.6621 32.14C69.6431 31.946 70.374 30.821 70.031 29.882C69.251 30.261 68.667 31.081 68.696 31.948C68.725 32.815 69.453 33.64 70.32 33.66C71.187 33.68 71.9821 32.766 71.7421 31.933C71.6841 31.734 71.5631 31.537 71.3701 31.461C71.0111 31.32 70.645 31.652 70.444 31.981C69.862 32.936 69.766 34.249 70.444 35.139C71.122 36.029 72.6461 36.212 73.3551 35.347C73.7331 34.885 73.7691 34.093 73.2741 33.758C72.7911 33.431 72.083 33.736 71.795 34.243C71.507 34.75 71.534 35.373 71.614 35.95C71.719 36.705 71.9861 37.554 72.6901 37.846C73.4121 38.145 74.282 37.646 74.6 36.932C74.918 36.218 74.7961 35.38 74.5201 34.649C73.6361 35.029 73.1041 36.085 73.3231 37.021C73.5431 37.957 74.4891 38.666 75.4501 38.614C76.0271 38.582 76.6181 38.26 76.8261 37.721C77.0341 37.182 76.723 36.461 76.154 36.361C75.69 36.279 75.2371 36.607 74.9931 37.01C74.4661 37.883 74.764 39.152 75.623 39.701C76.482 40.25 77.7591 39.984 78.3291 39.139C78.5861 38.758 78.6611 38.161 78.2821 37.901C77.8521 37.607 77.267 38.021 77.041 38.491C76.605 39.399 76.882 40.613 77.71 41.186C78.538 41.759 79.8271 41.552 80.3801 40.71C80.6861 40.244 80.6931 39.5 80.2031 39.232C79.7301 38.974 79.1261 39.341 78.8801 39.821C78.3691 40.821 79.0901 42.224 80.2011 42.389C81.3121 42.554 82.4111 41.422 82.2121 40.317C80.9911 40.463 80.4251 42.304 81.3521 43.111C82.2801 43.918 84.025 43.102 84 41.873C83.416 42.257 82.8581 42.746 82.6201 43.403C82.3821 44.06 82.5691 44.911 83.1851 45.241C83.8011 45.571 84.7401 45.055 84.6341 44.364C84.4831 45.282 84.613 46.245 85.002 47.09C85.645 46.721 86.1251 46.08 86.3001 45.36C86.1281 45.74 85.951 46.145 86 46.56C86.049 46.975 86.4211 47.381 86.8321 47.306" stroke="#010101" stroke-width="1.5" stroke-linecap="round" stroke-linejoin="round"/>
<path d="M71.548 27.931C70.809 28.023 70.1341 28.526 69.8371 29.209C70.5831 29.929 71.958 29.817 72.578 28.986C72.784 28.71 72.883 28.268 72.61 28.059C72.491 27.968 72.331 27.95 72.182 27.961C71.337 28.023 70.721 28.997 70.955 29.811C71.189 30.625 72.137 31.128 72.965 30.945C73.793 30.762 74.422 29.98 74.517 29.138C73.47 28.922 72.4091 30.079 72.7141 31.103C73.0191 32.127 74.542 32.514 75.299 31.759C75.44 31.618 75.556 31.445 75.593 31.249C75.728 30.532 74.573 30.096 74.09 30.643C73.607 31.19 73.927 32.15 74.582 32.471C75.237 32.792 76.0501 32.591 76.6451 32.168C77.1551 31.805 77.513 30.951 76.98 30.623C76.671 30.432 76.255 30.585 75.986 30.83C75.108 31.628 75.421 33.295 76.495 33.801C77.569 34.307 78.992 33.589 79.317 32.448C79.407 32.132 79.4131 31.759 79.2001 31.509C79.0611 31.346 78.849 31.261 78.638 31.22C77.755 31.05 76.792 31.657 76.566 32.528C76.34 33.399 76.885 34.398 77.739 34.679C78.679 34.988 79.701 34.475 80.43 33.806C80.755 33.509 81.064 33.145 81.106 32.707C81.183 31.899 80.24 31.276 79.442 31.425C78.644 31.574 78.046 32.251 77.669 32.969C77.209 33.845 77.04 35.055 77.772 35.721C78.733 36.597 80.263 35.808 81.224 34.933C81.604 34.587 81.984 34.208 82.147 33.722C82.31 33.236 82.184 32.614 81.736 32.363C81.135 32.027 80.419 32.502 79.898 32.952C79.371 33.406 78.828 33.882 78.545 34.518C78.262 35.154 78.3201 35.998 78.8671 36.429C79.2211 36.707 79.703 36.762 80.151 36.727C81.139 36.65 82.09 36.174 82.745 35.43C83.273 34.83 83.511 33.729 82.807 33.351C82.255 33.055 81.597 33.468 81.139 33.894C80.265 34.708 79.51 36.134 80.335 36.997C80.698 37.376 81.265 37.489 81.788 37.45C82.988 37.361 84.099 36.519 84.509 35.388C84.587 35.172 84.642 34.937 84.591 34.713C84.475 34.205 83.839 33.961 83.336 34.098C82.833 34.235 82.452 34.639 82.133 35.051C81.594 35.746 81.1331 36.631 81.3801 37.475C81.6421 38.371 82.72 38.892 83.62 38.643C84.52 38.394 85.159 37.492 85.216 36.56C85.227 36.386 85.207 36.185 85.067 36.082C84.934 35.984 84.747 36.015 84.59 36.067C83.85 36.315 83.247 37.016 83.235 37.796C83.223 38.576 83.901 39.339 84.681 39.31C85.461 39.281 86.089 38.34 85.73 37.646C85.336 37.803 84.927 37.969 84.638 38.28C84.108 38.85 84.24 39.948 84.961 40.242C85.682 40.535 86.578 39.597 86.146 38.949C85.397 39.18 84.777 39.871 84.747 40.655C84.717 41.439 85.372 42.22 86.156 42.223C86.94 42.226 87.6171 41.326 87.3101 40.605C86.8851 40.961 86.4511 41.35 86.2691 41.874C86.0871 42.398 86.264 43.087 86.781 43.287C87.298 43.487 87.958 42.842 87.647 42.384C87.264 42.645 87.043 43.125 87.093 43.586C87.394 43.61 87.682 43.759 87.877 43.989" stroke="#010101" stroke-width="1.5" stroke-linecap="round" stroke-linejoin="round"/>
<path d="M78.8311 51.127C79.8371 51.31 80.9211 50.999 81.6761 50.31L81.4371 49.676C81.0311 49.434 80.4481 49.745 80.3361 50.204C80.2241 50.663 80.5081 51.157 80.9211 51.389C81.3341 51.621 81.8401 51.629 82.3021 51.527C83.4721 51.269 84.4541 50.298 84.7251 49.131C84.4211 48.772 83.7501 48.98 83.6041 49.427C83.4581 49.874 83.7531 50.378 84.1721 50.59C84.5911 50.802 85.0931 50.778 85.5501 50.668C86.4281 50.456 87.2281 49.936 87.7791 49.22C88.0151 48.914 88.2001 48.461 87.9511 48.165C87.6971 47.863 87.1311 48.035 87.0091 48.411C86.8871 48.787 87.1371 49.211 87.4921 49.384C87.8471 49.557 88.2701 49.526 88.6501 49.416C89.3701 49.208 90.0071 48.725 90.4021 48.087C90.5161 47.903 90.6131 47.69 90.5781 47.476C90.4881 46.933 89.5501 46.959 89.3651 47.477C89.1801 47.995 89.6331 48.573 90.1691 48.698C90.7051 48.823 91.2631 48.618 91.7451 48.354C92.1081 48.156 92.4641 47.909 92.6671 47.549C92.8701 47.189 92.8781 46.691 92.5891 46.396C92.3001 46.101 91.7011 46.16 91.5601 46.549C91.7061 47.262 92.6031 47.635 93.2931 47.403C93.9831 47.171 94.4481 46.503 94.6581 45.805C94.3901 45.72 94.1221 45.636 93.8541 45.551C93.8031 46.13 94.4051 46.667 94.9741 46.552C95.5431 46.437 95.8891 45.708 95.6181 45.195" stroke="#010101" stroke-width="1.5" stroke-linecap="round" stroke-linejoin="round"/>
<path d="M87.066 43.467L86.252 44.959C86.489 45.369 86.998 45.566 87.471 45.536C87.944 45.506 88.383 45.283 88.775 45.017C88.991 44.87 89.2151 44.679 89.2411 44.419C89.2831 44.002 88.738 43.717 88.346 43.868C87.954 44.019 87.732 44.435 87.622 44.84C87.507 45.262 87.4831 45.729 87.6711 46.123C87.8591 46.517 88.302 46.81 88.731 46.722C89.16 46.634 89.455 46.086 87.066 43.467Z" stroke="#010101" stroke-width="1.5" stroke-linecap="round" stroke-linejoin="round"/>
<path d="M94.6721 44.854C94.8081 42.53 94.1861 39.426 96.0511 38.032C96.9941 37.327 98.4161 38.576 99.0551 39.565C98.4951 39.978 97.7501 40.13 97.0741 39.968C96.5671 39.147 97.2541 38.082 98.0581 37.55C98.6241 37.176 99.3021 36.91 99.9731 37.009C100.644 37.108 101.276 37.661 101.29 38.339C101.304 39.017 100.51 39.628 99.9101 39.312C99.4491 39.069 99.3151 38.427 99.5131 37.945C99.7111 37.463 100.159 37.128 100.627 36.901C101.423 36.515 102.455 36.407 103.134 36.974C103.813 37.541 103.692 38.902 102.826 39.083C102.658 38.32 103.341 37.494 104.122 37.514C104.903 37.534 105.542 38.395 105.335 39.148C105.953 38.556 107 38.48 107.697 38.976C108.394 39.472 108.666 40.486 108.31 41.264" stroke="#010101" stroke-width="1.5" stroke-linecap="round" stroke-linejoin="round"/>
<path d="M107.694 95.926C109.755 95.962 111.429 93.528 110.657 91.616C109.982 92.007 109.307 92.399 108.631 92.79C110.613 91.909 111.324 89.01 109.976 87.311C109.09 87.463 108.267 87.954 107.713 88.662C108.709 87.34 109.744 85.915 109.851 84.263C109.958 82.611 108.672 80.767 107.027 80.947C107.59 79.922 108.43 79.072 109.011 78.057C109.592 77.042 109.878 75.722 109.263 74.727C108.648 73.732 106.884 73.565 106.404 74.631C108.712 72.699 109.434 69.11 108.053 66.435C108.468 65.625 108.896 64.724 108.675 63.841C108.454 62.958 107.216 62.349 106.604 63.022C108.489 62.125 108.698 59.02 106.95 57.878C108.782 56.942 108.533 53.692 106.58 53.046C107.646 51.913 106.732 49.67 105.178 49.604C106.502 48.673 105.994 46.18 104.411 45.841C103.894 45.808 103.514 46.522 103.83 46.932C104.239 46.046 104.624 44.924 104.004 44.169C103.385 43.414 101.77 44.485 102.537 45.09C103.079 44.136 103.023 42.735 102.102 42.138C101.182 41.541 99.639 42.561 100.107 43.553C101.372 42.727 100.02 40.515 98.515 40.648C97.01 40.781 95.9611 42.152 94.8111 43.87C95.8171 43.351 97.0781 43.362 98.0751 43.898C98.1321 44.531 97.893 45.184 97.442 45.632C97.317 44.984 97.999 44.359 98.654 44.442C99.309 44.525 99.801 45.179 99.815 45.839C99.829 46.499 99.438 47.122 98.906 47.512C98.607 46.918 99.258 46.159 99.92 46.229C100.582 46.299 101.058 46.981 101.075 47.646C101.092 48.311 100.744 48.937 100.309 49.44C100.086 48.734 100.878 47.989 101.607 48.12C102.336 48.251 102.823 49.038 102.784 49.778C102.745 50.518 102.284 51.181 101.71 51.649C101.211 51.789 100.833 51.026 101.141 50.61C101.449 50.194 102.091 50.174 102.558 50.397C103.255 50.73 103.699 51.53 103.612 52.298C103.525 53.066 102.915 53.747 102.161 53.917C101.952 53.098 103.053 52.39 103.82 52.746C104.587 53.102 104.865 54.114 104.639 54.928C104.413 55.742 103.809 56.393 103.189 56.967C102.908 56.136 103.357 54.87 104.211 55.071C104.709 55.188 104.953 55.755 105.02 56.262C105.178 57.463 104.734 58.728 103.859 59.567C103.337 59.318 103.558 58.394 104.123 58.271C104.688 58.148 105.243 58.65 105.368 59.215C105.493 59.78 105.3 60.365 105.058 60.891C104.786 61.481 104.351 62.109 103.703 62.158C103.726 61.521 104.138 60.915 104.721 60.658C105.781 62.177 105.591 64.441 104.294 65.763C104.086 65.133 104.6 64.376 105.262 64.338C105.599 65.115 105.941 65.91 106.007 66.754C106.073 67.598 105.812 68.517 105.139 69.03C105.023 68.646 104.907 68.226 105.055 67.852C105.203 67.478 105.741 67.25 106.018 67.542C106.154 67.685 106.181 67.897 106.201 68.093C106.309 69.145 106.336 70.397 105.493 71.037C105.035 70.837 105.154 70.046 105.625 69.877C106.096 69.708 106.631 70.059 106.817 70.523C107.003 70.987 106.921 71.514 106.776 71.992C106.625 72.489 106.306 73.041 105.787 73.061C105.268 73.081 105.062 72.103 105.581 72.109C106.306 72.534 106.73 73.42 106.608 74.251C106.486 75.082 105.825 75.808 105.009 76.008C104.466 75.55 105.185 74.54 105.865 74.746C106.545 74.952 106.775 75.878 106.476 76.523C106.177 77.168 105.529 77.571 104.89 77.88C104.614 77.25 105.548 76.606 106.145 76.947C106.742 77.288 106.843 78.158 106.544 78.777C106.245 79.396 105.664 79.822 105.104 80.222C105.165 79.675 105.72 79.233 106.267 79.296C107.132 80.31 106.818 82.088 105.657 82.744C105.412 82.206 105.835 81.487 106.424 81.44C106.865 82.212 107.014 83.145 106.837 84.016C106.731 84.538 106.338 85.134 105.818 85.019C105.356 84.917 105.22 84.217 105.558 83.886C105.896 83.555 106.503 83.625 106.835 83.963C107.167 84.301 107.252 84.825 107.155 85.289C107 86.028 106.404 86.657 105.674 86.851C105.192 86.393 106.037 85.549 106.629 85.852C107.221 86.155 107.33 86.972 107.166 87.617C106.874 88.767 105.928 89.727 104.782 90.035C105.032 89.314 105.413 88.479 106.167 88.364C107.181 88.21 107.812 89.647 107.346 90.561C106.881 91.475 105.842 91.916 104.885 92.285C104.801 91.695 105.207 91.122 105.724 90.824C106.241 90.526 106.85 90.445 107.442 90.37C107.748 90.331 108.098 90.306 108.322 90.518C108.472 90.66 108.524 90.877 108.545 91.083C108.664 92.281 107.85 93.507 106.7 93.862C106.61 93.402 107.192 93.012 107.632 93.174C108.072 93.336 108.294 93.862 108.239 94.328C108.184 94.794 107.913 95.205 107.619 95.57C107.265 96.011 106.711 96.451 107.694 95.926Z" stroke="#010101" stroke-width="1.5" stroke-linecap="round" stroke-linejoin="round"/>
<path d="M103.205 93.451C103.123 93.798 103.55 94.102 103.896 94.013C104.242 93.924 104.467 93.586 104.572 93.245C104.806 92.487 104.572 91.605 103.991 91.064C103.674 91.272 103.351 91.537 103.275 91.909C103.199 92.281 103.532 92.731 103.895 92.622C104.041 92.578 104.151 92.459 104.247 92.341C104.596 91.911 104.872 91.381 104.834 90.828C104.796 90.275 104.354 89.728 103.8 89.729C103.246 89.73 102.8 90.463 103.152 90.891C104.011 90.628 104.464 89.49 104.021 88.709C103.543 88.831 102.945 89.128 103.036 89.613C103.122 90.07 103.82 90.147 104.158 89.827C104.496 89.507 104.558 88.999 104.584 88.535C104.616 87.978 104.62 87.389 104.351 86.9C104.082 86.411 103.447 86.079 102.948 86.328C102.449 86.577 102.464 87.498 103.013 87.597C103.195 87.63 103.381 87.571 103.546 87.488C104.736 86.889 104.752 84.864 103.573 84.245C102.944 84.321 102.964 85.418 103.565 85.617C104.166 85.816 104.814 85.264 104.927 84.64C105.04 84.016 104.769 83.389 104.443 82.846C104.276 82.568 104.007 82.263 103.692 82.339C103.198 82.459 103.359 83.203 103.631 83.633C104.076 82.386 103.933 80.943 103.252 79.808C102.905 80.494 102.891 81.34 103.215 82.037C103.951 80.581 104.033 78.81 103.435 77.292C103.362 77.108 103.268 76.914 103.093 76.822C102.732 76.632 102.291 77.04 102.286 77.448C102.281 77.856 102.546 78.211 102.799 78.532C104.076 77.142 104.377 74.943 103.521 73.261C103.374 72.972 103.157 72.671 102.836 72.623C102.395 72.557 102.029 73.039 102.039 73.485C102.049 73.931 102.313 74.326 102.567 74.693C103.486 73.475 103.647 71.731 102.967 70.365C102.472 70.252 101.944 70.749 102.027 71.25C102.11 71.751 102.77 72.051 103.202 71.784C103.384 71.672 103.512 71.489 103.611 71.3C104.393 69.808 103.289 67.694 101.618 67.482C101.455 67.899 101.289 68.333 101.325 68.779C101.361 69.225 101.663 69.683 102.106 69.742C102.631 69.812 103.061 69.323 103.281 68.841C103.719 67.881 103.749 66.742 103.362 65.761C103.163 65.257 102.79 64.749 102.251 64.681C101.738 64.617 101.251 64.994 101.024 65.458C100.797 65.922 100.773 66.456 100.76 66.973C102.163 65.917 102.951 64.097 102.762 62.351C102.719 61.959 102.601 61.528 102.262 61.327C101.762 61.031 101.087 61.457 100.908 62.01C100.729 62.563 100.892 63.161 101.056 63.718C102.544 62.928 103.302 60.985 102.744 59.396C102.667 59.177 102.562 58.957 102.375 58.818C101.982 58.527 101.384 58.737 101.092 59.129C100.8 59.521 100.735 60.033 100.68 60.518C100.636 60.902 100.622 61.362 100.931 61.594C101.375 61.928 101.988 61.465 102.274 60.989C103.041 59.714 103.151 58.066 102.559 56.701C101.811 56.535 100.978 56.866 100.548 57.5C100.118 58.134 100.118 59.03 100.548 59.664C102.391 58.474 102.613 55.441 100.963 53.994C100.203 54.236 99.611 54.939 99.502 55.729C99.425 56.29 99.819 57.028 100.361 56.864C100.531 56.813 100.664 56.68 100.778 56.544C101.508 55.676 101.78 54.443 101.483 53.348C101.349 52.852 101.032 52.331 100.524 52.253C99.967 52.168 99.456 52.713 99.424 53.276C99.392 53.839 99.725 54.367 100.143 54.745C100.96 54.294 101.581 53.425 101.566 52.492C101.551 51.559 100.785 50.647 99.852 50.625C98.919 50.603 98.079 51.647 98.427 52.513C98.506 52.71 98.656 52.9 98.864 52.939C98.982 52.961 99.104 52.932 99.218 52.895C100.481 52.483 101.203 50.786 100.459 49.686C99.714 48.586 97.653 48.808 97.315 50.093C97.218 50.46 97.289 50.912 97.609 51.116C98.059 51.403 98.663 51.017 98.91 50.544C99.466 49.479 98.839 47.982 97.69 47.631C97.178 47.85 96.852 48.439 96.939 48.99C96.984 49.276 97.211 49.586 97.495 49.532C97.625 49.507 97.729 49.41 97.819 49.313C98.194 48.905 98.469 48.368 98.425 47.815C98.381 47.262 97.945 46.725 97.391 46.698C96.837 46.671 96.324 47.305 96.563 47.804C97.531 47.629 98.268 46.617 98.136 45.642C97.314 45.35 96.3 45.911 96.11 46.762C96.767 46.441 97.526 45.957 97.49 45.227C97.449 44.395 96.297 44.018 95.558 44.403C94.819 44.788 94.43 45.606 94.55 46.868C94.157 47.31 93.763 47.753 93.37 48.195C94.149 48.501 95.131 48.119 95.499 47.368C95.403 47.206 95.216 47.121 95.033 47.079C94 46.842 92.902 47.992 93.263 48.989C93.624 49.986 95.319 50.087 95.731 49.111C95.77 49.019 95.798 48.919 95.782 48.821C95.727 48.481 95.238 48.436 94.924 48.578C94.192 48.907 93.766 49.825 94.038 50.58C94.31 51.335 95.278 51.768 96.002 51.423C96.726 51.078 96.98 49.994 96.45 49.392C95.75 49.631 95.082 50.04 94.681 50.662C94.28 51.284 94.196 52.139 94.602 52.758C95.008 53.377 95.946 53.623 96.536 53.176C97.126 52.729 97.05 51.627 96.36 51.36C95.55 51.047 94.796 51.902 94.355 52.65C94.123 53.042 93.888 53.467 93.917 53.921C93.96 54.586 94.604 55.105 95.267 55.162C95.93 55.219 96.58 54.898 97.077 54.455C97.384 54.181 97.66 53.83 97.692 53.42C97.724 53.01 97.417 52.558 97.006 52.565C96.788 52.569 96.591 52.693 96.416 52.824C95.307 53.653 94.557 54.947 94.388 56.321C94.361 56.544 94.352 56.786 94.473 56.974C94.633 57.224 94.962 57.296 95.258 57.329C96.804 57.497 98.636 56.971 99.197 55.52C99.251 55.38 99.291 55.223 99.239 55.082C99.19 54.95 99.069 54.859 98.944 54.796C97.998 54.322 96.922 55.111 96.206 55.89C95.449 56.713 94.742 58.009 95.477 58.852C95.801 59.224 96.327 59.364 96.821 59.355C98.079 59.334 99.265 58.389 99.567 57.168C99.017 56.682 98.15 56.692 97.5 57.035C96.85 57.378 96.384 57.988 96.016 58.624C95.755 59.075 95.528 59.615 95.709 60.103C95.941 60.731 96.769 60.955 97.406 60.75C98.043 60.545 98.528 60.036 98.984 59.546C99.483 59.01 99.983 58.134 99.446 57.636C99.019 57.239 98.319 57.509 97.865 57.875C97.132 58.466 96.574 59.271 96.278 60.164C96.176 60.472 96.112 60.835 96.3 61.099C96.511 61.395 96.933 61.427 97.295 61.402C97.929 61.359 98.58 61.217 99.085 60.832C99.59 60.447 99.914 59.774 99.741 59.162C99.147 59.43 98.538 59.708 98.084 60.176C97.63 60.644 97.363 61.352 97.594 61.961C97.825 62.57 98.672 62.916 99.18 62.507C99.568 62.194 99.612 61.629 99.625 61.13C98.903 61.709 98.581 62.741 98.846 63.628C99.356 63.732 99.674 62.854 99.215 62.608C98.261 63.44 97.887 64.875 98.313 66.067C98.963 66.179 99.72 66.235 100.194 65.775C100.668 65.315 100.305 64.239 99.674 64.432C99.482 64.491 99.337 64.646 99.213 64.805C98.712 65.448 98.415 66.248 98.374 67.062C98.354 67.452 98.402 67.87 98.647 68.174C98.892 68.478 99.385 68.604 99.682 68.351C99.979 68.098 99.818 67.48 99.428 67.493C99.14 67.503 98.958 67.796 98.828 68.053C98.599 68.509 98.364 68.987 98.372 69.497C98.38 70.007 98.714 70.551 99.221 70.611C100.095 70.714 100.457 69.496 100.323 68.626C99.535 68.993 98.789 69.577 98.51 70.4C98.231 71.223 98.589 72.292 99.415 72.563C100.241 72.834 101.248 71.889 100.858 71.112C99.749 70.861 98.987 72.246 98.906 73.38C98.865 73.948 98.903 74.56 99.241 75.019C99.579 75.478 100.307 75.681 100.733 75.303C101.159 74.925 100.831 74.015 100.273 74.128C99.46 75.329 99.103 76.83 99.288 78.269C99.365 78.869 99.597 79.533 100.156 79.766C100.715 79.999 101.495 79.359 101.166 78.852C100.938 78.5 100.365 78.537 100.068 78.834C99.771 79.131 99.695 79.582 99.693 80.001C99.69 80.622 99.85 81.298 100.343 81.675C100.836 82.052 101.712 81.915 101.885 81.319C101.463 80.916 100.715 81.115 100.351 81.57C99.987 82.025 99.904 82.638 99.842 83.218C99.788 83.721 99.741 84.248 99.93 84.717C100.119 85.186 100.621 85.571 101.113 85.449C101.605 85.327 101.82 84.549 101.382 84.294C100.913 84.021 100.383 84.549 100.146 85.036C99.95 85.438 99.795 85.859 99.683 86.292C99.555 86.788 99.487 87.326 99.677 87.801C99.867 88.276 100.387 88.65 100.883 88.523C101.379 88.396 101.619 87.641 101.208 87.336C100.653 86.924 99.972 87.693 99.784 88.358C99.473 89.456 99.424 90.627 99.641 91.747C100.675 91.826 101.691 90.97 101.789 89.937C100.75 90.37 100.046 91.5 100.114 92.624C100.124 92.787 100.151 92.954 100.24 93.091C100.466 93.437 101.011 93.428 101.343 93.182C101.675 92.936 101.847 92.534 102.004 92.152C101.548 92.59 101.097 93.069 100.898 93.669C100.699 94.269 100.821 95.02 101.341 95.38C101.861 95.74 102.751 95.448 103.206 93.45L103.205 93.451Z" stroke="#010101" stroke-width="1.5" stroke-linecap="round" stroke-linejoin="round"/>
<path d="M91.673 49.258C90.855 49.776 90.21 50.563 89.863 51.466C90.817 51.521 91.744 50.737 91.846 49.786C90.519 49.573 89.381 51.355 90.132 52.47C91.113 52.971 92.485 52.305 92.699 51.225C91.904 51.287 91.055 51.547 90.603 52.204C90.151 52.861 90.365 53.972 91.136 54.176C91.534 54.282 91.956 54.13 92.317 53.931C92.994 53.558 93.628 52.761 93.276 52.072C92.458 51.893 91.583 52.278 91.033 52.91C90.483 53.542 90.224 54.384 90.15 55.218C90.13 55.446 90.124 55.684 90.21 55.897C90.319 56.165 90.564 56.359 90.827 56.48C91.52 56.799 92.399 56.657 92.956 56.136C93.513 55.615 93.713 54.747 93.44 54.034C92.548 54.018 91.73 54.614 91.261 55.372C90.792 56.13 90.615 57.031 90.504 57.916C90.457 58.292 90.425 58.696 90.605 59.029C91.069 59.883 92.354 59.57 93.227 59.143C93.588 58.966 93.994 58.731 94.053 58.333C94.112 57.933 93.749 57.562 93.351 57.495C92.953 57.428 92.55 57.598 92.217 57.826C91.364 58.411 90.817 59.468 90.963 60.492C91.109 61.516 92.019 62.416 93.054 62.43C94.089 62.444 95.06 61.455 94.919 60.43C94.895 60.255 94.84 60.079 94.721 59.949C94.386 59.583 93.764 59.771 93.38 60.085C92.667 60.668 92.26 61.638 92.441 62.541C92.622 63.444 93.434 64.209 94.354 64.246C95.274 64.283 96.179 63.511 96.204 62.59C96.215 62.188 96.023 61.738 95.638 61.62C95.198 61.486 94.766 61.832 94.451 62.168C93.889 62.765 93.362 63.453 93.238 64.264C93.114 65.075 93.53 66.017 94.321 66.233C95.038 66.429 95.806 65.964 96.185 65.324C96.564 64.684 96.635 63.914 96.662 63.172C96.081 62.957 95.411 63.278 95.032 63.768C94.653 64.258 94.498 64.88 94.353 65.482C94.274 65.81 94.196 66.163 94.319 66.477C94.508 66.959 95.119 67.158 95.625 67.051C96.131 66.944 96.555 66.612 96.959 66.288C97.4 65.935 97.868 65.541 98.003 64.992C98.138 64.443 97.722 63.742 97.164 63.828C96.898 63.869 96.687 64.068 96.509 64.269C95.799 65.07 95.317 66.07 95.134 67.124C95.022 67.766 95.075 68.542 95.615 68.906C96.445 69.467 97.538 68.516 97.777 67.543C97.886 67.101 97.785 66.475 97.332 66.43C97.099 66.407 96.89 66.565 96.723 66.729C95.935 67.505 95.514 68.64 95.606 69.743C95.671 70.523 96.055 71.35 96.786 71.629C97.517 71.908 98.517 71.291 98.364 70.524C98.224 69.822 97.269 69.561 96.622 69.866C95.975 70.171 95.58 70.828 95.231 71.453C94.892 72.059 94.553 72.695 94.509 73.388C94.465 74.081 94.805 74.848 95.461 75.078C96.291 75.369 97.145 74.709 97.682 74.013C97.984 73.621 98.262 73.111 98.077 72.652C97.916 72.252 97.449 72.051 97.018 72.045C95.437 72.021 94.54 73.877 94.385 75.451C94.326 76.044 94.362 76.744 94.846 77.092C95.357 77.46 96.159 77.167 96.424 76.597C96.689 76.027 96.484 75.313 96.046 74.861C94.414 75.315 93.996 77.437 94.14 79.125C94.161 79.368 94.19 79.621 94.321 79.827C94.599 80.263 95.257 80.317 95.707 80.063C96.157 79.809 96.436 79.335 96.646 78.863C96.821 78.468 96.924 77.92 96.567 77.676C96.208 77.43 95.728 77.734 95.441 78.061C94.948 78.624 94.578 79.366 94.709 80.103C94.84 80.84 95.639 81.466 96.339 81.204C97.039 80.942 97.058 79.675 96.321 79.545C95.666 79.43 95.204 80.173 95.029 80.815C94.794 81.674 94.746 82.696 95.347 83.353C95.948 84.01 97.343 83.794 97.403 82.905C97.46 82.063 96.246 81.616 95.534 82.069C94.822 82.522 94.577 83.443 94.517 84.285C94.483 84.77 94.49 85.259 94.54 85.743C94.559 85.926 94.586 86.117 94.69 86.269C95.026 86.765 95.895 86.437 96.072 85.865C96.249 85.293 95.984 84.688 95.724 84.148C95.001 84.438 94.719 85.304 94.603 86.074C94.517 86.643 94.478 87.247 94.714 87.772C94.95 88.297 95.543 88.7 96.096 88.542C96.649 88.384 96.893 87.522 96.414 87.203C95.799 86.793 95.088 87.623 94.921 88.343C94.766 89.013 94.733 89.71 94.824 90.392C94.842 90.523 94.866 90.659 94.943 90.766C95.151 91.054 95.639 90.963 95.859 90.683C96.079 90.403 96.104 90.023 96.122 89.668C95.512 89.803 94.954 90.272 94.839 90.887C94.724 91.502 95.162 92.201 95.784 92.259C96.406 92.317 96.983 91.573 96.688 91.022C96.425 90.531 95.67 90.479 95.236 90.828C94.802 91.177 94.657 91.789 94.709 92.344C94.746 92.743 94.889 93.161 95.214 93.396C95.539 93.631 96.074 93.591 96.267 93.239C96.46 92.887 96.051 92.36 95.692 92.539C95.597 92.587 95.524 92.669 95.459 92.753C95.215 93.064 95.026 93.446 95.059 93.839C95.092 94.232 95.413 94.618 95.808 94.613C96.203 94.608 96.518 94.085 96.267 93.78C96.043 93.844 95.941 94.162 96.086 94.344" stroke="#010101" stroke-width="1.5" stroke-linecap="round" stroke-linejoin="round"/>
<path d="M101.847 64.375C101.782 65.155 101.398 65.982 100.667 66.261C99.936 66.54 98.936 65.923 99.089 65.156C99.229 64.454 100.184 64.193 100.831 64.498C101.478 64.803 101.873 65.46 102.222 66.085C102.561 66.691 102.9 67.327 102.944 68.02C102.988 68.713 102.648 69.48 101.992 69.71C101.162 70.001 100.308 69.341 99.771 68.645C99.469 68.253 99.191 67.743 99.376 67.284C99.537 66.884 100.004 66.683 100.435 66.677C102.016 66.653 102.913 68.509 103.068 70.083C103.127 70.676 103.091 71.376 102.607 71.724C102.096 72.092 101.294 71.799 101.029 71.229C100.764 70.659 100.969 69.945 101.407 69.493C103.039 69.947 103.457 72.069 103.313 73.757C103.292 74 103.263 74.253 103.132 74.459C102.854 74.895 102.196 74.949 101.746 74.695C101.296 74.441 101.017 73.967 100.807 73.495C100.632 73.1 100.529 72.552 100.886 72.308C101.245 72.062 101.725 72.366 102.012 72.693C102.505 73.256 102.875 73.998 102.744 74.735C102.613 75.472 101.814 76.098 101.114 75.836C100.414 75.574 100.395 74.307 101.132 74.177C101.787 74.062 102.249 74.805 102.424 75.447C102.659 76.306 102.707 77.328 102.106 77.985C101.505 78.642 100.11 78.426 100.05 77.537C99.993 76.695 101.207 76.248 101.919 76.701C102.631 77.154 102.876 78.075 102.936 78.917C102.97 79.402 102.963 79.891 102.913 80.375C102.894 80.558 102.867 80.749 102.763 80.901C102.427 81.397 101.558 81.069 101.381 80.497C101.204 79.925 101.469 79.32 101.729 78.78C102.452 79.07 102.734 79.936 102.85 80.706C102.936 81.275 102.975 81.879 102.739 82.404C102.503 82.929 101.91 83.332 101.357 83.174C100.804 83.016 100.56 82.154 101.039 81.835C101.654 81.425 102.365 82.255 102.532 82.975C102.687 83.645 102.72 84.342 102.629 85.024C102.611 85.155 102.587 85.291 102.51 85.398C102.302 85.686 101.814 85.595 101.594 85.315C101.374 85.035 101.349 84.655 101.331 84.3C101.941 84.435 102.499 84.904 102.614 85.519C102.729 86.134 102.291 86.833 101.669 86.891C101.047 86.949 100.47 86.205 100.765 85.654C101.028 85.163 101.783 85.111 102.217 85.46C102.651 85.809 102.796 86.421 102.744 86.976C102.707 87.375 102.564 87.793 102.239 88.028C101.914 88.263 101.379 88.223 101.186 87.871C100.993 87.519 101.402 86.992 101.761 87.171C101.856 87.219 101.929 87.301 101.994 87.385C102.238 87.696 102.427 88.078 102.394 88.471C102.361 88.864 102.04 89.25 101.645 89.245C101.25 89.24 100.935 88.717 101.186 88.412C101.41 88.476 101.512 88.794 101.367 88.976" stroke="#010101" stroke-width="1.5" stroke-linecap="round" stroke-linejoin="round"/>
<path d="M87.911 50.797L86.376 52.536C87.526 52.511 88.632 51.788 89.118 50.746C88.811 49.82 87.406 49.665 86.693 50.331C85.98 50.997 85.893 52.124 86.172 53.058C86.723 53.106 87.3 53.151 87.811 52.938C88.322 52.725 88.735 52.167 88.588 51.633C88.454 51.145 87.931 50.876 87.44 50.749C86.304 50.455 85.055 50.623 84.038 51.208C83.714 51.394 83.401 51.635 83.247 51.976C83.093 52.317 83.149 52.774 83.455 52.988C83.679 53.145 83.975 53.142 84.246 53.109C84.892 53.031 85.521 52.817 86.081 52.486C86.411 52.29 86.745 52.007 86.775 51.624C86.805 51.241 86.318 50.867 86.031 51.121C85.679 51.923 86.112 52.975 86.926 53.296C87.74 53.617 88.775 53.144 89.065 52.318C89.128 52.138 89.155 51.923 89.043 51.767C88.864 51.517 88.468 51.588 88.208 51.752C87.109 52.442 87.035 53.986 87.084 55.282C87.728 55.763 88.651 55.837 89.363 55.465C90.075 55.093 90.542 54.293 90.515 53.49C88.949 53.708 87.674 55.221 87.724 56.801C87.731 57.026 87.769 57.267 87.923 57.432C88.038 57.555 88.202 57.619 88.364 57.664C89.122 57.874 89.971 57.728 90.616 57.277C90.758 57.178 90.9 57.047 90.918 56.875C90.944 56.619 90.665 56.417 90.409 56.424C90.153 56.431 89.924 56.582 89.715 56.731C89.256 57.057 88.79 57.419 88.551 57.929C88.312 58.439 88.383 59.138 88.851 59.451C89.203 59.687 89.675 59.647 90.076 59.507C90.683 59.296 91.265 58.561 90.853 58.067C90.464 58.371 89.997 58.56 89.601 58.855C89.205 59.15 88.869 59.606 88.927 60.096C89.007 60.775 89.896 61.156 90.507 60.85C91.118 60.544 91.379 59.749 91.205 59.087C90.362 59.526 89.797 60.452 89.792 61.402C89.79 61.786 89.906 62.215 90.241 62.402C90.537 62.567 90.908 62.49 91.22 62.358C91.57 62.21 91.916 61.968 92.027 61.604C92.138 61.24 91.888 60.766 91.508 60.776C91.229 60.783 91.02 61.023 90.848 61.242C90.404 61.809 89.938 62.55 90.258 63.195C90.49 63.663 91.143 63.861 91.596 63.601C92.049 63.341 92.207 62.677 91.919 62.241C91.396 62.462 90.953 62.941 90.908 63.507C90.863 64.073 91.32 64.67 91.888 64.66C92.456 64.65 92.886 63.886 92.524 63.449C92.434 63.34 92.258 63.264 92.159 63.365C92.06 63.466 92.298 63.645 92.322 63.506" stroke="#010101" stroke-width="1.5" stroke-linecap="round" stroke-linejoin="round"/>
<path d="M93.062 64.645L91.243 67.052L91.67 67.627C92.447 67.384 93.127 66.883 93.545 66.247C93.43 65.722 92.619 65.545 92.078 65.8C91.537 66.055 91.225 66.575 90.985 67.075C90.758 67.547 90.573 68.119 90.89 68.531C91.427 69.23 92.671 68.767 93.466 68.256C93.955 67.942 94.462 67.267 93.971 66.983C93.834 66.904 93.658 66.898 93.492 66.904C92.482 66.943 91.445 67.408 90.949 68.204C90.452 69 90.634 70.114 91.465 70.601C92.296 71.088 93.666 70.695 93.926 69.82C93.745 69.251 93.011 68.884 92.358 69.037C91.975 69.127 91.648 69.364 91.398 69.641C90.818 70.283 90.617 71.218 91.044 71.922C91.471 72.626 92.579 72.963 93.369 72.537C94.159 72.111 94.29 70.932 93.532 70.505C92.348 70.827 91.246 71.408 90.351 72.18C89.493 72.921 88.809 74.105 89.419 74.983C89.796 75.525 90.567 75.757 91.294 75.749C91.85 75.743 92.435 75.603 92.837 75.25C93.239 74.897 93.391 74.296 93.078 73.896C92.672 73.376 91.703 73.456 91.166 73.902C90.629 74.348 90.429 75.019 90.306 75.656C90.216 76.122 90.158 76.616 90.355 77.047C90.552 77.478 91.086 77.813 91.598 77.679C92.086 77.552 92.354 77.078 92.483 76.641C92.615 76.195 92.594 75.608 92.124 75.435C91.57 75.232 91.035 75.799 90.773 76.293C90.469 76.863 90.206 77.47 90.212 78.093C90.218 78.716 90.543 79.36 91.165 79.629C91.787 79.898 92.691 79.65 92.922 79.055C93.153 78.46 92.4 77.759 91.764 78.039C91.4 78.199 91.221 78.567 91.095 78.909C90.76 79.822 90.589 80.779 90.59 81.73C90.59 82.055 90.623 82.408 90.868 82.642C91.216 82.975 91.947 82.87 92.185 82.452C92.423 82.034 92.078 81.466 91.562 81.427C90.749 81.967 90.046 82.736 89.949 83.623C89.852 84.51 90.561 85.466 91.559 85.484C92.557 85.502 93.373 84.257 92.688 83.631C92.226 83.209 91.385 83.282 90.839 83.648C90.293 84.014 89.984 84.593 89.752 85.162C89.497 85.789 89.308 86.48 89.539 87.1C89.77 87.72 90.566 88.196 91.258 87.938C91.95 87.68 91.99 86.57 91.262 86.464C90.739 86.388 90.285 86.824 90.036 87.25C89.744 87.749 89.571 88.341 89.776 88.859C89.981 89.377 90.672 89.748 91.249 89.521C91.826 89.294 91.902 88.396 91.311 88.235C90.654 88.057 90.139 88.813 90.054 89.427C89.968 90.048 90.086 90.773 90.676 91.092C91.266 91.411 92.281 90.86 92.002 90.296C91.364 90.035 90.687 90.629 90.294 91.167C90.033 91.525 89.777 91.91 89.748 92.331C89.719 92.752 89.995 93.21 90.459 93.277C90.923 93.344 91.414 92.823 91.149 92.481C90.885 92.789 90.608 93.133 90.625 93.513C90.642 93.893 91.137 94.242 91.497 94.024" stroke="#010101" stroke-width="1.5" stroke-linecap="round" stroke-linejoin="round"/>
<path d="M89.368 62.51C88.919 63.148 88.471 63.786 88.022 64.424C88.979 64.489 89.894 63.616 89.873 62.657C89.205 62.778 88.533 63.009 88.041 63.477C87.549 63.945 87.28 64.691 87.52 65.326C87.76 65.961 88.596 66.344 89.175 65.989C89.754 65.634 89.673 64.56 89.014 64.399C88.61 64.3 88.197 64.54 87.904 64.835C87.347 65.396 87.038 66.237 87.239 67.002C87.44 67.767 88.219 68.377 89.001 68.264C89.783 68.151 90.37 67.216 90.029 66.502C89.664 65.738 88.535 65.634 87.824 66.093C87.113 66.552 86.735 67.374 86.439 68.167C86.215 68.768 86.074 69.575 86.604 69.937C86.816 70.082 87.086 70.108 87.342 70.097C88.833 70.03 90.145 68.661 90.15 67.169C88.92 66.56 87.223 67.627 87.24 69C87.248 69.615 87.6 70.258 88.185 70.447C88.77 70.636 89.518 70.195 89.504 69.58C89.489 68.879 88.558 68.502 87.911 68.773C87.264 69.044 86.879 69.704 86.586 70.341C86.316 70.928 86.088 71.636 86.411 72.196C86.748 72.781 87.572 72.924 88.208 72.696C88.844 72.468 89.333 71.962 89.799 71.473C89.375 70.765 88.344 70.575 87.614 70.959C86.884 71.343 86.463 72.177 86.415 73C86.374 73.701 86.605 74.455 87.166 74.876C87.727 75.297 88.643 75.251 89.037 74.671C89.431 74.091 88.972 73.108 88.273 73.166C87.946 73.193 87.668 73.41 87.433 73.638C86.842 74.213 86.366 74.984 86.405 75.808C86.443 76.632 87.158 77.446 87.979 77.359C88.8 77.272 89.273 76.029 88.603 75.547C87.951 75.979 87.294 76.5 87.045 77.241C86.796 77.982 87.165 78.971 87.936 79.103C88.707 79.235 89.333 78.003 88.657 77.611C88.088 77.281 87.394 77.867 87.163 78.483C86.982 78.966 86.94 79.532 87.193 79.981C87.446 80.43 88.054 80.692 88.509 80.45C88.964 80.208 89.017 79.418 88.548 79.203C88.077 78.987 87.561 79.436 87.338 79.903C86.978 80.657 86.969 81.569 87.314 82.33C87.756 82.254 88.24 82.112 88.466 81.724C88.692 81.336 88.393 80.692 87.956 80.794C87.74 80.844 87.596 81.045 87.487 81.239C87.108 81.917 86.931 82.793 87.335 83.457C87.739 84.121 88.878 84.282 89.262 83.607C89.278 82.99 88.379 82.707 87.866 83.049C87.353 83.391 87.171 84.053 87.07 84.662C86.997 85.103 86.949 85.574 87.137 85.979C87.325 86.384 87.837 86.669 88.233 86.464C88.629 86.259 88.561 85.503 88.114 85.483C87.846 85.471 87.634 85.702 87.489 85.927C86.955 86.754 86.756 87.79 86.946 88.756C87.292 88.887 87.685 88.892 88.035 88.77C88.198 88.391 88.172 87.935 87.966 87.577C87.251 87.889 86.757 88.602 86.597 89.366C86.421 90.206 86.725 91.235 87.529 91.536C88.333 91.837 89.358 90.834 88.858 90.136C88.44 89.552 87.487 89.76 86.959 90.247C86.246 90.905 85.963 92.131 86.622 92.842C87.282 93.553 88.824 92.98 88.613 92.034C87.847 92.234 87.574 93.4 88.172 93.919" stroke="#010101" stroke-width="1.5" stroke-linecap="round" stroke-linejoin="round"/>
<path d="M106.034 52.204C105.645 52.88 105.256 53.556 104.867 54.232C105.826 54.21 106.657 53.258 106.55 52.304C105.896 52.485 105.247 52.776 104.8 53.287C104.353 53.798 104.153 54.565 104.449 55.176C104.745 55.787 105.614 56.092 106.157 55.686C106.7 55.28 106.523 54.218 105.852 54.117C105.441 54.055 105.051 54.332 104.786 54.652C104.282 55.261 104.051 56.127 104.32 56.87C104.59 57.613 105.421 58.15 106.19 57.967C106.959 57.784 107.458 56.799 107.054 56.119C106.622 55.392 105.487 55.391 104.821 55.912C104.155 56.433 103.853 57.287 103.63 58.103C103.461 58.722 103.395 59.539 103.955 59.851C104.179 59.976 104.451 59.978 104.705 59.943C106.183 59.74 107.366 58.259 107.236 56.772C105.956 56.277 104.363 57.494 104.504 58.859C104.567 59.471 104.977 60.079 105.577 60.214C106.177 60.349 106.882 59.842 106.812 59.231C106.733 58.534 105.772 58.244 105.153 58.572C104.534 58.9 104.21 59.593 103.975 60.254C103.759 60.863 103.597 61.589 103.969 62.117C104.358 62.669 105.192 62.737 105.804 62.452C106.416 62.167 106.858 61.619 107.278 61.09C106.791 60.424 105.748 60.327 105.055 60.776C104.362 61.225 104.019 62.093 104.047 62.918C104.07 63.619 104.368 64.349 104.965 64.718C105.562 65.087 106.47 64.957 106.81 64.343C107.15 63.729 106.604 62.793 105.913 62.913C105.59 62.969 105.333 63.211 105.119 63.46C104.582 64.087 104.179 64.897 104.292 65.714C104.405 66.531 105.191 67.276 106 67.116C106.809 66.956 107.168 65.674 106.457 65.255C105.847 65.744 105.239 66.322 105.06 67.083C104.881 67.844 105.336 68.795 106.116 68.857C106.896 68.919 107.407 67.635 106.698 67.306C106.101 67.029 105.463 67.675 105.289 68.31C105.152 68.807 105.162 69.375 105.455 69.799C105.748 70.223 106.377 70.429 106.808 70.146C107.239 69.863 107.22 69.072 106.733 68.9C106.245 68.728 105.771 69.221 105.591 69.707C105.301 70.49 105.375 71.4 105.788 72.126C106.221 72.01 106.691 71.824 106.88 71.418C107.069 71.012 106.713 70.397 106.287 70.538C106.076 70.608 105.951 70.82 105.861 71.023C105.545 71.733 105.449 72.621 105.911 73.245C106.373 73.869 107.522 73.926 107.844 73.219C107.804 72.603 106.883 72.403 106.403 72.79C105.923 73.177 105.802 73.853 105.756 74.468C105.723 74.913 105.718 75.388 105.943 75.774C106.168 76.16 106.702 76.398 107.079 76.158C107.456 75.918 107.318 75.172 106.872 75.192C106.604 75.204 106.414 75.454 106.29 75.691C105.834 76.563 105.73 77.613 106.006 78.558C106.363 78.657 106.754 78.627 107.091 78.473C107.219 78.08 107.151 77.629 106.914 77.291C106.23 77.667 105.803 78.422 105.713 79.197C105.614 80.049 106.011 81.047 106.838 81.273C107.665 81.499 108.596 80.408 108.034 79.759C107.564 79.216 106.635 79.509 106.153 80.042C105.503 80.762 105.332 82.009 106.054 82.657C106.776 83.305 108.26 82.595 107.963 81.671C107.218 81.939 107.052 83.125 107.695 83.588" stroke="#010101" stroke-width="1.5" stroke-linecap="round" stroke-linejoin="round"/>
<path d="M106.85 79.832C107.143 80.256 107.772 80.462 108.203 80.179C108.634 79.896 108.615 79.105 108.128 78.933C107.64 78.761 107.166 79.254 106.986 79.74C106.696 80.523 106.77 81.433 107.183 82.159C107.616 82.043 108.086 81.857 108.275 81.451C108.464 81.045 108.108 80.43 107.682 80.571C107.471 80.641 107.346 80.853 107.256 81.056C106.94 81.766 106.844 82.654 107.306 83.278C107.768 83.902 108.917 83.959 109.239 83.252C109.199 82.636 108.278 82.436 107.798 82.823C107.318 83.21 107.197 83.886 107.151 84.501C107.118 84.946 107.113 85.421 107.338 85.807C107.563 86.193 108.097 86.431 108.474 86.191C108.851 85.951 108.713 85.205 108.267 85.225C107.999 85.237 107.809 85.487 107.685 85.724C107.229 86.596 107.125 87.646 107.401 88.591C107.758 88.69 108.149 88.66 108.486 88.506C108.614 88.113 108.546 87.662 108.309 87.324C107.625 87.7 107.198 88.455 107.108 89.23C107.009 90.082 107.406 91.08 108.233 91.306C109.06 91.532 109.991 90.441 109.429 89.792C108.959 89.249 108.03 89.542 107.548 90.075C106.898 90.795 106.727 92.042 107.449 92.69C108.171 93.338 109.655 92.628 109.358 91.704C108.613 91.972 108.447 93.158 109.09 93.621" stroke="#010101" stroke-width="1.5" stroke-linecap="round" stroke-linejoin="round"/>
<path d="M84.875 66.567C84.71 66.997 84.546 67.427 84.381 67.857C85.025 68.191 85.898 67.533 85.792 66.792C84.371 66.688 82.975 67.816 82.721 69.275C83.378 70.198 85.027 69.9 85.328 68.805C84.956 68.468 84.348 68.593 84 68.949C83.652 69.305 83.506 69.82 83.401 70.319C83.262 70.983 83.268 71.859 83.865 72.141C84.686 72.53 85.328 71.353 85.515 70.439C85.011 69.926 84.149 70.09 83.591 70.524C82.763 71.168 82.371 72.514 83.016 73.371C83.662 74.228 85.334 73.813 85.276 72.731C84.59 72.172 83.544 72.634 83.044 73.364C82.623 73.978 82.436 74.807 82.708 75.514C82.98 76.221 83.783 76.713 84.469 76.471C85.155 76.229 85.461 75.169 84.933 74.641C84.132 74.217 83.164 74.884 82.757 75.709C82.269 76.698 82.356 78.092 83.231 78.747C84.106 79.402 85.648 78.669 85.467 77.565C84.935 77.009 83.967 77.267 83.507 77.878C83.047 78.489 82.956 79.311 82.882 80.088C82.858 80.336 82.837 80.598 82.937 80.825C83.178 81.373 83.91 81.383 84.478 81.3C84.907 81.237 85.374 81.149 85.65 80.803C85.926 80.457 85.805 79.78 85.373 79.732C85.213 79.715 85.059 79.786 84.92 79.867C84.374 80.185 83.93 80.675 83.617 81.24C83.249 81.903 83.058 82.727 83.322 83.449C83.586 84.171 84.412 84.691 85.093 84.405C85.774 84.119 85.915 82.92 85.247 82.585C84.417 82.168 83.673 83.26 83.355 84.153C83.143 84.749 82.927 85.382 83.043 86.01C83.159 86.638 83.745 87.224 84.337 87.071C84.79 86.954 85.06 86.478 85.23 86.025C85.386 85.609 85.441 85.018 85.055 84.816C84.781 84.673 84.456 84.835 84.209 85.019C83.737 85.372 83.321 85.845 83.16 86.429C82.999 87.013 83.144 87.717 83.612 88.088C84.08 88.459 84.862 88.352 85.121 87.809C85.38 87.266 84.852 86.48 84.289 86.636C84.046 86.703 83.862 86.904 83.704 87.107C83.223 87.725 82.857 88.507 82.964 89.301C83.071 90.095 83.803 90.828 84.554 90.676C85.305 90.524 85.615 89.265 84.938 88.881C84.471 88.616 83.884 88.886 83.516 89.278C83.033 89.792 82.762 90.567 82.966 91.262C83.17 91.957 83.93 92.473 84.587 92.25C85.244 92.027 85.512 90.982 84.976 90.515C84.369 90.599 83.775 90.96 83.527 91.542C83.279 92.124 83.478 92.918 84.031 93.201C84.584 93.484 85.373 93.035 85.34 92.396C85.309 91.794 84.561 91.402 84.05 91.676C83.539 91.95 83.38 92.713 83.666 93.239C83.952 93.765 84.587 94.026 85.157 93.937" stroke="#010101" stroke-width="1.5" stroke-linecap="round" stroke-linejoin="round"/>
<path d="M81.7011 67.711L79.5571 69.513L79.7651 70.247C80.3451 70.346 80.9881 70.07 81.2641 69.55C81.5401 69.03 81.3791 68.303 80.8791 67.993C80.1161 67.522 79.0971 68.171 78.7171 68.983C78.3091 69.857 78.3941 71.011 79.1131 71.653C79.8321 72.295 81.1881 72.119 81.5421 71.222C81.8781 70.372 81.1171 69.354 80.2071 69.269C79.2971 69.184 78.4321 69.866 78.1081 70.721C77.7841 71.576 77.9231 72.549 78.2701 73.394C78.6131 74.229 79.3171 75.065 80.2191 75.016C80.8881 74.98 81.4661 74.407 81.5811 73.748C81.6961 73.089 81.3861 72.392 80.8641 71.972C79.5471 73.208 78.5191 75.18 79.3621 76.777C79.7041 77.425 80.5231 77.932 81.1641 77.577C81.4211 77.435 81.5961 77.183 81.7571 76.938C82.3091 76.095 82.6991 74.747 81.8161 74.262C80.9541 73.788 80.0281 74.785 79.6191 75.679C79.3191 76.335 79.0621 77.033 79.0771 77.754C79.0921 78.475 79.4301 79.226 80.0691 79.562C80.7081 79.898 81.6351 79.663 81.9001 78.992C82.1651 78.321 81.4511 77.448 80.7731 77.694C80.3021 77.865 80.0891 78.4 79.9571 78.883C79.7121 79.776 79.5541 80.693 79.4851 81.616C79.4431 82.186 79.5211 82.898 80.0531 83.107C80.5491 83.303 81.0781 82.9 81.3911 82.468C81.7521 81.969 82.0061 81.351 81.9041 80.743C81.8021 80.135 81.2531 79.582 80.6401 79.635C79.9891 79.692 79.5631 80.343 79.3431 80.958C78.8861 82.234 78.8811 83.667 79.3291 84.947C79.4351 85.249 79.5951 85.572 79.8951 85.68C80.2921 85.823 80.7131 85.514 80.9491 85.165C81.3541 84.565 81.3351 83.539 80.6441 83.326C79.9521 83.112 79.3811 83.902 79.1571 84.591C78.8511 85.53 78.7111 86.522 78.7441 87.509C78.7661 88.155 78.9291 88.898 79.5071 89.186C80.4291 89.645 81.4111 88.477 81.4111 87.447C81.4111 86.683 80.8101 85.76 80.0861 86.006C79.6981 86.138 79.4901 86.549 79.3381 86.93C79.0661 87.612 78.8461 88.359 79.0211 89.072C79.1961 89.785 79.9001 90.413 80.6181 90.258C81.1811 90.137 81.5831 89.513 81.4611 88.951C81.3391 88.389 80.7151 87.987 80.1531 88.11C79.6941 88.21 79.3451 88.595 79.1411 89.018C78.7471 89.838 78.8841 90.971 79.6511 91.46C80.4181 91.95 81.6911 91.328 81.5661 90.427C81.5661 90.427 79.5801 89.008 78.8331 91.469C78.0861 93.93 80.4951 94.031 81.4151 93.805C82.3351 93.579 82.7281 92.375 80.1331 92.243C77.5381 92.111 79.4451 93.824 80.6931 94.087" stroke="#010101" stroke-width="1.5" stroke-linecap="round" stroke-linejoin="round"/>
<path d="M98.374 73.379C98.035 74.942 98.086 76.588 98.523 78.126C99.125 77.712 99.2901 76.781 98.8651 76.186C96.6391 78.078 96.097 81.665 97.664 84.13C98.214 84.072 98.7791 84.011 99.2691 83.756C99.7591 83.501 100.166 83.005 100.147 82.452C100.128 81.899 99.547 81.388 99.026 81.572C98.664 81.7 98.4631 82.077 98.2961 82.424C97.8801 83.287 97.457 84.17 97.347 85.121C97.236 86.072 97.494 87.122 98.236 87.728C98.643 87.481 99.087 87.183 99.184 86.717C99.281 86.251 98.72 85.712 98.349 86.01C97.843 87.045 97.328 88.113 97.253 89.262C97.221 89.753 97.282 90.278 97.58 90.67C97.878 91.062 98.466 91.261 98.885 91.001C99.304 90.741 99.306 89.982 98.843 89.815C97.88 90.117 97.145 91.001 96.951 91.991C96.848 92.517 96.899 93.102 97.231 93.523C97.563 93.944 98.2251 94.119 98.6571 93.802C99.0891 93.485 99.032 92.668 98.52 92.51C97.677 92.997 97.788 94.493 98.694 94.851" stroke="#010101" stroke-width="1.5" stroke-linecap="round" stroke-linejoin="round"/>
<path d="M93.0931 71.458C92.7541 73.021 92.8051 74.667 93.2421 76.205C93.8441 75.791 94.0091 74.86 93.5841 74.265C91.3581 76.157 90.8161 79.744 92.3831 82.209C92.9331 82.151 93.4981 82.09 93.9881 81.835C94.4781 81.58 94.8851 81.084 94.8661 80.531C94.8471 79.978 94.2661 79.467 93.7451 79.651C93.3831 79.779 93.1821 80.156 93.0151 80.503C92.5991 81.366 92.1761 82.249 92.0661 83.2C91.9561 84.151 92.2131 85.201 92.9551 85.807C93.3621 85.56 93.8061 85.262 93.9031 84.796C94.0001 84.33 93.4391 83.791 93.0681 84.089C92.5621 85.124 92.0471 86.192 91.9721 87.341C91.9401 87.832 92.0011 88.357 92.2991 88.749C92.5971 89.141 93.1851 89.34 93.6041 89.08C94.0231 88.82 94.0251 88.061 93.5621 87.894C92.5991 88.196 91.8641 89.08 91.6701 90.07C91.5671 90.596 91.6181 91.181 91.9501 91.602C92.2821 92.023 92.9441 92.198 93.3761 91.881C93.8081 91.564 93.7511 90.747 93.2391 90.589C92.3961 91.076 92.5071 92.572 93.4131 92.93" stroke="#010101" stroke-width="1.5" stroke-linecap="round" stroke-linejoin="round"/>
<path d="M48.582 52.204C47.435 54.474 46.288 56.744 45.141 59.014C44.928 59.435 44.709 59.889 44.766 60.358C44.892 61.388 46.157 61.779 47.183 61.938C48.019 62.067 48.854 62.196 49.69 62.325" stroke="#010101" stroke-width="1.5" stroke-linecap="round" stroke-linejoin="round"/>
<path d="M96.9561 79.37C96.9561 79.37 98.2591 81.296 99.5911 79.711" stroke="#010101" stroke-width="1.5" stroke-linecap="round" stroke-linejoin="round"/>
<path d="M105.859 73.759C105.859 73.759 108.76 74.811 108.466 76.212C108.172 77.613 106.007 78.559 106.007 78.559" stroke="#010101" stroke-width="1.5" stroke-linecap="round" stroke-linejoin="round"/>
<path d="M106.67 124.818C96.33 131.818 83.95 136.028 70.6 136.368H67.11C53.4 136.018 40.7 131.588 30.2 124.238C30.65 113.258 29.98 101.338 29.71 97.188C31.96 96.748 34.44 96.318 37.08 95.928C37.78 95.818 38.49 95.718 39.21 95.618C39.21 95.638 39.21 95.658 39.22 95.688C39.67 101.118 41.03 116.718 42.04 121.238C42.04 121.238 82.47 124.138 93.18 121.238C93.18 121.238 91.64 104.808 90.3 94.698C90.27 94.528 90.25 94.358 90.23 94.198C92.12 94.278 93.9 94.398 95.58 94.558C95.7 94.568 95.81 94.578 95.92 94.598H95.93C97.84 94.778 99.62 95.018 101.28 95.318C101.51 95.358 101.74 95.398 101.96 95.438V95.468C102.56 101.398 104.12 114.318 106.67 124.818Z" fill="#E3E3FF" stroke="#010101" stroke-width="1.5" stroke-linecap="round" stroke-linejoin="round"/>
<path d="M123.61 108.378C118.97 114.798 113.23 120.368 106.67 124.818C104.12 114.298 102.55 101.358 101.96 95.438C113.33 97.588 119.24 100.558 123.61 108.378Z" fill="white" stroke="#010101" stroke-width="1.5" stroke-linecap="round" stroke-linejoin="round"/>
<path d="M30.2 124.238C23.37 119.458 17.46 113.458 12.8 106.538C15.73 102.708 19.53 99.648 24.62 98.328C26.14 97.938 27.84 97.548 29.71 97.188C29.98 101.338 30.65 113.258 30.2 124.238Z" fill="white" stroke="#010101" stroke-width="1.5" stroke-linecap="round" stroke-linejoin="round"/>
<path d="M104.357 52.481C104.244 52.346 104.15 52.186 104.134 52.01C104.089 51.516 104.646 51.182 105.137 51.109C106.048 50.973 107.04 51.325 107.586 52.066" stroke="#010101" stroke-width="1.5" stroke-linecap="round" stroke-linejoin="round"/>
<path d="M98.273 42.566C99.206 42.309 100.222 42.361 101.125 42.712C100.524 43.455 99.32 43.613 98.548 43.05C99.283 41.924 101.368 42.281 101.687 43.587C101.398 44.65 99.982 45.218 99.039 44.649C99.62 44.102 100.383 43.649 101.173 43.756C101.963 43.863 102.642 44.768 102.274 45.477C102.084 45.843 101.689 46.053 101.299 46.186C100.567 46.437 99.551 46.369 99.279 45.645C99.697 44.919 100.57 44.53 101.408 44.548C102.246 44.566 103.043 44.941 103.71 45.447C103.893 45.586 104.073 45.741 104.172 45.948C104.297 46.209 104.276 46.52 104.189 46.796C103.959 47.523 103.262 48.078 102.502 48.14C101.742 48.202 100.965 47.766 100.621 47.085C101.209 46.414 102.2 46.209 103.077 46.372C103.954 46.535 104.739 47.01 105.469 47.523C105.779 47.741 106.099 47.989 106.224 48.346C106.544 49.264 105.448 50.005 104.544 50.363C104.17 50.511 103.723 50.653 103.389 50.429C103.054 50.204 103.022 49.685 103.241 49.346C103.46 49.007 103.856 48.822 104.249 48.729C105.256 48.491 106.406 48.797 107.066 49.594C107.726 50.391 107.779 51.67 107.094 52.445" stroke="#010101" stroke-width="1.5" stroke-linecap="round" stroke-linejoin="round"/>
<path d="M103.341 90.359C103.341 90.359 103.07 93.836 104.953 94.2C106.836 94.564 107.814 93.658 107.632 93.174C107.45 92.69 106.915 89.729 105.725 90.824" stroke="#010101" stroke-width="1.5" stroke-linecap="round" stroke-linejoin="round"/>
</g>
<defs>
<clipPath id="clip0_35_3922">
<rect width="136.566" height="136.566" fill="white" transform="translate(0.56604 0.570007)"/>
</clipPath>
</defs>
</svg>
