<svg width="137" height="138" viewBox="0 0 137 138" fill="none" xmlns="http://www.w3.org/2000/svg">
<g clip-path="url(#clip0_35_3911)">
<path d="M68.283 136.386C105.58 136.386 135.816 106.15 135.816 68.853C135.816 31.5556 105.58 1.32001 68.283 1.32001C30.9855 1.32001 0.75 31.5556 0.75 68.853C0.75 106.15 30.9855 136.386 68.283 136.386Z" fill="white" stroke="#010101" stroke-width="1.5" stroke-linecap="round" stroke-linejoin="round"/>
<path d="M128.433 99.578C126.983 102.408 125.343 105.118 123.533 107.698C115.223 119.498 103.233 128.508 89.233 133.068C86.863 132.708 84.833 130.978 82.723 129.718C78.553 127.208 73.913 126.388 69.083 126.238C68.933 126.228 68.783 126.228 68.633 126.228C62.573 126.088 56.233 126.918 50.183 126.708C42.823 126.448 35.633 124.558 28.373 123.328C22.273 118.858 16.953 113.378 12.653 107.148C11.743 105.828 10.873 104.478 10.063 103.088C12.513 97.418 16.833 90.988 17.923 86.818C20.123 78.378 19.013 74.288 22.443 66.288C23.673 63.438 25.613 60.948 26.763 58.068C28.613 53.468 28.483 48.298 29.523 43.438C34.103 22.048 58.373 19.528 67.253 19.228C71.033 19.098 74.863 19.078 78.493 20.118C84.253 21.778 89.053 26.058 92.383 31.158C95.703 36.268 97.683 42.188 99.223 48.138C100.503 53.118 101.603 58.408 104.913 62.268C108.663 66.638 114.743 68.508 118.003 73.288C121.273 78.068 120.893 84.518 122.893 89.988C124.163 93.488 126.373 96.488 128.433 99.578Z" fill="#010101" stroke="#010101" stroke-width="1.5" stroke-linecap="round" stroke-linejoin="round"/>
<path d="M88.422 102.687C86.591 108.358 73.756 125.807 69.423 132.358C62.825 125.54 51.125 114.314 44.763 107.296L40.688 95.451C43.803 95.065 48.644 94.062 51.853 93.741C51.687 84.358 51.971 79.415 51.541 79.415C45.607 79.427 41.877 76.469 39.868 73.075C38.62 70.971 38.358 68.433 38.299 65.989C38.032 54.933 39.562 47.2 43.313 36.768C45.56 30.521 50.25 29.665 52.289 29.665C51.843 32.732 53.351 37.69 55.051 40.288C59.687 47.391 66.891 49.551 75.248 51.757C75.486 50.628 77.216 48.749 78.351 48.541C88.831 46.621 87.291 67.699 76.175 63.681C76.88 75.599 76.789 83.597 77.593 93.976C79.269 93.922 90.486 94.274 91.509 94.292L88.423 102.688L88.422 102.687Z" fill="white" stroke="#010101" stroke-width="1.5" stroke-linecap="round" stroke-linejoin="round"/>
<path d="M49.553 50.264L45.353 60.141C47.131 60.51 48.91 60.88 50.688 61.249" fill="white"/>
<path d="M49.553 50.264L45.353 60.141C47.131 60.51 48.91 60.88 50.688 61.249" stroke="#010101" stroke-width="1.5" stroke-linecap="round" stroke-linejoin="round"/>
<path d="M51.125 79.375C54.82 79.453 58.683 79.495 61.989 77.845L51.125 79.375Z" fill="white"/>
<path d="M51.125 79.375C54.82 79.453 58.683 79.495 61.989 77.845" stroke="#010101" stroke-width="1.5" stroke-linecap="round" stroke-linejoin="round"/>
<path d="M123.533 107.698C115.223 119.498 103.233 128.508 89.233 133.068C82.643 135.228 75.593 136.388 68.283 136.388C53.353 136.388 39.553 131.538 28.373 123.328C22.273 118.858 16.953 113.378 12.653 107.148C15.633 103.038 19.563 99.718 24.923 98.328C29.363 97.168 35.513 96.128 42.263 95.238C49.203 106.318 66.323 123.868 68.633 126.228C68.803 126.398 68.893 126.488 68.893 126.488C68.893 126.488 68.953 126.398 69.083 126.238C70.813 123.928 84.093 106.018 90.073 94.218C108.803 95.098 117.803 98.068 123.533 107.698Z" fill="#FF8B37" stroke="#010101" stroke-width="1.5" stroke-linecap="round" stroke-linejoin="round"/>
<path d="M76.175 63.681C76.175 63.681 75.617 72.637 74.066 78.624C72.037 86.451 74.942 94.218 74.942 94.218H90.075L90.358 77.844L76.176 63.68L76.175 63.681Z" fill="#010101" stroke="#010101" stroke-width="1.5" stroke-linecap="round" stroke-linejoin="round"/>
</g>
<defs>
<clipPath id="clip0_35_3911">
<rect width="136.566" height="136.568" fill="white" transform="translate(0 0.570007)"/>
</clipPath>
</defs>
</svg>
