<svg width="137" height="137" viewBox="0 0 137 137" fill="none" xmlns="http://www.w3.org/2000/svg">
<g clip-path="url(#clip0_35_3715)">
<path d="M135.816 0.75H0.75V135.816H135.816V0.75Z" fill="white" stroke="#010101" stroke-width="1.5" stroke-linecap="round" stroke-linejoin="round"/>
<path d="M81.31 58.934C82.311 70.083 81.205 82.616 82.591 91.58C84.261 91.527 86.101 91.515 87.12 91.533L95.77 111.674C106.048 131.891 37.69 128.098 46.264 113.254L51.759 91.869C54.862 91.484 53.758 91.658 56.955 91.338C56.162 84.932 55.684 69.058 55.684 69.058" fill="white"/>
<path d="M81.31 58.934C82.311 70.083 81.205 82.616 82.591 91.58C84.261 91.527 86.101 91.515 87.12 91.533L95.77 111.674C106.048 131.891 37.69 128.098 46.264 113.254L51.759 91.869C54.862 91.484 53.758 91.658 56.955 91.338C56.162 84.932 55.684 69.058 55.684 69.058" stroke="#010101" stroke-width="1.5" stroke-linecap="round" stroke-linejoin="round"/>
<path d="M103.388 135.815H45.128C44.538 126.665 43.928 115.525 43.168 106.425C42.638 100.165 41.028 93.105 54.008 91.625C58.018 101.655 63.718 111.605 69.418 121.545C71.208 118.425 80.128 101.345 85.228 91.515C89.068 91.885 92.718 90.815 94.498 95.475C99.078 107.475 101.768 122.445 103.388 135.815Z" fill="#010101" stroke="#010101" stroke-width="1.5" stroke-linecap="round" stroke-linejoin="round"/>
<path d="M92.48 135.745L135.115 135.816C135.115 135.816 130.307 118.475 124.659 107.213C118.655 95.241 109.89 91.965 87.118 91.533L92.48 135.745Z" fill="#FF8B37" stroke="#010101" stroke-width="1.5" stroke-linecap="round" stroke-linejoin="round"/>
<path d="M57.027 135.816H1.45099C1.72899 134.182 2.16099 132.465 2.78299 130.659C5.92699 121.57 9.55699 99.765 24.927 95.756C29.847 94.477 44.153 92.811 51.755 91.87L57.027 135.816Z" fill="#FF8B37" stroke="#010101" stroke-width="1.5" stroke-linecap="round" stroke-linejoin="round"/>
<path d="M87.118 91.533L87.112 91.504" stroke="#010101" stroke-width="1.5" stroke-linecap="round" stroke-linejoin="round"/>
<path d="M93.821 92.348C97.015 97.576 100.485 102.635 104.213 107.498C102.323 108.845 100.25 109.936 98.07 110.73C100.042 112.584 102.326 114.106 104.934 115.422C101.676 120.786 98.937 129.021 97.451 135.752" stroke="#010101" stroke-width="1.5" stroke-linecap="round" stroke-linejoin="round"/>
<path d="M46.065 93.104C43.244 97.395 40.609 101.809 38.17 106.328C39.652 107.944 41.427 109.291 43.387 110.294C41.541 112.006 39.387 113.385 37.443 114.474C41.04 120.905 44.257 128.414 47.076 135.814" stroke="#010101" stroke-width="1.5" stroke-linecap="round" stroke-linejoin="round"/>
<path d="M40.78 45.491C39.303 40.827 37.853 29.752 39.43 26.653C41.243 23.089 45.365 21.204 49.35 20.873C53.335 20.542 57.298 21.488 61.232 22.205C65.768 23.032 69.437 22.05 74.042 22.277C77.987 22.471 82.22 22.531 85.432 24.83C86.878 25.865 88.006 27.293 88.909 28.825C90.501 31.526 91.441 34.609 91.628 37.739C92.031 44.487 89.828 50.588 85.723 57.164C83.611 59.333 81.819 61.814 80.088 65.143C78.494 76.415 75.426 81.907 65.236 85.481C41.303 93.876 37.734 73.29 38.335 66.487C38.659 62.811 39.268 59.16 40.228 55.105" fill="#010101"/>
<path d="M40.78 45.491C39.303 40.827 37.853 29.752 39.43 26.653C41.243 23.089 45.365 21.204 49.35 20.873C53.335 20.542 57.298 21.488 61.232 22.205C65.768 23.032 69.437 22.05 74.042 22.277C77.987 22.471 82.22 22.531 85.432 24.83C86.878 25.865 88.006 27.293 88.909 28.825C90.501 31.526 91.441 34.609 91.628 37.739C92.031 44.487 89.828 50.588 85.723 57.164C83.611 59.333 81.819 61.814 80.088 65.143C78.494 76.415 75.426 81.907 65.236 85.481C41.303 93.876 37.734 73.29 38.335 66.487C38.659 62.811 39.268 59.16 40.228 55.105" stroke="#010101" stroke-width="1.5" stroke-linecap="round" stroke-linejoin="round"/>
<path d="M69.297 59.791C69.958 56.966 70.923 50.973 69.689 46.777C68.746 43.569 67.998 40.69 65.503 38.465C60.45 33.959 53.571 38.296 51.967 38.497C49.749 38.775 47.714 36.978 45.48 37.059C43.657 37.125 42.071 38.478 41.242 40.103C40.413 41.728 40.21 43.594 40.099 45.415C39.808 50.193 39.727 55.256 39.412 59.501C39.374 60.014 39.594 60.535 39.899 60.948C40.285 61.472 40.934 61.725 41.559 61.909C43.954 62.615 47.907 62.918 50.402 62.989C54.551 63.107 58.7 63.225 62.849 63.344C64.086 63.379 65.363 63.408 66.515 62.954C67.667 62.5 68.897 61.501 69.297 59.791Z" fill="white" stroke="#010101" stroke-width="1.5" stroke-linecap="round" stroke-linejoin="round"/>
<path d="M79.475 66.601C81.761 66.594 84.31 66.47 85.899 64.827C86.783 63.913 87.223 62.642 87.347 61.376C87.55 59.306 86.918 57.126 85.484 55.619C84.05 54.112 81.798 53.367 79.394 54.349C79.594 58.453 79.722 62.56 79.475 66.601Z" fill="white" stroke="#010101" stroke-width="1.5" stroke-linecap="round" stroke-linejoin="round"/>
<path d="M48.82 51.138L45.591 60.185L50.399 60.706" fill="white"/>
<path d="M48.82 51.138L45.591 60.185L50.399 60.706" stroke="#010101" stroke-width="1.5" stroke-linecap="round" stroke-linejoin="round"/>
</g>
<defs>
<clipPath id="clip0_35_3715">
<rect width="136.566" height="136.566" fill="white"/>
</clipPath>
</defs>
</svg>
