<svg width="138" height="138" viewBox="0 0 138 138" fill="none" xmlns="http://www.w3.org/2000/svg">
<g clip-path="url(#clip0_35_3893)">
<path d="M69.107 136.386C106.404 136.386 136.64 106.15 136.64 68.853C136.64 31.5556 106.404 1.32001 69.107 1.32001C31.8095 1.32001 1.57397 31.5556 1.57397 68.853C1.57397 106.15 31.8095 136.386 69.107 136.386Z" fill="white" stroke="#010101" stroke-width="1.5" stroke-linecap="round" stroke-linejoin="round"/>
<path d="M82.134 59.504C83.135 70.653 82.029 83.186 83.415 92.15C85.085 92.097 86.925 92.085 87.944 92.103L96.594 112.244C106.872 132.461 38.514 128.668 47.088 113.824L52.583 92.439C55.686 92.054 54.582 92.228 57.779 91.908C56.986 85.502 56.508 69.628 56.508 69.628" fill="white"/>
<path d="M82.134 59.504C83.135 70.653 82.029 83.186 83.415 92.15C85.085 92.097 86.925 92.085 87.944 92.103L96.594 112.244C106.872 132.461 38.514 128.668 47.088 113.824L52.583 92.439C55.686 92.054 54.582 92.228 57.779 91.908C56.986 85.502 56.508 69.628 56.508 69.628" stroke="#010101" stroke-width="1.5" stroke-linecap="round" stroke-linejoin="round"/>
<path d="M102.964 127.3C99.734 129.17 96.334 130.79 92.794 132.11C85.654 134.79 77.944 136.29 69.884 136.38H68.384C64.764 136.35 61.204 136.02 57.744 135.43C53.584 134.72 49.554 133.64 45.694 132.21C45.184 123.98 44.644 114.75 43.994 106.99C43.464 100.73 41.854 93.67 54.834 92.19C58.844 102.22 64.544 112.17 70.244 122.11C72.034 118.99 80.954 101.91 86.054 92.08C89.894 92.45 93.544 91.38 95.324 96.04C98.884 105.38 101.304 116.52 102.964 127.3Z" fill="#010101" stroke="#010101" stroke-width="1.5" stroke-linecap="round" stroke-linejoin="round"/>
<path d="M124.974 106.8C117.194 118.25 105.974 127.18 92.794 132.11L87.944 92.1C110.084 92.52 118.984 95.63 124.974 106.8Z" fill="#FF8B37" stroke="#010101" stroke-width="1.5" stroke-linecap="round" stroke-linejoin="round"/>
<path d="M57.744 135.43C39.134 132.28 23.114 121.52 13.004 106.45C16.034 101.68 20.094 97.8001 25.754 96.3301C30.674 95.0501 44.974 93.3801 52.584 92.4401L57.744 135.43Z" fill="#FF8B37" stroke="#010101" stroke-width="1.5" stroke-linecap="round" stroke-linejoin="round"/>
<path d="M87.942 92.102L87.936 92.073" stroke="#010101" stroke-width="1.5" stroke-linecap="round" stroke-linejoin="round"/>
<path d="M94.645 92.918C97.839 98.146 101.309 103.205 105.037 108.068C103.147 109.415 101.074 110.506 98.894 111.3C100.866 113.154 103.15 114.676 105.758 115.992C103.716 119.354 101.655 124.187 100.202 128.728" stroke="#010101" stroke-width="1.5" stroke-linecap="round" stroke-linejoin="round"/>
<path d="M46.889 93.673C44.068 97.964 41.433 102.378 38.994 106.897C40.476 108.513 42.251 109.86 44.211 110.863C42.365 112.575 40.211 113.954 38.267 115.043C41.172 120.237 43.818 126.321 46.217 132.296" stroke="#010101" stroke-width="1.5" stroke-linecap="round" stroke-linejoin="round"/>
<path d="M41.604 46.06C40.127 41.396 38.677 30.321 40.254 27.222C42.067 23.658 46.189 21.773 50.174 21.442C54.159 21.111 58.122 22.057 62.056 22.774C66.592 23.601 70.261 22.619 74.866 22.846C78.811 23.04 83.044 23.1 86.256 25.399C87.702 26.434 88.83 27.862 89.733 29.394C91.325 32.095 92.265 35.178 92.452 38.308C92.855 45.056 90.652 51.157 86.547 57.733C84.435 59.902 82.643 62.383 80.912 65.712C79.318 76.984 76.25 82.476 66.06 86.05C42.127 94.445 38.558 73.859 39.159 67.056C39.483 63.38 40.092 59.729 41.052 55.674" fill="#010101"/>
<path d="M41.604 46.06C40.127 41.396 38.677 30.321 40.254 27.222C42.067 23.658 46.189 21.773 50.174 21.442C54.159 21.111 58.122 22.057 62.056 22.774C66.592 23.601 70.261 22.619 74.866 22.846C78.811 23.04 83.044 23.1 86.256 25.399C87.702 26.434 88.83 27.862 89.733 29.394C91.325 32.095 92.265 35.178 92.452 38.308C92.855 45.056 90.652 51.157 86.547 57.733C84.435 59.902 82.643 62.383 80.912 65.712C79.318 76.984 76.25 82.476 66.06 86.05C42.127 94.445 38.558 73.859 39.159 67.056C39.483 63.38 40.092 59.729 41.052 55.674" stroke="#010101" stroke-width="1.5" stroke-linecap="round" stroke-linejoin="round"/>
<path d="M70.121 60.361C70.782 57.536 71.747 51.543 70.513 47.347C69.57 44.139 68.822 41.26 66.327 39.035C61.274 34.529 54.395 38.866 52.791 39.067C50.573 39.345 48.538 37.548 46.304 37.629C44.481 37.695 42.895 39.048 42.066 40.673C41.237 42.298 41.034 44.164 40.923 45.985C40.632 50.763 40.551 55.826 40.236 60.071C40.198 60.584 40.418 61.105 40.723 61.518C41.109 62.042 41.758 62.295 42.383 62.479C44.778 63.185 48.731 63.488 51.226 63.559C55.375 63.677 59.524 63.795 63.673 63.914C64.91 63.949 66.187 63.978 67.339 63.524C68.491 63.07 69.721 62.071 70.121 60.361Z" fill="white" stroke="#010101" stroke-width="1.5" stroke-linecap="round" stroke-linejoin="round"/>
<path d="M80.299 67.1701C82.585 67.1631 85.134 67.0391 86.723 65.3961C87.607 64.4821 88.047 63.2111 88.171 61.9451C88.374 59.8751 87.742 57.6951 86.308 56.1881C84.874 54.6811 82.622 53.9361 80.218 54.9181C80.418 59.0221 80.546 63.1291 80.299 67.1701Z" fill="white" stroke="#010101" stroke-width="1.5" stroke-linecap="round" stroke-linejoin="round"/>
<path d="M49.644 51.707L46.415 60.754L51.223 61.275" fill="white"/>
<path d="M49.644 51.707L46.415 60.754L51.223 61.275" stroke="#010101" stroke-width="1.5" stroke-linecap="round" stroke-linejoin="round"/>
</g>
<defs>
<clipPath id="clip0_35_3893">
<rect width="136.566" height="136.566" fill="white" transform="translate(0.823975 0.570007)"/>
</clipPath>
</defs>
</svg>
