<svg width="137" height="137" viewBox="0 0 137 137" fill="none" xmlns="http://www.w3.org/2000/svg">
<g clip-path="url(#clip0_35_3733)">
<path d="M135.816 0.75H0.75V135.816H135.816V0.75Z" fill="white" stroke="#010101" stroke-width="1.5" stroke-linecap="round" stroke-linejoin="round"/>
<path d="M8.397 109.828C7.636 103.498 16.307 92.422 17.918 86.249C20.12 77.81 19.007 73.715 22.444 65.719C23.669 62.869 25.607 60.381 26.763 57.502C28.613 52.893 28.477 47.73 29.52 42.866C34.103 21.48 58.373 18.954 67.255 18.657C71.029 18.531 74.865 18.503 78.495 19.547C84.254 21.203 89.055 25.483 92.38 30.591C95.705 35.699 97.686 41.612 99.217 47.565C100.498 52.546 101.601 57.839 104.91 61.695C108.662 66.066 114.743 67.941 118.004 72.713C121.272 77.495 120.893 83.944 122.893 89.422C124.854 94.794 129.014 98.997 131.46 104.151C133.313 108.056 134.138 112.478 133.823 116.825C133.549 120.608 131.961 124.837 128.461 126.039C127.036 126.528 125.498 126.434 124 126.381C114.06 126.028 104.044 127.735 94.723 131.372C93.196 131.968 91.634 132.625 90.006 132.58C87.298 132.505 85.059 130.551 82.727 129.146C73.216 123.413 61.222 126.525 50.181 126.14C40.081 125.787 30.299 122.358 20.211 121.762C16.564 121.547 7.905 126.883 8.397 109.828Z" fill="#010101" stroke="#010101" stroke-width="1.5" stroke-linecap="round" stroke-linejoin="round"/>
<path d="M88.421 102.118C86.59 107.789 73.755 125.238 69.422 131.789C62.824 124.971 51.124 113.745 44.762 106.727L40.687 94.882C43.802 94.496 48.643 93.493 51.852 93.172C51.686 83.789 51.97 78.846 51.54 78.846C45.606 78.858 41.876 75.9 39.867 72.506C38.619 70.402 38.357 67.864 38.298 65.42C38.031 54.364 39.561 46.631 43.312 36.199C45.559 29.952 50.249 29.096 52.288 29.096C51.842 32.163 53.35 37.121 55.05 39.719C59.686 46.822 66.89 48.982 75.247 51.188C75.485 50.059 77.215 48.18 78.35 47.972C88.83 46.052 87.29 67.13 76.174 63.112C76.879 75.03 76.788 83.028 77.592 93.407C79.268 93.353 90.485 93.705 91.508 93.723L88.422 102.119L88.421 102.118Z" fill="white" stroke="#010101" stroke-width="1.5" stroke-linecap="round" stroke-linejoin="round"/>
<path d="M49.551 49.695L45.351 59.572C47.129 59.941 48.908 60.311 50.686 60.68" fill="white"/>
<path d="M49.551 49.695L45.351 59.572C47.129 59.941 48.908 60.311 50.686 60.68" stroke="#010101" stroke-width="1.5" stroke-linecap="round" stroke-linejoin="round"/>
<path d="M51.123 78.805C54.818 78.883 58.681 78.925 61.987 77.275L51.123 78.805Z" fill="white"/>
<path d="M51.123 78.805C54.818 78.883 58.681 78.925 61.987 77.275" stroke="#010101" stroke-width="1.5" stroke-linecap="round" stroke-linejoin="round"/>
<path d="M135.113 135.819L94.003 135.749L91.603 135.819H1.453C1.733 134.179 2.163 132.469 2.783 130.659C5.923 121.569 9.553 101.769 24.923 97.759C29.363 96.599 35.513 95.559 42.263 94.669C49.713 106.562 68.896 125.92 68.896 125.92C68.896 125.92 83.674 106.285 90.073 93.649C110.083 94.589 118.994 97.919 124.664 109.209C130.304 120.479 135.113 135.819 135.113 135.819Z" fill="#FF8B37" stroke="#010101" stroke-width="1.5" stroke-linecap="round" stroke-linejoin="round"/>
<path d="M76.173 63.112C76.173 63.112 75.615 72.068 74.064 78.055C72.035 85.882 74.94 93.649 74.94 93.649H90.073L90.356 77.275L76.174 63.111L76.173 63.112Z" fill="#010101" stroke="#010101" stroke-width="1.5" stroke-linecap="round" stroke-linejoin="round"/>
</g>
<defs>
<clipPath id="clip0_35_3733">
<rect width="136.566" height="136.569" fill="white"/>
</clipPath>
</defs>
</svg>
