<svg width="138" height="138" viewBox="0 0 138 138" fill="none" xmlns="http://www.w3.org/2000/svg">
<g clip-path="url(#clip0_35_3826)">
<path d="M136.376 68.85C136.376 82.92 132.076 95.98 124.716 106.8C116.926 118.25 105.706 127.18 92.536 132.11C85.166 134.88 77.186 136.39 68.846 136.39C64.976 136.39 61.176 136.06 57.486 135.43C38.876 132.29 22.856 121.52 12.736 106.45C5.52598 95.71 1.31598 82.77 1.31598 68.85C1.31598 31.56 31.546 1.32001 68.846 1.32001C106.146 1.32001 136.376 31.56 136.376 68.85Z" fill="white" stroke="#010101" stroke-width="1.5" stroke-linecap="round" stroke-linejoin="round"/>
<path d="M41.812 40.412C41.116 30.316 48.959 25.569 51.461 24.516C58.259 21.654 65.986 21.457 73.191 23.037C78.219 24.14 83.226 26.195 86.706 29.989C89.894 33.465 91.538 38.136 92.115 42.817C92.541 46.277 92.426 49.798 91.843 53.236C90.294 62.383 85.334 70.912 78.151 76.782C77.429 77.372 76.547 77.97 75.638 77.761C75.08 77.633 74.637 77.222 74.237 76.812C70.874 73.365 68.647 69.002 66.261 64.818C60.394 54.53 52.977 44.673 41.813 40.411L41.812 40.412Z" fill="#010101" stroke="#010101" stroke-width="1.5" stroke-linecap="round" stroke-linejoin="round"/>
<path d="M79.149 64.568C80.433 65.476 82.402 65.42 83.645 65.137C87.495 64.261 87.576 58.526 86.849 56.739C86.122 54.952 83.071 49.42 78.264 52.273C77.343 52.82 76.834 53.863 76.259 54.508C75.624 51.522 75.939 50.428 76.222 47.389C76.505 44.35 74.647 34.266 69.039 33.221C65.652 32.59 62.241 33.613 58.796 33.641C54.523 33.676 50.067 31.516 46.142 33.205C42.707 34.683 42.339 36.925 41.445 40.555C39.485 48.51 39.587 56.863 40.766 64.971C41.194 67.911 41.781 70.888 43.227 73.483C45.731 77.978 50.86 80.877 56.002 80.704C56.423 85.196 55.55 89.182 55.971 93.674C56.183 95.942 57.787 98.929 59.443 100.493C61.159 102.115 63.769 102.233 66.13 102.18C70.285 102.087 74.435 101.755 78.552 101.186C79.463 101.06 80.419 100.903 81.134 100.325C82.414 99.291 80.731 96.765 80.619 95.124C79.937 85.073 79.843 73.77 79.149 64.568Z" fill="white" stroke="#010101" stroke-width="1.5" stroke-linecap="round" stroke-linejoin="round"/>
<path d="M68.618 78.424C64.732 80.371 60.302 81.217 55.972 80.84L68.618 78.424Z" fill="white"/>
<path d="M68.618 78.424C64.732 80.371 60.302 81.217 55.972 80.84" stroke="#010101" stroke-width="1.5" stroke-linecap="round" stroke-linejoin="round"/>
<path d="M52.783 50.623C51.854 52.595 50.976 54.591 50.149 56.608C49.938 57.123 49.727 57.654 49.717 58.21C49.702 59.043 50.576 60.204 53.507 61.79" fill="white"/>
<path d="M52.783 50.623C51.854 52.595 50.976 54.591 50.149 56.608C49.938 57.123 49.727 57.654 49.717 58.21C49.702 59.043 50.576 60.204 53.507 61.79" stroke="#010101" stroke-width="1.5" stroke-linecap="round" stroke-linejoin="round"/>
<path d="M48.966 48.294C47.824 47.642 42.866 47.529 41.699 47.825C40.533 48.121 39.442 48.935 39.088 50.085C38.952 50.526 38.928 50.992 38.915 51.453C38.886 52.45 38.915 53.506 39.445 54.351C40.103 55.402 41.378 55.882 42.593 56.127C44.173 56.445 45.809 56.482 47.402 56.235C48.113 56.125 48.882 55.999 49.414 55.515C51.035 54.042 51.612 49.805 48.965 48.294H48.966Z" fill="white" stroke="#010101" stroke-width="1.5" stroke-linecap="round" stroke-linejoin="round"/>
<path d="M65.564 48.294C64.422 47.642 59.464 47.529 58.297 47.825C57.131 48.121 56.04 48.935 55.686 50.085C55.55 50.526 55.526 50.992 55.513 51.453C55.484 52.45 55.513 53.506 56.043 54.351C56.701 55.402 57.976 55.882 59.191 56.127C60.771 56.445 62.407 56.482 64 56.235C64.711 56.125 65.48 55.999 66.012 55.515C67.633 54.042 68.211 49.805 65.564 48.294Z" fill="white" stroke="#010101" stroke-width="1.5" stroke-linecap="round" stroke-linejoin="round"/>
<path d="M67.244 50.623C71.565 50.623 79.02 50.756 83.305 51.171C84.107 51.249 85.031 51.482 85.35 52.222" stroke="#010101" stroke-width="1.5" stroke-linecap="round" stroke-linejoin="round"/>
<path d="M55.751 49.867C53.509 47.998 50.247 49.644 50.264 49.626L55.751 49.867Z" fill="white"/>
<path d="M55.751 49.867C53.509 47.998 50.247 49.644 50.264 49.626" stroke="#010101" stroke-width="1.5" stroke-linecap="round" stroke-linejoin="round"/>
<path d="M102.706 127.29C92.986 132.94 81.736 136.23 69.716 136.38H67.976C60.056 136.28 52.466 134.82 45.426 132.21C44.926 123.98 44.386 114.75 43.736 106.99C43.206 100.73 54.576 92.19 54.576 92.19L71.466 97.19L85.796 92.08C85.796 92.08 93.286 91.38 95.066 96.04C98.626 105.38 101.046 116.51 102.706 127.29Z" fill="#E3E3FF" stroke="#010101" stroke-width="1.5" stroke-linecap="round" stroke-linejoin="round"/>
<path d="M75.356 136.08C73.466 136.26 71.556 136.36 69.626 136.38H68.126C66.586 136.37 65.066 136.3 63.556 136.18C64.946 124.25 66.166 114.56 66.686 112.45C66.976 111.28 67.296 110.07 67.056 108.89C66.906 108.19 66.566 107.55 66.226 106.92C64.976 104.58 63.726 102.24 62.466 99.89C64.646 97.86 67.076 96.34 69.656 95.12C72.156 97 74.446 99.15 76.476 101.53C76.666 102.75 71.646 106.11 71.286 108.38C71.196 108.91 73.056 121.09 75.356 136.08Z" fill="#FF8B37" stroke="#010101" stroke-width="1.5" stroke-linecap="round" stroke-linejoin="round"/>
<path d="M124.716 106.8C116.926 118.25 105.706 127.18 92.536 132.11L87.686 92.1C109.826 92.52 118.716 95.63 124.716 106.8Z" fill="#7B5FF1" stroke="#010101" stroke-width="1.5" stroke-linecap="round" stroke-linejoin="round"/>
<path d="M57.486 135.43C38.876 132.29 22.856 121.52 12.736 106.45C15.776 101.68 19.836 97.8 25.496 96.33C30.416 95.05 44.716 93.38 52.316 92.44L57.486 135.43Z" fill="#7B5FF1" stroke="#010101" stroke-width="1.5" stroke-linecap="round" stroke-linejoin="round"/>
<path d="M87.682 92.102L87.676 92.073" stroke="#010101" stroke-width="1.5" stroke-linecap="round" stroke-linejoin="round"/>
<path d="M94.385 92.918C97.579 98.146 101.049 103.205 104.777 108.068C102.887 109.415 100.814 110.506 98.634 111.3C100.606 113.154 102.89 114.676 105.498 115.992C103.4 119.446 101.517 124.091 100.045 128.759" stroke="#010101" stroke-width="1.5" stroke-linecap="round" stroke-linejoin="round"/>
<path d="M46.629 93.674C43.808 97.965 41.173 102.379 38.734 106.898C40.216 108.514 41.991 109.861 43.951 110.864C42.105 112.576 39.951 113.955 38.007 115.044C40.969 120.34 43.674 126.368 46.111 132.464" stroke="#010101" stroke-width="1.5" stroke-linecap="round" stroke-linejoin="round"/>
<path d="M68.935 95.086C66.121 92.259 62.976 89.763 59.583 87.666C58.696 87.118 57.749 86.583 56.708 86.52C54.699 86.399 52.781 89.453 51.547 91.042C51.205 91.482 50.861 91.958 50.801 92.511C50.732 93.142 51.042 93.747 51.353 94.301C53.261 97.701 55.791 99.471 58.365 102.399C59.023 103.148 59.829 103.937 60.826 103.92C61.575 103.908 62.23 103.435 62.805 102.954C65.198 100.95 67.165 98.439 68.935 95.086Z" fill="white" stroke="#010101" stroke-width="1.5" stroke-linecap="round" stroke-linejoin="round"/>
<path d="M75.018 102.536C72.942 99.976 70.691 97.297 68.693 94.79C71.805 92.419 81.633 84.596 83.135 85.259C84.02 85.65 87.107 88.978 88.283 92.047C85.179 95.203 80.912 100.878 77.667 102.97C76.803 103.527 75.665 103.335 75.018 102.536Z" fill="white" stroke="#010101" stroke-width="1.5" stroke-linecap="round" stroke-linejoin="round"/>
<path d="M68.126 136.38H69.626C69.366 136.39 69.106 136.39 68.846 136.39C68.606 136.39 68.366 136.39 68.126 136.38Z" fill="white" stroke="#010101" stroke-width="1.5" stroke-linecap="round" stroke-linejoin="round"/>
</g>
<defs>
<clipPath id="clip0_35_3826">
<rect width="136.56" height="136.57" fill="white" transform="translate(0.565979 0.570007)"/>
</clipPath>
</defs>
</svg>
