<svg width="137" height="138" viewBox="0 0 137 138" fill="none" xmlns="http://www.w3.org/2000/svg">
<g clip-path="url(#clip0_35_3851)">
<path d="M68.409 136.386C105.706 136.386 135.942 106.15 135.942 68.853C135.942 31.5556 105.706 1.32001 68.409 1.32001C31.1115 1.32001 0.875977 31.5556 0.875977 68.853C0.875977 106.15 31.1115 136.386 68.409 136.386Z" fill="white" stroke="#010101" stroke-width="1.5" stroke-linecap="round" stroke-linejoin="round"/>
<path d="M42.059 52.356C39.491 44.32 42.807 30.926 43.705 29.33C45.007 27.016 47.286 25.365 49.757 24.392C52.228 23.42 54.897 23.068 57.544 22.865C65.304 22.27 71.354 23.122 79.104 23.831C81.57 24.057 84.071 24.301 86.378 25.2C91.413 27.163 95.098 31.669 96.441 36.904C97.783 42.139 97.037 42.854 96.066 48.17C93.977 59.611 87.905 68.008 81.788 77.9C76.297 73.707 72.556 65.153 65.292 58.506C59.745 53.43 52.818 49.554 42.059 52.356Z" fill="#010101" stroke="#010101" stroke-width="1.5" stroke-linecap="round" stroke-linejoin="round"/>
<path d="M83.306 91.783C82.676 81.91 82.636 69.86 81.388 62.039C85.149 61.185 88.274 57.517 88.06 53.733C87.906 51.02 85.666 48.24 82.964 48.528C81.255 48.71 79.847 50.053 79.105 51.603C78.363 53.153 78.169 54.9 77.986 56.609C77.004 56.727 76.021 56.846 75.039 56.965C74.136 55.417 75.206 53.151 74.043 51.788C72.997 50.562 70.961 51.013 69.557 50.222C67.922 49.3 67.665 47.055 67.877 45.189C68.088 43.323 68.549 41.321 67.689 39.652C66.422 37.191 63.04 36.831 60.31 37.291C57.58 37.752 54.712 38.693 52.134 37.684C51.206 37.321 50.363 36.714 49.382 36.536C47.838 36.256 46.262 37.135 45.304 38.378C44.347 39.621 43.898 41.175 43.541 42.703C42.619 46.655 42.176 50.719 42.11 54.99C41.533 61.808 41.055 69.111 44.457 75.047C45.301 76.519 46.385 77.881 47.779 78.851C49.486 80.039 51.551 80.575 53.574 81.057C55.122 81.426 58.008 81.288 58.025 81.474C58.368 85.286 58.059 88.14 58.059 92.138C47.894 93.031 39.354 94.545 39.354 94.545L52.384 124.637L97.169 122.611V92.856C97.169 92.856 92.014 92.181 83.306 91.783Z" fill="white" stroke="#010101" stroke-width="1.5" stroke-linecap="round" stroke-linejoin="round"/>
<path d="M57.15 81.508C60.493 81.506 63.836 81.102 67.084 80.307" stroke="#010101" stroke-width="1.5" stroke-linecap="round" stroke-linejoin="round"/>
<path d="M47.527 62.411C47.577 62.519 47.695 62.576 47.807 62.619C49.183 63.15 50.07 63 52.385 63.189" stroke="#010101" stroke-width="1.5" stroke-linecap="round" stroke-linejoin="round"/>
<path d="M49.858 55.069C49.09 57.394 48.321 59.719 47.553 62.045" stroke="#010101" stroke-width="1.5" stroke-linecap="round" stroke-linejoin="round"/>
<path d="M124.282 106.801C112.122 124.661 91.632 136.381 68.412 136.381C45.032 136.381 24.422 124.501 12.302 106.451C15.332 101.681 19.392 97.801 25.052 96.321C28.612 95.391 41.192 94.141 48.482 93.231C48.472 93.331 48.472 93.441 48.472 93.541C48.472 105.751 56.572 112.541 69.762 112.541C82.952 112.541 92.142 105.881 92.142 93.671C92.142 93.191 92.122 92.721 92.092 92.251C110.722 93.051 118.742 96.481 124.282 106.801Z" fill="#7B5FF1" stroke="#010101" stroke-width="1.5" stroke-linecap="round" stroke-linejoin="round"/>
</g>
<defs>
<clipPath id="clip0_35_3851">
<rect width="136.566" height="136.566" fill="white" transform="translate(0.125977 0.570007)"/>
</clipPath>
</defs>
</svg>
