<svg width="137" height="137" viewBox="0 0 137 137" fill="none" xmlns="http://www.w3.org/2000/svg">
<g clip-path="url(#clip0_35_3802)">
<path d="M135.816 0.75H0.75V135.816H135.816V0.75Z" fill="white" stroke="#010101" stroke-width="1.5" stroke-linecap="round" stroke-linejoin="round"/>
<path d="M92.769 113.674C103.047 133.891 34.689 130.098 43.263 115.254L44.456 94.393C47.559 94.008 50.756 93.659 53.953 93.339C53.16 86.933 52.076 79.117 51.65 79.07C50.555 78.946 49.69 78.845 48.719 78.679C44.847 78.004 40.749 76.494 38.748 73.113C37.505 71.017 37.244 68.489 37.185 66.055C36.919 55.042 39.672 44.136 43.408 33.745C45.646 27.522 50.318 26.669 52.349 26.669C51.905 29.724 65.271 28.981 66.965 31.568C71.583 38.644 66.938 49.322 75.263 51.519C75.5 50.394 77.223 48.523 78.354 48.316C88.793 46.404 88.351 72.947 77.279 68.944C78.28 80.093 78.206 84.616 79.592 93.58C81.262 93.527 82.772 93.503 84.08 93.503C85.158 93.503 86.212 93.515 87.23 93.533L92.769 113.674Z" fill="white" stroke="#010101" stroke-width="1.5" stroke-linecap="round" stroke-linejoin="round"/>
<path d="M25.057 49.463C24.646 49.85 24.128 50.115 23.745 50.529C23.362 50.943 23.143 51.606 23.466 52.068C23.606 52.269 24.428 52.71 24.116 54.066C23.962 54.735 22.848 55.046 22.566 55.672C21.964 57.011 23.007 57.739 22.334 59.237C21.973 60.04 20.848 60.309 20.525 62.134C20.288 63.476 20.712 64.178 20.552 64.865C20.328 65.827 18.997 66.245 18.849 67.222C18.692 68.256 19.974 69.032 19.982 70.077C19.99 71.184 18.573 72.183 19.108 73.152C19.294 73.489 19.676 73.679 19.875 74.009C20.395 74.874 19.413 75.818 18.87 76.668C18.179 77.75 18.215 79.249 18.669 80.25C19.587 81.827 19.73 83.831 19.044 85.522C18.785 86.16 18.408 86.836 18.609 87.495C18.88 88.387 20.058 88.721 20.406 89.586C20.695 90.304 20.312 91.103 20.294 91.876C20.267 93.007 21.013 93.992 21.296 94.949C22.002 96.55 23.234 98.189 24.929 97.755C39.823 93.943 45.568 94.256 53.955 93.338C53.992 88.051 54.56 84.788 54.644 79.365C50.898 79.888 47.038 78.292 44.347 75.634C41.656 72.976 40.052 69.362 39.309 65.653C38.566 61.944 40.452 44.818 43.857 36.284C46.822 36.584 50.012 33.279 50.546 30.347C51.754 32.45 54.172 33.798 56.596 33.717C55.125 36.118 57.555 39.112 60.114 40.287C60.796 40.6 61.584 40.946 61.806 41.663C61.978 42.218 61.743 42.81 61.741 43.391C61.736 44.63 62.75 45.598 63.646 46.453C66.587 49.257 69.062 52.548 70.942 56.15C71.181 53.924 73.834 52.49 75.99 53.093C78.146 53.696 79.617 55.85 79.934 58.066C80.293 60.569 79.337 63.223 77.464 64.922C75.591 66.621 72.857 67.314 70.401 66.714C71.439 70.501 72.061 74.402 72.252 78.324C72.293 79.175 72.314 80.036 72.154 80.873C71.865 82.387 70.99 83.885 71.385 85.376C71.516 85.87 71.781 86.319 71.92 86.811C72.1 87.448 72.059 88.124 72.017 88.784C71.737 93.17 71.457 97.556 71.177 101.942C71.08 103.464 70.989 105.037 71.507 106.472C72.652 109.645 76.556 111.608 76.673 114.98C78.034 115.524 79.774 114.509 79.97 113.057C79.146 112.86 79.219 111.629 79.671 110.912C80.123 110.196 80.79 109.42 80.517 108.618C80.355 108.142 79.872 107.762 79.916 107.261C79.965 106.71 80.597 106.444 80.971 106.036C81.563 105.391 81.485 104.406 81.496 103.531C81.534 100.593 83.081 96.088 84.48 93.504C84.819 92.877 86.532 93.688 87.221 93.504C88.342 93.204 89.095 93.431 91.144 93.504C102.488 93.937 111.027 95.105 117.509 100.519C116.749 99.727 118.892 95.317 118.558 94.272C118.224 93.227 116.182 88.742 116.901 87.549C117.62 86.356 118.842 85.182 118.498 83.832C118.056 82.095 115.312 81.625 115.12 79.843C114.937 78.137 117.343 76.92 117.05 75.23C116.798 73.774 114.696 73.186 114.508 71.72C114.303 70.121 116.555 68.609 115.694 67.246C115.428 66.825 114.931 66.609 114.61 66.229C113.286 64.663 115.677 61.766 114.162 60.384C113.529 59.807 112.468 59.851 111.914 59.198C110.866 57.964 112.695 55.837 111.733 54.534C111.1 53.677 109.671 53.824 108.98 53.013C108.167 52.06 108.91 50.532 108.444 49.369C107.819 47.809 105.482 47.74 104.524 46.36C103.742 45.234 104.141 43.619 103.471 42.423C103.129 41.812 102.544 41.378 102.114 40.826C101.266 39.737 101.083 38.292 100.712 36.962C98.749 29.921 92.849 23.471 86.113 20.633C82.617 19.16 77.685 20.258 74.118 18.966C70.774 17.755 66.741 16.715 63.91 18.869C62.375 15.771 58.223 15.238 54.77 15.404C52.666 15.505 50.545 15.72 48.553 16.403C43.248 18.223 39.632 23.026 36.35 27.574C35.739 28.421 35.123 29.275 34.689 30.225C34.386 30.887 34.175 31.589 33.876 32.252C33.52 33.041 33.042 33.767 32.407 34.676C31.724 35.85 30.83 36.901 29.781 37.763C29.123 38.304 28.341 38.881 28.268 39.729C28.212 40.386 28.618 41.023 28.539 41.678C28.438 42.515 27.623 43.04 26.956 43.555C26.289 44.07 25.651 44.941 26.04 45.689C26.149 45.899 26.329 46.067 26.422 46.284C26.675 46.875 26.206 47.505 25.787 47.992C25.368 48.479 24.95 49.17 25.054 49.463H25.057Z" fill="#010101" stroke="#010101" stroke-width="1.5" stroke-linecap="round" stroke-linejoin="round"/>
<path d="M49.665 51.048C48.27 54.327 46.876 57.607 45.481 60.886C47.252 61.254 49.024 61.622 50.795 61.99" fill="white"/>
<path d="M49.665 51.048C48.27 54.327 46.876 57.607 45.481 60.886C47.252 61.254 49.024 61.622 50.795 61.99" stroke="#010101" stroke-width="1.5" stroke-linecap="round" stroke-linejoin="round"/>
<path d="M51.235 79.029C54.915 79.107 58.763 79.149 62.057 77.505L51.235 79.029Z" fill="white"/>
<path d="M51.235 79.029C54.915 79.107 58.763 79.149 62.057 77.505" stroke="#010101" stroke-width="1.5" stroke-linecap="round" stroke-linejoin="round"/>
<path d="M124.659 109.213C118.655 97.241 109.999 93.965 87.227 93.533L88.719 102.25C88.92 103.367 89.39 107.386 89.696 109.64C90.116 112.736 87.816 115.536 84.697 115.719L51.723 115.932C48.809 116.102 46.294 113.911 46.065 111.001C45.943 109.451 45.82 107.883 45.739 106.804L44.454 94.394C36.852 95.335 29.847 96.478 24.927 97.757C9.55599 101.765 5.92699 121.571 2.78299 130.66C2.16099 132.466 1.72899 134.183 1.45099 135.817H91.603L94.001 135.746L135.116 135.817C135.116 135.817 130.308 120.476 124.66 109.214L124.659 109.213Z" fill="#55D087" stroke="#010101" stroke-width="1.5" stroke-linecap="round" stroke-linejoin="round"/>
<path d="M87.227 93.533L87.221 93.504" stroke="#010101" stroke-width="1.5" stroke-linecap="round" stroke-linejoin="round"/>
</g>
<defs>
<clipPath id="clip0_35_3802">
<rect width="136.566" height="136.566" fill="white"/>
</clipPath>
</defs>
</svg>
