<svg width="137" height="137" viewBox="0 0 137 137" fill="none" xmlns="http://www.w3.org/2000/svg">
<g clip-path="url(#clip0_35_3813)">
<path d="M135.816 0.75H0.75V135.816H135.816V0.75Z" fill="white" stroke="#010101" stroke-width="1.5" stroke-linecap="round" stroke-linejoin="round"/>
<path d="M19.649 90.103C23.676 87.096 25.382 81.935 26.494 77.034C29.303 64.651 30.725 52.43 33.553 40.051C34.684 35.101 36.236 30.142 39.179 26.004C42.122 21.867 46.583 19.817 52.684 18.141C65.255 15.93 76.378 14.792 86.141 23.014C89.439 25.791 92.356 29.107 94.2 33.005C95.716 36.21 96.471 39.719 97.042 43.219C98.183 50.208 98.048 61.161 99.303 68.13C100.558 75.099 102.674 82.057 106.771 87.833C79.704 96.168 50.627 97.888 19.648 90.104L19.649 90.103Z" fill="#010101" stroke="#010101" stroke-width="1.5" stroke-linecap="round" stroke-linejoin="round"/>
<path d="M88.465 102.118C81.391 105.453 73.798 110.69 69.465 117.24C62.867 110.422 54.4 106.549 44.806 106.727L44.362 94.23C47.477 93.844 48.687 93.493 51.897 93.172C51.731 83.789 52.015 78.846 51.585 78.846C45.651 78.858 41.921 75.9 39.912 72.506C38.664 70.402 38.402 67.864 38.343 65.42C38.076 54.364 39.606 46.631 43.357 36.199C45.604 29.952 50.294 29.096 52.333 29.096C51.887 32.163 53.395 37.121 55.095 39.719C59.731 46.822 66.935 48.982 75.292 51.188C75.53 50.059 77.26 48.18 78.395 47.972C88.875 46.052 87.335 67.13 76.219 63.112C76.924 75.03 76.833 83.028 77.637 93.407C79.313 93.353 82.829 93.33 84.143 93.33C85.225 93.33 86.283 93.342 87.305 93.36L88.467 102.119L88.465 102.118Z" fill="white" stroke="#010101" stroke-width="1.5" stroke-linecap="round" stroke-linejoin="round"/>
<path d="M49.596 49.695C48.196 52.987 46.796 56.279 45.396 59.572C47.174 59.941 48.953 60.311 50.731 60.68" fill="white"/>
<path d="M49.596 49.695C48.196 52.987 46.796 56.279 45.396 59.572C47.174 59.941 48.953 60.311 50.731 60.68" stroke="#010101" stroke-width="1.5" stroke-linecap="round" stroke-linejoin="round"/>
<path d="M51.167 78.805C54.862 78.883 58.725 78.925 62.031 77.275L51.167 78.805Z" fill="white"/>
<path d="M51.167 78.805C54.862 78.883 58.725 78.925 62.031 77.275" stroke="#010101" stroke-width="1.5" stroke-linecap="round" stroke-linejoin="round"/>
<path d="M135.378 135.816L92.101 135.745L87.301 93.359C110.163 93.793 118.853 97.089 124.88 109.108C130.551 120.414 135.378 135.816 135.378 135.816Z" fill="#7B5FF1" stroke="#010101" stroke-width="1.5" stroke-linecap="round" stroke-linejoin="round"/>
<path d="M45.844 135.816H1.18701C1.46601 134.175 1.90001 132.452 2.52401 130.639C5.68001 121.515 9.32401 101.631 24.755 97.607C29.695 96.323 36.727 95.176 44.359 94.231L45.842 135.817L45.844 135.816Z" fill="#7B5FF1" stroke="#010101" stroke-width="1.5" stroke-linecap="round" stroke-linejoin="round"/>
<path d="M92.102 135.744L45.844 135.815C45.844 135.815 45.538 116.433 44.806 106.726C54.4 106.548 62.865 110.421 69.463 117.239C73.796 110.688 82.642 103.372 88.24 102.168C89.766 113.637 92.102 135.743 92.102 135.743V135.744Z" fill="#E3E3FF" stroke="#010101" stroke-width="1.5" stroke-linecap="round" stroke-linejoin="round"/>
<path d="M87.301 93.359L87.295 93.329" stroke="#010101" stroke-width="1.5" stroke-linecap="round" stroke-linejoin="round"/>
</g>
<defs>
<clipPath id="clip0_35_3813">
<rect width="136.566" height="136.566" fill="white"/>
</clipPath>
</defs>
</svg>
