<svg width="137" height="137" viewBox="0 0 137 137" fill="none" xmlns="http://www.w3.org/2000/svg">
<g clip-path="url(#clip0_35_3661)">
<path d="M135.816 0.75H0.75V135.816H135.816V0.75Z" fill="white" stroke="#010101" stroke-width="1.5" stroke-linecap="round" stroke-linejoin="round"/>
<path d="M44.186 44.653C42.153 36.98 43.314 28.512 47.336 21.669C48.15 20.283 49.805 18.794 51.132 19.701C52.436 20.592 52.007 23.085 53.489 23.633C53.91 23.789 54.377 23.723 54.822 23.662C60.425 22.892 66.118 23.192 71.75 23.694C79.157 24.355 87.411 25.87 91.684 31.957C94.734 36.302 94.978 42.021 94.352 47.292C93.206 56.933 89.477 66.255 83.658 74.028C74.613 83.724 73.61 79.233 68.283 76.563C64.006 74.419 62.081 58.501 57.845 56.278C52.288 53.363 47.825 48.416 44.186 44.653Z" fill="#010101" stroke="#010101" stroke-width="1.5" stroke-linecap="round" stroke-linejoin="round"/>
<path d="M56.087 79.096C55.514 84.954 55.106 90.827 54.862 96.708C64.589 98.107 72.571 97.72 82.161 95.57C81.991 85.675 82.144 73.772 81.62 63.889C85.609 62.731 87.444 60.899 87.452 56.745C87.458 53.463 84.248 48.403 80.689 50.074C78.184 51.251 77.376 54.229 77.041 56.87C76.963 57.483 76.448 57.946 75.83 57.96L73.13 58.023C72.447 58.039 71.878 57.511 71.846 56.828C71.643 52.38 71.154 44.478 70.325 41.239C69.691 38.762 68.595 35.832 66.078 35.382C64.051 35.019 61.598 36.505 58.064 36.505C54.415 36.505 52.823 34.569 49.348 35.412C46.556 36.089 43.897 39.05 43.414 41.882C41.775 51.507 40.044 64.333 43.38 70.87C45.712 75.44 49.565 79.781 56.087 79.094V79.096Z" fill="white" stroke="#010101" stroke-width="1.5" stroke-linecap="round" stroke-linejoin="round"/>
<path d="M50.627 50.885C49.563 54.073 48.251 57.179 46.707 60.165C48.166 61.127 50.036 61.117 51.783 61.074" stroke="#010101" stroke-width="1.5" stroke-linecap="round" stroke-linejoin="round"/>
<path d="M56.272 79.142C59.132 79.132 61.842 77.915 64.362 76.563" stroke="#010101" stroke-width="1.5" stroke-linecap="round" stroke-linejoin="round"/>
<path d="M103.382 135.763L135.115 135.816C135.115 135.816 130.307 118.475 124.659 107.213C118.714 95.358 110.052 92.032 87.775 91.549C86.325 91.415 85.229 91.516 85.229 91.516L70.9 96.62L54.009 91.626C54.009 91.626 53.156 92.268 51.93 93.324L51.756 91.87C44.154 92.811 29.848 94.477 24.928 95.756C9.557 99.764 5.928 121.57 2.784 130.658C2.162 132.464 1.73 134.181 1.452 135.815H57.029H103.39C103.388 135.798 103.384 135.78 103.382 135.763Z" fill="#55D087" stroke="#010101" stroke-width="1.5" stroke-linecap="round" stroke-linejoin="round"/>
<path d="M87.118 91.533L87.112 91.504" stroke="#010101" stroke-width="1.5" stroke-linecap="round" stroke-linejoin="round"/>
<path d="M68.37 94.517C65.556 91.69 62.411 89.194 59.018 87.097C58.131 86.549 57.184 86.014 56.143 85.951C54.134 85.83 52.216 88.884 50.982 90.473C50.64 90.913 50.296 91.389 50.236 91.942C50.167 92.573 50.477 93.178 50.788 93.732C52.696 97.132 55.226 98.902 57.8 101.83C58.458 102.579 59.264 103.368 60.261 103.351C61.01 103.339 61.665 102.866 62.24 102.385C64.633 100.381 66.6 97.87 68.37 94.517Z" fill="white" stroke="#010101" stroke-width="1.5" stroke-linecap="round" stroke-linejoin="round"/>
<path d="M74.454 101.967C72.378 99.407 70.127 96.728 68.129 94.221C71.241 91.85 81.069 84.027 82.571 84.69C83.456 85.081 86.543 88.409 87.719 91.478C84.615 94.634 80.348 100.309 77.103 102.401C76.239 102.958 75.101 102.766 74.454 101.967Z" fill="white" stroke="#010101" stroke-width="1.5" stroke-linecap="round" stroke-linejoin="round"/>
</g>
<defs>
<clipPath id="clip0_35_3661">
<rect width="136.566" height="136.566" fill="white"/>
</clipPath>
</defs>
</svg>
