<svg width="137" height="137" viewBox="0 0 137 137" fill="none" xmlns="http://www.w3.org/2000/svg">
<g clip-path="url(#clip0_35_3677)">
<path d="M135.816 0.75H0.75V135.816H135.816V0.75Z" fill="white" stroke="#010101" stroke-width="1.5" stroke-linecap="round" stroke-linejoin="round"/>
<path d="M41.247 39.842C40.551 29.746 48.394 24.999 50.896 23.946C57.694 21.084 65.421 20.887 72.626 22.467C77.654 23.57 82.661 25.625 86.141 29.419C89.329 32.895 90.973 37.566 91.55 42.247C91.976 45.707 91.861 49.228 91.278 52.666C89.729 61.813 84.769 70.342 77.586 76.212C76.864 76.802 75.982 77.4 75.073 77.191C74.515 77.063 74.072 76.652 73.672 76.242C70.309 72.795 68.082 68.432 65.696 64.248C59.829 53.96 52.412 44.103 41.248 39.841L41.247 39.842Z" fill="#010101" stroke="#010101" stroke-width="1.5" stroke-linecap="round" stroke-linejoin="round"/>
<path d="M78.585 63.999C79.869 64.907 81.838 64.851 83.081 64.568C86.931 63.692 87.012 57.957 86.285 56.17C85.558 54.383 82.507 48.851 77.7 51.704C76.779 52.251 76.27 53.294 75.695 53.939C75.06 50.953 75.375 49.859 75.658 46.82C75.941 43.781 74.083 33.697 68.475 32.652C65.088 32.021 61.677 33.044 58.232 33.072C53.959 33.107 49.503 30.947 45.578 32.636C42.143 34.114 41.775 36.356 40.881 39.986C38.921 47.941 39.023 56.294 40.202 64.402C40.63 67.342 41.217 70.319 42.663 72.914C45.167 77.409 50.296 80.308 55.438 80.135C55.859 84.627 54.986 88.613 55.407 93.105C55.619 95.373 57.223 98.36 58.879 99.924C60.595 101.546 63.205 101.664 65.566 101.611C69.721 101.518 73.871 101.186 77.988 100.617C78.899 100.491 79.855 100.334 80.57 99.756C81.85 98.722 80.167 96.196 80.055 94.555C79.373 84.504 79.279 73.201 78.585 63.999Z" fill="white" stroke="#010101" stroke-width="1.5" stroke-linecap="round" stroke-linejoin="round"/>
<path d="M68.053 77.854C64.167 79.801 59.737 80.647 55.407 80.27L68.053 77.854Z" fill="white"/>
<path d="M68.053 77.854C64.167 79.801 59.737 80.647 55.407 80.27" stroke="#010101" stroke-width="1.5" stroke-linecap="round" stroke-linejoin="round"/>
<path d="M52.219 50.053C51.29 52.025 50.412 54.021 49.585 56.038C49.374 56.553 49.163 57.084 49.153 57.64C49.138 58.473 50.012 59.634 52.943 61.22" fill="white"/>
<path d="M52.219 50.053C51.29 52.025 50.412 54.021 49.585 56.038C49.374 56.553 49.163 57.084 49.153 57.64C49.138 58.473 50.012 59.634 52.943 61.22" stroke="#010101" stroke-width="1.5" stroke-linecap="round" stroke-linejoin="round"/>
<path d="M48.402 47.724C47.26 47.072 42.302 46.959 41.135 47.255C39.969 47.551 38.878 48.365 38.524 49.515C38.388 49.956 38.364 50.422 38.351 50.883C38.322 51.88 38.351 52.936 38.881 53.781C39.539 54.832 40.814 55.312 42.029 55.557C43.609 55.875 45.245 55.912 46.838 55.665C47.549 55.555 48.318 55.429 48.85 54.945C50.471 53.472 51.049 49.235 48.402 47.724Z" fill="white" stroke="#010101" stroke-width="1.5" stroke-linecap="round" stroke-linejoin="round"/>
<path d="M64.999 47.724C63.857 47.072 58.899 46.959 57.732 47.255C56.566 47.551 55.475 48.365 55.121 49.515C54.985 49.956 54.961 50.422 54.948 50.883C54.919 51.88 54.948 52.936 55.478 53.781C56.136 54.832 57.411 55.312 58.626 55.557C60.206 55.875 61.842 55.912 63.435 55.665C64.146 55.555 64.915 55.429 65.447 54.945C67.068 53.472 67.646 49.235 64.999 47.724Z" fill="white" stroke="#010101" stroke-width="1.5" stroke-linecap="round" stroke-linejoin="round"/>
<path d="M66.679 50.053C71 50.053 78.455 50.186 82.74 50.601C83.542 50.679 84.466 50.912 84.785 51.652" stroke="#010101" stroke-width="1.5" stroke-linecap="round" stroke-linejoin="round"/>
<path d="M55.186 49.298C52.944 47.429 49.682 49.075 49.699 49.057L55.186 49.298Z" fill="white"/>
<path d="M55.186 49.298C52.944 47.429 49.682 49.075 49.699 49.057" stroke="#010101" stroke-width="1.5" stroke-linecap="round" stroke-linejoin="round"/>
<path d="M103.388 135.815H45.128C44.538 126.665 43.928 115.525 43.168 106.425C42.638 100.165 54.008 91.625 54.008 91.625L70.899 96.619L85.228 91.515C85.228 91.515 92.718 90.815 94.498 95.475C99.078 107.475 101.768 122.445 103.388 135.815Z" fill="#E3E3FF" stroke="#010101" stroke-width="1.5" stroke-linecap="round" stroke-linejoin="round"/>
<path d="M92.48 135.745L135.115 135.816C135.115 135.816 130.307 118.475 124.659 107.213C118.655 95.241 109.89 91.965 87.118 91.533L92.48 135.745Z" fill="#7B5FF1" stroke="#010101" stroke-width="1.5" stroke-linecap="round" stroke-linejoin="round"/>
<path d="M57.027 135.816H1.45099C1.72899 134.182 2.16099 132.465 2.78299 130.659C5.92699 121.57 9.55699 99.765 24.927 95.756C29.847 94.477 44.153 92.811 51.755 91.87L57.027 135.816Z" fill="#7B5FF1" stroke="#010101" stroke-width="1.5" stroke-linecap="round" stroke-linejoin="round"/>
<path d="M87.118 91.533L87.112 91.504" stroke="#010101" stroke-width="1.5" stroke-linecap="round" stroke-linejoin="round"/>
<path d="M93.821 92.348C97.015 97.576 100.485 102.635 104.213 107.498C102.323 108.845 100.25 109.936 98.07 110.73C100.042 112.584 102.326 114.106 104.934 115.422C101.676 120.786 98.937 129.021 97.451 135.752" stroke="#010101" stroke-width="1.5" stroke-linecap="round" stroke-linejoin="round"/>
<path d="M46.065 93.104C43.244 97.395 40.609 101.809 38.17 106.328C39.652 107.944 41.427 109.291 43.387 110.294C41.541 112.006 39.387 113.385 37.443 114.474C41.04 120.905 44.257 128.414 47.076 135.814" stroke="#010101" stroke-width="1.5" stroke-linecap="round" stroke-linejoin="round"/>
<path d="M74.838 135.815H62.968C64.368 123.795 65.598 114.005 66.118 111.885C66.408 110.715 66.728 109.505 66.488 108.325C66.338 107.625 65.998 106.985 65.658 106.355C64.408 104.015 63.158 101.675 61.898 99.325C64.078 97.295 66.508 95.775 69.088 94.555C71.588 96.435 73.878 98.585 75.908 100.965C76.098 102.185 71.078 105.545 70.718 107.815C70.628 108.345 72.508 120.685 74.838 135.815Z" fill="#FF8B37" stroke="#010101" stroke-width="1.5" stroke-linecap="round" stroke-linejoin="round"/>
<path d="M68.37 94.517C65.556 91.69 62.411 89.194 59.018 87.097C58.131 86.549 57.184 86.014 56.143 85.951C54.134 85.83 52.216 88.884 50.982 90.473C50.64 90.913 50.296 91.389 50.236 91.942C50.167 92.573 50.477 93.178 50.788 93.732C52.696 97.132 55.226 98.902 57.8 101.83C58.458 102.579 59.264 103.368 60.261 103.351C61.01 103.339 61.665 102.866 62.24 102.385C64.633 100.381 66.6 97.87 68.37 94.517Z" fill="white" stroke="#010101" stroke-width="1.5" stroke-linecap="round" stroke-linejoin="round"/>
<path d="M74.454 101.967C72.378 99.407 70.127 96.728 68.129 94.221C71.241 91.85 81.069 84.027 82.571 84.69C83.456 85.081 86.543 88.409 87.719 91.478C84.615 94.634 80.348 100.309 77.103 102.401C76.239 102.958 75.101 102.766 74.454 101.967Z" fill="white" stroke="#010101" stroke-width="1.5" stroke-linecap="round" stroke-linejoin="round"/>
</g>
<defs>
<clipPath id="clip0_35_3677">
<rect width="136.566" height="136.566" fill="white"/>
</clipPath>
</defs>
</svg>
