<svg width="138" height="138" viewBox="0 0 138 138" fill="none" xmlns="http://www.w3.org/2000/svg">
<g clip-path="url(#clip0_35_3863)">
<path d="M68.975 136.386C106.272 136.386 136.508 106.15 136.508 68.853C136.508 31.5556 106.272 1.32001 68.975 1.32001C31.6775 1.32001 1.44196 31.5556 1.44196 68.853C1.44196 106.15 31.6775 136.386 68.975 136.386Z" fill="white" stroke="#010101" stroke-width="1.5" stroke-linecap="round" stroke-linejoin="round"/>
<path d="M44.878 45.224C42.845 37.551 44.006 29.083 48.028 22.24C48.842 20.854 50.497 19.365 51.824 20.272C53.128 21.163 52.699 23.656 54.181 24.204C54.602 24.36 55.069 24.294 55.514 24.233C61.117 23.463 66.81 23.763 72.442 24.265C79.849 24.926 88.103 26.441 92.376 32.528C95.426 36.873 95.67 42.592 95.044 47.863C93.898 57.504 90.169 66.826 84.35 74.599C75.305 84.295 74.302 79.804 68.975 77.134C64.698 74.99 62.773 59.072 58.537 56.849C52.98 53.934 48.517 48.987 44.878 45.224Z" fill="#010101" stroke="#010101" stroke-width="1.5" stroke-linecap="round" stroke-linejoin="round"/>
<path d="M56.779 79.667C56.206 85.525 55.798 91.398 55.554 97.279C65.281 98.678 73.263 98.291 82.853 96.141C82.683 86.246 82.836 74.343 82.312 64.46C86.301 63.302 88.136 61.47 88.144 57.316C88.15 54.034 84.94 48.974 81.381 50.645C78.876 51.822 78.068 54.8 77.733 57.441C77.655 58.054 77.14 58.517 76.522 58.531L73.822 58.594C73.139 58.61 72.57 58.082 72.538 57.399C72.335 52.951 71.846 45.049 71.017 41.81C70.383 39.333 69.287 36.403 66.77 35.953C64.743 35.59 62.29 37.076 58.756 37.076C55.107 37.076 53.515 35.14 50.04 35.983C47.248 36.66 44.589 39.621 44.106 42.453C42.467 52.078 40.736 64.904 44.072 71.441C46.404 76.011 50.257 80.352 56.779 79.665V79.667Z" fill="white" stroke="#010101" stroke-width="1.5" stroke-linecap="round" stroke-linejoin="round"/>
<path d="M51.319 51.456C50.255 54.644 48.943 57.75 47.399 60.736C48.858 61.698 50.728 61.688 52.475 61.645" stroke="#010101" stroke-width="1.5" stroke-linecap="round" stroke-linejoin="round"/>
<path d="M56.964 79.713C59.824 79.703 62.534 78.486 65.054 77.134" stroke="#010101" stroke-width="1.5" stroke-linecap="round" stroke-linejoin="round"/>
<path d="M124.846 106.802C112.696 124.662 92.206 136.382 68.976 136.382C45.586 136.382 24.986 124.502 12.866 106.442C15.906 101.682 19.966 97.802 25.616 96.332C30.536 95.052 44.846 93.382 52.446 92.442L52.626 93.892C53.846 92.842 54.696 92.192 54.696 92.192L71.596 97.192L85.916 92.082C85.916 92.082 87.016 91.982 88.466 92.122C110.116 92.592 118.906 95.752 124.846 106.802Z" fill="#55D087" stroke="#010101" stroke-width="1.5" stroke-linecap="round" stroke-linejoin="round"/>
<path d="M87.81 92.104L87.804 92.075" stroke="#010101" stroke-width="1.5" stroke-linecap="round" stroke-linejoin="round"/>
<path d="M69.062 95.088C66.248 92.261 63.103 89.765 59.71 87.668C58.823 87.12 57.876 86.585 56.835 86.522C54.826 86.401 52.908 89.455 51.674 91.044C51.332 91.484 50.988 91.96 50.928 92.513C50.859 93.144 51.169 93.749 51.48 94.303C53.388 97.703 55.918 99.473 58.492 102.401C59.15 103.15 59.956 103.939 60.953 103.922C61.702 103.91 62.357 103.437 62.932 102.956C65.325 100.952 67.292 98.441 69.062 95.088Z" fill="white" stroke="#010101" stroke-width="1.5" stroke-linecap="round" stroke-linejoin="round"/>
<path d="M75.146 102.538C73.07 99.978 70.819 97.299 68.821 94.792C71.933 92.421 81.761 84.598 83.263 85.261C84.148 85.652 87.235 88.98 88.411 92.049C85.307 95.205 81.04 100.88 77.795 102.972C76.931 103.529 75.793 103.337 75.146 102.538Z" fill="white" stroke="#010101" stroke-width="1.5" stroke-linecap="round" stroke-linejoin="round"/>
</g>
<defs>
<clipPath id="clip0_35_3863">
<rect width="136.566" height="136.566" fill="white" transform="translate(0.691956 0.570007)"/>
</clipPath>
</defs>
</svg>
