<svg width="137" height="138" viewBox="0 0 137 138" fill="none" xmlns="http://www.w3.org/2000/svg">
<g clip-path="url(#clip0_35_3879)">
<path d="M68.5409 136.386C105.838 136.386 136.074 106.15 136.074 68.853C136.074 31.5556 105.838 1.32001 68.5409 1.32001C31.2435 1.32001 1.00793 31.5556 1.00793 68.853C1.00793 106.15 31.2435 136.386 68.5409 136.386Z" fill="white" stroke="#010101" stroke-width="1.5" stroke-linecap="round" stroke-linejoin="round"/>
<path d="M102.396 127.3C92.6759 132.94 81.4259 136.23 69.4159 136.38H67.6759C59.7459 136.28 52.1559 134.82 45.1159 132.21C44.6159 123.98 44.0759 114.75 43.4259 106.99C42.8959 100.73 41.2859 93.67 54.2659 92.19C58.2759 102.22 80.3859 101.91 85.4859 92.08C89.3259 92.45 92.9759 91.38 94.7559 96.04C98.3159 105.38 100.736 116.52 102.396 127.3Z" fill="#010101" stroke="#010101" stroke-width="1.5" stroke-linecap="round" stroke-linejoin="round"/>
<path d="M39.0369 48.105C37.6739 47.553 37.0719 45.935 36.9799 44.467C36.8879 42.999 37.1439 41.5 36.8099 40.068C36.5989 39.167 36.1629 38.336 35.8769 37.455C34.7229 33.908 36.3799 29.658 39.6299 27.828C40.3759 27.408 41.2109 27.088 41.7779 26.447C42.6269 25.487 42.7269 23.967 43.7399 23.183C44.9579 22.239 46.7019 22.878 48.2409 22.814C49.5159 22.761 50.7039 22.197 51.9089 21.778C55.7419 20.444 59.9049 20.543 63.9619 20.656C65.6019 20.702 67.2719 20.753 68.8209 21.291C69.7059 21.599 70.5339 22.059 71.4259 22.346C72.6209 22.73 73.8929 22.79 75.1259 23.027C78.1859 23.615 80.9199 25.268 83.5799 26.892C85.4979 28.063 87.4889 29.306 88.6489 31.23C89.5259 32.686 89.8459 34.405 90.5469 35.954C91.1109 37.199 91.9149 38.319 92.5429 39.533C94.2859 42.904 93.5639 46.809 93.8349 50.594C93.9319 51.948 94.0289 53.313 93.8549 54.659C93.7359 55.579 93.4919 56.478 93.2359 57.369C91.4459 63.594 84.6439 73.391 81.6169 79.118C81.4189 79.492 81.1989 79.885 80.8269 80.086C80.1739 80.438 79.3799 80.057 78.7509 79.664C73.5779 76.437 74.6039 68.173 71.5399 62.902C69.1019 58.707 67.2399 53.778 63.0749 51.289C57.7059 48.081 50.8849 50.227 44.6389 49.925C43.5109 49.87 42.2029 49.386 39.0389 48.104L39.0369 48.105Z" fill="#010101" stroke="#010101" stroke-width="1.5" stroke-linecap="round" stroke-linejoin="round"/>
<path d="M82.3239 92.15C82.3239 92.15 82.1549 73.766 81.5259 66.793C82.9739 66.828 86.9269 65.957 87.1809 61.035C87.3199 58.332 84.9469 53.913 82.1049 53.866C76.7689 53.779 76.8259 59.161 76.1949 61.663C74.8379 61.641 74.5039 61.85 73.1459 61.827C72.9489 57.361 73.1849 52.921 71.8279 48.662C70.6159 44.858 68.6389 40.875 64.9669 39.31C61.1829 37.698 56.8419 39.147 52.7409 38.834C49.7319 38.604 46.5259 37.447 43.8339 38.811C41.0319 40.231 40.1039 43.746 39.7849 46.871C39.3849 50.8 37.7649 66.545 43.2019 75.61C46.2359 80.668 52.6589 83.953 58.3079 82.256L58.2109 91.91C55.0139 92.23 55.1179 92.056 52.0149 92.441L50.9599 96.546C46.7489 119.507 95.2379 122.923 91.2019 95.22L87.3769 92.104C86.3589 92.086 84.5179 92.098 82.8479 92.151" fill="white"/>
<path d="M82.3239 92.15C82.3239 92.15 82.1549 73.766 81.5259 66.793C82.9739 66.828 86.9269 65.957 87.1809 61.035C87.3199 58.332 84.9469 53.913 82.1049 53.866C76.7689 53.779 76.8259 59.161 76.1949 61.663C74.8379 61.641 74.5039 61.85 73.1459 61.827C72.9489 57.361 73.1849 52.921 71.8279 48.662C70.6159 44.858 68.6389 40.875 64.9669 39.31C61.1829 37.698 56.8419 39.147 52.7409 38.834C49.7319 38.604 46.5259 37.447 43.8339 38.811C41.0319 40.231 40.1039 43.746 39.7849 46.871C39.3849 50.8 37.7649 66.545 43.2019 75.61C46.2359 80.668 52.6589 83.953 58.3079 82.256L58.2109 91.91C55.0139 92.23 55.1179 92.056 52.0149 92.441L50.9599 96.546C46.7489 119.507 95.2379 122.923 91.2019 95.22L87.3769 92.104C86.3589 92.086 84.5179 92.098 82.8479 92.151" stroke="#010101" stroke-width="1.5" stroke-linecap="round" stroke-linejoin="round"/>
<path d="M52.8389 53.634L50.9789 62.68C50.8939 63.091 50.8359 63.588 51.1479 63.868C51.3149 64.017 51.5479 64.062 51.7689 64.098C53.1209 64.319 54.4889 64.44 55.8589 64.459" stroke="#010101" stroke-width="1.5" stroke-linecap="round" stroke-linejoin="round"/>
<path d="M65.5579 78.295C63.4619 80.726 60.8539 81.761 57.5169 82.453" stroke="#010101" stroke-width="1.5" stroke-linecap="round" stroke-linejoin="round"/>
<path d="M124.406 106.8C116.626 118.25 105.396 127.19 92.2259 132.12L87.3759 92.1C109.516 92.52 118.416 95.63 124.406 106.8Z" fill="#E3E3FF" stroke="#010101" stroke-width="1.5" stroke-linecap="round" stroke-linejoin="round"/>
<path d="M57.1759 135.43C38.5659 132.28 22.5459 121.52 12.4259 106.45C15.4659 101.68 19.5359 97.8 25.1859 96.33C30.1059 95.05 44.4159 93.38 52.0159 92.44L57.1759 135.43Z" fill="#E3E3FF" stroke="#010101" stroke-width="1.5" stroke-linecap="round" stroke-linejoin="round"/>
<path d="M87.3759 92.102L87.3699 92.073" stroke="#010101" stroke-width="1.5" stroke-linecap="round" stroke-linejoin="round"/>
</g>
<defs>
<clipPath id="clip0_35_3879">
<rect width="136.566" height="136.566" fill="white" transform="translate(0.257935 0.570007)"/>
</clipPath>
</defs>
</svg>
