<svg width="137" height="138" viewBox="0 0 137 138" fill="none" xmlns="http://www.w3.org/2000/svg">
<g clip-path="url(#clip0_35_3969)">
<path d="M135.952 68.86C135.952 83.32 131.412 96.71 123.672 107.69C111.452 125.05 91.2621 136.39 68.4221 136.39C45.3421 136.39 24.9721 124.82 12.7821 107.16C5.28208 96.28 0.88208 83.08 0.88208 68.86C0.88208 31.56 31.1221 1.32001 68.4221 1.32001C105.722 1.32001 135.952 31.56 135.952 68.86Z" fill="white" stroke="#010101" stroke-width="1.5" stroke-linecap="round" stroke-linejoin="round"/>
<path d="M82.6021 23.862C83.1081 24.175 84.1261 24.037 84.4291 24.549C84.6811 24.171 85.3071 24.262 85.6021 24.607C85.8971 24.952 85.9511 25.435 85.9931 25.887C86.4931 25.136 87.9821 25.04 88.8021 25.417C90.9671 26.414 89.7181 26.934 90.4171 27.505C91.5371 25.956 94.1851 27.844 93.3311 29.886C93.3031 29.716 93.4361 29.537 93.6061 29.514C96.2921 29.908 95.9181 31.295 95.7671 32.989C96.8781 32.612 97.7651 33.398 97.8051 34.31C97.8591 33.7 98.7131 33.455 99.2481 33.753C99.7831 34.051 100.056 34.655 100.294 35.22C100.942 35.04 101.639 35.436 102.02 35.991C102.401 36.546 102.536 37.227 102.662 37.888C103.273 37.988 103.817 38.429 104.042 39.006C104.267 39.583 104.163 40.276 103.78 40.762C103.744 40.6 103.975 40.486 104.124 40.558C104.273 40.63 104.346 40.8 104.402 40.956C104.762 41.946 105.006 42.977 105.129 44.023C106.158 45.141 106.225 46.623 105.493 47.582C105.999 48.049 106.005 48.951 105.505 49.425C106.214 49.666 106.454 50.554 106.435 51.303C106.416 52.052 106.256 52.845 106.58 53.52C106.895 54.178 107.649 54.692 107.566 55.417C107.489 56.097 106.723 56.443 106.066 56.633C106.706 56.913 106.99 57.656 107.148 58.336C107.478 59.753 107.548 61.231 107.352 62.673C108.232 63.378 108.648 64.143 108.502 64.833C108.356 65.523 107.669 66.055 106.964 66.022C107.652 66.754 108.152 67.73 108.071 68.732C107.99 69.734 107.197 70.704 106.193 70.755C106.725 71.183 107.177 71.777 107.216 72.458C107.255 73.139 106.744 73.87 106.062 73.88C106.369 74.118 106.675 74.357 106.982 74.595C106.677 75.765 106.152 76.878 105.443 77.857C105.806 78.775 105.946 79.349 105.737 79.784C105.528 80.219 104.991 80.467 104.524 80.346C104.903 80.925 104.89 81.736 104.492 82.303C104.094 82.87 103.336 83.157 102.662 82.997C103.193 83.678 102.871 84.838 102.065 85.148C102.03 86.032 101.58 86.89 100.873 87.421C101.121 87.826 101.032 88.26 100.848 88.465C100.039 89.366 98.9221 89.985 97.7281 90.193C97.8811 90.143 97.9241 90.401 97.8631 90.55C97.4001 91.672 96.2621 92.387 95.0961 92.725C94.4671 92.907 93.8021 93.007 93.2331 93.331C92.3361 93.842 91.8281 94.819 91.3671 95.743C89.5011 97.014 88.2691 99.415 86.6541 101.495C81.5921 108.015 72.9541 110.978 64.6991 110.958C56.4451 110.938 48.4331 108.315 40.7001 105.427C38.5721 104.632 36.4011 103.784 34.7111 102.268C33.0211 100.751 31.8891 98.403 32.4301 96.197C31.8021 95.628 31.3931 95.153 31.2851 94.608C31.1771 94.063 31.3721 93.468 31.7821 93.093C31.2631 93.322 30.5931 93.132 30.2711 92.664C29.9491 92.196 30.0131 91.502 30.4141 91.1C29.9771 91.248 29.4461 90.921 29.3801 90.464C29.3141 90.007 29.7321 89.544 30.1931 89.562C29.5471 89.885 28.7511 89.267 28.6141 88.557C28.4771 87.847 28.7801 87.135 29.0771 86.477C28.3481 86.782 27.0791 85.929 27.1381 84.998C27.1971 84.067 28.0291 83.381 28.8531 82.943C28.1551 83.773 26.5991 83.561 26.1481 82.575C25.6971 81.589 26.5561 80.273 27.6401 80.289C26.7371 80.479 25.7351 79.986 25.3341 79.155C25.7011 78.55 26.3631 78.134 27.0671 78.065C26.1521 78.585 24.8231 78.095 24.4641 77.106C24.1051 76.117 24.8101 74.888 25.8451 74.7C24.8391 74.488 24.0361 73.543 23.9901 72.515C23.9441 71.487 24.6591 70.474 25.6431 70.173C24.6761 69.964 23.9011 69.069 23.8311 68.082C23.7611 67.095 24.4021 66.1 25.3291 65.756C23.8241 65.059 24.1081 62.353 25.7261 61.984C24.4541 61.062 24.7681 58.719 26.2381 58.165C24.6941 57.423 25.0171 54.638 26.6891 54.268C25.5451 53.367 26.0011 51.185 27.4091 50.816C27.0821 50.488 26.7541 50.159 26.4271 49.831C28.8911 48.778 27.7671 44.277 30.1581 43.067C29.4251 41.748 30.3071 39.833 31.7861 39.533C31.1241 38.649 32.0271 36.078 32.7461 35.24C33.7011 34.128 34.4991 34.364 35.4541 33.252C35.1111 32.886 35.7391 30.388 36.0381 29.985C36.9721 28.724 38.6581 29.894 39.8661 28.893C40.8721 28.059 41.0791 25.378 42.2291 24.756C43.3791 24.134 43.9401 25.273 45.1911 24.895C45.6051 23.274 48.0051 22.064 48.9301 23.335C49.2821 19.881 53.4461 20.881 53.1851 22.462C53.5161 21.929 53.5761 20.067 54.2041 20.075C54.8321 20.083 55.4441 20.44 55.7611 20.982C55.7411 20.192 56.3041 19.424 57.0631 19.205C57.8221 18.986 58.7081 19.337 59.1111 20.016C59.1401 19.37 59.6521 18.776 60.2871 18.652C60.9221 18.528 62.4361 18.779 62.7431 19.708C63.3481 17.446 67.2291 19.228 67.2701 19.586C67.4291 18.991 68.1701 18.715 68.7701 18.851C69.3701 18.987 69.8561 19.415 70.3101 19.831C70.8571 19.141 71.6151 18.56 72.4901 18.473C73.3661 18.386 73.7421 19.507 73.9071 20.371C74.4071 19.718 75.2691 19.362 76.0841 19.472C76.8991 19.582 77.7411 20.971 78.0501 21.734C78.7761 21.222 79.7761 21.125 80.5871 21.489C81.3981 21.853 81.9901 22.665 82.6021 23.862Z" fill="#010101" stroke="#010101" stroke-width="1.5" stroke-linecap="round" stroke-linejoin="round"/>
<path d="M40.4991 47.532C41.1481 47.295 41.1161 46.391 41.3301 45.734C41.5441 45.077 42.8231 44.892 42.6671 45.565C41.8781 45.196 41.4971 43.996 42.1531 43.423C42.8091 42.85 44.0601 43.901 43.4551 44.528C42.8851 43.914 42.9681 42.816 43.6241 42.294C44.2801 41.772 45.3681 41.938 45.8381 42.632C45.9191 41.756 45.9991 40.88 46.0801 40.004C46.5251 40.156 46.9701 40.308 47.4151 40.459C48.1021 39.809 48.1301 38.59 47.4751 37.909C46.9111 38.446 48.0811 39.36 48.6501 38.827C49.2191 38.294 48.9471 37.294 48.3751 36.765C47.7411 36.688 47.4131 37.704 47.8981 38.119C48.3841 38.534 49.2101 38.271 49.5271 37.716C49.8441 37.161 49.7481 36.452 49.4751 35.874C50.5451 36.086 51.6591 35.029 51.5041 33.95C51.5541 34.503 52.6181 34.379 52.5401 33.829C52.7371 34.442 52.9331 35.055 53.1301 35.669C52.4761 35.883 52.1011 36.707 52.3691 37.341C52.6371 37.975 53.4901 38.279 54.0991 37.958C53.3891 38.159 52.9231 38.985 53.1181 39.697C53.3131 40.409 54.1351 40.881 54.8491 40.691C54.3231 41.125 54.2091 41.978 54.6041 42.535C54.9991 43.092 55.8421 43.266 56.4251 42.912C56.0151 43.699 56.5521 44.81 57.4241 44.978C58.2961 45.146 59.2071 44.313 59.1181 43.43C58.1811 44.141 58.2221 45.79 59.1941 46.453C60.1661 47.116 61.7161 46.553 62.0361 45.421C60.8801 45.851 60.6431 47.702 61.6541 48.409C62.6651 49.116 64.3221 48.259 64.3291 47.025C63.6221 47.878 64.0251 49.384 65.0641 49.77C66.1031 50.156 67.3911 49.278 67.4121 48.17C66.3211 48.321 65.7321 49.862 66.4441 50.702C67.1561 51.542 68.7721 51.214 69.1011 50.163C68.3541 50.81 68.3301 52.117 69.0521 52.791C69.7741 53.465 71.0761 53.352 71.6711 52.562C71.4651 53.255 71.8501 54.073 72.5151 54.356C73.1801 54.639 74.0361 54.352 74.3941 53.723C73.8831 53.576 73.5171 54.352 73.7931 54.807C74.0691 55.262 74.6421 55.421 75.1611 55.54C75.6801 55.659 76.2531 55.814 76.5331 56.266C76.8161 55.625 77.0991 54.984 77.3821 54.343C77.1501 54.808 77.1911 55.397 77.1871 55.828C78.3981 56.049 79.2651 54.71 80.3731 54.175C81.1811 53.785 82.1301 53.836 83.0141 53.992C83.6911 54.112 84.3761 54.296 84.9331 54.699C85.5801 55.167 85.9941 55.885 86.3591 56.595C86.7961 57.445 87.1961 58.325 87.3851 59.262C87.8011 61.325 87.1101 63.559 85.6641 65.088C84.2181 66.617 80.5251 69.619 78.1281 69.692C79.2151 77.96 79.9781 88.818 80.8981 93.978C84.1831 94.241 88.0191 94.172 91.8851 94.403C94.7021 98.624 96.9921 101.461 96.8611 106.534C96.7171 112.09 93.6871 117.184 90.0641 121.399C88.0741 123.715 85.8351 125.887 83.1231 127.291C80.2311 128.788 76.9441 129.34 73.6981 129.598C64.2861 130.349 54.6961 128.771 46.0211 125.043C43.1241 123.798 40.2681 122.273 38.1361 119.95C35.5191 117.099 34.1891 113.175 34.2381 109.305C34.2871 105.435 35.6601 101.637 37.8541 98.448C38.5451 97.443 39.3451 96.469 40.4121 95.877C41.6241 95.205 43.0561 95.09 44.4381 94.99C47.6191 94.759 50.8001 94.529 54.0131 94.097C53.8451 91.418 53.5731 88.745 53.1921 85.689C46.7081 85.97 40.3491 81.257 38.7321 74.971C38.1681 72.78 38.1321 70.49 38.1781 68.228C38.3201 61.142 39.2281 54.071 40.4981 47.528L40.4991 47.532Z" fill="white" stroke="#010101" stroke-width="1.5" stroke-linecap="round" stroke-linejoin="round"/>
<path d="M46.8411 59.109C45.8201 61.982 44.7981 64.854 43.7771 67.727C45.1271 68.561 46.6691 69.082 48.2481 69.236" stroke="#010101" stroke-width="1.5" stroke-linecap="round" stroke-linejoin="round"/>
<path d="M52.2661 85.771C55.3631 86.086 58.3871 84.866 61.2611 83.67" stroke="#010101" stroke-width="1.5" stroke-linecap="round" stroke-linejoin="round"/>
<path d="M123.672 107.69C111.452 125.05 91.2621 136.39 68.4221 136.39C45.3421 136.39 24.9721 124.82 12.7821 107.16C15.7721 103.05 19.7021 99.73 25.0621 98.33C29.5021 97.17 35.6521 96.13 42.4021 95.24C42.4521 102.39 45.4021 111.28 50.3521 116.08C55.6421 121.19 63.1821 123.88 70.5121 123.27C74.7521 122.91 78.9521 121.46 82.2421 118.76C89.3221 112.96 90.8721 103.68 91.1121 94.22C109.832 95.1 118.052 98.07 123.672 107.69Z" fill="#7B5FF1" stroke="#010101" stroke-width="1.5" stroke-linecap="round" stroke-linejoin="round"/>
<path d="M65.6051 123.18C65.6101 126.946 65.6671 136.387 65.6671 136.387" stroke="#010101" stroke-width="1.5" stroke-linecap="round" stroke-linejoin="round"/>
<path d="M73.4151 129.446C72.8841 129.5 72.3601 129.76 72.0591 130.201C71.7581 130.642 71.7201 131.27 72.0281 131.707C72.3331 132.139 72.8841 132.309 73.3991 132.428C73.5991 132.474 73.8091 132.517 74.0071 132.466C74.1871 132.42 74.3381 132.302 74.4831 132.185C74.7201 131.994 74.9571 131.795 75.1251 131.541C75.2931 131.287 75.3861 130.967 75.3041 130.674C75.2521 130.486 75.1331 130.323 74.9981 130.182C74.7041 129.876 74.3401 129.351 73.4141 129.445L73.4151 129.446Z" stroke="#010101" stroke-width="1.5" stroke-linecap="round" stroke-linejoin="round"/>
</g>
<defs>
<clipPath id="clip0_35_3969">
<rect width="136.57" height="136.57" fill="white" transform="translate(0.13208 0.570007)"/>
</clipPath>
</defs>
</svg>
