<svg width="138" height="137" viewBox="0 0 138 137" fill="none" xmlns="http://www.w3.org/2000/svg">
<g clip-path="url(#clip0_35_3636)">
<path d="M136.42 68.28C136.42 83.04 131.68 96.7 123.65 107.81C119.01 114.23 113.27 119.8 106.71 124.25C96.37 131.25 83.99 135.46 70.64 135.8H70.63C70.05 135.81 69.47 135.82 68.89 135.82C68.34 135.82 67.8 135.81 67.26 135.8H67.15C53.44 135.45 40.74 131.02 30.24 123.67C23.41 118.89 17.5 112.89 12.84 105.97C5.58998 95.21 1.35999 82.24 1.35999 68.28C1.35999 30.99 31.59 0.75 68.89 0.75C106.19 0.75 136.42 30.99 136.42 68.28Z" fill="white" stroke="#010101" stroke-width="1.5" stroke-linecap="round" stroke-linejoin="round"/>
<path d="M20.257 90.105C24.284 87.098 25.99 81.937 27.102 77.036C29.911 64.653 31.333 52.432 34.161 40.053C35.292 35.103 36.844 30.144 39.787 26.006C42.73 21.869 47.191 19.819 53.292 18.143C65.863 15.932 76.986 14.794 86.749 23.016C90.047 25.793 92.964 29.109 94.808 33.007C96.324 36.212 97.079 39.721 97.65 43.221C98.791 50.21 98.656 61.163 99.911 68.132C101.166 75.101 103.282 82.059 107.379 87.835C80.312 96.17 51.235 97.89 20.256 90.106L20.257 90.105Z" fill="#010101" stroke="#010101" stroke-width="1.5" stroke-linecap="round" stroke-linejoin="round"/>
<path d="M89.072 102.12C81.998 105.455 74.405 110.692 70.072 117.242C63.474 110.424 55.007 106.551 45.413 106.729L44.969 94.232C48.084 93.846 49.294 93.495 52.504 93.174C52.338 83.791 52.622 78.848 52.192 78.848C46.258 78.86 42.528 75.902 40.519 72.508C39.271 70.404 39.009 67.866 38.95 65.422C38.683 54.366 40.213 46.633 43.964 36.201C46.211 29.954 50.901 29.098 52.94 29.098C52.494 32.165 54.002 37.123 55.702 39.721C60.338 46.824 67.542 48.984 75.899 51.19C76.137 50.061 77.867 48.182 79.002 47.974C89.482 46.054 87.942 67.132 76.826 63.114C77.531 75.032 77.44 83.03 78.244 93.409C79.92 93.355 83.436 93.332 84.75 93.332C85.832 93.332 86.89 93.344 87.912 93.362L89.074 102.121L89.072 102.12Z" fill="white" stroke="#010101" stroke-width="1.5" stroke-linecap="round" stroke-linejoin="round"/>
<path d="M50.203 49.697C48.803 52.989 47.403 56.281 46.003 59.574C47.781 59.943 49.56 60.313 51.338 60.682" fill="white"/>
<path d="M50.203 49.697C48.803 52.989 47.403 56.281 46.003 59.574C47.781 59.943 49.56 60.313 51.338 60.682" stroke="#010101" stroke-width="1.5" stroke-linecap="round" stroke-linejoin="round"/>
<path d="M51.775 78.807C55.47 78.885 59.333 78.927 62.639 77.277L51.775 78.807Z" fill="white"/>
<path d="M51.775 78.807C55.47 78.885 59.333 78.927 62.639 77.277" stroke="#010101" stroke-width="1.5" stroke-linecap="round" stroke-linejoin="round"/>
<path d="M124.293 106.913C124.083 107.213 123.873 107.513 123.653 107.813C119.013 114.233 113.273 119.803 106.713 124.253C102.243 127.273 97.393 129.783 92.253 131.663L87.913 93.363C109.313 93.763 118.293 96.683 124.293 106.913Z" fill="#7B5FF1" stroke="#010101" stroke-width="1.5" stroke-linecap="round" stroke-linejoin="round"/>
<path d="M46.313 131.953C40.553 129.913 35.163 127.123 30.243 123.673C23.543 118.983 17.733 113.123 13.113 106.373C16.103 102.283 20.023 98.993 25.363 97.603C30.303 96.323 37.333 95.173 44.963 94.233L46.313 131.953Z" fill="#7B5FF1" stroke="#010101" stroke-width="1.5" stroke-linecap="round" stroke-linejoin="round"/>
<path d="M92.283 131.653C92.273 131.653 92.263 131.663 92.253 131.663C85.733 134.083 78.723 135.513 71.433 135.773L66.593 135.783C59.523 135.543 52.723 134.223 46.373 131.973C46.253 125.823 45.943 113.743 45.413 106.733C55.003 106.553 63.473 110.423 70.073 117.243C74.403 110.693 83.253 103.373 88.843 102.173C89.963 110.593 91.523 124.723 92.283 131.653Z" fill="#E3E3FF" stroke="#010101" stroke-width="1.5" stroke-linecap="round" stroke-linejoin="round"/>
<path d="M87.909 93.361L87.903 93.331" stroke="#010101" stroke-width="1.5" stroke-linecap="round" stroke-linejoin="round"/>
</g>
<defs>
<clipPath id="clip0_35_3636">
<rect width="136.56" height="136.57" fill="white" transform="translate(0.609985)"/>
</clipPath>
</defs>
</svg>
