<svg width="137" height="137" viewBox="0 0 137 137" fill="none" xmlns="http://www.w3.org/2000/svg">
<g clip-path="url(#clip0_35_3649)">
<path d="M135.816 0.75H0.75V135.816H135.816V0.75Z" fill="white" stroke="#010101" stroke-width="1.5" stroke-linecap="round" stroke-linejoin="round"/>
<path d="M41.933 51.786C39.365 43.75 42.681 30.356 43.579 28.76C44.881 26.446 47.16 24.795 49.631 23.822C52.102 22.85 54.771 22.498 57.418 22.295C65.178 21.7 71.228 22.552 78.978 23.261C81.444 23.487 83.945 23.731 86.252 24.63C91.287 26.593 94.972 31.099 96.315 36.334C97.657 41.569 96.911 42.284 95.94 47.6C93.851 59.041 87.779 67.438 81.662 77.33C76.171 73.137 72.43 64.583 65.166 57.936C59.619 52.86 52.692 48.984 41.933 51.786Z" fill="#010101" stroke="#010101" stroke-width="1.5" stroke-linecap="round" stroke-linejoin="round"/>
<path d="M83.18 91.213C82.55 81.34 82.51 69.29 81.262 61.469C85.023 60.615 88.148 56.947 87.934 53.163C87.78 50.45 85.54 47.67 82.838 47.958C81.129 48.14 79.721 49.483 78.979 51.033C78.237 52.583 78.043 54.33 77.86 56.039C76.878 56.157 75.895 56.276 74.913 56.395C74.01 54.847 75.08 52.581 73.917 51.218C72.871 49.992 70.835 50.443 69.431 49.652C67.796 48.73 67.539 46.485 67.751 44.619C67.962 42.753 68.423 40.751 67.563 39.082C66.296 36.621 62.914 36.261 60.184 36.721C57.454 37.182 54.586 38.123 52.008 37.114C51.08 36.751 50.237 36.144 49.256 35.966C47.712 35.686 46.136 36.565 45.178 37.808C44.221 39.051 43.772 40.605 43.415 42.133C42.493 46.085 42.05 50.149 41.984 54.42C41.407 61.238 40.929 68.541 44.331 74.477C45.175 75.949 46.259 77.311 47.653 78.281C49.36 79.469 51.425 80.005 53.448 80.487C54.996 80.856 57.882 80.718 57.899 80.904C58.242 84.716 57.933 87.57 57.933 91.568C47.768 92.461 39.228 93.975 39.228 93.975L52.258 124.067L97.043 122.041V92.286C97.043 92.286 91.888 91.611 83.18 91.213Z" fill="white" stroke="#010101" stroke-width="1.5" stroke-linecap="round" stroke-linejoin="round"/>
<path d="M57.024 80.938C60.367 80.936 63.71 80.532 66.958 79.737" stroke="#010101" stroke-width="1.5" stroke-linecap="round" stroke-linejoin="round"/>
<path d="M47.401 61.841C47.451 61.949 47.569 62.006 47.681 62.049C49.057 62.58 49.944 62.43 52.259 62.619" stroke="#010101" stroke-width="1.5" stroke-linecap="round" stroke-linejoin="round"/>
<path d="M49.732 54.499C48.964 56.824 48.195 59.149 47.427 61.475" stroke="#010101" stroke-width="1.5" stroke-linecap="round" stroke-linejoin="round"/>
<path d="M103.383 135.765C103.383 135.775 103.383 135.795 103.393 135.815H1.453C1.733 134.185 2.163 132.465 2.783 130.655C5.923 121.565 9.553 99.765 24.923 95.755C28.483 94.825 41.062 93.568 48.352 92.658C48.342 92.758 48.342 92.868 48.342 92.968C48.342 105.178 56.448 111.972 69.638 111.972C82.828 111.972 92.013 105.315 92.013 93.105C92.013 92.625 91.993 92.155 91.963 91.685C111.173 92.505 119.103 96.125 124.663 107.215C130.303 118.475 135.113 135.815 135.113 135.815L103.383 135.765Z" fill="#7B5FF1" stroke="#010101" stroke-width="1.5" stroke-linecap="round" stroke-linejoin="round"/>
</g>
<defs>
<clipPath id="clip0_35_3649">
<rect width="136.566" height="136.566" fill="white"/>
</clipPath>
</defs>
</svg>
