<?xml version="1.0" encoding="UTF-8"?>
<svg id="Layer_2" data-name="Layer 2" xmlns="http://www.w3.org/2000/svg" viewBox="0 0 756.52 469.7">
  <defs>
    <style>
      .cls-1 {
        fill: #f9a948;
      }

      .cls-2 {
        fill: #67f4aa;
      }

      .cls-3, .cls-4 {
        fill: #000201;
      }

      .cls-5 {
        fill: #f29530;
      }

      .cls-6 {
        fill: #e87707;
      }

      .cls-7 {
        fill: #ffaf5f;
      }

      .cls-8, .cls-9, .cls-10 {
        fill: #fff;
      }

      .cls-11 {
        fill: #f7575f;
      }

      .cls-12 {
        fill: #fcc13d;
      }

      .cls-13 {
        fill: #ffd297;
      }

      .cls-14 {
        fill: #fcb330;
      }

      .cls-15, .cls-16 {
        fill: #eceff6;
      }

      .cls-17 {
        fill: #fdf57a;
      }

      .cls-18 {
        fill: #7d78a3;
      }

      .cls-19 {
        fill: #a01d29;
      }

      .cls-20 {
        fill: #b4bec1;
      }

      .cls-21 {
        fill: #666491;
      }

      .cls-22 {
        fill: #b25000;
      }

      .cls-23 {
        fill: #af4f00;
      }

      .cls-24 {
        fill: #a5e5f9;
      }

      .cls-25, .cls-26 {
        fill: #ce6302;
      }

      .cls-27 {
        fill: #d6e1e5;
      }

      .cls-28 {
        fill: #d4f7ff;
      }

      .cls-29 {
        fill: #d9e1e4;
      }

      .cls-30 {
        fill: #c8d3d9;
      }

      .cls-31, .cls-32 {
        fill: #34d0f4;
      }

      .cls-33 {
        fill: #94b5bf;
      }

      .cls-34 {
        fill: #545454;
      }

      .cls-35 {
        fill: #29b260;
      }

      .cls-36 {
        fill: #645e7f;
      }

      .cls-4 {
        opacity: .17;
      }

      .cls-4, .cls-9, .cls-10, .cls-26, .cls-16, .cls-32 {
        isolation: isolate;
      }

      .cls-9 {
        opacity: .5;
      }

      .cls-10 {
        opacity: .48;
      }

      .cls-26 {
        opacity: .24;
      }

      .cls-16, .cls-32 {
        opacity: .47;
      }

      .cls-37 {
        opacity: .21;
      }
    </style>
  </defs>
  <g id="Layer_1-2" data-name="Layer 1">
    <g id="Layer_2-2" data-name="Layer 2">
      <g id="Layer_1-2" data-name="Layer 1-2">
        <g class="cls-37">
          <path class="cls-3" d="M413.31,273.25c-16.9,0-30.35-5.52-39.87-16.38-6.26-7.09-14.1-20.48-16.2-43.94-.76-8.4-.7-16.86,.17-25.26,.06-.49,.52-.84,1.01-.78,.49,.06,.84,.52,.78,1.01,0,.45-5.42,43.81,15.54,67.74,9.15,10.47,22.11,15.78,38.49,15.78,.49,0,.89,.4,.89,.9,0,.49-.4,.89-.89,.89l.08,.04Z"/>
          <path class="cls-3" d="M422.67,273.25c-16.9,0-30.33-5.52-39.87-16.38-6.24-7.09-14.1-20.48-16.2-43.94-.76-8.4-.7-16.86,.17-25.26,.08-.48,.52-.82,1.01-.78,.49,.06,.84,.51,.78,1,0,0,0,.01,0,.02,0,.45-5.42,43.81,15.54,67.74,9.15,10.47,22.11,15.78,38.49,15.78,.49,0,.89,.4,.89,.9,0,.49-.4,.89-.89,.89l.08,.04Z"/>
          <rect class="cls-1" x="339.04" y="179.35" width="106.62" height="8.92"/>
          <rect class="cls-13" x="338.59" y="178.91" width="106.62" height="3.57"/>
          <path class="cls-3" d="M445.64,188.93h-106.6c-.61,.01-1.12-.48-1.13-1.09,0,0,0-.01,0-.02v-8.92c0-.62,.5-1.13,1.13-1.13h106.6c.62,0,1.13,.5,1.13,1.13h0v8.92c0,.61-.5,1.11-1.11,1.11,0,0-.01,0-.02,0Zm-105.49-2.21h104.38v-6.7h-104.38v6.7Z"/>
          <rect class="cls-29" x="378.28" y="150.8" width="11.15" height="73.16"/>
          <rect class="cls-20" x="382.75" y="150.8" width="4.92" height="73.16"/>
          <rect class="cls-8" x="377.39" y="150.8" width="2.68" height="73.16"/>
          <path class="cls-3" d="M388.33,224.85h-11.15c-.62,0-1.13-.5-1.13-1.13h0v-73.14c0-.62,.5-1.13,1.13-1.13h11.15c.61,0,1.11,.5,1.11,1.11,0,0,0,.01,0,.02v73.14c.01,.61-.48,1.12-1.09,1.13,0,0-.01,0-.02,0Zm-10.04-2.23h8.92v-70.93h-8.92v70.93Z"/>
          <rect class="cls-13" x="388.09" y="139.65" width="10.26" height="316.71"/>
          <rect class="cls-1" x="392.11" y="139.65" width="5.36" height="316.71"/>
          <path class="cls-3" d="M387.88,305.36c-.6,.01-1.1-.47-1.11-1.07,0-.01,0-.03,0-.04h0v-6c0-.61,.5-1.11,1.11-1.11,.61,0,1.11,.5,1.11,1.11v6c0,.61-.5,1.11-1.11,1.11h0Z"/>
          <path class="cls-3" d="M387.88,315.33c-.6,.01-1.1-.47-1.11-1.07,0-.01,0-.03,0-.04v-3.54c0-.61,.49-1.11,1.11-1.11,.61,0,1.11,.49,1.11,1.11h0v3.54c.01,.6-.47,1.1-1.07,1.11-.01,0-.03,0-.04,0Z"/>
          <path class="cls-3" d="M398.58,457.3h-10.26c-.62,0-1.13-.5-1.13-1.13h0v-136.69c0-.61,.5-1.11,1.11-1.11,0,0,.01,0,.02,0,.6-.01,1.1,.47,1.11,1.07,0,.01,0,.03,0,.04v135.58h8.04V140.58h-8.04v149.82c.01,.6-.47,1.1-1.07,1.11-.01,0-.03,0-.04,0-.61,.01-1.12-.48-1.13-1.09,0,0,0-.01,0-.02V139.47c0-.62,.5-1.13,1.13-1.13h10.26c.61,0,1.11,.5,1.11,1.11,0,0,0,.01,0,.02V456.14c.03,.61-.44,1.13-1.05,1.16-.02,0-.04,0-.06,0Z"/>
          <path class="cls-3" d="M394.56,237.79c-.37-.01-.66-.31-.66-.68v-7.58c0-.37,.29-.67,.66-.68,.38,0,.68,.3,.68,.68h0v7.58c0,.38-.3,.68-.68,.68h0Z"/>
          <path class="cls-3" d="M394.56,347.52c-.36,0-.66-.3-.66-.66h0v-7.6c0-.36,.3-.66,.66-.66,.37,0,.67,.29,.68,.66v7.6c-.01,.37-.31,.66-.68,.66Z"/>
          <path class="cls-3" d="M394.56,336.37c-.36,0-.66-.3-.66-.66v-4.47c0-.36,.3-.66,.66-.66,.37,0,.67,.29,.68,.66v4.47c-.01,.37-.31,.66-.68,.66Z"/>
          <path class="cls-3" d="M347.28,184.7h-7.58c-.36,0-.66-.3-.66-.66,0-.37,.29-.67,.66-.68h7.58c.38,0,.68,.3,.68,.68h0c-.01,.37-.31,.66-.68,.66Z"/>
          <path class="cls-3" d="M357.11,184.7h-5.83c-.36,0-.66-.3-.66-.66,0-.37,.29-.67,.66-.68h5.83c.37,.01,.66,.31,.66,.68,0,.36-.3,.66-.66,.66Z"/>
          <path class="cls-3" d="M320.97,230.88c-.49,.03-.92-.34-.95-.84-.03-.45,.28-.84,.72-.93,23.16-6,23.95-40.43,23.95-40.8,.01-.5,.42-.89,.91-.89,.49,.02,.87,.42,.87,.91-.25,6.37-1.36,12.67-3.32,18.73-4.22,12.9-11.81,21.12-21.97,23.76l-.21,.06Z"/>
          <path class="cls-3" d="M327.21,233.98c-.47-.01-.84-.39-.85-.85,0-.41,.28-.78,.68-.87,23.16-6,23.93-43.52,23.95-43.91,0-.49,.4-.89,.89-.89,0,0,.01,0,.02,0,.49,.02,.87,.42,.87,.91-.27,6.87-1.38,13.68-3.32,20.28-4.22,13.93-11.81,22.69-21.97,25.26l-.27,.08Z"/>
        </g>
        <ellipse class="cls-33" cx="748.32" cy="422.39" rx=".99" ry="1.05"/>
        <path class="cls-2" d="M727.06,401.33c-5.83-17.29-23.64-26.32-39.9-20.19-12.81,5.15-21.1,17.67-20.83,31.47l.12,36.91,19.95,.52,47.25-.17c12.67,0,22.92-11.02,22.87-24.52-.06-13.5-10.35-24.38-23.04-24.34s-22.92,11.03-22.87,24.52"/>
        <path class="cls-35" d="M707.13,426.03h-.1c-.98-.09-1.7-.96-1.61-1.94h0c.31-5.83,2.76-19.95,18.57-25.47,.88-.29,1.82,.19,2.11,1.07,.01,.03,.02,.07,.03,.1,.3,.93-.18,1.93-1.09,2.27-9.55,3.26-16.04,12.15-16.22,22.24,0,.94-.75,1.7-1.69,1.73Z"/>
        <path class="cls-35" d="M756.2,425.69c0,13.48-10.2,24.46-22.89,24.52h-3.34c12.26-6.22,17.48-21.84,11.66-34.97-2.66-6.06-7.59-10.83-13.74-13.29,12.34-3.17,24.73,4.9,27.72,17.99,.41,1.89,.61,3.82,.58,5.75Z"/>
        <ellipse class="cls-35" cx="741.87" cy="417.94" rx="3.57" ry="3.81"/>
        <ellipse class="cls-35" cx="739.26" cy="424.76" rx="1.69" ry="1.81"/>
        <ellipse class="cls-35" cx="736.78" cy="420.56" rx=".76" ry="1.15" transform="translate(-1.24 2.19) rotate(-.17)"/>
        <path class="cls-3" d="M726.13,402.34c-.41,0-.77-.27-.89-.66-1.71-5.19-4.71-9.87-8.7-13.6-.41-.36-.47-.97-.14-1.4,.28-.4,.84-.5,1.25-.22,.03,.02,.05,.04,.08,.06h0c4.23,3.95,7.4,8.9,9.23,14.4,.17,.5-.07,1.06-.56,1.26-.07,.07-.16,.12-.25,.16Z"/>
        <path class="cls-3" d="M713.85,385.73c-.19,0-.37-.06-.52-.17-.78-.55-1.58-1.05-2.41-1.52-.47-.27-.65-.85-.43-1.34,.2-.46,.74-.68,1.2-.48,.02,0,.04,.02,.06,.03h0c.87,.49,1.73,1.05,2.56,1.61,.44,.33,.55,.94,.25,1.4-.15,.26-.42,.44-.72,.47Z"/>
        <path class="cls-3" d="M708.14,382.57c-.12,.02-.23,.02-.35,0-4.52-1.9-9.45-2.61-14.32-2.06-.53,.03-.99-.36-1.03-.89-.06-.53,.31-1.02,.84-1.11,1.1-.12,2.2-.17,3.3-.17,4.09-.02,8.14,.78,11.91,2.35,.48,.24,.71,.8,.52,1.3-.13,.37-.48,.63-.87,.64v-.06Z"/>
        <path class="cls-3" d="M732.76,450.81l-47.23,.17c-.54-.15-.85-.71-.69-1.25,.1-.34,.36-.6,.69-.69l47.23-.17c12.16,0,21.99-10.57,21.95-23.51-.04-12.94-9.95-23.31-22.11-23.31s-21.99,10.57-21.93,23.51h0c0,.54-.43,.97-.97,.97s-.97-.43-.97-.97c0-14.05,10.61-25.47,23.82-25.53s23.93,11.29,23.97,25.26c.04,13.97-10.53,25.43-23.76,25.53Z"/>
        <path class="cls-8" d="M687.7,387.83c-.64-.02-1.15-.56-1.13-1.2,0,0,0,0,0,0,0-.47,.26-.9,.68-1.11,3.95-1.68,8.26-2.34,12.53-1.94,.64,.07,1.11,.64,1.05,1.28-.01,.63-.53,1.14-1.16,1.13,0,0-.01,0-.02,0-3.93-.35-7.88,.27-11.5,1.83-.15,.04-.3,.04-.45,.02Z"/>
        <path class="cls-8" d="M680.77,393.29c-.26,0-.52-.1-.72-.27-.48-.44-.55-1.17-.16-1.69,.79-1.04,1.7-1.99,2.7-2.84,.45-.4,1.14-.35,1.54,.1,.02,.02,.04,.05,.06,.07,.39,.52,.31,1.26-.17,1.69-.88,.74-1.67,1.57-2.37,2.49-.21,.28-.53,.44-.87,.45Z"/>
        <path class="cls-16" d="M584.97,103.22c-.07-18.14,14.58-32.91,32.73-32.98,15.39-.06,28.75,10.57,32.16,25.58,10.41-5.62,23.4-1.74,29.02,8.66s1.74,23.4-8.66,29.02c-2.79,1.48-5.88,2.33-9.03,2.49h-46.45c-16.89-1.6-29.79-15.8-29.76-32.77Z"/>
        <g class="cls-37">
          <rect class="cls-7" x="568.13" y="296.54" width="118.04" height="119.42"/>
          <rect class="cls-25" x="669.6" y="384.9" width="16.63" height="6.62"/>
          <path d="M686.23,392.1h-16.71c-.35,0-.63-.28-.63-.63v-6.66c0-.35,.28-.63,.63-.63h16.71c.35,0,.63,.28,.63,.63v6.66c0,.35-.28,.63-.63,.63Zm-16.08-1.26h15.44v-5.4h-15.44v5.4Z"/>
          <rect class="cls-26" x="568.13" y="295.92" width="23.43" height="120.02"/>
          <rect class="cls-26" x="568.34" y="296.54" width="46.43" height="119.42"/>
          <path d="M686.17,416.79h-118.04c-.47,0-.85-.38-.85-.85v-68.03c0-.47,.38-.85,.85-.85s.85,.38,.85,.85v67.19h116.35v-36.82c0-.47,.38-.85,.85-.85s.85,.38,.85,.85v37.67c0,.47-.38,.85-.85,.85Z"/>
          <path d="M686.17,372.8c-.47,0-.85-.38-.85-.85v-74.59h-116.35v43.6c0,.47-.38,.85-.85,.85s-.85-.38-.85-.85v-44.45c0-.47,.38-.85,.85-.85h118.04c.47,0,.85,.38,.85,.85v75.44c0,.47-.38,.85-.85,.85Z"/>
          <rect class="cls-25" x="653.36" y="312.9" width="11.77" height="4.68"/>
          <path d="M665.13,317.97h-11.81c-.25,0-.45-.2-.45-.45v-4.7c0-.25,.2-.45,.45-.45h11.81c.25,0,.45,.2,.45,.45v4.7c0,.25-.2,.45-.45,.45Zm-11.37-.89h10.92v-3.81h-10.92v3.81Z"/>
          <rect class="cls-25" x="661.63" y="317.68" width="11.77" height="4.68"/>
          <path d="M673.39,322.77h-11.81c-.25,0-.45-.2-.45-.45v-4.7c0-.25,.2-.45,.45-.45h11.81c.25,0,.45,.2,.45,.45v4.7c0,.25-.2,.45-.45,.45Zm-11.37-.89h10.92v-3.81h-10.92v3.81Z"/>
          <rect class="cls-25" x="654.13" y="322.55" width="11.77" height="4.68"/>
          <path d="M665.89,327.64h-11.81c-.25,0-.45-.2-.45-.45v-4.7c0-.25,.2-.45,.45-.45h11.81c.25,0,.45,.2,.45,.45v4.7c0,.25-.2,.45-.45,.45Zm-11.37-.89h10.92v-3.81h-10.92v3.81Z"/>
          <rect class="cls-25" x="639.72" y="348.65" width="11.77" height="4.68"/>
          <path d="M651.47,353.72h-11.81c-.25,0-.45-.2-.45-.45v-4.7c0-.25,.2-.45,.45-.45h11.81c.25,0,.45,.2,.45,.45v4.7c0,.25-.2,.45-.45,.45Zm-11.36-.89h10.92v-3.81h-10.92v3.81Z"/>
          <rect class="cls-25" x="584.1" y="307.11" width="11.77" height="4.68"/>
          <path d="M595.87,312.2h-11.81c-.25,0-.45-.2-.45-.45v-4.7c0-.25,.2-.45,.45-.45h11.81c.25,0,.45,.2,.45,.45v4.7c0,.25-.2,.45-.45,.45Zm-11.37-.89h10.92v-3.81h-10.92v3.81Z"/>
          <rect class="cls-25" x="641.08" y="387.97" width="11.77" height="4.68"/>
          <path d="M652.85,393.04h-11.81c-.25,0-.45-.2-.45-.45v-4.7c0-.25,.2-.45,.45-.45h11.81c.25,0,.45,.2,.45,.45v4.7c0,.25-.2,.45-.45,.45Zm-11.36-.89h10.92v-3.81h-10.92v3.81Z"/>
          <rect class="cls-25" x="632.51" y="392.77" width="11.77" height="4.68"/>
          <path d="M644.26,397.84h-11.81c-.25,0-.45-.2-.45-.45v-4.7c0-.25,.2-.45,.45-.45h11.81c.25,0,.45,.2,.45,.45v4.7c0,.25-.2,.45-.45,.45Zm-11.37-.89h10.92v-3.81h-10.92v3.81Z"/>
          <rect class="cls-25" x="573.24" y="405" width="11.77" height="4.68"/>
          <path d="M585.01,410.07h-11.81c-.25,0-.45-.2-.45-.45v-4.7c0-.25,.2-.45,.45-.45h11.81c.25,0,.45,.2,.45,.45v4.7c0,.25-.2,.45-.45,.45Zm-11.37-.89h10.92v-3.81h-10.92v3.81Z"/>
          <rect class="cls-25" x="656.07" y="361.49" width="11.77" height="4.68"/>
          <path d="M667.89,366.56h-11.81c-.25,0-.45-.2-.45-.45v-4.7c0-.25,.2-.45,.45-.45h11.81c.25,0,.45,.2,.45,.45v4.7c0,.25-.2,.45-.45,.45Zm-11.37-.89h10.92v-3.81h-10.92v3.81Z"/>
          <rect class="cls-25" x="647.82" y="366.25" width="11.77" height="4.68"/>
          <path d="M659.63,371.36h-11.81c-.25,0-.45-.2-.45-.45v-4.7c0-.25,.2-.45,.45-.45h11.81c.25,0,.45,.2,.45,.45v4.7c0,.25-.2,.45-.45,.45Zm-11.37-.89h10.92v-3.81h-10.92v3.81Z"/>
          <rect class="cls-25" x="655.32" y="371.14" width="11.77" height="4.68"/>
          <path d="M667.13,376.23h-11.81c-.25,0-.45-.2-.45-.45v-4.7c0-.25,.2-.45,.45-.45h11.81c.25,0,.45,.2,.45,.45v4.7c0,.25-.2,.45-.45,.45Zm-11.37-.89h10.92v-3.81h-10.92v3.81Z"/>
          <circle class="cls-25" cx="627.11" cy="302.66" r=".8"/>
          <circle class="cls-25" cx="585.24" cy="391.41" r=".8"/>
          <circle class="cls-25" cx="635.11" cy="301.3" r=".56"/>
          <circle class="cls-25" cx="676.88" cy="401.59" r=".56"/>
          <circle class="cls-25" cx="594.84" cy="398.5" r=".56"/>
          <circle class="cls-25" cx="680.65" cy="376.19" r=".56"/>
          <circle class="cls-25" cx="678.94" cy="364.17" r=".68"/>
          <circle class="cls-25" cx="675.5" cy="361.14" r=".68"/>
          <circle class="cls-25" cx="620.58" cy="316.05" r="1.38"/>
        </g>
        <circle class="cls-36" cx="681.21" cy="113.79" r="19.12"/>
        <path class="cls-3" d="M681.21,133.87c-11.07,0-20.08-9.01-20.08-20.08s9.01-20.08,20.08-20.08,20.08,9.01,20.08,20.08-9.01,20.08-20.08,20.08Zm0-38.23c-10.01,0-18.15,8.14-18.15,18.15s8.14,18.15,18.15,18.15,18.16-8.14,18.16-18.15-8.14-18.15-18.16-18.15Z"/>
        <path class="cls-4" d="M699.46,113.79c.01,10.56-8.54,19.13-19.1,19.14-1.42,0-2.83-.15-4.22-.47,10.31-2.27,16.83-12.47,14.56-22.78-1.6-7.28-7.28-12.96-14.56-14.56,10.3-2.32,20.53,4.15,22.85,14.45,.31,1.38,.47,2.8,.47,4.22Z"/>
        <polyline class="cls-12" points="699.83 115.44 693.01 161.07 668.02 161.07 662.84 115.54"/>
        <rect class="cls-21" x="674.24" y="177.99" width="12.03" height="274.26"/>
        <rect class="cls-18" x="675.29" y="177.99" width="7.52" height="274.26"/>
        <path class="cls-3" d="M674.49,453.83h12.05c.72-.01,1.3-.6,1.3-1.32v-160.3c-.09-.72-.75-1.24-1.47-1.15-.6,.07-1.08,.55-1.15,1.15v158.99h-9.4V179.55h9.4v78.55c-.09,.72,.43,1.38,1.15,1.47,.72,.09,1.38-.43,1.47-1.15,.01-.11,.01-.21,0-.32v-79.85c0-.72-.58-1.3-1.3-1.3h-12.05c-.72,0-1.3,.58-1.3,1.3h0V452.5c0,.72,.58,1.31,1.3,1.32Z"/>
        <path class="cls-3" d="M678.69,324.61c.43,0,.78-.35,.78-.78h0v-8.9c.07-.43-.23-.84-.66-.91s-.84,.23-.91,.66c-.01,.08-.01,.17,0,.25v8.9c0,.43,.35,.78,.78,.78,0,0,.01,0,.02,0Z"/>
        <path class="cls-3" d="M678.69,311.54c.43,0,.78-.35,.78-.78,0,0,0-.01,0-.02v-5.23c-.07-.43-.48-.73-.91-.66-.34,.05-.61,.32-.66,.66v5.32c.05,.4,.39,.7,.8,.7Z"/>
        <path class="cls-3" d="M681.21,207.33c.44,0,.8-.36,.8-.8h0v-8.9c-.07-.43-.48-.73-.91-.66-.34,.05-.61,.32-.66,.66v8.9c-.01,.43,.33,.79,.76,.8,0,0,.01,0,.02,0Z"/>
        <path class="cls-3" d="M681.21,194.28c.43,.01,.79-.33,.8-.76,0,0,0-.01,0-.02v-5.26c.07-.43-.23-.84-.66-.91-.43-.07-.84,.23-.91,.66-.01,.08-.01,.17,0,.25v5.23c-.02,.43,.31,.79,.74,.81,.01,0,.03,0,.04,0Z"/>
        <rect class="cls-36" x="665.98" y="336.13" width="26.87" height="7.44"/>
        <path class="cls-3" d="M692.85,344.47h-26.87c-.49,0-.89-.4-.89-.89v-7.44c0-.49,.4-.89,.89-.89h26.87c.49,0,.89,.4,.89,.89v7.44c0,.49-.4,.89-.89,.89Zm-25.97-1.79h25.08v-5.65h-25.08v5.65Z"/>
        <rect class="cls-36" x="665.98" y="291.39" width="26.87" height="7.44"/>
        <path class="cls-3" d="M692.85,299.73h-26.87c-.49,0-.89-.4-.89-.89v-7.44c0-.49,.4-.89,.89-.89h26.87c.49,0,.89,.4,.89,.89v7.44c0,.49-.4,.89-.89,.89Zm-25.97-1.79h25.08v-5.65h-25.08v5.65Z"/>
        <g class="cls-37">
          <rect class="cls-7" x="333.4" y="296.52" width="118.04" height="119.42"/>
          <rect class="cls-25" x="333.37" y="384.9" width="16.63" height="6.62"/>
          <path d="M350.05,392.1h-16.71c-.35,0-.63-.28-.63-.63v-6.66c0-.35,.28-.63,.63-.63h16.71c.35,0,.63,.28,.63,.63v6.66c0,.35-.28,.63-.63,.63Zm-16.08-1.26h15.44v-5.4h-15.44v5.4Z"/>
          <rect class="cls-26" x="428.02" y="295.94" width="23.43" height="120.02"/>
          <rect class="cls-26" x="404.8" y="296.52" width="46.43" height="119.42"/>
          <path d="M451.45,416.79h-118.04c-.47,0-.85-.38-.85-.85v-37.67c0-.47,.38-.85,.85-.85s.85,.38,.85,.85v36.82h116.35v-67.19c0-.47,.38-.85,.85-.85s.85,.38,.85,.85v68.03c0,.47-.38,.85-.85,.85Z"/>
          <path d="M333.4,372.8c-.47,0-.85-.38-.85-.85v-75.44c0-.47,.38-.85,.85-.85h118.04c.47,0,.85,.38,.85,.85v44.45c0,.47-.38,.85-.85,.85s-.85-.38-.85-.85v-43.6h-116.35v74.59c0,.47-.38,.85-.85,.85Z"/>
          <rect class="cls-25" x="354.46" y="312.9" width="11.77" height="4.68"/>
          <path d="M366.28,317.99h-11.81c-.25,0-.45-.2-.45-.45v-4.7c0-.25,.2-.45,.45-.45h11.81c.25,0,.45,.2,.45,.45v4.7c0,.25-.2,.45-.45,.45Zm-11.37-.89h10.92v-3.81h-10.92v3.81Z"/>
          <rect class="cls-25" x="346.17" y="317.68" width="11.77" height="4.68"/>
          <path d="M358,322.77h-11.81c-.25,0-.45-.2-.45-.45v-4.7c0-.25,.2-.45,.45-.45h11.81c.25,0,.45,.2,.45,.45v4.7c0,.25-.2,.45-.45,.45Zm-11.36-.89h10.92v-3.81h-10.92v3.81Z"/>
          <rect class="cls-25" x="353.69" y="322.57" width="11.77" height="4.68"/>
          <path d="M365.5,327.64h-11.81c-.25,0-.45-.2-.45-.45v-4.7c0-.25,.2-.45,.45-.45h11.81c.25,0,.45,.2,.45,.45v4.7c0,.25-.2,.45-.45,.45Zm-11.37-.89h10.92v-3.81h-10.92v3.81Z"/>
          <rect class="cls-25" x="368.1" y="348.65" width="11.77" height="4.68"/>
          <path d="M379.91,353.74h-11.81c-.25,0-.45-.2-.45-.45v-4.7c0-.25,.2-.45,.45-.45h11.81c.25,0,.45,.2,.45,.45v4.7c0,.25-.2,.45-.45,.45Zm-11.37-.89h10.92v-3.81h-10.92v3.81Z"/>
          <rect class="cls-25" x="423.7" y="307.13" width="11.77" height="4.68"/>
          <path d="M435.52,312.2h-11.81c-.25,0-.45-.2-.45-.45v-4.7c0-.25,.2-.45,.45-.45h11.81c.25,0,.45,.2,.45,.45v4.7c0,.25-.2,.45-.45,.45Zm-11.37-.89h10.92v-3.81h-10.92v3.81Z"/>
          <rect class="cls-25" x="366.72" y="387.95" width="11.77" height="4.68"/>
          <path d="M378.55,393.04h-11.81c-.25,0-.45-.2-.45-.45v-4.7c0-.25,.2-.45,.45-.45h11.81c.25,0,.45,.2,.45,.45v4.7c0,.25-.2,.45-.45,.45Zm-11.37-.89h10.92v-3.81h-10.92v3.81Z"/>
          <rect class="cls-25" x="375.31" y="392.77" width="11.77" height="4.68"/>
          <path d="M387.12,397.85h-11.81c-.25,0-.45-.2-.45-.45v-4.7c0-.25,.2-.45,.45-.45h11.81c.25,0,.45,.2,.45,.45v4.7c0,.25-.2,.45-.45,.45Zm-11.37-.89h10.92v-3.81h-10.92v3.81Z"/>
          <rect class="cls-25" x="434.58" y="405" width="11.77" height="4.68"/>
          <path d="M446.39,410.09h-11.81c-.25,0-.45-.2-.45-.45v-4.7c0-.25,.2-.45,.45-.45h11.81c.25,0,.45,.2,.45,.45v4.7c0,.25-.2,.45-.45,.45Zm-11.36-.89h10.92v-3.81h-10.92v3.81Z"/>
          <rect class="cls-25" x="351.72" y="361.47" width="11.77" height="4.68"/>
          <path d="M363.48,366.56h-11.81c-.25,0-.45-.2-.45-.45v-4.7c0-.25,.2-.45,.45-.45h11.81c.25,0,.45,.2,.45,.45v4.7c0,.25-.2,.45-.45,.45Zm-11.37-.89h10.92v-3.81h-10.92v3.81Z"/>
          <rect class="cls-25" x="360" y="366.27" width="11.77" height="4.68"/>
          <path d="M371.75,371.34h-11.81c-.25,0-.45-.2-.45-.45v-4.7c0-.25,.2-.45,.45-.45h11.81c.25,0,.45,.2,.45,.45v4.7c0,.25-.2,.45-.45,.45Zm-11.37-.89h10.92v-3.81h-10.92v3.81Z"/>
          <rect class="cls-25" x="352.48" y="371.14" width="11.77" height="4.68"/>
          <path d="M364.26,376.21h-11.81c-.25,0-.45-.2-.45-.45v-4.7c0-.25,.2-.45,.45-.45h11.81c.25,0,.45,.2,.45,.45v4.7c0,.25-.2,.45-.45,.45Zm-11.37-.89h10.92v-3.81h-10.92v3.81Z"/>
          <circle class="cls-25" cx="392.46" cy="302.66" r=".8"/>
          <circle class="cls-25" cx="434.35" cy="391.41" r=".8"/>
          <circle class="cls-25" cx="384.46" cy="301.3" r=".56"/>
          <circle class="cls-25" cx="342.71" cy="401.59" r=".56"/>
          <circle class="cls-25" cx="424.73" cy="398.5" r=".56"/>
          <circle class="cls-25" cx="338.92" cy="376.19" r=".56"/>
          <circle class="cls-25" cx="340.65" cy="364.17" r=".68"/>
          <circle class="cls-25" cx="344.07" cy="361.14" r=".68"/>
          <circle class="cls-25" cx="398.99" cy="316.05" r="1.38"/>
        </g>
        <g class="cls-37">
          <rect class="cls-7" x="81.88" y="296.52" width="118.04" height="119.42"/>
          <rect class="cls-25" x="81.84" y="384.9" width="16.63" height="6.62"/>
          <path d="M98.53,392.1h-16.71c-.35,0-.63-.28-.63-.63v-6.66c0-.35,.28-.63,.63-.63h16.71c.35,0,.63,.28,.63,.63v6.66c0,.35-.28,.63-.63,.63Zm-16.08-1.26h15.44v-5.4h-15.44v5.4Z"/>
          <rect class="cls-26" x="176.51" y="295.94" width="23.43" height="120.02"/>
          <rect class="cls-26" x="153.29" y="296.52" width="46.43" height="119.42"/>
          <path d="M199.92,416.79H81.88c-.47,0-.85-.38-.85-.85v-37.67c0-.47,.38-.85,.85-.85s.85,.38,.85,.85v36.82h116.35v-67.19c0-.47,.38-.85,.85-.85s.85,.38,.85,.85v68.03c0,.47-.38,.85-.85,.85Z"/>
          <path d="M81.88,372.8c-.47,0-.85-.38-.85-.85v-75.44c0-.47,.38-.85,.85-.85h118.04c.47,0,.85,.38,.85,.85v44.45c0,.47-.38,.85-.85,.85s-.85-.38-.85-.85v-43.6H82.72v74.59c0,.47-.38,.85-.85,.85Z"/>
          <rect class="cls-25" x="102.94" y="312.9" width="11.77" height="4.68"/>
          <path d="M114.75,317.99h-11.81c-.25,0-.45-.2-.45-.45v-4.7c0-.25,.2-.45,.45-.45h11.81c.25,0,.45,.2,.45,.45v4.7c0,.25-.2,.45-.45,.45Zm-11.36-.89h10.92v-3.81h-10.92v3.81Z"/>
          <rect class="cls-25" x="94.66" y="317.68" width="11.77" height="4.68"/>
          <path d="M106.49,322.77h-11.81c-.25,0-.45-.2-.45-.45v-4.7c0-.25,.2-.45,.45-.45h11.81c.25,0,.45,.2,.45,.45v4.7c0,.25-.2,.45-.45,.45Zm-11.36-.89h10.92v-3.81h-10.92v3.81Z"/>
          <rect class="cls-25" x="102.18" y="322.57" width="11.77" height="4.68"/>
          <path d="M113.99,327.64h-11.81c-.25,0-.45-.2-.45-.45v-4.7c0-.25,.2-.45,.45-.45h11.81c.25,0,.45,.2,.45,.45v4.7c0,.25-.2,.45-.45,.45Zm-11.37-.89h10.92v-3.81h-10.92v3.81Z"/>
          <rect class="cls-25" x="116.59" y="348.65" width="11.77" height="4.68"/>
          <path d="M128.41,353.74h-11.81c-.25,0-.45-.2-.45-.45v-4.7c0-.25,.2-.45,.45-.45h11.81c.25,0,.45,.2,.45,.45v4.7c0,.25-.2,.45-.45,.45Zm-11.37-.89h10.92v-3.81h-10.92v3.81Z"/>
          <rect class="cls-25" x="172.2" y="307.13" width="11.77" height="4.68"/>
          <path d="M184.01,312.2h-11.81c-.25,0-.45-.2-.45-.45v-4.7c0-.25,.2-.45,.45-.45h11.81c.25,0,.45,.2,.45,.45v4.7c0,.25-.2,.45-.45,.45Zm-11.37-.89h10.92v-3.81h-10.92v3.81Z"/>
          <rect class="cls-25" x="115.2" y="387.95" width="11.77" height="4.68"/>
          <path d="M127.03,393.04h-11.81c-.25,0-.45-.2-.45-.45v-4.7c0-.25,.2-.45,.45-.45h11.81c.25,0,.45,.2,.45,.45v4.7c0,.25-.2,.45-.45,.45Zm-11.37-.89h10.92v-3.81h-10.92v3.81Z"/>
          <rect class="cls-25" x="123.8" y="392.77" width="11.77" height="4.68"/>
          <path d="M135.61,397.85h-11.81c-.25,0-.45-.2-.45-.45v-4.7c0-.25,.2-.45,.45-.45h11.81c.25,0,.45,.2,.45,.45v4.7c0,.25-.2,.45-.45,.45Zm-11.37-.89h10.92v-3.81h-10.92v3.81Z"/>
          <rect class="cls-25" x="183.06" y="405" width="11.77" height="4.68"/>
          <path d="M194.87,410.09h-11.81c-.25,0-.45-.2-.45-.45v-4.7c0-.25,.2-.45,.45-.45h11.81c.25,0,.45,.2,.45,.45v4.7c0,.25-.2,.45-.45,.45Zm-11.37-.89h10.92v-3.81h-10.92v3.81Z"/>
          <rect class="cls-25" x="100.2" y="361.47" width="11.77" height="4.68"/>
          <path d="M111.97,366.56h-11.81c-.25,0-.45-.2-.45-.45v-4.7c0-.25,.2-.45,.45-.45h11.81c.25,0,.45,.2,.45,.45v4.7c0,.25-.2,.45-.45,.45Zm-11.37-.89h10.92v-3.81h-10.92v3.81Z"/>
          <rect class="cls-25" x="108.47" y="366.27" width="11.77" height="4.68"/>
          <path d="M120.25,371.34h-11.81c-.25,0-.45-.2-.45-.45v-4.7c0-.25,.2-.45,.45-.45h11.81c.25,0,.45,.2,.45,.45v4.7c0,.25-.2,.45-.45,.45Zm-11.37-.89h10.92v-3.81h-10.92v3.81Z"/>
          <rect class="cls-25" x="100.97" y="371.14" width="11.77" height="4.68"/>
          <path d="M112.75,376.21h-11.81c-.25,0-.45-.2-.45-.45v-4.7c0-.25,.2-.45,.45-.45h11.81c.25,0,.45,.2,.45,.45v4.7c0,.25-.2,.45-.45,.45Zm-11.37-.89h10.92v-3.81h-10.92v3.81Z"/>
          <circle class="cls-25" cx="140.96" cy="302.66" r=".8"/>
          <circle class="cls-25" cx="182.82" cy="391.41" r=".8"/>
          <circle class="cls-25" cx="132.95" cy="301.3" r=".56"/>
          <circle class="cls-25" cx="91.18" cy="401.59" r=".56"/>
          <circle class="cls-25" cx="173.21" cy="398.5" r=".56"/>
          <circle class="cls-25" cx="87.41" cy="376.19" r=".56"/>
          <circle class="cls-25" cx="89.12" cy="364.17" r=".68"/>
          <circle class="cls-25" cx="92.56" cy="361.14" r=".68"/>
          <circle class="cls-25" cx="147.46" cy="316.05" r="1.38"/>
        </g>
        <path d="M709.25,444.71h-20.11c-.78,0-1.42-.63-1.42-1.42s.63-1.42,1.42-1.42h20.11c.78,0,1.42,.63,1.42,1.42s-.63,1.42-1.42,1.42Z"/>
        <rect class="cls-29" x="630.51" y="305.61" width="13.07" height="85.79"/>
        <rect class="cls-20" x="632.59" y="305.61" width="5.75" height="85.79"/>
        <rect class="cls-8" x="641.48" y="305.61" width="3.15" height="85.79"/>
        <path class="cls-3" d="M630.51,391.13v-85.79c0-.72,.58-1.3,1.3-1.3h13.15c.72,0,1.3,.58,1.3,1.3h0v85.79c0,.72-.58,1.3-1.3,1.3h-13.07c-.72,.04-1.33-.5-1.38-1.22,0-.03,0-.05,0-.08Zm13.07-84.47h-10.47v83.17h10.47v-83.17Z"/>
        <path class="cls-3" d="M685.45,412.91c.43,0,.78-.35,.78-.78v-8.9c-.07-.43-.48-.73-.91-.66-.34,.05-.61,.32-.66,.66v8.9c0,.43,.35,.78,.78,.78,0,0,.01,0,.02,0Z"/>
        <circle class="cls-33" cx="690.85" cy="380.53" r="16.59"/>
        <circle class="cls-34" cx="690.85" cy="380.53" r="16.59"/>
        <path d="M690.85,398.54c-9.93,0-18.01-8.08-18.01-18.01s8.08-18.01,18.01-18.01,18.01,8.08,18.01,18.01-8.08,18.01-18.01,18.01Zm0-33.18c-8.37,0-15.17,6.81-15.17,15.17s6.81,15.17,15.17,15.17,15.17-6.81,15.17-15.17-6.81-15.17-15.17-15.17Z"/>
        <circle class="cls-33" cx="674.12" cy="379.38" r="16.59"/>
        <circle class="cls-34" cx="674.12" cy="379.38" r="16.59"/>
        <path d="M674.12,397.39c-9.93,0-18.01-8.08-18.01-18.01s8.08-18.01,18.01-18.01,18.01,8.08,18.01,18.01-8.08,18.01-18.01,18.01Zm0-33.18c-8.37,0-15.17,6.81-15.17,15.17s6.81,15.17,15.17,15.17,15.17-6.81,15.17-15.17-6.81-15.17-15.17-15.17Z"/>
        <circle class="cls-33" cx="652.54" cy="381.38" r="16.59"/>
        <circle class="cls-34" cx="652.54" cy="381.38" r="16.59"/>
        <path d="M652.54,399.39c-9.93,0-18.01-8.08-18.01-18.01s8.08-18.01,18.01-18.01,18.01,8.08,18.01,18.01-8.08,18.01-18.01,18.01Zm0-33.18c-8.37,0-15.17,6.81-15.17,15.17s6.81,15.17,15.17,15.17,15.17-6.81,15.17-15.17-6.81-15.17-15.17-15.17Z"/>
        <path class="cls-27" d="M629.42,373.94c.85,0,67.26-5.38,67.26-5.38v-9.36s-52.78-1.71-70.95,6.8"/>
        <rect class="cls-27" x="626.49" y="376.7" width="68.19" height="75.84"/>
        <rect class="cls-8" x="690.29" y="376.7" width="4.39" height="75.84"/>
        <rect class="cls-33" x="631.6" y="376.7" width="13.5" height="75.84"/>
        <path d="M694.68,453.96h-68.19c-.78,0-1.42-.63-1.42-1.42v-75.84c0-.78,.63-1.42,1.42-1.42h68.19c.78,0,1.42,.63,1.42,1.42v75.84c0,.78-.63,1.42-1.42,1.42Zm-66.77-2.84h65.35v-73.01h-65.35v73.01Z"/>
        <path d="M685.14,441.28c-.57,0-1.03-.46-1.03-1.03v-35.81c0-.57,.46-1.03,1.03-1.03s1.03,.46,1.03,1.03v35.81c0,.57-.46,1.03-1.03,1.03Z"/>
        <path d="M676.05,441.28c-.57,0-1.03-.46-1.03-1.03v-55.23c0-.57,.46-1.03,1.03-1.03s1.03,.46,1.03,1.03v55.23c0,.57-.46,1.03-1.03,1.03Z"/>
        <path class="cls-8" d="M650.98,363.75l-.26-1.93c13.82-1.84,39.45-1.57,39.71-1.56l-.02,1.94c-.25,0-25.75-.27-39.43,1.55Z"/>
        <path d="M629.42,375.16c-.68,0-1.22-.55-1.22-1.22s.54-1.21,1.2-1.22c1.29-.05,43.1-3.43,66.05-5.29v-7.04c-7.9-.18-53.01-.87-69.21,6.72-.61,.29-1.34,.02-1.63-.59-.29-.61-.02-1.34,.59-1.63,18.22-8.54,69.34-6.98,71.51-6.92,.66,.02,1.18,.56,1.18,1.22v9.36c0,.64-.49,1.17-1.13,1.22-11.1,.9-66.5,5.39-67.36,5.39Z"/>
        <circle class="cls-33" cx="645.39" cy="444.01" r="4.04"/>
        <circle class="cls-33" cx="648.01" cy="435.29" r=".72"/>
        <circle class="cls-33" cx="663.61" cy="442.95" r=".72"/>
        <circle class="cls-33" cx="647.08" cy="389.95" r="3.61"/>
        <circle class="cls-33" cx="661.5" cy="392.16" r="1.13"/>
        <circle class="cls-33" cx="658.85" cy="403.99" r="1.07"/>
        <circle class="cls-33" cx="650.21" cy="416.78" r=".64"/>
        <rect class="cls-29" x="161.98" y="1.44" width="31.78" height="47.67"/>
        <rect class="cls-8" x="161.98" y="1.44" width="31.78" height="6.96"/>
        <rect class="cls-20" x="161.98" y="22.65" width="31.78" height="5.03"/>
        <path d="M193.76,50.53h-31.78c-.79,0-1.44-.64-1.44-1.44V16.86c0-.79,.64-1.44,1.44-1.44s1.44,.64,1.44,1.44v30.79h28.91V2.88h-28.91v6.08c0,.79-.64,1.44-1.44,1.44s-1.44-.64-1.44-1.44V1.44c0-.79,.64-1.44,1.44-1.44h31.78c.79,0,1.44,.64,1.44,1.44V49.09c0,.79-.64,1.44-1.44,1.44Z"/>
        <circle class="cls-20" cx="168.64" cy="22.87" r="2.41"/>
        <circle class="cls-20" cx="175.6" cy="19.74" r=".99"/>
        <circle class="cls-20" cx="169.57" cy="17.12" r=".51"/>
        <path d="M81.55,439.99h-20.11c-.78,0-1.42-.63-1.42-1.42s.63-1.42,1.42-1.42h20.11c.78,0,1.42,.63,1.42,1.42s-.63,1.42-1.42,1.42Z"/>
        <path class="cls-3" d="M423.9,356.59c-18.88,6-35.84,4.62-50.36-4.14-9.5-5.71-23.04-17.87-33.73-43.32-3.84-9.11-6.79-18.58-8.78-28.27-.1-.57,.28-1.12,.85-1.22s1.12,.28,1.22,.85c.1,.52,9.52,50.9,41.54,70.15,13.97,8.43,30.33,9.71,48.57,3.89,.58-.04,1.08,.39,1.12,.97,.03,.39-.16,.77-.5,.97l.06,.12Z"/>
        <path class="cls-3" d="M434.37,353.25c-18.88,6-35.86,4.62-50.38-4.14-9.5-5.69-23.02-17.85-33.73-43.32-3.83-9.11-6.76-18.57-8.76-28.25-.1-.57,.28-1.12,.85-1.22s1.12,.28,1.22,.85c0,.51,9.52,50.88,41.54,70.15,13.97,8.43,30.33,9.71,48.57,3.89,.5-.3,1.14-.14,1.44,.36,.3,.5,.14,1.14-.36,1.44-.13,.08-.29,.13-.44,.15l.04,.1Z"/>
        <rect class="cls-29" x="127.1" y="309.25" width="13.07" height="85.79"/>
        <rect class="cls-20" x="132.33" y="309.25" width="5.75" height="85.79"/>
        <rect class="cls-8" x="126.06" y="309.25" width="3.15" height="85.79"/>
        <path class="cls-3" d="M138.88,396.09h-13.07c-.72,0-1.3-.58-1.3-1.3v-85.79c0-.72,.58-1.3,1.3-1.3h13.07c.72,0,1.3,.58,1.3,1.3v85.79c0,.72-.58,1.3-1.3,1.3Zm-11.77-2.62h10.47v-83.17h-10.47v83.17Z"/>
        <rect class="cls-29" x="331.23" y="257.51" width="13.07" height="85.79"/>
        <rect class="cls-20" x="333.33" y="257.51" width="5.75" height="85.79"/>
        <rect class="cls-8" x="342.22" y="257.51" width="3.15" height="85.79"/>
        <path class="cls-3" d="M331.23,343.03v-85.79c.01-.72,.6-1.3,1.32-1.3h13.07c.72,0,1.3,.58,1.3,1.3v85.79c0,.72-.58,1.31-1.3,1.32h-13.07c-.73-.01-1.31-.6-1.32-1.32Zm13.09-84.47h-10.47v83.17h10.47v-83.17Z"/>
        <rect class="cls-24" x="391.3" y="258.37" width="240.36" height="195.56"/>
        <rect class="cls-28" x="391.3" y="258.37" width="6.18" height="195.56"/>
        <polygon class="cls-31" points="631.65 453.92 581.14 453.92 581.14 223.4 631.65 258.37 631.65 453.92"/>
        <polygon class="cls-32" points="587.96 453.92 537.45 453.92 537.45 223.4 587.96 258.37 587.96 453.92"/>
        <rect class="cls-31" x="407.31" y="424.32" width="111.8" height="6"/>
        <rect class="cls-17" x="407.42" y="328.4" width="110.97" height="95.35"/>
        <path class="cls-14" d="M518.05,423.88h-110.37v-95.62h110.37v95.62Zm-104.71-5.65h99.06v-84.31h-99.06v84.31Z"/>
        <polygon class="cls-8" points="426.03 423.6 414.13 423.6 443.44 329.14 455.35 329.14 426.03 423.6"/>
        <polygon class="cls-8" points="445.38 423.6 433.48 423.6 462.81 329.14 474.7 329.14 445.38 423.6"/>
        <path d="M518.39,425.08h-110.97c-.74,0-1.33-.6-1.33-1.33v-95.35c0-.74,.6-1.33,1.33-1.33h110.97c.74,0,1.33,.6,1.33,1.33v95.35c0,.74-.6,1.33-1.33,1.33Zm-109.64-2.66h108.31v-92.69h-108.31v92.69Z"/>
        <rect class="cls-8" x="407.42" y="302.99" width="110.97" height="15.91"/>
        <path class="cls-3" d="M484.96,374.12c-2.1,0-3.81-1.71-3.81-3.81s1.71-3.81,3.81-3.81,3.81,1.71,3.81,3.81-1.71,3.81-3.81,3.81Zm0-6.33c-1.39,0-2.53,1.13-2.53,2.53s1.13,2.53,2.53,2.53,2.53-1.13,2.53-2.53-1.13-2.53-2.53-2.53Z"/>
        <path class="cls-3" d="M476.53,396.53c-.06,0-.12,0-.18-.03-.34-.1-.54-.46-.44-.8l6.72-22.92c.1-.34,.46-.53,.8-.44,.34,.1,.54,.46,.44,.8l-6.72,22.92c-.08,.28-.34,.46-.62,.46Z"/>
        <path class="cls-3" d="M492.42,396.53c-.28,0-.54-.18-.62-.47l-6.41-22.59c-.1-.34,.1-.7,.44-.79,.34-.1,.7,.1,.79,.44l6.41,22.59c.1,.34-.1,.7-.44,.79-.06,.02-.12,.02-.18,.02Z"/>
        <rect class="cls-8" x="463.65" y="395.89" width="45.54" height="14.55"/>
        <path class="cls-3" d="M509.18,411.79h-45.54c-.74,0-1.34-.6-1.34-1.34v-14.55c0-.74,.6-1.34,1.34-1.34h45.54c.74,0,1.34,.6,1.34,1.34v14.55c0,.74-.6,1.34-1.34,1.34Zm-44.2-2.68h42.86v-11.87h-42.86v11.87Z"/>
        <polyline class="cls-13" points="609.14 453.22 609.14 339.57 543.45 339.57 543.45 453.22"/>
        <polyline class="cls-5" points="609.14 413.32 609.14 400.69 543.45 400.69 543.45 413.32"/>
        <polygon class="cls-9" points="577.39 339.57 571.95 339.57 542.44 382.31 542.52 390.36 577.39 339.57"/>
        <polygon class="cls-8" points="595.89 339.57 589.4 339.57 552.76 392.63 552.84 400.69 595.89 339.57"/>
        <polygon class="cls-8" points="608.52 339.57 599.35 339.57 562.71 392.63 565.48 400.69 608.52 339.57"/>
        <path class="cls-3" d="M609.14,453.73c-.72,0-1.3-.58-1.3-1.3v-112.37h-63.08v112.37c0,.72-.58,1.3-1.3,1.3s-1.3-.58-1.3-1.3v-113.67c0-.72,.58-1.3,1.3-1.3h65.68c.72,0,1.3,.58,1.3,1.3v113.67c0,.72-.58,1.3-1.3,1.3Z"/>
        <path class="cls-3" d="M602.8,452.78c-.49,0-.89-.4-.89-.89v-105.84h-51.56v105.84c0,.49-.4,.89-.89,.89s-.89-.4-.89-.89v-106.73c0-.49,.4-.89,.89-.89h53.35c.49,0,.89,.4,.89,.89v106.73c0,.49-.4,.89-.89,.89Z"/>
        <rect class="cls-13" x="537.14" y="388.57" width="77.94" height="19.87"/>
        <rect class="cls-1" x="537.14" y="400.69" width="77.94" height="7.77"/>
        <path class="cls-3" d="M615.08,409.78h-77.94c-.72,0-1.3-.58-1.3-1.3v-19.87c0-.72,.58-1.3,1.3-1.3h77.94c.72,0,1.3,.58,1.3,1.3v19.87c0,.72-.58,1.3-1.3,1.3Zm-76.64-2.6h75.34v-17.27h-75.34v17.27Z"/>
        <circle class="cls-8" cx="602.8" cy="398.55" r="4.8"/>
        <path class="cls-3" d="M602.8,403.96c-2.98,0-5.4-2.42-5.4-5.4s2.42-5.4,5.4-5.4,5.4,2.42,5.4,5.4-2.42,5.4-5.4,5.4Zm0-9.6c-2.31,0-4.2,1.88-4.2,4.2s1.88,4.2,4.2,4.2,4.2-1.88,4.2-4.2-1.88-4.2-4.2-4.2Z"/>
        <path class="cls-3" d="M554.94,395.14h-17.79c-.34,0-.62-.28-.62-.62s.28-.62,.62-.62h17.79c.34,0,.62,.28,.62,.62s-.28,.62-.62,.62Z"/>
        <path class="cls-3" d="M546.89,398.22h-9.75c-.34,0-.62-.28-.62-.62s.28-.62,.62-.62h9.75c.34,0,.62,.28,.62,.62s-.28,.62-.62,.62Z"/>
        <path class="cls-3" d="M573.31,359.35c-2.04,0-3.69-1.66-3.69-3.69s1.66-3.69,3.69-3.69,3.69,1.66,3.69,3.69-1.66,3.69-3.69,3.69Zm0-6.14c-1.35,0-2.45,1.1-2.45,2.45s1.1,2.45,2.45,2.45,2.45-1.1,2.45-2.45-1.1-2.45-2.45-2.45Z"/>
        <path class="cls-3" d="M565.13,381.09c-.06,0-.12,0-.18-.03-.33-.1-.52-.44-.42-.77l6.53-22.22c.1-.33,.44-.51,.77-.42,.33,.1,.52,.44,.42,.77l-6.53,22.22c-.08,.27-.33,.45-.6,.45Z"/>
        <path class="cls-3" d="M580.54,381.09c-.27,0-.52-.18-.6-.45l-6.22-21.91c-.09-.33,.1-.67,.43-.77,.33-.09,.68,.1,.77,.43l6.22,21.91c.09,.33-.1,.67-.43,.77-.06,.02-.11,.02-.17,.02Z"/>
        <rect class="cls-8" x="552.64" y="380.47" width="44.14" height="14.1"/>
        <path class="cls-3" d="M596.78,395.87h-44.14c-.72,0-1.3-.58-1.3-1.3v-14.1c0-.72,.58-1.3,1.3-1.3h44.14c.72,0,1.3,.58,1.3,1.3v14.1c0,.72-.58,1.3-1.3,1.3Zm-42.84-2.6h41.54v-11.5h-41.54v11.5Z"/>
        <circle class="cls-33" cx="538.79" cy="434.28" r=".29"/>
        <circle class="cls-31" cx="623.92" cy="441.96" r="1.13"/>
        <circle class="cls-31" cx="622.5" cy="430.88" r="1.42"/>
        <circle class="cls-31" cx="619.71" cy="436.55" r=".72"/>
        <circle class="cls-33" cx="398.95" cy="422.55" r="1.28"/>
        <circle class="cls-31" cx="432.48" cy="438.63" r=".78"/>
        <circle class="cls-31" cx="440.04" cy="441.53" r="1.22"/>
        <circle class="cls-31" cx="462.67" cy="445.08" r=".56"/>
        <circle class="cls-31" cx="501.55" cy="441.96" r=".99"/>
        <circle class="cls-31" cx="503.22" cy="435.41" r=".66"/>
        <circle class="cls-31" cx="456.9" cy="438.63" r=".78"/>
        <circle class="cls-31" cx="526.3" cy="444.52" r=".89"/>
        <circle class="cls-31" cx="484.67" cy="443.3" r=".56"/>
        <circle class="cls-31" cx="474.35" cy="433.85" r="1.11"/>
        <circle class="cls-31" cx="531.35" cy="425.01" r=".56"/>
        <circle class="cls-31" cx="480.08" cy="442.73" r=".56"/>
        <circle class="cls-31" cx="441.62" cy="449.63" r=".45"/>
        <circle class="cls-31" cx="484.12" cy="445.45" r=".56"/>
        <path d="M631.65,454.57h-240.36c-.74,0-1.33-.6-1.33-1.33v-195.56c0-.74,.6-1.33,1.33-1.33h240.36c.74,0,1.33,.6,1.33,1.33v195.56c0,.74-.6,1.33-1.33,1.33Zm-239.03-2.66h237.7v-192.9h-237.7v192.9Z"/>
        <path class="cls-15" d="M209.15,144.58c.12-28.18-22.62-51.12-50.79-51.24-23.91-.1-44.69,16.42-49.98,39.74-16.16-8.73-36.34-2.71-45.07,13.45-8.73,16.16-2.71,36.34,13.45,45.07,4.36,2.36,9.19,3.71,14.14,3.96h72.06v-.23c26.17-2.48,46.18-24.45,46.2-50.74Z"/>
        <path class="cls-16" d="M276.38,40.55c-.03-18.15,14.66-32.9,32.81-32.93,15.34-.03,28.66,10.56,32.09,25.51,10.44-5.5,23.37-1.5,28.87,8.94,5.5,10.44,1.5,23.37-8.94,28.87-2.67,1.41-5.61,2.23-8.62,2.42h-46.45v-.12c-16.87-1.59-29.76-15.75-29.76-32.7Z"/>
        <path class="cls-2" d="M371.44,396.92c-7.47-21.05-30.6-32.06-51.65-24.59-16.21,5.76-27.01,21.14-26.92,38.34l.16,44.82,25.84,.64,61.16-.21c16.42-.06,29.67-13.42,29.61-29.84-.06-16.42-13.42-29.67-29.84-29.61-16.41,.06-29.66,13.41-29.61,29.82"/>
        <path class="cls-35" d="M345.55,427h-.14c-1.21-.07-2.13-1.11-2.06-2.32,0,0,0,0,0,0h0c.47-14.46,10.15-26.99,24.03-31.08,1.15-.38,2.39,.26,2.77,1.41,.38,1.15-.26,2.39-1.41,2.77-12.16,3.52-20.66,14.5-21.02,27.16-.07,1.15-1.02,2.06-2.18,2.08Z"/>
        <path class="cls-35" d="M409.17,426.59c.05,16.42-13.21,29.77-29.63,29.82h-4.33c15.87-7.58,22.59-26.58,15.02-42.45-3.58-7.51-9.97-13.32-17.78-16.18,15.94-3.88,32.01,5.91,35.88,21.85,0,0,0,0,0,0,.55,2.28,.83,4.61,.84,6.96Z"/>
        <circle class="cls-35" cx="390.62" cy="417.15" r="4.62"/>
        <circle class="cls-35" cx="387.24" cy="425.44" r="2.2"/>
        <ellipse class="cls-35" cx="384.02" cy="420.31" rx=".97" ry="1.4" transform="translate(-1.46 1.34) rotate(-.2)"/>
        <path class="cls-3" d="M370.22,398.15c-.51,0-.97-.32-1.15-.8-2.27-6.37-6.16-12.05-11.27-16.47-.54-.42-.63-1.19-.21-1.73s1.19-.63,1.73-.21h0c5.42,4.71,9.54,10.73,11.97,17.48,.23,.63-.09,1.34-.73,1.57,0,0,0,0,0,0-.1,.07-.21,.12-.33,.16Z"/>
        <path class="cls-3" d="M354.33,377.94c-.24,0-.47-.07-.68-.19-1-.7-2.04-1.35-3.11-1.94-.63-.23-.96-.94-.73-1.57,.23-.63,.94-.96,1.57-.73,.09,.03,.17,.07,.24,.12h0c1.13,.6,2.23,1.26,3.32,1.94,.55,.38,.69,1.13,.33,1.69-.18,.37-.54,.63-.95,.68Z"/>
        <path class="cls-3" d="M346.95,374.1c-.15,.03-.31,.03-.47,0-5.88-2.31-12.23-3.17-18.51-2.51-.67,.08-1.28-.4-1.36-1.07,0,0,0,0,0-.01-.06-.67,.44-1.27,1.11-1.34,1.4-.14,2.84-.21,4.25-.21,5.27-.04,10.5,.93,15.41,2.86,.63,.25,.93,.96,.68,1.59,0,0,0,0,0,0-.18,.45-.62,.75-1.11,.76v-.06Z"/>
        <path class="cls-3" d="M378.81,457.15l-61.18,.21c-.67,0-1.2-.54-1.2-1.2-.02-.65,.49-1.2,1.15-1.22,.02,0,.04,0,.06,0l61.16-.23c15.74-.06,28.45-12.88,28.38-28.62-.06-15.74-12.88-28.45-28.62-28.38-15.73,.06-28.44,12.86-28.38,28.6h0c.02,.65-.49,1.2-1.15,1.22-.02,0-.04,0-.06,0-.67,0-1.21-.54-1.22-1.2-.06-17.09,13.74-31,30.83-31.06,17.09-.06,31,13.74,31.06,30.83,.06,17.08-13.73,30.99-30.81,31.06h-.02Z"/>
        <path class="cls-8" d="M320.52,380.51c-.8,0-1.46-.65-1.46-1.46,0,0,0-.01,0-.02-.01-.58,.33-1.12,.87-1.34,5.14-2.08,10.7-2.93,16.22-2.47,.81,.13,1.35,.89,1.22,1.69-.11,.7-.71,1.22-1.42,1.24-5.07-.43-10.16,.34-14.88,2.23-.18,.08-.37,.12-.56,.12Z"/>
        <path class="cls-8" d="M311.49,387.15c-.33,0-.66-.12-.91-.33-.62-.51-.72-1.43-.21-2.06,1.03-1.28,2.2-2.44,3.5-3.46,.63-.5,1.55-.41,2.06,.21,.51,.63,.41,1.54-.22,2.05,0,0,0,0-.01,.01-1.13,.89-2.15,1.91-3.05,3.03-.29,.33-.71,.53-1.15,.54Z"/>
        <path class="cls-3" d="M109.31,238.96c-19.82,0-35.57-6.47-46.74-19.21-7.32-8.31-16.53-24.01-19-51.52-.9-9.85-.83-19.76,.21-29.59,.1-.57,.64-.95,1.21-.86,.54,.09,.92,.58,.87,1.13,0,.52-6.35,51.39,18.32,79.46,10.74,12.26,25.94,18.49,45.13,18.49,.58,0,1.05,.47,1.05,1.05h0c0,.58-.47,1.05-1.05,1.05h0Z"/>
        <path class="cls-3" d="M120.29,238.96c-19.82,0-35.57-6.47-46.74-19.21-7.32-8.31-16.53-24.01-19-51.52-.89-9.85-.82-19.76,.21-29.59,.08-.57,.61-.97,1.18-.89,0,0,0,0,0,0,.57,.06,.98,.57,.92,1.13,0,.01,0,.02,0,.03,0,.52-6.35,51.39,18.3,79.46,10.74,12.26,25.94,18.49,45.13,18.49,.58,0,1.05,.47,1.05,1.05h0c0,.58-.47,1.05-1.05,1.05h0Z"/>
        <rect class="cls-1" x="22.22" y="128.86" width="125.02" height="10.47"/>
        <rect class="cls-13" x="21.69" y="128.34" width="125.02" height="4.18"/>
        <path class="cls-3" d="M147.23,140.11H22.22c-.73,0-1.32-.59-1.32-1.32h0v-10.45c.01-.72,.6-1.3,1.32-1.3h125.02c.72,0,1.3,.58,1.3,1.3v10.45c.01,.72-.56,1.31-1.28,1.32,0,0-.01,0-.02,0Zm-123.71-2.62h122.39v-7.77H23.52v7.77Z"/>
        <rect class="cls-29" x="68.24" y="95.39" width="13.07" height="85.79"/>
        <rect class="cls-20" x="73.47" y="95.39" width="5.75" height="85.79"/>
        <rect class="cls-8" x="67.19" y="95.39" width="3.15" height="85.79"/>
        <path class="cls-3" d="M80.01,182.21h-13.07c-.72,0-1.3-.58-1.3-1.3V95.2c0-.72,.58-1.3,1.3-1.3h13.07c.72,0,1.3,.58,1.3,1.3v85.71c0,.72-.58,1.3-1.3,1.3Zm-11.77-2.6h10.47V96.42h-10.47v83.19Z"/>
        <rect class="cls-13" x="79.76" y="82.3" width="12.03" height="371.39"/>
        <rect class="cls-1" x="84.46" y="82.3" width="6.28" height="371.39"/>
        <path class="cls-3" d="M79.49,276.63c-.72,0-1.3-.58-1.3-1.3h0v-7.03c0-.72,.58-1.3,1.3-1.3s1.3,.58,1.3,1.3v7.03c.01,.71-.55,1.29-1.26,1.3,0,0-.01,0-.02,0h-.02Z"/>
        <path class="cls-3" d="M79.49,288.32c-.72,0-1.3-.58-1.3-1.3v-4.16c0-.72,.58-1.3,1.3-1.3s1.3,.58,1.3,1.3h0v4.16c0,.72-.58,1.3-1.3,1.3h0Z"/>
        <path class="cls-3" d="M92.04,454.8h-12.03c-.72,0-1.3-.58-1.3-1.3v-160.3c0-.72,.58-1.3,1.3-1.3s1.3,.58,1.3,1.3v158.97h9.42V83.4h-9.42v175.68c0,.72-.58,1.3-1.3,1.3s-1.3-.58-1.3-1.3V82.1c-.01-.72,.56-1.31,1.28-1.32,0,0,.01,0,.02,0h12.03c.73,0,1.32,.59,1.32,1.32h0V453.5c-.01,.72-.6,1.3-1.32,1.3Z"/>
        <path class="cls-3" d="M87.39,197.38c-.43,0-.78-.35-.78-.78h0v-8.9c0-.43,.35-.78,.78-.78,.43,0,.78,.35,.78,.78v8.9c0,.43-.35,.78-.78,.78Z"/>
        <path class="cls-3" d="M87.39,326.07c-.43,0-.78-.35-.78-.78,0,0,0-.01,0-.02h0v-8.88c0-.43,.35-.78,.78-.78,.43,0,.78,.35,.78,.78h0v8.88c.01,.43-.33,.79-.76,.8,0,0-.01,0-.02,0Z"/>
        <path class="cls-3" d="M87.39,313c-.43-.01-.78-.36-.78-.8v-5.25c0-.43,.35-.78,.78-.78,.43,0,.78,.35,.78,.78v5.23c.01,.44-.34,.81-.78,.82h0Z"/>
        <path class="cls-3" d="M31.89,135.14h-8.9c-.43-.07-.73-.48-.66-.91,.05-.34,.32-.61,.66-.66h8.9c.43,.07,.73,.48,.66,.91-.05,.34-.32,.61-.66,.66Z"/>
        <path class="cls-3" d="M43.39,135.14h-6.8c-.43-.07-.73-.48-.66-.91,.05-.34,.32-.61,.66-.66h6.8c.43-.07,.84,.23,.91,.66,.07,.43-.23,.84-.66,.91-.08,.01-.17,.01-.25,0Z"/>
        <path class="cls-3" d="M85.24,416.56c-.43,0-.78-.35-.78-.78,0,0,0-.01,0-.02v-8.88c-.07-.43,.23-.84,.66-.91,.43-.07,.84,.23,.91,.66,.01,.08,.01,.17,0,.25v8.86c.01,.44-.34,.8-.78,.82,0,0-.01,0-.02,0Z"/>
        <path class="cls-3" d="M1.02,189.28c-.58-.02-1.04-.5-1.02-1.08,.01-.46,.32-.86,.77-.98,27.2-7.05,28.07-47.42,28.09-47.83,0-.58,.47-1.05,1.05-1.05,.58,0,1.05,.47,1.05,1.05h0c-.3,7.47-1.61,14.86-3.89,21.97-4.95,15.15-13.87,24.77-25.78,27.88l-.27,.04Z"/>
        <path class="cls-3" d="M8.34,192.93c-.57,0-1.04-.46-1.05-1.03,0-.48,.33-.91,.8-1.03,27.2-7.03,28.07-51.04,28.09-51.48,0-.58,.47-1.05,1.05-1.05,.58,0,1.05,.47,1.05,1.05h0c-.32,8.06-1.62,16.04-3.89,23.78-4.93,16.36-13.85,26.62-25.76,29.72l-.29,.04Z"/>
        <circle class="cls-33" cx="79.84" cy="384.16" r="16.59"/>
        <circle class="cls-34" cx="79.84" cy="384.16" r="16.59"/>
        <path d="M79.84,402.17c-9.93,0-18.01-8.08-18.01-18.01s8.08-18.01,18.01-18.01,18.01,8.08,18.01,18.01-8.08,18.01-18.01,18.01Zm0-33.18c-8.37,0-15.17,6.81-15.17,15.17s6.81,15.17,15.17,15.17,15.17-6.81,15.17-15.17-6.81-15.17-15.17-15.17Z"/>
        <circle class="cls-33" cx="96.58" cy="383.03" r="16.59"/>
        <circle class="cls-34" cx="96.58" cy="383.03" r="16.59"/>
        <path d="M96.58,401.04c-9.93,0-18.01-8.08-18.01-18.01s8.08-18.01,18.01-18.01,18.01,8.08,18.01,18.01-8.08,18.01-18.01,18.01Zm0-33.18c-8.37,0-15.17,6.81-15.17,15.17s6.81,15.17,15.17,15.17,15.17-6.81,15.17-15.17-6.81-15.17-15.17-15.17Z"/>
        <circle class="cls-33" cx="118.15" cy="385.01" r="16.59"/>
        <circle class="cls-34" cx="118.15" cy="385.01" r="16.59"/>
        <path d="M118.15,403.02c-9.93,0-18.01-8.08-18.01-18.01s8.08-18.01,18.01-18.01,18.01,8.08,18.01,18.01-8.08,18.01-18.01,18.01Zm0-33.18c-8.37,0-15.17,6.81-15.17,15.17s6.81,15.17,15.17,15.17,15.17-6.81,15.17-15.17-6.81-15.17-15.17-15.17Z"/>
        <path class="cls-27" d="M141.27,377.59c-.85,0-67.26-5.4-67.26-5.4v-9.36s52.78-1.71,70.95,6.82"/>
        <rect class="cls-27" x="76.01" y="380.35" width="68.19" height="75.84"/>
        <rect class="cls-8" x="76.01" y="380.35" width="4.39" height="75.84"/>
        <rect class="cls-33" x="125.59" y="380.35" width="13.5" height="75.84"/>
        <path d="M144.2,457.61H76.01c-.78,0-1.42-.63-1.42-1.42v-75.84c0-.78,.63-1.42,1.42-1.42h68.19c.78,0,1.42,.63,1.42,1.42v75.84c0,.78-.63,1.42-1.42,1.42Zm-66.77-2.84h65.35v-73.01H77.43v73.01Z"/>
        <path d="M85.55,444.93c-.57,0-1.03-.46-1.03-1.03v-35.81c0-.57,.46-1.03,1.03-1.03s1.03,.46,1.03,1.03v35.81c0,.57-.46,1.03-1.03,1.03Z"/>
        <path d="M94.64,444.93c-.57,0-1.03-.46-1.03-1.03v-55.23c0-.57,.46-1.03,1.03-1.03s1.03,.46,1.03,1.03v55.23c0,.57-.46,1.03-1.03,1.03Z"/>
        <path d="M470.8,311.91h-55.23c-.54,0-.97-.43-.97-.97s.43-.97,.97-.97h55.23c.54,0,.97,.43,.97,.97s-.43,.97-.97,.97Z"/>
        <path class="cls-8" d="M119.71,367.38c-13.66-1.82-39.18-1.55-39.43-1.55l-.02-1.94c.26,0,25.91-.27,39.71,1.56l-.26,1.93Z"/>
        <path d="M141.27,378.82c-.86,0-56.26-4.5-67.36-5.41-.63-.05-1.12-.58-1.12-1.22v-9.36c0-.66,.52-1.2,1.18-1.22,2.17-.07,53.29-1.62,71.51,6.94,.61,.29,.88,1.02,.59,1.63-.29,.61-1.02,.87-1.63,.59-16.2-7.61-61.3-6.92-69.21-6.74v7.04c22.99,1.87,64.88,5.26,66.06,5.31,.67,.02,1.2,.58,1.19,1.25-.01,.67-.55,1.2-1.21,1.2Z"/>
        <rect class="cls-7" x="138.28" y="38.76" width="195.17" height="417.34"/>
        <rect class="cls-25" x="138.18" y="404.77" width="27.51" height="10.94"/>
        <path d="M165.8,416.65h-27.63c-.57,0-1.04-.47-1.04-1.04v-11.02c0-.57,.47-1.04,1.04-1.04h27.63c.57,0,1.04,.47,1.04,1.04v11.02c0,.57-.47,1.04-1.04,1.04Zm-26.59-2.08h25.55v-8.94h-25.55v8.94Z"/>
        <rect class="cls-26" x="294.72" y="38.76" width="38.72" height="417.34"/>
        <rect class="cls-26" x="256.34" y="38.76" width="76.78" height="417.34"/>
        <rect class="cls-25" x="226.77" y="392.22" width="91.89" height="4.31"/>
        <rect class="cls-25" x="138.28" y="38.76" width="195.17" height="13.37"/>
        <rect class="cls-17" x="170.99" y="104.85" width="81.07" height="98.94"/>
        <path class="cls-14" d="M252.02,203.33h-81.01V104.15h81.01v99.18Zm-77.13-3.89h73.24V108.04h-73.24v91.41Z"/>
        <rect class="cls-14" x="171.28" y="154.93" width="80.72" height="2.12"/>
        <path d="M333.46,458.04H138.28c-1.07,0-1.94-.87-1.94-1.94v-158.24c0-1.07,.87-1.94,1.94-1.94s1.94,.87,1.94,1.94v156.29h191.3V201.56c0-1.07,.87-1.94,1.94-1.94s1.94,.87,1.94,1.94v254.54c0,1.07-.87,1.94-1.94,1.94Z"/>
        <path d="M138.28,242.88c-1.07,0-1.94-.87-1.94-1.94V38.76c0-1.07,.87-1.94,1.94-1.94h195.19c1.07,0,1.94,.87,1.94,1.94V179.63c0,1.07-.87,1.94-1.94,1.94s-1.94-.87-1.94-1.94V40.7H140.22V240.94c0,1.07-.87,1.94-1.94,1.94Z"/>
        <path d="M138.28,287.53c-1.07,0-1.94-.87-1.94-1.94v-9.56c0-1.07,.87-1.94,1.94-1.94s1.94,.87,1.94,1.94v9.56c0,1.07-.87,1.94-1.94,1.94Z"/>
        <path d="M138.28,265.09c-1.07,0-1.94-.87-1.94-1.94v-9.56c0-1.07,.87-1.94,1.94-1.94s1.94,.87,1.94,1.94v9.56c0,1.07-.87,1.94-1.94,1.94Z"/>
        <rect class="cls-25" x="295.11" y="99.29" width="19.47" height="7.73"/>
        <path d="M314.64,107.71h-19.54c-.41,0-.74-.33-.74-.74v-7.79c0-.41,.33-.74,.74-.74h19.54c.41,0,.74,.33,.74,.74v7.79c0,.41-.33,.74-.74,.74Zm-18.81-1.48h18.07v-6.31h-18.07v6.31Z"/>
        <rect class="cls-25" x="281.42" y="107.22" width="19.47" height="7.73"/>
        <path d="M300.96,115.61h-19.54c-.41,0-.74-.33-.74-.74v-7.79c0-.41,.33-.74,.74-.74h19.54c.41,0,.74,.33,.74,.74v7.79c0,.41-.33,.74-.74,.74Zm-18.81-1.48h18.07v-6.31h-18.07v6.31Z"/>
        <rect class="cls-25" x="293.83" y="115.28" width="19.47" height="7.73"/>
        <path d="M313.37,123.69h-19.54c-.41,0-.74-.33-.74-.74v-7.79c0-.41,.33-.74,.74-.74h19.54c.41,0,.74,.33,.74,.74v7.79c0,.41-.33,.74-.74,.74Zm-18.81-1.48h18.07v-6.31h-18.07v6.31Z"/>
        <rect class="cls-25" x="173.09" y="246.87" width="19.47" height="7.73"/>
        <path d="M192.61,255.26h-19.54c-.41,0-.74-.33-.74-.74v-7.79c0-.41,.33-.74,.74-.74h19.54c.41,0,.74,.33,.74,.74v7.79c0,.41-.33,.74-.74,.74Zm-18.81-1.48h18.07v-6.31h-18.07v6.31Z"/>
        <rect class="cls-25" x="159.41" y="254.77" width="19.47" height="7.73"/>
        <path d="M178.96,263.16h-19.54c-.41,0-.74-.33-.74-.74v-7.79c0-.41,.33-.74,.74-.74h19.54c.41,0,.74,.33,.74,.74v7.79c0,.41-.33,.74-.74,.74Zm-18.81-1.48h18.07v-6.31h-18.07v6.31Z"/>
        <rect class="cls-25" x="171.83" y="262.85" width="19.47" height="7.73"/>
        <path d="M191.37,271.25h-19.54c-.41,0-.74-.33-.74-.74v-7.79c0-.41,.33-.74,.74-.74h19.54c.41,0,.74,.33,.74,.74v7.79c0,.41-.33,.74-.74,.74Zm-18.81-1.48h18.07v-6.31h-18.07v6.31Z"/>
        <rect class="cls-25" x="195.64" y="305.98" width="19.47" height="7.73"/>
        <path d="M215.19,314.38h-19.54c-.41,0-.74-.33-.74-.74v-7.79c0-.41,.33-.74,.74-.74h19.54c.41,0,.74,.33,.74,.74v7.79c0,.41-.33,.74-.74,.74Zm-18.81-1.48h18.07v-6.31h-18.07v6.31Z"/>
        <rect class="cls-25" x="287.58" y="237.31" width="19.47" height="7.73"/>
        <path d="M307.12,245.7h-19.54c-.41,0-.74-.33-.74-.74v-7.79c0-.41,.33-.74,.74-.74h19.54c.41,0,.74,.33,.74,.74v7.79c0,.41-.33,.74-.74,.74Zm-18.81-1.48h18.07v-6.31h-18.07v6.31Z"/>
        <rect class="cls-25" x="193.39" y="409.82" width="19.47" height="7.73"/>
        <path d="M212.93,418.23h-19.54c-.41,0-.74-.33-.74-.74v-7.79c0-.41,.33-.74,.74-.74h19.54c.41,0,.74,.33,.74,.74v7.79c0,.41-.33,.74-.74,.74Zm-18.81-1.48h18.07v-6.31h-18.07v6.31Z"/>
        <rect class="cls-25" x="207.55" y="417.77" width="19.47" height="7.73"/>
        <path d="M227.1,426.18h-19.54c-.41,0-.74-.33-.74-.74v-7.79c0-.41,.33-.74,.74-.74h19.54c.41,0,.74,.33,.74,.74v7.79c0,.41-.33,.74-.74,.74Zm-18.81-1.48h18.07v-6.31h-18.07v6.31Z"/>
        <rect class="cls-25" x="305.55" y="438.01" width="19.47" height="7.73"/>
        <path d="M325.09,446.4h-19.54c-.41,0-.74-.33-.74-.74v-7.79c0-.41,.33-.74,.74-.74h19.54c.41,0,.74,.33,.74,.74v7.79c0,.41-.33,.74-.74,.74Zm-18.81-1.48h18.07v-6.31h-18.07v6.31Z"/>
        <rect class="cls-25" x="168.56" y="366.03" width="19.47" height="7.73"/>
        <path d="M188.03,374.45h-19.54c-.41,0-.74-.33-.74-.74v-7.79c0-.41,.33-.74,.74-.74h19.54c.41,0,.74,.33,.74,.74v7.79c0,.41-.33,.74-.74,.74Zm-18.81-1.48h18.07v-6.31h-18.07v6.31Z"/>
        <rect class="cls-25" x="182.24" y="373.94" width="19.47" height="7.73"/>
        <path d="M201.71,382.35h-19.54c-.41,0-.74-.33-.74-.74v-7.79c0-.41,.33-.74,.74-.74h19.54c.41,0,.74,.33,.74,.74v7.79c0,.41-.33,.74-.74,.74Zm-18.81-1.48h18.07v-6.31h-18.07v6.31Z"/>
        <rect class="cls-25" x="169.84" y="382.02" width="19.47" height="7.73"/>
        <path d="M189.31,390.43h-19.54c-.41,0-.74-.33-.74-.74v-7.79c0-.41,.33-.74,.74-.74h19.54c.41,0,.74,.33,.74,.74v7.79c0,.41-.33,.74-.74,.74Zm-18.81-1.48h18.07v-6.31h-18.07v6.31Z"/>
        <rect class="cls-25" x="165.12" y="211.84" width="91.89" height="4.31"/>
        <rect class="cls-25" x="123.72" y="26.97" width="222.13" height="16.77"/>
        <rect class="cls-23" x="123.72" y="26.97" width="222.13" height="4.8"/>
        <polygon points="347.8 45.69 121.78 45.69 121.78 25.02 140.94 25.02 140.94 28.91 125.67 28.91 125.67 41.81 343.91 41.81 343.91 28.91 150.69 28.91 150.69 25.02 347.8 25.02 347.8 45.69"/>
        <path d="M146.88,36.54h-15.85c-.61,0-1.11-.5-1.11-1.11s.5-1.11,1.11-1.11h15.85c.61,0,1.11,.5,1.11,1.11s-.5,1.11-1.11,1.11Z"/>
        <path d="M157.64,36.54h-4.99c-.61,0-1.11-.5-1.11-1.11s.5-1.11,1.11-1.11h4.99c.61,0,1.11,.5,1.11,1.11s-.5,1.11-1.11,1.11Z"/>
        <rect class="cls-17" x="231.25" y="285.68" width="81.07" height="98.94"/>
        <path class="cls-14" d="M312.31,384.18h-81.01v-99.18h81.01v99.18Zm-77.13-3.89h73.24v-91.41h-73.24v91.41Z"/>
        <polygon class="cls-8" points="259.97 384.64 254.08 384.64 285.11 285.16 290.99 285.16 259.97 384.64"/>
        <polygon class="cls-8" points="274.46 384.64 265.47 384.64 296.51 285.16 305.51 285.16 274.46 384.64"/>
        <rect x="231.57" y="333.79" width="80.72" height="2.12"/>
        <rect class="cls-14" x="231.57" y="335.77" width="80.72" height="2.12"/>
        <path d="M312.33,385.39h-81.07c-.58,0-1.06-.47-1.06-1.06v-98.94c0-.58,.47-1.06,1.06-1.06h13.99c.58,0,1.06,.47,1.06,1.06s-.47,1.06-1.06,1.06h-12.93v96.83h78.95v-96.83h-58.93c-.58,0-1.06-.47-1.06-1.06s.47-1.06,1.06-1.06h59.99c.58,0,1.06,.47,1.06,1.06v98.94c0,.58-.47,1.06-1.06,1.06Z"/>
        <rect x="270.74" y="285.68" width="2.12" height="98.34"/>
        <rect class="cls-6" x="224.13" y="382.97" width="95.33" height="9.75"/>
        <rect class="cls-25" x="224.13" y="387.29" width="95.33" height="5.44"/>
        <path d="M319.46,393.43h-95.33c-.39,0-.7-.31-.7-.7v-9.75c0-.39,.31-.7,.7-.7h95.33c.39,0,.7,.31,.7,.7v9.75c0,.39-.31,.7-.7,.7Zm-94.63-1.4h93.93v-8.35h-93.93v8.35Z"/>
        <circle class="cls-25" cx="235.94" cy="229.94" r="1.32"/>
        <circle class="cls-25" cx="305.18" cy="415.51" r="1.32"/>
        <circle class="cls-25" cx="154.59" cy="448.44" r="1.32"/>
        <circle class="cls-25" cx="222.71" cy="227.67" r=".95"/>
        <circle class="cls-25" cx="282.49" cy="446.93" r=".95"/>
        <circle class="cls-25" cx="153.66" cy="432.36" r=".95"/>
        <circle class="cls-25" cx="289.28" cy="427.25" r=".95"/>
        <circle class="cls-25" cx="147.99" cy="93.17" r=".76"/>
        <circle class="cls-25" cx="191.49" cy="83.34" r=".37"/>
        <circle class="cls-25" cx="148.36" cy="174.15" r="2.27"/>
        <circle class="cls-25" cx="152.9" cy="208.94" r="1.52"/>
        <circle class="cls-25" cx="147.41" cy="390.36" r=".95"/>
        <circle class="cls-25" cx="150.24" cy="370.5" r="1.13"/>
        <circle class="cls-25" cx="174.6" cy="324.61" r="1.13"/>
        <circle class="cls-25" cx="246.72" cy="252.07" r="2.27" transform="translate(-41.62 455.23) rotate(-80.78)"/>
        <circle class="cls-22" cx="270.38" cy="87.7" r="1.32"/>
        <circle class="cls-22" cx="189.04" cy="34.91" r="1.32"/>
        <circle class="cls-22" cx="207.38" cy="33.22" r=".76"/>
        <circle class="cls-22" cx="268.11" cy="35.67" r="1.32"/>
        <circle class="cls-22" cx="340.94" cy="30.95" r="1.13"/>
        <circle class="cls-22" cx="329.58" cy="34.35" r="1.88"/>
        <circle class="cls-22" cx="170.49" cy="36.43" r="1.71"/>
        <circle class="cls-22" cx="233.29" cy="35.67" r=".95"/>
        <path class="cls-3" d="M238.77,358.09c-.39,.06-.76-.22-.81-.61-.05-.38,.2-.73,.58-.81l13.6-4.74c.36-.14,.76,.05,.9,.41,0,.01,0,.02,.01,.04,.13,.37-.06,.78-.43,.91l-13.6,4.76-.25,.04Z"/>
        <path class="cls-3" d="M241.09,361.35c-.39,0-.7-.31-.7-.7,0-.01,0-.03,0-.04,0-.3,.19-.56,.47-.66l7.5-2.51c.36-.16,.79,0,.95,.37,0,0,0,.01,0,.02,.14,.38-.04,.79-.41,.95h0l-7.58,2.56h-.23Z"/>
        <path class="cls-3" d="M415.52,346.59c-.4,0-.72-.32-.72-.72,0-.31,.2-.58,.49-.68l13.6-4.76c.38-.13,.79,.06,.92,.44,.13,.38-.06,.79-.44,.92l-13.6,4.76-.25,.04Z"/>
        <path class="cls-3" d="M417.84,349.91c-.39,0-.7-.31-.7-.7,0-.01,0-.03,0-.04,0-.3,.19-.56,.47-.66l7.5-2.51c.37-.15,.79,.03,.94,.4s-.03,.79-.4,.94h0l-7.5,2.51c-.09,.05-.2,.07-.31,.06Z"/>
        <circle cx="333.17" cy="190.21" r="2.54"/>
        <circle class="cls-33" cx="125.3" cy="447.65" r="4.04"/>
        <circle class="cls-33" cx="122.67" cy="438.92" r=".72"/>
        <circle class="cls-33" cx="107.07" cy="446.6" r=".72"/>
        <circle class="cls-33" cx="112.11" cy="451.07" r=".64"/>
        <circle class="cls-33" cx="117.08" cy="451.2" r="1.63"/>
        <circle class="cls-33" cx="123.61" cy="393.6" r="3.61"/>
        <circle class="cls-33" cx="109.19" cy="395.8" r="1.13"/>
        <circle class="cls-33" cx="111.83" cy="407.65" r="1.07"/>
        <circle class="cls-33" cx="120.48" cy="420.41" r=".64"/>
        <path d="M319.55,388.22h-13.62c-.39,0-.7-.31-.7-.7s.31-.7,.7-.7h13.62c.39,0,.7,.31,.7,.7s-.31,.7-.7,.7Z"/>
        <path d="M300.96,388.22h-3.9c-.39,0-.7-.31-.7-.7s.31-.7,.7-.7h3.9c.39,0,.7,.31,.7,.7s-.31,.7-.7,.7Z"/>
        <rect class="cls-29" x="22.76" y="450.91" width="721.89" height="15.83"/>
        <rect class="cls-8" x="22.93" y="451.96" width="721.89" height="6.86"/>
        <path d="M744.64,469.7H22.76c-1.07,0-1.94-.87-1.94-1.94v-15.83c0-1.07,.87-1.94,1.94-1.94H744.64c1.07,0,1.94,.87,1.94,1.94v15.83c0,1.07-.87,1.94-1.94,1.94Zm-719.94-3.89H742.7v-11.95H24.7v11.95Z"/>
        <path class="cls-11" d="M648.11,267.79l-52.12-54.57h-167.58l-48.45,50.26c-1.37,1.29-2.67,2.66-3.89,4.1-.49,.76-.83,1.61-.99,2.51h-.16v.74c-.08,.69-.08,1.39,0,2.08v3.19c.38,8.4,7.5,14.91,15.91,14.53,8-.36,14.36-6.87,14.54-14.88h0v-2.21h0v2.56c.1,8.4,6.99,15.13,15.39,15.04s15.13-6.99,15.04-15.39h0v-1.94h0v2.2c.38,8.4,7.5,14.91,15.91,14.53,8-.36,14.36-6.87,14.54-14.88h0v-1.46h0v1.81c.1,8.4,6.99,15.13,15.39,15.04s15.13-6.99,15.04-15.39h0v-1.07h0v1.44c.38,8.4,7.5,14.91,15.9,14.53,8-.36,14.36-6.87,14.54-14.88v-.7h0v1.05c.1,8.4,6.99,15.13,15.39,15.04,8.4-.1,15.13-6.99,15.04-15.39h0v-.33h0v.68c.37,8.4,7.49,14.91,15.89,14.54,8-.36,14.36-6.85,14.55-14.85h0v.31c.1,8.4,6.99,15.13,15.39,15.04,8.4-.1,15.13-6.99,15.04-15.39v-5.61h0v6.02c.38,8.4,7.5,14.91,15.9,14.53,8-.36,14.36-6.87,14.54-14.88v-5.67l-.72-2.25Zm-202.05-53.93h-.72l.12-.21,.6,.21Z"/>
        <path class="cls-19" d="M555.6,213.47l27.68,56.57s4.47,12.9-7.36,20.63l5.36-1.94s11.33-8.18,3.75-26.13c-7.58-17.95-25.1-48.35-25.1-48.35l-4.33-.78Z"/>
        <path class="cls-8" d="M519.48,213.86l7.09,52.45,.43,7.93s-2.18,12.86,8.49,15.39l4.43,1.71s10.84,.82,15-7.52,2.1-13.75,2.1-13.75l-17.1-55.82-20.44-.39Z"/>
        <path class="cls-30" d="M554.49,283.84c-3.11,5.3-9.11,8.18-15.19,7.3,2.49,.49,6.1-1.42,8.02-2.86,2.47-1.91,4.28-4.55,5.19-7.54,2.7-7.62-.6-15.74-2.62-23.31l-5.83-19.08-7.48-24.13-17.48-.35h0l20.42,.41,8.7,27.9,5.5,17.29c2.16,7.89,5.42,16.05,1.09,23.86l-.31,.51Z"/>
        <path class="cls-19" d="M592.51,213.86l51.7,57.49s6.88,16.2-10.74,19.76c0,0,15.74,1.94,15.33-19.43l-1.26-4.18-52.1-53.72-2.91,.08Z"/>
        <path class="cls-8" d="M445.48,213.22l-40.43,54.57v6.26s-2.51,16.26,13.35,17.48c15.85,1.22,17.35-13.72,17.35-13.72l-.27-7.13,.84-4.58,27.2-52.45-18.03-.43Z"/>
        <path class="cls-8" d="M482.39,213.43l-16.16,54.14-.84,5.83s.25,15.06,11.38,17.33,15.87-3.71,17.04-5.73,2.43-12.03,2.43-12.03l6.66-59.97-20.52,.43Z"/>
        <path class="cls-8" d="M558.69,214.27l28.34,52.9,.84,11.15s.87,13.44,13.15,13.04,16.92-12.18,16.92-12.18v-7.77l-40.45-57.49-18.81,.35Z"/>
        <path class="cls-30" d="M574.13,214.44l37.07,51.23c3.2,4.92,4.29,10.92,3.03,16.65-.43,3.2-2.35,6.01-5.19,7.56,0,0,11.35-3.13,9.01-18.34-.82-5.3-7.77-11-13.93-20.73-8.33-12.95-17.31-25.47-26.91-37.51l-3.09,1.15Z"/>
        <path class="cls-19" d="M517.23,213.02l6.02,56.65s2.35,20.19-13.21,21.14c0,0,17.81,3.05,17.17-20.09-.64-23.14-7.77-57.29-7.77-57.29l-2.21-.41Z"/>
        <path class="cls-30" d="M499.06,213.86l-7.58,53.31c2.74,8.77-.38,18.31-7.77,23.76l7.77-3.4,4.16-9.17s7.09-64.11,6.26-64.56c-.94-.19-1.91-.17-2.84,.06Z"/>
        <path class="cls-19" d="M479.05,213.43l-17.1,56.34s4.58,14.16-7.98,21.7c0,0,14.65-4.6,11.54-20.32,0,0,18.53-56.79,17.7-57.19-1.36-.35-2.76-.52-4.16-.52Z"/>
        <path class="cls-30" d="M460.29,213.86l-29.14,55.39s7.44,13.6-8.78,22.26c0,0,15.04-3.09,12.96-20.59l28.75-57.49-3.89-.29,.1,.72Z"/>
        <path class="cls-19" d="M441.32,213.31l-40.64,55.1s2.08,19.6-12.1,23.31c0,0,18.77-1.67,16.26-20.85l40.02-57.02-3.54-.54Z"/>
        <path class="cls-3" d="M511.48,292.6c-8.91,0-16.15-7.16-16.26-16.07v-6.02c-.08-.57,.32-1.1,.9-1.18s1.1,.32,1.18,.9c.01,.09,.01,.19,0,.28v6c.09,7.83,6.51,14.11,14.35,14.02,7.83-.09,14.11-6.51,14.02-14.35h0v-5.67c-.08-.57,.32-1.1,.9-1.18,.57-.08,1.1,.32,1.18,.9,.01,.09,.01,.19,0,.28v5.65c.1,8.97-7.09,16.33-16.07,16.44h-.19Z"/>
        <path class="cls-3" d="M542,292.6c-8.9,0-16.15-7.17-16.24-16.07v-6.02c-.08-.57,.32-1.1,.9-1.18,.57-.08,1.1,.32,1.18,.9,.01,.09,.01,.19,0,.28v6c.37,7.82,7.01,13.87,14.83,13.5,7.44-.35,13.34-6.39,13.51-13.83h0v-5.67c-.08-.57,.32-1.1,.9-1.18,.57-.08,1.1,.32,1.18,.9,.01,.09,.01,.19,0,.28v5.65c.1,8.97-7.09,16.33-16.07,16.44h-.19Z"/>
        <path class="cls-3" d="M572.34,292.6c-8.91,0-16.15-7.16-16.26-16.07v-6.02c-.08-.57,.32-1.1,.9-1.18,.57-.08,1.1,.32,1.18,.9,.01,.09,.01,.19,0,.28v6c.09,7.83,6.51,14.11,14.35,14.02,7.83-.09,14.11-6.51,14.02-14.35h0v-5.67c-.08-.57,.32-1.1,.9-1.18,.57-.08,1.1,.32,1.18,.9,.01,.09,.01,.19,0,.28v5.65c.1,8.97-7.09,16.33-16.07,16.44h-.19Z"/>
        <path class="cls-3" d="M602.79,292.6c-8.91,0-16.15-7.16-16.26-16.07v-6.02c-.08-.57,.32-1.1,.9-1.18,.57-.08,1.1,.32,1.18,.9,.01,.09,.01,.19,0,.28v6c.37,7.82,7.01,13.87,14.83,13.5,7.44-.35,13.34-6.39,13.51-13.83h0v-5.67c-.08-.57,.32-1.1,.9-1.18,.57-.08,1.1,.32,1.18,.9,.01,.09,.01,.19,0,.28v5.65c.1,8.97-7.09,16.33-16.07,16.44h-.17Z"/>
        <path class="cls-3" d="M633.31,292.6c-8.91,0-16.15-7.16-16.26-16.07v-6.02c-.08-.57,.32-1.1,.9-1.18,.57-.08,1.1,.32,1.18,.9,.01,.09,.01,.19,0,.28v6c.09,7.83,6.51,14.11,14.35,14.02,7.83-.09,14.11-6.51,14.02-14.35h0v-5.67c-.08-.57,.32-1.1,.9-1.18,.57-.08,1.1,.32,1.18,.9,.01,.09,.01,.19,0,.28v5.65c.1,8.97-7.09,16.33-16.07,16.44h-.19Z"/>
        <path class="cls-3" d="M481.03,292.6c-8.9,0-16.15-7.16-16.24-16.07v-6.02c-.08-.57,.32-1.1,.9-1.18s1.1,.32,1.18,.9c.01,.09,.01,.19,0,.28v6c.37,7.82,7.01,13.87,14.83,13.5,7.44-.35,13.34-6.39,13.51-13.83h0v-5.67c-.08-.57,.32-1.1,.9-1.18s1.1,.32,1.18,.9c.01,.09,.01,.19,0,.28v5.65c.1,8.97-7.09,16.33-16.07,16.44h-.19Z"/>
        <path class="cls-3" d="M450.69,292.6c-8.91,0-16.15-7.16-16.26-16.07v-6.02c-.08-.57,.32-1.1,.9-1.18s1.1,.32,1.18,.9c.01,.09,.01,.19,0,.28v6c.09,7.83,6.51,14.11,14.35,14.02,7.83-.09,14.11-6.51,14.02-14.35h0v-5.67c-.08-.57,.32-1.1,.9-1.18s1.1,.32,1.18,.9c.01,.09,.01,.19,0,.28v5.65c.1,8.97-7.09,16.33-16.07,16.44h-.19Z"/>
        <path class="cls-3" d="M420.17,292.6c-8.9,0-16.15-7.16-16.24-16.07v-6.02c-.08-.57,.32-1.1,.9-1.18s1.1,.32,1.18,.9c.01,.09,.01,.19,0,.28v6c.37,7.82,7.01,13.87,14.83,13.5,7.44-.35,13.34-6.39,13.51-13.83h0v-5.67c-.08-.57,.32-1.1,.9-1.18s1.1,.32,1.18,.9c.01,.09,.01,.19,0,.28v5.65c.1,8.97-7.09,16.33-16.07,16.44h-.19Z"/>
        <path class="cls-3" d="M389.74,292.6c-8.91,0-16.15-7.16-16.26-16.07v-6.02c-.08-.57,.32-1.1,.9-1.18s1.1,.32,1.18,.9c.01,.09,.01,.19,0,.28v6c.09,7.83,6.51,14.11,14.35,14.02,7.83-.09,14.11-6.51,14.02-14.35h0v-5.67c-.08-.57,.32-1.1,.9-1.18s1.1,.32,1.18,.9c.01,.09,.01,.19,0,.28v5.65c.1,8.97-7.09,16.33-16.07,16.44h-.19Z"/>
        <path class="cls-3" d="M496.34,268.41h-.1c-.57-.05-.99-.55-.94-1.12,0-.01,0-.02,0-.03l6.26-53.74c.02-.58,.5-1.03,1.08-1.01s1.03,.5,1.01,1.08c0,.05,0,.11-.02,.16l-6.33,53.72c-.05,.51-.46,.91-.97,.93Z"/>
        <path class="cls-3" d="M522.57,234.76c-.53,0-.98-.4-1.03-.93l-2.47-20.13c-.06-.57,.36-1.08,.93-1.15,.57-.06,1.08,.36,1.15,.93l2.51,20.09c.07,.56-.34,1.08-.9,1.14-.01,0-.02,0-.03,0l-.16,.04Z"/>
        <path class="cls-3" d="M523.95,247.86c-.53,0-.98-.4-1.03-.93l-.72-6.84c-.06-.57,.36-1.08,.93-1.15,.56-.07,1.08,.34,1.14,.9,0,.01,0,.02,0,.03l.7,6.82c.08,.55-.31,1.06-.86,1.14-.02,0-.03,0-.05,0h-.12v.02Z"/>
        <path class="cls-3" d="M526.46,268.41c-.53,0-.98-.4-1.03-.93l-1.42-13.81c-.07-.56,.34-1.08,.9-1.14,.01,0,.02,0,.03,0,.57-.06,1.08,.36,1.15,.93l1.44,13.81c.06,.57-.36,1.08-.93,1.15h-.14Z"/>
        <path class="cls-3" d="M556.39,269.25c-.48,0-.89-.32-1.01-.78l-16.26-54.55c0-.58,.48-1.05,1.05-1.04,.36,0,.7,.19,.89,.5l16.24,54.57c.16,.55-.16,1.12-.71,1.27-.01,0-.02,0-.03,0l-.17,.02Z"/>
        <path class="cls-3" d="M587.24,269.25c-.41,0-.78-.23-.95-.6l-27.94-54.57c-.24-.54,0-1.17,.53-1.41,.54-.24,1.17,0,1.41,.53h0l27.92,54.57c.24,.51,.03,1.13-.49,1.37,0,0-.01,0-.02,0-.14,.08-.3,.11-.47,.1Z"/>
        <path class="cls-3" d="M435.9,269.25c-.15,0-.29-.04-.43-.1-.51-.24-.74-.84-.51-1.36h0l27.94-54.57c.23-.52,.84-.75,1.36-.51,0,0,.01,0,.02,0,.52,.23,.75,.84,.51,1.36,0,0,0,.01,0,.02l-27.92,54.57c-.18,.37-.56,.6-.97,.58Z"/>
        <path class="cls-3" d="M432.37,233.01c-.57,.06-1.08-.36-1.15-.93-.02-.2,.02-.4,.12-.58l11.25-17.12c.25-.52,.87-.74,1.4-.51,.52,.23,.75,.84,.51,1.36,0,0,0,.01,0,.02h0l-11.27,17.12c-.15,.35-.47,.6-.85,.64Z"/>
        <path class="cls-3" d="M423.35,244.98c-.57-.02-1.02-.5-1.01-1.07,.01-.21,.08-.41,.19-.58l5.83-8.12c.37-.45,1.03-.51,1.48-.13,.4,.33,.49,.9,.23,1.34l-5.83,8.12c-.2,.29-.54,.46-.89,.45Z"/>
        <path class="cls-3" d="M405.46,269.25c-.57,0-1.03-.46-1.03-1.03,0-.21,.06-.41,.17-.58l14.71-19.78c.33-.47,.97-.58,1.43-.25,0,0,.01,.01,.02,.02,.43,.32,.55,.91,.29,1.38l-14.73,19.78c-.19,.3-.52,.47-.87,.47Z"/>
        <path class="cls-3" d="M617.26,269.25c-.35,0-.68-.17-.87-.47l-39.61-54.16c-.29-.5-.13-1.14,.37-1.44,.44-.26,1.01-.16,1.34,.23h0l39.61,54.14c.31,.49,.17,1.14-.31,1.46-.15,.12-.33,.2-.52,.23Z"/>
        <path class="cls-3" d="M647.68,269.25c-.31,0-.6-.13-.8-.37l-52.1-54.55c-.39-.41-.39-1.06,0-1.48,.4-.41,1.05-.42,1.46-.02,0,0,.01,.01,.02,.02h0l52.12,54.57c.36,.44,.31,1.08-.12,1.46-.14,.19-.35,.32-.58,.37Z"/>
        <path class="cls-3" d="M375.87,269.25c-.57,0-1.04-.46-1.05-1.03,0-.25,.09-.49,.25-.68l52.1-54.57c.4-.41,1.05-.42,1.46-.02,0,0,.01,.01,.02,.02,.39,.37,.44,.97,.12,1.4l-52.1,54.51c-.2,.23-.49,.36-.8,.37Z"/>
        <path class="cls-3" d="M472.89,247.37h-.27c-.55-.14-.88-.7-.74-1.25,0,0,0,0,0,0h0l9.71-32.68c.3-.49,.95-.65,1.44-.34,.31,.19,.5,.53,.5,.89l-9.71,32.68c-.14,.4-.51,.68-.93,.72Z"/>
        <path class="cls-3" d="M466.33,269.25h-.25c-.56-.15-.89-.72-.76-1.28l4.49-16.86c.12-.56,.68,1.94,1.24,1.94s.91-2.16,.8-1.59h0l-4.49,16.86c-.05,.53-.5,.93-1.03,.93Z"/>
        <path class="cls-3" d="M595.58,214.67h-167.6c-.57,.08-1.1-.32-1.18-.9-.08-.57,.32-1.1,.9-1.18,.09-.01,.19-.01,.28,0h167.6c.57,.08,.98,.61,.9,1.18-.06,.47-.43,.83-.9,.9Z"/>
        <path class="cls-3" d="M475.01,239.11c-.34,0-.62-.28-.62-.62h0c0-.27,.17-.51,.43-.6l11.81-4.1c.33-.11,.68,.06,.8,.39s-.06,.68-.39,.8l-11.79,4.1c-.07,.03-.15,.05-.23,.04Z"/>
        <path class="cls-3" d="M477.03,241.99c-.34,0-.62-.28-.62-.62,0,0,0-.01,0-.02,0-.26,.17-.48,.41-.56l6.49-2.18c.32-.12,.68,.03,.82,.35,.13,.32-.02,.68-.34,.81,0,0,0,0-.01,0h0l-6.49,2.18-.25,.04Z"/>
        <path class="cls-3" d="M584.25,261.3c-.34,.01-.63-.26-.64-.6,0,0,0-.01,0-.02,0-.27,.17-.51,.43-.6l11.81-4.1c.33-.12,.69,.05,.81,.38,.12,.33-.05,.69-.38,.81h0l-11.81,4.1-.21,.04Z"/>
        <path class="cls-3" d="M586.68,264.6c-.34-.01-.61-.3-.6-.64h0c-.01-.26,.16-.5,.41-.58l6.49-2.16c.32-.13,.68,.01,.82,.33,0,0,0,0,0,0,.12,.32-.03,.68-.35,.82h0l-6.47,2.18-.29,.06Z"/>
        <circle class="cls-19" cx="521.58" cy="265.5" r="3.34"/>
        <circle class="cls-30" cx="551.59" cy="271.75" r="3.34"/>
        <circle class="cls-30" cx="537.63" cy="235.19" r="3.54"/>
        <circle class="cls-30" cx="536.79" cy="228.93" r="1.05"/>
        <circle class="cls-30" cx="427.36" cy="272.16" r="5.83"/>
        <circle class="cls-19" cx="642.05" cy="272.16" r="3.34"/>
        <circle class="cls-19" cx="637.27" cy="267.79" r="1.05"/>
        <circle class="cls-30" cx="546.58" cy="265.5" r="1.24"/>
        <circle class="cls-19" cx="517.4" cy="260.91" r="1.24"/>
        <circle class="cls-30" cx="422.34" cy="262.99" r="2.08"/>
        <path class="cls-3" d="M648.11,270.29H375.25c-.57,.08-1.1-.32-1.18-.9s.32-1.1,.9-1.18c.09-.01,.19-.01,.28,0h272.86c.57,.08,.98,.61,.9,1.18-.06,.47-.43,.83-.9,.9Z"/>
        <path class="cls-30" d="M542.21,228.93h0c-2.15,0-3.89,1.74-3.89,3.89,0,.32,.04,.64,.12,.95l4.29,17.19c.45,1.75,1.94,.14,3.79,.14h2.37l-6.68-22.17Z"/>
        <path d="M518.39,320.23h-110.97c-.74,0-1.33-.6-1.33-1.33v-15.91c0-.74,.6-1.33,1.33-1.33h110.97c.74,0,1.33,.6,1.33,1.33v15.91c0,.74-.6,1.33-1.33,1.33Zm-109.64-2.66h108.31v-13.25h-108.31v13.25Z"/>
        <polygon class="cls-8" points="199.69 203.79 193.8 203.79 224.82 104.33 230.71 104.33 199.69 203.79"/>
        <polygon class="cls-8" points="214.2 203.79 205.2 203.79 236.23 104.33 245.22 104.33 214.2 203.79"/>
        <path d="M252.06,204.54h-81.07c-.58,0-1.06-.47-1.06-1.06V104.54c0-.58,.47-1.06,1.06-1.06h13.97c.58,0,1.06,.47,1.06,1.06s-.47,1.06-1.06,1.06h-12.91v96.83h78.95V105.6h-58.95c-.58,0-1.06-.47-1.06-1.06s.47-1.06,1.06-1.06h60.01c.58,0,1.06,.47,1.06,1.06v98.94c0,.58-.47,1.06-1.06,1.06Z"/>
        <rect x="210.46" y="104.85" width="2.12" height="98.34"/>
        <rect class="cls-6" x="163.84" y="202.14" width="95.33" height="9.75"/>
        <rect class="cls-25" x="163.84" y="206.44" width="95.33" height="5.44"/>
        <path d="M259.17,212.59h-95.33c-.39,0-.7-.31-.7-.7v-9.75c0-.39,.31-.7,.7-.7h95.33c.39,0,.7,.31,.7,.7v9.75c0,.39-.31,.7-.7,.7Zm-94.63-1.4h93.93v-8.35h-93.93v8.35Z"/>
        <polygon class="cls-8" points="674.24 161.07 671.23 161.07 665.92 115.44 669.71 115.44 674.24 161.07"/>
        <polygon class="cls-10" points="680.44 161.23 676.61 161.09 672.36 115.28 676.16 115.42 680.44 161.23"/>
        <path d="M694,162.04h-25.55c-.49,0-.9-.36-.96-.85l-5.83-45.63c-.04-.28,.05-.56,.23-.77,.18-.21,.45-.33,.73-.33h37.2c.28,0,.54,.12,.73,.33,.18,.21,.27,.49,.23,.77l-5.83,45.63c-.06,.48-.48,.85-.96,.85Zm-24.69-1.94h23.84l5.58-43.69h-35l5.58,43.69Z"/>
        <path d="M686.27,286.9c-.74,0-1.33-.6-1.33-1.33v-17.78c0-.74,.6-1.33,1.33-1.33s1.33,.6,1.33,1.33v17.78c0,.74-.6,1.33-1.33,1.33Z"/>
        <path d="M680.24,179.23c-.74,0-1.33-.6-1.33-1.33v-62.46c0-.74,.6-1.33,1.33-1.33s1.33,.6,1.33,1.33v62.46c0,.74-.6,1.33-1.33,1.33Z"/>
        <path d="M711.48,116.67h-62.46c-.74,0-1.33-.6-1.33-1.33s.6-1.33,1.33-1.33h62.46c.74,0,1.33,.6,1.33,1.33s-.6,1.33-1.33,1.33Z"/>
        <path d="M391.3,309.47h-19.85c-.74,0-1.33-.6-1.33-1.33s.6-1.33,1.33-1.33h19.85c.74,0,1.33,.6,1.33,1.33s-.6,1.33-1.33,1.33Z"/>
        <path d="M385.47,302.66h6.94v12.06h-6.96c-.97,0-1.75-.78-1.75-1.75v-8.55c-.01-.97,.76-1.76,1.73-1.77,.01,0,.03,0,.04,0Z"/>
        <path d="M377.84,332.05c-.54,0-.97-.43-.97-.97v-21.84c0-.54,.43-.97,.97-.97s.97,.43,.97,.97v21.84c0,.54-.43,.97-.97,.97Z"/>
        <path d="M377.1,341.36c-3.1,0-5.61-2.52-5.61-5.61s2.52-5.61,5.61-5.61,5.61,2.52,5.61,5.61-2.52,5.61-5.61,5.61Zm0-9.29c-2.02,0-3.67,1.65-3.67,3.67s1.65,3.67,3.67,3.67,3.67-1.65,3.67-3.67-1.65-3.67-3.67-3.67Z"/>
        <rect class="cls-14" x="235.86" y="175.86" width="13.48" height="24.98"/>
        <rect class="cls-14" x="179.58" y="137.74" width="11.25" height="63.1"/>
        <rect x="171.28" y="152.96" width="80.72" height="2.12"/>
        <circle class="cls-14" cx="293.99" cy="367.74" r="10.49"/>
        <rect class="cls-14" x="285.46" y="373.82" width="17.04" height="7.15"/>
        <rect x="149.2" y="110.94" width="10.78" height="2.12"/>
        <rect x="261.4" y="129.38" width="20.5" height="2.12"/>
        <rect x="587.74" y="315.55" width="20.5" height="2.12"/>
        <rect x="313.29" y="61.96" width="20.5" height="2.12"/>
        <rect x="298.46" y="61.96" width="10.78" height="2.12"/>
        <rect x="298.27" y="149.17" width="36.04" height="2.12"/>
        <rect x="283.91" y="149.17" width="6.9" height="2.12"/>
        <rect x="320.53" y="138.57" width="2.12" height="22.71"/>
        <rect x="320.53" y="168.33" width="2.12" height="7.17"/>
        <rect x="596.11" y="307.37" width="36.04" height="2.12"/>
        <rect x="575.95" y="307.37" width="12.72" height="2.12"/>
        <rect x="213.7" y="237.69" width="55.47" height="2.12"/>
        <rect x="262.13" y="224.92" width="2.12" height="24.65"/>
        <rect x="262.13" y="256.65" width="2.12" height="7.15"/>
        <rect x="273.67" y="237.69" width="6.64" height="2.12"/>
        <rect x="149.89" y="341.72" width="53.35" height="2.12"/>
        <rect x="153.75" y="327.18" width="2.12" height="24.48"/>
        <rect x="153.75" y="316.82" width="2.12" height="5.05"/>
        <rect x="138.72" y="341.72" width="4.55" height="2.12"/>
        <rect x="204.36" y="386.79" width="11.46" height="2.12"/>
        <rect x="301.57" y="276.4" width="17.29" height="2.12"/>
        <rect x="160.92" y="74.26" width="70.85" height="2.12"/>
        <rect x="174.92" y="64.8" width="2.12" height="19.97"/>
      </g>
    </g>
  </g>
</svg>