<?xml version="1.0" encoding="UTF-8"?>
<svg id="Layer_2" data-name="Layer 2" xmlns="http://www.w3.org/2000/svg" viewBox="0 0 785.33 466.9">
  <defs>
    <style>
      .cls-1 {
        fill: #f65143;
      }

      .cls-2 {
        fill: #fac69a;
      }

      .cls-3, .cls-4 {
        fill: #f9b47a;
      }

      .cls-5 {
        fill: #eba42c;
      }

      .cls-6 {
        fill: #e8af94;
      }

      .cls-7 {
        fill: #eec2ae;
      }

      .cls-8, .cls-9, .cls-10, .cls-11 {
        fill: #fff;
      }

      .cls-12 {
        fill: #fdd2bf;
      }

      .cls-13 {
        fill: #ff9797;
      }

      .cls-14 {
        fill: #872d2d;
      }

      .cls-15 {
        fill: #c2d9dd;
      }

      .cls-16, .cls-17, .cls-18, .cls-19 {
        fill: #b55c4e;
      }

      .cls-20 {
        fill: #dda38c;
      }

      .cls-21 {
        fill: #d38a20;
      }

      .cls-22 {
        fill: #d32d24;
      }

      .cls-23 {
        fill: #d59254;
      }

      .cls-24 {
        fill: #dda18a;
      }

      .cls-25 {
        fill: #dbcec8;
      }

      .cls-26 {
        fill: #c5d8e2;
      }

      .cls-27, .cls-28 {
        fill: #3e3127;
      }

      .cls-29 {
        fill: #19a5af;
      }

      .cls-30 {
        fill: #963b3b;
      }

      .cls-31 {
        fill: #455760;
      }

      .cls-32 {
        fill: #8898a8;
      }

      .cls-33 {
        fill: #637582;
      }

      .cls-34 {
        fill: #24bacc;
      }

      .cls-35, .cls-36 {
        fill: #34454c;
      }

      .cls-37 {
        fill: #59717a;
      }

      .cls-38 {
        fill: #3c3127;
      }

      .cls-17, .cls-9 {
        opacity: .8;
      }

      .cls-17, .cls-9, .cls-36, .cls-39, .cls-10, .cls-18, .cls-4, .cls-19, .cls-11, .cls-28 {
        isolation: isolate;
      }

      .cls-36, .cls-39, .cls-10, .cls-18 {
        opacity: .5;
      }

      .cls-39 {
        fill: #657177;
      }

      .cls-4, .cls-19 {
        opacity: .65;
      }

      .cls-11 {
        opacity: .45;
      }

      .cls-28 {
        opacity: .4;
      }
    </style>
  </defs>
  <g id="Layer_1-2" data-name="Layer 1">
    <g id="Layer_2-2" data-name="Layer 2">
      <g id="Layer_1-2" data-name="Layer 1-2">
        <path class="cls-8" d="M367.93,340.7h21.41c12.42,0,22.49,10.07,22.49,22.49v93.82h-66.4v-93.82c0-12.42,10.07-22.49,22.49-22.49h0Z"/>
        <path class="cls-25" d="M412.31,357.59v101.42s-13.53,1.57-12.85,0c7.79-18,6-116.22,6-116.22,4.36,3.68,6.87,9.1,6.85,14.8Z"/>
        <path class="cls-8" d="M412.03,353.27h0c11.42,0,17.4,9.25,17.4,20.67v64.07h-18.22l.82-84.74Z"/>
        <rect class="cls-25" x="412.09" y="353.61" width="5.17" height="85.74"/>
        <path class="cls-12" d="M411.84,438.84v17.27h.4c9,0,16.33-7.73,16.33-17.27h-16.73Z"/>
        <path class="cls-6" d="M416.72,439.74v16.82c-1.21,.29-2.44,.44-3.68,.44h-.4v-17.26h4.08Z"/>
        <rect class="cls-27" x="427.06" y="385.07" width="3" height="3.5"/>
        <rect class="cls-27" x="427.06" y="393.95" width="3" height="7.54"/>
        <rect class="cls-27" x="427.06" y="406.88" width="3" height="3.5"/>
        <path class="cls-27" d="M409.7,461.01h-8.93v-4h8.93c.22,0,.39-.17,.39-.39h0v-99.8c0-6.55-5.31-11.85-11.86-11.86h-4.87v-4h4.87c8.76,0,15.85,7.1,15.86,15.86v99.8c0,2.42-1.97,4.38-4.39,4.39Z"/>
        <path class="cls-27" d="M412.49,458.41h-.4v-4h.4c7.9,0,14.33-6.84,14.33-15.26v-27.14h4v27.13c0,10.63-8.22,19.27-18.33,19.27Z"/>
        <path class="cls-27" d="M430.82,383.06h-4v-12.19c0-8.41-6.43-15.26-14.33-15.26h-.4v-4h.4c10.11,0,18.33,8.64,18.33,19.26v12.19Z"/>
        <rect class="cls-27" x="412.09" y="437.15" width="16.72" height="4"/>
        <path class="cls-8" d="M347.85,438.01h0c-11.41,0-20.66-9.24-20.67-20.65v-64.09h20.67v84.74Z"/>
        <rect class="cls-25" x="339.34" y="353.6" width="5.17" height="85.74"/>
        <path class="cls-12" d="M344.77,438.84v17.27h-.4c-9,0-16.33-7.73-16.33-17.27h16.73Z"/>
        <path class="cls-6" d="M339.89,439.74v16.82c1.2,.29,2.43,.44,3.66,.45h.4v-17.27h-4.06Z"/>
        <rect class="cls-27" x="326.54" y="385.07" width="3" height="3.5"/>
        <rect class="cls-27" x="326.54" y="393.95" width="3" height="7.54"/>
        <rect class="cls-27" x="326.54" y="406.88" width="3" height="3.5"/>
        <path class="cls-27" d="M400.77,461.01h-53.87c-2.42,0-4.38-1.97-4.39-4.39v-99.8c.01-8.75,7.11-15.85,15.86-15.86h35v4h-35c-6.52,.03-11.79,5.3-11.82,11.82v99.8c0,.21,.18,.38,.39,.39h53.87l-.04,4.04Z"/>
        <path class="cls-27" d="M344.55,458.41h-.4c-10.1,0-18.32-8.64-18.32-19.26v-27.14h4v27.13c0,8.42,6.42,15.26,14.32,15.26h.4v4.01Z"/>
        <path class="cls-27" d="M329.79,383.06h-4v-12.19c0-10.62,8.22-19.26,18.32-19.26h.4v4h-.4c-7.9,0-14.32,6.85-14.32,15.26v12.19Z"/>
        <rect class="cls-27" x="327.79" y="437.15" width="16.72" height="4"/>
        <path class="cls-38" d="M328.33,434.3c-.26,0-.51-.1-.7-.28-.39-.39-.39-1.02,0-1.41,0,0,0,0,0,0l10.07-10.32c.39-.39,1.02-.39,1.41,0,.39,.39,.39,1.02,0,1.41,0,0,0,0,0,0l-10.07,10.31c-.19,.19-.44,.29-.71,.29Z"/>
        <path class="cls-38" d="M332.43,424.82c-.26,0-.51-.1-.7-.28-.39-.39-.39-1.02,0-1.41,0,0,0,0,0,0l6-6.22c.35-.43,.98-.49,1.41-.13,.43,.35,.49,.98,.13,1.41-.03,.04-.07,.07-.1,.11l-6,6.23c-.19,.2-.46,.31-.74,.31Z"/>
        <path class="cls-25" d="M349.91,414.93c.17,.31,.24,.65,.22,1-.01,.22-.01,.44,0,.66,0,.17,0,.34,0,.51-.01,.49,0,.98,.05,1.47,.08,.9,0,5.55,0,6v5.87c.02,.19,.02,.39,0,.58,0,.84,.15,1.67,.13,2.5v1.91c-.06,1.33,0,2.65,0,4v1.32c.05,.93,.05,1.86,0,2.79v.36c.08,.69,0,1.37,0,2.06v3.45s0,.1,0,.15c.05,.81,.03,1.62-.07,2.42-.06,.48-.06,.98,0,1.46,.01,.1,.01,.19,0,.29-.04,.49-.06,.98-.06,1.47,0,.02,0,.04,0,.06,0,.08-.31,.17-.37,.16-.31-.09-.6-.23-.87-.41-.03-.06-.05-.13-.06-.2,0-.21-.07-.41-.19-.58-.07-.1-.1-.22-.08-.34,.09-1,0-2,.06-2.94v-18.28c-.13-.85-.08-3.44-.08-3.61v-6.85c.05-1.08,.09-5.48,.09-6,0-.12,.02-.24,.08-.34,.05-.09,.08-.22,.13-.32,.06-.08,.12-.16,.17-.25,.03-.11,.06-.23,.08-.35,.01-.09,.1-.16,.19-.14,0,0,.01,0,.02,0,.2,.05,.47,.09,.56,.12Z"/>
        <circle class="cls-25" cx="401.87" cy="443" r="7.89"/>
        <circle class="cls-25" cx="393.36" cy="429.58" r="3.05"/>
        <path class="cls-12" d="M378.08,313.44h0c7.17,0,12.98,5.81,12.98,12.98v21.63c0,7.17-5.81,12.98-12.98,12.98h0c-7.17,0-12.98-5.81-12.98-12.98v-21.63c0-7.17,5.81-12.98,12.98-12.98Z"/>
        <path class="cls-6" d="M389.78,330.29v13.89c-12.3-3.19-20.52-7.69-26-12.54v-.48l26-.87Z"/>
        <path class="cls-27" d="M377.85,363.01c-8.28,0-15-6.72-15-15v-21.6c0-8.28,6.72-15,15-15s15,6.72,15,15v21.6c0,8.28-6.72,15-15,15Zm0-47.59c-6.08,0-11,4.92-11,11v21.59c0,6.08,4.92,11,11,11s11-4.92,11-11v-21.6c-.02-6.06-4.94-10.97-11-10.97v-.02Z"/>
        <path class="cls-27" d="M381.82,347.73c-1.2,2.09-3.87,2.81-5.97,1.61-.83-.48-1.48-1.22-1.85-2.1-.06-.12,.27-.56,.8-.7,.32-.11,.67-.14,1-.08,.41,1.26,1.7,2.01,3,1.73,.43-.06,.84-.22,1.2-.45l.36-.42c.16-.19,.35-.36,.6-.23,.59,.24,.92,.53,.86,.64Z"/>
        <path class="cls-27" d="M335.15,331.37l-.17-8c0-.1,.44-.36,1-.37s1,.23,1,.33l-.29,5.37-.19,1.58c0,.1,.21,1.26-.35,1.27s-1-.08-1-.18Z"/>
        <path class="cls-27" d="M338.37,322.79l-5.73,8.15c-.07,.1-.62,.1-1.08-.22s-.63-.84-.56-.94l4.17-5.21,1.31-1.48c.07-.1,.75-1.38,1.2-1.06s.76,.66,.69,.76Z"/>
        <path class="cls-27" d="M446.73,319.83l-6.66-11.06c-.02-.41,.2-.8,.56-1,.35-.22,.8-.22,1.15,0l4.11,7.6,1.12,2.29c.08,.14,1.2,1.64,.73,1.93s-.93,.42-1.01,.24Z"/>
        <path class="cls-27" d="M443.16,305.43l-1.27,16.25c-.21,.54-.82,.8-1.36,.59-.32-.13-.56-.4-.64-.74l1.26-10.84,.47-3.18c0-.2,0-2.56,.58-2.52s.98,.24,.96,.44Z"/>
        <path class="cls-27" d="M476.02,86.44l-.62,12.89c0,.16-.47,.56-1,.53-.42,0-.81-.24-1-.62l.82-8.6,.33-2.53c0-.16-.08-2,.47-2s1,.17,1,.33Z"/>
        <path class="cls-27" d="M470.97,100.38l10.11-12.79c.37-.25,.86-.25,1.23,0,.34,.29,.48,.76,.34,1.19l-7.1,8.35-2.16,2.38c-.12,.16-1.44,2.12-1.87,1.78s-.67-.75-.55-.91Z"/>
        <path class="cls-27" d="M310.55,321.55l1-8c0-.1,.49-.3,1-.23,.37,.02,.72,.19,.95,.48l-1.1,5.27-.42,1.54c0,.09,0,1.27-.52,1.19s-.91-.15-.91-.25Z"/>
        <path class="cls-27" d="M315.03,313.54l-6.89,7.21c-.38,.05-.75-.1-1-.38-.4-.38-.51-.92-.42-1l4.9-4.53,1.51-1.27c.09-.08,.95-1.25,1.35-.87s.64,.75,.55,.84Z"/>
        <path class="cls-27" d="M469.55,284.1l-7.43-3c-.1,0-.17-.55,0-1.06s.61-.83,.71-.79l4.81,2.39,1.38,.8c.1,0,1.24,.3,1,.81s-.47,.89-.47,.85Z"/>
        <path class="cls-27" d="M462.88,277.76l5.23,8.48c.06,.1-.15,.61-.62,.9-.32,.23-.72,.28-1.09,.15l-3.14-5.89-.84-1.78c-.07-.11-1-1.24-.5-1.53s.9-.44,.96-.33Z"/>
        <path class="cls-27" d="M278.31,255.49l3.95-7c.05-.09,.57-.09,1.05,.18h0c.48,.27,.74,.72,.69,.8l-3,4.47-1,1.26c-.05,.09-.46,1.19-.94,.91s-.8-.54-.75-.62Z"/>
        <path class="cls-27" d="M285.47,249.75l-9.1,4.08c-.11,.05-.58-.23-.81-.73-.18-.34-.18-.76,0-1.1l6.25-2.35,1.88-.6c.11,0,1.35-.81,1.58-.3s.28,.95,.2,1Z"/>
        <path class="cls-23" d="M284.47,189.07s-19.44-38.3,11.82-83h16.84v83h-28.66Z"/>
        <path class="cls-16" d="M315.44,112.31v9.15c-3.1-.69-6.18-1.47-9.21-2.36-4.74-1.36-9.32-3.21-13.68-5.52,1.54-2.8,3.29-5.63,5.24-8.49,4.96,2.87,10.25,5.12,15.76,6.69l1.89,.53Z"/>
        <path class="cls-27" d="M315.55,191.57h-32.7l-.69-1.37c-.21-.41-5.11-10.21-6.08-25.71-.89-14.23,1.52-36.16,18.08-59.82l.75-1.07h20.64v87.97Zm-29.54-5h24.54V108.57h-13c-25.85,37.89-14.44,70.98-11.51,78h-.03Z"/>
        <rect class="cls-8" x="264.14" y="191.84" width="45.05" height="37.17" rx="18.58" ry="18.58"/>
        <path class="cls-12" d="M285.68,195.23h5.98c7.78,0,14.09,6.31,14.09,14.09h0c0,7.78-6.31,14.09-14.09,14.09h-5.98c-7.78,0-14.09-6.31-14.09-14.09h0c0-7.78,6.31-14.09,14.09-14.09Z"/>
        <path class="cls-27" d="M290.61,230.44h-7.88c-11.64,.25-21.29-8.98-21.54-20.63-.25-11.64,8.98-21.29,20.63-21.54,.31,0,.61,0,.92,0h7.88c11.64,.25,20.88,9.9,20.63,21.54-.25,11.29-9.34,20.38-20.63,20.63Zm-7.88-37.17c-8.88-.22-16.26,6.8-16.49,15.68s6.8,16.26,15.68,16.49c.27,0,.53,0,.8,0h7.88c8.88-.22,15.91-7.6,15.68-16.49-.21-8.57-7.11-15.47-15.68-15.68h-7.88Z"/>
        <rect class="cls-20" x="442.47" y="191.84" width="45.05" height="37.17" rx="18.58" ry="18.58"/>
        <rect class="cls-12" x="450.59" y="197.44" width="28.81" height="23.77" rx="11.88" ry="11.88"/>
        <path class="cls-27" d="M468.93,230.44h-7.88c-11.64-.25-20.88-9.9-20.63-21.54,.25-11.29,9.34-20.38,20.63-20.63h7.88c11.64-.25,21.29,8.98,21.54,20.63,.25,11.64-8.98,21.29-20.63,21.54-.31,0-.61,0-.92,0Zm-7.88-37.17c-8.88,.22-15.91,7.6-15.68,16.49,.21,8.57,7.11,15.47,15.68,15.68h7.88c8.88,.22,16.26-6.8,16.49-15.68s-6.8-16.26-15.68-16.49c-.27,0-.53,0-.8,0h-7.88Z"/>
        <path class="cls-12" d="M376.87,88.95h0c49.76,0,90.1,40.34,90.1,90.1v57.79c0,49.76-40.34,90.1-90.1,90.1h0c-49.76,0-90.1-40.34-90.1-90.1v-57.79c0-49.76,40.34-90.1,90.1-90.1Z"/>
        <path class="cls-8" d="M379.09,328.35c-1.15,.05-2.31,.07-3.47,.07-49.76,0-90.1-40.34-90.1-90.1h0v-57.79c0-49.76,40.34-90.1,90.1-90.1h0c1.16,0-5.68,0-4.53,.07-48.16,1.81-75.64,41.43-75.64,90v57.79c0,48.63,35.48,88.25,83.64,90.06Z"/>
        <path class="cls-27" d="M279.3,202.26c-4.22,2.63-5.51,8.18-2.88,12.4,.68,1.09,1.58,2.02,2.65,2.73,.14,.91-.04,1.83-.52,2.62-.64,1.22-2,1.75-2.27,1.53-2.45-1.86-4.21-4.49-5-7.46-.75-2.86-.53-5.9,.64-8.62,.73-1.5,1.75-2.85,3-3.95,.42-.55,.91-1.03,1.47-1.44,.77-.54,1.67-.77,2-.17,.68,1.19,1.09,2.25,.91,2.36Z"/>
        <path class="cls-27" d="M475.22,197.83c6.55,4.11,8.53,12.75,4.43,19.3-1.05,1.67-2.43,3.1-4.07,4.19-.29,.22-1.63-.31-2.27-1.53-.48-.78-.67-1.7-.54-2.61,1.81-1.02,3.21-2.62,4-4.54,.83-2.03,.96-4.29,.37-6.4-.29-1.33-.84-2.59-1.62-3.7l-1.31-1.15c-.58-.53-1.12-1.11-.79-1.72,.71-1.2,1.5-2.03,1.8-1.84Z"/>
        <path class="cls-6" d="M460.37,197.01c.16,.22,.23,.48,.21,.75v.89c-.03,.37-.03,.75,0,1.12,.08,.69,0,4.24,0,4.6v2.47c0,.28,0,1.64,.05,2,.01,.15,.01,.3,0,.45,0,.64,.15,1.27,.13,1.91v1.18c0,.09,0,.19,0,.28-.06,1,0,2,0,3v.62c-.01,.13-.01,.27,0,.4,.05,.71,.05,1.42,0,2.13-.01,.09-.01,.19,0,.28,.03,.52,.03,1.05,0,1.57,.01,.17,.01,.34,0,.51v2.13s0,.07,0,.11c.05,.62,.03,1.24-.07,1.85-.06,.37-.06,.75,0,1.12,.01,.07,.01,.15,0,.22-.04,.37-.07,.75-.07,1.12v.06c0,.06-.31,.12-.38,.12-.3-.07-.59-.17-.87-.31-.03-.05-.04-.1-.05-.16,0-.17-.08-.32-.2-.44-.06-.07-.08-.17-.07-.26,.09-.75,0-1.5,.06-2.25v-5.73c-.01-.28-.01-.56,0-.84,.02-.26,.02-.53,0-.79v-6.46s0-.07,0-.11c-.09-.92-.12-1.84-.09-2.76v-5c0-.08,0-.15,0-.23,0-.82,.08-4.19,.08-4.6,0-.09,.03-.19,.09-.26,0-.07,.07-.16,.12-.24s.14-.12,.18-.19c.03-.09,.06-.17,.08-.26,.03-.09,.12-.14,.21-.11l.59,.11Z"/>
        <path class="cls-8" d="M315.4,127.61c-2.27,3.27-4.28,6.73-6,10.32-.88,1.79-1.74,3.61-2.6,5.43-.87,1.74-1.57,3.56-2.07,5.44-.07,.26-.65,.9-1.19,.82s-.84-1-.76-1.28c.83-2.63,1.92-5.18,3.27-7.59,1.21-2.41,2.45-4.81,3.79-7.17,.82-1.37,1.67-2.72,2.58-4,.12-.27,1.95-3.29,2.42-3s.71,.79,.56,1.03Z"/>
        <path class="cls-9" d="M300.35,157.32l1.14-5.64c.33-.1,.67-.1,1,0,.54,.11,.94,.38,.92,.45l-1.16,3.69-.44,1.07c0,.06,0,.91-.54,.8s-.93-.3-.92-.37Z"/>
        <path class="cls-27" d="M377.33,240.31c-1.38,0-2.5-1.12-2.5-2.5v-25.66c0-1.38,1.12-2.5,2.5-2.5s2.5,1.12,2.5,2.5v25.66c0,1.38-1.12,2.5-2.5,2.5Z"/>
        <path class="cls-27" d="M376.24,332.01c-51.12-.06-92.54-41.48-92.6-92.6v-57.75c.02-51.14,41.5-92.58,92.64-92.56,51.11,.02,92.54,41.45,92.56,92.56v57.79c-.08,51.1-41.5,92.5-92.6,92.56Zm0-238c-48.36,.06-87.54,39.24-87.6,87.6v57.79c.02,48.38,39.26,87.58,87.64,87.56,48.35-.02,87.54-39.21,87.56-87.56v-57.74c-.06-48.36-39.24-87.54-87.6-87.6v-.05Z"/>
        <path class="cls-23" d="M466.42,188.58c-16.54-20.56-25.94-51.35-27.78-77.68-25.49,5.4-51.26,10.83-77.3,10.13-16.72-.45-34-2.34-50.09-7-19.56-5.71-33.86-17.83-41-37.11l-5.08-14.54s37.24,15.14,93.78-18,112.32,15.75,112.32,60.44l14.6-7.71s10,60.38-16.72,90.7"/>
        <path class="cls-24" d="M439.82,123.01c-25.93,2.58-53.79,6.4-79.6,2.84-16.56-2.28-29.53-4-45-10.48,0,0,1,0,.93,0,.45-.47-4.09-.93-3.62-1.38,15.66,4.4,32.4,6.18,48.61,6.63,25,.67,49.7-4.3,74.17-9.47,1.19,1.05,2.34,2.14,3.47,3.26"/>
        <path class="cls-3" d="M436.88,108.73c-25.48,5.41-51.25,10.83-77.3,10.13-16.71-.45-34-2.34-50.09-7-19.56-5.71-33.85-17.83-41-37.1l-5.08-14.55c3.68,1.31,7.5,2.2,11.38,2.65l15.79,.09c-.14,0,2.42,10.62,2.67,11.64,.94,3.71,3.51,7.19,5.86,10.23,0,0,18.72,32.49,138.11,24.34"/>
        <path class="cls-16" d="M468.2,187.51l-1.65,1.8c-.59-.73-1.17-1.48-1.74-2.25,22.45-54.87-3.83-117.56-58.71-140.01-12.79-5.23-26.47-7.95-40.29-7.99,53.74-24.62,104.52,21.83,104.52,64.46l14.6-7.71s10.04,61.38-16.73,91.7Z"/>
        <path class="cls-27" d="M301.03,103.09l-3.28-2.2c.06-.34,.2-.66,.41-.93,.17-.3,.41-.55,.71-.73l2,1.81,.52,.62s.62,.2,.31,.65c-.17,.3-.4,.56-.67,.78Z"/>
        <path class="cls-27" d="M321.44,108.84c-5.49-.3-10.9-1.5-16-3.55-.34-.3-.45-.78-.29-1.2,.18-.39,.57-.65,1-.66,3.23,1.45,6.62,2.53,10.09,3.24,1,.24,2,.46,3.08,.63,.2,0,2.51,0,2.48,.56s-.16,.99-.36,.98Z"/>
        <path class="cls-27" d="M364.23,48.26c-3.88,3.01-8.22,5.38-12.86,7-.43-.03-.8-.33-.93-.74-.14-.4-.04-.85,.27-1.15,3.02-.9,5.94-2.13,8.69-3.67,.83-.42,1.65-.87,2.45-1.35,.16-.09,1.69-1.47,2-1s.53,.8,.38,.91Z"/>
        <path class="cls-27" d="M370.41,45.01l-4.11,2.18s-.39-.3-.65-.79c-.19-.3-.29-.65-.29-1l2.94-1.09,.92-.24s.56-.5,.82,0c.19,.29,.31,.6,.37,.94Z"/>
        <path class="cls-27" d="M294.36,120.86c-.8,2.08-1.23,4.29-1.29,6.52-.29,.22-.64,.32-1,.29-.37,.04-.73-.09-1-.34,.17-1.62,.54-3.22,1.08-4.76,.19-.44,.39-.88,.61-1.3,0-.08,.21-1.12,.73-.92s.9,.43,.87,.51Z"/>
        <path class="cls-27" d="M297.55,120.21l-1.74,4.72c-.7,.06-1.38-.2-1.88-.69l1.55-3,.55-.85c0-.06,.11-.8,.62-.61s.95,.37,.9,.43Z"/>
        <path class="cls-27" d="M474.95,135.62c.74,17.66-1.67,35.32-7.12,52.14-.2,.62-1.16,2.09-1.68,1.91s-.42-1.92-.22-2.53c3.72-11.05,6.12-22.51,7.13-34.13,.33-3.42,.57-6.85,.65-10.29,0-.32,0-2.38-.06-4.35s0-3.87,.26-3.88c.59,.02,1.06,.51,1.04,1.1,0,.01,0,.02,0,.03Z"/>
        <path class="cls-27" d="M480.67,148.67c-2.67,13.36-6.53,26.45-11.55,39.11-.18,.47-1.09,1.52-1.6,1.31s-.44-1.59-.26-2.05c3.45-8.35,6.4-16.89,8.83-25.59,.74-2.56,1.45-5.13,2.1-7.71,.14-.48,1.15-6.26,1.68-6.15,.5,.1,.85,.57,.8,1.08Z"/>
        <path class="cls-23" d="M434.84,317.52c-12.22,7.78-26.74,14.29-42.3,14.29l-29.81,1c-15.56,0-30.08-7.51-42.3-15.29-25.75-16.38-39.23-46.59-35.27-76.85l1.66-12.74s25.36,32.47,54.3,35.38c9.51,.95,.52-20.13,36.34-20.05h.35c30.2,0,26.83,21,36.34,20.05,28.94-2.91,54.3-35.38,54.3-35.38l1.66,12.74c3.96,30.26-9.56,60.47-35.27,76.85Z"/>
        <path class="cls-8" d="M379.96,331.59c-1.15,.05-4.31,1.07-5.47,1.07-10.49,0-19.35-1-29.95-1.46-8.96-1.98-17.51-5.51-25.25-10.44-25.75-16.38-39.23-46.59-35.27-76.85l1.66-12.74s2.08,2.37,8.73,8.74c-15.64,53.59,37.76,89.88,85.55,91.68Z"/>
        <path class="cls-16" d="M432.68,319.89c-12.64,8.05-27.32,12.31-42.3,12.29h-12.46c14.98,.02,29.66-4.24,42.3-12.29,25.75-16.38,39.23-46.59,35.27-76.85l-.13-1c3.9-3.68,7.55-7.6,10.93-11.76l1.66,12.73c3.96,30.29-9.52,60.5-35.27,76.88Z"/>
        <path class="cls-16" d="M434.31,72.36c-7.36-9.92-17.61-17.32-29.34-21.19-.43-.14-1.42-.93-1.27-1.46s1.44-.59,1.89-.44c8.01,2.78,15.35,7.17,21.58,12.92,1.8,1.7,3.49,3.51,5.07,5.42,.16,.16,1.15,1.26,2,2.38s1.57,2.29,1.35,2.45c-.39,.29-.93,.25-1.28-.08Z"/>
        <circle class="cls-16" cx="454.19" cy="90.05" r="7.73"/>
        <circle class="cls-3" cx="297.9" cy="80.45" r="7.73"/>
        <ellipse class="cls-19" cx="444.97" cy="101.44" rx="3.08" ry="2.25"/>
        <ellipse class="cls-19" cx="442.25" cy="86.82" rx="1.54" ry="1.12"/>
        <ellipse class="cls-4" cx="310.98" cy="85.77" rx="2.13" ry="1.56" transform="translate(78.58 309.5) rotate(-59.33)"/>
        <ellipse class="cls-4" cx="310.38" cy="76.83" rx="2.69" ry="1.97" transform="translate(86.73 305.34) rotate(-59.52)"/>
        <path class="cls-6" d="M300.25,178.45c12.76-15,33.48-24.06,54.38-23.69,5.62,.11,12.1,1.37,14.75,6,.88,1.67,1.36,3.52,1.39,5.41,.15,2.67-.21,5.6-2.27,7.46-1.86,1.68-4.67,2.08-7.29,2.14-9.93,.24-19.63-3.27-29.57-3.42-10.7-.15-20.89,3.6-30.75,7.28"/>
        <path class="cls-23" d="M300.26,172.68c13.16-16.82,31.54-27,52.88-26.72,5.74,.07,12.35,1.42,15,6.5,.89,1.87,1.36,3.92,1.37,6,.14,3-.26,6.22-2.38,8.3-1.91,1.88-4.78,2.35-7.46,2.44-10.14,.34-20-3.49-30.17-3.57-10.93-.08-16.68,4.3-26.78,8.47"/>
        <path class="cls-16" d="M299.16,172.67l.64,1.27c10.11-4.17,20.54-8.42,31.47-8.32,10.15,.07,20,3.89,30.17,3.56,2.68-.09,5.56-.56,7.46-2.45s2.46-4.93,2.39-7.74c-2.88,2.12-6.8,4.28-10.42,4.27-4.88,.1-9.76-.38-14.53-1.42-10.93-2.62-22.31-2.73-33.28-.32-7.41,4.38-8.59,4.36-13.9,11.15Z"/>
        <path class="cls-27" d="M297.9,171.91c.53-1.29,1.3-2.47,2.25-3.49,.64-.66,1.22-1.39,1.84-2.09,.46-.56,.96-1.09,1.5-1.57,.79-.69,1.52-1.42,2.28-2.13s1.54-1.38,2.3-2.09c.52-.48,1.07-.93,1.64-1.34,.73-.54,1.57-1.24,2.58-1.92s2.11-1.41,3.28-2.14,2.42-1.43,3.67-2.08,2.51-1.29,3.71-1.83l3.35-1.45c2.06-.75,3.56-1.31,4-1.46l3-.94c1.25-.38,2.69-.68,4.06-1.05,2.78-.61,5.41-1.07,6.18-1.2,.4-.09,1.16-.21,2.12-.34s2.11-.19,3.28-.28,2.35-.1,3.37-.13,1.87-.07,2.41-.06c.85-.02,1.7,.03,2.55,.14,1.85,.17,3.68,.48,5.49,.92,1.94,.46,3.75,1.34,5.32,2.57,2.03,1.65,3.48,3.91,4.13,6.44,.16,.56,.28,1.14,.36,1.72,.18,1.49,.24,3,.18,4.5-.04,1.61-.35,3.21-.91,4.72-.64,1.68-1.75,3.14-3.21,4.19-1.4,.94-2.99,1.56-4.66,1.81-1.21,.19-2.43,.28-3.66,.26h-2.23c-3.93-.11-7.83-.64-11.64-1.58-.49-.13-.99-.23-1.49-.3-2.81-.31-5.52-1-8.26-1.33l-2.62-.31c-.68-.05-1.36-.17-2-.16-3.01-.06-6.03,.16-9,.64-.19,.02-.39,.06-.58,.1-3.13,.77-6.28,1.39-9.43,2.24-1.93,.48-3.8,1.15-5.6,2-.35,.19-.71,.35-1.09,.47-1.9,.59-3.76,1.37-5.64,2.1-.09,.03-.19,.06-.28,.08-.31,.09-.91-.47-1-.63,.09-.92,.34-1.81,.73-2.65,.23-.16,.48-.31,.73-.44,.77-.31,1.47-.77,2.06-1.35,.36-.33,.78-.57,1.25-.7,3.87-1.28,7.71-2.83,11.75-3.84,1.71-.41,3.43-.9,5.18-1.21,4.42-.86,8.94-1.1,13.42-.7,4.45,.4,8.74,1.28,12.94,2,1.48,.27,2.94,.54,4.39,.84,1.35,.27,2.71,.46,4.08,.57,1.17,.1,2.33,.14,3.49,.13,1.12,.01,2.25-.06,3.36-.2,1.38-.14,2.69-.64,3.81-1.46,.99-.85,1.66-2.01,1.91-3.29,.26-1.25,.35-2.53,.27-3.81-.03-1.29-.22-2.56-.57-3.8-.73-2.31-2.42-4.18-4.64-5.15-.16-.08-.32-.16-.48-.22-1.06-.35-2.14-.63-3.23-.84-1.46-.28-2.94-.45-4.43-.51-3-.06-5.86,0-6.19,.09-1.52,.13-3,.24-4.54,.5-.76,.11-1.51,.2-2.26,.33l-2.24,.44c-2.97,.63-5.91,1.43-8.79,2.39-1.25,.45-2.49,.92-3.73,1.4l-3.62,1.66c-.35,.18-.69,.38-1,.55-3.88,1.86-7.56,4.09-11,6.68-3.02,2.25-5.83,4.76-8.4,7.51-.31,.34-.68,.62-1.09,.84-.37,.18-.72,.55-1.07,.76s-.65,.26-1,.5-.69,.65-1.05,1-.68,.35-.79,.11-.7-.89-.8-1.13Z"/>
        <path class="cls-6" d="M448.75,178.39c-12.77-15-33.48-24.06-54.38-23.69-5.62,.11-12.1,1.37-14.76,6-.88,1.67-1.36,3.52-1.39,5.41-.15,2.67,.22,5.6,2.28,7.46,1.86,1.68,4.66,2.08,7.29,2.14,9.92,.24,19.63-3.27,29.56-3.41,10.7-.16,20.89,3.59,30.75,7.27"/>
        <path class="cls-23" d="M449.73,172.62c-13.15-16.82-31.53-27-52.88-26.72-5.74,.07-12.35,1.42-15,6.5-.89,1.88-1.36,3.92-1.38,6-.13,3,.26,6.22,2.38,8.3,1.91,1.88,4.78,2.35,7.46,2.44,10.14,.34,20-3.49,30.18-3.57,10.92-.08,16.68,4.3,26.78,8.47"/>
        <path class="cls-16" d="M449.83,172.61l-.64,1.27c-10.11-4.17-20.54-8.42-31.46-8.32-10.15,.07-20,3.89-30.18,3.56-2.68-.09-5.55-.56-7.46-2.45s-2.45-4.93-2.39-7.74c2.88,2.12,6.8,4.28,10.43,4.27,4.88,.1,9.76-.38,14.53-1.42,10.92-2.62,22.3-2.73,33.27-.32,7.42,4.38,8.62,4.36,13.9,11.15Z"/>
        <path class="cls-27" d="M449.25,173.3c-1.11-.73-2.11-1.62-2.94-2.66-.6-.65-1.26-1.24-1.88-1.86s-1-.93-1.5-1.41c-.71-.7-1.4-1.4-2.16-2s-1.55-1.21-2.33-1.79c-.35-.29-.91-.68-1.61-1.19s-1.5-1.14-2.45-1.78-2-1.35-3.09-2-2.27-1.39-3.44-2-2.35-1.27-3.47-1.81l-3.15-1.44c-1.93-.76-3.33-1.34-3.78-1.49l-2.87-.95c-1.17-.39-2.54-.7-3.84-1.06-1.93-.49-3.9-.85-5.88-1.06-.39,0-1.11-.11-2-.23s-2-.16-3.1-.26-2.22-.11-3.18-.13-1.79,0-2.26,0l-2.28,.15c-3.04,.21-5.96,1.3-8.4,3.12-1.33,1.02-2.27,2.46-2.66,4.09-.11,.41-.16,.83-.25,1.26-.5,2.33-.37,4.74,.37,7,.34,.89,.93,1.66,1.71,2.21,.89,.56,1.89,.94,2.93,1.11,.99,.19,1.99,.3,3,.31,.67,.03,1.33,.03,2,0,3.66-.26,7.36-.72,11.13-1.29,.5-.06,1-.14,1.49-.25,2.79-.64,5.62-1.12,8.46-1.45,.92-.14,1.86-.2,2.8-.28l2.21-.1c3.27-.17,6.55,.02,9.78,.58l.62,.1c3.39,.5,6.7,1.41,9.87,2.72,1.89,.77,3.82,1.43,5.78,2,.39,.11,.78,.24,1.15,.4,1.83,.87,3.73,1.62,5.58,2.43,.09,.04,.17,.09,.25,.14,.29,.15,.32,1,.25,1.13-.71,.59-1.52,1.05-2.38,1.37-.28-.05-.55-.11-.82-.2-.76-.31-1.58-.47-2.4-.45-.48-.01-.95-.13-1.37-.35-3.63-1.59-7.37-2.93-11.19-4-1.6-.45-3.23-.82-4.87-1.1-4.05-.79-8.18-1.01-12.29-.65-4.14,.37-8.3,1.21-12.57,2-1.5,.27-3,.5-4.57,.65s-2.88,.28-4.34,.39c-1.25,.1-2.51,.17-3.78,.18-1.3,.04-2.61-.03-3.9-.2-2.07-.23-4.03-1.02-5.68-2.28-1.63-1.41-2.73-3.34-3.13-5.46-.33-1.58-.44-3.19-.33-4.8,.05-1.6,.3-3.19,.76-4.72,.51-1.65,1.38-3.16,2.55-4.42,1.14-1.21,2.5-2.19,4-2.9l.62-.29c1.22-.61,2.51-1.07,3.84-1.37,1.67-.37,3.36-.6,5.07-.67,2.22-.07,4.44-.02,6.65,.15,1.61,.11,3.22,.21,4.82,.46,.8,.11,1.6,.2,2.4,.34l2.37,.47c3.16,.63,6.27,1.48,9.31,2.55l3.92,1.52,3.85,1.69c.37,.19,.76,.36,1.12,.56,4.02,2.12,7.85,4.58,11.45,7.36,3.13,2.42,6.06,5.1,8.76,8,.34,.35,.61,.74,.82,1.18,.19,.37,.47,.83,.63,1.22s.16,.71,.34,1.09,.53,.82,.78,1.24,.22,.72-.05,.78-.95,.36-1.25,.4Z"/>
        <path class="cls-2" d="M313.38,296.81c-6.86-7.16-12.27-15.58-15.92-24.8-.14-.34-.07-1.39,.45-1.58s1.28,.52,1.41,.85c2.24,6.06,5.27,11.8,9,17.07,1.08,1.58,2.2,3.12,3.4,4.61,.11,.14,.9,1,1.63,1.79s1.39,1.64,1.19,1.83c-.38,.43-.91,.49-1.16,.23Z"/>
        <path class="cls-2" d="M328.55,304.29c-6.97-3.96-12.93-9.48-17.41-16.13-.33-.44-.24-1.07,.2-1.4,.44-.33,1.07-.24,1.4,.2,.02,.03,.04,.06,.06,.09,2.77,4.36,6.2,8.25,10.17,11.56,1.15,1,2.33,2,3.58,2.86,.12,.08,.91,.53,1.65,1s1.43,1,1.3,1.2c-.23,.49-.65,.77-.95,.62Z"/>
        <path class="cls-27" d="M425.29,272.65l-4.26-6.79c-.06-.08,.19-.54,.65-.83s1-.32,1-.23l2.5,4.76,.66,1.45c.05,.09,.82,1,.35,1.26s-.85,.47-.9,.38Z"/>
        <path class="cls-27" d="M423.64,263.64l-.73,9.93c0,.13-.48,.41-1,.37s-1-.39-1-.51l.9-6.62,.37-1.94c0-.12-.07-1.57,.48-1.53s.99,.17,.98,.3Z"/>
        <path class="cls-27" d="M408.55,318.64l-4.27-6.79c-.05-.08,.19-.54,.66-.83s1-.32,1-.23l2.5,4.76,.65,1.45c.06,.08,.82,1,.36,1.26s-.83,.47-.9,.38Z"/>
        <path class="cls-27" d="M406.92,309.62l-.74,9.94c0,.12-.48,.41-1,.37s-1-.4-1-.52l.9-6.61,.36-1.94c0-.12-.06-1.57,.49-1.53s1,.17,.99,.29Z"/>
        <path class="cls-27" d="M301.55,257.07l.93-8c0-.1,.49-.31,1-.24s1,.37,1,.47l-1,5.28-.4,1.54c0,.1,0,1.27-.52,1.21s-1.07-.16-1.01-.26Z"/>
        <path class="cls-27" d="M305.86,249.01l-6.79,7.29c-.08,.09-.63,0-1-.36s-.52-.92-.43-1l4.84-4.6,1.5-1.28c.08-.09,.93-1.27,1.33-.89s.64,.75,.55,.84Z"/>
        <ellipse class="cls-8" cx="336.68" cy="306.99" rx="1.57" ry="2.24"/>
        <circle class="cls-8" cx="348.59" cy="317.28" r="1.71"/>
        <path class="cls-8" d="M331.98,320.01c1.26-3.41,5.04-5.15,8.45-3.89,3.41,1.26,5.15,5.04,3.9,8.45"/>
        <path class="cls-8" d="M306.14,240.7c.31,.03,.59,.16,.82,.37,.15,.12,.33,.22,.49,.33,.13,.08,.26,.16,.38,.26,.33,.29,.69,.54,1.06,.77,.68,.45,3.94,3,4.27,3.27,.51,.38,2,1.54,2.35,1.67s1.57,1.1,2,1.29c.15,.08,.3,.18,.44,.28,.6,.44,1.33,.67,1.94,1.08,.38,.25,.78,.48,1.17,.7,.1,.06,.2,.1,.29,.16,1,.65,2.06,1.12,3.09,1.67l.63,.32c.13,.07,.27,.15,.41,.21,.76,.31,1.5,.65,2.23,1,.1,.05,.2,.1,.3,.13,.58,.17,1.14,.38,1.7,.61l.55,.19c.14,0,.28,.11,.43,.15,.65,.15,1.27,.4,1.93,.53h.12c.7,.14,1.38,.31,2.06,.53,.41,.14,.83,.21,1.26,.22,.08,0,.17,0,.25,0,.37,.1,.76,.14,1.14,.11h.05c.06,0,.16,.3,.18,.36-.03,.32-.13,.63-.29,.91-.06,.03-.13,.04-.2,.05-.21,0-.42,.07-.6,.17-.11,.05-.24,.05-.35,0-.91-.21-1.77-.34-2.66-.54l-1.11-.27c-1.85-.46-3.67-1.06-5.44-1.78-.31-.13-.61-.27-.91-.43s-.56-.28-.84-.41l-1.46-.67c-.69-.32-1.34-.7-2-1.05-1.11-.62-2.21-1.25-3.28-1.93l-.11-.07c-.97-.51-1.9-1.08-2.79-1.72-.57-.38-1.14-.76-1.7-1.16s-1.13-.78-1.67-1.19-1-.71-1.44-1.07c-.07-.05-.15-.09-.22-.15l-4.23-3.37c-.09-.07-.15-.16-.19-.26,0-.09-.11-.18-.15-.27-.01-.1-.04-.19-.07-.28-.06-.09-.12-.17-.19-.25-.07-.06-.07-.17,0-.24,0,0,0,0,0,0,.06,.09,.29-.17,.36-.22Z"/>
        <path class="cls-10" d="M315.18,242.8c.18-.06,.37-.03,.53,.07,.1,.06,.2,.11,.31,.14,.08,.03,.16,.07,.23,.12,.2,.14,.43,.25,.66,.33,.44,.17,2.4,1.48,2.59,1.61s1.22,.78,1.4,.84,.93,.55,1.17,.64c.09,.04,.17,.09,.25,.15,.35,.24,.8,.29,1.15,.52s.45,.26,.67,.39l.16,.09c.55,.38,1.17,.63,1.74,1l.35,.21c.07,.04,.15,.08,.23,.12,.43,.18,.84,.41,1.22,.67,.05,.04,.1,.07,.16,.09,.32,.12,.63,.27,.93,.43,.1,.04,.2,.09,.29,.15,.07,.04,.15,.08,.23,.12,.36,.12,.7,.31,1.05,.45h.07c.39,.12,.75,.3,1.08,.53,.2,.15,.43,.24,.68,.26,.05-.01,.09-.01,.14,0,.21,.12,.43,.23,.66,.31h0c0,.13-.01,.26-.05,.38-.15,.26-.31,.51-.49,.75-.04,0-.08,0-.12,0-.12-.03-.25,0-.35,.08-.06,.04-.13,.04-.19,0-.44-.27-.93-.4-1.38-.62-.19-.1-.4-.16-.6-.25-1-.42-1.95-.88-2.91-1.35-.17-.09-.33-.19-.48-.3-.14-.1-.29-.19-.45-.27l-.8-.41-1.12-.61-1.85-1.06h-.06c-.57-.24-1.12-.53-1.63-.87-.33-.19-.67-.37-1-.57s-.67-.38-1-.59-.57-.35-.86-.52l-.13-.07c-.45-.32-2.33-1.5-2.57-1.64-.06-.03-.09-.09-.1-.16-.03-.06-.05-.13-.07-.19v-.22c0-.07-.08-.1-.11-.15-.05-.07-.05-.15,0-.22l.37-.38Z"/>
        <path class="cls-2" d="M296.12,129.95c-3.63,4.65-6.16,10.04-7.43,15.8-.24,.4-.69,.63-1.15,.57-.45-.13-.78-.53-.81-1,1.03-3.99,2.66-7.8,4.82-11.31,.66-1,1.35-2,2.09-2.93,.1-.2,1.55-2.42,2-2.06s.61,.76,.48,.93Z"/>
        <ellipse class="cls-6" cx="416.08" cy="214.23" rx="30.26" ry="28.95"/>
        <circle class="cls-8" cx="416.15" cy="206.78" r="30.26"/>
        <rect class="cls-27" x="410.68" y="190.07" width="12.6" height="31.49" rx="6.3" ry="6.3"/>
        <circle class="cls-8" cx="422.8" cy="200.29" r="5.91"/>
        <path class="cls-15" d="M446.41,207.44c.3,16.71-13,30.51-29.71,30.82-16.71,.3-30.51-13-30.82-29.71,0-.37,0-.73,0-1.1,0-.92,.04-1.83,.14-2.74,1.55,16.64,16.29,28.88,32.93,27.33,14.5-1.35,25.98-12.83,27.33-27.33,.09,.9,.13,1.82,.13,2.74Z"/>
        <path class="cls-27" d="M388.31,209.4c.96,15.56,14.34,27.39,29.9,26.44,13.52-.83,24.55-11.16,26.26-24.6,.07-.34,.17-.67,.29-1,.13-.42,.29-.82,.49-1.21,.4-.79,.94-1.49,1.49-1.5s1,.73,1.33,1.64c.16,.46,.28,.93,.36,1.41,.06,.38,.06,.78,0,1.16-1.53,10.63-8.29,19.79-18,24.38-.6,.26-1.18,.56-1.78,.8l-1.85,.65-.93,.33-.95,.23-1.9,.46c-.63,.13-1.28,.19-1.93,.29-.64,.11-1.28,.18-1.93,.22-1.3,.08-2.6,.08-3.9,0-5.19-.23-10.25-1.77-14.69-4.47-5.17-3.19-9.29-7.82-11.87-13.32-1.18-2.24-2.05-4.63-2.57-7.11-.7-3.39-.48-6.71,0-6.69,1.12-.06,2.08,.78,2.18,1.89Z"/>
        <ellipse class="cls-6" cx="338.75" cy="212.76" rx="30.61" ry="29.34"/>
        <circle class="cls-8" cx="338.68" cy="205.16" r="30.61"/>
        <path class="cls-15" d="M308.07,205.84c0,16.91,13.7,30.61,30.61,30.61s30.61-13.7,30.61-30.61c0-.94,0-1.87-.13-2.78-1.53,16.83-16.41,29.24-33.24,27.71-14.72-1.33-26.38-13-27.71-27.71-.09,.95-.14,1.84-.14,2.78Z"/>
        <path class="cls-27" d="M369.85,208.07c-1.19,17.97-16.71,31.57-34.68,30.38-11.13-.73-21.12-7.11-26.46-16.9-1.92-3.52-3.17-7.37-3.67-11.35-.06-.39-.06-.78,0-1.17,.08-.49,.2-.96,.36-1.43,.31-.92,.78-1.66,1.33-1.66s1.09,.72,1.49,1.52c.2,.39,.36,.8,.49,1.22,.12,.33,.22,.66,.29,1,1.12,9.58,6.96,17.96,15.55,22.33,.54,.26,1.06,.55,1.61,.79l1.67,.64,.83,.32,.87,.23,1.72,.47c.59,.14,1.18,.21,1.77,.31,.58,.12,1.18,.21,1.77,.25,1.19,.12,2.39,.16,3.59,.12,10.78-.28,20.58-6.35,25.64-15.87,1.05-2.2,1.85-4.5,2.4-6.87,.75-3.22,.91-6.42,1.49-6.43,1.07,0,1.94,.86,1.95,1.93,0,.06,0,.11,0,.17Z"/>
        <path class="cls-27" d="M372.74,277.76h-5.52c-1.1,0-2-.9-2-2s.9-2,2-2h5.52c7.73,0,15.27-2.35,21.62-6.75,.91-.63,2.16-.4,2.79,.51s.4,2.16-.51,2.79c-7.02,4.87-15.36,7.47-23.9,7.46Z"/>
        <path class="cls-17" d="M312.55,252.86c.63,.15,1.2,.47,1.67,.92,.31,.28,.66,.51,1,.76,.27,.18,.53,.37,.77,.58,.69,.62,1.44,1.16,2.24,1.64,.72,.44,2.81,2,4.94,3.29,1.51,.93,3.07,1.78,4.67,2.53,.6,.28,1.82,.82,3,1.23,.86,.33,1.75,.59,2.65,.78,1.59,.38,3.19,.68,4.81,.9,.35,0,.7,.06,1,.09,1.29,.1,2.58-.19,3.7-.82,.64-.35,1.19-.86,1.59-1.47l.3-.49c1.23-1.79,1.65-4.46,3.13-7,.31-.49,.61-1,1-1.42l.65-.87c1.13-1.58,2.55-2.94,4.18-4,.21-.15,.45-.27,.63-.43,1.12-.86,2.35-1.56,3.67-2.07,.42-.2,.86-.36,1.31-.49,.34-.12,.71-.18,1-.3,1.43-.48,2.8-.78,4.23-1.21l.28-.07c1.5-.53,3.06-.86,4.65-1,.98-.08,1.94-.26,2.89-.52,.19-.06,.38-.09,.58-.1,1,0,2-.08,3,0h.14c.05,0,.32,.63,.31,.76-.21,.6-.48,1.19-.8,1.74-.12,0-.24,.09-.37,.11-.38,.02-.73,.18-1,.44-.17,.14-.38,.2-.6,.19-1.81,.1-3.6,.39-5.35,.85-.77,.16-1.53,.41-2.3,.62l-2.91,.8-1.47,.39c-.46,.14-.88,.23-1.31,.4-1.73,.62-3.35,1.52-4.8,2.65l-1.55,1.2c-.49,.37-.93,.8-1.33,1.27-.68,.79-1.29,1.64-1.81,2.54-.74,1.34-1.36,2.74-1.86,4.18-.49,1.4-1.16,2.72-2,3.94-.99,1.35-2.4,2.35-4,2.83l-.33,.1c-.64,.23-1.32,.37-2,.41-.83,.06-1.66,.04-2.49-.06-1.04-.12-2.08-.3-3.1-.53-1.5-.27-2.99-.65-4.44-1.12-1.45-.45-2.87-.99-4.25-1.62-1.19-.58-2.4-1.12-3.56-1.75l-.52-.28c-.91-.56-3.23-2-5.28-3.57s-3.91-3.14-4.3-3.49c-.18-.15-.31-.34-.39-.56-.07-.19-.23-.39-.3-.59-.03-.2-.08-.4-.13-.59-.12-.2-.25-.39-.39-.57-.12-.14-.11-.35,.03-.47,.01-.01,.03-.02,.05-.03,.19-.13,.68-.5,.87-.65Z"/>
        <path class="cls-18" d="M305.78,259.01l12.67,6.41c.27,.33,.32,.8,.12,1.18-.18,.39-.57,.63-1,.61l-8.3-4.65-2.4-1.55c-.16-.08-2.07-.85-1.82-1.34s.58-.79,.73-.66Z"/>
        <path class="cls-18" d="M385.77,253.8c-5.97-.43-11.96-.25-17.89,.51-.46-.08-.82-.43-.92-.89-.03-.47,.24-.91,.67-1.1,4.06-.38,8.14-.5,12.21-.34,1.2,.08,2.39,.18,3.58,.31,.22,0,2.86,0,2.82,.54s-.26,.99-.47,.97Z"/>
        <path class="cls-27" d="M300.14,68.01c16.1-1.58,31.8-5.94,46.41-12.88,.54-.25,2.14-.52,2.38,0s-1,1.58-1.52,1.84c-9.94,4.56-20.38,7.96-31.11,10.12-3.15,.6-6.33,1.12-9.51,1.49-.3,0-2.19,.35-4,.55s-3.6,.25-3.62,0c-.03-.57,.4-1.07,.97-1.12Z"/>
        <path class="cls-27" d="M427.55,105.37c-23.74,6.58-48.39,9.28-73,8-.91-.05-3.25-.62-3.21-1.18s2.42-.86,3.31-.81c16.3,.98,32.66,.2,48.79-2.33,4.75-.72,9.49-1.55,14.19-2.58,.45-.08,3.23-.8,5.91-1.46s5.25-1.31,5.33-1c.13,.5-.46,1.13-1.32,1.36Z"/>
        <path class="cls-27" d="M417.17,103.07c-17.34,4.78-35.34,6.74-53.31,5.78-.66,0-2.37-.47-2.34-.87s1.77-.63,2.42-.59c11.89,.74,23.83,.18,35.61-1.65,3.47-.52,6.93-1.12,10.37-1.87,.32-.06,2.35-.59,4.31-1.06s3.83-1,3.89-.76c.12,.39-.31,.85-.95,1.02Z"/>
        <rect class="cls-27" x="331.65" y="190.08" width="12.6" height="31.49" rx="6.3" ry="6.3"/>
        <circle class="cls-8" cx="332.12" cy="200.29" r="5.91"/>
        <ellipse class="cls-16" cx="446.19" cy="283.73" rx="1.57" ry="2.24"/>
        <ellipse class="cls-16" cx="433.81" cy="286.14" rx="1.27" ry="1.9"/>
        <ellipse class="cls-16" cx="435.79" cy="295.78" rx="5.95" ry="4.4" transform="translate(-69.19 445.41) rotate(-50.67)"/>
        <path class="cls-27" d="M465.82,189.58c-.76,0-1.48-.34-1.95-.93-14.91-18.53-25.56-47.51-28.11-76.21-24.4,5.16-49.59,10.27-75.1,9.59-19.49-.53-36.08-2.86-50.72-7.13-21.06-6.15-35.42-19.14-42.67-38.63l-5.1-14.6c-.45-1.3,.23-2.73,1.54-3.18,.57-.2,1.2-.18,1.76,.04,.36,.15,36.91,14.19,91.57-17.84,25-14.63,52-15.08,76.14-1.26,22.57,12.94,38.15,36.58,39.81,59.79l11.08-5.85c1.22-.64,2.73-.17,3.38,1.05,.12,.24,.21,.49,.25,.75,1.65,11.42,2.22,22.97,1.7,34.5-1.13,25.65-7.53,45.25-19,58.26-.65,.74-1.69,1.03-2.63,.73-.11,.14-.23,.26-.37,.37-.45,.36-1.01,.56-1.58,.55Zm-27.79-82.68c1.31,.01,2.39,1.02,2.49,2.33,2,28.07,12,56.69,26.34,75.14,21.81-25.07,18-71.84,16.38-84.91l-11.44,6c-1.22,.65-2.73,.18-3.38-1.04-.19-.36-.29-.76-.29-1.17,0-22.77-15-46.69-37.44-59.52-13-7.47-39.6-17.24-71.12,1.24-45.8,26.84-79,22.66-91,19.67l3.45,9.89c6.65,17.88,19.91,29.85,39.37,35.53,14.23,4.15,30.4,6.41,49.45,6.93,25.92,.71,51.73-4.78,76.72-10.07,.16-.02,.31-.03,.47-.02h0Z"/>
        <path class="cls-27" d="M361.48,334.87c-16.87,0-32.13-8.35-43.55-15.62-26.12-16.62-40.36-47.61-36.25-79l2.42-18.6,3.68,4.7c4.82,5.88,10.15,11.31,15.95,16.23,8.76,7.45,22.18,16.62,36.4,18.05,1.27,.13,1.65-.15,3.3-3.66,2.87-6.11,7.66-16.31,32.44-16.31h.08c.19-.02,.39-.02,.58,0,20.27,0,26.5,9.27,30.62,15.39,2.38,3.54,3.38,4.77,5.21,4.58,27.43-2.75,52.1-34,52.35-34.28l3.67-4.71,2.43,18.61c4.1,31.35-10.13,62.34-36.26,79h0c-15.45,9.84-29.67,14.63-43.47,14.63l-29.6,1h0Zm-73.93-101.02l-.93,7.08c-3.85,29.43,9.49,58.51,34,74.1,10.85,6.9,25.29,14.83,40.78,14.83l29.6-1c12.9,0,26.24-4.53,40.86-13.84h0c24.5-15.59,37.84-44.67,34-74.1l-.92-7.08c-8.19,9.14-28.78,29.45-52.08,31.79-4.94,.5-7.45-3.2-9.85-6.77-4-5.87-8.88-13.18-26.58-13.18h-.56c-21.59,0-25.24,7.76-27.91,13.43-1.54,3.29-3.27,7-8.32,6.52-23.31-2.33-43.9-22.63-52.09-31.78Z"/>
        <path class="cls-12" d="M98.47,264.17h33.79v61.4c0,9.33-7.56,16.89-16.89,16.89h0c-9.33,0-16.89-7.56-16.89-16.89h0v-61.4h0Z"/>
        <path class="cls-6" d="M133.95,305.27v10.14c-11.12,2.35-22.58,2.58-33.79,.68v-10.14c11.21,1.9,22.67,1.67,33.79-.68Z"/>
        <path class="cls-27" d="M114.78,343.66c-1.82,.35-3.7,.19-5.44-.46-1.19-.39-2.34-.88-3.44-1.48-.86-.46-1.68-1.01-2.45-1.62-2.13-1.84-3.89-4.07-5.19-6.56-1.09-2.18-1.7-4.57-1.79-7-.06-.86,0-1.61,0-2.41v-7.6c.07-6.89,.13-13.51,.14-14.71,0-3.67,.14-14.79,0-16.68s0-11.12-.08-13.65v-9.22l4.08-.09,2.22-.09c1.44-.05,2.88-.09,4.32-.06h9.9c2.54,.07,5.08,.08,7.63,.07h9.8v7.44l-.05,4.18v2.65c.15,4.82,0,9.62-.1,14.41,0,.64-.06,1.29,0,1.9,.21,3.53,0,7.07,.05,10.61v3.41c0,.89-.05,1.78,0,2.66,.1,3.93,0,7.85,.05,11.78v.76c.05,1.05,.07,2.09,.08,3.14,0,.49,0,1.08-.06,1.67l-.06,.87-.14,.87c-.39,2.29-1.22,4.48-2.45,6.45-1.51,2.35-3.39,4.43-5.58,6.16-.43,.35-.9,.66-1.39,.92-2.48,1.31-5.2,2.08-8,2.26h-.4c-.45,0-.92-.74-.91-.9,.27-.41,.57-.8,.89-1.17,.29-.41,.63-.8,1-1.14,.3-.11,.61-.2,.92-.27,.91-.17,1.76-.58,2.45-1.2,.4-.32,.85-.59,1.33-.79,2.03-.91,3.8-2.32,5.13-4.1,1.34-1.78,2.28-3.83,2.78-6l.22-1.39c0-.48,.05-.95,.07-1.42v-35.61c0-1.9,0-3.79,.11-5.68s.1-3.54,.1-5.31v-13.11h-5.09l-21.82-.14h-.75c-.52,0-1.17,.07-1.92,.09h-.53v24.11c0,3.91,.06,7.82,0,11.74v11.77c0,1.4,0,3.86-.09,6.82v4.74c-.02,1.5,.17,3,.57,4.45,.76,2.66,2.24,5.06,4.27,6.93,1.15,1.06,2.46,1.93,3.88,2.59,.48,.22,.94,.47,1.38,.77,.44,.26,.89,.5,1.35,.71,.35,.26,.72,.47,1.11,.65,.26,.1,.53,.17,.81,.23l.87,.13c.56,.1,.85,.34,.7,.57s-.3,1.12-.48,1.35Z"/>
        <circle class="cls-6" cx="123.23" cy="317.4" r="4.46"/>
        <circle class="cls-6" cx="116.11" cy="322.54" r="1.99"/>
        <rect class="cls-37" x="154.98" y="82.95" width="61.58" height="122.98" rx="30.47" ry="30.47"/>
        <path class="cls-35" d="M213.91,99.78h-55.14c2.11-4.2,5.16-7.86,8.91-10.69h37.33c3.75,2.83,6.8,6.49,8.9,10.69Z"/>
        <path class="cls-33" d="M37.03,203.11h-.64c-16.84,0-11.84-11.58-11.84-28.41l-15.11-58.24c-2.11-7.72-1.03-15.97,3-22.89,4.98-8.44,14.1-13.57,23.9-13.44h.64c16.83-.05,30.52,13.56,30.57,30.39,0,.03,0,.06,0,.09v62c.02,16.83-13.61,30.48-30.44,30.5-.03,0-.05,0-.08,0Z"/>
        <path class="cls-35" d="M66.61,102.25c-17.66,5.83-37.09,.74-49.62-13,1.82-1.62,3.83-3.01,6-4.13,11.07,10.12,26.29,14.37,41,11.46,1.07,1.79,1.95,3.69,2.62,5.67Z"/>
        <path class="cls-27" d="M188.64,208.43h-.63c-18.23,0-33-14.77-33-33h0v-62c0-18.23,14.77-33,33-33h.63c18.23,0,33,14.77,33,33h-5c0-15.46-12.54-28-28-28h-.63c-15.46,0-28,12.54-28,28v62c0,15.46,12.54,28,28,28h.63c15.46,0,28-12.54,28-28h5c0,18.23-14.77,33-33,33h0Z"/>
        <path class="cls-27" d="M38.77,204.52c-2.67,.54-5.45,.32-8-.65-3.47-1.21-6.16-4-7.25-7.51-.57-1.96-.94-3.97-1.09-6-.18-2-.25-3.87-.31-5.76-.06-1.73,0-5.35,0-9.52l-3.37-13.74-5.14-21.12c-.64-2.63-1.94-7.94-3.16-12.93s-2.46-9.55-2.74-11.15c-.09-.38-.22-.94-.34-1.64s-.13-1.49-.21-2.49c-.08-1-.08-2,0-3l.06-1.64,.24-1.67c.54-3.68,1.67-7.25,3.35-10.57l.5-1.12c.19-.35,.42-.69,.63-1,.44-.67,.88-1.35,1.33-2,2.07-2.74,4.46-5.21,7.13-7.37,2.75-2.12,5.84-3.73,9.15-4.77,2.06-.6,4.17-.99,6.31-1.18l1.6-.16h1.59c1,0,2.11,.08,3.16,.13h.76l.76,.11c.5,.07,1,.14,1.51,.23,5.41,1.01,10.5,3.32,14.83,6.71,4.34,3.4,7.75,7.84,9.91,12.91,.4,1,.76,2.11,1.13,3.16l.8,3.25,.3,2.11,.15,1,.07,1c.06,.94,.16,2,.17,2.85v7.99l-.18,10.63c0,.94-.07,1.9,0,2.8,.25,5.23,0,10.46,0,15.68v5.05c0,1.31-.06,2.63,0,3.93,.07,2.9,.07,5.8,.07,8.7v6.53c0,.74-.07,1.55-.1,2.32v1.21c-.27,3.33-1.09,6.6-2.43,9.66-1.4,3-3.24,5.77-5.46,8.23-2.71,2.93-5.81,5.46-9.22,7.54-.67,.38-1.42,.78-2.12,1.09-3.7,1.52-7.63,2.41-11.62,2.64h-.57c-.62-.05-1.16-.42-1.42-.98,.39-.51,.84-.99,1.32-1.42,.48-.54,1.05-.98,1.68-1.33,.47-.15,.94-.28,1.42-.38,1.39-.2,2.72-.7,3.91-1.45,.67-.44,1.4-.78,2.17-1,3.21-1.2,6.15-3.05,8.62-5.42,2.5-2.36,4.57-5.15,6.1-8.23,1.32-2.62,2.16-5.45,2.5-8.36,.16-.9,.25-1.8,.28-2.71,.07-.88,.06-1.89,.06-2.88v-41.82c0-2.81,0-5.6,.13-8.4,.09-2.6,.12-5.23,.13-7.85,0-1.11,0-2.27-.07-3.27l-.08-1.56c0-.52-.15-1-.22-1.54l-.25-1.54-.4-1.51c-.26-1.01-.6-1.99-1-2.95-1.07-2.75-2.55-5.31-4.4-7.61-1.89-2.27-4.1-4.25-6.56-5.88l-1.58-1c-.52-.33-1.1-.56-1.65-.84-1.11-.53-2.26-1-3.43-1.39-2.36-.75-4.8-1.19-7.27-1.3-4.98-.34-9.96,.68-14.41,2.96-.32,.13-.63,.28-.92,.46-.61,.45-1.38,1-2.27,1.58-.43,.33-.85,.71-1.31,1.09-.49,.38-.96,.79-1.4,1.23-.97,.93-1.87,1.93-2.69,3-.87,1.08-1.66,2.21-2.36,3.4-1.84,3.16-3.06,6.64-3.59,10.26-.19,1.32-.29,2.66-.28,4,0,.67,.03,1.34,.11,2,.03,.67,.1,1.34,.2,2,.29,1.33,.45,2.56,.85,4l1.06,4.23c1.38,5.61,2.88,11.19,4.22,16.83,1.17,4.9,2.46,9.79,3.7,14.69,.19,.72,.39,1.45,.56,2.17l2.35,9.8,1.66,6.8,.22,.9,.09,.35c.04,.14,.07,.28,.08,.42v2.59c0,1.25-.06,2.5-.08,3.75-.12,5-.21,9.75,.61,13.06,.34,2.06,1.49,3.91,3.19,5.12,.61,.42,1.16,.77,1.73,1.17,.62,.37,1.27,.68,1.95,.93,.54,.31,1.11,.58,1.7,.79,.84,.19,1.68,.32,2.54,.38,.85,.11,1.3,.37,1.07,.65s-.52,1.27-.77,1.54Z"/>
        <rect class="cls-6" x="2.05" y="171.25" width="45.05" height="37.17" rx="18.58" ry="18.58"/>
        <rect class="cls-12" x="10.17" y="176.85" width="28.81" height="23.77" rx="11.88" ry="11.88"/>
        <path class="cls-27" d="M28.55,209.85h-7.92C8.99,209.6-.25,199.95,0,188.31c.25-11.29,9.34-20.38,20.63-20.63h7.92c11.64,.25,20.88,9.9,20.63,21.54-.25,11.29-9.34,20.38-20.63,20.63Zm-7.89-37.17c-8.88,.22-15.91,7.6-15.68,16.49,.21,8.57,7.11,15.47,15.68,15.68h7.89c8.88-.22,15.91-7.6,15.68-16.49-.21-8.57-7.11-15.47-15.68-15.68h-7.89Z"/>
        <rect class="cls-6" x="180.37" y="171.25" width="45.05" height="37.17" rx="18.58" ry="18.58"/>
        <rect class="cls-12" x="188.5" y="176.85" width="28.81" height="23.77" rx="11.88" ry="11.88"/>
        <path class="cls-27" d="M206.84,209.85h-7.88c-11.64,.25-21.29-8.98-21.54-20.63-.25-11.64,8.98-21.29,20.63-21.54,.31,0,.61,0,.92,0h7.88c11.64,.25,20.88,9.9,20.63,21.54-.25,11.29-9.34,20.38-20.63,20.63Zm-7.88-37.17c-8.88-.22-16.26,6.8-16.49,15.68-.22,8.88,6.8,16.26,15.68,16.49,.27,0,.53,0,.8,0h7.88c8.88-.22,15.91-7.6,15.68-16.49-.21-8.57-7.11-15.47-15.68-15.68h-7.88Z"/>
        <path class="cls-12" d="M113.55,68.2h0c49.76,0,90.1,40.34,90.1,90.1v57.79c0,49.76-40.34,90.1-90.1,90.1h0c-49.76,0-90.1-40.34-90.1-90.1v-57.79c0-49.76,40.34-90.1,90.1-90.1Z"/>
        <path class="cls-8" d="M117,307.76c-1.15,.05-2.31,.07-3.47,.07-49.76,0-90.1-40.34-90.1-90.1h0v-57.79c0-49.76,40.34-90.1,90.1-90.1h.02c1.16,0-5.68,0-4.53,.07-48.16,1.81-75.64,41.43-75.64,90v57.79c-.02,48.63,35.46,88.25,83.62,90.06Z"/>
        <path class="cls-6" d="M204.33,222.78c-3.44,49.64-46.47,87.1-96.11,83.66-19.44-1.35-37.92-8.96-52.67-21.7,49.53,27.58,112.03,9.78,139.61-39.74,3.92-7.03,6.99-14.5,9.16-22.26v.04Z"/>
        <path class="cls-6" d="M183.44,100.13H80.8c-7.4,4.52-15.9,6.9-24.57,6.88-5.66,0-7.08-1-12.1-2.82,3.15-4.84,6.77-9.36,10.79-13.5,1.74,.2-.49,.3,1.31,.3,8.67,.01,17.18-2.38,24.57-6.91h87.57c2.1,1.74,4.1,3.58,6,5.51,3.29,3.27,6.33,6.8,9.07,10.54Z"/>
        <path class="cls-27" d="M113.55,309.26c-51.12-.06-92.54-41.48-92.6-92.6v-57.79c0-51.14,41.46-92.6,92.6-92.6s92.6,41.46,92.6,92.6v57.79c-.06,51.12-41.48,92.54-92.6,92.6Zm0-238c-48.36,.06-87.54,39.24-87.6,87.6v57.79c0,48.38,39.22,87.6,87.6,87.6s87.6-39.22,87.6-87.6v-57.78c-.06-48.36-39.24-87.54-87.6-87.6h0Z"/>
        <path class="cls-33" d="M205.55,89.09c0-44.48-36.05-80.53-80.53-80.53t0,0h-46.37C56.41-5.01,27.38,2.02,13.81,24.25,.24,46.49,7.27,75.52,29.51,89.09c15.09,9.21,34.06,9.21,49.14,0h126.9Z"/>
        <path class="cls-32" d="M205.55,89.07h-.13c-2.35-42.36-37.45-72.16-80.4-72.16h-46.37c-7.4-4.52-15.91-6.91-24.58-6.9C28.79,10.01,8.14,26.08,6.96,51.08v-2.27C6.99,22.75,28.13,1.65,54.18,1.67c8.63,0,17.09,2.38,24.47,6.87h46.37c44.47,0,80.52,36.06,80.53,80.53Z"/>
        <path class="cls-31" d="M204.6,75.01H78.65c-22.25,13.56-51.28,6.52-64.84-15.73-3.42-5.61-5.63-11.87-6.49-18.38-.27,2.05-.41,4.12-.41,6.19,0,26.06,21.14,47.17,47.19,47.17,8.66,0,17.15-2.39,24.55-6.9h126.9c0-4.13-.32-8.26-.95-12.35Z"/>
        <path class="cls-28" d="M25.3,63.52c-9.18-11.45-7.35-28.18,4.1-37.36,4.72-3.78,10.58-5.84,16.63-5.85v5c-11.91,.01-21.57,9.67-21.58,21.58-.02,4.91,1.66,9.68,4.75,13.5l-3.9,3.13Z"/>
        <path class="cls-27" d="M51.32,52.38v-5c6.03-.18,10.78-5.22,10.59-11.26-.17-5.78-4.82-10.42-10.59-10.59v-5c8.8,.22,15.75,7.53,15.53,16.32-.21,8.49-7.04,15.31-15.53,15.53Z"/>
        <circle class="cls-31" cx="180" cy="70.34" r="9.01"/>
        <circle class="cls-31" cx="168.52" cy="56.8" r="4.02"/>
        <circle class="cls-32" cx="104.55" cy="20.43" r="6.49"/>
        <circle class="cls-32" cx="112.82" cy="30.18" r="2.89"/>
        <path class="cls-27" d="M16.94,181.25c-4.46,2.79-5.81,8.67-3.02,13.13,.71,1.14,1.66,2.12,2.78,2.87,.23,.74,.13,1.54-.26,2.2-.51,1-1.71,1.33-2,1.12-2.39-1.78-4.11-4.3-4.9-7.17-.76-2.78-.57-5.74,.53-8.4,.69-1.51,1.68-2.87,2.9-3.99,.42-.53,.91-1,1.45-1.4,.75-.54,1.62-.81,1.88-.33,.54,.98,.83,1.85,.64,1.97Z"/>
        <path class="cls-27" d="M213.13,177.24c6.55,4.11,8.53,12.75,4.43,19.3-1.05,1.67-2.43,3.1-4.07,4.19-.3,.22-1.63-.32-2.27-1.53-.48-.78-.67-1.7-.54-2.61,1.8-1.02,3.21-2.62,4-4.54,.84-2.03,.97-4.28,.38-6.4-.29-1.33-.84-2.58-1.62-3.7l-1.31-1.15c-.58-.53-1.13-1.11-.79-1.72,.7-1.2,1.49-2.07,1.79-1.84Z"/>
        <path class="cls-27" d="M84.01,114.01l3.65,.45c1.2,.15,2.39,.28,3.59,.39,2.4,.22,4.8,.37,7.21,.45,2.39,.08,4.81,0,7.29,.06h22.05c4.83-.11,9.65-.5,14.43-1.16,.72-.09,2.74,.79,2.91,2.16s-1.57,2.71-2.29,2.8c-6.64,.74-13.32,.98-20,.72l-19.71-.52c-3.9-.16-7.82-.49-11.68-1-.36,0-2.7-.13-4.9-.47s-4.28-.83-4.2-1.51c.19-1.37,.93-2.44,1.65-2.37Z"/>
        <path class="cls-27" d="M91.99,105.35l2.69,.33c.87,.11,1.74,.2,2.61,.28,1.75,.16,3.5,.27,5.25,.33,1.75,.06,3.51,0,5.34,0h16.18c3.52-.08,7.04-.36,10.53-.84,1.42,.13,2.46,1.39,2.33,2.81-.09,1-.76,1.85-1.71,2.19-4.9,.5-9.82,.63-14.74,.39l-14.48-.51c-2.87-.17-5.76-.46-8.6-.9-.55,0-6.85-.33-6.66-1.7s.74-2.45,1.26-2.38Z"/>
        <rect class="cls-6" x="146.76" y="114.37" width="14.41" height="59.42" rx="7.2" ry="7.2" transform="translate(-24.58 256.25) rotate(-75.24)"/>
        <rect class="cls-33" x="149.31" y="109.95" width="14.41" height="59.42" rx="7.2" ry="7.2" transform="translate(-18.41 255.43) rotate(-75.24)"/>
        <path class="cls-27" d="M178.98,150.54c2.85-.4,4.84-3.03,4.44-5.88-.29-2.06-1.76-3.75-3.76-4.3l-3.8-1-7.64-2-30.57-8.05-1-.26-.45-.11-.35-.08c-.47-.08-.95-.1-1.42-.05-.95,.08-1.87,.42-2.63,1-2.29,1.72-2.76,4.97-1.04,7.27,.66,.88,1.57,1.52,2.62,1.84l7.55,2,30.62,8.09c1.5,.4,5.2,2.3,4.92,3.37s-4.44,.9-5.94,.5l-20.39-5.58-10.19-2.79-5.1-1.4-1.27-.34c-.43-.13-.81-.21-1.36-.4-1.02-.35-1.98-.88-2.81-1.57-3.44-2.85-4.17-7.85-1.69-11.57,1.8-2.72,4.98-4.18,8.21-3.78,.26,.02,.52,.07,.78,.13,.26,0,.52,.11,.72,.17l1.27,.35,20.38,5.58,12,3.38,6,1.69,3,.85c1.09,.29,2.11,.79,3,1.47,1.11,.84,1.99,1.95,2.55,3.22,1.02,2.33,.84,5.01-.47,7.18-1.23,2.07-3.37,3.42-5.77,3.65-1.91,.12-3-.52-2.94-.74,.17-.52,.53-.96,1-1.24,.45-.32,.98-.53,1.53-.6Z"/>
        <rect class="cls-6" x="72.96" y="114.34" width="14.41" height="59.42" rx="7.2" ry="7.2" transform="translate(-64.96 222.24) rotate(-89.22)"/>
        <rect class="cls-33" x="73.03" y="109.43" width="14.41" height="59.42" rx="7.2" ry="7.2" transform="translate(-59.98 217.48) rotate(-89.22)"/>
        <path class="cls-27" d="M105.19,144.01c2.65-1.1,3.91-4.14,2.81-6.8-.78-1.88-2.58-3.13-4.61-3.2l-3.93-.06-7.91-.14-31.6-.43h-1.83c-.47,.03-.94,.13-1.39,.29-.9,.32-1.7,.88-2.3,1.62-1.81,2.22-1.48,5.49,.75,7.3,.85,.69,1.89,1.1,2.98,1.16l7.81,.12,31.61,.43c1.55,0,5.6,1,5.59,2.08s-4.1,1.94-5.65,1.92l-21.13-.49-10.56-.25-5.28-.12h-1.32c-.45,0-.84,0-1.42-.06-1.08-.08-2.13-.37-3.1-.84-4.04-1.93-5.96-6.61-4.44-10.82,.72-2.02,2.17-3.69,4.06-4.7,.93-.5,1.95-.83,3-.95,.26-.04,.52-.06,.78-.06h2.06l21.13,.49,12.44,.39,6.22,.19,3.11,.1c1.14,.01,2.27,.25,3.32,.7,1.28,.54,2.4,1.4,3.24,2.5,1.55,2.01,2.03,4.65,1.29,7.08-.7,2.3-2.45,4.14-4.72,4.94-1.82,.58-3.06,.23-3,0,.04-.55,.28-1.07,.68-1.45,.36-.41,.81-.73,1.31-.94Z"/>
        <circle class="cls-6" cx="154.61" cy="100.94" r="5.54"/>
        <circle class="cls-6" cx="162.63" cy="107.71" r="2.77"/>
        <path class="cls-6" d="M175.48,268.01c-3.83,3.81-8.08,7.17-12.68,10-4.55,2.86-9.27,5.35-14,7.8-.35,.18-1.47,.26-1.72-.23s.45-1.36,.8-1.54c6.4-3,12.58-6.46,18.49-10.35,1.72-1.16,3.41-2.37,5-3.69l1.93-1.78c.87-.81,1.74-1.56,1.94-1.37,.43,.29,.53,.83,.24,1.16Z"/>
        <path class="cls-6" d="M180.2,262.24c-.83,1.41-1.92,2.64-3.21,3.63-.05,0-.44-.23-.77-.67-.23-.26-.38-.58-.45-.92,.83-.45,1.59-1.02,2.27-1.68,.23-.18,.46-.36,.67-.56,0,0,.2-.67,.68-.39s.84,.53,.81,.59Z"/>
        <path class="cls-6" d="M185.02,256.86l-3.53,3.86c-.34-.07-.66-.24-.89-.5-.41-.38-.63-.8-.58-.85l2.66-2.3,.86-.62s.42-.72,.82-.35,.71,.71,.66,.76Z"/>
        <path class="cls-7" d="M196.81,220.68v-42.45c0-.52,.45-1.89,1-1.89s1,1.37,1,1.89l-.41,28.38-.22,8.36c0,.52,.18,6.65-.37,6.65-.53,0-.97-.41-1-.94Z"/>
        <path class="cls-8" d="M45.55,259.63c-2.88-5.14-5.11-10.62-6.62-16.32-.06-.22,0-.82,.29-.89s.62,.42,.68,.63c.93,3.77,2.17,7.45,3.73,11,.44,1.06,.9,2.11,1.4,3.15,.08,.2,1.38,2.37,1.14,2.5-.19,.15-.47,.12-.62-.07,0,0,0,0,0,0Z"/>
        <path class="cls-11" d="M51.9,270.83c-2.18-2.46-3.98-5.22-5.35-8.21-.04-.24,.07-.47,.28-.59,.23-.07,.48,0,.63,.18,.81,1.97,1.82,3.85,3,5.62,.34,.53,.69,1.05,1.06,1.56,.07,.1,1,1.09,.84,1.27s-.38,.26-.46,.17Z"/>
        <path class="cls-32" d="M172.42,35.41c-8.62-7.17-19.07-11.79-30.17-13.33-.41-.05-1.45-.41-1.42-.69s1.14-.35,1.55-.3c7.5,1.11,14.73,3.61,21.31,7.37,1.92,1.11,3.78,2.33,5.57,3.65,.18,.11,1.25,.88,2.25,1.67s1.89,1.63,1.8,1.73-.58,.17-.89-.1Z"/>
        <path class="cls-32" d="M179.96,45.14c-2.34-2.62-5.04-4.92-8-6.81-3-1.94-6.1-3.61-9.26-5.26-.23-.12-.74-.64-.61-.88s.84-.13,1.07,0c4.28,2.18,8.36,4.71,12.2,7.59,1.1,.88,2.15,1.83,3.15,2.83,.1,.08,.72,.66,1.27,1.26s1,1.22,.9,1.31c-.2,.19-.52,.18-.71-.03,0,0,0,0-.01-.01Z"/>
        <path class="cls-31" d="M122.05,72.27l-40.16,.4c-.49,0-1.79-.65-1.8-1.48s1.27-1.51,1.77-1.52l26.86,.34,7.91,.25c.49,0,6.29-.33,6.3,.5s-.38,1.5-.88,1.51Z"/>
        <path class="cls-31" d="M139.55,66.49c-5.08,.41-10.19,.41-15.27,0-4.94-.42-9.9-.46-14.85-.12-.72-.12-1.3-.68-1.44-1.4,.03-.74,.52-1.37,1.23-1.59,3.41-.15,6.82-.11,10.22,.14,3.4,.24,6.72,.66,10,.87,2,.18,3.91,.27,5.88,.32,.19,0,1.35-.13,2.48-.16s2.22,0,2.26,.42c.06,.8-.19,1.49-.51,1.52Z"/>
        <path class="cls-36" d="M210.12,105.14c-5.82-.47-11.66-.47-17.48,0-.21,0-.85-.83-1-1.93s.41-2,.63-2.06c4.04-.05,8.08,.12,12.1,.5,1.17,.18,2.35,.37,3.51,.59,.22,0,2.84-.17,2.75,.94s-.3,1.98-.51,1.96Z"/>
        <path class="cls-39" d="M210.76,108.01h-6.94c-.09,0-.31-.45-.31-1s.22-1,.31-1l4.64,.41,1.36,.22c.09,0,1.09-.18,1.09,.37s-.07,1-.15,1Z"/>
        <path class="cls-27" d="M114.24,214.72c-1.38,0-2.5-1.12-2.5-2.5v-20.66c0-1.38,1.12-2.5,2.5-2.5s2.5,1.12,2.5,2.5v20.66c0,1.38-1.12,2.5-2.5,2.5Z"/>
        <circle class="cls-6" cx="81.5" cy="183.6" r="22.81"/>
        <circle class="cls-6" cx="146.75" cy="183.6" r="22.81"/>
        <circle class="cls-8" cx="81.73" cy="177" r="22.81"/>
        <rect class="cls-27" x="74.75" y="162.98" width="11.31" height="28.26" rx="5.65" ry="5.65"/>
        <circle class="cls-8" cx="85.63" cy="172.16" r="5.31"/>
        <circle class="cls-8" cx="146.8" cy="177" r="22.81"/>
        <rect class="cls-27" x="141.38" y="162.98" width="11.31" height="28.26" rx="5.65" ry="5.65"/>
        <circle class="cls-8" cx="152.26" cy="172.16" r="5.31"/>
        <path class="cls-15" d="M169.61,177.49c.26,12.59-9.73,23.02-22.33,23.28-12.59,.26-23.02-9.73-23.28-22.33,0-.32,0-.64,0-.96,0-.69,.03-1.38,.1-2.07,1.15,12.54,12.24,21.77,24.78,20.63,10.95-1,19.62-9.68,20.63-20.63,.07,.69,.1,1.38,.1,2.07Z"/>
        <path class="cls-15" d="M104.55,179.49c0,12.6-10.21,20.81-22.81,20.81s-22.8-10.21-22.8-22.8c0,0,0,0,0,0,0,.64,.03,1.29,.1,1.93,1.05,11.62,10.81,16.72,22.7,16.72s21.66-5.1,22.71-16.72c.1,.68,.1-.63,.1,.07Z"/>
        <path class="cls-27" d="M126.55,179.91c.51,7.65,5.27,14.36,12.32,17.37,2.3,.97,4.76,1.5,7.26,1.57,5.03,.17,9.95-1.54,13.79-4.8,3.87-3.24,6.37-7.82,7-12.82,.18-.57,.48-1.1,.87-1.56,.43-.6,1.09-1,1.83-1.09,.75,.09,1.4,.57,1.7,1.27,.39,.59,.59,1.29,.56,2-1.23,8.31-6.56,15.45-14.18,19-7.45,3.46-16.14,2.96-23.15-1.33-1.98-1.25-3.75-2.79-5.27-4.57-1.52-1.74-2.77-3.7-3.71-5.81-.93-1.71-1.6-3.54-2-5.44-.51-2.6-.25-5.15,.41-5.12,1.39,.01,2.57,.61,2.57,1.33Z"/>
        <path class="cls-27" d="M60.87,179.54c.74,11.19,10.41,19.65,21.6,18.91,4.33-.29,8.46-1.96,11.77-4.76,3.86-3.24,6.36-7.83,7-12.83,.18-.57,.48-1.1,.87-1.56,.43-.6,1.09-1,1.83-1.09,.75,.1,1.39,.58,1.7,1.27,.39,.59,.58,1.29,.56,2-1.25,8.3-6.57,15.41-14.18,18.95-7.45,3.47-16.13,2.98-23.14-1.31-1.99-1.23-3.79-2.76-5.33-4.53-1.52-1.74-2.78-3.7-3.71-5.82-.93-1.71-1.6-3.54-2-5.44-.51-2.6-.25-5.14,.41-5.12,1.43,.02,2.59,.61,2.62,1.33Z"/>
        <rect class="cls-27" x="215.56" y="115.74" width="6" height="2.5"/>
        <path class="cls-27" d="M221.55,170.32h-6v-4.65h6v4.65Zm0-7.44h-6v-4.65h6v4.65Zm0-7.44h-6v-4.65h6v4.65Zm0-7.44h-6v-4.65h6v4.65Zm0-7.44h-6v-4.65h6v4.65Zm0-7.44h-6v-4.65h6v4.65Zm0-7.44h-6v-4.67h6v4.67Z"/>
        <rect class="cls-27" x="215.56" y="173.11" width="6" height="2.5"/>
        <path class="cls-30" d="M75.5,220.89h76.57c2.32,0,4.2,1.88,4.2,4.2v25.6c0,20.78-16.84,37.62-37.62,37.62h0c-26.15,0-47.35-21.2-47.35-47.35h0v-15.87c0-2.32,1.88-4.2,4.2-4.2Z"/>
        <ellipse class="cls-14" cx="114.45" cy="257.96" rx="23.69" ry="15.75"/>
        <circle class="cls-14" cx="110.83" cy="273.26" r="5.67"/>
        <circle class="cls-14" cx="119.88" cy="279.79" r="2.53"/>
        <path class="cls-14" d="M98,281.01c-.16,0-.33-.04-.47-.12-11.45-6.09-17.25-13.02-19.98-23.88-.14-.54,.18-1.08,.72-1.22s1.08,.18,1.22,.72h0c2.64,10.39,8,16.74,19,22.64,.49,.25,.69,.85,.43,1.35-.17,.34-.52,.55-.9,.54l-.02-.03Z"/>
        <path class="cls-8" d="M146.15,220.89v13.27c0,1.87-2,3.39-4.51,3.39h-56.81c-2.49,0-4.5-1.52-4.5-3.39v-9.87c0-1.88,2-3.4,4.5-3.4h61.32Z"/>
        <rect class="cls-26" x="80.17" y="221.83" width="67.26" height="5.48"/>
        <path class="cls-27" d="M142.94,239.55h-58c-3.7,0-6.6-2.37-6.6-5.39v-13.27h4v13.27c0,.57,1,1.39,2.6,1.39h58c1.56,0,2.6-.84,2.6-1.39v-13.27h4v13.27c0,3.02-2.9,5.39-6.6,5.39Z"/>
        <path class="cls-31" d="M36.12,106.82c-4.5,5.16-7.8,11.26-9.64,17.85-.42,.48-1.08,.67-1.7,.5-.8-.2-1.27-1-1.19-1.31,1.5-4.6,3.67-8.95,6.46-12.91,.86-1.13,1.75-2.22,2.7-3.26,.12-.23,1.92-2.77,2.55-2.21s.99,1.16,.82,1.34Z"/>
        <path class="cls-31" d="M30.88,105.39c-2.07,1.77-3.67,4.02-4.66,6.55-.52,.1-1.06,.05-1.54-.17-.78-.28-1.3-.8-1.26-.92,.96-1.89,2.22-3.61,3.74-5.09,.48-.39,1-.77,1.48-1.11,.06-.08,.88-1.18,1.41-.53s.9,1.21,.83,1.27Z"/>
        <rect class="cls-34" x="78.32" y="325.61" width="72.31" height="119.25" transform="translate(-2.15 .65) rotate(-.32)"/>
        <circle class="cls-29" cx="129.68" cy="357.41" r="7.58"/>
        <circle class="cls-29" cx="119.96" cy="346.08" r="3.38"/>
        <rect class="cls-5" x="89.06" y="450.34" width="55.88" height="7.98" transform="translate(-4.54 1.19) rotate(-.57)"/>
        <rect class="cls-5" x="87.05" y="450.11" width="55.88" height="7.98"/>
        <rect class="cls-5" x="86.22" y="451.39" width="55.88" height="6.57"/>
        <rect class="cls-21" x="86.22" y="446.74" width="55.88" height="4.64"/>
        <rect class="cls-27" x="86.53" y="444.24" width="56.61" height="4"/>
        <rect class="cls-27" x="86.22" y="456.97" width="57.24" height="4"/>
        <rect class="cls-27" x="104.22" y="447.56" width="4" height="12.84"/>
        <rect class="cls-27" x="119.67" y="446.56" width="4" height="13.84"/>
        <circle class="cls-27" cx="115.64" cy="453.1" r="1.33"/>
        <path class="cls-8" d="M79.08,438.23h-25.22v-84.56c0-10.41,8.45-18.85,18.86-18.85h6.36v103.41Z"/>
        <path class="cls-12" d="M73.42,438.41v21.06h-.49c-11,0-19.92-9.43-19.92-21.06h20.41Z"/>
        <path class="cls-8" d="M87.55,462.94h-10.91c-1.61,0-2.92-1.31-2.92-2.92,0,0,0,0,0-.01v-121.74c0-9.34,7.57-16.91,16.91-16.91h0l2.92,135.49c.05,3.31-2.6,6.04-5.91,6.09-.03,0-.06,0-.09,0Z"/>
        <path class="cls-29" d="M146.55,435.01h0c-7.31,0-13.23-13.31-13.23-29.74l-1.07-75.72,14.3-5.36v110.82Z"/>
        <path class="cls-27" d="M87.23,465.35h-10.9c-2.71,0-4.91-2.2-4.92-4.91v-121.76c.02-10.44,8.47-18.89,18.91-18.91h2l2.91,137.45c.07,4.42-3.45,8.06-7.87,8.13-.04,0-.09,0-.13,0h0Zm1.14-141.45c-7.43,.97-12.99,7.29-13,14.78v121.76c0,.5,.42,.91,.92,.91h10.9c2.21,0,4-1.79,4-4l-2.82-133.45Z"/>
        <path class="cls-27" d="M73.41,462.23h-.48c-12.09,0-21.92-10.34-21.92-23.06v-22.09h.06c-.2-1.9-.19-6.81-.15-21.12,0-10.49,.09-20.95,.09-20.95v-19.13c0-12.72,9.83-23.06,21.92-23.06h.48v4h-.48c-9.88,0-17.92,8.55-17.92,19.06v19.13c-.08,14.89-.16,37-.05,41.18l.05,.05v22.92c0,10.51,8,19.06,17.92,19.06h.48v4.01Z"/>
        <rect class="cls-27" x="53.01" y="437.17" width="20.4" height="4"/>
        <path class="cls-34" d="M139.94,321.35c0,6.59-10.83,11.92-24.19,11.92s-24.2-5.33-24.2-11.92c0-3,2.24-5.71,5.94-7.8,4.44,2.51,11,4.09,18.24,4.09s13.81-1.58,18.24-4.09c3.73,2.09,5.97,4.82,5.97,7.8Z"/>
        <path class="cls-29" d="M140.31,320.44c0,6.58-10.83,11.9-24.19,11.9-.88,0-1.74,0-2.59-.07,0-.27,.04-.53,.11-.79,.46-1.59,1.58-2.9,3.07-3.6,1.48-.69,3.04-1.19,4.65-1.48,2.6-.52,5.11-1.42,7.44-2.68,2.34-1.29,4.12-3.4,5-5.92,.47-1.6,.48-3.29,.05-4.9,.17-.09,.34-.17,.5-.27,3.72,2.09,5.96,4.82,5.96,7.81Z"/>
        <path class="cls-27" d="M116.08,334.8c-14.68,0-26.18-6.11-26.18-13.91,0-3.63,2.47-7,7-9.55l1-.55,1,.56c4.31,2.43,10.59,3.83,17.26,3.83s13-1.4,17.25-3.83l1-.56,1,.55c4.5,2.53,7,5.92,7,9.55-.14,7.8-11.65,13.91-26.33,13.91Zm-18.18-19.41c-2.59,1.66-4,3.59-4,5.5,0,5.84,11.69,9.91,22.18,9.91s22.19-4.07,22.19-9.91c0-1.91-1.42-3.84-4-5.51-4.8,2.42-11.34,3.8-18.18,3.8s-13.38-1.38-18.19-3.79Z"/>
        <path class="cls-8" d="M144.95,460.88h10.9c1.61,0,2.91-1.3,2.91-2.91,0,0,0,0,0-.01v-121.75c0-9.34-7.57-16.91-16.91-16.91h0l-2.87,135.49c-.05,3.31,2.6,6.04,5.91,6.09,.02,0,.04,0,.06,0Z"/>
        <path class="cls-8" d="M153.83,331.93h0c13.93,0,25.22,11.29,25.22,25.22h0v78.19h-25.22v-103.41Z"/>
        <rect class="cls-25" x="157.91" y="332.35" width="6.31" height="104.59"/>
        <path class="cls-12" d="M157.55,436.33v21.06h.49c11,0,19.92-9.43,19.92-21.06h-20.41Z"/>
        <path class="cls-6" d="M163.55,437.42v20.52c-1.47,.36-2.97,.54-4.48,.54h-.52v-21.06h5Z"/>
        <path class="cls-25" d="M156.98,442.43v14.23c0,1.61-1.29,2.91-2.9,2.92,0,0,0,0-.01,0h-10.91c-1.86,0-3.61-.87-4.73-2.35,8.62-.69,15.96-6.55,18.55-14.8Z"/>
        <circle class="cls-25" cx="149.98" cy="450.05" r="2.98"/>
        <circle class="cls-25" cx="146.16" cy="445.6" r="1.33"/>
        <rect class="cls-27" x="176.5" y="370.73" width="3" height="3.5"/>
        <path class="cls-27" d="M179.55,394.01h-3v-5.77h3v5.77Zm0-9.88h-3v-5.77h3v5.77Z"/>
        <rect class="cls-27" x="176.5" y="398.1" width="3" height="3.5"/>
        <path class="cls-27" d="M154.99,462.88h-10.9c-4.42,0-8-3.58-8-8,0-.04,0-.09,0-.13l2.91-137.45h2c10.44,.01,18.9,8.47,18.91,18.91v121.8c-.03,2.7-2.22,4.86-4.92,4.87Zm-12-141.45l-2.82,133.4c-.03,2.21,1.74,4.02,3.95,4.05,.02,0,.03,0,.05,0h10.9c.51,0,.92-.41,.92-.92h0v-121.75c-.02-7.5-5.6-13.83-13.04-14.78h.04Z"/>
        <path class="cls-27" d="M158.39,459.76h-.48v-4h.48c9.88,0,17.92-8.55,17.92-19.06v-33.09h4v33.09c0,12.72-9.84,23.06-21.92,23.06Z"/>
        <path class="cls-27" d="M180.31,368.28h-4v-14.87c0-10.51-8-19.06-17.92-19.06h-.48v-4h.48c12.08,0,21.92,10.34,21.92,23.06v14.87Z"/>
        <rect class="cls-27" x="157.91" y="434.7" width="20.4" height="4"/>
        <path class="cls-38" d="M53.4,415.69c-.26,0-.51-.1-.7-.28-.39-.39-.39-1.02,0-1.41,0,0,0,0,0,0l12.28-12.59c.39-.39,1.02-.4,1.41-.02,.39,.39,.4,1.02,.02,1.42l-12.3,12.59c-.19,.19-.44,.3-.71,.3Z"/>
        <path class="cls-38" d="M58.4,404.12c-.26,0-.51-.1-.7-.28-.39-.39-.39-1.02,0-1.41l7.28-7.6c.38-.4,1.02-.41,1.42-.03,.4,.38,.41,1.02,.03,1.42l-7.28,7.59c-.19,.2-.47,.32-.75,.31Z"/>
        <path class="cls-27" d="M113.79,290.3c-24.56-.02-44.46-19.92-44.49-44.48v-20.47c0-3.57,2.89-6.45,6.46-6.46h76.06c3.56,.01,6.44,2.9,6.45,6.46v20.47c-.03,24.55-19.93,44.45-44.48,44.48Zm-38-67.41c-1.36,0-2.46,1.1-2.46,2.46h0v20.47c0,22.37,18.13,40.5,40.5,40.5s40.5-18.13,40.5-40.5v-20.47c0-1.35-1.1-2.45-2.45-2.46H75.79Z"/>
        <path class="cls-8" d="M50.08,114.18c-1.95,3.47-3.62,7.09-5,10.82-.72,1.87-1.41,3.76-2.09,5.65-.71,1.81-1.24,3.69-1.57,5.61,0,.27-.56,.95-1.11,.92s-.92-.89-.87-1.2c.58-2.7,1.44-5.33,2.56-7.86,1-2.51,2-5,3.12-7.49,.67-1.44,1.4-2.86,2.19-4.25,.1-.28,1.65-3.46,2.14-3.16s.77,.71,.63,.96Z"/>
        <path class="cls-9" d="M37.82,145.15l.63-5.72c.31-.16,.66-.21,1-.14,.36,0,.72,.13,1,.36l-.83,3.78-.34,1.1c0,.07,.08,.91-.47,.85-.34,0-.68-.08-.99-.23Z"/>
        <path class="cls-27" d="M54.07,99.34c-27.43,0-49.67-22.24-49.67-49.67C4.4,22.24,26.63,0,54.07,0c8.89,0,17.62,2.39,25.27,6.91h45.68c45.81,.07,82.93,37.19,83,83,0,1.38-1.12,2.5-2.5,2.5H79.34c-7.65,4.54-16.38,6.93-25.27,6.93Zm0-94.33c-24.67,0-44.67,20-44.67,44.67,0,24.67,20,44.67,44.67,44.67,8.21,0,16.26-2.26,23.27-6.54,.39-.24,.85-.37,1.31-.37h124.36c-1.41-42.08-35.9-75.48-78-75.53h-46.36c-.46,0-.91-.12-1.31-.36-7.01-4.28-15.06-6.55-23.27-6.54Z"/>
        <path class="cls-8" d="M688.76,328.78h2.62c10.96,0,19.85,8.89,19.85,19.85v72.27h-22.47v-92.12Z"/>
        <rect class="cls-25" x="692.39" y="329.15" width="5.62" height="93.17"/>
        <path class="cls-12" d="M692.11,421.78v18.76h.44c9.79,0,17.74-8.4,17.74-18.76h-18.18Z"/>
        <path class="cls-6" d="M697.41,422.75v18.26c-1.31,.32-2.65,.48-4,.48h-.43v-18.74h4.43Z"/>
        <rect class="cls-27" x="708.79" y="363.34" width="3" height="3.5"/>
        <rect class="cls-27" x="708.79" y="372.87" width="3" height="8.44"/>
        <rect class="cls-27" x="708.79" y="387.35" width="3" height="3.5"/>
        <path class="cls-27" d="M692.82,442.88h-.43v-4h.43c8.68,0,15.74-7.52,15.74-16.77v-29.48h4v29.48c-.01,11.45-8.85,20.77-19.74,20.77Z"/>
        <path class="cls-27" d="M712.55,361.16h-4v-13.24c0-9.25-7.06-16.77-15.74-16.77h-.43v-4h.43c10.89,0,19.74,9.32,19.74,20.77v13.24Z"/>
        <rect class="cls-27" x="692.39" y="420.11" width="18.17" height="4"/>
        <path class="cls-8" d="M600.4,418.56h-21v-67.38c0-10.22,8.29-18.51,18.51-18.51h2.44l.05,85.89Z"/>
        <path class="cls-12" d="M595.69,418.71v17.5h-.4c-9.14,0-16.55-7.84-16.55-17.5h16.95Z"/>
        <path class="cls-27" d="M595.69,438.84h-.4c-10.23,0-18.54-8.74-18.54-19.49v-18.34h.07c-.26-2.45-.22-9.83-.07-34.94v-15.9c0-10.75,8.31-19.5,18.54-19.5h.4v4h-.4c-8,0-14.54,6.95-14.54,15.5v15.9c-.07,12.19-.14,30.32-.05,34.05l.05,.05v19.18c0,8.54,6.52,15.49,14.54,15.49h.4v4Z"/>
        <rect class="cls-27" x="578.75" y="417.35" width="16.95" height="4"/>
        <rect class="cls-34" x="602.33" y="320.26" width="81.84" height="123.65" transform="translate(-2.12 3.6) rotate(-.32)"/>
        <circle class="cls-29" cx="647.15" cy="392.19" r="8.58"/>
        <circle class="cls-29" cx="636.15" cy="379.37" r="3.82"/>
        <ellipse class="cls-29" cx="639.98" cy="406.88" rx="3.36" ry="4.35"/>
        <rect class="cls-5" x="612.21" y="450.68" width="63.25" height="9.04" transform="translate(-2.53 3.6) rotate(-.32)"/>
        <rect class="cls-5" x="612.23" y="449.89" width="63.25" height="9.04"/>
        <rect class="cls-5" x="611.29" y="451.34" width="63.25" height="7.44"/>
        <rect class="cls-21" x="611.29" y="446.08" width="63.25" height="5.25"/>
        <rect class="cls-27" x="611.64" y="443.51" width="64.07" height="4"/>
        <rect class="cls-27" x="611.29" y="457.92" width="64.78" height="4"/>
        <rect class="cls-27" x="631.92" y="447.01" width="4" height="14.53"/>
        <rect class="cls-27" x="649.42" y="445.88" width="4" height="15.66"/>
        <circle class="cls-27" cx="644.59" cy="453.28" r="1.51"/>
        <path class="cls-8" d="M612.78,464.41h-12.33c-1.82,0-3.29-1.46-3.3-3.28v-126.5c0-10.57,8.55-19.13,19.12-19.14h3.28v142c.09,3.73-2.85,6.82-6.58,6.92-.06,0-.13,0-.19,0Z"/>
        <path class="cls-29" d="M679.55,444.09h0c-18.59,0-33.66-15.06-33.67-33.65h0s-3.14-82.5-3.14-82.5l36.14-8.26,.67,124.41Z"/>
        <path class="cls-12" d="M626.18,233.12h38.24v71.72c0,9.32-7.55,16.88-16.87,16.89h-4.45c-9.33,0-16.89-7.56-16.89-16.89h0v-71.72h-.03Z"/>
        <path class="cls-6" d="M666.34,279.63v11.47c-6.96,1.47-14.06,2.21-21.18,2.21-5.72,0-11.43-.47-17.07-1.44v-11.47c12.68,2.15,25.66,1.89,38.25-.77h0Z"/>
        <path class="cls-27" d="M647.55,324.28h-4.45c-10.71-.01-19.38-8.68-19.4-19.39v-74.22h43.24v74.22c-.01,10.7-8.69,19.38-19.39,19.39Zm-18.85-88.61v69.22c.01,7.95,6.45,14.38,14.4,14.39h4.45c7.94-.01,14.38-6.45,14.39-14.39v-69.22h-33.24Z"/>
        <path class="cls-27" d="M612.43,466.88h-12.34c-2.92,0-5.29-2.38-5.3-5.3v-126.48c.04-11.65,9.49-21.07,21.14-21.09h5.25v3.21c0,12.73,0,23,.09,32.37,.08,17.6,.14,31.5-.09,51.71v56.71c.07,4.84-3.79,8.82-8.63,8.89-.04,0-.08,0-.12,0v-.02Zm3.5-148.87c-9.46,.01-17.13,7.68-17.14,17.14v126.43c0,.72,.58,1.3,1.3,1.3h12.34c1.28,0,2.51-.51,3.4-1.43,.9-.91,1.38-2.14,1.35-3.42v-56.8c.23-20.2,.17-34.09,.09-51.67,0-9.15-.08-19.23-.09-31.6l-1.25,.05Z"/>
        <path class="cls-34" d="M672.09,315.49c0,7.45-12.26,13.48-27.38,13.48s-27.36-6-27.36-13.48c0-3.38,2.53-6.47,6.72-8.83,5,2.84,12.41,4.63,20.64,4.63s15.64-1.79,20.64-4.63c4.2,2.35,6.74,5.45,6.74,8.83Z"/>
        <path class="cls-29" d="M672.55,314.45c0,7.45-12.26,13.48-27.38,13.48-1,0-2,0-2.93-.09,0-.3,.05-.61,.12-.9,.53-1.79,1.8-3.27,3.48-4.07,1.68-.77,3.44-1.34,5.26-1.68,2.94-.57,5.78-1.58,8.42-3,2.65-1.46,4.67-3.84,5.67-6.7,.53-1.81,.55-3.73,.06-5.55,.19-.1,.38-.2,.56-.31,4.16,2.38,6.74,5.43,6.74,8.82Z"/>
        <path class="cls-27" d="M645.08,330.44c-16.46,0-29.36-6.8-29.36-15.48,0-4,2.75-7.76,7.74-10.57l1-.56,1,.56c4.91,2.77,12.08,4.37,19.66,4.37s14.77-1.59,19.66-4.37l1-.56,1,.56c5,2.8,7.76,6.56,7.76,10.57-.08,8.68-12.99,15.48-29.46,15.48Zm-20.59-22c-3.09,1.95-4.77,4.25-4.77,6.53,0,5.54,10.19,11.48,25.36,11.48s25.38-5.94,25.38-11.48c0-2.28-1.69-4.58-4.79-6.53-5.4,2.76-12.83,4.33-20.59,4.33s-15.17-1.58-20.59-4.34h0Z"/>
        <path class="cls-8" d="M677.76,462.08h12.33c1.82,0,3.29-1.46,3.3-3.28v-126.5c0-10.57-8.55-19.13-19.12-19.14h-.01l-.9,62.25-2.35,79.78c-.08,3.73,2.88,6.81,6.61,6.89,.05,0,.09,0,.14,0Z"/>
        <path class="cls-25" d="M691.37,441.2v16.1c0,1.82-1.47,3.3-3.29,3.31h-12.35c-2.1,0-4.09-.98-5.35-2.66,9.76-.78,18.06-7.41,20.99-16.75Z"/>
        <circle class="cls-25" cx="683.45" cy="449.83" r="3.37"/>
        <circle class="cls-25" cx="679.13" cy="444.79" r="1.5"/>
        <path class="cls-27" d="M689.12,464.08h-12.34c-4.83,0-8.74-3.91-8.74-8.74,0-.06,0-.13,0-.19h0l2.75-113.57,.53-30.41h2c11.67,.02,21.12,9.47,21.13,21.14v126.47c0,2.93-2.37,5.3-5.3,5.3-.01,0-.02,0-.03,0Zm-17.08-8.85c-.07,2.61,2,4.78,4.61,4.85,.04,0,.09,0,.13,0h12.34c.72,0,1.3-.58,1.3-1.3v-126.48c-.02-8.69-6.54-16-15.17-17l-.46,26.37-2.75,113.56Z"/>
        <circle class="cls-1" cx="572.2" cy="208.03" r="64.47"/>
        <path class="cls-8" d="M578.81,271.01c-1.52,.11-3.06,.17-4.63,.17-35.62,0-64.5-28.88-64.5-64.5s28.88-64.5,64.5-64.5c1.57,0,3.11,.06,4.63,.17-35.51,2.55-62.24,33.4-59.7,68.91,2.29,31.97,27.72,57.4,59.7,59.7v.05Z"/>
        <path class="cls-27" d="M573.55,273.49c-37,0-67-30-67-67s30-67,67-67,67,30,67,67h0c0,37-30,67-67,67Zm0-128.94c-34.24,0-62,27.76-62,62s27.76,62,62,62,62-27.76,62-62-27.76-62-62-62h0Z"/>
        <circle class="cls-22" cx="717.01" cy="208.03" r="64.47"/>
        <path class="cls-27" d="M718.33,273.49c-37,0-67-30-67-67s30-67,67-67,67,30,67,67h0c0,37-30,67-67,67Zm0-128.94c-34.24,0-62,27.76-62,62s27.76,62,62,62,62-27.76,62-62-27.76-62-62-62h0Z"/>
        <rect class="cls-12" x="559.01" y="57.17" width="173.57" height="225.7" rx="80.39" ry="80.39"/>
        <path class="cls-8" d="M651.42,282.64c-2.07,.14-4.17,.22-6.28,.22-47.93,0-86.78-38.85-86.79-86.78v-52.07c0-47.93,38.86-86.79,86.79-86.79,2.11,0,4.21,.08,6.28,.23-45.38,3.29-80.51,41.06-80.51,86.56v52.12c.03,45.47,35.16,83.21,80.51,86.51Z"/>
        <path class="cls-6" d="M732.55,143.3v52.11c0,47.93-38.86,86.79-86.79,86.79h-.17V56.51h.17c47.93,0,86.79,38.86,86.79,86.79Z"/>
        <path class="cls-27" d="M645.33,225.41c-1.38,0-2.49-1.1-2.5-2.48v-23.41c0-1.38,1.12-2.5,2.5-2.5s2.5,1.12,2.5,2.5v23.39c0,1.38-1.12,2.5-2.5,2.5Z"/>
        <circle class="cls-8" cx="572.93" cy="177.1" r="10.2"/>
        <circle class="cls-8" cx="588.09" cy="164.94" r="4.67"/>
        <path class="cls-27" d="M633.07,191.74c-1.1,0-2-.9-2-2,0-8.1-6.56-14.66-14.66-14.66s-14.66,6.56-14.66,14.66h0c0,1.1-.9,2-2,2s-2-.9-2-2c0-10.31,8.35-18.66,18.66-18.66s18.66,8.35,18.66,18.66c0,1.1-.9,2-2,2Z"/>
        <path class="cls-27" d="M690.82,191.74c-1.1,0-2-.9-2-2-.21-8.1-6.95-14.49-15.05-14.28-7.8,.2-14.08,6.48-14.28,14.28,0,1.1-.9,2-2,2s-2-.9-2-2c.24-10.31,8.79-18.47,19.1-18.23,9.97,.23,18,8.26,18.23,18.23,0,1.1-.9,2-2,2Z"/>
        <path class="cls-27" d="M650.3,285.36h-11.65c-46.07-.05-83.4-37.38-83.46-83.45v-63.78c.05-46.07,37.39-83.41,83.46-83.46h11.65c46.07,.05,83.41,37.39,83.46,83.46v63.78c-.06,46.07-37.39,83.4-83.46,83.45Zm-11.65-225.69c-43.31,.04-78.42,35.15-78.46,78.46v63.78c.05,43.31,35.15,78.41,78.46,78.45h11.65c43.31-.04,78.41-35.14,78.46-78.45v-63.78c-.05-43.31-35.15-78.41-78.46-78.46h-11.65Z"/>
        <path class="cls-1" d="M739.55,147.12c0-55.69-43.37-102.18-96.87-102.18s-96.87,46.49-96.87,102.18h40.33l13.87-34.11,7.27,34.08h13.89v-20.82l12.56,20.85h19.18l10.57-38.05,9.07,38.05h67Z"/>
        <path class="cls-22" d="M741.55,147.78h-67l-9.06-38.05-10.58,38.05h-19.2l-3.93-6.51c29.72-24.13,31.38-66.11,28.4-94.34,46.11,7.95,81.37,50.66,81.37,100.85Z"/>
        <path class="cls-13" d="M651.55,43.74c-51.19,2.79-91.89,48.12-91.89,102.06h-9.91c0-55.69,43.37-102.19,96.87-102.19,1.66,0,3.31,.04,4.93,.13Z"/>
        <path class="cls-27" d="M743.35,150.95h-71.46l-7.27-30.54-8.49,30.54h-22.49l-8.65-14.37v14.37h-18.44l-6-28.12-11.46,28.12h-44.48v-2.5c-.11-27.38,10.29-53.76,29.05-73.7,18.85-20,43.83-31,70.32-31s51.46,11,70.32,31c18.74,19.95,29.12,46.33,29,73.7l.05,2.5Zm-67.51-5h62.48c-.5-25.24-10.36-49.39-27.66-67.77-17.9-19-41.58-29.42-66.68-29.42s-48.78,10.45-66.68,29.42c-17.3,18.38-27.16,42.53-27.66,67.77h36.12l16.32-40,8.55,40.05h9.36v-27.41l16.48,27.36h15.86l12.67-45.56,10.84,45.56Z"/>
        <circle class="cls-22" cx="656.11" cy="87.11" r="10.2"/>
        <circle class="cls-22" cx="643.13" cy="71.79" r="4.55"/>
        <path class="cls-27" d="M645.55,257.46c-12.76-.02-23.09-10.35-23.11-23.11,0-1.1,.9-2,2-2s2,.9,2,2c.24,10.56,9,18.92,19.55,18.68,10.22-.23,18.44-8.46,18.68-18.68,0-1.1,.9-2,2-2s2,.9,2,2c-.02,12.76-10.36,23.1-23.12,23.11Z"/>
        <ellipse class="cls-13" cx="568.36" cy="132.1" rx="1.57" ry="2.24" transform="translate(-8.94 216.99) rotate(-21.45)"/>
        <ellipse class="cls-13" cx="578.99" cy="125.33" rx="1.27" ry="1.9" transform="translate(-5.73 220.41) rotate(-21.45)"/>
        <ellipse class="cls-13" cx="573.62" cy="117.06" rx="5.95" ry="4.4" transform="translate(286.18 627.08) rotate(-72.13)"/>
        <ellipse class="cls-8" cx="526.43" cy="197.06" rx="1.57" ry="2.24" transform="translate(-35.6 206.16) rotate(-21.45)"/>
        <ellipse class="cls-8" cx="537.06" cy="190.28" rx="1.27" ry="1.9" transform="translate(-32.39 209.58) rotate(-21.45)"/>
        <ellipse class="cls-8" cx="531.69" cy="182.01" rx="5.95" ry="4.4" transform="translate(195.31 632.19) rotate(-72.13)"/>
        <path class="cls-8" d="M595.55,73.49c-3.62,3.58-7.03,7.36-10.21,11.33-3.16,3.9-5.65,8.29-7.37,13-.12,.35-.85,1.13-1.38,1s-.64-1.25-.52-1.62c2.43-6.66,6.71-12.32,11.34-17.39,1.4-1.47,2.83-2.91,4.28-4.32,.25-.28,3.23-3.59,3.62-3.2s.47,.93,.24,1.2Z"/>
        <path class="cls-8" d="M603.81,67.01l-5.21,3.82c-.07,0-.5-.19-.83-.63-.24-.28-.37-.63-.36-1l3.73-2.19,1.16-.58c.06-.05,.71-.74,1-.3s.57,.88,.51,.88Z"/>
      </g>
    </g>
  </g>
</svg>