<svg width="512" height="512" viewBox="0 0 512 512" fill="none" xmlns="http://www.w3.org/2000/svg">
<g clip-path="url(#clip0_101_2593)">
<path d="M156.046 382.801H260.999V457.406H156.046V382.801Z" fill="#F1F1F1"/>
<path d="M439.292 174.16H491.136V289.228H439.292V174.16Z" fill="#F1F1F1"/>
<path d="M144.666 129.902C144.666 127.807 146.364 126.109 148.459 126.109H458.259C460.354 126.109 462.053 127.807 462.053 129.902V392.917C462.053 395.012 460.354 396.71 458.259 396.71H148.459C146.364 396.71 144.666 395.012 144.666 392.917V129.902Z" fill="#53B3CC"/>
<path fill-rule="evenodd" clip-rule="evenodd" d="M143.401 129.902C143.401 127.109 145.666 124.844 148.459 124.844H458.26C461.053 124.844 463.318 127.109 463.318 129.902V392.917C463.318 395.71 461.053 397.974 458.26 397.974H148.459C145.666 397.974 143.401 395.71 143.401 392.917V129.902ZM148.459 127.373C147.063 127.373 145.93 128.506 145.93 129.902V392.917C145.93 394.313 147.063 395.445 148.459 395.445H458.26C459.656 395.445 460.789 394.313 460.789 392.917V129.902C460.789 128.506 459.656 127.373 458.26 127.373H148.459Z" fill="#3E3D3D"/>
<path d="M144.666 162.779H462.053V392.916C462.053 395.012 460.354 396.71 458.259 396.71H148.459C146.364 396.71 144.666 395.012 144.666 392.916V162.779Z" fill="white"/>
<path fill-rule="evenodd" clip-rule="evenodd" d="M143.401 161.515H463.318V392.917C463.318 395.71 461.053 397.975 458.26 397.975H148.459C145.666 397.975 143.401 395.71 143.401 392.917V161.515ZM145.93 164.044V392.917C145.93 394.314 147.063 395.446 148.459 395.446H458.26C459.656 395.446 460.789 394.314 460.789 392.917V164.044H145.93Z" fill="#3E3D3D"/>
<path d="M346.984 422.632C377.332 425.667 397.985 446.657 404.519 456.773H398.828C390.82 456.773 373.159 453.991 366.584 442.864C360.009 431.736 350.778 424.74 346.984 422.632Z" fill="#E9B11D"/>
<path d="M219.271 280.377H253.412V354.982H219.271V280.377Z" fill="#E5E5E5"/>
<path d="M273.644 263.939H307.785V354.982H273.644V263.939Z" fill="#E5E5E5"/>
<path d="M329.281 243.707H363.422V354.982H329.281V243.707Z" fill="#F15846"/>
<path d="M383.654 226.004H417.796V354.982H383.654V226.004Z" fill="#F15846"/>
<path d="M398.196 384.697C415.898 409.987 409.787 441.599 404.518 454.244C404.518 455.087 403.001 451.209 396.931 428.954C390.862 406.699 395.245 390.177 398.196 384.697Z" fill="#E9B11D"/>
<path d="M434.866 363.834C407.553 396.71 402.833 439.071 403.886 456.141C429.176 442.864 467.111 402.4 482.285 363.834C494.424 332.98 507.153 318.523 512 315.151C497.669 317.68 462.179 330.957 434.866 363.834Z" fill="#FAC22F"/>
<path d="M443.086 414.413C424.877 425.035 409.787 447.5 404.519 457.405C421.589 455.509 448.776 446.025 460.788 430.851C470.399 418.712 484.181 409.355 489.872 406.194C481.863 404.508 461.294 403.791 443.086 414.413Z" fill="#FAC22F"/>
<path d="M386.815 403.032C400.978 420.23 404.94 445.604 405.15 456.141C383.654 452.98 370.377 432.748 361.526 412.516C354.444 396.331 343.823 385.119 339.397 381.536C349.302 381.536 372.653 385.835 386.815 403.032Z" fill="#FAC22F"/>
<path d="M271.626 282.505C271.004 284.609 267.294 286.741 265.516 287.544C265.175 294.639 266.391 307.318 273.983 301.284C283.473 293.741 287.771 299.281 295.374 290.314C301.456 283.14 294.929 276.96 290.906 274.767L302.681 264.38C303.697 263.484 303.792 261.933 302.892 260.92C302.061 259.984 300.658 259.826 299.64 260.554L286.576 269.892C284.529 271.794 280.726 274.055 279.88 273.57C277.278 273.445 281.17 260.299 275.71 265.37C272.897 267.983 272.405 279.876 271.626 282.505Z" fill="#EFCB96"/>
<path fill-rule="evenodd" clip-rule="evenodd" d="M116.682 149.537C118.466 146.577 122.311 145.625 125.27 147.409L142.831 157.995C145.79 159.779 146.743 163.624 144.959 166.584C143.497 169.008 143.872 172.091 145.673 174.274C150.722 180.394 154.517 187.35 156.957 194.731C157.847 197.423 160.262 199.382 163.096 199.436C166.557 199.501 169.31 202.361 169.245 205.822L168.857 226.306C168.792 229.764 165.936 232.513 162.479 232.448C159.65 232.394 157.167 234.257 156.174 236.907C154.821 240.516 153.12 244.053 151.058 247.474C148.996 250.894 146.663 254.05 144.103 256.931C142.223 259.046 141.734 262.112 143.103 264.589C144.775 267.616 143.677 271.426 140.649 273.098L122.717 283.004C119.686 284.678 115.872 283.578 114.198 280.548C112.827 278.066 109.966 276.846 107.171 277.315C99.5037 278.603 91.5815 278.494 83.8127 276.887C81.0403 276.314 78.1383 277.422 76.6766 279.847C74.8923 282.807 71.0463 283.76 68.0865 281.975L50.5284 271.39C47.5685 269.606 46.6155 265.76 48.3999 262.8C49.8616 260.376 49.4871 257.292 47.6855 255.108C42.6373 248.988 38.8423 242.033 36.4018 234.652C35.5119 231.961 33.0969 230.001 30.2628 229.947C26.8009 229.882 24.0476 227.022 24.1131 223.56L24.5006 203.077C24.566 199.62 27.422 196.87 30.8796 196.935C33.709 196.989 36.1922 195.125 37.1852 192.475C38.5376 188.866 40.2392 185.329 42.3011 181.909C44.363 178.489 46.6962 175.333 49.2566 172.452C51.1364 170.336 51.6247 167.271 50.2563 164.794C48.5842 161.767 49.6826 157.957 52.7096 156.285L70.6422 146.379C73.673 144.705 77.4872 145.805 79.1614 148.835C80.532 151.317 83.3928 152.537 86.1883 152.067C93.8556 150.779 101.778 150.888 109.547 152.496C112.319 153.069 115.221 151.961 116.682 149.537ZM127.433 233.231C117.194 250.215 95.1254 255.683 78.1414 245.444C61.1575 235.205 55.6894 213.136 65.9283 196.152C76.1671 179.169 98.2355 173.701 115.219 183.939C132.203 194.178 137.671 216.247 127.433 233.231Z" fill="#F1F1F1"/>
<path fill-rule="evenodd" clip-rule="evenodd" d="M195.877 226.636H198.406V373.317H417.163V375.846H195.877V226.636Z" fill="#3E3D3D"/>
<path d="M114.318 211.462C114.824 219.049 119.587 224.739 121.905 226.636C124.013 226.636 129.366 226.004 133.918 223.475C138.47 220.946 142.558 216.099 144.034 213.991C142.98 210.619 146.689 201.726 169.956 193.127C199.039 182.379 189.555 160.25 183.233 159.618C176.91 158.986 176.278 153.296 165.53 151.399C156.931 149.881 152.253 153.295 150.988 155.192C149.302 152.874 143.781 148.87 135.182 151.399C126.584 153.928 125.277 160.039 125.699 162.779C123.38 162.147 117.606 162.021 113.054 166.573C107.363 172.263 110.525 179.218 113.054 186.805C115.583 194.392 113.686 201.978 114.318 211.462Z" fill="#3E3D3D"/>
<path d="M125.698 213.359C124.687 223.475 119.797 232.326 117.479 235.488L113.686 242.442L120.008 250.661L159.207 261.409C161.947 254.665 165.783 240.798 159.207 239.281C152.632 237.763 152.674 231.905 153.517 229.165C154.992 229.586 159.46 228.28 165.53 219.681C171.599 211.083 170.588 193.338 169.323 185.54C163.759 187.057 152.253 184.908 147.195 183.643C144.033 188.069 140.872 191.23 140.24 195.656C139.608 200.082 137.079 207.669 135.182 210.197C133.285 212.726 134.55 205.14 132.021 199.45C129.492 193.759 124.434 194.392 121.905 201.979C119.882 208.048 123.591 212.095 125.698 213.359Z" fill="#EFCB96"/>
<path d="M183.232 456.773L180.071 425.793L89.0278 417.574L85.2344 456.773H183.232Z" fill="#3E3D3D"/>
<path d="M95.9828 457.405L90.2926 442.231L71.3252 446.025V457.405H95.9828Z" fill="#EFCB96"/>
<path d="M41.6096 365.098C43.127 391.905 58.891 432.748 66.8994 452.347L95.3505 446.657L92.8215 434.012C93.8752 433.38 98.7646 428.322 112.421 428.322C129.492 428.322 170.588 435.909 180.071 434.012C189.555 432.116 191.452 425.793 187.026 416.942C183.485 409.861 185.551 356.246 187.026 330.324C192.716 339.386 205.867 357.511 212.948 357.511C221.8 357.511 280.598 308.828 280.598 304.402C280.598 300.861 273.011 288.596 269.218 282.906C252.78 292.389 219.271 310.472 216.742 306.931C213.58 302.505 191.452 253.19 187.026 247.5C183.485 242.948 167.426 238.438 159.839 236.752C160.472 238.859 156.046 245.603 146.562 247.5C134.163 249.98 118.744 240.545 116.215 233.591L116.063 233.644C102.711 238.306 73.0743 248.655 67.5317 253.19C60.577 258.88 39.7129 331.589 41.6096 365.098Z" fill="#53B3CC"/>
<path fill-rule="evenodd" clip-rule="evenodd" d="M185.763 330.904C186.264 318.865 184.714 300.315 183.872 292.525L186.386 292.254C187.23 300.06 188.799 318.769 188.289 331.009L185.763 330.904ZM78.308 361.672C79.8311 354.563 87.3834 324.102 90.9626 309.786L93.416 310.399C89.8297 324.744 82.2924 355.147 80.7808 362.202C80.6319 362.896 80.6026 364.199 80.7333 366.116C80.8613 367.992 81.1322 370.337 81.5193 373.043C82.293 378.453 83.5209 385.24 84.9575 392.481C87.83 406.959 91.5246 423.19 94.0511 433.717L91.592 434.308C89.0605 423.76 85.3578 407.494 82.4769 392.973C81.0368 385.714 79.7989 378.877 79.0158 373.401C78.6244 370.665 78.3441 368.252 78.2102 366.288C78.0791 364.366 78.0775 362.747 78.308 361.672Z" fill="#46A4BC"/>
<path fill-rule="evenodd" clip-rule="evenodd" d="M264.792 190.598H197.774V185.54H264.792V190.598ZM234.445 206.405H197.774V201.347H234.445V206.405Z" fill="#53B3CC"/>
<path fill-rule="evenodd" clip-rule="evenodd" d="M401.724 190.02C402.392 190.223 402.77 190.929 402.567 191.597L399.267 202.488C399.064 203.157 398.358 203.534 397.69 203.332C397.022 203.129 396.644 202.423 396.847 201.755L399.262 193.785L347.301 221.578H286.526L223.523 246.149L222.604 243.793L286.051 219.049H346.667L398.069 191.555L390.099 189.14C389.431 188.938 389.053 188.232 389.256 187.563C389.458 186.895 390.164 186.517 390.832 186.72L401.724 190.02Z" fill="#53B3CC"/>
<path d="M371.009 145.077C371.009 149.267 367.613 152.664 363.422 152.664C359.232 152.664 355.835 149.267 355.835 145.077C355.835 140.886 359.232 137.49 363.422 137.49C367.613 137.49 371.009 140.886 371.009 145.077Z" fill="white"/>
<path d="M405.151 145.077C405.151 149.267 401.754 152.664 397.564 152.664C393.374 152.664 389.977 149.267 389.977 145.077C389.977 140.886 393.374 137.49 397.564 137.49C401.754 137.49 405.151 140.886 405.151 145.077Z" fill="white"/>
<path d="M439.292 145.077C439.292 149.267 435.895 152.664 431.705 152.664C427.515 152.664 424.118 149.267 424.118 145.077C424.118 140.886 427.515 137.49 431.705 137.49C435.895 137.49 439.292 140.886 439.292 145.077Z" fill="white"/>
<path fill-rule="evenodd" clip-rule="evenodd" d="M435.857 395.067C423.054 416.507 413.344 437.551 407.66 452.053C413.332 446.83 421.295 440.057 430.259 433.453C441.602 425.097 454.625 416.952 466.681 412.592L467.541 414.97C455.824 419.208 443.03 427.186 431.759 435.489C420.502 443.783 410.842 452.342 405.404 457.677L404.038 459.016L403.341 457.235C397.693 442.801 379.719 408.769 353.165 388.227L354.712 386.227C380.065 405.839 397.632 437.361 404.462 453.31C410.055 438.651 420.155 416.428 433.686 393.77C448.177 369.504 466.659 344.642 487.827 328.065L489.387 330.056C468.574 346.355 450.28 370.914 435.857 395.067Z" fill="#E9B11D"/>
<path fill-rule="evenodd" clip-rule="evenodd" d="M6.83643 457.406C6.83643 456.707 7.40256 456.141 8.10092 456.141H510.736C511.434 456.141 512 456.707 512 457.406C512 458.104 511.434 458.67 510.736 458.67H8.10092C7.40256 458.67 6.83643 458.104 6.83643 457.406Z" fill="#3E3D3D"/>
</g>
<defs>
<clipPath id="clip0_101_2593">
<rect width="512" height="512" fill="white"/>
</clipPath>
</defs>
</svg>
