<svg width="512" height="512" viewBox="0 0 512 512" fill="none" xmlns="http://www.w3.org/2000/svg">
<g clip-path="url(#clip0_101_2373)">
<path d="M404.847 165.284C404.847 183.701 389.917 198.63 371.501 198.63C353.084 198.63 338.154 183.701 338.154 165.284C338.154 146.867 353.084 131.938 371.501 131.938C389.917 131.938 404.847 146.867 404.847 165.284Z" fill="#F15846"/>
<path d="M256.095 89.5044L270.994 96.7275L266.223 106.566L251.325 99.3432L256.095 89.5044Z" fill="#3E3D3D"/>
<path d="M237.768 103.951C240.678 97.9482 247.904 95.4411 253.907 98.3516L264.257 103.369C270.26 106.28 272.767 113.506 269.856 119.509L257.346 145.312L225.258 129.754L237.768 103.951Z" fill="#E5E5E5"/>
<path d="M236.371 106.69L268.542 121.979L262.533 134.622L230.362 119.333L236.371 106.69Z" fill="#FAC22F"/>
<path d="M102.202 259.775C97.2224 257.923 94.6876 252.385 96.54 247.405C98.3923 242.426 103.93 239.891 108.909 241.744L136.557 252.029C141.536 253.882 144.071 259.42 142.219 264.399C140.366 269.378 134.828 271.913 129.849 270.06L102.202 259.775Z" fill="#FAC22F"/>
<path d="M74.5925 231.912C78.1636 227.979 84.2471 227.685 88.1802 231.256C92.1134 234.827 92.4068 240.911 88.8357 244.844L69.0062 266.684C65.4351 270.617 59.3517 270.91 55.4185 267.339C51.4853 263.768 51.1919 257.685 54.763 253.751L74.5925 231.912Z" fill="#53B3CC"/>
<path fill-rule="evenodd" clip-rule="evenodd" d="M378.555 271.736C386.7 271.736 393.304 265.133 393.304 256.987C393.304 248.841 386.7 242.237 378.555 242.237C370.409 242.237 363.805 248.841 363.805 256.987C363.805 265.133 370.409 271.736 378.555 271.736ZM378.555 264.041C382.45 264.041 385.609 260.883 385.609 256.987C385.609 253.091 382.45 249.933 378.555 249.933C374.659 249.933 371.501 253.091 371.501 256.987C371.501 260.883 374.659 264.041 378.555 264.041Z" fill="#3E3D3D"/>
<path d="M311.221 261.655C311.221 259.431 313.023 257.628 315.247 257.628H439.297C441.521 257.628 443.324 259.431 443.324 261.655V426.746C443.324 428.97 441.521 430.773 439.297 430.773H315.247C313.023 430.773 311.221 428.97 311.221 426.746V261.655Z" fill="#F1F1F1"/>
<path fill-rule="evenodd" clip-rule="evenodd" d="M309.878 261.655C309.878 258.69 312.282 256.286 315.247 256.286H439.297C442.262 256.286 444.666 258.69 444.666 261.655V426.746C444.666 429.712 442.262 432.115 439.297 432.115H315.247C312.282 432.115 309.878 429.712 309.878 426.746V261.655ZM315.247 258.97C313.765 258.97 312.563 260.172 312.563 261.655V426.746C312.563 428.229 313.765 429.431 315.247 429.431H439.297C440.78 429.431 441.982 428.229 441.982 426.746V261.655C441.982 260.172 440.78 258.97 439.297 258.97H315.247Z" fill="#3E3D3D"/>
<path d="M321.481 271.736H433.063V416.665H321.481V271.736Z" fill="white"/>
<path fill-rule="evenodd" clip-rule="evenodd" d="M320.139 270.394H434.405V418.007H320.139V270.394ZM322.823 273.078V415.323H431.721V273.078H322.823Z" fill="#3E3D3D"/>
<path fill-rule="evenodd" clip-rule="evenodd" d="M413.184 297.447H340.719V294.762H413.184V297.447ZM413.184 326.946H340.719V324.261H413.184V326.946ZM413.184 357.727H340.719V355.043H413.184V357.727ZM413.184 387.867H340.719V385.183H413.184V387.867Z" fill="#3E3D3D"/>
<path fill-rule="evenodd" clip-rule="evenodd" d="M222.286 269.171C216.897 264.469 212.394 257.212 210.54 246.085C208.189 245.444 203.486 241.596 203.486 231.336C203.486 221.075 206.906 217.655 208.616 217.228L214.388 188.37L240.68 181.957H251.582L277.874 188.37L283.646 217.228C285.356 217.655 288.776 221.075 288.776 231.336C288.776 241.596 284.073 245.444 281.722 246.085C279.864 257.229 275.455 264.491 270.179 269.193V307.648H221.442V269.171H222.286Z" fill="#EFCB96"/>
<path d="M216.952 282.638H211.822L207.975 290.333L245.81 429.49L251.581 432.056L283.645 324.962L278.515 282.638H274.667C272.957 289.478 264.792 303.159 245.81 303.159C226.828 303.159 218.663 289.478 216.952 282.638Z" fill="#53B3CC"/>
<path d="M210.54 279.431C143.847 285.844 137.007 383.746 132.304 430.773H366.37C357.136 299.439 317.633 279.431 279.798 279.431L253.506 377.547L250.941 427.567L244.528 377.547L210.54 279.431Z" fill="#F1F1F1"/>
<path fill-rule="evenodd" clip-rule="evenodd" d="M293.01 342.602L282.325 283.518L284.966 283.04L296.084 344.516L274.519 350.678L288.441 366.416L260.493 426.211L258.061 425.074L285.263 366.875L269.686 349.266L293.01 342.602ZM205.351 283.222L208.033 283.336L205.518 342.454L226.941 346.471L212.753 366.741L243.788 425.012L241.419 426.274L209.61 366.55L222.355 348.343L202.737 344.664L205.351 283.222ZM180.451 370.647L173.397 431.569L170.73 431.26L177.784 370.339L180.451 370.647ZM317.684 370.339L324.738 431.26L322.071 431.569L315.017 370.647L317.684 370.339Z" fill="#E5E5E5"/>
<path d="M57.2747 351.896C64.9701 354.461 73.7342 359.377 77.1543 361.515L88.6973 355.102L102.805 359.591L116.914 431.414H81.6433C77.1543 419.871 65.6113 419.871 61.7637 412.817C58.6855 407.174 63.0462 395.93 65.6113 391.014C66.4664 388.021 65.2266 379.599 53.4271 369.852C38.6777 357.667 47.6556 348.689 57.2747 351.896Z" fill="#F1F1F1"/>
<path d="M142.56 122.796C130.775 125.852 129.432 139.017 129.432 143.281L129.165 143.409C125.848 140.729 114.073 132.654 104.98 140.748C92.545 151.817 95.3759 163.814 119.976 176.937C139.656 187.435 149.413 190.591 151.832 190.857L152.099 190.73C153.412 188.681 157.087 179.107 161.288 157.201C166.538 129.819 159.238 118.471 142.56 122.796Z" fill="#53B3CC"/>
<path fill-rule="evenodd" clip-rule="evenodd" d="M163.544 147.948L150.32 152.757V163.762C150.32 166.017 147.707 167.267 145.951 165.852L127.234 150.774V163.08C127.234 164.19 126.55 165.186 125.513 165.585L109.7 171.667L108.736 169.162L124.549 163.08V150.774C124.549 148.519 127.161 147.269 128.918 148.684L147.635 163.762L147.635 152.757C147.635 151.629 148.341 150.62 149.402 150.235L162.627 145.426L163.544 147.948Z" fill="white"/>
<path d="M197.073 92.8197C197.073 96.7156 193.915 99.8738 190.019 99.8738C186.123 99.8738 182.965 96.7156 182.965 92.8197C182.965 88.9239 186.123 85.7657 190.019 85.7657C193.915 85.7657 197.073 88.9239 197.073 92.8197Z" fill="#E5E5E5"/>
<path d="M438.194 212.097C438.194 218.118 433.313 222.999 427.292 222.999C421.271 222.999 416.39 218.118 416.39 212.097C416.39 206.077 421.271 201.196 427.292 201.196C433.313 201.196 438.194 206.077 438.194 212.097Z" fill="#F1F1F1"/>
<path fill-rule="evenodd" clip-rule="evenodd" d="M365.088 144.763H377.913V158.871H392.021V171.697H377.913V185.805H365.088V171.697H350.979L350.979 158.871H365.088V144.763Z" fill="white"/>
<path d="M207.975 218.51C210.54 222.358 209.257 236.466 211.822 237.107C213.746 230.695 213.746 221.075 214.388 216.586C215.029 212.097 216.311 195.424 227.213 195.424C238.115 195.424 238.115 202.478 246.451 202.478C254.788 202.478 255.429 195.424 264.407 195.424C273.295 195.424 274.013 202.966 275.27 216.182L275.309 216.586C276.335 227.36 278.729 234.756 279.798 237.107C281.85 234.029 279.798 216.586 283.646 217.228C287.237 219.28 288.134 223.64 288.134 225.564C291.768 205.257 288.006 164.643 243.886 164.643C199.766 164.643 198.569 206.967 203.486 228.129C204.512 218.895 206.906 217.869 207.975 218.51Z" fill="#3E3D3D"/>
<path fill-rule="evenodd" clip-rule="evenodd" d="M197.687 296.455C201.934 277.344 215.487 271.911 222.035 271.677L222.131 274.36C216.709 274.554 204.269 279.21 200.307 297.037C198.258 306.258 197.032 312.391 196.211 316.67C195.957 317.995 195.74 319.151 195.549 320.169C195.128 322.414 194.832 323.995 194.532 325.27L191.919 324.655C192.204 323.442 192.483 321.954 192.895 319.758C193.088 318.73 193.309 317.547 193.575 316.164C194.4 311.861 195.632 305.703 197.687 296.455Z" fill="#3E3D3D"/>
<path fill-rule="evenodd" clip-rule="evenodd" d="M287.891 277.539C281.419 273.503 274.582 271.791 270.214 271.677L270.144 274.361C274.005 274.461 280.379 276.019 286.471 279.817C292.534 283.598 298.25 289.555 300.959 298.421L303.526 297.636C300.592 288.033 294.391 281.592 287.891 277.539Z" fill="#3E3D3D"/>
<path fill-rule="evenodd" clip-rule="evenodd" d="M306.59 299.664C304.866 298.815 303.611 298.845 302.843 299.229C301.966 299.667 301.095 300.656 300.345 302.453C299.601 304.236 299.04 306.664 298.686 309.725C297.981 315.843 298.132 324.233 299.09 334.456C299.846 342.516 301.976 346.622 304.059 348.576C306.093 350.485 308.209 350.469 309.467 349.998L310.409 352.511C308.247 353.322 305.041 353.179 302.222 350.534C299.453 347.936 297.201 343.063 296.417 334.707C295.452 324.409 295.283 315.805 296.02 309.418C296.388 306.226 296.989 303.524 297.868 301.419C298.741 299.329 299.954 297.672 301.643 296.828C303.44 295.929 305.632 296.2 307.775 297.255C309.938 298.32 312.229 300.256 314.438 303.047C318.861 308.639 323.098 317.845 325.369 331.149L325.374 331.179L325.378 331.208C326.015 336.3 326.376 340.537 325.679 343.763C325.322 345.415 324.675 346.87 323.597 348.058C322.518 349.248 321.086 350.081 319.302 350.616L318.53 348.045C319.952 347.619 320.925 347.009 321.609 346.254C322.295 345.498 322.771 344.509 323.055 343.195C323.639 340.495 323.362 336.725 322.718 331.571C320.499 318.599 316.403 309.859 312.332 304.713C310.292 302.134 308.295 300.503 306.59 299.664Z" fill="#3E3D3D"/>
<path d="M199.454 340.947C197.864 348.936 192.352 354.573 187.142 353.536C181.931 352.5 178.996 345.183 180.585 337.194C182.174 329.204 187.686 323.568 192.897 324.604C198.107 325.641 201.043 332.958 199.454 340.947Z" fill="#3E3D3D"/>
<path fill-rule="evenodd" clip-rule="evenodd" d="M186.342 328.453C184.321 330.519 182.652 333.679 181.901 337.455C181.15 341.232 181.483 344.79 182.559 347.472C183.641 350.169 185.389 351.819 187.404 352.22C189.418 352.621 191.665 351.765 193.696 349.688C195.717 347.621 197.386 344.462 198.137 340.685C198.888 336.908 198.556 333.351 197.479 330.668C196.397 327.972 194.649 326.321 192.635 325.921C190.62 325.52 188.374 326.376 186.342 328.453ZM184.423 326.576C186.848 324.096 189.963 322.652 193.158 323.288C196.354 323.924 198.679 326.45 199.971 329.668C201.267 332.901 201.608 336.996 200.77 341.209C199.932 345.421 198.05 349.075 195.615 351.565C193.19 354.044 190.076 355.488 186.88 354.853C183.684 354.217 181.359 351.691 180.068 348.472C178.771 345.24 178.43 341.144 179.268 336.932C180.106 332.719 181.988 329.066 184.423 326.576Z" fill="#3E3D3D"/>
<path d="M132.304 378.83C135.895 384.986 135.938 395.503 135.51 399.992V430.773H97.675C97.4613 428.422 95.1099 420.897 87.4146 409.611C77.7954 395.503 89.3384 381.395 84.8495 370.493C80.3605 359.591 68.1763 360.874 62.4048 339.712C56.6333 318.549 72.6652 316.626 80.3605 319.832C88.0559 323.038 100.24 322.397 107.294 330.734C114.348 339.07 111.783 350.613 115.631 360.874C119.478 371.134 127.815 371.134 132.304 378.83Z" fill="#F15846"/>
<path fill-rule="evenodd" clip-rule="evenodd" d="M118.794 430.339C111.145 381.388 86.7051 346.24 75.5552 334.88L77.471 333C88.9796 344.726 113.704 380.375 121.446 429.924L118.794 430.339Z" fill="#D05244"/>
<path fill-rule="evenodd" clip-rule="evenodd" d="M96.5403 247.405C94.688 252.384 97.2228 257.922 102.202 259.775L115.3 264.647L122.606 246.839L108.91 241.744C103.931 239.891 98.3927 242.426 96.5403 247.405Z" fill="#F1F1F1"/>
<path fill-rule="evenodd" clip-rule="evenodd" d="M88.1804 231.257C84.2472 227.686 78.1638 227.979 74.5926 231.912L65.1984 242.259L79.0126 255.664L88.8359 244.844C92.407 240.911 92.1135 234.828 88.1804 231.257Z" fill="#F1F1F1"/>
<path fill-rule="evenodd" clip-rule="evenodd" d="M-0.5 431.414C-0.5 430.673 0.100927 430.072 0.842209 430.072H510.658C511.399 430.072 512 430.673 512 431.414C512 432.155 511.399 432.756 510.658 432.756H0.842209C0.100927 432.756 -0.5 432.155 -0.5 431.414Z" fill="#3E3D3D"/>
</g>
<defs>
<clipPath id="clip0_101_2373">
<rect width="512" height="512" fill="white"/>
</clipPath>
</defs>
</svg>
