<svg width="512" height="512" viewBox="0 0 512 512" fill="none" xmlns="http://www.w3.org/2000/svg">
<g clip-path="url(#clip0_101_2297)">
<path fill-rule="evenodd" clip-rule="evenodd" d="M191.511 139.379C191.511 135.074 195.001 131.584 199.306 131.584H428.411C432.716 131.584 436.206 135.074 436.206 139.379V441.238C436.206 445.543 432.716 449.033 428.411 449.033H199.306C195.001 449.033 191.511 445.543 191.511 441.238V139.379ZM199.306 134.182C196.436 134.182 194.109 136.509 194.109 139.379V441.238C194.109 444.108 196.436 446.435 199.306 446.435H428.411C431.281 446.435 433.607 444.108 433.607 441.238V139.379C433.607 136.509 431.281 134.182 428.411 134.182H199.306Z" fill="#F1F1F1"/>
<path fill-rule="evenodd" clip-rule="evenodd" d="M60.334 118.868C67.4509 138.738 86.4482 152.953 108.766 152.953C137.169 152.953 160.195 129.927 160.195 101.523C160.195 73.1192 137.169 50.0933 108.766 50.0933C102.3 50.0933 96.1136 51.2863 90.4137 53.4642L107.511 100.896L60.334 118.868Z" fill="#F15846"/>
<path fill-rule="evenodd" clip-rule="evenodd" d="M82.96 57.0264L98.1036 95.9635L58.4969 112.44C57.7364 108.922 57.3359 105.269 57.3359 101.523C57.3359 82.5244 67.6377 65.9317 82.96 57.0264Z" fill="#F1F1F1"/>
<path d="M107.511 108.019C107.511 104.432 110.42 101.523 114.007 101.523H400.814C404.401 101.523 407.31 104.431 407.31 108.019V416.15C407.31 419.738 404.401 422.646 400.814 422.646H114.007C110.42 422.646 107.511 419.738 107.511 416.15V108.019Z" fill="white"/>
<path fill-rule="evenodd" clip-rule="evenodd" d="M106.212 108.019C106.212 103.714 109.702 100.224 114.007 100.224H400.814C405.119 100.224 408.609 103.714 408.609 108.019V416.15C408.609 420.455 405.119 423.945 400.814 423.945H114.007C109.702 423.945 106.212 420.455 106.212 416.15V108.019ZM114.007 102.822C111.137 102.822 108.811 105.149 108.811 108.019V416.15C108.811 419.02 111.137 421.347 114.007 421.347H400.814C403.684 421.347 406.011 419.02 406.011 416.15V108.019C406.011 105.149 403.684 102.822 400.814 102.822H114.007Z" fill="#3E3D3D"/>
<path d="M128.209 276.51C111.651 275.005 92.8771 275.883 85.5598 276.51C84.9326 278.183 83.6782 281.653 83.6782 282.155C83.6782 282.782 87.4414 300.343 87.4414 302.852C87.4414 304.859 110.02 308.288 121.31 309.751C130.509 299.298 144.767 278.015 128.209 276.51Z" fill="#46A4BC"/>
<path d="M89.3228 250.795H124.446V293.444H89.3228V250.795Z" fill="#EFCB96"/>
<path fill-rule="evenodd" clip-rule="evenodd" d="M336.437 150.489C309.79 150.489 288.188 172.091 288.188 198.738C288.188 225.385 309.79 246.987 336.437 246.987C363.084 246.987 384.686 225.385 384.686 198.738C384.686 172.091 363.084 150.489 336.437 150.489ZM285.589 198.738C285.589 170.656 308.355 147.891 336.437 147.891C364.519 147.891 387.284 170.656 387.284 198.738C387.284 226.82 364.519 249.586 336.437 249.586C308.355 249.586 285.589 226.82 285.589 198.738Z" fill="#E5E5E5"/>
<path fill-rule="evenodd" clip-rule="evenodd" d="M155.133 236.952H248.047V275.928H155.133V236.952ZM157.732 239.55V273.329H245.449V239.55H157.732Z" fill="#3E3D3D"/>
<path fill-rule="evenodd" clip-rule="evenodd" d="M222.915 255.23H172.739V252.632H222.915V255.23Z" fill="#53B3CC"/>
<path d="M221.66 265.848C222.664 270.364 220.824 272.747 219.779 273.374L223.542 282.155L236.086 287.172C237.34 285.5 240.978 281.402 245.494 278.392C251.139 274.628 254.902 266.475 255.529 262.712C256.031 259.701 254.065 258.53 253.02 258.321C253.522 256.314 251.557 254.976 250.511 254.558C250.01 252.049 247.375 251.422 246.121 251.422L251.739 241.208C252.47 239.879 252.091 238.214 250.857 237.333C249.596 236.433 247.857 236.644 246.849 237.821L229.814 257.694L225.787 246.621C225.22 245.062 223.585 244.165 221.966 244.525C220.354 244.883 219.253 246.376 219.405 248.021C219.92 253.613 220.82 262.064 221.66 265.848Z" fill="#EFCB96"/>
<path d="M62.9805 442.089L60.4717 482.229H163.331L160.823 442.089H62.9805Z" fill="#3E3D3D"/>
<path d="M163.332 417.628C161.826 409.099 162.705 363.063 163.332 341.111C172.321 347.174 191.681 359.049 197.2 358.045C202.719 357.042 206.19 351.773 207.235 349.264L236.713 289.054C231.696 279.019 222.079 274.001 217.898 272.747L189.047 309.124C184.865 304.734 173.869 294.197 163.332 287.172C152.795 280.148 135.108 277.137 128.209 276.51C126.327 281.109 120.432 290.308 106.884 290.308C93.337 290.308 87.4414 281.109 85.5598 276.51C65.4896 282.155 52.3186 285.918 45.4194 295.326C38.5203 304.734 34.7571 326.685 30.3667 342.365C25.9764 358.045 27.8579 368.707 30.9939 372.471C33.5027 375.481 51.6913 393.795 60.472 402.576C60.2629 410.52 59.594 428.542 58.5905 437.071C57.3361 447.734 67.3712 448.361 76.7791 446.479C86.187 444.598 136.362 445.225 152.042 446.479C167.722 447.734 165.213 428.291 163.332 417.628Z" fill="#53B3CC"/>
<path fill-rule="evenodd" clip-rule="evenodd" d="M-0.410645 482.229C-0.410645 481.512 0.171019 480.93 0.888537 480.93H499.507C500.224 480.93 500.806 481.512 500.806 482.229C500.806 482.947 500.224 483.529 499.507 483.529H0.888537C0.171019 483.529 -0.410645 482.947 -0.410645 482.229Z" fill="#3E3D3D"/>
<path d="M104.376 410.766C98.8563 406.752 92.459 405.712 89.9502 403.83L97.4765 418.292L104.376 410.766Z" fill="#EFCB96"/>
<path d="M113.05 398.206C115.381 395.478 119.481 395.156 122.209 397.486L150.017 421.241C152.745 423.572 153.067 427.672 150.737 430.4L120.067 466.302C117.737 469.03 113.637 469.352 110.909 467.022L83.1004 443.266C80.3726 440.936 80.0503 436.836 82.3806 434.108L113.05 398.206Z" fill="white"/>
<path d="M128.836 213.791C137.366 238.377 129.463 251.631 124.445 255.185L89.3227 259.576L82.4235 255.185L74.27 239.506L86.1867 213.791C96.849 203.547 120.306 189.205 128.836 213.791Z" fill="#EFCB96"/>
<path d="M87.8378 260.968C81.3969 259.236 71.5677 252.945 71.1342 239.506C70.507 220.063 72.3886 204.383 85.5597 203.128C86.1868 198.32 89.8246 188.452 99.3579 187.449C111.275 186.194 126.327 187.449 133.854 183.685C141.38 179.922 143.261 183.685 145.77 186.194C148.279 188.703 150.161 211.282 127.582 213.791C122.144 214.395 117.87 214.526 114.411 214.447C109.184 214.438 98.4798 216.049 97.4763 222.571C96.2219 230.725 97.4763 238.878 94.9675 238.878C92.4588 238.878 94.3403 234.488 89.3228 230.725C86.605 230.516 81.1693 231.854 81.1693 238.878C81.1693 243.29 83.8074 245.458 86.4433 246.41C88.5789 247.18 90.5772 248.97 90.5772 251.241V258.667C90.5772 260.175 89.294 261.36 87.8378 260.968Z" fill="#3E3D3D"/>
<path d="M343.336 289.681H369.678V381.251H343.336V289.681Z" fill="#FAC22F"/>
<path d="M296.924 314.769H323.266V381.251H296.924V314.769Z" fill="#FAC22F"/>
<path d="M250.511 337.348H276.853V381.251H250.511V337.348Z" fill="#FAC22F"/>
<path fill-rule="evenodd" clip-rule="evenodd" d="M382.805 273.419H275.599V270.82H385.403V394.467H218.48V362.435H221.078V391.869H382.805V273.419Z" fill="#F1F1F1"/>
<path fill-rule="evenodd" clip-rule="evenodd" d="M304.45 299.761H251.766V297.163H304.45V299.761Z" fill="#3E3D3D"/>
<path fill-rule="evenodd" clip-rule="evenodd" d="M276.853 318.577H251.766V315.978H276.853V318.577Z" fill="#3E3D3D"/>
<path fill-rule="evenodd" clip-rule="evenodd" d="M263.055 144.217H156.432V141.619H263.055V144.217ZM263.055 174.95H156.432V172.351H263.055V174.95ZM263.055 205.682H156.432V203.084H263.055V205.682Z" fill="#3E3D3D"/>
<path fill-rule="evenodd" clip-rule="evenodd" d="M473.14 258.484C474.05 256.974 476.012 256.488 477.523 257.398L486.481 262.799C487.991 263.709 488.478 265.671 487.567 267.182C486.822 268.419 487.013 269.992 487.932 271.106C490.508 274.229 492.444 277.778 493.689 281.544C494.143 282.917 495.375 283.917 496.821 283.944C498.587 283.978 499.992 285.436 499.958 287.202L499.761 297.654C499.727 299.418 498.27 300.821 496.506 300.787C495.063 300.76 493.796 301.711 493.29 303.063C492.6 304.904 491.731 306.709 490.679 308.454C489.627 310.199 488.437 311.809 487.131 313.279C486.172 314.358 485.922 315.923 486.621 317.186C487.474 318.731 486.913 320.674 485.369 321.527L476.219 326.582C474.673 327.436 472.727 326.875 471.873 325.329C471.173 324.063 469.714 323.44 468.288 323.68C464.376 324.337 460.333 324.281 456.37 323.461C454.955 323.169 453.474 323.734 452.729 324.971C451.818 326.482 449.856 326.968 448.346 326.057L439.387 320.657C437.877 319.746 437.391 317.784 438.301 316.274C439.047 315.037 438.856 313.463 437.937 312.349C435.361 309.227 433.425 305.678 432.179 301.912C431.725 300.539 430.493 299.539 429.047 299.511C427.281 299.478 425.876 298.019 425.91 296.253L426.108 285.802C426.141 284.038 427.598 282.635 429.362 282.668C430.806 282.695 432.073 281.745 432.579 280.393C433.269 278.551 434.137 276.747 435.189 275.002C436.241 273.257 437.432 271.646 438.738 270.176C439.697 269.097 439.946 267.533 439.248 266.269C438.395 264.725 438.955 262.781 440.5 261.928L449.65 256.874C451.196 256.02 453.142 256.581 453.996 258.127C454.695 259.393 456.155 260.015 457.581 259.776C461.493 259.119 465.535 259.174 469.499 259.994C470.913 260.287 472.394 259.721 473.14 258.484ZM478.625 301.187C473.401 309.852 462.141 312.642 453.475 307.418C444.81 302.194 442.02 290.934 447.244 282.269C452.468 273.603 463.728 270.813 472.393 276.037C481.059 281.261 483.849 292.521 478.625 301.187Z" fill="#F15846"/>
<path fill-rule="evenodd" clip-rule="evenodd" d="M459.349 352.227C459.994 351.157 461.385 350.812 462.455 351.457L468.804 355.285C469.874 355.93 470.219 357.32 469.574 358.391C469.045 359.267 469.181 360.382 469.832 361.172C471.657 363.385 473.03 365.9 473.912 368.569C474.234 369.542 475.107 370.251 476.132 370.27C477.383 370.294 478.379 371.327 478.355 372.579L478.215 379.986C478.191 381.236 477.159 382.23 475.908 382.207C474.886 382.187 473.988 382.861 473.629 383.819C473.14 385.124 472.524 386.403 471.779 387.64C471.033 388.876 470.19 390.017 469.264 391.059C468.584 391.824 468.408 392.933 468.902 393.828C469.507 394.923 469.11 396.3 468.015 396.905L461.531 400.487C460.435 401.092 459.056 400.694 458.451 399.598C457.955 398.701 456.921 398.26 455.91 398.43C453.138 398.896 450.273 398.856 447.464 398.275C446.462 398.068 445.412 398.469 444.884 399.345C444.239 400.416 442.848 400.76 441.778 400.115L435.429 396.287C434.359 395.642 434.014 394.252 434.659 393.181C435.188 392.305 435.052 391.19 434.401 390.4C432.576 388.187 431.203 385.672 430.321 383.003C429.999 382.03 429.126 381.321 428.101 381.302C426.85 381.278 425.854 380.245 425.878 378.993L426.018 371.586C426.042 370.336 427.074 369.342 428.324 369.365C429.347 369.385 430.245 368.711 430.604 367.753C431.093 366.448 431.708 365.169 432.454 363.932C433.2 362.696 434.043 361.555 434.969 360.513C435.649 359.748 435.825 358.64 435.33 357.744C434.726 356.649 435.123 355.272 436.217 354.667L442.702 351.085C443.798 350.48 445.177 350.878 445.782 351.974C446.277 352.871 447.312 353.312 448.323 353.142C451.095 352.676 453.96 352.716 456.769 353.297C457.771 353.504 458.821 353.103 459.349 352.227ZM463.236 382.489C459.534 388.631 451.554 390.608 445.413 386.906C439.272 383.203 437.295 375.224 440.997 369.083C444.699 362.941 452.679 360.964 458.82 364.666C464.961 368.369 466.938 376.348 463.236 382.489Z" fill="#F1F1F1"/>
<path d="M340.827 118.457C340.827 121.575 338.3 124.102 335.182 124.102C332.065 124.102 329.538 121.575 329.538 118.457C329.538 115.34 332.065 112.813 335.182 112.813C338.3 112.813 340.827 115.34 340.827 118.457Z" fill="#F15846"/>
<path d="M378.459 118.457C378.459 121.575 375.932 124.102 372.814 124.102C369.697 124.102 367.169 121.575 367.169 118.457C367.169 115.34 369.697 112.813 372.814 112.813C375.932 112.813 378.459 115.34 378.459 118.457Z" fill="#53B3CC"/>
<path d="M303.196 118.457C303.196 121.575 300.668 124.102 297.551 124.102C294.433 124.102 291.906 121.575 291.906 118.457C291.906 115.34 294.433 112.813 297.551 112.813C300.668 112.813 303.196 115.34 303.196 118.457Z" fill="#FAC22F"/>
<path d="M375.95 467.804H467.52V481.602H375.95V467.804Z" fill="#F15846"/>
<path d="M364.661 454.006H456.231V467.804H364.661V454.006Z" fill="#53B3CC"/>
<path d="M370.932 440.207H462.502V454.006H370.932V440.207Z" fill="#FAC22F"/>
<path d="M88.0683 401.949C86.0613 405.461 81.3782 410.52 79.2876 412.611C82.4236 415.12 81.7964 418.256 84.9323 424.528C88.0683 430.799 96.849 433.308 102.494 434.563C107.01 435.566 108.557 434.563 108.766 433.935C110.773 433.935 111.274 432.263 111.274 431.427C113.156 431.427 113.992 428.918 112.529 427.664C115.539 426.66 113.783 424.737 112.529 423.9C105.003 423.273 101.239 419.51 98.7306 413.865C96.7236 409.349 90.7861 404.039 88.0683 401.949Z" fill="#EFCB96"/>
<path fill-rule="evenodd" clip-rule="evenodd" d="M163.981 326.058V341.111H162.682V326.058H163.981ZM61.1308 356.943L63.5903 337.267L64.8795 337.428L62.4199 357.104C62.0089 360.393 62.9375 363.708 64.9967 366.305L90.7382 398.761L88.6252 402.283L87.5112 401.614L89.1614 398.864L63.9788 367.112C61.7028 364.242 60.6765 360.578 61.1308 356.943Z" fill="#46A4BC"/>
<path fill-rule="evenodd" clip-rule="evenodd" d="M407.31 82.8193H190.301V76.3234H407.31V82.8193Z" fill="#FAC22F"/>
<path d="M424.871 198.738C424.871 226.103 402.687 248.286 375.323 248.286C347.958 248.286 325.774 226.103 325.774 198.738C325.774 171.373 347.958 149.19 375.323 149.19C402.687 149.19 424.871 171.373 424.871 198.738Z" fill="#53B3CC"/>
<path fill-rule="evenodd" clip-rule="evenodd" d="M374.695 164.108C376.848 164.108 378.593 165.853 378.593 168.006V171.027C386.94 171.224 393.645 178.051 393.645 186.445H385.85C385.85 182.233 382.436 178.818 378.223 178.818H371.936C367.299 178.818 363.54 182.577 363.54 187.213C363.54 191.85 367.299 195.609 371.936 195.609H378.223C386.741 195.609 393.645 202.514 393.645 211.031C393.645 219.425 386.94 226.253 378.593 226.449V229.471C378.593 231.623 376.848 233.368 374.695 233.368C372.543 233.368 370.798 231.623 370.798 229.471V226.453H369.631C361.962 226.453 355.745 220.236 355.745 212.568H363.54C363.54 215.931 366.267 218.658 369.631 218.658H378.223C382.436 218.658 385.85 215.243 385.85 211.031C385.85 206.819 382.436 203.404 378.223 203.404H371.936C362.994 203.404 355.745 196.155 355.745 187.213C355.745 178.654 362.387 171.646 370.798 171.062V168.006C370.798 165.853 372.543 164.108 374.695 164.108Z" fill="white"/>
</g>
<defs>
<clipPath id="clip0_101_2297">
<rect width="512" height="512" fill="white"/>
</clipPath>
</defs>
</svg>
