<svg width="512" height="512" viewBox="0 0 512 512" fill="none" xmlns="http://www.w3.org/2000/svg">
<g clip-path="url(#clip0_101_2337)">
<path d="M229.136 373.268C229.136 400.802 63.6802 400.802 63.6802 373.268C63.6802 328.004 100.719 291.31 146.408 291.31C192.097 291.31 229.136 328.004 229.136 373.268Z" fill="#F15846"/>
<path d="M464.493 373.268C464.493 400.802 299.038 400.802 299.038 373.268C299.038 328.004 336.076 291.31 381.765 291.31C427.455 291.31 464.493 328.004 464.493 373.268Z" fill="#F15846"/>
<path d="M48.2891 374.679H477.961L468.982 393.918H59.1912L48.2891 374.679Z" fill="#E5E5E5"/>
<path d="M68.8105 393.918H458.721V479.853H68.8105V393.918Z" fill="white"/>
<path fill-rule="evenodd" clip-rule="evenodd" d="M67.478 393.918C67.478 393.182 68.0748 392.585 68.8109 392.585H458.722C459.458 392.585 460.055 393.182 460.055 393.918V479.853C460.055 480.589 459.458 481.186 458.722 481.186H68.8109C68.0748 481.186 67.478 480.589 67.478 479.853V393.918ZM70.1438 395.251V478.52H457.389V395.251H70.1438Z" fill="#3E3D3D"/>
<path d="M89.3325 418.288H120.115V469.592H89.3325V418.288Z" fill="#F1F1F1"/>
<path d="M359.961 418.288H390.744V469.592H359.961V418.288Z" fill="#F1F1F1"/>
<path d="M135.506 418.288H166.289V469.592H135.506V418.288Z" fill="#F1F1F1"/>
<path d="M406.135 418.288H436.917V469.592H406.135V418.288Z" fill="#F1F1F1"/>
<path d="M183.604 252.191C190.786 239.365 191.299 215.637 190.658 205.376L209.897 200.245C223.578 196.825 251.197 189.856 252.223 189.343C253.505 188.702 274.668 195.115 274.027 208.582C273.386 222.05 276.592 235.517 283.647 249.626C289.29 260.913 285.998 273.14 283.647 277.843C280.44 281.263 273.642 288.36 272.103 289.386C270.564 290.412 247.948 304.35 236.832 311.191L177.191 282.332C176.335 277.629 176.421 265.017 183.604 252.191Z" fill="#3E3D3D"/>
<path d="M319.56 181.006L270.821 210.506L256.712 220.767L196.43 214.354L147.05 184.213L229.778 141.246L319.56 181.006Z" fill="#3E3D3D"/>
<path d="M403.57 117.518C399.978 126.239 402.073 140.818 403.57 147.017L414.472 161.126L375.352 147.017L364.45 122.007C361.671 116.663 357.011 103.024 360.602 91.2243C365.091 76.4743 389.461 70.0613 402.287 81.6048C415.113 93.1482 408.059 106.615 403.57 117.518Z" fill="#EFCB96"/>
<path d="M312.505 99.8976L447.472 83.5287L450.208 106.094L315.242 122.463L312.505 99.8976Z" fill="#3E3D3D"/>
<path d="M363.168 128.42C365.733 133.55 366.374 144.666 366.374 149.583L376.635 152.148L383.048 145.735C382.834 138.681 379.97 122.905 370.222 116.235C358.037 107.898 361.885 102.126 363.168 95.0721C364.194 89.4286 358.892 86.3076 356.113 85.4525C353.121 91.0105 347.392 103.922 348.418 111.105C349.7 120.083 359.961 122.007 363.168 128.42Z" fill="#EFCB96"/>
<path d="M133.582 152.148C131.017 154.713 129.948 163.477 129.734 167.539L116.267 169.463C105.579 172.456 85.2279 176.004 89.3323 166.256C94.4627 154.072 89.3323 137.398 89.3323 130.344C89.3323 123.289 93.1801 102.768 97.0279 97.6372C100.106 93.5328 103.868 95.9271 105.365 97.6372C105.579 96.3546 107.032 93.0199 111.136 89.9416C115.241 86.8634 118.405 91.2242 119.473 93.7894C121.397 89.9416 126.528 86.7351 129.734 89.9416C132.299 92.5068 132.513 96.1409 132.299 97.6372C133.796 96.9959 137.302 96.0981 139.354 97.6372C141.919 99.5611 141.278 110.463 138.071 118.159C134.865 125.854 133.582 133.55 136.789 132.909C139.995 132.268 145.767 124.572 148.332 125.213C150.897 125.854 152.18 129.702 148.332 137.398C144.484 145.094 136.789 148.941 133.582 152.148Z" fill="#EFCB96"/>
<path d="M163.082 347.103C168.213 375.321 165.22 447.788 163.082 480.494L342.005 479.211C329.692 445.864 324.049 371.686 322.766 338.766C336.661 331.926 370.992 311.319 397.157 283.614C429.863 248.984 438.842 213.071 443.972 191.267C449.102 169.463 454.874 164.332 436.918 152.789C418.961 141.246 386.255 145.093 368.94 148.3C351.625 151.506 359.962 166.256 355.472 188.702C350.983 211.147 343.288 220.767 332.386 238.723C321.484 256.68 302.245 272.712 291.984 275.278C283.775 277.33 265.049 277.415 256.712 277.201L238.756 315.038L213.104 280.408C203.356 286.564 186.81 285.111 179.756 283.614C131.017 264.119 131.658 201.528 138.071 172.669C116.524 155.226 75.6516 168.822 57.909 177.8C56.6264 189.771 58.6786 225.513 77.148 272.712C95.6175 319.912 142.133 341.973 163.082 347.103Z" fill="#53B3CC"/>
<path d="M215.028 259.886V282.332L213.104 284.256L227.212 309.267L238.756 322.093L247.093 309.267C251.582 296.441 256.84 283.615 254.788 281.049C252.736 278.484 251.796 265.872 251.582 259.886C270.051 249.113 272.103 215.637 270.821 200.245H197.712L196.43 222.05C195.404 245.137 208.401 256.894 215.028 259.886Z" fill="#EFCB96"/>
<path fill-rule="evenodd" clip-rule="evenodd" d="M202.971 284.092L202.842 284.897L243.886 376.603L271.461 277.843L271.227 277.187C265.587 277.329 260.226 277.292 256.712 277.202L238.755 315.038L213.103 280.408C210.188 282.249 206.666 283.409 202.971 284.092Z" fill="#FAC22F"/>
<path fill-rule="evenodd" clip-rule="evenodd" d="M321.433 338.766V317.603H324.099V338.766H321.433ZM161.76 348.551L158.553 322.899L161.198 322.569L164.405 348.221L161.76 348.551Z" fill="#46A4BC"/>
<path fill-rule="evenodd" clip-rule="evenodd" d="M446.879 180.196C450.453 167.206 451.355 162.07 436.918 152.789C418.961 141.246 386.255 145.093 368.94 148.3C357.345 150.447 357.253 157.77 357.109 169.114C357.1 169.831 357.091 170.564 357.079 171.313C399.179 161.775 434.249 173.145 446.879 180.196ZM58.1612 196.546C57.4277 188.074 57.4928 181.685 57.909 177.8C75.6516 168.822 116.524 155.226 138.071 172.669C137.013 177.43 136.113 183.109 135.565 189.362C135.545 189.356 135.526 189.349 135.506 189.343C104.724 179.595 71.3762 189.985 58.5502 196.398L58.1612 196.546Z" fill="#FAC22F"/>
<path d="M233.014 214.354C214.432 214.354 199.6 210.079 194.506 207.941V184.213C201.026 181.434 218.1 175.876 234.236 175.876C250.373 175.876 266.632 181.434 272.745 184.213V205.376C267.243 208.369 251.596 214.354 233.014 214.354Z" fill="#3E3D3D"/>
<path d="M245.81 213.071C251.966 220.254 264.621 223.76 270.179 224.615L272.103 219.484V203.452L260.559 197.039C253.078 199.39 239.653 205.889 245.81 213.071Z" fill="#3E3D3D"/>
<path fill-rule="evenodd" clip-rule="evenodd" d="M260.16 195.767C260.508 195.658 260.887 195.696 261.207 195.874L272.75 202.287C273.173 202.522 273.436 202.968 273.436 203.452V219.484C273.436 219.644 273.407 219.803 273.351 219.952L271.427 225.083C271.205 225.674 270.6 226.028 269.976 225.932C267.102 225.49 262.447 224.374 257.717 222.451C253.007 220.536 248.077 217.765 244.797 213.939C243 211.842 242.53 209.623 243.191 207.475C243.816 205.444 245.393 203.678 247.238 202.203C250.945 199.238 256.351 196.965 260.16 195.767ZM245.739 208.259C245.38 209.423 245.54 210.709 246.821 212.204C249.698 215.561 254.174 218.133 258.72 219.981C262.691 221.595 266.605 222.612 269.317 223.116L270.77 219.243V204.236L260.417 198.485C256.802 199.674 252.077 201.746 248.902 204.284C247.225 205.626 246.133 206.978 245.739 208.259Z" fill="#3E3D3D"/>
<path fill-rule="evenodd" clip-rule="evenodd" d="M276.941 157.04C272.873 157.03 269.085 158.132 266.883 159.133C266.213 159.438 265.422 159.141 265.118 158.471C264.813 157.801 265.11 157.011 265.78 156.706C268.28 155.57 272.445 154.363 276.948 154.374C281.466 154.385 286.446 155.628 290.361 159.542C295.134 164.315 296.483 169.285 297.383 174.277C297.528 175.078 297.661 175.875 297.793 176.67C298.489 180.848 299.177 184.977 301.498 189.361C303.153 192.486 306.358 196.55 310.176 200.802L331.839 215.167C332.453 215.574 332.62 216.401 332.214 217.015C331.807 217.628 330.98 217.796 330.366 217.389L318.601 209.587C322.475 213.414 326.171 216.826 328.778 219.126C329.33 219.613 329.383 220.456 328.896 221.008C328.409 221.56 327.566 221.612 327.014 221.125C324.164 218.61 320.026 214.782 315.76 210.523L322.643 222.675C323.006 223.316 322.781 224.129 322.14 224.492C321.5 224.855 320.686 224.63 320.323 223.989L308.21 202.603C304.363 198.32 300.962 194.045 299.142 190.608C296.602 185.81 295.841 181.211 295.147 177.025C295.02 176.252 294.894 175.493 294.76 174.75C293.896 169.962 292.681 165.632 288.476 161.427C285.207 158.159 280.995 157.05 276.941 157.04Z" fill="#3E3D3D"/>
<path d="M208.614 211.789C206.562 218.971 199.636 226.325 196.429 229.104L192.582 224.615L196.429 198.322C201.346 199.818 210.666 204.606 208.614 211.789Z" fill="#3E3D3D"/>
<path fill-rule="evenodd" clip-rule="evenodd" d="M195.716 197.196C196.044 196.988 196.446 196.933 196.818 197.046C199.388 197.829 203.129 199.471 205.998 201.907C208.863 204.339 211.132 207.831 209.896 212.155C208.803 215.981 206.443 219.772 204.009 222.914C201.564 226.069 198.97 228.666 197.303 230.111C197.035 230.344 196.685 230.459 196.331 230.433C195.977 230.407 195.649 230.241 195.418 229.971L191.57 225.482C191.319 225.19 191.207 224.803 191.263 224.422L195.111 198.129C195.167 197.744 195.388 197.404 195.716 197.196ZM197.516 200.102L193.989 224.208L196.55 227.196C198.05 225.784 200.021 223.709 201.901 221.281C204.245 218.257 206.374 214.779 207.333 211.423C208.149 208.564 206.784 206.071 204.273 203.939C202.254 202.225 199.671 200.919 197.516 200.102Z" fill="#3E3D3D"/>
<path d="M151.538 45.6919C125.673 45.4781 73.6845 45.1788 72.6584 45.6919C67.528 32.2245 77.1475 20.6812 90.6149 20.6812C101.389 20.6812 106.22 27.5217 107.289 30.942C107.93 29.0181 111.136 25.1703 118.832 25.1703C126.528 25.1703 130.162 32.8659 131.017 36.7137C131.658 35.2173 134.736 32.4811 141.919 33.5072C149.102 34.5333 151.325 42.0578 151.538 45.6919Z" fill="#F1F1F1"/>
<path d="M383.69 45.6919H291.342C288.777 41.8441 293.907 30.942 302.244 30.942C308.914 30.942 314.429 33.0796 316.353 34.1485C316.353 30.0869 318.918 21.9638 329.179 21.9638C339.44 21.9638 343.288 27.9492 343.929 30.942C344.356 26.2391 348.931 16.8333 363.809 16.8333C384.844 16.8333 385.827 36.0724 383.69 45.6919Z" fill="#F1F1F1"/>
<path d="M274.668 82.8873H173.984C161.158 67.4961 176.549 51.4636 189.375 51.4636C199.636 51.4636 206.904 56.1665 209.256 58.5179C209.683 55.7389 213.873 50.181 227.212 50.181C240.551 50.181 246.451 63.007 247.734 69.42C247.52 68.3512 249.786 66.2135 260.56 66.2135C271.334 66.2135 274.455 77.3294 274.668 82.8873Z" fill="#E5E5E5"/>
<path d="M20.0718 296.441C26.3812 286.516 30.7365 281.856 41.2347 276.56L47.6477 283.615C36.918 288.696 32.7431 292.774 28.4087 302.212L20.0718 296.441Z" fill="#F15846"/>
<path d="M467.059 186.137L466.417 177.8C474.819 174.185 479.492 174.399 487.58 179.724V188.061C479.697 183.879 475.184 183.405 467.059 186.137Z" fill="#F15846"/>
<path d="M55.3433 424.059L48.289 417.005C39.0978 424.896 37.2588 430.648 36.7456 442.016L47.6477 443.298C47.4973 434.975 49.2387 430.785 55.3433 424.059Z" fill="#53B3CC"/>
<path d="M272.744 132.909C275.846 123.673 275.697 118.929 272.744 111.105L283.005 109.822C286.503 119.589 286.387 125.065 283.005 134.833L272.744 132.909Z" fill="#53B3CC"/>
<path d="M466.417 241.289L459.363 249.626C471.361 254.002 475.008 259.306 477.961 272.071L487.58 267.582C485.091 252.316 480.786 246.289 466.417 241.289Z" fill="#53B3CC"/>
<path d="M41.8762 159.843L41.2349 151.507C51.113 149.874 55.9491 151.241 63.0391 157.92L57.2674 164.974C52.8824 159.683 49.5054 158.574 41.8762 159.843Z" fill="#FAC22F"/>
<path d="M408.7 328.506L402.287 336.843C411.613 340.666 414.372 344.591 415.755 354.158L424.733 350.31C423.793 338.455 420.82 333.337 408.7 328.506Z" fill="#FAC22F"/>
<path d="M388.179 104.05C406.648 103.537 406.563 90.5829 404.211 84.1699C392.026 70.7026 373.429 76.4743 367.657 80.9634C361.885 85.4525 362.527 89.3003 362.527 95.072C362.527 100.844 365.092 104.692 388.179 104.05Z" fill="#EFCB96"/>
<path fill-rule="evenodd" clip-rule="evenodd" d="M-0.5 479.852C-0.5 479.116 0.0967596 478.52 0.8329 478.52H510.667C511.403 478.52 512 479.116 512 479.852C512 480.589 511.403 481.185 510.667 481.185H0.8329C0.0967596 481.185 -0.5 480.589 -0.5 479.852Z" fill="#3E3D3D"/>
</g>
<defs>
<clipPath id="clip0_101_2337">
<rect width="512" height="512" fill="white"/>
</clipPath>
</defs>
</svg>
