<svg width="512" height="512" viewBox="0 0 512 512" fill="none" xmlns="http://www.w3.org/2000/svg">
<g clip-path="url(#clip0_101_2408)">
<path d="M129.068 343.446H179.1V465.317H129.068V343.446Z" fill="#F1F1F1"/>
<path d="M91.8655 150.376C88.2735 163.718 94.2174 172.185 97.6384 174.75C107.474 179.882 128.683 188.862 134.841 183.73C142.538 177.316 142.538 165.77 141.255 152.3C140.229 141.524 132.275 140.113 128.427 140.755C127.358 139.472 124.322 136.778 120.73 136.265C116.24 135.623 108.543 138.83 102.77 135.623C96.997 132.416 95.7141 127.285 91.2241 132.416C87.6321 136.521 90.1551 146.1 91.8655 150.376Z" fill="#3E3D3D"/>
<path d="M135.482 186.938C135.995 190.53 137.834 199.125 138.689 202.973C139.331 207.036 140.485 215.417 139.972 216.443C139.331 217.726 121.371 214.519 120.73 213.877C120.216 213.364 118.378 208.532 117.522 206.18L114.957 193.352C111.322 194.421 102.898 193.737 98.2796 182.447C92.5067 168.336 96.9967 159.997 98.2796 156.149C99.5624 152.3 107.259 151.659 114.956 151.018L114.957 151.018C122.654 150.376 122.012 158.073 123.937 162.563C125.861 167.053 125.219 170.26 126.502 168.336C127.785 166.412 128.427 161.28 132.275 164.488C136.124 167.695 133.558 172.185 133.558 174.75C133.558 176.803 134.841 183.73 135.482 186.938Z" fill="#EFCB96"/>
<path d="M70.4225 213.73L58.2041 245.942C57.6765 247.333 56.0806 247.985 54.7299 247.361L42.7152 241.816C41.4951 241.253 40.9162 239.844 41.388 238.586L53.1239 207.29C53.62 205.967 55.0923 205.294 56.4173 205.785L68.9147 210.414C70.2509 210.909 70.9278 212.397 70.4225 213.73Z" fill="#3E3D3D"/>
<path d="M68.1328 231.837C68.1328 233.377 71.9814 238.465 73.9056 240.817L70.6985 246.59L66.2085 249.156C65.3533 248.301 63.258 246.462 61.7185 245.949C60.1791 245.436 59.3666 244.024 59.1528 243.383L63.0014 233.12C62.7876 231.196 62.36 226.578 62.36 223.499C62.36 220.42 64.0704 219.65 64.9257 219.65C67.4914 222.857 68.1328 229.913 68.1328 231.837Z" fill="#EFCB96"/>
<path d="M351.002 180.523H386.922V292.131H351.002V180.523Z" fill="#F1F1F1"/>
<path d="M369.011 334.512C395.451 341.847 407.349 368.132 409.993 380.358C406.468 378.611 395.715 374.856 380.909 373.809C362.401 372.499 345.214 362.02 341.248 352.851C338.075 345.515 328.469 334.949 324.062 330.582C328.028 328.836 342.57 327.177 369.011 334.512Z" fill="#FAC22F"/>
<path d="M420.57 266.399C437.491 293.644 427.62 327.526 420.57 341.062C420.57 338.878 416.868 331.368 402.061 318.794C383.553 303.075 380.909 280.807 376.943 262.469C373.77 247.798 364.163 233.652 359.757 228.412C372.977 229.722 403.648 239.153 420.57 266.399Z" fill="#FAC22F"/>
<path d="M453.62 320.104C436.698 327.439 429.824 352.851 428.502 364.639C454.394 367.259 464.196 352.851 468.163 341.062C471.335 331.631 488.874 326.653 497.247 325.343C489.756 320.54 470.542 312.768 453.62 320.104Z" fill="#FAC22F"/>
<path fill-rule="evenodd" clip-rule="evenodd" d="M377.531 240.731C382.38 245.853 391.33 257.462 399.962 273.618C404.195 281.539 408.347 290.544 411.899 300.401L386.861 291.922L386.038 294.352L412.978 303.475C413.506 305.022 414.018 306.588 414.513 308.173C419.774 325.02 420.888 345.942 420.114 365.324C419.754 374.333 418.987 382.984 418.048 390.705C417.602 392.354 417.203 393.967 416.847 395.534C415.257 387.4 411.381 378.307 403.299 370.796C400.238 367.953 397.211 365.601 394.224 363.596L390.354 348.765L387.871 349.413L391.046 361.578C385.657 358.341 380.406 356.077 375.416 353.925C373.919 353.28 372.446 352.644 370.999 351.996C364.474 349.071 358.401 345.849 352.744 340.189L350.93 342.002C356.071 347.148 361.525 350.364 367.165 353.053L352.712 358.547L353.624 360.945L370.435 354.554C371.782 355.153 373.133 355.736 374.491 356.322C380.309 358.832 386.249 361.394 392.398 365.463C395.407 367.453 398.46 369.802 401.552 372.676C412.109 382.486 415.059 395.213 415.216 404.375C414.757 407.635 414.518 410.547 414.456 413.001L416.99 413.312C417.027 413.147 417.063 412.978 417.098 412.803C418.256 407.272 419.52 399.81 420.573 391.198C423.79 379.389 429.485 365.621 438.848 352.916L458.587 349.015L458.089 346.498L441.21 349.834C445.226 344.792 449.852 339.964 455.165 335.546C456.846 334.147 458.597 332.79 460.418 331.48L458.92 329.397C458.057 330.018 457.209 330.649 456.376 331.29L458.26 322.72L455.754 322.17L453.185 333.856C446.914 339.12 441.588 344.935 437.083 350.987C430.262 360.153 425.319 369.872 421.825 379.068C422.196 374.667 422.491 370.094 422.678 365.426C423.457 345.93 422.352 324.666 416.963 307.408C416.396 305.595 415.808 303.806 415.199 302.044C411.47 291.235 407.003 281.394 402.434 272.801L406.351 250.731L403.824 250.282L400.469 269.19C392.304 254.532 384.087 243.924 379.394 238.967L377.531 240.731Z" fill="#E9B11D"/>
<path d="M452.522 401.077C452.845 398.762 451.048 396.696 448.71 396.696H383.935C381.633 396.696 379.846 398.703 380.112 400.99L387.207 461.913C387.433 463.853 389.077 465.316 391.03 465.316H440.196C442.116 465.316 443.742 463.902 444.008 462.001L452.522 401.077Z" fill="#F1F1F1"/>
<path d="M140.614 193.352L164.347 186.937L161.781 336.39C144.847 319.969 126.93 282.082 120.088 265.191C118.378 267.971 114.7 274.3 113.674 277.379C112.391 281.227 105.335 288.924 96.9969 285.076C90.3261 281.997 72.4089 261.984 64.2842 252.363C66.3367 246.205 72.4089 239.962 75.1884 237.61C77.241 240.176 88.4446 249.37 93.7898 253.646C94.645 245.307 96.8687 227.091 98.9212 220.933C100.974 214.775 110.467 205.966 114.957 202.332C115.171 204.47 118.036 208.618 127.785 208.105C137.535 207.591 140.4 198.055 140.614 193.352Z" fill="#53B3CC"/>
<path fill-rule="evenodd" clip-rule="evenodd" d="M-0.5 465.317C-0.5 464.608 0.0743531 464.034 0.782854 464.034H510.717C511.426 464.034 512 464.608 512 465.317C512 466.025 511.426 466.599 510.717 466.599H0.782854C0.0743531 466.599 -0.5 466.025 -0.5 465.317Z" fill="#3E3D3D"/>
<path d="M159.856 130.492C159.856 120.573 167.897 112.532 177.816 112.532H333.042C342.961 112.532 351.002 120.573 351.002 130.492V447.357C351.002 457.276 342.961 465.317 333.042 465.317H177.816C167.897 465.317 159.856 457.276 159.856 447.357V130.492Z" fill="#E5E5E5"/>
<path fill-rule="evenodd" clip-rule="evenodd" d="M158.574 130.492C158.574 119.864 167.189 111.249 177.817 111.249H333.042C343.669 111.249 352.285 119.864 352.285 130.492V447.357C352.285 457.984 343.669 466.599 333.042 466.599H177.817C167.189 466.599 158.574 457.984 158.574 447.357V130.492ZM177.817 113.815C168.606 113.815 161.139 121.281 161.139 130.492V447.357C161.139 456.567 168.606 464.034 177.817 464.034H333.042C342.252 464.034 349.719 456.567 349.719 447.357V130.492C349.719 121.281 342.252 113.815 333.042 113.815H177.817Z" fill="#3E3D3D"/>
<path d="M166.271 131.775C166.271 124.69 172.015 118.946 179.1 118.946H331.759C338.844 118.946 344.588 124.69 344.588 131.775V437.094C344.588 444.179 338.844 449.922 331.759 449.922H179.1C172.015 449.922 166.271 444.179 166.271 437.094V131.775Z" fill="white"/>
<path d="M217.585 118.946H297.122L294.696 125.794C293.426 129.379 290.035 131.775 286.231 131.775H228.475C224.672 131.775 221.281 129.379 220.011 125.794L217.585 118.946Z" fill="#E5E5E5"/>
<path d="M166.271 166.412H344.588V239.534H166.271V166.412Z" fill="#F1F1F1"/>
<path d="M209.888 202.973C209.888 211.829 202.708 219.009 193.852 219.009C184.996 219.009 177.816 211.829 177.816 202.973C177.816 194.117 184.996 186.937 193.852 186.937C202.708 186.937 209.888 194.117 209.888 202.973Z" fill="#53B3CC"/>
<path d="M256.071 202.973C256.071 211.829 248.891 219.009 240.035 219.009C231.179 219.009 224 211.829 224 202.973C224 194.117 231.179 186.937 240.035 186.937C248.891 186.937 256.071 194.117 256.071 202.973Z" fill="white"/>
<path d="M302.253 202.973C302.253 211.829 295.074 219.009 286.218 219.009C277.362 219.009 270.182 211.829 270.182 202.973C270.182 194.117 277.362 186.937 286.218 186.937C295.074 186.937 302.253 194.117 302.253 202.973Z" fill="white"/>
<path d="M316.365 202.973C316.365 211.829 323.544 219.009 332.4 219.009C337.353 219.009 341.781 216.764 344.722 213.236V192.71C341.781 189.182 337.353 186.937 332.4 186.937C323.544 186.937 316.365 194.117 316.365 202.973Z" fill="white"/>
<path fill-rule="evenodd" clip-rule="evenodd" d="M238.111 152.942H185.514V149.093H238.111V152.942Z" fill="#53B3CC"/>
<path d="M166.271 410.154H344.588V437.094C344.588 444.179 338.844 449.922 331.759 449.922H179.1C172.015 449.922 166.271 444.179 166.271 437.094V410.154Z" fill="#F1F1F1"/>
<path d="M315.082 419.257L329.193 419.134L329.382 440.942L322.277 435.23L315.272 441.064L315.082 419.257Z" fill="white"/>
<path fill-rule="evenodd" clip-rule="evenodd" d="M179.985 431.805C177.37 429.108 177.437 424.802 180.134 422.188C182.831 419.573 187.136 419.64 189.751 422.336C192.448 419.722 196.753 419.789 199.368 422.486C201.982 425.182 201.916 429.488 199.219 432.103L199.219 432.103L189.453 441.571L189.453 441.571L189.453 441.571L179.985 431.805L179.985 431.805Z" fill="#F15846"/>
<path fill-rule="evenodd" clip-rule="evenodd" d="M90.5826 351.784C93.0624 351.784 95.0726 353.794 95.0726 356.274V359.752C104.374 360.291 111.75 368.005 111.75 377.441H102.77C102.77 372.615 98.8569 368.702 94.0303 368.702H88.0169C82.7032 368.702 78.3955 373.009 78.3955 378.323C78.3955 383.637 82.7032 387.945 88.0169 387.945H94.0303C103.816 387.945 111.75 395.878 111.75 405.664C111.75 415.1 104.374 422.814 95.0726 423.353V426.831C95.0726 429.311 93.0624 431.321 90.5826 431.321C88.1029 431.321 86.0926 429.311 86.0926 426.831V423.383H85.371C76.559 423.383 69.4155 416.24 69.4155 407.428H78.3955C78.3955 411.28 81.5185 414.403 85.371 414.403H94.0303C98.8569 414.403 102.77 410.491 102.77 405.664C102.77 400.837 98.8569 396.925 94.0303 396.925H88.0169C77.7436 396.925 69.4155 388.596 69.4155 378.323C69.4155 368.7 76.7235 360.783 86.0926 359.82V356.274C86.0926 353.794 88.1029 351.784 90.5826 351.784Z" fill="#F15846"/>
<path fill-rule="evenodd" clip-rule="evenodd" d="M386.922 107.4C388.339 107.4 389.488 108.549 389.488 109.966V112.166C395.177 112.294 399.75 116.946 399.75 122.666H394.619C394.619 119.7 392.214 117.295 389.247 117.295H385.126C381.867 117.295 379.225 119.937 379.225 123.196C379.225 126.455 381.867 129.097 385.126 129.097H389.247C395.048 129.097 399.75 133.799 399.75 139.6C399.75 145.321 395.177 149.973 389.488 150.101V152.3C389.488 153.717 388.339 154.866 386.922 154.866C385.505 154.866 384.356 153.717 384.356 152.3V150.103H383.538C378.322 150.103 374.093 145.875 374.093 140.658H379.225C379.225 143.041 381.156 144.972 383.538 144.972H389.247C392.214 144.972 394.619 142.567 394.619 139.6C394.619 136.633 392.214 134.228 389.247 134.228H385.126C379.033 134.228 374.093 129.289 374.093 123.196C374.093 117.361 378.622 112.585 384.356 112.19V109.966C384.356 108.549 385.505 107.4 386.922 107.4Z" fill="#E5E5E5"/>
<path fill-rule="evenodd" clip-rule="evenodd" d="M184.872 251.08C185.581 251.08 186.155 251.654 186.155 252.363V253.389H186.796C189.63 253.389 191.928 255.687 191.928 258.521H189.362C189.362 257.104 188.213 255.955 186.796 255.955H183.204C181.646 255.955 180.382 257.219 180.382 258.777C180.382 260.336 181.646 261.599 183.204 261.599H186.796C189.63 261.599 191.928 263.897 191.928 266.731C191.928 269.565 189.63 271.862 186.796 271.862H186.155V272.889C186.155 273.597 185.581 274.171 184.872 274.171C184.164 274.171 183.589 273.597 183.589 272.889V271.862H182.435C179.884 271.862 177.816 269.795 177.816 267.244H180.382C180.382 268.378 181.301 269.297 182.435 269.297H186.796C188.213 269.297 189.362 268.148 189.362 266.731C189.362 265.314 188.213 264.165 186.796 264.165H183.204C180.229 264.165 177.816 261.753 177.816 258.777C177.816 255.802 180.229 253.389 183.204 253.389H183.589V252.363C183.589 251.654 184.164 251.08 184.872 251.08Z" fill="#3E3D3D"/>
<path d="M270.587 268.764C256.543 266.941 241.572 268.004 236.606 268.763V284.012L243.522 291.417L275.441 281.733L270.587 268.764Z" fill="#46A4BC"/>
<path d="M213.282 278.647L236.96 268.764C238.034 273.023 242.974 281.541 254.144 281.541C265.314 281.541 269.181 273.023 269.718 268.764L299.615 278.782C304.724 280.494 308.566 284.754 309.745 290.012L317.512 324.663L296.032 327.857V389.175C296.032 390.592 294.883 391.741 293.466 391.741H217.508C216.091 391.741 214.942 390.592 214.942 389.175V327.857L194.535 324.663L204.365 288.786C205.617 284.213 208.907 280.473 213.282 278.647Z" fill="#53B3CC"/>
</g>
<defs>
<clipPath id="clip0_101_2408">
<rect width="512" height="512" fill="white"/>
</clipPath>
</defs>
</svg>
