<svg width="512" height="512" viewBox="0 0 512 512" fill="none" xmlns="http://www.w3.org/2000/svg">
<g clip-path="url(#clip0_101_2686)">
<path d="M34.1372 401.042H130.351V443.377H34.1372V401.042Z" fill="#F1F1F1"/>
<path d="M377.942 401.042H461.327V443.377H377.942V401.042Z" fill="#F1F1F1"/>
<path d="M57.2285 294.566H66.2085V438.245H57.2285V294.566Z" fill="#E5E5E5"/>
<path d="M52.0972 395.911C52.0972 393.786 53.8202 392.062 55.9457 392.062H67.4914C69.6169 392.062 71.34 393.786 71.34 395.911V443.377H52.0972V395.911Z" fill="#3E3D3D"/>
<path d="M461.328 433.997C431.985 422.15 405.485 435.314 395.902 443.377H438.032C444.376 439.033 456.206 435.314 461.328 433.997Z" fill="#FAC22F"/>
<path d="M417.693 396.424C400.464 410.964 389.145 433.448 385.639 443.377L396.658 443.376L404.17 439.338C415.689 432.269 432.217 418.133 440.231 404.502C446.641 393.597 455.256 383.129 458.762 379.259C452.251 378.922 434.922 381.884 417.693 396.424Z" fill="#FAC22F"/>
<path d="M393.978 379.876C381.637 399.833 378.588 426.294 379.417 442.094H386.384C391.858 436.606 404.186 417.151 410.655 401.684C415.83 389.31 420.276 367.047 433.105 358.708C426.802 353.053 406.319 359.919 393.978 379.876Z" fill="#FAC22F"/>
<path fill-rule="evenodd" clip-rule="evenodd" d="M391.518 406.411C386.085 420.792 382.991 434.728 381.803 443.199L384.344 443.555C385.506 435.262 388.556 421.512 393.918 407.318C399.287 393.107 406.927 378.578 417.207 368.61L415.42 366.768C404.749 377.116 396.944 392.048 391.518 406.411ZM409.783 414.433C400.099 425.171 392.029 435.975 387.548 442.663L389.679 444.091C394.096 437.5 402.091 426.793 411.688 416.152C421.299 405.495 432.443 394.988 443.151 388.713L441.854 386.5C430.806 392.973 419.453 403.711 409.783 414.433ZM451.149 431.64C426.689 430.028 404.962 438.007 397.072 442.247L398.286 444.507C405.841 440.448 427.091 432.625 450.98 434.2L451.149 431.64Z" fill="#E9B11D"/>
<path d="M125.22 257.363H134.2V443.377H125.22V257.363Z" fill="#F1F1F1"/>
<path fill-rule="evenodd" clip-rule="evenodd" d="M-0.5 443.377C-0.5 442.668 0.0743531 442.094 0.782854 442.094H510.717C511.426 442.094 512 442.668 512 443.377C512 444.085 511.426 444.659 510.717 444.659H0.782854C0.0743531 444.659 -0.5 444.085 -0.5 443.377Z" fill="#F1F1F1"/>
<path fill-rule="evenodd" clip-rule="evenodd" d="M27.7227 458.13V444.019H30.2884V458.13H27.7227Z" fill="#F1F1F1"/>
<path fill-rule="evenodd" clip-rule="evenodd" d="M65.5669 458.129V444.018H68.1326V458.129H65.5669Z" fill="#F1F1F1"/>
<path fill-rule="evenodd" clip-rule="evenodd" d="M103.411 458.129V444.018H105.977V458.129H103.411Z" fill="#F1F1F1"/>
<path fill-rule="evenodd" clip-rule="evenodd" d="M141.255 458.129V444.018H143.821V458.129H141.255Z" fill="#F1F1F1"/>
<path fill-rule="evenodd" clip-rule="evenodd" d="M179.1 458.129V444.018H181.665V458.129H179.1Z" fill="#F1F1F1"/>
<path fill-rule="evenodd" clip-rule="evenodd" d="M216.944 458.129V444.018H219.51V458.129H216.944Z" fill="#F1F1F1"/>
<path fill-rule="evenodd" clip-rule="evenodd" d="M254.788 458.129V444.018H257.354V458.129H254.788Z" fill="#F1F1F1"/>
<path fill-rule="evenodd" clip-rule="evenodd" d="M292.632 458.129V444.018H295.198V458.129H292.632Z" fill="#F1F1F1"/>
<path fill-rule="evenodd" clip-rule="evenodd" d="M330.476 458.129V444.018H333.042V458.129H330.476Z" fill="#F1F1F1"/>
<path fill-rule="evenodd" clip-rule="evenodd" d="M368.32 458.129V444.018H370.886V458.129H368.32Z" fill="#F1F1F1"/>
<path fill-rule="evenodd" clip-rule="evenodd" d="M406.165 458.129V444.018H408.73V458.129H406.165Z" fill="#F1F1F1"/>
<path fill-rule="evenodd" clip-rule="evenodd" d="M444.009 458.129V444.018H446.574V458.129H444.009Z" fill="#F1F1F1"/>
<path fill-rule="evenodd" clip-rule="evenodd" d="M481.853 458.129V444.018H484.419V458.129H481.853Z" fill="#F1F1F1"/>
<path d="M372.811 257.363H381.791V443.377H372.811V257.363Z" fill="#F1F1F1"/>
<path d="M143.18 313.809C143.18 311.683 144.903 309.96 147.028 309.96H208.605C210.731 309.96 212.454 311.683 212.454 313.809V388.214C212.454 390.34 210.731 392.063 208.605 392.063H147.028C144.903 392.063 143.18 390.34 143.18 388.214V313.809Z" fill="#F1F1F1"/>
<path d="M220.151 313.809C220.151 311.683 221.874 309.96 223.999 309.96H285.576C287.702 309.96 289.425 311.683 289.425 313.809V388.214C289.425 390.34 287.702 392.063 285.576 392.063H223.999C221.874 392.063 220.151 390.34 220.151 388.214V313.809Z" fill="#F1F1F1"/>
<path d="M297.122 313.809C297.122 311.683 298.845 309.96 300.971 309.96H362.548C364.673 309.96 366.396 311.683 366.396 313.809V388.214C366.396 390.34 364.673 392.063 362.548 392.063H300.971C298.845 392.063 297.122 390.34 297.122 388.214V313.809Z" fill="#F1F1F1"/>
<path fill-rule="evenodd" clip-rule="evenodd" d="M-0.5 458.771C-0.5 458.062 0.0743531 457.488 0.782854 457.488H510.717C511.426 457.488 512 458.062 512 458.771C512 459.479 511.426 460.054 510.717 460.054H0.782854C0.0743531 460.054 -0.5 459.479 -0.5 458.771Z" fill="#3E3D3D"/>
<path d="M327.739 173.753C322.197 181.121 327.561 184.047 330.936 184.588C347.279 185.491 381.244 186.539 386.36 183.505C392.754 179.713 387.958 174.837 384.228 172.669C380.497 170.502 379.432 158.583 367.175 158.583C354.918 158.583 349.055 173.753 344.792 172.669C340.529 171.586 334.667 164.543 327.739 173.753Z" fill="#F1F1F1"/>
<path d="M130.44 186.246C124.182 193.741 130.44 197.176 134.352 197.957C152.606 198.477 190.522 198.894 196.155 196.395C203.196 193.272 202.414 186.246 193.808 183.904C185.203 181.561 185.203 171.412 172.686 171.412C160.168 171.412 156.257 183.904 150.781 184.684C145.304 185.465 138.263 176.877 130.44 186.246Z" fill="#F1F1F1"/>
<path d="M243.31 208.688C240.126 212.614 243.31 214.413 245.3 214.822C254.588 215.095 273.878 215.313 276.744 214.004C280.326 212.368 279.928 208.688 275.55 207.461C271.172 206.234 271.172 200.917 264.804 200.917C258.435 200.917 256.445 207.461 253.659 207.87C250.873 208.279 247.291 203.78 243.31 208.688Z" fill="#E5E5E5"/>
<path d="M256.071 143.83C256.071 154.812 247.168 163.715 236.186 163.715C225.205 163.715 216.302 154.812 216.302 143.83C216.302 132.849 225.205 123.946 236.186 123.946C247.168 123.946 256.071 132.849 256.071 143.83Z" fill="#FAC22F"/>
<path d="M94.4312 245.817C94.4312 243.692 96.1542 241.969 98.2797 241.969H415.145C417.27 241.969 418.993 243.692 418.993 245.817V256.08C418.993 258.206 417.27 259.929 415.145 259.929H98.2797C96.1542 259.929 94.4312 258.206 94.4312 256.08V245.817Z" fill="#F15846"/>
<path d="M45.6578 265.596C45.3322 263.28 47.1302 261.212 49.4689 261.212H73.9678C76.3065 261.212 78.1045 263.28 77.7789 265.596L73.0884 298.95C72.8213 300.85 71.1958 302.263 69.2774 302.263H54.1593C52.2409 302.263 50.6154 300.85 50.3483 298.95L45.6578 265.596Z" fill="white"/>
<path fill-rule="evenodd" clip-rule="evenodd" d="M44.3874 265.775C43.9531 262.687 46.3506 259.929 49.4688 259.929H73.9677C77.0859 259.929 79.4833 262.687 79.0491 265.775L74.3587 299.129C74.0025 301.662 71.8352 303.546 69.2773 303.546H54.1592C51.6013 303.546 49.434 301.662 49.0778 299.129L44.3874 265.775ZM49.4688 262.494C47.9097 262.494 46.711 263.874 46.9281 265.417L51.6185 298.772C51.7966 300.038 52.8803 300.98 54.1592 300.98H69.2773C70.5562 300.98 71.6399 300.038 71.818 298.772L76.5084 265.417C76.7255 263.874 75.5268 262.494 73.9677 262.494H49.4688Z" fill="#3E3D3D"/>
<path d="M185.514 432.472C185.514 446.997 173.74 458.771 159.215 458.771C144.691 458.771 132.917 446.997 132.917 432.472C132.917 417.948 144.691 406.174 159.215 406.174C173.74 406.174 185.514 417.948 185.514 432.472Z" fill="#3E3D3D"/>
<path d="M175.251 433.114C175.251 441.616 168.072 448.508 159.215 448.508C150.359 448.508 143.18 441.616 143.18 433.114C143.18 424.612 150.359 417.72 159.215 417.72C168.072 417.72 175.251 424.612 175.251 433.114Z" fill="white"/>
<path d="M338.815 401.042C321.457 401.042 307.385 415.114 307.385 432.472H190.645C190.645 415.114 176.574 401.042 159.215 401.042C141.857 401.042 127.786 415.114 127.786 432.472H98.9213C96.7958 432.472 95.0728 430.749 95.0728 428.624V413.801C95.0728 394.4 108.656 377.647 127.639 373.637L176.403 363.334C182.627 362.019 188.033 358.195 191.345 352.763L204.352 331.432C212.969 317.3 228.326 308.677 244.878 308.677H303.882C319.534 308.677 333.986 317.064 341.752 330.654L359.827 362.285C361.587 365.365 364.356 367.742 367.666 369.016L389.323 377.345C393.287 378.869 395.902 382.677 395.902 386.924V428.624C395.902 430.749 394.179 432.472 392.053 432.472H370.245C370.245 415.114 356.173 401.042 338.815 401.042Z" fill="#53B3CC"/>
<path d="M365.113 432.472C365.113 446.997 353.339 458.771 338.815 458.771C324.29 458.771 312.516 446.997 312.516 432.472C312.516 417.948 324.29 406.174 338.815 406.174C353.339 406.174 365.113 417.948 365.113 432.472Z" fill="#3E3D3D"/>
<path d="M354.85 433.114C354.85 441.616 347.671 448.508 338.814 448.508C329.958 448.508 322.779 441.616 322.779 433.114C322.779 424.612 329.958 417.72 338.814 417.72C347.671 417.72 354.85 424.612 354.85 433.114Z" fill="white"/>
<path d="M106.004 413.23H95.0728C95.0728 403.993 98.0661 398.263 99.5627 396.552H117.442C118.378 396.552 118.999 397.523 118.607 398.373L114.158 408.013C112.69 411.193 109.507 413.23 106.004 413.23Z" fill="white"/>
<path d="M387.563 396.552H395.902V413.23H387.563C385.438 413.23 383.715 411.507 383.715 409.381V400.401C383.715 398.276 385.438 396.552 387.563 396.552Z" fill="#F15846"/>
<path d="M204.101 363.84H268.258C270.383 363.84 272.106 362.117 272.106 359.991V322.789C272.106 320.663 270.383 318.94 268.258 318.94H246.513C233.76 318.94 221.963 325.702 215.518 336.706L201.887 359.977C200.886 361.688 202.119 363.84 204.101 363.84Z" fill="white"/>
<path fill-rule="evenodd" clip-rule="evenodd" d="M246.513 320.223C234.215 320.223 222.84 326.743 216.625 337.354L202.994 360.626C202.494 361.481 203.11 362.557 204.101 362.557H268.258C269.675 362.557 270.824 361.408 270.824 359.991V322.788C270.824 321.371 269.675 320.223 268.258 320.223H246.513ZM214.411 336.057C221.087 324.66 233.305 317.657 246.513 317.657H268.258C271.092 317.657 273.389 319.954 273.389 322.788V359.991C273.389 362.825 271.092 365.123 268.258 365.123H204.101C201.128 365.123 199.278 361.895 200.781 359.329L214.411 336.057Z" fill="#3E3D3D"/>
<path d="M341.504 363.84H288.783C286.658 363.84 284.935 362.117 284.935 359.991V322.789C284.935 320.663 286.658 318.94 288.783 318.94H299.749C312.778 318.94 324.786 325.996 331.127 337.378L343.745 360.025C344.698 361.736 343.462 363.84 341.504 363.84Z" fill="white"/>
<path fill-rule="evenodd" clip-rule="evenodd" d="M299.749 320.223C312.313 320.223 323.891 327.026 330.006 338.002L342.624 360.65C343.101 361.505 342.483 362.557 341.504 362.557H288.783C287.366 362.557 286.218 361.408 286.218 359.991V322.788C286.218 321.371 287.366 320.223 288.783 320.223H299.749ZM332.248 336.753C325.68 324.965 313.243 317.657 299.749 317.657H288.783C285.949 317.657 283.652 319.954 283.652 322.788V359.991C283.652 362.825 285.949 365.123 288.783 365.123H341.504C344.44 365.123 346.295 361.966 344.866 359.401L332.248 336.753Z" fill="#3E3D3D"/>
<path d="M261.543 291.918L255.429 308.036H287.501L281.387 291.918C280.82 290.423 279.387 289.434 277.789 289.434H265.141C263.542 289.434 262.11 290.423 261.543 291.918Z" fill="#FAC22F"/>
<path d="M207.322 398.477C207.322 397.768 207.897 397.194 208.605 397.194H217.585C218.294 397.194 218.868 397.768 218.868 398.477V407.457C218.868 408.165 218.294 408.74 217.585 408.74H208.605C207.897 408.74 207.322 408.165 207.322 407.457V398.477Z" fill="#3E3D3D"/>
<path d="M218.868 386.931C218.868 386.223 219.443 385.648 220.151 385.648H229.131C229.839 385.648 230.414 386.223 230.414 386.931V395.911C230.414 396.62 229.839 397.194 229.131 397.194H220.151C219.443 397.194 218.868 396.62 218.868 395.911V386.931Z" fill="#3E3D3D"/>
<path d="M218.868 410.022C218.868 409.314 219.443 408.74 220.151 408.74H229.131C229.839 408.74 230.414 409.314 230.414 410.022V419.002C230.414 419.711 229.839 420.285 229.131 420.285H220.151C219.443 420.285 218.868 419.711 218.868 419.002V410.022Z" fill="#3E3D3D"/>
<path d="M230.414 398.477C230.414 397.768 230.988 397.194 231.696 397.194H240.676C241.385 397.194 241.959 397.768 241.959 398.477V407.457C241.959 408.165 241.385 408.74 240.676 408.74H231.696C230.988 408.74 230.414 408.165 230.414 407.457V398.477Z" fill="#3E3D3D"/>
<path d="M241.959 386.931C241.959 386.223 242.534 385.648 243.242 385.648H252.222C252.931 385.648 253.505 386.223 253.505 386.931V395.911C253.505 396.62 252.931 397.194 252.222 397.194H243.242C242.534 397.194 241.959 396.62 241.959 395.911V386.931Z" fill="#3E3D3D"/>
<path d="M241.959 410.022C241.959 409.314 242.534 408.74 243.242 408.74H252.222C252.931 408.74 253.505 409.314 253.505 410.022V419.002C253.505 419.711 252.931 420.285 252.222 420.285H243.242C242.534 420.285 241.959 419.711 241.959 419.002V410.022Z" fill="#3E3D3D"/>
<path d="M253.505 398.477C253.505 397.768 254.079 397.194 254.788 397.194H263.768C264.476 397.194 265.051 397.768 265.051 398.477V407.457C265.051 408.165 264.476 408.74 263.768 408.74H254.788C254.079 408.74 253.505 408.165 253.505 407.457V398.477Z" fill="#3E3D3D"/>
<path d="M265.051 386.931C265.051 386.223 265.625 385.648 266.334 385.648H275.314C276.022 385.648 276.596 386.223 276.596 386.931V395.911C276.596 396.62 276.022 397.194 275.314 397.194H266.334C265.625 397.194 265.051 396.62 265.051 395.911V386.931Z" fill="#3E3D3D"/>
<path d="M265.051 410.022C265.051 409.314 265.625 408.74 266.334 408.74H275.314C276.022 408.74 276.596 409.314 276.596 410.022V419.002C276.596 419.711 276.022 420.285 275.314 420.285H266.334C265.625 420.285 265.051 419.711 265.051 419.002V410.022Z" fill="#3E3D3D"/>
<path d="M276.596 398.477C276.596 397.768 277.171 397.194 277.879 397.194H286.859C287.568 397.194 288.142 397.768 288.142 398.477V407.457C288.142 408.165 287.568 408.74 286.859 408.74H277.879C277.171 408.74 276.596 408.165 276.596 407.457V398.477Z" fill="#3E3D3D"/>
<path d="M288.142 386.931C288.142 386.223 288.716 385.648 289.425 385.648H298.405C299.113 385.648 299.688 386.223 299.688 386.931V395.911C299.688 396.62 299.113 397.194 298.405 397.194H289.425C288.716 397.194 288.142 396.62 288.142 395.911V386.931Z" fill="#3E3D3D"/>
<path d="M288.142 410.022C288.142 409.314 288.716 408.74 289.425 408.74H298.405C299.113 408.74 299.688 409.314 299.688 410.022V419.002C299.688 419.711 299.113 420.285 298.405 420.285H289.425C288.716 420.285 288.142 419.711 288.142 419.002V410.022Z" fill="#3E3D3D"/>
<path d="M299.688 398.477C299.688 397.768 300.262 397.194 300.97 397.194H309.95C310.659 397.194 311.233 397.768 311.233 398.477V407.457C311.233 408.165 310.659 408.74 309.95 408.74H300.97C300.262 408.74 299.688 408.165 299.688 407.457V398.477Z" fill="#3E3D3D"/>
<path d="M289.322 362.557H296.481L318.244 325.726C314.513 322.944 309.878 321.753 308.026 321.506L287.086 358.733C286.124 360.444 287.36 362.557 289.322 362.557Z" fill="#F1F1F1"/>
<path d="M300.971 362.557H304.819L324.163 329.844L321.496 327.92L300.971 362.557Z" fill="#F1F1F1"/>
<path d="M245.808 320.223L218.868 362.557H231.055L258.637 320.223H245.808Z" fill="#F1F1F1"/>
<path d="M263.127 320.223L235.545 362.557H239.394L266.975 320.223H263.127Z" fill="#F1F1F1"/>
</g>
<defs>
<clipPath id="clip0_101_2686">
<rect width="512" height="512" fill="white"/>
</clipPath>
</defs>
</svg>
