<svg width="512" height="512" viewBox="0 0 512 512" fill="none" xmlns="http://www.w3.org/2000/svg">
<g clip-path="url(#clip0_101_2552)">
<path fill-rule="evenodd" clip-rule="evenodd" d="M307.288 285.14H449.417V455.439H307.288V285.14ZM309.848 287.701V452.878H446.856V287.701H309.848Z" fill="#F1F1F1"/>
<path d="M308.568 328.675H448.137V454.159H308.568V328.675Z" fill="#F1F1F1"/>
<path d="M311.129 151.334C311.129 173.61 293.071 191.668 270.795 191.668C248.519 191.668 230.461 173.61 230.461 151.334C230.461 129.058 248.519 111 270.795 111C293.071 111 311.129 129.058 311.129 151.334Z" fill="#53B3CC"/>
<path d="M190.127 274.257C190.127 279.983 194.395 283.86 197.17 285.14L219.577 274.257L245.186 249.928C248.601 249.928 257.094 249.416 263.753 247.367C272.075 244.806 278.478 228.801 275.277 223.679C272.075 218.558 260.551 221.758 253.509 220.478C246.467 219.197 239.424 210.875 226.62 211.515C216.376 212.027 212.108 219.838 211.254 223.679C210.614 222.826 208.181 221.63 203.572 223.679C197.81 226.24 197.17 231.362 192.048 239.044C186.926 246.727 190.127 266.574 190.127 274.257Z" fill="#3E3D3D"/>
<path d="M195.889 290.262C194.865 294.359 192.475 299.652 191.407 301.786C190.127 304.56 187.438 310.365 186.926 311.39C186.414 312.414 190.127 320.78 192.048 324.834C202.291 324.621 223.291 324.194 225.339 324.194C227.9 324.194 244.546 315.231 244.546 313.951C244.546 312.926 237.29 303.494 233.662 299.866C231.315 300.293 229.565 299.61 228.54 298.585C227.516 297.561 227.687 295.384 228.54 292.823C243.906 292.183 245.826 288.982 250.308 282.58C254.79 276.177 257.991 251.849 256.07 246.087C254.149 240.325 231.101 237.764 229.181 241.605C227.26 245.447 222.138 249.288 220.858 254.41C219.833 258.507 218.297 267.214 216.376 265.934C215.949 264.867 215.096 261.068 215.096 254.41C215.096 246.087 206.133 250.568 204.212 256.971C202.291 263.373 208.776 268.057 207.413 268.495C205.771 269.022 199.984 277.247 198.45 281.299C198.237 283.006 196.913 286.165 195.889 290.262Z" fill="#EFCB96"/>
<path d="M74.8871 343.4C77.9602 367.985 81.7162 429.617 83.21 457.36H128.666C148.726 429.19 188.719 367.601 188.206 346.601C187.566 320.352 181.804 278.738 178.603 275.537C175.402 272.336 108.819 283.22 88.972 287.061C69.1251 290.902 71.0458 312.67 74.8871 343.4Z" fill="#F1F1F1"/>
<path fill-rule="evenodd" clip-rule="evenodd" d="M98.0954 312.24C94.0755 309.507 89.2195 307.342 85.9829 306.194L86.8393 303.78C90.2183 304.979 95.2857 307.233 99.5354 310.122C101.66 311.567 103.63 313.204 105.081 314.989C105.882 315.975 106.55 317.037 106.986 318.161C110.237 314.803 116.412 310.347 124.69 309.476C134.386 308.455 144.044 306.923 147.65 306.287L148.095 308.809C144.445 309.453 134.726 310.994 124.958 312.023C116.027 312.963 109.763 318.526 107.541 321.412C107.64 330.467 110.549 397.453 112.019 430.413L109.46 430.528C107.968 397.052 104.978 328.201 104.978 320.993C104.978 319.603 104.334 318.131 103.094 316.604C101.857 315.083 100.106 313.607 98.0954 312.24Z" fill="white"/>
<path d="M139.287 328.035C124.434 350.059 106.258 421.08 99.2158 457.36H334.177V420.227L305.725 414.431C302.048 413.682 299.241 410.727 298.553 407.037C292.126 372.588 273.509 315.421 265.673 308.188C259.015 302.042 241.772 298.158 233.662 297.945C234.089 304.134 230.077 318.432 213.175 318.432C196.273 318.432 191.572 305.841 191.145 297.945C180.048 298.798 154.14 306.011 139.287 328.035Z" fill="#53B3CC"/>
<path d="M259.911 449.037H444.295V456.72H259.911V449.037Z" fill="#F1F1F1"/>
<path fill-rule="evenodd" clip-rule="evenodd" d="M258.631 447.756H445.576V458H258.631V447.756ZM261.192 450.317V455.439H443.015V450.317H261.192Z" fill="#3E3D3D"/>
<path d="M313.69 449.037H444.295V456.72H313.69V449.037Z" fill="#E5E5E5"/>
<path fill-rule="evenodd" clip-rule="evenodd" d="M312.41 447.756H445.576V458H312.41V447.756ZM314.971 450.317V455.439H443.015V450.317H314.971Z" fill="#3E3D3D"/>
<path d="M347.622 358.766L314.33 449.677H443.015L475.666 358.766H347.622Z" fill="white"/>
<path fill-rule="evenodd" clip-rule="evenodd" d="M346.727 357.485H477.486L443.915 450.958H312.498L346.727 357.485ZM348.516 360.046L316.163 448.397H442.114L473.845 360.046H348.516Z" fill="#3E3D3D"/>
<path d="M405.878 414.375C401.561 422.492 393.506 426.649 387.887 423.66C382.268 420.672 381.212 411.669 385.528 403.553C389.845 395.436 397.9 391.279 403.519 394.267C409.138 397.256 410.194 406.258 405.878 414.375Z" fill="#E5E5E5"/>
<path d="M306.007 151.334C306.007 170.781 290.242 186.546 270.795 186.546C251.348 186.546 235.583 170.781 235.583 151.334C235.583 131.887 251.348 116.122 270.795 116.122C290.242 116.122 306.007 131.887 306.007 151.334Z" fill="white"/>
<path d="M259.544 123.348L259.878 120.83L261.693 122.608L272.396 150.164L268.099 151.646L259.544 123.348Z" fill="#E5E5E5"/>
<path d="M268.672 148.494L271.447 152.093L254.003 164.823L251.163 164.86L251.922 162.123L268.672 148.494Z" fill="#E5E5E5"/>
<path fill-rule="evenodd" clip-rule="evenodd" d="M270.128 123.159V118.953H272.689V123.159H270.128ZM270.128 180.306V176.101H272.689V180.306H270.128Z" fill="#E5E5E5"/>
<path fill-rule="evenodd" clip-rule="evenodd" d="M297.796 148.349L302.085 148.349L302.085 150.91L297.796 150.91L297.796 148.349ZM239.505 148.349L243.795 148.349L243.795 150.91L239.505 150.91L239.505 148.349Z" fill="#E5E5E5"/>
<path fill-rule="evenodd" clip-rule="evenodd" d="M285.768 172.053L287.962 175.724L285.764 177.038L283.57 173.366L285.768 172.053ZM255.948 122.16L258.143 125.832L255.944 127.146L253.75 123.474L255.948 122.16Z" fill="#E5E5E5"/>
<path fill-rule="evenodd" clip-rule="evenodd" d="M294.923 161.736L298.647 163.841L297.387 166.07L293.663 163.965L294.923 161.736ZM244.325 133.13L248.049 135.235L246.788 137.464L243.065 135.359L244.325 133.13Z" fill="#E5E5E5"/>
<path fill-rule="evenodd" clip-rule="evenodd" d="M246.789 161.736L243.065 163.841L244.325 166.07L248.049 163.965L246.789 161.736ZM297.387 133.13L293.663 135.235L294.924 137.464L298.647 135.359L297.387 133.13Z" fill="#E5E5E5"/>
<path fill-rule="evenodd" clip-rule="evenodd" d="M255.944 172.053L253.75 175.724L255.948 177.038L258.142 173.366L255.944 172.053ZM285.764 122.16L283.569 125.832L285.768 127.146L287.962 123.474L285.764 122.16Z" fill="#E5E5E5"/>
<path d="M142.111 202.552C142.111 205.027 144.117 207.033 146.592 207.033C149.067 207.033 151.074 205.027 151.074 202.552C151.074 200.077 149.067 198.07 146.592 198.07C144.117 198.07 142.111 200.077 142.111 202.552Z" fill="#F15846"/>
<path d="M116.502 202.552C116.502 205.027 118.508 207.033 120.983 207.033C123.458 207.033 125.465 205.027 125.465 202.552C125.465 200.077 123.458 198.07 120.983 198.07C118.508 198.07 116.502 200.077 116.502 202.552Z" fill="#F15846"/>
<path d="M88.3323 202.552C88.3323 205.027 90.3388 207.033 92.8139 207.033C95.289 207.033 97.2954 205.027 97.2954 202.552C97.2954 200.077 95.289 198.07 92.8139 198.07C90.3388 198.07 88.3323 200.077 88.3323 202.552Z" fill="#F15846"/>
<path fill-rule="evenodd" clip-rule="evenodd" d="M66.5645 180.144C66.5645 177.315 68.8575 175.022 71.6862 175.022H166.439C169.268 175.022 171.561 177.315 171.561 180.144V237.809C171.561 241.85 167.099 244.299 163.689 242.13L149.409 233.042C148.998 232.781 148.521 232.642 148.034 232.642H71.6862C68.8575 232.642 66.5645 230.349 66.5645 227.52V180.144ZM71.6862 177.583C70.2719 177.583 69.1253 178.73 69.1253 180.144V227.52C69.1253 228.935 70.2719 230.081 71.6862 230.081H148.034C149.008 230.081 149.962 230.359 150.784 230.882L165.064 239.969C166.769 241.054 169 239.829 169 237.809V180.144C169 178.73 167.853 177.583 166.439 177.583H71.6862Z" fill="#3E3D3D"/>
<path d="M327.775 205.753C327.775 203.631 329.495 201.911 331.616 201.911H414.845C416.967 201.911 418.686 203.631 418.686 205.753V312.029C418.686 314.151 416.967 315.871 414.845 315.871H331.616C329.495 315.871 327.775 314.151 327.775 312.029V205.753Z" fill="#FAC22F"/>
<path d="M341.86 219.838C341.86 217.716 343.58 215.996 345.701 215.996H400.76C402.882 215.996 404.602 217.716 404.602 219.838V297.945C404.602 300.066 402.882 301.786 400.76 301.786H345.701C343.58 301.786 341.86 300.066 341.86 297.945V219.838Z" fill="white"/>
<path d="M392.86 251.849L370.029 271.055V301.786H400.76C402.881 301.786 404.601 300.066 404.601 297.945V260.812L392.86 251.849Z" fill="#46A4BC"/>
<path d="M364.734 250.568L341.86 270.267V297.945C341.86 300.066 343.58 301.786 345.701 301.786H400.76C402.882 301.786 404.602 300.066 404.602 297.945V284.057L364.734 250.568Z" fill="#53B3CC"/>
<path d="M385.395 240.965C385.395 244.854 382.242 248.007 378.352 248.007C374.463 248.007 371.31 244.854 371.31 240.965C371.31 237.075 374.463 233.922 378.352 233.922C382.242 233.922 385.395 237.075 385.395 240.965Z" fill="#FAC22F"/>
<path d="M264.393 428.55C261.832 427.91 251.589 429.83 247.747 430.471C244.998 430.929 238.284 431.08 234.303 431.106L231.828 447.116C236.41 448.424 243.57 451.076 247.747 451.598C251.845 452.11 260.552 450.531 264.393 449.677L272.176 455.236C272.909 455.76 273.861 455.863 274.689 455.508C276.265 454.833 276.754 452.835 275.668 451.507L272.076 447.116L263.113 442.635C268.021 444.129 278.734 447.372 282.319 448.397C285.904 449.421 286.801 447.97 286.801 447.116C288.295 446.689 290.77 445.196 288.721 442.635C286.16 439.434 266.954 429.19 264.393 428.55Z" fill="#EFCB96"/>
<path fill-rule="evenodd" clip-rule="evenodd" d="M171.821 388.84C173.728 378.856 175.518 368.369 176.584 361.763L179.112 362.171C178.044 368.796 176.249 379.308 174.336 389.32C172.606 398.374 170.765 407.104 169.267 412.159C179.09 413.776 193.409 416.279 206.204 418.827C212.923 420.165 219.236 421.518 224.26 422.763C226.771 423.386 228.974 423.985 230.752 424.545C232.5 425.096 233.93 425.637 234.833 426.163L235.563 426.589L232.122 454.119L231.032 454.158C219.179 454.585 200.377 455.098 182.484 455.247C164.628 455.396 147.572 455.186 139.276 454.149C128.536 452.806 122.405 446.873 119.284 439.28C116.202 431.785 116.064 422.728 117.037 414.946C118.575 402.637 121.096 385.466 122.163 378.421L124.695 378.804C123.628 385.844 121.112 402.989 119.578 415.264C118.63 422.848 118.812 431.397 121.652 438.307C124.453 445.119 129.846 450.389 139.593 451.608C147.687 452.619 164.562 452.836 182.463 452.686C199.788 452.541 217.974 452.056 229.851 451.637L232.805 428.008C232.129 427.71 231.187 427.367 229.982 426.987C228.275 426.45 226.129 425.865 223.644 425.249C218.675 424.018 212.407 422.674 205.704 421.339C192.299 418.67 177.205 416.047 167.398 414.448L165.914 414.206L166.39 412.78C167.894 408.266 169.907 398.858 171.821 388.84ZM263.114 427.216C263.622 415.018 261.198 378.745 259.915 362.065L262.469 361.869C263.746 378.48 266.189 414.936 265.672 427.323L263.114 427.216Z" fill="#46A4BC"/>
<path d="M273.996 150.694C273.996 152.815 272.276 154.535 270.155 154.535C268.033 154.535 266.313 152.815 266.313 150.694C266.313 148.572 268.033 146.852 270.155 146.852C272.276 146.852 273.996 148.572 273.996 150.694Z" fill="#3E3D3D"/>
<path fill-rule="evenodd" clip-rule="evenodd" d="M-0.0185547 456.72C-0.0185547 456.012 0.554719 455.439 1.26189 455.439H510.238C510.945 455.439 511.518 456.012 511.518 456.72C511.518 457.427 510.945 458 510.238 458H1.26189C0.554719 458 -0.0185547 457.427 -0.0185547 456.72Z" fill="#3E3D3D"/>
</g>
<defs>
<clipPath id="clip0_101_2552">
<rect width="512" height="512" fill="white"/>
</clipPath>
</defs>
</svg>
