<?xml version="1.0" encoding="UTF-8"?>
<svg id="Layer_2" data-name="Layer 2" xmlns="http://www.w3.org/2000/svg" viewBox="0 0 151.67 99.54">
  <defs>
    <style>
      .cls-1, .cls-2, .cls-3, .cls-4, .cls-5, .cls-6, .cls-7, .cls-8, .cls-9, .cls-10, .cls-11, .cls-12, .cls-13, .cls-14 {
        fill: none;
      }

      .cls-1, .cls-2, .cls-3, .cls-5, .cls-6, .cls-7, .cls-8, .cls-9, .cls-10, .cls-11, .cls-12, .cls-13, .cls-14 {
        stroke-linecap: round;
        stroke-linejoin: round;
      }

      .cls-1, .cls-2, .cls-3, .cls-5, .cls-12 {
        stroke: #232144;
      }

      .cls-2 {
        stroke-width: .75px;
      }

      .cls-3 {
        stroke-width: .39px;
      }

      .cls-4 {
        stroke: #ffdcc0;
        stroke-miterlimit: 10;
        stroke-width: .67px;
      }

      .cls-15 {
        font-family: Jost-ExtraBold, Jost;
        font-size: 12px;
        font-weight: 700;
        isolation: isolate;
      }

      .cls-15, .cls-16 {
        fill: #fff;
      }

      .cls-17 {
        fill: #f4ad5e;
      }

      .cls-18 {
        fill: #f93e4c;
      }

      .cls-19 {
        fill: #000201;
      }

      .cls-20 {
        fill: #ffe299;
      }

      .cls-21 {
        fill: #ffc68d;
      }

      .cls-22 {
        fill: #e28c37;
      }

      .cls-23 {
        fill: #0692b2;
      }

      .cls-24 {
        fill: #3e3e5b;
      }

      .cls-25 {
        fill: #26f7ab;
      }

      .cls-26 {
        fill: #47b2ce;
      }

      .cls-27 {
        fill: #3b345b;
      }

      .cls-28 {
        fill: #78e3f4;
      }

      .cls-5 {
        stroke-width: 1.01px;
      }

      .cls-6, .cls-7, .cls-8, .cls-9, .cls-10 {
        stroke-width: 2px;
      }

      .cls-6, .cls-11 {
        stroke: #31e3e8;
      }

      .cls-7, .cls-14 {
        stroke: #fff;
      }

      .cls-8 {
        stroke: #ffe299;
      }

      .cls-9 {
        stroke: #0692b2;
      }

      .cls-10 {
        stroke: #f96e90;
      }

      .cls-11 {
        stroke-width: .95px;
      }

      .cls-12 {
        stroke-width: .5px;
      }

      .cls-13 {
        stroke: #000201;
        stroke-width: .65px;
      }

      .cls-14 {
        stroke-width: 1.5px;
      }
    </style>
  </defs>
  <g id="Layer_1-2" data-name="Layer 1">
    <g>
      <rect class="cls-16" x="18.53" y=".5" width="111.15" height="83.35" rx="7.11" ry="7.11"/>
      <path class="cls-24" d="M26.97,5.28H121.58c2.21,0,4,1.79,4,4V76.48c0,1.05-.86,1.91-1.91,1.91H24.87c-1.05,0-1.91-.86-1.91-1.91h0V9.25c.02-2.2,1.81-3.97,4.01-3.96Z"/>
      <rect class="cls-27" x="23.42" y="14.11" width="102.12" height="3.26"/>
      <polygon class="cls-27" points="125.54 17.37 125.54 76.44 123.63 78.36 84.09 78.36 66.62 14.11 125.54 14.11 125.54 17.37"/>
      <path class="cls-26" d="M26.87,5.07H121.57c2.16-.03,3.93,1.7,3.96,3.86,0,.02,0,.05,0,.07v5.14H23v-5.14c-.01-2.15,1.71-3.9,3.86-3.93Z"/>
      <circle class="cls-20" cx="114.44" cy="10.03" r="1.13"/>
      <circle class="cls-18" cx="117.94" cy="10.03" r="1.13"/>
      <circle class="cls-25" cx="121.42" cy="10.03" r="1.13"/>
      <circle class="cls-12" cx="114.44" cy="10.03" r="1.13"/>
      <circle class="cls-12" cx="117.94" cy="10.03" r="1.13"/>
      <circle class="cls-12" cx="121.42" cy="10.03" r="1.13"/>
      <line class="cls-1" x1="48.78" y1="14.11" x2="125.54" y2="14.11"/>
      <line class="cls-1" x1="23" y1="14.11" x2="44.78" y2="14.11"/>
      <line class="cls-6" x1="35.09" y1="6.26" x2="47.78" y2="6.26"/>
      <line class="cls-6" x1="51.11" y1="6.26" x2="55.2" y2="6.26"/>
      <line class="cls-14" x1="37.14" y1="10.03" x2="31.86" y2="10.03"/>
      <line class="cls-14" x1="28.53" y1="10.03" x2="26.48" y2="10.03"/>
      <line class="cls-6" x1="102.44" y1="6.26" x2="89.75" y2="6.26"/>
      <line class="cls-6" x1="86.42" y1="6.26" x2="82.34" y2="6.26"/>
      <path class="cls-1" d="M69.73,5.28h51.85c2.21,0,4,1.79,4,4V76.48c0,1.05-.86,1.9-1.91,1.91H24.92c-1.05,0-1.91-.86-1.91-1.91h0V9.25c0-2.21,1.79-4,4-4h38.05"/>
      <path class="cls-5" d="M111.07,83.76h13c3.41,0,6.18-2.77,6.18-6.18h0V7.86c.06-4.01-3.15-7.3-7.16-7.36,0,0,0,0-.01,0H59.94"/>
      <line class="cls-5" x1="96.08" y1="83.76" x2="108.14" y2="83.76"/>
      <line class="cls-5" x1="47.45" y1="83.76" x2="92.15" y2="83.76"/>
      <path class="cls-5" d="M37.15,.5h-11.57c-4.01,.05-7.21,3.35-7.16,7.36,0,0,0,0,0,0V77.58h0c0,3.41,2.77,6.18,6.18,6.18h17.33"/>
      <line class="cls-1" x1="41.44" y1=".5" x2="56.11" y2=".5"/>
      <line class="cls-10" x1="34.56" y1="28.89" x2="44.44" y2="28.89"/>
      <line class="cls-10" x1="48.98" y1="28.89" x2="55.86" y2="28.89"/>
      <line class="cls-10" x1="60.76" y1="28.92" x2="67.65" y2="28.92"/>
      <line class="cls-8" x1="34.5" y1="23.62" x2="49.39" y2="23.62"/>
      <line class="cls-6" x1="53.14" y1="23.62" x2="61.69" y2="23.62"/>
      <line class="cls-7" x1="34.5" y1="34.18" x2="57.39" y2="34.18"/>
      <line class="cls-6" x1="61.14" y1="34.18" x2="69.69" y2="34.18"/>
      <line class="cls-8" x1="34.5" y1="39.45" x2="49.39" y2="39.45"/>
      <line class="cls-6" x1="53.14" y1="39.45" x2="61.69" y2="39.45"/>
      <line class="cls-10" x1="34.56" y1="56.29" x2="44.44" y2="56.29"/>
      <line class="cls-10" x1="48.98" y1="56.29" x2="55.86" y2="56.29"/>
      <line class="cls-10" x1="60.76" y1="56.31" x2="67.65" y2="56.31"/>
      <line class="cls-8" x1="34.5" y1="51.02" x2="49.39" y2="51.02"/>
      <line class="cls-6" x1="53.14" y1="51.02" x2="61.69" y2="51.02"/>
      <line class="cls-7" x1="34.5" y1="61.56" x2="57.39" y2="61.56"/>
      <line class="cls-6" x1="61.14" y1="61.56" x2="69.69" y2="61.56"/>
      <line class="cls-8" x1="34.5" y1="66.84" x2="49.39" y2="66.84"/>
      <line class="cls-6" x1="53.14" y1="66.84" x2="61.69" y2="66.84"/>
      <rect class="cls-26" x="68.37" y="83.86" width="11.92" height="3.36" rx=".39" ry=".39"/>
      <line class="cls-11" x1="70.76" y1="84.26" x2="73.95" y2="84.26"/>
      <line class="cls-11" x1="75.54" y1="84.26" x2="77.5" y2="84.26"/>
      <rect class="cls-2" x="68.37" y="83.86" width="11.92" height="3.36" rx=".39" ry=".39"/>
      <rect class="cls-26" x="61.83" y="86.79" width="25.01" height="7.06" rx=".82" ry=".82"/>
      <line class="cls-6" x1="81.81" y1="93.01" x2="75.12" y2="93.01"/>
      <line class="cls-6" x1="71.81" y1="93.01" x2="67.72" y2="93.01"/>
      <rect class="cls-1" x="61.83" y="86.79" width="25.01" height="7.06" rx=".82" ry=".82"/>
      <rect class="cls-26" x="111.35" y="29.39" width="39.81" height="29.28" rx="2.73" ry="2.73"/>
      <path class="cls-23" d="M151.23,32.49v23.82c-.02,1.49-1.24,2.69-2.73,2.69h-11.83l-10.92-29.24h22.75c1.51,0,2.72,1.22,2.73,2.73Z"/>
      <path class="cls-28" d="M151.16,32.13v2.06h-39.81v-2.06c0-1.51,1.22-2.73,2.73-2.73h34.35c1.51,0,2.73,1.22,2.73,2.73Z"/>
      <line class="cls-6" x1="114.57" y1="35.31" x2="127.26" y2="35.31"/>
      <line class="cls-6" x1="130.59" y1="35.31" x2="134.69" y2="35.31"/>
      <line class="cls-9" x1="128.19" y1="57.2" x2="140.88" y2="57.2"/>
      <rect class="cls-5" x="111.35" y="29.39" width="39.81" height="29.28" rx="2.73" ry="2.73"/>
      <line class="cls-5" x1="111.54" y1="34.18" x2="151.16" y2="34.18"/>
      <circle class="cls-16" cx="139.04" cy="42.93" r="1.84"/>
      <path class="cls-16" d="M126.54,41.09c.34-.59,1.09-.79,1.68-.45,.19,.11,.34,.26,.45,.45l2.71,4.71,2.72,4.7c.34,.6,.13,1.35-.47,1.69-.18,.1-.39,.16-.6,.16h-10.86c-.68,0-1.23-.55-1.23-1.23,0-.22,.06-.43,.17-.62l2.71-4.7,2.72-4.71Z"/>
      <path class="cls-16" d="M133.35,45c.23-.39,.72-.52,1.11-.29,.12,.07,.22,.17,.29,.29l1.79,3.09,1.78,3.09c.23,.39,.1,.88-.29,1.11-.12,.07-.27,.11-.41,.11h-7.14c-.45,0-.81-.36-.81-.81,0-.14,.04-.29,.11-.41l1.79-3.09,1.78-3.09Z"/>
      <circle class="cls-20" cx="142.17" cy="31.79" r=".88"/>
      <circle class="cls-18" cx="144.91" cy="31.79" r=".88"/>
      <circle class="cls-25" cx="147.63" cy="31.79" r=".88"/>
      <circle class="cls-3" cx="142.17" cy="31.79" r=".88"/>
      <circle class="cls-3" cx="144.91" cy="31.79" r=".88"/>
      <circle class="cls-3" cx="147.63" cy="31.79" r=".88"/>
      <rect class="cls-26" x=".5" y="44.22" width="39.81" height="29.28" rx="2.73" ry="2.73"/>
      <path class="cls-23" d="M40.37,47.31v23.82c0,1.51-1.22,2.73-2.73,2.73h-11.78l-11-29.28h22.75c1.51-.01,2.75,1.21,2.76,2.72,0,0,0,0,0,.01Z"/>
      <path class="cls-28" d="M40.31,47v2H.5v-2c0-1.51,1.22-2.73,2.73-2.73H37.59c1.51,0,2.73,1.22,2.73,2.73Z"/>
      <line class="cls-6" x1="3.72" y1="50.13" x2="16.42" y2="50.13"/>
      <line class="cls-6" x1="19.73" y1="50.13" x2="23.83" y2="50.13"/>
      <line class="cls-9" x1="17.34" y1="72.02" x2="30.03" y2="72.02"/>
      <rect class="cls-5" x=".5" y="44.22" width="39.81" height="29.28" rx="2.73" ry="2.73"/>
      <line class="cls-5" x1=".69" y1="49" x2="40.31" y2="49"/>
      <circle class="cls-20" cx="31.33" cy="46.61" r=".88"/>
      <circle class="cls-18" cx="34.06" cy="46.61" r=".88"/>
      <circle class="cls-25" cx="36.78" cy="46.61" r=".88"/>
      <circle class="cls-3" cx="31.33" cy="46.61" r=".88"/>
      <circle class="cls-3" cx="34.06" cy="46.61" r=".88"/>
      <circle class="cls-3" cx="36.78" cy="46.61" r=".88"/>
      <text class="cls-15" transform="translate(8.65 64.87)"><tspan x="0" y="0">&lt;/&gt;</tspan></text>
      <line class="cls-13" x1="11.87" y1="96.3" x2="26.34" y2="96.3"/>
      <circle class="cls-19" cx="28.56" cy="96.3" r=".69"/>
      <rect class="cls-17" x="4.36" y="93.84" width="145.13" height="5.31"/>
      <rect class="cls-21" x="4.36" y="93.84" width="145.13" height="2.28"/>
      <rect class="cls-22" x="4.36" y="97.58" width="145.13" height="1.14"/>
      <path class="cls-4" d="M4.45,95.3c12.62,1.78,25.38,2.47,38.12,2.06,16.15-1,26.92-2.7,43.24-2.7,19.17,0,38,2.7,63.51,3"/>
      <path class="cls-4" d="M149.01,95.33c-25.5,.32-44.34,3-63.5,3-7.03-.08-14.04-.63-21-1.65-19.95-2.21-40.1-1.98-60,.68h0"/>
      <polyline class="cls-2" points="11.12 93.84 149.48 93.84 149.48 99.16 4.36 99.16 4.36 93.84 6.58 93.84"/>
    </g>
  </g>
</svg>