<?xml version="1.0" encoding="UTF-8"?>
<svg id="Layer_2" data-name="Layer 2" xmlns="http://www.w3.org/2000/svg" viewBox="0 0 145.88 87.97">
  <defs>
    <style>
      .cls-1, .cls-2, .cls-3, .cls-4, .cls-5, .cls-6, .cls-7, .cls-8, .cls-9, .cls-10, .cls-11, .cls-12, .cls-13, .cls-14, .cls-15, .cls-16, .cls-17, .cls-18 {
        fill: none;
      }

      .cls-1, .cls-2, .cls-3, .cls-5, .cls-6, .cls-7, .cls-8, .cls-9, .cls-10, .cls-11, .cls-12, .cls-13, .cls-14, .cls-15, .cls-16, .cls-17, .cls-18 {
        stroke-linecap: round;
        stroke-linejoin: round;
      }

      .cls-1, .cls-2, .cls-9, .cls-11, .cls-13 {
        stroke: #232144;
      }

      .cls-2 {
        stroke-width: .75px;
      }

      .cls-3 {
        opacity: .38;
      }

      .cls-3, .cls-5, .cls-8, .cls-10, .cls-15 {
        stroke: #fff;
      }

      .cls-3, .cls-19, .cls-20, .cls-10, .cls-21, .cls-14, .cls-15, .cls-16, .cls-17 {
        isolation: isolate;
      }

      .cls-3, .cls-8, .cls-10, .cls-14, .cls-15, .cls-16 {
        stroke-width: 2px;
      }

      .cls-4 {
        stroke: #ffdcc0;
        stroke-miterlimit: 10;
      }

      .cls-4, .cls-13 {
        stroke-width: .67px;
      }

      .cls-22 {
        fill: #f4ad5e;
      }

      .cls-23 {
        fill: #f9832b;
      }

      .cls-24 {
        fill: #000201;
      }

      .cls-25, .cls-19, .cls-20 {
        fill: #fff;
      }

      .cls-26 {
        fill: #ffc68d;
      }

      .cls-27 {
        fill: #ffcda4;
      }

      .cls-28 {
        fill: #2facdd;
      }

      .cls-29 {
        fill: #8bd2fc;
      }

      .cls-30 {
        fill: #cfabf4;
      }

      .cls-31 {
        fill: #dcf0ff;
      }

      .cls-32 {
        fill: #d35500;
      }

      .cls-33 {
        fill: #e28c37;
      }

      .cls-34 {
        fill: #e0f3fc;
      }

      .cls-35, .cls-21 {
        fill: #232144;
      }

      .cls-36 {
        fill: #5dc5f9;
      }

      .cls-5 {
        stroke-width: 1.12px;
      }

      .cls-6 {
        stroke-width: 1.01px;
      }

      .cls-6, .cls-7, .cls-12, .cls-18 {
        stroke: #000201;
      }

      .cls-7 {
        stroke-width: 1.02px;
      }

      .cls-19 {
        opacity: .8;
      }

      .cls-20 {
        opacity: .6;
      }

      .cls-9 {
        stroke-width: .97px;
      }

      .cls-10, .cls-14 {
        opacity: .26;
      }

      .cls-11 {
        stroke-width: .44px;
      }

      .cls-21 {
        font-family: Jost-Bold, Jost;
        font-size: 6.1px;
        font-weight: 700;
      }

      .cls-12 {
        stroke-width: .65px;
      }

      .cls-14 {
        stroke: #029dc1;
      }

      .cls-15, .cls-16 {
        opacity: .46;
      }

      .cls-16 {
        stroke: #0084a3;
      }

      .cls-17 {
        opacity: .44;
        stroke: #8bd2fc;
        stroke-width: 1.16px;
      }

      .cls-18 {
        stroke-width: 1.1px;
      }
    </style>
  </defs>
  <g id="Layer_1-2" data-name="Layer 1">
    <g>
      <path class="cls-34" d="M33.42,12.39H124c1.35,.01,2.43,1.11,2.42,2.46h0v60.06c.01,1.34-1.07,2.44-2.41,2.45,0,0,0,0-.01,0H31V14.85c-.01-1.35,1.07-2.45,2.42-2.46,0,0,0,0,0,0Z"/>
      <rect class="cls-29" x="31.13" y="74.21" width="95.15" height="2.12"/>
      <path class="cls-7" d="M55,12.53H124.17c1.34,.02,2.42,1.12,2.41,2.46v62.51H31.21v-11.84"/>
      <path class="cls-6" d="M31.21,51.41V15.95c0-1.33,1.08-2.41,2.41-2.41h7.38"/>
      <line class="cls-6" x1="31.21" y1="61.17" x2="31.21" y2="55.6"/>
      <rect class="cls-31" x="36.19" y="18.36" width="86.1" height="55.22"/>
      <rect class="cls-29" x="36.19" y="18.36" width="86.1" height="1.66"/>
      <rect class="cls-30" x="36.53" y="72.81" width="85.59" height=".35"/>
      <line class="cls-6" x1="36.14" y1="45.52" x2="36.14" y2="36.07"/>
      <line class="cls-6" x1="44.25" y1="13.49" x2="51.62" y2="13.49"/>
      <path class="cls-24" d="M32.89,19.34s-.07,.01-.11,0c-.15-.02-.25-.16-.22-.31,0,0,0,0,0,0h0l.81-3.8c.03-.15,.17-.24,.32-.21,0,0,0,0,.01,0,.15,.03,.24,.18,.21,.33h0l-.81,3.78c-.02,.11-.1,.2-.21,.22Z"/>
      <path class="cls-24" d="M34.55,17.22h-.11c-.15-.02-.25-.16-.22-.31,0,0,0,0,0,0h0l.43-2c.03-.15,.18-.25,.33-.22,0,0,0,0,0,0,.15,.03,.25,.18,.22,.33,0,0,0,0,0,0l-.43,2c-.03,.11-.11,.19-.22,.21Z"/>
      <line class="cls-12" x1="52.67" y1="15.55" x2="55.37" y2="15.55"/>
      <line class="cls-12" x1="46" y1="15.55" x2="51.23" y2="15.55"/>
      <line class="cls-12" x1="114.62" y1="16.13" x2="117.31" y2="16.13"/>
      <line class="cls-12" x1="107.94" y1="16.13" x2="113.17" y2="16.13"/>
      <path class="cls-34" d="M21.07,76.88h114c.01,3.49-2.81,6.33-6.3,6.35H27.4c-3.5,0-6.33-2.84-6.33-6.34h0Z"/>
      <path class="cls-29" d="M133.78,80.04c-.62,2.08-2.63,3.41-4.78,3.18H27.63c-2.33,.3-4.58-.94-5.57-3.07l111.73-.11Z"/>
      <path class="cls-18" d="M20.89,76.63h114c0,3.5-2.83,6.33-6.33,6.33H27.22c-3.5,0-6.33-2.83-6.33-6.33h0Z"/>
      <line class="cls-12" x1="71.38" y1="80.04" x2="81.84" y2="80.04"/>
      <polygon class="cls-20" points="86.63 72.96 84.5 72.96 97.98 17.84 100.09 17.84 86.63 72.96"/>
      <polygon class="cls-19" points="95.96 72.96 89.37 72.96 102.82 17.84 109.44 17.84 95.96 72.96"/>
      <polygon class="cls-20" points="83.34 72.96 81.23 72.96 94.69 17.84 96.81 17.84 83.34 72.96"/>
      <polyline class="cls-6" points="36.14 32.82 36.14 17.92 122.24 17.92 122.24 73.14 36.14 73.14 36.14 48.38"/>
      <circle class="cls-25" cx="40.57" cy="25.34" r="1.74"/>
      <circle class="cls-25" cx="43.55" cy="28.32" r="1.17"/>
      <circle class="cls-25" cx="40.42" cy="28.41" r=".71"/>
      <line class="cls-5" x1="29.45" y1="79.89" x2="33.64" y2="79.89"/>
      <circle class="cls-25" cx="27.2" cy="79.89" r=".75"/>
      <circle class="cls-12" cx="78.91" cy="15.71" r=".73"/>
      <polyline class="cls-28" points="48.53 .54 54.73 .49 51.98 35.41 38.03 39.43 24.03 35.7 23.5 30.43"/>
      <polyline class="cls-9" points="52.57 .5 54.73 .49 51.98 35.41 50.23 35.91"/>
      <polygon class="cls-36" points="48.17 36.43 33.85 40.56 19.45 36.72 15.89 .87 51.01 .51 48.17 36.43"/>
      <polyline class="cls-3" points="45.28 1.8 49.87 1.75 48.55 16.52"/>
      <line class="cls-3" x1="49.35" y1="7.51" x2="48.91" y2="12.39"/>
      <line class="cls-3" x1="49.19" y1="9.35" x2="49.1" y2="10.33"/>
      <line class="cls-8" x1="47.89" y1="4.77" x2="47.39" y2="10.27"/>
      <line class="cls-8" x1="46.55" y1="27.97" x2="46.05" y2="33.48"/>
      <polygon class="cls-34" points="33.44 .7 33.85 40.56 19.46 36.72 15.89 .87 33.44 .7"/>
      <path class="cls-35" d="M26.7,7.22v3.86h-1.18v-3.86h1.18Zm-.94,1.33h3.08v1.08h-3.09v-1.08Zm3.54-1.33v3.85h-1.22v-3.86h1.22Z"/>
      <path class="cls-35" d="M29.66,7.22h3.42v1h-1.08v2.79h-1.19v-2.78h-1.1l-.05-1.01Z"/>
      <path class="cls-35" d="M34.59,10.99h-1.29l.71-4.05,1.73,2.07,1.69-2.1,.76,4.05h-1.3l-.21-1.58-.92,1.23-.94-1.21-.23,1.59Z"/>
      <path class="cls-35" d="M39.87,7.08v2.84h1.57v1h-2.79v-3.86l1.22,.02Z"/>
      <line class="cls-14" x1="17.68" y1="7.24" x2="19.45" y2="24.72"/>
      <line class="cls-16" x1="18.28" y1="13.13" x2="18.87" y2="18.93"/>
      <polyline class="cls-1" points="18.4 26.2 15.89 .87 23.78 .79"/>
      <polyline class="cls-1" points="44.64 .58 51.01 .51 48.17 36.43 33.85 40.56 19.45 36.72 18.91 31.31"/>
      <line class="cls-1" x1="29.45" y1=".74" x2="40.53" y2=".62"/>
      <line class="cls-1" x1="26.39" y1=".76" x2="27.32" y2=".75"/>
      <polygon class="cls-35" points="33.84 29.81 28.56 28.14 28.06 23.63 30.73 23.34 31.05 26.11 33.8 26.97 36.66 26 37.05 22.13 27.71 22.22 26.79 14.79 40.14 14.66 40.17 17.35 29.82 17.45 30.08 19.5 40.03 19.41 39.16 28 33.84 29.81"/>
      <polyline class="cls-32" points="138.58 25.64 144.78 25.59 142.01 60.52 128.08 64.53 114.07 60.79 113.55 55.53"/>
      <polyline class="cls-9" points="142.62 25.61 144.78 25.59 142.01 60.52 140.26 61.02"/>
      <polygon class="cls-23" points="138.23 61.53 123.88 65.67 109.49 61.81 105.92 25.97 141.06 25.61 138.23 61.53"/>
      <polyline class="cls-3" points="135.34 26.91 139.92 26.86 138.59 41.63"/>
      <line class="cls-3" x1="139.4" y1="32.61" x2="138.95" y2="37.5"/>
      <line class="cls-3" x1="139.23" y1="34.45" x2="139.14" y2="35.43"/>
      <line class="cls-8" x1="138.12" y1="48.97" x2="137.62" y2="54.47"/>
      <polygon class="cls-27" points="123.49 25.81 123.89 65.66 109.49 61.81 105.92 25.98 123.49 25.81"/>
      <line class="cls-10" x1="107.71" y1="32.34" x2="109.49" y2="49.82"/>
      <line class="cls-15" x1="108.31" y1="38.23" x2="108.91" y2="44.02"/>
      <polyline class="cls-1" points="108.45 51.31 105.92 25.97 113.81 25.89"/>
      <polyline class="cls-1" points="134.68 25.68 141.06 25.61 138.23 61.53 123.88 65.67 109.49 61.81 108.95 56.41"/>
      <line class="cls-1" x1="119.49" y1="25.84" x2="130.58" y2="25.72"/>
      <line class="cls-1" x1="116.44" y1="25.86" x2="117.38" y2="25.86"/>
      <text class="cls-21" transform="translate(117.29 36.71) rotate(-.58)"><tspan x="0" y="0">CSS</tspan></text>
      <polygon class="cls-35" points="129.95 40.34 116.55 40.34 116.85 43.54 123.25 43.54 117.06 45.93 117.35 49.13 126.06 49.13 125.77 52.34 123.25 53.13 120.74 52.31 120.49 50.73 117.5 50.73 117.87 54.71 123.25 56.31 128.64 54.71 129.42 45.93 123.27 45.93 129.65 43.54 129.95 40.34"/>
      <path class="cls-29" d="M22.89,48.52h24.73c.41,0,.75,.34,.75,.75h0v16.36c0,1.18-.96,2.14-2.14,2.14H22.89v-19.25h0Z"/>
      <path class="cls-25" d="M20,48.52h25.47v19.26H21.61c-.89-.01-1.6-.73-1.6-1.62v-17.64h0Z"/>
      <path class="cls-9" d="M48.44,59.56v6.17c0,1.1-.9,2-2,2h-.89"/>
      <path class="cls-9" d="M45.57,48.22h.89c1.1,0,2,.9,2,2v7"/>
      <path class="cls-31" d="M24.43,51.04h0c1.02,0,1.84,.82,1.84,1.84h0c0,1.02-.82,1.84-1.84,1.84h0c-1.02,0-1.84-.82-1.84-1.84h0c0-1.02,.82-1.84,1.84-1.84Z"/>
      <line class="cls-11" x1="22.78" y1="57.27" x2="40.26" y2="57.27"/>
      <line class="cls-11" x1="22.78" y1="58.84" x2="30.52" y2="58.84"/>
      <polyline class="cls-17" points="31.71 67.04 22.43 67.04 20.81 67.04 20.81 59.93"/>
      <path class="cls-9" d="M20,52.78v-3.38c-.01-.63,.49-1.16,1.12-1.18h23.33c.63,0,1.14,.52,1.15,1.15v3.19"/>
      <path class="cls-9" d="M45.6,61.89v4.67c0,.63-.52,1.14-1.15,1.14H21.13c-.62-.02-1.11-.52-1.12-1.14v-11.84"/>
      <line class="cls-9" x1="45.6" y1="55.14" x2="45.6" y2="58.93"/>
      <path class="cls-13" d="M24.43,51.04h0c1.02,0,1.84,.82,1.84,1.84h0c0,1.02-.82,1.84-1.84,1.84h0c-1.02,0-1.84-.82-1.84-1.84h0c0-1.02,.82-1.84,1.84-1.84Z"/>
      <path class="cls-29" d="M56.28,48.52h24.73c.41,0,.75,.34,.75,.75h0v16.36c0,1.18-.96,2.14-2.14,2.14h-23.34v-19.25h0Z"/>
      <path class="cls-25" d="M53.37,48.52h25.49v19.26h-23.86c-.89,0-1.62-.73-1.62-1.62h0v-17.64h-.01Z"/>
      <path class="cls-9" d="M81.84,59.56v6.17c0,1.1-.9,2-2,2h-.83"/>
      <path class="cls-9" d="M79,48.22h.89c1.1,0,2,.9,2,2v7"/>
      <path class="cls-31" d="M57.82,51.04h0c1.02,0,1.84,.82,1.84,1.84h0c0,1.02-.82,1.84-1.84,1.84h0c-1.02,0-1.84-.82-1.84-1.84h0c0-1.02,.82-1.84,1.84-1.84Z"/>
      <line class="cls-11" x1="56.16" y1="57.27" x2="73.64" y2="57.27"/>
      <line class="cls-11" x1="56.16" y1="58.84" x2="63.91" y2="58.84"/>
      <polyline class="cls-17" points="65.1 67.04 55.8 67.04 54.21 67.04 54.21 59.93"/>
      <path class="cls-9" d="M53.37,52.78v-3.38c-.02-.63,.48-1.16,1.12-1.18,.01,0,.02,0,.03,0h23.33c.64,0,1.16,.52,1.16,1.16,0,0,0,.01,0,.02v3.19"/>
      <path class="cls-9" d="M79,61.89v4.67c0,.63-.52,1.14-1.15,1.14h-23.34c-.63,0-1.14-.5-1.15-1.13,0,0,0,0,0-.01v-11.84"/>
      <line class="cls-9" x1="78.99" y1="55.14" x2="78.99" y2="58.93"/>
      <path class="cls-13" d="M57.82,51.04h0c1.02,0,1.84,.82,1.84,1.84h0c0,1.02-.82,1.84-1.84,1.84h0c-1.02,0-1.84-.82-1.84-1.84h0c0-1.02,.82-1.84,1.84-1.84Z"/>
      <line class="cls-12" x1="7.91" y1="84.74" x2="22.36" y2="84.74"/>
      <circle class="cls-24" cx="24.57" cy="84.74" r=".69"/>
      <rect class="cls-22" x=".38" y="82.28" width="145.13" height="5.31"/>
      <rect class="cls-26" x=".38" y="82.28" width="145.13" height="2.28"/>
      <rect class="cls-33" x=".38" y="86.02" width="145.13" height="1.14"/>
      <path class="cls-4" d="M.48,83.74c12.62,1.78,25.37,2.47,38.11,2.06,16.16-.95,26.93-2.7,43.25-2.7,19.17,0,38,2.7,63.5,3"/>
      <path class="cls-4" d="M145,83.75c-25.51,.32-44.34,3-63.51,3-7.03-.08-14.04-.63-21-1.65-19.95-2.21-40.1-1.98-60,.68H.5"/>
      <polyline class="cls-2" points="7.14 82.28 145.5 82.28 145.5 87.6 .38 87.6 .38 82.28 2.59 82.28"/>
    </g>
  </g>
</svg>