<?xml version="1.0" encoding="UTF-8"?>
<svg id="Layer_2" data-name="Layer 2" xmlns="http://www.w3.org/2000/svg" viewBox="0 0 145.88 82.87">
  <defs>
    <style>
      .cls-1 {
        stroke: #18364c;
      }

      .cls-1, .cls-2, .cls-3, .cls-4, .cls-5, .cls-6, .cls-7, .cls-8, .cls-9, .cls-10, .cls-11, .cls-12, .cls-13, .cls-14, .cls-15 {
        fill: none;
      }

      .cls-1, .cls-2, .cls-3, .cls-4, .cls-6, .cls-7, .cls-8, .cls-9, .cls-10, .cls-11, .cls-12, .cls-13, .cls-14, .cls-15 {
        stroke-linecap: round;
        stroke-linejoin: round;
      }

      .cls-2, .cls-4, .cls-8, .cls-11, .cls-14 {
        stroke: #232144;
      }

      .cls-3 {
        stroke: #32767f;
      }

      .cls-4 {
        stroke-width: .75px;
      }

      .cls-5 {
        stroke: #ffdcc0;
        stroke-miterlimit: 10;
        stroke-width: .67px;
      }

      .cls-16 {
        fill: #f4ad5e;
      }

      .cls-17 {
        fill: #f8d76e;
      }

      .cls-18 {
        fill: #000201;
      }

      .cls-19 {
        fill: #ef940f;
      }

      .cls-20, .cls-21, .cls-22 {
        fill: #fff;
      }

      .cls-23 {
        fill: #ffc68d;
      }

      .cls-24 {
        fill: #9399bc;
      }

      .cls-25 {
        fill: #9cb5bc;
      }

      .cls-26 {
        fill: #8bd2fc;
      }

      .cls-27 {
        fill: #abbcd3;
      }

      .cls-28 {
        fill: #dcf0ff;
      }

      .cls-29 {
        fill: #d7def4;
      }

      .cls-30 {
        fill: #e28c37;
      }

      .cls-31 {
        fill: #c8ccdb;
      }

      .cls-32 {
        fill: #232144;
      }

      .cls-33 {
        fill: #536b77;
      }

      .cls-34 {
        fill: #2a3e44;
      }

      .cls-35 {
        fill: #28445e;
      }

      .cls-36 {
        fill: #708993;
      }

      .cls-6 {
        stroke-width: 1.12px;
      }

      .cls-6, .cls-9, .cls-13 {
        stroke: #fff;
      }

      .cls-7 {
        stroke-width: .58px;
      }

      .cls-7, .cls-12, .cls-15 {
        stroke: #000201;
      }

      .cls-8 {
        stroke-width: .62px;
      }

      .cls-21 {
        opacity: .8;
      }

      .cls-21, .cls-22, .cls-13 {
        isolation: isolate;
      }

      .cls-22 {
        opacity: .6;
      }

      .cls-9, .cls-13 {
        stroke-width: 2px;
      }

      .cls-10 {
        stroke: #8bd2fc;
        stroke-width: 4px;
      }

      .cls-11 {
        stroke-width: .5px;
      }

      .cls-12 {
        stroke-width: .65px;
      }

      .cls-13 {
        opacity: .7;
      }

      .cls-14 {
        stroke-width: .76px;
      }

      .cls-15 {
        stroke-width: .77px;
      }
    </style>
  </defs>
  <g id="Layer_1-2" data-name="Layer 1">
    <g>
      <path class="cls-15" d="M20.38,74.32c-.05,.61-.17,1.21-.36,1.79,.03-.61,.15-1.21,.36-1.79Z"/>
      <path class="cls-15" d="M20.02,76.11c.03-.61,.15-1.21,.36-1.79-.05,.61-.17,1.21-.36,1.79Z"/>
      <path class="cls-15" d="M21.38,72.28c-.39,.64-.73,1.3-1,2,.03-.33,.03-.67,0-1,0-.42-.05-.83-.14-1.24,.39,.02,.77,.1,1.14,.24Z"/>
      <path class="cls-15" d="M20.38,74.32c-.05,.61-.17,1.21-.36,1.79,.03-.61,.15-1.21,.36-1.79Z"/>
      <rect class="cls-34" x="14.33" y="50.22" width="33.59" height="7.92" rx=".47" ry=".47"/>
      <path class="cls-4" d="M47.89,54.64v3c0,.25-.19,.45-.44,.46H14.77c-.24-.02-.44-.22-.44-.46v-7"/>
      <rect class="cls-33" x="10.33" y="50.22" width="31.74" height="7.92" rx=".47" ry=".47"/>
      <rect class="cls-34" x="14.33" y="59.69" width="33.59" height="7.92" rx=".47" ry=".47"/>
      <path class="cls-4" d="M47.89,65.87v1.27c.02,.24-.17,.45-.41,.47,0,0,0,0,0,0H14.77c-.24,0-.44-.2-.44-.44h0v-7c-.01-.24,.18-.45,.42-.47H47.45c.24,0,.44,.2,.44,.44h0v3.53"/>
      <path class="cls-4" d="M47.89,75.24v1.27c.02,.24-.17,.45-.41,.47,0,0,0,0,0,0H14.77c-.24,0-.44-.2-.44-.44h0v-7c-.01-.24,.18-.45,.42-.47H47.45c.24,0,.44,.2,.44,.44h0v3.52"/>
      <rect class="cls-33" x="10.33" y="59.69" width="31.74" height="7.92" rx=".47" ry=".47"/>
      <rect class="cls-34" x="14.33" y="69.16" width="33.59" height="7.92" rx=".47" ry=".47"/>
      <line class="cls-7" x1="14.33" y1="76.64" x2="14.33" y2="69.63"/>
      <rect class="cls-33" x="10.33" y="69.16" width="31.74" height="7.92" rx=".47" ry=".47"/>
      <rect class="cls-32" x="12.38" y="58.14" width="33.92" height="1.55"/>
      <rect class="cls-32" x="12.38" y="67.61" width="33.92" height="1.55"/>
      <path class="cls-36" d="M32.11,50.2l-3,7.83H10.8c-.26,0-.47-.21-.47-.47h0v-7c.05-.21,.25-.36,.47-.35h21.31Z"/>
      <path class="cls-36" d="M28.57,59.58l-3,7.92H10.8c-.25,0-.45-.19-.47-.44v-7c0-.26,.21-.47,.47-.47H28.57Z"/>
      <path class="cls-36" d="M25.12,69.03l-3.06,7.92H10.8c-.26,0-.47-.21-.47-.47h0v-7c.01-.25,.22-.46,.47-.47l14.32,.02Z"/>
      <circle class="cls-32" cx="15.3" cy="50.22" r=".55"/>
      <polygon class="cls-20" points="18.86 59.58 19.52 59.58 16.54 67.53 15.88 67.53 18.86 59.58"/>
      <polygon class="cls-20" points="15.33 69.07 15.96 69.07 13.01 76.97 12.35 76.97 15.33 69.07"/>
      <polygon class="cls-20" points="23.08 50.11 20.1 58.03 19.44 58.03 22.42 50.11 23.08 50.11"/>
      <polygon class="cls-25" points="20.38 59.58 21.65 59.58 18.67 67.53 17.4 67.53 20.38 59.58"/>
      <polygon class="cls-25" points="16.82 69.07 18.11 69.07 15.13 76.97 13.86 76.97 16.82 69.07"/>
      <polygon class="cls-25" points="25.21 50.11 22.24 58.03 20.93 58.03 23.91 50.11 25.21 50.11"/>
      <path class="cls-4" d="M42.07,54.31v3.37c0,.25-.19,.45-.44,.46H10.8c-.25-.01-.45-.21-.47-.46v-7c0-.26,.21-.47,.47-.47h2.54"/>
      <path class="cls-4" d="M42.07,65.24v1.9c.02,.24-.17,.45-.41,.47,0,0,0,0,0,0H10.8c-.26,0-.47-.21-.47-.47h0v-7c0-.26,.21-.47,.47-.47h30.88c.24,0,.44,.2,.45,.44v2.49"/>
      <path class="cls-4" d="M42.07,73.13v3.51c0,.24-.2,.44-.44,.44H10.8c-.25,0-.45-.19-.47-.44v-7.12c.01-.25,.22-.46,.47-.47h30.88c.25,.01,.45,.22,.45,.47v1.24"/>
      <path class="cls-4" d="M17.2,50.2h24.48c.24,0,.44,.19,.45,.43,0,0,0,0,0,.01v1.49"/>
      <line class="cls-11" x1="18.26" y1="52.79" x2="18.26" y2="54.92"/>
      <line class="cls-11" x1="17.1" y1="52.79" x2="17.1" y2="54.92"/>
      <line class="cls-11" x1="15.92" y1="52.79" x2="15.92" y2="54.92"/>
      <line class="cls-11" x1="13.57" y1="52.79" x2="13.57" y2="54.92"/>
      <line class="cls-11" x1="14.74" y1="52.79" x2="14.74" y2="54.92"/>
      <line class="cls-11" x1="18.26" y1="62.48" x2="18.26" y2="64.61"/>
      <line class="cls-11" x1="17.1" y1="62.48" x2="17.1" y2="64.61"/>
      <line class="cls-11" x1="15.92" y1="62.48" x2="15.92" y2="64.61"/>
      <line class="cls-11" x1="13.57" y1="62.48" x2="13.57" y2="64.61"/>
      <line class="cls-11" x1="14.74" y1="62.48" x2="14.74" y2="64.61"/>
      <line class="cls-11" x1="18.26" y1="71.94" x2="18.26" y2="74.07"/>
      <line class="cls-11" x1="17.1" y1="71.94" x2="17.1" y2="74.07"/>
      <line class="cls-11" x1="15.92" y1="71.94" x2="15.92" y2="74.07"/>
      <line class="cls-11" x1="13.57" y1="71.94" x2="13.57" y2="74.07"/>
      <line class="cls-11" x1="14.74" y1="71.94" x2="14.74" y2="74.07"/>
      <polyline class="cls-4" points="43.76 50.2 47.92 50.2 47.92 52.79"/>
      <rect class="cls-20" x="106.12" y="21.5" width="28.88" height="37.56"/>
      <rect class="cls-27" x="121.57" y="21.51" width="2.24" height="37.16"/>
      <line class="cls-14" x1="131.52" y1="24.97" x2="117.11" y2="24.97"/>
      <line class="cls-14" x1="131.52" y1="26.81" x2="122.29" y2="26.81"/>
      <line class="cls-14" x1="131.52" y1="28.73" x2="125.96" y2="28.73"/>
      <line class="cls-14" x1="120.82" y1="28.73" x2="118.85" y2="28.73"/>
      <line class="cls-14" x1="131.52" y1="30.52" x2="124.32" y2="30.52"/>
      <line class="cls-14" x1="131.52" y1="33.29" x2="117.11" y2="33.29"/>
      <line class="cls-14" x1="131.52" y1="35.12" x2="122.29" y2="35.12"/>
      <line class="cls-14" x1="131.52" y1="37.05" x2="125.96" y2="37.05"/>
      <line class="cls-14" x1="120.82" y1="37.05" x2="118.85" y2="37.05"/>
      <line class="cls-14" x1="131.52" y1="38.84" x2="117.11" y2="38.84"/>
      <line class="cls-14" x1="131.52" y1="41.51" x2="117.11" y2="41.51"/>
      <line class="cls-14" x1="131.52" y1="43.35" x2="122.29" y2="43.35"/>
      <rect class="cls-14" x="106.12" y="21.5" width="28.88" height="37.56"/>
      <path class="cls-29" d="M28.75,6.47H119.32c1.34,.02,2.42,1.12,2.41,2.46v60.1c.01,1.34-1.07,2.44-2.41,2.45H26.32V8.93c-.01-1.35,1.07-2.45,2.42-2.46,0,0,0,0,.01,0Z"/>
      <rect class="cls-28" x="31.46" y="12.44" width="86.1" height="55.22"/>
      <rect class="cls-26" x="31.52" y="12.44" width="86.1" height="1.66"/>
      <polygon class="cls-22" points="81.95 67.04 79.85 67.04 93.3 11.91 95.42 11.91 81.95 67.04"/>
      <polygon class="cls-21" points="91.3 67.04 84.69 67.04 98.17 11.91 104.76 11.91 91.3 67.04"/>
      <polygon class="cls-22" points="78.67 67.04 76.55 67.04 90.02 11.91 92.13 11.91 78.67 67.04"/>
      <line class="cls-13" x1="56.18" y1="7.66" x2="88.74" y2="7.66"/>
      <path class="cls-32" d="M100.52,30.5c-.15-1.22-.57-2.38-1.25-3.4-.64-1-1.41-1.88-2-2.92-1.08-2.05-1-4.51-.91-6.75-.06-.62-.61-1.08-1.23-1.02-.54,.05-.97,.48-1.02,1.02-.22,2.36,.06,4.75,.81,7,.5,1.09,1.12,2.11,1.85,3.05,.73,.86,1.24,1.89,1.46,3,.02,.61,.52,1.1,1.13,1.12,.62,0,1.11-.5,1.12-1.12l.04,.02Z"/>
      <path class="cls-32" d="M96.6,25.47c1.37-.08,2.65-.71,3.55-1.75,.85-1.03,1.59-2.15,2.2-3.34,.31-.54,.13-1.22-.4-1.54s-1.22-.13-1.54,.4c-.31,.5-.59,1-.89,1.53-.15,.24-.29,.48-.45,.71-.07,.12-.16,.24-.25,.34,.2-.19,0,0,0,0l-.13,.15c-.16,.19-.34,.37-.53,.54,0,0-.1,.11-.15,.12l.08-.06-.09,.07-.32,.2-.33,.17c-.22,.11,.16-.05,0,0l-.18,.06-.39,.1c-.14,0,.28,0,0,0h-.22c-.62-.06-1.17,.4-1.23,1.02s.4,1.17,1.02,1.23c.07,0,.14,0,.21,0l.04,.04Z"/>
      <rect class="cls-24" x="26.47" y="68.76" width="95.15" height="1.64"/>
      <path class="cls-2" d="M26.52,45.48V9.09c-.02-1.35,1.07-2.46,2.42-2.48,0,0,0,0,0,0h7.39"/>
      <line class="cls-2" x1="26.54" y1="55.25" x2="26.54" y2="49.67"/>
      <line class="cls-2" x1="31.46" y1="39.59" x2="31.46" y2="30.15"/>
      <line class="cls-2" x1="40.05" y1="6.47" x2="47.41" y2="6.47"/>
      <line class="cls-13" x1="68.74" y1="7.66" x2="78.74" y2="7.66"/>
      <path class="cls-31" d="M16.41,70.95h114c0,3.5-2.84,6.34-6.34,6.34H22.74c-3.5,0-6.33-2.83-6.33-6.33,0,0,0,0,0-.01Z"/>
      <path class="cls-24" d="M129.12,74.12c-.62,2.08-2.65,3.42-4.81,3.17H22.96c-2.33,.3-4.58-.94-5.57-3.07l111.73-.1Z"/>
      <path class="cls-2" d="M16.22,70.69h114c0,3.49-2.81,6.32-6.3,6.34H22.52c-3.5,0-6.34-2.84-6.34-6.34h.04Z"/>
      <line class="cls-12" x1="7.89" y1="79.64" x2="22.35" y2="79.64"/>
      <circle class="cls-18" cx="24.57" cy="79.64" r=".69"/>
      <line class="cls-6" x1="24.78" y1="73.96" x2="28.99" y2="73.96"/>
      <circle class="cls-20" cx="22.52" cy="73.96" r=".75"/>
      <rect class="cls-16" x=".38" y="77.18" width="145.13" height="5.31"/>
      <rect class="cls-23" x=".38" y="77.18" width="145.13" height="2.28"/>
      <rect class="cls-30" x=".38" y="80.92" width="145.13" height="1.14"/>
      <path class="cls-5" d="M.52,78.63c12.62,1.78,25.37,2.47,38.11,2.06,16.16-.95,26.93-2.69,43.24-2.69,19.17,0,38,2.69,63.51,3"/>
      <path class="cls-5" d="M145.04,78.66c-25.51,.32-44.34,3-63.51,3-7.03-.08-14.04-.62-21-1.63-19.95-2.21-40.1-1.98-60,.67H.52"/>
      <polyline class="cls-4" points="7.13 77.18 145.51 77.18 145.51 82.49 .38 82.49 .38 77.18 2.6 77.18"/>
      <path class="cls-10" d="M50.16,49.59c4.45,1.6,9.23,2.1,13.91,1.44,4.66-.68,9.26-1.73,13.75-3.14,3.12-.9,6-2.41,9.16-3.3,2.75-.79,3.75-1.56,8.44-2,6.75-.66,13.57-.19,20.17,1.41"/>
      <path class="cls-17" d="M92.52,43.08c-5.72,1-12.34,4.11-17.45,5.71-8.44,2.65-17.69,3.58-26.12,.87-1.72-.56-3.75-1.91-3.25-3.65,.3-1.06,1.43-1.62,2.42-2.14,1.39-.72,2.69-1.59,3.88-2.6,1.11-1.06,2.3-2.03,3.56-2.92,3.35-2,7.85-1.62,11.16,.5,.7,.53,1.46,.97,2.26,1.32,.71,.23,1.45,.31,2.19,.26,5.31-.23,9.69-4,14.16-6.83,4.72-3.03,9.94-5.21,15.41-6.46,1.6-.37,3.22-.61,4.86-.72h.18l1.81-.24h9.93l-.12,18.29s-3.24-1.55-16.27-1.81h-.06"/>
      <circle class="cls-20" cx="59.51" cy="41.89" r="1.48"/>
      <circle class="cls-11" cx="59.6" cy="41.89" r="1.48"/>
      <path class="cls-20" d="M75.99,40.88c3.47-.89,6.59-3.41,9.56-5.32,3.82-2.46,7.81-4.8,12.26-5.94,.58-.22,.88-.87,.66-1.45-.19-.51-.72-.82-1.26-.72-4.36,1.28-8.5,3.25-12.25,5.82-1.49,.95-3,1.93-4.45,2.86-1.57,1.11-3.29,1.98-5.11,2.58-.58,.22-.87,.88-.65,1.46,.19,.5,.71,.8,1.24,.71h0Z"/>
      <path class="cls-19" d="M117.45,36.16l-.08,8.31s-3.24-1.55-16.27-1.81h-.06l-8.55,.47c-5.72,1-12.34,4.11-17.45,5.71-3.56,1.13-7.23,1.9-10.94,2.29,2-.91,11-4.49,12.84-5.58,5.74-3.34,4.46-3,10.43-5.9,2.08-1.07,4.25-1.97,6.48-2.69,2.21-.6,4.46-1.04,6.73-1.3,5.61-.82,11.32-.65,16.87,.5Z"/>
      <path class="cls-20" d="M64.19,39.89c1.07,1.53,2.73,2.55,4.58,2.81,1.72,.08,3.45-.01,5.15-.29,2-.25,4-1,6-.57,1.86,.33,3.55,1.31,4.74,2.78,.61,.56,1.56,.53,2.12-.07,.54-.58,.54-1.47,0-2.05-2.59-3.26-6.92-4.2-10.84-3.46-1.78,.35-3.59,.58-5.41,.67-1.71,.42-3.49-.41-4.26-2-1.24-1.48-3.35,.65-2.12,2.13l.04,.05Z"/>
      <path class="cls-2" d="M59.61,51.03c5.26-.03,10.49-.87,15.5-2.5,6-1.87,14-5.83,20.31-6"/>
      <path class="cls-2" d="M81.61,35.88c-3.24,2.17-6.58,4.15-10.4,4.31-.74,.06-1.48-.03-2.19-.25-.8-.35-1.56-.79-2.26-1.32-3.31-2.12-7.81-2.55-11.16-.5-1.26,.88-2.45,1.85-3.56,2.91-1.19,1.01-2.49,1.89-3.88,2.61-1,.51-2.12,1.07-2.42,2.14-.5,1.74,1.53,3.09,3.25,3.64,2.68,.86,5.46,1.38,8.27,1.55"/>
      <polyline class="cls-2" points="48.41 67.21 31.46 67.21 31.46 42.46"/>
      <polyline class="cls-2" points="117.57 56.97 117.57 67.21 52.65 67.21"/>
      <polyline class="cls-2" points="31.46 26.9 31.46 11.99 60.99 11.99"/>
      <path class="cls-20" d="M28.99,.5h0c8.6,0,15.58,6.98,15.58,15.58h0c0,8.6-6.98,15.58-15.58,15.58h0c-8.6,0-15.58-6.98-15.58-15.58h0C13.4,7.48,20.38,.5,28.99,.5Z"/>
      <path class="cls-35" d="M31.02,5.42c-1.66-.27-3.34-.27-5,0-2.12,.37-2.5,1.15-2.5,2.6v1h5v1.52h-6.88c-1.52-.02-2.83,1.05-3.12,2.54-.47,1.66-.47,3.42,0,5.08,.35,1.47,1.2,2.53,2.65,2.53h1.72v-2.28c.04-1.71,1.42-3.08,3.13-3.11h5c1.39,0,2.52-1.14,2.51-2.53,0,0,0,0,0-.01v-4.73c-.09-1.36-1.15-2.47-2.51-2.61Zm-5.3,2.75c-.51,.01-.93-.39-.94-.9-.01-.51,.39-.93,.9-.94,.51-.01,.93,.39,.94,.9,0,0,0,.02,0,.03,0,.5-.4,.9-.9,.91Z"/>
      <path class="cls-17" d="M39.39,13.86c-.36-1.44-1-2.53-2.5-2.53h-1.87v2.22c-.02,1.73-1.4,3.13-3.13,3.17h-5c-1.38,.03-2.48,1.16-2.49,2.54v4.77c0,1.36,1.18,2.15,2.49,2.54,1.63,.51,3.37,.51,5,0,1.26-.36,2.5-1.1,2.5-2.54v-1h-5v-1.54h7.49c1.46,0,2-1,2.5-2.54,.52-1.66,.53-3.43,0-5.09Zm-7.61,10.1c.51-.01,.93,.39,.94,.9s-.39,.93-.9,.94-.93-.39-.94-.9c0,0,0-.01,0-.02,0-.5,.4-.91,.9-.92h0Z"/>
      <path class="cls-8" d="M24.83,17.85c-.28,.42-.43,.91-.43,1.41v4.77c0,1.36,1.18,2.15,2.49,2.54,1.63,.51,3.37,.51,5,0,1.26-.36,2.5-1.1,2.5-2.54v-1h-5v-1.54h7.49c1.46,0,2-1,2.5-2.54,.52-1.65,.52-3.43,0-5.08-.36-1.44-1-2.53-2.5-2.53h-1.86v2.22c-.02,1.73-1.4,3.13-3.13,3.17h-5c-.38,0-.75,.09-1.09,.26"/>
      <line class="cls-1" x1="27.35" y1="14.91" x2="30.49" y2="14.91"/>
      <path class="cls-1" d="M22.76,17.13c.43-1.27,1.61-2.14,2.95-2.18"/>
      <line class="cls-3" x1="22.99" y1="11.01" x2="27.49" y2="11.01"/>
      <path class="cls-8" d="M20.9,10.65c-1.21,.28-2.14,1.24-2.37,2.46-.47,1.66-.47,3.42,0,5.08,.35,1.47,1.2,2.53,2.65,2.53h1.72v-2.28c.04-1.71,1.42-3.08,3.13-3.11h5c1.39,0,2.52-1.14,2.51-2.53,0,0,0,0,0-.01v-4.76c-.09-1.36-1.15-2.46-2.51-2.6-1.66-.27-3.34-.27-5,0-2.12,.37-2.5,1.15-2.5,2.6v1h5v1.52h-6.26"/>
      <path class="cls-2" d="M28.99,.5h0c8.6,0,15.58,6.98,15.58,15.58h0c0,8.6-6.98,15.58-15.58,15.58h0c-8.6,0-15.58-6.98-15.58-15.58h0C13.4,7.48,20.38,.5,28.99,.5Z"/>
      <path class="cls-9" d="M100.79,26.91s4.22,4.59,3,14.87"/>
      <path class="cls-9" d="M112.52,26.74s3.12,5.85,.2,15.78"/>
      <path class="cls-20" d="M102.8,30.65s1.05-4.32,3.64-4.4l-5.12,.54"/>
      <path class="cls-20" d="M93.17,29.75s8.47-.75,9.23,1.62v-4.55l-9.23,2.93Z"/>
      <path class="cls-2" d="M107.36,26.13c-2.22,0-4.42,.27-6.58,.78-5.47,1.24-10.68,3.43-15.41,6.45"/>
      <path class="cls-2" d="M117.45,44.23s-1.85-1.85-20.12-1.85"/>
      <polygon class="cls-20" points="110.57 26.54 112.89 29.32 115.33 26.54 110.57 26.54"/>
      <line class="cls-2" x1="115.6" y1="26.25" x2="110.57" y2="26.14"/>
      <path class="cls-32" d="M106.42,42.8s3.61,10.08,11.15,10.08v13.92c-16.64,0-18.27-24.28-18.27-24.28l7.12,.28Z"/>
      <polyline class="cls-2" points="65.25 11.99 117.57 11.99 117.57 57.32"/>
      <path class="cls-2" d="M26.52,70.58v-10.84"/>
      <path class="cls-2" d="M121.95,19.44v51.14"/>
      <path class="cls-2" d="M50.36,6.61H119.52c1.35,.01,2.43,1.11,2.42,2.46h0v6.3"/>
    </g>
  </g>
</svg>