<?xml version="1.0" encoding="UTF-8"?>
<svg id="Layer_2" data-name="Layer 2" xmlns="http://www.w3.org/2000/svg" viewBox="0 0 783.17 277.42">
  <defs>
    <style>
      .cls-1 {
        fill: #f4ad5e;
      }

      .cls-2 {
        fill: #000201;
      }

      .cls-3 {
        fill: #ffdcc0;
      }

      .cls-4, .cls-5, .cls-6 {
        fill: #fff;
      }

      .cls-7 {
        fill: #f75454;
      }

      .cls-8 {
        fill: #ffe992;
      }

      .cls-9 {
        fill: #fff6d3;
      }

      .cls-10 {
        fill: #fff9de;
      }

      .cls-11 {
        fill: #ffc68d;
      }

      .cls-12 {
        fill: #ff4500;
      }

      .cls-13 {
        fill: #747484;
      }

      .cls-14 {
        fill: #a0e2f9;
      }

      .cls-15 {
        fill: #9f9ec3;
      }

      .cls-16, .cls-17 {
        fill: #9fd3d3;
      }

      .cls-18 {
        fill: #c0ecff;
      }

      .cls-19 {
        fill: #332d28;
      }

      .cls-20 {
        fill: #ba946a;
      }

      .cls-21 {
        fill: #8bd2fc;
      }

      .cls-22 {
        fill: #d7e9e9;
      }

      .cls-23 {
        fill: #cc3000;
      }

      .cls-24 {
        fill: #e2c19a;
      }

      .cls-25 {
        fill: #d89a56;
      }

      .cls-26 {
        fill: #e28c37;
      }

      .cls-27 {
        fill: #e0f3fc;
      }

      .cls-28 {
        fill: #1f033c;
      }

      .cls-29 {
        fill: #232144;
      }

      .cls-30 {
        fill: #429dc1;
      }

      .cls-31 {
        fill: #6ff953;
      }

      .cls-32 {
        fill: #626363;
      }

      .cls-33 {
        fill: #37a9d1;
      }

      .cls-34 {
        fill: #525266;
      }

      .cls-35 {
        fill: #1b3c47;
        opacity: .15;
      }

      .cls-35, .cls-5, .cls-6, .cls-17 {
        isolation: isolate;
      }

      .cls-5 {
        opacity: .65;
      }

      .cls-6 {
        opacity: .45;
      }

      .cls-17 {
        opacity: .4;
      }

      .cls-36 {
        opacity: .35;
      }
    </style>
  </defs>
  <g id="Layer_1-2" data-name="Layer 1">
    <g id="Layer_2-2" data-name="Layer 2">
      <g id="Layer_1-2" data-name="Layer 1-2">
        <g class="cls-36">
          <rect class="cls-14" x=".83" y="29.96" width="138.44" height="136.59"/>
          <path class="cls-22" d="M.83,28.73V167.08H139.17V28.73H.83ZM130.63,159.36H11.34V36.97h119.28v122.39Z"/>
          <rect class="cls-22" x="66.81" y="37.25" width="8.02" height="121.8"/>
          <rect class="cls-22" x="11.71" y="96.37" width="119.16" height="8.02"/>
          <rect class="cls-33" x="10.7" y="152.35" width="120.02" height="6.39"/>
          <rect class="cls-33" x="123.22" y="37.04" width="6.3" height="115.96"/>
          <path class="cls-6" d="M17.77,69.22c-1.1,0-2-.89-2-2v-23.46c0-1.11,.89-2.01,2-2.03,1.11,.02,2.01,.92,2.03,2.03v23.46c-.02,1.11-.92,2-2.03,2Z"/>
          <path class="cls-6" d="M17.77,62.92c-1.11-.02-2-.92-2-2.03v-9.22c0-1.11,.89-2.01,2-2.03,1.11,.02,2.01,.92,2.03,2.03v9.22c-.02,1.11-.92,2.01-2.03,2.03Z"/>
          <rect class="cls-4" x="-12.18" y="74.61" width="86.6" height="2.34" transform="translate(-50.55 69.49) rotate(-63.27)"/>
          <rect class="cls-4" x="-17.26" y="83.23" width="106.31" height="2.34" transform="translate(-55.59 77.97) rotate(-62.94)"/>
          <path class="cls-28" d="M74.83,158.32c-.46,0-.83-.37-.83-.83h0v-52.26c0-.46,.37-.83,.83-.83s.83,.37,.83,.83v52.26c0,.46-.37,.83-.83,.83h0Z"/>
          <path class="cls-28" d="M74.83,96c-.46,0-.83-.37-.83-.83h0V38.08h-6.36v24.16c0,.46-.37,.83-.83,.83s-.83-.37-.83-.83v-24.99c0-.46,.37-.83,.83-.83h8.02c.46,0,.83,.37,.83,.83h0v57.92c0,.46-.37,.83-.83,.83h0Z"/>
          <path class="cls-28" d="M66.81,74.39c-.46,0-.83-.37-.83-.83h0v-3.57c0-.46,.37-.83,.83-.83s.83,.37,.83,.83v3.57c0,.46-.37,.83-.83,.83h0Z"/>
          <path class="cls-28" d="M66.81,95.88c-.46,0-.83-.37-.83-.83h0v-17.03c0-.46,.37-.83,.83-.83s.83,.37,.83,.83v17.03c0,.46-.37,.83-.83,.83h0Z"/>
          <path class="cls-28" d="M66.81,158.32c-.46,0-.83-.37-.83-.83h0v-51.65c0-.46,.37-.83,.83-.83s.83,.37,.83,.83v51.65c0,.46-.37,.83-.83,.83h0Z"/>
          <path class="cls-28" d="M129.28,97.2H44.79c-.46,0-.83-.37-.83-.83s.37-.83,.83-.83h84.48c.46,0,.83,.37,.83,.83s-.37,.83-.83,.83Z"/>
          <path class="cls-28" d="M48.94,105.22H11.71c-.46,0-.83-.37-.83-.83h0v-8.02c0-.46,.37-.83,.83-.83h27.67c.46,0,.83,.37,.83,.83s-.37,.83-.83,.83H12.51v6.39H48.94c.45-.09,.89,.21,.97,.66s-.21,.89-.66,.97c-.11,.02-.21,.02-.32,0Z"/>
          <path class="cls-28" d="M129.28,105.22H55.92c-.45-.09-.74-.52-.66-.97,.06-.33,.32-.59,.66-.66h73.35c.45-.09,.89,.21,.97,.66s-.21,.89-.66,.97c-.11,.02-.21,.02-.32,0Z"/>
          <rect class="cls-4" x="1.23" y="28.77" width="4.77" height="37.78" rx="2.37" ry="2.37"/>
          <rect class="cls-4" x="1.23" y="98.4" width="4.77" height="37.78" rx="2.37" ry="2.37"/>
          <path class="cls-17" d="M88.76,162.87h0c0,1.85-1.5,3.35-3.35,3.35H38.92c-1.85,0-3.35-1.5-3.35-3.35h0c0-1.85,1.5-3.35,3.35-3.35h46.48c1.85,0,3.35,1.5,3.35,3.35Z"/>
          <path class="cls-16" d="M114.33,162.87h0c0,1.85-1.5,3.35-3.35,3.35h-46.48c-1.85,0-3.35-1.5-3.35-3.35h0c0-1.85,1.5-3.35,3.35-3.35h46.48c1.85,0,3.35,1.5,3.35,3.35Z"/>
          <path class="cls-28" d="M.83,143.62C.37,143.62,0,143.25,0,142.79H0V74.3C0,73.84,.37,73.47,.83,73.47s.83,.37,.83,.83h0v68.5c0,.46-.37,.83-.83,.83h0Z"/>
          <path class="cls-28" d="M17.4,167.42H.83C.37,167.42,0,167.05,0,166.59H0v-16.2C0,149.93,.37,149.56,.83,149.56s.83,.37,.83,.83h0v15.37h15.74c.46,0,.83,.37,.83,.83s-.37,.83-.83,.83Z"/>
          <path class="cls-28" d="M139.27,56.68c-.46,0-.83-.37-.83-.83h0V28.98H64.87c-.46,0-.83-.37-.83-.83,0-.46,.37-.83,.83-.83h74.4c.46,0,.83,.37,.83,.83h0v27.67c.02,.46-.34,.84-.8,.86-.01,0-.02,0-.03,0Z"/>
          <path class="cls-28" d="M59.21,28.98h-22.32c-.46,0-.83-.37-.83-.83,0-.46,.37-.83,.83-.83h22.32c.46,0,.83,.37,.83,.83,0,.46-.37,.83-.83,.83h0Z"/>
          <path class="cls-28" d="M.83,69.32c-.46,0-.83-.37-.83-.83H0V28.15c0-.46,.37-.83,.83-.83H28.5c.46,0,.83,.37,.83,.83,0,.46-.37,.83-.83,.83H1.66v39.51c0,.46-.37,.83-.83,.83h0Z"/>
          <path class="cls-29" d="M23.15,48.07c-.07,.03-.15,.03-.22,0-.21-.11-.3-.37-.19-.58,0,0,0,0,0,0l3.44-6.15c.13-.21,.4-.27,.61-.15,.15,.16,.15,.42,0,.58l-3.44,6.15c-.05,.07-.13,.13-.22,.15Z"/>
          <path class="cls-29" d="M24.07,51.39h-.22c-.15-.16-.15-.42,0-.58l2.52-4.61c.18-.16,.44-.16,.61,0,.18,.14,.24,.38,.15,.58l-2.55,4.4c-.06,.19-.27,.3-.46,.24-.02,0-.04-.01-.06-.02Z"/>
          <path class="cls-28" d="M130.63,159.61H11.34c-.46,0-.83-.37-.83-.83h0V74.45c0-.46,.37-.83,.83-.83h0c.45,.02,.81,.38,.83,.83v83.5h117.62V37.34H12.3v31.3c-.02,.45-.38,.81-.83,.83-.46,0-.83-.37-.83-.83h0V36.51c0-.46,.37-.83,.83-.83h119.28c.46,0,.83,.37,.83,.83h0v122.27c0,.46-.36,.83-.82,.84-.04,0-.09,0-.13,0Z"/>
          <path class="cls-28" d="M139.27,167.42H27.67c-.46,0-.83-.37-.83-.83s.37-.83,.83-.83h110.68V65.38c0-.46,.37-.83,.83-.83s.83,.37,.83,.83v101.21c0,.42-.32,.78-.74,.83Z"/>
        </g>
        <path class="cls-13" d="M102.96,81.64H243.86c2.87,.08,5.15,2.42,5.16,5.29V250.49c0,3.7-3,6.7-6.7,6.7H102.96V81.64h0Z"/>
        <path class="cls-34" d="M113.38,256.3h-44.58V87.45c.02-3.2,2.61-5.78,5.81-5.78h38.77"/>
        <path class="cls-19" d="M113.38,254.76h-25.89c-4.39,.23-8.8,.23-13.19,0-1.97-.02-3.63-1.47-3.94-3.41-.4-4.83-.4-9.68,0-14.51V89.48c-.14-1.24-.14-2.48,0-3.72,1.01-4,8.27-2.55,10.98-2.55h30.16c.85-.17,1.4-1,1.23-1.85-.12-.62-.61-1.1-1.23-1.23h-28.16c-5.56,0-15.74-2.03-16.11,6.15-.61,14.33,0,28.84,0,43.04,0,40.46-.46,80.95,0,121.41-.36,2.58,.85,5.13,3.07,6.49,3.07,1.54,8.09,.61,11.31,.61h31.76c.85-.17,1.4-1,1.23-1.85-.12-.62-.61-1.1-1.23-1.23Z"/>
        <path class="cls-19" d="M211.94,145.41h36.89c.85-.17,1.4-1,1.23-1.85-.12-.62-.61-1.1-1.23-1.23h-36.89c-.85,.17-1.4,1-1.23,1.85,.12,.62,.61,1.1,1.23,1.23Z"/>
        <circle class="cls-31" cx="141.82" cy="121.52" r="9.04"/>
        <circle class="cls-31" cx="141.97" cy="121.36" r="9.04"/>
        <path class="cls-19" d="M150.03,121.98c-.05,4.53-3.76,8.17-8.29,8.12-4.53-.05-8.17-3.76-8.12-8.29,.05-4.53,3.76-8.17,8.29-8.12,.49,0,.97,.05,1.45,.14,3.87,.76,6.66,4.15,6.67,8.09,0,.46,.37,.83,.83,.83s.83-.37,.83-.83c-.05-4.09-2.58-7.74-6.39-9.22-5.09-1.9-10.76,.68-12.66,5.77-1.9,5.09,.68,10.76,5.77,12.66s10.76-.68,12.66-5.77c.41-1.1,.62-2.26,.62-3.44-.02-.46-.4-.82-.86-.8s-.82,.4-.8,.86Z"/>
        <path class="cls-19" d="M225.81,112.11v20.17c0,.58,.47,1.05,1.05,1.05s1.05-.47,1.05-1.05v-20.17c0-.58-.47-1.05-1.05-1.05s-1.05,.47-1.05,1.05Z"/>
        <path class="cls-19" d="M230.27,112.11v20.17c.1,.59,.66,.98,1.24,.88,.45-.08,.8-.43,.88-.88v-20.17c-.1-.59-.66-.98-1.24-.88-.45,.08-.8,.43-.88,.88Z"/>
        <path class="cls-19" d="M234.76,112.11v20.17c.2,.54,.79,.83,1.34,.63,.29-.11,.53-.34,.63-.63v-20.17c0-.58-.47-1.05-1.05-1.05s-1.05,.47-1.05,1.05h.12Z"/>
        <path class="cls-19" d="M221.35,115.55v16.72c0,.58,.47,1.05,1.05,1.05s1.05-.47,1.05-1.05v-16.72c0-.58-.47-1.05-1.05-1.05s-1.05,.47-1.05,1.05Z"/>
        <path class="cls-19" d="M225.81,154.2v20.17c0,.58,.47,1.05,1.05,1.05s1.05-.47,1.05-1.05v-20.17c0-.58-.47-1.05-1.05-1.05s-1.05,.47-1.05,1.05Z"/>
        <path class="cls-19" d="M230.27,154.2v20.17c.1,.59,.66,.98,1.24,.88,.45-.08,.8-.43,.88-.88v-20.17c-.1-.59-.66-.98-1.24-.88-.45,.08-.8,.43-.88,.88Z"/>
        <path class="cls-19" d="M234.76,154.2v20.17c0,.58,.47,1.05,1.05,1.05s1.05-.47,1.05-1.05v-20.17c0-.58-.47-1.05-1.05-1.05s-1.05,.47-1.05,1.05Z"/>
        <path class="cls-19" d="M221.35,157.64v16.72c0,.58,.47,1.05,1.05,1.05s1.05-.47,1.05-1.05v-16.72c0-.58-.47-1.05-1.05-1.05s-1.05,.47-1.05,1.05Z"/>
        <path class="cls-19" d="M225.81,198.04v20.32c0,.58,.47,1.05,1.05,1.05s1.05-.47,1.05-1.05v-20.32c0-.58-.47-1.05-1.05-1.05s-1.05,.47-1.05,1.05Z"/>
        <path class="cls-19" d="M230.27,198.04v20.32c.1,.59,.66,.98,1.24,.88,.45-.08,.8-.43,.88-.88v-20.32c-.1-.59-.66-.98-1.24-.88-.45,.08-.8,.43-.88,.88Z"/>
        <path class="cls-19" d="M234.76,198.04v20.32c.2,.54,.79,.83,1.34,.63,.29-.11,.53-.34,.63-.63v-20.32c0-.58-.47-1.05-1.05-1.05s-1.05,.47-1.05,1.05h.12Z"/>
        <path class="cls-19" d="M221.35,201.48v16.88c0,.58,.47,1.05,1.05,1.05s1.05-.47,1.05-1.05v-16.88c0-.58-.47-1.05-1.05-1.05s-1.05,.47-1.05,1.05Z"/>
        <path class="cls-4" d="M141.14,116.41c3.4,0,6.15,2.75,6.15,6.15,0,.34,.28,.61,.61,.61s.61-.28,.61-.61c-.03-1.95-.81-3.81-2.18-5.2-1.38-1.38-3.25-2.15-5.2-2.15-.34,0-.61,.28-.61,.61s.28,.61,.61,.61v-.03Z"/>
        <circle class="cls-31" cx="141.97" cy="165.48" r="9.04"/>
        <path class="cls-4" d="M141.14,159.73c3.4,0,6.15,2.75,6.15,6.15,0,.34,.28,.61,.61,.61s.61-.28,.61-.61c-.02-4.07-3.31-7.36-7.38-7.38-.34,0-.61,.28-.61,.61s.28,.61,.61,.61Z"/>
        <path class="cls-34" d="M117.65,134.74v-30.47l-2.71,2.71h65.82c1.49,0,2.7-1.21,2.7-2.71,0-1.49-1.21-2.7-2.7-2.7H114.95c-1.49,.02-2.69,1.22-2.71,2.71v30.47c0,1.49,1.21,2.7,2.71,2.7,1.49,0,2.7-1.21,2.7-2.7Z"/>
        <path class="cls-34" d="M117.65,176.7v-30.47l-2.71,2.71h65.82c1.49,0,2.7-1.21,2.7-2.71,0-1.49-1.21-2.7-2.7-2.7H114.95c-1.49,.02-2.69,1.22-2.71,2.71v30.47c0,1.49,1.21,2.7,2.71,2.7,1.49,0,2.7-1.21,2.7-2.7Z"/>
        <path class="cls-34" d="M114.95,192.72H247.3c1.49,0,2.7-1.21,2.7-2.71,0-1.49-1.21-2.7-2.7-2.7H115.1c-1.49,0-2.7,1.21-2.7,2.71,0,1.49,1.21,2.7,2.7,2.7h-.15Z"/>
        <path class="cls-34" d="M114.95,239.42H247.3c1.49,0,2.71-1.21,2.71-2.71s-1.21-2.71-2.71-2.71H115.1c-1.49,0-2.71,1.21-2.71,2.71s1.21,2.71,2.71,2.71h-.15Z"/>
        <path class="cls-19" d="M247.48,157.73v47.62c.17,.85,1,1.4,1.85,1.23,.62-.12,1.1-.61,1.23-1.23v-47.62c-.17-.85-1-1.4-1.85-1.23-.62,.12-1.1,.61-1.23,1.23Z"/>
        <path class="cls-19" d="M113.2,102.89h31.3c.85-.17,1.4-1,1.23-1.85-.12-.62-.61-1.1-1.23-1.23h-31.3c-.85,.17-1.4,1-1.23,1.85,.12,.62,.61,1.1,1.23,1.23Z"/>
        <path class="cls-19" d="M150.03,165.3c-.01,4.53-3.7,8.2-8.23,8.19s-8.2-3.7-8.19-8.23,3.7-8.2,8.23-8.19c.51,0,1.02,.05,1.51,.15,3.87,.76,6.66,4.15,6.67,8.09,0,.46,.37,.83,.83,.83s.83-.37,.83-.83c-.06-4.09-2.59-7.74-6.39-9.22-5.09-1.9-10.76,.68-12.66,5.77-1.9,5.09,.68,10.76,5.77,12.66s10.76-.68,12.66-5.77c.41-1.1,.62-2.26,.62-3.44,0-.46-.37-.83-.83-.83-.46,0-.83,.37-.83,.83Z"/>
        <circle class="cls-31" cx="141.51" cy="207.78" r="9.04"/>
        <path class="cls-4" d="M140.68,202.03c3.4,0,6.15,2.75,6.15,6.15-.08,.33,.13,.66,.46,.74,.33,.08,.66-.13,.74-.46,.02-.09,.02-.18,0-.27,0-1.95-.77-3.82-2.15-5.2-1.38-1.37-3.25-2.14-5.2-2.15-.34,0-.61,.28-.61,.61s.28,.61,.61,.61h0v-.03Z"/>
        <path class="cls-19" d="M150.03,207.72c-.01,4.53-3.7,8.2-8.23,8.19-4.53-.01-8.2-3.7-8.19-8.23s3.7-8.2,8.23-8.19c.51,0,1.02,.05,1.51,.15,3.87,.76,6.66,4.15,6.67,8.09,0,.46,.37,.83,.83,.83s.83-.37,.83-.83c-.06-4.09-2.59-7.74-6.39-9.22-5.09-1.9-10.76,.68-12.66,5.77-1.9,5.09,.68,10.76,5.77,12.66,5.09,1.9,10.76-.68,12.66-5.77,.41-1.1,.62-2.26,.62-3.44,0-.46-.37-.83-.83-.83-.46,0-.83,.37-.83,.83Z"/>
        <path class="cls-19" d="M113.2,187.95H247.76c.85-.17,1.4-1,1.23-1.85-.12-.62-.61-1.1-1.23-1.23H113.2c-.85,.17-1.4,1-1.23,1.85,.12,.62,.61,1.1,1.23,1.23Z"/>
        <path class="cls-19" d="M113.2,145.41h88.23c.85-.17,1.4-1,1.23-1.85-.12-.62-.61-1.1-1.23-1.23H113.2c-.85,.17-1.4,1-1.23,1.85,.12,.62,.61,1.1,1.23,1.23Z"/>
        <path class="cls-19" d="M153.35,102.89h94.63c.85-.17,1.4-1,1.23-1.85-.12-.62-.61-1.1-1.23-1.23h-94.63c-.85,.17-1.4,1-1.23,1.85,.12,.62,.61,1.1,1.23,1.23Z"/>
        <circle class="cls-7" cx="164.6" cy="208.64" r="4.86"/>
        <circle class="cls-7" cx="182.65" cy="208.64" r="4.86"/>
        <circle class="cls-7" cx="200.69" cy="208.64" r="4.86"/>
        <circle class="cls-34" cx="164.6" cy="165.2" r="4.86"/>
        <circle class="cls-34" cx="182.65" cy="165.2" r="4.86"/>
        <circle class="cls-34" cx="200.69" cy="165.2" r="4.86"/>
        <path class="cls-19" d="M167.83,162.74c1,1.28,1.16,3.02,.4,4.46-.66,1.23-1.9,2.03-3.29,2.12-2.26,.11-4.17-1.64-4.28-3.89-.03-.6,.08-1.21,.31-1.76,.66-1.47,2.11-2.41,3.72-2.43,.45-.09,.74-.52,.66-.97-.06-.33-.32-.59-.66-.66-3.14,0-5.68,2.55-5.68,5.7,0,.93,.23,1.85,.67,2.67,1.7,2.64,5.21,3.4,7.85,1.71s3.4-5.21,1.71-7.85c-.21-.39-.7-.53-1.08-.32,0,0-.02,0-.02,.01-.37,.24-.5,.71-.31,1.11v.12Z"/>
        <path class="cls-19" d="M178.68,165.3c-.02-2.24,1.78-4.07,4.02-4.1s4.07,1.78,4.1,4.02c0,.75-.2,1.49-.58,2.13-.73,1.22-2.05,1.97-3.47,1.97-.46,0-.83,.37-.83,.83s.37,.83,.83,.83c3.14,0,5.69-2.55,5.69-5.69s-2.55-5.69-5.69-5.69-5.69,2.55-5.69,5.69h0c.09,.45,.52,.74,.97,.66,.33-.06,.59-.32,.66-.66Z"/>
        <path class="cls-19" d="M197.43,163.02c1.32-1.81,3.86-2.2,5.67-.88s2.2,3.86,.88,5.67c-1.32,1.81-3.86,2.2-5.67,.88-.34-.25-.63-.54-.88-.88-.17-.43-.65-.64-1.08-.47-.43,.17-.64,.65-.47,1.08,.03,.08,.08,.16,.13,.22,1.84,2.53,5.37,3.09,7.9,1.25s3.09-5.37,1.25-7.9-5.37-3.09-7.9-1.25c-.55,.4-1.03,.9-1.41,1.48-.58,.86,.83,1.66,1.41,.8h.15Z"/>
        <circle class="cls-19" cx="179.11" cy="168.71" r="1.23"/>
        <circle class="cls-7" cx="164.6" cy="122.78" r="4.86"/>
        <circle class="cls-7" cx="182.65" cy="122.78" r="4.86"/>
        <circle class="cls-7" cx="200.69" cy="122.78" r="4.86"/>
        <path class="cls-19" d="M167.83,120.35c1.41,1.74,1.14,4.3-.61,5.71-1.74,1.41-4.3,1.14-5.71-.61-1.41-1.74-1.14-4.3,.61-5.71,.74-.6,1.68-.92,2.63-.9,1.05,0,1.05-1.66,0-1.63-3.12-.01-5.67,2.51-5.68,5.63,0,.94,.23,1.87,.67,2.7,.89,1.75,2.63,2.91,4.58,3.07,1.97,.1,3.85-.85,4.95-2.49,1.44-1.99,1.44-4.68,0-6.67-.29-.35-.81-.41-1.17-.11-.28,.23-.38,.61-.25,.94l-.03,.06Z"/>
        <path class="cls-19" d="M178.68,122.87c0-2.24,1.81-4.06,4.05-4.07s4.06,1.81,4.07,4.05c0,.74-.2,1.47-.58,2.1-.74,1.21-2.05,1.95-3.47,1.97-.45,.09-.74,.52-.66,.97,.06,.33,.32,.59,.66,.66,3.14,0,5.69-2.55,5.69-5.69s-2.55-5.69-5.69-5.69-5.69,2.55-5.69,5.69h0c.09,.45,.52,.74,.97,.66,.33-.06,.59-.32,.66-.66Z"/>
        <path class="cls-19" d="M197.43,120.6c1.32-1.81,3.85-2.22,5.67-.9,1.81,1.32,2.22,3.85,.9,5.67-1.32,1.81-3.85,2.22-5.67,.9-.35-.25-.65-.56-.9-.9-.24-.37-.72-.49-1.11-.28-.39,.21-.53,.7-.32,1.08,0,0,0,.02,.01,.02,1.84,2.53,5.37,3.09,7.9,1.25s3.09-5.37,1.25-7.9-5.37-3.09-7.9-1.25c-.55,.4-1.03,.9-1.41,1.48-.58,.86,.83,1.69,1.41,.83h.15Z"/>
        <circle class="cls-19" cx="179.11" cy="126.31" r="1.23"/>
        <path class="cls-19" d="M168.72,207.72c-.02,2.22-1.83,4.01-4.06,4-2.22-.02-4.01-1.83-4-4.06,.02-2.22,1.83-4.01,4.06-4,.23,0,.45,.02,.68,.06,1.92,.37,3.31,2.04,3.32,4,0,1.05,1.66,1.05,1.63,0-.01-2.38-1.49-4.51-3.72-5.35-2.95-1.09-6.22,.42-7.3,3.37-1.09,2.95,.42,6.22,3.37,7.3,2.95,1.09,6.22-.42,7.3-3.37,.23-.63,.35-1.29,.35-1.95-.09-.45-.52-.74-.97-.66-.33,.06-.59,.32-.66,.66Z"/>
        <path class="cls-19" d="M186.77,207.72c-.02,2.22-1.83,4.01-4.06,4-2.22-.02-4.01-1.83-4-4.06,.02-2.22,1.83-4.01,4.06-4,.23,0,.45,.02,.68,.06,1.93,.36,3.32,2.04,3.32,4,0,1.05,1.66,1.05,1.63,0,0-3.12-2.54-5.65-5.67-5.65-3.12,0-5.65,2.54-5.65,5.67,0,3.12,2.54,5.65,5.67,5.65,.36,0,.71-.04,1.06-.1,2.64-.55,4.55-2.86,4.58-5.56-.09-.45-.52-.74-.97-.66-.33,.06-.59,.32-.66,.66Z"/>
        <path class="cls-19" d="M204.81,207.72c0,1.68-1.04,3.18-2.61,3.78-1.64,.59-3.47,.09-4.58-1.26-1.42-1.73-1.17-4.29,.56-5.71,1.73-1.42,4.29-1.17,5.71,.56,.61,.74,.93,1.67,.92,2.63,0,.46,.37,.83,.83,.83s.83-.37,.83-.83c-.01-2.34-1.41-4.44-3.57-5.35-2.95-1.09-6.22,.42-7.3,3.37-1.09,2.95,.42,6.22,3.37,7.3,2.95,1.09,6.22-.42,7.3-3.37,.23-.63,.35-1.29,.35-1.95,0-.5-.41-.91-.91-.91s-.91,.41-.91,.91Z"/>
        <path class="cls-19" d="M101.02,96.62h-.22c-.14-.13-.14-.34-.01-.48,0,0,0,0,.01-.01l5.44-7.78c.13-.14,.34-.14,.48-.01,0,0,0,0,.01,.01,.14,.13,.14,.34,.01,.48,0,0,0,0-.01,.01l-5.29,7.62c-.09,.14-.27,.21-.43,.15Z"/>
        <path class="cls-19" d="M103.88,96.03c-.06,.03-.13,.03-.18,0-.14-.13-.14-.34-.01-.48,0,0,0,0,.01-.01l2.89-4.03c.11-.13,.31-.14,.43-.03,0,0,.02,.02,.03,.03,.13,.11,.14,.31,.03,.43,0,0-.02,.02-.03,.03l-2.89,4.06c-.09,.04-.19,.04-.28,0Z"/>
        <path class="cls-19" d="M113.2,234.65h57.89c.85-.17,1.4-1,1.23-1.85-.12-.62-.61-1.1-1.23-1.23h-57.89c-.85,.17-1.4,1-1.23,1.85,.12,.62,.61,1.1,1.23,1.23Z"/>
        <path class="cls-19" d="M190.61,234.65h57.98c.85-.17,1.4-1,1.23-1.85-.12-.62-.61-1.1-1.23-1.23h-57.98c-.85,.17-1.4,1-1.23,1.85,.12,.62,.61,1.1,1.23,1.23Z"/>
        <polyline class="cls-30" points="531.89 252.58 531.89 228.87 646.62 228.87 646.62 252.58 634.48 252.58"/>
        <rect class="cls-30" x="565.52" y="199.18" width="54.23" height="30.16"/>
        <path class="cls-19" d="M619.75,227.77h-54.08l1.54,1.57v-30.16l-1.54,1.57h54.23l-1.57-1.57v30.16c.17,.85,1,1.4,1.85,1.23,.62-.12,1.1-.61,1.23-1.23v-30.16c-.03-.85-.72-1.54-1.57-1.57h-54.17c-.86,.02-1.55,.71-1.57,1.57v30.16c.02,.85,.71,1.54,1.57,1.54h54.23c.85-.16,1.42-.97,1.26-1.82-.13-.7-.71-1.22-1.41-1.28Z"/>
        <path class="cls-30" d="M650.53,198.16h-214.19c-3.4,0-6.15-2.75-6.15-6.15V7.86c0-3.4,2.75-6.15,6.15-6.15h306.76c3.4,0,6.15,2.75,6.15,6.15V192.07c0,3.4-2.75,6.15-6.15,6.15h-42.83"/>
        <path class="cls-19" d="M722.25,3.34h13.43c4.21,0,11.44-1.38,12.05,4.55,.34,3.38,0,6.98,0,10.39V190.44c0,3.07-.92,5.87-4.8,6.15-3.87,.28-8.27,0-12.3,0h-30.34c-.85,.17-1.4,1-1.23,1.85,.12,.62,.61,1.1,1.23,1.23h27.82c7.04,0,22.1,2.86,22.75-7.66,.74-11.9,0-24.07,0-35.97V20.03c0-4,.18-8.02,0-12.02-.02-4.4-3.59-7.95-7.99-7.93-.03,0-.06,0-.09,0-5.29-.18-10.61,0-15.89,0h-4.64c-.85,.17-1.4,1-1.23,1.85,.12,.62,.61,1.1,1.23,1.23v.18Z"/>
        <path class="cls-19" d="M436.34,196.13c-.29,.03-.57,.03-.86,0h.52c-.55-.09-1.09-.25-1.6-.46l.49,.22c-.47-.2-.91-.46-1.32-.77l.4,.31c-.42-.33-.81-.71-1.14-1.14l.31,.4c-.31-.41-.57-.85-.77-1.32l.22,.49c-.2-.48-.35-.99-.43-1.51v-.31c-.14-1.11-1.15-1.9-2.26-1.76-.92,.11-1.65,.84-1.76,1.76,.02,2.15,.88,4.2,2.4,5.72,1.55,1.52,3.64,2.38,5.81,2.4,1.12,0,2.03-.91,2.03-2.03,0-1.12-.91-2.03-2.03-2.03v.03Z"/>
        <rect class="cls-32" x="553.81" y="199.18" width="54.23" height="30.16"/>
        <rect class="cls-27" x="553.81" y="199.18" width="54.23" height="30.16"/>
        <path class="cls-21" d="M558.08,205.82l38.34,.25h5.53c2.55,0,4.61-2.06,4.61-4.61s-2.06-4.61-4.61-4.61h-43.93c-2.55,0-4.61,2.06-4.61,4.61s2.06,4.61,4.61,4.61l.06-.25Z"/>
        <path class="cls-27" d="M732.03,198.16H428.56c-4.83-.02-8.74-3.93-8.76-8.76V9.7c0-4.74,3.84-8.58,8.58-8.58t0,0h303.65c3.8-.02,6.9,3.05,6.92,6.86,0,.01,0,.02,0,.03V191.27c-.02,3.81-3.11,6.89-6.92,6.89Z"/>
        <rect class="cls-18" x="433.91" y="14.69" width="290.95" height="169.95" rx="6.12" ry="6.12"/>
        <path class="cls-21" d="M723.97,19.91v8.7c0-3.4-2.75-6.15-6.15-6.15H439.14c-3.4,0-6.15,2.75-6.15,6.15v-8.7c0-3.4,2.75-6.15,6.15-6.15h278.75c3.37,.03,6.09,2.78,6.09,6.15Z"/>
        <path class="cls-19" d="M555.35,208.77v-9.59l-1.54,1.57h54.23l-1.57-1.57v30.16l1.57-1.57h-54.23l1.54,1.57v-12.88c-.17-.85-1-1.4-1.85-1.23-.62,.12-1.1,.61-1.23,1.23v12.88c.02,.85,.71,1.54,1.57,1.54h54.23c.84-.02,1.52-.7,1.54-1.54v-30.16c-.02-.85-.69-1.54-1.54-1.57h-54.26c-.86,.02-1.55,.71-1.57,1.57v9.59c.17,.85,1,1.4,1.85,1.23,.62-.12,1.1-.61,1.23-1.23h.03Z"/>
        <rect class="cls-27" x="518.92" y="228.87" width="114.73" height="23.67"/>
        <polygon class="cls-5" points="563.22 185.25 540.44 185.25 582.19 15.91 605 15.91 563.22 185.25"/>
        <polygon class="cls-5" points="587.66 185.25 577.39 185.25 619.14 15.91 629.41 15.91 587.66 185.25"/>
        <path class="cls-21" d="M467.76,193.37h49.53c2.55,0,4.61-2.06,4.61-4.61s-2.06-4.61-4.61-4.61h-49.53c-2.55,0-4.61,2.06-4.61,4.61s2.06,4.61,4.61,4.61Z"/>
        <path class="cls-21" d="M535.24,193.37h17.55c2.55,0,4.61-2.06,4.61-4.61s-2.06-4.61-4.61-4.61h-17.55c-2.55,0-4.61,2.06-4.61,4.61s2.06,4.61,4.61,4.61Z"/>
        <path class="cls-19" d="M517.5,3.34h215.23c3.38,.25,4.52,2.71,4.64,5.56,.52,12.02,0,24.16,0,36.18V186.91c0,4,.89,9.22-4.83,9.68-7.29,.52-14.76,0-22.07,0h-35.94c-.85,.17-1.4,1-1.23,1.85,.12,.62,.61,1.1,1.23,1.23h52.08c5.93,0,13.53,.34,13.87-7.81V13.3c0-3.69,.65-8.02-2.24-10.85s-6.55-2.37-10.18-2.37h-210.56c-.85,.17-1.4,1-1.23,1.85,.12,.62,.61,1.1,1.23,1.23v.18Z"/>
        <path class="cls-19" d="M664.79,196.59h-235.59c-3.75,0-7.53,0-7.84-5.1-.8-13.19,0-26.65,0-39.97V20.65c0-4.09-.31-8.3,0-12.3,.49-6.76,10.11-4.92,14.88-4.92h68.68c.85-.17,1.4-1,1.23-1.85-.12-.62-.61-1.1-1.23-1.23h-55.34c-7.69,0-15.37-.28-23.12,0-6.52,.25-8.09,5.26-8.09,10.61V186.91c0,5.16-.37,11.41,6.15,12.67,2.73,.25,5.48,.25,8.21,0h232.02c.85-.17,1.4-1,1.23-1.85-.12-.62-.61-1.1-1.23-1.23l.03,.09Z"/>
        <path class="cls-19" d="M723.3,88.99v83.01c.24,2.52,.16,5.06-.25,7.56-1.26,4.7-7.93,3.5-11.71,3.5h-54.57c-.85,.17-1.4,1-1.23,1.85,.12,.62,.61,1.1,1.23,1.23h52.66c3.42,.23,6.85,.23,10.27,0,5.01-.74,6.7-4.95,6.7-9.41V88.99c-.17-.85-1-1.4-1.85-1.23-.62,.12-1.1,.61-1.23,1.23h-.03Z"/>
        <path class="cls-19" d="M484.24,16.25h192.51c13.74,0,27.67-.74,41.41,0,3.75,.18,5.13,3.07,5.13,6.15v54.14c.17,.85,1,1.4,1.85,1.23,.62-.12,1.1-.61,1.23-1.23V27.35c0-3.07,.65-7.38-.89-10.24-2.67-4.95-8.61-4.06-13.31-4.06h-212.77c-4.83-.26-9.68-.26-14.51,0h-.65c-.85,.17-1.4,1-1.23,1.85,.12,.62,.61,1.1,1.23,1.23v.12Z"/>
        <path class="cls-21" d="M523,237.76h21.15c2.55,0,4.61-2.06,4.61-4.61s-2.06-4.61-4.61-4.61h-21.06c-2.55,0-4.61,2.06-4.61,4.61s2.06,4.61,4.61,4.61h-.09Z"/>
        <path class="cls-19" d="M533.27,230.44h100.41l-1.57-1.57v23.7l1.57-1.57h-83.01c-.85,.17-1.4,1-1.23,1.85,.12,.62,.61,1.1,1.23,1.23h83.01c.84-.02,1.52-.7,1.54-1.54v-23.67c-.02-.84-.7-1.52-1.54-1.54h-100.41c-.85,.17-1.4,1-1.23,1.85,.12,.62,.61,1.1,1.23,1.23v.03Z"/>
        <path class="cls-19" d="M520.48,235.67v-6.79l-1.57,1.57h8.42c.85,.17,1.68-.38,1.85-1.23,.17-.85-.38-1.68-1.23-1.85-.2-.04-.41-.04-.62,0h-8.42c-.84,.02-1.52,.7-1.54,1.54v6.79c-.17,.85,.38,1.68,1.23,1.85,.85,.17,1.68-.38,1.85-1.23,.04-.2,.04-.41,0-.62l.03-.03Z"/>
        <path class="cls-19" d="M537.52,251.01h-18.6l1.57,1.57v-12.3c-.17-.85-1-1.4-1.85-1.23-.62,.12-1.1,.61-1.23,1.23v12.3c.02,.84,.7,1.52,1.54,1.54h18.6c.85-.17,1.4-1,1.23-1.85-.12-.62-.61-1.1-1.23-1.23l-.03-.03Z"/>
        <path class="cls-19" d="M435.45,45.46V21.17c-.14-2.58,1.84-4.78,4.42-4.91,.06,0,.13,0,.19,0h30.01c.85-.17,1.4-1,1.23-1.85-.12-.62-.61-1.1-1.23-1.23h-30.04c-3.83,.05-7.07,2.85-7.66,6.64-.25,3.9-.25,7.81,0,11.71v13.99c.17,.85,1,1.4,1.85,1.23,.62-.12,1.1-.61,1.23-1.23v-.06Z"/>
        <path class="cls-19" d="M435.45,91.76V54.13c-.17-.85-1-1.4-1.85-1.23-.62,.12-1.1,.61-1.23,1.23v37.63c.17,.85,1,1.4,1.85,1.23,.62-.12,1.1-.61,1.23-1.23Z"/>
        <path class="cls-19" d="M435.45,145.87v-44.85c-.17-.85-1-1.4-1.85-1.23-.62,.12-1.1,.61-1.23,1.23v44.85c.17,.85,1,1.4,1.85,1.23,.62-.12,1.1-.61,1.23-1.23Z"/>
        <path class="cls-19" d="M640.26,183.07h-190.61c-3.07,0-6.33,.25-9.44,0-5.96-.46-4.67-7.44-4.67-11.62v-13.13c-.17-.85-1-1.4-1.85-1.23-.62,.12-1.1,.61-1.23,1.23v11.62c-.46,3.77-.28,7.6,.52,11.31,1.88,4.95,6.55,4.92,10.88,4.92h196.51c.85-.17,1.4-1,1.23-1.85-.12-.62-.61-1.1-1.23-1.23l-.12-.03Z"/>
        <path class="cls-4" d="M443.23,40.42v22.47c-.18,1.91,1.22,3.6,3.13,3.79s3.6-1.22,3.79-3.13c.02-.22,.02-.44,0-.65v-22.47c-.02-1.89-1.55-3.43-3.44-3.44-1.9,.03-3.44,1.57-3.47,3.47v-.03Z"/>
        <circle class="cls-4" cx="446.76" cy="75.25" r="4.77"/>
        <path class="cls-4" d="M423.55,20.74v22.38c-.31,1.89,.97,3.68,2.86,3.99s3.68-.97,3.99-2.86c.06-.37,.06-.75,0-1.13V20.74c0-1.91-1.54-3.46-3.44-3.47-1.9,.03-3.44,1.57-3.47,3.47h.06Z"/>
        <circle class="cls-4" cx="427.09" cy="55.57" r="4.77"/>
        <circle class="cls-2" cx="115.47" cy="263.4" r="3.72"/>
        <rect class="cls-21" x="563.28" y="48.99" width="55.52" height="42.03"/>
        <rect class="cls-4" x="558.21" y="48.99" width="55.52" height="42.03"/>
        <path class="cls-29" d="M570.04,66.43c-3.21,.02-5.82-2.57-5.84-5.78-.02-3.21,2.57-5.82,5.78-5.84s5.82,2.57,5.84,5.78c0,.01,0,.02,0,.03,0,3.2-2.58,5.79-5.78,5.81Zm0-9.81c-2.21,0-4,1.79-4,4,0,2.21,1.79,4,4,4,2.21,0,4-1.79,4-4s-1.79-4-4-4h0Z"/>
        <path class="cls-29" d="M602.94,72.85h-37.26c-.31,.02-.57-.22-.58-.52,0-.02,0-.04,0-.06,0-.32,.26-.58,.58-.58h37.29c.32,0,.58,.26,.58,.58h0c.02,.31-.21,.57-.52,.59-.03,0-.06,0-.1,0Z"/>
        <path class="cls-29" d="M586.24,76.94h-20.57c-.32,0-.58-.26-.58-.58h0c-.02-.32,.23-.6,.55-.61,.01,0,.02,0,.03,0h20.6c.33,.02,.58,.29,.58,.61-.02,.33-.29,.58-.61,.58Z"/>
        <rect class="cls-21" x="563.28" y="113.62" width="55.52" height="42.03"/>
        <rect class="cls-4" x="558.21" y="113.62" width="55.52" height="42.03"/>
        <path class="cls-29" d="M570.04,131.05c-3.21,.02-5.82-2.57-5.84-5.78-.02-3.21,2.57-5.82,5.78-5.84,3.21-.02,5.82,2.57,5.84,5.78,0,.01,0,.02,0,.03,0,3.2-2.58,5.79-5.78,5.81Zm0-9.81c-2.21,0-4,1.79-4,4,0,2.21,1.79,4,4,4,2.21,0,4-1.79,4-4s-1.79-4-4-4h0Z"/>
        <path class="cls-29" d="M602.94,137.47h-37.26c-.31,.02-.57-.22-.58-.52,0-.02,0-.04,0-.06,0-.32,.26-.58,.58-.58h37.29c.32,0,.58,.26,.58,.58h0c.02,.31-.21,.57-.52,.59-.03,0-.06,0-.1,0Z"/>
        <path class="cls-29" d="M586.24,141.69h-20.57c-.32,0-.58-.26-.58-.58,0-.01,0-.02,0-.03,0-.32,.26-.58,.58-.58h20.6c.32,.02,.57,.27,.58,.58,0,.34-.28,.61-.61,.61Z"/>
        <rect class="cls-21" x="644.59" y="113.62" width="55.52" height="42.03"/>
        <rect class="cls-4" x="639.52" y="113.62" width="55.52" height="42.03"/>
        <path class="cls-29" d="M651.33,131.05c-3.21,0-5.81-2.6-5.81-5.81s2.6-5.81,5.81-5.81,5.81,2.6,5.81,5.81h0c0,3.21-2.6,5.81-5.81,5.81Zm0-9.81c-2.21,0-4,1.79-4,4,0,2.21,1.79,4,4,4,2.21,0,4-1.79,4-4-.02-2.2-1.8-3.98-4-4Z"/>
        <path class="cls-29" d="M684.25,137.47h-37.29c-.32,.02-.6-.23-.61-.55,0-.01,0-.02,0-.03,.02-.33,.29-.58,.61-.58h37.29c.32,.02,.57,.27,.58,.58,0,.32-.26,.58-.58,.58h0Z"/>
        <path class="cls-29" d="M667.53,141.69h-20.57c-.32,0-.58-.26-.58-.58,0-.01,0-.02,0-.03,0-.32,.26-.58,.58-.58h20.57c.33-.08,.66,.13,.74,.46,.08,.33-.13,.66-.46,.74-.09,.02-.18,.02-.27,0Z"/>
        <rect class="cls-21" x="644.59" y="48.99" width="55.52" height="42.03"/>
        <rect class="cls-4" x="639.52" y="48.99" width="55.52" height="42.03"/>
        <path class="cls-29" d="M651.33,66.43c-3.21,0-5.81-2.6-5.81-5.81s2.6-5.81,5.81-5.81c3.21,0,5.81,2.6,5.81,5.81h0c0,3.21-2.6,5.81-5.81,5.81Zm0-9.81c-2.21,0-4,1.79-4,4,0,2.21,1.79,4,4,4,2.21,0,4-1.79,4-4-.02-2.2-1.8-3.98-4-4Z"/>
        <path class="cls-29" d="M684.25,72.85h-37.29c-.32,.02-.6-.23-.61-.55,0-.01,0-.02,0-.03,.02-.33,.29-.58,.61-.58h37.29c.32,.02,.57,.27,.58,.58,0,.32-.26,.58-.58,.58h0Z"/>
        <path class="cls-29" d="M667.53,76.94h-20.57c-.32,0-.58-.26-.58-.58h0c-.02-.32,.23-.6,.55-.61,.01,0,.02,0,.03,0h20.57c.33-.08,.66,.13,.74,.46,.08,.33-.13,.66-.46,.74-.09,.02-.18,.02-.27,0Z"/>
        <rect class="cls-21" x="481.96" y="48.99" width="55.52" height="42.03"/>
        <rect class="cls-4" x="476.92" y="48.99" width="55.52" height="42.03"/>
        <path class="cls-29" d="M534.41,91.73h-4.37c-.49,0-.89-.4-.89-.89,0-.49,.4-.89,.89-.89h4.37c1.3-.02,2.35-1.07,2.37-2.37V51.58c0-1.31-1.06-2.37-2.37-2.37h-4.37c-.49,0-.89-.4-.89-.89,0-.49,.4-.89,.89-.89h4.37c2.28-.02,4.13,1.81,4.15,4.09,0,.02,0,.04,0,.06v36c.02,2.28-1.81,4.13-4.09,4.15-.02,0-.04,0-.06,0Z"/>
        <path class="cls-29" d="M488.82,66.43c-3.21,.02-5.82-2.57-5.84-5.78-.02-3.21,2.57-5.82,5.78-5.84s5.82,2.57,5.84,5.78c0,.01,0,.02,0,.03,0,3.2-2.58,5.79-5.78,5.81Zm0-9.81c-2.21,0-4,1.79-4,4,0,2.21,1.79,4,4,4,2.21,0,4-1.79,4-4s-1.79-4-4-4h0Z"/>
        <path class="cls-29" d="M521.62,72.85h-37.29c-.32,0-.58-.26-.58-.58h0c.02-.32,.27-.57,.58-.58h37.29c.33,0,.6,.26,.61,.58,0,.32-.26,.58-.58,.58-.01,0-.02,0-.03,0Z"/>
        <path class="cls-29" d="M504.93,76.94h-20.6c-.32-.02-.57-.27-.58-.58,0-.33,.26-.6,.58-.61h20.6c.32,0,.58,.26,.58,.58,0,.01,0,.02,0,.03,0,.32-.26,.58-.58,.58h0Z"/>
        <rect class="cls-21" x="481.96" y="113.62" width="55.52" height="42.03"/>
        <rect class="cls-4" x="476.92" y="113.62" width="55.52" height="42.03"/>
        <path class="cls-29" d="M529.74,156.35h-49.8c-2.17,0-3.94-1.76-3.94-3.94v-36.43c-.02-2.17,1.73-3.95,3.9-3.97,.01,0,.02,0,.03,0h49.8c2.18,.02,3.94,1.79,3.94,3.97v36.43c0,2.17-1.76,3.94-3.94,3.94h0Zm-49.8-42.52c-1.19,0-2.15,.96-2.15,2.15v36.43c0,1.19,.96,2.15,2.15,2.15h49.8c1.18-.02,2.14-.97,2.15-2.15v-36.43c0-1.19-.96-2.15-2.15-2.15h-49.8Z"/>
        <path class="cls-29" d="M534.41,156.35h-4.37c-.49,0-.89-.4-.89-.89s.4-.89,.89-.89h4.37c1.3-.02,2.35-1.07,2.37-2.37v-36c0-1.31-1.06-2.37-2.37-2.37h-4.37c-.49,0-.89-.4-.89-.89,0-.5,.39-.91,.89-.92h4.37c2.29,0,4.15,1.86,4.15,4.15,0,.01,0,.02,0,.03v36c.02,2.28-1.81,4.13-4.09,4.15-.02,0-.04,0-.06,0Z"/>
        <path class="cls-29" d="M488.82,131.05c-3.21,.02-5.82-2.57-5.84-5.78-.02-3.21,2.57-5.82,5.78-5.84,3.21-.02,5.82,2.57,5.84,5.78,0,.01,0,.02,0,.03,0,3.2-2.58,5.79-5.78,5.81Zm0-9.81c-2.21,0-4,1.79-4,4,0,2.21,1.79,4,4,4,2.21,0,4-1.79,4-4s-1.79-4-4-4h0Z"/>
        <path class="cls-29" d="M521.62,137.47h-37.29c-.32,0-.58-.26-.58-.58h0c.02-.32,.27-.57,.58-.58h37.29c.33,0,.6,.26,.61,.58,0,.32-.26,.58-.58,.58-.01,0-.02,0-.03,0Z"/>
        <path class="cls-29" d="M504.93,141.69h-20.6c-.33-.02-.58-.29-.58-.61,.02-.32,.27-.57,.58-.58h20.6c.32,0,.58,.26,.58,.58h0c.02,.32-.23,.6-.55,.61-.01,0-.02,0-.03,0Z"/>
        <path class="cls-28" d="M702.88,174.03c-.14,.04-.29,.04-.43,0-.32-.24-.38-.69-.15-1.01l7.01-9.99c.22-.32,.66-.41,.98-.19h0c.33,.21,.42,.65,.21,.98,0,.01-.02,.02-.03,.04l-7.01,9.96c-.15,.16-.37,.24-.58,.22Z"/>
        <path class="cls-28" d="M708.05,174.03c-.14,.04-.29,.04-.43,0-.27-.28-.27-.73,0-1.01l3.69-5.16c.24-.32,.69-.38,1.01-.15,.27,.27,.27,.71,0,.98l-3.69,5.16c-.16,.15-.37,.21-.58,.18Z"/>
        <polygon class="cls-10" points="739.31 211.57 714.78 236.1 714.78 248.49 564.63 248.49 564.63 236.1 601.62 211.57 739.31 211.57"/>
        <polygon class="cls-24" points="714.78 248.49 739.9 248.49 757.95 248.18 758.25 231.21 758.25 227.37 758.25 211.6 739.9 211.57 715 235.82 714.78 248.49"/>
        <path class="cls-19" d="M587.2,242.95h-21.52c-.2,.02-.38-.13-.4-.34,0-.01,0-.02,0-.03,0-.22,.18-.4,.4-.4h21.52c.21,.02,.37,.19,.37,.4,0,.2-.17,.37-.37,.37Z"/>
        <path class="cls-19" d="M756.84,242.95h-21.52c-.2,0-.37-.17-.37-.37-.02-.2,.13-.38,.34-.4,.01,0,.02,0,.03,0h21.52c.22,0,.4,.18,.4,.4h0c0,.2-.16,.37-.37,.37-.01,0-.02,0-.03,0Z"/>
        <path class="cls-4" d="M584.31,227.8c-.38,.01-.74-.17-.95-.49-.36-.52-.23-1.22,.28-1.58,0,0,.02-.01,.02-.02l18.45-12.54c.19-.13,.41-.21,.65-.22h50.82c.64,.1,1.07,.71,.96,1.34-.08,.49-.47,.88-.96,.96h-50.51l-18.14,12.3c-.18,.14-.39,.23-.61,.25Z"/>
        <ellipse class="cls-20" cx="750.23" cy="221.83" rx="2.58" ry="3.29"/>
        <path class="cls-19" d="M750.14,225.68c-2.11,.46-4.19-.88-4.65-2.99s.88-4.19,2.99-4.65c2.11-.46,4.19,.88,4.65,2.99,.06,.26,.09,.53,.09,.8,.18,1.9-1.18,3.6-3.07,3.84Zm0-6.61c-1.14,0-2.06,1.26-2.06,2.77s.92,2.8,2.06,2.8,2.09-1.26,2.09-2.8-.86-2.77-2.09-2.77Z"/>
        <ellipse class="cls-20" cx="744.08" cy="189.34" rx="2.58" ry="3.29"/>
        <path class="cls-19" d="M743.99,193.15c-2.11,.46-4.19-.88-4.65-2.99-.46-2.11,.88-4.19,2.99-4.65,2.11-.46,4.19,.88,4.65,2.99,.06,.27,.09,.55,.09,.83,.18,1.89-1.18,3.59-3.07,3.81Zm0-6.61c-1.14,0-2.06,1.26-2.06,2.8s.92,2.77,2.06,2.77,2.09-1.26,2.09-2.77-.86-2.8-2.09-2.8Z"/>
        <path class="cls-19" d="M750.14,223h14.3c6.99,.38,13.57-3.33,16.88-9.5,3.76-7.51,1.67-16.64-4.98-21.77-4.8-3.66-10.21-3.57-15.89-3.57h-16.14c-.64,.1-1.07,.71-.96,1.34,.08,.49,.47,.88,.96,.96h12.3c4.53-.41,9.09-.21,13.56,.61,8.01,2.5,12.54,10.95,10.18,19-2.14,6.6-8.44,10.95-15.37,10.61h-14.82c-.64,.1-1.07,.71-.96,1.34,.08,.49,.47,.88,.96,.96Z"/>
        <rect class="cls-24" x="600.2" y="227.21" width="5.99" height="5.6"/>
        <path class="cls-19" d="M607.52,225.92h-7.44c-.65,0-1.17,.52-1.17,1.17h0v5.56c.02,.64,.53,1.15,1.17,1.17h7.44c.63-.02,1.14-.53,1.14-1.17v-5.56c0-.63-.5-1.15-1.14-1.17-.64,.02-1.15,.53-1.17,1.17v5.56l1.17-1.14h-7.44l1.14,1.14v-5.56l-1.14,1.14h7.44c.64-.1,1.07-.71,.96-1.34-.08-.49-.47-.88-.96-.96Z"/>
        <path class="cls-19" d="M605.64,232.87c-.42,0-.77-.34-.77-.77v-4.52c0-.42,.34-.77,.77-.77s.77,.34,.77,.77v4.52c0,.42-.34,.77-.77,.77Z"/>
        <rect class="cls-24" x="613.85" y="227.21" width="5.99" height="5.6"/>
        <path class="cls-19" d="M621.01,225.92h-7.44c-.63,.02-1.14,.53-1.14,1.17v5.56c0,.63,.5,1.15,1.14,1.17h7.44c.64-.02,1.15-.53,1.17-1.17v-5.56c.1-.64-.33-1.24-.96-1.34-.64-.1-1.24,.33-1.34,.96-.02,.13-.02,.25,0,.38v5.56l1.14-1.14h-7.44l1.17,1.14v-5.56l-1.17,1.14h7.44c.64,.1,1.24-.33,1.34-.96,.1-.64-.33-1.24-.96-1.34-.13-.02-.25-.02-.38,0Z"/>
        <path class="cls-19" d="M619.35,232.87c-.42-.02-.75-.35-.77-.77v-4.52c0-.42,.34-.77,.77-.77s.77,.34,.77,.77v4.52c0,.42-.34,.77-.77,.77Z"/>
        <rect class="cls-24" x="627.47" y="227.21" width="5.99" height="5.6"/>
        <path class="cls-19" d="M634.79,225.92h-7.44c-.65,0-1.17,.52-1.17,1.17h0v5.56c.02,.64,.53,1.15,1.17,1.17h7.44c.64-.02,1.15-.53,1.17-1.17v-5.56c-.02-.64-.53-1.15-1.17-1.17-.63,.02-1.14,.53-1.14,1.17v5.56l1.14-1.14h-7.44l1.14,1.14v-5.56l-1.14,1.14h7.44c.64,.1,1.24-.33,1.34-.96,.1-.64-.33-1.24-.96-1.34-.13-.02-.25-.02-.38,0Z"/>
        <path class="cls-19" d="M633,232.87c-.42,0-.77-.34-.77-.77v-4.52c0-.42,.34-.77,.77-.77s.77,.34,.77,.77v4.52c0,.42-.34,.77-.77,.77Z"/>
        <rect class="cls-24" x="641.12" y="227.21" width="5.99" height="5.6"/>
        <path class="cls-19" d="M648.44,225.92h-7.47c-.63,.02-1.14,.53-1.14,1.17v5.56c0,.63,.5,1.15,1.14,1.17h7.47c.63-.02,1.14-.53,1.14-1.17v-5.56c.1-.64-.33-1.24-.96-1.34-.64-.1-1.24,.33-1.34,.96-.02,.13-.02,.25,0,.38v5.56l1.17-1.14h-7.47l1.17,1.14v-5.56l-1.17,1.14h7.47c.64-.1,1.07-.71,.96-1.34-.08-.49-.47-.88-.96-.96Z"/>
        <path class="cls-19" d="M646.62,232.87c-.42-.02-.75-.35-.77-.77v-4.52c0-.42,.34-.77,.77-.77s.77,.34,.77,.77v4.52c0,.42-.34,.77-.77,.77Z"/>
        <rect class="cls-24" x="654.46" y="227.21" width="5.99" height="5.6"/>
        <path class="cls-19" d="M661.78,225.92h-7.47c-.63,.02-1.14,.53-1.14,1.17v5.56c0,.63,.5,1.15,1.14,1.17h7.47c.63-.02,1.14-.53,1.14-1.17v-5.56c.1-.64-.33-1.24-.96-1.34-.64-.1-1.24,.33-1.34,.96-.02,.13-.02,.25,0,.38v5.56l1.17-1.14h-7.47l1.17,1.14v-5.56l-1.17,1.14h7.47c.64-.1,1.07-.71,.96-1.34-.08-.49-.47-.88-.96-.96Z"/>
        <path class="cls-19" d="M659.97,232.87c-.42-.02-.75-.35-.77-.77v-4.52c0-.42,.34-.77,.77-.77s.77,.34,.77,.77v4.52c0,.42-.34,.77-.77,.77Z"/>
        <rect class="cls-24" x="668.11" y="227.21" width="5.99" height="5.6"/>
        <path class="cls-19" d="M675.4,225.92h-7.44c-.64,.02-1.15,.53-1.17,1.17v5.56c.02,.64,.53,1.15,1.17,1.17h7.44c.64-.02,1.15-.53,1.17-1.17v-5.56c-.02-.64-.53-1.15-1.17-1.17-.63,.02-1.14,.53-1.14,1.17v5.56l1.14-1.14h-7.44l1.14,1.14v-5.56l-1.14,1.14h7.44c.63,0,1.15-.5,1.17-1.14-.02-.64-.53-1.15-1.17-1.17Z"/>
        <path class="cls-19" d="M673.62,232.87c-.42,0-.77-.34-.77-.77v-4.52c0-.42,.34-.77,.77-.77s.77,.34,.77,.77v4.52c0,.42-.34,.77-.77,.77Z"/>
        <rect class="cls-24" x="681.73" y="227.21" width="5.99" height="5.6"/>
        <path class="cls-19" d="M689.05,225.92h-7.47c-.63,.02-1.14,.53-1.14,1.17v5.56c0,.63,.5,1.15,1.14,1.17h7.47c.63-.02,1.14-.53,1.14-1.17v-5.56c.1-.64-.33-1.24-.96-1.34-.64-.1-1.24,.33-1.34,.96-.02,.13-.02,.25,0,.38v5.56l1.17-1.14h-7.47l1.17,1.14v-5.56l-1.17,1.14h7.47c.64-.1,1.07-.71,.96-1.34-.08-.49-.47-.88-.96-.96h0Z"/>
        <path class="cls-19" d="M687.27,232.87c-.42,0-.77-.34-.77-.77v-4.52c0-.42,.34-.77,.77-.77s.77,.34,.77,.77v4.52c-.02,.42-.35,.75-.77,.77Z"/>
        <rect class="cls-24" x="695.38" y="227.21" width="5.99" height="5.6"/>
        <path class="cls-19" d="M702.67,225.92h-7.44c-.64,.02-1.15,.53-1.17,1.17v5.56c.02,.64,.53,1.15,1.17,1.17h7.44c.64-.02,1.15-.53,1.17-1.17v-5.56c.1-.64-.33-1.24-.96-1.34-.64-.1-1.24,.33-1.34,.96-.02,.13-.02,.25,0,.38v5.56l1.14-1.14h-7.44l1.14,1.14v-5.56l-1.14,1.14h7.44c.63,0,1.15-.5,1.17-1.14-.02-.64-.53-1.15-1.17-1.17Z"/>
        <path class="cls-19" d="M700.95,232.87c-.42,0-.77-.34-.77-.77v-4.52c0-.42,.34-.77,.77-.77s.77,.34,.77,.77v4.52c0,.42-.34,.77-.77,.77Z"/>
        <rect class="cls-24" x="610.53" y="216.91" width="5.99" height="5.6"/>
        <path class="cls-19" d="M617.94,215.62h-7.44c-.63,0-1.15,.5-1.17,1.14v5.6c.02,.63,.53,1.14,1.17,1.14h7.44c.63,0,1.15-.5,1.17-1.14v-5.6c-.1-.64-.71-1.07-1.34-.96-.49,.08-.88,.47-.96,.96v5.6l1.14-1.17h-7.44l1.14,1.17v-5.6l-1.14,1.17h7.44c.64,.1,1.24-.33,1.34-.96,.1-.64-.33-1.24-.96-1.34-.13-.02-.25-.02-.38,0Z"/>
        <path class="cls-19" d="M616.03,222.54c-.42,0-.77-.34-.77-.77v-4.49c0-.42,.34-.77,.77-.77s.77,.34,.77,.77v4.49c0,.42-.34,.77-.77,.77Z"/>
        <rect class="cls-24" x="624.15" y="216.91" width="5.99" height="5.6"/>
        <path class="cls-19" d="M631.47,215.62h-7.38c-.62,.02-1.12,.52-1.14,1.14v5.6c.02,.62,.52,1.12,1.14,1.14h7.47c.62-.02,1.12-.52,1.14-1.14v-5.6c-.1-.64-.71-1.07-1.34-.96-.49,.08-.88,.47-.96,.96v5.6l1.17-1.17h-7.47l1.17,1.17v-5.6l-1.17,1.17h7.47c.63-.02,1.14-.53,1.14-1.17-.02-.64-.55-1.15-1.2-1.14-.01,0-.02,0-.03,0Z"/>
        <path class="cls-19" d="M629.68,222.54c-.42,0-.77-.34-.77-.77v-4.49c0-.42,.34-.77,.77-.77s.77,.34,.77,.77v4.49c0,.42-.34,.77-.77,.77Z"/>
        <rect class="cls-24" x="637.8" y="216.91" width="5.99" height="5.6"/>
        <path class="cls-19" d="M645.09,215.62h-7.44c-.63,0-1.15,.5-1.17,1.14v5.6c.02,.63,.53,1.14,1.17,1.14h7.44c.63,0,1.15-.5,1.17-1.14v-5.6c-.1-.64-.71-1.07-1.34-.96-.49,.08-.88,.47-.96,.96v5.6l1.14-1.17h-7.44l1.14,1.17v-5.6l-1.14,1.17h7.44c.64,.1,1.24-.33,1.34-.96,.1-.64-.33-1.24-.96-1.34-.13-.02-.25-.02-.38,0Z"/>
        <path class="cls-19" d="M643.3,222.54c-.42,0-.77-.34-.77-.77v-4.49c0-.42,.34-.77,.77-.77s.77,.34,.77,.77v4.49c0,.42-.34,.77-.77,.77Z"/>
        <rect class="cls-24" x="651.42" y="216.91" width="5.99" height="5.6"/>
        <path class="cls-19" d="M658.74,215.62h-7.47c-.62,.02-1.12,.52-1.14,1.14v5.6c.02,.62,.52,1.12,1.14,1.14h7.47c.62-.02,1.12-.52,1.14-1.14v-5.6c-.02-.62-.52-1.12-1.14-1.14-.63,0-1.15,.5-1.17,1.14v5.6l1.17-1.17h-7.47l1.17,1.17v-5.6l-1.17,1.17h7.47c.63-.02,1.14-.53,1.14-1.17-.02-.62-.52-1.12-1.14-1.14Z"/>
        <path class="cls-19" d="M656.95,222.54c-.42,0-.77-.34-.77-.77v-4.49c0-.42,.34-.77,.77-.77s.77,.34,.77,.77v4.49c0,.42-.34,.77-.77,.77Z"/>
        <rect class="cls-24" x="664.76" y="216.91" width="5.99" height="5.6"/>
        <path class="cls-19" d="M672.08,215.62h-7.44c-.63,0-1.15,.5-1.17,1.14v5.6c.02,.63,.53,1.14,1.17,1.14h7.44c.62-.02,1.12-.52,1.14-1.14v-5.6c-.02-.62-.52-1.12-1.14-1.14-.63,0-1.15,.5-1.17,1.14v5.6l1.17-1.17h-7.44l1.14,1.17v-5.6l-1.14,1.17h7.44c.63-.02,1.14-.53,1.14-1.17,0-.63-.51-1.14-1.14-1.14Z"/>
        <path class="cls-19" d="M670.2,222.54c-.42,0-.77-.34-.77-.77v-4.49c0-.42,.34-.77,.77-.77s.77,.34,.77,.77v4.49c0,.42-.34,.77-.77,.77Z"/>
        <rect class="cls-24" x="678.41" y="216.91" width="5.99" height="5.6"/>
        <path class="cls-19" d="M685.58,215.62h-7.44c-.62,.02-1.12,.52-1.14,1.14v5.6c.02,.62,.52,1.12,1.14,1.14h7.44c.63,0,1.15-.5,1.17-1.14v-5.6c-.1-.64-.71-1.07-1.34-.96-.49,.08-.88,.47-.96,.96v5.6l1.14-1.17h-7.44l1.17,1.17v-5.6l-1.17,1.17h7.44c.64-.02,1.15-.53,1.17-1.17-.02-.63-.53-1.14-1.17-1.14Z"/>
        <path class="cls-19" d="M683.92,222.54c-.42,0-.77-.34-.77-.77v-4.49c0-.42,.34-.77,.77-.77s.77,.34,.77,.77v4.49c0,.42-.34,.77-.77,.77Z"/>
        <rect class="cls-24" x="692.03" y="216.91" width="5.99" height="5.6"/>
        <path class="cls-19" d="M699.35,215.62h-7.44c-.63,0-1.15,.5-1.17,1.14v5.6c.02,.63,.53,1.14,1.17,1.14h7.44c.63,0,1.15-.5,1.17-1.14v-5.6c-.02-.63-.53-1.14-1.17-1.14-.62,.02-1.12,.52-1.14,1.14v5.6l1.14-1.17h-7.44l1.14,1.17v-5.6l-1.14,1.17h7.44c.64-.02,1.15-.53,1.17-1.17-.02-.63-.53-1.14-1.17-1.14Z"/>
        <path class="cls-19" d="M697.57,222.54c-.42,0-.77-.34-.77-.77v-4.49c0-.42,.34-.77,.77-.77s.77,.34,.77,.77v4.49c0,.42-.34,.77-.77,.77Z"/>
        <rect class="cls-24" x="705.68" y="216.91" width="5.99" height="5.6"/>
        <path class="cls-19" d="M713,215.62h-7.47c-.62,.02-1.12,.52-1.14,1.14v5.6c.02,.62,.52,1.12,1.14,1.14h7.47c.62-.02,1.12-.52,1.14-1.14v-5.6c-.1-.64-.71-1.07-1.34-.96-.49,.08-.88,.47-.96,.96v5.6l1.17-1.17h-7.47l1.17,1.17v-5.6l-1.17,1.17h7.47c.63-.02,1.14-.53,1.14-1.17-.02-.62-.52-1.12-1.14-1.14Z"/>
        <path class="cls-19" d="M711.18,222.54c-.42,0-.77-.34-.77-.77v-4.49c0-.42,.34-.77,.77-.77s.77,.34,.77,.77v4.49c0,.42-.34,.77-.77,.77Z"/>
        <path class="cls-21" d="M534.63,94.46h-45.81c-.85,0-1.54-.69-1.54-1.54s.69-1.54,1.54-1.54h46.11c2.21,0,4-1.79,4-4h0v-30.34c0-.85,.69-1.54,1.54-1.54s1.54,.69,1.54,1.54v30.34c-.01,3.92-3.2,7.09-7.13,7.08-.08,0-.17,0-.25,0Z"/>
        <path class="cls-21" d="M534.63,159.7h-45.81c-.85,0-1.54-.69-1.54-1.54s.69-1.54,1.54-1.54h46.11c2.21,0,4-1.79,4-4h0v-30.34c0-.85,.69-1.54,1.54-1.54s1.54,.69,1.54,1.54v30.34c0,3.91-3.16,7.07-7.06,7.08-.1,0-.21,0-.31,0Z"/>
        <path class="cls-21" d="M615.79,94.46h-46.11c-.85,0-1.54-.69-1.54-1.54s.69-1.54,1.54-1.54h46.11c2.21,0,4-1.79,4-4h0v-30.34c0-.85,.69-1.54,1.54-1.54s1.54,.69,1.54,1.54v30.34c-.02,3.9-3.17,7.05-7.07,7.07Z"/>
        <path class="cls-21" d="M615.79,159.12h-46.11c-.85,0-1.54-.69-1.54-1.54s.69-1.54,1.54-1.54h46.11c2.21,0,4-1.79,4-4h0v-30.34c0-.85,.69-1.54,1.54-1.54s1.54,.69,1.54,1.54v30.34c0,3.91-3.17,7.07-7.07,7.07h0Z"/>
        <path class="cls-21" d="M697.1,94.46h-46.11c-.84-.02-1.52-.7-1.54-1.54,0-.85,.69-1.54,1.54-1.54h46.11c2.2-.02,3.98-1.8,4-4v-30.34c0-.85,.69-1.54,1.54-1.54s1.54,.69,1.54,1.54v30.34c-.02,3.9-3.17,7.05-7.07,7.07Z"/>
        <path class="cls-21" d="M697.26,159.39h-46.11c-.85,0-1.54-.69-1.54-1.54s.69-1.54,1.54-1.54h46.11c2.21,0,4-1.79,4-4h0v-30.34c0-.85,.69-1.54,1.54-1.54s1.54,.69,1.54,1.54v30.34c0,3.91-3.17,7.07-7.07,7.07h0Z"/>
        <path class="cls-29" d="M529.74,91.73h-49.8c-2.17,0-3.94-1.76-3.94-3.94V51.36c0-2.17,1.76-3.94,3.94-3.94h49.8c2.17,0,3.94,1.76,3.94,3.94v36.43c0,2.17-1.76,3.94-3.94,3.94Zm-49.8-42.46c-1.19,0-2.15,.96-2.15,2.15v36.37c0,1.19,.96,2.15,2.15,2.15h49.8c1.18-.02,2.14-.97,2.15-2.15V51.36c0-1.19-.96-2.15-2.15-2.15l-49.8,.06Z"/>
        <path class="cls-29" d="M611.02,91.73h-49.77c-2.17,.02-3.95-1.73-3.97-3.9,0-.01,0-.02,0-.03V51.36c0-2.17,1.76-3.94,3.94-3.94,.01,0,.02,0,.03,0h49.77c2.14,.05,3.84,1.8,3.84,3.94v36.43c0,2.14-1.71,3.89-3.84,3.94Zm-49.77-42.46c-1.19,0-2.15,.96-2.15,2.15v36.37c0,1.19,.96,2.15,2.15,2.15h49.77c1.19,0,2.15-.96,2.15-2.15V51.36c0-1.19-.96-2.15-2.15-2.15l-49.77,.06Z"/>
        <path class="cls-29" d="M615.73,91.73h-4.37c-.49,0-.89-.4-.89-.89,0-.49,.4-.89,.89-.89h4.37c1.3-.02,2.35-1.07,2.37-2.37V51.58c0-1.31-1.06-2.37-2.37-2.37h-4.37c-.49,0-.89-.4-.89-.89,0-.49,.4-.89,.89-.89h4.37c2.29,0,4.15,1.86,4.15,4.15h0v36c0,2.29-1.86,4.15-4.15,4.15h0Z"/>
        <path class="cls-29" d="M692.34,91.73h-49.8c-2.17,0-3.94-1.76-3.94-3.94V51.36c0-2.17,1.76-3.94,3.94-3.94h49.8c2.17,0,3.94,1.76,3.94,3.94v36.43c0,2.17-1.76,3.94-3.94,3.94Zm-49.8-42.46c-1.19,0-2.15,.96-2.15,2.15v36.37c.02,1.18,.97,2.14,2.15,2.15h49.8c1.19,0,2.15-.96,2.15-2.15V51.36c0-1.19-.96-2.15-2.15-2.15l-49.8,.06Z"/>
        <path class="cls-29" d="M697.01,91.73h-4.37c-.49,0-.89-.4-.89-.89,0-.49,.4-.89,.89-.89h4.37c1.31,0,2.37-1.06,2.37-2.37h0V51.58c.02-1.29-1.02-2.35-2.31-2.37-.02,0-.04,0-.06,0h-4.37c-.49,0-.89-.4-.89-.89,0-.49,.4-.89,.89-.89h4.37c2.29-.02,4.16,1.83,4.18,4.12,0,.01,0,.02,0,.03v36c0,2.29-1.86,4.15-4.15,4.15-.01,0-.02,0-.03,0Z"/>
        <path class="cls-29" d="M611.02,156.35h-49.77c-2.17,.02-3.95-1.73-3.97-3.9,0-.01,0-.02,0-.03v-36.43c0-2.19,1.78-3.97,3.97-3.97h49.77c2.14,.07,3.84,1.82,3.84,3.97v36.43c0,2.14-1.71,3.89-3.84,3.94Zm-49.77-42.52c-1.19,0-2.15,.96-2.15,2.15v36.43c0,1.19,.96,2.15,2.15,2.15h49.77c1.19,0,2.15-.96,2.15-2.15v-36.43c0-1.19-.96-2.15-2.15-2.15h-49.77Z"/>
        <path class="cls-29" d="M615.73,156.35h-4.37c-.49,0-.89-.4-.89-.89s.4-.89,.89-.89h4.37c1.3-.02,2.35-1.07,2.37-2.37v-36c0-1.31-1.06-2.37-2.37-2.37h-4.37c-.49,0-.89-.4-.89-.89,0-.5,.39-.91,.89-.92h4.37c2.3,.02,4.15,1.88,4.15,4.18v36c0,2.29-1.86,4.15-4.15,4.15h0Z"/>
        <path class="cls-29" d="M692.34,156.35h-49.8c-2.17,0-3.94-1.76-3.94-3.94v-36.43c0-2.18,1.76-3.95,3.94-3.97h49.8c2.17,0,3.94,1.76,3.94,3.94,0,.01,0,.02,0,.03v36.43c0,2.17-1.76,3.94-3.94,3.94h0Zm-49.8-42.52c-1.19,0-2.15,.96-2.15,2.15v36.43c.02,1.18,.97,2.14,2.15,2.15h49.8c1.19,0,2.15-.96,2.15-2.15v-36.43c0-1.19-.96-2.15-2.15-2.15h-49.8Z"/>
        <path class="cls-29" d="M697.01,156.35h-4.37c-.49,0-.89-.4-.89-.89s.4-.89,.89-.89h4.37c1.31,0,2.37-1.06,2.37-2.37h0v-36c.02-1.29-1.02-2.35-2.31-2.37-.02,0-.04,0-.06,0h-4.37c-.49,0-.89-.4-.89-.89,0-.5,.39-.91,.89-.92h4.37c2.31,0,4.18,1.87,4.18,4.18h0v36c0,2.29-1.86,4.15-4.15,4.15-.01,0-.02,0-.03,0Z"/>
        <path class="cls-34" d="M242.56,87.24H113.75c-1.7,0-3.07-1.38-3.07-3.07s1.38-3.07,3.07-3.07H242.56c1.7,0,3.07,1.38,3.07,3.07s-1.38,3.07-3.07,3.07Z"/>
        <path class="cls-19" d="M247.48,213.32v37.35c0,3.07-1.17,4.09-4.09,4.09H112.18l1.57,1.54V81.67l-1.57,1.54h32.71c.85-.17,1.4-1,1.23-1.85-.12-.62-.61-1.1-1.23-1.23h-32.71c-.86,.02-1.55,.71-1.57,1.57v174.62c.02,.86,.71,1.55,1.57,1.57H243.27c3.5,0,6.89-.52,7.32-4.89,.65-6.46,0-13.31,0-19.83v-19.86c-.17-.85-1-1.4-1.85-1.23-.62,.12-1.1,.61-1.23,1.23h-.03Z"/>
        <path class="cls-19" d="M192.51,83.09h51.06c2.06,0,3.72,0,3.9,2.52s0,5.96,0,8.88v56.23c.17,.85,1,1.4,1.85,1.23,.62-.12,1.1-.61,1.23-1.23v-54.54c0-4.77,2.12-15.65-5.01-16.08-8.39-.52-17,0-25.42,0h-27.67c-.85,.17-1.4,1-1.23,1.85,.12,.62,.61,1.1,1.23,1.23l.06-.09Z"/>
        <path class="cls-19" d="M153.38,83.09h33.33c.85-.17,1.4-1,1.23-1.85-.12-.62-.61-1.1-1.23-1.23h-33.33c-.85,.17-1.4,1-1.23,1.85,.12,.62,.61,1.1,1.23,1.23Z"/>
        <path class="cls-2" d="M128.05,265.15H49.8c-.97,0-1.75-.78-1.75-1.75,0-.97,.78-1.75,1.75-1.75h78.25c.97,0,1.75,.78,1.75,1.75,0,.97-.78,1.75-1.75,1.75h0Z"/>
        <path class="cls-19" d="M250,129.97h53.62c.85-.3,1.3-1.23,1-2.08-.16-.47-.53-.83-1-1h-53.62c-.85,.3-1.3,1.23-1,2.08,.16,.47,.53,.83,1,1Z"/>
        <path class="cls-19" d="M358.99,130.06h60.53c.85-.3,1.3-1.23,1-2.08-.16-.47-.53-.83-1-1h-60.53c-.89,.12-1.51,.95-1.39,1.84,.1,.72,.67,1.29,1.39,1.39v-.15Z"/>
        <path class="cls-25" d="M717.06,246.03c-.85,0-1.54-.69-1.54-1.54v-7.22c0-.4,.16-.78,.43-1.08l23.67-23.98c.64-.56,1.61-.49,2.17,.15,.5,.57,.5,1.42,.01,2l-23.21,23.55v6.64c-.03,.82-.71,1.48-1.54,1.48Z"/>
        <path class="cls-19" d="M565.68,238.13h148.52c.76,0,1.38-.62,1.38-1.38s-.62-1.38-1.38-1.38h-148.52c-.76,0-1.38,.62-1.38,1.38s.62,1.38,1.38,1.38Z"/>
        <path class="cls-19" d="M738.12,210.64l-19.4,19.43c-1.66,1.63-4.92,3.81-5.53,6.15-.23,2.04-.23,4.11,0,6.15v6.15l1.38-1.38h-150.15l1.38,1.38v-10.54c0-.37,.22-1.32,0-1.6s-.89,.89-.49,.86,1.63-1.08,2.06-1.35l20.35-13.53,10.05-6.7c1.01-.68,2.09-1.29,3.07-2.03s1.94-.89,.55-.61c2.47-.23,4.97-.23,7.44,0h130.26c.76,0,1.38-.62,1.38-1.38s-.62-1.38-1.38-1.38h-128.48c-3.07-.28-6.16-.28-9.22,0-1.01,.28-1.94,.77-2.74,1.44l-8.82,5.87-23.67,15.71c-1.66,1.08-3.07,1.54-3.26,3.57-.22,3.9-.22,7.81,0,11.71,.02,.76,.63,1.37,1.38,1.38h150.15c.76-.02,1.37-.63,1.38-1.38v-12.3s-.86,.95,0,.4c.43-.37,.83-.77,1.2-1.2l4.46-4.49,18.45-18.45c.34-.68,.06-1.51-.62-1.86-.37-.19-.81-.19-1.19-.02Z"/>
        <path class="cls-19" d="M714.57,249.93h43.75c.76-.02,1.37-.63,1.38-1.38v-36.89c-.02-.76-.63-1.37-1.38-1.38h-13.96c-.76,0-1.38,.62-1.38,1.38s.62,1.38,1.38,1.38h13.96l-1.38-1.38v36.89l1.38-1.38h-43.75c-.76,0-1.38,.62-1.38,1.38s.62,1.38,1.38,1.38h0Z"/>
        <rect class="cls-1" x="24.87" y="247.47" width="751.92" height="28.78"/>
        <rect class="cls-11" x="25.52" y="247.01" width="751.92" height="12.33"/>
        <rect class="cls-26" x="24.35" y="268.99" width="751.92" height="6.18"/>
        <path class="cls-3" d="M777.13,266.01h0c-70.71-.46-130.87-2.55-189.01-4.61-53.92-1.88-104.87-3.66-155.71-3.66-56.54,0-101.05,1.97-148.21,4.03-26.93,1.2-54.78,2.43-86.51,3.35-57.75,1.12-115.53-.76-173.08-5.66-.7-.03-1.23-.62-1.2-1.31,0-.02,0-.05,0-.07,.04-.64,.56-1.15,1.2-1.2,57.52,4.9,115.25,6.79,172.96,5.66,31.7-.95,59.52-2.18,86.45-3.35,47.25-2.09,91.83-3.94,148.4-3.94,50.88,0,101.85,1.81,155.81,3.69,58.1,2.03,118.18,4.15,188.92,4.58,.72,.11,1.22,.79,1.11,1.51-.09,.57-.54,1.02-1.11,1.11v-.12Z"/>
        <path class="cls-3" d="M430.68,267.83c-38-.25-76.3-1.78-113.75-4.55-97.11-6.04-194.52-5.42-291.54,1.84-.71,.05-1.33-.49-1.38-1.2s.49-1.33,1.2-1.38c97.14-7.3,194.66-7.92,291.88-1.84,37.57,2.77,75.81,4.3,113.75,4.52,50.85,0,101.79-1.78,155.71-3.66,58.14-2.06,118.24-4.15,189.01-4.61h0c.72,.11,1.22,.79,1.11,1.51-.09,.57-.54,1.02-1.11,1.11-70.71,.43-130.81,2.55-188.92,4.58-54.11,1.91-105.08,3.69-155.96,3.69Z"/>
        <path class="cls-19" d="M399.45,248.58h371.13c1.66,.2,3.35,.2,5.01,0,.22-.03,.45-.03,.68,0l-1.57-1.57v28.78l1.57-1.57H35.66c-3.35-.2-6.71-.2-10.05,0-.42,.03-.84,.03-1.26,0l1.57,1.57v-28.78l-1.57,1.57h19.28c.85-.17,1.4-1,1.23-1.85-.12-.62-.61-1.1-1.23-1.23H24.35c-.85,.03-1.52,.72-1.54,1.57v28.78c0,.85,.68,1.55,1.54,1.57H776.27c.85-.02,1.54-.71,1.54-1.57v-28.84c-.02-.85-.69-1.54-1.54-1.57H414.82c-4.9-.25-9.8-.25-14.7,0h-.68c-.85,.17-1.4,1-1.23,1.85,.12,.62,.61,1.1,1.23,1.23v.06Z"/>
        <path class="cls-19" d="M300.95,248.58h89.16c.85-.17,1.4-1,1.23-1.85-.12-.62-.61-1.1-1.23-1.23h-89.16c-.85,.17-1.4,1-1.23,1.85,.12,.62,.61,1.1,1.23,1.23Z"/>
        <path class="cls-19" d="M57.31,248.58h234.76c.85-.17,1.4-1,1.23-1.85-.12-.62-.61-1.1-1.23-1.23H57.31c-.85,.17-1.4,1-1.23,1.85,.12,.62,.61,1.1,1.23,1.23Z"/>
        <path class="cls-12" d="M478.21,82.32h0c-10.9,0-19.74-8.84-19.74-19.74v-23.86l19.83-8.33,19.74,8.33v23.86c.02,10.88-8.79,19.72-19.68,19.74-.05,0-.1,0-.15,0Z"/>
        <path class="cls-23" d="M498.04,38.94v23.86c0,10.9-8.84,19.74-19.74,19.74V30.64h0l19.74,8.3Z"/>
        <path class="cls-19" d="M463.79,74.33c-2.67-3.33-4.13-7.47-4.15-11.74v-15.03c-.1-.64-.71-1.07-1.34-.96-.49,.08-.88,.47-.96,.96v11.93c-.11,1.79-.11,3.59,0,5.38,.48,4.07,2.11,7.92,4.7,11.1,.95,1.17,2.55-.49,1.63-1.63h.12Z"/>
        <path class="cls-19" d="M496.81,57.23v7.1c-.38,4.17-2.17,8.08-5.07,11.1-6.61,6.78-17.23,7.58-24.78,1.88-1.2-.86-2.34,1.14-1.17,2,9.22,6.92,22.3,5.06,29.23-4.16,2.41-3.2,3.84-7.03,4.13-11.03v-6.89c-.1-.64-.71-1.07-1.34-.96-.49,.08-.88,.47-.96,.96h-.03Z"/>
        <path class="cls-19" d="M459.64,42.75v-4.03l-.86,1.11,17.28-7.26c.88-.24,1.73-.59,2.52-1.05,0,.28-1.2-.49-.55,0,.39,.22,.8,.39,1.23,.52l10.08,4.3,8.02,3.41-.55-1.01v13.87c.1,.64,.71,1.07,1.34,.96,.49-.08,.88-.47,.96-.96v-13.87c0-.41-.22-.79-.58-.98l-17.46-7.41c-.7-.36-1.43-.67-2.18-.92-.73-.16-1.5-.02-2.12,.4l-10.11,4.24-8.58,3.54c-.48,.16-.81,.6-.83,1.11v4.03c.1,.64,.71,1.07,1.34,.96,.49-.08,.88-.47,.96-.96h.09Z"/>
        <path class="cls-4" d="M469.54,60.52l6.43,4.55c1.3,.74,2.96,.32,3.75-.95l7.9-11.53,1.14-1.66c.75-1.3,.31-2.96-.98-3.72-1.3-.74-2.96-.32-3.75,.95l-7.9,11.53-1.14,1.66,3.75-.98-6.43-4.58c-1.3-.75-2.96-.31-3.72,.98-.74,1.3-.32,2.96,.95,3.75h0Z"/>
        <path class="cls-12" d="M331.5,154.38h0c-10.89-.02-19.71-8.85-19.71-19.74v-23.89l19.83-8.36,19.61,8.36v23.86c.02,10.9-8.81,19.75-19.71,19.77-.01,0-.02,0-.03,0Z"/>
        <path class="cls-23" d="M351.24,110.97v23.86c0,10.9-8.84,19.74-19.74,19.74v-51.89h0l19.74,8.3Z"/>
        <path class="cls-19" d="M317.12,146.39c-2.69-3.33-4.16-7.47-4.18-11.74v-15.06c-.1-.64-.71-1.07-1.34-.96-.49,.08-.88,.47-.96,.96v11.96c-.09,1.79-.09,3.59,0,5.38,.47,4.08,2.12,7.93,4.73,11.1,.92,1.14,2.55-.49,1.63-1.63h.12Z"/>
        <path class="cls-19" d="M350.1,129.2v7.13c-.36,4.26-2.19,8.25-5.16,11.31-6.61,6.77-17.22,7.57-24.78,1.88-1.17-.89-2.34,1.11-1.14,2,9.23,6.91,22.31,5.02,29.22-4.21,2.39-3.19,3.81-7,4.11-10.98,.18-2.31,0-4.61,0-6.92-.1-.64-.71-1.07-1.34-.96-.49,.08-.88,.47-.96,.96l.06-.22Z"/>
        <path class="cls-19" d="M312.94,114.82v-4.06l-.83,1.11,17.25-7.26c.28,0,2.46-.77,2.52-1.08,0,.28-1.2-.46-.55,0,.39,.22,.8,.39,1.23,.52l10.08,4.27,8.02,3.41-.55-.98v13.87c.1,.64,.71,1.07,1.34,.96,.49-.08,.88-.47,.96-.96v-13.87c0-.42-.22-.81-.58-1.01l-17.43-7.41c-.71-.35-1.44-.66-2.18-.92-.89-.25-1.32,0-2.15,.4l-10.11,4.27-8.45,3.57c-.55,.09-.96,.55-.98,1.11v4.03c.1,.64,.71,1.07,1.34,.96,.49-.08,.88-.47,.96-.96l.12,.03Z"/>
        <path class="cls-4" d="M322.8,132.55l6.39,4.58c1.31,.73,2.97,.3,3.75-.98l7.9-11.53,1.14-1.63c.77-1.3,.33-2.98-.97-3.74,0,0,0,0,0,0-1.31-.72-2.96-.28-3.75,.98l-7.9,11.53-1.14,1.63,3.81-1.11-6.39-4.58c-1.31-.75-2.98-.31-3.75,.98-.72,1.31-.28,2.96,.98,3.75l-.06,.12Z"/>
        <path class="cls-12" d="M566.75,82.32h0c-10.9,0-19.74-8.84-19.74-19.74v-23.86l19.83-8.33,19.64,8.33v23.86c.02,10.88-8.79,19.72-19.68,19.74-.02,0-.04,0-.06,0Z"/>
        <path class="cls-23" d="M586.49,38.94v23.86c0,10.9-8.84,19.74-19.74,19.74V30.64h0l19.74,8.3Z"/>
        <path class="cls-19" d="M552.33,74.33c-2.67-3.33-4.13-7.47-4.15-11.74v-15.03c-.1-.64-.71-1.07-1.34-.96-.49,.08-.88,.47-.96,.96v11.93c-.11,1.79-.11,3.59,0,5.38,.48,4.07,2.11,7.92,4.7,11.1,.95,1.17,2.55-.49,1.63-1.63h.12Z"/>
        <path class="cls-19" d="M585.35,57.23v7.1c-.38,4.17-2.17,8.08-5.07,11.1-6.61,6.78-17.23,7.58-24.78,1.88-1.2-.86-2.34,1.14-1.17,2,9.22,6.92,22.3,5.06,29.23-4.16,2.41-3.2,3.84-7.03,4.13-11.03,.15-2.28,0-4.61,0-6.89-.1-.64-.71-1.07-1.34-.96-.49,.08-.88,.47-.96,.96h-.03Z"/>
        <path class="cls-19" d="M548.18,42.75v-4.03l-.86,1.11,17.28-7.26c.88-.24,1.73-.59,2.52-1.05,0,.28-1.2-.49-.55,0,.39,.22,.8,.39,1.23,.52l10.08,4.3,8.02,3.41-.55-1.01v13.87c.1,.64,.71,1.07,1.34,.96,.49-.08,.88-.47,.96-.96v-13.87c0-.41-.22-.79-.58-.98l-17.46-7.41c-.7-.36-1.43-.67-2.18-.92-.73-.16-1.5-.02-2.12,.4l-10.11,4.24-8.49,3.57c-.48,.16-.81,.6-.83,1.11v4.03c.1,.64,.71,1.07,1.34,.96,.49-.08,.88-.47,.96-.96v-.03Z"/>
        <path class="cls-4" d="M558.08,60.52l6.43,4.55c1.3,.74,2.96,.32,3.75-.95l7.9-11.53,1.14-1.66c.75-1.3,.31-2.96-.98-3.72-1.3-.74-2.96-.32-3.75,.95l-7.9,11.53-1.14,1.66,3.75-.98-6.43-4.58c-1.3-.75-2.96-.31-3.72,.98-.74,1.3-.32,2.96,.95,3.75h0Z"/>
        <polygon class="cls-35" points="337.68 41.8 311 41.8 311 40.23 336.12 40.23 336.12 21.6 369.75 21.6 369.75 23.17 337.68 23.17 337.68 41.8"/>
        <polygon class="cls-35" points="365.69 60.12 323.57 60.12 323.57 41.89 325.14 41.89 325.14 58.59 365.69 58.59 365.69 60.12"/>
        <rect class="cls-35" x="340.36" y="40.23" width="17.06" height="1.54"/>
        <path class="cls-35" d="M321.57,78.75h-42.24v-20.26h42.24v20.26Zm-40.7-1.54h39.17v-17.09h-39.17v17.09Z"/>
        <polygon class="cls-35" points="402.34 208.58 378.88 208.58 378.88 192.2 350.69 192.2 350.69 190.84 380.23 190.84 380.23 207.23 402.34 207.23 402.34 208.58"/>
        <polygon class="cls-35" points="391.27 224.69 354.25 224.69 354.25 223.34 389.92 223.34 389.92 208.68 391.27 208.68 391.27 224.69"/>
        <rect class="cls-35" x="361.51" y="207.23" width="15" height="1.35"/>
        <path class="cls-35" d="M430.16,241.05h-37.14v-17.71h37.14v17.71Zm-35.79-1.35h34.4v-15h-34.4v15Z"/>
        <path class="cls-15" d="M438.55,212.52h5.72c1.08,.14,2.06-.63,2.2-1.71,.14-1.08-.63-2.06-1.71-2.2-.16-.02-.33-.02-.49,0h-5.72c-1.08-.14-2.06,.63-2.2,1.71-.14,1.08,.63,2.06,1.71,2.2,.16,.02,.33,.02,.49,0Z"/>
        <path class="cls-8" d="M420.41,229.15h32.74l1.11-1.84c4.64-7.84,6.49-26.87,5.13-35.88h-32.8c1.35,9.01-.46,28.07-5.13,35.88l-1.05,1.84Z"/>
        <path class="cls-9" d="M448.85,230.01h3.69l1.11-1.81c4.67-7.84,6.49-26.9,5.13-35.91h-3.78c1.35,9.01,2.74,36.89-34.16,36.89l28.01,.83Z"/>
        <path class="cls-19" d="M432.47,198.38h17.22c.49,0,.89-.4,.89-.89s-.4-.89-.89-.89h-17.22c-.49,0-.89,.4-.89,.89s.4,.89,.89,.89Z"/>
        <path class="cls-19" d="M432.83,204.19h13.4c.49,0,.89-.4,.89-.89s-.4-.89-.89-.89h-13.4c-.49,0-.89,.4-.89,.89s.4,.89,.89,.89h0Z"/>
        <path class="cls-19" d="M432.47,209.66h17.22c.49,0,.89-.4,.89-.89s-.4-.89-.89-.89h-17.22c-.49,0-.89,.4-.89,.89s.4,.89,.89,.89Z"/>
        <path class="cls-19" d="M431.36,215.47h14.88c.49,0,.89-.4,.89-.89s-.4-.89-.89-.89h-14.88c-.49,0-.89,.4-.89,.89s.4,.89,.89,.89Z"/>
        <path class="cls-4" d="M458.08,210.46c.41-.1,.73-.42,.83-.83,.83-4.11,1.17-8.3,1.01-12.48-.1-.57-.64-.95-1.21-.85-.44,.08-.78,.42-.85,.85,.12,4.01-.21,8.02-.98,11.96-.13,.54,.2,1.09,.75,1.22,0,0,.01,0,.02,0l.43,.12Z"/>
        <path class="cls-4" d="M453.43,227.58c.42,.03,.81-.21,.98-.58,1.69-3.88,2.92-7.95,3.66-12.11,.11-.55-.24-1.08-.79-1.2,0,0,0,0,0,0h0c-.57-.1-1.11,.27-1.23,.83-.75,3.93-1.96,7.76-3.6,11.41-.24,.52-.02,1.13,.49,1.38,.11,.17,.29,.27,.49,.28Z"/>
        <path class="cls-19" d="M438.49,230.44h12.57c.76,.08,1.52,.08,2.28,0,1.2-.31,1.91-2.21,2.46-3.26,.95-1.83,1.71-3.76,2.27-5.75,1.36-4.81,2.24-9.74,2.64-14.73,.6-5.18,.6-10.41,0-15.59-.16-.54-.66-.92-1.23-.92h-7.56c-.71,0-1.29,.58-1.29,1.29s.58,1.29,1.29,1.29h7.41l-1.26-.95c.8,6.79,.59,13.66-.61,20.38-.79,5.73-2.67,11.27-5.53,16.29l1.11-.65h-14.66c-.71,0-1.29,.58-1.29,1.3,0,.71,.58,1.29,1.29,1.29h.12Z"/>
        <path class="cls-19" d="M446.79,190.14h-20.17c-.71,0-1.28,.59-1.27,1.31,0,.11,.02,.22,.04,.32,.76,6.76,.53,13.6-.68,20.29-.73,5.78-2.57,11.37-5.44,16.45-.36,.62-.15,1.41,.47,1.76,.2,.12,.43,.18,.67,.17h9.5c.71,0,1.29-.58,1.29-1.3,0-.71-.58-1.29-1.29-1.29h-9.5l1.11,1.97c3.09-5.43,5.07-11.42,5.81-17.62,1.22-6.99,1.43-14.13,.61-21.18l-1.26,1.66h20.17c.71,0,1.29-.58,1.29-1.29s-.58-1.29-1.29-1.29l-.06,.03Z"/>
        <path class="cls-4" d="M450.7,223.4c-.18,.03-.37,.03-.55,0-.7-.3-1.02-1.12-.72-1.82,0,0,0-.02,.01-.02,1.42-3.17,2.45-6.51,3.07-9.93,.1-.74,.79-1.25,1.53-1.15,.02,0,.05,0,.07,.01,.76,.11,1.28,.81,1.17,1.57,0,.01,0,.02,0,.03-.59,3.64-1.62,7.19-3.07,10.58-.29,.55-.9,.85-1.51,.74Z"/>
        <circle class="cls-19" cx="50.54" cy="247.26" r="2.18"/>
        <path class="cls-19" d="M337.53,145.5l4.55-6.49,.65-.92c.37-.55-.52-1.05-.89-.52l-4.55,6.49-.65,.92c-.4,.55,.49,1.05,.89,.52Z"/>
        <path class="cls-19" d="M341.25,145.5l2.4-3.35,.37-.49c.13-.25,.05-.55-.18-.71-.25-.14-.56-.06-.71,.18l-2.31,3.44-.34,.49c-.15,.23-.09,.53,.14,.68,.01,0,.03,.02,.04,.03,.23,.14,.54,.06,.67-.18,0,0,0,0,0,0l-.09-.09Z"/>
      </g>
    </g>
  </g>
</svg>