<?xml version="1.0" encoding="UTF-8"?>
<svg id="Layer_2" data-name="Layer 2" xmlns="http://www.w3.org/2000/svg" viewBox="0 0 727.28 641.03">
  <defs>
    <style>
      .cls-1 {
        fill: #f7c4a5;
      }

      .cls-2, .cls-3 {
        fill: #efa003;
      }

      .cls-4 {
        fill: #ed970f;
      }

      .cls-5 {
        fill: #eaeaea;
      }

      .cls-6 {
        fill: #ffe3b6;
      }

      .cls-7 {
        fill: #fff;
      }

      .cls-8 {
        fill: #ffe8dc;
      }

      .cls-9 {
        fill: #ffeac5;
      }

      .cls-10 {
        fill: #ffcb78;
      }

      .cls-11, .cls-12 {
        fill: #ffd488;
      }

      .cls-13, .cls-14 {
        fill: #ff9976;
      }

      .cls-15 {
        fill: #ffa910;
      }

      .cls-16 {
        fill: #ffc550;
      }

      .cls-17 {
        fill: #fca915;
      }

      .cls-18 {
        fill: #fcb686;
      }

      .cls-19 {
        fill: #e69056;
      }

      .cls-20 {
        fill: #66504f;
      }

      .cls-21 {
        fill: #686868;
      }

      .cls-22 {
        fill: #8c7c7c;
      }

      .cls-23 {
        fill: #a5a5a5;
      }

      .cls-24, .cls-25 {
        fill: #a8d7e5;
      }

      .cls-26 {
        fill: #d3793c;
      }

      .cls-27 {
        fill: #d1d1d1;
      }

      .cls-28 {
        fill: #d68a03;
      }

      .cls-29 {
        fill: #c5d0fc;
      }

      .cls-30, .cls-31 {
        fill: #d5ecf5;
      }

      .cls-32 {
        fill: #172975;
      }

      .cls-33 {
        fill: #1e1312;
      }

      .cls-34 {
        fill: #1c2f7f;
      }

      .cls-35 {
        fill: #898989;
      }

      .cls-36 {
        fill: #2a3993;
      }

      .cls-37 {
        fill: #2e3e99;
      }

      .cls-38 {
        fill: #392624;
      }

      .cls-39 {
        fill: #7689d6;
      }

      .cls-40 {
        fill: #4f5eb7;
      }

      .cls-25 {
        opacity: .5;
      }

      .cls-25, .cls-14, .cls-12, .cls-3, .cls-31 {
        isolation: isolate;
      }

      .cls-14, .cls-41 {
        opacity: .6;
      }

      .cls-12, .cls-3, .cls-31, .cls-42 {
        opacity: .4;
      }

      .cls-43 {
        opacity: .3;
      }

      .cls-44 {
        opacity: .8;
      }
    </style>
  </defs>
  <g id="Layer_1-2" data-name="Layer 1">
    <g id="Layer_2-2" data-name="Layer 2">
      <g id="Layer_2-2" data-name="Layer 2-2">
        <path class="cls-31" d="M503.3,108.78c-33.63-.04-66.69,8.65-95.95,25.22h0l-.08,.05c-5.55,3.14-10.93,6.54-16.12,10.2-167.66,112.71-75.48,275.39-75.48,275.39,5.73-.38,10.06-5.33,9.68-11.06-.08-1.17-.35-2.32-.82-3.4-10.32-24.11-28-77.68-13.17-136.66-2.15,11.7-3.23,23.58-3.23,35.48,0,107.79,87.38,195.17,195.17,195.17s195.16-87.43,195.16-195.17-87.38-195.22-195.16-195.22Z"/>
        <ellipse class="cls-7" cx="394.43" cy="466.48" rx="14.46" ry="33.67" transform="translate(-109.71 121.49) rotate(-15.4)"/>
        <ellipse class="cls-7" cx="414.9" cy="455.99" rx="5.58" ry="13" transform="translate(-106.19 126.55) rotate(-15.4)"/>
        <path class="cls-12" d="M206.12,370.66c-16.96-12.07-36.76-19.53-57.47-21.66h-.06c-3.93-.41-7.86-.61-11.79-.63C11.8,345.18,0,460.37,0,460.37c3.03,1.86,7,.91,8.86-2.13,.38-.62,.65-1.3,.8-2,3.42-15.9,13.71-49.24,42.34-73.74-47.88,46.49-49,123-2.51,170.88,46.49,47.88,123,49,170.88,2.51,47.88-46.49,49-123,2.51-170.88-5.13-5.28-10.73-10.08-16.74-14.35h-.02Z"/>
        <ellipse class="cls-11" cx="22.98" cy="512.24" rx="20.85" ry="8.95" transform="translate(-466.31 358.89) rotate(-70.03)"/>
        <ellipse class="cls-11" cx="37.08" cy="513.49" rx="8.05" ry="3.46" transform="translate(-458.41 373.7) rotate(-70.11)"/>
        <path class="cls-30" d="M381,346.46s-26.58-88.93,28.64-180.92c.73-1.21,.35-2.79-.87-3.53-.83-.5-1.87-.49-2.69,.02-78.84,48.43-49.18,182.38-49.18,182.38"/>
        <path class="cls-30" d="M385.36,359.54s-37.29,37.78-30.45,174.53c.07,1.14-.8,2.12-1.95,2.19-.9,.05-1.73-.48-2.05-1.33-45.4-114.6,3.68-180.52,3.68-180.52"/>
        <path class="cls-25" d="M409.71,165.47c-55.22,92-28.64,180.92-28.64,180.92l4.36,13.08s-37.29,37.79-30.43,174.53c.06,1.14-.82,2.12-1.96,2.18-.9,.05-1.72-.49-2.04-1.33-3.61-9.12-6.62-17.93-9.11-26.42-1.32-116,31.26-149,31.26-149l-4.36-13.08s-25.69-85.8,25.78-176.05c3.64-3.05,7.51-5.82,11.57-8.3,1.21-.74,2.79-.36,3.53,.85,.49,.8,.5,1.8,.04,2.62Z"/>
        <path class="cls-7" d="M352.89,319.64c-1.29,0-2.42-.95-2.61-2.27-.36-2.58-8.67-63.8,13.35-109.51,.63-1.31,2.21-1.86,3.52-1.23,1.31,.63,1.86,2.21,1.23,3.52-21.31,44.25-12.96,105.87-12.87,106.49,.2,1.44-.8,2.77-2.24,2.98-.12,.02-.25,.03-.37,.03Z"/>
        <g class="cls-42">
          <path class="cls-30" d="M210.39,588.42c6.72,11.88,18.87,19.87,31.66,24.64,28.89,10.78,61.07,7,91.2,.46s60.21-15.56,91-14.85c38.78,.9,75.91,17.26,114.68,18.54,23.82,.76,47.48-4.2,69-14.45,7.42-3.54,15-8.26,18.12-15.89,5-12.41-4.25-26-14.62-34.42-26-21.14-62.88-28-94.72-17.63-17.1,5.58-32.8,15.75-50.59,18.38-19.66,2.9-39.27-3.73-58.73-7.73-14.65-3-29.55-4.53-44.42-6.06-35.26-3.61-73.51-6.57-103.55,12.23-2,1.26-4,2.6-5.91,3.94"/>
        </g>
        <path class="cls-38" d="M498.08,585.92c-1.49,1.6-3.7,2.26-5.81,2.83-20.89,5.63-42.47,8.29-64.11,7.93-9.26-.16-19.11-1.1-26.43-6.78-1.48-1.03-2.65-2.45-3.37-4.11-.52-1.72-.6-3.54-.22-5.29,0,0,39.51,20.88,101.77-3.75,.34,3.25,.36,6.82-1.83,9.17Z"/>
        <path class="cls-20" d="M499.91,576.75c-62.26,24.63-101.77,3.75-101.77,3.75,2.07-13.12,13.84-25.24,27.06-24,4.33,.42,8.42,2.15,12.66,3.12,8.19,1.83,16.76,.8,24.28-2.92l34.48,3.76c1.61,5.31,2.71,10.77,3.29,16.29Z"/>
        <path class="cls-38" d="M683.8,587.71c0,1.79-.45,3.56-1.32,5.13-1.06,1.46-2.5,2.61-4.16,3.31-8.34,4-18.17,2.87-27.26,1.09-21.22-4.18-41.75-11.3-61-21.17-1.94-1-4-2.11-5.09-4-1.65-2.76-.87-6.29,.13-9.35,55.7,37.13,98.7,24.99,98.7,24.99Z"/>
        <path class="cls-20" d="M683.8,587.71s-43,12.14-98.73-25c1.73-5.27,3.95-10.37,6.63-15.23l34.51,3.52c6.56,5.24,14.73,8.07,23.13,8,4.35-.06,8.71-.9,13-.39,13.22,1.52,22.19,15.83,21.46,29.1Z"/>
        <ellipse class="cls-38" cx="479.7" cy="558.18" rx="20.97" ry="14.89"/>
        <ellipse class="cls-38" cx="606.96" cy="547.36" rx="14.89" ry="20.97" transform="translate(-86.8 979.45) rotate(-73.96)"/>
        <path class="cls-1" d="M459.77,523.78l7.23,30.15c1.47,6.13,7.23,10.23,13.5,9.62h0c6.94-.68,12.02-6.85,11.34-13.8-.07-.75-.21-1.48-.41-2.2l-8.94-31.45-22.72,7.68Z"/>
        <path class="cls-14" d="M456.29,509l7.25,30.15c1.47,6.12,7.23,10.23,13.5,9.62h0c6.95-.68,12.02-6.87,11.34-13.82-.07-.74-.21-1.47-.41-2.18l-9-31.46-22.68,7.69Z"/>
        <path class="cls-1" d="M627.83,512.83l-7.24,30.17c-1.47,6.13-7.23,10.24-13.51,9.63h0c-6.95-.68-12.02-6.87-11.34-13.82,.07-.74,.21-1.47,.41-2.18l9-31.46,22.68,7.66Z"/>
        <path class="cls-14" d="M629.41,505.28l-7.24,30.15c-1.47,6.12-7.23,10.23-13.5,9.62h0c-6.94-.68-12.02-6.85-11.34-13.8,.07-.75,.21-1.48,.41-2.2l8.94-31.46,22.73,7.69Z"/>
        <path class="cls-16" d="M509.9,355.26s-108.18,29.74-71.03,170.74c.97,3.72,3.8,6.67,7.47,7.8,11.94,3.73,24.78,3.45,36.55-.79,5.14-1.93,8.11-7.31,7-12.69-5-24.14-13.62-93.91,44.32-122.26"/>
        <path class="cls-17" d="M490.05,520.23c1.11,5.38-1.86,10.77-7,12.7-5.86,2.17-12.06,3.32-18.31,3.39,2.42-.53,4.8-1.23,7.12-2.1,5.14-1.92,8.12-7.31,7-12.69-5-24.14-13.62-93.91,44.33-122.26,3.41-1.08,6.89-1.97,10.4-2.67l.78,1.37c-57.94,28.35-49.29,98.13-44.32,122.26Z"/>
        <path class="cls-16" d="M557.2,397.22s36.39,37.77,25.39,122.5c-.55,4.36,1.91,8.55,6,10.18,15.4,6.3,32.66,6.3,48.06,0,3.53-1.42,5.9-4.77,6.08-8.57,1-22.53-.49-104.47-66.05-165.89"/>
        <path class="cls-17" d="M619.9,534.21c-10.64,1.2-21.42-.28-31.34-4.31-4.08-1.63-6.55-5.82-6-10.18,11-84.73-25.38-122.5-25.38-122.5l4.55-9.78,9.82,9.78s36.45,37.78,25.45,122.5c-.55,4.36,1.91,8.55,6,10.18,5.41,2.19,11.1,3.64,16.9,4.31Z"/>
        <circle class="cls-16" cx="541.74" cy="355.34" r="45.43"/>
        <path class="cls-17" d="M587.17,355.41c.02,25.09-20.31,45.44-45.4,45.46-25.09,.02-45.44-20.31-45.46-45.4v-.06c0-2.17,.15-4.35,.46-6.5,3.6,24.84,26.65,42.05,51.49,38.45,19.92-2.89,35.56-18.53,38.45-38.45,.31,2.15,.46,4.33,.46,6.5Z"/>
        <path class="cls-9" d="M433.12,465.48c1.55-16.68,5.55-32.63,10.24-48.67,.54-1.86-2.36-2.65-2.9-.8-4.76,16.31-8.77,32.52-10.34,49.47-.18,1.92,2.82,1.91,3,0Z"/>
        <path class="cls-23" d="M102.07,603.73c12.28-16.34,21.94-34.5,28.61-53.82l12.83,8.09c4.1-3.45,7.66-7.49,10.56-12l6.3,2.08c10.67-23.51,21.74-46.84,33.21-70,36.91,29.92,74.32,60.24,101.86,98.92-61.95,19.75-126.79,28.94-191.79,27.18"/>
        <path class="cls-35" d="M84,609c12.28-16.35,21.93-34.51,28.61-53.83l12.83,8.12c4.11-3.47,7.67-7.55,10.56-12.09l6.3,2.08c10.67-23.51,21.73-46.82,33.2-69.95,36.92,29.87,74.33,60.25,101.87,98.94-61.97,19.75-126.82,28.93-191.83,27.18"/>
        <path class="cls-23" d="M2.82,587.88c15.33-13.5,28.46-29.32,38.91-46.88l10.92,10.5c4.73-2.57,9.04-5.83,12.79-9.69l5.75,3.31c15.21-20.86,30.76-41.46,46.66-61.79,30.12,36.72,60.6,74,79.75,117.5-64.67,6.8-130.02,2.69-193.32-12.18"/>
        <path class="cls-35" d="M52.3,597.82c15.31-13.49,22.34-35.49,32.76-53l10.94,10.51c4.73-2.56,9.04-5.83,12.78-9.69l5.76,3.31c15.19-20.87,30.75-41.47,46.66-61.79,30.12,36.72,5,47.91,24.19,91.37-64.51,6.81-69.91,34.14-133.07,19.29"/>
        <circle class="cls-11" cx="135.5" cy="490.9" r="90.9"/>
        <path class="cls-3" d="M143.09,582c-39.12,3.28-75.93-18.92-91.28-55.05,40.35,29.89,97.3,21.41,127.19-18.95,19.17-25.88,23.22-59.96,10.65-89.61,40.33,29.9,48.79,86.82,18.9,127.16-15.56,21-39.41,34.28-65.46,36.45Z"/>
        <path class="cls-2" d="M135.5,562.71c-39.6,0-71.81-32.21-71.81-71.81s32.21-71.81,71.81-71.81,71.81,32.21,71.81,71.81-32.21,71.81-71.81,71.81Zm0-142.68c-39.08,0-70.87,31.79-70.87,70.87s31.79,70.87,70.87,70.87,70.87-31.79,70.87-70.87-31.79-70.87-70.87-70.87Z"/>
        <path class="cls-2" d="M135.5,573.46c-45.53,0-82.56-37.04-82.56-82.56s37.04-82.56,82.56-82.56,82.56,37.04,82.56,82.56-37.04,82.56-82.56,82.56Zm0-161.22c-43.37,0-78.65,35.28-78.65,78.65s35.28,78.65,78.65,78.65,78.65-35.28,78.65-78.65-35.28-78.65-78.65-78.65Z"/>
        <path class="cls-1" d="M418.78,346.25c19.12-15.56,29.77-41.69,37.51-65.1,1.87-5.64,.38-10.68,3.82-15.52s8.57-8.79,14.47-9.5,12.42,2.5,14.32,8.13c1.14,3.36,.58,7-.13,10.49-5.67,27.15-20.15,51.67-41.2,69.74-1.89,1.74-4.03,3.21-6.33,4.36-7.69,3.5-16.61,.27-24.42-3"/>
        <g class="cls-41">
          <path class="cls-13" d="M486.89,282.52c-6.66,24.12-20.35,45.7-39.33,62-1.9,1.74-4.03,3.21-6.33,4.36-2.32,1.04-4.83,1.55-7.37,1.52,19.9-16.9,39.91-43.18,42.83-71.22,4.24,.82,5.38,2.5,10.2,3.34Z"/>
        </g>
        <path class="cls-1" d="M570.93,266.94c7.92,14.74,8.39,32.43,5.91,49s-7.68,32.59-10.52,49.08c-.32,1.84-.5,4,.85,5.3,.9,.72,2.02,1.11,3.18,1.11,5.79,.48,6.76,10.9,10.74,6.67,3.15-3.35,10-20.39,11.77-24.62l8.3-19.61c5.74-13.58,11.23-27.34,13.44-41.91s1.81-30.27-6.47-42.47"/>
        <g class="cls-43">
          <path class="cls-13" d="M614.49,292.69c-2.22,14.57-7.48,28-13.22,41.57l-8.27,19.62c-1.79,4.23-8.62,21.27-11.77,24.61-2.57,2.74-3.89-.65-6.06-3.52,3.44-6,8.45-18.44,10-22,2.76-6.54,5.52-13.08,8.29-19.61,5.74-13.58,12.53-27.33,14.75-41.9,2.07-13.32-.24-26.96-6.57-38.86l6.68-2.74c8.2,12.22,8.38,28.26,6.17,42.83Z"/>
        </g>
        <path class="cls-40" d="M491.17,284c-6.12-1.56-19.24-3.12-25.35-4.68-4.06-1-8.29-2.16-11.42-4.94-6-5.28-6-14.52-4.66-22.38,4.23-24.77,16.8-47.35,35.62-64,10.95-9.63,24.37-17.19,38.92-18.24,12.64-.91,25.27,3.17,36.18,9.63,2.61,1.55,5.14,3.21,7.6,5,17.34,12.6,30.91,29.69,39.28,49.42,3.47,8.18,7.47,17.62,8.88,27.8,.15,1.15-.38,2.28-1.37,2.89-5.86,3.68-14,6.65-18.27,8.27-13,4.93-17.9,5-31.75,5.37l13.9-10.05c6.47,11.22,2.17,25.9-.46,42.55l-4.83,22.5-5.78,24.58-8.08,.36c-1.05,0-2.09,.13-3.13,.26-15.01,1.9-30.17,2.29-45.26,1.14-3.84-.29-7.87-.75-11-3-6-4.27-6.42-12.91-6.31-20.3,.19-12.56,.07-25.23-2.39-37.55s-7.42-24.4-15.9-33.68"/>
        <path class="cls-29" d="M486.81,185.82c-19.17,16.38-32.26,38.74-37.18,63.47-.19,.94,1.26,1.34,1.45,.39,4.86-24.47,17.82-46.6,36.79-62.8,.73-.62-.33-1.68-1.06-1.06h0Z"/>
        <path class="cls-1" d="M530.8,182.09c2.1-1.79,3.07-4.56,2.56-7.27h0c-3.48-18.64,1.6-38.23,11.41-54.46,1.68-2.55,3.17-5.22,4.44-8,1.27-3.41,2.06-6.98,2.37-10.61,1.14-9.76,1.97-19.55,2.48-29.38,.13-2.52,.17-5.15-1-7.37-1.47-2.81-4.53-4.35-7.38-5.74-10.89-5.26-21.68-11-33.17-14.67s-24.09-5.2-35.74-1.91-22.18,12-25.44,23.66c-1,3.3-1.18,6.79-.53,10.18,1.49,6.85,7.15,12.17,8.9,19,2.22,8.64-2.3,17.78-.88,26.59,1.39,8.61,8.3,15.41,16,19.57s16.22,6.25,24.32,9.46h.05c3.24,8.39,4.65,17.38,4.14,26.36-.17,2.64,1.04,5.19,3.2,6.72,4.67,3.27,13.66,6.84,24.27-2.13Z"/>
        <g class="cls-41">
          <path class="cls-13" d="M533.37,174.86c.51,2.71-.46,5.48-2.56,7.27-10.61,9-19.6,5.4-24.3,2.15-2.16-1.53-3.38-4.08-3.2-6.72,.06-.94,0,.94,0,0,5,.75,12.68-1.29,17.12-3.86,6.58-3.81,9-12.48,10.78-19.85,.76-3,1.11-6.28,2.65-9,.31-.53,.66-1.04,1.07-1.5-1.73,6.37-2.62,12.93-2.65,19.53,0,4.02,.36,8.03,1.09,11.98Z"/>
        </g>
        <path class="cls-32" d="M532.58,174.9c1.28,12.94-26.71,16.22-27.06,2.7,0-1.93-3-1.94-3,0,.45,17.58,34.71,14,33.06-2.7-.19-1.91-3.19-1.93-3,0Z"/>
        <path class="cls-13" d="M532.59,157.38c1.37-12.9,5.61-25.33,12.41-36.38,.21-.36,.09-.82-.27-1.03-.36-.21-.82-.09-1.03,.27h0c-6.91,11.29-11.21,23.98-12.59,37.14-.09,1,1.41,1,1.5,0h-.02Z"/>
        <path class="cls-8" d="M459.41,95.68c1.85,8.84-2,17.52-.9,26.4,.11,1,1.62,1,1.5,0-1.09-9,2.73-17.8,.85-26.79-.2-1-1.64-.55-1.45,.39Z"/>
        <path class="cls-38" d="M488.48,79.17c2.97,.6,6.03,.6,9,0,2.55-.38,5.34-1,6.88-3,1.71-2.31,1.17-5.63-.16-8.19-.3-.63-.71-1.2-1.22-1.67-1.39-1.01-3.24-1.13-4.75-.32-1.47,.82-2.77,1.91-3.83,3.21l-5.8,6.2c-.79,.86-1.64,2.08-1.06,3.09s1.71,1,2.71,.92"/>
        <path class="cls-33" d="M472.53,23.47s-29.73,3.23-41.95-12.57c0,0,22.75,10.78,48.22-.42,25.08-11.03,55.53,34.52,55.53,34.52"/>
        <path class="cls-38" d="M548.09,89.63s-3.69,22.52,7.85,32.48c-4.2-12.05-3.37-25.29,2.3-36.72,9.44-18.67-24-43.74-24-43.74"/>
        <path class="cls-38" d="M551.55,87.37s-3.69,22.52,7.86,32.48c-4.21-12.05-3.38-25.29,2.29-36.72,9.44-18.66-24-43.74-24-43.74"/>
        <path class="cls-38" d="M530.58,64s-7.13,5.62-5.47,19.45c.21,1.8-6.56,4.42-8.37,4.42l.92,7.26c-1.36,0-4.47-2.56-4.82-3.87-2.77-10.18,4.73-32.82,4.73-32.82"/>
        <path class="cls-38" d="M540.37,98.92s-1.55,5.94,6.44,19.18l12.51-24.26-1.22-12"/>
        <g class="cls-41">
          <path class="cls-13" d="M514.75,67.75c-.51,2.1-.91,4.22-1.2,6.36-.22-.15-.4-.34-.55-.56-1.17-1.79-2.47-3.48-3.9-5.06-1.69-1.49-3.62-2.67-5.72-3.49-8.06-3.53-16.36-3.5-25.08-2.38-7.55,1-15.47,2.19-23.05,1.49-1.03-.03-2.04-.32-2.93-.83,.42-1.07,.91-2.11,1.46-3.12,6.06,.4,12.13-.68,17.67-3.16,2.5-.18,5-.37,7.47-.52,11.07-.65,23.12,.06,31.67,7.11,1.51,1.25,2.91,2.65,4.16,4.16Z"/>
        </g>
        <path class="cls-38" d="M552.75,105c-13.06-3.28-22.19-14.8-29.6-26-3-4.57-6-9.3-10.22-12.78-8.56-7-20.61-7.76-31.68-7.1s-22.47,2.3-33-1.13c-8.59-2.8-15.87-8.82-21.38-16s-9.42-15.42-12.8-23.8c6.95,4.22,14.65,7.08,22.67,8.42,5.31,.89,10.86,1.08,16-.59,10.08-3.31,16.77-13.19,26.6-17.15,4.22-1.55,8.68-2.33,13.17-2.29,39.17-.81,71.57,30.28,72.38,69.45,.06,3-.07,6-.38,8.98-.82,7.72-3.44,16-10.07,20.08"/>
        <path class="cls-38" d="M464,52.86s-24.35,6.62-37.4-5.06c0,0,21,18.5,45,5.65"/>
        <path class="cls-38" d="M472.42,52.65s-22.56,11.35-37.66,2.42c0,0,26.9,14.25,47.84-3.08"/>
        <ellipse class="cls-1" cx="528.67" cy="91.74" rx="13.1" ry="15.96"/>
        <g class="cls-41">
          <path class="cls-13" d="M469.35,85.23c-.07,.79-.47,1.52-1.11,2-2.4,2.11-5.94,2.23-9.13,1.93-.75-.07-1.5-.16-2.24-.27-.36-.66-.74-1.3-1.13-2,4.42,.44,8.88-.29,12.93-2.12,.18-.09,.36-.19,.53-.3h0c.1,.24,.15,.5,.15,.76Z"/>
        </g>
        <path class="cls-38" d="M446.81,83.2c-.16-2.1-.1-4.2,.17-6.29,0-.82,.3-1.6,.84-2.22,.95-.86,2.45-.45,3.65,0l18,6.81c.59,.22,1.22,.47,1.27,1.33,.01,.77-.41,1.47-1.09,1.82-6.56,3.28-14.22,3.56-21,.77-.94-.39-1.64-1.22-1.85-2.22h.01Z"/>
        <ellipse class="cls-7" cx="456.38" cy="70.44" rx="3.36" ry="2.41" transform="translate(129.32 396.43) rotate(-53.68)"/>
        <ellipse class="cls-7" cx="461.53" cy="67.22" rx="1.04" ry=".94" transform="translate(147.95 412.48) rotate(-56.04)"/>
        <path class="cls-36" d="M487.32,283.25s.39-20.26-9.73-31.55"/>
        <g class="cls-44">
          <path class="cls-37" d="M596.58,272.86c-4.78,1.95-9.75,3.38-14.83,4.28,1.43,9.66-1.49,21.07-3.47,33.6l-4.8,22.3-5.82,24.74-8.07,.39c-1.05,0-2.09,.13-3.13,.26-15.01,1.91-30.18,2.29-45.27,1.14-3.84-.29-7.86-.75-11-3-5.31-3.75-6.24-10.89-6.31-17.58,7.47,0,15.09,1.71,22.53,3,11,1.88,23.26,2.51,32.27-4.05s12.15-18.28,13.26-29.26,.79-22.4,5-32.58c2-4.73,4.87-9,7.32-13.49,7.53-13.91,10.73-29.74,9.19-45.48-1-8.46-2.93-16.78-5.75-24.82,12.8,11.53,22.91,25.72,29.62,41.58,3.33,7.86,7.23,16.88,8.7,26.61,.29,1.85-.56,3.69-2.16,4.67-5.62,3.42-13.27,6.16-17.28,7.69Z"/>
        </g>
        <path class="cls-13" d="M496.39,148.1s13.22,3.21,19.51,2.77c0,0-12.62,2.79-22-1.08"/>
        <ellipse class="cls-36" cx="566.1" cy="285.81" rx="9.64" ry="7.16" transform="translate(64.83 674.25) rotate(-64.56)"/>
        <ellipse class="cls-36" cx="570.04" cy="267.53" rx="2.63" ry="4.24"/>
        <circle class="cls-36" cx="561.86" cy="271.39" r="2.38"/>
        <ellipse class="cls-36" cx="544.87" cy="339.82" rx="7.16" ry="9.64" transform="translate(25.69 717.72) rotate(-68)"/>
        <ellipse class="cls-36" cx="526.4" cy="337.04" rx="4.24" ry="2.63" transform="translate(-19.22 32.1) rotate(-3.43)"/>
        <circle class="cls-36" cx="530.77" cy="344.94" r="2.38"/>
        <path class="cls-15" d="M468.44,169.67c-2.75,0-5.13-1.93-5.71-4.62l-5.06-23.62c-2.16-10.07,4.26-19.99,14.33-22.15,10.07-2.16,19.99,4.26,22.15,14.33l5.06,23.62c.68,3.16-1.33,6.26-4.49,6.94-3.16,.68-6.26-1.33-6.94-4.49h0l-5.06-23.62c-1.18-3.68-5.12-5.71-8.8-4.53-3.18,1.02-5.2,4.15-4.82,7.47l5.07,23.62c.67,3.16-1.34,6.27-4.5,6.94-.4,.08-.82,.12-1.23,.11Z"/>
        <path class="cls-34" d="M581.66,277.02c-.11,0-.23-.04-.32-.12-.12-.1-11.78-10.17-17.14-23.76-.1-.26,.02-.55,.28-.65,.26-.1,.55,.02,.65,.28,5.27,13.35,16.74,23.27,16.86,23.36,.21,.18,.23,.49,.06,.7-.1,.12-.24,.18-.38,.18Z"/>
        <ellipse class="cls-7" cx="537.34" cy="364.13" rx="1.67" ry="2.2"/>
        <ellipse class="cls-7" cx="536.94" cy="376.95" rx="1.67" ry="2.2" transform="translate(-21.59 32.8) rotate(-3.43)"/>
        <ellipse class="cls-7" cx="537.84" cy="386.16" rx="1.67" ry="2.2" transform="translate(-83.24 156.69) rotate(-15.4)"/>
        <path class="cls-19" d="M370.4,360.85l1.92-15.65h0l290.45,35.66c4.33,.53,7.4,4.47,6.87,8.79h0c-.53,4.33-4.47,7.4-8.79,6.87h0l-290.45-35.66h0Z"/>
        <path class="cls-26" d="M669.66,389.68c-.54,4.32-4.47,7.39-8.79,6.87l-290.45-35.68,.85-6.95,290,35.62c3.16,.39,6.25-1.17,7.82-3.94,.55,1.28,.75,2.69,.57,4.08Z"/>
        <path class="cls-18" d="M652.09,386.3c-26.7,0-68-11.69-70.16-12.31-21.44-2.72-43.33-4.29-65.01-4.65-29.71-.27-89.24-16.89-99.48-19.82-.16,.03-.32,.07-.48,.1-19.6,4.23-43.87,1.04-44.11,1.01l.13-.99c.23,.03,23.24,3.05,42.41-.71l-1.49-.44,2.08-.38c9.8-1.78,9.81-1.72,9.94-1.1,.11,.57,.13,.64-6.4,2.06,14.05,3.96,69.25,19.01,97.42,19.27,21.72,.37,43.65,1.94,65.2,4.67,.73,.2,65.57,18.56,85.67,9.97l.39,.92c-3.99,1.71-9.62,2.4-16.1,2.4Z"/>
        <path class="cls-18" d="M648.09,393.58c-27.23,0-65.24-7.73-67.34-8.17l-.2-.04-.11-.17c-.07-.11-7.64-10.86-39.59-11.17-32.34-.31-124.13-11.89-125.06-12l-2.51-.32,2.44-.66c.47-.13,.94-.26,1.42-.39-.28,.06-.58,.12-.88,.19-19.65,4.24-45.27-3.43-45.53-3.51l.29-.96c.25,.08,25.64,7.67,45.03,3.49,9.11-1.96,9.14-1.84,9.29-1.23,.13,.52,.18,.74-6.92,2.7,15,1.86,93.16,11.41,122.44,11.68,30.73,.29,39.17,9.95,40.29,11.44,4.02,.81,68.48,13.6,88.02,5.25l.39,.92c-4.98,2.13-12.66,2.94-21.47,2.94Z"/>
        <rect class="cls-1" x="406.19" y="339.84" width="26.16" height="36.81" rx="7.64" ry="7.64" transform="translate(-40.88 662.2) rotate(-73.96)"/>
        <ellipse class="cls-7" cx="409.36" cy="350.36" rx="3.36" ry="2.41" transform="translate(-127.13 400.42) rotate(-45.89)"/>
        <ellipse class="cls-7" cx="414.91" cy="347.87" rx="1.04" ry=".94" transform="translate(-120.9 425.78) rotate(-48.25)"/>
        <path class="cls-14" d="M438.45,357.7l-3,10.46c-1.16,4.05-5.39,6.39-9.44,5.23,0,0,0,0-.01,0l-20.69-5.95c-4.05-1.16-6.39-5.39-5.23-9.44,0,0,0,0,0-.01l.17-.6c.94,1.01,2.13,1.75,3.46,2.13l20.7,6c4.05,1.16,8.28-1.18,9.45-5.23l2.83-9.86c1.82,1.95,2.49,4.71,1.76,7.27Z"/>
        <rect class="cls-1" x="559.09" y="360.84" width="26.16" height="36.81" rx="7.64" ry="7.64" transform="translate(114.75 891.07) rotate(-81.75)"/>
        <path class="cls-14" d="M591.13,376.59l-1.56,10.78c-.61,4.17-4.48,7.06-8.65,6.46l-21.31-3.1c-4.17-.6-7.06-4.46-6.46-8.62,0,0,0-.02,0-.03l.29-2c.88,2.79,3.28,4.83,6.17,5.24l21.31,3.09c4.17,.6,8.04-2.29,8.65-6.46l1.27-8.78c.36,1.1,.46,2.27,.29,3.42Z"/>
        <rect class="cls-24" x="351.6" y="338.41" width="25.14" height="27.5" rx="3.18" ry="3.18" transform="translate(-34.87 664.26) rotate(-82.07)"/>
        <path class="cls-15" d="M458.86,146.61s-2.14,12.51-.63,21.29c0,0-.17-14.7,5.72-19.25"/>
        <path class="cls-15" d="M460.81,142.63s-2.14,12.51-.63,21.29c0,0-.16-14.7,5.72-19.25"/>
        <path class="cls-15" d="M457.83,138s-2.14,12.51-.64,21.3c0,0-.16-14.71,5.73-19.26"/>
        <path class="cls-15" d="M459.78,134s-2.14,12.51-.64,21.3c0,0-.16-14.71,5.73-19.26"/>
        <path class="cls-15" d="M485.78,145.64s-2.14,12.51-.63,21.29c0,0-.17-14.7,5.72-19.25"/>
        <path class="cls-15" d="M487.73,141.66s-2.14,12.51-.63,21.29c0,0-.17-14.7,5.72-19.25"/>
        <path class="cls-15" d="M484.74,137s-2.13,12.51-.63,21.3c0,0-.16-14.71,5.73-19.26"/>
        <path class="cls-15" d="M486.7,133s-2.14,12.51-.64,21.3c0,0-.16-14.71,5.73-19.26"/>
        <path class="cls-15" d="M494.9,140.36s6.69,11.28,8.14,20.4c0,0-5-14.33-12.93-16.38"/>
        <path class="cls-15" d="M491.4,137.29s6.69,11.27,8.14,20.39c0,0-5-14.32-12.93-16.37"/>
        <path class="cls-15" d="M493,131.55s6.69,11.28,8.14,20.4c0,0-5-14.33-12.93-16.38"/>
        <path class="cls-15" d="M489.48,128.47s6.7,11.28,8.14,20.4c0,0-5-14.33-12.92-16.38"/>
        <path class="cls-15" d="M470.78,147.75s6.56,11.35,7.9,20.49c0,0-4.81-14.39-12.74-16.53"/>
        <path class="cls-15" d="M467.31,144.63s6.56,11.35,7.9,20.49c0,0-4.8-14.38-12.74-16.52"/>
        <path class="cls-15" d="M469,138.92s6.57,11.35,7.91,20.49c0,0-4.81-14.39-12.74-16.53"/>
        <path class="cls-15" d="M465.5,135.8s6.56,11.35,7.9,20.49c0,0-4.81-14.39-12.74-16.53"/>
        <path class="cls-10" d="M460.3,141.58c-.79,0-1.45-.62-1.5-1.42,0-.16-.66-15.64,14.8-17.41,.82-.1,1.57,.5,1.66,1.32,.09,.82-.5,1.57-1.32,1.66-12.68,1.45-12.17,13.75-12.14,14.27,.04,.83-.59,1.53-1.42,1.58-.03,0-.05,0-.08,0Z"/>
        <path class="cls-32" d="M529.55,183.7c-8.12,6.1-8.15,31-8.15,31-.12-9.96-3.32-19.64-9.17-27.7l6.08,.73,11.24-4.03Z"/>
        <ellipse class="cls-38" cx="468.43" cy="98.5" rx="4.41" ry="7.89"/>
        <ellipse class="cls-7" cx="465.47" cy="102.54" rx="1.61" ry="2.47"/>
        <circle class="cls-7" cx="485.34" cy="573.07" r="4.55"/>
        <circle class="cls-7" cx="597.25" cy="559.06" r="4.55"/>
        <path class="cls-7" d="M725.88,569.5c-3.34-.37-6.66-.93-10-1.59-1.88-.37-2.69,2.52-.79,2.9,3.56,.71,7.14,1.29,10.75,1.69,1.92,.21,1.91-2.79,0-3h.04Z"/>
        <path class="cls-9" d="M470.94,459.85c0,8.8-6.8,15.94-15.2,15.94s-15.19-7.14-15.19-15.94c0-.91,.07-1.81,.22-2.71,1,8.27,8.52,14.16,16.79,13.15,6.89-.84,12.32-6.26,13.15-13.15,.15,.9,.23,1.8,.23,2.71Z"/>
        <path class="cls-9" d="M635.1,479.23c0,8.8-6.8,15.94-15.2,15.94s-15.19-7.14-15.19-15.94c0-.9,.08-1.81,.23-2.7,1.03,8.26,8.56,14.13,16.82,13.11,6.85-.85,12.25-6.25,13.11-13.11,.15,.89,.23,1.8,.23,2.7Z"/>
        <path class="cls-39" d="M467,220c6.89-13.27,15.43-24.93,36.27-27.67,0,0-31,27.48-41.56,75.2h0c-2.71-15.96-2.14-33.16,5.29-47.53Z"/>
        <ellipse class="cls-36" cx="470.25" cy="235.37" rx="5.02" ry="6.76" transform="translate(-40.31 109.41) rotate(-12.73)"/>
        <ellipse class="cls-36" cx="494.66" cy="200.6" rx="2.97" ry="1.84" transform="translate(-11.12 29.95) rotate(-3.43)"/>
        <circle class="cls-36" cx="490.17" cy="207.48" r="1.67"/>
        <ellipse class="cls-22" cx="416.82" cy="568.52" rx="9.87" ry="5.64" transform="translate(-228.42 284.58) rotate(-30)"/>
        <path class="cls-38" d="M443.88,573.12c-.01-.12-1.2-12.31-7.22-13.56l.2-.98c6.75,1.4,7.97,13.91,8.02,14.44l-1,.09Z"/>
        <path class="cls-38" d="M450.66,573.12c-.01-.12-1.21-12.31-7.22-13.56l.2-.98c6.73,1.4,7.97,13.91,8.02,14.44l-1,.09Z"/>
        <path class="cls-38" d="M457.08,573.12c-.01-.12-1.21-12.31-7.22-13.56l.2-.98c6.73,1.4,7.97,13.91,8.02,14.44l-1,.09Z"/>
        <path class="cls-38" d="M646.16,570.67l-1-.09c.05-.53,1.27-13.04,8.01-14.44l.2,.98c-6.01,1.25-7.2,13.43-7.21,13.56Z"/>
        <path class="cls-38" d="M639.38,570.67l-1-.09c.05-.53,1.28-13.04,8.02-14.44l.2,.98c-6.02,1.25-7.21,13.43-7.22,13.56Z"/>
        <path class="cls-38" d="M632.96,570.67l-1-.09c.05-.53,1.28-13.04,8.02-14.44l.2,.98c-6.02,1.25-7.21,13.43-7.22,13.56Z"/>
        <path class="cls-13" d="M522.73,90.77c4.84-.16,9.17-3.06,11.16-7.47,.41-.87-.88-1.63-1.3-.76-1.81,3.82-5.51,6.73-9.86,6.73-.41,0-.75,.34-.75,.75s.34,.75,.75,.75Z"/>
        <path class="cls-13" d="M523.32,90c2.74,1.28,5.32,2.88,7.68,4.76,.14,.11,.34,.08,.45-.06,.08-.1,.09-.23,.03-.34-1.17-2-3.1-5-4.62-5.71"/>
        <ellipse class="cls-7" cx="166.09" cy="506.05" rx="5.28" ry="2.04" transform="translate(-341.93 346.08) rotate(-54.35)"/>
        <ellipse class="cls-7" cx="164.05" cy="514.56" rx="2.26" ry=".87" transform="translate(-349.69 347.96) rotate(-54.35)"/>
        <path class="cls-28" d="M111.35,449.92h28.84c6.84,0,12.04,1.65,15.6,4.94s5.34,8.03,5.34,14.22c.13,3.23-.56,6.44-2,9.34-1.47,2.6-3.6,4.76-6.17,6.27,2.47,.42,4.85,1.24,7.06,2.42,1.83,1,3.45,2.36,4.74,4,1.22,1.58,2.11,3.4,2.62,5.33,.53,2.06,.8,4.19,.79,6.32,.06,3.19-.56,6.36-1.83,9.29-1.17,2.63-2.92,4.96-5.13,6.81-2.36,1.93-5.11,3.34-8.05,4.15-3.47,.96-7.07,1.43-10.67,1.38h-31.14v-74.47Zm19.35,29.24h3.56c6.06,0,9.09-2.4,9.09-7.21s-3.03-7.21-9.09-7.21h-3.56v14.42Zm0,30.22h4.3c4.87,0,8.36-.63,10.47-1.88,3.33-2.3,4.16-6.85,1.87-10.18-.5-.73-1.14-1.36-1.87-1.87-2.11-1.25-5.6-1.87-10.47-1.87h-4.3v15.8Z"/>
        <path class="cls-5" d="M68.6,608c12.62-14.53,22.74-31.07,29.94-48.92,4.1,3,12.2,11.94,16.3,14.91,4.31-3.2,4.14-13.06,7.3-17.39,2,.82,11.3,8,13.36,8.81,12.11-22.79,17.43-51.72,30.33-74.07,35,32.13,70.39,64.8,95.45,105.14-62.92,15.8-126.51,17.92-191.12,12.07"/>
        <path class="cls-27" d="M261.28,596.27c-62.92,15.8-126.51,17.92-191.12,12.07l-1.55-.56c2.77-3,5.37-6.15,7.8-9.44,59.2,4.35,145.94,3.84,162.57-33,3.49,4.55,19.91,24.19,22.3,30.93Z"/>
        <path class="cls-27" d="M214.29,562.17c-1.55,5.09-4.05,9.84-7.36,14-3.28,4.24-7.22,7.93-11.66,10.93-4.46,3-9.39,5.24-14.58,6.61-5.14,1.33-10.47,1.74-15.75,1.21,5.03-1.02,9.98-2.43,14.79-4.21,4.67-1.83,9.12-4.17,13.27-6.97,4.17-2.81,8.03-6.05,11.53-9.66,1.76-1.82,3.48-3.7,5.08-5.7s3.21-4.04,4.68-6.21Z"/>
        <path class="cls-7" d="M213.72,561.27c-1.55,5.09-4.05,9.83-7.35,14-3.29,4.24-7.22,7.93-11.67,10.93-4.46,3-9.39,5.24-14.58,6.61-5.14,1.32-10.47,1.73-15.75,1.19,5.03-1.02,9.98-2.43,14.79-4.21,4.68-1.81,9.14-4.14,13.31-6.93,4.16-2.82,8.03-6.07,11.53-9.68,1.76-1.82,3.48-3.7,5.08-5.7s3.17-4.04,4.64-6.21Z"/>
        <path class="cls-27" d="M172.6,501.51c2.16,2.31,3.84,5.03,4.93,8,1.15,3,1.69,6.19,1.59,9.4-.07,3.21-.83,6.37-2.22,9.27-.65,1.44-1.45,2.82-2.37,4.1-.21,.34-.45,.65-.72,.94l-.78,.89c-.52,.58-1.05,1.16-1.58,1.72,.37-.69,.75-1.38,1.13-2,.41-.64,.78-1.31,1.11-2,.67-1.36,1.27-2.76,1.77-4.19,1.04-2.8,1.6-5.75,1.66-8.74,.1-2.99-.26-5.98-1.07-8.86-.82-2.97-1.97-5.83-3.45-8.53Z"/>
        <path class="cls-7" d="M172,501.48c1.82,2.47,3.17,5.25,4,8.2,.88,2.97,1.28,6.06,1.19,9.15v1.16l-.13,1.16c-.11,.76-.15,1.54-.32,2.29-.3,1.52-.73,3.01-1.28,4.45-.24,.73-.53,1.44-.87,2.13l-1.07,2c-.37,.67-.79,1.31-1.26,1.91-.44,.62-.89,1.23-1.36,1.82,.29-.7,.58-1.4,.88-2.09,.32-.67,.61-1.36,.85-2.06,.53-1.38,.98-2.79,1.35-4.22,.77-2.82,1.19-5.72,1.25-8.64,.1-2.93-.14-5.86-.7-8.73-.58-2.92-1.43-5.77-2.53-8.53Z"/>
        <path class="cls-27" d="M130.87,582.75c-2.84,1.38-5.93,2.18-9.09,2.35-3.2,.2-6.41-.23-9.45-1.27-3.05-1.02-5.85-2.68-8.21-4.86-1.18-1.05-2.26-2.22-3.21-3.48-.26-.31-.49-.64-.68-1l-.62-1c-.41-.67-.8-1.35-1.18-2,.56,.55,1.1,1.11,1.62,1.68,.5,.58,1.03,1.14,1.6,1.65,1.09,1.05,2.25,2.03,3.47,2.93,2.37,1.82,5.02,3.23,7.85,4.17,2.83,.98,5.8,1.52,8.79,1.6,3.06,.09,6.11-.17,9.11-.77Z"/>
        <path class="cls-7" d="M131.09,582.17c-2.89,1-5.94,1.47-9,1.39-3.09-.04-6.16-.56-9.09-1.56l-1.09-.37-1.07-.47c-.7-.33-1.43-.6-2.1-1-1.36-.74-2.65-1.59-3.87-2.54-.63-.45-1.22-.94-1.78-1.47l-1.62-1.62c-.54-.55-1.02-1.14-1.46-1.77-.46-.6-.91-1.22-1.34-1.83,.59,.48,1.17,1,1.74,1.45,.54,.51,1.12,.98,1.72,1.42,1.16,.92,2.37,1.77,3.63,2.54,2.46,1.57,5.11,2.83,7.89,3.75,2.77,.96,5.63,1.6,8.54,1.92,2.96,.32,5.93,.38,8.9,.16Z"/>
        <rect class="cls-28" x="121.89" y="434.83" width="6.62" height="15.58"/>
        <rect class="cls-28" x="136.6" y="434.83" width="6.62" height="15.58"/>
        <rect class="cls-28" x="121.89" y="521.41" width="6.62" height="15.58"/>
        <rect class="cls-28" x="136.6" y="521.41" width="6.62" height="15.58"/>
        <path class="cls-6" d="M75.88,472.19c-.24,0-.48-.04-.72-.14-1.03-.4-1.54-1.56-1.14-2.59,2.96-7.64,7.04-14.76,12.15-21.17,.69-.86,1.95-1.01,2.81-.32,.86,.69,1.01,1.95,.32,2.81-4.85,6.09-8.74,12.85-11.55,20.11-.31,.79-1.06,1.28-1.87,1.28Z"/>
        <circle class="cls-6" cx="94.82" cy="444.68" r="2.58"/>
        <ellipse class="cls-31" cx="545.26" cy="634.02" rx="16.59" ry="7.01"/>
        <ellipse class="cls-31" cx="411.04" cy="530.05" rx="16.59" ry="7.01"/>
        <ellipse class="cls-30" cx="513.14" cy="623.42" rx="7.75" ry="3.59"/>
        <ellipse class="cls-38" cx="493.07" cy="95.12" rx="4.41" ry="7.89"/>
        <ellipse class="cls-7" cx="490.16" cy="98.49" rx="1.61" ry="2.47"/>
        <ellipse class="cls-7" cx="88.54" cy="588.75" rx="2.26" ry=".87" transform="translate(-441.48 317.55) rotate(-54.35)"/>
        <circle class="cls-7" cx="92.16" cy="584.31" r="1.43"/>
        <ellipse class="cls-7" cx="64.31" cy="442.21" rx="3.97" ry="1.54" transform="translate(-332.51 236.73) rotate(-54.35)"/>
        <circle class="cls-7" cx="70.67" cy="434.4" r="2.52"/>
        <circle class="cls-27" cx="140.04" cy="593.98" r="1.54"/>
        <circle class="cls-27" cx="202.36" cy="541.24" r="1.54"/>
        <circle class="cls-21" cx="68.15" cy="596.71" r="1.54"/>
        <circle class="cls-35" cx="52.06" cy="556.57" r=".25"/>
        <circle class="cls-35" cx="63.35" cy="559.76" r=".81"/>
        <circle class="cls-21" cx="78.6" cy="575.17" r=".88"/>
        <circle class="cls-21" cx="224.81" cy="542.78" r=".88"/>
        <circle class="cls-21" cx="86.05" cy="573.41" r=".88"/>
        <circle class="cls-35" cx="48.45" cy="559.72" r="1.54"/>
        <circle class="cls-35" cx="41.47" cy="569.29" r=".55"/>
        <circle class="cls-35" cx="17.93" cy="583.7" r=".82"/>
        <circle class="cls-27" cx="110.53" cy="590.43" r=".82"/>
        <circle class="cls-27" cx="131.09" cy="586.73" r=".82"/>
        <circle class="cls-35" cx="56.52" cy="575.05" r=".11"/>
        <circle class="cls-35" cx="244.32" cy="531.19" r="1.54"/>
        <circle class="cls-35" cx="255.01" cy="536.28" r=".55"/>
        <circle class="cls-35" cx="273.54" cy="556.73" r=".82"/>
        <circle class="cls-21" cx="261.85" cy="573.41" r="1.54"/>
        <path class="cls-38" d="M535,57.95c-1.04,0-2.07-.46-2.76-1.35-1.19-1.52-.92-3.72,.61-4.91h0c.17-.13,16.6-13.24,13.05-29.38-.42-1.89,.78-3.76,2.66-4.17,1.89-.42,3.76,.78,4.17,2.66,4.51,20.48-14.75,35.76-15.58,36.4-.64,.5-1.4,.74-2.15,.74Z"/>
        <path class="cls-38" d="M538.21,48.66c-.27,0-.55-.08-.8-.24-.68-.44-.87-1.35-.43-2.03,.4-.62,10.01-15.09,24.57-13.15,.8,.11,1.37,.84,1.26,1.65s-.84,1.37-1.65,1.26c-12.72-1.69-21.64,11.71-21.73,11.85-.28,.43-.75,.66-1.23,.66Z"/>
        <path class="cls-38" d="M491.17,35.07c-1.67,0-3.15-1.2-3.44-2.9h0c-.04-.21-3.88-20.9-19.82-25.3-1.86-.52-2.96-2.44-2.44-4.31s2.44-2.95,4.31-2.44c20.23,5.6,24.67,29.82,24.85,30.84,.33,1.9-.94,3.72-2.85,4.05-.2,.04-.4,.05-.6,.05Z"/>
        <path class="cls-38" d="M487.4,40c-.7,0-1.39-.37-1.75-1.03-.12-.22-2.98-5.45-4.46-12.7-1.99-9.76-.48-18.51,4.37-25.3,.64-.9,1.89-1.11,2.79-.46s1.11,1.89,.46,2.79c-10.17,14.23,.24,33.55,.34,33.74,.53,.97,.18,2.18-.79,2.72-.31,.17-.64,.25-.96,.25Z"/>
        <path class="cls-4" d="M434.87,508.45s13.41,10.68,49.05,6.78c0,0-26.83,6.84-47,2.84"/>
        <path class="cls-4" d="M642.62,503.55s-18.45,10.94-49.92,10.34c0,0,24.11,7.07,50.17,0"/>
      </g>
    </g>
  </g>
</svg>