<?xml version="1.0" encoding="UTF-8"?>
<svg id="Layer_2" data-name="Layer 2" xmlns="http://www.w3.org/2000/svg" viewBox="0 0 776.69 657.16">
  <defs>
    <style>
      .cls-1 {
        fill: #f9a948;
      }

      .cls-2 {
        fill: #67f4aa;
      }

      .cls-3 {
        fill: #000201;
      }

      .cls-4 {
        fill: #f29530;
      }

      .cls-5, .cls-6 {
        fill: #fff;
      }

      .cls-7 {
        fill: #ffede1;
      }

      .cls-8 {
        fill: #ffd297;
      }

      .cls-9 {
        fill: #eceff6;
      }

      .cls-10 {
        fill: #ba2028;
      }

      .cls-11 {
        fill: #a01d29;
      }

      .cls-12 {
        fill: #b4bec1;
      }

      .cls-13 {
        fill: #def6ff;
      }

      .cls-14 {
        fill: #d6393a;
      }

      .cls-15 {
        fill: #d9e1e4;
      }

      .cls-16 {
        fill: #c8d3d9;
      }

      .cls-17, .cls-18 {
        fill: #94b5bf;
      }

      .cls-19 {
        fill: #99cddd;
      }

      .cls-20 {
        fill: #29b260;
      }

      .cls-6 {
        opacity: .5;
      }

      .cls-6, .cls-18 {
        isolation: isolate;
      }

      .cls-18 {
        opacity: .4;
      }

      .cls-21 {
        opacity: .2;
      }
    </style>
  </defs>
  <g id="Layer_1-2" data-name="Layer 1">
    <g id="Layer_2-2" data-name="Layer 2">
      <g id="Layer_2-2" data-name="Layer 2-2">
        <path class="cls-2" d="M712.51,530.39c-11.75-33.92-48.78-51.88-82.69-40.13-26.1,9.05-43.64,33.61-43.71,61.23v72.4l41.48,1.23h98.42c26.43,0,47.86-21.43,47.86-47.86,0-26.43-21.43-47.86-47.86-47.86-26.43,0-47.86,21.43-47.86,47.86,0,.08,0,.16,0,.24h0"/>
        <path class="cls-20" d="M671.64,579.85h0c-1.97-.03-3.55-1.64-3.53-3.61h0c.54-23.1,15.62-43.34,37.6-50.46,1.94-.57,3.99,.45,4.71,2.33,.68,1.9-.31,3.99-2.22,4.67-.04,.01-.08,.03-.12,.04-19.43,6.01-32.79,23.84-33.09,44.18-.02,1.61-1.35,2.9-2.96,2.88-.13,0-.27-.01-.4-.03Z"/>
        <path class="cls-20" d="M773.13,578.25c.05,26.38-21.29,47.81-47.66,47.86-.07,0-.13,0-.2,0h-7.12c25.52-12.05,36.44-42.5,24.4-68.02-.03-.07-.07-.14-.1-.21-5.66-12.11-15.9-21.47-28.47-26.02,25.62-6.21,51.43,9.53,57.63,35.16,.01,.06,.03,.12,.04,.18,1,3.59,1.5,7.31,1.47,11.04Z"/>
        <circle class="cls-20" cx="743.19" cy="562.79" r="7.36"/>
        <circle class="cls-20" cx="737.79" cy="576.29" r="3.44"/>
        <ellipse class="cls-20" cx="732.64" cy="567.95" rx="1.47" ry="2.21"/>
        <path class="cls-3" d="M710.55,532.11c-.77,0-1.46-.5-1.72-1.23-3.62-10.22-9.79-19.34-17.92-26.51-.74-.75-.74-1.95,0-2.7h0c.75-.74,1.95-.74,2.7,0h0c8.62,7.68,15.2,17.38,19.14,28.23,.29,1.01-.25,2.08-1.23,2.45l-.98-.25Z"/>
        <path class="cls-3" d="M726.01,627.96h-98.42l-41.55-1.23c-1.53-.04-2.75-1.29-2.75-2.82v-72.4c.11-37.45,30.57-67.72,68.02-67.61,28.19,.08,53.39,17.6,63.29,44,3.74-.87,7.57-1.31,11.41-1.3,27.99,0,50.68,22.69,50.68,50.68s-22.69,50.68-50.68,50.68h0Zm-136.95-6.8l38.73,1.15h98.22c24.87,0,45.04-20.16,45.04-45.04,0-24.87-20.16-45.04-45.04-45.04-24.87,0-45.04,20.16-45.04,45.04,0,.08,0,.16,0,.24,0,1.56-1.27,2.82-2.83,2.81-1.55,0-2.81-1.26-2.81-2.81,0-21.55,13.53-40.77,33.82-48.03-12.22-31.26-46.92-47.33-78.66-36.42-24.81,8.72-41.41,32.14-41.43,58.44v69.66Z"/>
        <path class="cls-20" d="M646,631.76l-4.66-5.4c10.57-9.49,11.44-25.76,1.94-36.32-.07-.08-.15-.16-.22-.25-9.11-9.99-24.34-11.37-35.1-3.19h0l-4.66-5.4c14.03-11.72,34.91-9.86,46.63,4.17,11.74,13.78,10.08,34.46-3.69,46.19-.08,.07-.16,.13-.23,.2h0Z"/>
        <path class="cls-3" d="M687.48,499.47h-.98c-1.52-1.16-3.17-2.15-4.91-2.95-.86-.49-1.27-1.51-.98-2.45h0c.49-1,1.68-1.44,2.7-.98h0c1.85,.97,3.65,2.04,5.4,3.19,.86,.49,1.16,1.58,.67,2.44-.05,.09-.11,.18-.18,.26h0c-.53,.28-1.12,.44-1.72,.49Z"/>
        <path class="cls-3" d="M675.69,493.33h-.74c-9.52-3.71-19.77-5.14-29.94-4.17-1.02-.06-1.9-.74-2.21-1.72-.18-1.01,.47-1.99,1.47-2.21h7.12c8.49-.07,16.91,1.52,24.79,4.66,.94,.42,1.46,1.45,1.23,2.45,.03,.79-.59,1.45-1.37,1.47-.03,0-.07,0-.1,0l-.25-.49Z"/>
        <path class="cls-3" d="M640.84,631.76c-.58,.02-1.14-.26-1.47-.74-.74-.75-.74-1.95,0-2.7,10.8-9.57,11.8-26.09,2.23-36.9-9.22-10.41-24.98-11.77-35.85-3.11-.8,.69-2.01,.6-2.7-.2-.62-.72-.62-1.78,0-2.5h0c13.24-10.05,32.11-7.46,42.16,5.78,9.39,12.37,7.82,29.87-3.63,40.37h-.74Z"/>
        <path class="cls-5" d="M632.99,503.4c-1.36,0-2.45-1.1-2.45-2.45,.02-.96,.59-1.82,1.47-2.21,8.23-3.37,17.16-4.71,26.02-3.93,1.26,.13,2.22,1.19,2.21,2.45h0c0,1.22-.99,2.21-2.21,2.21h-.25c-8.17-.71-16.4,.47-24.05,3.44l-.74,.49Z"/>
        <path class="cls-5" d="M618.51,514.19c-.52-.05-1.02-.22-1.47-.49-.94-.95-.94-2.48,0-3.44,1.76-2,3.64-3.89,5.65-5.65,.95-.8,2.37-.69,3.19,.25h0c.88,.74,.99,2.06,.25,2.94-.08,.09-.16,.17-.25,.25h0c-1.76,1.51-3.4,3.15-4.91,4.91-.42,.94-1.45,1.46-2.45,1.23Z"/>
        <path class="cls-2" d="M214.27,530.39c11.75-33.92,48.78-51.88,82.69-40.13,26.1,9.05,43.64,33.61,43.71,61.23v72.4l-41.48,1.23h-98.42c-26.43,0-47.86-21.43-47.86-47.86s21.43-47.86,47.86-47.86,47.86,21.43,47.86,47.86h0"/>
        <path class="cls-20" d="M255.99,578.5h0c1.96-.07,3.5-1.71,3.44-3.68,0,0,0,0,0,0h0c-1.07-23.09-16.63-42.98-38.78-49.58-1.94-.71-4.08,.29-4.78,2.23-.71,1.94,.29,4.08,2.23,4.78,.11,.04,.23,.08,.34,.11h0c19.59,5.55,33.37,23.1,34.12,43.44,.17,1.67,1.67,2.89,3.34,2.71,.03,0,.06,0,.09-.01Z"/>
        <path class="cls-20" d="M282.75,631.76l4.42-5.4c-11.24-8.91-13.12-25.25-4.21-36.48,8.91-11.24,25.25-13.12,36.48-4.21,.38,.3,.75,.61,1.1,.93h0l4.42-5.4c-13.77-11.88-34.57-10.35-46.46,3.43-11.88,13.77-10.35,34.57,3.43,46.46,.27,.23,.54,.46,.81,.68h0Z"/>
        <path class="cls-20" d="M153.65,578.25c-.05,26.38,21.29,47.81,47.66,47.86,.07,0,.13,0,.2,0h7.12c-25.52-12.05-36.44-42.5-24.4-68.02,.03-.07,.07-.14,.1-.21,5.66-12.11,15.9-21.47,28.47-26.02-25.62-6.21-51.43,9.53-57.63,35.16-.01,.06-.03,.12-.04,.18h0c-1,3.59-1.5,7.31-1.47,11.04Z"/>
        <circle class="cls-20" cx="183.34" cy="562.79" r="7.36"/>
        <circle class="cls-20" cx="188.99" cy="576.29" r="3.44"/>
        <ellipse class="cls-20" cx="194.14" cy="567.95" rx="1.47" ry="2.21"/>
        <path class="cls-3" d="M216.23,532.11c.77,0,1.46-.5,1.72-1.23,3.62-10.22,9.79-19.34,17.92-26.51,.74-.75,.74-1.95,0-2.7h0c-.75-.74-1.95-.74-2.7,0h0c-8.77,7.54-15.38,17.28-19.14,28.23-.43,.83-.11,1.85,.72,2.28,.16,.08,.33,.14,.51,.17l.98-.25Z"/>
        <path class="cls-3" d="M241.51,499.47h.98c1.52-1.16,3.17-2.15,4.91-2.95,.98-.55,1.33-1.79,.78-2.77-.49-.88-1.55-1.26-2.5-.91h0c-1.85,.97-3.65,2.04-5.4,3.19-.85,.45-1.18,1.5-.73,2.35,.07,.12,.15,.24,.24,.35h0c.49,.41,1.09,.66,1.72,.74Z"/>
        <path class="cls-3" d="M253.54,493.33h.74c9.52-3.71,19.77-5.14,29.94-4.17,1.07,.24,2.13-.43,2.38-1.5s-.43-2.13-1.5-2.38c-.12-.03-.25-.04-.38-.05h-7.12c-8.49-.07-16.91,1.52-24.79,4.66-.94,.42-1.46,1.45-1.23,2.45,.26,.73,.94,1.22,1.72,1.23l.25-.25Z"/>
        <path class="cls-3" d="M202.73,627.34h98.42c1.07,.01,1.95-.84,1.96-1.91,0-.02,0-.03,0-.05h0c.01-1.07-.84-1.95-1.91-1.96-.02,0-.03,0-.05,0h-98.42c-25.35,0-45.9-20.55-45.9-45.9,0-25.35,20.55-45.9,45.9-45.9,25.35,0,45.9,20.55,45.9,45.9h0c-.2,1.02,.46,2.01,1.47,2.21,1.02,.2,2.01-.46,2.21-1.47v-.74c0-27.38-22.2-49.58-49.58-49.58-27.38,0-49.58,22.2-49.58,49.58,0,27.38,22.2,49.58,49.58,49.58h0v.25Z"/>
        <path class="cls-3" d="M288.39,631.76c.58,.02,1.14-.26,1.47-.74,.74-.75,.74-1.95,0-2.7h0c-10.8-9.57-11.8-26.09-2.23-36.9,9.22-10.41,24.98-11.77,35.85-3.11,.8,.69,2.01,.6,2.7-.2,.62-.72,.62-1.78,0-2.5h0c-13.24-10.05-32.11-7.46-42.16,5.78-9.39,12.37-7.82,29.87,3.63,40.37h.74Z"/>
        <path class="cls-5" d="M296.25,503.4c1.36,0,2.45-1.1,2.45-2.45-.02-.96-.59-1.82-1.47-2.21-8.32-3.39-17.32-4.73-26.26-3.93-1.26,.13-2.22,1.19-2.21,2.45h0c0,1.22,.99,2.21,2.21,2.21h.25c8.17-.71,16.4,.47,24.05,3.44,.25,.49,.49,.49,.98,.49Z"/>
        <path class="cls-5" d="M310.73,514.19c.52-.05,1.02-.22,1.47-.49,.88-.74,.99-2.06,.25-2.94-.08-.09-.16-.17-.25-.25h0c-1.76-2-3.64-3.89-5.65-5.65-1.13-.76-2.65-.46-3.41,.67-.63,.93-.54,2.18,.22,3.01,1.76,1.51,3.4,3.15,4.91,4.91,.72,.5,1.58,.76,2.45,.74Z"/>
        <path class="cls-9" d="M749.57,142.11c.19-38.58-30.93-70.01-69.51-70.2-32.69-.16-61.12,22.38-68.43,54.24-22.04-12.21-49.81-4.24-62.02,17.81-12.21,22.04-4.24,49.81,17.81,62.02,.58,.32,1.16,.63,1.75,.92,5.8,2.97,12.15,4.72,18.65,5.15h98.91c35.93-3.46,63.23-33.86,62.83-69.95Z"/>
        <g class="cls-21">
          <path class="cls-16" d="M148.49,277.84c.04,15.89-12.36,29.04-28.23,29.94H54.49c-25.35-2.61-43.79-25.27-41.18-50.62,2.61-25.35,25.27-43.79,50.62-41.18,19.47,2,35.57,16.07,40.15,35.11,14.57-7.88,32.77-2.46,40.65,12.1,.03,.06,.06,.11,.09,.17h0c2.45,4.43,3.72,9.42,3.68,14.48Z"/>
        </g>
        <g class="cls-21">
          <path class="cls-16" d="M279.31,393.93c.04,15.89-12.36,29.04-28.23,29.94h-65.29c-25.41-2.53-43.96-25.19-41.42-50.6,2.53-25.41,25.19-43.96,50.6-41.42,19.62,1.96,35.84,16.14,40.4,35.33,14.59-7.8,32.73-2.44,40.74,12.03,2.45,4.43,3.72,9.42,3.68,14.48l-.49,.25Z"/>
        </g>
        <path class="cls-3" d="M183.83,265.32c-33.38,0-59.89-10.8-78.54-32.4-12.27-14.24-27.73-40.5-31.91-86.64-1.51-16.5-1.43-33.1,.25-49.58,.25-.98,.98-1.72,1.96-1.47s1.72,.98,1.47,1.96h0c0,.74-10.8,86.39,30.68,133.52,18.16,20.37,43.69,30.68,75.84,30.68,.92-.03,1.69,.7,1.72,1.62,0,.03,0,.07,0,.1,0,.98-.49,2.21-1.47,2.21Z"/>
        <path class="cls-3" d="M202.49,265.32c-33.38,0-59.89-10.8-78.54-32.4-12.27-14.24-27.73-40.5-31.91-86.64-1.72-16.48-1.72-33.1,0-49.58,.25-.98,.98-1.72,1.96-1.47,.81-.01,1.48,.64,1.49,1.45,0,.09,0,.18-.02,.27v.25c0,.74-10.8,86.39,30.68,133.52,18.16,20.62,43.69,31.17,75.84,31.17,.95,0,1.72,.77,1.72,1.72s-.77,1.72-1.72,1.72h.49Z"/>
        <rect class="cls-1" x="37.31" y="80.01" width="210.34" height="17.67"/>
        <rect class="cls-8" x="36.57" y="79.28" width="210.34" height="7.12"/>
        <path class="cls-3" d="M247.4,98.91H37.31c-1.11-.02-1.99-.94-1.97-2.05,0-.05,0-.11,0-.16v-17.67c0-1.22,.99-2.21,2.21-2.21H247.65c1.22,0,2.21,.99,2.21,2.21h0v17.67c-.02,1.25-1.05,2.24-2.3,2.22-.05,0-.1,0-.16,0Zm-207.89-4.42H245.44v-13.25H39.52v13.25Z"/>
        <rect class="cls-15" x="114.87" y="23.81" width="22.09" height="144.32"/>
        <rect class="cls-12" x="123.7" y="23.81" width="9.57" height="144.32"/>
        <rect class="cls-5" x="113.15" y="23.81" width="5.4" height="144.32"/>
        <path class="cls-3" d="M134.26,169.84h-21.6c-1.22,0-2.21-.99-2.21-2.21h0V23.32c0-1.22,.99-2.21,2.21-2.21h21.6c1.22,0,2.21,.99,2.21,2.21h0V167.63c0,1.22-.99,2.21-2.21,2.21Zm-19.64-4.42h17.67V25.53h-17.43l-.25,139.9Z"/>
        <rect class="cls-8" x="134.26" y="1.72" width="20.13" height="624.64"/>
        <rect class="cls-1" x="142.11" y="1.72" width="10.55" height="624.64"/>
        <path class="cls-3" d="M133.77,328.64c-1.22,0-2.21-.99-2.21-2.21h0v-11.78c0-1.22,.99-2.21,2.21-2.21,1.22,0,2.21,.99,2.21,2.21v11.78c0,1.22-.99,2.21-2.21,2.21Z"/>
        <path class="cls-3" d="M133.77,348.28c-1.22,0-2.21-.99-2.21-2.21h0v-6.63c0-1.22,.99-2.21,2.21-2.21,1.22,0,2.21,.99,2.21,2.21h0v7.12c-.31,.98-1.19,1.66-2.21,1.72Z"/>
        <path class="cls-3" d="M153.89,629.55h-20.13c-1.22,0-2.21-.99-2.21-2.21V357.36c0-1.22,.99-2.21,2.21-2.21,1.22,0,2.21,.99,2.21,2.21h0v267.53h15.95V4.66h-15.95V299.93c0,1.22-.99,2.21-2.21,2.21-1.22,0-2.21-.99-2.21-2.21h0V2.21c0-1.22,.99-2.21,2.21-2.21h0s20.13,0,20.13,0c1.22,0,2.21,.99,2.21,2.21h0V627.1c.15,1.2-.69,2.29-1.89,2.45-.03,0-.05,0-.08,0h-.25Z"/>
        <path class="cls-3" d="M147.02,195.37c-.64,.04-1.19-.44-1.23-1.07,0-.05,0-.1,0-.15h0v-14.97c0-.68,.55-1.23,1.23-1.23s1.23,.55,1.23,1.23v14.97c-.05,.66-.57,1.18-1.23,1.23Z"/>
        <path class="cls-3" d="M147.02,411.85c-.66-.05-1.18-.57-1.23-1.23h0v-14.97c0-.68,.55-1.23,1.23-1.23s1.23,.55,1.23,1.23v14.73c-.05,.66-.57,1.18-1.23,1.23v.25Z"/>
        <path class="cls-3" d="M147.02,389.76c-.66-.05-1.18-.57-1.23-1.23v-8.84c0-.68,.55-1.23,1.23-1.23s1.23,.55,1.23,1.23v8.84c.04,.64-.44,1.19-1.07,1.23-.05,0-.1,0-.15,0Z"/>
        <path class="cls-3" d="M53.75,90.57h-14.97c-.64,.04-1.19-.44-1.23-1.07,0-.05,0-.1,0-.15h0c-.04-.64,.44-1.19,1.07-1.23,.05,0,.1,0,.15,0h14.97c.68,0,1.23,.55,1.23,1.23s-.55,1.23-1.23,1.23Z"/>
        <path class="cls-3" d="M73.14,90.57h-11.54c-.64,.04-1.19-.44-1.23-1.07,0-.05,0-.1,0-.15,.05-.66,.57-1.18,1.23-1.23h11.54c.68,0,1.23,.55,1.23,1.23s-.55,1.23-1.23,1.23Z"/>
        <path class="cls-3" d="M143.34,564.02c-.64,.04-1.19-.44-1.23-1.07,0-.05,0-.1,0-.15h0v-14.97c0-.68,.55-1.23,1.23-1.23s1.23,.55,1.23,1.23v14.97c.25,.74-.49,1.23-1.23,1.23Z"/>
        <path class="cls-3" d="M1.72,181.62c-.92,.03-1.69-.7-1.72-1.62,0-.03,0-.07,0-.1,0-.77,.5-1.46,1.23-1.72,45.65-11.78,47.12-79.77,47.12-80.5,0-.95,.77-1.72,1.72-1.72,.95,0,1.72,.77,1.72,1.72-.49,12.6-2.72,25.07-6.63,37.06-8.34,25.53-23.32,41.97-43.44,46.88Z"/>
        <path class="cls-3" d="M13.99,187.76c-.92,.03-1.69-.7-1.72-1.62,0-.03,0-.07,0-.1,0-.77,.5-1.46,1.23-1.72,45.65-11.78,47.12-85.9,47.12-86.64,0-.95,.77-1.72,1.72-1.72s1.72,.77,1.72,1.72h0c-.49,13.57-2.72,27.01-6.63,40.01-8.34,27.49-23.32,44.67-43.44,50.07Z"/>
        <polyline class="cls-15" points="678.15 277.35 678.15 629.06 239.06 629.06 239.06 594.7 239.06 274.16"/>
        <polyline class="cls-18" points="678.15 277.35 678.15 629.06 500.45 629.06 500.45 594.7 500.45 274.16"/>
        <path class="cls-17" d="M679.62,316.62v31.66c-4.49-5.57-7-12.48-7.12-19.64,0,17.35-14.07,31.42-31.42,31.42s-31.42-14.07-31.42-31.42c-.69,17.35-15.31,30.86-32.66,30.17-16.39-.65-29.53-13.79-30.17-30.17-.69,17.35-15.31,30.86-32.66,30.17-16.39-.65-29.53-13.79-30.17-30.17-.69,17.35-15.31,30.86-32.66,30.17-16.39-.65-29.53-13.79-30.17-30.17-.69,17.35-15.31,30.86-32.66,30.17-16.39-.65-29.53-13.79-30.17-30.17,0,17.35-14.08,31.41-31.43,31.4-17.34,0-31.39-14.06-31.4-31.4-.11,17.32-14.24,31.28-31.56,31.17-9.24-.06-17.99-4.19-23.91-11.29v-31.66c11.07,13.31,30.81,15.17,44.18,4.17,7.13-5.98,11.33-14.75,11.54-24.05,0,17.35,14.07,31.42,31.42,31.42s31.42-14.07,31.42-31.42c.69,17.35,15.31,30.86,32.66,30.17,16.39-.65,29.53-13.79,30.17-30.17,.69,17.35,15.31,30.86,32.66,30.17,16.39-.65,29.53-13.79,30.17-30.17,.69,17.35,15.31,30.86,32.66,30.17,16.39-.65,29.53-13.79,30.17-30.17,.69,17.35,15.31,30.86,32.66,30.17,16.39-.65,29.53-13.79,30.17-30.17,0,17.35,14.07,31.42,31.42,31.42s31.42-14.07,31.42-31.42c-.09,7.15,2.35,14.1,6.87,19.64Z"/>
        <path class="cls-17" d="M242,370.12h22.58c11.09,.05,20.07,9.03,20.13,20.13h0v160.03c-.16,8.57-7.14,15.44-15.71,15.46h-26.75v-195.61h-.25Z"/>
        <polygon class="cls-5" points="272.44 564.26 202.98 559.36 202.98 360.55 272.44 360.55 272.44 564.26"/>
        <path class="cls-7" d="M272.44,359.32v203.71h-69.7v-14.48h19.88c19.52,0,35.34-15.82,35.34-35.34h0v-153.89h14.48Z"/>
        <path class="cls-3" d="M272.44,566.6h-69.46c-1.55,.01-2.81-1.23-2.82-2.77,0-.02,0-.03,0-.05v-79.52c0-1.56,1.26-2.82,2.82-2.82s2.82,1.26,2.82,2.82v76.7h63.81v-198.07h-63.81v43.81c0,1.56-1.26,2.82-2.82,2.82-1.56,0-2.82-1.26-2.82-2.82v-46.63c-.01-1.55,1.23-2.81,2.77-2.82,.02,0,.03,0,.05,0h69.46c1.55-.01,2.81,1.23,2.82,2.77,0,.02,0,.03,0,.05v203.71c.01,1.55-1.23,2.81-2.77,2.82-.02,0-.03,0-.05,0Z"/>
        <circle class="cls-14" cx="236.85" cy="407.18" r="16.69"/>
        <circle class="cls-10" cx="242" cy="467.07" r="7.85"/>
        <circle class="cls-14" cx="236.85" cy="462.41" r="16.69"/>
        <circle class="cls-14" cx="236.85" cy="513.21" r="16.69"/>
        <circle class="cls-7" cx="217.71" cy="547.82" r="5.89"/>
        <circle class="cls-7" cx="229" cy="538.74" r="2.95"/>
        <circle class="cls-7" cx="260.41" cy="485.72" r="5.4"/>
        <path class="cls-3" d="M202.98,441.79c-1.55,.01-2.81-1.23-2.82-2.77,0-.02,0-.03,0-.05v-13.74c0-1.56,1.26-2.82,2.82-2.82s2.82,1.26,2.82,2.82v13.74c.01,1.55-1.23,2.81-2.77,2.82-.02,0-.03,0-.05,0Z"/>
        <path class="cls-3" d="M202.98,469.65c-1.55,.01-2.81-1.23-2.82-2.77,0-.02,0-.03,0-.05v-11.78c0-1.56,1.26-2.82,2.82-2.82s2.82,1.26,2.82,2.82v11.78c.01,1.55-1.23,2.81-2.77,2.82-.02,0-.03,0-.05,0Z"/>
        <circle class="cls-3" cx="239.06" cy="579.24" r="3.93"/>
        <circle class="cls-16" cx="277.1" cy="288.64" r="12.03"/>
        <circle class="cls-16" cx="523.03" cy="274.89" r="2.45"/>
        <polyline class="cls-8" points="452.34 630.78 452.34 383.38 309.5 383.38 309.5 630.78"/>
        <polyline class="cls-4" points="452.34 543.89 452.34 516.4 309.5 516.4 309.5 543.89"/>
        <rect class="cls-13" x="484.01" y="380.19" width="163.22" height="131.56"/>
        <path class="cls-3" d="M239.06,349.87c-1.55,.01-2.81-1.23-2.82-2.77,0-.02,0-.03,0-.05v-24.05c0-1.56,1.26-2.82,2.82-2.82s2.82,1.26,2.82,2.82h0v24.05c.01,1.55-1.23,2.81-2.77,2.82-.02,0-.03,0-.05,0Z"/>
        <path class="cls-19" d="M648.16,515.42h-165.08v-135.43h165.08v135.43Zm-153.4-11.68h141.72v-112.07h-141.72v112.07Z"/>
        <polygon class="cls-6" points="383.38 383.38 371.6 383.38 307.29 476.4 307.54 493.82 383.38 383.38"/>
        <polygon class="cls-5" points="423.63 383.38 409.39 383.38 329.87 498.98 329.87 516.4 423.63 383.38"/>
        <polygon class="cls-5" points="450.87 383.38 430.99 383.38 351.47 498.98 357.36 516.4 450.87 383.38"/>
        <path class="cls-3" d="M452.34,631.88c-1.55,.01-2.81-1.23-2.82-2.77,0-.02,0-.03,0-.05v-244.58h-137.2v244.58c0,1.56-1.26,2.82-2.82,2.82s-2.82-1.26-2.82-2.82v-247.4c-.01-1.55,1.23-2.81,2.77-2.82,.02,0,.03,0,.05,0h142.85c1.55-.01,2.81,1.23,2.82,2.77,0,.02,0,.03,0,.05v247.4c.01,1.55-1.23,2.81-2.77,2.82-.02,0-.03,0-.05,0Z"/>
        <path class="cls-3" d="M438.6,629.77c-1.07,0-1.94-.87-1.94-1.94v-230.22h-112.21v230.22c0,1.07-.87,1.94-1.94,1.94s-1.94-.87-1.94-1.94v-232.19c0-1.07,.87-1.94,1.94-1.94h116.09c1.07,0,1.94,.87,1.94,1.94v232.19c0,1.07-.87,1.94-1.94,1.94h0Z"/>
        <rect class="cls-8" x="295.75" y="490.14" width="169.6" height="43.2"/>
        <rect class="cls-1" x="295.75" y="516.4" width="169.6" height="16.94"/>
        <path class="cls-3" d="M465.35,536.16h-169.6c-1.55,.01-2.81-1.23-2.82-2.77,0-.02,0-.03,0-.05v-43.2c-.01-1.55,1.23-2.81,2.77-2.82,.02,0,.03,0,.05,0h169.6c1.55-.01,2.81,1.23,2.82,2.77,0,.02,0,.03,0,.05v43.2c.01,1.55-1.23,2.81-2.77,2.82-.02,0-.03,0-.05,0Zm-166.78-5.65h163.95v-37.55h-163.95v37.55Z"/>
        <circle class="cls-5" cx="438.6" cy="511.74" r="10.55"/>
        <path class="cls-3" d="M438.6,523.6c-6.55,0-11.85-5.31-11.85-11.85s5.31-11.85,11.85-11.85,11.85,5.31,11.85,11.85-5.31,11.85-11.85,11.85h0Zm0-21.11c-5.11,0-9.25,4.14-9.25,9.25,0,5.11,4.14,9.25,9.25,9.25,5.11,0,9.25-4.14,9.25-9.25s-4.14-9.25-9.25-9.25h0Z"/>
        <path class="cls-17" d="M484.01,513.21h166.9c3.15,.02,5.73,2.5,5.89,5.65h0c-.07,3.18-2.7,5.71-5.89,5.65,0,0,0,0,0,0h-166.9c-3.15-.02-5.73-2.5-5.89-5.65h0c.16-3.15,2.74-5.62,5.89-5.65Z"/>
        <path class="cls-3" d="M334.53,504.25h-38.78c-.75,0-1.35-.6-1.35-1.35s.6-1.35,1.35-1.35h38.78c.75,0,1.35,.6,1.35,1.35s-.6,1.35-1.35,1.35Z"/>
        <path class="cls-3" d="M316.86,511.13h-21.11c-.75,0-1.35-.6-1.35-1.35s.6-1.35,1.35-1.35h21.11c.75,0,1.35,.6,1.35,1.35s-.6,1.35-1.35,1.35Z"/>
        <path class="cls-3" d="M374.54,426.45c-4.41,0-7.98-3.57-7.98-7.98s3.57-7.98,7.98-7.98,7.98,3.57,7.98,7.98c-.01,4.4-3.58,7.96-7.98,7.98Zm0-13.25c-2.91,0-5.28,2.36-5.28,5.28s2.36,5.28,5.28,5.28,5.28-2.36,5.28-5.28h0c0-2.91-2.36-5.28-5.28-5.28Z"/>
        <path class="cls-3" d="M356.62,473.82h-.37c-.71-.21-1.12-.95-.93-1.67l14.24-48.35c.2-.72,.95-1.14,1.67-.93,0,0,0,0,0,0,.71,.21,1.12,.95,.93,1.67l-14.24,48.35c-.19,.56-.71,.93-1.3,.93Z"/>
        <path class="cls-3" d="M390.25,473.82c-.6,0-1.13-.4-1.3-.98l-13.5-47.62c-.36-.65-.13-1.47,.52-1.84,.65-.36,1.47-.13,1.84,.52,.12,.21,.18,.46,.17,.7l13.5,47.62c.19,.72-.22,1.46-.93,1.67l-.29-.07Z"/>
        <rect class="cls-5" x="329.38" y="472.47" width="95.97" height="30.68"/>
        <path class="cls-3" d="M425.35,505.97h-95.97c-1.55,.01-2.81-1.23-2.82-2.77,0-.02,0-.03,0-.05v-30.68c-.01-1.55,1.23-2.81,2.77-2.82,.02,0,.03,0,.05,0h95.97c1.55-.01,2.81,1.23,2.82,2.77,0,.02,0,.03,0,.05v30.68c.01,1.55-1.23,2.81-2.77,2.82-.02,0-.03,0-.05,0Zm-93.27-5.65h90.32v-25.03h-90.32v25.03Z"/>
        <rect class="cls-19" x="594.21" y="462.41" width="46.63" height="46.63"/>
        <rect class="cls-19" x="552.97" y="480.32" width="28.72" height="28.72"/>
        <path class="cls-3" d="M608.2,491.37c-.64,.04-1.19-.44-1.23-1.07,0-.05,0-.1,0-.15h0c0-.52,.28-.99,.74-1.23l24.3-8.59c.7-.22,1.44,.17,1.66,.86,.2,.63-.09,1.3-.68,1.59l-24.79,8.59h0Z"/>
        <path class="cls-3" d="M612.13,497.26c-.64,.04-1.19-.44-1.23-1.07,0-.05,0-.1,0-.15h0c0-.52,.28-.99,.74-1.23l13.25-4.42c.56-.22,1.18,.06,1.4,.61,.05,.12,.07,.24,.07,.37,0,.46-.18,.89-.49,1.23h0l-13.25,4.42-.49,.25Z"/>
        <polygon class="cls-5" points="537.02 513.21 520.33 513.21 561.07 381.66 577.76 381.66 537.02 513.21"/>
        <polygon class="cls-5" points="563.77 513.21 547.33 513.21 588.07 381.66 604.76 381.66 563.77 513.21"/>
        <path class="cls-3" d="M647.22,515.96h-163.22c-1.52,0-2.75-1.23-2.75-2.75v-131.56c0-1.52,1.23-2.75,2.75-2.75h163.22c1.52,0,2.75,1.23,2.75,2.75v131.56c0,1.52-1.23,2.75-2.75,2.75Zm-160.47-5.45h157.72v-126.11h-157.72v126.11Z"/>
        <circle class="cls-17" cx="636.18" cy="590.04" r="14.48"/>
        <circle class="cls-17" cx="634.46" cy="558.37" r="4.42"/>
        <circle class="cls-17" cx="599.36" cy="573.1" r="5.4"/>
        <circle class="cls-17" cx="577.03" cy="602.55" r="2.7"/>
        <circle class="cls-17" cx="587.83" cy="610.65" r="6.14"/>
        <circle class="cls-17" cx="605.5" cy="599.12" r="6.14"/>
        <rect class="cls-17" x="557.64" y="607.71" width="120.02" height="15.22"/>
        <path class="cls-3" d="M678.15,631.88H239.06c-1.55,.01-2.81-1.23-2.82-2.77,0-.02,0-.03,0-.05v-34.36c0-1.56,1.26-2.82,2.82-2.82s2.82,1.26,2.82,2.82h0v31.54h433.45V335.76c0-1.56,1.25-2.83,2.81-2.83,1.56,0,2.83,1.25,2.83,2.81v293.32c.01,1.55-1.23,2.81-2.77,2.82-.02,0-.03,0-.05,0Z"/>
        <rect class="cls-15" x="96.46" y="622.92" width="635.93" height="29.45"/>
        <rect class="cls-5" x="96.46" y="622.92" width="635.93" height="14.24"/>
        <path class="cls-3" d="M732.39,657.16H96.46c-1.55,.01-2.81-1.23-2.82-2.77,0-.02,0-.03,0-.05v-29.45c-.01-1.55,1.23-2.81,2.77-2.82,.02,0,.03,0,.05,0H732.39c1.55-.01,2.81,1.23,2.82,2.77,0,.02,0,.03,0,.05v29.45c.01,1.55-1.23,2.81-2.77,2.82-.02,0-.03,0-.05,0Zm-633.11-5.65H729.57v-23.81H99.28v23.81Z"/>
        <path class="cls-14" d="M714.74,301.25l-98.57-115.9H299.22l-91.6,107.72c-2.61,2.44-5.07,5.04-7.36,7.78-.94,1.44-1.59,3.05-1.91,4.74h-.22v1.4c-.15,1.3-.15,2.62,0,3.93v6.01c.61,15.89,13.98,28.27,29.87,27.66,15.29-.59,27.45-13.03,27.68-28.33h0v-4.17h0v4.91c.61,15.89,13.98,28.27,29.87,27.66,15.29-.59,27.45-13.03,27.68-28.33h0v-3.49h0v4.15c.61,15.89,13.98,28.27,29.87,27.66,15.29-.59,27.45-13.03,27.68-28.33h0v-2.77h0v3.44c.61,15.89,13.98,28.27,29.87,27.66,15.29-.59,27.45-13.03,27.68-28.33h0v-2.18h0v2.72c.61,15.89,13.98,28.27,29.87,27.66,15.29-.59,27.45-13.03,27.68-28.33v-1.35h0v2.01c.61,15.89,13.98,28.27,29.87,27.66,15.29-.59,27.45-13.03,27.68-28.33v-.64h0v1.3c.6,15.89,13.96,28.29,29.85,27.69,15.28-.57,27.44-12.99,27.7-28.28h0v.59c.61,15.89,13.98,28.27,29.87,27.66,15.29-.59,27.45-13.03,27.68-28.33v-10.73h0v11.36c-.24,15.9,12.45,28.98,28.35,29.23,15.9,.24,28.98-12.45,29.23-28.35,0-.51,0-1.03-.02-1.54v-10.7l-1.37-4.25Zm-382.07-114.72h-1.33l.27-.39,1.06,.39Z"/>
        <path class="cls-11" d="M539.97,185.82l52.28,119.77s8.49,24.37-13.89,39l10.14-3.68s21.4-15.49,7.09-49.46c-14.31-33.97-47.49-104.14-47.49-104.14l-8.12-1.5Z"/>
        <path class="cls-5" d="M471.49,186.53l13.43,111.97,.79,14.97s-4.12,24.32,16.08,29.11l8.34,3.22s20.52,1.57,28.4-14.19,3.95-26.02,3.95-26.02l-32.35-118.28-38.63-.79Z"/>
        <path class="cls-16" d="M537.71,331.61c-5.89,9.69-17.65,15.98-28.77,13.79,4.74,.93,11.56-2.68,15.22-5.38,4.68-3.62,8.11-8.62,9.82-14.28,5.11-14.41-1.13-29.75-4.91-44.01l-11.19-41.41-14.11-53.01-33.13-.66h0l38.63,.79,16.44,60.11,10.41,38.07c4.07,14.9,10.23,30.34,2.06,45.11l-.47,.88Z"/>
        <path class="cls-11" d="M609.47,186.53l97.76,121.42s13.01,30.66-20.3,37.4c0,0,29.77,3.61,28.99-36.62l-2.45-7.88-98.47-114.33h-5.52Z"/>
        <path class="cls-5" d="M331.56,185.36l-76.48,115.9v11.83s-4.74,30.75,25.23,33.11,32.82-25.94,32.82-25.94l-.49-13.47,1.57-8.66,51.25-111.97-33.9-.79Z"/>
        <path class="cls-5" d="M401.32,185.75l-30.7,115.11-1.6,11.04s.49,28.47,21.53,32.77c21.03,4.3,30.04-7.02,32.25-10.82s4.59-22.73,4.59-22.73l12.62-126.16-38.68,.79Z"/>
        <path class="cls-5" d="M545.61,187.32l53.6,112.75,1.6,21.11s1.64,25.4,24.86,24.54,31.91-23.02,31.91-23.02v-14.73l-76.48-121.44-35.49,.79Z"/>
        <path class="cls-16" d="M574.87,187.66l70.07,109.59c6.06,9.29,8.13,20.63,5.74,31.47-1.37,6.11-4.25,11.81-9.82,14.31,0,0,21.4-5.94,17.01-34.71-1.55-10.01-14.73-26.11-26.34-44.55-22.85-36.25-50.85-78.27-50.85-78.27l-5.82,2.16Z"/>
        <path class="cls-11" d="M467.22,184.96l11.39,119.85s4.47,38.19-24.96,39.98c0,0,33.67,5.77,32.47-37.99s-14.73-121.05-14.73-121.05l-4.17-.79Z"/>
        <path class="cls-16" d="M432.86,186.53l-14.19,113.54c5.16,16.64-.87,34.72-14.97,44.94l14.97-6.31,7.88-17.35s13.43-134.03,11.83-134.82c-1.82-.41-3.7-.41-5.52,0Z"/>
        <path class="cls-11" d="M395.01,185.75l-32.32,119.06s8.69,26.8-15.09,41.04c0,0,27.71-8.71,21.82-38.41,0,0,35.07-120.12,33.5-120.9-2.59-.58-5.25-.84-7.9-.79Z"/>
        <path class="cls-16" d="M359.54,186.53l-55.2,117.49s14.06,25.87-16.62,42.09c0,0,28.45-5.84,24.54-38.95l54.39-121.42-7.36-.54,.25,1.33Z"/>
        <path class="cls-11" d="M323.66,185.53l-76.87,116.9s3.95,37.06-22.85,44.18c0,0,35.47-3.14,30.75-39.42l75.67-120.66-6.7-1.01Z"/>
        <path class="cls-3" d="M456.35,348.16c-16.85,.01-30.57-13.54-30.75-30.39v-11.39c.12-1.09,1.11-1.88,2.2-1.76,.92,.1,1.65,.83,1.76,1.76v11.36c.18,14.8,12.32,26.66,27.12,26.48,14.8-.18,26.66-12.32,26.48-27.12h0v-10.73c.12-1.09,1.11-1.88,2.2-1.76,.92,.1,1.65,.83,1.76,1.76v10.7c.18,16.97-13.42,30.87-30.39,31.07h-.37Z"/>
        <path class="cls-3" d="M513.9,348.16c-16.85,.01-30.57-13.54-30.75-30.39v-11.39c.12-1.09,1.11-1.88,2.2-1.76,.92,.1,1.65,.83,1.76,1.76v11.36c.18,14.8,12.32,26.66,27.12,26.48,14.8-.18,26.66-12.32,26.48-27.12h0v-10.73c.12-1.09,1.11-1.88,2.2-1.76,.92,.1,1.65,.83,1.76,1.76v10.7c.18,16.97-13.42,30.87-30.39,31.07h-.37Z"/>
        <path class="cls-3" d="M571.46,348.16c-16.85,.01-30.57-13.54-30.75-30.39v-11.39c.12-1.09,1.11-1.88,2.2-1.76,.92,.1,1.65,.83,1.76,1.76v11.36c.18,14.8,12.32,26.66,27.12,26.48,14.8-.18,26.66-12.32,26.48-27.12h0v-10.73c.12-1.09,1.11-1.88,2.2-1.76,.92,.1,1.65,.83,1.76,1.76v10.7c.18,16.95-13.39,30.84-30.34,31.07h-.42Z"/>
        <path class="cls-3" d="M629.01,348.16c-16.85,.01-30.57-13.54-30.75-30.39v-11.39c.12-1.09,1.11-1.88,2.2-1.76,.92,.1,1.65,.83,1.76,1.76v11.36c.18,14.8,12.32,26.66,27.12,26.48,14.8-.18,26.66-12.32,26.48-27.12h0v-10.73c.12-1.09,1.11-1.88,2.2-1.76,.92,.1,1.65,.83,1.76,1.76v10.7c.18,16.97-13.42,30.87-30.39,31.07h-.37Z"/>
        <path class="cls-3" d="M686.57,348.16c-16.85,.01-30.57-13.54-30.75-30.39v-11.39c.12-1.09,1.11-1.88,2.2-1.76,.92,.1,1.65,.83,1.76,1.76v11.36c.18,14.8,12.32,26.66,27.12,26.48,14.8-.18,26.66-12.32,26.48-27.12h0v-10.73c.12-1.09,1.11-1.88,2.2-1.76,.92,.1,1.65,.83,1.76,1.76v10.7c.18,16.97-13.42,30.87-30.39,31.07h-.37Z"/>
        <path class="cls-3" d="M398.79,348.16c-16.8-.05-30.44-13.59-30.63-30.39v-11.39c.12-1.09,1.11-1.88,2.2-1.76,.92,.1,1.65,.83,1.76,1.76v11.36c.18,14.8,12.32,26.66,27.12,26.48,14.8-.18,26.66-12.32,26.48-27.12h0v-10.73c.12-1.09,1.11-1.88,2.2-1.76,.92,.1,1.65,.83,1.76,1.76v10.7c.18,16.97-13.42,30.87-30.39,31.07h-.49Z"/>
        <path class="cls-3" d="M341.16,348.16c-16.85,.01-30.57-13.54-30.75-30.39v-11.39c.12-1.09,1.11-1.88,2.2-1.76,.92,.1,1.65,.83,1.76,1.76v11.36c.18,14.86,12.36,26.76,27.22,26.58,14.86-.18,26.76-12.36,26.58-27.22h0v-10.73c.12-1.09,1.11-1.88,2.2-1.76,.92,.1,1.65,.83,1.76,1.76v10.7c.18,16.97-13.42,30.87-30.39,31.07h-.56Z"/>
        <path class="cls-3" d="M283.68,348.16c-16.85,.01-30.57-13.54-30.75-30.39v-11.39c.12-1.09,1.11-1.88,2.2-1.76,.92,.1,1.65,.83,1.76,1.76v11.36c.18,14.8,12.32,26.66,27.12,26.48,14.8-.18,26.66-12.32,26.48-27.12h0v-10.73c.12-1.09,1.11-1.88,2.2-1.76,.92,.1,1.65,.83,1.76,1.76v10.7c.18,16.97-13.42,30.87-30.39,31.07h-.37Z"/>
        <path class="cls-3" d="M226.12,348.16c-16.85,.01-30.57-13.54-30.75-30.39v-11.39c.12-1.09,1.11-1.88,2.2-1.76,.92,.1,1.65,.83,1.76,1.76v11.36c.18,14.8,12.32,26.66,27.12,26.48,14.8-.18,26.66-12.32,26.48-27.12h0v-10.73c.12-1.09,1.11-1.88,2.2-1.76,.92,.1,1.65,.83,1.76,1.76v10.7c.18,16.97-13.42,30.87-30.39,31.07h-.37Z"/>
        <path class="cls-3" d="M427.75,302.43h-.22c-1.07-.1-1.85-1.05-1.75-2.11,0-.02,0-.03,0-.05l11.81-114.33c.13-1.08,1.1-1.87,2.18-1.77,1.09,.12,1.88,1.09,1.77,2.18l-11.83,114.33c-.1,1-.96,1.76-1.96,1.74Z"/>
        <path class="cls-3" d="M477.4,233.46c-1-.03-1.83-.78-1.96-1.77l-4.71-45.36c-.11-1.08,.68-2.05,1.77-2.16s2.05,.68,2.16,1.77h0l4.74,45.33c.1,1.08-.69,2.04-1.77,2.16l-.22,.02Z"/>
        <path class="cls-3" d="M479.93,258.2c-1-.02-1.84-.77-1.96-1.77l-1.35-12.93c-.05-1.1,.79-2.03,1.89-2.08,1.02-.05,1.91,.68,2.06,1.69l1.33,12.91c.13,1.06-.63,2.03-1.7,2.15-.02,0-.03,0-.05,0h-.22v.02Z"/>
        <path class="cls-3" d="M484.5,302.43c-1.01,0-1.85-.77-1.96-1.77l-2.68-26.14c-.11-1.08,.68-2.05,1.77-2.16s2.05,.68,2.16,1.77h0l2.7,26.14c.11,1.08-.67,2.04-1.74,2.16h-.25Z"/>
        <path class="cls-3" d="M541.27,304.03c-.89,0-1.67-.61-1.89-1.47l-30.75-115.9c-.28-1.05,.35-2.13,1.4-2.41,1.05-.28,2.13,.35,2.41,1.4h0l30.75,115.9c.3,1.04-.29,2.13-1.33,2.44-.02,0-.04,.01-.07,.02-.17,.03-.34,.04-.52,.02Z"/>
        <path class="cls-3" d="M599.61,304.03c-.76,0-1.45-.46-1.77-1.15l-52.84-115.9c-.45-1-.01-2.17,.98-2.63,.99-.45,2.15-.01,2.6,.98,0,0,0,0,0,0l52.74,115.9c.43,1.02-.04,2.2-1.07,2.64-.24,.1-.49,.15-.75,.16h.1Z"/>
        <path class="cls-3" d="M313.43,304.03c-.27-.02-.54-.08-.79-.2-.99-.45-1.43-1.61-.98-2.6,0,0,0,0,0,0h0l52.82-115.9c.45-.99,1.62-1.42,2.61-.97s1.42,1.62,.97,2.61h0l-52.82,115.9c-.32,.71-1.04,1.16-1.82,1.15Z"/>
        <path class="cls-3" d="M306.38,226.34c-1.07,.01-1.95-.84-1.96-1.91,0,0,0-.02,0-.02,0-.39,.12-.77,.32-1.1l24.37-37.43c.54-.94,1.74-1.26,2.68-.72,0,0,.01,0,.02,.01,.94,.55,1.25,1.76,.71,2.7v.15l-24.37,37.45c-.39,.59-1.06,.93-1.77,.88Z"/>
        <path class="cls-3" d="M289.86,251.72c-1.07,.01-1.95-.84-1.96-1.91,0,0,0-.02,0-.02,0-.39,.12-.77,.32-1.1l10.26-15.76c.57-.9,1.77-1.17,2.68-.6,.02,.01,.03,.02,.05,.03,.91,.6,1.17,1.81,.59,2.72l-10.26,15.76c-.36,.57-.99,.91-1.67,.88Z"/>
        <path class="cls-3" d="M255.87,304.03c-1.08-.01-1.96-.88-1.99-1.96,0-.39,.12-.76,.34-1.08l27.81-42.78c.69-.85,1.94-.99,2.8-.3,.73,.59,.95,1.62,.52,2.45l-27.83,42.76c-.36,.56-.98,.9-1.64,.91Z"/>
        <path class="cls-3" d="M656.38,304.03c-.67,0-1.29-.35-1.64-.91l-74.88-115.11c-.67-.85-.52-2.09,.33-2.76s2.09-.52,2.76,.33c.04,.05,.07,.09,.1,.14v.15l74.91,115.11c.58,.92,.32,2.13-.59,2.72-.29,.19-.63,.3-.98,.32Z"/>
        <path class="cls-3" d="M713.93,304.03c-.58-.01-1.12-.27-1.5-.71l-98.54-115.9c-.75-.79-.71-2.04,.09-2.79,.79-.75,2.04-.71,2.79,.09l.12,.15,98.54,115.9c.71,.82,.61,2.06-.22,2.77,0,0,0,0,0,0-.35,.32-.8,.49-1.28,.49Z"/>
        <path class="cls-3" d="M199.89,304.03c-1.08-.03-1.95-.9-1.96-1.99,0-.47,.17-.92,.47-1.28l98.59-115.9c.77-.77,2.02-.77,2.8,0,.74,.69,.83,1.83,.2,2.63l-98.59,115.82c-.37,.44-.92,.7-1.5,.71Z"/>
        <path class="cls-3" d="M383.38,257.27c-.17,.02-.34,.02-.52,0-1.06-.28-1.69-1.38-1.4-2.44,0,0,0-.01,0-.02h0l18.36-69.14c.28-1.05,1.35-1.68,2.41-1.4,1.05,.28,1.68,1.35,1.4,2.41l-18.29,69.14c-.23,.89-1.05,1.49-1.96,1.45Z"/>
        <path class="cls-3" d="M370.98,304.03c-.17,.02-.34,.02-.52,0-1.05-.27-1.69-1.34-1.42-2.39,0-.02,.01-.04,.02-.07l8.47-31.91c.24-1.06,1.29-1.73,2.36-1.5,1.06,.24,1.73,1.29,1.5,2.36v.15l-8.47,31.91c-.24,.87-1.04,1.47-1.94,1.45Z"/>
        <path class="cls-3" d="M615.39,188.1H298.43c-1.08,0-1.96-.88-1.96-1.97,0-1.08,.88-1.96,1.96-1.96h316.96c1.08,0,1.96,.88,1.97,1.96,0,1.08-.88,1.96-1.96,1.97h0Z"/>
        <path class="cls-3" d="M387.4,241.68c-.65-.01-1.18-.53-1.2-1.18-.01-.51,.32-.98,.81-1.13l22.33-7.78c.62-.21,1.3,.12,1.52,.74,.21,.61-.1,1.28-.71,1.5l-22.36,7.78c-.13,.05-.26,.07-.39,.07Z"/>
        <path class="cls-3" d="M391.18,247.13c-.68,.1-1.31-.37-1.41-1.04s.37-1.31,1.04-1.41h0l12.27-4.07c.6-.24,1.27,.05,1.52,.64,.24,.6-.04,1.29-.64,1.55h-.15l-12.27,4.1c-.11,.1-.24,.18-.37,.25Z"/>
        <path class="cls-3" d="M390.08,319.56c-.2,0-.39-.05-.56-.15l-17.79-9.33c-.57-.28-.8-.98-.52-1.55,0-.02,.02-.03,.03-.05,.3-.58,1.02-.8,1.59-.49h0s17.79,9.33,17.79,9.33c.56,.3,.78,1,.49,1.57-.18,.4-.59,.66-1.03,.66Z"/>
        <path class="cls-3" d="M379.6,319.73c-.2,0-.39-.05-.56-.15l-7.88-4.15c-.57-.31-.78-1.02-.49-1.6,.28-.57,.98-.8,1.55-.52,.02,0,.03,.02,.05,.03l7.85,4.15c.57,.31,.78,1.03,.47,1.6-.2,.39-.59,.64-1.03,.64h.05Z"/>
        <path class="cls-3" d="M593.96,288.98c-.65,0-1.18-.53-1.18-1.18,0-.5,.31-.95,.79-1.13l22.36-7.76c.61-.21,1.28,.1,1.5,.71,.22,.62-.1,1.29-.71,1.52l-22.33,7.76c-.13,.05-.27,.08-.42,.07Z"/>
        <path class="cls-3" d="M598.55,295.21c-.65-.03-1.17-.55-1.18-1.2,.02-.49,.33-.93,.79-1.1l12.27-4.1c.61-.24,1.3,.05,1.55,.66,.24,.61-.05,1.3-.66,1.55h0l-12.27,4.1-.49,.1Z"/>
        <circle class="cls-11" cx="475.44" cy="296.91" r="6.31"/>
        <circle class="cls-16" cx="532.21" cy="308.74" r="6.31"/>
        <circle class="cls-16" cx="505.8" cy="234.25" r="6.7"/>
        <circle class="cls-16" cx="504.23" cy="222.42" r="1.96"/>
        <circle class="cls-16" cx="297.25" cy="309.52" r="11.04"/>
        <circle class="cls-11" cx="703.31" cy="309.52" r="6.31"/>
        <circle class="cls-11" cx="694.23" cy="301.25" r="1.96"/>
        <circle class="cls-16" cx="522.74" cy="296.91" r="2.36"/>
        <circle class="cls-11" cx="467.56" cy="288.24" r="2.36"/>
        <circle class="cls-16" cx="287.8" cy="292.2" r="3.95"/>
        <path class="cls-3" d="M714.74,305.99H198.81c-1.09,.12-2.07-.66-2.2-1.76s.66-2.07,1.76-2.2c.15-.02,.29-.02,.44,0H714.74c1.09,.12,1.88,1.11,1.76,2.2-.1,.92-.83,1.65-1.76,1.76Z"/>
        <path class="cls-16" d="M514.47,222.42h0c-4.07-.02-7.38,3.27-7.39,7.33,0,.62,.07,1.24,.23,1.85l8.12,32.52c.81,3.29,3.77,5.6,7.17,5.6h4.47l-12.59-47.3Z"/>
      </g>
    </g>
  </g>
</svg>