<?xml version="1.0" encoding="UTF-8"?>
<svg id="Layer_2" data-name="Layer 2" xmlns="http://www.w3.org/2000/svg" viewBox="0 0 454.41 552.27">
  <defs>
    <style>
      .cls-1 {
        fill: #f9646b;
      }

      .cls-2 {
        fill: #f9c9ab;
      }

      .cls-3 {
        fill: #67ffca;
      }

      .cls-4 {
        fill: #eab192;
      }

      .cls-5, .cls-6 {
        fill: #fff;
      }

      .cls-7 {
        fill: #f0cae7;
      }

      .cls-8 {
        fill: #665c6d;
      }

      .cls-9 {
        fill: #a0725c;
      }

      .cls-10 {
        fill: #dc8c72;
      }

      .cls-11 {
        fill: #ac8067;
      }

      .cls-12, .cls-13 {
        fill: #c69a83;
      }

      .cls-14 {
        fill: #413044;
      }

      .cls-15 {
        fill: #443547;
      }

      .cls-16, .cls-17 {
        fill: #4b2e4c;
      }

      .cls-18 {
        fill: #584e60;
      }

      .cls-19 {
        fill: #4f3e52;
      }

      .cls-20 {
        opacity: .31;
      }

      .cls-20, .cls-6, .cls-13, .cls-21, .cls-22, .cls-23, .cls-17 {
        isolation: isolate;
      }

      .cls-20, .cls-21, .cls-23 {
        fill: #e19f7f;
      }

      .cls-6 {
        opacity: .15;
      }

      .cls-13 {
        opacity: .8;
      }

      .cls-21 {
        opacity: .69;
      }

      .cls-22 {
        fill: #d6836f;
        opacity: .42;
      }

      .cls-23 {
        opacity: .46;
      }

      .cls-24 {
        opacity: .21;
      }

      .cls-25 {
        opacity: .27;
      }

      .cls-26 {
        opacity: .51;
      }

      .cls-17 {
        opacity: .08;
      }
    </style>
  </defs>
  <g id="Layer_1-2" data-name="Layer 1">
    <g id="Layer_2-2" data-name="Layer 2">
      <g id="Layer_1-2" data-name="Layer 1-2">
        <rect class="cls-17" x="12.15" y="82.52" width="442.26" height="276.34" rx="11.82" ry="11.82"/>
        <path class="cls-18" d="M285.97,450.83h0c8.78,0,15.9,7.12,15.9,15.9v68.3c0,8.78-7.12,15.9-15.9,15.9h0c-8.78,0-15.9-7.12-15.9-15.9v-68.3c0-8.78,7.12-15.9,15.9-15.9Z"/>
        <path class="cls-18" d="M286.36,357.9h0c9.84,0,17.82,7.98,17.82,17.82v100.91c0,9.84-7.98,17.82-17.82,17.82h0c-9.84,0-17.82-7.98-17.82-17.82v-100.91c0-9.84,7.98-17.82,17.82-17.82Z"/>
        <circle class="cls-11" cx="263.92" cy="13.39" r="13.39" transform="translate(204.94 270.98) rotate(-80.01)"/>
        <path class="cls-13" d="M254.56,22.06c-.39,0-.77-.15-1.05-.43-2.32-2.27-3.06-5.95-3-8.63,.03-1.73,.44-3.44,1.2-5,.37-.74,1.27-1.04,2.01-.66,.74,.37,1.04,1.27,.66,2.01-.57,1.18-.87,2.46-.88,3.77-.07,2.11,.55,4.9,2.07,6.4,.59,.58,.6,1.53,.02,2.12-.28,.29-.67,.45-1.07,.45l.03-.03Z"/>
        <circle class="cls-12" cx="253.83" cy="11.26" r="1.29"/>
        <path class="cls-12" d="M255.99,9.28c.28,0,.5,.22,.5,.5s-.22,.5-.5,.5-.5-.22-.5-.5,.22-.5,.5-.5Z"/>
        <circle class="cls-12" cx="257.2" cy="11.84" r=".71"/>
        <path class="cls-12" d="M255.57,13.1c.56,0,1.01,.45,1.01,1.01s-.45,1.01-1.01,1.01-1.01-.45-1.01-1.01,.45-1.01,1.01-1.01Z"/>
        <circle class="cls-12" cx="259.01" cy="9.92" r=".47"/>
        <circle class="cls-12" cx="257.24" cy="9.33" r=".34"/>
        <circle class="cls-12" cx="259.23" cy="12.02" r=".53"/>
        <path class="cls-12" d="M255.96,8.02c.07,0,.13,.06,.13,.13s-.06,.13-.13,.13-.13-.06-.13-.13,.06-.13,.13-.13Z"/>
        <rect class="cls-16" y="70.18" width="442.26" height="276.34" rx="11.82" ry="11.82"/>
        <rect class="cls-3" x="23.2" y="90.79" width="149.86" height="22.79"/>
        <rect class="cls-5" x="23.2" y="140.52" width="149.86" height="9.69"/>
        <rect class="cls-5" x="23.2" y="163.45" width="149.86" height="9.69"/>
        <rect class="cls-5" x="23.2" y="186.41" width="68.23" height="9.63"/>
        <path class="cls-3" d="M31.84,319.65c-6.16,0-11.15-5-11.14-11.16,0-6.16,5-11.15,11.16-11.14,6.15,0,11.14,5,11.14,11.15,0,6.16-5,11.15-11.16,11.15Zm0-17.29c-3.4,0-6.15,2.76-6.14,6.16s2.76,6.15,6.16,6.14c3.4,0,6.15-2.76,6.14-6.16,0-3.39-2.75-6.14-6.14-6.14,0,0-.01,0-.02,0Z"/>
        <path class="cls-5" d="M44.5,296.64c-.42,0-.83-.13-1.17-.38-.89-.65-1.1-1.9-.45-2.79l7.63-10.47c.61-.92,1.85-1.17,2.77-.56s1.17,1.85,.56,2.77c-.03,.05-.06,.09-.1,.13l-7.63,10.53c-.39,.5-.99,.78-1.62,.77Zm73.62-16.06c-.54,0-1.05-.21-1.43-.59l-5.18-5.25c-.81-.75-.87-2.01-.12-2.83s2.01-.87,2.83-.12c.05,.04,.09,.09,.14,.14l3.57,3.61,2-2.64c.67-.88,1.93-1.05,2.8-.38,.88,.67,1.05,1.93,.38,2.8h0l-3.42,4.47c-.35,.46-.88,.74-1.46,.78h-.1Zm-57.77-5.79c-1.1,0-2-.89-2.01-1.99,0-.43,.13-.84,.39-1.19l7.64-10.52c.6-.93,1.84-1.19,2.77-.59s1.19,1.84,.59,2.77c-.04,.06-.08,.12-.12,.17l-7.6,10.56c-.39,.51-1,.81-1.65,.79Zm42.74-9.42c-.53,0-1.04-.21-1.42-.59l-9.13-9.25c-.81-.75-.87-2.01-.12-2.83s2.01-.87,2.83-.12c.05,.04,.09,.09,.14,.14l9.14,9.25c.77,.79,.76,2.06-.03,2.83-.37,.37-.88,.57-1.4,.57Zm26.91-.37c-.44,0-.86-.14-1.21-.41-.88-.67-1.05-1.92-.38-2.8l7.9-10.33c.67-.88,1.93-1.05,2.8-.38s1.05,1.93,.38,2.8l-7.9,10.33c-.38,.49-.97,.78-1.59,.78Zm-53.8-12.07c-1.1,0-1.99-.91-1.99-2.01,0-.42,.13-.82,.38-1.16l6.18-8.53c.35-.48,.88-.78,1.47-.82,.58-.04,1.16,.17,1.57,.59l1.73,1.76c.81,.75,.87,2.01,.12,2.83s-2.01,.87-2.83,.12c-.05-.04-.09-.09-.14-.14l-.08-.08-4.8,6.61c-.38,.52-.98,.83-1.62,.83Zm147.16-7.1c-.57,0-1.12-.25-1.5-.68l-8.6-9.75c-.69-.86-.56-2.12,.3-2.81,.81-.65,1.98-.58,2.7,.17l8.6,9.75c.73,.83,.65,2.09-.18,2.82-.36,.32-.83,.5-1.32,.5h0Zm-76.93-2.29c-1.1,0-2-.9-2-2,0-.44,.14-.86,.41-1.21l7.89-10.33c.67-.88,1.93-1.05,2.8-.38s1.05,1.93,.38,2.8l-7.91,10.33c-.38,.49-.95,.78-1.57,.78Zm86-4.58c-1.1,0-2-.89-2-2,0-.47,.17-.93,.47-1.29l8.37-9.95c.71-.85,1.98-.95,2.82-.24,.84,.71,.95,1.98,.24,2.82l-8.37,9.95c-.38,.47-.95,.75-1.55,.75l.02-.04Zm82-5.59c-.52,0-1.03-.2-1.4-.57l-9.26-9.13c-.75-.81-.7-2.08,.11-2.83,.76-.7,1.92-.71,2.69-.02l9.26,9.13c.78,.78,.79,2.04,.01,2.83-.37,.38-.88,.59-1.41,.59h0Zm9.65-.19c-1.1,0-2-.89-2.01-1.99,0-.5,.18-.98,.52-1.35l8.67-9.69c.73-.77,1.93-.83,2.74-.15,.83,.73,.9,2,.17,2.82,0,0,0,0,0,0l-8.67,9.69c-.38,.42-.92,.66-1.49,.66h.08Zm-118.53-7.6c-.57,0-1.12-.25-1.5-.68l-8.6-9.75c-.69-.86-.56-2.12,.3-2.81,.81-.65,1.98-.58,2.7,.17l8.6,9.75c.73,.83,.65,2.09-.18,2.82-.36,.32-.83,.5-1.32,.5h0Zm-42.68-3.49c-.44,0-.86-.14-1.21-.41-.87-.67-1.04-1.92-.37-2.8l7.89-10.33c.67-.88,1.93-1.05,2.8-.38s1.05,1.93,.38,2.8h0l-7.9,10.33c-.39,.51-1,.8-1.64,.78h.05Zm87-3.79c-1.1,0-2-.89-2-2,0-.47,.17-.93,.47-1.29l8.37-9.95c.71-.85,1.98-.95,2.82-.24,.85,.71,.95,1.98,.24,2.82l-8.37,10c-.41,.45-.99,.69-1.6,.66h.07Zm45.35-3.88c-.53,0-1.04-.21-1.41-.58l-9.26-9.12c-.79-.78-.8-2.04-.02-2.83,.78-.79,2.04-.8,2.83-.02h0l9.26,9.12c.79,.77,.8,2.04,.03,2.83-.38,.39-.89,.6-1.43,.6h0Zm46.78-1.42c-.49,0-.96-.18-1.33-.51-.82-.74-.89-2-.16-2.82l8.69-9.67c.73-.83,2-.9,2.83-.17,.83,.73,.9,2,.17,2.83l-8.66,9.7c-.4,.43-.96,.66-1.54,.64Zm-154.38-7.71c-.57,0-1.12-.25-1.5-.68l-4.82-5.46-.51,.67c-.67,.88-1.93,1.05-2.8,.38s-1.05-1.93-.38-2.8l2-2.61c.36-.47,.92-.76,1.52-.78,.6-.02,1.17,.22,1.57,.67l6.43,7.3c.73,.83,.65,2.09-.18,2.82-.36,.32-.83,.5-1.32,.5h-.01Zm79.54-7.69c-1.1,0-2-.89-2-2,0-.47,.17-.93,.47-1.29l5-5.89c.71-.84,1.97-.95,2.82-.24,.04,.03,.08,.07,.11,.1l3.78,3.72c.79,.78,.8,2.04,.02,2.83-.78,.79-2.04,.8-2.83,.02l-2.23-2.2-3.57,4.24c-.38,.47-.95,.75-1.55,.75l-.02-.04Zm92.84-4.69c-.49,0-.97-.18-1.34-.51-.82-.74-.89-2-.15-2.82l8.66-9.69c.73-.83,2-.9,2.83-.17,.83,.73,.9,2,.17,2.83h0l-8.66,9.69c-.38,.43-.93,.67-1.51,.67Zm18-20.13c-1.1,0-2-.9-2-2,0-.49,.18-.96,.51-1.33l8.66-9.7c.74-.83,2.01-.9,2.83-.16,.83,.74,.9,2.01,.17,2.83l-8.66,9.69c-.38,.43-.93,.67-1.51,.67Zm18-20.13c-1.1,0-2-.89-2.01-1.99,0-.5,.18-.98,.52-1.35l6.07-6.79c.74-.83,2.01-.9,2.83-.16,.83,.74,.9,2.01,.17,2.83l-6.09,6.81c-.38,.42-.92,.65-1.49,.65Z"/>
        <path class="cls-8" d="M244.3,450.83h0c8.78,0,15.9,7.12,15.9,15.9v68.3c0,8.78-7.12,15.9-15.9,15.9h0c-8.78,0-15.9-7.12-15.9-15.9v-68.3c0-8.78,7.12-15.9,15.9-15.9Z"/>
        <path class="cls-8" d="M244.3,357.9h0c9.84,0,17.82,7.98,17.82,17.82v100.91c0,9.84-7.98,17.82-17.82,17.82h0c-9.84,0-17.82-7.98-17.82-17.82v-100.91c0-9.84,7.98-17.82,17.82-17.82Z"/>
        <path class="cls-16" d="M286.83,535.62h14.6c9.2,0,16.65,7.45,16.65,16.65h-47.9c0-9.2,7.45-16.65,16.65-16.65h0Z"/>
        <path class="cls-16" d="M229.16,535.62h14.6c9.2,0,16.65,7.45,16.65,16.65h-47.9c0-9.2,7.45-16.65,16.65-16.65h0Z"/>
        <g class="cls-25">
          <path class="cls-5" d="M236.26,423.99h0c1.22,0,2.21,.99,2.21,2.21v10.61c0,1.22-.99,2.21-2.21,2.21h0c-1.22,0-2.21-.99-2.21-2.21v-10.61c0-1.22,.99-2.21,2.21-2.21Z"/>
          <path class="cls-5" d="M236.26,443.22h0c1.22,0,2.21,.99,2.21,2.21v3.61c0,1.22-.99,2.21-2.21,2.21h0c-1.22,0-2.21-.99-2.21-2.21v-3.61c0-1.22,.99-2.21,2.21-2.21Z"/>
        </g>
        <circle class="cls-8" cx="264.18" cy="381.83" r="38.39" transform="translate(-135.42 618.28) rotate(-85.93)"/>
        <polyline class="cls-2" points="345.08 303.41 335.73 378.19 318.2 377.61 310.61 294.64"/>
        <polyline class="cls-2" points="188.26 303.41 197.6 378.19 215.13 377.61 222.73 294.64"/>
        <path class="cls-23" d="M188.26,303.41l4.51,2.48c13.79,7.6,22.36,22.1,22.36,37.85v33.86l7.6-83"/>
        <path class="cls-23" d="M344.94,303.41l-4.51,2.48c-13.8,7.6-22.36,22.1-22.36,37.85v33.86l-7.6-83"/>
        <path class="cls-19" d="M352,310.48c-3.91-21.3-6.71-42.79-8.4-64.38-.8-10.18-1.67-21.19-8.4-28.86-5.58-6.37-14.12-9.13-22.22-11.62l-18.2-5.62-26.15-20.78c0-1.65,0-3.29-.05-4.94l-3.09,2.45-3.08-2.45c0,1.65,0,3.29-.05,4.94l-26.15,20.78-18.21,5.62c-8.1,2.49-16.64,5.25-22.23,11.62-6.72,7.67-7.6,18.68-8.39,28.86-1.69,21.59-4.5,43.08-8.4,64.38-.22,1.2-.33,2.69,.67,3.38,.49,.27,1.03,.41,1.59,.4,11.87,.88,23.76,1.33,35.67,1.34l.28,.49c8.72,18.47,2.13,41.2,10,60.06,1,2.35,2.26,4.71,4.4,6.08,1.9,1.02,4,1.6,6.15,1.7,15.69,1.64,31.5,1.89,47.24,.76,4.71-.29,10.24-.05,14.45-2.46,2.14-1.37,3.43-3.73,4.41-6.08,7.85-18.86,1.26-41.59,10-60.06l.29-.49c11.9,0,23.79-.45,35.66-1.34,.56,0,1.1-.13,1.59-.4,.97-.69,.86-2.18,.62-3.38Z"/>
        <path class="cls-15" d="M317.41,207c-16.37,20.64-46.38,24.11-67.03,7.73-1.32-1.05-2.58-2.16-3.78-3.34,17.5,6.69,37.3,2.53,50.62-10.64l15.1,4.63c1.68,.56,3.4,1.09,5.09,1.62Z"/>
        <g class="cls-24">
          <path class="cls-7" d="M300.09,196.63c.08,0,.15-.07,.15-.15s-.07-.15-.15-.15-.15,.07-.15,.15,.07,.15,.15,.15Z"/>
        </g>
        <path class="cls-11" d="M264.08,24h0c-28.23,.02-51.1,22.92-51.08,51.15h0c0,9.1,7.37,16.47,16.47,16.47h69.29c9.09,0,16.46-7.37,16.46-16.46h0c.02-28.24-22.84-51.14-51.07-51.16-.02,0-.05,0-.07,0Z"/>
        <path class="cls-11" d="M216.61,125.64h95.48v41.36c0,26.37-21.37,47.74-47.74,47.74h0c-26.37,0-47.74-21.37-47.74-47.74h0v-41.36Z"/>
        <path class="cls-9" d="M264.31,204.72h0c-26.36,0-47.73-21.36-47.74-47.72v10c0,26.37,21.37,47.74,47.74,47.74h0c26.35-.03,47.69-21.39,47.69-47.74v-10c0,26.34-21.35,47.7-47.69,47.72Z"/>
        <circle class="cls-2" cx="218.39" cy="112.42" r="14.54"/>
        <path class="cls-20" d="M231.2,119.27c-3.76,7.1-12.56,9.8-19.66,6.04-7.1-3.76-9.8-12.56-6.04-19.66,1.08-2.03,2.62-3.77,4.49-5.09-1.15,2.11-1.74,4.47-1.73,6.87-.02,8.03,6.48,14.55,14.51,14.57h0c3.02,0,5.97-.96,8.42-2.73Z"/>
        <circle class="cls-10" cx="218.39" cy="112.42" r="7.91"/>
        <circle class="cls-2" cx="311.51" cy="112.42" r="14.54"/>
        <path class="cls-20" d="M324.32,119.27c-3.79,7.08-12.59,9.75-19.68,5.97-7.08-3.79-9.75-12.59-5.97-19.68,1.06-1.99,2.57-3.7,4.41-5-1.15,2.11-1.74,4.47-1.73,6.87-.02,8.03,6.48,14.55,14.51,14.57,.01,0,.03,0,.04,0,3.02,0,5.97-.96,8.42-2.73Z"/>
        <circle class="cls-10" cx="311.51" cy="112.42" r="7.91"/>
        <path class="cls-2" d="M297.59,44.91c-18.55-18.55-48.62-18.55-67.18,0-8.91,8.91-13.92,20.99-13.91,33.59v56.55c.54,26.23,22.24,47.06,48.47,46.53,25.48-.52,46-21.05,46.53-46.53v-56.55c.02-12.6-4.98-24.69-13.91-33.59Zm-53.11,95.54l.16,.07"/>
        <path class="cls-21" d="M307.94,78.14v5.29c0-12.07-4.85-18-12.72-25.86-8.11-8.2-19.16-12.81-30.69-12.79-24,0-43.4,18.55-43.4,42.65v-5.29c0-24.1,19.43-42.65,43.4-42.65,11.53-.02,22.58,4.59,30.69,12.79,7.87,7.9,12.72,13.8,12.72,25.86Z"/>
        <path class="cls-11" d="M297.89,44.16c-8.87-8.97-20.97-14.02-33.59-14-26.23,0-48.5,21.39-48.5,47.77l1,56.86c-.54,26.23,20.29,47.94,46.53,48.47,26.23,.54,47.94-20.29,48.47-46.53,.01-.65,.01-1.3,0-1.95l1-56.86c0-13.2-6.3-25.13-14.91-33.77Zm9.82,88.18c.36,23.97-18.77,43.7-42.75,44.06-23.97,.36-43.7-18.77-44.06-42.75,0-.44,0-.88,0-1.32v-48c0-24.1,19.43-42.64,43.4-42.64,11.54-.02,22.6,4.61,30.7,12.83,7.87,7.89,12.72,13.79,12.72,25.85v51.96Z"/>
        <path class="cls-9" d="M307.71,74.5v5.86c0-12.07-4.85-18-12.72-25.86-8.1-8.21-19.16-12.81-30.69-12.79-24,0-43.4,18.54-43.4,42.65v-5.86c0-24.1,19.43-42.64,43.4-42.64,11.53-.03,22.6,4.58,30.7,12.79,7.86,7.89,12.71,13.79,12.71,25.85Z"/>
        <path class="cls-22" d="M264.71,115.36h0c1.72,0,3.12,1.4,3.12,3.12v9.99c0,1.72-1.4,3.12-3.12,3.12h0c-1.72,0-3.12-1.4-3.12-3.12v-9.99c0-1.72,1.4-3.12,3.12-3.12Z"/>
        <circle class="cls-5" cx="282.59" cy="105.37" r="13.15"/>
        <circle class="cls-11" cx="263.16" cy="169.58" r="19.06"/>
        <circle class="cls-11" cx="246.73" cy="162.92" r="19.06" transform="translate(46.39 380.37) rotate(-80.78)"/>
        <circle class="cls-11" cx="282.23" cy="162.47" r="19.06"/>
        <circle class="cls-11" cx="264.51" cy="154.1" r="19.06"/>
        <path class="cls-11" d="M311.81,140.28c.34-3.31,.36-6.64,.06-9.95h-.06v-32.33h0c-3.25,0-5.88,2.64-5.88,5.89v22.41c.05,5.18-1.51,10.25-4.46,14.51-3.64,5.36-9.76,8.51-16.24,8.35l14.88,18.55c6.57-7.66,10.64-17.14,11.68-27.18h0l.02-.25Z"/>
        <ellipse class="cls-19" cx="282.59" cy="105.77" rx="4.54" ry="7.38"/>
        <circle class="cls-5" cx="246.36" cy="105.37" r="13.15"/>
        <ellipse class="cls-19" cx="246.65" cy="105.77" rx="4.54" ry="7.38"/>
        <path class="cls-11" d="M235.83,75.02h21.64c2.07,0,3.75,1.68,3.75,3.75h0c0,2.07-1.68,3.75-3.75,3.75h-21.64c-2.07,0-3.75-1.68-3.75-3.75h0c0-2.07,1.68-3.75,3.75-3.75Z"/>
        <path class="cls-11" d="M271.86,73.66h21.64c2.07,0,3.75,1.68,3.75,3.75h0c0,2.07-1.68,3.75-3.75,3.75h-21.64c-2.07,0-3.75-1.68-3.75-3.75h0c0-2.07,1.68-3.75,3.75-3.75Z"/>
        <circle class="cls-5" cx="250.43" cy="103.57" r="2.2"/>
        <circle class="cls-5" cx="286.65" cy="103.57" r="2.2"/>
        <path class="cls-11" d="M243.45,149.15c-6.95,.16-13.45-3.44-17-9.41-2.53-4.07-3.85-8.77-3.81-13.56v-22.3c0-3.23-2.61-5.85-5.84-5.88h0l-.3,23v9.3c.06,3.53-.06,6.46,.2,9.36l.1,.9v.51c.31,2.9,.23,5.42,.92,7.91,1.92,7.1,5.68,13.57,10.89,18.76l14.84-18.59Z"/>
        <circle class="cls-6" cx="278.9" cy="109.1" r="3.33"/>
        <circle class="cls-6" cx="242.35" cy="109.1" r="3.33"/>
        <path class="cls-19" d="M251.44,18.72h25.74c3.5,0,6.34,2.84,6.34,6.34h0c0,3.5-2.84,6.34-6.34,6.34h-25.74c-3.5,0-6.34-2.84-6.34-6.34h0c0-3.5,2.84-6.34,6.34-6.34Z"/>
        <path class="cls-14" d="M283.51,25.06c0,3.5-2.82,6.33-6.32,6.34,0,0-.01,0-.02,0h-25.73c-3.5,0-6.34-2.84-6.34-6.34,0-.54,.07-1.09,.22-1.61,.73,2.78,3.24,4.73,6.12,4.72h25.73c2.88,0,5.4-1.94,6.13-4.72,.14,.52,.21,1.07,.21,1.61Z"/>
        <rect class="cls-19" x="261.05" y="100.97" width="6.98" height="3"/>
        <g class="cls-26">
          <path class="cls-5" d="M296.05,84.74l-26.68,31.9c-.09-.52-.14-1.06-.14-1.59v-15.65l12.26-14.66h14.56Z"/>
          <path class="cls-5" d="M309.36,86.24l-31.25,37.37h-.31c-2.09,0-4.1-.76-5.66-2.15l30.71-36.72h1.67c1.73,0,3.42,.52,4.84,1.5Z"/>
        </g>
        <path class="cls-19" d="M304.36,125.6h-26.73c-5.56,0-10.06-4.51-10.07-10.07v-21.73c.01-5.56,4.51-10.05,10.07-10.06h26.73c5.55,0,10.05,4.51,10.06,10.06v21.73c0,5.56-4.5,10.06-10.06,10.07Zm-26.73-38.86c-3.9,0-7.06,3.16-7.07,7.06v21.73c0,3.9,3.17,7.06,7.07,7.07h26.73c3.9,0,7.06-3.17,7.06-7.07v-21.73c0-3.9-3.16-7.05-7.06-7.06h-26.73Z"/>
        <g class="cls-26">
          <path class="cls-5" d="M243.85,85.7l-26.68,31.9c-.1-.53-.16-1.06-.17-1.6v-15.65l12.28-14.65h14.57Z"/>
          <path class="cls-5" d="M257.16,87.2l-31.25,37.36h-.32c-2.08,0-4.1-.76-5.65-2.15l30.71-36.71h1.67c1.73,0,3.42,.52,4.84,1.5Z"/>
        </g>
        <path class="cls-19" d="M252.39,126.55h-26.74c-5.55,0-10.05-4.51-10.06-10.06v-21.74c.01-5.55,4.51-10.05,10.06-10.06h26.74c5.55,.01,10.05,4.51,10.06,10.06v21.74c0,5.55-4.51,10.05-10.06,10.06Zm-26.74-38.86c-3.9,0-7.05,3.16-7.06,7.06v21.74c0,3.9,3.16,7.05,7.06,7.06h26.74c3.9,0,7.05-3.16,7.06-7.06v-21.74c0-3.9-3.16-7.05-7.06-7.06h-26.74Z"/>
        <circle class="cls-9" cx="285.68" cy="198.37" r="3.46"/>
        <circle class="cls-9" cx="288.76" cy="192.48" r=".58"/>
        <circle class="cls-9" cx="284.73" cy="190.07" r="1.42"/>
        <circle class="cls-9" cx="280.85" cy="193.77" r=".71"/>
        <circle class="cls-9" cx="278.18" cy="189.75" r="1.1"/>
        <circle class="cls-9" cx="279.45" cy="200.56" r="1.27"/>
        <circle class="cls-9" cx="279.09" cy="196.94" r=".45"/>
        <circle class="cls-9" cx="273.95" cy="193.54" r=".48"/>
        <circle class="cls-9" cx="276.83" cy="193.31" r=".83"/>
        <circle class="cls-9" cx="274.45" cy="198.79" r=".5"/>
        <circle class="cls-9" cx="236.04" cy="45.87" r="2.08"/>
        <circle class="cls-9" cx="236.67" cy="42.16" r=".42"/>
        <circle class="cls-9" cx="234.29" cy="39.99" r=".33"/>
        <circle class="cls-9" cx="232.56" cy="43.59" r=".84"/>
        <circle class="cls-9" cx="234.09" cy="41.76" r=".39"/>
        <circle class="cls-9" cx="238.33" cy="40.31" r="1.24"/>
        <circle class="cls-9" cx="238.4" cy="42.85" r=".27"/>
        <circle class="cls-9" cx="232.81" cy="46.34" r=".47"/>
        <circle class="cls-9" cx="231.72" cy="45.79" r=".44"/>
        <circle class="cls-9" cx="231.89" cy="40.78" r=".46"/>
        <circle class="cls-9" cx="234.93" cy="43.04" r=".3"/>
        <circle class="cls-9" cx="241.15" cy="42.16" r="1.26"/>
        <circle class="cls-2" cx="327.43" cy="385.15" r="14.8"/>
        <circle class="cls-2" cx="205.91" cy="385.15" r="14.8"/>
        <rect class="cls-1" x="276.51" y="239.29" width="38.76" height="22.08" rx="6.28" ry="6.28"/>
        <path class="cls-4" d="M194.11,363.58h6.42c1.09,0,1.98,.89,1.98,1.98h0c0,1.09-.89,1.98-1.98,1.98h-6.42c-1.09,0-1.98-.89-1.98-1.98h0c0-1.09,.89-1.98,1.98-1.98Z"/>
        <path class="cls-4" d="M191.78,356.48h6.42c1.09,0,1.98,.89,1.98,1.98h0c0,1.09-.89,1.98-1.98,1.98h-6.42c-1.09,0-1.98-.89-1.98-1.98h0c0-1.09,.89-1.98,1.98-1.98Z"/>
        <path class="cls-4" d="M190.84,349.37h6.42c1.09,0,1.98,.89,1.98,1.98h0c0,1.09-.89,1.98-1.98,1.98h-6.42c-1.09,0-1.98-.89-1.98-1.98h0c0-1.09,.89-1.98,1.98-1.98Z"/>
        <rect class="cls-5" x="221.71" y="96.9" width="2.04" height="9.9" rx="1.02" ry="1.02"/>
        <path class="cls-5" d="M222.72,109.03h0c.56,0,1.02,.46,1.02,1.02v1.86c0,.56-.46,1.02-1.02,1.02h0c-.56,0-1.02-.46-1.02-1.02v-1.86c0-.56,.46-1.02,1.02-1.02Z"/>
        <rect class="cls-3" x="397.07" y="130.68" width="8.76" height="25.41" transform="translate(47.35 380.75) rotate(-53.49)"/>
        <rect class="cls-3" x="388.75" y="139.04" width="25.41" height="8.76" transform="translate(37.28 365.02) rotate(-50.98)"/>
        <ellipse class="cls-5" cx="256.49" cy="5.45" rx="1.8" ry="1.17" transform="translate(44.89 150.51) rotate(-35.65)"/>
        <ellipse class="cls-5" cx="259.97" cy="3.21" rx=".81" ry=".53" transform="translate(46.85 152.12) rotate(-35.65)"/>
        <path class="cls-19" d="M264.35,403.76c-3.18,0-5.76-2.58-5.76-5.76h0v-18.9h11.51v18.9c0,3.18-2.57,5.75-5.75,5.76Zm-4.76-23.66v17.9c-.12,2.63,1.91,4.85,4.54,4.97,2.63,.12,4.85-1.91,4.97-4.54,0-.15,0-.29,0-.44v-17.9h-9.51Z"/>
        <path class="cls-19" d="M306.18,394.06h-13.11c-4.36,0-7.88-3.53-7.89-7.89v-1.4h1v1.4c0,3.8,3.09,6.88,6.89,6.89h13.11v1Z"/>
        <path class="cls-19" d="M237.89,394.06h-13.12v-1h13.12c3.8,0,6.88-3.09,6.89-6.89v-1.4h1v1.4c0,4.36-3.53,7.88-7.89,7.89Z"/>
        <path class="cls-19" d="M266.76,387.93h5.57c.7,0,1.27,.57,1.27,1.27h0c0,.7-.57,1.26-1.27,1.26h-5.57c-.7,0-1.27-.57-1.27-1.27h0c0-.7,.57-1.26,1.27-1.26Z"/>
        <path class="cls-19" d="M266.76,392.03h5.57c.7,0,1.27,.57,1.27,1.27h0c0,.7-.57,1.26-1.27,1.26h-5.57c-.7,0-1.27-.57-1.27-1.27h0c0-.7,.57-1.26,1.27-1.26Z"/>
        <path class="cls-19" d="M266.76,396.13h5.57c.7,0,1.27,.57,1.27,1.27h0c0,.7-.57,1.26-1.27,1.26h-5.57c-.7,0-1.27-.57-1.27-1.27h0c0-.7,.57-1.26,1.27-1.26Z"/>
        <path class="cls-5" d="M208,112.54c.02-1.87,.63-3.68,1.74-5.18,.78-1.23-1.16-2.36-1.94-1.14-1.32,1.84-2.04,4.05-2.05,6.32,.06,1.44,2.31,1.45,2.25,0Z"/>
        <path class="cls-5" d="M212.71,104.55c.23-.29,.54-.51,.89-.64,.59-.18,.94-.79,.79-1.39-.18-.59-.79-.94-1.39-.78-.73,.23-1.38,.65-1.89,1.22-.42,.45-.42,1.14,0,1.59,.44,.44,1.16,.44,1.6,0,0,0,0,0,0,0Z"/>
        <path class="cls-5" d="M193.27,321l.81,7.92c.19,1.9,3.2,1.92,3,0l-.81-7.92c-.2-1.9-3.2-1.92-3,0Z"/>
        <path class="cls-5" d="M194.55,334.27c.12,.37,.17,.77,.14,1.16,0,.83,.67,1.5,1.5,1.5,.82-.02,1.48-.68,1.5-1.5,.02-.68-.06-1.35-.25-2-.24-.79-1.08-1.23-1.88-.99-.76,.23-1.2,1.02-1.01,1.79v.04Z"/>
        <path class="cls-5" d="M234.32,455.69v2.53c0,.83,.67,1.5,1.5,1.5s1.5-.67,1.5-1.5v-2.53c0-.83-.67-1.5-1.5-1.5s-1.5,.67-1.5,1.5Z"/>
        <path class="cls-5" d="M239.85,59c1.84-2.18,4.13-3.93,6.72-5.13,1.75-.81,.23-3.4-1.51-2.59-2.82,1.31-5.32,3.22-7.33,5.6-1.25,1.46,.87,3.6,2.12,2.12Z"/>
        <path class="cls-5" d="M251,52.09l1.9-.72c.81-.21,1.3-1.03,1.1-1.84-.22-.8-1.05-1.27-1.85-1.05l-1.9,.72c-.78,.22-1.26,1.01-1.09,1.8,.21,.81,1.03,1.3,1.84,1.09,0,0,0,0,0,0Z"/>
        <path class="cls-5" d="M220.2,147.5v9.64c0,.83,.67,1.5,1.5,1.5s1.5-.67,1.5-1.5v-9.64c0-.83-.67-1.5-1.5-1.5s-1.5,.67-1.5,1.5Z"/>
        <circle class="cls-5" cx="221.84" cy="164.38" r="1.91"/>
      </g>
    </g>
  </g>
</svg>