<?xml version="1.0" encoding="UTF-8"?>
<svg id="Layer_2" data-name="Layer 2" xmlns="http://www.w3.org/2000/svg" viewBox="0 0 595.34 394.97">
  <defs>
    <style>
      .cls-1 {
        fill: #f9ab75;
      }

      .cls-2 {
        fill: #f9a870;
      }

      .cls-3 {
        fill: #efab89;
      }

      .cls-4 {
        fill: #f759d9;
      }

      .cls-5 {
        fill: #e58a4c;
      }

      .cls-6 {
        fill: #ef9170;
      }

      .cls-7 {
        fill: #fff;
      }

      .cls-8 {
        fill: #ffdacc;
      }

      .cls-9, .cls-10 {
        fill: #ffede1;
      }

      .cls-11 {
        fill: #ffccb3;
      }

      .cls-12 {
        fill: #ffcdab;
      }

      .cls-13 {
        fill: #fc90ed;
      }

      .cls-14 {
        fill: #a0a6a7;
      }

      .cls-15, .cls-16 {
        fill: #b3e2ff;
      }

      .cls-17 {
        fill: #bf0daf;
      }

      .cls-18 {
        fill: #c0c4c4;
      }

      .cls-19 {
        fill: #dce0e2;
      }

      .cls-20 {
        fill: #d81ebe;
      }

      .cls-21 {
        fill: #e28444;
      }

      .cls-22 {
        fill: #1bdd1b;
      }

      .cls-23 {
        fill: #0dcc0d;
      }

      .cls-24 {
        fill: #381609;
      }

      .cls-25 {
        fill: #86fc86;
      }

      .cls-26 {
        fill: #4ef94e;
      }

      .cls-16 {
        opacity: .49;
      }

      .cls-16, .cls-10 {
        isolation: isolate;
      }

      .cls-10, .cls-27 {
        opacity: .45;
      }

      .cls-28 {
        opacity: .7;
      }
    </style>
  </defs>
  <g id="Layer_1-2" data-name="Layer 1">
    <g id="Layer_2-2" data-name="Layer 2">
      <g id="Layer_1-2" data-name="Layer 1-2">
        <circle class="cls-11" cx="148.25" cy="128.61" r="8.44"/>
        <path class="cls-24" d="M147.51,139.12c-3.6,0-7.05-1.43-9.59-3.98-4.72-5.87-3.79-14.46,2.08-19.19,4.99-4.02,12.11-4.02,17.11,0h0c5.32,5.33,5.32,13.97-.02,19.3-2.54,2.54-5.98,3.97-9.58,3.99v-.12Zm0-22.49c-4.89,0-8.85,3.97-8.85,8.85,0,4.89,3.97,8.85,8.85,8.85s8.85-3.97,8.85-8.85c0-2.35-.93-4.6-2.59-6.26-1.64-1.71-3.89-2.68-6.26-2.71v.12Z"/>
        <ellipse class="cls-26" cx="306.56" cy="155.33" rx="6.47" ry="7.36"/>
        <path class="cls-24" d="M304.88,165.09c-6.29,0-11.39-5.1-11.39-11.39s5.1-11.39,11.39-11.39c6.29,0,11.39,5.1,11.39,11.39s-5.1,11.39-11.39,11.39h0Zm0-17.96c-3.64,0-6.59,2.95-6.59,6.59,0,3.64,2.95,6.59,6.59,6.59s6.59-2.95,6.59-6.59c0,0,0-.02,0-.02,0-3.63-2.94-6.57-6.57-6.57,0,0-.02,0-.02,0Z"/>
        <rect class="cls-18" x="571.57" y="263.56" width="21.37" height="42.78"/>
        <rect class="cls-18" x="2.4" y="264.76" width="21.37" height="41.58"/>
        <rect class="cls-2" x="519.41" y="150.48" width="29.93" height="223.39"/>
        <polygon class="cls-16" points="336.36 310.66 320.3 310.66 320.3 227.85 329.75 224.18 320.3 215.31 320.3 72.3 336.36 72.3 336.36 310.66"/>
        <polygon class="cls-16" points="490.45 310.66 474.38 310.66 474.38 213.36 488.69 215.76 474.38 201.44 474.38 93.5 490.45 93.5 490.45 310.66"/>
        <polygon class="cls-16" points="184.37 310.66 168.3 310.66 168.3 191.47 180.12 192.79 168.3 180.41 168.3 92.57 184.37 92.57 184.37 310.66"/>
        <rect class="cls-2" x="42.4" y="150.48" width="29.93" height="223.39"/>
        <rect class="cls-21" x="42.4" y="150.48" width="29.93" height="14.2"/>
        <rect class="cls-21" x="519.41" y="150.48" width="29.93" height="14.2"/>
        <path class="cls-24" d="M72.35,377.49h-29.95c-1.32,0-2.4-1.07-2.4-2.4V151.71c0-1.32,1.07-2.4,2.4-2.4h29.95c1.32,0,2.4,1.07,2.4,2.4v223.39c0,1.32-1.07,2.4-2.4,2.4Zm-27.55-4.8h25.16V154.1h-25.16v218.59Z"/>
        <path class="cls-5" d="M54.39,220.27c-.66,0-1.2-.54-1.2-1.2v-55.76c0-.66,.54-1.2,1.2-1.2s1.2,.54,1.2,1.2v55.76c0,.66-.54,1.2-1.2,1.2Z"/>
        <path class="cls-5" d="M60.36,190.68c-.66,0-1.2-.54-1.2-1.2v-31.78c0-.66,.54-1.2,1.2-1.2,.66,.01,1.19,.54,1.2,1.2v31.78c0,.66-.54,1.2-1.2,1.2Z"/>
        <path class="cls-5" d="M62.14,266.22c-.66,0-1.2-.54-1.2-1.2v-31.85c0-.66,.54-1.2,1.2-1.2s1.2,.54,1.2,1.2v31.8c.03,.66-.49,1.22-1.15,1.25-.02,0-.03,0-.05,0Z"/>
        <path class="cls-5" d="M538.58,269.5c-.66,0-1.2-.54-1.2-1.2v-31.8c0-.66,.54-1.2,1.2-1.2s1.2,.54,1.2,1.2v31.8c0,.66-.54,1.2-1.2,1.2Z"/>
        <path class="cls-5" d="M57.36,373.73c-.66,0-1.2-.54-1.2-1.2v-55.76c.01-.66,.54-1.19,1.2-1.2,.66,0,1.2,.54,1.2,1.2v55.76c0,.66-.54,1.2-1.2,1.2Z"/>
        <path class="cls-5" d="M63.34,344.16c-.66,0-1.2-.54-1.2-1.2v-31.78c0-.66,.54-1.2,1.2-1.2s1.2,.54,1.2,1.2v31.78c0,.66-.54,1.2-1.2,1.2Z"/>
        <path class="cls-24" d="M549.37,377.49h-29.95c-1.32,0-2.4-1.07-2.4-2.4V151.71c0-1.32,1.07-2.4,2.4-2.4h29.95c1.32,0,2.4,1.07,2.4,2.4v223.39c0,1.32-1.07,2.4-2.4,2.4Zm-27.55-4.8h25.16V154.1h-25.16v218.59Z"/>
        <path class="cls-5" d="M531.41,220.27c-.66,0-1.2-.54-1.2-1.2v-55.76c0-.66,.54-1.2,1.2-1.2s1.2,.54,1.2,1.2v55.76c0,.66-.54,1.2-1.2,1.2Z"/>
        <path class="cls-5" d="M537.38,190.68c-.66,0-1.2-.54-1.2-1.2v-31.78c0-.66,.54-1.2,1.2-1.2s1.2,.54,1.2,1.2v31.78c0,.66-.54,1.2-1.2,1.2Z"/>
        <path class="cls-5" d="M534.38,373.73c-.66,0-1.2-.54-1.2-1.2v-55.76c.01-.66,.54-1.19,1.2-1.2,.66,0,1.2,.54,1.2,1.2v55.76c0,.66-.54,1.2-1.2,1.2Z"/>
        <path class="cls-5" d="M540.35,344.16c-.66-.01-1.19-.54-1.2-1.2v-31.78c0-.66,.54-1.2,1.2-1.2s1.2,.54,1.2,1.2v31.78c0,.66-.54,1.2-1.2,1.2Z"/>
        <path class="cls-12" d="M559.66,354.3v38.37H35.71v-38.37H103.82c1.83,2.83,3.95,5.46,6.33,7.84,18.81,18.82,49.31,18.84,68.14,.03,2.4-2.39,4.53-5.03,6.38-7.88h72.66c1.84,2.83,3.97,5.45,6.36,7.84,18.84,18.77,49.33,18.71,68.1-.13,2.34-2.35,4.43-4.93,6.24-7.71h72.69c1.83,2.83,3.95,5.46,6.33,7.84,18.84,18.77,49.33,18.71,68.1-.13,2.34-2.35,4.43-4.93,6.24-7.71h68.28Z"/>
        <path class="cls-7" d="M558.07,353.1v8.39h-68.13c-14.51,22.29-44.34,28.59-66.63,14.08-2.78-1.81-5.36-3.9-7.71-6.24-2.38-2.38-4.51-5.01-6.33-7.84h-72.78c-14.51,22.29-44.34,28.59-66.63,14.08-2.78-1.81-5.36-3.9-7.71-6.24-2.38-2.39-4.51-5.02-6.36-7.84h-72.76c-14.53,22.29-44.38,28.58-66.67,14.05-2.76-1.8-5.33-3.88-7.67-6.21-2.38-2.38-4.51-5.01-6.33-7.84H34.13v-8.39H102.23c1.83,2.83,3.95,5.46,6.33,7.84,18.86,18.77,49.37,18.69,68.13-.17,2.33-2.34,4.41-4.91,6.21-7.67h72.66c1.84,2.83,3.97,5.45,6.36,7.84,18.84,18.77,49.33,18.71,68.1-.13,2.34-2.35,4.43-4.93,6.24-7.71h72.69c1.83,2.83,3.95,5.46,6.33,7.84,18.84,18.77,49.33,18.71,68.1-.13,2.34-2.35,4.43-4.93,6.24-7.71h68.44Z"/>
        <path class="cls-6" d="M102.57,185.16c30.14,1.87,41.92-10.53,56.52-6.88,8.22,1.8,15.56,6.41,20.77,13.02l-34.73,12.57-36.21-6.83-6.36-11.87Z"/>
        <path class="cls-24" d="M145.14,211.56h-.53l-36.16-7.99c-.75-.16-1.37-.67-1.68-1.37l-6.24-14.2c-.36-.78-.27-1.7,.24-2.4,.5-.65,1.29-1,2.11-.94,10.2,.6,20.43-.8,30.1-4.1l2.18-.72c11.03-3.69,21.58-7.19,33.43-.31,5.62,3.06,10.34,7.56,13.67,13.02,.32,.59,.38,1.28,.17,1.92-.21,.64-.68,1.16-1.3,1.44l-35.04,15.44c-.3,.12-.63,.19-.96,.19Zm-34.46-12.49l34.2,7.48,31.7-13.98c-2.8-3.69-6.34-6.76-10.38-9.02-10.1-5.8-18.66-2.93-29.52,.7l-2.18,.74c-9.02,3.1-18.5,4.63-28.03,4.51l4.22,9.57Z"/>
        <path class="cls-11" d="M184.06,192.79v98.64c0,36.14-18.44,65.47-41.2,65.57h-1.37c-1.04-.03-2.07-.13-3.09-.31-9.59-1.58-18.37-8.49-24.89-18.85-7.48-11.99-11.99-28.25-11.99-46.36v-92.76c0-7.65-1.37-10.24,7.77-11.2,11.09-1.13,22.27,.95,32.21,6,11.22,5.71,20.17,6.91,32.66,3.07,3.37-1.06,6.68-2.33,9.9-3.79Z"/>
        <path class="cls-3" d="M145.02,356.89h-3.53c-.63-.01-1.25-.06-1.87-.14-.53,0-1.06,0-1.58-.12h.36c20.29-2.64,30.24-19.98,30.24-40.98l.31-117.73c3.43-1.06,11.99-3.69,15.11-5.13v-8.66l.31,131.51c-.01,22.05-17.33,40.2-39.35,41.25Z"/>
        <path class="cls-8" d="M157.41,355.41c-5.13,2.4-9.18,1.56-15.18,1.61h-.36c-22.83,0-41.34-18.51-41.34-41.34h0v-127.1c1.73-.22,3.21-.46,4.53-.72h0c2.54-.24,5.18-.58,7.91-.65,3.54-.2,7.1,0,10.6,.58l1.77,8.61c8.51,41.01,24.94,84.56,13.91,124.97-7.75,28.47,7.77,29.31,9.59,33.57,3.43,8.71,4.05-1.58,8.56,.48Z"/>
        <path class="cls-7" d="M150.94,355.17c-2.76,.24-5.56,0-9.04,0h-.41c-22.83,0-41.34-18.51-41.34-41.34h0v-127.1c1.73-.22,3.21-.46,4.53-.72v.34c2.54-.24,5.2-.43,7.94-.5s5.71,0,8.61,0c-2.13,0-4.24,.24-6.26,.43v-.34c-1.32,.26-2.81,.5-4.53,.72v127.1c0,22.49,17.97,40.85,40.46,41.32l.05,.1Z"/>
        <path class="cls-24" d="M101.39,237.01c-1.99,0-3.6-1.61-3.6-3.6V92.57c0-1.99,1.61-3.6,3.6-3.6h82.66c1.99,0,3.6,1.61,3.6,3.6v105.95c0,1.99-1.61,3.6-3.6,3.6s-3.6-1.61-3.6-3.6V96.17H104.99V233.41c0,1.99-1.61,3.6-3.6,3.6Z"/>
        <path class="cls-24" d="M142.71,360.39c-24.8-.03-44.9-20.12-44.94-44.92v-62.35c0-1.99,1.61-3.6,3.6-3.6s3.6,1.61,3.6,3.6v62.35c.53,20.84,17.85,37.31,38.69,36.78,20.1-.51,36.28-16.68,36.78-36.78v-29.74c0-1.99,1.61-3.6,3.6-3.6s3.6,1.61,3.6,3.6v29.74c-.03,24.8-20.12,44.89-44.92,44.92Z"/>
        <path class="cls-24" d="M184.03,264.4c-1.99,0-3.6-1.61-3.6-3.6h0v-37.29c0-1.99,1.61-3.6,3.6-3.6s3.6,1.61,3.6,3.6v37.29c0,1.99-1.61,3.6-3.6,3.6Z"/>
        <path class="cls-24" d="M110.43,168.85c-.39,0-.76-.18-.98-.5-.38-.54-.26-1.29,.28-1.67,0,0,0,0,0,0l12.33-8.75c.55-.37,1.29-.25,1.68,.29,.38,.54,.26,1.29-.28,1.67,0,0,0,0,0,0l-12.33,8.75c-.21,.14-.45,.21-.7,.22Z"/>
        <path class="cls-24" d="M116.77,170.15c-.66,.08-1.25-.39-1.33-1.05-.06-.5,.19-.98,.64-1.21l6-4.24c.54-.38,1.28-.26,1.68,.26,.38,.54,.26,1.29-.28,1.67,0,0,0,0,0,0l-5.95,4.34c-.22,.15-.48,.23-.74,.22Z"/>
        <path class="cls-24" d="M115.25,140.27c-.39,0-.75-.19-.98-.5-.37-.54-.24-1.27,.29-1.65l6-4.27c.54-.38,1.29-.26,1.68,.29s.26,1.29-.29,1.68l-6,4.24c-.21,.14-.45,.21-.7,.22Z"/>
        <ellipse class="cls-7" cx="124.25" cy="273.05" rx="3.33" ry="7.53"/>
        <circle class="cls-7" cx="125.57" cy="289" r="3.33"/>
        <circle class="cls-7" cx="130.2" cy="264.2" r="1.32"/>
        <ellipse class="cls-3" cx="161.19" cy="326.31" rx="4.39" ry="2.64" transform="translate(-197.58 387.56) rotate(-73.4)"/>
        <circle class="cls-3" cx="160.34" cy="333.17" r="1.03"/>
        <ellipse class="cls-3" cx="162.69" cy="216.29" rx="2.54" ry="5.88"/>
        <path class="cls-7" d="M120.91,251.95c-1.99,0-3.6-1.61-3.6-3.6v-39.69c0-1.99,1.61-3.6,3.6-3.6s3.6,1.61,3.6,3.6v39.81c-.06,1.94-1.66,3.48-3.6,3.48Z"/>
        <path class="cls-24" d="M156.89,201.18c-7.19-.16-14.23-2.07-20.5-5.56-9.53-4.82-20.24-6.8-30.86-5.73-1.32,.14-2.51-.82-2.65-2.15-.14-1.32,.82-2.51,2.15-2.65,11.56-1.18,23.21,.99,33.57,6.24,11.06,5.64,19.42,6.43,30.86,2.93,3.32-1.03,6.57-2.27,9.74-3.69,1.21-.54,2.63,.01,3.17,1.22s-.01,2.63-1.22,3.17c-3.34,1.51-6.76,2.81-10.26,3.89-4.52,1.48-9.23,2.27-13.98,2.35Z"/>
        <path class="cls-23" d="M259,222.33c30.14,1.87,41.94-10.53,56.52-6.91,8.26,1.8,15.63,6.41,20.86,13.05l-34.82,12.47-36.21-6.83-6.36-11.77Z"/>
        <path class="cls-24" d="M301.54,243.08h-.46l-36.21-6.83c-.71-.14-1.31-.59-1.65-1.22l-6.36-11.77c-.62-1.17-.18-2.62,.98-3.25,.39-.21,.83-.31,1.27-.28,10.65,.58,21.33-.62,31.58-3.55,11.27-3.09,21.92-6.02,33.98-.19,5.42,2.41,10.12,6.18,13.67,10.94,.73,1.11,.43,2.59-.68,3.32-.16,.1-.32,.19-.5,.25l-34.82,12.49c-.27,.07-.54,.1-.82,.1Zm-34.65-11.37l34.46,6.5,31.18-11.13c-2.85-2.83-6.17-5.13-9.81-6.81-10.43-5.04-19.78-2.4-30.62,.5-9.36,2.64-19.05,3.94-28.78,3.89l3.57,7.05Z"/>
        <path class="cls-17" d="M415.46,209.77c30.14,1.87,37.65-12.78,52.26-9.16,8.26,1.8,15.63,6.41,20.86,13.05l-34.85,12.47-36.21-6.83-2.06-9.52Z"/>
        <path class="cls-24" d="M453.73,233.65h-.5l-36.16-7.96c-.67-.15-1.25-.57-1.58-1.18-8.47-15.37-7.65-16.07-6.16-17.36,.74-.64,1.79-.8,2.69-.41,10.56,.49,21.11-1.09,31.06-4.65,22.59-7.65,39.09-3.31,47.75,12.57,.32,.59,.38,1.28,.17,1.92-.21,.64-.68,1.16-1.29,1.44l-34.96,15.47c-.31,.12-.65,.18-.98,.17Zm-34.58-12.45l34.34,7.53,31.78-14.08c-7.79-11.99-21.44-14.58-40.77-8.06-9.73,3.46-20.01,5.15-30.34,4.99,1.25,2.49,3.12,6.21,4.99,9.62Z"/>
        <path class="cls-26" d="M336.34,225.04v80.39c0,29.45-18.44,53.33-41.2,53.43h-1.37c-1.04-.03-2.07-.11-3.09-.26-10.01-1.61-18.96-7.13-24.89-15.35-8.02-10.94-12.23-24.21-11.99-37.77v-75.61c0-6.24-1.37-8.35,7.77-9.11,10.97-.98,22.02,.67,32.23,4.8,10.23,4.74,21.83,5.63,32.66,2.52,3.34-.84,6.64-1.85,9.88-3.02Z"/>
        <path class="cls-22" d="M297.37,358.76h-3.65c-.62,0-1.25,0-1.85-.12h-1.25c20.29-2.13,30.24-16.26,30.24-33.36l.31-95.93c3.43-.86,11.99-3,15.11-4.15v-6.95l.31,107.05c.05,17.91-17.41,32.61-39.23,33.45Z"/>
        <path class="cls-25" d="M309.72,357.8c-5.13,1.94-9.21,1.27-15.2,1.32h-.36c-10.6,.14-20.93-3.38-29.23-9.98-7.41-5.78-11.81-14.59-11.99-23.98v-104.78c1.73-.17,3.21-.36,4.53-.58h0c2.54-.22,5.18-.48,7.91-.53,3.54-.17,7.09-.01,10.6,.48l1.77,7.19c8.51,33.79,24.94,69.67,13.93,102.95-7.77,23.45,7.75,24.15,9.59,27.75,3.29,6.88,3.93-1.56,8.44,.14Z"/>
        <path class="cls-7" d="M303.22,357.61c-2.76,.22-5.56,0-9.04,0h-.36c-10.59,.18-20.91-3.31-29.23-9.86-7.41-5.78-11.81-14.59-11.99-23.98v-104.85c1.73-.19,3.21-.38,4.53-.6v.26c2.54-.19,5.2-.36,7.94-.41s5.71,0,8.61,0c-2.13,0-4.24,.22-6.26,.36v-.29c-1.32,.22-2.81,.41-4.53,.6v104.66c.21,9.41,4.66,18.23,12.11,23.98,8,6.46,17.95,10.03,28.23,10.12Z"/>
        <path class="cls-24" d="M253.68,236.48c-1.99,0-3.6-1.61-3.6-3.6V94.44c0-1.99,1.61-3.6,3.6-3.6h82.66c1.99,0,3.6,1.61,3.6,3.6v74.77c0,1.99-1.61,3.6-3.6,3.6s-3.6-1.61-3.6-3.6V98.04h-75.47V232.88c0,1.99-1.61,3.6-3.6,3.6Z"/>
        <path class="cls-24" d="M294.97,362.26c-24.8-.04-44.89-20.14-44.92-44.94v-64.75c0-1.99,1.61-3.6,3.6-3.6s3.6,1.61,3.6,3.6v64.75c-.53,20.84,15.94,38.16,36.78,38.69s38.16-15.94,38.69-36.78c.02-.63,.02-1.27,0-1.9v-29.74c0-1.99,1.61-3.6,3.6-3.6s3.6,1.61,3.6,3.6v29.74c-.04,24.8-20.14,44.9-44.94,44.94Z"/>
        <path class="cls-24" d="M336.34,266.22c-1.99,0-3.6-1.61-3.6-3.6v-77.94c0-1.99,1.61-3.6,3.6-3.6s3.6,1.61,3.6,3.6v78.06c-.06,1.94-1.66,3.48-3.6,3.48Z"/>
        <path class="cls-7" d="M334.33,97.01h-76.45c-10.36,0-18.75-8.4-18.75-18.75h0c0-10.36,8.4-18.75,18.75-18.75h76.45c10.36,0,18.75,8.4,18.75,18.75h0c0,10.36-8.4,18.75-18.75,18.75Z"/>
        <path class="cls-16" d="M314.16,60.48h18.37c14.27,0,25.88,8.39,25.88,18.75-.23,5.39-3.05,10.33-7.58,13.26-5.38,3.69-11.78,5.61-18.3,5.49h-18.37c6.52,.12,12.91-1.8,18.27-5.49,4.55-2.95,7.39-7.92,7.63-13.33,0-10.29-11.51-18.68-25.9-18.68Z"/>
        <ellipse class="cls-7" cx="326.33" cy="82.63" rx="3.98" ry="3.14" transform="translate(156.34 373.18) rotate(-73.88)"/>
        <path class="cls-24" d="M337.18,101.11h-81.54c-11.92,0-21.58-9.66-21.58-21.58v-1.56c0-11.92,9.66-21.58,21.58-21.58h8.73c1.99,0,3.6,1.61,3.6,3.6s-1.61,3.6-3.6,3.6h-8.73c-7.95,0-14.39,6.44-14.39,14.39v1.56c0,7.95,6.44,14.39,14.39,14.39h81.54c7.95,0,14.39-6.44,14.39-14.39v-1.56c0-7.95-6.44-14.39-14.39-14.39h-32.61c-1.99,0-3.6-1.61-3.6-3.6s1.61-3.6,3.6-3.6h32.61c11.92,0,21.58,9.66,21.58,21.58v1.56c0,11.92-9.66,21.58-21.58,21.58Z"/>
        <path class="cls-24" d="M290.3,63.6h-11.99c-1.99,0-3.6-1.61-3.6-3.6s1.61-3.6,3.6-3.6h11.99c1.99,0,3.6,1.61,3.6,3.6s-1.61,3.6-3.6,3.6Z"/>
        <ellipse class="cls-7" cx="272.6" cy="278.38" rx="3.33" ry="7.53"/>
        <circle class="cls-7" cx="282.48" cy="266.07" r="1.32"/>
        <ellipse class="cls-22" cx="311.62" cy="329.64" rx="8.22" ry="4.93" transform="translate(-94.05 532.62) rotate(-73.19)"/>
        <circle class="cls-22" cx="308.11" cy="341.59" r="1.92"/>
        <ellipse class="cls-22" cx="309.72" cy="250.15" rx="4.82" ry="9.11"/>
        <path class="cls-7" d="M272.6,262.98c-1.99,0-3.6-1.61-3.6-3.6v-20.62c0-1.99,1.61-3.6,3.6-3.6s3.6,1.61,3.6,3.6v20.62c0,1.99-1.61,3.6-3.6,3.6Z"/>
        <path class="cls-24" d="M309.17,232.31c-7.01-.09-13.93-1.61-20.34-4.46-9.87-4.04-20.55-5.68-31.18-4.8-1.32,.11-2.48-.87-2.59-2.18-.12-1.32,.85-2.49,2.17-2.61,.03,0,.06,0,.09,0,11.36-.96,22.79,.78,33.36,5.06,9.76,4.55,20.84,5.4,31.18,2.4,3.3-.83,6.56-1.83,9.76-3,1.24-.45,2.61,.18,3.07,1.41,.47,1.24-.16,2.62-1.4,3.09,0,0,0,0-.01,0-3.45,1.25-6.91,2.4-10.24,3.14-4.52,1.22-9.18,1.87-13.86,1.94Z"/>
        <path class="cls-24" d="M267.23,189.6c-.66,0-1.2-.54-1.2-1.2v-27c0-.66,.54-1.2,1.2-1.2s1.2,.54,1.2,1.2v27c0,.66-.54,1.2-1.2,1.2Z"/>
        <path class="cls-24" d="M273.2,174.39c-.66,0-1.2-.54-1.2-1.2v-38.87c0-.66,.54-1.2,1.2-1.2s1.2,.54,1.2,1.2v38.87c0,.66-.54,1.2-1.2,1.2Z"/>
        <circle class="cls-3" cx="466.1" cy="340.82" r="1.03"/>
        <path class="cls-4" d="M489.8,224.13v80.46c0,29.45-18.44,53.36-41.2,53.43h-1.37c-1.04-.02-2.07-.1-3.09-.24-10-1.64-18.95-7.16-24.89-15.37-8.03-10.94-12.24-24.21-11.99-37.77v-75.69c0-6.26-7.63-17.99,1.49-18.78,11.03-.94,26.12,7.89,44.15,5.54,11.99-1.58,48.8,1.1,37.03,8.42-3.09,1.85-3.33,1.15-.12,0Z"/>
        <path class="cls-20" d="M450.85,357.85h-5.49c-.62,0-1.08,0-1.61-.12h.36c20.29-2.16,30.26-16.26,30.26-33.38l.58-106.09c3.43-.86,13.19,2.88,16.4,1.7l-1.56-2.81,.31,107.05c0,18.11-17.46,32.78-39.26,33.65Z"/>
        <path class="cls-13" d="M463.18,356.82c-5.13,1.97-9.18,1.29-15.18,1.34h-.36c-10.64,.13-20.99-3.49-29.23-10.22-7.51-6.01-11.95-15.06-12.11-24.68v-107.22c1.73-.19,1.01-5.64,2.4-5.88l2.21,5.25c2.54-.19-.65-5.49,2.09-5.56,3.45,0,12.93,4.94,16.4,5.52l1.8,7.19c8.51,34.61,24.94,71.37,13.91,105.52-7.77,23.98,7.75,24.72,9.59,28.42,3.36,7.24,3.98-1.44,8.49,.31Z"/>
        <path class="cls-7" d="M456.7,356.7c-2.76,.19-5.56,0-9.04,0h-.36c-10.6,.14-20.93-3.38-29.23-9.98-7.45-5.76-11.9-14.57-12.11-23.98v-104.75c1.73-.19,.24-7.87,1.56-8.08v.29c2.54-.22,5.2-.36,7.94-.43s-2.16,.22,.74,.34c-2.13,0,3.62,0,1.61,0l.74,2.4c-1.32,.22-1.34,0-3.07,0l.77,109.93c.21,9.41,4.66,18.23,12.11,23.98,8.02,6.53,18.01,10.16,28.35,10.29Z"/>
        <path class="cls-24" d="M407.13,225.95c-1.99,0-3.6-1.61-3.6-3.6V93.55c0-1.99,1.61-3.6,3.6-3.6h82.66c1.99,0,3.6,1.61,3.6,3.6v86.72c0,1.99-1.61,3.6-3.6,3.6s-3.6-1.61-3.6-3.6V97.1h-75.47v125.26c0,1.99-1.61,3.6-3.6,3.6Z"/>
        <path class="cls-24" d="M448.45,361.33c-24.8-.04-44.9-20.14-44.94-44.94v-74.34c0-1.99,1.61-3.6,3.6-3.6s3.6,1.61,3.6,3.6v74.34c-.53,20.84,15.94,38.16,36.78,38.69s38.16-15.94,38.69-36.78c.02-.63,.02-1.27,0-1.9v-29.74c0-1.99,1.61-3.6,3.6-3.6s3.6,1.61,3.6,3.6v29.74c-.03,24.8-20.12,44.9-44.92,44.94Z"/>
        <path class="cls-24" d="M489.8,265.33c-1.99,0-3.6-1.61-3.6-3.6v-54.08c0-1.99,1.61-3.6,3.6-3.6s3.6,1.61,3.6,3.6v54.08c0,1.99-1.61,3.6-3.6,3.6Z"/>
        <ellipse class="cls-20" cx="466.97" cy="327.26" rx="4.39" ry="2.64" transform="translate(19.94 681.27) rotate(-73.4)"/>
        <ellipse class="cls-20" cx="468.45" cy="243.36" rx="2.54" ry="4.77"/>
        <path class="cls-7" d="M423.8,286.41c-1.99,0-3.6-1.61-3.6-3.6v-20.65c0-1.99,1.61-3.6,3.6-3.6s3.6,1.61,3.6,3.6v20.65c0,1.99-1.61,3.6-3.6,3.6Z"/>
        <path class="cls-24" d="M420.71,188.66c-.66,0-1.2-.54-1.2-1.2v-29.38c0-.66,.54-1.2,1.2-1.2s1.2,.54,1.2,1.2v29.38c0,.66-.54,1.2-1.2,1.2Z"/>
        <path class="cls-24" d="M426.65,168.66c-.66,0-1.2-.54-1.2-1.2v-55.76c.01-.66,.54-1.19,1.2-1.2,.66,0,1.2,.54,1.2,1.2v55.76c0,.66-.54,1.2-1.2,1.2Z"/>
        <path class="cls-24" d="M445.24,219.62c-25.59,0-37.67-10.34-38.2-10.79-.99-.87-1.09-2.39-.22-3.38,.87-.99,2.39-1.09,3.38-.22,0,0,11.99,9.98,36.67,9.59,17.36-.31,40.48,0,40.77,0,1.32,0,2.4,1.07,2.4,2.4s-1.07,2.4-2.4,2.4c-.22,0-23.26-.31-40.55,0h-1.85Z"/>
        <circle class="cls-7" cx="426.05" cy="296.79" r="3.33"/>
        <path class="cls-24" d="M224.54,363.89h-28.63c-.66,0-1.2-.54-1.2-1.2,.01-.66,.54-1.19,1.2-1.2h28.63c.66,0,1.2,.54,1.2,1.2s-.54,1.2-1.2,1.2Z"/>
        <path class="cls-24" d="M241.18,363.89h-7.05c-.66,0-1.2-.54-1.2-1.2s.54-1.2,1.2-1.2h7.05c.66,.01,1.19,.54,1.2,1.2,0,.66-.54,1.2-1.2,1.2Z"/>
        <path class="cls-24" d="M62.76,381.76h-28.63c-.66,0-1.2-.54-1.2-1.2s.54-1.2,1.2-1.2h28.63c.66,0,1.2,.54,1.2,1.2s-.54,1.2-1.2,1.2Z"/>
        <path class="cls-24" d="M79.38,381.76h-7.03c-.66,0-1.2-.54-1.2-1.2s.54-1.2,1.2-1.2h7.03c.66,0,1.2,.54,1.2,1.2s-.54,1.2-1.2,1.2Z"/>
        <rect class="cls-1" x="31.66" y="384.64" width="526.42" height="7.94"/>
        <path class="cls-24" d="M558.07,394.97H34.13c-1.32,0-2.4-1.07-2.4-2.4v-38.37c0-1.32,1.07-2.4,2.4-2.4H102.23c.82,0,1.57,.42,2.01,1.1,1.73,2.69,3.75,5.18,6.02,7.43,17.86,17.87,46.84,17.88,64.71,.02,2.27-2.27,4.29-4.76,6.04-7.45,.44-.69,1.2-1.1,2.01-1.1h72.66c.82,0,1.57,.42,2.01,1.1,13.77,21.19,42.11,27.21,63.3,13.44,5.37-3.49,9.95-8.07,13.44-13.44,.44-.69,1.2-1.1,2.01-1.1h72.69c.82,0,1.57,.42,2.01,1.1,1.73,2.69,3.75,5.18,6.02,7.43,17.85,17.87,46.81,17.88,64.68,.03,2.27-2.27,4.3-4.77,6.05-7.47,.44-.69,1.2-1.1,2.01-1.1h68.13c1.32,0,2.4,1.07,2.4,2.4v38.37c0,1.32-1.06,2.38-2.37,2.4Zm-521.55-4.8H555.67v-33.57h-64.46c-15.79,23.03-47.25,28.9-70.28,13.11-2.55-1.75-4.94-3.73-7.13-5.92-2.18-2.22-4.17-4.63-5.92-7.19h-70.12c-15.79,23.03-47.25,28.9-70.28,13.11-2.55-1.75-4.94-3.73-7.13-5.92-2.2-2.21-4.19-4.62-5.95-7.19h-70.1c-15.8,23.04-47.28,28.9-70.32,13.1-2.55-1.75-4.93-3.73-7.12-5.91-2.19-2.21-4.17-4.62-5.92-7.19H36.52v33.57Z"/>
        <g class="cls-27">
          <path class="cls-9" d="M197.22,375.79c-.81-.03-1.59-.29-2.25-.74-1.29-.43-2.65-.58-4-.43-.6,.18-1.22-.16-1.4-.76-.02-.06-.03-.12-.04-.18-.35-1.66,.38-3.37,1.82-4.27,1.49-.85,3.37-.5,4.46,.82,.29,.36,.48,.77,.79,1.1,.57,.61,1.43,.85,2.23,.62,.4-.19,.83-.28,1.27-.29,.28,.07,.54,.2,.77,.38,.5,.29,.92,.7,1.25,1.18,.35,.5,.35,1.16,0,1.65-.19,.19-.4,.35-.65,.46-2.68,1.22-5.82,.76-8.03-1.18"/>
          <ellipse class="cls-9" cx="208.48" cy="370.96" rx="2.42" ry="4.39" transform="translate(-213.26 314.29) rotate(-53.01)"/>
          <circle class="cls-9" cx="210.03" cy="380.68" r="1.53"/>
          <ellipse class="cls-9" cx="217.01" cy="377.42" rx="3.24" ry="2.33"/>
          <circle class="cls-9" cx="217.94" cy="369.39" r="1.99"/>
          <circle class="cls-9" cx="194.56" cy="380.49" r="1.37"/>
        </g>
        <g class="cls-27">
          <path class="cls-9" d="M88.2,376.65c-.53,0-1.01-.26-1.51-.48-.86-.29-1.76-.39-2.66-.29-.26,.05-.53-.01-.74-.17-.11-.13-.18-.29-.22-.46-.22-1.11,.26-2.25,1.22-2.85,1-.54,2.24-.31,2.97,.55,.19,.24,.31,.5,.53,.74,.39,.39,.95,.55,1.49,.41,.26-.12,.55-.19,.84-.19,.18,.04,.36,.12,.5,.24,.32,.21,.61,.48,.84,.79,.24,.33,.24,.77,0,1.1-.12,.14-.26,.24-.43,.31-1.78,.81-3.87,.51-5.35-.77"/>
          <ellipse class="cls-9" cx="95.7" cy="373.44" rx="1.61" ry="2.93" transform="translate(-260.16 225.19) rotate(-53.01)"/>
          <circle class="cls-9" cx="96.74" cy="379.91" r="1.03"/>
          <ellipse class="cls-9" cx="101.39" cy="377.76" rx="2.16" ry="1.53"/>
          <circle class="cls-9" cx="102.02" cy="372.41" r="1.32"/>
          <circle class="cls-9" cx="86.43" cy="379.79" r=".91"/>
        </g>
        <g class="cls-27">
          <path class="cls-9" d="M530.95,374.37c-.53,0-1.01-.26-1.49-.48-.86-.29-1.78-.39-2.69-.29-.25,.03-.51-.03-.72-.17-.13-.12-.21-.28-.22-.46-.24-1.11,.24-2.25,1.2-2.85,1-.54,2.24-.31,2.97,.55,.16,.25,.34,.49,.53,.72,.38,.41,.95,.58,1.49,.43,.26-.12,.55-.19,.84-.19,.18,.04,.36,.12,.5,.24,.34,.21,.63,.47,.86,.79,.23,.33,.23,.77,0,1.1-.12,.14-.27,.24-.43,.31-1.78,.82-3.88,.51-5.35-.79"/>
          <ellipse class="cls-9" cx="538.04" cy="369.87" rx="1.61" ry="2.93" transform="translate(-80.68 578.38) rotate(-53.13)"/>
          <circle class="cls-9" cx="539.49" cy="377.64" r="1.03"/>
          <ellipse class="cls-9" cx="544.14" cy="375.48" rx="2.16" ry="1.53"/>
          <circle class="cls-9" cx="544.76" cy="370.13" r="1.32"/>
          <circle class="cls-9" cx="529.18" cy="377.52" r=".91"/>
        </g>
        <g class="cls-27">
          <path class="cls-9" d="M377.08,373.46c-.8-.03-1.58-.28-2.25-.72-1.29-.44-2.65-.6-4-.46-.38,.07-.78-.02-1.1-.24-.18-.19-.28-.44-.31-.7-.37-1.66,.35-3.37,1.8-4.27,1.49-.85,3.38-.51,4.48,.82,.23,.38,.49,.75,.77,1.1,.58,.61,1.45,.85,2.25,.62,.39-.19,.82-.29,1.25-.29,.28,.07,.54,.2,.77,.38,.49,.31,.93,.71,1.27,1.18,.34,.5,.34,1.15,0,1.65-.19,.19-.4,.35-.65,.46-2.67,1.23-5.83,.77-8.03-1.18"/>
          <ellipse class="cls-9" cx="388.35" cy="368.64" rx="2.42" ry="4.39" transform="translate(-139.76 457.02) rotate(-53.01)"/>
          <circle class="cls-9" cx="389.89" cy="378.36" r="1.53"/>
          <ellipse class="cls-9" cx="396.87" cy="375.09" rx="3.24" ry="2.33"/>
          <circle class="cls-9" cx="397.8" cy="367.06" r="1.99"/>
          <circle class="cls-9" cx="374.42" cy="378.16" r="1.37"/>
        </g>
        <ellipse class="cls-10" cx="243.05" cy="371.42" rx="15.92" ry="2.04"/>
        <ellipse class="cls-10" cx="67.68" cy="367.4" rx="15.92" ry="2.04"/>
        <ellipse class="cls-10" cx="350.87" cy="378.16" rx="15.92" ry="2.04"/>
        <ellipse class="cls-10" cx="508.02" cy="369.05" rx="15.92" ry="2.04"/>
        <rect class="cls-12" x="16.24" y="129.74" width="559.73" height="21.22"/>
        <rect class="cls-7" x="16.24" y="129.74" width="559.73" height="9.35"/>
        <path class="cls-1" d="M546.78,151.92h-52.76c-1.99,0-3.6-1.61-3.6-3.6s1.61-3.6,3.6-3.6h52.76c1.99,0,3.6,1.61,3.6,3.6s-1.61,3.6-3.6,3.6Z"/>
        <path class="cls-24" d="M574.12,154.1H14.39c-1.32,0-2.4-1.07-2.4-2.4v-21.2c0-1.32,1.07-2.4,2.4-2.4H574.12c1.32,0,2.4,1.07,2.4,2.4v21.2c0,1.32-1.07,2.4-2.4,2.4ZM16.79,149.31H571.72v-16.4H16.79v16.4Z"/>
        <path class="cls-24" d="M255.98,77.48c-.39-.01-.76-.21-.98-.53-.36-.54-.23-1.27,.29-1.65l6-4.27c.54-.38,1.29-.26,1.68,.29,.38,.54,.26,1.29-.29,1.68l-6.07,4.24c-.18,.14-.4,.23-.62,.24Z"/>
        <path class="cls-24" d="M260.8,84.1c-.39,0-.76-.2-.98-.53-.37-.53-.25-1.26,.29-1.64,0,0,.02-.01,.03-.02l13.19-9.06c.55-.37,1.3-.23,1.67,.32,.37,.55,.23,1.3-.32,1.67l-13.26,9.11c-.18,.1-.39,.15-.6,.14Z"/>
        <path class="cls-7" d="M488.21,96.53h-76.45c-10.36,0-18.75-8.4-18.75-18.75h0c0-10.36,8.4-18.75,18.75-18.75h76.45c10.36,0,18.75,8.4,18.75,18.75h0c0,10.36-8.4,18.75-18.75,18.75Z"/>
        <path class="cls-16" d="M466.03,59.04h18.39c14.24,0,25.88,8.39,25.88,18.75-.23,5.42-3.06,10.39-7.6,13.36-5.38,3.65-11.77,5.54-18.27,5.4h-18.37c6.49,.14,12.86-1.74,18.23-5.4,4.53-2.93,7.35-7.87,7.58-13.26,0-10.46-11.58-18.85-25.83-18.85Z"/>
        <path class="cls-24" d="M488.98,100.15h-81.54c-11.92,0-21.58-9.66-21.58-21.58v-1.56c0-11.92,9.66-21.58,21.58-21.58h81.54c11.92,0,21.58,9.66,21.58,21.58v1.56c0,11.92-9.66,21.58-21.58,21.58Zm-81.54-37.51c-7.95,0-14.39,6.44-14.39,14.39v1.56c0,7.95,6.44,14.39,14.39,14.39h81.54c7.95,0,14.39-6.44,14.39-14.39v-1.58c0-7.95-6.44-14.39-14.39-14.39l-81.54,.02Z"/>
        <path class="cls-24" d="M407.8,76.76c-.39,0-.76-.18-.98-.5-.38-.54-.26-1.29,.28-1.67,0,0,0,0,0,0l6-4.24c.53-.38,1.26-.26,1.64,.27,0,0,0,.01,.01,.02,.38,.54,.26,1.29-.28,1.67,0,0,0,0,0,0l-5.97,4.24c-.21,.14-.45,.21-.7,.22Z"/>
        <path class="cls-24" d="M412.63,83.31c-.4,0-.77-.2-.98-.53-.38-.54-.25-1.29,.3-1.67,0,0,0,0,.01,0l13.17-9.14c.52-.41,1.28-.31,1.68,.21,.41,.52,.31,1.28-.21,1.68-.03,.03-.07,.05-.1,.07l-13.19,9.06c-.18,.17-.42,.28-.67,.31Z"/>
        <path class="cls-7" d="M181.04,98.44H104.58c-10.36,0-18.75-8.4-18.75-18.75h0c0-10.36,8.4-18.75,18.75-18.75h76.45c10.36,0,18.75,8.4,18.75,18.75h0c0,10.36-8.4,18.75-18.75,18.75Z"/>
        <path class="cls-16" d="M158.88,60.96h18.37c14.39,0,25.88,8.39,25.88,18.75-.25,5.38-3.07,10.31-7.58,13.26-5.38,3.69-11.78,5.61-18.3,5.49h-18.37c6.52,.12,12.91-1.8,18.27-5.49,4.48-2.96,7.27-7.89,7.51-13.26,0-10.36-11.51-18.75-25.78-18.75Z"/>
        <path class="cls-24" d="M181.83,102.04H100.29c-11.92,0-21.58-9.66-21.58-21.58v-1.53c0-11.92,9.66-21.58,21.58-21.58h81.54c11.92,0,21.58,9.66,21.58,21.58v1.56c-.01,11.91-9.67,21.56-21.58,21.56Zm-81.54-37.48c-7.95,0-14.39,6.44-14.39,14.39v1.56c0,7.95,6.44,14.39,14.39,14.39h81.54c7.95,0,14.39-6.44,14.39-14.39v-1.58c0-7.95-6.44-14.39-14.39-14.39l-81.54,.02Z"/>
        <path class="cls-24" d="M100.72,78.59c-.39,0-.76-.18-.98-.5-.37-.55-.25-1.29,.29-1.68l6-4.24c.54-.38,1.29-.26,1.67,.28,0,0,0,0,0,0,.36,.55,.23,1.28-.29,1.68l-6,4.24c-.21,.14-.45,.21-.7,.22Z"/>
        <path class="cls-24" d="M105.52,85.21c-.39,.01-.76-.18-.98-.5-.38-.54-.25-1.29,.3-1.67,0,0,0,0,.01,0l13.17-9.04c.54-.38,1.29-.25,1.67,.3,0,0,0,0,0,.01,.37,.53,.25,1.26-.29,1.64,0,0-.02,.01-.03,.02l-13.19,9.06c-.2,.13-.43,.2-.67,.19Z"/>
        <rect class="cls-19" x="22.83" y="271.76" width="547.83" height="16.38"/>
        <rect class="cls-14" x="22.37" y="280.73" width="547.83" height="7.41"/>
        <path class="cls-24" d="M38.23,280.32c-.3,0-.57-.14-.74-.38-.29-.4-.19-.95,.2-1.24,0,0,0,0,.01,0l3.6-2.57c.41-.29,.98-.2,1.27,.22,0,0,0,0,0,0,.29,.4,.19,.95-.2,1.24,0,0,0,0-.01,0l-3.62,2.57c-.15,.1-.32,.16-.5,.17Z"/>
        <path class="cls-24" d="M38.23,284.2c-.3,0-.57-.14-.74-.38-.29-.4-.19-.95,.2-1.24,0,0,0,0,.01,0l3.6-2.57c.41-.29,.98-.2,1.27,.22,0,0,0,0,0,0,.29,.4,.19,.95-.2,1.24,0,0,0,0-.01,0l-3.62,2.57c-.14,.11-.32,.17-.5,.17Z"/>
        <ellipse class="cls-14" cx="231.95" cy="277.7" rx="2.28" ry="4.29" transform="translate(-82.24 457.14) rotate(-79.86)"/>
        <path class="cls-7" d="M360.54,277.25h-44.29c-1.32,0-2.4-1.07-2.4-2.4s1.07-2.4,2.4-2.4h44.29c1.32,0,2.4,1.07,2.4,2.4s-1.07,2.4-2.4,2.4Z"/>
        <path class="cls-24" d="M23.77,308.74H2.4c-1.32,0-2.4-1.07-2.4-2.4v-51.49c0-1.32,1.07-2.4,2.4-2.4H23.77c1.32,0,2.4,1.07,2.4,2.4v51.49c0,1.32-1.07,2.4-2.4,2.4Zm-18.97-4.8H21.37v-46.69H4.8v46.69Z"/>
        <path class="cls-24" d="M592.94,308.74h-21.37c-1.32,0-2.4-1.07-2.4-2.4v-51.49c0-1.32,1.07-2.4,2.4-2.4h21.37c1.32,0,2.4,1.07,2.4,2.4v51.49c0,1.32-1.07,2.4-2.4,2.4Zm-18.97-4.8h16.57v-46.69h-16.57v46.69Z"/>
        <path class="cls-24" d="M571.57,290.66H23.77c-1.32,0-2.4-1.07-2.4-2.4v-16.38c0-1.32,1.07-2.4,2.4-2.4H203.31c1.32,0,2.4,1.07,2.4,2.4s-1.07,2.4-2.4,2.4H26.16v11.58H569.18v-11.58H223.03c-1.32,0-2.4-1.07-2.4-2.4s1.07-2.4,2.4-2.4h348.45c1.32,0,2.4,1.07,2.4,2.4v16.38c0,1.29-1.02,2.35-2.3,2.4Z"/>
        <ellipse class="cls-26" cx="301.54" cy="32.69" rx="8.13" ry="9.23"/>
        <path class="cls-24" d="M299.46,44.32c-7.54,0-13.65-6.11-13.65-13.65,0-7.54,6.11-13.65,13.65-13.65,7.54,0,13.65,6.11,13.65,13.65h0c0,7.54-6.11,13.65-13.65,13.65Zm0-22.49c-4.89,0-8.85,3.96-8.85,8.85,0,4.89,3.96,8.85,8.85,8.85,4.89,0,8.85-3.96,8.85-8.85h0c0-4.89-3.96-8.85-8.85-8.85Z"/>
        <ellipse class="cls-26" cx="293.94" cy="192.45" rx="8.13" ry="9.23"/>
        <path class="cls-24" d="M291.85,204.08c-7.54,0-13.65-6.11-13.65-13.65,0-7.54,6.11-13.65,13.65-13.65,7.54,0,13.65,6.11,13.65,13.65-.01,7.53-6.11,13.63-13.65,13.65Zm0-22.49c-4.89,0-8.85,3.96-8.85,8.85,0,4.89,3.96,8.85,8.85,8.85,4.89,0,8.85-3.96,8.85-8.85-.01-4.88-3.97-8.84-8.85-8.85Z"/>
        <circle class="cls-4" cx="452.75" cy="38.63" r="8.44"/>
        <path class="cls-24" d="M452,49.04c-7.54,.04-13.67-6.04-13.71-13.58-.04-7.54,6.04-13.67,13.58-13.71,3.65-.02,7.15,1.42,9.72,4h0c5.32,5.33,5.32,13.97-.02,19.3-2.54,2.54-5.98,3.97-9.58,3.99Zm0-22.49c-4.89,0-8.85,3.97-8.85,8.85,0,4.89,3.97,8.85,8.85,8.85,4.89,0,8.85-3.97,8.85-8.85,0-2.35-.93-4.6-2.59-6.26-1.66-1.66-3.91-2.59-6.26-2.59Z"/>
        <circle class="cls-11" cx="169.05" cy="23.24" r="13.19"/>
        <path class="cls-24" d="M168.3,38.13c-10.53,0-19.06-8.55-19.05-19.08C149.26,8.52,157.81,0,168.34,0c10.53,0,19.06,8.55,19.05,19.08,0,5.06-2.02,9.91-5.6,13.48-3.57,3.57-8.42,5.57-13.48,5.56Zm0-33.31c-7.88,0-14.27,6.38-14.28,14.26,0,7.88,6.38,14.27,14.26,14.28,7.88,0,14.27-6.38,14.28-14.26,0-3.79-1.5-7.43-4.19-10.11-2.67-2.67-6.29-4.18-10.07-4.17Z"/>
        <g class="cls-28">
          <ellipse class="cls-15" cx="483.15" cy="77.51" rx="3.86" ry="5.52"/>
          <circle class="cls-15" cx="475.48" cy="85.42" r="2.18"/>
          <circle class="cls-15" cx="473.35" cy="71.25" r="3.29"/>
        </g>
        <ellipse class="cls-13" cx="448.11" cy="241.04" rx="4.72" ry="9.28" transform="translate(-55.82 170.61) rotate(-20.32)"/>
      </g>
    </g>
  </g>
</svg>