<svg width="512" height="512" viewBox="0 0 512 512" fill="none" xmlns="http://www.w3.org/2000/svg">
<g clip-path="url(#clip0_102_3129)">
<path d="M151.86 383.914H258.047V459.396H151.86V383.914Z" fill="#F1F1F1"/>
<path d="M438.437 172.82H490.89V289.241H438.437V172.82Z" fill="#F1F1F1"/>
<path d="M140.347 128.042C140.347 125.922 142.065 124.204 144.185 124.204H457.627C459.747 124.204 461.465 125.922 461.465 128.042V394.148C461.465 396.268 459.747 397.986 457.627 397.986H144.185C142.065 397.986 140.347 396.268 140.347 394.148V128.042Z" fill="#F15846"/>
<path fill-rule="evenodd" clip-rule="evenodd" d="M139.067 128.042C139.067 125.216 141.359 122.925 144.185 122.925H457.627C460.454 122.925 462.745 125.216 462.745 128.042V394.148C462.745 396.975 460.454 399.266 457.627 399.266H144.185C141.359 399.266 139.067 396.975 139.067 394.148V128.042ZM144.185 125.483C142.772 125.483 141.626 126.629 141.626 128.042V394.148C141.626 395.562 142.772 396.707 144.185 396.707H457.627C459.04 396.707 460.186 395.562 460.186 394.148V128.042C460.186 126.629 459.04 125.483 457.627 125.483H144.185Z" fill="#3E3D3D"/>
<path d="M140.347 161.305H461.465V394.148C461.465 396.268 459.747 397.986 457.627 397.986H144.185C142.065 397.986 140.347 396.268 140.347 394.148V161.305Z" fill="white"/>
<path fill-rule="evenodd" clip-rule="evenodd" d="M139.067 160.026H462.745V394.148C462.745 396.975 460.454 399.266 457.627 399.266H144.185C141.359 399.266 139.067 396.975 139.067 394.148V160.026ZM141.626 162.585V394.148C141.626 395.562 142.772 396.707 144.185 396.707H457.627C459.04 396.707 460.186 395.562 460.186 394.148V162.585H141.626Z" fill="#3E3D3D"/>
<path fill-rule="evenodd" clip-rule="evenodd" d="M192.16 225.913H194.719V374.318H416.048V376.877H192.16V225.913Z" fill="#3E3D3D"/>
<path d="M345.044 424.213C375.749 427.284 396.645 448.521 403.255 458.756H397.498C389.395 458.756 371.527 455.941 364.874 444.683C358.221 433.425 348.882 426.346 345.044 424.213Z" fill="#3E3D3D"/>
<path d="M215.829 280.286H250.372V355.768H215.829V280.286Z" fill="#F1F1F1"/>
<path d="M270.841 263.654H305.383V355.768H270.841V263.654Z" fill="#F1F1F1"/>
<path d="M327.133 243.184H361.675V355.768H327.133V243.184Z" fill="#F15846"/>
<path d="M382.146 225.273H416.688V355.768H382.146V225.273Z" fill="#F15846"/>
<path d="M396.858 385.833C414.769 411.42 408.585 443.404 403.254 456.197C403.254 457.05 401.719 453.127 395.578 430.61C389.437 408.093 393.872 391.376 396.858 385.833Z" fill="#3E3D3D"/>
<path d="M433.959 364.723C406.325 397.987 401.548 440.845 402.615 458.116C428.202 444.683 466.582 403.744 481.935 364.723C494.216 333.507 507.095 318.88 511.999 315.468C497.5 318.027 461.593 331.46 433.959 364.723Z" fill="#F1F1F1"/>
<path d="M442.275 415.897C423.853 426.644 408.586 449.374 403.255 459.396C420.526 457.476 448.032 447.881 460.186 432.529C469.909 420.247 483.854 410.78 489.611 407.582C481.509 405.876 460.698 405.151 442.275 415.897Z" fill="#F1F1F1"/>
<path d="M385.343 404.383C399.672 421.783 403.681 447.455 403.894 458.116C382.145 454.918 368.711 434.448 359.756 413.979C352.592 397.603 341.845 386.259 337.367 382.634C347.389 382.634 371.014 386.984 385.343 404.383Z" fill="#F1F1F1"/>
<path fill-rule="evenodd" clip-rule="evenodd" d="M112.034 147.907C113.839 144.913 117.729 143.949 120.723 145.754L138.49 156.465C141.484 158.27 142.448 162.16 140.643 165.154C139.164 167.607 139.543 170.727 141.365 172.936C146.474 179.128 150.313 186.165 152.783 193.633C153.683 196.356 156.126 198.339 158.993 198.393C162.495 198.459 165.281 201.352 165.215 204.854L164.822 225.579C164.756 229.077 161.867 231.859 158.369 231.793C155.507 231.739 152.994 233.624 151.99 236.305C150.622 239.956 148.9 243.535 146.814 246.995C144.728 250.456 142.367 253.649 139.777 256.564C137.875 258.704 137.381 261.806 138.765 264.312C140.457 267.375 139.346 271.229 136.283 272.921L118.14 282.943C115.073 284.637 111.214 283.525 109.52 280.458C108.134 277.948 105.239 276.713 102.411 277.188C94.6536 278.491 86.6382 278.381 78.778 276.755C75.9731 276.175 73.0369 277.296 71.558 279.749C69.7527 282.744 65.8616 283.708 62.8669 281.903L45.1024 271.193C42.1077 269.388 41.1435 265.497 42.9489 262.502C44.4278 260.049 44.0489 256.929 42.2261 254.719C37.1185 248.528 33.2789 241.491 30.8097 234.023C29.9094 231.3 27.466 229.317 24.5985 229.263C21.096 229.196 18.3103 226.303 18.3765 222.801L18.7686 202.077C18.8348 198.579 21.7243 195.797 25.2226 195.863C28.0852 195.917 30.5977 194.032 31.6023 191.351C32.9706 187.699 34.6923 184.121 36.7784 180.66C38.8645 177.2 41.2252 174.006 43.8156 171.092C45.7175 168.951 46.2116 165.849 44.8272 163.343C43.1354 160.281 44.2466 156.426 47.3093 154.735L65.4527 144.712C68.5192 143.018 72.3781 144.131 74.072 147.197C75.4588 149.708 78.3532 150.943 81.1815 150.468C88.939 149.164 96.9547 149.275 104.815 150.901C107.62 151.481 110.555 150.36 112.034 147.907ZM122.911 232.585C112.552 249.769 90.2237 255.301 73.0401 244.942C55.8564 234.582 50.3241 212.255 60.6833 195.071C71.0426 177.887 93.3704 172.355 110.554 182.714C127.738 193.073 133.27 215.401 122.911 232.585Z" fill="#F1F1F1"/>
<path d="M268.8 282.439C268.17 284.567 264.417 286.725 262.618 287.537C262.273 294.715 263.503 307.544 271.185 301.439C280.787 293.807 285.135 299.412 292.827 290.339C298.981 283.081 292.377 276.829 288.307 274.609L300.221 264.101C301.249 263.194 301.344 261.625 300.434 260.6C299.593 259.653 298.173 259.493 297.143 260.23L283.926 269.677C281.855 271.601 278.007 273.889 277.151 273.398C274.518 273.272 278.456 259.972 272.932 265.102C270.086 267.746 269.588 279.779 268.8 282.439Z" fill="#EFCB96"/>
<path d="M109.642 210.56C110.154 218.237 114.973 223.994 117.319 225.913C119.451 225.913 124.867 225.273 129.472 222.714C134.078 220.156 138.215 215.251 139.707 213.119C138.641 209.708 142.394 200.709 165.934 192.01C195.359 181.135 185.764 158.746 179.367 158.107C172.971 157.467 172.331 151.71 161.456 149.791C152.757 148.255 148.023 151.71 146.744 153.629C145.038 151.283 139.451 147.232 130.752 149.791C122.052 152.349 120.73 158.533 121.157 161.305C118.811 160.665 112.969 160.538 108.363 165.143C102.606 170.9 105.804 177.937 108.363 185.613C110.922 193.289 109.003 200.965 109.642 210.56Z" fill="#3E3D3D"/>
<path d="M121.157 212.48C120.133 222.715 115.186 231.67 112.841 234.869L109.003 241.905L115.4 250.22L155.06 261.095C157.832 254.272 161.712 240.242 155.06 238.706C148.407 237.171 148.45 231.243 149.303 228.471C150.795 228.898 155.316 227.576 161.457 218.876C167.597 210.177 166.574 192.223 165.295 184.334C159.665 185.869 148.023 183.694 142.906 182.415C139.708 186.892 136.509 190.091 135.869 194.568C135.23 199.046 132.671 206.722 130.752 209.281C128.833 211.84 130.112 204.164 127.554 198.407C124.995 192.65 119.877 193.289 117.319 200.966C115.272 207.106 119.025 211.2 121.157 212.48Z" fill="#EFCB96"/>
<path d="M179.367 458.756L176.169 427.412L84.0549 419.096L80.2168 458.756H179.367Z" fill="#3E3D3D"/>
<path d="M91.092 459.396L85.3349 444.043L66.1445 447.882V459.396H91.092Z" fill="#EFCB96"/>
<path d="M36.0798 366.002C37.615 393.125 53.5643 434.448 61.6669 454.278L90.4525 448.521L87.8937 435.727C88.9599 435.088 93.9067 429.97 107.724 429.97C124.995 429.97 166.574 437.646 176.169 435.727C185.765 433.808 187.684 427.412 183.206 418.456C179.624 411.292 181.713 357.047 183.206 330.82C188.963 339.989 202.268 358.326 209.433 358.326C218.388 358.326 277.878 309.071 277.878 304.593C277.878 301.011 270.202 288.601 266.364 282.844C249.732 292.439 215.829 310.734 213.271 307.152C210.072 302.674 187.684 252.779 183.206 247.022C179.624 242.416 163.376 237.853 155.7 236.148C156.339 238.28 151.862 245.103 142.266 247.022C129.721 249.531 114.121 239.986 111.562 232.949L111.408 233.003C97.8996 237.72 67.9144 248.191 62.3066 252.779C55.2702 258.536 34.1608 332.099 36.0798 366.002Z" fill="#F15846"/>
<path fill-rule="evenodd" clip-rule="evenodd" d="M181.927 331.407C182.434 319.227 180.866 300.458 180.014 292.577L182.558 292.302C183.412 300.2 184.999 319.13 184.483 331.513L181.927 331.407ZM73.2086 362.536C74.7497 355.345 82.3908 324.525 86.012 310.04L88.4943 310.661C84.8658 325.175 77.2399 355.935 75.7105 363.072C75.5599 363.776 75.5302 365.093 75.6625 367.033C75.7919 368.931 76.0661 371.304 76.4577 374.042C77.2405 379.515 78.4828 386.382 79.9363 393.708C82.8426 408.356 86.5807 424.779 89.1368 435.429L86.6488 436.026C84.0875 425.354 80.3414 408.897 77.4265 394.206C75.9695 386.862 74.7171 379.944 73.9247 374.404C73.5287 371.635 73.2451 369.194 73.1097 367.207C72.9771 365.262 72.9754 363.624 73.2086 362.536Z" fill="#3E3D3D"/>
<path fill-rule="evenodd" clip-rule="evenodd" d="M261.885 189.451H194.079V184.334H261.885V189.451ZM231.18 205.443H194.079V200.326H231.18V205.443Z" fill="#F15846"/>
<path fill-rule="evenodd" clip-rule="evenodd" d="M400.427 188.867C401.104 189.071 401.486 189.786 401.281 190.462L397.942 201.481C397.737 202.158 397.022 202.54 396.346 202.335C395.67 202.13 395.288 201.416 395.493 200.739L397.936 192.676L345.365 220.796H283.876L220.132 245.656L219.202 243.272L283.394 218.237H344.723L396.729 190.42L388.666 187.976C387.99 187.771 387.608 187.057 387.813 186.381C388.018 185.705 388.732 185.322 389.408 185.527L400.427 188.867Z" fill="#F15846"/>
<path d="M369.351 143.394C369.351 147.634 365.915 151.071 361.675 151.071C357.436 151.071 353.999 147.634 353.999 143.394C353.999 139.155 357.436 135.718 361.675 135.718C365.915 135.718 369.351 139.155 369.351 143.394Z" fill="white"/>
<path d="M403.894 143.394C403.894 147.634 400.458 151.071 396.218 151.071C391.979 151.071 388.542 147.634 388.542 143.394C388.542 139.155 391.979 135.718 396.218 135.718C400.458 135.718 403.894 139.155 403.894 143.394Z" fill="white"/>
<path d="M438.437 143.394C438.437 147.634 435.001 151.071 430.761 151.071C426.522 151.071 423.085 147.634 423.085 143.394C423.085 139.155 426.522 135.718 430.761 135.718C435.001 135.718 438.437 139.155 438.437 143.394Z" fill="white"/>
<path fill-rule="evenodd" clip-rule="evenodd" d="M434.962 396.324C422.008 418.016 412.185 439.307 406.433 453.98C412.172 448.696 420.229 441.843 429.299 435.162C440.775 426.707 453.951 418.467 466.148 414.055L467.018 416.461C455.163 420.749 442.219 428.821 430.816 437.222C419.427 445.612 409.653 454.273 404.151 459.67L402.769 461.025L402.064 459.222C396.349 444.619 378.164 410.187 351.298 389.404L352.863 387.38C378.514 407.222 396.287 439.116 403.198 455.252C408.856 440.42 419.076 417.936 432.765 395.012C447.427 370.46 466.127 345.306 487.543 328.534L489.121 330.548C468.063 347.039 449.555 371.887 434.962 396.324Z" fill="white"/>
<path fill-rule="evenodd" clip-rule="evenodd" d="M0.896484 459.396C0.896484 458.689 1.46927 458.116 2.17584 458.116H510.72C511.427 458.116 512 458.689 512 459.396C512 460.102 511.427 460.675 510.72 460.675H2.17584C1.46927 460.675 0.896484 460.102 0.896484 459.396Z" fill="#3E3D3D"/>
</g>
<defs>
<clipPath id="clip0_102_3129">
<rect width="512" height="512" fill="white"/>
</clipPath>
</defs>
</svg>
