<svg width="512" height="512" viewBox="0 0 512 512" fill="none" xmlns="http://www.w3.org/2000/svg">
<g clip-path="url(#clip0_102_3054)">
<path fill-rule="evenodd" clip-rule="evenodd" d="M268.542 256.962L314.083 200.516L316.08 202.127L270.539 258.573L268.542 256.962ZM298.708 249.241L319.875 224.226L321.834 225.883L300.667 250.899L298.708 249.241ZM296.765 289.674L342.306 233.229L344.303 234.84L298.762 291.285L296.765 289.674Z" fill="#F1F1F1"/>
<path d="M114.956 99.9762H140.613V461.741H114.956V99.9762Z" fill="#F1F1F1"/>
<path d="M362.547 99.9762H388.204V461.741H362.547V99.9762Z" fill="#F1F1F1"/>
<path d="M44.3994 167.967H466.458V174.382H44.3994V167.967Z" fill="#F1F1F1"/>
<path d="M44.3994 371.941H466.458V378.355H44.3994V371.941Z" fill="#F1F1F1"/>
<path fill-rule="evenodd" clip-rule="evenodd" d="M375.115 248.146C387.95 248.146 423.602 176.525 423.602 149.746C423.602 122.967 401.894 101.259 375.115 101.259C348.336 101.259 326.628 122.967 326.628 149.746C326.628 176.525 362.28 248.146 375.115 248.146ZM375.115 169.712C387.717 169.712 397.932 159.496 397.932 146.894C397.932 134.293 387.717 124.077 375.115 124.077C362.513 124.077 352.297 134.293 352.297 146.894C352.297 159.496 362.513 169.712 375.115 169.712Z" fill="#F15846"/>
<path fill-rule="evenodd" clip-rule="evenodd" d="M401.294 351.604C407.476 351.604 424.647 317.109 424.647 304.211C424.647 291.314 414.192 280.859 401.294 280.859C388.397 280.859 377.941 291.314 377.941 304.211C377.941 317.109 395.113 351.604 401.294 351.604ZM401.294 313.827C407.363 313.827 412.284 308.907 412.284 302.838C412.284 296.768 407.363 291.848 401.294 291.848C395.225 291.848 390.305 296.768 390.305 302.838C390.305 308.907 395.225 313.827 401.294 313.827Z" fill="#F15846"/>
<path d="M132.917 434.159C134.456 442.37 142.538 448.698 146.387 450.836L151.518 453.402C154.298 447.416 159.985 432.107 160.498 418.765C161.14 402.088 152.801 401.447 150.235 391.184C147.67 380.921 154.725 372.583 150.235 362.32C145.745 352.057 140.614 356.547 130.351 344.36C120.088 332.172 119.447 322.551 109.826 319.344C100.204 316.137 90.5827 307.798 86.7342 315.495C82.8856 323.192 98.2798 335.38 104.694 344.36C111.108 353.34 103.411 360.395 109.826 376.431C116.24 392.467 125.22 388.618 130.351 401.447C135.483 414.275 130.993 423.896 132.917 434.159Z" fill="#F15846"/>
<path d="M157.291 379.638C154.212 385.796 149.166 391.184 147.028 393.108L145.104 443.781L152.159 454.044C156.222 451.478 165.116 444.294 168.195 436.084C172.043 425.821 164.988 420.69 168.195 411.068C171.402 401.447 174.609 403.371 179.099 395.674C183.589 387.977 178.458 384.77 179.099 374.507C179.741 364.244 186.155 354.623 181.665 348.85C177.175 343.077 170.761 350.774 164.988 356.547C159.215 362.32 161.139 371.941 157.291 379.638Z" fill="#F15846"/>
<path fill-rule="evenodd" clip-rule="evenodd" d="M150.021 435.928C148.196 410.693 139.282 370.228 112.779 334.614L110.721 336.146C143.341 379.979 148.941 431.315 147.672 451.397L150.227 451.628C151.931 437.143 158.283 401.539 170.01 375.026L167.664 373.988C158.913 393.772 153.141 418.463 150.021 435.928Z" fill="#3E3D3D"/>
<path d="M184.873 461.741L187.439 420.048L206.682 418.124L198.984 461.741H184.873Z" fill="#EFCB96"/>
<path d="M220.793 461.741L219.51 421.331L238.753 418.124L235.546 461.741H220.793Z" fill="#EFCB96"/>
<path d="M192.57 151.29C197.701 142.054 199.412 134.186 199.626 131.406L216.303 119.86H240.677C241.746 121.999 243.884 127.558 243.884 132.689C243.884 139.103 239.394 148.725 239.394 156.422C239.394 164.119 243.884 167.967 243.243 175.023C242.729 180.668 239.608 185.072 238.111 186.569L222.075 180.155H183.59C184.445 174.382 187.438 160.527 192.57 151.29Z" fill="#3E3D3D"/>
<path d="M226.565 163.478C226.052 165.017 226.351 169.892 225.924 173.74L223.358 176.306L216.944 178.872L209.247 173.74L207.964 169.25C209.888 164.119 212.862 164.119 215.661 158.988C219.51 151.932 218.227 146.801 218.227 140.386C218.227 135.255 220.792 130.551 222.075 128.841C223.615 127.814 228.276 127.558 230.414 127.558C231.697 130.765 235.545 132.048 236.828 137.821C238.111 143.593 235.545 153.856 234.262 157.705C233.236 160.784 228.703 162.836 226.565 163.478Z" fill="#EFCB96"/>
<path d="M240.035 185.286C236.186 171.816 234.262 172.457 231.055 169.892C228.778 168.07 228.353 170.155 228.436 171.843L228.489 190.417L224.641 261.616C224.854 309.295 227.848 405.039 238.111 406.578C248.373 408.118 252.222 405.937 252.863 404.654C253.932 401.447 255.429 392.338 252.863 381.562C249.656 368.092 254.788 325.117 252.863 308.44C250.939 291.763 250.298 245.58 249.015 234.676C247.732 223.771 243.883 198.756 240.035 185.286Z" fill="#F15846"/>
<path d="M220.151 175.665C214.506 176.178 208.605 171.388 206.681 169.892C208.605 178.016 213.095 196.832 213.095 199.397C213.095 201.963 227.634 225.696 234.903 237.242C234.69 223.558 234.005 194.138 232.979 185.927C231.953 177.717 229.558 173.099 228.489 171.816C228.062 172.885 225.795 175.151 220.151 175.665Z" fill="#F1F1F1"/>
<path d="M181.665 418.765C180.125 416.199 181.878 408.288 182.947 404.654L222.075 393.108C228.916 380.707 242.6 349.876 242.6 356.547C242.6 364.885 243.242 388.618 245.166 398.881C247.09 409.144 245.166 409.785 245.166 414.275C245.166 418.765 240.034 423.255 235.544 423.255C231.952 423.255 225.068 424.11 222.075 424.538C214.377 425.821 210.529 423.897 207.322 421.972C204.115 420.048 202.19 421.972 194.493 423.255C186.796 424.538 183.589 421.972 181.665 418.765Z" fill="#3E3D3D"/>
<path d="M200.908 412.351C215.276 410.812 225.71 411.71 229.131 412.351C246.449 413.124 243.242 405.295 241.959 392.467C240.676 379.638 243.883 345.643 241.959 324.476C240.035 303.308 240.676 257.126 239.393 250.711C238.111 244.297 223.999 209.66 221.433 203.246C218.868 196.832 209.246 169.892 207.322 168.609C205.398 167.326 202.191 166.685 193.211 169.892C184.231 173.099 181.024 185.927 180.382 190.417C179.741 194.907 177.816 241.731 177.816 250.711C177.816 257.895 182.093 274.658 184.231 282.141C183.803 286.631 182.948 297.792 182.948 306.516C182.948 317.42 184.872 355.264 181.665 375.148C178.458 395.032 179.099 405.937 179.099 409.144C179.099 412.351 182.948 414.275 200.908 412.351Z" fill="#F15846"/>
<path fill-rule="evenodd" clip-rule="evenodd" d="M209.717 213.088C209.085 209.718 208.411 205.928 207.982 203.466L210.51 203.026C210.937 205.481 211.61 209.26 212.239 212.615C212.554 214.293 212.857 215.86 213.113 217.1C213.365 218.324 213.555 219.149 213.658 219.477C213.68 219.501 213.771 219.592 214.033 219.72C214.413 219.904 214.959 220.07 215.625 220.205C216.949 220.472 218.495 220.564 219.509 220.564H220.517L226.417 244.817L237.579 252.879L236.077 254.959L224.147 246.343L218.495 223.107C217.477 223.062 216.248 222.948 215.119 222.72C214.353 222.566 213.568 222.347 212.91 222.026C212.296 221.727 211.531 221.213 211.236 220.329C211.079 219.856 210.852 218.843 210.6 217.618C210.34 216.356 210.033 214.772 209.717 213.088Z" fill="#3E3D3D"/>
<path d="M233.621 127.558C224.898 125.505 214.164 131.406 209.888 134.613C208.605 135.522 196.418 141.669 197.06 134.613C197.701 127.558 206.04 116.012 224 110.88C241.959 105.749 247.091 118.577 245.808 123.067C244.525 127.557 244.525 130.123 233.621 127.558Z" fill="#F15846"/>
<path d="M208.606 316.116C208.606 313.092 205.486 309.311 203.927 307.798L194.569 310.823C194.829 312.335 195.193 316.268 194.569 319.897C193.79 324.434 199.248 328.215 202.367 326.703C205.486 325.19 207.826 324.434 206.266 322.166C205.019 320.351 204.707 316.368 204.707 314.604C205.226 315.612 206.266 317.931 206.266 319.141C206.266 320.351 207.306 320.653 207.826 320.653C208.086 320.401 208.606 319.141 208.606 316.116Z" fill="#EFCB96"/>
<path d="M283.011 266.747C283.011 265.33 284.159 264.181 285.576 264.181C286.993 264.181 288.142 265.33 288.142 266.747V461.741H283.011V266.747Z" fill="#3E3D3D"/>
<path d="M278.366 265.27C277.422 263.29 276.792 263.207 276.596 263.414L277.776 257.767C279.152 258.18 282.377 259.129 284.265 259.624C286.625 260.242 291.344 260.861 291.934 265.889C292.406 269.912 289.771 271.278 288.394 271.459V268.287C288.394 266.802 288.001 265.657 287.805 265.27C285.917 263.352 283.872 264.883 283.085 265.889C282.613 266.879 284.855 269.602 286.035 270.84C286.231 271.459 285.917 272.449 283.085 271.459C279.545 270.221 279.545 267.745 278.366 265.27Z" fill="#EFCB96"/>
<path d="M333.777 336.323H285.576V461.741H342.022V344.727C342.022 335.935 336.525 335.461 333.777 336.323Z" fill="white"/>
<path fill-rule="evenodd" clip-rule="evenodd" d="M338.233 337.982C336.936 337.144 335.302 337.189 334.16 337.547L333.973 337.606H286.859V460.458H340.739V344.727C340.739 340.591 339.459 338.774 338.233 337.982ZM339.626 335.827C341.835 337.255 343.304 340.071 343.304 344.727V463.024H284.293V335.04H333.59C335.199 334.585 337.574 334.501 339.626 335.827Z" fill="#3E3D3D"/>
<path d="M300.971 337.304H318.931V460.458H300.971V337.304Z" fill="#F15846"/>
<path fill-rule="evenodd" clip-rule="evenodd" d="M202.452 228.284C200.675 236.769 199.376 245.062 199.623 250.006C200.133 260.195 204.525 292.621 206.668 307.617L206.831 308.762L191.673 312.552L182.996 281.849L185.465 281.151L193.465 309.459L203.965 306.834C201.777 291.438 197.565 260.214 197.061 250.134C196.795 244.815 198.169 236.217 199.941 227.758C201.723 219.251 203.944 210.721 205.447 205.459L207.914 206.164C206.424 211.378 204.219 219.847 202.452 228.284Z" fill="#3E3D3D"/>
<path d="M279.803 256.485L248.373 231.469L249.014 251.995L275.954 264.823L279.803 256.485Z" fill="#F15846"/>
<path d="M124.491 453.694C123.884 451.265 125.721 448.912 128.224 448.912H175.046C177.475 448.912 179.297 451.134 178.82 453.516L177.175 461.741H126.502L124.491 453.694Z" fill="#F1F1F1"/>
<path fill-rule="evenodd" clip-rule="evenodd" d="M-0.5 461.741C-0.5 461.032 0.0743531 460.458 0.782854 460.458H510.717C511.426 460.458 512 461.032 512 461.741C512 462.449 511.426 463.024 510.717 463.024H0.782854C0.0743531 463.024 -0.5 462.449 -0.5 461.741Z" fill="#3E3D3D"/>
</g>
<defs>
<clipPath id="clip0_102_3054">
<rect width="512" height="512" fill="white"/>
</clipPath>
</defs>
</svg>
