<svg width="512" height="512" viewBox="0 0 512 512" fill="none" xmlns="http://www.w3.org/2000/svg">
<g clip-path="url(#clip0_102_2905)">
<path d="M404.882 165.281C404.882 183.702 389.949 198.635 371.528 198.635C353.107 198.635 338.174 183.702 338.174 165.281C338.174 146.86 353.107 131.927 371.528 131.927C389.949 131.927 404.882 146.86 404.882 165.281Z" fill="#F15846"/>
<path d="M256.095 89.4836L270.997 96.7084L266.225 106.549L251.324 99.3247L256.095 89.4836Z" fill="#3E3D3D"/>
<path d="M237.998 103.451C240.78 97.7131 247.686 95.3168 253.424 98.0986L264.742 103.586C270.48 106.368 272.876 113.274 270.094 119.012L257.347 145.304L225.251 129.743L237.998 103.451Z" fill="#F1F1F1"/>
<path d="M236.366 106.673L268.545 121.966L262.535 134.612L230.357 119.319L236.366 106.673Z" fill="#F15846"/>
<path d="M102.166 259.794C97.1858 257.941 94.6504 252.402 96.5032 247.421C98.3559 242.441 103.895 239.906 108.875 241.758L136.529 252.046C141.51 253.899 144.045 259.438 142.192 264.419C140.34 269.399 134.8 271.934 129.82 270.081L102.166 259.794Z" fill="#F15846"/>
<path d="M74.5499 231.924C78.1219 227.99 84.2068 227.697 88.1409 231.269C92.0749 234.841 92.3685 240.925 88.7965 244.86L68.9624 266.704C65.3905 270.638 59.3056 270.932 55.3715 267.36C51.4374 263.788 51.1439 257.703 54.7159 253.769L74.5499 231.924Z" fill="#F1F1F1"/>
<path fill-rule="evenodd" clip-rule="evenodd" d="M378.583 271.758C386.731 271.758 393.336 265.153 393.336 257.005C393.336 248.857 386.731 242.252 378.583 242.252C370.435 242.252 363.83 248.857 363.83 257.005C363.83 265.153 370.435 271.758 378.583 271.758ZM378.583 264.061C382.48 264.061 385.639 260.902 385.639 257.005C385.639 253.108 382.48 249.949 378.583 249.949C374.686 249.949 371.527 253.108 371.527 257.005C371.527 260.902 374.686 264.061 378.583 264.061Z" fill="#3E3D3D"/>
<path d="M311.233 261.495C311.233 259.37 312.956 257.646 315.082 257.646H439.519C441.644 257.646 443.367 259.37 443.367 261.495V426.983C443.367 429.109 441.644 430.832 439.519 430.832H315.082C312.956 430.832 311.233 429.109 311.233 426.983V261.495Z" fill="#F1F1F1"/>
<path fill-rule="evenodd" clip-rule="evenodd" d="M309.95 261.495C309.95 258.661 312.248 256.364 315.082 256.364H439.518C442.352 256.364 444.65 258.661 444.65 261.495V426.983C444.65 429.817 442.352 432.115 439.518 432.115H315.082C312.248 432.115 309.95 429.817 309.95 426.983V261.495ZM315.082 258.929C313.665 258.929 312.516 260.078 312.516 261.495V426.983C312.516 428.4 313.665 429.549 315.082 429.549H439.518C440.935 429.549 442.084 428.4 442.084 426.983V261.495C442.084 260.078 440.935 258.929 439.518 258.929H315.082Z" fill="#3E3D3D"/>
<path d="M321.496 271.758H433.104V416.72H321.496V271.758Z" fill="white"/>
<path fill-rule="evenodd" clip-rule="evenodd" d="M320.213 270.475H434.387V418.003H320.213V270.475ZM322.779 273.041V415.437H431.821V273.041H322.779Z" fill="#3E3D3D"/>
<path fill-rule="evenodd" clip-rule="evenodd" d="M413.22 297.415H340.739V294.849H413.22V297.415ZM413.22 326.921H340.739V324.355H413.22V326.921ZM413.22 357.709H340.739V355.143H413.22V357.709ZM413.22 387.856H340.739V385.29H413.22V387.856Z" fill="#3E3D3D"/>
<path d="M57.2281 351.936C64.9252 354.502 73.6914 359.419 77.1123 361.558L88.658 355.143L102.769 359.633L116.881 431.473H81.6023C77.1123 419.927 65.5667 419.927 61.7181 412.872C58.6393 407.227 63.001 395.981 65.5667 391.063C66.4219 388.07 65.1818 379.646 53.3796 369.896C38.6267 357.709 47.6067 348.729 57.2281 351.936Z" fill="#F1F1F1"/>
<path d="M142.533 122.783C130.746 125.839 129.402 139.008 129.402 143.273L129.135 143.401C125.817 140.72 114.039 132.643 104.944 140.74C92.5064 151.811 95.3379 163.811 119.944 176.936C139.628 187.437 149.388 190.594 151.807 190.86L152.074 190.732C153.387 188.683 157.064 179.108 161.265 157.196C166.516 129.808 159.215 118.457 142.533 122.783Z" fill="#F1F1F1"/>
<path fill-rule="evenodd" clip-rule="evenodd" d="M163.502 147.885L150.235 152.71V163.883C150.235 166.039 147.739 167.233 146.06 165.881L127.144 150.643V163.117C127.144 164.179 126.49 165.131 125.499 165.512L109.645 171.61L108.724 169.215L124.578 163.117V150.643C124.578 148.488 127.075 147.293 128.754 148.645L147.67 163.883L147.67 152.71C147.67 151.631 148.345 150.667 149.359 150.298L162.626 145.474L163.502 147.885Z" fill="white"/>
<path d="M197.06 92.7998C197.06 96.6965 193.901 99.8554 190.004 99.8554C186.107 99.8554 182.948 96.6965 182.948 92.7998C182.948 88.903 186.107 85.7441 190.004 85.7441C193.901 85.7441 197.06 88.903 197.06 92.7998Z" fill="#F1F1F1"/>
<path d="M438.236 212.105C438.236 218.127 433.354 223.009 427.332 223.009C421.31 223.009 416.428 218.127 416.428 212.105C416.428 206.083 421.31 201.201 427.332 201.201C433.354 201.201 438.236 206.083 438.236 212.105Z" fill="#F1F1F1"/>
<path fill-rule="evenodd" clip-rule="evenodd" d="M365.113 144.755H377.942V158.867H392.053V171.695H377.942V185.807H365.113V171.695H351.002V158.867H365.113V144.755Z" fill="white"/>
<path fill-rule="evenodd" clip-rule="evenodd" d="M222.278 269.192C216.888 264.489 212.384 257.23 210.529 246.101C208.177 245.459 203.474 241.611 203.474 231.348C203.474 221.085 206.895 217.664 208.605 217.237L214.378 188.372L240.676 181.958H251.581L277.879 188.372L283.652 217.237C285.362 217.664 288.783 221.085 288.783 231.348C288.783 241.611 284.08 245.459 281.728 246.101C279.87 257.247 275.459 264.511 270.182 269.214V307.678H221.434V269.192H222.278Z" fill="#EFCB96"/>
<path d="M216.944 282.662H211.812L207.964 290.359L245.808 429.549L251.581 432.115L283.652 324.996L278.521 282.662H274.672C272.962 289.504 264.794 303.188 245.808 303.188C226.822 303.188 218.654 289.504 216.944 282.662Z" fill="#F15846"/>
<path d="M210.529 279.455C143.821 285.869 136.979 383.794 132.275 430.832H366.396C357.16 299.467 317.648 279.455 279.804 279.455L253.505 377.593L250.939 427.625L244.525 377.593L210.529 279.455Z" fill="#F1F1F1"/>
<path fill-rule="evenodd" clip-rule="evenodd" d="M293.087 342.683L282.39 283.532L284.915 283.075L296.025 344.512L274.416 350.686L288.378 366.47L260.44 426.243L258.116 425.157L285.341 366.908L269.797 349.338L293.087 342.683ZM205.399 283.249L207.963 283.358L205.444 342.542L226.833 346.552L212.673 366.78L243.733 425.097L241.469 426.303L209.669 366.598L222.449 348.34L202.786 344.654L205.399 283.249ZM180.374 370.685L173.318 431.621L170.77 431.326L177.825 370.39L180.374 370.685ZM317.639 370.39L324.695 431.326L322.146 431.621L315.091 370.685L317.639 370.39Z" fill="#3E3D3D"/>
<path d="M207.964 218.519C210.53 222.368 209.247 236.479 211.813 237.121C213.737 230.707 213.737 221.085 214.378 216.595C215.02 212.105 216.303 195.428 227.207 195.428C238.111 195.428 238.111 202.484 246.45 202.484C254.788 202.484 255.43 195.428 264.41 195.428C273.299 195.428 274.017 202.971 275.275 216.191L275.314 216.595C276.34 227.371 278.735 234.769 279.804 237.121C281.856 234.042 279.804 216.595 283.652 217.237C287.244 219.289 288.142 223.651 288.142 225.575C291.777 205.263 288.014 164.64 243.884 164.64C199.754 164.64 198.556 206.974 203.474 228.141C204.5 218.904 206.895 217.878 207.964 218.519Z" fill="#3E3D3D"/>
<path fill-rule="evenodd" clip-rule="evenodd" d="M197.731 296.495C201.973 277.409 215.504 271.992 222.029 271.759L222.121 274.323C216.672 274.517 204.205 279.192 200.236 297.052C198.186 306.276 196.959 312.41 196.138 316.691C195.884 318.018 195.667 319.174 195.476 320.193C195.055 322.438 194.759 324.016 194.459 325.29L191.962 324.702C192.248 323.488 192.527 321.997 192.939 319.8C193.132 318.772 193.354 317.589 193.618 316.208C194.444 311.904 195.676 305.745 197.731 296.495Z" fill="#3E3D3D"/>
<path fill-rule="evenodd" clip-rule="evenodd" d="M287.867 277.613C281.402 273.581 274.574 271.871 270.216 271.758L270.149 274.323C274.022 274.424 280.408 275.985 286.509 279.79C292.584 283.578 298.312 289.547 301.027 298.431L303.48 297.681C300.551 288.093 294.359 281.661 287.867 277.613Z" fill="#3E3D3D"/>
<path fill-rule="evenodd" clip-rule="evenodd" d="M306.627 299.638C304.894 298.785 303.617 298.808 302.827 299.204C301.932 299.651 301.053 300.655 300.3 302.459C299.552 304.25 298.99 306.684 298.637 309.749C297.93 315.874 298.081 324.271 299.04 334.498C299.797 342.567 301.93 346.69 304.029 348.66C306.08 350.585 308.222 350.573 309.5 350.094L310.401 352.496C308.258 353.3 305.075 353.16 302.273 350.531C299.519 347.946 297.269 343.089 296.486 334.737C295.52 324.439 295.351 315.838 296.088 309.455C296.456 306.266 297.056 303.569 297.932 301.471C298.803 299.386 300.008 297.744 301.679 296.909C303.454 296.021 305.626 296.286 307.761 297.336C309.914 298.396 312.199 300.326 314.404 303.114C318.821 308.697 323.055 317.895 325.326 331.195L325.331 331.223L325.334 331.251C325.971 336.346 326.331 340.573 325.636 343.789C325.28 345.434 324.637 346.879 323.568 348.058C322.498 349.238 321.076 350.066 319.299 350.599L318.561 348.142C319.992 347.713 320.975 347.098 321.668 346.334C322.363 345.568 322.843 344.568 323.128 343.246C323.715 340.533 323.436 336.752 322.792 331.598C320.572 318.615 316.471 309.862 312.392 304.705C310.347 302.121 308.343 300.483 306.627 299.638Z" fill="#3E3D3D"/>
<path d="M199.44 340.985C197.851 348.976 192.337 354.614 187.126 353.577C181.914 352.54 178.978 345.222 180.567 337.231C182.157 329.239 187.67 323.602 192.882 324.638C198.093 325.675 201.03 332.994 199.44 340.985Z" fill="#3E3D3D"/>
<path fill-rule="evenodd" clip-rule="evenodd" d="M186.284 328.446C184.253 330.522 182.579 333.694 181.825 337.481C181.072 341.268 181.405 344.839 182.487 347.534C183.573 350.243 185.335 351.913 187.376 352.319C189.417 352.725 191.684 351.856 193.724 349.769C195.755 347.693 197.429 344.522 198.182 340.734C198.935 336.947 198.602 333.377 197.521 330.681C196.434 327.973 194.673 326.303 192.632 325.897C190.59 325.491 188.324 326.36 186.284 328.446ZM184.449 326.652C186.866 324.181 189.962 322.749 193.132 323.38C196.303 324.011 198.615 326.518 199.902 329.726C201.194 332.947 201.535 337.031 200.699 341.235C199.862 345.439 197.985 349.082 195.558 351.563C193.142 354.034 190.046 355.466 186.875 354.835C183.705 354.205 181.392 351.697 180.105 348.489C178.813 345.269 178.473 341.184 179.309 336.98C180.145 332.776 182.023 329.133 184.449 326.652Z" fill="#3E3D3D"/>
<path d="M132.275 378.876C135.867 385.034 135.91 395.553 135.482 400.043V430.832H97.6381C97.4243 428.48 95.0724 420.954 87.3753 409.665C77.7539 395.553 89.2996 381.442 84.8096 370.538C80.3196 359.633 68.1325 360.916 62.3596 339.749C56.5868 318.582 72.6225 316.658 80.3196 319.865C88.0167 323.072 100.204 322.431 107.26 330.769C114.315 339.108 111.75 350.653 115.598 360.916C119.447 371.179 127.785 371.179 132.275 378.876Z" fill="#F15846"/>
<path fill-rule="evenodd" clip-rule="evenodd" d="M118.821 430.388C111.168 381.413 86.7161 346.246 75.5557 334.875L77.3868 333.078C88.89 344.798 113.614 380.444 121.356 429.992L118.821 430.388Z" fill="#3E3D3D"/>
<path fill-rule="evenodd" clip-rule="evenodd" d="M96.5029 247.421C94.6501 252.402 97.1855 257.941 102.166 259.794L115.267 264.667L122.575 246.855L108.875 241.758C103.895 239.906 98.3557 242.441 96.5029 247.421Z" fill="#F1F1F1"/>
<path fill-rule="evenodd" clip-rule="evenodd" d="M88.1414 231.269C84.2073 227.697 78.1224 227.99 74.5504 231.924L65.154 242.273L78.9715 255.681L88.797 244.86C92.369 240.926 92.0754 234.841 88.1414 231.269Z" fill="#F1F1F1"/>
<path fill-rule="evenodd" clip-rule="evenodd" d="M-0.5 431.473C-0.5 430.765 0.0743531 430.19 0.782854 430.19H510.717C511.426 430.19 512 430.765 512 431.473C512 432.182 511.426 432.756 510.717 432.756H0.782854C0.0743531 432.756 -0.5 432.182 -0.5 431.473Z" fill="#3E3D3D"/>
</g>
<defs>
<clipPath id="clip0_102_2905">
<rect width="512" height="512" fill="white"/>
</clipPath>
</defs>
</svg>
