<svg width="512" height="512" viewBox="0 0 512 512" fill="none" xmlns="http://www.w3.org/2000/svg">
<g clip-path="url(#clip0_102_2826)">
<path fill-rule="evenodd" clip-rule="evenodd" d="M177.152 164.248C177.152 160.405 180.268 157.289 184.112 157.289H396.372C400.216 157.289 403.332 160.405 403.332 164.248V443.783C403.332 447.627 400.216 450.742 396.372 450.742H184.112C180.268 450.742 177.152 447.627 177.152 443.783V164.248ZM184.112 159.609C181.549 159.609 179.472 161.686 179.472 164.248V443.783C179.472 446.345 181.549 448.423 184.112 448.423H396.372C398.935 448.423 401.012 446.345 401.012 443.783V164.248C401.012 161.686 398.935 159.609 396.372 159.609H184.112Z" fill="#F1F1F1"/>
<path fill-rule="evenodd" clip-rule="evenodd" d="M55.8164 145.49C62.3972 163.863 79.9634 177.007 100.6 177.007C126.864 177.007 148.155 155.716 148.155 129.452C148.155 103.187 126.864 81.8959 100.6 81.8959C94.6214 81.8959 88.9008 82.999 83.6302 85.0129L99.4398 128.872L55.8164 145.49Z" fill="#F1F1F1"/>
<path fill-rule="evenodd" clip-rule="evenodd" d="M76.7377 88.3068L90.7405 124.311L54.1175 139.546C53.4143 136.293 53.0439 132.915 53.0439 129.452C53.0439 111.884 62.5696 96.5413 76.7377 88.3068Z" fill="#F1F1F1"/>
<path d="M99.4395 135.251C99.4395 132.048 102.036 129.452 105.239 129.452H370.855C374.058 129.452 376.654 132.048 376.654 135.251V420.585C376.654 423.788 374.058 426.385 370.855 426.385H105.239C102.036 426.385 99.4395 423.788 99.4395 420.585V135.251Z" fill="white"/>
<path fill-rule="evenodd" clip-rule="evenodd" d="M98.2793 135.251C98.2793 131.408 101.395 128.292 105.239 128.292H370.854C374.698 128.292 377.814 131.408 377.814 135.251V420.585C377.814 424.429 374.698 427.544 370.854 427.544H105.239C101.395 427.544 98.2793 424.429 98.2793 420.585V135.251ZM105.239 130.611C102.676 130.611 100.599 132.689 100.599 135.251V420.585C100.599 423.147 102.676 425.225 105.239 425.225H370.854C373.417 425.225 375.494 423.147 375.494 420.585V135.251C375.494 132.689 373.417 130.611 370.854 130.611H105.239Z" fill="#3E3D3D"/>
<path fill-rule="evenodd" clip-rule="evenodd" d="M143.516 254.72H229.348V290.677H143.516V254.72ZM145.835 257.04V288.357H227.028V257.04H145.835Z" fill="#3E3D3D"/>
<path fill-rule="evenodd" clip-rule="evenodd" d="M206.15 271.539H159.754V269.219H206.15V271.539Z" fill="#F15846"/>
<path fill-rule="evenodd" clip-rule="evenodd" d="M-0.311523 481.48C-0.311523 480.839 0.207779 480.32 0.848371 480.32H461.906C462.547 480.32 463.066 480.839 463.066 481.48C463.066 482.12 462.547 482.639 461.906 482.639H0.848371C0.207779 482.639 -0.311523 482.12 -0.311523 481.48Z" fill="#3E3D3D"/>
<path d="M317.5 303.436H341.858V388.108H317.5V303.436Z" fill="#F15846"/>
<path d="M274.583 326.634H298.941V388.108H274.583V326.634Z" fill="#F15846"/>
<path d="M231.667 347.512H256.025V388.108H231.667V347.512Z" fill="#F15846"/>
<path fill-rule="evenodd" clip-rule="evenodd" d="M354.036 288.357H254.865V286.037H356.356V400.287H202.09V370.71H204.41V397.967H354.036V288.357Z" fill="#F1F1F1"/>
<path fill-rule="evenodd" clip-rule="evenodd" d="M281.543 312.715H232.827V310.395H281.543V312.715Z" fill="#3E3D3D"/>
<path fill-rule="evenodd" clip-rule="evenodd" d="M256.025 330.113H232.827V327.794H256.025V330.113Z" fill="#3E3D3D"/>
<path fill-rule="evenodd" clip-rule="evenodd" d="M243.266 168.888H144.675V166.568H243.266V168.888ZM243.266 197.305H144.675V194.986H243.266V197.305ZM243.266 225.723H144.675V223.403H243.266V225.723Z" fill="#3E3D3D"/>
<path fill-rule="evenodd" clip-rule="evenodd" d="M437.526 249.585C438.368 248.189 440.182 247.739 441.578 248.581L449.862 253.575C451.259 254.417 451.708 256.231 450.866 257.628C450.177 258.772 450.353 260.227 451.203 261.257C453.585 264.144 455.376 267.425 456.527 270.908C456.947 272.178 458.086 273.102 459.423 273.128C461.056 273.158 462.355 274.507 462.324 276.14L462.141 285.805C462.111 287.436 460.763 288.733 459.132 288.702C457.797 288.677 456.626 289.556 456.158 290.806C455.519 292.509 454.717 294.177 453.744 295.791C452.771 297.405 451.67 298.894 450.463 300.253C449.576 301.251 449.345 302.697 449.991 303.866C450.78 305.294 450.262 307.091 448.833 307.88L440.373 312.553C438.943 313.343 437.144 312.824 436.354 311.395C435.707 310.224 434.358 309.648 433.039 309.87C429.422 310.478 425.684 310.426 422.019 309.668C420.711 309.397 419.342 309.92 418.652 311.064C417.81 312.461 415.996 312.91 414.6 312.068L406.316 307.074C404.919 306.233 404.47 304.418 405.312 303.022C406.001 301.878 405.824 300.423 404.974 299.393C402.593 296.506 400.802 293.224 399.651 289.742C399.231 288.472 398.092 287.547 396.755 287.522C395.121 287.491 393.823 286.142 393.854 284.509L394.036 274.845C394.067 273.214 395.415 271.917 397.046 271.948C398.38 271.973 399.552 271.094 400.02 269.844C400.658 268.141 401.461 266.472 402.434 264.859C403.407 263.245 404.508 261.756 405.715 260.397C406.602 259.399 406.833 257.953 406.187 256.784C405.398 255.356 405.916 253.559 407.344 252.77L415.805 248.096C417.235 247.307 419.034 247.825 419.824 249.255C420.471 250.426 421.82 251.001 423.139 250.78C426.756 250.172 430.494 250.223 434.159 250.982C435.467 251.252 436.836 250.729 437.526 249.585ZM442.598 289.071C437.767 297.084 427.355 299.664 419.343 294.833C411.33 290.003 408.75 279.591 413.581 271.578C418.411 263.566 428.823 260.986 436.836 265.816C444.848 270.647 447.428 281.058 442.598 289.071Z" fill="#F1F1F1"/>
<path fill-rule="evenodd" clip-rule="evenodd" d="M424.774 336.266C425.371 335.277 426.656 334.958 427.646 335.555L433.517 339.094C434.506 339.69 434.825 340.976 434.228 341.966C433.74 342.777 433.865 343.808 434.467 344.538C436.155 346.584 437.424 348.909 438.24 351.377C438.537 352.277 439.345 352.932 440.292 352.95C441.45 352.972 442.37 353.928 442.348 355.086L442.219 361.934C442.197 363.09 441.242 364.01 440.086 363.988C439.14 363.97 438.31 364.593 437.978 365.479C437.526 366.686 436.957 367.868 436.267 369.012C435.578 370.155 434.798 371.21 433.942 372.174C433.314 372.881 433.15 373.906 433.608 374.734C434.167 375.746 433.8 377.02 432.788 377.579L426.792 380.891C425.778 381.451 424.503 381.083 423.943 380.07C423.485 379.24 422.529 378.832 421.594 378.989C419.031 379.42 416.382 379.383 413.784 378.846C412.857 378.654 411.887 379.025 411.398 379.836C410.802 380.825 409.516 381.144 408.526 380.547L402.656 377.008C401.666 376.411 401.348 375.126 401.944 374.136C402.433 373.325 402.308 372.294 401.705 371.564C400.017 369.518 398.748 367.193 397.932 364.724C397.635 363.825 396.828 363.169 395.88 363.152C394.723 363.13 393.802 362.174 393.824 361.016L393.954 354.167C393.976 353.012 394.93 352.092 396.086 352.114C397.032 352.132 397.862 351.509 398.194 350.623C398.647 349.416 399.215 348.234 399.905 347.09C400.594 345.947 401.374 344.892 402.23 343.928C402.859 343.221 403.022 342.196 402.565 341.368C402.006 340.356 402.373 339.082 403.385 338.523L409.381 335.211C410.394 334.651 411.669 335.019 412.229 336.032C412.687 336.862 413.644 337.27 414.578 337.113C417.142 336.682 419.791 336.719 422.388 337.256C423.315 337.448 424.285 337.077 424.774 336.266ZM428.368 364.249C424.945 369.928 417.566 371.756 411.888 368.333C406.209 364.91 404.381 357.531 407.804 351.852C411.228 346.174 418.606 344.346 424.285 347.769C429.963 351.192 431.791 358.571 428.368 364.249Z" fill="#F1F1F1"/>
<path d="M315.179 145.11C315.179 147.993 312.842 150.33 309.96 150.33C307.077 150.33 304.74 147.993 304.74 145.11C304.74 142.228 307.077 139.891 309.96 139.891C312.842 139.891 315.179 142.228 315.179 145.11Z" fill="#F15846"/>
<path d="M349.976 145.11C349.976 147.993 347.639 150.33 344.757 150.33C341.874 150.33 339.537 147.993 339.537 145.11C339.537 142.228 341.874 139.891 344.757 139.891C347.639 139.891 349.976 142.228 349.976 145.11Z" fill="#F1F1F1"/>
<path d="M280.383 145.11C280.383 147.993 278.047 150.33 275.164 150.33C272.281 150.33 269.944 147.993 269.944 145.11C269.944 142.228 272.281 139.891 275.164 139.891C278.047 139.891 280.383 142.228 280.383 145.11Z" fill="#F1F1F1"/>
<path d="M347.657 468.141H432.33V480.9H347.657V468.141Z" fill="#F15846"/>
<path d="M337.218 455.382H421.89V468.141H337.218V455.382Z" fill="#F1F1F1"/>
<path d="M343.018 442.623H427.69V455.382H343.018V442.623Z" fill="#F1F1F1"/>
<path d="M118.578 291.257C103.267 289.865 85.9073 290.677 79.1412 291.257C78.5613 292.803 77.4014 296.012 77.4014 296.476C77.4014 297.056 80.8811 313.295 80.8811 315.615C80.8811 317.47 101.759 320.641 112.198 321.994C120.704 312.328 133.888 292.649 118.578 291.257Z" fill="#F15846"/>
<path d="M82.6211 267.479H115.098V306.915H82.6211V267.479Z" fill="#EFCB96"/>
<path d="M204.989 281.398C205.917 285.573 204.216 287.777 203.25 288.357L206.729 296.476L218.328 301.116C219.488 299.569 222.852 295.78 227.027 292.997C232.247 289.517 235.727 281.978 236.307 278.498C236.771 275.714 234.953 274.632 233.987 274.438C234.451 272.583 232.634 271.345 231.667 270.959C231.203 268.639 228.767 268.059 227.607 268.059L232.802 258.614C233.478 257.386 233.127 255.846 231.987 255.031C230.821 254.199 229.212 254.394 228.28 255.482L212.529 273.858L208.805 263.619C208.281 262.178 206.769 261.348 205.272 261.681C203.781 262.012 202.763 263.393 202.904 264.914C203.38 270.085 204.212 277.899 204.989 281.398Z" fill="#EFCB96"/>
<path d="M58.2631 444.363L55.9434 481.48H151.055L148.735 444.363H58.2631Z" fill="#3E3D3D"/>
<path d="M151.054 421.968C149.663 414.08 150.475 371.512 151.054 351.214C159.367 356.82 177.268 367.801 182.372 366.873C187.475 365.945 190.684 361.073 191.651 358.754L218.908 303.079C214.269 293.799 205.376 289.16 201.51 288L174.832 321.637C170.966 317.577 160.798 307.834 151.054 301.339C141.311 294.843 124.957 292.06 118.577 291.48C116.838 295.733 111.386 304.238 98.8593 304.238C86.3324 304.238 80.8809 295.733 79.141 291.48C60.5827 296.699 48.4038 300.179 42.0244 308.878C35.645 317.577 32.1652 337.875 28.1056 352.374C24.046 366.873 25.7858 376.732 28.6856 380.212C31.0054 382.995 47.8238 399.93 55.9431 408.049C55.7498 415.395 55.1312 432.059 54.2033 439.946C53.0434 449.805 62.3226 450.385 71.0218 448.645C79.721 446.906 126.117 447.485 140.615 448.645C155.114 449.805 152.794 431.827 151.054 421.968Z" fill="#F15846"/>
<path d="M96.54 415.4C91.4364 411.688 85.521 410.726 83.2012 408.986L90.1605 422.359L96.54 415.4Z" fill="#EFCB96"/>
<path d="M104.696 403.628C106.776 401.193 110.437 400.905 112.872 402.985L138.901 425.22C141.336 427.301 141.624 430.961 139.544 433.397L110.915 466.91C108.835 469.345 105.174 469.633 102.739 467.552L76.7102 445.317C74.2749 443.237 73.9871 439.576 76.0675 437.141L104.696 403.628Z" fill="white"/>
<path d="M119.158 233.262C127.045 255.996 119.737 268.252 115.098 271.539L82.6209 275.598L76.2415 271.539L68.7021 257.04L79.7211 233.262C89.5802 223.79 111.27 210.528 119.158 233.262Z" fill="#EFCB96"/>
<path d="M81.3331 276.909C75.3792 275.34 66.2054 269.526 65.8026 257.04C65.2227 239.062 66.9625 224.563 79.1414 223.403C79.7213 218.957 83.085 209.832 91.9002 208.904C102.919 207.745 116.838 208.904 123.797 205.425C130.757 201.945 132.497 205.425 134.816 207.745C137.136 210.064 138.876 230.942 117.998 233.262C112.97 233.821 109.018 233.942 105.819 233.869C100.986 233.86 91.0883 235.35 90.1604 241.381C89.0005 248.921 90.1604 256.46 87.8406 256.46C85.5208 256.46 87.2607 252.4 82.6211 248.921C80.108 248.727 75.0818 249.965 75.0818 256.46C75.0818 260.61 77.6066 262.613 80.0855 263.469C82.0016 264.13 83.781 265.73 83.781 267.757V274.847C83.781 276.193 82.6349 277.252 81.3331 276.909Z" fill="#3E3D3D"/>
<path d="M81.4611 407.246C79.6052 410.494 75.275 415.172 73.3418 417.105C76.2415 419.425 75.6616 422.325 78.5613 428.124C81.4611 433.924 89.5803 436.244 94.7998 437.404C98.9755 438.331 100.406 437.404 100.599 436.824C102.455 436.824 102.919 435.277 102.919 434.504C104.659 434.504 105.432 432.184 104.079 431.024C106.863 430.096 105.239 428.318 104.079 427.544C97.1196 426.965 93.6399 423.485 91.3202 418.265C89.4643 414.09 83.9742 409.179 81.4611 407.246Z" fill="#EFCB96"/>
<path fill-rule="evenodd" clip-rule="evenodd" d="M151.634 337.073V350.991H150.474V337.073H151.634ZM56.5511 365.806L58.8469 347.44L59.9979 347.584L57.7021 365.95C57.3351 368.886 58.1641 371.846 60.0026 374.164L83.9041 404.301L81.9577 407.545L80.9631 406.948L82.4964 404.392L59.0938 374.885C57.0618 372.323 56.1455 369.051 56.5511 365.806Z" fill="#3E3D3D"/>
<path fill-rule="evenodd" clip-rule="evenodd" d="M376.654 112.053H175.992V106.254H376.654V112.053Z" fill="#F1F1F1"/>
<path d="M351.136 211.224C351.136 232.043 334.259 248.921 313.44 248.921C292.62 248.921 275.743 232.043 275.743 211.224C275.743 190.405 292.62 173.528 313.44 173.528C334.259 173.528 351.136 190.405 351.136 211.224Z" fill="#F15846"/>
<path fill-rule="evenodd" clip-rule="evenodd" d="M314.02 185.127C315.942 185.127 317.5 186.684 317.5 188.606V190.221C323.938 190.413 329.099 195.692 329.099 202.177H322.139C322.139 199.414 319.9 197.175 317.137 197.175H311.468C308.393 197.175 305.901 199.668 305.901 202.742C305.901 205.817 308.393 208.31 311.468 208.31H317.137C323.743 208.31 329.099 213.665 329.099 220.271C329.099 226.756 323.938 232.036 317.5 232.227V233.842C317.5 235.764 315.942 237.322 314.02 237.322C312.098 237.322 310.54 235.764 310.54 233.842V232.233H309.772C303.79 232.233 298.941 227.384 298.941 221.402H305.901C305.901 223.54 307.634 225.273 309.772 225.273H317.137C319.9 225.273 322.139 223.034 322.139 220.271C322.139 217.509 319.9 215.269 317.137 215.269H311.468C304.55 215.269 298.941 209.661 298.941 202.742C298.941 196.136 304.055 190.724 310.54 190.249V188.606C310.54 186.684 312.098 185.127 314.02 185.127Z" fill="white"/>
<path fill-rule="evenodd" clip-rule="evenodd" d="M461.159 52.4083C462.35 50.4325 464.917 49.7964 466.893 50.9875L478.614 58.0534C480.59 59.2445 481.226 61.8118 480.035 63.7875C479.059 65.406 479.309 67.4646 480.511 68.9223C483.882 73.0075 486.415 77.6503 488.044 82.5778C488.638 84.3742 490.25 85.6825 492.142 85.7183C494.452 85.762 496.29 87.6706 496.246 89.9813L495.988 103.655C495.944 105.963 494.038 107.798 491.73 107.755C489.841 107.719 488.184 108.963 487.521 110.732C486.618 113.141 485.482 115.502 484.106 117.785C482.73 120.068 481.172 122.175 479.463 124.098C478.208 125.51 477.882 127.556 478.796 129.21C479.912 131.23 479.179 133.773 477.158 134.889L465.187 141.502C463.164 142.619 460.618 141.885 459.501 139.862C458.586 138.206 456.676 137.392 454.81 137.705C449.692 138.565 444.404 138.492 439.218 137.419C437.367 137.037 435.43 137.777 434.454 139.395C433.263 141.371 430.696 142.007 428.72 140.816L416.999 133.75C415.024 132.559 414.388 129.992 415.579 128.016C416.554 126.397 416.304 124.339 415.102 122.881C411.732 118.796 409.198 114.153 407.569 109.226C406.975 107.429 405.363 106.121 403.471 106.085C401.161 106.041 399.323 104.133 399.367 101.822L399.625 88.1484C399.669 85.8405 401.575 84.0049 403.883 84.0486C405.772 84.0843 407.43 82.8406 408.092 81.0717C408.995 78.6625 410.131 76.3016 411.507 74.0185C412.884 71.7355 414.441 69.6287 416.15 67.7055C417.405 66.2936 417.731 64.2471 416.818 62.5937C415.701 60.5731 416.435 58.0303 418.455 56.9142L430.426 50.3014C432.449 49.1839 434.995 49.9179 436.112 51.9409C437.027 53.5971 438.937 54.4118 440.803 54.0983C445.921 53.2384 451.209 53.3111 456.395 54.3839C458.246 54.7668 460.183 54.0267 461.159 52.4083ZM468.335 108.277C461.5 119.614 446.769 123.264 435.431 116.43C424.094 109.595 420.444 94.8636 427.278 83.5263C434.113 72.1889 448.845 68.5388 460.182 75.3736C471.519 82.2083 475.169 96.9397 468.335 108.277Z" fill="#F15846"/>
</g>
<defs>
<clipPath id="clip0_102_2826">
<rect width="512" height="512" fill="white"/>
</clipPath>
</defs>
</svg>
