<svg width="512" height="512" viewBox="0 0 512 512" fill="none" xmlns="http://www.w3.org/2000/svg">
<g clip-path="url(#clip0_102_2868)">
<path d="M229.131 373.308C229.131 400.847 63.6426 400.847 63.6426 373.308C63.6426 328.035 100.688 291.334 146.387 291.334C192.085 291.334 229.131 328.035 229.131 373.308Z" fill="#F1F1F1"/>
<path d="M464.534 373.308C464.534 400.847 299.046 400.847 299.046 373.308C299.046 328.035 336.092 291.334 381.79 291.334C427.488 291.334 464.534 328.035 464.534 373.308Z" fill="#F1F1F1"/>
<path d="M48.248 374.72H478.004L469.024 393.962H59.1523L48.248 374.72Z" fill="#F1F1F1"/>
<path d="M68.7744 393.962H458.762V479.914H68.7744V393.962Z" fill="white"/>
<path fill-rule="evenodd" clip-rule="evenodd" d="M67.4912 393.962C67.4912 393.254 68.0656 392.68 68.7741 392.68H458.762C459.47 392.68 460.044 393.254 460.044 393.962V479.914C460.044 480.622 459.47 481.196 458.762 481.196H68.7741C68.0656 481.196 67.4912 480.622 67.4912 479.914V393.962ZM70.0569 395.245V478.631H457.479V395.245H70.0569Z" fill="#3E3D3D"/>
<path d="M89.2998 418.337H120.088V469.651H89.2998V418.337Z" fill="#F1F1F1"/>
<path d="M359.981 418.337H390.77V469.651H359.981V418.337Z" fill="#F1F1F1"/>
<path d="M135.482 418.337H166.271V469.651H135.482V418.337Z" fill="#F1F1F1"/>
<path d="M406.165 418.337H436.954V469.651H406.165V418.337Z" fill="#F1F1F1"/>
<path d="M151.518 45.6677C125.647 45.4539 73.6484 45.1545 72.6221 45.6677C67.4907 32.1977 77.1121 20.6521 90.582 20.6521C101.358 20.6521 106.19 27.4939 107.259 30.9149C107.901 28.9906 111.108 25.1421 118.805 25.1421C126.502 25.1421 130.137 32.8392 130.992 36.6877C131.633 35.1911 134.712 32.4543 141.896 33.4806C149.08 34.5069 151.304 42.0329 151.518 45.6677Z" fill="#F1F1F1"/>
<path d="M383.714 45.6677H291.349C288.783 41.8191 293.914 30.9149 302.253 30.9149C308.924 30.9149 314.44 33.053 316.364 34.122C316.364 30.0597 318.93 21.9349 329.193 21.9349C339.456 21.9349 343.304 27.9216 343.946 30.9149C344.373 26.2111 348.949 16.8035 363.83 16.8035C384.869 16.8035 385.852 36.0463 383.714 45.6677Z" fill="#F1F1F1"/>
<path d="M274.672 82.8705H173.968C161.14 67.4762 176.534 51.4405 189.363 51.4405C199.626 51.4405 206.895 56.1443 209.247 58.4962C209.675 55.7167 213.865 50.1577 227.207 50.1577C240.549 50.1577 246.45 62.9862 247.733 69.4005C247.519 68.3315 249.785 66.1934 260.561 66.1934C271.337 66.1934 274.459 77.3114 274.672 82.8705Z" fill="#F15846"/>
<path d="M20.0254 296.466C26.3361 286.54 30.6922 281.878 41.1925 276.581L47.6067 283.637C36.8749 288.719 32.6992 292.799 28.3639 302.238L20.0254 296.466Z" fill="#F15846"/>
<path d="M467.1 186.14L466.458 177.802C474.862 174.186 479.536 174.4 487.626 179.726V188.065C479.741 183.882 475.227 183.408 467.1 186.14Z" fill="#F15846"/>
<path d="M55.3045 424.109L48.2488 417.054C39.0558 424.946 37.2164 430.699 36.7031 442.069L47.6074 443.352C47.457 435.027 49.1987 430.836 55.3045 424.109Z" fill="#F1F1F1"/>
<path d="M272.748 132.902C275.85 123.664 275.702 118.919 272.748 111.093L283.011 109.81C286.509 119.579 286.393 125.057 283.011 134.826L272.748 132.902Z" fill="#F1F1F1"/>
<path d="M466.459 241.303L459.403 249.641C471.404 254.019 475.051 259.324 478.005 272.091L487.626 267.601C485.137 252.332 480.831 246.304 466.459 241.303Z" fill="#F1F1F1"/>
<path d="M41.8338 159.842L41.1924 151.503C51.0725 149.87 55.9095 151.238 63.0009 157.917L57.2281 164.973C52.8422 159.681 49.4645 158.572 41.8338 159.842Z" fill="#F15846"/>
<path d="M408.73 328.537L402.316 336.876C411.644 340.7 414.402 344.625 415.786 354.194L424.766 350.345C423.825 338.488 420.853 333.369 408.73 328.537Z" fill="#F15846"/>
<path d="M183.59 252.207C190.774 239.379 191.287 215.646 190.645 205.383L209.888 200.252C223.572 196.831 251.196 189.861 252.223 189.347C253.505 188.706 274.672 195.12 274.031 208.59C273.39 222.06 276.597 235.53 283.652 249.641C289.297 260.931 286.004 273.16 283.652 277.864C280.445 281.285 273.646 288.384 272.107 289.41C270.567 290.436 247.946 304.377 236.828 311.218L177.175 282.354C176.32 277.65 176.406 265.036 183.59 252.207Z" fill="#3E3D3D"/>
<path d="M319.572 181.009L270.824 210.514L256.712 220.777L196.418 214.363L147.028 184.216L229.772 141.24L319.572 181.009Z" fill="#3E3D3D"/>
<path d="M403.599 117.507C400.007 126.231 402.103 140.813 403.599 147.013L414.504 161.124L375.377 147.013L364.472 121.997C361.693 116.652 357.032 103.011 360.624 91.209C365.114 76.4561 389.488 70.0419 402.316 81.5876C415.145 93.1332 408.089 106.603 403.599 117.507Z" fill="#EFCB96"/>
<path d="M312.517 99.884L447.51 83.5119L450.247 106.082L315.254 122.454L312.517 99.884Z" fill="#3E3D3D"/>
<path d="M363.19 128.412C365.755 133.543 366.397 144.661 366.397 149.579L376.66 152.145L383.074 145.73C382.86 138.675 379.995 122.896 370.245 116.225C358.058 107.886 361.907 102.113 363.19 95.0576C364.216 89.413 358.914 86.2914 356.134 85.4362C353.141 90.9952 347.411 103.909 348.437 111.093C349.72 120.073 359.983 121.998 363.19 128.412Z" fill="#EFCB96"/>
<path d="M133.559 152.145C130.993 154.71 129.924 163.476 129.711 167.539L116.241 169.463C105.55 172.456 85.1955 176.006 89.3006 166.256C94.432 154.069 89.3006 137.392 89.3006 130.336C89.3006 123.28 93.1492 102.755 96.9977 97.6232C100.077 93.518 103.84 95.9127 105.336 97.6232C105.55 96.3404 107.004 93.005 111.109 89.9261C115.214 86.8473 118.379 91.209 119.448 93.7747C121.372 89.9261 126.503 86.719 129.711 89.9261C132.276 92.4918 132.49 96.1266 132.276 97.6232C133.773 96.9818 137.279 96.0838 139.332 97.6232C141.898 99.5475 141.256 110.452 138.049 118.149C134.842 125.846 133.559 133.543 136.766 132.902C139.973 132.26 145.746 124.563 148.312 125.205C150.878 125.846 152.16 129.695 148.312 137.392C144.463 145.089 136.766 148.937 133.559 152.145Z" fill="#EFCB96"/>
<path d="M163.064 347.138C168.196 375.361 165.203 447.842 163.064 480.555L342.022 479.272C329.707 445.918 324.062 371.726 322.78 338.8C336.677 331.958 371.015 311.347 397.185 283.637C429.898 249 438.878 213.08 444.009 191.272C449.141 169.463 454.914 164.332 436.954 152.786C418.994 141.24 386.281 145.089 368.962 148.296C351.644 151.503 359.982 166.256 355.492 188.706C351.002 211.156 343.305 220.777 332.401 238.737C321.497 256.697 302.254 272.733 291.991 275.298C283.781 277.351 265.051 277.437 256.713 277.223L238.753 315.067L213.096 280.43C203.346 286.588 186.797 285.134 179.741 283.637C130.993 264.138 131.634 201.534 138.049 172.67C116.497 155.223 75.6166 168.822 57.8705 177.802C56.5876 189.775 58.6402 225.524 77.1133 272.733C95.5864 319.942 142.111 342.007 163.064 347.138Z" fill="#F15846"/>
<path d="M215.02 259.904V282.354L213.096 284.278L227.207 309.294L238.753 322.123L247.091 309.294C251.581 296.466 256.841 283.637 254.788 281.071C252.736 278.506 251.795 265.891 251.581 259.904C270.054 249.128 272.107 215.646 270.824 200.252H197.701L196.419 222.06C195.392 245.151 208.392 256.911 215.02 259.904Z" fill="#EFCB96"/>
<path fill-rule="evenodd" clip-rule="evenodd" d="M202.962 284.114L202.833 284.92L243.884 376.644L271.466 277.864L271.232 277.209C265.59 277.35 260.228 277.313 256.713 277.223L238.753 315.067L213.096 280.43C210.181 282.271 206.657 283.432 202.962 284.114Z" fill="#3E3D3D"/>
<path fill-rule="evenodd" clip-rule="evenodd" d="M321.496 338.8V317.633H324.062V338.8H321.496ZM161.791 348.58L158.584 322.923L161.13 322.605L164.337 348.262L161.791 348.58Z" fill="#3E3D3D"/>
<path fill-rule="evenodd" clip-rule="evenodd" d="M446.916 180.198C450.492 167.206 451.394 162.069 436.954 152.786C418.994 141.24 386.281 145.089 368.962 148.296C357.366 150.444 357.273 157.768 357.13 169.114C357.121 169.831 357.111 170.564 357.099 171.314C399.207 161.773 434.284 173.146 446.916 180.198ZM58.1227 196.551C57.3891 188.078 57.4542 181.688 57.8705 177.802C75.6166 168.822 116.497 155.223 138.049 172.67C136.991 177.432 136.089 183.112 135.541 189.366C135.522 189.36 135.502 189.353 135.483 189.347C104.695 179.598 71.3403 189.989 58.5118 196.403L58.1227 196.551Z" fill="#3E3D3D"/>
<path d="M233.01 214.363C214.424 214.363 199.589 210.087 194.494 207.949V184.216C201.015 181.436 218.093 175.877 234.233 175.877C250.372 175.877 266.635 181.436 272.748 184.216V205.383C267.246 208.376 251.595 214.363 233.01 214.363Z" fill="#3E3D3D"/>
<path d="M245.809 213.08C251.967 220.264 264.624 223.771 270.183 224.626L272.107 219.494V203.459L260.562 197.044C253.078 199.396 239.651 205.896 245.809 213.08Z" fill="#3E3D3D"/>
<path fill-rule="evenodd" clip-rule="evenodd" d="M260.177 195.821C260.513 195.715 260.877 195.752 261.185 195.923L272.73 202.337C273.138 202.564 273.39 202.993 273.39 203.459V219.494C273.39 219.648 273.363 219.801 273.309 219.945L271.384 225.076C271.171 225.645 270.588 225.986 269.988 225.894C267.117 225.452 262.465 224.336 257.738 222.415C253.03 220.501 248.107 217.733 244.835 213.915C243.047 211.829 242.582 209.627 243.238 207.497C243.859 205.48 245.427 203.721 247.269 202.248C250.97 199.288 256.37 197.017 260.177 195.821ZM245.69 208.252C245.326 209.435 245.492 210.739 246.783 212.245C249.668 215.611 254.153 218.188 258.704 220.038C262.698 221.662 266.636 222.682 269.354 223.184L270.825 219.262V204.214L260.425 198.436C256.804 199.625 252.059 201.702 248.871 204.252C247.191 205.596 246.089 206.956 245.69 208.252Z" fill="#3E3D3D"/>
<path fill-rule="evenodd" clip-rule="evenodd" d="M276.946 156.987C272.869 156.977 269.073 158.081 266.865 159.085C266.22 159.378 265.459 159.093 265.166 158.448C264.873 157.803 265.158 157.043 265.803 156.75C268.298 155.615 272.457 154.41 276.953 154.422C281.463 154.433 286.43 155.673 290.332 159.576C295.096 164.339 296.443 169.298 297.343 174.287C297.487 175.087 297.62 175.883 297.752 176.678C298.448 180.858 299.138 184.996 301.463 189.389C303.122 192.521 306.333 196.592 310.154 200.847L331.827 215.218C332.417 215.61 332.579 216.406 332.187 216.996C331.796 217.587 331 217.748 330.409 217.356L318.212 209.269C322.221 213.244 326.07 216.801 328.76 219.174C329.291 219.643 329.342 220.453 328.873 220.985C328.404 221.516 327.593 221.567 327.062 221.098C324.153 218.531 319.904 214.597 315.546 210.234L322.613 222.711C322.962 223.327 322.745 224.11 322.129 224.459C321.512 224.808 320.73 224.592 320.38 223.975L308.262 202.58C304.413 198.296 301.013 194.022 299.196 190.589C296.659 185.798 295.899 181.207 295.206 177.019C295.078 176.246 294.952 175.487 294.818 174.742C293.953 169.949 292.735 165.607 288.518 161.39C285.237 158.109 281.01 156.997 276.946 156.987Z" fill="#3E3D3D"/>
<path d="M208.606 211.797C206.553 218.981 199.626 226.336 196.419 229.116L192.57 224.626L196.419 198.327C201.336 199.824 210.659 204.613 208.606 211.797Z" fill="#3E3D3D"/>
<path fill-rule="evenodd" clip-rule="evenodd" d="M195.732 197.244C196.047 197.044 196.435 196.991 196.792 197.1C199.358 197.881 203.093 199.521 205.956 201.952C208.815 204.379 211.067 207.852 209.839 212.15C208.748 215.968 206.392 219.753 203.959 222.894C201.516 226.047 198.924 228.642 197.259 230.085C197.001 230.309 196.664 230.42 196.324 230.395C195.983 230.37 195.667 230.21 195.445 229.951L191.596 225.461C191.355 225.179 191.247 224.807 191.301 224.44L195.149 198.142C195.203 197.772 195.416 197.444 195.732 197.244ZM197.465 200.039L193.924 224.234L196.535 227.281C198.042 225.866 200.032 223.773 201.931 221.323C204.276 218.295 206.41 214.811 207.372 211.445C208.197 208.558 206.814 206.045 204.296 203.908C202.253 202.174 199.636 200.856 197.465 200.039Z" fill="#3E3D3D"/>
<path d="M388.206 104.038C406.679 103.524 406.593 90.5676 404.241 84.1533C392.054 70.6834 373.453 76.4562 367.68 80.9462C361.907 85.4362 362.549 89.2847 362.549 95.0576C362.549 100.83 365.114 104.679 388.206 104.038Z" fill="#EFCB96"/>
<path fill-rule="evenodd" clip-rule="evenodd" d="M-0.5 479.914C-0.5 479.205 0.0743531 478.631 0.782854 478.631H510.717C511.426 478.631 512 479.205 512 479.914C512 480.622 511.426 481.197 510.717 481.197H0.782854C0.0743531 481.197 -0.5 480.622 -0.5 479.914Z" fill="#3E3D3D"/>
</g>
<defs>
<clipPath id="clip0_102_2868">
<rect width="512" height="512" fill="white"/>
</clipPath>
</defs>
</svg>
