<svg width="512" height="512" viewBox="0 0 512 512" fill="none" xmlns="http://www.w3.org/2000/svg">
<g clip-path="url(#clip0_102_2941)">
<path d="M129.068 343.446H179.1V465.317H129.068V343.446Z" fill="#F1F1F1"/>
<path d="M91.8655 150.376C88.2735 163.718 94.2174 172.185 97.6384 174.75C107.474 179.882 128.683 188.862 134.841 183.73C142.538 177.316 142.538 165.77 141.255 152.3C140.229 141.524 132.275 140.113 128.427 140.755C127.358 139.472 124.322 136.778 120.73 136.265C116.24 135.623 108.543 138.83 102.77 135.623C96.997 132.416 95.7141 127.285 91.2241 132.416C87.6321 136.521 90.1551 146.1 91.8655 150.376Z" fill="#3E3D3D"/>
<path d="M135.482 186.938C135.995 190.53 137.834 199.125 138.689 202.973C139.331 207.036 140.485 215.417 139.972 216.443C139.331 217.726 121.371 214.519 120.73 213.877C120.216 213.364 118.378 208.532 117.522 206.18L114.957 193.352C111.322 194.421 102.898 193.737 98.2796 182.447C92.5067 168.336 96.9967 159.997 98.2796 156.149C99.5624 152.3 107.259 151.659 114.956 151.018L114.957 151.018C122.654 150.376 122.012 158.073 123.937 162.563C125.861 167.053 125.219 170.26 126.502 168.336C127.785 166.412 128.427 161.28 132.275 164.488C136.124 167.695 133.558 172.185 133.558 174.75C133.558 176.803 134.841 183.73 135.482 186.938Z" fill="#EFCB96"/>
<path d="M70.422 213.729L58.2036 245.942C57.676 247.333 56.0801 247.985 54.7295 247.361L42.7147 241.816C41.4946 241.253 40.9157 239.844 41.3875 238.586L53.1234 207.29C53.6195 205.967 55.0919 205.294 56.4168 205.785L68.9142 210.414C70.2504 210.908 70.9274 212.397 70.422 213.729Z" fill="#3E3D3D"/>
<path d="M68.1323 231.837C68.1323 233.377 71.9809 238.465 73.9052 240.817L70.698 246.59L66.208 249.156C65.3528 248.301 63.2575 246.462 61.7181 245.949C60.1786 245.436 59.3662 244.024 59.1523 243.383L63.0009 233.12C62.7871 231.196 62.3595 226.578 62.3595 223.499C62.3595 220.42 64.0699 219.65 64.9252 219.65C67.4909 222.857 68.1323 229.913 68.1323 231.837Z" fill="#EFCB96"/>
<path d="M351.002 180.523H386.922V292.131H351.002V180.523Z" fill="#F1F1F1"/>
<path d="M369.011 334.512C395.451 341.847 407.349 368.132 409.993 380.358C406.468 378.611 395.715 374.856 380.909 373.808C362.401 372.499 345.214 362.02 341.248 352.85C338.075 345.515 328.469 334.949 324.062 330.582C328.028 328.836 342.57 327.177 369.011 334.512Z" fill="#F1F1F1"/>
<path d="M420.57 266.399C437.491 293.644 427.62 327.526 420.57 341.062C420.57 338.878 416.868 331.368 402.061 318.794C383.553 303.075 380.909 280.807 376.943 262.469C373.77 247.798 364.163 233.652 359.757 228.412C372.977 229.722 403.648 239.153 420.57 266.399Z" fill="#F1F1F1"/>
<path d="M453.62 320.103C436.698 327.439 429.824 352.85 428.502 364.639C454.394 367.259 464.196 352.85 468.163 341.062C471.335 331.63 488.874 326.653 497.247 325.343C489.756 320.54 470.542 312.768 453.62 320.103Z" fill="#F1F1F1"/>
<path fill-rule="evenodd" clip-rule="evenodd" d="M377.53 240.731C382.38 245.853 391.329 257.462 399.962 273.618C404.195 281.539 408.346 290.543 411.899 300.401L386.861 291.921L386.038 294.352L412.977 303.475C413.505 305.021 414.018 306.588 414.513 308.173C419.774 325.019 420.888 345.942 420.114 365.324C419.754 374.332 418.987 382.984 418.048 390.705C417.601 392.354 417.202 393.966 416.847 395.534C415.256 387.4 411.38 378.306 403.298 370.796C400.238 367.952 397.211 365.601 394.224 363.596L390.353 348.765L387.871 349.413L391.045 361.578C385.657 358.341 380.406 356.077 375.416 353.925C373.919 353.28 372.446 352.644 370.999 351.996C364.474 349.071 358.4 345.849 352.744 340.189L350.929 342.002C356.071 347.147 361.525 350.364 367.164 353.052L352.712 358.547L353.624 360.945L370.435 354.554C371.781 355.153 373.133 355.736 374.491 356.322C380.309 358.832 386.248 361.394 392.398 365.463C395.406 367.453 398.459 369.802 401.552 372.676C412.109 382.485 415.058 395.212 415.215 404.375C414.757 407.635 414.518 410.547 414.455 413.001L416.99 413.312C417.026 413.147 417.062 412.977 417.097 412.803C418.255 407.271 419.52 399.81 420.572 391.198C423.789 379.388 429.485 365.621 438.848 352.915L458.586 349.015L458.089 346.498L441.209 349.833C445.226 344.791 449.852 339.964 455.164 335.546C456.846 334.147 458.596 332.79 460.418 331.479L458.92 329.397C458.056 330.018 457.208 330.649 456.376 331.29L458.259 322.72L455.753 322.169L453.185 333.856C446.914 339.12 441.587 344.935 437.083 350.987C430.262 360.153 425.318 369.872 421.825 379.067C422.196 374.667 422.491 370.094 422.677 365.426C423.456 345.93 422.351 324.666 416.962 307.408C416.396 305.595 415.807 303.806 415.199 302.044C411.47 291.235 407.002 281.393 402.434 272.801L406.35 250.73L403.824 250.282L400.469 269.19C392.304 254.532 384.087 243.924 379.393 238.967L377.53 240.731Z" fill="white"/>
<path d="M452.522 401.077C452.845 398.762 451.048 396.696 448.71 396.696H383.935C381.633 396.696 379.846 398.703 380.112 400.99L387.207 461.913C387.433 463.853 389.077 465.316 391.03 465.316H440.196C442.116 465.316 443.742 463.902 444.008 462L452.522 401.077Z" fill="#F1F1F1"/>
<path d="M140.614 193.352L164.347 186.937L161.781 336.39C144.847 319.969 126.93 282.082 120.088 265.191C118.378 267.971 114.7 274.3 113.674 277.379C112.391 281.227 105.335 288.924 96.9969 285.076C90.3261 281.997 72.4089 261.984 64.2842 252.363C66.3367 246.205 72.4089 239.962 75.1884 237.61C77.241 240.176 88.4446 249.37 93.7898 253.646C94.645 245.307 96.8687 227.091 98.9212 220.933C100.974 214.775 110.467 205.966 114.957 202.332C115.171 204.47 118.036 208.618 127.785 208.105C137.535 207.591 140.4 198.055 140.614 193.352Z" fill="#F15846"/>
<path fill-rule="evenodd" clip-rule="evenodd" d="M-0.5 465.317C-0.5 464.608 0.0743531 464.034 0.782854 464.034H510.717C511.426 464.034 512 464.608 512 465.317C512 466.025 511.426 466.599 510.717 466.599H0.782854C0.0743531 466.599 -0.5 466.025 -0.5 465.317Z" fill="#3E3D3D"/>
<path d="M159.856 130.492C159.856 120.573 167.897 112.532 177.816 112.532H333.042C342.961 112.532 351.002 120.573 351.002 130.492V447.357C351.002 457.276 342.961 465.317 333.042 465.317H177.816C167.897 465.317 159.856 457.276 159.856 447.357V130.492Z" fill="#F1F1F1"/>
<path fill-rule="evenodd" clip-rule="evenodd" d="M158.574 130.492C158.574 119.864 167.19 111.249 177.817 111.249H333.042C343.67 111.249 352.285 119.864 352.285 130.492V447.357C352.285 457.984 343.67 466.599 333.042 466.599H177.817C167.19 466.599 158.574 457.984 158.574 447.357V130.492ZM177.817 113.815C168.607 113.815 161.14 121.281 161.14 130.492V447.357C161.14 456.567 168.607 464.034 177.817 464.034H333.042C342.253 464.034 349.719 456.567 349.719 447.357V130.492C349.719 121.281 342.253 113.815 333.042 113.815H177.817Z" fill="#3E3D3D"/>
<path d="M166.271 131.775C166.271 124.69 172.014 118.946 179.099 118.946H331.759C338.844 118.946 344.587 124.69 344.587 131.775V437.094C344.587 444.179 338.844 449.922 331.759 449.922H179.099C172.014 449.922 166.271 444.179 166.271 437.094V131.775Z" fill="white"/>
<path d="M217.585 118.946H297.122L294.696 125.794C293.426 129.379 290.035 131.775 286.231 131.775H228.475C224.672 131.775 221.281 129.379 220.011 125.794L217.585 118.946Z" fill="#F1F1F1"/>
<path d="M166.271 166.412H344.587V239.534H166.271V166.412Z" fill="#F1F1F1"/>
<path d="M209.888 202.973C209.888 211.829 202.708 219.009 193.852 219.009C184.996 219.009 177.816 211.829 177.816 202.973C177.816 194.117 184.996 186.937 193.852 186.937C202.708 186.937 209.888 194.117 209.888 202.973Z" fill="#F15846"/>
<path d="M256.07 202.973C256.07 211.829 248.891 219.009 240.035 219.009C231.178 219.009 223.999 211.829 223.999 202.973C223.999 194.117 231.178 186.937 240.035 186.937C248.891 186.937 256.07 194.117 256.07 202.973Z" fill="white"/>
<path d="M302.253 202.973C302.253 211.829 295.074 219.009 286.217 219.009C277.361 219.009 270.182 211.829 270.182 202.973C270.182 194.117 277.361 186.937 286.217 186.937C295.074 186.937 302.253 194.117 302.253 202.973Z" fill="white"/>
<path d="M316.365 202.973C316.365 211.829 323.545 219.009 332.401 219.009C337.353 219.009 341.781 216.764 344.723 213.236V192.71C341.781 189.182 337.353 186.937 332.401 186.937C323.545 186.937 316.365 194.117 316.365 202.973Z" fill="white"/>
<path fill-rule="evenodd" clip-rule="evenodd" d="M238.111 152.942H185.514V149.093H238.111V152.942Z" fill="#F15846"/>
<path d="M166.271 410.154H344.587V437.094C344.587 444.179 338.844 449.922 331.759 449.922H179.099C172.014 449.922 166.271 444.179 166.271 437.094V410.154Z" fill="#F1F1F1"/>
<path d="M315.082 419.257L329.193 419.134L329.382 440.942L322.277 435.23L315.272 441.064L315.082 419.257Z" fill="white"/>
<path fill-rule="evenodd" clip-rule="evenodd" d="M179.984 431.805C177.37 429.108 177.437 424.802 180.133 422.188C182.83 419.573 187.136 419.64 189.751 422.336C192.447 419.722 196.753 419.789 199.367 422.486C201.982 425.182 201.915 429.488 199.219 432.103L199.219 432.103L189.453 441.571L189.453 441.571L189.452 441.571L179.984 431.805L179.984 431.805Z" fill="#F15846"/>
<path fill-rule="evenodd" clip-rule="evenodd" d="M90.5821 351.784C93.0619 351.784 95.0721 353.794 95.0721 356.274V359.752C104.373 360.291 111.749 368.005 111.749 377.441H102.769C102.769 372.615 98.8565 368.702 94.0298 368.702H88.0164C82.7027 368.702 78.395 373.009 78.395 378.323C78.395 383.637 82.7027 387.945 88.0164 387.945H94.0298C103.816 387.945 111.749 395.878 111.749 405.664C111.749 415.1 104.373 422.814 95.0721 423.353V426.831C95.0721 429.311 93.0619 431.321 90.5821 431.321C88.1024 431.321 86.0921 429.311 86.0921 426.831V423.383H85.3705C76.5586 423.383 69.415 416.24 69.415 407.428H78.395C78.395 411.28 81.5181 414.403 85.3705 414.403H94.0298C98.8565 414.403 102.769 410.491 102.769 405.664C102.769 400.837 98.8565 396.925 94.0298 396.925H88.0164C77.7432 396.925 69.415 388.596 69.415 378.323C69.415 368.7 76.723 360.783 86.0921 359.82V356.274C86.0921 353.794 88.1024 351.784 90.5821 351.784Z" fill="#F15846"/>
<path fill-rule="evenodd" clip-rule="evenodd" d="M386.921 107.4C388.338 107.4 389.487 108.549 389.487 109.966V112.166C395.177 112.294 399.75 116.946 399.75 122.666H394.618C394.618 119.7 392.213 117.295 389.246 117.295H385.125C381.866 117.295 379.224 119.937 379.224 123.196C379.224 126.455 381.866 129.097 385.125 129.097H389.246C395.047 129.097 399.75 133.799 399.75 139.6C399.75 145.321 395.177 149.973 389.487 150.101V152.3C389.487 153.717 388.338 154.866 386.921 154.866C385.504 154.866 384.356 153.717 384.356 152.3V150.103H383.538C378.321 150.103 374.093 145.875 374.093 140.658H379.224C379.224 143.041 381.155 144.972 383.538 144.972H389.246C392.213 144.972 394.618 142.567 394.618 139.6C394.618 136.633 392.213 134.228 389.246 134.228H385.125C379.032 134.228 374.093 129.289 374.093 123.196C374.093 117.361 378.622 112.585 384.356 112.19V109.966C384.356 108.549 385.504 107.4 386.921 107.4Z" fill="#F1F1F1"/>
<path fill-rule="evenodd" clip-rule="evenodd" d="M184.872 251.08C185.581 251.08 186.155 251.654 186.155 252.363V253.389H186.796C189.63 253.389 191.928 255.687 191.928 258.521H189.362C189.362 257.104 188.213 255.955 186.796 255.955H183.204C181.646 255.955 180.382 257.219 180.382 258.777C180.382 260.336 181.646 261.599 183.204 261.599H186.796C189.63 261.599 191.928 263.897 191.928 266.731C191.928 269.565 189.63 271.862 186.796 271.862H186.155V272.889C186.155 273.597 185.581 274.171 184.872 274.171C184.164 274.171 183.589 273.597 183.589 272.889V271.862H182.435C179.884 271.862 177.816 269.795 177.816 267.244H180.382C180.382 268.378 181.301 269.297 182.435 269.297H186.796C188.213 269.297 189.362 268.148 189.362 266.731C189.362 265.314 188.213 264.165 186.796 264.165H183.204C180.229 264.165 177.816 261.753 177.816 258.777C177.816 255.802 180.229 253.389 183.204 253.389H183.589V252.363C183.589 251.654 184.164 251.08 184.872 251.08Z" fill="#3E3D3D"/>
<path d="M270.587 268.764C256.543 266.941 241.572 268.004 236.606 268.763V284.012L243.522 291.417L275.441 281.733L270.587 268.764Z" fill="#3E3D3D"/>
<path d="M213.282 278.647L236.96 268.764C238.034 273.023 242.974 281.541 254.144 281.541C265.314 281.541 269.181 273.023 269.718 268.764L299.615 278.783C304.724 280.495 308.566 284.754 309.745 290.012L317.512 324.663L296.032 327.857V389.176C296.032 390.593 294.883 391.741 293.466 391.741H217.508C216.091 391.741 214.942 390.593 214.942 389.176V327.857L194.535 324.663L204.365 288.786C205.617 284.213 208.907 280.473 213.282 278.647Z" fill="#F15846"/>
</g>
<defs>
<clipPath id="clip0_102_2941">
<rect width="512" height="512" fill="white"/>
</clipPath>
</defs>
</svg>
