<svg width="512" height="512" viewBox="0 0 512 512" fill="none" xmlns="http://www.w3.org/2000/svg">
<g clip-path="url(#clip0_102_2975)">
<path d="M259.919 429.578H362.547V460.367H259.919V429.578Z" fill="#F1F1F1"/>
<path fill-rule="evenodd" clip-rule="evenodd" d="M286.859 411.618H225.282V450.021C221.481 451.911 218.868 455.834 218.868 460.367H225.282H286.859H294.557C294.557 455.34 291.344 451.063 286.859 449.478V411.618Z" fill="#3E3D3D"/>
<path fill-rule="evenodd" clip-rule="evenodd" d="M223.999 410.336H288.142V448.606C292.671 450.585 295.839 455.105 295.839 460.367V461.65H217.585V460.367C217.585 455.617 220.167 451.472 223.999 449.255V410.336ZM226.565 412.901V450.816L225.853 451.17C222.835 452.67 220.663 455.608 220.23 459.084H293.194C292.707 455.183 290.031 451.96 286.432 450.688L285.576 450.385V412.901H226.565Z" fill="#3E3D3D"/>
<path fill-rule="evenodd" clip-rule="evenodd" d="M399.75 375.698V405.204C399.75 409.455 396.304 412.901 392.053 412.901H121.371C117.12 412.901 113.674 409.455 113.674 405.204V375.698H399.75Z" fill="#F15846"/>
<path fill-rule="evenodd" clip-rule="evenodd" d="M112.391 374.416H401.033V405.204C401.033 410.164 397.012 414.184 392.053 414.184H121.371C116.411 414.184 112.391 410.164 112.391 405.204V374.416ZM114.956 376.981V405.204C114.956 408.747 117.828 411.618 121.371 411.618H392.053C395.595 411.618 398.467 408.747 398.467 405.204V376.981H114.956Z" fill="#3E3D3D"/>
<path d="M140.613 195.458C140.613 222.026 119.075 243.565 92.5064 243.565C65.9377 243.565 44.3994 222.026 44.3994 195.458C44.3994 168.889 65.9377 147.351 92.5064 147.351C119.075 147.351 140.613 168.889 140.613 195.458Z" fill="#F1F1F1"/>
<path fill-rule="evenodd" clip-rule="evenodd" d="M91.6692 194.965L70.4365 173.919L72.2428 172.097L94.6271 194.285L87.0891 215.767L84.6682 214.917L91.6692 194.965Z" fill="white"/>
<path d="M199.625 166.593H375.376V197.382H199.625V166.593Z" fill="#F1F1F1"/>
<path fill-rule="evenodd" clip-rule="evenodd" d="M121.371 197.382C117.12 197.382 113.674 200.828 113.674 205.079V375.698H399.75V205.079C399.75 200.828 396.304 197.382 392.053 197.382H121.371Z" fill="#F15846"/>
<path fill-rule="evenodd" clip-rule="evenodd" d="M121.371 198.665C117.828 198.665 114.956 201.536 114.956 205.079V374.416H398.467V205.079C398.467 201.536 395.595 198.665 392.053 198.665H121.371ZM112.391 205.079C112.391 200.119 116.411 196.099 121.371 196.099H392.053C397.012 196.099 401.033 200.119 401.033 205.079V376.981H112.391V205.079Z" fill="#3E3D3D"/>
<path d="M125.22 214.059C125.22 211.933 126.943 210.21 129.068 210.21H385.639C387.764 210.21 389.488 211.933 389.488 214.059V362.87C389.488 364.995 387.764 366.718 385.639 366.718H129.068C126.943 366.718 125.22 364.995 125.22 362.87V214.059Z" fill="white"/>
<path fill-rule="evenodd" clip-rule="evenodd" d="M227.848 283.333H150.877V280.767H227.848V283.333ZM216.302 307.707H150.877V305.142H216.302V307.707Z" fill="#F1F1F1"/>
<path d="M271.465 232.019C271.465 229.893 273.188 228.17 275.313 228.17H368.962C371.087 228.17 372.81 229.893 372.81 232.019V346.193C372.81 348.318 371.087 350.041 368.962 350.041H275.313C273.188 350.041 271.465 348.318 271.465 346.193V232.019Z" fill="#F1F1F1"/>
<path fill-rule="evenodd" clip-rule="evenodd" d="M200.908 260.883H150.877V255.752H200.908V260.883Z" fill="#F15846"/>
<path d="M150.877 329.516H203.474V346.193H150.877V329.516Z" fill="#F15846"/>
<path d="M167.554 235.226C167.554 239.831 163.821 243.565 159.216 243.565C154.61 243.565 150.877 239.831 150.877 235.226C150.877 230.621 154.61 226.887 159.216 226.887C163.821 226.887 167.554 230.621 167.554 235.226Z" fill="#F1F1F1"/>
<path d="M86.7344 295.52C86.7344 304.376 79.555 311.556 70.6988 311.556C61.8425 311.556 54.6631 304.376 54.6631 295.52C54.6631 286.664 61.8425 279.484 70.6988 279.484C79.555 279.484 86.7344 286.664 86.7344 295.52Z" fill="#F1F1F1"/>
<path d="M445.933 217.266C445.933 221.871 442.2 225.605 437.594 225.605C432.989 225.605 429.256 221.871 429.256 217.266C429.256 212.661 432.989 208.927 437.594 208.927C442.2 208.927 445.933 212.661 445.933 217.266Z" fill="#F1F1F1"/>
<path d="M436.311 357.739C421.8 375.435 414.075 397.293 412.578 406.487C403.812 390.237 390.385 347.732 406.805 307.707C423.226 267.682 465.817 256.821 485.059 256.393C460.685 267.939 462.61 325.667 436.311 357.739Z" fill="#F1F1F1"/>
<path d="M504.945 384.037C492.629 336.828 457.052 339.992 440.802 347.476L420.276 364.794L413.221 401.997C420.704 401.569 440.802 397.378 461.328 384.037C481.853 370.696 498.958 378.478 504.945 384.037Z" fill="#F1F1F1"/>
<path d="M386.28 365.436C402.701 364.409 409.799 384.678 411.296 394.941L412.579 405.204C404.24 402.638 385.767 395.454 378.583 387.244C371.399 379.034 361.906 378.264 358.058 378.906C360.623 374.843 369.86 366.462 386.28 365.436Z" fill="#F1F1F1"/>
<path fill-rule="evenodd" clip-rule="evenodd" d="M454.221 274.872C455.932 273.247 457.711 271.696 459.56 270.226L457.963 268.218C454.933 270.627 452.091 273.242 449.424 276.033C441.196 284.646 434.647 294.938 429.469 306.033L422.782 284.871L420.335 285.644L427.887 309.543C422.372 322.225 418.545 335.838 415.979 349.157C412.447 367.485 411.292 385.3 411.419 399.446C409.422 394.618 406.563 389.509 402.741 385.119C397.861 379.514 391.362 375.029 383.057 373.886L376.318 366.598L374.434 368.34L379.304 373.606C375.406 373.555 371.182 374.22 366.625 375.767L367.449 378.196C372.995 376.314 377.922 375.843 382.277 376.372C389.262 377.22 394.921 380.66 399.392 385.266L382.102 389.853L382.76 392.333L401.322 387.408C406.909 394.087 410.266 402.43 411.697 408.591C411.767 409.897 411.849 411.154 411.941 412.358L414.499 412.162C414.41 410.996 414.331 409.778 414.262 408.512C415.842 401.151 419.439 392.103 425.521 384.282L443.56 391.012L444.457 388.608L427.239 382.185C432.267 376.359 438.775 371.431 446.981 368.686C454.615 366.132 463.783 365.444 474.696 367.746L482.105 377.745L484.166 376.218L478.576 368.673C484.171 370.163 490.2 372.416 496.686 375.569L497.808 373.262C489.827 369.381 482.474 366.814 475.711 365.34C465.899 363.202 457.339 363.371 449.933 365.169L466.197 343.762L464.154 342.21L445.79 366.381C436.582 369.551 429.444 375.309 424.095 381.949C419.46 387.704 416.155 394.137 413.993 400.173C413.821 386.24 414.911 368.554 418.369 350.32L447.066 338.398L446.082 336.028L418.963 347.294C421.523 334.718 425.229 321.986 430.43 310.131C435.665 298.201 442.404 287.182 450.998 278.101L467.341 274.972L466.858 272.452L454.221 274.872Z" fill="white"/>
<path d="M52.0967 353.89C52.0967 351.764 53.8197 350.041 55.9452 350.041H209.888C212.013 350.041 213.736 351.764 213.736 353.89V456.518C213.736 458.644 212.013 460.367 209.888 460.367H55.9452C53.8197 460.367 52.0967 458.644 52.0967 456.518V353.89Z" fill="#F15846"/>
<path fill-rule="evenodd" clip-rule="evenodd" d="M50.8145 353.89C50.8145 351.056 53.1119 348.759 55.9459 348.759H209.888C212.722 348.759 215.02 351.056 215.02 353.89V456.518C215.02 459.352 212.722 461.65 209.888 461.65H55.9459C53.1119 461.65 50.8145 459.352 50.8145 456.518V353.89ZM55.9459 351.324C54.5289 351.324 53.3802 352.473 53.3802 353.89V456.518C53.3802 457.935 54.5289 459.084 55.9459 459.084H209.888C211.305 459.084 212.454 457.935 212.454 456.518V353.89C212.454 352.473 211.305 351.324 209.888 351.324H55.9459Z" fill="#3E3D3D"/>
<path d="M62.3594 360.304C62.3594 358.179 64.0824 356.456 66.2079 356.456H199.625C201.75 356.456 203.473 358.179 203.473 360.304V450.104C203.473 452.229 201.75 453.953 199.625 453.953H66.2079C64.0824 453.953 62.3594 452.229 62.3594 450.104V360.304Z" fill="white"/>
<path d="M144.5 356.456L127.143 356.456L81.3438 409.901L81.3438 453.311L94.4306 453.311L166.912 356.456L144.5 356.456Z" fill="#F1F1F1"/>
<path d="M103.411 453.311L175.892 357.097L188.721 357.097L116.24 453.311L103.411 453.311Z" fill="#F1F1F1"/>
<path d="M319.793 276.25V287.886L317.373 290.38L320.6 295.782L335.93 297.444L345.209 292.042C345.478 291.349 345.693 289.715 344.402 288.717C343.111 287.72 342.789 279.99 342.789 276.25L347.226 266.276L348.437 252.147L337.947 238.433L315.355 245.498C314.549 247.991 312.854 255.388 312.531 265.03C312.209 274.671 317.238 276.527 319.793 276.25Z" fill="#EFCB96"/>
<path d="M308.139 243.245C311.8 245.902 325.195 245.459 331.435 244.906C331.712 245.183 332.766 246.567 334.763 249.889C337.259 254.042 333.515 261.517 336.843 261.101C340.171 260.686 339.755 251.55 342.667 252.381C345.579 253.211 345.163 256.949 345.163 260.271C345.163 263.593 341.419 264.423 339.755 266.5C338.091 268.576 337.675 275.636 339.755 275.636C341.835 275.636 349.323 272.729 353.067 265.669C360.056 250.719 353.483 240.338 349.323 237.015C346.328 226.717 334.486 227.464 328.939 229.125C329.004 228.995 329.061 228.83 329.1 228.636H307.207C307.298 229.788 307.715 230.875 308.139 231.617C306.337 231.34 302.648 231.451 302.315 234.109C301.9 237.431 303.563 239.922 308.139 243.245Z" fill="#3E3D3D"/>
<path d="M299.272 290.029C290.021 295.386 283.965 315.92 282.093 325.518L271.986 313.996V347.476C272.415 348.143 272.832 348.787 273.234 349.4H299.425C301.705 343.804 304.029 335.99 305.218 331.544C305.347 335.703 305.117 342.498 304.771 349.4H372.169V292.094C364.741 285.153 352.08 283.333 346.184 283.333C345.193 287.016 340.898 294.381 331.648 294.381C322.398 294.381 318.103 287.016 317.112 283.333C315.019 283.333 308.522 284.672 299.272 290.029Z" fill="#F15846"/>
<path fill-rule="evenodd" clip-rule="evenodd" d="M363.798 320.158C364.493 320.022 365.167 320.475 365.304 321.17C365.748 323.438 366.38 327.019 366.836 330.405C367.064 332.097 367.25 333.756 367.344 335.185C367.437 336.578 367.453 337.87 367.289 338.765C367.105 339.773 366.574 340.809 365.707 342.121C364.83 343.448 363.518 345.189 361.639 347.619C361.205 348.179 360.399 348.282 359.839 347.849C359.279 347.415 359.175 346.61 359.609 346.049C361.496 343.608 362.75 341.941 363.566 340.707C364.391 339.458 364.678 338.78 364.765 338.304C364.866 337.751 364.876 336.741 364.784 335.355C364.695 334.006 364.517 332.41 364.293 330.747C363.846 327.424 363.223 323.894 362.786 321.663C362.65 320.968 363.103 320.294 363.798 320.158Z" fill="#F15846"/>
<path d="M250.939 296.162C250.939 294.036 252.663 292.313 254.788 292.313H288.142C290.268 292.313 291.991 294.036 291.991 296.162V339.779C291.991 341.904 290.268 343.627 288.142 343.627H254.788C252.663 343.627 250.939 341.904 250.939 339.779V296.162Z" fill="#F1F1F1"/>
<path d="M279.162 312.197C279.162 316.802 275.429 320.536 270.824 320.536C266.219 320.536 262.485 316.802 262.485 312.197C262.485 307.592 266.219 303.859 270.824 303.859C275.429 303.859 279.162 307.592 279.162 312.197Z" fill="white"/>
<path fill-rule="evenodd" clip-rule="evenodd" d="M250.95 343.627C250.943 343.414 250.939 343.2 250.939 342.986C250.939 332.004 259.842 323.101 270.824 323.101C281.805 323.101 290.708 332.004 290.708 342.986C290.708 343.2 290.705 343.414 290.698 343.627H250.95Z" fill="white"/>
<path d="M22.5918 370.567C22.5918 368.442 24.3149 366.719 26.4404 366.719H77.7545C79.88 366.719 81.6031 368.442 81.6031 370.567V456.518C81.6031 458.644 79.88 460.367 77.7545 460.367H26.4404C24.3149 460.367 22.5918 458.644 22.5918 456.518V370.567Z" fill="#F1F1F1"/>
<path fill-rule="evenodd" clip-rule="evenodd" d="M21.3086 370.567C21.3086 367.733 23.606 365.436 26.44 365.436H77.7542C80.5882 365.436 82.8856 367.733 82.8856 370.567V456.518C82.8856 459.352 80.5882 461.65 77.7542 461.65H26.44C23.606 461.65 21.3086 459.352 21.3086 456.518V370.567ZM26.44 368.001C25.023 368.001 23.8743 369.15 23.8743 370.567V456.518C23.8743 457.935 25.023 459.084 26.44 459.084H77.7542C79.1712 459.084 80.3199 457.935 80.3199 456.518V370.567C80.3199 369.15 79.1712 368.001 77.7542 368.001H26.44Z" fill="#3E3D3D"/>
<path d="M26.4395 374.416C26.4395 372.29 28.1625 370.567 30.288 370.567H73.905C76.0305 370.567 77.7536 372.29 77.7536 374.416V452.67C77.7536 454.795 76.0305 456.518 73.905 456.518H30.288C28.1625 456.518 26.4395 454.795 26.4395 452.67V374.416Z" fill="white"/>
<path d="M37.9854 370.567H67.491L64.2838 378.264H41.1925L37.9854 370.567Z" fill="#F1F1F1"/>
<path d="M73.2547 371.208L69.8298 371.208L26.8213 429.578L26.8213 453.198C26.8213 454.415 27.61 455.493 28.7812 455.877L77.1129 390.282L77.1129 375.009C77.1129 372.907 75.3886 371.208 73.2547 371.208Z" fill="#F1F1F1"/>
<path d="M32.8545 455.877L77.1129 396.865L77.1129 404.562L38.6273 455.877L32.8545 455.877Z" fill="#F1F1F1"/>
<path d="M441.471 412.152C441.795 409.837 439.997 407.77 437.66 407.77H389.962C387.66 407.77 385.873 409.778 386.14 412.064L391.377 456.964C391.604 458.904 393.247 460.367 395.2 460.367H431.375C433.294 460.367 434.92 458.953 435.186 457.052L441.471 412.152Z" fill="#F1F1F1"/>
<path fill-rule="evenodd" clip-rule="evenodd" d="M-0.5 460.367C-0.5 459.658 0.0743531 459.084 0.782854 459.084H510.717C511.426 459.084 512 459.658 512 460.367C512 461.075 511.426 461.65 510.717 461.65H0.782854C0.0743531 461.65 -0.5 461.075 -0.5 460.367Z" fill="#3E3D3D"/>
</g>
<defs>
<clipPath id="clip0_102_2975">
<rect width="512" height="512" fill="white"/>
</clipPath>
</defs>
</svg>
