<svg width="512" height="512" viewBox="0 0 512 512" fill="none" xmlns="http://www.w3.org/2000/svg">
<g clip-path="url(#clip0_102_3087)">
<path fill-rule="evenodd" clip-rule="evenodd" d="M307.385 285.141H449.782V455.761H307.385V285.141ZM309.95 287.707V453.195H447.216V287.707H309.95Z" fill="#F1F1F1"/>
<path d="M308.668 328.758H448.499V454.478H308.668V328.758Z" fill="#F1F1F1"/>
<path d="M311.234 151.083C311.234 173.401 293.142 191.493 270.824 191.493C248.506 191.493 230.414 173.401 230.414 151.083C230.414 128.765 248.506 110.673 270.824 110.673C293.142 110.673 311.234 128.765 311.234 151.083Z" fill="#F15846"/>
<path d="M74.5471 343.511C77.6259 368.142 81.389 429.89 82.8856 457.685H128.427C148.525 429.462 188.593 367.757 188.08 346.718C187.438 320.42 181.665 278.727 178.458 275.52C175.251 272.313 108.543 283.217 88.6585 287.066C68.7742 290.914 70.6985 312.723 74.5471 343.511Z" fill="#F1F1F1"/>
<path fill-rule="evenodd" clip-rule="evenodd" d="M97.7984 312.292C93.7709 309.554 88.9058 307.385 85.6631 306.235L86.5211 303.817C89.9064 305.018 94.9834 307.275 99.2411 310.171C101.369 311.618 103.343 313.258 104.797 315.047C105.6 316.034 106.268 317.098 106.705 318.224C109.962 314.86 116.149 310.396 124.443 309.523C134.157 308.5 143.834 306.966 147.446 306.328L147.892 308.855C144.235 309.5 134.498 311.044 124.712 312.074C115.764 313.016 109.487 318.59 107.262 321.482C107.361 330.554 110.276 397.666 111.748 430.688L109.185 430.802C107.689 397.264 104.693 328.283 104.693 321.061C104.693 319.669 104.049 318.194 102.806 316.665C101.567 315.141 99.8127 313.662 97.7984 312.292Z" fill="white"/>
<path d="M306.102 151.083C306.102 170.567 290.307 186.362 270.823 186.362C251.34 186.362 235.545 170.567 235.545 151.083C235.545 131.599 251.34 115.805 270.823 115.805C290.307 115.805 306.102 131.599 306.102 151.083Z" fill="white"/>
<path d="M259.552 123.045L259.886 120.522L261.704 122.303L272.427 149.911L268.123 151.396L259.552 123.045Z" fill="#F1F1F1"/>
<path d="M268.697 148.238L271.477 151.844L254.001 164.597L251.155 164.635L251.916 161.893L268.697 148.238Z" fill="#F1F1F1"/>
<path fill-rule="evenodd" clip-rule="evenodd" d="M270.155 122.855V118.642H272.721V122.855H270.155ZM270.155 180.11V175.897H272.721V180.11H270.155Z" fill="#F1F1F1"/>
<path fill-rule="evenodd" clip-rule="evenodd" d="M297.875 148.093L302.173 148.093L302.173 150.659L297.875 150.659L297.875 148.093ZM239.475 148.093L243.773 148.093L243.773 150.659L239.475 150.659L239.475 148.093Z" fill="#F1F1F1"/>
<path fill-rule="evenodd" clip-rule="evenodd" d="M285.824 171.841L288.022 175.52L285.82 176.836L283.621 173.157L285.824 171.841ZM255.948 121.855L258.146 125.533L255.944 126.849L253.745 123.171L255.948 121.855Z" fill="#F1F1F1"/>
<path fill-rule="evenodd" clip-rule="evenodd" d="M294.997 161.504L298.728 163.614L297.465 165.847L293.734 163.738L294.997 161.504ZM244.303 132.845L248.034 134.954L246.771 137.187L243.041 135.078L244.303 132.845Z" fill="#F1F1F1"/>
<path fill-rule="evenodd" clip-rule="evenodd" d="M246.772 161.504L243.041 163.614L244.304 165.847L248.034 163.738L246.772 161.504ZM297.465 132.845L293.735 134.954L294.997 137.187L298.728 135.078L297.465 132.845Z" fill="#F1F1F1"/>
<path fill-rule="evenodd" clip-rule="evenodd" d="M255.944 171.841L253.745 175.52L255.947 176.836L258.146 173.157L255.944 171.841ZM285.82 121.855L283.621 125.533L285.823 126.849L288.022 123.171L285.82 121.855Z" fill="#F1F1F1"/>
<path d="M141.897 202.397C141.897 204.877 143.907 206.887 146.387 206.887C148.867 206.887 150.877 204.877 150.877 202.397C150.877 199.918 148.867 197.907 146.387 197.907C143.907 197.907 141.897 199.918 141.897 202.397Z" fill="#F15846"/>
<path d="M116.24 202.397C116.24 204.877 118.25 206.887 120.73 206.887C123.209 206.887 125.22 204.877 125.22 202.397C125.22 199.918 123.209 197.907 120.73 197.907C118.25 197.907 116.24 199.918 116.24 202.397Z" fill="#F15846"/>
<path d="M88.0171 202.397C88.0171 204.877 90.0273 206.887 92.5071 206.887C94.9868 206.887 96.9971 204.877 96.9971 202.397C96.9971 199.918 94.9868 197.907 92.5071 197.907C90.0273 197.907 88.0171 199.918 88.0171 202.397Z" fill="#F15846"/>
<path fill-rule="evenodd" clip-rule="evenodd" d="M66.208 179.947C66.208 177.113 68.5054 174.816 71.3394 174.816H166.271C169.105 174.816 171.402 177.113 171.402 179.947V237.721C171.402 241.77 166.932 244.224 163.516 242.05L149.209 232.946C148.797 232.684 148.319 232.544 147.831 232.544H71.3394C68.5054 232.544 66.208 230.247 66.208 227.413V179.947ZM71.3394 177.382C69.9224 177.382 68.7737 178.53 68.7737 179.947V227.413C68.7737 228.83 69.9224 229.979 71.3394 229.979H147.831C148.807 229.979 149.763 230.257 150.586 230.781L164.893 239.885C166.601 240.972 168.836 239.745 168.836 237.721V179.947C168.836 178.53 167.688 177.382 166.271 177.382H71.3394Z" fill="#3E3D3D"/>
<path d="M327.91 205.605C327.91 203.479 329.633 201.756 331.759 201.756H415.144C417.27 201.756 418.993 203.479 418.993 205.605V312.081C418.993 314.207 417.27 315.93 415.144 315.93H331.759C329.633 315.93 327.91 314.207 327.91 312.081V205.605Z" fill="#F15846"/>
<path d="M342.021 219.716C342.021 217.59 343.745 215.867 345.87 215.867H401.033C403.158 215.867 404.881 217.59 404.881 219.716V297.97C404.881 300.095 403.158 301.818 401.033 301.818H345.87C343.745 301.818 342.021 300.095 342.021 297.97V219.716Z" fill="white"/>
<path d="M393.119 251.787L370.245 271.03V301.819H401.034C403.159 301.819 404.882 300.095 404.882 297.97V260.767L393.119 251.787Z" fill="#F15846"/>
<path d="M364.939 250.504L342.021 270.241V297.97C342.021 300.095 343.745 301.819 345.87 301.819H401.033C403.158 301.819 404.881 300.095 404.881 297.97V284.056L364.939 250.504Z" fill="#F15846"/>
<path d="M385.639 240.883C385.639 244.78 382.48 247.939 378.583 247.939C374.686 247.939 371.527 244.78 371.527 240.883C371.527 236.986 374.686 233.827 378.583 233.827C382.48 233.827 385.639 236.986 385.639 240.883Z" fill="#F15846"/>
<path d="M190.003 274.237C190.003 279.975 194.28 283.859 197.059 285.142L219.509 274.237L245.166 249.863C248.587 249.863 257.097 249.35 263.768 247.297C272.106 244.732 278.52 228.696 275.313 223.565C272.106 218.434 260.56 221.64 253.505 220.357C246.449 219.075 239.393 210.736 226.565 211.377C216.302 211.891 212.026 219.716 211.171 223.565C210.529 222.709 208.092 221.512 203.473 223.565C197.701 226.13 197.059 231.262 191.928 238.959C186.796 246.656 190.004 266.54 190.003 274.237Z" fill="#3E3D3D"/>
<path d="M195.776 290.273C194.75 294.378 192.355 299.681 191.286 301.819C190.003 304.598 187.309 310.414 186.796 311.44C186.283 312.467 190.003 320.848 191.928 324.91C202.19 324.696 223.229 324.269 225.282 324.269C227.847 324.269 244.525 315.289 244.525 314.006C244.525 312.98 237.255 303.529 233.62 299.895C231.269 300.322 229.515 299.638 228.489 298.612C227.463 297.585 227.634 295.404 228.489 292.839C243.883 292.198 245.808 288.99 250.298 282.576C254.788 276.162 257.995 251.788 256.07 246.015C254.146 240.242 231.055 237.676 229.13 241.525C227.206 245.373 222.075 249.222 220.792 254.353C219.765 258.458 218.226 267.182 216.302 265.899C215.874 264.83 215.019 261.024 215.019 254.353C215.019 246.015 206.039 250.505 204.115 256.919C202.19 263.333 208.687 268.026 207.322 268.464C205.676 268.993 199.879 277.233 198.342 281.293C198.128 283.003 196.802 286.168 195.776 290.273Z" fill="#EFCB96"/>
<path d="M139.067 328.117C124.186 350.182 105.977 421.337 98.9209 457.685H334.325V420.482L305.819 414.675C302.135 413.925 299.323 410.964 298.633 407.268C292.194 372.754 273.542 315.479 265.692 308.232C259.021 302.075 241.745 298.184 233.621 297.97C234.048 304.17 230.029 318.495 213.095 318.495C196.161 318.495 191.451 305.881 191.023 297.97C179.905 298.825 153.948 306.052 139.067 328.117Z" fill="#F15846"/>
<path d="M259.919 449.347H444.65V457.044H259.919V449.347Z" fill="#F1F1F1"/>
<path fill-rule="evenodd" clip-rule="evenodd" d="M258.637 448.064H445.933V458.327H258.637V448.064ZM261.202 450.63V455.761H443.368V450.63H261.202Z" fill="#3E3D3D"/>
<path d="M313.799 449.347H444.65V457.044H313.799V449.347Z" fill="#F1F1F1"/>
<path fill-rule="evenodd" clip-rule="evenodd" d="M312.516 448.064H445.932V458.327H312.516V448.064ZM315.081 450.63V455.761H443.367V450.63H315.081Z" fill="#3E3D3D"/>
<path d="M347.795 358.905L314.44 449.988H443.367L476.08 358.905H347.795Z" fill="white"/>
<path fill-rule="evenodd" clip-rule="evenodd" d="M346.898 357.623H477.904L444.27 451.271H312.604L346.898 357.623ZM348.691 360.188L316.276 448.705H442.465L474.256 360.188H348.691Z" fill="#3E3D3D"/>
<path d="M406.16 414.62C401.836 422.752 393.766 426.917 388.136 423.923C382.506 420.929 381.448 411.909 385.773 403.777C390.098 395.645 398.167 391.48 403.797 394.474C409.427 397.468 410.485 406.488 406.16 414.62Z" fill="#F1F1F1"/>
<path d="M264.409 428.821C261.844 428.18 251.581 430.104 247.732 430.745C244.977 431.204 238.251 431.355 234.262 431.382L231.783 447.422C236.374 448.732 243.547 451.389 247.732 451.912C251.837 452.425 260.561 450.843 264.409 449.988L272.207 455.558C272.941 456.082 273.896 456.185 274.725 455.83C276.304 455.153 276.794 453.152 275.706 451.822L272.106 447.422L263.126 442.932C268.044 444.429 278.777 447.679 282.369 448.705C285.961 449.731 286.859 448.278 286.859 447.422C288.356 446.995 290.836 445.498 288.784 442.932C286.218 439.725 266.975 429.462 264.409 428.821Z" fill="#EFCB96"/>
<path fill-rule="evenodd" clip-rule="evenodd" d="M171.662 389.036C173.573 379.034 175.367 368.527 176.434 361.908L178.967 362.317C177.897 368.954 176.099 379.486 174.182 389.518C172.449 398.588 170.604 407.335 169.103 412.4C178.945 414.019 193.291 416.527 206.11 419.08C212.842 420.42 219.166 421.776 224.2 423.024C226.716 423.647 228.923 424.247 230.704 424.808C232.456 425.36 233.889 425.903 234.793 426.43L235.524 426.857L232.077 454.438L230.985 454.477C219.11 454.905 200.272 455.419 182.346 455.568C164.456 455.718 147.367 455.507 139.056 454.468C128.296 453.123 122.154 447.178 119.026 439.571C115.939 432.062 115.801 422.988 116.775 415.192C118.317 402.86 120.842 385.656 121.911 378.597L124.448 378.982C123.379 386.034 120.858 403.212 119.321 415.51C118.371 423.108 118.553 431.673 121.399 438.596C124.205 445.421 129.609 450.701 139.374 451.922C147.483 452.936 164.39 453.153 182.324 453.003C199.682 452.858 217.902 452.371 229.802 451.952L232.761 428.278C232.084 427.98 231.141 427.636 229.933 427.255C228.223 426.717 226.073 426.131 223.583 425.514C218.605 424.28 212.325 422.934 205.609 421.596C192.179 418.922 177.057 416.295 167.231 414.693L165.744 414.45L166.221 413.021C167.728 408.499 169.745 399.073 171.662 389.036ZM263.127 427.485C263.636 415.264 261.208 378.923 259.923 362.211L262.481 362.014C263.761 378.657 266.208 415.181 265.691 427.591L263.127 427.485Z" fill="#3E3D3D"/>
<path d="M274.031 150.442C274.031 152.567 272.308 154.29 270.183 154.29C268.057 154.29 266.334 152.567 266.334 150.442C266.334 148.316 268.057 146.593 270.183 146.593C272.308 146.593 274.031 148.316 274.031 150.442Z" fill="#3E3D3D"/>
<path fill-rule="evenodd" clip-rule="evenodd" d="M-0.5 457.044C-0.5 456.335 0.0743531 455.761 0.782854 455.761H510.717C511.426 455.761 512 456.335 512 457.044C512 457.752 511.426 458.327 510.717 458.327H0.782854C0.0743531 458.327 -0.5 457.752 -0.5 457.044Z" fill="#3E3D3D"/>
</g>
<defs>
<clipPath id="clip0_102_3087">
<rect width="512" height="512" fill="white"/>
</clipPath>
</defs>
</svg>
