<svg width="512" height="512" viewBox="0 0 512 512" fill="none" xmlns="http://www.w3.org/2000/svg">
<g clip-path="url(#clip0_102_3021)">
<path fill-rule="evenodd" clip-rule="evenodd" d="M-0.5 473.65C-0.5 472.941 0.0743531 472.367 0.782854 472.367H510.717C511.426 472.367 512 472.941 512 473.65C512 474.358 511.426 474.932 510.717 474.932H0.782854C0.0743531 474.932 -0.5 474.358 -0.5 473.65Z" fill="#3E3D3D"/>
<path d="M297.122 336.384H454.913V473.649H297.122V336.384Z" fill="#F1F1F1"/>
<path d="M315.082 182.442C315.082 180.316 316.805 178.593 318.931 178.593H413.862C415.987 178.593 417.71 180.316 417.71 182.442V300.464C417.71 302.59 415.987 304.313 413.862 304.313H318.931C316.805 304.313 315.082 302.59 315.082 300.464V182.442Z" fill="white"/>
<path fill-rule="evenodd" clip-rule="evenodd" d="M313.8 182.442C313.8 179.608 316.097 177.31 318.931 177.31H413.862C416.696 177.31 418.994 179.608 418.994 182.442V300.464C418.994 303.298 416.696 305.596 413.862 305.596H318.931C316.097 305.596 313.8 303.298 313.8 300.464V182.442ZM318.931 179.876C317.514 179.876 316.366 181.025 316.366 182.442V300.464C316.366 301.881 317.514 303.03 318.931 303.03H413.862C415.279 303.03 416.428 301.881 416.428 300.464V182.442C416.428 181.025 415.279 179.876 413.862 179.876H318.931Z" fill="#3E3D3D"/>
<path d="M325.346 192.063H362.548V238.246H325.346V192.063Z" fill="#F1F1F1"/>
<path d="M325.346 245.943H362.548V292.126H325.346V245.943Z" fill="#F1F1F1"/>
<path d="M370.245 192.063H407.448V238.246H370.245V192.063Z" fill="#F1F1F1"/>
<path d="M370.245 245.943H407.448V292.126H370.245V245.943Z" fill="#F1F1F1"/>
<path d="M265.051 463.387H339.456V473.65H265.051V463.387Z" fill="#F1F1F1"/>
<path d="M259.278 258.13C260.817 272.498 272.32 276.945 277.879 277.373L333.684 292.126C334.966 292.981 339.328 293.409 346.512 288.277C353.696 283.146 352.071 274.593 350.361 270.959C352.285 269.89 356.262 266.084 356.775 259.413C357.288 252.742 351.43 247.653 348.436 245.943C350.574 243.591 353.568 236.963 348.436 229.266C343.305 221.569 334.753 226.059 331.118 229.266C330.904 225.845 328.809 218.361 322.138 215.796C315.467 213.23 306.53 216.865 302.895 219.003C300.116 215.582 291.606 210.151 279.804 215.796C268.001 221.44 271.465 233.542 274.672 238.887C268.899 239.315 257.739 243.762 259.278 258.13Z" fill="#3E3D3D"/>
<path d="M287.609 320.99C286.681 323.042 284.518 323.556 283.552 323.556L284.711 331.894L295.143 346.006L322.963 355.627C328.759 344.509 339.54 322.016 336.294 320.99C332.237 319.707 329.918 314.576 329.918 306.879V285.711C331.773 284.172 333.396 280.366 333.976 278.656C334.439 269.419 329.918 265.4 327.6 264.544C325.282 265.827 319.486 267.623 314.849 264.544C310.213 261.466 308.667 254.709 308.474 251.716C306.928 254.068 302.794 258.772 298.621 258.772C294.448 258.772 291.473 254.923 290.507 252.999C288.652 258.13 280.461 262.834 276.597 264.544C276.597 269.676 276.944 282.889 278.335 294.691C279.726 306.494 285.097 312.865 287.609 314.576C287.995 315.858 288.536 318.937 287.609 320.99Z" fill="#EFCB96"/>
<path d="M266.334 189.497C266.334 196.228 260.878 201.685 254.147 201.685C247.416 201.685 241.96 196.228 241.96 189.497C241.96 182.767 247.416 177.31 254.147 177.31C260.878 177.31 266.334 182.767 266.334 189.497Z" fill="#F1F1F1"/>
<path d="M229.131 243.377C229.131 290.493 190.937 328.687 143.821 328.687C96.7062 328.687 58.5117 290.493 58.5117 243.377C58.5117 196.262 96.7062 158.068 143.821 158.068C190.937 158.068 229.131 196.262 229.131 243.377Z" fill="#F15846"/>
<path d="M222.717 243.377C222.717 286.95 187.394 322.273 143.821 322.273C100.248 322.273 64.9258 286.95 64.9258 243.377C64.9258 199.805 100.248 164.482 143.821 164.482C187.394 164.482 222.717 199.805 222.717 243.377Z" fill="white"/>
<path d="M127.786 179.021L139.515 244.019L148.312 242.308L131.305 177.31L127.786 179.021Z" fill="#F1F1F1"/>
<path d="M95.7148 265.244L139.42 240.17L145.746 248.334L99.1653 272.242L95.7148 265.244Z" fill="#F1F1F1"/>
<path d="M284.294 319.066C244.782 319.066 218.868 345.578 211.812 358.834C225.496 387.912 253.505 446.581 256.071 448.634C258.637 450.686 298.619 449.489 318.289 448.634V464.67C319.316 467.748 321.71 468.946 322.779 469.16C331.759 470.015 353.44 471.854 368.321 472.367C386.922 473.008 399.751 469.16 406.165 448.634C412.579 428.108 411.938 370.38 399.751 346.647C390.001 327.661 351.857 320.349 336.249 319.066C333.47 326.977 327.911 340.233 309.951 340.233C291.991 340.233 286.004 326.977 284.294 319.066Z" fill="#F15846"/>
<path d="M80.3238 357.899C79.6741 355.456 81.5155 353.061 84.043 353.061H241.566C243.311 353.061 244.837 354.235 245.286 355.921L275.31 468.812C275.96 471.254 274.118 473.65 271.591 473.65H114.067C112.323 473.65 110.796 472.476 110.348 470.79L80.3238 357.899Z" fill="#F1F1F1"/>
<path d="M304.178 438.371C310.336 439.397 320.855 437.943 325.345 437.088C327.483 439.654 331.759 445.94 331.759 450.558C331.759 455.176 330.049 460.18 329.194 462.104C325.987 461.89 317.648 461.591 309.951 462.104C302.254 462.617 291.777 466.594 287.501 468.518L273.39 471.084L264.41 469.801L261.844 465.952L255.43 464.67L249.647 460.332C248.573 459.527 248.315 458.023 249.06 456.906C249.767 455.845 251.154 455.476 252.295 456.047L255.43 457.614H263.127L273.39 455.69H261.844L250.94 453.124L248.511 450.291C247.691 449.334 247.681 447.925 248.488 446.957C249.46 445.791 251.224 445.711 252.297 446.785L252.864 447.351L263.127 448.634L273.39 447.351H267.617L254.147 444.144L251.678 440.195C251.22 439.46 251.176 438.54 251.563 437.766C252.246 436.4 253.988 435.967 255.231 436.855L257.354 438.371L267.617 440.295L277.438 438.892C278.642 438.72 278.954 437.127 277.903 436.514L273.39 433.881L265.138 433.365C263.967 433.292 263.008 432.406 262.842 431.244C262.646 429.874 263.612 428.609 264.986 428.437L272.748 427.467C276.597 428.322 284.935 430.289 287.501 431.315C290.708 432.598 296.481 437.088 304.178 438.371Z" fill="#EFCB96"/>
<path fill-rule="evenodd" clip-rule="evenodd" d="M141.897 183.135V173.462H144.463V183.135H141.897ZM141.897 314.576V304.903H144.463V314.576H141.897Z" fill="#F1F1F1"/>
<path fill-rule="evenodd" clip-rule="evenodd" d="M203.976 242.736L213.737 242.736L213.737 245.302L203.976 245.302L203.976 242.736ZM71.3406 242.736L81.1016 242.736L81.1016 245.302L71.3406 245.302L71.3406 242.736Z" fill="#F1F1F1"/>
<path fill-rule="evenodd" clip-rule="evenodd" d="M175.207 295.878L180.2 304.232L177.998 305.549L173.004 297.194L175.207 295.878ZM107.354 182.351L112.347 190.705L110.145 192.022L105.151 183.667L107.354 182.351Z" fill="#F1F1F1"/>
<path fill-rule="evenodd" clip-rule="evenodd" d="M196.637 272.984L205.11 277.774L203.848 280.007L195.375 275.217L196.637 272.984ZM81.5046 207.893L89.9776 212.683L88.7149 214.916L80.2419 210.126L81.5046 207.893Z" fill="#F1F1F1"/>
<path fill-rule="evenodd" clip-rule="evenodd" d="M88.7152 272.984L80.2422 277.774L81.5049 280.007L89.9779 275.217L88.7152 272.984ZM203.848 207.893L195.375 212.683L196.638 214.916L205.111 210.126L203.848 207.893Z" fill="#F1F1F1"/>
<path fill-rule="evenodd" clip-rule="evenodd" d="M110.145 295.878L105.151 304.232L107.354 305.549L112.347 297.194L110.145 295.878ZM177.998 182.351L173.004 190.705L175.207 192.022L180.2 183.667L177.998 182.351Z" fill="#F1F1F1"/>
<path d="M189.362 415.28C189.362 424.136 182.183 431.315 173.327 431.315C164.47 431.315 157.291 424.136 157.291 415.28C157.291 406.423 164.47 399.244 173.327 399.244C182.183 399.244 189.362 406.423 189.362 415.28Z" fill="#F1F1F1"/>
<path d="M104.694 405.658V417.204H113.674V402.451C114.315 402.023 116.496 400.783 120.088 399.244C124.578 397.32 123.937 395.395 125.861 391.547C127.785 387.699 125.861 385.774 120.73 387.057C115.598 388.34 114.315 393.471 113.674 392.83C113.033 392.188 113.033 392.188 113.674 389.623C114.315 387.057 113.033 385.774 115.598 384.491C118.164 383.208 129.068 383.208 132.917 381.925C136.765 380.642 136.765 375.511 135.482 372.945C134.2 370.38 127.785 374.87 120.088 378.077C113.931 380.643 112.819 379.146 113.033 378.077V370.38C113.033 369.097 115.598 369.738 120.73 366.531C125.861 363.324 125.861 363.965 129.068 360.758C132.275 357.552 127.785 356.91 125.22 354.344C122.654 351.778 118.164 359.475 116.881 362.041C115.598 364.607 113.674 365.248 113.033 363.965C112.391 362.682 114.315 362.041 113.674 359.475C113.033 356.91 111.108 357.551 109.825 358.193C108.543 358.834 104.694 363.965 103.411 363.965C102.128 363.965 100.204 358.193 97.6383 354.344C94.3578 349.424 93.1484 349.854 89.2999 348.571C85.4514 347.288 89.9412 354.985 94.4313 363.965C98.0233 371.149 103.197 372.09 105.336 371.662C105.549 374.228 105.849 379.487 105.336 380.001C104.694 380.642 102.77 378.718 100.204 376.794C97.6384 374.869 98.2798 379.359 99.5627 381.925C100.589 383.978 103.839 385.774 105.336 386.415V394.112C105.336 396.037 105.977 396.678 102.77 395.395C99.5627 394.112 96.9969 385.774 93.1484 383.849C89.2998 381.925 89.2998 387.698 89.9412 394.112C90.4544 399.244 99.9902 403.948 104.694 405.658Z" fill="#F15846"/>
<path d="M79.0371 417.427C79.0371 416.595 79.7113 415.921 80.5431 415.921H135.26C136.091 415.921 136.766 416.595 136.766 417.427V444.785C136.766 460.727 123.843 473.65 107.901 473.65C91.9601 473.65 79.0371 460.727 79.0371 444.785V417.427Z" fill="#3E3D3D"/>
<path fill-rule="evenodd" clip-rule="evenodd" d="M362.834 422.656C362.721 423.012 362.532 423.524 362.172 423.884C361.913 424.143 361.562 424.323 361.311 424.441C361.017 424.579 360.658 424.721 360.255 424.866C359.445 425.157 358.375 425.489 357.113 425.849C354.585 426.57 351.214 427.427 347.462 428.33C339.957 430.137 330.878 432.143 323.865 433.642C323.863 433.644 323.861 433.646 323.859 433.649C323.839 433.674 323.803 433.737 323.788 433.839C323.773 433.94 323.785 434.037 323.811 434.108C323.835 434.174 323.863 434.2 323.878 434.211C328.067 437.155 333.043 442.631 333.043 450.558C333.043 460.619 329.081 467.64 326.94 470.018L325.033 468.301C326.742 466.403 330.477 459.997 330.477 450.558C330.477 443.8 326.236 439.005 322.403 436.311C321.399 435.605 321.11 434.416 321.25 433.465C321.391 432.509 322.035 431.409 323.324 431.134C330.328 429.637 339.385 427.636 346.862 425.836C350.602 424.935 353.933 424.088 356.409 423.382C357.65 423.028 358.657 422.714 359.387 422.452C359.753 422.32 360.029 422.209 360.221 422.118C360.262 422.099 360.295 422.083 360.322 422.069C360.339 422.026 360.361 421.965 360.387 421.882C360.474 421.609 360.567 421.215 360.66 420.695C360.847 419.66 361.016 418.242 361.16 416.535C361.447 413.129 361.626 408.673 361.666 404.044C361.706 399.416 361.606 394.638 361.338 390.589C361.066 386.481 360.63 383.29 360.06 381.722L362.471 380.846C363.184 382.805 363.629 386.35 363.898 390.42C364.172 394.549 364.272 399.393 364.232 404.066C364.192 408.737 364.01 413.261 363.716 416.75C363.569 418.491 363.393 420 363.186 421.149C363.083 421.722 362.967 422.235 362.834 422.656Z" fill="#3E3D3D"/>
<path d="M150.877 243.377C150.877 247.274 147.718 250.433 143.821 250.433C139.925 250.433 136.766 247.274 136.766 243.377C136.766 239.48 139.925 236.322 143.821 236.322C147.718 236.322 150.877 239.48 150.877 243.377Z" fill="#3E3D3D"/>
</g>
<defs>
<clipPath id="clip0_102_3021">
<rect width="512" height="512" fill="white"/>
</clipPath>
</defs>
</svg>
