<?xml version="1.0" encoding="UTF-8"?>
<svg id="Layer_2" data-name="Layer 2" xmlns="http://www.w3.org/2000/svg" viewBox="0 0 55.99 77.37">
  <defs>
    <style>
      .cls-1 {
        fill: #00d656;
      }

      .cls-2 {
        fill: #000201;
      }

      .cls-3 {
        fill: #fdfeff;
      }

      .cls-4 {
        fill: #2ff382;
      }

      .cls-5 {
        fill: #dbefff;
      }

      .cls-6 {
        fill: #d2fce0;
      }

      .cls-7 {
        fill: #86f7b3;
      }

      .cls-8 {
        fill: #5ccce8;
      }
    </style>
  </defs>
  <g id="Layer_3" data-name="Layer 3">
    <g>
      <path class="cls-5" d="M15.03,.5h26.42c2.36,0,4.27,1.91,4.27,4.27v.98c0,2.36-1.91,4.27-4.27,4.27H15.03c-2.63,0-4.76-2.13-4.76-4.76h0c0-2.63,2.13-4.76,4.76-4.76Z"/>
      <polyline class="cls-5" points="36.24 24.14 36.24 10.31 19.75 10.31 19.75 24.14"/>
      <circle class="cls-5" cx="27.99" cy="49.37" r="27.49"/>
      <path class="cls-8" d="M32.75,13.01h-11.79c-.78,.06-1.46-.53-1.52-1.31-.06-.78,.53-1.46,1.31-1.52,.07,0,.14,0,.21,0h11.79c.78-.06,1.46,.53,1.52,1.31,.06,.78-.53,1.46-1.31,1.52-.07,0-.14,0-.21,0Z"/>
      <g>
        <path class="cls-2" d="M19.75,23.14c-.28,0-.5-.22-.5-.5v-3.31c0-.28,.22-.5,.5-.5s.5,.22,.5,.5v3.31c0,.28-.22,.5-.5,.5Z"/>
        <path class="cls-2" d="M19.75,16.5c-.28,0-.5-.22-.5-.5v-5.17c0-.28,.22-.5,.5-.5s.5,.22,.5,.5v5.17c0,.28-.22,.5-.5,.5Z"/>
        <path class="cls-2" d="M36.24,23.14c-.28,0-.5-.22-.5-.5V10.83c0-.28,.22-.5,.5-.5s.5,.22,.5,.5v11.81c0,.28-.22,.5-.5,.5Z"/>
      </g>
      <path class="cls-7" d="M49.91,49.34c.58,.02,1.05,.5,1.03,1.08-.55,12.2-10.61,21.92-22.95,21.92S6.34,63.33,5.15,51.77c-.12-1.13,.98-2.01,2.05-1.63l.83,.29c6.62,2.32,13.82,2.38,20.48,.18h0c3.54-1.17,7.25-1.71,10.97-1.59l10.43,.33Z"/>
      <g>
        <circle class="cls-1" cx="15.25" cy="57.56" r="2.29"/>
        <circle class="cls-1" cx="18.48" cy="61.07" r="1.24"/>
      </g>
      <path class="cls-6" d="M21.64,55.8c2.91,.11,5.67-.85,8.37-1.82s5.16-1.84,7.92-1.46c.9,.12,1.69-.86,1.69-1.69,0-1.01-.78-1.57-1.69-1.69-5.76-.77-10.62,3.49-16.29,3.28-2.17-.08-2.17,3.3,0,3.37h0Z"/>
      <path class="cls-1" d="M30.24,71.97c4.57-.63,8.82-2.55,12.45-5.37,.72-.56,.59-1.8,0-2.39-.71-.71-1.66-.56-2.39,0-3.11,2.42-6.94,3.95-10.97,4.51-.9,.12-1.4,1.28-1.18,2.08,.27,.97,1.17,1.3,2.08,1.18h0Z"/>
      <path class="cls-2" d="M15.23,68.97c-.1,0-.19-.03-.28-.08-5.96-3.99-9.73-10.37-10.34-17.49-.05-.61,.21-1.19,.69-1.57,.5-.38,1.15-.49,1.73-.28l1.16,.41c2.22,.78,4.54,1.31,6.88,1.57,.27,.03,.47,.28,.44,.55-.03,.27-.28,.47-.55,.44-2.41-.27-4.8-.81-7.09-1.62l-1.16-.41c-.27-.09-.57-.04-.79,.13-.22,.17-.33,.42-.31,.7,.58,6.82,4.19,12.92,9.9,16.74,.23,.15,.29,.46,.14,.69-.1,.14-.25,.22-.42,.22Z"/>
      <path class="cls-2" d="M27.99,72.84c-3.83,0-7.63-.94-10.99-2.73-.24-.13-.34-.43-.21-.68,.13-.24,.43-.34,.68-.21,3.21,1.71,6.85,2.61,10.52,2.61,11.88,0,21.73-9.28,22.43-21.13,.01-.23-.06-.45-.22-.62-.15-.17-.36-.26-.58-.27l-10.16-.32c-3.68-.11-7.31,.41-10.8,1.57-3.53,1.17-7.2,1.72-10.92,1.62-.28,0-.5-.24-.49-.51,0-.28,.23-.47,.51-.49,3.59,.09,7.16-.44,10.58-1.57,3.6-1.19,7.35-1.74,11.15-1.62l10.16,.32c.5,.02,.96,.23,1.29,.59,.34,.37,.51,.85,.48,1.35-.73,12.37-11.02,22.07-23.43,22.07Z"/>
      <path class="cls-3" d="M14.18,35.1c.48-.5,.99-.98,1.52-1.42,.14-.11,.29-.21,.42-.34-.08,.07-.23,.17-.06,.05,.06-.05,.13-.09,.19-.14,.29-.21,.58-.41,.89-.6,.57-.36,1.16-.7,1.76-.99,.16-.08,.32-.16,.48-.23,.07-.03,.14-.07,.22-.1,.22-.1,.15-.02-.02,0,.33-.06,.69-.27,1-.38,.83-.29,1.47-1.17,1.18-2.08-.27-.82-1.18-1.49-2.08-1.18-2.98,1.04-5.7,2.73-7.9,5.01-.61,.64-.68,1.76,0,2.39s1.73,.68,2.39,0h0Z"/>
      <path class="cls-3" d="M25.02,29.63c2.17,0,2.18-3.37,0-3.37s-2.18,3.37,0,3.37h0Z"/>
      <circle class="cls-4" cx="34.48" cy="49.64" r="3.23"/>
      <path class="cls-2" d="M34.4,53.52c-2.05,0-3.73-1.67-3.73-3.73s1.67-3.73,3.73-3.73,3.73,1.67,3.73,3.73-1.67,3.73-3.73,3.73Zm0-6.45c-1.5,0-2.73,1.22-2.73,2.73s1.22,2.73,2.73,2.73,2.73-1.22,2.73-2.73-1.22-2.73-2.73-2.73Z"/>
      <circle class="cls-4" cx="34.48" cy="32.65" r="3.23"/>
      <path class="cls-2" d="M34.4,36.53c-2.05,0-3.73-1.67-3.73-3.73s1.67-3.73,3.73-3.73,3.73,1.67,3.73,3.73-1.67,3.73-3.73,3.73Zm0-6.45c-1.5,0-2.73,1.22-2.73,2.73s1.22,2.73,2.73,2.73,2.73-1.22,2.73-2.73-1.22-2.73-2.73-2.73Z"/>
      <circle class="cls-4" cx="24.82" cy="61.54" r="2.08"/>
      <path class="cls-2" d="M25.26,63.75c-1.42,0-2.58-1.16-2.58-2.58s1.16-2.58,2.58-2.58,2.58,1.16,2.58,2.58-1.16,2.58-2.58,2.58Zm0-4.15c-.87,0-1.58,.71-1.58,1.58s.71,1.58,1.58,1.58,1.58-.71,1.58-1.58-.71-1.58-1.58-1.58Z"/>
      <circle class="cls-4" cx="20.86" cy="44.32" r="2.08"/>
      <path class="cls-2" d="M21.3,46.52c-1.42,0-2.58-1.16-2.58-2.58s1.16-2.58,2.58-2.58,2.58,1.16,2.58,2.58-1.16,2.58-2.58,2.58Zm0-4.15c-.87,0-1.58,.71-1.58,1.58s.71,1.58,1.58,1.58,1.58-.71,1.58-1.58-.71-1.58-1.58-1.58Z"/>
      <path class="cls-8" d="M38.92,74.55c5.42-1.88,10.27-5.83,13-10.89,.43-.8,.2-1.84-.61-2.31s-1.87-.2-2.31,.61c-2.31,4.29-6.47,7.78-10.98,9.34-.86,.3-1.43,1.16-1.18,2.08,.23,.84,1.21,1.48,2.08,1.18h0Z"/>
      <path class="cls-8" d="M27.04,9.69c5.24,0,10.48,0,15.73,0,2.17,0,2.18-3.37,0-3.37-5.24,0-10.48,0-15.73,0-2.17,0-2.18,3.37,0,3.37h0Z"/>
      <path class="cls-8" d="M54.63,56.44c.69-2,.97-4.17,.8-6.28-.07-.88-.73-1.73-1.69-1.69-.85,.04-1.76,.75-1.69,1.69,.08,1,.06,2.01-.07,3.01l.06-.45c-.13,.96-.35,1.91-.67,2.82-.29,.84,.33,1.88,1.18,2.08,.94,.21,1.77-.28,2.08-1.18h0Z"/>
      <path class="cls-2" d="M1.65,41.99s-.1,0-.14-.02c-.26-.08-.42-.36-.34-.62,1.5-5.02,4.38-9.51,8.34-12.99,.21-.18,.52-.16,.71,.04,.18,.21,.16,.52-.04,.71-3.81,3.36-6.59,7.69-8.04,12.53-.07,.22-.26,.36-.48,.36Z"/>
      <path class="cls-2" d="M27.99,77.37c-4.28,0-8.38-.94-12.21-2.79-.68-.33-1.36-.69-2.02-1.08-.69-.41-1.36-.85-2.01-1.31C4.4,66.93,0,58.41,0,49.37c0-1.71,.16-3.43,.46-5.1,.05-.27,.31-.46,.58-.4,.27,.05,.45,.31,.4,.58-.3,1.61-.45,3.26-.45,4.92,0,8.71,4.24,16.93,11.34,21.99,.63,.45,1.28,.87,1.94,1.26,.63,.37,1.29,.73,1.94,1.04,3.68,1.79,7.64,2.69,11.77,2.69,14.88,0,26.99-12.11,26.99-26.99,0-12.77-9.06-23.89-21.55-26.44-.27-.06-.44-.32-.39-.59,.06-.27,.32-.44,.59-.39,12.95,2.65,22.35,14.18,22.35,27.42,0,15.44-12.56,27.99-27.99,27.99Z"/>
      <path class="cls-2" d="M12.07,27.46c-.16,0-.31-.07-.41-.21-.16-.23-.11-.54,.12-.7,3.6-2.56,7.81-4.25,12.17-4.88,.26-.04,.53,.15,.57,.42,.04,.27-.15,.53-.42,.57-4.2,.61-8.26,2.23-11.73,4.7-.09,.06-.19,.09-.29,.09Z"/>
      <path class="cls-3" d="M14.76,4.3c2.59,0,5.18,0,7.77,0,.88,0,1.73-.78,1.69-1.69s-.74-1.69-1.69-1.69c-2.59,0-5.18,0-7.77,0-.88,0-1.73,.78-1.69,1.69s.74,1.69,1.69,1.69h0Z"/>
      <path class="cls-2" d="M41.45,10.52H15.03c-2.9,0-5.26-2.36-5.26-5.26S12.13,0,15.03,0H31.03c.28,0,.5,.22,.5,.5s-.22,.5-.5,.5H15.03c-2.35,0-4.26,1.91-4.26,4.26s1.91,4.26,4.26,4.26h26.42c2.08,0,3.77-1.69,3.77-3.77v-.98c0-2.08-1.69-3.77-3.77-3.77h-7.78c-.28,0-.5-.22-.5-.5s.22-.5,.5-.5h7.78c2.63,0,4.77,2.14,4.77,4.77v.98c0,2.63-2.14,4.77-4.77,4.77Z"/>
      <g>
        <path class="cls-2" d="M4.78,45.31h-.05c-.1-.04-.14-.15-.11-.25l.83-2.07c.04-.1,.15-.15,.25-.11,0,0,0,0,0,0,.1,.04,.14,.15,.11,.25l-.83,2.07c-.03,.08-.11,.12-.19,.11Z"/>
        <path class="cls-2" d="M5.4,46.86h-.05c-.1-.04-.15-.15-.11-.25,0,0,0,0,0,0l1.65-4.12c.04-.1,.14-.14,.24-.11,0,0,0,0,0,0,.1,.04,.15,.15,.11,.25,0,0,0,0,0,0l-1.65,4.12c-.03,.08-.11,.13-.2,.12Z"/>
      </g>
    </g>
  </g>
</svg>