<?xml version="1.0" encoding="UTF-8"?>
<svg id="Layer_2" data-name="Layer 2" xmlns="http://www.w3.org/2000/svg" viewBox="0 0 63.91 75.77">
  <defs>
    <style>
      .cls-1 {
        fill: #000201;
      }

      .cls-2, .cls-3 {
        fill: #efa500;
      }

      .cls-4 {
        fill: #fcdc3f;
      }

      .cls-5 {
        fill: #fff;
      }

      .cls-6 {
        fill: #fff0b3;
      }

      .cls-7 {
        fill: #fcf6db;
      }

      .cls-8 {
        fill: #fdfeff;
      }

      .cls-9 {
        fill: #b8d6dd;
      }

      .cls-10 {
        fill: #dbefff;
      }

      .cls-11 {
        fill: #93b4be;
      }

      .cls-12 {
        fill: #6d929b;
      }

      .cls-13 {
        fill: #5ccce8;
      }

      .cls-3 {
        opacity: .51;
      }
    </style>
  </defs>
  <g id="Layer_3" data-name="Layer 3">
    <g>
      <polyline class="cls-11" points="27.38 12.3 27.38 8.76 36.53 8.76 36.53 12.3"/>
      <rect class="cls-12" x="27.38" y="8.76" width="9.14" height="1.77"/>
      <path class="cls-1" d="M36.53,12.8c-.28,0-.5-.22-.5-.5v-3.04h-8.14v3.04c0,.28-.22,.5-.5,.5s-.5-.22-.5-.5v-3.54c0-.28,.22-.5,.5-.5h9.14c.28,0,.5,.22,.5,.5v3.54c0,.28-.22,.5-.5,.5Z"/>
      <path class="cls-3" d="M61.61,46.27h0c-.99,0-1.78-.81-1.78-1.79,.01-2.9-.42-5.76-1.28-8.52-.29-.94,.23-1.94,1.17-2.24,.94-.29,1.94,.23,2.24,1.17,.97,3.11,1.46,6.34,1.45,9.61,0,.98-.8,1.78-1.78,1.78Z"/>
      <circle class="cls-4" cx="31.95" cy="43.82" r="31.45"/>
      <circle class="cls-10" cx="31.95" cy="43.82" r="24.14"/>
      <circle class="cls-5" cx="31.95" cy="43.82" r="5.19"/>
      <polyline class="cls-11" points="50.1 18.3 53.24 15.16 56.95 18.88 54.45 21.38"/>
      <polyline class="cls-11" points="13.54 18.03 10.93 15.42 7.21 19.14 9.46 21.38"/>
      <rect class="cls-11" x="22.36" y=".5" width="19.19" height="8.2"/>
      <g>
        <path class="cls-1" d="M16.12,56.11h-.06c-.12-.05-.17-.18-.13-.3l.99-2.46c.05-.12,.18-.17,.29-.13,0,0,0,0,0,0,.12,.05,.17,.18,.13,.29l-.99,2.46c-.04,.09-.13,.15-.23,.13Z"/>
        <path class="cls-1" d="M16.86,57.95h-.06c-.12-.05-.17-.18-.13-.3,0,0,0,0,0,0l1.97-4.91c.04-.11,.17-.17,.28-.13,0,0,0,0,0,0,.12,.05,.17,.18,.13,.29,0,0,0,0,0,0l-1.97,4.91c-.04,.09-.13,.15-.23,.14Z"/>
      </g>
      <path class="cls-13" d="M40.51,25.2c7.73,3.67,12.51,11.6,11.91,20.18-.54,7.66-5.68,14.65-12.84,17.45-4.86,1.9-10.17,1.84-15.04,.02-1.94-.72-2.78,2.38-.85,3.1,9.14,3.42,19.79,.82,26.19-6.59s7.52-17.38,3.44-25.88c-2.32-4.82-6.35-8.75-11.17-11.04-1.86-.88-3.49,1.89-1.62,2.77h0Z"/>
      <path class="cls-1" d="M8.46,49.91c-.23,0-.43-.15-.49-.38-.44-1.86-.66-3.78-.66-5.71,0-7.08,3.05-13.82,8.37-18.5,.21-.18,.52-.16,.71,.04,.18,.21,.16,.52-.04,.71-5.1,4.49-8.03,10.96-8.03,17.75,0,1.85,.21,3.69,.64,5.48,.06,.27-.1,.54-.37,.6-.04,0-.08,.01-.12,.01Z"/>
      <path class="cls-1" d="M31.95,49.51c-3.14,0-5.69-2.55-5.69-5.69s2.55-5.69,5.69-5.69,5.69,2.55,5.69,5.69-2.55,5.69-5.69,5.69Zm0-10.39c-2.59,0-4.69,2.11-4.69,4.69s2.11,4.69,4.69,4.69,4.69-2.11,4.69-4.69-2.11-4.69-4.69-4.69Z"/>
      <g>
        <circle class="cls-1" cx="31.95" cy="24.97" r="1.89"/>
        <circle class="cls-1" cx="31.95" cy="61.63" r="1.89"/>
      </g>
      <g>
        <circle class="cls-1" cx="50.28" cy="43.3" r="1.89"/>
        <circle class="cls-1" cx="13.63" cy="43.3" r="1.89"/>
      </g>
      <g>
        <path class="cls-1" d="M54.45,21.88c-.13,0-.26-.05-.35-.15-.2-.2-.2-.51,0-.71l2.15-2.15-3.01-3.01-2.39,2.39c-.2,.2-.51,.2-.71,0s-.2-.51,0-.71l2.74-2.74c.2-.2,.51-.2,.71,0l3.72,3.72c.09,.09,.15,.22,.15,.35s-.05,.26-.15,.35l-2.5,2.5c-.1,.1-.23,.15-.35,.15Z"/>
        <path class="cls-1" d="M9.46,21.88c-.13,0-.26-.05-.35-.15l-2.5-2.5c-.2-.2-.2-.51,0-.71l3.72-3.72c.19-.19,.52-.19,.71,0l3.03,3.03c.2,.2,.2,.51,0,.71s-.51,.2-.71,0l-2.68-2.68-3.01,3.01,2.15,2.15c.2,.2,.2,.51,0,.71-.1,.1-.23,.15-.35,.15Z"/>
      </g>
      <path class="cls-1" d="M31.95,44.46c-.14,0-.27-.04-.39-.13-.28-.22-.34-.62-.12-.9l10.53-13.78c.22-.28,.62-.34,.9-.12,.28,.22,.34,.62,.12,.9l-10.53,13.78c-.13,.17-.32,.25-.51,.25Z"/>
      <path class="cls-1" d="M31.95,68.46c-10.03,0-18.98-5.99-22.8-15.27-.11-.26,.02-.55,.27-.65,.26-.1,.55,.02,.65,.27,3.66,8.9,12.25,14.65,21.87,14.65,13.04,0,23.64-10.61,23.64-23.64s-10.61-23.64-23.64-23.64c-4.69,0-9.23,1.37-13.12,3.97-.23,.15-.54,.09-.69-.14s-.09-.54,.14-.69c4.05-2.71,8.78-4.14,13.67-4.14,13.59,0,24.64,11.05,24.64,24.64s-11.05,24.64-24.64,24.64Z"/>
      <path class="cls-6" d="M3.72,35.8c-.2,0-.4-.03-.6-.1-.93-.33-1.41-1.35-1.08-2.28,1.75-4.89,4.75-9.28,8.69-12.68,.75-.65,1.87-.56,2.52,.18,.65,.75,.56,1.87-.18,2.52-3.47,3-6.12,6.87-7.66,11.18-.26,.73-.95,1.18-1.68,1.18Z"/>
      <path class="cls-6" d="M4.5,57.29c-.69,0-1.35-.4-1.64-1.08C.79,51.44,0,46.19,.55,41.02c.1-.98,.99-1.69,1.96-1.59,.98,.1,1.69,.98,1.58,1.96-.49,4.56,.22,9.19,2.04,13.4,.39,.9-.02,1.96-.93,2.35-.23,.1-.47,.15-.71,.15Z"/>
      <path class="cls-1" d="M31.95,75.77C14.33,75.77,0,61.44,0,43.82c0-5.41,1.38-10.75,3.98-15.46,.13-.24,.44-.33,.68-.2,.24,.13,.33,.44,.2,.68-2.52,4.56-3.86,9.73-3.86,14.97,0,17.07,13.89,30.95,30.95,30.95,.28,0,.5,.22,.5,.5s-.22,.5-.5,.5Z"/>
      <path class="cls-7" d="M17.31,19.99c-.55,0-1.09-.25-1.44-.73-.58-.8-.4-1.91,.39-2.49,2.21-1.61,4.8-2.77,7.47-3.34,.96-.21,1.91,.4,2.12,1.37,.21,.96-.4,1.91-1.37,2.12-2.19,.47-4.31,1.42-6.13,2.74-.32,.23-.68,.34-1.05,.34Z"/>
      <path class="cls-1" d="M6.64,25.65c-.1,0-.21-.03-.3-.1-.22-.16-.27-.48-.11-.7,2.87-3.89,6.65-7.13,10.92-9.36,.24-.13,.55-.03,.67,.21,.13,.24,.03,.55-.21,.67-4.14,2.17-7.8,5.3-10.58,9.07-.1,.13-.25,.2-.4,.2Z"/>
      <path class="cls-9" d="M39.49,3.69h-7.68c-.99,0-1.78-.8-1.78-1.78s.8-1.78,1.78-1.78h7.68c.99,0,1.78,.8,1.78,1.78s-.8,1.78-1.78,1.78Z"/>
      <path class="cls-1" d="M41.55,9.2H22.36c-.28,0-.5-.22-.5-.5V.5c0-.28,.22-.5,.5-.5h3.36c.28,0,.5,.22,.5,.5s-.22,.5-.5,.5h-2.86v7.2h18.19V1h-12.04c-.28,0-.5-.22-.5-.5s.22-.5,.5-.5h12.54c.28,0,.5,.22,.5,.5V8.7c0,.28-.22,.5-.5,.5Z"/>
      <path class="cls-1" d="M31.95,6.3h-9.6c-.2,0-.36-.16-.36-.36s.16-.36,.36-.36h9.6c.2,0,.36,.16,.36,.36s-.16,.36-.36,.36Z"/>
      <path class="cls-2" d="M48.3,69.47c-.62,0-1.22-.32-1.55-.9-.49-.86-.19-1.95,.66-2.44,4.04-2.31,7.5-6.43,10.28-12.25,.43-.89,1.49-1.27,2.38-.84,.89,.43,1.26,1.49,.84,2.38-3.1,6.48-7.05,11.12-11.73,13.8-.28,.16-.58,.24-.88,.24Z"/>
      <path class="cls-1" d="M36.81,75.4c-.24,0-.46-.18-.49-.42-.04-.27,.14-.53,.42-.57,15.17-2.35,26.18-15.21,26.18-30.59,0-17.07-13.89-30.95-30.96-30.95-3.67,0-7.27,.64-10.68,1.89-.26,.1-.55-.04-.64-.3-.09-.26,.04-.55,.3-.64,3.53-1.3,7.24-1.96,11.03-1.96,17.62,0,31.96,14.33,31.96,31.95,0,15.87-11.37,29.15-27.02,31.58-.03,0-.05,0-.08,0Z"/>
      <path class="cls-8" d="M22.39,30.75c.09-.13,.18-.26,.28-.39l-.28,.36c.37-.48,.8-.9,1.27-1.27l-.36,.28c.11-.09,.22-.17,.34-.25,.21-.11,.37-.26,.5-.46,.16-.17,.26-.37,.32-.6,.07-.24,.08-.47,.03-.71-.01-.24-.08-.46-.21-.66-.24-.38-.61-.71-1.06-.81l-.47-.06c-.32,0-.62,.08-.89,.24-.49,.34-.97,.71-1.4,1.14s-.8,.91-1.13,1.4c-.13,.2-.2,.42-.21,.66-.05,.24-.04,.47,.03,.71,.05,.23,.16,.43,.32,.6,.12,.19,.29,.35,.5,.46,.41,.22,.91,.33,1.37,.18l.42-.18c.27-.16,.48-.37,.64-.64h0Z"/>
      <path class="cls-8" d="M16.9,36.62c2.28,0,2.28-3.54,0-3.54s-2.28,3.54,0,3.54h0Z"/>
    </g>
  </g>
</svg>