<?xml version="1.0" encoding="UTF-8"?>
<svg id="Layer_2" data-name="Layer 2" xmlns="http://www.w3.org/2000/svg" viewBox="0 0 55.94 80.21">
  <defs>
    <style>
      .cls-1, .cls-2, .cls-3, .cls-4 {
        fill: #000201;
      }

      .cls-5 {
        fill: #fff;
      }

      .cls-6 {
        fill: #ff3e6c;
      }

      .cls-7 {
        fill: #8c8c8c;
      }

      .cls-8 {
        fill: #dbefff;
      }

      .cls-9, .cls-10, .cls-11 {
        fill: #d2eef3;
      }

      .cls-12 {
        fill: #85e4f9;
      }

      .cls-13 {
        fill: #555656;
      }

      .cls-14 {
        fill: #29b7ce;
      }

      .cls-15 {
        fill: #5ccce8;
      }

      .cls-2 {
        opacity: .19;
      }

      .cls-10 {
        opacity: .48;
      }

      .cls-11, .cls-3 {
        opacity: .4;
      }

      .cls-4 {
        opacity: .41;
      }
    </style>
  </defs>
  <g id="Layer_3" data-name="Layer 3">
    <g>
      <path class="cls-13" d="M17.63,79.79H50.54c0-4.26-3.45-7.71-7.71-7.71H14.29c-4.26,0-7.71,3.45-7.71,7.71h0s8.03,0,8.03,0"/>
      <path class="cls-11" d="M14.67,60.92c2.03,1.56,4.31,2.76,6.72,3.62,.75,.27,1.69-.3,1.86-1.06,.19-.85-.26-1.57-1.06-1.86-.28-.1-.56-.21-.84-.32-.07-.03-.55-.2-.16-.06-.14-.05-.28-.12-.41-.18-.54-.25-1.08-.51-1.6-.8-1.05-.57-2.05-1.23-2.99-1.96-.29-.22-.83-.24-1.17-.15-.35,.1-.73,.37-.9,.7-.19,.35-.28,.78-.15,1.17s.36,.65,.7,.9h0Z"/>
      <path class="cls-10" d="M28.56,65.8c2.54-.28,5.03-.81,7.43-1.66,.74-.26,1.32-1.05,1.06-1.86-.24-.73-1.06-1.34-1.86-1.06-1.12,.39-2.25,.73-3.4,.99-.57,.13-1.13,.25-1.71,.34-.29,.05-.57,.09-.86,.14-.37,.06,.21-.02-.13,.02-.18,.02-.35,.04-.53,.06-.78,.09-1.55,.63-1.51,1.51,.03,.75,.67,1.61,1.51,1.51h0Z"/>
      <path class="cls-9" d="M41.48,60.36c2.39-1.94,4.68-4.27,5.47-7.33,.2-.77-.25-1.68-1.06-1.86s-1.65,.24-1.86,1.06c-.09,.34-.2,.68-.33,1.01-.07,.19-.02-.02,.03-.07-.05,.05-.08,.17-.11,.24-.08,.16-.16,.31-.24,.47-.16,.29-.34,.58-.53,.85-.1,.14-.19,.31-.31,.43,.12-.12,.13-.17,0-.01-.06,.07-.11,.14-.17,.21-.9,1.07-1.96,2.01-3.04,2.89-.62,.5-.56,1.63,0,2.14,.66,.6,1.48,.53,2.14,0h0Z"/>
      <path class="cls-3" d="M15.14,75.07h29.68c1.95,0,1.95-3.03,0-3.03H15.14c-1.95,0-1.95,3.03,0,3.03h0Z"/>
      <path class="cls-9" d="M21.8,67.87c3.76,1.48,8.14,1.44,11.87-.12,.75-.32,1.29-1,1.06-1.86-.2-.71-1.1-1.37-1.86-1.06-3.33,1.4-6.9,1.44-10.26,.12-.76-.3-1.66,.33-1.86,1.06-.24,.86,.29,1.56,1.06,1.86h0Z"/>
      <path class="cls-13" d="M51.91,29.42h1.3v14.47h-1.3c-1.63,0-2.95-1.32-2.95-2.95v-8.57c0-1.63,1.32-2.95,2.95-2.95Z" transform="translate(102.16 73.31) rotate(-180)"/>
      <path class="cls-13" d="M3.38,30.41c.54-.61,1.33-1,2.21-1h1.3v14.47h-1.3c-1.63,0-2.95-1.32-2.95-2.95v-8.57"/>
      <path class="cls-7" d="M27.79,46.31h6.06c2.6,0,4.71,2.11,4.71,4.71h0c0,2.6-2.11,4.71-4.71,4.71h-11.86c-2.6,0-4.71-2.11-4.71-4.71h0c0-2.6,2.11-4.71,4.71-4.71h2.65"/>
      <path class="cls-8" d="M36.87,12.18s-1.55,9.13-8.92,9.13-8.92-9.13-8.92-9.13c0,0,4.61-1.74,9.54-1.74s8.31,1.74,8.31,1.74Z"/>
      <path class="cls-13" d="M21.18,27.02h15.16c4.74,0,8.58,3.35,8.58,7.49h0c0,4.13-3.84,7.49-8.58,7.49H19.51c-4.74,0-8.58-3.35-8.58-7.49h0c0-3.7,3.08-6.78,7.13-7.38"/>
      <g>
        <circle class="cls-12" cx="19.71" cy="34.77" r="3.52"/>
        <circle class="cls-12" cx="36.14" cy="34.77" r="3.52"/>
      </g>
      <g>
        <path class="cls-1" d="M11.17,48.3h-.05c-.1-.03-.16-.13-.13-.23l.62-2.16c.03-.1,.13-.16,.23-.13,0,0,0,0,0,0,.1,.03,.16,.13,.13,.23l-.62,2.16c-.02,.08-.1,.13-.18,.13Z"/>
        <path class="cls-1" d="M11.95,49.79h-.05c-.1-.03-.16-.13-.13-.23,0,0,0,0,0,0l1.23-4.3c.03-.1,.13-.16,.23-.13,0,0,0,0,0,0,.1,.03,.16,.13,.13,.23,0,0,0,0,0,0l-1.23,4.3c-.02,.08-.1,.14-.18,.14Z"/>
      </g>
      <path class="cls-1" d="M10.22,56.45c-.16,0-.33-.08-.42-.23-2.23-3.47-3.41-7.49-3.41-11.64v-13.12c0-4.63,1.45-9.04,4.19-12.76,.16-.22,.48-.27,.7-.11,.22,.16,.27,.48,.11,.7-2.61,3.54-3.99,7.75-3.99,12.17v13.12c0,3.95,1.12,7.79,3.25,11.09,.15,.23,.08,.54-.15,.69-.08,.05-.18,.08-.27,.08Z"/>
      <path class="cls-1" d="M36.34,42.41H19.51c-4.96,0-9-3.55-9-7.9,0-3.87,3.15-7.15,7.49-7.79,.22-.03,.44,.12,.48,.35,.03,.23-.12,.44-.35,.48-3.92,.58-6.77,3.51-6.77,6.96,0,3.9,3.66,7.07,8.17,7.07h16.83c4.5,0,8.16-3.17,8.16-7.07s-3.66-7.07-8.16-7.07h-15.16c-.23,0-.42-.19-.42-.42s.19-.42,.42-.42h15.16c4.96,0,9,3.55,9,7.9s-4.04,7.9-9,7.9Z"/>
      <path class="cls-1" d="M27.92,10.58c-.23,0-.42-.19-.42-.42V5.24c0-.23,.19-.42,.42-.42s.42,.19,.42,.42v4.92c0,.23-.19,.42-.42,.42Z"/>
      <path class="cls-1" d="M2.64,39.21c-1.46,0-2.64-1.18-2.64-2.64s1.18-2.64,2.64-2.64v5.27Z"/>
      <path class="cls-1" d="M53.3,39.21c1.46,0,2.64-1.18,2.64-2.64s-1.18-2.64-2.64-2.64v5.27Z"/>
      <path class="cls-1" d="M6.89,44.31h-1.3c-1.86,0-3.37-1.51-3.37-3.37v-8.57c0-.23,.19-.42,.42-.42s.42,.19,.42,.42v8.57c0,1.4,1.14,2.53,2.53,2.53h.88v-13.64h-.88c-.72,0-1.42,.31-1.9,.85-.15,.17-.42,.19-.59,.04-.17-.15-.19-.42-.04-.59,.64-.72,1.56-1.14,2.52-1.14h1.3c.23,0,.42,.19,.42,.42v14.47c0,.23-.19,.42-.42,.42Z"/>
      <path class="cls-1" d="M50.26,44.31h-1.3c-.23,0-.42-.19-.42-.42v-14.47c0-.23,.19-.42,.42-.42h1.3c1.86,0,3.37,1.51,3.37,3.37v8.57c0,1.86-1.51,3.37-3.37,3.37Zm-.88-.84h.88c1.4,0,2.53-1.14,2.53-2.53v-8.57c0-1.4-1.14-2.53-2.53-2.53h-.88v13.64Z"/>
      <path class="cls-1" d="M21.13,70.12c-.23,0-.42-.19-.42-.42v-4.97c0-.23,.19-.42,.42-.42s.42,.19,.42,.42v4.97c0,.23-.19,.42-.42,.42Z"/>
      <path class="cls-1" d="M34.72,72.25c-.23,0-.42-.19-.42-.42v-7.1c0-.23,.19-.42,.42-.42s.42,.19,.42,.42v7.1c0,.23-.19,.42-.42,.42Z"/>
      <path class="cls-1" d="M50.54,80.21H17.63c-.23,0-.42-.19-.42-.42s.19-.42,.42-.42H50.11c-.22-3.83-3.4-6.87-7.28-6.87H14.29c-3.88,0-7.06,3.05-7.28,6.87h7.6c.23,0,.42,.19,.42,.42s-.19,.42-.42,.42H6.58c-.23,0-.42-.19-.42-.42,0-4.48,3.65-8.13,8.13-8.13h28.54c4.48,0,8.13,3.65,8.13,8.13,0,.23-.19,.42-.42,.42Z"/>
      <path class="cls-1" d="M37.91,49.67h-15c-.23,0-.42-.19-.42-.42s.19-.42,.42-.42h15c.23,0,.42,.19,.42,.42s-.19,.42-.42,.42Z"/>
      <path class="cls-4" d="M24.18,49.67h-6.55c-.23,0-.42-.19-.42-.42s.19-.42,.42-.42h6.55c.23,0,.42,.19,.42,.42s-.19,.42-.42,.42Z"/>
      <path class="cls-4" d="M37.91,52.65h-8.14c-.23,0-.42-.19-.42-.42s.19-.42,.42-.42h8.14c.23,0,.42,.19,.42,.42s-.19,.42-.42,.42Z"/>
      <path class="cls-1" d="M30.72,52.65h-13.09c-.23,0-.42-.19-.42-.42s.19-.42,.42-.42h13.09c.23,0,.42,.19,.42,.42s-.19,.42-.42,.42Z"/>
      <path class="cls-15" d="M21.31,17.67c1.4,2.6,4.39,3.76,7.22,3.62,.53-.03,1.03-.45,1.01-1.01-.02-.52-.44-1.04-1.01-1.01-.32,.02-.64,.02-.96,0-.15,0-.3-.02-.45-.04-.19-.02,.12,.02-.07,0-.07-.01-.15-.02-.22-.04-.6-.11-1.19-.29-1.65-.52-.53-.27-.85-.49-1.21-.82-.19-.18-.37-.37-.53-.58,.09,.11-.02-.03-.05-.07-.04-.05-.07-.11-.11-.16-.08-.12-.15-.25-.22-.38-.25-.47-.93-.65-1.38-.36-.47,.3-.63,.88-.36,1.38h0Z"/>
      <path class="cls-1" d="M23.13,20.16c-.08,0-.16-.02-.23-.07-2.5-1.68-4-4.49-4-7.5,0-.23,.19-.42,.42-.42s.42,.19,.42,.42c0,2.73,1.36,5.28,3.63,6.8,.19,.13,.24,.39,.11,.58-.08,.12-.21,.19-.35,.19Z"/>
      <path class="cls-1" d="M27.92,21.61c-.98,0-1.94-.15-2.85-.46-.22-.07-.34-.31-.27-.53,.07-.22,.31-.34,.53-.26,.83,.28,1.7,.42,2.59,.42,2.34,0,4.57-1,6.12-2.75,.15-.17,.42-.19,.59-.03,.17,.15,.19,.42,.03,.59-1.71,1.93-4.17,3.03-6.75,3.03Z"/>
      <path class="cls-3" d="M17.77,42.12h10.21c1.3,0,1.3-2.02,0-2.02h-10.21c-1.3,0-1.3,2.02,0,2.02h0Z"/>
      <path class="cls-3" d="M33.11,42.12h1.57c.53,0,1.03-.46,1.01-1.01s-.44-1.01-1.01-1.01h-.07c-.53,0-1.03,.46-1.01,1.01s.44,1.01,1.01,1.01h1.57c.53,0,1.03-.46,1.01-1.01s-.44-1.01-1.01-1.01h-1.57c-.53,0-1.03,.46-1.01,1.01s.44,1.01,1.01,1.01h.07c.53,0,1.03-.46,1.01-1.01s-.44-1.01-1.01-1.01h-1.57c-.53,0-1.03,.46-1.01,1.01s.44,1.01,1.01,1.01h0Z"/>
      <path class="cls-14" d="M16.55,35.19c.06,1.27,1.12,2.3,2.32,2.59,1.12,.27,2.4-.08,3.14-.99,.17-.21,.3-.43,.3-.71,0-.25-.11-.54-.3-.71-.37-.34-1.07-.44-1.43,0-.05,.07-.11,.13-.17,.19-.03,.03-.07,.06-.11,.1-.1,.1,.04-.05,.07-.05-.06,0-.16,.1-.22,.14-.03,.02-.1,.04-.13,.06,.02-.02,.21-.08,.08-.04-.08,.03-.16,.05-.25,.07-.04,0-.1,.03-.14,.03,.03,0,.24-.02,.1-.01-.1,0-.19,0-.29,0-.03,0-.09,0-.12-.01,.06,.03,.24,.04,.06,0-.09-.02-.17-.04-.26-.07-.04-.01-.07-.03-.11-.04,.08,.02,.2,.09,.05,.02-.08-.04-.16-.08-.23-.13-.03-.02-.06-.05-.1-.07,.07,.03,.16,.13,.04,.03-.07-.06-.13-.13-.19-.19-.09-.09,.03,.02,.04,.06-.02-.04-.06-.08-.08-.13-.02-.03-.04-.07-.06-.1-.06-.1,.07,.22,.02,.05-.01-.04-.02-.08-.03-.11-.06-.2,.02,.24,0,.03-.02-.53-.45-1.03-1.01-1.01-.53,.02-1.03,.44-1.01,1.01h0Z"/>
      <g>
        <path class="cls-1" d="M19.71,38.63c-2.28,0-4.13-1.85-4.13-4.13s1.85-4.13,4.13-4.13,4.13,1.85,4.13,4.13-1.85,4.13-4.13,4.13Zm0-7.05c-1.61,0-2.92,1.31-2.92,2.92s1.31,2.92,2.92,2.92,2.92-1.31,2.92-2.92-1.31-2.92-2.92-2.92Z"/>
        <path class="cls-1" d="M36.14,38.63c-2.28,0-4.13-1.85-4.13-4.13s1.85-4.13,4.13-4.13,4.13,1.85,4.13,4.13-1.85,4.13-4.13,4.13Zm0-7.05c-1.61,0-2.92,1.31-2.92,2.92s1.31,2.92,2.92,2.92,2.92-1.31,2.92-2.92-1.31-2.92-2.92-2.92Z"/>
      </g>
      <path class="cls-2" d="M24.18,55.97h8.18c1.3,0,1.3-2.02,0-2.02h-8.18c-1.3,0-1.3,2.02,0,2.02h0Z"/>
      <path class="cls-1" d="M33.85,56.24h-11.86c-2.88,0-5.21-2.34-5.21-5.21s2.34-5.21,5.21-5.21h2.65c.28,0,.5,.22,.5,.5s-.22,.5-.5,.5h-2.65c-2.32,0-4.21,1.89-4.21,4.21s1.89,4.21,4.21,4.21h11.86c2.32,0,4.21-1.89,4.21-4.21s-1.89-4.21-4.21-4.21h-6.06c-.28,0-.5-.22-.5-.5s.22-.5,.5-.5h6.06c2.88,0,5.21,2.34,5.21,5.21s-2.34,5.21-5.21,5.21Z"/>
      <path class="cls-15" d="M32.09,12.8c.51,.12,1.01,.26,1.51,.41s.98,.29,1.44,.48l-.24-.1c.06,.03,.11,.06,.16,.1l-.2-.16s.05,.04,.06,.07l-.16-.2s.03,.05,.05,.08l-.1-.24s.03,.08,.03,.13l-.04-.27s0,.09,0,.14l.04-.27c-.02,.11-.05,.22-.09,.32l.1-.24c-.09,.2-.19,.39-.24,.6-.08,.3-.07,.55-.02,.85,.04,.24,.26,.49,.46,.6,.22,.13,.53,.18,.78,.1s.48-.23,.6-.46c.13-.25,.15-.5,.1-.78v-.05c0,.09,.01,.18,.03,.27,0-.06,0-.1,0-.16l-.04,.27c.02-.11,.06-.21,.1-.31l-.1,.24c.09-.22,.21-.43,.25-.67,.07-.38,.06-.77-.14-1.11-.3-.53-.86-.69-1.4-.88-.79-.27-1.6-.5-2.41-.7-.51-.12-1.12,.16-1.24,.7s.16,1.11,.7,1.24h0Z"/>
      <path class="cls-1" d="M27.92,66.04c-6.52,0-12.61-2.91-16.71-7.99-.14-.18-.12-.44,.06-.59,.18-.15,.44-.12,.59,.06,3.94,4.88,9.79,7.68,16.05,7.68,11.37,0,20.61-9.25,20.61-20.61v-13.12c0-11.37-9.25-20.61-20.61-20.61-5.76,0-11.1,2.31-15.04,6.52-.16,.17-.42,.18-.59,.02-.17-.16-.18-.42-.02-.59,4.04-4.31,9.75-6.78,15.65-6.78,11.83,0,21.45,9.62,21.45,21.45v13.12c0,11.83-9.62,21.45-21.45,21.45Z"/>
      <path class="cls-1" d="M35.51,17.09c-.07,0-.14-.02-.2-.05-.2-.11-.28-.36-.17-.57,.64-1.19,.98-2.53,.98-3.88,0-.23,.19-.42,.42-.42s.42,.19,.42,.42c0,1.49-.37,2.97-1.08,4.28-.08,.14-.22,.22-.37,.22Z"/>
      <path class="cls-5" d="M23.01,14.51c.32-.1,.65-.17,.98-.21l-.27,.04c.12-.02,.24-.03,.36-.04,.14,0,.27-.02,.39-.09,.13-.04,.23-.11,.32-.21,.1-.09,.17-.2,.21-.32,.06-.12,.09-.25,.09-.39-.01-.26-.1-.53-.3-.71s-.45-.32-.71-.3c-.54,.04-1.09,.13-1.61,.29-.25,.07-.47,.24-.6,.46-.07,.12-.11,.24-.12,.38-.03,.13-.02,.27,.02,.4,.08,.24,.23,.48,.46,.6s.51,.18,.78,.1h0Z"/>
      <path class="cls-5" d="M26.8,13.95c1.3,0,1.3-2.02,0-2.02s-1.3,2.02,0,2.02h0Z"/>
      <path class="cls-5" d="M19.71,34.36c1.3,0,1.3-2.02,0-2.02s-1.3,2.02,0,2.02h0Z"/>
      <path class="cls-5" d="M35.62,34.36c1.3,0,1.3-2.02,0-2.02s-1.3,2.02,0,2.02h0Z"/>
      <path class="cls-1" d="M27.98,24.27c-6.3,0-11.43-4.54-11.43-10.12,0-.23,.19-.42,.42-.42s.42,.19,.42,.42c0,5.12,4.75,9.28,10.59,9.28s10.59-4.16,10.59-9.28c0-.23,.19-.42,.42-.42s.42,.19,.42,.42c0,5.58-5.13,10.12-11.43,10.12Z"/>
      <path class="cls-1" d="M7.72,50.39c-.15,0-.3-.08-.37-.23-.1-.21-.02-.46,.19-.56l1.2-.61V28.19l-1.41-1.41c-.16-.16-.16-.43,0-.59,.16-.16,.43-.16,.59,0l1.54,1.54c.08,.08,.12,.19,.12,.3v21.24c0,.16-.09,.3-.23,.37l-1.43,.72c-.06,.03-.12,.04-.19,.04Z"/>
      <path class="cls-1" d="M48.09,50.39c-.06,0-.13-.01-.19-.04l-1.43-.72c-.14-.07-.23-.22-.23-.37V28.01c0-.11,.04-.22,.12-.3l1.54-1.54c.16-.16,.43-.16,.59,0,.16,.16,.16,.43,0,.59l-1.41,1.41v20.81l1.2,.61c.21,.1,.29,.36,.19,.56-.07,.15-.22,.23-.37,.23Z"/>
      <g>
        <path class="cls-1" d="M38.99,62.66c-.1,0-.21-.04-.29-.11l-3.36-3.17h-9.79c-.23,0-.42-.19-.42-.42s.19-.42,.42-.42h9.95c.11,0,.21,.04,.29,.11l3.48,3.28c.17,.16,.18,.42,.02,.59-.08,.09-.19,.13-.3,.13Z"/>
        <path class="cls-1" d="M16.49,62.66c-.11,0-.21-.04-.3-.12-.16-.16-.16-.43,0-.59l3.28-3.28c.08-.08,.18-.12,.3-.12h4.08c.23,0,.42,.19,.42,.42s-.19,.42-.42,.42h-3.9l-3.16,3.16c-.08,.08-.19,.12-.3,.12Z"/>
      </g>
      <g>
        <path class="cls-1" d="M45.09,80.21c-.1,0-.21-.04-.29-.11l-3.36-3.17h-9.79c-.23,0-.42-.19-.42-.42s.19-.42,.42-.42h9.96c.11,0,.21,.04,.29,.11l3.48,3.28c.17,.16,.18,.42,.02,.59-.08,.09-.19,.13-.3,.13Z"/>
        <path class="cls-1" d="M22.59,80.21c-.11,0-.21-.04-.3-.12-.16-.16-.16-.43,0-.59l3.28-3.28c.08-.08,.18-.12,.3-.12h4.08c.23,0,.42,.19,.42,.42s-.19,.42-.42,.42h-3.9l-3.16,3.16c-.08,.08-.19,.12-.3,.12Z"/>
      </g>
      <circle class="cls-1" cx="21.13" cy="61.35" r=".93"/>
      <circle class="cls-1" cx="34.36" cy="61.35" r=".93"/>
      <circle class="cls-6" cx="27.92" cy="3.95" r="3.53"/>
      <path class="cls-1" d="M27.92,7.9c-2.18,0-3.95-1.77-3.95-3.95s1.77-3.95,3.95-3.95,3.95,1.77,3.95,3.95-1.77,3.95-3.95,3.95Zm0-7.06c-1.72,0-3.11,1.4-3.11,3.11s1.4,3.11,3.11,3.11,3.11-1.4,3.11-3.11-1.4-3.11-3.11-3.11Z"/>
    </g>
  </g>
</svg>