<?xml version="1.0" encoding="UTF-8"?>
<svg id="Layer_2" data-name="Layer 2" xmlns="http://www.w3.org/2000/svg" viewBox="0 0 59.3 79.77">
  <defs>
    <style>
      .cls-1, .cls-2 {
        fill: #f2f2ff;
      }

      .cls-3 {
        fill: #f9a06e;
      }

      .cls-4 {
        fill: #f9aa41;
      }

      .cls-5 {
        fill: #000201;
      }

      .cls-6 {
        fill: #fdc6a2;
      }

      .cls-7 {
        fill: #fcdc3f;
      }

      .cls-8 {
        fill: #fff;
      }

      .cls-9 {
        fill: #d2eef3;
      }

      .cls-10 {
        fill: #93b4be;
      }

      .cls-2 {
        opacity: .63;
      }
    </style>
  </defs>
  <g id="Layer_3" data-name="Layer 3">
    <g>
      <path class="cls-9" d="M13,78.55c.64-1.96,2.5-3.24,4.42-4.13,2.37-1.09,4.96-1.81,7.48-2.44,2.07-.52,1.19-3.73-.88-3.2-2.95,.74-5.96,1.62-8.69,2.97-2.51,1.24-4.65,3.21-5.53,5.92-.28,.85,.32,1.81,1.16,2.04,.9,.25,1.76-.3,2.04-1.16h0Z"/>
      <path class="cls-9" d="M51.54,77.66c-.89-2.71-3.02-4.68-5.53-5.92-2.73-1.35-5.74-2.23-8.69-2.97-2.07-.52-2.96,2.68-.88,3.2,2.52,.64,5.12,1.35,7.48,2.44,1.91,.88,3.77,2.16,4.42,4.13,.28,.85,1.15,1.4,2.04,1.16,.83-.23,1.44-1.19,1.16-2.04h0Z"/>
      <path class="cls-7" d="M55.07,40.91s3.3,22.3-9.83,30.16l-6.4-2.78v-5.03l4.18-21.67,12.04-.69Z"/>
      <path class="cls-4" d="M43.52,65.39c3.03-1.74,5.86-4.11,7.47-7.28,.39-.77,.23-1.84-.6-2.27-.76-.4-1.85-.23-2.27,.6-.18,.36-.38,.7-.59,1.04-.11,.17-.22,.33-.33,.5-.05,.07-.1,.15-.16,.22-.03,.04-.06,.09-.1,.13-.07,.1-.04,.06,.09-.12-.03,.13-.25,.32-.34,.42-.13,.15-.26,.3-.4,.45-.27,.29-.55,.58-.85,.85s-.57,.51-.87,.76c-.08,.07-.17,.14-.26,.21-.24,.19,.2-.15,.03-.02s-.32,.24-.49,.36c-.65,.47-1.34,.9-2.03,1.3-.75,.43-1.08,1.52-.6,2.27s1.47,1.06,2.27,.6h0Z"/>
      <path class="cls-7" d="M9.41,42.63l-.15,.78c-.98,5.09-.99,10.28-.12,15.34l.57,2.8c.53,2.24,1.24,4.45,2.1,6.6s1.41,4.2,1.03,5.35c0,0,7.38-3.56,7.38-10.43"/>
      <path class="cls-7" d="M51.76,43.44l-42.76,.71V27.97c0-12.55,10.46-22.73,23.36-22.73h0c12.9,0,23.36,10.18,23.36,22.73l.48,4.1-4.43,11.37Z"/>
      <path class="cls-6" d="M52.94,41.73c3.24,0,5.86-2.62,5.86-5.86s-2.62-5.86-5.86-5.86h-1.8"/>
      <path class="cls-6" d="M9.92,30.01c-3.24,0-5.86,2.62-5.86,5.86,0,3.24,2.62,5.86,5.86,5.86"/>
      <path class="cls-6" d="M52.44,27.96v16.51c0,11.52-9.52,20.85-21.26,20.85h0c-11.74,0-21.26-9.34-21.26-20.85l-.34-16.47,11.97-.04,8.17-6.49,1.78,1.99c1.33,1.49,3.05,2.58,4.97,3.15l3.85,1.14,12.12,.22Z"/>
      <path class="cls-6" d="M36.25,64.99v1.77c0,2.5-1.08,4.87-2.96,6.52l-2.6,2.28-2.6-2.28c-1.88-1.65-2.96-4.02-2.96-6.52v-1.77"/>
      <g>
        <path class="cls-5" d="M51.82,79.77c-.28,0-.5-.22-.5-.5,0-4.63-6.2-8.76-15.07-10.03-.27-.04-.46-.29-.42-.57,.04-.27,.29-.46,.57-.42,9.38,1.35,15.93,5.88,15.93,11.02,0,.28-.22,.5-.5,.5Z"/>
        <path class="cls-5" d="M9.42,79.77c-.28,0-.5-.22-.5-.5,0-5.15,6.56-9.68,15.94-11.02,.28-.04,.53,.15,.57,.42,.04,.27-.15,.53-.42,.57-8.88,1.27-15.09,5.4-15.09,10.03,0,.28-.22,.5-.5,.5Z"/>
      </g>
      <path class="cls-5" d="M20.17,4.31c-.2,0-.39-.12-.46-.31-.1-.26,.02-.55,.28-.65,2.96-1.19,6.29-1.86,9.91-2.01,.29,0,.51,.2,.52,.48,.01,.28-.2,.51-.48,.52-3.5,.14-6.73,.8-9.58,1.94-.06,.02-.12,.04-.19,.04Z"/>
      <path class="cls-5" d="M6.43,18.53c-.06,0-.13-.01-.19-.04-.26-.1-.38-.4-.27-.65,2.2-5.37,5.51-9.52,9.84-12.33,.23-.15,.54-.09,.69,.15,.15,.23,.08,.54-.15,.69-4.16,2.7-7.34,6.69-9.46,11.87-.08,.19-.27,.31-.46,.31Z"/>
      <path class="cls-5" d="M4.06,28.19s-.02,0-.03,0c-.28-.01-.49-.25-.47-.53,0-.12,.17-3.06,1.39-6.99,.08-.26,.36-.41,.62-.33,.26,.08,.41,.36,.33,.63-1.18,3.8-1.34,6.72-1.35,6.75-.01,.27-.23,.47-.5,.47Z"/>
      <path class="cls-5" d="M13.45,14.52c-.11,0-.21-.03-.3-.1-.22-.17-.26-.48-.1-.7,.94-1.24,2.01-2.39,3.19-3.41,3.98-3.43,10.37-5.83,15.54-5.83,.28,0,.5,.22,.5,.5s-.22,.5-.5,.5c-4.95,0-11.07,2.3-14.88,5.59-1.13,.97-2.15,2.07-3.04,3.25-.1,.13-.25,.2-.4,.2Z"/>
      <path class="cls-5" d="M9.18,29.97c-.28,0-.5-.22-.5-.5v-2.69c0-3.65,.92-7.26,2.66-10.44,.13-.24,.44-.33,.68-.2,.24,.13,.33,.44,.2,.68-1.66,3.03-2.54,6.47-2.54,9.95v2.69c0,.28-.22,.5-.5,.5Z"/>
      <path class="cls-5" d="M9.92,42.23c-3.51,0-6.36-2.85-6.36-6.36s2.85-6.36,6.36-6.36c.28,0,.5,.22,.5,.5s-.22,.5-.5,.5c-2.96,0-5.36,2.4-5.36,5.36s2.4,5.36,5.36,5.36c.28,0,.5,.22,.5,.5s-.22,.5-.5,.5Z"/>
      <path class="cls-5" d="M52.94,42.23c-.28,0-.5-.22-.5-.5s.22-.5,.5-.5c2.96,0,5.36-2.4,5.36-5.36s-2.4-5.36-5.36-5.36c-.28,0-.5-.22-.5-.5s.22-.5,.5-.5c3.51,0,6.36,2.85,6.36,6.36s-2.85,6.36-6.36,6.36Z"/>
      <path class="cls-5" d="M31.77,3.68c-1.01,0-1.84-.83-1.84-1.84s.83-1.84,1.84-1.84,1.84,.83,1.84,1.84-.83,1.84-1.84,1.84Zm0-2.68c-.46,0-.84,.38-.84,.84s.38,.84,.84,.84,.84-.38,.84-.84-.38-.84-.84-.84Z"/>
      <circle class="cls-5" cx="30.3" cy="57.84" r="1.34"/>
      <path class="cls-8" d="M23.26,47.55h14.35c0,3.78-3.07,6.84-6.84,6.84h-.66c-3.78,0-6.84-3.07-6.84-6.84h0Z"/>
      <g>
        <path class="cls-5" d="M21.84,38.38c-.07,0-.15-.01-.22-.04-.33-.12-.51-.49-.38-.83,.79-2.15,3.31-3.43,5.51-2.81,.34,.1,.54,.45,.44,.8-.1,.34-.45,.54-.8,.44-1.55-.45-3.4,.5-3.95,2.01-.1,.26-.34,.42-.6,.42Z"/>
        <path class="cls-5" d="M40.52,38.38c-.26,0-.51-.16-.6-.42-.55-1.52-2.4-2.46-3.95-2.01-.35,.1-.7-.1-.8-.44-.1-.34,.1-.7,.44-.8,2.2-.63,4.73,.66,5.52,2.81,.12,.33-.05,.7-.38,.83-.07,.03-.15,.04-.22,.04Z"/>
      </g>
      <g>
        <path class="cls-5" d="M12.74,73.35c-.12,0-.24-.04-.33-.12-.15-.13-.21-.34-.14-.53,.21-.62,.2-2-1.01-5.01-.88-2.18-1.59-4.42-2.13-6.67-.06-.27,.1-.54,.37-.6,.27-.07,.54,.1,.6,.37,.52,2.21,1.22,4.4,2.08,6.53,.79,1.96,1.18,3.48,1.19,4.61,1.88-1.16,6.26-4.4,6.26-9.5,0-.28,.22-.5,.5-.5s.5,.22,.5,.5c0,7.11-7.35,10.73-7.67,10.88-.07,.03-.14,.05-.22,.05Z"/>
        <path class="cls-5" d="M9.03,58.6c-.24,0-.45-.17-.49-.42-.89-5.22-.85-10.44,.12-15.52l.15-.78c.05-.27,.32-.45,.58-.4,.27,.05,.45,.31,.4,.58l-.15,.78c-.95,4.96-.99,10.06-.12,15.16,.05,.27-.14,.53-.41,.58-.03,0-.06,0-.08,0Z"/>
      </g>
      <path class="cls-5" d="M39.27,69.44c-.28,0-.5-.22-.5-.5v-5.03c0-.28,.22-.5,.5-.5s.5,.22,.5,.5v5.03c0,.28-.22,.5-.5,.5Z"/>
      <path class="cls-5" d="M45.26,71.77c-.17,0-.33-.09-.43-.24-.14-.24-.07-.54,.17-.69,6.89-4.12,9.2-12.3,9.93-18.44,.03-.27,.29-.47,.56-.44,.27,.03,.47,.28,.44,.56-.76,6.36-3.18,14.84-10.41,19.18-.08,.05-.17,.07-.26,.07Z"/>
      <path class="cls-5" d="M55.67,50.3s-.02,0-.03,0c-.28-.02-.49-.25-.47-.53,.29-4.62-.16-8.12-.17-8.15-.04-.27,.16-.52,.43-.56,.27-.04,.53,.16,.56,.43,.02,.15,.47,3.62,.17,8.34-.02,.27-.24,.47-.5,.47Z"/>
      <rect class="cls-10" x=".79" y="27.69" width="6.48" height="16.25" rx="3.24" ry="3.24"/>
      <path class="cls-5" d="M30.77,54.56h-.66c-4.05,0-7.34-3.29-7.34-7.34,0-.28,.22-.5,.5-.5h14.35c.28,0,.5,.22,.5,.5,0,4.05-3.29,7.34-7.34,7.34Zm-6.99-6.84c.26,3.26,2.99,5.84,6.32,5.84h.66c3.33,0,6.07-2.58,6.32-5.84h-13.31Z"/>
      <path class="cls-3" d="M40.8,31.24h8.06c.87,0,1.7-.76,1.66-1.66s-.73-1.66-1.66-1.66h-8.06c-.87,0-1.7,.76-1.66,1.66s.73,1.66,1.66,1.66h0Z"/>
      <path class="cls-3" d="M14.62,31.24c2.33,0,4.67-.05,6.95-.58,2.82-.66,5.25-2.13,6.98-4.46,.53-.72,.12-1.85-.6-2.27-.84-.49-1.74-.13-2.27,.6,.12-.16-.19,.23-.18,.22-.09,.11-.19,.22-.29,.32-.22,.23-.45,.43-.68,.64l-.13,.11c.1-.07,.1-.07,0,0-.11,.08-.22,.16-.34,.24-.23,.15-.46,.29-.7,.43-.26,.14-.53,.27-.8,.4-.16,.07,.15-.05-.13,.05-.15,.05-.3,.11-.45,.17-.53,.18-1.07,.33-1.62,.44-.26,.05-.52,.1-.78,.15-.13,.02-.26,.04-.39,.06,.36-.05-.15,.02-.17,.02-.52,.06-1.05,.1-1.57,.12-.95,.05-1.9,.05-2.85,.05-2.14,0-2.14,3.32,0,3.32h0Z"/>
      <path class="cls-5" d="M52.44,28.19h-11.36c-2.17,0-4.33-.53-6.23-1.54-.24-.13-.34-.43-.21-.68,.13-.24,.43-.34,.68-.21,1.76,.93,3.76,1.43,5.76,1.43h11.36c.28,0,.5,.22,.5,.5s-.22,.5-.5,.5Z"/>
      <path class="cls-5" d="M32.57,24.96c-.12,0-.24-.04-.33-.13-2.85-2.53-4.49-6.17-4.49-9.98,0-.28,.22-.5,.5-.5s.5,.22,.5,.5c0,3.52,1.51,6.89,4.15,9.23,.21,.18,.23,.5,.04,.71-.1,.11-.24,.17-.37,.17Z"/>
      <path class="cls-5" d="M17.32,28.76h-7.4c-.28,0-.5-.22-.5-.5s.22-.5,.5-.5h7.4c3.97,0,7.72-1.91,10.54-5.39,.17-.21,.49-.25,.7-.07,.21,.17,.25,.49,.07,.7-2.97,3.66-7.1,5.76-11.32,5.76Z"/>
      <g>
        <path class="cls-1" d="M18.09,19.11c.38-.65,.8-1.27,1.26-1.87l-.26,.34c.69-.89,1.47-1.72,2.31-2.46,.31-.27,.49-.77,.49-1.17s-.18-.89-.49-1.17-.73-.51-1.17-.49-.83,.18-1.17,.49c-1.51,1.33-2.81,2.93-3.83,4.67-.44,.75-.2,1.85,.6,2.27s1.8,.21,2.27-.6h0Z"/>
        <path class="cls-1" d="M14.83,24.36c2.14,0,2.14-3.32,0-3.32s-2.14,3.32,0,3.32h0Z"/>
      </g>
      <path class="cls-4" d="M36.64,8.9c3.88,.27,7.62,2.15,10.35,4.88s4.43,6.45,5.57,10.19c.62,2.04,3.83,1.17,3.2-.88-1.33-4.36-3.31-8.63-6.63-11.85s-7.82-5.33-12.49-5.65c-.9-.06-1.66,.81-1.66,1.66,0,.95,.76,1.6,1.66,1.66h0Z"/>
      <path class="cls-5" d="M56.08,31.19c-.28,0-.5-.22-.5-.5v-2.69c0-11.79-10.34-22.53-21.69-22.53-.28,0-.5-.22-.5-.5s.22-.5,.5-.5c11.87,0,22.69,11.22,22.69,23.53v2.69c0,.28-.22,.5-.5,.5Z"/>
      <path class="cls-2" d="M.73,30.74v5.52c0,.87,.76,1.7,1.66,1.66s1.66-.73,1.66-1.66v-5.52c0-.87-.76-1.7-1.66-1.66s-1.66,.73-1.66,1.66H.73Z"/>
      <path class="cls-5" d="M3.74,44.45c-2.06,0-3.74-1.68-3.74-3.74v-6.65c0-.28,.22-.5,.5-.5s.5,.22,.5,.5v6.65c0,1.51,1.23,2.74,2.74,2.74s2.74-1.23,2.74-2.74v-9.77c0-1.51-1.23-2.74-2.74-2.74s-2.74,1.23-2.74,2.74c0,.28-.22,.5-.5,.5s-.5-.22-.5-.5c0-2.06,1.68-3.74,3.74-3.74s3.74,1.68,3.74,3.74v9.77c0,2.06-1.68,3.74-3.74,3.74Z"/>
      <g>
        <path class="cls-5" d="M2.9,38.72h-.05c-.11-.03-.17-.14-.14-.24l.64-2.24c.03-.11,.14-.17,.24-.14,0,0,0,0,0,0,.11,.03,.17,.14,.14,.24l-.64,2.24c-.03,.08-.1,.14-.19,.14Z"/>
        <path class="cls-5" d="M3.71,40.26h-.05c-.11-.03-.17-.14-.14-.24,0,0,0,0,0,0l1.28-4.47c.03-.1,.13-.17,.24-.14,0,0,0,0,0,0,.11,.03,.17,.14,.14,.24,0,0,0,0,0,0l-1.28,4.46c-.02,.08-.1,.14-.19,.14Z"/>
      </g>
      <path class="cls-5" d="M29.92,58.29h-12.36c-7.91,0-14.34-6.44-14.34-14.35,0-.29,.24-.53,.53-.53s.53,.24,.53,.53c0,7.32,5.96,13.28,13.28,13.28h12.36c.29,0,.53,.24,.53,.53s-.24,.53-.53,.53Z"/>
      <path class="cls-5" d="M54.92,38.48c-.26,0-.48-.2-.5-.46,0-.06-.12-1.57,.89-2.62,.66-.69,1.64-1.01,2.88-.95,.28,.01,.49,.25,.48,.52-.01,.28-.23,.49-.52,.48-.93-.05-1.65,.17-2.1,.64-.7,.72-.62,1.84-.62,1.85,.02,.27-.18,.52-.46,.54-.01,0-.03,0-.04,0Z"/>
      <path class="cls-3" d="M25.73,68.04c2.07,.95,4.56,1.23,6.78,.68,.84-.21,1.43-1.2,1.16-2.04s-1.14-1.39-2.04-1.16c-.25,.06-.5,.11-.76,.14l.44-.06c-.82,.1-1.64,.08-2.46-.02l.44,.06c-.71-.1-1.41-.26-2.07-.54l.4,.17c-.07-.03-.14-.06-.21-.09-.42-.19-.82-.29-1.28-.17-.39,.11-.8,.4-.99,.76-.39,.73-.25,1.88,.6,2.27h0Z"/>
      <path class="cls-5" d="M31.18,65.82c-12,0-21.76-9.76-21.76-21.76v-9.45c0-.28,.22-.5,.5-.5s.5,.22,.5,.5v9.45c0,11.45,9.31,20.76,20.76,20.76s20.76-9.31,20.76-20.76v-7.97c0-.28,.22-.5,.5-.5s.5,.22,.5,.5v7.97c0,12-9.76,21.76-21.76,21.76Z"/>
      <path class="cls-5" d="M30.69,76.06c-.12,0-.24-.04-.33-.12l-2.6-2.28c-1.99-1.74-3.13-4.26-3.13-6.9v-1.77c0-.28,.22-.5,.5-.5s.5,.22,.5,.5v1.77c0,2.35,1.01,4.59,2.79,6.15l2.27,1.99,2.27-1.99c1.77-1.55,2.79-3.79,2.79-6.15v-1.77c0-.28,.22-.5,.5-.5s.5,.22,.5,.5v1.77c0,2.64-1.14,5.16-3.13,6.9l-2.6,2.28c-.09,.08-.21,.12-.33,.12Z"/>
    </g>
  </g>
</svg>