<?xml version="1.0" encoding="UTF-8"?>
<svg id="Layer_2" data-name="Layer 2" xmlns="http://www.w3.org/2000/svg" viewBox="0 0 74.89 66.39">
  <defs>
    <style>
      .cls-1 {
        fill: #000201;
      }

      .cls-2 {
        fill: #e3e3ee;
      }

      .cls-3 {
        fill: #67919b;
      }

      .cls-4 {
        fill: #c9c9d7;
      }

      .cls-5 {
        fill: #c8e2e8;
      }

      .cls-6 {
        fill: #366e77;
      }

      .cls-7 {
        fill: #93b4be;
      }

      .cls-8 {
        fill: #8686b2;
      }
    </style>
  </defs>
  <g id="Layer_3" data-name="Layer 3">
    <g>
      <path class="cls-3" d="M31.49,50.96c-8.82,0-15.99-7.19-15.99-16.03s7.17-16.03,15.99-16.03,15.99,7.19,15.99,16.03-7.17,16.03-15.99,16.03Zm0-25.52c-5.22,0-9.46,4.26-9.46,9.49s4.24,9.49,9.46,9.49,9.46-4.26,9.46-9.49-4.24-9.49-9.46-9.49Z"/>
      <path class="cls-7" d="M59.92,27.5c.26-.29,.53-.57,.82-.83l1.21-1.09-2.27-5.4-1.62,.09c-6.29,.32-11.66-4.5-11.99-10.8-.02-.4-.02-.79,0-1.2l.09-1.62-5.41-2.27-1.08,1.21c-2.26,2.5-5.37,3.77-8.49,3.77-2.74,0-5.47-.97-7.66-2.95-.29-.26-.56-.53-.83-.82l-1.08-1.21-5.4,2.27,.08,1.62c.33,6.29-4.5,11.66-10.79,11.99-.4,.02-.8,.02-1.2,0l-1.62-.09L.41,25.58l1.2,1.09c4.69,4.23,5.06,11.46,.83,16.15-.26,.29-.54,.56-.83,.82l-1.2,1.09,2.27,5.4,1.62-.08c6.29-.33,11.66,4.5,11.98,10.79,.03,.4,.03,.8,0,1.2l-.08,1.62,5.4,2.27,1.08-1.2c4.23-4.69,11.46-5.06,16.15-.83,.29,.26,.56,.54,.83,.83l1.08,1.2,5.41-2.27-.09-1.62c-.32-6.29,4.5-11.66,10.8-11.98,.39-.03,.79-.03,1.2,0l1.62,.08,2.27-5.4-1.21-1.09c-4.68-4.22-5.05-11.45-.82-16.14Zm-28.68,23.81c-8.96,0-16.21-7.26-16.21-16.21s7.26-16.21,16.21-16.21,16.21,7.27,16.21,16.21-7.27,16.21-16.21,16.21Z"/>
      <g>
        <path class="cls-1" d="M8.51,35.11h-.08c-.16-.05-.26-.22-.21-.38l1-3.5c.05-.17,.22-.26,.38-.22,0,0,0,0,0,0,.16,.05,.26,.22,.21,.38l-1.01,3.5c-.04,.13-.16,.22-.3,.21Z"/>
        <path class="cls-1" d="M9.78,37.52h-.08c-.17-.05-.26-.22-.22-.38,0,0,0,0,0,0l2-6.99c.04-.16,.21-.26,.37-.22,0,0,0,0,.01,0,.17,.05,.26,.22,.22,.38,0,0,0,0,0,0l-2,6.98c-.04,.13-.16,.22-.3,.22Z"/>
      </g>
      <path class="cls-1" d="M49.15,17.07c-.13,0-.27-.05-.37-.16-1.88-2.03-2.99-4.67-3.14-7.44-.02-.42-.02-.83,0-1.24l.07-1.27-4.76-2-.84,.94c-1.03,1.13-2.23,2.05-3.59,2.72-.25,.12-.55,.02-.67-.23-.12-.25-.02-.55,.23-.67,1.25-.61,2.35-1.45,3.29-2.49l1.08-1.2c.14-.16,.37-.21,.57-.13l5.41,2.27c.2,.08,.32,.28,.31,.49l-.09,1.62c-.02,.38-.02,.76,0,1.15,.13,2.53,1.15,4.95,2.87,6.81,.19,.2,.17,.52-.03,.71-.1,.09-.22,.13-.34,.13Z"/>
      <path class="cls-1" d="M40.83,66.39c-.14,0-.27-.06-.37-.17l-1.08-1.2c-.25-.27-.51-.54-.79-.79-2.17-1.96-4.98-2.96-7.89-2.81-2.92,.15-5.6,1.43-7.56,3.6l-1.08,1.2c-.14,.16-.37,.21-.57,.13l-5.4-2.27c-.19-.08-.32-.27-.31-.48l.08-1.62c.02-.38,.02-.76,0-1.14-.15-2.91-1.43-5.59-3.59-7.53-2.16-1.95-4.95-2.94-7.87-2.78l-1.63,.08c-.2,.02-.4-.11-.48-.31L.04,44.88c-.08-.2-.03-.42,.12-.56l1.2-1.09c.28-.25,.54-.51,.79-.79,.94-1.04,1.67-2.24,2.15-3.55,.1-.26,.39-.39,.64-.3,.26,.09,.39,.38,.3,.64-.53,1.43-1.32,2.74-2.35,3.88-.29,.32-.58,.6-.87,.86l-.93,.84,1.99,4.75,1.27-.06c3.17-.16,6.22,.91,8.59,3.04,2.36,2.13,3.75,5.05,3.92,8.22,.03,.42,.03,.84,0,1.25l-.06,1.27,4.75,1.99,.84-.93c2.14-2.37,5.07-3.76,8.25-3.93,3.19-.17,6.24,.92,8.6,3.06,.27,.24,.54,.51,.86,.86l.84,.94,4.76-1.99-.07-1.27c-.34-6.56,4.72-12.17,11.27-12.51,.41-.03,.83-.03,1.25,0l1.26,.06,2-4.75-.94-.85c-2.36-2.13-3.76-5.06-3.92-8.24-.16-3.18,.92-6.24,3.06-8.6,.28-.32,.58-.62,.86-.87l.94-.84-2-4.75-1.26,.07c-2.69,.13-5.38-.65-7.56-2.21-.22-.16-.28-.47-.12-.7,.16-.23,.47-.28,.7-.11,2.03,1.46,4.42,2.16,6.92,2.03l1.61-.09c.2,0,.41,.11,.49,.31l2.27,5.4c.08,.2,.03,.42-.13,.57l-1.21,1.09c-.26,.23-.52,.49-.78,.79-1.96,2.17-2.96,4.97-2.81,7.89,.15,2.92,1.42,5.6,3.59,7.55l1.21,1.09c.16,.14,.21,.37,.13,.57l-2.27,5.4c-.08,.19-.29,.32-.48,.31l-1.62-.08c-.39-.02-.77-.02-1.14,0-6.01,.31-10.64,5.45-10.33,11.46l.09,1.62c.01,.21-.11,.41-.31,.49l-5.41,2.27c-.06,.03-.13,.04-.19,.04Z"/>
      <path class="cls-1" d="M5.46,36.07s-.01,0-.02,0c-.28-.01-.49-.24-.48-.52,.07-1.91-.35-3.81-1.23-5.49-.13-.24-.03-.55,.21-.67,.25-.13,.55-.03,.67,.21,.96,1.84,1.42,3.91,1.35,5.99-.01,.27-.23,.48-.5,.48Z"/>
      <path class="cls-1" d="M2.73,28.19c-.14,0-.28-.06-.38-.17-.31-.36-.64-.7-.99-1.01l-1.2-1.09c-.16-.14-.21-.37-.12-.56l2.26-5.4c.08-.19,.27-.31,.49-.31l1.62,.09c.37,.02,.76,.02,1.15,0,1.99-.11,3.9-.75,5.54-1.87,.23-.15,.54-.1,.69,.13,.16,.23,.1,.54-.13,.69-1.79,1.22-3.88,1.92-6.06,2.04-.42,.02-.84,.02-1.24,0l-1.28-.07-1.99,4.75,.93,.85c.38,.34,.74,.71,1.07,1.1,.18,.21,.16,.52-.05,.71-.09,.08-.21,.12-.33,.12Z"/>
      <path class="cls-1" d="M13.47,16.96c-.12,0-.24-.04-.33-.13-.21-.18-.22-.5-.04-.71,1.94-2.17,2.93-4.96,2.78-7.86l-.08-1.62c-.01-.21,.11-.4,.3-.48l5.4-2.27c.2-.08,.42-.03,.57,.13l1.08,1.21c.25,.27,.51,.53,.79,.78,2.56,2.31,6.12,3.28,9.48,2.61,.27-.05,.53,.12,.59,.39,.05,.27-.12,.53-.39,.59-.77,.15-1.56,.23-2.34,.23-2.95,0-5.79-1.09-7.99-3.08-.3-.27-.59-.55-.86-.85l-.84-.94-4.75,2,.06,1.27c.17,3.17-.91,6.21-3.03,8.58-.1,.11-.24,.17-.37,.17Z"/>
      <path class="cls-6" d="M18.78,31.68c-.32,0-.65-.07-.96-.21-1.17-.53-1.68-1.91-1.15-3.08,2.61-5.72,8.37-9.42,14.66-9.42,1.28,0,2.33,1.04,2.33,2.33s-1.04,2.33-2.33,2.33c-4.47,0-8.56,2.63-10.42,6.7-.39,.86-1.24,1.36-2.12,1.36Z"/>
      <path class="cls-6" d="M25.12,49.63c-.34,0-.7-.08-1.03-.24-2.6-1.28-4.81-3.25-6.39-5.7-.7-1.08-.39-2.52,.69-3.22,1.08-.7,2.52-.39,3.22,.69,1.12,1.74,2.69,3.14,4.54,4.05,1.15,.57,1.63,1.96,1.06,3.11-.4,.82-1.23,1.3-2.09,1.3Z"/>
      <path class="cls-1" d="M31.26,44.77c-5.32,0-9.65-4.33-9.65-9.65s4.33-9.65,9.65-9.65,9.65,4.33,9.65,9.65-4.33,9.65-9.65,9.65Zm0-18.3c-4.77,0-8.65,3.88-8.65,8.65s3.88,8.65,8.65,8.65,8.65-3.88,8.65-8.65-3.88-8.65-8.65-8.65Z"/>
      <path class="cls-1" d="M31.26,47.03c-6.57,0-11.91-5.34-11.91-11.91s5.34-11.91,11.91-11.91,11.91,5.34,11.91,11.91-5.34,11.91-11.91,11.91Zm0-23.22c-6.23,0-11.31,5.07-11.31,11.31s5.07,11.31,11.31,11.31,11.31-5.07,11.31-11.31-5.07-11.31-11.31-11.31Z"/>
      <path class="cls-1" d="M20.47,10.99c-.91,0-1.64-.74-1.64-1.64s.74-1.64,1.64-1.64,1.65,.74,1.65,1.64-.74,1.64-1.65,1.64Zm0-2.6c-.53,0-.95,.43-.95,.95s.43,.95,.95,.95,.95-.43,.95-.95-.43-.95-.95-.95Z"/>
      <path class="cls-1" d="M5.96,26.28c-.91,0-1.65-.74-1.65-1.64s.74-1.64,1.65-1.64,1.64,.74,1.64,1.64-.74,1.64-1.64,1.64Zm0-2.6c-.53,0-.95,.43-.95,.95s.43,.95,.95,.95,.95-.43,.95-.95-.43-.95-.95-.95Z"/>
      <path class="cls-1" d="M5.96,47.17c-.91,0-1.65-.74-1.65-1.64s.74-1.64,1.65-1.64,1.64,.74,1.64,1.64-.74,1.64-1.64,1.64Zm0-2.6c-.53,0-.95,.43-.95,.95s.43,.95,.95,.95,.95-.43,.95-.95-.43-.95-.95-.95Z"/>
      <path class="cls-1" d="M21.17,62.11c-.91,0-1.64-.74-1.64-1.64s.74-1.64,1.64-1.64,1.65,.74,1.65,1.64-.74,1.64-1.65,1.64Zm0-2.6c-.53,0-.95,.43-.95,.95s.43,.95,.95,.95,.95-.43,.95-.95-.43-.95-.95-.95Z"/>
      <path class="cls-1" d="M41.88,61.59c-.91,0-1.65-.74-1.65-1.64s.74-1.64,1.65-1.64,1.64,.74,1.64,1.64-.74,1.64-1.64,1.64Zm0-2.6c-.53,0-.95,.43-.95,.95s.43,.95,.95,.95,.95-.43,.95-.95-.43-.95-.95-.95Z"/>
      <path class="cls-1" d="M41.62,10.99c-.91,0-1.64-.74-1.64-1.64s.74-1.64,1.64-1.64,1.65,.74,1.65,1.64-.74,1.64-1.65,1.64Zm0-2.6c-.53,0-.95,.43-.95,.95s.43,.95,.95,.95,.95-.43,.95-.95-.43-.95-.95-.95Z"/>
      <path class="cls-1" d="M31.32,51.78c-9.22,0-16.71-7.5-16.71-16.71s7.5-16.71,16.71-16.71c2.84,0,5.65,.73,8.12,2.1,.24,.13,.33,.44,.19,.68-.13,.24-.44,.33-.68,.19-2.32-1.29-4.96-1.98-7.63-1.98-8.67,0-15.71,7.05-15.71,15.71s7.05,15.71,15.71,15.71,15.71-7.05,15.71-15.71c0-2.13-.42-4.2-1.25-6.14-.11-.25,0-.55,.26-.66,.26-.11,.55,0,.66,.26,.88,2.07,1.33,4.27,1.33,6.53,0,9.22-7.5,16.71-16.71,16.71Z"/>
      <path class="cls-1" d="M45.15,27.1c-.17,0-.33-.08-.43-.24-.93-1.52-2.1-2.86-3.49-3.98-.21-.17-.25-.49-.07-.7,.17-.21,.49-.25,.7-.07,1.47,1.2,2.71,2.62,3.7,4.24,.14,.24,.07,.54-.16,.69-.08,.05-.17,.07-.26,.07Z"/>
      <circle class="cls-5" cx="30.73" cy="13.45" r="1.83"/>
      <path class="cls-5" d="M19.16,20.16c.21-.18,.42-.36,.63-.53,.05-.04,.1-.08,.15-.12-.47,.38-.24,.19-.13,.11,.12-.09,.24-.18,.36-.26,.52-.37,1.06-.72,1.62-1.03,.6-.34,1.21-.65,1.84-.94,.09-.04,.19-.08,.28-.13,.27-.12-.08,.07-.13,.05,.1,.03,.43-.17,.54-.21,.39-.15,.79-.29,1.2-.42,.99-.32,1.73-1.4,1.39-2.45-.32-.99-1.39-1.74-2.45-1.39-2.98,.97-5.75,2.45-8.12,4.51-.79,.69-.76,2.13,0,2.82,.84,.77,1.98,.73,2.82,0h0Z"/>
      <path class="cls-4" d="M54.48,13.71c0,1.35,1.09,2.45,2.44,2.47l5.61,.03c1.35,0,2.45-1.09,2.47-2.44l.07-13.21c7.67,2.94,11.5,11.54,8.56,19.2-1.53,3.99-4.71,7.13-8.72,8.62l-.13,24.21c-.02,2.9-2.38,5.24-5.28,5.23-2.9-.02-5.24-2.38-5.23-5.28l.13-24.21c-7.67-2.94-11.5-11.54-8.56-19.2,1.53-3.99,4.71-7.13,8.72-8.62l-.07,13.17v.04Z"/>
      <path class="cls-1" d="M54.12,39h0c-.28,0-.5-.23-.5-.5l.05-9.83c-2.44-1-4.58-2.6-6.21-4.66-.17-.22-.14-.53,.08-.7,.22-.17,.53-.14,.7,.08,1.59,2,3.7,3.55,6.1,4.47,.19,.07,.32,.26,.32,.47l-.06,10.18c0,.27-.23,.5-.5,.5Z"/>
      <circle class="cls-8" cx="59.25" cy="51.32" r="2.35"/>
      <path class="cls-2" d="M60.44,36.93v9.94c0,.97,.85,1.89,1.85,1.85s1.85-.81,1.85-1.85v-9.94c0-.97-.85-1.89-1.85-1.85s-1.85,.81-1.85,1.85h0Z"/>
      <path class="cls-2" d="M67.01,27.38c2.23-.91,4.06-2.35,5.39-4.37s1.92-4.31,2.08-6.65c.07-.97-.9-1.89-1.85-1.85-1.06,.05-1.78,.81-1.85,1.85-.02,.25-.04,.5-.07,.76-.02,.24,.06-.37,0-.02-.02,.13-.04,.27-.07,.4-.09,.48-.21,.95-.35,1.41-.07,.21-.14,.41-.21,.61-.06,.16-.07,.43,0,.03-.02,.1-.09,.2-.13,.29-.2,.42-.42,.82-.67,1.21-.12,.18-.3,.37-.39,.56,.07-.16,.2-.25,.02-.03-.07,.08-.13,.16-.2,.23-.3,.34-.62,.66-.96,.95-.08,.07-.16,.13-.24,.2-.17,.15,.31-.22,.03-.03-.2,.14-.41,.28-.62,.41-.18,.11-.36,.21-.54,.31-.11,.06-.22,.11-.34,.17-.1,.05-.48,.2-.02,.02-.89,.37-1.62,1.24-1.29,2.27,.28,.86,1.32,1.68,2.27,1.29h0Z"/>
      <path class="cls-1" d="M59.3,58.32h-.03c-3.17-.02-5.74-2.61-5.72-5.79l.07-11.01c0-.28,.23-.5,.5-.5h0c.28,0,.5,.23,.5,.5l-.07,11.01c-.01,2.62,2.11,4.77,4.73,4.78h.03c2.61,0,4.74-2.12,4.76-4.73l.13-24.21c0-.21,.13-.39,.33-.47,3.87-1.44,6.94-4.47,8.42-8.33,2.75-7.17-.65-15.21-7.6-18.28l-.07,12.47c-.02,1.61-1.35,2.93-2.96,2.94l-5.61-.03c-1.61-.02-2.93-1.35-2.94-2.96l.07-12.47c-3.55,1.53-6.35,4.43-7.74,8.06-1.33,3.47-1.27,7.27,.17,10.7,.11,.25-.01,.55-.27,.65-.26,.11-.55-.01-.65-.27-1.54-3.67-1.6-7.73-.18-11.44C46.74,4.81,50.02,1.57,54.16,.03c.15-.06,.33-.04,.46,.06,.13,.09,.21,.25,.21,.41l-.07,13.17c0,1.1,.88,1.98,1.95,2l5.6,.03c1.06,0,1.95-.88,1.96-1.95l.07-13.2c0-.16,.08-.32,.22-.41s.31-.11,.46-.05c7.91,3.03,11.88,11.94,8.85,19.85-1.54,4.02-4.7,7.2-8.68,8.78l-.13,23.87c-.02,3.16-2.6,5.72-5.76,5.72Z"/>
      <path class="cls-1" d="M59.3,54.21c-1.5,0-2.72-1.22-2.72-2.73s1.22-2.73,2.72-2.73,2.73,1.22,2.73,2.73-1.22,2.73-2.73,2.73Zm0-4.7c-1.09,0-1.98,.89-1.98,1.98s.89,1.98,1.98,1.98,1.98-.89,1.98-1.98-.89-1.98-1.98-1.98Z"/>
      <path class="cls-1" d="M61.67,19.94h-4.32c-3.35,0-6.08-2.87-6.08-6.39V1.62c0-.21,.17-.38,.38-.38s.38,.17,.38,.38V13.55c0,3.1,2.38,5.63,5.31,5.63h4.32c2.93,0,5.31-2.52,5.31-5.63V2.7c0-.21,.17-.38,.38-.38s.38,.17,.38,.38V13.55c0,3.53-2.73,6.39-6.08,6.39Z"/>
      <path class="cls-1" d="M56.58,47.3c-.22,0-.4-.18-.4-.4V26.51c0-.22,.18-.4,.4-.4s.4,.18,.4,.4v20.4c0,.22-.18,.4-.4,.4Z"/>
      <path class="cls-1" d="M62.16,47.3c-.22,0-.4-.18-.4-.4V26.51c0-.22,.18-.4,.4-.4s.4,.18,.4,.4v20.4c0,.22-.18,.4-.4,.4Z"/>
      <g>
        <path class="cls-5" d="M14.84,51.09c1.19,1.31,2.64,2.43,4.21,3.23,.48,.24,1.01,.35,1.54,.2,.46-.13,.96-.48,1.19-.92,.24-.46,.37-1.02,.2-1.54-.15-.48-.45-.96-.92-1.19-.74-.38-1.43-.82-2.09-1.33l.4,.31c-.62-.48-1.19-1.01-1.72-1.59-.33-.37-.92-.58-1.41-.58s-1.07,.22-1.41,.58-.61,.88-.58,1.41,.22,1,.58,1.41h0Z"/>
        <path class="cls-5" d="M24.58,56.71c2.57,0,2.57-3.99,0-3.99s-2.57,3.99,0,3.99h0Z"/>
      </g>
    </g>
  </g>
</svg>