<?xml version="1.0" encoding="UTF-8"?>
<svg id="Layer_2" data-name="Layer 2" xmlns="http://www.w3.org/2000/svg" viewBox="0 0 906.52 503.88">
  <defs>
    <style>
      .cls-1 {
        fill: #f29681;
      }

      .cls-2, .cls-3, .cls-4, .cls-5, .cls-6, .cls-7 {
        fill: #fff;
      }

      .cls-8 {
        fill: #ecede2;
      }

      .cls-9 {
        fill: #ffccc0;
      }

      .cls-10 {
        fill: #fdfdff;
      }

      .cls-11 {
        fill: #a1a1c4;
      }

      .cls-12 {
        fill: #b4e4f9;
      }

      .cls-13 {
        fill: #302f2f;
      }

      .cls-14 {
        fill: #cacad8;
      }

      .cls-15 {
        fill: #dd9742;
      }

      .cls-16 {
        fill: #dd7b6b;
      }

      .cls-17 {
        fill: #dc166d;
      }

      .cls-18 {
        fill: #dfe0cd;
      }

      .cls-19 {
        fill: #1e1e30;
      }

      .cls-20 {
        fill: #1bdda1;
      }

      .cls-21 {
        fill: #1b3c47;
      }

      .cls-22 {
        fill: #3f3e3e;
      }

      .cls-23 {
        fill: #70bee0;
      }

      .cls-24 {
        fill: #546b76;
      }

      .cls-25 {
        fill: #28f3bb;
      }

      .cls-26 {
        fill: #3c5159;
      }

      .cls-27 {
        fill: #7997a3;
      }

      .cls-3 {
        opacity: .3;
      }

      .cls-3, .cls-4, .cls-5, .cls-6, .cls-7 {
        isolation: isolate;
      }

      .cls-4 {
        opacity: .56;
      }

      .cls-5 {
        opacity: .59;
      }

      .cls-6 {
        opacity: .23;
      }

      .cls-7 {
        opacity: .39;
      }

      .cls-28 {
        opacity: .15;
      }
    </style>
  </defs>
  <g id="Layer_1-2" data-name="Layer 1">
    <g id="Layer_2-2" data-name="Layer 2">
      <g id="Layer_1-2" data-name="Layer 1-2">
        <path class="cls-8" d="M132.62,473.84H17.07c-8.32,0-15.07-6.75-15.07-15.07h0c0-8.32,6.75-15.07,15.07-15.07h115.55"/>
        <path class="cls-19" d="M22.64,457.73H3.49c-.83,0-1.5-.67-1.5-1.5s.67-1.5,1.5-1.5H22.64c.83,0,1.5,.67,1.5,1.5s-.67,1.5-1.5,1.5Z"/>
        <rect class="cls-18" x="2" y="452.91" width="130.62" height="2"/>
        <rect class="cls-18" x="2" y="457.98" width="130.62" height="2"/>
        <rect class="cls-18" x="2" y="463.04" width="130.62" height="2"/>
        <rect class="cls-18" x="6" y="468.1" width="126.62" height="2"/>
        <rect class="cls-18" x="6" y="447.85" width="126.62" height="2"/>
        <path class="cls-19" d="M83.5,465.15H4c-.83,0-1.5-.67-1.5-1.5s.67-1.5,1.5-1.5H83.5c.83,0,1.5,.67,1.5,1.5s-.67,1.5-1.5,1.5Z"/>
        <path class="cls-2" d="M40.65,443.53h48.06c0,2.94-2.38,5.32-5.32,5.32H46c-2.94,0-5.32-2.38-5.32-5.32h-.03Z"/>
        <path class="cls-19" d="M132.62,475.84H17.07c-9.41,0-17.07-7.66-17.07-17.07s7.66-17.07,17.07-17.07h115.55c1.1,0,2,.9,2,2s-.9,2-2,2H17.07c-7.21,0-13.07,5.86-13.07,13.07s5.86,13.07,13.07,13.07h115.55c1.1,0,2,.9,2,2s-.9,2-2,2Z"/>
        <path class="cls-19" d="M824.72,433.82c-1.01,0-1.87-.76-1.99-1.78l-7.38-67.51c-.12-1.1,.67-2.09,1.77-2.21,1.1-.12,2.08,.67,2.21,1.77l7.38,67.51c.12,1.1-.67,2.09-1.77,2.21-.07,0-.15,.01-.22,.01Z"/>
        <path class="cls-19" d="M813.73,394.83c-.75,0-1.4-.56-1.49-1.33l-2.34-20.16c-.09-.82,.49-1.56,1.31-1.66l6.26-.77c.82-.11,1.57,.48,1.67,1.31,.1,.82-.48,1.57-1.31,1.67l-4.78,.59,2.17,18.68c.1,.82-.49,1.57-1.32,1.66-.06,0-.12,0-.17,0Z"/>
        <path class="cls-19" d="M833.76,431.82c-.08,0-.16,0-.24-.01-1.1-.13-1.88-1.13-1.74-2.23l8.24-67.51c.13-1.1,1.14-1.87,2.23-1.74,1.1,.13,1.88,1.13,1.74,2.23l-8.24,67.51c-.12,1.01-.99,1.76-1.98,1.76Z"/>
        <path class="cls-19" d="M856.03,431.82c-.08,0-.16,0-.24-.01-1.1-.13-1.88-1.13-1.74-2.23l8.24-67.51c.13-1.1,1.13-1.87,2.23-1.74,1.1,.13,1.88,1.13,1.74,2.23l-8.24,67.51c-.12,1.01-.99,1.76-1.98,1.76Z"/>
        <rect class="cls-25" x="816.53" y="399.89" width="61.15" height="76.06"/>
        <rect class="cls-20" x="818.48" y="401.31" width="10.34" height="73.15"/>
        <rect class="cls-2" x="856.65" y="401.31" width="3.51" height="73.65"/>
        <rect class="cls-4" x="863.2" y="401.31" width="1.73" height="73.65"/>
        <rect class="cls-4" x="868.68" y="401.31" width="1.73" height="73.65"/>
        <path class="cls-19" d="M877.68,477.95h-61.15c-1.1,0-2-.9-2-2v-76.06c0-1.1,.9-2,2-2h61.15c1.1,0,2,.9,2,2v76.06c0,1.1-.9,2-2,2Zm-59.15-4h57.15v-72.06h-57.15v72.06Z"/>
        <g class="cls-28">
          <path class="cls-21" d="M797.6,126.5h-.29c-.83,0-1.5-.67-1.5-1.5s.67-1.5,1.5-1.5h.29c.83,0,1.5,.67,1.5,1.5s-.67,1.5-1.5,1.5Z"/>
          <path class="cls-21" d="M808.53,126.5h-6c-.83,0-1.5-.67-1.5-1.5s.67-1.5,1.5-1.5h3v-15.06h-46.76v15.06h27.23c.83,0,1.5,.67,1.5,1.5s-.67,1.5-1.5,1.5h-30.23v-21.06h52.76v21.06Z"/>
          <path class="cls-21" d="M793.26,126.5h-2.67c-.83,0-1.5-.67-1.5-1.5s.67-1.5,1.5-1.5h2.67c.83,0,1.5,.67,1.5,1.5s-.67,1.5-1.5,1.5Z"/>
          <path class="cls-21" d="M768.27,162.61h-12.5v-21.06h37.14c.83,0,1.5,.67,1.5,1.5s-.67,1.5-1.5,1.5h-34.14v15.06h9.5c.83,0,1.5,.67,1.5,1.5s-.67,1.5-1.5,1.5Z"/>
          <path class="cls-21" d="M778.07,162.61h-5.41c-.83,0-1.5-.67-1.5-1.5s.67-1.5,1.5-1.5h5.41c.83,0,1.5,.67,1.5,1.5s-.67,1.5-1.5,1.5Z"/>
          <path class="cls-21" d="M782.2,162.61h-.11c-.83,0-1.5-.67-1.5-1.5s.67-1.5,1.5-1.5h.11c.83,0,1.5,.67,1.5,1.5s-.67,1.5-1.5,1.5Z"/>
          <path class="cls-21" d="M808.53,162.61h-22.08c-.83,0-1.5-.67-1.5-1.5s.67-1.5,1.5-1.5h19.08v-15.06h-6.62c-.83,0-1.5-.67-1.5-1.5s.67-1.5,1.5-1.5h9.67l-.05,21.06Z"/>
          <path class="cls-21" d="M783.25,144.55h-52.76v-21.05h52.76v21.05Zm-49.76-3h46.76v-15.05h-46.76v15.05Z"/>
        </g>
        <path class="cls-22" d="M181,452.55c-11.32,0-20.49-9.17-20.49-20.49s9.17-20.49,20.49-20.49,20.49,9.17,20.49,20.49h0c-.01,11.31-9.18,20.48-20.49,20.49Zm0-31c-5.79,0-10.49,4.7-10.49,10.49s4.7,10.49,10.49,10.49,10.49-4.7,10.49-10.49h0c-.01-5.79-4.7-10.47-10.49-10.47v-.02Z"/>
        <path class="cls-19" d="M181.07,455.03h0c-12.12,0-21.99-9.86-21.99-21.99s9.86-21.99,21.99-21.99,21.97,9.85,21.99,21.95c.01,12.14-9.85,22.02-21.99,22.03Zm0-40.98c-10.47,0-18.99,8.52-18.99,18.99s8.52,18.99,18.99,18.99c10.48-.01,19-8.55,18.99-19.03-.02-10.45-8.54-18.95-18.99-18.95Zm0,30.96c-6.61,0-11.99-5.38-11.99-11.99s5.38-11.99,11.99-11.99c.09,0,.18,0,.26,.02,6.47,.14,11.7,5.44,11.73,11.94,0,6.64-5.38,12.02-11.99,12.02Zm-.23-20.98c-4.85,.12-8.76,4.11-8.76,8.99s4.03,8.99,8.99,8.99,8.99-4.03,8.99-8.99c-.02-4.95-4.05-8.97-8.99-8.97-.08,0-.15,0-.23-.02Z"/>
        <rect class="cls-22" x="113.53" y="388.63" width="66.88" height="84.81" rx="5.44" ry="5.44"/>
        <path class="cls-13" d="M181,405.56v65.54c0,3-2.44,5.44-5.44,5.44h-56c-3,0-5.43-2.42-5.44-5.42,0,0,0-.01,0-.02v-12.1c4.69,2.56,9.99,3.81,15.33,3.62,10.17-.37,19.74-5.54,27-12.65s12.5-16.06,16.92-25.22c3.04-6.19,5.59-12.6,7.63-19.19Z"/>
        <path class="cls-14" d="M755.91,473.65c0-13.07,10.59-23.66,23.66-23.66s23.66,10.59,23.66,23.66"/>
        <path class="cls-11" d="M803.25,473.62h-39.1c10.9-4.33,20.7-11.04,28.69-19.62,6.52,4.4,10.42,11.76,10.41,19.62Z"/>
        <g class="cls-28">
          <path class="cls-21" d="M782,353h-12.5v-21.09h37.14c.83,0,1.5,.67,1.5,1.5s-.67,1.5-1.5,1.5h-34.11v15.09h9.47c.83,0,1.5,.67,1.5,1.5s-.67,1.5-1.5,1.5Z"/>
          <path class="cls-21" d="M791.83,353h-5.41c-.83,0-1.5-.67-1.5-1.5s.67-1.5,1.5-1.5h5.41c.83,0,1.5,.67,1.5,1.5s-.67,1.5-1.5,1.5Z"/>
          <path class="cls-21" d="M796,353h-.11c-.83,0-1.5-.67-1.5-1.5s.67-1.5,1.5-1.5h.11c.83,0,1.5,.67,1.5,1.5s-.67,1.5-1.5,1.5Z"/>
          <path class="cls-21" d="M822.29,353h-22.08c-.83,0-1.5-.67-1.5-1.5s.67-1.5,1.5-1.5h19.08v-15.09h-6.62c-.83,0-1.5-.67-1.5-1.5s.67-1.5,1.5-1.5h9.67l-.05,21.09Z"/>
          <path class="cls-21" d="M797,334.91h-52.75v-21.05h52.75v21.05Zm-49.76-3h46.76v-15.05h-46.75v15.05Z"/>
        </g>
        <g class="cls-28">
          <path class="cls-21" d="M80,363.78h-.29c-.83,0-1.5-.67-1.5-1.5s.67-1.5,1.5-1.5h.29c.83,0,1.5,.67,1.5,1.5s-.67,1.5-1.5,1.5Z"/>
          <path class="cls-21" d="M90.89,363.78h-6c-.83,0-1.5-.67-1.5-1.5s.67-1.5,1.5-1.5h3v-15.06H41.13v15.06h27.19c.83,0,1.5,.67,1.5,1.5s-.67,1.5-1.5,1.5h-30.19v-21.06h52.76v21.06Z"/>
          <path class="cls-21" d="M75.62,363.78h-2.62c-.83,0-1.5-.67-1.5-1.5s.67-1.5,1.5-1.5h2.67c.83,0,1.5,.67,1.5,1.5s-.67,1.5-1.5,1.5h-.05Z"/>
          <path class="cls-21" d="M50.63,399.89h-12.5v-21.06h37.14c.83,0,1.5,.67,1.5,1.5s-.67,1.5-1.5,1.5H41.13v15.06h9.5c.83,0,1.5,.67,1.5,1.5s-.67,1.5-1.5,1.5h0Z"/>
          <path class="cls-21" d="M60.43,399.89h-5.43c-.83,0-1.5-.67-1.5-1.5s.67-1.5,1.5-1.5h5.41c.83,0,1.5,.67,1.5,1.5s-.67,1.5-1.5,1.5h.02Z"/>
          <path class="cls-21" d="M64.56,399.89h-.11c-.83,0-1.5-.67-1.5-1.5s.67-1.5,1.5-1.5h.11c.83,0,1.5,.67,1.5,1.5s-.67,1.5-1.5,1.5Z"/>
          <path class="cls-21" d="M90.89,399.89h-22.08c-.83,0-1.5-.67-1.5-1.5s.67-1.5,1.5-1.5h19.08v-15.06h-6.62c-.83,0-1.5-.67-1.5-1.5s.67-1.5,1.5-1.5h9.67l-.05,21.06Z"/>
          <path class="cls-21" d="M65.61,381.83H12.85v-21.05h52.76v21.05Zm-49.76-3H62.61v-15.05H15.85v15.05Z"/>
        </g>
        <g class="cls-28">
          <path class="cls-21" d="M143.46,172.79h-.29c-.83,0-1.5-.67-1.5-1.5s.67-1.5,1.5-1.5h.29c.83,0,1.5,.67,1.5,1.5s-.67,1.5-1.5,1.5Z"/>
          <path class="cls-21" d="M154.39,172.79h-6c-.83,0-1.5-.67-1.5-1.5s.67-1.5,1.5-1.5h3v-15.06h-46.76v15.06h27.19c.83,0,1.5,.67,1.5,1.5s-.67,1.5-1.5,1.5h-30.19v-21.06h52.76v21.06Z"/>
          <path class="cls-21" d="M139.12,172.79h-2.67c-.83,0-1.5-.67-1.5-1.5s.67-1.5,1.5-1.5h2.67c.83,0,1.5,.67,1.5,1.5s-.67,1.5-1.5,1.5Z"/>
          <path class="cls-21" d="M114.13,208.9h-12.5v-21.06h37.14c.83,0,1.5,.67,1.5,1.5s-.67,1.5-1.5,1.5h-34.14v15.06h9.5c.83,0,1.5,.67,1.5,1.5s-.67,1.5-1.5,1.5Z"/>
          <path class="cls-21" d="M123.93,208.9h-5.41c-.83,0-1.5-.67-1.5-1.5s.67-1.5,1.5-1.5h5.41c.83,0,1.5,.67,1.5,1.5s-.67,1.5-1.5,1.5Z"/>
          <path class="cls-21" d="M128.06,208.9h-.06c-.83,0-1.5-.67-1.5-1.5s.67-1.5,1.5-1.5h.11c.83,0,1.5,.67,1.5,1.5s-.67,1.5-1.5,1.5h-.05Z"/>
          <path class="cls-21" d="M154.39,208.9h-22.08c-.83,0-1.5-.67-1.5-1.5s.67-1.5,1.5-1.5h19.08v-15.06h-6.62c-.83,0-1.5-.67-1.5-1.5s.67-1.5,1.5-1.5h9.67l-.05,21.06Z"/>
          <path class="cls-21" d="M129.11,190.84h-52.76v-21.05h52.76v21.05Zm-49.76-3h46.76v-15.05h-46.76v15.05Z"/>
        </g>
        <g class="cls-28">
          <path class="cls-21" d="M499.29,21.06h-.29c-.83,0-1.5-.67-1.5-1.5s.67-1.5,1.5-1.5h.29c.83,0,1.5,.67,1.5,1.5s-.67,1.5-1.5,1.5h0Z"/>
          <path class="cls-21" d="M510.22,21.06h-6c-.83,0-1.5-.67-1.5-1.5s.67-1.5,1.5-1.5h3V3h-46.76v15.06h27.19c.83,0,1.5,.67,1.5,1.5s-.67,1.5-1.5,1.5h-30.19V0h52.76V21.06Z"/>
          <path class="cls-21" d="M495,21.06h-2.67c-.83,0-1.5-.67-1.5-1.5s.67-1.5,1.5-1.5h2.67c.83,0,1.5,.67,1.5,1.5s-.67,1.5-1.5,1.5Z"/>
          <path class="cls-21" d="M470,57.17h-12.5v-21.06h37.1c.83,0,1.5,.67,1.5,1.5s-.67,1.5-1.5,1.5h-34.14v15.06h9.54c.83,0,1.5,.67,1.5,1.5s-.67,1.5-1.5,1.5Z"/>
          <path class="cls-21" d="M479.76,57.17h-5.41c-.83,0-1.5-.67-1.5-1.5s.67-1.5,1.5-1.5h5.41c.83,0,1.5,.67,1.5,1.5s-.67,1.5-1.5,1.5Z"/>
          <path class="cls-21" d="M483.89,57.17h-.11c-.83,0-1.5-.67-1.5-1.5s.67-1.5,1.5-1.5h.11c.83,0,1.5,.67,1.5,1.5s-.67,1.5-1.5,1.5Z"/>
          <path class="cls-21" d="M510.22,57.17h-22.08c-.83,0-1.5-.67-1.5-1.5s.67-1.5,1.5-1.5h19.08v-15.06h-6.62c-.83,0-1.5-.67-1.5-1.5s.67-1.5,1.5-1.5h9.67l-.05,21.06Z"/>
          <path class="cls-21" d="M484.94,39.11h-52.76V18.11h52.76v21Zm-49.76-3h46.76v-15h-46.76v15Z"/>
        </g>
        <path class="cls-14" d="M531.15,484.66h-139.77c-5.11,0-9.26-4.14-9.26-9.26,0-1.18,.22-2.35,.66-3.44l25.91-65,52.58-14.44,52.58,14.48,25.9,65c1.88,4.76-.46,10.14-5.21,12.01-1.08,.43-2.23,.65-3.39,.65Z"/>
        <polygon class="cls-11" points="524.48 433.96 399.54 433.96 400.75 425.69 523.27 425.69 524.48 433.96"/>
        <circle class="cls-11" cx="411.32" cy="435.2" r="4.38"/>
        <circle class="cls-11" cx="424.57" cy="441.05" r="2.24"/>
        <circle class="cls-11" cx="415.12" cy="449.32" r="2.92"/>
        <path class="cls-19" d="M391.38,486.66c-3.01,0-5.83-1.17-7.96-3.3-2.13-2.13-3.3-4.95-3.3-7.96,0-1.44,.27-2.85,.81-4.19l25.91-65c.23-.58,.72-1.02,1.33-1.19l52.58-14.44c.35-.1,.71-.1,1.06,0l52.58,14.48c.6,.17,1.09,.61,1.33,1.19l25.9,65c1.11,2.8,1.06,5.86-.14,8.62-1.2,2.76-3.4,4.89-6.2,5.99-1.32,.52-2.7,.78-4.12,.79h-139.78Zm0-4h139.77c.91,0,1.8-.17,2.65-.51,1.8-.71,3.22-2.08,4-3.86s.8-3.75,.09-5.56l-25.53-64.07-51.09-14.07-51.09,14.03-25.54,64.08c-.35,.86-.52,1.77-.52,2.7,0,1.94,.76,3.76,2.13,5.13,1.37,1.37,3.19,2.12,5.13,2.12h0Z"/>
        <path class="cls-24" d="M237.36,82.58h440.79c9.44,0,17.1,7.66,17.1,17.1V410.16c0,8.97-7.27,16.24-16.24,16.24H236.51c-8.97,0-16.24-7.27-16.24-16.24V99.68c0-9.44,7.65-17.09,17.09-17.1Z"/>
        <path class="cls-27" d="M694.71,99.67v10.54c0-9.44-7.65-17.09-17.09-17.1H236.83c-9.44,0-17.09,7.66-17.1,17.1v-10.54c0-9.44,7.66-17.09,17.1-17.09h440.79c9.44,0,17.09,7.65,17.09,17.09h0Z"/>
        <path class="cls-14" d="M695.25,370.4v39.76c0,8.97-7.27,16.24-16.24,16.24H236.51c-8.97,0-16.24-7.27-16.24-16.24v-39.76h474.98Z"/>
        <rect class="cls-11" x="220.47" y="369.56" width="474.98" height="8.76"/>
        <path class="cls-26" d="M695.45,361.64v8.76H220.45s-3.8-24.52,.8-23.69c80.94,14.6,474.2,14.93,474.2,14.93Z"/>
        <rect class="cls-12" x="244.71" y="109.83" width="426.49" height="237.2"/>
        <path class="cls-19" d="M220.47,267.05c-1.1,0-2-.9-2-2v-118.07c0-1.1,.9-2,2-2s2,.9,2,2v118.07c0,1.1-.9,2-2,2Z"/>
        <path class="cls-19" d="M695.45,226.92c-1.1,0-2-.9-2-2v-17.46c0-1.1,.9-2,2-2s2,.9,2,2v17.46c0,1.1-.9,2-2,2Z"/>
        <path class="cls-19" d="M695.45,197.35c-1.1,0-2-.9-2-2v-32.89c0-1.1,.9-2,2-2s2,.9,2,2v32.89c0,1.1-.9,2-2,2Z"/>
        <path class="cls-19" d="M695.45,151.27c-1.1,0-2-.9-2-2v-49.59c0-8.32-6.78-15.09-15.1-15.1H237.56c-8.32,0-15.09,6.78-15.09,15.1v34.32c0,1.1-.9,2-2,2s-2-.9-2-2v-34.32c0-10.53,8.56-19.09,19.09-19.1h440.79c10.53,0,19.09,8.57,19.1,19.1v49.59c0,1.1-.9,2-2,2Z"/>
        <path class="cls-19" d="M695.45,372.4H220.47c-1.1,0-2-.9-2-2s.9-2,2-2h474.98c1.1,0,2,.9,2,2s-.9,2-2,2Z"/>
        <rect class="cls-23" x="244.71" y="337.3" width="426.49" height="9.74"/>
        <polygon class="cls-5" points="427.38 347.03 417.64 347.03 477.64 109.83 487.38 109.83 427.38 347.03"/>
        <polygon class="cls-3" points="405.96 347.03 396.22 347.03 456.22 109.83 465.96 109.83 405.96 347.03"/>
        <polygon class="cls-2" points="470.93 347.03 441.19 347.03 501.19 109.83 530.93 109.83 470.93 347.03"/>
        <path class="cls-19" d="M244.71,210.76c-1.1,0-2-.9-2-2v-22.98c0-1.1,.9-2,2-2s2,.9,2,2v22.98c0,1.1-.9,2-2,2Z"/>
        <circle class="cls-26" cx="632.51" cy="359.56" r="2.49"/>
        <circle class="cls-26" cx="637.19" cy="357.81" r=".74"/>
        <circle class="cls-26" cx="633.56" cy="354.78" r=".74"/>
        <circle class="cls-26" cx="626.42" cy="354.69" r="1.71"/>
        <circle class="cls-26" cx="623.99" cy="359.75" r="1.51"/>
        <circle class="cls-26" cx="619.7" cy="356.29" r=".77"/>
        <circle class="cls-26" cx="621.41" cy="352.87" r=".94"/>
        <circle class="cls-26" cx="614.06" cy="358.68" r="1.62"/>
        <circle class="cls-26" cx="642.93" cy="356.53" r="1.01"/>
        <circle class="cls-26" cx="639.13" cy="353.45" r=".58"/>
        <circle class="cls-26" cx="643.59" cy="351.36" r="1.01"/>
        <circle class="cls-26" cx="638.95" cy="355.7" r=".7"/>
        <circle class="cls-26" cx="635.49" cy="351.36" r=".79"/>
        <circle class="cls-26" cx="630.51" cy="350.2" r="1.16"/>
        <circle class="cls-26" cx="631.45" cy="353.12" r=".25"/>
        <circle class="cls-26" cx="630.38" cy="355.54" r=".37"/>
        <circle class="cls-26" cx="642.89" cy="360.69" r="1.62"/>
        <circle class="cls-26" cx="649.4" cy="358.78" r="1.25"/>
        <circle class="cls-26" cx="655.77" cy="360.86" r="2.63"/>
        <circle class="cls-26" cx="663.75" cy="361.05" r="2.81"/>
        <circle class="cls-26" cx="668.74" cy="359.91" r="1.23"/>
        <circle class="cls-26" cx="664.19" cy="355.96" r=".44"/>
        <circle class="cls-26" cx="658.08" cy="353.82" r=".95"/>
        <circle class="cls-26" cx="654.1" cy="352.49" r=".96"/>
        <circle class="cls-26" cx="650.71" cy="353.68" r="1.31"/>
        <circle class="cls-26" cx="647.19" cy="354.78" r=".96"/>
        <circle class="cls-26" cx="656.56" cy="356.86" r=".57"/>
        <circle class="cls-23" cx="582.81" cy="333.66" r="4.75"/>
        <circle class="cls-23" cx="591.73" cy="330.33" r="1.41"/>
        <circle class="cls-23" cx="584.82" cy="324.56" r="1.42"/>
        <circle class="cls-23" cx="571.23" cy="324.39" r="3.25"/>
        <circle class="cls-23" cx="566.6" cy="334.02" r="2.88"/>
        <circle class="cls-23" cx="558.44" cy="327.45" r="1.47"/>
        <circle class="cls-23" cx="561.71" cy="320.93" r="1.79"/>
        <circle class="cls-23" cx="547.71" cy="331.99" r="3.07"/>
        <circle class="cls-23" cx="602.66" cy="327.9" r="1.92"/>
        <circle class="cls-23" cx="595.43" cy="322.04" r="1.1"/>
        <circle class="cls-23" cx="603.91" cy="318.06" r="1.92"/>
        <circle class="cls-23" cx="595.07" cy="326.31" r="1.33"/>
        <circle class="cls-23" cx="588.49" cy="318.06" r="1.5"/>
        <circle class="cls-23" cx="579.03" cy="315.85" r="2.21"/>
        <circle class="cls-23" cx="580.8" cy="321.41" r=".48"/>
        <circle class="cls-23" cx="578.78" cy="326.02" r=".71"/>
        <circle class="cls-23" cx="602.58" cy="335.82" r="3.08"/>
        <circle class="cls-23" cx="614.96" cy="332.19" r="2.38"/>
        <circle class="cls-23" cx="627.09" cy="336.15" r="5"/>
        <circle class="cls-23" cx="642.28" cy="336.5" r="5.36"/>
        <circle class="cls-23" cx="651.76" cy="334.33" r="2.33"/>
        <circle class="cls-23" cx="643.12" cy="326.81" r=".83"/>
        <circle class="cls-23" cx="631.49" cy="322.75" r="1.81"/>
        <circle class="cls-23" cx="623.91" cy="320.22" r="1.82"/>
        <circle class="cls-23" cx="617.46" cy="322.48" r="2.5"/>
        <circle class="cls-23" cx="610.76" cy="324.56" r="1.82"/>
        <circle class="cls-23" cx="628.59" cy="328.53" r="1.08"/>
        <circle class="cls-11" cx="292.42" cy="386.25" r="2.24"/>
        <path class="cls-19" d="M258.88,158.17c-.2,0-.4-.04-.59-.12-.76-.33-1.11-1.21-.78-1.97l14.03-32.42c.33-.76,1.21-1.11,1.97-.78,.76,.33,1.11,1.21,.78,1.97l-14.03,32.42c-.25,.57-.8,.9-1.38,.9Z"/>
        <path class="cls-19" d="M270.71,151.74c-.2,0-.4-.04-.59-.12-.76-.33-1.11-1.21-.78-1.97l7.01-16.22c.33-.76,1.21-1.11,1.97-.78,.76,.33,1.11,1.21,.78,1.97l-7.01,16.22c-.24,.57-.8,.91-1.38,.91Z"/>
        <circle class="cls-19" cx="268.28" cy="157.19" r="2.39"/>
        <path class="cls-19" d="M308.05,94.98h-47.57c-.83,0-1.5-.67-1.5-1.5s.67-1.5,1.5-1.5h47.57c.83,0,1.5,.67,1.5,1.5s-.67,1.5-1.5,1.5Z"/>
        <path class="cls-19" d="M328.08,94.98h-9.56c-.83,0-1.5-.67-1.5-1.5s.67-1.5,1.5-1.5h9.56c.83,0,1.5,.67,1.5,1.5s-.67,1.5-1.5,1.5Z"/>
        <path class="cls-19" d="M695.25,250.3c-1.1,0-2-.9-2-2v-9.39c0-1.1,.9-2,2-2s2,.9,2,2v9.39c0,1.1-.9,2-2,2Z"/>
        <circle class="cls-11" cx="278.55" cy="381.39" r="7.45"/>
        <circle class="cls-11" cx="286.48" cy="396.01" r="3.7"/>
        <circle class="cls-11" cx="264.99" cy="388.84" r="3.68"/>
        <circle class="cls-2" cx="457.76" cy="399.72" r="13.46"/>
        <path class="cls-19" d="M458,417.67c-1.37,0-2.75-.17-4.12-.5-4.48-1.09-8.26-3.86-10.65-7.8-4.94-8.13-2.35-18.76,5.78-23.7,2.7-1.64,5.8-2.51,8.96-2.51h.04c1.1,0,2,.9,2,2,0,1.1-.9,2-2,2h-.03c-2.43,0-4.81,.67-6.88,1.93-6.24,3.79-8.24,11.96-4.44,18.2,1.84,3.02,4.74,5.15,8.18,5.99,3.44,.84,7,.29,10.02-1.55,3.02-1.84,5.15-4.74,5.99-8.18,.84-3.44,.29-7-1.55-10.02-.57-.94-.27-2.17,.67-2.75,.94-.57,2.17-.27,2.75,.67,2.39,3.94,3.11,8.57,2.02,13.05-1.09,4.48-3.86,8.26-7.8,10.65-2.73,1.66-5.81,2.52-8.93,2.52Z"/>
        <path class="cls-19" d="M393.99,473.11c-.18,0-.36-.03-.53-.1-.77-.29-1.17-1.16-.87-1.93l3.72-9.83c.29-.77,1.16-1.17,1.93-.87,.77,.29,1.17,1.16,.87,1.93l-3.72,9.83c-.23,.6-.8,.97-1.4,.97Z"/>
        <path class="cls-19" d="M401.33,453.74c-.18,0-.36-.03-.53-.1-.77-.29-1.17-1.16-.87-1.93l2.21-5.84c.29-.77,1.16-1.17,1.93-.87,.77,.29,1.17,1.16,.87,1.93l-2.21,5.84c-.23,.6-.8,.97-1.4,.97Z"/>
        <path class="cls-23" d="M341.79,341.8h-44.69c-2.49,0-4.5-2.01-4.5-4.5s2.01-4.5,4.5-4.5h44.69c2.49,0,4.5,2.01,4.5,4.5s-2.01,4.5-4.5,4.5Z"/>
        <path class="cls-27" d="M505.96,97.98h-44.7c-2.49,0-4.5-2.01-4.5-4.5s2.01-4.5,4.5-4.5h44.7c2.49,0,4.5,2.01,4.5,4.5s-2.01,4.5-4.5,4.5Z"/>
        <path class="cls-27" d="M605.16,97.98h-20.69c-2.49,0-4.5-2.01-4.5-4.5s2.01-4.5,4.5-4.5h20.69c2.49,0,4.5,2.01,4.5,4.5s-2.01,4.5-4.5,4.5Z"/>
        <path class="cls-9" d="M21.73,474.96H891.08c7.42,0,13.44,6.02,13.44,13.44h0c0,7.42-6.02,13.44-13.44,13.44H21.73c-7.42,0-13.44-6.02-13.44-13.44h0c0-7.42,6.02-13.44,13.44-13.44Z"/>
        <path class="cls-1" d="M904.52,489c0,7.42-6.02,13.43-13.44,13.44H21.73c-7.42,0-13.44-6.02-13.44-13.44h0c0-2.36,.62-4.68,1.81-6.72,2.39,4.16,6.83,6.72,11.63,6.72H891.08c4.8-.01,9.23-2.57,11.64-6.72,1.19,2.04,1.81,4.36,1.8,6.72Z"/>
        <path class="cls-10" d="M165.42,483H98.82c-1.93,0-3.5-1.57-3.5-3.5s1.57-3.5,3.5-3.5h66.6c1.93,0,3.5,1.57,3.5,3.5s-1.57,3.5-3.5,3.5Z"/>
        <path class="cls-10" d="M201.31,483h-16.6c-1.93,0-3.5-1.57-3.5-3.5s1.57-3.5,3.5-3.5h16.6c1.93,0,3.5,1.57,3.5,3.5s-1.57,3.5-3.5,3.5Z"/>
        <path class="cls-1" d="M668.49,491.9h-66.6c-1.93,0-3.5-1.57-3.5-3.5s1.57-3.5,3.5-3.5h66.6c1.93,0,3.5,1.57,3.5,3.5s-1.57,3.5-3.5,3.5Z"/>
        <path class="cls-1" d="M704.39,491.9h-16.6c-1.93,0-3.5-1.57-3.5-3.5s1.57-3.5,3.5-3.5h16.6c1.93,0,3.5,1.57,3.5,3.5s-1.57,3.5-3.5,3.5Z"/>
        <path class="cls-16" d="M422.29,501.84h-66.6c-1.93,0-3.5-1.57-3.5-3.5s1.57-3.5,3.5-3.5h66.6c1.93,0,3.5,1.57,3.5,3.5s-1.57,3.5-3.5,3.5Z"/>
        <path class="cls-16" d="M458.19,501.84h-16.6c-1.93,0-3.5-1.57-3.5-3.5s1.57-3.5,3.5-3.5h16.6c1.93,0,3.5,1.57,3.5,3.5s-1.57,3.5-3.5,3.5Z"/>
        <path class="cls-16" d="M82.67,501.84H16.06c-1.93,0-3.5-1.57-3.5-3.5s1.57-3.5,3.5-3.5H82.67c1.93,0,3.5,1.57,3.5,3.5s-1.57,3.5-3.5,3.5Z"/>
        <path class="cls-16" d="M118.56,501.84h-16.56c-1.93,0-3.5-1.57-3.5-3.5s1.57-3.5,3.5-3.5h16.6c1.93,0,3.5,1.57,3.5,3.5s-1.57,3.5-3.5,3.5h-.04Z"/>
        <path class="cls-16" d="M859.23,501.84h-66.6c-1.93,0-3.5-1.57-3.5-3.5s1.57-3.5,3.5-3.5h66.6c1.93,0,3.5,1.57,3.5,3.5s-1.57,3.5-3.5,3.5Z"/>
        <path class="cls-16" d="M895.13,501.84h-16.61c-1.93,0-3.5-1.57-3.5-3.5s1.57-3.5,3.5-3.5h16.61c1.93,0,3.5,1.57,3.5,3.5s-1.57,3.5-3.5,3.5Z"/>
        <path class="cls-19" d="M891.08,503.88H21.73c-8.51,0-15.44-6.93-15.44-15.44,.03-8.53,6.95-15.44,15.44-15.44h241.37c1.1,0,2,.9,2,2s-.9,2-2,2H21.73c-6.29,0-11.42,5.12-11.44,11.41,0,6.34,5.13,11.47,11.44,11.47H891.08c6.31,0,11.44-5.13,11.44-11.44s-5.13-11.44-11.44-11.44H332.16c-1.1,0-2-.9-2-2s.9-2,2-2H891.08c8.51,0,15.44,6.93,15.44,15.44s-6.93,15.44-15.44,15.44Z"/>
        <path class="cls-19" d="M295.1,476.96h-14.44c-1.1,0-2-.9-2-2s.9-2,2-2h14.44c1.1,0,2,.9,2,2s-.9,2-2,2Z"/>
        <path class="cls-19" d="M315.26,476.96h-7.43c-1.1,0-2-.9-2-2s.9-2,2-2h7.43c1.1,0,2,.9,2,2s-.9,2-2,2Z"/>
        <path class="cls-19" d="M803.23,475.65c-1.1,0-2-.89-2-2,0-3.57-.9-7.13-2.6-10.27-5.67-10.52-18.85-14.47-29.37-8.79-.97,.53-2.19,.16-2.71-.81-.52-.97-.16-2.19,.81-2.71,12.46-6.72,28.07-2.05,34.79,10.41,2.01,3.73,3.07,7.93,3.08,12.17,0,1.1-.89,2-2,2h0Z"/>
        <path class="cls-19" d="M755.91,475.65c-1.1,0-2-.89-2-2-.01-5.86,2.02-11.59,5.71-16.14,.7-.86,1.96-.99,2.81-.29s.99,1.96,.29,2.81c-3.11,3.84-4.82,8.67-4.81,13.62,0,1.1-.89,2-2,2h0Z"/>
        <rect class="cls-2" x="133.12" y="388.84" width="5.67" height="86.12"/>
        <rect class="cls-7" x="142.77" y="388.84" width="2.72" height="86.12"/>
        <path class="cls-19" d="M146.96,380.33c-.83,0-1.5-.67-1.5-1.5v-22.44c0-3,1.17-5.81,3.29-7.93,2.11-2.11,4.92-3.27,7.91-3.27h.01c5.35,0,9.7-4.36,9.7-9.71s-4.35-9.7-9.7-9.7c-.83,0-1.5-.67-1.5-1.5s.67-1.5,1.5-1.5c7,0,12.7,5.7,12.7,12.7s-5.7,12.7-12.7,12.71h0c-2.19,0-4.25,.85-5.79,2.4-1.55,1.55-2.41,3.61-2.41,5.8v22.45c0,.83-.67,1.5-1.5,1.5Z"/>
        <path class="cls-19" d="M134.79,370.44c-.83,0-1.5-.67-1.5-1.5v-22.19c0-.83,.67-1.5,1.5-1.5s1.5,.67,1.5,1.5v22.19c0,.83-.67,1.5-1.5,1.5Z"/>
        <path class="cls-19" d="M158.97,382.16c-.83,0-1.5-.67-1.5-1.5v-22.2c0-.83,.67-1.5,1.5-1.5s1.5,.67,1.5,1.5v22.2c0,.83-.67,1.5-1.5,1.5Z"/>
        <path class="cls-15" d="M163.08,415.65h0c-1.54,0-2.79-1.25-2.79-2.79h0v-23.5h5.58v23.5c0,1.54-1.25,2.79-2.79,2.79h0Z"/>
        <path class="cls-15" d="M176.91,390.87c-.12,2.71-2.42,4.82-5.14,4.69-2.54-.11-4.58-2.15-4.69-4.69"/>
        <rect class="cls-6" x="120.17" y="400.15" width="6.57" height="24.8" rx="3.28" ry="3.28"/>
        <path class="cls-26" d="M241.78,310.53c-1.38,0-2.5-1.12-2.5-2.5v-50.25c0-1.38,1.12-2.5,2.5-2.5s2.5,1.12,2.5,2.5v50.25c0,1.38-1.12,2.5-2.5,2.5Z"/>
        <path class="cls-26" d="M673.72,200.41c-1.38,0-2.5-1.12-2.5-2.5v-50.24c0-1.38,1.12-2.5,2.5-2.5s2.5,1.12,2.5,2.5v50.24c0,1.38-1.12,2.5-2.5,2.5Z"/>
        <path class="cls-26" d="M673.72,320.21c-1.38,0-2.5-1.12-2.5-2.5v-50.25c0-1.38,1.12-2.5,2.5-2.5s2.5,1.12,2.5,2.5v50.25c0,1.38-1.12,2.5-2.5,2.5Z"/>
        <path class="cls-23" d="M667.62,271.91c-1.93,0-3.5-1.57-3.5-3.5v-50.25c0-1.93,1.57-3.5,3.5-3.5s3.5,1.57,3.5,3.5v50.25c0,1.93-1.57,3.5-3.5,3.5Z"/>
        <path class="cls-23" d="M667.62,133.62c-1.93,0-3.5-1.57-3.5-3.5v-10.24c0-1.93,1.57-3.5,3.5-3.5s3.5,1.57,3.5,3.5v10.24c0,1.93-1.57,3.5-3.5,3.5Z"/>
        <path class="cls-23" d="M248.01,252.22c-1.93,0-3.5-1.57-3.5-3.5v-10.24c0-1.93,1.57-3.5,3.5-3.5s3.5,1.57,3.5,3.5v10.24c0,1.93-1.57,3.5-3.5,3.5Z"/>
        <path class="cls-11" d="M598.27,426.05h-10.27c-1.93,0-3.5-1.57-3.5-3.5s1.57-3.5,3.5-3.5h10.25c1.93,0,3.5,1.57,3.5,3.5s-1.57,3.5-3.5,3.5h.02Z"/>
        <path class="cls-23" d="M248.01,327.76c-1.93,0-3.5-1.57-3.5-3.5v-10.24c0-1.93,1.57-3.5,3.5-3.5s3.5,1.57,3.5,3.5v10.24c0,1.93-1.57,3.5-3.5,3.5Z"/>
        <path class="cls-23" d="M248.01,127c-1.93,0-3.5-1.57-3.5-3.5v-10.25c0-1.93,1.57-3.5,3.5-3.5s3.5,1.57,3.5,3.5v10.25c0,1.93-1.57,3.5-3.5,3.5Z"/>
        <path class="cls-19" d="M671.2,348.53H244.71c-.83,0-1.5-.67-1.5-1.5v-127.31c0-.83,.67-1.5,1.5-1.5s1.5,.67,1.5,1.5v125.81h423.49V111.33H246.21v59.26c0,.83-.67,1.5-1.5,1.5s-1.5-.67-1.5-1.5v-60.76c0-.83,.67-1.5,1.5-1.5h426.49c.83,0,1.5,.67,1.5,1.5v237.2c0,.83-.67,1.5-1.5,1.5Z"/>
        <path class="cls-15" d="M149.15,390.21h5.12v12c0,1.41-1.15,2.56-2.56,2.56h0c-1.41,0-2.56-1.15-2.56-2.56v-12h0Z"/>
        <path class="cls-19" d="M119.57,476.43c-1.98,0-3.84-.77-5.24-2.17-1.41-1.4-2.18-3.27-2.19-5.25v-26.51c0-1.1,.9-2,2-2s2,.9,2,2v26.5c0,.92,.36,1.78,1.01,2.43,.65,.65,1.51,1,2.42,1h56.01c1.89,0,3.44-1.54,3.44-3.43v-73.91c0-1.89-1.55-3.44-3.44-3.44h-56c-1.9,0-3.44,1.54-3.44,3.44v21.05c0,1.1-.9,2-2,2s-2-.9-2-2v-21.05c0-4.1,3.34-7.44,7.44-7.44h56c4.1,0,7.43,3.34,7.44,7.44v73.91c0,4.1-3.34,7.43-7.44,7.43h-56.01Z"/>
        <path class="cls-19" d="M114.14,435.04c-1.1,0-2-.9-2-2v-8.47c0-1.1,.9-2,2-2s2,.9,2,2v8.47c0,1.1-.9,2-2,2Z"/>
        <circle class="cls-17" cx="866.08" cy="354.03" r="7.89"/>
        <path class="cls-19" d="M866.08,363.42c-5.18,0-9.39-4.21-9.39-9.39s4.21-9.39,9.39-9.39,9.39,4.21,9.39,9.39-4.21,9.39-9.39,9.39Zm0-15.78c-3.52,0-6.39,2.87-6.39,6.39s2.87,6.39,6.39,6.39,6.39-2.87,6.39-6.39-2.87-6.39-6.39-6.39Z"/>
        <path class="cls-19" d="M849.97,392.83c-.06,0-.12,0-.17,0-.82-.1-1.41-.84-1.32-1.66l2.16-18.68-4.77-.59c-.82-.1-1.41-.85-1.31-1.67s.85-1.41,1.67-1.31l6.25,.77c.82,.1,1.4,.84,1.31,1.66l-2.33,20.16c-.09,.76-.74,1.33-1.49,1.33Z"/>
        <path class="cls-2" d="M679.95,428.5h-21.95c-2.21,0-4-1.79-4-4s1.79-4,4-4h21.95c4.44,0,9.51-4.79,9.51-9v-12.43c0-2.21,1.79-4,4-4s4,1.79,4,4v12.43c0,8.58-8.67,17-17.51,17Z"/>
        <path class="cls-2" d="M276.87,429.57h-22c-2.21,0-4-1.79-4-4s1.79-4,4-4h22c2.21,0,4,1.79,4,4s-1.79,4-4,4Z"/>
        <path class="cls-19" d="M679.21,428.4H236.71c-10.06,0-18.24-8.18-18.24-18.24v-132.65c0-1.1,.9-2,2-2s2,.9,2,2v132.65c0,7.85,6.39,14.24,14.24,14.24h442.5c7.85,0,14.24-6.39,14.24-14.24v-148.16c0-1.1,.9-2,2-2s2,.9,2,2v148.16c0,10.06-8.18,18.24-18.24,18.24Z"/>
      </g>
    </g>
  </g>
</svg>