<?xml version="1.0" encoding="utf-8"?>
<!-- Generator: Adobe Illustrator 27.0.0, SVG Export Plug-In . SVG Version: 6.00 Build 0)  -->
<svg version="1.1" id="Layer_1" xmlns="http://www.w3.org/2000/svg" xmlns:xlink="http://www.w3.org/1999/xlink" x="0px" y="0px"
	 viewBox="0 0 1286 742.9" style="enable-background:new 0 0 1286 742.9;" xml:space="preserve">
<style type="text/css">
	.st0{fill:url(#SVGID_1_);}
	.st1{fill:#E7F6FF;}
	.st2{fill:none;}
	.st3{fill:#426572;}
	.st4{fill:#FFFFFF;}
	.st5{fill:#E8EDF7;}
	.st6{fill:#C1CEDE;}
	.st7{fill:#F1F6FE;}
	.st8{fill:#E2F2FF;}
	.st9{fill:#CADCE8;}
	.st10{fill:#87D6FE;}
	.st11{fill:#A8EF9E;}
	.st12{opacity:0.1;fill:#606060;enable-background:new    ;}
	.st13{opacity:0.2;fill:#606060;enable-background:new    ;}
	.st14{fill:#DEE6F1;}
	.st15{fill:#E8837E;}
	.st16{fill:#D66765;}
	.st17{enable-background:new    ;}
</style>
<linearGradient id="SVGID_1_" gradientUnits="userSpaceOnUse" x1="1.3274" y1="372.8122" x2="1254.6133" y2="372.8122" gradientTransform="matrix(1 0 0 -1 0 744)">
	<stop  offset="0" style="stop-color:#C5E9FA"/>
	<stop  offset="1" style="stop-color:#C4F4EA"/>
</linearGradient>
<path class="st0" d="M1218.2,449.5c-45.4,117.7-130.9,220.8-249.6,266.1c-15.4,5.9-31.2,10.9-47.2,15
	c-84.7,21.6-177.3,14.1-255.4-25.3c-33.1-16.7-63.3-38.8-96.6-55.3s-71.2-27.2-107.4-19.1c-31.2,7-57.5,27.1-83.9,44.9
	c-62.4,42.1-137.4,75.5-211.3,61c-34-6.7-67.5-25.1-83.3-55.9c-34.9-68.1,30.9-149,17.6-224.3c-8.5-48.2-47.5-84.3-71.7-126.8
	c-41.5-72.7-36.6-169.3,12-237.5S179.7-11.9,262,3.5c100.3,18.9,176.1,103.8,273.7,133.8c61,18.8,127.2,13.2,185.5-11.6
	c94.1-39.9,223.5-101.2,329.4-91.2c56.3,5.3,111.6,30.3,148.8,73c47,53.9,61.1,130.4,53.2,201.5
	C1247.2,357.1,1235.6,404.3,1218.2,449.5z"/>
<path class="st1" d="M1248.4,542.5c-2.1,0-4.2-0.3-6.2-0.8c-13.9-3.4-22.4-17.5-19-31.4c3.4-13.9,17.5-22.4,31.4-19
	c13.9,3.4,22.4,17.5,19,31.4C1270.8,534.4,1260.4,542.5,1248.4,542.5z M1248.4,502.4c-7.8,0-14.1,6.4-14,14.1
	c0,6.5,4.4,12.1,10.7,13.6l0,0c7.6,1.8,15.2-2.8,17-10.4s-2.8-15.2-10.4-17C1250.6,502.5,1249.5,502.4,1248.4,502.4L1248.4,502.4z"
	/>
<ellipse transform="matrix(0.2357 -0.9718 0.9718 0.2357 376.3149 1613.2297)" class="st1" cx="1213.7" cy="567.4" rx="11.3" ry="11.3"/>
<path class="st1" d="M55.2,540.1c-14.4-0.3-25.8-12.2-25.5-26.7c0.3-14.4,12.2-25.8,26.7-25.5c14.4,0.3,25.8,12.2,25.5,26.7
	c-0.3,14-11.6,25.2-25.5,25.5H55.2z M55.2,499.9h-0.6c-7.8,0.2-14,6.6-13.8,14.4c0.2,7.8,6.6,14,14.4,13.8s14-6.6,13.8-14.4
	C68.8,506.1,62.8,500.1,55.2,499.9L55.2,499.9z"/>
<ellipse transform="matrix(0.9983 -5.822361e-02 5.822361e-02 0.9983 -33.2737 3.0732)" class="st1" cx="36.1" cy="572.5" rx="11.3" ry="11.3"/>
<path class="st1" d="M709.1,118.3c-14.4,0-26.1-11.6-26.1-26c0-14.4,11.6-26.1,26-26.1c14.4,0,26.1,11.6,26.1,26
	c0,8.5-4.1,16.5-11.1,21.4C719.6,116.6,714.4,118.3,709.1,118.3z M709,78.1c-7.8,0-14.1,6.3-14.2,14.1s6.3,14.1,14.1,14.2
	c7.8,0,14.1-6.3,14.2-14.1c0-6.9-4.9-12.7-11.7-13.9C710.7,78.2,709.8,78.1,709,78.1z"/>
<ellipse transform="matrix(0.8188 -0.5741 0.5741 0.8188 55.9452 392.3349)" class="st1" cx="649.4" cy="107.6" rx="11.3" ry="11.3"/>
<rect x="713.4" y="105.1" class="st2" width="44.5" height="44.5"/>
<rect x="713.4" y="105.1" class="st2" width="44.5" height="44.5"/>
<path class="st3" d="M839.7,724.1"/>
<path class="st4" d="M1286,252.7c0-22.9-18.6-41.5-41.5-41.5c-0.9,0-1.8,0-2.7,0.1c0.1-0.9,0.1-1.8,0.1-2.7
	c0-22.9-18.6-41.5-41.5-41.5c-22.9,0-41.5,18.6-41.5,41.5c0,3.6,0.5,7.1,1.4,10.5c-18.5-13.4-44.5-9.3-57.9,9.2
	c-13.4,18.5-9.3,44.5,9.2,57.9c4.8,3.5,10.3,5.9,16.1,7.1c8.1,21.4,32,32.2,53.4,24.2c5.8-2.2,11.1-5.7,15.4-10.2
	c18.3,13.8,44.3,10.2,58.1-8.1c1.8-2.4,3.3-5,4.6-7.7C1275.3,285.3,1286,269.9,1286,252.7z"/>
<path class="st4" d="M191.4,153c0-22.9-18.5-41.5-41.4-41.5c0,0,0,0,0,0c-0.9,0-1.8,0-2.7,0.1c0.1-0.9,0.1-1.8,0.1-2.7
	c0-22.9-18.6-41.5-41.5-41.5S64.4,86,64.4,108.9c0,3.6,0.5,7.1,1.4,10.5c-18.5-13.4-44.5-9.3-57.9,9.2s-9.3,44.5,9.2,57.9
	c4.8,3.5,10.3,5.9,16.1,7.1c8.1,21.4,32,32.2,53.4,24.1c5.8-2.2,11.1-5.7,15.4-10.2c18.3,13.8,44.3,10.2,58.1-8.1
	c1.8-2.4,3.3-5,4.6-7.7C180.8,185.6,191.4,170.2,191.4,153z"/>
<path class="st3" d="M954.2,742.9H357.7v-13h596.5c3.6,0,6.5,2.9,6.5,6.5S957.8,742.9,954.2,742.9z"/>
<path class="st3" d="M331,742.9h-36.5c-3.6,0-6.5-2.9-6.5-6.5s2.9-6.5,6.5-6.5H331c3.6,0,6.5,2.9,6.5,6.5S334.6,742.9,331,742.9z"/>
<path class="st3" d="M270.9,742.9h-11.6c-3.6,0-6.5-2.9-6.5-6.5s2.9-6.5,6.5-6.5h11.6c3.6,0,6.5,2.9,6.5,6.5
	S274.4,742.9,270.9,742.9z"/>
<path class="st3" d="M1163.3,742.9H980v-13h183.3c3.6,0,6.5,2.9,6.5,6.5S1166.9,742.9,1163.3,742.9z"/>
<path class="st3" d="M226,742.9H42.7v-13H226c3.6,0,6.5,2.9,6.5,6.5S229.6,742.9,226,742.9z"/>
<path class="st5" d="M549.2,541.5h156c6.6,0,12,5.4,12,12v150c0,6.6-5.4,12-12,12h-156c-6.6,0-12-5.4-12-12v-150
	C537.2,546.9,542.6,541.5,549.2,541.5z"/>
<rect x="537.2" y="613.5" class="st6" width="180" height="55"/>
<path class="st3" d="M702.8,723.5h-156c-9.9,0-18-8.1-18-18v-150c0-9.9,8.1-18,18-18h156c9.9,0,18,8.1,18,18v150
	C720.8,715.4,712.7,723.5,702.8,723.5z M546.8,549.5c-3.3,0-6,2.7-6,6v150c0,3.3,2.7,6,6,6h156c3.3,0,6-2.7,6-6v-150
	c0-3.3-2.7-6-6-6H546.8z"/>
<path class="st5" d="M1082.7,128.5v462c0,22.7-15.3,42.5-37.2,48.3l0,0c-4.2,1.1-8.5,1.7-12.8,1.7H222.7c-27.6,0-50-22.4-50-50v-462
	c0-9.2,2.5-18.3,7.4-26.2c0.6-1,1.3-2,2-3c5.5-7.7,13.1-13.6,21.8-17.2l0,0c6-2.4,12.3-3.7,18.8-3.7h810
	C1060.3,78.4,1082.7,100.8,1082.7,128.5C1082.7,128.4,1082.7,128.5,1082.7,128.5z"/>
<path class="st3" d="M1026.8,648.5h-810c-30.9,0-56-25.1-56-56v-462c0-14.1,5.3-27.8,15-38.1c0.6-0.7,1.4-1.4,2.2-2.3
	c10.4-10,24.3-15.6,38.8-15.6h810c30.9,0,56,25.1,56,56v462c0,30.9-25,56-55.9,56C1026.9,648.5,1026.8,648.5,1026.8,648.5
	L1026.8,648.5z M216.8,86.5c-11.4,0-22.3,4.4-30.4,12.3c-0.7,0.7-1.2,1.2-1.7,1.8c-7.6,8.1-11.8,18.9-11.8,30v462
	c0,24.3,19.7,44,44,44h810c24.3,0,44-19.6,44-43.9c0,0,0-0.1,0-0.1v-462c0-24.3-19.7-44-44-44L216.8,86.5z"/>
<path class="st6" d="M228.1,110.5h789.3c16.5,0,29.9,13.4,29.9,29.9v444.3c0,16.5-13.4,29.9-29.9,29.9H228.1
	c-16.5,0-29.9-13.4-29.9-29.9V140.4C198.3,123.9,211.6,110.5,228.1,110.5z"/>
<path class="st7" d="M232.6,126.5h780.3c9.3,0,16.8,7.5,16.8,16.8v390.2l0,0H215.8l0,0V143.3C215.8,134,223.3,126.5,232.6,126.5
	L232.6,126.5z"/>
<path class="st5" d="M1045.3,531.5v51.1c0,16.5-13.4,29.9-29.9,29.9H226.1c-16.5,0-29.9-13.4-29.9-29.9v-51.1h17.5v2h813.9v-2
	H1045.3z"/>
<rect x="198.7" y="529.5" class="st6" width="847" height="18"/>
<rect x="200.8" y="525.5" class="st3" width="844" height="12"/>
<path class="st4" d="M311.7,161.5h612c6.6,0,12,5.4,12,12v308c0,6.6-5.4,12-12,12h-612c-6.6,0-12-5.4-12-12v-308
	C299.7,166.9,305.1,161.5,311.7,161.5z"/>
<polygon class="st8" points="309.7,219.5 937.7,219.5 937.7,177.3 925.7,161.5 375.7,161.5 321.7,161.5 301.7,177.3 301.7,219.5 "/>
<path class="st3" d="M925.7,499.5h-612c-9.9,0-18-8.1-18-18v-308c0-9.9,8.1-18,18-18h612c9.9,0,18,8.1,18,18v308
	C943.7,491.4,935.7,499.5,925.7,499.5z M313.7,167.5c-3.3,0-6,2.7-6,6v308c0,3.3,2.7,6,6,6h612c3.3,0,6-2.7,6-6v-308
	c0-3.3-2.7-6-6-6H313.7z"/>
<path class="st5" d="M478.2,694.5h291.7c6.6,0,12,5.4,12,12v13c0,6.6-5.4,12-12,12H478.2c-6.6,0-12-5.4-12-12v-13
	C466.2,699.9,471.6,694.5,478.2,694.5z"/>
<path class="st3" d="M771.2,738.5H479.6c-9.9,0-18-8.1-18-18v-13c0-9.9,8.1-18,18-18h291.7c9.9,0,18,8.1,18,18v13
	C789.2,730.4,781.2,738.5,771.2,738.5z M479.6,701.5c-3.3,0-6,2.7-6,6v13c0,3.3,2.7,6,6,6h291.7c3.3,0,6-2.7,6-6v-13
	c0-3.3-2.7-6-6-6H479.6z"/>
<circle class="st9" cx="338.2" cy="192.7" r="8"/>
<circle class="st9" cx="362.2" cy="192.7" r="8"/>
<circle class="st9" cx="386.2" cy="192.7" r="8"/>
<path class="st9" d="M419.7,184.7h487c3.6,0,6.5,2.9,6.5,6.5v3c0,3.6-2.9,6.5-6.5,6.5h-487c-3.6,0-6.5-2.9-6.5-6.5v-3
	C413.2,187.7,416.2,184.7,419.7,184.7z"/>
<path class="st10" d="M349.2,245.5h546c6.6,0,12,5.4,12,12v90c0,6.6-5.4,12-12,12h-546c-6.6,0-12-5.4-12-12v-90
	C337.2,250.9,342.6,245.5,349.2,245.5z"/>
<path class="st3" d="M894.2,367.5h-546c-9.9,0-18-8.1-18-18v-90c0-9.9,8.1-18,18-18h546c9.9,0,18,8.1,18,18v90
	C912.2,359.4,904.2,367.5,894.2,367.5z M348.2,253.5c-3.3,0-6,2.7-6,6v90c0,3.3,2.7,6,6,6h546c3.3,0,6-2.7,6-6v-90c0-3.3-2.7-6-6-6
	H348.2z"/>
<path class="st11" d="M353.4,394.5h146.8c6.6,0,12,5.4,12,12v39c0,6.6-5.4,12-12,12H353.4c-6.6,0-12-5.4-12-12v-39
	C341.4,399.9,346.8,394.5,353.4,394.5z"/>
<path class="st3" d="M498.1,464.5H351.2c-9.9,0-18-8.1-18-18v-39c0-9.9,8.1-18,18-18h146.8c9.9,0,18,8.1,18,18v39
	C516.1,456.4,508,464.5,498.1,464.5z M351.2,401.5c-3.3,0-6,2.7-6,6v39c0,3.3,2.7,6,6,6h146.8c3.3,0,6-2.7,6-6v-39c0-3.3-2.7-6-6-6
	H351.2z"/>
<path class="st11" d="M548.9,394.5h146.8c6.6,0,12,5.4,12,12v39c0,6.6-5.4,12-12,12H548.9c-6.6,0-12-5.4-12-12v-39
	C536.9,399.9,542.3,394.5,548.9,394.5z"/>
<path class="st3" d="M693.6,464.5H546.8c-9.9,0-18-8.1-18-18v-39c0-9.9,8.1-18,18-18h146.8c9.9,0,18,8.1,18,18v39
	C711.6,456.4,703.5,464.5,693.6,464.5z M546.8,401.5c-3.3,0-6,2.7-6,6v39c0,3.3,2.7,6,6,6h146.8c3.3,0,6-2.7,6-6v-39
	c0-3.3-2.7-6-6-6H546.8z"/>
<path class="st11" d="M744.4,394.5h146.8c6.6,0,12,5.4,12,12v39c0,6.6-5.4,12-12,12H744.4c-6.6,0-12-5.4-12-12v-39
	C732.4,399.9,737.8,394.5,744.4,394.5z"/>
<path class="st3" d="M889.1,464.5H742.3c-9.9,0-18-8.1-18-18v-39c0-9.9,8.1-18,18-18h146.8c9.9,0,18,8.1,18,18v39
	C907.1,456.4,899,464.5,889.1,464.5z M742.3,401.5c-3.3,0-6,2.7-6,6v39c0,3.3,2.7,6,6,6h146.8c3.3,0,6-2.7,6-6v-39c0-3.3-2.7-6-6-6
	H742.3z"/>
<path class="st3" d="M1017.4,618.5H228.1c-19.8,0-35.8-16.1-35.9-35.9V138.4c0-19.8,16.1-35.8,35.9-35.9h789.2
	c19.8,0,35.8,16.1,35.9,35.9v444.2C1053.2,602.4,1037.2,618.5,1017.4,618.5z M228.1,114.5c-13.2,0-23.9,10.7-23.9,23.9v444.2
	c0,13.2,10.7,23.9,23.9,23.9h789.2c13.2,0,23.9-10.7,23.9-23.9V138.4c0-13.2-10.7-23.9-23.9-23.9L228.1,114.5z"/>
<path class="st12" d="M111.1,192.4c1.6,0.7,3.3,1.1,5,1.1h-5V192.4z"/>
<path class="st13" d="M396.2,78.5v122.3c0,6.6-5.4,12-12,12H166.8v-22h-55.6V51.5c0-6.6,5.4-12,12-12h245.1v39L396.2,78.5z"/>
<path class="st4" d="M356.1,188.5h-261c-6.6,0-12-5.4-12-12v-147c0-6.6,5.4-12,12-12h261c6.6,0,12,5.4,12,12v147
	C368.1,183.1,362.7,188.5,356.1,188.5z"/>
<rect x="181.1" y="174" class="st14" width="185" height="11"/>
<path class="st15" d="M85.2,177.7v-147c0-6.6,5.4-12,12-12h84.9v171H97.2C90.6,189.7,85.2,184.4,85.2,177.7z"/>
<path class="st16" d="M111.1,192.4c1.6,0.7,3.3,1.1,5,1.1h-17c-3.3,0-6.5-1.4-8.7-3.8c-1-1-1.7-2.2-2.3-3.5
	c-0.2-0.4-0.3-0.9-0.5-1.3c-0.3-1.1-0.5-2.2-0.5-3.4v-147c0-6.6,5.4-12,12-12h17c-6.6,0-12,5.4-12,12v147c0,2.5,0.8,5,2.3,7
	c0.3,0.4,0.6,0.9,1,1.2c0.3,0.4,0.7,0.7,1.1,1C109.3,191.4,110.2,192,111.1,192.4z"/>
<path class="st3" d="M356.2,196.7h-261c-2.5,0-5-0.5-7.3-1.6c-6.5-2.9-10.7-9.3-10.7-16.4v-147c0-7.4,4.5-14,11.3-16.7l1-0.5h0.4
	c1.7-0.5,3.5-0.8,5.3-0.8h261c9,0,16.5,6.6,17.8,15.5c0.1,0.8,0.2,1.7,0.2,2.5v147c0,3.7-1.2,7.4-3.4,10.4
	C367.5,193.9,362.1,196.7,356.2,196.7z M92.2,26.5c-1.9,1.1-3,3.1-3,5.2v147c0,2.4,1.4,4.5,3.6,5.5c0.8,0.3,1.6,0.5,2.4,0.5h261
	c1.9,0,3.8-1,4.9-2.5c0.7-1,1.1-2.2,1.1-3.5v-147c0-0.3,0-0.5-0.1-0.8c-0.4-3-2.9-5.2-5.9-5.2h-261c-0.7,0-1.3,0.1-1.9,0.3
	L92.2,26.5z"/>
<rect x="174.1" y="21.5" class="st3" width="12" height="168"/>
<g class="st17">
	<path class="st3" d="M287.4,140h-13.6l-5.4-14.1h-24.7l-5.1,14.1h-13.3l24.1-61.9h13.2L287.4,140z M264.4,115.5l-8.5-23l-8.4,23
		H264.4z"/>
	<path class="st3" d="M294,78.1h22.8c5.1,0,9.1,0.4,11.8,1.2c3.6,1.1,6.7,3,9.3,5.7c2.6,2.7,4.6,6.1,5.9,10c1.4,4,2,8.8,2,14.6
		c0,5.1-0.6,9.5-1.9,13.2c-1.5,4.5-3.8,8.1-6.6,10.9c-2.2,2.1-5.1,3.8-8.8,4.9c-2.8,0.9-6.4,1.3-11.1,1.3H294V78.1z M306.5,88.6v41
		h9.3c3.5,0,6-0.2,7.6-0.6c2-0.5,3.7-1.4,5-2.6c1.3-1.2,2.4-3.2,3.3-6s1.3-6.5,1.3-11.3c0-4.8-0.4-8.5-1.3-11s-2-4.6-3.5-6
		c-1.5-1.4-3.4-2.4-5.8-2.9c-1.7-0.4-5.2-0.6-10.3-0.6H306.5z"/>
</g>
<path class="st3" d="M1006.2,513.5"/>
<path class="st4" d="M986.1,674.2V426.3c0-6.6,5.4-12,12-12h139.1c6.6,0,12,5.4,12,12v247.9c0,6.6-5.4,12-12,12H998.1
	C991.5,686.2,986.1,680.8,986.1,674.2z"/>
<path class="st14" d="M1149.2,430.9v245.3c0,7.3-5.9,13.2-13.2,13.3H999.4c-7.3,0-13.3-6-13.3-13.3v-8.9h125.5
	c7.4,0,13.3-6,13.3-13.3V417.6h11.1C1143.3,417.7,1149.2,423.6,1149.2,430.9z"/>
<path class="st3" d="M1135.7,692.3H995.4c-3.6,0-7.2-1.2-10.1-3.3c-4.6-3.3-7.3-8.6-7.3-14.2v-249c0-2.4,0.5-4.9,1.5-7.1
	c2.8-6.3,9-10.3,15.9-10.4h140.2c7.1,0,13.5,4.4,16.2,11l0.5,1v0.4c0.5,1.7,0.8,3.4,0.8,5.1v249c0,8.7-6.4,16-15,17.3
	C1137.3,692.2,1136.5,692.3,1135.7,692.3z M995.4,420.4c-2.2,0-4.1,1.3-5,3.2c-0.3,0.7-0.5,1.4-0.5,2.2v249c0,1.8,0.9,3.4,2.3,4.4
	c0.9,0.7,2,1,3.1,1h140.2c0.2,0,0.5,0,0.7,0c2.7-0.4,4.7-2.7,4.7-5.4v-249c0-0.6-0.1-1.2-0.3-1.8l-0.5-1c-1-1.7-2.8-2.7-4.7-2.7
	L995.4,420.4z"/>
<rect x="1016.8" y="503.1" class="st3" width="99.7" height="12"/>
<rect x="1016.8" y="469.8" class="st3" width="99.7" height="12"/>
<rect x="1016.8" y="540.7" class="st3" width="99.7" height="12"/>
<path class="st4" d="M813.9,565.5h154.3c3.9,0,3.9-6,0-6H813.9C810,559.5,810,565.5,813.9,565.5z"/>
<path class="st4" d="M754.2,565.5h40.2c3.9,0,3.9-6,0-6h-40.2C750.4,559.5,750.4,565.5,754.2,565.5z"/>
</svg>
