<?xml version="1.0" encoding="UTF-8"?>
<svg id="Layer_2" data-name="Layer 2" xmlns="http://www.w3.org/2000/svg" viewBox="0 0 659.89 509.94">
  <defs>
    <style>
      .cls-1 {
        fill: #f8fffb;
      }

      .cls-2, .cls-3 {
        fill: #048edd;
      }

      .cls-4 {
        fill: #000201;
      }

      .cls-5 {
        fill: #fff;
      }

      .cls-6 {
        fill: #fc691f;
      }

      .cls-7 {
        fill: #fc884f;
      }

      .cls-8 {
        fill: #6b838c;
      }

      .cls-9, .cls-10 {
        fill: #c2efff;
      }

      .cls-11 {
        fill: #d9e1e4;
      }

      .cls-12, .cls-13, .cls-14 {
        fill: #253b4a;
      }

      .cls-15 {
        fill: #3ec4ff;
      }

      .cls-16 {
        fill: #35545b;
      }

      .cls-17 {
        fill: #a1bcc4;
      }

      .cls-3 {
        opacity: .5;
      }

      .cls-3, .cls-13, .cls-14, .cls-10 {
        isolation: isolate;
      }

      .cls-13 {
        opacity: .35;
      }

      .cls-14, .cls-10, .cls-18 {
        opacity: .4;
      }
    </style>
  </defs>
  <g id="Layer_1-2" data-name="Layer 1">
    <g id="Layer_2-2" data-name="Layer 2">
      <g id="Layer_1-2" data-name="Layer 1-2">
        <path class="cls-10" d="M232.78,208.27c.08-43.8-35.36-79.37-79.15-79.45-37.02-.07-69.16,25.48-77.44,61.56-25.13-13.53-56.47-4.13-70,21-13.53,25.13-4.13,56.47,21,70,6.66,3.59,14.03,5.67,21.58,6.09h111.97v-.37c40.76-3.76,71.96-37.91,72.04-78.84Z"/>
        <g class="cls-18">
          <path class="cls-9" d="M659.78,301.09c0,18.12-14.18,33.08-32.27,34.05h-68.91c-1.67,0-3.33,0-4.94-.23-28.78-2.73-49.9-28.27-47.17-57.04,2.73-28.78,28.27-49.9,57.04-47.17,22.42,2.12,40.98,18.36,46.06,40.3,16.61-8.93,37.31-2.7,46.23,13.9,2.67,4.96,4.06,10.5,4.07,16.13l-.11,.06Z"/>
          <path class="cls-9" d="M558.54,335.2h-5v-.23c1.64,.14,3.42,.23,5,.23Z"/>
          <path class="cls-9" d="M627.51,335.14h-1.84c.61,.04,1.23,.04,1.84,0Z"/>
        </g>
        <g class="cls-18">
          <path class="cls-9" d="M492.88,190.38c0,18.13-14.19,33.09-32.3,34.05h-68.91c-1.67,0-3.33,0-4.94-.23-28.78-2.73-49.9-28.27-47.17-57.04,2.73-28.78,28.27-49.9,57.04-47.17,22.42,2.12,40.98,18.36,46.06,40.3,16.61-8.91,37.31-2.67,46.22,13.95,2.65,4.95,4.05,10.47,4.05,16.08l-.06,.06Z"/>
          <path class="cls-9" d="M391.64,224.49h-5v-.23c1.64,.14,3.27,.23,5,.23Z"/>
          <path class="cls-9" d="M460.58,224.43h-1.81c.6,.04,1.21,.04,1.81,0Z"/>
        </g>
        <path class="cls-2" d="M388.37,390.79c-5.48,1.32-11.1,1.98-16.74,1.95-38.1,0-68.91-28.91-68.91-64.57s30.89-64.57,68.91-64.57c5.74,0,0,.63,5.25,1.95-29.97,6.95-40.71,32.36-40.71,62.62s22.22,55.67,52.2,62.62Z"/>
        <path class="cls-4" d="M371.98,395.27c-.12,0-.24,0-.36,0-39.38,0-71.42-30.1-71.42-67.1s32.05-67.1,71.43-67.1c2.35,0,3.77,0,4.73,1.16,.15,.18,.28,.41,.37,.65,.19,.06,.44,.13,.77,.21,1.13,.28,1.92,1.31,1.91,2.47-.01,1.17-.82,2.17-1.96,2.44-32.03,7.42-38.76,36.81-38.76,60.16,0,28.56,20.66,53.3,50.24,60.16,1.14,.26,1.95,1.28,1.96,2.45,0,1.17-.79,2.19-1.93,2.47-5.56,1.34-11.27,2.02-16.99,2.02Zm-5.64-128.95c-34.14,2.53-61.08,29.3-61.08,61.85,0,34.21,29.78,62.04,66.38,62.04,1.9,0,3.8-.06,5.69-.21-26.18-10.28-43.68-34.42-43.68-61.83,0-31.53,11.25-52.68,32.69-61.85Z"/>
        <path class="cls-7" d="M133.07,260.69s21.25-40.2,59.81-39.13c22.11,.66,52.02,.55,90.7,.34,33.47-.16,66.13,10.29,93.28,29.86h0"/>
        <path class="cls-5" d="M300.57,226.67h-95.64c-1.59,0-2.87-1.29-2.87-2.87s1.29-2.87,2.87-2.87h95.64c1.59,0,2.87,1.29,2.87,2.87s-1.29,2.87-2.87,2.87Z"/>
        <path class="cls-8" d="M630.38,386.48c5.35,10.95,8.12,22.98,8.1,35.17v5.91c.02,44.27-35.86,80.17-80.13,80.19h-.06c-44.3,0-85.53-40.77-80.22-91.68"/>
        <path class="cls-12" d="M634.91,395.67c-32.42,27.19-102.93,43.27-156.59,37.58-.75-5.58-.92-11.22-.49-16.82,49.64,5.4,113.84-7.92,148.98-31.58l3.56-.69c1.8,3.72,3.32,7.57,4.54,11.51Z"/>
        <path class="cls-14" d="M634.48,399.8c-27.79,47.05-75.2,79.18-129.2,87.57-6.46-5.6-12.03-12.16-16.51-19.44-8.3-13.43-12.54-28.98-12.2-44.76,0,3.28,.23,6.55,.69,9.79,29.77,2.61,59.77,.23,88.75-7.06,27.07-6.66,51.51-17.23,67.27-30.06,.4,1.32,.8,2.64,1.21,3.96Z"/>
        <path class="cls-11" d="M535.97,416.65c-.6,2.08-.9,4.24-.89,6.4v3.1c0,12.81,10.39,23.2,23.2,23.2s23.2-10.39,23.2-23.2v-3.1c.02-5.45-1.91-10.74-5.43-14.9l19.12-3.79c2.76,5.64,4.19,11.84,4.19,18.12v4.22c.6,22.7-17.32,41.59-40.01,42.19s-41.59-17.32-42.19-40.01c-.02-.72-.02-1.45,0-2.17l.32-10.34,18.49,.29Z"/>
        <path class="cls-17" d="M535.26,427.13c.07,2.03,.4,4.05,.98,6-6,.8-12.72,1.35-18.69,1.75-.4-2.33-.61-4.7-.6-7.06l.29-9.62c2.41,0,4.79-.34,7.24-.57l11.23,.17c-.48,2.03-.65,4.12-.52,6.2l.09,3.13Z"/>
        <path class="cls-17" d="M598.42,417.2c-5.54,2.24-11.34,4.25-17.37,6.09-.17-5.14-2.06-10.07-5.37-14.01l19.06-3.73c1.82,3.67,3.06,7.61,3.68,11.66Z"/>
        <path class="cls-8" d="M204.01,427.57c0,44.3-35.92,80.22-80.22,80.22s-80.22-35.92-80.22-80.22"/>
        <path class="cls-13" d="M203.15,427.79c-.84,44.3-37.43,79.53-81.72,78.69-43.12-.82-77.87-35.57-78.69-78.69h1.69c7.38,43.67,48.76,73.09,92.43,65.72,33.66-5.68,60.03-32.06,65.72-65.72h.57Z"/>
        <path class="cls-12" d="M203.81,422.54c0,5.07-.48,10.13-1.44,15.1H44.75c-.96-4.98-1.44-10.03-1.44-15.1H203.81Z"/>
        <path class="cls-11" d="M164.88,426.7c0,22.69-18.39,41.09-41.09,41.09s-41.09-18.39-41.09-41.09"/>
        <polyline class="cls-15" points="478.95 132.27 484.78 150.79 497.1 150.79 492.62 135.97"/>
        <polyline class="cls-2" points="475.59 122.77 481.42 141.28 493.74 141.28 489.26 126.47"/>
        <path class="cls-15" d="M537.35,317.97s34.65-8.96,13.98-32.99l6.69,13.98s115.74,34.08,86.68,72.12c-28.31,37.01-126.01,58.66-186.37,44.3l1.84-39.28,25.18-53.12,20.1-45.28,19.01-16.22,12.86,7.26,35.8,47.06"/>
        <path class="cls-2" d="M645.11,370.37c-28.31,37.01-126.01,58.66-186.37,44.3l.72-14.96c60.29,14.04,157.45-7.58,185.65-44.45,1.23-1.57,2.25-3.28,3.04-5.11,3,6.76,1.81,14.64-3.04,20.21Z"/>
        <path class="cls-3" d="M648.84,350.91c-.73,1.51-1.61,2.93-2.64,4.25-27.56,36.03-120.87,57.42-181.48,45.34,56.02-10.19,114.1-38.9,127.82-89.44,22.68,9.47,49.58,23.69,56.3,39.85Z"/>
        <path class="cls-15" d="M208.64,428.11h176.06s67.67,4.48,92.25-33.53l64.31-122.45c-22.6-17.66-29.49-75.45-31.58-104.88-.7-9.85-8.87-17.51-18.75-17.57h0c-10.44,0-18.9,8.45-18.92,18.89v113.15c0,59.24-48.02,107.27-107.27,107.27-.05,0-.1,0-.14,0h0c-30.61-.02-55.43-24.83-55.44-55.44v-3.19c0-30.61,24.84-64.06,55.44-64.06h9.7c4.16-.02,7.52-3.39,7.52-7.55h0c0-4.17-3.38-7.55-7.55-7.55H170.82c-16.29-.02-32.24,4.67-45.94,13.49l-19.87,21.42"/>
        <path class="cls-5" d="M382.71,259.58c0,1.86-.68,3.65-1.92,5.02l-.29-.29c-1.35-1.38,2.5-5.08,.43-5.08H171.66c-7.91,.27-15.7,2.01-22.97,5.14-15.1,6.09-28.21,16.27-37.84,29.4h0l-5-6.86,19.84-21.39c13.7-8.82,29.65-13.51,45.94-13.49h203.53c2,0,3.91,.79,5.31,2.21,1.43,1.41,2.24,3.33,2.24,5.34Z"/>
        <path class="cls-2" d="M476.4,394.58l-14.53,16.19c-27.42,20.1-78.87,16.8-78.87,16.8H206.97l-12.09-75.22c81.34,46.14,221.13,70.74,281.51,42.23Z"/>
        <path class="cls-6" d="M376.54,251.51c-.71-.21-1.44-.31-2.18-.32H170.82c-12.94-.02-25.71,2.92-37.32,8.61,2.83-4.82,6.09-9.37,9.76-13.58,8.86-3.04,18.17-4.59,27.53-4.59h190.16c5.38,2.99,10.59,6.29,15.59,9.88Z"/>
        <path class="cls-15" d="M110.87,286.1h58.49c38.63-.05,69.98,31.23,70.03,69.85,0,.02,0,.04,0,.06v29.29c0,22.39-18.15,40.54-40.54,40.54H45.3c-20.48,0-37.09-16.59-37.12-37.07h0c0-56.7,45.97-102.67,102.67-102.67h.03Z"/>
        <path class="cls-17" d="M166.03,427.79c0,3.49-.44,6.96-1.32,10.34H85.15c-.88-3.38-1.32-6.85-1.32-10.34h82.2Z"/>
        <path class="cls-3" d="M177.8,427.54H46.99c-20.49,.02-37.11-16.58-37.12-37.07t0,0c0-28.34,9.13-55.13,27.71-73.73,10.07-10.39,22.29-18.45,35.8-23.63,10.08,37.07,40.83,112.06,104.42,134.43Z"/>
        <path class="cls-2" d="M158.36,424.06c-3.73,1.09-7.6,1.64-11.48,1.64l-100.98,.72c-20.49,.03-37.12-16.55-37.15-37.04,0-.02,0-.04,0-.06-.03-22.83,7.57-45.01,21.59-63.02-3.24,52.48,16.42,89.72,128.02,97.76Z"/>
        <path class="cls-4" d="M584.84,367.64c-.19,.03-.38,.03-.57,0-.75-.33-1.11-1.18-.83-1.95h0l8.18-19.32c.33-.79,1.23-1.17,2.02-.85s1.17,1.23,.85,2.02l-8.18,19.29c-.27,.55-.86,.87-1.46,.8Z"/>
        <path class="cls-4" d="M594.63,358.66c-.19,.04-.39,.04-.57,0-.76-.31-1.13-1.16-.83-1.92h0l4.36-10.34c.33-.79,1.23-1.17,2.02-.85s1.17,1.23,.85,2.02l-4.39,10.34c-.29,.51-.85,.8-1.44,.75Z"/>
        <path class="cls-4" d="M180.04,327.94c-.19,.04-.39,.04-.57,0-.76-.29-1.13-1.13-.85-1.89,0-.01,0-.02,.01-.03h0l8.15-19.32c.33-.79,1.23-1.17,2.02-.85s1.17,1.23,.85,2.02l-8.18,19.32c-.29,.51-.85,.8-1.44,.75Z"/>
        <path class="cls-4" d="M189.83,318.95c-.2,.04-.4,.04-.6,0-.75-.3-1.11-1.15-.81-1.91,0,0,0-.01,0-.02h0l4.36-10.36c.33-.79,1.23-1.17,2.02-.85s1.17,1.23,.85,2.02l-4.39,10.34c-.27,.53-.84,.84-1.44,.78Z"/>
        <path class="cls-4" d="M45.27,428.11c-10.5,0-20.38-4.09-27.81-11.51-7.44-7.43-11.54-17.31-11.55-27.83-.04-27.83,10.74-54.05,30.34-73.81,.88-.89,2.32-.9,3.21-.01,.89,.88,.9,2.32,.01,3.21-18.75,18.9-29.06,43.98-29.03,70.61,0,9.3,3.64,18.05,10.22,24.62,6.58,6.57,15.31,10.18,24.61,10.18H198.85c21.1,0,38.27-17.17,38.27-38.27v-29.29c-.06-37.37-30.4-67.64-67.64-67.64h-58.77c-16.4,0-32.71,4.09-47.17,11.82-1.11,.59-2.48,.17-3.07-.93-.59-1.1-.17-2.48,.93-3.07,15.11-8.08,32.16-12.36,49.3-12.36h58.78c39.74,0,72.11,32.3,72.18,72.06v29.41c0,23.61-19.2,42.81-42.81,42.81H45.27Z"/>
        <path class="cls-4" d="M123.79,509.85c-45.37,0-82.29-36.91-82.29-82.29,0-1.14,.93-2.07,2.07-2.07s2.07,.93,2.07,2.07c0,43.09,35.06,78.15,78.15,78.15s78.15-35.06,78.15-78.15c0-1.14,.93-2.07,2.07-2.07s2.07,.93,2.07,2.07c0,45.37-36.91,82.29-82.29,82.29Z"/>
        <path class="cls-4" d="M123.79,469.35c-23.52,0-42.65-19.13-42.65-42.65,0-.86,.7-1.56,1.56-1.56s1.56,.7,1.56,1.56c0,21.79,17.73,39.52,39.52,39.52s39.52-17.73,39.52-39.52c0-.86,.7-1.56,1.56-1.56s1.56,.7,1.56,1.56c0,23.52-19.13,42.65-42.65,42.65Z"/>
        <path class="cls-4" d="M123.79,450.91h0c-13.64,0-24.75-11.1-24.75-24.75,0-.86,.69-1.55,1.55-1.55s1.55,.69,1.55,1.55c0,11.93,9.71,21.64,21.65,21.65h0c5.78,0,11.22-2.25,15.3-6.34,4.09-4.09,6.34-9.52,6.34-15.31,0-.86,.69-1.55,1.55-1.55h0c.86,0,1.55,.69,1.55,1.55,0,13.64-11.1,24.75-24.75,24.75Z"/>
        <path class="cls-4" d="M558.13,509.94c-21.49,0-41.78-8.21-57.24-23.21-15.92-15.43-25.03-37-25.01-59.17,0-1.14,.93-2.07,2.07-2.07h0c1.14,0,2.07,.93,2.07,2.07-.02,21.06,8.63,41.54,23.75,56.2,14.99,14.53,34.77,22.38,55.61,22.03,20.87-.32,40.37-8.75,54.9-23.74,.79-.82,2.1-.84,2.92-.05,.82,.79,.84,2.1,.05,2.92-15.3,15.78-35.83,24.66-57.81,25-.44,0-.87,0-1.31,0Z"/>
        <path class="cls-4" d="M627.73,469.74c-.35,0-.71-.09-1.04-.28-.99-.57-1.32-1.84-.75-2.82,6.31-10.88,9.91-23.26,10.4-35.82,.05-1.14,1.06-2.01,2.15-1.98,1.14,.04,2.03,1.01,1.98,2.15-.52,13.23-4.31,26.28-10.96,37.74-.38,.66-1.08,1.03-1.79,1.03Z"/>
        <path class="cls-4" d="M558.26,450.93c-3.67,0-7.32-.82-10.72-2.46-7.32-3.51-12.46-10.4-13.74-18.42-.14-.85,.44-1.66,1.3-1.79,.86-.15,1.66,.44,1.79,1.3,1.13,7,5.61,13.02,12.01,16.09,5.22,2.51,11.1,2.83,16.56,.91,5.46-1.92,9.85-5.84,12.35-11.06,.38-.78,1.31-1.11,2.09-.73,.78,.37,1.11,1.31,.73,2.09-2.87,5.97-7.89,10.47-14.14,12.66-2.69,.94-5.46,1.41-8.23,1.41Z"/>
        <path class="cls-4" d="M638.47,423.72h0c-1.14,0-2.07-.93-2.06-2.07,.02-11.8-2.71-23.65-7.89-34.26-.5-1.03-.08-2.26,.95-2.76,1.03-.5,2.26-.08,2.76,.95,5.45,11.17,8.33,23.65,8.31,36.08,0,1.14-.93,2.06-2.07,2.06Z"/>
        <path class="cls-4" d="M599.37,424.05c-.86,0-1.56-.7-1.56-1.56,0-6.01-1.4-12.03-4.03-17.43-.38-.78-.06-1.71,.72-2.09,.78-.38,1.71-.06,2.09,.72,2.84,5.82,4.35,12.32,4.35,18.8,0,.86-.7,1.56-1.56,1.56Z"/>
        <path class="cls-4" d="M580.91,424.48h0c-.86,0-1.56-.71-1.56-1.57,.02-4.52-1.36-8.85-3.99-12.52-.5-.7-.34-1.68,.36-2.18,.71-.5,1.68-.34,2.18,.36,3.01,4.21,4.59,9.18,4.57,14.35,0,.86-.7,1.56-1.56,1.56Z"/>
        <path class="cls-4" d="M535.08,424.62c-.86,0-1.56-.69-1.56-1.55-.01-2.32,.31-4.62,.95-6.85,.24-.83,1.1-1.31,1.94-1.07,.83,.24,1.31,1.11,1.07,1.94-.56,1.94-.84,3.94-.83,5.96,0,.86-.69,1.57-1.56,1.57h0Z"/>
        <path class="cls-4" d="M388.26,430.52c-2.45,0-5.18-.04-7.59-.08-1.83-.03-3.45-.06-4.59-.06H205.77c-1.25,0-2.27-1.01-2.27-2.27s1.01-2.27,2.27-2.27h170.32c1.16,0,2.81,.03,4.66,.06,4.25,.07,10.06,.17,12.76-.05l2.82-.11c16.2-.62,59.22-2.25,78.72-32.5,.68-1.05,2.08-1.36,3.13-.68,1.05,.68,1.36,2.08,.68,3.13-20.77,32.24-65.51,33.94-82.36,34.58l-2.71,.11c-1.34,.11-3.32,.14-5.52,.14Z"/>
        <path class="cls-4" d="M379.76,414.16H229.65c-.86,0-1.55-.69-1.55-1.55s.69-1.55,1.55-1.55h150.1c.86,0,1.55,.69,1.55,1.55s-.69,1.55-1.55,1.55Z"/>
        <path class="cls-4" d="M360.57,243.87c-.37,0-.74-.09-1.09-.28-23.19-12.72-49.52-19.46-75.87-19.27h-20.11c-1.25,0-2.27-1.01-2.27-2.27s1.01-2.27,2.27-2.27h20.1c27.23-.1,54.21,6.74,78.07,19.83,1.1,.6,1.5,1.98,.9,3.08-.41,.75-1.19,1.18-1.99,1.18Z"/>
        <path class="cls-4" d="M250.1,224.23h-19.87c-1.25,0-2.27-1.01-2.27-2.27s1.01-2.27,2.27-2.27h19.87c1.25,0,2.27,1.01,2.27,2.27s-1.01,2.27-2.27,2.27Z"/>
        <path class="cls-4" d="M139.99,252.57c-.49,0-.97-.15-1.39-.47-.99-.77-1.17-2.19-.41-3.18,8.81-11.4,27.63-30.42,54.75-29.59l9.08,.2c1.25,.03,2.24,1.07,2.22,2.32-.03,1.25-.99,2.18-2.32,2.22l-9.1-.2c-25.08-.85-42.76,17.11-51.04,27.83-.45,.58-1.12,.88-1.8,.88Z"/>
        <path class="cls-4" d="M497.07,152.63c-.79,0-1.52-.51-1.76-1.31l-4.45-14.82c-.29-.97,.26-2,1.23-2.29,.97-.29,2,.26,2.29,1.23l4.45,14.82c.29,.97-.26,2-1.23,2.29-.18,.05-.35,.08-.53,.08Z"/>
        <path class="cls-4" d="M484.78,152.63c-.78,0-1.51-.5-1.75-1.29l-5.83-18.52c-.31-.97,.23-2,1.2-2.3,.97-.31,2,.23,2.3,1.2l5.83,18.52c.31,.97-.23,2-1.2,2.3-.18,.06-.37,.09-.55,.09Z"/>
        <path class="cls-15" d="M538.13,132.5l-44.85,3.04c-13.92,.94-25.97-9.59-26.9-23.52-.04-.56-.06-1.13-.06-1.69h0c0-13.94,11.29-25.24,25.23-25.25,1.17,0,2.33,.08,3.48,.24l44.1,5.94c6.95,1.03,12.09,6.99,12.09,14.01v13.12c0,7.4-5.71,13.56-13.09,14.1Z"/>
        <path class="cls-2" d="M551.88,106.66v10.62c-.01,7.43-5.76,13.6-13.18,14.13l-44.85,2.87c-13.91,.95-25.95-9.55-26.9-23.46-.04-.57-.06-1.15-.06-1.72,0-1.79,.19-3.57,.57-5.31,2.56,12.3,13.79,20.83,26.33,20.01l44.85-2.87c7.49-.5,13.3-6.76,13.24-14.27Z"/>
        <path class="cls-4" d="M487.57,96.7c-.78,0-1.49-.49-1.75-1.27l-23.04-70.85h-17.13c-1.01,0-1.84-.82-1.84-1.84s.82-1.84,1.84-1.84h18.46c.8,0,1.5,.51,1.75,1.27l23.46,72.12c.31,.96-.21,2-1.18,2.31-.19,.06-.38,.09-.57,.09Z"/>
        <path class="cls-11" d="M426.41,16.99c0-4.08,5.89-6.55,10.54-4.48,6.17,2.73,10.34,7.78,10.34,13.55s-4.42,11.25-10.91,13.81c-4.48,1.84-9.93-.86-9.93-4.71l-.03-18.17Z"/>
        <path class="cls-4" d="M433.31,42.71c-3.38,0-6.62-1.86-8.22-5.06-.66-1.31-.99-2.78-.97-4.24l-.03-24.14h0c0-2.48,.97-4.81,2.72-6.56,1.75-1.75,4.02-2.77,6.56-2.71,1.68,0,3.34,.46,4.78,1.33,11.01,6.41,14.76,20.62,8.33,31.67-2.14,3.68-5.26,6.7-9,8.72-1.35,.67-2.77,.99-4.17,.99Zm-4.57-33.44l.03,24.17c-.01,.76,.16,1.48,.48,2.13,1.12,2.24,3.86,3.15,6.09,2.03,2.93-1.59,5.42-4,7.13-6.94,5.14-8.82,2.14-20.18-6.69-25.32-.75-.45-1.57-.68-2.41-.68h0c-1.24,0-2.39,.48-3.27,1.35-.87,.87-1.35,2.03-1.36,3.27Z"/>
        <path class="cls-4" d="M491.54,136.84c-6.55,0-12.81-2.34-17.79-6.7-5.45-4.77-8.72-11.37-9.21-18.59-.04-.6-.06-1.21-.06-1.82,0-14.95,12.15-27.11,27.1-27.11,1.24,0,2.48,.09,3.7,.25l44.1,5.97c7.85,1.16,13.72,7.99,13.68,15.9v13.11c.07,8.38-6.43,15.43-14.79,16.04,0,0-.01,0-.02,0l-44.85,2.87c-.62,.04-1.24,.06-1.86,.06Zm.04-50.54c-6.26,0-12.14,2.44-16.56,6.87-4.42,4.43-6.86,10.31-6.86,16.57,0,.52,.02,1.05,.05,1.57,.42,6.24,3.25,11.95,7.96,16.07,4.71,4.12,10.76,6.16,16.99,5.74l44.84-2.87c6.44-.48,11.44-5.9,11.38-12.36v-13.14c.03-6.1-4.49-11.36-10.52-12.25l-44.08-5.97c-1.06-.15-2.14-.22-3.2-.22Zm46.55,45.77h0Z"/>
        <circle class="cls-2" cx="30.45" cy="362.42" r="3.76"/>
        <circle class="cls-2" cx="44.29" cy="384.21" r="7.98"/>
        <circle class="cls-2" cx="73.43" cy="397.85" r="5.25"/>
        <circle class="cls-2" cx="103.21" cy="414.62" r="6.49"/>
        <circle class="cls-2" cx="87.7" cy="399.94" r="2.3"/>
        <circle class="cls-2" cx="62.32" cy="381.28" r="2.1"/>
        <circle class="cls-2" cx="49.75" cy="362.42" r="1.67"/>
        <circle class="cls-2" cx="535.29" cy="404.68" r="7.98"/>
        <circle class="cls-2" cx="565.58" cy="393.86" r="5.25"/>
        <circle class="cls-2" cx="598.54" cy="384.84" r="6.49"/>
        <circle class="cls-2" cx="577.18" cy="385.33" r="2.3"/>
        <circle class="cls-2" cx="546.02" cy="389.92" r="2.1"/>
        <circle class="cls-2" cx="523.8" cy="385.36" r="1.67"/>
        <circle class="cls-4" cx="48" cy="307.26" r="3.33"/>
        <circle class="cls-4" cx="214.06" cy="221.91" r="3.33"/>
        <circle class="cls-4" cx="472.52" cy="180.96" r="3.33"/>
        <circle class="cls-4" cx="470.8" cy="297.27" r="3.33"/>
        <circle class="cls-5" cx="104.18" cy="296.64" r="3.33"/>
        <path class="cls-5" d="M113.6,294.49h25.12c1.06,0,1.92,.86,1.92,1.92h0c0,1.06-.86,1.92-1.92,1.92h-25.12c-1.06,0-1.92-.86-1.92-1.92h0c0-1.06,.86-1.92,1.92-1.92Z"/>
        <path class="cls-4" d="M186.47,388.8H53.85c-.76,0-1.38-.62-1.38-1.38s.62-1.38,1.38-1.38H186.47c.76,0,1.38,.62,1.38,1.38s-.62,1.38-1.38,1.38Z"/>
        <path class="cls-4" d="M186.47,369.54H53.85c-.76,0-1.38-.62-1.38-1.38s.62-1.38,1.38-1.38H186.47c.76,0,1.38,.62,1.38,1.38s-.62,1.38-1.38,1.38Z"/>
        <path class="cls-4" d="M186.47,350.25H53.85c-.76,0-1.38-.62-1.38-1.38s.62-1.38,1.38-1.38H186.47c.76,0,1.38,.62,1.38,1.38s-.62,1.38-1.38,1.38Z"/>
        <path class="cls-4" d="M550.47,111.48h-22.08c-.76,0-1.38-.62-1.38-1.38s.62-1.38,1.38-1.38h22.08c.76,0,1.38,.62,1.38,1.38s-.62,1.38-1.38,1.38Z"/>
        <path class="cls-4" d="M518.6,111.48h-4.85c-.76,0-1.38-.62-1.38-1.38s.62-1.38,1.38-1.38h4.85c.76,0,1.38,.62,1.38,1.38s-.62,1.38-1.38,1.38Z"/>
        <path class="cls-8" d="M424.98,99.34h45.28c4.95,0,8.96,4,8.96,8.94h0c0,4.94-4.01,8.94-8.96,8.94h-45.28c-4.95,0-8.96-4-8.96-8.94h0c0-4.94,4.01-8.94,8.96-8.94Z"/>
        <path class="cls-16" d="M478.64,108.01c.02,4.93-3.97,8.94-8.9,8.96-.02,0-.04,0-.06,0h-45.28c-4.95,0-8.96-4.01-8.96-8.96-.01-1.37,.31-2.72,.95-3.93,1.1,3.84,4.62,6.48,8.61,6.46h45.25c2.37,0,4.64-.94,6.32-2.61,.7-.71,1.27-1.54,1.69-2.44,.25,.82,.38,1.67,.37,2.53Z"/>
        <circle class="cls-4" cx="581.31" cy="428.89" r="2.04"/>
        <circle class="cls-4" cx="622.19" cy="476.49" r="2.04"/>
        <path class="cls-5" d="M107.46,458.73c-.27,0-.54-.06-.8-.19-5.3-2.63-9.84-6.63-13.13-11.55-.55-.82-.33-1.94,.5-2.49,.82-.55,1.94-.33,2.49,.5,2.94,4.4,7,7.97,11.74,10.33,.89,.44,1.25,1.52,.81,2.41-.31,.63-.95,1-1.61,1Z"/>
        <circle class="cls-5" cx="91.81" cy="439.45" r="2.38"/>
        <path class="cls-5" d="M542.09,459.16c-.27,0-.54-.06-.8-.19-5.29-2.64-9.82-6.63-13.1-11.55-.55-.82-.33-1.94,.5-2.49,.83-.55,1.94-.33,2.49,.5,2.93,4.4,6.98,7.97,11.71,10.33,.89,.44,1.25,1.52,.81,2.41-.31,.63-.95,.99-1.61,.99Z"/>
        <circle class="cls-5" cx="526.47" cy="439.85" r="2.38"/>
        <path class="cls-5" d="M576,462.06c-.69,0-1.34-.4-1.64-1.06-.4-.91,0-1.97,.91-2.37,4.83-2.15,9.01-5.55,12.11-9.83,.58-.8,1.7-.98,2.51-.4,.8,.58,.98,1.7,.4,2.51-3.47,4.79-8.15,8.6-13.56,11.01-.24,.11-.49,.16-.73,.16Z"/>
        <circle class="cls-5" cx="568.96" cy="462.33" r="2.38"/>
        <path class="cls-4" d="M84,484.64c-.3,0-.6-.09-.87-.27-9.6-6.52-17.19-15.56-21.96-26.14-.35-.78,0-1.7,.78-2.05,.78-.35,1.7,0,2.05,.78,4.53,10.06,11.75,18.65,20.88,24.85,.71,.48,.89,1.45,.41,2.15-.3,.44-.79,.68-1.28,.68Z"/>
        <path class="cls-4" d="M158.59,463.8c-.46,0-.92-.2-1.22-.59-.53-.67-.41-1.65,.26-2.18,4.78-3.75,8.32-8.77,10.25-14.52,.27-.81,1.15-1.25,1.96-.98,.81,.27,1.25,1.15,.98,1.96-2.12,6.33-6.02,11.85-11.28,15.97-.28,.22-.62,.33-.95,.33Z"/>
        <path class="cls-4" d="M519.06,486.17c-.3,0-.6-.09-.87-.27-9.59-6.52-17.19-15.55-21.96-26.11-.35-.78,0-1.7,.78-2.05,.78-.35,1.7,0,2.05,.78,4.54,10.04,11.76,18.63,20.88,24.82,.71,.48,.89,1.45,.41,2.15-.3,.44-.79,.68-1.28,.68Z"/>
        <path class="cls-4" d="M593.66,461.47c-.46,0-.92-.2-1.22-.6-.53-.67-.41-1.65,.27-2.18,4.76-3.72,8.31-8.71,10.25-14.44,.28-.81,1.16-1.24,1.97-.97,.81,.28,1.24,1.16,.97,1.97-2.14,6.3-6.04,11.79-11.28,15.88-.28,.22-.62,.33-.95,.33Z"/>
        <path class="cls-5" d="M476.05,276.11c-1.58,0-2.86-1.27-2.87-2.85l-.57-78.3c-.01-1.59,1.26-2.88,2.85-2.89,1.47-.05,2.88,1.26,2.89,2.85l.57,78.3c.01,1.59-1.26,2.88-2.85,2.89h-.02Z"/>
        <path class="cls-4" d="M471.92,283.98c-1.25,0-2.27-1.01-2.27-2.27v-89.01c0-1.25,1.01-2.27,2.27-2.27s2.27,1.01,2.27,2.27v89.01c0,1.25-1.01,2.27-2.27,2.27Z"/>
        <circle class="cls-13" cx="126.12" cy="474.59" r="1.89"/>
        <circle class="cls-13" cx="96.12" cy="485.42" r="3.65"/>
        <circle class="cls-13" cx="74.76" cy="462.08" r="2.38"/>
        <circle class="cls-12" cx="65.65" cy="445.17" r="1.41"/>
        <circle class="cls-13" cx="155.41" cy="496.04" r="1.67"/>
        <path class="cls-12" d="M184.2,460.55c.3,0,.55,.24,.55,.55s-.24,.55-.55,.55-.55-.24-.55-.55,.24-.55,.55-.55Z"/>
        <circle class="cls-12" cx="195.23" cy="434.69" r="2.67"/>
        <circle class="cls-12" cx="180.01" cy="438.73" r="3.9"/>
        <circle class="cls-13" cx="182.94" cy="451.74" r="1.55" transform="translate(-43.62 20.22) rotate(-5.65)"/>
        <circle class="cls-12" cx="58.82" cy="437.47" r="4.62"/>
        <circle class="cls-12" cx="74.04" cy="443.5" r="1.12"/>
        <circle class="cls-5" cx="589.49" cy="412.75" r=".83"/>
        <circle class="cls-12" cx="547.11" cy="451.11" r=".2"/>
        <circle class="cls-12" cx="492.51" cy="433.39" r="2.21"/>
        <circle class="cls-12" cx="505.08" cy="444.94" r="1.78"/>
        <circle class="cls-12" cx="610.88" cy="409.39" r="4.39"/>
        <circle class="cls-12" cx="500.89" cy="435.92" r="3.24"/>
        <circle class="cls-12" cx="622.19" cy="413.67" r="1.98"/>
        <path class="cls-2" d="M542.09,321.96c-1.59,.13-2.97-1.06-3.1-2.64s1.06-2.97,2.64-3.1c.63,0,14.07-2.44,16.68-14.56,.34-1.53,1.85-2.5,3.39-2.18,1.55,.33,2.54,1.85,2.21,3.4,0,0,0,0,0,.01-3.45,15.99-20.64,18.86-21.36,18.98l-.46,.09Z"/>
        <path class="cls-4" d="M537.35,320.24c-1.01,0-1.93-.68-2.19-1.7-.32-1.21,.41-2.45,1.62-2.76,.15-.04,15.48-4.13,18.39-13.44,1.43-4.58-.44-9.92-5.56-15.88-.82-.95-.71-2.38,.24-3.2,.95-.82,2.38-.71,3.2,.24,6.21,7.22,8.38,14.02,6.44,20.2-3.67,11.71-20.85,16.27-21.58,16.46-.19,.05-.38,.07-.57,.07Z"/>
        <path class="cls-4" d="M501.52,422.26c-15.42,0-30.31-1.48-43.7-4.66-1.22-.29-1.97-1.51-1.68-2.73,.29-1.22,1.52-1.96,2.73-1.68,60.81,14.46,157.12-8.29,184.04-43.47,4.1-5.37,5.2-10.71,3.35-16.35-9.32-28.49-88.08-51.99-88.87-52.22-1.2-.35-1.89-1.62-1.54-2.82,.35-1.2,1.61-1.89,2.82-1.54,3.34,.98,81.85,24.42,91.9,55.16,2.31,7.06,.94,13.96-4.06,20.51-22.33,29.19-87.39,49.79-144.99,49.79Z"/>
        <path class="cls-5" d="M534.28,98.3c-.14,0-.28,0-.42-.03l-32.44-4.77c-1.57-.23-2.65-1.69-2.42-3.26,.23-1.57,1.7-2.65,3.26-2.42l32.44,4.77c1.57,.23,2.65,1.69,2.42,3.26-.21,1.43-1.44,2.45-2.84,2.45Z"/>
        <circle class="cls-16" cx="426.5" cy="109.82" r="2.38"/>
        <circle class="cls-16" cx="433.22" cy="107.46" r="1.12"/>
        <circle class="cls-16" cx="440.25" cy="110.88" r="2.44"/>
        <circle class="cls-16" cx="447.74" cy="108.7" r=".43"/>
        <circle class="cls-16" cx="422.08" cy="105.57" r=".92"/>
        <circle class="cls-4" cx="441.66" cy="99.28" r="1.89"/>
        <path class="cls-5" d="M432.15,102.51h-8.87c-.59,0-1.08-.48-1.08-1.08s.48-1.08,1.08-1.08h8.87c.59,0,1.08,.48,1.08,1.08s-.48,1.08-1.08,1.08Z"/>
        <path class="cls-4" d="M470.25,119.06h-45.36c-5.94,0-10.77-4.83-10.77-10.77s4.83-10.78,10.76-10.8h8.82c1.01,0,1.84,.82,1.84,1.84s-.82,1.84-1.84,1.84h-8.82c-3.91,.01-7.09,3.21-7.09,7.12s3.18,7.09,7.09,7.09h45.36c3.91,0,7.09-3.18,7.09-7.09s-3.18-7.11-7.1-7.12h-21.15c-1.01,0-1.84-.82-1.84-1.84s.82-1.84,1.84-1.84h21.16c5.94,.02,10.77,4.86,10.77,10.8s-4.83,10.77-10.77,10.77Z"/>
        <path class="cls-1" d="M394.05,391.71c-1.35,0-2.55-.95-2.81-2.32-.3-1.55,.71-3.06,2.27-3.37,.52-.1,52.72-10.89,71.22-63.96,.52-1.5,2.16-2.29,3.66-1.77,1.5,.52,2.29,2.16,1.77,3.66-19.61,56.26-74.99,67.6-75.55,67.71-.19,.04-.37,.05-.55,.05Z"/>
        <path class="cls-4" d="M309.16,335.8c-1.25,0-2.27-1.01-2.27-2.27v-3.19c0-36.57,29.75-66.32,66.32-66.32h1.06c2.91,0,5.28-2.37,5.28-5.28-.04-2.85-2.34-5.14-5.22-5.17H166.77c-19.71,1.17-38.01,9.92-51.38,24.64l-8.62,9.42c-.85,.93-2.28,.99-3.2,.14-.92-.85-.99-2.28-.14-3.2l8.61-9.42c14.17-15.59,33.56-24.87,54.6-26.11h4.18s203.54,0,203.54,0c5.39,.06,9.65,4.31,9.73,9.67,0,5.45-4.4,9.85-9.82,9.85h-1.06c-34.07,0-61.79,27.72-61.79,61.79v3.19c0,1.25-1.01,2.27-2.27,2.27Z"/>
        <circle class="cls-4" cx="310.19" cy="345.22" r="3.33"/>
        <path class="cls-4" d="M364.72,391.25h-.12c-23.33-.02-44.21-13.95-53.2-35.48-.48-1.16,.06-2.48,1.22-2.97,1.15-.49,2.48,.07,2.97,1.22,8.28,19.83,27.52,32.66,49.02,32.69h.12c46.71,0,88.25-31.35,101.06-76.28,.34-1.21,1.6-1.9,2.8-1.56,1.2,.34,1.9,1.6,1.56,2.8-13.36,46.86-56.7,79.57-105.42,79.57Z"/>
        <path class="cls-5" d="M476.26,167.79c-.27,0-.55-.04-.82-.12-1.52-.45-2.39-2.05-1.94-3.57,.16-.54,4.03-13.21,14.66-14.22,1.6-.16,2.98,1.01,3.13,2.59,.15,1.58-1.01,2.98-2.59,3.13-6.7,.63-9.66,10.03-9.69,10.13-.37,1.25-1.51,2.06-2.75,2.06Z"/>
        <path class="cls-4" d="M558.29,469.35c-3.18,0-6.41-.36-9.64-1.11-19.43-4.51-33.02-21.59-33.04-41.53,0-.86,.7-1.57,1.56-1.57h0c.86,0,1.56,.7,1.56,1.56,.02,18.49,12.61,34.31,30.62,38.49,21.25,4.94,42.54-8.35,47.46-29.6,.19-.84,1.03-1.37,1.88-1.17,.84,.19,1.37,1.04,1.17,1.88-4.57,19.69-22.17,33.04-41.57,33.04Z"/>
        <path class="cls-5" d="M536.23,274.71c-.49,0-.99-.13-1.45-.39-24.64-14.43-30.54-86.01-30.78-89.05-.12-1.58,1.06-2.96,2.64-3.09,1.59-.12,2.96,1.06,3.09,2.64,.01,.18,1.48,18.32,5.78,37.88,5.57,25.29,13.24,41.43,22.18,46.67,1.37,.8,1.83,2.56,1.03,3.93-.53,.91-1.49,1.42-2.48,1.42Z"/>
        <path class="cls-4" d="M541.37,274.39c-.49,0-.98-.16-1.39-.48-22.99-17.94-30.2-74.43-32.45-106.51-.62-8.66-7.91-15.46-16.6-15.46h-.03c-9.23,0-16.7,7.45-16.71,16.63,0,1.25-1.02,2.27-2.27,2.27h0c-1.25,0-2.27-1.02-2.27-2.27,.02-11.67,9.52-21.16,21.19-21.16h.03c11.11,0,20.39,8.65,21.18,19.68,1.77,25.22,8.31,85.77,30.71,103.26,.99,.77,1.16,2.2,.39,3.18-.45,.57-1.11,.87-1.79,.87Z"/>
        <circle class="cls-2" cx="271.2" cy="385.62" r="9.5"/>
        <circle class="cls-2" cx="256.93" cy="368.56" r="5.31"/>
        <circle class="cls-2" cx="268.27" cy="362.85" r="1.55"/>
        <circle class="cls-2" cx="293.28" cy="382" r="6.14"/>
        <circle class="cls-2" cx="283.92" cy="366.18" r="2.1"/>
        <circle class="cls-2" cx="275.39" cy="367.73" r="2.56"/>
        <path class="cls-4" d="M391.35,414.14c-.99,0-1.99-.01-2.98-.04-.76-.02-1.36-.65-1.34-1.41,.02-.76,.68-1.39,1.41-1.34,12.99,.34,25.78-1.57,38.09-5.67,.72-.24,1.5,.15,1.74,.87,.24,.72-.15,1.5-.87,1.74-11.67,3.89-23.78,5.85-36.05,5.85Z"/>
        <path class="cls-4" d="M172.23,235.37h-13.29c-.76,0-1.38-.62-1.38-1.38s.62-1.38,1.38-1.38h13.29c.76,0,1.38,.62,1.38,1.38s-.62,1.38-1.38,1.38Z"/>
        <ellipse class="cls-5" cx="159.08" cy="263.51" rx="8.96" ry="5.31"/>
        <ellipse class="cls-5" cx="177.25" cy="264.63" rx="3.07" ry="2.53"/>
        <ellipse class="cls-5" cx="172.2" cy="257.77" rx="2.21" ry="1.81"/>
        <ellipse class="cls-5" cx="188.45" cy="228.97" rx="3.9" ry="2.38"/>
        <circle class="cls-5" cx="199.48" cy="230.29" r="1.67"/>
        <circle class="cls-5" cx="482.34" cy="237.04" r="1.46"/>
        <circle class="cls-5" cx="478.47" cy="208.41" r="3.24"/>
        <circle class="cls-5" cx="485.47" cy="200.34" r="2.93"/>
      </g>
    </g>
  </g>
</svg>