<svg width="960" height="960" viewBox="0 0 960 960" fill="none" xmlns="http://www.w3.org/2000/svg">
<path d="M415 828.501C415 824.601 417.1 821.501 420.3 818.601C435.2 805.101 447.9 789.801 458.8 772.901C459.1 772.401 459.4 771.801 459.8 771.401C463.5 766.501 465.3 761.101 465.6 754.901C465.9 749.301 467.3 743.801 468 738.301C468.4 734.901 468.7 731.501 468.6 728.101C468.5 723.501 466.8 719.401 463.6 716.201C460.5 713.001 457.1 709.901 453.4 707.401C447 703.001 439.8 702.301 432.5 704.801C429.3 705.901 426.2 707.401 423.1 708.701C419.2 710.401 415.2 711.801 410.8 712.001C405.1 712.201 400.2 710.501 396.2 706.501C389.7 700.101 386.9 692.301 387.7 683.301C388.1 678.801 389.2 674.101 390.8 669.901C400.6 645.001 418 627.801 443.6 619.601C456.8 615.301 470.3 615.701 483.7 618.701C491.2 620.401 498.5 622.601 505.9 624.601C507.1 624.901 508.2 625.301 509.8 625.701C510.1 623.801 510.4 622.001 510.7 620.301C513.3 604.201 512.8 588.001 511.7 571.901C511.5 568.301 511.4 564.601 511.4 561.001C511.4 556.901 510.8 553.001 508.1 549.701C507.1 548.501 506.4 547.201 505.2 545.501C504.7 547.501 504.6 548.801 504.1 550.001C503.4 551.801 502.8 553.701 501.7 555.301C498.9 559.401 494.4 559.601 491.3 555.701C489.6 553.601 488.3 551.101 486.6 548.401C486 549.401 485.6 550.201 485.1 551.001C482.9 554.901 481 559.001 478.5 562.701C477.1 564.901 475 566.801 472.8 568.201C468.2 571.201 463.8 568.801 463.8 563.301C463.8 559.101 464.4 554.801 464.8 550.601C464.9 550.001 464.9 549.401 465.1 548.001C463.8 549.101 463.1 549.801 462.3 550.301C460.2 551.701 458.1 553.401 455.8 554.201C451.3 555.801 447.6 553.001 447.9 548.201C448 545.701 448.7 543.201 449.2 540.601C447.1 540.801 445.3 541.101 443.4 541.101C438.1 541.001 434.7 536.901 436.2 531.801C436.9 529.301 438.3 526.901 439.7 524.701C442.3 520.601 445.1 516.601 447.9 512.601C448 512.401 448 512.201 448.2 511.701C444.6 507.501 444 502.501 444.7 497.101C446.7 480.801 448.5 464.501 450.5 448.201C450.6 447.501 450.7 446.801 450.8 445.801C447.6 443.501 443.8 443.201 440.1 443.401C434.9 443.601 430.1 445.201 425.3 447.201C406.1 455.401 391.5 468.601 381.7 487.001C379 492.001 376.8 497.301 374.3 502.501C372.5 506.201 370.7 510.001 368.6 513.501C363.8 521.601 357 527.201 348.1 530.201C336.7 534.101 325.6 529.901 319.6 519.501C315.3 512.101 313.7 504.001 314.7 495.601C317.4 474.401 327.4 457.301 343.7 443.701C347.1 440.901 350.8 438.501 354.3 435.901C356.6 434.201 359 432.501 361.3 430.601C367.6 425.301 370.8 418.401 371.2 410.201C371.6 402.601 370.7 395.101 368.2 387.901C364.1 375.601 355.6 367.301 343.9 362.201C340.2 360.601 336.3 360.401 332.4 360.801C316.2 362.501 302.3 375.901 300 391.901C299.3 396.901 299.9 401.901 300.8 406.801C303.3 420.401 303.3 433.901 299.6 447.301C297.7 454.101 295.2 460.801 291.1 466.601C283.7 477.001 273.7 482.801 260.7 482.201C244.7 481.501 231.8 470.701 228.2 455.001C227 449.801 226.6 444.501 227.1 439.101C227.8 430.101 228.5 421.101 228.7 412.201C228.9 401.001 223.1 395.401 212 395.201C205.8 395.101 200 396.701 194.4 399.201C187.3 402.401 181.2 406.901 175.7 412.401C169.5 418.501 163.9 425.001 159 432.201C156.6 435.701 154 439.101 151.1 442.201C143.9 449.801 135.3 451.701 125.4 448.001C117.2 444.901 110.4 439.901 105.6 432.501C99.4998 423.101 95.9998 413.001 95.6998 401.601C95.4998 393.301 95.8998 385.101 98.0998 377.001C99.6998 371.301 102.4 366.201 106.3 361.701C113.8 353.201 123.3 349.501 134.7 350.401C141.8 351.001 148.6 352.701 155.2 355.401C157.3 356.301 159.5 357.101 161.7 357.701C166.3 358.901 169.5 357.101 171.3 352.701C172.3 350.301 172.7 347.801 172.3 345.201C171 336.701 169.8 328.101 168.7 319.601C167.7 311.901 167 304.101 168.6 296.401C171.3 283.301 178.9 273.701 190.3 267.101C197.1 263.201 204.5 260.801 212.2 259.401C217.9 258.301 223.3 259.001 228.8 260.601C236.1 262.801 242.8 266.301 249.2 270.301C251.9 272.001 254.5 273.801 257.4 275.101C259.6 276.101 261.9 276.901 264.3 277.201C266.8 277.601 269.3 277.001 271.4 275.201C273.8 273.201 276.4 271.401 279.1 269.701C299.7 256.701 317.3 240.101 336 224.701C348.6 214.301 361.4 204.301 374.5 194.501C379.1 191.101 384.7 188.901 389.9 186.201C390.3 186.001 390.9 185.801 391.3 185.901C393.8 186.901 396 185.601 398.4 185.001C428.6 177.501 458.9 170.301 489.7 165.201C502.9 163.001 516.1 160.701 529.3 158.401C530.5 158.201 531.7 157.901 533 157.601C534.5 153.001 534.9 148.301 535.1 143.601C535.5 136.601 535.8 129.501 535.9 122.401C536.1 113.401 537 104.401 539.1 95.6013C542.3 82.3013 548.2 70.5013 558.8 61.4013C561.8 58.9013 564.7 56.3013 567.6 53.7013C575 47.2013 584.2 44.7013 593.4 42.4013C605.7 39.4013 617.8 40.4013 629.5 45.2013C643 50.8013 655.7 57.6013 666.2 67.9013C671.2 72.8013 675.5 78.5013 679.9 84.0013C681.4 85.9013 682.6 88.1013 683.3 90.4013C685.6 97.3013 687.8 104.301 689.7 111.301C691.4 117.501 690.8 123.901 689.8 130.201C689.7 131.001 689.6 131.901 689.5 132.701C689.5 132.801 689.6 132.901 689.8 133.301C692.7 133.001 695.6 133.201 697.4 129.901C698 128.701 699.5 127.901 700.7 127.101C710.2 121.501 718.4 114.301 726 106.301C728.7 103.401 731.9 100.801 735.2 98.7013C740.9 95.1013 747.2 94.3013 753.8 95.6013C759.5 96.7013 765.3 97.7013 771 98.6013C775.9 99.4013 780.9 99.9013 785.8 100.801C788.5 101.301 791.3 102.001 793.9 103.001C799.4 105.301 803.3 109.001 804.1 115.601C807 115.201 809.9 114.901 812.7 114.501C818.2 113.701 823.8 112.901 829.3 111.801C835.3 110.601 840.5 111.901 844.9 116.001C849.3 120.001 853.5 124.301 857.4 128.701C861 132.701 861.6 138.001 862.2 143.001C863 149.401 863.4 155.801 864 162.301C864.3 166.101 863.8 169.901 862.2 173.301C860.7 176.401 859.2 179.401 857.5 182.301C852.8 190.001 847.9 197.501 843.2 205.201C841.1 208.701 838.1 210.701 834.1 211.001C828.8 211.501 823.4 211.801 818.1 212.101C804.3 213.101 790.9 215.801 777.3 218.301C765.6 220.501 753.8 222.601 742.1 224.701C741.6 224.801 741.2 224.901 741 224.901C740 227.801 739.1 230.401 738.1 232.901C734.3 242.601 730.6 252.401 726.5 262.101C720.1 277.101 712.3 291.401 703.8 305.401C700.7 310.501 697.4 315.501 692.8 319.501C689.3 322.501 685.6 325.301 681.7 327.701C673.4 332.601 659.6 332.801 651.1 323.601C650.6 323.101 650 322.701 649 321.801C653.3 341.601 657.5 360.801 661.8 380.201C662.9 380.501 664.1 380.901 665.3 381.201C679 385.301 690.4 392.901 699.4 404.001C706 412.101 709.8 421.301 709 432.001C708.7 436.001 707.8 440.001 706.6 443.701C703.2 453.401 696.5 459.601 686.3 461.701C682.6 462.401 678.9 463.101 674.9 463.901C675.1 466.601 675.4 469.301 675.6 471.901C676.3 481.601 677 491.301 677.7 501.001C678.4 511.801 679.4 522.601 679.5 533.401C679.6 539.101 676.3 544.101 669.5 544.101C658.4 544.101 647.4 544.601 636 544.901C636.2 545.801 636.2 546.601 636.4 547.301C638.2 552.201 640.1 557.001 642 561.901C652.6 588.201 663.4 614.401 673.6 640.801C680.5 658.501 686.6 676.501 693.1 694.301C693.5 695.501 694 696.701 694.6 698.301C697.8 695.501 700.6 693.101 703.5 690.601C712.8 682.501 721.8 674.101 729.4 664.401C733.1 659.701 736.4 654.701 739.4 649.601C742.6 644.101 744.3 638.001 744.4 631.501C744.5 626.701 743.4 622.301 741.1 618.201C739.5 615.401 737.6 612.601 735.8 609.901C729.9 601.001 725.6 591.401 722.2 581.301C719.4 573.001 719.8 564.801 722.8 556.601C725.6 549.001 729.7 542.101 734.6 535.701C740.7 527.901 747.7 520.901 755.3 514.701C770.5 502.301 785.3 489.401 798.8 475.201C807.5 466.101 815.3 456.401 822 445.701C836.6 422.301 837.5 397.901 828.1 372.601C825.9 366.601 823 361.001 819.3 355.801C816.1 351.301 812.2 347.501 807.3 344.801C796.4 338.801 785.9 343.101 780.4 349.501C774.7 356.201 770.7 363.901 768.9 372.401C766.5 383.401 771.6 395.001 780.8 400.501C782.3 401.401 784.1 402.001 785.9 402.301C787.7 402.701 789 401.701 789.4 399.901C789.8 398.001 790 396.101 790.3 394.101C790.6 392.401 790.7 390.701 791.3 389.101C791.9 387.401 793.4 386.401 795.3 386.501C797.2 386.601 798.4 387.701 799.2 389.401C801.3 394.201 798.8 405.401 794.8 408.801C790.9 412.101 786.4 412.601 781.7 411.101C772.4 408.001 765.7 401.801 762 392.801C757.9 382.701 757.4 372.401 762 362.301C764.6 356.701 767.5 351.101 770.9 346.001C776.4 337.901 784.4 333.501 794.1 332.501C799.6 331.901 804.8 333.101 809.7 335.401C817.1 338.801 822.8 344.201 827.3 350.901C834.1 360.701 838.5 371.701 841.1 383.301C845.1 401.601 844.6 419.601 837 437.001C832.7 447.001 826.9 456.201 820.3 464.801C809.9 478.201 797.9 490.201 785.3 501.501C777 509.001 768.3 516.101 759.8 523.401C752.4 529.601 745.7 536.501 740 544.301C736.1 549.601 733 555.401 731 561.701C729.3 567.001 729.2 572.201 730.8 577.501C733.7 587.001 737.7 595.901 743.1 604.301C744.3 606.101 745.5 608.001 746.8 609.801C754 620.101 755.3 631.301 752 643.201C750.1 650.001 746.9 656.101 743 661.901C735.6 672.801 726.6 682.401 716.8 691.301C711.3 696.301 705.7 701.101 700.1 706.101C697.8 708.101 697.8 708.101 699.3 711.201C704.2 712.001 709.2 712.601 714 713.601C722.7 715.501 730.7 719.001 737.6 724.601C747.8 732.901 750.9 743.501 746.7 756.001C743 767.001 736.2 775.901 727.8 783.801C726.7 784.801 725.7 785.801 724.4 786.901C724.6 787.801 724.8 788.701 725 789.601C728.8 802.701 732.7 815.701 736.5 828.801C737.8 833.501 739 838.201 738 843.401C741.3 843.401 744.5 843.701 747.5 843.301C757.7 842.001 767.9 843.001 778.1 843.801C782.5 844.101 786.8 844.901 791.1 845.601C792.6 845.901 794.2 846.401 795.5 847.201C799.9 849.601 801.5 854.201 799.2 858.701C798.2 860.701 796.7 862.601 795.2 864.301C791.6 868.201 787.4 871.201 782.5 873.401C769.7 879.301 756.8 885.101 744 890.901C739.5 893.001 735 895.201 730.4 897.001C727.3 898.201 723.9 899.201 720.6 899.701C714.8 900.601 710.2 898.401 706.5 893.901C703.7 890.501 702.4 886.501 701.2 882.401C699.8 877.801 698.4 873.101 696.9 868.101C691.2 867.401 687.9 863.301 685.1 858.801C678.2 848.101 671.3 837.301 664.4 826.501C663.6 825.301 662.8 824.101 662 822.801C657.5 824.201 653.1 825.701 648.7 826.901C645.7 827.701 642.6 828.501 639.4 828.801C632.6 829.601 627.4 826.801 623.5 821.201C618.7 814.201 617.8 806.301 618.9 798.101C619.9 789.801 623.4 782.501 627.7 775.501C628.7 773.801 629.8 772.201 631 770.201C626.5 762.501 621.9 754.701 617.2 746.701C616.1 747.401 615.2 747.901 614.5 748.501C602 757.301 591.5 768.001 583.2 780.901C579.9 786.001 576.9 791.301 573.5 796.301C570.3 801.001 567 805.701 563.2 810.001C552.1 822.401 537.9 826.901 521.7 825.401C516.1 824.901 510.6 823.201 504.3 821.901C504.2 822.001 503.4 822.601 502.8 823.301C499.2 827.101 495.8 831.101 492.1 834.801C485.4 841.401 478.7 847.901 471.7 854.201C466 859.301 459.3 862.801 451.2 864.301C451.9 865.601 452.4 866.701 453.1 867.801C459.2 878.001 465.4 888.201 471.4 898.501C473.1 901.301 474.4 904.301 475.7 907.301C476.2 908.501 476.6 909.801 476.8 911.201C477.7 917.201 473.4 921.101 467.7 919.101C452.7 913.901 438.7 907.101 427.5 895.501C421.4 889.201 415.4 882.801 409.5 876.301C405.7 872.201 402.4 867.601 399.9 862.501C396.1 854.601 397.1 847.401 402.5 840.701C405.1 837.501 407.8 834.401 410.7 831.401C411.3 830.201 413 829.701 415 828.501ZM525.9 256.101C522.6 256.701 520.2 257.101 517.9 257.601C490.6 263.001 463.2 268.301 436.3 275.701C424.2 279.001 412.3 282.701 400.2 286.301C395.6 287.701 391 287.901 386.1 287.101C375.3 285.301 364.5 283.701 353.6 282.401C341.8 281.001 329.9 280.001 318 279.001C311.6 278.501 305.1 278.001 298.7 278.301C292.3 278.501 285.9 279.501 279.5 280.301C277.9 280.501 276.2 281.001 274.7 281.701C267.4 285.301 260.1 284.901 252.9 281.401C250.1 280.001 247.4 278.201 244.7 276.601C238.8 272.901 232.7 269.701 226 267.701C222.3 266.601 218.6 266.001 214.8 266.601C204.7 268.201 195.2 271.501 187.3 278.401C182.4 282.601 179.1 287.901 177.3 294.201C175.3 301.401 175.5 308.701 176.3 315.901C177.4 324.601 178.7 333.201 180 341.901C180.8 347.601 180.5 353.101 177.5 358.201C174.6 363.201 170.3 365.901 164.4 366.101C160.3 366.201 156.5 365.101 152.7 363.501C147.5 361.301 142.2 359.701 136.6 358.901C121.3 356.601 112.2 364.501 107.5 375.001C106.7 376.601 106.2 378.401 105.8 380.201C103.7 388.701 103.3 397.201 104.8 405.901C106 413.501 108.7 420.401 112.8 426.901C116.7 432.801 122 436.701 128.7 439.201C134.5 441.401 139.5 440.301 143.7 435.801C146.3 433.001 148.8 429.901 150.9 426.701C156.2 418.801 162.5 411.601 169.3 405.001C176.5 398.101 184.5 392.501 193.9 389.001C201.9 386.001 210.1 384.701 218.6 386.501C229.2 388.701 236.3 396.301 237.5 406.901C237.9 410.501 238 414.201 237.8 417.801C237.4 425.501 236.7 433.101 236.1 440.701C235.7 446.001 236.6 451.101 238.1 456.201C241.9 469.201 261.6 479.001 276 468.601C281 465.001 284.4 460.201 286.9 454.701C293.3 440.501 294.3 425.601 291.7 410.401C290.4 402.801 289.4 395.201 291 387.601C294.8 369.801 310.5 355.001 328.5 352.101C334.8 351.101 340.9 351.201 346.8 353.701C360.2 359.401 370 368.601 375.5 382.201C379.6 392.401 380.7 403.001 379.6 413.701C378.8 422.401 375.2 429.901 368.8 435.801C365.8 438.601 362.4 441.001 359.1 443.501C355.1 446.601 350.7 449.401 346.9 452.801C334.5 463.901 326.7 477.701 323.9 494.101C322.6 501.401 323.6 508.501 327.3 514.901C331.2 521.601 337.8 524.001 345.1 521.401C351.3 519.201 356.3 515.401 359.7 509.801C361.7 506.501 363.4 503.001 365.1 499.501C367.6 494.401 369.8 489.101 372.4 484.001C383 463.401 399 448.501 420.1 439.201C430.2 434.701 440.6 432.301 452.1 436.001C461.9 370.001 484.2 309.501 525.9 256.101ZM507.3 465.401C507.8 465.701 508 465.901 508.2 466.001C508.8 466.201 509.4 466.301 510 466.501C520.2 468.801 530.3 468.201 540.5 466.201C545 465.301 549.5 464.201 554 462.901C564.6 459.901 572.2 453.201 576.6 443.201C579.3 437.101 581.5 430.801 583.8 424.501C586.9 415.901 590.7 407.601 596.2 400.201C602.5 391.601 610.6 385.401 620.8 382.101C630.5 379.001 640.5 377.601 650.7 378.401C651.5 378.501 652.3 378.401 653.3 378.401C652.8 375.701 652.4 373.501 651.9 371.201C648 351.801 644.1 332.401 640.2 312.901C640.1 312.401 640 311.901 640 311.501C639.9 310.201 640.2 308.801 641.5 308.501C642.5 308.201 644 308.301 644.9 308.801C646.2 309.601 647.1 311.001 648.2 312.201C649.4 313.401 650.3 315.201 651.8 315.801C654 316.601 655.5 318.101 657.1 319.501C661 323.101 665.5 324.601 670.8 324.201C676.2 323.801 680.5 321.201 684.6 318.001C690.3 313.601 694.5 308.001 698.2 301.901C709.8 283.001 719.9 263.301 727.8 242.601C729.6 237.801 731.8 233.201 733.8 228.501C734.1 227.801 734.2 227.101 734.5 226.101C733.4 226.201 732.7 226.201 732 226.301C719.2 228.601 706.4 231.001 693.6 233.201C689.2 233.901 685.8 235.801 682.5 238.901C671.6 249.201 658.7 253.101 643.8 250.401C637.1 249.201 631.1 246.301 625 243.501C623.8 243.001 622.7 242.501 621.4 241.901C621.1 242.901 620.8 243.601 620.7 244.301C616.8 259.001 612.9 273.701 608.9 288.301C607.8 292.201 606.5 296.001 605.1 299.701C604.4 301.601 603.3 303.501 602.1 305.101C600 307.701 597 307.601 595 305.001C594 303.701 593.1 302.101 592.6 300.501C588 287.901 580.9 276.701 573.7 265.601C567 255.301 558.8 246.101 550.6 236.601C548.8 238.401 547.1 239.901 545.7 241.701C537.6 251.901 529.1 261.801 521.5 272.401C492.8 312.501 474.7 357.301 464.4 405.201C458.2 433.901 454.6 463.001 451.7 492.201C451.6 493.401 451.6 494.501 451.5 496.001C466.9 494.801 481.7 491.901 496.6 488.601C497.6 484.201 498.6 479.901 499.4 475.601C501.7 462.801 503.7 449.901 506.3 437.201C513.6 401.101 525 366.201 537.4 331.601C537.7 330.701 538.1 329.801 538.6 329.001C539.5 327.701 540.7 327.001 542.4 327.601C543.9 328.201 544.3 329.501 544.2 330.901C544.1 332.101 543.6 333.301 543.2 334.401C533 361.401 524.6 388.901 517.3 416.801C512.8 432.701 509.9 449.001 507.3 465.401ZM670.9 520.601C668.3 476.001 665 431.801 655 388.501C649.2 387.201 641.7 387.301 634.1 388.401C618.8 390.601 607.1 398.201 599.7 412.001C598.8 413.701 597.7 415.401 597 417.201C594.8 422.701 592.7 428.301 590.4 433.801C587.9 439.901 585.6 446.001 582.5 451.801C577.9 460.401 570.9 466.501 561.8 470.001C547.5 475.501 532.8 478.001 517.5 476.901C513.6 476.601 509.8 475.901 505.7 475.401C502.8 486.001 502.1 497.301 495.1 506.301C496.5 507.401 497.6 508.301 498.6 509.201C509.4 507.801 520.1 506.201 530.8 505.101C538.3 504.301 545.8 503.901 553.4 503.501C565 502.901 576.6 502.701 588 504.301C601.4 506.101 614.7 508.201 628 510.601C640.8 512.901 653.6 515.301 666 519.301C667.5 519.501 669 520.001 670.9 520.601ZM558.4 86.8013C556.3 90.5013 554.4 93.3013 553.1 96.4013C547.5 109.701 544 123.601 543.3 138.101C542.3 158.701 546.2 178.301 555.9 196.601C559.2 202.801 563.3 208.301 568.5 213.001C577.6 221.001 588.2 223.401 599.8 221.301C611.6 219.201 621.3 213.001 629.1 204.001C638.1 193.701 644.5 181.901 649.9 169.401C650.3 168.601 650.4 167.501 650.3 166.601C649.9 163.001 650.8 162.101 654.3 163.101C656.3 163.701 658.2 163.801 659.8 162.401C664.6 158.501 667 153.601 666.2 147.301C665.8 144.201 664.5 141.401 662 139.501C660 138.001 659 138.001 656.8 139.401C656.1 139.801 655.3 140.201 654.5 140.501C647.9 142.701 641.3 144.701 634.2 144.301C634.2 144.801 634.2 145.001 634.3 145.201C635.2 146.701 635.3 148.301 634.1 149.601C632.8 151.101 631.1 150.701 629.4 150.201C626.1 149.301 622.8 148.501 619.5 148.001C617.5 147.601 615.4 147.801 613.3 147.601C611.7 147.401 610.5 146.501 610.5 144.801C610.5 143.101 611.5 142.101 613.1 141.701C614.3 141.401 615.5 141.301 617.5 141.101C615.8 140.401 614.9 140.001 614.1 139.701C604.9 135.801 596.5 130.701 589.4 123.801C586.1 120.601 582.4 119.701 578.1 120.601C576.2 121.001 574.2 121.101 572.3 120.901C568.7 120.501 565.9 118.701 564.1 115.501C563.3 114.101 563.2 112.901 564.5 111.901C565.7 110.901 566.9 110.901 568.2 111.901C568.8 112.401 569.4 112.801 570 113.201C572.1 114.701 574.4 114.901 577.4 113.901C569.1 106.201 562.8 97.7013 558.4 86.8013ZM507.6 634.801C499.1 632.101 490.5 629.601 481.7 627.701C475.3 626.301 468.8 625.501 462.1 625.801C447.3 626.401 434.4 631.701 423 640.901C410.8 650.701 402.3 663.001 397.9 678.101C396.3 683.501 396.3 688.901 398.7 694.101C402.3 702.001 408.1 704.501 416.3 701.401C418.2 700.701 420.1 699.701 422 698.901C424.3 697.901 426.7 696.801 429.1 696.001C436.5 693.601 444 693.101 451.3 695.901C460.9 699.501 468.5 705.901 474 714.601C476.7 718.801 478 723.501 478 728.501C478 729.901 478 731.301 478 733.201C483.3 725.801 507.8 644.101 507.6 634.801ZM320.2 273.401C323.4 273.701 326.2 274.001 329 274.301C348.3 275.901 367.5 278.001 386.5 281.501C388.5 281.901 390.6 281.901 392.1 282.001C393.2 280.301 394 279.101 394.8 278.001C399.9 270.701 405 263.501 410.1 256.201C412 253.501 412.6 250.401 412.3 247.201C411.9 243.101 411.8 238.901 411.2 234.901C410.1 227.001 408.8 219.001 407.5 211.101C407 208.201 405.5 205.901 403.4 204.001C400.1 201.001 396.8 197.801 393.6 194.801C392.9 194.201 392.2 193.601 391.4 193.001C385.9 195.301 381 198.101 376.4 201.601C367.6 208.301 358.7 214.901 350.1 221.901C336.6 232.901 323.4 244.201 310.1 255.401C310 255.501 310 255.801 309.9 256.201C315.9 260.201 320.3 265.301 320.2 273.401ZM660.8 204.401C661.8 206.901 662.2 209.001 663.3 210.701C665.1 213.401 667.2 215.901 669.3 218.501C671.9 221.701 671.1 224.501 667.1 225.501C665.1 226.001 663 226.301 661 226.601C651.5 228.201 642.1 229.901 632.4 229.901C627.2 229.901 621.9 229.801 616.7 229.901C615.9 229.901 615.1 230.201 614.2 230.301C614.2 230.601 614.1 230.901 614.1 231.201C615.7 232.001 617.2 232.801 618.8 233.701C621.2 235.101 623.6 235.501 626.5 235.101C632.9 234.101 639.3 233.501 645.7 232.801C656.9 231.401 668.2 230.201 679.4 228.601C692.4 226.801 705.4 224.601 718.4 222.601C737.9 219.601 757.4 216.701 776.7 212.701C793.1 209.301 809.7 206.501 826.6 206.001C828.3 205.901 830 205.801 831.7 205.701C834.4 205.501 836.4 204.401 837.8 201.801C840.8 196.601 844.2 191.701 847.3 186.601C850.1 182.001 852.7 177.401 855.4 172.701C856.1 171.501 856.5 170.101 857.3 168.101C791.9 183.901 726.9 195.001 660.8 204.401ZM588.8 698.901C588.2 700.401 587.7 701.301 587.4 702.301C582.1 715.901 575.9 729.101 568 741.501C556 760.301 542.9 778.301 528 794.901C523.1 800.301 518.3 805.801 513.4 811.301C512.7 812.101 512.1 812.901 511.1 814.201C515.2 815.001 518.6 815.901 522.1 816.201C535 817.301 546.5 813.901 555.4 804.001C558.6 800.501 561.4 796.601 564.1 792.801C566.9 788.801 569.3 784.601 571.8 780.401C581.4 764.401 593.8 751.101 609.1 740.401C609.9 739.901 610.6 739.201 611.5 738.601C604.1 725.401 596.6 712.401 588.8 698.901ZM419.7 251.201C417 262.001 409 269.401 403.3 279.001C405.2 278.501 406.6 278.101 407.9 277.701C417.7 274.901 427.5 271.801 437.3 269.301C467 261.601 497 255.601 527.1 250.101C529.9 249.601 531.8 248.401 533.7 246.201C538.4 240.701 543.4 235.401 548.6 230.201C552 226.801 556.1 224.801 561.1 225.301C561.5 225.301 562 225.101 562.9 225.001C562.3 224.301 561.9 223.501 561.5 223.401C560.2 223.301 558.8 223.201 557.5 223.501C540.6 227.001 523.7 230.501 506.8 234.001C487 238.101 467.3 242.201 447.5 246.101C438.4 248.001 429 249.501 419.7 251.201ZM702.8 866.701C702.9 867.501 702.9 868.001 703 868.401C705 874.001 706.9 879.601 709 885.201C709.5 886.601 710.5 888.001 711.4 889.201C713.8 892.301 716.9 893.501 720.7 892.501C723 891.901 725.4 891.201 727.6 890.201C731.6 888.501 735.6 886.601 739.5 884.801C752.8 878.801 766.1 872.801 779.3 866.701C783.6 864.801 787.3 862.101 790.4 858.601C791.4 857.401 792.6 855.601 792.5 854.301C792.3 852.401 790 852.501 788.4 852.001C788.2 851.901 787.9 851.901 787.7 851.901C772 849.501 756.3 849.001 740.4 850.701C738.3 850.901 736.2 850.601 733.6 850.401C729.9 854.101 724.9 856.601 719.6 858.901C713.9 861.401 708.4 864.101 702.8 866.701ZM850 129.401C846.5 125.501 843.3 122.001 839.4 119.001C836.7 117.001 833.9 116.301 830.5 116.901C821.5 118.401 812.5 119.701 803.5 121.101C796.5 122.201 789.6 123.201 782.5 124.301C782.3 124.901 782.1 125.501 782 126.101C780.7 131.101 777.9 133.301 772.7 132.801C770 132.501 767.2 131.701 764.6 130.901C762.5 130.301 760.6 129.201 758.5 128.601C755.9 127.901 753.3 127.901 751 130.001C745.8 135.101 740.5 135.901 733.7 132.901C732.5 132.401 731.1 132.001 729.9 132.201C724.4 133.001 718.9 133.901 713.4 134.901C712.4 135.101 711.2 135.401 710.4 136.101C706.4 139.901 701.8 140.001 697 138.301C693.9 137.201 691.1 138.601 688.1 139.101C687.7 139.201 687.4 139.701 687.2 140.201C685.2 145.101 683.3 150.101 681.3 155.401C737.5 146.801 793.4 138.101 850 129.401ZM411.6 204.001C420.5 202.101 429.4 200.201 438.4 198.501C465.1 193.401 491.9 188.401 518.7 183.301C521.3 182.801 524.6 182.901 526.2 181.301C527.9 179.701 528.1 176.501 528.8 173.901C529.7 170.601 530.5 167.201 531.5 163.101C486.1 170.401 441.5 178.701 397 190.801C402.2 195.401 406.8 199.701 411.6 204.001ZM671.5 527.201C663.5 524.901 656.1 522.101 648.4 520.501C631.9 517.001 615.2 514.001 598.6 511.101C581.8 508.201 564.9 508.301 548 509.101C534.9 509.701 521.8 511.301 508.8 513.401C506 513.801 503 513.601 500.3 515.101C501 517.701 501.7 520.201 502.4 522.501C504.5 522.401 506.3 522.201 508.1 522.201C517.7 522.001 527.3 521.601 536.9 521.601C548.9 521.601 561 521.501 573 522.201C599.6 523.801 626.1 526.301 652.5 530.101C657.3 530.801 662.2 531.301 666.6 533.601C668.3 534.501 669.8 535.501 671.5 536.501C671.5 533.401 671.5 530.501 671.5 527.201ZM616 562.101C616 562.201 616 561.801 616 561.501C615.8 559.401 614.5 557.901 612.7 557.801C611 557.701 609.5 558.801 608.9 560.601C608.7 561.401 608.7 562.301 608.5 563.101C606.9 574.801 605.8 586.501 603.7 598.101C597.4 632.701 585.5 665.501 570.2 697.001C554.9 728.401 536.5 757.901 514.5 785.001C507.5 793.601 500.4 802.101 491.8 809.201C491.1 809.801 490.3 810.501 489.7 811.201C488.9 812.101 488.4 813.301 489.5 814.101C490.2 814.701 491.6 815.001 492.4 814.701C494.1 814.001 495.6 812.901 497 811.901C503.2 807.301 508.5 801.801 513.5 795.901C538.7 766.401 559.6 734.001 576.5 699.201C594.8 661.601 608 622.301 613.5 580.601C614.3 574.701 615.1 568.601 616 562.101ZM443.3 864.101C440.4 862.001 437.6 860.601 435.8 858.501C429.6 851.201 423.8 843.501 417.8 836.001C417.3 835.401 416.9 834.701 416.4 833.901C413.3 837.501 410.4 840.901 407.6 844.401C404.1 848.701 403.5 853.401 405.9 858.401C407.1 860.901 408.5 863.401 410.2 865.601C414.9 871.301 419.9 876.801 424.8 882.401C435 894.101 447.1 903.401 461.6 909.101C463.1 909.701 464.5 910.401 465.9 911.001C466.7 911.301 467.6 911.601 468.5 911.801C468.7 911.601 468.9 911.401 469.1 911.201C467.5 908.101 466 904.901 464.2 902.001C457.9 891.501 451.5 881.001 445.1 870.501C443.9 868.301 442.6 866.301 443.3 864.101ZM673.3 454.501C677 453.901 680.2 453.301 683.4 452.701C690.9 451.401 695.4 446.901 697.8 439.801C701.2 429.601 699.5 420.101 693.2 411.501C686.1 401.801 676.7 395.101 665.4 391.101C664.9 390.901 664.3 390.801 663.2 390.501C667.6 411.701 671.3 432.601 673.3 454.501ZM443 533.501C443.2 533.801 443.5 534.201 443.7 534.501C445.5 533.901 447.3 533.401 449 532.701C450.4 532.201 451.6 531.301 453 530.901C456.9 529.701 459.6 532.201 458.7 536.101C458.4 537.501 457.7 538.801 457.3 540.201C456.7 542.101 456.1 544.001 455.5 545.901C459.8 543.501 462.5 539.801 465.2 536.101C466 535.001 466.7 533.801 467.6 532.901C469.8 530.901 472.9 531.801 473.6 534.601C473.9 535.701 473.8 537.001 473.7 538.201C473 543.601 472.2 549.001 471.5 554.501C471.3 556.301 470.8 558.101 471.5 560.501C475 556.401 476.9 552.001 478.8 547.701C479.9 545.301 480.8 542.801 481.9 540.301C482.6 538.501 483.8 537.101 485.8 537.001C488 536.801 489.4 538.101 490.4 539.901C491.2 541.301 491.7 542.801 492.5 544.201C493.7 546.501 494.6 549.001 496.5 550.901C498.3 547.501 498.9 543.901 498.5 539.401C497.6 529.201 494.9 519.301 491.4 509.801C479.6 514.701 467.1 514.001 454.7 514.901C451.2 521.401 445.9 526.701 443 533.501ZM771 104.801C770.9 105.001 770.8 105.201 770.8 105.501C771.9 106.801 773.1 108.001 774 109.401C774.9 110.701 774.9 112.201 773.7 113.401C772.5 114.601 771.1 114.601 769.7 113.601C768.8 113.001 768 112.201 767.2 111.401C765.2 109.601 763.3 107.701 761.3 106.001C757.7 103.001 753.5 101.601 748.8 101.401C747.3 101.401 745.5 101.501 744.3 102.301C738.9 105.801 733.4 109.201 728.5 113.401C722.8 118.301 716.7 122.401 709.9 125.301C709 125.701 708.1 126.101 707.3 126.601C704.7 127.901 703.8 129.301 704.5 130.901C705.2 132.501 707.2 133.101 709.6 131.601C714.5 128.601 720 127.701 725.2 125.801C729.4 124.201 733.5 124.201 737.4 126.701C738.3 127.301 739.4 127.601 740.4 127.901C742.8 128.501 745 127.601 746.3 125.401C746.7 124.701 746.9 123.801 747.3 123.101C748.7 120.401 751 119.301 754 119.801C755.2 120.001 756.3 120.501 757.5 120.901C762 122.401 766.4 124.001 770.9 125.601C772.3 126.101 773.7 126.501 775.4 125.201C774.8 124.201 774.3 123.201 773.6 122.301C772.4 120.601 771.8 118.801 772.9 116.901C773.9 115.101 775.6 114.501 777.5 114.501C779.2 114.501 780.9 114.701 782.6 114.701C785.4 114.801 788.2 115.101 791 115.001C792.9 115.001 794.7 114.501 796.8 114.101C795 110.201 791.8 108.701 788.6 108.001C782.7 106.801 776.8 105.901 771 104.801ZM720.9 777.001C728.2 770.101 733.8 762.701 737.1 753.801C740.7 744.101 738.5 736.901 730.2 730.701C724.1 726.201 717.3 723.501 709.9 722.101C707.6 721.601 705.2 721.401 702.2 721.001C708.5 739.801 714.6 758.101 720.9 777.001ZM554.4 233.401C573 253.201 588.4 275.001 598.1 300.901C601.8 295.501 615.8 246.201 615.8 239.101C614.4 238.401 612.9 237.601 611.2 236.701C610.7 238.101 610.2 239.201 609.9 240.401C607.8 248.501 605.7 256.601 603.6 264.701C603.2 266.301 602.8 268.001 602 269.501C600.2 273.101 597.4 273.701 594.2 271.301C592.8 270.201 591.4 268.901 590.3 267.501C587.8 264.301 585.5 261.101 583.2 257.801C579.1 252.001 575.2 246.201 571.1 240.401C569.3 237.901 567.4 235.601 565.3 233.401C562.2 230.201 558.5 230.201 554.4 233.401ZM598 267.401C601.4 254.301 603.1 241.401 609.1 229.601C604.1 229.701 604.1 229.701 602.4 227.401C593 229.101 583.7 228.101 574.5 224.501C573.3 227.501 570.7 225.701 568.9 226.301C568 227.801 568.8 228.701 569.6 229.701C572.4 232.901 575.2 236.101 577.6 239.601C582.2 246.001 586.4 252.701 590.9 259.201C592.7 261.901 594.6 264.901 598 267.401ZM656.9 815.301C649.8 803.201 643 791.401 636.1 779.601C635.5 779.901 635.2 779.901 635.1 780.101C631 786.501 627.9 793.401 627.1 801.001C626.5 806.401 627.2 811.701 630.3 816.401C632.2 819.301 634.8 821.001 638.3 820.501C644.7 819.701 650.7 817.701 656.9 815.301ZM450.9 502.801C451.5 507.001 453.4 508.701 457.9 508.601C460.9 508.601 464 508.301 467 508.001C472.4 507.401 477.9 507.001 483.3 506.101C488.8 505.201 493.6 499.501 493.7 494.801C479.5 497.401 465.2 500.101 450.9 502.801ZM622.4 56.6013C622.5 56.3013 622.5 56.0013 622.6 55.7013C621.9 55.3013 621.3 54.7013 620.5 54.4013C616.3 52.7013 612 51.7013 607.4 52.0013C601.6 52.3013 596.1 53.6013 590.8 55.8013C583.4 58.9013 576.1 62.3013 570.3 68.1013C569.4 69.0013 568.4 70.1013 567.9 71.3013C567.6 72.0013 568.1 73.2013 568.6 73.8013C569 74.2013 570.2 74.2013 570.9 74.0013C571.4 73.9013 571.9 73.3013 572.3 72.9013C579.6 65.4013 588.8 61.1013 598.6 57.9013C605.2 55.7013 611.9 55.2013 618.7 56.3013C620.1 56.5013 621.3 56.5013 622.4 56.6013ZM676.7 234.701C662.1 236.501 648.1 237.901 633.4 239.901C646.4 246.901 665.3 246.701 676.7 234.701ZM657.2 538.701C657.2 538.401 657.2 538.201 657.2 537.901C648.5 536.201 639.8 535.201 630.7 534.301C632.3 538.701 632.3 538.701 636.1 538.701C643.2 538.701 650.2 538.701 657.2 538.701ZM305.1 259.501C302 262.401 299.2 265.001 296.1 267.901C301.7 268.501 305.6 265.201 310.9 264.501C308.8 262.701 307.1 261.201 305.1 259.501Z" fill="black"/>
<path d="M507.3 465.4C509.9 448.9 512.7 432.7 516.9 416.7C524.2 388.8 532.6 361.3 542.8 334.3C543.2 333.2 543.6 332 543.8 330.8C544 329.4 543.5 328.1 542 327.5C540.4 326.9 539.1 327.6 538.2 328.9C537.7 329.7 537.3 330.6 537 331.5C524.6 366.1 513.1 401 505.9 437.1C503.3 449.9 501.3 462.7 499 475.5C498.2 479.8 497.2 484 496.2 488.5C481.3 491.9 466.6 494.8 451.1 495.9C451.2 494.4 451.2 493.2 451.3 492.1C454.1 462.9 457.8 433.8 464 405.1C474.3 357.1 492.4 312.4 521.1 272.3C528.7 261.7 537.1 251.8 545.3 241.6C546.7 239.8 548.5 238.3 550.2 236.5C558.4 246.1 566.6 255.2 573.3 265.5C580.5 276.6 587.6 287.9 592.2 300.4C592.8 302 593.6 303.5 594.6 304.9C596.6 307.5 599.6 307.6 601.7 305C603 303.4 604 301.5 604.7 299.6C606.1 295.9 607.5 292.1 608.5 288.2C612.5 273.5 616.4 258.8 620.3 244.2C620.5 243.5 620.7 242.8 621 241.8C622.3 242.4 623.5 242.9 624.6 243.4C630.7 246.2 636.7 249.1 643.4 250.3C658.2 253 671.2 249.1 682.1 238.8C685.4 235.7 688.8 233.9 693.2 233.1C706 230.9 718.8 228.5 731.6 226.2C732.3 226.1 733 226.1 734.1 226C733.8 227 733.7 227.8 733.4 228.4C731.4 233.1 729.3 237.7 727.4 242.5C719.5 263.3 709.3 282.9 697.8 301.8C694.1 307.9 689.9 313.5 684.2 317.9C680.1 321 675.8 323.7 670.4 324.1C665.1 324.5 660.6 323 656.7 319.4C655.1 317.9 653.6 316.5 651.4 315.7C650 315.2 649 313.4 647.8 312.1C646.7 311 645.8 309.6 644.5 308.7C643.6 308.1 642.2 308.1 641.1 308.4C639.8 308.8 639.5 310.1 639.6 311.4C639.6 311.9 639.7 312.4 639.8 312.8C643.7 332.2 647.6 351.6 651.5 371.1C652 373.4 652.4 375.6 652.9 378.3C651.9 378.3 651.1 378.4 650.3 378.3C640.1 377.5 630.1 378.9 620.4 382C610.2 385.3 602.1 391.5 595.8 400.1C590.3 407.5 586.5 415.8 583.4 424.4C581.1 430.7 578.9 437 576.2 443.1C571.8 453.2 564.2 459.8 553.6 462.8C549.2 464.1 544.7 465.2 540.1 466.1C530 468.1 519.8 468.6 509.6 466.4C509 466.3 508.4 466.1 507.8 465.9C508 465.9 507.8 465.7 507.3 465.4Z" fill="white"/>
<path d="M670.9 520.6C669 520 667.5 519.6 666 519.1C653.6 515.1 640.8 512.7 628 510.4C614.7 508 601.4 505.9 588 504.1C576.5 502.6 564.9 502.8 553.4 503.3C545.9 503.7 538.3 504.1 530.8 504.9C520 506.1 509.3 507.6 498.6 509C497.5 508.1 496.4 507.2 495.1 506.1C502.1 497.1 502.9 485.8 505.7 475.2C509.8 475.7 513.6 476.4 517.5 476.7C532.8 477.8 547.6 475.3 561.8 469.8C570.9 466.3 577.9 460.2 582.5 451.6C585.6 445.8 587.9 439.7 590.4 433.6C592.7 428.1 594.7 422.5 597 417C597.7 415.2 598.8 413.5 599.7 411.8C607.1 398 618.8 390.5 634.1 388.2C641.7 387.1 649.3 387.1 655 388.3C665 431.8 668.3 475.9 670.9 520.6Z" fill="white"/>
<path d="M558.399 86.8008C562.799 97.7008 569.199 106.201 577.199 113.901C574.199 114.901 571.899 114.701 569.799 113.201C569.199 112.801 568.599 112.401 567.999 111.901C566.799 110.901 565.499 110.901 564.299 111.901C563.099 112.901 563.199 114.101 563.899 115.501C565.699 118.701 568.499 120.601 572.099 120.901C573.999 121.101 575.999 120.901 577.899 120.601C582.299 119.701 585.899 120.601 589.199 123.801C596.399 130.701 604.699 135.901 613.899 139.701C614.799 140.101 615.699 140.401 617.299 141.101C615.299 141.401 614.099 141.501 612.899 141.701C611.299 142.101 610.299 143.101 610.299 144.801C610.299 146.601 611.499 147.401 613.099 147.601C615.099 147.801 617.299 147.601 619.299 148.001C622.599 148.601 625.999 149.301 629.199 150.201C630.999 150.701 632.599 151.001 633.899 149.601C635.099 148.301 634.999 146.701 634.099 145.201C633.999 145.001 634.099 144.701 633.999 144.301C641.099 144.701 647.699 142.701 654.299 140.501C655.099 140.201 655.899 139.901 656.599 139.401C658.799 138.001 659.799 137.901 661.799 139.501C664.399 141.501 665.599 144.201 665.999 147.301C666.699 153.501 664.299 158.501 659.599 162.401C657.899 163.701 655.999 163.601 654.099 163.101C650.699 162.101 649.799 163.001 650.099 166.601C650.199 167.501 649.999 168.501 649.699 169.401C644.299 181.901 637.999 193.701 628.899 204.001C620.999 213.001 611.399 219.201 599.599 221.301C587.999 223.401 577.399 221.001 568.299 213.001C562.999 208.301 558.899 202.801 555.699 196.601C545.999 178.301 542.099 158.801 543.099 138.101C543.799 123.601 547.299 109.701 552.899 96.4008C554.299 93.3008 556.199 90.5008 558.399 86.8008ZM594.899 199.201C596.099 199.001 597.999 198.801 599.899 198.301C602.299 197.601 604.299 196.201 605.599 194.001C605.999 193.301 605.899 192.101 605.599 191.401C605.099 190.401 604.099 190.401 603.099 190.901C601.899 191.501 600.699 192.101 599.399 192.501C592.699 194.501 586.399 193.101 580.299 190.401C579.299 190.001 578.399 189.401 577.299 189.001C576.799 188.801 575.899 189.001 575.699 189.301C575.399 189.801 575.199 190.901 575.499 191.201C576.699 192.601 577.999 194.201 579.599 195.101C583.999 197.701 588.999 198.801 594.899 199.201ZM591.699 135.401C591.199 134.901 590.599 133.701 589.699 133.201C584.499 130.801 579.099 129.801 573.399 130.801C571.299 131.201 570.299 132.401 570.499 133.901C570.599 135.401 571.699 136.301 573.899 136.301C578.199 136.301 582.299 136.901 586.299 138.601C586.899 138.801 587.399 139.101 587.999 139.201C589.999 139.301 591.799 137.801 591.699 135.401ZM596.299 167.801C591.499 169.201 591.499 169.201 587.399 167.001C586.299 166.401 585.199 166.101 584.399 167.101C583.799 167.801 583.499 169.101 583.699 170.001C584.299 172.601 586.699 174.301 589.699 174.401C592.899 174.501 595.899 172.701 596.599 170.101C596.799 169.501 596.499 168.801 596.299 167.801ZM661.099 155.001C663.799 153.701 664.299 151.901 664.499 150.001C664.799 147.901 664.299 145.901 662.899 144.201C661.599 142.701 660.199 142.501 659.199 143.601C657.999 144.901 658.399 146.201 659.799 147.001C661.599 148.101 661.599 149.701 661.499 151.401C661.299 152.401 661.199 153.301 661.099 155.001ZM587.799 205.601C588.199 205.601 588.599 205.601 588.899 205.501C590.399 205.201 591.899 204.901 591.899 203.001C591.899 201.701 590.699 200.801 588.699 200.801C588.299 200.801 587.999 200.801 587.599 200.801C586.099 201.001 585.099 201.701 585.099 203.401C585.199 204.901 586.399 205.501 587.799 205.601Z" fill="white"/>
<path d="M320.2 273.4C320.3 265.3 315.8 260.2 310 256.2C310.1 255.8 310.1 255.5 310.2 255.4C323.5 244.2 336.7 232.9 350.2 221.9C358.8 214.9 367.7 208.3 376.5 201.6C381.1 198.1 386 195.3 391.5 193C392.2 193.6 393 194.2 393.7 194.8C397 197.9 400.2 201 403.5 204C405.7 206 407.2 208.3 407.6 211.1C408.9 219 410.2 226.9 411.3 234.9C411.9 239 412 243.1 412.4 247.2C412.7 250.5 412.1 253.5 410.2 256.2C405.1 263.5 400 270.7 394.9 278C394.1 279.2 393.3 280.4 392.2 282C390.6 281.9 388.5 281.8 386.6 281.5C367.6 278 348.4 275.8 329.1 274.3C326.2 274 323.5 273.7 320.2 273.4Z" fill="white"/>
<path d="M660.799 204.403C726.899 195.003 791.999 183.903 856.899 168.203C856.099 170.203 855.699 171.603 854.999 172.803C852.399 177.503 849.699 182.103 846.899 186.703C843.799 191.803 840.399 196.703 837.399 201.903C835.899 204.403 833.999 205.603 831.299 205.803C829.599 205.903 827.899 206.003 826.199 206.103C809.299 206.603 792.799 209.403 776.299 212.803C756.999 216.803 737.499 219.703 717.999 222.703C704.999 224.703 692.099 226.903 678.999 228.703C667.799 230.303 656.499 231.503 645.299 232.903C638.899 233.703 632.499 234.303 626.099 235.203C623.299 235.603 620.799 235.203 618.399 233.803C616.899 232.903 615.299 232.103 613.699 231.303C613.699 231.003 613.799 230.703 613.799 230.403C614.599 230.203 615.399 230.003 616.299 230.003C621.499 230.003 626.799 230.003 631.999 230.003C641.699 230.003 651.099 228.303 660.599 226.703C662.599 226.303 664.699 226.103 666.699 225.603C670.699 224.603 671.599 221.803 668.899 218.603C666.799 216.103 664.699 213.603 662.899 210.803C662.199 209.003 661.699 206.903 660.799 204.403Z" fill="white"/>
<path d="M419.7 251.201C429 249.501 438.3 248.001 447.6 246.101C467.4 242.101 487.1 238.001 506.9 234.001C523.8 230.501 540.7 227.001 557.6 223.501C558.9 223.201 560.3 223.301 561.6 223.401C562 223.401 562.4 224.301 563 225.001C562.1 225.201 561.6 225.401 561.2 225.301C556.2 224.801 552.1 226.801 548.7 230.201C543.6 235.401 538.6 240.701 533.8 246.201C531.9 248.401 530 249.601 527.2 250.101C497.1 255.601 467 261.601 437.4 269.301C427.5 271.901 417.8 274.901 408 277.701C406.6 278.101 405.3 278.501 403.4 279.001C409 269.401 417 262.001 419.7 251.201Z" fill="white"/>
<path d="M702.801 866.7C708.401 864.1 714.001 861.4 719.601 859C724.901 856.8 730.001 854.2 733.601 850.5C736.201 850.6 738.401 851 740.401 850.8C756.201 849.1 772.001 849.6 787.701 852C787.901 852 788.201 852 788.401 852.1C790.001 852.5 792.301 852.5 792.501 854.4C792.601 855.8 791.501 857.5 790.401 858.7C787.301 862.2 783.601 864.9 779.301 866.8C766.001 872.8 752.701 878.8 739.501 884.9C735.501 886.7 731.601 888.6 727.601 890.3C725.401 891.2 723.001 891.9 720.701 892.6C716.901 893.6 713.701 892.3 711.401 889.3C710.401 888.1 709.501 886.7 709.001 885.3C706.901 879.7 705.001 874.1 703.001 868.5C702.801 868 702.901 867.5 702.801 866.7Z" fill="white"/>
<path d="M850 129.4C793.4 138.1 737.5 146.7 681.1 155.4C683.2 150 685.1 145.1 687 140.2C687.2 139.8 687.6 139.2 687.9 139.1C690.8 138.6 693.7 137.2 696.8 138.3C701.7 140 706.2 139.9 710.2 136.1C710.9 135.4 712.1 135.1 713.2 134.9C718.7 133.9 724.2 133 729.7 132.2C730.9 132 732.4 132.4 733.5 132.9C740.3 135.9 745.6 135.1 750.8 130C753 127.8 755.6 127.9 758.3 128.6C760.4 129.2 762.4 130.3 764.4 130.9C767.1 131.7 769.8 132.5 772.5 132.8C777.7 133.3 780.4 131.1 781.8 126.1C782 125.5 782.1 125 782.3 124.3C789.4 123.2 796.3 122.2 803.3 121.1C812.3 119.7 821.4 118.5 830.3 116.9C833.7 116.3 836.5 116.9 839.2 119C843.3 122 846.5 125.5 850 129.4Z" fill="white"/>
<path d="M411.6 204.002C406.9 199.702 402.2 195.502 397 190.802C441.5 178.802 486 170.502 531.5 163.102C530.5 167.202 529.7 170.502 528.8 173.902C528.1 176.502 527.9 179.702 526.2 181.302C524.5 182.902 521.3 182.802 518.7 183.302C492 188.402 465.2 193.402 438.4 198.502C429.4 200.102 420.5 202.102 411.6 204.002Z" fill="white"/>
<path d="M671.499 527.202C671.499 530.502 671.499 533.402 671.499 536.502C669.899 535.502 668.299 534.402 666.599 533.602C662.199 531.302 657.299 530.802 652.499 530.102C626.099 526.302 599.599 523.802 572.999 522.202C560.999 521.502 548.899 521.602 536.899 521.602C527.299 521.602 517.699 522.002 508.099 522.202C506.299 522.202 504.499 522.402 502.399 522.502C501.699 520.102 501.099 517.702 500.299 515.102C502.999 513.602 505.999 513.802 508.799 513.402C521.799 511.402 534.799 509.802 547.999 509.102C564.899 508.302 581.899 508.202 598.599 511.102C615.199 514.002 631.899 517.002 648.399 520.502C656.099 522.102 663.599 524.902 671.499 527.202Z" fill="white"/>
<path d="M616.001 562.101C615.101 568.601 614.301 574.601 613.501 580.601C608.001 622.301 594.801 661.601 576.501 699.201C559.501 734.001 538.701 766.401 513.501 795.901C508.501 801.701 503.201 807.201 497.001 811.901C495.501 813.001 494.001 814.101 492.401 814.701C491.601 815.001 490.201 814.701 489.501 814.101C488.501 813.301 489.001 812.101 489.701 811.201C490.301 810.501 491.001 809.801 491.801 809.201C500.401 802.101 507.501 793.601 514.501 785.001C536.601 757.901 554.901 728.301 570.201 697.001C585.501 665.501 597.401 632.701 603.701 598.101C605.801 586.501 607.001 574.701 608.501 563.101C608.601 562.301 608.601 561.401 608.901 560.601C609.501 558.701 611.001 557.601 612.701 557.801C614.501 557.901 615.801 559.401 616.001 561.501C616.001 561.901 616.001 562.201 616.001 562.101Z" fill="white"/>
<path d="M443.3 864.101C442.5 866.301 443.9 868.301 445.1 870.401C451.5 880.901 457.9 891.301 464.2 901.901C466 904.901 467.4 908.001 469.1 911.101C468.9 911.301 468.7 911.501 468.5 911.701C467.6 911.401 466.8 911.201 465.9 910.901C464.4 910.301 463 909.601 461.6 909.001C447 903.301 435 894.101 424.8 882.301C419.9 876.701 414.9 871.201 410.2 865.501C408.4 863.401 407.1 860.801 405.9 858.301C403.5 853.401 404.1 848.601 407.6 844.301C410.4 840.801 413.3 837.501 416.4 833.801C416.9 834.601 417.3 835.301 417.8 835.901C423.8 843.401 429.6 851.001 435.8 858.401C437.6 860.601 440.4 862.001 443.3 864.101Z" fill="white"/>
<path d="M443 533.502C445.9 526.702 451.2 521.302 454.9 515.002C467.2 514.102 479.7 514.802 491.6 509.902C495.1 519.402 497.8 529.202 498.7 539.502C499.1 544.002 498.5 547.602 496.7 551.002C494.8 549.002 493.9 546.502 492.7 544.302C491.9 542.902 491.4 541.402 490.6 540.002C489.6 538.202 488.2 536.902 486 537.102C483.9 537.302 482.8 538.702 482.1 540.402C481.1 542.902 480.1 545.402 479 547.802C477.1 552.102 475.1 556.402 471.7 560.602C471 558.202 471.5 556.402 471.7 554.602C472.4 549.202 473.2 543.802 473.9 538.302C474.1 537.102 474.1 535.802 473.8 534.702C473 531.902 469.9 531.002 467.8 533.002C466.8 533.902 466.2 535.102 465.4 536.202C462.7 539.902 460 543.602 455.7 546.002C456.3 544.102 456.9 542.202 457.5 540.302C458 538.902 458.6 537.602 458.9 536.202C459.8 532.202 457.1 529.702 453.2 531.002C451.8 531.402 450.6 532.302 449.2 532.802C447.4 533.502 445.6 534.002 443.9 534.602C443.5 534.202 443.3 533.902 443 533.502Z" fill="white"/>
<path d="M771.001 104.802C776.801 105.802 782.701 106.702 788.501 108.002C791.801 108.702 794.901 110.202 796.701 114.102C794.601 114.402 792.701 114.902 790.901 115.002C788.101 115.102 785.301 114.802 782.501 114.702C780.801 114.602 779.101 114.402 777.401 114.502C775.501 114.502 773.8 115.102 772.8 116.902C771.8 118.802 772.301 120.602 773.501 122.302C774.201 123.202 774.7 124.202 775.3 125.202C773.5 126.502 772.1 126.002 770.8 125.602C766.3 124.102 761.901 122.502 757.401 120.902C756.301 120.502 755.101 120.102 753.901 119.802C750.901 119.302 748.701 120.402 747.201 123.102C746.801 123.802 746.601 124.702 746.201 125.402C744.901 127.602 742.8 128.602 740.3 127.902C739.3 127.602 738.2 127.302 737.3 126.702C733.4 124.102 729.3 124.202 725.1 125.802C719.9 127.702 714.301 128.602 709.501 131.602C707.101 133.102 705.101 132.502 704.401 130.902C703.701 129.302 704.601 127.902 707.201 126.602C708.101 126.202 708.9 125.702 709.8 125.302C716.7 122.402 722.801 118.302 728.401 113.402C733.301 109.202 738.801 105.802 744.201 102.302C745.401 101.502 747.201 101.402 748.701 101.402C753.301 101.502 757.601 103.002 761.201 106.002C763.301 107.702 765.2 109.602 767.1 111.402C767.9 112.102 768.7 112.902 769.6 113.602C770.9 114.602 772.3 114.602 773.6 113.402C774.8 112.202 774.901 110.702 773.901 109.402C772.901 108.002 771.801 106.802 770.701 105.502C770.801 105.302 770.901 105.102 771.001 104.802Z" fill="white"/>
<path d="M554.4 233.403C558.5 230.203 562.1 230.203 565.3 233.503C567.4 235.703 569.4 238.003 571.1 240.503C575.2 246.203 579.1 252.103 583.2 257.903C585.5 261.203 587.8 264.503 590.3 267.603C591.4 269.003 592.7 270.303 594.2 271.403C597.4 273.803 600.2 273.103 602 269.603C602.8 268.103 603.1 266.403 603.6 264.803C605.7 256.703 607.8 248.603 609.9 240.503C610.2 239.403 610.7 238.303 611.2 236.803C612.9 237.703 614.4 238.403 615.8 239.203C615.8 246.303 601.8 295.603 598.1 301.003C588.4 275.003 573 253.203 554.4 233.403Z" fill="white"/>
<path d="M598 267.401C594.6 264.901 592.7 261.901 590.8 259.001C586.4 252.501 582.1 245.901 577.5 239.401C575.1 235.901 572.2 232.801 569.5 229.501C568.7 228.501 567.9 227.701 568.8 226.101C570.6 225.501 573.3 227.301 574.4 224.301C583.6 227.901 592.9 228.901 602.3 227.201C604 229.501 604 229.501 609 229.401C603.1 241.401 601.4 254.301 598 267.401Z" fill="white"/>
<path d="M450.9 502.801C465.2 500.101 479.4 497.501 493.6 494.801C493.5 499.601 488.8 505.201 483.2 506.101C477.8 507.001 472.4 507.501 466.9 508.001C463.9 508.301 460.8 508.501 457.8 508.601C453.4 508.701 451.5 507.001 450.9 502.801Z" fill="white"/>
<path d="M622.4 56.6021C621.2 56.5021 620 56.5021 618.9 56.3021C612.1 55.3021 605.4 55.7021 598.8 57.9021C589 61.2021 579.8 65.4021 572.5 72.9021C572.1 73.3021 571.6 73.9021 571.1 74.0021C570.3 74.1021 569.2 74.2021 568.8 73.8021C568.2 73.2021 567.8 71.9021 568.1 71.3021C568.6 70.1021 569.5 69.1021 570.5 68.1021C576.3 62.3021 583.5 58.9021 591 55.8021C596.3 53.6021 601.8 52.3021 607.6 52.0021C612.2 51.7021 616.5 52.7021 620.7 54.4021C621.4 54.7021 622.1 55.2021 622.8 55.7021C622.6 56.1021 622.5 56.3021 622.4 56.6021Z" fill="white"/>
<path d="M657.199 538.701C650.199 538.701 643.199 538.701 636.099 538.701C632.299 538.701 632.299 538.701 630.699 534.301C639.699 535.101 648.499 536.201 657.199 537.901C657.199 538.201 657.199 538.401 657.199 538.701Z" fill="white"/>
<path d="M305.1 259.5C307.1 261.2 308.8 262.7 310.9 264.5C305.6 265.2 301.7 268.5 296.1 267.9C299.2 265 302 262.4 305.1 259.5Z" fill="white"/>
<path d="M594.9 199.2C589 198.8 584 197.7 579.5 195.2C577.9 194.3 576.6 192.7 575.4 191.3C575.1 191 575.3 189.9 575.6 189.4C575.8 189.1 576.7 189 577.2 189.1C578.2 189.4 579.2 190 580.2 190.5C586.4 193.2 592.7 194.6 599.3 192.6C600.6 192.2 601.8 191.6 603 191C604 190.5 605 190.4 605.5 191.5C605.8 192.2 605.9 193.4 605.5 194.1C604.3 196.3 602.2 197.7 599.8 198.4C598.1 198.8 596.1 199 594.9 199.2Z" fill="black"/>
<path d="M591.699 135.401C591.799 137.801 589.999 139.401 588.099 139.101C587.499 139.001 586.899 138.801 586.399 138.501C582.399 136.901 578.299 136.201 573.999 136.201C571.699 136.201 570.699 135.401 570.599 133.801C570.499 132.301 571.399 131.001 573.499 130.701C579.199 129.701 584.599 130.701 589.799 133.101C590.599 133.601 591.199 134.901 591.699 135.401Z" fill="black"/>
<path d="M596.3 167.801C596.5 168.701 596.8 169.401 596.6 170.001C595.9 172.601 592.9 174.401 589.7 174.301C586.7 174.201 584.3 172.601 583.7 169.901C583.5 169.001 583.8 167.701 584.4 167.001C585.1 166.001 586.3 166.401 587.4 166.901C591.5 169.301 591.6 169.201 596.3 167.801Z" fill="black"/>
<path d="M661.099 155.002C661.199 153.402 661.299 152.402 661.399 151.502C661.599 149.802 661.499 148.202 659.699 147.102C658.399 146.302 657.999 145.002 659.099 143.702C660.099 142.602 661.599 142.802 662.799 144.302C664.199 146.002 664.699 147.902 664.399 150.102C664.199 151.902 663.699 153.702 661.099 155.002Z" fill="black"/>
<path d="M587.8 205.603C586.4 205.503 585.2 204.903 585.1 203.303C585 201.703 586.1 200.903 587.6 200.703C588 200.703 588.3 200.703 588.7 200.703C590.7 200.803 591.9 201.603 591.9 202.903C591.9 204.803 590.4 205.103 588.9 205.403C588.6 205.603 588.2 205.603 587.8 205.603Z" fill="black"/>
</svg>
