<svg width="960" height="960" viewBox="0 0 960 960" fill="none" xmlns="http://www.w3.org/2000/svg">
<path d="M54.5332 619.906C57.9542 611.517 78.4612 595.624 74.5062 588.517C71.7872 580.496 67.7752 572.644 66.6042 564.218C66.6042 556.132 74.4802 559.616 78.3262 562.947C86.6962 568.974 95.0302 575.052 103.746 581.38C112.408 577.439 121.058 571.602 129.48 566.57C132.468 565.173 134.896 565.597 136.341 567.43C139.326 571.383 135.194 575.231 133.202 578.521C117.208 603.746 120.624 594.026 137.993 607.891C141.201 610.29 139.355 615.695 135.317 615.627C130.221 615.863 125.104 615.577 120.002 615.621C112.718 615.686 107.776 616.063 106.582 624.206C103.699 634.434 102.294 645.257 98.3362 655.113C96.3232 658.627 92.2132 658.528 90.5282 654.865C89.6032 652.854 89.1882 650.572 88.7742 648.368C87.5042 641.602 86.4282 634.8 85.1032 628.045C84.5412 625.182 83.9872 622.233 81.8952 619.503C75.7512 621.226 69.6262 623.026 63.5282 624.862C58.8552 626.225 57.2452 624.229 54.5342 620.618C54.5332 620.381 54.5332 620.144 54.5332 619.906ZM124.702 608.512C124.734 608.228 124.767 607.944 124.799 607.66C119.034 604.605 113.112 601.097 116.275 593.774C118.405 588.348 120.734 584.215 123.835 578.989C118.439 581.544 114.217 584.119 109.162 587.012C104.869 590.333 100.645 585.875 96.8802 583.775C89.1782 578.783 82.7612 572.691 74.4782 568.547C85.9502 598.344 85.2512 591.42 66.3712 615.963C70.0102 615.946 74.1532 613.879 77.8852 613.146C92.9482 608.479 91.8542 630.435 94.6472 639.811C103.356 619.638 94.6022 607.179 124.702 608.512Z" fill="black"/>
<path d="M555.545 40.5C558.825 41.782 560.099 44.422 560.456 47.706C561.432 56.671 562.5 65.627 563.348 74.604C563.541 76.652 564.343 77.659 566.096 78.614C571.713 81.676 577.241 84.911 582.714 88.225C597.689 99.44 573.731 101.479 566.304 104.536C561.714 106.048 561.416 106.725 561.462 111.449C561.181 118.256 562.235 125.338 560.528 131.978C555.144 143.208 547.544 127.757 544.066 122.979C541.723 119.853 539.295 116.763 536.623 113.921C534.146 111.286 533.571 111.364 530.456 113.122C523.132 116.927 516.361 122.112 508.451 124.628C506.407 125.178 504.393 124.717 503.016 122.888C500.421 119.51 503.357 115.808 505.278 112.922C508.068 108.935 510.934 105.001 513.73 101.018C515.328 98.363 517.996 95.43 515.211 92.531C510.798 87.098 506.58 81.506 502.316 75.952C498.793 72.197 497.506 65.431 504.399 65.235C510.917 65.142 517.41 66.296 523.869 67.083C530.07 67.837 536.285 67.985 539.279 61.219C542.755 55.656 549.05 41.505 555.545 40.5ZM513.205 113.941C513.377 114.098 513.549 114.255 513.721 114.412C518.585 111.69 523.478 109.02 528.303 106.231C540.064 99.647 547.872 117.336 553.863 124.76C554.574 124.042 554.701 123.608 554.687 123.18C552.794 97.919 555.247 100.449 578.085 93.51C549.326 75.403 561.552 92.419 554.014 49.739C535.74 78.604 543.45 74.944 508.441 72.169C522.571 93.477 531.491 89.899 513.205 113.941Z" fill="black"/>
<path d="M370.374 814.82C364.99 810.507 371.982 806.389 374.669 802.942C397.39 777.909 418.583 751.387 442.327 727.338C444.658 724.214 449.842 725.945 447.556 729.937C421.898 757.793 397.698 787.391 371.799 814.82C371.324 814.82 370.849 814.82 370.374 814.82Z" fill="black"/>
<path d="M905.468 423.921C902.168 431.174 892.886 428.763 897.661 423.307C900.255 420.975 902.751 418.855 905.468 422.496C905.468 422.971 905.468 423.446 905.468 423.921Z" fill="black"/>
<path d="M486.046 673.393C482.815 674.931 480.196 676.955 476.289 675.898C457.071 672.511 437.903 669.075 418.824 664.855C404.162 741.959 330.077 788.033 258.991 806.645C218.418 815.83 178.419 827.88 145.547 854.367C142.484 855.456 139.969 853.287 140.519 850.084C141.146 846.932 143.413 844.365 145.472 842.007C184.969 796.854 182.889 732.511 187.17 676.097C189.071 613.423 239.112 578.657 293.47 559.803C283.661 541.877 278.651 523.241 284.372 502.275C274.039 509.854 266.459 520.095 255.038 526.267C238.484 536.517 196.787 525.082 178.895 518.731C163.413 512.315 154.561 497.533 160.553 481.491C166.322 466.139 180.997 456.347 191.359 444.148C214.395 421.058 236.488 396.713 263.092 377.596C298.663 350.09 335.745 351.905 377.198 362.361C377.346 362.639 377.493 362.917 377.641 363.195C417.065 310.341 405.222 345.236 402.219 295.11C396.423 205.384 473.249 151.59 554.267 193.47C556.522 194.669 558.075 194.307 560.076 193.013C583.155 178.092 607.304 165.138 632.598 154.396C681.796 131.894 737.151 125.707 790.262 135.417C793.33 135.382 794.556 136.361 794.769 139.493C795.237 146.362 795.565 153.241 795.977 160.114C802.594 315.21 710.809 450.589 610.245 560.376C608.112 562.691 607.625 564.616 608.65 567.589C615.055 589.287 618.333 612.009 618.965 634.611C618.093 699.546 561.673 748.432 518.87 791.092C472.647 837.313 470.433 744.478 465.493 716.861C463.496 699.76 476.839 686.51 486.463 674.005C486.323 673.8 486.184 673.596 486.046 673.393ZM477.44 670.149C572.424 613.785 712.256 442.572 754.172 339.853C710.949 321.149 664.51 301.561 633.603 264.732C615.256 239.461 594.592 213.966 590.909 181.736C581.439 186.849 572.487 192.323 563.412 198.22C595.479 218.06 608.503 247.685 609.139 284.025C702.693 314.964 673.415 465.808 569.927 451.238C534.887 444.63 511.417 423.562 497.648 391.138C496.895 389.365 495.992 388.658 494.113 388.334C458.729 383.713 427.117 365.773 410.078 333.448C365.546 387.158 323.375 443.914 289.595 505.029C281.177 539.296 305.422 570.519 325.691 595.695C374.413 533.525 428.53 466.816 509.05 447.543C510.674 447.081 512.503 446.898 513.667 448.43C542.042 516.31 437.831 606.197 391.838 647.358C418.603 661.821 448.524 662.951 477.44 670.149ZM385.84 652.026C364.836 668.795 337.195 683.883 309.851 674.013C281.146 662.164 310.895 617.475 321.881 600.932C312.129 589.69 303.81 577.59 296.195 564.858C132.837 623.603 230.869 720.461 160.034 835.811C190.563 815.25 226.597 807.915 261.596 798.714C328.291 780.001 399.566 736.344 411.551 662.753C402.989 659.181 394.681 655.714 385.84 652.026ZM788.99 141.143C724.276 127.899 658.24 144.187 601.384 176.066C596.24 178.812 596.209 178.873 597.035 184.573C602.022 212.837 620.697 236.038 637.025 258.784C667.449 295.607 713.726 316.097 757.199 333.55C781.686 271.707 793.373 207.992 788.99 141.143ZM510.598 454.557C440.547 471.166 389.598 526.058 346.804 580.692C332.479 597.726 318.164 615.247 309.93 636.173C306.1 647.098 298.583 664.349 314.704 668.545C342.227 676.172 367.692 658.866 387.767 641.916C437.145 596.412 522.367 528.946 510.598 454.557ZM602.254 568.765C575.427 599.863 545.98 628.77 513.833 654.407C510.278 657.208 506.999 660.162 504.168 663.736C494.124 676.487 482.694 688.246 474.941 702.643C472.383 707.08 471.753 712.03 472.488 717.129C476.684 741.885 477.351 768.718 488.645 791.48C495.198 802.931 506.36 793.713 513.014 787.395C543.121 759.897 571.221 729.822 593.701 695.652C619.563 658.023 614.109 610.556 602.254 568.765ZM374.082 367.473C319.639 354.759 287.777 360.869 246.154 399.356C220.493 422.342 197.02 447.582 173.435 472.648C170.412 475.895 168.141 479.623 166.841 483.923C157.785 518.531 213.979 520.032 236.541 523.185C258.605 524.473 271.093 499.439 288.762 489.629C316.485 448.807 343.618 406.769 374.082 367.473ZM545.36 296.63C545.849 296.201 546.493 295.83 546.868 295.277C551.102 287.84 562.095 294.097 561.092 287.302C559.843 281.663 558.818 275.852 554.83 271.288C543.202 257.741 527.862 248.45 511.859 240.942C510.101 240.083 508.914 240.159 507.392 241.351C499.906 247.214 491.476 251.172 482.287 253.596C476.326 255.683 468.573 256.038 464.096 260.778C459.6 268.192 454.475 275.816 454.039 284.768C454.345 304.182 485.66 334.215 504.414 337.404C512.669 339.218 520.684 339.437 527.868 333.952C531.745 332.004 534.6 329.123 534.497 324.356C535.275 317.007 533.485 305.928 541.725 302.357C542.884 301.884 543.711 300.601 544.965 299.433C528.039 290.239 511.574 280.466 495.341 270.08C492.438 268.224 492.293 267.237 494.374 264.364C498.67 259.011 505.692 249.026 512.956 248.743C512.737 249.44 512.708 250.304 512.268 250.808C507.829 256.146 503.045 260.509 499.015 266.268C514.569 276.457 529.899 286.501 545.36 296.63ZM642.815 341.214C639.9 342.393 635.657 345.68 633.588 342.193C631.684 338.094 638.146 336.793 640.847 335.116C636.082 323.469 629.389 313.622 618.984 305.974C617.418 309.464 613.872 308.361 611.335 309.504C634.725 351.036 590.307 408.61 545.341 404.141C545.131 411.233 545.455 416.946 546.351 424.094C558.252 431.224 571.408 435.402 586.288 434.369C585.034 428.902 584.315 424.046 583.841 418.588C583.373 413.641 589.91 413.228 590.481 417.961C591.043 423.344 591.897 428.359 592.954 433.797C633.505 426.716 654.381 378.418 642.815 341.214ZM412.571 320.462C416.086 316.638 419.412 313.122 422.57 309.463C422.998 308.967 422.82 307.667 422.535 306.88C418.641 296.126 419.498 285.623 424.33 275.422C428.941 265.688 433.744 256.052 439.275 246.782C440.021 241.974 477.164 198.99 473.157 218.491C480.861 214.203 488.717 211.651 496.881 208.66C498.493 208.067 499.899 208.214 500.895 209.846C502.547 212.493 499.468 214.198 498.132 216.093C496.487 218.158 494.881 220.254 493.228 222.379C499.576 223.151 505.472 223.694 511.297 224.667C513.529 225.04 515.086 224.624 516.845 223.345C528.251 214.812 539.986 207.189 551.177 198.329C458.479 154.6 390.905 227.432 412.571 320.462ZM513.676 237.446C534 244.513 554.373 260.599 566.903 278.921C568.813 281.712 568.71 281.852 572.044 281.175C582.641 278.848 592.553 280.121 603.253 282.043C602.773 249.863 589.257 220.378 560.695 203.697C558.435 202.364 556.841 202.276 554.696 203.834C544.428 211.295 534.116 218.698 523.698 225.946C519.514 228.857 516.922 233.08 513.721 236.813C513.661 236.883 513.7 237.034 513.676 237.446ZM415.233 327.226C428.369 358.586 462.03 377.889 494.993 381.37C493.246 371.721 495.37 362.838 497.433 353.94C494.11 351.907 491.04 350.85 487.193 351.718C482.828 352.703 478.306 353.178 473.826 353.436C460.372 353.923 454.029 344.406 454.617 333.361C445.662 327.236 436.356 320.871 426.852 314.371C423.027 318.603 419.141 322.902 415.233 327.226ZM502.985 389.265C523.505 447.495 607.902 470.013 644.719 414.62C674.487 371.322 661.448 307.245 608.648 289.962C608.648 291.259 608.648 292.242 608.648 293.173C658.481 311.745 665.085 382.664 631.282 418.978C596.503 460.805 525.201 438.065 509.955 389.265C507.409 389.265 505.95 389.265 502.985 389.265ZM605.139 312.469C598.934 327.868 608.299 330.6 601.088 349.819C596.405 370.469 563.002 399.965 542.478 385.85C540.071 384.597 537.516 386.289 534.813 386.729C542.85 405.756 566.165 397.829 579.077 388.889C602.495 375.003 623.292 337.286 605.139 312.469ZM597.52 335.036C597.267 334.969 597.014 334.902 596.761 334.835C591.515 344.362 585.87 353.671 580.393 363.068C579.648 363.974 578.002 366.924 576.812 366.58C576.764 366.039 576.715 365.489 576.659 364.868C565.648 369.297 556.9 373.585 544.863 370.843C544.608 372.709 543.462 374.553 544.736 376.978C551.803 373.445 559.137 371.116 567.737 373.27C562.241 377.236 556.364 379.578 550.617 382.41C554.402 383.64 558.318 382.422 561.942 381.338C581.901 374.613 596.171 356.056 597.52 335.036ZM543.701 326.474C543.828 326.512 543.956 326.549 544.083 326.587C543.099 332.674 552.654 337.237 554.934 329.887C557.103 324.619 553.549 319.33 561.252 319.074C564.992 318.644 568.982 314.513 568.169 311.363C567.071 305.193 561.43 298.865 555.305 303.982C554.319 304.795 553.445 305.848 552.8 306.954C549.168 313.204 545.224 319.3 543.701 326.474ZM538.747 418.835C538.949 412.667 539.129 407.158 539.323 401.215C534.487 398.221 530.674 393.702 528.892 387.786C524.7 388.277 520.99 388.711 517.036 389.174C520.894 401.666 528.934 410.576 538.747 418.835ZM530.499 366.918C525.407 364.886 520.543 362.946 515.438 360.909C513.704 368.254 513.468 375.069 515.198 382.004C519.587 382.031 523.642 381.753 527.552 380.698C528.112 376.002 528.256 371.478 530.499 366.918ZM502.601 355.648C499.946 364.516 498.959 373.064 500.962 382.099C503.519 382.099 505.931 382.099 508.023 382.099C508.526 374.186 509.018 366.453 509.517 358.618C507.427 357.72 505.266 356.792 502.601 355.648ZM585.037 344.484C588.84 338.652 591.198 332.495 594.369 326.358C597.771 320.551 588.475 317.873 584.19 318.506C584.47 327.071 584.741 335.396 585.037 344.484ZM435.313 266.511C429.299 275.105 422.274 285.436 425.227 296.43C428.715 307.629 436.721 316.703 447.765 320.6C440.886 315.218 435.197 309.972 430.943 302.532C423.985 291.63 430.059 280.237 435.238 270.053C435.704 269.054 436.514 268.011 435.313 266.511ZM602.925 287.912C592.541 285.109 582.562 284.66 572.366 286.733C573.773 291.557 573.951 291.711 578.023 291.204C586.291 290.047 594.337 290.702 602.613 291.689C602.725 290.335 602.81 289.31 602.925 287.912ZM600.374 307.754C593.863 302.881 587.496 303.999 580.738 306.849C581.295 308.91 581.801 310.78 582.459 313.214C587.985 308.826 593.042 313.623 598.383 315.602C599.028 313.058 599.664 310.552 600.374 307.754ZM461.111 335.977C459.114 347.69 473.011 350.29 481.28 347.004C481.293 346.738 481.305 346.473 481.318 346.207C474.714 342.863 468.109 339.52 461.111 335.977ZM537.37 378.919C537.873 375.46 538.305 372.485 538.772 369.267C537.522 368.929 536.088 368.54 534.516 368.115C533.775 372.088 532.857 375.719 533.657 379.814C535.028 379.484 536.247 379.19 537.37 378.919ZM601.209 300.971C602.381 298.889 601.319 298.523 599.989 298.31C592.856 297.534 584.594 296.168 577.935 298.659C578.322 299.483 578.9 300.159 579.677 300.675C586.892 297.904 594.008 297.272 601.209 300.971ZM606.7 304.468C608.755 303.607 610.298 302.96 612.576 302.005C610.567 301.264 609.234 300.772 607.666 300.194C607.329 301.685 607.077 302.799 606.7 304.468Z" fill="black"/>
<path d="M842.156 654.545C846.536 657.172 849.754 660.891 852.645 664.749C858.496 673.045 864.951 681.126 869.969 689.934C871.748 695.673 865.636 696.397 861.609 694.67C851.369 692.546 841.47 688.836 831.102 687.655C831.104 701.078 831.071 714.437 831.003 727.851C830.993 729.506 830.855 731.177 830.592 732.811C830.269 736.883 824.43 738.023 822.768 734.261C816.926 722.262 813.599 709.248 807.313 697.446C797.476 700.122 787.901 703.077 778.101 705.804C772.899 707.822 764.741 706.9 766.895 699.471C770.465 690.841 777.505 684.047 782.5 676.218C785.951 671.035 785.816 670.297 782.419 665.159C778.564 658.697 773.695 652.577 771.142 645.46C769.262 638.243 776.959 637.551 781.902 639.835C788.798 642.009 795.616 644.45 802.563 646.442C810.248 648.646 810.48 648.458 815.327 642.024C820.209 637.097 835.386 610.077 841.56 613.9C846.775 615.601 843.612 627.413 843.92 631.933C843.403 639.385 842.764 646.83 842.156 654.545Z" fill="black"/>
<path d="M290.02 194.429C297.915 191.387 305.815 188.739 313.811 186.049C318.905 184.561 322.948 188.033 320.611 193.237C317.806 198.721 315.219 204.294 313.136 210.105C310.024 217.044 323.572 220.296 324.632 228.097C325.362 231.389 323.083 233.996 319.998 233.73C311.718 233.499 303.603 230.855 295.314 232.039C292.218 232.755 290.522 234.286 289.568 237.457C287.213 243.739 282.157 262.783 273.261 259.924C267.987 258.037 269.875 250.942 268.919 246.579C267.924 240.328 268.184 233.711 266.129 227.706C265.539 226.392 264.547 225.904 262.98 226.022C258.735 226.343 254.473 226.457 250.216 226.613C245.375 227.149 242.155 220.921 245.596 217.424C247.638 215.132 249.663 212.651 252.184 210.996C258.044 207.149 259.749 200.868 262.068 195.01C262.547 189.759 260.769 183.596 261.406 178.141C261.793 172.395 266.786 170.118 271.285 173.774C274.376 176.285 276.841 179.568 279.569 182.522C283.248 186.46 286.49 190.206 290.02 194.429Z" fill="black"/>
<path d="M837.788 444.328C844.658 444.938 851.738 445.621 858.827 446.179C865.53 446.909 872.415 446.548 879.029 447.851C886.355 450.509 881.995 456.422 877.51 459.408C870.159 465.969 862.725 472.441 855.499 479.136C850.237 484.012 851.839 483.737 854.748 487.818C861.148 497.916 870.558 506.699 874.424 518.136C875.08 525.152 867.912 523.888 863.973 521.004C856.394 516.561 848.927 511.923 841.273 507.615C837.571 505.531 833.639 503.765 829.642 502.321C825.103 500.681 824.132 501.208 822.148 505.551C818.056 514.511 814.091 523.53 810.045 532.512C808.112 535.965 806.956 542.259 801.809 541.386C799.336 540.877 798.203 538.902 798.093 536.709C797.607 520.58 799.257 504.586 799.322 488.443C793.606 487.791 788.158 488.2 782.455 488.046C776.831 488.602 774.276 482.547 778.152 478.626C785.671 470.719 793.278 462.868 800.82 454.973C803.116 452.579 804.397 449.898 804.542 446.418C804.769 440.973 805.543 435.551 806.103 430.121C806.402 423.627 811.482 418.926 817.122 424.063C823.986 430.776 832.853 435.999 837.788 444.328ZM787.091 480.51C794.139 482.024 805.96 477.347 806.491 488.152C807.097 499.925 805.371 511.714 805.443 523.493C810.15 516.868 812.292 508.64 816.165 501.454C823.997 482.787 850.362 506.369 861.821 510.792C857.82 502.789 851.619 496.51 846.683 489.141C842.381 483.82 845.726 477.841 850.229 473.978C857.411 467.233 864.762 461.14 871.795 454.182C861.301 453.328 851.304 452.721 840.878 451.828C836.921 451.492 836.146 450.61 835.492 447.274C826.572 443.113 821.246 435.858 813.501 429.888C812.499 435.386 812.263 440.102 812.048 445.539C812.237 459.778 795.087 469.572 787.091 480.51Z" fill="black"/>
<path d="M74.0488 744.314C115.344 687.843 157.262 631.131 202.188 577.451C205.203 573.766 209.795 577.33 206.756 580.972C165.495 633.057 124.974 685.737 85.6578 739.309C83.3278 742.332 81.6158 746.228 78.2058 748.168C75.7728 749.381 73.6118 747.598 74.0488 744.314Z" fill="black"/>
<path d="M889.142 186.946C883.112 191.416 878.55 186.568 882.757 182.887C886.715 180.856 891.592 175.38 896.075 178.959C900.148 182.854 894.54 190.258 894.142 195.1C892.961 198.877 897.839 199.604 899.716 201.954C906.058 209.065 895.382 212.613 890.152 214.896C887.765 216.014 886.709 217.747 886.793 220.537C886.904 224.195 886.632 227.883 886.256 231.53C886.035 236.063 881.497 241.776 877.313 237.023C873.278 231.825 872.302 225.283 868.359 219.912C863.461 223.859 848.279 233.595 849.697 220.593C851.999 212.196 859.782 204.366 856.779 195.235C850.011 172.2 863.84 178.68 877.572 185.837C878.858 186.187 879.591 188.113 879.359 189.112C879.068 189.778 877.921 190.43 877.142 190.438C874.083 190.263 871.402 188.15 868.539 187.234C866.345 186.512 864.054 186.086 861.021 185.338C865.111 202.697 865.362 202.188 857.545 218.775C860.116 218.039 861.247 216.953 863.196 215.502C873.205 208.146 875.39 221.099 880.197 226.913C879.489 212.519 881.095 211.404 894.1 205.769C890.543 203.718 887.159 201.895 887.417 197.443C887.591 193.696 888.13 190.753 889.142 186.946Z" fill="black"/>
<path d="M672.112 659.475C676.732 657.446 692.268 641.885 693.229 653.501C691.761 660.472 687.06 666.245 685.962 673.437C689.476 675.633 694.78 676.355 694.554 681.242C694.293 683.693 692.569 684.949 690.424 685.621C686.463 686.824 682.386 687.669 678.48 689.063C673.435 690.663 674.189 697.065 672.48 701.176C671.597 704.082 670.443 707.998 666.702 707.827C664.521 707.762 663.23 706.403 662.467 704.548C660.989 700.919 660.49 696.989 659.555 693.206C657.304 683.325 655.847 687.483 648.135 686.485C643.19 685.535 641.372 681.018 644.026 676.695C646.871 672 653.141 668.015 651.918 661.886C649.988 655.708 651.391 645.806 660.024 649.775C664.411 652.525 669.838 654.624 672.182 659.558C670.53 662.343 669.564 662.696 667.233 660.967C664.285 658.779 661.177 656.943 657.703 655.502C657.285 656.873 657.364 657.943 657.651 659.231C660.789 668.128 653.679 673.642 649.522 680.571C651.651 680.321 653.166 680.185 654.667 679.957C663.263 678.465 664.993 688.893 666.782 695.071C669.753 683.664 673.56 684.378 683.375 680.061C675.911 675.398 681.049 666.821 683.188 660.296C678.137 663.522 673.697 667.787 672.112 659.475Z" fill="black"/>
<path d="M114.005 247.76C119.804 245.35 124.53 242.436 130.072 240.785C135.603 240.151 135.963 245.561 133.529 249.192C128.481 259.299 130.304 258.35 137.727 264.998C142.146 270.398 135.727 273.161 130.88 272.818C126.103 273.548 119.106 271.788 117.519 277.94C115.899 283.165 110.176 296.861 104.043 288.188C101.557 282.779 102.092 276.693 99.6299 271.21C94.6449 272.017 82.6739 273.924 86.6329 265.228C88.6379 262.212 91.3049 259.539 93.7439 256.844C96.2729 254.492 94.6049 251.002 94.8809 248.032C95.8629 235.521 108.364 244.789 114.005 247.76ZM100.89 246.968C101.683 255.924 101.116 258.119 95.3999 264.875C106.691 263.084 107.007 272.645 108.829 280.982C110.146 279.396 111.093 277.747 111.474 275.977C113.212 267.28 121.291 266.914 128.724 266.102C122.164 261.543 124.253 255.755 125.726 249.545C113.594 256.684 112.475 251.51 100.89 246.968Z" fill="black"/>
<path d="M375.196 83.4761C360.452 76.8651 371.647 72.6631 380.521 69.4001C386.119 67.6181 385.172 62.5571 386.703 57.9601C387.373 54.2621 392.711 53.5281 394.231 56.9991C396.392 61.1961 398.149 65.6271 399.941 69.9891C410.418 71.3331 424.31 76.3031 409.602 85.8341C405.801 88.3211 406.669 90.2851 406.809 94.2421C406.523 97.8441 403.731 99.7991 400.311 98.5931C396.176 97.5871 390.251 89.6101 386.373 92.9811C382.82 96.1321 373.748 103.207 372.288 94.7561C372.449 90.7691 374.058 87.5231 375.196 83.4761ZM391.746 65.0801C391.481 65.1031 391.216 65.1251 390.951 65.1481C390.215 72.7901 383.228 74.1571 377.429 77.3251C382.764 80.2401 380.943 84.7101 380.557 88.8421C388.589 83.3241 392.665 85.9021 400.022 90.9671C399.673 84.3221 404.708 81.9231 408.943 78.1261C396.095 75.8151 396.997 77.0281 391.746 65.0801Z" fill="black"/>
<path d="M396.088 919.5C390.379 919.228 394.041 913.773 396.167 911.496C414.815 891.242 431.849 869.539 449.845 848.7C458.125 839.065 466.713 829.699 474.273 819.47C475.98 817.656 477.585 813.416 480.65 815.286C481.821 816.094 481.884 817.415 480.875 819.085C454.918 852.124 427.204 883.76 400.61 916.29C399.306 917.861 397.875 919.269 396.088 919.5Z" fill="black"/>
<path d="M108.434 554.906C104.431 554.992 104.853 550.618 106.984 548.604C118.998 536.433 129.414 522.328 143.579 512.542C147.423 510.882 148.551 515.84 145.412 517.649C133.369 527.9 122.926 539.688 112.686 551.674C111.512 552.905 110.116 554.523 108.434 554.906Z" fill="black"/>
<path d="M264.857 292.308C265.769 287.708 266.626 283.051 267.639 278.429C268.061 276.506 269.436 275.57 270.877 275.832C274.699 276.696 272.636 281.85 272.254 284.582C271.661 287.595 271.351 290.688 270.526 293.647C269.206 297.88 264.466 296.552 264.857 292.308Z" fill="black"/>
<path d="M882.983 527.824C887.066 529.396 890.425 535.536 893.429 538.859C894.637 540.467 894.202 542.402 892.96 543.34C891.727 544.271 889.677 544.165 888.461 542.695C885.671 539.321 882.947 535.877 880.446 532.287C879.014 530.231 880.192 527.975 882.983 527.824Z" fill="black"/>
<path d="M779.693 563.906C780.799 561.28 780.144 552.46 784.789 553.048C789.062 554.547 785.553 560.984 785.401 564.266C783.956 569.747 779.135 569.999 779.693 563.906Z" fill="black"/>
<path d="M339.847 231.926C342.811 233.445 351.418 233.485 350.377 238.122C349.044 242.476 341.245 238.091 338.14 237.667C334.83 236.473 336.145 232.102 339.847 231.926Z" fill="black"/>
<path d="M218.215 221.197C222.261 220.773 224.112 224.143 220.594 226.388C217.274 227.157 213.873 227.676 210.474 227.929C207.914 227.638 207.126 224.645 209.265 223.061C211.912 221.554 215.195 221.486 218.215 221.197Z" fill="black"/>
<path d="M805.324 398.175C805.273 401.233 801.065 402.81 799.853 399.769C798.782 396.909 797.799 394.002 797.02 391.051C795.903 387.945 801.018 386.104 802.125 389.233C803.312 392.164 804.272 395.189 805.324 398.175Z" fill="black"/>
<path d="M240.873 145.36C244.651 138.234 249.374 149.096 249.501 152.968C249.561 155.087 246.489 155.927 245.217 154.583C243.218 151.943 241.814 148.947 240.873 145.36Z" fill="black"/>
<path d="M743.805 493.609C736.485 489.23 745.643 486.567 749.62 485.459C752.042 485.373 752.898 488.651 751.339 490.088C749.054 491.457 746.509 492.392 743.805 493.609Z" fill="black"/>
<path d="M338.777 178.941C330.668 177.764 343.229 164.302 345.231 171.855C345.514 174.234 341.211 178.958 338.777 178.941Z" fill="black"/>
<path d="M124.702 608.511C94.5791 607.177 103.357 619.672 94.6481 639.811C91.8601 630.448 92.9441 608.473 77.8861 613.145C74.1481 613.88 70.0161 615.945 66.3711 615.963C85.2951 591.384 85.9221 598.308 74.4781 568.547C82.7551 572.688 89.1821 578.785 96.8811 583.774C100.644 585.875 104.87 590.333 109.162 587.011C114.222 584.115 118.431 581.545 123.835 578.988C120.736 584.207 118.402 588.353 116.274 593.773C113.111 601.091 119.035 604.61 124.799 607.659C124.767 607.944 124.734 608.228 124.702 608.511Z" fill="white"/>
<path d="M513.204 113.942C531.525 89.7833 522.563 93.5423 508.439 72.1683C543.517 74.9603 535.745 78.5553 554.012 49.7383C561.554 92.4323 549.318 75.3933 578.083 93.5093C555.192 100.457 552.807 97.9453 554.686 123.179C554.7 123.607 554.572 124.041 553.861 124.759C547.876 117.343 540.06 99.6443 528.301 106.23C523.476 109.02 518.583 111.69 513.719 114.412C513.548 114.256 513.376 114.099 513.204 113.942Z" fill="white"/>
<path d="M477.439 670.149C448.526 662.952 418.599 661.82 391.838 647.358C437.737 606.279 542.051 516.341 513.668 448.431C512.503 446.898 510.674 447.081 509.048 447.542C428.517 466.828 374.423 533.516 325.69 595.696C305.422 570.541 281.174 539.283 289.595 505.032C323.374 443.914 365.544 387.162 410.077 333.449C427.116 365.77 458.725 383.718 494.113 388.334C495.992 388.658 496.895 389.366 497.648 391.139C511.417 423.563 534.887 444.631 569.928 451.238C673.413 465.807 702.694 314.961 609.139 284.027C608.503 247.688 595.479 218.062 563.412 198.222C572.487 192.324 581.439 186.851 590.909 181.738C594.589 213.964 615.259 239.467 633.604 264.733C664.516 301.566 710.943 321.146 754.173 339.855C712.455 442.239 572.477 613.787 477.439 670.149Z" fill="white"/>
<path d="M385.841 652.027C394.682 655.715 402.99 659.182 411.552 662.753C399.56 736.351 328.299 779.995 261.597 798.714C226.6 807.914 190.561 815.253 160.035 835.812C230.88 720.426 132.829 623.619 296.196 564.859C303.811 577.591 312.129 589.691 321.882 600.933C310.913 617.435 281.144 662.176 309.851 674.015C337.203 683.88 364.829 668.799 385.841 652.027Z" fill="white"/>
<path d="M788.991 141.143C793.374 207.993 781.687 271.707 757.199 333.55C713.732 316.109 667.445 295.598 637.024 258.786C620.696 236.04 602.024 212.835 597.035 184.573C596.21 178.873 596.241 178.812 601.385 176.064C658.237 144.19 724.282 127.895 788.991 141.143ZM760.964 149.434C757.606 146.854 753.519 146.773 749.52 146.501C703.727 145.451 657.768 156.446 617.729 178.716C613.941 181.128 616.463 186.201 620.704 184.331C659.862 166.862 700.796 152.755 744.181 153.062C749.232 152.27 757.709 154.079 760.964 149.434Z" fill="black"/>
<path d="M510.598 454.559C522.436 528.811 437.097 596.493 387.771 641.921C367.701 658.864 342.215 676.184 314.703 668.547C298.587 664.343 306.102 647.102 309.93 636.175C318.165 615.249 332.478 597.73 346.803 580.694C389.589 526.068 440.559 471.156 510.598 454.559ZM412.268 536.783C412.046 536.538 411.823 536.292 411.601 536.047C396.857 544.084 387.293 558.78 376.219 570.981C357.147 593.705 338.211 616.548 319.194 639.314C318.356 640.442 317.865 641.624 319.038 642.826C320.752 644.785 323.418 641.739 324.671 640.132C329.705 634.289 334.773 628.476 339.757 622.59C360.363 598.528 380.225 573.814 401.606 550.431C405.402 546.063 409.531 541.939 412.268 536.783Z" fill="black"/>
<path d="M602.254 568.766C614.107 610.554 619.565 658.026 593.7 695.653C571.22 729.824 543.122 759.898 513.014 787.397C506.368 793.694 495.186 802.958 488.646 791.481C477.348 768.724 476.686 741.883 472.487 717.131C471.753 712.031 472.383 707.082 474.941 702.645C482.694 688.248 494.124 676.49 504.168 663.738C507 660.163 510.278 657.21 513.833 654.408C545.98 628.77 575.427 599.865 602.254 568.766Z" fill="black"/>
<path d="M374.082 367.473C343.619 406.767 316.484 448.809 288.763 489.628C271.079 499.45 258.622 524.457 236.542 523.184C213.939 520.042 157.809 518.513 166.84 483.923C168.141 479.622 170.413 475.894 173.436 472.648C197.02 447.582 220.493 422.342 246.154 399.354C288.003 360.783 319.435 354.785 374.082 367.473ZM292.373 388.663C287.519 387.137 283.512 390.16 279.549 392.315C242.004 415.863 209.806 446.19 181.784 480.317C180.258 481.829 179.34 484.542 181.199 485.928C183.084 487.731 185.803 485.82 187.206 484.013C215.504 451.749 246.426 421.834 282.668 398.524C286.353 395.574 291.312 393.935 292.373 388.663Z" fill="black"/>
<path d="M545.359 296.63C529.899 286.501 514.568 276.457 499.013 266.266C503.04 260.51 507.83 256.14 512.266 250.806C512.706 250.302 512.735 249.438 512.954 248.741C505.692 249.016 498.669 259.015 494.371 264.362C492.29 267.236 492.435 268.223 495.338 270.079C511.573 280.466 528.035 290.238 544.962 299.433C543.708 300.601 542.881 301.883 541.723 302.357C533.488 305.937 535.269 316.994 534.494 324.356C534.596 329.117 531.744 332.013 527.865 333.952C520.681 339.436 512.666 339.218 504.412 337.403C484.787 332.753 470.203 316.452 459.258 300.334C453.571 292.668 452.343 282.388 456.823 273.797C464.853 257.299 464.825 258.233 482.285 253.597C491.474 251.172 499.903 247.214 507.389 241.351C508.911 240.159 510.099 240.084 511.856 240.942C527.858 248.451 543.2 257.741 554.826 271.289C558.818 275.851 559.838 281.664 561.089 287.302C562.133 294.064 551.037 287.878 546.865 295.278C546.492 295.83 545.848 296.202 545.359 296.63ZM488.849 274.587C488.665 274.331 488.482 274.075 488.298 273.819C482.422 276.68 470.005 291.159 470.872 297.67C477.054 289.732 482.951 282.159 488.849 274.587ZM517.636 268.822C517.219 266.712 511.365 263.999 509.438 262.588C508.972 262.325 507.433 263.235 506.949 263.971C505.566 267.115 512.545 269.674 514.662 271.141C516.068 271.841 517.524 270.569 517.636 268.822ZM498.465 293.758C497.04 290.568 492.985 289.22 489.761 288.607C487.619 288.715 487.668 291.678 488.855 292.632C491.12 293.406 498.532 298.922 498.465 293.758Z" fill="white"/>
<path d="M642.815 341.214C654.384 378.409 633.502 426.723 592.953 433.795C591.897 428.357 591.042 423.341 590.481 417.959C589.91 413.227 583.372 413.638 583.841 418.587C584.315 424.048 585.033 428.898 586.288 434.368C571.408 435.401 558.252 431.223 546.351 424.093C545.455 416.946 545.131 411.232 545.341 404.14C590.301 408.609 634.727 351.041 611.335 309.503C613.872 308.36 617.418 309.463 618.984 305.973C629.389 313.621 636.082 323.468 640.847 335.115C638.15 336.786 631.681 338.097 633.588 342.192C635.663 345.68 639.893 342.393 642.815 341.214Z" fill="white"/>
<path d="M412.57 320.461C390.896 227.319 458.571 154.629 551.176 198.328C539.987 207.186 528.248 214.813 516.844 223.344C515.085 224.623 513.528 225.038 511.296 224.666C505.471 223.693 499.574 223.151 493.227 222.378C494.88 220.253 496.486 218.157 498.131 216.092C499.468 214.197 502.546 212.491 500.894 209.845C499.899 208.213 498.493 208.066 496.88 208.659C488.714 211.65 480.862 214.201 473.156 218.49C477.196 198.95 439.971 242.038 439.275 246.782C433.743 256.051 428.94 265.688 424.329 275.422C419.496 285.623 418.64 296.126 422.534 306.88C422.819 307.667 422.997 308.968 422.569 309.463C419.41 313.122 416.085 316.637 412.57 320.461Z" fill="white"/>
<path d="M513.676 237.444C513.7 237.032 513.661 236.88 513.719 236.812C516.92 233.08 519.512 228.856 523.696 225.945C534.114 218.696 544.427 211.294 554.694 203.833C556.839 202.274 558.433 202.362 560.693 203.696C589.253 220.371 602.775 249.868 603.251 282.042C592.557 280.121 582.636 278.848 572.042 281.175C568.709 281.851 568.812 281.712 566.901 278.921C554.376 260.6 533.996 244.509 513.676 237.444Z" fill="white"/>
<path d="M415.232 327.226C419.14 322.902 423.026 318.603 426.851 314.371C436.355 320.871 445.661 327.236 454.616 333.361C454.026 344.403 460.374 353.926 473.825 353.436C478.304 353.178 482.826 352.703 487.191 351.718C491.039 350.85 494.108 351.907 497.431 353.94C495.368 362.838 493.243 371.721 494.991 381.37C462.035 377.892 428.364 358.584 415.232 327.226Z" fill="white"/>
<path d="M502.984 389.264C505.945 389.264 507.412 389.264 509.954 389.264C525.2 438.06 596.505 460.809 631.282 418.976C665.086 382.668 658.479 311.738 608.647 293.172C608.647 292.24 608.647 291.258 608.647 289.961C661.446 307.259 674.492 371.312 644.715 414.622C607.901 470.003 523.496 447.502 502.984 389.264Z" fill="white"/>
<path d="M605.139 312.469C623.292 337.286 602.498 374.997 579.078 388.889C566.173 397.83 542.839 405.757 534.812 386.729C537.503 386.297 540.076 384.593 542.477 385.848C562.994 399.96 596.39 370.488 601.087 349.819C608.299 330.618 598.933 327.913 605.139 312.469Z" fill="white"/>
<path d="M597.521 335.036C596.17 356.059 581.903 374.611 561.942 381.338C558.317 382.423 554.405 383.639 550.618 382.411C556.365 379.579 562.242 377.237 567.738 373.271C559.138 371.118 551.804 373.447 544.737 376.979C543.463 374.554 544.609 372.71 544.864 370.844C556.9 373.586 565.656 369.296 576.66 364.869C576.715 365.49 576.764 366.04 576.813 366.581C577.995 366.939 579.664 363.953 580.395 363.069C585.871 353.672 591.517 344.363 596.763 334.836C597.015 334.902 597.268 334.969 597.521 335.036Z" fill="white"/>
<path d="M543.701 326.473C545.224 319.299 549.168 313.204 552.8 306.954C553.444 305.847 554.318 304.794 555.305 303.981C561.426 298.872 567.074 305.185 568.169 311.363C568.981 314.512 564.993 318.643 561.252 319.073C553.552 319.323 557.101 324.633 554.934 329.886C552.657 337.232 543.096 332.677 544.083 326.586C543.956 326.548 543.828 326.51 543.701 326.473ZM558.333 310.315C555.824 313.929 552.707 316.759 549.088 319.075C548.194 319.647 547.394 320.435 547.976 321.705C553.231 322.817 558.378 317.381 558.333 310.315Z" fill="white"/>
<path d="M538.747 418.834C528.934 410.576 520.894 401.666 517.035 389.173C520.989 388.71 524.699 388.276 528.891 387.785C530.673 393.7 534.486 398.22 539.322 401.214C539.129 407.157 538.949 412.666 538.747 418.834Z" fill="white"/>
<path d="M530.499 366.919C528.257 371.478 528.112 376.003 527.552 380.699C523.642 381.754 519.587 382.032 515.198 382.005C513.469 375.07 513.705 368.255 515.438 360.91C520.543 362.947 525.407 364.888 530.499 366.919Z" fill="white"/>
<path d="M502.602 355.648C505.267 356.792 507.428 357.72 509.518 358.618C509.019 366.453 508.528 374.186 508.024 382.099C505.933 382.099 503.52 382.099 500.963 382.099C498.96 373.064 499.947 364.516 502.602 355.648Z" fill="white"/>
<path d="M585.036 344.486C584.74 335.398 584.469 327.073 584.189 318.507C588.472 317.867 597.771 320.556 594.368 326.358C591.195 332.499 588.841 338.65 585.036 344.486Z" fill="white"/>
<path d="M435.313 266.512C436.515 268.012 435.705 269.055 435.239 270.053C430.061 280.237 423.985 291.631 430.945 302.533C435.2 309.974 440.885 315.217 447.766 320.601C436.72 316.704 428.717 307.63 425.228 296.432C422.273 285.435 429.299 275.109 435.313 266.512Z" fill="white"/>
<path d="M602.926 287.91C602.811 289.308 602.726 290.333 602.614 291.687C594.34 290.7 586.291 290.045 578.024 291.202C573.952 291.709 573.774 291.555 572.367 286.731C582.563 284.658 592.542 285.107 602.926 287.91Z" fill="white"/>
<path d="M600.374 307.755C599.664 310.552 599.029 313.059 598.383 315.603C593.043 313.624 587.985 308.826 582.459 313.215C581.801 310.781 581.295 308.911 580.738 306.85C587.496 304 593.863 302.882 600.374 307.755Z" fill="white"/>
<path d="M461.112 335.977C468.11 339.52 474.714 342.863 481.319 346.207C481.306 346.473 481.294 346.738 481.281 347.004C473.014 350.291 459.114 347.689 461.112 335.977Z" fill="white"/>
<path d="M537.37 378.92C536.247 379.191 535.028 379.485 533.657 379.816C532.857 375.721 533.775 372.089 534.516 368.117C536.088 368.542 537.521 368.931 538.772 369.269C538.305 372.486 537.873 375.46 537.37 378.92Z" fill="white"/>
<path d="M601.21 300.97C594.008 297.271 586.893 297.902 579.678 300.674C578.901 300.158 578.323 299.482 577.936 298.658C584.598 296.167 592.853 297.533 599.99 298.308C601.32 298.522 602.382 298.888 601.21 300.97Z" fill="white"/>
<path d="M606.699 304.469C607.076 302.8 607.328 301.685 607.665 300.195C609.233 300.773 610.565 301.265 612.575 302.006C610.297 302.961 608.753 303.608 606.699 304.469Z" fill="white"/>
<path d="M787.09 480.509C795.084 469.583 812.256 459.737 812.049 445.539C812.263 440.098 812.497 435.393 813.501 429.887C821.244 435.856 826.573 443.113 835.492 447.273C836.146 450.609 836.92 451.492 840.878 451.827C851.307 452.72 861.297 453.327 871.795 454.181C864.765 461.136 857.409 467.234 850.229 473.977C845.728 477.841 842.379 483.819 846.683 489.141C851.62 496.511 857.819 502.786 861.821 510.791C850.385 506.382 823.997 482.782 816.165 501.452C812.292 508.64 810.153 516.865 805.444 523.492C805.373 511.713 807.098 499.924 806.493 488.151C805.953 477.343 794.145 482.028 787.09 480.509Z" fill="white"/>
<path d="M672.111 659.474C673.697 667.788 678.137 663.519 683.187 660.294C681.05 666.814 675.909 675.4 683.374 680.059C673.541 684.382 669.753 683.668 666.781 695.069C664.994 688.895 663.26 678.46 654.666 679.955C653.164 680.182 651.649 680.318 649.52 680.569C653.676 673.645 660.788 668.122 657.648 659.229C657.361 657.939 657.283 656.876 657.701 655.5C661.175 656.941 664.282 658.776 667.231 660.965C669.562 662.695 670.528 662.342 672.18 659.556C672.168 659.544 672.111 659.474 672.111 659.474Z" fill="white"/>
<path d="M100.889 246.969C112.493 251.522 113.591 256.681 125.724 249.547C124.252 255.757 122.163 261.545 128.722 266.104C121.292 266.915 113.207 267.284 111.472 275.979C111.091 277.75 110.144 279.399 108.827 280.984C106.933 272.546 106.806 263.164 95.3984 264.877C101.12 258.115 101.68 255.919 100.889 246.969Z" fill="white"/>
<path d="M391.746 65.0781C397 77.0431 396.117 75.8131 408.944 78.1241C404.709 81.9211 399.674 84.3201 400.023 90.9651C392.657 85.8941 388.589 83.3241 380.558 88.8401C380.944 84.7091 382.765 80.2381 377.43 77.3231C383.227 74.1571 390.219 72.7861 390.952 65.1461C391.216 65.1231 391.481 65.1011 391.746 65.0781Z" fill="white"/>
<path d="M760.963 149.434C757.784 154.058 749.15 152.284 744.179 153.062C700.791 152.756 659.863 166.862 620.703 184.334C616.475 186.198 613.926 181.132 617.728 178.716C657.768 156.446 703.726 145.451 749.519 146.502C753.518 146.773 757.597 146.855 760.963 149.434Z" fill="white"/>
<path d="M412.267 536.783C409.53 541.939 405.401 546.063 401.605 550.431C380.224 573.814 360.362 598.528 339.756 622.59C334.773 628.476 329.704 634.289 324.671 640.132C323.417 641.741 320.747 644.791 319.038 642.826C317.866 641.625 318.356 640.442 319.195 639.314C338.212 616.548 357.148 593.704 376.22 570.981C387.294 558.778 396.857 544.085 411.602 536.047C411.822 536.292 412.045 536.537 412.267 536.783Z" fill="white"/>
<path d="M292.373 388.664C291.325 393.924 286.345 395.582 282.667 398.524C246.425 421.835 215.504 451.749 187.207 484.015C185.82 485.804 183.064 487.751 181.199 485.929C179.982 484.881 179.793 483.383 180.725 481.744C203.07 454.704 227.212 429.294 255.81 408.666C264.446 403.724 283.352 385.9 292.373 388.664Z" fill="white"/>
<path d="M488.85 274.588C482.952 282.161 477.055 289.733 470.873 297.671C470.012 291.163 482.388 276.711 488.299 273.82C488.482 274.076 488.666 274.332 488.85 274.588Z" fill="black"/>
<path d="M517.638 268.822C517.527 270.57 516.07 271.841 514.664 271.141C512.57 269.705 505.535 267.065 506.95 263.972C507.434 263.236 508.973 262.326 509.438 262.589C511.346 263.98 517.247 266.736 517.638 268.822Z" fill="black"/>
<path d="M498.466 293.756C498.534 298.92 491.124 293.405 488.857 292.63C487.674 291.678 487.616 288.712 489.763 288.605C492.984 289.216 497.043 290.568 498.466 293.756Z" fill="black"/>
<path d="M558.333 310.316C558.378 317.382 553.231 322.818 547.975 321.707C547.393 320.437 548.193 319.649 549.087 319.077C552.707 316.759 555.823 313.93 558.333 310.316Z" fill="black"/>
</svg>
