<svg width="960" height="960" viewBox="0 0 960 960" fill="none" xmlns="http://www.w3.org/2000/svg">
<path d="M155.302 385.645C138.187 399.634 114.593 402.28 93.3661 397.853C81.0901 394.934 67.6021 389.307 76.4241 374.516C73.0021 372.949 69.9341 372.397 66.4591 371.44C57.2311 368.405 56.7671 357.483 65.0681 352.808C60.5721 350.521 54.3041 350.262 53.4511 344.152C52.9041 340.039 55.1611 337.338 58.2801 335.205C69.0581 327.886 83.8801 338.439 94.0621 329.122C112.929 314.531 119.416 286.042 149.291 294.462C181.913 305.008 185.919 311.277 218.531 294.488C219.785 290.195 220.852 286.545 221.993 282.64C212.968 275.762 203.343 268.805 194.261 261.863C187.968 257.562 179.47 259.658 172.527 256.94C162.237 253.835 158.098 244.944 161.83 234.551C155.083 226.73 147.534 218.951 141.502 210.474C130.289 191.447 147.304 172.165 159.974 158.956C169.887 148.314 180.375 138.364 193.704 131.995C196.389 131.155 205.984 125.262 207.49 127.768C209.008 129.315 207.365 130.579 206.893 132.235C214.957 130.283 222.942 129.815 231.126 128.99C232.474 128.859 233.744 129.139 234.35 130.533C235.074 132.198 234.529 133.447 233.034 134.476C230.193 136.43 227.423 138.486 223.946 140.987C230.803 143.28 236.627 145.9 243.25 148.478C245.221 149.268 246.398 150.705 246.461 152.846C246.224 156.397 241.683 157.048 239.517 159.284C268.205 181.003 283.927 209.197 285.169 244.578C288.405 247.416 291.355 250.003 294.81 253.034C302.837 251.274 313.588 256.827 316.176 265.075C368.598 294.797 391.478 234.148 414.893 198.933C425.223 184.215 432.536 156.445 455.581 170.643C457.511 158.55 459.874 145.335 469.819 137.136C479.821 130.982 485.249 136.402 486.377 146.982C492.711 141.868 501.494 142.298 506.142 149.268C510.77 158.706 523.759 148.623 529.267 165.55C530.148 168.9 531.924 170.447 534.945 171.463C551.419 177.929 549.633 195.967 538.651 205.093C556.001 219.79 578.994 239.45 576.188 264.546C685.126 241.933 800.504 222.951 907.953 198.192C909.492 197.629 910.954 197.5 912.218 198.814C912.483 199.09 912.749 199.486 913.077 199.562C917.374 200.552 918.483 204.011 919.069 207.623C919.798 212.118 919.991 216.66 916.369 220.251C911.632 224.946 907.008 229.779 902.015 234.189C757.969 358.957 618.01 488.813 484.543 624.852C469.572 640.885 454.377 656.709 439.19 672.54C425.202 688.236 401.88 706.267 382.055 689.391C362.907 673.722 344.328 657.743 325.86 641.194C291.896 658.071 151.242 758.009 127.323 707.155C117.049 671.047 127.884 632.978 131.416 596.535C142.282 534.569 153.614 517.454 211.624 493.102C203.555 478.957 188.842 463.894 196.598 446.634C202.537 431.815 208.694 417.59 216.997 403.868C203.905 408.057 179.692 420.191 166.861 413.964C161.202 410.298 164.188 406.859 166.896 402.461C165.548 401.19 163.675 401.355 162.003 401.103C159.271 400.69 156.777 399.844 154.678 398.001C149.791 393.72 151.461 389.014 155.219 385.561C156.465 385.581 157.297 385.215 157.138 383.475C155.762 383.86 155.752 384.566 155.302 385.645ZM196.408 197.692C211.331 185.783 218.861 196.761 220.56 192.691C218.695 189.791 209.104 183.525 213.857 180.506C219.85 175.417 226.209 170.911 234.04 169.043C234.742 168.876 235.862 168.681 236.198 169.044C238.645 171.684 240.915 169.468 243.939 169.269C240.6 166.385 237.816 163.98 234.922 161.48C221.163 168.63 206.496 167.294 191.81 168.278C186.422 169.667 182.887 175.623 179.058 179.386C173.212 186.417 170.622 194.312 173.98 203.315C176.695 209.782 178.533 216.467 182.223 222.497C185.89 219.997 189.346 217.64 192.937 215.192C191.117 208.667 192.39 202.882 196.408 197.692ZM907.84 214.213C904.509 213.532 901.746 216.891 898.312 214.897C897.945 214.707 897.155 215.242 896.598 215.516C879.743 224.559 861.749 231.092 844.409 239.072C712.672 299.605 571.548 337.459 441.754 402.711C423.223 411.201 404.301 418.808 385.626 426.97C335.475 450.548 283.427 469.457 232.349 490.833C174.597 514.984 150.027 523.964 139.198 591.128C135.049 627.779 125.057 665.509 132.874 702.233C137.637 720.024 160.039 714.29 173.409 711.514C211.626 701.08 245.713 679.779 279.791 660.217C500.61 528.872 713.673 382.801 907.84 214.213ZM331.499 637.798C349.245 653.539 367.313 668.719 385.755 683.615C397.719 694.142 413.069 687.773 423.309 678.099C544.436 551.657 670.931 430.284 801.026 313.051C752.663 347.842 705.327 385.051 657.426 420.807C553.713 500.282 441.088 566.896 331.499 637.798ZM260.217 373.169C276.009 394.715 293.389 415.943 318.274 426.997C381.014 438.464 455.121 359.04 482.211 308.364C463.698 286.197 444.349 265.402 422.028 246.965C410.72 271.736 401.595 297.686 384.753 319.433C361.423 350.853 330.495 350.371 307.201 319.222C294.691 340.032 278.695 357.422 260.217 373.169ZM220.261 299.863C186.331 318.133 180.117 310.169 146.363 299.98C136.18 297.347 127.646 300.566 120.736 308.245C115.543 314.398 111.01 321.156 105.691 327.218C86.4281 350.371 66.4871 331.08 59.9761 343.255C66.2631 345.256 78.8501 350.329 70.2131 357.792C64.6601 360.833 64.8401 364.116 71.2201 365.501C79.0571 366.398 86.2991 371.4 81.5841 379.824C80.0171 382.971 80.3491 384.821 83.3211 386.647C101.812 395.784 134.004 395.54 149.257 380.518C132.149 367.98 146.723 357.442 161.524 354.829C181.488 350.96 201.092 346.015 221.019 342.114C217.782 330.542 223.258 319.436 229.876 310.209C225.42 307.818 222.232 304.422 220.261 299.863ZM170.818 409.43C220.899 410.426 292.513 346.169 309.419 300.782C304.655 304.205 302.02 309.66 297.613 313.479C284.431 325.271 240.158 361.449 223.844 346.602C209.812 352.692 194.619 354.169 179.915 357.94C175.108 359.768 141.407 363.339 149.859 371.956C152.836 374.706 156.944 376.032 160.481 377.864C166.888 381.941 164.167 388.845 158.697 392.297C161.523 395.533 165.443 394.465 168.938 395.858C175.703 398.16 174.676 404.599 170.818 409.43ZM899.938 208.684C899.774 208.451 899.61 208.218 899.445 207.985C803.082 238.621 706.355 268.135 610.187 301.41C615.338 306.676 620.086 311.343 624.591 316.235C626.223 318.007 627.616 318.006 629.653 317.244C721.162 284.613 812.358 250.512 899.938 208.684ZM586.509 309.096C545.044 324.197 504.962 342.005 462.528 354.156C460.531 354.783 458.49 354.874 456.895 356.861C449.019 366.953 439.573 375.41 430.566 384.457C434.645 387.344 438.586 389.974 442.336 392.852C444.341 394.391 446.018 394.435 448.281 393.367C498.934 369.101 550.35 346.749 603.014 327.208C597.409 321.056 592.157 315.293 586.509 309.096ZM580.259 270.482C587.744 278.258 595.183 285.398 602.659 293.104C606.857 297.391 605.389 296.906 610.741 295.132C689.158 268.72 767.842 243.145 846.809 218.434C846.706 218.123 846.602 217.812 846.499 217.501C758.013 235.11 669.528 252.718 580.259 270.482ZM371.581 324.152C392.466 304.699 400.836 275.981 413.138 250.944C419.387 239.323 422.234 221.54 438.707 221.363C439.227 212.102 441.111 203.281 445.089 194.655C439.958 191.221 435.029 187.922 429.949 184.522C421.499 201.002 412.113 215.757 402.689 231.479C387.587 257.977 360.59 290.436 326.608 276.287C340.748 293.182 356.501 308.348 371.581 324.152ZM564.123 282.682C554.846 288.6 545.087 287.979 536.091 281.982C531.716 278.331 506.971 287.803 499.345 288.66C497.401 289.128 496.427 290.079 495.797 292.065C489.822 312.62 477.903 330.247 465.161 347.221C505.127 335.562 543.767 319.731 582.522 304.52C576.306 297.144 570.237 289.941 564.123 282.682ZM299.432 455.854C294.628 449.148 288.573 443.522 284.589 436.22C283.813 434.753 282.857 433.376 281.928 431.996C280.209 429.445 280.127 429.366 277.282 430.337C251.654 439.327 225.621 446.733 201.4 459.345C204.235 471.502 211.952 480.38 218.097 490.132C245.316 478.66 272.183 467.339 299.432 455.854ZM490.279 265.874C495.656 260.391 499.82 254.149 504.792 248.506C510.708 242.877 516.784 229.097 505.888 225.738C500.783 224.519 497.736 222.042 497.935 216.562C502.044 190.615 485.044 209.138 483.224 191.546C483.142 186.432 477.75 185.224 475.08 189.423C469.163 198.005 468.551 209.052 464.906 218.582C463.398 220.951 460.341 220.647 459.11 218.102C457.991 213.509 459.099 208.318 458.569 203.58C458.298 199.172 457.801 194.761 455.921 190.57C449.709 195.167 444.241 211.361 444.729 222.987C461.665 235.243 475.213 250.893 490.279 265.874ZM201.853 451.445C224.505 438.556 249.333 432.068 273.683 423.34C276.548 422.523 275.062 420.151 274.085 418.389C267.143 405.362 260.362 392.737 253.296 379.637C249.667 381.861 247.149 385.039 243.713 387.41C239.417 390.379 234.916 393.051 230.488 395.829C227.638 397.617 224.368 399 223.877 402.967C215.037 418.488 207.573 434.48 201.853 451.445ZM296.574 259.374C298.484 290.675 263.905 312.967 235.201 312.386C232.396 319.576 227.805 326.727 226.926 334.626C225.609 346.624 238.232 344.616 245.454 340.841C267.983 329.288 291.305 315.854 305.373 294.111C313.403 283.4 315.824 257.589 296.574 259.374ZM424.848 240.31C447.07 259.056 466.013 280.831 485.279 302.423C490.369 290.742 494.068 278.362 483.367 268.688C471.834 257.379 460.423 245.944 448.854 234.671C437.185 224.027 431.835 226.793 424.848 240.31ZM185.6 228.168C194.649 243.414 211.352 258.551 230.248 251.983C233.911 250.543 236.365 248.795 237.4 244.847C239.919 238.025 240.93 227.936 249.509 226.297C250.604 226.107 251.597 225.337 252.836 224.737C243.718 217.454 237.5 208.624 228.334 201.566C229.44 210.294 230.882 221.027 220.979 224.807C211.566 228.848 203.208 228.757 196.011 220.709C192.585 223.164 189.277 225.533 185.6 228.168ZM525.073 192.878C523.318 196.304 517.554 203.397 521.669 206.584C523.09 207.582 524.654 207.495 526.007 206.564C530.662 203.358 535.244 199.995 538.509 195.301C542.416 189.683 541.112 180.409 532.857 177.616C528.253 176.234 524.256 173.862 523.41 168.682C520.808 155.616 507.581 164.667 502.281 154.827C498.698 146.051 488.58 149.709 486.222 157.309C485.205 160.502 485.255 163.594 486.249 166.74C488.911 175.165 493.801 177.153 501.404 172.925C502.317 172.418 503.138 171.225 504.801 172.408C501.292 180.028 503.108 193.642 513.672 193.297C517.397 193.561 522.3 188.897 525.073 192.878ZM510.132 220.029C520.177 225.638 519.849 233.993 516.275 243.242C526.156 251.064 534.636 260.743 546.556 265.42C558.415 270.114 558.007 251.449 552.687 245.666C543.231 232.463 529.469 222.991 517.324 212.409C514.867 215.013 512.61 217.404 510.132 220.029ZM305.8 453.677C326.852 448.114 345.774 437.723 366.158 429.156C347.401 433.511 328.494 438.518 309.147 431.703C295.164 425.379 285.151 412.365 274.381 401.746C274.153 401.931 273.925 402.115 273.697 402.299C282.854 420.267 292.831 437.734 305.8 453.677ZM284.976 251.187C285.619 267.605 280.922 277.709 268.672 288.378C260.198 296.064 246.878 296.934 237.098 291.152C234.35 289.406 231.249 288.214 228.379 286.808C219.816 299.506 234.244 308.71 245.914 305.969C252.859 304.908 259.257 302.227 265.32 298.882C280.668 290.619 301.628 267.365 284.976 251.187ZM358.931 333.38C344.451 321.796 330.63 310.447 315.585 300.277C313.661 305.193 311.862 309.789 310.08 314.342C322.212 328.055 339.521 343.535 358.931 333.38ZM257.682 183.78C258.837 197.98 253.728 205.464 242.177 207.408C246.491 212.323 250.66 217.073 254.923 221.929C259.094 217.968 263.589 218.104 268.478 219.588C269.9 219.769 270.842 219.05 270.826 217.714C272.574 204.277 266.655 194.091 257.682 183.78ZM471.157 183.53C475.528 180.101 480.124 178.963 485.347 181.365C478.692 173.214 461.036 157.631 480.293 152.857C481.107 142.285 478.342 134.299 469.468 145.963C463.434 154.073 462.886 164.082 459.96 173.439C463.446 176.58 467.144 179.913 471.157 183.53ZM317.805 277.456C317.342 282.962 312.153 290.275 318.191 294.074C334.116 304.905 348.848 317.285 363.813 329.347C365.147 330.218 365.919 329.673 366.402 328.19C350.283 311.363 334.164 294.535 317.805 277.456ZM497.713 282.419C506.97 280.286 516.24 278.034 525.968 275.347C518.723 269.622 512.054 264.353 505.244 258.972C501.532 263.336 497.831 267.688 494.481 271.626C495.647 275.518 496.63 278.801 497.713 282.419ZM425.481 388.637C410.24 401.599 394.861 414.367 377.193 424.035C396.163 415.924 415.132 407.814 434.477 399.543C431.307 395.701 428.555 392.363 425.481 388.637ZM272.264 238.378C272.416 231.707 263.851 227.941 258.916 233.832C253.937 238.892 248.337 243.692 246.036 250.637C244.254 256.34 252.268 261.386 255.827 255.054C256.94 253.337 257.482 251.326 258.136 249.403C259.186 246.33 259.427 246.192 262.493 246.726C267.834 248.046 272.416 245.202 272.264 238.378ZM221.554 206.786C222.117 200.613 216.448 197.78 211.102 197.98C207.31 198.053 204.627 200.408 203.702 204.08C201.174 218.848 221.231 229.405 221.554 206.786ZM252.467 188.996C251.395 181.822 247.613 174.928 239.737 177.087C237.783 177.421 236.536 178.437 235.592 180.09C227.944 192.912 250.412 206.874 252.467 188.996ZM465.685 186.711C458.135 178.579 441.871 164.195 434.012 179.287C438.647 182.603 443.3 185.931 447.825 189.167C460.516 176.899 456.976 189.345 465.685 186.711ZM158.02 220.669C158.187 220.452 158.353 220.236 158.52 220.019C149.008 210.953 142.054 195.232 149.378 182.988C152.321 178.356 156.206 174.349 159.626 170.065C160.023 169.57 160.114 168.83 160.632 167.431C155.32 170.43 152.278 175.318 148.147 179.585C137.548 192.299 145.862 212.128 158.02 220.669ZM166.756 238.195C162.374 248.621 174.306 254.532 182.956 253.352C183.02 253.124 183.085 252.897 183.149 252.669C177.82 247.964 172.492 243.26 166.756 238.195ZM504.151 200.454C504.493 203.603 504.763 205.977 505.007 208.353C505.253 210.749 504.354 213.223 505.81 216.015C508.451 213.602 510.157 210.893 512.909 208.515C509.939 205.782 507.346 203.395 504.151 200.454ZM488.115 183.876C490.411 193.205 488.713 193.945 498.881 195.173C495.151 191.259 491.859 187.806 488.115 183.876ZM219.834 182.812C220.566 183.616 221.155 184.263 222.038 185.233C222.342 183.56 222.554 182.397 222.859 180.723C221.631 181.571 220.851 182.11 219.834 182.812Z" fill="black"/>
<path d="M337.108 697.429C304.627 729.274 270.009 759.379 236.927 790.722C233.73 793.435 230.648 796.491 226.881 798.405C224.135 799.8 222.403 796.552 223.468 794.285C257.361 761.273 292.944 729.612 327.607 697.283C330.27 694.301 336.841 690.433 337.108 697.429Z" fill="black"/>
<path d="M79.7413 528.07C72.9753 527.397 76.7083 522.004 80.0743 519.935C95.8473 507.442 111.718 495.07 127.413 482.478C137.508 474.379 147.348 465.963 157.318 457.709C159.174 456.114 162.627 453.188 164.457 456.201C165.752 458.814 163.931 461.299 161.802 462.833C134.82 484.925 107.764 507.373 79.7413 528.07Z" fill="black"/>
<path d="M40.5 830.666C41.323 827.72 43.389 826.18 45.429 824.611C74.829 802.038 104.135 779.34 133.589 756.838C135.445 755.343 138.165 753.744 140.279 755.583C141.789 757.013 140.3 759.092 138.822 760.009C126.287 769.793 113.775 779.606 101.208 789.349C82.495 803.474 64.4 818.555 45.293 832.099C42.862 833.304 42.646 833.201 40.5 830.666Z" fill="black"/>
<path d="M96.3359 663.376C84.7439 676.001 69.3949 684.823 56.3079 695.94C54.4059 697.343 51.2829 699.096 49.5429 696.555C47.9669 694.33 50.0969 692.096 51.8759 690.84C61.2219 683.87 70.5839 676.921 79.9349 669.958C83.4299 667.355 86.8529 664.651 90.4299 662.167C92.6869 660.774 94.6059 660.876 96.3359 663.376Z" fill="black"/>
<path d="M129.468 277.081C135.429 276.755 136.192 284.047 130.336 284.746C121.178 284.792 113.099 289.351 108.379 297.214C105.743 300.805 101.375 298.103 103.092 294.083C108.686 283.734 118.086 278.193 129.468 277.081Z" fill="black"/>
<path d="M105.109 582.706C104.708 583.305 104.243 584.644 103.302 585.305C97.2428 589.559 91.1028 593.7 84.9338 597.793C83.5928 598.683 82.0118 598.924 80.7868 597.449C78.5538 594.364 84.3158 591.383 86.4368 589.581C90.2698 587.69 104.269 572.487 105.109 582.706Z" fill="black"/>
<path d="M176.014 431.462C172.053 429.551 158.035 429.097 160.856 422.544C162.035 420.479 164.432 420.695 166.243 421.714C169.352 422.79 172.459 423.869 175.582 424.905C177.657 425.228 180.424 426.097 180.501 428.479C180.091 430.104 177.994 431.341 176.158 431.01C176.11 431.16 176.062 431.311 176.014 431.462Z" fill="black"/>
<path d="M110.502 266.091C117.806 270.14 108.381 274.808 104.936 277.62C102.996 278.978 100.661 277.644 100.61 275.284C100.534 271.726 106.12 266.014 110.502 266.091Z" fill="black"/>
<path d="M325.627 250.507C325.715 252.941 323.537 254.179 321.318 252.933C318.155 250.62 312.569 249.477 312.155 244.958C312.132 243.511 313.472 242.869 314.834 242.718C317.984 242.578 325.358 247.001 325.627 250.507Z" fill="black"/>
<path d="M907.841 214.214C713.673 382.803 500.612 528.872 279.792 660.218C245.709 679.786 211.631 701.077 173.41 711.516C159.919 714.398 137.72 719.952 132.875 702.235C125.045 665.516 135.065 627.773 139.194 591.127C149.913 524.27 174.603 514.874 232.35 490.836C283.425 469.458 335.474 450.549 385.624 426.969C404.299 418.808 423.221 411.201 441.751 402.709C571.547 337.459 712.669 299.607 844.408 239.076C861.745 231.094 879.742 224.56 896.596 215.517C897.153 215.243 897.943 214.708 898.31 214.899C901.75 216.892 904.38 213.602 907.841 214.214Z" fill="white"/>
<path d="M331.5 637.797C441.088 566.896 553.715 500.28 657.428 420.808C705.327 385.051 752.666 347.84 801.027 313.051C670.931 430.284 544.437 551.656 423.31 678.099C413.094 687.744 397.697 694.167 385.757 683.613C367.313 668.717 349.249 653.538 331.5 637.797Z" fill="black"/>
<path d="M260.219 373.167C278.697 357.42 294.693 340.031 307.202 319.222C330.526 350.382 361.411 350.851 384.755 319.432C401.598 297.684 410.721 271.737 422.03 246.965C444.352 265.402 463.7 286.197 482.213 308.364C455.199 358.945 381.02 438.482 318.278 426.999C293.385 415.938 276.021 394.716 260.219 373.167Z" fill="white"/>
<path d="M220.262 299.863C222.232 304.422 225.421 307.818 229.879 310.211C223.234 319.526 217.8 330.433 221.022 342.116C201.098 346.017 181.489 350.962 161.527 354.829C146.667 357.559 132.133 367.797 149.261 380.518C134.066 395.533 101.77 395.781 83.3245 386.648C80.3525 384.82 80.0205 382.971 81.5875 379.824C86.3055 371.397 79.0545 366.4 71.2215 365.501C64.8825 364.132 64.6325 360.833 70.2165 357.791C78.8535 350.331 66.2685 345.255 59.9785 343.255C66.2475 331.177 86.6855 350.252 105.693 327.216C111.012 321.155 115.545 314.397 120.738 308.244C127.648 300.565 136.182 297.346 146.365 299.98C180.191 310.189 186.306 318.126 220.262 299.863Z" fill="white"/>
<path d="M170.82 409.431C174.678 404.6 175.706 398.16 168.939 395.86C165.443 394.467 161.526 395.536 158.699 392.299C164.175 388.836 166.885 381.953 160.483 377.867C156.947 376.035 152.837 374.709 149.862 371.959C141.405 363.348 175.082 359.777 179.917 357.942C194.624 354.171 209.812 352.696 223.847 346.605C240.021 361.481 284.495 325.265 297.617 313.484C302.024 309.661 304.654 304.211 309.422 300.785C292.543 346.106 220.977 410.409 170.82 409.431Z" fill="white"/>
<path d="M899.939 208.684C812.358 250.512 721.165 284.612 629.653 317.241C627.617 318.005 626.223 318.006 624.591 316.234C620.086 311.342 615.339 306.675 610.188 301.409C706.355 268.134 803.082 238.621 899.445 207.984C899.609 208.218 899.774 208.451 899.939 208.684Z" fill="black"/>
<path d="M586.51 309.098C592.158 315.295 597.41 321.058 603.016 327.209C550.352 346.749 498.935 369.103 448.283 393.37C446.02 394.437 444.343 394.392 442.338 392.853C438.588 389.975 434.647 387.345 430.568 384.458C439.573 375.412 449.022 366.954 456.897 356.863C458.493 354.876 460.534 354.786 462.531 354.159C504.964 342.006 545.044 324.199 586.51 309.098Z" fill="black"/>
<path d="M580.26 270.481C669.53 252.717 758.015 235.108 846.499 217.5C846.602 217.811 846.705 218.122 846.809 218.433C767.842 243.144 689.158 268.719 610.742 295.132C605.389 296.905 606.858 297.391 602.66 293.103C595.182 285.395 587.754 278.259 580.26 270.481Z" fill="white"/>
<path d="M371.581 324.153C356.501 308.349 340.748 293.183 326.607 276.288C360.606 290.427 387.572 257.986 402.687 231.479C412.113 215.755 421.495 201.008 429.948 184.523C435.028 187.923 439.957 191.222 445.088 194.656C441.11 203.282 439.227 212.103 438.706 221.364C422.234 221.538 419.384 239.328 413.136 250.944C400.838 275.98 392.465 304.703 371.581 324.153Z" fill="white"/>
<path d="M564.123 282.68C570.238 289.939 576.307 297.143 582.521 304.52C543.767 319.731 505.127 335.562 465.16 347.221C477.901 330.25 489.823 312.617 495.796 292.065C496.425 290.079 497.4 289.127 499.344 288.66C507.009 287.784 531.736 278.337 536.09 281.981C545.063 287.981 554.873 288.591 564.123 282.68Z" fill="white"/>
<path d="M299.432 455.854C272.183 467.338 245.316 478.66 218.097 490.131C211.953 480.38 204.235 471.5 201.4 459.344C225.621 446.732 251.654 439.326 277.282 430.337C280.127 429.366 280.208 429.444 281.927 431.996C282.857 433.376 283.812 434.752 284.588 436.218C288.573 443.521 294.627 449.147 299.432 455.854Z" fill="black"/>
<path d="M490.281 265.874C475.216 250.893 461.667 235.243 444.73 222.987C444.242 211.361 449.71 195.168 455.922 190.57C457.802 194.761 458.299 199.172 458.571 203.58C459.099 208.316 457.992 213.51 459.111 218.102C460.37 220.641 463.372 220.957 464.908 218.582C468.553 209.051 469.165 198.006 475.082 189.423C477.749 185.256 483.135 186.391 483.226 191.546C485.035 209.122 502.053 190.631 497.936 216.562C497.732 222.038 500.795 224.524 505.89 225.737C516.799 229.11 510.696 242.857 504.795 248.506C499.82 254.148 495.658 260.389 490.281 265.874Z" fill="white"/>
<path d="M201.854 451.443C207.572 434.482 215.039 418.484 223.878 402.966C224.369 398.999 227.639 397.616 230.489 395.829C234.917 393.052 239.418 390.378 243.714 387.409C247.151 385.038 249.666 381.862 253.297 379.637C260.363 392.734 267.145 405.363 274.086 418.389C275.052 420.151 276.559 422.521 273.683 423.338C249.333 432.066 224.508 438.553 201.854 451.443Z" fill="white"/>
<path d="M296.576 259.376C315.827 257.6 313.397 283.4 305.373 294.112C291.305 315.856 267.985 329.289 245.456 340.844C238.253 344.604 225.594 346.639 226.928 334.628C227.804 326.731 232.398 319.577 235.202 312.388C263.875 312.984 298.504 290.664 296.576 259.376Z" fill="white"/>
<path d="M424.85 240.31C431.852 226.818 437.137 223.997 448.856 234.671C460.425 245.943 471.836 257.378 483.37 268.687C494.064 278.356 490.377 290.747 485.281 302.422C466.015 280.83 447.071 259.055 424.85 240.31Z" fill="white"/>
<path d="M185.602 228.167C189.279 225.533 192.587 223.164 196.013 220.709C203.221 228.76 211.56 228.848 220.981 224.806C230.886 221.02 229.438 210.302 228.336 201.566C237.502 208.624 243.719 217.452 252.838 224.737C251.599 225.338 250.605 226.107 249.511 226.298C240.935 227.936 239.918 238.025 237.401 244.847C236.366 248.795 233.913 250.543 230.25 251.982C211.347 258.548 194.661 243.415 185.602 228.167Z" fill="white"/>
<path d="M196.41 197.692C192.391 202.882 191.119 208.667 192.938 215.192C189.347 217.64 185.891 219.997 182.224 222.497C178.534 216.472 176.696 209.779 173.981 203.315C170.624 194.312 173.213 186.416 179.06 179.386C182.89 175.618 186.42 169.673 191.811 168.278C206.495 167.295 221.168 168.628 234.924 161.48C237.819 163.98 240.603 166.385 243.941 169.269C240.918 169.468 238.648 171.685 236.2 169.044C235.863 168.681 234.744 168.875 234.042 169.043C226.211 170.91 219.852 175.417 213.859 180.505C209.108 183.566 218.703 189.777 220.562 192.69C219.622 196.362 212.164 187.918 201.072 194.585C203.155 192.168 208.125 189.991 208.349 186.763C202.028 187.154 184.876 198.617 184.877 205.111C188.019 205.568 189.468 202.388 191.774 200.861C193.241 199.705 194.859 198.741 196.41 197.692Z" fill="white"/>
<path d="M525.073 192.878C522.324 188.902 517.38 193.558 513.671 193.297C503.106 193.64 501.293 180.034 504.8 172.409C503.137 171.226 502.315 172.418 501.403 172.926C493.8 177.153 488.91 175.166 486.248 166.741C485.254 163.594 485.204 160.502 486.221 157.309C488.592 149.723 498.677 146.033 502.279 154.828C507.57 164.663 520.813 155.622 523.408 168.684C524.251 173.863 528.256 176.235 532.856 177.617C541.111 180.41 542.415 189.684 538.508 195.303C535.244 199.997 530.661 203.36 526.006 206.566C524.654 207.497 523.089 207.584 521.669 206.586C517.557 203.455 523.32 196.258 525.073 192.878Z" fill="white"/>
<path d="M305.801 453.677C292.832 437.734 282.856 420.267 273.699 402.3C273.927 402.115 274.155 401.931 274.383 401.746C285.148 412.363 295.168 425.38 309.148 431.705C328.494 438.517 347.405 433.512 366.16 429.155C345.774 437.723 326.853 448.114 305.801 453.677Z" fill="white"/>
<path d="M284.976 251.188C301.627 267.374 280.67 290.61 265.322 298.883C259.258 302.229 252.86 304.908 245.914 305.97C234.267 308.702 219.797 299.517 228.38 286.81C231.249 288.216 234.35 289.407 237.099 291.152C246.874 296.938 260.201 296.062 268.674 288.38C280.988 277.592 285.582 267.726 284.976 251.188Z" fill="white"/>
<path d="M358.931 333.38C339.513 343.533 322.219 328.059 310.08 314.343C311.862 309.79 313.662 305.193 315.585 300.277C330.63 310.446 344.451 321.796 358.931 333.38ZM339.974 323.859C340.21 319.848 333.999 319.19 333.526 323.316C333.161 327.638 339.571 328.249 339.974 323.859ZM323.872 311.636C323.984 307.672 317.497 307.55 317.629 311.638C317.576 315.743 323.873 315.651 323.872 311.636Z" fill="white"/>
<path d="M257.684 183.781C266.657 194.093 272.576 204.278 270.828 217.715C270.845 219.051 269.903 219.77 268.481 219.589C263.592 218.104 259.095 217.971 254.926 221.93C250.663 217.074 246.494 212.324 242.18 207.409C253.731 205.464 258.84 197.98 257.684 183.781Z" fill="white"/>
<path d="M471.158 183.531C467.145 179.915 463.447 176.581 459.961 173.44C462.886 164.083 463.435 154.073 469.47 145.964C478.341 134.302 481.11 142.285 480.294 152.858C461.035 157.639 478.691 173.209 485.348 181.366C480.125 178.963 475.529 180.102 471.158 183.531Z" fill="white"/>
<path d="M317.805 277.457C334.165 294.536 350.284 311.364 366.402 328.191C365.919 329.674 365.146 330.219 363.813 329.348C348.849 317.286 334.116 304.906 318.192 294.075C312.143 290.266 317.351 282.973 317.805 277.457Z" fill="white"/>
<path d="M425.481 388.637C428.555 392.364 431.308 395.701 434.477 399.543C415.132 407.814 396.163 415.925 377.193 424.036C394.861 414.368 410.239 401.599 425.481 388.637Z" fill="white"/>
<path d="M272.265 238.38C272.415 245.204 267.835 248.048 262.494 246.728C259.428 246.194 259.187 246.332 258.137 249.405C257.482 251.328 256.941 253.339 255.828 255.056C252.274 261.384 244.25 256.345 246.037 250.638C248.339 243.693 253.938 238.894 258.917 233.833C263.838 227.955 272.424 231.697 272.265 238.38ZM263.553 238.457C259.197 240.849 254.938 243.188 250.453 245.651C255.284 248.719 261.616 244.95 263.553 238.457Z" fill="white"/>
<path d="M221.555 206.785C221.23 229.409 201.174 218.84 203.703 204.079C204.628 200.406 207.311 198.052 211.104 197.978C216.45 197.783 222.118 200.61 221.555 206.785Z" fill="white"/>
<path d="M252.467 188.996C252.333 195.779 246.879 199.268 240.745 196.409C233.418 193.475 230.997 179.532 239.737 177.086C247.609 174.926 251.4 181.823 252.467 188.996Z" fill="white"/>
<path d="M465.687 186.712C456.995 189.345 460.497 176.906 447.827 189.168C443.302 185.932 438.649 182.603 434.014 179.288C441.881 164.199 458.126 178.574 465.687 186.712Z" fill="white"/>
<path d="M158.021 220.668C145.864 212.133 137.548 192.292 148.148 179.584C152.284 175.311 155.313 170.438 160.633 167.43C160.116 168.828 160.025 169.569 159.627 170.064C156.208 174.347 152.322 178.355 149.38 182.986C142.055 195.236 149.009 210.946 158.521 220.018C158.354 220.235 158.188 220.452 158.021 220.668Z" fill="white"/>
<path d="M166.758 238.195C172.494 243.26 177.822 247.964 183.151 252.669C183.087 252.897 183.022 253.124 182.958 253.352C174.309 254.533 162.375 248.619 166.758 238.195Z" fill="white"/>
<path d="M196.41 197.694C194.859 198.743 193.24 199.707 191.774 200.864C189.467 202.391 188.02 205.57 184.877 205.114C184.886 198.626 201.975 187.18 208.349 186.766C208.11 189.551 206.004 190.134 204.69 191.377C202.211 193.845 199.349 195.817 196.41 197.694Z" fill="black"/>
<path d="M504.152 200.453C507.347 203.394 509.94 205.78 512.91 208.515C510.158 210.893 508.451 213.601 505.811 216.015C504.355 213.223 505.254 210.749 505.008 208.353C504.764 205.976 504.494 203.602 504.152 200.453Z" fill="white"/>
<path d="M488.115 183.875C491.86 187.804 495.151 191.258 498.881 195.172C488.703 193.946 490.41 193.187 488.115 183.875Z" fill="white"/>
<path d="M219.836 182.812C220.853 182.11 221.632 181.571 222.86 180.723C222.555 182.397 222.344 183.56 222.039 185.233C221.157 184.264 220.568 183.617 219.836 182.812Z" fill="white"/>
<path d="M155.303 385.644C155.754 384.565 155.763 383.861 157.14 383.477C157.298 385.217 156.467 385.583 155.221 385.564C155.22 385.563 155.303 385.644 155.303 385.644Z" fill="white"/>
<path d="M339.975 323.859C339.572 328.249 333.161 327.637 333.527 323.315C334.001 319.19 340.212 319.848 339.975 323.859Z" fill="black"/>
<path d="M323.874 311.636C323.874 315.651 317.577 315.743 317.631 311.637C317.5 307.55 323.987 307.672 323.874 311.636Z" fill="black"/>
<path d="M263.553 238.457C261.616 244.95 255.284 248.719 250.453 245.651C254.938 243.188 259.197 240.849 263.553 238.457Z" fill="black"/>
</svg>
