<svg width="960" height="960" viewBox="0 0 960 960" fill="none" xmlns="http://www.w3.org/2000/svg">
<path d="M318.162 372.691C315.804 370.55 313.558 368.531 311.334 366.488C299.024 355.183 287.75 342.993 278.647 328.882C265.275 308.155 261.478 285.83 266.943 261.814C271.734 240.76 280.108 221.336 293.914 204.652C307.01 188.827 323.462 177.972 343.857 173.705C357.852 170.777 371.288 172.908 384.197 178.562C403.499 187.016 419.112 199.974 430.691 217.659C431.867 219.455 432.811 221.404 433.984 223.499C434.816 221.443 435.569 219.584 436.322 217.725C440.882 206.457 447.098 196.154 455.232 187.159C464.414 177.005 475.397 169.506 489.113 166.82C498.4 165.002 507.467 166.639 516.465 168.987C545.873 176.659 579.869 204.245 585.889 247.112C587.373 257.675 586.63 268.26 585.407 278.818C583.154 298.26 577.033 316.456 567.915 333.703C567.649 334.207 567.431 334.737 567.123 335.398C567.57 335.668 567.955 335.958 568.383 336.15C600.396 350.515 632.299 365.134 664.473 379.13C683.756 387.518 703.53 394.768 722.942 402.869C729.43 405.576 735.584 409.155 741.681 412.695C744.555 414.364 747.029 416.782 749.488 419.073C750.363 419.888 750.859 421.273 751.188 422.49C767.844 484.202 784.449 545.927 798.458 608.314C803.036 628.702 808.224 648.962 812.344 669.44C815.41 684.678 817.444 700.14 819.475 715.564C820.662 724.578 820.482 733.693 818.796 742.712C817.369 750.345 813.432 755.388 805.535 757.418C779.789 764.036 754.103 770.892 728.405 777.695C682.364 789.883 636.178 801.504 589.596 811.424C566.842 816.269 543.872 820.115 520.974 824.268C491.479 829.618 461.993 835.027 432.439 840.031C404.73 844.723 376.956 849.041 349.175 853.291C332.862 855.786 316.52 858.2 300.118 859.968C281.564 861.968 262.948 863.682 244.233 862.933C236.357 862.618 228.589 861.515 221.072 859.016C213.513 856.503 208.709 851.686 206.256 843.806C200.49 825.282 197.233 806.247 194.092 787.203C189.763 760.965 185.781 734.666 181.993 708.344C179.468 690.797 177.444 673.175 175.369 655.567C172.367 630.087 169.632 604.574 166.577 579.1C163.428 552.838 160.119 526.594 156.631 500.375C156.193 497.082 156.362 494.942 159.125 492.73C198.933 460.859 240.114 430.827 281.393 400.915C293.59 392.076 305.348 382.631 317.304 373.461C317.532 373.287 317.732 373.079 318.162 372.691ZM562.671 343.664C562.228 344.383 561.854 344.98 561.491 345.584C558.781 350.095 556.16 354.661 553.351 359.109C539.666 380.777 524.356 401.294 508.633 421.494C496.339 437.29 484.742 453.693 470.03 467.479C467.37 469.971 465.541 470.303 461.977 468.098C440.463 454.787 418.94 441.491 397.44 428.158C372.983 412.992 348.982 397.154 326.331 379.358C325.008 378.318 324.277 378.734 323.21 379.553C310.341 389.43 297.652 399.555 284.523 409.074C245.936 437.048 207.39 465.067 170.12 494.795C169.424 495.351 168.746 495.93 167.942 496.596C176.927 501.372 185.476 506.34 194.377 510.564C215.464 520.571 236.532 530.657 257.949 539.919C289.885 553.73 322.091 566.919 354.23 580.258C375.857 589.233 397.761 597.589 418.516 608.516C435.613 617.517 452.732 626.427 470.755 633.488C473.949 634.74 476.964 634.999 480.221 634.102C486.915 632.258 492.856 628.927 498.586 625.12C521.569 609.848 542.92 592.456 563.999 574.718C602.072 542.68 639.272 509.65 676.108 476.199C695.855 458.266 715.963 440.73 735.92 423.029C736.545 422.475 737.3 422.067 737.994 421.59C737.908 421.297 737.821 421.004 737.735 420.711C731.713 417.65 725.853 414.2 719.637 411.601C701.028 403.82 682.122 396.735 663.622 388.71C634.937 376.267 606.492 363.273 577.946 350.51C572.894 348.25 567.846 345.983 562.671 343.664ZM222.595 849.827C223.119 850.064 223.485 850.268 223.875 850.4C231.19 852.856 238.77 853.822 246.423 854.019C263.394 854.457 280.297 853.041 297.13 851.205C313.602 849.408 330.021 847.053 346.409 844.58C372.487 840.645 398.562 836.656 424.561 832.236C456.454 826.814 488.276 820.97 520.113 815.225C541.738 811.323 563.435 807.744 584.926 803.2C631.381 793.38 677.415 781.753 723.341 769.713C750.239 762.661 777.14 755.622 804.039 748.576C807.791 747.593 809.492 745.512 809.606 742.144C807.704 741.433 805.834 740.948 804.171 740.07C799.52 737.614 794.9 735.089 790.363 732.427C764.121 717.031 737.395 702.53 710.034 689.227C684.866 676.99 658.809 666.84 632.534 657.308C615.277 651.048 597.71 645.639 580.257 639.926C563.214 634.347 546.14 628.861 529.075 623.349C527.023 622.686 524.872 622.277 522.899 621.439C521.655 620.911 520.843 620.993 519.789 621.754C515.697 624.706 511.547 627.577 507.411 630.468C499.703 635.859 491.753 640.772 482.523 643.189C477.65 644.465 472.856 644.575 468.14 642.484C457.737 637.872 447.299 633.339 436.93 628.654C435.453 627.987 434.719 628.21 433.68 629.32C394.269 671.434 354.771 713.468 315.405 755.625C285.677 787.461 255.561 818.905 223.693 848.626C223.343 848.955 223.041 849.337 222.595 849.827ZM578.287 262.212C578.071 258.184 578.211 254.1 577.582 250.138C571.705 213.118 550.212 189.396 515.093 177.624C507.201 174.979 498.915 173.71 490.582 175.428C478.113 177.999 468.421 185.17 460.413 194.729C451.119 205.824 445.002 218.646 440.56 232.342C439.856 234.514 438.868 236.638 437.706 238.604C436.569 240.528 434.667 241.441 432.353 241.113C430.01 240.78 428.691 239.27 427.991 237.126C427.814 236.583 427.652 236.012 427.621 235.447C427.363 230.697 425.601 226.46 423.05 222.557C412.677 206.68 398.668 195.012 381.439 187.255C369.733 181.985 357.558 179.874 344.787 182.785C326.379 186.98 311.684 197.087 300.042 211.587C288.79 225.601 281.527 241.709 277.048 259.085C274.311 269.705 272.892 280.432 274.257 291.413C275.944 304.985 281.53 316.933 289.263 328.03C301.842 346.082 317.838 360.783 334.974 374.285C353.387 388.794 372.893 401.781 392.747 414.214C416.496 429.087 440.416 443.687 464.253 458.42C466.848 460.024 466.821 460.068 468.902 457.719C469.141 457.449 469.389 457.186 469.614 456.905C481.752 441.697 494.139 426.68 505.967 411.234C525.548 385.662 544.574 359.703 559.703 331.105C571.131 309.505 577.478 286.658 578.287 262.212ZM427.768 624.094C427.173 623.733 426.883 623.526 426.567 623.371C413.37 616.909 400.406 609.901 386.923 604.105C355.95 590.79 324.612 578.325 293.627 565.038C251.52 546.983 209.163 529.43 169.03 507.113C168.05 506.568 167.021 506.109 165.672 505.441C165.865 506.823 165.992 507.805 166.14 508.783C166.938 514.055 167.863 519.312 168.517 524.602C169.958 536.26 171.322 547.929 172.608 559.605C174.194 574.003 175.623 588.419 177.207 602.818C178.657 615.998 180.124 629.177 181.766 642.333C183.462 655.918 185.426 669.47 187.183 683.048C189.134 698.128 190.637 713.274 192.955 728.296C196.822 753.362 200.951 778.393 205.437 803.355C207.561 815.175 210.71 826.815 213.529 838.504C214.088 840.823 215.263 842.993 216.294 845.583C217.389 844.566 218.136 843.917 218.834 843.219C239.436 822.627 260.498 802.473 280.536 781.346C326.281 733.114 371.526 684.408 416.964 635.885C420.557 632.048 424.068 628.136 427.768 624.094ZM810.523 734.114C810.818 734.005 811.113 733.896 811.408 733.788C811.175 727.835 811.225 721.854 810.658 715.932C808.868 697.254 805.738 678.76 801.548 660.491C793.559 625.655 785.539 590.818 776.843 556.154C767.481 518.837 757.33 481.718 747.519 444.514C746.182 439.443 744.82 434.378 743.418 429.116C742.866 429.517 742.506 429.736 742.196 430.011C723.215 446.855 704.229 463.695 685.262 480.555C657.564 505.175 630.043 529.999 602.136 554.38C578.683 574.87 555.047 595.166 530.28 614.087C530.03 614.278 529.851 614.562 529.71 614.722C539.252 617.835 548.699 620.867 558.112 623.998C585.857 633.227 613.726 642.109 641.297 651.833C688.178 668.368 732.765 689.952 775.926 714.544C787.437 721.103 798.989 727.592 810.523 734.114Z" fill="black"/>
<path d="M357.515 137.853C357.558 140.876 356.412 142.549 354.549 142.923C352.478 143.339 350.937 142.398 350.177 140.58C349.349 138.599 348.864 136.475 348.238 134.41C343.769 119.668 339.137 104.973 334.883 90.1704C330.827 76.0574 327.16 61.8334 323.347 47.6514C323.088 46.6894 322.882 45.6674 322.913 44.6824C322.974 42.7994 323.873 41.3064 325.736 40.7474C327.723 40.1514 329.523 40.6934 330.634 42.5064C331.298 43.5894 331.744 44.8494 332.077 46.0854C336.836 63.7414 341.423 81.4454 346.342 99.0564C349.169 109.175 352.582 119.13 355.597 129.198C356.524 132.29 357.007 135.514 357.515 137.853Z" fill="black"/>
<path d="M475.312 129.651C477.061 112.894 478.702 96.1253 480.599 79.3853C481.759 69.1533 483.293 58.9633 484.714 48.7623C484.91 47.3563 485.224 45.8983 485.836 44.6353C486.739 42.7733 488.414 41.9373 490.508 42.3423C492.523 42.7323 493.808 44.1323 493.849 46.0723C493.904 48.7133 493.62 51.3833 493.256 54.0093C489.733 79.4043 485.923 104.765 484.792 130.426C484.713 132.223 484.536 134.018 484.357 135.809C484.09 138.473 482.433 140.158 480.143 140.152C477.77 140.146 476.162 138.371 475.983 135.554C475.969 135.338 475.964 135.122 475.964 134.906C475.963 133.176 475.964 131.447 475.964 129.717C475.746 129.695 475.529 129.673 475.312 129.651Z" fill="black"/>
<path d="M852.584 714.434C849.359 740.998 840.586 764.785 817.404 780.877C814.306 783.028 810.789 784.64 807.32 786.172C804.783 787.292 802.891 786.559 802.085 784.781C801.273 782.99 802.075 781.311 804.549 779.957C815.974 773.707 825.312 765.238 832.086 754.058C837.926 744.419 840.961 733.787 842.922 722.801C843.453 719.826 843.793 716.814 844.17 713.814C844.5 711.19 847.059 707.888 848.808 707.918C850.556 707.947 852.682 711.544 852.584 714.434Z" fill="black"/>
<path d="M646.648 129.796C646.079 130.593 645.183 132.305 643.877 133.604C634.178 143.259 624.328 152.763 614.667 162.456C608.618 168.525 602.856 174.88 596.878 181.022C594.875 183.079 592.682 184.974 590.429 186.757C588.089 188.609 585.705 188.481 584.246 186.709C582.821 184.977 583.11 182.766 585.111 180.729C602.617 162.897 620.123 145.064 637.673 127.274C638.702 126.231 640.006 125.253 641.367 124.788C644.171 123.831 646.673 125.821 646.648 129.796Z" fill="black"/>
<path d="M197.309 395.133C192.89 395.068 190.936 391.979 192.602 388.928C193.259 387.724 194.382 386.629 195.545 385.87C210.748 375.944 225.934 365.989 241.272 356.274C245.691 353.475 250.577 351.411 255.254 349.021C255.701 348.792 256.177 348.609 256.655 348.453C259.59 347.493 261.959 348.313 262.893 350.6C263.817 352.862 262.626 355.052 259.687 356.293C249.261 360.695 239.956 367.031 230.597 373.247C220.813 379.746 211.193 386.492 201.452 393.058C199.944 394.074 198.177 394.706 197.309 395.133Z" fill="black"/>
<path d="M610.853 306.668C619.405 308.279 627.93 310.057 636.517 311.456C646.534 313.087 656.61 314.354 666.651 315.845C671.207 316.522 675.745 317.332 680.281 318.134C682.459 318.519 684.282 319.453 684.77 321.881C685.361 324.824 682.985 327.215 679.605 326.804C675.893 326.353 672.228 325.535 668.526 324.983C657.631 323.357 646.714 321.874 635.833 320.162C627.163 318.798 618.538 317.153 609.883 315.689C606.368 315.095 604.681 313.55 604.938 310.916C605.184 308.393 607.351 306.987 610.853 306.668Z" fill="black"/>
<path d="M230.915 900.388C216.36 899.245 203.174 895.487 191.372 887.66C185.699 883.898 181.729 878.545 179.116 872.336C177.167 867.705 175.672 862.872 174.178 858.065C173.753 856.696 173.726 855.03 174.063 853.632C174.841 850.404 178.649 849.489 180.782 852.03C181.754 853.188 182.288 854.78 182.793 856.254C184.145 860.198 185.168 864.266 186.698 868.136C189.416 875.013 194.113 880.137 200.745 883.625C209.994 888.489 219.913 891.001 230.111 892.699C230.679 892.794 231.249 892.882 231.811 893.005C234.179 893.524 235.451 894.974 235.29 896.951C235.132 898.898 233.589 900.207 231.234 900.384C230.948 900.407 230.658 900.388 230.915 900.388Z" fill="black"/>
<path d="M264.763 195.683C263.205 194.938 261.961 194.536 260.932 193.823C244.116 182.166 227.318 170.484 210.554 158.753C209.409 157.952 208.38 156.846 207.619 155.672C206.695 154.245 206.838 152.629 207.851 151.195C208.916 149.687 210.458 149.085 212.199 149.438C213.366 149.675 214.58 150.148 215.549 150.833C232.142 162.554 248.708 174.312 265.248 186.108C266.338 186.886 267.57 187.872 268.015 189.037C268.494 190.29 268.554 192.074 267.997 193.244C267.487 194.314 265.908 194.873 264.763 195.683Z" fill="black"/>
<path d="M782.259 432.214C782.158 433.398 782.163 434.419 781.969 435.401C781.541 437.562 779.84 438.96 777.868 438.794C775.722 438.613 774.776 437.252 774.474 435.237C771.387 414.641 761.079 398.434 744.586 385.955C743.236 384.934 741.864 383.674 741.117 382.21C740.561 381.121 740.483 379.154 741.13 378.251C741.845 377.254 743.75 376.381 744.922 376.601C746.956 376.983 749.145 377.87 750.709 379.202C761.565 388.451 770.982 398.902 776.331 412.387C778.395 417.591 779.99 422.985 781.694 428.325C782.103 429.608 782.097 431.022 782.259 432.214Z" fill="black"/>
<path d="M137.471 485.428C137.138 486.175 136.615 487.666 135.85 489.02C131 497.607 128.242 506.731 128.774 516.67C128.924 519.462 129.438 522.235 129.797 525.015C129.871 525.585 130.034 526.145 130.09 526.716C130.274 528.596 129.874 530.257 127.843 530.856C125.89 531.432 124.209 530.578 123.627 528.775C122.51 525.314 121.325 521.777 120.959 518.191C119.73 506.137 123.008 494.935 128.208 484.207C128.758 483.072 129.6 482.006 130.524 481.142C131.854 479.9 133.526 479.809 135.168 480.54C136.673 481.21 137.519 482.796 137.471 485.428Z" fill="black"/>
<path d="M864.747 755.543C864.573 756.155 864.451 757.276 863.959 758.201C860.317 765.047 856.934 772.066 852.773 778.587C850.555 782.063 846.991 784.697 843.942 787.614C843.252 788.275 842.216 788.648 841.275 788.957C839.596 789.509 838.099 789.03 837.072 787.6C836.035 786.156 836.202 784.614 837.16 783.163C837.434 782.747 837.763 782.339 838.149 782.03C846.776 775.114 851.336 765.5 855.651 755.716C856.142 754.603 856.626 753.449 857.341 752.482C858.523 750.884 860.186 749.84 862.202 750.519C864.266 751.212 864.725 753.093 864.747 755.543Z" fill="black"/>
<path d="M565.402 117.613C567.68 117.612 569.615 119.159 569.515 121.419C569.446 122.978 568.888 124.69 568.043 126.01C562.841 134.137 557.499 142.175 552.189 150.233C551.756 150.89 551.28 151.545 550.711 152.079C549.306 153.397 547.633 153.697 545.927 152.812C544.2 151.915 543.521 150.331 543.894 148.448C544.1 147.41 544.483 146.345 545.041 145.45C550.261 137.08 555.515 128.731 560.812 120.41C561.849 118.781 563.296 117.6 565.402 117.613Z" fill="black"/>
<path d="M190.189 919.514C189.281 919.313 187.694 919.105 186.201 918.61C177.943 915.871 170.358 912.037 164.919 904.92C164.144 903.906 163.46 902.746 163.053 901.545C162.401 899.621 162.809 897.789 164.47 896.481C166.058 895.231 167.877 895.299 169.552 896.226C170.529 896.767 171.465 897.573 172.12 898.477C176.917 905.096 183.806 908.556 191.188 911.303C191.593 911.454 192.016 911.554 192.419 911.71C194.684 912.587 195.773 914.304 195.383 916.361C195.01 918.319 193.191 919.592 190.189 919.514Z" fill="black"/>
<path d="M413.943 129.53C413.507 130.85 413.364 132.386 412.577 133.445C410.8 135.838 407.112 134.878 406.257 131.698C405.458 128.727 405.053 125.632 404.695 122.566C404.026 116.85 403.503 111.116 402.954 105.386C402.859 104.39 402.825 103.36 402.963 102.374C403.242 100.377 404.413 99.0355 406.446 98.8105C408.483 98.5845 409.887 99.6855 410.641 101.527C410.963 102.313 411.141 103.188 411.218 104.038C411.977 112.494 412.702 120.953 413.436 129.41C413.605 129.451 413.774 129.49 413.943 129.53Z" fill="black"/>
<path d="M219.625 281.786C217.976 281.786 216.297 281.983 214.685 281.736C212.632 281.422 211.371 280.059 211.195 277.91C211.03 275.898 212.247 274.173 214.281 273.475C214.822 273.289 215.396 273.144 215.965 273.101C223.435 272.531 230.907 271.981 238.379 271.431C238.665 271.41 238.956 271.417 239.243 271.437C241.743 271.618 243.306 272.919 243.47 274.947C243.634 276.988 242.371 278.743 239.944 279.153C233.211 280.29 226.448 281.25 219.697 282.28C219.672 282.115 219.649 281.951 219.625 281.786Z" fill="black"/>
<path d="M297.225 127.934C299.269 127.944 300.636 129.05 301.454 130.787C304.03 136.255 306.592 141.732 309.049 147.254C310.227 149.903 309.55 152.11 307.549 153.066C305.562 154.016 303.482 153.156 302.096 150.583C299.263 145.324 296.467 140.043 293.772 134.713C292.053 131.313 293.86 127.917 297.225 127.934Z" fill="black"/>
<path d="M794.407 407.866C793.834 407.479 792.602 406.95 791.787 406.044C788.326 402.197 784.985 398.24 781.606 394.318C779.773 392.19 779.628 389.725 781.224 388.083C782.891 386.368 785.696 386.31 787.562 388.501C791.198 392.769 794.713 397.169 797.924 401.761C799.916 404.61 798.131 407.972 794.407 407.866Z" fill="black"/>
<path d="M616.995 248.461C614.685 248.503 613.145 247.712 612.58 245.703C612.006 243.661 612.964 241.983 614.75 241.266C619.341 239.425 623.985 237.665 628.72 236.25C631.515 235.415 633.802 236.902 634.382 239.198C634.916 241.31 633.574 243.655 631.002 244.503C626.842 245.875 622.617 247.047 618.41 248.275C617.867 248.435 617.274 248.427 616.995 248.461Z" fill="black"/>
<path d="M95.6543 502.428C96.2703 499.939 96.6743 497.446 97.5233 495.116C98.3843 492.752 100.637 491.634 102.639 492.113C104.876 492.648 106.162 494.53 105.88 497.248C105.54 500.522 105.046 503.781 104.559 507.038C104.299 508.779 103.254 509.91 101.505 510.236C99.6703 510.578 98.0713 509.889 97.3453 508.253C96.5483 506.458 96.2193 504.457 95.6543 502.428Z" fill="black"/>
<path d="M562.669 343.664C567.844 345.983 572.892 348.25 577.943 350.509C606.489 363.271 634.934 376.266 663.619 388.709C682.119 396.734 701.025 403.819 719.634 411.6C725.85 414.199 731.709 417.649 737.732 420.71C737.818 421.003 737.905 421.296 737.991 421.589C737.297 422.065 736.542 422.473 735.917 423.028C715.96 440.73 695.853 458.266 676.105 476.198C639.269 509.649 602.069 542.679 563.996 574.717C542.917 592.455 521.566 609.847 498.583 625.119C492.853 628.927 486.911 632.257 480.218 634.101C476.962 634.998 473.946 634.739 470.752 633.487C452.729 626.426 435.61 617.515 418.513 608.515C397.758 597.588 375.854 589.233 354.227 580.257C322.088 566.919 289.882 553.729 257.946 539.918C236.528 530.656 215.461 520.569 194.374 510.563C185.472 506.339 176.924 501.371 167.939 496.595C168.743 495.929 169.421 495.35 170.117 494.794C207.387 465.066 245.934 437.046 284.52 409.073C297.649 399.555 310.339 389.429 323.207 379.552C324.274 378.733 325.005 378.317 326.328 379.357C348.98 397.153 372.98 412.99 397.437 428.157C418.937 441.49 440.46 454.786 461.974 468.097C465.538 470.302 467.367 469.97 470.027 467.478C484.739 453.693 496.336 437.289 508.63 421.493C524.352 401.293 539.662 380.776 553.348 359.108C556.157 354.66 558.778 350.094 561.488 345.583C561.852 344.98 562.226 344.383 562.669 343.664ZM398.427 461.969C398.277 461.987 397.987 462.001 397.707 462.06C395.469 462.537 394.515 464.373 393.485 466.104C380.939 487.206 368.386 508.304 355.9 529.441C355.125 530.753 354.568 532.369 354.483 533.876C354.314 536.865 356.88 538.854 359.659 537.795C361.159 537.223 362.576 535.944 363.569 534.635C365.434 532.176 367.084 529.531 368.616 526.845C379.674 507.464 390.683 488.055 401.69 468.644C402.039 468.029 402.297 467.322 402.422 466.627C402.866 464.154 401.023 461.967 398.427 461.969ZM569.633 516.011C569.013 514.864 568.176 512.695 566.826 510.914C552.431 491.914 537.959 472.972 523.487 454.03C522.84 453.183 522.078 452.368 521.216 451.753C519.816 450.753 518.256 450.684 516.748 451.607C515.303 452.492 514.619 453.895 514.988 455.476C515.304 456.83 515.899 458.227 516.731 459.336C531.25 478.693 545.795 498.03 560.448 517.286C561.549 518.733 563.365 519.899 565.092 520.544C567.472 521.431 569.569 519.617 569.633 516.011ZM558.091 393.403C557.029 394.07 555.751 394.534 554.971 395.431C553.248 397.413 554.177 400.045 556.846 401.978C565.42 408.184 573.94 414.464 582.505 420.682C583.48 421.39 584.598 422.331 585.674 422.364C587.109 422.408 588.807 422.003 589.955 421.18C591.322 420.2 591.454 418.384 590.689 416.831C590.193 415.826 589.509 414.763 588.623 414.124C579.691 407.679 570.714 401.297 561.706 394.959C560.741 394.281 559.5 393.996 558.091 393.403ZM456.302 525.735C456.38 525.743 456.459 525.751 456.537 525.759C456.537 525.975 456.538 526.191 456.537 526.406C456.51 529.909 458.051 532.129 460.612 532.275C463.336 532.431 465.146 530.35 465.391 526.78C465.406 526.565 465.411 526.349 465.422 526.133C465.817 518.449 466.2 510.764 466.619 503.081C466.697 501.649 467.062 500.223 467.039 498.799C467.008 496.881 465.992 495.492 464.064 495.061C462.148 494.633 460.62 495.416 459.746 497.131C459.234 498.135 458.865 499.288 458.751 500.407C457.89 508.846 457.108 517.292 456.302 525.735ZM322.395 438.793C323.109 438.294 324.721 437.624 325.665 436.426C329.674 431.338 333.487 426.094 337.366 420.903C337.581 420.616 337.771 420.305 337.933 419.985C338.845 418.179 338.722 416.487 337.23 415.046C335.869 413.731 333.803 413.684 332.087 414.986C331.238 415.63 330.469 416.426 329.809 417.267C326.299 421.743 322.803 426.23 319.384 430.775C318.668 431.727 318.083 432.889 317.813 434.042C317.229 436.527 319.072 438.763 322.395 438.793Z" fill="black"/>
<path d="M222.594 849.827C223.041 849.337 223.342 848.955 223.694 848.626C255.562 818.905 285.678 787.461 315.406 755.625C354.772 713.468 394.27 671.435 433.681 629.32C434.72 628.21 435.454 627.986 436.931 628.654C447.3 633.339 457.738 637.873 468.141 642.484C472.857 644.575 477.652 644.465 482.524 643.189C491.754 640.773 499.705 635.859 507.412 630.468C511.547 627.576 515.697 624.705 519.79 621.754C520.845 620.993 521.657 620.911 522.9 621.439C524.873 622.277 527.024 622.686 529.076 623.349C546.141 628.861 563.215 634.347 580.258 639.926C597.711 645.639 615.278 651.048 632.535 657.308C658.81 666.839 684.866 676.989 710.035 689.227C737.397 702.53 764.122 717.031 790.364 732.427C794.9 735.088 799.52 737.614 804.172 740.07C805.835 740.948 807.705 741.432 809.607 742.144C809.492 745.511 807.792 747.593 804.04 748.576C777.141 755.622 750.24 762.661 723.342 769.713C677.415 781.753 631.382 793.38 584.927 803.2C563.435 807.743 541.738 811.322 520.114 815.225C488.276 820.97 456.455 826.815 424.562 832.236C398.563 836.656 372.488 840.645 346.41 844.58C330.022 847.053 313.603 849.408 297.131 851.205C280.298 853.042 263.395 854.457 246.424 854.019C238.771 853.821 231.19 852.855 223.876 850.4C223.483 850.268 223.117 850.064 222.594 849.827Z" fill="white"/>
<path d="M578.285 262.212C577.476 286.658 571.129 309.505 559.702 331.106C544.573 359.704 525.547 385.663 505.966 411.235C494.139 426.681 481.751 441.698 469.613 456.906C469.388 457.187 469.14 457.45 468.901 457.72C466.82 460.069 466.847 460.025 464.252 458.421C440.415 443.688 416.495 429.088 392.746 414.215C372.892 401.782 353.386 388.795 334.973 374.286C317.837 360.784 301.841 346.083 289.262 328.031C281.529 316.934 275.943 304.986 274.256 291.414C272.891 280.433 274.31 269.706 277.047 259.086C281.526 241.709 288.789 225.602 300.041 211.588C311.683 197.088 326.378 186.981 344.786 182.786C357.558 179.875 369.732 181.986 381.438 187.256C398.667 195.013 412.676 206.681 423.049 222.558C425.6 226.462 427.362 230.699 427.62 235.448C427.651 236.013 427.812 236.584 427.99 237.127C428.69 239.271 430.01 240.781 432.352 241.114C434.666 241.442 436.567 240.529 437.705 238.605C438.867 236.639 439.854 234.515 440.559 232.343C445.001 218.647 451.118 205.825 460.412 194.73C468.419 185.171 478.111 178 490.581 175.429C498.914 173.711 507.199 174.979 515.092 177.625C550.211 189.396 571.703 213.118 577.581 250.139C578.209 254.1 578.068 258.184 578.285 262.212Z" fill="white"/>
<path d="M427.767 624.091C424.067 628.133 420.556 632.045 416.964 635.881C371.526 684.404 326.281 733.11 280.536 781.342C260.499 802.469 239.436 822.624 218.834 843.216C218.136 843.914 217.389 844.562 216.294 845.579C215.263 842.988 214.088 840.818 213.529 838.5C210.709 826.811 207.561 815.172 205.437 803.352C200.951 778.389 196.822 753.358 192.955 728.292C190.637 713.27 189.135 698.124 187.183 683.044C185.426 669.466 183.461 655.915 181.766 642.329C180.124 629.172 178.657 615.994 177.207 602.815C175.623 588.416 174.194 574.001 172.608 559.602C171.322 547.926 169.958 536.257 168.517 524.599C167.863 519.309 166.938 514.053 166.14 508.78C165.992 507.801 165.865 506.819 165.672 505.438C167.021 506.107 168.049 506.564 169.03 507.109C209.163 529.426 251.52 546.979 293.627 565.034C324.613 578.32 355.95 590.786 386.923 604.102C400.407 609.897 413.37 616.905 426.567 623.367C426.882 623.522 427.172 623.73 427.767 624.091Z" fill="white"/>
<path d="M810.523 734.115C798.989 727.594 787.437 721.105 775.925 714.545C732.765 689.953 688.178 668.37 641.296 651.834C613.725 642.109 585.857 633.227 558.111 623.999C548.698 620.868 539.251 617.836 529.709 614.723C529.85 614.563 530.029 614.279 530.279 614.088C555.046 595.167 578.682 574.871 602.135 554.381C630.042 530 657.562 505.176 685.261 480.556C704.229 463.696 723.214 446.857 742.195 430.012C742.505 429.737 742.866 429.518 743.417 429.117C744.819 434.379 746.181 439.444 747.518 444.515C757.329 481.719 767.48 518.838 776.842 556.155C785.538 590.819 793.558 625.656 801.547 660.492C805.736 678.76 808.867 697.255 810.657 715.933C811.224 721.854 811.175 727.835 811.407 733.789C811.113 733.897 810.818 734.006 810.523 734.115Z" fill="white"/>
<path d="M398.428 461.969C401.024 461.968 402.867 464.154 402.423 466.626C402.298 467.322 402.04 468.028 401.691 468.643C390.684 488.053 379.675 507.462 368.617 526.844C367.085 529.53 365.435 532.175 363.57 534.634C362.577 535.944 361.16 537.222 359.66 537.794C356.881 538.854 354.316 536.864 354.484 533.875C354.569 532.368 355.126 530.752 355.901 529.44C368.387 508.303 380.941 487.205 393.486 466.103C394.515 464.371 395.47 462.536 397.708 462.059C397.988 462.001 398.278 461.987 398.428 461.969Z" fill="white"/>
<path d="M569.633 516.008C569.568 519.614 567.472 521.429 565.093 520.541C563.366 519.896 561.55 518.73 560.449 517.282C545.797 498.026 531.252 478.689 516.732 459.332C515.901 458.224 515.305 456.827 514.989 455.473C514.62 453.892 515.303 452.488 516.749 451.603C518.257 450.68 519.817 450.75 521.217 451.75C522.079 452.366 522.841 453.179 523.488 454.026C537.96 472.968 552.432 491.911 566.827 510.911C568.176 512.693 569.013 514.861 569.633 516.008Z" fill="white"/>
<path d="M558.091 393.402C559.499 393.994 560.741 394.28 561.706 394.959C570.714 401.297 579.691 407.679 588.623 414.124C589.509 414.763 590.193 415.826 590.689 416.831C591.455 418.383 591.322 420.2 589.955 421.18C588.807 422.003 587.109 422.408 585.674 422.364C584.598 422.331 583.48 421.389 582.505 420.682C573.94 414.464 565.42 408.184 556.846 401.978C554.177 400.046 553.248 397.413 554.971 395.431C555.751 394.533 557.03 394.069 558.091 393.402Z" fill="white"/>
<path d="M456.303 525.733C457.109 517.29 457.891 508.844 458.752 500.406C458.866 499.287 459.235 498.134 459.747 497.13C460.621 495.415 462.15 494.632 464.065 495.06C465.993 495.491 467.009 496.88 467.04 498.798C467.063 500.222 466.698 501.649 466.62 503.08C466.201 510.763 465.819 518.448 465.423 526.132C465.412 526.348 465.407 526.564 465.392 526.779C465.147 530.349 463.336 532.43 460.613 532.274C458.052 532.127 456.51 529.907 456.538 526.405C456.54 526.189 456.538 525.973 456.538 525.758C456.46 525.749 456.381 525.741 456.303 525.733Z" fill="white"/>
<path d="M322.397 438.793C319.073 438.763 317.231 436.527 317.814 434.043C318.085 432.89 318.669 431.728 319.385 430.776C322.804 426.231 326.301 421.744 329.81 417.268C330.47 416.427 331.239 415.631 332.088 414.987C333.804 413.685 335.869 413.732 337.231 415.047C338.723 416.488 338.846 418.18 337.934 419.986C337.773 420.306 337.582 420.617 337.367 420.904C333.488 426.095 329.676 431.339 325.666 436.427C324.723 437.623 323.111 438.293 322.397 438.793Z" fill="white"/>
</svg>
