<svg width="960" height="960" viewBox="0 0 960 960" fill="none" xmlns="http://www.w3.org/2000/svg">
<path d="M882.299 229.462C877.296 280.898 832.807 301.528 785.946 301.008C754.76 302.353 723.553 303.085 692.347 303.543C690.296 314.765 689.399 319.57 676.571 319.097C675.047 458.13 677.629 597.394 668.683 736.207C667.375 776.213 660.817 817.085 672.18 856.238C695.933 854.297 720.17 850.318 743.435 856.623C749.561 859.022 750.939 864.732 746.996 869.96C734.828 882.93 708.49 883.606 691.708 887.019C694.648 890.698 698.867 892.431 702.472 895.325C703.947 896.367 705.488 896.501 707.299 896.326C741.663 893.838 775.169 881.467 809.848 884.922C817.406 886.091 840.492 885.327 833.107 898.192C825.22 907.007 812.997 910.046 802.133 913.595C792.722 916.709 782.798 917.303 773.228 919.469C750.118 919.961 727.002 914.739 706.06 904.95C704.237 904.089 702.504 903.706 700.455 903.944C665.075 907.197 629.276 914.994 593.798 909.103C583.149 908.226 572.459 894.505 586.301 888.95C615.4 881.151 645.909 882.874 675.728 881.245C672.877 875.49 670.145 869.974 667.202 864.034C593.645 874.204 567.716 901.145 515.929 829.593C513.986 831.433 512.002 833.312 509.879 835.323C517.211 848.027 524.317 860.72 531.486 873.493C534.996 878.586 534.63 886.115 526.747 884.927C520.503 884.055 514.924 881.366 508.775 879.933C509.806 883.234 510.839 886.126 511.275 889.453C512.002 896.209 503.551 897.823 498.436 896.412C479.334 892.513 460.376 887.641 440.833 886.673C429.909 885.692 419.013 884.41 408.106 883.243C397.394 883.105 386.333 878.622 389.272 865.96C391.224 855.684 393.477 846.088 395.178 835.682C383.687 845.155 372.044 852.939 358.413 858.351C363.099 862.938 366.562 867.744 370.394 872.915C375.422 880.248 373.03 891.795 363.671 894.063C360.331 895.093 356.775 895.684 353.281 895.904C289.951 898.468 226.705 904.47 163.303 904.648C108.651 904.809 87.0172 868.395 79.2942 819.058C71.8892 778.931 73.2712 698.839 127.867 696.299C128.386 691.06 128.897 685.891 129.427 680.542C96.8352 668.537 91.5822 618.947 121.338 601.002C130.492 595.235 140.49 595.412 151.059 594.346C146.409 590.617 143.081 582.96 136.572 584.411C130.791 585.348 123.706 579.475 121.266 574.447C119.182 569.72 119 564.934 121.041 560.301C124.995 554.226 101.207 541.009 111.123 520.142C124.874 493.084 152.662 477.818 171.492 455.033C175.391 450.382 182.907 440.573 187.042 450.497C192.03 443.45 195.59 434.735 202.502 445.824C204.925 443.197 209.185 437.203 211.798 442.745C213.671 446.972 214.939 450.435 216.116 455.107C218.253 453.122 219.758 448.687 222.421 449.095C227.826 451.405 223.977 473.441 221.262 477.953C220.236 480.345 220.15 482.377 220.896 484.898C224.728 497.855 228.4 510.861 231.943 523.901C235.65 540.52 240.565 557.038 240.419 574.199C240.525 581.26 239.828 588.292 239.772 595.362C282.591 591.284 321.397 569.293 362.299 557.228C392.417 546.998 422.226 535.641 449.522 519.063C454.016 516.607 458.571 514.245 464.255 513.733C465.314 505.704 459.626 481.582 472.395 482.832C473.36 473.979 468.693 461.156 479.784 457.42C487.59 454.339 495.04 450.344 502.802 447.127C507.91 444.304 513.097 441.141 519.163 442.469C521.753 442.912 523.102 444.795 523.504 447.288C524.163 468.821 523.015 490.45 523.036 512.012C523.025 512.848 522.884 513.837 523.258 514.498C526.181 519.677 524.757 520.901 523.44 525.945C532.417 525.972 537.475 533.3 533.593 541.816C552.76 537.909 551.482 559.323 539.651 567.564C533.783 572.054 527.791 576.106 521.465 580.006C521.325 581.897 521.184 583.808 521.027 585.933C516.9 586.009 515.237 590.646 511.571 592.052C509.413 593.283 508.867 595.007 509.293 597.259C512.178 617.258 523.46 634.339 535.928 649.736C537.167 651.398 538.456 651.802 540.61 651.192C557.365 646.31 578.199 646.926 588.217 663.43C625.87 724.663 557.783 780.983 521.182 823.954C535.593 846.073 560.087 873.842 588.928 870.669C614.365 866.876 639.733 861.675 665.082 857.212C654.421 811.159 661.412 764.045 663.562 717.467C671.475 584.847 667.931 451.853 670.755 319.078C656.824 317.845 655.429 317.614 657.418 303.218C611.361 302.923 565.527 303.275 519.572 300.366C505.668 299.516 491.42 297.747 478.706 291.675C448.018 276.343 469.552 232.385 494.214 221.396C503.641 216.263 513.772 214.131 524.418 212.952C507.143 198.437 504.957 173.63 513.165 153.647C523.484 127.486 555.563 117.021 581.176 125.219C587.121 126.98 592.972 129.057 599.337 131.145C563.378 27.369 697.633 4.17698 719.84 106.505C752.657 39.321 850.732 95.998 815.389 178.013C834.532 170.888 853.738 177.966 867.774 191.791C878.682 201.428 882.157 215.327 882.299 229.462ZM663.129 295.376C663.129 295.502 663.129 295.627 663.128 295.753C707.038 296.045 750.923 294.547 794.797 292.918C814.681 292.05 835.844 287.572 851.482 274.471C866.861 265.959 874.993 245.378 875.955 228.297C877.94 204.589 856.273 183.114 833.148 181.809C811.722 180.394 803.404 198.685 798.71 193.009C796.957 191.227 798.034 188.65 799.697 187.258C813.353 173.834 816.119 152.804 815.108 134.474C811.813 97.267 771.411 71.914 741.246 90.819C728.691 99.243 724.875 113.773 722 127.703C721.581 130.271 720.626 133.587 717.355 133.099C714.662 132.87 713.875 130.128 714.111 127.828C715.627 88.546 686.736 42.559 643.209 48.066C613.904 50.193 596.319 81.116 600.869 108.497C601.822 117.953 606.063 126.468 608.811 135.414C610.087 142.498 602.357 141.647 598.19 139.139C571.777 125.315 532.766 125.149 519.926 156.894C514.067 172.146 513.87 191.691 526.153 203.892C534.521 213.608 550.256 211.596 548.603 218.341C548.194 221.115 544.761 221.678 542.352 221.034C531.848 219.978 521.445 220.131 511.146 222.924C493.99 227.578 481.252 237.362 474.279 254.014C470.167 263.611 469.328 277.3 479.546 283.304C496.281 292.591 516.488 292.575 535.102 293.692C577.765 294.84 620.448 295.635 663.129 295.376ZM187.989 897.44C187.994 897.322 187.998 897.204 188.003 897.087C243.787 894.526 299.518 890.871 355.289 888.079C371.489 887.076 367.7 878.148 358.911 869.181C345.9 855.563 329.806 845.508 314.163 835.236C299.885 826.977 283.864 822.156 268.267 817.01C215.816 800.208 196.437 789.247 166.291 741.913C154.609 722.279 133.907 690.446 108.118 709.395C87.4192 725.987 84.9712 754.977 83.6062 779.663C83.0892 806.447 88.4092 833.341 98.3132 858.193C113.069 896.176 152.9 898.058 187.989 897.44ZM515.535 581.653C510.323 566.309 500.714 552.24 488.194 541.898C478.516 533.305 467.605 541.568 459.068 547.598C421.107 575.19 383.032 602.657 343.567 628.087C324.243 640.693 302.952 650.037 280.545 655.54C251.805 666.201 225.263 647.737 205.38 675.182C186.474 707.056 224.24 737.689 253.193 743.94C353.441 763.642 435.32 626.773 515.535 581.653ZM513.886 725.122C520.848 694.6 520.131 628.8 487.355 613.643C485.313 612.891 483.399 613.336 481.606 614.88C429.913 656.076 388.754 710.472 327.903 739.385C326.403 746.644 325.435 753.53 324.716 760.759C318.248 781.664 311.517 802.284 305.033 823.22C321.075 830.742 334.798 841.83 349.051 852.167C351.096 853.686 352.683 853.961 354.988 853.072C389.039 839.792 414.693 811.116 427.766 777.564C409.196 761.906 417.167 742.538 438.846 736.601C440.917 735.946 442.035 734.902 442.568 732.709C444.12 726.321 445.914 719.991 447.648 713.648C448.192 711.365 449.675 708.487 452.476 709.426C455.536 710.355 454.688 713.736 453.827 715.995C452.217 721.558 450.6 727.12 448.773 733.415C470.536 727.577 492.087 725.798 513.886 725.122ZM253.099 653.138C242.579 641.271 225.894 632.769 209.979 638.372C205.288 640.022 200.387 641.212 195.49 642.121C177.288 645.5 158.922 646.277 140.48 644.838C122.792 645.626 109.16 628.845 123.44 614.42C134.158 605.227 147.938 605.722 161.47 604.751C158.803 602.372 157.77 599.729 154.492 599.577C143.663 600.839 131.597 599.723 122.64 607.042C101.497 622.062 103.366 657.165 124.988 670.748C141.606 681.38 163.794 677.676 177.288 663.699C181.843 659.125 186.655 664.213 181.759 668.513C168.767 681.74 152.772 685.487 134.741 682.386C134.411 687.829 134.097 693.001 133.78 698.23C152.735 706.064 162.664 723.041 172.808 739.418C185.925 758.704 200.02 779.755 220.925 791.072C245.892 803.396 272.53 812.153 298.985 820.537C306.497 798.492 313.001 776.033 320.009 753.793C321.095 750.244 321.965 746.501 321.502 742.301C303.22 749.28 284.174 756.054 264.258 753.385C237.227 749.203 207.525 735.838 196.914 708.851C188.288 688.417 197.715 664.361 218.843 656.691C229.98 652.322 241.3 653.412 253.099 653.138ZM145.29 580.055C145.091 580.278 144.891 580.5 144.692 580.723C145.519 581.231 146.722 581.54 147.113 582.279C149.792 587.336 153.867 591.161 157.895 595.064C165.988 602.813 173.639 611.061 182.021 618.495C214.338 644.394 235.172 618.774 235.579 584.414C237.768 559.923 229.901 536.411 222.826 513.315C218.704 502.24 215.179 490.977 211.961 479.605C210.94 473.392 194.359 478.309 190.049 479.186C152.692 489.271 115.512 507.971 134.9 552.632C122.386 556.141 117.178 575.635 134.011 577.773C141.809 578.54 143.596 570.339 147.016 572.183C149.868 573.768 146.792 578.092 145.29 580.055ZM474.796 531.92C470.83 516.862 463.378 517.998 451.663 524.825C439.186 531.898 426.456 538.727 413.352 544.534C384.721 556.533 355.179 566.249 325.892 576.513C298.711 585.115 273.461 597.583 244.733 601.16C256.762 616.399 262.391 633.984 267.581 651.737C339.995 637.608 395.283 582.14 455.167 542.574C461.063 538.225 467.052 534.061 474.796 531.92ZM401.197 830.172C424.767 829.64 447.16 830.489 469.841 835.937C484.499 801.371 504.512 769.153 512.365 732.049C491.168 732.419 470.407 735.255 449.819 740.217C447.379 740.699 446.205 741.987 445.544 744.424C437.387 776.338 424.176 806.093 401.197 830.172ZM519.966 731.543C514.73 754.804 505.707 776.56 495.841 797.699C504.955 803.154 510.726 810.581 517.384 818.689C545.694 783.306 589.025 749.584 592.625 701.523C593.231 687.632 589.005 675.361 580.847 664.325C572.221 652.818 555.893 653.727 543.218 656.803C557.838 670.69 582.111 689.146 571.451 711.787C561.885 731.161 538.658 730.8 519.966 731.543ZM400.737 837.397C394.6 879.914 385.275 874.075 429.482 878.379C443.037 879.683 456.621 881.098 470.035 883.427C480.087 885.276 490.048 887.614 500.051 889.727C501.553 890.044 503.131 890.675 504.681 888.866C496.288 869.732 479.912 854.029 463.321 841.945C442.973 837.02 421.503 836.357 400.737 837.397ZM521.951 724.507C533.035 724.576 545.105 724.974 555.149 719.467C563.834 714.977 570.168 704.549 566.528 694.815C565.053 690.635 563.002 686.736 560.078 683.427C552.437 674.646 544.336 666.56 535.507 658.908C531.173 660.759 527.068 662.513 522.883 664.301C526.23 684.71 523.651 704.167 521.951 724.507ZM520.335 574.705C520.893 574.705 521.202 574.803 521.346 574.691C527.21 570.139 533.209 565.745 538.844 560.925C542.846 558.308 545.687 546.315 538.013 547.382C533.829 548.121 530.012 550.294 526.142 551.964C523.466 553.223 520.45 549.836 522.107 547.318C523.898 542.876 531.07 539.132 528.324 533.884C524.492 528.144 512.916 539.734 509.877 534.799C508.854 533.242 509.296 531.746 510.499 530.477C512.975 527.632 519.736 522.806 518.038 518.672C516.048 516.942 512.41 519.088 510.167 518.879C506.371 518.494 504.508 522.698 501.154 523.631C478.017 530.122 492.883 498.459 486.727 495.479C477.581 504.725 481.596 519.898 481.562 531.639C500.748 538.1 515.047 555.669 520.335 574.705ZM717.49 902.191C750.362 916.824 798.416 916.226 827.675 894.183C790.811 884.882 754.138 897.508 717.49 902.191ZM508.668 452.409C498.803 455.727 490.274 460.664 481.149 464.449C481.248 473.458 480.785 482.256 481.53 491.299C495.727 484.937 494.656 501.304 493.286 510.398C491.877 526.147 501.464 516.654 508.668 512.25C508.668 492.759 508.668 472.87 508.668 452.409ZM586.656 896.435C592.971 913.081 675.846 899.198 693.466 897.77C686.996 893.754 683.652 886.058 675.364 888.562C645.791 889.444 615.361 888.411 586.656 896.435ZM475.107 841.828C483.883 849.715 492.404 857.955 499.648 867.357C501.747 869.988 503.7 872.427 507.445 872.287C513.94 874.242 519.516 876.599 526.29 878.149C523.237 871.928 520.014 866.794 516.741 860.82C511.782 852.867 508.002 843.642 502.301 836.335C494.856 832.443 492.137 824.535 484.063 821.168C481.089 828.03 478.152 834.805 475.107 841.828ZM169.496 638.239C168.758 628.821 166.603 619.773 163.573 610.601C152.673 611.216 141.315 610.753 131.456 616.033C122.871 619.844 120.683 632.293 130.402 636.111C142.974 639.848 156.579 637.7 169.496 638.239ZM674.816 863.024C676.672 867.985 681.635 881.092 686.646 880.483C697.928 878.149 738.42 874.879 742.274 863.855C721.957 856.828 696.054 860.996 674.816 863.024ZM238.413 603.924C231.886 621.726 231.814 620.578 222.545 629.826C237.882 631.094 249.291 639.418 259.787 649.541C255.142 633.225 249.754 617.426 238.413 603.924ZM490.453 607.939C509.684 615.83 516.928 640.015 521.96 658.326C525.151 656.881 528.047 655.57 531.026 654.221C512.704 631.362 507.709 618.64 503.142 598.196C498.98 601.391 494.996 604.45 490.453 607.939ZM487.251 814.925C494.228 818.462 498.119 824.465 503.556 829.32C506.545 831.593 509.801 825.245 512.066 823.711C506.335 816.074 500.552 809.247 492.649 803.974C490.891 807.54 489.19 810.991 487.251 814.925ZM170.427 614.714C171.915 622.221 173.433 629.883 175.021 637.894C183.765 637.236 192.506 636.192 201.146 633.643C188.848 631.13 179.623 622.462 170.427 614.714ZM661.76 312.281C668.834 313.179 675.464 313.583 682.117 313.179C685.721 312.06 686.337 307.057 685.997 303.567C677.899 303.567 669.947 303.567 661.76 303.567C661.76 306.414 661.76 309.04 661.76 312.281ZM515.059 447.815C514.798 469.052 514.539 490.062 514.277 511.361C515.578 511.275 516.711 511.2 518.089 511.109C517.552 489.822 518.705 468.814 518.209 447.575C516.891 447.675 515.972 447.745 515.059 447.815ZM439.331 743.78C426.59 746.762 417.86 760.84 431.218 769.679C433.883 761.173 436.51 752.787 439.331 743.78ZM471.924 489.256C471.671 489.188 471.418 489.119 471.164 489.051C469.001 492.585 468.246 510.601 471.038 513.421C471.333 513.306 471.628 513.191 471.923 513.075C471.924 505.136 471.924 497.196 471.924 489.256Z" fill="black"/>
<path d="M455.504 473.108C452.043 472.003 442.721 472.714 443.462 467.121C445.237 461.866 454.006 465.881 458.141 465.948C460.132 466.292 461.395 467.73 461.308 469.369C461.129 472.552 458.186 472.691 455.504 473.108Z" fill="black"/>
<path d="M454.018 440.529C456.004 431.651 463.955 442.836 466.46 445.773C467.663 447.274 468.093 449.672 466.344 450.957C465.014 451.996 463.44 451.976 462.346 450.864C459.89 447.839 455.003 444.149 454.018 440.529Z" fill="black"/>
<path d="M545.205 494.409C542.417 494.504 537.488 494.866 537.466 491.181C537.384 489.419 538.395 487.917 540.5 487.741C543.62 487.48 546.78 487.677 549.922 487.732C551.757 488.081 553.781 489.632 553.399 491.711C552.663 495.492 547.997 494.19 545.205 494.381C545.205 494.391 545.205 494.4 545.205 494.409Z" fill="black"/>
<path d="M445.492 500.577C444.155 500.428 443.422 500.555 442.982 500.254C440.314 498.821 439.805 497.246 441.74 494.828C444.234 492.901 448.092 493.163 451.108 492.454C453.175 492.17 454.658 493.08 455.146 494.717C455.622 496.312 454.872 498.036 452.89 498.708C450.275 499.595 447.525 500.08 445.492 500.577Z" fill="black"/>
<path d="M479.126 435.885C476.14 434.82 474.597 430.946 473.09 428.313C471.082 424.47 476.688 421.771 478.62 425.156C480.729 428.238 486.225 435.156 479.126 435.885Z" fill="black"/>
<path d="M550.574 461.502C549.431 463.951 541.405 470.557 539 467.101C535.936 463.202 543.573 459.926 546.232 458.177C548.394 457.112 550.68 458.81 550.574 461.502Z" fill="black"/>
<path d="M505.99 429.659C505.722 431.659 505.56 435.527 502.648 435.001C501.628 434.786 500.182 433.915 499.965 433.071C499.443 429.826 497.097 423.038 502.05 422.52C505.697 422.289 505.659 426.914 505.99 429.659Z" fill="black"/>
<path d="M533.586 440.403C526.757 439.488 532.994 431.142 536.727 429.951C539.025 428.977 541.65 431.541 540.72 433.695C538.956 435.514 535.892 439.855 533.586 440.403Z" fill="black"/>
<path d="M544.689 510.395C546.841 511.087 549.291 512.237 550.735 514.597C552.093 516.951 549.795 519.727 547.347 519.523C542.469 519.484 536.67 510.825 544.689 510.395Z" fill="black"/>
<path d="M663.13 295.377C620.449 295.636 577.766 294.84 535.103 293.695C516.478 292.587 496.289 292.589 479.546 283.308C469.327 277.301 470.177 263.612 474.279 254.017C481.251 237.365 493.989 227.581 511.145 222.927C521.444 220.133 531.847 219.98 542.351 221.037C544.817 221.667 548.126 221.132 548.602 218.343C550.117 211.504 534.663 213.703 526.153 203.893C513.855 191.69 514.085 172.151 519.925 156.895C532.826 125.141 571.726 125.313 598.189 139.143C602.413 141.686 610.044 142.463 608.81 135.416C606.064 126.473 601.819 117.953 600.868 108.499C596.318 81.1246 613.902 50.1836 643.209 48.0686C686.741 42.5586 715.619 88.5556 714.11 127.831C713.868 130.141 714.668 132.864 717.355 133.102C720.612 133.609 721.592 130.26 721.999 127.706C724.869 113.784 728.698 99.2346 741.246 90.8246C771.442 71.8966 811.774 97.2906 815.107 134.475C816.145 152.797 813.333 173.844 799.697 187.262C798.008 188.654 796.979 191.23 798.708 193.012C804.128 198.535 811.074 180.509 833.147 181.814C856.282 183.119 877.926 204.589 875.953 228.299C874.981 245.521 866.893 265.832 851.482 274.474C835.851 287.58 814.672 292.045 794.797 292.921C750.923 294.549 707.038 296.047 663.127 295.756C663.129 295.629 663.129 295.503 663.13 295.377ZM697.673 199.529C700.26 182.141 701.154 164.915 702.186 147.419C702.145 144.108 701.71 140.037 697.517 140.366C684.64 139.439 671.765 138.497 658.89 137.537C655.837 137.309 653.688 138.536 652.622 141.443C649.647 159.614 652.148 178.476 650.395 196.818C641.597 197.923 632.829 198.144 624.007 198.924C621.763 199.089 619.589 199.447 618.532 201.838C617.527 204.11 618.815 205.812 620.002 207.529C634.337 226.441 651.791 242.457 668.907 258.78C678.316 268.664 685.987 252.439 691.983 246.474C703.219 231.874 715.779 218.394 728.239 204.908C730.65 200.695 726.193 197.903 722.324 198.152C713.804 198.124 706.459 198.64 697.673 199.529Z" fill="white"/>
<path d="M187.989 897.438C152.947 898.059 113.021 896.161 98.3142 858.188C88.4062 833.337 83.0933 806.444 83.6063 779.66C84.9563 754.974 87.4253 725.979 108.118 709.391C133.897 690.426 154.625 722.302 166.29 741.911C196.518 789.344 215.822 800.182 268.267 817.007C283.866 822.154 299.883 826.974 314.163 835.233C329.806 845.506 345.898 855.56 358.911 869.179C367.29 877.669 371.804 887.172 355.288 888.077C299.517 890.87 243.787 894.524 188.002 897.086C187.998 897.202 187.993 897.32 187.989 897.438Z" fill="black"/>
<path d="M515.536 581.653C435.584 626.637 353.069 763.806 253.195 743.945C224.235 737.717 186.461 707.042 205.38 675.182C225.222 647.757 251.812 666.193 280.546 655.541C302.955 650.038 324.243 640.695 343.568 628.088C383.033 602.658 421.109 575.191 459.069 547.598C467.585 541.584 478.546 533.284 488.195 541.899C500.719 552.237 510.322 566.311 515.536 581.653Z" fill="white"/>
<path d="M513.885 725.124C492.086 725.8 470.535 727.578 448.772 733.418C450.599 727.123 452.216 721.561 453.826 715.998C454.686 713.74 455.536 710.355 452.475 709.429C449.672 708.495 448.192 711.365 447.647 713.652C445.913 719.995 444.119 726.325 442.567 732.713C442.034 734.907 440.916 735.95 438.844 736.605C417.172 742.519 409.199 761.948 427.765 777.568C414.697 811.115 389.034 839.8 354.987 853.076C352.681 853.965 351.094 853.69 349.049 852.171C334.796 841.834 321.074 830.746 305.031 823.224C311.514 802.289 318.246 781.667 324.713 760.763C325.433 753.532 326.401 746.653 327.901 739.389C388.756 710.474 429.908 656.082 481.604 614.883C483.398 613.339 485.312 612.895 487.353 613.647C520.136 628.839 520.842 694.512 513.885 725.124Z" fill="black"/>
<path d="M253.1 653.137C241.304 653.404 229.978 652.323 218.842 656.69C197.725 664.366 188.275 688.414 196.916 708.851C207.533 735.846 237.221 749.192 264.258 753.385C284.176 756.054 303.218 749.279 321.502 742.3C321.966 746.5 321.095 750.243 320.009 753.792C313.001 776.032 306.498 798.491 298.986 820.536C272.531 812.151 245.894 803.394 220.927 791.069C200.018 779.751 185.931 758.705 172.808 739.417C162.665 723.04 152.737 706.062 133.781 698.228C134.098 692.999 134.412 687.827 134.742 682.384C152.773 685.481 168.769 681.741 181.76 668.51C186.653 664.208 181.847 659.125 177.289 663.697C163.792 677.672 141.61 681.378 124.989 670.744C103.363 657.159 101.504 622.063 122.641 607.039C131.599 599.719 143.664 600.838 154.493 599.574C157.773 599.725 158.801 602.375 161.471 604.748C147.945 605.715 134.149 605.226 123.441 614.418C109.19 628.841 122.751 645.613 140.482 644.834C158.924 646.274 177.29 645.496 195.492 642.118C200.389 641.209 205.289 640.02 209.981 638.37C225.901 632.77 242.573 641.268 253.1 653.137Z" fill="white"/>
<path d="M145.291 580.055C146.795 578.099 149.87 573.764 147.018 572.183C143.652 570.316 141.786 578.543 134.013 577.772C117.181 575.636 122.389 556.139 134.902 552.632C115.515 507.986 152.692 489.26 190.051 479.186C194.441 478.249 210.923 473.449 211.962 479.604C215.18 490.976 218.706 502.241 222.827 513.315C229.9 536.41 237.769 559.924 235.58 584.415C235.178 618.693 214.379 644.435 182.021 618.495C173.64 611.061 165.989 602.813 157.896 595.064C153.868 591.161 149.793 587.335 147.114 582.279C146.723 581.54 145.52 581.231 144.693 580.723C144.892 580.5 145.092 580.278 145.291 580.055ZM200.572 522.143C202.734 520.424 222.16 513.375 214.632 511.146C208.027 510.565 201.638 515.427 195.617 517.76C192.881 519.11 192.71 521.231 194.583 523.819C201.61 534.982 205.732 547.872 211.558 559.723C213.757 562.96 214.793 573.505 220.001 571.639C221.64 570.95 222.104 569.64 221.109 567.332C214.333 551.905 208.505 537.246 200.572 522.143ZM163.26 536.231C170.239 534.472 176.214 530.795 182.844 528.136C185.062 527.632 186.993 523.814 183.648 523.552C176.904 524.802 170.665 528.446 164.178 530.707C161.563 531.712 159.861 535.016 163.26 536.231ZM187.622 542.944C187.721 543.122 187.819 543.301 187.918 543.479C199.074 536.322 171.878 533.521 171.082 551.282C171.296 553.558 174.088 554.817 175.101 552.199C177.252 546.204 180.425 541.211 187.622 542.944ZM215.08 598.021C207.448 600.02 203.468 599.47 197.064 594.9C194.51 594.317 193.808 596.728 195.256 598.59C198.632 604.273 214.405 606.83 215.08 598.021ZM220.206 529.339C223.819 530.451 225.254 525.459 221.656 524.425C217.5 522.902 212.081 526.03 210.53 530.85C209.879 532.874 210.236 534.474 211.475 535.075C215.241 536.56 215.04 527.476 220.206 529.339ZM135.218 560.571C128.38 558.696 129.576 573.201 136.125 570.693C135.361 565.559 131.349 568.045 135.218 560.571ZM202.114 606.496C202.178 610.808 207.008 610.482 209.651 609.324C211.867 606.244 204.106 606.906 202.114 606.496Z" fill="white"/>
<path d="M474.795 531.92C467.05 534.061 461.061 538.224 455.164 542.569C395.289 582.135 339.989 637.611 267.58 651.736C262.391 633.983 256.761 616.399 244.732 601.16C273.449 597.586 298.715 585.114 325.891 576.514C355.177 566.249 384.72 556.532 413.35 544.533C426.455 538.725 439.184 531.898 451.662 524.824C463.391 518.066 470.745 516.718 474.795 531.92Z" fill="white"/>
<path d="M401.197 830.174C424.177 806.096 437.387 776.339 445.543 744.426C446.204 741.989 447.378 740.701 449.818 740.219C470.406 735.258 491.166 732.421 512.364 732.051C504.511 769.158 484.499 801.371 469.84 835.939C447.151 830.49 424.776 829.642 401.197 830.174Z" fill="black"/>
<path d="M519.966 731.542C538.649 730.803 561.894 731.159 571.45 711.787C582.104 689.131 557.845 670.712 543.218 656.804C555.886 653.713 572.228 652.826 580.848 664.325C589.006 675.361 593.232 687.632 592.624 701.522C589.024 749.59 545.703 783.293 517.385 818.689C510.728 810.582 504.954 803.152 495.842 797.699C505.707 776.559 514.73 754.803 519.966 731.542Z" fill="black"/>
<path d="M400.737 837.398C421.503 836.357 442.973 837.021 463.321 841.946C479.916 854.03 496.285 869.73 504.682 888.866C503.131 890.675 501.554 890.044 500.052 889.727C490.049 887.614 480.087 885.276 470.036 883.428C456.622 881.099 443.038 879.684 429.483 878.381C385.246 874.092 394.615 879.862 400.737 837.398Z" fill="white"/>
<path d="M521.951 724.508C523.651 704.168 526.23 684.711 522.883 664.303C527.068 662.515 531.174 660.761 535.507 658.91C545.921 668.771 561.716 681.299 566.529 694.816C570.168 704.551 563.835 714.977 555.149 719.468C545.106 724.976 533.035 724.576 521.951 724.508Z" fill="black"/>
<path d="M520.336 574.704C515.048 555.669 500.751 538.1 481.564 531.637C481.597 519.905 477.583 504.717 486.729 495.477C492.869 498.429 478.039 530.143 501.157 523.629C504.512 522.694 506.373 518.496 510.169 518.876C512.406 519.083 516.055 516.937 518.04 518.67C519.744 522.782 512.973 527.644 510.501 530.475C509.297 531.744 508.856 533.24 509.879 534.797C512.899 539.731 524.514 528.143 528.325 533.882C531.074 539.134 523.896 542.869 522.109 547.317C520.449 549.83 523.469 553.226 526.144 551.963C530.014 550.293 533.832 548.12 538.015 547.382C545.707 546.333 542.828 558.286 538.847 560.924C533.212 565.745 527.212 570.139 521.349 574.691C521.203 574.802 520.895 574.704 520.336 574.704Z" fill="white"/>
<path d="M508.667 452.41C508.667 472.871 508.667 492.76 508.667 512.25C501.454 516.654 491.881 526.151 493.286 510.397C494.66 501.308 495.716 484.93 481.529 491.299C480.784 482.256 481.247 473.458 481.148 464.449C490.273 460.665 498.803 455.727 508.667 452.41Z" fill="white"/>
<path d="M475.107 841.828C478.152 834.805 481.089 828.03 484.064 821.168C492.137 824.533 494.858 832.443 502.301 836.336C508.004 843.644 511.782 852.866 516.742 860.82C520.017 866.799 523.232 871.92 526.29 878.15C519.524 876.603 513.935 874.242 507.445 872.288C503.7 872.428 501.747 869.989 499.648 867.358C492.404 857.955 483.883 849.714 475.107 841.828Z" fill="white"/>
<path d="M169.496 638.24C156.581 637.702 142.974 639.849 130.401 636.113C120.688 632.294 122.865 619.844 131.456 616.035C141.316 610.754 152.67 611.218 163.573 610.602C166.603 619.774 168.757 628.822 169.496 638.24Z" fill="black"/>
<path d="M238.413 603.926C249.754 617.429 255.141 633.227 259.787 649.543C249.291 639.42 237.882 631.096 222.545 629.828C231.814 620.58 231.887 621.728 238.413 603.926Z" fill="black"/>
<path d="M487.252 814.927C489.191 810.993 490.892 807.542 492.65 803.977C500.553 809.25 506.336 816.077 512.067 823.714C509.808 825.245 506.543 831.595 503.558 829.323C498.121 824.468 494.228 818.463 487.252 814.927Z" fill="black"/>
<path d="M170.428 614.715C179.624 622.464 188.85 631.131 201.147 633.644C192.507 636.193 183.766 637.238 175.022 637.895C173.434 629.883 171.916 622.222 170.428 614.715Z" fill="white"/>
<path d="M661.76 312.28C661.76 309.039 661.76 306.412 661.76 303.566C669.947 303.566 677.898 303.566 685.997 303.566C686.341 307.051 685.719 312.063 682.118 313.179C675.465 313.582 668.835 313.178 661.76 312.28Z" fill="white"/>
<path d="M515.059 447.815C515.972 447.745 516.891 447.675 518.209 447.574C518.704 468.814 517.552 489.82 518.089 511.108C516.711 511.199 515.578 511.274 514.277 511.36C514.539 490.063 514.798 469.052 515.059 447.815Z" fill="white"/>
<path d="M439.33 743.781C436.508 752.788 433.881 761.174 431.217 769.68C417.857 760.835 426.593 746.765 439.33 743.781Z" fill="black"/>
<path d="M471.925 489.255C471.925 497.195 471.925 505.135 471.925 513.075C471.63 513.19 471.335 513.305 471.04 513.421C468.259 510.634 468.991 492.623 471.166 489.051C471.418 489.118 471.671 489.186 471.925 489.255Z" fill="white"/>
<path d="M697.673 199.528C706.457 198.638 713.809 198.122 722.326 198.15C726.163 197.912 730.684 200.683 728.239 204.906C715.78 218.393 703.221 231.873 691.985 246.473C685.999 252.459 678.311 268.645 668.908 258.78C651.793 242.456 634.338 226.439 620.004 207.527C618.816 205.811 617.529 204.108 618.533 201.836C619.59 199.446 621.764 199.088 624.008 198.922C632.831 198.142 641.598 197.922 650.396 196.816C652.149 178.475 649.648 159.611 652.622 141.441C653.689 138.533 655.837 137.307 658.891 137.535C671.765 138.495 684.641 139.437 697.517 140.364C701.705 140.035 702.155 144.103 702.186 147.417C701.154 164.916 700.26 182.137 697.673 199.528ZM718.885 204.779C711.764 204.639 705.441 205.814 698.46 206.423C693.949 206.917 691.159 204.747 690.764 200.237C693.39 182.233 693.598 164.125 695.026 145.967C684.522 144.539 674.002 144.331 663.452 143.369C661.094 143.182 657.818 142.88 657.899 146.131C657.216 162.56 657.419 179.014 657.081 195.454C657 201.061 655.231 202.892 649.706 203.254C642.014 203.967 634.676 203.256 627.079 205.59C641.541 224.474 658.033 239.112 675.443 255.322C690.201 238.499 703.501 220.866 718.885 204.779Z" fill="black"/>
<path d="M200.572 522.142C208.503 537.24 214.336 551.91 221.109 567.331C223.426 571.911 217.33 573.71 215.617 569.503C208.828 554.241 203.044 538.191 194.584 523.817C192.71 521.229 192.881 519.109 195.618 517.76C201.642 515.422 208.023 510.571 214.633 511.144C222.122 513.412 202.752 520.405 200.572 522.142Z" fill="black"/>
<path d="M163.259 536.23C159.87 535.013 161.549 531.717 164.177 530.706C167.983 529.804 183.503 521.143 185.379 524.44C185.796 526.175 184.405 527.57 182.842 528.135C176.211 530.795 170.241 534.47 163.259 536.23Z" fill="black"/>
<path d="M187.621 542.946C180.42 541.212 177.25 546.21 175.1 552.202C174.099 554.808 171.285 553.569 171.08 551.284C171.896 533.501 199.071 536.341 187.917 543.481C187.819 543.303 187.72 543.125 187.621 542.946Z" fill="black"/>
<path d="M215.079 598.022C214.405 606.831 198.633 604.275 195.256 598.591C193.816 596.733 194.498 594.317 197.063 594.902C203.462 599.473 207.464 600.019 215.079 598.022Z" fill="black"/>
<path d="M220.205 529.34C215.033 527.48 215.247 536.557 211.473 535.077C210.235 534.476 209.877 532.876 210.528 530.852C212.079 526.031 217.498 522.904 221.654 524.427C225.249 525.463 223.823 530.449 220.205 529.34Z" fill="black"/>
<path d="M135.218 560.57C131.347 568.053 135.363 565.556 136.125 570.692C129.576 573.2 128.381 558.695 135.218 560.57Z" fill="black"/>
<path d="M202.113 606.496C204.093 606.904 211.87 606.245 209.651 609.324C207.007 610.482 202.177 610.809 202.113 606.496Z" fill="black"/>
<path d="M718.884 204.779C703.501 220.865 690.2 238.501 675.442 255.322C658.033 239.112 641.539 224.473 627.078 205.59C634.67 203.259 642.015 203.966 649.704 203.254C655.229 202.892 656.997 201.061 657.079 195.454C657.416 179.015 657.213 162.561 657.896 146.131C657.816 142.891 661.092 143.172 663.45 143.37C674.001 144.332 684.518 144.54 695.024 145.968C693.596 164.125 693.388 182.234 690.761 200.238C691.158 204.748 693.947 206.918 698.458 206.425C705.444 205.813 711.757 204.637 718.884 204.779Z" fill="black"/>
</svg>
