<svg width="960" height="960" viewBox="0 0 960 960" fill="none" xmlns="http://www.w3.org/2000/svg">
<path d="M551.73 938.997C546.977 938.111 542.076 937.565 537.483 936.034C528.066 933.011 532.045 922.252 537.928 917.753C553.278 905.8 569.011 895.496 585.595 885.011C580.087 875.561 579.453 864.493 578.404 853.867C577.479 841.869 576.519 829.87 575.872 817.854C574.196 768.891 581.69 720.166 591.817 672.517C606.925 623.73 617.775 573.67 630.801 524.221C618.246 516.539 615.97 500.882 611.549 488.023C611.257 487.096 610.953 485.843 611.338 485.092C612.714 482.412 611.569 479.936 611.099 477.399C609.805 470.947 608.999 465.005 607.27 458.551C597.037 467.74 587.797 476.369 578.131 485.84C571.857 492.152 564.592 493.341 556.37 490.206C529.72 510.56 497.555 504.856 493.021 468.442C490.711 436.032 499.771 403.896 502.227 371.637C491.26 363.355 471.725 354.632 477.458 337.856C477.941 335.484 475.921 333.206 475.122 331.06C472.18 323.803 477.763 319.575 483.701 319.996C486.514 320.268 489.265 321.23 492.069 321.711C492.966 314.019 492.966 314.019 496.013 310.065C487.633 271.556 481.621 241.133 533.068 242.798C542.365 243.308 547.899 251.638 550.79 259.658C556.074 274.515 559.969 289.679 562.149 305.336C585.701 312.623 600.941 332.277 613.075 352.608C617.082 351.729 620.835 350.905 624.78 350.04C606.17 326.62 596.093 298.21 596.876 268.197C592.17 271.39 583.214 279.271 582.377 268.652C582.816 261.423 585.63 256.125 588.045 248.759C583.202 251.359 571.93 262.278 571.053 251.408C574.705 239.473 582.552 229.062 590.512 219.574C597.603 211.601 606.879 207.367 616.928 204.518C632.356 200.305 648.525 200.426 664.373 200.871C677.325 201.603 693.596 204.153 696.89 219.01C706.077 254.283 701.093 290.949 697.2 326.555C718.959 324.334 732.767 331.606 745.228 349.306C759.53 369.387 761.05 394.44 765.774 417.844C768.743 433.348 771.822 448.832 774.854 464.324C777.378 475.066 779.002 487.08 771.066 495.66C778.609 509.7 780.971 525.432 782.662 541.052C789.463 593.655 779.447 646.228 781.227 698.826C793.479 744.49 811.055 789.038 822.737 834.968C824.634 844.314 824.201 853.427 819.628 861.665C826.102 877.408 830.71 894.203 828.431 911.238C826.974 932.177 806.352 934.007 789.221 935.067C777.611 936.062 765.968 936.677 754.348 937.577C750.248 937.829 746.25 939.255 742.107 939C736.389 938.283 728.393 935.329 733.114 928.451C734.435 926.581 736.375 924.917 738.391 923.806C754.707 913.535 774.32 901.43 777.109 880.675C748 874.696 734.534 806.952 723.489 781.828C709.818 745.319 699.637 707.773 688.981 670.306C677.94 686.254 667.253 704.231 664.661 723.729C659.836 766.816 664.001 853.283 641.838 887.414C645.331 907.915 646.012 935.733 618.467 936.083C595.863 936.38 573.363 938.59 551.73 938.997ZM637.683 528.192C611.607 642.023 565.386 758.789 590.126 876.772C593.522 889.567 607.804 890.511 618.972 889.902C632.607 889.321 639.895 881.569 642.856 868.527C653.487 824.244 653.386 778.475 656.5 733.275C655.4 721.206 658.001 709.217 663.41 698.38C684.122 659.078 714.753 624.747 727.277 581.333C729.75 572.941 731.215 564.23 733.368 555.759C735.671 550.529 741.007 554.473 739.162 559.042C733.183 597.448 713.072 631.446 692.731 663.877C702.299 684.207 708.121 705.988 713.333 727.751C724.673 762.271 736.281 796.718 748.791 830.832C753.452 843.426 759.261 855.491 767.396 866.36C776.271 879.061 792.668 873.195 803.706 867.019C818.433 859.771 818.181 843.004 813.825 829.321C801.063 781.363 778.826 735.148 774.968 685.31C772.976 623.812 787.364 559.657 766.312 500.113C753.753 510.127 738.454 513.241 723.489 517.491C695.298 523.474 666.707 530.291 637.683 528.192ZM769.124 470.112C763.595 443.643 758.427 417.158 754.089 390.47C749.754 367.849 736.908 334.963 710.038 333.926C692.852 366.11 646.388 386.712 616.46 359.448C592.822 374.85 573.678 403.61 556.442 426.461C548.152 439.511 566.836 470.138 581.073 473.386C589.001 466.292 596.624 458.856 604.479 451.68C608.763 447.722 612.369 448.832 613.656 454.512C617.096 472.541 617.368 491.994 626.295 508.401C676.521 510.606 730.807 506.735 769.124 470.112ZM539.646 428.597C527.42 405.363 520.432 377.104 526.75 351.282C529.123 343.255 531.981 323.14 525.013 317.298C521.691 321.392 520.762 335.331 513.086 328.668C509.4 324.741 505.952 316.454 500.095 316.039C499.223 318.113 499.327 320.07 499.718 322.216C500.647 334.387 488.134 326.379 481.197 327.153C482.834 331.649 486.414 334.769 484.652 339.319C478.933 350.706 496.865 357.32 503.53 363.68C516.198 352.318 506.137 389.391 506.547 394.148C504.052 416.538 499.697 438.835 499.743 461.424C500.559 493.866 523.86 504.358 550.227 486.689C537.057 474.919 522.544 453.244 534.006 436.129C535.926 433.506 537.903 430.923 539.646 428.597ZM611.907 256.558C608.07 259.702 603.471 260.527 603.435 265.748C603.544 270.497 603.348 275.265 603.699 279.994C604.75 306.847 616.328 334.316 636.885 352C658.023 361.016 676.917 342.24 692.3 330.149C692.306 322.723 694.66 315.766 694.634 307.737C683.469 316.099 672.708 307.32 662.129 317.567C652.825 325.597 643.393 316.637 634.132 323.787C623.727 329.434 622.068 313 620.885 306.149C617.876 289.283 616.061 273.408 611.907 256.558ZM510.441 252.466C507.87 271.821 509.728 290.866 513.811 309.815C514.361 312.38 515.189 314.966 513.233 317.507C514.122 318.483 514.898 319.335 515.778 320.301C520.809 306.444 530.11 306.69 534.427 320.55C536.819 328.47 536.241 336.413 535.549 344.581C541.015 343.848 546.112 343.128 551.073 340.737C546.729 334.428 547.079 328.771 552.707 323.734C544.202 316.307 540.954 303.817 555.996 303.572C551.737 287.411 549.452 270.622 541.819 255.641C534.991 244.784 520.995 249.812 510.441 252.466ZM538.921 928.769C563.273 934.464 588.519 927.87 613.285 929.104C622.977 929.532 633.582 927.08 635.387 915.967C636.98 908.659 636.248 901.274 636.288 893.912C636.29 893.598 635.964 893.282 635.683 892.769C621.248 899.425 602.803 900.381 589.574 890.049C579.333 896.087 569.632 903.002 559.724 909.569C552.229 915.58 542.844 919.222 538.921 928.769ZM544.614 423.217C549.463 420.386 550.537 423.435 553.06 419.612C561.191 408.481 569.973 397.852 578.409 386.954C579.108 386.056 579.838 384.759 579.734 383.729C576.849 363.533 580.802 353.685 558.095 346.303C557.346 346.006 556.286 345.82 555.608 346.121C548.682 349.2 541.278 350.474 533.377 352.02C528.481 374.036 533.109 403.758 544.614 423.217ZM741.772 929.936C741.844 930.284 741.916 930.631 741.987 930.979C758.543 929.923 775.067 928.428 791.637 927.506C797.121 927.076 802.604 926.44 808.034 925.561C831.78 920.319 819.721 883.993 814.322 868.396C804.942 875.772 794.403 879.716 783.063 881.53C781.117 904.803 759.005 917.713 741.772 929.936ZM585.431 377.6C593.085 370.638 600.364 364.016 607.71 357.334C596.242 336.969 580.225 317.181 556.609 311.121C555.232 310.669 553.71 310.165 552.254 312.198C556.278 317.564 564.376 323.78 556.853 329.797C551.146 336.068 562.713 340.998 567.377 343.071C582.928 348.458 584.724 363.087 585.431 377.6ZM770.315 477.773C730.999 510.802 679.495 516.428 629.961 513.947C634.04 519.545 638.999 522.281 645.153 522.113C665.471 521.757 685.453 517.511 705.485 514.482C724.885 510.055 771.313 503.84 770.315 477.773ZM548.842 430.638C545.017 433.548 542.945 437.256 539.979 440.856C537.338 444.398 536.803 448.42 537.704 452.662C540.9 466.057 548.928 480.834 563.02 484.747C568.849 486.064 571.925 481.582 576.275 478.155C558.811 468.427 550.142 449.897 548.842 430.638ZM624.16 357.052C649.667 377.659 688.342 359.228 702.719 333.281C695.373 333.621 691.656 340.292 685.995 343.858C668.835 357.441 652.815 365.812 630.789 357.816C628.679 357.294 626.587 356.471 624.16 357.052ZM503.779 256.264C490.918 265.863 501.726 295.367 503.059 309.389C504.149 309.79 505.215 310.182 506.423 310.627C504.175 291.933 500.3 275.28 503.779 256.264ZM690.334 234.008C689.54 223.985 682.847 215.999 673.894 211.965C670.951 211.035 664.082 207.594 663.143 212.305C662.825 214.256 664.999 215.453 666.995 215.237C678.09 216.276 686.668 226.66 686.549 237.654C687.359 239.551 689.247 239.634 690.049 237.707C690.391 236.68 690.25 235.492 690.334 234.008Z" fill="black"/>
<path d="M245.473 60.0507C277.14 63.1547 294.443 92.4727 302.968 120.169C304.735 119.834 305.189 118.236 306.04 117.135C310.405 111.482 314.475 105.583 319.081 100.136C376.217 31.9967 466.65 98.9817 419.441 173.616C432.357 167.944 445.5 167.218 457.936 173.999C499.133 196.536 459.642 273.126 417.789 268.367C348.827 268.509 279.877 270.108 210.952 266.853C173.587 266.322 136.275 264.849 99.0336 261.659C92.5476 261.174 86.1016 260.136 79.8816 258.005C52.8366 249.82 53.8126 216.673 74.9326 201.308C87.1316 191.462 101.41 187.192 116.428 183.368C112.081 174.069 107.022 165.515 106.547 155.04C103.912 134.11 121.098 112.631 143.173 116.086C163.861 117.993 179.091 132.626 195.373 143.764C180.693 103.95 198.514 58.8537 245.473 60.0507ZM425.689 132.501C426.24 96.8687 394.081 70.2077 359.242 80.8777C338.195 86.6067 324.279 103.388 312.141 120.409C308.731 125.745 302.18 133.694 297.527 124.907C290.216 106.175 283.423 85.3507 265.29 74.1997C233.203 52.6007 190.673 83.5007 197.797 120.432C199.092 129.819 202.065 139.017 203.287 148.406C202.346 164.396 180.284 140.111 174.686 137.221C167.805 132.132 160.427 127.89 152.245 125.196C124.351 114.389 105.707 141.13 116.438 166.576C118.02 170.389 119.952 174.057 121.704 177.801C126.704 186.773 120.313 190.23 112.045 191.806C99.7786 194.959 87.7546 199.497 78.0446 207.904C65.2876 217.826 60.1246 240.408 76.9966 248.969C84.2346 252.967 92.8406 253.797 100.896 254.802C180.874 258.901 260.966 261.799 341.066 260.462C362.611 260.859 384.16 262.086 405.728 261.534C411.835 261.455 417.933 260.163 424.048 261.558C424.739 261.716 425.535 261.447 426.277 261.344C468.498 255.992 492.403 167.76 431.83 176.637C426.653 177.854 421.782 180.399 416.798 182.406C413.444 183.273 408.893 187.849 405.874 184.253C404.795 182.895 404.888 181.41 405.829 180.062C417.531 166.405 425.716 150.967 425.689 132.501Z" fill="black"/>
<path d="M296.145 282.778C299.501 283.364 309.951 281.019 310.397 285.134C311.747 288.471 314.403 286.079 314.4 292.858C315.307 326.304 316.546 359.875 323.766 392.669C331.496 437.244 378.662 426.115 405.826 406.292C414.464 399.434 409.883 398.592 403.961 392.565C395.492 382.839 383.814 374.595 379.862 361.85C378.549 356.34 384.125 354.126 388.676 355.198C399.006 356.364 409.318 357.702 419.663 358.71C436.132 360.315 452.534 362.355 468.859 365.085C479.301 366.831 480.952 372.937 479.864 380.413C478.603 389.086 478.146 397.874 477.237 406.602C475.307 416.525 474.117 446.805 457.869 435.386C452.809 432.132 447.92 428.613 442.872 425.34C435.55 420.593 434.376 420.688 427.804 426.354C415.82 436.685 403.226 446.201 389.944 454.799C328.9 496.009 273.703 468.746 256.036 399.822C246.412 368.624 246.977 335.916 247.094 303.621C247.496 296.701 248.206 286.343 257.205 286.043C270.2 285.225 283.023 282.19 296.145 282.778ZM388.525 362.913C395.497 375.006 406.04 383.185 415.673 392.868C433.105 414.259 366.774 435.49 350.988 430.985C335.386 430.608 324.119 418.694 319.17 404.646C307.393 367.048 308.044 327.391 306.208 288.373C290.137 288.3 274.291 290.899 258.375 292.805C256.522 293.033 255.425 294.101 255.181 295.953C251.303 348.075 253.96 409.111 290.776 449.818C333.458 491.261 391.292 449.514 426.353 418.183C439.28 407.155 452.864 425.97 464.648 430.74C470.662 413.165 470.78 395.213 472.724 377.043C473.117 373.978 472.203 373.069 468.599 372.485C441.719 367.771 415.874 365.87 388.525 362.913Z" fill="black"/>
<path d="M564.935 220.424C563.071 224.867 559.762 228.819 557.182 232.907C555.454 235.432 553.634 236.229 551.986 235.353C546.924 232.434 556.46 221.957 558.141 218.162C560.087 214.907 565.325 216.341 564.935 220.424Z" fill="black"/>
<path d="M492.809 219.422C497.253 221.506 499.335 227.369 502.161 231.237C503.383 233.252 502.948 235.117 501.393 236.242C496.676 239.928 491.678 228.005 489.232 224.904C487.697 222.256 489.325 219.519 492.809 219.422Z" fill="black"/>
<path d="M523.677 214.032C523.88 211.331 523.589 208.449 524.662 205.908C525.349 204.422 526.593 203.612 528.295 203.827C531.448 204.158 531.652 207.606 531.396 210.101C530.968 213.797 531.126 217.666 530.007 221.234C528.842 224.952 523.509 224.076 523.618 220.409C523.524 218.287 523.595 216.158 523.595 214.032C523.622 214.032 523.649 214.032 523.677 214.032Z" fill="black"/>
<path d="M637.684 528.19C666.703 530.29 695.302 523.472 723.489 517.493C738.456 513.24 753.749 510.128 766.311 500.113C787.364 559.667 772.974 623.805 774.97 685.309C776.984 724.081 793.416 760.021 803.76 797.023C808.093 812.268 814.675 827.109 816.393 842.956C817.29 853.56 813.191 861.822 803.706 867.018C792.672 873.201 776.268 879.06 767.396 866.358C759.262 855.489 753.452 843.424 748.791 830.83C736.281 796.716 724.673 762.269 713.333 727.749C708.121 705.986 702.299 684.205 692.731 663.875C713.071 631.447 733.184 597.443 739.162 559.04C740.856 554.637 736.001 550.312 733.368 555.757C731.216 564.228 729.751 572.939 727.278 581.331C714.751 624.75 684.125 659.072 663.409 698.377C658.001 709.213 655.399 721.204 656.5 733.272C653.386 778.472 653.487 824.241 642.857 868.524C639.899 881.528 632.607 889.34 618.972 889.899C607.816 890.476 593.508 889.603 590.128 876.769C565.389 758.77 611.608 642.038 637.684 528.19Z" fill="black"/>
<path d="M769.125 470.11C730.8 506.735 676.528 510.602 626.294 508.399C617.367 491.992 617.096 472.54 613.655 454.51C612.369 448.83 608.763 447.72 604.479 451.678C596.624 458.854 589.001 466.291 581.073 473.385C566.839 470.116 548.166 439.595 556.442 426.461C573.659 403.629 592.845 374.822 616.46 359.448C646.398 386.711 692.844 366.111 710.038 333.926C736.904 334.954 749.757 367.856 754.089 390.469C758.429 417.156 763.596 443.641 769.125 470.11Z" fill="white"/>
<path d="M539.646 428.595C537.902 430.92 535.926 433.503 534.006 436.128C522.548 453.253 537.051 474.904 550.226 486.688C523.865 504.331 500.578 493.916 499.743 461.423C499.697 438.834 504.052 416.537 506.545 394.147C506.174 389.275 516.156 352.249 503.53 363.679C496.875 357.326 478.931 350.704 484.651 339.319C486.411 334.763 482.837 331.657 481.197 327.153C488.123 326.379 500.654 334.385 499.718 322.216C499.326 320.071 499.224 318.112 500.095 316.039C505.926 316.436 509.417 324.754 513.087 328.667C520.771 335.324 521.679 321.4 525.013 317.297C531.989 323.176 529.121 343.231 526.752 351.281C520.434 377.115 527.416 405.343 539.646 428.595Z" fill="white"/>
<path d="M611.908 256.559C616.058 273.4 617.878 289.291 620.887 306.15C622.049 312.995 623.743 329.441 634.135 323.789C643.386 316.642 652.837 325.595 662.13 317.568C672.71 307.32 683.462 316.102 694.635 307.738C694.661 315.767 692.308 322.724 692.302 330.15C676.937 342.238 658.012 361.023 636.887 352C616.329 334.316 604.753 306.85 603.7 279.995C603.35 275.266 603.545 270.498 603.437 265.748C603.472 260.517 608.076 259.726 611.908 256.559Z" fill="white"/>
<path d="M510.442 252.468C520.982 249.808 535.002 244.79 541.819 255.643C549.453 270.627 551.736 287.411 555.997 303.575C540.943 303.822 544.214 316.318 552.708 323.737C547.08 328.773 546.729 334.431 551.074 340.74C546.113 343.131 541.017 343.851 535.55 344.584C536.243 336.419 536.82 328.471 534.428 320.553C530.114 306.696 520.808 306.447 515.78 320.304C514.9 319.338 514.124 318.486 513.235 317.51C515.191 314.969 514.364 312.383 513.813 309.818C509.729 290.866 507.871 271.825 510.442 252.468Z" fill="white"/>
<path d="M538.922 928.767C542.839 919.225 552.233 915.574 559.723 909.567C569.631 903.001 579.332 896.085 589.573 890.047C602.798 900.377 621.25 899.424 635.682 892.767C635.964 893.28 636.289 893.596 636.287 893.91C636.248 901.271 636.979 908.657 635.387 915.965C633.573 927.077 622.985 929.532 613.285 929.1C588.519 927.869 563.275 934.462 538.922 928.767Z" fill="white"/>
<path d="M741.772 929.935C759 917.717 781.122 904.798 783.063 881.529C794.402 879.714 804.942 875.771 814.322 868.395C819.72 883.947 831.775 920.342 808.035 925.561C802.605 926.44 797.121 927.076 791.637 927.505C775.067 928.427 758.544 929.922 741.987 930.978C741.915 930.63 741.843 930.282 741.772 929.935Z" fill="white"/>
<path d="M585.432 377.6C584.72 363.076 582.934 348.466 567.377 343.072C562.716 341.001 551.145 336.065 556.853 329.797C564.379 323.785 556.275 317.557 552.254 312.198C553.71 310.165 555.232 310.669 556.61 311.12C580.228 317.183 596.241 336.968 607.71 357.334C600.365 364.016 593.085 370.638 585.432 377.6Z" fill="white"/>
<path d="M770.316 477.773C771.381 503.787 724.834 510.087 705.487 514.483C685.454 517.511 665.472 521.757 645.154 522.114C639 522.281 634.041 519.545 629.962 513.947C679.493 516.429 731.007 510.799 770.316 477.773Z" fill="white"/>
<path d="M548.843 430.637C550.143 449.895 558.811 468.427 576.277 478.154C571.932 481.583 568.848 486.065 563.022 484.746C548.926 480.831 540.906 466.06 537.704 452.662C536.803 448.419 537.339 444.397 539.98 440.855C542.949 437.252 545.017 433.555 548.843 430.637Z" fill="white"/>
<path d="M624.16 357.052C626.587 356.471 628.679 357.295 630.789 357.817C652.835 365.812 668.831 357.437 685.994 343.857C691.659 340.289 695.367 333.623 702.718 333.281C688.353 359.224 649.656 377.662 624.16 357.052Z" fill="white"/>
<path d="M503.779 256.266C500.3 275.281 504.175 291.937 506.424 310.629C505.216 310.185 504.15 309.792 503.06 309.391C501.733 295.373 490.91 265.894 503.779 256.266Z" fill="white"/>
<path d="M690.335 234.008C690.251 235.492 690.392 236.68 690.05 237.707C689.235 239.614 687.379 239.576 686.55 237.653C686.67 226.659 678.09 216.275 666.996 215.237C665.008 215.46 662.819 214.25 663.145 212.305C664.077 207.582 670.96 211.051 673.896 211.964C682.845 215.995 689.545 223.989 690.335 234.008Z" fill="white"/>
<path d="M425.688 132.5C425.707 150.967 417.54 166.405 405.827 180.062C404.887 181.411 404.794 182.896 405.873 184.253C408.96 187.853 413.358 183.269 416.798 182.407C421.783 180.4 426.653 177.854 431.831 176.638C492.334 167.736 468.566 255.978 426.277 261.345C425.535 261.448 424.74 261.716 424.048 261.558C417.932 260.163 411.835 261.455 405.728 261.534C384.16 262.085 362.612 260.859 341.066 260.461C260.966 261.799 180.874 258.901 100.896 254.802C92.8295 253.801 84.2465 252.962 76.9965 248.969C60.1665 240.395 65.2545 217.837 78.0465 207.904C87.7545 199.497 99.7795 194.959 112.046 191.806C120.458 190.217 126.583 186.783 121.704 177.801C119.952 174.057 118.021 170.389 116.438 166.575C105.662 141.427 124.464 114.229 152.246 125.196C160.427 127.889 167.804 132.132 174.686 137.22C180.115 139.953 202.332 164.443 203.287 148.406C202.065 139.016 199.092 129.819 197.796 120.429C190.694 83.5319 233.187 52.5639 265.291 74.1989C283.424 85.3599 290.213 106.166 297.526 124.905C302.156 133.722 308.757 125.705 312.139 120.405C324.275 103.389 338.198 86.5989 359.242 80.8749C394.008 70.2259 426.288 96.8439 425.688 132.5Z" fill="white"/>
<path d="M388.525 362.912C415.865 365.867 441.727 367.771 468.601 372.484C472.205 373.068 473.119 373.977 472.726 377.042C470.78 395.214 470.664 413.162 464.649 430.739C452.945 426.007 439.218 407.137 426.355 418.182C391.328 449.512 333.427 491.268 290.778 449.815C253.951 409.101 251.315 348.085 255.179 295.953C255.426 294.1 256.523 293.032 258.376 292.804C274.292 290.899 290.138 288.299 306.209 288.373C308.044 327.386 307.394 367.052 319.17 404.646C324.127 418.689 335.38 430.609 350.988 430.985C366.736 435.493 433.116 414.264 415.673 392.866C406.036 383.181 395.497 375.008 388.525 362.912Z" fill="black"/>
</svg>
