<svg width="960" height="960" viewBox="0 0 960 960" fill="none" xmlns="http://www.w3.org/2000/svg">
<path d="M648.982 876.995C663.177 881.951 677.253 886.654 691.394 891.666C696.819 893.43 702.873 898.429 698.839 904.466C693.86 913.08 682.834 913.34 674.119 915.116C655.128 916.318 599.042 930.453 598.208 900.584C598.234 895.282 598.643 889.983 598.895 884.684C598.931 883.924 599.025 883.317 598.012 882.98C593.088 881.339 590.222 877.697 588.915 872.861C566.249 787.264 554.335 699.139 528.43 614.431C509.001 688.069 494.969 762.988 474.203 836.26C471.558 845.607 467.409 854.893 460.952 862.295C457.767 864.594 457.667 867.943 457.504 871.332C457.118 896.91 438.51 903.358 416.463 905.813C402.173 907.301 387.895 912.775 373.467 910.498C365.686 908.788 362.823 900.684 368.153 894.726C370.59 892.002 373.711 889.849 376.679 887.649C386.668 880.246 396.727 872.938 406.902 865.49C402.849 859.162 405.403 852.572 406.184 846.046C407.825 832.339 409.604 818.647 411.148 804.929C417.059 722.73 435.924 642.56 450.657 561.758C445.956 560.002 443.494 557.362 443.003 552.243C439.944 519.428 432.394 487.463 424.904 455.447C423.919 451.19 422.166 447.195 417.245 446.66C376.139 441.575 338.487 417.332 315.16 383.34C291.298 348.931 279.133 321.775 275.736 279.719C275.203 271.997 274.321 261.283 282.079 256.79C283.184 256.232 282.83 255.405 282.181 254.572C274.997 243.911 274.746 230.398 275.305 217.966C275.788 210.943 276.964 204.08 280.357 197.885C281.718 195.401 281.378 193.451 280.624 191.058C274.019 169.926 267.526 148.754 260.759 127.676C258.414 119.142 253.038 106.916 264.368 102.639C291.489 90.6198 319.296 80.1978 347.092 69.9118C349.312 69.2238 351.801 69.1588 354.157 69.2258C357.352 69.2608 358.637 72.5108 359.43 75.1968C363.389 86.4338 366.558 98.2078 370.91 109.186C380.961 90.9768 403.974 91.8288 413.684 101.826C424.51 112.599 422.104 132.412 409.965 141.379C402.792 146.788 393.731 146.028 385.206 146.048C389.602 158.321 393.562 169.821 397.633 182.051C399 186.199 398.344 187.313 394.466 189.17C382.978 194.273 372.132 201.113 360.033 204.683C354.888 206.043 351.901 203.045 352.974 197.82C354.607 189.982 357.067 182.141 355.348 174.092C349.244 159.392 316.18 173.321 327.349 192.033C329.774 196.483 332.663 200.679 335.244 205.048C337.492 208.039 337.002 210.858 335.642 214.238C349.517 223.68 338.034 249.517 325.944 256.399C339.675 257.531 335.709 269.884 337.308 279.678C339.903 309.852 351.346 333.645 376.86 350.88C395.099 364.304 418.508 361.574 439.892 361.534C447.396 361.181 454.821 358.882 462.283 357.785C463.06 357.746 464.176 357.646 464.575 358.087C466.154 359.828 468.223 359.307 470.162 359.675C470.921 358.205 470.83 357.178 469.477 355.901C463.844 350.582 460.973 343.708 459.172 336.345C452.146 305.004 460.672 272.569 472.153 243.367C474.048 238.538 475.947 233.71 477.863 228.889C478.976 226.279 475.298 224.692 474.193 222.621C472.438 220.497 472.058 217.868 471.646 215.278C468.227 199.423 485.928 187.789 498.647 196.874C500.543 198.331 502.112 198.738 504.629 197.332C514.32 191.787 524.34 196.829 527.742 207.151C537.379 204.116 548.976 209.413 551.665 219.366C552.016 220.625 552.537 221.122 553.891 221.079C561.08 220.85 571.375 228.01 572.282 236.483C572.332 236.947 573.014 237.602 573.51 237.721C582.032 239.765 587.201 246.909 586.543 255.722C586.488 256.463 586.725 257.45 587.206 257.974C596.861 268.597 590.521 275.476 586.305 286.306C581.755 301.165 567.815 295.731 569.156 300.248C570.046 304.733 567.791 308.313 565.479 311.542C562.895 314.799 558.486 318.036 554.095 317.922C550.808 316.928 548.194 318.034 545.899 320.361C540.305 326.393 533.848 331.74 528.782 338.199C528.897 338.336 529.012 338.472 529.127 338.609C592.534 323.107 616.782 274.691 635.863 217.711C637.345 213.891 639.367 210.4 642.711 207.849C634.913 198.948 632.089 189.145 636.593 177.799C630.486 176.433 624.186 175.023 617.829 173.601C620.426 180.281 620.013 186.289 615.894 192.235C607.98 205.126 590.816 213.927 576.811 205.003C573.664 203.119 571.992 200.236 571.504 196.632C570.026 183.697 578.52 172.534 586.222 163.039C536.886 160.807 548.107 167.925 561.948 123.827C563.162 120.45 565.166 119.205 568.597 120.357C572.309 121.603 575.831 123.411 579.454 124.929C588.577 128.226 601.403 129.522 608.092 121.184C625.704 99.6508 602.014 81.7848 579.804 90.0888C573.801 91.2098 574.016 84.3098 575.701 80.4648C580.033 68.6288 584.719 56.9188 588.745 44.9718C590.013 41.2288 591.717 39.8328 595.515 40.8018C602.025 42.4618 608.525 44.2638 614.855 46.5018C635.289 53.5618 655.34 61.7468 675.969 68.2178C688.897 71.6768 683.278 85.7378 681.238 95.0318C678.875 105.036 675.776 114.887 673.59 124.914C692.94 125.613 691.363 182.35 692.215 197.007C698.452 198.426 701.968 203.386 702.059 209.543C707.959 288.965 664.298 375.679 584.708 399.434C581.523 401.064 576.048 402.537 577.561 407.175C579.179 413.295 580.529 419.498 582.418 425.532C591.544 452.935 598.602 480.936 604.191 509.266C606.596 519.814 605.011 530.58 601.125 540.507C609.233 582.764 613.463 625.727 621.061 668.109C626.101 705.107 635.208 741.326 642.889 777.829C646.426 803.458 666.394 856.778 648.982 876.995ZM282.088 274.612C285.679 349.909 339.894 429.908 418.506 439.821C426.858 440.526 430.531 447.723 432.12 455.032C438.656 484.161 446.278 513.125 449.078 542.925C462.843 542.906 476.461 543.907 490.092 541.684C525.896 535.208 563.265 533.238 596.783 517.958C597.773 517.48 598.189 517.111 597.973 515.987C593.173 488.628 586.644 461.602 578.025 435.17C575.036 426.143 572.729 416.88 570.366 407.66C569.224 403.206 570.764 399.342 574.648 396.777C583.424 391.211 593.623 388.441 602.966 384.01C666.148 356.37 696.727 282.108 695.544 216.317C677.078 217.978 659.616 223.763 641.46 226.868C640.2 227.032 639.613 227.318 639.163 228.521C635.387 238.618 631.482 248.668 627.717 258.769C613.409 299.281 579.136 328.984 540.13 343.966C536.327 370.222 532.795 400.581 510.325 417.977C483.137 436.37 462.152 385.829 451.605 367.501C450.971 366.274 450.34 366.088 449.101 366.283C445.838 366.797 442.553 367.481 439.271 367.514C416.436 367.361 391.933 370.097 372.583 355.508C341.699 334.101 332.274 307.324 330.114 270.988C314.29 274.039 298.26 273.168 282.088 274.612ZM455.634 562.442C447.132 620.238 431.53 676.866 424.431 734.949C419.51 776.527 414.982 818.314 410.503 859.87C410.828 862.952 412.249 861.759 414.316 863.294C416.139 864.958 418.608 865.54 420.989 865.511C429.469 865.09 437.946 864.589 446.416 864.002C450.856 863.694 454.336 861.452 456.819 857.85C465.536 846.353 469.58 832.408 473.021 818.613C483.053 781.431 491.484 743.88 499.527 706.233C507.875 671.583 516.663 637.038 525.257 602.447C525.692 599.55 528.733 599.895 530.258 601.753C559.237 689.361 570.499 781.738 594.481 870.815C595.501 874.817 598.064 877.258 602.281 877.613C614.406 878.897 626.577 876.968 638.432 874.441C645.988 872.717 647.845 870.783 649.088 863.119C650.258 852.789 649.601 842.419 647.634 832.277C639.415 787.67 627.665 743.809 619.705 699.159C610.838 648.051 604.344 596.553 595.803 545.408C592.448 547.803 588.948 549.199 585.209 549.835C575.429 551.5 565.666 553.359 555.825 554.554C522.501 557.449 489.164 564.896 455.634 562.442ZM359.547 198.851C370.618 194.295 381.129 188.644 391.995 183.616C392.341 183.449 392.673 182.575 392.539 182.197C390.623 176.762 388.683 171.334 386.632 165.948C384.42 160.139 382.041 154.394 379.822 148.588C378.609 145.413 379.882 142.807 383.075 141.628C388.302 140.346 393.903 141.321 399.221 140.429C423.353 135.848 418.407 94.8658 390.737 100.267C381.416 101.595 376.662 109.099 373.735 117.402C372.022 120.176 368.437 119.952 367.007 117.04C362.244 103.733 358.192 90.1478 353.681 76.7448C352.939 73.4988 351.426 73.8998 348.605 74.6508C326.89 82.6888 305.394 91.3138 283.837 99.7628C277.903 102.118 272.138 104.898 266.286 107.46C262.316 108.966 263.175 113.45 263.989 116.722C274.681 151.208 285.023 185.833 296.307 220.122C298.67 225.194 323.257 212.257 328.625 211.08C330.558 210.33 330.541 210.23 329.392 208.39C326.794 204.23 324.038 200.16 321.619 195.898C304.351 167.689 358.159 147.198 362.641 175.577C363.109 183.59 361.387 190.899 359.547 198.851ZM579.864 84.1448C587.352 83.0428 594.739 81.5798 602.139 84.3618C623.702 90.1648 624.678 120.076 605.527 129.878C593.687 135.731 580.759 132.012 569.722 126.129C566.734 124.815 566.634 124.898 565.5 127.922C562.092 137.211 558.441 146.336 555.188 155.688C564.104 157.162 572.946 156.691 581.914 157.107C586.236 157.369 597.323 156.409 593.283 163.748C585.857 172.559 577.059 182.299 576.998 194.503C577.09 197.698 578.499 199.855 581.434 201.176C585.616 203.058 589.92 203.486 594.299 202.281C604.796 199.195 619.511 185.54 611.033 174.28C609.79 172.612 610.145 170.978 611.722 169.567C616.335 165.375 622.343 169.302 627.52 170.123C634.708 171.451 653.979 177.01 655.796 166.578C658.61 156.588 661.461 146.608 664.215 136.601C669.046 118.131 674.9 99.8768 678.549 81.1248C679.376 76.4678 678.236 74.7878 673.781 73.3048C646.966 65.3708 621.408 53.1968 594.355 46.1638C589.491 58.9138 584.723 71.4108 579.864 84.1448ZM555.78 286.431C551.521 282.219 557.307 283.729 553.478 276.025C541.682 245.297 537.967 240.701 507.148 228.216C491.771 222.432 484.298 217.413 478.522 236.868C464.561 262.58 441.637 364.442 493.239 358.162C500.653 356.695 506.896 352.93 512.28 347.878C523.251 337.002 535.963 326.585 544.927 314.056C543.971 311.946 543.017 310.278 542.511 308.484C542.531 306.478 544.337 305.472 546.157 306.836C549.44 310.797 554.201 312.979 559.192 310.814C569.303 307.059 566.229 293.334 557.397 289.175C554.848 289.217 553.604 288.856 555.78 286.431ZM603.796 884.673C603.796 889.891 603.478 895.428 603.887 900.91C604.633 914.415 627.527 912.956 637.338 912.903C648.052 911.369 687.848 909.787 692.74 902.368C695.912 899.292 690.277 898.11 688.17 897.071C682.757 895.115 677.328 893.201 671.892 891.307C662.485 887.612 652.203 885.332 643.235 880.848C642.457 879.887 641.72 880.042 640.702 880.241C628.454 883.17 616.505 883.924 603.796 884.673ZM451.57 869.156C442.957 870.99 434.178 871.049 425.431 871.759C421.105 871.98 416.695 871.739 412.686 869.835C411.054 869.06 410.027 869.384 408.733 870.34C399.146 877.424 389.505 884.435 379.92 891.522C376.949 894.474 369.463 897.312 371.396 902.337C374.654 910.48 408.166 900.378 416.602 900.13C436.929 897.558 452.262 893.217 451.57 869.156ZM661.357 166.837C661.553 166.833 661.749 166.83 661.944 166.826C664.647 169.569 664.486 173.378 664.339 176.935C663.469 187.294 650.944 188.867 644.421 182.374C641.91 180.433 641.359 180.631 640.476 183.713C638.655 191.752 641.133 198.731 646.76 204.505C647.106 204.863 647.983 204.955 648.534 204.829C661.431 202.065 674.023 198.127 687.215 196.907C685.491 175.424 688.043 149.154 675.529 130.693C675.318 130.776 675.107 130.859 674.896 130.942C673.662 135.563 675.145 140.259 675.475 144.918C676.123 150.523 676.855 156.12 677.395 161.735C677.602 165.781 672.669 166.287 671.95 162.233C671.316 155.266 670.371 148.357 668.887 141.514C668.706 141.503 668.525 141.492 668.344 141.482C666.015 149.934 663.686 158.386 661.357 166.837ZM474.955 360.161C474.092 363.961 472.497 367.53 470.977 371.091C470.431 381.144 488.196 396.098 495.287 402.933C502.106 406.149 516.707 377.215 519.443 371.409C518.666 371.595 518.104 371.73 517.471 371.882C517.352 362.965 519.824 354.469 521.554 345.864C521.377 345.828 521.199 345.791 521.021 345.755C508.714 358.105 492.873 368.519 474.955 360.161ZM294.472 227.481C294.71 229.544 295.829 231.594 296.416 233.597C297.567 237.362 292.386 239.471 290.75 235.827C287.456 229.131 287.516 224.369 288.777 217.239C287.475 212.461 285.968 207.739 284.534 202.997C284.352 202.996 284.17 202.996 283.988 202.995C279.891 219.548 280.551 235.943 286.622 251.945C286.755 253.806 288.784 255.841 290.622 255.843C300.21 255.856 310.242 255.867 319.762 255.868C320.54 254.793 320.996 253.552 321.875 253.046C332.162 246.869 341.464 230.226 333.506 219.307C330.902 222.103 329.454 224.722 327.205 227.639C322.844 234.154 310.136 240.967 305.614 231.223C304.913 229.699 304.152 228.203 303.492 226.845C300.497 227.056 297.514 227.266 294.472 227.481ZM449.98 548.932C450.309 554.745 450.296 554.369 454.685 554.908C460.213 555.587 465.848 556.189 471.381 555.869C500.559 553.859 529.642 550.351 558.691 546.98C567.506 545.89 576.247 544.158 584.992 542.56C593.968 541.403 597.872 532.466 597.958 524.191C586.141 529.35 573.985 533.22 561.357 535.749C524.672 542.989 487.565 550.823 449.98 548.932ZM456.162 364.952C466.628 381.404 473.903 401.418 490.059 413.309C496.477 417.873 501.728 417.653 507.861 412.814C527.95 396.239 530.748 368.624 534.762 344.5C533.558 344.83 532.773 345.045 532.125 345.223C532.003 368.544 518.939 390.493 503.635 407.301C495.36 415.096 487.954 404.186 482.018 398.853C471.665 389.119 464.556 377.53 460.64 363.837C459.116 364.217 457.683 364.573 456.162 364.952ZM694.925 210.984C695.181 205.948 693.632 204.123 688.962 204.27C675.452 204.693 662.519 208.167 649.717 212.122C645.268 213.496 643.577 217.521 642.197 221.784C659.594 217.07 677.041 212.819 694.925 210.984ZM329.862 266.222C330.292 263.635 327.512 262.959 325.312 262.828C312.661 262.659 300.01 262.449 287.359 262.405C283.943 262.393 282.072 265.191 282.74 268.746C298.451 268.187 314.134 266.362 329.862 266.222ZM309.279 225.097C310.864 227.242 311.299 231.201 314.68 229.739C320.356 228.193 323.089 223.262 326.311 218.585C320.446 220.827 314.922 222.939 309.279 225.097ZM648.654 178.033C653.642 183.084 659.893 180.448 658.509 173.68C655.943 176.685 652.523 177.58 648.654 178.033ZM523.081 360.877C523.264 360.92 523.447 360.963 523.63 361.005C524.186 358.123 524.742 355.24 525.298 352.358C525.156 352.329 525.014 352.3 524.871 352.271C524.275 355.14 523.677 358.009 523.081 360.877ZM469.522 364.271C468.627 364.271 468.03 364.271 467.186 364.271C467.586 365.42 467.929 366.405 468.271 367.39C468.405 367.372 468.539 367.354 468.672 367.337C468.937 366.381 469.202 365.425 469.522 364.271Z" fill="black"/>
<path d="M282.089 274.613C298.262 273.17 314.291 274.04 330.114 270.991C332.277 307.297 341.694 334.118 372.584 355.511C391.944 370.097 416.43 367.364 439.272 367.516C442.554 367.484 445.838 366.8 449.102 366.286C450.341 366.091 450.972 366.278 451.607 367.503C462.158 385.869 483.143 436.347 510.326 417.981C532.8 400.58 536.325 370.227 540.133 343.971C579.13 328.99 613.42 299.279 627.718 258.771C631.484 248.671 635.388 238.621 639.165 228.524C639.615 227.321 640.202 227.034 641.462 226.87C659.617 223.767 677.08 217.981 695.546 216.32C696.739 282.09 666.142 356.387 602.969 384.013C593.625 388.442 583.425 391.214 574.649 396.779C570.766 399.343 569.226 403.208 570.368 407.662C572.731 416.883 575.038 426.145 578.027 435.172C586.646 461.604 593.174 488.63 597.975 515.989C598.191 517.113 597.775 517.482 596.785 517.959C563.266 533.242 525.899 535.207 490.094 541.687C476.463 543.907 462.847 542.906 449.08 542.926C446.28 513.125 438.659 484.162 432.122 455.033C430.52 447.715 426.871 440.536 418.508 439.823C339.888 429.9 285.687 349.925 282.089 274.613Z" fill="white"/>
<path d="M455.635 562.443C489.164 564.897 522.503 557.45 555.827 554.558C565.668 553.361 575.431 551.502 585.211 549.837C588.949 549.201 592.45 547.805 595.805 545.41C604.346 596.556 610.84 648.054 619.707 699.161C627.667 743.812 639.417 787.672 647.635 832.279C649.603 842.421 650.259 852.791 649.09 863.12C647.847 870.783 645.99 872.717 638.434 874.441C626.582 876.97 614.407 878.895 602.283 877.613C598.066 877.258 595.503 874.817 594.481 870.815C570.501 781.738 559.238 689.361 530.262 601.752C528.729 600.053 525.699 599.394 525.259 602.447C516.665 637.038 507.877 671.582 499.53 706.233C491.486 743.882 483.056 781.428 473.022 818.612C469.582 832.406 465.536 846.355 456.821 857.849C454.338 861.451 450.858 863.693 446.418 864.001C437.948 864.588 429.471 865.089 420.991 865.51C418.62 865.528 416.137 864.961 414.318 863.293C413.901 863.016 413.473 862.527 413.05 862.526C411.216 862.524 410.588 861.22 410.507 859.868C414.985 818.311 419.512 776.526 424.431 734.946C431.53 676.867 447.132 620.24 455.635 562.443Z" fill="black"/>
<path d="M359.547 198.85C361.387 190.901 363.11 183.589 362.641 175.576C358.149 147.184 304.348 167.711 321.622 195.897C324.039 200.159 326.796 204.229 329.394 208.389C330.543 210.228 330.56 210.329 328.627 211.078C322.984 212.376 298.884 225.103 296.309 220.122C285.024 185.831 274.683 151.207 263.99 116.721C263.184 113.452 262.309 108.961 266.288 107.459C272.14 104.897 277.905 102.117 283.839 99.7622C305.396 91.3132 326.893 82.6892 348.607 74.6502C351.425 73.9712 352.942 73.4492 353.683 76.7452C358.194 90.1482 362.246 103.733 367.009 117.04C368.439 119.952 372.024 120.175 373.737 117.401C376.655 109.108 381.427 101.584 390.74 100.266C418.427 94.8722 423.341 135.859 399.223 140.429C393.905 141.319 388.303 140.345 383.077 141.626C379.884 142.806 378.61 145.412 379.824 148.587C382.043 154.393 384.421 160.138 386.634 165.947C387.259 168.724 393.944 182.734 391.997 183.615C381.129 188.643 370.619 194.293 359.547 198.85Z" fill="black"/>
<path d="M579.865 84.1431C584.724 71.4091 589.493 58.9121 594.357 46.1641C621.411 53.1971 646.966 65.3711 673.782 73.3051C678.237 74.7881 679.377 76.4681 678.549 81.1251C674.901 99.8781 669.047 118.132 664.216 136.601C661.462 146.608 658.611 156.587 655.797 166.577C654.025 177.01 634.647 171.442 627.521 170.123C622.346 169.306 616.335 165.37 611.724 169.566C610.147 170.976 609.792 172.611 611.034 174.278C619.5 185.574 604.821 199.154 594.3 202.279C589.92 203.483 585.618 203.055 581.435 201.173C578.5 199.852 577.091 197.695 577 194.5C577.061 182.294 585.86 172.556 593.284 163.744C597.308 156.409 586.261 157.357 581.914 157.103C572.945 156.686 564.106 157.158 555.188 155.683C558.44 146.332 562.093 137.206 565.5 127.917C566.635 124.893 566.733 124.81 569.721 126.124C580.758 132.006 593.685 135.726 605.527 129.873C624.665 120.073 623.713 90.1561 602.138 84.3571C594.737 81.5811 587.354 83.0391 579.865 84.1431Z" fill="white"/>
<path d="M555.78 286.43C553.577 288.892 554.889 289.205 557.395 289.173C566.225 293.332 569.303 307.059 559.189 310.813C554.2 312.975 549.437 310.799 546.155 306.834C544.346 305.461 542.512 306.497 542.508 308.482C543.015 310.276 543.968 311.944 544.925 314.053C535.958 326.584 523.252 336.994 512.279 347.876C506.895 352.927 500.652 356.693 493.237 358.159C441.649 364.429 464.541 262.643 478.521 236.867C484.286 217.486 491.677 222.37 507.148 228.214C537.996 240.724 541.668 245.28 553.476 276.025C557.308 283.724 551.52 282.216 555.78 286.43ZM493.92 259.533C487.299 273.746 480.117 287.375 474.559 302.036C473.753 303.972 474.568 305.466 476.469 305.7C478.194 305.912 479.243 305.078 479.909 303.522C482.936 296.449 485.819 289.306 489.096 282.35C492.603 274.906 495.18 266.981 500.239 260.304C501.366 258.816 500.879 256.664 499.205 255.871C493.645 253.832 486.683 248.633 480.82 249.355C474.151 251.516 492.049 257.973 493.92 259.533ZM528.567 272.977C532.474 271.38 529.695 268.397 526.983 267.381C523.453 266.389 510.169 258.728 508.01 261.916C507.516 263.606 509.341 264.918 510.774 265.482C516.804 268.023 522.183 271.24 528.567 272.977ZM480.22 329.851C480.073 337.935 495.743 336.071 498.632 330.672C499.982 329.096 499.454 326.463 497.057 327.126C490.854 331.465 487.517 332.031 480.22 329.851ZM514.965 273.411C515.355 270.871 512.442 268.795 510.265 270.005C505.501 272.696 507.08 282.297 512.831 278.372C514.218 277.061 514.941 275.425 514.965 273.411ZM479.573 264.047C479.612 266.599 481.458 269.409 484.271 267.977C488.175 266.143 488.472 257.329 482.87 258.708C481.406 259.372 479.581 262.396 479.573 264.047ZM558.814 299.673C558.897 298.035 557.304 294.501 555.026 295.574C554.775 295.808 554.81 296.646 555.032 297.04C557.693 301.216 554.354 301.381 553.442 304.994C556.684 306.276 558.748 303.341 558.814 299.673ZM487.528 341.569C487.588 341.662 487.648 341.755 487.708 341.847C489.107 341.167 490.543 340.551 491.877 339.76C493.883 336.441 487.724 338.321 486.173 338.415C483.592 339.244 485.526 341.738 487.528 341.569Z" fill="white"/>
<path d="M603.797 884.674C616.505 883.924 628.456 883.17 640.704 880.242C655.869 885.781 672.476 891.494 688.172 897.072C690.31 898.113 695.885 899.291 692.742 902.368C690.701 904.78 687.992 906.133 684.969 906.706C661.246 910.313 636.547 916.182 612.715 910.756C600.443 908.337 604.24 893.604 603.797 884.674Z" fill="white"/>
<path d="M451.571 869.156C452.241 893.244 436.953 897.542 416.604 900.128C408.107 900.386 374.71 910.476 371.398 902.339C369.47 897.268 376.963 894.487 379.921 891.522C389.506 884.435 399.148 877.425 408.735 870.341C410.029 869.385 411.056 869.06 412.688 869.836C416.696 871.74 421.107 871.981 425.433 871.759C434.18 871.049 442.955 870.991 451.571 869.156Z" fill="white"/>
<path d="M661.358 166.836C663.687 158.384 666.016 149.932 668.345 141.481C668.526 141.492 668.707 141.503 668.888 141.513C670.372 148.355 671.317 155.265 671.95 162.232C672.669 166.277 677.604 165.787 677.396 161.733C676.856 156.118 676.125 150.521 675.476 144.916C675.146 140.256 673.663 135.562 674.896 130.94C675.107 130.857 675.318 130.774 675.529 130.691C688.043 149.151 685.491 175.418 687.215 196.905C674.024 198.125 661.431 202.063 648.534 204.827C647.983 204.953 647.106 204.861 646.76 204.503C641.134 198.73 638.655 191.75 640.476 183.711C641.359 180.629 641.91 180.431 644.42 182.373C657.172 193.446 670.442 179.521 661.943 166.824C661.749 166.829 661.554 166.833 661.358 166.836Z" fill="white"/>
<path d="M474.956 360.16C492.874 368.518 508.715 358.103 521.023 345.754C521.201 345.79 521.378 345.827 521.556 345.863C519.826 354.468 517.353 362.964 517.473 371.881C518.106 371.729 518.668 371.595 519.445 371.408C516.742 377.17 502.108 406.138 495.29 402.933C488.211 396.113 470.436 381.148 470.977 371.09C472.498 367.528 474.094 363.962 474.956 360.16Z" fill="white"/>
<path d="M294.473 227.482C297.515 227.267 300.498 227.057 303.493 226.846C304.153 228.204 304.914 229.7 305.615 231.224C310.141 240.968 322.841 234.156 327.206 227.64C329.457 224.72 330.899 222.108 333.508 219.308C341.463 230.226 332.169 246.864 321.877 253.047C320.998 253.553 320.542 254.794 319.764 255.869C310.24 255.868 300.216 255.857 290.624 255.844C288.785 255.841 286.757 253.807 286.623 251.946C280.554 235.947 279.891 219.546 283.99 202.996C284.172 202.997 284.354 202.997 284.536 202.998C285.97 207.74 287.477 212.462 288.778 217.24C287.518 224.371 287.459 229.138 290.753 235.828C292.387 239.468 297.57 237.366 296.418 233.598C295.83 231.596 294.71 229.545 294.473 227.482Z" fill="white"/>
<path d="M449.98 548.932C487.565 550.823 524.671 542.989 561.358 535.75C573.985 533.221 586.141 529.351 597.958 524.191C597.86 532.466 593.984 541.401 584.992 542.559C576.247 544.157 567.506 545.89 558.691 546.979C529.642 550.35 500.559 553.859 471.381 555.869C465.847 556.188 460.213 555.586 454.685 554.907C450.296 554.369 450.31 554.745 449.98 548.932Z" fill="white"/>
<path d="M456.162 364.952C457.684 364.573 459.117 364.217 460.64 363.838C464.558 377.531 471.663 389.12 482.018 398.854C487.949 404.187 495.363 415.099 503.634 407.3C518.941 390.493 532 368.546 532.125 345.223C532.773 345.045 533.558 344.83 534.762 344.5C530.753 368.616 527.947 396.245 507.861 412.814C501.727 417.653 496.477 417.873 490.059 413.308C473.901 401.419 466.63 381.403 456.162 364.952Z" fill="white"/>
<path d="M694.925 210.984C677.041 212.819 659.594 217.069 642.197 221.784C643.577 217.521 645.268 213.496 649.717 212.122C662.519 208.168 675.452 204.694 688.962 204.27C693.633 204.124 695.182 205.949 694.925 210.984Z" fill="white"/>
<path d="M329.863 266.223C314.135 266.363 298.452 268.189 282.741 268.747C282.073 265.191 283.944 262.394 287.36 262.406C300.011 262.45 312.662 262.661 325.313 262.829C327.505 262.96 330.299 263.635 329.863 266.223Z" fill="white"/>
<path d="M523.081 360.878C523.678 358.01 524.275 355.141 524.872 352.273C525.014 352.302 525.156 352.331 525.299 352.36C524.743 355.242 524.187 358.125 523.631 361.007C523.447 360.964 523.264 360.921 523.081 360.878Z" fill="white"/>
<path d="M469.522 364.27C469.202 365.424 468.937 366.38 468.673 367.336C468.539 367.354 468.405 367.372 468.272 367.389C467.929 366.404 467.586 365.419 467.188 364.27C468.03 364.27 468.627 364.27 469.522 364.27Z" fill="white"/>
<path d="M493.921 259.533C492.072 257.993 474.113 251.476 480.821 249.356C486.735 248.643 493.614 253.827 499.206 255.871C500.879 256.665 501.367 258.816 500.239 260.304C495.18 266.981 492.603 274.905 489.096 282.35C485.819 289.306 482.935 296.449 479.909 303.522C479.243 305.078 478.194 305.912 476.469 305.7C474.568 305.466 473.754 303.973 474.559 302.036C480.119 287.372 487.299 273.748 493.921 259.533Z" fill="black"/>
<path d="M528.568 272.979C522.187 271.243 516.802 268.023 510.775 265.484C509.345 264.921 507.512 263.605 508.011 261.919C510.101 258.72 523.495 266.398 526.984 267.383C529.682 268.393 532.485 271.385 528.568 272.979Z" fill="black"/>
<path d="M480.221 329.85C487.531 332.032 490.853 331.46 497.058 327.124C499.445 326.463 499.991 329.093 498.633 330.671C495.747 336.07 480.075 337.936 480.221 329.85Z" fill="black"/>
<path d="M514.966 273.41C515.437 277.472 509.705 282.24 507.693 277.002C505.472 271.328 514.293 265.713 514.966 273.41Z" fill="black"/>
<path d="M479.573 264.048C479.794 260.5 484.192 255.823 486.841 260.495C489.293 266.303 480.397 272.818 479.573 264.048Z" fill="black"/>
<path d="M558.814 299.672C558.748 303.341 556.684 306.275 553.441 304.993C554.354 301.38 557.692 301.215 555.031 297.039C554.809 296.646 554.775 295.807 555.026 295.574C557.306 294.502 558.894 298.033 558.814 299.672Z" fill="black"/>
<path d="M487.528 341.569C485.529 341.738 483.591 339.244 486.172 338.416C487.719 338.321 493.884 336.443 491.876 339.761C490.543 340.552 489.106 341.168 487.707 341.848C487.648 341.754 487.588 341.662 487.528 341.569Z" fill="black"/>
</svg>
