<svg width="960" height="960" viewBox="0 0 960 960" fill="none" xmlns="http://www.w3.org/2000/svg">
<path d="M40.5 633.602C44.602 553.58 79.243 453.14 156.181 417.688C156.382 414.203 157.315 411.787 160.911 410.835C162.628 407.343 163.552 406.889 166.829 408.555C167.663 395.195 165.274 382.345 163.27 369.242C158.895 361.064 151.768 354.223 146.372 346.604C141.329 338.615 138.878 340.802 131.479 339.06C124.228 334.285 119.326 329.467 118.134 320.453C117.24 318.033 120.63 313.156 117.026 312.478C101.033 309.746 100.762 298.743 96.585 286.006C92.084 276.019 93.925 266.101 102.6 259.391C103.263 258.878 103.665 257.687 103.721 256.782C106.141 233.372 122.355 241.034 125.761 231.97C129.162 223.477 140.484 217.263 150.065 218.262C151.725 218.435 152.464 218.049 153.144 216.489C158.263 204.684 173.424 199.251 185.118 204.83C192.45 189.076 208.081 189.335 217.18 197.04C218.45 198.028 219.321 198.228 220.776 197.576C249.488 182.111 268.596 218.895 244.468 237.707C255.614 287.805 274.519 352.823 239.233 397.493C241.704 399.659 243.198 403.177 246.792 403.212C263.254 406.933 276.912 417.476 291.132 426C372.085 479.101 403.436 436.82 428.583 358.812C432.747 349.253 438.9 348.984 445.581 356.73C446.854 342.714 476.747 283.792 477.369 327.916C480.044 321.621 494.03 300.409 497.516 315.759C497.282 326.822 492.87 336.921 489.439 347.227C499.585 336.599 516.05 330.272 529.144 339.518C534.813 333.604 544.603 339.018 544.183 333.813C543.362 317.44 550.052 307.201 565.941 318.149C565.585 309.021 561.497 298.335 571.177 292.803C592.997 281.786 619.27 284.808 642.946 280.388C667.792 277.499 686.801 271.114 687.61 304.463C695.211 500.149 763.057 468.438 590.795 475.123C551.989 478.321 567.372 416.88 563.639 392.762C562.576 387.962 566.333 362.488 562.215 362.626C559.347 362.842 554.66 360.686 553.012 363.708C549.495 369.543 543.635 373.274 536.748 373.458C546.249 398.31 517.931 420.41 494.657 417.464C497.498 421.277 502.747 423.351 500.017 428.406C471.071 491.504 421.481 570.564 341.898 530.496C364.213 856.078 464.147 746.209 188.944 762.501C198.243 779.324 202.56 808.516 176.326 785.771C183.299 819.792 162.043 807.613 149.96 788.691C150.177 797.312 147.172 807.852 136.868 801.509C126.163 793.815 124.697 779.206 122.744 767.113C115.175 771.439 108.262 773.842 101.69 766.613C65.844 731.881 40.634 684.2 40.5 633.602ZM423.299 396.289C380.255 495.275 321.871 454.192 252.265 413.476C260.797 425.183 283.44 484.521 252.418 477.571C245.95 475.493 239.061 471.843 232.162 473.975C224.273 477.981 217.883 484.551 210.989 490.021C185.066 510.481 157.464 442.542 156.82 422.911C55.674 486.224 7.86301 651.509 92.703 745.846C113.4 729.947 133.911 714.192 154.372 698.475C138.304 661.195 104.738 579.571 126.331 543.589C129.788 543.629 129.677 548.237 129.47 550.794C125.585 585.41 131.116 620.068 143.848 652.337C153.541 675.598 162.68 700.698 172.716 723.019C180.179 726.897 205.716 730.637 198.608 742.918C194.977 748.01 188.951 750.241 185.891 755.873C460.733 736.525 351.773 848.934 334.72 529.272C334.349 524.449 318.696 521.936 314.26 519.054C304.391 516.534 306.538 508.522 313.431 510.656C326.188 515.06 338.75 519.983 351.634 524.003C407.722 557.592 456.902 495.411 479.804 450.009C459.567 433.826 439.632 417.134 423.299 396.289ZM572.333 367.707C574.387 487.783 558.983 464.516 639.165 465.378C655.98 465.528 672.803 465.264 689.616 464.88C697.895 464.691 699.553 462.516 698.315 454.379C688.575 400.651 683.227 346.331 677.483 292.173C676.27 287.018 673.586 285.19 668.334 285.492C642.392 287.341 616.577 290.775 590.73 293.625C585.264 294.27 579.959 295.726 575.183 298.678C567.595 303.52 572.031 314.411 570.926 321.953C571.724 324.349 574.391 325.971 575.85 327.919C580.313 325.337 587.442 314.754 592.58 318.991C596.721 324.378 583.266 329.779 580 333.164C589.918 345.063 595.296 369.805 572.333 367.707ZM146.977 336.148C162.769 360.107 195.474 417.195 229.73 397.528C269.552 361.342 252.051 285.941 240.024 240.077C237.765 228.899 224.528 229.352 216.045 232.243C168.376 245.694 164.615 244.967 140.952 289.516C136.953 295.263 143.364 296.332 137.436 299.979C138.43 301.012 138.274 301.889 138.617 303.111C112.601 305.206 122.849 345.415 146.109 327.482C148.248 324.903 152.49 327.644 150.762 330.475C149.717 332.415 148.323 334.168 146.977 336.148ZM491.067 319.443C490.889 319.369 490.711 319.294 490.533 319.22C484.471 326.973 480.692 336.255 476.519 345.115C475.657 346.899 474.746 348.755 473.431 350.187C471.517 352.089 467.356 351.729 467.763 348.214C469.07 338.269 472.339 328.593 471.346 318.434C471.078 318.315 470.809 318.196 470.541 318.077C459.879 330.185 453.715 345.571 450.263 361.219C461.365 378.608 476.557 394.394 489.22 411.062C489.249 410.826 489.277 410.591 489.306 410.355C493.36 409.406 497.458 409.903 501.532 409.901C515.713 409.185 537.866 393.246 530.028 377.648C526.066 380.833 524.737 386.076 521.718 390.031C513.763 401.579 500.195 398.966 493.332 393.09C472.642 374.456 509.743 353.547 522.88 343.602C504.986 334.911 493.328 355.075 482.693 365.651C466.546 370.715 492.728 327.273 491.067 319.443ZM187.802 785.052C187.964 784.955 188.126 784.858 188.287 784.761C183.643 763.994 166.769 754.927 191.216 739.145C185.925 735.93 179.968 734.429 174.269 732.115C167.255 728.763 166.177 729.69 161.479 735.447C151.66 744.947 141.978 754.602 130.613 762.338C130.029 762.735 129.61 763.821 129.621 764.578C130.382 775.961 131.845 790.229 142.416 796.81C142.711 790.384 141.869 785.174 142.3 779.099C143.93 772.104 150.745 775.805 153.32 780.197C158.865 786.938 163.01 794.035 169.911 799.695C169.87 791.56 166.937 783.74 166.2 775.656C169.427 761.995 182.608 782.019 187.802 785.052ZM483.35 444.105C486.654 437.921 489.816 432.002 493.031 425.986C473.931 404.031 455.42 381.696 437.275 358.923C431.775 369.266 429.802 380.076 425.866 389.398C434.834 396.118 440.278 405.526 448.476 412.926C459.838 423.653 471.544 433.825 483.35 444.105ZM171.232 422.754C186.862 439.764 206.476 452.359 225.059 465.889C231.643 471.175 235.058 465.161 236.956 459.234C241.156 442.539 241.775 424.231 231.597 409.45C218.959 432.435 192.352 435.607 171.232 422.754ZM157.613 705.904C136.407 719.98 117.227 735.99 96.962 751.512C102.155 754.789 107.205 765.576 113.702 763.069C127.283 756.89 138.486 747.089 149.086 736.847C164.14 721.155 166.228 727.444 157.613 705.904ZM164.187 423.71C167.898 446.858 178.233 473.543 198.385 486.888C206.356 491.007 215.986 475.835 222.804 471.994C202.605 456.872 180.214 443.749 164.187 423.71ZM528.742 356.496C528.831 356.513 528.921 356.53 529.01 356.547C527.895 366.373 539.086 370.795 545.279 364.325C550.44 357.184 554.849 352.474 564.22 356.002C569.838 358.067 581.051 366.217 581.858 355.192C580.681 342.616 571.166 332.358 562.079 324.3C549.726 314.717 551.688 326.618 550.778 335.697C548.048 350.604 530.099 334.292 528.742 356.496ZM170.528 378.047C172.74 389.727 173.764 401.41 172.478 413.297C186.86 429.075 215.632 425.681 224.592 406.216C201.137 412.102 183.663 394.849 170.528 378.047ZM522.661 351.972C515.479 356.849 488.672 374.94 494.984 384.478C498.221 390.926 509.507 395.101 515.431 386.938C520.018 381.659 520.618 372.871 528.128 370.582C522.565 365.415 522.058 358.944 522.661 351.972ZM236.597 404.317C236.417 404.444 236.238 404.571 236.058 404.698C248.777 424.614 248.393 445.525 241.226 466.615C245.904 466.943 259.237 476.268 260.522 468.554C263.016 445.083 251.697 421.748 236.597 404.317Z" fill="black"/>
<path d="M857.373 341.307C873.479 341.018 888.996 340.575 904.842 338.519C939.326 333.685 902.647 433.643 898.919 451.345C893.724 463.578 886.589 489.92 870.585 489.311C852.789 489.612 835.421 485.679 818.009 482.57C801.005 477.645 762.91 482.553 765.258 456.54C773.479 416.41 793.7 379.055 806.278 341.406C754.02 359.032 807.763 277.65 828.055 301.679C831.542 305.651 831.058 320.052 836.62 318.799C856.003 314.285 863.977 321.906 857.373 341.307ZM804.057 370.238C793.259 399.223 779.271 427.125 773.224 457.581C772.153 464.523 778.681 468.363 784.761 469.147C813.671 472.817 841.919 481.305 871.168 481.907C880.41 481.361 882.233 469.111 886.575 462.625C898.901 435.129 903.352 404.973 910.589 375.906C912.369 367.65 913.15 359.202 911.803 350.734C911.034 345.9 909.901 345.049 905.071 345.517C888.393 347.39 871.661 348.89 854.877 347.417C854.279 348.656 853.193 350.73 852.511 352.353C862.867 357.466 857.78 366.749 848.582 359.08C839.591 375.851 816.561 394.164 804.057 370.238ZM853.12 331.927C854.1 319.608 843.393 325.765 836.524 325.816C818.309 328.251 830.71 291.821 809.998 308.4C806.169 309.853 784.119 336.506 793.852 336.353C837.337 322.876 788.909 373.452 824.942 375.119C839.257 365.478 848.987 348.112 853.12 331.927Z" fill="black"/>
<path d="M698.31 607.522C683.998 607.152 686.351 592.578 686.664 581.64C643.251 607.102 649.615 555.406 671.613 534.832C685.71 517.959 715.083 511.027 712.614 541.963C717.853 549.473 726.572 546.078 734.059 544.65C747.39 542.909 746.108 555.291 741.936 564.019C754.318 561.029 766.403 558.395 778.826 555.907C804.014 550.371 796.805 606.771 800.959 622.267C802.424 635.422 804.675 648.488 806.418 661.614C807.742 671.124 810.072 685.008 797.883 687.945C775.318 691.982 751.949 689.807 729.105 691.469C718.777 691.572 708.447 694.259 698.122 693.32C671.502 690.703 696.066 624.666 698.31 607.522ZM725.582 587.022C720.321 593.335 714.841 599.472 707.896 604.041C702.294 624.548 697.547 645.976 694.419 667.217C693.965 672.739 692.065 683.837 699.461 685.165C731.207 682.904 763.273 683.575 794.963 680.572C806.093 679.233 793.57 645.077 794.316 636.383C791.339 613.365 791.848 589.809 786.134 567.211C784.876 559.14 768.272 567.59 762.628 567.484C754.173 569.225 745.716 570.948 737.264 572.702C734.187 574.446 732.819 578.494 730.4 581.204C733.609 584.471 743.219 588.914 739.517 593.989C735.099 598.045 729.483 589.54 725.582 587.022ZM707.898 542.037C704.734 531.421 705.391 522.955 691.333 528.645C677.062 530.978 646.403 578.405 668.382 581.623C676.605 581.81 691.801 565.08 693.745 580.944C694.724 585.443 690.49 601.828 698.357 599.983C710.255 596.895 716.48 584.832 724.59 576.788C725.987 573.674 744.308 550.625 735.777 551.504C726.304 553.487 716.298 556.482 708.658 548.47C706.302 546.244 706.049 544.501 707.898 542.037Z" fill="black"/>
<path d="M721.859 169.378C733.842 175.142 732.708 171.315 743.414 167.544C753.902 165.119 756.339 178.445 754.932 186.227C767.855 187.126 780.669 187.853 793.558 188.951C816.491 192.018 800.163 246.798 798.472 262.389C792.489 297.687 737.298 284.16 711.38 285.129C680.397 284.879 695.62 227.625 697.88 208.451C675.342 209.616 690.325 172.873 696.491 162.596C705.638 147.203 724.308 149.724 721.859 169.378ZM707.151 205.901C706.979 205.932 706.808 205.963 706.636 205.994C691.585 287.811 697.657 280.482 773.554 277.406C783.92 276.601 789.547 270.888 791.743 260.712C793.684 240.866 800.801 220.687 797.265 200.766C796.279 197.003 794.749 195.814 790.889 195.535C778.517 194.641 766.146 193.738 753.57 192.823C752.873 195.432 752.142 198.165 751.421 200.863C758.965 203.44 756.932 210.733 749.026 208.454C745.276 221.974 727.98 253.705 713.146 234.269C708.175 225.592 709.768 215.207 707.151 205.901ZM718.89 173.843C713.208 172.218 717.452 164.693 714.112 160.806C712.721 158.741 711.701 158.452 709.46 159.555C697.695 166.454 695.3 181.947 693.075 194.286C692.635 203.407 695.936 201.257 702.417 198.759C724.568 191.027 708.884 240.42 726.758 231.506C735.88 227.836 757.022 174.933 743.398 175.215C735.367 180.611 725.387 182.643 718.89 173.843Z" fill="black"/>
<path d="M555.207 397.083C550.31 407.948 542.927 417.208 536.909 427.46C535.529 429.622 533.158 430.046 531.37 428.812C525.384 424.944 542.527 406.937 544.665 401.317C547.539 397.054 550.519 389.779 555.207 397.083Z" fill="black"/>
<path d="M535.444 298.681C530.903 295.827 499.552 280.961 504.573 275.929C509.202 269.629 525.744 286.058 531.65 288.398C535.477 291.191 542.896 294.846 535.444 298.681Z" fill="black"/>
<path d="M544.486 263.195C549.326 266.239 553.528 278.775 556.91 284.241C559.217 288.484 553.543 291.463 551.281 287.319C549.767 282.094 533.351 264.094 544.486 263.195Z" fill="black"/>
<path d="M423.299 396.289C439.631 417.134 459.567 433.827 479.804 450.01C456.937 495.391 407.701 557.592 351.633 524.003C338.75 519.983 326.188 515.06 313.431 510.656C306.243 508.642 304.634 516.611 314.259 519.054C318.639 521.874 334.366 524.51 334.719 529.275C351.817 849.182 460.714 736.44 185.891 755.873C188.952 750.253 194.981 748.01 198.607 742.918C205.794 730.745 180.079 726.809 172.719 723.017C162.675 700.693 153.544 675.602 143.846 652.338C131.117 620.07 125.584 585.406 129.471 550.794C129.665 548.187 129.794 543.655 126.335 543.59C104.799 580.261 138.179 660.599 154.372 698.475C133.911 714.192 113.401 729.947 92.7028 745.846C7.87284 651.505 55.6618 486.237 156.821 422.911C157.41 442.403 185.085 510.527 210.991 490.022C217.884 484.551 224.274 477.98 232.163 473.974C239.066 471.845 245.947 475.489 252.419 477.568C283.45 484.471 260.811 425.273 252.266 413.474C321.96 454.275 380.301 495.197 423.299 396.289Z" fill="black"/>
<path d="M572.333 367.704C595.31 369.796 589.909 345.054 580.001 333.161C583.263 329.776 596.717 324.382 592.582 318.99C587.442 314.751 580.322 325.329 575.851 327.917C574.384 325.962 571.733 324.354 570.928 321.951C572.01 314.385 567.616 303.54 575.183 298.675C579.96 295.723 585.265 294.267 590.731 293.622C616.578 290.772 642.393 287.338 668.335 285.489C673.587 285.187 676.271 287.015 677.48 292.17C683.229 346.336 688.575 400.636 698.319 454.375C699.554 462.513 697.896 464.688 689.617 464.877C672.805 465.261 655.982 465.526 639.167 465.377C558.984 464.527 574.385 487.751 572.333 367.704ZM665.996 411.786C656.908 413.611 589.789 418.681 592.181 428.288C592.943 431.42 596.362 430.961 598.763 430.209C620.918 424.446 643.557 421.292 666.37 419.672C672.068 419.242 671.718 411.583 665.996 411.786ZM613.913 355.799C607.8 354.994 593.314 360.57 597.828 368.163C599.729 369.515 601.512 368.359 602.848 366.874C609.932 358.037 625.94 369.391 643.584 362.501C648.098 359.664 677.072 361.848 667.299 352.302C649.679 349.498 631.881 361.123 613.913 355.799ZM660.671 385.391C660.668 385.422 660.664 385.453 660.661 385.484C651.713 387.641 595.698 386.579 597.016 394.808C597.204 397.408 600.283 398.307 602.835 397.785C616.985 396.607 631.127 395.329 645.287 394.291C651.314 392.491 672.227 396.65 672.729 389.298C672.532 383.83 664.519 385.693 660.671 385.391ZM602.676 339.465C602.68 339.579 602.684 339.693 602.689 339.807C617.549 337.541 632.052 333.961 646.686 330.703C649.022 330.364 650.349 328.283 650.047 326.46C648.624 318.907 627.896 328.816 622.335 329.101C614.339 329.724 606.749 333.109 598.756 332.638C596.766 332.28 594.766 332.913 593.548 334.831C590.765 340.969 599.235 339.308 602.676 339.465Z" fill="white"/>
<path d="M146.977 336.147C148.323 334.167 149.717 332.414 150.762 330.473C152.482 327.635 148.254 324.908 146.108 327.48C136.473 337.849 119.218 328.374 123.429 315.36C125.662 308.831 131.377 302.922 138.618 303.108C138.275 301.885 138.432 301.011 137.437 299.976C143.385 296.297 136.937 295.321 140.952 289.512C164.585 244.984 168.448 245.657 216.047 232.24C224.527 229.347 237.771 228.892 240.024 240.073C252.073 285.883 269.545 361.371 229.736 397.525C195.127 417.081 162.977 360.203 146.977 336.147ZM234.296 264.44C229.132 265.992 205.83 268.695 212.047 277.09C220.216 295.238 224.362 315.366 230.669 334.311C231.944 338.238 238.977 336.947 237.235 332.285C233.972 321.015 230.801 309.714 227.32 298.511C227.129 294.186 216.715 276.027 221.549 275.234C225.206 273.717 249.607 267.052 234.296 264.44ZM175.48 287.215C180.467 285.521 201.195 282.078 201.463 276.864C198.676 272.413 180.548 280.829 174.972 281.247C170.619 282.574 169.994 287.474 175.48 287.215ZM225.832 366.469C216.004 367.738 212.622 367.052 205.172 360.403C200.578 358.904 201.732 364.276 203.831 366.292C208.373 372.148 224.023 376.335 225.832 366.469ZM205.811 294.776C203.888 287.39 189.486 294.895 186.153 298.357C183.03 301.169 187.054 305.456 190.216 302.412C198.222 294.586 205.705 299.265 205.811 294.776ZM232.261 290.4C235.574 289.516 238.352 288.903 241.018 287.972C247.81 279.234 221.869 283.202 232.261 290.4ZM131.614 317.406C131.537 321.486 134.508 325.742 137.686 323.608C138.208 322.499 137.204 321.161 136.385 320.36C133.524 316.926 136.736 314.981 137.145 311.541C133.548 310.73 131.585 314.633 131.614 317.406ZM215.208 380.422C216.894 379.846 218.49 379.865 218.497 377.952C218.504 376.193 217.064 376.187 215.698 376.008C213.567 375.73 211.587 374.472 209.374 375.026C209.02 378.275 213.106 378.778 215.208 380.422Z" fill="white"/>
<path d="M491.067 319.44C492.739 327.237 466.549 370.705 482.689 365.645C493.314 355.078 505.002 334.9 522.878 343.598C509.755 353.536 472.64 374.444 493.33 393.086C500.194 398.963 513.762 401.576 521.717 390.028C524.737 386.073 526.064 380.83 530.027 377.645C537.86 393.244 515.725 409.175 501.532 409.897C497.46 409.899 493.358 409.404 489.306 410.352C489.277 410.588 489.249 410.823 489.22 411.059C476.559 394.394 461.363 378.602 450.261 361.217C453.713 345.568 459.879 330.182 470.54 318.074C470.808 318.193 471.077 318.312 471.345 318.431C472.338 328.59 469.069 338.266 467.761 348.211C467.36 351.713 471.511 352.099 473.43 350.184C474.745 348.753 475.656 346.896 476.518 345.112C480.691 336.252 484.471 326.969 490.532 319.217C490.711 319.291 490.889 319.365 491.067 319.44Z" fill="white"/>
<path d="M187.802 785.049C182.639 782.037 169.406 761.985 166.2 775.652C166.937 783.738 169.871 791.554 169.911 799.691C163.013 794.034 158.863 786.931 153.32 780.192C150.749 775.806 143.925 772.095 142.3 779.094C141.869 785.173 142.711 790.376 142.416 796.805C131.838 790.231 130.39 775.951 129.62 764.574C129.61 763.816 130.029 762.731 130.613 762.333C141.978 754.598 151.66 744.942 161.479 735.442C166.128 729.73 167.286 728.737 174.27 732.112C179.971 734.425 185.922 735.927 191.217 739.141C166.758 754.925 183.661 764.016 188.288 784.757C188.125 784.854 187.963 784.951 187.802 785.049Z" fill="white"/>
<path d="M483.35 444.105C471.546 433.827 459.837 423.652 448.475 412.926C440.274 405.522 434.838 396.123 425.865 389.397C429.801 380.075 431.774 369.265 437.274 358.922C455.419 381.694 473.931 404.031 493.03 425.985C489.816 432.002 486.653 437.921 483.35 444.105Z" fill="white"/>
<path d="M171.232 422.753C192.356 435.611 218.963 432.427 231.598 409.449C241.774 424.232 241.157 442.537 236.956 459.234C235.053 465.139 231.664 471.188 225.06 465.888C206.477 452.358 186.861 439.763 171.232 422.753Z" fill="white"/>
<path d="M157.613 705.902C166.22 727.474 164.173 721.108 149.086 736.845C138.486 747.087 127.282 756.888 113.703 763.065C107.17 765.583 102.184 754.783 96.9619 751.509C117.227 735.988 136.407 719.979 157.613 705.902Z" fill="white"/>
<path d="M164.187 423.707C180.212 443.744 202.606 456.87 222.804 471.991C215.993 475.833 206.354 490.998 198.387 486.886C178.23 473.535 167.903 446.867 164.187 423.707Z" fill="white"/>
<path d="M528.742 356.495C530.144 334.237 548.011 350.647 550.78 335.697C551.689 326.654 549.717 314.703 562.078 324.3C571.168 332.353 580.68 342.619 581.859 355.191C581.042 366.217 569.839 358.064 564.22 356C554.833 352.466 550.437 357.2 545.279 364.325C539.093 370.785 527.886 366.379 529.01 356.546C528.921 356.529 528.831 356.512 528.742 356.495Z" fill="black"/>
<path d="M170.528 378.047C183.662 394.848 201.14 412.104 224.593 406.216C215.633 425.685 186.856 429.072 172.478 413.299C173.764 401.41 172.74 389.727 170.528 378.047Z" fill="white"/>
<path d="M236.597 404.316C251.695 421.742 263.017 445.086 260.524 468.552C259.242 476.277 245.905 466.938 241.226 466.615C248.393 445.525 248.777 424.614 236.058 404.698C236.238 404.57 236.418 404.443 236.597 404.316Z" fill="white"/>
<path d="M804.057 370.239C816.571 394.172 839.591 375.842 848.582 359.082C857.794 366.757 862.855 357.456 852.511 352.355C853.193 350.733 854.279 348.658 854.877 347.419C871.661 348.887 888.393 347.394 905.071 345.519C909.901 345.05 911.034 345.902 911.803 350.735C913.15 359.203 912.37 367.65 910.588 375.906C903.352 404.973 898.9 435.129 886.575 462.624C882.243 469.137 880.402 481.337 871.169 481.907C841.919 481.305 813.671 472.817 784.761 469.147C778.701 468.349 772.132 464.534 773.225 457.58C779.273 427.123 793.26 399.228 804.057 370.239ZM872.07 402.731C876.493 402.977 899.322 403.73 888.87 395.556C877.391 394.609 865.593 397.063 854.041 394.638C843.264 391.036 832.563 400.467 822.504 394.713C818.198 392.491 804.622 396.243 807.856 402.124C811.052 405.731 816.045 397.369 822.4 401.764C823.717 402.546 825.319 402.93 826.843 403.265C834.773 404.699 842.222 399.089 850.186 401.279C857.408 402.905 864.702 403.384 872.07 402.731ZM869.955 430.131C873.282 429.924 879.885 427.12 874.617 423.377C863.52 419.951 851.265 421.596 839.75 420.542C826.982 420.685 813.212 417.125 802.82 426.794C799.374 429.658 803.117 433.95 806.296 431.425C811.679 428.082 817.558 426.27 824.075 427.016C839.638 428.429 854.198 428.065 869.955 430.131ZM834.845 454.881C840.76 454.496 849.593 454.24 856.186 453.954C860.928 453.589 861.365 447.781 856.604 446.77C853.846 446.28 850.979 446.619 848.194 446.689C832.587 448.162 816.955 447.677 801.32 447.755C796.288 448.041 796.433 454.157 801.514 454.193C812.986 455.199 822.496 454.859 834.845 454.881Z" fill="white"/>
<path d="M853.12 331.929C848.953 348.147 839.292 365.45 824.94 375.12C788.917 373.46 837.327 322.88 793.852 336.355C784.125 336.524 806.138 309.887 809.997 308.401C830.696 291.821 818.308 328.234 836.524 325.819C843.395 325.767 854.098 319.611 853.12 331.929Z" fill="black"/>
<path d="M725.582 587.024C729.472 589.538 735.107 598.049 739.516 593.991C743.214 588.907 733.615 584.484 730.399 581.206C732.816 578.486 734.188 574.458 737.263 572.704C745.715 570.951 754.173 569.228 762.628 567.488C768.381 567.554 784.773 559.18 786.133 567.212C791.848 589.811 791.338 613.367 794.315 636.385C793.608 645.203 806.061 679.199 794.964 680.572C763.274 683.576 731.206 682.909 699.462 685.169C692.034 683.88 693.997 672.683 694.419 667.22C697.545 645.981 702.295 624.549 707.895 604.043C714.84 599.474 720.322 593.339 725.582 587.024ZM724.162 655.155C724.207 655.057 724.252 654.958 724.298 654.86C738.652 652.651 752.851 649.361 767.129 646.664C770.935 645.242 781.551 645.475 780.859 639.925C780.364 635.987 774.829 636.821 771.88 637.432C755.065 640.756 738.252 644.094 721.466 647.564C716.282 649.608 719.741 654.923 724.162 655.155ZM768.352 600.42C761.081 601.588 714.474 610.043 716.701 618.039C717.67 622.003 723.501 619.942 726.534 619.024C741.376 613.4 757.352 611.398 772.242 606.385C776.423 603.544 772.006 599.864 768.352 600.42ZM767.865 613.33C762.214 614.252 713.068 627.828 717.186 633.89C718.156 637.471 722.942 636.053 725.619 635.03C738.716 630.748 751.813 626.464 764.898 622.145C767.808 620.968 773.124 619.972 772.023 615.741C771.429 613.744 769.7 613.429 767.865 613.33Z" fill="white"/>
<path d="M707.898 542.04C706.05 544.504 706.302 546.247 708.658 548.475C716.294 556.49 726.309 553.486 735.776 551.507C744.294 550.792 725.977 573.606 724.59 576.791C716.483 584.836 710.253 596.898 698.358 599.986C690.502 601.883 694.719 585.382 693.744 580.946C691.778 565.084 676.645 581.799 668.382 581.624C646.417 578.41 677.04 530.992 691.334 528.649C705.257 522.952 704.788 531.413 707.898 542.04Z" fill="black"/>
<path d="M707.151 205.901C709.767 215.206 708.174 225.595 713.148 234.269C727.999 253.693 745.251 221.994 749.026 208.455C756.931 210.734 758.967 203.442 751.421 200.864C752.142 198.166 752.872 195.433 753.57 192.824C766.146 193.738 778.518 194.642 790.889 195.536C794.749 195.815 796.279 197.003 797.263 200.766C800.802 220.686 793.682 240.866 791.745 260.712C789.548 270.887 783.921 276.601 773.552 277.407C697.71 280.466 691.561 287.853 706.636 205.994C706.808 205.963 706.98 205.932 707.151 205.901ZM757.615 254.172C761.651 253.535 771.427 256.563 771.385 250.369C770.543 245.156 760.588 248.129 756.653 247.474C751.346 247.248 709.324 251.429 712.858 258.719C713.519 260.231 714.894 260.423 716.359 260.104C729.932 256.98 743.616 254.202 757.615 254.172ZM760.92 227.201C760.999 227.491 761.077 227.78 761.156 228.07C765.163 226.699 776.583 228.147 775.742 221.999C773.082 215.762 763.41 222.792 758.091 221.269C748.216 221.894 746.731 233.844 760.92 227.201Z" fill="white"/>
<path d="M718.89 173.844C725.383 182.653 735.38 180.602 743.397 175.217C757.029 174.977 735.922 227.699 726.761 231.504C708.916 240.47 724.548 191.008 702.418 198.762C696.01 201.229 692.609 203.434 693.077 194.287C695.294 181.948 697.701 166.453 709.46 159.555C711.701 158.453 712.721 158.741 714.113 160.806C717.452 164.692 713.207 172.223 718.89 173.844Z" fill="black"/>
<path d="M665.996 411.789C671.696 411.59 672.091 419.242 666.37 419.674C643.557 421.295 620.918 424.448 598.763 430.212C596.369 430.963 592.933 431.425 592.182 428.292C589.562 418.767 656.933 413.582 665.996 411.789Z" fill="black"/>
<path d="M613.913 355.802C631.862 361.126 649.702 349.499 667.3 352.303C676.929 362.002 648.123 359.594 643.586 362.506C625.884 369.415 610.055 358.016 602.849 366.877C601.518 368.361 599.726 369.519 597.83 368.166C593.305 360.57 607.815 354.999 613.913 355.802Z" fill="black"/>
<path d="M660.671 385.391C664.535 385.688 672.523 383.834 672.729 389.298C672.395 396.601 651.18 392.525 645.288 394.294C631.127 395.33 616.985 396.608 602.835 397.786C600.302 398.305 597.186 397.411 597.017 394.811C595.551 386.61 651.806 387.623 660.661 385.484C660.664 385.453 660.668 385.422 660.671 385.391Z" fill="black"/>
<path d="M602.676 339.467C599.227 339.316 590.768 340.968 593.548 334.832C594.766 332.915 596.766 332.282 598.756 332.638C606.746 333.11 614.342 329.725 622.335 329.104C627.985 328.813 648.52 318.902 650.047 326.46C650.349 328.284 649.021 330.365 646.686 330.705C632.051 333.962 617.548 337.542 602.688 339.808C602.684 339.695 602.68 339.581 602.676 339.467Z" fill="black"/>
<path d="M234.296 264.438C249.602 267.039 225.214 273.721 221.551 275.232C216.717 276.113 227.139 294.159 227.319 298.51C230.801 309.713 233.972 321.014 237.235 332.284C238.975 336.936 231.945 338.248 230.667 334.31C224.362 315.365 220.215 295.235 212.048 277.089C205.949 268.547 229.051 266.071 234.296 264.438Z" fill="black"/>
<path d="M175.48 287.213C170.021 287.473 170.592 282.585 174.972 281.246C180.537 280.821 198.723 272.413 201.463 276.861C201.256 282.042 180.449 285.534 175.48 287.213Z" fill="black"/>
<path d="M225.832 366.467C224.022 376.334 208.377 372.145 203.832 366.29C201.741 364.278 200.568 358.899 205.172 360.402C212.621 367.055 216.023 367.735 225.832 366.467Z" fill="black"/>
<path d="M205.811 294.777C205.734 299.252 198.22 294.593 190.216 302.414C187.058 305.455 183.026 301.171 186.153 298.358C189.468 294.905 203.893 287.387 205.811 294.777Z" fill="black"/>
<path d="M232.261 290.398C221.869 283.192 247.812 279.238 241.019 287.971C238.352 288.901 235.574 289.515 232.261 290.398Z" fill="black"/>
<path d="M131.614 317.407C131.584 314.635 133.549 310.73 137.145 311.543C136.736 314.982 133.523 316.928 136.385 320.362C137.203 321.16 138.209 322.503 137.686 323.609C134.506 325.742 131.538 321.488 131.614 317.407Z" fill="black"/>
<path d="M215.208 380.422C213.104 378.775 209.022 378.278 209.374 375.026C211.587 374.472 213.567 375.73 215.699 376.008C217.064 376.186 218.504 376.193 218.498 377.952C218.49 379.866 216.894 379.846 215.208 380.422Z" fill="black"/>
<path d="M872.07 402.73C864.702 403.383 857.408 402.904 850.186 401.278C842.221 399.089 834.774 404.699 826.843 403.265C825.32 402.929 823.717 402.545 822.4 401.762C815.951 397.36 811.137 405.736 807.856 402.123C804.585 396.244 818.268 392.487 822.503 394.711C826.749 397.115 831.014 397.55 835.537 395.814C841.598 393.738 847.814 393.57 854.041 394.637C865.592 397.061 877.392 394.608 888.87 395.554C899.367 403.745 876.417 402.965 872.07 402.73Z" fill="black"/>
<path d="M869.955 430.133C854.205 428.067 839.633 428.431 824.075 427.019C817.558 426.272 811.679 428.084 806.296 431.427C803.144 433.949 799.347 429.662 802.82 426.796C813.224 417.125 826.974 420.689 839.75 420.546C851.265 421.598 863.519 419.954 874.617 423.379C879.843 427.021 873.322 429.969 869.955 430.133Z" fill="black"/>
<path d="M834.845 454.88C822.498 454.858 812.984 455.198 801.514 454.192C796.448 454.155 796.274 448.04 801.321 447.754C819.1 448.028 836.814 447.503 854.571 446.533C860.144 445.996 862.517 453.083 856.187 453.952C849.6 454.239 840.755 454.495 834.845 454.88Z" fill="black"/>
<path d="M724.162 655.154C719.793 654.927 716.242 649.603 721.467 647.563C738.252 644.094 755.065 640.756 771.88 637.432C774.832 636.818 780.368 635.988 780.859 639.924C781.611 645.438 770.874 645.267 767.129 646.663C752.851 649.359 738.652 652.649 724.298 654.858C724.253 654.957 724.208 655.056 724.162 655.154Z" fill="black"/>
<path d="M768.352 600.419C771.978 599.867 776.446 603.534 772.242 606.382C757.353 611.396 741.376 613.398 726.535 619.024C723.501 619.943 717.668 622.002 716.703 618.039C714.347 610.111 761.068 601.571 768.352 600.419Z" fill="black"/>
<path d="M767.865 613.328C789.07 619.147 729.77 632.279 725.619 635.03C722.946 636.051 718.148 637.471 717.186 633.889C713.039 627.853 762.12 614.27 767.865 613.328Z" fill="black"/>
<path d="M757.615 254.173C743.616 254.203 729.932 256.982 716.359 260.105C714.893 260.424 713.519 260.232 712.858 258.72C709.401 251.402 751.216 247.273 756.652 247.475C760.639 248.136 770.491 245.145 771.385 250.368C771.451 256.56 761.621 253.538 757.615 254.173Z" fill="black"/>
<path d="M760.92 227.2C746.722 233.843 748.226 221.888 758.091 221.269C762.254 221.316 766.297 220.818 770.245 219.502C772.54 218.838 775.439 219.777 775.742 221.997C776.596 228.138 765.154 226.7 761.156 228.068C761.077 227.779 760.999 227.489 760.92 227.2Z" fill="black"/>
</svg>
