<svg width="960" height="960" viewBox="0 0 960 960" fill="none" xmlns="http://www.w3.org/2000/svg">
<path d="M248.462 919.415C233.428 917.664 218.139 918.483 203.013 917.622C194.015 917.678 182.227 914.826 185.409 903.242C187.657 894.22 192.87 884.927 202.122 881.77C215.81 876.551 229.077 870.228 241.815 863.085C234.02 851.356 242.967 821.745 245.365 807.853C260.193 731.755 278.213 655.669 311.709 585.344C320.637 564.335 331.292 543.756 340.085 522.898C324.727 537.516 312.657 556.076 295.657 568.799C266.331 584.091 293.213 388.899 290.564 368.924C235.452 396.614 161.675 386.122 122.045 337.15C105.642 316.235 90.7999 292.972 85.2759 266.678C81.9749 252.328 93.2669 246.736 103.924 240.282C98.4859 230.455 89.2099 223.855 83.2369 214.431C79.5319 210.01 79.8979 201.825 86.9189 201.719C89.6819 201.665 92.4629 202.551 95.4589 203.052C94.5149 196.722 91.1989 189.479 93.1749 182.999C95.2189 177.721 101.251 181.182 103.541 184.392C106.256 188.326 107.933 191.764 110.045 196.304C111.975 189.664 112.814 168.286 120.518 168.045C130.676 169.231 127.849 192.693 128.909 200.781C133.109 196.586 144.255 176.988 149.111 189.612C150.424 201.572 144.132 212.691 139.595 223.417C143.377 225.511 144.497 229.19 145.778 232.853C157.273 274.824 196.757 330.257 246.158 308.61C284.18 292.94 277.394 246.704 302.201 220.102C292.811 206.341 282.62 193.276 277.514 177.263C268.241 149.904 269.159 119.155 280.946 92.6796C277.194 91.8626 272.568 93.9426 270.351 90.3236C269.34 88.3156 269.73 86.4146 270.986 84.7066C275.654 78.4986 279.622 72.7956 284.677 66.7216C281.024 65.9916 270.499 66.7716 269.476 64.4096C268.45 62.5916 268.784 60.8896 270.944 59.7646C278.85 55.6866 286.76 51.5896 295.269 48.9086C294.606 47.2616 291.873 47.5526 292.374 45.0736C292.723 43.0506 294.473 42.8416 296.099 42.6276C310.623 39.9226 325.379 39.7116 339.805 43.1366C365.08 48.9176 407.189 57.3636 400.685 91.8446C399.201 100.331 397.488 109.347 396.185 117.757C405.226 125.374 407.47 137.675 397.304 147.119C393.54 150.528 389.449 153.585 385.425 156.697C384.118 157.707 383.025 158.668 382.418 160.319C379.235 168.181 376.039 175.905 373.167 183.94C430.011 215.81 485.086 251.179 542.798 281.785C578.168 300.578 612.895 320.686 645.182 344.487C652.985 349.546 653.673 356.337 651.772 364.918C655.47 365.876 658.53 368.068 661.855 365.044C668.149 360.411 674.863 358.907 681.925 363.596C684.5 365.166 686.585 366.908 688.205 363.238C689.589 360.881 690.917 358.492 692.205 356.232C692.123 355.819 692.162 355.483 692.017 355.359C688.155 352.041 688.236 348.084 690.162 343.857C694.294 335.959 699.14 316.705 711.345 325.538C715.533 317.773 723.605 315.669 731.5 317.97C757.607 325.868 780.969 340.761 804.334 354.48C821.987 365.032 843.865 376.238 835.626 400.476C828.815 425.141 815.127 447.12 804.877 470.406C788.634 502.898 777.207 538.2 757.648 568.857C756.453 570.413 756.167 571.723 756.615 573.609C759.573 587.888 764.871 602.138 763.091 616.915C762.597 621.253 761.673 625.515 757.189 627.414C752.187 629.533 746.873 630.971 741.801 627.775C731.61 620.571 726.933 607.976 719.618 598.166C716.966 594.959 716.446 589.208 711.204 589.413C710.87 591.906 710.212 594.765 708.733 596.758C708.837 600.93 705.496 602.373 702.77 604.196C678.775 620.241 654.718 636.195 630.744 652.272C501.283 742.768 455.684 719.783 409.543 572.621C368.649 663.203 351.303 761.583 318.691 854.974C314.605 863.127 311.064 873.033 301.607 876.314C296.368 891.833 292.773 913.959 274.407 918.757C266.176 920.469 257.01 918.903 248.462 919.415ZM350.803 518.461C298.945 612.186 267.817 715.63 249.742 820.907C247.544 831.064 246.494 841.282 246.012 851.603C245.793 856.288 246.733 857.849 251.044 859.655C265.222 864.573 280.578 865.294 295.21 868.538C299.273 869.284 302.462 868.064 304.548 864.699C307.222 860.383 309.883 855.99 311.888 851.345C333.378 788.566 348.607 723.67 368.391 660.323C378.74 627.31 391.392 595.11 405.067 563.328C406.094 560.94 406.496 558.703 405.928 556.134C404.666 550.427 403.615 544.673 402.471 538.939C401.984 536.5 401.393 534.077 401.014 531.621C400.72 529.717 401.661 528.241 403.189 527.745C406.734 526.626 407.732 531.912 408.309 534.566C414.877 570.347 424.757 605.487 442.057 637.655C456.74 665.237 476.207 700.625 512.283 697.99C578.286 691.668 647.331 627.719 704.534 593.516C704.534 591.304 704.534 588.983 704.534 586.963C692.773 581.389 681.277 576.036 669.887 570.466C667.5 569.298 665.703 569.383 663.345 570.533C630.737 585.452 599.505 604.152 564.945 614.287C552.721 617.55 537.13 619.238 529.009 607.374C517.573 589.279 509.864 569.084 502.795 548.96C501.752 545.862 500.28 544.099 497.217 542.81C475.589 533.903 454.612 523.458 435.458 509.903C409.111 522.449 379.144 527.606 350.803 518.461ZM357.72 428.527C395.062 472.548 440.216 511.357 494.123 533.248C503.004 537.129 512.064 540.614 521.118 544.083C528.254 546.818 533.228 545.5 538.055 539.608C557.702 511.811 567.218 478.324 578.943 446.715C580.693 441.762 580.655 441.633 576.198 439.068C512.324 406.485 477.375 381.576 449.066 314.026C434.599 304.689 424.212 290.852 413.067 278.009C410.05 275.023 412.614 269.288 417.018 271.46C429.689 280.924 438.235 294.913 450.03 305.263C457.701 310.79 465.473 316.178 473.22 321.6C518.782 352.796 563.438 386.396 613.874 409.452C616.989 410.815 617.9 410.587 619.741 407.864C623.214 402.729 626.636 397.558 630.12 392.43C636.445 383.734 638.386 372.768 643.631 363.612C646.441 359.596 646.324 353.939 642.383 351.176C631.586 343.607 620.866 335.912 609.847 328.675C548.156 290.289 482.308 259.096 421.496 219.193C416.445 215.683 411.021 213.124 405.117 211.348C396.865 206.615 387.521 203.694 380.323 197.27C379.9 196.833 379.123 196.741 378.249 196.381C380.959 229.463 374.912 262.861 357.331 291.299C354.123 296.975 349.638 299.363 343.407 299.523C333.789 299.771 324.641 297.828 315.262 295.785C313.9 302.539 314.469 309.483 313.693 316.328C314.987 348.36 367.581 356.694 391.646 365.964C405.808 370.59 420.39 372.892 435.264 373.46C440.928 373.676 445.983 375.445 450.103 379.513C483.698 411.91 481.169 409.224 448.295 439.671C444.157 443.245 439.356 447.199 433.498 446.393C407.314 444.25 381.691 439.778 357.72 428.527ZM610.533 519.651C644.517 533.759 677.401 548.992 710.898 564.035C717.246 566.931 723.571 569.928 730.509 571.009C744.217 573.931 753.063 565.225 758.437 553.334C764.278 541.241 770.042 529.109 775.668 516.914C791.539 482.069 807.807 447.379 823.524 412.475C827.979 400.446 835.159 384.001 821.811 374.969C794.387 356.236 765.411 339.079 734.554 326.611C728.811 324.632 721.495 323.015 717.539 328.964C689.95 368.417 672.019 413.477 646.526 454.18C633.103 475.247 621.397 497.158 610.533 519.651ZM658.079 564.514C644.55 557.598 632.211 551.162 619.087 543.894C612.517 540.09 601.392 531.086 602.514 522.69C606.381 514.04 610.968 504.82 614.857 496.632C610.848 491.297 608.832 485.328 612.403 479.386C615.753 473.422 619.167 467.492 622.664 461.613C626.238 455.277 631.013 454.526 637.841 455.239C639.884 451.854 641.989 448.365 644.1 444.867C634.386 439.676 629.242 431.305 630.153 421.56C630.411 417.661 632.796 414.025 632.892 410.062C627.112 414.281 624.262 419.606 616.049 418.153C599.24 414.093 584.134 405.523 569.668 396.387C533.267 373.591 497.757 349.451 463.164 324.05C462.939 324.256 462.714 324.461 462.49 324.667C485.478 381.691 533.175 407.801 584.127 435.648C589.078 438.866 587.492 444.949 585.765 449.602C574.632 478.552 565.99 508.818 549.752 535.473C537.532 555.015 530.306 555.489 509.397 547.943C514.458 562.453 520.996 575.755 526.829 589.891C533.485 602.707 538.454 611.831 555.749 608.224C566.286 606.665 576.265 603.036 585.879 598.648C610.269 587.383 633.831 576.397 658.079 564.514ZM278.725 287.589C265.92 308.722 242.076 323.878 216.718 320.077C173.329 313.189 148.862 269.313 137.115 230.796C128.915 230.299 106.603 248.568 97.3549 253.338C88.0349 259.878 96.0389 274.979 98.7219 283.42C130.142 364.111 212.095 399.221 290.643 360.24C291.449 353.105 290.152 299.065 289.115 296.367C282.374 298.583 280.134 296.729 278.725 287.589ZM304.522 322.277C304.304 322.384 304.086 322.491 303.867 322.597C306.331 398.688 360.284 435.071 431.902 438.563C435.705 438.883 438.759 437.942 441.435 435.44C449.336 428.054 457.196 420.624 465.1 413.242C468.953 409.796 464.323 405.317 462.138 402.371C452.929 394.17 445.756 380.584 431.939 380.845C401.747 379.892 373.236 368.016 344.911 358.573C327.56 351.99 311.81 339.675 304.522 322.277ZM302.793 160.002C305.724 140.759 311.056 122.115 312.631 102.832C305.733 101.849 298.934 102.155 292.008 101.778C290.979 101.748 290.002 101.832 289.788 100.277C297.163 95.8356 306.579 97.2246 314.768 97.9596C318.869 98.3896 319.527 99.2226 318.683 103.255C314.815 122.794 310.23 142.528 305.5 161.605C306.769 161.605 308.244 162.021 309.307 161.534C318.563 157.615 325.366 167.082 331.845 172.1C336.445 176.81 342.29 174.183 347.556 172.617C350.94 171.815 353.754 170.101 356.157 167.651C365.246 158.555 370 146.153 370.61 133.416C370.948 114.549 372.631 86.5406 352.326 77.5466C346.185 75.3906 334.645 70.3286 328.745 73.5556C315.759 80.8966 303.317 89.6076 288.051 91.2486C283.949 91.4416 284.107 98.6356 282.484 101.698C278.103 116.304 275.408 131.058 276.443 146.486C276.08 150.671 283.977 171.213 288.959 165.762C292.176 162.198 295.952 158.99 301.183 160.293C301.61 160.395 302.124 160.133 302.793 160.002ZM298.508 348.871C298.339 348.902 298.17 348.932 298.001 348.963C299.085 420.159 282.544 491.308 292.623 562.334C310.512 546.782 323.598 526.795 341.465 511.154C326.915 457.139 309.593 403.747 298.508 348.871ZM428.314 504.708C395.428 479.632 364.534 451.468 340.426 417.664C331.788 409.339 322.999 401.2 316.064 391.278C325.469 427.967 337.041 464.465 346.011 501.436C348.324 511.101 358.994 513.247 367.406 514.611C388.453 517.54 408.746 513.403 428.314 504.708ZM293.166 876.463C278.19 874.297 264.52 871.097 249.971 867.724C248.553 867.392 247.618 867.766 246.525 868.386C233.335 875.875 219.862 882.814 205.666 888.193C197.731 891.2 194.489 897.582 192.429 904.996C189.744 912.066 210.757 909.229 214.766 909.934C233.152 910.32 251.539 910.702 269.923 911.165C285.36 911.217 289.745 888.513 293.166 876.463ZM311.237 287.837C322.913 290.479 332.723 293.38 344.418 292.794C347.483 292.607 349.881 291.597 351.338 288.633C368.714 259.624 376.112 225.876 370.422 192.577C369.282 193.907 368.816 195.167 368.44 196.454C366.249 205.778 360.853 213.281 355.833 221.204C345.242 246.209 327.321 266.282 311.237 287.837ZM121.091 177.785C120.766 177.817 120.442 177.85 120.117 177.882C117.802 187.168 116.773 196.702 115.078 206.111C114.167 213.414 107.941 212.125 106.77 206.719C104.618 201.515 103.196 195.96 100.345 191.086C100.119 191.174 99.8929 191.262 99.6679 191.349C101.011 197.133 102.96 202.746 104.635 208.438C106.819 213.831 101.515 217.445 97.1699 213.684C94.6029 211.82 92.1009 209.901 89.1149 208.744C88.9479 208.972 88.7819 209.2 88.6149 209.428C94.6439 219.284 104.374 226.108 110.4 236.077C116.336 232.525 121.47 228.326 127.74 225.826C132.795 224.034 135.434 220.906 136.72 216.073C139.249 209.351 141.127 202.367 143.32 195.52C143.523 194.851 143.253 194.037 143.155 192.588C136.99 199.106 133.942 206.412 128.788 213.428C124.015 217.803 122.055 210.937 122.519 206.981C121.966 197.286 123.215 187.309 121.091 177.785ZM635.588 404.577C638.58 407.623 642.16 410.538 646.454 412.234C650.247 413.397 657.119 414.502 657.883 408.927C658.186 406.649 659.613 405.136 661.609 404.111C664.784 402.46 667.964 401.285 666.453 397.135C665.867 394.72 666.275 392.679 667.996 390.96C670.952 388.107 668.826 383.986 667.296 381.008C663.176 374.665 656.77 372.409 649.923 371.159C645.085 382.438 640.393 393.377 635.588 404.577ZM738.575 579.599C738.49 579.329 738.405 579.06 738.32 578.79C724.183 579.711 711.941 572.48 699.548 566.907C670.938 554.693 642.776 541.369 614.082 529.4C615.684 533.456 619.947 535.218 623.21 537.661C639.596 547.327 656.84 555.38 673.793 563.975C693.713 572.032 716.817 591.293 738.575 579.599ZM724.11 591.301C728.21 600.2 734.702 608.056 739.799 616.51C743.401 621.936 747.722 623.874 753.723 621.077C756.214 620.264 756.101 617.668 756.116 615.674C756.638 603.013 754.182 591.81 750.617 579.294C743.23 587.341 734.233 590.622 724.11 591.301ZM285.851 288.76C286.175 288.882 286.499 289.005 286.824 289.127C299.02 276.008 296.391 274.457 300.364 258.217C302.71 247.246 307.477 237.108 312.501 227.347C311.127 226.552 309.645 225.694 307.863 224.663C291.959 243.315 286.488 265.215 285.851 288.76ZM309.392 251.382C306.961 257.621 305.678 264.219 304.349 270.749C303.36 276.868 300.438 282.502 300.207 288.76C300.62 293.267 297.969 304.432 301.562 307.049C306.858 305.522 304.976 299.599 308.214 296.382C308.58 296.009 308.586 295.283 308.772 294.672C299.929 289.903 304.919 284.512 309.312 278.585C315.266 270.629 321.44 263.588 327.099 255.311C320.161 256.943 314.421 255.743 309.392 251.382ZM311.823 243.045C317.969 252.213 326.412 247.67 334.31 244.612C334.927 244.369 335.495 243.694 335.824 243.078C339.352 236.327 345.321 231.582 349.807 225.598C339.82 231.309 329.359 232.413 318.145 229.805C315.953 234.396 313.885 238.726 311.823 243.045ZM301.96 193.133C301.96 188.386 301.96 183.768 301.96 179.016C299.938 179.081 297.167 180.596 296.495 178.003C296.351 175.025 301.062 175.222 303.1 174.353C315.062 170.869 338.14 175.964 334.269 192.188C332.828 197.226 328.913 200.496 323.355 200.857C316.585 201.211 309.869 199.717 303.203 198.707C308.788 201.718 315.647 200.842 321.723 202.421C333.203 204.626 343.063 190.194 335.408 180.997C328.512 172.916 317.143 171.412 307.116 171.377C293.697 171.097 286.223 182.666 294.234 194.249C296.366 191.139 299.157 193.199 301.96 193.133ZM639.567 415.357C635.298 424.377 637.891 431.576 647.863 438.52C652 431.839 655.935 425.07 659.514 417.603C649.011 420.597 647.262 419.332 639.567 415.357ZM390.966 102.64C391.254 102.726 391.542 102.812 391.83 102.897C398.25 87.1536 394.236 63.9416 375.849 58.6056C370.474 57.4386 365.065 54.7386 359.553 55.0436C359.493 55.2956 359.433 55.5476 359.373 55.7996C363.219 58.1436 367.774 58.9786 371.989 60.4786C390.243 65.1136 395.185 86.2716 390.966 102.64ZM675.358 385.153C675.617 385.213 675.877 385.274 676.137 385.334C678.449 381.016 680.761 376.698 683.039 372.443C676.893 366.955 670.862 366.355 666.325 371.104C670.905 374.726 674.266 379.207 675.358 385.153ZM393.494 124.637C391.129 132.472 388.859 139.992 386.589 147.512C386.853 147.656 387.116 147.8 387.38 147.944C395.616 144.011 403.888 131.555 393.494 124.637ZM633.156 462.689C632.866 462.424 632.575 462.159 632.285 461.894C625.88 467.375 623.229 476.116 618.62 483.074C617.713 484.69 617.582 486.451 618.742 488.751C623.75 479.697 628.453 471.193 633.156 462.689ZM306.399 191.865C305.682 194.128 306.808 194.598 308.148 194.786C313.457 195.057 325.364 199.026 328.42 193.35C321.014 192.85 313.771 192.362 306.399 191.865ZM306.911 180.619C312.407 180.619 317.677 180.619 323.295 180.619C319.408 176.99 313.494 177.444 308.525 177.684C306.739 177.854 306.631 178.935 306.911 180.619ZM707.405 330.835C704.284 330.893 703.246 332.585 702.377 334.351C700.291 339.075 697.433 343.558 696.054 348.542C696.2 348.59 696.346 348.638 696.492 348.686C700.024 342.907 703.557 337.129 707.405 330.835Z" fill="black"/>
<path d="M458.068 209.917C457.694 209.917 457.074 210.107 456.724 209.881C451.319 207.186 454.444 203.683 459.105 203.138C517.73 196.654 576.767 192.966 635.572 188.289C640.433 188.623 640.931 193.861 636.151 194.944C576.82 200.156 517.284 203.555 458.068 209.917Z" fill="black"/>
<path d="M628.056 294.043C624.399 294.24 622.725 289.277 626.513 287.769C640.453 283.325 655.44 283.145 669.843 280.852C699.808 277.752 729.863 273.261 759.874 271.594C763.422 272.02 763.763 276.982 760.309 277.936C716.415 283.943 671.7 285.854 628.056 294.043Z" fill="black"/>
<path d="M512.685 729.056C492.005 728.097 470.229 725.823 455.174 710.818C450.426 706.623 455.378 701.354 459.832 705.716C478.662 722.078 506.609 724.365 530.193 719.73C539.675 717.234 548.979 714.071 558.374 711.243C561.544 710.814 566.492 707.402 568.637 711.08C572.122 719.561 519.517 730.135 512.685 729.056Z" fill="black"/>
<path d="M672.458 699.125C668.071 700.126 666.547 694.769 670.507 693.748C707.122 685.306 744.88 682.112 782.208 678.124C786.483 677.406 790.574 680.344 786.162 683.999C773.621 686.84 760.194 686.592 747.398 688.566C722.544 692.656 697.174 694.387 672.458 699.125Z" fill="black"/>
<path d="M205.963 404.322C183.012 403.067 160.282 397.458 140.59 385.404C138.56 384.115 135.373 382.338 136.832 379.487C138.51 376.132 142.295 378.317 144.666 379.595C156.514 386.416 169.104 391.307 182.525 393.9C196.419 396.585 210.376 397.659 224.4 394.688C227.002 394.219 230.961 393.707 231.648 397.095C232.287 399.52 229.913 401.3 227.78 401.655C220.512 402.575 213.237 403.441 205.963 404.322Z" fill="black"/>
<path d="M452.992 124.044C446.665 124.764 445.843 117.323 451.677 116.411C477.406 113.216 503.097 109.417 528.938 107.135C532.423 106.807 534.823 108.286 534.994 110.665C535.16 112.975 533.092 114.614 529.457 115.003C520.323 115.978 511.174 116.823 502.057 117.931C485.891 119.944 469.071 122.523 452.992 124.044Z" fill="black"/>
<path d="M506.499 237.769C502.592 238.35 500.861 233.431 504.151 231.763C505.666 230.986 507.365 230.341 509.044 230.144C530.789 227.756 552.541 225.295 574.356 223.638C577.442 223.494 580.01 225.004 579.928 227.286C579.924 229.333 578.125 230.661 575.116 230.943C552.324 233.337 529.173 234.706 506.499 237.769Z" fill="black"/>
<path d="M835.053 599.653C843.191 598.441 843.55 606.94 835.244 607.037C823.779 608.297 812.313 609.552 800.842 610.754C797.943 611.07 792.618 611.349 792.76 607.356C792.737 604.986 794.724 604.062 796.786 603.829C809.607 602.477 822.186 600.787 835.053 599.653Z" fill="black"/>
<path d="M855.85 388.72C855.63 395.114 854.313 401.28 851.88 407.194C850.54 410.452 848.766 411.592 846.717 410.689C842.647 408.834 847.956 399.926 848.143 396.169C850.477 386.83 848.175 377.955 844.131 369.478C842.512 364.577 849.108 362.878 850.782 367.525C853.761 374.28 856.073 381.196 855.85 388.72Z" fill="black"/>
<path d="M878.755 388.672C878.755 390.412 878.875 392.162 878.726 393.889C878.616 398.848 871.741 398.722 872.434 393.562C872.978 387.754 871.867 382.187 870.381 376.641C869.619 373.797 870.245 371.776 871.955 371.155C878.235 369.736 878.851 384.318 878.755 388.672Z" fill="black"/>
<path d="M786.584 580.937C785.101 580.937 783.603 581.072 782.139 580.906C777.485 580.633 777.327 574.549 782.08 574.312C785.886 573.889 789.699 573.507 793.517 573.215C799.107 572.58 800.07 579.852 794.333 580.434C791.774 580.814 789.179 580.951 786.6 581.195C786.595 581.109 786.59 581.023 786.584 580.937Z" fill="black"/>
<path d="M182.265 887.963C179.364 892.942 174.106 895.115 171.327 900.214C170.536 901.502 169.213 902.096 167.813 901.231C163.358 898.297 173.871 887.575 176.717 885.62C179.085 884.319 181.039 885.462 182.265 887.963Z" fill="black"/>
<path d="M527.17 749.011C521.858 749.586 520.361 744.385 525.109 742.89C527.946 742.203 533.544 739.797 534.605 743.788C535.881 747.774 529.452 748.512 527.17 749.011Z" fill="black"/>
<path d="M312.586 906.989C310.856 909.463 309.714 916.471 305.555 914.122C302.461 911.605 305.049 907.694 306.172 904.807C307.842 901.463 312.421 903.427 312.586 906.989Z" fill="black"/>
<path d="M350.803 518.459C379.143 527.604 409.112 522.446 435.455 509.902C454.61 523.457 475.585 533.901 497.214 542.808C500.278 544.097 501.749 545.86 502.792 548.958C509.86 569.081 517.57 589.278 529.005 607.373C537.129 619.235 552.715 617.55 564.941 614.284C599.502 604.151 630.733 585.45 663.342 570.532C665.699 569.381 667.496 569.297 669.883 570.464C681.273 576.034 692.769 581.387 704.53 586.961C704.53 588.981 704.53 591.302 704.53 593.514C647.426 627.659 578.25 691.678 512.281 697.991C476.191 700.615 456.743 665.241 442.054 637.652C424.754 605.486 414.875 570.342 408.307 534.563C407.741 531.854 406.727 526.643 403.187 527.742C401.659 528.238 400.718 529.714 401.012 531.618C401.392 534.074 401.983 536.496 402.469 538.936C403.165 546.206 408.022 556.915 405.066 563.324C391.391 595.107 378.739 627.307 368.389 660.319C348.607 723.666 333.377 788.563 311.889 851.342C309.882 855.987 307.222 860.379 304.548 864.695C302.463 868.06 299.273 869.28 295.21 868.533C280.576 865.294 265.224 864.565 251.044 859.652C246.734 857.846 245.793 856.284 246.012 851.599C246.495 841.277 247.544 831.059 249.741 820.902C267.817 715.632 298.944 612.18 350.803 518.459Z" fill="black"/>
<path d="M357.719 428.527C381.688 439.777 407.315 444.253 433.496 446.393C439.354 447.201 444.153 443.245 448.293 439.673C481.05 409.271 483.815 412 450.099 379.514C445.98 375.447 440.925 373.677 435.261 373.461C420.387 372.894 405.805 370.591 391.644 365.965C367.648 356.747 314.889 348.271 313.69 316.33C314.464 309.482 313.901 302.546 315.259 295.787C324.636 297.831 333.787 299.773 343.404 299.525C349.634 299.365 354.119 296.977 357.329 291.302C374.908 262.864 380.956 229.465 378.245 196.383C379.119 196.742 379.896 196.835 380.319 197.271C387.508 203.685 396.866 206.624 405.112 211.35C411.002 213.129 416.452 215.681 421.49 219.197C482.304 259.099 548.151 290.291 609.843 328.676C620.861 335.914 631.581 343.609 642.378 351.178C650.413 357.464 640.905 366.023 639.243 373.366C635.137 386.127 627.17 396.883 619.736 407.865C617.895 410.588 616.984 410.816 613.87 409.452C563.433 386.396 518.778 352.798 473.215 321.601C465.469 316.179 457.697 310.791 450.026 305.263C438.231 294.915 429.682 280.923 417.013 271.46C412.755 269.411 409.913 274.86 413.063 278.009C424.209 290.851 434.594 304.688 449.06 314.027C477.525 381.782 512.221 406.375 576.196 439.066C580.651 441.632 580.69 441.761 578.939 446.714C567.218 478.325 557.697 511.81 538.053 539.608C533.225 545.5 528.252 546.817 521.115 544.082C512.061 540.613 503.001 537.128 494.12 533.247C440.213 511.356 395.064 472.548 357.719 428.527ZM430.28 464.028C436.403 463.67 442.146 462.158 447.353 459.08C450.484 456.58 460.403 452.387 457.125 447.525C454.565 444.288 450.268 448.172 447.905 450.146C441.642 455.539 433.693 456.927 425.645 456.998C422.259 456.989 421.624 462.195 424.841 462.995C426.608 463.497 428.463 463.698 430.28 464.028ZM451.503 472.182C456.228 472.429 457.974 465.671 452.685 465.405C448.446 465.318 446.347 472.04 451.503 472.182Z" fill="black"/>
<path d="M610.533 519.65C621.396 497.158 633.103 475.245 646.525 454.18C672.019 413.477 689.95 368.416 717.539 328.964C721.495 323.036 728.81 324.613 734.553 326.612C765.412 339.077 794.385 356.237 821.811 374.967C835.158 384.004 827.972 400.445 823.523 412.474C807.806 447.378 791.538 482.067 775.668 516.913C770.042 529.108 764.278 541.241 758.438 553.334C753.084 565.144 744.209 573.99 730.509 571.007C723.571 569.926 717.247 566.93 710.898 564.034C677.397 548.99 644.522 533.758 610.533 519.65Z" fill="white"/>
<path d="M278.725 287.59C280.134 296.73 282.374 298.584 289.116 296.368C290.152 299.066 291.45 353.106 290.644 360.241C212.017 399.221 130.17 364.108 98.7251 283.419C96.0121 275.026 88.0761 259.777 97.3551 253.34C106.638 248.532 128.878 230.343 137.115 230.797C148.849 269.301 173.339 313.2 216.719 320.078C242.08 323.874 265.914 308.726 278.725 287.59Z" fill="black"/>
<path d="M304.522 322.277C311.811 339.676 327.56 351.99 344.912 358.573C373.235 368.016 401.749 379.893 431.939 380.847C445.762 380.586 452.921 394.169 462.139 402.372C464.357 405.327 468.926 409.789 465.101 413.243C457.196 420.625 449.337 428.055 441.436 435.441C438.759 437.943 435.706 438.884 431.901 438.566C360.27 435.08 306.313 398.644 303.868 322.598C304.085 322.491 304.304 322.384 304.522 322.277Z" fill="white"/>
<path d="M302.793 160C302.125 160.131 301.611 160.393 301.182 160.292C295.955 158.986 292.172 162.2 288.959 165.761C283.965 171.24 276.074 150.598 276.442 146.485C275.407 131.057 278.102 116.303 282.483 101.697C284.094 98.6063 283.982 91.4433 288.049 91.2473C303.317 89.6073 315.757 80.8943 328.744 73.5543C334.592 70.3033 346.226 75.4133 352.324 77.5443C372.643 86.5303 370.936 114.553 370.611 133.413C369.997 146.149 365.247 158.554 356.155 167.648C353.753 170.098 350.939 171.812 347.555 172.615C342.286 174.175 336.446 176.815 331.843 172.098C325.366 167.091 318.561 157.602 309.306 161.531C308.243 162.019 306.768 161.603 305.499 161.603C310.229 142.524 314.814 122.793 318.682 103.253C319.526 99.2213 318.868 98.3883 314.767 97.9583C306.579 97.2183 297.16 95.8363 289.786 100.274C289.999 101.829 290.977 101.745 292.006 101.776C298.934 102.153 305.729 101.847 312.629 102.83C311.056 122.114 305.724 140.755 302.793 160ZM331.684 91.1503C327.727 91.0293 326.828 96.0113 330.814 97.3513C338.601 100.614 346.399 103.852 354.195 107.093C356.612 108.098 358.34 107.917 358.784 106.481C359.442 104.354 357.763 103.682 356.304 102.963C348.092 99.1323 340.059 94.5303 331.684 91.1503ZM307.473 111.577C307.954 106.071 303.328 105.487 302.077 110.007C301.636 111.944 301.25 113.901 300.982 115.869C300.697 117.963 301.573 119.347 303.188 119.564C307.124 119.918 306.681 113.572 307.473 111.577ZM333.841 119.47C333.925 121.611 334.265 122.947 335.912 123.245C338.635 123.768 339.431 116.695 340.583 114.73C341.721 111.904 337.121 109.937 336.2 112.83C335.216 115.197 334.469 117.663 333.841 119.47Z" fill="white"/>
<path d="M298.508 348.871C309.593 403.747 326.914 457.139 341.465 511.154C323.595 526.798 310.515 546.779 292.623 562.334C282.544 491.307 299.085 420.16 298.001 348.963C298.17 348.933 298.339 348.902 298.508 348.871Z" fill="black"/>
<path d="M428.314 504.707C408.749 513.402 388.451 517.541 367.406 514.609C358.996 513.249 348.322 511.097 346.012 501.434C337.04 464.464 325.467 427.964 316.062 391.277C322.999 401.202 331.785 409.337 340.426 417.662C364.535 451.468 395.426 479.629 428.314 504.707Z" fill="white"/>
<path d="M293.166 876.464C289.775 888.485 285.327 911.238 269.923 911.167C251.538 910.703 233.152 910.321 214.766 909.934C210.607 909.218 189.852 912.089 192.429 904.997C194.489 897.582 197.731 891.2 205.666 888.194C219.862 882.815 233.336 875.877 246.525 868.387C247.618 867.767 248.553 867.393 249.971 867.725C264.523 871.099 278.185 874.298 293.166 876.464Z" fill="white"/>
<path d="M311.237 287.835C327.319 266.283 345.245 246.205 355.833 221.202C360.85 213.282 366.251 205.772 368.438 196.451C368.815 195.164 369.282 193.904 370.421 192.574C376.11 225.875 368.713 259.62 351.337 288.63C349.88 291.595 347.482 292.604 344.417 292.791C332.718 293.376 322.919 290.477 311.237 287.835Z" fill="white"/>
<path d="M121.091 177.785C123.215 187.309 121.966 197.286 122.518 206.982C122.056 210.93 124.013 217.811 128.787 213.429C133.944 206.408 136.984 199.112 143.154 192.589C143.252 194.038 143.522 194.852 143.319 195.521C141.127 202.368 139.249 209.352 136.72 216.074C135.434 220.907 132.795 224.036 127.74 225.828C121.468 228.329 116.341 232.523 110.4 236.079C104.374 226.111 94.6432 219.286 88.6152 209.43C88.7822 209.202 88.9482 208.974 89.1152 208.746C92.1012 209.903 94.6022 211.822 97.1702 213.687C101.512 217.443 106.821 213.838 104.635 208.44C102.96 202.749 101.011 197.135 99.6682 191.352C99.8942 191.264 100.12 191.176 100.345 191.089C103.196 195.962 104.619 201.518 106.771 206.722C107.942 212.119 114.168 213.424 115.079 206.113C116.774 196.705 117.803 187.17 120.118 177.885C120.442 177.85 120.766 177.818 121.091 177.785Z" fill="white"/>
<path d="M635.588 404.578C640.392 393.378 645.085 382.438 649.923 371.16C656.771 372.409 663.177 374.666 667.296 381.009C668.827 383.985 670.95 388.11 667.996 390.961C666.275 392.68 665.867 394.721 666.453 397.136C667.963 401.283 664.784 402.466 661.608 404.112C659.612 405.137 658.185 406.65 657.882 408.928C657.115 414.508 650.25 413.393 646.453 412.236C642.16 410.539 638.581 407.624 635.588 404.578Z" fill="white"/>
<path d="M738.575 579.597C716.831 591.295 693.702 572.026 673.793 563.975C656.841 555.379 639.596 547.326 623.211 537.659C619.935 535.209 615.703 533.465 614.082 529.398C642.776 541.368 670.938 554.691 699.548 566.905C711.941 572.479 724.183 579.71 738.32 578.789C738.404 579.058 738.49 579.328 738.575 579.597Z" fill="white"/>
<path d="M724.109 591.3C734.232 590.621 743.228 587.339 750.616 579.293C754.18 591.806 756.638 603.014 756.114 615.673C756.1 617.667 756.213 620.263 753.722 621.076C747.715 623.866 743.409 621.945 739.799 616.508C734.7 608.054 728.21 600.2 724.109 591.3Z" fill="white"/>
<path d="M285.851 288.761C286.488 265.215 291.959 243.316 307.863 224.664C309.645 225.695 311.126 226.553 312.501 227.348C307.475 237.112 302.711 247.245 300.365 258.219C296.382 274.493 299.024 275.995 286.824 289.128C286.5 289.006 286.176 288.884 285.851 288.761Z" fill="white"/>
<path d="M309.391 251.383C314.42 255.744 320.16 256.944 327.099 255.312C321.444 263.584 315.263 270.633 309.312 278.586C304.922 284.504 299.929 289.913 308.772 294.673C308.586 295.285 308.58 296.011 308.214 296.384C304.977 299.599 306.857 305.525 301.562 307.051C297.974 304.481 300.618 293.215 300.206 288.762C300.437 282.504 303.359 276.87 304.349 270.751C305.678 264.218 306.959 257.626 309.391 251.383Z" fill="white"/>
<path d="M311.823 243.045C313.886 238.726 315.954 234.396 318.146 229.805C329.36 232.413 339.82 231.309 349.808 225.598C345.322 231.582 339.353 236.327 335.825 243.078C335.496 243.694 334.927 244.369 334.31 244.613C326.412 247.669 317.968 252.214 311.823 243.045Z" fill="white"/>
<path d="M301.96 193.132C299.158 193.198 296.366 191.138 294.235 194.248C286.229 182.667 293.69 171.095 307.117 171.376C317.141 171.41 328.515 172.916 335.408 180.996C343.057 190.193 333.208 204.624 321.723 202.418C315.646 200.841 308.789 201.715 303.203 198.705C309.868 199.715 316.585 201.209 323.355 200.855C328.912 200.494 332.827 197.223 334.268 192.185C338.134 175.956 315.069 170.874 303.101 174.351C301.049 175.216 296.364 175.027 296.495 178C297.158 180.589 299.949 179.086 301.96 179.014C301.96 183.767 301.96 188.385 301.96 193.132Z" fill="white"/>
<path d="M390.966 102.641C395.184 86.2716 390.244 65.1166 371.988 60.4796C367.772 58.9776 363.219 58.1446 359.372 55.7996C359.432 55.5476 359.492 55.2956 359.552 55.0436C365.062 54.7366 370.475 57.4406 375.848 58.6046C394.236 63.9416 398.249 87.1526 391.83 102.897C391.542 102.812 391.254 102.727 390.966 102.641Z" fill="white"/>
<path d="M393.494 124.637C403.886 131.557 395.618 144.007 387.38 147.944C387.116 147.8 386.853 147.656 386.589 147.512C388.859 139.992 391.129 132.472 393.494 124.637Z" fill="white"/>
<path d="M633.156 462.69C628.453 471.194 623.749 479.698 618.742 488.752C617.583 486.453 617.713 484.692 618.62 483.076C623.228 476.117 625.878 467.377 632.284 461.895C632.575 462.161 632.866 462.426 633.156 462.69Z" fill="white"/>
<path d="M306.399 191.863C313.77 192.36 321.013 192.848 328.42 193.347C325.369 199.021 313.464 195.057 308.148 194.784C306.808 194.596 305.682 194.126 306.399 191.863Z" fill="white"/>
<path d="M306.911 180.62C306.63 178.936 306.739 177.855 308.525 177.686C313.493 177.445 319.408 176.991 323.295 180.62C317.677 180.62 312.407 180.62 306.911 180.62Z" fill="white"/>
<path d="M707.405 330.836C703.558 337.129 700.025 342.908 696.492 348.687C696.346 348.639 696.2 348.591 696.054 348.543C697.433 343.559 700.291 339.076 702.377 334.352C703.246 332.587 704.284 330.894 707.405 330.836Z" fill="white"/>
<path d="M430.281 464.026C428.464 463.695 426.61 463.495 424.841 462.993C421.628 462.192 422.255 456.988 425.646 456.997C433.695 456.926 441.643 455.538 447.906 450.144C450.267 448.171 454.572 444.286 457.126 447.524C460.419 452.371 450.469 456.592 447.355 459.079C442.147 462.156 436.404 463.668 430.281 464.026Z" fill="black"/>
<path d="M451.504 472.18C446.348 472.038 448.448 465.316 452.687 465.403C457.975 465.669 456.228 472.428 451.504 472.18Z" fill="black"/>
<path d="M331.684 91.1506C340.06 94.5306 348.091 99.1316 356.304 102.964C357.763 103.683 359.442 104.355 358.784 106.482C358.34 107.918 356.612 108.099 354.195 107.094C346.399 103.852 338.601 100.615 330.814 97.3516C326.829 96.0126 327.726 91.0296 331.684 91.1506Z" fill="black"/>
<path d="M307.473 111.577C306.68 113.574 307.123 119.916 303.188 119.563C301.573 119.346 300.697 117.963 300.982 115.868C301.25 113.9 301.636 111.944 302.077 110.006C303.329 105.487 307.955 106.07 307.473 111.577Z" fill="black"/>
<path d="M333.841 119.473C334.469 117.666 335.216 115.2 336.2 112.833C337.121 109.942 341.722 111.906 340.582 114.732C339.422 116.71 338.646 123.753 335.912 123.248C334.265 122.95 333.925 121.614 333.841 119.473Z" fill="black"/>
</svg>
