<svg width="960" height="960" viewBox="0 0 960 960" fill="none" xmlns="http://www.w3.org/2000/svg">
<path d="M334.711 877.852C217.768 866.426 138.57 769.207 183.162 653.472C80.0784 670.107 -19.6206 565.404 83.7044 490.982C144.657 462.809 262.428 497.703 260.091 577.032C342.706 544.585 470.815 579.074 490.373 675.184C507.157 770.282 438.476 882.243 334.711 877.852ZM291.584 786.909C270.323 798.936 253.202 814.386 236.799 832.174C418.346 986.552 610.445 643.863 381.921 581.296C368.894 577.668 355.306 575.572 342.313 572.012C340.196 570.278 337.717 570.249 335.272 570.413C310.928 571.418 286.737 574.893 263.78 583.389C260.425 584.588 259.089 586.332 258.393 589.769C254.492 615.279 234.259 632.003 211.943 642.366C216.48 650.001 220.453 656.723 225.263 663.822C227.198 666.931 226.397 668.447 222.775 669.263C220.585 669.757 218.995 668.792 217.264 667.769C208.666 663.138 200.666 657.025 191.506 653.612C168.614 713.281 173.623 792.081 232.26 828.699C245.173 808.833 265.451 794.55 285.612 782.565C290.011 780.273 292.978 775.531 298.438 775.131C300.125 773.41 301.813 771.689 303.384 770.087C295 759.086 286.815 748.432 278.745 737.691C276.828 735.139 274.642 733.428 271.527 732.376C255.83 728.057 240.752 715.506 252.639 698.875C248.944 691.012 244.955 683.016 241.266 675.109C225.503 641.411 267.56 622.777 291.388 609.716C295.438 607.053 340.722 591.471 330.709 605.78C343.59 607.058 379.527 609.491 345.336 619.946C351.989 624.33 357.294 628.859 363.476 633.636C365.151 634.964 365.845 636.738 365.36 638.908C364.256 642.532 359.06 642.13 356.048 643.776C383.528 675.882 394.886 741.81 362.592 773.232C364.739 778.452 367.65 782.051 372.374 785.174C390.35 800.362 413.118 812.489 424.505 833.796C425.91 838.04 421.344 840.436 418.366 837.313C406.766 819.463 388.471 807.671 372.032 794.668C371.336 796.035 372.113 797.139 372.263 798.514C373.882 806.398 375.383 814.284 374.076 822.398C372.742 831.253 368.971 832.697 361.707 836.469C332.886 859.378 279.195 822.383 291.584 786.909ZM211.312 654.893C211.065 652.192 207.847 648.964 206.547 646.394C202.448 640.76 206.878 636.083 212.234 633.956C249.871 618.115 261.61 580.958 246.529 544.241C233.948 513.041 189.462 498.165 159.031 491.448C-0.0795746 463.623 17.3724 667.012 182.601 645.93C193.44 644.579 202.238 650.023 211.312 654.893ZM351.212 715.751C340.485 698.801 331.4 681.004 322.229 663.19C321.09 660.909 321.421 659.508 323.519 658.589C331.982 655.268 341.143 650.772 350.395 653.778C343.334 658.275 335.216 658.333 327.859 662.351C336.409 679.781 344.758 696.803 353.185 713.981C363.882 709.118 368.707 719.924 371.822 714.698C373.792 709.394 376.31 704.037 375.299 698.255C375.256 688.904 357.587 643.163 347.884 644.425C338.832 645.661 329.906 644.753 321.099 642.431C301.581 637.777 304.548 634.516 286.74 646.122C261.13 660.537 278.864 717.79 298.499 731.849C302.773 735.087 307.159 738.039 312.814 738.105C318.677 738.134 325.924 739.422 328.851 732.84C331.523 727.86 335.651 723.769 339.258 719.463C340.995 717.558 343.377 716.799 346.022 717.216C347.784 717.493 349.439 717.323 351.212 715.751ZM313.807 780.186C303.991 802.115 337.544 818.882 353.667 826.148C378.155 837.185 363.037 789.086 357.378 779.944C354.877 782.16 352.486 784.224 350.178 786.377C347.944 793.284 347.342 800.926 345.676 808.044C344.877 811.433 339.705 811.054 339.335 807.607C338.894 801.318 341.556 795.487 342.114 789.164C331.196 790.722 321.797 788.134 313.807 780.186ZM366.934 734.473C367.352 727.119 360.678 723.809 354.949 726.898C348.124 731.195 328.311 738.967 337.008 749.223C340.927 753.007 346.388 747.467 348.518 743.551C350.741 740.306 350.901 740.229 354.38 741.953C360.883 745.176 366.864 741.613 366.934 734.473ZM314.123 810.051C310.139 805.19 307.158 800.205 304.92 794.323C302.429 796.737 300.172 798.925 297.419 801.594C297.739 808.403 301.682 814.003 306.926 819.213C309.473 815.97 311.742 813.081 314.123 810.051ZM253.037 683.498C253.24 683.326 253.443 683.154 253.646 682.982C245.073 669.246 244.26 646.826 259.755 637.766C262.7 635.741 265.747 633.865 268.691 631.839C269.627 631.195 271.026 630.775 270.729 628.677C244.512 637.351 236.358 661.352 253.037 683.498ZM318.94 814.205C316.656 817.583 314.602 820.62 312.4 823.877C315.926 826.731 319.84 828.891 323.944 830.791C326.261 828.138 328.417 825.669 330.751 822.997C326.613 819.917 322.791 817.072 318.94 814.205ZM256.936 704.55C248.685 712.939 260.7 725.813 269.588 724.403C265.464 717.931 261.316 711.423 256.936 704.55ZM330.144 833.67C337.371 836.878 344.079 837.36 351.167 833.791C346.008 831.274 341.179 828.918 336.177 826.478C334.219 828.812 332.34 831.052 330.144 833.67ZM298.559 791.619C300.989 789.154 304.392 787.374 305.597 783.967C306.567 781.606 307.375 779.176 308.418 776.849C308.993 775.566 308.555 775.087 307.321 774.695C301.789 778.824 299.136 784.532 298.559 791.619Z" fill="black"/>
<path d="M426.419 265.804C408.495 274.747 389.366 274.836 370.203 275.602C395.733 419.559 215.353 532.937 97.9342 443.732C95.2952 445.453 92.9132 444.037 90.4822 442.321C-42.7988 318.672 118.858 79.9712 284.758 172.664C295.555 141.894 334.24 140.496 361.527 134.743C389.675 130.938 428.025 123.325 445.782 152.122C512.108 60.5892 669.554 52.2282 724.415 159.709C731.558 133.566 753.149 130.81 776.783 128.899C814.099 127.426 871.329 112.802 901.727 138.864C926.908 164.335 927.611 265.52 884.908 276.398C844.099 290.058 774.283 299.791 736.979 274.909C689.047 453.56 481.995 421.801 426.419 265.804ZM283.518 180.01C125.93 87.6662 -33.6758 320.334 96.4802 436.726C99.4432 436.433 101.335 438.21 103.496 439.581C110.393 443.592 116.829 448.822 124.118 452.006C134.916 419.51 151.869 391.912 181.261 373.899C163.199 358.727 172.522 362.136 149.641 357.803C130.841 353.796 113.34 335.733 119.164 315.584C120.409 310.856 121.862 306.152 122.834 301.342C123.758 299.634 123.266 298.084 122.534 296.417C119.589 289.707 118.285 282.672 119.725 275.437C136.303 195.764 267.306 198.719 251.503 291.759C251.294 296.051 248.887 300.253 248.566 304.587C248.275 325.275 243.819 346.824 232.959 364.281C264.27 372.039 298.697 386.596 312.582 417.729C312.785 420.021 310.77 421.153 308.89 419.805C291.793 393.191 263.141 375.417 231.973 370.846C237.82 382.38 242.726 393.943 242.374 407.108C243.38 425.211 226.547 444.249 207.627 437.196C183.183 429.112 174.615 398.855 187.437 377.545C187.239 377.375 187.04 377.205 186.842 377.035C157.153 393.076 138.919 423.225 130.043 455.167C244.856 508.285 387.065 400.439 362.688 275.574C326.014 278.557 333.284 277.024 305.943 301.692C303.761 305.35 298.321 303.484 299.137 298.97C300.427 290.279 307.404 274.371 302.802 266.557C284.58 242.166 283.846 209.353 283.518 180.01ZM710.81 319.589C718.789 308.287 731.109 280.434 730.367 267.055C712.69 246.861 726.234 202.503 707.147 205.218C696.958 203.992 686.177 204.753 676.324 201.867C673.255 200.36 672.9 196.699 675.569 194.553C677.815 192.843 680.837 192.48 683.487 191.681C695.877 187.483 708.147 182.914 720.897 179.843C721.656 179.66 722.706 178.73 722.792 178.044C686.199 59.9212 514.278 64.8642 450.547 158.291C449.186 159.972 448.782 161.557 449.246 163.712C453.01 196.203 460.13 237.092 433.218 261.71C445.355 303.886 477.701 334.367 510.514 361.42C515.594 368.978 523.802 372.075 531.163 376.616C548.855 352.378 569.07 330.367 594.838 315.039C594.621 311.196 594.547 311.409 591.473 310.339C553.31 295.538 543.862 237.283 539.758 201.213C539.501 197.655 537.562 196.402 534.673 195.48C515.583 185.437 522.534 158.864 545.538 161.84C550.888 151.172 562.08 148.706 571.001 156.598C578.321 149.187 590.875 149.046 597.769 156.714C607.891 152.262 614.901 153.536 622.391 160.991C631.035 158.664 638.922 162.19 642.277 169.535C642.736 170.498 643.859 171.439 644.881 171.793C655.824 175.239 655.548 185.733 656.434 195.884C657.959 204.092 654.219 209.985 647.537 214.587C653.332 220.987 650.985 230.946 645.823 236.835C641.689 239.486 639.72 238.8 638.232 244.585C628.811 270.78 634.419 287.84 650.025 310.45C663.31 296.95 697.791 309.256 710.81 319.589ZM690.921 195.896C690.946 196.125 690.97 196.354 690.995 196.582C697.797 197.401 704.649 197.78 711.479 198.303C737.069 200.633 715.341 259.337 748.835 273.616C781.535 289.15 893.017 287.252 905.503 245.973C914.482 218.703 911.857 189.421 906.804 161.68C899.636 129.535 859.584 129.948 833.289 131.496C805.556 134.431 776.997 133.911 749.888 140.778C732.812 145.386 731.134 164.459 730.111 179.405C730.09 184.261 724.392 184.361 720.954 185.961C710.972 189.349 700.782 192.176 690.921 195.896ZM309.48 289.907C318.403 283.091 323.565 272.751 334.884 271.128C360.325 266.524 386.684 270.34 411.787 263.719C438.32 257.537 446.099 232.645 445.358 208.151C443.855 170.63 448.737 138.486 400.076 138.413C371.807 141.151 298.445 143.095 292.01 177.093C289.749 202.225 292.712 237.468 306.703 258.875C315.095 268.13 311.213 278.767 309.48 289.907ZM631.043 213.074C630.728 208.618 628.863 210.938 628.239 208.229C627.424 203.081 613.404 195.147 609.046 190.779C593.944 177.928 573.654 184.026 555.842 185.399C549.353 186.3 540.718 189.579 542.487 197.761C542.796 229.461 573.187 343.818 617.829 294.03C624.469 284.027 625.943 271.845 629.656 260.657C631.932 253.493 634.435 246.409 634.383 238.726C632.829 237.433 628.147 235.829 630.073 233.176C631.298 232.14 633.331 232.498 634.77 233.124C654.33 235.174 648.882 207.283 631.043 213.074ZM187.15 301.997C187.444 305.55 187.29 305.623 184.187 305.464C182.108 305.357 179.94 305.233 177.937 305.679C170.98 307.228 164.017 306.474 157.062 305.994C152.682 306.138 147.97 300.952 144.887 306.046C142.266 309.522 142.009 315.513 144.633 319.356C146.711 322.4 148.806 325.676 153.575 323.874C155.094 323.3 156.441 324.559 156.019 326.12C155.008 330.915 164.946 345.726 167.536 350.962C223.19 423.114 268.275 309.097 233.446 262.324C229.379 270.568 224.225 277.476 217.792 284.066C221.041 285.154 223.154 283.976 225.149 282.379C226.187 281.548 227.217 281.644 228.163 282.482C230.776 285.41 225.124 289.765 222.275 289.754C217.829 290.354 212.9 287.757 208.963 290.682C202.175 295.256 194.94 298.956 187.15 301.997ZM676.629 312.192C667.066 328.351 626.481 395.14 605.253 372.415C594.88 360.102 592.529 343.186 586.189 328.721C573.85 335.614 542.204 368.96 537.827 379.504C598.66 410.359 675.094 381.277 707.021 325.183C698.125 317.802 687.807 313.786 676.629 312.192ZM600.864 311.16C617.262 365.712 621.532 370.088 647.379 314.973C638.529 303.608 632.851 290.816 629.881 276.663C623.745 292.443 619.266 306.619 600.864 311.16ZM670.53 311.066C654.358 311.893 656.647 310.967 649.629 325.092C626.059 374.316 612.584 371.963 596.695 320.891C594.74 322.324 593.074 323.544 591.518 324.684C594.332 334.662 602.541 360.872 609.32 368.188C623.492 385.619 663.798 322.843 670.53 311.066ZM188.856 394.688C184.041 447.593 255.435 442.245 231.793 386.685C231.035 416.759 199.242 423.867 188.856 394.688ZM193.38 378.131C193.846 383.22 193.908 388.038 194.816 392.692C199.55 412.077 222.611 412.487 225.251 391.726C225.42 387.56 225.09 383.374 225.034 379.196C225 376.671 223.921 375.046 221.349 374.545C212.24 378.892 209.256 379.29 193.38 378.131ZM186.118 227.983C184.349 227.903 181.167 228.095 181.241 230.716C181.2 232.12 181.982 233.077 183.31 233.428C187.175 234.064 191.171 234.318 194.997 235.206C204.452 237.418 211.859 243.144 218.88 249.475C220.782 251.119 223.946 255.452 226.374 252.805C227.898 251.121 226.586 249.271 225.28 247.984C214.913 236.98 201.696 228.665 186.118 227.983Z" fill="black"/>
<path d="M619.303 503.029C765.869 407.196 937.227 522.779 853.603 690.801C784.458 837.289 525.652 759.022 553.332 599.627C554.461 593.666 540.434 590.215 535.647 591.079C504.984 593.448 473.192 597.299 443.41 587.394C377.754 571.352 342.548 443.722 406.191 408.406C457.659 389.36 515.915 401.691 566.358 418.774C604.733 431.584 615.294 466.551 619.303 503.029ZM743.399 687.6C745.815 684.225 746.718 683.932 750.295 685.234C773.782 695.317 796.875 710.373 808.896 733.692C962.661 589.741 795.405 393.745 622.712 509.61C620.686 511.221 619.765 512.814 619.897 515.495C624.504 586.303 572.518 572.599 583.013 590.662C586.219 598.556 589.485 606.428 592.901 614.232C594.027 616.805 594.566 619.332 594.336 622.106C593.777 628.219 587.901 625.658 585.076 622.651C576.533 615.93 568.696 608.934 559.845 602.528C550.168 661.085 584.836 715.961 638.003 739.13C652.173 716.703 672.388 697.06 696.747 686.111C700.636 684.524 703.081 681.689 702.599 677.644C692.768 672.668 686.212 664.079 680.469 654.741C674.015 655.259 667.827 655.758 661.408 655.684C656.366 655.542 654.71 653.354 654.608 648.388C657.344 614.325 641.103 562.916 670.014 538.086C705.968 502.761 783.023 521.695 787.085 575.365C787.732 595.732 789.634 616.053 791.12 636.375C791.471 641.267 789.338 644.7 784.645 645.847C776.992 647.717 769.244 649.211 761.509 650.731C760.033 651.021 759.275 651.51 758.516 652.909C753.934 661.961 747.466 669.369 739.262 675.238C740.62 679.291 741.948 683.261 743.399 687.6ZM583.853 611.581C584.005 611.473 584.157 611.366 584.309 611.258C581.653 604.033 578.117 597.106 575.047 590.035C572.514 584.507 573.643 580.021 578.696 576.499C582.677 573.787 587.109 571.808 591.245 569.357C628.966 550.089 613.437 454.384 581.352 434.787C539.986 410.235 454.714 396.324 409.618 414.999C351.698 447.347 387.178 569.585 448.848 581.154C477.519 589.878 507.509 584.974 536.821 583.38C555.766 582.446 569.12 601.97 583.853 611.581ZM804.742 737.095C788.886 716.575 774.46 702.912 750.151 692.588C748.657 709.643 726.158 755.592 708.727 726.88C703.522 716.187 697.67 705.706 694.225 694.276C675.526 703.388 648.094 730.797 644.321 742.95C694.495 767.772 758.049 771.402 804.742 737.095ZM758.18 597.858C757.763 595.115 757.461 593.127 757.232 591.619C727.07 593.617 697.265 592.269 667.499 597.187C663.418 670.571 745.682 716.071 760.837 622.095C761.331 619.465 758.421 614.913 763.106 615.478C777.439 614.874 768.571 581.171 758.18 597.858ZM707.504 679.689C703.334 688.704 709.299 699.617 717.876 703.067C729.358 708.616 741.881 692.674 736.781 681.746C736.149 680.303 735.91 678.689 735.552 677.381C726.185 679.731 717.097 682.847 707.504 679.689ZM702.642 698.777C706.129 707.906 711.166 716.488 715.252 725.396C725.166 740.956 739.385 708.176 741.623 700.081C732.005 715.403 713.213 714.799 702.642 698.777ZM702.729 535.666C698.129 530.877 685.096 542.876 681.159 545.998C674.92 551.988 669.091 559.708 667.843 568.48C668.273 570.663 670.338 571.74 672.08 569.741C676.285 559.956 681.851 551.166 690.839 545.089C693.657 542.43 702.378 539.252 702.729 535.666Z" fill="black"/>
<path d="M884.291 670.62C872.489 700.782 853.276 732.474 824.825 749.188C820.994 750.116 820.008 745.273 823.409 743.745C846.422 728.056 862.382 703.799 874.298 679.025C876.081 675.113 879.694 661.244 884.291 670.62Z" fill="black"/>
<path d="M597.36 750.566C576.675 737.181 559.499 710.43 550.374 687.732C547.344 681.495 553.98 678.348 556.536 685.027C566.373 708.735 582.446 728.823 601.2 745.945C602.474 748.543 600.923 750.688 597.36 750.566Z" fill="black"/>
<path d="M630.189 407.706C624.474 407.696 625.353 402.129 630.599 401.921C655.12 396.958 675.679 380.912 694.114 364.782C696.597 362.508 698.796 362.117 700.303 363.648C701.782 365.151 701.23 367.601 698.818 369.694C678.893 386.524 656.793 403.994 630.189 407.706Z" fill="black"/>
<path d="M164.691 759.585C164.84 757.066 164.751 753.349 168.119 753.174C169.863 753.084 171.023 754.089 171.421 755.605C173.341 772.369 175.621 788.962 183.683 804.073C185.6 807.898 188.3 811.331 190.646 814.941C192.349 816.746 193.194 819.347 191.619 820.432C190.34 821.497 188.532 821.27 186.768 819.272C172.356 802.975 166.387 780.983 164.691 759.585Z" fill="black"/>
<path d="M492.51 798.094C486.345 818.052 474.579 836.199 457.979 849.035C456.296 850.566 453.19 851.871 451.774 849.849C450.656 848.536 450.85 846.873 452.465 845.26C467.376 833.503 477.581 818.144 484.37 800.618C485.848 796.301 490.379 790.891 492.51 798.094Z" fill="black"/>
<path d="M110.755 172.559C110.654 174.505 109.096 175.551 107.6 176.664C90.0085 188.964 73.9795 203.546 61.1055 220.816C36.6235 233.348 111.72 152.844 110.755 172.559Z" fill="black"/>
<path d="M312.178 553.98C302.907 554.796 291.139 555.367 281.568 558.527C279.484 559.256 275.901 560.374 275.238 557.376C274.356 550.061 292.971 548.678 298.23 548.057C307.061 547.578 315.963 546.751 324.799 546.947C329.259 547.425 329.224 553.552 324.737 553.908C320.439 554.099 317.365 553.924 312.178 553.98Z" fill="black"/>
<path d="M499.339 91.703C498.605 93.353 496.737 95.23 494.789 95.917C479.57 103.425 466.822 114.391 454.315 125.533C437.555 126.801 500.82 75.562 499.339 91.703Z" fill="black"/>
<path d="M730.629 443.786C732.186 443.441 734.199 445.049 734.857 446.408C735.991 449.371 732.185 450.568 729.917 450.934C719.71 452.773 709.529 454.654 699.976 458.822C698.683 459.119 697.462 458.924 696.775 457.633C693.482 450.263 725.638 444.399 730.629 443.786Z" fill="black"/>
<path d="M884.004 706.637C881.794 710.934 868.545 738.225 863.035 732.03C862.061 730.882 862.153 729.271 863.595 727.714C869.281 721.577 873.008 714.197 876.947 706.944C878.232 703.204 882.57 702.895 884.004 706.637Z" fill="black"/>
<path d="M681.483 399.076C678.603 404.047 669.953 406.62 665.05 409.871C663.424 410.996 660.926 410.378 659.988 408.842C659.39 407.094 660.6 404.982 662.386 404.226C666.536 401.562 670.693 398.907 674.882 396.305C677.515 394.349 681.256 394.867 681.483 399.076Z" fill="black"/>
<path d="M291.585 786.908C279.179 822.377 332.896 859.379 361.708 836.472C368.948 832.707 372.76 831.247 374.077 822.397C375.384 814.284 373.883 806.397 372.264 798.513C372.114 797.136 371.327 796.043 372.033 794.667C387.645 807.249 405.538 818.291 416.809 835.252C417.924 837.483 420.872 839.696 423.087 838.369C424.461 837.617 425.161 835.763 424.504 833.796C413.116 812.487 390.352 800.363 372.374 785.172C367.655 782.055 364.735 778.447 362.591 773.231C394.873 741.801 383.552 675.937 356.047 643.775C359.062 642.13 364.25 642.53 365.359 638.908C365.844 636.738 365.149 634.964 363.474 633.636C357.288 628.856 351.991 624.334 345.334 619.945C379.537 609.483 343.586 607.062 330.707 605.779C340.755 591.432 295.327 607.11 291.387 609.714C267.571 622.754 225.487 641.436 241.263 675.109C244.951 683.015 248.941 691.014 252.636 698.874C240.751 715.528 255.826 728.046 271.525 732.374C274.64 733.427 276.825 735.138 278.743 737.69C286.813 748.431 294.998 759.084 303.382 770.086C301.811 771.688 300.124 773.409 298.436 775.13C292.976 775.53 290.009 780.271 285.611 782.564C265.449 794.548 245.171 808.832 232.258 828.698C173.625 792.093 168.611 713.264 191.504 653.611C200.664 657.024 208.664 663.137 217.262 667.767C218.993 668.791 220.583 669.755 222.773 669.261C226.396 668.444 227.196 666.928 225.261 663.82C220.45 656.72 216.478 650 211.941 642.364C234.273 632.012 254.473 615.263 258.39 589.766C259.087 586.33 260.423 584.586 263.778 583.386C282.476 576.718 323.792 566.844 342.312 572.007C355.306 575.571 368.892 577.666 381.924 581.303C610.447 643.816 418.301 986.619 236.798 832.171C253.206 814.382 270.322 798.938 291.585 786.908Z" fill="white"/>
<path d="M211.313 654.894C202.237 650.019 193.442 644.587 182.601 645.938C17.9047 667.178 -0.566269 463.791 159.033 491.446C189.445 498.149 233.958 513.059 246.533 544.243C261.594 580.984 249.897 618.097 212.234 633.956C206.856 636.054 202.471 640.79 206.548 646.396C207.875 649.01 211.045 652.154 211.313 654.894Z" fill="black"/>
<path d="M351.212 715.75C349.44 717.322 347.784 717.492 346.022 717.215C343.377 716.798 340.994 717.557 339.258 719.462C335.651 723.77 331.522 727.858 328.851 732.839C325.924 739.419 318.678 738.134 312.814 738.104C307.159 738.038 302.773 735.086 298.501 731.847C278.849 717.78 261.144 660.558 286.739 646.12C304.494 634.551 301.561 637.748 321.099 642.43C329.906 644.752 338.832 645.66 347.884 644.424C357.553 643.1 375.254 688.898 375.299 698.252C376.31 704.034 373.793 709.391 371.822 714.694C368.885 719.938 363.844 709.137 353.186 713.978C344.76 696.8 336.41 679.778 327.86 662.348C335.218 658.329 343.333 658.273 350.396 653.775C341.146 650.764 331.982 655.269 323.52 658.585C321.422 659.505 321.091 660.906 322.23 663.187C331.401 681.004 340.484 698.798 351.212 715.75ZM314.726 663.952C307.936 662.04 289.343 669.358 286.151 674.928C286.347 675.06 286.614 675.353 286.727 675.302C295.8 670.729 305.592 668.245 314.726 663.952ZM337.883 663.836C331.867 664.661 337.251 671.271 338.545 674.225C339.227 675.408 340.444 676.242 341.962 675.423C343.538 674.573 343.781 673.177 343.108 671.657C341.819 668.921 340.705 665.221 337.883 663.836ZM313.469 685.28C311.506 683.134 308.962 675.247 305.611 677.348C302.23 680.008 307.643 684.307 309.182 686.798C311.175 688.655 312.24 687.532 313.469 685.28Z" fill="white"/>
<path d="M313.807 780.184C321.797 788.132 331.195 790.719 342.114 789.16C341.556 795.48 338.893 801.317 339.334 807.604C339.707 811.045 344.876 811.436 345.676 808.041C347.341 800.925 347.943 793.28 350.177 786.374C352.486 784.221 354.877 782.157 357.377 779.941C363.02 789.027 378.16 837.198 353.667 826.144C337.54 818.871 304.005 802.137 313.807 780.184Z" fill="white"/>
<path d="M366.934 734.474C366.864 741.614 360.884 745.177 354.38 741.955C350.901 740.231 350.741 740.308 348.518 743.553C347.411 745.17 346.322 746.859 344.927 748.206C339.106 754.477 331.798 746.189 335.976 740.502C340.548 733.881 348.24 730.847 354.949 726.899C360.675 723.814 367.355 727.116 366.934 734.474ZM357.65 733.162C353.495 735.051 349.2 735.82 344.767 736.115C343.837 736.177 342.947 736.834 341.898 737.276C345.521 743.08 355.507 738.191 357.65 733.162Z" fill="white"/>
<path d="M314.123 810.048C311.742 813.078 309.473 815.967 306.925 819.21C301.681 814 297.738 808.4 297.418 801.591C300.171 798.922 302.428 796.735 304.919 794.32C307.158 800.201 310.138 805.186 314.123 810.048Z" fill="white"/>
<path d="M253.037 683.497C236.344 661.318 244.532 637.35 270.729 628.676C271.026 630.774 269.628 631.194 268.691 631.838C265.747 633.864 262.7 635.74 259.755 637.764C244.26 646.829 245.074 669.239 253.646 682.98C253.443 683.153 253.24 683.325 253.037 683.497Z" fill="white"/>
<path d="M318.94 814.203C322.791 817.07 326.613 819.915 330.751 822.995C328.418 825.667 326.262 828.136 323.944 830.789C319.839 828.889 315.926 826.729 312.4 823.875C314.602 820.619 316.656 817.582 318.94 814.203Z" fill="white"/>
<path d="M256.936 704.551C261.316 711.424 265.464 717.933 269.588 724.404C260.698 725.809 248.687 712.945 256.936 704.551Z" fill="white"/>
<path d="M330.145 833.669C332.341 831.051 334.22 828.811 336.178 826.477C341.18 828.917 346.01 831.273 351.168 833.79C344.08 837.359 337.372 836.878 330.145 833.669Z" fill="white"/>
<path d="M298.56 791.618C299.137 784.531 301.79 778.823 307.321 774.695C308.555 775.086 308.993 775.566 308.418 776.849C307.375 779.175 306.567 781.606 305.597 783.967C304.393 787.373 300.99 789.153 298.56 791.618Z" fill="white"/>
<path d="M283.518 180.012C283.843 209.342 284.583 242.178 302.8 266.56C307.401 274.383 300.435 290.254 299.138 298.972C298.324 303.471 303.759 305.366 305.943 301.693C333.316 276.977 326.078 278.563 362.688 275.576C387.065 400.469 244.842 508.272 130.043 455.169C138.916 423.23 157.155 393.074 186.842 377.037C187.04 377.207 187.239 377.377 187.437 377.547C174.616 398.85 183.182 429.122 207.629 437.198C226.548 444.248 243.379 425.215 242.374 407.109C242.726 393.943 237.821 382.384 231.974 370.848C263.144 375.419 291.794 393.193 308.89 419.808C310.77 421.155 312.785 420.023 312.582 417.731C298.687 386.59 264.283 372.049 232.96 364.283C243.819 346.822 248.275 325.28 248.567 304.589C248.888 300.255 251.296 296.053 251.508 291.76C267.298 198.703 136.293 195.78 119.726 275.44C118.287 282.674 119.592 289.708 122.536 296.419C123.268 298.086 123.76 299.636 122.836 301.344C121.864 306.154 120.41 310.857 119.165 315.586C113.344 335.734 130.841 353.799 149.643 357.804C172.637 362.148 163.219 358.785 181.262 373.901C151.87 391.913 134.917 419.511 124.119 452.008C116.829 448.824 110.395 443.59 103.496 439.584C101.335 438.212 99.443 436.435 96.483 436.726C-33.737 320.3 126.033 87.663 283.518 180.012Z" fill="white"/>
<path d="M710.811 319.59C697.851 309.286 663.3 296.939 650.026 310.455C634.388 287.774 628.823 270.811 638.234 244.59C639.732 238.792 641.689 239.494 645.825 236.841C650.987 230.949 653.333 220.993 647.539 214.592C654.22 209.989 657.963 204.098 656.437 195.888C655.549 185.736 655.825 175.239 644.882 171.798C643.86 171.443 642.738 170.503 642.279 169.539C638.927 162.198 631.033 158.663 622.393 160.995C614.904 153.54 607.893 152.266 597.771 156.718C590.875 149.05 578.324 149.192 571.003 156.602C562.077 148.704 550.886 151.184 545.54 161.844C522.563 158.872 515.561 185.405 534.675 195.485C537.564 196.406 539.502 197.659 539.761 201.216C543.835 237.211 553.347 295.606 591.474 310.345C594.55 311.413 594.624 311.2 594.841 315.043C569.071 330.373 548.86 352.38 531.166 376.62C523.805 372.079 515.596 368.982 510.516 361.424C477.705 334.377 445.353 303.883 433.22 261.714C460.111 237.091 453.043 196.213 449.249 163.716C448.783 161.561 449.187 159.976 450.545 158.292C514.277 64.866 686.203 59.926 722.798 178.049C722.708 178.732 721.658 179.662 720.899 179.845C708.149 182.916 695.878 187.485 683.489 191.683C680.841 192.483 677.819 192.846 675.571 194.555C672.902 196.701 673.256 200.362 676.326 201.868C686.181 204.756 696.955 203.994 707.147 205.221C714.825 205.75 715.961 206.428 717.257 214.177C720.685 232.138 718.617 251.768 730.366 267.057C730.875 267.763 731.207 268.945 731.012 269.759C726.609 287.193 721.194 304.751 710.811 319.59Z" fill="white"/>
<path d="M690.922 195.896C700.783 192.176 710.973 189.348 720.956 185.961C724.386 184.359 730.097 184.262 730.113 179.405C731.137 164.466 732.811 145.375 749.891 140.78C776.999 133.91 805.557 134.433 833.29 131.495C859.585 129.929 899.651 129.545 906.805 161.68C911.863 189.418 914.481 218.706 905.504 245.968C893.14 287.256 781.448 289.131 748.833 273.622C715.241 259.162 737.165 200.756 711.481 198.301C704.649 197.779 697.797 197.401 690.995 196.581C690.972 196.354 690.947 196.125 690.922 195.896Z" fill="black"/>
<path d="M309.481 289.908C311.209 278.78 315.095 268.126 306.704 258.875C292.7 237.456 289.76 202.255 292.008 177.097C298.436 143.081 371.769 141.177 400.074 138.41C448.696 138.492 443.87 170.57 445.358 208.154C446.176 232.441 438.173 257.723 411.785 263.719C386.684 270.341 360.324 266.525 334.884 271.131C323.561 272.758 318.413 283.08 309.481 289.908Z" fill="black"/>
<path d="M631.043 213.072C648.891 207.281 654.323 235.176 634.77 233.122C632.355 231.627 627.463 233.09 630.552 236.108C631.772 237.105 633.156 237.9 634.384 238.724C634.436 246.407 631.933 253.491 629.657 260.655C625.944 271.843 624.47 284.025 617.828 294.026C573.156 343.782 542.839 229.541 542.491 197.761C540.726 189.583 549.349 186.294 555.844 185.398C573.652 184.022 593.949 177.927 609.047 190.778C613.427 195.15 627.395 203.072 628.242 208.227C628.866 210.94 630.727 208.608 631.043 213.072ZM566.916 217.794C568.293 232.474 568.241 247.463 570.385 262.091C570.354 265.646 575.507 265.067 575.527 261.832C574.763 246.237 571.238 230.653 572.507 215.029C572.897 213.076 571.552 211.454 569.564 211.589C564.296 211.948 559.04 212.569 553.807 213.286C552.243 213.5 550.852 214.455 550.558 216.701C555.814 219.167 561.353 215.772 566.916 217.794ZM585.655 213.998C585.659 214.064 585.664 214.13 585.668 214.196C589.067 213.243 603.198 214.1 602.991 209.956C602.842 208.662 601.351 207.841 598.698 208.101C592.831 208.994 586.557 208.879 580.944 210.809C579.527 211.592 579.719 213.533 581.256 213.93C582.698 214.13 584.185 213.998 585.655 213.998ZM588.182 283.212C591.247 288.1 598.17 284.275 600.716 280.95C602.317 279.059 603.764 276.98 603.675 274.347C603.479 272.207 602.063 271.625 600.485 273.25C597.558 279.583 594.762 281.29 588.182 283.212ZM591.724 221.489C591.511 220.902 591.203 219.719 590.667 218.65C589.468 215.884 584.748 216.539 584.943 219.713C583.557 225.939 591.501 229.76 591.724 221.489ZM563.711 225.48C562.785 222.742 559.951 218.342 557.16 222.007C553.911 227.995 562.523 234.868 563.711 225.48ZM636.998 227.602C644.875 226.477 637.635 213.919 634.399 219.162C638.16 220.699 637.932 223.847 636.998 227.602ZM601.861 284.225C600.001 285.467 598.457 286.379 597.075 287.493C594.598 291.708 602.64 290.154 601.861 284.225Z" fill="white"/>
<path d="M187.15 301.996C194.94 298.955 202.175 295.255 208.965 290.682C212.903 287.757 217.831 290.354 222.277 289.754C225.134 289.762 230.771 285.413 228.165 282.482C227.219 281.644 226.189 281.548 225.15 282.379C223.155 283.975 221.042 285.154 217.793 284.066C224.226 277.478 229.381 270.568 233.447 262.324C268.266 309.124 223.199 423.106 167.534 350.961C164.962 345.768 155.006 330.889 156.019 326.12C156.442 324.558 155.095 323.3 153.576 323.874C148.807 325.676 146.712 322.399 144.634 319.356C142.01 315.512 142.266 309.522 144.888 306.046C147.971 300.952 152.683 306.136 157.063 305.994C164.019 306.474 170.981 307.228 177.938 305.68C179.941 305.234 182.108 305.358 184.188 305.465C187.29 305.622 187.444 305.549 187.15 301.996ZM218.09 347.013C216.825 346.113 216.164 346.851 214.979 347.212C208.466 350.124 201.921 351.561 195.122 348.018C194.562 347.726 193.235 347.912 192.953 348.336C191.71 358.276 217.909 354.87 218.09 347.013ZM216.24 294.139C212.284 294.369 204.957 295.767 205.302 300.124C205.724 301.267 206.93 301.053 207.805 300.442C215.766 294.865 218.225 300.238 222.069 297.57C221.369 294.834 218.1 294.586 216.24 294.139ZM200.566 329.153C201.25 334.925 208.589 335.729 210.955 331.346C212 329.267 210.376 326.237 208.059 328.256C204.808 330.875 203.569 328.675 200.566 329.153ZM146.96 316.985C147.426 314.555 145.927 312.092 148.378 310.5C149.469 309.792 149.825 308.693 148.798 307.716C145.484 305.152 141.821 313.153 146.96 316.985ZM206.754 356.3C202.756 356.167 203.821 360.481 207.366 360.064C210.725 360.193 209.912 355.662 206.754 356.3Z" fill="white"/>
<path d="M676.629 312.191C687.808 313.785 698.125 317.801 707.02 325.182C675.093 381.276 598.66 410.359 537.826 379.503C542.203 368.959 573.849 335.612 586.188 328.72C592.525 343.184 594.88 360.102 605.25 372.414C626.485 395.11 666.979 328.478 676.629 312.191Z" fill="white"/>
<path d="M600.864 311.16C619.279 306.611 623.741 292.442 629.881 276.664C632.851 290.816 638.529 303.609 647.379 314.974C621.514 370.25 617.211 365.497 600.864 311.16Z" fill="white"/>
<path d="M670.531 311.066C663.901 322.688 623.501 385.643 609.323 368.189C602.547 360.931 594.302 334.602 591.519 324.684C593.075 323.544 594.741 322.324 596.696 320.891C612.612 372.043 626.088 374.242 649.631 325.09C656.672 310.927 654.352 311.907 670.531 311.066Z" fill="white"/>
<path d="M188.856 394.687C199.261 423.893 231.044 416.725 231.793 386.684C255.428 442.322 184.006 447.52 188.856 394.687Z" fill="white"/>
<path d="M193.381 378.133C209.257 379.292 212.241 378.894 221.35 374.547C223.922 375.049 225.001 376.673 225.035 379.198C225.091 383.376 225.421 387.561 225.252 391.728C222.61 412.496 199.543 412.07 194.817 392.693C193.909 388.04 193.847 383.222 193.381 378.133Z" fill="white"/>
<path d="M186.119 227.984C201.696 228.665 214.915 236.981 225.282 247.985C226.585 249.271 227.903 251.122 226.376 252.806C223.95 255.455 220.776 251.114 218.882 249.476C211.861 243.145 204.454 237.419 194.999 235.207C191.173 234.319 187.176 234.064 183.312 233.429C181.984 233.078 181.201 232.121 181.242 230.717C181.18 228.103 184.337 227.897 186.119 227.984Z" fill="white"/>
<path d="M743.4 687.6C741.949 683.261 740.621 679.291 739.265 675.237C747.465 669.361 753.939 661.967 758.518 652.908C759.277 651.509 760.035 651.02 761.511 650.73C769.245 649.21 776.993 647.716 784.647 645.846C789.34 644.699 791.474 641.267 791.123 636.374C789.637 616.052 787.735 595.731 787.087 575.364C782.984 508.726 666.768 499.382 654.668 565.853C651.098 593.252 654.801 620.86 654.611 648.388C654.714 653.353 656.37 655.541 661.411 655.683C667.832 655.756 674.018 655.254 680.472 654.74C686.215 664.078 692.771 672.667 702.602 677.643C703.089 681.684 700.631 684.53 696.75 686.111C672.389 697.06 652.176 716.701 638.005 739.129C584.832 715.959 550.17 661.072 559.847 602.527C568.687 608.934 576.537 615.932 585.078 622.65C587.993 625.633 593.677 628.27 594.338 622.104C594.568 619.33 594.029 616.803 592.903 614.231C589.487 606.427 586.221 598.555 583.016 590.662C572.431 572.677 624.527 586.273 619.899 515.494C619.767 512.814 620.688 511.221 622.715 509.604C795.423 393.715 962.662 589.835 808.899 733.692C797.069 710.7 774.424 695.761 751.322 685.667C747.68 684.07 745.866 683.736 743.4 687.6Z" fill="white"/>
<path d="M583.853 611.58C569.047 601.943 555.902 582.499 536.822 583.377C507.51 584.974 477.519 589.877 448.849 581.155C387.151 569.57 351.715 447.338 409.617 414.998C454.798 396.322 539.849 410.211 581.349 434.784C613.407 454.215 628.957 550.196 591.247 569.356C587.109 571.808 582.677 573.787 578.696 576.499C573.643 580.021 572.514 584.507 575.047 590.035C578.118 597.106 581.653 604.033 584.31 611.258C584.157 611.365 584.005 611.473 583.853 611.58Z" fill="black"/>
<path d="M804.742 737.096C758.042 771.405 694.499 767.772 644.321 742.952C648.094 730.798 675.526 703.389 694.225 694.278C697.669 705.709 703.522 716.19 708.727 726.882C726.172 755.587 748.64 709.665 750.151 692.59C774.481 702.925 788.881 716.574 804.742 737.096Z" fill="white"/>
<path d="M758.181 597.856C768.586 581.183 777.443 614.864 763.107 615.475C758.413 614.912 761.342 619.461 760.839 622.096C745.681 716.107 663.383 670.502 667.501 597.185C697.272 592.267 727.067 593.616 757.234 591.617C757.462 593.125 757.764 595.113 758.181 597.856ZM704.943 651.643C706.509 659.829 726.028 657.701 729.389 650.969C730.712 648.689 729.011 645.965 726.76 648.569C720.73 654.253 712.388 651.794 704.943 651.643ZM695.338 601.63C698.14 601.193 704.483 603.112 704.493 599.419C704.403 598.139 703.437 597.437 702.198 597.463C697.269 597.567 692.34 597.705 687.416 597.928C685.972 597.993 684.727 598.631 684.744 600.378C685.268 604.353 692.874 601.359 695.338 601.63ZM730.816 600.325C730.817 600.378 730.818 600.43 730.819 600.483C733.212 599.992 740.698 601.876 740.979 598.781C741.168 597.209 739.982 596.48 738.702 596.444C733.676 596.303 728.646 596.25 723.619 596.321C722.296 596.34 721.282 597.271 721.482 598.788C722.134 602.253 728.245 599.91 730.816 600.325ZM717.407 630.858C714.8 632.676 712.36 632.482 709.461 631.67C707.739 631.496 706.777 633.032 707.509 634.624C709.727 639.449 719.709 637.035 717.407 630.858ZM767.144 607.447C769.327 604.088 768.567 599.976 765.907 598.327C763.948 596.662 761.631 600.235 764.012 601.187C767.025 602.366 766.277 604.827 767.144 607.447ZM717.395 663.455C719.681 661.862 723.065 658.974 718.604 658.595C714.618 659.085 714.892 661.142 717.395 663.455Z" fill="white"/>
<path d="M707.505 679.687C717.1 682.845 726.186 679.729 735.553 677.379C735.911 678.687 736.15 680.302 736.781 681.744C741.885 692.668 729.357 708.615 717.878 703.065C709.296 699.612 703.338 688.706 707.505 679.687Z" fill="white"/>
<path d="M702.643 698.777C713.214 714.799 732.006 715.403 741.624 700.081C739.261 708.252 725.436 740.836 715.254 725.396C711.167 716.488 706.13 707.906 702.643 698.777Z" fill="white"/>
<path d="M702.73 535.664C702.421 539.211 693.613 542.465 690.84 545.088C681.853 551.164 676.285 559.956 672.082 569.74C670.306 571.717 668.305 570.713 667.845 568.478C669.093 559.703 674.921 551.988 681.16 545.996C685.144 542.849 698.071 530.896 702.73 535.664Z" fill="white"/>
<path d="M314.726 663.951C305.594 668.243 295.799 670.728 286.728 675.302C286.614 675.352 286.347 675.059 286.151 674.927C289.342 669.357 307.936 662.039 314.726 663.951Z" fill="black"/>
<path d="M337.884 663.836C340.707 665.224 341.818 668.918 343.11 671.656C343.782 673.177 343.539 674.572 341.964 675.422C340.446 676.241 339.228 675.408 338.547 674.225C337.251 671.276 331.869 664.659 337.884 663.836Z" fill="black"/>
<path d="M313.47 685.282C312.24 687.531 311.178 688.661 309.183 686.8C307.643 684.314 302.231 680.008 305.611 677.351C308.954 675.241 311.512 683.139 313.47 685.282Z" fill="black"/>
<path d="M357.65 733.16C355.516 738.179 345.522 743.083 341.898 737.273C342.948 736.831 343.838 736.174 344.767 736.112C349.2 735.818 353.495 735.049 357.65 733.16Z" fill="black"/>
<path d="M566.917 217.795C561.354 215.774 555.815 219.168 550.56 216.702C550.854 214.456 552.245 213.502 553.809 213.287C559.042 212.57 564.299 211.948 569.566 211.59C571.555 211.455 572.9 213.077 572.51 215.03C571.287 230.04 574.507 245.011 575.415 259.993C576.834 263.962 571.046 266.937 570.386 262.092C568.243 247.465 568.295 232.474 566.917 217.795Z" fill="black"/>
<path d="M585.656 213.999C584.186 213.999 582.698 214.13 581.256 213.931C579.734 213.532 579.513 211.595 580.945 210.811C586.558 208.88 592.832 208.996 598.699 208.102C601.352 207.843 602.843 208.663 602.992 209.957C603.155 214.125 589.09 213.232 585.669 214.198C585.665 214.132 585.66 214.065 585.656 213.999Z" fill="black"/>
<path d="M588.183 283.214C594.773 281.29 597.558 279.582 600.485 273.251C602.053 271.636 603.486 272.2 603.675 274.349C603.764 276.981 602.318 279.061 600.716 280.951C598.169 284.278 591.252 288.102 588.183 283.214Z" fill="black"/>
<path d="M591.725 221.492C591.502 229.764 583.557 225.94 584.944 219.715C584.749 216.542 589.469 215.885 590.668 218.653C591.203 219.722 591.512 220.905 591.725 221.492Z" fill="black"/>
<path d="M563.711 225.482C562.521 234.874 553.91 227.991 557.16 222.008C559.953 218.346 562.784 222.742 563.711 225.482Z" fill="black"/>
<path d="M636.998 227.604C637.932 223.849 638.16 220.701 634.399 219.164C637.594 213.92 644.901 226.448 636.998 227.604Z" fill="black"/>
<path d="M601.862 284.227C602.637 290.165 594.598 291.703 597.076 287.495C598.458 286.382 600.002 285.469 601.862 284.227Z" fill="black"/>
<path d="M218.091 347.015C217.923 354.86 191.717 358.287 192.953 348.338C193.235 347.915 194.562 347.728 195.122 348.02C201.921 351.563 208.467 350.126 214.979 347.214C216.163 346.853 216.822 346.116 218.091 347.015Z" fill="black"/>
<path d="M216.241 294.141C218.102 294.588 221.368 294.835 222.07 297.573C218.272 300.233 215.722 294.879 207.806 300.445C206.932 301.056 205.725 301.27 205.304 300.127C204.959 295.769 212.28 294.373 216.241 294.141Z" fill="black"/>
<path d="M200.566 329.155C203.56 328.677 204.818 330.875 208.059 328.258C210.372 326.241 212.004 329.269 210.954 331.348C208.588 335.731 201.251 334.927 200.566 329.155Z" fill="black"/>
<path d="M146.96 316.985C141.82 313.151 145.486 305.152 148.798 307.716C149.825 308.693 149.468 309.792 148.377 310.501C145.927 312.092 147.426 314.554 146.96 316.985Z" fill="black"/>
<path d="M206.755 356.3C209.913 355.663 210.727 360.193 207.367 360.064C203.821 360.48 202.757 356.167 206.755 356.3Z" fill="black"/>
<path d="M704.942 651.646C712.384 651.797 720.732 654.255 726.76 648.571C729.058 645.972 730.695 648.652 729.39 650.971C726.032 657.698 706.521 659.839 704.942 651.646Z" fill="black"/>
<path d="M695.337 601.633C692.868 601.362 685.272 604.355 684.743 600.381C684.726 598.633 685.971 597.996 687.415 597.931C692.34 597.709 697.269 597.57 702.197 597.466C703.436 597.44 704.402 598.142 704.492 599.422C704.389 603.167 698.193 601.167 695.337 601.633Z" fill="black"/>
<path d="M730.815 600.325C728.232 599.909 722.15 602.257 721.48 598.789C721.281 597.272 722.294 596.34 723.617 596.321C728.644 596.249 733.674 596.302 738.7 596.444C739.981 596.48 741.166 597.209 740.977 598.78C740.73 601.866 733.184 599.998 730.817 600.483C730.817 600.43 730.816 600.377 730.815 600.325Z" fill="black"/>
<path d="M717.406 630.859C719.709 637.037 709.726 639.451 707.508 634.625C706.776 633.033 707.738 631.497 709.46 631.672C712.358 632.484 714.8 632.675 717.406 630.859Z" fill="black"/>
<path d="M767.143 607.447C766.277 604.83 767.022 602.363 764.011 601.187C761.63 600.236 763.947 596.66 765.906 598.327C768.566 599.976 769.326 604.088 767.143 607.447Z" fill="black"/>
<path d="M717.394 663.458C714.89 661.144 714.618 659.087 718.604 658.598C723.064 658.978 719.68 661.865 717.394 663.458Z" fill="black"/>
</svg>
