<svg width="960" height="960" viewBox="0 0 960 960" fill="none" xmlns="http://www.w3.org/2000/svg">
<path d="M605.854 856.53C596.033 860.989 588.433 852.526 585.671 843.796C571.246 805.424 558.357 766.554 549.315 726.522C536.475 745.623 527.01 766.036 514.392 785.195C513.625 786.85 513.837 789.125 512.908 790.664C506.157 801.115 499.416 811.577 492.414 821.861C485.729 830.128 478.582 840.636 466.72 840.694C466.799 855.286 459.633 877.464 441.467 875.185C413.39 870.078 390.614 850.255 366.013 836.921C358.256 832.152 345.908 821.713 354.515 812.409C359.214 807.138 365.328 804.876 372.238 804.641C387.145 804.35 401.396 810.978 416.389 808.795C414.643 803.829 413.272 798.538 415.408 793.505C422.97 775.505 430.187 757.264 438.915 739.8C467.566 666.222 500.626 594.574 540.282 526.209C538.717 525.7 537.276 525.232 535.226 524.566C541.862 520.588 541.415 513.746 543.552 507.986C526.862 515.327 509.064 518.308 491.627 523.205C489.973 523.63 488.843 524.002 488.047 525.87C486.404 529.726 484.189 533.336 482.255 537.071C479.593 542.378 477.29 550.087 469.827 548.261C465.01 547.348 460.201 546.213 455.534 544.72C411.018 530.523 369.473 508.091 323.647 497.916C301.341 492.496 280.022 483.9 258.431 476.248C237.518 470.669 271.249 417.044 275.194 403.493C301.949 346.238 326.479 288.132 350.892 229.851C343.79 227.375 333.852 221.94 337.547 212.972C349.163 183.603 360.829 154.22 371.234 124.429C370.753 127.14 370.272 129.85 369.791 132.561C369.905 132.591 370.019 132.621 370.133 132.651C372.989 122.466 376.359 112.427 379.586 102.354C388.524 76.141 445.618 109.803 463.928 114.398C469.801 97.859 483.372 41.652 503.183 40.5C526.97 44.277 551.351 47.382 574.628 53.372C588.538 55.236 601.431 62.9 614.936 66.94C624.864 70.596 641.799 72.042 638.207 86.695C636.972 92.713 635.526 98.759 633.408 104.51C626.694 121.432 621.185 138.982 612.713 155.126C607.288 166.27 594.171 160.235 584.819 159.11C583.408 158.847 582.808 159.065 582.279 160.553C580.652 165.127 579.083 169.765 576.935 174.103C559.751 208.567 548.078 245.283 532.834 280.543C540.153 284.15 586.105 297.873 583.199 305.712C586.776 307.203 587.141 308.474 585.132 311.89C582.704 316.018 580.347 320.189 577.959 324.341C578.065 324.447 578.171 324.552 578.278 324.658C583.398 322.588 588.253 319.741 593.242 317.33C593.613 317.139 594.017 316.409 593.935 316.031C591.726 305.261 610.967 297.567 618.083 291.892C601.904 257.368 613.654 218.928 623.363 184.312C626.575 174.22 629.499 164.048 632.105 153.776C634.294 143.034 640.252 132.34 652.14 130.728C682.014 131.219 726.83 172.807 737.816 199.609C741.801 210.234 734.332 221.327 727.828 229.363C726.532 230.882 725.184 232.262 726.372 234.419C731.149 244.578 724.331 255.759 713.984 258.561C709.604 258.243 707.169 257.383 703.713 261.014C685.084 280.455 686.853 272.866 680.327 300.045C694.558 305.598 696.847 325.848 695.397 339.161C694.39 344.535 695.435 350.427 688.288 350.254C697.04 416.941 685.712 484.08 682.134 550.788C681.508 554.821 680.789 560.035 676.248 561.474C675.701 561.693 675.024 562.303 674.929 562.829C666.512 609.107 649.816 653.099 632.137 696.482C641.75 731.949 663.64 766.011 662.612 803.997C662.447 815.794 654.449 817.595 656.346 820.721C660.815 834.222 667.435 848.71 660.469 862.606C652.14 879.887 645.016 899.018 629.994 911.743C619.812 920.524 603.16 917.597 590.418 919.438C567.489 920.888 573.238 896.07 584.067 884.899C591.705 876.039 604.276 868.978 605.854 856.53ZM493.779 804.451C493.584 804.256 493.39 804.062 493.195 803.867C500.977 797.281 507.868 789.451 510.712 779.422C514.028 772.772 518.364 766.599 521.806 759.995C529.039 744.824 539.703 730.884 547.217 716.336C539.673 682.51 543.545 648.178 553.359 615.257C555.994 606.382 567.208 560.131 575.76 561.125C580.328 562.734 572.498 574.404 571.816 577.898C557.897 618.723 544.189 662.304 552.212 705.744C561.472 754.561 575.643 803.341 595.923 848.616C599.447 853.912 605.425 849.163 609.331 846.79C615.622 842.242 621.912 837.681 628.005 832.874C635.122 827.259 641.825 821.103 649.101 815.714C654.169 811.96 655.994 807.219 655.876 801.316C654.474 767.548 638.167 736.422 626.93 705.154C626.435 705.895 626.033 706.497 625.559 707.206C623.896 702.914 623.156 698.71 626.039 694.861C644.097 653.893 657.698 611.141 667.799 567.547C668.841 562.232 663.202 560.65 659.418 559.125C646.843 554.795 634.427 549.827 622.032 544.965C598.73 535.261 573.916 531.688 549.078 528.657C547.15 528.309 546.336 528.618 545.591 530.295C505.851 599.29 470.969 671.285 444.709 746.632C444.178 745.916 443.81 745.421 443.285 744.714C438.499 755.19 433.864 765.629 429.227 776.159C424.969 787.068 414.935 801.48 427.195 810.804C438.488 818.994 451.172 825.192 463.053 832.512C475.248 839.741 490.934 811.743 496.641 803.175C495.377 803.738 494.578 804.094 493.779 804.451ZM544.651 436.257C517.114 448.598 486.63 450.26 456.877 450.184C452.65 450.206 448.379 450.787 444.217 451.58C437.28 452.626 436.272 460.757 433.749 466.107C430.093 474.982 426.31 483.807 422.804 492.741C421.694 496.955 417.157 505.971 423.761 507.267C446.584 514.058 470.328 522.339 494.195 515.488C509.803 511.041 526.296 509.031 540.667 501.023C571.743 486.289 600.984 466.793 631.816 452.15C634.567 452.223 635.859 454.914 634.183 457.093C630.89 460.558 625.915 461.909 621.915 464.417C599.182 477.309 576.232 489.789 553.006 501.771C552.512 502.032 552.031 502.586 551.841 503.111C550.395 507.107 548.962 511.11 547.671 515.158C547.238 517.228 547.644 518.735 547.838 521.08C577.465 524.873 607.048 529.698 634.528 542.424C644.023 546.525 653.977 549.562 663.708 553.12C665.021 553.6 666.043 553.667 666.327 552.601C668.102 552.864 669.891 553.695 671.177 553.205C673.974 552.138 676.755 549.661 676.157 545.923C675.99 544.88 675.831 543.804 675.904 542.759C679.493 478.55 689.727 414.103 681.721 349.851C666.785 350.904 652.306 355.864 639.187 363.19C633.053 366.186 623.32 375.342 618.729 365.731C616.043 358.447 612.678 351.595 605.488 347.566C599.939 354.061 595.546 361.32 590.456 368.16C589.657 369.935 587.138 370.915 585.595 370.182C581.804 364.806 591.263 360.472 590.257 354.596C592.627 344.05 596.624 333.892 595.576 322.861C589.554 325.38 584.151 329.156 578.321 332.127C575.293 333.798 572.838 335.703 571.314 339.177C561.367 362.006 550.889 384.603 540.894 407.41C545.469 405.72 549.163 402.722 553.698 401.413C554.741 401.261 555.046 400.834 555.294 399.926C556.558 395.297 557.836 390.671 559.228 386.08C560.436 383.434 560.94 377.528 565.042 378.806C567.512 379.545 567.103 382.331 566.436 384.287C562.621 396.613 559.327 408.955 557.173 421.708C580.781 409.445 599.912 390.411 622.25 376.183C623.723 375.286 625.358 375.739 626.032 376.921C626.848 378.352 626.277 379.535 625.204 380.569C612.37 390.701 599.379 400.643 586.494 410.714C574.289 421.924 559.283 428.77 545.116 437.418C544.929 436.953 544.815 436.666 544.651 436.257ZM436.684 251.628C403.587 332.67 365.26 411.682 334.693 493.674C381.335 505.404 423.54 529.826 470.061 541.923C472.53 542.614 473.133 542.069 474.224 539.81C476.671 534.779 479.093 529.99 481.693 524.986C460.276 526.126 439.146 520.825 419.382 512.975C411.531 510.694 412.327 500.987 414.158 494.917C402.203 496.118 374.367 485.879 364.554 478.525C356.939 472.61 362.059 464.059 370.352 462.65C359.595 454.627 359.678 444.938 374.343 443.305C367.381 433.707 382.763 429.661 390.202 430.965C399.377 431.73 407.077 436.297 414.893 440.786C416.563 433.191 422.956 413.601 433.007 423.632C437.357 430.023 437.629 438.108 438.326 445.676C445.04 442.63 451.968 442.402 459.039 442.447C478.854 442.36 498.878 442.02 518.214 437.182C521.855 436.214 522.392 430.631 524.347 427.755C544.2 388.63 559.007 346.926 580.06 308.513C558.88 297.746 536.692 289.305 514.051 282.169C488.927 270.571 462.362 262.29 436.684 251.628ZM430.968 249.801C420.561 245.329 409.135 245.12 398.327 242.831C393.641 239.927 388.815 237.758 383.285 237.124C375.237 235.38 367.178 233.681 359.143 231.876C357.911 231.599 357.336 231.817 356.836 232.973C326.741 306.596 293.563 378.825 261.451 451.565C259.933 455.649 255.243 468.465 260.483 470.026C282.994 478.541 305.9 486.251 329.178 492.443C358.67 409.876 398.498 331.311 430.968 249.801ZM503.298 136.888C473.806 125.9 444.451 114.594 414.962 103.603C407.378 101.426 389.583 94.599 385.957 104.809C384.058 109.007 382.215 113.282 380.921 117.691C371.521 150.342 357.555 181.395 345.476 213.096C343.846 217.242 344.369 218.566 348.33 220.591C365.44 226.871 383.971 228.324 401.27 234.213C414.375 238.644 428.302 239.687 441.044 245.37C445.484 247.148 449.958 248.839 454.377 250.554C460.117 241.339 496.548 156.672 503.298 136.888ZM703.004 253.775C700.931 251.528 700.016 250.049 700.246 248.376C700.616 246.299 702.167 245.651 703.977 246.866C707.278 251.222 712.399 253.307 717.601 251.23C728.346 247.293 725.001 232.733 716.175 228.516C715.349 228.131 713.894 228.602 713.15 227.847C713.37 226.104 715.311 224.326 715.514 222.549C716.707 215.856 717.789 209.138 718.672 202.397C718.376 176.757 687.536 163.754 666.536 157.246C658.945 155.619 641.834 147.133 639.159 158.556C637.058 165.717 635.421 173.155 631.056 179.306C626.796 190.141 624.319 201.583 620.863 212.684C618.812 219.474 616.809 226.254 615.963 233.332C614.38 247.567 613.124 279.48 623.971 289.514C625.532 289.966 626.672 290.982 626.395 292.513C626.128 293.99 626.811 294.738 627.805 295.44C635.042 301.562 644.563 302.372 653.195 299.151C668.005 293.856 677.148 280.296 688.588 270.312C694.01 265.374 699.045 260.171 703.004 253.775ZM527.552 278.633C543.183 238.357 559.467 198.455 575.432 158.297C553.331 151.885 531.453 145.537 509.356 139.126C493.889 177.246 479.011 215.705 459.909 252.5C482.728 261.316 505.087 269.955 527.552 278.633ZM536.882 139.746C548.008 112.32 559.042 85.121 570.142 57.759C549.795 53.858 529.258 51.037 508.84 47.539C503.671 46.68 499.645 48.236 496.595 52.445C483.273 71.879 477.909 94.977 470.588 117.1C492.39 125.789 514.517 133.296 536.882 139.746ZM542.408 141.494C561.895 145.849 580.763 152.361 600.615 154.891C604.09 155.424 605.377 154.58 606.882 151.553C616.393 130.341 626.119 108.673 631.368 85.946C632.235 81.005 631.097 79.407 626.341 77.777C609.21 71.883 592.814 66.23 575.767 59.637C564.663 86.885 553.612 114 542.408 141.494ZM650.338 823.4C638.295 833.599 626.054 843.405 613.143 852.481C612.684 852.809 612.341 853.608 612.325 854.198C612.227 857.8 611.622 861.261 609.951 864.495C602.863 880.408 581.948 887.431 580.942 906.399C580.692 910.587 581.777 912.266 585.982 912.786C595.656 913.709 605.358 911.78 615.02 911.334C634.653 909.755 648.259 873.534 655.526 857.643C659.758 846.14 654.659 834.217 650.338 823.4ZM461.334 839.48C448.799 832.83 436.152 825.189 424.265 817.28C421.806 815.617 419.85 814.195 416.916 815.516C409.226 816.404 401.547 815.814 393.931 814.401C383.009 813.181 369.87 807.705 360.67 816.286C358.255 818.566 358.205 819.782 360.164 822.414C362.938 826.141 366.514 829.005 370.441 831.343C393.125 843.803 414.233 860.995 439.504 867.783C456.957 872.182 457.034 850.726 461.334 839.48ZM427.983 427.741C424.422 431.887 423.027 437.352 421.596 442.525C416.096 458.81 400.374 432.313 380.62 439.072C385.115 442.869 390.175 444.851 395.026 447.985C398.295 450.151 396.315 455.261 392.408 454.652C384.935 453.045 377.815 449.406 369.985 451.759C373.857 459.74 392.576 460.394 390.689 467.273C389.702 471.718 383.383 469.552 379.943 469.659C375.874 470.106 371.617 469.248 368.076 471.772C379.731 481.152 394.803 483.768 408.861 487.629C411.443 488.208 414.204 488.519 415.016 491.913C420.882 478.211 426.266 465.076 431.845 451.395C432.188 446.333 431.302 441.093 430.938 436.01C430.609 433.157 429.884 430.322 427.983 427.741ZM688.496 343.181C689.94 331.056 690.237 314.177 679.401 306.181C677.421 311.101 681.414 313.602 677.33 317.343C667.785 325.099 654.653 326.097 643.091 329.022C631.524 331.426 620.122 335.194 610.588 342.374C616.74 347.238 621.314 353.205 623.72 360.679C624.733 364.028 624.829 363.962 627.85 362.236C646.173 350.836 666.25 342.696 688.496 343.181ZM619.364 329.989C635.443 323.833 652.698 321.175 669.154 315.889C672.448 314.961 673.728 312.659 674.029 309.32C674.679 301.508 676.276 293.824 678.987 286.441C678.826 286.332 678.664 286.223 678.503 286.114C666.866 299.964 647.69 311.005 629.64 302.734C626.235 311.764 622.838 320.775 619.364 329.989ZM621.669 296.434C585.211 323.492 608.999 304.537 600.75 343.749C604.371 339.591 609.545 337.19 611.66 331.926C615.381 321.953 619.498 312.128 623.512 302.266C624.824 299.044 624.881 299.067 621.669 296.434ZM528.373 434.1C535.423 431.968 542.1 428.522 549.001 425.842C549.518 425.623 549.996 424.856 550.129 424.263C551.216 419.091 552.029 414.242 553.099 408.963C547.732 411.156 542.621 413.599 537.345 415.966C533.597 421.539 531.543 427.987 528.373 434.1Z" fill="black"/>
<path d="M359.774 114.95C364.661 99.9995 369.841 82.3835 384.563 74.3095C386.617 73.2585 389.616 72.1115 391.052 74.6725C394.123 79.4655 379.763 82.0705 375.222 95.0515C371.837 102.452 369.677 110.435 366.038 117.707C363.853 121.32 359.593 118.754 359.98 115.019C359.912 114.996 359.843 114.973 359.774 114.95Z" fill="black"/>
<path d="M519.837 810.979C512.307 824.314 496.56 847.938 482.585 854.042C480.022 853.696 478.96 851 481.287 849.396C494.208 838.787 503.875 824.935 512.631 810.829C514.226 807.294 519.58 805.28 519.837 810.979Z" fill="black"/>
<path d="M242.923 468.392C245.336 493.229 257.809 485.261 256.881 492.654C255.576 496.44 250.804 494.047 248.384 492.866C241.431 488.551 237.28 482.342 236.524 474.09C236.372 470.403 235.766 466.586 236.522 462.941C237.335 459.038 242.904 459.415 243.207 463.352C243.367 464.993 243.24 466.662 243.24 468.319C243.135 468.342 243.029 468.367 242.923 468.392Z" fill="black"/>
<path d="M464.942 568.17C458.749 568.565 456.772 562.828 462.548 562.013C471.029 561.621 478.237 558.237 484.526 552.707C486.724 550.776 489.53 546.238 492.708 548.761C494.103 549.913 494.411 551.967 493.055 553.556C485.74 562.093 476.396 567.634 464.942 568.17Z" fill="black"/>
<path d="M659.302 79.6262C658.799 81.9182 658.468 84.2662 657.742 86.4852C656.351 90.6652 650.61 88.8872 651.621 84.5382C652.46 78.2602 651.734 72.1592 649.376 66.2612C648.347 63.8892 646.912 60.3332 649.927 58.8272C657.305 56.8332 658.701 74.6062 659.302 79.6262Z" fill="black"/>
<path d="M682.073 845.383C681.523 852.288 680.275 859.022 677.585 865.427C675.922 870.831 669.835 870.912 671.34 865.418C673.665 858.227 675.884 851.129 675.695 843.514C676.923 838.721 682.444 841.033 682.073 845.383Z" fill="black"/>
<path d="M352.486 84.2114C353.908 79.5964 357.005 75.4184 359.35 71.1744C361.956 67.4904 367.205 71.2864 364.701 75.1564C361.978 79.3934 357.589 94.6234 352.13 84.4874C352.249 84.3954 352.368 84.3034 352.486 84.2114Z" fill="black"/>
<path d="M483.463 869.203C478.462 866.579 483.72 863.002 486.344 861.014C489.209 858.56 491.747 855.66 494.722 853.356C497.447 851.478 500.753 854.775 498.942 857.54C494.506 862.213 489.84 867.211 483.463 869.203Z" fill="black"/>
<path d="M681.785 76.0592C681.972 80.1432 677.083 82.5612 675.442 77.9602C674.975 74.1242 669.606 65.4572 674.014 63.2232C679.762 61.2412 681.22 71.9252 681.785 76.0592Z" fill="black"/>
<path d="M224.138 474.016C227.976 473.995 227.911 479.373 228.989 482.123C230.324 485.869 225.317 488.218 223.465 484.86C222.23 481.646 218.405 474.671 224.138 474.016Z" fill="black"/>
<path d="M483.706 573.723C479.132 573.385 477.958 568.115 482.621 566.946C484.77 566.158 487.79 565.026 489.061 567.744C490.846 571.447 486.262 572.626 483.706 573.723Z" fill="black"/>
<path d="M493.778 804.452C494.577 804.095 495.377 803.739 496.64 803.176C490.964 811.721 475.226 839.747 463.053 832.513C451.17 825.193 438.487 818.995 427.193 810.806C414.932 801.476 424.97 787.076 429.225 776.161C433.862 765.63 438.497 755.193 443.283 744.716C443.808 745.423 444.176 745.918 444.707 746.633C470.967 671.287 505.849 599.291 545.589 530.297C546.333 528.62 547.147 528.311 549.076 528.659C573.914 531.692 598.728 535.262 622.03 544.968C634.425 549.83 646.841 554.798 659.416 559.128C663.225 560.639 668.82 562.245 667.798 567.549C657.697 611.143 644.095 653.895 626.037 694.862C623.137 698.668 623.91 702.951 625.558 707.208C626.032 706.498 626.434 705.897 626.929 705.156C638.169 736.424 654.47 767.549 655.877 801.318C655.993 807.221 654.168 811.963 649.1 815.716C641.824 821.105 635.121 827.261 628.004 832.875C621.911 837.682 615.621 842.243 609.33 846.792C605.431 849.191 599.44 853.894 595.924 848.617C575.642 803.342 561.472 754.561 552.209 705.745C544.187 662.301 557.895 618.729 571.813 577.899C572.633 573.947 580.298 563.013 575.76 561.128C567.34 559.706 555.794 607.08 553.354 615.257C543.544 648.183 539.669 682.508 547.215 716.336C539.702 730.887 529.038 744.823 521.806 759.997C518.362 766.601 514.026 772.773 510.71 779.422C507.867 789.451 500.975 797.283 493.194 803.867C493.388 804.061 493.583 804.257 493.778 804.452Z" fill="white"/>
<path d="M544.65 436.257C544.814 436.666 544.928 436.952 545.113 437.417C559.281 428.769 574.285 421.924 586.491 410.713C599.376 400.643 612.367 390.7 625.201 380.569C627.914 378.572 625.475 374.227 622.246 376.183C599.908 390.411 580.776 409.445 557.169 421.708C559.323 408.956 562.617 396.611 566.432 384.287C567.097 382.335 567.51 379.54 565.038 378.806C560.937 377.521 560.431 383.441 559.224 386.079C557.832 390.67 556.554 395.297 555.29 399.925C555.042 400.833 554.737 401.261 553.694 401.413C549.159 402.722 545.466 405.72 540.89 407.41C550.885 384.603 561.364 362.006 571.31 339.176C572.834 335.702 575.289 333.796 578.317 332.126C584.149 329.153 589.548 325.38 595.572 322.859C596.621 333.888 592.623 344.05 590.254 354.594C591.26 360.468 581.801 364.805 585.591 370.18C587.138 370.905 589.651 369.937 590.453 368.158C595.544 361.317 599.936 354.06 605.485 347.564C612.678 351.593 616.038 358.445 618.726 365.729C623.318 375.341 633.05 366.182 639.184 363.189C652.303 355.863 666.784 350.902 681.718 349.849C689.725 414.102 679.49 478.548 675.902 542.757C675.828 543.801 675.987 544.878 676.154 545.921C676.753 549.659 673.972 552.136 671.174 553.203C669.888 553.693 668.098 552.862 666.324 552.599C666.04 553.666 665.018 553.598 663.705 553.118C653.974 549.559 644.02 546.523 634.525 542.42C607.046 529.695 577.46 524.87 547.835 521.077C547.646 518.742 547.238 517.228 547.668 515.155C548.96 511.108 550.392 507.104 551.838 503.108C552.028 502.583 552.509 502.03 553.003 501.769C576.229 489.787 599.18 477.307 621.912 464.415C625.919 461.906 630.883 460.557 634.18 457.092C635.856 454.913 634.564 452.222 631.814 452.151C600.979 466.793 571.742 486.288 540.663 501.021C526.293 509.032 509.799 511.041 494.192 515.489C470.325 522.338 446.581 514.059 423.758 507.267C417.092 505.935 421.737 496.929 422.8 492.741C426.306 483.807 430.089 474.982 433.745 466.107C436.258 460.757 437.277 452.623 444.213 451.58C448.375 450.788 452.645 450.206 456.873 450.185C486.629 450.261 517.114 448.597 544.65 436.257Z" fill="black"/>
<path d="M436.683 251.629C462.358 262.29 488.928 270.573 514.05 282.17C536.691 289.307 558.877 297.748 580.059 308.515C559.006 346.927 544.198 388.632 524.343 427.755C522.399 430.638 521.829 436.23 518.213 437.184C498.876 442.023 478.852 442.362 459.038 442.449C451.967 442.404 445.039 442.632 438.325 445.678C437.63 438.113 437.355 430.022 433.007 423.634C422.948 413.61 416.572 433.18 414.893 440.788C407.078 436.299 399.376 431.732 390.202 430.967C382.767 429.662 367.375 433.713 374.343 443.308C359.659 444.944 359.611 454.644 370.352 462.653C362.068 464.071 356.928 472.606 364.554 478.527C374.388 485.884 402.121 496.102 414.157 494.92C412.331 500.992 411.523 510.696 419.381 512.978C439.145 520.828 460.275 526.129 481.692 524.989C479.094 529.993 476.67 534.783 474.223 539.813C473.132 542.072 472.529 542.617 470.06 541.926C423.539 529.829 381.333 505.407 334.692 493.677C365.258 411.683 403.586 332.671 436.683 251.629Z" fill="white"/>
<path d="M430.968 249.8C398.498 331.309 358.67 409.874 329.179 492.441C305.901 486.248 282.995 478.539 260.485 470.023C255.116 468.642 260.152 455.066 261.454 451.564C293.564 378.823 326.742 306.593 356.835 232.97C357.337 231.815 357.912 231.597 359.144 231.874C367.179 233.679 375.237 235.378 383.286 237.122C388.809 237.771 393.649 239.912 398.328 242.829C409.132 245.123 420.566 245.323 430.968 249.8Z" fill="black"/>
<path d="M503.298 136.889C496.548 156.673 460.117 241.34 454.379 250.554C449.96 248.839 445.485 247.148 441.046 245.37C428.302 239.687 414.377 238.646 401.271 234.214C383.972 228.325 365.441 226.872 348.331 220.593C344.37 218.567 343.847 217.243 345.477 213.097C357.556 181.397 371.522 150.344 380.922 117.693C382.216 113.284 384.059 109.009 385.958 104.811C389.662 94.549 407.359 101.462 414.963 103.604C444.451 114.595 473.806 125.901 503.298 136.889Z" fill="black"/>
<path d="M703.004 253.774C699.045 260.171 694.01 265.373 688.589 270.311C677.15 280.297 668.005 293.855 653.196 299.151C644.569 302.366 635.035 301.571 627.805 295.439C626.812 294.737 626.128 293.989 626.395 292.513C626.671 290.982 625.532 289.966 623.972 289.514C613.128 279.551 614.386 247.502 615.962 233.333C616.809 226.255 618.812 219.475 620.863 212.685C624.318 201.584 626.795 190.142 631.055 179.307C635.421 173.157 637.055 165.716 639.157 158.557C641.821 147.102 658.981 155.651 666.533 157.246C687.52 163.731 718.381 176.78 718.671 202.396C717.787 209.137 716.705 215.856 715.513 222.549C715.311 224.324 713.379 226.105 713.149 227.847C713.887 228.603 715.347 228.132 716.174 228.516C724.988 232.729 728.36 247.299 717.599 251.231C712.389 253.304 707.287 251.227 703.976 246.866C702.121 245.633 700.648 246.314 700.245 248.377C700.016 250.048 700.931 251.527 703.004 253.774ZM637.092 185.887C628.794 189.08 642.655 192.691 645.131 194.714C650.414 197.759 650.112 196.699 647.312 201.958C640.447 214.856 634.479 228.152 629.04 241.698C627.331 245.42 633.493 246.748 634.454 243.272C641.386 228.204 646.845 212.233 655.838 198.247C657.308 196.39 656.817 194.249 654.711 193.177C648.842 190.322 643.657 187.247 637.092 185.887ZM685.485 211.439C686.349 210.796 687.475 210.36 687.787 209.593C687.958 208.449 686.537 206.513 685.282 206.059C679.551 203.696 673.829 201.308 668.035 199.11C666.828 198.652 664.933 197.759 664.202 199.818C663.574 201.583 665.217 202.313 666.45 202.915C672.848 206.007 678.74 208.847 685.485 211.439ZM665.003 212.351C663.579 212.676 662.12 212.896 660.741 213.357C657.309 214.851 659.798 218.815 663.007 217.41C669.368 215.733 672.245 221.743 674.136 226.653C674.626 227.653 675.383 228.733 676.556 228.066C677.299 227.644 678.142 226.348 678.012 225.607C676.939 219.488 672.878 213.19 665.003 212.351ZM634.733 270.882C635.953 278.206 646.887 277.466 651.586 273.777C653.601 272.613 657.322 267.328 652.393 268.024C644.928 273.115 643.205 272.586 634.733 270.882ZM631.371 198.893C626.654 198.613 624.941 204.392 630.449 204.008C632.863 203.599 633.905 204.058 635.098 206.177C635.591 207.826 636.662 209.655 638.487 209.763C643.983 207.606 635.69 198.191 631.371 198.893ZM717.542 239.908C717.179 237.427 716.168 234.894 713.428 235.067C713.473 235.673 713.316 236.403 713.6 236.862C716.109 240.534 712.569 241.74 711.616 244.823C715.061 246.873 716.507 242.354 717.542 239.908ZM642.892 279.933C642.875 279.867 642.858 279.8 642.84 279.734C635.867 279.207 642.171 285.932 647.029 281.034C648.704 278.255 644.207 279.503 642.892 279.933Z" fill="white"/>
<path d="M527.552 278.632C505.087 269.953 482.728 261.315 459.908 252.499C479.01 215.704 493.888 177.245 509.355 139.125C531.453 145.536 553.331 151.884 575.431 158.296C559.468 198.454 543.183 238.357 527.552 278.632Z" fill="white"/>
<path d="M536.882 139.744C514.517 133.294 492.391 125.787 470.588 117.097C477.907 94.9784 483.274 71.8744 496.595 52.4424C499.645 48.2334 503.671 46.6774 508.84 47.5364C529.258 51.0344 549.795 53.8554 570.142 57.7564C559.041 85.1194 548.008 112.318 536.882 139.744Z" fill="black"/>
<path d="M542.408 141.493C553.612 114 564.663 86.8847 575.767 59.6367C592.81 66.2267 609.213 71.8827 626.341 77.7767C631.097 79.4067 632.235 81.0047 631.366 85.9447C626.119 108.672 616.392 130.341 606.883 151.553C605.377 154.579 604.09 155.424 600.615 154.891C580.762 152.359 561.896 145.848 542.408 141.493Z" fill="white"/>
<path d="M650.338 823.398C654.662 834.207 659.758 846.142 655.526 857.639C648.269 873.509 634.662 909.744 615.02 911.332C605.357 911.778 595.655 913.707 585.981 912.784C581.776 912.264 580.691 910.585 580.941 906.397C581.95 887.426 602.861 880.41 609.95 864.493C611.621 861.259 612.226 857.798 612.324 854.196C612.34 853.606 612.683 852.807 613.142 852.479C626.054 843.404 638.294 833.597 650.338 823.398Z" fill="black"/>
<path d="M461.333 839.482C457.048 850.725 456.948 872.19 439.503 867.784C414.231 860.998 393.125 843.806 370.439 831.347C366.513 829.007 362.936 826.144 360.162 822.417C358.203 819.784 358.253 818.569 360.668 816.289C369.865 807.705 383.012 813.187 393.929 814.403C401.545 815.817 409.225 816.407 416.914 815.519C419.848 814.198 421.804 815.62 424.263 817.283C436.15 825.19 448.801 832.833 461.333 839.482Z" fill="black"/>
<path d="M427.983 427.742C431.998 433.354 431.745 444.544 431.844 451.395C426.263 465.078 420.881 478.208 415.014 491.913C414.202 488.52 411.441 488.208 408.86 487.628C394.8 483.767 379.733 481.154 368.075 471.772C371.613 469.25 375.876 470.104 379.942 469.659C383.379 469.554 389.704 471.717 390.687 467.273C392.606 460.425 373.814 459.705 369.984 451.759C377.813 449.405 384.934 453.045 392.407 454.653C396.312 455.261 398.297 450.153 395.025 447.986C390.171 444.851 385.117 442.873 380.619 439.073C400.358 432.308 416.09 458.809 421.596 442.527C423.029 437.353 424.421 431.889 427.983 427.742Z" fill="white"/>
<path d="M688.496 343.18C666.252 342.694 646.173 350.835 627.851 362.236C624.83 363.962 624.734 364.028 623.721 360.679C621.313 353.203 616.744 347.239 610.589 342.374C620.125 335.193 631.524 331.426 643.092 329.021C654.652 326.097 667.786 325.098 677.331 317.343C681.413 313.605 677.423 311.098 679.402 306.18C690.238 314.182 689.939 331.045 688.496 343.18Z" fill="white"/>
<path d="M619.363 329.987C622.837 320.773 626.235 311.762 629.639 302.733C647.693 311.003 666.863 299.963 678.502 286.113C678.663 286.222 678.825 286.331 678.986 286.44C676.274 293.823 674.679 301.506 674.028 309.319C673.727 312.658 672.446 314.96 669.153 315.888C652.697 321.173 635.442 323.83 619.363 329.987Z" fill="white"/>
<path d="M621.669 296.434C624.882 299.067 624.824 299.044 623.512 302.266C619.497 312.128 615.38 321.953 611.659 331.926C609.543 337.191 604.371 339.59 600.749 343.749C608.998 304.501 585.208 323.504 621.669 296.434Z" fill="white"/>
<path d="M637.092 185.887C643.654 187.244 648.844 190.322 654.711 193.177C656.817 194.249 657.308 196.39 655.839 198.248C647.813 210.166 643.428 224.053 637.118 236.897C635.292 239.623 635.391 245.606 631.116 245.282C629.137 244.991 628.29 243.566 629.04 241.699C634.479 228.153 640.447 214.857 647.312 201.959C650.111 196.7 650.414 197.759 645.131 194.714C642.652 192.683 628.795 189.091 637.092 185.887Z" fill="black"/>
<path d="M685.484 211.44C678.742 208.849 672.845 206.007 666.45 202.915C665.217 202.313 663.573 201.583 664.2 199.818C664.932 197.759 666.827 198.653 668.033 199.11C673.827 201.308 679.551 203.696 685.281 206.059C686.539 206.512 687.957 208.45 687.786 209.593C687.475 210.361 686.348 210.797 685.484 211.44Z" fill="black"/>
<path d="M665.003 212.352C672.877 213.192 676.938 219.49 678.011 225.61C678.141 226.351 677.298 227.647 676.555 228.069C675.382 228.736 674.625 227.656 674.135 226.655C672.245 221.745 669.366 215.734 663.006 217.413C659.807 218.819 657.302 214.85 660.74 213.359C662.12 212.897 663.579 212.676 665.003 212.352Z" fill="black"/>
<path d="M634.732 270.883C643.22 272.591 644.93 273.111 652.392 268.024C657.319 267.33 653.603 272.612 651.585 273.778C646.89 277.469 635.947 278.205 634.732 270.883Z" fill="black"/>
<path d="M631.371 198.893C635.687 198.19 643.984 207.606 638.487 209.763C636.659 209.651 635.594 207.829 635.098 206.177C633.381 201.629 628.308 206.218 627.081 202.241C626.482 200.082 629.581 198.855 631.371 198.893Z" fill="black"/>
<path d="M717.542 239.908C716.509 242.353 715.06 246.875 711.616 244.823C712.568 241.743 716.108 240.528 713.599 236.862C713.316 236.403 713.473 235.673 713.428 235.067C716.168 234.894 717.178 237.426 717.542 239.908Z" fill="black"/>
<path d="M642.891 279.935C644.205 279.504 648.704 278.257 647.029 281.037C642.163 285.936 635.872 279.206 642.84 279.736C642.856 279.802 642.874 279.868 642.891 279.935Z" fill="black"/>
</svg>
