<svg width="960" height="960" viewBox="0 0 960 960" fill="none" xmlns="http://www.w3.org/2000/svg">
<g clip-path="url(#clip0_1557_7541)">
<path d="M444.265 241.437C447.269 217.409 447.269 217.409 457.481 198.186C443.364 179.965 425.743 163.846 415.331 143.121C414.43 141.519 414.931 140.518 416.432 139.517C465.19 106.578 513.647 73.4389 562.405 40.5C622.776 104.876 683.047 169.352 743.618 234.028C742.417 234.929 741.616 235.53 740.315 236.531C811.899 239.034 809.096 257.456 810.698 321.431C812.5 442.775 815.703 564.218 821.11 685.461C820.609 716.998 827.217 749.737 818.607 780.573C808.695 815.614 767.146 809.407 738.512 809.607C697.664 809.007 656.916 807.705 616.068 807.805C495.225 808.206 373.582 800.497 253.54 810.108C227.409 813.112 201.179 815.114 174.948 815.114C157.527 815.514 135.701 809.707 138.004 788.182C139.105 766.957 141.008 745.832 141.508 724.607C147.015 589.548 144.311 454.388 147.515 319.229C150.218 294.7 144.812 248.245 178.552 245.842C267.056 239.635 355.761 244.04 444.265 241.437ZM262.05 395.719C266.155 384.606 270.761 372.792 280.973 365.984C306.403 354.17 298.694 420.548 294.589 432.763C293.988 435.266 295.39 436.467 296.992 436.667C300.195 437.168 301.597 439.07 302.698 441.673C312.61 464.1 319.818 488.128 334.836 507.951C342.645 518.764 355.761 520.867 367.875 517.363C395.308 509.253 410.726 483.222 429.348 463.399C446.168 444.877 465.59 427.056 489.519 418.746C495.025 417.545 500.131 414.641 505.638 412.439C476.804 386.008 466.091 346.761 457.982 309.918C447.769 297.303 446.668 266.066 443.865 249.346C354.66 251.449 265.154 247.845 176.049 254.553C170.542 255.153 166.337 258.457 164.035 263.563C151.92 301.408 156.526 342.656 154.724 382.003C154.924 508.752 155.024 635.602 149.117 762.252C184.759 754.643 220.902 757.946 256.944 759.648C258.847 759.749 259.347 759.248 259.748 757.346C261.35 750.538 262.551 740.826 271.061 739.825C276.868 739.024 282.775 739.124 288.381 741.227C297.592 744.23 295.089 754.342 294.889 761.951C312.51 761.951 329.73 761.951 346.951 761.951C344.948 757.246 344.848 755.043 345.649 749.937C351.456 711.592 358.564 673.146 363.27 634.801C333.835 642.811 303.599 638.806 280.672 617.681C255.342 599.159 170.943 485.325 219.3 465.702C210.49 453.587 159.93 408.534 195.772 403.728C190.866 395.118 184.459 387.209 181.756 377.498C179.753 369.388 185.76 363.681 193.67 366.384C206.785 371.991 216.797 382.604 228.811 390.213C227.409 379.2 211.391 343.958 225.107 338.852C228.611 337.55 231.715 338.752 234.117 341.255C235.92 343.057 237.622 344.959 238.823 347.162C247.233 363.381 255.142 378.699 262.05 395.719ZM664.025 271.673C668.029 279.582 669.631 287.592 674.337 295C697.064 338.952 652.01 376.596 611.963 384.506C610.662 384.906 609.16 385.908 608.459 387.009C601.651 397.221 594.042 407.133 583.229 413.44C630.685 435.266 674.537 491.933 701.369 535.985C741.015 600.461 758.136 689.466 728 760.249C755.733 760.349 783.465 760.75 811.198 759.949C814.602 762.051 813.301 746.933 813.701 745.432C807.894 595.955 802.988 446.479 800.586 296.902C798.984 281.384 802.288 259.458 784.166 253.051C762.841 245.642 738.813 243.74 716.587 246.743C707.776 250.548 699.166 254.553 690.356 258.457C686.651 260.159 686.551 260.159 688.654 263.864C703.972 288.793 695.261 318.027 690.155 344.659C683.247 370.089 688.553 394.117 694.661 418.846C694.761 420.248 693.459 422.451 692.158 423.151C679.242 426.455 675.538 382.003 675.738 372.892C675.338 337.55 698.665 299.906 678.442 266.867C677.44 265.165 676.539 264.765 674.737 265.766C671.233 267.968 667.629 269.77 664.025 271.673ZM472.899 240.636C451.874 294.099 465.19 361.779 506.539 402.227C561.203 447.58 608.86 385.207 617.97 332.344C618.471 330.142 619.872 327.739 617.57 325.636C616.569 322.633 618.771 320.03 622.476 320.931C632.988 323.033 637.994 306.213 635.491 298.104C634.089 292.397 631.186 287.792 625.179 286.09C621.675 285.389 618.971 289.193 616.168 290.295C609.861 292.197 603.453 293.699 597.146 295.301C592.941 296.001 588.536 297.003 584.431 297.804C577.523 297.303 570.714 296.602 564.107 299.405C560.302 300.707 558.6 297.303 561.003 294.299C547.087 290.895 533.27 287.291 520.355 280.884C515.349 278.781 510.243 280.483 505.538 282.385C498.129 284.988 491.221 283.186 487.016 277.48C485.514 275.477 485.814 273.775 487.616 272.273C489.218 270.972 490.72 271.172 492.322 272.273C496.427 274.876 500.632 275.377 505.237 272.674C492.222 264.064 481.409 253.752 472.899 240.636ZM811.298 769.961C780.162 769.76 748.024 767.958 717.187 770.361C690.055 789.183 651.61 784.177 620.073 786.28C592.64 784.478 537.375 788.382 516.651 771.963C478.305 769.961 439.059 770.761 400.514 772.163C365.272 769.86 329.73 771.362 294.389 770.661C293.788 779.572 293.287 788.182 292.787 796.892C417.734 792.587 542.681 798.895 667.629 798.094C699.466 798.494 731.304 799.495 763.141 799.996C784.467 800.897 810.497 795.891 811.298 769.961ZM503.635 426.956C494.324 429.759 485.514 435.266 476.503 439.07C475.803 439.371 475.202 440.672 475.102 441.573C472.298 493.134 493.924 540.89 519.154 584.542C521.757 592.752 547.988 563.317 551.792 560.213C580.426 529.477 602.953 494.035 624.378 458.093C625.579 456.19 625.479 456.09 624.178 455.389C606.256 479.017 590.738 505.849 563.806 520.466C559.001 523.97 554.395 527.975 549.489 531.379C543.282 536.085 537.575 530.778 535.373 524.771C530.868 516.061 526.462 507.351 521.857 498.54C516.551 504.848 511.545 511.556 506.339 518.063C501.233 524.671 493.824 518.764 493.123 512.056C486.715 483.923 482.01 450.083 503.635 426.956ZM286.379 375.295C286.079 375.295 285.778 375.195 285.478 375.195C275.366 385.407 272.963 399.724 268.057 412.539C264.353 419.647 256.644 415.442 255.242 409.035C247.133 391.214 240.425 372.592 231.214 355.371C232.816 369.388 239.424 383.505 240.425 398.022C240.725 407.633 230.013 405.731 224.907 401.125C214.594 393.817 204.883 385.707 194.17 378.899C193.97 378.999 193.87 379.2 193.67 379.3C198.075 387.71 203.481 395.619 208.287 403.829C210.089 406.932 211.491 410.236 209.088 413.64C205.383 418.646 199.276 414.942 194.37 415.042C194.17 415.342 193.97 415.643 193.77 415.943C201.979 429.959 213.994 441.273 224.306 453.687C226.108 455.79 227.81 459.094 230.013 459.494C247.733 453.387 264.253 441.173 282.875 435.967C290.184 424.353 290.784 388.811 286.379 375.295ZM258.246 799.696C258.246 789.283 258.246 779.171 258.246 768.659C221.903 766.456 185.26 763.253 148.617 771.562C148.416 782.776 142.71 800.096 158.228 803.3C191.267 808.706 225.007 802.399 258.246 799.696ZM501.333 701.179C464.089 707.587 432.652 723.606 408.723 753.041C440.461 754.643 471.598 745.532 503.235 747.034C500.532 731.715 499.43 716.598 501.333 701.179ZM569.914 420.749C554.195 426.455 537.876 428.458 521.857 422.05C520.655 430.76 518.353 438.87 518.453 447.48C519.554 460.696 522.958 473.411 526.963 486.026C547.187 475.213 571.415 455.289 577.422 444.677C571.415 440.572 572.316 427.857 569.914 420.749ZM531.568 493.835C535.173 500.443 538.376 506.85 542.081 513.057C542.782 514.259 545.184 514.86 546.886 514.96C565.909 518.063 602.953 462.498 616.969 447.48C610.862 442.374 605.055 437.568 599.348 432.863C578.624 462.598 562.605 475.513 531.568 493.835ZM557.499 55.9182C557.599 52.5142 555.296 50.8122 552.693 51.8133C531.969 64.7286 511.845 78.7451 491.421 92.2611C468.594 107.98 445.667 123.498 423.04 139.517C422.139 140.418 421.438 142.42 421.739 143.622C422.74 145.924 426.044 146.926 428.246 145.023C471.197 115.288 516.25 87.4554 557.499 55.9182ZM511.745 431.461C511.545 431.361 511.344 431.261 511.144 431.161C490.32 452.486 496.427 485.024 501.833 511.355C502.234 511.656 502.634 511.856 503.035 512.156C508.041 505.348 514.048 499.441 519.554 493.034C519.854 492.633 519.955 491.732 519.654 491.232C513.547 478.617 511.244 464.901 509.042 451.285C508.541 444.677 510.844 438.069 511.745 431.461ZM268.057 798.795C272.963 798.394 277.669 797.994 282.374 797.793C284.277 797.693 284.877 796.992 284.877 795.19C285.178 784.578 285.578 774.065 285.979 763.453C285.878 751.038 289.883 749.036 275.066 749.136C265.254 748.235 268.658 790.785 268.057 798.795ZM521.957 144.523C517.852 133.81 503.836 172.656 501.833 176.06C499.631 181.166 497.728 186.372 495.826 191.578C495.025 193.681 495.826 195.283 497.828 195.983C499.931 196.684 500.532 194.982 501.132 193.581C506.939 176.661 516.05 161.343 521.957 144.523Z" fill="black"/>
<path d="M589.94 872.05C645.406 869.547 690.058 868.145 743.221 867.845C751.431 866.343 755.436 877.557 746.025 878.958C644.705 881.261 543.285 885.165 442.066 882.562C436.359 880.76 438.562 872.45 444.369 873.051C490.723 872.35 545.388 871.85 589.94 872.05Z" fill="black"/>
<path d="M175.044 873.087C173.542 806.709 178.047 823.429 223.801 853.264C230.209 858.069 238.518 867.18 230.109 874.289C219.096 884.801 208.183 895.413 197.17 905.826C191.763 911.532 176.145 923.647 174.543 908.829C174.643 896.915 175.044 885.001 174.943 873.087H175.044ZM183.754 838.947C183.754 860.873 183.754 882.198 183.754 904.524C197.07 891.509 209.885 878.994 223 866.179C211.487 855.266 197.67 847.357 183.754 838.947Z" fill="black"/>
<path d="M310.104 920.139C304.597 919.939 295.987 920.439 297.289 912.43C299.592 888.602 301.694 864.774 304.097 841.046C303.897 835.739 304.798 828.131 311.506 827.43C317.813 828.03 329.327 827.63 328.225 836.741C325.722 858.166 324.821 879.691 323.62 901.217C322.619 911.729 324.621 922.642 310.104 920.139C310.104 920.239 310.104 920.139 310.104 920.139ZM320.516 836.54C317.413 836.941 312.307 834.438 311.906 838.643C309.403 863.072 308.102 887.4 304.297 911.729C307.1 911.229 315.11 914.032 315.01 910.428C316.411 885.598 316.211 861.27 320.516 836.54Z" fill="black"/>
<path d="M283.376 829.828C287.381 830.529 295.591 828.827 294.89 835.134C292.487 861.065 292.387 887.396 288.282 913.026C286.08 920.735 277.269 917.131 271.663 915.93C264.955 914.428 266.256 906.819 266.356 901.513C267.357 881.789 268.359 862.066 269.56 842.343C270.161 832.131 272.664 830.028 283.376 829.828ZM281.474 909.322C283.276 885.394 284.978 861.465 286.78 837.337C283.577 838.238 278.17 836.236 277.97 840.641C276.268 861.365 275.767 882.19 274.366 902.914C273.965 909.522 272.964 908.321 279.972 909.522C280.173 909.522 280.373 909.422 281.474 909.322Z" fill="black"/>
<path d="M262.047 395.715C255.139 378.695 247.33 363.377 238.719 347.358C237.518 345.156 235.816 343.254 234.014 341.451C231.511 338.948 228.507 337.747 225.003 339.049C211.287 344.155 227.306 379.396 228.708 390.409C216.794 382.8 206.682 372.088 193.566 366.581C185.657 363.878 179.65 369.484 181.652 377.694C184.255 387.305 190.763 395.215 195.669 403.925C159.826 408.631 210.386 453.684 219.196 465.898C170.94 485.521 255.139 599.256 280.569 617.877C303.596 639.002 333.732 643.007 363.166 634.998C358.561 673.243 351.352 711.788 345.545 750.133C344.745 755.24 344.845 757.442 346.847 762.148C329.627 762.148 312.406 762.148 294.786 762.148C294.986 754.539 297.589 744.427 288.278 741.423C282.671 739.421 276.764 739.321 270.958 740.022C262.447 741.023 261.246 750.734 259.644 757.542C259.244 759.444 258.743 759.945 256.841 759.845C220.798 758.143 184.656 754.839 149.014 762.448C152.117 681.753 154.921 601.058 154.52 520.262C156.623 437.965 149.314 354.567 160.828 272.87C162.63 264.861 166.634 255.45 175.945 254.749C265.051 248.041 354.556 251.645 443.761 249.543C446.565 266.163 447.666 297.5 457.778 310.114C465.887 346.958 476.7 386.204 505.434 412.635C499.928 414.838 494.822 417.741 489.315 418.943C465.287 427.253 445.864 445.074 429.144 463.595C410.522 483.419 395.104 509.45 367.672 517.559C355.557 521.063 342.342 518.861 334.633 508.148C319.615 488.325 312.406 464.396 302.495 441.87C301.393 439.267 299.992 437.365 296.788 436.864C295.186 436.664 293.784 435.462 294.385 432.959C298.39 420.745 306.299 354.467 280.769 366.181C270.757 372.788 266.152 384.502 262.047 395.715Z" fill="white"/>
<path d="M664.024 271.67C667.628 269.767 671.232 267.965 674.736 265.963C676.539 264.962 677.44 265.362 678.441 267.064C698.665 300.103 675.337 337.748 675.738 373.089C675.537 382.1 679.142 426.552 692.157 423.349C693.459 422.648 694.76 420.445 694.66 419.044C688.453 394.314 683.146 370.186 690.155 344.856C695.261 318.225 703.971 288.99 688.653 264.061C686.55 260.356 686.651 260.356 690.355 258.654C699.065 254.75 707.775 250.745 716.586 246.941C738.712 243.937 762.84 245.839 784.166 253.248C802.287 259.656 798.983 281.682 800.585 297.1C802.988 446.676 807.894 596.152 813.7 745.629C813.2 751.135 814.702 760.647 811.197 760.146C783.565 760.847 755.732 760.446 727.999 760.446C758.135 689.663 741.015 600.658 701.368 536.182C674.636 492.13 630.584 435.463 583.229 413.637C594.041 407.43 601.65 397.418 608.458 387.206C609.159 386.105 610.661 385.003 611.962 384.703C652.01 376.794 697.163 339.149 674.336 295.197C669.53 287.588 668.029 279.579 664.024 271.67Z" fill="white"/>
<path d="M472.896 240.633C481.406 253.848 492.319 264.161 505.334 272.57C500.729 275.374 496.524 274.773 492.419 272.17C490.717 271.069 489.215 270.868 487.713 272.17C485.811 273.672 485.611 275.374 487.113 277.376C491.318 282.983 498.226 284.885 505.634 282.282C510.34 280.38 515.446 278.678 520.452 280.78C533.367 287.188 547.284 290.792 561.1 294.196C558.697 297.2 560.399 300.503 564.204 299.302C570.811 296.599 577.619 297.2 584.527 297.7C588.632 296.899 593.038 295.898 597.243 295.197C603.65 293.595 610.058 292.094 616.265 290.191C619.068 289.09 621.872 285.286 625.276 285.986C631.283 287.688 634.186 292.294 635.588 298.001C637.991 306.21 633.085 322.83 622.572 320.827C618.868 319.926 616.665 322.529 617.667 325.533C619.969 327.635 618.568 330.038 618.067 332.241C608.956 385.103 561.3 447.477 506.636 402.123C465.187 361.776 451.871 294.096 472.896 240.633ZM542.578 385.804C542.678 385.604 542.678 385.504 542.778 385.303C550.788 384.903 559.898 383.501 563.403 375.192C563.803 374.19 563.403 372.388 562.702 371.587C562.201 371.087 560.099 371.287 559.398 371.888C552.79 377.194 545.281 378.796 537.172 377.995C531.865 377.795 526.659 374.791 521.453 376.093C521.854 384.503 536.471 383.601 542.578 385.804ZM514.845 293.595C519.651 294.596 524.957 298.701 529.463 296.399C531.265 294.596 528.862 292.394 527.16 291.593C519.05 287.989 510.941 287.188 503.031 292.094C501.329 293.095 500.028 294.296 501.029 296.499C502.831 300.203 511.241 293.996 514.845 293.595ZM535.87 352.064C544.28 352.565 548.685 340.05 542.578 342.353C536.471 348.36 531.064 339.049 527.861 343.454C525.858 348.46 531.265 352.365 535.87 352.064ZM629.481 308.112C636.088 305.309 633.886 294.096 627.979 291.693C624.375 289.891 621.972 296.499 625.876 297.4C630.882 299.102 629.28 303.907 629.481 308.112ZM541.377 395.315C546.983 395.415 549.987 388.808 543.88 388.407C537.372 387.706 535.77 394.815 541.377 395.315Z" fill="white"/>
<path d="M811.296 769.957C810.295 795.888 784.664 800.894 763.139 799.993C731.301 799.492 699.464 798.591 667.626 798.09C542.679 798.891 417.631 792.584 292.784 796.889C293.285 788.179 293.885 779.568 294.386 770.658C329.728 771.359 365.27 769.857 400.511 772.16C439.057 770.758 478.303 769.957 516.648 771.96C537.273 788.279 592.538 784.374 620.07 786.276C651.607 784.274 690.253 789.18 717.185 770.358C748.021 768.055 780.159 769.757 811.296 769.957Z" fill="white"/>
<path d="M503.637 426.957C482.012 450.084 486.717 483.924 493.125 512.158C493.926 518.865 501.034 524.772 506.341 518.165C511.547 511.657 516.553 504.949 521.859 498.642C526.364 507.452 530.87 516.162 535.375 524.873C537.577 530.779 543.284 536.186 549.491 531.48C554.397 528.076 559.003 524.072 563.808 520.567C590.74 506.05 606.258 479.119 624.18 455.491C625.481 456.192 625.581 456.292 624.38 458.194C602.955 494.136 580.428 529.578 551.794 560.314C547.789 563.618 521.859 592.853 519.156 584.643C493.926 540.992 472.3 493.235 475.104 441.674C475.204 440.773 475.805 439.472 476.505 439.171C485.516 435.167 494.326 429.76 503.637 426.957Z" fill="white"/>
<path d="M286.376 375.293C290.782 388.709 290.181 424.351 282.872 435.865C264.35 441.071 247.731 453.285 230.01 459.392C227.807 458.992 226.105 455.688 224.303 453.586C213.991 441.071 202.077 429.858 193.767 415.841C193.967 415.541 194.168 415.24 194.368 414.94C199.374 414.94 205.381 418.544 209.085 413.538C211.388 410.234 210.086 406.83 208.284 403.727C203.579 395.517 198.072 387.608 193.667 379.198C193.867 379.098 193.967 378.897 194.168 378.797C204.78 385.605 214.592 393.715 224.904 401.024C230.01 405.629 240.722 407.531 240.422 397.92C239.421 383.403 232.813 369.286 231.211 355.27C240.422 372.49 247.13 391.112 255.24 408.933C256.641 415.34 264.35 419.545 268.055 412.437C272.961 399.622 275.363 385.305 285.475 375.093C285.776 375.193 286.076 375.293 286.376 375.293Z" fill="white"/>
<path d="M258.243 799.693C225.003 802.396 191.264 808.603 158.225 803.297C142.706 800.093 148.413 782.873 148.613 771.56C185.256 763.15 221.9 766.353 258.243 768.656C258.243 779.169 258.243 789.381 258.243 799.693Z" fill="white"/>
<path d="M501.333 701.18C499.531 716.598 500.532 731.716 503.136 747.034C471.498 745.532 440.361 754.643 408.624 753.041C432.552 723.606 464.089 707.587 501.333 701.18Z" fill="white"/>
<path d="M569.913 420.746C572.316 427.854 571.315 440.57 577.422 444.674C571.415 455.387 547.186 475.21 526.962 486.023C522.958 473.408 519.654 460.593 518.452 447.478C518.352 438.867 520.655 430.758 521.856 422.048C537.875 428.455 554.195 426.353 569.913 420.746Z" fill="white"/>
<path d="M531.566 493.831C562.703 475.51 578.621 462.594 599.346 432.859C605.053 437.565 610.86 442.371 616.967 447.477C602.95 462.394 565.906 518.06 546.884 514.956C545.182 514.856 542.779 514.255 542.078 513.054C538.374 506.847 535.07 500.439 531.566 493.831Z" fill="white"/>
<path d="M557.502 55.9164C516.254 87.4536 471.2 115.286 428.35 144.921C426.247 146.824 422.843 145.923 421.842 143.52C421.542 142.318 422.143 140.316 423.144 139.415C445.77 123.396 468.698 107.778 491.524 92.1592C511.848 78.6433 532.072 64.5266 552.797 51.7115C555.3 50.8104 557.602 52.5124 557.502 55.9164Z" fill="white"/>
<path d="M511.743 431.464C510.942 438.072 508.539 444.68 509.14 451.288C511.342 464.904 513.645 478.62 519.752 491.235C519.952 491.736 519.952 492.637 519.652 493.037C514.145 499.445 508.138 505.352 503.132 512.16C502.732 511.859 502.332 511.659 501.931 511.359C496.525 485.028 490.417 452.489 511.242 431.164C511.342 431.264 511.542 431.364 511.743 431.464Z" fill="white"/>
<path d="M268.054 798.796C268.654 790.887 265.35 748.136 275.062 749.037C289.879 749.037 285.875 750.94 285.975 763.354C285.574 773.967 285.174 784.479 284.874 795.092C284.773 796.994 284.273 797.595 282.371 797.695C277.665 797.995 272.959 798.396 268.054 798.796Z" fill="white"/>
<path d="M521.953 144.525C516.146 161.345 507.036 176.763 501.129 193.583C500.528 195.085 499.827 196.687 497.825 195.986C495.722 195.285 495.021 193.683 495.822 191.581C497.825 186.375 499.627 181.168 501.829 176.062C503.732 172.758 517.948 133.512 521.953 144.525Z" fill="white"/>
<path d="M183.757 838.941C197.673 847.351 211.49 855.261 223.003 866.174C209.888 878.989 197.073 891.503 183.757 904.519C183.757 882.192 183.757 860.867 183.757 838.941Z" fill="black"/>
<path d="M320.517 836.535C316.212 861.265 316.412 885.593 315.01 910.423C315.111 914.027 307.001 911.224 304.298 911.724C308.102 887.396 309.404 863.067 311.907 838.638C312.307 834.433 317.413 836.936 320.517 836.535Z" fill="black"/>
<path d="M281.471 909.323C280.47 909.423 280.169 909.423 279.969 909.423C273.061 908.222 273.962 909.524 274.362 902.816C275.764 882.091 276.165 861.267 277.967 840.542C278.167 836.137 283.573 838.139 286.777 837.238C284.975 861.567 283.173 885.395 281.471 909.323Z" fill="black"/>
<path d="M542.584 385.805C536.377 383.703 521.759 384.604 521.359 376.094C526.565 374.792 531.771 377.796 537.077 377.996C545.187 378.897 552.696 377.195 559.304 371.889C560.105 371.288 562.107 371.088 562.607 371.588C563.308 372.389 563.709 374.191 563.308 375.193C559.804 383.502 550.693 384.904 542.684 385.305C542.684 385.405 542.684 385.605 542.584 385.805Z" fill="black"/>
<path d="M514.846 293.596C511.242 294.097 502.832 300.304 501.03 296.399C499.929 294.197 501.33 292.995 503.032 291.994C510.942 287.189 519.051 287.889 527.161 291.494C528.863 292.395 531.165 294.597 529.463 296.299C524.858 298.602 519.552 294.497 514.846 293.596Z" fill="black"/>
<path d="M535.872 352.063C531.167 352.364 525.86 348.459 527.863 343.453C531.066 339.048 536.473 348.259 542.58 342.352C548.687 340.149 544.282 352.564 535.872 352.063Z" fill="black"/>
<path d="M629.485 308.12C629.185 303.915 630.787 299.109 625.881 297.407C621.976 296.506 624.379 289.898 627.983 291.7C633.89 294.203 636.193 305.317 629.485 308.12Z" fill="black"/>
<path d="M541.381 395.321C535.875 394.72 537.377 387.712 543.884 388.412C549.891 388.913 546.888 395.421 541.381 395.321Z" fill="black"/>
</g>
<defs>
<clipPath id="clip0_1557_7541">
<rect width="686" height="880" fill="white" transform="translate(137 40)"/>
</clipPath>
</defs>
</svg>
