<svg width="960" height="960" viewBox="0 0 960 960" fill="none" xmlns="http://www.w3.org/2000/svg">
<g clip-path="url(#clip0_1557_7542)">
<path d="M469.913 180.76C456.898 164.842 441.881 151.026 431.769 133.206C430.568 131.204 430.968 130.002 433.071 128.701C478.622 99.1672 523.874 69.4334 569.526 40C614.877 84.2503 656.925 134.708 704.379 175.554C743.423 179.659 831.523 160.537 837.73 214.999C838.832 226.111 839.733 237.324 839.933 248.437C842.436 404.114 846.841 559.691 853.648 715.167C853.749 734.389 854.449 754.412 847.041 772.532C835.928 803.468 797.685 799.263 770.854 799.463C606.568 798.061 442.081 791.754 277.794 796.259C267.282 799.763 256.67 800.564 245.658 799.063C241.853 798.762 237.949 799.263 234.044 799.763C198.704 802.667 162.263 808.974 127.123 802.567C112.807 799.663 106.299 786.348 108.201 772.332C112.006 724.578 111.906 676.724 113.808 628.969C118.914 512.337 114.609 395.704 117.812 279.072C118.713 254.444 118.814 229.115 126.022 205.288C130.227 192.874 139.037 186.166 151.951 185.365C168.57 184.264 185.289 183.363 201.908 182.962C291.41 179.859 380.711 183.263 469.913 180.76ZM170.773 357.561C165.366 347.65 158.058 338.94 155.555 328.027C154.054 320.319 159.76 314.712 167.269 316.815C182.386 322.221 193.498 334.635 206.914 343.144C204.311 328.027 194.199 307.604 197.503 293.088C199.505 286.981 205.512 284.778 210.918 288.382C215.323 291.486 218.227 296.391 220.729 300.997C228.238 317.015 236.047 332.633 243.155 348.951C247.66 336.737 252.666 323.923 263.778 316.414C291.51 303.499 283.1 375.782 278.695 389.097C277.394 395.604 285.503 391.399 287.605 399.108C299.919 423.135 313.635 483.904 346.072 482.903C397.43 482.202 423.26 401.911 486.632 374.48C454.395 323.422 457.398 255.545 486.431 203.786C489.735 199.581 480.625 194.476 478.622 190.871C477.922 190.171 476.72 189.57 475.719 189.57C461.703 189.47 447.687 189.47 433.671 189.67C339.064 191.973 244.156 188.068 149.649 195.276C143.642 195.877 139.137 199.481 136.634 205.088C123.419 246.435 128.525 291.386 126.522 334.234C126.522 472.191 126.923 610.148 120.415 747.904C159.159 739.595 198.504 743.199 237.749 745.101C239.851 745.201 240.352 744.701 240.752 742.598C242.454 735.19 243.856 724.578 253.066 723.477C259.373 722.676 265.781 722.776 271.888 724.978C281.899 728.282 279.196 739.295 278.895 747.604C298.117 747.604 316.839 747.604 335.76 747.604C333.157 743.299 333.457 738.894 334.258 734.289C341.767 692.942 346.773 650.994 353.58 609.547C322.445 616.956 290.308 614.453 265.58 592.428C230.04 561.192 202.409 521.147 186.39 476.596C180.584 457.875 173.075 434.548 196.502 425.038C187.191 411.823 132.229 363.167 170.773 357.561ZM599.46 370.776C686.258 424.737 764.347 541.67 765.849 645.688C765.749 679.226 767.651 715.868 749.73 745.602C780.165 745.802 810.6 746.202 841.034 745.402C842.536 745.402 843.137 744.701 843.237 743.199C843.337 738.193 843.837 733.188 843.637 728.182C837.831 571.604 831.924 415.326 830.022 258.749C827.018 234.821 836.429 197.078 804.893 191.072C774.559 183.163 742.722 185.866 711.687 185.866C720.998 195.477 730.108 204.787 739.719 214.699C721.298 222.607 703.778 230.116 686.358 237.625C691.765 249.538 697.771 261.452 695.669 275.067C692.565 307.504 678.55 339.741 691.464 371.777C693.466 376.382 695.369 388.696 686.759 384.191C667.437 356.259 677.548 319.618 684.056 288.883C687.159 274.166 687.259 259.95 679.451 246.435C676.848 241.929 676.948 241.929 672.343 244.232C665.134 248.737 654.222 250.339 650.518 258.648C650.217 259.449 652.22 261.151 653.221 262.353C663.132 271.363 664.534 284.177 656.625 295.09C650.818 303.199 642.909 308.605 633.498 311.809C623.087 315.313 622.486 328.127 617.28 336.337C611.574 347.65 605.567 359.063 599.46 370.776ZM519.168 190.271C514.163 191.072 501.548 187.968 499.346 192.874C483.328 222.708 458.9 269.661 477.521 302.098C480.024 307.804 480.725 307.904 485.831 304C494.04 297.593 502.95 297.493 511.46 303.499C512.561 304.3 514.563 304.601 515.865 304.3C521.371 302.999 526.277 304 531.082 306.903C546.399 314.612 542.895 332.532 559.614 332.633C566.723 332.833 573.33 331.131 579.337 327.427C597.858 318.416 628.793 277.27 618.081 257.047C614.277 245.634 618.982 234.02 620.984 222.708C621.285 221.406 621.485 220.305 619.783 219.404C588.848 201.684 555.209 189.77 519.168 190.271ZM841.134 756.214C807.196 756.114 772.156 754.011 738.718 756.714C708.884 777.438 665.835 771.731 630.996 773.934C601.162 771.932 543.196 776.136 520.47 758.416C478.723 756.314 435.974 757.115 394.026 758.617C355.683 756.214 317.039 757.515 278.495 757.015C277.894 766.726 277.294 776.036 276.693 785.547C419.255 780.842 561.917 787.75 704.479 787.249C732.611 787.549 760.743 788.551 788.875 788.851C812.101 789.952 840.634 784.246 841.134 756.214ZM210.117 304.801C209.817 304.901 209.517 304.901 209.116 305.001C211.219 314.512 214.222 323.722 216.324 333.233C218.327 341.743 225.435 363.067 208.816 358.162C194.7 350.453 183.087 338.739 169.271 330.43C169.071 330.63 168.971 330.73 168.77 330.931C173.576 340.141 179.482 348.651 184.688 357.661C186.691 360.965 188.092 364.669 185.589 368.273C181.485 373.679 174.977 369.675 169.471 369.775C169.271 370.075 169.071 370.375 168.87 370.776C179.282 388.096 194.399 402.111 207.214 417.729C210.518 419.431 214.122 415.527 217.225 414.526C233.344 407.117 248.661 397.807 265.781 392.601C266.682 392.3 267.583 390.899 267.783 389.898C272.388 369.174 275.191 347.349 269.485 326.626C269.084 326.526 268.684 326.526 268.283 326.425C258.072 337.838 254.568 352.655 249.762 366.671C245.558 375.181 236.948 370.375 235.346 362.767C228.038 342.944 219.628 323.622 210.117 304.801ZM239.15 754.912C199.405 752.309 159.66 749.106 119.815 758.016C119.614 770.23 113.307 789.051 130.227 792.555C166.267 798.362 203.009 791.554 239.15 788.651C239.15 777.338 239.15 766.225 239.15 754.912ZM538.49 566.198C538.691 566.398 538.991 566.598 539.191 566.698C579.237 522.749 620.183 477.597 644.11 422.435C645.612 418.63 639.205 415.827 637.102 412.824C619.082 439.454 581.74 499.122 544.097 487.008C540.893 485.807 532.684 495.918 529.28 498.221C535.287 502.225 538.691 507.431 538.591 514.539C538.791 531.859 538.39 549.078 538.49 566.198ZM491.938 382.089C486.632 386.294 463.305 398.307 463.005 403.213C457.498 456.573 480.725 507.231 500.948 555.185C504.151 540.869 505.753 525.952 508.456 511.336C509.357 505.529 509.157 499.322 513.262 494.416C511.259 491.012 509.357 487.809 507.455 484.605C499.646 486.207 496.543 482.603 494.841 475.295C488.934 447.263 483.828 417.629 499.146 391.399C496.743 388.296 494.34 385.192 491.938 382.089ZM402.836 737.793C437.275 739.995 471.014 729.183 505.353 731.486C503.25 714.466 502.449 698.348 502.95 681.429C463.205 688.237 428.966 705.757 402.836 737.793ZM610.272 388.997C590.149 420.132 568.024 437.352 536.488 455.873C539.692 461.679 542.996 467.085 545.799 472.792C548.402 477.998 550.004 479.399 555.71 478.598C588.547 471.09 611.774 432.045 629.594 405.215C623.287 399.909 616.98 394.503 610.272 388.997ZM555.41 345.447C554.208 369.074 528.279 385.493 505.553 374.48C501.949 372.578 496.843 368.974 497.444 364.369C499.046 363.167 500.647 365.27 502.149 365.77C511.059 368.673 518.067 357.26 521.872 350.353C515.364 347.95 508.657 346.849 503.451 342.344C509.257 329.129 512.861 333.033 500.848 323.022C501.749 322.02 502.55 321.119 503.05 320.719C513.762 327.727 524.575 336.637 537.79 335.536C519.769 325.324 491.938 302.298 481.626 331.732C478.522 346.048 482.327 358.762 493.94 368.173C505.253 379.286 552.907 395.904 563.018 379.686C569.926 368.273 565.021 353.256 555.41 345.447ZM593.553 379.286C580.438 405.015 549.603 411.823 522.973 409.82C525.075 422.735 526.777 435.249 531.883 446.562C559.815 430.944 583.942 411.422 600.461 383.29C598.358 381.989 596.056 380.687 593.553 379.286ZM504.552 475.195C510.859 469.788 514.763 462.981 520.971 457.574C524.374 454.571 524.274 452.068 522.272 448.764C516.365 434.348 512.961 419.231 512.361 403.613C511.159 401.21 508.256 400.209 506.054 398.207C494.04 423.836 499.046 449.165 504.552 475.195ZM561.617 49.5108C520.27 74.5392 480.424 102.371 439.578 128.3C437.676 129.502 436.274 131.003 437.676 133.406C438.777 135.509 441.38 135.308 443.883 133.807C482.727 109.078 521.071 83.4494 559.715 58.4209C563.519 56.5188 567.123 52.1138 561.617 49.5108ZM249.362 771.531C249.462 771.531 249.462 771.531 249.562 771.531C249.562 776.337 249.562 781.142 249.562 786.048C249.562 788.15 250.363 788.951 252.465 788.751C266.581 786.148 268.484 792.655 268.283 776.537C268.784 764.724 269.385 752.91 269.585 741.097C269.685 734.089 269.184 733.788 262.076 733.488C253.667 733.088 252.365 733.888 251.564 742.498C250.563 752.109 250.063 761.82 249.362 771.531ZM630.795 304.801C639.806 301.998 647.314 298.193 652.32 290.084C656.825 282.576 655.624 270.362 647.314 266.658C640.206 278.972 634.7 290.985 630.795 304.801ZM531.382 133.807C528.079 124.296 516.566 153.329 514.864 156.332C512.06 162.639 509.457 169.047 506.855 175.354C506.054 177.356 506.154 179.258 508.556 179.959C510.859 180.66 511.36 178.758 512.06 177.156C518.468 162.639 525.376 148.523 531.382 133.807ZM509.958 340.742C522.472 346.448 535.087 347.249 548.502 344.546C545.999 341.943 543.696 340.842 538.09 340.241C529.48 339.841 521.471 336.937 513.762 334.134C512.561 336.137 511.36 338.239 509.958 340.742ZM519.569 368.874C528.98 370.075 540.793 363.367 544.297 354.357C526.877 356.359 530.882 356.46 519.569 368.874Z" fill="black"/>
<path d="M605.666 877.416C553.206 876.715 500.747 875.814 448.187 876.715C445.884 876.715 443.682 876.615 441.379 876.415C433.37 876.115 433.57 865.402 441.679 865.603C541.192 865.603 640.605 863.5 740.018 860.397C749.129 860.197 758.239 860.096 767.349 859.996C771.454 859.596 776.66 861.999 776.16 866.504C775.859 871.109 770.853 872.511 766.849 872.21C713.088 872.31 659.427 874.613 605.766 876.515C605.666 876.815 605.666 877.116 605.666 877.416Z" fill="black"/>
<path d="M148.648 868.239C148.648 855.825 148.848 843.411 148.547 830.997C149.048 825.09 152.352 815.379 159.86 818.783C174.277 827.193 187.792 837.204 201.608 846.615C208.516 851.821 217.726 861.732 208.616 869.441C196.602 880.954 184.588 892.567 172.575 903.98C166.668 910.087 149.949 923.202 148.047 907.284C148.047 894.269 148.247 881.154 148.147 868.139C148.247 868.239 148.447 868.239 148.648 868.239ZM200.506 861.232C197.503 856.126 164.766 833.4 158.158 831.898C158.158 855.225 158.158 878.451 158.158 902.679C172.575 888.462 186.491 874.947 200.506 861.232Z" fill="black"/>
<path d="M295.915 919.699C289.607 919.499 280.197 920.1 281.698 911.089C284.201 885.46 286.604 859.831 289.007 834.202C289.307 818.084 293.912 816.882 308.929 820.386C313.735 821.488 315.737 824.091 315.437 828.996C314.836 836.705 313.635 844.414 313.134 852.122C311.532 872.045 311.532 892.068 309.23 911.89C308.429 920.1 303.023 920.2 296.015 919.899C295.915 919.799 295.915 919.799 295.915 919.699ZM289.207 910.489C292.811 909.888 301.321 913.392 301.02 908.386C302.422 881.556 303.123 855.226 306.927 828.496C303.623 828.996 298.918 826.894 297.717 830.598C294.513 857.328 293.812 883.859 289.207 910.489Z" fill="black"/>
<path d="M249.362 872.646C250.062 860.032 250.663 847.518 251.464 834.903C252.065 829.497 253.266 821.288 260.374 821.488C265.38 822.389 280.397 819.185 278.995 827.295C276.392 855.427 276.192 883.959 271.887 911.791C269.585 920.3 259.773 916.396 253.667 915.094C247.159 913.693 247.76 906.585 247.96 901.279C248.361 891.768 248.861 882.257 249.362 872.646ZM270.185 829.697C263.878 829.797 259.773 828.596 260.174 836.505C259.473 849.219 258.872 861.834 258.072 874.548C257.471 884.56 256.87 894.571 256.37 904.582C256.67 908.787 260.875 907.486 264.379 908.387C266.281 881.957 268.183 856.027 270.185 829.697Z" fill="black"/>
<path d="M170.773 357.563C132.229 363.169 186.991 411.724 196.602 425.039C173.075 434.55 180.684 457.777 186.491 476.598C202.509 521.149 230.04 561.194 265.681 592.43C290.509 614.355 322.545 616.958 353.681 609.549C346.873 650.996 341.767 692.844 334.359 734.291C333.658 738.896 333.257 743.301 335.86 747.606C316.839 747.606 298.117 747.606 278.996 747.606C279.196 739.297 281.999 728.284 271.988 724.98C265.881 722.778 259.474 722.678 253.166 723.479C243.956 724.58 242.554 735.192 240.852 742.6C240.452 744.703 239.951 745.203 237.849 745.103C198.604 743.301 159.26 739.597 120.516 747.906C127.023 610.05 126.623 472.193 126.623 334.236C128.625 291.388 123.619 246.437 136.734 205.09C139.237 199.483 143.742 195.879 149.749 195.278C244.256 188.07 339.164 191.975 433.772 189.672C447.788 189.472 461.803 189.572 475.819 189.572C476.821 189.572 478.022 190.173 478.723 190.873C480.825 194.277 489.735 199.884 486.532 203.788C457.499 255.547 454.395 323.424 486.732 374.482C423.059 402.113 397.731 482.104 346.172 482.905C313.535 483.806 300.02 423.237 287.706 399.11C285.603 391.401 277.494 395.606 278.796 389.099C283.201 375.784 291.71 303.601 263.879 316.416C252.766 323.925 247.76 336.739 243.255 348.953C236.147 332.634 228.438 317.017 220.83 300.999C218.327 296.393 215.323 291.488 211.018 288.384C205.712 284.78 199.606 286.983 197.603 293.09C194.299 307.506 204.411 328.029 207.014 343.146C193.599 334.737 182.486 322.223 167.369 316.816C159.86 314.714 154.154 320.32 155.656 328.029C158.158 338.942 165.467 347.652 170.773 357.563Z" fill="white"/>
<path d="M599.46 370.774C605.567 359.061 611.574 347.748 617.38 336.235C622.586 328.026 623.187 315.211 633.599 311.707C643.009 308.503 650.818 303.097 656.725 294.988C664.634 284.076 663.132 271.361 653.321 262.251C652.32 260.949 650.318 259.247 650.618 258.547C654.322 250.237 665.335 248.735 672.443 244.13C677.048 241.828 676.948 241.928 679.551 246.333C687.36 259.848 687.26 274.064 684.156 288.781C677.649 319.516 667.637 356.258 686.859 384.089C695.469 388.494 693.667 376.28 691.565 371.675C678.65 339.639 692.666 307.402 695.769 274.965C697.872 261.45 691.865 249.436 686.459 237.523C703.879 230.014 721.398 222.506 739.819 214.597C730.208 204.685 721.098 195.375 711.788 185.764C742.723 185.864 774.659 183.161 804.993 190.97C836.529 196.877 827.219 234.82 830.122 258.647C832.024 415.125 837.931 571.502 843.838 727.88C844.038 732.886 843.537 737.891 843.337 742.897C843.337 744.499 842.736 745.099 841.134 745.099C810.7 745.9 780.265 745.6 749.831 745.3C767.851 715.566 765.849 678.824 765.949 645.386C764.447 541.668 686.359 424.735 599.46 370.774Z" fill="white"/>
<path d="M519.168 190.271C555.209 189.77 588.847 201.684 619.883 219.404C621.585 220.205 621.384 221.306 621.084 222.707C619.082 234.02 614.376 245.634 618.181 257.047C628.793 277.27 597.958 318.416 579.437 327.427C573.43 331.131 566.822 332.733 559.714 332.632C542.995 332.532 546.599 314.512 531.182 306.903C526.477 304.1 521.471 302.999 515.965 304.3C514.563 304.601 512.661 304.3 511.56 303.499C503.05 297.493 494.14 297.593 485.931 304C480.925 307.904 480.224 307.804 477.621 302.098C459 269.561 483.428 222.707 499.446 192.874C501.548 187.968 514.263 191.172 519.168 190.271ZM539.291 212.596C529.58 234.921 519.368 257.047 509.557 279.372C508.556 282.676 500.847 296.191 508.456 294.789C523.373 269.361 533.885 241.128 547 214.498C549.303 209.492 548.802 208.291 543.596 206.189C536.288 203.185 508.456 194.976 503.35 201.583C503.25 202.184 504.351 203.285 505.152 203.686C516.465 206.489 528.078 207.891 539.291 212.596ZM566.923 214.899C565.221 215.199 562.017 213.797 561.917 216.4C563.619 220.605 570.326 219.904 574.031 221.606C584.242 225.31 594.354 229.115 604.565 232.919C608.37 234.821 609.671 231.117 606.968 228.714C594.754 221.006 581.439 216.3 566.923 214.899ZM579.937 235.422C572.529 222.307 568.024 240.428 564.92 246.434C563.118 250.839 571.328 254.444 573.33 250.139C575.733 245.533 577.635 240.628 579.937 235.422ZM510.659 228.714C511.259 233.82 517.867 236.423 520.37 231.818C521.971 228.514 523.373 225.11 524.274 221.506C525.676 216.801 517.767 213.497 515.464 217.902C513.662 221.406 512.26 225.11 510.659 228.714Z" fill="white"/>
<path d="M841.134 756.214C840.433 784.246 812.301 789.852 788.875 788.951C760.743 788.651 732.611 787.65 704.479 787.349C561.917 787.85 419.255 780.942 276.693 785.647C277.294 776.137 277.894 766.826 278.495 757.115C316.939 757.515 355.583 756.314 394.026 758.717C435.974 757.215 478.722 756.314 520.47 758.517C543.096 776.237 601.162 772.032 630.995 774.034C665.935 771.832 708.784 777.538 738.718 756.815C772.256 754.011 807.296 756.114 841.134 756.214Z" fill="white"/>
<path d="M210.117 304.801C219.628 323.622 228.038 342.944 235.646 362.667C237.248 370.275 245.858 375.181 250.063 366.571C254.868 352.455 258.272 337.638 268.584 326.325C268.984 326.425 269.385 326.425 269.785 326.525C275.492 347.249 272.689 369.174 268.083 389.797C267.883 390.799 266.982 392.2 266.081 392.5C248.962 397.706 233.644 407.017 217.526 414.425C214.322 415.326 210.818 419.331 207.514 417.629C194.7 402.011 179.683 388.095 169.171 370.676C169.371 370.375 169.571 370.075 169.772 369.674C175.178 369.574 181.785 373.579 185.89 368.173C188.493 364.569 186.991 360.865 184.989 357.561C179.783 348.551 173.876 339.941 169.071 330.83C169.271 330.63 169.371 330.53 169.571 330.33C183.387 338.639 195 350.353 209.116 358.061C225.635 363.067 218.527 341.743 216.625 333.133C214.422 323.622 211.519 314.412 209.417 304.901C209.517 304.901 209.817 304.801 210.117 304.801Z" fill="white"/>
<path d="M239.15 754.913C239.15 766.326 239.15 777.338 239.15 788.651C203.009 791.554 166.267 798.362 130.226 792.555C113.307 789.152 119.514 770.23 119.815 758.016C159.66 749.106 199.405 752.209 239.15 754.913Z" fill="white"/>
<path d="M538.49 566.196C538.39 548.976 538.791 531.857 538.59 514.637C538.69 507.529 535.287 502.323 529.28 498.319C532.684 496.116 540.993 485.905 544.097 487.106C581.739 499.22 619.082 439.652 637.102 412.922C639.205 415.825 645.512 418.829 644.11 422.533C620.183 477.695 579.237 522.847 539.191 566.797C538.991 566.597 538.69 566.396 538.49 566.196Z" fill="white"/>
<path d="M491.937 382.09C494.24 385.093 496.743 388.297 499.146 391.3C483.828 417.63 488.934 447.264 494.841 475.196C496.543 482.504 499.646 486.108 507.455 484.506C509.357 487.71 511.259 491.014 513.262 494.317C509.157 499.223 509.457 505.33 508.456 511.237C505.753 525.753 504.251 540.67 500.948 555.086C480.825 507.132 457.498 456.474 463.005 403.114C463.105 401.912 464.006 400.411 465.007 399.71C473.917 393.703 482.827 387.997 491.937 382.09Z" fill="white"/>
<path d="M402.836 737.794C428.966 705.757 463.205 688.237 502.95 681.43C502.45 698.349 503.251 714.467 505.353 731.487C471.014 729.184 437.376 739.996 402.836 737.794Z" fill="white"/>
<path d="M610.272 388.996C616.98 394.602 623.287 399.908 629.594 405.114C611.774 431.945 588.547 470.989 555.71 478.498C550.004 479.299 548.402 477.897 545.799 472.691C542.996 467.085 539.792 461.579 536.488 455.772C567.924 437.351 590.149 420.131 610.272 388.996Z" fill="white"/>
<path d="M555.41 345.449C565.021 353.358 569.926 368.275 562.918 379.688C552.907 396.006 505.253 379.287 493.84 368.175C482.227 358.764 478.422 346.049 481.526 331.733C491.938 302.4 519.569 325.326 537.69 335.538C524.375 336.639 513.662 327.729 502.95 320.721C502.55 321.121 501.749 322.022 500.748 323.023C512.862 333.035 509.157 329.13 503.351 342.345C508.557 346.85 515.264 348.052 521.772 350.354C518.067 357.162 510.959 368.675 502.049 365.772C500.548 365.271 498.946 363.169 497.344 364.37C496.743 368.976 501.749 372.48 505.453 374.482C528.279 385.394 554.209 368.976 555.41 345.449Z" fill="white"/>
<path d="M593.553 379.285C596.056 380.687 598.358 382.088 600.461 383.29C583.942 411.422 559.915 430.944 531.883 446.562C526.777 435.249 525.075 422.735 522.973 409.82C549.603 411.822 580.538 404.914 593.553 379.285Z" fill="white"/>
<path d="M504.552 475.195C499.146 449.165 494.04 423.836 506.054 398.207C508.256 400.209 511.16 401.21 512.361 403.613C512.962 419.231 516.265 434.348 522.272 448.764C524.274 452.068 524.375 454.471 520.971 457.574C514.764 462.981 510.859 469.788 504.552 475.195Z" fill="white"/>
<path d="M561.617 49.5117C567.023 52.1147 563.619 56.4196 559.815 58.4218C521.171 83.5504 482.827 109.079 443.983 133.808C441.58 135.309 438.877 135.61 437.776 133.407C436.375 131.004 437.776 129.503 439.678 128.301C480.425 102.372 520.27 74.5402 561.617 49.5117Z" fill="white"/>
<path d="M249.362 771.531C250.063 761.82 250.563 752.109 251.564 742.498C252.465 733.989 253.667 733.188 262.076 733.488C269.184 733.788 269.685 734.089 269.585 741.097C269.385 752.91 268.684 764.724 268.283 776.437C268.383 792.555 266.581 786.048 252.465 788.651C250.363 788.851 249.562 788.05 249.562 785.948C249.662 781.142 249.562 776.337 249.562 771.431C249.562 771.531 249.462 771.531 249.362 771.531Z" fill="white"/>
<path d="M630.795 304.802C634.7 290.886 640.206 278.873 647.314 266.559C655.624 270.363 656.825 282.477 652.32 289.985C647.314 298.295 639.706 301.999 630.795 304.802Z" fill="white"/>
<path d="M531.382 133.807C525.475 148.524 518.467 162.64 512.06 177.156C510.959 182.162 504.652 179.959 506.854 175.354C508.857 171.45 527.077 122.194 531.382 133.807Z" fill="white"/>
<path d="M509.958 340.74C511.36 338.237 512.661 336.135 513.762 334.133C521.471 336.936 529.48 339.839 538.09 340.24C543.696 340.84 545.999 341.942 548.502 344.545C535.087 347.248 522.472 346.447 509.958 340.74Z" fill="white"/>
<path d="M519.569 368.872C530.882 356.358 526.777 356.258 544.297 354.355C540.793 363.466 529.08 370.073 519.569 368.872Z" fill="white"/>
<path d="M200.506 861.232C186.49 874.947 172.575 888.463 158.158 902.679C158.158 878.451 158.158 855.225 158.158 831.898C164.766 833.4 197.403 856.226 200.506 861.232Z" fill="black"/>
<path d="M289.207 910.49C293.712 883.859 294.513 857.329 297.617 830.499C298.918 826.794 303.623 828.897 306.827 828.396C303.023 855.127 302.322 881.457 300.92 908.287C301.321 913.393 292.811 909.889 289.207 910.49Z" fill="black"/>
<path d="M270.186 829.697C268.284 856.027 266.381 881.957 264.379 908.287C260.875 907.386 256.67 908.687 256.37 904.482C256.871 894.471 257.571 884.46 258.072 874.448C258.773 861.734 259.374 849.119 260.174 836.405C259.774 828.596 263.879 829.797 270.186 829.697Z" fill="black"/>
<path d="M539.291 212.597C528.079 207.791 516.466 206.49 505.053 203.687C504.252 203.386 503.15 202.285 503.251 201.584C508.356 194.977 536.188 203.186 543.496 206.189C548.702 208.192 549.203 209.393 546.9 214.499C533.885 241.029 523.273 269.361 508.356 294.79C500.648 296.192 508.557 282.576 509.458 279.373C519.369 257.147 529.58 235.022 539.291 212.597Z" fill="black"/>
<path d="M566.923 214.898C581.339 216.3 594.754 221.005 606.968 228.714C609.671 231.017 608.37 234.821 604.565 232.919C594.454 229.114 584.242 225.21 574.031 221.606C570.327 219.904 563.619 220.605 561.917 216.4C562.117 213.797 565.321 215.199 566.923 214.898Z" fill="black"/>
<path d="M579.937 235.42C577.635 240.626 575.733 245.532 573.43 250.137C571.328 254.442 563.218 250.838 565.02 246.433C568.024 240.426 572.529 222.305 579.937 235.42Z" fill="black"/>
<path d="M510.659 228.714C513.362 224.309 514.063 213.697 521.271 216.3C527.878 219.303 521.972 227.212 520.37 231.818C517.867 236.523 511.259 233.82 510.659 228.714Z" fill="black"/>
</g>
<defs>
<clipPath id="clip0_1557_7542">
<rect width="746.849" height="880" fill="white" transform="translate(107 40)"/>
</clipPath>
</defs>
</svg>
