<svg width="960" height="960" viewBox="0 0 960 960" fill="none" xmlns="http://www.w3.org/2000/svg">
<path d="M94.7002 862.798C99.6002 680.498 109.1 498.298 103.9 315.898C106.3 276.898 92.7002 201.198 141 187.298C154 183.998 167.5 184.898 180.8 184.898C274.8 184.298 369.4 184.198 463 179.298C463 178.898 463.1 178.498 463.1 178.098C459.3 175.798 453.8 175.098 453.6 169.698C453.5 168.598 453 167.398 452.2 166.598C441.1 152.698 427.1 140.898 418.7 125.098C417.2 121.698 417.1 121.798 420.2 119.798C460.9 93.2984 501.4 66.7984 542.2 40.3984C588.3 84.6984 630.7 135.098 678.1 177.098C723.3 175.398 768.6 173.098 813.9 173.498C825.4 173.598 836.6 175.898 847.2 180.698C865.4 187.898 859.7 213.198 861 228.998C859.7 429.698 852.8 630.898 865 831.398C866.1 854.898 867.4 889.798 837.1 893.698C768.4 903.898 698.3 898.998 628.9 901.798C534.2 904.498 439.5 908.498 344.9 912.798C274.6 911.898 203.8 925.698 133.8 915.798C104.6 911.198 95.5002 889.998 94.7002 862.798ZM666.5 210.198C666.5 210.298 666.6 210.498 666.6 210.598C701.3 212.698 794.6 196.198 803.3 240.498C810.6 325.798 807.7 411.998 811.5 497.598C813.1 551.898 814.9 606.198 817.4 660.498C816.7 689.598 823.5 720.098 813.1 747.898C802.6 776.198 768.2 772.498 743.5 772.498C611.2 769.498 478.8 769.298 346.5 768.198C328.2 768.198 309.7 767.298 291.6 771.798C283.7 773.498 275 772.498 266.9 772.198C232.4 774.498 196.6 782.098 162.4 774.998C145.4 770.698 145.3 753.598 147.4 739.198C148.5 711.698 149.6 684.198 150.6 656.798C154.7 551.198 154.5 445.498 154.7 339.798C156.1 304.598 153 267.698 164.1 233.798C168.1 223.698 178.3 219.198 188.6 218.798C275.6 213.298 362.9 216.598 450 214.998C451 206.198 456.4 200.498 461.3 194.498C459.4 195.598 457.7 196.998 455.9 198.098C450.5 201.598 444.2 195.898 446.4 189.998C346.9 193.698 247.2 191.498 147.8 195.398C113.1 199.898 114.2 249.998 113.1 276.798C119.7 473.498 108.9 669.998 104.8 866.598C105.1 879.498 108.8 894.598 121.3 900.798C128.3 904.398 135.8 905.698 143.4 906.798C195.7 912.798 248.4 905.598 300.8 903.598C445.6 893.298 590.8 891.598 736 889.698C770.2 888.298 805 891.698 838.7 884.298C851.6 881.898 855.4 869.598 856.1 857.998C849.1 687.998 848.8 517.498 851 347.098C851.3 298.498 852.8 249.898 851.6 201.298C854.5 165.798 711.9 188.698 685.3 185.198C685.2 185.498 685.2 185.798 685.1 186.098C688.6 189.698 692.1 193.298 696.1 197.498C685.6 201.998 676.1 206.098 666.5 210.198ZM158 725.898C193.5 719.498 229.4 721.398 265.1 723.498C267.4 714.898 268.7 703.198 279.9 703.698C297.5 703.398 303 707.398 300.3 725.598C317.6 725.598 334.5 725.598 351.6 725.598C349.2 721.598 349.7 717.298 350.5 712.798C353.5 695.298 356.6 677.798 359.3 660.198C362.4 640.498 363.7 620.498 367.8 600.998C338.7 608.398 309.2 605.098 286.4 583.998C261.6 565.998 178.8 454.298 226.2 434.998C217.6 423.198 167.8 378.798 203.1 374.198C198 364.998 190.5 356.498 189.1 345.898C188.5 339.998 193.3 335.798 199.1 337.198C213.2 341.898 223.2 352.998 235.5 361.298C233.3 346.998 224 329.798 227 315.898C228.8 310.498 234.2 308.498 238.9 311.598C243 314.398 245.7 318.898 247.9 323.198C254.7 337.598 261.4 351.798 268.1 366.298C272.1 355.398 276.5 344.098 286.3 337.198C311.9 324.898 304 390.098 300.2 402.298C299 408.598 306.2 404.398 308.1 411.298C319.2 433.098 331.4 486.998 360.5 487.098C406.3 487.098 430.7 414.698 486.3 389.998C457.7 338.798 464.1 278.798 463 222.598C388.4 223.898 313.9 222.398 239.3 224.398C221.9 224.898 204.5 226.098 187.1 227.098C178.8 227.598 172.8 231.798 170.8 239.898C158.3 307.598 164.4 377.598 162.6 446.098C164.4 539.398 160.3 632.598 158 725.898ZM649.6 221.898C669.7 259.598 635.1 298.998 652.5 339.298C653.4 342.698 655.7 347.998 652.3 350.498C641.1 354.098 637.8 317.098 638.1 309.498C637.9 281.498 657.3 249.498 640.3 223.898C639.9 223.298 638.7 222.398 638.3 222.598C634 224.598 629.8 226.698 625.6 228.898C632.4 240.098 633.3 243.998 631.9 253.798C630.7 261.798 629 269.598 625.2 276.798C624.2 278.698 624.4 280.198 625.7 281.898C634.7 294.198 634 310.798 621.3 320.098C615.6 324.698 607.7 327.298 603.2 333.198C598 341.898 593.2 350.798 588.3 359.698C586.2 366.898 588 374.998 587.4 382.598C587.4 384.298 587.9 385.098 589.4 385.898C599.6 391.298 609.4 397.398 617.8 405.398C666.6 449.098 707.6 503.698 728.4 566.298C742.1 616.998 747.9 675.298 725.6 723.898C752.8 723.998 780.1 724.398 807.3 723.698C808.8 723.698 809.4 723.098 809.4 721.498C810.3 692.698 807.8 663.798 807.2 634.898C800.7 506.298 800.8 377.498 795.5 248.898C795.6 223.898 768 220.598 748.4 219.398C721.8 219.198 695.3 219.298 668.7 219.498C664.5 219.498 660 218.798 656.1 221.498C654.1 222.398 651.6 221.698 649.6 221.898ZM476.3 223.398C472 269.398 464.5 317.498 481.5 361.898C496 412.198 538.8 431.698 569.4 380.798C575.4 370.598 580.8 359.998 586.9 349.798C592.6 340.398 598.5 331.298 599.2 319.998C591 311.898 595.3 306.998 604.8 313.398C610.5 315.698 617.6 313.998 621.9 309.298C632 298.698 621.9 283.398 609.7 280.598C608.2 280.198 605.9 281.398 604.5 280.798C603.4 277.298 606 273.098 605.3 269.498C602.1 238.998 601.7 228.198 572.1 212.998C556.8 210.798 542.4 221.298 531.1 230.498C521.7 237.598 514.9 225.598 523 218.698C519.5 219.898 517.3 223.598 514.3 225.798C510.5 229.798 503.1 227.398 503.2 221.598C503.2 220.998 502.8 220.498 502.4 219.398C500.4 222.098 499.5 223.898 497.5 226.298C493.1 231.098 485.6 227.098 486.2 220.798C483.5 224.298 480.4 225.398 476.3 223.398ZM807.7 733.698C777 733.598 745.1 731.498 714.8 734.198C688.4 752.498 650.4 747.698 619.6 749.698C592.6 747.898 538.4 751.698 518.1 735.698C480.6 733.398 442 734.898 404.4 735.798C369.7 733.598 334.7 735.098 299.9 734.398C299.4 743.198 298.8 751.598 298.3 760.198C452.2 756.598 606.2 761.698 760.1 763.198C784.7 762.598 802.4 762.298 807.7 733.698ZM201.9 385.098C201.7 385.398 201.5 385.698 201.4 385.998C210.1 400.698 222.7 412.498 233.5 425.598C236.8 429.398 236.8 429.398 241.2 427.198C257 419.998 271.9 410.798 288.7 405.598C289.5 405.398 290.3 404.098 290.5 403.198C294.6 384.498 297.2 364.798 292 346.098C291.6 345.998 291.3 345.998 290.9 345.898C281.6 356.198 278.6 369.698 274.1 382.498C270.4 389.798 262.7 385.498 261.3 378.998C253.3 361.598 246.8 343.398 237.8 326.598C239.4 340.298 245.9 354.098 246.9 368.298C247.3 377.898 236.8 376.198 231.6 371.498C221.5 364.298 211.9 356.298 201.5 349.698C201.3 349.798 201.2 349.998 201 350.098C205.4 358.398 210.7 366.098 215.3 374.198C217.1 377.198 218.4 380.498 216.1 383.798C212.7 388.598 206.8 384.998 201.9 385.098ZM264.5 732.398C229.1 729.798 193.5 727.698 158.5 734.598C155.3 735.598 156.5 747.598 155.7 750.998C153.5 765.198 168.5 768.098 179.5 768.198C208 768.498 236.2 765.998 264.5 762.698C264.5 752.598 264.5 742.598 264.5 732.398ZM623.7 423.698C607.5 447.798 573.7 501.898 539.6 490.998C536.7 489.898 529.4 499.098 526.2 501.098C533.1 505.298 534.9 511.698 534.8 519.398C534.6 533.698 533.9 548.098 534 562.398C534.4 562.498 534.7 562.598 535.1 562.698C570.6 524.198 606.2 484.298 628.4 436.298C632.4 429.898 627.3 428.898 623.7 423.698ZM511.7 497.598C509.9 494.498 508.1 491.598 506.4 488.598C499.6 490.398 496.2 486.298 495.1 480.098C490.2 455.298 485.2 428.898 498.4 405.498C496.1 402.798 493.6 400.098 491.1 397.298C486.5 400.998 466.8 410.998 466.5 415.198C461.5 463.398 482.6 508.998 500.7 552.398C503.8 538.098 505.4 523.298 507.9 508.798C508.5 504.898 508.9 500.898 511.7 497.598ZM412.1 716.998C443.3 718.998 473.8 709.298 504.9 711.298C502.3 695.998 501.3 681.098 503.1 666.098C466.6 672.398 435.7 687.998 412.1 716.998ZM532.6 462.598C535.6 468.098 538.6 473.298 541.3 478.598C543.3 482.498 544.7 483.598 549.1 483.398C574.5 480.898 603.8 438.098 616.6 417.098C610.9 412.298 605.1 407.498 599.2 402.598C576 434.898 566.2 442.398 532.6 462.598ZM528.7 454.798C548.3 441.198 572.6 428.798 582.5 406.398C580.8 395.898 580.1 385.498 580.7 374.898C568.4 397.098 548.7 421.698 519.8 417.098C522 429.898 523.4 442.698 528.7 454.798ZM503.8 480.298C506.8 476.898 522.3 462.798 521.1 459.898C516.8 450.798 508.5 423.598 511.3 414.498C509 413.298 507.3 412.398 505 411.098C494.4 433.998 498.9 456.798 503.8 480.298ZM538.3 52.5984C538.3 47.7984 534.4 48.2984 531.7 50.1984C507.1 66.0984 482.5 81.9984 458 97.8984C447.2 104.898 436.4 112.098 425.6 119.198C419.9 122.398 424.2 128.598 429.3 124.998C465.5 100.998 503.5 78.2984 538.3 52.5984ZM273.7 747.698C273.8 747.698 273.8 747.698 273.9 747.698C273.9 751.998 273.9 756.198 273.9 760.498C273.9 762.298 274.6 763.098 276.5 762.898C289.3 760.598 290.9 766.398 290.8 751.898C291.2 741.298 291.8 730.598 292 719.998C292.1 713.698 291.6 713.398 285.2 713.098C277.6 712.798 276.5 713.398 275.7 721.198C274.8 729.998 274.4 738.798 273.7 747.698ZM492.2 159.098C496.3 151.198 499.7 142.998 503.6 134.898C505 130.898 508.4 127.098 507.1 122.698C500.6 124.198 491.5 149.898 487.8 157.198C489.4 157.898 490.7 158.498 492.2 159.098Z" fill="black"/>
<path d="M666.5 210.2C676 206.1 685.6 202.1 695.9 197.7C691.9 193.6 688.4 189.9 684.9 186.3C685 186 685 185.7 685.1 185.4C719.2 185 753.3 182.7 787.4 181.7C805.7 181 824.4 181.1 841.7 187.8C848.2 189.9 851.2 194.8 851.4 201.4C852.6 250 851.1 298.6 850.8 347.2C848.6 517.5 848.9 688 855.9 858.1C855.1 869.6 851.5 882.1 838.5 884.4C804.8 891.8 770 888.4 735.8 889.8C590.7 891.7 445.4 893.4 300.6 903.7C248.2 905.7 195.6 912.9 143.2 906.9C135.6 905.8 128 904.5 121.1 900.9C108.6 894.7 104.9 879.5 104.6 866.7C108.7 670.1 119.5 473.6 112.9 276.9C113.9 249.8 113 200.1 147.6 195.5C247 191.6 346.7 193.8 446.2 190.1C444 196 450.3 201.8 455.7 198.2C457.5 197.1 459.2 195.8 461.1 194.6C456.1 200.6 450.7 206.3 449.8 215.1C362.7 216.6 275.4 213.4 188.4 218.9C178.2 219.3 167.8 223.8 163.9 233.9C152.8 267.7 155.9 304.7 154.5 339.9C154.3 445.6 154.6 551.3 150.4 656.9C149.4 684.4 148.3 711.9 147.2 739.3C145.3 753.7 145.1 770.9 162.2 775.1C196.4 782.3 232.2 774.6 266.7 772.3C274.8 772.7 283.5 773.6 291.4 771.9C309.6 767.4 328 768.4 346.3 768.3C478.6 769.3 611 769.6 743.3 772.6C768 772.6 802.3 776.2 812.9 748C823.4 720.1 816.5 689.6 817.2 660.6C814.8 606.3 813 552 811.3 497.7C807.5 412.1 810.4 325.9 803.1 240.6C794.4 196.1 700.7 212.8 666.4 210.7C666.6 210.5 666.6 210.3 666.5 210.2ZM594.7 804.2C594.7 804.4 594.7 804.6 594.7 804.8C545.9 804.7 497.1 805 448.4 805.2C445.3 805 441.5 806.4 441.6 810.1C441.4 813.7 444.9 815.1 448 815.1C482.3 815.6 516.7 815.6 551 815.7C614.3 815.7 677.5 811 740.9 811.3C744.4 811.6 748.6 809.9 748.7 806.1C749 802.1 744.6 799.9 741 800.3C732.7 800.4 724.4 800.5 716.1 800.6C675.7 800.7 635.2 802.4 594.7 804.2ZM182.8 834.9C182.7 834.9 182.6 834.9 182.5 834.9C182.6 846.6 182.3 858.3 182.2 870C183.8 884.3 199 872.6 204.3 867.1C215.2 856.8 226 846.3 236.8 835.9C245.1 829 236.8 820 230.5 815.3C218 806.8 205.9 797.8 192.8 790.2C186 787 183 795.8 182.6 801.1C183 812.3 182.8 823.6 182.8 834.9ZM315.4 881.1C329.6 883.5 327.7 872.9 328.6 862.6C329.8 841.5 330.7 820.3 333.1 799.3C334.2 790.3 322.9 790.7 316.7 790.1C310.1 790.8 309.2 798.2 309.4 803.5C307.1 826.9 304.9 850.2 302.7 873.6C301.6 881.3 310 880.9 315.4 881.1ZM272.4 863.8C272.3 863.8 272.3 863.8 272.4 863.8C271.2 876.3 275.5 877.3 286.7 878.7C293.4 879.8 294.8 872.4 295.2 867.2C296.3 854 297.3 840.8 298.2 827.6C298.9 817.6 299.7 807.5 300.4 797.5C300.6 794.7 299.5 793.3 296.7 793C289.2 792.8 278 789.4 276.2 799.6C273.9 820.9 273.9 842.5 272.4 863.8Z" fill="white"/>
<path d="M158 725.898C160.3 632.598 164.4 539.398 162.6 446.098C164.4 377.498 158.2 307.598 170.8 239.898C172.9 231.798 178.8 227.598 187.1 227.098C204.5 226.098 221.9 224.798 239.3 224.398C313.9 222.398 388.4 223.798 463 222.598C464.1 278.798 457.7 338.798 486.3 389.998C430.5 414.898 406.5 487.098 360.5 487.098C331.5 487.198 319.2 433.098 308.1 411.298C306.3 404.398 299 408.598 300.2 402.298C304.1 390.198 311.7 324.598 286.3 337.198C276.5 344.098 272.1 355.398 268.1 366.298C261.4 351.798 254.7 337.598 247.9 323.198C245.6 318.898 242.9 314.398 238.9 311.598C234.1 308.498 228.7 310.498 227 315.898C224 329.798 233.3 347.098 235.5 361.298C223.2 352.998 213.2 341.898 199.1 337.198C193.3 335.798 188.5 339.998 189.1 345.898C190.5 356.598 198.1 364.998 203.1 374.198C167.9 378.698 217.5 423.098 226.2 434.998C178.8 454.298 261.5 565.898 286.4 584.198C309.1 605.198 338.6 608.598 367.8 601.198C363.7 620.798 362.3 640.698 359.3 660.398C356.6 677.998 353.5 695.398 350.5 712.998C349.7 717.398 349.2 721.798 351.6 725.798C334.5 725.798 317.6 725.798 300.3 725.798C303 707.598 297.5 703.498 279.9 703.898C268.7 703.398 267.4 714.998 265.1 723.698C229.4 721.398 193.5 719.498 158 725.898Z" fill="white"/>
<path d="M649.6 221.897C651.6 221.597 654.2 222.297 656 221.697C659.9 218.997 664.4 219.697 668.6 219.697C695.2 219.497 721.7 219.397 748.3 219.597C767.9 220.697 795.5 224.097 795.4 249.097C800.7 377.697 800.6 506.497 807.1 635.097C807.8 663.897 810.3 692.797 809.3 721.697C809.3 723.197 808.7 723.797 807.2 723.897C780 724.597 752.7 724.197 725.5 724.097C747.8 675.497 742 617.197 728.3 566.497C707.5 503.897 666.5 449.397 617.7 405.597C609.3 397.597 599.5 391.497 589.3 386.097C587.8 385.297 587.3 384.397 587.3 382.797C587.9 375.297 586.1 367.197 588.2 359.897C593.1 350.997 597.9 342.097 603.1 333.397C607.6 327.497 615.5 324.897 621.2 320.297C633.9 310.997 634.6 294.297 625.6 282.097C624.3 280.397 624.1 278.897 625.1 276.997C628.9 269.797 630.6 261.997 631.8 253.997C633.2 244.197 632.3 240.297 625.5 229.097C629.7 226.997 634 224.797 638.2 222.797C638.6 222.597 639.8 223.397 640.2 224.097C657.2 249.597 637.8 281.697 638 309.697C637.8 317.497 640.9 354.097 652.2 350.697C655.6 348.097 653.3 342.897 652.4 339.497C635 298.997 669.6 259.697 649.6 221.897Z" fill="white"/>
<path d="M476.3 223.397C480.4 225.397 483.5 224.297 486.2 220.697C485.6 226.997 493.1 230.997 497.5 226.197C499.5 223.897 500.5 221.997 502.4 219.297C502.8 220.397 503.1 220.997 503.2 221.497C503.1 227.297 510.5 229.597 514.3 225.697C517.3 223.497 519.5 219.797 523 218.597C514.9 225.597 521.7 237.397 531.1 230.397C542.4 221.197 556.8 210.697 572.1 212.897C601.6 227.997 602 238.997 605.3 269.397C606 272.997 603.4 277.197 604.5 280.697C605.9 281.297 608.2 280.097 609.7 280.497C621.8 283.297 632 298.597 621.9 309.197C617.5 313.897 610.5 315.597 604.8 313.297C595.1 306.897 591.2 312.097 599.2 319.897C598.6 331.197 592.6 340.297 586.9 349.697C580.8 359.897 575.4 370.397 569.4 380.697C538.9 431.597 496 412.197 481.5 361.797C464.5 317.497 472.1 269.397 476.3 223.397ZM531.7 373.797C532.8 380.897 531.2 395.697 521.1 392.797C518.3 392.197 515.7 390.697 512.9 389.997C509.5 389.197 506.8 392.997 510.5 394.797C512.9 395.897 515.3 397.197 517.8 397.697C552.7 406.297 568.1 342.797 538.7 353.397C529.7 358.297 520.2 358.897 510.5 355.297C508.9 354.697 506.8 353.297 505.9 355.697C505 358.297 507.5 358.797 509.4 359.397C517.1 361.397 516 369.097 514.9 375.397C520.7 376.297 526 374.897 531.7 373.797ZM489.3 252.397C486 252.897 475.7 254.497 481.8 258.697C488.2 260.897 495.1 261.597 501.7 263.097C504 263.497 504.6 264.497 504.1 266.797C502 277.897 499.7 289.097 498 300.297C496.3 311.297 495.2 322.297 493.9 333.297C493.6 336.297 495.5 337.897 498.5 337.397C500.9 336.997 501.9 335.297 502.2 333.097C506 309.397 506.6 285.097 513.8 262.097C514.8 259.597 513.2 256.797 510.3 256.297C503.3 254.797 496.2 253.597 489.3 252.397ZM532.5 258.697C532.5 258.797 532.5 258.897 532.5 258.997C530.2 259.197 526.3 257.997 525.8 261.297C525.6 263.097 526.8 263.897 528.3 264.397C535.8 266.497 543.7 266.997 551.5 268.197C554.2 268.497 556.9 268.697 559.6 268.397C562.6 267.497 563 264.697 560.3 262.897C551.5 259.697 541.6 260.297 532.5 258.697ZM496.4 273.097C495.6 264.197 486.5 263.697 485.7 272.997C484.7 283.197 496.4 283.897 496.4 273.097ZM541 277.397C539.8 268.597 531.5 268.097 530.2 277.297C529.4 287.597 540.9 288.497 541 277.397ZM615.2 298.297C615.1 293.497 612 288.497 607.6 290.497C607.8 291.197 607.8 292.197 608.3 292.597C613.7 297.497 609.5 298.897 609.1 304.497C613.2 305.797 615.4 301.697 615.2 298.297Z" fill="white"/>
<path d="M807.7 733.697C802.3 762.297 784.9 762.697 760.2 763.197C606.3 761.697 452.3 756.597 298.4 760.197C298.9 751.597 299.5 743.197 300 734.397C334.8 735.097 369.7 733.597 404.5 735.797C442.2 734.997 480.7 733.497 518.2 735.697C538.4 751.697 592.7 747.897 619.7 749.697C650.6 747.697 688.4 752.597 714.9 734.197C745.2 731.497 777 733.497 807.7 733.697Z" fill="white"/>
<path d="M201.9 385.098C206.8 384.998 212.7 388.598 216.4 383.798C218.7 380.498 217.4 377.198 215.6 374.198C210.9 366.098 205.6 358.398 201.2 350.098C201.4 349.998 201.5 349.798 201.7 349.698C212.2 356.398 221.7 364.398 231.8 371.498C237 376.198 247.5 377.798 247.1 368.298C246 354.198 239.6 340.398 238 326.598C247 343.498 253.5 361.598 261.5 378.998C263 385.598 270.5 389.898 274.3 382.498C278.8 369.798 281.8 356.298 291.1 345.898C291.5 345.998 291.8 345.998 292.2 346.098C297.4 364.798 294.8 384.498 290.7 403.198C290.5 404.098 289.7 405.398 288.9 405.598C272.1 410.798 257.2 419.998 241.4 427.198C237 429.398 237 429.398 233.7 425.598C222.9 412.498 210.3 400.698 201.6 385.998C201.5 385.698 201.7 385.398 201.9 385.098Z" fill="white"/>
<path d="M264.5 732.4C264.5 742.6 264.5 752.5 264.5 762.8C236.1 766 208 768.6 179.5 768.3C168.5 768.1 153.6 765.3 155.7 751.1C156.5 747.7 155.3 735.7 158.5 734.7C193.5 727.7 229.1 729.8 264.5 732.4Z" fill="white"/>
<path d="M623.7 423.699C627.3 428.899 632.4 429.799 628.4 436.299C606.2 484.299 570.6 524.199 535.1 562.699C534.7 562.599 534.4 562.499 534 562.399C533.9 548.099 534.6 533.699 534.8 519.399C534.9 511.699 533.1 505.299 526.2 501.099C529.3 499.099 536.8 489.899 539.6 490.999C573.6 501.999 607.4 447.899 623.7 423.699Z" fill="white"/>
<path d="M511.7 497.599C508.9 500.799 508.5 504.799 507.9 508.799C505.4 523.299 503.8 538.099 500.7 552.399C482.6 508.999 461.5 463.399 466.5 415.199C466.6 414.099 467.4 412.799 468.3 412.099C475.8 406.999 483.4 402.199 491.1 397.199C493.6 399.999 496 402.799 498.4 405.399C485.2 428.799 490.2 455.099 495.1 479.999C496.2 486.199 499.6 490.299 506.4 488.499C508.1 491.599 509.9 494.599 511.7 497.599Z" fill="white"/>
<path d="M412.1 716.998C435.7 687.998 466.6 672.398 503.1 666.098C501.3 681.198 502.4 696.098 504.9 711.298C473.8 709.298 443.3 718.998 412.1 716.998Z" fill="white"/>
<path d="M532.6 462.6C566.3 442.4 576.1 434.9 599.2 402.5C605.1 407.4 610.9 412.2 616.6 417C603.7 438.1 574.6 480.7 549.1 483.3C544.7 483.5 543.3 482.5 541.3 478.5C538.5 473.3 535.6 468.1 532.6 462.6Z" fill="white"/>
<path d="M528.7 454.798C523.4 442.698 522 429.898 519.8 417.098C548.6 421.698 568.4 397.098 580.7 374.898C580.1 385.498 580.8 395.998 582.5 406.398C572.6 428.798 548.3 441.098 528.7 454.798Z" fill="white"/>
<path d="M503.8 480.3C498.9 456.8 494.4 434 505.1 411C507.4 412.3 509.1 413.2 511.4 414.4C508.6 423.5 516.8 450.7 521.2 459.8C521.5 460.3 521.4 461.4 521 461.8C515.3 468.4 510.3 474 503.8 480.3Z" fill="white"/>
<path d="M538.3 52.5974C503.5 78.2974 465.5 100.997 429.2 124.997C424.1 128.497 419.8 122.397 425.5 119.197C436.3 112.097 447.1 104.897 457.9 97.8974C482.4 81.9975 507 66.0975 531.6 50.1974C534.3 48.3974 538.3 47.7974 538.3 52.5974Z" fill="white"/>
<path d="M273.7 747.698C274.3 738.898 274.8 729.998 275.7 721.198C276.5 713.498 277.6 712.798 285.2 713.098C291.6 713.398 292.1 713.598 292 719.998C291.8 730.598 291.2 741.298 290.8 751.898C290.9 766.498 289.3 760.598 276.5 762.898C274.6 763.098 273.9 762.298 273.9 760.498C273.9 756.198 273.9 751.998 273.9 747.698C273.9 747.698 273.8 747.698 273.7 747.698Z" fill="white"/>
<path d="M492.2 159.099C490.8 158.499 489.4 157.899 487.8 157.199C491.5 149.999 500.6 124.199 507.1 122.699C508.4 127.099 504.9 130.899 503.6 134.899C499.7 142.999 496.3 151.199 492.2 159.099Z" fill="white"/>
<path d="M594.7 804.197C635.2 802.497 675.6 800.697 716.1 800.597C724.4 800.497 732.7 800.297 741 800.297C744.6 799.997 749.1 802.197 748.7 806.097C748.5 809.897 744.4 811.597 740.9 811.297C677.6 811.097 614.4 815.697 551 815.697C516.7 815.597 482.3 815.597 448 815.097C444.9 815.097 441.4 813.697 441.6 810.097C441.5 806.397 445.2 804.997 448.4 805.197C497.2 804.997 546 804.697 594.7 804.797C594.7 804.597 594.7 804.397 594.7 804.197Z" fill="black"/>
<path d="M182.8 834.898C182.8 823.598 182.9 812.398 182.7 801.098C183.2 795.798 186.2 786.998 192.9 790.198C205.9 797.798 218.1 806.798 230.6 815.298C236.9 819.998 245.1 828.998 236.9 835.898C226.1 846.298 215.3 856.698 204.4 867.098C199.1 872.598 183.9 884.398 182.3 869.998C182.4 858.298 182.7 846.598 182.6 834.898C182.7 834.898 182.8 834.898 182.8 834.898ZM191.4 864.698C191.6 864.898 191.7 864.998 191.9 865.198C204.5 852.898 217 840.598 229.7 828.298C226.5 823.498 198.6 803.998 191.5 801.798C191.4 822.798 191.4 843.698 191.4 864.698Z" fill="black"/>
<path d="M315.4 881.098C310 880.898 301.6 881.398 302.8 873.598C305 850.198 307.2 826.798 309.5 803.498C309.3 798.298 310.2 790.798 316.8 790.098C323 790.698 334.3 790.298 333.2 799.298C330.7 820.298 329.8 841.498 328.7 862.598C327.7 872.798 329.6 883.498 315.4 881.098ZM325.5 798.998C322.6 799.398 317.5 796.898 317.1 800.998C314.7 824.998 313.3 848.898 309.6 872.698C312.3 872.198 320.2 874.998 320.2 871.498C322.3 847.098 321.7 823.298 325.5 798.998Z" fill="black"/>
<path d="M272.4 863.799C273.9 842.399 274 820.899 276.3 799.699C278 789.399 289.3 792.899 296.8 793.099C299.6 793.399 300.7 794.799 300.5 797.599C299.8 807.599 299.1 817.699 298.3 827.699C297.3 840.899 296.3 854.099 295.3 867.299C294.9 872.399 293.5 879.899 286.8 878.799C275.5 877.299 271.2 876.399 272.4 863.799C272.3 863.799 272.3 863.799 272.4 863.799ZM292.4 799.899C286.6 799.999 283.1 798.999 283.4 806.099C282.7 817.699 282.2 829.299 281.5 840.899C281 849.699 280.4 858.499 280 867.199C280.2 871.099 284 869.999 287.2 870.799C289 846.999 290.7 823.599 292.4 799.899Z" fill="black"/>
<path d="M531.7 373.797C526 374.897 520.7 376.297 515 375.297C516.1 368.997 517.2 361.297 509.5 359.297C507.6 358.697 505.1 358.297 506 355.597C506.9 353.097 509 354.597 510.6 355.197C520.3 358.797 529.8 358.197 538.8 353.297C568.2 342.697 552.8 406.297 517.9 397.597C515.4 397.097 512.9 395.797 510.6 394.697C506.8 392.797 509.5 389.097 513 389.897C515.8 390.597 518.4 392.097 521.2 392.697C531.3 395.697 532.8 380.897 531.7 373.797ZM519.3 370.497C530.3 369.897 539.7 366.197 547.6 358.797C544.8 352.297 532 364.297 519.3 361.697C519.3 364.797 519.3 367.497 519.3 370.497Z" fill="black"/>
<path d="M489.3 252.398C496.2 253.598 503.3 254.798 510.4 256.198C513.2 256.798 514.9 259.498 513.9 261.998C506.7 284.998 506.1 309.298 502.3 332.998C502.5 338.298 493.2 339.298 494.1 333.198C496.3 310.898 499.7 288.698 504.2 266.698C504.6 264.398 504 263.398 501.8 262.998C495.2 261.598 488.3 260.898 481.9 258.598C475.7 254.498 486 252.998 489.3 252.398Z" fill="black"/>
<path d="M532.5 258.699C541.6 260.399 551.5 259.799 560.1 262.899C562.8 264.799 562.5 267.599 559.4 268.399C556.7 268.699 554 268.499 551.3 268.199C543.6 266.999 535.7 266.499 528.1 264.399C526.6 263.899 525.4 263.199 525.6 261.299C526.1 257.999 530 259.199 532.3 258.999C532.5 258.899 532.5 258.799 532.5 258.699Z" fill="black"/>
<path d="M496.4 273.099C496.5 283.899 484.7 283.199 485.7 272.999C486.4 263.599 495.6 264.199 496.4 273.099Z" fill="black"/>
<path d="M541 277.4C540.9 288.4 529.3 287.6 530.2 277.3C531.5 268.1 539.9 268.6 541 277.4Z" fill="black"/>
<path d="M615.2 298.298C615.4 301.698 613.2 305.798 609 304.598C609.5 299.098 613.7 297.598 608.2 292.698C607.7 292.198 607.7 291.298 607.5 290.598C612 288.498 615.1 293.498 615.2 298.298Z" fill="black"/>
<path d="M191.4 864.697C191.4 843.697 191.4 822.797 191.4 801.797C198.5 803.997 226.5 823.497 229.6 828.297C217 840.597 204.4 852.897 191.8 865.197C191.7 864.997 191.6 864.897 191.4 864.697Z" fill="white"/>
<path d="M325.5 799C321.6 823.3 322.3 847.2 320.2 871.6C320.2 875.1 312.4 872.4 309.6 872.8C313.3 848.9 314.6 825.1 317.1 801.1C317.6 796.9 322.6 799.4 325.5 799Z" fill="white"/>
<path d="M292.4 799.897C290.7 823.597 288.9 846.997 287.2 870.697C284 869.997 280.2 870.997 280 867.097C280.4 858.297 281 849.497 281.5 840.797C282.1 829.197 282.7 817.597 283.4 805.997C283.1 798.997 286.6 799.897 292.4 799.897Z" fill="white"/>
<path d="M519.3 370.5C519.3 367.5 519.3 364.8 519.3 361.7C532 364.3 544.8 352.3 547.6 358.8C539.7 366.2 530.3 369.9 519.3 370.5Z" fill="white"/>
</svg>
