<svg width="960" height="960" viewBox="0 0 960 960" fill="none" xmlns="http://www.w3.org/2000/svg">
<g clip-path="url(#clip0_1557_7544)">
<path d="M126.498 672.09C120.492 673.273 114.669 671.817 109.3 674.911C99.3818 679.46 89.0995 653.891 88.0075 646.248C80.0911 590.742 69.9908 514.762 106.661 467.718C107.48 466.99 107.662 465.261 107.571 463.987C105.933 447.699 103.931 431.411 102.476 415.124C100.929 380.364 92.1933 343.42 103.113 309.571C105.933 303.201 110.574 299.834 117.672 298.743C206.026 286.913 295.564 287.368 384.556 287.186C383.191 281.909 383.919 276.631 380.098 272.081C374.82 265.803 373.182 257.795 371.817 249.879C366.448 219.487 360.079 187.912 370.998 157.793C386.922 116.118 432.965 94.0065 474.64 86.2721C515.86 81.9044 557.899 96.3724 591.476 119.667C612.496 134.044 625.508 157.429 634.334 180.906C638.52 195.647 638.429 210.297 634.152 224.947C633.788 226.402 634.061 228.222 634.607 229.678C646.345 265.075 655.809 257.067 652.442 300.471C689.112 302.928 726.602 304.111 763.454 305.385C781.835 306.932 830.79 294.466 834.52 320.126C838.342 361.346 839.161 402.748 841.163 444.06C841.254 445.606 841.163 447.062 843.438 447.153C870.554 449.701 879.471 512.942 880.199 534.962C881.2 565.809 879.289 596.474 873.921 626.866C872.01 637.876 867.187 647.613 860.272 656.439C859.453 657.531 859.18 659.351 859.271 660.807C860.09 711.854 892.756 863.814 812.591 860.993C686.564 856.989 560.265 858.081 434.239 862.176C360.352 865.816 286.556 871.457 212.76 875.461C195.653 876.28 178.455 876.371 161.621 872.185C146.79 868.909 132.867 859.082 133.322 842.521C132.685 820.137 132.594 797.843 131.867 775.459C130.502 741.063 128.591 706.668 126.498 672.09ZM794.756 563.261C722.78 535.781 782.654 517.947 823.328 515.399C831.245 514.762 825.785 505.571 825.239 500.931C822.145 485.098 811.499 465.807 825.785 452.34C826.331 451.794 826.695 450.611 826.604 449.792C823.419 408.117 823.146 366.26 820.052 324.585C819.87 321.4 818.141 320.672 815.594 320.49C733.335 314.575 650.804 314.484 568.455 308.934C419.68 300.835 269.813 293.192 121.493 312.119C108.117 313.484 114.305 362.165 114.123 372.72C116.398 402.02 119.4 431.229 122.039 460.438C122.221 462.258 122.949 463.168 124.951 463.532C153.887 469.993 138.327 504.57 133.959 523.77C132.503 529.958 133.777 531.232 140.147 531.687C184.279 533.597 234.507 553.98 165.443 579.367C203.479 589.832 211.031 607.575 172.541 626.684C198.838 632.144 203.024 649.615 178 661.262C167.536 666.539 156.071 668.632 144.515 670.179C141.876 670.543 141.239 671.453 141.421 674.001C144.788 729.962 146.79 786.014 148.063 842.066C148.973 859.264 172.45 858.991 185.189 860.447C267.538 860.265 349.615 849.71 431.964 846.98C558.718 843.158 685.655 841.429 812.409 846.252C857.815 846.07 849.898 786.287 850.353 754.985C850.262 722.956 846.805 691.108 844.166 659.169C845.622 654.619 830.244 656.439 827.514 655.438C807.495 653.163 784.656 650.979 769.642 636.147C757.904 623.317 776.466 612.853 788.023 610.487C750.169 593.107 758.086 573.362 794.756 563.261ZM506.761 254.975C490.382 251.517 474.367 246.694 459.262 239.597C451.801 235.593 444.43 239.051 437.151 241.507C429.689 245.056 409.488 235.775 417.951 228.131C423.957 224.583 428.597 235.593 439.243 228.768C423.138 218.395 409.761 205.656 399.297 188.822C387.832 219.669 385.557 251.972 390.198 284.275C390.471 286.185 390.562 287.823 393.383 287.914C455.349 290.098 516.861 293.556 578.828 296.741C576.553 294.011 575.37 291.827 577.372 289.279C581.376 285.002 587.472 291.463 591.931 285.366C602.85 274.265 602.759 251.244 586.38 245.238C581.922 243.418 579.829 248.696 576.189 250.152C565.725 255.52 553.441 255.975 542.339 258.25C539.792 260.434 537.244 259.797 534.514 259.615C526.961 259.069 519.5 258.614 512.129 261.344C506.67 262.436 506.033 260.434 506.761 254.975ZM778.741 627.321C778.65 627.867 778.65 628.504 778.559 629.05C789.933 637.33 803.582 641.061 817.323 642.972C823.055 643.063 849.625 648.432 851.536 644.519C855.813 638.331 858.907 631.689 860.272 624.227C867.46 571.815 874.922 512.669 847.805 464.624C844.985 460.529 841.8 459.711 837.25 461.257C824.693 465.261 839.889 497.473 840.708 507.3C844.257 521.586 832.245 529.503 819.779 529.23C804.765 529.776 790.115 533.051 776.284 538.693C776.284 539.057 776.284 539.421 776.284 539.785C790.388 548.429 806.312 553.07 822.054 557.62C828.333 559.44 831.063 562.169 830.699 566.173C830.153 576.183 806.312 573.726 798.396 576.547C791.389 577.911 784.656 580.095 778.559 584.19C772.554 587.83 785.02 593.471 787.75 595.473C797.577 600.569 808.223 603.936 817.777 609.486C822.873 612.58 821.417 621.497 815.503 622.407C803.218 624.591 790.206 622.043 778.741 627.321ZM185.28 602.662C171.358 591.379 152.977 591.742 136.234 588.74C128.591 587.83 127.772 576.728 135.324 574.818C152.249 568.721 169.629 564.262 185.371 555.436C149.064 535.144 104.841 563.17 125.315 504.115C126.498 496.199 133.959 482.004 124.496 477.454C119.764 475.725 116.125 476.817 113.213 481.185C86.1877 527.956 93.6492 585.828 100.201 637.148C101.566 645.793 104.204 653.891 109.482 660.989C111.575 664.81 134.141 659.442 139.601 659.624C154.706 657.622 170.266 654.437 182.55 644.974C182.459 644.519 182.368 644.155 182.368 643.7C171.176 638.24 157.8 640.606 145.698 638.604C139.692 637.785 138.236 628.686 143.332 625.683C156.981 617.039 173.451 614.309 185.28 602.662ZM487.925 104.562C454.621 111.113 427.687 132.406 409.943 160.887C408.306 163.435 407.942 167.711 411.126 168.985C414.948 170.441 418.679 168.712 420.772 165.164C435.513 145.509 452.438 126.582 476.915 119.576C481.283 118.302 485.741 117.301 490.109 116.027C497.388 113.934 495.66 104.198 487.925 104.562Z" fill="black"/>
<path d="M794.754 563.261C757.902 573.362 750.167 593.107 788.112 610.76C776.646 613.035 757.993 623.59 769.731 636.421C784.836 651.252 807.584 653.436 827.603 655.711C831.88 656.894 844.71 654.71 844.255 659.442C846.894 691.29 850.351 723.138 850.442 755.258C849.987 786.196 857.813 846.798 812.498 846.525C685.744 841.702 558.807 843.431 432.053 847.253C349.704 849.983 267.627 860.538 185.278 860.72C172.266 859.264 149.244 859.537 148.152 842.339C146.879 786.287 144.877 730.235 141.51 674.274C141.328 671.726 141.965 670.816 144.604 670.452C156.16 668.905 167.534 666.812 178.089 661.535C203.75 649.615 197.926 632.053 172.63 626.957C211.211 607.757 203.568 590.014 165.532 579.64C235.416 553.798 183.003 533.689 140.236 531.96C133.866 531.414 132.502 530.231 134.048 524.043C138.234 504.934 153.976 470.175 125.04 463.805C123.038 463.441 122.31 462.531 122.128 460.712C119.489 431.503 116.487 402.294 114.212 372.994C114.212 361.71 108.479 314.121 121.582 312.392C269.902 293.465 419.769 301.108 568.544 309.207C650.802 314.758 733.424 314.849 815.683 320.763C818.231 320.945 820.05 321.673 820.141 324.858C823.235 366.533 823.508 408.39 826.693 450.065C826.784 450.884 826.42 452.067 825.874 452.613C811.679 466.08 822.234 485.28 825.328 501.204C826.147 505.935 831.061 514.944 823.417 515.672C781.378 518.129 723.506 536.145 794.754 563.261ZM499.388 616.402C543.429 617.039 584.65 617.585 625.779 618.131C647.071 618.404 668.364 618.586 689.656 618.677C694.297 618.586 701.758 618.495 701.486 612.125C701.395 607.211 696.117 606.12 692.113 606.211C651.712 606.302 611.22 605.574 570.819 605.21C484.192 605.301 397.566 604.3 310.94 606.302C306.755 606.848 304.298 609.395 304.571 612.762C304.844 616.038 307.574 618.131 311.668 618.131C373.18 618.495 439.605 617.403 499.388 616.402ZM502.937 654.437C502.937 654.619 502.937 654.801 502.937 655.074C566.815 656.712 630.601 657.622 694.479 659.442C705.125 659.988 705.398 646.794 694.57 647.067C671.094 646.794 647.526 645.702 624.05 645.247C520.59 643.973 417.221 639.423 313.761 641.698C309.393 641.789 302.933 642.972 303.752 648.705C304.207 653.618 309.393 653.891 313.306 653.527C376.456 651.616 439.697 654.164 502.937 654.437ZM257.163 454.615C270.539 456.253 277.546 449.883 268.173 437.963C266.262 434.05 257.982 431.139 261.44 426.134C264.352 420.856 271.631 416.307 268.992 409.573C263.806 400.11 250.338 406.479 241.694 406.115C240.875 406.206 239.783 406.206 239.146 405.751C227.681 397.835 217.672 387.189 205.115 381.183C187.462 378.726 199.655 401.566 202.749 409.573C207.025 419.309 192.193 435.779 188.645 445.243C185.005 452.886 193.194 457.527 200.019 455.161C205.024 454.706 213.486 447.062 216.58 453.159C218.582 456.799 220.584 460.439 222.403 464.078C226.225 469.72 226.862 481.731 235.325 481.822C244.606 479.82 242.877 466.171 244.515 458.892C244.97 452.431 252.795 455.161 257.163 454.615ZM720.958 408.39C707.036 408.026 713.588 421.948 717.682 428.5C721.777 434.869 707.582 436.962 704.488 441.057C698.301 446.335 704.306 453.341 710.494 454.524C716.045 456.799 724.689 454.524 727.874 460.439C732.514 468.992 733.424 478.637 735.608 487.919C736.427 491.376 737.974 494.379 742.069 494.925C750.622 495.471 752.169 482.732 754.626 476.635C757.174 465.989 769.367 469.993 777.374 468.537C789.931 466.899 785.382 454.797 778.739 448.791C776.828 445.516 769.64 444.333 771.551 439.692C772.916 432.685 792.297 400.383 776.555 402.476C768.002 405.114 761.632 412.212 754.08 416.762C752.442 417.853 749.712 418.763 747.983 418.217C739.521 415.67 728.875 411.12 720.958 408.39ZM660.356 687.195C638.518 690.744 610.674 683.646 602.393 708.67C596.297 726.231 598.936 742.883 620.137 745.249C636.698 748.07 653.259 746.705 669.82 745.977C683.924 745.34 694.206 737.06 697.846 723.41C707.764 682.554 692.295 689.652 660.356 687.195ZM601.938 403.385C599.209 434.232 585.195 470.266 601.665 499.111C607.125 506.39 619.136 508.483 625.961 503.297C631.329 499.839 626.871 492.65 621.684 495.38C604.213 502.023 605.214 471.904 605.214 461.53C607.216 442.604 610.31 423.768 612.858 404.932C613.131 402.84 614.041 402.385 615.951 402.294C621.775 401.293 633.513 404.477 634.241 396.197C633.513 387.28 621.138 391.465 614.95 390.555C614.768 383.913 622.867 361.346 613.495 361.164C610.492 361.619 607.034 363.894 607.034 367.443C606.033 374.267 604.85 381.092 604.213 388.008C603.94 391.01 602.666 391.738 599.845 391.92C593.84 393.376 578.735 391.192 579.099 400.019C581.465 408.845 595.205 402.749 601.938 403.385ZM479.37 501.568C524.685 519.948 523.593 451.157 480.735 456.071C478.187 455.889 474.638 453.068 472.09 453.705C469.36 455.07 467.814 458.983 468.36 462.167C468.36 470.448 468.633 478.728 468.36 487.1C468.451 512.396 463.628 538.056 466.631 563.08C471.089 571.269 476.64 561.169 476.458 555.8C477.732 537.692 478.642 519.857 479.37 501.568ZM319.949 376.542C318.22 415.488 318.402 454.16 318.675 493.196C319.039 499.475 327.592 499.384 327.683 493.014C327.956 454.433 328.502 415.761 328.866 377.179C328.866 375.268 329.412 374.449 331.414 373.994C341.241 371.902 351.16 369.627 360.987 367.352C365.719 366.26 367.72 364.076 367.083 361.073C366.447 357.889 363.535 356.797 358.621 357.889C333.689 363.53 308.665 369.172 283.733 374.813C280.002 375.723 273.724 376.724 275.089 381.911C275.999 385.824 280.275 385.551 283.369 384.641C295.38 381.911 307.392 379.272 319.949 376.542ZM446.339 696.658C456.894 697.568 456.894 684.556 446.521 684.283C401.206 684.92 355.527 682.099 310.485 687.65C306.391 688.105 304.207 690.835 304.571 693.838C305.026 699.661 313.488 698.66 318.129 698.023C360.805 694.839 403.572 695.748 446.339 696.658ZM641.43 475.634C654.169 474.816 676.28 476.726 675.734 459.074C673.641 433.777 639.701 441.239 633.24 461.348C623.595 477.636 632.148 504.48 650.802 508.483C658.263 512.032 687.199 503.934 682.013 493.742C680.648 491.376 677.736 490.285 674.824 491.376C666.453 495.289 657.172 501.75 648.436 494.834C642.158 490.103 640.793 483.278 641.43 475.634ZM413.126 460.166C413.126 455.798 409.123 450.884 405.028 453.796C399.932 458.71 402.48 466.717 402.025 473.087C402.025 481.185 402.025 489.284 402.025 497.291C401.297 503.388 409.76 505.207 410.942 498.201C412.762 487.1 409.305 475.998 420.042 468.628C425.138 464.624 423.682 478.455 424.41 481.094C424.865 485.462 422.681 493.105 429.141 493.469C434.237 494.015 435.238 488.92 435.42 485.007C436.33 480.912 437.149 476.726 438.514 472.723C439.424 470.084 440.97 466.99 444.428 467.354C451.526 468.446 448.614 486.645 449.615 492.377C449.706 495.016 449.16 497.655 449.342 500.294C450.252 508.301 460.352 505.389 460.17 498.383C460.534 486.645 463.082 473.997 456.348 463.532C450.343 453.523 439.151 455.343 432.144 462.622C425.138 455.798 422.044 455.343 413.126 460.166ZM349.067 483.551C401.115 479.547 387.557 441.785 361.169 446.698C349.34 449.701 342.879 458.255 339.876 469.538C330.231 499.93 368.448 518.22 389.286 497.746C395.11 492.832 388.103 485.007 382.461 490.285C371.906 500.385 352.797 498.747 349.067 483.551ZM532.055 442.149C532.419 442.149 532.874 442.149 533.238 442.149C532.419 420.492 534.876 397.926 532.237 376.633C527.96 369.536 520.772 375.541 521.773 382.184C521.318 421.22 521.591 460.257 521.682 499.293C521.409 503.479 522.137 508.483 526.778 509.666C531.782 510.667 531.873 503.661 532.055 500.203C532.055 480.821 532.055 461.53 532.055 442.149ZM566.269 459.802C552.711 458.71 542.064 467.354 538.698 479.547C534.148 499.748 557.624 509.848 569.363 491.922C569.909 496.199 570.182 500.021 570.91 503.752C572.274 510.121 581.465 508.938 581.738 502.569C580.464 488.92 579.099 475.271 578.189 461.621C578.189 454.342 568.453 452.431 566.269 459.802Z" fill="white"/>
<path d="M506.76 254.974C506.032 260.343 506.669 262.435 512.038 261.253C519.408 258.523 526.87 259.069 534.422 259.524C537.152 259.706 539.7 260.252 542.248 258.159C553.349 255.884 565.633 255.429 576.097 250.06C579.737 248.695 581.83 243.327 586.289 245.147C602.668 251.152 602.759 274.083 591.839 285.275C587.472 291.371 581.284 285.002 577.28 289.188C575.37 291.735 576.552 293.919 578.736 296.649C516.77 293.373 455.258 289.916 393.291 287.823C390.379 287.732 390.379 286.094 390.106 284.183C385.466 251.88 387.74 219.577 399.206 188.73C409.761 205.564 423.137 218.303 439.152 228.677C428.324 235.501 423.865 224.491 417.859 228.04C409.306 235.774 429.597 245.056 437.059 241.416C444.247 238.959 451.709 235.501 459.17 239.505C474.366 246.784 490.381 251.607 506.76 254.974ZM453.347 248.149C427.96 248.513 431.417 264.164 440.79 258.25C452.983 249.696 464.448 262.89 468.998 257.977C472.456 250.333 456.259 249.605 453.347 248.149ZM591.384 272.354C599.574 269.533 596.48 254.792 589.656 252.335C585.197 250.242 582.103 257.977 586.835 259.251C593.022 261.253 591.02 266.985 591.384 272.354Z" fill="white"/>
<path d="M778.743 627.32C790.3 622.043 803.312 624.591 815.505 622.407C821.511 621.497 822.875 612.579 817.78 609.486C808.225 603.935 797.579 600.568 787.752 595.473C785.022 593.471 772.647 587.829 778.561 584.189C784.567 580.095 791.392 577.911 798.398 576.546C806.406 573.634 830.155 576.182 830.701 566.173C831.065 562.169 828.335 559.348 822.056 557.619C806.315 553.07 790.391 548.338 776.287 539.784C776.287 539.42 776.287 539.056 776.287 538.692C790.118 532.96 804.768 529.684 819.782 529.229C832.248 529.502 844.259 521.586 840.71 507.3C839.891 497.29 824.604 465.352 837.252 461.257C841.802 459.71 844.987 460.529 847.808 464.624C874.924 512.668 867.462 571.723 860.274 624.227C858.909 631.688 855.724 638.331 851.538 644.518C849.719 648.522 822.875 642.971 817.325 642.971C803.585 641.06 789.936 637.33 778.561 629.049C778.652 628.503 778.652 627.957 778.743 627.32Z" fill="white"/>
<path d="M185.283 602.659C173.454 614.306 156.984 617.036 143.244 625.498C138.148 628.501 139.695 637.6 145.61 638.419C157.712 640.512 170.997 638.146 182.28 643.515C182.371 643.97 182.462 644.334 182.462 644.789C170.178 654.252 154.618 657.437 139.513 659.439C133.962 659.348 111.578 664.535 109.394 660.804C104.116 653.706 101.478 645.608 100.113 636.963C93.6522 585.643 86.0997 527.771 113.125 481C116.037 476.632 119.676 475.631 124.408 477.269C133.78 481.728 126.319 496.105 125.227 503.931C104.662 563.076 148.976 534.959 185.283 555.251C169.541 564.168 152.161 568.536 135.236 574.724C127.684 576.635 128.503 587.736 136.146 588.646C152.98 591.74 171.361 591.376 185.283 602.659Z" fill="white"/>
<path d="M487.924 104.565C495.659 104.201 497.388 113.937 490.108 116.03C485.741 117.304 481.282 118.214 476.914 119.579C452.437 126.585 435.512 145.512 420.771 165.166C418.769 168.715 414.947 170.535 411.126 168.988C408.032 167.714 408.305 163.438 409.943 160.89C427.687 132.5 454.621 111.116 487.924 104.565Z" fill="white"/>
<path d="M499.393 616.399C439.611 617.4 373.185 618.492 311.673 618.219C307.488 618.219 304.758 616.126 304.576 612.851C304.303 609.393 306.76 606.936 310.945 606.39C397.571 604.388 484.198 605.298 570.824 605.207C611.225 605.571 651.717 606.299 692.118 606.208C696.122 606.117 701.4 607.209 701.491 612.123C701.764 618.401 694.302 618.583 689.661 618.674C668.369 618.583 647.076 618.401 625.784 618.128C584.655 617.582 543.434 617.036 499.393 616.399Z" fill="black"/>
<path d="M502.937 654.439C439.696 654.166 376.456 651.71 313.306 653.62C309.393 653.984 304.206 653.711 303.752 648.798C302.933 643.065 309.393 641.882 313.761 641.791C417.221 639.516 520.59 644.066 624.05 645.34C647.526 645.704 671.093 646.796 694.57 647.16C705.307 646.887 705.307 660.081 694.479 659.535C630.601 657.715 566.815 656.805 502.937 655.167C502.937 654.803 502.937 654.621 502.937 654.439Z" fill="black"/>
<path d="M257.165 454.616C252.798 455.162 244.972 452.342 244.426 458.893C242.697 466.173 244.517 479.822 235.236 481.824C226.774 481.733 226.228 469.721 222.315 464.08C220.495 460.349 218.493 456.709 216.491 453.161C213.397 447.064 204.935 454.707 199.93 455.162C193.197 457.528 184.825 452.888 188.556 445.244C192.196 435.781 207.028 419.402 202.66 409.575C199.566 401.476 187.373 378.728 205.026 381.185C217.583 387.19 227.593 397.836 239.058 405.753C245.791 406.754 253.071 404.388 259.986 404.57C263.717 404.388 267.175 405.844 268.904 409.666C271.542 416.399 264.263 420.949 261.351 426.226C257.984 431.14 266.174 434.143 268.085 438.056C277.548 449.794 270.633 456.345 257.165 454.616Z" fill="black"/>
<path d="M720.963 408.39C728.971 411.119 739.526 415.669 747.988 418.308C749.717 418.854 752.356 417.944 754.085 416.852C761.637 412.302 768.007 405.205 776.56 402.566C792.302 400.382 772.921 432.867 771.556 439.783C769.645 444.423 776.833 445.606 778.744 448.882C785.387 454.887 789.936 466.899 777.379 468.628C769.463 470.174 757.179 466.08 754.631 476.726C752.174 482.823 750.627 495.471 742.074 495.016C737.979 494.561 736.432 491.467 735.613 488.009C733.52 478.728 732.519 469.083 727.879 460.529C724.694 454.524 716.049 456.889 710.499 454.524C704.311 453.25 698.306 446.334 704.493 441.056C707.587 436.962 721.782 434.96 717.687 428.499C713.502 421.948 707.041 408.026 720.963 408.39Z" fill="black"/>
<path d="M660.355 687.191C692.294 689.739 707.763 682.369 697.844 723.407C694.205 737.056 683.922 745.336 669.818 745.973C653.257 746.701 636.606 747.975 620.136 745.245C598.934 742.789 596.204 726.228 602.392 708.666C610.672 683.643 638.516 690.74 660.355 687.191ZM650.983 735.418C650.983 735.054 650.983 734.69 651.074 734.326C663.904 734.326 682.284 737.147 686.106 721.041C687.744 715.218 688.199 709.121 688.836 703.115C689.109 700.386 687.835 698.748 684.559 698.475C666.179 697.201 647.98 698.657 629.781 700.75C617.679 702.114 613.766 706.391 611.673 718.493C611.127 723.225 609.944 729.959 615.768 731.778C627.051 734.872 639.335 733.962 650.983 735.418Z" fill="black"/>
<path d="M601.94 403.385C595.206 402.748 581.466 408.845 579.373 400.018C578.918 391.101 594.023 393.376 600.12 391.92C602.941 391.738 604.124 391.01 604.488 388.007C605.216 381.092 606.307 374.267 607.308 367.443C607.308 363.894 610.766 361.619 613.769 361.164C623.141 361.346 615.043 384.003 615.225 390.555C621.412 391.374 633.697 387.37 634.516 396.197C633.788 404.477 622.049 401.292 616.226 402.293C614.315 402.293 613.405 402.839 613.132 404.932C610.584 423.768 607.399 442.603 605.489 461.53C605.489 471.994 604.488 502.022 621.958 495.38C627.145 492.559 631.604 499.839 626.235 503.296C619.411 508.392 607.399 506.299 601.94 499.111C585.197 470.266 599.21 434.232 601.94 403.385Z" fill="black"/>
<path d="M479.371 501.566C478.643 519.764 477.733 537.69 476.55 555.798C476.823 561.166 471.182 571.358 466.723 563.077C463.629 538.054 468.543 512.303 468.452 487.098C468.816 478.817 468.452 470.537 468.452 462.165C467.906 458.98 469.453 454.977 472.183 453.703C474.639 453.066 478.188 455.887 480.827 456.069C523.503 451.246 524.686 519.946 479.371 501.566ZM479.644 490.464C482.647 491.101 485.195 491.283 487.469 492.193C510.946 498.29 503.211 465.259 483.557 467.352C481.737 467.534 479.553 467.625 479.644 470.446C479.735 477.27 479.644 484.004 479.644 490.464Z" fill="black"/>
<path d="M319.948 376.546C307.482 379.276 295.379 381.915 283.368 384.554C280.274 385.464 275.998 385.737 275.088 381.824C273.723 376.637 280.001 375.636 283.732 374.726C308.664 369.085 333.688 363.443 358.62 357.802C363.443 356.71 366.446 357.802 367.082 360.986C367.719 363.989 365.718 366.173 360.986 367.265C351.159 369.54 341.331 371.815 331.413 373.907C329.411 374.362 328.865 375.181 328.865 377.092C328.501 415.674 327.955 454.346 327.682 492.927C327.591 499.297 319.038 499.479 318.674 493.109C318.401 454.164 318.128 415.583 319.948 376.546Z" fill="black"/>
<path d="M446.341 696.655C403.665 695.745 360.807 694.926 318.131 698.02C313.49 698.657 305.028 699.748 304.573 693.834C304.209 690.831 306.393 688.101 310.488 687.646C355.62 682.096 401.208 684.825 446.523 684.28C456.805 684.552 456.896 697.474 446.341 696.655Z" fill="black"/>
<path d="M641.43 475.634C640.793 483.277 642.158 490.102 648.437 494.834C661.904 505.935 674.916 483.823 682.013 493.742C687.109 503.933 658.264 512.031 650.802 508.483C632.058 504.479 623.595 477.636 633.241 461.348C639.61 441.238 673.642 433.686 675.735 459.073C676.281 476.726 654.26 474.815 641.43 475.634ZM644.251 465.988C649.984 465.625 655.352 465.443 660.721 464.897C669.547 464.078 665.634 451.975 658.719 453.067C652.804 453.522 645.889 459.437 644.251 465.988Z" fill="black"/>
<path d="M413.129 460.163C422.137 455.34 425.231 455.795 432.147 462.619C439.244 455.431 450.345 453.52 456.442 463.62C463.176 474.085 460.628 486.824 460.264 498.471C460.355 505.478 450.345 508.389 449.435 500.382C449.253 497.743 449.799 495.104 449.708 492.465C448.707 486.733 451.619 468.443 444.522 467.442C441.064 467.078 439.517 470.172 438.607 472.811C437.242 476.814 436.423 481 435.513 485.095C435.331 489.099 434.33 494.103 429.235 493.557C422.774 493.193 424.958 485.55 424.503 481.182C423.775 478.634 425.14 464.803 420.135 468.716C409.398 476.087 412.856 487.097 411.036 498.289C410.308 501.474 408.306 503.294 405.849 502.839C402.847 502.293 402.119 500.018 402.119 497.379C402.119 489.281 402.119 481.182 402.119 473.175C402.665 466.896 400.026 458.798 405.121 453.884C409.125 450.881 413.129 455.795 413.129 460.163Z" fill="black"/>
<path d="M349.068 483.55C352.799 498.837 371.907 500.384 382.554 490.284C388.104 485.006 395.111 492.741 389.378 497.745C368.541 518.219 330.323 499.838 339.969 469.537C342.971 458.254 349.341 449.792 361.261 446.698C387.558 441.784 401.025 479.547 349.068 483.55ZM349.25 473.541C355.619 473.541 374.637 470.629 375.092 461.894C369.087 447.335 348.886 460.711 349.25 473.541Z" fill="black"/>
<path d="M532.056 442.15C532.056 461.532 532.056 480.914 532.056 500.205C531.965 503.662 531.783 510.578 526.779 509.668C522.047 508.394 521.41 503.48 521.683 499.295C521.592 460.258 521.319 421.222 521.774 382.186C520.773 375.634 527.962 369.537 532.238 376.635C534.968 398.019 532.42 420.494 533.239 442.15C532.784 442.15 532.42 442.15 532.056 442.15Z" fill="black"/>
<path d="M566.273 459.801C568.548 452.43 578.193 454.341 578.284 461.621C579.194 475.27 580.559 488.919 581.833 502.568C581.56 508.937 572.37 510.12 571.005 503.751C570.186 500.02 570.004 496.198 569.458 491.922C557.72 509.938 534.152 499.747 538.793 479.546C541.978 467.353 552.715 458.709 566.273 459.801ZM565.181 469.173C557.356 467.626 548.438 477.909 549.166 485.006C550.167 489.829 554.262 492.377 558.266 488.282C563.27 483.277 564.362 476.544 565.181 469.173Z" fill="black"/>
<path d="M453.35 248.148C456.262 249.604 472.459 250.332 469.001 257.976C464.634 262.889 452.895 249.695 440.793 258.249C431.512 264.163 427.872 248.512 453.35 248.148Z" fill="black"/>
<path d="M591.386 272.353C591.022 267.076 593.024 261.252 586.836 259.159C582.105 257.885 585.29 250.151 589.657 252.244C596.482 254.792 599.576 269.533 591.386 272.353Z" fill="black"/>
<path d="M650.984 735.422C639.246 733.966 626.962 734.876 615.588 731.691C609.764 729.871 610.947 723.138 611.493 718.406C613.586 706.304 617.59 702.027 629.601 700.662C647.8 698.569 665.998 697.204 684.379 698.387C687.655 698.569 688.929 700.298 688.656 703.028C688.019 709.034 687.564 715.13 685.926 720.954C682.104 737.06 663.814 734.239 650.893 734.239C651.075 734.694 651.075 735.058 650.984 735.422Z" fill="white"/>
<path d="M479.647 490.466C479.647 484.005 479.647 477.272 479.647 470.447C479.647 467.626 481.74 467.535 483.56 467.353C503.214 465.261 510.949 498.291 487.472 492.195C485.198 491.285 482.65 491.103 479.647 490.466Z" fill="white"/>
<path d="M644.253 465.987C645.982 459.526 652.807 453.521 658.721 453.066C665.637 451.974 669.55 464.076 660.723 464.895C655.355 465.441 649.986 465.623 644.253 465.987Z" fill="white"/>
<path d="M349.253 473.537C348.889 460.706 369.181 447.33 375.096 461.889C374.641 470.625 355.623 473.537 349.253 473.537Z" fill="white"/>
<path d="M565.179 469.169C564.36 476.631 563.268 483.273 558.263 488.278C554.26 492.281 550.165 489.825 549.164 485.002C548.436 477.813 557.353 467.622 565.179 469.169Z" fill="white"/>
</g>
<defs>
<clipPath id="clip0_1557_7544">
<rect width="800" height="790.909" fill="white" transform="translate(80 85)"/>
</clipPath>
</defs>
</svg>
