<svg width="960" height="960" viewBox="0 0 960 960" fill="none" xmlns="http://www.w3.org/2000/svg">
<path d="M722.608 919.5C706 917.559 687.822 915.065 675.713 902.36C673.627 900.064 671.418 899.495 668.486 899.486C630.624 899.322 592.95 903.246 555.241 906.088C548.191 907.24 537.568 905.69 541.661 896.057C555.522 861.954 612.73 869.986 643.123 862.806C614.558 847.543 572.237 848.447 545.102 866.605C522.934 883.445 503.432 891.689 475.465 893.181C475.465 895.308 475.411 897.068 475.476 898.824C476.719 905.36 466.004 905.288 461.704 905.434C423.696 904.765 385.809 906.651 347.877 908.769C306.689 911.334 265.45 913.027 224.2 914.209C217.195 913.928 209.618 914.77 203.05 911.936C198.662 909.747 197.841 905.424 200.986 901.643C207.731 893.767 219.138 893.643 228.548 891.334C228.924 885.449 232.384 882.307 237.45 880.646C246.108 878.393 262.672 874.06 267.242 884.613C269.781 884.197 272.194 883.802 274.839 883.368C274.428 872.329 290.576 872.195 298.349 869.878C306.22 868.481 308.79 870.051 311.888 877.317C314.233 876.978 316.646 876.628 319.136 876.268C319.5 870.816 322.385 865.243 328.119 864.419C335.571 863.231 343.099 862.493 350.611 861.717C356.218 861.956 359.207 862.696 360.975 870.015C362.739 869.735 364.567 869.446 366.423 869.152C367.961 858.148 379.268 858.318 387.835 857.032C394.503 856.468 402.183 855.58 403.814 864.063C408.289 863.431 412.837 862.788 417.295 862.159C414.58 848.705 430.78 844.437 441.186 846.576C448.032 847.741 449.921 851.664 450.288 858.208C472.377 858.379 474.113 864.07 474.945 884.822C542.065 884.931 538.701 828.519 630.067 849.145C670.999 863.554 636.428 864.559 690.754 860.654C712.296 859.199 733.821 857.399 755.282 855.026C767.266 854.251 773.59 843.705 779.077 834.342C734.23 809.717 733.441 764.771 760.202 725.618C728.599 681.474 756.639 616.415 717.469 576.292C712.07 582.633 711.703 582.79 705.427 581.364C697.046 640.525 685.174 699.08 675.195 757.984C673.415 766.814 674.71 777.31 666.36 783.124C658.675 788.794 641.23 804.808 635.896 788.958C636.838 726.859 657.372 666.425 666.465 605.076C599.251 607.422 523.164 588.777 481.3 532.423C473.672 521.276 471.826 510.783 480.687 499.572C465.011 486.043 445.679 475.073 436.354 455.945C404.883 501.015 374.13 546.571 340.45 590.131C336.422 595.564 333.821 596.595 327.845 593.444C257.589 549.416 199.155 488.831 135.722 435.825C129.724 430.564 123.994 424.997 117.968 419.769C113.348 415.761 112.17 410.809 113.638 405.238C117.345 391.966 124.339 379.887 132 368.522C189.193 282.626 250.79 199.862 311.851 116.707C319.596 104.896 330.75 115.79 338.741 121.196C413.305 173.39 484.094 230.462 551.34 291.784C558.742 297.437 553.227 305.034 549.117 310.939C538.036 328.332 524.134 343.492 515.866 362.699C529.614 380.789 527.153 399.058 516.471 417.948C515.595 420.091 515.029 422.388 514.568 424.665C513.603 430.243 520.062 432.359 523.455 435.894C535.844 420.999 542.906 426.303 554.864 437.824C592.034 465.708 636.749 490.909 684.653 488.296C700.497 408.478 714.226 328.216 720.964 247.057C722.497 237.528 722.703 205.049 737.915 211.026C770.633 225.709 755.564 248.354 752.066 275.299C748.532 295.47 745.131 315.666 741.88 335.885C742.632 357.044 744.458 378.687 753.681 398.125C772.196 440.882 797.335 480.638 810.387 525.718C825.296 580.219 825.282 637.712 824.295 693.833C864.233 697.537 853.586 754.019 820.113 758.708C818.388 784.697 816.424 810.699 811.358 836.092C832.342 842.5 862.874 842.531 872.451 865.396C874.025 869.207 876.383 870.853 880.342 871.309C897.228 874.552 915.527 871.831 920.786 892.263C921.873 898.493 917.794 903.832 911.402 903.98C900.231 904.576 889.236 906.066 878.019 904.995C873.996 913.03 864.887 916.847 856.3 916.849C843.659 917.015 830.997 917.455 818.378 916.937C791.679 916.091 764.744 915.158 738.298 919.499C733.067 919.5 727.837 919.5 722.608 919.5ZM546.631 299.156C474.829 235.276 400.986 172.8 320.494 120.309C258.817 203.102 197.702 286.303 140.256 372.108C133.016 382.799 126.339 393.993 122.424 406.364C121.471 409.207 122.077 411.598 124.497 413.729C130.172 418.728 135.559 424.054 141.234 429.055C204.655 481.809 262.207 543.327 332.572 586.865C369.653 541.129 400.597 490.039 435.991 444.666C445.012 431.403 455.756 418.969 459.664 403.038C464.427 388.845 455.027 379.336 446.74 369.09C434.957 354.096 415.587 317.465 444.819 310.833C467.458 310.613 492.674 340.415 508.784 354.637C521.382 336.168 533.905 317.812 546.631 299.156ZM683.011 495.787C639.504 497.784 600.684 476.992 564.671 454.969C556.831 465.014 510.466 542.501 508.111 549.435C541.767 579.767 615.673 602.357 667.209 596.17C672.519 562.438 677.727 529.35 683.011 495.787ZM734.461 217.789C728.032 236.277 728.666 256.457 726.2 275.723C716.313 379.447 692.024 480.875 677.245 583.884C668.465 650.302 650.028 714.922 642.313 781.523C641.985 783.838 641.888 786.129 643.623 788.659C653.312 785.982 660.595 778.393 667.985 771.919C691.446 631.974 714.499 491.915 733.415 351.236C736.496 330.855 739.576 310.469 743.041 290.152C745.72 274.442 749.046 258.844 751.988 243.178C754.143 231.703 746.523 220.517 734.461 217.789ZM813.112 750.794C821.517 645.691 823.065 537.567 767.653 443.857C754.84 420.155 743.845 395.475 736.728 369.659C731.514 407.494 726.396 444.626 721.385 480.991C806.165 545.374 794.495 651.716 797.84 746.561C801.975 748.975 806.306 750.208 813.112 750.794ZM720.052 490.596C716.533 511.414 713.155 531.396 709.788 551.317C717.535 554.966 722.832 559.502 719.627 568.65C764.597 606.158 735.466 673.728 765.174 718.882C772.417 711.266 778.529 702.674 788.732 699.719C788.571 625.308 785.15 539.51 720.052 490.596ZM519.349 441.444C507.795 433.061 504.129 431.898 508.576 416.815C520.079 393.091 523.102 381.729 503.568 360.961C494.448 352.062 442.153 296.944 437.841 328.635C438.616 342.18 446.156 354.314 454.123 364.908C461.374 374.039 470.431 383.365 469.016 395.951C459.076 461.49 408.653 432.564 485.402 492.155C496.753 475.197 507.958 458.458 519.349 441.444ZM797.726 755.5C795.203 790.362 798.656 858.627 752.092 863.275C722.087 865.593 692.647 868.298 662.542 870.347C666.941 877.203 670.751 883.117 674.924 889.882C677.585 894.123 683.489 891.073 687.603 891.719C749.398 890.482 811.085 891.666 872.701 896.876C873.659 889.714 872.212 883.26 869.539 876.82C850.652 872.445 832.213 866.548 813.957 860.103C803.373 856.787 801.118 850.226 803.188 839.82C808.281 813.129 811.099 786.056 812.526 758.945C807.536 757.783 802.885 756.7 797.726 755.5ZM208.518 905.648C295.304 906.438 382.411 896.887 469.003 896.76C467.014 856.635 469.049 864.627 424.655 868.015C355.659 877.676 286.608 887.319 218.179 900.512C214.692 901.181 211.31 902.333 208.518 905.648ZM559.841 451.452C553.308 446.373 547.351 441.741 541.393 437.111C537.953 434.438 536.677 434.342 533.681 437.607C530.72 440.834 527.915 444.265 525.474 447.897C512.521 467.164 499.838 486.613 486.765 505.798C482.485 512.079 482.417 517.863 486.208 524.176C490.974 531.363 495.674 539.206 502.776 544.193C520.343 512.423 539.399 481.77 559.841 451.452ZM781.159 825.917C785.765 818.981 794.438 753.41 787.46 750.31C779.031 745.815 772.193 739.351 765.58 732.586C742.395 764.089 743.866 806.148 781.159 825.917ZM548.7 899.125C588.271 895.584 627.458 892.783 667.134 891.828C663.41 885.995 659.901 880.764 656.678 875.362C654.413 871.567 651.425 870.468 647.088 870.954C621.372 876.548 557.629 870.495 548.7 899.125ZM869.406 904.954C869.24 904.67 869.075 904.385 868.909 904.101C807.563 898.107 746.083 897.877 684.434 899.727C709.851 918.699 743.74 909.38 773.033 909.101C794.881 906.871 856.08 915.804 869.406 904.954ZM820.66 750.252C844.528 748.786 853.463 700.728 823.473 702.381C822.539 718.266 821.603 734.207 820.66 750.252ZM913.08 896.163C913.357 889.664 908.555 883.477 902.529 882.393C894.658 881.015 886.644 880.091 878.761 878.831C879.461 885.276 880.118 891.321 880.815 897.735C891.621 898.709 902.413 898.09 913.08 896.163ZM810.701 843.587C809.563 849.074 810.319 850.879 815.609 852.59C832.109 857.304 848.367 864.103 865.113 867.317C862.278 860.185 856.089 855.856 849.161 853.581C836.54 849.564 823.683 846.24 810.701 843.587ZM790.06 743.063C790.041 730.528 790.397 719.009 789.206 706.793C781.272 712.102 775.556 718.568 770.044 725.662C775.578 732.534 781.854 738.079 790.06 743.063ZM423.407 861.238C430.361 860.449 436.911 859.705 443.45 858.963C442.987 854.119 442.667 853.572 438.767 853.342C432.491 853.293 424.497 852.879 423.407 861.238ZM326.49 875.084C331.449 874.325 336.049 873.769 340.584 872.886C344.977 872.031 349.611 872.19 353.823 869.904C348.632 866.778 337.343 870.671 331.039 871.014C329.167 871.309 327.376 872.177 326.49 875.084ZM282.261 881.665C289.949 880.773 297.629 879.961 305.281 878.052C304.362 872.035 285.504 879.282 282.261 881.665ZM236.602 889.53C241.372 889.634 257.177 886.521 258.789 885.16C250.214 883.548 239.643 885.63 236.602 889.53ZM376.008 867.557C381.764 867.901 395.251 865.702 397.265 864.091C392.962 862.661 379.307 864.887 376.008 867.557Z" fill="black"/>
<path d="M260.193 40.5C262.121 41.622 263.58 43.062 264.565 45.185C271.535 61.928 281.885 77.735 286.48 95.271C286.563 99.904 279.791 99.095 278.825 95.404C271.518 80.163 264.226 64.915 256.932 49.668C254.848 45.369 254.54 43.493 258.541 40.501C259.092 40.5 259.643 40.5 260.193 40.5Z" fill="black"/>
<path d="M443.928 662.12C441.669 669.78 435.949 663.903 433.5 659.888C420.535 637.088 406.019 615.084 394.646 591.432C393.411 588.777 391.985 584.621 395.437 583.033C397.247 582.171 398.966 582.588 400.292 584.086C413.1 611.021 432.163 634.717 443.928 662.12Z" fill="black"/>
<path d="M247.205 606.163C246.426 617.025 245.421 629.486 244.677 641.964C244.203 649.916 244.154 657.893 243.825 665.855C243.645 668.89 243.107 673.431 239.157 673.336C235.83 673.445 234.594 669.892 234.739 667.083C235.224 655.832 235.619 644.573 236.328 633.335C237.78 616.55 237.941 599.489 240.437 582.861C241.484 578.887 247.812 579.401 248.071 583.57C248.236 591.025 247.482 597.286 247.205 606.163Z" fill="black"/>
<path d="M118.737 142.801C127.042 148.168 133.972 156.751 141.571 163.22C150.686 171.784 160.35 179.798 169.273 188.552C173.437 194.152 166.334 197.15 162.439 192.579C146.814 179.735 131.57 166.462 116.888 152.545C112.914 149.522 111.18 142.759 118.737 142.801Z" fill="black"/>
<path d="M44.1142 318.945C51.8512 321.228 104.717 344.023 100.726 351.792C97.6102 358.4 82.4082 345.438 77.6422 343.78C65.9582 336.752 52.9732 332.287 40.8902 326.222C37.2432 323.755 39.3372 318.724 44.1142 318.945Z" fill="black"/>
<path d="M76.119 503.858C69.223 503.682 70.876 497.205 75.002 494.892C88.074 486.493 101.201 478.178 114.32 469.852C116.37 468.494 119.306 467.87 120.994 470.168C123.352 473.171 119.887 476.454 117.228 477.977C103.521 486.305 90.416 496.791 76.119 503.858Z" fill="black"/>
<path d="M381.454 117.494C386.473 99.9361 394.211 83.5891 401.535 66.9471C403.017 63.6451 405.362 62.4781 407.605 63.4981C409.837 64.5121 410.375 66.9991 408.954 70.3341C402.393 85.7341 395.807 101.123 389.209 116.507C387.535 121.248 383.81 122.548 381.454 117.494Z" fill="black"/>
<path d="M549.19 249.25C556.167 236.699 568.013 227.064 576.991 215.851C578.855 213.959 582.11 211.621 584.428 214.175C585.599 215.404 585.786 216.922 584.947 218.351C577.862 228.066 568.935 236.385 561.174 245.577C559.17 247.827 557.407 250.291 555.417 252.554C553.021 255.478 548.255 253.28 549.19 249.25Z" fill="black"/>
<path d="M586.215 324.545C591.68 325.221 624.418 328.469 610.15 337.44C601.402 336.465 592.437 333.725 583.671 332.178C578.448 330.365 581.18 323.758 586.215 324.545Z" fill="black"/>
<path d="M546.631 299.155C533.905 317.81 521.382 336.167 508.783 354.637C492.558 340.328 467.623 310.715 444.818 310.833C410.992 319.387 440.857 363.47 454.468 378.757C460.707 385.924 462.117 394.038 459.663 403.038C455.755 418.969 445.012 431.403 435.993 444.668C400.628 489.996 369.603 541.196 332.571 586.865C262.204 543.327 204.655 481.808 141.231 429.057C135.558 424.055 130.171 418.728 124.496 413.729C122.076 411.597 121.47 409.207 122.423 406.364C126.339 393.992 133.015 382.799 140.255 372.107C197.701 286.303 258.816 203.102 320.493 120.309C400.989 172.802 474.826 235.273 546.631 299.155ZM288.361 390.185C277.297 390.055 269.278 398.64 262.618 406.322C251.508 420.325 240.472 434.39 229.636 448.605C223.15 457.113 223.034 463.989 229.138 472.859C244.869 493.333 266.661 508.379 285.227 526.193C297.369 538.333 314.464 529.482 324.393 518.432C340.475 501.429 354.067 482.179 364.694 461.334C365.411 459.971 366.054 457.988 365.589 456.708C363.799 451.778 359.799 448.138 356.1 444.568C337.883 425.063 316.738 409.011 295.45 393.127C292.965 391.272 290.176 390.183 288.361 390.185ZM272.811 262.678C269.13 266.444 265.125 269.248 260.989 272.359C256.356 275.247 258.238 283.053 263.955 282.52C267.913 282.443 271.876 282.121 275.815 281.696C278.979 281.354 279.732 281.45 280.933 284.424C284.044 289.816 284.471 306.302 291.788 306.012C298.962 305.329 298.342 293.01 301.125 287.733C305.788 288.314 309.37 291.195 313.831 292.258C329.597 293.993 314.296 266.105 309.301 261.101C311.625 252.308 321.264 230.258 302.712 239.635C296.854 242.683 291.894 249.173 284.689 246.389C279.731 245.662 273.815 241.503 269.453 245.656C265.305 251.25 270.391 257.151 272.811 262.678ZM328.064 311.875C321.109 312.519 325.063 318.796 328.115 321.465C339.806 333.672 351.782 345.579 364.601 356.628C375.834 366.311 386.875 376.217 398.014 386.009C399.908 387.879 402.993 389.692 405.17 387.205C407.773 384.584 404.995 381.453 402.933 379.535C394.69 372.063 386.644 364.349 378.078 357.264C360.169 343.599 345.371 325.974 328.064 311.875ZM420.492 361.523C397.177 337.935 370.61 316.809 345.927 294.477C342.128 291.22 338.666 296.107 341.739 298.921C363.83 322.103 388.777 342.306 412.564 363.699C415.37 366.498 420.552 367.465 420.492 361.523ZM376.37 421.932C381.676 422.008 385.524 419.668 389.141 416.844C397.045 411.586 392.378 401.96 387.11 396.691C381.042 391.158 374.588 386.036 368.151 380.921C365.53 378.838 362.514 378.56 359.238 379.887C348.299 385.603 340.423 393.615 351.251 404.346C358.434 409.542 367.534 421.738 376.37 421.932ZM383.472 220.643C379.85 225.927 375.762 230.325 371.893 235.355C370.078 237.565 367.852 241.032 370.898 243.21C372.884 244.914 375.585 243.648 377.025 241.86C381.706 235.934 386.39 230.009 390.961 223.998C395.123 219.264 393.931 210.613 386.302 211.509C382.597 212.097 379.235 213.024 375.37 212.917C375.849 206.479 375.218 192.54 365.723 198.936C360.119 205.084 355.654 212.305 350.549 218.897C348.828 220.865 348.518 223.878 350.298 225.815C352.579 228.022 355.247 225.137 356.455 223.081C360.414 217.795 363.046 213.001 367.812 208.109C366.649 221.563 372.214 220.814 383.472 220.643ZM447.702 282.941C444.908 286.193 441.037 289.002 439.996 293.309C439.485 296.106 441.463 297.83 444.22 297.178C449.079 295.1 452.9 288.67 456.546 284.789C459.896 280.481 461.771 275.395 462.326 269.99C462.838 264.995 461.069 260.705 456.67 257.986C446.16 248.938 419.367 284.947 430.028 288.896C432.435 289.691 434.304 287.43 434.965 285.081C437.293 280.897 439.303 276.477 442.105 272.635C444.067 269.946 446.945 267.797 449.737 265.878C456.308 261.987 454.403 273.124 452.197 276.301C449.516 273.999 445.646 270.798 442.999 274.018C440.218 277.48 444.924 280.768 447.702 282.941ZM505.425 301.978C510.465 305.887 514.501 309.282 519.494 312.881C523.21 315.595 527.067 311.025 523.957 307.653C520.128 303.927 515.919 300.553 511.82 297.124C507.09 293.327 502.921 293.146 498.507 297.296C493.825 301.699 489.637 306.644 485.418 311.512C483.66 313.541 482.904 316.171 483.734 318.865C484.356 323.498 497.611 339.608 501.897 334.041C505.557 328.858 497.127 325.14 494.586 321.45C490.971 317.533 491.001 316.908 494.569 312.906C494.724 312.732 495.044 312.704 495.536 312.509C498.819 314.444 507.651 324.08 510.879 319.536C512.078 318.062 511.872 316.431 510.738 314.993C507.46 311.791 504.169 309.071 500.609 305.761C502.349 304.394 503.722 303.316 505.425 301.978ZM333.293 162.619C327.614 171.137 322.281 179.133 316.951 187.132C314.937 189.917 310.722 195.598 314.691 197.829C316.871 199.279 319.976 197.031 321.251 194.476C327.349 185.475 332.774 176.117 339.28 167.395C342.683 170.004 345.79 172.487 349.007 174.818C353.213 178.116 357.478 173.019 353.908 169.322C345.327 162.283 336.171 155.89 327.338 149.149C325.282 147.369 322.363 147.529 320.518 149.456C316.57 154.212 330.123 159.637 333.293 162.619ZM345.624 190.862C349.51 193.348 352.339 195.365 356.188 197.459C359.704 199.517 363.385 194.702 360.742 191.715C358.015 188.348 353.718 186.372 350.064 184.167C345.347 181.804 343.359 182.205 340.033 186.378C336.379 192.015 326.349 201.643 326.681 208.077C327.125 212.804 334.974 224.693 340.287 220.647C341.865 219.248 341.771 217.368 340.863 215.728C337.391 210.29 331.079 207.696 338.224 201.977C341.895 203.591 348.257 209.691 351.399 205.472C354.22 200.626 345.391 197.823 342.235 195.323C343.415 193.769 344.398 192.476 345.624 190.862ZM478.538 277.675C471.638 283.719 466.956 290.678 461.122 297.542C459.109 299.892 456.109 304.864 459.402 306.864C461.04 307.923 463.075 307.409 464.786 305.34C471.065 297.749 477.305 290.126 483.676 282.375C486.599 284.855 489.273 287.745 492.761 289.396C497.448 291.187 499.502 284.72 495.379 282.446C488.991 276.832 482.882 270.816 476.325 265.427C472.398 262.987 468.298 267.733 471.212 271.077C473.414 273.494 476.117 275.46 478.538 277.675ZM398.548 238.393C410.474 248.978 426.858 228.198 411.833 220.666C407.723 218.95 402.977 219.863 400.001 223.846C394.674 230.975 389.676 238.359 384.768 245.787C380.671 251.633 387.203 255.724 390.774 249.557C393.272 245.962 395.777 242.371 398.548 238.393ZM223.495 348.422C216.653 348.15 218.14 354.642 222.172 357.198C233.817 366.703 244.648 377.502 256.836 386.222C258.322 386.801 259.863 386.618 260.895 385.177C262.752 382.679 260.128 380.242 258.387 378.582C246.697 368.786 235.849 357.228 223.495 348.422ZM413.483 262.438C418.804 254.445 424.125 246.921 429.369 238.936C430.968 236.509 430.497 234.287 428.614 233.159C426.481 231.681 423.611 233.724 422.337 236.116C417.546 242.79 412.81 249.506 407.933 256.117C405.739 259.091 404.324 262.361 406.296 265.628C408.677 269.574 411.787 273.084 414.645 276.733C415.037 277.234 415.76 277.532 416.387 277.782C419.329 279.189 422.941 275.706 421.384 272.776C419.15 269.082 416.093 265.88 413.483 262.438ZM210.345 367.363C204.884 367.539 204.691 372.737 208.085 375.195C219.393 384.241 228.522 395.456 238.537 405.764C241.42 408.271 246.015 404.658 243.992 401.325C234.478 388.844 223.013 376.55 210.345 367.363ZM231.232 418.926C230.61 418.088 229.772 416.496 228.524 415.352C217.876 406.197 208.106 395.606 196.83 387.353C191.666 385.752 189.876 392.444 194.132 394.987C203.904 403.604 213.675 412.223 223.486 420.796C226.098 423.599 230.985 424.402 231.232 418.926Z" fill="white"/>
<path d="M683.011 495.788C677.727 529.351 672.519 562.44 667.209 596.17C615.725 602.372 541.713 579.749 508.111 549.435C510.466 542.502 556.831 465.015 564.671 454.969C600.682 476.992 639.508 497.786 683.011 495.788Z" fill="black"/>
<path d="M734.461 217.789C746.523 220.517 754.144 231.703 751.989 243.178C749.047 258.844 745.721 274.443 743.042 290.152C739.576 310.47 736.497 330.855 733.418 351.237C714.5 491.916 691.447 631.975 667.986 771.92C660.596 778.393 653.312 785.983 643.624 788.66C641.889 786.13 641.985 783.838 642.313 781.524C650.029 714.921 668.466 650.303 677.247 583.885C692.025 480.877 716.314 379.447 726.2 275.724C728.666 256.453 728.031 236.278 734.461 217.789Z" fill="white"/>
<path d="M813.112 750.795C806.306 750.208 801.975 748.976 797.841 746.562C794.431 651.457 806.282 545.638 721.386 480.992C726.398 444.628 731.515 407.495 736.729 369.66C743.847 395.481 754.84 420.151 767.658 443.857C823.068 537.573 821.517 645.698 813.112 750.795Z" fill="white"/>
<path d="M519.349 441.442C507.959 458.457 496.753 475.195 485.401 492.154C408.631 432.532 459.087 461.502 469.017 395.95C470.432 383.364 461.374 374.038 454.123 364.907C446.155 354.312 438.616 342.178 437.841 328.634C442.143 296.909 494.479 352.114 503.568 360.959C523.1 381.747 520.087 393.063 508.575 416.813C504.106 431.974 507.848 433.065 519.349 441.442Z" fill="white"/>
<path d="M797.726 755.5C802.884 756.7 807.536 757.783 812.527 758.945C811.1 786.056 808.282 813.128 803.188 839.82C801.124 850.225 803.369 856.787 813.958 860.103C832.214 866.548 850.653 872.446 869.54 876.82C872.213 883.26 873.66 889.715 872.702 896.876C811.086 891.666 749.398 890.482 687.604 891.72C683.466 891.074 677.609 894.122 674.925 889.883C670.753 883.115 666.95 877.208 662.543 870.348C692.642 868.3 722.091 865.593 752.091 863.275C798.666 858.604 795.192 790.42 797.726 755.5Z" fill="white"/>
<path d="M208.518 905.648C211.309 902.333 214.692 901.182 218.18 900.511C286.609 887.318 355.66 877.675 424.656 868.015C469.017 864.639 467.018 856.607 469.003 896.76C382.409 896.886 295.306 906.438 208.518 905.648Z" fill="white"/>
<path d="M559.841 451.452C539.399 481.77 520.343 512.423 502.776 544.193C495.672 539.213 490.977 531.357 486.208 524.177C482.418 517.863 482.485 512.08 486.766 505.798C499.839 486.614 512.522 467.164 525.475 447.897C527.916 444.265 530.722 440.834 533.682 437.607C536.678 434.341 537.954 434.437 541.394 437.111C547.351 441.741 553.308 446.373 559.841 451.452Z" fill="white"/>
<path d="M548.7 899.124C557.707 870.452 621.337 876.569 647.088 870.951C651.425 870.467 654.413 871.565 656.678 875.361C659.901 880.763 663.41 885.994 667.134 891.827C627.456 892.782 588.273 895.582 548.7 899.124Z" fill="white"/>
<path d="M913.08 896.164C902.413 898.091 891.621 898.71 880.815 897.736C880.118 891.322 879.461 885.276 878.761 878.832C886.644 880.092 894.658 881.016 902.529 882.394C908.555 883.478 913.357 889.665 913.08 896.164Z" fill="white"/>
<path d="M423.407 861.238C424.497 852.879 432.491 853.293 438.767 853.342C442.667 853.573 442.987 854.119 443.45 858.963C436.911 859.705 430.361 860.448 423.407 861.238Z" fill="white"/>
<path d="M326.49 875.083C327.376 872.176 329.166 871.308 331.04 871.014C337.378 870.67 348.583 866.775 353.824 869.903C349.612 872.189 344.978 872.03 340.585 872.885C336.049 873.768 331.45 874.325 326.49 875.083Z" fill="white"/>
<path d="M282.261 881.664C285.43 879.314 304.377 872.022 305.281 878.051C297.629 879.96 289.949 880.772 282.261 881.664Z" fill="white"/>
<path d="M236.602 889.528C239.643 885.628 250.214 883.546 258.789 885.158C257.177 886.52 241.372 889.632 236.602 889.528Z" fill="white"/>
<path d="M376.008 867.558C379.307 864.888 392.962 862.662 397.265 864.092C395.251 865.703 381.764 867.902 376.008 867.558Z" fill="white"/>
<path d="M288.361 390.185C290.176 390.183 292.964 391.273 295.449 393.126C316.737 409.01 337.882 425.063 356.099 444.567C359.796 448.136 363.803 451.778 365.588 456.707C366.054 457.987 365.411 459.969 364.694 461.333C354.067 482.176 340.475 501.429 324.393 518.431C314.462 529.464 297.369 538.347 285.228 526.189C266.66 508.379 244.87 493.331 229.137 472.859C223.035 463.989 223.15 457.113 229.636 448.604C240.472 434.389 251.508 420.324 262.619 406.321C269.275 398.629 277.301 390.068 288.361 390.185ZM317.792 476.866C308.513 478.46 300.258 482.628 291.456 485.658C270.35 490.257 290.105 438.756 289.968 428.093C273.309 431.602 259.625 439.834 242.962 443.78C240.683 447.05 237.85 451.1 235.034 455.161C227.072 466.207 248.437 480.915 255.104 488.531C264.399 497.106 273.923 505.433 283.388 513.822C289.082 518.261 294.463 525.89 302.638 523.55C307.947 522.244 318.614 515.776 319.05 510.18C318.787 498.887 318.605 488.265 317.792 476.866ZM358.246 456.149C350.694 449.004 343.319 442.026 335.84 434.95C330.173 443.499 322.949 437.163 330.174 430.227C318.531 418.389 303.898 409.695 290.805 399.502C280.859 391.343 258.977 424.137 252.747 431.231C265.307 429.436 276.656 421.744 289.559 420.981C300.214 419.921 297.132 430.424 295.97 437.167C299.247 437.728 304.615 436.854 303.979 441.485C302.693 445.985 297.966 442.92 294.532 442.468C292.769 454.133 288.018 465.642 289.22 478.638C297.666 476.82 322.967 461.205 324.57 476.527C325.1 486.116 324.227 495.32 325.412 504.925C338.832 489.817 349.249 473.591 358.246 456.149Z" fill="black"/>
<path d="M272.811 262.678C270.378 257.163 265.313 251.242 269.455 245.658C273.813 241.505 279.737 245.664 284.691 246.391C291.897 249.175 296.854 242.684 302.714 239.636C321.26 230.261 311.631 252.305 309.303 261.102C314.268 266.046 329.611 294.017 313.834 292.259C309.369 291.195 305.794 288.316 301.127 287.734C298.343 293.023 298.965 305.314 291.791 306.013C284.503 306.345 284.025 289.785 280.934 284.425C279.733 281.45 278.98 281.355 275.816 281.696C271.877 282.121 267.914 282.442 263.955 282.52C258.249 283.058 256.345 275.24 260.99 272.359C265.127 269.247 269.129 266.445 272.811 262.678ZM274.848 273.261C287.097 271.529 287.242 280.412 291.921 288.706C294.226 275.622 301.455 278.703 311.238 281.779C309.492 275.961 306.885 271.15 303.503 266.835C302.154 265.113 301.686 263.588 302.137 261.575C303.033 256.854 304.485 252.662 304.668 247.772C292.921 256.8 291.63 254.715 277.715 253.526C283.196 263.778 280.749 264.031 274.848 273.261Z" fill="black"/>
<path d="M328.064 311.875C345.373 325.976 360.167 343.598 378.078 357.264C386.643 364.35 394.69 372.064 402.932 379.536C404.992 381.451 407.777 384.589 405.169 387.206C402.983 389.685 399.913 387.887 398.013 386.01C386.874 376.218 375.833 366.312 364.6 356.629C350.693 344.063 336.358 331.507 324.58 316.938C323.226 314.519 324.72 311.984 328.064 311.875Z" fill="black"/>
<path d="M420.492 361.525C420.527 367.445 415.394 366.523 412.565 363.7C388.778 342.307 363.831 322.104 341.739 298.922C338.686 296.124 342.11 291.205 345.927 294.48C370.608 316.809 397.179 337.939 420.492 361.525Z" fill="black"/>
<path d="M376.37 421.932C367.565 421.759 358.414 409.527 351.251 404.347C340.428 393.625 348.295 385.6 359.239 379.887C362.515 378.56 365.531 378.839 368.152 380.922C374.589 386.037 381.042 391.159 387.111 396.692C392.375 401.961 397.048 411.587 389.141 416.844C385.525 419.668 381.676 422.008 376.37 421.932ZM364.606 384.555C358.912 384.737 356.623 389.394 353.978 393.357C353.657 393.793 354.043 394.966 354.405 395.634C359.203 402.41 366.784 406.904 372.783 412.62C373.594 413.305 374.695 413.728 375.731 414.053C384.046 416.647 389.282 406.676 383.474 400.651C378.244 394.436 372.192 387.66 364.606 384.555Z" fill="black"/>
<path d="M383.472 220.643C372.197 220.816 366.653 221.554 367.81 208.109C363.048 212.996 360.407 217.801 356.453 223.081C355.247 225.136 352.574 228.025 350.296 225.815C348.521 223.872 348.822 220.869 350.548 218.897C355.652 212.305 360.118 205.083 365.722 198.935C375.22 192.544 375.847 206.475 375.369 212.917C379.233 213.024 382.598 212.096 386.302 211.509C391.308 211.038 394.451 214.744 393.132 219.606C389.508 227.977 382.235 234.412 377.026 241.861C375.586 243.647 372.884 244.916 370.898 243.21C367.855 241.028 370.076 237.569 371.894 235.355C375.764 230.323 379.849 225.93 383.472 220.643Z" fill="black"/>
<path d="M447.702 282.943C444.926 280.775 440.216 277.478 443 274.019C445.651 270.8 449.512 273.999 452.198 276.302C454.413 273.119 456.301 261.994 449.737 265.879C446.945 267.799 444.067 269.948 442.105 272.637C439.303 276.478 437.293 280.899 434.965 285.083C434.309 287.428 432.428 289.697 430.028 288.897C419.358 284.914 446.204 248.932 456.669 257.988C461.068 260.706 462.838 264.996 462.325 269.991C461.77 275.397 459.895 280.483 456.545 284.79C452.895 288.68 449.086 295.091 444.22 297.181C441.463 297.833 439.485 296.108 439.996 293.311C441.038 289.002 444.907 286.196 447.702 282.943Z" fill="black"/>
<path d="M505.425 301.978C503.721 303.316 502.349 304.394 500.609 305.761C504.169 309.071 507.46 311.791 510.738 314.993C511.871 316.431 512.078 318.062 510.879 319.536C507.66 324.083 498.818 314.447 495.535 312.51C495.043 312.705 494.723 312.732 494.568 312.907C491 316.909 490.97 317.534 494.584 321.451C497.118 325.148 505.562 328.853 501.897 334.042C497.6 339.611 484.369 323.504 483.733 318.867C482.903 316.173 483.659 313.542 485.417 311.513C489.636 306.645 493.824 301.699 498.506 297.297C502.92 293.147 507.089 293.328 511.819 297.125C515.918 300.554 520.127 303.929 523.956 307.654C527.065 311.026 523.21 315.597 519.492 312.882C514.498 309.28 510.467 305.889 505.425 301.978Z" fill="black"/>
<path d="M333.293 162.621C330.097 159.612 316.597 154.251 320.517 149.459C322.37 147.539 325.275 147.366 327.337 149.153C336.17 155.894 345.326 162.287 353.907 169.325C357.472 173.019 353.217 178.122 349.005 174.821C345.788 172.49 342.681 170.008 339.278 167.399C332.773 176.12 327.347 185.48 321.249 194.48C319.976 197.029 316.867 199.287 314.689 197.832C310.722 195.596 314.936 189.923 316.95 187.135C322.281 179.135 327.614 171.138 333.293 162.621Z" fill="black"/>
<path d="M345.624 190.862C344.398 192.476 343.415 193.769 342.235 195.323C345.384 197.815 354.225 200.633 351.399 205.472C348.249 209.691 341.904 203.59 338.224 201.977C331.081 207.689 337.393 210.298 340.864 215.728C341.771 217.368 341.865 219.248 340.287 220.646C334.96 224.702 327.135 212.791 326.682 208.077C326.324 201.683 336.396 191.989 340.032 186.377C343.359 182.205 345.347 181.804 350.064 184.167C353.719 186.369 358.014 188.349 360.743 191.714C363.377 194.706 359.711 199.513 356.188 197.458C352.335 195.364 349.512 193.35 345.624 190.862Z" fill="black"/>
<path d="M478.538 277.675C476.117 275.461 473.414 273.494 471.212 271.076C468.305 267.738 472.392 262.981 476.325 265.427C482.882 270.816 488.99 276.831 495.38 282.445C499.488 284.709 497.461 291.195 492.761 289.396C489.273 287.744 486.599 284.855 483.676 282.374C477.305 290.126 471.064 297.748 464.786 305.339C463.075 307.408 461.04 307.922 459.402 306.863C456.11 304.86 459.108 299.892 461.122 297.541C466.959 290.674 471.635 283.723 478.538 277.675Z" fill="black"/>
<path d="M398.548 238.395C395.294 241.795 389.717 254.975 385.131 252.283C383.139 251.197 382.735 248.866 384.767 245.79C389.675 238.362 394.673 230.978 400 223.849C402.976 219.866 407.722 218.953 411.833 220.669C426.855 228.209 410.478 248.976 398.548 238.395ZM403.049 232.413C407.266 233.415 408.971 233.031 409.587 230.968C410.196 228.848 408.559 227.353 406.621 228.528C405.368 229.527 404.405 230.89 403.049 232.413Z" fill="black"/>
<path d="M223.495 348.423C235.851 357.231 246.695 368.785 258.388 378.583C260.13 380.243 262.753 382.681 260.896 385.178C259.864 386.619 258.323 386.802 256.838 386.222C244.648 377.502 233.819 366.704 222.172 357.199C218.161 354.66 216.635 348.138 223.495 348.423Z" fill="black"/>
<path d="M413.483 262.438C416.093 265.88 419.15 269.082 421.384 272.776C422.94 275.706 419.329 279.188 416.386 277.782C415.759 277.533 415.036 277.234 414.644 276.734C411.786 273.085 408.676 269.575 406.295 265.629C404.323 262.362 405.738 259.092 407.932 256.118C412.809 249.507 417.545 242.791 422.336 236.116C423.607 233.738 426.483 231.669 428.613 233.159C430.496 234.287 430.967 236.509 429.368 238.936C424.124 246.924 418.806 254.443 413.483 262.438Z" fill="black"/>
<path d="M210.345 367.363C223.016 376.553 234.475 388.842 243.994 401.324C246.01 404.652 241.425 408.276 238.538 405.763C228.522 395.456 219.393 384.241 208.085 375.195C204.703 372.747 204.874 367.528 210.345 367.363Z" fill="black"/>
<path d="M231.232 418.926C230.972 424.39 226.11 423.61 223.486 420.796C213.675 412.224 203.904 403.605 194.131 394.988C192.177 393.471 190.62 390.893 192.415 388.63C194.154 386.157 197.397 387.049 199.257 388.838C209.627 398.933 222.097 407.806 231.232 418.926Z" fill="black"/>
<path d="M317.792 476.866C318.607 488.261 318.789 498.891 319.05 510.181C318.65 515.775 307.898 522.252 302.639 523.551C294.463 525.892 289.083 518.259 283.388 513.823C273.923 505.434 264.399 497.106 255.105 488.531C248.419 480.926 227.067 466.146 235.033 455.162C237.85 451.1 240.683 447.051 242.962 443.781C259.621 439.836 273.311 431.603 289.968 428.094C290.125 438.669 270.343 490.27 291.456 485.66C300.26 482.627 308.509 478.46 317.792 476.866Z" fill="white"/>
<path d="M358.246 456.152C349.249 473.594 338.831 489.82 325.414 504.929C324.229 495.329 325.102 486.116 324.571 476.531C322.966 461.211 297.695 476.813 289.221 478.642C288.019 465.646 292.77 454.137 294.533 442.472C297.963 442.925 302.698 445.988 303.98 441.49C304.614 436.856 299.252 437.735 295.971 437.171C297.127 430.427 300.221 419.925 289.559 420.985C276.654 421.748 265.31 429.44 252.747 431.235C258.931 424.195 280.863 391.34 290.804 399.506C303.897 409.699 318.531 418.394 330.173 430.232C322.942 437.18 330.184 443.495 335.839 434.955C343.319 442.029 350.694 449.006 358.246 456.152ZM327.071 447.447C325.02 431.328 302.355 435.488 307.213 451.954C310.529 462.576 328.018 459.655 327.071 447.447ZM322.056 463.716C323.714 471.048 330.581 469.663 329.684 464.4C329.29 459.444 321.462 456.479 322.056 463.716ZM335.084 449.583C328.83 449.924 330.819 457.587 336.563 457.259C342.955 457.047 341.249 448.982 335.084 449.583ZM317.456 426.466C318.045 421.523 311.704 419.258 310.734 424.87C310.692 427.625 312.257 432.459 314.881 431.742C316.78 431.542 317.498 430.198 317.456 426.466ZM300.016 462.783C304.26 462.621 307.701 455.709 302.045 454.934C297.596 454.968 293.975 462.163 300.016 462.783Z" fill="white"/>
<path d="M274.848 273.261C280.764 264.013 283.189 263.773 277.715 253.524C291.655 254.718 292.923 256.791 304.668 247.77C304.485 252.656 303.033 256.855 302.137 261.573C301.686 263.586 302.154 265.112 303.503 266.833C306.885 271.149 309.493 275.959 311.238 281.777C301.442 278.695 294.225 275.629 291.921 288.704C287.244 280.409 287.088 271.527 274.848 273.261Z" fill="white"/>
<path d="M364.606 384.555C372.195 387.662 378.24 394.434 383.475 400.65C389.25 406.816 384.152 416.558 375.731 414.053C374.696 413.728 373.595 413.305 372.784 412.619C366.784 406.904 359.204 402.409 354.405 395.634C354.044 394.966 353.658 393.792 353.979 393.356C356.624 389.395 358.911 384.735 364.606 384.555Z" fill="white"/>
<path d="M403.049 232.41C404.405 230.887 405.368 229.524 406.621 228.526C408.558 227.351 410.197 228.845 409.587 230.966C408.971 233.028 407.266 233.412 403.049 232.41Z" fill="white"/>
<path d="M327.071 447.445C328.018 459.652 310.528 462.575 307.212 451.952C302.357 435.476 325.026 431.334 327.071 447.445ZM314.003 447.969C313.927 453.96 319.908 453.169 320.237 448.463C320.16 443.921 313.813 442.528 314.003 447.969Z" fill="black"/>
<path d="M322.056 463.712C321.462 456.475 329.292 459.441 329.683 464.396C330.581 469.662 323.712 471.042 322.056 463.712Z" fill="black"/>
<path d="M335.084 449.583C341.249 448.983 342.955 457.047 336.563 457.26C330.819 457.587 328.83 449.924 335.084 449.583Z" fill="black"/>
<path d="M317.456 426.463C317.498 430.195 316.78 431.539 314.881 431.74C312.257 432.457 310.69 427.622 310.734 424.867C311.705 419.254 318.046 421.521 317.456 426.463Z" fill="black"/>
<path d="M300.016 462.783C293.975 462.163 297.597 454.966 302.046 454.934C307.702 455.709 304.26 462.622 300.016 462.783Z" fill="black"/>
<path d="M314.003 447.967C313.813 442.526 320.161 443.919 320.237 448.461C319.907 453.167 313.927 453.958 314.003 447.967Z" fill="white"/>
</svg>
