<svg width="960" height="960" viewBox="0 0 960 960" fill="none" xmlns="http://www.w3.org/2000/svg">
<path d="M90.5399 653.208C85.1799 653.588 80.4099 653.918 75.6399 654.298C69.9899 656.938 65.7399 658.378 61.5999 652.478C36.9399 617.688 41.6599 563.538 40.3799 522.308C42.3199 489.908 46.9799 453.858 68.8099 428.348C70.4499 407.498 64.2499 385.198 63.5599 363.898C61.9199 327.868 53.1599 289.558 64.8499 254.558C67.9599 247.578 73.0899 243.908 80.8699 242.718C165.3 230.638 250.75 231.608 335.81 229.518C418.41 227.408 379.29 248.758 407.12 182.118C401.04 180.628 391.59 184.408 387.5 179.038C385.24 175.458 385.23 171.588 387.76 167.888C396.02 155.448 403.07 144.268 413.74 133.208C407.56 132.138 386.18 133.678 384.74 129.738C382.7 126.478 383.17 122.728 386.5 121.038C402.6 113.098 417.35 104.588 434.65 98.9482C401.42 85.9782 480.7 81.1382 487.8 83.5782C509.43 85.0782 530.41 90.1982 551.21 96.1182C577.16 102.778 604.46 109.288 621.42 131.828C644.29 159.198 626.85 195.848 623.92 227.108C630.14 230.098 634.22 235.238 637.16 241.488C637.59 242.408 639.3 243.188 640.45 243.248C701.87 245.398 763.36 252.558 824.8 248.718C839.49 248.298 866.49 247.208 868.49 266.438C872.67 311.748 873.57 357.268 875.79 402.698C875.7 408.788 886.34 403.658 892.83 413.588C929.37 469.098 920.25 541.318 911.7 603.888C909.66 615.768 904.38 626.238 897 635.748C892.02 692.878 936.88 861.758 844.36 860.748C706.07 856.408 567.56 857.528 429.28 862.028C351.47 865.678 273.78 871.688 196.03 876.298C174.9 877.498 153.69 878.168 132.71 874.038C115.52 871.478 97.4699 859.958 97.9299 840.778C97.2699 816.458 97.0799 792.128 96.2999 767.818C94.8499 729.548 92.8599 691.448 90.5399 653.208ZM141.68 603.448C170.29 609.598 174.18 628.638 147.26 641.308C135.65 647.168 122.95 649.498 110.17 651.228C107.71 651.558 106.82 652.268 106.98 654.918C110.73 716.548 112.92 778.278 114.32 839.998C115.53 859.098 140.79 858.568 155.05 860.288C245.68 860.078 336.05 848.858 426.63 845.518C565.95 841.208 705.48 839.498 844.79 844.728C902.98 847.188 883.83 740.948 884.77 703.498C883.28 682.058 881.18 660.668 879.45 639.248C881.09 634.088 864.28 636.188 861.23 635.058C839.34 632.568 814.47 630.158 797.82 614.148C784.38 599.938 804.84 588.188 817.8 585.588C775.86 566.568 784.56 544.068 825.24 533.718C746.97 504.028 809.85 483.718 855.29 481.048C865.32 480.858 859.17 470.118 858.3 464.328C854.88 447.078 843.58 426.228 858.99 411.578C859.67 410.918 859.97 409.508 859.91 408.478C856.45 362.798 856.24 316.928 852.79 271.248C852.62 267.798 850.79 266.878 847.91 266.668C741.28 259.818 634.31 258.258 527.63 251.398C380.23 242.638 231.65 239.118 84.8499 257.508C67.4499 262.738 78.6299 335.428 78.7599 352.018C80.5199 374.738 83.3099 397.368 85.6199 420.048C85.8399 422.258 86.4899 423.458 89.0699 423.958C120.87 431.518 103.59 468.448 98.8299 489.618C97.0799 496.878 98.4699 498.258 105.85 498.828C154.23 500.918 209.1 523.378 133.52 551.198C174.65 562.178 183.21 582.538 141.68 603.448ZM806.65 605.458C829.49 620.618 857.72 622.338 884.3 624.598C885.3 624.688 886.79 623.638 887.43 622.688C892.08 615.878 895.57 608.568 896.99 600.318C904.87 542.688 913.12 477.678 883.23 424.958C878.52 416.878 865.05 420.478 866.13 430.578C867.16 444.798 872.66 458.188 875.54 472.038C879.37 487.858 866.02 496.588 851.74 496.108C835.09 496.938 819.28 500.008 803.99 507.028C820.5 518.058 839.91 521.828 858.33 528.428C866.87 530.968 866.28 542.228 857.59 543.828C839.54 546.658 819.99 546.878 804.75 558.318C812.18 572.008 838.23 575.418 850.79 584.818C855.64 588.958 854.3 596.348 848.27 598.348C834.29 602.148 819.02 595.388 806.65 605.458ZM152 623.688C151.93 623.048 151.87 622.418 151.8 621.778C139.51 615.718 124.8 618.538 111.57 616.128C104.81 615.128 103.26 605.108 109.06 601.718C119.47 595.748 131.08 592.028 141.76 586.568C144.91 584.518 159.63 577.298 151.46 573.908C135.95 564.968 118.2 564.018 100.91 561.388C92.9599 560.408 92.0099 548.368 99.7399 546.248C118.53 540.378 138.1 535.798 154.73 524.788C140.62 517.148 124.29 515.058 108.47 513.658C94.1899 514.258 79.5599 506.728 83.6099 489.368C84.6199 479.298 101.35 442.148 87.6699 438.898C83.8399 438.068 79.7999 437.458 77.2099 441.418C45.4599 492.668 54.5199 557.818 61.5399 614.828C62.9999 624.178 65.9699 632.998 71.6399 640.698C73.6499 645.098 97.0599 638.938 102.99 639.378C120.32 637.718 137.28 633.148 152 623.688ZM404.45 231.798C422.26 231.578 439.38 232.848 457.07 233.548C459.45 233.658 461 233.418 461.36 230.508C462.94 221.698 464.72 212.878 466.13 204.018C466.46 202.208 465.92 201.338 464.09 201.258C451.55 200.788 438.97 201.238 426.41 201.178C421.47 201.568 419.47 193.998 424.6 192.908C440.28 187.028 457.1 187.758 473.48 189.478C479.95 190.108 481.91 193.408 480.65 199.818C478.27 211.458 475.96 222.478 474.15 234.368C508.17 236.258 541.71 238.128 575.33 239.998C574.9 212.318 572.71 169.528 544.68 155.828C532.13 149.058 518.31 146.588 504.53 144.048C503.29 143.818 501.71 144.278 500.57 144.918C493.85 148.688 487.05 152.348 480.59 156.538C461.95 168.628 442.23 177.888 420.02 181.238C418.74 181.428 417.08 183.148 416.68 184.488C412.25 200.478 407.09 215.198 404.45 231.798ZM613.61 199.978C624.62 187.058 621.21 157.198 614.66 142.198C609.98 131.408 603.09 122.438 591.88 118.418C579.28 114.728 566.36 109.358 553.2 108.708C553.07 109.128 552.94 109.558 552.81 109.978C560.31 115.508 570.34 115.998 578.89 119.438C613.12 128.578 621.7 168.518 613.61 199.978Z" fill="black"/>
<path d="M141.68 603.447C183.29 582.497 174.56 562.157 133.52 551.207C210.02 522.947 152.74 500.817 105.85 498.837C98.4698 498.267 97.0799 496.887 98.8299 489.627C103.58 468.527 120.84 431.487 89.0699 423.967C86.4899 423.477 85.8499 422.267 85.6199 420.057C83.3199 397.387 80.5299 374.747 78.7599 352.027C78.4099 334.857 67.6599 263.087 84.8499 257.517C231.66 239.117 380.23 242.647 527.64 251.407C634.32 258.257 741.28 259.827 847.92 266.677C850.8 266.887 852.62 267.807 852.8 271.257C856.25 316.937 856.46 362.807 859.92 408.487C859.98 409.517 859.68 410.927 859 411.587C843.62 426.247 854.84 447.077 858.31 464.337C859.34 470.157 865.2 480.837 855.3 481.057C808.4 483.857 747.82 504.427 825.25 533.727C784.48 544.097 775.94 566.607 817.81 585.597C804.88 588.177 784.39 599.947 797.83 614.157C814.5 630.167 839.3 632.587 861.23 635.067C865.91 636.397 880.03 633.887 879.45 639.257C882.34 674.307 886.14 709.307 886.23 744.517C885.71 778.467 894.28 844.787 844.79 844.737C705.48 839.497 565.95 841.207 426.63 845.517C336.05 848.857 245.68 860.077 155.05 860.287C140.57 858.637 115.69 859.037 114.32 839.987C112.93 778.257 110.74 716.537 106.99 654.907C106.83 652.257 107.72 651.557 110.18 651.217C122.96 649.487 135.66 647.157 147.27 641.297C175.04 628.087 169.4 609.437 141.68 603.447ZM500.34 591.857C575.7 592.037 644.21 595.567 717.45 593.537C727.34 590.067 721.47 579.187 712.16 580.697C572.53 579.977 432.84 577.947 293.23 580.847C283.52 581.677 284.06 594.307 294.02 593.847C361.63 594.117 434.6 592.917 500.34 591.857ZM504.16 633.617C504.16 633.797 504.15 633.977 504.15 634.167C574.3 636.427 644.5 636.587 714.64 639.057C726.38 639.747 726.76 625.177 714.81 625.477C711.77 625.427 708.73 625.457 705.69 625.377C566.96 623.617 427.55 615.107 289.07 620.917C283.24 622.687 284.31 632.237 290.49 632.637C307.99 632.837 325.57 631.597 343.09 631.807C396.79 632.177 450.47 633.137 504.16 633.617ZM234.35 414.107C234.35 414.057 234.35 414.007 234.35 413.957C248.98 415.887 256.4 408.737 246.26 395.817C243.96 391.367 234.57 387.927 239.06 382.267C242.29 376.787 249.86 371.787 247.09 364.687C245.37 360.837 241.94 359.017 238.04 359.127C231.07 359.337 224.12 360.207 217.15 360.717C216.13 360.787 214.82 360.727 214.07 360.157C201.42 351.607 190.52 339.657 176.63 333.297C157.48 331.047 170.85 355.657 174.2 364.457C177.99 372.737 170.61 380.367 167.66 387.757C164.8 393.107 161.2 398.107 158.73 403.617C155.84 410.087 159.83 415.377 166.94 415.237C172.53 414.947 177.81 412.407 182.92 410.347C185.72 409.047 187.71 409.457 189.09 412.047C192 417.497 194.81 423.007 197.57 428.537C201.02 433.897 201.84 444.087 209.85 444.007C220.22 441.927 218.19 426.597 220.13 418.547C220.85 411.517 229.6 414.797 234.35 414.107ZM743.58 363.207C733.29 362.877 733.34 370.577 736.02 377.147C737.05 382.027 745.29 388.517 738.13 391.737C734.93 393.667 731.51 395.227 728.29 397.127C720.97 400.207 721.48 410.917 729.31 412.777C733.47 414.197 737.84 415.617 742.17 415.797C757.91 415.817 756.03 442.337 760.86 453.227C770.31 469.637 779.58 445.647 781.45 436.827C784.09 426.987 797.66 431.277 805.31 429.457C819.53 427.887 814.89 414.307 807.11 407.607C805.07 404.137 797.29 402.767 799.37 397.917C803.45 386.327 809.65 375.147 811.84 363.027C810.06 345.747 786.92 368.907 780.37 372.637C778.16 374.287 775.93 375.277 773.23 374.267C764.08 370.797 752.34 366.207 743.58 363.207ZM677.06 669.657C653.14 673.587 622.6 665.807 613.54 693.107C606.96 712.537 609.25 730.587 632.88 733.417C651.03 736.497 669.29 735.107 687.48 734.257C703.31 733.527 714.54 724.287 718.55 708.917C729.29 663.947 711.64 672.567 677.06 669.657ZM627.46 343.427C627.31 335.657 636.3 312.137 625.78 311.097C615.97 309.547 617.57 334.397 615.61 341.187C615.3 343.977 614.28 344.817 611.55 345.047C604.9 346.767 588.04 344.197 588.14 353.767C590.04 363.817 605.73 357.027 613.02 357.707C609.4 384.117 585.55 485.117 638.34 468.207C645.45 464.537 641.73 455.447 634.01 459.097C616.23 465.247 615.33 432.517 616.51 421.457C619.15 400.827 622.26 380.247 625.07 359.637C625.39 357.317 626.22 356.507 628.58 356.477C634.96 355.417 647.92 358.917 648.61 349.697C647.48 340.037 634.45 344.367 627.46 343.427ZM478.29 465.657C527.9 486.027 526.85 409.837 479.58 415.717C476.06 415.787 474.24 410.987 470.39 412.797C465.22 414.377 466.52 420.517 466.29 424.727C466.85 457.587 464.39 490.367 462.97 523.177C462.01 529.217 466.35 542.847 473 533.367C474.26 530.827 474.99 527.827 475.19 524.977C476.53 505.107 477.52 485.647 478.29 465.657ZM303.04 328.287C301.11 370.457 301.51 412.347 301.53 454.507C301.16 463.827 312.17 464.077 311.61 454.567C312 412.707 312.52 370.847 312.89 328.987C312.91 326.707 313.6 325.787 315.91 325.297C326.19 323.137 336.43 320.757 346.67 318.397C350.23 317.657 356.77 315.747 354.72 311.017C352.78 307.797 348.83 306.237 345.12 307.827C327.01 311.887 308.9 315.987 290.8 320.087C279.99 322.537 269.15 324.917 258.38 327.537C254.74 328.427 253.16 331.027 253.78 333.917C256.04 341.457 267.17 335.337 272.7 334.887C282.68 332.707 292.69 330.537 303.04 328.287ZM442.02 680.017C453.63 680.957 453.59 666.697 442.23 666.427C392.41 667.097 342.25 664.017 292.7 670.157C288.21 670.677 285.81 673.657 286.23 677.007C286.76 683.437 296.06 682.277 301.15 681.567C348.02 678.077 395.08 679.027 442.02 680.017ZM644.11 440.207C642.61 472.807 677.23 483.417 699.48 464.737C705.44 460.587 699.44 451.457 693.31 454.467C677.14 464.717 656.29 464.557 656.25 439.807C656.31 437.507 657.07 436.837 659.3 436.767C665.84 436.567 672.38 436.327 678.89 435.727C700.16 433.887 697.69 402.967 678.46 401.197C665.89 399.917 653.27 407.967 647.74 420.717C644.34 427.647 641.32 432.287 644.11 440.207ZM426.48 423.067C419.52 415.497 415.93 414.977 405.54 420.007C405.55 416.367 402.76 413.717 399.72 412.517C392.83 411.217 393.06 420.737 393.25 425.367C393.25 437.287 393.24 449.207 393.26 461.137C392.51 468.177 402.14 469.197 403 462.187C405.13 449.837 401.07 438.027 412.89 429.647C422.02 422.887 412.44 458.587 423.28 456.837C426.3 456.937 428.47 455.477 429.33 452.527C429.45 446.957 434.99 417.917 443.42 431.277C447.58 440.657 444.69 451.377 445.07 461.337C444.29 471.087 455.39 472.937 457.14 463.107C461.36 442.727 454.75 398.677 426.48 423.067ZM335.11 445.817C392.24 441.447 377.45 399.967 348.48 405.307C314.14 413.747 315.98 471.447 354.08 470.977C362.07 472.237 387.23 463.507 380.39 453.057C375.08 447.087 366.17 459.287 359.55 459.947C348.7 462.707 337.56 456.057 335.11 445.817ZM536.19 400.047C536.62 400.047 537.06 400.047 537.49 400.047C537.49 377.707 537.53 355.377 537.46 333.037C537.77 321.647 524.76 321.407 524.85 332.907C524.63 376.287 524.73 419.667 524.77 463.047C524.52 467.637 525.21 473.167 530.33 474.527C535.84 475.627 536.08 468.077 536.16 464.227C536.21 442.827 536.19 421.437 536.19 400.047ZM577.37 454.847C577.75 459.097 577.88 462.607 578.41 466.057C579.67 476.137 592.26 474.007 590.83 464.167C589.28 449.337 589.03 434.307 586.45 419.617C585.17 412.707 575.62 413.227 573.74 419.637C557.9 417.717 541.95 432.177 542.93 448.087C544.72 468.277 566.79 471.057 577.37 454.847Z" fill="white"/>
<path d="M806.65 605.457C819.01 595.387 834.29 602.137 848.26 598.347C854.29 596.347 855.63 588.957 850.78 584.817C838.26 575.447 812.09 571.957 804.74 558.317C819.98 546.867 839.53 546.657 857.58 543.827C866.26 542.227 866.86 530.967 858.32 528.427C839.89 521.827 820.49 518.067 803.98 507.027C819.26 500.007 835.09 496.937 851.73 496.107C866.02 496.597 879.36 487.837 875.53 472.037C872.65 458.187 867.16 444.797 866.13 430.577C865.05 420.467 878.52 416.897 883.23 424.957C913.12 477.687 904.87 542.677 897 600.317C895.57 608.567 892.08 615.867 887.43 622.687C886.79 623.627 885.3 624.687 884.3 624.597C857.72 622.347 829.49 620.617 806.65 605.457Z" fill="white"/>
<path d="M152 623.69C137.28 633.15 120.32 637.72 102.99 639.39C96.8698 639.03 73.8298 645.01 71.6398 640.71C65.9698 633.01 62.9898 624.19 61.5398 614.84C54.5198 557.84 45.4598 492.67 77.2098 441.43C79.8098 437.47 83.8398 438.08 87.6698 438.91C97.4698 441.85 91.3398 455.58 90.7298 462.75C88.6398 471.69 85.5698 480.42 83.6098 489.38C79.5698 506.76 94.1898 514.25 108.48 513.67C124.3 515.06 140.62 517.16 154.74 524.8C138.11 535.81 118.54 540.4 99.7498 546.26C92.0298 548.4 92.9598 560.41 100.92 561.4C118.21 564.03 135.96 564.98 151.47 573.92C159.67 577.3 144.87 584.54 141.77 586.58C131.08 592.03 119.47 595.76 109.07 601.73C103.27 605.11 104.82 615.14 111.58 616.14C124.81 618.56 139.52 615.72 151.81 621.79C151.87 622.42 151.93 623.06 152 623.69Z" fill="white"/>
<path d="M404.45 231.798C407.08 215.208 412.25 200.468 416.67 184.488C417.06 183.158 418.73 181.438 420.01 181.238C442.21 177.888 461.94 168.628 480.58 156.538C487.04 152.348 493.84 148.688 500.56 144.918C501.7 144.278 503.29 143.818 504.52 144.048C518.3 146.588 532.12 149.058 544.67 155.828C572.73 169.548 574.87 212.288 575.32 239.998C541.7 238.128 508.15 236.258 474.14 234.368C475.96 222.478 478.27 211.448 480.64 199.818C481.9 193.408 479.94 190.108 473.47 189.478C457.1 187.748 440.27 187.028 424.59 192.908C419.47 193.998 421.45 201.568 426.4 201.178C438.95 201.238 451.54 200.788 464.08 201.258C465.91 201.338 466.46 202.218 466.12 204.018C464.71 212.878 462.92 221.698 461.34 230.508C460.98 233.428 459.44 233.668 457.05 233.548C439.37 232.848 422.26 231.578 404.45 231.798ZM514.2 189.778C507.72 191.608 493.65 190.748 490.13 196.028C494.46 202.728 519.56 199.418 528.44 201.308C533.38 200.708 551.94 207.798 552.67 202.228C555.32 192.428 521.28 191.138 514.2 189.778ZM509.7 212.578C503.9 212.548 489.52 218.068 494.87 225.318C502.45 231.338 507.63 211.278 518.52 226.658C519.96 228.768 521.7 230.438 524.3 228.958C527 227.418 526.7 224.838 525.43 222.508C522.03 216.318 516.91 212.738 509.7 212.578ZM455.75 223.098C452.1 209.708 435.56 205.008 424.43 217.738C423.59 218.708 423.72 221.448 424.5 222.668C427.17 226.428 431.07 221.638 433.56 219.938C440.27 215.268 446.03 219.348 449.55 225.358C452.49 226.958 454.34 225.888 455.75 223.098Z" fill="white"/>
<path d="M613.61 199.977C621.7 168.537 613.12 128.567 578.89 119.437C570.34 115.997 560.31 115.507 552.81 109.977C552.94 109.557 553.07 109.127 553.2 108.707C566.35 109.357 579.28 114.737 591.88 118.417C603.09 122.447 609.98 131.417 614.66 142.207C621.22 157.247 624.62 186.987 613.61 199.977Z" fill="white"/>
<path d="M500.34 591.858C434.58 592.918 361.64 594.118 294.03 593.838C289.46 593.848 286.47 591.568 286.2 587.988C285.67 583.588 290.16 580.648 294.99 580.688C307.39 580.448 319.78 580.108 332.18 580.018C458.85 578.748 585.51 579.778 712.18 580.698C721.16 579.258 727.67 589.788 717.47 593.538C644.2 595.568 575.71 592.038 500.34 591.858Z" fill="black"/>
<path d="M504.16 633.618C450.47 633.138 396.79 632.178 343.1 631.808C325.58 631.598 308 632.838 290.5 632.638C284.37 632.238 283.2 622.698 289.08 620.928C427.56 615.118 566.97 623.628 705.7 625.378C708.74 625.468 711.78 625.438 714.82 625.488C726.62 625.188 726.53 639.758 714.64 639.068C644.49 636.588 574.3 636.438 504.15 634.178C504.15 633.978 504.16 633.798 504.16 633.618Z" fill="black"/>
<path d="M234.35 414.11C229.62 414.81 220.83 411.51 220.14 418.55C218.2 426.63 220.23 441.91 209.86 444.01C201.85 444.11 201.04 433.88 197.58 428.54C194.82 423.01 192.01 417.5 189.1 412.05C187.72 409.47 185.73 409.05 182.93 410.35C177.81 412.41 172.54 414.95 166.95 415.24C159.84 415.38 155.84 410.08 158.74 403.62C163.87 393.58 170.25 384.1 174.54 373.59C177.85 362.79 166.06 352.11 166.43 341.01C166.6 335.09 170.93 331.74 176.64 333.3C190.53 339.65 201.43 351.61 214.08 360.15C214.83 360.72 216.14 360.78 217.16 360.71C226.35 361.28 241.96 354.33 247.1 364.68C249.88 371.78 242.28 376.79 239.07 382.27C234.6 387.93 243.95 391.37 246.27 395.82C256.35 408.68 249.09 415.9 234.36 413.96C234.35 414.01 234.35 414.06 234.35 414.11Z" fill="black"/>
<path d="M743.58 363.21C752.36 366.22 764.06 370.8 773.25 374.26C775.95 375.27 778.18 374.28 780.39 372.63C787.01 368.84 810.03 345.77 811.86 363.02C809.67 375.14 803.47 386.32 799.39 397.91C797.33 402.76 805.07 404.13 807.13 407.6C814.88 414.28 819.58 427.9 805.33 429.45C797.69 431.28 784.1 426.97 781.47 436.82C779.6 445.65 770.32 469.63 760.88 453.22C756.06 442.35 757.94 415.81 742.19 415.79C735.37 414.61 723.85 414.01 722.96 405.16C722.8 401.29 725.27 398.9 728.3 397.11C731.52 395.21 734.94 393.65 738.14 391.72C745.28 388.5 737.07 382.01 736.03 377.13C733.35 370.58 733.28 362.87 743.58 363.21Z" fill="black"/>
<path d="M677.06 669.656C711.56 672.586 729.32 663.906 718.55 708.916C714.54 724.286 703.31 733.526 687.48 734.256C669.28 735.096 651.03 736.486 632.87 733.416C609.28 730.576 606.93 712.546 613.54 693.106C622.61 665.796 653.13 673.596 677.06 669.656ZM667.07 722.676C667.09 722.256 667.12 721.826 667.14 721.406C698.59 722.996 706.31 719.926 708.47 686.996C708.8 683.986 707.23 681.996 703.66 682.066C690.47 682.316 677.25 682.116 664.08 682.726C652.94 684.536 630.04 681.936 626.24 695.036C625.34 701.306 619.3 715.066 627.25 718.166C639.91 722.356 653.89 720.926 667.07 722.676Z" fill="black"/>
<path d="M627.46 343.428C634.45 344.308 647.48 340.078 648.61 349.698C647.92 358.888 634.96 355.458 628.58 356.478C626.22 356.508 625.39 357.318 625.07 359.638C622.26 380.248 619.15 400.828 616.51 421.458C615.33 432.568 616.22 465.208 634.01 459.098C641.73 455.448 645.45 464.548 638.34 468.208C585.56 485.098 609.39 384.218 613.02 357.708C605.72 357.038 590.06 363.808 588.14 353.778C588 344.228 604.92 346.758 611.55 345.058C614.28 344.828 615.3 343.988 615.61 341.198C617.6 334.348 615.93 309.628 625.78 311.098C636.35 312.248 627.28 335.618 627.46 343.428Z" fill="black"/>
<path d="M478.29 465.658C477.52 485.638 476.53 505.108 475.19 524.978C474.99 527.838 474.26 530.828 473 533.378C466.35 542.808 462 529.288 462.97 523.188C464.39 490.378 466.85 457.608 466.29 424.738C466.52 420.518 465.22 414.388 470.39 412.808C474.24 411.008 476.06 415.788 479.58 415.728C526.87 409.868 527.9 486.018 478.29 465.658ZM478.68 453.348C514.26 466.948 507.65 427.368 483.11 428.038C481.23 428.228 478.75 428.198 478.71 430.988C478.61 438.668 478.68 446.358 478.68 453.348Z" fill="black"/>
<path d="M303.04 328.289C292.69 330.539 282.68 332.709 272.68 334.899C267.12 335.329 256.05 341.499 253.76 333.929C253.14 331.039 254.72 328.439 258.36 327.549C269.13 324.929 279.97 322.549 290.78 320.099C308.88 315.999 326.99 311.899 345.1 307.839C348.8 306.269 352.79 307.779 354.7 311.029C356.76 315.759 350.21 317.679 346.65 318.409C336.41 320.769 326.18 323.149 315.89 325.309C313.58 325.799 312.89 326.719 312.87 328.999C312.5 370.859 311.98 412.719 311.59 454.579C312.16 464.059 301.15 463.869 301.51 454.519C301.51 412.339 301.11 370.459 303.04 328.289Z" fill="black"/>
<path d="M442.02 680.017C395.08 679.027 348.02 678.077 301.14 681.557C296.06 682.267 286.73 683.427 286.22 676.997C285.8 673.657 288.21 670.667 292.69 670.147C342.24 664.007 392.4 667.087 442.23 666.417C453.53 666.687 453.69 680.947 442.02 680.017Z" fill="black"/>
<path d="M644.11 440.21C641.32 432.31 644.33 427.64 647.75 420.72C653.28 407.97 665.9 399.92 678.47 401.2C697.69 402.99 700.17 433.88 678.89 435.73C672.38 436.33 665.83 436.57 659.3 436.77C657.07 436.84 656.31 437.51 656.25 439.81C656.29 464.56 677.15 464.71 693.31 454.47C699.43 451.45 705.45 460.6 699.48 464.75C677.22 483.42 642.61 472.81 644.11 440.21ZM658.88 426.46C665.48 426.12 671.16 425.97 676.81 425.48C694.14 422.27 674.03 397.07 658.88 426.46Z" fill="black"/>
<path d="M426.48 423.068C454.75 398.678 461.36 442.728 457.12 463.098C455.35 472.908 444.28 471.088 445.05 461.328C444.68 451.378 447.56 440.648 443.41 431.268C434.99 417.928 429.45 446.918 429.32 452.518C428.46 455.468 426.29 456.928 423.27 456.828C412.43 458.578 422.02 422.898 412.88 429.638C401.07 438.018 405.11 449.838 402.99 462.178C402.15 469.158 392.49 468.188 393.25 461.128C393.23 449.208 393.24 437.288 393.24 425.358C393.03 420.718 392.83 411.208 399.71 412.508C402.76 413.718 405.54 416.358 405.53 419.998C415.93 414.978 419.51 415.498 426.48 423.068Z" fill="black"/>
<path d="M335.11 445.82C337.56 456.06 348.7 462.72 359.55 459.95C366.2 459.28 375.04 447.09 380.39 453.05C387.22 463.53 362.08 472.2 354.08 470.97C315.98 471.44 314.14 413.74 348.49 405.3C377.38 399.95 392.3 441.43 335.11 445.82ZM334.7 435.78C344.65 433.71 353.16 432.62 361.27 426.97C372.7 416.37 341.05 403.67 334.7 435.78Z" fill="black"/>
<path d="M536.19 400.05C536.19 421.44 536.21 442.84 536.16 464.23C536.08 468.11 535.84 475.62 530.33 474.53C525.21 473.14 524.52 467.66 524.77 463.05C524.73 419.67 524.63 376.29 524.85 332.91C524.76 321.45 537.77 321.62 537.46 333.04C537.53 355.37 537.49 377.71 537.49 400.05C537.06 400.05 536.62 400.05 536.19 400.05Z" fill="black"/>
<path d="M577.37 454.848C566.79 471.058 544.71 468.278 542.93 448.098C541.96 432.178 557.9 417.728 573.74 419.648C575.62 413.258 585.17 412.688 586.45 419.628C589.03 434.318 589.28 449.348 590.83 464.178C592.26 473.998 579.66 476.158 578.41 466.058C577.88 462.608 577.75 459.098 577.37 454.848ZM572.63 430.078C564.08 428.398 555.12 438.978 554.9 446.848C554.57 453.128 561.72 456.408 565.44 450.848C570.48 445.098 571.76 438.018 572.63 430.078Z" fill="black"/>
<path d="M514.2 189.777C521.28 191.137 555.26 192.397 552.67 202.227C551.98 207.797 533.31 200.697 528.44 201.307C519.48 199.407 494.49 202.727 490.13 196.027C493.7 190.737 507.71 191.617 514.2 189.777Z" fill="black"/>
<path d="M509.7 212.578C516.92 212.738 522.04 216.318 525.42 222.508C526.7 224.838 527 227.418 524.29 228.958C521.7 230.428 519.95 228.758 518.51 226.658C507.52 211.258 502.4 231.398 494.86 225.318C489.51 218.068 503.9 212.558 509.7 212.578Z" fill="black"/>
<path d="M455.75 223.098C454.33 225.888 452.51 226.968 449.55 225.358C446.03 219.348 440.28 215.278 433.56 219.948C431.07 221.648 427.17 226.438 424.5 222.678C423.73 221.448 423.59 218.708 424.43 217.748C435.56 205.008 452.1 209.708 455.75 223.098Z" fill="black"/>
<path d="M667.07 722.678C658.13 720.458 621.82 724.218 623.2 711.788C624.65 701.768 624.82 687.198 637.64 685.708C659.45 681.758 681.6 682.368 703.66 682.068C707.23 681.998 708.8 683.998 708.47 687.008C706.28 719.958 698.62 722.988 667.14 721.418C667.11 721.828 667.09 722.258 667.07 722.678Z" fill="white"/>
<path d="M478.68 453.35C478.68 446.36 478.61 438.67 478.72 430.99C478.76 428.2 481.24 428.23 483.12 428.04C507.65 427.37 514.25 466.95 478.68 453.35Z" fill="white"/>
<path d="M658.88 426.458C673.96 397.108 694.17 422.208 676.81 425.478C671.17 425.978 665.48 426.118 658.88 426.458Z" fill="white"/>
<path d="M334.7 435.779C341.07 403.639 372.7 416.399 361.27 426.969C353.17 432.629 344.66 433.709 334.7 435.779Z" fill="white"/>
<path d="M572.63 430.078C571.76 438.018 570.48 445.098 565.44 450.848C561.72 456.398 554.57 453.138 554.9 446.848C555.13 438.978 564.07 428.408 572.63 430.078Z" fill="white"/>
</svg>
