<svg width="960" height="960" viewBox="0 0 960 960" fill="none" xmlns="http://www.w3.org/2000/svg">
<path d="M891.9 238.918C887.795 252.588 877.451 262.192 869.182 273.551C883.149 278.216 886.877 289.496 882.948 302.903C866.085 348.76 838.963 390.28 811.838 430.662C786.236 467.143 747.138 478.799 710.519 449.606C695.694 435.871 679.946 421.812 668.624 405.1C668.269 405.368 667.914 405.636 667.558 405.905C671.697 432.899 675.134 460.145 674.653 487.47C673.21 499.222 663.105 504.139 653.443 508.765C679.218 621.361 723.713 729.274 742.154 843.892C743.496 851.115 742.564 857.594 735.361 862.333C756.507 871.582 779.285 877.652 797.384 892.512C806.913 899.608 820.012 914.938 801.052 919.582C792.641 919.99 784.332 919.078 776.013 918.218C752.733 917.964 729.435 918.221 706.166 917.277C687.265 917.163 691.369 895.525 688.664 882.646C682.001 882.233 677.062 880.546 674.798 873.953C644.088 787.847 616.309 700.796 579.934 616.779C577.025 634.22 572.911 650.152 569.487 667.311C568.351 672.804 565.816 677.742 563.759 682.851C535.82 752.719 479.078 788.215 404.031 780.866C398.598 780.787 393.165 780.644 387.733 780.489C381.063 780.034 373.875 781.06 369.449 774.614C361.466 788.732 352.528 801.912 340.694 813.088C330.719 827.428 264.178 856.02 288.706 816.052C310.333 787.53 319.206 752.958 333.878 721.147C337.172 716.068 343.463 716.733 348.777 717.166C355.462 717.677 361.798 715.642 368.023 714.951C370.234 707.825 373.062 703.93 380.841 702.847C444.254 699.47 480.956 646.496 493.559 588.839C498.716 557.926 504.311 525.605 498.029 494.541C495.959 475.953 480.827 475.222 475.529 457.379C474.043 453.324 473.386 449.19 473.637 444.836C474.832 424.239 475.446 404.011 477.416 383.407C447.953 407.521 420.858 434.333 389.795 456.474C383.98 460.454 377.686 463.564 370.646 459.423C366.371 463.724 362.871 468.298 360.216 473.707C369.812 482.083 400.397 511.02 382.765 522.215C378.493 524.608 375.074 527.893 371.804 531.375C363.662 540.156 355.188 548.668 348.636 558.776C366.452 581.18 389.123 600.274 404.611 624.284C405.727 626.688 405 628.639 402.007 630.289C396.235 633.472 390.474 636.714 384.506 639.498C348.107 656.15 310.684 671.084 271.812 680.883C254.893 685.319 234.056 688.115 221.994 672.324C189.257 631.617 153.657 593.133 124.231 549.87C121.003 545.332 118.443 540.402 116.872 534.985C115.253 529.399 115.558 524.05 117.983 518.74C125.987 501.214 133.591 483.518 139.83 465.275C177.341 353.8 165.21 365.873 244.739 446.938C253.639 436.948 261.084 425.609 269.493 415.152C275.215 405.283 287.126 396.193 296.841 406.869C303.886 415.331 311.209 423.355 317.908 432.142C325.55 426.532 332.097 420.199 340.297 415.217C340.311 412.356 342.142 409.885 343.8 407.227C357.726 385.879 377.22 369.222 393.797 350.064C442.567 297.581 487.139 236.584 561.739 221.595C551.649 206.38 543.494 190.028 535.233 173.769C533.867 170.944 531.887 169.083 529.17 167.614C523.835 164.729 518.83 161.327 514.412 157.117C506.479 149.432 507.625 135.807 515.704 129.684C512.657 118.763 508.789 107.358 506.849 96.0528C504.533 77.7868 520.755 63.8298 536.275 57.8108C559.954 47.3978 584.698 38.3328 611.049 41.2248C612.773 41.0768 614.621 42.2498 615.312 43.6388C615.249 45.4788 613.805 46.6738 611.88 47.7848C621.912 49.3048 630.474 52.7028 639.244 56.4408C642.525 57.4788 641.794 62.6018 638.388 62.7718C633.978 63.5118 630.2 63.9688 625.766 65.1658C631.319 70.8178 636.241 76.3148 641.532 82.1088C643.081 83.8308 643.831 85.8298 642.725 88.1788C640.593 91.8598 635.928 90.2068 632.238 91.4098C653.603 129.697 652.994 179.162 628.3 215.743C623.63 220.887 617.479 224.321 611.981 229.109C636.688 239.494 651.974 260.844 666.121 282.546C677.477 298.661 690.066 313.725 704.369 327.33C722.078 343.938 757.375 365.931 778.823 344.849C783.01 340.043 786.503 334.783 789.376 329.096C799.995 308.216 805.563 285.425 807.888 262.222C808.247 254.947 812.226 252.378 819.325 253.098C816.114 224.627 807.704 196.762 809.673 167.976C809.843 161.458 815.949 146.533 823.566 155.271C832.153 171.471 833.047 190.143 835.445 207.917C838.763 204.507 841.91 199.866 847.281 201.287C851.229 202.418 852.461 205.783 852.968 209.343C853.475 212.908 853.585 216.529 853.899 220.515C866.853 207.968 873.325 213.373 870.324 230.042C880.016 226.472 893.858 224.11 891.9 238.918ZM505.513 489.738C518.766 568.494 492.411 688.672 402.206 707.706C395.354 709.028 388.448 710.056 381.595 711.364C377.879 712.073 377.363 712.752 377.046 716.512C375.927 733.343 373.898 750.4 375.816 767.225C376.456 770.745 377.423 771.452 381.05 771.624C385.83 771.851 390.612 772.091 395.396 772.195C473.444 779.642 526.195 752.395 556.521 678.521C567.491 648.982 566.53 616.901 570.275 586.008C570.812 580.723 577.112 579.562 578.048 585.777C609.841 669.331 642.579 752.52 670.562 837.518C673.552 844.939 675.943 852.602 678.58 860.164C680.752 864.798 680.513 871.001 685.26 873.969C699.283 867.997 713.785 862.634 728.041 857.145C731.753 855.747 735.411 853.355 734.859 848.909C724.477 787.574 709.274 726.897 691.51 667.274C674.937 615.19 656.709 563.622 645.819 509.934C598.654 511.424 549.178 509.052 505.513 489.738ZM563.228 497.686C577.531 433.128 586.398 368.439 588.732 303.059C581.269 306.819 568.29 330.845 562.755 313.689C556.464 286.823 560.852 258.463 552.183 232.053C484.621 249.746 443.394 307.526 398.031 356.112C388.093 368.932 347.978 404.354 349.011 418.042C354.338 431.274 364.934 441.182 374.033 451.803C375.681 453.707 377.814 454.178 379.985 452.997C399.528 441.335 416.414 425.72 433.501 410.825C451.297 396.837 466.893 380.489 481.872 363.509C490.233 353.824 498.239 343.833 506.439 334.01C508.011 331.81 510.562 330.141 513.179 331.626C517.484 335.366 510.216 340.19 508.082 343.252C501.493 351.059 494.949 358.903 488.342 366.693C485.497 370.494 486.678 377.992 485.591 382.809C484.288 406.354 479.624 430.905 483.418 454.187C496.85 485.068 533.166 492.376 563.228 497.686ZM815.91 260.6C812.086 291.007 805.237 322.183 786.579 347.222C762.351 376.236 720.126 352.784 698.602 331.729C677.436 312.129 662.123 287.513 643.81 265.565C644.171 267.821 644.648 270.042 646 271.384C647.095 272.471 647.722 273.529 648.035 274.859C650.432 285.041 653.473 295.133 654.994 305.447C659.859 333.757 659.745 363.457 666.204 391.246C680.916 408.427 695.787 425.479 712.481 440.794C753.209 476.131 790.501 453.323 814.763 412.935C835.234 380.29 855.261 347.389 871.371 312.318C874.014 306.977 875.969 301.345 876.717 295.382C878.762 284.511 868.004 281.327 859.979 278.03C845.175 272.436 831.145 264.885 815.91 260.6ZM595.888 303.242C592.642 369.184 584.951 434.116 570.556 498.349C592.53 501.556 614.769 501.392 636.923 502.212C651.266 502.676 669.471 495.537 666.761 480.015C665.97 437.166 657.155 395.094 652.744 352.559C648.769 317.106 647.073 280.277 626.865 249.537C626.003 245.979 623.154 244.728 619.861 243.054C621.237 255.172 642.147 306.569 618.44 303.743C610.929 302.627 603.601 301.877 595.888 303.242ZM617.075 162.605C631.246 160.37 632.06 172.786 635.86 166.002C638.1 161.215 641.588 156.426 641.72 151.005C641.855 131.15 636.312 112.159 627.939 94.3118C627.04 92.2528 625.988 91.4298 623.674 91.3108C609.104 90.8698 595.894 84.5928 583.024 78.3068C574.726 73.6148 566.157 80.3748 558.327 83.1788C536.349 94.5268 542.052 124.884 544.604 145.266C548.091 161.77 558.66 180.011 577.18 181.582C581.512 181.916 584.885 181.293 587.822 177.746C593.711 171.987 599.959 162.09 609.513 164.936C610.832 165.359 612.258 165.592 613.287 164.362C605.676 145.111 599.57 125.353 593.23 105.656C592.291 102.456 592.951 100.992 595.816 100.302C602.652 98.7368 619.685 94.7488 624.581 100.787C623.433 101.748 622.519 103.009 620.849 102.771C613.982 103.787 607.296 104.14 600.507 105.85C606.132 125.124 611.616 143.908 617.075 162.605ZM250.287 453.053C281.249 486.517 311.786 519.523 342.278 552.479C352.6 541.169 362.657 530.151 372.791 519.047C365.165 510.857 357.427 502.547 349.604 494.145C340.173 501.58 322.552 504.645 316.338 491.779C315.873 490.803 315.101 489.695 314.182 489.262C305.716 484.543 301.46 475.11 296.557 467.134C291.714 459.135 295.778 451.758 301.638 445.923C292.852 436.945 283.263 429.232 276.071 418.669C267.396 430.238 258.973 441.47 250.287 453.053ZM359.546 581.882C339.324 590.91 319.489 599.765 299.403 608.733C310.758 623.332 321.94 637.708 333.311 652.327C354.946 643.59 376.609 635.204 397.283 623.628C384.528 609.517 372.059 595.724 359.546 581.882ZM232.117 444.927C227.176 439.608 177.754 383.698 174.907 393.339C167.755 405.52 163.456 420.152 158.983 433.332C174.315 449.854 186.595 468.638 201.633 485.335C211.904 471.721 221.992 458.349 232.117 444.927ZM368.148 722.08C360.108 722.029 352.051 724.151 343.966 724.733C339.421 724.956 338.524 729.622 337.049 733.035C327.851 758.803 318.681 784.761 303.811 807.939C299.507 814.66 295.024 820.571 291.629 827.965C327.175 825.668 352.009 792.79 365.781 762.736C368.272 749.5 366.865 735.521 368.148 722.08ZM802.631 911.242C802.713 905.835 796.081 902.138 792.675 898.704C772.472 882.934 747.978 875.917 724.235 866.929C715.354 871.14 705.172 874.01 695.665 878.155C696.252 883.209 696.783 887.691 697.289 892.175C698.647 897.842 696.299 907.154 703.548 909.051C736.469 911.455 769.599 909.449 802.631 911.242ZM241.222 534.165C250.445 545.804 259.405 557.111 268.522 568.616C285.974 559.198 303.056 549.695 319.975 539.261C306.739 525.109 293.89 511.372 280.679 497.246C267.399 509.672 254.404 521.83 241.222 534.165ZM236.964 528.906C250.069 516.504 262.964 504.302 276.008 491.958C263.14 478.085 250.192 464.125 237.112 450.023C225.652 463.259 215.473 476.728 205.801 490.856C216.202 503.556 226.498 516.127 236.964 528.906ZM247.159 632.948C255.343 645.945 263.582 659.03 272.018 672.428C290.611 667.526 308.883 661.653 327.037 654.626C315.58 640.045 304.277 625.659 292.839 611.101C277.472 618.45 262.342 625.686 247.159 632.948ZM342.139 423.229C328.86 434.414 314.74 443.576 303.436 456.569C299.081 460.545 312.974 480.022 317.229 482.021C324.078 483.961 322.192 492.321 329.271 492.949C339.755 494.672 348.79 487.053 351.319 477.16C354.161 468.334 359.751 461.35 365.695 454.427C357.041 444.693 348.326 435.311 342.139 423.229ZM140.974 485.632C151.208 499.404 161.35 513.052 171.706 526.989C180.476 514.925 188.961 503.253 197.444 491.584C183.83 474.691 170.426 458.058 156.737 441.072C151.388 456.193 146.231 470.773 140.974 485.632ZM354.156 575.938C349.922 572.051 345.69 564.849 340.658 563.076C339.965 562.919 339.135 561.886 338.978 561.13C338.493 558.784 336.806 557.37 335.322 555.781C331.989 552.212 328.635 548.663 325.329 545.149C307.906 555.184 290.835 565.017 273.459 575.025C280.617 584.278 287.624 593.334 294.542 602.277C302.068 600.398 344.35 581.727 354.156 575.938ZM845.141 208.156C841.442 212.05 839.689 215.411 837.157 219.776C834.783 224.645 829.067 222.938 828.771 218.388C826.544 199.359 826.403 179.922 818.833 161.959C818.512 161.982 818.19 162.004 817.869 162.027C812.852 191.97 822.174 222.172 825.025 251.966C825.338 254.281 826.074 255.553 828.356 256.47C839.378 260.775 850.128 265.83 861.2 269.989C869.829 259.702 879.848 250.287 884.373 237.503C886.728 230.674 872.183 237.156 870.272 239.287C869.17 240.187 868.079 241.104 866.926 241.935C863.576 244.55 858.732 241.804 860.225 237.174C862.099 231.829 864.095 227.925 863.732 221.371C861.51 223.737 859.677 225.337 858.28 227.255C855.285 230.133 851.788 241.092 847.145 239.258C844.803 238.548 844.275 235.433 844.966 232.95C845.658 224.387 847.86 216.923 845.141 208.156ZM175.57 532.162C183.333 542.822 190.953 553.286 198.816 564.084C210.128 553.71 221.038 543.704 232.099 533.56C221.899 521.115 211.945 508.97 201.632 496.388C192.781 508.537 184.234 520.27 175.57 532.162ZM202.917 569.397C205.694 574.775 218.47 592.298 220.636 593.774C233.167 588.209 259.484 574.027 262.126 571.344C253.59 560.598 245.039 549.832 236.368 538.914C224.931 549.336 213.896 559.392 202.917 569.397ZM138.179 492.851C133.686 501.688 130.757 510.713 126.285 519.484C123.086 525.944 123.308 532.147 126.835 537.97C132.373 546.295 137.42 555.578 143.928 562.98C151.904 552.786 160.214 542.8 167.825 532.155C157.88 518.971 148.182 506.114 138.179 492.851ZM224.65 600.726C230.837 609.626 236.85 618.276 243.115 627.288C258.288 619.965 273.223 612.758 288.581 605.346C281.282 595.99 274.33 587.077 267.4 578.194C252.996 585.786 238.969 593.179 224.65 600.726ZM591.203 296.069C597.189 289.49 607.472 250.937 607.359 236.905C603.734 233.757 597.894 239.228 593.53 238.783C585.014 239.247 577.074 236.919 570.406 231.548C567.707 229.374 565.265 229.147 561.852 230.017C574.129 251.098 583.443 272.999 591.203 296.069ZM167.398 594.365C176.369 585.361 185.059 576.638 193.863 567.801C186.494 557.693 179.227 547.726 171.794 537.529C163.435 548.051 155.413 558.149 147.206 568.479C153.97 577.151 160.703 585.782 167.398 594.365ZM241.182 634.719C231.066 639.091 221.63 643.17 212.02 647.323C217.626 655.56 224.904 662.455 231.244 670.157C240.442 679.429 254.408 675.915 266.078 673.752C257.597 660.455 249.506 647.77 241.182 634.719ZM188.075 618.917C195.007 627.323 201.527 635.23 207.851 642.898C217.871 638.357 227.37 634.052 237.344 629.532C231.177 620.724 225.16 612.131 219.111 603.491C208.625 608.703 198.591 613.69 188.075 618.917ZM182.91 612.739C193.628 607.444 203.902 602.368 214.595 597.085C208.962 589.142 203.609 581.592 197.994 573.675C188.659 581.964 179.968 590.333 172.067 599.836C175.738 604.204 179.207 608.333 182.91 612.739ZM584.142 297.633C579.614 284.575 570.034 254.942 563.231 248.15C565.018 269.278 565.569 290.927 569.194 311.886C574.362 306.959 579.107 302.434 584.142 297.633ZM600.837 295.157C607.206 295.81 613.221 296.445 619.24 297.034C621.576 297.262 622.479 296.75 622.537 294.386C622.626 290.792 622.705 287.094 621.988 283.603C619.195 272.079 617.642 260.319 613.603 249.154C610.122 265.142 606.827 280.514 600.837 295.157ZM627.759 184.686C627.445 178.785 621.933 175.111 616.675 176.804C608.787 179.979 599.656 181.409 593.692 187.946C588.292 195.572 597.275 204.876 606.812 192.582C609.788 188.505 612.078 192.438 615.23 193.884C623.647 196.794 625.788 191.171 627.759 184.686ZM313.748 435.49C303.113 429.67 298.804 418.476 290.088 410.779C287.672 408.001 280.02 410.158 282.762 414.365C289.569 424.436 299.064 431.865 307.315 440.882C309.161 439.334 311.284 437.555 313.748 435.49ZM379.44 516.56C388.177 511.107 363.277 484.801 357.536 481.217C356.419 483.748 355.438 485.973 354.397 488.332C362.744 497.741 371.038 507.09 379.44 516.56ZM519.189 114.477C519.189 113.346 519.296 112.968 519.173 112.694C515.127 102.181 515.832 90.0728 520.354 79.9248C525.232 68.8728 538.235 67.5458 547.26 61.4408C547.147 61.1788 547.034 60.9158 546.921 60.6538C540.562 61.3178 534.607 64.7918 528.631 67.0128C511.543 75.0398 510.241 99.8588 519.189 114.477ZM527.739 159.618C527.991 159.419 528.243 159.22 528.496 159.02C525.36 151.494 522.224 143.968 519.049 136.348C508.867 144.013 518.797 156.637 527.739 159.618Z" fill="black"/>
<path d="M67.2869 526.862C68.3039 523.764 69.0789 518.017 73.3399 518.89C75.3619 519.24 76.5799 520.971 76.5559 523.503C75.4059 529.713 75.3229 535.767 77.5529 541.767C78.6529 544.98 78.2319 546.653 76.3859 547.502C70.6799 549.335 69.7089 538.253 67.2859 534.623C67.2869 532.036 67.2869 529.449 67.2869 526.862Z" fill="black"/>
<path d="M104.213 500.927C94.0088 519.705 94.3008 541.748 105.237 559.846C108.325 564.487 102.654 568.117 99.5378 563.696C76.4258 533.632 98.6258 479.196 104.213 500.927Z" fill="black"/>
<path d="M273.55 812.942C252.14 805.061 231.371 793.329 216.706 775.573C214.583 771.734 218.991 768.156 222.152 770.849C231.946 782.137 243.567 790.906 256.743 797.823C262.287 800.859 267.872 803.819 273.437 806.817C277.166 808.268 277.39 811.453 273.55 812.942Z" fill="black"/>
<path d="M428.737 617.656C427.875 632.493 421.354 643.946 409.673 652.556C407.245 654.318 401.936 656.242 400.557 652.703C398.955 647.989 408.588 644.579 410.855 640.838C428.933 621.634 413.377 605.822 421.95 603.049C428.455 602.065 427.786 613.291 428.737 617.656Z" fill="black"/>
<path d="M275.761 787.191C270.597 786.026 265.613 782.578 261.006 779.9C258.485 778.673 257.968 775.801 259.155 773.491C260.447 771.128 263.562 772.337 265.248 773.726C268.924 776.086 272.59 778.464 276.266 780.824C280.51 782.255 281.407 787.498 275.761 787.191Z" fill="black"/>
<path d="M757.961 479.489C775.462 480.26 789.416 469.572 802.674 459.614C805.119 458.422 808.087 453.704 810.845 456.307C811.788 457.474 811.388 458.764 810.49 459.851C795.342 474.42 774.167 488.223 752.239 484.014C749.529 483.278 750.602 479.935 752.931 479.568C754.567 479.299 756.28 479.489 757.961 479.489Z" fill="black"/>
<path d="M772.409 498.963C759.399 492.907 781.539 489.336 785.924 486.864C788.661 485.579 793.064 482.245 795.067 485.988C795.98 487.576 795.665 489.475 793.78 490.696C787.454 494.792 780.557 497.52 772.409 498.963Z" fill="black"/>
<path d="M505.513 489.738C549.179 509.052 598.651 511.424 645.818 509.935C656.708 563.622 674.936 615.191 691.508 667.275C709.273 726.897 724.476 787.575 734.86 848.909C735.402 853.324 731.763 855.782 728.04 857.145C713.785 862.635 699.281 867.999 685.259 873.969C683.068 873.002 682.383 871.105 681.704 869.337C680.547 866.324 679.643 863.214 678.579 860.164C675.942 852.602 673.551 844.939 670.565 837.516C642.576 752.519 609.84 669.331 578.042 585.778C577.093 579.593 570.828 580.689 570.273 586.008C566.53 616.898 567.49 648.984 556.52 678.522C526.2 752.413 473.378 779.647 395.394 772.192C390.61 772.09 385.829 771.851 381.048 771.623C377.421 771.45 376.454 770.744 375.815 767.224C373.895 750.4 375.929 733.341 377.044 716.511C377.362 712.751 377.878 712.072 381.594 711.363C388.447 710.055 395.353 709.027 402.203 707.704C492.404 688.637 518.766 568.573 505.513 489.738Z" fill="black"/>
<path d="M563.228 497.685C541.367 493.444 519.021 490.188 501.166 476.085C491.619 468.975 482.41 458.709 481.959 446.286C482.177 420.93 484.238 395.671 486.763 370.456C486.854 368.911 487.384 367.82 488.341 366.691C494.948 358.901 501.493 351.057 508.081 343.25C510.266 340.133 517.448 335.402 513.18 331.624C510.533 330.176 508.035 331.78 506.44 334.009C498.239 343.833 490.233 353.823 481.873 363.509C466.893 380.489 451.297 396.837 433.5 410.823C416.414 425.72 399.528 441.335 379.985 452.997C377.814 454.177 375.68 453.707 374.032 451.802C364.933 441.182 354.336 431.272 349.012 418.041C348.142 416.125 348.555 414.412 349.711 412.587C362.761 391.298 381.694 374.766 398.029 356.108C443.386 307.533 484.629 249.729 552.182 232.051C560.851 258.46 556.463 286.823 562.755 313.687C568.301 330.846 581.257 306.821 588.732 303.057C586.398 368.437 577.531 433.126 563.228 497.685Z" fill="white"/>
<path d="M815.91 260.602C831.147 264.883 845.175 272.44 859.979 278.031C867.976 281.344 878.792 284.498 876.715 295.385C875.968 301.348 874.012 306.98 871.37 312.321C855.26 347.391 835.233 380.292 814.762 412.938C790.526 453.284 753.219 476.16 712.48 440.796C695.787 425.481 680.915 408.43 666.206 391.248C659.745 363.456 659.86 333.761 654.993 305.449C653.473 295.135 650.432 285.043 648.036 274.861C647.723 273.531 647.096 272.473 646.001 271.386C644.65 270.045 644.173 267.823 643.811 265.567C662.124 287.515 677.436 312.131 698.603 331.729C720.108 352.791 762.367 376.234 786.58 347.224C805.238 322.182 812.083 291.012 815.91 260.602Z" fill="white"/>
<path d="M595.888 303.243C603.6 301.878 610.93 302.628 618.438 303.744C642.135 306.565 621.258 255.251 619.86 243.055C623.153 244.729 626.002 245.98 626.866 249.537C647.073 280.288 648.768 317.099 652.742 352.56C657.155 395.095 665.97 437.166 666.762 480.016C669.468 495.49 651.266 502.724 636.922 502.212C614.768 501.394 592.53 501.557 570.556 498.35C584.951 434.117 592.642 369.185 595.888 303.243ZM596.34 461.111C596.84 456.02 589.689 455.389 589.697 460.463C589.459 465.457 596.223 466.405 596.34 461.111ZM598.33 421.252C602.661 421.087 602.515 413.673 598.016 413.982C593.574 414.213 593.891 421.496 598.33 421.252ZM606.512 328.656C601.906 328.617 602.214 336.091 606.676 335.929C611.249 335.976 611.009 328.483 606.512 328.656ZM603.228 369.949C598.712 369.849 598.805 377.439 603.322 377.225C607.849 377.191 607.82 369.814 603.228 369.949Z" fill="white"/>
<path d="M617.075 162.604C611.617 143.907 606.133 125.124 600.506 105.849C607.293 104.14 613.983 103.786 620.848 102.77C622.517 103.008 623.434 101.747 624.58 100.786C619.694 94.7457 602.653 98.7387 595.815 100.301C592.95 100.991 592.289 102.455 593.229 105.655C599.568 125.353 605.674 145.11 613.286 164.361C612.256 165.591 610.831 165.358 609.512 164.935C599.957 162.098 593.712 171.973 587.82 177.743C577.736 188.012 560.217 176.857 554.001 167.152C541.557 149.608 541.246 126.608 543.181 105.928C544.44 88.9407 557.171 82.6527 571.531 77.6587C579.986 73.9777 587.613 81.3837 595.32 84.0257C604.308 88.2717 613.754 90.7987 623.674 91.3097C625.988 91.4287 627.041 92.2507 627.94 94.3107C636.31 112.159 641.857 131.15 641.719 151.004C641.589 156.428 638.097 161.21 635.86 166.001C632.095 172.789 631.209 160.362 617.075 162.604ZM586.809 104.812C586.778 104.533 586.747 104.254 586.716 103.975C576.028 101.299 564.149 104.407 554.534 109.378C552.003 113.232 557.373 112.103 559.385 111.31C565.675 109.934 571.967 108.564 578.268 107.24C581.186 106.565 584.346 106.773 586.809 104.812ZM614.551 119.151C613.473 115.766 612.646 112.679 611.482 109.725C610.362 106.704 604.837 108.592 605.83 111.665C607.275 115.922 608.986 127.097 614.551 119.151ZM581.341 126.344C580.122 123.365 579.169 120.575 577.848 117.972C575.879 114.145 570.418 116.942 572.179 120.857C574.126 124.986 576.9 134.528 581.341 126.344Z" fill="white"/>
<path d="M359.546 581.883C372.059 595.725 384.528 609.518 397.284 623.628C376.61 635.204 354.947 643.591 333.312 652.327C321.941 637.708 310.759 623.332 299.404 608.733C319.489 599.766 339.324 590.911 359.546 581.883Z" fill="white"/>
<path d="M232.117 444.926C221.992 458.348 211.904 471.72 201.634 485.334C186.594 468.634 174.317 449.855 158.984 433.331C163.459 420.147 167.756 405.523 174.906 393.34C177.838 383.763 226.954 439.39 232.117 444.926Z" fill="white"/>
<path d="M368.148 722.079C366.865 735.519 368.272 749.5 365.782 762.735C352.016 792.784 327.169 825.672 291.629 827.965C295.021 820.577 299.507 814.659 303.811 807.939C318.681 784.761 327.851 758.803 337.049 733.035C338.523 729.622 339.421 724.954 343.966 724.733C352.052 724.149 360.107 722.029 368.148 722.079Z" fill="white"/>
<path d="M802.631 911.242C769.601 909.449 736.468 911.455 703.549 909.053C696.291 907.151 698.66 897.847 697.289 892.176C696.783 887.692 696.252 883.21 695.665 878.156C705.172 874.011 715.354 871.141 724.235 866.93C747.971 875.915 772.477 882.937 792.674 898.705C796.121 902.188 802.666 905.768 802.631 911.242Z" fill="white"/>
<path d="M241.222 534.165C254.404 521.831 267.399 509.672 280.679 497.246C293.89 511.371 306.739 525.109 319.975 539.261C303.056 549.695 285.974 559.198 268.522 568.616C259.405 557.11 250.445 545.804 241.222 534.165Z" fill="white"/>
<path d="M236.964 528.906C226.498 516.127 216.203 503.557 205.801 490.856C215.473 476.729 225.652 463.259 237.112 450.023C250.192 464.125 263.141 478.085 276.008 491.958C262.963 504.302 250.069 516.504 236.964 528.906Z" fill="white"/>
<path d="M247.159 632.949C262.342 625.687 277.471 618.451 292.838 611.102C304.276 625.66 315.58 640.046 327.036 654.627C308.882 661.654 290.611 667.527 272.017 672.429C263.582 659.032 255.343 645.947 247.159 632.949Z" fill="white"/>
<path d="M342.139 423.23C348.326 435.313 357.041 444.694 365.695 454.427C359.751 461.349 354.162 468.334 351.32 477.161C348.786 487.05 339.758 494.676 329.271 492.949C322.2 492.328 324.073 483.959 317.23 482.022C312.991 480.073 299.08 460.502 303.436 456.571C314.743 443.574 328.857 434.42 342.139 423.23Z" fill="white"/>
<path d="M140.974 485.63C146.23 470.771 151.388 456.192 156.737 441.07C170.426 458.057 183.83 474.689 197.444 491.582C188.961 503.251 180.476 514.922 171.706 526.987C161.35 513.05 151.208 499.402 140.974 485.63Z" fill="white"/>
<path d="M354.156 575.938C344.35 581.727 302.067 600.398 294.542 602.276C287.624 593.333 280.617 584.277 273.459 575.024C290.835 565.016 307.906 555.183 325.329 545.148C328.635 548.663 331.989 552.211 335.322 555.78C336.806 557.37 338.493 558.783 338.978 561.129C339.135 561.885 339.964 562.918 340.657 563.076C345.697 564.854 349.915 572.044 354.156 575.938Z" fill="white"/>
<path d="M845.141 208.157C847.861 216.919 845.659 224.392 844.966 232.952C844.276 235.432 844.8 238.552 847.144 239.259C851.774 241.107 855.293 230.125 858.28 227.257C859.677 225.339 861.51 223.738 863.732 221.373C864.095 227.927 862.098 231.83 860.224 237.176C858.734 241.807 863.573 244.552 866.925 241.937C868.078 241.106 869.169 240.189 870.271 239.289C872.196 237.152 886.714 230.68 884.372 237.505C879.846 250.292 869.83 259.7 861.199 269.991C850.127 265.831 839.377 260.776 828.355 256.472C826.073 255.554 825.337 254.283 825.026 251.968C822.173 222.175 812.852 191.971 817.868 162.029C818.189 162.006 818.511 161.984 818.832 161.961C826.403 179.926 826.543 199.36 828.77 218.391C829.067 222.937 834.783 224.65 837.156 219.778C839.689 215.407 841.438 212.054 845.141 208.157Z" fill="white"/>
<path d="M175.57 532.161C184.233 520.269 192.781 508.536 201.632 496.387C211.945 508.969 221.899 521.114 232.099 533.559C221.038 543.703 210.128 553.708 198.816 564.083C190.953 553.284 183.333 542.821 175.57 532.161Z" fill="white"/>
<path d="M202.917 569.396C213.896 559.391 224.931 549.336 236.368 538.914C245.04 549.832 253.591 560.597 262.126 571.344C259.484 574.027 233.167 588.209 220.636 593.774C218.471 592.297 205.694 574.774 202.917 569.396Z" fill="white"/>
<path d="M138.179 492.852C148.182 506.114 157.88 518.972 167.825 532.156C160.214 542.801 151.904 552.787 143.928 562.981C137.419 555.579 132.374 546.296 126.834 537.972C123.308 532.149 123.086 525.946 126.285 519.485C130.758 510.711 133.685 501.695 138.179 492.852Z" fill="white"/>
<path d="M224.65 600.727C238.969 593.18 252.996 585.787 267.4 578.195C274.329 587.078 281.282 595.991 288.581 605.347C273.223 612.759 258.288 619.966 243.115 627.289C236.85 618.276 230.837 609.627 224.65 600.727Z" fill="white"/>
<path d="M591.203 296.069C583.443 273 574.128 251.098 561.852 230.017C565.265 229.147 567.707 229.374 570.406 231.548C577.074 236.919 585.014 239.247 593.53 238.784C597.914 239.228 603.705 233.757 607.358 236.905C607.473 250.937 597.189 289.489 591.203 296.069Z" fill="white"/>
<path d="M167.398 594.366C160.703 585.783 153.97 577.152 147.206 568.481C155.412 558.151 163.435 548.053 171.794 537.531C179.228 547.727 186.494 557.695 193.863 567.803C185.059 576.639 176.369 585.362 167.398 594.366Z" fill="white"/>
<path d="M241.182 634.719C249.506 647.77 257.597 660.455 266.078 673.751C254.424 675.918 240.429 679.426 231.244 670.156C224.903 662.453 217.628 655.561 212.02 647.322C221.63 643.169 231.065 639.091 241.182 634.719Z" fill="white"/>
<path d="M188.075 618.917C198.59 613.691 208.625 608.703 219.11 603.492C225.159 612.132 231.176 620.725 237.343 629.533C227.369 634.053 217.87 638.358 207.85 642.899C201.527 635.229 195.007 627.323 188.075 618.917Z" fill="white"/>
<path d="M182.91 612.74C179.207 608.333 175.738 604.204 172.068 599.837C179.969 590.334 188.66 581.965 197.995 573.676C203.609 581.593 208.963 589.142 214.596 597.086C203.901 602.369 193.628 607.445 182.91 612.74Z" fill="white"/>
<path d="M584.142 297.631C579.107 302.432 574.362 306.956 569.193 311.884C565.569 290.927 565.017 269.275 563.23 248.148C570.067 255.015 579.583 284.501 584.142 297.631Z" fill="white"/>
<path d="M600.837 295.155C606.827 280.513 610.122 265.14 613.603 249.152C617.641 260.314 619.195 272.079 621.989 283.601C622.704 287.092 622.626 290.79 622.537 294.384C622.478 296.748 621.576 297.26 619.24 297.032C613.221 296.443 607.206 295.808 600.837 295.155Z" fill="white"/>
<path d="M627.759 184.686C625.782 191.174 623.657 196.793 615.229 193.883C612.074 192.434 609.79 188.507 606.812 192.582C597.28 204.871 588.29 195.58 593.691 187.946C599.656 181.409 608.787 179.98 616.675 176.804C621.934 175.112 627.442 178.784 627.759 184.686ZM618.321 183.833C614.787 184.276 612.03 184.713 609.256 184.944C606.54 185.17 603.718 183.731 600.92 185.393C602.43 191.955 615.173 188.492 618.321 183.833Z" fill="white"/>
<path d="M313.748 435.491C311.284 437.556 309.161 439.336 307.315 440.882C299.066 431.867 289.568 424.434 282.762 414.366C280.017 410.155 287.675 408.007 290.088 410.78C298.805 418.479 303.11 429.669 313.748 435.491Z" fill="white"/>
<path d="M379.44 516.558C371.038 507.087 362.744 497.739 354.397 488.33C355.438 485.971 356.419 483.746 357.536 481.215C363.218 484.752 388.184 511.081 379.44 516.558Z" fill="white"/>
<path d="M519.189 114.476C510.238 99.8693 511.545 75.0303 528.631 67.0123C534.608 64.7893 540.562 61.3183 546.922 60.6523C547.035 60.9143 547.148 61.1773 547.261 61.4393C538.239 67.5423 525.23 68.8723 520.356 79.9233C515.831 90.0733 515.13 102.175 519.173 112.692C519.297 112.967 519.189 113.344 519.189 114.476Z" fill="white"/>
<path d="M527.739 159.618C518.799 156.641 508.865 144.01 519.049 136.348C522.224 143.968 525.36 151.494 528.496 159.02C528.244 159.22 527.991 159.419 527.739 159.618Z" fill="white"/>
<path d="M596.34 461.108C596.222 466.402 589.458 465.455 589.697 460.46C589.69 455.386 596.84 456.017 596.34 461.108Z" fill="black"/>
<path d="M598.33 421.252C593.892 421.496 593.574 414.213 598.016 413.982C602.514 413.673 602.661 421.088 598.33 421.252Z" fill="black"/>
<path d="M606.512 328.655C611.01 328.483 611.25 335.975 606.675 335.928C602.214 336.09 601.905 328.615 606.512 328.655Z" fill="black"/>
<path d="M603.228 369.947C607.82 369.812 607.849 377.19 603.321 377.223C598.806 377.437 598.712 369.847 603.228 369.947Z" fill="black"/>
<path d="M586.809 104.813C584.345 106.774 581.187 106.566 578.267 107.24C571.966 108.564 565.674 109.934 559.384 111.311C557.381 112.102 551.995 113.234 554.533 109.38C564.148 104.409 576.027 101.3 586.715 103.976C586.747 104.255 586.778 104.534 586.809 104.813Z" fill="black"/>
<path d="M614.551 119.15C608.984 127.095 607.275 115.922 605.83 111.663C604.838 108.592 610.362 106.701 611.482 109.724C612.646 112.678 613.473 115.765 614.551 119.15Z" fill="black"/>
<path d="M581.341 126.344C576.899 134.527 574.127 124.985 572.179 120.857C570.419 116.943 575.879 114.143 577.848 117.972C579.169 120.575 580.121 123.365 581.341 126.344Z" fill="black"/>
<path d="M618.321 183.832C615.192 188.477 602.432 191.962 600.92 185.393C603.718 183.731 606.541 185.17 609.256 184.944C612.03 184.713 614.787 184.276 618.321 183.832Z" fill="black"/>
</svg>
