<svg width="960" height="960" viewBox="0 0 960 960" fill="none" xmlns="http://www.w3.org/2000/svg">
<path d="M242.654 913.945C202.09 905.234 161.649 895.938 120.838 888.436C116.506 887.404 111.991 886.456 108.008 884.405C100.204 880.058 105.214 872.061 111.29 868.999C137.205 856.23 161.152 838.218 188.927 829.833C196.753 828.118 204.561 828.692 212.316 830.082C240.781 835.184 269.24 840.324 297.673 845.602C308.535 847.929 319.758 849.614 330.35 852.828C338.439 858.687 324.545 865.354 320.787 869.461C296.782 886.97 274.473 913.543 242.654 913.945ZM286.083 850.165C261.067 845.547 236.212 841.443 211.186 837.035C204.71 835.941 198.199 835.329 191.628 836.678C185.908 837.852 180.491 839.821 175.336 842.473C153.97 853.748 132.178 864.194 112.177 877.801C118.728 880.17 124.56 881.064 131.162 882.662C134.629 883.42 138.077 884.569 141.683 882.953C147.569 882.759 153.701 882.147 159.639 881.67C170.159 881.558 180.681 881.279 191.126 879.84C194.403 879.433 194.986 878.446 194.677 875.122C193.829 864.622 189.3 844.961 204.697 843.912C209.71 843.842 214.598 845.446 219.556 846.017C229.607 848.288 262.045 846.595 248.092 863.794C242.685 869.623 237.772 874.483 232.735 880.86C247.364 880.18 261.595 878.898 275.881 875.901C278.959 875.118 280.834 873.074 281.419 869.699C282.808 862.963 284.698 857.126 286.083 850.165ZM242.755 858.063C242.641 857.719 242.526 857.375 242.412 857.031C230.843 855.625 219.338 853.744 207.786 852.213C203.011 851.585 201.837 852.473 201.708 857.192C201.531 864.114 202.456 871.075 202.498 877.988C201.886 891.714 180.192 887.322 170.609 889.715C192.02 895.79 214.241 899.338 235.967 904.506C241.29 905.661 246.651 905.835 252.072 905.002C276.457 899.718 303.517 873.732 322.232 857.219C312.167 855.061 302.542 852.587 292.543 851.449C287.673 870.65 292.636 882.537 268.455 885.289C257.741 886.66 247.003 887.861 236.258 888.966C230.671 889.7 222.911 887.293 224.751 880.237C227.033 872.257 237.396 864.73 242.755 858.063Z" fill="black"/>
<path d="M40.3299 317.018C43.1089 312.939 42.4429 300.999 49.5829 303.208C51.3419 304.009 52.2149 306.124 51.3369 308.467C49.7179 312.789 48.2529 317.115 47.7769 321.749C47.6139 323.331 46.7489 324.703 44.8519 324.772C41.9169 325.171 40.1009 319.295 40.3299 317.018Z" fill="black"/>
<path d="M594.711 152.255C602.194 159.661 607.556 167.836 613.633 176.224C614.588 177.542 615.162 178.901 614.074 180.471C612.937 182.112 611.458 182.613 609.394 181.744C604.858 179.903 601.124 177.913 596.413 176.234C598.183 185.606 600.257 194.472 600.424 203.863C597.806 212.097 591.368 204.9 586.447 204.289C582.442 254.332 548.752 301.729 499.704 316.213C509.393 338.609 515.62 362.039 521.849 385.898C535.209 377.964 547.3 368.283 560.658 360.376C566.328 356.783 570.088 359.513 574.536 363.664C575.719 362.028 576.814 360.513 577.958 358.931C572.466 355.519 566.305 351.311 569.164 344.108C574.795 329.747 582.098 316.047 590.235 302.957C602.192 284.909 606.21 282.472 625.555 293.635C630.063 288.116 634.133 283.787 641.093 288.264C649.401 293.493 657.107 296.369 649.523 306.747C652.703 311.303 653.302 314.633 652.258 320.188C661.659 324.949 671.258 329.734 680.658 334.545C683.62 336.06 685.776 338.315 686.797 341.636C693.828 349.756 699.189 348.603 694.163 360.963C690.617 369.225 688.093 378.472 681.701 385.076C677.87 389.593 672.597 385.926 668.509 383.752C660.411 391.671 652.58 386.307 643.907 382.818C640.009 388.248 635.97 392.023 630.317 395.686C634.11 403.421 633.145 412.095 624.544 415.823C617.557 419.198 610.278 417.855 602.626 418.128C602.149 428.771 595.618 435.549 588.558 442.197C572.605 457.635 556.019 472.473 540.667 488.457C561.034 483.667 581.329 480.545 602.192 479.565C614.422 478.841 623.263 484.606 627.911 495.969C636.444 518.207 626.497 542.131 618.9 563.158C617.116 572.769 612.548 581.517 610.356 590.906C644.385 615.613 682.22 645.303 686.366 690.242C688.66 711.754 682.051 744.44 657.296 749.493C650.221 750.673 643.003 751.332 635.831 751.499C603.816 751.54 571.79 748.414 539.789 751.14C539.062 751.184 538.181 751.324 537.665 751.764C534.476 754.489 531.37 757.312 527.893 760.409C536.481 767.119 546.354 772.409 555.599 778.208C561.851 782.717 568.965 786.949 572.731 793.931C579.059 804.717 567.275 815.719 556.463 815.02C545.029 814.815 533.592 814.184 522.171 813.7C503.864 813.412 485.159 813.106 467.644 807.228C447.739 799.809 454.154 775.038 455.901 758.544C452.424 755.832 449.23 751.805 446.979 747.662C423.068 747.337 392.887 758.047 382.027 728.482C356.409 744.865 328.665 772.611 296.057 758.605C278.915 748.926 300.764 731.123 308.781 722.525C318.428 713.148 328.198 703.987 337.582 694.338C333.135 689.419 329.074 684.237 327.548 677.667C326.913 675.091 325.604 673.017 324.018 670.94C300.593 641.631 284.544 607.133 278.965 569.929C266.258 467.57 282.596 355.253 345.013 270.826C347.223 266.878 348.787 262.388 351.581 258.771C355.123 254.179 356.615 249.191 356.347 243.342C356.533 226.679 364.814 219.625 381.465 221.358C385.898 221.521 386.002 216.422 387.011 213.269C391.5 192.189 418.236 188.371 433.167 201.308C439.447 206.171 444.438 212.113 449.226 218.428C450.449 216.437 449.903 214.884 449.104 213.138C446.655 207.784 444.216 202.411 442.116 196.914C436.917 183.481 445.197 169.858 458.536 168.632C462.35 156.168 466.235 143.267 471.732 131.341C480.549 115.142 502.484 112.45 518.982 115.845C547.057 120.607 575.558 127.18 597.839 146.156C601.271 147.981 601.184 152.758 596.608 152.263C596.127 152.212 595.633 152.255 594.711 152.255ZM445.164 526.656C390.544 501.824 331.348 431.993 339.214 368.971C339.768 367.482 341.069 366.8 342.58 366.847C346.171 366.876 346.251 370.653 346.131 373.368C344.659 431.307 386.445 480.387 432.034 511.301C439.573 515.832 449.701 522.535 458.726 518.935C473.587 510.937 488.987 504.221 505.187 499.327C522.808 494.004 522.894 493.996 536.387 481.38C553.775 465.122 570.924 448.61 588.184 432.215C595.401 425.36 597.202 417.025 594.127 407.844C588.866 392.134 579.186 379.22 567.623 367.595C564.564 364.352 560.027 370.116 557.008 371.366C522.968 394.285 488.849 417.05 453.353 437.674C450.981 439.137 447.35 440.882 445.56 437.696C443.152 433.292 450.553 431.001 453.164 429.185C439.239 414.026 432.867 381.27 432.929 361.005C433.442 358.92 434.842 357.717 436.663 357.709C440.107 357.565 440.741 361.617 440.707 364.425C443.222 384.098 443.231 407.222 457.689 422.422C459.598 424.153 461.836 424.295 464.345 422.692C481.246 411.612 498.856 401.451 515.498 390.031C510.684 370.826 505.578 352.048 498.961 333.679C496.084 343.034 494.06 352.927 484.251 357.312C469.409 363.838 459.136 346.273 451.939 336.011C434.479 307.959 408.44 276.597 405.024 243.004C405.748 236.966 402.979 230.725 404.078 224.639C405.898 209.716 418.383 203.211 431.156 211.806C437.441 216.07 442.462 221.489 446.133 228.16C446.695 229.182 446.891 230.62 449.017 231.123C446.382 220.489 437.489 212.731 429.437 205.794C417.939 196.217 397.954 198.783 393.917 214.657C392.285 222.235 389.303 228.708 380.605 228.309C354.288 225.526 369.846 249.033 357.9 262.155C356.501 263.906 355.894 266.391 354.48 268.113C348.744 272.895 346.378 279.836 342.748 286.036C318.658 319.496 304.613 359.213 294.428 398.859C276.808 486.209 268.12 591.503 328.86 664.232C355.569 608.07 394.583 562.573 445.164 526.656ZM597.037 487.132C573.613 489.239 547.668 492.683 525.021 500.837C493.384 512.655 459.649 521.665 433.658 544.276C392.076 576.843 358.704 618.774 335.384 666.132C334.233 668.455 333.665 670.707 334.475 673.165C343.541 700.698 377.651 706.645 402.952 702.811C437.813 698.125 468.641 680.529 494.05 656.689C515.018 636.302 537.787 616.375 552.298 590.649C557.063 581.776 564.378 588.906 558.759 596.25C547.987 615.915 531.308 631.21 515.972 647.241C504.35 658.918 492.583 670.467 479.084 680.034C472.589 684.147 473.488 685.875 470.765 692.256C464.247 707.706 457.235 723.311 454.863 740.044C454.164 745.546 456.651 749.672 461.493 752.009C473.364 758.653 487.048 758.585 500.224 756.986C512.763 755.199 529.054 755.807 534.48 741.772C562.697 674.004 599.162 609.621 619.019 538.618C624.197 523.303 628.845 492.112 607.62 487.768C604.56 487.414 601.463 487.384 597.037 487.132ZM575.447 668.263C583.967 674.322 592.137 680.13 600.303 685.943C602.273 687.172 604.877 689.057 603.414 691.677C601.775 694.969 598.009 693.19 595.698 691.725C587.596 686.388 580.137 681.242 571.945 675.839C562.209 698.197 552.615 720.228 542.867 742.614C580.644 739.745 619.062 746.596 656.345 741.64C665.553 740.568 670.338 732.038 673.957 724.423C695.716 671.211 647.378 626.034 607.175 598.55C597.929 622.605 586.546 645.197 575.447 668.263ZM525.286 258.459C529.559 236.306 536.356 214.987 542.383 193.284C543.583 189.203 545.399 188.249 549.273 189.867C554.12 191.891 559.054 193.857 563.551 196.522C567.363 198.781 570.639 201.96 574.081 204.818C576.501 207.043 573.754 208.804 571.333 208.763C564.035 205.357 557.142 200.95 549.483 198.19C543.194 218.63 537.014 238.713 530.769 259.008C544.32 263.798 537.881 277.633 545.946 272.275C550.54 269.651 555.782 267.367 559.017 263.037C571.682 245.445 576.924 224.089 580.644 203.069C581.01 201.213 580.416 200.229 579.032 199.206C569.481 192.147 561.948 183.308 555.952 173.081C544.374 154.45 549.073 157.559 527.237 152.852C515.365 150.465 504.237 155.114 497.113 164.855C482.434 182.416 469.412 204.558 471.341 228.197C471.96 239.822 480.586 257.463 494.487 254.642C499.412 253.253 504.516 252.419 509.589 251.663C516.988 250.278 519.886 254.31 525.286 258.459ZM462.91 761.815C462.125 774.104 456.218 794.206 471.115 799.807C491.428 806.286 513.149 804.768 534.184 806.154C541.885 806.422 549.592 806.8 557.291 806.71C577.055 803.298 559.731 790.39 551.26 785.05C540.475 778.118 528.581 772.846 519.393 763.527C518.896 763.023 517.771 762.883 516.978 762.965C510.336 763.653 503.705 764.448 497.068 765.181C485.29 766.827 474.218 765.748 462.91 761.815ZM630.658 352.501C635.796 341.519 641.116 330.508 646.191 319.437C648.218 314.802 647.805 313.357 643.581 310.387C635.047 305.159 625.896 300.95 617.097 296.175C612.608 293.923 606.999 291.912 603.492 296.737C592.453 310.156 584.932 326.065 577.724 341.769C574.605 348.863 574.278 347.75 580.756 352.431C580.903 352.537 581.209 352.424 581.761 352.399C584.454 346.237 587.016 339.57 590.459 333.717C592.914 329.229 600.679 322.103 603.328 330.237C606.592 354.989 606.337 352.649 630.658 352.501ZM379.551 711.843C366.673 710.248 354.677 707.32 344.055 699.702C329.646 715.697 311.788 728.587 299.339 746.3C297.327 749.205 297.763 750.419 301.053 751.882C331.555 762.576 355.737 734.488 380.172 720.864C379.956 717.722 379.764 714.926 379.551 711.843ZM461.906 691.888C438.317 703.57 414.23 710.949 388.031 712.958C387.765 726.721 395.976 742.922 411.768 741.67C423.222 741.088 434.813 741.128 446.239 740.328C448.903 723.225 455.251 707.675 461.906 691.888ZM578.748 368.276C588.516 380.574 597.72 392.963 601.919 408.432C602.307 409.8 603.192 410.236 604.482 410.252C610.443 410.202 616.778 411.472 622.236 408.427C630.343 403.992 616.598 396.004 625.587 389.42C631.026 385.465 641.998 380.439 631.369 374.781C625.943 370.985 628.218 365.546 632.953 362.276C630.504 360.661 630.019 360.481 627.131 360.401C607.748 360.918 598.606 359.082 596.937 337.688C589.9 347.453 587.326 359.517 578.748 368.276ZM427.755 278.646C433.318 275.665 438.544 271.604 443.892 268.115C444.561 267.649 444.824 266.331 444.928 265.371C445.382 261.169 445.616 256.942 446.099 252.743C447.479 240.739 447.518 240.739 441.403 230.203C438.041 224.251 433.381 218.99 427.359 215.681C410.244 205.571 406.849 229.198 410.598 241.149C413.726 254.732 419.665 267.045 427.755 278.646ZM649.441 325.307C644.66 335.269 640.121 344.729 635.529 354.296C641.981 358.169 642.853 363.929 637.371 368.908C639.67 371.353 641.093 374.073 643.703 375.824C647.657 377.665 651.563 379.638 655.622 381.216C660.048 382.937 661.708 382.281 664.469 378.436C671.213 368.668 677.744 358.354 680.921 346.823C681.843 343.113 680.975 341.352 677.634 339.519C668.287 334.303 659.307 330.004 649.441 325.307ZM465.21 342.2C470.16 333.821 474.421 325.905 477.446 317.113C464.374 317.198 453.422 308.737 448.453 297.047C444.398 290.296 445.923 283.3 444.86 275.445C439.897 279.158 435.44 282.493 430.733 286.015C441.629 305.097 452.501 323.822 465.21 342.2ZM500.577 266.655C497.894 267.077 495.828 267.228 493.86 267.75C487.038 269.734 486.189 280.986 495.139 280.971C497.71 281.138 500.239 280.506 502.722 279.905C506.658 278.976 507.044 279.195 508.347 282.878C509.479 287.874 515.759 292.044 520.042 289.955C524.302 287.942 528.732 284.121 527.877 278.842C527.125 274.946 524.724 272.499 520.955 271.38C514.465 269.282 506.872 268.001 500.577 266.655ZM528.059 125.793C528.113 125.462 528.166 125.132 528.22 124.801C523.091 122.307 517.293 121.636 511.793 120.291C506.981 119.325 502.13 118.953 497.292 120.315C483.012 124.674 474.167 138.574 470.992 152.486C470.709 153.709 470.189 155.129 471.54 156.259C476.725 138.134 491.314 118.763 512.433 123.849C517.619 124.596 522.789 126.301 528.059 125.793ZM468.515 346.979C480.039 357.762 484.482 351.128 487.186 338.265C482.191 336.894 484.914 332.556 483.521 329.696C478.679 335.274 474.01 340.65 468.515 346.979ZM677.459 382.134C683.793 374.664 687.049 365.816 689.681 356.574C690.762 352.926 690.5 352.504 686.345 350.54C682.648 360.651 677.275 369.902 671.446 379.07C673.418 380.074 675.113 380.938 677.459 382.134ZM457.568 176.628C444.252 176.7 444.263 196.561 452.487 202.842C454.217 193.914 455.883 185.321 457.568 176.628ZM645.316 304.372C648.302 299.868 648.298 299.222 644.554 296.584C638.646 293.354 635.813 289.091 631.114 296.589C635.939 299.234 640.528 301.748 645.316 304.372Z" fill="black"/>
<path d="M132.759 241.313C142.871 241.274 148.328 247.693 155.826 252.731C175.864 268.646 196.037 284.405 215.358 301.186C222.671 307 237.231 314.191 230.678 325.422C220.017 343.933 206.499 360.598 194.088 377.944C191.657 381.222 188.534 384.017 185.54 386.835C178.295 393.683 168.653 397.944 159.688 391.129C132.119 370.702 99.12 355.982 76.701 329.471C70.684 321.644 70.645 314.001 76.174 305.892C89.098 287.815 100.486 268.48 115.221 251.792C119.421 246.715 126.642 242.545 132.759 241.313ZM117.959 301.769C147.427 310.755 129.86 321.411 144.353 328.099C163.796 336.022 159.589 359.857 149.161 373.74C149.801 374.199 150.29 374.549 151.1 375.13C158.574 357.655 180.546 348.799 196.247 361.778C198.593 358.491 200.701 355.537 203.09 352.189C185.925 353.261 173.849 344.679 175.578 326.668C165.173 323.276 155.496 317.292 155.269 305.182C154.793 293.165 160.17 281.009 170.418 274.312C162.172 267.705 154.279 261.321 146.306 255.039C141.051 251.281 134.344 246.236 128.301 251.283C117.838 258.61 110.838 269.68 103.874 280.141C118.484 283.05 122.59 289.877 117.959 301.769ZM142.133 369.082C149.878 359.005 155.583 341.786 141.031 335.323C134.155 332.6 129.191 330.296 129.985 321.858C130.427 306.892 102.358 313.625 111.967 295.855C113.005 292.816 112.397 290.798 109.505 289.437C105.603 288.12 99.891 284.786 96.998 289.489C92.534 296.244 87.813 302.83 83.366 309.596C73.949 321.634 90.462 333.113 99.011 340.079C113.337 350.068 127.399 359.512 142.133 369.082ZM175.896 278.369C165.269 288.552 154.33 309.932 173.221 317.521C177.687 319.176 183.34 320.884 183.175 326.677C181.7 341.013 190.066 346.103 203.449 344.793C207.037 344.247 210.263 342.898 212.329 339.464C215.708 333.848 219.335 328.382 222.803 322.819C224.658 319.845 224.554 318.91 222.133 316.424C218.228 312.195 211.655 310.106 208.557 305.291C208.013 303.019 206.397 301.922 204.787 300.669C195.317 293.053 185.472 285.741 175.896 278.369ZM191.715 367.867C176.76 357.966 162.491 367.215 158.502 380.19C160.449 381.525 162.563 382.76 164.426 384.299C174.078 391.993 185.787 374.357 191.715 367.867Z" fill="black"/>
<path d="M725.841 870.052C705.528 869.737 689.714 855.794 674.828 843.681C667.877 838.709 668.405 832.007 674.681 826.675C679.284 822.434 683.793 818.119 689.207 814.794C709.705 799.958 730.926 786.077 751.857 771.836C765.805 761.664 812.507 779.645 830.332 783.36C841.811 786.722 843.811 795.562 834.994 803.694C822.454 815.621 807.32 824.109 792.909 833.506C779.468 842.077 765.98 850.575 752.478 859.05C744.338 863.87 735.65 870.67 725.841 870.052ZM677.287 835.459C693.527 849.634 717.248 872.136 739.776 858.38C746.549 853.938 753.425 849.653 760.285 845.347C766.678 839.638 848.167 796.316 829.748 790.861C823.572 789.099 817.378 787.404 811.202 785.647C809.961 785.294 808.982 785.45 808.078 786.43C804.679 790.114 801.105 793.647 797.863 797.463C793.748 801.134 797.604 803.813 799.456 807.541C806.855 820.923 791.761 820.106 782.813 818.829C780.724 818.687 778.706 818.887 776.962 820.254C771.196 824.773 765.126 828.954 759.712 833.86C750.903 841.844 740.619 847.273 730.022 852.246C725.613 854.616 717.577 854.029 719.64 847.154C723.04 838.965 729.222 833.153 733.897 825.539C725.175 828.407 718.567 831.034 710.337 833.247C706.285 834.346 703.172 829.284 706.145 825.987C719.855 813.336 735.693 803.047 749.797 790.817C746.778 789.653 744.08 788.614 740.847 787.368C724.033 798.66 706.174 810.572 689.083 822.026C687.03 823.62 685.939 826.225 684.135 828.053C681.844 830.425 678.956 832.242 677.287 835.459ZM729.478 843.866C729.726 844.101 729.974 844.335 730.222 844.57C745.153 837.564 757.771 826.998 770.098 816.084C776.879 809.4 784.589 811.458 793.322 812.116C791.991 809.967 791.2 808.372 790.12 807.008C783.047 797.763 794.997 789.851 800.151 782.986C789.153 780.066 778.921 778.358 767.952 776.015C760.854 774.533 755.358 777.68 749.764 782.016C762.149 785.576 762.769 792.225 752.207 798.991C743.588 805.784 734.675 812.219 726.237 819.233C726.37 819.469 726.504 819.706 726.637 819.942C732.239 818.48 749.76 809.757 746.308 822.471C741.487 830.132 734.516 836.301 729.478 843.866Z" fill="black"/>
<path d="M857.216 170.294C828.072 168.708 800.49 157.012 772.168 150.659C740.356 144.978 773.675 85.0416 779.842 67.2736C787.791 43.8986 816.388 48.7046 835.48 52.3926C855.806 56.9386 876.703 60.9386 895.812 69.4026C898.818 71.0206 900.611 73.6856 900.878 77.1446C901.184 81.1156 901.277 85.0756 899.811 88.9196C891.779 109.982 886.316 131.811 880.548 153.549C878.433 166.255 869.648 171.676 857.216 170.294ZM872.34 157.046C872.58 157.09 872.82 157.135 873.06 157.179C879.494 135.74 883.819 113.623 892.224 92.7886C893.28 90.2306 894.919 87.8016 893.363 84.8186C893.695 77.3416 894.771 75.5886 886.484 73.3306C864.535 68.3086 793.417 39.9456 785.791 71.7936C780.397 85.6416 773.788 99.2146 769.653 113.52C774.594 110.869 778.845 107.79 783.199 104.864C788.754 101.024 798.616 93.8326 801.786 103.901C803.092 107.388 804.135 110.975 805.43 114.467C807.644 119.561 808.6 123.804 814.377 118.88C824.751 113.61 855.021 86.0386 860.211 107.801C864.228 124.222 868.372 140.612 872.34 157.046ZM766.596 124.314C766.249 130.445 763.291 141.244 772.17 143.271C788.113 147.779 804.186 151.823 820.141 156.292C835.512 160.105 850.983 166.495 867.101 162.844C862.594 144.096 857.077 125.705 852.34 106.779C838.547 109.494 828.152 120.043 816.195 126.814C802.623 135.534 797.906 116.705 794.462 106.973C784.5 112.962 777.629 119.883 766.596 124.314Z" fill="black"/>
<path d="M504.719 842.054C521.037 842.251 537.401 841.339 553.659 842.989C555.95 843.16 557.107 844.189 557.891 846.596C561.397 857.719 566.646 868.359 568.894 879.858C572.486 896.039 557.437 900.65 544.301 900.623C518.847 901.282 493.431 902.652 468.026 904.382C449.698 905.582 431.351 907.146 412.974 906.152C404.682 905.802 392.017 902.344 396.622 891.531C401.909 881.023 409.552 871.717 415.988 861.864C418.044 858.948 420.612 856.329 423.243 853.896C437.136 839.775 483.747 844.948 504.715 842.186C504.717 842.14 504.718 842.097 504.719 842.054ZM500.522 873.905C500.59 873.659 500.657 873.414 500.724 873.168C496.527 870.783 492.177 868.626 488.176 865.95C484.248 863.323 480.483 863.433 476.597 865.534C471.064 868.524 465.425 871.375 460.167 874.801C455.006 878.164 450.267 878.116 445.656 874.324C439.673 869.271 434.061 864.225 428.478 858.643C418.269 868.349 411.357 880.654 404.048 892.525C402.293 895.476 402.912 896.599 406.175 897.543C427.343 901.462 449.027 897.336 470.36 896.814C497.936 895.195 525.594 894.571 553.126 892.343C569.612 890.825 558.382 871.159 554.931 861.774C552.873 863.47 551.13 864.906 549.424 866.313C549.823 867.251 550.185 867.392 550.776 868.007C553.323 871.282 550.138 874.392 546.607 873.869C542.424 873.099 539.15 874.648 536.419 877.707C528.599 886.83 518.627 881.627 509.447 877.897C508.055 880.126 505.947 880.741 503.488 880.813C498.478 880.962 493.472 881.264 488.462 881.449C486.205 881.527 482.824 881.494 482.676 878.502C482.587 876.861 483.397 875.681 484.946 875.368C490.073 874.413 495.328 874.292 500.522 873.905ZM550.34 848.448C528.997 846.864 507.669 848.686 486.319 849.167C469.266 850.775 452.098 849.116 435.538 854.426C458.795 879.538 451.055 866.048 477.229 857.223C481.921 855.61 486.233 855.986 490.489 858.665C500.302 865.062 510.719 870.374 521.518 874.894C525.002 876.42 527.98 875.786 531.002 873.088C537.879 866.708 545.651 861.296 552.439 854.849C551.737 852.71 551.067 850.665 550.34 848.448Z" fill="black"/>
<path d="M352.708 111.663C366.043 111.124 381.355 120.529 378.932 135.495C377.088 148.055 376.209 160.886 373.852 173.322C373.453 174.157 372.516 175.304 371.8 175.317C368.881 175.37 366.718 177.544 363.929 177.809C342.226 177.501 326.099 194.424 314.357 210.909C311.455 215.546 304.744 219.741 302.092 212.549C297.357 197.081 296.681 180.615 293.961 164.709C292.925 157.331 294.526 150.82 299.69 145.073C313.233 129.026 330.178 111.638 352.708 111.663ZM371.414 139.402C375.935 126.262 365.401 118.77 353.773 118.458C331.671 118.21 314.788 136.339 303.083 153.163C300.895 156.351 300.922 160.04 301.75 163.939C311.464 161.17 321.148 160.136 330.889 159.418C342.711 159.33 343.188 146.676 349.197 139.291C355.021 131.101 363.945 136.767 371.414 139.402ZM307.665 205.411C308.002 205.529 308.339 205.647 308.675 205.765C322.167 186.515 343.036 166.373 368.534 170.989C369.603 161.907 370.633 153.153 371.644 144.568C368.047 143.523 365.007 142.583 361.936 141.76C347.666 137.031 353.136 163.353 334.178 165.621C323.45 167.558 312.749 167.625 302.252 171.503C304.072 182.907 305.869 194.159 307.665 205.411Z" fill="black"/>
<path d="M238.77 634.181C234.317 650.227 224.779 664.557 215.364 678.157C210.539 684.509 202.876 691.046 194.502 687.006C182.709 681.306 168.364 675.645 162.252 663.241C157.551 651.894 177.222 625.009 184.696 615.82C189.308 610.371 196.076 605.214 203.399 608.464C215.406 614.427 237.241 618.257 238.77 634.181ZM181.395 671.806C182.996 666.859 183.864 662.916 185.366 658.12C189.261 641.067 211.055 648.092 210.025 634.725C209.692 629.376 211.214 624.068 216.611 621.684C210.69 619.436 205.881 617.64 201.096 615.78C197.303 614.123 194.218 616.938 191.792 619.529C182.232 629.88 175.842 642.199 170.016 654.85C166.483 663.135 176.228 666.694 181.395 671.806ZM188.694 675.489C198.507 680.629 202.083 683.458 209.452 673.021C217.562 661.372 225.025 648.989 230.441 635.904C232.084 630.479 226.764 628.159 222.945 625.795C209.541 628.985 223.673 641.803 208.198 648.85C205.314 650.233 202.293 651.354 199.274 652.424C189.936 655.991 191.204 667.139 188.694 675.489Z" fill="black"/>
<path d="M819.12 462.102C834.267 465.034 849.335 470.594 864.321 474.583C871.957 476.435 880.323 483.664 873.507 491.243C865.797 500.538 857.866 509.651 849.994 518.81C847.198 522.063 843.989 523.294 839.453 522.205C826.474 517.914 768.51 513.866 783.67 491.007C792.082 480.092 804.042 461.982 819.12 462.102ZM797.944 483.892C797.683 483.857 797.422 483.823 797.161 483.788C793.163 490.14 781.106 498.813 793.657 502.879C810.328 510.396 828.493 512.259 846.31 516.006C847.975 513.887 849.613 511.803 851.332 509.616C845.292 505.54 854.754 494.141 845.283 493.689C833.816 491.466 821.889 499.15 811.38 492.008C807.334 488.669 798.378 489.459 797.944 483.892ZM856.008 502.381C856.211 502.485 856.415 502.59 856.618 502.695C860.751 497.799 864.884 492.903 869.015 488.006C872.427 483.806 866.891 481.599 863.536 480.447C852.724 477.374 822.911 465.927 813.687 469.301C808.198 472.037 804.199 476.493 799.876 480.874C805.577 481.623 809.844 483.351 814.547 486.213C820.916 490.921 828.383 487.488 835.482 487.33C848.263 487.285 857.673 486.012 856.008 502.381Z" fill="black"/>
<path d="M56.6029 323.86C56.5659 318.747 62.9449 290.198 71.6099 293.901C74.3819 295.483 72.7969 299.535 71.2539 301.771C67.2209 309.046 64.6179 316.752 64.0439 325.104C63.8289 328.228 64.0859 331.215 65.3509 334.133C68.2189 342.045 55.9609 341.998 56.6029 323.86Z" fill="black"/>
<path d="M919.052 76.941C917.599 83.073 917.876 89.981 913.898 95.184C912.775 96.723 910.82 96.957 909.399 96.155C905.298 93.778 911.072 84.047 911.094 79.898C914.813 63.322 896.82 62.612 901.591 55.509C908.649 48.613 921.276 69.496 919.052 76.941Z" fill="black"/>
<path d="M639.683 458.375C640.784 447.768 641.811 437.82 642.862 427.875C643.17 424.944 644.894 421.079 647.864 421.86C652.693 422.702 650.27 429.832 650.201 433.398C649.47 441.314 648.761 449.233 648.016 457.148C648.319 464.223 639.912 465.854 639.683 458.375Z" fill="black"/>
<path d="M619.744 245.734C620.19 241.097 616.3 230.691 622.719 229.559C629.194 229.553 627.003 239.439 627.84 243.851C628.131 251.906 629.097 259.985 628.916 268.038C628.754 271.375 623.466 272.088 622.454 268.938C621.801 267.153 621.317 265.255 621.11 263.368C620.516 257.506 620.069 251.62 619.788 245.732C619.774 245.732 619.759 245.733 619.744 245.734Z" fill="black"/>
<path d="M246.498 323.875C247.699 329.416 239.455 348.366 232.761 343.989C227.987 337.63 245.564 332.343 235.509 312.528C233.238 306.882 241.032 303.642 243.172 309.372C244.529 314.075 246.454 318.939 246.498 323.875Z" fill="black"/>
<path d="M685.28 305.608C679.482 305.571 680.328 299.902 683.904 297.67C691.8 291.66 698.934 284.277 707.426 279.194C712.131 277.507 714.433 284.22 710.44 286.654C702.088 292.746 694.253 300.607 685.28 305.608Z" fill="black"/>
<path d="M747 139.325C746.182 130.777 754.7 130.053 755.4 138.056C756.522 147.017 758.276 154.481 767.25 158.473C770.298 160.303 768.165 165.669 764.796 164.667C753.559 161.847 747.714 149.991 747 139.325Z" fill="black"/>
<path d="M710.724 372.796C719.065 374.35 728.071 376.702 736.45 378.676C739.151 378.928 742.033 381.087 741.362 383.849C740.638 387.875 735.75 387.396 732.662 386.395C725.064 384.587 717.474 382.751 709.882 380.917C703.989 379.853 704.089 372.41 710.724 372.796Z" fill="black"/>
<path d="M851.106 790.973C850.512 787.632 849.497 781.886 853.661 781.309C860.608 781.256 858.854 793.488 857.63 798.074C856.22 802.95 846.917 821.185 840.738 815.598C836.425 811.156 851.132 803.558 851.106 790.973Z" fill="black"/>
<path d="M205.45 590.061C209.9 590.292 214.068 591.684 217.919 593.742C222.827 596.739 228.571 599.352 232.789 603.154C234.451 607.578 230.491 609.573 226.874 607.4C220.154 603.366 213.631 598.803 205.55 598.2C198.113 598.132 197.62 589.595 205.45 590.061Z" fill="black"/>
<path d="M652.55 840.314C652.543 835.834 654.89 823.501 661.538 826.087C667.665 829.466 656.55 836.696 661.845 848.465C662.726 850.829 664.032 854.223 661.004 855.603C659.543 856.317 658.178 855.982 657.118 854.912C653.77 850.892 652.706 845.633 652.55 840.314Z" fill="black"/>
<path d="M763.199 62.4479C764.583 56.7039 769.459 51.9109 772.863 47.1489C773.661 46.1499 775.13 45.389 776.414 45.132C779.668 44.482 781.863 47.35 780.554 50.404C777.418 55.356 772.317 58.824 770.235 64.592C768.429 68.887 762.945 66.9149 763.199 62.4479Z" fill="black"/>
<path d="M836.46 540.865C832.135 540.607 830.736 537.231 834.624 534.561C843.317 534.584 850.098 525.185 853.168 530.012C856.38 536.498 841.676 540.537 836.46 540.865Z" fill="black"/>
<path d="M302.9 225.145C302.971 236.052 281.294 219.898 288.432 215.136C290.139 213.897 291.836 214.409 293.786 216.376C296.601 219.236 300.392 222.158 302.9 225.145Z" fill="black"/>
<path d="M873.198 802.13C871.865 806.205 871.43 815.604 865.074 813.54C860.782 811.508 865.146 803.34 865.48 799.669C867.096 794.126 873.892 796.924 872.912 802.055C873.008 802.08 873.103 802.105 873.198 802.13Z" fill="black"/>
<path d="M733.369 152.325C733.063 147.714 739.163 146.059 740.983 150.478C741.949 154.052 747.143 160.107 743.466 163.133C742.05 164.152 740.453 164.026 739.151 162.981C735.793 160.285 733.863 156.744 733.369 152.325Z" fill="black"/>
<path d="M383.748 126.115C383.158 124.349 382.6 122.572 381.96 120.825C380.813 119.159 379.94 116.834 381.931 115.369C388.187 112.128 391.402 124.681 389.12 128.759C386.673 133.132 381.68 130.804 383.268 126.277C383.427 126.223 383.587 126.169 383.748 126.115Z" fill="black"/>
<path d="M816.374 438.936C820.607 438.523 822.924 444.112 818.4 445.681C815.88 446.57 813.361 447.46 810.839 448.343C806.605 450.108 803.653 444.916 807.409 442.246C810.023 440.285 812.975 439.073 816.374 438.936Z" fill="black"/>
<path d="M653.756 275.329C655.02 272.565 656.102 269.696 657.617 267.077C659.518 263.595 665.571 266.61 663.92 270.443C662.979 272.939 661.74 275.34 660.44 277.678C658.511 280.935 653.896 278.96 653.756 275.329Z" fill="black"/>
<path d="M224.291 588.617C221.053 586.883 215.36 586.685 215.724 582.269C218.753 575.283 233.693 584.759 224.291 588.617Z" fill="black"/>
<path d="M691.308 404.562C690.359 413.906 680.966 408.233 682.848 401.563C683.43 398.888 686.621 397.78 688.471 399.773C689.87 401.28 690.632 403.377 691.308 404.562Z" fill="black"/>
<path d="M710.902 348.028C705.689 348.028 706.599 340.46 711.379 340.524C716.743 340.456 716.073 348.282 710.902 348.028Z" fill="black"/>
<path d="M286.083 850.167C284.699 857.125 282.808 862.968 281.416 869.703C280.831 873.078 278.957 875.122 275.879 875.904C261.589 878.903 247.369 880.183 232.734 880.864C237.775 874.492 242.691 869.622 248.091 863.797C262.059 846.587 229.572 848.298 219.555 846.021C214.597 845.449 209.709 843.845 204.696 843.915C189.302 844.968 193.822 864.62 194.675 875.125C194.985 878.45 194.402 879.437 191.125 879.844C180.68 881.282 170.158 881.562 159.638 881.674C153.702 882.151 147.564 882.764 141.682 882.957C138.076 884.573 134.629 883.424 131.161 882.666C124.556 881.066 118.744 880.173 112.176 877.805C132.174 864.199 153.971 853.751 175.335 842.476C180.49 839.825 185.908 837.856 191.628 836.682C198.199 835.333 204.709 835.946 211.186 837.039C236.214 841.446 261.064 845.549 286.083 850.167Z" fill="white"/>
<path d="M242.755 858.064C237.38 864.749 227.056 872.231 224.75 880.237C222.92 887.291 230.664 889.703 236.258 888.966C247.003 887.862 257.741 886.661 268.455 885.29C292.617 882.558 287.69 870.609 292.543 851.449C302.542 852.587 312.167 855.062 322.232 857.219C303.562 873.701 276.43 899.733 252.074 905.004C246.651 905.835 241.29 905.661 235.968 904.505C214.241 899.338 192.021 895.79 170.61 889.715C180.167 887.327 201.899 891.708 202.499 877.988C202.458 871.075 201.532 864.114 201.709 857.192C201.837 852.473 203.012 851.585 207.787 852.213C219.339 853.743 230.843 855.625 242.413 857.031C242.526 857.376 242.64 857.72 242.755 858.064Z" fill="white"/>
<path d="M445.164 526.658C394.584 562.575 355.57 608.072 328.858 664.24C268.113 591.501 276.813 486.219 294.424 398.867C304.609 359.223 318.658 319.502 342.745 286.043C346.374 279.848 348.746 272.895 354.479 268.12C355.892 266.399 356.499 263.914 357.899 262.162C369.835 249.061 354.3 225.52 380.604 228.316C389.287 228.761 392.303 222.182 393.915 214.662C397.939 198.818 417.954 196.192 429.435 205.801C437.508 212.711 446.36 220.52 449.016 231.128C446.89 230.625 446.694 229.187 446.132 228.165C442.461 221.493 437.44 216.074 431.155 211.81C418.427 203.26 405.903 209.65 404.078 224.644C402.977 230.728 405.747 236.971 405.025 243.007C408.437 276.597 434.475 307.955 451.936 336.015C459.135 346.294 469.413 363.838 484.251 357.317C494.047 352.911 496.091 343.053 498.96 333.683C505.576 352.052 510.683 370.829 515.497 390.035C498.855 401.455 481.245 411.616 464.345 422.696C461.836 424.298 459.598 424.157 457.69 422.425C443.229 407.221 443.224 384.107 440.707 364.429C440.747 361.632 440.1 357.553 436.663 357.713C434.842 357.72 433.443 358.924 432.931 361.009C432.878 381.293 439.216 413.975 453.165 429.189C450.56 431.002 443.149 433.298 445.561 437.7C447.351 440.886 450.982 439.142 453.354 437.679C488.85 417.054 522.969 394.289 557.009 371.371C560.189 370.03 564.454 364.41 567.623 367.599C579.186 379.225 588.866 392.139 594.127 407.849C597.202 417.03 595.4 425.365 588.184 432.22C570.924 448.614 553.775 465.127 536.387 481.385C522.894 494.001 522.808 494.009 505.187 499.332C488.987 504.226 473.588 510.942 458.726 518.939C449.707 522.569 439.565 515.807 432.035 511.307C386.45 480.407 344.654 431.3 346.131 373.373C346.102 372.092 346.213 370.771 345.936 369.542C345.395 366.304 340.292 365.832 339.217 368.974C331.339 431.978 390.536 501.818 445.164 526.658Z" fill="black"/>
<path d="M597.037 487.133C601.463 487.385 604.56 487.415 607.619 487.77C628.878 492.061 624.153 523.421 619.019 538.619C599.161 609.624 562.696 674.005 534.48 741.774C529.049 755.806 512.765 755.196 500.223 756.989C487.05 758.575 473.361 758.669 461.493 752.011C456.651 749.675 454.164 745.549 454.863 740.046C457.235 723.313 464.248 707.707 470.764 692.258C473.493 685.843 472.614 684.14 479.085 680.037C492.583 670.47 504.35 658.921 515.972 647.244C531.308 631.213 547.988 615.917 558.76 596.253C564.361 588.819 557.107 581.799 552.297 590.65C537.788 616.377 515.019 636.304 494.052 656.692C468.641 680.529 437.814 698.127 402.952 702.812C377.644 706.658 343.538 700.693 334.475 673.167C333.665 670.709 334.233 668.457 335.384 666.133C358.707 618.776 392.074 576.843 433.659 544.278C459.651 521.667 493.383 512.656 525.021 500.838C547.659 492.684 573.629 489.227 597.037 487.133Z" fill="white"/>
<path d="M575.447 668.266C586.546 645.199 597.929 622.607 607.175 598.551C647.364 626.005 695.732 671.237 673.956 724.426C670.334 732.036 665.558 740.575 656.344 741.64C619.07 746.599 580.636 739.747 542.867 742.617C552.615 720.231 562.209 698.2 571.945 675.842C580.133 681.243 587.599 686.394 595.698 691.728C598.008 693.194 601.776 694.973 603.414 691.68C604.875 689.058 602.273 687.176 600.303 685.946C592.137 680.134 583.967 674.325 575.447 668.266Z" fill="white"/>
<path d="M525.286 258.459C519.889 254.299 516.969 250.285 509.589 251.665C504.516 252.42 499.412 253.254 494.487 254.642C480.711 257.59 471.894 239.69 471.341 228.199C469.409 204.556 482.438 182.422 497.112 164.855C504.238 155.137 515.362 150.446 527.238 152.854C549.074 157.586 544.327 154.376 555.952 173.082C561.947 183.308 569.481 192.148 579.032 199.207C580.416 200.23 581.01 201.213 580.644 203.07C576.924 224.089 571.682 245.448 559.016 263.038C555.781 267.369 550.539 269.649 545.946 272.276C537.888 277.647 544.326 263.809 530.769 259.009C537.014 238.715 543.193 218.632 549.483 198.191C557.14 200.949 564.037 205.359 571.334 208.764C573.728 208.809 576.523 207.042 574.081 204.819C570.639 201.962 567.363 198.782 563.552 196.523C559.055 193.858 554.121 191.892 549.274 189.868C545.4 188.25 543.584 189.204 542.385 193.285C536.356 214.989 529.56 236.302 525.286 258.459ZM506.162 172.295C499.189 176.977 506.625 177.554 510.561 179.105C516.289 181.363 521.995 183.676 527.693 186.008C530.104 186.532 536.741 191.53 538.151 188.531C539.013 186.909 537.248 186.047 536.26 185.166C527.703 177.649 516.955 175.356 506.162 172.295ZM518.828 190.67C516.165 192.014 509.64 192.338 511.115 196.652C512.333 199.016 514.433 197.464 516.083 196.621C520.223 194.729 523.494 197.701 524.682 201.634C526.144 204.587 530.681 202.414 529.48 199.378C528.277 194.925 523.504 191.158 518.828 190.67ZM556.187 208.96C554.236 209.065 551.913 209.807 550.237 211.716C548.864 213.905 549.926 215.204 552.487 215.094C557.669 211.904 561.406 214.044 563.333 219.528C564.554 222.079 568.412 220.42 567.543 217.754C566.644 212.973 561.639 208.88 556.187 208.96Z" fill="white"/>
<path d="M462.91 761.816C474.218 765.751 485.289 766.826 497.069 765.181C503.706 764.449 510.337 763.653 516.979 762.965C517.771 762.883 518.896 763.023 519.394 763.527C528.582 772.845 540.476 778.118 551.261 785.05C559.678 790.363 577.092 803.298 557.291 806.711C549.592 806.8 541.886 806.423 534.184 806.154C513.15 804.769 491.427 806.287 471.116 799.808C456.202 794.192 462.138 774.123 462.91 761.816Z" fill="black"/>
<path d="M630.658 352.502C614.304 351.773 605.839 357.271 604.288 336.695C603.937 323.527 596.835 323.814 590.46 333.719C587.017 339.57 584.454 346.239 581.762 352.4C581.209 352.425 580.904 352.538 580.757 352.432C574.279 347.751 574.606 348.865 577.725 341.771C584.932 326.067 592.454 310.157 603.492 296.738C607.001 291.922 612.607 293.916 617.097 296.177C625.896 300.951 635.046 305.161 643.581 310.388C647.805 313.358 648.217 314.803 646.19 319.438C641.116 330.509 635.797 341.52 630.658 352.502Z" fill="white"/>
<path d="M379.551 711.844C379.763 714.927 379.956 717.723 380.172 720.864C355.752 734.484 331.542 762.58 301.053 751.883C297.763 750.419 297.327 749.205 299.339 746.301C311.788 728.588 329.645 715.699 344.054 699.703C354.677 707.321 366.674 710.249 379.551 711.844Z" fill="black"/>
<path d="M461.906 691.891C455.251 707.677 448.903 723.228 446.238 740.33C434.811 741.13 423.221 741.09 411.767 741.672C395.975 742.924 387.765 726.724 388.031 712.96C414.233 710.951 438.315 703.574 461.906 691.891Z" fill="white"/>
<path d="M578.748 368.276C587.326 359.518 589.9 347.453 596.938 337.688C598.609 359.107 607.773 360.913 627.132 360.401C630.02 360.481 630.504 360.662 632.954 362.277C628.21 365.562 625.952 370.973 631.371 374.781C641.994 380.445 631.036 385.457 625.587 389.419C616.591 396.021 630.349 403.966 622.237 408.427C616.777 411.472 610.444 410.2 604.482 410.251C603.191 410.235 602.306 409.8 601.919 408.432C597.721 392.961 588.516 380.574 578.748 368.276Z" fill="white"/>
<path d="M427.755 278.648C419.665 267.047 413.726 254.734 410.597 241.151C406.855 229.211 410.239 205.563 427.36 215.684C433.381 218.992 438.042 224.253 441.403 230.205C447.518 240.741 447.479 240.741 446.099 252.745C445.616 256.944 445.382 261.17 444.928 265.373C444.824 266.334 444.561 267.652 443.892 268.117C438.544 271.605 433.317 275.667 427.755 278.648Z" fill="black"/>
<path d="M649.441 325.309C659.306 330.004 668.289 334.305 677.634 339.522C680.975 341.355 681.843 343.116 680.921 346.826C677.744 358.358 671.213 368.67 664.47 378.439C661.709 382.284 660.049 382.94 655.623 381.219C651.165 379.173 646.169 377.616 642.237 374.68C640.649 372.854 639.112 370.983 637.372 368.911C642.861 363.926 641.974 358.169 635.53 354.299C640.121 344.73 644.66 335.271 649.441 325.309Z" fill="white"/>
<path d="M465.21 342.201C452.501 323.823 441.629 305.098 430.733 286.015C435.44 282.493 439.897 279.158 444.86 275.445C445.922 283.296 444.398 290.3 448.453 297.047C453.424 308.739 464.371 317.195 477.446 317.113C474.421 325.905 470.16 333.822 465.21 342.201Z" fill="white"/>
<path d="M500.577 266.656C506.873 268.002 514.463 269.283 520.956 271.382C524.725 272.5 527.126 274.948 527.877 278.843C528.736 284.124 524.298 287.941 520.042 289.956C515.756 292.041 509.482 287.877 508.347 282.878C507.044 279.196 506.657 278.977 502.722 279.906C500.239 280.507 497.71 281.139 495.139 280.972C486.197 280.989 487.029 269.731 493.86 267.75C495.828 267.228 497.895 267.078 500.577 266.656ZM518.943 278.855C515.463 277.215 512.683 275.996 509.988 274.61C507.261 273.208 505.604 269.926 502.006 269.812C500.633 272.608 502.461 274.257 503.996 275.567C508.109 279.079 512.905 280.32 518.943 278.855Z" fill="white"/>
<path d="M528.059 125.793C522.791 126.301 517.617 124.596 512.432 123.849C491.313 118.763 476.723 138.134 471.539 156.259C470.189 155.129 470.709 153.709 470.992 152.486C474.165 138.576 483.013 124.673 497.292 120.315C502.13 118.953 506.981 119.326 511.793 120.292C517.294 121.637 523.09 122.308 528.22 124.802C528.166 125.132 528.113 125.463 528.059 125.793Z" fill="white"/>
<path d="M468.515 346.978C474.01 340.649 478.678 335.273 483.521 329.695C484.914 332.555 482.191 336.894 487.186 338.264C484.478 351.154 480.023 357.746 468.515 346.978Z" fill="black"/>
<path d="M677.459 382.134C675.113 380.938 673.418 380.074 671.446 379.069C677.275 369.901 682.648 360.65 686.345 350.539C690.5 352.504 690.762 352.925 689.681 356.574C687.049 365.817 683.793 374.662 677.459 382.134Z" fill="white"/>
<path d="M457.568 176.629C455.883 185.322 454.217 193.915 452.487 202.843C444.264 196.563 444.251 176.701 457.568 176.629Z" fill="white"/>
<path d="M645.316 304.374C640.528 301.75 635.939 299.236 631.114 296.591C635.813 289.09 638.656 293.361 644.555 296.586C648.299 299.225 648.303 299.87 645.316 304.374Z" fill="white"/>
<path d="M117.959 301.767C122.59 289.875 118.484 283.048 103.875 280.138C110.838 269.677 117.84 258.607 128.301 251.28C134.344 246.236 141.052 251.278 146.306 255.037C154.279 261.319 162.172 267.703 170.418 274.31C160.17 281.006 154.794 293.164 155.269 305.181C155.497 317.289 165.174 323.276 175.578 326.667C173.849 344.686 185.932 353.259 203.09 352.188C200.701 355.536 198.592 358.49 196.247 361.777C180.542 348.797 158.575 357.656 151.1 375.129C150.291 374.549 149.801 374.198 149.161 373.739C159.588 359.854 163.797 336.021 144.353 328.097C129.895 321.43 147.366 310.701 117.959 301.767Z" fill="white"/>
<path d="M142.133 369.083C127.402 359.516 113.334 350.068 99.0109 340.077C90.4729 333.164 73.9409 321.542 83.3649 309.595C87.8129 302.829 92.5329 296.243 96.9969 289.488C99.8859 284.775 105.606 288.131 109.504 289.436C113.809 291.138 112.47 295.419 110.716 298.671C105.553 313.07 130.997 308.13 129.983 321.858C129.171 330.279 134.188 332.622 141.031 335.322C155.582 341.791 149.876 359 142.133 369.083Z" fill="white"/>
<path d="M175.896 278.367C185.472 285.739 195.317 293.051 204.787 300.667C206.397 301.921 208.013 303.018 208.558 305.289C211.657 310.106 218.226 312.192 222.133 316.423C224.554 318.908 224.658 319.843 222.803 322.818C219.334 328.381 215.708 333.847 212.329 339.463C210.263 342.896 207.037 344.246 203.449 344.792C190.057 346.087 181.709 341.037 183.177 326.676C183.345 320.88 177.686 319.177 173.222 317.52C154.334 309.927 165.263 288.554 175.896 278.367Z" fill="white"/>
<path d="M191.715 367.866C185.669 374.404 174.283 391.932 164.427 384.299C162.564 382.759 160.449 381.524 158.503 380.19C162.492 367.214 176.76 357.965 191.715 367.866Z" fill="white"/>
<path d="M677.287 835.46C678.956 832.243 681.844 830.425 684.135 828.054C685.939 826.226 687.03 823.621 689.083 822.027C706.173 810.574 724.034 798.66 740.847 787.369C744.08 788.615 746.778 789.655 749.797 790.818C735.693 803.048 719.854 813.337 706.144 825.988C703.176 829.283 706.28 834.351 710.337 833.248C718.568 831.035 725.174 828.408 733.897 825.54C729.219 833.151 723.037 838.971 719.639 847.155C717.607 854.01 725.575 854.637 730.021 852.247C740.618 847.274 750.903 841.845 759.711 833.861C765.124 828.954 771.195 824.773 776.961 820.255C778.704 818.889 780.723 818.688 782.812 818.831C791.739 820.113 806.871 820.913 799.455 807.542C797.583 803.823 793.76 801.134 797.863 797.466C801.105 793.65 804.679 790.117 808.078 786.432C808.983 785.451 809.961 785.295 811.202 785.649C817.378 787.406 823.572 789.101 829.746 790.862C848.372 796.119 766.556 839.751 760.285 845.35C753.424 849.655 746.548 853.94 739.775 858.381C717.224 872.14 693.562 849.631 677.287 835.46Z" fill="white"/>
<path d="M729.478 843.868C734.516 836.304 741.488 830.134 746.31 822.473C749.752 809.756 732.256 818.48 726.638 819.943C726.505 819.707 726.371 819.47 726.238 819.234C734.676 812.22 743.589 805.785 752.208 798.992C762.762 792.237 762.153 785.569 749.764 782.017C755.357 777.681 760.853 774.534 767.952 776.016C778.926 778.36 789.148 780.066 800.151 782.987C795.002 789.845 783.045 797.769 790.12 807.009C791.201 808.374 791.991 809.968 793.322 812.118C784.595 811.459 776.875 809.402 770.099 816.087C757.772 827 745.151 837.567 730.222 844.572C729.974 844.337 729.726 844.102 729.478 843.868Z" fill="white"/>
<path d="M872.34 157.042C868.372 140.609 864.228 124.218 860.212 107.797C855.048 86.0361 824.744 113.602 814.378 118.875C808.623 123.795 807.629 119.553 805.431 114.462C804.135 110.97 803.093 107.384 801.787 103.896C798.617 93.8301 788.758 101.02 783.2 104.86C778.846 107.785 774.595 110.864 769.654 113.515C773.789 99.2101 780.398 85.6371 785.791 71.7911C793.351 39.9551 864.555 68.2951 886.485 73.3251C894.795 75.6521 893.69 77.2221 893.363 84.8151C894.92 87.7981 893.28 90.2271 892.224 92.7851C883.819 113.619 879.494 135.737 873.06 157.175C872.82 157.13 872.58 157.086 872.34 157.042ZM810.985 84.9061C810.806 102.462 835.5 98.6601 834.531 82.8861C832.634 67.7401 811.441 69.3041 810.985 84.9061Z" fill="white"/>
<path d="M766.596 124.312C777.624 119.884 784.504 112.957 794.462 106.972C797.892 116.697 802.633 135.539 816.196 126.813C828.155 120.04 838.543 109.493 852.34 106.777C857.077 125.703 862.594 144.094 867.101 162.842C850.99 166.494 835.507 160.101 820.141 156.29C804.186 151.82 788.113 147.777 772.17 143.269C763.297 141.243 766.246 130.443 766.596 124.312Z" fill="white"/>
<path d="M500.522 873.907C495.328 874.294 490.073 874.415 484.945 875.37C483.397 875.683 482.587 876.864 482.675 878.504C482.823 881.496 486.203 881.528 488.461 881.451C493.471 881.264 498.476 880.964 503.487 880.815C505.946 880.742 508.054 880.126 509.446 877.898C518.633 881.627 528.592 886.834 536.418 877.708C539.149 874.65 542.424 873.101 546.607 873.871C550.132 874.395 553.329 871.281 550.776 868.009C550.18 867.396 549.825 867.253 549.425 866.315C551.132 864.908 552.874 863.473 554.932 861.776C558.477 871.137 569.54 890.844 553.128 892.345C525.595 894.573 497.938 895.197 470.361 896.816C449.028 897.339 427.343 901.464 406.176 897.546C402.913 896.601 402.294 895.478 404.049 892.527C411.356 880.655 418.27 868.352 428.478 858.645C434.058 864.226 439.674 869.274 445.656 874.326C450.266 878.118 455.006 878.165 460.167 874.803C465.425 871.377 471.064 868.526 476.597 865.536C480.483 863.436 484.249 863.325 488.176 865.952C492.178 868.629 496.527 870.786 500.724 873.17C500.657 873.416 500.59 873.662 500.522 873.907ZM446.512 891.208C456.075 890.152 465.644 889.138 475.21 888.109C477.764 887.494 482.729 888.81 483.011 885.099C483.005 882.964 480.668 882.481 478.956 882.558C467.966 883.483 456.974 884.39 445.991 885.389C441.46 885.871 441.962 891.368 446.512 891.208ZM424.57 880.874C431.601 881.977 433.022 874.051 426.14 873.924C424.235 874.041 422.332 874.313 420.449 874.635C417.279 874.841 416.996 879.747 420.169 880.197C421.78 880.554 423.438 880.707 424.57 880.874Z" fill="white"/>
<path d="M550.34 848.447C551.067 850.664 551.737 852.709 552.438 854.847C545.65 861.294 537.878 866.706 531.001 873.087C527.979 875.785 525.001 876.419 521.517 874.893C510.718 870.374 500.301 865.061 490.488 858.664C486.233 855.985 481.92 855.609 477.228 857.222C450.962 866.077 458.856 879.547 435.538 854.425C452.09 849.116 469.271 850.774 486.318 849.165C507.669 848.685 528.995 846.863 550.34 848.447Z" fill="white"/>
<path d="M371.414 139.401C363.948 136.767 355.02 131.099 349.197 139.291C343.191 146.672 342.706 159.332 330.889 159.417C321.148 160.135 311.465 161.17 301.75 163.938C300.922 160.039 300.895 156.35 303.084 153.163C314.782 136.342 331.677 118.206 353.774 118.456C365.392 118.774 375.944 126.258 371.414 139.401Z" fill="white"/>
<path d="M307.665 205.409C305.869 194.157 304.072 182.905 302.251 171.501C312.748 167.623 323.45 167.556 334.178 165.62C353.18 163.319 347.624 137.054 361.935 141.758C365.007 142.581 368.047 143.521 371.644 144.567C370.634 153.152 369.603 161.906 368.534 170.988C343.03 166.375 322.173 186.511 308.675 205.764C308.339 205.645 308.002 205.527 307.665 205.409Z" fill="white"/>
<path d="M181.395 671.804C176.226 666.71 166.484 663.12 170.016 654.848C175.842 642.197 182.233 629.878 191.792 619.527C194.217 616.938 197.304 614.118 201.096 615.778C205.88 617.638 210.69 619.434 216.611 621.682C211.216 624.062 209.692 629.376 210.024 634.723C211.105 648.053 189.289 641.053 185.367 658.119C183.863 662.918 183.001 666.847 181.395 671.804Z" fill="white"/>
<path d="M188.694 675.487C191.199 667.147 189.94 655.981 199.273 652.422C202.293 651.352 205.314 650.23 208.198 648.848C223.694 641.776 209.517 629.015 222.945 625.793C226.762 628.162 232.087 630.472 230.44 635.902C225.025 648.988 217.562 661.37 209.453 673.02C202.125 683.428 198.478 680.639 188.694 675.487Z" fill="white"/>
<path d="M797.944 483.892C798.342 489.432 807.385 488.697 811.38 492.009C821.893 499.151 833.812 491.466 845.283 493.689C854.757 494.143 845.289 505.539 851.332 509.617C849.614 511.803 847.976 513.888 846.31 516.007C828.494 512.261 810.327 510.397 793.657 502.881C781.107 498.819 793.163 490.135 797.16 483.789C797.422 483.823 797.683 483.858 797.944 483.892Z" fill="white"/>
<path d="M856.008 502.383C857.66 485.999 848.281 487.295 835.482 487.333C828.386 487.49 820.914 490.923 814.548 486.214C809.844 483.352 805.582 481.625 799.877 480.875C804.199 476.494 808.199 472.038 813.688 469.304C823.031 465.946 852.621 477.355 863.538 480.447C866.887 481.599 872.436 483.809 869.016 488.007C864.885 492.904 860.752 497.8 856.619 502.695C856.415 502.592 856.211 502.487 856.008 502.383Z" fill="white"/>
<path d="M506.162 172.297C516.952 175.357 527.705 177.652 536.26 185.168C537.248 186.049 539.013 186.911 538.151 188.533C536.807 191.539 530.047 186.522 527.693 186.011C520.288 183.118 513.061 179.701 505.424 177.462C501.627 176.426 503.711 173.829 506.162 172.297Z" fill="black"/>
<path d="M518.828 190.672C523.503 191.16 528.276 194.927 529.48 199.379C530.678 202.414 526.147 204.59 524.682 201.635C520.035 189.662 513.625 201.351 511.115 196.655C509.637 192.336 516.168 192.022 518.828 190.672Z" fill="black"/>
<path d="M556.187 208.962C561.639 208.882 566.645 212.975 567.543 217.757C567.782 219.027 567.52 220.079 566.256 220.615C564.989 221.152 563.986 220.645 563.333 219.53C561.404 214.04 557.666 211.909 552.487 215.097C549.94 215.21 548.855 213.903 550.237 211.718C551.913 209.809 554.236 209.067 556.187 208.962Z" fill="black"/>
<path d="M518.943 278.855C512.905 280.32 508.11 279.079 503.996 275.568C502.461 274.258 500.632 272.609 502.006 269.812C505.604 269.927 507.261 273.209 509.988 274.611C512.683 275.996 515.463 277.215 518.943 278.855Z" fill="black"/>
<path d="M810.987 84.9068C811.439 69.3048 832.639 67.7428 834.531 82.8878C835.499 98.6668 810.8 102.458 810.987 84.9068ZM823.251 90.1358C824.448 88.9628 825.893 87.8828 826.893 86.4838C829.522 83.1448 825.425 78.2858 821.88 79.5768C817.009 81.7398 817.747 88.5138 823.251 90.1358Z" fill="black"/>
<path d="M446.512 891.207C441.973 891.367 441.449 885.871 445.992 885.39C456.975 884.39 467.967 883.483 478.957 882.559C480.671 882.481 483.004 882.965 483.012 885.099C482.737 888.811 477.755 887.493 475.211 888.109C465.644 889.137 456.076 890.152 446.512 891.207Z" fill="black"/>
<path d="M424.57 880.872C422.63 880.422 417.806 880.873 417.896 877.497C417.903 875.832 418.903 874.898 420.449 874.634C422.333 874.312 424.235 874.039 426.14 873.922C433.021 874.048 431.601 881.975 424.57 880.872Z" fill="black"/>
<path d="M823.251 90.1388C817.747 88.5178 817.008 81.7408 821.88 79.5798C825.425 78.2908 829.523 83.1478 826.893 86.4878C825.894 87.8858 824.449 88.9668 823.251 90.1388Z" fill="white"/>
</svg>
