<svg width="960" height="960" viewBox="0 0 960 960" fill="none" xmlns="http://www.w3.org/2000/svg">
<path d="M578.652 919.137C570.631 918.539 562.603 917.986 554.567 917.647C552.198 917.554 550.734 916.73 549.984 914.277C546.228 904.404 547.787 893.544 544.029 883.755C542.948 881.392 541.584 879.146 540.658 876.728C509.076 805.466 497.2 728.257 474.206 654.363C473.94 654.369 473.674 654.374 473.408 654.38C467.063 715.174 471.183 776.772 463.508 837.576C462.688 847.463 461.969 857.361 461.38 867.264C460.867 875.905 460.491 878.014 457.568 883.28C463.558 886.037 461.527 893.349 460.971 898.483C459.692 907.053 451.105 909.945 443.539 910.714C426.949 911.46 405.341 917.812 389.79 911.966C383.799 908.969 386.355 901.65 391.1 898.763C400.183 892.21 408.95 885.894 419.318 881.306C402.026 835.744 391.251 787.583 388.776 738.841C382.976 677.293 388.576 614.833 410.559 556.745C405.247 553.504 400.037 554.784 398.76 547.631C390.509 506.309 396.117 463.296 407.354 423.078C337.202 420.949 298.994 391.757 308.814 317.713C314.184 276.314 326.863 273.835 311.154 229.862C296.101 229.039 280.942 230.005 265.452 230.652C263.427 246.294 263.224 355.941 245.001 352.305C221.657 354.696 212.239 362.97 210.794 332.531C192.57 335.078 191.392 332.017 188.29 314.771C180.008 316.443 168.616 317.669 166.518 307.107C161.565 284.461 162.277 261.062 161.262 238.042C148.938 240.079 150.307 226.571 161.341 227.442C162.018 208.895 160.796 189.451 167.685 171.902C170.721 165.613 178.312 167.318 184.24 166.029C187.003 156.49 188.131 139.68 201.102 139.617C204.031 139.565 206.946 138.813 210.017 138.354C212.318 119.541 217.864 117.071 235.744 115.674C237.776 115.466 240.045 116.745 242.062 116.758C245.785 115.882 248.561 117.536 250.276 120.461C264.728 148.389 263.084 190.516 263.727 221.784C279.892 223.085 295.622 219.998 311.642 220.678C312.443 216.402 314.597 212.652 316.411 208.755C318.169 205.735 325.749 203.294 329.076 201.709C332.325 200.555 336.328 203.434 339.574 201.591C343.204 199.496 346.937 199.733 350.656 201.36C356.872 204.308 362.091 191.943 373.714 206.418C382.688 204.774 385.719 206.32 388.515 213.601C456.562 208.69 524.931 205.393 592.782 206.229C596.615 200.619 599.358 198.386 605.728 196.698C612.619 188.721 621.432 179.651 633.037 187.682C640.256 183.53 645.901 189.718 648.834 187.061C654.334 182.023 660.19 183.054 666.021 186.289C673.367 190.231 674.693 197.649 673.233 205.323C681.843 205.706 690.194 205.243 698.724 205.083C702.515 166.222 700.743 125.749 712.898 88.269C714.951 83.218 718.506 83.946 723.156 83.258C746.274 79.97 753.042 75.845 754.316 103.67C771.882 100.76 774.204 104.826 776.615 121.511C786.096 119.595 796.907 119.072 798.769 130.806C802.826 153.067 802.708 175.852 802.887 198.426C815.322 196.336 814.23 209.918 802.981 209.023C801.358 227.75 803.617 247.899 795.673 265.357C792.368 270.778 785.293 269.046 779.73 270.258C776.35 279.755 776.098 295.869 763.012 296.549C759.945 296.668 756.899 297.293 753.627 297.721C750.746 317.239 745.722 318.895 727.089 320.288C713.871 319.823 712.374 316.038 708.209 304.293C700.36 274.873 700.71 243.968 700.524 213.709C698.439 213.545 696.144 214.087 694.506 213.436C692.972 211.193 690.753 211.948 688.779 212.002C682.958 212.16 677.141 212.472 671.009 212.737C666.042 227.842 653.493 240.849 655.258 257.726C654.819 275.475 653.706 293.16 651.708 310.805C650.326 334.995 647.998 359.098 638.543 381.741C625.372 417.112 579.317 426.684 545.817 428.909C555.433 459.847 555.865 492.246 559.314 524.255C559.923 537.026 564.453 549.991 561.257 562.674C560.968 566.494 563.419 570.287 564.368 573.965C567.766 583.982 568.176 594.14 565.661 604.397C563.693 617.706 565.966 631.416 565.949 644.848C568.271 716.141 589.912 784.466 602.777 854.171C604.387 863.885 604.772 873.685 601.945 883.369C610.131 886.805 645.501 905.357 630.02 915.564C616.861 922.51 594.138 917.87 578.652 919.137ZM536.912 297.779L536.823 297.773C540.459 302.968 533.97 308.37 532.29 313.479C536.572 314.224 541.501 309.352 543.43 305.768C546.56 300.47 542.033 295.739 539.131 291.563L539.017 291.681C542.061 289.201 542.061 289.201 546.393 291.988C561.287 250.721 499.831 215.813 468.196 241.783C452.732 252.878 432.751 296.492 446.425 313.177C450.834 310.202 454.932 309.153 460.084 309.504C465.76 295.049 471.498 280.436 477.417 265.362C471.536 263.837 466.077 262.807 460.204 261.666C457.322 261.158 457.793 258.678 460.3 257.872C467.613 256.672 474.902 258.523 481.774 260.874C485.373 261.773 484.361 265.046 483.186 267.572C476.602 282.351 470.805 297.492 463.69 312.021C464.596 312.372 464.963 312.479 465.788 312.377C474.565 310.485 478.83 319.655 483.796 325.087C489.114 331.636 502.327 326.875 507.407 321.54C511.737 317.182 515.512 312.49 517.913 306.794C520.175 301.424 529.661 295.236 536.912 297.779ZM416.525 557.93C382.322 649.46 386.152 751.965 413.4 844.806C416.94 856.034 421.162 867.046 424.916 878.21C425.817 880.89 427.322 881.947 430.057 881.921C450.544 881.363 455.446 887.071 455.758 862.236C457.074 832.602 461.619 803.245 462.062 773.55C465.042 726.887 463.083 679.958 468.528 633.477C468.86 630.256 471.442 629.096 474.117 630.927C476.63 632.888 476.38 636.516 477.189 639.335C502.068 720.381 513.67 805.752 550.724 882.767C562.37 882.979 573.566 883.769 585.118 884.055C598.78 884.948 596.183 868.483 595.173 859.485C592.018 842.794 588.516 826.164 584.861 809.574C571.892 754.671 559.179 699.428 557.815 642.766C557.7 623.186 556.032 603.791 556.146 584.219C556.567 580.379 554.825 576.304 554.005 572.003C547.17 575.931 540.144 576.608 533.036 576.276C493.307 574.965 455.259 566.365 416.525 557.93ZM592.263 215.343C524.72 213.434 457.009 218.029 389.783 224.186C383.45 225.209 380.711 230.742 376.552 234.848C369.012 244.942 367.053 258.354 367.536 270.557C372.242 296.863 372.461 324.509 363.463 349.858C383.324 343.921 403.037 342.884 422.551 350.383C425.782 351.557 428.853 352.422 432.302 351.658C437.012 351.637 441.521 351.867 446.245 350.513C420.971 305.913 442.034 215.903 505.634 228.206C539.52 233.606 565.831 268.108 549.247 301.211C548.954 306.624 546.879 311.134 542.298 314.102C540.099 315.526 538.679 317.373 537.446 319.537C529.488 330.88 520.29 341.215 512.116 352.427C517.578 354.779 536.199 354.877 537.74 359.244C556.303 356.764 571.949 354.343 590.171 359.796C591.204 328.051 612.69 301.614 618.293 270.831C620.142 260.379 622.396 255.746 613.896 247.312C602.619 237.49 592.133 232.173 592.263 215.343ZM451.761 357.943C446.895 355.902 445.199 361.463 442.938 364.464C431.628 384.8 421.203 405.778 413.178 427.627C404.002 462.207 399.915 498.44 404.335 534.078C404.268 541.074 432.068 544.048 438.263 546.034C455.038 550.258 472.251 551.39 489.391 553.198C506.265 555.445 523.285 555.726 540.228 553.979C545.131 553.529 550.087 553.145 554.965 550.918C551.183 518.687 549.828 486.173 544.842 454.115C539.527 428.811 530.462 403.55 531.933 377.405C532.27 372.536 533.145 367.721 530.525 363.011C529.002 362.789 527.236 362.533 525.326 362.255C526.127 394.047 517.587 453.941 474.509 448.811C454.442 444.811 436.562 427.64 439.925 406.117C441.026 396.54 443.338 387.1 445.153 377.608C445.18 372.323 449.882 368.972 449.269 363.667C449.604 361.704 450.967 360.156 451.761 357.943ZM369.917 231.248C367.509 232.577 364.628 233.619 363.4 231.654C360.978 228.133 368.141 226.506 367.616 221.049C367.902 212.642 369.951 200.038 357.081 206.836C349.265 212.245 348.565 204.13 343.059 206.072C333.038 214.003 332.181 203.452 326.13 209.25C305.275 224.561 334.615 245.144 323.611 280.646C309.148 333.409 303.114 393.663 367.378 412.43C381.302 415.032 395.94 415.039 409.976 415.868C416.91 399.796 423.771 383.171 434.639 369.398C435.888 368.176 436.406 366.65 435.255 365.451C428.194 357.528 416.64 353.262 406.008 353.495C399.773 352.806 393.444 352.272 387.207 351.545C385.518 351.521 383.641 351.388 382.173 352.04C379.166 353.373 375.539 353.177 373.035 355.724C363.527 356.319 354.795 360.751 345.602 363.131C339.911 364.409 340.396 358.144 344.882 356.469C347.806 354.476 356.674 352.209 357.528 349.355C361.129 339.128 363.072 328.562 363.773 317.759C364.886 304.242 364.67 290.742 362.22 277.354C361.022 270.806 359.213 264.409 360.435 257.557C361.879 248.006 364.312 239.361 369.917 231.248ZM599.759 215.64C599.244 222.586 602.152 228.557 607.812 232.61C613.076 236.365 617.997 240.516 622.13 245.551C622.644 246.178 623.731 246.493 624.604 246.637C628.097 246.879 628.187 249.588 627.548 252.412C625.418 261.69 623.692 271.06 622.646 280.469C612.986 307.414 599.743 332.737 593.805 360.882C595.188 361.581 596.981 362.006 598.441 362.62C603.287 364.429 601.496 370.105 596.479 368.47C592.586 367.237 588.727 365.801 584.767 364.814C570.101 360.872 554.646 363.943 539.851 365.803C536.603 385.154 540.077 403.407 544.522 421.632C555.023 421.723 565.525 422.059 574.81 417.249C582.321 420.532 607.572 407.716 614.515 402.82C631.489 391.567 637.184 369.838 641.115 350.96C645.399 319.85 649.511 288.432 649.228 256.978C648.999 252.113 648.981 247.551 650.397 242.747C652.07 230.472 676.769 200.256 662.554 192.05C658.563 189.752 656.271 189.952 652.144 193.256C647.469 197.661 641.816 191.66 636.632 193.898C629.971 197.344 628.208 189.837 622.009 191.749C611.279 194.821 607.141 211.343 616.511 218.444C620.115 220.88 616.214 226.114 612.896 223.769C610.112 221.608 607.334 218.889 605.85 215.64C603.777 215.64 601.941 215.64 599.759 215.64ZM243.669 122.638C228.242 159.516 230.713 308.595 245.941 345.132C247.583 342.658 248.203 340.059 248.819 337.281C254.978 302.219 257.34 266.703 258.329 231.177C253.681 231.549 246.173 235.154 247.019 227.739C246.751 224.059 247.584 223.147 251.214 222.924C253.517 222.783 255.812 222.495 258.308 222.254C257.67 202.884 256.887 133.994 243.669 122.638ZM726.756 88.638C736.539 127.843 736.864 168.491 737.576 208.682C736.937 243.775 736.979 279.47 727.385 313.449C733.841 312.071 742.9 313.499 745.108 305.817C753.219 257.77 755.59 208.498 752.274 159.841C750.127 136.585 749.785 112.938 745.903 89.933C745.423 88.301 744.215 87.065 742.339 87.213C737.185 87.62 732.041 88.146 726.756 88.638ZM238.464 347.248C228.653 309.393 227.851 269.83 226.702 230.922C227.032 194.632 226.348 157.615 236.239 122.391C229.912 123.994 221.196 122.403 218.728 129.595C211.172 172.061 209.98 215.817 211.461 258.912C213.025 287.695 214.54 316.715 218.953 345.201C219.848 348.234 220.973 349.047 224.109 348.788C228.793 348.401 233.458 347.796 238.464 347.248ZM209.399 144.879C202.785 146.32 196.531 145.106 194.788 152.955C186.91 181.336 186.785 211.183 187.196 240.427C188.176 268.545 191.087 296.633 197.489 324.07C198.754 328.86 206.316 325.203 210.104 325.437C202.697 264.872 202.27 205.358 209.399 144.879ZM754.947 110.707C761.908 171.191 761.824 230.969 754.288 291.274C760.192 289.865 766.884 291.113 768.584 284.151C782.363 232.083 778.449 176.347 769.869 123.661C766.549 109.869 770.885 108.211 754.947 110.707ZM455.817 390.828C454.424 396.356 454.358 401.976 454.862 407.705C455.762 425.238 478.089 443.166 492.448 427.355C505.755 413.148 509.032 393.093 511.427 374.444C507.331 375.009 506.563 374.512 505.638 371.115C504.783 367.972 503.934 364.826 502.987 361.328C500.909 362.963 499.011 364.037 497.676 365.594C488.982 375.011 474.546 376.461 463.88 369.473C462.117 375.048 461.297 380.829 459.929 386.51C459.182 389.975 459.199 389.978 455.817 390.828ZM706.152 204.465C708.456 204.157 710.717 204.14 712.788 203.506C715.417 202.701 716.758 205.34 718.973 205.351C722.789 205.37 726.605 205.356 730.5 205.356C731.301 169.17 728.363 132.68 722.198 96.98C721.809 94.872 721.142 92.705 719.234 90.745C717.169 93.851 716.449 97.104 715.872 100.311C709.626 134.699 706.708 169.52 706.152 204.465ZM705.956 213.594C706.553 235.192 706.029 298.509 719.702 313.28C730.775 281.274 730.215 246.387 730.595 212.865C726.163 211.558 720.127 211.736 705.956 213.594ZM183.353 172.18C174.667 172.551 173.216 173.713 171.584 181.527C165.566 217.827 168.261 255.167 170.782 291.719C171.222 296.143 172.168 300.524 173.03 304.895C174.085 311.344 182.556 308.684 186.938 307.697C179.415 262.451 178.069 217.723 183.353 172.18ZM777.845 128.233C785.157 173.771 786.219 218.816 780.489 263.828C781.06 264.083 781.283 264.277 781.492 264.263C789.237 263.737 790.653 262.445 792.37 254.786C798.871 217.554 796.23 179.195 793.724 141.657C790.92 127.275 793.644 126.316 777.845 128.233ZM557.303 912.604C579.048 913.069 601.222 915.395 622.832 913.031C637.515 908.915 613.139 896.541 608.968 892.542C593.687 882.355 598.628 890.336 583.803 889.723C573.157 889.375 563.077 888.611 552.322 888.78C553.51 897.052 554.372 904.892 557.303 912.604ZM392.596 907.866C408.157 910.683 424.071 906.903 439.67 905.647C453.044 905.1 457.245 898.485 454.541 885.573C441.947 890.076 427.177 882.425 416.006 888.722C408.918 893.258 402.04 898.127 395.147 902.96C393.76 903.934 392.6 905.315 392.596 907.866ZM406.028 543.354C406.367 551.076 428.001 551.987 434.278 553.99C444.304 556.254 454.21 559.13 464.307 560.982C487.103 565.011 510.177 567.587 533.27 569.219C542.178 569.88 555.153 567.8 554.906 556.381C532.779 561.454 510.005 560.676 487.615 557.966C459.988 556.121 432.537 550.421 406.028 543.354ZM455.465 362.933C455.067 362.906 454.67 362.88 454.272 362.853C449.984 373.036 448.599 384.073 446.171 394.785C442.337 409.545 443.156 426.211 456.84 435.48C475.621 449.445 495.009 447.624 507.594 427.093C516.987 408.552 522.065 384.477 520.571 363.711C520.385 361.432 520.36 361.434 517.51 361.583C520.73 387.987 506.118 452.974 468.668 437.67C445.427 427.201 443.923 398.877 452.129 377.67C453.452 372.809 456.32 368.089 455.465 362.933ZM450.459 327.897C450.385 334.743 455.499 338.071 461.256 334.923C464.681 333.05 464.628 333.095 467.214 336.154C470.016 340.274 476.41 343.774 478.217 336.845C479.7 328.495 464.382 323.734 458.283 321.498C454.025 320.136 450.508 323.377 450.459 327.897ZM373.846 216.467C377.034 216.123 379.629 215.843 382.281 215.556C381.578 212.523 380.816 211.642 379.039 212.032C377.392 212.393 375.783 213.072 374.283 213.853C373.916 214.044 374.037 215.177 373.846 216.467ZM508.468 358.842C508.053 362.222 509.522 366.949 511.681 369.037C510.632 365.78 512.731 361.544 508.468 358.842ZM373.401 224.636C372.88 225.926 372.449 226.991 371.831 228.52C374.051 227.384 375.76 226.509 377.47 225.634C377.413 225.402 377.356 225.169 377.299 224.937C376.159 224.849 375.018 224.761 373.401 224.636ZM600.447 207.54C602.357 207.54 603.352 207.54 604.59 207.54C604.467 206.384 604.374 205.51 604.204 203.916C602.805 205.264 601.925 206.114 600.447 207.54Z" fill="black"/>
<path d="M96.19 240.091C97.995 237.162 100.69 236.201 104.029 236.193C107.987 236.821 116.948 233.241 118.324 238.247C119.562 244.269 104.549 243.173 100.585 243.747C99.134 243.767 97.656 241.86 96.191 240.835C96.19 240.588 96.19 240.34 96.19 240.091Z" fill="black"/>
<path d="M863.81 185.741C860.318 189.324 851.541 189.646 846.515 191.12C842.425 191.735 841.225 186.32 844.57 184.818C849.995 182.418 858.474 179.155 863.81 182.763C863.81 183.755 863.81 184.748 863.81 185.741Z" fill="black"/>
<path d="M747.472 350.69C746.964 345.817 753.246 344.842 754.213 349.742C754.769 352.02 755.106 354.354 755.486 356.673C756.748 364.36 758.063 372.041 759.172 379.75C759.405 381.37 759.209 383.257 758.574 384.75C756.938 388.842 752.413 385.807 752.045 382.572C750.476 372.054 749.01 361.519 747.472 350.69Z" fill="black"/>
<path d="M145.262 381.581C149.856 372.648 157.196 364.559 163.262 356.477C166.531 353.557 170.905 356.664 168.566 360.636C163.605 367.898 158.463 375.06 153.366 382.235C151.381 385.982 145.578 387.599 145.262 381.581Z" fill="black"/>
<path d="M167.403 125.254C162.129 123.333 158.494 119.518 154.016 116.392C149.814 113.185 145.294 110.302 141.166 107.028C137.806 102.783 143.639 99.3866 147.24 102.457C154.94 107.214 161.828 113.023 168.637 118.952C171.758 121.453 170.743 123.671 167.403 125.254Z" fill="black"/>
<path d="M221.343 409.415C222.019 405.189 218.933 393.047 225.611 393.439C227.142 393.604 228.073 394.547 228.505 395.942C229.059 404.012 228.169 412.239 228.045 420.349C227.895 423.682 226.131 425.585 223.829 425.415C217.848 424.439 221.395 413.879 220.979 409.415C221.101 409.414 221.222 409.415 221.343 409.415Z" fill="black"/>
<path d="M833.66 312.388C827.73 309.837 822.811 304.534 817.444 300.834C816.081 299.755 815.765 298.118 816.758 296.481C820.169 290.737 830.683 302.483 834.573 304.577C837.936 306.639 839.199 312.409 833.66 312.388Z" fill="black"/>
<path d="M228.51 86.7554C228.847 90.1704 224.338 91.9234 222.807 88.7264C221.828 86.8764 220.962 84.9524 220.213 82.9964C219.191 78.4844 213.445 70.5554 218.688 67.2494C220.569 66.1774 222.625 68.1084 223.217 69.9024C224.943 75.5044 227.122 81.0734 228.51 86.7554Z" fill="black"/>
<path d="M805.506 89.7369C807.178 84.6099 810.529 81.1219 813.318 76.6999C814.611 74.9959 817.061 73.4199 819.049 75.0219C823.304 78.7909 813.944 86.5879 812.053 90.2909C811.201 91.9889 808.782 92.8839 807.192 92.4189C806.34 92.0349 805.981 90.5599 805.506 89.7369Z" fill="black"/>
<path d="M728.323 45.5018C727.35 40.4448 733.865 38.1908 734.899 43.7158C735.282 46.5338 735.439 49.3828 735.724 52.2158C735.845 55.3088 738.093 61.6768 733.652 62.2538C728.553 63.1808 729.349 49.1558 728.199 45.5208C728.24 45.5148 728.281 45.5088 728.323 45.5018Z" fill="black"/>
<path d="M416.525 557.934C455.254 566.369 493.313 574.97 533.037 576.28C540.145 576.614 547.17 575.936 554.006 572.008C554.827 576.309 556.568 580.384 556.149 584.224C556.033 603.794 557.701 623.192 557.813 642.771C559.18 699.435 571.894 754.675 584.864 809.579C588.518 826.169 592.019 842.8 595.174 859.49C596.191 868.519 598.776 884.928 585.12 884.059C573.567 883.772 562.373 882.981 550.726 882.771C513.671 805.752 502.071 720.387 477.192 639.338C476.385 636.51 476.632 632.882 474.119 630.93C471.444 629.098 468.862 630.259 468.531 633.48C463.085 679.961 465.044 726.889 462.063 773.553C461.62 803.248 457.075 832.605 455.759 862.239C455.404 886.948 450.766 881.417 430.058 881.924C427.324 881.951 425.819 880.893 424.918 878.213C421.164 867.049 416.943 856.037 413.403 844.809C386.151 751.967 382.322 649.467 416.525 557.934Z" fill="black"/>
<path d="M451.761 357.946C450.964 360.149 449.598 361.703 449.267 363.671C449.88 368.972 445.178 372.328 445.153 377.612C443.337 387.104 441.025 396.544 439.923 406.121C436.559 427.64 454.441 444.821 474.507 448.815C517.595 453.934 526.114 394.077 525.324 362.259C527.234 362.537 529 362.794 530.523 363.015C533.143 367.725 532.269 372.54 531.932 377.409C530.461 403.553 539.525 428.816 544.838 454.119C549.826 486.176 551.181 518.691 554.963 550.922C550.085 553.149 545.129 553.533 540.226 553.983C523.282 555.728 506.264 555.45 489.389 553.201C472.249 551.393 455.036 550.262 438.262 546.036C432.04 544.088 404.25 541.014 404.333 534.082C399.913 498.444 404 462.209 413.177 427.63C421.203 405.78 431.627 384.804 442.938 364.467C445.199 361.438 446.896 355.939 451.761 357.946Z" fill="white"/>
<path d="M369.917 231.252C364.313 239.364 361.876 248.004 360.437 257.562C359.214 264.414 361.023 270.81 362.221 277.358C364.671 290.746 364.888 304.246 363.775 317.763C363.074 328.567 361.13 339.132 357.529 349.359C356.615 352.249 347.879 354.443 344.884 356.474C340.459 358.123 339.837 364.394 345.604 363.136C354.796 360.755 363.53 356.323 373.037 355.728C375.541 353.181 379.168 353.378 382.175 352.044C383.643 351.393 385.521 351.525 387.209 351.55C393.446 352.276 399.775 352.811 406.01 353.5C416.665 353.275 428.171 357.52 435.257 365.455C436.407 366.655 435.89 368.181 434.641 369.403C423.771 383.179 416.909 399.795 409.977 415.873C395.941 415.045 381.303 415.036 367.378 412.437C303.082 393.612 309.161 333.463 323.613 280.65C334.623 245.113 305.267 224.623 326.13 209.256C332.131 203.46 333.069 213.999 343.059 206.078C348.514 204.123 349.304 212.249 357.082 206.842C369.919 200.081 367.915 212.542 367.617 221.055C368.155 226.453 360.958 228.215 363.401 231.66C364.633 233.617 367.499 232.594 369.917 231.252Z" fill="white"/>
<path d="M599.759 215.642C601.941 215.642 603.777 215.642 605.849 215.642C607.333 218.891 610.111 221.612 612.895 223.771C616.214 226.119 620.113 220.878 616.51 218.446C607.142 211.357 611.275 194.807 622.008 191.751C628.193 189.837 629.977 197.341 636.631 193.899C641.814 191.666 647.468 197.658 652.143 193.257C656.271 189.953 658.562 189.753 662.553 192.051C676.78 200.15 652.042 230.583 650.397 242.748C648.981 247.551 648.999 252.114 649.227 256.979C649.511 288.433 645.398 319.85 641.114 350.961C637.185 369.852 631.488 391.557 614.515 402.82C607.324 407.9 582.361 420.443 574.81 417.25C565.525 422.06 555.022 421.725 544.522 421.633C540.077 403.408 536.604 385.154 539.851 365.803C554.644 363.943 570.103 360.873 584.767 364.814C588.727 365.802 592.585 367.238 596.479 368.47C601.494 370.105 603.289 364.429 598.441 362.62C596.983 362.006 595.189 361.58 593.805 360.881C599.743 332.736 612.986 307.414 622.645 280.468C623.691 271.059 625.418 261.689 627.548 252.411C628.177 249.602 628.104 246.867 624.603 246.637C623.73 246.493 622.644 246.178 622.129 245.551C617.996 240.516 613.076 236.364 607.811 232.61C602.151 228.555 599.245 222.59 599.759 215.642Z" fill="white"/>
<path d="M539.13 291.563C542.032 295.738 546.56 300.471 543.429 305.768C541.498 309.356 536.577 314.22 532.289 313.48C533.968 308.364 540.473 302.969 536.804 297.767C537.441 296.691 539.612 296.993 539.284 295.054C538.966 293.177 537.37 292.834 535.93 292.713C532.921 292.896 523.74 290.741 524.182 295.634C524.712 299.051 532.597 295.005 536.911 297.78C529.66 295.237 520.174 301.425 517.912 306.794C515.511 312.49 511.736 317.182 507.406 321.539C502.347 326.871 489.098 331.633 483.795 325.088C478.828 319.657 474.564 310.484 465.787 312.377C464.968 312.48 464.599 312.373 463.689 312.021C470.804 297.493 476.6 282.351 483.185 267.572C484.353 265.047 485.377 261.772 481.772 260.874C474.902 258.523 467.609 256.671 460.298 257.872C457.806 258.688 457.303 261.146 460.203 261.667C466.078 262.809 471.532 263.838 477.416 265.363C471.497 280.436 465.759 295.05 460.083 309.505C454.929 309.153 450.834 310.202 446.424 313.178C432.743 296.548 452.734 252.86 468.194 241.784C499.828 215.813 561.29 250.724 546.392 291.989C542.06 289.202 542.06 289.202 539.019 291.679C540.018 288.478 539.75 287.588 536.616 286.936C534.258 286.793 526.244 284.884 526.726 288.938C526.858 291.691 536.627 290.835 539.13 291.563ZM487.813 264.638C489.68 267.446 491.881 267.697 493.816 268.073C499.921 269.259 505.832 271.011 511.548 273.448C514.809 275.516 517.189 272.142 513.611 270.262C505.6 266.062 497.034 262.823 487.813 264.638ZM492.844 274.103C491.513 274.601 486.123 275.382 487.964 278.386C490.976 281.659 494.347 273.712 498.098 281.117C498.736 282.156 499.347 283.13 500.678 282.442C501.934 281.793 501.676 280.605 501.337 279.491C500.342 276.223 497.26 274.041 492.844 274.103ZM462.888 266.363C460.864 267.62 456.513 267.64 457.166 270.893C457.272 271.274 458.347 271.458 459.013 271.581C463.338 269.885 465.18 269.122 467.456 273.596C470.823 278.947 473.215 267.414 462.888 266.363Z" fill="white"/>
<path d="M243.669 122.641C256.884 134.016 257.665 202.742 258.306 222.256C255.81 222.497 253.516 222.785 251.212 222.926C247.582 223.148 246.749 224.061 247.017 227.741C246.173 235.157 253.677 231.551 258.327 231.179C257.338 266.706 254.976 302.221 248.817 337.283C248.2 340.065 247.584 342.647 245.94 345.134C230.767 308.752 228.186 159.869 243.669 122.641Z" fill="white"/>
<path d="M726.756 88.6412C732.041 88.1492 737.185 87.6232 742.339 87.2152C744.215 87.0672 745.423 88.3032 745.902 89.9352C749.785 112.94 750.127 136.588 752.275 159.843C755.591 208.5 753.22 257.773 745.109 305.819C742.895 313.514 733.847 312.044 727.385 313.451C736.979 279.473 736.937 243.777 737.575 208.685C736.864 168.491 736.539 127.851 726.756 88.6412Z" fill="white"/>
<path d="M238.464 347.251C233.458 347.8 228.792 348.404 224.109 348.792C220.973 349.051 219.848 348.238 218.954 345.205C214.54 316.719 213.025 287.699 211.461 258.916C209.979 215.821 211.172 172.063 218.727 129.599C221.201 122.382 229.905 124.039 236.239 122.395C226.348 157.618 227.032 194.637 226.703 230.926C227.851 269.835 228.653 309.392 238.464 347.251Z" fill="white"/>
<path d="M209.399 144.879C202.27 205.359 202.697 264.871 210.104 325.438C206.34 325.253 198.703 328.788 197.49 324.072C191.087 296.634 188.177 268.546 187.197 240.429C186.785 211.185 186.912 181.337 194.788 152.956C196.488 145.178 202.809 146.274 209.399 144.879Z" fill="white"/>
<path d="M754.947 110.707C770.791 108.212 766.584 109.839 769.868 123.661C778.449 176.342 782.364 232.086 768.587 284.152C766.888 291.087 760.194 289.887 754.288 291.275C761.824 230.968 761.908 171.192 754.947 110.707Z" fill="white"/>
<path d="M455.817 390.831C459.199 389.981 459.182 389.978 459.928 386.514C461.296 380.832 462.115 375.053 463.878 369.477C474.543 376.466 488.982 375.014 497.675 365.598C499.01 364.041 500.908 362.967 502.986 361.332C503.933 364.831 504.781 367.976 505.637 371.119C506.561 374.515 507.33 375.013 511.426 374.448C509.033 393.092 505.753 413.156 492.447 427.359C478.085 443.169 455.765 425.242 454.862 407.708C454.358 401.98 454.424 396.36 455.817 390.831Z" fill="white"/>
<path d="M706.152 204.466C706.709 169.522 709.627 134.699 715.871 100.312C716.449 97.1051 717.169 93.8521 719.233 90.7461C721.142 92.7061 721.808 94.8731 722.197 96.9811C728.362 132.681 731.301 169.171 730.5 205.357C726.606 205.357 722.789 205.371 718.973 205.352C716.758 205.341 715.416 202.702 712.788 203.507C710.716 204.141 708.455 204.158 706.152 204.466Z" fill="white"/>
<path d="M705.956 213.595C720.127 211.737 726.163 211.559 730.594 212.866C730.214 246.386 730.774 281.276 719.701 313.281C706.058 298.611 706.542 235.222 705.956 213.595Z" fill="white"/>
<path d="M183.353 172.184C178.069 217.727 179.415 262.454 186.938 307.701C182.565 308.721 174.078 311.326 173.03 304.899C172.168 300.527 171.223 296.146 170.784 291.722C168.261 255.171 165.567 217.831 171.583 181.53C173.216 173.717 174.667 172.555 183.353 172.184Z" fill="white"/>
<path d="M777.845 128.237C793.537 126.338 790.946 127.202 793.723 141.661C796.231 179.198 798.871 217.558 792.372 254.79C790.653 262.449 789.237 263.741 781.492 264.267C781.283 264.281 781.06 264.087 780.489 263.832C786.219 218.82 785.156 173.775 777.845 128.237Z" fill="white"/>
<path d="M557.303 912.605C554.372 904.893 553.51 897.054 552.322 888.781C563.072 888.611 573.16 889.376 583.803 889.724C598.622 890.337 593.697 882.36 608.967 892.545C613.166 896.559 637.5 908.91 622.832 913.03C601.221 915.396 579.049 913.069 557.303 912.605Z" fill="white"/>
<path d="M392.596 907.866C392.6 905.315 393.76 903.934 395.148 902.961C402.041 898.128 408.919 893.259 416.007 888.724C427.161 882.428 441.968 890.075 454.541 885.574C457.232 898.51 453.063 905.085 439.67 905.646C424.07 906.903 408.158 910.683 392.596 907.866Z" fill="white"/>
<path d="M406.028 543.355C432.54 550.422 459.986 556.122 487.616 557.965C510.007 560.676 532.778 561.454 554.907 556.381C555.136 567.801 542.189 569.879 533.27 569.219C510.178 567.588 487.104 565.012 464.307 560.983C454.21 559.131 444.304 556.255 434.278 553.991C427.877 551.966 406.395 551.077 406.028 543.355Z" fill="white"/>
<path d="M455.465 362.936C456.317 368.089 453.454 372.815 452.129 377.672C443.926 398.878 445.426 427.206 468.669 437.67C506.13 452.957 520.714 388.039 517.51 361.585C520.361 361.437 520.386 361.435 520.57 363.713C522.07 384.459 516.982 408.567 507.595 427.096C495.009 447.622 475.627 449.452 456.84 435.482C443.162 426.213 442.331 409.547 446.172 394.787C448.599 384.074 449.985 373.038 454.272 362.855C454.67 362.883 455.068 362.909 455.465 362.936Z" fill="white"/>
<path d="M450.459 327.9C450.508 323.38 454.026 320.14 458.283 321.502C464.375 323.734 479.699 328.496 478.218 336.849C476.403 343.776 470.022 340.281 467.214 336.157C464.628 333.099 464.681 333.054 461.256 334.926C455.499 338.074 450.384 334.746 450.459 327.9ZM471.648 329.532C467.157 328.936 462.77 328.354 457.992 327.72C460.138 331.344 470.298 335.257 471.648 329.532Z" fill="white"/>
<path d="M373.846 216.467C374.037 215.176 373.915 214.044 374.283 213.853C375.783 213.073 377.392 212.393 379.039 212.032C380.816 211.642 381.578 212.523 382.281 215.556C379.629 215.843 377.034 216.123 373.846 216.467Z" fill="white"/>
<path d="M508.468 358.844C512.731 361.546 510.631 365.782 511.681 369.039C509.522 366.95 508.053 362.223 508.468 358.844Z" fill="white"/>
<path d="M373.401 224.637C375.018 224.762 376.159 224.85 377.299 224.938C377.356 225.17 377.413 225.403 377.47 225.635C375.761 226.51 374.051 227.385 371.831 228.521C372.449 226.992 372.88 225.927 373.401 224.637Z" fill="white"/>
<path d="M600.447 207.542C601.925 206.116 602.806 205.266 604.204 203.918C604.374 205.513 604.467 206.387 604.59 207.542C603.351 207.542 602.356 207.542 600.447 207.542Z" fill="white"/>
<path d="M487.813 264.637C497.03 262.821 505.603 266.062 513.611 270.26C517.173 272.13 514.829 275.521 511.547 273.446C505.831 271.01 499.92 269.258 493.815 268.071C491.881 267.696 489.68 267.445 487.813 264.637Z" fill="black"/>
<path d="M536.912 297.779C532.582 294.996 524.747 299.06 524.183 295.634C523.739 290.741 532.916 292.895 535.93 292.712C537.371 292.833 538.966 293.177 539.284 295.053C539.612 296.992 537.442 296.69 536.804 297.766C536.823 297.773 536.912 297.779 536.912 297.779Z" fill="black"/>
<path d="M492.844 274.103C497.26 274.041 500.342 276.223 501.337 279.492C501.676 280.607 501.935 281.794 500.678 282.443C499.347 283.131 498.737 282.156 498.099 281.117C494.337 273.708 490.991 281.66 487.964 278.386C486.124 275.382 491.512 274.601 492.844 274.103Z" fill="black"/>
<path d="M462.888 266.363C473.224 267.421 470.815 278.946 467.456 273.596C465.183 269.122 463.335 269.886 459.013 271.582C458.347 271.458 457.271 271.275 457.166 270.894C456.513 267.638 460.865 267.622 462.888 266.363Z" fill="black"/>
<path d="M539.13 291.563C536.606 290.829 526.889 291.7 526.726 288.938C526.467 287.367 527.648 286.554 528.921 286.524C531.487 286.464 534.126 286.416 536.616 286.934C539.996 287.426 539.729 289.057 539.13 291.563Z" fill="black"/>
<path d="M471.648 329.531C470.298 335.25 460.152 331.354 457.992 327.719C462.77 328.353 467.156 328.935 471.648 329.531Z" fill="black"/>
</svg>
