<svg width="960" height="960" viewBox="0 0 960 960" fill="none" xmlns="http://www.w3.org/2000/svg">
<path d="M43.23 720.505C48.387 691.276 58.624 664.247 90.902 657.653C93.442 656.878 96.694 657.45 97.382 660.417C98.476 664.752 93.422 666.011 90.223 666.785C62.511 673.081 51.47 703.105 52.043 728.938C52.304 731.696 50.936 733.396 48.934 733.647C43.958 733.875 43.013 724.393 43.23 720.505Z" fill="black"/>
<path d="M313.537 919.678C310.255 918.7 306.801 917.972 303.768 916.352C300.473 914.819 302.132 909.628 305.77 910.326C320.775 913.582 334.627 910.577 346.609 901.017C349.139 898.478 353.647 893.816 356.55 897.418C362.297 905.324 334.987 917.175 328.7 918.104C323.822 920.086 318.716 919.719 313.537 919.678Z" fill="black"/>
<path d="M545.364 123.645C545.129 127.122 546.088 129.49 547.448 131.841C553.521 142.34 557.398 153.664 559.063 165.635C559.362 170.961 559.715 176.986 557.905 182.125C553.016 189.928 548.965 180.792 547.148 175.449C544.076 192.359 541.685 209.312 533.816 224.787C531.287 229.684 528.996 230.408 523.941 228.173C517.068 244.692 507.895 263.247 490.492 270.316C486.837 271.636 483.171 272.925 479.367 274.277C494.724 287.084 490.956 276.603 503.581 282.523C511.822 286.489 518.243 291.821 525.811 297.4C531.705 285.53 537.446 273.969 543.398 261.984C535.703 254.13 523.106 236.437 539.928 230.782C541.07 225.438 542.902 220.312 549.92 220.069C551.115 209.733 559.597 206.363 567.795 212.884C570.285 208.214 572.384 204.124 574.746 199.356C567.785 192.851 565.493 182.044 569.001 173.123C571.812 174.173 574.777 175.247 577.118 173.055C579.081 170.268 574.429 167.687 572.643 166.049C568.753 163.106 573.707 158.272 574.76 154.498C577.39 155.344 579.084 156.679 581.426 157.404C584.249 157.807 586.097 155.672 584.913 153.042C583.487 150.572 580.983 148.843 578.799 146.945C581.224 142.07 581.495 138.978 587.631 141.36C591.994 143.221 596.117 139.107 591.538 135.948C587.006 133.13 587.689 131.925 590.689 128.159C605.623 106.393 644.434 120.671 636.985 148.094C636.233 150.626 636.09 157.415 631.955 154.993C629.287 153.515 625.873 150.207 623.051 153.295C621.78 154.745 621.692 156.898 623.295 158.613C625.141 161.682 632.589 163.372 630.089 167.604C628.447 170.75 628.265 174.018 623.893 172.012C621.121 171.01 617.846 169.954 615.554 172.436C613.318 175.524 618.147 177.971 620.224 179.549C623.502 181.255 622.637 182.936 620.987 185.646C618.522 189.977 618.376 192.073 612.497 188.596C610.301 187.035 607.176 187.689 605.388 189.388C602.748 193.236 609.048 196.047 611.407 198.173C606.868 206.855 598.24 209.475 585.7 206.291C584.415 206.724 584.281 208.148 583.439 209.3C600.584 224.095 601.511 243.541 603.799 264.775C607.473 266.212 611.451 269.335 613.17 273.728C625.908 300.628 636.577 328.773 642.816 357.931C657.622 431.451 635.562 494.218 556.32 435.614C533.854 418.111 517.068 395.057 498.457 373.748C490.765 383.027 490.764 395.452 490.432 406.854C490.679 429.076 489.736 459.276 513.323 470.112C631.167 487 728.732 560.439 818.877 633.288C824.339 637.709 828.416 642.475 831.353 649.104C853.096 639.728 872.444 623.915 895.279 617.396C902.935 616.475 915.294 615.592 915.352 626.337C916.354 637.686 909.082 647.283 903.587 656.543C889.981 676.629 876.187 696.588 862.414 716.56C856.172 725.611 847.308 729.614 836.52 728.877C822.676 726.73 811.128 717.463 798.331 712.149C792.039 719.682 786.389 727.6 780.17 735.174C774.752 742.303 765.941 750.356 757.277 743.039C676.369 656.013 571.512 586.756 453.395 564.417C488.262 619.375 503.994 682.036 517.973 744.872C521 755.968 519.486 768.871 508.136 774.348C435.9 807.746 354.397 789.851 279.031 777.775C266.844 795.425 255.315 813.925 244.229 833.009C272.519 849.898 300.284 866.916 328.41 883.967C335.729 887.497 332.903 899.075 323.873 895.962C296.103 878.71 268.226 861.472 239.849 845.165C209.255 826.371 176.2 811.566 146.721 791.038C141.922 788.284 143.305 779.36 149.475 780.03C178.149 793.947 205.484 812.28 234.14 826.862C244.883 809.614 255.524 792.531 266.391 775.084C230.779 768.172 195.526 761.19 160.035 753.906C149.882 751.412 139.885 749.016 130.29 744.563C115.444 764.687 107.889 789.199 95.49 810.762C86.549 825.081 68.712 811.259 66.888 798.69C63.094 784.2 61.888 769.669 64.828 754.813C68.529 736.006 69.602 716.447 77.705 698.798C81.982 690.026 89.34 680.22 100.463 681.812C107.781 682.258 115.643 683.905 122.836 683.221C126.156 680.504 130.196 680.551 133.998 680.501C146.126 680.342 158.263 680.386 170.389 680.691C219.434 682.869 268.165 685.24 317.321 686.113C321.173 679.505 325.008 672.927 328.838 666.359C328.491 666.122 328.208 665.837 328.128 665.886C323.484 668.726 319.366 667.421 315.409 664.376C305.323 655.873 304.067 640.943 303.549 628.557C303.119 623.714 305.335 617.915 303.001 613.545C277.546 565.032 259.822 511.013 255.226 456.209C243.353 363.066 317.67 262.634 414.504 261.68C419.505 264.417 423.668 261.973 427.974 259.731C424.143 256.323 420.325 252.926 416.507 249.529C416.678 249.169 416.85 248.81 417.021 248.45C415.813 250.397 414.531 252.35 412.901 253.964C408.173 258.647 401.602 255.373 403.082 248.691C405.483 242.5 407.289 236.722 403.432 230.053C401.502 233.62 399.495 236.781 396.736 239.655C393.9 242.857 388.301 239.766 389.162 235.671C390.461 228.378 392.912 222.472 393.16 214.794C386.418 221.321 380.205 226.99 371.58 230.673C364.879 234.464 348.865 234.101 353.69 222.801C357.036 216.406 362.259 210.373 363.452 203.139C363.184 203.011 362.917 202.882 362.649 202.754C360.788 204.116 358.891 205.509 356.794 206.47C349.197 210.001 342.079 202.583 346.662 195.26C351.739 187.592 364.282 176.422 359.487 166.399C356.942 167.39 354.462 168.617 351.842 169.313C344.101 171.749 337.864 162.87 342.899 156.448C346.884 151.527 350.649 146.652 352.305 140.276C345.448 139.188 341.322 133.917 345.496 127.607C348.931 122.621 354.217 119.507 357.108 113.915C352.536 113.606 346.57 112.695 346.176 107.466C345.844 104.356 347.168 101.963 349.817 100.498C355.069 98.1618 360.915 97.7278 365.643 93.9638C364.157 73.3638 385.473 74.7478 397.833 65.5248C410.224 56.6848 425.385 52.6488 439.846 48.5618C465.587 42.9578 492.417 51.9938 514.199 65.6768C523.595 71.7698 530.589 79.9208 534.903 90.2618C535.954 92.7808 537.439 94.8048 539.351 96.7058C546.023 103.483 552.567 111.12 554.89 120.581C555.351 122.597 554.981 124.578 553.17 125.814C550.183 127.767 547.959 125.401 545.364 123.645ZM284.017 768.845C354.728 781.82 431.339 796.508 500.231 768.375C511.367 764.105 511.842 755.5 508.848 745.163C494.486 684.005 480.322 621.975 444.904 568.928C440.02 562.625 439.194 552.793 450.089 554.461C455.696 555.544 461.229 556.987 466.818 558.16C579.281 582.701 681.455 648.239 758.69 732.626C761.119 734.615 764.1 739.001 767.311 735.987C779.991 722.551 790.602 707.114 801.908 692.502C807.645 684.653 812.391 676.069 817.427 667.722C821.904 658.842 826.521 649.743 816.494 642.34C810.808 637.406 805.028 632.563 799.074 627.96C716.75 562.835 629.623 498.205 523.78 479.746C517.338 478.464 510.948 477.394 504.494 479.79C495.602 481.693 486.38 483.735 477.25 481.557C465.329 478.539 453.715 476.461 441.499 473.939C418.069 516.865 397.048 560.952 375.809 604.965C383.159 613.382 387.383 625.464 373.522 629.624C379.649 638.124 384.891 646.666 381.61 657.62C394.355 668.062 406.026 679.574 420.998 686.721C425.252 688.752 425.555 690.076 424.135 693.957C423.194 696.528 422.312 697.251 419.001 697.175C389.629 695.74 360.187 695.05 330.811 694.135C327.333 693.869 325.615 695.009 323.968 697.942C310.831 721.722 296.873 744.9 284.017 768.845ZM298.855 587.306C310.813 583.843 320.321 577.271 329.884 570.824C304.867 492.522 312.536 397.613 380.206 343.014C382.198 341.15 385.41 339.482 387.514 342.077C390.223 345.083 386.941 348.048 384.674 350.034C360.966 371.942 340.352 398.226 332.599 430.178C370.346 429.155 407.158 438.221 444.248 443.672C471.1 397.534 497.479 351.691 521.699 304.707C517.531 300.355 509.732 294.723 506.607 293.796C502.361 308.069 497.527 322.505 486.422 333.043C469.931 349.453 442.081 348.194 427.545 333.99C409.823 317.068 404.322 292.076 398.482 269.064C329.326 279.596 274.943 340.867 264.097 408.668C256.691 470.279 275.147 531.082 298.855 587.306ZM502.196 366.233C527.841 396.124 552.402 430.614 589.885 446.306C603.111 451.633 623.548 454.125 630.846 438.703C651.166 391.185 631.194 337.83 613.164 292.646C600.188 293.615 588.077 296.494 576.823 303.405C580.491 319.252 585.169 334.41 589.432 350.043C590.275 353.045 590.845 355.998 588.82 358.651C594.83 366.469 600.555 374.086 606.374 381.993C608.447 384.833 609.815 387.989 608.494 392.227C604.385 391.448 601.866 388.57 599.342 385.578C579.394 358.615 558.582 332.045 531.271 312.055C521.447 330.36 511.785 348.364 502.196 366.233ZM401.482 167.134C401.1 167.312 400.718 167.49 400.336 167.668C394.908 159.427 389.261 162.512 386.015 170.409C382.884 178.754 386.77 187.627 393.087 193.283C394.932 195.092 397.486 194.217 399.865 193.734C405.036 192.732 402.509 198.903 403.37 201.801C414.886 240.793 454.382 289.113 497.026 257.656C527.703 229.452 535.167 183.866 528.118 144.255C485.18 144.92 443.261 155.393 400.615 158.734C400.917 161.664 401.199 164.399 401.482 167.134ZM312.963 693.693C252.66 693.689 192.545 687.585 132.344 688.65C132.414 700.013 126.221 736.041 140.218 738.831C183.315 751.041 227.861 758.03 271.765 766.406C285.391 742.359 298.948 718.43 312.963 693.693ZM344.285 591.511C352.426 591.56 359.621 593.314 366.308 597.888C386.872 555.057 407.229 512.753 429.639 471.053C395.577 462.682 361.605 458.469 326.95 457.119C319.346 503.066 331.491 547.583 344.285 591.511ZM803.314 705.487C829.213 717.153 844.056 735.309 862.692 702.458C867.987 692.276 919.012 629.304 905.199 624.848C891.876 621.51 849.566 649.237 833.973 655.735C831.627 656.922 830.367 658.256 829.682 660.781C828.887 663.712 827.733 666.634 826.221 669.265C818.833 681.851 812.35 693.717 803.314 705.487ZM122.836 690.678C112.02 690.898 96.494 684.637 89.622 694.796C75.847 714.981 76.717 740.985 71.836 764.169C70.317 775.078 71.79 801.2 81.68 807.413C85.472 809.72 86.885 809.51 89.228 805.832C101.61 783.184 109.484 758.229 125.049 737.318C120.204 722.318 122.371 706.812 122.836 690.678ZM345.71 599.184C336.379 610.341 326.12 617.986 311.825 619.848C311.949 631.048 311.019 654.425 323.387 659.433C325.485 656.065 326.952 652.634 328.298 648.958C329.878 644.464 336.284 644.431 338.071 648.781C340.413 653.325 340.471 657.855 345.197 660.999C346.13 654.733 346.235 650.591 346.789 644.813C347.176 640.825 352.839 637.588 355.638 640.795C357.354 645.31 361.05 648.112 364.299 651.258C374.403 660.639 377.58 651.516 372.338 642.547C368.401 636.514 364.568 630.332 359.906 624.884C357.357 621.905 357.729 619.668 358.856 616.26C361.792 617.23 365.025 617.482 367.051 619.178C369.478 621.21 371.65 621.193 374.324 620.806C378.506 611.542 353.538 597.802 345.71 599.184ZM469.647 274.673C456.19 274.625 444.354 270.805 433.342 263.507C430.886 268.369 426.055 269.325 422.179 271.491C424.808 281.717 427.238 291.385 430.787 301.201C436.027 318.826 459.793 328.152 475.048 316.211C483.789 308.846 486.071 298.654 487.524 288.329C483.567 286.17 480.076 284.265 475.99 282.035C475.704 287.012 475.461 291.422 475.19 295.831C475.691 300.95 471.948 304.487 468.125 299.659C466.473 291.362 468.855 283.407 469.647 274.673ZM576.676 221.345C579.202 223.284 581.186 224.857 583.331 227.046C586.617 230.43 582.668 234.871 578.791 232.545C573.341 229.639 563.726 216.812 558.464 217.181C556.678 224.435 557.638 228.482 548.449 227.644C547.007 232.103 547.314 238.186 541.419 238.524C538.392 238.988 537.889 239.618 538.365 242.574C541.451 254.5 557.582 267.086 567.708 273.455C576.234 267.221 585.887 265.762 595.61 263.834C594.186 247.206 594.201 227.343 579.691 216.226C578.773 217.782 577.882 219.295 576.676 221.345ZM441.36 449.388C404.91 442.868 368.067 433.197 330.767 436.064C329.662 440.765 329.088 443.858 328.415 448.533C364.277 449.959 399.188 455.053 433.782 463.274C436.393 458.492 438.767 454.14 441.36 449.388ZM402.432 267.825C409.009 290.83 413.766 316.605 432.99 332.472C449.207 345.683 474.624 341.843 487.048 325.298C495.448 314.977 499.089 302.83 502.262 290.047C499.821 289.216 497.806 288.531 495.472 287.736C493.764 296.625 492.35 304.967 487.64 312.741C472.525 340.363 429.902 329.098 423.424 300.514C421.093 290.873 417.004 281.344 416.29 271.451C416.35 268.886 415.809 267.977 413.441 267.864C410.132 267.707 406.809 267.825 402.432 267.825ZM580.392 347.387C574.832 324.668 565.494 302.242 565.505 278.587C561.082 275.926 556.728 273.306 552.194 270.579C546.522 282.062 540.883 293.48 535.166 305.055C551.674 317.837 566.744 331.771 580.392 347.387ZM340.835 668.974C337.656 674.474 334.418 680.076 330.905 686.156C357.043 687.016 382.475 687.853 408.335 688.703C397.177 680.692 387.601 673 377.322 664.37C376.426 663.649 375.09 662.858 374.079 662.995C365.72 664.057 360.41 658.449 354.633 653.291C353.471 661.979 351.468 670.789 340.835 668.974ZM445.684 465.992C457.547 469.29 469.48 470.772 481.4 473.633C487.2 475.177 506.042 476.153 497.57 465.852C493.814 462.123 490.135 458.296 487.732 453.485C486.784 451.587 485.409 451.286 483.32 451.363C473.496 451.483 463.57 452.248 453.796 451.101C451.056 456.132 448.467 460.884 445.684 465.992ZM301.661 593.306C311.115 619.228 315.945 612.717 334.964 599.921C340.17 595.907 332.918 583.192 331.849 577.37C322.183 584.238 312.658 589.94 301.661 593.306ZM482.09 402.826C481.917 402.706 481.744 402.585 481.571 402.465C473.458 416.562 465.344 430.659 456.748 445.595C466.411 446.037 475.051 446.671 483.521 445.056C483.037 430.789 482.564 416.808 482.09 402.826ZM610.568 286.807C607.229 281.141 606.556 271.829 598.448 272.007C590.724 271.782 583.67 274.351 576.718 277.203C570.985 280.726 574.373 290.246 575.548 295.91C586.817 290.443 598.277 287.863 610.568 286.807ZM462.673 67.5048C463.338 69.5118 465 70.4758 466.817 71.2328C485.526 77.8858 502.469 87.6198 512.671 105.364C513.471 107.251 516.064 108.898 517.868 108.317C522.98 104.511 516.841 98.3018 514.622 94.4388C504.726 81.0058 491.55 72.0398 475.916 66.6088C471.884 65.8818 465.463 63.1198 462.673 67.5048Z" fill="black"/>
<path d="M628.183 664.611C670.47 684.303 705.451 715.839 733.225 753.019C734.974 755.167 735.18 757.168 733.873 758.667C730.951 762.083 726.162 757.384 723.989 754.712C698.361 720.848 666.077 692.872 628.071 673.65C626.727 672.958 625.414 672.091 624.319 671.059C621.561 668.395 624.045 664.009 628.183 664.611Z" fill="black"/>
<path d="M240.519 400.433C232.415 435.473 230.547 473.781 245.433 507.241C248.285 512.551 241.471 515.839 238.763 510.977C224.762 483.952 223.65 452.557 227.71 422.909C229.21 414.733 230 406.3 232.304 398.32C234.296 393.334 240.93 395.175 240.519 400.433Z" fill="black"/>
<path d="M672.274 406.41C673.612 435.501 662.828 467.296 634.698 480.074C631.982 481.509 627.2 481.501 626.444 478.28C625.779 476.094 626.683 474.2 629.475 473.121C635.872 470.648 641.072 466.551 645.834 461.759C666.267 441.817 663.871 411.65 662.706 385.531C663.005 383.593 664.273 382.234 666.347 382.055C674.164 381.115 671.218 401.195 672.274 406.41Z" fill="black"/>
<path d="M452.5 822.006C445.934 822.837 442.886 815.747 450.823 815.003C479.82 809.765 507.75 799.037 531.876 782.084C534.47 780.42 538.089 778.184 540.577 781.176C543.688 795.723 466.242 822.776 452.5 822.006Z" fill="black"/>
<path d="M690.128 428.666C689.071 447.757 682.57 468.619 665.941 479.633C661.769 482.117 658.04 477.039 660.969 473.776C676.295 460.682 681.756 442.85 681.141 423.313C681.734 418.157 688.51 417.621 689.479 422.887C689.91 424.763 689.927 426.736 690.128 428.666Z" fill="black"/>
<path d="M319.835 113.307C320.504 109.205 320.869 105.026 321.899 101.017C322.942 93.5744 339.381 58.0694 348.65 65.4694C354.545 70.6064 330.223 84.2094 328.374 111.153C328.063 113.642 328.082 116.157 328.098 118.66C327.989 122.087 326.805 123.747 324.484 123.79C320.063 124.173 320.436 116.84 320.299 113.395C320.144 113.365 319.99 113.336 319.835 113.307Z" fill="black"/>
<path d="M631.193 95.105C637.696 78.361 645.585 62.507 652.695 46.043C653.909 43.11 656.484 39.338 660.057 41.249C663.578 42.913 662.061 47.033 660.663 49.705C653.049 65.45 646.785 81.954 638.181 97.178C635.831 100.589 632.565 97.791 631.193 95.105Z" fill="black"/>
<path d="M680.032 168.998C686.706 168.998 693.381 168.912 700.052 169.05C702.093 169.092 704.18 169.565 706.135 170.189C709.655 171.144 709.281 176.688 705.666 177.275C691.282 179.002 676.483 177.019 661.966 177.251C658.788 177.163 653.331 176.52 653.452 172.552C653.463 170.497 654.961 168.944 657.52 168.557C664.996 168.248 672.536 168.537 680.031 168.442C680.032 168.627 680.032 168.812 680.032 168.998Z" fill="black"/>
<path d="M484.403 835.202C479.017 835.414 477.777 829.855 482.889 828.23C492.152 825.197 501.171 821.525 510.077 817.643C511.968 817.302 513.751 817.584 514.725 819.531C519.184 826.413 489.319 834.543 484.403 835.202Z" fill="black"/>
<path d="M208.73 490.928C209.126 485.039 216.35 483.385 217.563 489.684C218.395 494.193 218.854 498.772 219.704 503.277C220.425 507.097 221.47 510.856 222.385 514.639C223.446 516.935 223.146 520.205 220.536 521.008C217.669 522.069 215.533 519.319 214.83 516.885C212.756 508.242 210.753 499.583 208.73 490.928Z" fill="black"/>
<path d="M306.739 92.9341C307.528 88.0831 310.913 82.9631 313.001 78.4171C315.827 71.8761 325.449 74.3001 321.857 81.5401C319.013 85.9411 316.401 90.6101 314.25 95.3711C312.043 100.921 306.102 99.2771 306.739 92.9341Z" fill="black"/>
<path d="M593.354 93.2598C593.41 95.8618 593.879 99.6228 590.512 100.223C588.622 100.618 587.239 99.7348 586.411 98.0838C584.491 92.4518 584.256 86.3078 583.049 80.4798C582.522 77.6528 583.857 74.6088 586.547 74.3588C589.013 73.9988 591.043 75.4478 591.495 78.3158C592.231 83.2718 592.765 88.2688 593.238 93.2598C593.277 93.2608 593.315 93.2598 593.354 93.2598Z" fill="black"/>
<path d="M657.471 206.623C657.358 209.613 654.596 211.696 652.448 210.272C649.159 208.092 646.261 205.25 643.51 202.389C642.911 201.766 643.177 199.483 643.871 198.676C644.554 197.883 646.692 197.337 647.489 197.827C650.514 200.173 656.481 202.884 657.471 206.623Z" fill="black"/>
<path d="M665.739 122.969C668.099 124.301 671.173 127.696 667.944 129.839C664.972 131.573 661.837 133.109 658.603 134.264C655.934 134.73 653.605 131.106 655.249 128.802C657.809 125.712 661.454 124.269 665.739 122.969Z" fill="black"/>
<path d="M284.017 768.844C296.872 744.901 310.832 721.72 323.966 697.94C325.614 695.008 327.332 693.867 330.81 694.133C360.186 695.049 389.628 695.738 419 697.174C422.311 697.25 423.193 696.527 424.134 693.956C425.554 690.076 425.251 688.75 420.997 686.719C406.025 679.572 394.354 668.061 381.609 657.619C384.89 646.666 379.648 638.122 373.521 629.622C387.389 625.462 383.151 613.372 375.808 604.964C397.048 560.951 418.068 516.863 441.498 473.938C453.712 476.457 465.328 478.536 477.249 481.556C486.397 483.734 495.586 481.692 504.494 479.79C510.948 477.394 517.338 478.463 523.781 479.743C629.626 498.211 716.748 562.828 799.074 627.961C805.029 632.562 810.809 637.406 816.495 642.339C826.531 649.732 821.961 658.855 817.428 667.721C812.391 676.068 807.646 684.651 801.908 692.5C790.606 707.113 779.989 722.549 767.313 735.987C764.143 739.022 761.058 734.582 758.69 732.628C681.462 648.241 579.279 582.7 466.82 558.158C461.23 556.987 455.697 555.543 450.09 554.461C439.537 552.77 439.786 562.429 444.907 568.927C480.325 621.975 494.486 684.004 508.849 745.163C511.881 755.439 511.341 764.146 500.231 768.372C431.327 796.51 354.748 781.814 284.017 768.844Z" fill="black"/>
<path d="M298.855 587.306C275.147 531.088 256.69 470.275 264.097 408.67C274.941 340.87 329.327 279.597 398.482 269.066C404.317 292.072 409.826 317.075 427.544 333.993C442.081 348.197 469.931 349.455 486.422 333.045C497.525 322.507 502.364 308.071 506.607 293.798C509.731 294.725 517.53 300.356 521.699 304.709C497.479 351.693 471.1 397.536 444.248 443.674C407.155 438.223 370.348 429.157 332.599 430.18C340.353 398.227 360.966 371.944 384.675 350.036C386.939 348.056 390.23 345.07 387.515 342.079C385.402 339.506 382.207 341.132 380.204 343.016C312.534 397.624 304.869 492.519 329.885 570.827C320.321 577.271 310.813 583.843 298.855 587.306Z" fill="white"/>
<path d="M502.196 366.232C511.785 348.363 521.447 330.36 531.271 312.053C558.581 332.043 579.394 358.614 599.341 385.577C601.865 388.567 604.383 391.445 608.493 392.226C609.815 387.988 608.446 384.832 606.373 381.992C600.553 374.082 594.831 366.469 588.819 358.65C590.844 355.997 590.273 353.044 589.431 350.042C585.168 334.406 580.491 319.254 576.822 303.404C588.075 296.494 600.187 293.614 613.163 292.645C631.195 337.81 651.165 391.2 630.847 438.702C623.546 454.131 603.112 451.621 589.885 446.304C552.398 430.611 527.846 396.125 502.196 366.232Z" fill="white"/>
<path d="M401.482 167.133C401.2 164.398 400.918 161.663 400.616 158.733C443.262 155.392 485.18 144.92 528.119 144.254C535.18 183.855 527.697 229.461 497.027 257.657C454.349 289.099 414.906 240.809 403.373 201.8C402.511 198.906 405.027 192.728 399.865 193.734C397.487 194.217 394.932 195.092 393.088 193.283C386.77 187.627 382.885 178.753 386.016 170.408C389.295 162.564 394.822 159.36 400.337 167.667C400.717 167.489 401.099 167.311 401.482 167.133ZM465.522 228.095C472.007 232.233 480.135 236.04 487.52 232.007C489.991 229.651 486.829 227.16 484.169 228.467C474.16 231.086 467.663 221.123 459.047 218.361C450.411 216.256 441.043 224.271 440.769 233.786C440.373 246.621 454.713 257.661 467.104 253.611C470.515 252.494 469.317 249.128 466.404 248.402C465.146 248.048 463.711 248.318 462.516 248.318C458.681 239.749 459.657 233.155 465.522 228.095ZM448.34 157.276C441.819 158.114 434.504 159.702 427.999 161.331C425.564 161.973 424.666 163.67 425.352 165.265C426.168 167.162 427.65 167.257 429.52 166.909C436.082 165.69 442.672 164.62 449.254 163.509C451.678 163.1 452.858 161.995 452.751 160.163C452.643 158.336 451.262 157.311 448.34 157.276ZM479.988 158.998C487.174 158.195 494.361 157.395 501.546 156.578C501.951 156.532 502.501 156.459 502.705 156.188C504.82 154.21 504.544 152.288 502.278 150.714C501.593 150.242 500.386 150.367 499.437 150.468C492.67 151.238 485.848 151.872 479.199 153.39C475.023 154.143 476.014 160.123 479.988 158.998ZM466.117 204.036C465.278 213.163 479.218 214.077 481.299 206.452C481.847 204.138 479.949 202.259 477.694 202.908C474.409 205.062 471.228 206.153 467.626 203.981C467.326 203.82 466.843 203.998 466.117 204.036ZM390.917 184.39C392.354 180.138 389.396 176.828 394.247 174.027C395.547 173.305 395.332 171.508 394.079 170.439C389.652 167.399 386.956 177.111 388.18 180.234C388.519 181.51 389.678 182.567 390.917 184.39Z" fill="white"/>
<path d="M312.963 693.691C298.948 718.427 285.39 742.356 271.765 766.404C227.861 758.028 183.316 751.039 140.219 738.83C126.194 735.973 132.429 700.113 132.344 688.648C192.547 687.583 252.658 693.687 312.963 693.691Z" fill="black"/>
<path d="M344.285 591.51C331.492 547.588 319.346 503.057 326.951 457.117C361.606 458.467 395.578 462.68 429.64 471.051C407.229 512.751 386.873 555.055 366.309 597.886C359.621 593.313 352.426 591.56 344.285 591.51Z" fill="black"/>
<path d="M803.314 705.485C812.344 693.722 818.836 681.844 826.222 669.263C827.733 666.632 828.888 663.71 829.683 660.779C830.368 658.254 831.628 656.92 833.975 655.735C849.619 649.208 891.847 621.526 905.199 624.845C919.032 629.28 867.994 692.26 862.695 702.457C844.091 735.29 829.18 717.155 803.314 705.485Z" fill="white"/>
<path d="M122.836 690.677C122.371 706.811 120.204 722.317 125.05 737.317C109.485 758.227 101.61 783.183 89.229 805.831C86.886 809.509 85.473 809.719 81.682 807.411C71.83 801.339 70.3 774.953 71.837 764.169C76.716 740.985 75.848 714.98 89.621 694.795C96.518 684.616 112.004 690.909 122.836 690.677Z" fill="white"/>
<path d="M345.71 599.186C353.476 597.779 378.535 611.56 374.323 620.808C371.65 621.195 369.478 621.212 367.05 619.18C365.025 617.485 361.792 617.232 358.855 616.262C357.728 619.67 357.356 621.907 359.905 624.886C364.567 630.334 368.4 636.516 372.337 642.55C377.566 651.499 374.424 660.654 364.298 651.26C361.049 648.115 357.353 645.312 355.637 640.798C352.841 637.593 347.173 640.826 346.789 644.816C346.235 650.597 346.131 654.732 345.196 661.002C340.475 657.865 340.41 653.323 338.07 648.784C336.283 644.436 329.876 644.466 328.297 648.962C326.951 652.637 325.484 656.068 323.386 659.436C311.028 654.439 311.945 631.063 311.824 619.851C326.12 617.988 336.379 610.343 345.71 599.186Z" fill="white"/>
<path d="M469.647 274.675C468.854 283.403 466.472 291.37 468.124 299.662C471.946 304.484 475.692 300.959 475.189 295.833C475.461 291.425 475.703 287.015 475.989 282.037C480.075 284.267 483.566 286.172 487.523 288.331C486.07 298.656 483.788 308.848 475.046 316.212C459.781 328.151 436.037 318.829 430.786 301.203C427.236 291.382 424.809 281.723 422.177 271.492C426.053 269.326 430.884 268.37 433.34 263.508C444.354 270.807 456.191 274.626 469.647 274.675Z" fill="white"/>
<path d="M576.676 221.347C577.883 219.297 578.774 217.784 579.691 216.227C594.201 227.348 594.184 247.202 595.61 263.835C585.887 265.763 576.235 267.222 567.708 273.456C557.607 267.11 541.441 254.491 538.364 242.576C537.89 239.62 538.392 238.989 541.419 238.526C547.314 238.189 547.007 232.103 548.449 227.646C557.645 228.487 556.679 224.425 558.464 217.183C563.69 216.79 573.379 229.668 578.792 232.546C582.668 234.872 586.619 230.432 583.331 227.047C581.183 224.857 579.203 223.288 576.676 221.347Z" fill="white"/>
<path d="M441.36 449.389C438.767 454.141 436.393 458.492 433.783 463.275C399.189 455.053 364.278 449.96 328.416 448.534C329.089 443.858 329.663 440.768 330.768 436.065C368.067 433.199 404.909 442.869 441.36 449.389Z" fill="white"/>
<path d="M402.432 267.824C406.81 267.824 410.132 267.706 413.441 267.864C415.809 267.977 416.351 268.886 416.291 271.45C417.003 281.344 421.095 290.873 423.423 300.515C429.898 329.091 472.536 340.369 487.641 312.739C492.351 304.963 493.759 296.627 495.472 287.735C497.806 288.529 499.821 289.215 502.262 290.046C499.091 302.827 495.448 314.979 487.048 325.298C474.625 341.843 449.206 345.682 432.991 332.471C413.759 316.596 409.018 290.84 402.432 267.824Z" fill="white"/>
<path d="M445.684 465.992C448.466 460.885 451.055 456.133 453.796 451.102C463.57 452.249 473.495 451.484 483.32 451.364C485.41 451.287 486.784 451.588 487.732 453.486C490.135 458.297 493.814 462.124 497.57 465.853C506.041 476.156 487.201 475.175 481.401 473.633C469.478 470.771 457.55 469.289 445.684 465.992Z" fill="white"/>
<path d="M301.661 593.307C312.658 589.941 322.183 584.239 331.849 577.371C332.92 583.169 340.163 595.925 334.965 599.922C315.92 612.744 311.107 619.201 301.661 593.307Z" fill="white"/>
<path d="M482.09 402.826C482.563 416.808 483.037 430.789 483.52 445.056C475.05 446.671 466.41 446.036 456.747 445.595C465.343 430.659 473.457 416.562 481.57 402.465C481.744 402.586 481.917 402.706 482.09 402.826Z" fill="white"/>
<path d="M610.568 286.807C598.277 287.863 586.817 290.443 575.548 295.909C574.369 290.262 570.993 280.713 576.718 277.202C583.671 274.35 590.725 271.781 598.449 272.006C606.559 271.831 607.223 281.138 610.568 286.807Z" fill="white"/>
<path d="M462.673 67.5061C465.435 63.1111 471.912 65.8941 475.916 66.6101C491.55 72.0411 504.726 81.0071 514.621 94.4411C516.593 97.6851 519.767 101.196 519.912 105.09C519.343 107.999 517.273 109.42 514.516 107.574C503.409 89.4061 486.887 77.8471 466.815 71.2361C464.999 70.4771 463.338 69.5131 462.673 67.5061Z" fill="white"/>
<path d="M465.522 228.096C459.658 233.156 458.681 239.75 462.516 248.319C463.712 248.319 465.146 248.049 466.404 248.403C469.32 249.113 470.506 252.515 467.103 253.612C454.712 257.662 440.372 246.622 440.768 233.787C441.042 224.273 450.409 216.257 459.046 218.362C467.66 221.123 474.162 231.087 484.169 228.468C486.803 227.168 490.007 229.64 487.519 232.009C480.129 236.04 472.011 232.235 465.522 228.096Z" fill="black"/>
<path d="M448.34 157.277C451.262 157.312 452.644 158.337 452.751 160.165C452.858 161.997 451.678 163.102 449.254 163.511C442.672 164.622 436.082 165.692 429.52 166.911C427.65 167.258 426.168 167.163 425.352 165.267C424.666 163.672 425.563 161.975 427.999 161.333C434.499 159.703 441.822 158.114 448.34 157.277Z" fill="black"/>
<path d="M479.988 158.999C476.023 160.122 475.014 154.145 479.2 153.391C485.848 151.874 492.67 151.239 499.437 150.469C500.386 150.368 501.593 150.243 502.278 150.715C504.531 152.29 504.832 154.208 502.704 156.189C502.501 156.46 501.951 156.533 501.546 156.579C494.361 157.396 487.175 158.195 479.988 158.999Z" fill="black"/>
<path d="M466.117 204.039C466.844 204.002 467.327 203.823 467.627 203.985C471.229 206.157 474.41 205.064 477.694 202.911C479.949 202.263 481.847 204.141 481.299 206.456C479.215 214.08 465.277 213.165 466.117 204.039Z" fill="black"/>
<path d="M390.917 184.392C389.678 182.569 388.52 181.512 388.179 180.237C386.954 177.117 389.651 167.402 394.078 170.441C395.332 171.511 395.547 173.308 394.246 174.03C389.394 176.836 392.356 180.131 390.917 184.392Z" fill="black"/>
</svg>
