<svg width="960" height="960" viewBox="0 0 960 960" fill="none" xmlns="http://www.w3.org/2000/svg">
<path d="M912.585 468.839C910.462 471.787 907.397 472.408 904.025 472.365C892.008 472.215 879.99 472.103 867.973 471.953C854.418 471.884 840.772 471.566 827.348 469.703C823.551 468.723 824.177 463.478 827.745 463.151C840.923 463.08 854.12 464.764 867.342 464.496C879.121 464.625 890.902 464.692 902.681 464.674C906.443 464.668 909.719 465.715 912.585 468.116C912.585 468.357 912.585 468.598 912.585 468.839Z" fill="black"/>
<path d="M459.958 40.9297C462.295 42.2747 462.974 44.4147 463.079 46.9687C463.883 68.4747 465.272 89.9497 466.546 111.432C466.424 114.598 468.071 121.944 463.559 121.952C461.924 121.867 460.928 120.7 460.745 118.37C460.227 111.779 459.721 105.187 459.3 98.5887C458.212 81.1927 457.091 63.7977 456.082 46.3967C455.867 43.8327 457.069 41.0467 459.958 40.9297Z" fill="black"/>
<path d="M257.304 462.619C260.823 451.714 264.244 441.111 267.78 430.15C253.008 414.935 201.991 361.512 231.653 343.824C258.321 334.141 289.853 350.064 312.037 364.769C329.899 349.542 353.149 341.453 376.7 340.92C378.593 322.95 391.64 299.251 408.493 317.825C414.256 326.272 419.476 335.045 423.4 344.548C435.13 347.034 446.831 349.513 459.187 352.132C459.891 351.898 461.342 351.414 463.267 350.772C456.926 340.942 450.003 331.568 443.695 321.583C424.141 323.429 407.883 304.64 405.144 286.573C404.46 281.59 404.477 276.514 404.057 271.491C398.025 250.888 386.814 233.25 403.123 213.382C412.722 202.543 426.249 196.108 439.211 190.14C463.691 178.445 494.934 164.012 515.436 190.297C517.458 192.338 518.49 195.307 521.506 196.158C526.498 197.608 526.914 198.829 524.506 202.724C528.694 212.077 530.348 222.567 536.135 230.698C549.905 241.675 551.144 255.443 553.918 271.37C564.823 302.327 571.213 335.407 591.02 362.363C600.384 375.071 608.763 378.399 622.146 368.419C629.558 362.184 636.489 355.191 644.413 349.568C656.771 339.771 676.264 342.071 677.933 360.196C679.662 390.857 659.88 417.092 638.509 436.997C674.522 458.998 712.511 451.4 718.407 405.312C722.675 377.385 705.188 356.004 732.536 362.845C725.105 341.506 703.724 331.731 687 319.052C682.214 314.436 681.376 305.63 688.69 303.052C705.098 298.843 726.577 313.474 741.88 319.259C744.153 312.073 756.218 256.657 768.118 276.206C771.864 283.001 770.424 290.417 771.684 297.821C777.269 287.59 780.855 276.145 787.928 266.81C790.949 262.103 798.502 260.47 799.208 267.538C800.371 277.698 795.657 287.274 793.05 296.88C790.416 305.691 787.215 314.339 784.831 323.22C785.099 323.401 785.366 323.583 785.634 323.764C793.441 313.96 803.009 305.453 811.521 296.197C815.179 291.868 826.816 285.547 826.298 295.874C815.055 322.814 797.113 346.96 784.661 373.402C789.158 378.875 791.073 382.073 789.421 389.372C781.841 415.378 770.101 439.941 755.531 462.775C719.053 523.445 641.858 532.248 587.36 490.198C582.435 493.606 577.616 496.94 572.635 500.386C573.594 509.516 576.556 520.663 567.378 526.789C718.639 540.464 691.412 750.747 562.541 778.067C551.623 780.172 539.772 781.02 530.055 774.235C527.16 783.206 533.307 793.623 542.372 795.636C550.899 797.351 560.176 796.699 567.821 801.487C577.928 806.23 582.878 824.546 569.517 828.208C556.876 831.333 543.618 828.599 530.793 828.034C490.599 824.006 462.44 825.922 464.728 775.495C439.315 785.716 381.21 808.537 373.78 766.978C372.759 752.331 373.139 737.831 372.076 723.153C367.388 725.325 364.328 728.273 360.915 731.856C346.091 747.425 332.095 763.908 316.019 778.218C305.808 787.746 286.273 792.537 285.755 772.921C286.917 743.532 304.427 717.239 318.773 692.416C326.663 680.32 342.706 662.967 357.486 675.243C362.094 678.878 367.482 681.262 373.257 682.082C377.056 675.731 382.724 678.717 387.215 682.361C414.099 708.916 471.377 698.876 466.088 654.333C462.085 623.67 440.155 600.835 421.114 578.196C420.11 576.985 419.031 576.495 417.436 576.421C408.628 576.013 403.813 572.453 401.71 563.819C399.439 554.491 397.498 545.051 396.043 535.564C389.065 492.806 396.417 448.204 413.461 408.629C401.539 406.081 389.738 405.674 377.572 408.457C374.758 422.655 375.022 438.211 365.762 450.187C364.856 451.435 364.375 452.515 365.041 454.124C374.282 476.432 379.549 499.921 385.221 523.263C390.181 546.88 397.35 570.693 395.702 595.064C395.086 612.992 379.188 632.045 361.889 617.185C349.956 605.52 349.041 588.999 344.275 573.899C340.143 583.174 340.381 595.388 330.449 600.492C315.416 608.168 298.039 616.668 280.973 610.262C264.253 603.558 247.387 597.126 229.886 592.659C214.543 588.352 198.421 586.406 183.673 580.204C177.182 577.317 174.598 571.9 176.055 564.953C183.454 531.127 187.186 496.644 192.087 462.425C190.518 454.609 215.273 450.171 221.034 450.226C233.692 451.804 245.015 459.374 257.304 462.619ZM380.69 686.567C379.178 689.017 379.3 691.223 379.334 693.338C379.614 710.891 379.909 728.445 380.311 745.996C381.265 758.795 377.798 777.374 393.837 781.591C410.634 786.263 428.204 780.423 444.275 775.462C516.237 753.774 556.783 675.929 536.362 604.192C537.976 582.844 570.489 596.031 581.901 601.673C607.826 613.935 622.69 648.475 602.695 672.336C587.062 691.678 561.991 699.703 537.891 700.711C532.472 711.616 526.787 721.161 519.862 731.174C523.261 741.114 526.741 751.214 530.165 761.333C532.444 768.068 537.331 771.312 544.185 771.934C600.394 772.856 643.473 724.524 658.436 673.717C676.846 621.466 650.037 553.92 593.984 539.569C580.419 535.134 566.015 534.944 552.23 531.778C550.344 531.212 548.765 531.123 547.059 531.698C506.82 545.048 467.508 560.13 428.041 575.771C448.717 600.333 473.116 627.258 472.927 661.352C470.24 709.113 410.563 715.13 380.69 686.567ZM564.787 495.829C564.141 488.634 561.965 481.735 560.601 474.66C557.449 462.085 560.956 466.072 553.144 454.605C551.03 450.836 555.967 447.34 558.792 450.817C564.336 458.696 570.034 466.44 577.328 472.831C628.035 522.499 709.095 524.133 748.774 460.487C756.363 449.578 789.941 389.096 780.969 380.248C779.156 381.193 777.297 381.083 775.778 379.15C758.596 375.138 741.279 371.796 723.795 368.335C734.39 428.324 703.482 477.725 639.974 445.54C602.877 427.3 578.78 390.949 541.991 372.383C541.277 442.826 431.749 427.098 442.723 354.846C437.21 353.651 431.874 352.495 425.95 351.212C437.529 382.003 448.467 412.939 460.746 443.416C476.789 481.739 522.975 516.839 564.787 495.829ZM320.807 454.795C332.98 426.959 353.72 402.46 385.933 400.195C402.27 399.493 425.315 398.898 435.503 413.866C436.864 415.892 438.64 419.201 435.876 420.84C434.524 421.697 433.028 421.466 431.892 420.348C428.533 416.186 425.538 411.814 419.925 410.298C399.181 458.174 394.393 512.788 408.773 563.125C409.897 568.432 414.901 569.946 419.789 569.438C426.851 568.943 433.453 566.625 439.858 563.881C463.846 553.602 488.483 545.04 512.991 536.146C529.098 530.591 545.103 524.5 561.785 520.871C569.865 519.237 566.719 509.347 565.8 503.731C529.838 519.461 489.739 499.637 467.773 469.594C444.159 434.358 435.159 391.696 418.851 352.901C418.021 350.647 416.897 349.766 414.536 349.484C348.769 337.289 300.124 365.92 276.17 428.003C285.056 438.618 307.546 452.113 320.807 454.795ZM550.704 281.5C548.195 285.71 546.748 290.009 543.097 293.458C542.452 294.108 542.211 295.411 542.212 296.412C542.226 305.448 541.113 314.319 538.801 323.063C536.018 333.584 532.175 343.6 525.372 352.252C522.053 356.457 523.327 361.27 523.119 366.456C552.709 351.106 605.969 421.605 634.639 434.723C644.26 420.777 658.272 410.373 664.682 394.256C671.617 381.503 681.003 343.756 654.969 351.476C640.94 357.213 632.801 371.488 619.408 378.167C580.13 397.714 558.484 307.428 550.704 281.5ZM493.27 246.513C500.621 263.673 507.734 280.28 514.729 296.609C525.208 293.596 530.003 303.763 531.878 297.957C533.745 292.676 536.488 287.444 535.42 281.68C533.457 263.253 524.724 246.676 515.609 230.964C499.725 232.377 485.168 227.137 470.262 222.481C465.586 221.639 458.35 227.073 453.966 229.089C432.097 240.498 441.229 273.208 447.105 292.022C452.301 304.835 462.681 317.923 477.754 318.588C482.767 318.632 486.502 317.867 489.325 313.261C491.559 309.616 494.602 306.43 497.513 303.247C501.242 298.715 505.612 299.953 510.879 299.538C503.397 286.452 497.933 272.813 491.302 259.342C489.367 255.214 487.528 251.039 485.763 246.835C484.684 244.264 485.153 242.63 487.409 241.752C492.117 239.708 512.32 233.65 515.06 238.992C515.229 240.501 514.341 241.333 512.765 241.66C506.051 243.103 499.93 244.379 493.27 246.513ZM314.283 481.362C327.575 488.42 340.997 495.34 354.342 502.311C357.199 503.795 359.129 505.991 359.629 509.173C360.644 514.519 359.86 519.986 358.525 525.193C355.162 537.592 351.616 549.942 348.198 562.327C347.902 563.399 347.566 564.891 348.06 565.681C356.406 580.844 353.79 601.477 368.188 613.364C384.047 623.043 390.831 597.635 389.117 585.914C384.744 542.258 374.087 498.862 358.857 457.749C349.149 465.75 336.336 465.91 324.842 463.291C321.243 469.448 317.814 475.317 314.283 481.362ZM540.855 692.63C561.449 692.347 582.86 684.148 596.469 668.331C620.333 638.577 587.549 604.496 556.479 600.871C552.16 600.362 543.179 598.231 543.972 605.257C550.419 634.385 551.235 664.198 540.855 692.63ZM515.113 737.057C503.379 750.378 490.827 761.496 475.289 769.886C473.328 770.966 472.046 772.093 472.19 774.561C469.806 813.287 484.266 817.104 518.579 820.092C534.41 821.039 550.553 824.764 566.331 822.034C574.737 820.697 569.605 809.541 564.219 807.576C557.538 804.383 550.159 803.767 542.909 802.902C529.337 800.688 520.053 787.14 523.744 774.172C524.908 770.084 524.723 766.637 523.446 762.834C520.629 754.443 517.989 745.993 515.113 737.057ZM371.9 688.547C357.329 686.599 351.495 673.928 341.928 679.287C320.374 692.32 307.272 728.235 297.085 750.792C290.959 767.731 288.215 791.761 312.274 771.9C328.143 757.403 342.133 740.963 356.915 725.381C361.031 720.559 366.207 717.586 371.901 715.035C371.9 706.262 371.9 697.516 371.9 688.547ZM198.465 470.359C193.386 502.396 190.364 534.632 183.345 566.316C182.531 570.541 183.197 571.824 187.079 573.757C207.486 581.599 229.741 583.397 250.259 591.116C262.585 595.538 274.874 600.063 287.162 604.588C292.43 606.528 295.312 605.595 297.805 600.624C307.452 576.325 313.77 550.733 321.869 525.871C325.545 514.711 311.863 510.142 304.156 505.286C303.582 509.242 303.089 512.643 302.599 516.024C316.273 520.332 311.808 534.245 309.314 544.729C306.261 555.598 302.933 566.39 299.709 577.211C297.257 584.601 296.164 597.652 285.31 594.766C260.704 585.887 238.629 570.91 213.605 562.831C202.871 559.588 202.761 547.285 203.307 538.061C204.725 524.447 206.629 510.86 208.797 497.34C211.301 480.583 231.121 487.791 241.495 492.176C243.35 492.858 243.331 492.91 244.126 490.456C229.064 483.902 213.583 478.262 198.465 470.359ZM792.195 274.018C791.947 273.934 791.699 273.85 791.45 273.766C783.246 287.549 776.952 302.451 772.445 317.863C771.615 320.871 770.704 323.867 769.635 326.797C768.211 331.149 762.467 330.145 762.5 325.603C762.751 313.485 763.522 301.361 763.895 289.24C763.987 286.755 763.543 284.336 762.528 281.426C755.963 293.15 752.548 306.209 749.31 319.182C746.37 334.154 731.682 321.257 722.929 318.399C715.386 314.946 707.79 311.609 699.637 309.844C692.459 308.197 686.044 309.878 694.533 316.443C712.103 328.358 732.545 340.765 738.809 362.417C739.277 364.174 740.342 364.631 741.844 364.938C753.788 367.42 765.272 369.897 777.378 372.085C788.768 348.132 802.908 325.968 815.405 302.832C804.961 311.642 796.037 322.809 786.611 332.839C778.58 339.726 775.294 326.989 778.01 321.01C782.477 305.285 788.42 289.894 792.195 274.018ZM270.718 423.758C279.639 402.291 291.031 384.822 307.412 368.818C287.31 356.893 265.958 346.133 242.221 347.599C205.031 351.912 259.628 411.938 270.718 423.758ZM246.368 537.92C246.13 537.88 245.892 537.839 245.654 537.799C241.218 544.943 230.302 556.704 226.605 542.27C225.521 527.758 234.539 512.907 239.785 499.665C234.173 496.712 216.517 488.511 215.925 499.217C214.009 512.051 212.137 524.893 210.491 537.763C210.083 544.792 209.049 554.177 217.548 556.797C226.529 560.184 235.394 563.926 244.125 567.918C257.477 573.956 270.334 581.092 283.8 586.889C288.405 588.798 288.933 588.458 290.332 583.761C291.606 575.073 312.428 524.174 301.782 523.256C298.574 533.03 295.5 558.941 280.211 551.28C273.604 547.726 273.473 540.098 270.647 533.92C266.596 545.308 264.021 557.427 254.617 565.48C238.984 572.733 245.261 545.541 246.368 537.92ZM251.231 557.959C251.508 558.051 251.786 558.143 252.063 558.234C262.725 542.315 266.314 522.715 270.932 504.373C271.289 502.021 272.678 499.318 275.482 499.944C278.351 500.312 278.466 503.431 278.233 505.72C277.567 513.754 276.979 521.811 278.095 529.822C279.141 533.795 279.997 545.144 285.07 545.319C293.456 543.674 297.212 496.684 299.575 486.849C286.413 484.919 273.651 484.621 261.275 479.086C247.364 495.464 239.541 515.734 233.701 536.14C233.23 537.665 232.946 539.319 233.884 541.545C242.829 530.821 248.251 518.092 254.739 505.871C257.54 499.813 264.378 502.823 261.623 509.006C256.055 524.785 252.183 541.263 251.231 557.959ZM518.625 388.915C516.483 380.694 515.498 372.39 512.151 364.576C501.061 373.794 483.71 372.014 473.979 361.809C472.044 359.751 470.042 357.757 467.703 355.355C466.695 359.587 465.712 363.135 465.036 366.741C464.515 369.523 463.831 372.064 460.612 373.354C469.786 395.309 501.563 410.912 518.625 388.915ZM341.711 557.945C346.134 543.637 350.317 529.81 352.692 515.126C344.776 517.405 337.453 519.514 330.654 521.472C322.774 549.017 314.354 575.852 305.364 602.934C312.999 600.113 330.452 595.241 332.047 587.114C333.953 580.917 335.942 574.746 337.969 568.588C339.276 564.618 339.241 564.41 335.137 562.028C333.778 565.053 332.198 581.33 328.057 579.222C322.58 576.627 327.531 568.709 327.711 564.246C327.959 561.644 327.408 558.873 328.645 556.41C330.325 553.504 331.321 550.361 332.328 547.188C333.966 543.169 339.381 545.018 338.547 549.173C338.099 551.118 337.452 553.034 337.067 555.011C338.596 555.977 339.902 556.802 341.711 557.945ZM317.816 461.372C300.895 456.168 286.412 447.192 273.278 435.112C269.079 446.024 266.82 456.36 263.581 467.387C260.522 478.874 292.906 478.363 300.08 480.406C303.447 477.207 303.447 477.207 307.107 478.108C310.85 474.954 314.414 469.45 317.816 461.372ZM527.28 372.015C531.445 377.989 528.16 386.322 524.455 391.743C501.859 425.188 443.79 392.749 454.744 356.553C452.503 356.418 450.514 356.298 448.27 356.162C444.341 385.712 467.738 417.936 506.809 409.555C524.157 405.698 538.862 388.456 533.972 370.288C529.336 369.739 529.336 369.739 527.28 372.015ZM256.095 469.346C244.337 465.608 233.278 459.709 221.243 457.55C214.351 457.526 207.866 459.758 201.203 462.546C204.613 465.518 208.315 467.205 212.037 468.797C224.264 473.836 236.325 479.467 248.719 484.042C250.868 481.443 252.662 478.854 254.882 476.704C257.213 474.447 257.756 472.205 256.095 469.346ZM410.683 261.541C406.846 252.65 402.544 243.929 405.866 234.249C410.226 219.293 423.629 211.496 436.564 204.693C455.23 193.426 475.814 186.047 497.709 185.402C476.984 174.988 443.867 196.305 424.636 205.466C399.66 218.208 396.317 238.42 408.124 262.5C408.954 262.189 409.593 261.95 410.683 261.541ZM414.776 342.994C411.364 335.158 408.13 327.666 402.714 321.217C391.236 309.747 384.014 331.68 382.71 340.533C393.446 341.356 403.808 342.152 414.776 342.994ZM305.352 497.265C313.764 502.376 322.681 506.091 328.376 514.46C335.149 512.446 341.835 510.458 348.521 508.47C334.711 500.796 321.521 492.649 307.205 485.954C306.534 490.049 305.955 493.579 305.352 497.265ZM327.454 456.407C337.127 459.579 350.226 458.094 355.938 450.642C354.388 445.509 347.453 432.397 344.174 428.587C337.16 436.975 332.135 446.42 327.454 456.407ZM526.645 317.628C526.586 311.168 520.553 307.996 515.164 310.509C508.21 314.283 488.143 320.92 496.632 331.418C499.445 334.263 504.234 331.39 506.35 328.368C508.153 326.425 509.523 322.26 512.745 324.509C516.196 327.302 522.866 327.332 524.82 323.38C525.668 321.576 526.053 319.553 526.645 317.628ZM349.738 423.151C353.66 430.287 357.449 437.182 361.261 444.118C365.876 438.26 370.649 419.256 369.56 411.287C363.731 412.767 355.168 417.89 349.738 423.151ZM418.387 262.738C418.566 262.619 418.745 262.5 418.923 262.381C413.721 251.454 411.253 234.713 419.944 224.996C422.353 222.537 425.154 220.406 427.997 218.443C431.501 215.745 436.092 214.467 439.057 211.109C436.31 209.611 425.691 216.936 422.402 218.457C407.706 227.568 409.23 250.162 418.387 262.738ZM580.933 485.939C577.47 481.272 572.386 478.309 567.69 473.735C569.094 480.269 570.349 486.111 571.72 492.489C575.107 490.08 578.01 488.017 580.933 485.939ZM511.623 206.158C514.676 208.378 517.085 210.129 519.493 211.881C519.688 211.701 519.883 211.521 520.078 211.342C519.007 209.154 517.935 206.967 516.798 204.643C515.176 205.117 513.85 205.505 511.623 206.158ZM507.264 192.527C505.291 189.901 503.129 188.277 500.939 187.104C499.885 188.714 498.971 190.108 497.994 191.6C500.979 191.899 503.877 192.188 507.264 192.527ZM436.309 315.37C437.603 315.544 438.367 315.646 439.529 315.802C438.747 314.683 438.199 313.898 437.414 312.774C437 313.746 436.755 314.323 436.309 315.37Z" fill="black"/>
<path d="M870.655 769.267C868.156 771.742 865.303 771.592 862.287 770.571C829.623 759.211 796.477 749.09 764.034 737.165C762.08 736.205 761.365 734.705 761.78 733.128C762.454 729.927 767.053 730.629 769.583 731.635C801.995 742.624 834.738 752.751 866.965 764.236C869.107 765.21 870.15 767.038 870.655 769.267Z" fill="black"/>
<path d="M832.396 123.963C811.226 154.88 784.074 181.995 766.957 215.763C765.848 218.603 760.981 219.526 761.198 215.493C771.95 186.419 794.153 163.686 812.143 138.966C815.949 134.005 819.835 129.103 823.772 124.245C825.929 120.837 832.029 117.025 832.396 123.963Z" fill="black"/>
<path d="M107.992 725.066C107.516 721.289 109.544 719.031 112.029 716.956C137.849 695.744 162.513 673.139 189.097 652.867C193.852 648.781 197.834 654.034 192.873 657.782C167.684 679.189 142.493 700.594 117.282 721.974C113.204 725.432 112.277 725.681 107.992 725.066Z" fill="black"/>
<path d="M291.423 915.414C303.077 884.153 314.873 852.884 323.927 820.741C325.243 817.911 328.852 819.411 329.37 821.894C330.986 825.689 295.356 944.254 291.423 915.414Z" fill="black"/>
<path d="M156.157 186.001C162.999 185.114 167.566 189.98 172.81 193.278C196.397 209.657 220.426 225.458 243.768 242.163C246.586 244.272 243.853 248.706 240.709 247.2C214.467 231.73 189.934 213.301 164.612 196.333C160.859 193.724 157.043 190.866 156.157 186.001Z" fill="black"/>
<path d="M53.309 457.285C79.323 460.415 105.233 464.344 131.231 467.584C133.335 467.784 135.956 468.626 135.76 471.192C135.539 475.151 130.548 474.485 127.751 474.385C118.325 473.242 108.913 471.98 99.498 470.746C83.106 468.369 66.511 467.014 50.284 463.664C47.205 462.93 45.752 461.283 46.265 459.836C47.435 456.978 50.854 457.625 53.29 457.478C53.296 457.414 53.303 457.35 53.309 457.285Z" fill="black"/>
<path d="M697.239 670.31C695.256 691.881 687.917 711.023 675.719 728.433C673.164 731.851 665.576 741.517 661.349 737.552C660.074 736.06 660.728 734.672 663.141 732.102C678.774 715.732 687.331 693.999 689.89 671.654C689.44 664.962 697.053 664.315 697.239 670.31Z" fill="black"/>
<path d="M633.987 913.817C634.237 920.402 628.652 917.676 626.461 914.643C614.081 897.398 600.633 880.854 589.251 862.925C587.984 860.652 586.152 856.937 589.321 855.344C591.466 854.217 593.264 855.977 594.238 857.728C605.629 877.576 623.076 893.869 633.987 913.817Z" fill="black"/>
<path d="M698.66 257.844C704.846 258.461 704.44 264.941 698.731 265.854C691.082 267.675 684.933 272.006 679.673 277.612C671.644 286.714 663.999 297.736 663.685 310.291C663.682 312.485 663.521 315.437 660.756 315.687C659.283 315.87 657.914 314.718 657.61 312.843C654.386 290.096 677.048 263.493 698.66 257.844Z" fill="black"/>
<path d="M172.784 461.711C175.393 452.161 181.559 442.938 188.679 435.913C192.844 432.385 206.705 416.519 211.419 424.221C212.194 426.085 211.342 427.954 208.931 429.126C197.002 434.925 188.743 444.459 182.209 455.629C180.431 458.739 179.731 462.678 178.626 466.067C176.97 468.455 175.063 468.216 173.554 465.99C172.99 465.033 173.096 463.681 172.784 461.711Z" fill="black"/>
<path d="M366.152 239.878C364.859 232.586 377.382 195.163 386.821 201.268C387.885 202.31 388.07 203.645 387.484 204.924C376.401 218.589 370.578 233.785 373.291 251.585C373.673 255.013 368.403 255.678 367.981 252.294C367.293 248.187 366.2 244.047 366.152 239.878Z" fill="black"/>
<path d="M711.893 707.944C711.341 713.865 699.934 739.701 692.335 734.1C691.273 733.016 691.235 731.313 692.349 729.834C697.833 724.054 701.645 717.036 703.986 709.437C704.59 706.797 706.164 702.549 709.308 703.42C710.972 703.803 711.949 705.388 711.893 707.944Z" fill="black"/>
<path d="M348.611 229.41C348.424 224.543 351.574 207.088 358.764 210.227C360.774 211.255 360.739 214.201 359.402 215.93C354.57 222.363 354.752 230.116 354.671 237.683C354.558 239.003 353.888 239.967 352.474 240.129C348.021 240.549 349.508 232.313 348.611 229.41Z" fill="black"/>
<path d="M631.023 159.279C632.129 153.74 635.096 148.012 637.107 142.658C637.842 140.305 640.246 138.935 642.576 139.247C648.08 140.51 638.262 156.657 637.427 160.504C636.016 165.298 630.479 164.298 631.023 159.279Z" fill="black"/>
<path d="M656.201 265.973C656.579 261.669 663.847 243.255 670.549 248.796C674.597 253.271 664.905 256.184 662.31 268.171C660.743 273.342 655.566 271.794 656.201 265.973Z" fill="black"/>
<path d="M768.27 625.207C763.1 623.755 757.902 622.391 752.774 620.803C750.956 620.24 750.237 618.652 750.561 617.158C750.915 615.529 752.438 614.341 754.394 614.707C759.564 615.673 764.721 616.745 769.829 617.997C775.039 619.486 773.398 624.973 768.27 625.207Z" fill="black"/>
<path d="M869.129 307.196C866.308 307.026 864.135 306.816 863.828 303.93C863.761 302.487 864.489 301.256 865.88 300.847C870.143 299.596 874.423 298.378 878.749 297.377C880.667 296.933 882.729 298.312 883.115 299.793C884.179 305.488 872.309 305.67 869.129 307.196Z" fill="black"/>
<path d="M675.938 800.23C671.33 798.254 667.568 793.551 663.694 790.321C662.105 788.84 661.918 787.519 662.811 786.19C663.751 784.79 665.536 784.233 667.253 785.523C671.07 788.39 674.678 791.543 678.262 794.703C679.977 796.822 680.002 800.556 675.938 800.23Z" fill="black"/>
<path d="M346.589 139.219C351.284 142.664 353.218 149.158 356.341 153.986C358.743 158.068 353.714 160.809 351.341 157.001C349.818 153.35 337.644 139.666 346.589 139.219Z" fill="black"/>
<path d="M176.919 422.907C177.815 418.976 181.369 415.534 183.683 412.247C185.194 410.294 188.35 410.653 189.839 412.323C190.658 413.694 190.375 416.226 188.94 417.405C186.738 420.072 184.475 422.689 182.319 425.391C180.299 428.27 176.548 427.015 176.919 422.907Z" fill="black"/>
<path d="M146.682 559.988C150.934 560.228 151.858 564.783 147.807 566.05C143.012 567.121 138.165 569.895 133.232 569.492C131.19 568.91 130.597 566.917 131.946 565.253C132.385 564.712 132.988 564.151 133.627 563.949C137.962 562.576 142.327 561.297 146.682 559.988Z" fill="black"/>
<path d="M178.167 361.708C174.277 360.392 162.74 361.072 163.249 355.973C164.516 350.496 174.395 355.405 178.28 355.587C182.106 356.48 182.262 361.578 178.167 361.708Z" fill="black"/>
<path d="M448.458 834.845C447.618 838.784 449.043 848.94 443.979 849.786C442.011 849.42 441.207 846.833 441.431 845.028C441.978 841.268 442.231 837.386 443.216 833.721C444.642 828.949 449.441 830.896 448.458 834.845Z" fill="black"/>
<path d="M232.278 774.887C222.986 773.098 236.596 765.362 239.427 763.585C241.389 762.348 243.029 762.508 243.904 763.835C244.741 765.105 244.359 766.929 242.664 768.227C239.398 770.441 236.009 773.69 232.278 774.887Z" fill="black"/>
<path d="M380.69 686.565C410.563 715.126 470.243 709.113 472.927 661.348C473.11 627.248 448.72 600.34 428.04 575.768C467.505 560.127 506.82 545.045 547.058 531.695C548.764 531.12 550.343 531.209 552.229 531.774C566.013 534.942 580.418 535.129 593.983 539.565C650.035 553.923 676.844 621.457 658.435 673.714C643.481 724.51 600.384 772.869 544.183 771.931C537.33 771.309 532.443 768.065 530.164 761.33C526.74 751.211 523.26 741.111 519.861 731.171C526.786 721.158 532.47 711.613 537.89 700.708C561.986 699.701 587.067 691.675 602.695 672.333C622.667 648.48 607.844 613.922 581.898 601.671C570.59 596 537.881 582.895 536.363 604.189C556.785 675.926 516.225 753.782 444.271 775.458C428.199 780.428 410.634 786.257 393.835 781.589C377.794 777.366 381.278 758.789 380.309 745.993C379.907 728.442 379.612 710.889 379.332 693.335C379.301 691.221 379.179 689.015 380.69 686.565Z" fill="black"/>
<path d="M564.787 495.826C549.646 503.62 532.153 504.225 516.403 498.012C455.845 475.195 449.179 403.487 425.949 351.207C431.873 352.491 437.209 353.647 442.722 354.841C431.766 427.142 541.297 442.781 541.99 372.378C578.776 390.942 602.877 427.296 639.975 445.535C703.478 477.728 734.399 428.291 723.794 368.33C741.273 371.79 758.599 375.134 775.777 379.144C777.296 381.078 779.155 381.188 780.968 380.243C790.052 389.037 756.145 449.848 748.774 460.483C709.052 524.149 628.045 522.483 577.327 472.825C570.035 466.435 564.333 458.691 558.791 450.812C555.982 447.338 551.012 450.829 553.144 454.6C554.945 458.494 558.845 461.243 558.915 465.837C560.11 475.906 563.865 485.683 564.787 495.826Z" fill="white"/>
<path d="M320.807 454.793C307.545 452.111 285.055 438.615 276.17 428.002C300.203 365.877 348.69 337.305 414.537 349.485C416.898 349.765 418.021 350.646 418.854 352.899C435.161 391.694 444.159 434.356 467.772 469.594C489.732 499.632 529.851 519.465 565.801 503.729C566.755 509.339 569.819 519.248 561.786 520.869C545.104 524.499 529.098 530.589 512.991 536.144C488.483 545.038 463.847 553.6 439.859 563.879C433.455 566.623 426.852 568.94 419.79 569.436C414.918 569.926 409.884 568.446 408.773 563.123C394.395 512.786 399.181 458.171 419.926 410.296C425.536 411.812 428.537 416.183 431.893 420.346C433.029 421.464 434.524 421.695 435.877 420.838C438.635 419.198 436.866 415.891 435.503 413.865C425.327 398.896 402.265 399.492 385.933 400.19C353.73 402.457 332.968 426.961 320.807 454.793Z" fill="white"/>
<path d="M493.27 246.51C499.927 244.376 506.055 243.099 512.764 241.657C514.34 241.33 515.228 240.498 515.059 238.99C512.322 233.644 492.14 239.704 487.409 241.749C485.153 242.627 484.684 244.261 485.763 246.832C487.528 251.035 489.367 255.211 491.303 259.338C497.935 272.813 503.396 286.445 510.879 299.535C505.596 299.944 501.254 298.721 497.513 303.245C494.603 306.428 491.56 309.614 489.325 313.258C486.502 317.863 482.766 318.629 477.754 318.584C462.678 317.932 452.302 304.821 447.104 292.019C441.227 273.203 432.096 240.503 453.965 229.087C458.364 227.053 465.569 221.657 470.261 222.479C485.167 227.138 499.726 232.371 515.608 230.961C524.723 246.675 533.456 263.249 535.419 281.678C536.487 287.441 533.745 292.674 531.877 297.954C530.001 303.769 525.241 293.596 514.728 296.606C507.734 280.277 500.62 263.67 493.27 246.51ZM480.922 247.133C480.805 246.707 480.687 246.28 480.57 245.854C470.784 244.458 461.149 248.315 452.676 252.924C450.162 253.736 448.56 257.821 452.326 257.689C459.015 255.119 465.882 252.927 472.697 250.679C475.553 249.691 478.67 249.338 480.922 247.133ZM475.954 256.912C470.845 256.895 466.624 260.394 466.202 264.31C465.536 266.966 468.977 268.301 469.994 265.623C473.692 255.886 479.496 266.199 481.966 261.372C483.199 257.949 477.481 257.621 475.954 256.912ZM510.924 247.468C505.91 247.521 502.542 250.11 501.495 253.788C501.099 255.178 500.979 256.56 502.555 257.131C504.088 257.686 504.526 256.371 505.057 255.238C508.931 247.175 512.68 254.922 516.642 252.133C518.689 249.11 511.89 248.165 510.924 247.468Z" fill="white"/>
<path d="M515.113 737.055C517.989 745.99 520.629 754.441 523.446 762.832C524.723 766.636 524.908 770.082 523.744 774.17C520.053 787.137 529.337 800.686 542.909 802.899C550.157 803.763 557.54 804.381 564.219 807.573C569.628 809.547 574.718 820.685 566.332 822.03C550.555 824.762 534.41 821.034 518.579 820.091C484.282 817.111 469.793 813.267 472.19 774.557C472.046 772.09 473.328 770.963 475.289 769.883C490.832 761.492 503.376 750.381 515.113 737.055Z" fill="white"/>
<path d="M371.9 688.546C371.9 697.515 371.9 706.261 371.9 715.033C366.202 717.585 361.034 720.557 356.914 725.379C342.133 740.961 328.143 757.401 312.274 771.899C288.296 791.699 290.906 767.873 297.086 750.791C307.205 728.339 320.456 692.21 341.926 679.285C351.479 673.918 357.37 686.616 371.9 688.546Z" fill="white"/>
<path d="M198.465 470.355C213.583 478.258 229.064 483.898 244.127 490.451C243.332 492.904 243.351 492.852 241.496 492.17C231.12 487.77 211.298 480.586 208.798 497.335C206.629 510.855 204.726 524.442 203.308 538.056C202.76 547.279 202.873 559.584 213.606 562.826C238.63 570.906 260.705 585.883 285.311 594.763C296.168 597.644 297.251 584.596 299.71 577.207C302.934 566.386 306.262 555.594 309.315 544.725C311.795 534.244 316.287 520.33 302.6 516.02C303.09 512.64 303.583 509.238 304.157 505.282C311.89 510.114 325.531 514.722 321.869 525.866C313.77 550.729 307.452 576.321 297.806 600.62C295.311 605.591 292.429 606.524 287.162 604.584C274.874 600.059 262.585 595.534 250.259 591.111C229.741 583.392 207.486 581.594 187.079 573.753C183.197 571.82 182.531 570.537 183.345 566.312C190.364 534.628 193.387 502.393 198.465 470.355Z" fill="white"/>
<path d="M792.195 274.016C788.42 289.892 782.478 305.282 778.01 321.007C775.299 326.975 778.575 339.733 786.613 332.837C796.038 322.808 804.963 311.639 815.406 302.83C802.908 325.965 788.768 348.129 777.379 372.083C765.275 369.896 753.787 367.418 741.845 364.936C740.343 364.628 739.278 364.172 738.81 362.415C732.542 340.76 712.108 328.36 694.534 316.441C686.144 309.963 692.296 308.162 699.638 309.843C707.791 311.607 715.387 314.945 722.93 318.397C731.681 321.257 746.373 334.15 749.311 319.181C752.55 306.205 755.96 293.153 762.528 281.425C763.544 284.335 763.987 286.755 763.895 289.239C763.522 301.36 762.751 313.484 762.5 325.602C762.467 330.143 768.211 331.149 769.635 326.796C770.704 323.866 771.615 320.871 772.445 317.863C776.951 302.451 783.245 287.549 791.45 273.766C791.698 273.849 791.946 273.932 792.195 274.016Z" fill="white"/>
<path d="M246.368 537.918C245.261 545.509 238.987 572.745 254.618 565.477C264.025 557.417 266.592 545.312 270.648 533.917C273.471 540.091 273.607 547.728 280.212 551.277C295.513 558.926 298.56 533.057 301.783 523.254C312.448 524.26 291.6 574.99 290.334 583.759C288.934 588.456 288.406 588.796 283.801 586.887C270.336 581.09 257.479 573.954 244.126 567.916C235.394 563.924 226.53 560.182 217.549 556.795C209.05 554.175 210.084 544.79 210.491 537.76C212.138 524.89 214.009 512.048 215.925 499.214C216.477 488.477 234.268 496.76 239.785 499.662C234.541 512.896 225.52 527.76 226.604 542.267C230.302 556.698 241.216 544.943 245.653 537.796C245.892 537.837 246.13 537.877 246.368 537.918Z" fill="white"/>
<path d="M251.231 557.959C252.183 541.263 256.054 524.785 261.622 509.006C264.378 502.822 257.539 499.814 254.738 505.871C248.248 518.094 242.829 530.819 233.883 541.545C232.945 539.319 233.229 537.665 233.7 536.14C239.54 515.735 247.364 495.462 261.274 479.086C273.65 484.622 286.412 484.92 299.574 486.849C297.208 496.663 293.482 543.597 285.071 545.32C279.977 545.124 279.15 533.798 278.094 529.823C276.979 521.812 277.566 513.754 278.233 505.72C278.467 503.436 278.351 500.307 275.482 499.944C272.68 499.326 271.288 502.015 270.931 504.373C266.313 522.714 262.725 542.315 252.063 558.234C251.786 558.142 251.509 558.051 251.231 557.959Z" fill="white"/>
<path d="M518.625 388.914C501.551 410.909 469.797 395.311 460.611 373.354C463.83 372.064 464.514 369.522 465.035 366.741C465.711 363.135 466.694 359.587 467.702 355.355C470.042 357.756 472.044 359.751 473.979 361.808C483.711 372.013 501.059 373.794 512.151 364.576C515.499 372.389 516.483 380.693 518.625 388.914Z" fill="white"/>
<path d="M341.711 557.943C339.902 556.8 338.596 555.975 337.067 555.008C337.452 553.032 338.099 551.115 338.547 549.17C339.379 545.02 333.967 543.161 332.328 547.186C331.321 550.36 330.324 553.501 328.644 556.408C327.409 558.872 327.959 561.641 327.712 564.244C327.53 568.718 322.58 576.612 328.056 579.22C332.189 581.351 333.79 565.012 335.137 562.026C339.241 564.408 339.275 564.616 337.969 568.586C335.942 574.744 333.953 580.916 332.047 587.112C330.437 595.251 313.033 600.095 305.364 602.933C314.354 575.851 322.774 549.015 330.654 521.471C337.453 519.513 344.776 517.404 352.692 515.125C350.317 529.808 346.134 543.634 341.711 557.943Z" fill="white"/>
<path d="M317.816 461.368C314.415 469.446 310.85 474.95 307.107 478.104C303.447 477.204 303.447 477.204 300.08 480.402C292.966 478.371 260.505 478.863 263.58 467.384C266.822 456.353 269.077 446.027 273.278 435.109C286.412 447.188 300.895 456.164 317.816 461.368Z" fill="white"/>
<path d="M527.28 372.014C529.337 369.738 529.337 369.738 533.972 370.287C538.857 388.461 524.159 405.69 506.81 409.552C467.73 417.929 444.353 385.718 448.27 356.16C450.514 356.295 452.502 356.415 454.744 356.551C443.791 392.749 501.859 425.185 524.454 391.741C528.173 386.325 531.434 377.986 527.28 372.014Z" fill="white"/>
<path d="M256.095 469.342C257.756 472.201 257.213 474.443 254.882 476.7C252.662 478.85 250.868 481.439 248.719 484.038C236.324 479.463 224.264 473.833 212.036 468.794C208.315 467.202 204.612 465.514 201.202 462.542C207.865 459.754 214.35 457.522 221.242 457.547C233.281 459.706 244.333 465.603 256.095 469.342Z" fill="white"/>
<path d="M305.352 497.264C305.956 493.578 306.534 490.047 307.205 485.953C321.521 492.648 334.711 500.795 348.521 508.469C341.835 510.457 335.148 512.445 328.376 514.459C322.68 506.09 313.764 502.375 305.352 497.264Z" fill="white"/>
<path d="M526.645 317.627C526.053 319.552 525.668 321.575 524.82 323.38C522.859 327.331 516.201 327.302 512.745 324.508C509.523 322.259 508.152 326.424 506.35 328.368C504.238 331.386 499.44 334.265 496.632 331.417C488.145 320.913 508.201 314.29 515.163 310.508C520.551 308 526.587 311.164 526.645 317.627ZM502.026 319.921C505.055 325.718 515.036 321.358 518.074 316.497C514.868 317.345 512.388 318.093 509.865 318.642C507.306 319.2 504.416 317.997 502.026 319.921Z" fill="white"/>
<path d="M418.387 262.736C409.229 250.169 407.707 227.561 422.402 218.456C425.727 216.909 436.298 209.625 439.058 211.108C436.094 214.464 431.501 215.744 427.998 218.442C425.155 220.405 422.354 222.536 419.946 224.995C411.253 234.72 413.722 251.439 418.925 262.379C418.744 262.498 418.565 262.617 418.387 262.736Z" fill="white"/>
<path d="M436.309 315.368C436.755 314.321 437 313.744 437.414 312.773C438.199 313.896 438.747 314.682 439.529 315.801C438.367 315.645 437.603 315.542 436.309 315.368Z" fill="white"/>
<path d="M480.922 247.132C478.669 249.337 475.554 249.689 472.697 250.677C465.882 252.925 459.015 255.118 452.326 257.687C448.576 257.816 450.146 253.74 452.677 252.923C461.147 248.313 470.785 244.456 480.57 245.852C480.687 246.279 480.805 246.706 480.922 247.132Z" fill="black"/>
<path d="M475.954 256.914C477.482 257.622 483.198 257.953 481.966 261.375C479.52 266.197 473.674 255.899 469.994 265.627C468.984 268.299 465.531 266.973 466.202 264.313C466.624 260.396 470.845 256.896 475.954 256.914Z" fill="black"/>
<path d="M510.924 247.469C511.893 248.159 518.686 249.116 516.641 252.134C512.694 254.922 508.92 247.181 505.056 255.24C504.525 256.372 504.087 257.688 502.554 257.133C500.978 256.562 501.099 255.18 501.494 253.79C502.541 250.111 505.909 247.522 510.924 247.469Z" fill="black"/>
<path d="M502.026 319.919C504.416 317.995 507.306 319.198 509.865 318.641C512.388 318.091 514.868 317.344 518.074 316.496C515.047 321.346 505.055 325.72 502.026 319.919Z" fill="black"/>
</svg>
