<svg width="960" height="960" viewBox="0 0 960 960" fill="none" xmlns="http://www.w3.org/2000/svg">
<path d="M586.21 919.23C567.35 917.08 537.73 921.17 530.76 897.88C529.44 893.23 530.39 888.58 530.78 883.87C530.83 878.16 530.73 872.46 532.15 866.91C533.21 819.31 522.22 771.63 500.89 729.09C480.03 734.37 459.22 738.28 437.85 737.28C423.88 742.14 409.26 743.16 394.72 745.11C392.52 761.54 382.96 773.33 366.66 777.37C358.15 778.28 349.42 776.04 340.89 775.5C326.76 773.75 312.43 772.62 298.54 769.52C294.88 767.13 290.66 767.2 286.57 766.56C276.23 764.64 265.73 763.38 255.48 761.1C245.05 758.59 233 759.64 225.89 768.69C207.59 785.97 195.33 809.51 174.07 823.57C166.63 827.74 159.74 823.73 160.84 814.81C164.82 788.09 170.02 722.44 190.41 705.9C196.33 700.51 219.34 709.45 227.97 710.44C246.12 714.77 264.57 718.35 282.98 721.25C297.53 720.62 312.06 723.57 326.45 723.15C323.3 718.5 317.16 714.79 316.79 709.39C314.41 696.32 313.28 683.02 311.31 669.86C308.98 660.06 307.93 650.05 306.39 640.11C305.21 632.75 301.81 624.73 307.38 618.22C308.76 616.47 309.88 614.9 311.96 613.71C326.21 606.08 338.07 594.88 345.13 580.13C344.98 579.95 344.83 579.77 344.68 579.6C289.54 594.84 234.05 608.56 178.39 621.68C175.04 622.44 171.59 624.19 169.56 620.22C165.98 615.31 165.56 609.47 164.98 603.89C163.13 586.07 158.94 568.7 155.56 551.17C153.7 539.75 144.82 520.46 161.48 516.49C223.25 501.9 284.4 484.58 345.51 467.4C343.07 453.39 334.37 422.66 320.21 417C307.3 411.16 295 404.03 283.15 396.23C275.65 391.95 268.5 387.07 262 381.33C240.29 361 223.61 333.04 222.6 302.76C220.85 273.32 226.66 249.09 240.99 223.38C244.19 213.56 239.85 216.29 250.24 208.93C247.63 195.85 242.95 182.77 243.04 169.28C242.97 165.05 245.92 159.05 251.05 160.7C260.36 163.82 263.7 173.12 269.45 180.52C271.51 171.74 269.54 162.23 273.16 153.81C275.51 148.81 280.66 149.82 282.8 153.16C288.7 162.27 288.67 173.13 291.72 183.27C295.34 177.05 303.34 151.44 311.45 153.61C314.27 154.59 314.8 157.28 314.83 159.65C315.11 173.08 310.78 185.91 308.39 198.92C314.12 195.83 319.06 192 325.58 191.35C330.51 190.91 333.29 194.46 332.06 199.25C329.78 209.29 320.8 214.45 313.49 220.55C307.89 225.63 303.74 232.07 299.02 237.92C288.92 250.75 279.33 264.6 273.34 279.84C262.63 307.23 282.08 334.9 309.42 341.17C336.46 348.63 364.85 341.14 391.07 333.73C396.25 332.28 401.46 331.02 406.38 328.79C413.55 327.18 419.73 327.66 424.5 320.51C423.8 318.67 422.55 318.79 420.96 319.33C407.7 323.86 394.19 323.14 380.7 320.85C373.41 319.61 367.46 315.44 362.03 310.64C355.41 305.27 363.17 299.6 365.23 294.17C359.35 295.06 323.24 303.67 331.25 289.41C332.3 288.32 333.7 287.41 335.12 286.86C342.05 283.92 347.73 277.81 349.15 270.72C347.33 271.09 345.5 271.45 343.67 271.83C336.42 273.91 313.21 270.18 315.07 260.4C315.67 258.16 317.49 257.31 319.59 256.91C334.29 254.53 348.95 251.45 360.83 241.9C367.21 237.37 373.29 232.05 376.35 224.64C378.88 218.08 384.29 213.77 388.52 208.42C390.93 204.91 393.29 201.35 395.49 197.71C399.39 185.57 402.29 173.74 413.12 165.57C423.58 154.78 436.96 148.31 451.75 146.3C469.1 143.02 487.32 144.33 504.07 150.16C526.68 160.01 549.07 181.42 552.6 206.67C554.47 227.81 543.73 246.95 533.24 264.41C530.7 269.15 525.23 271.65 522.83 276.43C511.82 296.62 496.39 314.97 476.8 327.25C478.11 329.88 478.95 329.2 481.29 329.21C486.13 331.55 491.44 330.17 496.46 331.14C500.2 331.86 504 332.25 507.74 332.96C509.14 333.22 510.9 333.59 511.71 334.56C513.38 336.58 515.65 336.86 517.81 337.7C550.03 350.37 581.63 367.4 604.43 394.03C627.01 386.67 649.82 380.87 671.8 371.94C666.66 357.6 661.73 343.95 656.98 329.59C655.15 322.37 649.35 305.22 662.69 307.51C728.72 323.37 795.26 337.36 861.59 351.77C866.43 353.52 867.69 357.52 864.61 361.68C823.76 413.76 781.22 464.63 747.46 521.79C744.27 527.21 736.42 529.79 734.41 522C733.24 517.44 732.6 512.74 731.51 508.16C727.79 492.64 723.99 477.43 720.16 461.89C696.37 466.26 712.28 472.8 689.51 489.61C686.24 491.5 684.65 495.63 680.71 496.53C675.83 497.81 672.95 500.97 670.27 505.11C666.5 510.93 662.13 516.43 657.5 521.61C630.26 550.2 597.78 538.92 580.55 506.33C555.06 514.37 530.03 523.1 504.65 531.37C502.59 532.05 501.54 533.1 500.98 535.16C496.24 550.85 492.06 566.59 490.26 582.93C489.26 588.06 489.24 588.08 493.47 590.87C502.18 596.62 510.95 602.27 519.61 608.1C544.11 626.09 565.68 650.22 574.01 679.99C574.54 681.25 574.73 682.38 574.31 683.84C573.71 685.96 573.94 688.31 573.36 690.45C572.17 694.88 569.16 698.3 566.3 702.04C574.6 721.6 576.24 742.7 577.51 763.66C579.51 781.22 580.14 799.05 577.47 816.58C575.23 828.45 572.77 840.32 569.49 851.96C569.04 853.57 569.32 854.61 570.83 855.63C582.53 863.58 594.27 871.41 606.97 877.76C616.55 883.49 639.1 892.23 638.71 905C638.77 924.9 599.62 917.94 586.21 919.23ZM664.66 318.43C684.57 394.78 705.38 369.99 609.32 403.16C590.15 410.27 568.99 413.78 550.83 422.78C543.88 429.61 537.74 437.05 532.02 444.93C516.14 467.54 513.09 496.34 505.24 522.32C540.37 510.83 575.08 499.47 609.88 488.09C610.59 481.7 613.79 476.52 619.72 473.89C624.14 471.55 627.56 473.73 630.69 477.13C632.34 472.27 633.68 468.05 636.2 463.78C643.25 453.59 651.87 464.46 654.56 472.28C661.39 460.36 675.23 442.1 682.41 464.73C695.42 461.34 708.09 456.34 720.95 452.3C725.95 450.23 728.16 454.79 729.03 458.97C734.1 476.72 736.98 495.04 742.27 512.68C774.06 457.91 814.58 409.32 853.81 359.88C790.7 346.05 727.88 332.28 664.66 318.43ZM177.45 613.24C233.84 601.36 289.32 585.71 345.07 571.14C347.92 570.42 349.42 569.11 350.19 566.26C355.18 549.88 352.41 532.97 350.96 516.29C349.39 503.52 350.22 490.23 347.11 477.78C287.25 494.18 227.42 510.87 167.23 526.12C162.09 527.51 161.92 527.99 163.01 533.16C165.3 544.04 167.6 554.91 169.85 565.8C173.65 581.53 175.08 597.14 177.45 613.24ZM443.18 235.13C435.59 230.68 425.77 228.3 421.65 220.11C421.13 218.8 419.7 218.49 418.47 218.78C412.08 219.82 407.62 225.66 407.66 231.93C407.61 234.62 408.58 237.43 409.56 240C410.31 241.97 412.58 242.07 414.44 242.46C416.67 243.1 417.5 245.37 415.62 247.02C414.97 247.63 414.38 248.02 414.29 249.11C409.4 281.55 419.58 330.81 461.78 325.48C502.39 315.64 533.73 264.23 530.44 223.7C522.32 230.07 513.2 234.17 503.04 236.97C505.61 239.2 507.96 239.57 510.67 239C512.85 238.55 514.19 239.37 514.71 241.04C515.22 242.67 514.72 243.65 512.79 244.81C508.61 247.31 503.07 246.89 499.13 243.03C495.8 239.77 492.1 238.89 487.77 239.42C476.86 240.86 466.7 239.59 455.74 238.36C462.72 245.98 455.7 250.05 453.55 245.86C452.37 242.95 450.06 241.51 447.11 241.18C444.69 240.95 442.17 241.44 439.76 241.72C437.86 241.7 436.59 240.63 436.42 239.05C435.94 235.59 440.6 235.61 443.18 235.13ZM575.82 868.33C557.67 854.98 559.98 862.46 565.28 840.86C569.24 818.4 569.6 795.64 568.82 772.91C568.7 738.72 559.7 708.4 539.41 680.76C523.01 685.06 509.69 694.41 496.4 704.39C521.27 744.92 541.82 789.47 540.9 838.04C541 851.29 538.92 864.53 539.14 877.76C545.3 880.3 551.4 880.09 557.58 879.22C565.59 878.35 567.5 869.54 575.82 868.33ZM220.77 762.4C222.61 760.64 224.87 759.59 225.9 757.42C226.48 754.99 228.22 754.29 230.37 754.06C249.03 751.45 258.58 750.96 276.71 757.13C297.55 762.1 353.09 774.51 371.41 767.91C380.87 764.28 384.66 754.43 387.19 745.27C369.77 744.59 352.16 743.22 337.45 732.77C336.05 731.83 334.7 731.54 333.07 731.49C320.98 731.2 308.83 730.33 296.77 729.84C271.67 731.7 247.17 725.59 223.02 719.74C217.78 727.55 216.56 751.11 220.77 762.4ZM483.95 335.71C474.5 387.87 462.74 439.48 458.81 492.48C458.25 498.43 458.62 502.39 460.12 506.79C463.62 487.56 473.04 470.71 482.44 453.82C489.88 440.04 494.99 425.23 499.92 410.46C500.39 408.76 499.97 407.51 498.51 406.36C494.7 403.24 490.79 400.16 487.31 396.66C484.71 394.16 486.59 389.38 490.29 389.7C491.75 389.71 493.2 389.82 494.66 389.88C520.18 391.71 508.72 390.93 509.91 354.74C509.83 350.48 509.31 346.24 508.97 341.99C508.8 339.77 507.66 338.63 505.36 338.37C498.35 337.58 491.37 336.64 483.95 335.71ZM455.49 501.47C455.61 501.41 455.74 501.34 455.86 501.28C437.7 446.74 425.28 390.66 411.67 334.95C407.55 335.53 400.13 338.3 397.11 340.45C397.49 354.21 398.5 368.43 400.08 382.21C400.59 387.05 402.84 390.53 407.74 392.28C411.96 394.34 418.34 396.96 417.38 402.75C415.8 412.39 405.64 418.99 400.59 427.06C421.33 450.07 435.43 477.88 455.49 501.47ZM250.85 168.98C251.24 183 255.86 195.7 258.04 208.83C268.57 212.99 294.67 220.87 302.28 222.19C308.49 216.72 327.27 206.05 326.03 197.22C317.61 198.8 311.76 205.37 304.46 209.11C294.07 211.55 304.18 191.89 304.29 187.21C305.84 180.15 306.95 172.99 308.25 165.87C307.4 165.98 307.02 166.24 306.85 166.6C302.69 175.4 298.7 184.28 294.9 193.23C293.36 197.37 287.67 196.92 286.77 192.54C283.71 182.25 282.81 171.37 279.12 161.28C278.85 161.32 278.57 161.36 278.3 161.4C276.54 171.24 277.79 181.42 275.96 191.21C274.75 196.01 268.85 195.12 267.35 190.96C262.2 183.94 258.39 173.61 250.85 168.98ZM467.72 380.94C463.19 385.9 455.13 406.69 447.03 398.03C437.84 380.81 432.08 361.7 421.52 345.08C423.85 357.09 426 369.08 430.2 380.57C431.5 391.72 436.22 402.08 439.15 412.83C443.63 433.12 450.13 452.89 453.6 473.38C453.86 473.38 454.12 473.38 454.38 473.37C457.6 442.43 462.63 411.75 467.72 380.94ZM623.84 479.63C619.03 481.43 617.19 483.74 617.28 487.53C616.88 502.39 652.01 493.67 661.73 494.11C677.97 493.08 694.55 482.72 699.93 466.94C699.71 466.79 699.48 466.64 699.26 466.49C696.05 468.46 692.76 470.29 689.84 472.75C685.9 476.74 678.64 480.16 676.82 472.4C675.73 468.21 676.66 463.47 672.63 460.46C666.62 464.88 662.88 471.8 658.94 478.01C655.99 483.62 650.22 482.85 648.85 476.62C647.25 473.52 646.62 466.85 642.31 466.66C637.99 471 637.22 486.91 630.88 486.76C626.97 486.73 625.95 482.12 623.84 479.63ZM427.77 326.82C431.75 352.79 470.52 367.79 474.23 333.63C472.6 332.31 471.3 331.25 469.81 330.04C455.82 335.65 442.68 332.55 430.17 324.59C429.33 325.37 428.61 326.04 427.77 326.82ZM430.35 347.06C437.45 362.65 444.39 377.88 451.51 393.5C457.43 385.57 461.79 377.01 467.17 368.76C472.05 361.57 473.07 360.79 474.73 351.89C461.89 365.97 441.7 360.35 430.35 347.06ZM412.48 190.01C415.09 189.03 415.19 188.99 416.67 186.84C418.77 183.79 420.98 180.79 422.87 177.61C432.69 160.71 453.35 157.38 471.19 155.7C473.78 155.19 479 155.93 478.79 152.09C478.13 145.74 447.98 153.65 443.15 155.08C427.75 159.94 418.11 170.74 412.23 185.33C411.62 186.87 411.01 188.53 412.48 190.01ZM456.82 730.35C470.85 729.86 484.44 726.99 498.28 723.49C495.49 718.44 493.35 713.44 489.6 709.27C478.94 717.03 468.23 724.15 456.82 730.35ZM562.89 694.59C573.76 684.74 565.22 675.19 552.37 678.33C556.02 683.97 559.45 689.28 562.89 694.59ZM421.92 330.61C421.39 333.25 422.94 334.53 424.05 335.98C423.53 334.29 423.62 332.36 421.92 330.61Z" fill="black"/>
<path d="M659.73 40.4102C663.93 42.8202 662.17 52.9402 663.07 57.4502C665.29 59.3402 667.77 60.6602 668.76 63.3402C669.5 66.9402 667.24 68.5502 664.01 66.5402C665.39 80.8402 666.74 94.8901 668.11 109.09C690.91 118.36 692.47 152.09 674.62 166.97C672.89 168.38 672.36 169.78 672.58 171.86C672.36 174.86 675.01 184.12 670.71 184.39C666.88 184.59 668.15 174.96 667.44 171.99C664.21 173.17 661.33 174.23 658.2 175.38C658.03 178.46 660.74 187.04 657.16 188.17C652.56 188.15 653.71 179.07 652.78 175.67C640.2 174.45 630.85 164 627.08 152.63C626.23 148.81 630.76 146.91 632.72 149.91C633.6 151.05 634.25 152.39 634.9 153.69C638.37 160.77 643.51 166.93 651.82 168.6C649.87 148.97 647.94 129.61 646 110.14C631.4 102.35 627.84 81.5102 635.54 67.7702C636.96 63.9802 642.09 61.7302 641.55 57.4202C641.65 54.0302 638.46 43.1902 642.91 42.3902C647.99 41.9202 646.73 52.9902 647.49 56.3802C650.72 55.9802 653.58 55.6202 656.76 55.2302C657.73 51.1302 653.05 40.5002 659.73 40.4102ZM652.46 112.53C652.04 118.47 656.52 164.91 657.8 168.1C661.07 167.38 664.09 166.14 666.92 163.96C665.53 147.6 664.15 131.3 662.76 114.9C659.19 114.07 655.94 113.33 652.46 112.53ZM648.3 63.3902C649.31 77.1902 650.31 90.9302 651.34 105C654.78 105.87 658.08 106.7 661.93 107.67C660.97 91.9902 659.04 77.0202 657.43 61.9502C654.05 61.3802 651.16 61.7402 648.3 63.3902ZM668.75 117.37C669.88 131.8 670.96 145.66 672.07 159.96C681.94 151.04 684.33 126.26 668.75 117.37ZM642.76 68.9702C635.67 76.7602 637.1 94.6902 645.19 100.65C644.38 90.0602 643.59 79.8102 642.76 68.9702Z" fill="black"/>
<path d="M109.79 413.429C110.79 412.219 111.7 411.119 112.77 409.819C111.22 406.809 103.84 401.519 107.69 398.469C111.2 396.149 114.53 404.099 116.82 406.009C122.23 404.189 127.28 401.899 132.72 404.409C137.54 405.819 136.87 410.979 132.61 409.499C129.12 408.059 123.04 407.769 120.59 411.029C127.66 420.269 134.85 429.669 141.87 438.839C173.48 423.409 193.17 456.589 177.06 482.139C178.23 484.419 183.91 487.899 181.46 490.429C178.58 492.439 176.27 487.719 174.06 486.249C171.95 487.929 169.87 489.569 167.57 491.389C169.68 494.809 172.18 497.999 173.97 501.579C174.92 503.849 172.21 504.899 170.56 503.739C167.85 500.629 165.76 497.009 163.15 493.599C155.03 497.099 146.87 495.589 138.69 493.499C133.68 492.639 133.04 485.539 139.02 486.809C145.52 488.919 152.02 491.239 158.84 488.379C151.16 476.239 141.66 465.049 133.39 453.219C132.12 451.489 130.91 450.739 128.44 450.869C121.29 451.219 115.23 448.529 111 442.529C108.25 438.629 106.43 434.279 105.58 429.569C104.01 424.479 108.15 419.819 105.57 416.919C101.71 411.829 97.6101 406.859 93.9401 401.649C92.1701 398.429 96.0001 395.739 98.3501 398.139C102.66 402.869 105.72 408.419 109.79 413.429ZM172.58 476.779C185.06 458.949 167.83 430.869 146.48 444.419C149.09 449.069 169.11 473.909 172.58 476.779ZM137.06 448.989C145.18 461.419 154.63 473.149 163.21 485.329C163.7 485.879 163.84 485.919 164.74 485.799C166.17 484.609 167.85 483.209 169.45 481.889C159.83 470.039 150.46 458.509 141.05 446.919C139.52 447.679 138.37 448.089 137.06 448.989ZM137.16 441.809C132.04 434.009 117.91 416.129 115.77 414.729C114.65 416.009 114.11 416.949 113.17 418.609C119.68 427.039 126.21 435.509 132.75 443.979C134.72 443.109 135.63 442.959 137.16 441.809ZM111.27 424.809C109.9 432.449 116.89 445.369 126.55 444.419C121.5 437.949 116.57 431.619 111.27 424.809Z" fill="black"/>
<path d="M675.22 703.731C672.85 702.801 670.58 701.901 667.97 700.871C665.91 703.121 661.34 715.911 658.07 713.841C655.73 712.181 658.69 709.491 659.33 707.601C661.01 704.441 662.7 701.271 664.43 698.041C658.5 691.171 655.4 681.091 659.14 672.681C663.56 668.701 665.11 673.651 664.44 677.641C664.09 682.541 664.57 687.201 667.64 691.311C675.13 677.561 681.91 663.631 689.22 649.801C690.06 648.181 690.32 646.851 689.45 645.101C685.68 637.171 689.23 627.741 694.47 621.321C700.42 613.511 707.26 616.721 709.06 612.881C710.29 610.371 711.52 607.821 712.95 605.421C714.91 602.521 718.91 604.661 717.25 607.871C716.08 610.161 714.7 612.351 713.24 614.871C715.13 615.761 716.9 616.591 718.94 617.551C721.77 615.051 725.76 600.571 729.77 602.951C733.05 604.951 723.7 616.871 722.55 620.071C724.53 622.591 729.83 631.191 724.85 632.621C721.47 632.851 721.77 627.951 720.43 625.771C720.14 625.761 719.86 625.751 719.57 625.741C714.75 635.191 709.92 644.651 705.03 654.231C724.6 677.391 708.74 704.841 679.61 704.051C677.08 708.841 674.75 713.641 671.87 718.211C671.17 719.351 670.14 720.231 668.81 719.391C667.57 718.611 668.15 717.401 668.68 716.391C670.83 712.131 673.31 708.121 675.22 703.731ZM682.88 697.251C702.88 697.511 714.85 677.741 701.67 660.931C695.28 673.291 689.18 685.071 682.88 697.251ZM693.4 651.311C685.75 666.121 678.41 680.331 671.04 694.601C673.43 696.361 675.73 697.281 678.49 697.261C685.31 684.051 692.09 670.921 698.95 657.631C697.19 655.621 695.51 653.711 693.4 651.311ZM702.16 651.171C707.16 641.271 711.88 631.931 716.81 622.171C714.4 621.361 712.45 620.711 710.26 619.981C705.69 628.491 701.29 636.661 696.83 644.961C698.55 646.961 700.14 648.811 702.16 651.171ZM704.44 621.131C697.77 624.431 692.97 633.641 695.16 638.361C698.17 632.761 701.14 627.261 704.44 621.131Z" fill="black"/>
<path d="M664.66 318.43C727.88 332.28 790.71 346.05 853.83 359.87C814.61 409.31 774.09 457.9 742.29 512.67C737 495.03 734.12 476.71 729.05 458.96C728.19 454.79 725.97 450.21 720.97 452.29C708.1 456.32 695.44 461.33 682.43 464.72C675.25 442.08 661.4 460.36 654.58 472.27C651.89 464.45 643.26 453.58 636.22 463.77C633.7 468.05 632.36 472.26 630.71 477.12C627.58 473.73 624.16 471.54 619.74 473.88C613.81 476.51 610.61 481.7 609.9 488.08C575.1 499.47 540.39 510.82 505.26 522.31C513.1 496.33 516.16 467.53 532.04 444.92C537.76 437.05 543.9 429.6 550.85 422.77C569.01 413.76 590.17 410.25 609.34 403.14C705.46 369.97 684.53 394.75 664.66 318.43Z" fill="white"/>
<path d="M177.45 613.24C175.08 597.14 173.65 581.52 169.85 565.79C167.6 554.91 165.3 544.03 163.01 533.15C161.92 527.98 162.09 527.5 167.23 526.11C227.41 510.86 287.25 494.17 347.11 477.77C350.23 490.22 349.39 503.51 350.96 516.28C352.41 532.96 355.19 549.87 350.19 566.25C349.43 569.11 347.92 570.41 345.07 571.13C289.32 585.72 233.84 601.36 177.45 613.24Z" fill="white"/>
<path d="M443.18 235.129C440.6 235.599 435.94 235.589 436.42 239.059C436.59 240.639 437.86 241.719 439.76 241.729C442.17 241.449 444.69 240.959 447.11 241.189C450.06 241.519 452.38 242.959 453.55 245.869C455.7 250.059 462.73 245.999 455.74 238.369C466.69 239.589 476.86 240.859 487.77 239.429C492.1 238.899 495.8 239.779 499.13 243.039C503.07 246.899 508.61 247.319 512.79 244.819C514.72 243.669 515.22 242.689 514.71 241.049C514.19 239.379 512.85 238.549 510.67 239.009C507.97 239.569 505.61 239.209 503.04 236.979C513.2 234.169 522.33 230.069 530.44 223.709C533.74 264.229 502.38 315.649 461.78 325.489C419.56 330.799 409.41 281.579 414.29 249.119C414.29 247.189 419.69 244.909 414.43 242.479C412.57 242.089 410.3 241.989 409.55 240.019C408.57 237.439 407.6 234.639 407.65 231.949C407.61 225.679 412.07 219.829 418.46 218.799C419.69 218.509 421.13 218.819 421.64 220.129C425.75 228.289 435.6 230.689 443.18 235.129ZM461.88 305.049C463.66 304.729 468.31 304.999 468.04 301.969C467.76 300.549 466.3 300.879 465.23 300.779C456.78 300.389 448.95 298.219 443.98 290.609C443.86 290.419 443.75 290.159 443.57 290.089C442.06 289.079 440.93 289.629 440.44 291.209C440.82 301.479 453.22 304.249 461.88 305.049ZM488.57 243.859C485.7 243.949 481.14 244.419 481.65 247.539C482.22 251.369 488.58 247.989 491.26 249.739C497.39 251.179 497.69 257.459 500.53 255.829C505.14 251.439 492.4 243.549 488.57 243.859ZM460.27 273.879C457.76 277.109 460.24 281.389 463.93 282.729C467.57 284.909 475.07 279.739 469.52 277.379C465 277.479 463.67 277.169 460.27 273.879ZM411.37 232.139C413.01 229.349 412.8 226.029 416.93 225.879C419.46 225.579 418.39 221.249 415.89 221.869C411.67 222.239 408.89 228.019 411.37 232.139ZM453.66 308.659C453.51 305.529 447.51 303.049 447.45 307.179C447.66 308.619 450.25 310.689 451.66 310.269C452.53 310.009 453.18 309.059 453.66 308.659Z" fill="white"/>
<path d="M575.82 868.33C567.5 869.54 565.59 878.36 557.59 879.21C551.4 880.08 545.31 880.3 539.15 877.75C538.92 864.52 541.01 851.29 540.91 838.03C541.82 789.46 521.28 744.91 496.41 704.38C509.7 694.39 523.02 685.05 539.42 680.75C559.72 708.43 568.69 738.67 568.82 772.9C569.6 795.63 569.24 818.39 565.28 840.85C559.99 862.46 557.64 854.96 575.82 868.33Z" fill="white"/>
<path d="M220.77 762.398C216.57 751.098 217.78 727.548 223.02 719.738C247.18 725.578 271.67 731.698 296.77 729.838C308.83 730.328 320.97 731.198 333.07 731.488C334.7 731.548 336.05 731.828 337.45 732.768C352.16 743.218 369.77 744.588 387.19 745.268C384.67 754.428 380.88 764.288 371.41 767.908C353.11 774.508 297.6 762.108 276.71 757.128C258.52 750.948 249.06 751.458 230.37 754.058C225.85 754.388 227 756.798 224.53 759.228C223.38 760.278 222.16 761.238 220.77 762.398Z" fill="white"/>
<path d="M483.95 335.711C491.37 336.641 498.36 337.571 505.36 338.371C507.66 338.631 508.8 339.771 508.97 341.991C509.3 346.241 509.83 350.491 509.91 354.751C508.72 390.961 520.17 391.711 494.66 389.891C491.86 389.911 487.88 388.711 486.48 391.981C485.74 393.681 486.07 395.301 487.31 396.671C490.79 400.171 494.7 403.251 498.51 406.371C499.98 407.521 500.4 408.771 499.92 410.471C494.99 425.241 489.88 440.051 482.44 453.831C473.04 470.711 463.62 487.571 460.12 506.801C458.62 502.401 458.25 498.441 458.81 492.491C462.74 439.481 474.49 387.871 483.95 335.711Z" fill="white"/>
<path d="M455.49 501.471C435.44 477.891 421.34 450.081 400.6 427.051C405.64 418.981 415.8 412.371 417.39 402.741C418.35 396.951 411.97 394.331 407.75 392.271C402.85 390.521 400.6 387.051 400.09 382.201C398.51 368.421 397.5 354.201 397.12 340.441C400.15 338.291 407.56 335.521 411.68 334.941C425.28 390.651 437.7 446.741 455.87 501.271C455.73 501.341 455.61 501.401 455.49 501.471Z" fill="white"/>
<path d="M250.85 168.98C258.37 173.58 262.22 183.96 267.35 190.95C268.85 195.1 274.75 196.02 275.96 191.2C277.79 181.41 276.54 171.23 278.3 161.39C278.57 161.35 278.85 161.31 279.12 161.27C282.81 171.36 283.71 182.24 286.77 192.53C287.67 196.89 293.36 197.36 294.9 193.22C298.7 184.27 302.69 175.39 306.85 166.59C307.02 166.23 307.4 165.96 308.25 165.86C306.95 172.98 305.84 180.14 304.29 187.2C304.18 191.86 294.07 211.54 304.46 209.1C311.76 205.36 317.61 198.79 326.03 197.21C327.29 206.01 308.49 216.72 302.28 222.18C294.68 220.86 268.58 212.98 258.04 208.82C255.85 195.7 251.23 183 250.85 168.98Z" fill="white"/>
<path d="M467.72 380.94C462.63 411.75 457.6 442.43 454.37 473.38C454.11 473.38 453.85 473.38 453.59 473.39C450.13 452.9 443.62 433.13 439.15 412.84C436.22 402.09 431.5 391.73 430.2 380.58C426 369.08 423.85 357.1 421.52 345.09C432.09 361.71 437.84 380.82 447.03 398.04C455.13 406.69 463.18 385.91 467.72 380.94Z" fill="white"/>
<path d="M623.84 479.629C625.94 482.129 626.97 486.729 630.9 486.739C637.22 486.909 638.02 470.959 642.33 466.649C646.62 466.819 647.28 473.519 648.87 476.609C650.24 482.829 656.01 483.629 658.96 477.999C662.9 471.789 666.64 464.869 672.64 460.449C676.67 463.459 675.73 468.199 676.83 472.389C678.65 480.149 685.91 476.739 689.84 472.739C692.76 470.279 696.05 468.449 699.26 466.479C699.48 466.629 699.71 466.779 699.93 466.929C694.55 482.709 677.97 493.079 661.73 494.099C651.97 493.649 616.93 502.399 617.28 487.519C617.19 483.739 619.03 481.419 623.84 479.629Z" fill="white"/>
<path d="M427.77 326.82C428.61 326.04 429.33 325.37 430.17 324.59C442.68 332.55 455.82 335.65 469.81 330.04C471.3 331.25 472.6 332.31 474.23 333.63C470.51 367.81 431.73 352.77 427.77 326.82Z" fill="white"/>
<path d="M430.35 347.059C441.71 360.349 461.9 365.969 474.73 351.889C473.06 360.799 472.05 361.579 467.17 368.759C461.79 377.019 457.43 385.559 451.51 393.499C444.39 377.879 437.45 362.649 430.35 347.059Z" fill="white"/>
<path d="M412.48 190.012C411.01 188.532 411.62 186.872 412.24 185.332C418.12 170.742 427.76 159.942 443.16 155.082C448.12 153.632 477.94 145.732 478.8 152.092C479.02 155.932 473.76 155.202 471.2 155.702C453.36 157.382 432.7 160.722 422.88 177.612C420.99 180.792 418.78 183.792 416.68 186.842C415.19 188.992 415.09 189.032 412.48 190.012Z" fill="white"/>
<path d="M456.82 730.351C468.23 724.151 478.94 717.031 489.6 709.281C493.35 713.451 495.49 718.451 498.28 723.501C484.44 726.991 470.85 729.851 456.82 730.351Z" fill="white"/>
<path d="M562.89 694.59C559.45 689.28 556.02 683.97 552.37 678.33C565.24 675.19 573.74 684.76 562.89 694.59Z" fill="white"/>
<path d="M421.92 330.609C423.62 332.359 423.53 334.289 424.05 335.979C422.93 334.529 421.39 333.259 421.92 330.609Z" fill="white"/>
<path d="M461.88 305.048C453.22 304.248 440.82 301.468 440.45 291.188C443.72 284.388 444.65 300.448 464.56 300.758C465.78 300.918 467.68 300.338 468.04 301.968C468.31 305.008 463.65 304.728 461.88 305.048Z" fill="black"/>
<path d="M488.57 243.861C492.39 243.541 505.15 251.441 500.53 255.841C497.72 257.491 497.37 251.181 491.26 249.751C488.58 248.001 482.22 251.381 481.65 247.551C481.14 244.421 485.7 243.961 488.57 243.861Z" fill="black"/>
<path d="M460.27 273.879C463.67 277.189 465 277.479 469.53 277.389C475.08 279.739 467.58 284.919 463.94 282.739C460.24 281.389 457.76 277.099 460.27 273.879Z" fill="black"/>
<path d="M411.37 232.141C408.9 228.031 411.67 222.241 415.89 221.881C418.39 221.261 419.46 225.591 416.93 225.891C412.79 226.031 413.01 229.351 411.37 232.141Z" fill="black"/>
<path d="M453.66 308.66C453.18 309.06 452.53 310.01 451.66 310.27C450.24 310.7 447.66 308.62 447.45 307.18C447.51 303.05 453.51 305.53 453.66 308.66Z" fill="black"/>
</svg>
