<svg width="960" height="960" viewBox="0 0 960 960" fill="none" xmlns="http://www.w3.org/2000/svg">
<g clip-path="url(#clip0_1557_7554)">
<path d="M339.007 716.914C337.095 698.802 358.666 704.9 369.223 708.359C370.497 604.602 381.51 463.803 493.093 420.299C449.953 387.625 433.57 332.015 423.286 281.138C416.46 273.493 414.002 264.118 412.364 254.471C406.175 219.886 399.167 183.48 414.093 150.078C442.126 96.7434 515.21 69.2572 572.731 84.1835C614.142 94.104 658.284 114.218 678.125 153.9C691.504 176.563 699.878 202.229 690.958 228.168C690.503 229.624 690.867 231.444 691.413 232.901C694.235 240.182 696.419 247.918 699.878 254.926C723.45 286.417 708.979 330.468 679.126 352.038C661.743 367.328 638.534 370.787 618.693 380.161C609.774 394.906 598.033 406.92 584.108 416.931C711.163 469.901 821.29 607.788 769.048 749.679C726.09 866.45 638.534 877.554 527.77 879.465C504.743 879.92 481.626 881.376 458.69 877.827C451.409 876.644 448.132 871.456 444.947 866.086C443.764 864.084 442.945 863.538 440.578 863.902C419.918 864.903 383.239 882.013 374.138 854.8C369.223 839.419 364.946 824.037 364.126 807.2C352.932 816.756 340.281 819.942 326.538 818.759C315.616 863.356 227.696 860.625 208.401 823.309C188.833 793.184 176.364 758.234 178.367 721.92C178.367 711.362 182.917 703.262 192.201 697.528C229.699 673.864 341.191 667.311 340.281 730.657C342.374 730.748 344.103 730.93 346.197 731.021C343.557 726.015 341.282 721.465 339.007 716.914ZM446.403 763.968C448.041 704.718 674.303 809.657 659.194 622.35C659.012 617.253 661.197 613.613 665.201 613.249C682.403 613.158 671.845 676.231 666.02 686.788C640.172 761.784 556.985 755.868 491.91 756.596C500.284 792.911 499.373 828.315 488.27 863.811C534.687 861.535 580.831 859.26 627.157 856.348C650.639 854.8 672.3 846.973 691.686 833.594C784.612 771.613 780.152 638.278 726.454 551.45C701.698 510.767 660.832 481.824 620.877 459.526C609.045 528.332 524.948 570.017 466.426 528.424C442.854 513.042 444.674 482.916 451.591 458.798C387.153 523.327 378.78 631.452 383.421 717.642C399.531 728.837 407.631 759.69 419.463 762.057C428.291 762.967 437.211 763.331 446.403 763.968ZM441.943 189.942C402.807 269.488 460.601 470.539 574.46 407.648C607.68 386.168 621.241 346.759 630.525 310.172C631.253 307.077 632.618 304.074 630.161 300.615C627.612 296.428 633.983 293.425 637.715 295.063C641.173 295.7 644.177 294.608 646.27 292.06C657.738 280.319 657.829 255.472 640.263 249.556C635.167 248.464 631.253 254.289 626.975 255.654C617.874 258.203 608.59 260.114 599.398 262.207C593.482 262.935 587.839 265.757 581.832 264.391C574.733 264.209 567.634 264.027 560.717 266.758C554.892 267.759 555.347 264.665 556.53 260.023C538.874 256.291 521.672 251.194 505.289 243.458C497.553 239.272 489.726 242.821 482.172 245.461C473.707 247.736 465.516 245.005 460.601 238.452C458.508 235.722 458.963 232.992 461.694 231.171C468.156 227.713 472.979 239.181 484.174 231.899C467.154 220.978 452.956 207.599 441.943 189.942ZM314.524 814.754C305.149 809.748 299.051 799.464 306.788 790.726C307.152 790.271 307.152 789.27 306.97 788.633C304.876 779.532 306.241 770.703 309.063 761.966C309.609 760.328 309.7 759.326 308.517 757.779C298.05 743.308 317.8 731.567 330.724 730.657C330.269 727.38 329.814 724.377 329.268 720.827C309.518 734.662 284.398 734.844 261.189 735.208C237.344 735.026 213.316 738.393 189.743 730.293C196.933 763.331 200.756 799.009 225.148 824.402C230.427 830.5 237.071 834.686 244.989 836.051C268.562 839.419 305.968 844.061 314.524 814.754ZM352.841 715.64C352.659 716.004 352.477 716.368 352.295 716.732C359.667 730.566 369.496 742.853 377.779 756.141C380.6 760.601 379.599 765.242 375.321 766.608C372.955 767.336 369.678 766.881 367.312 765.788C355.389 760.692 323.17 752.773 319.529 770.157C319.62 775.072 315.525 784.355 322.169 786.176C336.276 789.816 350.929 787.45 365.31 787.723C372.045 787.541 376.504 791.545 376.686 798.371C376.049 809.111 381.146 853.981 392.068 856.438C411.363 857.895 430.112 851.16 449.134 848.975C451.773 848.52 452.137 847.519 452.228 845.335C452.319 821.853 453.411 798.736 453.047 775.254C444.31 774.799 435.664 773.798 427.108 774.071C389.337 777.165 399.167 724.195 352.841 715.64ZM507.656 427.125C507.11 428.035 506.746 429.309 506.108 429.4C501.285 430.401 504.197 437.864 502.923 441.414C500.648 450.697 490.545 446.784 494.368 435.407C478.804 453.792 463.423 488.013 492.274 501.665C516.12 513.952 548.43 513.224 568.544 493.838C582.833 479.64 589.841 462.711 588.112 442.506C587.293 439.594 584.199 439.776 581.377 438.32C582.014 441.414 582.56 443.78 583.015 446.238C584.199 452.7 585.655 452.427 577.919 453.064C574.915 453.337 573.641 452.427 573.095 449.423C571.639 441.232 569.909 433.041 568.271 424.576C548.43 431.949 528.316 434.406 507.656 427.125ZM478.258 438.866C473.07 441.505 468.065 444.417 466.062 450.515C463.514 458.07 460.146 465.533 458.781 473.36C452.774 503.759 468.247 521.506 494.55 529.607C545.518 544.351 602.948 509.948 608.772 456.158C609.956 451.061 605.223 449.787 601.764 447.603C603.13 506.398 534.96 539.436 486.176 511.04C454.776 494.657 464.424 464.35 478.258 438.866ZM461.785 863.083C467.154 861.808 477.075 866.359 477.985 859.078C486.722 825.494 489.635 790.999 478.167 757.415C475.255 757.779 472.433 758.234 469.066 758.689C475.619 794.185 470.613 828.406 461.785 863.083ZM543.151 106.391C543.242 102.204 539.238 99.1098 534.414 100.475C524.948 103.296 515.119 105.754 506.29 109.94C494.732 112.58 442.034 158.451 454.048 168.645C458.235 171.921 462.149 167.552 464.515 164.367C479.259 145.163 495.46 125.959 519.123 117.859C525.768 114.309 542.059 115.128 543.151 106.391ZM325.263 709.451C296.776 685.605 257.003 689.519 223.054 696.527C215.5 698.074 188.742 706.993 191.928 716.823C193.384 719.007 201.211 724.104 203.031 720.827C231.701 694.797 279.119 690.156 311.52 711.908C317.982 717.642 319.074 713.455 325.263 709.451ZM311.065 796.733C310.792 797.188 310.519 797.643 310.246 798.189C320.713 814.299 343.284 811.933 356.845 801.375C356.754 801.102 356.663 800.738 356.572 800.465C341.191 801.557 325.992 801.102 311.065 796.733ZM358.484 749.861C355.844 743.672 351.475 740.578 345.56 740.214C334.092 740.214 318.437 737.483 312.794 750.225C313.067 750.498 313.25 750.771 313.523 750.953C328.267 746.857 343.193 746.493 358.484 749.861ZM230.063 719.28C234.158 717.096 243.26 716.186 241.075 709.633C238.618 703.717 231.61 707.266 227.241 708.723C220.779 711.18 223.419 719.007 230.063 719.28ZM252.452 709.906C244.17 710.179 244.625 719.098 252.088 718.188C258.55 718.643 259.369 709.36 252.452 709.906Z" fill="black"/>
<path d="M247.814 614.249C247.45 595.592 258.553 584.033 264.651 568.287C270.84 542.257 247.359 515.681 261.466 486.921C262.194 483.371 266.381 481.551 269.202 482.37C270.658 483.007 271.295 485.646 272.024 487.558C266.927 500.118 265.835 512.86 269.384 526.057C271.386 534.521 273.571 542.985 275.3 551.45C283.491 581.211 242.262 602.145 262.831 630.905C264.378 633.089 266.563 635.729 263.377 638.368C256.005 642.737 246.176 619.255 247.814 614.249Z" fill="black"/>
<path d="M313.253 579.939C313.981 610.975 286.404 629.997 302.331 658.302C303.878 660.305 303.969 663.581 302.058 665.128C298.508 666.949 295.96 663.035 294.231 660.396C275.3 634.456 300.329 612.795 301.785 586.31C302.058 578.574 301.33 570.474 300.147 562.828C298.691 556.457 308.52 553.818 309.885 560.735C311.25 567.015 312.161 573.477 313.253 579.939Z" fill="black"/>
<path d="M212.315 627.997C214.135 621.99 217.321 593.684 224.875 594.23C232.156 597.052 226.058 610.522 224.511 616.256C214.772 640.557 233.885 651.66 229.881 660.216C219.96 664.038 212.679 636.37 212.315 627.997Z" fill="black"/>
<path d="M446.404 763.967C437.211 763.33 428.292 763.057 419.464 762.056C407.996 760.054 399.258 728.381 383.422 717.641C378.78 631.451 387.154 523.326 451.592 458.797C444.675 482.825 442.854 513.041 466.427 528.423C524.949 570.016 608.955 528.332 620.878 459.525C660.833 481.823 701.698 510.766 726.454 551.449C780.244 638.277 784.612 771.704 691.687 833.593C672.301 846.972 650.64 854.799 627.158 856.347C580.832 859.35 534.597 861.535 488.27 863.81C499.283 828.405 500.284 792.91 491.911 756.595C556.986 755.867 640.173 761.783 666.021 686.787C671.937 675.775 682.404 613.43 665.202 613.248C661.197 613.703 659.013 617.253 659.195 622.349C674.212 809.747 448.133 704.626 446.404 763.967Z" fill="white"/>
<path d="M441.943 189.941C452.865 207.598 467.154 220.977 484.083 231.99C472.797 239.271 468.064 227.712 461.602 231.262C458.872 233.082 458.508 235.813 460.51 238.543C465.425 245.096 473.616 247.735 482.081 245.551C489.635 242.912 497.462 239.453 505.198 243.549C521.581 251.285 538.782 256.382 556.439 260.113C555.347 264.846 554.801 267.758 560.626 266.848C567.452 264.118 574.551 264.3 581.741 264.482C587.748 265.756 593.391 263.026 599.307 262.298C608.499 260.204 617.783 258.293 626.884 255.745C631.253 254.379 635.075 248.555 640.172 249.647C657.829 255.563 657.647 280.409 646.179 292.15C644.086 294.699 641.082 295.791 637.624 295.154C633.801 293.515 627.521 296.519 630.07 300.706C632.527 304.164 631.162 307.077 630.434 310.262C621.15 346.85 607.589 386.259 574.369 407.738C460.601 470.629 402.898 269.67 441.943 189.941ZM532.775 379.251C532.866 378.887 532.866 378.614 532.957 378.25C543.242 378.523 554.073 376.338 559.534 366.327C560.626 364.325 561.263 362.322 559.261 360.502C557.258 358.773 555.62 359.956 553.891 361.321C541.604 371.242 524.038 370.604 509.658 365.872C508.384 365.417 506.654 366.236 505.107 366.509C506.563 378.159 524.129 376.247 532.775 379.251ZM512.934 264.937C517.303 263.663 516.848 258.293 512.934 256.837C502.195 251.74 491.546 250.921 480.988 257.383C478.713 258.748 477.257 260.659 478.804 263.208C483.537 270.125 490.454 252.468 512.934 264.937ZM523.856 335.473C534.687 336.383 541.058 320.001 532.866 322.64C524.857 330.376 517.94 318.453 513.662 324.187C510.932 330.558 517.758 335.928 523.856 335.473ZM645.724 278.316C654.37 275.404 651.185 259.749 643.904 257.019C639.171 254.743 635.803 262.935 640.809 264.3C647.453 266.575 645.36 272.673 645.724 278.316ZM531.046 391.72C538.691 392.084 542.332 383.073 534.323 382.618C526.04 381.708 523.856 390.81 531.046 391.72Z" fill="white"/>
<path d="M314.527 814.754C305.971 844.06 268.565 839.327 244.992 836.142C237.074 834.777 230.521 830.59 225.151 824.492C200.759 799.008 196.936 763.422 189.746 730.383C213.319 738.484 237.438 735.116 261.192 735.298C284.401 734.934 309.521 734.752 329.271 720.918C329.817 724.377 330.272 727.471 330.727 730.747C317.803 731.658 297.962 743.398 308.52 757.87C309.703 759.417 309.612 760.418 309.066 762.056C306.244 770.794 304.97 779.622 306.973 788.724C307.155 789.361 307.155 790.362 306.791 790.817C299.054 799.463 305.152 809.748 314.527 814.754Z" fill="white"/>
<path d="M352.838 715.641C399.255 724.378 389.243 777.166 427.105 774.072C435.752 773.799 444.398 774.8 453.044 775.255C453.408 798.737 452.316 821.854 452.225 845.336C452.225 847.52 451.77 848.612 449.131 848.976C430.109 851.161 411.269 857.896 392.065 856.439C381.143 853.982 376.046 809.021 376.683 798.372C376.41 791.546 371.951 787.633 365.307 787.724C350.926 787.451 336.273 789.817 322.166 786.177C315.522 784.356 319.617 775.073 319.526 770.158C323.076 752.774 355.386 760.693 367.309 765.789C369.675 766.882 372.952 767.337 375.318 766.609C379.596 765.243 380.597 760.602 377.776 756.142C369.493 742.854 359.664 730.567 352.292 716.733C352.474 716.278 352.656 716.005 352.838 715.641Z" fill="white"/>
<path d="M507.659 427.123C528.319 434.404 548.433 431.855 568.274 424.574C569.912 433.039 571.642 441.23 573.098 449.421C573.644 452.334 574.918 453.244 577.922 453.062C585.567 452.425 584.201 452.607 583.018 446.236C582.563 443.778 582.017 441.412 581.38 438.317C584.202 439.774 587.296 439.592 588.115 442.504C589.844 462.8 582.836 479.638 568.547 493.836C548.342 513.313 516.123 513.95 492.277 501.663C463.335 488.011 478.807 453.79 494.371 435.405C490.548 446.782 500.65 450.695 502.926 441.412C504.2 437.862 501.288 430.399 506.111 429.398C506.657 429.307 507.113 428.033 507.659 427.123Z" fill="white"/>
<path d="M478.26 438.863C464.426 464.256 454.778 494.655 486.087 511.129C534.78 539.525 603.04 506.487 601.675 447.692C605.134 449.876 609.867 451.15 608.683 456.247C602.949 510.036 545.52 544.349 494.461 529.695C468.249 521.595 452.685 503.847 458.692 473.449C460.057 465.621 463.425 458.158 465.973 450.604C468.066 444.506 473.072 441.594 478.26 438.863Z" fill="white"/>
<path d="M461.786 863.082C470.614 828.405 475.62 794.184 469.067 758.688C472.435 758.233 475.256 757.778 478.169 757.414C489.545 790.998 486.724 825.493 477.987 859.077C477.077 866.358 467.156 861.898 461.786 863.082Z" fill="white"/>
<path d="M543.148 106.389C542.238 115.127 525.764 114.307 519.211 117.948C495.457 126.048 479.256 145.252 464.603 164.456C462.145 167.733 458.323 172.01 454.136 168.734C442.122 158.54 494.728 112.669 506.378 110.03C515.298 105.843 525.036 103.386 534.502 100.564C539.143 99.1081 543.239 102.203 543.148 106.389Z" fill="white"/>
<path d="M325.263 709.446C318.983 713.542 318.073 717.638 311.611 711.904C279.119 690.242 231.701 694.793 203.122 720.823C201.302 724.1 193.475 719.003 192.019 716.819C188.742 707.08 215.773 697.979 223.145 696.522C257.003 689.514 296.776 685.51 325.263 709.446Z" fill="white"/>
<path d="M311.067 796.734C325.993 801.103 341.192 801.558 356.574 800.466C356.665 800.739 356.756 801.103 356.847 801.376C343.286 811.934 320.714 814.3 310.248 798.191C310.521 797.736 310.794 797.189 311.067 796.734Z" fill="white"/>
<path d="M358.481 749.86C343.19 746.583 328.264 746.856 313.429 751.043C313.156 750.77 312.974 750.497 312.701 750.315C318.344 737.482 334.089 740.212 345.466 740.303C351.473 740.576 355.841 743.671 358.481 749.86Z" fill="white"/>
<path d="M230.063 719.282C223.419 719.009 220.78 711.272 227.333 708.724C231.611 707.177 238.71 703.718 241.167 709.634C243.26 716.187 234.159 717.006 230.063 719.282Z" fill="white"/>
<path d="M252.452 709.906C259.46 709.36 258.641 718.643 252.088 718.188C244.534 719.098 244.17 710.088 252.452 709.906Z" fill="white"/>
<path d="M532.779 379.255C524.132 376.252 506.567 378.163 505.11 366.604C506.658 366.331 508.387 365.512 509.661 365.967C524.041 370.609 541.607 371.337 553.894 361.416C555.623 360.051 557.261 358.868 559.264 360.597C561.357 362.326 560.72 364.329 559.537 366.422C554.076 376.343 543.245 378.618 532.961 378.345C532.87 378.618 532.87 378.891 532.779 379.255Z" fill="black"/>
<path d="M512.934 264.94C490.362 252.38 483.718 270.128 478.803 263.21C477.256 260.662 478.712 258.751 480.988 257.386C491.545 250.924 502.194 251.743 512.934 256.839C516.847 258.296 517.302 263.666 512.934 264.94Z" fill="black"/>
<path d="M523.858 335.473C517.76 335.928 510.934 330.558 513.665 324.187C517.851 318.453 524.86 330.467 532.869 322.64C541.06 320 534.689 336.383 523.858 335.473Z" fill="black"/>
<path d="M645.726 278.319C645.362 272.676 647.456 266.578 640.812 264.303C635.806 262.938 639.173 254.747 643.906 257.022C651.187 259.752 654.373 275.407 645.726 278.319Z" fill="black"/>
<path d="M531.05 391.723C523.768 390.904 525.953 381.712 534.326 382.622C542.335 383.077 538.695 391.996 531.05 391.723Z" fill="black"/>
</g>
<defs>
<clipPath id="clip0_1557_7554">
<rect width="604.545" height="800" fill="white" transform="translate(178 80)"/>
</clipPath>
</defs>
</svg>
