<svg width="960" height="960" viewBox="0 0 960 960" fill="none" xmlns="http://www.w3.org/2000/svg">
<path d="M501 486.698C502.8 491.998 504.7 497.598 506.6 503.098C506.8 503.698 507.5 504.298 508 504.498C521 509.598 533.6 515.698 547.3 518.498C556.4 520.298 565.4 522.398 573.7 526.698C660.2 583.098 743.3 660.798 758.8 768.198C780.7 902.198 619.1 911.198 524 908.298C503.3 906.998 509.6 881.198 507.2 866.898C495.3 867.398 475.7 875.698 467 865.798C464.7 869.198 461.2 869.798 457.6 869.798C445.5 869.998 433.4 870.298 421.3 870.398C419 886.998 422.1 914.898 400.2 917.398C338.8 922.698 265.3 919.998 228.9 862.198C150.7 738.698 236.4 572.598 362.3 528.398C371.5 525.598 394.8 512.198 402.3 515.498C403.9 515.998 405.7 514.798 407.2 514.298C423 507.698 420.8 508.098 424.5 490.498C400.1 492.098 376.8 487.498 354 478.998C347 477.298 338.6 473.198 341.7 464.798C353.1 422.598 354.2 377.598 346.1 334.698C339.3 295.198 340.3 250.798 369 219.698C375.1 212.898 381.1 205.998 387.5 199.498C415.5 177.698 453.5 168.298 487.9 179.398C538.6 191.198 586.8 226.198 599.3 278.798C616.8 333.698 545.9 414.598 589.8 447.598C611.3 460.698 584.8 465.498 573.7 469.898C550.1 479.198 525.2 482.498 501 486.698ZM517.9 779.298C518.6 816.898 517.7 853.898 520.5 891.298C520.6 899.298 531.4 896.498 536.8 897.198C598 892.598 668 900.198 718.6 858.898C763.2 824.698 752.6 763.398 734.3 717.498C704.2 641.398 643.3 583.498 574.6 541.198C542.5 591.098 500.5 634.398 461.4 678.998C425.6 711.298 405.4 582.898 399.8 561.998C396.3 550.798 392.4 539.698 388.4 528.598C278.8 565.098 194.5 663.698 213.8 792.198C230.8 891.998 304.7 914.398 395.5 906.398C403.4 906.198 405.5 902.298 406.8 894.998C410.5 858.498 412.8 821.998 412.3 785.298C382.7 790.898 352.5 792.898 322.7 796.898C312.3 798.398 310.6 786.198 321.1 784.898C353.1 780.198 385.9 780.898 417.3 772.898C430 770.098 422.5 799.798 424.5 807.098C437.4 781.798 450.6 756.298 458.5 728.798C459.4 719.198 469.3 720.098 473.1 727.398C486 748.498 494.3 771.498 505.3 793.498C506.4 786.398 500.8 772.198 509.7 769.698C542.1 765.498 575.2 768.998 607.8 768.598C612.1 768.698 618.8 767.998 619 773.998C619.1 776.698 617.8 778.498 615.3 779.298C582.8 781.598 550.2 778.898 517.9 779.298ZM486.1 339.198C486.1 338.998 486.1 338.798 486.1 338.698C467.4 335.498 449.6 328.798 433.8 318.298C427.9 314.398 422.1 313.698 415.6 316.398C406.9 320.798 395.3 319.998 389.7 311.798C388 309.398 388.4 306.898 390.8 305.198C392.8 303.798 394.5 304.298 396.4 305.498C401.2 308.498 406.2 309.098 411 306.298C396.2 295.198 383.5 282.598 372.2 267.798C337.2 341.198 389.2 524.898 494.1 469.198C526.3 449.098 539.1 410.998 547.7 375.898C548.2 373.898 548.7 372.098 547 369.998C545 367.498 547.4 363.898 550.7 363.798C554.6 364.498 559.1 365.098 561.7 361.498C571.5 351.098 572.4 331.298 559 323.298C554.8 320.798 553.1 321.298 549.8 324.798C547.5 326.898 544.1 327.598 541.6 329.298C532.7 335.098 522.9 337.398 512.7 339.698C518.8 343.198 517.7 348.798 511.3 350.698C502.2 349.698 492.9 348.498 483.8 350.598C478.7 351.398 476 350.198 475.4 346.898C473.8 341.798 481.5 339.898 486.1 339.198ZM439.6 488.398C433 500.098 430.2 513.098 425.7 525.598C425.5 526.298 425.3 527.198 425.6 527.798C434.8 543.198 448.1 569.298 469.9 560.298C485.7 553.698 491.8 536.498 500.4 522.998C501 521.898 500.8 519.898 500.3 518.598C496.3 507.098 490.5 496.698 488.1 484.498C472.2 490.498 456.1 492.198 439.6 488.398ZM423.6 614.098C423.5 614.198 423.3 614.198 423.2 614.298C426.2 622.198 442.5 686.998 454.6 671.098C493.1 628.598 531.1 585.098 564.6 538.598C554.5 534.898 544.9 531.298 535.4 527.798C538.1 576.998 466.5 690.798 423.6 614.098ZM470.2 743.298C470 743.398 469.8 743.498 469.6 743.498C470.1 748.198 468.6 753.698 470.3 757.998C478.1 771.198 481.9 786.498 488.1 800.498C489.5 803.998 489.2 806.298 487.1 807.298C484.9 808.598 482.1 806.098 481 802.898C477.3 793.598 473.7 784.298 470 774.998C470 782.598 468.8 790.498 470.1 797.798C476.3 810.398 484.8 822.498 489.8 835.498C489.1 842.898 483 840.398 480.9 835.198C477.4 828.598 474.5 821.698 470.7 815.398C470.7 829.198 469.9 842.898 473.4 856.198C474.6 860.898 475.8 861.598 480.6 860.998C488.5 859.998 496.3 858.698 504.2 857.798C506.5 857.498 507.3 856.898 507.2 854.498C505.8 841.598 508.1 826.998 504.8 814.698C490.4 792.598 481.1 767.198 470.2 743.298ZM410.2 524.498C405.5 525.698 405.4 525.698 406.1 530.198C407.4 538.498 408.7 546.898 410.1 555.198C411 567.098 417.2 576.998 422.6 587.298C428.4 598.198 433 609.898 441 619.598C475.4 653.798 521.4 566.298 522.3 537.298C510.5 565.898 493.7 608.898 455.8 604.098C425.1 595.898 410.2 553.498 410.2 524.498ZM459 826.198C455.8 831.698 453.2 836.998 449.9 842.198C447.1 846.598 440.5 842.398 443 837.898C447.8 829.298 454.8 821.598 458.9 812.798C459 807.698 459 802.598 459 797.498C458.7 797.498 458.3 797.498 458 797.398C454.5 804.998 451 812.698 447.5 820.298C446.3 822.898 443.9 823.898 441.8 822.898C439.6 821.898 439 819.498 440.1 816.898C445.6 804.398 450.9 791.898 456.5 779.498C459.5 772.898 457.9 765.998 458.6 759.298C447.2 781.398 437.6 804.598 424.6 825.798C422.6 836.498 423.2 848.198 422 858.998C435.9 858.998 449.4 858.998 462.4 858.998C461.2 847.898 460.1 837.298 459 826.198ZM423.4 544.498C423.3 544.598 423.1 544.598 423 544.698C430.7 570.498 454.3 611.398 483.1 582.098C495.9 569.098 501.8 551.898 509.2 535.698C509.6 534.798 509.2 533.698 509.2 532.598C508.9 532.598 508.7 532.698 508.4 532.698C489.3 577.298 447.7 591.198 423.4 544.498ZM469.9 197.798C469.9 197.398 469.9 196.998 469.9 196.598C437.6 185.798 401.8 210.798 384.1 236.698C381.3 241.598 388.5 245.698 391.1 240.698C408.9 214.998 438.5 198.498 469.9 197.798Z" fill="black"/>
<path d="M310.7 179.897C286.3 180.797 281.2 154.997 303.5 146.097C281.4 120.797 312.6 92.697 333.1 121.297C353 85.497 381.3 116.097 365 145.097C398.3 155.597 383.3 195.297 351.4 188.097C349.5 224.297 303.8 221.197 310.7 179.897ZM352 148.597C356.8 143.697 360.3 137.197 361.1 129.697C362 122.797 358.5 109.197 349.2 114.797C340 120.597 339.3 131.697 340.4 141.197C343 144.697 348.1 145.797 352 148.597ZM331.4 142.897C329.8 132.297 324.7 117.197 311.5 119.597C304.7 122.297 304.9 132.897 310 137.297C314.1 141.397 319 144.697 323.2 148.197C326.3 146.297 328.8 144.597 331.4 142.897ZM323.3 178.497C318.6 186.397 318.4 200.397 328.8 202.897C339 203.897 343.5 190.997 339.6 182.897C333.7 183.497 328.3 182.297 323.3 178.497ZM347.3 162.097C346.5 146.197 327.9 148.597 326 162.197C325.8 175.897 348.2 176.997 347.3 162.097ZM351.2 176.197C360.3 182.497 378.1 174.597 372.4 162.697C369.7 157.197 362.3 153.997 356.9 155.997C356.2 156.297 355.4 157.597 355.5 158.297C356.4 164.797 354.5 170.597 351.2 176.197ZM316.1 168.297C316.7 163.697 317.1 160.097 317.5 156.397C312 153.297 298.8 155.997 300 164.497C300.6 167.197 302.5 168.897 305.1 168.997C308.9 169.197 312.6 168.597 316.1 168.297Z" fill="black"/>
<path d="M318.1 299.198C337.8 304.598 332.6 325.298 314.3 328.398C325.7 358.598 287.6 367.198 284.5 336.198C258.1 350.298 246.3 318.398 269.4 304.698C258.2 285.398 276.6 267.398 292.6 285.098C296.3 278.198 303.1 271.398 311.2 274.698C316.3 276.398 319.9 281.098 319.8 287.098C319.8 290.998 318.7 294.898 318.1 299.198ZM278 311.798C260.6 316.498 264.8 339.598 282 325.798C280.5 320.698 279.3 316.298 278 311.798ZM293.4 329.798C294.1 335.798 294.5 347.898 303.5 345.598C309.8 341.398 305.5 330.898 301.7 326.698C298.8 327.798 296.3 328.698 293.4 329.798ZM297.9 296.498C300.7 298.698 302.6 300.198 304.7 301.798C313.6 295.498 312.8 277.198 303.6 284.898C301.4 288.598 299.7 292.698 297.9 296.498ZM299.3 312.298C299.4 301.598 287.8 304.398 287.6 313.098C287.5 321.698 300.1 320.998 299.3 312.298ZM288.5 297.298C285.9 292.598 280.5 282.198 275.8 291.098C273.7 295.898 279.1 299.898 281.6 303.298C283.8 301.398 285.9 299.598 288.5 297.298ZM306.6 318.198C311.6 319.698 319.6 317.898 320.4 312.398C319.2 309.998 314.8 309.398 312.2 308.698C306.3 307.298 307.1 314.298 306.6 318.198Z" fill="black"/>
<path d="M532.5 87.3994C555.5 96.1994 549.2 125.499 524.3 117.099C525.1 132.399 506.9 147.299 496.8 130.699C495.5 128.299 494.6 127.399 491.6 127.999C475.8 129.599 470.2 111.899 481.5 101.699C463.3 87.9994 477.2 58.8994 500.6 73.9994C503.9 69.9994 506.7 65.8994 510.3 62.3994C514.4 58.4994 519.7 57.0994 525.3 58.2994C539.4 61.1994 538.7 76.6994 532.5 87.3994ZM520.2 85.5994C523.7 83.5994 526 80.0994 527.1 75.7994C529.4 60.5994 511.1 68.6994 509.6 80.9994C513.2 82.4994 516.5 83.8994 520.2 85.5994ZM491.6 96.2994C493.7 92.6994 495.7 89.2994 497.9 85.5994C485.5 68.5994 474.8 90.2994 491.6 96.2994ZM523.2 96.1994C522.4 98.6994 521.7 100.999 520.9 103.299C540.5 120.599 544.4 96.1994 523.2 96.1994ZM513 109.899C510.2 110.499 507.1 110.299 506.3 111.599C503.5 115.999 502.8 121.699 505.5 126.399C508.3 131.899 513.3 123.799 513.9 120.899C514.4 117.499 513.4 113.799 513 109.899ZM514.8 95.9994C514.7 86.0994 501.3 89.5994 501.5 97.5994C501.5 100.399 504.9 103.899 507.8 103.999C510.2 104.099 514.8 98.8994 514.8 95.9994ZM490.7 120.599C496.8 119.999 501.8 109.499 493.9 107.199C484.6 106.499 479.7 120.099 490.7 120.599Z" fill="black"/>
<path d="M589.4 194.8C580 195.3 580.5 181.8 589.1 181.7C597.5 181.3 598.3 195 589.4 194.8Z" fill="black"/>
<path d="M249 207.497C250 203.697 250.8 194.897 256.9 196.697C263.2 198.797 258.7 206.597 256.9 210.697C254.7 215.297 248.3 212.697 249 207.497Z" fill="black"/>
<path d="M417 50.0983C417 53.6983 415.3 55.8983 412.9 55.9983C407.6 56.1983 408.1 49.6983 407.3 45.9983C407.4 37.4983 417.2 37.9983 417 50.0983Z" fill="black"/>
<path d="M248.8 228.297C240.7 228.497 241.5 216.997 249.3 216.897C257.1 216.697 260.3 228.797 248.8 228.297Z" fill="black"/>
<path d="M609.2 169.599C606.8 172.799 605 176.199 602.2 178.699C599.8 180.899 595.7 178.399 596.6 175.299C598.8 169.399 603.9 158.999 609.2 169.599Z" fill="black"/>
<path d="M265 237.4C264 246.4 253 240.8 253.3 234C254.4 225.5 265.2 231.3 265 237.4Z" fill="black"/>
<path d="M243.9 239.099C242.9 243.099 241.4 246.299 238.3 248.099C235.2 249.699 231.3 246.499 232.4 243.099C234.1 238.199 240.3 231.799 243.9 239.099Z" fill="black"/>
<path d="M606.5 188.598C614.5 187.998 617.3 198.798 608.9 199.298C601.2 199.798 597.9 188.998 606.5 188.598Z" fill="black"/>
<path d="M585.6 171.199C586.2 177.099 578.9 178.999 577.2 173.699C576.2 170.299 573.8 164.499 578.7 163.199C583.7 161.499 584.7 168.299 585.6 171.199Z" fill="black"/>
<path d="M429.7 63.4964C421.2 63.1964 424.9 55.8964 428.2 52.2964C432.9 47.5964 442.6 54.3964 429.7 63.4964Z" fill="black"/>
<path d="M273.4 223.797C263.6 223.897 266.3 212.397 274.9 213.897C283 214.897 280.8 224.097 273.4 223.797Z" fill="black"/>
<path d="M420.1 71.2997C420 78.5997 408.4 77.6997 408.8 70.4997C409.2 62.3997 419.9 63.9997 420.1 71.2997Z" fill="black"/>
<path d="M400.6 62.9969C400 63.5969 398.9 65.6969 397.8 65.6969C393.8 65.3969 386.8 65.5969 388.2 59.4969C390.3 53.8969 401.3 57.3969 400.6 62.9969Z" fill="black"/>
<path d="M229.4 206.598C236.4 206.698 240.2 216.598 231.9 217.198C225.1 217.198 221 207.198 229.4 206.598Z" fill="black"/>
<path d="M406.5 81.5977C414.3 81.8977 409.5 89.8977 407.4 93.5977C406.9 94.4977 404.3 94.7977 403.1 94.2977C402.1 93.8977 400.9 91.7977 401.1 90.6977C402.2 87.5977 402.9 82.6977 406.5 81.5977Z" fill="black"/>
<path d="M432.3 72.7997C439 72.5997 442.3 83.0997 434.5 83.5997C428.1 83.4997 424.1 73.3997 432.3 72.7997Z" fill="black"/>
<path d="M591.5 206.299C591.7 211.699 584.7 215.199 582.6 209.199C580.7 199.399 591.6 196.299 591.2 206.299C591.3 206.299 591.4 206.299 591.5 206.299Z" fill="black"/>
<path d="M570.9 190.298C568.4 190.798 565.6 187.898 565.4 185.898C565.5 184.598 567.1 182.698 568.5 182.198C576 179.798 581.4 190.798 570.9 190.298Z" fill="black"/>
<path d="M517.9 779.299C550.2 778.899 582.8 781.599 615 779.299C620.2 778.099 619.8 769.699 614.5 769.099C579.6 768.599 544.1 765.799 509.4 769.799C500.5 772.399 506.2 786.499 505 793.599C494 771.599 485.7 748.499 472.8 727.499C469 720.199 459.1 719.299 458.2 728.899C450.4 756.299 437.2 781.799 424.2 807.199C424.6 753.899 428.4 778.399 367.9 779.999C357.1 781.099 346.2 782.299 335.4 783.499C328.7 784.899 313.4 782.699 313.7 792.199C314.2 795.399 317.9 797.499 322.5 796.999C352.4 792.899 382.5 790.899 412.1 785.399C412.6 822.099 410.3 858.599 406.6 895.099C405.3 902.399 403.3 906.399 395.3 906.499C304.5 914.599 230.6 892.099 213.6 792.299C194.3 663.799 278.6 565.199 388.2 528.699C392.2 539.699 396.1 550.799 399.6 562.099C405.1 582.899 425.3 711.399 461.2 679.099C500.3 634.599 542.3 591.199 574.4 541.299C643.1 583.599 704 641.399 734.1 717.599C752.4 763.499 762.9 824.799 718.4 858.999C667.9 900.299 597.8 892.699 536.6 897.299C531.1 896.699 520.4 899.399 520.3 891.399C517.7 853.899 518.6 816.899 517.9 779.299Z" fill="white"/>
<path d="M486.1 339.198C481.6 339.898 473.8 341.798 475.3 346.698C476 349.998 478.6 351.198 483.7 350.398C492.9 348.298 502.2 349.498 511.2 350.498C517.6 348.598 518.7 342.998 512.6 339.498C522.8 337.298 532.7 334.898 541.5 329.098C544.1 327.398 547.4 326.698 549.7 324.598C553 321.098 554.7 320.698 558.9 323.098C572.3 331.098 571.5 350.898 561.6 361.298C559 364.898 554.5 364.298 550.6 363.598C547.3 363.598 544.9 367.298 546.9 369.798C548.6 371.898 548 373.698 547.6 375.698C539 410.798 526.2 448.898 494 468.998C389.1 524.598 337.1 340.998 372.1 267.598C383.4 282.298 396.1 294.998 410.9 306.098C406.1 308.898 401.1 308.298 396.3 305.298C394.4 304.098 392.6 303.698 390.7 304.998C388.3 306.698 387.9 309.198 389.6 311.598C395.2 319.798 406.8 320.598 415.5 316.198C421.9 313.498 427.8 314.198 433.7 318.098C449.5 328.698 467.3 335.298 486 338.498C486.1 338.798 486.1 338.998 486.1 339.198ZM456.7 441.898C466.2 439.998 478.2 439.698 481.9 428.998C482.4 427.798 481.9 425.698 481 424.798C480.4 424.198 477.9 424.298 477.1 424.998C469.7 431.098 461.1 433.398 451.7 432.498C444.8 432.398 437.9 428.398 431.2 430.298C432.2 440.798 448.8 439.498 456.7 441.898ZM436.2 344.098C439.4 344.098 441.6 342.398 442.1 339.898C443.5 328.698 416.5 331.798 410.1 334.698C407 335.898 405.5 338.298 406.2 340.798C406.9 343.398 409.3 344.498 412.9 343.698C420.6 341.998 428.5 342.398 436.2 344.098ZM446.9 401.498C458.9 402.498 464.4 387.398 456.9 389.598C449.1 396.798 444 386.198 439 390.898C435 395.598 443.5 402.098 446.9 401.498ZM561.3 348.798C569.3 345.298 566.7 331.398 559.2 328.998C555.5 328.398 551.9 334.298 556.9 335.798C562.9 337.698 560.9 343.598 561.3 348.798ZM459.2 444.998C456.9 445.398 455.3 445.498 453.9 445.998C449.4 446.998 450.9 454.398 455.4 453.498C460.5 453.398 465.1 448.098 459.2 444.998Z" fill="white"/>
<path d="M439.6 488.4C456.2 492.1 472.2 490.4 488.1 484.5C490.5 496.6 496.2 507.1 500.3 518.6C500.8 519.9 501 521.9 500.4 523C491.9 536.5 485.8 553.7 469.9 560.3C448.1 569.3 434.8 543.3 425.6 527.8C425.3 527.3 425.5 526.3 425.7 525.6C430.1 513.1 432.9 500.1 439.6 488.4Z" fill="white"/>
<path d="M423.6 614.097C466.6 690.797 538.1 577.097 535.4 527.797C544.9 531.297 554.5 534.897 564.6 538.597C531.1 585.097 493.1 628.597 454.6 671.097C442.4 686.997 426.2 622.297 423.2 614.297C423.3 614.197 423.4 614.097 423.6 614.097Z" fill="white"/>
<path d="M470.2 743.297C481.1 767.197 490.4 792.697 504.8 814.597C508.1 826.897 505.8 841.497 507.2 854.397C507.3 856.797 506.5 857.497 504.2 857.697C496.3 858.597 488.5 859.897 480.6 860.897C467.8 866.097 471.1 823.097 470.6 815.297C475.4 822.597 478 831.697 483.2 838.597C487.2 841.397 489.1 839.797 489.8 835.397C484.7 821.997 475.8 809.697 469.6 796.597C469.6 789.397 469.6 782.297 470 774.897C473.7 784.197 477.3 793.497 481 802.797C482.2 805.997 484.9 808.497 487.1 807.197C489.2 806.197 489.5 803.897 488.1 800.397C481.9 786.397 478.1 771.097 470.3 757.897C468.5 753.597 470 748.097 469.6 743.397C469.8 743.397 470 743.297 470.2 743.297Z" fill="white"/>
<path d="M410.2 524.5C410.2 553.6 425 595.8 455.8 604.1C493.8 608.9 510.5 565.9 522.3 537.3C517.3 569.6 495.1 617.4 461.4 627C438.6 631 431.6 602.7 422.6 587.4C417.2 577.1 411 567.2 410.1 555.3C408.7 547 407.3 538.6 406.1 530.3C405.4 525.7 405.5 525.7 410.2 524.5Z" fill="white"/>
<path d="M459 826.197C460.1 837.397 461.2 847.897 462.3 858.997C449.2 858.997 435.8 858.997 421.9 858.997C423.1 848.197 422.6 836.497 424.5 825.797C437.6 804.597 447.1 781.397 458.5 759.297C457.9 766.097 459.4 772.897 456.4 779.497C450.8 791.897 445.4 804.397 440 816.897C438.9 819.497 439.5 821.897 441.7 822.897C443.8 823.897 446.2 822.897 447.4 820.297C451 812.697 454.4 804.997 457.9 797.397C458.2 797.397 458.6 797.397 458.9 797.497C458.9 802.597 459 807.697 458.8 812.797C454.7 821.697 447.6 829.297 442.9 837.897C440.4 842.397 447 846.597 449.8 842.197C453.2 836.897 455.8 831.697 459 826.197Z" fill="white"/>
<path d="M423.4 544.498C447.7 591.198 489.3 577.298 508.3 532.698C508.6 532.698 508.8 532.598 509.1 532.598C509.1 533.598 509.5 534.798 509.1 535.698C501.8 551.898 495.8 569.198 483 582.098C454.2 611.398 430.5 570.498 422.9 544.698C423.1 544.598 423.3 544.498 423.4 544.498Z" fill="white"/>
<path d="M469.9 197.8C438.5 198.4 408.9 214.9 391.2 240.7C388.6 245.8 381.3 241.7 384.2 236.8C401.8 210.9 437.6 185.9 470 196.6C469.9 197 469.9 197.4 469.9 197.8Z" fill="white"/>
<path d="M352 148.6C348 145.9 343 144.7 340.4 141.1C339.3 131.5 340.1 120.4 349.2 114.7C358.5 109.2 362 122.7 361.1 129.6C360.3 137.1 356.9 143.7 352 148.6Z" fill="white"/>
<path d="M331.4 142.899C328.8 144.599 326.3 146.199 323.2 148.299C318.9 144.799 314.1 141.499 310 137.399C304.9 132.999 304.7 122.399 311.5 119.699C324.7 117.199 329.8 132.399 331.4 142.899Z" fill="white"/>
<path d="M323.3 178.5C328.3 182.3 333.7 183.5 339.6 182.9C343.5 191 339 203.9 328.8 202.9C318.4 200.4 318.7 186.4 323.3 178.5Z" fill="white"/>
<path d="M347.3 162.099C348.2 176.999 325.8 175.899 326 162.199C327.9 148.499 346.5 146.199 347.3 162.099Z" fill="white"/>
<path d="M351.2 176.2C354.5 170.7 356.4 164.8 355.5 158.2C355.4 157.5 356.2 156.2 356.9 155.9C362.4 153.9 369.7 157.1 372.4 162.6C378.1 174.6 360.4 182.5 351.2 176.2Z" fill="white"/>
<path d="M316.1 168.299C312.6 168.599 308.9 169.099 305.1 168.999C302.5 168.899 300.6 167.199 300 164.499C298.8 155.999 312 153.299 317.5 156.399C317.1 160.099 316.7 163.699 316.1 168.299Z" fill="white"/>
<path d="M278 311.797C279.3 316.397 280.6 320.697 282 325.797C264.8 339.497 260.6 316.497 278 311.797Z" fill="white"/>
<path d="M293.4 329.799C296.2 328.799 298.8 327.799 301.7 326.699C306.8 330.899 310.4 349.799 298.6 344.999C293.5 341.999 294.5 334.699 293.4 329.799Z" fill="white"/>
<path d="M297.9 296.499C299.7 292.699 301.4 288.699 303.6 284.899C312.8 277.199 313.6 295.499 304.7 301.799C302.7 300.199 300.8 298.699 297.9 296.499Z" fill="white"/>
<path d="M299.3 312.296C300.1 321.096 287.6 321.696 287.6 313.096C287.8 304.296 299.3 301.496 299.3 312.296Z" fill="white"/>
<path d="M288.5 297.299C285.9 299.499 283.8 301.399 281.6 303.299C279.1 299.899 273.7 295.899 275.8 291.099C280.5 282.199 286 292.599 288.5 297.299Z" fill="white"/>
<path d="M306.6 318.198C307.1 314.298 306.3 307.298 312.2 308.698C314.8 309.398 319.2 309.998 320.4 312.398C319.6 317.898 311.6 319.698 306.6 318.198Z" fill="white"/>
<path d="M520.2 85.5971C516.4 83.9971 513.2 82.4971 509.6 80.9971C511 68.6971 529.4 60.5971 527.1 75.7971C526.1 80.0971 523.7 83.4971 520.2 85.5971Z" fill="white"/>
<path d="M491.6 96.2999C474.8 90.2999 485.5 68.5999 497.9 85.5999C495.7 89.2999 493.7 92.6999 491.6 96.2999Z" fill="white"/>
<path d="M523.2 96.1992C544.4 96.1992 540.5 120.599 520.9 103.299C521.6 100.999 522.4 98.6992 523.2 96.1992Z" fill="white"/>
<path d="M513 109.898C513.4 113.798 514.3 117.498 513.8 120.898C513.3 123.798 508.2 131.898 505.4 126.398C502.7 121.698 503.4 115.898 506.2 111.598C507.2 110.298 510.3 110.498 513 109.898Z" fill="white"/>
<path d="M514.8 95.9988C514.8 98.8988 510.2 104.099 507.8 103.999C504.9 103.899 501.4 100.399 501.5 97.5988C501.3 89.5988 514.7 86.0988 514.8 95.9988Z" fill="white"/>
<path d="M490.7 120.598C479.7 120.098 484.6 106.498 493.9 107.198C501.7 109.498 496.7 119.898 490.7 120.598Z" fill="white"/>
<path d="M456.7 441.899C448.8 439.499 432.2 440.799 431.1 430.299C437.9 428.399 444.8 432.399 451.6 432.499C461 433.399 469.5 431.099 477 424.999C477.9 424.299 480.3 424.099 480.9 424.799C481.8 425.699 482.3 427.799 481.8 428.999C478.2 439.699 466.2 439.999 456.7 441.899Z" fill="black"/>
<path d="M436.2 344.098C428.5 342.298 420.7 341.998 412.9 343.698C409.2 344.398 406.9 343.398 406.2 340.798C405.5 338.398 407 335.898 410.1 334.698C416.5 331.798 443.5 328.698 442.1 339.898C441.6 342.398 439.4 344.098 436.2 344.098Z" fill="black"/>
<path d="M446.9 401.498C443.5 401.998 435 395.498 439 390.898C444 386.098 449.2 396.698 456.9 389.598C464.3 387.398 458.9 402.498 446.9 401.498Z" fill="black"/>
<path d="M561.3 348.8C561 343.7 562.9 337.7 556.9 335.8C552 334.3 555.5 328.4 559.2 329C566.7 331.3 569.3 345.3 561.3 348.8Z" fill="black"/>
<path d="M459.2 445C465.1 448.1 460.5 453.4 455.4 453.5C450.8 454.4 449.4 447 453.9 446C455.3 445.5 456.8 445.4 459.2 445Z" fill="black"/>
</svg>
