<svg width="960" height="960" viewBox="0 0 960 960" fill="none" xmlns="http://www.w3.org/2000/svg">
<g clip-path="url(#clip0_1557_7556)">
<path d="M463.546 81.0909C538.818 91.6363 612.637 140.636 610.273 224C618.455 296.091 591.728 366.182 591.546 438C591.273 446.727 591.364 455.454 591.182 464.182C591.091 466.545 591.909 467.909 593.818 469.273C610.273 480.636 627.091 491.454 642.909 503.545C760.546 587.818 874.546 823.273 659.727 860C615.818 866.273 571.182 869.091 526.818 867.909C505.273 866.545 511.182 838.545 509.273 823.454C496.455 824 475.182 832.909 465.909 822.273C463.273 826.091 459.273 826.545 455.273 826.636C442.455 826.818 429.728 827.182 416.909 827.182C413.818 886.909 403.727 877.364 350.909 879.364C140.273 891.182 140.727 619.636 262.818 516.727C351.455 437.636 344.727 511.545 331.364 388.364C325.546 302.545 303.091 199.545 362.273 127.364C371.546 117.909 379.091 106.364 391.091 100.091C413.091 87.4545 437.637 79 463.546 81.0909ZM505.818 744.182C506.182 744.091 506.546 744 506.818 743.909C507.818 736.636 502.273 722.364 511.182 719.455C546.091 714.727 581.637 718.636 616.728 718.182C621.273 718.273 628.546 717.545 628.637 724C628.727 726.909 627.273 728.818 624.637 729.727C590.091 731.818 555.091 729.454 520.546 729.727C521.273 769.727 520.455 809.364 523.273 849.182C523.182 858.545 534.637 855.364 540.909 856.091C606.546 851.182 681.637 859.273 735.909 815C767.727 790.636 775.546 748.545 766.455 711.091C747.091 612.727 675 532.091 591.273 481.454C590.637 528 601.091 573.182 607.637 618.909C597.364 665.364 540.818 544.636 537.455 532.091C512.637 563 486.455 592.636 459.909 622.091C445.818 638.273 428.364 617.091 423.728 603C417.273 584.091 411 565.182 404.727 546.273C390.273 581.364 373.909 617.727 344.637 643.182C342 645.636 338.273 646.364 334.909 644.273C327.455 638.818 333.909 627.727 334.182 620.182C343.546 573.273 346.182 525.909 341.091 478.273C213.818 532.273 142.091 707.182 228.091 820.454C265.818 869.545 332.909 868.545 389.182 865.909C397.637 865.727 399.909 861.545 401.273 853.636C405.273 814.545 407.637 775.364 407.182 736.091C375.546 741.818 343.546 744.182 311.637 748.364C299.909 750.273 297.727 736.909 309.637 735.545C344.091 730.273 379.182 731.273 413.182 722.545C425.364 720.091 418.546 751.818 419.909 759.273C420.182 759.364 420.455 759.364 420.727 759.455C432.727 730.727 449.364 703.454 457.182 673.182C457.637 667.727 464.546 665.909 468.637 669.909C471.455 672.727 474 676 475.818 679.545C486.728 700.636 496.182 722.454 505.818 744.182ZM364.818 179.909C326.364 258.909 382.727 457.454 495.637 396.636C529.818 375 543.364 334.545 552.637 297.273C553.182 294.909 553.909 292.727 551.909 290.273C550 287.909 552.364 284.182 555.637 283.909C559.273 284.454 564.637 284 567.182 281.818C579.273 270.727 579.546 244.727 561.273 239C560 238.727 557.909 238.818 557.364 239.545C545.364 249.636 530.273 254.636 515.091 257.818C521.546 260.727 520.637 270 513.091 269.727C505.091 268.545 497.091 267.364 489 268.727C484.546 269.182 478.091 271.364 475.546 266.364C473.637 259.727 481.727 258.182 486.637 257.454C465.455 253.273 446.091 245.454 428.273 233.636C423.728 230.636 418.637 230.454 413.546 232C403.455 236.909 389.637 237.818 383 227.727C379.818 223.909 384.909 218.091 389.182 220.454C394.637 223.909 400.727 225.454 406.727 221.545C389.727 210.727 375.637 197.454 364.818 179.909ZM436.273 417.545C434.546 421.818 432.091 425.545 431.364 429.727C429.637 442.182 426.273 455 426.273 467.454C440.455 495.636 465.182 510.182 486.909 479.545C513.364 438 499.182 462.182 488.455 413.545C471.546 419.818 454.364 421.636 436.273 417.545ZM469.364 725.091C469.091 725.182 468.818 725.273 468.637 725.273C469.273 734.818 466.546 744.818 471.818 753.545C478.091 764.273 483.637 775.454 489.455 786.454C491.455 790.182 491 793.818 488.637 794.909C481.818 798.727 474.273 773.091 469.818 767.636C469.182 783.273 470.637 796.909 473 812C473.909 817.182 475.455 817.909 480.909 817.273C489.091 816.182 497.273 814.818 505.546 813.909C508.818 813.545 509.364 812.273 509.273 809.364C508.818 797.818 508.455 786.273 508.182 774.727C508.091 771.273 508.637 767.727 504.727 765.636C490.637 741.909 480.818 715.636 468.909 690.727C469.364 696.545 467.909 701.909 469.637 706.818C477.364 719.364 480.818 734.091 486.637 747.636C487.637 751.182 492.818 757.727 487.546 759.727C485.273 759.818 481.909 758.182 481.364 755.454C477.182 745.273 472.909 735.364 469.364 725.091ZM457.273 708.182C457 708.182 456.728 708.091 456.455 708.091C444.909 733.091 432.364 758 419.818 782.364C419 793.636 418.455 804.364 417.546 815.818C432.546 815.454 447 815.182 460.909 814.818C459.728 803 458.637 791.636 457.455 779.909C454.273 785.273 451.728 790.273 448.728 795.545C445.091 802.545 436.728 797.636 441 791.091C446.182 782.636 452.728 774.636 457.364 765.909C457.455 760.273 457.455 754.636 457.455 749C457.091 749 456.818 749 456.455 749C452.728 757.091 449 765.182 445.182 773.273C443.818 776.182 441.182 777.364 438.909 776.182C433.909 773.636 438.637 767.454 440.273 763.818C444.818 753.273 448.818 742.545 453.818 732.273C457.546 724.454 456.637 716.364 457.273 708.182ZM417.273 507.273C413.546 513.818 415.182 517.364 418.273 523.364C428.091 539.818 435.546 570.454 460.091 566.091C491.273 558.364 519.364 509.454 522.546 479.273C515.455 489.182 511.909 501.454 505.273 511.909C478.273 554.454 440.273 551.727 417.273 507.273ZM529.091 507.364C513.091 550.364 453.364 618.636 419.546 552.364C422.546 567.818 429.364 582.727 434.273 597.727C436.273 603.091 439.637 608.182 443.091 612.818C446.818 617.727 448.818 617.455 453 613.091C479 585.909 502.637 556.818 526.546 527.909C532.455 521 533.455 514.818 529.091 507.364ZM423.091 483.727C422.727 483.818 422.364 484 422 484.091C426.637 504 447.546 539.182 472 526.182C494 514.818 503.091 489.364 511.546 467.636C511.818 466.818 511.364 465.818 511.182 464.909C493.364 504.909 451.182 530.818 423.091 483.727ZM469.273 105.909C469.273 105.545 469.364 105.091 469.364 104.727C435.273 92.7272 396 120.091 377.364 147.454C373.818 152.545 381.909 157.636 384.818 151.909C403.818 124.273 435.546 106.636 469.273 105.909Z" fill="black"/>
<path d="M505.818 744.182C496.182 722.455 486.727 700.637 475.818 679.546C474 676.001 471.455 672.728 468.636 669.91C464.545 665.91 457.636 667.819 457.182 673.182C456.636 680.364 453.455 686.546 450.818 692.819C441.182 715.182 431 737.364 420.818 759.455C420.545 759.364 420.273 759.364 420 759.273C418.545 751.819 425.455 720.092 413.273 722.546C379.364 731.273 344.182 730.182 309.727 735.546C297.818 736.91 299.909 750.273 311.727 748.364C343.636 744.182 375.636 741.819 407.273 736.092C407.818 775.364 405.364 814.546 401.364 853.637C399.909 861.455 397.818 865.728 389.273 865.91C333 868.546 265.818 869.546 228.182 820.455C142.182 707.182 213.909 532.183 341.182 478.273C346.273 526.001 343.545 573.273 334.273 620.183C333.909 627.728 327.545 638.728 335 644.273C338.455 646.364 342.091 645.728 344.727 643.182C373.909 617.728 390.364 581.364 404.818 546.273C411.182 565.183 417.364 584.092 423.818 603.001C428.455 617.092 445.909 638.182 460 622.092C486.545 592.637 512.727 563.001 537.546 532.092C540.727 544.364 597.455 665.455 607.727 618.91C601.273 573.182 590.727 528.001 591.364 481.455C675.091 532.001 747.182 612.728 766.545 711.001C775.545 748.455 767.818 790.546 736 814.91C681.727 859.092 606.727 851.092 541 856.001C534.727 855.364 523.273 858.364 523.364 849.092C520.545 809.182 521.364 769.637 520.636 729.637C554 729.819 587.455 730.728 620.909 730.182C628.455 731.364 632.455 720.637 624.364 718.546C621.909 718.092 619.364 718.092 616.909 718.092C581.818 718.546 546.182 714.637 511.364 719.364C502.455 722.273 508 736.546 507 743.819C506.545 744.001 506.182 744.092 505.818 744.182Z" fill="white"/>
<path d="M364.818 179.91C375.637 197.365 389.727 210.728 406.727 221.728C400.727 225.637 394.637 224.092 389.182 220.637C384.909 218.183 379.818 224.092 383 227.91C389.637 238.001 403.455 237.092 413.546 232.183C418.637 230.547 423.727 230.728 428.273 233.819C446.091 245.637 465.455 253.456 486.637 257.637C481.727 258.456 473.546 260.001 475.546 266.547C478.182 271.547 484.546 269.365 489 268.91C497.091 267.456 505 268.728 513.091 269.91C520.546 270.183 521.546 260.91 515.091 258.001C530.273 254.819 545.455 249.728 557.364 239.728C557.909 239.001 560 238.91 561.273 239.183C579.546 244.819 579.273 270.91 567.182 282.001C564.546 284.183 559.273 284.637 555.637 284.092C552.455 284.274 550 288.092 551.909 290.456C553.909 292.91 553.182 295.092 552.637 297.456C543.364 334.819 529.818 375.183 495.727 396.819C382.727 457.456 326.455 259.001 364.818 179.91ZM455 367.728C465.182 365.728 478.182 365.274 482.182 353.728C482.637 352.547 482.091 350.274 481.182 349.456C480.364 348.728 477.818 348.819 476.909 349.547C468.637 356.365 459.091 358.637 448.727 357.637C441.637 357.365 434.727 353.547 427.637 355.183C429 366.819 446.182 365.092 455 367.728ZM419.727 249.365C415.182 250.456 409.546 251.547 404.091 253.274C397.727 255.365 401.182 264.547 407.091 262.637C415.455 260.91 423.727 260.819 432.091 262.728C440.182 264.728 442.364 252.728 434.273 251.547C429.909 250.637 425.455 250.183 419.727 249.365ZM444.364 324.456C458 325.365 462.818 309.001 455.091 311.728C447.091 319.365 440.364 307.547 436 313.274C432.909 318.637 440.455 325.001 444.364 324.456ZM567.182 267.547C576.091 264.547 572.727 248.637 564.727 246.456C560.273 244.728 557.727 252.819 562.364 253.91C568.909 255.728 566.818 262.274 567.182 267.547ZM452.546 380.728C458.455 380.001 465.273 374.183 457.091 371.456C449.909 370.819 445.637 375.547 452.546 380.728Z" fill="white"/>
<path d="M436.273 417.547C454.364 421.638 471.455 419.82 488.455 413.547C499.182 462.092 513.273 438.001 486.909 479.547C465.182 510.183 440.455 495.638 426.364 467.456C426.364 455.001 429.727 442.183 431.455 429.729C432.182 425.638 434.546 421.82 436.273 417.547Z" fill="white"/>
<path d="M469.364 725.091C472.909 735.364 477.182 745.364 481.182 755.364C481.728 758.091 485.091 759.728 487.364 759.637C492.637 757.637 487.364 751.091 486.455 747.546C480.637 734 477.182 719.273 469.455 706.728C467.728 701.728 469.182 696.455 468.728 690.637C480.637 715.546 490.455 741.818 504.546 765.546C508.455 767.637 507.818 771.182 508 774.637C508.364 786.182 508.637 797.728 509.091 809.273C509.182 812.182 508.637 813.455 505.364 813.819C497.091 814.637 488.909 816.091 480.728 817.182C475.273 817.909 473.728 817.182 472.818 811.909C470.364 796.818 469 783.182 469.637 767.546C474.182 775.637 477.364 782.546 481.364 790.546C483.273 794.273 486.091 795.909 488.455 794.819C490.909 793.637 491.273 790.091 489.273 786.364C483.455 775.364 477.909 764.273 471.637 753.455C466.364 744.819 469.091 734.728 468.455 725.182C468.909 725.182 469.182 725.182 469.364 725.091Z" fill="white"/>
<path d="M457.273 708.181C456.636 716.272 457.546 724.454 453.727 732.363C448.727 742.636 444.727 753.363 440.182 763.908C438.545 767.545 433.909 773.726 438.818 776.272C441.091 777.454 443.727 776.363 445.091 773.363C448.909 765.272 452.636 757.181 456.364 749.09C456.727 749.09 457 749.09 457.364 749.09C457.364 754.726 457.455 760.363 457.273 765.999C452.636 774.726 446.182 782.726 440.909 791.181C436.636 797.726 445.091 802.545 448.636 795.636C451.636 790.363 454.273 785.363 457.364 779.999C458.546 791.726 459.636 803.09 460.818 814.908C446.909 815.272 432.455 815.545 417.455 815.908C418.364 804.454 418.818 793.726 419.727 782.454C432.273 758.09 444.818 733.181 456.364 708.181C456.727 708.09 457 708.181 457.273 708.181Z" fill="white"/>
<path d="M417.273 507.273C440.273 551.728 478.364 554.364 505.273 511.91C511.818 501.546 515.455 489.183 522.545 479.273C519.182 509.819 491.545 558.092 460.091 566.092C435.545 570.364 428.091 539.819 418.273 523.364C415.182 517.364 413.545 513.91 417.273 507.273Z" fill="white"/>
<path d="M529.091 507.363C533.546 514.727 532.455 520.909 526.546 528C502.637 556.909 479 586.091 453 613.181C448.819 617.545 446.728 617.818 443.091 612.909C439.637 608.272 436.273 603.181 434.273 597.818C429.364 582.818 422.546 567.818 419.546 552.454C453.273 618.636 513 550.454 529.091 507.363Z" fill="white"/>
<path d="M423.091 483.726C451.182 530.907 493.364 504.907 511.182 464.816C511.273 465.725 511.818 466.816 511.545 467.544C503.091 489.271 494 514.816 472 526.089C447.545 539.089 426.636 503.907 422 483.998C422.364 483.907 422.727 483.816 423.091 483.726Z" fill="white"/>
<path d="M469.273 105.908C435.637 106.635 403.818 124.272 384.818 151.908C382 157.635 373.818 152.635 377.364 147.453C395.909 120.09 435.273 92.7262 469.364 104.726C469.273 105.09 469.273 105.544 469.273 105.908Z" fill="white"/>
<path d="M455 367.728C446.182 365.092 429 366.819 427.637 355.183C434.728 353.546 441.637 357.364 448.728 357.637C459.091 358.637 468.637 356.364 476.909 349.546C477.819 348.819 480.273 348.728 481.182 349.455C482.091 350.273 482.637 352.546 482.182 353.728C478.273 365.273 465.273 365.728 455 367.728Z" fill="black"/>
<path d="M419.727 249.363C425.455 250.181 429.909 250.636 434.273 251.454C442.364 252.636 440.182 264.636 432.091 262.636C423.727 260.727 415.455 260.818 407.091 262.545C401.182 264.545 397.727 255.272 404.091 253.181C409.546 251.545 415.182 250.454 419.727 249.363Z" fill="black"/>
<path d="M444.364 324.456C440.454 325.002 432.909 318.638 436 313.274C440.273 307.547 447 319.456 455.091 311.729C462.818 309.002 458 325.365 444.364 324.456Z" fill="black"/>
<path d="M567.182 267.547C566.818 262.274 568.818 255.819 562.364 253.91C557.727 252.819 560.364 244.728 564.727 246.456C572.727 248.638 576.091 264.547 567.182 267.547Z" fill="black"/>
<path d="M452.546 380.726C445.637 375.635 449.909 370.908 457.091 371.453C465.273 374.18 458.455 379.999 452.546 380.726Z" fill="black"/>
</g>
<defs>
<clipPath id="clip0_1557_7556">
<rect width="601.818" height="800" fill="white" transform="translate(179 80)"/>
</clipPath>
</defs>
</svg>
