<svg width="960" height="960" viewBox="0 0 960 960" fill="none" xmlns="http://www.w3.org/2000/svg">
<path d="M346.7 761.701C346.1 753.401 349.5 749.501 357.8 749.301C367.2 749.001 375.6 752.302 383.5 757.102C384.9 758.002 386.3 758.901 388.2 760.201C388.4 755.602 388.7 751.602 388.8 747.502C389.6 713.802 390.3 680.002 394.1 646.502C398 612.602 403 579.001 412.4 546.102C417.2 529.501 425.8 515.602 439.5 505.102C447.9 498.702 456 492.002 464.7 486.102C469.4 482.902 474.6 479.902 480.7 479.902C481.4 479.902 482.1 479.402 483 479.102C473.5 467.902 466.5 455.602 461.8 442.002C458.7 433.102 455.6 424.202 453.3 415.002C451.5 407.802 451 400.402 450.1 393.002C449.4 387.302 448.4 381.602 448.4 375.902C448.4 366.902 448.9 357.902 449.7 348.902C450.4 341.702 451.4 334.402 453 327.402C455.1 318.602 457.9 310.002 460.5 301.402C461.5 297.902 462.5 294.302 464.1 291.002C468.2 282.302 472.3 273.602 476.9 265.102C480.3 258.902 484.5 253.102 488.6 246.702C485.4 245.802 482.1 244.702 478.6 244.102C475.4 243.502 472.2 242.902 471.1 239.502C469.7 235.502 470.9 231.902 474.1 228.902C478.6 224.702 483 220.202 487.8 216.202C492.9 211.902 498.3 208.102 503.6 204.002C504 203.702 504.4 203.302 505.5 202.502C503.3 201.902 501.7 201.502 500.1 201.002C494.6 199.402 489.1 197.602 483.5 196.102C480.6 195.302 479.2 193.702 479.1 190.702C479 187.702 480.3 185.802 483.2 185.102C494.7 182.402 506.3 179.602 517.9 177.202C522.6 176.202 527.4 176.002 532.9 175.302C531.3 174.302 530.3 173.602 529.3 173.002C527.3 171.702 525.9 169.702 527 167.702C527.9 166.202 530.2 164.602 531.9 164.602C550.1 165.302 568.1 166.502 585.5 172.602C598 176.902 610.4 181.302 622.1 187.602C628.7 191.202 635.3 194.602 641.8 198.202C649.3 202.302 656.6 206.502 664.1 210.502C679.9 218.902 691.8 231.102 699.6 247.202C706 260.302 706.2 273.802 701 287.502C698.6 293.802 696.4 300.202 693.8 306.402C691.8 311.202 689.3 315.702 687.2 320.402C685 325.502 683.1 330.702 681.1 335.902C680.9 336.302 681.5 337.202 682 337.702C691 346.602 691.7 357.102 688.1 368.602C685.9 375.502 681.8 380.802 675.8 384.802C667.5 390.502 658.9 395.602 649.4 398.702C642.5 401.002 639.5 406.702 635.9 412.002C628.5 422.802 621.2 433.702 613.9 444.602C609 451.902 604.1 459.302 599.2 466.602C598.9 467.002 598.1 467.202 597.9 467.602C596.8 469.602 594.7 471.102 596.3 474.302C597.8 477.102 597.7 480.602 598.7 483.702C599 484.802 600.5 486.102 601.5 486.202C607.9 487.002 614.5 486.902 620.8 488.102C628.4 489.502 635.9 491.502 643.3 493.602C667.2 500.602 689.8 511.002 710.5 524.602C738.4 542.902 758 568.102 767.4 600.402C771.1 613.102 772.3 626.402 771.4 639.702C769.5 671.702 767.8 703.702 765.1 735.602C763.3 756.902 759.6 778.102 752.1 798.301C741.9 825.701 724 847.602 702 866.301C674.4 889.901 642 903.902 606.6 910.002C583.9 913.902 560.8 915.602 537.8 917.502C520.8 918.902 503.8 919.401 486.8 919.602C479.2 919.702 471.7 918.302 464.1 917.502C463.1 917.402 462.1 917.001 461.2 916.701C455.5 914.802 454 912.201 455.2 905.801C449.8 906.701 444.5 907.502 439.3 908.402C429 910.002 418.7 911.702 408.4 913.002C405.3 913.402 402.1 913.201 399 912.801C389.9 911.801 384 907.102 381.1 898.002C376.2 882.802 372 867.501 371.2 850.801C360.1 860.201 347.6 863.401 334 862.201C333.7 862.602 333.5 862.802 333.5 862.902C329.9 877.602 319.9 886.002 306 890.002C288.5 895.102 270.7 896.202 252.9 891.902C237.6 888.302 225.5 880.102 217.1 866.602C206.3 849.302 197.3 831.202 191.9 811.502C187.8 796.702 187.3 781.402 187.4 766.102C187.4 755.602 191.9 747.602 201.1 741.902C212.4 734.902 224.6 730.902 237.5 728.602C262.3 724.102 287 724.002 311.4 731.002C322.4 734.202 332.9 738.701 339.9 748.301C342.7 752.801 344.5 757.401 346.7 761.701C347.1 766.102 347.5 770.602 347.9 775.301C350 775.401 351.7 775.502 353.7 775.602C351.2 770.802 349 766.201 346.7 761.701ZM469.3 503.502C469.2 503.302 469 503.002 468.9 502.802C462.2 506.602 455.4 510.102 448.9 514.302C438.3 521.202 431.3 531.102 427.4 543.102C425.1 550.001 423.2 557.001 421.5 564.102C407.6 622.401 403.5 681.802 402.4 741.502C402.2 752.102 402.3 762.702 402.3 773.402C402.3 774.202 402.7 775.102 403.1 775.801C406.7 781.901 410.5 787.802 413.8 794.002C418.1 802.002 423.4 807.802 433.5 807.402C442.3 807.102 451.1 807.702 459.9 807.602C466.1 807.602 472.2 807.102 478.3 806.801C483.8 806.602 489.3 806.502 494.7 806.002C523.3 803.602 550.8 797.002 576.9 784.701C597.4 775.002 612.9 760.401 623.3 740.201C632.4 722.401 637.6 703.502 640.4 683.902C641.4 676.502 642.1 669.001 643.3 661.602C644 657.202 647.3 654.602 650.9 654.902C654.6 655.202 657.2 658.602 657.2 663.202C657.2 664.002 657.1 664.802 657 665.502C656.1 671.602 655.2 677.701 654.3 683.801C651 707.201 644.9 729.602 633.3 750.402C622.2 770.402 606.3 785.502 585.9 795.602C551.1 812.802 514.1 820.301 475.4 820.301C473.6 820.301 471.9 820.301 470 820.301C469.9 821.901 469.8 823.102 469.8 824.301C469.9 835.602 470 846.901 470.2 858.201C470.5 872.401 471 886.602 471.5 900.902C471.7 906.102 471.7 906.101 476.9 906.301C497.7 907.301 518.4 906.301 539 904.301C560.1 902.301 581.2 900.701 602.1 897.301C639.5 891.101 672.9 875.902 700.7 849.502C718.4 832.702 732.7 813.602 740.5 790.102C745.8 774.302 748.5 757.902 750 741.402C752 720.702 753.8 699.902 754.9 679.102C755.6 665.902 757.1 652.602 755.2 639.202C753.4 626.202 751.8 613.202 747.2 600.802C741.5 585.602 734.2 571.302 722.6 559.902C705.1 542.702 685.2 528.502 663 517.902C656.7 514.902 650.2 512.202 644 509.402C642.8 511.002 641.9 512.302 641 513.302C632.1 523.402 622.7 533.001 614.4 543.602C602.5 558.902 591.8 575.102 580 590.502C570.9 602.402 561.2 613.902 551.6 625.402C549.6 627.702 547 629.702 544.3 631.202C539 634.002 533.7 630.902 533.1 625.002C533 623.802 533 622.502 533 621.302C533.2 611.202 531 601.602 525.2 593.302C518.5 583.702 510.6 575.802 497.4 576.502C488.7 576.902 480.8 579.202 474.1 584.802C469.1 589.002 464.6 593.602 459.9 598.102C457.5 600.302 455 602.002 451.5 601.002C448 600.002 446.2 597.302 445.9 594.102C445.2 586.902 444.2 579.602 444.5 572.402C445.2 557.102 450.1 542.802 456.6 529.002C460.9 520.502 465.1 512.002 469.3 503.502ZM506.1 377.202C509.2 377.202 511.5 377.402 513.8 377.202C519.9 376.502 525.5 377.602 529.8 382.102C535.2 387.902 540.8 393.602 545.4 400.002C550.5 407.002 554.9 412.902 565.2 412.602C579 412.202 590.7 408.302 600.8 398.802C614.5 386.102 623.7 371.102 629 353.102C635.7 330.302 639.1 307.302 637.8 283.502C637.1 270.602 631.8 260.402 622.1 252.102C612 243.502 600 238.202 588.1 232.902C586.9 232.402 585.2 232.502 583.9 232.802C576.8 234.802 569.7 236.802 562.7 239.302C543.8 246.002 524.6 250.302 504.5 249.002C500.4 248.702 498.1 249.202 495.9 253.402C488.5 266.902 480.9 280.202 474.8 294.402C468.3 309.702 464 325.602 461.5 342.002C460.5 348.502 460.6 354.802 463.1 361.002C464.8 365.002 466.2 369.102 467.6 373.202C469.5 378.502 471 378.902 475.4 375.602C480.1 372.002 485.4 369.702 491.5 370.402C494.4 370.702 497.3 371.502 499.6 372.002C513 340.802 526.3 309.602 539.7 278.202C538 277.602 536.7 276.902 535.3 276.602C524.4 274.002 513.6 271.502 502.7 269.002C500 268.402 498.9 266.602 498.9 264.202C498.9 261.902 500.7 260.802 502.8 260.802C509.6 260.902 516.6 260.202 523.3 261.402C532.1 263.002 540.7 266.202 549.4 268.602C555 270.202 555.8 274.102 553.8 278.402C547.9 291.802 541.8 305.002 535.7 318.302C531.2 328.102 526.6 337.902 521.9 347.702C517.2 357.502 513.5 367.802 506.1 377.202ZM198.8 774.902C199.1 776.702 199.2 778.201 199.5 779.701C202.6 793.502 205.8 807.202 208.8 821.002C211.9 835.402 218 848.401 227.2 859.801C231.1 864.701 235.2 869.502 239.9 873.602C246.5 879.302 255 880.301 263.5 881.301C276.1 882.801 288.6 882.601 300.8 879.301C311.6 876.401 319.9 870.602 322.4 858.602C321.2 857.802 320 857.002 318.9 856.201C311.3 850.802 308.6 842.301 314.8 834.801C315.2 834.301 315.2 833.401 315.1 832.701C313 823.802 314.4 815.102 317 806.602C317.6 804.802 317.9 803.602 316.5 801.902C312.2 796.402 313 789.201 318.1 784.301C322.1 780.401 327 777.902 332.4 776.502C334.3 776.002 336.3 775.701 338.6 775.301C338.1 772.102 337.7 769.102 337.2 765.801C333.4 767.901 330.1 770.002 326.6 771.701C317.5 776.201 307.5 777.602 297.6 778.402C284.2 779.502 270.8 780.002 257.3 780.102C237.8 780.302 218.1 782.202 198.8 774.902ZM360.4 760.502C360.2 760.902 360.1 761.202 359.9 761.602C360.4 762.702 360.9 763.801 361.5 764.801C365.1 770.301 368.7 775.801 372.4 781.301C376.8 787.901 381.3 794.502 385.6 801.201C387.2 803.701 387.4 806.502 385.4 809.002C383.2 811.802 380.3 812.002 377.2 811.201C376.3 811.002 375.5 810.602 374.7 810.201C364.1 805.102 352.9 803.901 341.4 804.301C333.6 804.602 328.6 808.201 327.6 814.201C326.9 817.901 326.9 821.802 326.5 825.502C326.3 827.902 327.4 829.502 329.6 830.102C333.4 831.002 337.2 832.102 341.1 832.201C351.7 832.401 362.4 832.102 373 831.902C379.5 831.802 383.9 835.701 384.2 842.201C384.3 843.401 384.2 844.702 384.2 845.902C384 863.002 388.2 879.301 394 895.301C395 898.101 396.9 899.802 399.8 900.201C401.8 900.501 403.8 900.802 405.8 900.602C412.9 899.802 420 898.901 427 897.701C436.8 896.201 446.6 894.301 456.4 892.801C458.4 892.501 459 891.602 459 889.701C459 886.501 459.2 883.202 459.2 880.002C459.5 861.202 459.8 842.402 459.9 823.502C459.9 822.402 459 820.302 458.3 820.201C450.5 819.302 442.6 817.802 434.9 818.402C422.5 819.402 413.2 815.301 406.8 804.801C403.4 799.201 400.4 793.202 396.9 787.602C390.7 777.802 383.1 769.301 372.4 764.301C368.7 762.501 364.5 761.702 360.4 760.502ZM503.9 498.502C502.2 504.202 500.3 510.602 498.5 516.902C497.5 520.302 496.6 523.802 496.1 527.402C495.2 533.902 493.7 540.502 494.2 547.002C495.2 559.802 504.7 566.202 517.3 564.502C528.6 563.002 538.3 557.602 547.1 551.202C563.2 539.502 578.6 526.802 594.2 514.502C594.9 513.902 595 512.002 594.8 510.802C594.2 508.002 593.2 505.202 592.5 502.402C590.8 495.402 589.2 488.402 587.4 481.002C586.5 481.902 585.7 482.502 585 483.202C581.1 487.302 577.2 491.402 573.3 495.602C567.1 502.302 558.6 504.902 550.4 507.302C544.4 509.102 537.6 508.702 531.2 508.802C527.8 508.902 524.1 508.602 521.1 507.302C515.4 504.902 509.9 501.602 503.9 498.502ZM625.1 512.202C624.8 511.802 624.5 511.502 624.2 511.102C616.9 516.202 609.3 521.002 602.2 526.402C589.5 536.102 577.2 546.502 564.4 556.002C552.4 564.902 539.6 572.502 524.4 576.402C536.1 587.702 542.6 601.002 543.4 617.702C545.5 615.502 547 614.002 548.3 612.402C557.7 600.302 567.2 588.202 576.4 575.902C589.5 558.602 602.3 541.002 615.4 523.702C618.5 519.802 621.9 516.102 625.1 512.202ZM477.7 409.802C478.4 412.702 479.1 415.502 479.7 418.402C480.8 422.902 483.6 425.502 488.1 426.502C493.4 427.702 498.2 427.102 502.8 424.002C507.2 421.002 508.7 421.502 511.8 425.702C514.5 429.202 517.2 432.802 520.6 435.702C523.9 438.602 528.9 439.602 532.3 437.302C537.1 433.902 539.2 425.702 535.7 420.902C533.9 418.402 531.8 415.902 529.4 414.002C519.7 406.002 508.2 401.202 496.8 396.502C488.7 393.302 477.9 398.302 477.7 409.802ZM490.4 566.602C489.3 564.702 488.1 563.302 487.6 561.602C486.2 557.202 484.2 552.702 484.1 548.102C483.8 534.902 484.3 521.702 484.4 508.502C484.4 507.802 484.3 507.102 484.2 506.502C483.8 506.402 483.4 506.302 482.9 506.202C468.1 530.402 455.6 555.502 456.6 585.302C466.3 576.002 476.7 568.602 490.4 566.602ZM333 754.201C328.7 751.102 325.1 748.302 321.2 746.002C312.6 741.102 303.1 738.702 293.4 737.502C270.5 734.602 248 737.102 225.9 743.002C217.6 745.202 210 749.102 203.4 754.602C201.1 756.502 198.8 759.302 201.3 761.701C203.7 764.102 207.6 765.102 210.8 766.602C211 766.702 211.5 765.902 212 765.502C216.7 761.902 220.8 757.301 226.1 754.801C258.8 739.501 291.3 737.201 322.6 758.801C323.4 759.401 325.1 759.701 325.8 759.201C328 758.102 329.9 756.401 333 754.201ZM677.4 308.002C677.7 308.302 678.1 308.702 678.4 309.002C679.8 307.302 681.7 305.802 682.7 303.902C689.6 289.702 693.6 275.002 691.5 258.902C689.8 245.702 684.8 234.302 673.5 227.002C664.4 221.102 654.4 216.602 644.7 211.502C643.6 210.902 642.3 211.002 641 210.702C640.8 211.002 640.5 211.402 640.3 211.702C641.4 212.902 642.4 214.402 643.7 215.202C649.9 219.002 656.3 222.402 662.5 226.202C673.3 232.802 681.7 241.402 684.9 254.202C687.1 262.702 687 271.202 686 279.802C684.9 289.802 683.7 299.602 677.4 308.002ZM674.5 346.402C667.2 359.402 660.1 372.102 652.8 385.202C654 385.202 654.4 385.302 654.9 385.202C664.4 382.802 672.2 377.702 677.2 369.402C682.1 361.002 681 353.502 674.5 346.402ZM364.8 844.402C348.8 845.702 333.7 845.202 318.6 841.502C319.4 844.002 320.4 846.202 322 847.502C333.4 856.202 352.2 855.502 363.3 846.201C363.7 845.901 363.9 845.502 364.8 844.402ZM366.1 794.402C363.3 788.202 359 785.102 353.1 784.801C347.4 784.501 341.7 784.602 336.1 784.902C331.3 785.202 326.9 786.802 323.5 790.402C322.4 791.602 321.7 793.402 320.9 794.902C336.1 791.402 350.8 791.102 366.1 794.402ZM238.7 764.102C241.6 762.902 244.7 761.902 247.5 760.402C249.7 759.202 250.8 756.902 249.7 754.402C248.6 752.002 246.4 750.902 243.9 751.402C241.3 751.902 238.7 752.701 236.2 753.701C233.7 754.802 231.8 756.701 232.5 759.701C233.1 762.602 235.6 763.402 238.7 764.102ZM260.9 754.801C257.1 755.001 254.6 756.902 254.9 759.602C255.2 763.102 258.2 762.802 260.6 763.002C263.6 763.202 265.9 761.102 265.9 758.602C265.8 756.202 263.8 754.701 260.9 754.801Z" fill="black"/>
<path d="M256.4 658.4C256.5 648.2 260.1 639.2 265.1 630.5C268.3 624.9 271.2 619.1 273.3 613C275.7 606.1 274 599 272.4 592.1C270.3 583 267.8 574.1 266.3 564.9C264.5 554.4 265.4 543.9 269.8 533.9C270.2 533 270.6 532 271.1 531.2C272.7 528.7 275.5 527.7 277.8 529C280.3 530.4 281 532.6 280.2 535.3C278.9 540 277 544.7 276.2 549.5C274.6 559.1 276.7 568.4 279 577.7C280.9 585.4 282.8 593.2 284 601C285.3 610.1 283.3 618.9 278.8 626.9C276.3 631.3 273.5 635.5 271.1 639.9C264.3 652.2 262.9 664.4 271.5 676.6C271.8 677.1 272.1 677.6 272.3 678.1C273.4 680 273.9 682 271.9 683.5C269.8 685.1 267.7 684.3 266.2 682.6C261.1 676.5 256.9 670 256.4 661.7C256.3 660.7 256.4 659.6 256.4 658.4Z" fill="black"/>
<path d="M320.5 627.2C320.2 640.7 316.5 654.3 309.9 666.9C303.2 679.5 304 691.6 310.4 703.8C310.7 704.4 311 705 311.3 705.6C312.1 707.6 312.1 709.7 310 710.5C308.7 711 306.1 710.5 305.3 709.6C302.6 705.9 299.9 702.1 298.2 697.9C293.9 687.1 294.2 676.3 299.5 665.7C304.6 655.4 308.3 644.7 309.9 633.2C310.9 626 310.4 618.9 308.8 611.8C308.6 610.8 308.3 609.8 308.2 608.8C307.9 605.8 309.4 603.4 312 602.9C315.1 602.4 317.2 603.9 317.8 606.7C318.9 612.2 319.6 617.7 320.5 623.2C320.6 624.2 320.5 625.3 320.5 627.2Z" fill="black"/>
<path d="M237.5 647.102C236.2 651.802 235.3 656.702 233.5 661.302C228.6 673.502 230.4 685.002 236.6 696.102C237.6 697.902 238.8 699.602 239.3 701.502C239.6 702.902 239.4 705.202 238.5 705.802C237.6 706.502 235.2 706.302 234.1 705.502C232.4 704.402 230.9 702.602 230 700.802C227.6 696.002 225.4 691.102 223.5 686.102C220.7 679.002 221 671.602 223 664.302C224.6 658.402 226.2 652.402 227.9 646.502C228.3 645.202 228.7 643.802 229.6 642.902C230.8 641.802 232.6 640.202 233.8 640.502C235.1 640.802 236 642.902 236.9 644.402C237.3 645.102 237.1 646.102 237.2 647.002C237.3 647.002 237.4 647.002 237.5 647.102Z" fill="black"/>
<path d="M344.199 61.5008C343.299 62.6008 342.399 64.7008 340.999 65.2008C339.399 65.7008 336.799 65.4008 335.499 64.3008C333.499 62.7008 332.099 60.2008 330.699 57.9008C328.899 55.0008 327.099 52.0008 325.599 48.9008C324.199 46.0008 325.199 43.0008 327.599 41.6008C329.999 40.3008 333.099 40.8008 334.699 43.4008C337.799 48.3008 340.499 53.5008 343.399 58.5008C343.699 59.2008 343.799 60.0008 344.199 61.5008Z" fill="black"/>
<path d="M333.897 76.4018C333.697 76.9018 333.597 78.3018 332.797 78.8018C328.897 81.5018 325.097 84.4018 320.897 86.5018C318.497 87.7018 315.797 86.8018 314.297 84.1018C312.797 81.5018 313.397 78.7018 315.697 77.2018C319.297 74.7018 323.197 72.4018 327.297 70.8018C330.697 69.5018 333.997 72.3018 333.897 76.4018Z" fill="black"/>
<path d="M369.897 51.8996C369.297 53.5996 369.097 54.7996 368.497 55.5996C365.997 58.8996 363.497 62.0996 360.697 65.1996C358.997 67.0996 356.597 67.4996 354.297 65.9996C351.997 64.3996 351.197 61.8996 352.597 59.4996C354.897 55.7996 357.297 52.0996 360.297 49.0996C361.597 47.7996 364.697 47.5996 366.697 48.0996C367.997 48.3996 368.897 50.6996 369.897 51.8996Z" fill="black"/>
<path d="M366.003 73.9023C369.803 75.1023 374.203 76.6023 376.803 80.7023C377.703 82.2023 377.603 85.1023 376.703 86.5023C375.803 87.9023 372.703 89.3023 371.403 88.7023C367.703 87.0023 363.803 84.9023 361.003 81.9023C358.103 78.9023 361.103 74.0023 366.003 73.9023Z" fill="black"/>
<path d="M351.004 90.3013C350.504 93.0013 350.304 95.8013 349.504 98.5013C348.604 101.801 346.004 103.401 343.304 102.801C340.704 102.301 338.904 99.6013 339.304 96.3013C339.704 93.2013 340.404 90.1013 341.304 87.2013C342.104 84.4013 343.904 82.4013 347.204 83.0013C350.404 83.7013 350.904 86.2013 350.804 88.9013C350.804 89.3013 350.804 89.8013 350.804 90.2013C350.904 90.3013 351.004 90.3013 351.004 90.3013Z" fill="black"/>
<path d="M416.798 228.501C416.798 233.101 410.998 240.301 407.498 241.101C403.698 242.001 400.298 238.601 401.798 234.901C403.098 231.501 405.398 228.201 407.998 225.601C409.098 224.501 412.298 224.501 414.098 225.101C415.498 225.601 416.198 227.801 416.798 228.501Z" fill="black"/>
<path d="M393.9 239.202C392.6 240.602 391.6 242.702 390.2 243.002C388.7 243.402 386.1 242.602 385.3 241.402C383.2 238.102 381.7 234.502 380.3 230.802C379.5 228.502 380.4 226.302 382.7 225.202C385 224.002 387.5 224.502 388.6 226.602C390.7 230.502 392 234.702 393.9 239.202Z" fill="black"/>
<path d="M387.301 264.102C387.101 259.102 388.301 256.802 391.401 256.602C394.501 256.302 396.301 258.402 397.001 263.102C397.301 264.902 397.701 266.602 397.601 268.402C397.501 271.102 396.401 273.202 393.401 273.602C390.501 274.002 388.701 272.302 388.101 269.702C387.701 267.802 387.601 265.902 387.301 264.102Z" fill="black"/>
<path d="M409.303 258.301C405.003 258.301 400.403 254.701 400.303 251.301C400.303 248.301 402.703 246.001 406.003 246.101C410.603 246.201 414.903 249.501 415.003 253.101C415.103 256.001 412.603 258.301 409.303 258.301Z" fill="black"/>
<path d="M380.099 256C377.199 256 375.199 254.1 375.299 251.5C375.399 248.7 378.099 246.7 381.999 246.8C384.899 246.8 386.999 248.8 386.899 251.2C386.699 253.9 383.699 256 380.099 256Z" fill="black"/>
<path d="M469.3 503.5C465.1 512 460.9 520.6 456.8 529.2C450.3 543 445.3 557.3 444.7 572.6C444.4 579.8 445.3 587.1 446.1 594.3C446.4 597.5 448.2 600.2 451.7 601.2C455.2 602.2 457.8 600.5 460.1 598.3C464.8 593.8 469.3 589.2 474.3 585C481 579.4 488.9 577.2 497.6 576.7C510.8 576 518.7 583.9 525.4 593.5C531.2 601.8 533.5 611.4 533.2 621.5C533.2 622.7 533.2 624 533.3 625.2C533.9 631.1 539.2 634.3 544.5 631.4C547.2 629.9 549.9 627.9 551.8 625.6C561.4 614.1 571.1 602.6 580.2 590.7C591.9 575.3 602.7 559.1 614.6 543.8C622.8 533.2 632.3 523.6 641.2 513.5C642.2 512.4 643 511.2 644.2 509.6C650.4 512.4 656.9 515.1 663.2 518.1C685.5 528.7 705.3 542.9 722.8 560.1C734.4 571.5 741.7 585.8 747.4 601C752 613.4 753.6 626.4 755.4 639.4C757.3 652.8 755.8 666 755.1 679.3C754 700.1 752.2 720.9 750.2 741.6C748.6 758.1 745.9 774.5 740.7 790.3C732.9 813.8 718.6 832.9 700.9 849.7C673.1 876.1 639.7 891.3 602.3 897.5C581.5 901 560.3 902.5 539.2 904.5C518.6 906.5 497.8 907.5 477.1 906.5C472 906.3 471.9 906.2 471.7 901.1C471.2 886.9 470.7 872.7 470.4 858.4C470.1 847.1 470.1 835.8 470 824.5C470 823.3 470.1 822.1 470.2 820.5C472.1 820.5 473.9 820.5 475.6 820.5C514.3 820.5 551.3 813.1 586.1 795.8C606.6 785.7 622.4 770.7 633.5 750.6C645.1 729.8 651.2 707.4 654.5 684C655.4 677.9 656.3 671.8 657.2 665.7C657.3 664.9 657.4 664.1 657.4 663.4C657.4 658.9 654.8 655.5 651.1 655.1C647.5 654.8 644.2 657.3 643.5 661.8C642.3 669.2 641.7 676.7 640.6 684.1C637.8 703.8 632.6 722.6 623.5 740.4C613.1 760.6 597.6 775.3 577.1 784.9C551 797.2 523.5 803.8 494.9 806.2C489.4 806.7 483.9 806.7 478.5 807C472.4 807.3 466.2 807.8 460.1 807.8C451.3 807.9 442.5 807.2 433.7 807.6C423.6 808 418.3 802.2 414 794.2C410.7 788 406.8 782.1 403.3 776C402.9 775.3 402.5 774.4 402.5 773.6C402.5 763 402.4 752.4 402.6 741.7C403.7 682 407.8 622.6 421.7 564.3C423.4 557.2 425.3 550.2 427.6 543.3C431.5 531.3 438.5 521.4 449.1 514.5C455.5 510.3 462.4 506.8 469.1 503C469 503 469.2 503.2 469.3 503.5Z" fill="white"/>
<path d="M506.1 377.199C513.6 367.799 517.2 357.499 521.9 347.799C526.6 338.099 531.2 328.199 535.7 318.399C541.8 305.099 547.9 291.799 553.8 278.499C555.7 274.199 555 270.199 549.4 268.699C540.7 266.299 532.2 263.099 523.3 261.499C516.7 260.299 509.6 260.899 502.8 260.899C500.7 260.899 499 261.999 498.9 264.299C498.9 266.699 499.9 268.499 502.7 269.099C513.6 271.499 524.4 274.099 535.3 276.699C536.7 276.999 538 277.699 539.7 278.299C526.3 309.699 512.9 340.899 499.6 372.099C497.3 371.599 494.5 370.899 491.5 370.499C485.4 369.799 480.1 372.199 475.4 375.699C470.9 378.999 469.4 378.599 467.6 373.299C466.2 369.199 464.7 365.099 463.1 361.099C460.5 354.899 460.5 348.599 461.5 342.099C463.9 325.699 468.2 309.799 474.8 294.499C480.8 280.299 488.5 266.999 495.9 253.499C498.2 249.399 500.5 248.899 504.5 249.099C524.6 250.399 543.9 246.099 562.7 239.399C569.6 236.899 576.8 234.999 583.9 232.899C585.2 232.499 586.9 232.399 588.1 232.999C600.1 238.299 612 243.499 622.1 252.199C631.8 260.499 637.1 270.699 637.8 283.599C639.1 307.399 635.7 330.399 629 353.199C623.7 371.099 614.5 386.199 600.8 398.899C590.6 408.299 578.9 412.299 565.2 412.699C555 412.999 550.5 406.999 545.4 400.099C540.8 393.699 535.2 387.999 529.8 382.199C525.5 377.599 519.9 376.599 513.8 377.299C511.5 377.399 509.2 377.199 506.1 377.199ZM570.6 275.899C569 275.999 567.7 275.799 566.6 276.199C565.4 276.599 564.3 277.499 563.1 278.199C563.9 279.399 564.5 280.999 565.7 281.699C568 282.999 570.6 283.999 573.2 284.499C587.5 287.499 601.2 292.399 614.5 298.399C616.5 299.299 618.6 300.199 620.1 297.599C621.6 294.999 620.5 292.999 618.2 291.699C613.8 289.199 609.5 286.499 604.9 284.599C593.8 279.899 582.4 276.499 570.6 275.899ZM573.3 296.999C569.9 298.099 566.5 298.899 563.2 300.299C560.6 301.399 559.8 304.199 561 306.499C562.2 308.699 564.8 309.299 567.4 307.899C567.8 307.699 568.1 307.399 568.5 307.199C574.1 303.799 580.1 305.899 582.5 311.999C582.8 312.799 582.9 313.999 583.5 314.399C584.7 315.299 586.4 316.699 587.6 316.399C588.8 316.099 589.8 314.199 590.4 312.799C590.8 311.899 590.3 310.599 590 309.499C587.5 302.099 581.2 297.499 573.3 296.999ZM508.7 279.299C505.4 280.399 501.9 281.399 498.7 282.799C495.6 284.099 494.6 286.599 495.8 288.599C497.6 291.399 499.8 290.599 502.2 289.399C510.1 285.299 514.6 287.099 518.1 295.399C518.6 296.699 520.7 297.299 522 298.199C522.9 296.799 524 295.599 524.7 294.099C525 293.399 524.5 292.399 524.3 291.499C522.3 284.499 516.3 279.999 508.7 279.299Z" fill="white"/>
<path d="M198.8 774.901C218.1 782.201 237.8 780.201 257.3 780.101C270.7 780.001 284.2 779.501 297.6 778.401C307.5 777.601 317.5 776.201 326.6 771.701C330.1 770.001 333.4 767.901 337.2 765.801C337.7 769.101 338.1 772.101 338.6 775.301C336.3 775.801 334.3 776.101 332.4 776.501C327 777.901 322.2 780.401 318.1 784.301C313 789.201 312.2 796.401 316.5 801.901C317.8 803.601 317.5 804.801 317 806.601C314.4 815.101 313 823.801 315.1 832.701C315.3 833.301 315.2 834.301 314.8 834.801C308.6 842.201 311.3 850.801 318.9 856.201C320.1 857.001 321.3 857.801 322.4 858.601C319.9 870.601 311.6 876.401 300.8 879.301C288.5 882.601 276.1 882.801 263.5 881.301C255 880.301 246.6 879.301 239.9 873.601C235.2 869.601 231.1 864.701 227.2 859.801C218.1 848.301 212 835.301 208.8 821.001C205.8 807.201 202.6 793.501 199.5 779.701C199.3 778.201 199.1 776.701 198.8 774.901Z" fill="white"/>
<path d="M360.4 760.5C364.5 761.7 368.7 762.5 372.5 764.3C383.2 769.3 390.8 777.8 397 787.6C400.5 793.2 403.5 799.1 406.9 804.8C413.3 815.3 422.6 819.3 435 818.4C442.7 817.8 450.6 819.4 458.4 820.2C459.1 820.3 460 822.3 460 823.5C459.8 842.3 459.5 861.1 459.3 880C459.3 883.2 459.1 886.5 459.1 889.7C459.1 891.6 458.5 892.5 456.5 892.8C446.7 894.4 436.9 896.2 427.1 897.7C420 898.8 413 899.7 405.9 900.6C403.9 900.8 401.9 900.5 399.9 900.2C397 899.8 395.2 898.1 394.1 895.3C388.3 879.3 384.1 863.1 384.3 845.9C384.3 844.7 384.3 843.4 384.3 842.2C384 835.7 379.5 831.8 373.1 831.9C362.5 832.1 351.8 832.4 341.2 832.2C337.4 832.1 333.5 831 329.7 830.1C327.5 829.6 326.4 827.9 326.6 825.5C326.9 821.7 327 817.9 327.7 814.2C328.8 808.3 333.7 804.7 341.5 804.3C353 803.8 364.3 805.1 374.8 810.2C375.6 810.6 376.4 811 377.3 811.2C380.4 812.1 383.3 811.8 385.5 809C387.5 806.4 387.3 803.7 385.7 801.2C381.4 794.5 376.9 788 372.5 781.3C368.9 775.8 365.2 770.3 361.6 764.8C360.9 763.8 360.5 762.7 360 761.6C360.1 761.2 360.2 760.8 360.4 760.5Z" fill="white"/>
<path d="M503.9 498.5C509.9 501.6 515.4 504.9 521.2 507.3C524.3 508.6 527.9 508.8 531.3 508.8C537.7 508.7 544.4 509.1 550.5 507.3C558.7 504.9 567.2 502.2 573.4 495.6C577.3 491.5 581.2 487.3 585.1 483.2C585.8 482.5 586.5 481.9 587.5 481C589.2 488.3 590.9 495.4 592.6 502.4C593.3 505.2 594.3 507.9 594.9 510.8C595.1 512 595 513.9 594.3 514.5C578.7 526.9 563.2 539.5 547.2 551.2C538.4 557.6 528.8 563 517.4 564.5C504.8 566.2 495.3 559.7 494.3 547C493.8 540.6 495.3 533.9 496.2 527.4C496.7 523.9 497.7 520.4 498.6 516.9C500.3 510.6 502.2 504.3 503.9 498.5Z" fill="white"/>
<path d="M625.1 512.199C621.9 515.999 618.5 519.799 615.5 523.799C602.4 541.199 589.6 558.699 576.5 575.999C567.3 588.299 557.8 600.299 548.4 612.499C547.1 614.199 545.6 615.599 543.5 617.799C542.7 601.099 536.2 587.799 524.5 576.499C539.7 572.599 552.5 564.999 564.5 556.099C577.3 546.499 589.6 536.199 602.3 526.499C609.4 521.099 616.9 516.299 624.3 511.199C624.5 511.499 624.8 511.899 625.1 512.199Z" fill="white"/>
<path d="M477.7 409.8C477.9 398.3 488.7 393.2 496.8 396.5C508.2 401.2 519.7 406 529.4 414C531.8 416 533.9 418.4 535.7 420.9C539.2 425.7 537.1 433.9 532.3 437.3C528.9 439.7 523.9 438.6 520.6 435.7C517.3 432.8 514.5 429.2 511.8 425.7C508.7 421.5 507.2 421 502.8 424C498.3 427.1 493.4 427.7 488.1 426.5C483.6 425.4 480.8 422.9 479.7 418.4C479.1 415.6 478.4 412.7 477.7 409.8ZM493.2 407.3C497.6 416.4 509.7 421.8 519.1 419.2C521 418.7 522.5 417 524.2 415.8C524.1 415.4 523.9 414.9 523.8 414.5C522.2 414 520.5 412.9 518.9 413C510.2 413.1 501.8 412 493.2 407.3Z" fill="white"/>
<path d="M490.4 566.599C476.6 568.599 466.2 576.099 456.6 585.299C455.7 555.499 468.1 530.499 482.9 506.199C483.3 506.299 483.7 506.399 484.2 506.499C484.3 507.199 484.4 507.899 484.4 508.499C484.3 521.699 483.8 534.899 484.1 548.099C484.2 552.599 486.2 557.099 487.6 561.599C488.2 563.199 489.4 564.699 490.4 566.599Z" fill="white"/>
<path d="M333 754.201C330 756.401 328 758.001 325.8 759.301C325 759.701 323.4 759.401 322.6 758.901C291.2 737.401 258.8 739.601 226.1 754.901C220.9 757.301 216.7 762.001 212 765.601C211.6 765.901 211 766.801 210.8 766.701C207.5 765.201 203.7 764.201 201.3 761.801C198.9 759.401 201.2 756.601 203.4 754.701C210.1 749.201 217.7 745.301 225.9 743.101C248 737.201 270.5 734.601 293.4 737.601C303.1 738.801 312.6 741.201 321.2 746.101C325.1 748.301 328.6 751.201 333 754.201Z" fill="white"/>
<path d="M677.4 308.001C683.6 299.601 684.9 289.801 686.1 279.901C687.1 271.301 687.2 262.801 685 254.301C681.8 241.501 673.4 232.901 662.6 226.301C656.4 222.501 650 219.001 643.8 215.301C642.5 214.501 641.5 213.001 640.4 211.801C640.6 211.501 640.9 211.101 641.1 210.801C642.3 211.001 643.7 211.001 644.8 211.601C654.5 216.701 664.5 221.201 673.6 227.101C684.9 234.401 689.9 245.801 691.6 259.001C693.6 275.101 689.7 289.801 682.8 304.001C681.9 305.901 680 307.401 678.5 309.101C678.1 308.701 677.8 308.301 677.4 308.001Z" fill="white"/>
<path d="M674.5 346.402C681 353.502 682.1 361.002 677.2 369.302C672.2 377.702 664.4 382.802 654.9 385.102C654.5 385.202 654 385.102 652.8 385.102C660.1 372.102 667.2 359.402 674.5 346.402Z" fill="white"/>
<path d="M364.8 844.402C363.9 845.502 363.7 845.902 363.4 846.102C352.3 855.402 333.5 856.102 322.1 847.402C320.4 846.102 319.5 843.902 318.7 841.402C333.8 845.202 348.8 845.702 364.8 844.402Z" fill="white"/>
<path d="M366.1 794.402C350.8 791.002 336.1 791.402 320.8 794.902C321.7 793.402 322.3 791.702 323.4 790.402C326.7 786.702 331.2 785.102 336 784.902C341.7 784.602 347.4 784.502 353 784.802C358.9 785.102 363.3 788.202 366.1 794.402Z" fill="white"/>
<path d="M238.7 764.102C235.6 763.502 233.2 762.702 232.5 759.602C231.8 756.502 233.7 754.602 236.2 753.602C238.7 752.602 241.3 751.802 243.9 751.302C246.4 750.802 248.6 751.902 249.7 754.302C250.9 756.902 249.8 759.102 247.5 760.302C244.7 761.802 241.6 762.802 238.7 764.102Z" fill="white"/>
<path d="M260.9 754.802C263.8 754.702 265.8 756.202 265.8 758.602C265.8 761.102 263.5 763.202 260.5 763.002C258.2 762.802 255.2 763.102 254.8 759.602C254.6 756.802 257.2 754.902 260.9 754.802Z" fill="white"/>
<path d="M457.696 168C457.796 175.9 451.996 179.8 445.596 176.6C440.296 174 435.396 170.5 430.396 167.3C422.196 162 422.196 162 416.496 169.8C413.696 173.6 410.696 177.2 407.696 180.8C406.496 182.2 405.096 183.8 403.396 184.4C401.396 185.1 398.596 185.6 396.896 184.8C395.396 184 394.396 181.3 394.096 179.3C393.796 177.4 394.496 175.3 394.796 173.3C395.896 167 396.996 160.7 397.996 154.4C398.296 152.4 398.096 150.4 397.996 148.4C397.796 145.8 396.396 144.3 393.896 143.2C389.896 141.4 385.996 139.5 382.396 137.1C380.296 135.8 378.496 133.7 377.096 131.6C374.796 128.1 375.896 124.2 379.596 122.1C381.596 121 383.896 120.3 386.096 119.6C391.396 117.7 396.696 116.1 401.896 114.1C406.096 112.5 408.896 109.6 410.196 105.1C411.796 99.3996 413.796 93.7996 415.796 88.1996C416.696 85.6996 417.996 83.2996 419.396 80.9996C420.896 78.4996 422.996 76.5996 426.196 76.7996C429.496 76.9996 431.396 79.2996 432.496 82.0996C434.596 87.2996 436.696 92.4996 438.696 97.6996C439.396 99.5996 440.396 101.4 440.696 103.4C441.496 108.5 445.196 110 449.296 111.4C453.796 113 458.196 114.9 462.596 116.9C464.096 117.6 465.496 118.7 466.696 119.8C471.196 123.9 470.796 129.2 465.596 132.4C462.496 134.3 458.996 135.7 455.696 137.3C447.396 141.5 447.396 141.7 451.296 150.1C453.396 154.8 455.196 159.6 457.096 164.4C457.596 165.8 457.596 167.3 457.696 168ZM387.796 128.2C387.696 128.5 387.596 128.8 387.496 129.1C390.996 130.8 394.296 132.8 397.896 134.3C404.696 137 407.596 142.2 407.896 149.2C407.996 152.1 407.696 155 407.496 157.9C407.296 160.5 406.896 163 406.496 165.6C408.796 163.5 410.496 161.1 412.096 158.8C415.796 153.5 420.896 151.7 427.096 153.8C429.596 154.7 431.996 155.9 434.296 157.3C437.996 159.4 441.496 161.7 445.396 164.1C445.296 163.2 445.296 162.8 445.096 162.4C442.996 158.1 440.996 153.7 438.796 149.4C435.996 144 436.296 138.7 440.796 134.7C444.096 131.7 448.296 129.5 452.096 127C452.896 126.4 453.896 126.1 454.796 125.6C454.796 125.2 454.796 124.9 454.796 124.5C450.496 123.4 446.296 121.9 441.896 121.2C437.296 120.5 434.196 118.8 432.396 114.1C429.696 106.9 426.196 99.9996 422.796 92.4996C421.196 97.2996 419.496 101.5 418.596 105.8C416.696 114.7 411.096 120 402.796 122.9C397.796 124.7 392.796 126.4 387.796 128.2Z" fill="black"/>
<path d="M387.8 128.2C392.8 126.4 397.9 124.7 402.9 122.9C411.2 120 416.8 114.7 418.7 105.8C419.6 101.5 421.4 97.3 422.9 92.5C426.3 100.1 429.8 107 432.5 114.1C434.3 118.8 437.4 120.4 442 121.2C446.4 121.9 450.6 123.4 454.9 124.5C454.9 124.9 454.9 125.2 454.9 125.6C454 126.1 453 126.4 452.2 127C448.4 129.5 444.2 131.6 440.9 134.7C436.4 138.8 436.1 144 438.9 149.4C441.1 153.7 443.1 158 445.2 162.4C445.4 162.8 445.3 163.2 445.5 164.1C441.5 161.7 438 159.4 434.4 157.3C432.1 156 429.7 154.7 427.2 153.8C421 151.7 416 153.5 412.2 158.8C410.6 161.2 408.9 163.5 406.6 165.6C406.9 163 407.4 160.5 407.6 157.9C407.8 155 408.1 152.1 408 149.2C407.8 142.2 404.9 137 398 134.3C394.4 132.9 391 130.9 387.6 129.1C387.6 128.8 387.7 128.5 387.8 128.2Z" fill="white"/>
<path d="M297.398 246.701C292.698 246.501 290.798 244.301 290.098 241.301C289.198 237.501 288.798 233.601 288.098 229.701C287.898 228.301 287.498 226.901 287.098 225.501C286.098 221.801 284.298 219.101 279.998 218.601C277.298 218.201 274.598 217.201 272.098 215.901C267.298 213.301 266.798 208.001 271.098 204.601C273.498 202.701 276.298 201.101 278.998 199.601C282.498 197.601 284.298 194.901 284.398 190.701C284.498 187.301 284.998 183.701 285.898 180.501C287.898 173.801 293.798 172.101 299.198 176.501C300.898 177.901 302.798 179.301 304.098 181.001C306.798 184.501 310.098 184.901 314.098 184.101C318.598 183.201 323.198 182.701 327.698 182.301C329.798 182.101 331.998 182.101 334.098 182.401C339.398 183.201 341.298 187.501 338.598 192.101C336.098 196.201 333.498 200.201 330.898 204.301C329.298 206.801 329.298 208.801 331.598 211.301C336.398 216.401 334.598 221.401 327.698 223.001C323.098 224.101 318.498 225.001 313.998 226.101C310.198 227.101 307.698 229.501 306.298 233.401C305.098 236.901 303.498 240.301 301.498 243.301C300.698 244.901 298.398 245.901 297.398 246.701ZM297.898 230.001C301.198 217.901 311.698 216.701 321.298 214.201C316.598 206.001 322.898 200.201 325.798 192.901C321.598 194.801 317.998 196.301 314.398 198.001C312.298 199.001 310.398 199.601 308.598 197.701C304.898 193.701 301.198 189.701 297.498 185.801C296.598 184.901 295.598 184.101 293.898 182.801C293.498 186.501 292.998 189.201 293.098 192.001C293.198 198.201 290.598 202.701 285.498 206.001C283.798 207.101 282.198 208.201 279.798 209.801C293.198 210.501 295.498 220.001 297.898 230.001Z" fill="black"/>
<path d="M297.903 230.002C295.603 220.002 293.203 210.502 279.803 209.602C282.203 208.002 283.803 206.802 285.503 205.802C290.603 202.502 293.303 198.002 293.103 191.802C293.003 189.102 293.603 186.302 293.903 182.602C295.503 184.002 296.603 184.702 297.503 185.602C301.203 189.602 304.903 193.602 308.603 197.502C310.403 199.402 312.403 198.802 314.403 197.802C318.003 196.102 321.603 194.602 325.803 192.702C322.903 200.102 316.503 205.802 321.303 214.002C311.703 216.702 301.203 217.902 297.903 230.002Z" fill="white"/>
<path d="M570.6 275.902C582.4 276.402 593.8 279.902 604.8 284.602C609.4 286.602 613.7 289.302 618.1 291.702C620.4 293.002 621.6 295.002 620 297.602C618.5 300.202 616.4 299.302 614.4 298.402C601.1 292.402 587.5 287.502 573.1 284.502C570.5 284.002 567.9 282.902 565.6 281.702C564.5 281.102 563.9 279.402 563 278.202C564.2 277.502 565.2 276.602 566.5 276.202C567.7 275.902 569 276.002 570.6 275.902Z" fill="black"/>
<path d="M573.3 297C581.2 297.5 587.5 302.1 589.9 309.5C590.2 310.6 590.7 311.9 590.3 312.8C589.7 314.2 588.7 316.1 587.5 316.4C586.4 316.7 584.7 315.4 583.4 314.4C582.8 313.9 582.7 312.8 582.4 312C580 305.9 574 303.8 568.4 307.2C568 307.4 567.7 307.7 567.3 307.9C564.7 309.3 562.1 308.7 560.9 306.5C559.7 304.3 560.5 301.4 563.1 300.3C566.4 298.9 569.9 298.1 573.3 297Z" fill="black"/>
<path d="M508.7 279.301C516.3 280.001 522.3 284.401 524.4 291.501C524.6 292.301 525.1 293.401 524.8 294.101C524.1 295.601 523 296.801 522.1 298.201C520.8 297.301 518.7 296.601 518.2 295.401C514.7 287.101 510.2 285.301 502.3 289.401C499.9 290.601 497.6 291.401 495.9 288.601C494.6 286.601 495.7 284.201 498.8 282.801C502 281.401 505.4 280.501 508.7 279.301Z" fill="black"/>
<path d="M493.2 407.301C501.8 412.001 510.2 413.201 518.9 413.001C520.5 413.001 522.1 414.001 523.8 414.501C523.9 414.901 524.1 415.401 524.2 415.801C522.5 417.001 521 418.701 519.1 419.201C509.8 421.801 497.6 416.401 493.2 407.301Z" fill="black"/>
</svg>
