<svg width="960" height="960" viewBox="0 0 960 960" fill="none" xmlns="http://www.w3.org/2000/svg">
<path d="M364.05 40.3398C392.41 48.8398 369.24 154.17 363.59 177.77C361.15 190.28 354.44 202.48 353.66 215.06C355.27 219.35 356.71 223.82 359.11 227.67C362.4 232.96 365.29 232.92 369.2 228.05C372.86 223.5 376.06 218.59 379.78 214.1C384.81 208.01 390.08 202.17 393.9 195.14C396.74 190.15 401.71 186.6 407.47 185.7C409.97 184.09 412.17 184.63 414.45 186.28C423.98 190.17 442.01 172.74 451.32 172.37C456.45 172.36 454.53 178.85 451.5 180.53C439.93 186.91 429.22 194.57 415.83 196.69C417.23 205.29 418.05 215.19 413.25 223.09C406.21 236.2 390.96 231.23 387.64 218.14C374.57 235.97 363.26 254.22 347.82 225.86C344.53 232.58 341.33 239.14 336.16 244.63C322.27 259.82 306.35 252.1 301.77 233.7C295.91 250.75 278.78 274.12 259.07 260.58C257.07 259.27 255.93 259.44 254.12 260.82C235.62 276.08 218.17 270.41 214.87 246.2C212.25 224.84 211.45 203.38 210.07 181.93C204.22 190.99 201.63 200.25 201.84 211C201.62 225.58 199.83 240.07 195.34 254.03C191.79 263.29 188.71 273.97 179.85 279.58C163.61 289.91 157.67 265.32 163.19 253.96C171.49 233.96 183.34 215.57 193.17 196.3C194.02 161.44 185.64 126.3 186.27 91.0598C178.65 100.58 163.53 107.17 153.33 97.7399C151.1 96.2299 148.61 91.6698 145.97 94.9398C142.6 98.4799 142.29 103.27 141.83 107.84C141.72 111.17 136.79 111.35 136.18 108.2C133.16 99.0098 141.59 80.4798 153.07 87.4298C158.76 91.4498 162.7 96.7998 170.23 93.2898C177.81 90.7298 180.66 84.4698 183.99 77.7999C196.87 66.7299 194.23 99.7899 194.97 106.02C195.58 130.72 199.38 154.63 201.73 179.28C204.55 173.79 208.53 167.78 209.37 161.67C210.22 133.03 201.55 82.6798 217.73 59.2498C228 44.9998 244.39 60.6798 243.89 73.9998C244.17 106.56 227.22 136.46 218.12 166.88C220.12 194.34 218.87 222.27 224.37 249.34C228.87 266.83 239.88 261.23 250.79 252.81C242.19 240.6 244.22 224.26 251.04 211.8C260.79 197.03 275.16 213.38 273.07 226.21C272.88 236.24 267.7 244.43 262.81 252.62C267.15 256.54 272.41 257.15 277.32 254.21C290.25 246.48 292.54 230.2 298.35 217.45C295.56 181.31 292.41 144.79 292.07 108.38C292.08 89.7799 291.23 70.0598 298.26 52.4898C304.33 41.1398 314.49 50.1598 317.24 58.8898C330.93 103.42 319.2 170.31 308.06 215.34C307.77 222.09 310.58 228.92 311.84 235.57C313.46 240.51 318.44 246.74 324.04 243.06C333.66 237.51 341.87 221.58 343.56 210.98C339.42 189.82 339.41 168.42 339.94 147C341.24 124.96 340.12 47.1398 364.05 40.3398ZM363.53 49.6698C345.52 83.3998 348.04 154.67 349.71 193.72C349.91 193.74 350.11 193.77 350.31 193.79C358.53 161.87 379.3 77.7698 363.53 49.6698ZM304.75 191.18C304.87 191.19 304.99 191.19 305.11 191.2C311.29 156.67 323.24 87.0098 306.24 56.4898C306.04 56.5298 305.84 56.5699 305.65 56.6199C295.13 100.43 302.79 146.67 304.75 191.18ZM217.25 143.2C217.4 143.21 217.55 143.21 217.71 143.22C221.95 124.62 246.43 76.3298 230.08 62.9498C221.98 57.5198 217.67 83.4298 217.66 88.4698C216.93 106.69 216.37 124.98 217.25 143.2ZM193.7 214.37C193.49 214.33 193.28 214.29 193.08 214.24C185.82 227.94 177.54 241.21 171.36 255.44C165.49 273.46 173.87 282.35 183.69 261.78C190.65 246.89 192.23 230.51 193.7 214.37ZM256.16 245.82C256.46 245.79 256.76 245.76 257.05 245.73C260.29 240.63 263.25 235.38 264.31 229.31C265.05 225.07 265.23 220.83 262.86 216.96C261.04 213.98 259.27 214.03 257.81 217.14C253.44 226.16 252.33 236.41 256.16 245.82ZM407.52 199.88C404.45 202.35 401.7 204.5 399.01 206.73C394.95 210.09 395.21 217.85 399.44 221.07C403.53 224.59 406.04 217.99 407.28 214.95C408.82 210.19 408.27 205.3 407.52 199.88Z" fill="black"/>
<path d="M456.74 565.369C463.85 543.599 470.88 522.049 477.96 500.369C472.48 498.499 466.51 496.909 461.47 493.889C451.34 486.739 463.09 479.109 470.65 477.109C453.84 464.799 433.97 460.269 414.79 453.079C411.25 451.839 408.63 449.589 406.72 446.289C384.4 407.319 381.62 416.589 424.04 404.059C428.77 403.329 432.61 407.239 437.54 406.599C451.54 406.569 464.28 410.989 476.07 418.379C484.27 423.059 490.91 429.799 498.18 435.589C507.21 438.989 516.27 442.299 525.31 445.669C530.78 447.709 536.22 449.809 541.66 451.909C546.34 454.179 549.26 456.409 546.05 461.519C541.07 470.459 536.84 480.059 531.22 488.569C529.28 490.289 529.18 492.109 529.78 494.499C531.24 500.319 532 506.269 531.26 512.269C530.58 515.139 532.56 517.459 531.87 520.369C528.78 550.059 524.16 579.449 518.89 608.799C539.04 582.939 560.75 558.149 586.7 537.919C591.71 532.079 595.39 525.089 599.65 518.679C600.27 517.679 600.01 516.129 600.16 514.799C576.6 509.619 567.15 484.779 563.47 463.419C554.44 417.329 568.2 371.559 574.17 326.039C569.63 333.629 559.88 329.519 563.22 321.969C566.31 316.659 570.65 312.529 575.24 308.439C572.99 309.489 570.74 310.789 568.34 311.399C563.31 312.489 559.56 305.839 563.27 302.189C568.57 297.739 576.03 296.719 582.24 293.849C578.06 292.599 570.76 291.439 572 285.539C573.76 277.819 583.43 281.849 588.49 283.719C588.58 283.469 588.7 283.309 588.66 283.229C587.43 280.989 587.31 278.779 589.18 276.859C593.88 271.339 604.8 281.319 610.31 283.359C609.44 278.969 615.15 274.919 618.97 278.069C623.71 282.119 628.71 285.829 632.96 290.409C640.85 278.989 647.82 297.289 651.65 303.349C658 293.259 665.01 308.849 667.99 314.159C675.33 306.399 679.39 317.519 682.22 323.079C682.54 323.649 683.42 324.229 684.06 324.239C690.67 324.019 690.69 331.449 692.16 336.199C715.49 361.159 729.51 371.119 707.51 405.319C706.58 406.569 706.55 407.629 707.24 409.059C712.36 418.859 711.81 433.859 701.7 440.249C696.9 442.969 691.85 445.299 686.75 447.409C683.51 448.739 680.87 450.429 678.72 453.269C673.99 459.519 668.92 465.519 664.14 471.729C663.06 473.139 662.19 474.959 661.93 476.699C660.31 489.419 657.42 501.869 658.01 514.779C674.29 513.469 669.3 525.539 679.53 533.929C709.21 558.769 709.32 599.079 717.21 634.009C731.26 705.479 751.22 775.459 772.1 845.179C773.26 849.699 773.33 854.239 769.95 858.059C784.15 861.829 798.57 865.599 812.71 869.699C817.21 871.639 824.96 873.519 824.3 879.779C822.84 891.089 788.62 883.669 780.01 886.349C782.96 887.889 786.03 889.569 788.53 891.709C794 896.779 792.47 904.599 785.44 907.139C775.41 910.369 764.66 906.859 754.43 906.159C723.28 901.389 724 900.229 693.72 910.619C679.19 915.759 673.92 904.249 684.57 894.229C689.7 889.509 695.27 885.269 700.68 880.859C702.2 878.889 709.84 875.659 707.72 873.019C706.8 871.879 706.91 869.519 704.43 870.069C701.62 870.689 698.8 871.319 695.97 871.839C681.46 875.179 680.02 858.549 678.51 848.229C677.36 840.609 676.5 832.949 675.1 825.229C668.68 850.649 665.31 876.989 657.63 902.049C654.83 907.969 649.56 909.519 644.31 905.619C636.63 899.699 628.93 893.709 621.96 886.939C558.96 931.769 466.97 909.769 431.61 840.869C430.87 845.479 428.31 848.859 425.84 852.569C424.93 853.769 424.53 854.669 424.65 856.149C425.01 860.589 425.83 865.139 425.22 869.469C419.84 894.399 385.34 892.419 366.08 887.309C358.83 917.869 328.72 911.019 304.64 914.489C277.6 915.729 248.22 925.619 222.64 912.949C197.74 895.159 289.45 864.949 301.78 861.689C289.59 841.259 297.38 811.389 300.57 789.049C316.12 711.349 338.63 633.259 383.44 566.989C403.55 534.199 435.37 536.759 456.74 565.369ZM649.66 899.179C656.24 874.739 658.97 849.469 664.58 824.769C670.92 798.689 678.63 772.979 684.01 746.659C690.82 714.189 704.39 682.569 706.12 649.309C706.26 638.699 703.14 627.559 704.07 617.149C705.59 615.069 704.99 613.049 704.65 610.989C703.33 603.049 702 595.099 700.52 587.189C697.58 568.039 687.84 550.709 673.34 537.899C669.52 534.159 666.54 529.929 665.15 524.669C664.48 522.119 663.01 521.329 660.24 521.629C642.51 524.169 624.62 524.599 606.8 522.749C604.05 521.719 601.87 528.319 600.12 529.969C605.56 528.609 610.48 527.199 615.98 526.549C619.78 525.949 618.49 529.019 618.27 531.479C618.31 532.949 617.53 533.309 616.19 533.609C580.23 541.079 550.52 584.579 527.32 611.439C523.23 617.499 512.7 626.439 510.28 614.179C510.38 600.449 515.03 587.109 516.7 573.519C519.54 554.379 521.84 535.179 523.95 515.939C511.08 513.139 498.27 510.349 485.4 507.559C475.53 534.319 467.44 561.489 459.57 588.869C449.75 625.429 434.05 666.919 452.34 703.269C467.01 733.359 505.17 731.249 532.17 720.979C576.33 704.409 604.22 663.879 624.26 623.189C626.29 618.049 632.18 622.709 630.66 626.839C611.5 672.419 577.39 714.969 529.25 731.209C557.43 794.169 595.41 855.499 649.66 899.179ZM521.35 733.339C479.01 744.809 441.71 726.609 436.24 680.899C431.83 647.539 442.99 614.959 451.88 583.259C453.89 576.259 453.94 576.259 449.4 570.619C444.68 564.759 439.59 559.319 432.98 555.459C379.95 523.159 323.45 720.639 316.04 757.749C309.69 788.129 300.24 819.749 305.69 850.939C306.94 855.899 308.63 857.569 313.68 857.989C329.97 858.689 346.53 862.579 362.65 858.769C373.82 856.209 371.86 837.159 373.64 828.199C377.8 785.049 391.83 744.139 409.32 704.939C410.09 688.159 411.63 671.209 415.13 654.809C415.82 653.009 417.38 651.899 419.4 652.159C423.82 652.669 423.21 657.829 422.69 661.069C415.87 702.779 414.67 745.649 422.04 787.369C434.01 880.419 536.15 936.319 616.6 881.529C576.48 837.909 544.33 787.909 521.35 733.339ZM678.56 439.229C677.12 436.459 673.96 433.299 676.77 430.409C679.56 428.219 682.04 433.079 684.52 434.019C693.5 439.609 706.53 432.059 705.38 421.349C704.7 413.829 696.89 404.659 689.02 405.389C688.39 402.429 691.31 399.309 691.23 396.319C691.73 389.139 691.82 381.929 691.99 374.739C692.61 360.109 681.13 348.709 670.05 340.779C657.26 337.269 643.12 343.319 632.19 350.009C622.81 355.839 617.48 344.169 626.26 338.769C622.91 339.329 620.58 342.139 617.67 343.699C613.75 346.849 607.31 343.729 608.25 338.499C608.31 338.029 608.07 337.519 607.97 337.029C607.69 336.869 607.41 336.709 607.13 336.549C604.92 340.189 600.6 345.179 596.02 342.259C593.37 340.799 593.21 338.239 593.2 335.429C590.31 338.389 587.35 338.419 584.19 336.309C573.95 377.689 559.37 420.259 569.73 463.099C576.45 509.649 612.99 526.289 644.55 487.239C651.01 479.409 656.99 471.159 663.6 463.459C669.93 456.099 676.24 448.839 678.56 439.229ZM715.05 662.719C707.2 711.179 690.14 759.119 680.93 807.159C683.63 824.579 686.03 842.079 689.1 859.439C689.95 863.679 691.16 864.139 695.36 863.369C717.03 859.419 738.65 855.169 760.5 852.269C765.03 851.609 765.33 851.149 764 846.759C745.41 786.159 728.24 724.679 715.05 662.719ZM226.62 905.689C248.68 915.709 272.99 908.349 296 906.889C309.9 905.599 323.82 904.499 337.73 903.369C355.81 903.159 359.55 882.289 360.61 868.149C344.13 869.089 327.86 867.049 311.48 866.439C282.08 876.299 250.41 884.799 226.62 905.689ZM379.25 849.139C390.81 852.829 403.52 852.619 415.12 849.309C425.26 846.709 423.1 835.209 423.38 827.069C413.79 794.409 407.57 760.859 408.47 726.559C408.26 726.549 408.05 726.549 407.85 726.539C391.6 765.799 382.65 806.769 379.25 849.139ZM440.4 414.539C440.28 414.719 440.16 414.889 440.05 415.069C451.58 423.929 465.3 429.929 476.7 439.009C478.12 440.299 478.44 442.169 477.7 444.009C476.33 447.629 472.08 446.889 468.99 447.389C465.49 447.499 449.07 452.189 455.68 457.079C464.17 463.249 473.44 468.279 482.31 473.879C484.36 475.159 485.31 477.169 484.82 479.639C483.11 485.909 473.17 483.949 468.31 487.269C474.87 490.989 489.84 490.769 490.51 499.849C501.79 502.539 512.83 505.169 524.07 507.849C519.93 464.919 485.29 418.989 440.4 414.539ZM782.32 899.169C782.38 898.869 782.45 898.559 782.51 898.259C773.9 892.709 763.45 890.489 754 886.689C749.58 884.869 750.82 878.199 755.33 877.809C757.39 877.539 759.49 877.459 761.57 877.459C778.29 877.659 794.98 876.799 811.68 878.059C794.79 871.529 776.22 869.419 759.42 862.129C758.39 861.769 757.24 861.279 756.23 861.419C742.6 863.229 729.2 865.189 715.71 868.119C719.52 875.669 716.45 880.719 710.02 885.269C703.37 890.609 696.33 895.489 690.07 901.299C690.22 901.479 690.37 901.669 690.52 901.849C698.6 899.559 706.59 896.909 714.65 894.539C722.43 891.619 730.42 893.619 738.32 894.879C752.96 896.159 767.6 900.179 782.32 899.169ZM367.52 865.399C370.75 870.009 367.82 874.729 368.1 879.839C385.44 881.719 423.88 886.249 416.72 858.069C407.75 860.429 398.3 859.689 389.11 860.479C385.21 859.849 381.39 858.229 377.51 857.349C377.03 857.229 376.13 857.469 375.91 857.839C373.87 861.209 371.07 863.699 367.52 865.399ZM462.65 439.929C451.08 433.049 440.33 425.949 429.6 418.089C425.63 427.199 421.54 436.609 417.26 446.419C426.68 449.649 435.82 452.789 445.03 455.949C446.35 445.279 454.49 442.679 462.65 439.929ZM654.36 484.729C642.53 499.999 627.41 514.349 607.14 515.779C622 517.359 636.75 518.039 651.59 515.639C651.4 505.139 651.94 494.889 654.36 484.729ZM510.49 450.539C516.81 460.609 522.35 470.979 526.55 482.639C530.37 475.389 533.95 468.589 537.75 461.389C528.52 457.719 519.51 454.129 510.49 450.539ZM412.38 441.679C416.83 431.819 421.47 422.589 424.71 412.509C421.41 413.389 410.52 414.219 409.2 416.639C402.71 432.709 404.17 426.779 412.38 441.679Z" fill="black"/>
<path d="M586.5 119.319C588.31 114.819 589.75 110.209 591.94 105.979C605.92 76.129 652.28 87.679 657.1 118.149C660.16 136.309 649.55 153.329 639.22 167.349C636.02 170.279 631.07 182.249 626.22 179.259C621.64 175.489 628.9 169.289 630.92 165.609C640.77 151.959 652.79 135.889 649.12 118.059C638.13 85.519 595.21 90.539 595.06 126.269C594.68 130.299 596.12 136.849 590.83 137.979C580.22 139.479 581.58 106.439 550.07 109.539C541.83 110.489 535.82 116.839 535.15 125.089C535.54 133.769 541.25 141.289 546.15 148.119C563.41 171.129 584.23 190.979 603.38 212.339C604.34 213.409 605.17 214.879 605.4 216.269C606.18 221.669 599.37 222.559 596.62 218.739C574.56 193.309 548.26 170.879 530.91 141.769C509.58 100.429 567.51 85.6791 586.5 119.319Z" fill="black"/>
<path d="M302.1 442.79C293.58 442.81 289.78 440.15 286.51 432.15C278.09 408.47 261.98 384.8 265.52 358.76C266.48 354.54 269.03 351.23 273.08 349.58C287.95 343.53 302.86 337.61 317.8 331.75C326.2 328.43 337.83 328 340.02 338.83C343.44 354.44 348.25 370 350.31 385.81C350.33 389.4 346.21 389.09 344.51 386.97C340.51 374.28 338.15 360.79 334.63 347.88C333.03 344.31 332.93 336.62 327.49 337.76C309.91 341.57 293.93 350.64 277.11 356.86C270.53 359.34 274.11 369.87 274.39 375.22C278.17 393.85 287.13 410.85 294.14 428.39C296.27 433.4 297.34 434.39 302.81 433.79C312.81 432.62 322.56 429.8 332.21 426.98C337.77 425.14 342.04 428.19 338.1 433.69C327.04 438.66 314.28 441.5 302.1 442.79Z" fill="black"/>
<path d="M262.9 483.969C262.66 478.569 264.9 471.419 271.77 472.529C288.8 476.959 304.21 486.639 320.49 493.289C323.49 494.889 328.39 496.039 327.52 500.469C329.22 503.969 331.72 504.959 328.24 509.029C314.4 522.909 303.3 540.489 286.51 550.959C278.82 554.679 273.94 546.689 272.39 540.189C267.27 521.699 264.78 503.069 262.9 483.969ZM272.08 481.499C273.19 501.069 276.63 520.459 281.48 539.449C282.42 543.209 283.05 543.449 285.88 540.929C299.07 529.229 310.4 515.689 322.01 502.449C304.98 496.199 289.44 487.099 272.08 481.499Z" fill="black"/>
<path d="M264.18 423.028C264.14 447.398 239.72 459.228 220.6 444.688C215.63 441.198 212.94 436.028 212.07 429.958C205.83 388.688 263.56 378.888 264.08 423.008C264.11 423.008 264.14 423.018 264.18 423.028ZM239.05 441.868C243.64 441.648 248.1 441.218 251.4 437.338C257.14 428.638 257.55 416.068 250.73 407.848C247.02 403.318 242.21 401.528 236.49 402.688C214.74 406.498 215.26 443.198 239.05 441.868Z" fill="black"/>
<path d="M417.52 338.861C417.79 340.961 417.89 343.061 416.09 344.661C415.7 348.271 414.23 351.551 409.99 350.131C401.79 347.271 393.64 344.021 385.9 340.041C378.02 336.571 371.72 327.611 378.94 320.041C385.38 312.851 391.84 305.671 398.4 298.591C409.84 285.641 416.8 288.111 416.44 305.571C416.86 316.671 417.17 327.761 417.52 338.861ZM410.46 341.491C409.73 327.401 409.04 314.021 408.33 300.251C400.73 307.671 394.19 315.961 386.97 323.741C383.91 327.121 384.06 329.011 388.14 331.241C395.43 334.641 402.74 337.961 410.46 341.491Z" fill="black"/>
<path d="M252.64 330.46C249.11 340.27 241.84 348.5 235.66 356.74C232.15 360.85 229.58 362.19 224.71 358.42C218.96 353.58 212.21 349.66 207.71 343.53C203.82 338.23 203.31 332.78 207 327.06C211.93 319.57 215.46 310.67 223.43 305.82C230.6 300.74 239.43 312.78 244.91 316.84C248.72 320.69 251.66 324.92 252.64 330.46ZM230.27 351.94C234.59 345.3 238.55 339.22 242.51 333.13C246.23 328.8 241.26 325.16 238.39 322.07C235.71 319.67 232.91 317.41 230.1 315.15C227.22 312.84 226.92 312.89 224.39 315.72C208.94 338.81 209.61 334.53 230.27 351.94Z" fill="black"/>
<path d="M461.38 385.272C458.01 384.422 453 385.412 451.58 381.372C451.37 380.762 450.77 380.232 450.24 379.792C432.23 364.972 452.16 336.152 471.98 345.182C491.17 354.672 483.17 385.992 461.38 385.272ZM460.54 377.502C476.7 378.502 480.75 354.462 465.73 351.692C455.39 350.822 446.84 363.622 454.9 372.212C457.81 374.272 456.72 378.112 460.54 377.502Z" fill="black"/>
<path d="M192.01 480.041C192.57 472.491 193.15 455.961 205.59 461.581C212.21 465.581 220.62 467.251 225.75 473.251C228.89 476.281 230.65 479.431 226.36 482.311C223.07 484.641 219.71 486.901 216.23 488.931C202.81 496.681 191.39 501.231 192.01 480.041ZM218.66 476.771C212.78 474.141 207.38 471.721 201.98 469.311C200.58 472.391 200 483.191 201.11 486.861C207.47 484.701 212.54 480.391 218.66 476.771Z" fill="black"/>
<path d="M649.66 899.18C595.41 855.51 557.44 794.18 529.25 731.23C577.4 714.99 611.5 672.45 630.66 626.86C632.11 622.76 626.38 618.03 624.26 623.21C604.22 663.88 576.33 704.43 532.16 721C505.17 731.26 466.99 733.38 452.33 703.28C434.03 666.92 449.74 625.46 459.56 588.88C467.43 561.5 475.52 534.33 485.39 507.57C498.26 510.37 511.07 513.16 523.94 515.95C521.83 535.19 519.53 554.39 516.69 573.53C515.02 587.12 510.37 600.45 510.27 614.19C512.67 626.4 523.21 617.55 527.31 611.45C550.52 584.59 580.17 541.11 616.17 533.62C617.51 533.32 618.3 532.96 618.26 531.49C618.44 529.06 619.82 525.93 615.97 526.56C610.46 527.21 605.55 528.62 600.11 529.98C601.89 528.12 604.07 521.9 606.79 522.76C624.61 524.61 642.5 524.17 660.23 521.64C663 521.34 664.47 522.14 665.14 524.68C673.63 546.83 692.89 545.14 700.51 587.2C700.98 593.22 706.85 613.58 704.06 617.16C703.12 627.57 706.25 638.71 706.1 649.32C704.37 682.58 690.8 714.2 684 746.67C678.62 772.99 670.91 798.7 664.57 824.78C658.97 849.47 656.24 874.73 649.66 899.18Z" fill="white"/>
<path d="M521.35 733.342C544.33 787.902 576.48 837.912 616.59 881.532C536.03 936.282 434.06 880.472 422.03 787.372C414.66 745.662 415.86 702.792 422.68 661.072C423.2 657.822 423.81 652.662 419.39 652.162C417.37 651.902 415.81 653.012 415.12 654.812C411.62 671.222 410.08 688.172 409.31 704.942C391.83 744.142 377.79 785.052 373.64 828.202C371.83 837.282 373.83 856.162 362.65 858.772C346.53 862.582 329.97 858.692 313.68 857.992C308.64 857.572 306.94 855.902 305.69 850.942C300.23 819.752 309.7 788.132 316.04 757.752C323.36 720.812 380.05 523.042 432.98 555.462C439.59 559.332 444.68 564.762 449.4 570.622C453.94 576.262 453.89 576.262 451.88 583.262C442.99 614.962 431.83 647.542 436.24 680.902C441.69 726.642 479.1 744.802 521.35 733.342Z" fill="black"/>
<path d="M678.56 439.228C676.25 448.828 669.94 456.088 663.61 463.458C656.99 471.158 651.02 479.408 644.55 487.238C613 526.248 576.47 509.688 569.74 463.088C559.38 420.238 573.96 377.678 584.2 336.298C587.36 338.408 590.32 338.378 593.21 335.418C593.22 338.228 593.38 340.798 596.03 342.248C600.61 345.168 604.93 340.188 607.14 336.538C607.42 336.698 607.7 336.858 607.98 337.018C608.08 337.508 608.31 338.018 608.26 338.498C607.32 343.728 613.75 346.848 617.68 343.698C620.6 342.138 622.92 339.328 626.27 338.768C617.52 344.188 622.78 355.808 632.2 350.008C643.12 343.308 657.28 337.268 670.06 340.778C681.14 348.708 692.62 360.108 692 374.738C691.83 381.938 691.74 389.148 691.24 396.318C691.32 399.308 688.4 402.428 689.03 405.388C696.89 404.648 704.72 413.838 705.39 421.348C706.53 432.058 693.51 439.608 684.53 434.018C682.06 433.118 679.56 428.198 676.78 430.408C673.95 433.298 677.12 436.458 678.56 439.228ZM593.35 361.288C585.3 361.978 586.96 366.188 593.22 368.048C596.72 369.358 600.32 370.448 603.77 371.868C608.77 373.928 608.66 373.998 606.79 379.158C600.05 396.948 594.12 414.998 589.2 433.388C588.46 435.968 589.72 437.788 592.21 437.958C594.33 438.108 595.82 436.928 596.54 434.538C603.44 414.358 607.24 392.928 616.93 373.848C618.39 371.578 617.28 368.858 614.67 367.828C608 365.038 600.2 362.768 593.35 361.288ZM655.8 386.428C670.08 379.748 636.14 375.278 632.18 373.308C626.87 371.238 625.34 377.458 630.85 378.538C639.31 381.478 646.97 384.048 655.8 386.428ZM595.66 471.668C598.13 482.538 615.86 477.678 620.15 470.628C622.06 468.328 621.43 463.858 617.71 465.548C610.13 472.418 605.69 473.308 595.66 471.668ZM633.39 394.398C631.11 394.928 626.67 395.038 627.5 398.458C628.82 402.708 635.11 396.778 639.5 401.608C641.71 403.248 645.55 411.718 647.28 405.438C646.5 399.968 638.78 394.638 633.39 394.398ZM588.82 379.498C580 380.118 581.28 387.528 586.88 385.028C593.18 381.738 593.87 389.878 598.48 389.998C602.87 385.268 593.91 379.358 588.82 379.498ZM696.1 420.338C696.18 417.818 693.69 412.478 690.23 414.438C689.96 414.668 690.13 415.818 690.47 416.288C694.75 421.648 690.41 422.018 689.55 427.068C693.63 428.648 696.02 424.958 696.1 420.338ZM605.99 486.098C609.27 485.948 613.79 484.388 613.29 481.158C611.01 479.858 608.15 481.798 605.72 481.958C602.06 482.858 603.55 485.578 605.99 486.098Z" fill="white"/>
<path d="M715.05 662.719C728.24 724.679 745.41 786.149 764 846.749C765.33 851.149 765.02 851.609 760.5 852.259C738.66 855.169 717.03 859.409 695.36 863.359C691.16 864.129 689.95 863.679 689.1 859.429C686.03 842.069 683.63 824.579 680.94 807.149C690.14 759.129 707.2 711.179 715.05 662.719Z" fill="white"/>
<path d="M226.62 905.691C250.41 884.801 282.07 876.301 311.49 866.441C327.87 867.051 344.14 869.091 360.62 868.151C359.55 882.291 355.83 903.161 337.74 903.371C323.83 904.511 309.91 905.601 296.01 906.891C272.99 908.361 248.68 915.711 226.62 905.691Z" fill="white"/>
<path d="M379.25 849.139C382.65 806.769 391.6 765.799 407.84 726.539C408.05 726.549 408.26 726.549 408.46 726.559C407.57 760.859 413.79 794.409 423.38 827.069C423.1 835.209 425.26 846.719 415.12 849.309C403.52 852.629 390.82 852.829 379.25 849.139Z" fill="white"/>
<path d="M440.4 414.539C485.29 418.989 519.93 464.919 524.07 507.859C512.82 505.179 501.79 502.549 490.51 499.859C489.84 490.789 474.86 490.989 468.31 487.279C473.17 483.969 483.11 485.909 484.82 479.649C485.31 477.179 484.36 475.169 482.31 473.889C473.44 468.299 464.18 463.269 455.68 457.089C449.07 452.199 465.49 447.519 468.99 447.399C472.08 446.899 476.33 447.639 477.7 444.019C478.44 442.179 478.12 440.309 476.7 439.019C465.3 429.929 451.58 423.939 440.05 415.079C440.16 414.899 440.28 414.719 440.4 414.539Z" fill="white"/>
<path d="M782.32 899.169C767.61 900.179 752.96 896.159 738.31 894.879C730.41 893.619 722.41 891.619 714.64 894.539C706.58 896.919 698.6 899.559 690.51 901.849C690.36 901.669 690.21 901.479 690.06 901.299C696.32 895.489 703.36 890.619 710.01 885.269C716.44 880.729 719.51 875.669 715.7 868.119C729.19 865.189 742.59 863.219 756.22 861.419C757.24 861.279 758.38 861.769 759.41 862.129C776.21 869.419 794.78 871.529 811.67 878.059C794.97 876.799 778.28 877.659 761.56 877.459C759.48 877.459 757.38 877.539 755.32 877.809C750.81 878.189 749.57 884.859 753.99 886.689C763.44 890.479 773.89 892.709 782.5 898.259C782.45 898.559 782.38 898.859 782.32 899.169Z" fill="white"/>
<path d="M367.52 865.402C371.07 863.702 373.87 861.202 375.91 857.842C376.13 857.472 377.03 857.231 377.51 857.351C381.39 858.231 385.21 859.851 389.11 860.481C398.3 859.691 407.76 860.432 416.72 858.072C423.86 886.252 385.46 881.722 368.1 879.842C367.82 874.732 370.75 870.022 367.52 865.402Z" fill="white"/>
<path d="M462.65 439.93C454.49 442.68 446.35 445.27 445.03 455.95C435.82 452.79 426.68 449.65 417.26 446.42C421.53 436.61 425.63 427.21 429.6 418.09C440.33 425.95 451.08 433.05 462.65 439.93Z" fill="white"/>
<path d="M654.36 484.73C651.93 494.89 651.4 505.141 651.59 515.641C636.75 518.041 622 517.361 607.14 515.781C627.41 514.361 642.53 500.01 654.36 484.73Z" fill="white"/>
<path d="M510.49 450.539C519.5 454.129 528.52 457.719 537.74 461.389C533.95 468.579 530.36 475.389 526.54 482.639C522.36 470.979 516.81 460.609 510.49 450.539Z" fill="white"/>
<path d="M412.38 441.682C404.14 426.742 402.72 432.712 409.2 416.642C410.48 414.222 421.41 413.392 424.71 412.512C421.47 422.592 416.83 431.822 412.38 441.682Z" fill="white"/>
<path d="M593.35 361.289C600.2 362.769 607.99 365.039 614.68 367.829C617.28 368.859 618.4 371.579 616.94 373.849C607.25 392.929 603.45 414.359 596.55 434.539C595.82 436.919 594.34 438.099 592.22 437.959C589.73 437.789 588.47 435.969 589.21 433.389C591.76 424.529 594.14 415.619 596.99 406.849C600.02 397.539 603.46 388.369 606.8 379.159C608.67 373.999 608.78 373.929 603.78 371.869C599.91 369.639 588.81 368.359 587.82 363.939C588.65 361.669 590.82 361.709 593.35 361.289Z" fill="black"/>
<path d="M655.8 386.432C646.98 384.042 639.31 381.472 630.85 378.542C625.37 377.482 626.83 371.232 632.18 373.312C636.09 375.272 670.08 379.752 655.8 386.432Z" fill="black"/>
<path d="M595.66 471.669C605.71 473.309 610.13 472.419 617.72 465.549C621.43 463.859 622.08 468.329 620.16 470.629C615.86 477.679 598.13 482.539 595.66 471.669Z" fill="black"/>
<path d="M633.39 394.398C638.79 394.638 646.49 399.968 647.28 405.448C645.54 411.728 641.7 403.258 639.5 401.618C635.07 396.768 628.86 402.738 627.5 398.468C626.67 395.028 631.11 394.938 633.39 394.398Z" fill="black"/>
<path d="M588.82 379.499C593.9 379.359 602.86 385.279 598.48 389.999C593.88 389.879 593.16 381.729 586.87 385.029C581.29 387.519 580 380.109 588.82 379.499Z" fill="black"/>
<path d="M696.1 420.339C696.02 424.959 693.63 428.639 689.55 427.069C690.41 422.009 694.75 421.639 690.47 416.289C690.13 415.819 689.96 414.669 690.23 414.439C693.69 412.479 696.17 417.819 696.1 420.339Z" fill="black"/>
<path d="M605.99 486.101C603.56 485.581 602.06 482.861 605.73 481.961C608.15 481.801 611.02 479.861 613.3 481.161C613.79 484.401 609.27 485.951 605.99 486.101Z" fill="black"/>
</svg>
