<svg width="960" height="960" viewBox="0 0 960 960" fill="none" xmlns="http://www.w3.org/2000/svg">
<path d="M576.21 151.802C591.26 193.072 588.82 233.552 572.43 273.712C572.69 273.872 572.98 274.152 573.31 274.232C580.41 275.902 586.01 280.512 592 284.192C598.01 287.872 603.63 292.302 609.03 296.862C614.5 301.462 619.81 306.332 624.64 311.592C641.85 330.352 657.94 350.032 672.22 371.142C674.05 373.852 675.6 376.762 677.24 379.602C678.41 381.632 679.12 383.952 681.57 385.042C682.32 385.382 682.83 386.492 683.24 387.342C692.32 405.972 701.41 424.602 710.4 443.272C712.95 448.572 715.16 454.042 717.64 459.382C718 460.162 718.97 461.112 719.73 461.172C742.95 463.162 764.74 470.252 785.38 480.622C818.7 497.352 849.15 518.412 875.91 544.452C892.85 560.942 905.05 580.682 911.99 603.382C916.52 618.212 918.33 633.552 919.15 649.012C920.31 670.892 917.64 692.512 914.45 714.052C910.1 743.412 902.67 772.032 892.61 799.952C886.76 816.182 878.94 831.302 868.36 845.072C854.03 863.722 835.73 876.692 813.97 885.152C793.63 893.062 772.55 897.862 750.99 900.882C723.38 904.742 695.6 906.212 667.76 906.392C599.95 906.822 532.14 906.962 464.33 907.252C444.64 907.332 424.94 907.812 405.25 907.632C374.15 907.342 343.03 906.872 312 904.602C287.53 902.812 263.07 900.762 238.69 898.132C217.6 895.852 197.07 890.492 176.63 884.952C159.36 880.282 142.04 875.602 125.75 868.092C100.33 856.382 78.42 840.112 62.31 816.832C50.1 799.182 43.93 779.332 41.59 758.182C39.18 736.382 40.86 714.702 43.72 693.052C49.48 649.562 60.25 607.312 74.77 565.962C86.59 532.302 105.4 503.132 130.97 478.232C148.18 461.472 168.37 450.742 192.11 447.052C211.92 443.972 231.8 441.312 251.66 438.522C258.08 437.622 264.53 436.832 270.98 436.172C272.89 435.972 273.77 435.242 274.4 433.442C285.37 402.272 301.51 373.852 321.62 347.802C344.9 317.642 374.16 294.492 407.9 276.902C417.25 272.032 426.75 267.612 436.94 264.792C438.02 264.492 438.66 264.112 438.28 262.792C435.75 254.082 433.22 245.362 430.78 236.622C430.03 233.942 428.18 232.232 426.26 230.422C421.29 225.742 416.35 221.022 411.59 216.122C408.43 212.872 406.26 208.922 405.35 204.432C403.64 196.052 405.04 188.372 411.16 182.052C412.62 180.542 414.72 179.662 416.42 178.342C416.99 177.902 417.58 177.002 417.54 176.362C416.73 164.692 415.92 153.022 414.9 141.372C414.42 135.912 414.2 130.522 415.45 125.142C417.43 116.572 422.42 109.932 428.84 104.202C437.65 96.3418 448.05 91.8518 459.56 89.6518C468.63 87.9218 477.67 86.0618 486.73 84.2718C493.01 83.0318 497.78 79.9118 500.81 74.0318C505.18 65.5818 514.44 60.6618 523.87 61.7718C528.29 62.2918 532.66 63.3318 536.99 64.3718C538.94 64.8418 540.15 64.8318 541.43 62.9018C544.46 58.3818 549.16 56.0418 554.11 54.1918C563.72 50.6118 571.04 55.1218 577.67 61.2318C581.75 64.9918 584.07 69.9818 585.21 75.4218C585.63 77.3918 586.34 78.3818 588.67 78.5118C594.19 78.8318 599.74 79.5818 604.11 83.5018C608.37 87.3318 610.75 92.0118 611.07 97.9218C611.51 106.212 608.03 112.692 602.43 118.232C598.66 121.962 596.4 126.182 595.77 131.492C594.54 141.752 588.03 147.512 578.73 150.712C577.84 151.052 576.99 151.472 576.21 151.802ZM270.46 443.832C269.51 443.912 268.71 443.952 267.91 444.052C262.66 444.722 257.4 445.332 252.16 446.092C232.61 448.902 213.04 451.602 193.52 454.652C171.52 458.092 152.87 468.192 136.96 483.702C112.79 507.272 94.68 534.732 83.36 566.552C67.33 611.592 55.88 657.722 50.59 705.322C48.54 723.772 47.81 742.212 50.26 760.662C53.54 785.342 62.73 807.402 80.02 825.662C93.87 840.282 110.05 851.762 128.36 860.132C142.5 866.592 157.42 870.882 172.35 875.072C194.75 881.352 217.32 887.022 240.43 890.042C278.86 895.072 317.53 897.262 356.23 898.322C387.32 899.172 418.43 898.912 449.54 898.992C485.65 899.082 521.75 899.132 557.86 898.982C595.23 898.822 632.61 898.532 669.98 898.032C697.21 897.662 724.4 896.282 751.4 892.392C771.6 889.482 791.36 884.922 810.49 877.642C832.19 869.382 850.06 856.262 863.85 837.462C872.99 825.002 879.75 811.392 884.95 796.942C894.77 769.652 902.06 741.682 906.3 712.982C909.83 689.142 912.81 665.232 910.44 641.022C909.15 627.782 907.44 614.582 903.01 602.002C894.88 578.862 881.06 559.522 862.86 543.122C844.16 526.262 823.51 512.102 802.19 498.882C780.98 485.732 758.17 476.352 733.67 471.342C729.79 470.552 725.81 470.192 721.69 469.602C721.83 470.312 721.85 470.532 721.92 470.742C727.33 485.512 731.16 500.642 732.31 516.392C732.4 517.612 732.89 518.002 734.05 518.162C749.96 520.412 765.41 523.802 777.16 536.092C777.46 536.412 778.45 536.482 778.86 536.242C786.1 531.862 794.29 530.422 802.34 528.562C803.62 528.262 805.02 528.282 806.35 528.372C809.08 528.542 810.99 530.222 811.21 532.462C811.43 534.662 810.03 536.582 807.51 537.422C806.67 537.702 805.77 537.822 804.89 537.952C802.83 538.252 800.71 538.342 798.7 538.842C793.74 540.082 788.84 541.502 783.57 542.942C803.32 569.392 805.31 598.782 800.92 629.602C801.89 629.212 802.63 628.862 803.39 628.612C808.26 626.992 813.03 624.812 818.04 623.912C832.69 621.252 847.16 623.682 861.55 626.432C865.14 627.112 866.82 629.502 866.23 632.122C865.68 634.592 863.01 635.812 859.47 635.302C853.05 634.372 846.63 633.432 840.2 632.602C828.43 631.102 817.01 632.112 806.1 637.232C801.16 639.552 797.64 642.462 795.42 647.992C786.91 669.162 773.45 686.822 755.51 701.012C754.48 701.822 753.49 702.682 752.19 703.742C752.97 703.882 753.31 703.962 753.66 703.992C761.87 704.892 769.77 707.062 777.46 709.962C795.63 716.802 810.96 728.052 825.16 741.002C825.76 741.542 826.29 742.212 826.68 742.922C827.68 744.772 827.83 746.672 826.33 748.332C824.83 750.002 822.86 750.142 821 749.192C819.56 748.462 818.25 747.402 817.06 746.302C807.6 737.532 797.25 729.962 785.87 723.922C772.39 716.762 758.11 712.282 742.63 712.662C741.06 712.702 739.27 712.992 737.98 713.802C701.62 736.632 663.62 756.462 625.16 775.422C624.62 775.692 624.1 776.012 623.44 776.392C628.8 776.882 633.92 777.142 638.99 777.832C656.81 780.262 667.93 795.912 669.6 807.482C671.68 821.922 668.72 835.482 661.06 847.772C653.66 859.652 639.74 865.282 626.1 862.032C611.69 858.592 597.85 853.342 584.87 846.222C569.66 837.872 554.77 828.952 539.73 820.282C539.48 820.142 539.16 819.952 538.92 820.002C536.24 820.582 533.37 820.782 530.94 821.912C525.13 824.612 519.52 827.732 513.85 830.732C493.3 841.622 472.76 852.532 452.23 863.462C451.49 863.852 450.53 864.452 450.34 865.142C449.4 868.432 447.06 869.282 444.02 869.292C439.52 869.312 435.58 867.692 432.11 865.282C430.68 866.122 429.48 867.052 428.13 867.582C413.24 873.512 398.18 878.962 382.72 883.292C365.89 888.002 349.06 889.502 331.96 884.802C320.46 881.632 309.71 877.192 300.82 868.892C291.07 859.782 289.27 843.652 301.93 833.762C310.07 827.392 319.53 824.332 329.34 823.182C342.64 821.632 356.1 821.372 369.5 820.672C375.38 820.362 381.28 820.462 387.16 820.172C392.55 819.902 397.81 818.952 402.58 816.102C404.34 815.052 406.34 814.412 408.65 813.402C409.47 805.802 412.48 798.252 416.69 791.002C415.89 790.712 415.41 790.522 414.92 790.362C357.61 771.522 301.59 749.172 245.21 727.792C244.01 727.332 242.58 727.082 241.31 727.232C233.63 728.092 226.39 730.372 220.1 734.932C207.66 743.962 196.37 754.202 187.38 766.802C186.49 768.052 185.36 769.222 184.12 770.122C182.59 771.232 180.77 771.432 179.06 770.372C177.41 769.352 176.73 767.612 177.22 765.912C177.85 763.752 178.76 761.552 180.04 759.712C187.32 749.252 196.9 741.032 206.66 733.032C212.85 727.962 219.33 723.312 227.07 720.782C227.28 720.712 227.45 720.482 227.5 720.432C219.49 716.082 211.48 711.952 203.67 707.442C192.9 701.232 182.78 694.112 174.64 684.552C166.18 674.622 161.19 663.462 163 650.052C164.3 640.412 166.46 630.982 169.93 621.882C171.23 618.492 172.7 615.162 174.35 611.182C170.45 609.552 166.75 607.542 162.8 606.452C155 604.312 147.03 604.392 139.05 605.682C137.52 605.932 135.92 606.042 134.39 605.882C132.36 605.672 130.97 604.412 130.5 602.382C130.01 600.302 130.95 598.712 132.62 597.602C133.46 597.042 134.5 596.652 135.5 596.482C145.53 594.832 155.6 594.512 165.44 597.372C170.01 598.702 174.27 601.092 178.86 603.092C180.05 601.322 181.53 599.092 183.05 596.882C191.5 584.622 200.58 572.952 212.46 563.692C219.68 558.062 227.66 554.192 236.6 552.612C241.92 551.672 247.38 551.602 252.97 551.122C252.51 550.152 251.99 548.872 251.33 547.652C241.32 529.222 225.69 518.242 205.57 513.282C203.33 512.732 201.01 512.472 198.8 511.812C196.46 511.112 195.23 508.912 195.53 506.582C195.82 504.312 197.65 502.622 200.12 502.462C201.01 502.402 201.92 502.432 202.79 502.602C224.5 506.702 242.18 517.132 254.78 535.602C255.01 535.932 255.29 536.232 255.83 536.872C253.93 504.562 260.84 474.092 270.46 443.832ZM794.58 608.682C794.66 588.462 791.46 571.492 782.05 556.142C774.64 544.062 765.12 534.212 750.93 530.502C743.7 528.612 736.2 527.662 728.77 526.582C719.41 525.222 710.06 525.542 700.75 527.332C688.19 529.742 677.07 535.472 666.84 542.772C656.29 550.292 646.15 558.402 636 566.462C617.17 581.402 598.97 597.102 582.39 614.522C558.17 639.962 534.29 665.712 510.34 691.402C504.4 697.772 498.6 704.282 493.02 710.962C475.1 732.422 457.31 754.002 439.46 775.532C432.74 783.632 426.35 791.952 421.88 801.562C419.11 807.522 417.26 813.812 418.18 820.412C420.06 834.022 425.84 845.872 435.51 855.662C437.17 857.352 439.52 858.462 441.73 859.462C442.7 859.902 444.31 859.762 445.27 859.222C448.97 857.162 452.44 854.662 456.16 852.642C477.24 841.212 498.34 829.812 519.5 818.542C532.24 811.752 545.01 805.022 557.94 798.592C573.45 790.882 589.08 783.412 604.75 776.042C644.81 757.202 684.12 736.962 721.97 713.952C734.97 706.052 747.81 697.952 758.9 687.382C774.62 672.412 785.97 654.772 791.61 633.712C794 624.742 794.52 615.482 794.58 608.682ZM422.95 278.532C421.89 279.012 421.09 279.322 420.33 279.722C416.89 281.502 413.43 283.272 410.02 285.112C372.33 305.472 341.04 332.892 317.2 368.682C299.29 395.562 285.55 424.362 276.17 455.272C268.35 481.072 263.6 507.282 265.17 534.372C265.56 541.122 266.54 547.722 270.34 553.572C271.25 554.972 272.29 555.832 273.93 556.282C287.77 560.032 301.19 564.962 314.23 570.912C319.3 573.222 324.33 575.582 329.57 578.012C329.65 577.262 329.75 576.702 329.78 576.132C330.55 560.722 331.13 545.292 332.16 529.892C332.86 519.332 334.19 508.792 337.16 498.582C341.13 484.952 348 473.422 361.06 466.512C361.61 466.222 362.05 465.252 362.1 464.562C363.03 452.222 363.56 439.842 364.88 427.542C366.04 416.742 367.96 406.012 369.78 395.292C370.45 391.362 373.18 389.472 376.11 390.152C378.73 390.762 380.05 393.602 379.34 397.312C378.61 401.112 377.5 404.872 377.05 408.702C375.46 422.102 373.97 435.502 372.7 448.932C372.28 453.422 372.63 457.982 372.63 462.672C373.05 462.652 373.77 462.632 374.49 462.572C378.36 462.272 382.22 461.792 386.09 461.702C421.28 460.862 456.48 459.862 491.68 459.372C523.38 458.932 555.09 459.452 586.71 462.152C596.99 463.032 607.12 464.662 616.85 468.312C623.2 470.702 628.91 474.102 634.05 478.782C640.74 466.962 643.82 454.492 643.42 441.142C643.16 432.402 641.14 424.032 638.08 415.872C636.75 412.322 637.94 409.192 640.83 408.202C643.78 407.192 646.69 409.132 647.75 412.832C648.37 414.982 648.94 417.142 649.6 419.282C653.2 430.872 653.99 442.662 652.4 454.672C650.94 465.722 646.95 475.852 641.46 485.442C640.77 486.652 640.71 487.582 641.21 488.942C642.39 492.142 643.56 495.412 644.17 498.752C646.48 511.532 646.04 524.452 645.81 537.352C645.76 540.442 645.8 543.532 645.8 546.822C646.3 546.532 646.63 546.382 646.91 546.182C650.74 543.342 654.53 540.432 658.4 537.642C677.26 524.072 697.82 515.712 721.55 517.112C722.11 517.142 722.67 517.002 723.55 516.912C722.95 512.442 722.69 508.092 721.74 503.912C719.91 495.852 717.6 487.902 715.65 479.872C713.73 471.972 708.69 465.292 706.96 457.312C706.67 455.952 705.9 454.692 705.29 453.412C696.64 435.402 688.2 417.292 679.24 399.432C674.61 390.192 669.59 381.052 663.84 372.482C651.14 353.572 636.34 336.262 621.18 319.282C612.91 310.022 603.58 301.882 593.5 294.612C592.88 294.172 592.23 293.772 591.15 293.052C592.47 297.092 593.7 300.502 594.69 303.992C597.3 313.192 599.55 322.462 598.77 332.162C597.86 343.482 594.22 354.032 589.43 364.192C583.45 376.882 573.64 385.852 560.82 391.262C551.69 395.112 542.76 394.752 534.44 388.282C531.66 386.122 528.03 384.392 524.58 383.902C518.65 383.052 512.56 383.422 506.55 383.082C504.88 382.992 503.24 382.212 501.59 381.722C501.25 381.622 500.95 381.302 500.61 381.262C497.5 380.902 494.39 380.302 491.28 380.282C477.19 380.212 464.12 383.592 452.68 392.222C450.54 393.842 448.41 395.512 446.11 396.862C440.18 400.362 433.88 399.552 428.85 394.822C425.42 391.602 423.57 387.472 422.14 383.112C417.6 369.252 414.36 355.102 412.74 340.602C411.52 329.672 411.16 318.742 413.34 307.852C415.38 297.852 418.83 288.292 422.95 278.532ZM488.92 467.082C463.99 467.722 440.72 468.222 417.47 468.932C404.28 469.332 391.09 469.822 377.93 470.742C365.26 471.622 356.1 478.272 350.09 489.362C345.62 497.622 343.83 506.682 342.5 515.842C339.34 537.522 339.13 559.382 338.44 581.212C338.4 582.512 338.82 583.232 339.96 583.842C343.7 585.852 347.39 587.962 351.1 590.052C378.28 605.332 403.29 623.832 428.33 642.262C446.9 655.932 464.48 670.842 481.68 686.192C482.54 686.962 483.86 687.612 484.96 687.622C489.8 687.652 494.65 687.482 499.49 687.232C500.48 687.182 501.71 686.712 502.37 686.002C518.42 668.852 534.52 651.742 550.4 634.432C575.71 606.852 602.47 580.832 632.08 557.862C635.84 554.942 637.82 552.092 637.77 547.122C637.62 532.672 638.56 518.212 637.03 503.772C635.76 491.822 629.88 483.192 619.08 477.902C611.72 474.292 603.9 472.032 595.81 471.262C582.17 469.962 568.49 468.732 554.8 468.282C532.3 467.522 509.78 467.422 488.92 467.082ZM487.86 702.522C481.56 696.892 475.49 691.392 469.33 686.002C451.49 670.362 433.01 655.532 413.85 641.532C386.45 621.512 358.5 602.362 328.34 586.692C305.75 574.962 282.23 565.692 257.07 561.082C244.15 558.712 232.17 561.272 221.34 568.692C214.1 573.652 207.85 579.722 202.48 586.692C194.82 596.602 187.31 606.612 181.99 618.042C177.56 627.572 174.89 637.612 173.1 647.932C171.51 657.112 172.81 665.652 178.52 673.172C181.35 676.902 184.32 680.602 187.7 683.802C197.71 693.262 209.65 699.902 221.76 706.242C239.07 715.312 257.43 721.892 275.65 728.802C303.14 739.232 330.53 749.922 358.12 760.082C378.65 767.642 399.43 774.522 420.09 781.712C421.24 782.112 422.1 782.352 423.14 781.082C439.35 761.192 455.61 741.362 471.91 721.542C477.13 715.162 482.51 708.882 487.86 702.522ZM540.88 246.602C543.01 246.732 545.04 246.622 546.96 247.022C552.21 248.112 555.92 251.362 558.8 255.782C560.4 258.242 562.31 258.162 564.14 255.842C565.71 253.862 567.45 251.982 568.85 249.892C571.19 246.392 574.33 243.002 575.31 239.112C577.21 231.522 578.42 223.652 578.86 215.832C579.5 204.622 578.99 193.392 576.78 182.292C574.94 173.072 573.29 163.812 571.53 154.572C571.26 153.142 570.56 152.412 568.83 152.302C563.28 151.942 557.8 151.082 552.53 149.152C543.27 145.772 535.93 139.772 529.6 132.382C525.51 127.612 520.66 123.972 514.22 123.392C510.93 123.092 507.57 123.412 504.25 123.672C496.74 124.272 489.35 125.572 482.25 128.152C472.58 131.672 464.83 137.332 461.77 147.712C461.02 150.252 459.56 153.092 461.36 155.682C464.39 160.052 463.89 164.642 462.77 169.352C461.4 175.102 459.99 180.832 458.63 186.582C457.32 192.112 456.35 197.742 454.71 203.172C452.53 210.382 452.51 217.412 454.69 224.592C456.85 231.712 460.12 238.262 464.6 244.142C468.93 249.822 473.44 255.392 480.02 258.772C486.75 262.232 492.95 263.542 499.5 257.652C503.98 253.632 509.53 250.722 514.83 247.712C519.78 244.902 525.02 244.342 530.35 247.202C531.83 247.992 533.67 248.122 535.49 248.592C535.59 247.892 535.8 247.462 535.67 247.212C534.04 244.132 533.6 240.782 533.17 237.382C532.14 229.282 530.76 221.222 529.72 213.112C528.58 204.182 527.69 195.232 526.67 186.282C525.84 179.042 524.94 171.812 524.12 164.572C523.71 160.962 525.41 159.032 529.11 159.092C535.34 159.192 541.57 159.412 547.8 159.672C553.85 159.922 559.45 162.082 565.07 164.062C566.62 164.602 567.69 165.802 567.11 167.502C566.55 169.152 565.14 169.732 563.33 169.552C556.45 168.872 549.56 168.242 542.67 167.662C540.52 167.482 538.36 167.562 536.2 167.472C534.31 167.392 533.74 168.292 533.92 170.072C534.52 176.062 534.99 182.072 535.61 188.052C536.23 194.032 537.1 200.002 537.64 205.992C538.54 216.162 539.26 226.342 540.06 236.512C540.32 239.862 540.6 243.192 540.88 246.602ZM550.32 815.502C550.88 815.892 551.17 816.132 551.48 816.312C561.94 822.482 572.41 828.632 582.85 834.832C596.64 843.022 611.39 848.952 626.82 853.142C638.64 856.352 649.31 851.482 655.01 840.642C658.56 833.892 660.46 826.612 661.08 819.062C661.61 812.692 661 806.432 657.52 800.722C652.06 791.752 644.1 786.832 633.69 786.372C623.72 785.932 613.72 786.022 603.74 785.942C602.89 785.932 601.99 786.292 601.2 786.662C596.6 788.792 592 790.922 587.48 793.192C586.63 793.622 585.87 794.622 585.49 795.532C583.18 801.102 581.03 806.732 578.73 812.302C578.26 813.452 577.52 814.542 576.69 815.482C575.32 817.032 573.17 817.292 571.62 816.232C569.91 815.062 569.52 813.402 570.13 811.502C570.38 810.732 570.86 810.042 571.19 809.292C572.59 806.122 573.96 802.942 575.4 799.652C564.99 802.122 559.07 810.802 550.32 815.502ZM568.83 281.092C568.68 281.172 568.59 281.182 568.56 281.242C567.6 282.922 566.65 284.612 565.68 286.282C557.92 299.642 548.91 312.002 536.79 321.782C529.7 327.492 522.24 332.662 513.2 334.952C511.33 335.422 509.35 335.792 507.69 336.692C504.71 338.312 501.6 338.962 498.27 339.052C496.94 339.092 495.6 339.352 494.29 339.622C489.86 340.552 485.56 339.622 481.33 338.552C473.66 336.602 467.93 331.512 462.79 325.942C456.17 318.762 452.25 309.952 449.47 300.652C446.8 291.742 444.2 282.812 441.53 273.902C441.35 273.292 440.59 272.282 440.4 272.342C439.59 272.622 438.78 273.132 438.18 273.752C437.74 274.202 437.68 274.982 437.36 275.562C431.68 285.782 431.13 296.422 435.1 307.272C436.65 311.522 438.67 315.642 440.87 319.602C451.32 338.432 466.34 353.092 483.62 365.572C486.24 367.462 489.28 368.922 492.34 369.992C500.08 372.712 507.67 371.062 515.08 368.432C530.23 363.042 542.96 353.732 555.02 343.402C562.86 336.682 569.43 328.952 573.63 319.382C578.77 307.692 580.27 296.092 573.41 284.442C572.24 282.512 570.79 281.542 568.83 281.092ZM394.21 828.432C394.59 830.202 394.99 832.242 395.47 834.252C397.03 840.692 398.65 847.122 400.19 853.572C400.7 855.732 399.87 857.382 398.16 857.992C396.47 858.592 394.74 857.842 393.76 855.882C393.1 854.562 392.59 853.142 392.18 851.712C390.14 844.632 388.12 837.542 386.18 830.432C385.81 829.072 385.18 828.752 383.84 828.792C369.84 829.302 355.82 829.642 341.82 830.242C332.84 830.622 324.13 832.472 315.73 835.772C311.69 837.352 308.17 839.682 305.33 842.912C304.14 844.262 303.12 845.982 302.65 847.702C301.07 853.472 302.98 858.452 307.36 862.162C311.02 865.272 314.96 868.322 319.27 870.342C336.05 878.222 353.55 880.862 371.88 876.552C389.67 872.372 406.8 866.232 423.76 859.552C424.15 859.402 424.49 859.132 424.9 858.892C416.85 847.742 410.72 835.902 408.62 822.632C403.91 824.522 399.26 826.402 394.21 828.432ZM424.03 304.192C423.83 304.322 423.65 304.372 423.62 304.472C423.43 305.112 423.28 305.772 423.12 306.422C420.49 316.992 420.59 327.662 421.75 338.412C423.37 353.362 426.53 367.972 431.53 382.142C432.35 384.472 433.77 386.682 435.29 388.652C437.17 391.082 439.1 391.322 441.79 389.762C443.65 388.682 445.38 387.372 447.11 386.062C454.71 380.312 463.14 376.362 472.44 374.262C473.84 373.942 475.25 373.652 476.84 373.302C473.21 370.322 469.79 367.592 466.45 364.752C455.38 355.342 445.38 344.932 437.39 332.732C431.59 323.872 426.56 314.622 424.03 304.192ZM526.14 374.962C532.32 376.122 537.27 379.652 542.46 382.652C545.15 384.202 548.04 385.012 551.04 384.352C554.21 383.662 557.48 382.882 560.33 381.422C570.43 376.252 577.95 368.482 582.23 357.882C586.62 347.012 590.88 336.052 589.46 323.962C588.95 319.662 587.99 315.422 587.24 311.152C587.04 311.182 586.84 311.212 586.64 311.252C586.04 313.312 585.5 315.392 584.82 317.422C580.28 331.042 571.85 341.922 561.08 351.182C550.37 360.412 538.89 368.492 526.14 374.962ZM499.68 280.912C500.32 282.672 500.7 284.602 501.66 286.172C503.65 289.432 507.88 289.792 511.46 288.242C514.75 286.812 517.7 284.562 520.71 282.542C523.2 280.872 524.7 280.912 526.37 283.372C529.2 287.502 533.25 289.182 538 289.192C539.67 289.192 541.76 288.722 542.95 287.672C546.6 284.462 549.18 280.392 549.34 275.372C549.55 268.972 543.34 263.842 536.47 264.582C531.81 265.082 527.16 265.682 522.53 266.382C516.71 267.252 510.96 268.342 505.8 271.482C502.28 273.612 499.72 276.242 499.68 280.912ZM422.36 142.172C422.36 144.402 422.1 146.682 422.43 148.862C422.84 151.622 423.69 154.332 424.48 157.022C424.6 157.432 425.43 157.632 425.94 157.932C426.09 157.372 426.42 156.792 426.35 156.262C426.04 154.002 425.34 151.762 425.26 149.492C424.98 141.612 426.71 133.972 428.97 126.512C432.51 114.822 439.75 106.322 451.74 102.782C458.77 100.702 466 99.2818 473.15 97.5918C474.7 97.2318 476.16 96.6418 476.12 94.9018C476.11 94.5518 473.98 93.8418 472.91 93.9718C466.66 94.7818 460.4 95.6518 454.2 96.7618C442.59 98.8318 433.8 104.812 428.37 115.532C424.09 123.942 421.93 132.752 422.36 142.172ZM425.99 220.242C426.17 220.082 426.34 219.922 426.52 219.762C425.67 215.662 424.78 211.572 423.97 207.462C422.67 200.792 421.44 194.102 420.14 187.432C419.95 186.432 419.61 185.532 418.19 186.242C414.21 188.222 410.47 195.182 411.08 199.572C412.17 207.462 416.44 213.422 422.49 218.262C423.52 219.092 424.82 219.592 425.99 220.242ZM560.18 61.0918C559.39 58.9918 557.62 57.8418 555.09 58.3718C550.77 59.2818 547.41 61.6618 545.7 65.7918C545.31 66.7318 545.97 68.3118 546.59 69.3318C546.8 69.6818 548.47 69.4818 549.26 69.0918C550.44 68.5118 551.43 67.5418 552.5 66.7518C554.99 64.9218 557.47 63.0918 560.18 61.0918ZM502.96 80.1318C503.31 80.6118 503.8 81.9618 504.69 82.3018C505.36 82.5518 506.56 81.5618 507.45 81.0118C507.79 80.8018 507.95 80.2818 508.15 79.8818C509.62 76.9418 511.81 74.7118 514.51 72.8518C515.33 72.2818 515.69 71.0518 516.26 70.1218C515.18 69.6518 514.08 68.7218 513.03 68.7718C508.18 69.0318 502.99 74.6818 502.96 80.1318Z" fill="black"/>
<path d="M270.46 443.832C260.84 474.092 253.93 504.552 255.86 536.842C255.33 536.202 255.04 535.912 254.81 535.572C242.22 517.112 224.53 506.672 202.82 502.572C201.95 502.412 201.03 502.372 200.15 502.432C197.68 502.592 195.85 504.282 195.56 506.552C195.26 508.882 196.5 511.082 198.83 511.782C201.03 512.442 203.36 512.692 205.6 513.252C225.72 518.222 241.35 529.202 251.36 547.622C252.02 548.832 252.55 550.122 253 551.092C247.41 551.572 241.94 551.652 236.63 552.582C227.69 554.162 219.71 558.032 212.49 563.662C200.61 572.922 191.53 584.592 183.08 596.852C181.56 599.052 180.09 601.282 178.89 603.062C174.29 601.062 170.03 598.672 165.47 597.342C155.64 594.482 145.57 594.802 135.53 596.452C134.53 596.622 133.49 597.012 132.65 597.572C130.98 598.672 130.04 600.272 130.53 602.352C131 604.382 132.39 605.642 134.42 605.852C135.95 606.012 137.55 605.902 139.08 605.652C147.05 604.352 155.03 604.272 162.83 606.422C166.78 607.512 170.48 609.522 174.38 611.152C172.73 615.122 171.26 618.452 169.96 621.852C166.48 630.952 164.33 640.382 163.03 650.022C161.22 663.432 166.21 674.592 174.67 684.522C182.81 694.072 192.93 701.202 203.7 707.412C211.51 711.912 219.52 716.052 227.53 720.402C227.47 720.452 227.31 720.682 227.1 720.752C219.36 723.282 212.89 727.922 206.69 733.002C196.92 741.002 187.35 749.222 180.07 759.682C178.79 761.522 177.88 763.722 177.25 765.882C176.75 767.582 177.44 769.322 179.09 770.342C180.79 771.402 182.62 771.202 184.15 770.092C185.39 769.192 186.52 768.022 187.41 766.772C196.4 754.172 207.69 743.932 220.13 734.902C226.42 730.332 233.67 728.062 241.34 727.202C242.61 727.062 244.03 727.312 245.24 727.762C301.61 749.142 357.63 771.492 414.95 790.332C415.44 790.492 415.92 790.682 416.72 790.972C412.52 798.222 409.5 805.772 408.68 813.372C406.37 814.382 404.36 815.012 402.61 816.072C397.84 818.922 392.59 819.872 387.19 820.142C381.31 820.442 375.41 820.342 369.53 820.642C356.13 821.342 342.68 821.602 329.37 823.152C319.55 824.302 310.1 827.362 301.96 833.732C289.3 843.622 291.1 859.752 300.85 868.862C309.74 877.162 320.49 881.602 331.99 884.772C349.09 889.482 365.92 887.982 382.75 883.262C398.21 878.932 413.26 873.482 428.16 867.552C429.51 867.012 430.71 866.092 432.14 865.252C435.61 867.652 439.55 869.272 444.05 869.262C447.09 869.252 449.43 868.412 450.37 865.112C450.57 864.422 451.52 863.832 452.26 863.432C472.79 852.502 493.33 841.592 513.88 830.702C519.54 827.702 525.16 824.582 530.97 821.882C533.4 820.752 536.27 820.552 538.95 819.972C539.19 819.922 539.51 820.102 539.76 820.252C554.79 828.922 569.69 837.842 584.9 846.192C597.88 853.312 611.72 858.562 626.13 862.002C639.77 865.252 653.68 859.622 661.09 847.742C668.76 835.442 671.71 821.892 669.63 807.452C667.96 795.882 656.84 780.232 639.02 777.802C633.95 777.112 628.83 776.842 623.47 776.362C624.13 775.982 624.65 775.662 625.19 775.392C663.66 756.432 701.65 736.602 738.01 713.772C739.3 712.962 741.09 712.672 742.66 712.632C758.14 712.252 772.42 716.732 785.9 723.892C797.27 729.932 807.63 737.502 817.09 746.272C818.28 747.372 819.59 748.442 821.03 749.162C822.89 750.102 824.86 749.962 826.36 748.302C827.85 746.642 827.7 744.742 826.71 742.892C826.33 742.182 825.79 741.522 825.19 740.972C810.99 728.012 795.65 716.762 777.49 709.932C769.8 707.042 761.89 704.862 753.69 703.962C753.34 703.922 753 703.842 752.22 703.712C753.51 702.642 754.51 701.792 755.54 700.982C773.48 686.802 786.94 669.132 795.45 647.962C797.67 642.442 801.18 639.522 806.13 637.202C817.04 632.092 828.46 631.072 840.23 632.572C846.66 633.392 853.08 634.342 859.5 635.272C863.04 635.782 865.71 634.562 866.26 632.092C866.85 629.472 865.17 627.082 861.58 626.402C847.19 623.662 832.72 621.222 818.07 623.882C813.07 624.792 808.3 626.972 803.42 628.582C802.65 628.832 801.92 629.182 800.95 629.572C805.34 598.752 803.35 569.362 783.6 542.912C788.87 541.472 793.78 540.042 798.73 538.812C800.74 538.312 802.86 538.232 804.92 537.922C805.8 537.792 806.7 537.672 807.54 537.392C810.06 536.552 811.45 534.632 811.24 532.432C811.02 530.192 809.11 528.522 806.38 528.342C805.05 528.262 803.66 528.232 802.37 528.532C794.32 530.402 786.13 531.832 778.89 536.212C778.48 536.462 777.49 536.382 777.19 536.062C765.44 523.772 750 520.382 734.08 518.132C732.91 517.972 732.43 517.582 732.34 516.362C731.2 500.622 727.36 485.492 721.95 470.712C721.88 470.512 721.86 470.282 721.72 469.572C725.84 470.162 729.82 470.522 733.7 471.312C758.21 476.322 781.01 485.702 802.22 498.852C823.54 512.072 844.18 526.232 862.89 543.092C881.08 559.492 894.91 578.822 903.04 601.972C907.46 614.552 909.17 627.752 910.47 640.992C912.83 665.202 909.85 689.112 906.33 712.952C902.09 741.652 894.79 769.622 884.98 796.912C879.78 811.362 873.02 824.962 863.88 837.432C850.09 856.242 832.22 869.352 810.52 877.612C791.39 884.892 771.63 889.452 751.43 892.362C724.42 896.252 697.24 897.632 670.01 898.002C632.64 898.502 595.27 898.792 557.89 898.952C521.78 899.112 485.68 899.062 449.57 898.962C418.47 898.882 387.35 899.142 356.26 898.292C317.56 897.232 278.89 895.042 240.46 890.012C217.35 886.992 194.79 881.322 172.38 875.042C157.45 870.852 142.53 866.562 128.39 860.102C110.08 851.732 93.9 840.252 80.05 825.632C62.76 807.372 53.57 785.312 50.29 760.632C47.84 742.182 48.56 723.742 50.62 705.292C55.92 657.702 67.36 611.562 83.39 566.522C94.72 534.702 112.83 507.242 136.99 483.672C152.9 468.162 171.54 458.052 193.55 454.622C213.07 451.572 232.64 448.882 252.19 446.062C257.43 445.312 262.69 444.692 267.94 444.022C268.71 443.952 269.51 443.912 270.46 443.832Z" fill="white"/>
<path d="M794.58 608.683C794.52 615.483 793.99 624.743 791.59 633.713C785.95 654.773 774.6 672.413 758.88 687.383C747.79 697.953 734.95 706.043 721.95 713.953C684.1 736.953 644.79 757.203 604.73 776.043C589.06 783.413 573.43 790.883 557.92 798.593C545 805.013 532.22 811.753 519.48 818.543C498.32 829.823 477.22 841.223 456.14 852.643C452.42 854.663 448.95 857.163 445.25 859.223C444.29 859.753 442.68 859.893 441.71 859.463C439.5 858.463 437.15 857.353 435.49 855.663C425.82 845.863 420.05 834.023 418.16 820.413C417.25 813.813 419.09 807.523 421.86 801.563C426.33 791.953 432.73 783.633 439.44 775.533C457.29 754.003 475.07 732.433 493 710.963C498.58 704.283 504.38 697.773 510.32 691.403C534.27 665.713 558.16 639.963 582.37 614.523C598.95 597.103 617.15 581.403 635.98 566.463C646.13 558.403 656.27 550.293 666.82 542.773C677.05 535.473 688.18 529.743 700.73 527.333C710.04 525.543 719.39 525.213 728.75 526.583C736.17 527.663 743.67 528.613 750.91 530.503C765.1 534.213 774.62 544.063 782.03 556.143C791.46 571.493 794.67 588.463 794.58 608.683Z" fill="black"/>
<path d="M422.95 278.531C418.83 288.291 415.38 297.851 413.38 307.891C411.2 318.781 411.57 329.701 412.78 340.641C414.39 355.141 417.63 369.291 422.18 383.151C423.61 387.511 425.46 391.641 428.89 394.861C433.92 399.591 440.22 400.401 446.15 396.901C448.45 395.541 450.58 393.871 452.72 392.261C464.15 383.631 477.22 380.261 491.32 380.321C494.43 380.331 497.54 380.931 500.65 381.301C500.99 381.341 501.28 381.651 501.63 381.761C503.28 382.251 504.91 383.031 506.59 383.121C512.6 383.461 518.7 383.091 524.62 383.941C528.07 384.431 531.7 386.161 534.48 388.321C542.8 394.791 551.72 395.151 560.86 391.301C573.67 385.901 583.48 376.921 589.47 364.231C594.26 354.081 597.9 343.521 598.81 332.201C599.59 322.501 597.34 313.231 594.73 304.031C593.74 300.541 592.5 297.121 591.19 293.091C592.27 293.811 592.92 294.211 593.54 294.651C603.62 301.921 612.95 310.061 621.22 319.321C636.37 336.301 651.17 353.611 663.88 372.521C669.63 381.091 674.65 390.231 679.28 399.471C688.23 417.331 696.68 435.441 705.33 453.451C705.94 454.731 706.7 455.991 707 457.351C708.73 465.321 713.77 472.001 715.69 479.911C717.65 487.941 719.95 495.891 721.78 503.951C722.73 508.141 722.99 512.481 723.59 516.951C722.71 517.041 722.14 517.181 721.59 517.151C697.86 515.751 677.3 524.111 658.44 537.681C654.57 540.471 650.78 543.371 646.95 546.221C646.67 546.431 646.34 546.581 645.84 546.861C645.84 543.561 645.79 540.481 645.85 537.391C646.08 524.491 646.52 511.571 644.21 498.791C643.6 495.451 642.43 492.181 641.25 488.981C640.75 487.631 640.81 486.691 641.5 485.481C646.99 475.891 650.98 465.761 652.44 454.711C654.03 442.701 653.23 430.911 649.64 419.321C648.98 417.191 648.4 415.021 647.79 412.871C646.73 409.171 643.83 407.231 640.87 408.241C637.98 409.231 636.79 412.361 638.12 415.911C641.18 424.071 643.2 432.441 643.46 441.181C643.86 454.521 640.78 467.001 634.09 478.821C628.96 474.141 623.24 470.731 616.89 468.351C607.17 464.691 597.03 463.061 586.75 462.191C555.13 459.491 523.43 458.971 491.72 459.411C456.52 459.901 421.33 460.901 386.13 461.741C382.26 461.831 378.4 462.321 374.53 462.611C373.81 462.671 373.09 462.691 372.67 462.711C372.67 458.011 372.31 453.451 372.74 448.971C374.01 435.541 375.5 422.131 377.09 408.741C377.54 404.911 378.65 401.151 379.38 397.351C380.1 393.641 378.77 390.801 376.15 390.191C373.22 389.511 370.49 391.401 369.82 395.331C368 406.051 366.08 416.781 364.92 427.581C363.6 439.881 363.07 452.261 362.14 464.601C362.09 465.291 361.65 466.261 361.1 466.551C348.04 473.461 341.17 484.991 337.2 498.621C334.22 508.831 332.9 519.371 332.2 529.931C331.17 545.331 330.6 560.761 329.82 576.171C329.79 576.741 329.7 577.311 329.61 578.051C324.37 575.621 319.33 573.261 314.27 570.951C301.23 565.001 287.81 560.071 273.97 556.321C272.32 555.871 271.28 555.011 270.38 553.611C266.57 547.751 265.6 541.161 265.21 534.411C263.64 507.321 268.39 481.101 276.21 455.311C285.58 424.401 299.33 395.601 317.24 368.721C341.08 332.941 372.37 305.511 410.06 285.151C413.47 283.311 416.92 281.541 420.37 279.761C421.09 279.321 421.89 279.001 422.95 278.531Z" fill="black"/>
<path d="M488.92 467.082C509.78 467.422 532.3 467.522 554.81 468.262C568.5 468.712 582.18 469.942 595.82 471.242C603.91 472.012 611.72 474.272 619.09 477.882C629.89 483.172 635.77 491.802 637.04 503.752C638.58 518.192 637.64 532.652 637.78 547.102C637.83 552.072 635.85 554.932 632.09 557.842C602.48 580.812 575.72 606.832 550.41 634.412C534.53 651.722 518.44 668.832 502.38 685.982C501.72 686.692 500.49 687.162 499.5 687.212C494.66 687.462 489.81 687.632 484.97 687.602C483.86 687.592 482.54 686.942 481.69 686.172C464.49 670.822 446.91 655.912 428.34 642.242C403.3 623.812 378.29 605.312 351.11 590.032C347.41 587.952 343.72 585.842 339.97 583.822C338.84 583.212 338.41 582.492 338.45 581.192C339.14 559.362 339.35 537.492 342.51 515.822C343.85 506.662 345.63 497.602 350.1 489.342C356.1 478.262 365.27 471.602 377.94 470.722C391.1 469.812 404.29 469.322 417.48 468.912C440.72 468.222 463.99 467.712 488.92 467.082ZM468.16 558.942C462.28 559.712 458.83 563.842 457.22 569.502C454.34 579.632 453.7 589.922 456.77 600.142C458.96 607.412 463.35 613.082 470.2 616.692C480.06 621.892 490.23 622.252 500.38 618.032C515.15 611.902 523.32 600.102 526.7 584.972C528.79 575.602 527.36 566.542 520.97 558.832C514.44 550.962 503.93 549.962 496.61 556.492C494.67 558.222 492.81 560.082 491.07 562.012C490.35 562.802 489.6 563.942 489.6 564.922C489.6 568.242 487.19 569.952 485.26 571.942C484.2 573.042 483.05 572.752 482.56 571.182C481.33 567.212 479.6 563.562 476.34 561.062C479.41 559.792 482.47 558.742 485.32 557.262C486.68 556.552 487.97 555.232 488.7 553.872C491.17 549.262 489.67 542.982 485.56 539.712C481.1 536.162 473.77 535.972 468.52 539.272C463.83 542.222 461.36 547.292 463.15 551.772C464.21 554.392 466.44 556.542 468.16 558.942Z" fill="white"/>
<path d="M487.86 702.524C482.51 708.884 477.13 715.174 471.88 721.554C455.58 741.364 439.32 761.204 423.11 781.094C422.07 782.364 421.21 782.124 420.06 781.724C399.39 774.534 378.62 767.644 358.09 760.094C330.5 749.934 303.11 739.244 275.62 728.814C257.4 721.904 239.04 715.324 221.73 706.254C209.63 699.914 197.69 693.274 187.67 683.814C184.28 680.614 181.31 676.914 178.49 673.184C172.79 665.664 171.48 657.114 173.07 647.944C174.86 637.624 177.53 627.574 181.96 618.054C187.28 606.614 194.79 596.614 202.45 586.704C207.83 579.744 214.07 573.664 221.31 568.704C232.14 561.284 244.12 558.724 257.04 561.094C282.2 565.704 305.73 574.964 328.31 586.704C358.48 602.374 386.42 621.524 413.82 641.544C432.98 655.544 451.46 670.374 469.3 686.014C475.48 691.394 481.55 696.894 487.86 702.524Z" fill="black"/>
<path d="M540.88 246.604C540.6 243.194 540.31 239.874 540.05 236.544C539.25 226.374 538.53 216.184 537.63 206.024C537.1 200.034 536.22 194.074 535.6 188.084C534.98 182.094 534.51 176.094 533.91 170.104C533.73 168.324 534.3 167.414 536.19 167.504C538.35 167.594 540.51 167.514 542.66 167.694C549.55 168.274 556.44 168.904 563.32 169.584C565.13 169.764 566.54 169.174 567.1 167.534C567.68 165.834 566.61 164.644 565.06 164.094C559.44 162.114 553.84 159.954 547.79 159.704C541.56 159.444 535.33 159.224 529.1 159.124C525.4 159.064 523.7 160.994 524.11 164.604C524.93 171.844 525.83 179.074 526.66 186.314C527.69 195.254 528.58 204.214 529.71 213.144C530.74 221.244 532.12 229.304 533.16 237.414C533.59 240.824 534.04 244.164 535.66 247.244C535.79 247.494 535.58 247.924 535.48 248.624C533.65 248.154 531.81 248.024 530.34 247.234C525.01 244.364 519.77 244.934 514.82 247.744C509.52 250.754 503.97 253.664 499.49 257.684C492.94 263.564 486.74 262.264 480.01 258.804C473.43 255.424 468.92 249.854 464.59 244.174C460.11 238.294 456.85 231.744 454.68 224.624C452.5 217.434 452.52 210.414 454.7 203.204C456.34 197.774 457.32 192.144 458.62 186.614C459.98 180.864 461.39 175.134 462.76 169.384C463.88 164.674 464.39 160.084 461.35 155.714C459.55 153.124 461.01 150.274 461.76 147.744C464.82 137.374 472.58 131.704 482.24 128.184C489.34 125.594 496.74 124.304 504.24 123.704C507.55 123.434 510.92 123.124 514.21 123.424C520.65 124.004 525.5 127.644 529.59 132.414C535.92 139.804 543.26 145.794 552.52 149.184C557.78 151.104 563.27 151.964 568.82 152.334C570.56 152.444 571.25 153.174 571.52 154.604C573.28 163.844 574.93 173.104 576.77 182.324C578.98 193.414 579.49 204.654 578.85 215.864C578.4 223.684 577.2 231.554 575.3 239.144C574.33 243.034 571.18 246.424 568.84 249.924C567.44 252.024 565.7 253.894 564.13 255.874C562.3 258.184 560.39 258.264 558.79 255.814C555.9 251.394 552.19 248.144 546.95 247.054C545.04 246.614 543.01 246.734 540.88 246.604ZM509.34 164.534C509.34 164.644 509.34 164.744 509.34 164.854C511.19 164.714 513.09 164.764 514.88 164.364C515.71 164.184 516.72 163.254 516.96 162.464C517.11 161.964 516.13 160.854 515.41 160.414C514.36 159.764 513.11 159.404 511.9 159.034C505.41 157.054 498.7 156.564 492.03 156.984C485.76 157.374 479.53 158.564 473.31 159.544C471.39 159.844 470.29 161.184 470.7 163.264C471.11 165.324 472.71 165.364 474.36 165.224C479.03 164.824 483.7 164.164 488.38 164.104C495.37 164.024 502.36 164.364 509.34 164.534ZM552.25 185.994C550.62 187.074 548.82 187.794 547.72 189.094C545.36 191.904 545.95 198.114 548.49 200.714C550.72 202.994 554.2 202.604 555.95 199.884C558.21 196.374 558.03 191.554 555.37 188.294C554.67 187.444 553.55 186.934 552.25 185.994ZM482.92 192.854C483.22 193.794 483.59 195.464 484.3 196.974C485.15 198.754 486.66 199.784 488.76 199.744C490.85 199.704 492.14 198.604 493.14 196.844C495.08 193.444 494.56 190.204 492.76 186.994C491.04 183.914 488.13 183.384 485.4 185.634C483.36 187.324 483.15 189.704 482.92 192.854Z" fill="white"/>
<path d="M550.32 815.501C559.07 810.801 564.99 802.121 575.39 799.671C573.96 802.961 572.58 806.141 571.18 809.311C570.85 810.061 570.36 810.751 570.12 811.521C569.51 813.421 569.9 815.081 571.61 816.251C573.16 817.321 575.31 817.051 576.68 815.501C577.51 814.561 578.25 813.471 578.72 812.321C581.02 806.751 583.17 801.111 585.48 795.551C585.86 794.641 586.62 793.641 587.47 793.211C591.99 790.931 596.6 788.811 601.19 786.681C601.98 786.311 602.88 785.951 603.73 785.961C613.71 786.041 623.71 785.951 633.68 786.391C644.09 786.851 652.05 791.771 657.51 800.741C660.98 806.441 661.59 812.701 661.07 819.081C660.45 826.621 658.55 833.911 655 840.661C649.3 851.491 638.64 856.371 626.81 853.161C611.38 848.971 596.63 843.041 582.84 834.851C572.4 828.651 561.93 822.511 551.47 816.331C551.17 816.131 550.88 815.891 550.32 815.501Z" fill="white"/>
<path d="M568.83 281.09C570.79 281.54 572.24 282.51 573.39 284.45C580.26 296.09 578.75 307.7 573.61 319.39C569.41 328.96 562.85 336.68 555 343.41C542.94 353.74 530.21 363.05 515.06 368.44C507.65 371.08 500.06 372.72 492.32 370C489.26 368.93 486.22 367.46 483.6 365.58C466.32 353.1 451.3 338.44 440.85 319.61C438.65 315.65 436.63 311.52 435.08 307.28C431.11 296.44 431.66 285.79 437.34 275.57C437.66 274.99 437.73 274.2 438.16 273.76C438.77 273.14 439.57 272.63 440.38 272.35C440.57 272.29 441.33 273.3 441.51 273.91C444.19 282.82 446.78 291.75 449.45 300.66C452.23 309.96 456.15 318.76 462.77 325.95C467.91 331.52 473.64 336.61 481.31 338.56C485.54 339.63 489.84 340.56 494.27 339.63C495.58 339.35 496.92 339.09 498.25 339.06C501.58 338.97 504.69 338.31 507.67 336.7C509.33 335.8 511.31 335.43 513.18 334.96C522.22 332.67 529.68 327.5 536.77 321.79C548.89 312.02 557.9 299.65 565.66 286.29C566.63 284.62 567.58 282.93 568.54 281.25C568.59 281.18 568.68 281.16 568.83 281.09Z" fill="white"/>
<path d="M394.21 828.431C399.26 826.401 403.91 824.521 408.62 822.621C410.73 835.891 416.85 847.731 424.9 858.881C424.49 859.121 424.15 859.391 423.76 859.541C406.8 866.221 389.67 872.351 371.88 876.541C353.55 880.851 336.05 878.221 319.27 870.331C314.96 868.311 311.02 865.261 307.36 862.151C302.99 858.441 301.07 853.461 302.65 847.691C303.12 845.971 304.14 844.261 305.33 842.901C308.16 839.671 311.69 837.351 315.73 835.761C324.13 832.471 332.84 830.621 341.82 830.231C355.82 829.631 369.83 829.291 383.84 828.781C385.18 828.731 385.81 829.051 386.18 830.421C388.12 837.531 390.14 844.621 392.18 851.701C392.59 853.121 393.1 854.541 393.76 855.871C394.74 857.831 396.47 858.581 398.16 857.981C399.87 857.371 400.71 855.721 400.19 853.561C398.65 847.111 397.03 840.691 395.47 834.241C394.99 832.241 394.59 830.201 394.21 828.431Z" fill="white"/>
<path d="M424.03 304.191C426.56 314.621 431.59 323.871 437.39 332.731C445.37 344.931 455.37 355.341 466.45 364.751C469.79 367.591 473.21 370.321 476.84 373.301C475.25 373.641 473.84 373.941 472.44 374.261C463.15 376.361 454.71 380.311 447.11 386.061C445.39 387.361 443.66 388.681 441.79 389.761C439.1 391.321 437.17 391.081 435.29 388.651C433.77 386.681 432.35 384.471 431.53 382.141C426.52 367.961 423.36 353.361 421.75 338.411C420.59 327.671 420.49 316.991 423.12 306.421C423.28 305.771 423.44 305.121 423.62 304.471C423.65 304.371 423.83 304.321 424.03 304.191Z" fill="white"/>
<path d="M526.14 374.962C538.89 368.482 550.37 360.402 561.08 351.182C571.84 341.922 580.28 331.042 584.82 317.422C585.5 315.392 586.04 313.302 586.64 311.252C586.84 311.222 587.04 311.192 587.24 311.152C587.99 315.422 588.95 319.662 589.46 323.962C590.88 336.052 586.63 347.022 582.23 357.882C577.95 368.482 570.42 376.252 560.33 381.422C557.47 382.882 554.21 383.662 551.04 384.352C548.05 385.002 545.15 384.202 542.46 382.652C537.27 379.662 532.32 376.122 526.14 374.962Z" fill="white"/>
<path d="M499.68 280.911C499.72 276.231 502.28 273.611 505.81 271.471C510.97 268.331 516.72 267.241 522.54 266.371C527.17 265.681 531.82 265.071 536.48 264.571C543.35 263.831 549.56 268.961 549.35 275.361C549.19 280.381 546.61 284.441 542.96 287.661C541.76 288.711 539.68 289.191 538.01 289.181C533.26 289.171 529.21 287.481 526.38 283.361C524.7 280.911 523.21 280.861 520.72 282.531C517.71 284.551 514.76 286.801 511.47 288.231C507.89 289.791 503.66 289.431 501.67 286.161C500.7 284.601 500.32 282.681 499.68 280.911ZM537.49 274.341C537.4 274.161 537.31 273.981 537.23 273.811C536.67 273.851 536.11 273.951 535.56 273.921C531.59 273.751 527.59 273.731 523.65 273.291C521.48 273.051 519.43 271.871 517.26 271.521C516.12 271.341 514.83 272.021 513.61 272.311C514.21 273.511 514.81 274.721 515.44 275.911C515.53 276.081 515.81 276.141 516 276.251C521.82 279.691 527.77 279.251 533.72 276.711C535.07 276.141 536.24 275.151 537.49 274.341Z" fill="white"/>
<path d="M422.36 142.173C421.93 132.763 424.1 123.953 428.35 115.543C433.78 104.823 442.57 98.8429 454.18 96.7729C460.39 95.6629 466.64 94.7929 472.89 93.9829C473.96 93.8429 476.09 94.5529 476.1 94.9129C476.14 96.6429 474.67 97.2329 473.13 97.6029C465.98 99.2929 458.76 100.713 451.72 102.793C439.72 106.333 432.49 114.833 428.95 126.523C426.69 133.983 424.96 141.613 425.24 149.503C425.32 151.763 426.02 154.003 426.33 156.273C426.4 156.803 426.07 157.383 425.92 157.943C425.42 157.643 424.58 157.443 424.46 157.033C423.67 154.343 422.82 151.633 422.41 148.873C422.1 146.673 422.36 144.403 422.36 142.173Z" fill="white"/>
<path d="M425.99 220.243C424.81 219.593 423.51 219.092 422.48 218.262C416.43 213.422 412.16 207.463 411.07 199.573C410.47 195.183 414.21 188.223 418.18 186.243C419.61 185.533 419.94 186.432 420.13 187.432C421.43 194.102 422.66 200.793 423.96 207.463C424.76 211.573 425.65 215.662 426.51 219.762C426.34 219.932 426.17 220.093 425.99 220.243Z" fill="white"/>
<path d="M560.18 61.0906C557.47 63.0906 554.98 64.9206 552.5 66.7506C551.43 67.5406 550.44 68.5206 549.26 69.0906C548.47 69.4806 546.8 69.6906 546.59 69.3306C545.97 68.3106 545.31 66.7206 545.7 65.7906C547.41 61.6606 550.77 59.2706 555.09 58.3706C557.63 57.8406 559.39 58.9906 560.18 61.0906Z" fill="white"/>
<path d="M502.96 80.1323C502.99 74.6823 508.18 69.0323 513.03 68.7723C514.08 68.7123 515.18 69.6423 516.26 70.1223C515.69 71.0523 515.33 72.2823 514.51 72.8523C511.81 74.7123 509.62 76.9423 508.15 79.8823C507.95 80.2823 507.79 80.8023 507.45 81.0123C506.56 81.5623 505.36 82.5523 504.69 82.3023C503.81 81.9623 503.31 80.6023 502.96 80.1323Z" fill="white"/>
<path d="M468.16 558.942C466.43 556.542 464.21 554.392 463.16 551.772C461.37 547.292 463.85 542.212 468.53 539.272C473.78 535.972 481.1 536.162 485.57 539.712C489.68 542.982 491.18 549.262 488.71 553.872C487.98 555.232 486.69 556.562 485.33 557.262C482.48 558.742 479.42 559.792 476.35 561.062C479.61 563.572 481.35 567.212 482.57 571.182C483.05 572.752 484.2 573.042 485.27 571.942C487.2 569.942 489.61 568.232 489.61 564.922C489.61 563.942 490.37 562.802 491.08 562.012C492.83 560.082 494.68 558.232 496.62 556.492C503.94 549.962 514.44 550.962 520.98 558.832C527.37 566.532 528.8 575.602 526.71 584.972C523.33 600.102 515.16 611.902 500.39 618.032C490.23 622.252 480.07 621.892 470.21 616.692C463.36 613.082 458.96 607.412 456.78 600.142C453.71 589.932 454.35 579.632 457.23 569.502C458.83 563.842 462.28 559.712 468.16 558.942ZM517.42 578.452C517.42 578.002 517.44 577.552 517.42 577.112C517.16 571.852 516.08 566.872 512.06 563.082C508.72 559.932 506.26 560.082 502.99 563.242C500.72 565.442 498.91 568.232 495.6 569.212C495.21 569.332 495.07 570.172 494.74 570.632C492.97 573.072 491.58 575.992 489.32 577.822C483.5 582.552 475.73 579.912 473.44 572.822C472.99 571.412 472.47 569.982 471.71 568.732C470.28 566.362 469.3 566.402 468.04 568.792C467.42 569.972 466.82 571.212 466.53 572.502C464.95 579.452 464.26 586.502 465.58 593.562C468.3 608.152 479.99 615.302 494.27 611.252C506.66 607.742 517.48 592.412 517.42 578.452ZM477.12 544.402C475.19 544.402 473.08 546.292 473 548.112C472.9 550.272 475.72 552.042 479.2 551.912C481.18 551.832 480.96 550.122 481.04 548.912C481.21 546.352 479.4 544.402 477.12 544.402Z" fill="black"/>
<path d="M509.34 164.531C502.35 164.371 495.37 164.021 488.38 164.111C483.7 164.171 479.04 164.83 474.36 165.23C472.7 165.37 471.11 165.331 470.7 163.271C470.29 161.191 471.38 159.851 473.31 159.551C479.53 158.571 485.76 157.381 492.03 156.991C498.7 156.571 505.41 157.06 511.9 159.04C513.1 159.41 514.35 159.771 515.41 160.421C516.13 160.861 517.11 161.971 516.96 162.471C516.72 163.271 515.71 164.19 514.88 164.37C513.08 164.76 511.19 164.721 509.34 164.861C509.34 164.741 509.34 164.631 509.34 164.531Z" fill="black"/>
<path d="M552.25 185.992C553.55 186.932 554.67 187.442 555.37 188.292C558.04 191.552 558.21 196.372 555.95 199.882C554.2 202.602 550.73 202.982 548.49 200.712C545.94 198.122 545.36 191.902 547.72 189.092C548.82 187.792 550.62 187.082 552.25 185.992Z" fill="black"/>
<path d="M482.92 192.853C483.15 189.703 483.36 187.323 485.41 185.643C488.14 183.393 491.05 183.923 492.77 187.003C494.56 190.223 495.09 193.453 493.15 196.853C492.15 198.613 490.86 199.713 488.77 199.753C486.67 199.793 485.16 198.763 484.31 196.983C483.59 195.463 483.23 193.793 482.92 192.853Z" fill="black"/>
<path d="M537.49 274.342C536.24 275.142 535.07 276.142 533.72 276.712C527.77 279.252 521.82 279.702 516 276.252C515.81 276.142 515.53 276.072 515.44 275.912C514.81 274.722 514.22 273.512 513.61 272.312C514.83 272.022 516.11 271.342 517.26 271.522C519.43 271.872 521.48 273.052 523.65 273.292C527.6 273.732 531.59 273.752 535.56 273.922C536.11 273.942 536.67 273.852 537.23 273.812C537.32 273.992 537.4 274.172 537.49 274.342Z" fill="black"/>
<path d="M517.42 578.451C517.48 592.421 506.66 607.741 494.27 611.251C479.99 615.301 468.3 608.151 465.58 593.561C464.26 586.501 464.95 579.461 466.53 572.501C466.82 571.211 467.42 569.971 468.04 568.791C469.3 566.401 470.28 566.361 471.71 568.731C472.47 569.991 472.98 571.421 473.44 572.821C475.73 579.911 483.5 582.551 489.32 577.821C491.58 575.981 492.97 573.071 494.74 570.631C495.07 570.181 495.21 569.331 495.6 569.211C498.9 568.231 500.71 565.441 502.99 563.241C506.26 560.081 508.72 559.931 512.06 563.081C516.08 566.871 517.16 571.851 517.42 577.111C517.44 577.551 517.42 578.001 517.42 578.451Z" fill="white"/>
<path d="M477.12 544.402C479.4 544.412 481.21 546.352 481.04 548.912C480.96 550.122 481.18 551.842 479.2 551.912C475.72 552.042 472.91 550.272 473 548.112C473.09 546.282 475.19 544.392 477.12 544.402Z" fill="white"/>
</svg>
