<svg width="960" height="960" viewBox="0 0 960 960" fill="none" xmlns="http://www.w3.org/2000/svg">
<path d="M668.289 918.972C663.03 917.321 659.044 913.91 655.648 909.728C642.66 892.209 626.008 876.865 615.87 857.486C608.452 841.195 628.8 829.515 635.898 816.571C627.645 808.721 610.019 802.817 616.867 788.842C620.389 780.717 625.685 773.509 630.929 766.417C637.285 758.445 631.867 749.161 626.012 742.773C614.677 729.927 580.354 713.507 563.164 712.835C558.605 711.95 557.849 711.279 553.991 714.345C524.208 738.433 504.947 772.551 481.256 802.154C466.727 822.293 445.289 845.721 417.877 837.886C376.192 825.575 340.607 798.805 305.052 774.705C285.085 760.619 284.929 743.928 292.568 722.422C270.354 724.891 252.047 737.656 231.76 745.628C217.228 750.909 204.092 731.165 214.208 719.824C227.561 703.605 242.635 688.877 257.329 673.893C292.711 642.685 283.234 662.317 313.546 679.419C323.818 668.685 335.235 678.417 345.169 684.356C362.884 696.476 380.13 709.33 398.485 720.496C419.31 732.93 433.754 717.482 441.146 698.26C431.122 698.478 416.169 708.346 410.977 695.041C409.515 691.45 409.263 687.679 409.526 683.899C412.019 645.177 419.36 607.119 424.413 568.651C390.635 543.892 364.044 507.43 358.474 465.141C354.268 408.147 377.954 343.65 421.079 305.608C415.472 298.65 408.904 285.139 422.703 283.321C300.19 109.291 479.507 53.2016 517.149 186.58C520.989 137.066 558.752 84.9906 612.103 114.584C626.74 123.128 631.463 140.682 634.671 156.215C641.528 189.37 636.627 223.147 622.114 253.628C622.335 253.997 622.411 254.311 622.573 254.365C627.465 255.993 629.515 259.753 630.097 264.526C631.701 275.166 625.7 284.406 620.943 293.403C736.058 403.127 730.06 465.816 608.058 564.241C617.695 593.947 628.393 623.326 638.334 652.942C640.382 659.31 639.6 661.723 634.017 665.858C664.602 676.546 696.475 683.771 727.765 692.333C747.334 697.738 767.213 703.849 784.083 715.507C791.454 720.337 793.423 729.354 792.934 737.669C790.867 750.586 782.605 761.05 774.615 770.931C752.349 798.366 726.584 822.481 699.694 845.316C693.366 851.289 685.439 847.26 678.838 843.871C680.35 865.307 696.479 887.585 684.064 908.186C680.696 914.056 675.695 919.994 668.289 918.972ZM483.414 505.396C461.592 499.493 436.377 496.369 421.104 478.129C395.151 437.231 423.18 385.166 452.641 353.947C442.325 344.186 431.296 335.236 420.725 325.744C418.236 323.989 417.409 322.254 417.148 319.029C388.982 347.925 374.232 387.498 366.886 426.633C355.745 484.034 390.827 541.54 440.15 569.384C443.734 570.779 446.681 576.972 440.834 577.189C436.974 576.776 434.486 574.804 430.832 572.835C425.831 607.648 419.952 641.762 416.96 676.591C456.124 668.953 495.819 664.565 535.457 660.209C566.465 656.095 598.199 654.758 628.39 646.159C619.776 620.295 611.272 594.762 602.656 568.894C599.358 571.532 596.991 574.144 593.554 576.122C589.771 577.846 586.647 574.313 589.255 570.87C620.303 541.789 656.38 516.531 680.248 480.706C721.934 417.921 673.438 355.678 628.618 311.228C614.127 327.413 601.337 344.561 589.205 362.43C612.256 390.278 629.449 424.511 623.664 461.469C622.445 482.737 603.295 493.162 585.418 499.915C586.055 503.349 586.746 506.563 587.238 509.808C591.875 533.741 571.169 559.744 546.09 556.794C521.825 553.007 470.839 538.656 483.414 505.396ZM450.373 696.053C446.091 705.674 442.594 714.273 435.667 722.05C425.875 733.644 407.896 735.454 395.353 727.451C376.424 715.649 358.298 702.641 339.969 689.951C336.078 687.323 331.902 685.04 327.646 683.047C323.306 681.014 321.354 681.862 318.813 685.931C312.414 697.729 306.783 709.985 301.085 722.137C294.71 736.519 291.125 754.267 305.264 765.244C332.906 786.509 362.759 805.115 393.866 820.879C410.213 828.389 430.305 838.019 447.069 826.433C452.838 822.665 458.323 818.584 462.774 813.323C482.308 789.516 500.057 764.295 518.881 739.929C528.279 727.709 538.662 715.978 551.412 707.152C559.37 701.67 569.628 704.404 578.147 707.291C603.364 717.448 636.946 729.746 641.516 760.067C642.597 762.62 641.793 764.441 640.211 766.481C636.525 771.235 632.92 776.069 629.593 781.078C627.322 784.497 625.343 788.161 623.659 791.906C622.028 795.534 622.416 796.812 625.552 799.261C645.251 815.193 666.794 828.943 689.104 840.852C691.484 841.816 693.647 841.342 695.645 839.582C703.26 832.874 711.025 826.334 718.583 819.562C738.861 799.801 776.904 765.438 785.424 739.528C787.234 732.759 786.314 724.435 778.05 719.576C761.003 709.048 741.759 703.13 722.539 697.981C689.404 689.929 657.034 679.174 624.036 670.744C566.922 681.879 507.594 684.381 450.373 696.053ZM609.132 265.476C629.07 231.483 636.876 192.697 627.859 154.078C624.79 139.613 619.259 123.58 604.35 117.634C585.487 109.151 561.555 111.322 548.346 128.452C527.106 150.054 524.066 179.999 523.084 208.791C522.942 210.667 522.789 212.554 522.448 214.4C522.14 216.064 521.042 217.088 519.272 217.22C516.124 217.622 515.187 214.049 514.837 211.49C508.508 169.573 487.045 120.583 437.839 120.512C351.305 126.178 396.966 239.907 431.005 280.879C438.2 271.67 444.679 279.983 447.383 287.819C457.957 275.562 464.408 290.691 464.534 300.848C479.768 297.294 472.872 319.646 471.546 327.793C492.237 348.712 512.872 369.799 533.386 390.85C544.607 371.67 555.667 353.014 567.175 334.12C568.344 332.205 568.671 330.671 567.604 328.595C562.878 320.114 562.398 303.409 576.144 305.369C576.176 299.454 575.307 293.665 578.964 288.717C582.352 283.962 586.092 282.882 591.481 285.095C591.669 285.172 591.933 285.061 592.547 284.998C591.269 275.077 595.895 253.917 609.132 265.476ZM485.653 464.542C486.234 465.258 487.028 465.891 487.369 466.712C492.372 477.053 501.299 484.777 508.284 493.753C516.01 502.326 523.224 512.456 534.95 515.608C553.681 521.164 564.629 507.312 569.195 490.968C578.906 460.753 571.084 429.986 564.905 399.912C564.702 398.878 564.528 397.736 563.966 396.894C561.468 393.153 560.579 388.898 559.792 384.602C558.239 379.453 559.959 370.678 552.584 370.018C547.231 379.195 540.386 387.704 536.562 397.7C535.574 401.257 530.92 399.994 529.067 397.645C522.511 391.084 515.908 384.548 509.441 377.902C493.767 383.888 474.963 395.083 475.097 413.923C475.869 421.693 474.403 429.99 478.282 437.124C468.34 437.705 460.792 451.926 469.42 458.698C474.157 462.675 480.98 461.718 485.036 457.294C486.793 455.151 490.167 457.552 488.736 459.844C487.915 461.375 486.837 462.767 485.653 464.542ZM501.502 499.423C500.785 494.663 500.45 489.994 496.783 486.461C492.408 481.541 488.43 476.241 484.236 471.155C481.041 466.973 478.583 467.955 474.15 467.562C470.124 465.713 466.558 463.161 464.331 459.273C457.502 447.821 467.939 442.974 463.479 437.332C456.863 427.743 451.105 414.735 457.907 403.829C467.869 387.838 483.704 376.848 498.036 365.013C488.226 355.375 478.674 345.989 469.099 336.582C464.575 340.93 475.319 344.815 465.433 352.716C431.162 379.649 390.61 457.412 441.836 485.874C460.537 493.886 480.827 501.049 501.502 499.423ZM572.778 496.372C591.354 491.793 613.09 484.063 616.634 463.116C619.728 442.752 616.815 421.315 607.619 402.827C602.099 391.94 595.271 381.902 587.891 372.225C581.866 363.249 569.533 354.623 574.111 342.94C572.903 341.611 571.967 340.582 570.734 339.226C567.352 344.79 564.011 350.285 560.65 355.813C567.084 366.179 565.815 378.464 568.737 389.848C575.784 424.977 583.874 460.936 572.778 496.372ZM310.338 684.906C302.011 679.943 294.021 674.617 287.558 667.246C284.464 663.796 283.461 663.751 279.26 665.961C273.584 668.946 268.368 672.652 263.899 677.225C249.139 692.939 233.084 707.596 219.873 724.677C214.555 731.143 222.118 741.485 229.997 738.33C247.409 731.147 263.482 720.612 282.149 716.699C286.434 715.614 290.769 714.14 295.286 715.526C300.322 705.283 305.302 695.152 310.338 684.906ZM670.231 838.18C660.533 832.214 650.743 826.19 641.118 820.268C635.304 827.732 629.668 834.821 624.204 842.039C618.406 848.739 622.88 857.182 627.41 863.232C640.106 879.082 651.724 896.158 666.518 910.148C669.66 912.47 672.583 912.251 674.862 909.109C685.849 896.069 681.08 884.1 677.142 869.313C674.375 859.208 672.038 849.015 670.231 838.18ZM630.938 653.1C560.156 668.383 486.968 668.377 416.273 684.195C416.869 688.931 416.24 696.706 423.021 694.775C447.277 689.227 471.895 685.389 496.422 681.245C540.428 673.372 586.404 675.338 628.984 660.445C633.793 659.011 633.219 656.905 630.938 653.1ZM578.253 335.884C585.412 328.553 589.732 319.51 596.097 311.624C604.431 300.274 617.085 291.526 621.926 278.007C623.033 275.193 623.665 272.118 624.011 269.103C624.358 266.406 623.461 257.887 619.382 262.083C615.892 266.737 612.291 270.887 608.395 275.465C603.195 262.148 599.752 267.213 598.215 278.024C597.614 282.77 598.733 287.755 597.841 292.465C593.245 301.674 588.238 283.007 583.966 292.475C581.429 297.504 582.652 303.13 582.538 308.495C582.502 312.662 578.796 313.748 575.408 312.088C570.162 310.185 570.93 317.133 571.491 320.319C572.855 325.708 575.998 330.31 578.253 335.884ZM506.948 499.456C507.584 506.321 508.352 513.086 508.758 519.873C508.893 522.118 509.544 523.504 511.392 524.776C522.845 532.177 551.098 549.154 561.817 534.664C567.62 527.274 569.552 517.753 566.759 508.594C548.981 532.75 521.706 519.13 506.948 499.456ZM434.115 291.703C431.036 291.258 428.143 290.548 425.145 289.817C423.664 289.459 422.259 289.586 421.31 290.867C419.042 294.58 424.555 298.342 426.271 301.355C431.532 305.148 437.664 307.922 442.308 312.589C449.88 319.148 456.054 326.911 464.005 333.057C466.076 324.625 470.373 313.797 467.745 305.651C465.518 308.3 465.077 312.189 461.403 311.791C459.979 311.445 459.26 310.353 459.131 308.954C458.743 303.696 458.606 298.378 457.817 293.166C457.529 291.386 456.773 289.536 453.88 288.457C451.66 291.641 447.263 300.678 443.593 293.815C441.8 289.727 441.38 284.815 437.516 281.991C434.332 284.75 435.131 288.392 434.115 291.703ZM568.567 505.838C572.761 506.01 573.42 506.653 574.185 510.441C575.791 518.398 574.476 525.91 570.894 533.095C561.464 554.683 536.166 547.024 520.112 537.981C510.78 533.923 480.807 513.911 502.708 507.234C503.359 503.7 496.524 506.772 494.375 506.008C489.142 505.213 487.541 511.4 488.101 515.619C491.549 537.19 524.751 544.727 542.935 549.175C568.039 554.719 588.765 526.17 577.937 502.014C570.123 503.626 570.123 503.626 568.567 505.838ZM615.601 298.987C605.019 312.068 595.069 325.622 584.89 339.024C579.766 346.277 578.877 350.384 585.337 357.411C596.961 339.052 609.986 322.515 623.82 306.412C621.266 303.589 618.834 300.95 615.601 298.987ZM462.681 345.785C460.3 338.35 437.249 314.991 427.783 310.164C424.226 312.178 420.419 315.549 418.813 318.165C421.067 317.389 422.723 318.277 424.299 319.709C435.38 329.871 446.598 339.633 457.537 349.985C459.321 348.528 460.943 347.204 462.681 345.785ZM503.505 517.299C503.532 515.913 504.627 514.019 502.078 513.324C501.252 515.166 502.177 516.253 503.505 517.299Z" fill="black"/>
<path d="M520.274 40.0859C527.759 43.2609 522.323 53.7039 522.38 59.7929C521.621 66.2149 521.028 72.6559 520.3 79.0809C519.886 81.6819 519.461 85.9919 515.849 85.4809C514.212 85.2479 513.352 84.1179 513.261 82.5779C512.58 70.1349 515.231 57.7759 516.073 45.3799C516.332 42.9519 517.698 40.2999 520.274 40.0859Z" fill="black"/>
<path d="M165.463 718.547C167.734 714.34 167.539 709.034 170.414 705.192C172.498 702.44 177.263 704.514 176.726 707.917C175.474 712.768 174.043 717.633 172.8 722.502C172.031 728.369 167.059 726.476 165.463 722.088C165.463 720.908 165.463 719.728 165.463 718.547Z" fill="black"/>
<path d="M751.234 459.245C745.661 484.124 732.87 533.606 709.243 546.012C704.773 547.364 703.577 541.27 707.317 539.335C728.426 521.201 734.697 491.758 742.172 466.112C743.014 462.4 743.162 458.257 745.35 455.03C748.745 451.195 751.352 455.335 751.234 459.245Z" fill="black"/>
<path d="M335.327 455.951C333.627 479.589 335.687 508.297 353.036 526.111C357.287 529.094 353.586 534.203 349.273 531.692C330.733 518.969 325.132 479.665 327.616 458.537C327.627 449.245 335.957 448.527 335.327 455.951Z" fill="black"/>
<path d="M667.574 205.038C663.987 205.285 662.159 200.701 665.064 198.791C666.602 197.741 668.296 196.8 670.056 196.213C691.111 189.289 712.226 181.697 734.175 178.259C737.829 177.831 739.349 183.156 735.516 184.608C712.916 191.495 689.636 196.349 667.574 205.038Z" fill="black"/>
<path d="M553.223 910.535C550.064 910.58 548.615 909.789 548.311 908.127C547.731 904.656 551.672 903.602 554.225 902.753C572.041 896.693 591.421 891.541 605.825 878.905C609.336 875.069 614.034 879.921 610.464 883.488C594.816 897.829 573.28 904.811 553.223 910.535Z" fill="black"/>
<path d="M659.858 287.69C675.739 292.709 689.871 303.188 704.777 310.603C707.629 312.487 714.656 313.516 713.118 318.025C711.769 322.464 706.367 320.032 703.429 318.577C688.475 310.63 674.167 301.408 658.469 294.951C653.04 293.771 653.428 286.862 659.858 287.69Z" fill="black"/>
<path d="M184.536 736.86C185.526 731.381 186.182 726.103 187.469 720.984C188.954 715.087 197.031 687.016 205.122 690.889C207.625 692.346 206.695 696.01 204.947 698.043C197.238 709.587 193.49 722.504 191.93 736.129C191.663 739.472 192.076 742.979 192.517 746.325C193.44 751.121 188.241 751.879 186.962 747.731C185.932 744.138 185.309 740.428 184.536 736.86Z" fill="black"/>
<path d="M411.579 101.009C409.987 105.542 405.654 103.377 404.02 100.062C400.075 93.7683 396.168 87.4483 392.34 81.0823C388.627 74.7923 385.022 68.4193 381.827 61.8463C378.747 56.3563 384.626 53.0683 388.061 57.9533C395.882 72.2683 405.739 85.7673 411.579 101.009Z" fill="black"/>
<path d="M347.244 184.296C334.366 181.821 321.244 179.852 308.903 175.332C304.533 172.008 308.687 167.374 313.275 168.8C325.269 171.096 337.296 173.326 348.926 177.108C353.137 179.118 352.269 184.153 347.244 184.296Z" fill="black"/>
<path d="M393.901 303.541C385.48 313.091 373.963 320.287 364.416 328.851C362.034 330.734 357.917 334.633 355.364 331.299C353.458 329.146 355.708 326.306 357.828 324.904C364.354 319.468 370.84 313.983 377.428 308.622C381.105 306.455 392.511 294.019 393.901 303.541Z" fill="black"/>
<path d="M629.563 97.8572C634.129 86.6382 641.985 77.4462 648.772 67.5752C649.93 65.9462 651.461 64.9532 653.528 64.9892C662.568 66.5022 651.45 76.5762 649.487 80.3542C645.648 85.7112 641.823 91.0782 637.951 96.4112C635.875 99.9332 631.889 103.172 629.563 97.8572Z" fill="black"/>
<path d="M718.509 483.8C715.958 495.588 711.602 507.751 703.484 516.823C700.139 520.032 695.78 516.007 698.755 512.366C705.429 503.309 709.429 493.118 711.6 482.117C713.271 477.795 718.732 479.05 718.509 483.8Z" fill="black"/>
<path d="M776.884 510.672C774.732 516.514 766.846 549.179 758.589 544.324C757.103 543.27 757.082 540.957 758.858 538.359C764.399 530.253 767.018 520.939 769.282 511.52C769.35 505.737 776.686 503.742 776.884 510.672Z" fill="black"/>
<path d="M302.927 493.658C301.615 486.992 309.031 483.801 310.565 490.79C310.587 498.827 313.374 506.411 315.678 514.007C316.491 519.061 309.931 519.156 308.512 514.952C305.342 508.2 303.141 501.183 302.927 493.658Z" fill="black"/>
<path d="M361.089 244.126C361.047 245.868 360.158 247.08 358.548 247.57C351.437 249.608 344.419 252.062 337.173 253.566C331.85 255.127 329.402 248.572 334.805 246.824C339.244 245.272 343.747 243.888 348.265 242.577C352.079 241.906 360.781 237.699 361.089 244.126Z" fill="black"/>
<path d="M678.91 252.536C675.229 251.94 666.105 254.325 664.722 250.239C663.94 248.131 665.222 245.813 667.719 245.644C674.394 245.192 681.088 244.971 687.778 244.82C690.34 244.955 694.044 246.611 693.219 249.81C692.826 251.583 691.464 252.307 689.83 252.334C686.188 252.381 682.544 251.916 678.91 252.373C678.91 252.427 678.91 252.481 678.91 252.536Z" fill="black"/>
<path d="M578.928 73.5685C580.485 67.3215 581.209 60.7805 583.285 54.7035C585.058 49.7325 591.451 52.6195 590.961 56.6905C589.865 61.3295 588.179 79.4265 581.567 77.9275C579.946 77.3565 579.097 75.8005 578.928 73.5685Z" fill="black"/>
<path d="M681.014 147.037C678.558 151.214 673.516 154.009 669.845 157.168C666.762 158.845 661.741 164.398 658.609 160.546C656.957 158.319 658.666 155.943 660.595 154.633C664.241 151.865 667.871 149.074 671.585 146.4C674.484 144.032 680.831 140.408 681.014 147.037Z" fill="black"/>
<path d="M353.606 111.285C359.892 113.889 365.449 118.677 371.372 122.118C372.675 122.961 373.261 124.183 373.084 125.744C371.86 134.225 356.486 120.397 352.61 118.77C349.067 116.971 348.559 111.466 353.606 111.285Z" fill="black"/>
<path d="M468.049 89.8542C467.103 93.4282 463.242 95.4202 461.565 90.4422C460.045 84.5472 458.629 78.5922 458.02 72.5222C457.008 66.9552 464.051 65.7232 464.995 71.1512C466.254 77.6122 467.062 83.1542 468.049 89.8542Z" fill="black"/>
<path d="M580.797 874.57C574.125 874.282 576.218 868.742 580.979 867.035C585.43 864.402 589.91 861.814 594.319 859.113C596.235 857.939 597.57 857.776 598.779 858.959C603.936 863.838 584.698 873.765 580.797 874.57Z" fill="black"/>
<path d="M617.013 903.848C614.942 902.886 612.341 900.21 614.804 898.363C617.901 896.316 621.148 894.46 624.488 892.842C626.716 892.281 628.845 895.303 627.552 897.247C624.768 900.321 621.245 902.369 617.013 903.848Z" fill="black"/>
<path d="M483.414 505.397C470.839 538.66 521.812 553.001 546.09 556.794C571.175 559.742 591.868 533.743 587.239 509.808C586.747 506.563 586.057 503.348 585.419 499.914C603.294 493.154 622.45 482.743 623.666 461.467C629.45 424.512 612.258 390.274 589.207 362.429C601.338 344.561 614.129 327.412 628.62 311.227C673.438 355.702 721.942 417.895 680.247 480.705C656.381 516.531 620.306 541.786 589.257 570.869C586.665 574.276 589.756 577.882 593.556 576.12C596.994 574.141 599.36 571.529 602.658 568.892C611.274 594.761 619.778 620.294 628.392 646.157C598.2 654.756 566.468 656.093 535.46 660.208C495.821 664.563 456.127 668.952 416.962 676.589C419.953 641.76 425.833 607.646 430.834 572.833C434.488 574.809 436.981 576.781 440.836 577.187C446.659 576.886 443.783 570.867 440.151 569.382C390.831 541.544 355.743 484.027 366.889 426.632C374.23 387.492 388.985 347.927 417.149 319.027C417.413 322.255 418.232 323.983 420.726 325.742C431.298 335.235 442.326 344.184 452.642 353.945C423.187 385.134 395.147 437.253 421.104 478.127C436.385 496.374 461.583 499.485 483.414 505.397Z" fill="black"/>
<path d="M450.373 696.052C507.596 684.38 566.921 681.878 624.035 670.742C657.034 679.172 689.405 689.926 722.539 697.977C741.758 703.127 761.004 709.046 778.049 719.574C786.313 724.433 787.233 732.757 785.421 739.525C775.036 770.435 721.135 817.288 695.645 839.58C691.733 843.364 686.9 839.949 683.085 837.88C663.342 825.823 643.32 814.192 625.55 799.258C622.414 796.809 622.026 795.532 623.657 791.904C627.755 782.591 634.073 774.517 640.209 766.479C641.791 764.439 642.595 762.618 641.514 760.066C636.966 729.76 603.343 717.436 578.146 707.289C569.634 704.397 559.363 701.67 551.411 707.15C538.66 715.976 528.278 727.707 518.879 739.927C500.055 764.293 482.306 789.515 462.772 813.322C458.321 818.583 452.835 822.664 447.066 826.432C430.297 838.017 410.22 828.384 393.863 820.877C362.753 805.116 332.905 786.507 305.259 765.244C291.191 754.266 294.636 736.516 301.084 722.136C306.779 709.984 312.413 697.728 318.811 685.93C321.352 681.861 323.305 681.014 327.645 683.047C331.901 685.04 336.076 687.322 339.968 689.951C358.298 702.641 376.423 715.648 395.353 727.45C407.898 735.452 425.879 733.644 435.667 722.049C442.6 714.269 446.095 705.68 450.373 696.052Z" fill="white"/>
<path d="M609.132 265.474C595.891 253.916 591.27 275.077 592.547 284.996C591.933 285.059 591.668 285.17 591.481 285.093C586.092 282.88 582.352 283.96 578.964 288.715C575.307 293.665 576.177 299.45 576.144 305.367C562.39 303.417 562.881 320.105 567.604 328.594C568.671 330.67 568.343 332.204 567.174 334.119C555.665 353.014 544.608 371.666 533.385 390.849C512.872 369.798 492.236 348.71 471.545 327.792C472.87 319.673 479.766 297.277 464.533 300.847C464.407 290.679 457.95 275.566 447.382 287.818C444.677 279.976 438.194 271.673 431.004 280.878C396.966 239.955 351.316 126.138 437.84 120.508C487.071 120.601 508.488 169.557 514.833 211.49C515.185 214.039 516.122 217.634 519.271 217.219C521.041 217.087 522.139 216.063 522.447 214.399C522.788 212.553 522.941 210.666 523.082 208.789C524.064 180 527.108 150.049 548.347 128.45C561.547 111.331 585.496 109.139 604.351 117.633C619.255 123.582 624.792 139.609 627.86 154.077C636.874 192.688 629.076 231.49 609.132 265.474Z" fill="white"/>
<path d="M485.653 464.542C486.961 461.985 490.974 459.094 487.912 456.758C485.725 455.491 484.308 458.43 482.593 459.327C474.188 465.389 461.857 456.133 466.576 446.237C468.654 441.195 472.792 437.785 478.283 437.126C474.404 429.993 475.871 421.693 475.098 413.925C474.97 395.078 493.759 383.899 509.442 377.904C515.909 384.55 522.512 391.086 529.068 397.647C530.92 399.993 535.578 401.263 536.564 397.702C540.388 387.707 547.232 379.196 552.585 370.02C559.967 370.646 558.233 379.491 559.793 384.603C560.58 388.9 561.468 393.154 563.966 396.895C564.528 397.737 564.702 398.88 564.906 399.913C571.082 429.986 578.907 460.756 569.193 490.969C564.567 507.349 553.782 521.137 534.949 515.608C523.223 512.454 516.01 502.327 508.284 493.752C501.296 484.778 492.373 477.052 487.367 466.712C487.028 465.892 486.234 465.258 485.653 464.542ZM544.03 413.284C549.362 410.988 554.086 409.511 558.973 407.007C562.441 404.452 556.819 402.932 554.785 403.732C549.716 405.245 544.66 406.838 539.705 408.686C537.08 409.665 536.712 411.635 538.082 414.137C544.896 428.047 548.335 443.458 553.764 457.967C554.183 460.887 557.151 464.954 559.695 461.709C560.154 460.803 560.085 459.382 559.751 458.358C554.615 442.971 550.309 428.472 544.03 413.284ZM507.347 423.447C514.107 422.321 520.061 419.416 526.551 417.395C527.908 416.909 529.881 416.326 529.307 414.37C528.72 412.37 526.69 413.025 525.358 413.389C519.486 414.993 513.666 416.787 507.834 418.536C504.859 419.872 503.636 422.058 507.347 423.447ZM527.339 426.862C520.752 426.946 514.215 432.543 513.228 438.247C513.016 439.473 513.018 440.687 514.454 441.163C515.697 441.575 516.425 440.763 516.983 439.787C519.229 434.607 523.388 429.68 529.56 432.202C532.854 433.401 534.203 428.774 530.93 427.874C529.522 427.339 528.022 427.048 527.339 426.862ZM551.694 488.158C550.385 487.493 550.012 487.717 548.817 487.896C543.267 489.424 538.779 486.904 534.715 483.407C530.706 481.825 531.55 486.476 533.632 488.12C538.258 492.779 548.105 495.207 551.694 488.158ZM562.248 421.835C567.883 422.81 566.811 416.815 561.605 416.79C557.607 415.984 549.828 422.765 553.42 426.585C556.916 428.379 557.508 419.846 562.248 421.835ZM478.154 454.014C475.462 450.235 475.42 448.592 477.293 444.481C475.29 443.762 474.405 445.058 473.636 446.346C471.671 449.222 473.709 456.567 478.154 454.014ZM538.149 494.81C539.55 500.61 548.265 499.197 544.587 496.023C542.504 495.534 540.382 495.212 538.149 494.81Z" fill="white"/>
<path d="M310.338 684.905C305.302 695.151 300.321 705.282 295.286 715.525C290.769 714.139 286.434 715.613 282.149 716.697C263.481 720.611 247.41 731.145 229.997 738.329C222.118 741.483 214.554 731.142 219.874 724.675C233.084 707.594 249.139 692.937 263.898 677.222C268.367 672.65 273.583 668.944 279.259 665.959C283.461 663.749 284.463 663.793 287.557 667.244C294.021 674.616 302.013 679.941 310.338 684.905Z" fill="white"/>
<path d="M670.23 838.178C672.037 849.012 674.374 859.205 677.143 869.313C681.076 884.079 685.848 896.092 674.861 909.108C672.583 912.25 669.66 912.469 666.519 910.146C651.724 896.156 640.107 879.081 627.41 863.231C622.887 857.185 618.401 848.731 624.206 842.037C629.669 834.818 635.305 827.73 641.119 820.266C650.742 826.188 660.532 832.212 670.23 838.178Z" fill="white"/>
<path d="M630.937 653.098C649.092 669.932 508.253 677.124 496.422 681.245C471.895 685.388 447.277 689.225 423.02 694.773C416.211 696.706 416.907 688.926 416.272 684.193C486.967 668.374 560.154 668.38 630.937 653.098Z" fill="white"/>
<path d="M578.253 335.884C575.998 330.311 572.855 325.708 571.492 320.317C570.926 317.139 570.167 310.178 575.409 312.087C578.804 313.738 582.498 312.668 582.539 308.493C582.653 303.129 581.43 297.503 583.967 292.473C588.237 283.006 593.249 301.672 597.842 292.463C598.734 287.753 597.615 282.769 598.217 278.022C599.731 267.318 603.176 262.072 608.396 275.463C612.291 270.886 615.893 266.735 619.382 262.082C623.477 257.862 624.338 266.433 624.011 269.102C623.665 272.117 623.033 275.192 621.926 278.006C617.084 291.527 604.432 300.273 596.098 311.624C589.73 319.512 585.416 328.547 578.253 335.884Z" fill="white"/>
<path d="M506.948 499.453C521.71 519.135 548.992 532.739 566.76 508.59C569.554 517.748 567.621 527.273 561.818 534.66C551.109 549.147 522.862 532.185 511.393 524.773C509.545 523.501 508.893 522.115 508.759 519.869C508.351 513.083 507.583 506.318 506.948 499.453Z" fill="white"/>
<path d="M434.115 291.701C435.131 288.39 434.332 284.748 437.515 281.988C441.379 284.812 441.8 289.723 443.593 293.812C447.265 300.673 451.656 291.639 453.88 288.454C456.773 289.533 457.529 291.383 457.817 293.163C458.606 298.375 458.743 303.693 459.131 308.951C459.261 310.351 459.979 311.443 461.403 311.788C465.081 312.187 465.514 308.296 467.745 305.648C470.372 313.797 466.079 324.609 464.005 333.054C456.057 326.911 449.878 319.144 442.308 312.586C437.664 307.919 431.532 305.146 426.271 301.353C424.546 298.328 419.051 294.593 421.31 290.865C422.26 289.583 423.665 289.457 425.146 289.815C428.143 290.546 431.035 291.257 434.115 291.701Z" fill="white"/>
<path d="M568.567 505.837C570.123 503.625 570.123 503.625 577.937 502.012C588.751 526.168 568.05 554.718 542.936 549.171C524.756 544.727 491.561 537.195 488.1 515.618C487.545 511.398 489.14 505.211 494.375 506.006C496.491 506.771 503.365 503.7 502.708 507.232C480.801 513.917 510.787 533.915 520.112 537.98C536.161 547.022 561.471 554.684 570.894 533.093C574.476 525.909 575.791 518.397 574.185 510.44C573.421 506.652 572.761 506.009 568.567 505.837Z" fill="white"/>
<path d="M615.601 298.984C618.834 300.947 621.266 303.586 623.819 306.408C609.985 322.512 596.96 339.048 585.336 357.407C578.876 350.353 579.755 346.308 584.89 339.021C595.07 325.619 605.018 312.066 615.601 298.984Z" fill="white"/>
<path d="M462.681 345.785C460.943 347.204 459.32 348.528 457.536 349.985C446.598 339.634 435.379 329.87 424.299 319.709C422.723 318.277 421.066 317.389 418.812 318.165C420.418 315.549 424.225 312.177 427.783 310.164C437.248 314.991 460.3 338.35 462.681 345.785Z" fill="white"/>
<path d="M503.505 517.299C502.176 516.253 501.252 515.166 502.078 513.324C504.627 514.019 503.532 515.913 503.505 517.299Z" fill="white"/>
<path d="M544.03 413.282C550.307 428.464 554.617 442.976 559.751 458.357C560.085 459.382 560.154 460.802 559.695 461.708C557.144 464.922 554.197 460.93 553.764 457.966C548.335 443.457 544.897 428.046 538.084 414.135C536.712 411.633 537.081 409.663 539.706 408.684C545.157 407.207 553.214 402.72 558.587 403.915C565.513 406.729 546.228 411.773 544.03 413.282Z" fill="black"/>
<path d="M507.347 423.447C497.292 418.993 522.644 414.765 525.357 413.388C526.69 413.024 528.72 412.37 529.306 414.37C529.88 416.326 527.908 416.909 526.55 417.395C520.058 419.417 514.109 422.32 507.347 423.447Z" fill="black"/>
<path d="M527.339 426.859C528.022 427.045 529.522 427.336 530.93 427.872C534.196 428.774 532.863 433.395 529.56 432.199C523.385 429.677 519.23 434.606 516.984 439.785C516.426 440.761 515.698 441.573 514.455 441.16C513.019 440.684 513.017 439.469 513.229 438.244C514.215 432.539 520.752 426.943 527.339 426.859Z" fill="black"/>
<path d="M551.694 488.156C548.103 495.205 538.261 492.777 533.632 488.118C531.557 486.477 530.697 481.821 534.715 483.406C538.78 486.903 543.267 489.421 548.818 487.893C550.01 487.715 550.381 487.492 551.694 488.156Z" fill="black"/>
<path d="M562.248 421.833C557.501 419.847 556.925 428.373 553.42 426.583C549.83 422.76 557.605 415.985 561.604 416.788C566.808 416.812 567.885 422.807 562.248 421.833Z" fill="black"/>
<path d="M478.154 454.012C473.709 456.565 471.671 449.221 473.636 446.344C474.404 445.056 475.29 443.76 477.293 444.479C475.418 448.592 475.464 450.234 478.154 454.012Z" fill="black"/>
<path d="M538.148 494.809C540.381 495.212 542.503 495.533 544.586 496.022C548.265 499.203 539.539 500.599 538.148 494.809Z" fill="black"/>
</svg>
