<?xml version="1.0" encoding="UTF-8"?>
<svg id="Layer_2" data-name="Layer 2" xmlns="http://www.w3.org/2000/svg" viewBox="0 0 569.36 442.77">
  <defs>
    <style>
      .cls-1 {
        fill: #f4ad5e;
      }

      .cls-2 {
        fill: #000201;
      }

      .cls-3 {
        fill: #ef0c52;
      }

      .cls-4 {
        fill: #ffdcc0;
      }

      .cls-5, .cls-6, .cls-7, .cls-8, .cls-9 {
        fill: #fff;
      }

      .cls-10 {
        fill: #f74f8b;
      }

      .cls-11 {
        fill: #ffc68d;
      }

      .cls-12 {
        fill: #ffa6ca;
      }

      .cls-13 {
        fill: #e4e4ef;
      }

      .cls-14 {
        fill: #a1a1c4;
      }

      .cls-15 {
        fill: #a091a3;
      }

      .cls-16 {
        fill: #b5e4f9;
      }

      .cls-17 {
        fill: #8bd2fc;
      }

      .cls-18 {
        fill: #cfabf4;
      }

      .cls-19 {
        fill: #abbcd3;
      }

      .cls-20 {
        fill: #cacad8;
      }

      .cls-21 {
        fill: #dcf0ff;
      }

      .cls-22 {
        fill: #cc7323;
      }

      .cls-23 {
        fill: #d3c9d6;
      }

      .cls-24 {
        fill: #e28c37;
      }

      .cls-25 {
        fill: #e0e3e8;
      }

      .cls-26 {
        fill: #3e2547;
      }

      .cls-27 {
        fill: #6f6372;
      }

      .cls-28 {
        fill: #8080ba;
      }

      .cls-29 {
        fill: #63456b;
      }

      .cls-30, .cls-31 {
        fill: #5ccde9;
      }

      .cls-32 {
        fill: #503459;
      }

      .cls-33 {
        fill: #ffb3b3;
        opacity: .2;
      }

      .cls-33, .cls-34, .cls-6, .cls-7, .cls-8, .cls-31, .cls-9, .cls-35 {
        isolation: isolate;
      }

      .cls-34 {
        fill: #1b3c47;
        opacity: .15;
      }

      .cls-6 {
        opacity: .73;
      }

      .cls-7 {
        opacity: .8;
      }

      .cls-8 {
        opacity: .6;
      }

      .cls-31 {
        opacity: .58;
      }

      .cls-9 {
        opacity: .38;
      }

      .cls-36 {
        opacity: .28;
      }

      .cls-37 {
        opacity: .43;
      }
    </style>
  </defs>
  <g id="Layer_1-2" data-name="Layer 1">
    <g>
      <path class="cls-2" d="M55.56,257c-1.01,0-1.82-.81-1.82-1.82,0,0,0,0,0-.01v-49.43c-.07-1.01,.68-1.89,1.69-1.96,1.01-.07,1.89,.68,1.96,1.69,0,.09,0,.18,0,.27v49.42c0,1.01-.81,1.83-1.82,1.84,0,0,0,0-.01,0Z"/>
      <path class="cls-20" d="M29.13,262.26c-2.6,0-4.71-2.09-4.72-4.68,0-.5,.08-1.01,.24-1.49l16.93-51.81c.81-2.49,3.48-3.84,5.96-3.04s3.84,3.48,3.04,5.96l-16.97,51.79c-.63,1.94-2.44,3.26-4.48,3.26Z"/>
      <path class="cls-28" d="M29.13,262.26c-1.9,0,.56,.31-.72-2.54l18.35-56.14c5.42-3.21,5.06-.28,3.78,3.63l-16.93,51.79c-.63,1.94-2.44,3.26-4.48,3.26Z"/>
      <path class="cls-2" d="M29.13,263.19c-.59,0-1.18-.1-1.75-.28-2.96-.97-4.58-4.15-3.61-7.11l16.93-51.8c.97-2.96,4.15-4.57,7.11-3.6,2.95,.97,4.57,4.15,3.6,7.1l-16.93,51.8c-.75,2.32-2.91,3.89-5.35,3.89Zm16.93-61.19c-1.64,0-3.09,1.06-3.6,2.61l-16.94,51.76c-.31,.96-.23,2,.23,2.9,.45,.9,1.24,1.57,2.2,1.88,.38,.13,.78,.19,1.18,.19,1.64,0,3.09-1.05,3.6-2.61l16.93-51.81c.67-1.98-.4-4.13-2.38-4.8-.39-.13-.8-.2-1.22-.2v.08Z"/>
      <path class="cls-20" d="M82.12,262.26c.5,0,.99-.08,1.46-.23,2.47-.81,3.81-3.47,3-5.94l-16.91-51.81c-.81-2.49-3.48-3.84-5.96-3.04s-3.84,3.48-3.04,5.96l16.97,51.79c.63,1.94,2.44,3.26,4.48,3.26Z"/>
      <path class="cls-28" d="M82.12,262.26c1.9,0-.56,.31,.71-2.54l-18.35-56.14c-5.42-3.21-5.05-.28-3.77,3.63l16.93,51.79c.63,1.94,2.44,3.26,4.48,3.26Z"/>
      <path class="cls-2" d="M82.12,263.19c-2.44,0-4.6-1.57-5.35-3.89l-16.94-51.81c-.46-1.42-.35-2.97,.33-4.3,1.42-2.77,4.81-3.87,7.59-2.46,1.32,.68,2.33,1.85,2.79,3.26l16.94,51.81c.95,2.96-.66,6.13-3.61,7.11-.57,.18-1.16,.28-1.75,.28Zm-16.94-61.19c-.4,0-.79,.06-1.17,.19-1.98,.66-3.07,2.79-2.43,4.78l16.94,51.81c.51,1.56,1.96,2.61,3.6,2.61,.4,0,.8-.06,1.18-.19,1.99-.65,3.07-2.78,2.43-4.76,0,0,0-.01,0-.02l-16.93-51.86c-.53-1.54-1.98-2.57-3.61-2.56Z"/>
      <path class="cls-27" d="M77.83,121.84h1.63c1.86,0,3.37,1.51,3.37,3.37h0v10.32h-8.37v-10.32c0-1.86,1.51-3.37,3.37-3.37h0Z"/>
      <path class="cls-29" d="M77.83,129.12h1.63c1.86,0,3.37,1.51,3.37,3.37v10.32h-8.37v-10.32c0-1.86,1.51-3.37,3.37-3.37h0Z"/>
      <path class="cls-2" d="M82.82,136.45h-8.36c-.51,0-.92-.42-.92-.93v-10.31c0-2.37,1.92-4.29,4.29-4.29h1.63c2.37,0,4.28,1.92,4.28,4.29v10.31c0,.51-.41,.92-.92,.93Zm-7.44-1.85h6.52v-9.39c0-1.35-1.09-2.44-2.44-2.45h-1.63c-1.35,0-2.45,1.1-2.45,2.45v9.39Z"/>
      <path class="cls-27" d="M33.75,133.52h0c0-5.16,6-9.34,13.49-9.34h9.76c7.46,0,13.5,4.18,13.5,9.34h0"/>
      <path class="cls-2" d="M70.46,134.44c-.51,0-.92-.41-.92-.92,0-4.64-5.64-8.42-12.58-8.42h-6.69c-.51,0-.92-.41-.92-.92,0-.51,.41-.92,.92-.92h6.73c7.95,0,14.42,4.6,14.42,10.26,0,.51-.41,.92-.92,.92-.01,0-.03,0-.04,0Z"/>
      <path class="cls-2" d="M33.75,134.44c-.51,0-.92-.41-.92-.92,0-4.84,4.82-9.07,11.46-10.05,.51-.07,.98,.27,1.05,.78,.07,.51-.27,.98-.78,1.05h0c-5.73,.84-9.89,4.3-9.89,8.22,0,.51-.41,.92-.92,.92h0Z"/>
      <path class="cls-29" d="M65.86,133.08h-26.74c-.74-.06-1.29-.72-1.23-1.46,.06-.65,.58-1.17,1.23-1.23h26.74c.74-.06,1.4,.49,1.46,1.23,.06,.74-.49,1.4-1.23,1.46-.08,0-.15,0-.23,0Z"/>
      <path class="cls-27" d="M39.31,192.74h32.57v9.74c0,1.43-1.16,2.59-2.59,2.59h-27.39c-1.43,0-2.59-1.16-2.59-2.59v-9.74h0Z"/>
      <path class="cls-29" d="M39.31,190.08h32.57v9.74c0,1.43-1.16,2.59-2.59,2.59h-27.39c-1.43,0-2.59-1.16-2.59-2.59v-9.74h0Z"/>
      <path class="cls-2" d="M69.29,206h-27.39c-1.94,0-3.51-1.57-3.51-3.51v-9.73c0-.51,.41-.92,.92-.93h32.57c.51,0,.92,.42,.92,.93v9.73c0,1.94-1.57,3.51-3.51,3.51Zm-29.06-12.34v8.81c0,.92,.75,1.67,1.67,1.67h27.39c.92,.03,1.68-.69,1.71-1.61,0-.02,0-.04,0-.06v-8.81h-30.77Z"/>
      <path class="cls-27" d="M38,186.72h35.17v10.51c-.01,1.53-1.26,2.77-2.79,2.77h-29.58c-1.54,0-2.79-1.23-2.8-2.77v-10.51h0Z"/>
      <path class="cls-29" d="M38,184.18h35.17v10.51c0,1.54-1.25,2.79-2.79,2.79h-29.58c-1.54,0-2.79-1.24-2.8-2.78,0,0,0,0,0,0v-10.51h0Z"/>
      <path class="cls-2" d="M70.38,201h-29.58c-2.05,0-3.71-1.67-3.71-3.72v-10.56c0-.51,.41-.92,.92-.92h35.16c.51,0,.92,.41,.93,.92v10.51c.02,2.06-1.63,3.75-3.69,3.77-.01,0-.02,0-.03,0Zm-31.45-13.36v9.59c0,1.03,.84,1.87,1.87,1.87h29.58c1.03,0,1.87-.84,1.87-1.87v-9.59H38.93Z"/>
      <rect class="cls-27" x="7.3" y="134.27" width="92.17" height="60.07" rx="11.98" ry="11.98"/>
      <path class="cls-29" d="M99.46,174v8c0,6.63-5.37,12-12,12H19.27c-6.63,0-12-5.37-12-12v-8c0,6.63,5.37,12,12,12H87.49c6.62-.02,11.97-5.38,11.97-12Z"/>
      <circle class="cls-10" cx="86.39" cy="148.91" r="5.89"/>
      <circle class="cls-12" cx="86.39" cy="148.91" r="2.46"/>
      <path class="cls-2" d="M86.39,156.15c-4,0-7.24-3.24-7.24-7.24,0-4,3.24-7.24,7.24-7.24s7.24,3.24,7.24,7.24c0,4-3.24,7.23-7.24,7.24Zm0-11.79c-2.51,0-4.55,2.03-4.56,4.54s2.03,4.55,4.54,4.56c2.51,0,4.55-2.03,4.56-4.54,0,0,0,0,0,0,0-2.51-2.03-4.54-4.54-4.55Z"/>
      <path class="cls-2" d="M18.17,194.62c-.55,.03-1.02-.4-1.05-.95,0-.02,0-.03,0-.05v-40.97c0-.58,.47-1.04,1.05-1.04s1.05,.47,1.05,1.04v40.93c.02,.55-.41,1.02-.96,1.04-.03,0-.05,0-.08,0Z"/>
      <path class="cls-2" d="M18.17,148.24c-.55,.03-1.02-.4-1.05-.95,0-.02,0-.03,0-.05v-12.46c0-.58,.47-1.04,1.05-1.04s1.05,.47,1.05,1.04v12.42c.02,.55-.41,1.02-.96,1.04-.03,0-.05,0-.08,0Z"/>
      <path class="cls-15" d="M82.54,138.48h-3.68c-1.1,0-2-.9-2-2s.9-2,2-2h3.68c1.1,0,2,.9,2,2s-.9,2-2,2Z"/>
      <path class="cls-15" d="M73.27,138.57h-28.41c-1.1,0-2-.9-2-2s.9-2,2-2h28.41c1.1,0,2,.9,2,2s-.9,2-2,2Z"/>
      <path class="cls-23" d="M64.91,138.57h-8.27c-1.1,0-2-.9-2-2s.9-2,2-2h8.27c1.1,0,2,.9,2,2s-.9,2-2,2Z"/>
      <path class="cls-2" d="M87.68,195.71H19.46c-7.37-.01-13.33-5.98-13.34-13.35v-36.12c.01-7.36,5.98-13.33,13.34-13.34H87.68c7.36,.02,13.31,5.98,13.32,13.34v36.12c-.01,7.36-5.96,13.32-13.32,13.35ZM19.46,135.64c-5.85,0-10.59,4.75-10.6,10.6v36.12c-.02,5.86,4.72,10.62,10.58,10.64,0,0,.01,0,.02,0H87.68c5.86,0,10.6-4.75,10.61-10.61v-36.15c-.01-5.85-4.76-10.59-10.61-10.6H19.46Z"/>
      <circle class="cls-29" cx="55.75" cy="168.9" r="18.82"/>
      <circle class="cls-21" cx="56.17" cy="163.16" r="18.09"/>
      <path class="cls-30" d="M56.17,182.08c-10.45,0-18.92-8.46-18.93-18.91,0-10.45,8.46-18.92,18.91-18.93,10.45,0,18.92,8.46,18.93,18.91h0c0,10.45-8.47,18.92-18.91,18.93Zm0-32.05c-7.26,0-13.14,5.87-13.15,13.13,0,7.26,5.87,13.14,13.13,13.15,7.26,0,13.14-5.87,13.15-13.13,0,0,0-.01,0-.02,0-7.26-5.87-13.15-13.13-13.16v.03Z"/>
      <polygon class="cls-5" points="51.04 179.44 46.96 179.44 56.39 145.53 60.47 145.53 51.04 179.44"/>
      <polygon class="cls-9" points="55.58 180.07 52.86 180.07 62.29 146.16 65.01 146.16 55.58 180.07"/>
      <path class="cls-2" d="M56.17,182.6c-10.73-.01-19.43-8.71-19.44-19.44-.02-4.32,1.42-8.51,4.08-11.91,.42-.62,1.26-.78,1.87-.36,.62,.42,.78,1.26,.36,1.87-.03,.05-.07,.09-.11,.14-2.29,2.93-3.53,6.54-3.52,10.26,0,9.25,7.49,16.75,16.74,16.76s16.75-7.49,16.76-16.74c0-9.25-7.49-16.75-16.74-16.76h0c-3.64-.01-7.17,1.17-10.07,3.37-.6,.44-1.44,.32-1.89-.27-.45-.58-.33-1.42,.25-1.86,0,0,.01-.01,.02-.02,3.36-2.55,7.47-3.92,11.69-3.91,10.73,.24,19.24,9.14,18.99,19.88-.24,10.39-8.6,18.76-18.99,18.99h0Z"/>
      <path class="cls-2" d="M214,248.26h-8.61c-.36,0-.65-.29-.65-.65s.29-.65,.65-.65h8.61c.36,0,.65,.29,.65,.65s-.29,.65-.65,.65Z"/>
      <path class="cls-2" d="M226.49,248.26h-8.6c-.36,0-.65-.29-.65-.65s.29-.65,.65-.65h8.6c.36,0,.65,.29,.65,.65s-.29,.65-.65,.65Z"/>
      <path class="cls-2" d="M239,248.26h-8.6c-.36,0-.65-.29-.65-.65s.29-.65,.65-.65h8.6c.36,0,.65,.29,.65,.65s-.29,.65-.65,.65Z"/>
      <path class="cls-2" d="M251.57,248.26h-8.57c-.36,0-.65-.29-.65-.65s.29-.65,.65-.65h8.6c.36,0,.65,.29,.65,.65s-.29,.65-.65,.65h-.03Z"/>
      <path class="cls-2" d="M264.11,248.26h-8.61c-.36,0-.65-.29-.65-.65s.29-.65,.65-.65h8.61c.36,0,.65,.29,.65,.65s-.29,.65-.65,.65Z"/>
      <path class="cls-2" d="M276.64,248.26h-8.64c-.36,0-.65-.29-.65-.65s.29-.65,.65-.65h8.6c.36,0,.65,.29,.65,.65s-.29,.65-.65,.65h.04Z"/>
      <path class="cls-2" d="M289.18,248.26h-8.6c-.36,0-.65-.29-.65-.65s.29-.65,.65-.65h8.6c.36,0,.65,.29,.65,.65s-.29,.65-.65,.65Z"/>
      <path class="cls-2" d="M301.72,248.26h-8.61c-.36,0-.65-.29-.65-.65s.29-.65,.65-.65h8.61c.36,0,.65,.29,.65,.65s-.29,.65-.65,.65Z"/>
      <path class="cls-2" d="M314.25,248.26h-8.6c-.36,0-.65-.29-.65-.65s.29-.65,.65-.65h8.6c.36,0,.65,.29,.65,.65s-.29,.65-.65,.65Z"/>
      <path class="cls-2" d="M326.79,248.26h-8.6c-.36,0-.65-.29-.65-.65s.29-.65,.65-.65h8.6c.36,0,.65,.29,.65,.65s-.29,.65-.65,.65Z"/>
      <path class="cls-2" d="M339.33,248.26h-8.6c-.36,0-.65-.29-.65-.65s.29-.65,.65-.65h8.6c.36,0,.65,.29,.65,.65s-.29,.65-.65,.65Z"/>
      <path class="cls-2" d="M351.87,248.26h-8.61c-.36,0-.65-.29-.65-.65s.29-.65,.65-.65h8.61c.36,0,.65,.29,.65,.65s-.29,.65-.65,.65Z"/>
      <path class="cls-2" d="M364.4,248.26h-8.6c-.36,0-.65-.29-.65-.65s.29-.65,.65-.65h8.6c.36,0,.65,.29,.65,.65s-.29,.65-.65,.65h0Z"/>
      <path class="cls-2" d="M376.94,248.26h-8.6c-.36,0-.65-.29-.65-.65s.29-.65,.65-.65h8.6c.36,0,.65,.29,.65,.65s-.29,.65-.65,.65Z"/>
      <path class="cls-2" d="M389.48,248.26h-8.6c-.36,0-.65-.29-.65-.65s.29-.65,.65-.65h8.6c.36,0,.65,.29,.65,.65s-.29,.65-.65,.65Z"/>
      <path class="cls-2" d="M402,248.26h-8.61c-.36,0-.65-.29-.65-.65s.29-.65,.65-.65h8.61c.36,0,.65,.29,.65,.65s-.29,.65-.65,.65Z"/>
      <path class="cls-25" d="M417.57,256.07H189.44c0-7,5.67-12.67,12.67-12.67h202.79c7,0,12.66,5.67,12.67,12.67Z"/>
      <path class="cls-19" d="M192.08,249.74c1.25-4.17,5.31-6.84,9.63-6.35h202.75c4.66-.6,9.17,1.88,11.15,6.14l-223.53,.21Z"/>
      <path class="cls-2" d="M417.93,257.69H189.8c-.61,0-1.1-.49-1.1-1.1h0c.01-7.6,6.17-13.76,13.77-13.77h202.79c7.59,.03,13.73,6.18,13.74,13.77,0,.6-.47,1.08-1.07,1.1Zm-227-2.2h225.85c-.57-5.94-5.55-10.48-11.52-10.49H202.47c-5.95,.03-10.91,4.57-11.47,10.49h-.07Z"/>
      <path class="cls-2" d="M202.76,248.26h-8.6c-.36,0-.65-.29-.65-.65s.29-.65,.65-.65h8.6c.36,0,.65,.29,.65,.65s-.29,.65-.65,.65Z"/>
      <path class="cls-2" d="M215.3,248.26h-8.6c-.36,0-.65-.29-.65-.65s.29-.65,.65-.65h8.6c.36,0,.65,.29,.65,.65s-.29,.65-.65,.65Z"/>
      <path class="cls-2" d="M227.84,248.26h-8.6c-.36,0-.65-.29-.65-.65s.29-.65,.65-.65h8.6c.36,0,.65,.29,.65,.65s-.29,.65-.65,.65Z"/>
      <path class="cls-2" d="M240.38,248.26h-8.61c-.36,0-.65-.29-.65-.65s.29-.65,.65-.65h8.61c.36,0,.65,.29,.65,.65s-.29,.65-.65,.65Z"/>
      <path class="cls-2" d="M252.91,248.26h-8.6c-.36,0-.65-.29-.65-.65s.29-.65,.65-.65h8.6c.36,0,.65,.29,.65,.65s-.29,.65-.65,.65Z"/>
      <path class="cls-2" d="M265.45,248.26h-8.6c-.36,0-.65-.29-.65-.65s.29-.65,.65-.65h8.6c.36,0,.65,.29,.65,.65s-.29,.65-.65,.65Z"/>
      <path class="cls-2" d="M278,248.26h-8.61c-.36,0-.65-.29-.65-.65s.29-.65,.65-.65h8.61c.36,0,.65,.29,.65,.65s-.29,.65-.65,.65Z"/>
      <path class="cls-2" d="M290.52,248.26h-8.6c-.36,0-.65-.29-.65-.65s.29-.65,.65-.65h8.6c.36,0,.65,.29,.65,.65s-.29,.65-.65,.65Z"/>
      <path class="cls-2" d="M303.06,248.26h-8.6c-.36,0-.65-.29-.65-.65s.29-.65,.65-.65h8.6c.36,0,.65,.29,.65,.65s-.29,.65-.65,.65Z"/>
      <path class="cls-2" d="M315.6,248.26h-8.6c-.36,0-.65-.29-.65-.65s.29-.65,.65-.65h8.6c.36,0,.65,.29,.65,.65s-.29,.65-.65,.65Z"/>
      <path class="cls-2" d="M328.14,248.26h-8.61c-.36,0-.65-.29-.65-.65s.29-.65,.65-.65h8.61c.36,0,.65,.29,.65,.65s-.29,.65-.65,.65Z"/>
      <path class="cls-2" d="M340.67,248.26h-8.6c-.36,0-.65-.29-.65-.65s.29-.65,.65-.65h8.6c.36,0,.65,.29,.65,.65s-.29,.65-.65,.65Z"/>
      <path class="cls-2" d="M353.21,248.26h-8.6c-.36,0-.65-.29-.65-.65s.29-.65,.65-.65h8.6c.36,0,.65,.29,.65,.65s-.29,.65-.65,.65Z"/>
      <path class="cls-2" d="M365.75,248.26h-8.6c-.36,0-.65-.29-.65-.65s.29-.65,.65-.65h8.6c.36,0,.65,.29,.65,.65s-.29,.65-.65,.65Z"/>
      <path class="cls-2" d="M378.29,248.26h-8.61c-.36,0-.65-.29-.65-.65s.29-.65,.65-.65h8.61c.36,0,.65,.29,.65,.65s-.29,.65-.65,.65Z"/>
      <path class="cls-2" d="M390.82,248.26h-8.6c-.36,0-.65-.29-.65-.65s.29-.65,.65-.65h8.6c.36,0,.65,.29,.65,.65s-.29,.65-.65,.65Z"/>
      <path class="cls-25" d="M406.37,256.07H178.25c0-7,5.67-12.67,12.67-12.67h202.78c7,0,12.67,5.67,12.67,12.67h0Z"/>
      <path class="cls-19" d="M180.88,249.74c1.25-4.17,5.31-6.84,9.63-6.35h202.76c4.65-.6,9.16,1.88,11.14,6.14l-223.53,.21Z"/>
      <path class="cls-2" d="M406.74,257.69H178.61c-.61,0-1.1-.49-1.1-1.1h0c.01-7.6,6.17-13.76,13.77-13.77h202.78c7.6,0,13.77,6.17,13.78,13.77,0,.61-.49,1.1-1.1,1.1h0Zm-227-2.2h225.84c-.56-5.94-5.55-10.49-11.52-10.49H191.28c-5.97,0-10.95,4.55-11.52,10.49h-.02Z"/>
      <polygon class="cls-34" points="94.01 80.73 63.93 80.73 63.93 78.99 92.27 78.99 92.27 57.99 130.16 57.99 130.16 59.73 94.01 59.73 94.01 80.73"/>
      <polygon class="cls-34" points="125.59 101.39 78.13 101.39 78.13 80.86 79.88 80.86 79.88 99.65 125.59 99.65 125.59 101.39"/>
      <rect class="cls-34" x="97.04" y="78.99" width="19.23" height="1.74"/>
      <path class="cls-34" d="M75.88,122.39H28.25v-22.74h47.63v22.74Zm-45.88-1.74h44.13v-19.26H30v19.26Z"/>
      <polygon class="cls-34" points="478.57 308.33 448.49 308.33 448.49 306.59 476.83 306.59 476.83 285.6 514.72 285.6 514.72 287.34 478.57 287.34 478.57 308.33"/>
      <polygon class="cls-34" points="510.16 329 462.7 329 462.7 308.46 464.44 308.46 464.44 327.25 510.16 327.25 510.16 329"/>
      <rect class="cls-34" x="481.61" y="306.59" width="19.23" height="1.74"/>
      <path class="cls-34" d="M460.44,350h-47.63v-22.75h47.63v22.75Zm-45.88-1.74h44.14v-19.26h-44.14v19.26Z"/>
      <polygon class="cls-34" points="514.53 35.58 484.45 35.58 484.45 33.84 512.79 33.84 512.79 12.84 550.68 12.84 550.68 14.58 514.53 14.58 514.53 35.58"/>
      <polygon class="cls-34" points="546.12 56.24 498.66 56.24 498.66 35.71 500.4 35.71 500.4 54.5 546.12 54.5 546.12 56.24"/>
      <rect class="cls-34" x="517.57" y="33.84" width="19.23" height="1.74"/>
      <path class="cls-34" d="M496.4,77.24h-47.62v-22.74h47.62v22.74Zm-45.88-1.74h44.14v-19.26h-44.14v19.26Z"/>
      <polygon class="cls-34" points="221.1 316.9 191.02 316.9 191.02 315.16 219.35 315.16 219.35 294.17 257.25 294.17 257.25 295.91 221.1 295.91 221.1 316.9"/>
      <polygon class="cls-34" points="252.68 337.57 205.22 337.57 205.22 317.03 206.97 317.03 206.97 335.82 252.68 335.82 252.68 337.57"/>
      <rect class="cls-34" x="224.13" y="315.16" width="19.23" height="1.74"/>
      <path class="cls-34" d="M203,358.56h-47.66v-22.73h47.66v22.73Zm-45.89-1.74h44.14v-19.25h-44.17l.03,19.25Z"/>
      <rect class="cls-20" x="109.53" y="1.37" width="371.58" height="221.36"/>
      <rect class="cls-20" x="124" y="14.57" width="342.64" height="194.96"/>
      <rect class="cls-16" x="124.75" y="14.01" width="341.89" height="195.52"/>
      <rect class="cls-30" x="124.75" y="201.17" width="341.89" height="8.36"/>
      <rect class="cls-30" x="124.75" y="15.94" width="341.89" height="8.36"/>
      <rect class="cls-30" x="136.56" y="15.94" width="9.56" height="193.59"/>
      <rect class="cls-14" x="124" y="15.66" width="12.04" height="192.98"/>
      <rect class="cls-24" x="516.46" y="277.9" width="18.39" height="163.5"/>
      <path class="cls-2" d="M534.84,442.77h-18.38c-.76,0-1.37-.61-1.37-1.37v-163.5c0-.75,.61-1.36,1.36-1.36,0,0,0,0,.01,0h18.38c.75,0,1.36,.6,1.37,1.35,0,0,0,0,0,.01v163.5c0,.76-.61,1.37-1.37,1.37Zm-17-2.74h15.66v-160.76h-15.68l.02,160.76Z"/>
      <rect class="cls-1" x="509.43" y="277.9" width="18.39" height="163.5"/>
      <rect class="cls-24" x="509.43" y="277.9" width="18.39" height="8.86"/>
      <path class="cls-2" d="M527.82,442.76h-18.39c-.75,0-1.36-.61-1.36-1.36v-163.5c0-.75,.61-1.36,1.36-1.36h18.39c.75,0,1.36,.61,1.36,1.36v163.5c0,.75-.61,1.36-1.36,1.36h0Zm-17-2.72h15.67v-160.78h-15.7l.03,160.78Z"/>
      <rect class="cls-24" x="37.46" y="277.9" width="18.39" height="163.5"/>
      <path class="cls-2" d="M55.85,442.77h-18.39c-.76,0-1.37-.61-1.37-1.37v-163.5c0-.75,.62-1.36,1.37-1.36h18.39c.75,0,1.36,.6,1.37,1.35,0,0,0,0,0,.01v163.5c0,.76-.61,1.37-1.37,1.37Zm-17-2.74h15.63v-160.76h-15.65l.02,160.76Z"/>
      <rect class="cls-1" x="30.44" y="277.9" width="18.39" height="163.5"/>
      <rect class="cls-24" x="30.44" y="277.9" width="18.39" height="8.86"/>
      <path class="cls-2" d="M48.83,442.77H30.44c-.76,0-1.37-.61-1.37-1.37v-163.5c0-.75,.61-1.36,1.36-1.36,0,0,0,0,.01,0h18.39c.75,0,1.36,.61,1.36,1.36v163.5c0,.75-.6,1.36-1.35,1.37,0,0,0,0-.01,0Zm-17-2.74h15.63v-160.76h-15.65l.02,160.76Z"/>
      <path class="cls-33" d="M49,441.53H30.31v-163.75h18.69v163.75Zm-18.39-.25h18.09v-163.28H30.56l.05,163.28Z"/>
      <polyline class="cls-22" points="39.3 256.02 566.69 256.02 566.69 278.68 18.75 278.68 18.75 256.02 25.49 256.02"/>
      <rect class="cls-1" x="1.5" y="256.03" width="554.03" height="22.65"/>
      <rect class="cls-11" x="1.5" y="256.03" width="554.03" height="5.43"/>
      <rect class="cls-24" x="1.5" y="273.02" width="554.03" height="5.43"/>
      <path class="cls-2" d="M31.53,274.07H1.11c-.42,0-.76-.34-.76-.76H.35c0-.41,.34-.75,.75-.75,0,0,0,0,.01,0H31.53c.41,0,.74,.32,.75,.73,0,0,0,.01,0,.02,0,.41-.33,.75-.74,.76,0,0,0,0-.01,0Z"/>
      <path class="cls-2" d="M35.9,302.17c-.07,0-.14,0-.21,0-.4-.12-.63-.54-.52-.94l2.45-8.53c.1-.4,.51-.63,.9-.53,0,0,.02,0,.03,0,.4,.11,.63,.52,.52,.92,0,0,0,0,0,0l-2.44,8.54c-.1,.31-.4,.52-.73,.52Z"/>
      <path class="cls-2" d="M37.67,307.29h-.21c-.39-.11-.62-.52-.52-.91,0,0,0-.01,0-.02l4.85-16.94c.1-.41,.52-.65,.92-.55,.41,.1,.65,.52,.55,.92,0,.02,0,.03-.01,.05l-4.86,16.91c-.09,.32-.39,.54-.73,.54Z"/>
      <path class="cls-2" d="M423.83,57.83c-.42,0-.76-.33-.77-.75,0-.08,.01-.17,.04-.25l2.45-8.54c.12-.4,.54-.63,.94-.52,.4,.12,.63,.54,.51,.94l-2.44,8.53c-.08,.34-.38,.59-.73,.59Z"/>
      <path class="cls-2" d="M425.61,63h-.21c-.4-.12-.64-.54-.52-.94l4.85-16.93c.14-.4,.58-.6,.97-.46,.36,.13,.57,.5,.49,.87l-4.86,16.86c-.07,.34-.37,.59-.72,.6Z"/>
      <path class="cls-2" d="M515.31,322.21h-.21c-.4-.12-.63-.54-.52-.94l2.45-8.53c.11-.4,.52-.63,.92-.52,0,0,0,0,0,0,.4,.1,.63,.51,.53,.9,0,0,0,.02,0,.03l-2.48,8.51c-.09,.31-.37,.53-.69,.55Z"/>
      <path class="cls-2" d="M517.08,327.32h-.2c-.4-.1-.63-.51-.53-.9,0,0,0-.02,0-.03l4.85-16.94c.13-.4,.56-.62,.96-.49,.38,.12,.6,.52,.5,.91l-4.86,16.94c-.11,.31-.4,.52-.73,.51Z"/>
      <path class="cls-4" d="M555,270.84c-39.44-.38-84.41-2.16-127.89-3.88-42.75-1.7-83.14-3.29-112.63-3.29-32.12,0-57.43,1.7-84.22,3.5-15.32,1-31.15,2.09-49.19,2.91-36.34,1-144.54-.66-179.37-4.91l.17-1.42c34.78,4.25,142.86,5.92,179.15,4.91,18-.82,33.84-1.88,49.14-2.91,26.82-1.81,52.15-3.51,84.32-3.51,29.52,0,69.92,1.6,112.69,3.29,43.47,1.72,88.42,3.51,127.84,3.88v1.43Z"/>
      <path class="cls-4" d="M313.54,272.41c-21.64-.2-43.26-1.52-64.77-3.94-59.28-5.47-190.62-4.57-246.54,1.61l-.16-1.42c56-6.18,187.48-7,246.84-1.61,21.46,2.42,43.03,3.74,64.63,3.95,29.5,0,69.89-1.6,112.65-3.3,43.47-1.72,88.43-3.5,127.87-3.88v1.43c-39.41,.38-84.36,2.16-127.83,3.88-42.76,1.68-83.16,3.28-112.69,3.28Z"/>
      <path class="cls-2" d="M555.4,280.25H1.37c-.76,0-1.37-.61-1.37-1.37v-22.65c0-.76,.61-1.37,1.37-1.37h6.84c.75-.06,1.42,.49,1.48,1.25s-.49,1.42-1.25,1.48c-.08,0-.16,0-.23,0H2.74v19.93H554v-19.93H18.23c-.75,.06-1.42-.49-1.48-1.25-.06-.75,.49-1.42,1.25-1.48,.08,0,.16,0,.23,0H555.4c.75,0,1.36,.61,1.36,1.36,0,0,0,0,0,.01v22.65c0,.75-.6,1.36-1.35,1.37,0,0,0,0-.01,0Z"/>
      <path class="cls-2" d="M568,280.24h-19.58c-.75,.06-1.41-.49-1.47-1.24s.49-1.41,1.24-1.47c.08,0,.16,0,.23,0h18.23v-19.95h-18.23c-.75,.06-1.41-.49-1.47-1.24s.49-1.41,1.24-1.47c.08,0,.16,0,.23,0h19.58c.75,0,1.36,.61,1.36,1.36v22.65c0,.75-.61,1.36-1.36,1.36h0Z"/>
      <path class="cls-2" d="M136,209.86c-.67,0-1.22-.55-1.22-1.22h0V15.07c0-.67,.55-1.22,1.22-1.22s1.22,.55,1.22,1.22V208.64c0,.67-.55,1.22-1.22,1.22h0Z"/>
      <path class="cls-30" d="M213.12,70.45c-1.1,0-2-.9-2-2v-23.25c0-1.1,.9-2,2-2s2,.9,2,2v23.25c0,1.1-.9,2-2,2Z"/>
      <path class="cls-6" d="M213.12,59.45c-1.1,0-2-.9-2-2v-5.25c0-1.1,.9-2,2-2s2,.9,2,2v5.25c0,1.1-.9,2-2,2Z"/>
      <path class="cls-30" d="M213.12,38c-1.1,0-2-.9-2-2v-4.46c0-1.1,.9-2,2-2s2,.9,2,2v4.46c0,1.1-.9,2-2,2Z"/>
      <polygon class="cls-5" points="225.22 209.53 215.22 209.53 251.22 14.57 261.22 14.57 225.22 209.53"/>
      <polygon class="cls-5" points="282.44 209.53 240.44 209.53 276.44 14.57 318.44 14.57 282.44 209.53"/>
      <path class="cls-28" d="M126.25,197.07c-1.1,0-2-.9-2-2v-48.62c0-1.1,.9-2,2-2s2,.9,2,2v48.62c0,1.1-.9,2-2,2h0Z"/>
      <path class="cls-28" d="M126.25,79.33c-1.1,0-2-.9-2-2V28.71c0-1.1,.9-2,2-2s2,.9,2,2v48.62c0,1.1-.9,2-2,2Z"/>
      <path class="cls-28" d="M126.25,122c-1.1,0-2-.9-2-2v-19.48c0-1.1,.9-2,2-2s2,.9,2,2v19.48c0,1.1-.9,2-2,2Z"/>
      <path class="cls-28" d="M121.55,151c-1.1,0-2-.9-2-2v-11.49c0-1.1,.9-2,2-2s2,.9,2,2v11.49c0,1.1-.9,2-2,2Z"/>
      <path class="cls-28" d="M121.55,46.49c-1.1,0-2-.9-2-2v-11.49c0-1.1,.9-2,2-2s2,.9,2,2v11.49c0,1.1-.9,2-2,2Z"/>
      <path class="cls-28" d="M191,13.55h-11.44c-1.1,0-2-.9-2-2s.9-2,2-2h11.44c1.1,0,2,.9,2,2s-.9,2-2,2Z"/>
      <path class="cls-13" d="M152.23,7.15h-19.45c-1.38,0-2.5-1.12-2.5-2.5s1.12-2.5,2.5-2.5h19.45c1.38,0,2.5,1.12,2.5,2.5s-1.12,2.5-2.5,2.5Z"/>
      <path class="cls-13" d="M221.88,7.15h-19.45c-1.38,0-2.5-1.12-2.5-2.5s1.12-2.5,2.5-2.5h19.45c1.38,0,2.5,1.12,2.5,2.5s-1.12,2.5-2.5,2.5h0Z"/>
      <path class="cls-13" d="M289.16,7.15h-19.44c-1.38,0-2.5-1.12-2.5-2.5s1.12-2.5,2.5-2.5h19.44c1.38,0,2.5,1.12,2.5,2.5s-1.12,2.5-2.5,2.5Z"/>
      <path class="cls-28" d="M121.55,193.12c-1.1,0-2-.9-2-2v-19.45c0-1.1,.9-2,2-2s2,.9,2,2v19.45c0,1.1-.9,2-2,2Z"/>
      <path class="cls-2" d="M210.2,210.44c-.76,0-1.37-.61-1.37-1.37v-31.07c0-.76,.61-1.37,1.37-1.37s1.37,.61,1.37,1.37v31.06c0,.76-.6,1.37-1.36,1.38,0,0,0,0-.01,0Z"/>
      <path class="cls-2" d="M210.2,169.22c-.76,0-1.37-.61-1.37-1.37v-55.7c0-.76,.61-1.37,1.37-1.37s1.37,.61,1.37,1.37v55.7c0,.76-.61,1.37-1.37,1.37h0Z"/>
      <path class="cls-2" d="M210.2,101.89c-.76,0-1.37-.61-1.37-1.37V15.94c0-.76,.61-1.37,1.37-1.37s1.37,.61,1.37,1.37V100.52c0,.76-.61,1.37-1.37,1.37h0Z"/>
      <path class="cls-2" d="M295.66,210.44c-.76,0-1.37-.61-1.37-1.37V47.85c0-.76,.62-1.37,1.37-1.37,.75,0,1.36,.61,1.37,1.37V209.07c0,.76-.61,1.37-1.37,1.37Z"/>
      <path class="cls-2" d="M295.66,40.13c-.76,0-1.37-.61-1.37-1.37V15.94c0-.76,.62-1.37,1.37-1.37,.75,0,1.36,.61,1.37,1.37v22.82c0,.76-.61,1.37-1.37,1.37Z"/>
      <path class="cls-2" d="M381.11,210.44c-.75,0-1.36-.61-1.36-1.36,0,0,0,0,0-.01V54.82c.06-.75,.73-1.31,1.48-1.25,.66,.06,1.19,.58,1.25,1.25V209.07c0,.76-.61,1.37-1.37,1.37h0Z"/>
      <path class="cls-2" d="M381.11,46.56c-.75,0-1.36-.61-1.36-1.36V15.94c.06-.75,.73-1.31,1.48-1.25,.66,.06,1.19,.58,1.25,1.25v29.26c0,.75-.61,1.36-1.36,1.36,0,0,0,0-.01,0Z"/>
      <path class="cls-2" d="M109.53,146.27c-.75,0-1.36-.61-1.36-1.36,0,0,0,0,0-.01V38.76c-.06-.75,.49-1.42,1.25-1.48,.75-.06,1.42,.49,1.48,1.25,0,.08,0,.16,0,.23v106.14c0,.76-.61,1.37-1.37,1.37h0Z"/>
      <path class="cls-2" d="M481.11,224.1H109.53c-.75,0-1.36-.61-1.36-1.36,0,0,0,0,0-.01v-67.43c-.06-.75,.49-1.42,1.25-1.48,.75-.06,1.42,.49,1.48,1.25,0,.08,0,.16,0,.23v66.06H479.74V2.74H254.25c-.76,0-1.37-.61-1.37-1.37S253.49,0,254.25,0h226.86c.76,0,1.37,.61,1.37,1.37V222.73c0,.76-.61,1.37-1.37,1.37h0Z"/>
      <path class="cls-2" d="M109.53,28.61c-.75,0-1.36-.62-1.36-1.37V1.37c0-.75,.6-1.36,1.35-1.37,0,0,0,0,.01,0H240.44C241.2,0,241.81,.61,241.81,1.37s-.61,1.37-1.37,1.37H110.9V27.24c0,.76-.61,1.37-1.37,1.37h0Z"/>
      <path class="cls-2" d="M466.64,210.9H124c-.75,0-1.36-.61-1.36-1.36,0,0,0,0,0-.01V14.53c.02-.74,.62-1.33,1.36-1.33H466.64c.75,0,1.36,.62,1.36,1.37V209.57c-.02,.74-.62,1.32-1.36,1.33Zm-341.27-2.74H465.27V15.94H125.37V208.16Z"/>
      <path class="cls-2" d="M465.7,81.23h-111.7c-.76,0-1.37-.62-1.37-1.37,0-.76,.61-1.37,1.37-1.37h111.7c.76,0,1.37,.62,1.37,1.37,0,.76-.61,1.37-1.37,1.37Z"/>
      <path class="cls-2" d="M341.88,81.23H125.31c-.76,0-1.37-.62-1.37-1.37,0-.76,.61-1.37,1.37-1.37h216.57c.76,0,1.37,.62,1.37,1.37,0,.76-.61,1.37-1.37,1.37Z"/>
      <path class="cls-2" d="M465.7,146.27h-116.48c-.76,0-1.37-.61-1.37-1.37s.61-1.37,1.37-1.37h116.48c.76,0,1.37,.61,1.37,1.37s-.61,1.37-1.37,1.37Z"/>
      <path class="cls-2" d="M337.36,146.27H125.36c-.76,0-1.37-.61-1.37-1.37s.61-1.37,1.37-1.37h212c.76,0,1.37,.61,1.37,1.37s-.61,1.37-1.37,1.37Z"/>
      <path class="cls-29" d="M392.6,73.8h24.86c3.52,0,6.37,2.86,6.37,6.38V236.18c0,3.52-2.85,6.37-6.37,6.38H178.46c-3.52,0-6.37-2.86-6.37-6.38v-24.37"/>
      <path class="cls-2" d="M173.1,175c-.73,0-1.32-.6-1.33-1.33V80.17c0-.73,.6-1.33,1.33-1.33s1.33,.6,1.33,1.33v93.53c-.02,.72-.61,1.3-1.33,1.3Z"/>
      <rect class="cls-27" x="163.83" y="73.44" width="251.7" height="168.76" rx="6.37" ry="6.37"/>
      <path class="cls-29" d="M415.56,231.43v6.92c0,2.12-2.83,3.91-6.46,3.91H170.26c-3.63,0-6.46-1.79-6.46-3.91v-6.92c0,2.2,2.83,3.91,6.46,3.91h238.84c3.63,0,6.46-1.71,6.46-3.91Z"/>
      <path class="cls-2" d="M416.07,111.09c-.76,0-1.37-.61-1.37-1.37v-29.55c0-2.76-2.24-5-5-5H227.22c-.76,0-1.37-.62-1.37-1.37,0-.76,.61-1.37,1.37-1.37h182.48c4.27,.01,7.73,3.47,7.74,7.74v29.55c0,.76-.61,1.37-1.37,1.37Z"/>
      <path class="cls-2" d="M164.37,200.84c-.76,0-1.37-.61-1.37-1.37v-14.7c0-.76,.61-1.37,1.37-1.37s1.37,.61,1.37,1.37v14.7c0,.76-.61,1.37-1.37,1.37h0Z"/>
      <rect class="cls-21" x="177.51" y="86.54" width="227.18" height="144.89"/>
      <rect class="cls-17" x="177.51" y="86.54" width="227.18" height="4.39"/>
      <rect class="cls-18" x="178.4" y="230.19" width="225.81" height=".91"/>
      <path class="cls-2" d="M218.2,75h-19.44c-.76,0-1.37-.62-1.37-1.37,0-.76,.61-1.37,1.37-1.37h19.44c.76,0,1.37,.62,1.37,1.37,0,.76-.61,1.37-1.37,1.37Z"/>
      <polygon class="cls-8" points="276.1 230.6 270.52 230.6 306.04 85.14 311.62 85.14 276.1 230.6"/>
      <polygon class="cls-7" points="300.75 230.6 283.33 230.6 318.86 85.14 336.28 85.14 300.75 230.6"/>
      <polygon class="cls-8" points="253.52 230.6 247.95 230.6 283.47 85.14 289.05 85.14 253.52 230.6"/>
      <path class="cls-2" d="M416.07,123.05c-.51,0-.92-.41-.92-.92h0v-6.71c0-.51,.41-.92,.92-.92,.51,0,.92,.41,.92,.92h0v6.71c0,.51-.41,.92-.92,.92Z"/>
      <path class="cls-32" d="M175.56,217.85c-.83,0-1.5-.67-1.5-1.5v-19.45c0-.83,.67-1.5,1.5-1.5s1.5,.67,1.5,1.5v19.45c0,.83-.67,1.5-1.5,1.5h0Z"/>
      <path class="cls-32" d="M175.56,186.05c-.83,0-1.5-.67-1.5-1.5v-9.45c0-.83,.67-1.5,1.5-1.5s1.5,.67,1.5,1.5v9.45c0,.83-.67,1.5-1.5,1.5Z"/>
      <path class="cls-32" d="M414.15,217.85c-.83,0-1.5-.67-1.5-1.5v-19.45c0-.83,.67-1.5,1.5-1.5s1.5,.67,1.5,1.5v19.45c0,.83-.67,1.5-1.5,1.5h0Z"/>
      <path class="cls-32" d="M414.15,186.05c-.83,0-1.5-.67-1.5-1.5v-9.45c0-.83,.67-1.5,1.5-1.5s1.5,.67,1.5,1.5v9.45c0,.83-.67,1.5-1.5,1.5Z"/>
      <path class="cls-26" d="M421.77,217.85c-.83,0-1.5-.67-1.5-1.5v-19.45c0-.83,.67-1.5,1.5-1.5s1.5,.67,1.5,1.5v19.45c0,.83-.67,1.5-1.5,1.5h0Z"/>
      <path class="cls-26" d="M421.77,186.05c-.83,0-1.5-.67-1.5-1.5v-9.45c0-.83,.67-1.5,1.5-1.5s1.5,.67,1.5,1.5v9.45c0,.83-.67,1.5-1.5,1.5Z"/>
      <path class="cls-32" d="M175.56,115.92c-.83,0-1.5-.67-1.5-1.5v-19.42c0-.83,.67-1.5,1.5-1.5s1.5,.67,1.5,1.5v19.45c-.02,.82-.68,1.47-1.5,1.47Z"/>
      <path class="cls-15" d="M165.9,128.44c-.83,0-1.5-.67-1.5-1.5v-19.45c0-.83,.67-1.5,1.5-1.5s1.5,.67,1.5,1.5v19.45c0,.83-.67,1.5-1.5,1.5Z"/>
      <path class="cls-15" d="M165.9,169.41c-.83,0-1.5-.67-1.5-1.5v-19.45c0-.83,.67-1.5,1.5-1.5s1.5,.67,1.5,1.5v19.45c0,.83-.67,1.5-1.5,1.5Z"/>
      <path class="cls-17" d="M179.33,153.85c-.83,0-1.5-.67-1.5-1.5v-14.44c0-.83,.67-1.5,1.5-1.5s1.5,.67,1.5,1.5v14.44c0,.83-.67,1.5-1.5,1.5Z"/>
      <path class="cls-17" d="M179.33,221.5c-.83,0-1.5-.67-1.5-1.5h0v-14.45c0-.83,.67-1.5,1.5-1.5s1.5,.67,1.5,1.5v14.45c0,.83-.67,1.5-1.5,1.5h0Z"/>
      <path class="cls-17" d="M179.33,190.33c-.83,0-1.5-.67-1.5-1.5v-11.44c0-.83,.67-1.5,1.5-1.5s1.5,.67,1.5,1.5v11.44c0,.83-.67,1.5-1.5,1.5Z"/>
      <path class="cls-17" d="M179.33,110.79c-.83,0-1.5-.67-1.5-1.5h0v-11.44c0-.83,.67-1.5,1.5-1.5s1.5,.67,1.5,1.5v11.44c0,.83-.67,1.5-1.5,1.5h0Z"/>
      <path class="cls-2" d="M404.52,232.4H177.35c-.76-.01-1.36-.63-1.35-1.39,0,0,0,0,0-.01v-65.3c-.06-.75,.49-1.42,1.25-1.48,.75-.06,1.42,.49,1.48,1.25,0,.08,0,.16,0,.23v63.93h224.43V86.71H178.72v38c.06,.75-.49,1.42-1.25,1.48-.75,.06-1.42-.49-1.48-1.25,0-.08,0-.16,0-.23v-39.37c.01-.74,.62-1.34,1.36-1.34h227.17c.75,0,1.36,.6,1.37,1.35,0,0,0,0,0,.01V231c.02,.76-.58,1.38-1.34,1.4-.01,0-.02,0-.03,0Z"/>
      <path class="cls-2" d="M177.35,156.46c-.51,0-.92-.41-.92-.92v-22.27c0-.51,.41-.92,.92-.92,.51,0,.92,.41,.92,.92h0v22.27c0,.51-.41,.92-.92,.92Z"/>
      <path class="cls-2" d="M164.37,175.07c-.76,0-1.37-.61-1.37-1.37h0V80.17c0-4.27,3.47-7.73,7.74-7.74h19.51c.76,0,1.37,.61,1.37,1.37,0,.76-.61,1.37-1.37,1.37h-19.51c-2.76,0-5,2.24-5,5v93.53c0,.75-.62,1.36-1.37,1.37Z"/>
      <path class="cls-2" d="M409.7,243.93H170.7c-4.27,0-7.73-3.47-7.74-7.74v-24.38c0-.76,.61-1.37,1.37-1.37s1.37,.61,1.37,1.37v24.38c0,2.76,2.24,5,5,5h239c2.76,0,5-2.24,5-5v-107.52c0-.76,.62-1.37,1.37-1.37,.75,0,1.36,.61,1.37,1.37v107.52c0,4.27-3.47,7.73-7.74,7.74Z"/>
      <path class="cls-2" d="M417.46,243.93c-.75,.06-1.42-.49-1.48-1.25-.06-.75,.49-1.42,1.25-1.48,.08,0,.16,0,.23,0,2.76,0,5-2.24,5-5V80.2c0-2.76-2.24-5-5-5h-27.69c-.76,0-1.37-.62-1.37-1.37,0-.76,.61-1.37,1.37-1.37h27.69c4.27,0,7.73,3.47,7.74,7.74V236.2c-.01,4.27-3.47,7.72-7.74,7.73Z"/>
      <rect class="cls-27" x="447.75" y="97.26" width="93.63" height="157.96" rx="9.91" ry="9.91"/>
      <path class="cls-29" d="M541.38,238.44v8.64c0,4.19-4.43,7.58-9.91,7.58h-73.81c-5.47,0-9.91-3.39-9.91-7.58v-8.64c0,4.18,4.44,7.57,9.91,7.57h73.81c5.53-.01,9.91-3.39,9.91-7.57Z"/>
      <rect class="cls-21" x="462.2" y="128.12" width="65.9" height="101.47" rx="6.74" ry="6.74"/>
      <g class="cls-36">
        <path class="cls-2" d="M518.73,183.65h-47.64c-.87,0-1.58-.71-1.58-1.58v-12.63c0-.87,.71-1.58,1.58-1.58h47.64c.87,0,1.58,.71,1.58,1.58h0v12.63c0,.87-.71,1.58-1.58,1.58h0Zm-47-2.24h46.32v-11.31h-46.3l-.02,11.31Z"/>
        <path class="cls-2" d="M512.7,176.31h-36.43c-.62,0-1.12-.5-1.12-1.12s.5-1.12,1.12-1.12h36.43c.62,0,1.12,.5,1.12,1.12s-.5,1.12-1.12,1.12Z"/>
        <path class="cls-2" d="M518.73,206.52h-47.64c-.87,0-1.58-.71-1.58-1.58v-12.63c0-.87,.71-1.58,1.58-1.58h47.64c.87,0,1.58,.71,1.58,1.58h0v12.63c0,.87-.71,1.58-1.58,1.58h0Zm-47-2.24h46.32v-11.28h-46.3l-.02,11.28Z"/>
        <path class="cls-2" d="M512.7,199.74h-36.43c-.62-.06-1.07-.6-1.01-1.22,.05-.53,.47-.96,1.01-1.01h36.43c.62-.06,1.16,.39,1.22,1.01,.06,.62-.39,1.16-1.01,1.22-.07,0-.14,0-.21,0Z"/>
      </g>
      <path class="cls-17" d="M527.54,217.05v5.52c0,3.72-3.02,6.74-6.74,6.75h-52.42c-3.72,0-6.74-3.03-6.74-6.75v-5.52c0,3.72,3.02,6.74,6.74,6.75h52.42c3.72,0,6.74-3.03,6.74-6.75Z"/>
      <path class="cls-17" d="M461.64,140.37v-5.52c0-3.72,3.02-6.74,6.74-6.75h52.42c3.72,0,6.74,3.03,6.74,6.75v5.52c0-3.72-3.02-6.74-6.74-6.75h-52.42c-3.72,0-6.74,3.03-6.74,6.75Z"/>
      <polygon class="cls-8" points="480.14 228.84 474.56 228.84 483.93 128.63 489.5 128.63 480.14 228.84"/>
      <polygon class="cls-7" points="504.79 228.84 487.37 228.84 496.74 128.63 514.16 128.63 504.79 228.84"/>
      <circle class="cls-10" cx="467.1" cy="111.52" r="4.38"/>
      <circle class="cls-12" cx="467.1" cy="111.52" r="1.83"/>
      <path class="cls-2" d="M467.1,116.9c-2.97,0-5.38-2.4-5.39-5.37,0-2.97,2.4-5.38,5.37-5.39,2.97,0,5.38,2.4,5.39,5.37h0c0,2.98-2.4,5.38-5.37,5.39Zm0-8.76c-1.87,0-3.38,1.5-3.39,3.37s1.5,3.38,3.37,3.39c1.87,0,3.38-1.5,3.39-3.37h0c0-1.87-1.51-3.38-3.37-3.39Z"/>
      <path class="cls-15" d="M505.31,100.13h-29.31c-.83,0-1.5-.67-1.5-1.5s.67-1.5,1.5-1.5h29.36c.83,0,1.5,.67,1.5,1.5s-.67,1.5-1.5,1.5h-.05Z"/>
      <path class="cls-15" d="M526.11,100.13h-12.71c-.83,0-1.5-.67-1.5-1.5s.67-1.5,1.5-1.5h12.71c.83,0,1.5,.67,1.5,1.5s-.67,1.5-1.5,1.5h0Z"/>
      <path class="cls-2" d="M531.47,256.59h-73.81c-6.22,0-11.26-5.05-11.27-11.27V107.17c0-6.23,5.04-11.27,11.27-11.28h38.66c.76,0,1.37,.61,1.37,1.37s-.61,1.37-1.37,1.37h-38.66c-4.71,0-8.53,3.83-8.54,8.54V245.32c0,4.71,3.83,8.53,8.54,8.54h73.81c4.71,0,8.53-3.83,8.54-8.54V107.17c0-4.71-3.83-8.53-8.54-8.54h-27c-.76,0-1.37-.62-1.37-1.37,0-.76,.61-1.37,1.37-1.37h27c6.23,0,11.27,5.05,11.28,11.28V245.32c0,6.23-5.05,11.27-11.28,11.27Z"/>
      <path class="cls-5" d="M219.31,230.3h5.36v23c.01,1.48-1.18,2.69-2.66,2.7,0,0,0,0-.01,0h0c-1.48,0-2.68-1.2-2.68-2.68v-23.02Z"/>
      <rect class="cls-31" x="219.31" y="211.57" width="5.36" height="25.69"/>
      <rect class="cls-5" x="209.42" y="225.85" width="25.72" height="7.52" rx="3.4" ry="3.4"/>
      <path class="cls-2" d="M222,257.05c-2.06,0-3.73-1.67-3.73-3.73,0,0,0,0,0-.01v-23c-.03-.55,.4-1.02,.95-1.05,.03,0,.07,0,.1,0h5.37c.55,0,1,.45,1,1,0,.02,0,.03,0,.05v23c0,2.05-1.64,3.72-3.69,3.74Zm-1.62-25.69v21.95c-.07,.9,.6,1.68,1.5,1.75,.9,.07,1.68-.6,1.75-1.5,0-.08,0-.17,0-.26v-21.95h-3.25Z"/>
      <rect class="cls-5" x="209.42" y="225.85" width="25.72" height="7.52" rx="3.4" ry="3.4"/>
      <rect class="cls-31" x="209.42" y="223.5" width="25.72" height="7.52" rx="3.4" ry="3.4"/>
      <path class="cls-2" d="M231.74,234.43h-18.92c-2.46,0-4.45-2-4.45-4.46v-.72c0-2.46,1.99-4.44,4.45-4.45h18.92c2.46,0,4.45,1.99,4.46,4.45v.75c-.02,2.45-2.01,4.43-4.46,4.43Zm-18.92-7.52c-1.29,0-2.34,1.05-2.34,2.34v.75c0,1.29,1.05,2.34,2.34,2.34h18.92c1.29,0,2.34-1.05,2.35-2.34v-.72c0-1.29-1.06-2.34-2.35-2.34l-18.92-.03Z"/>
      <rect class="cls-27" x="206.26" y="136.11" width="32.02" height="50.44" rx="4.43" ry="4.43"/>
      <path class="cls-29" d="M237.24,140.54v41.58c0,2.44-1.97,4.42-4.41,4.43,0,0,0,0-.01,0h-5.82c2.45,0,4.43-1.98,4.43-4.43v-41.58c0-2.45-1.98-4.43-4.43-4.43h5.84c2.44,.01,4.41,1.99,4.4,4.43Z"/>
      <path class="cls-2" d="M233.62,187.91h-23.17c-3.2,0-5.78-2.59-5.79-5.79v-41.59c0-3.19,2.6-5.78,5.79-5.78h23.17c3.19,0,5.77,2.59,5.78,5.78v41.59c0,3.19-2.59,5.78-5.78,5.79Zm-23.17-50.45c-1.7,0-3.07,1.37-3.07,3.07h0v41.59c0,1.7,1.37,3.07,3.07,3.07h23.17c1.69,0,3.06-1.38,3.07-3.07v-41.59c0-1.69-1.38-3.06-3.07-3.07h-23.17Z"/>
      <g class="cls-37">
        <path class="cls-2" d="M237.53,166.55h-30.91c-.28,0-.5-.22-.5-.5s.22-.5,.5-.5h30.91c.28,0,.5,.22,.5,.5s-.22,.5-.5,.5Z"/>
        <path class="cls-2" d="M237.53,163h-30.91c-.28,0-.5-.22-.5-.5s.22-.5,.5-.5h30.91c.28,0,.5,.22,.5,.5s-.22,.5-.5,.5Z"/>
        <path class="cls-2" d="M237.53,155.86h-30.91c-.28,0-.5-.22-.5-.5s.22-.5,.5-.5h30.91c.28,0,.5,.22,.5,.5s-.22,.5-.5,.5Z"/>
        <path class="cls-2" d="M237.53,152.3h-30.91c-.28,0-.5-.22-.5-.5s.22-.5,.5-.5h30.91c.28,0,.5,.22,.5,.5s-.22,.5-.5,.5Z"/>
        <path class="cls-2" d="M237.53,145.17h-30.91c-.28,0-.5-.22-.5-.5s.22-.5,.5-.5h30.91c.28,0,.5,.22,.5,.5s-.22,.5-.5,.5Z"/>
        <path class="cls-2" d="M237.53,141.61h-30.91c-.28,0-.5-.22-.5-.5s.22-.5,.5-.5h30.91c.28,0,.5,.22,.5,.5s-.22,.5-.5,.5Z"/>
        <path class="cls-2" d="M237.53,148.74h-30.91c-.28,0-.5-.22-.5-.5s.22-.5,.5-.5h30.91c.28,0,.5,.22,.5,.5s-.22,.5-.5,.5Z"/>
        <path class="cls-2" d="M237.53,159.43h-30.91c-.28,0-.5-.22-.5-.5s.22-.5,.5-.5h30.91c.28,0,.5,.22,.5,.5s-.22,.5-.5,.5Z"/>
      </g>
      <g class="cls-37">
        <path class="cls-2" d="M209.56,171.05c-.28,0-.5-.22-.5-.5v-33.67c0-.28,.22-.5,.5-.5s.5,.22,.5,.5v33.67c0,.28-.22,.5-.5,.5Z"/>
        <path class="cls-2" d="M213.12,171.05c-.27,0-.49-.23-.5-.5v-33.67c0-.28,.22-.5,.5-.5s.5,.22,.5,.5v33.67c0,.28-.22,.5-.5,.5Z"/>
        <path class="cls-2" d="M220.25,171.05c-.28,0-.5-.22-.5-.5v-33.67c0-.28,.22-.5,.5-.5s.5,.22,.5,.5v33.67c0,.28-.22,.5-.5,.5Z"/>
        <path class="cls-2" d="M223.81,171.05c-.27,0-.49-.23-.5-.5v-33.67c0-.28,.22-.5,.5-.5s.5,.22,.5,.5v33.67c0,.28-.22,.5-.5,.5Z"/>
        <path class="cls-2" d="M230.94,171.05c-.28,0-.5-.22-.5-.5v-33.67c0-.28,.22-.5,.5-.5s.5,.22,.5,.5v33.67c0,.27-.23,.49-.5,.5Z"/>
        <path class="cls-2" d="M234.5,171.05c-.27,0-.49-.23-.5-.5v-33.67c0-.28,.22-.5,.5-.5s.5,.22,.5,.5v33.67c0,.28-.22,.5-.5,.5Z"/>
        <path class="cls-2" d="M227.38,171.05c-.28,0-.5-.22-.5-.5v-33.67c0-.28,.22-.5,.5-.5s.5,.22,.5,.5v33.67c0,.27-.23,.49-.5,.5Z"/>
        <path class="cls-2" d="M216.69,171.05c-.28,0-.5-.22-.5-.5v-33.67c0-.28,.22-.5,.5-.5s.5,.22,.5,.5v33.67c0,.27-.23,.49-.5,.5Z"/>
      </g>
      <path class="cls-5" d="M211.89,171.83h20.78c4.24,0,7.67,3.43,7.67,7.67v41.31c0,4.21-3.42,7.63-7.63,7.63h-20.86c-4.21,0-7.63-3.42-7.63-7.63h0v-41.31c0-4.24,3.43-7.67,7.67-7.67Z"/>
      <path class="cls-31" d="M232.25,171.85c.12,.53,.18,1.08,.18,1.63v3.68h-27.32v2.4h20.36c3.87,0,7,3.13,7,7v28.24c0,4.21-3.42,7.63-7.63,7.63h-20.84c-.1,0-.21,0-.31,0,.77,3.51,3.87,6,7.46,6h20.85c4.21,0,7.63-3.42,7.63-7.63h0v-41.29c0-4.12-3.26-7.51-7.38-7.66Z"/>
      <circle class="cls-10" cx="221.91" cy="213.3" r="4.38"/>
      <path class="cls-2" d="M221.91,218.68c-2.97,0-5.38-2.41-5.38-5.38,0-2.97,2.41-5.38,5.38-5.38,2.97,0,5.38,2.41,5.38,5.38,0,2.97-2.41,5.37-5.38,5.38Zm0-8.76c-1.87,0-3.38,1.51-3.38,3.38,0,1.87,1.51,3.38,3.38,3.38,1.87,0,3.38-1.51,3.38-3.38,0-1.86-1.52-3.37-3.38-3.38Z"/>
      <path class="cls-2" d="M232.71,229.8h-20.86c-4.97,0-9-4.03-9-9v-41.3c0-4.97,4.03-9,9-9h20.78c4.97,0,9,4.03,9,9v41.31c0,4.94-3.98,8.95-8.92,8.99Zm-20.82-56.61c-3.48,0-6.3,2.83-6.31,6.31v41.31c0,3.46,2.81,6.27,6.27,6.28h20.86c3.46,0,6.27-2.82,6.27-6.28v-41.31c0-3.48-2.83-6.3-6.31-6.31h-20.78Z"/>
      <rect class="cls-5" x="200.63" y="171.36" width="43.3" height="5.32" rx="2.53" ry="2.53"/>
      <path class="cls-2" d="M241.4,177.84h-38.23c-2.05,0-3.7-1.65-3.71-3.7v-.25c0-2.05,1.66-3.7,3.71-3.7h38.23c2.04,0,3.7,1.66,3.7,3.7v.25c0,2.04-1.66,3.7-3.7,3.7Zm-38.23-5.31c-.75,0-1.36,.6-1.37,1.35,0,0,0,0,0,.01v.25c0,.76,.61,1.37,1.37,1.37h38.23c.76,0,1.37-.61,1.37-1.37v-.25c0-.75-.62-1.36-1.37-1.36h-38.23Z"/>
      <path class="cls-5" d="M200.37,189.27l14.34-4.44c.84-.26,1.74,.21,2,1.05h0c.26,.84-.21,1.74-1.06,2l-14.34,4.44c-.84,.26-1.74-.21-2-1.05h0c-.26-.84,.21-1.74,1.06-2Z"/>
      <path class="cls-2" d="M200.84,193.13c-1.03,0-1.93-.67-2.24-1.65-.18-.6-.12-1.24,.17-1.79,.29-.55,.78-.96,1.38-1.14l14.35-4.45c.59-.18,1.23-.12,1.78,.17,1.15,.59,1.6,2.01,1,3.15,0,0,0,0,0,0-.29,.55-.79,.97-1.38,1.15h0l-14.36,4.42c-.23,.08-.46,.12-.7,.13Zm14.35-7.63c-.08-.01-.17-.01-.25,0l-14.35,4.5c-.43,.13-.69,.56-.59,1,.14,.44,.61,.69,1.05,.55l14.35-4.44c.21-.07,.39-.21,.5-.41,.1-.2,.13-.43,.06-.65-.07-.21-.21-.39-.41-.5-.12-.04-.24-.06-.36-.05Z"/>
      <path class="cls-5" d="M200.37,195.93l14.34-4.44c.84-.26,1.74,.21,2,1.05h0c.26,.84-.21,1.74-1.06,2l-14.34,4.44c-.84,.26-1.74-.21-2-1.05h0c-.26-.84,.21-1.74,1.06-2Z"/>
      <path class="cls-2" d="M200.84,199.78c-1.03,0-1.93-.67-2.24-1.65-.18-.6-.12-1.24,.17-1.79,.29-.55,.78-.96,1.38-1.14l14.35-4.45c1.24-.38,2.55,.32,2.93,1.55,.38,1.23-.31,2.54-1.54,2.93h0l-14.35,4.45c-.23,.07-.46,.1-.7,.1Zm14.35-7.63c-.08-.01-.17-.01-.25,0l-14.35,4.44c-.21,.07-.39,.21-.49,.41-.11,.2-.13,.43-.06,.65,.14,.44,.61,.69,1.05,.55l14.35-4.44c.44-.13,.7-.6,.56-1.05,0,0,0,0,0-.01-.07-.21-.21-.39-.41-.49-.13-.05-.26-.07-.4-.06Z"/>
      <path class="cls-5" d="M200.37,202.58l14.34-4.44c.84-.26,1.74,.21,2,1.05h0c.26,.84-.21,1.74-1.06,2l-14.34,4.44c-.84,.26-1.74-.21-2-1.05h0c-.26-.84,.21-1.74,1.06-2Z"/>
      <path class="cls-2" d="M200.84,206.43c-1.29,0-2.34-1.03-2.35-2.31,0-.39,.09-.77,.28-1.12,.28-.56,.78-.97,1.38-1.15l14.35-4.45c.59-.18,1.23-.12,1.78,.17,.56,.28,.97,.78,1.15,1.38,.38,1.23-.3,2.55-1.54,2.93,0,0,0,0,0,0h0l-14.35,4.45c-.23,.07-.46,.1-.7,.1Zm14.35-7.63c-.08-.01-.17-.01-.25,0l-14.35,4.44c-.45,.14-.69,.62-.55,1.07,.07,.21,.21,.39,.41,.49,.2,.1,.43,.12,.64,.06l14.35-4.45c.44-.13,.7-.6,.56-1.05,0,0,0,0,0-.01-.07-.21-.21-.39-.41-.49-.13-.05-.26-.07-.4-.06h0Z"/>
      <path class="cls-5" d="M200.36,209.23l14.34-4.44c.84-.26,1.74,.21,2,1.05h0c.26,.84-.21,1.74-1.06,2l-14.34,4.44c-.84,.26-1.74-.21-2-1.05h0c-.26-.84,.21-1.74,1.06-2Z"/>
      <path class="cls-2" d="M200.85,213.08c-1.29,.01-2.34-1.02-2.36-2.3,0-.39,.09-.78,.28-1.13,.28-.56,.78-.97,1.38-1.15l14.35-4.45c1.24-.38,2.56,.31,2.94,1.55s-.31,2.56-1.55,2.94h0l-14.35,4.46c-.22,.06-.46,.09-.69,.08Zm14.34-7.63c-.08-.01-.17-.01-.25,0l-14.35,4.44c-.45,.12-.73,.58-.61,1.03,0,.03,.01,.05,.02,.08,.13,.44,.6,.7,1.05,.56,0,0,0,0,0,0l14.35-4.45c.45-.12,.71-.58,.59-1.03-.1-.38-.45-.63-.84-.62h.04Z"/>
      <path class="cls-5" d="M242.65,192.31l-14.34-4.44c-.84-.26-1.32-1.16-1.06-2h0c.26-.84,1.16-1.31,2-1.05l14.34,4.44c.84,.26,1.32,1.16,1.06,2h0c-.26,.84-1.16,1.31-2,1.05Z"/>
      <path class="cls-2" d="M243.15,193.13c-.24,0-.47-.03-.7-.1l-14.35-4.45h0c-1.24-.39-1.92-1.71-1.53-2.95,.19-.58,.59-1.07,1.13-1.36,.55-.29,1.19-.35,1.79-.17l14.35,4.45c1.23,.38,1.92,1.69,1.54,2.93,0,0,0,0,0,0-.18,.6-.59,1.09-1.14,1.38-.34,.18-.71,.27-1.09,.27Zm-14.6-6l14.34,4.44c.22,.07,.45,.05,.65-.06,.22-.1,.39-.28,.46-.51,.14-.44-.1-.91-.55-1.06,0,0,0,0-.01,0l-14.34-4.44c-.21-.07-.45-.05-.65,.05-.2,.11-.34,.29-.41,.5-.14,.44,.1,.91,.55,1.06,0,0,0,0,.01,0l-.05,.02Z"/>
      <path class="cls-5" d="M242.35,197.1l-14.41-4.5c-.85-.27-1.32-1.17-1.06-2.01h0c.26-.85,1.17-1.32,2.01-1.05l14.41,4.5c.85,.27,1.32,1.17,1.06,2.01h0c-.26,.85-1.17,1.32-2.01,1.05Z"/>
      <path class="cls-2" d="M243.15,199.78c-.24,0-.47-.03-.7-.1l-14.35-4.45h0c-1.23-.38-1.92-1.69-1.54-2.93,0,0,0,0,0,0,.18-.6,.59-1.09,1.14-1.38,.55-.29,1.19-.36,1.79-.17l14.35,4.45c1.24,.39,1.92,1.71,1.53,2.95-.19,.58-.59,1.07-1.13,1.36-.34,.18-.71,.27-1.09,.27Zm-14.6-6l14.34,4.44c.22,.07,.45,.05,.65-.06,.2-.1,.34-.28,.41-.49,.14-.44-.1-.91-.55-1.06,0,0,0,0-.01,0l-14.34-4.44c-.22-.07-.45-.05-.65,.06-.2,.1-.34,.28-.41,.49-.14,.44,.1,.91,.55,1.06,0,0,0,0,.01,0Z"/>
      <path class="cls-5" d="M242.65,205.62l-14.34-4.44c-.84-.26-1.32-1.16-1.06-2h0c.26-.84,1.16-1.31,2-1.05l14.34,4.44c.84,.26,1.32,1.16,1.06,2h0c-.26,.84-1.16,1.31-2,1.05Z"/>
      <path class="cls-2" d="M243.15,206.43c-.24,0-.47-.03-.7-.1l-14.35-4.45h0c-1.23-.38-1.92-1.69-1.54-2.93,0,0,0,0,0,0,.18-.6,.59-1.09,1.14-1.38,.55-.29,1.19-.35,1.79-.17l14.35,4.45c1.24,.39,1.92,1.71,1.53,2.95-.19,.58-.59,1.07-1.13,1.36-.34,.18-.71,.27-1.09,.27Zm-14.6-6l14.34,4.45c.22,.06,.45,.04,.65-.06,.2-.11,.34-.29,.41-.5,.14-.44-.1-.91-.55-1.06,0,0,0,0-.01,0l-14.34-4.44c-.22-.07-.45-.05-.65,.06-.2,.1-.34,.28-.41,.49-.14,.44,.1,.91,.55,1.06,0,0,0,0,.01,0Z"/>
      <path class="cls-5" d="M242.65,212.27l-14.34-4.44c-.84-.26-1.32-1.16-1.06-2h0c.26-.84,1.16-1.31,2-1.05l14.34,4.44c.84,.26,1.32,1.16,1.06,2h0c-.26,.84-1.16,1.31-2,1.05Z"/>
      <path class="cls-2" d="M243.14,213.08c-.23,0-.47-.03-.69-.1l-14.35-4.44h0c-1.24-.38-1.93-1.7-1.55-2.94s1.7-1.93,2.94-1.55h0l14.35,4.45c1.24,.37,1.94,1.68,1.56,2.92-.3,1-1.22,1.67-2.26,1.66h0Zm-14.59-6l14.34,4.45c.46,.11,.91-.18,1.02-.64,.09-.41-.13-.83-.52-.98l-14.34-4.44c-.44-.14-.92,.11-1.05,.56-.14,.44,.11,.92,.55,1.05h0Z"/>
      <path class="cls-2" d="M223.7,223.06h-18.45c-.27,0-.49-.23-.5-.5,0-.28,.22-.5,.5-.5h18.45c.28,0,.5,.22,.5,.5s-.22,.5-.5,.5Z"/>
      <path class="cls-2" d="M231.23,223.06h-4.45c-.28,0-.5-.22-.5-.5s.22-.5,.5-.5h4.45c.28,0,.5,.22,.5,.5,0,.27-.23,.49-.5,.5Z"/>
      <path class="cls-32" d="M495.76,233.46h-21.88c-.83,0-1.5-.67-1.5-1.5s.67-1.5,1.5-1.5h21.88c.83,0,1.5,.67,1.5,1.5s-.67,1.5-1.5,1.5h0Z"/>
      <path class="cls-32" d="M516.79,233.46h-9.17c-.83,0-1.5-.67-1.5-1.5s.67-1.5,1.5-1.5h9.17c.83,0,1.5,.67,1.5,1.5s-.67,1.5-1.5,1.5Z"/>
      <path class="cls-2" d="M521.36,231h-52.36c-4.48,0-8.11-3.63-8.12-8.11v-88c0-4.48,3.64-8.11,8.12-8.12h4.62c.76,0,1.37,.61,1.37,1.37,0,.76-.61,1.37-1.37,1.37h-4.62c-2.97,0-5.38,2.41-5.38,5.38h0v88c0,2.97,2.41,5.37,5.38,5.38h52.41c2.97,0,5.37-2.41,5.38-5.38v-88c0-2.97-2.41-5.38-5.38-5.38h-39.76c-.76,0-1.37-.62-1.37-1.37,0-.76,.61-1.37,1.37-1.37h39.71c4.48,0,8.11,3.64,8.12,8.12v88c0,4.48-3.64,8.11-8.12,8.11Z"/>
      <g class="cls-35">
        <path class="cls-3" d="M364.88,100.67v10.77h-2.99v-10.77h2.99Zm-1.08,0h2.32c.99,0,1.8,.15,2.44,.46s1.12,.73,1.43,1.27c.31,.54,.47,1.16,.47,1.87s-.16,1.32-.47,1.87c-.31,.55-.79,.97-1.43,1.28s-1.45,.45-2.44,.45h-2.32v-2.26h2.08c.32,0,.58-.05,.8-.14,.21-.09,.38-.23,.5-.42,.12-.18,.18-.41,.18-.66s-.06-.47-.18-.65c-.12-.18-.29-.32-.5-.41-.22-.09-.48-.14-.8-.14h-2.08v-2.52Zm4.08,6.02l3.23,4.76h-3.48l-2.83-4.76h3.08Z"/>
        <path class="cls-3" d="M375.12,100.67v10.77h-2.86v-10.77h2.86Zm-.83,0h5.43v2.42h-5.43v-2.42Zm0,4h5.12v2.34h-5.12v-2.34Zm0,4.36h5.43v2.42h-5.43v-2.42Z"/>
        <path class="cls-3" d="M384.85,107.6c.27,.43,.63,.75,1.08,.97s.95,.33,1.49,.33c.51,0,.96-.07,1.34-.2,.38-.13,.72-.31,1.02-.52,.3-.21,.56-.43,.79-.67v3.14c-.42,.31-.89,.56-1.39,.76s-1.16,.3-1.95,.3c-.89,0-1.71-.13-2.46-.4s-1.39-.65-1.92-1.15-.95-1.1-1.24-1.79c-.29-.69-.44-1.46-.44-2.32s.15-1.62,.44-2.32c.29-.69,.71-1.29,1.24-1.79,.53-.5,1.17-.89,1.92-1.15,.75-.27,1.57-.4,2.46-.4,.79,0,1.44,.1,1.95,.29,.51,.2,.97,.45,1.39,.77v3.14c-.23-.24-.49-.46-.79-.67-.3-.21-.64-.38-1.02-.52-.38-.13-.83-.2-1.34-.2-.54,0-1.04,.11-1.49,.33s-.81,.54-1.08,.97c-.27,.43-.41,.94-.41,1.55s.14,1.12,.41,1.55Z"/>
      </g>
      <circle class="cls-3" cx="355.15" cy="106.3" r="2.44"/>
    </g>
  </g>
</svg>