<?xml version="1.0" encoding="UTF-8"?>
<svg id="Layer_2" data-name="Layer 2" xmlns="http://www.w3.org/2000/svg" viewBox="0 0 499.85 352.73">
  <defs>
    <style>
      .cls-1 {
        fill: #f49519;
      }

      .cls-2, .cls-3 {
        fill: #fff;
      }

      .cls-4 {
        fill: #ffe652;
      }

      .cls-5 {
        fill: #fcba59;
      }

      .cls-6 {
        fill: #c0ecff;
      }

      .cls-7 {
        fill: #8da4b7;
      }

      .cls-8 {
        fill: #332d28;
      }

      .cls-9 {
        fill: #303331;
      }

      .cls-10 {
        fill: #cbd1d7;
      }

      .cls-11 {
        fill: #35626d;
      }

      .cls-12 {
        fill: #93cee2;
      }

      .cls-13 {
        fill: #88e0ff;
      }

      .cls-14 {
        fill: #6d6d6d;
      }

      .cls-15 {
        fill: #61dafb;
      }

      .cls-16 {
        fill: #295860;
      }

      .cls-17 {
        fill: #477481;
      }

      .cls-18 {
        fill: #5c8e99;
      }

      .cls-19 {
        fill: #545655;
      }

      .cls-20 {
        fill: #4cc5e5;
      }

      .cls-3 {
        opacity: .65;
      }

      .cls-3, .cls-21 {
        isolation: isolate;
      }

      .cls-21 {
        opacity: .5;
      }
    </style>
  </defs>
  <g id="Layer_1-2" data-name="Layer 1">
    <g id="Layer_2-2" data-name="Layer 2">
      <g id="Layer_1-2" data-name="Layer 1-2">
        <rect class="cls-10" x="186.57" y="224.25" width="34.56" height="18.18" transform="translate(-103.51 194.24) rotate(-41.61)"/>
        <path class="cls-7" d="M208.31,239.98c-.44,0-.86-.19-1.16-.5-.61-.61-.62-1.6,0-2.22,0,0,0,0,0,0l9.18-8.27c.67-.54,1.66-.43,2.2,.24,.5,.62,.45,1.51-.1,2.08l-9.18,8.27c-.25,.25-.59,.39-.94,.41Z"/>
        <path class="cls-7" d="M208.12,240.89c-.75,.01-1.4-.52-1.54-1.25-.73-4.91-4.28-8.92-9.06-10.25-.82-.2-1.34-1.02-1.16-1.85,.17-.83,.98-1.37,1.81-1.2,.01,0,.03,0,.04,0,5.93,1.58,10.39,6.48,11.41,12.53,.15,.85-.4,1.68-1.25,1.85l-.25,.16Z"/>
        <path class="cls-8" d="M197.22,252.42c-.39,0-.75-.17-1-.47l-12.16-13.76c-.22-.28-.34-.62-.34-.97,.03-.36,.2-.7,.47-.94l12.82-11.41c.52-.53,1.38-.53,1.91,0,0,0,0,0,0,0,.51,.53,.51,1.38,0,1.91l-11.85,10.5,10.37,11.66,23.82-21.15-9.97-11.25-7.55,6.27c-.57,.48-1.43,.41-1.91-.16s-.41-1.43,.16-1.91h0l8.59-7.27c.51-.52,1.34-.53,1.86-.02,0,0,.01,.01,.02,.02l11.72,13.26c.51,.52,.51,1.36,0,1.88l-25.85,22.97c-.2,.45-.61,.77-1.1,.85Z"/>
        <path class="cls-19" d="M225.48,230.45l-13.29-2.95c-.88-.22-1.67-.69-2.29-1.35-.73-.56-1.28-1.31-1.6-2.16l-4.2-12.97c-.97-3.09-.24-6.46,1.91-8.87l8.34-9.15c1.78-1.96,4.82-2.11,6.78-.33,1.96,1.78,2.11,4.82,.33,6.78h0l-8.12,8.93,3.35,10.28,10.53,2.32,8.12-8.9c1.78-1.96,4.82-2.11,6.78-.33,1.96,1.78,2.11,4.82,.33,6.78h0l-8.34,9.15c-2.18,2.41-5.48,3.46-8.65,2.76Z"/>
        <polygon class="cls-10" points="94.78 340.44 64.26 340.44 57.99 280.4 101.05 280.4 94.78 340.44"/>
        <rect class="cls-7" x="58.8" y="281.97" width="40.61" height="14.16"/>
        <path class="cls-8" d="M62.38,323.77c-.7,0-1.28-.53-1.35-1.22l-2.07-19.65c-.07-.74,.47-1.4,1.21-1.47,0,0,0,0,.01,0,.72-.09,1.38,.42,1.47,1.14,0,.02,0,.03,0,.05l2.04,19.65c.11,.7-.38,1.36-1.08,1.46-.04,0-.07,0-.11,.01l-.13,.03Z"/>
        <path class="cls-8" d="M94.78,341.79h-30.52c-.69,0-1.27-.51-1.35-1.19l-1.16-11.06c-.08-.74,.46-1.41,1.21-1.49s1.41,.46,1.49,1.21h0l1.03,9.84h28.2l5.99-57.31H59.65l1.5,14.45c.09,.74-.43,1.41-1.17,1.5-.11,.01-.22,.01-.33,0-.72,.09-1.38-.42-1.47-1.14,0-.02,0-.03,0-.05l-1.66-15.98c-.07-.76,.49-1.43,1.25-1.5,.03,0,.07,0,.1,0h43.18c.76,.01,1.37,.64,1.35,1.4,0,.03,0,.07,0,.1l-6.27,60.04c-.08,.68-.66,1.2-1.35,1.19Z"/>
        <circle class="cls-8" cx="91.46" cy="329.57" r="1.16"/>
        <polygon class="cls-19" points="99.89 351.38 59.15 351.38 62.28 337.25 96.75 337.25 99.89 351.38"/>
        <polygon class="cls-14" points="70.71 337.25 67.58 351.41 59.15 351.41 62.28 337.25 70.71 337.25"/>
        <polygon class="cls-9" points="99.64 351.41 91.21 351.41 88.07 337.25 96.5 337.25 99.64 351.41"/>
        <path class="cls-8" d="M99.89,352.73H59.15c-.41,.02-.79-.17-1.03-.5-.25-.32-.35-.73-.28-1.13l3.13-14.16c.16-.6,.69-1.03,1.32-1.03h13.35c.74,0,1.35,.6,1.35,1.35h0c-.02,.74-.61,1.33-1.35,1.35h-12.25l-2.54,11.44h37.35l-2.54-11.56h-13.73c-.74,0-1.35-.6-1.35-1.35h0c0-.74,.6-1.35,1.35-1.35h14.82c.62,0,1.16,.43,1.32,1.03l3.13,14.16c.07,.4-.03,.81-.28,1.13-.21,.38-.6,.61-1.03,.63Z"/>
        <polygon class="cls-10" points="145.42 340.44 114.9 340.44 108.63 280.4 151.69 280.4 145.42 340.44"/>
        <rect class="cls-7" x="109.44" y="281.97" width="40.61" height="14.16"/>
        <path class="cls-8" d="M112.92,323.77c-.7,0-1.28-.53-1.35-1.22l-1.79-19.65c-.11-.7,.38-1.36,1.08-1.46,.04,0,.07,0,.11-.01,.72-.09,1.38,.42,1.47,1.14,0,.02,0,.03,0,.05l2.07,19.65c.07,.74-.47,1.4-1.21,1.47,0,0,0,0-.01,0l-.38,.03Z"/>
        <path class="cls-8" d="M145.42,341.79h-30.52c-.69,0-1.27-.51-1.35-1.19l-1.16-11.06c-.08-.74,.46-1.41,1.21-1.49s1.41,.46,1.49,1.21h0l.97,9.84h28.2l5.95-57.31h-40.08l1.5,14.45c.08,.74-.46,1.41-1.21,1.49s-1.41-.46-1.49-1.21l-1.66-15.95c-.07-.76,.49-1.43,1.25-1.5,.03,0,.07,0,.1,0h43.06c.39,0,.75,.17,1,.47,.25,.28,.38,.66,.34,1.03l-6.27,60.04c-.08,.68-.66,1.2-1.35,1.19Z"/>
        <polygon class="cls-19" points="150.53 351.38 109.82 351.38 112.95 337.25 147.39 337.25 150.53 351.38"/>
        <polygon class="cls-14" points="121.38 337.25 118.25 351.41 109.82 351.41 112.95 337.25 121.38 337.25"/>
        <polygon class="cls-9" points="150.28 351.41 141.85 351.41 138.71 337.25 147.14 337.25 150.28 351.41"/>
        <path class="cls-8" d="M150.53,352.73h-40.74c-.41,.02-.79-.17-1.03-.5-.25-.32-.35-.73-.28-1.13l3.13-14.16c.16-.6,.69-1.03,1.32-1.03h13.35c.74,0,1.35,.6,1.35,1.35h0c0,.74-.6,1.35-1.35,1.35h-12.25l-2.54,11.44h37.35l-2.54-11.56h-13.73c-.74,0-1.35-.6-1.35-1.35h0c0-.74,.6-1.35,1.35-1.35h14.82c.62,0,1.16,.43,1.32,1.03l3.13,14.16c.09,.4-.02,.82-.28,1.13-.21,.38-.6,.61-1.03,.63Z"/>
        <path class="cls-8" d="M105.75,42.37c-.32,0-.63-.14-.85-.38-.45-.46-.45-1.2,0-1.66l4.01-3.82-9.09-29.36c-.23-.62,.08-1.32,.71-1.55,.62-.23,1.32,.08,1.55,.71h0l9.4,30.08c.12,.43,0,.9-.31,1.22l-4.51,4.45c-.25,.22-.58,.33-.91,.31Z"/>
        <path class="cls-8" d="M105.4,80.03c-.48,0-.92-.3-1.1-.75l-10.59-27.42c-.18-.45-.07-.96,.28-1.28l7.18-6.67c.45-.46,1.18-.47,1.64-.02,0,0,.01,.01,.02,.02,.45,.46,.45,1.2,0,1.66l-6.61,6.27,10.44,26.54c.23,.6-.07,1.27-.67,1.5,0,0-.01,0-.02,0-.17,.11-.36,.16-.56,.16Z"/>
        <path class="cls-5" d="M182.36,138.88h-4.92v-40.74h4.92c3.88,0,7.02,3.14,7.02,7.02h0v26.7c0,3.88-3.14,7.02-7.02,7.02Z"/>
        <path class="cls-1" d="M176.35,138.88h-4.92v-40.74h4.92c3.88,0,7.02,3.14,7.02,7.02h0v26.7c0,3.88-3.14,7.02-7.02,7.02h0Z"/>
        <path class="cls-8" d="M182.4,140.11h-4.95c-.69,0-1.25-.56-1.25-1.25h0v-40.74c0-.69,.56-1.25,1.25-1.25h4.95c4.56,.02,8.24,3.72,8.24,8.27v26.76c-.02,4.54-3.7,8.21-8.24,8.21Zm-3.67-2.48h3.7c3.16-.03,5.7-2.61,5.7-5.77v-26.76c0-3.17-2.56-5.75-5.73-5.77h-3.67v38.29Z"/>
        <path class="cls-8" d="M182.11,108.08c-.69,0-1.25-.56-1.25-1.25h0v-7.61c0-.69,.56-1.25,1.26-1.25,.69,0,1.25,.56,1.25,1.25v7.61c0,.69-.56,1.25-1.25,1.25Z"/>
        <rect class="cls-10" x="173.64" y="206.93" width="18.14" height="30.08" transform="translate(-77.14 98.96) rotate(-25.21)"/>
        <path class="cls-7" d="M176.13,227.1c5.01-11.66,12.72-13.29,12.72-13.29l-4.36-9.4-15.36,7.4s5.26,19.33,6.99,15.29Z"/>
        <path class="cls-8" d="M180.89,240.79c-.52-.02-.99-.32-1.22-.78l-12.82-27.2c-.31-.68-.02-1.49,.66-1.82l16.39-7.71c.68-.31,1.49-.02,1.82,.66l12.82,27.2c.12,.33,.12,.7,0,1.03-.12,.33-.37,.6-.69,.75l-16.42,7.74c-.17,.08-.35,.12-.53,.13Zm-11.03-27.92l11.66,24.79,13.98-6.58-11.66-24.79-13.98,6.58Z"/>
        <circle class="cls-14" cx="167.51" cy="194.32" r="19.46"/>
        <circle class="cls-19" cx="162.65" cy="197.64" r="19.46"/>
        <path class="cls-8" d="M167.51,215.16c-11.51,0-20.84-9.33-20.84-20.84s9.33-20.84,20.84-20.84,20.84,9.33,20.84,20.84-9.33,20.84-20.84,20.84h0Zm0-38.95c-10,0-18.11,8.11-18.11,18.11,0,10,8.11,18.11,18.11,18.11,10,0,18.11-8.11,18.11-18.11-.03-9.99-8.12-18.08-18.11-18.11Z"/>
        <circle class="cls-19" cx="192.58" cy="241.95" r="13.07"/>
        <path class="cls-21" d="M192.58,250.32c-4.62,0-8.37-3.75-8.37-8.37s3.75-8.37,8.37-8.37c4.62,0,8.37,3.75,8.37,8.37h0c0,4.62-3.75,8.37-8.37,8.37Zm0-13.57c-2.89,0-5.23,2.34-5.23,5.23s2.34,5.23,5.23,5.23c2.89,0,5.23-2.34,5.23-5.23,0-.01,0-.02,0-.03,0-2.87-2.33-5.2-5.2-5.2-.01,0-.02,0-.03,0Z"/>
        <path class="cls-8" d="M188.51,224.97c-.44,0-.85-.25-1.03-.66l-5.61-11.19c-.3-.55-.09-1.23,.46-1.53,.03-.01,.05-.03,.08-.04,.57-.29,1.27-.06,1.56,.51,0,0,0,.01,0,.02l5.61,11.19c.28,.59,.04,1.29-.53,1.6-.17,.06-.35,.1-.53,.09Z"/>
        <path class="cls-8" d="M192.58,256.37c-7.96,.03-14.44-6.39-14.48-14.35-.03-7.96,6.39-14.44,14.35-14.48,7.96-.03,14.44,6.39,14.48,14.35,0,.02,0,.04,0,.06-.02,7.93-6.42,14.36-14.35,14.41Zm0-26.13c-6.47,0-11.72,5.25-11.72,11.72s5.25,11.72,11.72,11.72c6.47,0,11.72-5.25,11.72-11.72h0c-.02-6.47-5.25-11.7-11.72-11.72Z"/>
        <rect class="cls-10" x="11.72" y="237.35" width="18.18" height="34.56" transform="translate(-27.03 3.67) rotate(-6.12)"/>
        <path class="cls-7" d="M28.75,267.74c-.81,0-1.49-.61-1.57-1.41l-1.22-12.28c-.09-.87,.54-1.64,1.41-1.72,.87-.09,1.64,.54,1.72,1.41l1.19,12.28c.09,.84-.52,1.6-1.36,1.69,0,0-.01,0-.02,0l-.16,.03Z"/>
        <path class="cls-7" d="M19.1,257.78c-2.49,.02-4.94-.57-7.14-1.72-.75-.4-1.03-1.33-.63-2.08,.02-.04,.04-.08,.07-.12,.42-.75,1.38-1.02,2.13-.6,4.42,2.21,9.71,1.62,13.54-1.5,.7-.5,1.67-.36,2.19,.31,.52,.69,.38,1.67-.31,2.19-2.79,2.24-6.26,3.48-9.84,3.51Z"/>
        <rect class="cls-10" x="13.93" y="212.47" width="30.08" height="18.14" transform="translate(-183.81 153.39) rotate(-64.79)"/>
        <path class="cls-7" d="M37.31,228.23c-2.66-6.69-7.87-12.05-14.48-14.92l4.32-9.21,16.42,7.71s-4.54,20.46-6.27,16.42Z"/>
        <path class="cls-8" d="M30.76,240.38c-.19,.03-.38,.03-.56,0l-16.42-7.87c-.66-.32-.95-1.11-.66-1.79l3.76-7.96c.32-.67,1.13-.96,1.8-.64,.67,.32,.96,1.13,.64,1.8h0l-3.13,6.74,13.94,6.58,11.69-24.79-13.98-6.58-5.8,12.44c-.28,.69-1.07,1.02-1.76,.74-.69-.28-1.02-1.07-.74-1.76,.02-.04,.03-.08,.05-.11l6.42-13.69c.16-.32,.44-.57,.78-.69,.33-.14,.7-.14,1.03,0l16.39,7.71c.68,.32,.97,1.13,.66,1.82l-12.82,27.2c-.21,.54-.74,.88-1.32,.85Z"/>
        <rect class="cls-19" x="76.82" y="167.46" width="58.41" height="7.08"/>
        <rect class="cls-19" x="76.82" y="174.55" width="58.41" height="7.08"/>
        <rect class="cls-9" x="76.82" y="157.53" width="58.41" height="7.08"/>
        <rect class="cls-9" x="76.82" y="164.61" width="58.41" height="7.08"/>
        <rect class="cls-9" x="113.42" y="168.94" width="21.75" height="13.29"/>
        <path class="cls-5" d="M29.72,98.08h4.86v40.74h-4.86c-3.88,0-7.02-3.14-7.02-7.02h0v-26.7c0-3.88,3.14-7.02,7.02-7.02Z"/>
        <path class="cls-1" d="M35.18,98.08h4.92v40.74h-4.92c-3.88,0-7.02-3.14-7.02-7.02h0v-26.7c0-3.88,3.14-7.02,7.02-7.02Z"/>
        <rect class="cls-19" x="34.64" y="70.07" width="142.74" height="96.67" rx="15.14" ry="15.14"/>
        <path class="cls-9" d="M176.19,85.24v66.37c0,8.36-6.77,15.15-15.14,15.17h-12.53c8.36-.02,15.14-6.8,15.14-15.17V85.24c0-8.36-6.77-15.15-15.14-15.17h12.53c8.36,.02,15.14,6.8,15.14,15.17Z"/>
        <path class="cls-14" d="M35.43,85.24v66.37c0,8.36,6.77,15.15,15.14,15.17h12.38c-8.36-.02-15.14-6.8-15.14-15.17V85.24c0-8.36,6.77-15.15,15.14-15.17h-12.38c-8.36,.02-15.14,6.8-15.14,15.17Z"/>
        <circle class="cls-14" cx="44.14" cy="193.91" r="19.46"/>
        <circle class="cls-19" cx="49" cy="197.23" r="19.46"/>
        <path class="cls-8" d="M13.93,274.7c-.65-.02-1.19-.51-1.28-1.16l-1.44-11.19c-.09-.73,.43-1.41,1.16-1.5,.73-.06,1.39,.44,1.54,1.16l1.25,9.87,14.95-1.63-3.48-31.68-15.67,1.66,1.69,15.67c0,.74-.61,1.34-1.35,1.34-.63,0-1.17-.44-1.31-1.06l-1.85-17.08c-.03-.74,.54-1.37,1.28-1.41,.03,0,.06,0,.1,0l18.18-1.97c.36-.02,.72,.09,1,.31,.28,.22,.45,.55,.47,.91l3.7,34.47c.07,.74-.45,1.41-1.19,1.5l-17.61,1.91-.13-.13Z"/>
        <path class="cls-8" d="M44.14,214.72c-11.5,0-20.82-9.31-20.84-20.81,0-2.38,.41-4.75,1.22-6.99,.25-.7,1.02-1.07,1.72-.81,.7,.25,1.07,1.02,.81,1.72h0c-3.38,9.41,1.5,19.79,10.92,23.17,9.41,3.38,19.79-1.5,23.17-10.92,3.38-9.41-1.5-19.79-10.92-23.17-6.9-2.48-14.61-.56-19.54,4.87-.54,.51-1.39,.49-1.91-.05-.45-.48-.5-1.21-.1-1.74,7.7-8.53,20.86-9.2,29.39-1.5,8.53,7.7,9.2,20.86,1.5,29.39-3.94,4.37-9.55,6.86-15.44,6.86v-.03Z"/>
        <path class="cls-19" d="M159.14,287.7H52.88c-5.05,0-9.3-3.77-9.93-8.77l-8.37-82.17c0-8.36,6.77-15.15,15.14-15.17h112.53c8.36,.02,15.14,6.8,15.14,15.17l-8.3,82.17c-.63,5.01-4.89,8.77-9.93,8.77Z"/>
        <path class="cls-9" d="M177.85,195.89l-8.3,82.17c-.65,5.01-4.91,8.77-9.97,8.77h-12.82c5.08,.04,9.39-3.73,10.03-8.77l8.21-82.17c0-8.36-6.77-15.15-15.14-15.17h12.82c8.38,0,15.17,6.79,15.17,15.17Z"/>
        <path class="cls-14" d="M34.83,195.89l8.3,82.17c.65,5.01,4.91,8.77,9.97,8.77h12.82c-5.05,0-9.3-3.77-9.93-8.77l-8.3-82.17c0-8.35,6.75-15.13,15.1-15.17h-12.79c-8.38,0-15.17,6.79-15.17,15.17Z"/>
        <path class="cls-8" d="M159.14,289.05H52.88c-5.73-.02-10.56-4.28-11.28-9.97l-1.85-18.43c-.08-.7,.4-1.35,1.1-1.47,.72-.09,1.38,.43,1.47,1.15,0,.02,0,.05,0,.08l1.97,18.52c.54,4.33,4.22,7.59,8.59,7.58h106.26c4.38-.01,8.07-3.27,8.62-7.61l8.27-82.13c-.07-7.57-6.22-13.66-13.79-13.66H49.78c-7.62,.02-13.79,6.2-13.79,13.82l5.67,56.12c.07,.73-.46,1.39-1.19,1.47-.74,.07-1.4-.47-1.47-1.21,0,0,0,0,0-.01l-5.7-56.41c-.05-9.14,7.31-16.59,16.45-16.64,.01,0,.02,0,.03,0h112.47c9.11,.02,16.48,7.41,16.48,16.51l-8.3,82.17c-.65,5.75-5.5,10.1-11.28,10.12Z"/>
        <path class="cls-6" d="M148.61,277.17H63.44c-4.07,.01-7.5-3.02-7.99-7.05l-6.64-65.81c0-6.7,5.42-12.14,12.13-12.16h90.16c6.7,.02,12.13,5.46,12.13,12.16l-6.64,65.81c-.49,4.02-3.91,7.05-7.96,7.05Z"/>
        <path class="cls-3" d="M78.92,277.17h-15.48c-4.05,.02-7.48-3-7.99-7.02l-6.64-65.81c0-6.7,5.42-12.14,12.13-12.16h15.48c-6.7,.02-12.13,5.46-12.13,12.16l6.64,65.81c.51,4.02,3.94,7.04,7.99,7.02Z"/>
        <path class="cls-12" d="M134.2,277.17h15.48c4.05,.02,7.48-3,7.99-7.02l6.64-65.81c0-6.7-5.42-12.14-12.13-12.16h-15.48c6.7,.02,12.13,5.46,12.13,12.16l-6.64,65.81c-.51,4.02-3.94,7.04-7.99,7.02Z"/>
        <rect class="cls-6" x="44.48" y="80.88" width="123.09" height="74.46" rx="10.22" ry="10.22"/>
        <path class="cls-8" d="M22.7,126.63c-.71,0-1.3-.55-1.35-1.25v-12.22c0-.74,.6-1.35,1.35-1.35h0c.74,0,1.35,.6,1.35,1.35h0v12.22c-.05,.71-.64,1.26-1.35,1.25Z"/>
        <path class="cls-8" d="M34.58,140.11h-4.86c-4.56,0-8.26-3.68-8.27-8.24,0-.69,.56-1.25,1.25-1.25s1.25,.56,1.25,1.25c0,3.18,2.58,5.77,5.77,5.77h3.67v-38.29h-3.67c-3.18,0-5.77,2.58-5.77,5.77,0,.69-.56,1.25-1.25,1.25s-1.25-.56-1.25-1.25c0-4.57,3.7-8.27,8.27-8.27h4.86c.69,0,1.25,.56,1.25,1.25v40.74c.02,.69-.53,1.27-1.22,1.28-.01,0-.02,0-.03,0Z"/>
        <path class="cls-8" d="M135.2,175.89h-58.38c-.74,0-1.35-.6-1.35-1.35h0v-7.08c0-.74,.6-1.35,1.35-1.35h58.38c.74,0,1.35,.6,1.35,1.35h0v7.08c0,.74-.6,1.35-1.35,1.35h0Zm-57.03-2.69h55.69v-4.39h-55.69v4.39Z"/>
        <path class="cls-8" d="M135.2,182.98h-58.38c-.74,0-1.35-.6-1.35-1.35h0v-7.08c0-.74,.6-1.35,1.35-1.35h14.6c.74,0,1.35,.6,1.35,1.35s-.6,1.35-1.35,1.35h-13.26v4.39h55.69v-4.39h-35.35c-.74,0-1.35-.6-1.35-1.35s.6-1.35,1.35-1.35h36.7c.74,0,1.35,.6,1.35,1.35h0v7.24c-.08,.68-.66,1.2-1.35,1.19Z"/>
        <circle class="cls-19" cx="19.07" cy="241.54" r="13.07"/>
        <path class="cls-21" d="M19.07,249.91c-4.62,.02-8.38-3.71-8.4-8.34-.02-4.62,3.71-8.38,8.34-8.4s8.38,3.71,8.4,8.34c0,.01,0,.02,0,.03-.02,4.6-3.73,8.33-8.34,8.37Zm0-13.57c-2.89-.02-5.25,2.31-5.26,5.2-.02,2.89,2.31,5.25,5.2,5.26,2.89,.02,5.25-2.31,5.26-5.2,0-.02,0-.04,0-.06,0-2.87-2.33-5.2-5.2-5.2Z"/>
        <path class="cls-19" d="M34.89,271.35l-11.85-6.77c-.79-.44-1.7-.62-2.6-.53-.9-.09-1.81,.1-2.6,.53l-11.85,6.77c-2.81,1.61-4.54,4.6-4.54,7.83v12.53c-.13,2.66,1.92,4.93,4.58,5.06,2.66,.13,4.93-1.92,5.06-4.58,.01-.25,0-.49-.02-.74v-11.94l9.4-5.36,9.4,5.36v11.94c-.21,2.66,1.77,4.98,4.42,5.2,2.66,.21,4.98-1.77,5.2-4.42,.02-.26,.02-.52,0-.78v-12.53c-.11-3.16-1.85-6.03-4.61-7.58Z"/>
        <path class="cls-8" d="M34.58,297.95c-3.46,0-6.27-2.81-6.27-6.27v-11.16l-7.87-4.73-8.02,4.73v11.25c.64,3.4-1.59,6.68-4.99,7.33-3.4,.64-6.68-1.59-7.33-4.99-.15-.77-.15-1.56,0-2.33v-12.38c.01-3.71,1.99-7.13,5.2-8.99l11.85-6.77c1.02-.57,2.19-.82,3.35-.72,1.09-.07,2.18,.18,3.13,.72l11.81,6.77h0c3.29,1.81,5.35,5.24,5.39,8.99v12.38c-.05,3.42-2.84,6.17-6.27,6.17Zm-14.13-24.91c.22-.06,.44-.06,.66,0l9.4,5.36c.41,.25,.66,.71,.66,1.19v12.19c-.18,1.91,1.22,3.61,3.13,3.79,1.91,.18,3.61-1.22,3.79-3.13,.02-.22,.02-.44,0-.66v-12.38c0-2.78-1.48-5.35-3.89-6.74l-11.81-6.67c-.57-.32-1.23-.45-1.88-.38-.69-.08-1.38,.04-2.01,.34l-11.85,6.71c-2.4,1.39-3.87,3.96-3.85,6.74v12.38c-.18,1.91,1.22,3.61,3.13,3.79s3.61-1.22,3.79-3.13c.02-.22,.02-.44,0-.66v-12.03c0-.49,.24-.94,.66-1.19l9.4-5.36c.2-.11,.43-.17,.66-.16Z"/>
        <polygon class="cls-3" points="88.51 155.68 67.67 155.68 101.55 81.51 122.39 81.51 88.51 155.68"/>
        <polygon class="cls-3" points="148.18 155.68 92.9 155.68 126.77 81.51 147.61 81.51 148.18 155.68"/>
        <path class="cls-8" d="M156.14,150.82h-22.84c-.74,0-1.35-.6-1.35-1.35s.6-1.35,1.35-1.35h22.84c.74,0,1.35,.6,1.35,1.35s-.6,1.35-1.35,1.35Z"/>
        <path class="cls-8" d="M128.87,150.82h-5.7c-.74,0-1.35-.6-1.35-1.35s.6-1.35,1.35-1.35h5.7c.74,0,1.35,.6,1.35,1.35s-.6,1.35-1.35,1.35Z"/>
        <path class="cls-8" d="M147.02,272.16h-19.12c-.64,.02-1.17-.49-1.19-1.13,0-.01,0-.02,0-.03,0-.66,.53-1.19,1.19-1.19h19.12c.65,.02,1.16,.55,1.16,1.19,0,.64-.52,1.16-1.16,1.16h0Z"/>
        <path class="cls-8" d="M45.11,246.81c-.69,0-1.27-.51-1.35-1.19l-3.13-26.76c-.06-.74,.46-1.39,1.19-1.5,.74-.07,1.41,.45,1.5,1.19l3.13,26.76c.09,.74-.43,1.41-1.17,1.5,0,0-.01,0-.02,0h-.16Z"/>
        <path class="cls-8" d="M8.38,277.02c-.74-.02-1.33-.63-1.32-1.38,0-.47,.26-.89,.66-1.13l10.28-5.99c.65-.36,1.47-.14,1.85,.5,.37,.64,.15,1.47-.49,1.84,0,0,0,0-.01,0l-10.28,5.95c-.21,.12-.45,.19-.69,.19Z"/>
        <path class="cls-8" d="M23.14,224.72c-.2,.05-.4,.05-.6,0-.66-.3-.95-1.09-.65-1.75,0-.01,.01-.03,.02-.04l5.61-11.38c.33-.67,1.14-.93,1.81-.6,0,0,0,0,0,0,.65,.32,.93,1.1,.61,1.76,0,0,0,.02-.01,.03l-5.61,11.22c-.22,.45-.68,.75-1.19,.75Z"/>
        <path class="cls-8" d="M19.07,255.96c-7.96,0-14.41-6.45-14.41-14.41,0-7.96,6.45-14.41,14.41-14.41s14.41,6.45,14.41,14.41h0c0,7.96-6.45,14.41-14.41,14.41Zm0-26.13c-6.47,0-11.72,5.25-11.72,11.72s5.25,11.72,11.72,11.72,11.72-5.25,11.72-11.72h0c0-6.47-5.25-11.72-11.72-11.72Z"/>
        <circle class="cls-2" cx="105.28" cy="232.64" r="30.08" transform="translate(-134.25 321.16) rotate(-85.93)"/>
        <path class="cls-8" d="M105.28,263.92c-17.31,0-31.34-14.03-31.34-31.34s14.03-31.34,31.34-31.34,31.34,14.03,31.34,31.34-14.03,31.34-31.34,31.34Zm0-60.17c-15.97,0-28.92,12.95-28.92,28.92,0,15.97,12.95,28.92,28.92,28.92s28.92-12.95,28.92-28.92c0-.01,0-.02,0-.03-.02-15.97-12.96-28.91-28.92-28.92v.03Z"/>
        <path class="cls-15" d="M126.02,232.64c0-2.85-3.13-5.36-8.74-6.93,1.44-5.58,.85-9.4-1.63-11s-6.27,0-10.37,4.07c-4.07-3.95-7.93-5.48-10.37-4.07s-3.13,5.42-1.63,11c-5.58,1.57-8.74,4.07-8.74,6.93s3.13,5.36,8.74,6.93c-1.44,5.58-.85,9.4,1.63,11,.64,.37,1.36,.55,2.1,.53,3.22-.49,6.16-2.12,8.27-4.61,2.11,2.48,5.05,4.12,8.27,4.61,.74,.02,1.46-.17,2.1-.53,2.48-1.44,3.13-5.42,1.63-11,5.58-1.57,8.74-4.04,8.74-6.93Zm-20.74,11.34c-.89-.95-1.72-1.94-2.51-2.98h5.01c-.78,1.03-1.62,2.03-2.51,2.98Zm0-22.69c.89,1,1.73,2.05,2.51,3.13-1.67-.09-3.34-.09-5.01,0,.78-1.09,1.62-2.13,2.51-3.13Zm-3.79,17.92c-1.43-2.09-2.7-4.29-3.79-6.58,1.09-2.28,2.35-4.47,3.79-6.55,2.52-.19,5.06-.19,7.58,0,1.46,2.08,2.75,4.27,3.85,6.55-1.09,2.29-2.36,4.49-3.79,6.58-2.55,.19-5.1,.19-7.65,0Zm-3.54-10.81l-1.19,2.22c-.5-1.23-.94-2.45-1.32-3.67,1.25-.28,2.54-.5,3.82-.66l-1.32,2.1Zm-1.19,6.27l1.19,2.19,1.32,2.13c-1.35-.19-2.63-.41-3.82-.69,.38-1.22,.81-2.44,1.32-3.64h0Zm17.05,0c.5,1.19,.94,2.41,1.32,3.64-1.25,.28-2.54,.5-3.82,.69,.91-1.41,1.63-2.85,2.51-4.32h0Zm0-4.04c-.76-1.48-1.6-2.93-2.51-4.32,1.28,.16,2.57,.38,3.82,.66-.38,1.21-.81,2.43-1.32,3.67h0Zm.97-14.41c1.72,.97,2.04,4.42,.85,9.06-1.84-.39-3.7-.67-5.58-.85h0c-1.04-1.53-2.17-2.99-3.38-4.39,3.13-3.29,6.42-4.83,8.12-3.79v-.03Zm-18.99,0c.37-.22,.79-.33,1.22-.31,2.76,.52,5.25,1.98,7.05,4.14-1.31,1.39-2.53,2.85-3.67,4.39-1.88,.16-3.74,.44-5.58,.85-1.07-4.64-.69-8.08,.97-9.02v-.03Zm-9.4,16.42c0-1.97,2.82-3.95,7.43-5.26,.56,1.8,1.26,3.56,2.07,5.26h0c-.79,1.71-1.49,3.47-2.07,5.26-4.7-1.28-7.52-3.29-7.52-5.26h.09Zm9.4,16.42c-1.72-.97-2.04-4.42-.85-9.06,1.84,.41,3.7,.69,5.58,.85h0c1.09,1.54,2.28,3.02,3.54,4.42-3.35,3.29-6.58,4.76-8.27,3.79Zm18.99,0c-.37,.22-.79,.33-1.22,.31h0c-2.7-.55-5.13-2-6.89-4.11,1.27-1.4,2.45-2.88,3.54-4.42h0c1.88-.16,3.74-.44,5.58-.85,1.03,4.64,.72,8.08-1,9.06Zm2.04-11.16c-.54-1.8-1.22-3.56-2.04-5.26h0c.82-1.7,1.5-3.46,2.04-5.26,4.64,1.32,7.46,3.13,7.46,5.26s-2.82,3.98-7.46,5.26Z"/>
        <circle class="cls-15" cx="105.28" cy="232.64" r="3.7"/>
        <path class="cls-2" d="M57.93,256.99c-.6-.01-1.1-.47-1.16-1.07l-2.19-19.46c-.09-.62,.34-1.19,.96-1.28,.03,0,.05,0,.08,0,.64-.06,1.2,.4,1.28,1.03l2.22,19.46c.06,.64-.4,1.22-1.03,1.32h-.16Z"/>
        <path class="cls-2" d="M50.25,123.47c-.87,0-1.57-.7-1.57-1.57v-23.82c0-.87,.7-1.57,1.57-1.57s1.57,.7,1.57,1.57v23.82c0,.87-.7,1.57-1.57,1.57Z"/>
        <path class="cls-2" d="M28.31,125.38c-.66,0-1.19-.53-1.19-1.19h0v-14.2c.02-.65,.55-1.16,1.19-1.16,.64,0,1.16,.52,1.16,1.16v14.04c.1,.63-.32,1.23-.96,1.33-.07,.01-.14,.02-.2,.02Z"/>
        <path class="cls-8" d="M19.07,251.32c-5.4,0-9.78-4.38-9.78-9.78s4.38-9.78,9.78-9.78,9.78,4.38,9.78,9.78-4.38,9.78-9.78,9.78h0Zm0-16.83c-3.91-.02-7.1,3.14-7.11,7.05s3.14,7.1,7.05,7.11c3.91,.02,7.1-3.14,7.11-7.05,0-.02,0-.04,0-.06-.02-3.89-3.16-7.03-7.05-7.05Z"/>
        <path class="cls-8" d="M192.58,251.73c-5.4,0-9.78-4.38-9.78-9.78,0-5.4,4.38-9.78,9.78-9.78s9.78,4.38,9.78,9.78-4.38,9.78-9.78,9.78h0Zm0-16.83c-3.91,0-7.08,3.17-7.08,7.08,0,3.91,3.17,7.08,7.08,7.08,3.91,0,7.08-3.17,7.08-7.08,0-.01,0-.02,0-.03-.09-3.84-3.24-6.91-7.08-6.89v-.16Z"/>
        <rect class="cls-8" x="89.36" y="97.24" width="9.21" height="19.18" rx="4.61" ry="4.61"/>
        <circle class="cls-2" cx="89.36" cy="105.1" r="3.51"/>
        <path class="cls-8" d="M117.43,97.24h0c2.54,0,4.61,2.06,4.61,4.61v9.97c0,2.54-2.06,4.61-4.61,4.61h0c-2.54,0-4.61-2.06-4.61-4.61v-9.97c0-2.54,2.06-4.61,4.61-4.61Z"/>
        <circle class="cls-2" cx="112.83" cy="105.1" r="3.51"/>
        <circle class="cls-1" cx="102.55" cy="9.24" r="8.05"/>
        <path class="cls-5" d="M98.57,15.86c-.5,.03-.99-.18-1.32-.56-2.9-3.31-2.9-8.25,0-11.56,.61-.61,1.6-.62,2.22,0,0,0,0,0,0,0,.61,.59,.62,1.57,.02,2.17,0,0-.01,.01-.02,.02-1.9,2.14-1.9,5.35,0,7.49,.53,.68,.42,1.66-.25,2.19-.19,.14-.42,.22-.66,.25Z"/>
        <path class="cls-8" d="M102.55,18.49c-5.11,.02-9.26-4.11-9.28-9.21C93.26,4.17,97.38,.02,102.49,0c5.11-.02,9.26,4.11,9.28,9.21,0,.01,0,.02,0,.03,0,5.09-4.12,9.23-9.21,9.24Zm0-16.11c-3.81-.02-6.91,3.06-6.93,6.86-.02,3.81,3.06,6.91,6.86,6.93,3.81,.02,6.91-3.06,6.93-6.86,0-.02,0-.04,0-.06,0-3.79-3.07-6.86-6.86-6.86Z"/>
        <path class="cls-9" d="M114.96,70.07h29.08c1.61,0,2.91,1.3,2.91,2.9h0c0,1.6-1.3,2.9-2.91,2.9h-29.08c-1.61,0-2.91-1.3-2.91-2.9h0c0-1.6,1.3-2.9,2.91-2.9Z"/>
        <path class="cls-14" d="M64.38,155.68h29.08c1.61,0,2.91,1.3,2.91,2.9h0c0,1.6-1.3,2.9-2.91,2.9h-29.08c-1.61,0-2.91-1.3-2.91-2.9h0c0-1.6,1.3-2.9,2.91-2.9Z"/>
        <path class="cls-14" d="M64.38,70.07h29.08c1.61,0,2.91,1.3,2.91,2.9h0c0,1.6-1.3,2.9-2.91,2.9h-29.08c-1.61,0-2.91-1.3-2.91-2.9h0c0-1.6,1.3-2.9,2.91-2.9Z"/>
        <path class="cls-3" d="M79.99,270.88h29.08c1.61,0,2.91,1.3,2.91,2.9h0c0,1.6-1.3,2.9-2.91,2.9h-29.08c-1.61,0-2.91-1.3-2.91-2.9h0c0-1.6,1.3-2.9,2.91-2.9Z"/>
        <path class="cls-8" d="M162.25,167.93H49.78c-9.02,0-16.33-7.31-16.33-16.33V85.24c.03-8.99,7.33-16.26,16.33-16.26h112.47c9.02-.09,16.4,7.15,16.48,16.17,0,.03,0,.06,0,.09v66.37c0,9.02-7.31,16.33-16.33,16.33-.05,0-.1,0-.16,0ZM49.78,71.26c-7.72,0-13.98,6.26-13.98,13.98v66.37c0,7.72,6.26,13.98,13.98,13.98h112.47c7.72,0,13.98-6.26,13.98-13.98V85.24c0-7.72-6.26-13.98-13.98-13.98H49.78Z"/>
        <path class="cls-8" d="M157.17,157H54.86c-6.37,0-11.53-5.16-11.53-11.53h0v-54.06c0-6.37,5.16-11.55,11.53-11.56h8.08c.74,0,1.35,.6,1.35,1.35s-.6,1.35-1.35,1.35h-8.08c-4.89,.02-8.84,3.98-8.84,8.87v54.06c.02,4.87,3.96,8.82,8.84,8.84h102.31c4.88,0,8.84-3.96,8.84-8.84v-54.06c0-4.89-3.95-8.85-8.84-8.87H75.32c-.74,0-1.35-.6-1.35-1.35s.6-1.35,1.35-1.35h81.85c6.37,.02,11.53,5.19,11.53,11.56v54.06c0,6.37-5.16,11.53-11.53,11.53h0Z"/>
        <path class="cls-8" d="M148.58,278.52H63.44c-4.76,.04-8.8-3.49-9.4-8.21l-4.17-42.05c-.16-.73,.3-1.45,1.03-1.6s1.44,.3,1.6,1.03c.02,.11,.03,.21,.03,.32l4.26,41.99c.44,3.33,3.29,5.81,6.64,5.8h85.14c3.38,0,6.23-2.51,6.64-5.86l6.67-65.81c-.09-5.91-4.9-10.66-10.81-10.65H60.93c-5.92,.07-10.69,4.89-10.69,10.81l1.5,14.82c.07,.74-.47,1.4-1.21,1.47,0,0,0,0-.01,0-.72,.09-1.38-.42-1.47-1.14,0-.02,0-.03,0-.05l-1.5-14.98c-.05-7.48,5.97-13.58,13.44-13.63,.01,0,.02,0,.03,0h90.06c7.45,.02,13.47,6.06,13.47,13.51l-6.64,66c-.59,4.71-4.59,8.25-9.34,8.24Z"/>
        <rect class="cls-8" x="110.89" y="291.56" width="39.11" height="1.57"/>
        <rect class="cls-8" x="114.11" y="332.11" width="32.12" height="1.57"/>
        <rect class="cls-8" x="110.95" y="307.19" width="39.11" height="1.57"/>
        <rect class="cls-8" x="110.95" y="303.06" width="39.11" height="1.57"/>
        <rect class="cls-8" x="110.95" y="311.33" width="37.01" height="1.57"/>
        <rect class="cls-8" x="113.02" y="315.47" width="34.94" height="1.57"/>
        <rect class="cls-8" x="113.02" y="319.57" width="34.85" height="1.57"/>
        <rect class="cls-8" x="59.52" y="291.56" width="39.11" height="1.57"/>
        <rect class="cls-8" x="62.75" y="332.11" width="32.12" height="1.57"/>
        <rect class="cls-8" x="59.62" y="307.19" width="39.11" height="1.57"/>
        <rect class="cls-8" x="59.62" y="303.06" width="39.11" height="1.57"/>
        <rect class="cls-8" x="59.62" y="311.33" width="36.98" height="1.57"/>
        <rect class="cls-8" x="61.66" y="315.47" width="34.94" height="1.57"/>
        <rect class="cls-8" x="61.66" y="319.57" width="34.85" height="1.57"/>
        <path class="cls-3" d="M75.08,304.15l2.63,24.52c.15,1.36-.83,2.58-2.18,2.72h0c-1.35,.14-2.56-.84-2.71-2.2l-2.63-24.52c-.15-1.36,.83-2.58,2.18-2.72h0c1.35-.14,2.56,.84,2.71,2.2Z"/>
        <circle class="cls-8" cx="117.75" cy="329.57" r="1.16"/>
        <circle class="cls-8" cx="64.95" cy="281.97" r="1.16"/>
        <circle class="cls-8" cx="18.66" cy="241.54" r="1.16"/>
        <circle class="cls-8" cx="192.58" cy="241.54" r="1.16"/>
        <path class="cls-14" d="M209.82,203.25c-.4,.01-.78-.13-1.07-.41-.61-.61-.62-1.6,0-2.22,0,0,0,0,0,0l6.74-7.33c.62-.6,1.61-.6,2.22,0,.6,.62,.6,1.61,0,2.22l-6.77,7.36c-.3,.28-.72,.42-1.13,.38Z"/>
        <path class="cls-9" d="M232,224.68c-.39,0-.76-.14-1.03-.41-.61-.61-.62-1.6,0-2.22,0,0,0,0,0,0l6.74-7.36c.61-.6,1.58-.6,2.19,0,.61,.61,.62,1.6,0,2.22,0,0,0,0,0,0l-6.74,7.36c-.32,.28-.73,.43-1.16,.41Z"/>
        <path class="cls-8" d="M227.58,231.92c-.75,0-1.49-.07-2.22-.22l-13.32-2.91c-1.12-.29-2.14-.89-2.95-1.72-.88-.7-1.54-1.63-1.91-2.69l-4.2-12.97c-1.12-3.54-.29-7.42,2.19-10.18l8.34-9.15c2.31-2.45,6.14-2.65,8.68-.44,1.21,1.09,1.94,2.63,2.01,4.26,.07,1.6-.51,3.15-1.6,4.32l-7.55,8.34,.78,2.41c.23,.71-.17,1.47-.88,1.69,0,0,0,0,0,0-.69,.24-1.44-.12-1.68-.8,0-.01,0-.03-.01-.04l-1.03-3.13c-.15-.47-.04-.98,.28-1.35l8.12-8.9c1.27-1.42,1.16-3.6-.25-4.89-1.39-1.27-3.55-1.18-4.83,.22-.01,.01-.02,.02-.03,.03l-8.34,9.15c-1.85,2.03-2.47,4.9-1.63,7.52l4.2,12.97c.22,.62,.62,1.16,1.16,1.54,.46,.52,1.06,.91,1.72,1.1l13.29,2.95c2.7,.59,5.51-.3,7.36-2.35l8.34-9.15c.61-.69,.93-1.59,.88-2.51-.04-.91-.45-1.77-1.13-2.38-1.41-1.28-3.59-1.18-4.89,.22l-8.08,8.93c-.32,.36-.81,.52-1.28,.41l-10.56-2.35c-.47-.1-.85-.43-1-.88l-.78-2.41c-.21-.72,.17-1.47,.88-1.72,.71-.23,1.47,.17,1.69,.88,0,0,0,0,0,0l.56,1.69,9.02,2.01,7.58-8.34c2.31-2.45,6.14-2.65,8.68-.44,2.51,2.32,2.69,6.23,.41,8.77l-8.3,9.15c-1.98,2.16-4.78,3.39-7.71,3.38Z"/>
        <path class="cls-14" d="M212.89,223.53c-.69,0-1.3-.44-1.5-1.1l-3.85-12.53c-.26-.87,.23-1.78,1.1-2.04s1.78,.23,2.04,1.1l3.85,12.53c.24,.82-.22,1.69-1.03,1.94-.19,.08-.39,.11-.6,.09Z"/>
        <path class="cls-14" d="M264.5,293.84c-.87,0-1.57-.7-1.57-1.57v-12.06c0-.87,.7-1.57,1.57-1.57s1.57,.7,1.57,1.57v12.06c0,.87-.7,1.57-1.57,1.57Z"/>
        <rect class="cls-10" x="441.93" y="211.53" width="34.56" height="18.18" transform="translate(-30.64 360.61) rotate(-41.61)"/>
        <path class="cls-7" d="M463.67,227.22c-.44,0-.86-.18-1.16-.5-.61-.61-.62-1.6,0-2.22,0,0,0,0,0,0l9.28-8.24c.59-.61,1.57-.62,2.17-.02,0,0,.01,.01,.02,.02,.61,.61,.62,1.6,0,2.22,0,0,0,0,0,0l-9.18,8.24c-.28,.33-.7,.51-1.13,.5Z"/>
        <path class="cls-7" d="M463.49,228.16c-.76,.01-1.41-.54-1.54-1.28-.73-4.89-4.27-8.89-9.03-10.22-.87-.19-1.41-1.05-1.22-1.91s1.05-1.41,1.91-1.22c5.93,1.58,10.39,6.48,11.41,12.53,.17,.85-.38,1.67-1.23,1.84,0,0-.02,0-.02,0l-.28,.25Z"/>
        <path class="cls-8" d="M452.58,239.66c-.38,0-.74-.16-1-.44l-12.16-13.57c-.51-.53-.51-1.38,0-1.91l12.85-11.38c.51-.52,1.34-.53,1.86-.02,0,0,.01,.01,.02,.02,.53,.52,.53,1.38,0,1.91,0,0,0,0,0,0l-11.85,10.5,10.37,11.66,23.82-21.15-9.97-11.25-7.55,6.27c-.5,.53-1.33,.55-1.86,.05-.02-.02-.03-.03-.05-.05-.51-.52-.51-1.36,0-1.88l8.59-7.3c.52-.51,1.36-.51,1.88,0l12.03,13.35c.51,.53,.51,1.38,0,1.91l-25.85,22.94c-.3,.29-.72,.42-1.13,.34Z"/>
        <path class="cls-19" d="M480.85,217.7l-13.29-2.95c-.89-.22-1.69-.69-2.32-1.35-.71-.57-1.25-1.31-1.57-2.16l-4.2-12.97c-.98-3.08-.25-6.44,1.91-8.84l8.34-9.18c1.78-1.96,4.82-2.11,6.78-.33,1.96,1.78,2.11,4.82,.33,6.78h0l-8.12,8.93,3.35,10.28,10.53,2.35,8.12-8.93c1.78-1.96,4.82-2.11,6.78-.33,1.96,1.78,2.11,4.82,.33,6.78l-8.34,9.18c-2.19,2.39-5.49,3.42-8.65,2.73Z"/>
        <path class="cls-8" d="M482.95,219.11c-.75,0-1.49-.09-2.22-.25h0l-13.32-2.95c-1.12-.29-2.14-.89-2.95-1.72-.89-.69-1.55-1.63-1.91-2.69l-4.2-12.97c-1.12-3.54-.29-7.42,2.19-10.18l8.34-9.15c1.78-2.97,5.63-3.93,8.6-2.15,2.97,1.78,3.93,5.63,2.15,8.6-.43,.71-.99,1.33-1.66,1.83l-7.55,8.34,2.85,8.81,9.03,2.01,7.58-8.34c2.79-2.05,6.71-1.45,8.76,1.34,1.5,2.04,1.63,4.77,.33,6.94l-8.3,9.15c-1.98,2.17-4.77,3.41-7.71,3.42Zm-1.66-2.88c2.7,.59,5.51-.3,7.36-2.35l8.34-9.15c1.28-1.42,1.17-3.61-.25-4.89-1.42-1.28-3.61-1.17-4.89,.25l-8.08,8.9c-.32,.37-.81,.53-1.28,.41l-10.56-2.32c-.46-.12-.84-.46-1-.91l-3.32-10.28c-.15-.46-.04-.96,.28-1.32l8.12-8.93c1.28-1.42,1.17-3.61-.25-4.89-1.42-1.28-3.61-1.17-4.89,.25l-8.3,9.15c-1.85,2.05-2.47,4.92-1.63,7.55l4.2,12.94c.22,.62,.62,1.16,1.16,1.54,.45,.53,1.05,.92,1.72,1.1l13.29,2.95Z"/>
        <polygon class="cls-10" points="350.14 340.22 319.62 340.22 313.35 273.95 356.41 273.95 350.14 340.22"/>
        <rect class="cls-7" x="314.17" y="269.21" width="40.61" height="14.16"/>
        <path class="cls-8" d="M317.74,317.28c-.7,0-1.28-.53-1.35-1.22l-2.07-19.65c-.08-.74,.46-1.41,1.21-1.49s1.41,.46,1.49,1.21h0l2.04,19.65c.09,.74-.43,1.41-1.17,1.5,0,0-.01,0-.02,0h-.13Z"/>
        <path class="cls-8" d="M350.14,341.6h-30.4c-.72,.02-1.31-.54-1.35-1.25l-1.16-17.3c-.05-.74,.5-1.39,1.25-1.44,0,0,0,0,0,0,.74-.04,1.38,.52,1.44,1.25l1.07,16.04h28.2l6.02-63.58h-40.11l1.54,14.45c.07,.75-.47,1.42-1.22,1.5-.74,.07-1.4-.47-1.47-1.21,0,0,0,0,0-.01l-1.66-15.95c-.03-.38,.09-.75,.34-1.03,.22-.24,.52-.38,.85-.41h42.93c.38,0,.75,.16,1,.44,.25,.28,.38,.66,.34,1.03l-6.27,66.28c-.08,.68-.66,1.2-1.35,1.19Z"/>
        <circle class="cls-8" cx="346.82" cy="323.08" r="1.16"/>
        <polygon class="cls-10" points="400.78 340.22 370.26 340.22 363.99 273.95 407.05 273.95 400.78 340.22"/>
        <rect class="cls-7" x="364.81" y="269.21" width="40.61" height="14.16"/>
        <path class="cls-8" d="M367.97,317.6c-.71,0-1.3-.55-1.35-1.25l-1.66-19.96c-.05-.74,.5-1.39,1.25-1.44,0,0,0,0,0,0,.72-.07,1.37,.46,1.44,1.18,0,.01,0,.03,0,.04l1.66,19.96c.07,.72-.46,1.37-1.18,1.44-.01,0-.03,0-.04,0l-.13,.03Z"/>
        <path class="cls-8" d="M400.78,341.6h-30.52c-.72,.02-1.31-.54-1.35-1.25l-1.16-17.3c-.05-.74,.5-1.39,1.25-1.44,0,0,0,0,0,0,.74-.04,1.38,.52,1.44,1.25l1.07,16.04h28.2l6.02-63.58h-40.24l1.5,14.45c.07,.75-.47,1.42-1.22,1.5-.74,.07-1.4-.47-1.47-1.21,0,0,0,0,0-.01l-1.66-15.95c-.03-.38,.09-.75,.34-1.03,.26-.28,.62-.44,1-.44h43.06c.38,0,.75,.16,1,.44,.25,.28,.38,.66,.34,1.03l-6.27,66.28c-.06,.69-.65,1.23-1.35,1.22Z"/>
        <path class="cls-8" d="M365.84,39.39c-.32,0-.62-.12-.85-.34-.46-.45-.47-1.18-.02-1.64,0,0,.01-.01,.02-.02l3.7-3.51-11.34-11.91c-.46-.45-.47-1.18-.02-1.64,0,0,.01-.01,.02-.02,.46-.45,1.2-.45,1.66,0l12.35,12.75c.22,.22,.34,.53,.31,.85,0,.31-.12,.6-.34,.81l-4.58,4.36c-.25,.22-.58,.34-.91,.31Z"/>
        <path class="cls-8" d="M367.41,61.42c-.3,0-.59-.11-.81-.31l-12.53-11.78c-.23-.22-.36-.53-.38-.85-.01-.32,.13-.64,.38-.85l7.21-6.86c.45-.46,1.18-.47,1.64-.02,0,0,.01,.01,.02,.02,.45,.46,.45,1.2,0,1.66l-6.27,5.99,11.59,10.91c.45,.46,.45,1.2,0,1.66-.2,.26-.51,.42-.85,.44Z"/>
        <path class="cls-5" d="M437.73,126.1h-4.92v-40.74h4.92c3.86,0,7,3.12,7.02,6.99v26.76c-.02,3.86-3.15,6.99-7.02,6.99Z"/>
        <path class="cls-1" d="M431.71,126.1h-5.05v-40.74h4.92c3.88-.05,7.06,3.05,7.11,6.92,0,.02,0,.04,0,.06v26.76c0,3.88-3.14,7.02-7.02,7.02h0l.03-.03Z"/>
        <path class="cls-8" d="M437.73,127.38h-4.92c-.69,0-1.25-.56-1.25-1.25v-40.74c0-.69,.56-1.25,1.25-1.25h4.92c4.56,0,8.26,3.68,8.27,8.24v26.73c0,4.57-3.7,8.27-8.27,8.27Zm-3.67-2.51h3.67c3.18,0,5.77-2.58,5.77-5.77h0v-26.76c0-3.18-2.58-5.77-5.77-5.77h-3.67v38.29Z"/>
        <path class="cls-8" d="M437.48,95.33c-.69,0-1.25-.56-1.25-1.25v-7.61c0-.69,.56-1.25,1.25-1.25s1.25,.56,1.25,1.25h0v7.58c.02,.69-.53,1.27-1.22,1.28-.01,0-.02,0-.03,0Z"/>
        <rect class="cls-10" x="428.97" y="194.15" width="18.14" height="30.08" transform="translate(-47.38 206.5) rotate(-25.21)"/>
        <path class="cls-7" d="M431.49,214.34c5.01-11.66,12.72-13.29,12.72-13.29l-4.36-9.4-15.36,7.4s5.26,19.33,6.99,15.29Z"/>
        <path class="cls-8" d="M436.26,228.04h-.47c-.32-.13-.59-.38-.75-.69l-12.82-27.23c-.31-.68-.02-1.47,.66-1.79l16.39-7.74c.33-.14,.7-.14,1.03,0,.35,.09,.63,.35,.75,.69l12.82,27.2c.33,.67,.06,1.48-.61,1.81,0,0-.01,0-.02,.01l-16.42,7.71c-.18,.05-.38,.07-.56,.03Zm-11.03-27.92l11.66,24.79,13.98-6.58-11.66-24.79-13.98,6.58Z"/>
        <circle class="cls-14" cx="422.87" cy="181.6" r="19.46"/>
        <circle class="cls-19" cx="418.02" cy="184.92" r="19.46" transform="translate(168.53 567.92) rotate(-80.78)"/>
        <path class="cls-8" d="M422.87,202.4c-11.51,.06-20.89-9.22-20.94-20.73-.06-11.51,9.22-20.89,20.73-20.94,3.07-.02,6.11,.65,8.89,1.94,.67,.29,.97,1.06,.68,1.73,0,.02-.02,.04-.03,.05-.31,.67-1.11,.97-1.79,.66-2.37-1.1-4.94-1.66-7.55-1.66-10,0-18.11,8.11-18.11,18.12,0,10,8.11,18.11,18.12,18.11,10,0,18.11-8.11,18.11-18.12,0-4.22-1.48-8.31-4.17-11.56-.5-.55-.46-1.4,.09-1.9,.55-.5,1.4-.46,1.9,.09,.03,.03,.05,.06,.08,.09,7.34,8.87,6.1,22-2.77,29.34-3.73,3.08-8.41,4.78-13.25,4.79Z"/>
        <circle class="cls-19" cx="447.94" cy="229.23" r="13.07"/>
        <path class="cls-8" d="M443.87,212.21c-.45,0-.86-.26-1.07-.66l-5.58-11.22c-.3-.57-.07-1.27,.49-1.56,0,0,0,0,0,0,.59-.29,1.3-.06,1.6,.53,0,0,0,0,0,0l5.77,11.22c.27,.58,.04,1.27-.53,1.57-.21,.12-.45,.16-.69,.13Z"/>
        <path class="cls-8" d="M447.94,243.64c-7.96,0-14.41-6.45-14.41-14.41s6.45-14.41,14.41-14.41c7.96,0,14.41,6.45,14.41,14.41-.02,7.95-6.46,14.4-14.41,14.41Zm0-26.13c-6.47,0-11.72,5.25-11.72,11.72s5.25,11.72,11.72,11.72c6.47,0,11.72-5.25,11.72-11.72s-5.25-11.72-11.72-11.72Z"/>
        <rect class="cls-10" x="267.71" y="224.61" width="18.18" height="46.32" transform="translate(-24.84 30.92) rotate(-6.12)"/>
        <path class="cls-7" d="M284.08,254.99c-.8,0-1.47-.61-1.54-1.41l-1.22-12.25c-.09-.84,.52-1.6,1.37-1.69,.01,0,.03,0,.04,0,.82-.11,1.58,.48,1.68,1.3,0,.03,0,.05,0,.08l1.22,12.28c.09,.86-.52,1.63-1.38,1.72l-.19-.03Z"/>
        <path class="cls-7" d="M274.46,245.05c-2.48,0-4.93-.59-7.14-1.72-.74-.45-.99-1.41-.56-2.16,.42-.74,1.35-1,2.09-.59,.01,0,.03,.02,.04,.02h0c4.42,2.21,9.71,1.62,13.54-1.5,.62-.61,1.61-.6,2.22,.02s.6,1.61-.02,2.22c-.09,.09-.2,.17-.31,.24-2.8,2.22-6.26,3.45-9.84,3.48Z"/>
        <rect class="cls-10" x="269.28" y="199.74" width="30.08" height="18.14" transform="translate(-25.7 377.11) rotate(-64.79)"/>
        <path class="cls-7" d="M292.67,215.47c-2.69-6.67-7.89-12.02-14.48-14.88l4.32-9.21,16.42,7.74s-4.54,20.27-6.27,16.36Z"/>
        <path class="cls-8" d="M286.12,227.63c-.19,.04-.38,.04-.56,0l-16.42-7.74c-.33-.14-.58-.41-.69-.75-.12-.33-.12-.7,0-1.03l3.79-8.12c.31-.67,1.11-.97,1.79-.66,.68,.32,.97,1.13,.66,1.82l-3.13,6.71,13.94,6.58,11.69-24.79-13.98-6.58-5.86,12.53c-.34,.67-1.14,.94-1.82,.63-.66-.32-.94-1.12-.63-1.79l6.27-13.66c.14-.34,.43-.59,.78-.69,.33-.14,.7-.14,1.03,0l16.39,7.74c.67,.29,.97,1.06,.68,1.73,0,.02-.02,.04-.03,.05l-12.82,27.2c-.15,.33-.42,.59-.75,.72l-.34,.09Z"/>
        <rect class="cls-19" x="332.19" y="154.74" width="58.41" height="7.08"/>
        <rect class="cls-19" x="332.19" y="161.82" width="58.41" height="7.08"/>
        <rect class="cls-9" x="332.19" y="144.78" width="58.41" height="7.08"/>
        <rect class="cls-9" x="332.19" y="151.86" width="58.41" height="7.08"/>
        <rect class="cls-9" x="368.79" y="156.21" width="21.75" height="13.29"/>
        <path class="cls-5" d="M285.09,85.36h4.92v40.74h-4.92c-3.86,0-7-3.12-7.02-6.99v-26.76c0-3.88,3.14-7.02,7.02-7.02v.03Z"/>
        <path class="cls-1" d="M290.54,85.36h4.92v40.74h-4.92c-3.86,0-7-3.12-7.02-6.99v-26.76c0-3.88,3.14-7.02,7.02-7.02v.03Z"/>
        <rect class="cls-17" x="290.01" y="57.35" width="142.74" height="96.67" rx="15.14" ry="15.14"/>
        <path class="cls-16" d="M431.55,72.48v66.37c0,8.36-6.77,15.15-15.14,15.17h-12.38c8.36-.02,15.14-6.8,15.14-15.17V72.48c0-8.36-6.77-15.15-15.14-15.17h12.38c8.36,.02,15.14,6.8,15.14,15.17Z"/>
        <path class="cls-18" d="M290.79,72.48v66.37c0,8.36,6.77,15.15,15.14,15.17h12.53c-8.36-.02-15.14-6.8-15.14-15.17V72.48c0-8.36,6.77-15.15,15.14-15.17h-12.53c-8.36,.02-15.14,6.8-15.14,15.17Z"/>
        <circle class="cls-14" cx="299.5" cy="181.16" r="19.46"/>
        <circle class="cls-19" cx="304.36" cy="184.48" r="19.46"/>
        <path class="cls-8" d="M270.55,274.04c-.78-.01-1.44-.6-1.54-1.38l-1.85-14.98c-.11-.84,.48-1.61,1.32-1.72,0,0,.02,0,.02,0,.86-.11,1.64,.49,1.75,1.35l1.66,13.44,14.51-1.57-4.61-42.96-15.07,1.63,2.29,21.31c.09,.86-.53,1.63-1.39,1.72,0,0-.01,0-.02,0-.84,.09-1.6-.52-1.69-1.36,0,0,0-.01,0-.02l-2.6-22.88c-.09-.86,.52-1.63,1.38-1.72l18.21-1.94c.41-.05,.82,.08,1.13,.34,.33,.25,.54,.62,.6,1.03l4.92,46.03c.11,.84-.49,1.61-1.33,1.72-.02,0-.03,0-.05,0l-17.58,1.94h-.06Z"/>
        <path class="cls-8" d="M299.5,202c-11.51,.02-20.85-9.3-20.87-20.81-.02-11.51,9.3-20.85,20.81-20.87,11.51-.02,20.85,9.3,20.87,20.81,0,.01,0,.02,0,.03,0,11.5-9.31,20.82-20.81,20.84Zm0-38.95c-10.02-.02-18.16,8.09-18.18,18.11-.02,10.02,8.09,18.16,18.11,18.18,10.02,.02,18.16-8.09,18.18-18.11,0-.02,0-.04,0-.06,0-10.01-8.1-18.14-18.11-18.18v.06Z"/>
        <path class="cls-17" d="M414.51,274.95h-106.26c-5.05,0-9.3-3.77-9.93-8.77l-8.3-82.17c0-8.36,6.78-15.14,15.14-15.14h112.47c8.36,0,15.14,6.78,15.14,15.14h0s-8.3,82.17-8.3,82.17c-.63,5.01-4.89,8.77-9.93,8.77Z"/>
        <path class="cls-16" d="M433.22,183.13l-8.3,82.17c-.65,5.01-4.91,8.77-9.97,8.77h-12.82c5.05,0,9.3-3.77,9.93-8.77l8.3-82.17c0-8.36-6.77-15.15-15.14-15.17h12.82c8.38,0,15.17,6.79,15.17,15.17Z"/>
        <path class="cls-18" d="M290.19,183.13l8.3,82.17c.65,5.01,4.91,8.77,9.97,8.77h12.82c-5.05,0-9.3-3.77-9.93-8.77l-8.3-82.17c0-8.36,6.77-15.15,15.14-15.17h-12.82c-8.38,0-15.17,6.79-15.17,15.17h0Z"/>
        <path class="cls-8" d="M414.51,276.3h-106.26c-5.71-.01-10.53-4.24-11.28-9.9l-1.85-18.43c-.07-.73,.46-1.39,1.19-1.47,.72-.11,1.39,.38,1.5,1.1,0,0,0,0,0,0l1.88,18.39c.55,4.32,4.23,7.56,8.59,7.55h106.26c4.36,.02,8.05-3.2,8.62-7.52l8.3-82.13c-.05-7.57-6.21-13.68-13.79-13.66h-112.53c-7.62,0-13.79,6.17-13.79,13.79h0s5.67,56.12,5.67,56.12c.09,.72-.42,1.38-1.14,1.47-.02,0-.03,0-.05,0-.73,.07-1.39-.46-1.47-1.19l-5.7-56.41c-.03-9.14,7.34-16.57,16.48-16.61h112.47c9.1,.02,16.47,7.39,16.48,16.48l-8.3,82.51c-.75,5.66-5.57,9.89-11.28,9.9Z"/>
        <path class="cls-13" d="M403.95,264.42h-85.17c-4.04,0-7.45-3.01-7.96-7.02l-6.74-65.87c0-6.7,5.42-12.14,12.13-12.16h90.16c6.7,.02,12.13,5.46,12.13,12.16l-6.64,65.81c-.47,4.01-3.86,7.05-7.9,7.08Z"/>
        <path class="cls-3" d="M334.29,264.42h-15.48c-4.05,.02-7.48-3-7.99-7.02l-6.74-65.87c0-6.7,5.42-12.14,12.13-12.16h15.48c-6.63,.12-11.94,5.53-11.94,12.16l6.64,65.81c.47,4.01,3.86,7.05,7.9,7.08Z"/>
        <path class="cls-20" d="M389.56,264.42h15.48c4.05,.02,7.48-3,7.99-7.02l6.64-65.81c.03-6.71-5.38-12.19-12.1-12.22-.03,0-.06,0-.09,0h-15.48c6.71-.1,12.24,5.25,12.35,11.97,0,.06,0,.13,0,.19l-6.64,65.81c-.48,4.11-4.01,7.18-8.15,7.08Z"/>
        <rect class="cls-13" x="299.81" y="68.16" width="123.09" height="74.46" rx="10.22" ry="10.22"/>
        <path class="cls-8" d="M278.07,113.91c-.74,0-1.35-.6-1.35-1.35h0v-12.25c0-.74,.6-1.35,1.35-1.35h0c.74,0,1.35,.6,1.35,1.35h0v12.25c0,.74-.6,1.35-1.35,1.35h0Z"/>
        <path class="cls-8" d="M290.01,127.38h-4.92c-4.57,0-8.27-3.7-8.27-8.27,0-.69,.56-1.25,1.25-1.25h0c.67,0,1.22,.55,1.22,1.22,0,.01,0,.02,0,.03,.02,3.19,2.61,5.77,5.8,5.77h3.67v-38.29h-3.67c-3.19,0-5.78,2.58-5.8,5.77,.02,.67-.52,1.24-1.19,1.25-.01,0-.02,0-.03,0-.69,0-1.25-.56-1.25-1.25h0c.02-4.56,3.72-8.24,8.27-8.24h4.92c.69,0,1.25,.56,1.25,1.25h0v40.74c.02,.69-.53,1.27-1.22,1.28-.01,0-.02,0-.03,0Z"/>
        <path class="cls-8" d="M390.57,163.17h-58.29c-.74,0-1.35-.6-1.35-1.35h0v-7.08c0-.74,.6-1.35,1.35-1.35h58.29c.74,0,1.35,.6,1.35,1.35h0v7.08c0,.74-.6,1.35-1.35,1.35h0Zm-57.03-2.69h55.69v-4.39h-55.69v4.39Z"/>
        <path class="cls-8" d="M390.57,170.22h-58.29c-.74,0-1.35-.6-1.35-1.35h0v-7.05c0-.74,.6-1.35,1.35-1.35h14.6c.74,0,1.35,.6,1.35,1.35h0c-.02,.74-.61,1.33-1.35,1.35h-13.35v4.36h55.69v-4.36h-35.38c-.74-.02-1.33-.61-1.35-1.35,0-.74,.6-1.35,1.35-1.35h36.73c.74,0,1.35,.6,1.35,1.35h0v7.05c0,.74-.6,1.35-1.35,1.35h0Z"/>
        <circle class="cls-19" cx="274.43" cy="228.79" r="13.07"/>
        <path class="cls-19" d="M293.39,271.13l-11.85-6.77c-.8-.42-1.7-.61-2.6-.53-.91-.07-1.82,.11-2.63,.53l-11.81,6.77c-2.79,1.62-4.51,4.58-4.54,7.8v12.53c0,2.67,2.16,4.83,4.83,4.83s4.83-2.16,4.83-4.83v-12.16l9.4-5.36,9.4,5.36v12.16c.6,2.6,3.2,4.21,5.79,3.61,1.79-.42,3.19-1.82,3.61-3.61v-12.53c0-3.2-1.68-6.16-4.42-7.8Z"/>
        <polygon class="cls-3" points="343.87 142.93 323.04 142.93 356.91 68.75 377.75 68.75 343.87 142.93"/>
        <polygon class="cls-3" points="403.54 142.93 348.26 142.93 382.14 68.75 402.98 68.75 403.54 142.93"/>
        <path class="cls-8" d="M402.38,259.44h-19.12c-.66,0-1.19-.53-1.19-1.19,0-.64,.52-1.16,1.16-1.16,.01,0,.02,0,.03,0h19.12c.64,0,1.16,.52,1.16,1.16,0,.65-.51,1.17-1.16,1.19Z"/>
        <path class="cls-8" d="M300.47,234.09c-.69,0-1.27-.51-1.35-1.19l-3.13-26.79c-.07-.73,.46-1.39,1.19-1.47,.72-.11,1.39,.39,1.49,1.11,0,.03,0,.05,0,.08l3.13,26.76c.07,.73-.46,1.39-1.19,1.47l-.16,.03Z"/>
        <path class="cls-8" d="M293.11,297.73c-3.46,0-6.27-2.81-6.27-6.27v-11.28l-7.83-4.39-8.02,4.58v11.09c-.64,3.4-3.92,5.64-7.33,4.99-2.53-.48-4.51-2.46-4.99-4.99v-12.53c.01-3.71,1.99-7.13,5.2-8.99l11.85-6.77c1.03-.45,2.17-.61,3.29-.47,1.09-.05,2.17,.2,3.13,.72l11.81,6.77h0c3.23,1.85,5.22,5.28,5.23,8.99v12.53c-.13,3.29-2.79,5.92-6.08,6.02Zm-14.16-25.07c.23,0,.46,.06,.66,.19l9.4,5.36c.41,.24,.67,.68,.66,1.16v12.1c.18,1.91,1.88,3.32,3.79,3.13,1.66-.16,2.97-1.47,3.13-3.13v-12.53c-.14-2.62-1.61-4.98-3.89-6.27l-11.81-6.89c-.57-.32-1.23-.45-1.88-.38-.69-.07-1.39,.06-2.01,.38l-11.85,6.89c-2.38,1.36-3.86,3.9-3.85,6.64v12.53c0,1.9,1.54,3.45,3.44,3.45,1.9,0,3.45-1.54,3.45-3.44h0v-12.33c0-.48,.27-.92,.69-1.16l9.4-5.36c.22-.12,.47-.19,.72-.19l-.06-.16Z"/>
        <path class="cls-8" d="M266.88,276.83c-.48,0-.93-.26-1.16-.69-.37-.64-.15-1.47,.49-1.84,0,0,0,0,.01,0l10.28-5.95c.64-.36,1.46-.16,1.85,.47,.37,.64,.15,1.47-.49,1.84,0,0,0,0-.01,0l-10.28,5.99c-.21,.12-.45,.19-.69,.19Z"/>
        <path class="cls-8" d="M278.51,211.96c-.2,.05-.4,.05-.6,0-.67-.34-.94-1.14-.63-1.82l5.61-11.22c.34-.67,1.15-.93,1.82-.6,.67,.34,.93,1.15,.6,1.82l-5.61,11.19c-.25,.41-.71,.65-1.19,.63Z"/>
        <path class="cls-8" d="M274.43,243.24c-7.98,.02-14.46-6.44-14.48-14.41-.02-7.98,6.44-14.46,14.41-14.48s14.46,6.44,14.48,14.41c0,.01,0,.02,0,.03,0,7.97-6.45,14.43-14.41,14.45Zm0-26.13c-6.47,0-11.72,5.25-11.72,11.72s5.25,11.72,11.72,11.72c6.47,0,11.72-5.25,11.72-11.72,0-.01,0-.02,0-.03,0-6.46-5.23-11.69-11.69-11.69-.01,0-.02,0-.03,0Z"/>
        <circle class="cls-4" cx="360.64" cy="219.92" r="30.08"/>
        <path class="cls-8" d="M360.64,251.16c-17.31-.1-31.25-14.22-31.15-31.52,.05-7.79,3-15.29,8.27-21.03,.36-.55,1.1-.7,1.65-.33,.55,.36,.7,1.1,.33,1.65-.07,.11-.16,.2-.26,.28-10.88,11.69-10.23,29.99,1.46,40.88,11.69,10.88,29.99,10.23,40.88-1.46,10.88-11.69,10.23-29.99-1.46-40.88-9.86-9.17-24.74-10.33-35.9-2.8-.54,.35-1.26,.21-1.63-.31-.37-.53-.24-1.25,.29-1.61,0,0,.02-.01,.02-.02,14.26-9.8,33.77-6.19,43.58,8.07,9.8,14.26,6.19,33.77-8.07,43.58-5.3,3.64-11.59,5.57-18.02,5.51Z"/>
        <path class="cls-2" d="M312.04,248.25c-.59-.03-1.08-.48-1.16-1.07l-2.19-19.46c-.09-.62,.34-1.19,.96-1.28,.03,0,.05,0,.08,0,.64-.07,1.21,.38,1.28,1.02,0,0,0,0,0,.01l2.22,19.46c.06,.64-.4,1.2-1.03,1.28l-.16,.03Z"/>
        <path class="cls-2" d="M305.74,110.34c-.65,0-1.17-.51-1.19-1.16v-23.82c0-.66,.53-1.19,1.19-1.19,.64,0,1.16,.52,1.16,1.16,0,.01,0,.02,0,.03v23.82c0,.64-.52,1.16-1.16,1.16h0Z"/>
        <path class="cls-2" d="M283.52,112.47c-.66,0-1.19-.53-1.19-1.19v-14.1c-.11-.65,.33-1.26,.98-1.37,.65-.11,1.26,.33,1.37,.98,.02,.13,.02,.26,0,.39v14.1c0,.65-.51,1.17-1.16,1.19Z"/>
        <path class="cls-8" d="M349.33,79.16h0c2.54,0,4.61,2.06,4.61,4.61v9.97c0,2.54-2.06,4.61-4.61,4.61h0c-2.54,0-4.61-2.06-4.61-4.61v-9.97c0-2.54,2.06-4.61,4.61-4.61Z"/>
        <circle class="cls-2" cx="344.72" cy="87.02" r="3.51"/>
        <path class="cls-8" d="M372.8,79.16h0c2.54,0,4.61,2.06,4.61,4.61v9.97c0,2.54-2.06,4.61-4.61,4.61h0c-2.54,0-4.61-2.06-4.61-4.61v-9.97c0-2.54,2.06-4.61,4.61-4.61Z"/>
        <circle class="cls-2" cx="368.19" cy="87.02" r="3.51"/>
        <rect class="cls-11" x="367.41" y="57.35" width="34.91" height="5.8" rx="2.9" ry="2.9"/>
        <path class="cls-18" d="M319.74,142.93h29.08c1.61,0,2.91,1.3,2.91,2.9h0c0,1.6-1.3,2.9-2.91,2.9h-29.08c-1.61,0-2.91-1.3-2.91-2.9h0c0-1.6,1.3-2.9,2.91-2.9Z"/>
        <path class="cls-18" d="M319.74,57.35h29.08c1.61,0,2.91,1.3,2.91,2.9h0c0,1.6-1.3,2.9-2.91,2.9h-29.08c-1.61,0-2.91-1.3-2.91-2.9h0c0-1.6,1.3-2.9,2.91-2.9Z"/>
        <path class="cls-3" d="M335.35,258.12h29.08c1.61,0,2.91,1.3,2.91,2.9h0c0,1.6-1.3,2.9-2.91,2.9h-29.08c-1.61,0-2.91-1.3-2.91-2.9h0c0-1.6,1.3-2.9,2.91-2.9Z"/>
        <path class="cls-8" d="M417.61,155.21h-112.47c-9.01-.02-16.31-7.32-16.33-16.33V72.48c.02-9.01,7.32-16.31,16.33-16.33h112.47c9.01,.02,16.31,7.32,16.33,16.33v66.4c-.02,9.01-7.32,16.31-16.33,16.33Zm-112.47-96.71c-7.72,0-13.98,6.26-13.98,13.98v66.4c0,7.72,6.26,13.98,13.98,13.98h112.47c7.72,0,13.98-6.26,13.98-13.98h0V72.48c0-7.72-6.26-13.98-13.98-13.98h-112.47Z"/>
        <path class="cls-8" d="M412.53,144.18h-102.19c-6.37-.02-11.53-5.19-11.53-11.56v-53.96c0-6.37,5.16-11.55,11.53-11.56h8.08c.74,0,1.35,.6,1.35,1.35s-.6,1.35-1.35,1.35h-8.08c-4.89,.02-8.84,3.98-8.84,8.87v54.06c0,4.89,3.95,8.85,8.84,8.87h102.31c4.89-.02,8.84-3.98,8.84-8.87v-54.06c0-4.89-3.95-8.85-8.84-8.87h-82.1c-.74,0-1.35-.6-1.35-1.35s.6-1.35,1.35-1.35h81.98c6.37,.02,11.53,5.19,11.53,11.56v54.06c-.05,6.34-5.19,11.45-11.53,11.47Z"/>
        <path class="cls-8" d="M403.98,265.77h-85.2c-4.76,.04-8.8-3.49-9.4-8.21l-4.14-42.02c0-.74,.61-1.34,1.35-1.34,.63,0,1.17,.44,1.31,1.06l4.26,41.99c.43,3.33,3.26,5.82,6.61,5.83h85.2c3.38,0,6.23-2.51,6.64-5.86l6.67-65.81c-.09-5.91-4.9-10.67-10.81-10.69h-33.28c-.74,0-1.35-.6-1.35-1.35h0c0-.74,.6-1.35,1.35-1.35h33.25c7.45,.02,13.47,6.06,13.47,13.51l-6.64,66c-.58,4.7-4.57,8.23-9.31,8.24Z"/>
        <path class="cls-8" d="M366.56,180.72h-16.17c-.74,0-1.35-.6-1.35-1.35h0c0-.74,.6-1.35,1.35-1.35h16.17c.75,0,1.36,.6,1.38,1.35-.02,.75-.63,1.35-1.38,1.35Z"/>
        <path class="cls-8" d="M305.67,207.86c-.7,0-1.28-.53-1.35-1.22l-1.5-14.98c-.05-7.48,5.97-13.58,13.44-13.63,.01,0,.02,0,.03,0h26.23c.74,0,1.35,.6,1.35,1.35h0c0,.74-.6,1.35-1.35,1.35h-26.23c-5.96,.02-10.78,4.85-10.78,10.81l1.5,14.82c.07,.75-.47,1.42-1.22,1.5h-.13Z"/>
        <rect class="cls-8" x="365.06" y="278.83" width="40.3" height="1.57"/>
        <rect class="cls-8" x="366.31" y="300.71" width="39.11" height="1.57"/>
        <rect class="cls-8" x="366.31" y="296.6" width="39.11" height="1.57"/>
        <rect class="cls-8" x="366.31" y="304.84" width="37.01" height="1.57"/>
        <rect class="cls-8" x="368.38" y="308.98" width="34.94" height="1.57"/>
        <rect class="cls-8" x="368.38" y="313.12" width="34.85" height="1.57"/>
        <rect class="cls-8" x="314.89" y="278.83" width="40.49" height="1.57"/>
        <rect class="cls-8" x="317.02" y="302.12" width="37.04" height="1.57"/>
        <rect class="cls-8" x="314.95" y="297.98" width="39.11" height="1.57"/>
        <rect class="cls-8" x="317.02" y="306.25" width="34.94" height="1.57"/>
        <rect class="cls-8" x="317.02" y="310.36" width="34.94" height="1.57"/>
        <rect class="cls-8" x="317.02" y="314.5" width="34.85" height="1.57"/>
        <path class="cls-3" d="M324.93,293.08l2.63,24.52c.15,1.36-.83,2.58-2.18,2.72h0c-1.35,.14-2.56-.84-2.71-2.2l-2.63-24.52c-.15-1.36,.83-2.58,2.18-2.72h0c1.35-.14,2.56,.84,2.71,2.2Z"/>
        <circle class="cls-8" cx="320.31" cy="269.21" r="1.16"/>
        <path class="cls-21" d="M447.94,237.19c-4.4,0-7.96-3.56-7.96-7.96s3.56-7.96,7.96-7.96c4.4,0,7.96,3.56,7.96,7.96h0c0,4.4-3.56,7.96-7.96,7.96Zm0-13.57c-3.1,0-5.61,2.51-5.61,5.61s2.51,5.61,5.61,5.61c3.1,0,5.61-2.51,5.61-5.61h0c0-3.1-2.51-5.61-5.61-5.61Z"/>
        <path class="cls-21" d="M447.94,231.92c-1.51,0-2.73-1.22-2.73-2.73,0-1.51,1.22-2.73,2.73-2.73,1.51,0,2.73,1.22,2.73,2.73h0c0,1.51-1.22,2.73-2.73,2.73Zm0-3.13c-.22,0-.41,.18-.41,.41h0c0,.44,.81,.44,.81,0,0-.22-.18-.41-.41-.41Z"/>
        <path class="cls-21" d="M274.02,237.19c-4.4-.09-7.89-3.72-7.8-8.11,.09-4.4,3.72-7.89,8.11-7.8,4.33,.09,7.8,3.62,7.8,7.96,0,4.4-3.56,7.96-7.96,7.96-.05,0-.11,0-.16,0Zm0-13.57c-3.1,0-5.61,2.51-5.61,5.61s2.51,5.61,5.61,5.61,5.61-2.51,5.61-5.61-2.51-5.61-5.61-5.61h0Z"/>
        <path class="cls-21" d="M274.02,231.92c-1.51-.02-2.71-1.25-2.69-2.76,.02-1.51,1.25-2.71,2.76-2.69,1.49,.02,2.69,1.23,2.69,2.73,0,1.51-1.22,2.73-2.73,2.73-.01,0-.02,0-.03,0Zm0-3.13c-.21,0-.38,.17-.38,.37,0,.01,0,.02,0,.03,0,.44,.78,.44,.78,0,0-.22-.18-.41-.41-.41Z"/>
        <path class="cls-8" d="M348.73,227.5c.35,.15,.72,.23,1.1,.25,.42-.01,.83-.17,1.16-.44,.4-.42,.59-.99,.53-1.57v-18.49h6.52v19.96c.02,.88-.19,1.74-.63,2.51-.39,.68-.95,1.24-1.63,1.63-.73,.44-1.54,.75-2.38,.91-.91,.19-1.83,.28-2.76,.28-.8,0-1.6-.09-2.38-.25-.72-.14-1.42-.34-2.1-.6-.59-.22-1.16-.47-1.72-.75l3.13-4.01,1.16,.56Z"/>
        <path class="cls-8" d="M364.78,226.28c.43,.43,.94,.79,1.5,1.03,.51,.22,1.07,.34,1.63,.34,.41,.01,.81-.08,1.16-.28,.32-.19,.52-.54,.5-.91,0-.24-.1-.47-.28-.63-.29-.26-.62-.47-.97-.63-.5-.22-1.25-.53-2.29-.91l-1.5-.72c-.61-.32-1.17-.72-1.66-1.19-.54-.5-.98-1.1-1.32-1.75-.35-.76-.53-1.6-.5-2.44-.06-1.13,.28-2.24,.97-3.13,.68-.86,1.59-1.52,2.63-1.88,1.13-.45,2.33-.67,3.54-.66,1.23-.03,2.46,.19,3.6,.66,.93,.35,1.77,.9,2.48,1.6,.6,.54,1.1,1.19,1.47,1.91l-4.32,2.38c-.25-.4-.57-.76-.94-1.07-.32-.24-.68-.43-1.07-.56-.33-.12-.68-.18-1.03-.19-.35,0-.69,.07-1,.22-.23,.14-.38,.39-.38,.66,0,.38,.21,.74,.53,.94,.47,.27,.96,.49,1.47,.66l1.97,.69c.69,.26,1.36,.57,2.01,.94,.57,.34,1.08,.78,1.5,1.28,.41,.47,.73,1.01,.94,1.6,.22,.63,.33,1.3,.31,1.97,.03,.95-.19,1.89-.63,2.73-.42,.78-1.01,1.46-1.72,1.97-.74,.52-1.55,.91-2.41,1.16-.91,.28-1.86,.42-2.82,.41-1.26,0-2.52-.21-3.7-.66-1.15-.4-2.21-1-3.13-1.79-.78-.73-1.42-1.6-1.88-2.57l3.95-2.85c.37,.62,.84,1.18,1.38,1.66Z"/>
        <rect class="cls-19" x="319.27" y="106.33" width="86.71" height="26.67" rx="13.32" ry="13.32"/>
        <path class="cls-9" d="M404.73,119.64c-.02,7.37-5.98,13.33-13.35,13.35h-10.06c7.36,.36,13.62-5.32,13.98-12.69,.36-7.36-5.32-13.62-12.69-13.98-.43-.02-.86-.02-1.29,0h10.06c7.36-.02,13.33,5.93,13.35,13.29,0,.01,0,.02,0,.03Z"/>
        <path class="cls-14" d="M318.02,119.64c.02,7.37,5.98,13.33,13.35,13.35h10.06c-7.36,.36-13.62-5.32-13.98-12.69-.36-7.36,5.32-13.62,12.69-13.98,.43-.02,.86-.02,1.29,0h-10.06c-7.36-.02-13.33,5.93-13.35,13.29,0,.01,0,.02,0,.03Z"/>
        <path class="cls-8" d="M391.41,134.31h-60.07c-8.1,0-14.67-6.57-14.67-14.67s6.57-14.67,14.67-14.67h60.07c8.1,0,14.67,6.57,14.67,14.67s-6.57,14.67-14.67,14.67Zm-60.07-26.64c-6.61,0-11.97,5.36-11.97,11.98,0,6.61,5.36,11.96,11.97,11.97h60.07c6.61,0,11.97-5.36,11.97-11.98,0-6.61-5.36-11.96-11.97-11.97h-60.07Z"/>
        <path class="cls-8" d="M345.22,134.34c-.74,0-1.35-.6-1.35-1.35h0v-13.29c0-.74,.6-1.35,1.35-1.35h0c.74,0,1.35,.6,1.35,1.35h0v13.29c-.02,.74-.61,1.33-1.35,1.35Z"/>
        <path class="cls-8" d="M345.22,113.91c-.74,0-1.35-.6-1.35-1.35h0v-5.99c0-.74,.6-1.35,1.35-1.35h0c.74,.02,1.33,.61,1.35,1.35v6.27c-.14,.63-.7,1.08-1.35,1.07Z"/>
        <path class="cls-8" d="M353.31,134.34c-.75,0-1.36-.6-1.38-1.35v-26.42c.11-.75,.82-1.27,1.57-1.16,.6,.09,1.07,.56,1.16,1.16v26.57c-.09,.68-.67,1.18-1.35,1.19Z"/>
        <path class="cls-8" d="M361.39,134.34c-.75,0-1.36-.6-1.38-1.35v-5.8c.11-.75,.82-1.27,1.57-1.16,.6,.09,1.07,.56,1.16,1.16v5.8c-.02,.74-.61,1.33-1.35,1.35Z"/>
        <path class="cls-8" d="M361.39,122.65c-.75,0-1.36-.6-1.38-1.35v-14.73c.11-.75,.82-1.27,1.57-1.16,.6,.09,1.07,.56,1.16,1.16v14.73c-.02,.74-.61,1.33-1.35,1.35Z"/>
        <path class="cls-8" d="M377.53,134.34c-.74-.02-1.33-.61-1.35-1.35v-16.58c.02-.74,.61-1.33,1.35-1.35,.74,0,1.35,.6,1.35,1.35h0v16.58c0,.74-.6,1.35-1.35,1.35h0Z"/>
        <path class="cls-8" d="M377.53,111.59c-.74-.02-1.33-.61-1.35-1.35v-3.67c.02-.74,.61-1.33,1.35-1.35,.74,0,1.35,.6,1.35,1.35h0v3.82c-.08,.68-.66,1.2-1.35,1.19Z"/>
        <path class="cls-8" d="M369.45,134.34c-.74-.02-1.33-.61-1.35-1.35v-26.42c.02-.74,.61-1.33,1.35-1.35,.74,0,1.35,.6,1.35,1.35h0v26.57c-.08,.68-.66,1.2-1.35,1.19Z"/>
        <path class="cls-8" d="M385.55,134.34c-.74-.02-1.33-.61-1.35-1.35v-26.42c.02-.74,.61-1.33,1.35-1.35,.74,0,1.35,.6,1.35,1.35h0v26.57c-.08,.68-.66,1.2-1.35,1.19Z"/>
        <path class="cls-8" d="M337.14,134.34c-.74,0-1.35-.6-1.35-1.35h0v-26.42c0-.74,.6-1.35,1.35-1.35h0c.76-.02,1.39,.59,1.41,1.35,0,0,0,0,0,0v26.57c-.1,.7-.7,1.21-1.41,1.19Z"/>
        <path class="cls-8" d="M328.83,119.42c-.74,0-1.35-.6-1.35-1.35h0v-10.87c0-.74,.6-1.35,1.35-1.35s1.35,.6,1.35,1.35h0v10.87c0,.74-.6,1.35-1.35,1.35Z"/>
        <path class="cls-8" d="M328.83,132.99c-.74,0-1.35-.6-1.35-1.35h0v-7.08c0-.74,.6-1.35,1.35-1.35s1.35,.6,1.35,1.35v7.08c0,.74-.6,1.35-1.35,1.35h0Z"/>
        <path class="cls-8" d="M395.89,119.42c-.74,0-1.35-.6-1.35-1.35h0v-10.87c0-.74,.6-1.35,1.35-1.35s1.35,.6,1.35,1.35h0v10.87c0,.74-.6,1.35-1.35,1.35Z"/>
        <path class="cls-8" d="M395.89,132.99c-.74,0-1.35-.6-1.35-1.35h0v-7.08c0-.74,.6-1.35,1.35-1.35s1.35,.6,1.35,1.35v7.08c0,.74-.6,1.35-1.35,1.35h0Z"/>
        <circle class="cls-1" cx="356.41" cy="21.15" r="8.05"/>
        <path class="cls-5" d="M352.43,27.76c-.47,0-.92-.21-1.22-.56-2.9-3.31-2.9-8.25,0-11.56,.61-.61,1.6-.62,2.22,0,0,0,0,0,0,0,.61,.59,.62,1.57,.02,2.17,0,0-.01,.01-.02,.02-1.9,2.14-1.9,5.35,0,7.49,.55,.65,.47,1.62-.18,2.16-.01,.01-.02,.02-.04,.03-.23,.15-.5,.24-.78,.25Z"/>
        <path class="cls-8" d="M356.41,30.4c-5.1-.09-9.17-4.29-9.09-9.4,.09-5.1,4.29-9.17,9.4-9.09,5.04,.09,9.09,4.2,9.09,9.24-.09,5.13-4.27,9.25-9.4,9.24Zm0-16.11c-3.81,0-6.89,3.09-6.89,6.89,0,3.81,3.09,6.89,6.89,6.89s6.89-3.09,6.89-6.89c0-.01,0-.02,0-.03,0-3.79-3.07-6.86-6.86-6.86-.01,0-.02,0-.03,0Z"/>
        <path class="cls-2" d="M353.68,22.19c-.09-.26-.16-.54-.19-.81v.31c-.03-.34-.03-.69,0-1.03v.31c.03-.28,.09-.55,.19-.81,.13-.29,.13-.62,0-.91-.16-.27-.42-.47-.72-.56-.29-.11-.62-.11-.91,0-.24,.18-.43,.43-.53,.72-.34,1.02-.34,2.12,0,3.13,.18,.62,.82,.98,1.44,.81,.29-.08,.54-.27,.69-.53,.14-.29,.14-.62,0-.91l.03,.28Z"/>
        <polygon class="cls-19" points="354.75 351.19 308.75 351.19 312.29 337.03 351.21 337.03 354.75 351.19"/>
        <polygon class="cls-14" points="320.37 337.03 317.24 351.19 308.81 351.19 311.94 337.03 320.37 337.03"/>
        <polygon class="cls-9" points="354.62 351.19 346.19 351.19 343.06 337.03 351.49 337.03 354.62 351.19"/>
        <path class="cls-8" d="M355.63,352.63h-47.76c-.45,.01-.89-.2-1.16-.56-.28-.35-.38-.82-.25-1.25l3.67-14.16c.17-.64,.75-1.09,1.41-1.1h15.67c.81,0,1.47,.66,1.47,1.47h0c0,.8-.65,1.44-1.44,1.44-.01,0-.02,0-.03,0h-14.54l-2.91,11.25h43.87l-2.91-11.25h-16.26c-.8,.02-1.46-.61-1.47-1.41,0-.01,0-.02,0-.03,0-.81,.66-1.47,1.47-1.47h17.39c.66,.02,1.23,.46,1.41,1.1l3.67,14.16c.13,.43,.03,.9-.25,1.25-.25,.33-.62,.53-1.03,.56Z"/>
        <path class="cls-8" d="M351.08,346.74h-23.47c-.43,0-.78-.35-.78-.78,.02-.43,.36-.77,.78-.78h23.47c.43,0,.78,.35,.78,.78s-.35,.78-.78,.78Z"/>
        <path class="cls-8" d="M321.63,346.74h-11.28c-.43,0-.78-.35-.78-.78,.02-.43,.36-.77,.78-.78h11.25c.43,0,.78,.35,.78,.78,0,.42-.33,.77-.75,.78Z"/>
        <polygon class="cls-19" points="410.93 351.19 364.96 351.19 368.5 337.03 407.39 337.03 410.93 351.19"/>
        <polygon class="cls-14" points="376.59 337.03 373.46 351.19 365.03 351.19 368.16 337.03 376.59 337.03"/>
        <polygon class="cls-9" points="410.81 351.19 402.38 351.19 399.25 337.03 407.68 337.03 410.81 351.19"/>
        <path class="cls-8" d="M411.84,352.63h-47.79c-.45,.01-.87-.2-1.13-.56-.28-.35-.38-.81-.28-1.25l3.7-14.16c.17-.64,.75-1.09,1.41-1.1h15.67c.8,.02,1.44,.67,1.44,1.47,0,.8-.65,1.44-1.44,1.44h-14.51l-2.91,11.25h43.87l-2.91-11.25h-16.23c-.8,.02-1.46-.61-1.47-1.41,0-.01,0-.02,0-.03,0-.81,.66-1.47,1.47-1.47h17.36c.66,0,1.24,.46,1.41,1.1l3.7,14.16c.1,.44,0,.9-.28,1.25-.25,.35-.64,.55-1.07,.56Z"/>
        <path class="cls-8" d="M407.14,346.74h-23.47c-.43,0-.78-.35-.78-.78s.35-.78,.78-.78h23.47c.43,0,.78,.35,.78,.78s-.35,.78-.78,.78Z"/>
        <path class="cls-8" d="M377.84,346.74h-11.09c-.43,0-.78-.35-.78-.78s.35-.78,.78-.78h11.25c.43,.02,.77,.36,.78,.78,0,.43-.33,.79-.77,.8-.06,0-.12,0-.17-.02Z"/>
        <circle class="cls-8" cx="384.83" cy="322.33" r="1.16"/>
        <path class="cls-8" d="M384.83,327.91c-3.1,.02-5.62-2.48-5.64-5.58-.02-3.1,2.48-5.62,5.58-5.64,3.1-.02,5.62,2.48,5.64,5.58,0,.02,0,.04,0,.06-.02,3.07-2.5,5.56-5.58,5.58Zm0-9.62c-2.23-.02-4.06,1.78-4.07,4.01s1.78,4.06,4.01,4.07,4.06-1.78,4.07-4.01c0-.01,0-.02,0-.03,0-2.22-1.79-4.03-4.01-4.04Z"/>
        <path class="cls-9" d="M487.05,212.24c-.39,0-.76-.14-1.03-.41-.61-.57-.64-1.52-.07-2.13,.02-.02,.04-.05,.07-.07l6.74-7.36c.61-.61,1.6-.62,2.22,0,0,0,0,0,0,0,.6,.61,.6,1.58,0,2.19l-6.77,7.36c-.31,.29-.73,.44-1.16,.41Z"/>
        <path class="cls-14" d="M467.53,208.83c-.68,0-1.29-.45-1.5-1.1l-3.85-12.53c-.25-.87,.25-1.77,1.11-2.02,.87-.25,1.77,.25,2.02,1.11l3.85,12.53c.25,.83-.21,1.7-1.03,1.97l-.6,.03Z"/>
        <circle class="cls-8" cx="434.72" cy="166.12" r="1.5"/>
        <path class="cls-2" d="M342.56,64.71h-16.55c-.87,0-1.57-.7-1.57-1.57s.7-1.57,1.57-1.57h16.64c.87,0,1.57,.7,1.57,1.57s-.7,1.57-1.57,1.57h-.09Z"/>
        <circle class="cls-3" cx="325.98" cy="325.71" r="3.01"/>
      </g>
    </g>
  </g>
</svg>