<?xml version="1.0" encoding="UTF-8"?>
<svg id="Layer_2" data-name="Layer 2" xmlns="http://www.w3.org/2000/svg" viewBox="0 0 176.33 309.38">
  <defs>
    <style>
      .cls-1 {
        stroke: #000;
        stroke-width: 3px;
      }

      .cls-1, .cls-2 {
        fill: none;
        stroke-miterlimit: 10;
      }

      .cls-3 {
        fill: #fff;
      }

      .cls-4 {
        fill: #c1e2fd;
      }

      .cls-5 {
        fill: #b20f0f;
      }

      .cls-6 {
        fill: #e22b2b;
      }

      .cls-7 {
        fill: #88c3ea;
      }

      .cls-8 {
        fill: #4ff797;
      }

      .cls-2 {
        stroke: #fc6363;
      }
    </style>
  </defs>
  <g id="Layer_1-2" data-name="Layer 1">
    <g>
      <g>
        <path class="cls-4" d="M15.12,111.14h9.06s0-18.07,0-18.07H15.12c-2.79,0-5.05,2.26-5.05,5.05v7.96c0,2.79,2.26,5.05,5.05,5.05Z"/>
        <path class="cls-7" d="M12.02,100.19c2.44,2.77,6.44,3.81,10.09,3.31,.25-.03,.55-.05,.68,.16,.07,.11,.07,.24,.06,.36-.04,1.47-.08,2.95-.12,4.42,0,.24-.02,.49-.14,.69-.14,.22-.4,.33-.65,.42-2.42,.88-5.11,.72-7.62,.15-.79-.18-1.58-.41-2.25-.86-1.07-.72-1.72-1.96-1.98-3.22-.27-1.27-.2-2.58-.12-3.87"/>
        <path d="M24.18,91.16c-2.59,0-5.19,0-7.78,0-1.52,0-2.96,.05-4.38,.73-2.38,1.15-3.82,3.63-3.87,6.24s0,5.1,0,7.64c.02,4.27,3.22,7.28,7.44,7.28,2.86,0,5.73,0,8.59,0,2.46,0,2.46-3.82,0-3.82s-4.72,0-7.08,0c-.86,0-1.92,.11-2.71-.08-1.48-.37-2.4-1.64-2.43-3.13-.04-2.46,0-4.92,0-7.37,0-1.23,.26-2.31,1.26-3.05,.9-.67,1.83-.62,2.92-.62,2.68,0,5.35,0,8.03,0,2.46,0,2.46-3.82,0-3.82h0Z"/>
      </g>
      <circle cx="98.56" cy="7.73" r="7.73"/>
      <g>
        <path class="cls-4" d="M163.93,111.14h-9.06v-18.07h9.06c2.79,0,5.05,2.26,5.05,5.05v7.96c0,2.79-2.26,5.05-5.05,5.05Z"/>
        <path class="cls-7" d="M167.02,100.19c-2.44,2.77-6.44,3.81-10.09,3.31-.25-.03-.55-.05-.68,.16-.07,.11-.07,.24-.06,.36,.04,1.47,.08,2.95,.12,4.42,0,.24,.02,.49,.14,.69,.14,.22,.4,.33,.65,.42,2.42,.88,5.11,.72,7.62,.15,.79-.18,1.58-.41,2.25-.86,1.07-.72,1.72-1.96,1.98-3.22,.27-1.27,.2-2.58,.12-3.87"/>
        <path d="M154.86,94.98h7.08c.86,0,1.92-.11,2.71,.08,1.48,.37,2.4,1.64,2.43,3.13,.04,2.46,0,4.92,0,7.37,0,1.23-.26,2.31-1.26,3.05-.9,.67-1.83,.62-2.92,.62h-8.03c-2.46,0-2.46,3.82,0,3.82h7.78c1.52,0,2.96-.05,4.38-.73,2.38-1.15,3.82-3.63,3.87-6.24s0-5.1,0-7.64c-.02-4.27-3.22-7.28-7.44-7.28h-8.59c-2.46,0-2.46,3.82,0,3.82h0Z"/>
      </g>
      <path class="cls-4" d="M90.43,282.96c-29.89,0-54.12-35.66-54.12-72.25s24.23-48.25,54.12-48.25,54.12,11.66,54.12,48.25-24.23,72.25-54.12,72.25Z"/>
      <path class="cls-7" d="M144.55,209.58c0,36.59-24.23,72.25-54.12,72.25s-54.12-35.66-54.12-72.25c0-1.62,.05-3.19,.14-4.71,2.01,34.83,25.41,67.41,53.98,67.41s51.97-32.58,53.98-67.41c.09,1.52,.14,3.09,.14,4.71Z"/>
      <ellipse class="cls-4" cx="90.03" cy="99.79" rx="66.25" ry="54.12"/>
      <path class="cls-7" d="M155.88,101.48c0,29.89-29.66,54.13-66.25,54.13S23.38,131.37,23.38,101.48c0-1.85,.11-3.68,.34-5.48,3.39,27.29,31.61,48.59,65.91,48.59s62.52-21.3,65.91-48.59c.23,1.8,.34,3.63,.34,5.48Z"/>
      <ellipse class="cls-6" cx="90.03" cy="99.79" rx="52.66" ry="38.5"/>
      <path class="cls-5" d="M143.09,100.16c0,21.26-23.57,38.5-52.65,38.5s-52.66-17.24-52.66-38.5c0-2.28,.27-4.52,.79-6.7,4.35,18.07,25.92,31.8,51.87,31.8s47.52-13.73,51.86-31.8c.52,2.18,.79,4.42,.79,6.7Z"/>
      <path class="cls-4" d="M5.46,218h0c-3.25-1.88-4.54-5.92-2.98-9.34l11.51-25.14c1.79-3.9,6.55-5.42,10.27-3.27l4.53,2.62c3.72,2.15,4.78,7.03,2.29,10.53l-16.04,22.53c-2.18,3.06-6.32,3.96-9.58,2.08Z"/>
      <path class="cls-7" d="M2.48,208.13l11.5-25.14c1.8-3.9,6.55-5.42,10.27-3.27l3.84,2.21c-2.88-.15-5.72,1.42-7.01,4.24l-11.5,25.14c-1.08,2.36-.8,5.02,.55,7.06-1.57,.22-3.2-.06-4.66-.9-3.26-1.88-4.54-5.93-2.98-9.35Z"/>
      <path d="M10.88,194.87c1.05-2.29,2.09-4.58,3.14-6.86,1.11-2.42,1.99-5.51,4.73-6.51,3.16-1.15,6.06,1.26,8.65,2.77,3.06,1.78,4.03,5.23,1.98,8.22-2.87,4.19-5.9,8.28-8.84,12.42l-5.31,7.46c-1,1.41-1.94,3.12-3.48,4-4.46,2.54-9.43-2.19-7.59-6.8,1-2.5,2.25-4.92,3.37-7.37,.43-.94,.26-2.05-.69-2.61-.82-.49-2.18-.25-2.61,.69-1.12,2.45-2.27,4.89-3.36,7.35-2.26,5.05,.01,11,5.38,12.81,4.24,1.43,8.32-.58,10.78-4.04l4.56-6.4c3.64-5.12,7.31-10.22,10.93-15.35,2.51-3.57,2.36-8.35-.57-11.64-1.22-1.37-2.91-2.19-4.47-3.09-1.46-.85-2.94-1.85-4.6-2.26-3-.75-6.18,.07-8.48,2.12-1.31,1.17-2.01,2.66-2.72,4.21-1.37,2.99-2.74,5.98-4.11,8.97-.43,.94-.26,2.05,.69,2.61,.82,.49,2.18,.25,2.61-.69h0Z"/>
      <g>
        <line class="cls-2" x1="52.4" y1="73.01" x2="52.4" y2="127.36"/>
        <line class="cls-2" x1="63.52" y1="67.31" x2="63.52" y2="131.5"/>
        <line class="cls-2" x1="77.45" y1="63.13" x2="77.45" y2="137.18"/>
      </g>
      <g>
        <line class="cls-2" x1="128.01" y1="73.01" x2="128.01" y2="127.36"/>
        <line class="cls-2" x1="116.89" y1="67.31" x2="116.89" y2="131.5"/>
        <line class="cls-2" x1="102.96" y1="63.13" x2="102.96" y2="137.18"/>
      </g>
      <line class="cls-2" x1="90.43" y1="63.13" x2="90.43" y2="137.18"/>
      <path d="M98.74,64.2c16.68,2.08,36.25,11.44,40.85,29.09,1.92,7.37,.46,15.01-3.55,21.44-4.45,7.15-11.51,12.35-19.07,15.84-17.45,8.06-39.65,7.64-56.66-1.38-7.21-3.82-13.7-9.32-17.53-16.63-3.49-6.66-4.09-14.32-1.67-21.41,2.56-7.49,8.31-13.62,14.84-17.91,7.79-5.12,16.95-8.12,26.18-9.14,2.62-.29,5.25-.42,7.89-.43,2.9,0,2.9-4.51,0-4.5-10.72,.03-21.48,2.27-31.08,7.13-8,4.05-15.33,10.14-19.71,18.07-4.11,7.43-5.27,16.25-2.82,24.42s8.58,15.56,15.77,20.67c17.05,12.12,41.03,14.2,60.57,7.56,16.67-5.66,33.33-19.71,32.12-38.92-1.25-19.83-20.07-32.7-37.84-36.96-2.74-.66-5.51-1.12-8.3-1.46-1.21-.15-2.25,1.14-2.25,2.25,0,1.34,1.04,2.1,2.25,2.25h0Z"/>
      <g>
        <rect class="cls-8" x="57.43" y="87.08" width="21.1" height="7.34" rx="1.07" ry="1.07" transform="translate(23.78 -13.67) rotate(13.89)"/>
        <rect class="cls-1" x="57.43" y="87.08" width="21.1" height="7.34" rx="1.07" ry="1.07" transform="translate(23.78 -13.67) rotate(13.89)"/>
      </g>
      <g>
        <rect class="cls-8" x="102.33" y="87.08" width="21.1" height="7.34" rx="1.07" ry="1.07" transform="translate(243.01 154.35) rotate(167.24)"/>
        <rect class="cls-1" x="102.33" y="87.08" width="21.1" height="7.34" rx="1.07" ry="1.07" transform="translate(243.01 154.35) rotate(167.24)"/>
      </g>
      <path class="cls-6" d="M90.43,249.61c-18.61,0-33.7-22.21-33.7-44.99s15.09-30.04,33.7-30.04,33.7,7.26,33.7,30.04-15.09,44.99-33.7,44.99Z"/>
      <path class="cls-5" d="M124.13,204.33c0,22.78-15.09,44.99-33.71,44.99s-33.41-21.79-33.69-44.34c3.27,19.33,16.78,36.08,32.94,36.08,18.6,0,33.69-22.19,33.7-44.96,.5,2.49,.76,5.22,.76,8.23Z"/>
      <path d="M69.15,182.17c6.79-4.32,15.12-5.28,23.01-5.08,5.61,.14,11.44,.95,16.55,3.4,4.75,2.28,8.53,5.88,10.81,10.66,2.92,6.13,3.13,13.39,2.37,20.01-1.54,13.54-8.76,28.46-21.45,34.74-5.56,2.75-11.9,3.09-17.72,.98s-11.09-6.85-14.77-12.03c-4.3-6.07-7.11-13.11-8.47-20.41-1.37-7.4-1.47-15.84,1.66-22.83,.67-1.5,1.5-2.92,2.46-4.26,.61-.84,.14-2.12-.69-2.61-.95-.57-2.02-.15-2.61,.69-4.85,6.77-5.93,15.52-5.34,23.63s2.93,16.19,6.92,23.33c3.58,6.43,8.65,12.31,15.09,15.99,6.1,3.49,13.3,4.67,20.13,2.84,14.79-3.97,24.2-19.24,27.47-33.33,3.11-13.42,2.07-29.95-10.18-38.51-5.04-3.52-11.16-5.11-17.2-5.77-8.06-.89-16.85-.47-24.46,2.52-1.92,.75-3.77,1.65-5.51,2.76-2.07,1.32-.15,4.62,1.93,3.3h0Z"/>
      <path class="cls-3" d="M51.69,182.04c.22-.32,.44-.63,.67-.93s.02-.12-.05,.06c.05-.14,.26-.33,.36-.45,.46-.56,.95-1.1,1.46-1.62,.54-.55,1.09-1.07,1.67-1.57,.26-.22,.53-.44,.8-.66,.28-.23-.43,.31,.03-.02,.16-.11,.31-.23,.46-.34,1.18-.84,2.43-1.59,3.74-2.23,.31-.15,.62-.29,.94-.44,.68-.31-.38,.14,.02-.01,.18-.07,.35-.14,.53-.21,.72-.27,1.44-.51,2.18-.72,1.51-.43,2.6-2.14,2.1-3.69s-2.07-2.56-3.69-2.1c-6.69,1.93-12.46,6.17-16.4,11.9-.89,1.3-.28,3.39,1.08,4.1,1.53,.81,3.15,.31,4.1-1.08h0Z"/>
      <path class="cls-3" d="M72.18,170.77c3.86,0,3.87-6,0-6s-3.87,6,0,6h0Z"/>
      <path d="M40.59,193.14c1.61-5.21,4.16-10.14,7.82-14.22,3.43-3.82,7.64-6.79,12.27-8.98,10.22-4.84,22.03-5.87,33.19-5.52,9.57,.3,19.44,1.87,28,6.36,8.05,4.23,14.25,11.07,17.46,19.62,4.22,11.23,4.07,24.02,1.88,35.67-2.32,12.35-7.24,24.28-14.79,34.37-6.55,8.75-15.52,16.26-26.19,19.25s-21.11,.88-30.18-4.69c-9.95-6.11-17.46-15.68-22.69-25.99-5.81-11.45-8.96-24.31-9.14-37.14-.05-3.66,.12-7.35,.64-10.98,.15-1.03-.25-2.04-1.33-2.35-.9-.26-2.2,.31-2.35,1.33-2.03,14.04-.08,28.71,4.89,41.96,4.47,11.9,11.45,23.21,21.22,31.48,8.77,7.42,19.84,12.21,31.49,11.47s22.4-6.74,30.58-14.99c9.11-9.19,15.48-20.98,19.23-33.3s5.21-26.64,2.55-39.68c-2.07-10.13-7.2-19.29-15.47-25.61s-18.11-8.92-28.03-10.06c-11.66-1.33-24.09-.86-35.36,2.58-10.87,3.31-20.5,9.99-25.96,20.15-1.41,2.62-2.53,5.4-3.41,8.24-.73,2.35,2.96,3.36,3.68,1.02h0Z"/>
      <path class="cls-3" d="M42.12,71.51c1.81-2.07,3.79-3.99,5.92-5.72,.12-.09,.23-.19,.35-.28,.07-.05,.57-.45,.22-.18-.32,.25,.08-.06,.14-.1,.15-.11,.3-.22,.45-.33,.54-.4,1.09-.78,1.64-1.15,1.17-.79,2.38-1.52,3.61-2.2,1.38-.76,1.94-2.77,1.08-4.1s-2.63-1.89-4.1-1.08c-5.09,2.81-9.72,6.52-13.55,10.9-1.03,1.18-1.25,3.1,0,4.24,1.13,1.04,3.14,1.26,4.24,0h0Z"/>
      <path class="cls-3" d="M61.07,58.08c3.86,0,3.87-6,0-6s-3.87,6,0,6h0Z"/>
      <path d="M77.96,48.48c20.99-3.23,44.09,2.01,60.03,16.51,6.61,6.02,11.87,13.58,14.49,22.18s2.48,17.86-.37,26.4c-6.06,18.12-23.05,30.47-40.88,35.53-20.2,5.72-43.08,3.1-60.9-8.23-7.74-4.93-14.47-11.57-18.96-19.62s-6.66-18.13-5.25-27.62c.48-3.23,1.34-6.38,2.48-9.43,.86-2.3-2.83-3.3-3.68-1.02-4.02,10.72-4.05,22.73,.08,33.42,3.5,9.05,9.56,16.93,17.09,23.01,17.27,13.96,40.7,18.72,62.35,14.94,19.97-3.48,39.75-15.15,48.84-33.84,4.23-8.7,5.78-18.39,4.37-27.97s-5.84-18.22-12.04-25.42c-14.27-16.57-36.96-24.27-58.42-23.53-3.43,.12-6.84,.47-10.23,.99-1.02,.16-1.59,1.44-1.33,2.35,.3,1.09,1.32,1.49,2.35,1.33h0Z"/>
      <path d="M32.51,76.38c8.23-13.2,22.06-21.94,36.85-26.05,2.36-.66,1.36-4.34-1.02-3.68-15.75,4.38-30.39,13.77-39.14,27.81-1.3,2.09,2,4.01,3.3,1.93h0Z"/>
      <g>
        <g>
          <path class="cls-4" d="M169.38,219.51h0c-3.59,1.11-7.43-.7-8.87-4.16l-10.62-25.53c-1.65-3.97,.47-8.49,4.58-9.76l5-1.54c4.1-1.27,8.41,1.27,9.28,5.48l5.62,27.08c.76,3.68-1.4,7.33-4.98,8.44Z"/>
          <path class="cls-7" d="M160.91,214.64l-10.62-25.53c-1.64-3.97,.48-8.49,4.58-9.75l4.23-1.31c-2.07,2.01-2.85,5.15-1.66,8.03l10.62,25.53c1,2.39,3.14,4,5.55,4.4-.9,1.3-2.22,2.31-3.83,2.81-3.6,1.11-7.44-.7-8.88-4.17Z"/>
          <path d="M168.87,217.67c-2.24,.69-4.73-.11-6.07-2.07-.47-.69-.51-.89-.88-1.79-1.12-2.7-2.24-5.4-3.37-8.1-2.26-5.44-4.61-10.84-6.78-16.31-.66-1.65-.74-3.35,.12-4.94s2.36-2.34,4.05-2.86c1.45-.45,2.9-.97,4.37-1.34,2.18-.55,4.53,.35,5.78,2.22,1.08,1.62,1.25,4.11,1.64,5.97,.71,3.44,1.43,6.88,2.14,10.31l2.23,10.75c.14,.68,.31,1.36,.42,2.04,.46,2.67-1.07,5.24-3.65,6.1-2.32,.78-1.32,4.47,1.02,3.68,4.96-1.67,7.23-6.4,6.2-11.37-.6-2.91-1.21-5.82-1.81-8.74-.83-4.02-1.67-8.05-2.5-12.07-.44-2.14-.71-4.43-1.4-6.51-.95-2.87-3.24-5.13-6.15-6-2.23-.67-4.37-.26-6.52,.41-1.76,.54-3.65,.97-5.3,1.79-2.7,1.34-4.52,4.09-4.89,7.06s.9,5.27,1.96,7.81l4.52,10.86,4.04,9.71c.25,.6,.49,1.2,.75,1.79,1.19,2.8,3.72,4.96,6.75,5.49,1.45,.26,2.96,.21,4.37-.22,2.34-.72,1.34-4.41-1.02-3.68Z"/>
        </g>
        <path d="M157.95,180.4c1.52,4.64,3.05,9.27,4.57,13.91,.6,1.83,3.5,1.04,2.89-.8-1.52-4.64-3.05-9.27-4.57-13.91-.6-1.83-3.5-1.04-2.89,.8h0Z"/>
        <path d="M165.23,200.69c1.93,0,1.93-3,0-3s-1.93,3,0,3h0Z"/>
      </g>
      <g>
        <path d="M45.47,211.76c.99,9.58,3.99,18.82,8.9,27.12,.98,1.66,3.58,.15,2.59-1.51-4.62-7.82-7.56-16.56-8.49-25.6-.2-1.9-3.2-1.92-3,0h0Z"/>
        <path d="M58.9,244.45c1.93,0,1.93-3,0-3s-1.93,3,0,3h0Z"/>
      </g>
      <path d="M47.07,133.97c4.51,3.63,9.44,6.68,14.75,9.01,.74,.32,1.61,.22,2.05-.54,.37-.64,.21-1.73-.54-2.05-5.06-2.22-9.84-5.07-14.14-8.54-.63-.51-1.51-.62-2.12,0-.53,.53-.63,1.61,0,2.12h0Z"/>
      <path d="M69.36,145.99c1.93,0,1.93-3,0-3s-1.93,3,0,3h0Z"/>
      <ellipse class="cls-4" cx="90.43" cy="301.76" rx="28.07" ry="7.62"/>
      <path d="M95.79,11.24c-5.82,4.03-11.64,8.06-17.46,12.1-.84,.58-1.1,2.07,0,2.59,5.1,2.41,10.2,4.81,15.29,7.22,.72,.34,1.45,.68,2.17,1.02,1.74,.82,3.26-1.77,1.51-2.59-5.1-2.41-10.2-4.81-15.29-7.22-.72-.34-1.45-.68-2.17-1.02v2.59c5.82-4.03,11.64-8.06,17.46-12.1,1.58-1.09,.08-3.69-1.51-2.59h0Z"/>
      <path d="M65.65,265.49c4.39,5.22,10.66,8.83,17.39,9.98,.8,.14,1.62-.21,1.85-1.05,.2-.72-.24-1.71-1.05-1.85-6.29-1.08-11.96-4.33-16.06-9.21-.52-.62-1.58-.54-2.12,0-.61,.61-.52,1.5,0,2.12h0Z"/>
      <path d="M87.97,275.69c1.93,0,1.93-3,0-3s-1.93,3,0,3h0Z"/>
      <path d="M69.1,79.83c1.52,.97,3.01,1.97,4.47,3.02,.73,.52,1.46,1.06,2.17,1.6,.18,.14,.36,.27,.54,.41-.47-.38,.12,.1,.21,.17,.35,.28,.71,.56,1.06,.84,.48,.39,.95,.66,1.59,.66,.55,0,1.21-.25,1.59-.66,.75-.82,.98-2.39,0-3.18-3-2.41-6.12-4.67-9.36-6.74-.99-.63-2.53-.24-3.08,.81-.59,1.11-.25,2.4,.81,3.08h0Z"/>
      <path d="M102.04,86.01c3.51-2.09,7.12-4.03,10.8-5.8,1.06-.51,1.43-2.11,.81-3.08-.7-1.09-1.94-1.35-3.08-.81-3.69,1.77-7.29,3.71-10.8,5.8-1.01,.6-1.47,2.05-.81,3.08s2,1.45,3.08,.81h0Z"/>
      <g>
        <g>
          <circle class="cls-3" cx="106.31" cy="199.19" r="5.39"/>
          <path d="M110.46,199.19c-.02,1.7-1.09,3.33-2.68,3.89-1.74,.6-3.57,.12-4.74-1.32-1.04-1.28-1.17-3.24-.29-4.71s2.63-2.27,4.26-1.96c2.03,.39,3.42,2.09,3.45,4.1,.02,1.6,2.51,1.6,2.49,0-.04-2.8-1.76-5.25-4.37-6.23s-5.62-.15-7.33,1.96-2.09,5.24-.64,7.67,4.25,3.61,7,3.12c3.1-.56,5.3-3.42,5.34-6.51,.02-1.6-2.46-1.6-2.49,0Z"/>
        </g>
        <g>
          <circle class="cls-3" cx="106.31" cy="214.44" r="5.39"/>
          <path d="M110.46,214.44c-.02,1.7-1.09,3.33-2.68,3.89-1.74,.6-3.57,.12-4.74-1.32-1.04-1.28-1.17-3.24-.29-4.71s2.63-2.27,4.26-1.96c2.03,.39,3.42,2.09,3.45,4.1,.02,1.6,2.51,1.6,2.49,0-.04-2.8-1.76-5.25-4.37-6.23s-5.62-.15-7.33,1.96-2.09,5.24-.64,7.67,4.25,3.61,7,3.12c3.1-.56,5.3-3.42,5.34-6.51,.02-1.6-2.46-1.6-2.49,0Z"/>
        </g>
      </g>
      <path d="M88.73,46.16c.73-1.53,1.5-3.05,2.49-4.43,.06-.08,.11-.16,.17-.23,.23-.31-.2,.24,.05-.06,.12-.15,.24-.29,.37-.44,.27-.31,.57-.61,.88-.88,.07-.06,.14-.12,.21-.18,.13-.11,.14-.14,0,0,.16-.15,.37-.27,.55-.38,.35-.22,.72-.41,1.11-.58,.72-.31,.94-1.43,.54-2.05-.48-.75-1.28-.87-2.05-.54-3.46,1.48-5.36,5.05-6.91,8.27-.34,.71-.22,1.65,.54,2.05,.67,.35,1.69,.22,2.05-.54h0Z"/>
    </g>
  </g>
</svg>