<?xml version="1.0" encoding="UTF-8"?>
<svg id="Layer_2" data-name="Layer 2" xmlns="http://www.w3.org/2000/svg" viewBox="0 0 176.83 308.72">
  <defs>
    <style>
      .cls-1 {
        stroke: #000;
        stroke-width: 3px;
      }

      .cls-1, .cls-2 {
        fill: none;
        stroke-miterlimit: 10;
      }

      .cls-3 {
        fill: #042d68;
      }

      .cls-4 {
        fill: #fff;
      }

      .cls-5 {
        fill: #c1e2fd;
      }

      .cls-6 {
        fill: #1750a3;
      }

      .cls-7 {
        fill: #88c3ea;
      }

      .cls-8 {
        fill: #58b8f9;
      }

      .cls-9 {
        fill: #4ff797;
      }

      .cls-2 {
        stroke: #6a8fc2;
        stroke-width: 2px;
      }
    </style>
  </defs>
  <g id="Layer_1-2" data-name="Layer 1">
    <g>
      <g>
        <path class="cls-5" d="M9.98,110.48h9.06s0-18.07,0-18.07H9.98c-2.79,0-5.05,2.26-5.05,5.05v7.96c0,2.79,2.26,5.05,5.05,5.05Z"/>
        <path class="cls-7" d="M6.88,99.53c2.44,2.77,6.44,3.81,10.09,3.31,.25-.03,.55-.05,.68,.16,.07,.11,.07,.24,.06,.36-.04,1.47-.08,2.95-.12,4.42,0,.24-.02,.49-.14,.69-.14,.22-.4,.33-.65,.42-2.42,.88-5.11,.72-7.62,.15-.79-.18-1.58-.41-2.25-.86-1.07-.72-1.72-1.96-1.98-3.22s-.2-2.58-.12-3.87"/>
        <path d="M19.04,90.5c-2.59,0-5.19,0-7.78,0-1.52,0-2.96,.05-4.38,.73-2.38,1.15-3.82,3.63-3.87,6.24s0,5.1,0,7.64c.02,4.27,3.22,7.28,7.44,7.28,2.86,0,5.73,0,8.59,0,2.46,0,2.46-3.82,0-3.82s-4.72,0-7.08,0c-.86,0-1.92,.11-2.71-.08-1.48-.37-2.4-1.64-2.43-3.13-.04-2.46,0-4.92,0-7.37,0-1.23,.26-2.31,1.26-3.05,.9-.67,1.83-.62,2.92-.62,2.68,0,5.35,0,8.03,0,2.46,0,2.46-3.82,0-3.82h0Z"/>
      </g>
      <g>
        <path class="cls-5" d="M158.79,110.48h-9.06v-18.07h9.06c2.79,0,5.05,2.26,5.05,5.05v7.96c0,2.79-2.26,5.05-5.05,5.05Z"/>
        <path class="cls-7" d="M161.88,99.53c-2.44,2.77-6.44,3.81-10.09,3.31-.25-.03-.55-.05-.68,.16-.07,.11-.07,.24-.06,.36,.04,1.47,.08,2.95,.12,4.42,0,.24,.02,.49,.14,.69,.14,.22,.4,.33,.65,.42,2.42,.88,5.11,.72,7.62,.15,.79-.18,1.58-.41,2.25-.86,1.07-.72,1.72-1.96,1.98-3.22,.27-1.27,.2-2.58,.12-3.87"/>
        <path d="M149.72,94.32h7.08c.86,0,1.92-.11,2.71,.08,1.48,.37,2.4,1.64,2.43,3.13,.04,2.46,0,4.92,0,7.37,0,1.23-.26,2.31-1.26,3.05-.9,.67-1.83,.62-2.92,.62h-8.03c-2.46,0-2.46,3.82,0,3.82h7.78c1.52,0,2.96-.05,4.38-.73,2.38-1.15,3.82-3.63,3.87-6.24s0-5.1,0-7.64c-.02-4.27-3.22-7.28-7.44-7.28h-8.59c-2.46,0-2.46,3.82,0,3.82h0Z"/>
      </g>
      <path class="cls-5" d="M85.29,282.3c-29.89,0-54.12-35.66-54.12-72.25s24.23-48.25,54.12-48.25,54.12,11.66,54.12,48.25-24.23,72.25-54.12,72.25Z"/>
      <path class="cls-7" d="M139.41,208.92c0,36.59-25.03,73.37-54.92,73.37s-53.32-36.78-53.32-73.37c0-1.62,.05-3.19,.14-4.71,2.01,34.83,25.41,67.41,53.98,67.41s51.97-32.58,53.98-67.41c.09,1.52,.14,3.09,.14,4.71Z"/>
      <ellipse class="cls-5" cx="84.89" cy="99.13" rx="66.25" ry="54.12"/>
      <path class="cls-7" d="M151.14,99.64c0,29.89-29.66,54.13-66.25,54.13S18.64,129.53,18.64,99.64c0-1.85,.11-3.68,.34-5.48,3.39,27.29,31.61,48.59,65.91,48.59s62.52-21.3,65.91-48.59c.23,1.8,.34,3.63,.34,5.48Z"/>
      <ellipse class="cls-6" cx="84.89" cy="99.13" rx="52.66" ry="38.5"/>
      <path class="cls-3" d="M137.95,99.49c0,21.26-23.57,38.5-52.65,38.5s-52.66-17.24-52.66-38.5c0-2.28,.27-4.52,.79-6.7,4.35,18.07,25.92,31.8,51.87,31.8s47.52-13.73,51.86-31.8c.52,2.18,.79,4.42,.79,6.7Z"/>
      <g>
        <path d="M84.51,37.06c-.27-.31-.53-.64-.82-.94-.13-.13-.4-.56-.03,0l-1.3,2.26c-.73-.24-.97-.3-.72-.19,.11,.08,.24,.13,.37,.15,.45,0,.75,.09,1.17-.15,.47-.27,.76-.78,.76-1.32,0-1.2-1.21-2.26-1.67-3.28-.75-1.67,.57-2.59,1.79-3.51,1.39-1.04,2.62-2.14,3.65-3.56,1.99-2.72,2.76-6.12,1.85-9.4s-3.15-6.01-2.89-9.4c.15-1.93-2.86-1.92-3,0-.23,2.98,1.2,5.56,2.3,8.23,1.21,2.93,1.34,5.67-.42,8.41-.79,1.24-1.85,2.24-3.02,3.12-1.06,.79-2.18,1.58-2.87,2.74-.77,1.27-.86,2.75-.32,4.13,.3,.79,.76,1.48,1.21,2.2,.12,.2,.23,.44,.38,.62,.3,.38-.09-.07,.05-.68l.69-.9h-.01c.39-.04,.77-.09,1.16-.14,.79,.16-.24-.06-.45-.07-1.11-.05-1.91,1.33-1.3,2.26,.37,.55,.88,1.04,1.32,1.54,1.27,1.46,3.38-.67,2.12-2.12h0Z"/>
        <circle cx="85.29" cy="7.73" r="7.73"/>
      </g>
      <g>
        <path class="cls-5" d="M6.88,226.91h0c-3.66-.82-6.1-4.3-5.63-8.02l3.49-27.43c.54-4.26,4.63-7.13,8.82-6.19l5.1,1.15c4.19,.94,6.66,5.29,5.32,9.37l-8.6,26.28c-1.17,3.57-4.86,5.67-8.52,4.84Z"/>
        <path class="cls-7" d="M1.96,218.48l3.49-27.43c.55-4.26,4.64-7.13,8.82-6.18l4.32,.97c-2.79,.71-5.03,3.05-5.43,6.14l-3.49,27.43c-.33,2.57,.74,5.03,2.63,6.58-1.43,.68-3.08,.9-4.72,.53-3.67-.83-6.1-4.31-5.63-8.03Z"/>
        <path d="M8.09,224.67c-2.3-.52-4.07-2.43-4.27-4.8-.07-.79,.07-1.59,.17-2.38,.35-2.78,.71-5.55,1.06-8.33,.76-5.97,1.38-11.97,2.28-17.92,0-.06,.01-.12,.02-.17-.03,.17-.1,.35,.06-.2,.09-.33,.16-.67,.3-.99,.46-1.08,1.28-1.98,2.3-2.57,1.61-.93,3.23-.71,4.94-.33,1.42,.32,2.86,.58,4.26,.97,2.17,.6,3.78,2.54,3.94,4.8,.14,1.94-.95,4.18-1.54,5.98l-3.27,10.01c-1.14,3.48-2.28,6.96-3.41,10.44-.22,.66-.41,1.33-.65,1.98-.92,2.53-3.52,4.04-6.17,3.51-2.4-.48-3.43,3.2-1.02,3.68,5.1,1.02,9.46-1.88,11.04-6.7l2.79-8.52,3.8-11.62c.68-2.07,1.54-4.16,2.02-6.28,.67-2.98-.15-6.09-2.2-8.35-1.57-1.72-3.62-2.48-5.82-2.97-1.74-.39-3.52-.92-5.3-1.09-3.11-.29-6.19,1.17-8.06,3.63s-1.9,5.34-2.26,8.17l-1.48,11.63c-.44,3.47-.88,6.95-1.33,10.42-.08,.6-.17,1.2-.23,1.81-.32,2.95,.89,5.99,3.16,7.9,1.11,.94,2.44,1.65,3.87,1.97,2.39,.54,3.42-3.14,1.02-3.68Z"/>
      </g>
      <g>
        <line class="cls-2" x1="47.26" y1="72.34" x2="47.26" y2="126.7"/>
        <line class="cls-2" x1="58.38" y1="66.65" x2="58.38" y2="130.84"/>
        <line class="cls-2" x1="72.31" y1="62.46" x2="72.31" y2="136.52"/>
      </g>
      <g>
        <line class="cls-2" x1="122.87" y1="72.34" x2="122.87" y2="126.7"/>
        <line class="cls-2" x1="111.75" y1="66.65" x2="111.75" y2="130.84"/>
        <line class="cls-2" x1="97.82" y1="62.46" x2="97.82" y2="136.52"/>
      </g>
      <line class="cls-2" x1="85.29" y1="62.46" x2="85.29" y2="136.52"/>
      <path d="M93.6,63.54c16.68,2.08,36.25,11.44,40.85,29.09,1.92,7.37,.46,15.01-3.55,21.44-4.45,7.15-11.51,12.35-19.07,15.84-17.45,8.06-39.65,7.64-56.66-1.38-7.21-3.82-13.7-9.32-17.53-16.63-3.49-6.66-4.09-14.32-1.67-21.41,2.56-7.49,8.31-13.62,14.84-17.91,7.79-5.12,16.95-8.12,26.18-9.14,2.62-.29,5.25-.42,7.89-.43,2.9,0,2.9-4.51,0-4.5-10.72,.03-21.48,2.27-31.08,7.13-8,4.05-15.33,10.14-19.71,18.07-4.11,7.43-5.27,16.25-2.82,24.42s8.58,15.56,15.77,20.67c17.05,12.12,41.03,14.2,60.57,7.56,16.67-5.66,33.33-19.71,32.12-38.92s-20.07-32.7-37.84-36.96c-2.74-.66-5.51-1.12-8.3-1.46-1.21-.15-2.25,1.14-2.25,2.25,0,1.34,1.04,2.1,2.25,2.25h0Z"/>
      <path class="cls-4" d="M85.29,248.94c-18.61,0-33.7-22.21-33.7-44.99s15.09-30.04,33.7-30.04,33.7,7.26,33.7,30.04-15.09,44.99-33.7,44.99Z"/>
      <path class="cls-5" d="M118.99,203.67c0,22.78-15.09,44.99-33.71,44.99s-33.41-21.79-33.69-44.34c3.27,19.33,16.78,36.08,32.94,36.08,18.6,0,33.69-22.19,33.7-44.96,.5,2.49,.76,5.22,.76,8.23Z"/>
      <path d="M67.05,179.81c7.2-3.38,15.68-3.85,23.5-3.2,5.45,.45,11,1.75,15.68,4.67,11.28,7.04,12.25,21.97,9.76,33.8-2.71,12.89-10.77,27.39-24.15,31.52-6,1.85-12.35,1.01-17.8-2.04-5.92-3.3-10.5-8.62-13.82-14.46-3.69-6.5-5.94-13.89-6.55-21.34s.12-15.21,4.34-21.45c.83-1.22,1.79-2.32,2.85-3.34,1.77-1.71-.93-4.41-2.7-2.7-5.62,5.43-8,13-8.42,20.65-.46,8.48,1.24,17.06,4.57,24.85,5.58,13.04,17.76,26,33.16,24.55,15.44-1.45,26.11-15.64,30.62-29.38s4.98-31.15-6.22-41.17c-4.56-4.08-10.42-6.35-16.4-7.37-7.92-1.35-16.45-1.25-24.22,.84-2.11,.57-4.16,1.34-6.14,2.26-2.22,1.04-.29,4.34,1.93,3.3h0Z"/>
      <path class="cls-4" d="M46.55,181.38c.22-.32,.44-.63,.67-.93s.02-.12-.05,.06c.05-.14,.26-.33,.36-.45,.46-.56,.95-1.1,1.46-1.62,.54-.55,1.09-1.07,1.67-1.57,.26-.22,.53-.44,.8-.66,.28-.23-.43,.31,.03-.02,.16-.11,.31-.23,.46-.34,1.18-.84,2.43-1.59,3.74-2.23,.31-.15,.62-.29,.94-.44,.68-.31-.38,.14,.02-.01,.18-.07,.35-.14,.53-.21,.72-.27,1.44-.51,2.18-.72,1.51-.43,2.6-2.14,2.1-3.69s-2.07-2.56-3.69-2.1c-6.69,1.93-12.46,6.17-16.4,11.9-.89,1.3-.28,3.39,1.08,4.1,1.53,.81,3.15,.31,4.1-1.08h0Z"/>
      <path class="cls-4" d="M67.04,170.11c3.86,0,3.87-6,0-6s-3.87,6,0,6h0Z"/>
      <path d="M49.94,260.62c-11.99-15.62-18-36.01-16.7-55.64,.35-5.3,1.36-10.54,3.25-15.51,.87-2.3-2.82-3.3-3.68-1.02-3.6,9.5-4.13,20.05-3.12,30.08s3.83,20.45,8.3,29.83c2.39,5.01,5.27,9.78,8.65,14.18,.63,.82,1.64,1.24,2.61,.69,.81-.46,1.31-1.8,.69-2.61h0Z"/>
      <path d="M110.74,167.52c9.45,3.37,17.4,9.64,21.92,18.7,5.64,11.29,5.77,25.1,3.75,37.31-2.13,12.85-7.06,25.32-14.81,35.83-6.71,9.11-16,16.9-27.11,19.83-12.94,3.41-26.13-1.02-36.06-9.59-1.37-1.18-2.67-2.43-3.93-3.72-1.72-1.76-4.42,.94-2.7,2.7,10.12,10.39,23.98,17.24,38.74,15.27,12.16-1.63,22.8-8.82,30.7-17.96,8.98-10.39,14.99-23.29,17.95-36.65s3.5-28.15-1.48-40.97c-4.03-10.35-11.81-18.38-21.98-22.85-1.3-.57-2.63-1.1-3.97-1.58-2.32-.83-3.32,2.86-1.02,3.68h0Z"/>
      <path d="M38.98,184.23c9.32-16.12,28.56-20.47,45.91-20.53,6.59-.02,13.18,.51,19.61,1.99,2.39,.55,3.41-3.13,1.02-3.68-11.11-2.56-22.91-2.77-34.18-1.17-9.2,1.31-18.34,4.31-25.75,10.07-4.01,3.12-7.35,6.99-9.9,11.39-1.23,2.13,2.07,4.06,3.3,1.93h0Z"/>
      <path class="cls-4" d="M36.98,70.84c1.81-2.07,3.79-3.99,5.92-5.72,.12-.09,.23-.19,.35-.28,.07-.05,.57-.45,.22-.18-.32,.25,.08-.06,.14-.1,.15-.11,.3-.22,.45-.33,.54-.4,1.09-.78,1.64-1.15,1.17-.79,2.38-1.52,3.61-2.2,1.38-.76,1.94-2.77,1.08-4.1s-2.63-1.89-4.1-1.08c-5.09,2.81-9.72,6.52-13.55,10.9-1.03,1.18-1.25,3.1,0,4.24,1.13,1.04,3.14,1.26,4.24,0h0Z"/>
      <path class="cls-4" d="M55.94,57.41c3.86,0,3.87-6,0-6s-3.87,6,0,6h0Z"/>
      <path d="M72.82,47.82c20.99-3.23,44.09,2.01,60.03,16.51,6.61,6.02,11.87,13.58,14.49,22.18,2.63,8.62,2.48,17.86-.37,26.4-6.06,18.12-23.05,30.47-40.88,35.53-20.2,5.72-43.08,3.1-60.9-8.23-7.74-4.93-14.47-11.57-18.96-19.62-4.66-8.35-6.66-18.13-5.25-27.62,.48-3.23,1.34-6.38,2.48-9.43,.86-2.3-2.83-3.3-3.68-1.02-4.02,10.72-4.05,22.73,.08,33.42,3.5,9.05,9.56,16.93,17.09,23.01,17.27,13.96,40.7,18.72,62.35,14.94,19.97-3.48,39.75-15.15,48.84-33.84,4.23-8.7,5.78-18.39,4.37-27.97s-5.84-18.22-12.04-25.42c-14.27-16.57-36.96-24.27-58.42-23.53-3.43,.12-6.84,.47-10.23,.99-1.02,.16-1.59,1.44-1.33,2.35,.3,1.09,1.32,1.49,2.35,1.33h0Z"/>
      <path d="M27.37,75.72c8.23-13.2,22.06-21.94,36.85-26.05,2.36-.66,1.36-4.34-1.02-3.68-15.75,4.38-30.39,13.77-39.14,27.81-1.3,2.09,2,4.01,3.3,1.93h0Z"/>
      <g>
        <g>
          <path class="cls-5" d="M171.17,217.41h0c-3.31,1.78-7.42,.75-9.51-2.37l-15.35-23c-2.38-3.57-1.17-8.42,2.61-10.46l4.61-2.48c3.78-2.03,8.49-.37,10.16,3.59l10.74,25.48c1.46,3.46,.05,7.46-3.26,9.24Z"/>
          <path class="cls-7" d="M161.92,214.27l-15.35-23c-2.37-3.58-1.17-8.42,2.61-10.45l3.9-2.1c-1.64,2.37-1.8,5.61-.08,8.2l15.35,23c1.44,2.16,3.86,3.32,6.3,3.24-.63,1.45-1.73,2.69-3.21,3.49-3.31,1.78-7.43,.75-9.52-2.38Z"/>
          <path d="M170.2,215.76c-2.07,1.11-4.69,.66-6.32-1-.47-.48-.82-1.05-1.19-1.61l-4.87-7.3c-3.27-4.9-6.62-9.75-9.81-14.7-.98-1.53-1.34-3.29-.69-5.03s2.06-2.63,3.62-3.47c1.27-.68,2.53-1.48,3.85-2.06,2.16-.95,4.77-.35,6.29,1.45,.7,.83,.71,1.04,1.11,1.98l1.29,3.06,4.21,10,4.18,9.91c.24,.56,.48,1.12,.71,1.68,1.09,2.74,.22,5.6-2.38,7.08-2.14,1.22-.21,4.52,1.93,3.3,4.28-2.44,5.79-7.49,3.91-11.95-1.17-2.78-2.34-5.55-3.51-8.33-1.59-3.78-3.19-7.56-4.78-11.35-.86-2.05-1.62-4.19-2.63-6.18-1.4-2.76-4.23-4.57-7.27-4.88-2.33-.24-4.35,.57-6.35,1.65-1.56,.84-3.26,1.58-4.67,2.66-2.38,1.82-3.81,4.76-3.63,7.77s1.92,5.22,3.52,7.61c2.18,3.26,4.35,6.52,6.53,9.79l5.83,8.75c.35,.52,.68,1.04,1.04,1.55,1.79,2.52,4.67,4.13,7.81,4.04,1.47-.04,2.92-.43,4.21-1.13,2.17-1.17,.24-4.46-1.93-3.3Z"/>
        </g>
        <path d="M152.45,181.32c2.39,4.26,4.78,8.51,7.17,12.77,.95,1.68,3.54,.17,2.59-1.51-2.39-4.26-4.78-8.51-7.17-12.77-.95-1.68-3.54-.17-2.59,1.51h0Z"/>
        <path d="M163.17,199.77c1.93,0,1.93-3,0-3s-1.93,3,0,3h0Z"/>
      </g>
      <g>
        <path d="M40.34,211.1c.99,9.58,3.99,18.82,8.9,27.12,.98,1.66,3.58,.15,2.59-1.51-4.62-7.82-7.56-16.56-8.49-25.6-.2-1.9-3.2-1.92-3,0h0Z"/>
        <path d="M53.76,243.79c1.93,0,1.93-3,0-3s-1.93,3,0,3h0Z"/>
      </g>
      <path d="M64.22,145.32c1.93,0,1.93-3,0-3s-1.93,3,0,3h0Z"/>
      <ellipse class="cls-5" cx="85.29" cy="301.09" rx="28.07" ry="7.62"/>
      <path d="M111.09,265.19c3.09-2.44,5.89-5.23,8.33-8.33,.48-.61,.64-1.53,0-2.12-.54-.5-1.6-.66-2.12,0-2.44,3.09-5.24,5.89-8.33,8.33-.62,.49-.55,1.62,0,2.12,.66,.6,1.46,.52,2.12,0h0Z"/>
      <path d="M121.11,251.87c1.93,0,1.93-3,0-3s-1.93,3,0,3h0Z"/>
      <circle class="cls-5" cx="89.39" cy="235.6" r="6.69"/>
      <circle class="cls-5" cx="97.48" cy="225.69" r="1.41"/>
      <circle class="cls-5" cx="102.53" cy="228" r=".91"/>
      <circle class="cls-5" cx="99.79" cy="230.94" r=".9"/>
      <circle class="cls-5" cx="79.12" cy="236.53" r=".93"/>
      <path class="cls-8" d="M62.84,146.89h0c-3.69,0-6.69-2.99-6.69-6.69v-46.66h13.37v46.66c0,3.69-2.99,6.69-6.69,6.69Z"/>
      <path d="M62.84,146c-2.89,0-5.13-2.37-5.19-5.2-.01-.59,0-1.18,0-1.78v-10.23c0-9.27,0-18.54,0-27.81v-6.83l-1.5,1.5h13.37l-1.5-1.5v43.89c0,.89,.01,1.77,0,2.66-.04,2.93-2.24,5.22-5.19,5.3-1.93,.05-1.93,3.05,0,3,3.58-.09,6.76-2.34,7.83-5.8,.34-1.1,.35-2.22,.35-3.36v-45.69c0-.81-.69-1.5-1.5-1.5h-13.37c-.81,0-1.5,.69-1.5,1.5v45.07c0,.94-.03,1.88,.1,2.81,.58,3.95,4.09,6.97,8.08,6.97,1.93,0,1.93-3,0-3Z"/>
      <g>
        <rect class="cls-9" x="52.29" y="89.42" width="21.1" height="7.34" rx="1.07" ry="1.07" transform="translate(-18.72 15.87) rotate(-12.54)"/>
        <rect class="cls-1" x="52.29" y="89.42" width="21.1" height="7.34" rx="1.07" ry="1.07" transform="translate(-18.72 15.87) rotate(-12.54)"/>
      </g>
      <path class="cls-8" d="M103.09,127.83h0c-3.69,0-6.69-2.99-6.69-6.69v-26.66h13.37v26.66c0,3.69-2.99,6.69-6.69,6.69Z"/>
      <path d="M103.09,126.94c-3.06,0-5.17-2.53-5.19-5.46-.01-1.69,0-3.38,0-5.07v-21.31l-1.5,1.5h13.37l-1.5-1.5v26c0,3.11-1.86,5.76-5.19,5.85-1.93,.05-1.93,3.05,0,3,4.53-.11,8.09-3.65,8.19-8.19,.03-1.32,0-2.65,0-3.98v-22.68c0-.81-.69-1.5-1.5-1.5h-13.37c-.81,0-1.5,.69-1.5,1.5,0,8.86-.16,17.73,0,26.58,.08,4.48,3.61,8.26,8.19,8.26,1.93,0,1.93-3,0-3Z"/>
      <g>
        <rect class="cls-9" x="93.54" y="89.36" width="21.1" height="7.34" rx="1.07" ry="1.07" transform="translate(16.68 -15.82) rotate(9.45)"/>
        <rect class="cls-1" x="93.54" y="89.36" width="21.1" height="7.34" rx="1.07" ry="1.07" transform="translate(16.68 -15.82) rotate(9.45)"/>
      </g>
      <path d="M53.78,88.22c4.79-1.45,9.58-2.89,14.37-4.34,1.13-.34,1.95-1.59,1.57-2.77s-1.56-1.94-2.77-1.57c-4.79,1.45-9.58,2.89-14.37,4.34-1.13,.34-1.95,1.59-1.57,2.77s1.56,1.94,2.77,1.57h0Z"/>
      <path d="M98.04,84.2c4.68,.41,9.45,1.4,14.04,2.89,1.12,.36,2.51-.42,2.77-1.57,.28-1.23-.37-2.38-1.57-2.77-4.95-1.6-10.06-2.59-15.24-3.05-1.18-.1-2.3,1.11-2.25,2.25,.06,1.31,.99,2.14,2.25,2.25h0Z"/>
      <g>
        <path d="M59.93,104.09c0,1.69,0,3.39,0,5.08,0,.59,.52,1.15,1.12,1.12s1.12-.49,1.12-1.12c0-1.69,0-3.39,0-5.08,0-.59-.52-1.15-1.12-1.12s-1.12,.49-1.12,1.12h0Z"/>
        <path d="M63.13,118.96c0,1.19,0,2.38,0,3.58,0,.59,.52,1.15,1.12,1.12s1.12-.49,1.12-1.12c0-1.19,0-2.38,0-3.58,0-.59-.52-1.15-1.12-1.12s-1.13,.49-1.12,1.12h0Z"/>
        <path d="M60.3,133.64v4.71c0,.59,.52,1.15,1.12,1.12s1.12-.49,1.12-1.12v-4.71c0-.59-.52-1.15-1.12-1.12s-1.12,.49-1.12,1.12h0Z"/>
      </g>
      <g>
        <path d="M100.36,102.55c0,1.69,0,3.39,0,5.08,0,.59,.52,1.15,1.12,1.12s1.12-.49,1.12-1.12c0-1.69,0-3.39,0-5.08,0-.59-.52-1.15-1.12-1.12s-1.12,.49-1.12,1.12h0Z"/>
        <path d="M103.56,117.42c0,1.19,0,2.38,0,3.58,0,.59,.52,1.15,1.12,1.12s1.12-.49,1.12-1.12c0-1.19,0-2.38,0-3.58,0-.59-.52-1.15-1.12-1.12s-1.12,.49-1.12,1.12h0Z"/>
      </g>
      <g>
        <circle class="cls-9" cx="102.53" cy="199.03" r="5.39"/>
        <path d="M106.69,199.03c-.02,1.7-1.09,3.33-2.68,3.89-1.74,.6-3.57,.12-4.74-1.32-1.04-1.28-1.17-3.24-.29-4.71s2.63-2.27,4.26-1.96c2.03,.39,3.42,2.09,3.45,4.1,.02,1.6,2.51,1.6,2.49,0-.04-2.8-1.76-5.25-4.37-6.23s-5.62-.15-7.33,1.96-2.09,5.24-.64,7.67,4.25,3.61,7,3.12c3.1-.56,5.3-3.42,5.34-6.51,.02-1.6-2.46-1.6-2.49,0Z"/>
        <circle class="cls-9" cx="102.53" cy="214.28" r="5.39"/>
        <path d="M106.69,214.28c-.02,1.7-1.09,3.33-2.68,3.89-1.74,.6-3.57,.12-4.74-1.32-1.04-1.28-1.17-3.24-.29-4.71s2.63-2.27,4.26-1.96c2.03,.39,3.42,2.09,3.45,4.1,.02,1.6,2.51,1.6,2.49,0-.04-2.8-1.76-5.25-4.37-6.23s-5.62-.15-7.33,1.96-2.09,5.24-.64,7.67,4.25,3.61,7,3.12c3.1-.56,5.3-3.42,5.34-6.51,.02-1.6-2.46-1.6-2.49,0Z"/>
      </g>
    </g>
  </g>
</svg>