<?xml version="1.0" encoding="UTF-8"?>
<svg id="Layer_2" data-name="Layer 2" xmlns="http://www.w3.org/2000/svg" viewBox="0 0 162.79 308.72">
  <defs>
    <style>
      .cls-1 {
        stroke-width: 3px;
      }

      .cls-1, .cls-2 {
        stroke: #000;
      }

      .cls-1, .cls-2, .cls-3 {
        fill: none;
        stroke-miterlimit: 10;
      }

      .cls-4 {
        fill: #042d68;
      }

      .cls-5 {
        fill: #fff;
      }

      .cls-6 {
        fill: #c1e2fd;
      }

      .cls-7 {
        fill: #1750a3;
      }

      .cls-8 {
        fill: #6e6372;
      }

      .cls-9 {
        fill: #88c3ea;
      }

      .cls-10 {
        fill: #594d5e;
      }

      .cls-11 {
        fill: #4ff797;
      }

      .cls-2 {
        stroke-width: 3.75px;
      }

      .cls-3 {
        stroke: #6a8fc2;
        stroke-width: 2px;
      }
    </style>
  </defs>
  <g id="Layer_1-2" data-name="Layer 1">
    <g>
      <g>
        <path class="cls-6" d="M6.99,110.48h9.06s0-18.07,0-18.07H6.99c-2.79,0-5.05,2.26-5.05,5.05v7.96c0,2.79,2.26,5.05,5.05,5.05Z"/>
        <path class="cls-9" d="M3.9,99.53c2.44,2.77,6.44,3.81,10.09,3.31,.25-.03,.55-.05,.68,.16,.07,.11,.07,.24,.06,.36-.04,1.47-.08,2.95-.12,4.42,0,.24-.02,.49-.14,.69-.14,.22-.4,.33-.65,.42-2.42,.88-5.11,.72-7.62,.15-.79-.18-1.58-.41-2.25-.86-1.07-.72-1.72-1.96-1.98-3.22-.27-1.27-.2-2.58-.12-3.87"/>
        <path d="M16.05,90.5c-2.59,0-5.19,0-7.78,0-1.52,0-2.96,.05-4.38,.73-2.38,1.15-3.82,3.63-3.87,6.24s0,5.1,0,7.64c.02,4.27,3.22,7.28,7.44,7.28,2.86,0,5.73,0,8.59,0,2.46,0,2.46-3.82,0-3.82s-4.72,0-7.08,0c-.86,0-1.92,.11-2.71-.08-1.48-.37-2.4-1.64-2.43-3.13-.04-2.46,0-4.92,0-7.37,0-1.23,.26-2.31,1.26-3.05,.9-.67,1.83-.62,2.92-.62,2.68,0,5.35,0,8.03,0,2.46,0,2.46-3.82,0-3.82h0Z"/>
      </g>
      <g>
        <path class="cls-6" d="M155.8,110.48h-9.06v-18.07h9.06c2.79,0,5.05,2.26,5.05,5.05v7.96c0,2.79-2.26,5.05-5.05,5.05Z"/>
        <path class="cls-9" d="M158.89,99.53c-2.44,2.77-6.44,3.81-10.09,3.31-.25-.03-.55-.05-.68,.16-.07,.11-.07,.24-.06,.36,.04,1.47,.08,2.95,.12,4.42,0,.24,.02,.49,.14,.69,.14,.22,.4,.33,.65,.42,2.42,.88,5.11,.72,7.62,.15,.79-.18,1.58-.41,2.25-.86,1.07-.72,1.72-1.96,1.98-3.22,.27-1.27,.2-2.58,.12-3.87"/>
        <path d="M146.73,94.32h7.08c.86,0,1.92-.11,2.71,.08,1.48,.37,2.4,1.64,2.43,3.13,.04,2.46,0,4.92,0,7.37,0,1.23-.26,2.31-1.26,3.05-.9,.67-1.83,.62-2.92,.62h-8.03c-2.46,0-2.46,3.82,0,3.82h7.78c1.52,0,2.96-.05,4.38-.73,2.38-1.15,3.82-3.63,3.87-6.24s0-5.1,0-7.64c-.02-4.27-3.22-7.28-7.44-7.28h-8.59c-2.46,0-2.46,3.82,0,3.82h0Z"/>
      </g>
      <path class="cls-6" d="M82.3,282.3c-29.89,0-54.12-35.66-54.12-72.25s24.23-48.25,54.12-48.25,54.12,11.66,54.12,48.25-24.23,72.25-54.12,72.25Z"/>
      <path class="cls-9" d="M136.05,209.93c0,36.59-24.23,72.25-54.12,72.25s-54.12-35.66-54.12-72.25c0-1.62,.05-3.19,.14-4.71,2.01,34.83,25.41,67.41,53.98,67.41s51.97-32.58,53.98-67.41c.09,1.52,.14,3.09,.14,4.71Z"/>
      <ellipse class="cls-6" cx="81.9" cy="99.13" rx="66.25" ry="54.12"/>
      <path class="cls-9" d="M147.75,100.82c0,29.89-29.66,54.13-66.25,54.13S15.25,130.71,15.25,100.82c0-1.85,.11-3.68,.34-5.48,3.39,27.29,31.61,48.59,65.91,48.59s62.52-21.3,65.91-48.59c.23,1.8,.34,3.63,.34,5.48Z"/>
      <ellipse class="cls-7" cx="81.9" cy="99.13" rx="52.66" ry="38.5"/>
      <path class="cls-4" d="M134.96,99.49c0,21.26-23.57,38.5-52.65,38.5s-52.66-17.24-52.66-38.5c0-2.28,.27-4.52,.79-6.7,4.35,18.07,25.92,31.8,51.87,31.8s47.52-13.73,51.86-31.8c.52,2.18,.79,4.42,.79,6.7Z"/>
      <g>
        <path d="M81.53,37.06c-.27-.31-.53-.64-.82-.94-.13-.13-.4-.56-.03,0l-1.3,2.26c-.73-.24-.97-.3-.72-.19,.11,.08,.24,.13,.37,.15,.45,0,.75,.09,1.17-.15,.47-.27,.76-.78,.76-1.32,0-1.2-1.21-2.26-1.67-3.28-.75-1.67,.57-2.59,1.79-3.51,1.39-1.04,2.62-2.14,3.65-3.56,1.99-2.72,2.76-6.12,1.85-9.4s-3.15-6.01-2.89-9.4c.15-1.93-2.86-1.92-3,0-.23,2.98,1.2,5.56,2.3,8.23,1.21,2.93,1.34,5.67-.42,8.41-.79,1.24-1.85,2.24-3.02,3.12-1.06,.79-2.18,1.58-2.87,2.74-.77,1.27-.86,2.75-.32,4.13,.3,.79,.76,1.48,1.21,2.2,.12,.2,.23,.44,.38,.62,.3,.38-.09-.07,.05-.68l.69-.9h-.01c.39-.04,.77-.09,1.16-.14,.79,.16-.24-.06-.45-.07-1.11-.05-1.91,1.33-1.3,2.26,.37,.55,.88,1.04,1.32,1.54,1.27,1.46,3.38-.67,2.12-2.12h0Z"/>
        <circle cx="82.3" cy="7.73" r="7.73"/>
      </g>
      <g>
        <line class="cls-3" x1="44.27" y1="72.34" x2="44.27" y2="126.7"/>
        <line class="cls-3" x1="55.39" y1="66.65" x2="55.39" y2="130.84"/>
        <line class="cls-3" x1="69.32" y1="62.46" x2="69.32" y2="136.52"/>
      </g>
      <g>
        <line class="cls-3" x1="119.88" y1="72.34" x2="119.88" y2="126.7"/>
        <line class="cls-3" x1="108.76" y1="66.65" x2="108.76" y2="130.84"/>
        <line class="cls-3" x1="94.83" y1="62.46" x2="94.83" y2="136.52"/>
      </g>
      <line class="cls-3" x1="82.3" y1="62.46" x2="82.3" y2="136.52"/>
      <path d="M90.61,63.54c16.68,2.08,36.25,11.44,40.85,29.09,1.92,7.37,.46,15.01-3.55,21.44-4.45,7.15-11.51,12.35-19.07,15.84-17.45,8.06-39.65,7.64-56.66-1.38-7.21-3.82-13.7-9.32-17.53-16.63-3.49-6.66-4.09-14.32-1.67-21.41,2.56-7.49,8.31-13.62,14.84-17.91,7.79-5.12,16.95-8.12,26.18-9.14,2.62-.29,5.25-.42,7.89-.43,2.9,0,2.9-4.51,0-4.5-10.72,.03-21.48,2.27-31.08,7.13-8,4.05-15.33,10.14-19.71,18.07-4.11,7.43-5.27,16.25-2.82,24.42,2.57,8.56,8.58,15.56,15.77,20.67,17.05,12.12,41.03,14.2,60.57,7.56,16.67-5.66,33.33-19.71,32.12-38.92s-20.07-32.7-37.84-36.96c-2.74-.66-5.51-1.12-8.3-1.46-1.21-.15-2.25,1.14-2.25,2.25,0,1.34,1.04,2.1,2.25,2.25h0Z"/>
      <g>
        <rect class="cls-11" x="49.3" y="86.42" width="21.1" height="7.34" rx="1.07" ry="1.07" transform="translate(-13.72 10.81) rotate(-9.26)"/>
        <rect class="cls-1" x="49.3" y="86.42" width="21.1" height="7.34" rx="1.07" ry="1.07" transform="translate(-13.72 10.81) rotate(-9.26)"/>
      </g>
      <g>
        <rect class="cls-11" x="94.2" y="86.42" width="21.1" height="7.34" rx="1.07" ry="1.07" transform="translate(165.92 213.97) rotate(-156.98)"/>
        <rect class="cls-1" x="94.2" y="86.42" width="21.1" height="7.34" rx="1.07" ry="1.07" transform="translate(165.92 213.97) rotate(-156.98)"/>
      </g>
      <path class="cls-5" d="M82.3,248.94c-18.61,0-33.7-22.21-33.7-44.99s15.09-30.04,33.7-30.04,33.7,7.26,33.7,30.04-15.09,44.99-33.7,44.99Z"/>
      <path class="cls-6" d="M116,203.67c0,22.78-15.09,44.99-33.71,44.99s-33.41-21.79-33.69-44.34c3.27,19.33,16.78,36.08,32.94,36.08,18.6,0,33.69-22.19,33.7-44.96,.5,2.49,.76,5.22,.76,8.23Z"/>
      <path d="M82.3,247.62c-15.56-.1-26.06-15.51-29.84-29.02-3.58-12.81-3.38-30.07,9.46-37.65,5.37-3.17,11.72-4.27,17.87-4.5s13.07,.3,19.13,2.66c5.37,2.09,9.78,5.92,12.33,11.12,3.29,6.72,3.39,14.98,2.23,22.23-1.3,8.12-4.4,15.97-9.31,22.58-4.19,5.63-10.04,10.39-16.97,12.02-1.62,.38-3.24,.55-4.9,.56-2.46,.02-2.46,3.84,0,3.82,17.26-.12,29.18-16.5,33.47-31.65,4.11-14.48,3.32-33.4-10.94-42.01-5.9-3.56-12.92-4.86-19.72-5.14s-14.49,.33-21.08,3.04c-6.1,2.51-11.24,6.86-14.1,12.87-3.63,7.63-3.81,16.52-2.52,24.73,1.36,8.69,4.79,17.23,10.15,24.24,4.78,6.25,11.31,11.56,19.13,13.28,1.84,.41,3.73,.62,5.61,.63,2.46,.02,2.46-3.8,0-3.82Z"/>
      <path class="cls-5" d="M43.56,181.38c.22-.32,.44-.63,.67-.93s.02-.12-.05,.06c.05-.14,.26-.33,.36-.45,.46-.56,.95-1.1,1.46-1.62,.54-.55,1.09-1.07,1.67-1.57,.26-.22,.53-.44,.8-.66,.28-.23-.43,.31,.03-.02,.16-.11,.31-.23,.46-.34,1.18-.84,2.43-1.59,3.74-2.23,.31-.15,.62-.29,.94-.44,.68-.31-.38,.14,.02-.01,.18-.07,.35-.14,.53-.21,.72-.27,1.44-.51,2.18-.72,1.51-.43,2.6-2.14,2.1-3.69s-2.07-2.56-3.69-2.1c-6.69,1.93-12.46,6.17-16.4,11.9-.89,1.3-.28,3.39,1.08,4.1,1.53,.81,3.15,.31,4.1-1.08h0Z"/>
      <path class="cls-5" d="M64.05,170.11c3.86,0,3.87-6,0-6s-3.87,6,0,6h0Z"/>
      <path d="M47.91,261.81c-8.89-10.91-14.44-24.46-16.72-38.29-1.94-11.74-1.89-24.98,3.13-36.01,3.82-8.39,10.47-14.69,18.81-18.5,8.91-4.07,19-5.26,28.7-5.3s19.88,1.04,28.91,4.97c8.34,3.63,15.13,9.71,19.12,17.93,5.07,10.44,5.41,22.89,3.96,34.2-1.61,12.52-6.04,24.81-12.99,35.35-6.12,9.28-14.65,17.67-25.19,21.69-5.09,1.94-10.48,2.82-15.92,2.45-6.74-.46-13.18-2.95-18.82-6.6-2.89-1.87-5.54-4.06-8.02-6.44-1.77-1.71-4.47,.99-2.7,2.7,10.21,9.84,23.74,15.9,38.08,13.78,11.56-1.7,21.78-8.6,29.42-17.21,8.71-9.82,14.69-22.02,17.9-34.71s4.08-26.46,.62-39.07c-2.7-9.82-8.54-18.36-17.11-23.94-8.55-5.56-18.83-7.87-28.88-8.64-10.69-.82-21.88-.23-32.17,2.93-9.34,2.87-17.78,8.17-23.45,16.24-6.79,9.66-8.65,21.95-8.26,33.52,.51,15.13,4.91,30.28,12.85,43.19,1.82,2.95,3.84,5.77,6.03,8.46,.66,.81,2.02,.67,2.7,0,.8-.78,.65-1.91,0-2.7h0Z"/>
      <path class="cls-5" d="M33.99,70.84c1.81-2.07,3.79-3.99,5.92-5.72,.12-.09,.23-.19,.35-.28,.07-.05,.57-.45,.22-.18-.32,.25,.08-.06,.14-.1,.15-.11,.3-.22,.45-.33,.54-.4,1.09-.78,1.64-1.15,1.17-.79,2.38-1.52,3.61-2.2,1.38-.76,1.94-2.77,1.08-4.1s-2.63-1.89-4.1-1.08c-5.09,2.81-9.72,6.52-13.55,10.9-1.03,1.18-1.25,3.1,0,4.24,1.13,1.04,3.14,1.26,4.24,0h0Z"/>
      <path class="cls-5" d="M52.95,57.41c3.86,0,3.87-6,0-6s-3.87,6,0,6h0Z"/>
      <path d="M69.83,47.82c20.99-3.23,44.09,2.01,60.03,16.51,6.61,6.02,11.87,13.58,14.49,22.18s2.48,17.86-.37,26.4c-6.06,18.12-23.05,30.47-40.88,35.53-20.2,5.72-43.08,3.1-60.9-8.23-7.74-4.93-14.47-11.57-18.96-19.62-4.66-8.35-6.66-18.13-5.25-27.62,.48-3.23,1.34-6.38,2.48-9.43,.86-2.3-2.83-3.3-3.68-1.02-4.02,10.72-4.05,22.73,.08,33.42,3.5,9.05,9.56,16.93,17.09,23.01,17.27,13.96,40.7,18.72,62.35,14.94,19.97-3.48,39.75-15.15,48.84-33.84,4.23-8.7,5.78-18.39,4.37-27.97s-5.84-18.22-12.04-25.42c-14.27-16.57-36.96-24.27-58.42-23.53-3.43,.12-6.84,.47-10.23,.99-1.02,.16-1.59,1.44-1.33,2.35,.3,1.09,1.32,1.49,2.35,1.33h0Z"/>
      <path d="M24.38,75.72c8.23-13.2,22.06-21.94,36.85-26.05,2.36-.66,1.36-4.34-1.02-3.68-15.75,4.38-30.39,13.77-39.14,27.81-1.3,2.09,2,4.01,3.3,1.93h0Z"/>
      <g>
        <path d="M37.35,211.1c.99,9.58,3.99,18.82,8.9,27.12,.98,1.66,3.58,.15,2.59-1.51-4.62-7.82-7.56-16.56-8.49-25.6-.2-1.9-3.2-1.92-3,0h0Z"/>
        <path d="M50.78,243.79c1.93,0,1.93-3,0-3s-1.93,3,0,3h0Z"/>
      </g>
      <path d="M38.94,133.31c4.51,3.63,9.44,6.68,14.75,9.01,.74,.32,1.61,.22,2.05-.54,.37-.64,.21-1.73-.54-2.05-5.06-2.22-9.84-5.07-14.14-8.54-.63-.51-1.51-.62-2.12,0-.53,.53-.63,1.61,0,2.12h0Z"/>
      <path d="M61.23,145.32c1.93,0,1.93-3,0-3s-1.93,3,0,3h0Z"/>
      <ellipse class="cls-6" cx="82.3" cy="301.09" rx="28.07" ry="7.62"/>
      <g>
        <rect class="cls-8" x="38.74" y="180.77" width="87.12" height="60.66" rx="7.39" ry="7.39" transform="translate(-14.66 6.32) rotate(-4.04)"/>
        <path class="cls-10" d="M118.99,238.59l-72.16,5.09c-4.07,.29-7.6-2.78-7.89-6.85l-.2-2.78c.93,.34,1.95,.5,3.01,.42l72.16-5.09c4.07-.29,7.14-3.83,6.85-7.9l-3.03-42.98c2.68,.95,4.67,3.41,4.88,6.44l3.23,45.75c.29,4.08-2.78,7.61-6.85,7.9Z"/>
        <path d="M120.52,236.9c-6.61,.47-13.21,.93-19.82,1.4-11.97,.84-23.94,1.69-35.9,2.53l-12.75,.9c-2.69,.19-5.76,.84-7.94-1.19-2.35-2.19-1.94-6.44-2.15-9.38-.39-5.58-.79-11.16-1.18-16.74s-.79-11.26-1.19-16.89c-.12-1.67-.24-3.34-.35-5.01-.11-1.54-.21-3.02,.6-4.44,1.68-2.94,4.75-2.81,7.65-3.01l12.51-.88c11.92-.84,23.84-1.68,35.76-2.52,6.83-.48,13.66-1.1,20.49-1.45,3.06-.16,5.68,1.9,6,5.01,.1,.97,.14,1.95,.21,2.92,.35,4.98,.7,9.97,1.06,14.95,.65,9.24,1.44,18.47,1.96,27.72,.17,3.01-1.8,5.79-4.94,6.08-1.03,.1-1.91,.81-1.91,1.91,0,.96,.88,2.01,1.91,1.91,4.8-.45,8.67-4.18,8.78-9.11,.02-.98-.11-1.97-.18-2.94-.35-4.91-.69-9.82-1.04-14.72-.68-9.56-1.2-19.15-2.03-28.7-.33-3.88-2.7-7.21-6.47-8.43-1.4-.46-2.82-.46-4.26-.36l-10.03,.71c-11.98,.85-23.95,1.69-35.93,2.54-8.29,.59-16.59,1.14-24.88,1.76-5.58,.41-9.52,4.76-9.12,10.39l.85,11.97c.75,10.69,1.51,21.39,2.26,32.08,.14,1.96,.4,3.87,1.49,5.57,1.85,2.89,5.09,4.51,8.51,4.32,2.52-.14,5.04-.36,7.55-.53,11.54-.81,23.07-1.63,34.61-2.44l28.33-2,1.56-.11c2.44-.17,2.46-3.99,0-3.82Z"/>
        <circle class="cls-5" cx="83.71" cy="211" r="11.49"/>
        <circle class="cls-2" cx="83.71" cy="211" r="11.49"/>
        <g>
          <path d="M38.44,193.71c7.11-.33,14.22-.65,21.32-.98,1.02-.05,2.05-.09,3.07-.14,1.44-.07,1.45-2.32,0-2.25-7.11,.33-14.22,.65-21.32,.98-1.02,.05-2.05,.09-3.07,.14-1.44,.07-1.45,2.32,0,2.25h0Z"/>
          <path d="M67.56,192.32c1.45,0,1.45-2.25,0-2.25s-1.45,2.25,0,2.25h0Z"/>
        </g>
        <circle class="cls-10" cx="115.7" cy="194.24" r="2.21"/>
        <circle class="cls-10" cx="111.97" cy="188.57" r=".74"/>
        <circle class="cls-10" cx="109.38" cy="191.2" r=".83"/>
      </g>
      <g>
        <g>
          <path class="cls-6" d="M110.89,215.79h0c-2.01-3.17-1.27-7.35,1.7-9.65l21.87-16.93c3.4-2.63,8.32-1.76,10.61,1.86l2.8,4.42c2.3,3.63,.97,8.45-2.86,10.39l-24.66,12.51c-3.35,1.7-7.44,.57-9.45-2.6Z"/>
          <path class="cls-9" d="M113.37,206.35l21.86-16.93c3.4-2.62,8.32-1.76,10.61,1.87l2.37,3.74c-2.48-1.47-5.72-1.4-8.18,.5l-21.86,16.93c-2.05,1.59-3.04,4.08-2.79,6.51-1.49-.53-2.81-1.54-3.71-2.96-2.01-3.18-1.27-7.36,1.7-9.66Z"/>
          <path d="M112.54,214.83c-1.31-2.07-1.12-4.83,.6-6.62,.5-.52,1.1-.95,1.67-1.4l6.93-5.37c4.65-3.6,9.21-7.37,13.97-10.82,.12-.08,.79-.5,1.3-.7,1.1-.41,2.29-.44,3.42-.11,1.75,.51,2.7,1.79,3.62,3.25,.83,1.31,1.81,2.6,2.49,3.99,.98,2.01,.56,4.5-1.01,6.09-1.34,1.36-3.61,2.15-5.28,3l-9.45,4.79-9.7,4.92c-.58,.29-1.15,.61-1.74,.88-2.45,1.14-5.34,.34-6.84-1.92-1.36-2.04-4.67-.13-3.3,1.93,2.87,4.31,8.02,5.34,12.52,3.05l7.81-3.96c3.67-1.86,7.35-3.73,11.02-5.59,1.93-.98,3.96-1.86,5.82-2.97,2.62-1.57,4.25-4.35,4.47-7.38,.17-2.35-.75-4.39-1.97-6.31-.96-1.52-1.85-3.17-3-4.56-1.86-2.25-4.91-3.51-7.82-3.21-3.11,.32-5.28,2.26-7.63,4.08l-9.18,7.11c-2.83,2.19-5.66,4.39-8.5,6.58-.51,.4-1.04,.79-1.54,1.19-2.27,1.83-3.59,4.8-3.37,7.72,.12,1.5,.56,2.98,1.36,4.25,1.31,2.07,4.62,.16,3.3-1.93Z"/>
        </g>
        <path d="M145.65,194.53c-4.08,2.69-8.15,5.37-12.23,8.06-.68,.45-.96,1.33-.54,2.05,.39,.67,1.37,.99,2.05,.54,4.08-2.69,8.15-5.37,12.23-8.06,.68-.45,.96-1.33,.54-2.05-.39-.67-1.37-.99-2.05-.54h0Z"/>
        <path d="M129.41,207.97c1.93,0,1.93-3,0-3s-1.93,3,0,3h0Z"/>
      </g>
      <g>
        <path class="cls-6" d="M55.36,215.73h0c-2,3.18-6.08,4.32-9.44,2.63l-24.71-12.42c-3.84-1.93-5.18-6.74-2.9-10.38l2.78-4.43c2.28-3.64,7.2-4.52,10.61-1.9l21.92,16.85c2.98,2.29,3.73,6.47,1.73,9.65Z"/>
        <path class="cls-9" d="M45.77,217.57l-24.71-12.41c-3.83-1.94-5.18-6.75-2.89-10.38l2.35-3.75c-.26,2.87,1.21,5.76,3.98,7.16l24.71,12.41c2.32,1.16,4.99,.98,7.08-.29,.16,1.57-.18,3.2-1.07,4.62-2,3.19-6.09,4.32-9.45,2.63Z"/>
        <path d="M53.71,214.77c-1.25,1.99-3.75,2.9-6,2.26-.65-.18-1.22-.51-1.82-.81l-7.84-3.94c-5.26-2.64-10.57-5.21-15.79-7.94-1.58-.83-2.74-2.14-3.07-3.92s.37-3.27,1.3-4.75c.8-1.28,1.54-2.65,2.44-3.87,1.34-1.81,3.73-2.6,5.88-1.95,1.86,.57,3.61,2.32,5.13,3.49,2.78,2.14,5.57,4.28,8.35,6.42s5.8,4.46,8.71,6.69c.55,.42,1.12,.82,1.65,1.27,.57,.48,1.46,1.73,1.75,2.86,.38,1.46,.06,2.91-.7,4.18-1.26,2.12,2.04,4.04,3.3,1.93,1.65-2.78,1.79-6.12,.36-9.02-.75-1.51-1.94-2.6-3.25-3.6-2.36-1.81-4.72-3.62-7.07-5.44-3.26-2.5-6.52-5.01-9.77-7.51-1.73-1.33-3.43-2.89-5.31-4.02-2.62-1.57-5.87-1.66-8.62-.4-2.1,.97-3.4,2.69-4.59,4.59-.98,1.56-2.13,3.11-2.82,4.83-1.09,2.71-.75,5.99,.91,8.41s4.2,3.46,6.71,4.72l10.51,5.28,9.39,4.72c.56,.28,1.11,.57,1.67,.84,2.82,1.32,6.12,1.28,8.81-.35,1.25-.75,2.31-1.81,3.08-3.05,1.31-2.09-1.99-4.01-3.3-1.93Z"/>
      </g>
      <path d="M51.67,82.26l14.7-.59c1.17-.05,2.31-1,2.25-2.25-.05-1.18-.99-2.3-2.25-2.25l-14.7,.59c-1.17,.05-2.31,1-2.25,2.25,.05,1.18,.99,2.3,2.25,2.25h0Z"/>
      <path d="M98.61,77.08c.97,.61,1.92,1.24,2.86,1.89,.47,.33,.93,.66,1.4,1,.24,.18,.49,.36,.73,.54,.11,.08,.21,.16,.32,.24,.33,.25-.09-.08,.1,.08,1.83,1.44,3.59,2.95,5.28,4.55,.85,.81,2.35,.91,3.18,0s.91-2.32,0-3.18c-3.56-3.37-7.45-6.4-11.6-9.01-1-.63-2.52-.24-3.08,.81-.59,1.11-.26,2.41,.81,3.08h0Z"/>
    </g>
  </g>
</svg>