<?xml version="1.0" encoding="UTF-8"?>
<svg id="Layer_2" data-name="Layer 2" xmlns="http://www.w3.org/2000/svg" viewBox="0 0 162.79 308.72">
  <defs>
    <style>
      .cls-1 {
        fill: #042d68;
      }

      .cls-2 {
        fill: #fff;
      }

      .cls-3 {
        fill: #c1e2fd;
      }

      .cls-4 {
        fill: #1750a3;
      }

      .cls-5 {
        fill: #88c3ea;
      }

      .cls-6 {
        fill: #4ff797;
      }

      .cls-7 {
        fill: none;
        stroke: #6a8fc2;
        stroke-miterlimit: 10;
        stroke-width: 2px;
      }
    </style>
  </defs>
  <g id="Layer_1-2" data-name="Layer 1">
    <g>
      <g>
        <path class="cls-3" d="M6.99,110.48h9.06s0-18.07,0-18.07H6.99c-2.79,0-5.05,2.26-5.05,5.05v7.96c0,2.79,2.26,5.05,5.05,5.05Z"/>
        <path class="cls-5" d="M3.9,99.53c2.44,2.77,6.44,3.81,10.09,3.31,.25-.03,.55-.05,.68,.16,.07,.11,.07,.24,.06,.36-.04,1.47-.08,2.95-.12,4.42,0,.24-.02,.49-.14,.69-.14,.22-.4,.33-.65,.42-2.42,.88-5.11,.72-7.62,.15-.79-.18-1.58-.41-2.25-.86-1.07-.72-1.72-1.96-1.98-3.22-.27-1.27-.2-2.58-.12-3.87"/>
        <path d="M16.05,90.5c-2.59,0-5.19,0-7.78,0-1.52,0-2.96,.05-4.38,.73-2.38,1.15-3.82,3.63-3.87,6.24s0,5.1,0,7.64c.02,4.27,3.22,7.28,7.44,7.28,2.86,0,5.73,0,8.59,0,2.46,0,2.46-3.82,0-3.82s-4.72,0-7.08,0c-.86,0-1.92,.11-2.71-.08-1.48-.37-2.4-1.64-2.43-3.13-.04-2.46,0-4.92,0-7.37,0-1.23,.26-2.31,1.26-3.05,.9-.67,1.83-.62,2.92-.62,2.68,0,5.35,0,8.03,0,2.46,0,2.46-3.82,0-3.82h0Z"/>
      </g>
      <g>
        <path class="cls-3" d="M155.8,110.48h-9.06v-18.07h9.06c2.79,0,5.05,2.26,5.05,5.05v7.96c0,2.79-2.26,5.05-5.05,5.05Z"/>
        <path class="cls-5" d="M158.89,99.53c-2.44,2.77-6.44,3.81-10.09,3.31-.25-.03-.55-.05-.68,.16-.07,.11-.07,.24-.06,.36,.04,1.47,.08,2.95,.12,4.42,0,.24,.02,.49,.14,.69,.14,.22,.4,.33,.65,.42,2.42,.88,5.11,.72,7.62,.15,.79-.18,1.58-.41,2.25-.86,1.07-.72,1.72-1.96,1.98-3.22,.27-1.27,.2-2.58,.12-3.87"/>
        <path d="M146.73,94.32h7.08c.86,0,1.92-.11,2.71,.08,1.48,.37,2.4,1.64,2.43,3.13,.04,2.46,0,4.92,0,7.37,0,1.23-.26,2.31-1.26,3.05-.9,.67-1.83,.62-2.92,.62h-8.03c-2.46,0-2.46,3.82,0,3.82h7.78c1.52,0,2.96-.05,4.38-.73,2.38-1.15,3.82-3.63,3.87-6.24s0-5.1,0-7.64c-.02-4.27-3.22-7.28-7.44-7.28h-8.59c-2.46,0-2.46,3.82,0,3.82h0Z"/>
      </g>
      <path class="cls-3" d="M82.3,282.3c-29.89,0-54.12-35.66-54.12-72.25s24.23-48.25,54.12-48.25,54.12,11.66,54.12,48.25-24.23,72.25-54.12,72.25Z"/>
      <path class="cls-5" d="M135.47,209.29c0,36.59-24.23,72.25-54.12,72.25s-54.12-35.66-54.12-72.25c0-1.62,.05-3.19,.14-4.71,2.01,34.83,25.41,67.41,53.98,67.41s51.97-32.58,53.98-67.41c.09,1.52,.14,3.09,.14,4.71Z"/>
      <ellipse class="cls-3" cx="81.9" cy="99.13" rx="66.25" ry="54.12"/>
      <path class="cls-5" d="M147.75,100.82c0,29.89-29.66,54.13-66.25,54.13S15.25,130.71,15.25,100.82c0-1.85,.11-3.68,.34-5.48,3.39,27.29,31.61,48.59,65.91,48.59s62.52-21.3,65.91-48.59c.23,1.8,.34,3.63,.34,5.48Z"/>
      <ellipse class="cls-4" cx="81.9" cy="99.13" rx="52.66" ry="38.5"/>
      <path class="cls-1" d="M134.96,99.49c0,21.26-23.57,38.5-52.65,38.5s-52.66-17.24-52.66-38.5c0-2.28,.27-4.52,.79-6.7,4.35,18.07,25.92,31.8,51.87,31.8s47.52-13.73,51.86-31.8c.52,2.18,.79,4.42,.79,6.7Z"/>
      <g>
        <path d="M81.53,37.06c-.27-.31-.53-.64-.82-.94-.13-.13-.4-.56-.03,0l-1.3,2.26c-.73-.24-.97-.3-.72-.19,.11,.08,.24,.13,.37,.15,.45,0,.75,.09,1.17-.15,.47-.27,.76-.78,.76-1.32,0-1.2-1.21-2.26-1.67-3.28-.75-1.67,.57-2.59,1.79-3.51,1.39-1.04,2.62-2.14,3.65-3.56,1.99-2.72,2.76-6.12,1.85-9.4s-3.15-6.01-2.89-9.4c.15-1.93-2.86-1.92-3,0-.23,2.98,1.2,5.56,2.3,8.23,1.21,2.93,1.34,5.67-.42,8.41-.79,1.24-1.85,2.24-3.02,3.12-1.06,.79-2.18,1.58-2.87,2.74-.77,1.27-.86,2.75-.32,4.13,.3,.79,.76,1.48,1.21,2.2,.12,.2,.23,.44,.38,.62,.3,.38-.09-.07,.05-.68l.69-.9h-.01c.39-.04,.77-.09,1.16-.14,.79,.16-.24-.06-.45-.07-1.11-.05-1.91,1.33-1.3,2.26,.37,.55,.88,1.04,1.32,1.54,1.27,1.46,3.38-.67,2.12-2.12h0Z"/>
        <circle cx="82.3" cy="7.73" r="7.73"/>
      </g>
      <g>
        <line class="cls-7" x1="44.27" y1="72.34" x2="44.27" y2="126.7"/>
        <line class="cls-7" x1="55.39" y1="66.65" x2="55.39" y2="130.84"/>
        <line class="cls-7" x1="69.32" y1="62.46" x2="69.32" y2="136.52"/>
      </g>
      <g>
        <line class="cls-7" x1="119.88" y1="72.34" x2="119.88" y2="126.7"/>
        <line class="cls-7" x1="108.76" y1="66.65" x2="108.76" y2="130.84"/>
        <line class="cls-7" x1="94.83" y1="62.46" x2="94.83" y2="136.52"/>
      </g>
      <line class="cls-7" x1="82.3" y1="62.46" x2="82.3" y2="136.52"/>
      <path d="M90.61,63.54c16.68,2.08,36.25,11.44,40.85,29.09,1.92,7.37,.46,15.01-3.55,21.44-4.45,7.15-11.51,12.35-19.07,15.84-17.45,8.06-39.65,7.64-56.66-1.38-7.21-3.82-13.7-9.32-17.53-16.63-3.49-6.66-4.09-14.32-1.67-21.41,2.56-7.49,8.31-13.62,14.84-17.91,7.79-5.12,16.95-8.12,26.18-9.14,2.62-.29,5.25-.42,7.89-.43,2.9,0,2.9-4.51,0-4.5-10.72,.03-21.48,2.27-31.08,7.13-8,4.05-15.33,10.14-19.71,18.07-4.11,7.43-5.27,16.25-2.82,24.42s8.58,15.56,15.77,20.67c17.05,12.12,41.03,14.2,60.57,7.56,16.67-5.66,33.33-19.71,32.12-38.92s-20.07-32.7-37.84-36.96c-2.74-.66-5.51-1.12-8.3-1.46-1.21-.15-2.25,1.14-2.25,2.25,0,1.34,1.04,2.1,2.25,2.25h0Z"/>
      <path class="cls-2" d="M82.3,248.94c-18.61,0-33.7-22.21-33.7-44.99s15.09-30.04,33.7-30.04,33.7,7.26,33.7,30.04-15.09,44.99-33.7,44.99Z"/>
      <path class="cls-3" d="M116,203.67c0,22.78-15.09,44.99-33.71,44.99s-33.41-21.79-33.69-44.34c3.27,19.33,16.78,36.08,32.94,36.08,18.6,0,33.69-22.19,33.7-44.96,.5,2.49,.76,5.22,.76,8.23Z"/>
      <path d="M58.04,183.83c5.66-5.22,13.57-6.99,21.05-7.35,6.18-.3,12.53,.13,18.43,2.12,4.85,1.64,9.3,4.57,12.16,8.88,3.56,5.36,4.54,11.9,4.4,18.22-.31,13.93-6.44,29.51-18.34,37.54-5.1,3.44-11.3,5.21-17.43,4.02s-11.78-5.09-16-9.9c-4.77-5.44-8.06-12.17-9.95-19.12-2.06-7.56-2.73-15.98-.64-23.6,.46-1.69,1.07-3.32,1.87-4.88,1.11-2.19-2.18-4.12-3.3-1.93-3.94,7.75-4.21,16.84-2.92,25.28,1.22,7.95,4.17,15.79,8.73,22.44,4.16,6.06,9.69,11.26,16.58,14.03s13.81,2.37,20.26-.43c14.25-6.21,22.44-22.46,24.44-37.17,1.03-7.55,.74-15.56-2.36-22.62-2.4-5.48-6.72-9.89-12.05-12.57-5.71-2.87-12.15-3.94-18.49-4.14-8.3-.27-17.19,.73-24.47,5.01-1.68,.99-3.25,2.18-4.69,3.5-1.81,1.67,.89,4.37,2.7,2.7h0Z"/>
      <path class="cls-2" d="M43.56,181.38c.22-.32,.44-.63,.67-.93s.02-.12-.05,.06c.05-.14,.26-.33,.36-.45,.46-.56,.95-1.1,1.46-1.62,.54-.55,1.09-1.07,1.67-1.57,.26-.22,.53-.44,.8-.66,.28-.23-.43,.31,.03-.02,.16-.11,.31-.23,.46-.34,1.18-.84,2.43-1.59,3.74-2.23,.31-.15,.62-.29,.94-.44,.68-.31-.38,.14,.02-.01,.18-.07,.35-.14,.53-.21,.72-.27,1.44-.51,2.18-.72,1.51-.43,2.6-2.14,2.1-3.69s-2.07-2.56-3.69-2.1c-6.69,1.93-12.46,6.17-16.4,11.9-.89,1.3-.28,3.39,1.08,4.1,1.53,.81,3.15,.31,4.1-1.08h0Z"/>
      <path class="cls-2" d="M64.05,170.11c3.86,0,3.87-6,0-6s-3.87,6,0,6h0Z"/>
      <path d="M85.16,163.74c11.82,.32,24.21,2.55,33.93,9.72s14.54,19.67,15.28,31.87c.98,15.9-2.85,32.2-10.64,46.07-6.75,12.01-17.1,23.14-30.59,27.31-6.79,2.1-14,2.21-20.84,.25-7.82-2.23-14.71-6.92-20.38-12.67-1.54-1.56-2.99-3.21-4.37-4.91-.65-.81-2.02-.67-2.7,0-.8,.78-.65,1.9,0,2.7,5.54,6.84,12.45,12.8,20.54,16.39,7.36,3.27,15.36,4.45,23.33,3.19,14.72-2.34,26.8-12.84,34.92-24.84,9.37-13.85,14.41-30.74,14.68-47.43,.22-13.82-3.09-28.32-13.5-38.09-9.3-8.73-22.13-12.17-34.56-13.13-1.7-.13-3.41-.21-5.11-.26-2.46-.07-2.46,3.75,0,3.82h0Z"/>
      <path d="M41.53,252.55c-5.12-8.82-8.55-18.53-10.27-28.57-1.53-8.96-1.78-18.46,.14-27.39,1.4-6.5,4.07-12.79,8.46-17.86,3.97-4.58,9.08-8.05,14.68-10.34,7.05-2.89,14.66-4.14,22.23-4.55,2.45-.13,2.46-3.95,0-3.82-13.74,.73-28.27,4.27-38.18,14.45-11.7,12.02-13.65,30.12-11.67,46.05,1.48,11.93,5.27,23.54,11.31,33.95,1.23,2.13,4.54,.2,3.3-1.93h0Z"/>
      <path class="cls-2" d="M33.99,70.84c1.81-2.07,3.79-3.99,5.92-5.72,.12-.09,.23-.19,.35-.28,.07-.05,.57-.45,.22-.18-.32,.25,.08-.06,.14-.1,.15-.11,.3-.22,.45-.33,.54-.4,1.09-.78,1.64-1.15,1.17-.79,2.38-1.52,3.61-2.2,1.38-.76,1.94-2.77,1.08-4.1s-2.63-1.89-4.1-1.08c-5.09,2.81-9.72,6.52-13.55,10.9-1.03,1.18-1.25,3.1,0,4.24,1.13,1.04,3.14,1.26,4.24,0h0Z"/>
      <path class="cls-2" d="M52.95,57.41c3.86,0,3.87-6,0-6s-3.87,6,0,6h0Z"/>
      <path d="M69.83,47.82c20.99-3.23,44.09,2.01,60.03,16.51,6.61,6.02,11.87,13.58,14.49,22.18s2.48,17.86-.37,26.4c-6.06,18.12-23.05,30.47-40.88,35.53-20.2,5.72-43.08,3.1-60.9-8.23-7.74-4.93-14.47-11.57-18.96-19.62-4.66-8.35-6.66-18.13-5.25-27.62,.48-3.23,1.34-6.38,2.48-9.43,.86-2.3-2.83-3.3-3.68-1.02-4.02,10.72-4.05,22.73,.08,33.42,3.5,9.05,9.56,16.93,17.09,23.01,17.27,13.96,40.7,18.72,62.35,14.94,19.97-3.48,39.75-15.15,48.84-33.84,4.23-8.7,5.78-18.39,4.37-27.97s-5.84-18.22-12.04-25.42c-14.27-16.57-36.96-24.27-58.42-23.53-3.43,.12-6.84,.47-10.23,.99-1.02,.16-1.59,1.44-1.33,2.35,.3,1.09,1.32,1.49,2.35,1.33h0Z"/>
      <path d="M24.38,75.72c8.23-13.2,22.06-21.94,36.85-26.05,2.36-.66,1.36-4.34-1.02-3.68-15.75,4.38-30.39,13.77-39.14,27.81-1.3,2.09,2,4.01,3.3,1.93h0Z"/>
      <g>
        <path d="M37.35,211.1c.99,9.58,3.99,18.82,8.9,27.12,.98,1.66,3.58,.15,2.59-1.51-4.62-7.82-7.56-16.56-8.49-25.6-.2-1.9-3.2-1.92-3,0h0Z"/>
        <path d="M50.78,243.79c1.93,0,1.93-3,0-3s-1.93,3,0,3h0Z"/>
      </g>
      <path d="M38.94,133.31c4.51,3.63,9.44,6.68,14.75,9.01,.74,.32,1.61,.22,2.05-.54,.37-.64,.21-1.73-.54-2.05-5.06-2.22-9.84-5.07-14.14-8.54-.63-.51-1.51-.62-2.12,0-.53,.53-.63,1.61,0,2.12h0Z"/>
      <path d="M61.23,145.32c1.93,0,1.93-3,0-3s-1.93,3,0,3h0Z"/>
      <ellipse class="cls-3" cx="82.3" cy="301.09" rx="28.07" ry="7.62"/>
      <g>
        <g>
          <path class="cls-3" d="M133.45,228.26h0c-3.75,.22-7.05-2.44-7.63-6.15l-4.25-27.32c-.66-4.24,2.47-8.13,6.76-8.39l5.22-.31c4.29-.26,7.86,3.23,7.71,7.52l-.97,27.64c-.13,3.75-3.1,6.79-6.84,7.01Z"/>
          <path class="cls-5" d="M126.38,221.53l-4.26-27.32c-.65-4.24,2.48-8.13,6.76-8.39l4.42-.27c-2.49,1.46-3.99,4.33-3.52,7.4l4.26,27.32c.4,2.56,2.1,4.63,4.35,5.59-1.18,1.05-2.71,1.72-4.38,1.82-3.76,.22-7.06-2.44-7.64-6.16Z"/>
          <path d="M133.45,226.35c-2.35,.14-4.58-1.18-5.45-3.41-.29-.74-.37-1.55-.49-2.33l-1.33-8.53c-.92-5.88-1.95-11.76-2.75-17.66,0-.05-.02-.09-.02-.14,.07,.56-.02-.54-.02-.52,0-.22,0-.45,.02-.67,.11-1.17,.65-2.28,1.46-3.13,1.3-1.36,2.9-1.63,4.67-1.73,1.45-.09,2.91-.24,4.36-.25,2.38-.02,4.53,1.52,5.23,3.81,.54,1.77,.15,4.05,.08,5.86-.13,3.59-.25,7.18-.38,10.78s-.25,7.24-.38,10.86c-.02,.65-.03,1.3-.07,1.95-.15,2.68-2.24,4.88-4.93,5.11-2.43,.2-2.45,4.02,0,3.82,5.14-.43,8.59-4.37,8.77-9.44l.31-8.87c.14-4.11,.29-8.22,.43-12.34,.07-2.13,.28-4.29,.21-6.42-.11-3.1-1.76-5.95-4.4-7.58-1.99-1.23-4.17-1.4-6.44-1.26-1.82,.11-3.75,.07-5.54,.44-2.92,.6-5.38,2.73-6.52,5.46s-.47,5.73-.02,8.62c.6,3.85,1.2,7.7,1.8,11.55,.55,3.5,1.09,7,1.64,10.5,.09,.6,.18,1.2,.28,1.8,.51,2.91,2.49,5.49,5.19,6.71,1.33,.6,2.81,.93,4.28,.84,2.44-.15,2.46-3.97,0-3.82Z"/>
        </g>
        <path d="M131.64,187.51c.38,4.87,.76,9.73,1.14,14.6,.06,.81,.64,1.5,1.5,1.5,.76,0,1.56-.69,1.5-1.5-.38-4.87-.76-9.73-1.14-14.6-.06-.81-.64-1.5-1.5-1.5-.76,0-1.56,.69-1.5,1.5h0Z"/>
        <path d="M134.24,209.04c1.93,0,1.93-3,0-3s-1.93,3,0,3h0Z"/>
      </g>
      <path class="cls-3" d="M20.6,234.67h0c-3.68-.73-6.21-4.14-5.83-7.88l2.77-27.51c.43-4.27,4.45-7.25,8.66-6.41l5.13,1.02c4.21,.83,6.79,5.11,5.57,9.23l-7.91,26.5c-1.07,3.6-4.71,5.79-8.39,5.06Z"/>
      <path class="cls-5" d="M14.56,226.2l2.52-27.77c.4-4.31,4.43-7.28,8.69-6.39l4.4,.91c-2.8,.77-4.98,3.17-5.27,6.29l-2.52,27.77c-.23,2.61,.93,5.08,2.9,6.6-1.42,.71-3.08,.96-4.75,.61-3.74-.78-6.33-4.25-5.98-8.03Z"/>
      <path d="M18.35,210.27c.25-2.44,.49-4.87,.74-7.31,.26-2.59,.15-5.51,2.47-7.25,2.56-1.92,5.84-.67,8.65-.12,1.58,.31,2.99,.84,4.01,2.17,1.08,1.42,1.32,3.18,.85,4.86-1.25,4.51-2.68,8.98-4.02,13.46s-2.5,8.7-3.88,13.01c-1.54,4.81-8.51,5.04-10.21,.21-.52-1.46-.23-3.15-.16-4.67,.07-1.37,.14-2.73,.21-4.1,.12-2.46-3.7-2.45-3.82,0-.07,1.37-.14,2.73-.21,4.1-.08,1.68-.28,3.38,.11,5.04,1.29,5.5,7.47,8.47,12.6,6.26,3.16-1.36,4.64-4.1,5.57-7.21,.85-2.85,1.7-5.7,2.55-8.54,1.63-5.48,3.35-10.93,4.9-16.43,1.32-4.66-.99-9.58-5.55-11.33-1.38-.53-2.91-.7-4.35-.99-1.82-.36-3.58-.78-5.45-.49-2.81,.43-5.41,2.26-6.71,4.81-.83,1.63-.99,3.33-1.17,5.11-.32,3.14-.63,6.28-.95,9.41-.1,1.03,.95,1.91,1.91,1.91,1.12,0,1.81-.88,1.91-1.91h0Z"/>
      <path d="M58.64,266.83c6.1,5.97,14.35,8.84,22.7,9.77,.81,.09,1.49-.75,1.5-1.5,0-.88-.7-1.41-1.5-1.5-7.54-.83-15.08-3.51-20.58-8.89-1.38-1.35-3.5,.77-2.12,2.12h0Z"/>
      <path d="M86.66,276.55c1.93,0,1.93-3,0-3s-1.93,3,0,3h0Z"/>
      <path d="M110.38,244.56c1.93,0,1.93-3,0-3s-1.93,3,0,3h0Z"/>
      <path d="M107.55,255.65c1.93,0,1.93-3,0-3s-1.93,3,0,3h0Z"/>
      <g>
        <rect x="43.87" y="87.12" width="31.73" height="9.73" rx="4.87" ry="4.87"/>
        <rect x="89" y="87.12" width="31.73" height="9.73" rx="4.87" ry="4.87"/>
      </g>
      <path d="M91.67,52.1l10.1-1.53-1.69-2.2c-1.1,1.66-2.2,3.32-3.3,4.98-.92,1.39-2.45,3.03-2.23,4.82,.12,.94,.78,1.75,1.71,2.01,.87,.24,1.81,.04,2.69-.06,1.97-.21,3.94-.42,5.92-.63,.81-.09,1.5-.63,1.5-1.5,0-.74-.69-1.59-1.5-1.5-1.57,.17-3.14,.34-4.71,.5-.81,.09-1.61,.18-2.42,.26-.12,.01-.69,.06-.69,.04,0,0,.5,.51,.46,.51,.02,0-.17,.23,.06-.16,1.56-2.66,3.39-5.19,5.1-7.76,.33-.49,.24-1.22-.12-1.67-.41-.51-.95-.63-1.58-.54l-10.1,1.53c-.8,.12-1.24,1.13-1.05,1.85,.24,.86,1.04,1.17,1.85,1.05h0Z"/>
      <path d="M98.47,34.52l10.1-1.53-1.69-2.2c-1.1,1.66-2.2,3.32-3.3,4.98-.92,1.39-2.45,3.03-2.23,4.82,.12,.94,.78,1.75,1.71,2.01,.87,.24,1.81,.04,2.69-.06,1.97-.21,3.94-.42,5.92-.63,.81-.09,1.5-.63,1.5-1.5,0-.74-.69-1.59-1.5-1.5-1.57,.17-3.14,.34-4.71,.5-.81,.09-1.61,.18-2.42,.26-.12,.01-.69,.06-.69,.04,0,0,.5,.51,.46,.51,.02,0-.17,.23,.06-.16,1.56-2.66,3.39-5.19,5.1-7.76,.33-.49,.24-1.22-.12-1.67-.41-.51-.95-.63-1.58-.54l-10.1,1.53c-.8,.12-1.24,1.13-1.05,1.85,.24,.86,1.04,1.17,1.85,1.05h0Z"/>
      <path d="M62.92,75.32l10.1-1.53-1.69-2.2c-1.1,1.66-2.2,3.32-3.3,4.98-.92,1.39-2.45,3.03-2.23,4.82,.12,.94,.78,1.75,1.71,2.01,.87,.24,1.81,.04,2.69-.06,1.97-.21,3.94-.42,5.92-.63,.81-.09,1.5-.63,1.5-1.5,0-.74-.69-1.59-1.5-1.5-1.57,.17-3.14,.34-4.71,.5-.81,.09-1.61,.18-2.42,.26-.12,.01-.69,.06-.69,.04,0,0,.5,.51,.46,.51,.02,0-.17,.23,.06-.16,1.56-2.66,3.39-5.19,5.1-7.76,.33-.49,.24-1.22-.12-1.67-.41-.51-.95-.63-1.58-.54l-10.1,1.53c-.8,.12-1.24,1.13-1.05,1.85,.24,.86,1.04,1.17,1.85,1.05h0Z"/>
      <g>
        <circle class="cls-6" cx="99.12" cy="201.26" r="5.39"/>
        <path d="M103.27,201.26c-.02,1.7-1.09,3.33-2.68,3.89-1.74,.6-3.57,.12-4.74-1.32-1.04-1.28-1.17-3.24-.29-4.71s2.63-2.27,4.26-1.96c2.03,.39,3.42,2.09,3.45,4.1,.02,1.6,2.51,1.6,2.49,0-.04-2.8-1.76-5.25-4.37-6.23s-5.62-.15-7.33,1.96-2.09,5.24-.64,7.67,4.25,3.61,7,3.12c3.1-.56,5.3-3.42,5.34-6.51,.02-1.6-2.46-1.6-2.49,0Z"/>
        <circle class="cls-6" cx="99.12" cy="216.52" r="5.39"/>
        <path d="M103.27,216.52c-.02,1.7-1.09,3.33-2.68,3.89-1.74,.6-3.57,.12-4.74-1.32-1.04-1.28-1.17-3.24-.29-4.71s2.63-2.27,4.26-1.96c2.03,.39,3.42,2.09,3.45,4.1,.02,1.6,2.51,1.6,2.49,0-.04-2.8-1.76-5.25-4.37-6.23s-5.62-.15-7.33,1.96-2.09,5.24-.64,7.67,4.25,3.61,7,3.12c3.1-.56,5.3-3.42,5.34-6.51,.02-1.6-2.46-1.6-2.49,0Z"/>
      </g>
    </g>
  </g>
</svg>