<?xml version="1.0" encoding="UTF-8"?>
<svg id="Layer_2" data-name="Layer 2" xmlns="http://www.w3.org/2000/svg" viewBox="0 0 211.21 309.31">
  <defs>
    <style>
      .cls-1 {
        stroke: #000;
        stroke-width: 3px;
      }

      .cls-1, .cls-2 {
        fill: none;
        stroke-miterlimit: 10;
      }

      .cls-3 {
        fill: #042d68;
      }

      .cls-4 {
        fill: #fff;
      }

      .cls-5 {
        fill: #c1e2fd;
      }

      .cls-6 {
        fill: #1750a3;
      }

      .cls-7 {
        fill: #88c3ea;
      }

      .cls-8 {
        fill: #4ff797;
      }

      .cls-2 {
        stroke: #6a8fc2;
        stroke-width: 2px;
      }
    </style>
  </defs>
  <g id="Layer_1-2" data-name="Layer 1">
    <g>
      <ellipse class="cls-5" cx="103.4" cy="301.68" rx="28.07" ry="7.62"/>
      <g>
        <path class="cls-5" d="M28.09,111.07h9.06s0-18.07,0-18.07h-9.06c-2.79,0-5.05,2.26-5.05,5.05v7.96c0,2.79,2.26,5.05,5.05,5.05Z"/>
        <path class="cls-7" d="M25,100.12c2.44,2.77,6.44,3.81,10.09,3.31,.25-.03,.55-.05,.68,.16,.07,.11,.07,.24,.06,.36-.04,1.47-.08,2.95-.12,4.42,0,.24-.02,.49-.14,.69-.14,.22-.4,.33-.65,.42-2.42,.88-5.11,.72-7.62,.15-.79-.18-1.58-.41-2.25-.86-1.07-.72-1.72-1.96-1.98-3.22-.27-1.27-.2-2.58-.12-3.87"/>
        <path d="M37.15,91.08c-2.59,0-5.19,0-7.78,0-1.52,0-2.96,.05-4.38,.73-2.38,1.15-3.82,3.63-3.87,6.24s0,5.1,0,7.64c.02,4.27,3.22,7.28,7.44,7.28,2.86,0,5.73,0,8.59,0,2.46,0,2.46-3.82,0-3.82s-4.72,0-7.08,0c-.86,0-1.92,.11-2.71-.08-1.48-.37-2.4-1.64-2.43-3.13-.04-2.46,0-4.92,0-7.37,0-1.23,.26-2.31,1.26-3.05,.9-.67,1.83-.62,2.92-.62,2.68,0,5.35,0,8.03,0,2.46,0,2.46-3.82,0-3.82h0Z"/>
      </g>
      <g>
        <path class="cls-5" d="M176.9,111.07h-9.06v-18.07h9.06c2.79,0,5.05,2.26,5.05,5.05v7.96c0,2.79-2.26,5.05-5.05,5.05Z"/>
        <path class="cls-7" d="M179.99,100.12c-2.44,2.77-6.44,3.81-10.09,3.31-.25-.03-.55-.05-.68,.16-.07,.11-.07,.24-.06,.36,.04,1.47,.08,2.95,.12,4.42,0,.24,.02,.49,.14,.69,.14,.22,.4,.33,.65,.42,2.42,.88,5.11,.72,7.62,.15,.79-.18,1.58-.41,2.25-.86,1.07-.72,1.72-1.96,1.98-3.22,.27-1.27,.2-2.58,.12-3.87"/>
        <path d="M167.83,94.9h7.08c.86,0,1.92-.11,2.71,.08,1.48,.37,2.4,1.64,2.43,3.13,.04,2.46,0,4.92,0,7.37,0,1.23-.26,2.31-1.26,3.05-.9,.67-1.83,.62-2.92,.62h-8.03c-2.46,0-2.46,3.82,0,3.82h7.78c1.52,0,2.96-.05,4.38-.73,2.38-1.15,3.82-3.63,3.87-6.24s0-5.1,0-7.64c-.02-4.27-3.22-7.28-7.44-7.28h-8.59c-2.46,0-2.46,3.82,0,3.82h0Z"/>
      </g>
      <path class="cls-5" d="M103.4,282.88c-29.89,0-54.12-35.66-54.12-72.25s24.23-48.25,54.12-48.25,54.12,11.66,54.12,48.25-24.23,72.25-54.12,72.25Z"/>
      <path class="cls-7" d="M157.52,209.5c0,36.59-24.23,72.25-54.12,72.25s-54.12-35.66-54.12-72.25c0-1.62,.09,8.18,.18,6.66,.29,5.11,1.01-1.2,2.18,3.72,6.77,28.6,27.39,52.32,51.77,52.32,28.57,0,51.97-32.58,53.98-67.41,.09,1.52,.14,3.09,.14,4.71Z"/>
      <ellipse class="cls-5" cx="103" cy="99.71" rx="66.25" ry="54.12"/>
      <path class="cls-7" d="M168.85,101.4c0,29.89-29.66,54.13-66.25,54.13s-66.25-24.24-66.25-54.13c0-1.85,.11-3.68,.34-5.48,3.39,27.29,31.61,48.59,65.91,48.59s62.52-21.3,65.91-48.59c.23,1.8,.34,3.63,.34,5.48Z"/>
      <ellipse class="cls-6" cx="103" cy="99.71" rx="52.66" ry="38.5"/>
      <path class="cls-3" d="M156.06,100.08c0,21.26-23.57,38.5-52.65,38.5s-52.66-17.24-52.66-38.5c0-2.28,.27-4.52,.79-6.7,4.35,18.07,25.92,31.8,51.87,31.8s47.52-13.73,51.86-31.8c.52,2.18,.79,4.42,.79,6.7Z"/>
      <path class="cls-5" d="M2.13,176.79h0c.93-3.64,4.47-5.97,8.18-5.39l27.32,4.28c4.24,.66,6.99,4.84,5.93,9l-1.29,5.07c-1.06,4.16-5.48,6.5-9.52,5.05l-26.02-9.35c-3.53-1.27-5.52-5.02-4.59-8.66Z"/>
      <path class="cls-7" d="M10.7,171.24l27.32,4.27c4.24,.67,6.99,4.84,5.92,9l-1.09,4.29c-.63-2.81-2.91-5.12-5.98-5.61l-27.32-4.27c-2.56-.4-5.05,.59-6.65,2.44-.64-1.45-.81-3.1-.39-4.73,.93-3.64,4.48-5.98,8.19-5.4Z"/>
      <path d="M25.18,175.65c2.44,.38,4.88,.76,7.31,1.15s5.84,.38,7.69,2.16c2.76,2.65,1.29,6.16,.49,9.3-.39,1.54-.87,2.96-2.2,3.97-1.54,1.16-3.44,1.32-5.23,.72-4.6-1.55-9.14-3.28-13.71-4.92-2.95-1.06-5.89-2.12-8.84-3.18-1.48-.53-3.28-.93-4.59-1.85-4.37-3.05-1.88-9.97,3.34-9.77,.1,0,.82,.07,.37,.01,.06,0,.13,.02,.19,.03,.24,.03,.47,.07,.71,.11l2.61,.41c1.34,.21,2.68,.42,4.02,.63,1.03,.16,2.04-.26,2.35-1.33,.26-.9-.32-2.19-1.33-2.35-2.68-.42-5.36-.91-8.05-1.25-5.76-.72-10.93,4.29-10.25,10.1,.48,4.1,3.31,6.68,7.01,8.01,2.66,.96,5.33,1.91,7.99,2.87,5.67,2.04,11.32,4.11,17,6.11,4.48,1.57,9.6-.49,11.53-4.89,.65-1.47,.95-3.12,1.34-4.67,.48-1.86,.93-3.64,.64-5.58-.46-3.02-2.51-5.69-5.3-6.93-1.39-.62-2.85-.77-4.33-1.01-3.25-.51-6.5-1.02-9.75-1.53-1.03-.16-2.04,.26-2.35,1.33-.26,.9,.32,2.19,1.33,2.35h0Z"/>
      <g>
        <line class="cls-2" x1="65.37" y1="72.93" x2="65.37" y2="127.28"/>
        <line class="cls-2" x1="76.49" y1="67.23" x2="76.49" y2="131.42"/>
        <line class="cls-2" x1="90.42" y1="63.05" x2="90.42" y2="137.11"/>
      </g>
      <g>
        <line class="cls-2" x1="140.98" y1="72.93" x2="140.98" y2="127.28"/>
        <line class="cls-2" x1="129.86" y1="67.23" x2="129.86" y2="131.42"/>
        <line class="cls-2" x1="115.93" y1="63.05" x2="115.93" y2="137.11"/>
      </g>
      <line class="cls-2" x1="103.4" y1="63.05" x2="103.4" y2="137.11"/>
      <path d="M111.72,64.12c16.68,2.08,36.25,11.44,40.85,29.09,1.92,7.37,.46,15.01-3.55,21.44-4.45,7.15-11.51,12.35-19.07,15.84-17.45,8.06-39.65,7.64-56.66-1.38-7.21-3.82-13.7-9.32-17.53-16.63-3.49-6.66-4.09-14.32-1.67-21.41,2.56-7.49,8.31-13.62,14.84-17.91,7.79-5.12,16.95-8.12,26.18-9.14,2.62-.29,5.25-.42,7.89-.43,2.9,0,2.9-4.51,0-4.5-10.72,.03-21.48,2.27-31.08,7.13-8,4.05-15.33,10.14-19.71,18.07-4.11,7.43-5.27,16.25-2.82,24.42,2.57,8.56,8.58,15.56,15.77,20.67,17.05,12.12,41.03,14.2,60.57,7.56,16.67-5.66,33.33-19.71,32.12-38.92s-20.07-32.7-37.84-36.96c-2.74-.66-5.51-1.12-8.3-1.46-1.21-.15-2.25,1.14-2.25,2.25,0,1.34,1.04,2.1,2.25,2.25h0Z"/>
      <g>
        <rect class="cls-8" x="70.4" y="87.01" width="21.1" height="7.34" rx="1.07" ry="1.07" transform="translate(-20.54 23.78) rotate(-14.85)"/>
        <rect class="cls-1" x="70.4" y="87.01" width="21.1" height="7.34" rx="1.07" ry="1.07" transform="translate(-20.54 23.78) rotate(-14.85)"/>
      </g>
      <g>
        <rect class="cls-8" x="115.3" y="87.01" width="21.1" height="7.34" rx="1.07" ry="1.07" transform="translate(192.21 230.88) rotate(-151.1)"/>
        <rect class="cls-1" x="115.3" y="87.01" width="21.1" height="7.34" rx="1.07" ry="1.07" transform="translate(192.21 230.88) rotate(-151.1)"/>
      </g>
      <path class="cls-4" d="M103.4,249.53c-18.61,0-33.7-22.21-33.7-44.99s15.09-30.04,33.7-30.04,33.7,7.26,33.7,30.04-15.09,44.99-33.7,44.99Z"/>
      <path class="cls-5" d="M137.1,204.25c0,22.78-15.09,44.99-33.71,44.99s-33.41-21.79-33.69-44.34c3.27,19.33,16.78,36.08,32.94,36.08,18.6,0,33.69-22.19,33.7-44.96,.5,2.49,.76,5.22,.76,8.23Z"/>
      <path d="M123.93,181.62c3.76,2.28,6.68,5.5,8.57,9.48,2.28,4.81,2.83,10.31,2.68,15.57-.32,10.75-4.02,21.85-10.89,30.22-5.85,7.13-14.56,12.58-24.11,11.09-9.75-1.52-17.28-9.16-21.94-17.43-3.04-5.41-5.04-11.37-6.02-17.49-1.03-6.47-.95-13.35,1.15-19.6,.78-2.34-2.9-3.34-3.68-1.02-3.97,11.83-1.65,25.73,3.58,36.8,4.56,9.65,12.46,18.74,23.03,21.79,10.37,2.99,20.82-1.18,28.18-8.63,8.3-8.4,13.01-20.05,14.25-31.68,.7-6.62,.34-13.68-2.21-19.9-2.15-5.24-5.81-9.54-10.65-12.48-2.11-1.28-4.03,2.02-1.93,3.3h0Z"/>
      <path d="M76.34,187.6c4.08-5.72,10.66-8.6,17.4-9.83,8.05-1.47,16.97-1.18,24.77,1.38,2.34,.77,3.34-2.92,1.02-3.68-6.86-2.25-14.37-2.68-21.53-2.07-6.14,.52-12.4,1.96-17.66,5.31-2.89,1.84-5.31,4.19-7.3,6.97-1.43,2.01,1.88,3.92,3.3,1.93h0Z"/>
      <path class="cls-4" d="M64.66,181.96c.22-.32,.44-.63,.67-.93s.02-.12-.05,.06c.05-.14,.26-.33,.36-.45,.46-.56,.95-1.1,1.46-1.62,.54-.55,1.09-1.07,1.67-1.57,.26-.22,.53-.44,.8-.66,.28-.23-.43,.31,.03-.02,.16-.11,.31-.23,.46-.34,1.18-.84,2.43-1.59,3.74-2.23,.31-.15,.62-.29,.94-.44,.68-.31-.38,.14,.02-.01,.18-.07,.35-.14,.53-.21,.72-.27,1.44-.51,2.18-.72,1.51-.43,2.6-2.14,2.1-3.69s-2.07-2.56-3.69-2.1c-6.69,1.93-12.46,6.17-16.4,11.9-.89,1.3-.28,3.39,1.08,4.1,1.53,.81,3.15,.31,4.1-1.08h0Z"/>
      <path class="cls-4" d="M85.15,170.69c3.86,0,3.87-6,0-6s-3.87,6,0,6h0Z"/>
      <path d="M137.67,172.33c5.45,3.44,9.85,8.18,12.82,13.91,3.58,6.9,4.93,14.77,5.11,22.48,.41,17.2-4.58,34.71-14.27,48.96-4.85,7.13-11.04,13.45-18.51,17.83-2.12,1.24-.2,4.55,1.93,3.3,14.76-8.66,24.73-24.06,30.07-40.01,2.92-8.72,4.51-17.94,4.62-27.15,.11-8.6-1.09-17.31-4.62-25.21-3.22-7.21-8.55-13.2-15.22-17.41-2.08-1.32-4,1.99-1.93,3.3h0Z"/>
      <path d="M51.28,206.87c.63-12.33,4.74-24.58,14.76-32.39,9.28-7.24,21.51-9.64,33.01-10.1,9.8-.39,19.79,.37,29.14,3.49,2.34,.78,3.34-2.91,1.02-3.68-8.94-2.99-18.52-3.87-27.91-3.7-6.64,.13-13.34,.83-19.78,2.52-11.74,3.08-22.34,9.86-28.2,20.73-3.83,7.1-5.46,15.12-5.86,23.13-.12,2.46,3.7,2.45,3.82,0h0Z"/>
      <path d="M116.61,278.49c-6.86,2.55-14.24,3.22-21.38,1.54-5.88-1.38-11.32-4.16-16.13-7.78-10.6-7.96-18.12-19.88-22.62-32.2-2.81-7.68-4.55-15.73-5.1-23.88-.17-2.44-3.99-2.46-3.82,0,1.02,15.02,5.72,29.95,14.04,42.55,7.3,11.05,17.71,20.74,30.67,24.49,8.34,2.41,17.24,1.99,25.37-1.03,2.28-.85,1.3-4.54-1.02-3.68h0Z"/>
      <path class="cls-4" d="M55.09,71.43c1.81-2.07,3.79-3.99,5.92-5.72,.12-.09,.23-.19,.35-.28,.07-.05,.57-.45,.22-.18-.32,.25,.08-.06,.14-.1,.15-.11,.3-.22,.45-.33,.54-.4,1.09-.78,1.64-1.15,1.17-.79,2.38-1.52,3.61-2.2,1.38-.76,1.94-2.77,1.08-4.1s-2.63-1.89-4.1-1.08c-5.09,2.81-9.72,6.52-13.55,10.9-1.03,1.18-1.25,3.1,0,4.24,1.13,1.04,3.14,1.26,4.24,0h0Z"/>
      <path class="cls-4" d="M74.05,58c3.86,0,3.87-6,0-6s-3.87,6,0,6h0Z"/>
      <path d="M144.18,139.83c-18.07,12.11-41.56,15.09-62.37,9.2-16.8-4.76-32.73-15.9-39.7-32.37-4.39-10.38-4.49-21.99-.54-32.53,.86-2.3-2.83-3.3-3.68-1.02-3.77,10.04-4.05,21.22-.64,31.4,2.85,8.53,8.05,16.15,14.62,22.26,15.12,14.06,36.54,20.21,56.91,18.77,13.23-.93,26.28-5.01,37.33-12.42,2.03-1.36,.12-4.67-1.93-3.3h0Z"/>
      <path d="M90.93,48.4c19.52-3.01,40.71,1.3,56.48,13.52,13.46,10.43,22.18,26.97,19.46,44.26-1.83,11.65-8.33,21.79-17.15,29.44-1.86,1.61,.85,4.3,2.7,2.7,8.29-7.18,14.74-16.64,17.38-27.36,2.28-9.26,1.68-19.16-1.76-28.06-6.79-17.57-22.84-29.84-40.42-35.46-12.14-3.87-25.13-4.65-37.7-2.72-1.02,.16-1.59,1.44-1.33,2.35,.3,1.09,1.32,1.49,2.35,1.33h0Z"/>
      <path d="M45.48,76.31c8.23-13.2,22.06-21.94,36.85-26.05,2.36-.66,1.36-4.34-1.02-3.68-15.75,4.38-30.39,13.77-39.14,27.81-1.3,2.09,2,4.01,3.3,1.93h0Z"/>
      <g>
        <g>
          <path class="cls-5" d="M208.89,172.69h0c1.24,3.55-.43,7.45-3.84,9.02l-25.13,11.53c-3.9,1.79-8.5-.17-9.91-4.22l-1.72-4.94c-1.41-4.05,.97-8.45,5.14-9.47l26.85-6.59c3.65-.9,7.38,1.13,8.61,4.67Z"/>
          <path class="cls-7" d="M204.33,181.32l-25.13,11.54c-3.91,1.78-8.5-.17-9.91-4.23l-1.46-4.18c2.08,1.99,5.25,2.66,8.08,1.37l25.13-11.54c2.36-1.08,3.89-3.29,4.19-5.71,1.33,.85,2.39,2.14,2.94,3.72,1.24,3.55-.43,7.46-3.84,9.02Z"/>
          <path d="M190.98,172.26c2.58-.63,5.17-1.27,7.75-1.9,.96-.24,1.97-.58,2.96-.64,2.24-.13,4.41,1.19,5.28,3.27,1.33,3.15-.55,6-3.39,7.3l-6.14,2.82c-5.65,2.59-11.3,5.18-16.94,7.78-2.14,.98-4.28,1.68-6.49,.27-2.37-1.5-3.04-5.03-3.86-7.53-.7-2.13-.28-4.42,1.44-5.96,1.09-.97,2.43-1.24,3.79-1.57,2.88-.71,5.76-1.41,8.64-2.12,2.39-.59,1.38-4.27-1.02-3.68-2.88,.71-5.76,1.41-8.64,2.12-1.41,.35-2.81,.67-4.06,1.46-2.43,1.53-3.97,4.07-4.28,6.91-.21,1.89,.36,3.61,.97,5.36,.55,1.58,1.01,3.28,1.77,4.78,2.33,4.53,7.8,5.9,12.25,3.9,5.54-2.49,11.05-5.07,16.57-7.6l7.7-3.53c3.55-1.63,6.13-4.92,5.92-8.99-.16-3.11-1.87-6.02-4.6-7.58-2.28-1.31-4.79-1.44-7.29-.83-3.12,.76-6.23,1.53-9.35,2.29-2.39,.59-1.38,4.27,1.02,3.68h0Z"/>
        </g>
        <path d="M170.16,185.53l13.74-5.07c.76-.28,1.28-1.02,1.05-1.85-.2-.73-1.08-1.33-1.85-1.05-4.58,1.69-9.16,3.38-13.74,5.07-.76,.28-1.28,1.02-1.05,1.85,.2,.73,1.08,1.33,1.85,1.05h0Z"/>
        <path d="M188.73,179.07c1.93,0,1.93-3,0-3s-1.93,3,0,3h0Z"/>
      </g>
      <g>
        <path d="M58.45,211.69c.99,9.58,3.99,18.82,8.9,27.12,.98,1.66,3.58,.15,2.59-1.51-4.62-7.82-7.56-16.56-8.49-25.6-.2-1.9-3.2-1.92-3,0h0Z"/>
        <path d="M71.88,244.37c1.93,0,1.93-3,0-3s-1.93,3,0,3h0Z"/>
      </g>
      <path d="M60.04,133.9c4.51,3.63,9.44,6.68,14.75,9.01,.74,.32,1.61,.22,2.05-.54,.37-.64,.21-1.73-.54-2.05-5.06-2.22-9.84-5.07-14.14-8.54-.63-.51-1.51-.62-2.12,0-.53,.53-.63,1.61,0,2.12h0Z"/>
      <path d="M82.33,145.91c1.93,0,1.93-3,0-3s-1.93,3,0,3h0Z"/>
      <path d="M107.22,8.72c-.32-.45-.8-.78-1.43-1.01-.63-.23-1.4-.34-2.32-.34-1.32,0-2.68,.34-4.09,1.01-1.41,.67-2.59,1.7-3.54,3.08l-5.75-5.11c1.32-1.38,2.7-2.54,4.14-3.47,1.44-.94,2.97-1.65,4.58-2.14s3.32-.74,5.13-.74c1.56,0,3.1,.22,4.6,.64,1.5,.43,2.87,1.08,4.12,1.95,1.24,.88,2.23,1.96,2.96,3.25,.74,1.29,1.1,2.79,1.1,4.51,0,1.93-.49,3.57-1.47,4.92-.98,1.35-2.23,2.44-3.75,3.26-1.52,.83-3.09,1.44-4.72,1.84l-.14,2.85h-7.36l-.92-8.28h1.66c1.84,0,3.32-.27,4.46-.8,1.13-.54,1.95-1.16,2.46-1.89,.51-.72,.76-1.36,.76-1.91,0-.64-.16-1.19-.48-1.63Zm-8.16,18.19c1.01-.92,2.31-1.38,3.91-1.38s2.93,.46,3.93,1.38c1,.92,1.49,1.99,1.49,3.22s-.5,2.3-1.49,3.22c-1,.92-2.31,1.38-3.93,1.38s-2.9-.46-3.91-1.38c-1.01-.92-1.52-1.99-1.52-3.22s.51-2.3,1.52-3.22Z"/>
      <path d="M80.3,264.31c4.82,6.09,12.63,9.57,20.37,9.17,1.92-.1,1.93-3.1,0-3-7.05,.37-13.88-2.76-18.25-8.29-.51-.64-1.59-.52-2.12,0-.63,.62-.5,1.49,0,2.12h0Z"/>
      <path d="M107.45,273.35c1.93,0,1.93-3,0-3s-1.93,3,0,3h0Z"/>
      <circle class="cls-7" cx="29.36" cy="182.36" r="2.39"/>
      <circle class="cls-4" cx="32.75" cy="188.09" r="1.68"/>
      <path d="M123.26,79.26c.35,0,.69,.03,1.04,.06,.14,.01,.28,.03,.41,.04-.33-.03-.06,0,.12,.02,.62,.1,1.22,.23,1.82,.4,.63,.18,1.26,.39,1.87,.65-.3-.13-.01,0,.13,.07,.13,.06,.25,.12,.38,.18,.31,.15,.62,.32,.92,.49,.54,.31,1.07,.65,1.57,1.02,.12,.09,.37,.29,.12,.09,.11,.09,.22,.17,.32,.26,.27,.22,.52,.45,.78,.69,.45,.43,.88,.88,1.28,1.36,0-.01,.36,.45,.21,.26s.21,.28,.2,.27c.2,.28,.39,.57,.57,.87,.62,1,2.04,1.48,3.08,.81s1.47-2.01,.81-3.08c-3.36-5.37-9.31-8.77-15.63-8.95-1.18-.03-2.3,1.06-2.25,2.25s.99,2.21,2.25,2.25h0Z"/>
      <path d="M83.52,73.83c-6.33,.18-12.28,3.59-15.63,8.95-.63,1-.25,2.52,.81,3.08,1.11,.58,2.41,.26,3.08-.81,.18-.29,.37-.58,.57-.87,.08-.11,.16-.22,.25-.34-.19,.25,0,0,.1-.12,.4-.48,.82-.94,1.27-1.37,.25-.24,.51-.47,.77-.7,.11-.09,.21-.18,.32-.26,.19-.15-.21,.14,.12-.09,.54-.38,1.08-.75,1.66-1.08,.27-.16,.55-.3,.82-.44,.12-.06,.25-.12,.37-.18-.01,0,.54-.25,.3-.14s.26-.1,.31-.12c.13-.05,.26-.1,.39-.14,.33-.12,.66-.22,.99-.32,.6-.17,1.21-.31,1.82-.42,0,0,.6-.08,.32-.05s.33-.03,.32-.03c.35-.03,.69-.05,1.04-.06,1.18-.03,2.31-1.01,2.25-2.25s-.99-2.29-2.25-2.25h0Z"/>
      <g>
        <circle class="cls-8" cx="119.86" cy="197.17" r="5.39"/>
        <path d="M124.01,197.17c-.02,1.7-1.09,3.33-2.68,3.89-1.74,.6-3.57,.12-4.74-1.32-1.04-1.28-1.17-3.24-.29-4.71s2.63-2.27,4.26-1.96c2.03,.39,3.42,2.09,3.45,4.1,.02,1.6,2.51,1.6,2.49,0-.04-2.8-1.76-5.25-4.37-6.23s-5.62-.15-7.33,1.96-2.09,5.24-.64,7.67,4.25,3.61,7,3.12c3.1-.56,5.3-3.42,5.34-6.51,.02-1.6-2.46-1.6-2.49,0Z"/>
        <circle class="cls-8" cx="119.86" cy="212.42" r="5.39"/>
        <path d="M124.01,212.42c-.02,1.7-1.09,3.33-2.68,3.89-1.74,.6-3.57,.12-4.74-1.32-1.04-1.28-1.17-3.24-.29-4.71s2.63-2.27,4.26-1.96c2.03,.39,3.42,2.09,3.45,4.1,.02,1.6,2.51,1.6,2.49,0-.04-2.8-1.76-5.25-4.37-6.23s-5.62-.15-7.33,1.96-2.09,5.24-.64,7.67,4.25,3.61,7,3.12c3.1-.56,5.3-3.42,5.34-6.51,.02-1.6-2.46-1.6-2.49,0Z"/>
      </g>
    </g>
  </g>
</svg>