<?xml version="1.0" encoding="UTF-8"?>
<svg id="Layer_2" data-name="Layer 2" xmlns="http://www.w3.org/2000/svg" viewBox="0 0 905.13 707.5">
  <defs>
    <style>
      .cls-1 {
        fill: #f9eded;
      }

      .cls-2 {
        fill: #02263c;
      }

      .cls-3 {
        fill: #021b28;
      }

      .cls-4 {
        fill: #f6c375;
      }

      .cls-5 {
        fill: #ea5347;
      }

      .cls-6 {
        fill: #ea754b;
      }

      .cls-7 {
        fill: #eddfdf;
      }

      .cls-8 {
        fill: #fff;
      }

      .cls-9, .cls-10 {
        fill: #f2a43d;
      }

      .cls-11 {
        fill: #efd8db;
      }

      .cls-12 {
        fill: #ffb999;
      }

      .cls-13 {
        fill: #fe6f5d;
      }

      .cls-14 {
        fill: #e2ecff;
      }

      .cls-15 {
        fill: #fc8c60;
      }

      .cls-16 {
        fill: #99b0d1;
      }

      .cls-17 {
        fill: #83ce00;
      }

      .cls-18 {
        fill: #b7959a;
      }

      .cls-19, .cls-20, .cls-21 {
        fill: #ceb6b9;
      }

      .cls-22 {
        fill: #ade701;
      }

      .cls-23 {
        fill: #e23c30;
      }

      .cls-24, .cls-25 {
        fill: #c5d5ed;
      }

      .cls-26 {
        fill: #e29233;
      }

      .cls-27 {
        fill: #4092c1;
      }

      .cls-28 {
        fill: #277ba0;
      }

      .cls-29 {
        fill: #74cff7;
      }

      .cls-30 {
        fill: #78ad04;
      }

      .cls-10 {
        opacity: .49;
      }

      .cls-10, .cls-20, .cls-25, .cls-21 {
        isolation: isolate;
      }

      .cls-20 {
        opacity: .45;
      }

      .cls-25 {
        opacity: .38;
      }

      .cls-21 {
        opacity: .4;
      }
    </style>
  </defs>
  <g id="Layer_1-2" data-name="Layer 1">
    <g id="Layer_2-2" data-name="Layer 2">
      <g id="Layer_3" data-name="Layer 3">
        <path class="cls-2" d="M385.69,51.85c0-.63,.05-1,.1-1.51s.09-.91,.15-1.36c.12-.9,.27-1.78,.44-2.65,.34-1.74,.76-3.45,1.26-5.13,1.02-3.35,2.36-6.6,4-9.69,3.22-6.14,7.62-11.58,12.95-16,2.63-2.15,5.43-4.06,8.39-5.73,2.93-1.62,5.99-3.01,9.14-4.15,6.23-2.24,12.7-3.74,19.28-4.45-6.39,1.36-12.6,3.47-18.5,6.29-2.9,1.4-5.68,3.02-8.33,4.86-2.6,1.83-5.04,3.88-7.29,6.13-4.42,4.47-7.92,9.77-10.28,15.59-1.15,2.85-2.02,5.81-2.61,8.83-.28,1.51-.49,3-.63,4.52-.06,.75-.11,1.5-.13,2.24v2.09l-7.94,.12Z"/>
        <path class="cls-2" d="M384.18,51.1c-.14-.45-.21-.76-.29-1.08s-.15-.64-.21-1c-.13-.62-.25-1.24-.34-1.85-.21-1.21-.32-2.42-.45-3.62s-.15-2.4-.18-3.6,0-2.38,.05-3.57c.19-4.69,1.02-9.34,2.46-13.81,1.37-4.37,3.34-8.53,5.86-12.36,1.21-1.89,2.55-3.7,4-5.42,.7-.86,1.44-1.68,2.23-2.46l2.26-2.33-1.74,2.8c-.6,.9-1.15,1.84-1.64,2.81-1.01,1.9-1.9,3.87-2.66,5.89-1.54,3.93-2.52,8.06-2.93,12.26-.42,4.08-.29,8.2,.4,12.24,.14,1,.4,2,.58,3s.51,1.94,.78,2.89,.6,1.89,1,2.78c.17,.46,.36,.89,.55,1.31,.08,.21,.18,.41,.28,.61,.07,.16,.15,.32,.25,.47l-10.26,4.04Z"/>
        <path class="cls-2" d="M386,56.58c-.34-.33-.54-.57-.76-.82s-.44-.5-.63-.74c-.4-.49-.8-1-1.16-1.48-.75-1-1.41-2-2.08-3s-1.26-2-1.84-3.1-1.13-2.09-1.61-3.18c-2.02-4.25-3.44-8.75-4.24-13.38-.82-4.51-1.01-9.1-.57-13.66,.19-2.23,.52-4.45,1-6.64,.23-1.09,.53-2.17,.89-3.22l.91-3.17-.24,3.28c-.11,1.08-.16,2.17-.14,3.26-.01,2.16,.11,4.31,.38,6.45,.46,4.19,1.5,8.3,3.09,12.21,1.52,3.81,3.56,7.4,6.05,10.66,.59,.82,1.27,1.57,1.89,2.35s1.35,1.49,2,2.2,1.41,1.39,2.15,2c.36,.33,.73,.62,1.09,.91,.18,.15,.36,.29,.53,.41,.14,.11,.29,.21,.44,.3l-7.15,8.36Z"/>
        <path class="cls-2" d="M356.62,105.32c-12.88,11.69-19.89,28.5-19.14,45.88,4.54-9.85,11.24-19.08,20.49-24.15"/>
        <path class="cls-2" d="M361.32,118.5c-12.66,11.18-20,28.74-19.14,45.88,4.55-9.86,11.25-19.08,20.5-24.15"/>
        <path class="cls-2" d="M376,199.12c-9.51,14.56-24.99,24.15-42.27,26.17,9-6,17.05-14.12,20.6-24.06"/>
        <path class="cls-2" d="M379,226.6c-9,14.27-25.21,24.29-42.27,26.18,9-6.06,17.06-14.13,20.6-24.07"/>
        <path class="cls-12" d="M645.55,328.47c8.55-1.47,18.35-3.1,23.66-3.82l5.09,26.14-57-8.75h0c7.97-7.07,17.75-11.77,28.25-13.57Z"/>
        <path class="cls-7" d="M643.81,326.92c-1.1,6.84-5.11,12.06-11.68,14.26-26.79,9-60.55,4.82-85.15-9.11-5.83-3.3-11.3-7.2-16.33-11.62-16.38-14.3-27.79-33.44-32.57-54.65l11.28-57.88c.57,.35,1.12,.71,1.66,1.09,2.2,1.5,5.23,3.2,7.1,5.07h-1c3.67,3.64,7.74,7.89,10.33,12.47,3.26,5.91,5.92,12.14,7.92,18.59,4.67,14.56,7.4,29.87,14.33,43.5,16.75,32.96,59.18,50.2,94.11,38.28Z"/>
        <polyline class="cls-12" points="662.25 628.33 674.58 661.08 703.95 654.59 678.06 625.51"/>
        <polyline class="cls-15" points="662.25 628.33 666.74 640.26 688.62 637.37 678.06 625.51"/>
        <path class="cls-28" d="M575.85,411.29l43.8,14.34c13,4.25,23.36,14.19,28.15,27h0c11.49,30.83,20.03,62.68,25.52,95.12l14.68,87.17-24.85,1.5-56.81-126.11"/>
        <path class="cls-29" d="M595.44,462.14c-.4,0-.76-.24-.92-.61l-1.38-3.21c-.26-.49-.08-1.09,.41-1.35,.49-.26,1.09-.08,1.35,.41,.03,.05,.05,.1,.07,.15l1.39,3.21c.22,.51-.02,1.09-.52,1.31-.13,.06-.26,.09-.4,.09Z"/>
        <path class="cls-29" d="M662.45,617.16c-.4,0-.76-.24-.92-.61l-2.8-6.45c-.22-.51,.01-1.1,.52-1.32,0,0,0,0,.01,0,.51-.22,1.09,.02,1.31,.52l2.79,6.46c.22,.51,0,1.1-.51,1.32h0c-.12,.05-.26,.08-.39,.08Zm-5.59-12.92c-.4,0-.76-.23-.92-.6l-2.79-6.46c-.22-.51,.01-1.1,.52-1.32s1.1,.01,1.32,.52h0l2.79,6.46c.22,.51,0,1.1-.51,1.32h0c-.13,.05-.26,.08-.4,.08Zm-5.58-12.92c-.4,0-.76-.23-.92-.6l-2.79-6.46c-.25-.49-.05-1.09,.45-1.34,.49-.25,1.09-.05,1.34,.45,.02,.03,.03,.06,.04,.1l2.8,6.46c.22,.51-.01,1.1-.52,1.32,0,0,0,0-.01,0-.12,.05-.26,.08-.39,.08h0Zm-5.59-12.92c-.4,0-.75-.24-.91-.6l-2.8-6.46c-.22-.51,.02-1.1,.53-1.32s1.1,.02,1.32,.53l2.79,6.46c.22,.51-.02,1.09-.52,1.31-.13,.06-.26,.08-.4,.08h0Zm-5.58-12.92c-.4,0-.76-.23-.92-.6l-2.79-6.46c-.22-.51,.02-1.1,.53-1.32s1.1,.02,1.32,.53l2.79,6.46c.22,.51-.02,1.09-.52,1.31-.13,.05-.26,.08-.4,.08h0Zm-5.58-12.91c-.4,0-.76-.24-.92-.61l-2.79-6.46c-.26-.49-.08-1.09,.41-1.35,.49-.26,1.09-.08,1.35,.41,.03,.05,.05,.1,.07,.15l2.79,6.46c.22,.51-.02,1.09-.52,1.31-.12,.06-.25,.09-.39,.09h0Zm-5.59-12.92c-.42,0-.79-.26-.94-.65l-2.79-6.46c-.22-.51,.02-1.1,.53-1.32s1.1,.02,1.32,.53l2.79,6.46c.22,.51-.02,1.09-.52,1.31-.12,.07-.25,.11-.38,.13h0Zm-5.58-12.92c-.4,0-.76-.23-.92-.6l-2.79-6.46c-.22-.51,.01-1.1,.52-1.32s1.1,.01,1.32,.52l2.79,6.46c.22,.51,0,1.1-.51,1.32h0c-.13,.05-.26,.08-.4,.08h0Zm-5.58-12.92c-.4,0-.76-.23-.92-.6l-2.79-6.46c-.25-.49-.05-1.09,.45-1.34,.49-.25,1.09-.05,1.34,.45,.02,.03,.03,.06,.04,.1l2.79,6.46c.22,.51,0,1.1-.51,1.32h0c-.12,.05-.26,.08-.39,.08h0Zm-5.59-12.92c-.4,0-.76-.23-.92-.6l-2.79-6.46c-.22-.51,.02-1.1,.53-1.32,.51-.22,1.1,.02,1.32,.53l2.79,6.45c.22,.51,0,1.1-.51,1.32h0c-.13,.06-.26,.09-.4,.08h0Zm-5.58-12.89c-.4,0-.76-.23-.92-.6l-2.79-6.46c-.22-.51,.02-1.09,.52-1.31,.51-.22,1.1,0,1.32,.51h0s2.79,6.47,2.79,6.47c.22,.51-.02,1.09-.52,1.31-.13,.05-.26,.08-.4,.08Zm-5.61-12.94c-.4,0-.76-.24-.92-.61l-2.76-6.45c-.18-.52,.1-1.09,.63-1.27,.46-.16,.97,.05,1.2,.48l2.79,6.46c.22,.51-.02,1.09-.52,1.31-.13,.06-.28,.09-.42,.08Z"/>
        <path class="cls-29" d="M666.62,626.83c-.4,0-.75-.24-.91-.6l-1.39-3.23c-.26-.49-.08-1.09,.41-1.35,.49-.26,1.09-.08,1.35,.41,.03,.05,.05,.1,.07,.15l1.39,3.21c.22,.51,0,1.1-.51,1.32h0c-.13,.06-.26,.09-.4,.09Z"/>
        <path class="cls-5" d="M664.42,667c-.16-6.31,0-13.35,4.31-17.92,.69-.84,1.68-1.4,2.76-1.55,1.1,.05,2.16,.47,3,1.19,2.34,1.64,4.57,3.54,7.26,4.5s6.07,.74,7.94-1.42,1.66-5.74,3.35-8.18,4.72-3.17,7.48-2.74c2.75,.58,5.32,1.82,7.48,3.62,10.44,7.86,17.76,20,29.77,25.17,4.94,2.13,10.43,2.92,15.18,5.47s8.79,7.77,7.47,13c-1.1,4.29-5.49,7-9.86,7.8-4.73,.81-9.57-.18-14.27-1.17l-42.82-9"/>
        <rect class="cls-14" x="754.34" y="336.38" width="14.4" height="12.42"/>
        <rect class="cls-14" x="736.13" y="336.38" width="14.4" height="12.42"/>
        <rect class="cls-14" x="717.92" y="336.38" width="14.4" height="12.42"/>
        <rect class="cls-14" x="699.71" y="336.38" width="14.4" height="12.42"/>
        <rect class="cls-14" x="772.56" y="336.38" width="14.4" height="12.42"/>
        <rect class="cls-14" x="790.77" y="336.38" width="14.4" height="12.42"/>
        <rect class="cls-14" x="808.98" y="336.38" width="14.4" height="12.42"/>
        <rect class="cls-14" x="849.94" y="100.18" width="35.01" height="223.06"/>
        <rect class="cls-25" x="854.34" y="100.18" width="30.62" height="223.06"/>
        <rect class="cls-24" x="858.11" y="82.26" width="35.01" height="284.61"/>
        <rect class="cls-16" x="858.11" y="341.33" width="35.01" height="25.54"/>
        <rect class="cls-16" x="657.36" y="343.15" width="183.53" height="24"/>
        <rect class="cls-24" x="639.85" y="343.15" width="183.53" height="24"/>
        <circle class="cls-18" cx="222.44" cy="321.6" r="13.84"/>
        <path class="cls-19" d="M224.2,279.34h-53c-2.26,0-4.09,1.83-4.09,4.09,0,.14,0,.28,.02,.42l8.17,81c.21,2.09,1.98,3.69,4.08,3.68h33.92c2.05,0,3.79-1.51,4.06-3.55l10.9-81c.3-2.24-1.28-4.31-3.52-4.6-.18-.02-.36-.04-.54-.04Z"/>
        <circle class="cls-11" cx="410.48" cy="401.01" r="144.37"/>
        <polyline class="cls-4" points="497.14 482.8 531.15 703.23 514.14 703.23 431.66 516.79"/>
        <polyline class="cls-4" points="323.62 481.17 289.61 701.6 306.61 701.6 389.1 515.16"/>
        <path class="cls-10" d="M323.62,481.17l-11,71.06h0c11.92,14.38,30.56,21.38,49,18.43l3.1-.5,24.34-55"/>
        <path class="cls-26" d="M301.24,701.76c-.1,0-.2-.02-.3-.06-.38-.15-.56-.59-.41-.96,0-.01,.01-.02,.02-.04l7.65-18.1c2.49-5.9,4.83-12,6.94-18l11-31.44c5.37-15.35,11.96-30.25,19.7-44.55,8.79-16.26,16.08-33.28,21.8-50.85l2.69-8.26c.13-.39,.55-.6,.94-.48,.4,.12,.62,.54,.5,.93,0,.02-.01,.04-.02,.07l-2.68,8.26c-5.75,17.66-13.08,34.76-21.91,51.1-7.7,14.23-14.26,29.06-19.61,44.33l-11,31.44c-2.12,6.06-4.47,12.14-7,18.07l-7.65,18.09c-.12,.26-.37,.44-.66,.45Z"/>
        <path class="cls-26" d="M293.94,702.27h-.11c-.41-.07-.69-.45-.63-.86l3.14-20.41c1-6.35,2.26-12.75,3.69-19l7.38-32.48c3.58-15.79,5.9-31.84,6.94-48,1.2-18.53,4.07-36.92,8.59-54.93l2.12-8.42c.06-.41,.45-.69,.86-.63,.41,.06,.69,.45,.63,.86,0,.04-.02,.09-.03,.13l-2.11,8.47c-4.5,17.92-7.36,36.22-8.55,54.66-1.05,16.23-3.4,32.35-7,48.21l-7.38,32.48c-1.42,6.24-2.65,12.61-3.67,18.92l-3.14,20.39c-.06,.35-.36,.61-.72,.61Z"/>
        <path class="cls-26" d="M328.13,588.2c-.08,.01-.17,.01-.25,0-.29-.1-.49-.37-.5-.68-.83-20.17,7.93-74.88,8-75.43,.05-.41,.43-.7,.84-.65,.41,.05,.7,.43,.65,.84,0,.01,0,.03,0,.04-.08,.53-8.31,51.88-8.05,73.24,6.12-7,32.68-38.42,39.24-62.14,.08-.41,.47-.68,.88-.6s.68,.47,.6,.88c0,.04-.02,.08-.03,.12-7.49,27.03-40.49,63.76-40.8,64.17-.15,.14-.35,.21-.56,.2Z"/>
        <path class="cls-26" d="M315.93,640.56c-.11,0-.22-.02-.32-.07-.37-.16-.54-.59-.38-.96,0-.01,.01-.03,.02-.04,4.46-9.91,7.47-20.41,8.91-31.18,.06-.41,.44-.7,.85-.64,.41,.06,.7,.44,.64,.85h0c-1.46,10.91-4.49,21.56-9,31.6-.13,.28-.41,.45-.72,.44Z"/>
        <path class="cls-26" d="M518.81,703c-.3,0-.57-.18-.69-.45l-7.65-18.1c-2.5-5.91-4.85-12-7-18.07l-11-31.43c-5.35-15.28-11.9-30.1-19.6-44.34-8.82-16.33-16.14-33.43-21.87-51.09l-2.69-8.27c-.12-.39,.09-.81,.48-.94,.39-.13,.82,.09,.95,.48l2.68,8.26c5.71,17.57,13,34.59,21.78,50.85,7.73,14.31,14.32,29.2,19.7,44.55l11,31.44c2.11,6,4.45,12.09,6.94,18l7.66,18.11c.17,.39-.01,.83-.4,1,0,0,0,0,0,0-.1,.02-.19,.02-.29,0Z"/>
        <path class="cls-26" d="M526.1,703.51c-.37,0-.68-.27-.74-.63l-3.13-20.4c-1-6.3-2.26-12.67-3.68-18.91l-7.37-32.48c-3.6-15.86-5.94-31.98-7-48.21-1.2-18.44-4.06-36.74-8.55-54.67l-2.12-8.42c-.1-.4,.14-.81,.55-.91,.4-.1,.81,.14,.91,.54l2.11,8.43c4.52,18.01,7.39,36.4,8.59,54.93,1.05,16.16,3.37,32.21,6.95,48l7.38,32.45c1.42,6.28,2.66,12.68,3.69,19l3.13,20.4c.07,.4-.2,.78-.59,.85,0,0-.02,0-.03,0l-.1,.03Z"/>
        <path class="cls-26" d="M491.91,589.45c-.21,0-.42-.09-.56-.25-.35-.36-33.35-37.1-40.82-64.2-.11-.4,.12-.82,.52-.93s.82,.12,.93,.52c6.56,23.73,33.12,55.13,39.23,62.14,.27-21.35-8-72.7-8-73.23-.08-.41,.19-.8,.59-.88s.8,.19,.88,.59c0,.01,0,.03,0,.04,.09,.55,8.86,55.26,8,75.43-.01,.3-.21,.57-.49,.68-.09,.05-.19,.07-.29,.08Z"/>
        <path class="cls-26" d="M504.12,641.81c-.29,0-.55-.17-.68-.43-4.52-10.04-7.55-20.69-9-31.6-.09-.4,.16-.81,.56-.9s.81,.16,.9,.56c0,.04,.02,.08,.02,.12,1.45,10.77,4.45,21.27,8.92,31.17,.17,.38,.01,.82-.36,1-.11,.05-.24,.08-.36,.07Z"/>
        <path class="cls-10" d="M497.14,482.8l10.33,67h0c-17.12,7.85-35.89,11.41-54.7,10.37l-2-.11-19.14-43.26"/>
        <polygon class="cls-4" points="897.29 701.01 860 701.01 789 375.79 826.29 375.79 897.29 701.01"/>
        <polygon class="cls-10" points="833.55 409.04 796.26 409.04 789 375.79 826.29 375.79 833.55 409.04"/>
        <polygon class="cls-4" points="164.44 701.01 201.73 701.01 272.73 375.79 235.44 375.79 164.44 701.01"/>
        <polygon class="cls-10" points="229.09 404.87 266.12 404.87 272.73 375.79 235.44 375.79 229.09 404.87"/>
        <path class="cls-30" d="M96.39,283.09c-2.26,2.26-5.41,0-8.09,1.06-6.15,2.38-12.42,1.92-23.8-5.63-.52,4.66,1.26,9.21,3.34,13,6.84,12.33,17.74,20.18,29,20.88"/>
        <path class="cls-17" d="M99.61,282.6c-1.73,4.71-6.57,4.7-9.36,8.29-6.38,8.21-14.25,13.11-31.46,13.75,1.47,6.11,5.7,10.1,9.92,12.85,13.49,9.06,31.09,9.17,44.69,.29"/>
        <path class="cls-30" d="M120.18,470.61c-2.26,2.26-5.41,0-8.1,1.06-6.14,2.39-12.41,1.92-23.79-5.62-.52,4.66,1.26,9.21,3.33,12.95,6.85,12.33,17.75,20.18,29,20.87"/>
        <path class="cls-17" d="M123.39,470.13c-1.72,4.7-6.56,4.69-9.35,8.29-6.38,8.21-14.21,13.07-31.46,13.74,1.47,6.11,5.7,10.11,9.92,12.85,13.48,9.05,31.08,9.17,44.68,.3"/>
        <path class="cls-30" d="M116.62,308.94c2.73,.79,4.94-3,7.7-3.6,6.31-1.29,11.9-5.25,20.06-18.56,1.85,4,1.57,9.12,.78,13.7-2.6,15.12-10.23,28.44-20.28,35.41"/>
        <path class="cls-17" d="M113.54,310.31c3,3.32,7.38,.59,11,2.29,8.25,3.9,16.84,3.91,32.78-5.21,.47,6.41-2.21,12.44-5.25,17.33-10,16.12-25.32,25.7-40.7,25.49"/>
        <path class="cls-30" d="M134.45,369.86c2.73,.79,4.94-3,7.7-3.6,6.31-1.29,11.9-5.25,20.06-18.56,1.85,3.95,1.57,9.12,.78,13.7-2.6,15.12-10.23,28.43-20.28,35.41"/>
        <path class="cls-17" d="M131.37,371.23c3,3.32,7.38,.59,11,2.29,8.25,3.89,16.84,3.91,32.78-5.21,.47,6.41-2.21,12.44-5.25,17.33-10,16.12-25.32,25.7-40.7,25.48"/>
        <path class="cls-30" d="M151.37,466.18c2.73,.79,4.94-3,7.7-3.59,6.31-1.29,11.9-5.26,20.06-18.56,1.85,4,1.57,9.11,.78,13.69-2.6,15.12-10.23,28.44-20.28,35.41"/>
        <path class="cls-17" d="M148.29,467.56c3,3.32,7.38,.58,11,2.28,8.25,3.9,16.84,3.91,32.78-5.2,.47,6.41-2.21,12.44-5.25,17.32-10,16.12-25.32,25.71-40.7,25.49"/>
        <path class="cls-22" d="M147.2,336c-18.16,26.49-44.48,32.35-67,31.3-3-35.14-4.69-76,2.83-110.15,2.66-12.11,6.53-32,15.45-29.13,4.49,1.47,10.25,12.63,12.88,17.86,14.41,29,26.39,59.15,35.84,90.12Z"/>
        <path class="cls-17" d="M166.84,418.14h0c-21.72,25.7-52.31,27.21-75.15,23.52-3-13.76-5.6-27.68-7.67-41.77-1.58-10.84-2.88-21.71-3.79-32.58,22.5,1.05,48.82-4.81,67-31.3,8.27,26.93,14.82,54.37,19.61,82.13Z"/>
        <path class="cls-22" d="M175.39,567.16l-59.25-34.43c-9-29.88-17.73-60.09-24.46-91.05,22.84,3.69,53.43,2.18,75.15-23.52,8.52,49.11,11.7,99.74,8.56,149Z"/>
        <path class="cls-30" d="M152.83,555.21c-.38,0-.71-.27-.78-.65L96.28,249.46c-.05-.44,.26-.84,.7-.89,.4-.05,.77,.21,.87,.6l55.77,305.1c.08,.43-.21,.85-.64,.93h-.15Z"/>
        <path class="cls-30" d="M114.74,346.68h-.06c-10.71-1.18-20.96-4.98-29.84-11.08-.38-.22-.52-.71-.3-1.09,.22-.38,.71-.52,1.09-.3,.04,.03,.09,.06,.13,.09,8.63,5.93,18.59,9.64,29,10.8,.43,.02,.76,.39,.74,.82,0,0,0,.02,0,.02-.03,.4-.36,.72-.76,.74Z"/>
        <path class="cls-30" d="M116.83,355c-.31,0-.59-.18-.72-.46-.18-.4,0-.87,.39-1.06,7.44-3.83,13.97-9.22,19.16-15.78,.28-.35,.78-.41,1.13-.13,.35,.28,.41,.78,.13,1.13-5.33,6.79-12.07,12.34-19.76,16.25-.1,.04-.22,.06-.33,.05Z"/>
        <path class="cls-30" d="M125.38,399.91c-.44,0-.8-.36-.8-.8,0-.3,.17-.57,.43-.71,7.36-4.18,13.76-9.85,18.79-16.65,.25-.36,.75-.44,1.1-.19,0,0,0,0,0,0,.35,.26,.43,.76,.17,1.11-5.15,7.03-11.74,12.87-19.34,17.14-.11,.06-.23,.09-.36,.09Z"/>
        <path class="cls-30" d="M138.5,472c-.25,0-.48-.11-.63-.31-.27-.34-.21-.84,.14-1.11,0,0,0,0,0,0,6.83-5.7,12.51-12.64,16.76-20.46,.21-.39,.69-.53,1.07-.32,.39,.21,.53,.69,.32,1.07-4.35,8.02-10.19,15.15-17.19,21-.14,.1-.31,.14-.48,.13Z"/>
        <path class="cls-30" d="M138.8,484.66h-.06c-10.71-1.18-20.97-4.99-29.85-11.09-.36-.25-.44-.75-.19-1.11s.75-.44,1.11-.18h0c8.63,5.93,18.59,9.64,29,10.79,.44,.05,.76,.45,.71,.88-.04,.37-.33,.66-.71,.71h0Z"/>
        <path class="cls-30" d="M128.9,425h-.05c-5.96-.6-11.8-2.06-17.34-4.33-.39-.2-.55-.68-.35-1.08,.17-.34,.57-.51,.94-.4,5.41,2.18,11.1,3.58,16.9,4.17,.44,.05,.76,.45,.71,.88-.04,.37-.33,.66-.71,.71l-.1,.05Z"/>
        <path class="cls-30" d="M106.13,300.35h0c-5.97-.61-11.82-2.07-17.38-4.35-.42-.13-.67-.57-.54-.99s.57-.67,.99-.54c.05,.01,.09,.03,.14,.05,5.39,2.19,11.06,3.61,16.84,4.22,.44,.03,.77,.41,.75,.85-.02,.43-.37,.76-.8,.76Z"/>
        <path class="cls-30" d="M121,381.87h-.06c-5.95-.6-11.79-2.06-17.33-4.33-.39-.2-.55-.68-.35-1.08,.17-.34,.57-.51,.94-.4,5.37,2.19,11.03,3.61,16.8,4.22,.44,.06,.74,.47,.68,.9-.05,.37-.36,.66-.73,.69h.05Z"/>
        <path class="cls-30" d="M110.79,321.92c-.44,0-.79-.35-.8-.78,0-.28,.15-.54,.39-.69,3.17-2.02,6.18-4.27,9-6.75,.32-.29,.81-.26,1.1,.06,0,0,.01,.01,.02,.02,.29,.33,.25,.83-.07,1.11,0,0,0,0,0,0-2.87,2.54-5.95,4.85-9.19,6.91-.13,.08-.29,.12-.44,.11Z"/>
        <path class="cls-30" d="M145.2,510.42c-.28,0-.54-.15-.69-.39-.22-.38-.1-.86,.28-1.09,3.17-2.02,6.18-4.28,9-6.75,.32-.29,.81-.26,1.1,.06,0,0,.01,.01,.02,.02,.29,.33,.25,.83-.07,1.11,0,0,0,0,0,0-2.88,2.55-5.95,4.86-9.2,6.91-.13,.08-.28,.13-.43,.12Z"/>
        <path class="cls-30" d="M166.06,516.7c1.92,7.2,3.43,14.54,3.14,22-.31,8.13-2.69,16-5.5,23.57-.53,1.44,1.77,2.06,2.3,.63,2.89-7.78,5.27-15.85,5.59-24.2,.3-7.68-1.26-15.26-3.22-22.65-.22-.63-.9-.96-1.53-.74-.57,.2-.9,.78-.78,1.37v.02Z"/>
        <path class="cls-8" d="M87.91,271.57c.73-5.55,1.79-11.29,2.93-16.86,.42-1.25-.25-2.61-1.5-3.03s-2.61,.25-3.03,1.5c-.03,.09-.05,.18-.07,.26-1.23,6-2.3,12.05-3.1,18.13-.02,1.33,1.04,2.41,2.37,2.43,0,0,.01,0,.02,0,1.3-.04,2.35-1.09,2.38-2.39v-.04Z"/>
        <ellipse class="cls-8" cx="90.36" cy="245.49" rx="3.01" ry="1.7" transform="translate(-167.5 289.51) rotate(-79.48)"/>
        <path class="cls-30" d="M30.64,392.67c-1.44,2.39-5,2.13-7.15,3.87-5,4-10.88,6.13-23.49,5.54,.83,3.31,3.76,5.65,6.73,7.33,9.97,5.56,21.86,6.51,32.58,2.59"/>
        <path class="cls-17" d="M33.47,391.09c-.26,3.81-4.71,5.7-6.27,9.18-3.55,8-9.39,14.26-25.08,21.45,3.09,3.5,8.11,4.51,12.77,4.69,15.6,.52,30.64-5.79,41.22-17.26"/>
        <path class="cls-30" d="M105.56,508.37c-1.44,2.39-5,2.12-7.15,3.86-5,4-10.88,6.13-23.49,5.55,.83,3.31,3.76,5.65,6.73,7.33,9.97,5.55,21.86,6.5,32.58,2.59"/>
        <path class="cls-17" d="M108.39,506.79c-.26,3.8-4.71,5.69-6.27,9.17-3.55,8-9.39,14.26-25.08,21.45,3.09,3.5,8.11,4.51,12.77,4.69,15.58,.51,30.62-5.79,41.19-17.25"/>
        <path class="cls-30" d="M56.58,402c2.74-.54,3.69-3.95,6.07-5.4,5.45-3.33,9.47-8.15,13.21-20.2,2.83,1.91,4,5.45,4.6,8.82,1.83,11.27-1.33,22.77-8.66,31.52"/>
        <path class="cls-17" d="M54.13,404.12c3.67,1.06,7-2.49,10.77-2.77,8.7-.62,16.6-4,28.7-16.27,2.24,4.09,1.48,9.16,.07,13.6-4.84,14.84-15.88,26.84-30.27,32.88"/>
        <path class="cls-30" d="M90.22,435.64c2.74-.54,3.69-3.95,6.07-5.41,5.45-3.32,9.47-8.14,13.21-20.2,2.83,1.91,4,5.46,4.6,8.83,1.83,11.27-1.33,22.77-8.66,31.52"/>
        <path class="cls-17" d="M87.77,437.76c3.67,1.05,7-2.49,10.76-2.77,8.7-.63,16.61-4,28.71-16.27,2.24,4.09,1.48,9.15,.06,13.6-4.84,14.84-15.9,26.85-30.3,32.88"/>
        <path class="cls-30" d="M133,493.23c2.74-.54,3.69-4,6.07-5.4,5.45-3.33,9.47-8.15,13.21-20.2,2.83,1.9,4,5.45,4.6,8.82,1.85,11.27-1.3,22.79-8.63,31.55"/>
        <path class="cls-17" d="M130.58,495.35c3.67,1.06,7-2.49,10.76-2.77,8.7-.63,16.61-4,28.71-16.27,2.24,4.09,1.48,9.16,.07,13.6-4.84,14.84-15.88,26.84-30.27,32.88"/>
        <path class="cls-22" d="M92.39,408.11c-9.23,24.75-31.8,38.94-52.81,47-12.67-22.26-25.8-48.8-28.54-74.51-1-9.11-3-23.9,6-25.45,4.54-.78,13,4.41,16.9,6.87,20.99,13.35,40.58,28.79,58.45,46.09Z"/>
        <path class="cls-17" d="M133.68,455.17h0c-12.72,25.62-40.46,38.57-62.53,45-6.65-8-13-16.26-18.87-24.84-4.52-6.61-8.79-13.35-12.7-20.24,21-8.08,43.58-22.27,52.81-47,15.05,14.51,28.86,30.26,41.29,47.08Z"/>
        <path class="cls-22" d="M183.69,551.16l-64.28,.18c-16.74-16.34-33.31-33.12-48.26-51.13,22.07-6.46,49.81-19.41,62.53-45,21.73,29.38,38.98,61.88,50.01,95.95Z"/>
        <path class="cls-30" d="M159.33,552.14c-.21,0-.41-.09-.54-.26L21.18,370.31c-.25-.28-.22-.71,.06-.96s.71-.22,.96,.06c.02,.03,.04,.05,.06,.08l137.6,181.57c.24,.28,.22,.7-.06,.95-.02,.02-.05,.04-.07,.05-.12,.07-.26,.1-.4,.08Z"/>
        <path class="cls-30" d="M39.55,432.4c-1.49,0-3,0-4.51-.16-.37-.03-.65-.35-.62-.72,0,0,0,0,0,0,.02-.37,.34-.65,.71-.63,0,0,0,0,.01,0,15.35,1.13,29.77-4.11,29.92-4.16,.36-.1,.74,.12,.83,.48,.08,.32-.07,.65-.36,.79-8.38,2.81-17.14,4.29-25.98,4.4Z"/>
        <path class="cls-30" d="M69.57,432.77c-.19,0-.38-.08-.51-.23-.26-.27-.25-.7,.02-.96,.01-.01,.03-.03,.04-.04,5.49-5.12,9.98-11.23,13.22-18,.15-.34,.55-.49,.89-.34,.34,.15,.49,.55,.34,.89h0c-4.77,10.67-13.47,18.43-13.57,18.51-.12,.1-.27,.16-.43,.17Z"/>
        <path class="cls-30" d="M90.13,459.36c-.19,0-.36-.08-.49-.21-.28-.25-.29-.68-.04-.96,.01-.01,.03-.03,.04-.04,5.32-5.32,9.6-11.58,12.61-18.47,.15-.34,.55-.5,.9-.35,.33,.15,.49,.52,.36,.86-3.08,7.08-7.46,13.52-12.91,18.98-.13,.12-.29,.19-.47,.19Z"/>
        <path class="cls-30" d="M122.59,502.28c-.15,0-.29-.05-.41-.14-.29-.22-.35-.64-.13-.94,0,0,0,0,0-.01,4.45-6.07,7.72-12.92,9.65-20.19,.08-.36,.43-.58,.78-.51,0,0,.02,0,.03,0,.36,.08,.58,.44,.5,.8,0,0,0,0,0,0-1.97,7.46-5.33,14.48-9.89,20.7-.13,.17-.33,.27-.54,.27Z"/>
        <path class="cls-30" d="M100.71,515c-1.49,0-3-.05-4.51-.16-.37-.03-.65-.35-.62-.72,0,0,0,0,0-.01,.01-.36,.32-.64,.68-.62,.01,0,.03,0,.04,0,15.34,1.13,29.77-4.11,29.92-4.17,.35-.13,.74,.06,.87,.41,0,0,0,0,0,0,.13,.34-.04,.72-.38,.85,0,0-.01,0-.02,0-8.38,2.81-17.14,4.3-25.98,4.41Z"/>
        <path class="cls-30" d="M83.52,478.5c-.38-.02-.67-.34-.65-.71,.01-.32,.25-.59,.57-.64,5.71-.68,11.33-1.95,16.78-3.79,.36-.1,.74,.12,.83,.48,.08,.32-.07,.65-.36,.79-5.55,1.88-11.27,3.18-17.09,3.86h-.08Z"/>
        <path class="cls-30" d="M27.33,404.34c-.34,0-.63-.25-.67-.59-.05-.37,.22-.71,.59-.76,0,0,0,0,0,0,5.7-.68,11.31-1.95,16.75-3.78,.34-.16,.74-.02,.91,.32,.16,.34,.02,.74-.32,.91-.04,.02-.08,.03-.12,.04-5.55,1.87-11.28,3.16-17.09,3.86h-.05Z"/>
        <path class="cls-30" d="M64,452.89c-.38-.02-.67-.34-.65-.71,.01-.32,.25-.59,.57-.64,5.71-.68,11.34-1.95,16.79-3.79,.32-.19,.74-.08,.93,.24,.19,.32,.08,.74-.24,.93-.06,.04-.13,.06-.2,.08-5.55,1.88-11.28,3.18-17.1,3.86l-.1,.03Z"/>
        <path class="cls-30" d="M54.66,413.08c-.18,0-.34-.07-.47-.19-.26-.26-.26-.69,0-.95,0,0,0,0,0,0,2.29-2.52,4.42-5.2,6.36-8,.21-.3,.63-.38,.93-.16,0,0,0,0,0,0,.31,.21,.38,.63,.18,.93,0,0,0,0,0,0-1.97,2.87-4.14,5.61-6.49,8.18-.14,.13-.32,.19-.51,.18Z"/>
        <path class="cls-30" d="M139.63,525.27c-.18,0-.34-.07-.47-.19-.28-.25-.29-.68-.04-.96,.01-.01,.03-.03,.04-.04,2.3-2.52,4.43-5.19,6.37-8,.25-.28,.68-.31,.96-.06,.24,.21,.3,.55,.15,.83-1.98,2.87-4.15,5.6-6.49,8.18-.13,.15-.32,.24-.52,.24Z"/>
        <path class="cls-30" d="M161.09,521.22c3.68,3.93,7.2,8.2,9,13.33,2,5.66,2,11.76,1.57,17.68-.1,1.31,1.94,1.3,2,0,.44-6.17,.44-12.6-1.74-18.49-2-5.36-5.58-9.82-9.45-14-.9-1-2.33,.48-1.44,1.43l.06,.05Z"/>
        <path class="cls-8" d="M19.35,388.7c-.47-2.08-.87-4.18-1.22-6.29s-.65-4.15-.88-6c-.04-1.09-.91-1.96-2-2-1,0-2.18,.9-2,2,.56,4.49,1.25,9,2.24,13.38,.28,1.07,1.37,1.71,2.44,1.44,.02,0,.04-.01,.06-.02,1.07-.32,1.69-1.42,1.42-2.5h-.06Z"/>
        <ellipse class="cls-8" cx="14.45" cy="369.96" rx="1.66" ry="2.23"/>
        <path class="cls-19" d="M537.64,468.89c-2,9.37-21.46,28.66-27.63,36.05-9.42,11.27-18.87,20-32.23,26.08-39.59,18.13-84.89,19.18-125.27,2.91-38.74-15.67-70.22-49.33-81.36-89.61-3.47-12.86-5.15-26.14-5-39.46,.04-7.79,.64-15.56,1.79-23.26,2.63,11.87,5.73,23.59,10.53,34.75,14.98,34.22,44.38,60.01,80.26,70.41,11.32,3.2,23.05,4.77,34.78,5.75,43.39,3.6,102.34-11.35,144.13-23.62Z"/>
        <path class="cls-2" d="M402.56,42.51c-13.47-5.01-28.63-1.62-38.69,8.64-8.87,9.4-12.05,22.94-12.56,35.85s1.21,25.92,.33,38.85c-1.12,16.55-6.5,32.92-4.75,49.41,1.19,11.3,5.67,22,7.94,33.11,2.22,10.9,2.31,22.13,.26,33.07-2,10.4-5.82,21.24-2.34,31.24,2.44,7,8.25,12.41,14.8,15.88s13.85,5.2,21.09,6.81,15.27,3.15,22.36,.5c7.77-2.91,13-10.25,16.79-17.62,3.7-7.11,6.6-14.61,8.65-22.36,1.65-6.24,2.76-12.69,5.56-18.51,2.11-4.39,5.12-8.29,7.64-12.47,14.41-23.82,11.94-54.19,4.81-81.1s-18.45-52.99-20.45-80.76"/>
        <path class="cls-12" d="M426.91,200.8c11.64-11.24,18.22-26.72,18.23-42.9,3.33,0,6.23,2.17,8.74,4.36s5.07,4.59,8.33,5.29,7.32-1.23,7.5-4.55c-.59,6-1,12.73,2.88,17.37,2.59,3.11,6.63,4.65,9.56,7.44,3.26,3.11,4.91,7.53,6.16,11.86,3.72,12.93,4.76,27,.28,39.71s-15.17,23.63-28.41,26"/>
        <path class="cls-12" d="M659.81,345c-3.09-3.48-3.41-8.61-.78-12.44l-.03,.44c3.87-6.56,11.77-9.35,19-11.65l13.15-4.17c1.84-.71,3.78-1.11,5.75-1.18,3.25,.11,6.13,2,8.83,3.79,8.18,5.5,16.56,11.19,22,19.37,.5,.58,.73,1.35,.62,2.11-.42,1.35-2.37,1.19-3.69,.71-4.89-1.77-9.6-4-14.07-6.66-3.59-2.14-7.7-4.66-11.66-3.32-3.22,1.09-5.08,4.36-6.9,7.24s-4.4,5.88-7.81,5.85l-24.41-.09Z"/>
        <path class="cls-14" d="M632.29,349.65c5.46-6.69,15-9.23,23.46-7.58s15.88,7,21.46,13.58c-3.37,3-8.34,3.21-12.86,3.22l-36.93,.15"/>
        <path class="cls-12" d="M571.67,364.55c-3.5-8.04-5.1-16.79-4.67-25.55,10.08,3.29,21,1.73,31.49,.14l22.64-3.45c11.77-1.79,24.84-3.3,34.65,3.45-5.33,.53-10.5,2.1-15.22,4.62,3.74,1.79,6.84,4.7,8.85,8.33,.54,.78,.77,1.75,.62,2.69-.37,1.41-2,2-3.47,2.28-12.41,2.74-25.13,3.75-37.81,3"/>
        <path class="cls-13" d="M617,656.37c2.44,10-3.39,20.74-.45,30.59,2.54,8.51,11,13.95,19.5,16.69,9.7,3.15,20,3.76,30.24,3.84,19.05,.16,39.5-2,54.07-14.2,1.69-1.42,3.37-3.1,3.81-5.26,1-4.71-4.08-8.28-8.45-10.34-12.29-5.77-24.99-10.61-38-14.48-5.1-1.51-10.26-2.88-15.06-5.16-3.5-1.67-6.83-3.83-10.62-4.65s-8.33,.07-10.38,3.35c-3.32,5.33,1.72,13.17-1.91,18.3-1.41,1.75-3.39,2.96-5.59,3.41-5.91,1.54-10.09-1.76-14.57-5.89"/>
        <path class="cls-12" d="M615.78,665.64c.86,5.08,4.07,9.45,8.67,11.77,4.56,2.17,9.89,1.91,14.22-.68,1.78-.92,3.08-2.56,3.57-4.5,.31-1.9-.58-3.75-1.11-5.59-.92-3.19-.81-6.59,.33-9.71-2.13-2.26-5.27-3-8.16-4s-6-2.49-7.16-5.4"/>
        <path class="cls-27" d="M496.39,383l1.38,11.89-50.31,11.36c23.75-10.86,50.52-12.91,76.64-13.28,13.3-.19,26.84,0,39.5,4.11,12.1,3.88,23.45,11.76,29,23.12l.15,.6,6.9,32.88c4.58,21.89,9.17,43.79,13.76,65.68,9.46,45.17,19,90.47,22.79,136.46h0c-5.08,5.25-11.57,8.91-18.69,10.54l-1.59,.37c-29.84-60.94-58.64-122.37-86.41-184.28l15.28-4.48c-41.94,10.45-84.75,17-127.89,19.59-8.7,.53-17.53,.88-26-1-23.94-5.17-41.9-28.35-43.69-52.78s11.16-48.7,30.79-63.34"/>
        <path class="cls-1" d="M425.6,222.63c-4.18-4.45-8.95-8.29-14.18-11.43-5.63-3.38-12.59-5.93-18.65-3.43-5.55,2.3-8.73,8.22-10.27,14-2.75,10.55-1.56,21.74,3.33,31.48,4.93,9.71,13.2,17.24,21.44,24.36,19.33,16.74,39.46,32.52,60.39,47.34,3.38,2.53,6.97,4.77,10.72,6.7,4.38,2.12,9.68,4.91,14.37,6.2,18.47,5.09,36,12.84,54.48,17.92,7.78,2.15,16.08,5.09,23.82,2.79,2.22-4.45,2.79-13.83,5-18.27-29.94-14.42-64.57-22.72-89.15-45.09-6.28-5.72-11.57-12.42-16.83-19.09-17.29-21.91-33.57-39.81-50.85-61.72"/>
        <path class="cls-1" d="M397.12,257.41c2.77,4.03,4.59,8.64,5.33,13.47,.23,.8,1.05,1.26,1.85,1.05,.77-.26,1.21-1.07,1-1.85-.79-5.09-2.71-9.94-5.63-14.19-.42-.72-1.34-.95-2.05-.54s-.95,1.34-.54,2.05h.04Z"/>
        <path class="cls-2" d="M446.82,47.54l16-3.35c5.12-1.07,10.54-2.13,15.5-.47-2.07-3.3-5.68-5.28-9.26-6.82-7.8-3.37-16.14-5.31-24.62-5.73"/>
        <path class="cls-21" d="M414.05,212.18l34.69,43.25c5.54,6.9,11,13.82,16.62,20.69,5,6.12,10.06,12.16,15.61,17.77,6.13,6.33,13.05,11.83,20.6,16.37,.38,.17,.82,0,.99-.37,.15-.32,.05-.71-.24-.92-13.7-8-24.46-19.92-34.42-32.09-11.24-13.73-22.23-27.66-33.33-41.5l-19.46-24.27c-.6-.75-1.66,.32-1.06,1.07h0Z"/>
        <path class="cls-20" d="M417.21,288.83c21.87,15.44,41.79,34.43,66.49,45.44,6.69,3.03,13.7,5.29,20.9,6.73,.94,.19,1.35-1.26,.4-1.44-26.44-5.16-48-22.34-68.84-38.4-6-4.63-12-9.23-18.19-13.6-.79-.56-1.54,.74-.76,1.29v-.02Z"/>
        <path class="cls-29" d="M398.55,421.9c15.08,3.64,31.68-2.19,41.79-13.81,2.88-3.3,5.19-7.04,6.86-11.09,.73-1.78-2.17-2.56-2.9-.8-5.41,13.15-18.91,22.34-32.93,23.65-4.02,.39-8.07,.11-12-.83-1.88-.45-2.68,2.44-.8,2.9l-.02-.02Z"/>
        <path class="cls-29" d="M502.77,392.37l-39.83,5.79c-1.91,.27-1.1,3.17,.8,2.89l39.83-5.79c1.9-.28,1.09-3.17-.8-2.89h0Z"/>
        <path class="cls-8" d="M197.3,279.26c5.32,5.26,3.1,13.36,1.14,19.58-2.34,7.42-3.48,14.83-2.45,22.59,.12,.95,1.63,1,1.5,0-.57-4.15-.57-8.37,0-12.52,.71-4.02,1.74-7.98,3.06-11.84,1.85-6.2,2.88-13.85-2.2-18.87-.69-.68-1.75,.38-1.06,1.06h0Z"/>
        <path class="cls-29" d="M530.08,483.9l17-5.29c1.83-.57,1-3.47-.8-2.9l-17,5.29c-1.84,.57-1.06,3.46,.8,2.89h0Z"/>
        <path class="cls-29" d="M542.11,490.54c-.39,0-.75-.23-.91-.59l-1.46-3.18c-.23-.5,0-1.1,.49-1.33,.5-.23,1.1,0,1.33,.5l1.45,3.18c.23,.5,.01,1.1-.49,1.33-.13,.06-.27,.09-.41,.09h0Z"/>
        <path class="cls-29" d="M612.26,644.16c-.39,0-.75-.23-.91-.59l-2.92-6.4c-.23-.5,0-1.1,.49-1.33s1.1,0,1.33,.49l2.92,6.4c.23,.5,.02,1.1-.49,1.33,0,0,0,0,0,0-.13,.06-.28,.09-.42,.09Zm-5.84-12.81c-.39,0-.75-.23-.91-.58l-2.93-6.4c-.23-.5,0-1.1,.49-1.33s1.1,0,1.33,.49l2.92,6.4c.23,.5,0,1.09-.49,1.32-.13,.06-.27,.09-.41,.09Zm-5.85-12.8c-.39,0-.75-.23-.91-.58l-2.92-6.4c-.23-.5-.02-1.1,.49-1.33,0,0,0,0,0,0,.5-.23,1.09,0,1.32,.5l2.93,6.4c.23,.5,0,1.09-.5,1.32-.13,.06-.27,.09-.41,.09Zm-5.85-12.8c-.39,0-.75-.23-.91-.58l-2.92-6.4c-.23-.5,0-1.1,.49-1.33s1.1,0,1.33,.49l2.92,6.4c.23,.5,0,1.09-.49,1.32-.13,.06-.28,.09-.42,.09h0Zm-5.84-12.75c-.39,0-.75-.23-.91-.58l-2.97-6.42c-.23-.5,0-1.1,.49-1.33s1.1,0,1.33,.49l2.93,6.4c.23,.5,.01,1.1-.49,1.33,0,0,0,0,0,0-.12,.06-.24,.09-.37,.1Zm-5.88-12.85c-.39,0-.75-.23-.91-.59l-2.92-6.4c-.23-.5,0-1.1,.49-1.33s1.1,0,1.33,.49l2.92,6.4c.23,.5,.01,1.1-.49,1.33,0,0,0,0,0,0-.13,.06-.27,.09-.41,.09Zm-5.85-12.8c-.39,0-.75-.23-.91-.59l-2.92-6.4c-.23-.5,0-1.1,.49-1.33s1.1,0,1.33,.49l2.92,6.4c.23,.5,.02,1.1-.49,1.33,0,0,0,0,0,0-.12,.05-.26,.09-.39,.09h-.03Zm-5.84-12.8c-.39,0-.75-.23-.91-.59l-2.93-6.4c-.23-.5-.01-1.1,.49-1.33,0,0,0,0,0,0,.5-.23,1.09,0,1.32,.5l2.93,6.4c.23,.5,0,1.09-.5,1.32-.12,.06-.25,.1-.38,.1h-.03Zm-5.85-12.81c-.39,0-.75-.23-.91-.58l-2.92-6.4c-.23-.5,0-1.1,.49-1.33s1.1,0,1.33,.49l2.92,6.4c.23,.5,0,1.09-.49,1.32-.12,.05-.26,.09-.39,.09h-.03Zm-5.85-12.8c-.39,0-.75-.23-.91-.58l-2.92-6.4c-.23-.5-.01-1.1,.49-1.33s1.1-.01,1.33,.49l2.92,6.41c.23,.5,0,1.09-.49,1.32-.12,.05-.26,.09-.39,.09h-.03Zm-5.84-12.8c-.39,0-.75-.23-.91-.58l-2.86-6.41c-.28-.48-.11-1.09,.37-1.37,.48-.28,1.09-.11,1.37,.37,.03,.05,.06,.11,.08,.17l2.93,6.4c.23,.5,.01,1.1-.49,1.33,0,0,0,0,0,0-.14,.06-.29,.09-.44,.09h-.03Zm-5.77-12.8c-.39,0-.75-.23-.91-.59l-2.92-6.4c-.23-.5,0-1.1,.49-1.33,.5-.23,1.1,0,1.33,.5h0l2.92,6.4c.23,.5,.02,1.1-.49,1.33,0,0,0,0,0,0-.13,.06-.28,.09-.42,.09Z"/>
        <path class="cls-29" d="M616.64,653.74c-.39,0-.75-.23-.91-.58l-1.45-3.16c-.18-.52,.09-1.09,.61-1.27,.45-.16,.96,.03,1.2,.44l1.46,3.19c.23,.5,0,1.09-.5,1.32-.13,.05-.27,.07-.41,.06Z"/>
        <path class="cls-13" d="M96.86,549.84H241.86c.91,0,1.66,.72,1.67,1.63,0,.11,0,.21-.03,.32l-26.29,148.58c-.14,.79-.83,1.37-1.64,1.37H123.17c-.81,0-1.5-.58-1.64-1.37l-26.31-148.58c-.16-.9,.44-1.76,1.34-1.92,.1-.02,.2-.03,.3-.03Z"/>
        <path class="cls-1" d="M529.92,241.73c4.18,26.06,4.43,52.59,.73,78.72h0l-1.11,7.83-15.06,38-127.72,3.95,3.59-7.58c9.08-19.24,20.25-40.72,17.13-61.76l-13.5-91c-.22-1.45,.18-2.93,1.11-4.07,8.53-10.46,21.15-16.76,34.64-17.27l1.51-.05c1.35-.06,2.67,.41,3.68,1.31l40.88,36.43,10.2-32.18c.62-1.98,2.73-3.08,4.71-2.46,.47,.15,.91,.39,1.29,.7l20,16.7,6.1,5.07h0l.11,.11c5.69,5.77,9.41,13.19,10.64,21.2l1.07,6.35Z"/>
        <rect class="cls-4" x="156.6" y="359.02" width="748.53" height="33.54"/>
        <rect class="cls-9" x="156.6" y="375.79" width="748.53" height="16.77"/>
        <path class="cls-21" d="M418.12,214l34.69,43.25c5.53,6.9,11,13.83,16.62,20.7,5,6.12,10.06,12.16,15.61,17.76,6.12,6.33,13.05,11.84,20.6,16.38,.36,.21,.82,.08,1.02-.27s.08-.82-.27-1.02c-13.7-8-24.46-19.92-34.42-32.08-11.24-13.73-22.23-27.67-33.33-41.51l-19.46-24.3c-.6-.75-1.66,.31-1.06,1.06v.04Z"/>
        <path class="cls-20" d="M421.28,290.62c21.87,15.44,41.79,34.42,66.49,45.43,6.69,3.02,13.7,5.28,20.9,6.72,.94,.18,1.34-1.26,.4-1.45-26.44-5.16-48-22.34-68.84-38.39-6-4.63-12-9.24-18.19-13.6-.79-.56-1.54,.74-.76,1.29h0Z"/>
        <rect class="cls-14" x="820.24" y="81.96" width="6.78" height="29.36" transform="translate(353.18 779.56) rotate(-62.13)"/>
        <rect class="cls-14" x="816.84" y="101.74" width="6.78" height="29.36" transform="translate(658.49 928.92) rotate(-86.82)"/>
        <rect class="cls-14" x="808.7" y="132.8" width="29.36" height="6.78" transform="translate(-6.39 225.57) rotate(-15.54)"/>
        <path class="cls-23" d="M189.4,692.08H120.4c-.28,0-.5-.22-.5-.5s.22-.5,.5-.5h69c.28,0,.5,.22,.5,.5s-.22,.5-.5,.5Z"/>
        <path class="cls-23" d="M183.19,684.86H119.1c-.28,0-.5-.22-.5-.5s.22-.5,.5-.5h64.09c.28,0,.5,.22,.5,.5s-.22,.5-.5,.5Z"/>
        <rect class="cls-8" x="192.6" y="320.85" width="10.45" height="15.81"/>
        <path class="cls-15" d="M472.44,180c-13.46-5.83-22-13.78-27.2-20.38v-.26c3.34,2.45,6.73,4.71,10.08,6.74,2.58,1.58,5.35,3.1,8.38,3.24,1.82,.05,3.62-.32,5.26-1.1l.36,.24c-.09,4.19,.51,8.3,3.07,11.49l.05,.03Z"/>
        <path class="cls-2" d="M469.57,23.62c8.56-4.1,18.55-3.96,27,.36-5.9,.15-12,1.57-16.57,5.26"/>
        <path class="cls-12" d="M413.14,113.52c.87,22.78,22.49,41.73,42.15,53.26,2.62,1.53,5.41,3,8.44,3.1,4.65,.13,8.71-3,12.1-6.21,14.41-13.54,21.31-31.21,24.93-50.65s-.5-40.58-12.76-56.09c-5.26-6.66-12.13-12.33-20.28-14.67-5.65-1.63-11.64-1.6-17.51-1.14-7.5,.58-14.93,1.82-22.21,3.71-5.8,1.51-11.63,3.5-16.22,7.35s-7.78,9.89-6.7,15.82,7.21,10.83,13,9.29"/>
        <path class="cls-6" d="M475.1,131.69c1.6-.05,3.69-.24,5-1.32,1.6-1.34,.43-3.09-.33-4.53-1.87-3.61-2.99-7.56-3.3-11.61-.08-1-1.61-1-1.53,0,.25,3.37,1.03,6.67,2.31,9.79,.31,.74,.64,1.48,1,2.2,.52,.71,.9,1.51,1.13,2.36,.06,1.42-3.35,1.55-4.25,1.58-.42,.05-.73,.43-.68,.85,.04,.36,.32,.64,.68,.68h-.03Z"/>
        <ellipse class="cls-3" cx="464.14" cy="107.85" rx="6.52" ry="4.58" transform="translate(349.58 570.38) rotate(-89.17)"/>
        <ellipse class="cls-3" cx="487.04" cy="108.18" rx="6.52" ry="4.58" transform="translate(371.82 593.6) rotate(-89.17)"/>
        <path class="cls-3" d="M503.71,100.11c-5.27-5.61-13.17-7.9-20.63-6l-.55-2.17c8.26-2.11,17.01,.45,22.82,6.68l-1.64,1.49Z"/>
        <path class="cls-3" d="M447.39,98.75l-1.56-1.62c2.33-2.24,5.09-3.99,8.11-5.13,4.82-1.79,10.08-1.95,15-.46l-.65,2.15c-7.37-2.25-15.38-.31-20.9,5.07h0Z"/>
        <path class="cls-3" d="M488.93,104.12c1.37,.59,2.92,.59,4.29,0,.91-.35,1.75-.87,2.47-1.53,.03,.43-.1,.86-.37,1.2-1.39,2.12-3.45,3.71-5.86,4.5"/>
        <path class="cls-3" d="M486.53,103.33c1.48,.18,2.97-.26,4.11-1.21,.77-.6,1.43-1.33,1.93-2.17,.16,.4,.16,.84,0,1.24-.72,2.43-2.24,4.55-4.32,6"/>
        <path class="cls-3" d="M461,103.33c-1.42,.45-2.96,.3-4.27-.41-.88-.44-1.66-1.04-2.31-1.77-.07,.43,.02,.87,.25,1.23,1.17,2.25,3.07,4.03,5.39,5.06"/>
        <path class="cls-3" d="M463.49,102.78c-1.5,.03-2.94-.55-4-1.61-.71-.67-1.29-1.47-1.7-2.36-.2,.38-.24,.83-.12,1.24,.47,2.49,1.78,4.75,3.71,6.4"/>
        <path class="cls-8" d="M485,135.64c.07,6.28-5.41,12.7-12.08,12.77s-12-6.22-12.09-12.5v-.46c7.64,3.72,16.59,3.62,24.15-.27,.02,.15,.02,.31,.02,.46Z"/>
        <path class="cls-15" d="M495.2,77.4c-.18,0-.36-.03-.53-.07-5.8-1.6-9-6.9-10.38-9.92-.46-1.01-.02-2.19,.99-2.66s2.19-.02,2.65,.99c1.86,4.06,4.7,6.88,7.8,7.73,1.07,.29,1.7,1.39,1.41,2.45-.24,.87-1.03,1.48-1.94,1.48Z"/>
        <path class="cls-15" d="M418.3,92.92c-1.1,.08-2.06-.75-2.15-1.85-.08-1.1,.75-2.06,1.86-2.15l4.71-.69c10.28-1.57,22.22-4,32.7-10,9.6-5.48,17.2-15.69,20.34-27.3,.36-1.04,1.5-1.6,2.54-1.24,.93,.32,1.49,1.27,1.32,2.24-3.41,12.62-11.71,23.73-22.21,29.74-11.06,6.32-23.44,8.84-34.1,10.47l-4.72,.69-.29,.09Z"/>
        <path class="cls-2" d="M397.73,92.44c16.44-.82,43-3.69,57-12.43,12.61-7.92,18.5-18.43,22.5-28.81s-8.13-27.69-17.32-34c-3.86-2.64-8.54-3.84-13.18-4.42-23.53-2.88-48.2,10.59-58.45,31.96"/>
        <ellipse class="cls-12" cx="412.38" cy="110.67" rx="13.31" ry="15.44"/>
        <path class="cls-6" d="M408.16,116.91c-.21,0-.4-.14-.47-.34-1.43-4.34-.47-9.11,2.52-12.57,.19-.19,.51-.19,.7,0,.19,.19,.2,.5,0,.69,0,0,0,0,0,0-2.76,3.19-3.65,7.59-2.33,11.6,.09,.25-.04,.54-.3,.63,0,0,0,0-.01,0-.04,0-.07,0-.11-.02Z"/>
        <path class="cls-6" d="M412.56,112.41c-.12,0-.24-.04-.33-.12-1.4-1.18-3.09-1.91-4.07-1.78-.27,.04-.52-.16-.56-.43-.04-.27,.14-.52,.41-.56,0,0,.01,0,.02,0,1.58-.22,3.59,1,4.85,2,.21,.18,.24,.5,.06,.71-.09,.11-.23,.18-.38,.18Z"/>
        <path class="cls-15" d="M483.85,64c-.82,0-1.56-.52-1.85-1.29l-.49-1.3c-.97-2.59-2.27-5.03-3.88-7.28-.64-.9-.43-2.15,.47-2.79s2.15-.43,2.79,.47h0c1.8,2.53,3.26,5.28,4.34,8.19l.49,1.3c.39,1.03-.14,2.19-1.17,2.57-.22,.08-.46,.13-.7,.13Z"/>
        <path class="cls-2" d="M469.26,42.92c5.18,3.41,9.42,8.08,12.31,13.57,2.23,4.25,3.62,8.94,6.3,12.93s7.18,7.28,11.93,6.63c6.45-.87,9.88-8.3,10.13-14.8,.45-11.39-5.38-22.58-14.26-29.74s-20.49-10.51-31.89-10.39"/>
        <path class="cls-2" d="M461.79,23.07c7.5-5.82,17.29-7.8,26.46-5.37-5.73,1.4-11.36,4.07-15.08,8.66"/>
        <rect class="cls-16" x="884.29" y="83.2" width="1" height="258.13"/>
        <rect class="cls-16" x="878.4" y="83.2" width="1" height="258.13"/>
      </g>
    </g>
  </g>
</svg>