<?xml version="1.0" encoding="UTF-8"?>
<svg id="Layer_2" data-name="Layer 2" xmlns="http://www.w3.org/2000/svg" viewBox="0 0 73.96 68.39">
  <defs>
    <style>
      .cls-1 {
        fill: #67f2a8;
      }

      .cls-2 {
        fill: #f69472;
      }

      .cls-3 {
        fill: #ed572f;
      }

      .cls-4, .cls-5, .cls-6 {
        fill: #fff;
      }

      .cls-7 {
        fill: #ffefd8;
      }

      .cls-8, .cls-9 {
        fill: #fff7ed;
      }

      .cls-10 {
        fill: #b0dbee;
      }

      .cls-11, .cls-12 {
        fill: #dc6540;
      }

      .cls-13 {
        fill: #062539;
      }

      .cls-14 {
        fill: #45bce5;
      }

      .cls-15 {
        fill: #36cc7b;
      }

      .cls-16 {
        fill: #5ebadb;
      }

      .cls-5, .cls-12 {
        opacity: .59;
      }

      .cls-5, .cls-12, .cls-6, .cls-9 {
        isolation: isolate;
      }

      .cls-6 {
        opacity: .58;
      }

      .cls-9 {
        opacity: .42;
      }

      .cls-17 {
        opacity: .23;
      }
    </style>
  </defs>
  <g id="Layer_2-2" data-name="Layer 2">
    <g>
      <g>
        <g>
          <rect x="13.18" y="27.86" width="1.14" height="4.5"/>
          <rect x="12.75" y="28.71" width="2" height="1.14"/>
          <rect class="cls-7" x="11.99" y="31.4" width="3.62" height="2.43"/>
          <rect class="cls-2" x="11.99" y="32.61" width="3.62" height="1.22"/>
          <path class="cls-7" d="M16.39,64.13c-1.03-6.56-1.55-30.27-1.55-30.27h-2.19s-.52,23.7-1.55,30.27"/>
          <polygon class="cls-2" points="13.71 33.93 14.9 33.93 15.92 58.8 14.82 59.03 13.71 33.93"/>
          <path d="M15.61,34.06h-3.62c-.13,0-.24-.11-.24-.24v-2.43c0-.13,.11-.24,.24-.24h3.62c.13,0,.24,.11,.24,.24v2.43c0,.13-.11,.24-.24,.24Zm-3.38-.48h3.14v-1.95h-3.14v1.95Z"/>
          <g>
            <path d="M14.77,36.84h-1.84c-.08,0-.14-.06-.14-.14s.06-.14,.14-.14h1.84c.08,0,.14,.06,.14,.14s-.06,.14-.14,.14Z"/>
            <path d="M14.9,38.56h-2.12c-.08,0-.14-.06-.14-.14s.06-.14,.14-.14h2.12c.08,0,.14,.06,.14,.14s-.06,.14-.14,.14Z"/>
            <path d="M14.9,40.28h-2.19c-.08,0-.14-.06-.14-.14s.06-.14,.14-.14h2.19c.08,0,.14,.06,.14,.14s-.06,.14-.14,.14Z"/>
            <path d="M15.12,45.44h-2.68c-.08,0-.14-.06-.14-.14s.06-.14,.14-.14h2.68c.08,0,.14,.06,.14,.14s-.06,.14-.14,.14Z"/>
            <path d="M15.12,43.72h-1.94c-.08,0-.14-.06-.14-.14s.06-.14,.14-.14h1.94c.08,0,.14,.06,.14,.14s-.06,.14-.14,.14Z"/>
            <path d="M15.12,42h-2.53c-.08,0-.14-.06-.14-.14s.06-.14,.14-.14h2.53c.08,0,.14,.06,.14,.14s-.06,.14-.14,.14Z"/>
          </g>
          <g>
            <path d="M15.61,56.02h-3.65c-.08,0-.14-.06-.14-.14s.06-.14,.14-.14h3.65c.08,0,.14,.06,.14,.14s-.06,.14-.14,.14Z"/>
            <path d="M15.61,54.3h-3.54c-.08,0-.14-.06-.14-.14s.06-.14,.14-.14h3.54c.08,0,.14,.06,.14,.14s-.06,.14-.14,.14Z"/>
            <path d="M15.43,52.58h-3.37c-.08,0-.14-.06-.14-.14s.06-.14,.14-.14h3.37c.08,0,.14,.06,.14,.14s-.06,.14-.14,.14Z"/>
            <path d="M15.12,47.42h-2.68c-.08,0-.14-.06-.14-.14s.06-.14,.14-.14h2.68c.08,0,.14,.06,.14,.14s-.06,.14-.14,.14Z"/>
            <path d="M15.12,49.14h-2.12c-.08,0-.14-.06-.14-.14s.06-.14,.14-.14h2.12c.08,0,.14,.06,.14,.14s-.06,.14-.14,.14Z"/>
            <path d="M15.12,50.86h-2.12c-.08,0-.14-.06-.14-.14s.06-.14,.14-.14h2.12c.08,0,.14,.06,.14,.14s-.06,.14-.14,.14Z"/>
          </g>
          <path d="M11.16,64.33h-.04c-.13-.02-.22-.14-.2-.27,.21-1.31,.41-3.4,.59-6.23,0-.13,.12-.22,.25-.22s.23,.12,.22,.25c-.19,2.84-.39,4.95-.6,6.27-.02,.12-.12,.2-.24,.2h.02Z"/>
          <path d="M11.83,56.91h0c-.13,0-.23-.12-.22-.25,.15-2.33,.25-4.58,.35-6.66,0-.13,.11-.23,.24-.23h0c.13,0,.23,.12,.23,.25-.09,2.08-.2,4.33-.35,6.66,0,.13-.11,.22-.24,.22h0Z"/>
          <path d="M12.22,49.24h0c-.13,0-.23-.12-.23-.25,.07-1.56,.11-2.77,.17-4.26,0-.13,.11-.22,.25-.23,.13,0,.23,.11,.23,.25-.05,1.49-.1,2.7-.17,4.26,0,.13-.11,.23-.24,.23h0Z"/>
          <path d="M12.42,44.03h0c-.13,0-.23-.11-.23-.25,.19-5.48,.29-9.92,.29-9.96,0-.13,.11-.23,.24-.23h0c.13,0,.24,.11,.23,.24,0,.04-.1,4.48-.29,9.97,0,.13-.11,.23-.24,.23h0Z"/>
          <path d="M16.45,64.33c-.12,0-.22-.08-.24-.2-1.02-6.5-1.55-30.06-1.55-30.3,0-.13,.1-.24,.23-.24h0c.13,0,.24,.1,.24,.23,0,.24,.53,23.76,1.55,30.23,.02,.13-.07,.25-.2,.27h-.03Z"/>
          <rect class="cls-7" x="10.61" y="59.03" width="6.4" height="6.61"/>
          <rect class="cls-2" x="14.82" y="59.03" width="1.98" height="6.61"/>
          <path d="M17,65.88h-6.4c-.13,0-.24-.11-.24-.24v-6.61c0-.13,.11-.24,.24-.24h6.4c.13,0,.24,.11,.24,.24v6.61c0,.13-.11,.24-.24,.24Zm-6.16-.48h5.92v-6.14h-5.92v6.14Z"/>
          <g>
            <path class="cls-6" d="M11.2,60.25v3.89c0,.38,.33,.74,.73,.73s.73-.32,.73-.73v-3.89c0-.38-.33-.74-.73-.73s-.73,.32-.73,.73h0Z"/>
            <path class="cls-4" d="M11.2,61.61v.84c0,.1,.02,.19,.06,.28,.03,.09,.08,.17,.15,.23,.07,.07,.14,.12,.23,.15,.09,.05,.18,.07,.28,.06,.19,0,.38-.07,.51-.21s.21-.32,.21-.51v-.84c0-.1-.02-.19-.06-.28-.03-.09-.08-.17-.15-.23-.07-.07-.14-.12-.23-.15-.09-.05-.18-.07-.28-.06-.19,0-.38,.07-.51,.21s-.21,.32-.21,.51h0Z"/>
          </g>
          <path d="M17.85,60.39H9.71c-.08,0-.14-.06-.14-.14s.06-.14,.14-.14h8.14c.08,0,.14,.06,.14,.14s-.06,.14-.14,.14Z"/>
          <path d="M17.85,64.49H9.71c-.08,0-.14-.06-.14-.14s.06-.14,.14-.14h8.14c.08,0,.14,.06,.14,.14s-.06,.14-.14,.14Z"/>
          <path d="M17.85,63.39H9.71c-.08,0-.14-.06-.14-.14s.06-.14,.14-.14h8.14c.08,0,.14,.06,.14,.14s-.06,.14-.14,.14Z"/>
        </g>
        <g>
          <rect x="7.31" y="27.86" width="1.14" height="4.5"/>
          <rect x="6.88" y="28.71" width="2" height="1.14"/>
          <rect class="cls-7" x="6.12" y="31.4" width="3.62" height="2.43"/>
          <rect class="cls-2" x="6.12" y="32.61" width="3.62" height="1.22"/>
          <path class="cls-7" d="M10.52,64.13c-1.03-6.56-1.55-30.27-1.55-30.27h-2.19s-.52,23.7-1.55,30.27"/>
          <polygon class="cls-2" points="7.84 33.93 9.03 33.93 10.05 58.8 8.94 59.03 7.84 33.93"/>
          <path d="M9.74,34.06h-3.62c-.13,0-.24-.11-.24-.24v-2.43c0-.13,.11-.24,.24-.24h3.62c.13,0,.24,.11,.24,.24v2.43c0,.13-.11,.24-.24,.24Zm-3.38-.48h3.14v-1.95h-3.14v1.95Z"/>
          <g>
            <path d="M8.9,36.84h-1.84c-.08,0-.14-.06-.14-.14s.06-.14,.14-.14h1.84c.08,0,.14,.06,.14,.14s-.06,.14-.14,.14Z"/>
            <path d="M9.03,38.56h-2.12c-.08,0-.14-.06-.14-.14s.06-.14,.14-.14h2.12c.08,0,.14,.06,.14,.14s-.06,.14-.14,.14Z"/>
            <path d="M9.03,40.28h-2.19c-.08,0-.14-.06-.14-.14s.06-.14,.14-.14h2.19c.08,0,.14,.06,.14,.14s-.06,.14-.14,.14Z"/>
            <path d="M9.25,45.44h-2.68c-.08,0-.14-.06-.14-.14s.06-.14,.14-.14h2.68c.08,0,.14,.06,.14,.14s-.06,.14-.14,.14Z"/>
            <path d="M9.25,43.72h-1.94c-.08,0-.14-.06-.14-.14s.06-.14,.14-.14h1.94c.08,0,.14,.06,.14,.14s-.06,.14-.14,.14Z"/>
            <path d="M9.25,42h-2.53c-.08,0-.14-.06-.14-.14s.06-.14,.14-.14h2.53c.08,0,.14,.06,.14,.14s-.06,.14-.14,.14Z"/>
          </g>
          <g>
            <path d="M9.73,56.02h-3.65c-.08,0-.14-.06-.14-.14s.06-.14,.14-.14h3.65c.08,0,.14,.06,.14,.14s-.06,.14-.14,.14Z"/>
            <path d="M9.73,54.3h-3.54c-.08,0-.14-.06-.14-.14s.06-.14,.14-.14h3.54c.08,0,.14,.06,.14,.14s-.06,.14-.14,.14Z"/>
            <path d="M9.56,52.58h-3.37c-.08,0-.14-.06-.14-.14s.06-.14,.14-.14h3.37c.08,0,.14,.06,.14,.14s-.06,.14-.14,.14Z"/>
            <path d="M9.25,47.42h-2.68c-.08,0-.14-.06-.14-.14s.06-.14,.14-.14h2.68c.08,0,.14,.06,.14,.14s-.06,.14-.14,.14Z"/>
            <path d="M9.25,49.14h-2.12c-.08,0-.14-.06-.14-.14s.06-.14,.14-.14h2.12c.08,0,.14,.06,.14,.14s-.06,.14-.14,.14Z"/>
            <path d="M9.25,50.86h-2.12c-.08,0-.14-.06-.14-.14s.06-.14,.14-.14h2.12c.08,0,.14,.06,.14,.14s-.06,.14-.14,.14Z"/>
          </g>
          <path d="M5.28,64.33h-.04c-.13-.02-.22-.14-.2-.27,.21-1.31,.41-3.4,.59-6.23,0-.13,.11-.22,.25-.22,.13,0,.23,.12,.22,.25-.19,2.84-.39,4.95-.6,6.27-.02,.12-.12,.2-.24,.2h.02Z"/>
          <path d="M5.95,56.91h0c-.13,0-.23-.12-.22-.25,.15-2.33,.25-4.58,.35-6.66,0-.13,.11-.23,.24-.23h0c.13,0,.23,.12,.23,.25-.09,2.08-.2,4.33-.35,6.66,0,.13-.11,.22-.24,.22h0Z"/>
          <path d="M6.34,49.24h0c-.13,0-.23-.12-.23-.25,.07-1.56,.11-2.77,.17-4.26,0-.13,.13-.22,.25-.23,.13,0,.23,.11,.23,.25-.05,1.49-.1,2.7-.17,4.26,0,.13-.11,.23-.24,.23h0Z"/>
          <path d="M6.54,44.03h0c-.13,0-.23-.11-.23-.25,.19-5.48,.29-9.92,.29-9.96,0-.13,.11-.23,.24-.23h0c.13,0,.24,.11,.23,.24,0,.04-.1,4.48-.29,9.97,0,.13-.11,.23-.24,.23h0Z"/>
          <path d="M10.58,64.33c-.12,0-.22-.08-.24-.2-1.02-6.5-1.55-30.06-1.55-30.3,0-.13,.1-.24,.23-.24h0c.13,0,.24,.1,.24,.23,0,.24,.53,23.76,1.55,30.23,.02,.13-.07,.25-.2,.27h-.03Z"/>
          <rect class="cls-7" x="4.73" y="59.03" width="6.4" height="6.61"/>
          <rect class="cls-2" x="8.94" y="59.03" width="1.98" height="6.61"/>
          <path d="M11.13,65.88H4.73c-.13,0-.24-.11-.24-.24v-6.61c0-.13,.11-.24,.24-.24h6.4c.13,0,.24,.11,.24,.24v6.61c0,.13-.11,.24-.24,.24Zm-6.16-.48h5.92v-6.14H4.97v6.14Z"/>
          <g>
            <path class="cls-6" d="M5.33,60.25v3.89c0,.38,.33,.74,.73,.73s.73-.32,.73-.73v-3.89c0-.38-.33-.74-.73-.73s-.73,.32-.73,.73h0Z"/>
            <path class="cls-4" d="M5.33,61.61v.84c0,.1,.02,.19,.06,.28,.03,.09,.08,.17,.15,.23,.07,.07,.14,.12,.23,.15,.09,.05,.18,.07,.28,.06,.19,0,.38-.07,.51-.21s.21-.32,.21-.51v-.84c0-.1-.02-.19-.06-.28-.03-.09-.08-.17-.15-.23-.07-.07-.14-.12-.23-.15-.09-.05-.18-.07-.28-.06-.19,0-.38,.07-.51,.21s-.21,.32-.21,.51h0Z"/>
          </g>
          <path d="M11.98,60.39H3.84c-.08,0-.14-.06-.14-.14s.06-.14,.14-.14H11.98c.08,0,.14,.06,.14,.14s-.06,.14-.14,.14Z"/>
          <path d="M11.98,64.49H3.84c-.08,0-.14-.06-.14-.14s.06-.14,.14-.14H11.98c.08,0,.14,.06,.14,.14s-.06,.14-.14,.14Z"/>
          <path d="M11.98,63.39H3.84c-.08,0-.14-.06-.14-.14s.06-.14,.14-.14H11.98c.08,0,.14,.06,.14,.14s-.06,.14-.14,.14Z"/>
        </g>
      </g>
      <g>
        <path d="M32.66,52.38c-.14,0-.25-.11-.25-.25l-.03-21.51c0-.13,.11-.25,.25-.25h0c.14,0,.25,.11,.25,.25l.03,21.51c0,.13-.11,.25-.25,.25h0Z"/>
        <path d="M32.67,55.77c-.14,0-.25-.11-.25-.25v-2.24c0-.13,.11-.25,.24-.25h0c.14,0,.25,.11,.25,.25v2.24c0,.13-.11,.25-.24,.25h0Z"/>
        <ellipse class="cls-1" cx="32.65" cy="41.43" rx="4.87" ry="9.51" transform="translate(-.06 .05) rotate(-.08)"/>
        <path class="cls-15" d="M37.52,41.42c0,5.25-2.17,9.52-4.86,9.52l-.03-19.03c2.69,0,4.88,4.25,4.89,9.5h0Z"/>
        <path d="M28.64,46.96c-.1,0-.2-.06-.23-.16-.57-1.62-.88-3.51-.88-5.48,0-.67,.03-1.34,.1-2,0-.13,.14-.23,.27-.22s.23,.13,.22,.27c-.07,.64-.1,1.29-.1,1.95,0,1.91,.3,3.75,.85,5.32,.04,.13-.02,.27-.15,.31-.03,0-.05,0-.08,0h0Z"/>
        <path d="M32.66,51.07c-1.41,0-2.72-1.05-3.69-2.96-.06-.12,0-.27,.11-.33s.27,0,.33,.11c.88,1.74,2.03,2.69,3.25,2.69h0c1.21,0,2.35-.95,3.22-2.66,.9-1.76,1.4-4.11,1.39-6.62,0-2.5-.5-4.85-1.41-6.61-.88-1.71-2.02-2.65-3.23-2.65h0c-1.77,0-3.41,2.09-4.17,5.31-.03,.13-.16,.21-.29,.18-.13-.03-.21-.16-.18-.29,.83-3.51,2.61-5.69,4.65-5.69h0c1.4,0,2.7,1.03,3.66,2.91,.94,1.83,1.46,4.26,1.46,6.84s-.51,5.01-1.44,6.84c-.96,1.88-2.26,2.92-3.66,2.92h0Z"/>
        <g>
          <path class="cls-13" d="M26.88,43.19c-.11,0-.21-.08-.24-.19-.03-.13,.06-.26,.19-.29l1.92-.4c.13-.02,.26,.06,.29,.19s-.06,.26-.19,.29l-1.92,.4h-.05Z"/>
          <path class="cls-13" d="M27,44.3c-.11,0-.21-.08-.24-.19-.03-.13,.05-.26,.18-.29l2.27-.51c.13-.03,.26,.05,.29,.18s-.05,.26-.18,.29l-2.27,.51h-.05Z"/>
        </g>
        <g>
          <circle class="cls-15" cx="32.68" cy="47.58" r=".81"/>
          <circle class="cls-15" cx="31.89" cy="46.28" r=".15"/>
          <circle class="cls-15" cx="31.2" cy="47.08" r=".25"/>
          <circle class="cls-15" cx="31.16" cy="48.27" r=".56"/>
        </g>
        <g>
          <circle class="cls-1" cx="33.11" cy="34.38" r=".63"/>
          <circle class="cls-1" cx="34.83" cy="34.17" r=".11"/>
          <circle class="cls-1" cx="34.29" cy="34.8" r=".19"/>
          <circle class="cls-1" cx="34.25" cy="35.73" r=".44"/>
        </g>
        <circle class="cls-13" cx="28.02" cy="38.32" r=".29"/>
        <g>
          <path class="cls-4" d="M29.1,38.34s-.06,0-.1,0c-.25-.05-.4-.3-.35-.54,.14-.62,.31-1.22,.51-1.79,.09-.24,.35-.36,.59-.28,.24,.09,.36,.35,.28,.59-.19,.53-.35,1.09-.48,1.67-.05,.21-.24,.36-.45,.36h0Z"/>
          <ellipse class="cls-4" cx="30.22" cy="35.05" rx=".53" ry=".35" transform="translate(-15.23 43.76) rotate(-60.08)"/>
        </g>
      </g>
      <g>
        <path d="M57.51,62.8c-.14,0-.25-.11-.25-.25l-.03-21.51c0-.13,.11-.25,.25-.25h0c.14,0,.25,.11,.25,.25l.03,21.51c0,.13-.11,.25-.25,.25h0Z"/>
        <path d="M57.52,66.19c-.14,0-.25-.11-.25-.25v-2.25c0-.13,.11-.25,.24-.25h0c.14,0,.25,.11,.25,.25v2.25c0,.13-.11,.25-.24,.25h0Z"/>
        <ellipse class="cls-1" cx="57.5" cy="51.84" rx="4.87" ry="9.51" transform="translate(-.07 .08) rotate(-.08)"/>
        <path class="cls-15" d="M62.37,51.84c0,5.25-2.17,9.52-4.86,9.52l-.03-19.03c2.69,0,4.88,4.25,4.89,9.5h0Z"/>
        <path d="M53.49,57.38c-.1,0-.2-.06-.23-.16-.57-1.62-.88-3.51-.88-5.48,0-.67,.03-1.34,.1-2,0-.13,.14-.23,.27-.22s.23,.14,.22,.27c-.07,.64-.1,1.29-.1,1.94,0,1.91,.3,3.75,.85,5.32,.04,.13-.02,.27-.15,.31-.03,0-.05,0-.08,0h0Z"/>
        <path d="M57.5,61.49c-1.41,0-2.72-1.05-3.69-2.96-.06-.12,0-.27,.11-.33s.27,0,.33,.11c.88,1.74,2.03,2.69,3.25,2.69h0c1.21,0,2.35-.95,3.22-2.66,.9-1.76,1.4-4.11,1.39-6.62,0-2.5-.5-4.85-1.41-6.61-.88-1.71-2.02-2.65-3.23-2.65h0c-1.77,0-3.41,2.09-4.17,5.31-.03,.13-.16,.21-.29,.18-.13-.03-.21-.16-.18-.29,.83-3.51,2.61-5.69,4.65-5.69h0c1.4,0,2.7,1.03,3.66,2.91,.94,1.83,1.46,4.26,1.46,6.84s-.51,5.01-1.44,6.84c-.96,1.88-2.26,2.92-3.66,2.92h0Z"/>
        <g>
          <path class="cls-13" d="M51.73,53.61c-.11,0-.21-.08-.24-.19-.03-.13,.06-.26,.19-.29l1.92-.4c.13-.02,.26,.06,.29,.19s-.06,.26-.19,.29l-1.92,.4h-.05Z"/>
          <path class="cls-13" d="M51.85,54.72c-.11,0-.21-.08-.24-.19-.03-.13,.05-.26,.18-.29l2.27-.51c.13-.03,.26,.05,.29,.18,.03,.13-.05,.26-.18,.29l-2.27,.51h-.05Z"/>
        </g>
        <g>
          <circle class="cls-15" cx="57.52" cy="58" r=".81"/>
          <circle class="cls-15" cx="56.74" cy="56.69" r=".15"/>
          <circle class="cls-15" cx="56.05" cy="57.5" r=".25"/>
          <circle class="cls-15" cx="56.01" cy="58.69" r=".56"/>
        </g>
        <g>
          <circle class="cls-1" cx="57.96" cy="44.8" r=".63"/>
          <circle class="cls-1" cx="59.67" cy="44.59" r=".11"/>
          <circle class="cls-1" cx="59.14" cy="45.22" r=".19"/>
          <circle class="cls-1" cx="59.1" cy="46.15" r=".44"/>
        </g>
        <circle class="cls-13" cx="52.87" cy="48.74" r=".29"/>
        <g>
          <path class="cls-4" d="M53.95,48.76s-.06,0-.1,0c-.25-.05-.4-.3-.35-.54,.14-.62,.31-1.22,.51-1.79,.09-.24,.34-.36,.59-.28,.24,.09,.36,.35,.28,.59-.19,.53-.35,1.09-.48,1.67-.05,.21-.24,.36-.45,.36h0Z"/>
          <ellipse class="cls-4" cx="55.08" cy="45.47" rx=".53" ry=".35" transform="translate(-11.8 70.53) rotate(-60.08)"/>
        </g>
      </g>
      <rect class="cls-7" x="21.39" y="48.68" width="19.54" height="17.33"/>
      <path class="cls-12" d="M36.25,66.04h-2.44v-11.23c0-1.35,1.1-2.44,2.44-2.44h0v13.67h0Z"/>
      <path class="cls-4" d="M21.39,48.9h2.44v11.23c0,1.35-1.1,2.44-2.44,2.44h0v-13.67h0Z"/>
      <g>
        <g>
          <rect class="cls-10" x="23.16" y="50.45" width="4.98" height="4.98"/>
          <rect class="cls-10" x="29.57" y="50.45" width="4.98" height="4.98"/>
        </g>
        <g>
          <rect class="cls-10" x="23.16" y="56.8" width="4.98" height="4.98"/>
          <rect class="cls-10" x="29.57" y="56.8" width="4.98" height="4.98"/>
        </g>
      </g>
      <path d="M40.93,66.36H21.39c-.19,0-.35-.16-.35-.35v-17.33c0-.19,.16-.35,.35-.35h19.54c.19,0,.35,.16,.35,.35v17.33c0,.19-.16,.35-.35,.35h0Zm-19.2-.69h18.85v-16.64H21.73v16.64Z"/>
      <g>
        <path class="cls-10" d="M46.22,.65h0c5.45,0,9.88,9.71,9.88,33.59v31.73h-9.88"/>
        <path class="cls-10" d="M46.22,.65h0c-5.45,0-9.88,9.71-9.88,33.59v31.73h9.88"/>
      </g>
      <path class="cls-16" d="M56,33.95v31.73h-4.3v-31.73c0-15.15-1.78-24.61-4.48-29.49-.7-1.26-1.09-2.66-1.09-4.1h0c5.45,0,9.87,9.71,9.87,33.59Z"/>
      <g>
        <g>
          <g>
            <rect class="cls-2" x="44.76" y="52.97" width="2.32" height="2.32"/>
            <rect class="cls-3" x="45.9" y="54.11" width="2.32" height="2.32"/>
          </g>
          <g>
            <rect class="cls-2" x="44.76" y="55.86" width="2.32" height="2.32"/>
            <rect class="cls-3" x="45.9" y="57" width="2.32" height="2.32"/>
          </g>
        </g>
        <g>
          <g>
            <rect class="cls-2" x="44.76" y="46.62" width="2.32" height="2.32"/>
            <rect class="cls-3" x="45.9" y="47.76" width="2.32" height="2.32"/>
          </g>
          <g>
            <rect class="cls-2" x="44.76" y="49.51" width="2.32" height="2.32"/>
            <rect class="cls-3" x="45.9" y="50.65" width="2.32" height="2.32"/>
          </g>
        </g>
        <g>
          <g>
            <rect class="cls-2" x="48.22" y="46.62" width="2.32" height="2.32"/>
            <rect class="cls-3" x="49.36" y="47.76" width="2.32" height="2.32"/>
          </g>
          <g>
            <rect class="cls-2" x="48.22" y="49.51" width="2.32" height="2.32"/>
            <rect class="cls-3" x="49.36" y="50.65" width="2.32" height="2.32"/>
          </g>
        </g>
        <g>
          <g>
            <rect class="cls-2" x="48.22" y="52.97" width="2.32" height="2.32"/>
            <rect class="cls-3" x="49.36" y="54.11" width="2.32" height="2.32"/>
          </g>
          <g>
            <rect class="cls-2" x="48.22" y="55.86" width="2.32" height="2.32"/>
            <rect class="cls-3" x="49.36" y="57" width="2.32" height="2.32"/>
          </g>
        </g>
        <g>
          <g>
            <rect class="cls-2" x="48.22" y="59.32" width="2.32" height="2.32"/>
            <rect class="cls-3" x="49.36" y="60.46" width="2.32" height="2.32"/>
          </g>
          <g>
            <rect class="cls-2" x="48.22" y="62.21" width="2.32" height="2.32"/>
            <rect class="cls-3" x="49.36" y="63.35" width="2.32" height="2.32"/>
          </g>
        </g>
        <g>
          <g>
            <rect class="cls-2" x="44.76" y="59.32" width="2.32" height="2.32"/>
            <rect class="cls-3" x="45.9" y="60.46" width="2.32" height="2.32"/>
          </g>
          <g>
            <rect class="cls-2" x="44.76" y="62.21" width="2.32" height="2.32"/>
            <rect class="cls-3" x="45.9" y="63.35" width="2.32" height="2.32"/>
          </g>
        </g>
      </g>
      <g>
        <g>
          <g>
            <rect class="cls-2" x="52.25" y="52.97" width="2.32" height="2.32"/>
            <rect class="cls-3" x="53.39" y="54.11" width="2.32" height="2.32"/>
          </g>
          <g>
            <rect class="cls-2" x="52.25" y="55.86" width="2.32" height="2.32"/>
            <rect class="cls-3" x="53.39" y="57" width="2.32" height="2.32"/>
          </g>
        </g>
        <g>
          <g>
            <rect class="cls-2" x="52.25" y="46.62" width="2.32" height="2.32"/>
            <rect class="cls-3" x="53.39" y="47.76" width="2.32" height="2.32"/>
          </g>
          <g>
            <rect class="cls-2" x="52.25" y="49.51" width="2.32" height="2.32"/>
            <rect class="cls-3" x="53.39" y="50.65" width="2.32" height="2.32"/>
          </g>
        </g>
        <g>
          <g>
            <rect class="cls-2" x="52.25" y="59.32" width="2.32" height="2.32"/>
            <rect class="cls-3" x="53.39" y="60.46" width="2.32" height="2.32"/>
          </g>
          <g>
            <rect class="cls-2" x="52.25" y="62.21" width="2.32" height="2.32"/>
            <rect class="cls-3" x="53.39" y="63.35" width="2.32" height="2.32"/>
          </g>
        </g>
      </g>
      <g>
        <g>
          <g>
            <rect class="cls-2" x="36.59" y="52.97" width="2.32" height="2.32"/>
            <rect class="cls-3" x="37.73" y="54.11" width="2.32" height="2.32"/>
          </g>
          <g>
            <rect class="cls-2" x="36.59" y="55.86" width="2.32" height="2.32"/>
            <rect class="cls-3" x="37.73" y="57" width="2.32" height="2.32"/>
          </g>
        </g>
        <g>
          <g>
            <rect class="cls-2" x="36.59" y="46.62" width="2.32" height="2.32"/>
            <rect class="cls-3" x="37.73" y="47.76" width="2.32" height="2.32"/>
          </g>
          <g>
            <rect class="cls-2" x="36.59" y="49.51" width="2.32" height="2.32"/>
            <rect class="cls-3" x="37.73" y="50.65" width="2.32" height="2.32"/>
          </g>
        </g>
        <g>
          <g>
            <rect class="cls-2" x="40.05" y="46.62" width="2.32" height="2.32"/>
            <rect class="cls-3" x="41.19" y="47.76" width="2.32" height="2.32"/>
          </g>
          <g>
            <rect class="cls-2" x="40.05" y="49.51" width="2.32" height="2.32"/>
            <rect class="cls-3" x="41.19" y="50.65" width="2.32" height="2.32"/>
          </g>
        </g>
        <g>
          <g>
            <rect class="cls-2" x="40.05" y="52.97" width="2.32" height="2.32"/>
            <rect class="cls-3" x="41.19" y="54.11" width="2.32" height="2.32"/>
          </g>
          <g>
            <rect class="cls-2" x="40.05" y="55.86" width="2.32" height="2.32"/>
            <rect class="cls-3" x="41.19" y="57" width="2.32" height="2.32"/>
          </g>
        </g>
        <g>
          <g>
            <rect class="cls-2" x="40.05" y="59.32" width="2.32" height="2.32"/>
            <rect class="cls-3" x="41.19" y="60.46" width="2.32" height="2.32"/>
          </g>
          <g>
            <rect class="cls-2" x="40.05" y="62.21" width="2.32" height="2.32"/>
            <rect class="cls-3" x="41.19" y="63.35" width="2.32" height="2.32"/>
          </g>
        </g>
        <g>
          <g>
            <rect class="cls-2" x="36.59" y="59.32" width="2.32" height="2.32"/>
            <rect class="cls-3" x="37.73" y="60.46" width="2.32" height="2.32"/>
          </g>
          <g>
            <rect class="cls-2" x="36.59" y="62.21" width="2.32" height="2.32"/>
            <rect class="cls-3" x="37.73" y="63.35" width="2.32" height="2.32"/>
          </g>
        </g>
      </g>
      <polygon class="cls-4" points="45.44 .5 43.58 1.17 43.58 65.38 45.44 65.38 45.44 .5"/>
      <polygon class="cls-5" points="42.12 2.43 41.19 3.23 41.19 65.38 42.12 65.38 42.12 2.43"/>
      <g class="cls-17">
        <path class="cls-10" d="M43.1,21.79c0,2.65-2.08,4.84-4.72,4.98h-10.09c-.24,0-.48-.01-.72-.03-4.21-.4-7.3-4.14-6.9-8.35,.4-4.21,4.14-7.3,8.35-6.9,3.28,.31,5.99,2.69,6.74,5.9,2.43-1.31,5.46-.4,6.76,2.03,.39,.73,.6,1.54,.6,2.36h-.02Z"/>
        <path class="cls-10" d="M28.29,26.79h-.73v-.03c.24,.02,.48,.03,.73,.03Z"/>
      </g>
      <g>
        <path class="cls-9" d="M37.19,34.27v6.71c0,.78,.69,1.54,1.5,1.5s1.5-.66,1.5-1.5v-6.71c0-.78-.69-1.54-1.5-1.5s-1.5,.66-1.5,1.5h0Z"/>
        <path class="cls-8" d="M37.19,37.51v1.73c0,.21,.04,.4,.13,.58,.06,.19,.16,.35,.31,.48,.14,.15,.3,.25,.48,.31,.18,.09,.37,.14,.58,.13,.39-.02,.79-.14,1.06-.44s.44-.65,.44-1.06v-1.73c0-.21-.04-.4-.13-.58-.06-.19-.16-.35-.31-.48-.14-.15-.3-.25-.48-.31-.18-.09-.37-.14-.58-.13-.39,.02-.79,.14-1.06,.44s-.44,.65-.44,1.06h0Z"/>
      </g>
      <g>
        <path class="cls-13" d="M33.89,26.51c-.13,0-.24-.11-.24-.24s.11-.24,.24-.24l4.7-.03h0c.13,0,.24,.11,.24,.24s-.11,.24-.24,.24l-4.7,.03h0Z"/>
        <path class="cls-13" d="M34.82,27.48c-.13,0-.24-.11-.24-.24s.11-.24,.24-.24l4.7-.03h0c.13,0,.24,.11,.24,.24s-.11,.24-.24,.24l-4.7,.03h0Z"/>
      </g>
      <g class="cls-17">
        <path class="cls-10" d="M70.34,17.82c0,2.65-2.08,4.84-4.72,4.98h-10.09c-.24,0-.48-.01-.72-.03-4.21-.4-7.3-4.14-6.9-8.35,.4-4.21,4.14-7.3,8.35-6.9,3.28,.31,5.99,2.69,6.74,5.9,2.43-1.31,5.46-.4,6.76,2.03,.39,.73,.6,1.54,.6,2.36h-.02Z"/>
        <path class="cls-10" d="M55.52,22.81h-.73v-.03c.24,.02,.48,.03,.73,.03Z"/>
      </g>
      <g>
        <path d="M55.28,20.83h-10.25c-.19,0-.35-.16-.35-.35s.16-.35,.35-.35h10.25c.19,0,.35,.16,.35,.35s-.16,.35-.35,.35Z"/>
        <path d="M55.45,22.96h-13.6c-.19,0-.35-.16-.35-.35s.16-.35,.35-.35h13.6c.19,0,.35,.16,.35,.35s-.16,.35-.35,.35Z"/>
      </g>
      <g>
        <path d="M52.7,8.13h-6.86c-.19,0-.35-.16-.35-.35s.16-.35,.35-.35h6.86c.19,0,.35,.16,.35,.35s-.16,.35-.35,.35Z"/>
        <path d="M53.43,10.26h-12.24c-.19,0-.35-.16-.35-.35s.16-.35,.35-.35h12.24c.19,0,.35,.16,.35,.35s-.16,.35-.35,.35Z"/>
      </g>
      <g>
        <path d="M25.1,34.6h-.09c-.83-.05-1.47-.77-1.42-1.61,.05-.83,.78-1.48,1.61-1.42,.83,.05,1.47,.77,1.42,1.61h0c-.05,.8-.72,1.42-1.51,1.42h-.01Zm0-2.54c-.54,0-.99,.42-1.02,.96-.04,.57,.4,1.05,.96,1.09,.58,.05,1.05-.4,1.09-.96h0c.04-.57-.4-1.05-.96-1.09h-.07Z"/>
        <circle cx="27.3" cy="31.38" r=".48"/>
      </g>
      <circle cx="37.44" cy="6.42" r=".48"/>
      <circle cx="22.61" cy="46.59" r=".48"/>
      <g>
        <circle cx="62.17" cy="35.79" r=".48"/>
        <g>
          <path d="M60.61,37.62c-.06,0-.13-.02-.17-.07l-1.83-1.83c-.1-.1-.1-.25,0-.35s.25-.1,.35,0l1.83,1.83c.1,.1,.1,.25,0,.35-.05,.05-.11,.07-.17,.07h-.01Z"/>
          <path d="M58.78,37.62c-.06,0-.13-.02-.17-.07-.1-.1-.1-.25,0-.35l1.83-1.83c.1-.1,.25-.1,.35,0s.1,.25,0,.35l-1.83,1.83s-.11,.07-.17,.07h-.01Z"/>
        </g>
      </g>
      <g>
        <path d="M56.01,66.03h-9.88c-.19,0-.35-.16-.35-.35s.16-.35,.35-.35h9.53v-31.39C55.66,13.12,52.1,.7,46.13,.7c-.19,0-.35-.16-.35-.35s.16-.35,.35-.35c6.5,0,10.22,12.37,10.22,33.94v31.73c0,.19-.16,.35-.35,.35h.01Z"/>
        <path d="M46.13,66.03h-9.88c-.19,0-.35-.16-.35-.35v-29.34c0-.19,.16-.35,.35-.35s.35,.16,.35,.35v28.99h9.53c.19,0,.35,.16,.35,.35s-.16,.35-.35,.35h0Z"/>
        <path d="M36.25,35.24c-.19,0-.35-.16-.35-.35v-.95c0-3.86,.12-7.47,.35-10.73,0-.19,.16-.31,.37-.32,.19,.01,.33,.18,.32,.37-.23,3.25-.35,6.84-.35,10.69v.95c0,.19-.16,.35-.35,.35h.01Z"/>
        <path d="M36.7,22.26h-.03c-.19-.02-.33-.18-.32-.37,.24-2.87,.57-5.51,.99-7.84,.03-.19,.22-.31,.4-.28,.19,.03,.31,.21,.28,.4-.42,2.31-.75,4.92-.99,7.77,0,.18-.17,.32-.34,.32h.01Z"/>
        <path d="M38.01,12.83h-.07c-.19-.04-.31-.22-.27-.41C39.84,2.17,43.47,.02,46.13,.02c.19,0,.35,.16,.35,.35s-.16,.35-.35,.35c-3.4,0-6.17,4.21-7.78,11.86-.03,.16-.18,.27-.34,.27v-.02Z"/>
      </g>
      <g>
        <rect class="cls-2" x=".25" y="65.55" width="73.46" height="2.6"/>
        <path class="cls-11" d="M72.45,68.15h-16.57c-.72,0-1.3-.58-1.3-1.3h0c0-.72,.58-1.3,1.3-1.3h16.57c1.26,0,1.3,.58,1.3,1.3h0c0,.72,.07,1.3-1.3,1.3Z"/>
        <path d="M73.71,68.39H.25c-.14,0-.25-.11-.25-.25v-2.6c0-.14,.11-.25,.25-.25H73.71c.14,0,.25,.11,.25,.25v2.6c0,.14-.11,.25-.25,.25h0ZM.49,67.9H73.46v-2.11H.49v2.11Z"/>
      </g>
      <g>
        <rect class="cls-4" x="24.99" y="50.62" width="1.16" height="4.81"/>
        <rect class="cls-4" x="24.04" y="50.62" width=".38" height="4.81"/>
      </g>
      <g>
        <rect class="cls-4" x="31.05" y="50.62" width="1.16" height="4.81"/>
        <rect class="cls-4" x="30.11" y="50.62" width=".38" height="4.81"/>
      </g>
      <path class="cls-14" d="M25.26,60.75h2.43c.29,0,.52,.23,.52,.52h0c0,.29-.23,.52-.52,.52h-2.43c-.29,0-.52-.23-.52-.52h0c0-.29,.23-.52,.52-.52Z"/>
      <path class="cls-14" d="M31.73,60.75h2.43c.29,0,.52,.23,.52,.52h0c0,.29-.23,.52-.52,.52h-2.43c-.29,0-.52-.23-.52-.52h0c0-.29,.23-.52,.52-.52Z"/>
      <path class="cls-14" d="M34.62,58.91v2.43c0,.29-.23,.52-.52,.52h0c-.29,0-.52-.23-.52-.52v-2.43c0-.29,.23-.52,.52-.52h0c.29,0,.52,.23,.52,.52Z"/>
      <path class="cls-14" d="M28.05,58.91v2.43c0,.29-.23,.52-.52,.52h0c-.29,0-.52-.23-.52-.52v-2.43c0-.29,.23-.52,.52-.52h0c.29,0,.52,.23,.52,.52Z"/>
      <g>
        <g>
          <path d="M28.15,55.63h-4.98c-.11,0-.2-.09-.2-.2v-4.98c0-.11,.09-.2,.2-.2h4.98c.11,0,.2,.09,.2,.2v4.98c0,.11-.09,.2-.2,.2Zm-4.79-.39h4.59v-4.59h-4.59v4.59Z"/>
          <path d="M34.56,55.63h-4.98c-.11,0-.2-.09-.2-.2v-4.98c0-.11,.09-.2,.2-.2h4.98c.11,0,.2,.09,.2,.2v4.98c0,.11-.09,.2-.2,.2Zm-4.79-.39h4.59v-4.59h-4.59v4.59Z"/>
        </g>
        <g>
          <path d="M28.15,61.98h-4.98c-.11,0-.2-.09-.2-.2v-4.98c0-.11,.09-.2,.2-.2h2.06c.11,0,.2,.09,.2,.2s-.09,.2-.2,.2h-1.87v4.59h4.59v-4.59h-1.88c-.11,0-.2-.09-.2-.2s.09-.2,.2-.2h2.08c.11,0,.2,.09,.2,.2v4.98c0,.11-.09,.2-.2,.2Z"/>
          <path d="M34.56,61.98h-4.98c-.11,0-.2-.09-.2-.2v-4.98c0-.11,.09-.2,.2-.2h4.98c.11,0,.2,.09,.2,.2v4.98c0,.11-.09,.2-.2,.2Zm-4.79-.39h4.59v-4.59h-4.59v4.59Z"/>
        </g>
      </g>
      <g>
        <g>
          <path d="M55.71,26.35h-9.96c-.19,0-.35-.16-.35-.35s.16-.35,.35-.35h9.96c.19,0,.35,.16,.35,.35s-.16,.35-.35,.35Z"/>
          <path d="M55.71,28.48h-16.16c-.19,0-.35-.16-.35-.35s.16-.35,.35-.35h16.16c.19,0,.35,.16,.35,.35s-.16,.35-.35,.35Z"/>
        </g>
        <g>
          <path d="M55.71,33.22h-9.96c-.19,0-.35-.16-.35-.35s.16-.35,.35-.35h9.96c.19,0,.35,.16,.35,.35s-.16,.35-.35,.35Z"/>
          <path d="M55.71,35.35h-16.16c-.19,0-.35-.16-.35-.35s.16-.35,.35-.35h16.16c.19,0,.35,.16,.35,.35s-.16,.35-.35,.35Z"/>
        </g>
        <g>
          <path d="M55.71,60.71h-9.96c-.19,0-.35-.16-.35-.35s.16-.35,.35-.35h9.96c.19,0,.35,.16,.35,.35s-.16,.35-.35,.35Z"/>
          <path d="M55.71,62.84h-16.16c-.19,0-.35-.16-.35-.35s.16-.35,.35-.35h16.16c.19,0,.35,.16,.35,.35s-.16,.35-.35,.35Z"/>
        </g>
        <g>
          <path d="M55.71,53.84h-9.96c-.19,0-.35-.16-.35-.35s.16-.35,.35-.35h9.96c.19,0,.35,.16,.35,.35s-.16,.35-.35,.35Z"/>
          <path d="M55.71,55.97h-16.16c-.19,0-.35-.16-.35-.35s.16-.35,.35-.35h16.16c.19,0,.35,.16,.35,.35s-.16,.35-.35,.35Z"/>
        </g>
        <g>
          <path d="M55.71,46.96h-9.96c-.19,0-.35-.16-.35-.35s.16-.35,.35-.35h9.96c.19,0,.35,.16,.35,.35s-.16,.35-.35,.35Z"/>
          <path d="M55.71,49.1h-16.16c-.19,0-.35-.16-.35-.35s.16-.35,.35-.35h16.16c.19,0,.35,.16,.35,.35s-.16,.35-.35,.35Z"/>
        </g>
        <g>
          <path d="M55.71,40.09h-9.96c-.19,0-.35-.16-.35-.35s.16-.35,.35-.35h9.96c.19,0,.35,.16,.35,.35s-.16,.35-.35,.35Z"/>
          <path d="M55.71,42.22h-16.16c-.19,0-.35-.16-.35-.35s.16-.35,.35-.35h16.16c.19,0,.35,.16,.35,.35s-.16,.35-.35,.35Z"/>
        </g>
      </g>
      <g>
        <path d="M54.22,14.08h-10.34c-.19,0-.35-.16-.35-.35s.16-.35,.35-.35h10.34c.19,0,.35,.16,.35,.35s-.16,.35-.35,.35Z"/>
        <path d="M54.46,16.22h-14.4c-.19,0-.35-.16-.35-.35s.16-.35,.35-.35h14.4c.19,0,.35,.16,.35,.35s-.16,.35-.35,.35Z"/>
      </g>
    </g>
  </g>
</svg>