<?xml version="1.0" encoding="UTF-8"?>
<svg id="Layer_2" data-name="Layer 2" xmlns="http://www.w3.org/2000/svg" viewBox="0 0 74.12 72.1">
  <defs>
    <style>
      .cls-1 {
        fill: #000201;
      }

      .cls-2 {
        fill: #fff;
      }

      .cls-3 {
        fill: #f5ca8b;
      }

      .cls-4 {
        fill: #f2a747;
      }

      .cls-5 {
        fill: #b0dbee;
      }

      .cls-6 {
        fill: #dff5ff;
      }

      .cls-7 {
        fill: #3a94ad;
      }

      .cls-8 {
        fill: #5ebadb;
      }

      .cls-9 {
        opacity: .2;
      }

      .cls-10 {
        opacity: .23;
      }
    </style>
  </defs>
  <g id="Layer_2-2" data-name="Layer 2">
    <g>
      <g>
        <ellipse class="cls-3" cx="37.06" cy="66" rx="36.76" ry="5.79"/>
        <ellipse class="cls-4" cx="37.06" cy="65.65" rx="27.57" ry="3.4"/>
        <path d="M37.06,72.1c-24.07,0-37.06-3.14-37.06-6.1s12.99-6.1,37.06-6.1,37.06,3.14,37.06,6.1-12.99,6.1-37.06,6.1Zm0-11.58c-21.8,0-36.45,2.83-36.45,5.48s14.65,5.48,36.45,5.48,36.45-2.83,36.45-5.48-14.65-5.48-36.45-5.48Z"/>
        <path class="cls-5" d="M13.64,65.44V.54S61.41-1.15,61.41,65.44"/>
        <path class="cls-6" d="M20.86,.99V65.14h-7.3V.24s2.92-.1,7.3,.75Z"/>
        <polygon class="cls-2" points="37.31 7.84 35.5 6.99 20.42 65.38 22.47 65.38 37.31 7.84"/>
        <polygon class="cls-2" points="33.33 5.43 31.52 4.58 15.71 65.38 17.76 65.38 33.33 5.43"/>
        <g class="cls-9">
          <path class="cls-5" d="M65.65,21.63c0,2.73-2.14,4.98-4.86,5.13h-10.38c-.25,0-.5,0-.74-.03-4.33-.41-7.51-4.26-7.1-8.59,.41-4.33,4.26-7.51,8.59-7.1,3.38,.32,6.17,2.76,6.93,6.07,2.5-1.34,5.62-.41,6.96,2.09,.4,.75,.61,1.58,.61,2.43h-.01Z"/>
          <path class="cls-5" d="M50.4,26.76h-.75v-.03c.25,.02,.49,.03,.75,.03Z"/>
        </g>
        <g class="cls-10">
          <path class="cls-5" d="M26.68,39.15c0,2.73-2.14,4.98-4.86,5.13H11.44c-.25,0-.5,0-.74-.03-4.33-.41-7.51-4.26-7.1-8.59,.41-4.33,4.26-7.51,8.59-7.1,3.38,.32,6.17,2.76,6.93,6.07,2.5-1.34,5.62-.41,6.96,2.09,.4,.75,.61,1.58,.61,2.43h-.01Z"/>
          <path class="cls-5" d="M11.44,44.29h-.75v-.03c.25,.02,.49,.03,.75,.03Z"/>
        </g>
        <path class="cls-6" d="M19.93,13.75h0c2.26,0,4.1,1.84,4.1,4.1v9.65c0,2.26-1.84,4.1-4.1,4.1h0c-2.26,0-4.1-1.84-4.1-4.1v-9.65c0-2.26,1.84-4.1,4.1-4.1Z"/>
        <path class="cls-8" d="M61.33,65.38h-23.22V8.41c11.71,8.06,23.22,24.29,23.22,56.97Z"/>
        <path class="cls-7" d="M55.18,65.7c2.96-7.38,2.91-19.4,2.01-30.14,2.63,8.04,4.23,17.95,4.23,30.14h-6.24Z"/>
        <g>
          <path class="cls-1" d="M17.06,60.02c-.08,0-.15-.07-.15-.15,0-.06,.04-.12,.1-.14l2.84-.99c.08-.03,.16,.01,.19,.09,.03,.08-.01,.16-.09,.19l-2.84,.99h-.05Z"/>
          <path class="cls-1" d="M17.54,60.71c-.08,0-.15-.07-.15-.15,0-.06,.04-.12,.1-.14l1.56-.52c.08-.03,.16,0,.2,.08,.03,.08,0,.16-.08,.2h-.02l-1.56,.52h-.05Z"/>
        </g>
        <g>
          <g>
            <path class="cls-7" d="M53.01,50.49c-.08,0-.15-.07-.15-.15,0-.06,.04-.12,.1-.14l2.84-.99c.08-.03,.16,0,.19,.09s0,.16-.09,.19l-2.84,.99h-.05Z"/>
            <path class="cls-7" d="M53.49,51.18c-.08,0-.15-.07-.15-.15,0-.06,.04-.12,.1-.14l1.56-.52c.08-.03,.16,0,.2,.08,.03,.08,0,.16-.08,.2h-.02l-1.56,.52h-.05Z"/>
          </g>
          <g>
            <path class="cls-7" d="M54.06,49.13c0-.08,.07-.15,.16-.14,.06,0,.12,.05,.14,.11l.87,2.88c.02,.08-.02,.16-.1,.19-.08,.02-.16-.02-.19-.1l-.87-2.88v-.05h-.01Z"/>
            <path class="cls-7" d="M53.35,49.58c0-.08,.08-.15,.16-.14,.06,0,.12,.05,.14,.11l.46,1.58c.03,.08,0,.16-.09,.19s-.16,0-.19-.09v-.02l-.46-1.58v-.05h-.02Z"/>
          </g>
        </g>
        <g>
          <path class="cls-1" d="M23.82,6.46c-.08,0-.15-.07-.15-.15,0-.06,.04-.12,.1-.14l2.84-.99c.08-.03,.16,.01,.19,.09s-.01,.16-.09,.19l-2.84,.99h-.05Z"/>
          <path class="cls-1" d="M24.3,7.15c-.08,0-.15-.07-.15-.15,0-.06,.04-.12,.1-.14l1.56-.52c.08-.03,.16,0,.2,.08,.03,.08,0,.16-.08,.2h-.02l-1.56,.52h-.05Z"/>
        </g>
        <path d="M61.31,65.63c-.2,0-.36-.16-.36-.36,0-19.98-4.56-46.38-26.31-58.7-.18-.1-.24-.32-.14-.5,.1-.18,.32-.24,.5-.14,22.05,12.5,26.67,39.17,26.67,59.34,0,.2-.16,.36-.36,.36Z"/>
        <path d="M13.54,5.79c-.2,0-.36-.16-.36-.36V.36c0-.2,.16-.36,.35-.36,.09,0,9.08-.26,19.14,4.69,.18,.09,.25,.31,.17,.49-.09,.18-.31,.25-.49,.17C23.57,1.02,15.65,.73,13.91,.72V5.42c0,.2-.16,.36-.36,.36h-.01Z"/>
        <path d="M13.54,31.25c-.2,0-.36-.16-.36-.36V10.47c0-.2,.16-.36,.36-.36s.36,.16,.36,.36V30.88c0,.2-.16,.36-.36,.36h0Z"/>
        <path class="cls-8" d="M41.59,13.4H16.76c-.19,0-.34-.18-.34-.41s.15-.41,.34-.41h24.83c.19,0,.34,.18,.34,.41s-.15,.41-.34,.41Z"/>
        <path class="cls-8" d="M47.02,18.94H24.99c-.17,0-.3-.18-.3-.4s.13-.4,.3-.4h22.04c.17,0,.3,.18,.3,.4s-.13,.4-.3,.4h0Z"/>
        <path class="cls-8" d="M55.5,36.4H25.1c-.23,0-.41-.18-.41-.41s.18-.41,.41-.41h30.4c.23,0,.41,.18,.41,.41s-.18,.41-.41,.41Z"/>
        <path class="cls-7" d="M59.76,59.35H25.03c-.19,0-.35-.17-.35-.39s.16-.39,.35-.39H59.76c.19,0,.35,.17,.35,.39s-.16,.39-.35,.39Z"/>
        <path class="cls-8" d="M49.72,30.65H19.32c-.23,0-.41-.18-.41-.41s.18-.41,.41-.41h30.4c.23,0,.41,.18,.41,.41s-.18,.41-.41,.41Z"/>
        <path class="cls-8" d="M49.72,47.9H19.32c-.23,0-.41-.18-.41-.41s.18-.41,.41-.41h30.4c.23,0,.41,.18,.41,.41s-.18,.41-.41,.41Z"/>
        <path class="cls-8" d="M49.72,53.65H19.32c-.23,0-.41-.18-.41-.41s.18-.41,.41-.41h30.4c.23,0,.41,.18,.41,.41s-.18,.41-.41,.41Z"/>
        <path class="cls-8" d="M49.72,42.15H19.32c-.23,0-.41-.18-.41-.41s.18-.41,.41-.41h30.4c.23,0,.41,.18,.41,.41s-.18,.41-.41,.41Z"/>
        <path class="cls-8" d="M47.24,24.9H16.84c-.23,0-.41-.18-.41-.41s.18-.41,.41-.41h30.4c.23,0,.41,.18,.41,.41s-.18,.41-.41,.41Z"/>
        <circle cx="13.62" cy="7.76" r=".56"/>
        <circle cx="13.62" cy="32.63" r=".56"/>
        <g>
          <path d="M47.24,12.55H16.84c-.2,0-.36-.16-.36-.36s.16-.36,.36-.36h30.4c.2,0,.36,.16,.36,.36s-.16,.36-.36,.36Z"/>
          <path d="M55.5,18.3H25.1c-.2,0-.36-.16-.36-.36s.16-.36,.36-.36h30.4c.2,0,.36,.16,.36,.36s-.16,.36-.36,.36Z"/>
          <path d="M55.5,35.55H25.1c-.2,0-.36-.16-.36-.36s.16-.36,.36-.36h30.4c.2,0,.36,.16,.36,.36s-.16,.36-.36,.36Z"/>
          <path d="M66.24,58.55H25.1c-.2,0-.36-.16-.36-.36s.16-.36,.36-.36h41.14c.2,0,.36,.16,.36,.36s-.16,.36-.36,.36Z"/>
          <path d="M49.72,29.8H19.32c-.2,0-.36-.16-.36-.36s.16-.36,.36-.36h30.4c.2,0,.36,.16,.36,.36s-.16,.36-.36,.36Z"/>
          <path d="M49.72,47.05H19.32c-.2,0-.36-.16-.36-.36s.16-.36,.36-.36h30.4c.2,0,.36,.16,.36,.36s-.16,.36-.36,.36Z"/>
          <path d="M49.72,52.8H19.32c-.2,0-.36-.16-.36-.36s.16-.36,.36-.36h30.4c.2,0,.36,.16,.36,.36s-.16,.36-.36,.36Z"/>
          <path d="M49.72,41.3H19.32c-.2,0-.36-.16-.36-.36s.16-.36,.36-.36h30.4c.2,0,.36,.16,.36,.36s-.16,.36-.36,.36Z"/>
          <path d="M47.24,24.05H16.84c-.2,0-.36-.16-.36-.36s.16-.36,.36-.36h30.4c.2,0,.36,.16,.36,.36s-.16,.36-.36,.36Z"/>
        </g>
        <g>
          <path d="M53.15,12.55H22.75c-.2,0-.36-.16-.36-.36s.16-.36,.36-.36h30.4c.2,0,.36,.16,.36,.36s-.16,.36-.36,.36Z"/>
          <path d="M61.41,18.3H31.01c-.2,0-.36-.16-.36-.36s.16-.36,.36-.36h30.4c.2,0,.36,.16,.36,.36s-.16,.36-.36,.36Z"/>
          <path d="M61.41,35.55H31.01c-.2,0-.36-.16-.36-.36s.16-.36,.36-.36h30.4c.2,0,.36,.16,.36,.36s-.16,.36-.36,.36Z"/>
          <path d="M72.15,58.55H31.01c-.2,0-.36-.16-.36-.36s.16-.36,.36-.36h41.14c.2,0,.36,.16,.36,.36s-.16,.36-.36,.36Z"/>
          <path d="M55.63,29.8H25.23c-.2,0-.36-.16-.36-.36s.16-.36,.36-.36h30.4c.2,0,.36,.16,.36,.36s-.16,.36-.36,.36Z"/>
          <path d="M55.63,47.05H25.23c-.2,0-.36-.16-.36-.36s.16-.36,.36-.36h30.4c.2,0,.36,.16,.36,.36s-.16,.36-.36,.36Z"/>
          <path d="M55.63,52.8H25.23c-.2,0-.36-.16-.36-.36s.16-.36,.36-.36h30.4c.2,0,.36,.16,.36,.36s-.16,.36-.36,.36Z"/>
          <path d="M55.63,41.3H25.23c-.2,0-.36-.16-.36-.36s.16-.36,.36-.36h30.4c.2,0,.36,.16,.36,.36s-.16,.36-.36,.36Z"/>
          <path d="M53.15,24.05H22.75c-.2,0-.36-.16-.36-.36s.16-.36,.36-.36h30.4c.2,0,.36,.16,.36,.36s-.16,.36-.36,.36Z"/>
        </g>
        <g>
          <path d="M45.52,56.96c-.1,0-.18-.08-.18-.18V26.38c0-.1,.08-.18,.18-.18s.18,.08,.18,.18v30.4c0,.1-.08,.18-.18,.18Z"/>
          <path d="M22.52,67.7c-.1,0-.18-.08-.18-.18V26.38c0-.1,.08-.18,.18-.18s.18,.08,.18,.18v41.14c0,.1-.08,.18-.18,.18Z"/>
          <path d="M34.02,51.18c-.1,0-.18-.08-.18-.18V20.59c0-.1,.08-.18,.18-.18s.18,.08,.18,.18v30.4c0,.1-.08,.18-.18,.18h0Z"/>
          <path d="M28.27,51.18c-.1,0-.18-.08-.18-.18V20.59c0-.1,.08-.18,.18-.18s.18,.08,.18,.18v30.4c0,.1-.08,.18-.18,.18h0Z"/>
          <path d="M39.77,51.18c-.1,0-.18-.08-.18-.18V20.59c0-.1,.08-.18,.18-.18s.18,.08,.18,.18v30.4c0,.1-.08,.18-.18,.18h0Z"/>
        </g>
        <g>
          <ellipse class="cls-2" cx="15.95" cy="5.1" rx=".8" ry="2.81"/>
          <circle class="cls-2" cx="15.71" cy="10.01" r=".72"/>
        </g>
        <g>
          <ellipse class="cls-2" cx="16.6" cy="34.22" rx=".8" ry="2.81"/>
          <circle class="cls-2" cx="16.36" cy="39.12" r=".72"/>
        </g>
        <rect class="cls-2" x="13.3" y="35.59" width="1.45" height="29.76"/>
        <path d="M13.54,65.63c-.2,0-.36-.16-.36-.36v-30.52c0-.2,.16-.36,.36-.36s.36,.16,.36,.36v30.52c0,.2-.16,.36-.36,.36Z"/>
        <path d="M67.47,65.87H11.01c-.2,0-.36-.16-.36-.36s.16-.36,.36-.36h56.46c.2,0,.36,.16,.36,.36s-.16,.36-.36,.36Z"/>
        <path d="M17.8,13.77h1.62l-3.38,8.71-2.55-5.85-2.55,5.85-3.38-8.71h1.62l1.96,5.54,2.35-5.95,2.38,5.95,1.94-5.54h-.01Z"/>
      </g>
      <g>
        <path d="M9.53,60.46h-.09c-.83-.05-1.47-.77-1.42-1.61,.05-.83,.77-1.46,1.61-1.42,.83,.05,1.47,.77,1.42,1.61-.05,.8-.72,1.42-1.51,1.42h0Zm0-2.54c-.54,0-.99,.42-1.02,.96-.04,.56,.4,1.05,.96,1.09,.59,.04,1.05-.4,1.09-.96s-.4-1.05-.96-1.09h-.07Z"/>
        <circle cx="11.73" cy="57.24" r=".48"/>
      </g>
      <g>
        <circle cx="46.34" cy="9.64" r=".48"/>
        <g>
          <path d="M44.77,11.47c-.06,0-.13-.02-.17-.07l-1.83-1.83c-.1-.1-.1-.25,0-.35s.25-.1,.35,0l1.83,1.83c.1,.1,.1,.25,0,.35-.05,.05-.11,.07-.17,.07h-.01Z"/>
          <path d="M42.94,11.47c-.06,0-.13-.02-.17-.07-.1-.1-.1-.25,0-.35l1.83-1.83c.1-.1,.25-.1,.35,0s.1,.25,0,.35l-1.83,1.83s-.11,.07-.17,.07h-.01Z"/>
        </g>
      </g>
    </g>
  </g>
</svg>