<?xml version="1.0" encoding="UTF-8"?>
<svg id="Layer_2" data-name="Layer 2" xmlns="http://www.w3.org/2000/svg" viewBox="0 0 76.07 74.39">
  <defs>
    <style>
      .cls-1 {
        fill: #f9a965;
      }

      .cls-2 {
        fill: #67f2a8;
      }

      .cls-3 {
        fill: #f69472;
      }

      .cls-4 {
        fill: #fff;
      }

      .cls-5 {
        fill: #ffe1b4;
      }

      .cls-6 {
        fill: #fff7ed;
      }

      .cls-7 {
        fill: #ffca57;
      }

      .cls-8 {
        fill: #ffcaa3;
      }

      .cls-9 {
        fill: #ee771d;
      }

      .cls-10 {
        fill: #b0dbee;
      }

      .cls-11 {
        fill: #dc6540;
      }

      .cls-12 {
        fill: #e17e33;
      }

      .cls-13 {
        fill: #062539;
      }

      .cls-14 {
        fill: #36cc7b;
      }

      .cls-15 {
        opacity: .2;
      }

      .cls-16 {
        opacity: .23;
      }
    </style>
  </defs>
  <g id="Layer_2-2" data-name="Layer 2">
    <g>
      <g>
        <path d="M48.1,70.2c-.14,0-.25-.11-.25-.25l-.03-21.77c0-.14,.11-.25,.25-.25h0c.14,0,.25,.11,.25,.25l.03,21.77c0,.14-.11,.25-.25,.25h0Z"/>
        <path d="M48.12,73.64c-.14,0-.25-.11-.25-.25v-2.27c0-.14,.11-.25,.25-.25h0c.14,0,.25,.11,.25,.25v2.27c0,.14-.11,.25-.25,.25h0Z"/>
        <ellipse class="cls-2" cx="48.1" cy="59.12" rx="4.93" ry="9.63" transform="translate(-.08 .07) rotate(-.08)"/>
        <path class="cls-14" d="M53.03,59.11c0,5.32-2.2,9.63-4.92,9.64l-.03-19.26c2.72,0,4.94,4.3,4.95,9.62Z"/>
        <path d="M44.03,64.72c-.1,0-.2-.06-.23-.17-.58-1.63-.89-3.55-.89-5.55,0-.68,.03-1.36,.1-2.02,0-.14,.14-.24,.27-.22,.14,0,.24,.14,.22,.27-.07,.65-.1,1.31-.1,1.97,0,1.94,.3,3.8,.87,5.38,.05,.13-.02,.27-.15,.32-.03,0-.06,0-.08,0h0Z"/>
        <path d="M48.1,68.88c-1.43,0-2.75-1.06-3.73-3-.06-.12,0-.27,.11-.33s.27,0,.33,.11c.89,1.76,2.06,2.72,3.29,2.72h0c2.58,0,4.68-4.21,4.67-9.39,0-5.17-2.11-9.37-4.69-9.37h0c-1.79,0-3.45,2.11-4.22,5.38-.03,.13-.16,.22-.3,.18-.13-.03-.22-.17-.18-.3,.84-3.55,2.65-5.76,4.71-5.76h0c2.85,0,5.18,4.42,5.19,9.87,0,5.45-2.31,9.88-5.17,9.88h-.01Z"/>
        <g>
          <path class="cls-13" d="M42.25,60.91c-.11,0-.22-.08-.24-.2-.03-.13,.06-.26,.19-.29l1.94-.41c.13-.02,.26,.06,.29,.19s-.06,.26-.19,.29l-1.94,.41h-.05Z"/>
          <path class="cls-13" d="M42.39,62.03c-.11,0-.21-.08-.24-.19-.03-.13,.05-.26,.19-.29l2.29-.51c.14-.03,.26,.05,.29,.19,.03,.13-.05,.26-.19,.29l-2.29,.51h-.05Z"/>
        </g>
        <g>
          <circle class="cls-14" cx="48.12" cy="65.35" r=".82"/>
          <circle class="cls-14" cx="47.32" cy="64.03" r=".15"/>
          <circle class="cls-14" cx="46.64" cy="64.85" r=".25"/>
          <circle class="cls-14" cx="46.59" cy="66.05" r=".56"/>
        </g>
        <g>
          <circle class="cls-2" cx="48.55" cy="51.99" r=".64"/>
          <circle class="cls-2" cx="50.3" cy="51.77" r=".12"/>
          <circle class="cls-2" cx="49.75" cy="52.41" r=".2"/>
          <circle class="cls-2" cx="49.71" cy="53.36" r=".44"/>
        </g>
        <circle class="cls-13" cx="43.41" cy="55.97" r=".29"/>
        <g>
          <path class="cls-4" d="M44.5,56s-.07,0-.1,0c-.25-.05-.41-.3-.35-.55,.14-.64,.31-1.25,.52-1.81,.09-.24,.35-.36,.59-.28,.24,.09,.37,.35,.28,.59-.19,.53-.35,1.1-.48,1.69-.05,.22-.24,.36-.45,.36h-.01Z"/>
          <ellipse class="cls-4" cx="45.65" cy="52.67" rx=".53" ry=".36" transform="translate(-22.77 65.96) rotate(-60.08)"/>
        </g>
      </g>
      <g>
        <path d="M28.75,67.95c-.14,0-.25-.11-.25-.25l-.03-21.77c0-.14,.11-.25,.25-.25h0c.14,0,.25,.11,.25,.25l.03,21.77c0,.14-.11,.25-.25,.25h0Z"/>
        <path d="M28.75,71.38c-.14,0-.25-.11-.25-.25v-2.27c0-.14,.11-.25,.25-.25h0c.14,0,.25,.11,.25,.25v2.27c0,.14-.11,.25-.25,.25h0Z"/>
        <ellipse class="cls-2" cx="28.74" cy="56.87" rx="4.93" ry="9.63" transform="translate(-.08 .04) rotate(-.08)"/>
        <path class="cls-14" d="M33.66,56.86c0,5.32-2.2,9.63-4.92,9.64l-.03-19.26c2.72,0,4.94,4.3,4.95,9.62Z"/>
        <path d="M24.69,62.47c-.1,0-.2-.06-.23-.17-.58-1.64-.89-3.55-.89-5.55,0-.68,.03-1.36,.1-2.02,.01-.14,.13-.24,.27-.22,.14,0,.24,.14,.22,.27-.07,.64-.1,1.3-.1,1.97,0,1.94,.3,3.8,.86,5.38,.05,.13-.02,.27-.15,.32-.03,0-.06,0-.08,0h0Z"/>
        <path d="M28.74,66.63c-1.43,0-2.75-1.06-3.73-3-.06-.12-.01-.27,.11-.33s.27,0,.33,.11c.89,1.76,2.06,2.72,3.29,2.72h0c1.22,0,2.38-.96,3.26-2.69,.91-1.79,1.41-4.16,1.41-6.7s-.51-4.91-1.43-6.69c-.89-1.73-2.05-2.68-3.27-2.68h0c-1.79,0-3.45,2.11-4.22,5.38-.03,.13-.16,.22-.3,.18-.13-.03-.22-.17-.18-.3,.84-3.55,2.65-5.75,4.71-5.76h0c1.41,0,2.73,1.05,3.71,2.95,.95,1.85,1.48,4.31,1.48,6.92s-.52,5.07-1.46,6.92c-.97,1.91-2.29,2.96-3.71,2.96h0Z"/>
        <g>
          <path class="cls-13" d="M22.89,58.66c-.11,0-.22-.08-.24-.2-.03-.13,.06-.26,.19-.29l1.95-.4c.13-.02,.26,.06,.29,.19s-.06,.26-.19,.29l-1.95,.4h-.05Z"/>
          <path class="cls-13" d="M23.03,59.77c-.11,0-.21-.08-.24-.19-.03-.13,.05-.26,.19-.29l2.29-.51c.14-.03,.26,.05,.29,.19,.03,.13-.05,.26-.19,.29l-2.29,.51h-.05Z"/>
        </g>
        <g>
          <circle class="cls-14" cx="28.76" cy="63.1" r=".82"/>
          <circle class="cls-14" cx="27.97" cy="61.78" r=".15"/>
          <circle class="cls-14" cx="27.28" cy="62.6" r=".25"/>
          <circle class="cls-14" cx="27.23" cy="63.8" r=".56"/>
        </g>
        <g>
          <circle class="cls-2" cx="29.21" cy="49.74" r=".64"/>
          <circle class="cls-2" cx="30.95" cy="49.52" r=".12"/>
          <circle class="cls-2" cx="30.39" cy="50.16" r=".2"/>
          <circle class="cls-2" cx="30.37" cy="51.11" r=".44"/>
        </g>
        <circle class="cls-13" cx="24.06" cy="53.72" r=".29"/>
        <g>
          <path class="cls-4" d="M25.14,53.75s-.07,0-.1,0c-.25-.05-.41-.3-.35-.55,.14-.63,.31-1.24,.52-1.81,.09-.24,.35-.36,.59-.28,.24,.09,.37,.35,.28,.59-.19,.53-.35,1.1-.48,1.69-.05,.22-.24,.36-.45,.36h-.01Z"/>
          <ellipse class="cls-4" cx="26.29" cy="50.43" rx=".53" ry=".36" transform="translate(-30.53 48.06) rotate(-60.08)"/>
        </g>
      </g>
      <g class="cls-15">
        <path class="cls-10" d="M57.25,12.14c0,3.12-2.44,5.69-5.55,5.86h-11.86c-.29,0-.57-.01-.85-.04-4.95-.47-8.58-4.86-8.11-9.81S35.74-.43,40.69,.04c3.86,.37,7.04,3.16,7.92,6.93,2.86-1.54,6.41-.46,7.95,2.39,.46,.85,.7,1.81,.7,2.78h-.01Z"/>
        <path class="cls-10" d="M39.82,18.01h-.86v-.04c.28,.03,.56,.04,.86,.04Z"/>
      </g>
      <g class="cls-16">
        <path class="cls-10" d="M61.28,51.42c0,3.12-2.44,5.69-5.55,5.86h-11.86c-.29,0-.57,0-.85-.04-4.95-.47-8.58-4.86-8.11-9.81s4.86-8.58,9.81-8.11c3.86,.37,7.04,3.16,7.92,6.93,2.86-1.54,6.41-.46,7.95,2.39,.46,.85,.7,1.81,.7,2.78h-.01Z"/>
        <path class="cls-10" d="M43.85,57.28h-.86v-.04c.28,.03,.56,.04,.86,.04Z"/>
      </g>
      <g class="cls-16">
        <path class="cls-10" d="M27.81,20.48c0,3.12-2.44,5.69-5.55,5.86H10.4c-.29,0-.57-.01-.85-.04-4.95-.47-8.58-4.86-8.11-9.81,.47-4.95,4.86-8.58,9.81-8.11,3.86,.37,7.04,3.16,7.92,6.93,2.86-1.54,6.41-.46,7.95,2.39,.46,.85,.7,1.81,.7,2.78h0Z"/>
        <path class="cls-10" d="M10.4,26.35h-.86v-.04c.28,.03,.56,.04,.86,.04Z"/>
      </g>
      <g>
        <circle class="cls-3" cx="6.78" cy="2.5" r="1.03"/>
        <circle class="cls-3" cx="14.61" cy="2.5" r="1.03"/>
      </g>
      <g>
        <circle class="cls-3" cx="62.02" cy="2.5" r="1.03"/>
        <circle class="cls-3" cx="69.85" cy="2.5" r="1.03"/>
      </g>
      <path class="cls-3" d="M68.52,15v57.09h-19.22v-27.88c0-3.1-1.26-5.91-3.29-7.95-2.2-2.2-5.3-3.49-8.71-3.26-5.95,.39-10.47,5.58-10.47,11.54v27.55H7.62V15c0-1.09,.88-1.98,1.98-1.98h56.95c1.09,0,1.98,.88,1.98,1.98h-.01Z"/>
      <path class="cls-11" d="M17.47,22.86H51.3c0,1.2-.98,2.18-2.18,2.18H17.47v-2.18h0Z"/>
      <path class="cls-7" d="M47.5,38.12c-.43-.67-.85-1.24-1.42-1.8-2.21-2.2-5.3-3.48-8.71-3.26-3.6,.24-6.67,2.23-8.54,5.08-.17,.26-.33,.53-.49,.81-.11,.21-.22,.42-.32,.63-.72,1.53-1.12,3.24-1.12,5.01v8.13h-4.21v-9.68c0-4.07,1.71-7.75,4.48-10.41s6.61-4.31,10.84-4.31c8.46,0,15.32,6.59,15.32,14.73v9.68h-3.97v-8.46c0-1.88-.49-3.52-1.31-5.08"/>
      <rect class="cls-3" x="6.05" y="10.47" width="62.46" height="2.56"/>
      <rect class="cls-7" x="5.78" y="13.09" width="62.46" height="9.77"/>
      <g>
        <path class="cls-3" d="M9.62,7.51c-.01-1.56-1.28-3.83-2.84-3.82s-2.82,2.3-2.81,3.86"/>
        <path class="cls-3" d="M17.47,7.51c-.01-1.56-1.28-3.83-2.84-3.82s-2.82,2.3-2.81,3.86"/>
      </g>
      <g>
        <path class="cls-3" d="M9.45,7.48c-.01-1.55-1.28-3.8-2.84-3.79s-2.82,2.28-2.81,3.83"/>
        <path class="cls-3" d="M17.28,7.48c-.01-1.55-1.28-3.8-2.84-3.79s-2.82,2.28-2.81,3.83"/>
      </g>
      <path class="cls-5" d="M29.62,20.12h0c0,.62-.5,1.11-1.12,1.11h-8.68c-.62,0-1.12-.5-1.12-1.11h0c0-.62,.5-1.11,1.12-1.11h8.68c.62,0,1.12,.5,1.12,1.11Z"/>
      <path class="cls-5" d="M55.66,16.66h0c0,.62-.5,1.11-1.12,1.11h-8.68c-.62,0-1.12-.5-1.12-1.12h0c0-.62,.5-1.11,1.12-1.11h8.68c.62,0,1.12,.5,1.12,1.12Z"/>
      <path class="cls-11" d="M56.46,23.05h2.87v8.99h0c-1.59,0-2.87-1.29-2.87-2.87v-6.12h0Z"/>
      <path class="cls-11" d="M64,23.05h2.87v8.99h0c-1.59,0-2.87-1.29-2.87-2.87v-6.12h0Z"/>
      <path class="cls-11" d="M50.39,52.66h2.87v16.07h0c-1.59,0-2.87-1.29-2.87-2.87v-13.2h0Z"/>
      <path class="cls-11" d="M22.72,52.66h1.44c.79,0,1.44,.64,1.44,1.44v13.2c0,.79-.64,1.44-1.44,1.44h0c-.79,0-1.44-.64-1.44-1.44v-14.64h0Z"/>
      <path class="cls-11" d="M18.69,64.73h0c-.79,0-1.44-.64-1.44-1.44v-18.69h1.44c.79,0,1.44,.64,1.44,1.44v17.25c0,.79-.64,1.44-1.44,1.44Z"/>
      <path d="M25.24,13.37h-4.77c-.19,0-.35-.16-.35-.35s.16-.35,.35-.35h4.77c.19,0,.35,.16,.35,.35s-.16,.35-.35,.35Z"/>
      <path d="M26.82,72.44H7.61c-.19,0-.35-.16-.35-.35V15c0-1.28,1.04-2.33,2.33-2.33h9.32c.19,0,.35,.16,.35,.35s-.16,.35-.35,.35H9.58c-.9,0-1.63,.73-1.63,1.63v56.74H26.48v-8.71c0-.19,.16-.35,.35-.35s.35,.16,.35,.35v9.06c0,.19-.16,.35-.35,.35h0Z"/>
      <path d="M26.82,61.69c-.19,0-.35-.16-.35-.35v-16.8c0-1.92,.47-3.85,1.35-5.56,.09-.17,.3-.24,.47-.15s.24,.3,.15,.47c-.83,1.61-1.27,3.43-1.27,5.24v16.8c0,.19-.16,.35-.35,.35Z"/>
      <path d="M29.06,37.97c-.07,0-.14-.02-.21-.07-.16-.11-.19-.33-.08-.49,2.03-2.8,5.12-4.54,8.48-4.76,1.91-.13,3.74,.19,5.46,.95,.18,.08,.26,.28,.18,.46-.08,.18-.28,.25-.46,.18-1.61-.71-3.34-1.01-5.13-.89-3.15,.21-6.05,1.84-7.96,4.47-.07,.09-.17,.14-.28,.14h0Z"/>
      <path d="M47.46,38.39c-.11,0-.22-.06-.29-.16-.41-.62-.88-1.2-1.41-1.73-.63-.63-1.33-1.18-2.09-1.64-.17-.1-.22-.31-.12-.48,.1-.17,.32-.22,.48-.12,.81,.49,1.56,1.07,2.23,1.74,.56,.56,1.06,1.18,1.5,1.84,.11,.16,.06,.38-.1,.48-.06,.04-.12,.06-.19,.06h-.01Z"/>
      <path d="M68.52,72.44h-19.22c-.19,0-.35-.16-.35-.35v-27.88c0-1.49-.29-2.93-.88-4.29-.08-.18,0-.38,.18-.46s.38,0,.46,.18c.62,1.45,.93,2.98,.93,4.56v27.54h18.52V15c0-.9-.73-1.63-1.63-1.63h-18.06c-.19,0-.35-.16-.35-.35s.16-.35,.35-.35h18.06c1.28,0,2.33,1.04,2.33,2.33v57.09c0,.19-.16,.35-.35,.35h0Z"/>
      <path d="M46.52,13.37H26.89c-.19,0-.35-.16-.35-.35s.16-.35,.35-.35h19.62c.19,0,.35,.16,.35,.35s-.16,.35-.35,.35Z"/>
      <path d="M52.32,23.2h-15.87c-.19,0-.35-.16-.35-.35s.16-.35,.35-.35h15.87c.19,0,.35,.16,.35,.35s-.16,.35-.35,.35Z"/>
      <path d="M70.81,23.2h-16c-.19,0-.35-.16-.35-.35s.16-.35,.35-.35h15.65V10.81H5.67v11.69H23.99c.19,0,.35,.16,.35,.35s-.16,.35-.35,.35H5.32c-.19,0-.35-.16-.35-.35V10.46c0-.19,.16-.35,.35-.35H70.81c.19,0,.35,.16,.35,.35v12.39c0,.19-.16,.35-.35,.35Z"/>
      <path d="M34.6,23.2h-8.76c-.19,0-.35-.16-.35-.35s.16-.35,.35-.35h8.76c.19,0,.35,.16,.35,.35s-.16,.35-.35,.35Z"/>
      <rect class="cls-1" x="4.2" y="7.67" width="5.25" height="64.93"/>
      <rect class="cls-9" x="4.2" y="7.67" width="5.25" height="2.79"/>
      <rect class="cls-1" x="12.03" y="7.67" width="5.25" height="64.93"/>
      <rect class="cls-9" x="12.03" y="7.67" width="5.25" height="3.05"/>
      <g>
        <path d="M3.99,7.89c-.19,0-.35-.16-.35-.35,0-.85,.33-1.88,.87-2.7,.64-.96,1.45-1.5,2.28-1.5h.01c.83,0,1.64,.52,2.28,1.47,.55,.81,.9,1.84,.9,2.69,0,.19-.15,.35-.35,.35h0c-.19,0-.35-.16-.35-.35,0-.72-.3-1.6-.78-2.3-.5-.74-1.12-1.17-1.7-1.17h0c-.58,0-1.2,.44-1.7,1.19-.47,.71-.76,1.6-.76,2.31,0,.19-.15,.35-.35,.35h0Z"/>
        <path d="M11.82,7.89c-.19,0-.35-.16-.35-.35,0-.85,.33-1.88,.87-2.7,.64-.96,1.45-1.5,2.28-1.5h.01c1.83,0,3.17,2.48,3.18,4.17,0,.19-.15,.35-.35,.35h0c-.19,0-.35-.16-.35-.35,0-1.34-1.15-3.47-2.48-3.47h0c-.58,0-1.2,.44-1.7,1.19-.47,.71-.76,1.6-.76,2.31,0,.19-.15,.35-.35,.35h0Z"/>
      </g>
      <g>
        <path d="M6.82,3.81c-.71,0-1.28-.58-1.28-1.28s.58-1.28,1.28-1.28,1.28,.58,1.28,1.28-.58,1.28-1.28,1.28Zm0-2.07c-.43,0-.79,.35-.79,.79s.35,.79,.79,.79,.79-.35,.79-.79-.35-.79-.79-.79Z"/>
        <path d="M14.66,3.81c-.71,0-1.28-.58-1.28-1.28s.58-1.28,1.28-1.28,1.28,.58,1.28,1.28-.58,1.28-1.28,1.28Zm0-2.07c-.43,0-.79,.35-.79,.79s.35,.79,.79,.79,.79-.35,.79-.79-.35-.79-.79-.79Z"/>
      </g>
      <g>
        <path d="M5.32,7.79c-.14,0-.25-.11-.25-.24,0-.11-.03-2.8,.9-3.75,.23-.24,.51-.36,.81-.36,.14,0,.25,.11,.25,.25s-.11,.25-.25,.25c-.17,0-.32,.07-.46,.21-.66,.67-.77,2.68-.76,3.4,0,.14-.11,.25-.24,.25h0Z"/>
        <path d="M6.88,7.92c-.14,0-.25-.11-.25-.25V3.68c0-.14,.11-.25,.25-.25,.31,0,.58,.12,.81,.36,.94,.95,.9,3.64,.9,3.75,0,.14-.08,.24-.25,.24-.14,0-.25-.12-.24-.25,.01-.72-.1-2.73-.76-3.4-.07-.07-.14-.12-.21-.15v3.68c0,.14-.11,.25-.25,.25h0Z"/>
      </g>
      <g>
        <path d="M13.13,7.79c-.14,0-.25-.11-.25-.24,0-.11-.04-2.8,.9-3.75,.23-.24,.51-.36,.81-.36,.14,0,.25,.11,.25,.25s-.11,.25-.25,.25c-.17,0-.32,.07-.46,.21-.66,.67-.77,2.68-.76,3.4,0,.14-.11,.25-.24,.25h0Z"/>
        <path d="M14.7,7.92c-.14,0-.25-.11-.25-.25V3.68c0-.14,.11-.25,.25-.25,.31,0,.58,.12,.81,.36,.94,.95,.9,3.64,.9,3.75,0,.14-.11,.24-.25,.24s-.25-.12-.24-.25c.01-.72-.1-2.73-.76-3.4-.07-.07-.14-.12-.21-.15v3.68c0,.14-.11,.25-.25,.25h0Z"/>
      </g>
      <g>
        <path class="cls-3" d="M64.77,7.61c-.01-1.56-1.28-3.83-2.84-3.82s-2.82,2.3-2.81,3.86"/>
        <path class="cls-3" d="M72.6,7.61c-.01-1.56-1.28-3.83-2.84-3.82s-2.82,2.3-2.81,3.86"/>
      </g>
      <g>
        <path class="cls-3" d="M64.59,7.59c-.01-1.55-1.28-3.8-2.84-3.79s-2.82,2.28-2.81,3.83"/>
        <path class="cls-3" d="M72.42,7.59c-.01-1.55-1.28-3.8-2.84-3.79s-2.82,2.28-2.81,3.83"/>
      </g>
      <rect class="cls-1" x="59.34" y="7.78" width="5.25" height="64.93"/>
      <rect class="cls-9" x="59.34" y="7.78" width="5.25" height="2.79"/>
      <rect class="cls-1" x="67.17" y="7.78" width="5.25" height="64.93"/>
      <rect class="cls-12" x="69.8" y="7.78" width="2.63" height="64.93"/>
      <rect class="cls-12" x="67.17" y="7.78" width="5.25" height="3.05"/>
      <g>
        <path d="M59.12,8c-.19,0-.35-.16-.35-.35,0-.85,.33-1.88,.87-2.7,.64-.96,1.45-1.5,2.28-1.5h0c1.83,0,3.17,2.48,3.18,4.17,0,.19-.15,.35-.35,.35h0c-.19,0-.35-.16-.35-.35,0-1.34-1.15-3.47-2.48-3.47h0c-.58,0-1.2,.44-1.7,1.19-.47,.71-.76,1.6-.76,2.31,0,.19-.15,.35-.35,.35h0Z"/>
        <path d="M66.95,8c-.19,0-.35-.16-.35-.35,0-.85,.33-1.88,.87-2.7,.64-.96,1.45-1.5,2.28-1.5s1.65,.52,2.29,1.47c.55,.81,.89,1.84,.9,2.69,0,.19-.15,.35-.35,.35h0c-.19,0-.35-.16-.35-.35,0-.72-.3-1.6-.78-2.3-.5-.74-1.12-1.17-1.7-1.17h0c-.58,0-1.21,.44-1.7,1.19-.47,.71-.76,1.6-.76,2.31,0,.19-.15,.35-.35,.35h0Z"/>
      </g>
      <path d="M61.96,3.92c-.71,0-1.28-.58-1.28-1.28s.58-1.28,1.28-1.28,1.28,.58,1.28,1.28-.58,1.28-1.28,1.28Zm0-2.07c-.43,0-.79,.35-.79,.79s.35,.79,.79,.79,.79-.35,.79-.79-.35-.79-.79-.79Z"/>
      <path d="M69.8,3.92c-.71,0-1.28-.58-1.28-1.28s.58-1.28,1.28-1.28,1.28,.58,1.28,1.28-.58,1.28-1.28,1.28Zm0-2.07c-.43,0-.79,.35-.79,.79s.35,.79,.79,.79,.79-.35,.79-.79-.35-.79-.79-.79Z"/>
      <g>
        <path d="M60.46,7.9c-.14,0-.25-.11-.25-.24,0-.11-.04-2.8,.9-3.75,.23-.24,.51-.36,.81-.36,.14,0,.25,.11,.25,.25s-.11,.25-.25,.25c-.17,0-.32,.07-.46,.21-.66,.67-.77,2.68-.76,3.4,0,.14-.11,.25-.24,.25h0Z"/>
        <path d="M62.02,8.03c-.14,0-.25-.11-.25-.25V3.79c0-.14,.11-.25,.25-.25,.31,0,.58,.12,.81,.36,.94,.95,.9,3.64,.9,3.75,0,.14-.11,.24-.25,.24h0c-.14,0-.25-.12-.24-.25,0-.72-.1-2.73-.76-3.4-.07-.07-.14-.12-.21-.15v3.68c0,.14-.11,.25-.25,.25h0Z"/>
      </g>
      <g>
        <path d="M68.27,7.9c-.14,0-.25-.11-.25-.24,0-.11-.03-2.8,.9-3.75,.23-.24,.51-.36,.81-.36,.14,0,.25,.11,.25,.25s-.11,.25-.25,.25c-.17,0-.32,.07-.46,.21-.66,.67-.77,2.68-.76,3.4,0,.14-.11,.25-.24,.25h0Z"/>
        <path d="M69.84,8.03c-.14,0-.25-.11-.25-.25V3.79c0-.14,.11-.25,.25-.25,.31,0,.58,.12,.81,.36,.94,.95,.9,3.64,.9,3.75,0,.14-.11,.24-.25,.24h0c-.14,0-.25-.12-.24-.25,.01-.72-.1-2.73-.76-3.4-.07-.07-.14-.12-.21-.15v3.68c0,.14-.11,.25-.25,.25h0Z"/>
      </g>
      <path d="M53.27,72.44c-.19,0-.35-.16-.35-.35v-29.1c0-7.93-6.72-14.38-14.97-14.38s-14.97,6.45-14.97,14.38v29.1c0,.19-.16,.35-.35,.35s-.35-.16-.35-.35v-29.1c0-8.31,7.03-15.08,15.67-15.08s15.67,6.76,15.67,15.08v29.1c0,.19-.16,.35-.35,.35Z"/>
      <path d="M28.09,53.01h-7.02c-.19,0-.35-.16-.35-.35s.16-.35,.35-.35h7.02c.19,0,.35,.16,.35,.35s-.16,.35-.35,.35Z"/>
      <path class="cls-6" d="M25.3,51.71c-.28,0-.51-.23-.51-.51v-5.86c0-.28,.23-.51,.51-.51s.51,.23,.51,.51v5.86c0,.28-.23,.51-.51,.51Z"/>
      <path d="M54.8,53.01h-7.02c-.19,0-.35-.16-.35-.35s.16-.35,.35-.35h7.02c.19,0,.35,.16,.35,.35s-.16,.35-.35,.35Z"/>
      <g>
        <path d="M13.62,71.76c-.14,0-.25-.11-.25-.25v-16.57c0-.14,.11-.25,.25-.25s.25,.11,.25,.25v16.57c0,.14-.11,.25-.25,.25h0Z"/>
        <path d="M15.45,71.76c-.14,0-.25-.11-.25-.25v-16.57c0-.14,.11-.25,.25-.25s.25,.11,.25,.25v16.57c0,.14-.11,.25-.25,.25h0Z"/>
      </g>
      <g>
        <path d="M68.81,71.76c-.14,0-.25-.11-.25-.25v-16.57c0-.14,.11-.25,.25-.25s.25,.11,.25,.25v16.57c0,.14-.11,.25-.25,.25h0Z"/>
        <path d="M70.63,71.76c-.14,0-.25-.11-.25-.25v-16.57c0-.14,.11-.25,.25-.25s.25,.11,.25,.25v16.57c0,.14-.11,.25-.25,.25h0Z"/>
      </g>
      <g>
        <path d="M68.81,50.44c-.14,0-.25-.11-.25-.25V23.5c0-.14,.11-.25,.25-.25s.25,.11,.25,.25v26.69c0,.14-.11,.25-.25,.25Z"/>
        <path d="M70.63,50.44c-.14,0-.25-.11-.25-.25V23.5c0-.14,.11-.25,.25-.25s.25,.11,.25,.25v26.69c0,.14-.11,.25-.25,.25Z"/>
      </g>
      <path d="M7.86,21.77H2.95c-.14,0-.25-.11-.25-.25s.11-.25,.25-.25H7.86c.14,0,.25,.11,.25,.25s-.11,.25-.25,.25Z"/>
      <path d="M7.86,52.91H2.95c-.14,0-.25-.11-.25-.25s.11-.25,.25-.25H7.86c.14,0,.25,.11,.25,.25s-.11,.25-.25,.25Z"/>
      <path d="M15.58,52.91h-4.9c-.14,0-.25-.11-.25-.25s.11-.25,.25-.25h4.9c.14,0,.25,.11,.25,.25s-.11,.25-.25,.25Z"/>
      <path d="M21.26,68.39H1.99c-.14,0-.25-.11-.25-.25s.11-.25,.25-.25H21.26c.14,0,.25,.11,.25,.25s-.11,.25-.25,.25Z"/>
      <path d="M74.23,68.39h-19.28c-.14,0-.25-.11-.25-.25s.11-.25,.25-.25h19.28c.14,0,.25,.11,.25,.25s-.11,.25-.25,.25Z"/>
      <path d="M70.82,52.91h-4.9c-.14,0-.25-.11-.25-.25s.11-.25,.25-.25h4.9c.14,0,.25,.11,.25,.25s-.11,.25-.25,.25Z"/>
      <path d="M16.06,21.77h-4.9c-.14,0-.25-.11-.25-.25s.11-.25,.25-.25h4.9c.14,0,.25,.11,.25,.25s-.11,.25-.25,.25Z"/>
      <path d="M65.45,21.77h-4.9c-.14,0-.25-.11-.25-.25s.11-.25,.25-.25h4.9c.14,0,.25,.11,.25,.25s-.11,.25-.25,.25Z"/>
      <path d="M73.27,21.77h-4.9c-.14,0-.25-.11-.25-.25s.11-.25,.25-.25h4.9c.14,0,.25,.11,.25,.25s-.11,.25-.25,.25Z"/>
      <g>
        <path class="cls-7" d="M34.89,7.52h6.33v6.65c0,1.75-1.42,3.17-3.17,3.17h0c-1.75,0-3.17-1.42-3.17-3.17V7.52h0Z"/>
        <path d="M38.07,17.59c-1.88,0-3.42-1.53-3.42-3.42V7.52c0-.14,.11-.25,.25-.25h1.12c.14,0,.25,.11,.25,.25s-.11,.25-.25,.25h-.87v6.41c0,1.61,1.31,2.92,2.92,2.92s2.92-1.31,2.92-2.92V7.77h-3.7c-.14,0-.25-.11-.25-.25s.11-.25,.25-.25h3.95c.14,0,.25,.11,.25,.25v6.65c0,1.88-1.53,3.42-3.42,3.42Z"/>
      </g>
      <g>
        <path class="cls-7" d="M5.3,14.33h3.01v3.16c0,.83-.67,1.51-1.51,1.51h0c-.83,0-1.51-.67-1.51-1.51v-3.16h.01Z"/>
        <path d="M6.8,19.24c-.97,0-1.75-.79-1.75-1.75v-3.16c0-.14,.11-.25,.25-.25h3.01c.14,0,.25,.11,.25,.25v3.16c0,.97-.79,1.75-1.75,1.75h-.01Zm-1.26-4.67v2.92c0,.69,.56,1.26,1.26,1.26s1.26-.56,1.26-1.26v-2.92h-2.52Z"/>
      </g>
      <g>
        <path class="cls-7" d="M13.15,14.33h3.01v3.16c0,.83-.67,1.51-1.51,1.51h0c-.83,0-1.51-.67-1.51-1.51v-3.16h.01Z"/>
        <path d="M14.66,19.24c-.97,0-1.75-.79-1.75-1.75v-3.16c0-.14,.11-.25,.25-.25h3.01c.14,0,.25,.11,.25,.25v3.16c0,.97-.79,1.75-1.75,1.75h0Zm-1.26-4.67v2.92c0,.69,.56,1.26,1.26,1.26s1.26-.56,1.26-1.26v-2.92h-2.52Z"/>
      </g>
      <g>
        <path class="cls-7" d="M60.41,14.33h3.01v3.16c0,.83-.67,1.51-1.51,1.51h0c-.83,0-1.51-.67-1.51-1.51v-3.16h0Z"/>
        <path d="M61.93,19.24c-.97,0-1.75-.79-1.75-1.75v-3.16c0-.14,.11-.25,.25-.25h3.01c.14,0,.25,.11,.25,.25v3.16c0,.97-.79,1.75-1.75,1.75h0Zm-1.26-4.67v2.92c0,.69,.56,1.26,1.26,1.26s1.26-.56,1.26-1.26v-2.92h-2.52Z"/>
      </g>
      <g>
        <path class="cls-7" d="M68.27,14.33h3.01v3.16c0,.83-.67,1.51-1.51,1.51h0c-.83,0-1.51-.67-1.51-1.51v-3.16h.01Z"/>
        <path d="M69.77,19.24c-.97,0-1.75-.79-1.75-1.75v-3.16c0-.14,.11-.25,.25-.25h3.01c.14,0,.25,.11,.25,.25v3.16c0,.97-.79,1.75-1.75,1.75h-.01Zm-1.26-4.67v2.92c0,.69,.56,1.26,1.26,1.26s1.26-.56,1.26-1.26v-2.92h-2.52Z"/>
      </g>
      <rect class="cls-8" x="59.34" y="43.2" width="2.71" height="19.31" rx="1.35" ry="1.35"/>
      <rect class="cls-8" x="12.26" y="31.82" width="2.71" height="13.23" rx="1.35" ry="1.35"/>
      <rect class="cls-8" x="4.55" y="25.23" width="2.71" height="8.17" rx="1.35" ry="1.35"/>
      <path class="cls-8" d="M63.15,27.88h0c.62,0,1.12,.5,1.12,1.12v3.67c0,.62-.5,1.12-1.12,1.12h0c-.62,0-1.12-.5-1.12-1.12v-3.67c0-.62,.5-1.12,1.12-1.12Z"/>
      <g>
        <path d="M61.1,50.44c-.14,0-.25-.11-.25-.25V23.5c0-.14,.11-.25,.25-.25s.25,.11,.25,.25v26.69c0,.14-.11,.25-.25,.25Z"/>
        <path d="M62.94,50.44c-.14,0-.25-.11-.25-.25V23.5c0-.14,.11-.25,.25-.25s.25,.11,.25,.25v26.69c0,.14-.11,.25-.25,.25Z"/>
      </g>
      <g>
        <path d="M61.1,71.76c-.14,0-.25-.11-.25-.25v-16.57c0-.14,.11-.25,.25-.25s.25,.11,.25,.25v16.57c0,.14-.11,.25-.25,.25h0Z"/>
        <path d="M62.94,71.76c-.14,0-.25-.11-.25-.25v-16.57c0-.14,.11-.25,.25-.25s.25,.11,.25,.25v16.57c0,.14-.11,.25-.25,.25h0Z"/>
      </g>
      <g>
        <path d="M64.59,73.06h-5.25c-.19,0-.35-.16-.35-.35V7.78c0-.19,.16-.35,.35-.35h5.25c.19,0,.35,.16,.35,.35V72.71c0,.19-.16,.35-.35,.35Zm-4.9-.7h4.55V8.13h-4.55s0,64.23,0,64.23Z"/>
        <path d="M72.42,73.06h-5.25c-.19,0-.35-.16-.35-.35V7.78c0-.19,.16-.35,.35-.35h5.25c.19,0,.35,.16,.35,.35V72.71c0,.19-.16,.35-.35,.35Zm-4.9-.7h4.55V8.13h-4.55V72.36Z"/>
      </g>
      <path d="M63,52.91h-4.9c-.14,0-.25-.11-.25-.25s.11-.25,.25-.25h4.9c.14,0,.25,.11,.25,.25s-.11,.25-.25,.25Z"/>
      <g>
        <path d="M13.62,50.44c-.14,0-.25-.11-.25-.25V23.5c0-.14,.11-.25,.25-.25s.25,.11,.25,.25v26.69c0,.14-.11,.25-.25,.25Z"/>
        <path d="M15.45,50.44c-.14,0-.25-.11-.25-.25V23.5c0-.14,.11-.25,.25-.25s.25,.11,.25,.25v26.69c0,.14-.11,.25-.25,.25Z"/>
      </g>
      <g>
        <g>
          <path d="M5.9,50.44c-.14,0-.25-.11-.25-.25V23.5c0-.14,.11-.25,.25-.25s.25,.11,.25,.25v26.69c0,.14-.11,.25-.25,.25Z"/>
          <path d="M7.74,50.44c-.14,0-.25-.11-.25-.25V23.5c0-.14,.11-.25,.25-.25s.25,.11,.25,.25v26.69c0,.14-.11,.25-.25,.25Z"/>
        </g>
        <g>
          <path d="M5.9,71.76c-.14,0-.25-.11-.25-.25v-16.57c0-.14,.11-.25,.25-.25s.25,.11,.25,.25v16.57c0,.14-.11,.25-.25,.25h0Z"/>
          <path d="M7.74,71.76c-.14,0-.25-.11-.25-.25v-16.57c0-.14,.11-.25,.25-.25s.25,.11,.25,.25v16.57c0,.14-.11,.25-.25,.25h0Z"/>
        </g>
      </g>
      <g>
        <path d="M9.45,72.96H4.2c-.19,0-.35-.16-.35-.35V7.67c0-.19,.16-.35,.35-.35h5.25c.19,0,.35,.16,.35,.35V72.6c0,.19-.16,.35-.35,.35h0Zm-4.9-.69h4.55V8.02H4.55V72.25h0Z"/>
        <path d="M17.28,72.96h-5.25c-.19,0-.35-.16-.35-.35V7.67c0-.19,.16-.35,.35-.35h5.25c.19,0,.35,.16,.35,.35V72.6c0,.19-.16,.35-.35,.35h0Zm-4.9-.69h4.55V8.02h-4.55V72.25h0Z"/>
      </g>
      <path class="cls-5" d="M29.36,35.76c.47-.52,.97-1.01,1.53-1.44l-.31,.24c.79-.61,1.66-1.09,2.58-1.48l-.36,.15c.27-.11,.54-.22,.82-.32,.38-.13,.7-.34,.91-.7,.19-.33,.27-.81,.15-1.17-.24-.74-1.07-1.35-1.87-1.06-1.15,.41-2.28,.91-3.29,1.61-.85,.58-1.62,1.25-2.3,2.02-.53,.59-.63,1.57,0,2.15,.58,.53,1.58,.63,2.15,0h-.01Z"/>
      <path class="cls-6" d="M30.34,34.77c.18-.16,.36-.31,.55-.46l-.31,.24c.57-.44,1.18-.81,1.82-1.13,.33-.16,.6-.56,.7-.91,.1-.36,.05-.85-.15-1.17s-.52-.61-.91-.7l-.4-.05c-.27,0-.53,.07-.77,.21-.97,.48-1.87,1.11-2.68,1.83-.28,.25-.44,.71-.44,1.07s.17,.82,.44,1.07,.67,.46,1.07,.44l.4-.05c.26-.07,.48-.2,.67-.39h.01Z"/>
      <path class="cls-5" d="M36.5,13.35h0c-.43,0-.77-.34-.77-.77v-2.51c0-.43,.34-.77,.77-.77h0c.43,0,.77,.34,.77,.77v2.51c0,.43-.34,.77-.77,.77Z"/>
      <rect class="cls-3" x="1.47" y="71.51" width="74.35" height="2.63"/>
      <rect class="cls-11" x="56.46" y="71.51" width="19.41" height="2.63" rx="1.31" ry="1.31"/>
      <path d="M75.82,74.39H1.47c-.14,0-.25-.11-.25-.25v-2.63c0-.14,.11-.25,.25-.25H75.82c.14,0,.25,.11,.25,.25v2.63c0,.14-.11,.25-.25,.25Zm-74.11-.5H75.57v-2.13H1.71s0,2.13,0,2.13Z"/>
      <g>
        <path class="cls-13" d="M44.77,44.3c-.14,0-.25-.11-.25-.25s.11-.25,.25-.25l5.52-.03h0c.14,0,.25,.11,.25,.25s-.11,.25-.25,.25l-5.52,.03h0Z"/>
        <path class="cls-13" d="M45.85,45.44c-.14,0-.25-.11-.25-.25s.11-.25,.25-.25l5.52-.03h0c.14,0,.25,.11,.25,.25s-.11,.25-.25,.25l-5.52,.03h0Z"/>
      </g>
      <circle cx="1.67" cy="22.41" r=".49"/>
      <circle cx="11.16" cy="3.01" r=".49"/>
      <g>
        <path d="M19.9,9.05h-.1c-.41-.03-.78-.21-1.06-.51-.27-.31-.41-.7-.38-1.11,.05-.84,.8-1.48,1.63-1.44,.41,.03,.79,.21,1.06,.52,.27,.31,.41,.7,.38,1.11s-.21,.78-.51,1.05c-.28,.25-.64,.39-1.01,.39h0Zm0-2.58c-.54,0-1,.42-1.04,.97-.02,.28,.07,.54,.26,.75,.18,.21,.44,.33,.71,.35,.28,.03,.54-.07,.75-.26,.21-.18,.33-.44,.35-.71h0c.02-.28-.07-.54-.26-.75-.18-.21-.44-.33-.71-.35h-.06Z"/>
        <circle cx="22.13" cy="5.79" r=".49"/>
      </g>
      <g>
        <path d="M41.03,67.82h-.1c-.41-.03-.78-.21-1.06-.52-.27-.31-.41-.7-.38-1.11s.21-.78,.52-1.06c.63-.56,1.61-.5,2.17,.13,.27,.31,.41,.7,.38,1.11s-.21,.78-.52,1.06c-.28,.25-.64,.39-1.01,.39Zm0-2.57c-.25,0-.49,.09-.69,.26-.21,.18-.33,.44-.35,.71-.02,.28,.07,.54,.26,.75,.18,.21,.44,.33,.71,.35,.27,.03,.54-.08,.75-.26s.33-.44,.35-.71c.02-.28-.07-.54-.26-.75-.21-.23-.49-.35-.78-.35h0Z"/>
        <circle cx="40.68" cy="69.08" r=".49"/>
      </g>
      <circle cx="58.68" cy="3.8" r=".49"/>
      <g>
        <path d="M33.12,40.65c.27,0,.49,.22,.49,.49s-.22,.49-.49,.49-.49-.22-.49-.49,.22-.49,.49-.49Z"/>
        <g>
          <path d="M31.54,43c-.06,0-.13-.02-.18-.07l-1.85-1.85c-.1-.1-.1-.25,0-.35s.25-.1,.35,0l1.85,1.85c.1,.1,.1,.25,0,.35-.05,.05-.11,.07-.18,.07h.01Z"/>
          <path d="M29.69,43c-.06,0-.13-.02-.18-.07-.1-.1-.1-.25,0-.35l1.85-1.85c.1-.1,.25-.1,.35,0s.1,.25,0,.35l-1.85,1.85s-.11,.07-.18,.07h.01Z"/>
        </g>
      </g>
      <g>
        <path d="M2.11,26.82c-.06,0-.13-.02-.18-.07L.08,24.9c-.1-.1-.1-.25,0-.35,.1-.1,.25-.1,.35,0l1.85,1.85c.1,.1,.1,.25,0,.35-.05,.05-.11,.07-.18,.07h.01Z"/>
        <path d="M.26,26.82c-.06,0-.13-.02-.18-.07-.1-.1-.1-.25,0-.35l1.85-1.85c.1-.1,.25-.1,.35,0s.1,.25,0,.35l-1.85,1.85s-.11,.07-.18,.07h.01Z"/>
      </g>
    </g>
  </g>
</svg>