<?xml version="1.0" encoding="UTF-8"?>
<svg id="Layer_2" data-name="Layer 2" xmlns="http://www.w3.org/2000/svg" viewBox="0 0 73.97 73.33">
  <defs>
    <style>
      .cls-1 {
        fill: #f3a814;
      }

      .cls-2 {
        fill: #67f2a8;
      }

      .cls-3 {
        fill: #f1ca96;
      }

      .cls-4 {
        fill: #f69472;
      }

      .cls-5 {
        fill: #fff;
      }

      .cls-6 {
        fill: #ffefd8;
      }

      .cls-7, .cls-8 {
        fill: #fff7ed;
      }

      .cls-9 {
        fill: #8f7c71;
      }

      .cls-10 {
        fill: #b0dbee;
      }

      .cls-11 {
        fill: #df5c34;
      }

      .cls-12 {
        fill: #dc6540;
      }

      .cls-13 {
        fill: #062539;
      }

      .cls-14 {
        fill: #725d52;
      }

      .cls-15 {
        fill: #5a7180;
      }

      .cls-16 {
        fill: #36cc7b;
      }

      .cls-8 {
        isolation: isolate;
        opacity: .42;
      }

      .cls-17 {
        opacity: .23;
      }
    </style>
  </defs>
  <g id="Layer_2-2" data-name="Layer 2">
    <g>
      <path class="cls-15" d="M70.38,70.14c-4.89-1.03-6.72-.98-13.55-1.21-2.73-.09-12.41,.16-15.14,.07-.95-.03-1.91-.06-2.87-.07-3.4,0-6.09-.16-9.4,0-9,.45-16.27-.6-25.11-.03v3.75H70.39s.2-2.47,0-2.51h-.01Z"/>
      <g>
        <path d="M20.84,69.17c-.13,0-.24-.11-.24-.24l-.03-21.21c0-.13,.11-.24,.24-.24h0c.13,0,.24,.11,.24,.24l.03,21.21c0,.13-.11,.24-.24,.24h0Z"/>
        <path d="M20.84,72.51c-.13,0-.24-.11-.24-.24v-2.21c0-.13,.11-.24,.24-.24h0c.13,0,.24,.11,.24,.24v2.21c0,.13-.11,.24-.24,.24h0Z"/>
        <ellipse class="cls-2" cx="20.82" cy="58.36" rx="4.81" ry="9.38" transform="translate(-.08 .03) rotate(-.08)"/>
        <path class="cls-16" d="M25.63,58.37c0,5.18-2.14,9.39-4.79,9.39l-.03-18.76c2.65,0,4.81,4.19,4.82,9.37Z"/>
        <path d="M16.88,63.83c-.1,0-.19-.06-.23-.16-.57-1.59-.87-3.46-.87-5.4,0-.67,.03-1.33,.1-1.97,.01-.13,.13-.22,.27-.21,.13,0,.23,.13,.21,.27-.07,.62-.1,1.27-.1,1.92,0,1.89,.29,3.7,.84,5.24,.04,.13-.02,.26-.15,.31-.03,0-.05,0-.08,0h.01Z"/>
        <path d="M20.83,67.88c-1.39,0-2.68-1.04-3.64-2.92-.06-.12-.01-.26,.11-.33,.12-.06,.26,0,.33,.11,.87,1.71,2.01,2.65,3.21,2.65h0c2.52,0,4.56-4.11,4.55-9.14,0-5.04-2.06-9.13-4.57-9.13h0c-1.74,0-3.36,2.06-4.11,5.24-.03,.13-.16,.21-.29,.18-.13-.03-.21-.16-.18-.29,.82-3.46,2.58-5.61,4.58-5.61h0c2.78,0,5.05,4.31,5.06,9.62,0,5.3-2.25,9.62-5.03,9.63h-.02Z"/>
        <g>
          <path class="cls-13" d="M15.14,60.11c-.11,0-.21-.08-.23-.19-.03-.13,.06-.26,.19-.28l1.89-.39c.13-.03,.26,.06,.28,.19,.03,.13-.06,.26-.19,.28l-1.89,.39h-.05Z"/>
          <path class="cls-13" d="M15.26,61.2c-.11,0-.21-.08-.23-.19-.03-.13,.05-.26,.18-.29l2.24-.5c.14-.03,.26,.05,.29,.18,.03,.13-.05,.26-.18,.29l-2.24,.5h-.06Z"/>
        </g>
        <g>
          <circle class="cls-16" cx="20.85" cy="64.44" r=".8"/>
          <circle class="cls-16" cx="20.08" cy="63.15" r=".14"/>
          <circle class="cls-16" cx="19.4" cy="63.95" r=".24"/>
          <circle class="cls-16" cx="19.36" cy="65.12" r=".55"/>
        </g>
        <g>
          <circle class="cls-2" cx="21.28" cy="51.42" r=".62"/>
          <circle class="cls-2" cx="22.97" cy="51.21" r=".11"/>
          <circle class="cls-2" cx="22.44" cy="51.84" r=".19"/>
          <circle class="cls-2" cx="22.41" cy="52.76" r=".43"/>
        </g>
        <circle class="cls-13" cx="16.26" cy="55.3" r=".28"/>
        <g>
          <path class="cls-5" d="M17.33,55.33s-.06,0-.1,0c-.24-.05-.4-.29-.34-.54,.13-.62,.3-1.21,.5-1.76,.08-.23,.34-.35,.58-.27,.23,.08,.36,.34,.27,.58-.19,.52-.35,1.07-.47,1.65-.05,.21-.23,.36-.44,.36h0Z"/>
          <ellipse class="cls-5" cx="18.44" cy="52.09" rx=".52" ry=".35" transform="translate(-35.91 42.09) rotate(-60.08)"/>
        </g>
      </g>
      <g>
        <path d="M54.23,69.17c-.13,0-.24-.11-.24-.24l-.03-21.21c0-.13,.11-.24,.24-.24h0c.13,0,.24,.11,.24,.24l.03,21.21c0,.13-.11,.24-.24,.24h0Z"/>
        <path d="M54.24,72.51c-.13,0-.24-.11-.24-.24v-2.21c0-.13,.11-.24,.24-.24h0c.13,0,.24,.11,.24,.24v2.21c0,.13-.11,.24-.24,.24h0Z"/>
        <ellipse class="cls-2" cx="54.22" cy="58.37" rx="4.81" ry="9.38" transform="translate(-.08 .08) rotate(-.08)"/>
        <path class="cls-16" d="M59.02,58.37c0,5.18-2.14,9.39-4.79,9.39l-.03-18.76c2.65,0,4.81,4.19,4.82,9.37h0Z"/>
        <path d="M50.27,63.83c-.1,0-.19-.06-.23-.16-.57-1.59-.87-3.46-.87-5.4,0-.66,.03-1.32,.1-1.97,0-.13,.12-.23,.27-.21,.13,0,.23,.13,.21,.27-.07,.63-.1,1.28-.1,1.92,0,1.89,.29,3.7,.84,5.24,.04,.13-.02,.26-.15,.31-.03,0-.05,0-.08,0h0Z"/>
        <path d="M54.23,67.88c-1.39,0-2.68-1.04-3.64-2.92-.06-.12,0-.26,.11-.33,.12-.06,.26,0,.33,.11,.87,1.71,2.01,2.65,3.2,2.65h0c2.52,0,4.56-4.11,4.55-9.14,0-5.04-2.06-9.13-4.57-9.13h0c-1.74,0-3.36,2.06-4.11,5.24-.03,.13-.16,.21-.29,.18-.13-.03-.21-.16-.18-.29,.82-3.46,2.58-5.61,4.58-5.61h0c2.78,0,5.05,4.31,5.06,9.62,0,5.3-2.25,9.62-5.04,9.63h0Z"/>
        <g>
          <path class="cls-13" d="M48.53,60.11c-.11,0-.21-.08-.23-.19-.03-.13,.06-.26,.19-.28l1.89-.39c.13-.03,.26,.06,.28,.19,.03,.13-.06,.26-.19,.28l-1.89,.39h-.05Z"/>
          <path class="cls-13" d="M48.66,61.2c-.11,0-.21-.08-.23-.19-.03-.13,.05-.26,.18-.29l2.23-.5c.15-.03,.26,.05,.29,.18,.03,.13-.05,.26-.18,.29l-2.24,.5h-.05Z"/>
        </g>
        <g>
          <circle class="cls-16" cx="54.25" cy="64.44" r=".8"/>
          <circle class="cls-16" cx="53.47" cy="63.15" r=".14"/>
          <circle class="cls-16" cx="52.79" cy="63.95" r=".24"/>
          <circle class="cls-16" cx="52.75" cy="65.12" r=".55"/>
        </g>
        <g>
          <circle class="cls-2" cx="54.67" cy="51.42" r=".62"/>
          <circle class="cls-2" cx="56.37" cy="51.21" r=".11"/>
          <circle class="cls-2" cx="55.84" cy="51.84" r=".19"/>
          <circle class="cls-2" cx="55.8" cy="52.76" r=".43"/>
        </g>
        <circle class="cls-13" cx="49.65" cy="55.3" r=".28"/>
        <g>
          <path class="cls-5" d="M50.72,55.33s-.06,0-.1,0c-.24-.05-.4-.29-.34-.54,.14-.62,.3-1.21,.5-1.76,.08-.23,.34-.35,.58-.27,.23,.08,.36,.34,.27,.58-.19,.52-.34,1.07-.47,1.65-.05,.21-.23,.35-.44,.35h0Z"/>
          <ellipse class="cls-5" cx="51.83" cy="52.09" rx=".52" ry=".35" transform="translate(-19.17 71.03) rotate(-60.08)"/>
        </g>
      </g>
      <g class="cls-17">
        <path class="cls-10" d="M22.16,33.12c0,2.62-2.05,4.77-4.66,4.91H7.55c-.24,0-.48-.01-.71-.03C2.69,37.61-.36,33.92,.04,29.77c.39-4.15,4.08-7.2,8.23-6.8,3.23,.31,5.91,2.65,6.64,5.81,2.39-1.29,5.38-.39,6.67,2,.39,.72,.59,1.52,.59,2.33h-.01Z"/>
        <path class="cls-10" d="M7.55,38.04h-.72v-.03c.24,.02,.47,.03,.72,.03Z"/>
      </g>
      <g class="cls-17">
        <path class="cls-10" d="M39.65,17.29c0,2.62-2.05,4.77-4.66,4.91h-9.95c-.24,0-.48-.01-.71-.03-4.15-.39-7.2-4.08-6.8-8.23,.39-4.15,4.08-7.2,8.23-6.8,3.23,.31,5.91,2.65,6.64,5.81,2.39-1.29,5.38-.39,6.67,2,.39,.72,.59,1.52,.59,2.33h0Z"/>
        <path class="cls-10" d="M25.04,22.21h-.72v-.03c.24,.02,.47,.03,.72,.03Z"/>
      </g>
      <path class="cls-6" d="M3.5,14.69v23.12h14.34V14.69H3.5Zm12.99,11.17H4.99v-7.38h11.5v7.38Z"/>
      <rect class="cls-3" x="3.5" y="14.69" width="14.34" height="1.35"/>
      <rect class="cls-6" x="3.5" y="50.75" width="14.34" height="22.27"/>
      <rect class="cls-3" x="3.5" y="45.19" width="14.34" height="23.25"/>
      <rect class="cls-3" x="3.5" y="27.18" width="14.34" height="1.09"/>
      <rect class="cls-4" x="3.68" y="30.01" width="14.48" height="36.31"/>
      <rect class="cls-6" x="3.5" y="30.28" width="14.34" height="2.68"/>
      <rect class="cls-1" x="3.5" y="30.28" width="14.34" height=".78"/>
      <path class="cls-12" d="M18.13,66.25h-2.41v-11.07c0-1.33,1.08-2.41,2.41-2.41h0v13.48h0Z"/>
      <path class="cls-8" d="M3.37,34.79v6.62c0,.77,.68,1.51,1.48,1.48s1.48-.65,1.48-1.48v-6.62c0-.77-.68-1.51-1.48-1.48s-1.48,.65-1.48,1.48h0Z"/>
      <path class="cls-7" d="M3.37,36.37v3.55c0,.38,.16,.78,.43,1.05s.68,.45,1.05,.43c.8-.04,1.48-.65,1.48-1.48v-3.55c0-.38-.16-.78-.43-1.05s-.68-.45-1.05-.43c-.8,.04-1.48,.65-1.48,1.48h0Z"/>
      <g>
        <path class="cls-13" d="M.92,69.96c-.13,0-.24-.11-.24-.24s.11-.24,.24-.24l4.63-.03h0c.13,0,.24,.11,.24,.24s-.11,.24-.24,.24l-4.63,.03H.92Z"/>
        <path class="cls-13" d="M1.84,70.91c-.13,0-.24-.11-.24-.24s.11-.24,.24-.24l4.63-.02h0c.13,0,.24,.11,.24,.24s-.11,.24-.24,.24l-4.63,.02h0Z"/>
      </g>
      <path d="M17.98,66.64c-.13,0-.24-.11-.24-.24V30.53H3.74v35.87c0,.13-.11,.24-.24,.24s-.24-.11-.24-.24V30.28c0-.13,.11-.24,.24-.24h14.48c.13,0,.24,.11,.24,.24v36.12c0,.13-.11,.24-.24,.24Z"/>
      <path d="M17.98,66.73H9.6c-.19,0-.34-.15-.34-.34s.15-.34,.34-.34h8.04V30.62H3.84v35.43h3.97c.19,0,.34,.15,.34,.34s-.15,.34-.34,.34H3.5c-.19,0-.34-.15-.34-.34V30.27c0-.19,.15-.34,.34-.34h14.48c.19,0,.34,.15,.34,.34v36.12c0,.19-.15,.34-.34,.34Z"/>
      <path d="M17.98,73.33H3.5c-.19,0-.34-.15-.34-.34v-6.6c0-.19,.15-.34,.34-.34H7.7c.19,0,.34,.15,.34,.34s-.15,.34-.34,.34H3.84v5.92h13.8v-5.92h-5.85c-.19,0-.34-.15-.34-.34s.15-.34,.34-.34h6.19c.19,0,.34,.15,.34,.34v6.6c0,.19-.15,.34-.34,.34Z"/>
      <path d="M17.98,16.89H3.5c-.13,0-.24-.11-.24-.24v-1.96c0-.13,.11-.24,.24-.24h14.48c.13,0,.24,.11,.24,.24v1.96c0,.13-.11,.24-.24,.24Zm-14.24-.48h14v-1.47H3.74v1.47Z"/>
      <path d="M17.98,33.14H3.5c-.13,0-.24-.11-.24-.24s.11-.24,.24-.24h14.48c.13,0,.24,.11,.24,.24s-.11,.24-.24,.24Z"/>
      <path d="M20.49,30.52H.99c-.13,0-.24-.11-.24-.24s.11-.24,.24-.24H20.49c.13,0,.24,.11,.24,.24s-.11,.24-.24,.24Z"/>
      <path d="M18.51,68.05H.99c-.13,0-.24-.11-.24-.24s.11-.24,.24-.24H18.51c.13,0,.24,.11,.24,.24s-.11,.24-.24,.24Z"/>
      <path d="M20.49,16.99H.99c-.19,0-.34-.15-.34-.34s.15-.34,.34-.34H20.49c.19,0,.34,.15,.34,.34s-.15,.34-.34,.34Z"/>
      <path d="M19.64,17.76H1.84c-.11,0-.19-.09-.19-.19s.09-.19,.19-.19H19.64c.11,0,.19,.09,.19,.19s-.09,.19-.19,.19Z"/>
      <path d="M19.64,29.47H7.3c-.11,0-.19-.09-.19-.19s.09-.19,.19-.19h12.34c.11,0,.19,.09,.19,.19s-.09,.19-.19,.19Z"/>
      <path d="M6.47,29.47H1.84c-.11,0-.19-.09-.19-.19s.09-.19,.19-.19H6.47c.11,0,.19,.09,.19,.19s-.09,.19-.19,.19Z"/>
      <path d="M17.98,27.42h-3.17c-.13,0-.24-.11-.24-.24s.11-.24,.24-.24h3.17c.13,0,.24,.11,.24,.24s-.11,.24-.24,.24Z"/>
      <path d="M13.77,27.42H3.5c-.13,0-.24-.11-.24-.24s.11-.24,.24-.24H13.77c.13,0,.24,.11,.24,.24s-.11,.24-.24,.24Z"/>
      <path d="M17.98,30.62H3.5c-.19,0-.34-.15-.34-.34v-7.56c0-.19,.15-.34,.34-.34s.34,.15,.34,.34v7.22h13.8v-12.95H7.98c-.19,0-.34-.15-.34-.34s.15-.34,.34-.34h10c.19,0,.34,.15,.34,.34v13.63c0,.19-.15,.34-.34,.34Z"/>
      <path d="M3.5,22.02c-.19,0-.34-.15-.34-.34v-5.04c0-.19,.15-.34,.34-.34h3.51c.19,0,.34,.15,.34,.34s-.15,.34-.34,.34H3.84v4.7c0,.19-.15,.34-.34,.34Z"/>
      <polygon class="cls-9" points="10.67 .33 14.88 7.61 19.08 14.9 10.67 14.9 2.25 14.9 6.46 7.61 10.67 .33"/>
      <path d="M16.49,26.1H4.99c-.13,0-.24-.11-.24-.24v-7.38c0-.13,.11-.24,.24-.24h11.5c.13,0,.24,.11,.24,.24v7.38c0,.13-.11,.24-.24,.24Zm-11.26-.48h11.02v-6.89H5.23v6.89Z"/>
      <g>
        <path d="M6.66,26.01c-.21,0-.39-.17-.39-.39v-6.98c0-.21,.17-.39,.39-.39s.39,.17,.39,.39v6.98c0,.21-.17,.39-.39,.39Z"/>
        <path d="M8.29,26.01c-.21,0-.39-.17-.39-.39v-6.98c0-.21,.17-.39,.39-.39s.39,.17,.39,.39v6.98c0,.21-.17,.39-.39,.39Z"/>
        <path d="M13.18,26.01c-.21,0-.39-.17-.39-.39v-6.98c0-.21,.17-.39,.39-.39s.39,.17,.39,.39v6.98c0,.21-.17,.39-.39,.39Z"/>
        <path d="M14.81,26.01c-.21,0-.39-.17-.39-.39v-6.98c0-.21,.17-.39,.39-.39s.39,.17,.39,.39v6.98c0,.21-.17,.39-.39,.39Z"/>
        <path d="M9.92,26.01c-.21,0-.39-.17-.39-.39v-6.98c0-.21,.17-.39,.39-.39s.39,.17,.39,.39v6.98c0,.21-.17,.39-.39,.39Z"/>
        <path d="M11.55,26.01c-.21,0-.39-.17-.39-.39v-6.98c0-.21,.17-.39,.39-.39s.39,.17,.39,.39v6.98c0,.21-.17,.39-.39,.39Z"/>
      </g>
      <g>
        <path d="M6.66,33.11c-.11,0-.19-.09-.19-.19v-2.43c0-.11,.09-.19,.19-.19s.19,.09,.19,.19v2.43c0,.11-.09,.19-.19,.19Z"/>
        <path d="M8.29,33.11c-.11,0-.19-.09-.19-.19v-.67c0-.11,.09-.19,.19-.19s.19,.09,.19,.19v.67c0,.11-.09,.19-.19,.19Z"/>
        <path d="M8.29,31.75c-.11,0-.19-.09-.19-.19v-1.07c0-.11,.09-.19,.19-.19s.19,.09,.19,.19v1.07c0,.11-.09,.19-.19,.19Z"/>
        <path d="M13.18,33.11h0c-.11,0-.19-.09-.19-.19v-1.36c0-.11,.09-.19,.2-.19h0c.11,0,.19,.09,.19,.19v1.36c0,.11-.09,.19-.2,.19Z"/>
        <path d="M13.18,31.12c-.11,0-.19-.09-.19-.19v-.44c0-.11,.09-.19,.19-.19s.19,.09,.19,.19v.44c0,.11-.09,.19-.19,.19Z"/>
        <path d="M14.81,33.11c-.11,0-.19-.09-.19-.19v-2.43c0-.11,.09-.19,.19-.19s.19,.09,.19,.19v2.43c0,.11-.09,.19-.19,.19Z"/>
        <path d="M9.92,33.11c-.11,0-.19-.09-.19-.19v-2.43c0-.11,.09-.19,.19-.19s.19,.09,.19,.19v2.43c0,.11-.09,.19-.19,.19Z"/>
        <path d="M11.55,33.11c-.11,0-.19-.09-.19-.19v-2.43c0-.11,.09-.19,.19-.19s.19,.09,.19,.19v2.43c0,.11-.09,.19-.19,.19Z"/>
      </g>
      <path class="cls-11" d="M16.07,36.3v26.02c0,.59-.48,1.06-1.06,1.06-.13,0-.25-.03-.37-.08,.4-.14,.69-.53,.69-.98v-26.02c0-.46-.29-.84-.69-.98,.12-.05,.25-.08,.37-.08,.59,0,1.06,.48,1.06,1.06Z"/>
      <path class="cls-11" d="M7.53,36.3v26.02c0,.59-.48,1.06-1.06,1.06-.13,0-.25-.03-.37-.08,.4-.14,.69-.53,.69-.98v-26.02c0-.46-.29-.84-.69-.98,.12-.05,.25-.08,.37-.08,.59,0,1.06,.48,1.06,1.06Z"/>
      <path class="cls-11" d="M11.8,36.3v26.02c0,.59-.48,1.06-1.06,1.06-.13,0-.25-.03-.37-.08,.4-.14,.69-.53,.69-.98v-26.02c0-.46-.29-.84-.69-.98,.12-.05,.25-.08,.37-.08,.59,0,1.06,.48,1.06,1.06Z"/>
      <path d="M6.47,63.47c-.69,0-1.25-.56-1.25-1.25v-7.53c0-.11,.09-.19,.19-.19s.19,.09,.19,.19v7.53c0,.48,.39,.87,.87,.87s.87-.39,.87-.87v-26.02c0-.48-.39-.87-.87-.87s-.87,.39-.87,.87v17.36c0,.11-.09,.19-.19,.19s-.19-.09-.19-.19v-17.36c0-.69,.56-1.25,1.25-1.25s1.25,.56,1.25,1.25v26.02c0,.69-.56,1.25-1.25,1.25Z"/>
      <path d="M10.74,63.47c-.69,0-1.25-.56-1.25-1.25v-20.47c0-.11,.09-.19,.19-.19s.19,.09,.19,.19v20.47c0,.48,.39,.87,.87,.87s.87-.39,.87-.87v-26.02c0-.48-.39-.87-.87-.87s-.87,.39-.87,.87v4.59c0,.11-.09,.19-.19,.19s-.19-.09-.19-.19v-4.59c0-.69,.56-1.25,1.25-1.25s1.25,.56,1.25,1.25v26.02c0,.69-.56,1.25-1.25,1.25Z"/>
      <path d="M15.01,63.47c-.69,0-1.25-.56-1.25-1.25v-14.85c0-.11,.09-.19,.19-.19s.19,.09,.19,.19v14.85c0,.48,.39,.87,.87,.87s.87-.39,.87-.87v-26.02c0-.48-.39-.87-.87-.87s-.87,.39-.87,.87v9.88c0,.11-.09,.19-.19,.19s-.19-.09-.19-.19v-9.88c0-.69,.56-1.25,1.25-1.25s1.25,.56,1.25,1.25v26.02c0,.69-.56,1.25-1.25,1.25Z"/>
      <g>
        <path d="M6.47,38.96c-.11,0-.19-.09-.19-.19v-1.93c0-.11,.09-.19,.19-.19s.19,.09,.19,.19v1.93c0,.11-.09,.19-.19,.19Z"/>
        <path d="M6.47,61.41c-.11,0-.19-.09-.19-.19v-1.93c0-.11,.09-.19,.19-.19s.19,.09,.19,.19v1.93c0,.11-.09,.19-.19,.19Z"/>
        <path d="M6.47,53.93c-.11,0-.19-.09-.19-.19v-1.93c0-.11,.09-.19,.19-.19s.19,.09,.19,.19v1.93c0,.11-.09,.19-.19,.19Z"/>
        <path d="M6.47,46.45c-.11,0-.19-.09-.19-.19v-1.93c0-.11,.09-.19,.19-.19s.19,.09,.19,.19v1.93c0,.11-.09,.19-.19,.19Z"/>
      </g>
      <g>
        <path d="M10.74,38.96c-.11,0-.19-.09-.19-.19v-1.93c0-.11,.09-.19,.19-.19s.19,.09,.19,.19v1.93c0,.11-.09,.19-.19,.19Z"/>
        <path d="M10.74,61.41c-.11,0-.19-.09-.19-.19v-1.93c0-.11,.09-.19,.19-.19s.19,.09,.19,.19v1.93c0,.11-.09,.19-.19,.19Z"/>
        <path d="M10.74,53.93c-.11,0-.19-.09-.19-.19v-1.93c0-.11,.09-.19,.19-.19s.19,.09,.19,.19v1.93c0,.11-.09,.19-.19,.19Z"/>
        <path d="M10.74,46.45c-.11,0-.19-.09-.19-.19v-1.93c0-.11,.09-.19,.19-.19s.19,.09,.19,.19v1.93c0,.11-.09,.19-.19,.19Z"/>
      </g>
      <g>
        <path d="M15.01,38.96c-.11,0-.19-.09-.19-.19v-1.93c0-.11,.09-.19,.19-.19s.19,.09,.19,.19v1.93c0,.11-.09,.19-.19,.19Z"/>
        <path d="M15.01,61.41c-.11,0-.19-.09-.19-.19v-1.93c0-.11,.09-.19,.19-.19s.19,.09,.19,.19v1.93c0,.11-.09,.19-.19,.19Z"/>
        <path d="M15.01,53.93c-.11,0-.19-.09-.19-.19v-1.93c0-.11,.09-.19,.19-.19s.19,.09,.19,.19v1.93c0,.11-.09,.19-.19,.19Z"/>
        <path d="M15.01,46.45c-.11,0-.19-.09-.19-.19v-1.93c0-.11,.09-.19,.19-.19s.19,.09,.19,.19v1.93c0,.11-.09,.19-.19,.19Z"/>
      </g>
      <polygon class="cls-14" points="19.08 14.81 2.25 14.81 2.89 13.69 18.44 13.69 19.08 14.81"/>
      <path d="M19.09,15.25H2.25c-.12,0-.23-.07-.29-.17s-.06-.23,0-.34L10.38,.16c.12-.21,.47-.21,.59,0l3.28,5.68c.09,.16,.04,.37-.12,.46s-.37,.04-.46-.12L10.69,1.01,2.86,14.57h15.66l-2.01-3.47c-.09-.16-.04-.37,.12-.46,.16-.1,.37-.04,.46,.12l2.3,3.99c.06,.11,.06,.23,0,.34s-.17,.17-.29,.17h0Z"/>
      <path d="M16.07,10.03c-.12,0-.23-.06-.29-.17l-1.53-2.64c-.09-.16-.04-.37,.12-.47,.16-.09,.37-.04,.47,.12l1.53,2.64c.09,.16,.04,.37-.12,.46-.05,.03-.11,.05-.17,.05h-.01Z"/>
      <path d="M16.92,13.89H4.42c-.09,0-.17-.05-.21-.12-.04-.08-.04-.17,0-.24L10.46,2.7c.09-.15,.33-.15,.42,0l.63,1.09c.07,.12,.03,.26-.09,.33-.11,.07-.26,.03-.33-.09l-.42-.73L4.84,13.4h11.66L11.52,4.77c-.07-.12-.03-.26,.09-.33,.12-.07,.26-.03,.33,.09l5.19,8.99c.04,.08,.04,.17,0,.24-.04,.08-.12,.12-.21,.12h0Z"/>
      <g class="cls-17">
        <path class="cls-10" d="M63.62,34.42c0,2.62-2.05,4.77-4.66,4.91h-9.95c-.24,0-.48-.01-.71-.03-4.15-.39-7.2-4.08-6.8-8.23,.39-4.15,4.08-7.2,8.23-6.8,3.23,.31,5.91,2.65,6.64,5.81,2.39-1.29,5.38-.39,6.67,2,.39,.72,.59,1.52,.59,2.33h0Z"/>
        <path class="cls-10" d="M49.02,39.34h-.72v-.03c.24,.02,.47,.03,.72,.03Z"/>
      </g>
      <path class="cls-6" d="M56.64,14.69v23.12h14.34V14.69h-14.34Zm12.99,11.17h-11.5v-7.38h11.5v7.38Z"/>
      <rect class="cls-3" x="56.64" y="14.69" width="14.34" height="1.35"/>
      <rect class="cls-6" x="56.64" y="50.75" width="14.34" height="22.27"/>
      <rect class="cls-3" x="56.64" y="45.19" width="14.34" height="23.25"/>
      <rect class="cls-3" x="56.64" y="27.18" width="14.34" height="1.09"/>
      <rect class="cls-4" x="56.83" y="30.01" width="14.48" height="36.31"/>
      <rect class="cls-6" x="56.64" y="30.28" width="14.34" height="2.68"/>
      <rect class="cls-1" x="56.64" y="30.28" width="14.34" height=".78"/>
      <path class="cls-12" d="M71.27,66.25h-2.41v-11.07c0-1.33,1.08-2.41,2.41-2.41h0v13.48h0Z"/>
      <path class="cls-8" d="M56.51,34.79v6.62c0,.77,.68,1.51,1.48,1.48s1.48-.65,1.48-1.48v-6.62c0-.77-.68-1.51-1.48-1.48s-1.48,.65-1.48,1.48h0Z"/>
      <path class="cls-7" d="M56.51,36.37v3.55c0,.38,.16,.78,.43,1.05s.68,.45,1.05,.43c.8-.04,1.48-.65,1.48-1.48v-3.55c0-.38-.16-.78-.43-1.05s-.68-.45-1.05-.43c-.8,.04-1.48,.65-1.48,1.48h0Z"/>
      <g>
        <path class="cls-13" d="M67.75,64.66c-.13,0-.24-.11-.24-.24s.11-.24,.24-.24l4.63-.03h0c.13,0,.24,.11,.24,.24s-.11,.24-.24,.24l-4.63,.03h0Z"/>
        <path class="cls-13" d="M68.66,65.61c-.13,0-.24-.11-.24-.24s.11-.24,.24-.24l4.63-.02h0c.13,0,.24,.11,.24,.24s-.11,.24-.24,.24l-4.63,.02h0Z"/>
      </g>
      <g>
        <path class="cls-13" d="M26.52,71.46c-.13,0-.24-.11-.24-.24l-.02-4.63c0-.13,.11-.24,.24-.24h0c.13,0,.24,.11,.24,.24l.02,4.63c0,.13-.11,.24-.24,.24h0Z"/>
        <path class="cls-13" d="M27.47,70.54c-.13,0-.24-.11-.24-.24l-.02-4.63c0-.13,.11-.24,.24-.24h0c.13,0,.24,.11,.24,.24l.02,4.63c0,.13-.11,.24-.24,.24h0Z"/>
      </g>
      <g>
        <path class="cls-13" d="M47.18,71c-.13,0-.24-.11-.24-.24l-.02-4.63c0-.13,.11-.24,.24-.24h0c.13,0,.24,.11,.24,.24l.02,4.63c0,.13-.11,.24-.24,.24h0Z"/>
        <path class="cls-13" d="M48.14,70.08c-.13,0-.24-.11-.24-.24l-.03-4.63c0-.13,.11-.24,.24-.24h0c.13,0,.24,.11,.24,.24l.03,4.63c0,.13-.11,.24-.24,.24h0Z"/>
      </g>
      <path d="M71.12,66.64c-.13,0-.24-.11-.24-.24V30.53h-14v35.87c0,.13-.11,.24-.24,.24s-.24-.11-.24-.24V30.28c0-.13,.11-.24,.24-.24h14.48c.13,0,.24,.11,.24,.24v36.12c0,.13-.11,.24-.24,.24h0Z"/>
      <path d="M71.12,66.73h-8.38c-.19,0-.34-.15-.34-.34s.15-.34,.34-.34h8.04V30.62h-13.8v35.43h3.97c.19,0,.34,.15,.34,.34s-.15,.34-.34,.34h-4.31c-.19,0-.34-.15-.34-.34V30.27c0-.19,.15-.34,.34-.34h14.48c.19,0,.34,.15,.34,.34v36.12c0,.19-.15,.34-.34,.34h0Z"/>
      <path d="M71.12,73.33h-14.48c-.19,0-.34-.15-.34-.34v-6.6c0-.19,.15-.34,.34-.34h4.2c.19,0,.34,.15,.34,.34s-.15,.34-.34,.34h-3.86v5.92h13.8v-5.92h-8.8c-.19,0-.34-.15-.34-.34s.15-.34,.34-.34h9.15c.19,0,.34,.15,.34,.34v6.6c0,.19-.15,.34-.34,.34h0Z"/>
      <path d="M71.12,16.89h-14.48c-.13,0-.24-.11-.24-.24v-1.96c0-.13,.11-.24,.24-.24h14.48c.13,0,.24,.11,.24,.24v1.96c0,.13-.11,.24-.24,.24Zm-14.24-.48h14v-1.47h-14v1.47Z"/>
      <path d="M71.12,33.14h-14.48c-.13,0-.24-.11-.24-.24s.11-.24,.24-.24h14.48c.13,0,.24,.11,.24,.24s-.11,.24-.24,.24Z"/>
      <path d="M73.63,30.52h-19.5c-.13,0-.24-.11-.24-.24s.11-.24,.24-.24h19.5c.13,0,.24,.11,.24,.24s-.11,.24-.24,.24Z"/>
      <path d="M73.63,68.05h-17.52c-.13,0-.24-.11-.24-.24s.11-.24,.24-.24h17.52c.13,0,.24,.11,.24,.24s-.11,.24-.24,.24Z"/>
      <path d="M73.63,16.99h-19.5c-.19,0-.34-.15-.34-.34s.15-.34,.34-.34h19.5c.19,0,.34,.15,.34,.34s-.15,.34-.34,.34Z"/>
      <path d="M72.78,17.76h-17.8c-.11,0-.19-.09-.19-.19s.09-.19,.19-.19h17.8c.11,0,.19,.09,.19,.19s-.09,.19-.19,.19Z"/>
      <path d="M72.78,29.47h-12.34c-.11,0-.19-.09-.19-.19s.09-.19,.19-.19h12.34c.11,0,.19,.09,.19,.19s-.09,.19-.19,.19Z"/>
      <path d="M59.61,29.47h-4.63c-.11,0-.19-.09-.19-.19s.09-.19,.19-.19h4.63c.11,0,.19,.09,.19,.19s-.09,.19-.19,.19Z"/>
      <path d="M71.12,27.42h-3.17c-.13,0-.24-.11-.24-.24s.11-.24,.24-.24h3.17c.13,0,.24,.11,.24,.24s-.11,.24-.24,.24Z"/>
      <path d="M66.91,27.42h-10.27c-.13,0-.24-.11-.24-.24s.11-.24,.24-.24h10.27c.13,0,.24,.11,.24,.24s-.11,.24-.24,.24Z"/>
      <path d="M71.12,30.62h-14.48c-.19,0-.34-.15-.34-.34v-7.56c0-.19,.15-.34,.34-.34s.34,.15,.34,.34v7.22h13.8v-12.95h-9.66c-.19,0-.34-.15-.34-.34s.15-.34,.34-.34h10c.19,0,.34,.15,.34,.34v13.63c0,.19-.15,.34-.34,.34Z"/>
      <path d="M56.64,21.92c-.13,0-.24-.11-.24-.24v-5.04c0-.13,.11-.24,.24-.24h3.51c.13,0,.24,.11,.24,.24s-.11,.24-.24,.24h-3.27v4.79c0,.13-.11,.24-.24,.24h0Z"/>
      <polygon class="cls-9" points="63.81 .33 68.02 7.61 72.23 14.9 63.81 14.9 55.39 14.9 59.6 7.61 63.81 .33"/>
      <path d="M69.63,26.1h-11.5c-.13,0-.24-.11-.24-.24v-7.38c0-.13,.11-.24,.24-.24h11.5c.13,0,.24,.11,.24,.24v7.38c0,.13-.11,.24-.24,.24Zm-11.26-.48h11.02v-6.89h-11.02v6.89Z"/>
      <g>
        <path d="M59.81,26.01c-.21,0-.39-.17-.39-.39v-6.98c0-.21,.17-.39,.39-.39s.39,.17,.39,.39v6.98c0,.21-.17,.39-.39,.39Z"/>
        <path d="M61.44,26.01c-.21,0-.39-.17-.39-.39v-6.98c0-.21,.17-.39,.39-.39s.39,.17,.39,.39v6.98c0,.21-.17,.39-.39,.39Z"/>
        <path d="M66.33,26.01c-.21,0-.39-.17-.39-.39v-6.98c0-.21,.17-.39,.39-.39s.39,.17,.39,.39v6.98c0,.21-.17,.39-.39,.39Z"/>
        <path d="M67.96,26.01c-.21,0-.39-.17-.39-.39v-6.98c0-.21,.17-.39,.39-.39s.39,.17,.39,.39v6.98c0,.21-.17,.39-.39,.39Z"/>
        <path d="M63.07,26.01c-.21,0-.39-.17-.39-.39v-6.98c0-.21,.17-.39,.39-.39s.39,.17,.39,.39v6.98c0,.21-.17,.39-.39,.39Z"/>
        <path d="M64.7,26.01c-.21,0-.39-.17-.39-.39v-6.98c0-.21,.17-.39,.39-.39s.39,.17,.39,.39v6.98c0,.21-.17,.39-.39,.39Z"/>
      </g>
      <g>
        <path d="M59.81,33.11c-.11,0-.19-.09-.19-.19v-2.43c0-.11,.09-.19,.19-.19s.19,.09,.19,.19v2.43c0,.11-.09,.19-.19,.19Z"/>
        <path d="M61.44,33.11c-.11,0-.19-.09-.19-.19v-.67c0-.11,.09-.19,.19-.19s.19,.09,.19,.19v.67c0,.11-.09,.19-.19,.19Z"/>
        <path d="M61.44,31.75c-.11,0-.19-.09-.19-.19v-1.07c0-.11,.09-.19,.19-.19s.19,.09,.19,.19v1.07c0,.11-.09,.19-.19,.19Z"/>
        <path d="M66.33,33.11h0c-.11,0-.19-.09-.19-.19v-1.36c0-.11,.09-.19,.2-.19h0c.11,0,.19,.09,.19,.19v1.36c0,.11-.09,.19-.2,.19Z"/>
        <path d="M66.33,31.12c-.11,0-.19-.09-.19-.19v-.44c0-.11,.09-.19,.19-.19s.19,.09,.19,.19v.44c0,.11-.09,.19-.19,.19Z"/>
        <path d="M67.96,33.11c-.11,0-.19-.09-.19-.19v-2.43c0-.11,.09-.19,.19-.19s.19,.09,.19,.19v2.43c0,.11-.09,.19-.19,.19Z"/>
        <path d="M63.07,33.11c-.11,0-.19-.09-.19-.19v-2.43c0-.11,.09-.19,.19-.19s.19,.09,.19,.19v2.43c0,.11-.09,.19-.19,.19Z"/>
        <path d="M64.7,33.11c-.11,0-.19-.09-.19-.19v-2.43c0-.11,.09-.19,.19-.19s.19,.09,.19,.19v2.43c0,.11-.09,.19-.19,.19Z"/>
      </g>
      <path class="cls-11" d="M69.21,36.3v26.02c0,.59-.48,1.06-1.06,1.06-.13,0-.25-.03-.37-.08,.4-.14,.69-.53,.69-.98v-26.02c0-.46-.29-.84-.69-.98,.12-.05,.25-.08,.37-.08,.59,0,1.06,.48,1.06,1.06Z"/>
      <path class="cls-11" d="M60.67,36.3v26.02c0,.59-.48,1.06-1.06,1.06-.13,0-.25-.03-.37-.08,.4-.14,.69-.53,.69-.98v-26.02c0-.46-.29-.84-.69-.98,.12-.05,.25-.08,.37-.08,.59,0,1.06,.48,1.06,1.06Z"/>
      <path class="cls-11" d="M64.94,36.3v26.02c0,.59-.48,1.06-1.06,1.06-.13,0-.25-.03-.37-.08,.4-.14,.69-.53,.69-.98v-26.02c0-.46-.29-.84-.69-.98,.12-.05,.25-.08,.37-.08,.59,0,1.06,.48,1.06,1.06Z"/>
      <path d="M59.61,63.47c-.69,0-1.25-.56-1.25-1.25v-7.53c0-.11,.09-.19,.19-.19s.19,.09,.19,.19v7.53c0,.48,.39,.87,.87,.87s.87-.39,.87-.87v-26.02c0-.48-.39-.87-.87-.87s-.87,.39-.87,.87v17.36c0,.11-.09,.19-.19,.19s-.19-.09-.19-.19v-17.36c0-.69,.56-1.25,1.25-1.25s1.25,.56,1.25,1.25v26.02c0,.69-.56,1.25-1.25,1.25Z"/>
      <path d="M63.88,63.47c-.69,0-1.25-.56-1.25-1.25v-20.47c0-.11,.09-.19,.19-.19s.19,.09,.19,.19v20.47c0,.48,.39,.87,.87,.87s.87-.39,.87-.87v-26.02c0-.48-.39-.87-.87-.87s-.87,.39-.87,.87v4.59c0,.11-.09,.19-.19,.19s-.19-.09-.19-.19v-4.59c0-.69,.56-1.25,1.25-1.25s1.25,.56,1.25,1.25v26.02c0,.69-.56,1.25-1.25,1.25Z"/>
      <path d="M68.15,63.47c-.69,0-1.25-.56-1.25-1.25v-14.85c0-.11,.09-.19,.19-.19s.19,.09,.19,.19v14.85c0,.48,.39,.87,.87,.87s.87-.39,.87-.87v-26.02c0-.48-.39-.87-.87-.87s-.87,.39-.87,.87v9.88c0,.11-.09,.19-.19,.19s-.19-.09-.19-.19v-9.88c0-.69,.56-1.25,1.25-1.25s1.25,.56,1.25,1.25v26.02c0,.69-.56,1.25-1.25,1.25Z"/>
      <g>
        <path d="M59.61,38.96c-.11,0-.19-.09-.19-.19v-1.93c0-.11,.09-.19,.19-.19s.19,.09,.19,.19v1.93c0,.11-.09,.19-.19,.19Z"/>
        <path d="M59.61,61.41c-.11,0-.19-.09-.19-.19v-1.93c0-.11,.09-.19,.19-.19s.19,.09,.19,.19v1.93c0,.11-.09,.19-.19,.19Z"/>
        <path d="M59.61,53.93c-.11,0-.19-.09-.19-.19v-1.93c0-.11,.09-.19,.19-.19s.19,.09,.19,.19v1.93c0,.11-.09,.19-.19,.19Z"/>
        <path d="M59.61,46.45c-.11,0-.19-.09-.19-.19v-1.93c0-.11,.09-.19,.19-.19s.19,.09,.19,.19v1.93c0,.11-.09,.19-.19,.19Z"/>
      </g>
      <g>
        <path d="M63.88,38.96c-.11,0-.19-.09-.19-.19v-1.93c0-.11,.09-.19,.19-.19s.19,.09,.19,.19v1.93c0,.11-.09,.19-.19,.19Z"/>
        <path d="M63.88,61.41c-.11,0-.19-.09-.19-.19v-1.93c0-.11,.09-.19,.19-.19s.19,.09,.19,.19v1.93c0,.11-.09,.19-.19,.19Z"/>
        <path d="M63.88,53.93c-.11,0-.19-.09-.19-.19v-1.93c0-.11,.09-.19,.19-.19s.19,.09,.19,.19v1.93c0,.11-.09,.19-.19,.19Z"/>
        <path d="M63.88,46.45c-.11,0-.19-.09-.19-.19v-1.93c0-.11,.09-.19,.19-.19s.19,.09,.19,.19v1.93c0,.11-.09,.19-.19,.19Z"/>
      </g>
      <g>
        <path d="M68.15,38.96c-.11,0-.19-.09-.19-.19v-1.93c0-.11,.09-.19,.19-.19s.19,.09,.19,.19v1.93c0,.11-.09,.19-.19,.19Z"/>
        <path d="M68.15,61.41c-.11,0-.19-.09-.19-.19v-1.93c0-.11,.09-.19,.19-.19s.19,.09,.19,.19v1.93c0,.11-.09,.19-.19,.19Z"/>
        <path d="M68.15,53.93c-.11,0-.19-.09-.19-.19v-1.93c0-.11,.09-.19,.19-.19s.19,.09,.19,.19v1.93c0,.11-.09,.19-.19,.19Z"/>
        <path d="M68.15,46.45c-.11,0-.19-.09-.19-.19v-1.93c0-.11,.09-.19,.19-.19s.19,.09,.19,.19v1.93c0,.11-.09,.19-.19,.19Z"/>
      </g>
      <polygon class="cls-14" points="72.23 14.81 55.39 14.81 56.04 13.69 71.58 13.69 72.23 14.81"/>
      <path d="M72.23,15.25h-16.83c-.12,0-.23-.07-.29-.17s-.06-.23,0-.34L63.53,.16c.12-.21,.47-.21,.59,0l3.28,5.68c.09,.16,.04,.37-.12,.46-.16,.09-.37,.04-.46-.12l-2.98-5.17-7.83,13.56h15.66l-2.01-3.47c-.09-.16-.04-.37,.12-.46,.16-.1,.37-.04,.46,.12l2.3,3.99c.06,.11,.06,.23,0,.34s-.17,.17-.29,.17h-.02Z"/>
      <path d="M69.31,10.18c-.12,0-.23-.06-.29-.17l-1.62-2.81c-.09-.16-.04-.37,.12-.46,.16-.1,.37-.04,.46,.12l1.62,2.81c.09,.16,.04,.37-.12,.46-.05,.03-.11,.05-.17,.05h0Z"/>
      <path d="M70.06,13.89h-12.5c-.09,0-.17-.05-.21-.12-.04-.08-.04-.17,0-.24l6.25-10.83c.09-.15,.33-.15,.42,0l.63,1.09c.07,.12,.03,.26-.09,.33-.11,.07-.26,.03-.33-.09l-.42-.73-5.83,10.1h11.67l-4.98-8.63c-.07-.12-.03-.26,.09-.33s.26-.03,.33,.09l5.19,8.99c.04,.08,.04,.17,0,.24s-.12,.12-.21,.12h0Z"/>
      <path d="M55.17,72.82H19.43c-.13,0-.24-.11-.24-.24s.11-.24,.24-.24H55.17c.13,0,.24,.11,.24,.24s-.11,.24-.24,.24Z"/>
      <g>
        <path d="M42.31,71.4h-9.17c-.13,0-.24-.11-.24-.24s.11-.24,.24-.24h9.17c.13,0,.24,.11,.24,.24s-.11,.24-.24,.24Z"/>
        <path d="M38.64,70.45h-1.85c-.13,0-.24-.11-.24-.24s.11-.24,.24-.24h1.85c.13,0,.24,.11,.24,.24s-.11,.24-.24,.24Z"/>
      </g>
      <path d="M60.15,69.17H16.38c-.13,0-.24-.11-.24-.24s.11-.24,.24-.24H60.15c.13,0,.24,.11,.24,.24s-.11,.24-.24,.24Z"/>
      <g>
        <path d="M52.44,11.56h-.09c-.82-.05-1.45-.76-1.4-1.58,.02-.4,.2-.76,.5-1.03,.3-.26,.69-.4,1.08-.37,.82,.05,1.45,.76,1.4,1.58h0c-.05,.79-.71,1.4-1.49,1.4Zm0-2.51c-.25,0-.48,.09-.67,.25-.2,.18-.32,.43-.34,.7-.03,.56,.39,1.04,.95,1.07,.57,.02,1.04-.39,1.07-.95,.03-.56-.39-1.04-.95-1.07h-.06Z"/>
        <circle cx="54.6" cy="8.38" r=".47"/>
      </g>
      <g>
        <path d="M53.47,43.84c-.41,0-.83-.17-1.12-.5-.26-.3-.4-.68-.37-1.08,.02-.4,.2-.76,.5-1.03,.3-.26,.69-.4,1.08-.37,.4,.02,.76,.2,1.03,.5,.55,.62,.49,1.56-.13,2.11-.28,.25-.64,.38-.99,.38h0Zm0-2.52c-.24,0-.48,.08-.67,.25-.2,.18-.32,.43-.34,.7s.07,.53,.25,.73h0c.18,.2,.42,.32,.7,.34,.27,.03,.53-.07,.73-.25,.42-.37,.46-1.01,.09-1.43-.2-.23-.48-.34-.76-.34Z"/>
        <circle cx="53.13" cy="45.07" r=".47"/>
      </g>
      <circle cx="5.25" cy="3.71" r=".47"/>
      <g>
        <circle cx="23.09" cy="22.68" r=".47"/>
        <g>
          <path d="M21.54,24.49c-.06,0-.12-.02-.17-.07l-1.8-1.8c-.09-.09-.09-.25,0-.34,.09-.1,.25-.1,.34,0l1.8,1.8c.09,.09,.09,.25,0,.34-.05,.05-.11,.07-.17,.07Z"/>
          <path d="M19.74,24.49c-.06,0-.12-.02-.17-.07-.09-.09-.09-.25,0-.34l1.8-1.8c.09-.1,.25-.1,.34,0,.09,.09,.09,.25,0,.34l-1.8,1.8s-.11,.07-.17,.07Z"/>
        </g>
      </g>
    </g>
  </g>
</svg>