<?xml version="1.0" encoding="UTF-8"?>
<svg id="Layer_2" data-name="Layer 2" xmlns="http://www.w3.org/2000/svg" viewBox="0 0 61.9 79.29">
  <defs>
    <style>
      .cls-1 {
        fill: none;
      }

      .cls-2 {
        fill: #fac1c5;
      }

      .cls-3 {
        fill: #67f2a8;
      }

      .cls-4 {
        fill: #000201;
      }

      .cls-5 {
        fill: #f69472;
      }

      .cls-6 {
        fill: #fce080;
      }

      .cls-7 {
        fill: #fff;
      }

      .cls-8 {
        fill: #f5ca8b;
      }

      .cls-9 {
        fill: #ffe6c8;
      }

      .cls-10 {
        fill: #f2a747;
      }

      .cls-11 {
        fill: #edac59;
      }

      .cls-12 {
        fill: #99520a;
      }

      .cls-13 {
        fill: #b0dbee;
      }

      .cls-14 {
        fill: #db8014;
      }

      .cls-15 {
        fill: #dff5ff;
      }

      .cls-16 {
        fill: #d6872b;
      }

      .cls-17 {
        fill: #062438;
      }

      .cls-18 {
        fill: #062539;
      }

      .cls-19 {
        fill: #36cc7b;
      }

      .cls-20 {
        opacity: .26;
      }
    </style>
  </defs>
  <g id="Layer_2-2" data-name="Layer 2">
    <g>
      <g>
        <g>
          <path class="cls-15" d="M59.42,35.47c0,2.74-2.14,5-4.88,5.15h-10.42c-.25,0-.5,0-.75-.03-4.35-.41-7.54-4.27-7.13-8.62,.41-4.35,4.27-7.54,8.62-7.13,3.39,.32,6.19,2.77,6.96,6.09,2.51-1.35,5.64-.41,6.99,2.1,.4,.75,.61,1.59,.61,2.44h0Z"/>
          <path class="cls-15" d="M44.12,40.62h-.75v-.03c.25,.02,.5,.03,.75,.03Z"/>
        </g>
        <g>
          <path class="cls-15" d="M27.53,36.06c0,2.74-2.14,5-4.88,5.15H12.23c-.25,0-.5,0-.75-.03-4.35-.41-7.54-4.27-7.13-8.62,.41-4.35,4.27-7.54,8.62-7.13,3.39,.32,6.19,2.77,6.96,6.09,2.51-1.35,5.64-.41,6.99,2.1,.4,.75,.61,1.59,.61,2.44h0Z"/>
          <path class="cls-15" d="M12.22,41.22h-.75v-.03c.25,.02,.5,.03,.75,.03Z"/>
        </g>
        <g class="cls-20">
          <polygon class="cls-7" points="22.88 16.46 21.35 16.46 27.98 9.92 29.51 9.92 22.88 16.46"/>
          <polygon class="cls-7" points="20.06 16.46 18.52 16.46 25.16 9.92 26.69 9.92 20.06 16.46"/>
          <polygon class="cls-7" points="27.48 16.46 25.95 16.46 32.58 9.92 34.12 9.92 27.48 16.46"/>
          <path class="cls-18" d="M56.3,16.84H6.01c-.26,0-.46-.21-.46-.46s.21-.46,.46-.46H55.18l-5.45-5.45H17.47c-.26,0-.46-.21-.46-.46s.21-.46,.46-.46H49.92c.12,0,.24,.05,.33,.14l6.38,6.38c.13,.13,.17,.33,.1,.5-.07,.17-.24,.29-.43,.29v-.02Z"/>
          <g>
            <path class="cls-18" d="M25.22,16.38c-.06,0-.12-.02-.17-.07l-6.22-6.14c-.1-.1-.1-.25,0-.35,.09-.1,.25-.1,.35,0l6.22,6.14c.1,.1,.1,.25,0,.35-.05,.05-.11,.07-.17,.07h-.01Z"/>
            <path class="cls-18" d="M31.46,16.38c-.06,0-.12-.02-.17-.07l-6.22-6.14c-.1-.1-.1-.25,0-.35,.09-.1,.25-.1,.35,0l6.22,6.14c.1,.1,.1,.25,0,.35-.05,.05-.11,.07-.17,.07h-.01Z"/>
            <path class="cls-18" d="M37.69,16.38c-.06,0-.12-.02-.17-.07l-6.22-6.14c-.1-.1-.1-.25,0-.35,.09-.1,.25-.1,.35,0l6.22,6.14c.1,.1,.1,.25,0,.35-.05,.05-.11,.07-.17,.07h-.01Z"/>
            <path class="cls-18" d="M43.93,16.38c-.06,0-.12-.02-.17-.07l-6.22-6.14c-.1-.1-.1-.25,0-.35,.09-.1,.25-.1,.35,0l6.22,6.14c.1,.1,.1,.25,0,.35-.05,.05-.11,.07-.17,.07h-.01Z"/>
            <path class="cls-18" d="M50.17,16.38c-.06,0-.12-.02-.17-.07l-6.22-6.14c-.1-.1-.1-.25,0-.35,.09-.1,.25-.1,.35,0l6.22,6.14c.1,.1,.1,.25,0,.35-.05,.05-.11,.07-.17,.07h-.01Z"/>
          </g>
          <g>
            <path class="cls-18" d="M43.86,16.38c-.06,0-.13-.02-.17-.07-.1-.1-.09-.25,0-.35l6.22-6.14c.1-.1,.25-.09,.35,0,.1,.1,.09,.25,0,.35l-6.22,6.14s-.11,.07-.17,.07h-.01Z"/>
            <path class="cls-18" d="M37.63,16.38c-.06,0-.13-.02-.17-.07-.1-.1-.09-.25,0-.35l6.22-6.14c.1-.1,.25-.09,.35,0,.1,.1,.09,.25,0,.35l-6.22,6.14s-.11,.07-.17,.07h-.01Z"/>
            <path class="cls-18" d="M31.39,16.38c-.06,0-.13-.02-.17-.07-.1-.1-.09-.25,0-.35l6.22-6.14c.1-.1,.25-.09,.35,0,.1,.1,.09,.25,0,.35l-6.22,6.14s-.11,.07-.17,.07h-.01Z"/>
            <path class="cls-18" d="M25.16,16.38c-.06,0-.13-.02-.17-.07-.1-.1-.09-.25,0-.35l6.22-6.14c.1-.1,.25-.09,.35,0,.1,.1,.09,.25,0,.35l-6.22,6.14s-.11,.07-.17,.07h-.01Z"/>
            <path class="cls-18" d="M18.92,16.38c-.06,0-.13-.02-.17-.07-.1-.1-.09-.25,0-.35l6.22-6.14c.1-.1,.25-.09,.35,0,.1,.1,.09,.25,0,.35l-6.22,6.14s-.11,.07-.17,.07h-.01Z"/>
          </g>
          <g>
            <circle class="cls-7" cx="56.21" cy="16.22" r="3.09"/>
            <g>
              <path class="cls-18" d="M56.21,19.38c-1.74,0-3.15-1.41-3.15-3.15s1.41-3.15,3.15-3.15,3.15,1.41,3.15,3.15-1.41,3.15-3.15,3.15Zm0-5.81c-1.47,0-2.66,1.19-2.66,2.66s1.19,2.66,2.66,2.66,2.66-1.19,2.66-2.66-1.19-2.66-2.66-2.66Z"/>
              <path class="cls-18" d="M56.21,18.09c-1.03,0-1.86-.84-1.86-1.86s.84-1.86,1.86-1.86,1.86,.84,1.86,1.86-.84,1.86-1.86,1.86Zm0-3.43c-.87,0-1.57,.71-1.57,1.57s.71,1.57,1.57,1.57,1.57-.7,1.57-1.57-.71-1.57-1.57-1.57Z"/>
              <path class="cls-18" d="M56.21,19.38c-1.74,0-3.15-1.41-3.15-3.15s1.41-3.15,3.15-3.15,3.15,1.41,3.15,3.15-1.41,3.15-3.15,3.15Zm0-5.81c-1.47,0-2.66,1.19-2.66,2.66s1.19,2.66,2.66,2.66,2.66-1.19,2.66-2.66-1.19-2.66-2.66-2.66Z"/>
            </g>
          </g>
          <path class="cls-18" d="M8.35,15.51c-.16,0-.32-.08-.4-.24-.13-.22-.05-.5,.18-.63l7.51-4.24c.22-.13,.5-.05,.63,.18,.13,.22,.05,.5-.18,.63l-7.51,4.24c-.07,.04-.15,.06-.23,.06h0Z"/>
          <path class="cls-18" d="M56.21,49.23c-.26,0-.46-.21-.46-.46V20.93c0-.26,.21-.46,.46-.46s.46,.21,.46,.46v27.84c0,.26-.21,.46-.46,.46Z"/>
        </g>
        <g>
          <path class="cls-18" d="M54.74,74.02c-.26,0-.46-.21-.46-.46v-29.57c0-.26,.21-.46,.46-.46s.46,.21,.46,.46v29.57c0,.26-.21,.46-.46,.46Z"/>
          <path class="cls-18" d="M54.74,78.68c-.26,0-.46-.21-.46-.46v-3.09c0-.26,.21-.46,.46-.46s.46,.21,.46,.46v3.09c0,.26-.21,.46-.46,.46Z"/>
          <ellipse class="cls-3" cx="54.74" cy="58.84" rx="6.7" ry="13.08"/>
          <path class="cls-19" d="M61.44,58.84c0,7.22-3,13.08-6.7,13.08v-26.16c3.7,0,6.7,5.85,6.7,13.07h0Z"/>
          <path class="cls-18" d="M49.22,66.57c-.19,0-.37-.12-.44-.31-.79-2.24-1.21-4.86-1.21-7.58,0-.93,.05-1.86,.15-2.76,.03-.26,.28-.44,.51-.41,.25,.03,.44,.26,.41,.51-.09,.87-.14,1.76-.14,2.66,0,2.62,.4,5.13,1.16,7.27,.08,.24-.04,.51-.28,.59-.05,.02-.1,.03-.15,.03h0Z"/>
          <path class="cls-18" d="M54.74,72.22c-1.99,0-3.83-1.47-5.18-4.15-.12-.23-.02-.51,.2-.62,.23-.12,.51-.02,.62,.2,1.19,2.35,2.73,3.64,4.36,3.64,3.44,0,6.24-5.66,6.24-12.61s-2.8-12.61-6.24-12.61c-2.37,0-4.58,2.83-5.62,7.2-.06,.25-.31,.4-.56,.34s-.4-.31-.34-.56c1.17-4.88,3.67-7.91,6.52-7.91,4.02,0,7.16,5.95,7.16,13.54s-3.15,13.54-7.16,13.54h0Z"/>
          <g>
            <path class="cls-18" d="M46.81,61.17c-.11,0-.22-.08-.24-.2-.03-.13,.06-.26,.19-.29l2.64-.55c.13-.02,.26,.06,.29,.19,.03,.13-.06,.26-.19,.29l-2.64,.55h-.05Z"/>
            <path class="cls-18" d="M46.98,62.69c-.11,0-.21-.08-.24-.19-.03-.13,.05-.26,.19-.29l3.12-.69c.14-.03,.26,.05,.29,.19,.03,.13-.05,.26-.19,.29l-3.12,.69h-.05Z"/>
          </g>
          <g>
            <circle class="cls-19" cx="54.77" cy="67.3" r="1.11"/>
            <circle class="cls-19" cx="53.69" cy="65.5" r=".2"/>
            <circle class="cls-19" cx="52.74" cy="66.62" r=".34"/>
            <circle class="cls-19" cx="52.68" cy="68.25" r=".77"/>
          </g>
          <g>
            <circle class="cls-3" cx="55.39" cy="49.15" r=".87"/>
            <circle class="cls-3" cx="57.75" cy="48.87" r=".16"/>
            <circle class="cls-3" cx="57.01" cy="49.74" r=".27"/>
            <circle class="cls-3" cx="56.96" cy="51.01" r=".6"/>
          </g>
          <circle class="cls-18" cx="48.38" cy="54.56" r=".39"/>
          <g>
            <path class="cls-7" d="M49.87,54.43s-.07,0-.1,0c-.25-.05-.41-.3-.35-.55,.19-.85,.42-1.67,.7-2.44,.09-.24,.35-.36,.59-.28,.24,.09,.37,.35,.28,.59-.26,.73-.49,1.51-.67,2.32-.05,.22-.24,.36-.45,.36h0Z"/>
            <ellipse class="cls-7" cx="51.43" cy="50.08" rx=".73" ry=".48" transform="translate(-17.65 69.58) rotate(-60)"/>
          </g>
        </g>
        <g>
          <path class="cls-18" d="M10.43,73.03c-.22,0-.41-.15-.45-.38l-5.61-29.03c-.05-.25,.12-.49,.37-.54s.49,.12,.54,.37l5.61,29.03c.05,.25-.12,.49-.37,.54h-.09Z"/>
          <path class="cls-18" d="M11.32,77.61c-.22,0-.41-.15-.45-.38l-.58-3.03c-.05-.25,.12-.49,.37-.54s.49,.12,.54,.37l.58,3.03c.05,.25-.12,.49-.37,.54h-.09Z"/>
          <ellipse class="cls-3" cx="7.63" cy="58.12" rx="6.7" ry="13.08" transform="translate(-10.89 2.51) rotate(-10.94)"/>
          <path class="cls-19" d="M14.22,56.85c1.37,7.09-.46,13.41-4.09,14.12l-4.96-25.68c3.63-.7,7.69,4.48,9.06,11.56h0Z"/>
          <path class="cls-18" d="M3.6,66.76c-.16,0-.31-.08-.4-.23-1.2-2.04-2.11-4.54-2.63-7.21-.18-.92-.3-1.84-.38-2.74-.02-.25,.17-.48,.42-.5s.48,.17,.5,.42c.07,.86,.2,1.75,.37,2.64,.5,2.57,1.37,4.96,2.51,6.92,.13,.22,.06,.5-.17,.63-.07,.04-.15,.06-.23,.06h.01Z"/>
          <path class="cls-18" d="M9.42,71.33c-1.73,0-3.51-1.1-5.11-3.16-.16-.2-.12-.49,.08-.65s.49-.12,.65,.08c1.61,2.08,3.38,3.05,4.97,2.75,1.58-.31,2.85-1.84,3.57-4.33,.75-2.6,.81-5.88,.16-9.23-.65-3.36-1.92-6.38-3.59-8.51-1.6-2.04-3.34-3-4.93-2.69-2.33,.45-3.96,3.64-4.16,8.13,0,.26-.22,.45-.48,.44-.25,0-.45-.23-.44-.48,.22-5.01,2.1-8.46,4.91-9,1.94-.38,4.01,.7,5.83,3.03,1.76,2.24,3.09,5.4,3.77,8.9s.61,6.93-.18,9.67c-.83,2.84-2.35,4.61-4.28,4.99-.25,.05-.51,.07-.76,.07h-.01Z"/>
          <g>
            <path class="cls-18" d="M.25,61.92c-.1,0-.19-.06-.23-.15-.05-.13,0-.27,.13-.32l2.49-1.04c.13-.05,.27,0,.32,.13s0,.27-.13,.32l-2.49,1.04s-.06,.02-.09,.02h0Z"/>
            <path class="cls-18" d="M.71,63.37c-.09,0-.19-.06-.23-.15-.05-.12,0-.27,.13-.32l2.93-1.27c.12-.06,.27,0,.32,.13,.05,.12,0,.27-.13,.32l-2.93,1.27s-.06,.02-.1,.02h0Z"/>
          </g>
          <g>
            <circle class="cls-19" cx="9.27" cy="66.42" r="1.11"/>
            <circle class="cls-19" cx="7.88" cy="64.86" r=".2"/>
            <circle class="cls-19" cx="7.16" cy="66.13" r=".34"/>
            <circle class="cls-19" cx="7.41" cy="67.75" r=".77"/>
          </g>
          <g>
            <circle class="cls-3" cx="6.44" cy="48.48" r=".87"/>
            <circle class="cls-3" cx="8.7" cy="47.76" r=".16"/>
            <circle class="cls-3" cx="8.14" cy="48.75" r=".27"/>
            <circle class="cls-3" cx="8.34" cy="50.01" r=".6"/>
          </g>
          <circle class="cls-18" cx=".59" cy="55.12" r=".39"/>
          <g>
            <path class="cls-7" d="M1.94,54.72h0c-.26,0-.46-.22-.45-.48,.02-.88,.1-1.73,.23-2.53,.04-.25,.28-.42,.53-.39,.25,.04,.42,.28,.38,.53-.12,.76-.19,1.57-.21,2.41,0,.25-.21,.45-.46,.45h0Z"/>
            <ellipse class="cls-7" cx="2.73" cy="50.15" rx=".73" ry=".48" transform="translate(-45.56 36.35) rotate(-70.94)"/>
          </g>
        </g>
        <g>
          <rect class="cls-10" x="24.27" y="27.56" width="17.52" height="2.19"/>
          <rect class="cls-14" x="24.27" y="28.86" width="17.52" height=".89"/>
          <path class="cls-18" d="M41.79,30.25H24.27c-.18,0-.33-.15-.33-.33v-2.43c0-.18,.15-.33,.33-.33h5.41c.18,0,.33,.15,.33,.33s-.15,.33-.33,.33h-5.08v1.76h16.86v-1.76h-6.29c-.18,0-.33-.15-.33-.33s.15-.33,.33-.33h6.62c.18,0,.33,.15,.33,.33v2.43c0,.18-.15,.33-.33,.33Z"/>
          <circle class="cls-17" cx="31.97" cy="27.54" r=".33"/>
        </g>
        <path class="cls-8" d="M39.52,68.19h7.06V25.16c0-9.06-.88-13.26-2.63-22.15l-.54-2.75h0c-2.58,10.7-3.88,16.84-3.88,27.85v40.08h0Z"/>
        <path class="cls-9" d="M40.93,25.77h0c.52,0,.94,.42,.94,.94v40.42c0,.52-.42,.94-.94,.94h0c-.52,0-.94-.42-.94-.94V26.71c0-.52,.42-.94,.94-.94Z"/>
        <path class="cls-8" d="M36.13,64.6h-7.06v-17.25c0-9.06,.88-11.65,2.63-20.54l.54-2.75-.19,.28c2.58,10.7,4.08,13.34,4.08,24.35v15.92h0Z"/>
        <path class="cls-10" d="M35.98,48.72v15.92h-2.2v-15.92c0-5.51-.33-6.57-.97-10.82-.43-2.81-1-5.61-1.71-8.72,.14-.75,.3-1.52,.46-2.34l.54-2.74c1.29,5.35,2.45,9.63,3.11,13.88,.65,4.24,.78,5.24,.78,10.75h0Z"/>
        <path class="cls-6" d="M29.62,39.09h.39c.72,0,1.32-.54,1.4-1.25l.66-5.7c.08-.69-.36-1.34-1.04-1.52h0"/>
        <path class="cls-9" d="M30.01,45.42h0c.52,0,.94,.42,.94,.94v14.65c0,.52-.42,.94-.94,.94h0c-.52,0-.94-.42-.94-.94v-14.65c0-.52,.42-.94,.94-.94Z"/>
        <path class="cls-18" d="M35.91,65.15h-7.06c-.19,0-.35-.16-.35-.35v-17.25c0-7.65,.63-10.7,1.87-16.79,.24-1.15,.49-2.4,.77-3.82l.54-2.75c.03-.16,.17-.28,.33-.28s.31,.11,.34,.27c.44,1.81,.84,3.4,1.2,4.84l.42,1.66c.05,.19-.07,.37-.25,.42-.19,.05-.38-.07-.42-.25l-.42-1.66c-.26-1.02-.53-2.12-.83-3.31l-.24,1.2c-.28,1.42-.54,2.68-.77,3.83-1.24,6.04-1.86,9.07-1.86,16.65v16.91h6.36v-15.57c0-7.09-.56-10.85-1.59-15.31-.04-.19,.07-.37,.26-.42,.19-.04,.37,.07,.42,.26,1.04,4.5,1.61,8.3,1.61,15.46v15.92c0,.19-.16,.35-.35,.35h.02Z"/>
        <path class="cls-8" d="M25.73,68.19h-7.06V25.16c0-9.06,.88-13.26,2.63-22.15l.54-2.75h0c2.58,10.7,3.88,16.84,3.88,27.85v40.08h0Z"/>
        <path class="cls-10" d="M25.42,28.11v40.08h-2.2V28.11c0-5.51-.33-9.79-.97-14.04-.43-2.81-1-5.61-1.71-8.72,.14-.75,.3-1.52,.46-2.34l.54-2.74c1.29,5.35,2.26,9.56,2.91,13.81,.65,4.24,.97,8.53,.97,14.04h0Z"/>
        <path class="cls-6" d="M19.22,15.3h.39c.72,0,1.32-.54,1.4-1.25l.66-5.7c.08-.69-.36-1.34-1.04-1.52h0"/>
        <path class="cls-9" d="M19.61,25.65h0c.52,0,.94,.42,.94,.94v40.42c0,.52-.42,.94-.94,.94h0c-.52,0-.94-.42-.94-.94V26.59c0-.52,.42-.94,.94-.94Z"/>
        <path class="cls-18" d="M25.51,68.85h-7.06c-.26,0-.46-.21-.46-.46V25.36c0-8.85,.83-13.08,2.5-21.5l.69-3.49c.04-.21,.23-.37,.44-.37,.21-.02,.41,.14,.46,.35,2.49,10.32,3.9,16.71,3.9,27.96v40.08c0,.26-.21,.46-.46,.46h0Zm-6.6-.93h6.13V28.31c0-10.37-1.21-16.59-3.38-25.68l-.28,1.4c-1.65,8.36-2.48,12.56-2.48,21.32v42.57h0Z"/>
        <path class="cls-18" d="M26.78,16.9h-9.6c-.19,0-.35-.16-.35-.35s.16-.35,.35-.35h9.6c.19,0,.35,.16,.35,.35s-.16,.35-.35,.35Z"/>
        <path class="cls-18" d="M26.78,19.25h-9.6c-.19,0-.35-.16-.35-.35s.16-.35,.35-.35h9.6c.19,0,.35,.16,.35,.35s-.16,.35-.35,.35Z"/>
        <g>
          <path class="cls-18" d="M23.22,56.98h0c-.14,0-.25-.11-.25-.25l.09-37.74c0-.14,.11-.25,.25-.25h0c.14,0,.25,.11,.25,.25l-.09,37.74c0,.14-.11,.25-.25,.25Z"/>
          <path class="cls-18" d="M20.61,58.76h0c-.14,0-.25-.11-.25-.25l.09-39.39c0-.14,.11-.25,.25-.25h0c.14,0,.25,.11,.25,.25l-.09,39.39c0,.14-.11,.25-.25,.25Z"/>
        </g>
        <path class="cls-8" d="M19.12,68.24h-7.06v-26.92c0-9.06,.88-13.26,2.63-22.15l.54-2.75h0c2.58,10.7,3.88,16.84,3.88,27.85v23.97h0Z"/>
        <path class="cls-10" d="M18.81,44.27v23.97h-2.2v-23.97c0-5.51-.33-9.79-.97-14.04-.43-2.81-1-5.61-1.71-8.72,.14-.75,.3-1.52,.46-2.34l.54-2.74c1.29,5.35,2.26,9.56,2.91,13.81,.65,4.24,.97,8.53,.97,14.04h0Z"/>
        <path class="cls-6" d="M12.49,31.42h.39c.72,0,1.32-.54,1.4-1.25l.66-5.7c.08-.69-.36-1.34-1.04-1.52h0"/>
        <path class="cls-9" d="M13,41.8h0c.52,0,.94,.42,.94,.94v24.32c0,.52-.42,.94-.94,.94h0c-.52,0-.94-.42-.94-.94v-24.32c0-.52,.42-.94,.94-.94Z"/>
        <path class="cls-18" d="M18.9,68.9h-7.06c-.26,0-.46-.21-.46-.46v-26.92c0-6.31,.43-10.15,1.14-14.3,.04-.25,.29-.42,.53-.38,.25,.04,.42,.28,.38,.53-.69,4.1-1.12,7.89-1.12,14.14v26.46h6.13v-23.51c0-10.38-1.21-16.59-3.38-25.68l-.24,1.23c-.32,1.62-.61,3.08-.87,4.44-.05,.25-.29,.41-.54,.37-.25-.05-.42-.29-.37-.54,.26-1.37,.55-2.83,.87-4.45l.65-3.31c.04-.21,.23-.37,.44-.37,.25-.02,.41,.14,.46,.35,2.49,10.32,3.89,16.71,3.89,27.96v23.97c0,.26-.21,.46-.46,.46h0Z"/>
        <g>
          <path class="cls-7" d="M14.45,57.04h0c.33,0,.59,.26,.59,.59v7.23c0,.33-.26,.59-.59,.59h0c-.33,0-.59-.26-.59-.59v-7.23c0-.33,.26-.59,.59-.59Z"/>
          <path class="cls-7" d="M21.51,53.8h0c.33,0,.59,.26,.59,.59v7.23c0,.33-.26,.59-.59,.59h0c-.33,0-.59-.26-.59-.59v-7.23c0-.33,.26-.59,.59-.59Z"/>
          <ellipse class="cls-7" cx="14.45" cy="36.77" rx=".65" ry="1.21"/>
          <ellipse class="cls-7" cx="21.54" cy="26.13" rx=".65" ry="1.21"/>
        </g>
        <ellipse class="cls-7" cx="41.86" cy="28.9" rx=".65" ry="1.21"/>
        <ellipse class="cls-7" cx="41.94" cy="49.88" rx=".65" ry="1.21"/>
        <ellipse class="cls-7" cx="47.92" cy="42.54" rx=".65" ry="1.21"/>
        <g>
          <g>
            <circle class="cls-5" cx="13.62" cy="15" r="1.02"/>
            <path class="cls-18" d="M13.62,16.19c-.66,0-1.2-.54-1.2-1.2s.54-1.2,1.2-1.2,1.2,.54,1.2,1.2-.54,1.2-1.2,1.2Zm0-2.05c-.47,0-.85,.38-.85,.85s.38,.85,.85,.85,.85-.38,.85-.85-.38-.85-.85-.85Z"/>
          </g>
          <g>
            <circle class="cls-5" cx="16.46" cy="15" r="1.02"/>
            <path class="cls-18" d="M16.46,16.19c-.66,0-1.2-.54-1.2-1.2s.54-1.2,1.2-1.2,1.2,.54,1.2,1.2-.54,1.2-1.2,1.2Zm0-2.05c-.47,0-.85,.38-.85,.85s.38,.85,.85,.85,.85-.38,.85-.85-.38-.85-.85-.85Z"/>
          </g>
          <g>
            <circle class="cls-5" cx="15.1" cy="13.54" r="1.02"/>
            <path class="cls-18" d="M15.1,14.74c-.66,0-1.2-.54-1.2-1.2s.54-1.2,1.2-1.2,1.2,.54,1.2,1.2-.54,1.2-1.2,1.2Zm0-2.05c-.47,0-.85,.38-.85,.85s.38,.85,.85,.85,.85-.38,.85-.85-.38-.85-.85-.85Z"/>
          </g>
          <circle class="cls-5" cx="15.04" cy="14.85" r="1.45"/>
          <path class="cls-18" d="M15.04,16.49c-.9,0-1.64-.74-1.64-1.64s.74-1.64,1.64-1.64,1.64,.74,1.64,1.64-.74,1.64-1.64,1.64Zm0-2.9c-.7,0-1.26,.57-1.26,1.26s.57,1.26,1.26,1.26,1.26-.57,1.26-1.26-.57-1.26-1.26-1.26Z"/>
          <ellipse class="cls-2" cx="14.76" cy="14.48" rx=".65" ry=".43" transform="translate(-5.78 12.13) rotate(-37.93)"/>
        </g>
        <path class="cls-18" d="M10.71,35.38c-.12,0-.23-.09-.24-.22-.02-.14,.08-.26,.22-.27l16.13-1.8c.13,0,.26,.08,.27,.22,.02,.14-.08,.26-.22,.27l-16.13,1.8h-.03Z"/>
        <path class="cls-18" d="M10.71,38.4c-.12,0-.23-.09-.24-.22-.02-.14,.08-.26,.22-.27l16.13-1.8c.13-.02,.26,.08,.27,.22,.02,.14-.08,.26-.22,.27l-16.13,1.8h-.03Z"/>
        <path class="cls-18" d="M10.71,41.42c-.12,0-.23-.09-.24-.22-.02-.14,.08-.26,.22-.27l16.13-1.8c.13,0,.26,.08,.27,.22,.02,.14-.08,.26-.22,.27l-16.13,1.8h-.03Z"/>
        <path class="cls-18" d="M10.71,44.44c-.12,0-.23-.09-.24-.22-.02-.14,.08-.26,.22-.27l16.13-1.8c.13,0,.26,.08,.27,.22,.02,.14-.08,.26-.22,.27l-16.13,1.8h-.03Z"/>
        <path class="cls-18" d="M10.71,53.51c-.12,0-.23-.09-.24-.22-.02-.14,.08-.26,.22-.27l16.13-1.8c.13-.02,.26,.08,.27,.22,.02,.14-.08,.26-.22,.27l-16.13,1.8h-.03Z"/>
        <path class="cls-18" d="M10.71,50.49c-.12,0-.23-.09-.24-.22-.02-.14,.08-.26,.22-.27l16.13-1.8c.13,0,.26,.08,.27,.22,.02,.14-.08,.26-.22,.27l-16.13,1.8h-.03Z"/>
        <path class="cls-18" d="M10.71,47.46c-.12,0-.23-.09-.24-.22-.02-.14,.08-.26,.22-.27l16.13-1.8c.13,0,.26,.08,.27,.22,.02,.14-.08,.26-.22,.27l-16.13,1.8h-.03Z"/>
        <path class="cls-10" d="M47.13,29.44v40.08h-2.2V29.44c0-5.51-.33-9.79-.97-14.04-.43-2.81-1-5.61-1.71-8.72,.14-.75,.3-1.52,.46-2.34l.54-2.74c1.29,5.35,2.26,9.56,2.91,13.81,.65,4.24,.97,8.53,.97,14.04h0Z"/>
        <path class="cls-18" d="M46.8,68.85h-7.06c-.26,0-.46-.21-.46-.46V28.31c0-11.24,1.41-17.63,3.9-27.96,.05-.21,.28-.36,.46-.35,.22,0,.4,.16,.44,.37l.69,3.49c1.66,8.42,2.5,12.65,2.5,21.5v43.03c0,.26-.21,.46-.46,.46h0Zm-6.6-.93h6.13V25.36c0-8.76-.83-12.96-2.48-21.32l-.28-1.4c-2.16,9.09-3.38,15.3-3.38,25.68v39.6Z"/>
        <path class="cls-18" d="M48.07,16.9h-9.6c-.19,0-.35-.16-.35-.35s.16-.35,.35-.35h9.6c.19,0,.35,.16,.35,.35s-.16,.35-.35,.35Z"/>
        <path class="cls-18" d="M48.07,19.25h-9.6c-.19,0-.35-.16-.35-.35s.16-.35,.35-.35h9.6c.19,0,.35,.16,.35,.35s-.16,.35-.35,.35Z"/>
        <g>
          <path class="cls-18" d="M48.5,38.56h-.06l-10.84-2.84c-.13-.03-.21-.17-.18-.3,.03-.13,.17-.21,.3-.18l10.84,2.84c.13,.03,.21,.17,.18,.3-.03,.11-.13,.18-.24,.18Z"/>
          <path class="cls-18" d="M48.5,41.27h-.06l-10.84-2.84c-.13-.03-.21-.17-.18-.3s.17-.21,.3-.18l10.84,2.84c.13,.03,.21,.17,.18,.3-.03,.11-.13,.18-.24,.18Z"/>
          <path class="cls-18" d="M48.5,43.97h-.06l-10.84-2.84c-.13-.03-.21-.17-.18-.3s.17-.21,.3-.18l10.84,2.84c.13,.03,.21,.17,.18,.3-.03,.11-.13,.18-.24,.18Z"/>
        </g>
        <g>
          <path class="cls-18" d="M42.27,46.27c-.13,0-.25-.11-.25-.24l-.09-11.21c0-.14,.11-.25,.24-.25h0c.13,0,.25,.11,.25,.24l.09,11.21c0,.14-.11,.25-.24,.25h0Z"/>
          <path class="cls-18" d="M44.88,45.56c-.13,0-.25-.11-.25-.24l-.09-11.21c0-.14,.11-.25,.24-.25h0c.13,0,.25,.11,.25,.24l.09,11.21c0,.14-.11,.25-.24,.25h0Z"/>
        </g>
        <path class="cls-8" d="M46,68.24h7.06v-26.92c0-9.06-.88-13.26-2.63-22.15l-.54-2.75h0c-2.58,10.7-3.88,16.84-3.88,27.85v23.97h0Z"/>
        <path class="cls-10" d="M53.21,45.4l-.48,24.1h-2.2l1.26-24.02c0-5.51-.33-9.79-.97-14.04-.43-2.81-1-5.61-1.71-8.72,.14-.75,.3-1.52,.46-2.34l.54-2.74c1.29,5.35,2.26,9.56,2.91,13.81,.65,4.24,.2,8.46,.2,13.97v-.02Z"/>
        <path class="cls-18" d="M53.29,68.9h-7.06c-.26,0-.46-.21-.46-.46v-23.97c0-11.24,1.41-17.63,3.9-27.96,.05-.21,.22-.37,.46-.35,.22,0,.4,.16,.44,.37l.69,3.49c1.66,8.42,2.5,12.65,2.5,21.5v26.92c0,.26-.21,.46-.46,.46h0Zm-6.6-.93h6.13v-26.46c0-8.76-.83-12.96-2.48-21.32l-.28-1.4c-2.16,9.09-3.38,15.3-3.38,25.68v23.51h0Z"/>
        <g>
          <path class="cls-18" d="M54.98,50.87h-.06l-10.84-2.84c-.13-.03-.21-.17-.18-.3s.16-.21,.3-.18l10.84,2.84c.13,.03,.21,.17,.18,.3-.03,.11-.13,.18-.24,.18Z"/>
          <path class="cls-18" d="M54.98,53.58h-.06l-10.84-2.84c-.13-.03-.21-.17-.18-.3s.16-.21,.3-.18l10.84,2.84c.13,.03,.21,.17,.18,.3-.03,.11-.13,.18-.24,.18Z"/>
          <path class="cls-18" d="M54.98,56.29h-.06l-10.84-2.84c-.13-.03-.21-.17-.18-.3,.03-.13,.16-.21,.3-.18l10.84,2.84c.13,.03,.21,.17,.18,.3-.03,.11-.13,.18-.24,.18Z"/>
        </g>
        <g>
          <path class="cls-18" d="M53.18,43.45s-.06,0-.09-.02l-2.71-1.18c-.12-.05-.17-.19-.12-.3,.05-.12,.19-.17,.3-.12l2.71,1.18c.12,.05,.17,.19,.12,.3-.04,.09-.12,.14-.21,.14Z"/>
          <path class="cls-18" d="M53.18,45.29s-.06,0-.09-.02l-2.71-1.18c-.12-.05-.17-.19-.12-.3,.05-.12,.19-.17,.3-.12l2.71,1.18c.12,.05,.17,.19,.12,.3-.04,.09-.12,.14-.21,.14Z"/>
          <path class="cls-18" d="M53.18,47.29s-.06,0-.09-.02l-2.71-1.18c-.12-.05-.17-.19-.12-.3,.05-.12,.19-.17,.3-.12l2.71,1.18c.12,.05,.17,.19,.12,.3-.04,.09-.12,.14-.21,.14Z"/>
        </g>
        <g>
          <path class="cls-18" d="M53.18,37.76s-.06,0-.09-.02l-2.71-1.18c-.12-.05-.17-.19-.12-.3,.05-.12,.19-.17,.3-.12l2.71,1.18c.12,.05,.17,.19,.12,.3-.04,.09-.12,.14-.21,.14Z"/>
          <path class="cls-18" d="M53.18,39.6s-.06,0-.09-.02l-2.71-1.18c-.12-.05-.17-.19-.12-.3,.05-.12,.19-.17,.3-.12l2.71,1.18c.12,.05,.17,.19,.12,.3-.04,.09-.12,.14-.21,.14Z"/>
          <path class="cls-18" d="M53.18,41.6s-.06,0-.09-.02l-2.71-1.18c-.12-.05-.17-.19-.12-.3,.05-.12,.19-.17,.3-.12l2.71,1.18c.12,.05,.17,.19,.12,.3-.04,.09-.12,.14-.21,.14Z"/>
        </g>
        <path class="cls-18" d="M54.56,33.05h-9.6c-.19,0-.35-.16-.35-.35s.16-.35,.35-.35h9.6c.19,0,.35,.16,.35,.35s-.16,.35-.35,.35Z"/>
        <g>
          <path class="cls-13" d="M34.68,40.31c0,2.18-1.01,4.66-2.26,4.66s-2.26-2.48-2.26-4.66,1.01-3.22,2.26-3.22,2.26,1.04,2.26,3.22Z"/>
          <path class="cls-15" d="M32.36,37.09v7.88c-1.22-.06-2.21-2.51-2.21-4.66s.98-3.19,2.21-3.22Z"/>
          <path class="cls-18" d="M32.42,45.32c-1.49,0-2.61-2.64-2.61-5.01,0-2.63,1.4-3.57,2.61-3.57s2.61,.93,2.61,3.57c0,2.36-1.12,5.01-2.61,5.01Zm0-7.88c-1.18,0-1.91,1.1-1.91,2.87,0,2.1,.98,4.31,1.91,4.31s1.91-2.22,1.91-4.31c0-1.77-.73-2.87-1.91-2.87Z"/>
          <ellipse class="cls-7" cx="31.89" cy="40.83" rx=".81" ry="1.39"/>
        </g>
        <g>
          <path class="cls-18" d="M14.87,67.52c-.08,0-.15-.07-.15-.15,0-.06,.04-.12,.1-.14l2.77-.96c.08-.03,.16,.01,.19,.09,.03,.08,0,.16-.09,.19l-2.77,.96h-.05Z"/>
          <path class="cls-18" d="M15.35,68.2c-.08,0-.15-.07-.14-.15,0-.06,.04-.12,.1-.14l1.52-.51c.08-.03,.16,0,.19,.08s0,.16-.08,.19h-.02l-1.52,.51h-.05v.02Z"/>
        </g>
        <line class="cls-1" x1="19.08" y1="77.19" x2="18.26" y2="78.19"/>
        <polygon class="cls-8" points="55.42 65.34 55.03 67.93 44.05 61.1 32.68 54.08 21.3 61.1 9.93 67.83 9.94 65.34 21.3 58.33 32.68 49.96 44.05 58.33 55.42 65.34"/>
        <polygon class="cls-7" points="55.72 65.55 55.37 66.9 43.76 59.81 32.38 51.44 21.01 59.81 9.64 66.82 9.64 65.44 21.01 58.43 32.38 50.06 43.76 58.43 55.72 65.55"/>
        <g>
          <path class="cls-10" d="M8.84,77.77c-.14,.41-.23,.66-.23,.66"/>
          <path class="cls-10" d="M10.55,68.05l-.03-.04"/>
          <path class="cls-10" d="M10.85,71.18c.41-1.93-.16-2.93-.3-3.13l10.59-6.53,11.38-7.01,11.37,7.01,10.45,6.45-.03,.04s-.79,.99-.33,3.17c.36,1.69,1.52,5.14,2.01,6.59H8.85c.49-1.45,1.65-4.9,2.01-6.59h0Z"/>
          <path class="cls-10" d="M56.21,78.43s-.09-.25-.23-.66"/>
        </g>
        <path class="cls-16" d="M54.29,67.39l-.03,.04s-.37,.44-.45,1.38l-9.97-5.92-11.37-6.76-11.38,6.76-10.16,6.03c-.05-.85-.34-1.32-.43-1.45l10.59-6.29,11.38-6.76,11.37,6.76,10.45,6.22h0Z"/>
        <path class="cls-10" d="M41.08,76.63c0,.52-.02,1-.07,1.44H23.34c-.05-.43-.07-.91-.07-1.44,0-7.05,3.98-19.53,8.9-19.53s8.9,12.49,8.9,19.53h.01Z"/>
        <path class="cls-8" d="M41.08,77.59c0,.52-.02,1-.07,1.44H23.34c-.05-.43-.07-.91-.07-1.44,0-7.05,3.98-19.53,8.9-19.53s8.9,12.49,8.9,19.53h.01Z"/>
        <path class="cls-11" d="M41.08,77.52c0,.48-.02,.93-.07,1.33-.51-7.19-4.27-17.96-8.84-17.96s-8.34,10.8-8.85,17.99c-.03-.41-.06-.87-.06-1.36,0-7.05,3.99-19.53,8.9-19.53s8.9,12.48,8.9,19.53h.02Z"/>
        <path class="cls-10" d="M19.3,78.15l-3.25,.04,3.08-9.33c.44-1.38,1.33-2.57,2.54-3.37h0c.69-.46,1.57,.21,1.32,1l-3.69,11.67h0Z"/>
        <g>
          <path class="cls-16" d="M19.2,78.25l-3.25,.04,3.08-9.33c.44-1.38,1.33-2.57,2.54-3.37h0c.69-.46,1.57,.21,1.32,1l-3.69,11.67h0Z"/>
          <g>
            <path class="cls-16" d="M13.64,78.26l-2.36,.03,2.23-6.76c.32-1,.97-1.86,1.84-2.45h0c.5-.33,1.14,.15,.96,.72l-2.68,8.46h0Z"/>
            <path class="cls-16" d="M13.64,78.26l-2.36,.03,2.23-6.76c.32-1,.97-1.86,1.84-2.45h0c.5-.33,1.14,.15,.96,.72l-2.68,8.46h0Z"/>
          </g>
        </g>
        <path class="cls-16" d="M44.99,78.15l3.25,.04-3.08-9.33c-.44-1.38-1.33-2.57-2.54-3.37h0c-.69-.46-1.57,.21-1.32,1l3.69,11.67h0Z"/>
        <path class="cls-12" d="M48.5,78.42h-3.65l-3.75-11.32c-.17-.54,0-1.11,.46-1.45,.45-.34,1.05-.36,1.51-.04,1.2,.8,2.09,1.99,2.53,3.36l2.9,9.45Zm-2.92-1.01h1.55l-2.5-8.14c-.36-1.15-1.12-2.15-2.12-2.82-.16-.11-.29-.03-.35,0-.05,.04-.16,.15-.1,.33l3.52,10.62h0Z"/>
        <path class="cls-12" d="M19.47,78.4h-3.65l2.9-9.45c.43-1.37,1.33-2.56,2.53-3.36,.47-.31,1.06-.3,1.51,.04,.45,.34,.63,.9,.46,1.44l-3.75,11.32h0Zm-2.28-1h1.55l3.52-10.62c.06-.18-.06-.28-.11-.32s-.19-.11-.34-.01c-1,.67-1.76,1.67-2.12,2.82l-2.5,8.13h0Z"/>
        <path class="cls-18" d="M48.24,78.48h0l-3.25-.04c-.13,0-.24-.08-.27-.2l-3.69-11.67c-.15-.48,0-.98,.41-1.29,.4-.3,.93-.32,1.35-.04,1.25,.84,2.2,2.09,2.65,3.53l3.08,9.32c.03,.09,0,.19-.04,.26-.05,.08-.14,.12-.24,.12h0Zm-3.04-.61l2.63,.03-2.96-8.94c-.42-1.32-1.28-2.46-2.42-3.22-.25-.17-.52-.1-.68,.02-.16,.12-.3,.35-.21,.65l3.63,11.46h0Z"/>
        <path class="cls-16" d="M50.75,78.26l2.36,.03-2.23-6.76c-.32-1-.97-1.86-1.84-2.45h0c-.5-.33-1.14,.15-.96,.72l2.68,8.46h0Z"/>
        <g>
          <path class="cls-18" d="M8.48,78.49s-.09,0-.13-.02c-.2-.07-.31-.29-.24-.5,.02-.05,1.78-5.08,2.23-7.2,.29-1.36,.05-2.2-.11-2.58-.09-.2,0-.43,.2-.51s.43,0,.51,.2c.25,.57,.48,1.56,.16,3.06-.46,2.18-2.18,7.09-2.25,7.3-.06,.16-.21,.26-.37,.26h0Z"/>
          <path class="cls-18" d="M56.08,78.49c-.16,0-.31-.1-.37-.26-.07-.21-1.79-5.13-2.26-7.3-.49-2.33,.37-3.44,.41-3.49,.13-.17,.38-.19,.55-.06,.17,.13,.19,.38,.06,.54,0,.02-.66,.92-.26,2.84,.45,2.13,2.21,7.15,2.23,7.2,.07,.2-.04,.43-.24,.5-.04,.02-.09,.02-.13,.02h0Z"/>
        </g>
        <g>
          <path class="cls-18" d="M55.13,65.83c-.07,0-.14-.02-.2-.06l-11.37-7.01-11.17-8.22-11.14,8.2-4.42,2.79c-.18,.12-.42,.06-.54-.12s-.06-.42,.12-.54l4.4-2.78,11.35-8.35c.14-.1,.32-.1,.46,0l11.37,8.37,11.35,7c.18,.11,.24,.35,.13,.54-.07,.12-.2,.18-.33,.18h-.01Z"/>
          <path class="cls-18" d="M9.64,65.83c-.13,0-.26-.07-.33-.18-.11-.18-.06-.42,.13-.54l5.83-3.59c.18-.11,.42-.06,.54,.13,.11,.18,.06,.42-.13,.54l-5.83,3.59c-.06,.04-.13,.06-.2,.06h0Z"/>
          <path class="cls-18" d="M55.13,68.6c-.07,0-.14-.02-.2-.06l-22.54-13.9-22.54,13.9c-.18,.11-.42,.06-.54-.13-.11-.18-.06-.42,.13-.54l22.75-14.03c.12-.08,.28-.08,.41,0l22.75,14.03c.18,.11,.24,.35,.13,.54-.07,.12-.2,.18-.33,.18h-.02Z"/>
        </g>
        <path class="cls-18" d="M11.39,78.48c-.09,0-.18-.04-.24-.12-.06-.08-.07-.17-.04-.26l2.24-6.76c.33-1.06,1.03-1.98,1.95-2.6,.33-.22,.75-.21,1.07,.03s.45,.64,.33,1.02l-2.68,8.46c-.04,.12-.15,.2-.28,.2l-2.36,.03h0Zm4.43-9.32c-.06,0-.12,.02-.19,.06-.82,.54-1.43,1.36-1.72,2.29l-2.11,6.38,1.74-.02,2.61-8.26c.07-.22-.08-.34-.12-.38-.03-.02-.11-.07-.21-.07Z"/>
        <path class="cls-18" d="M52.9,78.48h0l-2.36-.03c-.13,0-.24-.08-.28-.2l-2.68-8.46c-.12-.38,0-.78,.33-1.02s.74-.25,1.07-.03c.93,.62,1.62,1.54,1.96,2.6l2.23,6.76c.03,.09,0,.19-.04,.26-.05,.08-.14,.12-.24,.12h0Zm-2.14-.61l1.74,.02-2.11-6.37c-.3-.94-.91-1.75-1.72-2.29-.19-.13-.35-.02-.4,.01-.05,.03-.19,.16-.12,.38l2.61,8.26h0Z"/>
        <path class="cls-15" d="M38.32,78.7c.03-.3,.05-.62,.05-.98,0-4.8-2.72-13.3-6.06-13.3-1.19,0-2.3,1.07-3.24,2.67l-.73,1.42c-1.28,2.84-2.09,6.58-2.09,9.2,0,.36,0,.68,.05,.98"/>
        <path class="cls-13" d="M38.36,77.78c0,.22,0,.45-.02,.65-.22-4.87-2.84-12.68-6.04-12.68-1.19,0-2.3,1.08-3.23,2.68l-.73,1.43c-1.17,2.58-1.94,5.89-2.08,8.44-.02-.17-.02-.34-.02-.51,0-2.62,.81-6.36,2.1-9.2l.73-1.43c.93-1.6,2.04-2.67,3.23-2.67,3.35,0,6.06,8.5,6.06,13.3h0Z"/>
        <path class="cls-18" d="M11.41,78.02h-2.62c-.16,0-.29-.13-.29-.29s.13-.29,.29-.29h2.62c.16,0,.29,.13,.29,.29s-.13,.29-.29,.29Z"/>
        <path class="cls-18" d="M22.98,78.02h-3.45c-.16,0-.29-.13-.29-.29s.13-.29,.29-.29h3.45c.16,0,.29,.13,.29,.29s-.13,.29-.29,.29Z"/>
        <path class="cls-18" d="M44.53,78.02h-3.45c-.16,0-.29-.13-.29-.29s.13-.29,.29-.29h3.45c.16,0,.29,.13,.29,.29s-.13,.29-.29,.29Z"/>
        <path class="cls-18" d="M50.06,78.02h-1.79c-.16,0-.29-.13-.29-.29s.13-.29,.29-.29h1.79c.16,0,.29,.13,.29,.29s-.13,.29-.29,.29Z"/>
        <path class="cls-18" d="M55.57,78.02h-2.62c-.16,0-.29-.13-.29-.29s.13-.29,.29-.29h2.62c.16,0,.29,.13,.29,.29s-.13,.29-.29,.29Z"/>
        <path class="cls-18" d="M15.99,78.02h-1.98c-.16,0-.29-.13-.29-.29s.13-.29,.29-.29h1.98c.16,0,.29,.13,.29,.29s-.13,.29-.29,.29Z"/>
        <g>
          <path class="cls-18" d="M16.68,61.31h0c-.14,0-.25-.11-.25-.25l.06-16.78c0-.14,.11-.25,.25-.25h0c.14,0,.25,.11,.25,.25l-.06,16.78c0,.14-.11,.25-.25,.25Z"/>
          <path class="cls-18" d="M14.06,62.92h0c-.14,0-.25-.11-.25-.25l.07-20.76c0-.14,.11-.25,.25-.25h0c.14,0,.25,.11,.25,.25l-.07,20.76c0,.14-.11,.25-.25,.25Z"/>
        </g>
        <g>
          <path class="cls-18" d="M24.9,75.6c-.13,0-.25-.11-.25-.24,0-.14,.11-.25,.24-.25l2.87-.02h0c.13,0,.25,.11,.25,.24,0,.14-.11,.25-.24,.25l-2.87,.02h0Z"/>
          <path class="cls-18" d="M25.07,77.12c-.13,0-.25-.11-.25-.24s.11-.25,.24-.25l3.7-.02h0c.13,0,.25,.11,.25,.24s-.11,.25-.24,.25l-3.7,.02h0Z"/>
        </g>
        <g>
          <path class="cls-18" d="M7.72,71.08c-.14,0-.25-.11-.25-.24,0-.14,.11-.25,.25-.25l4.53-.02h0c.14,0,.25,.11,.25,.24,0,.14-.11,.25-.25,.25l-4.53,.02h0Z"/>
          <path class="cls-18" d="M7.89,72.59c-.14,0-.25-.11-.25-.24,0-.14,.11-.25,.25-.25l4.53-.02h0c.14,0,.25,.11,.25,.24,0,.14-.11,.25-.25,.25l-4.53,.02h0Z"/>
        </g>
        <circle class="cls-17" cx="26.87" cy="62.87" r=".33"/>
        <circle class="cls-17" cx="13.29" cy="25.91" r=".33"/>
        <circle class="cls-17" cx="34.02" cy="32.06" r=".33"/>
        <path class="cls-18" d="M51.78,47.56c-.13,0-.25-.11-.25-.24l-.09-11.21c0-.14,.1-.27,.25-.25,.13,0,.25,.11,.25,.24l.09,11.21c0,.14-.11,.25-.24,.25h0Z"/>
        <g>
          <g>
            <circle class="cls-5" cx="48.81" cy="15.16" r="1.02"/>
            <path class="cls-18" d="M48.81,16.35c-.66,0-1.2-.54-1.2-1.2s.54-1.2,1.2-1.2,1.2,.54,1.2,1.2-.54,1.2-1.2,1.2Zm0-2.05c-.47,0-.85,.38-.85,.85s.38,.85,.85,.85,.85-.38,.85-.85-.38-.85-.85-.85Z"/>
          </g>
          <g>
            <circle class="cls-5" cx="51.66" cy="15.16" r="1.02"/>
            <path class="cls-18" d="M51.66,16.35c-.66,0-1.2-.54-1.2-1.2s.54-1.2,1.2-1.2,1.2,.54,1.2,1.2-.54,1.2-1.2,1.2Zm0-2.05c-.47,0-.85,.38-.85,.85s.38,.85,.85,.85,.85-.38,.85-.85-.38-.85-.85-.85Z"/>
          </g>
          <g>
            <circle class="cls-5" cx="50.3" cy="13.7" r="1.02"/>
            <path class="cls-18" d="M50.3,14.9c-.66,0-1.2-.54-1.2-1.2s.54-1.2,1.2-1.2,1.2,.54,1.2,1.2-.54,1.2-1.2,1.2Zm0-2.05c-.47,0-.85,.38-.85,.85s.38,.85,.85,.85,.85-.38,.85-.85-.38-.85-.85-.85Z"/>
          </g>
          <circle class="cls-5" cx="50.23" cy="15.02" r="1.45"/>
          <path class="cls-18" d="M50.23,16.66c-.9,0-1.64-.74-1.64-1.64s.74-1.64,1.64-1.64,1.64,.74,1.64,1.64-.74,1.64-1.64,1.64Zm0-2.9c-.7,0-1.26,.57-1.26,1.26s.57,1.26,1.26,1.26,1.26-.57,1.26-1.26-.57-1.26-1.26-1.26Z"/>
          <ellipse class="cls-2" cx="49.97" cy="14.64" rx=".65" ry=".43" transform="translate(1.55 33.81) rotate(-37.93)"/>
        </g>
        <path class="cls-18" d="M26.29,78.97c-.13,0-.25-.1-.26-.24-.03-.29-.05-.63-.05-1.01,0-2.76,.85-6.5,2.12-9.31,.06-.13,.22-.19,.35-.13,.13,.06,.19,.22,.13,.35-1.24,2.75-2.07,6.4-2.07,9.09,0,.35,.02,.67,.05,.95,.02,.15-.09,.28-.24,.29h-.03Z"/>
        <path class="cls-18" d="M38.32,78.97h-.03c-.15-.02-.25-.15-.24-.29,.03-.27,.04-.58,.04-.95,0-2.42-.69-5.7-1.76-8.35-1.2-2.98-2.67-4.69-4.04-4.69-1.25,0-2.33,1.38-3.01,2.54-.07,.13-.24,.17-.36,.1-.13-.07-.17-.24-.09-.36,1.07-1.84,2.27-2.81,3.46-2.81,3.66,0,6.33,8.92,6.33,13.57,0,.38,0,.71-.05,1.01,0,.14-.13,.24-.26,.24h0Z"/>
        <path class="cls-18" d="M41.02,79.29H23.35c-.2,0-.37-.15-.39-.35-.05-.43-.07-.91-.07-1.48,0-4.06,1.25-9.55,3.11-13.67,.09-.2,.32-.28,.51-.19,.2,.09,.28,.32,.19,.52-1.82,4.03-3.04,9.4-3.04,13.35,0,.39,0,.73,.03,1.05h16.96c.02-.32,.03-.66,.03-1.05,0-3.56-1.01-8.37-2.58-12.27-1.76-4.37-3.92-6.88-5.93-6.88-1.84,0-3.42,2.03-4.42,3.73-.11,.19-.35,.25-.53,.14-.19-.11-.25-.35-.14-.53,1.58-2.7,3.33-4.12,5.09-4.12,5.37,0,9.29,13.1,9.29,19.92,0,.56-.02,1.04-.07,1.48-.02,.2-.19,.35-.39,.35h.02Z"/>
        <path class="cls-7" d="M30.07,70.73c.3-.7,.73-1.32,1.16-1.95l-.06,.08s.04-.05,.06-.07c.03-.04,.06-.07,.09-.11l.18-.21c.11-.13,.23-.25,.35-.36,.06-.05,.11-.1,.17-.15,.09-.08-.13,.09-.06,.04,.03-.02,.05-.04,.08-.06,.05-.03,.1-.07,.16-.1,.03-.02,.14-.06,0,0s-.02,.01,0,0c.38-.12,.66-.53,.53-.93-.12-.38-.53-.66-.93-.53-.71,.23-1.26,.84-1.71,1.41-.53,.67-1,1.39-1.34,2.18-.08,.19-.14,.37-.08,.58,.05,.18,.18,.37,.35,.45,.33,.17,.87,.12,1.04-.27h0Z"/>
        <path class="cls-18" d="M16.05,78.48c-.09,0-.18-.04-.24-.12-.06-.08-.07-.17-.04-.26l3.08-9.33c.46-1.44,1.4-2.69,2.65-3.52,.42-.28,.95-.26,1.35,.04,.4,.3,.57,.81,.41,1.29l-3.69,11.67c-.04,.12-.15,.2-.27,.2l-3.25,.04h0Zm6.1-12.86c-.1,0-.21,.03-.32,.1-1.15,.76-2,1.91-2.42,3.22l-2.96,8.94,2.63-.03,3.63-11.46c.09-.29-.05-.52-.21-.65-.09-.07-.22-.12-.36-.12h.01Z"/>
        <g>
          <path class="cls-4" d="M34.19,75.66c-.07,0-.13-.06-.13-.13,0-.06,.03-.1,.09-.12l2.42-.84c.07-.02,.14,.01,.16,.08s0,.14-.08,.16l-2.42,.84h-.04Z"/>
          <path class="cls-4" d="M34.6,76.25c-.07,0-.13-.06-.13-.13,0-.05,.03-.1,.09-.12l1.33-.44c.07-.03,.14,0,.17,.07s0,.14-.07,.17h0l-1.33,.44h-.05Z"/>
        </g>
      </g>
      <g>
        <path d="M7.59,36.62h-.09c-.4-.02-.78-.21-1.04-.51-.55-.63-.5-1.59,.13-2.14,.3-.27,.68-.41,1.1-.38,.4,.02,.78,.21,1.04,.51,.55,.63,.5,1.59-.13,2.14-.28,.25-.63,.38-1,.38h-.01Zm0-2.54c-.25,0-.49,.09-.68,.26-.42,.38-.46,1.02-.09,1.45,.18,.21,.43,.33,.71,.34,.27,0,.54-.07,.74-.25,.42-.38,.46-1.02,.09-1.45-.18-.21-.43-.33-.71-.34h-.06Z"/>
        <circle cx="7.24" cy="37.86" r=".48"/>
      </g>
      <g>
        <circle cx="31.12" cy="22.23" r=".48"/>
        <g>
          <path d="M29.55,24.07c-.06,0-.13-.02-.17-.07l-1.83-1.83c-.1-.1-.1-.25,0-.35s.25-.1,.35,0l1.83,1.83c.1,.1,.1,.25,0,.35-.05,.05-.11,.07-.17,.07h-.01Z"/>
          <path d="M27.72,24.07c-.06,0-.13-.02-.17-.07-.1-.1-.1-.25,0-.35l1.83-1.83c.1-.1,.25-.1,.35,0s.1,.25,0,.35l-1.83,1.83s-.11,.07-.17,.07h-.01Z"/>
        </g>
      </g>
    </g>
  </g>
</svg>