<?xml version="1.0" encoding="UTF-8"?>
<svg id="Layer_2" data-name="Layer 2" xmlns="http://www.w3.org/2000/svg" viewBox="0 0 77.1 66.38">
  <defs>
    <style>
      .cls-1 {
        fill: #f9cc78;
      }

      .cls-2 {
        fill: #f7a748;
      }

      .cls-3 {
        fill: #000201;
      }

      .cls-4 {
        fill: #eaedf4;
      }

      .cls-5 {
        fill: #fff;
      }

      .cls-6 {
        fill: #ffe1b4;
      }

      .cls-7 {
        fill: #978a11;
      }

      .cls-8 {
        fill: #b0dbee;
      }

      .cls-9 {
        fill: #a4b3b8;
      }

      .cls-10 {
        fill: #cabc37;
      }

      .cls-11 {
        fill: #d7dfe2;
      }

      .cls-12 {
        fill: #062539;
      }

      .cls-13 {
        opacity: .2;
      }

      .cls-14 {
        opacity: .4;
      }

      .cls-15 {
        opacity: .49;
      }
    </style>
  </defs>
  <g id="Layer_2-2" data-name="Layer 2">
    <g>
      <g>
        <g class="cls-13">
          <path class="cls-8" d="M77.09,50.26c0,3.39-2.65,6.19-6.04,6.37h-12.89c-.31,0-.62-.01-.92-.04-5.38-.51-9.33-5.29-8.82-10.67,.51-5.38,5.29-9.33,10.67-8.82,4.19,.4,7.66,3.43,8.61,7.53,3.1-1.67,6.97-.51,8.64,2.6,.5,.93,.76,1.97,.76,3.02h-.01Z"/>
          <path class="cls-8" d="M58.16,56.64h-.93v-.04c.31,.03,.61,.04,.93,.04Z"/>
        </g>
        <g class="cls-15">
          <path class="cls-8" d="M28.71,27.13c0,3.39-2.65,6.19-6.04,6.37H9.78c-.31,0-.62,0-.92-.04C3.48,32.95-.47,28.17,.04,22.79c.51-5.38,5.29-9.33,10.67-8.82,4.19,.4,7.66,3.43,8.61,7.53,3.1-1.67,6.97-.51,8.64,2.6,.5,.93,.76,1.97,.76,3.02h-.01Z"/>
          <path class="cls-8" d="M9.78,33.51h-.93v-.04c.31,.03,.61,.04,.93,.04Z"/>
        </g>
      </g>
      <path class="cls-11" d="M61.75,25.8h-19.96v24.93h19.96c3.19,0,5.77-2.51,5.77-5.6v-13.74c0-3.09-2.58-5.59-5.77-5.59h0Zm-2.52,21.51l-17.18-.28V29.51h17.13c1.74,0,3.74,1.02,3.74,2.71l.18,11.67c0,1.69-.77,3.65-3.87,3.42h0Z"/>
      <path d="M60.5,47.64h-18.43c-.18,0-.33-.15-.33-.33V29.5c0-.18,.15-.33,.33-.33h18.43c1.62,0,2.94,1.26,2.94,2.81,0,.18-.15,.33-.33,.33s-.33-.15-.33-.33c0-1.19-1.03-2.15-2.29-2.15h-18.11v17.15h18.11c1.26,0,2.29-.97,2.29-2.15v-10.02c0-.18,.15-.33,.33-.33s.33,.15,.33,.33v10.02c0,1.55-1.32,2.81-2.94,2.81h0Z"/>
      <circle cx="63.13" cy="33.39" r=".42"/>
      <rect class="cls-5" x="64.91" y="36.84" width="2.21" height="6.75" rx="1.1" ry="1.1"/>
      <rect class="cls-5" x="66.1" y="29.23" width="1.21" height="17.84"/>
      <path d="M61.57,51.41h-20.7c-.18,0-.33-.15-.33-.33V25.74c0-.18,.15-.33,.33-.33h20.7c3.49,0,6.32,2.7,6.32,6.02v13.96c0,3.32-2.83,6.02-6.32,6.02Zm-20.37-.65h20.37c3.12,0,5.67-2.41,5.67-5.36v-13.96c0-2.96-2.54-5.36-5.67-5.36h-20.37v24.69h0Z"/>
      <ellipse class="cls-10" cx="14.16" cy="54.34" rx="5.24" ry="6.51" transform="translate(-30.46 20.25) rotate(-38.01)"/>
      <path class="cls-7" d="M18.28,59.52c-2.28,1.78-5.92,.93-8.13-1.9s-2.16-6.57,.12-8.35c.19-.15,.39-.28,.6-.39-1.75,1.91-1.63,5.27,.4,7.87,2.03,2.6,5.26,3.53,7.54,2.29-.16,.17-.33,.34-.52,.48h-.01Z"/>
      <path d="M15.37,60.73c-1.98,0-4.11-1.05-5.6-2.96-2.32-2.98-2.24-6.94,.18-8.83,1.19-.93,2.74-1.22,4.38-.84,1.61,.38,3.11,1.37,4.23,2.8s1.72,3.13,1.7,4.78c-.02,1.68-.69,3.12-1.88,4.05-.87,.68-1.92,1-3.01,1Zm-2.41-12.11c-.97,0-1.87,.29-2.59,.86-2.13,1.66-2.16,5.19-.06,7.87,2.09,2.68,5.53,3.5,7.65,1.84,1.02-.8,1.59-2.05,1.61-3.52,.02-1.5-.53-3.05-1.55-4.35-1.02-1.31-2.39-2.22-3.85-2.56-.41-.1-.82-.14-1.21-.14Z"/>
      <ellipse class="cls-7" cx="12.12" cy="51.67" rx="1.69" ry="1.3" transform="translate(-29.25 18.42) rotate(-38.01)"/>
      <path d="M11.68,53.37c-.46,0-.86-.18-1.11-.5-.51-.66-.26-1.71,.57-2.36s1.92-.64,2.43,.02c.25,.33,.33,.76,.21,1.21-.11,.43-.39,.84-.78,1.15s-.86,.48-1.31,.48h-.01Zm.79-2.92c-.34,0-.73,.13-1.06,.39-.64,.5-.87,1.29-.5,1.77,.17,.22,.44,.34,.77,.34h.01c.36,0,.73-.14,1.05-.39s.54-.58,.63-.92c.08-.32,.04-.62-.14-.84-.18-.23-.46-.34-.77-.34h0Z"/>
      <path d="M15.62,49.22c-.05,0-.1,0-.15-.03-.17-.08-.24-.29-.16-.46l3.84-7.85c.08-.17,.29-.24,.46-.16s.24,.29,.16,.46l-3.84,7.85c-.06,.12-.18,.19-.31,.19Z"/>
      <path d="M9.54,61.31s-.1-.01-.15-.03c-.17-.08-.24-.29-.16-.46l2.57-5.37c.08-.17,.29-.24,.46-.16,.17,.08,.24,.29,.16,.46l-2.57,5.37c-.06,.12-.18,.19-.31,.19Z"/>
      <path class="cls-4" d="M57.59,16.95c0,3.98-3.22,7.21-7.21,7.21-2.18,0-4.13-.97-5.45-2.5-.26,.03-.53,.05-.81,.05-.92,0-1.82-.18-2.63-.49-.68-1.73-2.75-5.32-2.75-7.29,0-3.49,1.02-6.33,4.78-7.58,.07,.31,.13,.62,.16,.95,.15,0,.29-.02,.44-.02,2.18,0,4.13,.97,5.45,2.5,.27-.03,.54-.05,.81-.05,3.99,0,7.21,3.22,7.21,7.21h0Z"/>
      <path class="cls-11" d="M19.48,57.97H56.37v3.93c0,2.19-1.78,3.97-3.97,3.97H23.44c-2.19,0-3.97-1.78-3.97-3.97v-3.93h0Z"/>
      <path class="cls-9" d="M19.48,55.85H56.37v6.77c0,.62-.5,1.12-1.12,1.12H20.61c-.62,0-1.12-.5-1.12-1.12v-6.77h-.01Z"/>
      <path d="M52.4,66.38H23.44c-2.4,0-4.35-1.95-4.35-4.35v-3.93c0-.21,.17-.38,.38-.38H56.36c.21,0,.38,.17,.38,.38v3.93c0,2.4-1.95,4.35-4.35,4.35h.01Zm-32.54-7.9v3.55c0,1.98,1.61,3.58,3.58,3.58h28.96c1.98,0,3.58-1.61,3.58-3.58v-3.55H19.86Z"/>
      <path d="M50.38,24.19c-2.13,0-4.17-.9-5.61-2.48-.22,.02-.43,.03-.65,.03-3.83,0-7-2.78-7.52-6.54-.97,.02-1.92-.16-2.83-.51-.86,3.32-3.88,5.68-7.35,5.68-4.19,0-7.6-3.41-7.6-7.6s3.41-7.6,7.6-7.6c.93,0,1.85,.17,2.72,.51,.35-1.35,1.06-2.57,2.08-3.55,.15-.15,.39-.14,.54,0,.15,.15,.14,.39,0,.54-1.01,.98-1.69,2.23-1.96,3.6-.02,.11-.1,.21-.2,.27-.1,.05-.23,.06-.33,0-.9-.41-1.86-.62-2.83-.62-3.77,0-6.83,3.06-6.83,6.83s3.06,6.83,6.83,6.83c3.26,0,6.08-2.32,6.7-5.52,.02-.12,.1-.21,.2-.27s.23-.06,.33,0c1,.46,2.08,.68,3.14,.61h.11c.21-.02,.38,.13,.4,.34,.32,3.54,3.24,6.21,6.8,6.21,.26,0,.51-.02,.77-.05,.13,0,.25,.04,.33,.13,1.3,1.5,3.18,2.37,5.16,2.37,3.77,0,6.83-3.06,6.83-6.83s-3.06-6.83-6.83-6.83c-.26,0-.51,.02-.77,.05-.13,.02-.25-.03-.33-.13-1.37-1.58-3.42-2.48-5.47-2.35h-.11c-.2,.02-.38-.13-.4-.34-.32-3.54-3.24-6.21-6.8-6.21-.75,0-1.49,.12-2.19,.36-.2,.07-.42-.04-.48-.24-.07-.2,.04-.42,.24-.48,.78-.26,1.6-.4,2.43-.4,3.83,0,7,2.78,7.52,6.54,2.19-.06,4.25,.88,5.71,2.48,.22-.02,.43-.03,.65-.03,4.19,0,7.6,3.41,7.6,7.6s-3.41,7.6-7.6,7.6Z"/>
      <rect class="cls-1" x="17.57" y="13.91" width="40.65" height="47.91" rx="2.8" ry="2.8"/>
      <path class="cls-2" d="M58.05,16.89V59.2c0,1.55-1.26,2.81-2.81,2.81h-7.99c1.55,0,2.81-1.26,2.81-2.81V16.89c0-1.55-1.26-2.81-2.81-2.81h7.99c1.55,0,2.81,1.26,2.81,2.81Z"/>
      <path class="cls-6" d="M22.85,61.83h-2.54c-1.55,0-2.81-1.26-2.81-2.81V16.71c0-1.55,1.26-2.81,2.81-2.81h2.54c-1.55,0-2.81,1.26-2.81,2.81V59.02c0,1.55,1.26,2.81,2.81,2.81Z"/>
      <g>
        <path class="cls-3" d="M52.3,56.09c-.09,0-.17-.08-.17-.17,0-.07,.05-.14,.12-.16l3.21-1.12c.09-.03,.19,.02,.22,.1,.03,.09-.02,.19-.1,.22l-3.21,1.12s-.04,.01-.06,.01h0Z"/>
        <path class="cls-3" d="M52.85,56.87c-.09,0-.17-.08-.17-.17,0-.07,.05-.13,.11-.16l1.76-.59c.09-.04,.19,0,.22,.09,.04,.09,0,.19-.09,.22h-.02l-1.76,.59h-.05v.02Z"/>
      </g>
      <g>
        <ellipse class="cls-2" cx="48.72" cy="53.64" rx="4.02" ry="2.85" transform="translate(-23.67 50.26) rotate(-45.08)"/>
        <ellipse class="cls-2" cx="47.86" cy="47.38" rx="1.73" ry="1.21" transform="translate(-10.68 14.08) rotate(-15.08)"/>
        <g class="cls-14">
          <circle class="cls-2" cx="43.78" cy="53.78" r=".74"/>
          <ellipse class="cls-2" cx="45.12" cy="50.74" rx=".75" ry=".48" transform="translate(-11.65 13.49) rotate(-15.08)"/>
          <circle class="cls-2" cx="42.36" cy="56.37" r=".29"/>
        </g>
      </g>
      <circle class="cls-1" cx="53.78" cy="37.78" r="1.91"/>
      <circle class="cls-1" cx="53.14" cy="42.59" r="1.09"/>
      <circle class="cls-1" cx="53.8" cy="26.69" r="1.2"/>
      <path d="M55.6,62.21H20.55c-1.76,0-3.19-1.43-3.19-3.19v-5c0-.21,.17-.38,.38-.38s.38,.17,.38,.38v5c0,1.33,1.09,2.42,2.42,2.42H55.59c1.33,0,2.42-1.09,2.42-2.42V16.72c0-1.33-1.09-2.42-2.42-2.42H20.54c-1.33,0-2.42,1.09-2.42,2.42,0,.21-.17,.38-.38,.38s-.38-.17-.38-.38c0-1.76,1.43-3.19,3.19-3.19H55.6c1.76,0,3.19,1.43,3.19,3.19V59.03c0,1.76-1.43,3.19-3.19,3.19h0Z"/>
      <g>
        <path class="cls-5" d="M27.1,12.96h6.17v15.06c0,1.7-1.38,3.09-3.09,3.09h0c-1.7,0-3.09-1.38-3.09-3.09V12.96h0Z"/>
        <rect x="26.72" y="12.96" width=".77" height="8.48"/>
        <path d="M30.19,31.49c-1.91,0-3.47-1.56-3.47-3.47v-4.98h.77v4.98c0,1.49,1.21,2.7,2.7,2.7s2.7-1.21,2.7-2.7V12.96h.77v15.06c0,1.91-1.56,3.47-3.47,3.47h0Z"/>
      </g>
      <path class="cls-4" d="M38.53,13.15h6.17v8.54c0,1.7-1.38,3.09-3.09,3.09h0c-1.7,0-3.09-1.38-3.09-3.09V13.15h0Z"/>
      <path d="M41.62,25.16c-1.91,0-3.47-1.56-3.47-3.47V13.15c0-.21,.17-.38,.38-.38s.38,.17,.38,.38v8.54c0,1.49,1.21,2.7,2.7,2.7s2.7-1.21,2.7-2.7V13.15c0-.21,.17-.38,.38-.38s.38,.17,.38,.38v8.54c0,1.91-1.56,3.47-3.47,3.47h.02Z"/>
      <rect class="cls-6" x="19.61" y="21.35" width="2.59" height="17.15" rx="1.29" ry="1.29"/>
      <rect class="cls-6" x="19.61" y="46.63" width="1.97" height="12.02" rx=".94" ry=".94"/>
      <rect class="cls-5" x="17.98" y="23.9" width="1.97" height="12.02" rx=".94" ry=".94"/>
      <rect class="cls-5" x="17.98" y="39.48" width="1.51" height="9.23" rx=".73" ry=".73"/>
      <path d="M17.75,50.18c-.21,0-.38-.17-.38-.38V22.04c0-.21,.17-.38,.38-.38s.38,.17,.38,.38v27.76c0,.21-.17,.38-.38,.38Z"/>
      <rect class="cls-6" x="25.38" y="33.15" width="3.12" height="15.27" rx="1.56" ry="1.56"/>
      <rect class="cls-6" x="34.45" y="42.41" width="3.12" height="15.27" rx="1.56" ry="1.56"/>
      <path class="cls-2" d="M45.45,26.8h0c.86,0,1.56,.7,1.56,1.56v12.15c0,.86-.7,1.56-1.56,1.56h0c-.86,0-1.56-.7-1.56-1.56v-12.15c0-.86,.7-1.56,1.56-1.56Z"/>
      <path d="M27.42,3.4c-.78,0-1.42-.64-1.42-1.42s.64-1.42,1.42-1.42,1.42,.64,1.42,1.42-.64,1.42-1.42,1.42Zm0-2.45c-.57,0-1.03,.46-1.03,1.03s.46,1.03,1.03,1.03,1.03-.46,1.03-1.03-.46-1.03-1.03-1.03Z"/>
      <path d="M19.03,5.77c-.59,0-1.14-.23-1.56-.65-.86-.86-.86-2.26,0-3.12h0c.84-.84,2.29-.83,3.12,0,.42,.42,.65,.97,.65,1.56s-.23,1.15-.65,1.56c-.42,.42-.97,.65-1.56,.65Zm-1.14-3.35c-.63,.63-.63,1.65,0,2.28s1.67,.61,2.28,0c.3-.3,.47-.71,.47-1.14s-.17-.84-.47-1.14c-.61-.61-1.67-.61-2.28,0h0Z"/>
      <circle cx="17.87" cy="19.49" r=".75"/>
      <circle cx="16.96" cy="11.23" r=".75"/>
      <circle cx="47.33" cy="3.09" r=".75"/>
      <circle cx="17.84" cy="51.89" r=".75"/>
      <circle class="cls-4" cx="36.97" cy="7.95" r=".88"/>
      <circle class="cls-4" cx="38.26" cy="2.84" r=".95"/>
      <circle class="cls-4" cx="40.1" cy="8.83" r=".61"/>
      <circle class="cls-4" cx="32.48" cy="8.08" r=".75"/>
      <circle class="cls-4" cx="32" cy="10.33" r=".68"/>
      <g>
        <path class="cls-12" d="M17.04,63.86c-.15,0-.27-.12-.27-.27s.12-.27,.27-.27l6-.03h0c.15,0,.27,.12,.27,.27s-.12,.27-.27,.27l-6,.03h0Z"/>
        <path class="cls-12" d="M18.23,65.09c-.15,0-.27-.12-.27-.27s.12-.27,.27-.27l6-.03h0c.15,0,.27,.12,.27,.27s-.12,.27-.27,.27l-6,.03h0Z"/>
      </g>
      <g>
        <path class="cls-12" d="M53.67,18.22c-.15,0-.27-.12-.27-.27s.12-.27,.27-.27l6-.03h0c.15,0,.27,.12,.27,.27s-.12,.27-.27,.27l-6,.03h0Z"/>
        <path class="cls-12" d="M54.86,19.45c-.15,0-.27-.12-.27-.27s.12-.27,.27-.27l6-.03h0c.15,0,.27,.12,.27,.27s-.12,.27-.27,.27l-6,.03h0Z"/>
      </g>
    </g>
  </g>
</svg>