<?xml version="1.0" encoding="UTF-8"?>
<svg id="Layer_2" data-name="Layer 2" xmlns="http://www.w3.org/2000/svg" viewBox="0 0 653.65 840.58">
  <defs>
    <style>
      .cls-1, .cls-2, .cls-3, .cls-4 {
        fill: #f99269;
      }

      .cls-5, .cls-6 {
        fill: #005c84;
      }

      .cls-7, .cls-8, .cls-9 {
        fill: #fff;
      }

      .cls-10 {
        fill: #ffe986;
      }

      .cls-11, .cls-12 {
        fill: #fff6d2;
      }

      .cls-13 {
        fill: #f2d249;
      }

      .cls-14 {
        fill: #ffb999;
      }

      .cls-15 {
        fill: #ffd5c5;
      }

      .cls-16 {
        fill: #feb999;
      }

      .cls-17 {
        fill: #b79815;
      }

      .cls-18 {
        fill: #333;
      }

      .cls-19 {
        fill: #ad3d3d;
      }

      .cls-20 {
        fill: #d1f2ec;
      }

      .cls-21 {
        fill: #c64f4f;
      }

      .cls-22 {
        fill: #d6bb4c;
      }

      .cls-23 {
        fill: #d4f0fc;
      }

      .cls-24 {
        fill: #dbb721;
      }

      .cls-25 {
        fill: #1e1e1e;
      }

      .cls-26 {
        fill: #95d1c8;
      }

      .cls-27 {
        fill: #4a949f;
      }

      .cls-28 {
        fill: #7bb7b0;
      }

      .cls-29 {
        fill: #fba07b;
        opacity: .5;
      }

      .cls-29, .cls-2, .cls-8, .cls-12, .cls-3, .cls-4, .cls-6, .cls-9 {
        isolation: isolate;
      }

      .cls-2 {
        opacity: .56;
      }

      .cls-8 {
        opacity: .82;
      }

      .cls-12 {
        opacity: .66;
      }

      .cls-3 {
        opacity: .63;
      }

      .cls-4 {
        opacity: .38;
      }

      .cls-6, .cls-30 {
        opacity: .39;
      }

      .cls-9 {
        opacity: .42;
      }

      .cls-31 {
        opacity: .57;
      }
    </style>
  </defs>
  <g id="Layer_1-2" data-name="Layer 1">
    <g id="Layer_2-2" data-name="Layer 2">
      <g id="Layer_3" data-name="Layer 3">
        <circle class="cls-21" cx="159.88" cy="18.64" r="13.27"/>
        <circle class="cls-21" cx="180.21" cy="31.62" r="13.27"/>
        <circle class="cls-21" cx="191.79" cy="50.26" r="13.27"/>
        <circle class="cls-14" cx="191.81" cy="69.18" r="13.27"/>
        <circle class="cls-21" cx="123.48" cy="18.92" r="13.27"/>
        <circle class="cls-21" cx="103.15" cy="31.91" r="13.27"/>
        <circle class="cls-21" cx="91.58" cy="50.54" r="13.27"/>
        <circle class="cls-14" cx="87.06" cy="69.18" r="13.27"/>
        <circle class="cls-1" cx="87.06" cy="69.18" r="7.25"/>
        <circle class="cls-1" cx="192.09" cy="69.18" r="7.25"/>
        <rect class="cls-16" x="71.6" y="392.5" width="34.7" height="406.07"/>
        <rect class="cls-2" x="71.6" y="392.5" width="34.7" height="362.76"/>
        <rect class="cls-16" x="173.25" y="392.5" width="34.7" height="406.07"/>
        <rect class="cls-2" x="173.25" y="392.5" width="34.7" height="364.62"/>
        <rect class="cls-28" x="62.41" y="339.98" width="53.08" height="406.07"/>
        <rect class="cls-28" x="164.36" y="339.98" width="53.08" height="406.07"/>
        <rect class="cls-18" x="71.6" y="798.9" width="34.7" height="33.55"/>
        <rect class="cls-18" x="15.13" y="832.4" width="102.78" height="5.65"/>
        <rect class="cls-18" x="172.98" y="798.9" width="34.7" height="33.55"/>
        <rect class="cls-18" x="161.39" y="832.4" width="102.78" height="5.65"/>
        <path class="cls-27" d="M115.46,737H62.46c-.2,0-.36-.16-.36-.36,0-.2,.16-.36,.36-.36h53.01c.2,0,.36,.16,.36,.36,0,.2-.16,.35-.36,.36Z"/>
        <path class="cls-27" d="M115.46,741H62.46c-.2,.03-.38-.1-.41-.3s.1-.38,.3-.41c.04,0,.08,0,.12,0h53c.2,.03,.33,.22,.3,.41-.03,.15-.14,.27-.3,.3Z"/>
        <rect class="cls-1" x="64.71" y="783.6" width="27.03" height="1"/>
        <rect class="cls-1" x="64.71" y="787.55" width="27.03" height="1"/>
        <rect class="cls-1" x="186.68" y="783.6" width="27.03" height="1"/>
        <rect class="cls-1" x="186.68" y="787.55" width="27.03" height="1"/>
        <path class="cls-27" d="M217.48,737h-53c-.2,0-.36-.16-.36-.36,0-.2,.16-.36,.36-.36h53.01c.2,0,.36,.16,.36,.36,0,.2-.16,.36-.36,.36h0Z"/>
        <path class="cls-27" d="M217.48,741h-53c-.2,.03-.38-.1-.41-.3s.1-.38,.3-.41c.04,0,.08,0,.12,0h53c.2-.03,.38,.1,.41,.3s-.1,.38-.3,.41c-.04,0-.08,0-.12,0Z"/>
        <rect class="cls-28" x="62.41" y="188.78" width="155.03" height="197.3"/>
        <rect class="cls-6" x="62.41" y="188.78" width="155.03" height="161.15"/>
        <rect class="cls-10" x="52.96" y="131.43" width="173.93" height="203.29"/>
        <path class="cls-14" d="M163.87,321H33.9c-11.05,0-20-8.95-20-20v-101.92c.65-11.03,10.12-19.44,21.15-18.78,10.11,.6,18.18,8.67,18.78,18.78v82h110c11.03,.65,19.44,10.12,18.78,21.15-.6,10.11-8.67,18.18-18.78,18.78h.04Z"/>
        <path class="cls-14" d="M251.83,418.43c-11.05,0-20-8.95-20-20V213.77c0-11.05,8.95-20,20-20s20,8.95,20,20v184.66c0,11.05-8.95,20-20,20h0Z"/>
        <rect class="cls-3" x="231.83" y="193.01" width="40" height="66.89"/>
        <rect class="cls-3" x="13.85" y="193.01" width="40" height="66.89"/>
        <path class="cls-10" d="M279.25,246.35h-53.08v-114.89h0c29.32,0,53.08,23.76,53.08,53.08h0v61.8h0Z"/>
        <rect class="cls-17" x="225.01" y="199.93" width="1.5" height="46.55"/>
        <path class="cls-6" d="M130.61,354c-1.31,0-2.38-1.07-2.38-2.38,0-1.31,1.07-2.38,2.38-2.38s2.38,1.07,2.38,2.38-1.07,2.38-2.38,2.38h0Zm0-3.76c-.76,0-1.38,.62-1.38,1.38,0,.76,.62,1.38,1.38,1.38s1.38-.62,1.38-1.38c-.02-.75-.63-1.35-1.38-1.35v-.03Z"/>
        <path class="cls-6" d="M130.61,361.94c-1.32,0-2.39-1.06-2.4-2.38,0-1.32,1.06-2.39,2.38-2.4s2.39,1.06,2.4,2.38c0,0,0,0,0,0,0,1.31-1.06,2.38-2.37,2.39,0,0,0,0-.01,0Zm0-3.77c-.77,0-1.39,.61-1.4,1.38,0,.77,.61,1.39,1.38,1.4,.77,0,1.39-.61,1.4-1.38,0,0,0-.01,0-.02,0-.76-.62-1.38-1.38-1.38h0Z"/>
        <path class="cls-6" d="M130.61,369.09c-1.31,0-2.38-1.07-2.38-2.38,0-1.31,1.07-2.38,2.38-2.38s2.38,1.07,2.38,2.38-1.07,2.38-2.38,2.38h0Zm0-3.76c-.76,0-1.38,.62-1.38,1.38,0,.76,.62,1.38,1.38,1.38s1.38-.62,1.38-1.38-.62-1.38-1.38-1.38h0Z"/>
        <path class="cls-26" d="M73.85,537.04h0c2.44,0,4.41,1.97,4.41,4.41v23.96c0,2.44-1.97,4.41-4.41,4.41h0c-2.44,0-4.41-1.97-4.41-4.41v-23.96c0-2.44,1.97-4.41,4.41-4.41Z"/>
        <path class="cls-26" d="M99.19,408.15h0c2.44,0,4.41,1.97,4.41,4.41v23.96c0,2.44-1.97,4.41-4.41,4.41h0c-2.44,0-4.41-1.97-4.41-4.41v-23.96c0-2.44,1.97-4.41,4.41-4.41Z"/>
        <path class="cls-26" d="M100.7,658.77h0c2.44,0,4.41,1.97,4.41,4.41v23.96c0,2.44-1.97,4.41-4.41,4.41h0c-2.44,0-4.41-1.97-4.41-4.41v-23.96c0-2.44,1.97-4.41,4.41-4.41Z"/>
        <path class="cls-6" d="M139,386c-.58,0-1.05-.48-1.06-1.06v-48.86c.06-.59,.58-1.02,1.17-.96,.51,.05,.91,.45,.96,.96v48.83c.01,.59-.46,1.08-1.05,1.09,0,0-.01,0-.02,0Z"/>
        <path class="cls-6" d="M63.28,357c-.59,0-1.06-.48-1.06-1.06,0-.58,.47-1.06,1.06-1.06,6.56,0,11.89-5.32,11.91-11.88v-7.35c.06-.59,.58-1.02,1.17-.96,.51,.05,.91,.45,.96,.96v7.35c0,7.73-6.27,14-14,14-.01,0-.03,0-.04,0Z"/>
        <path class="cls-6" d="M217.86,357c-7.73,0-14-6.27-14-14v-7.35c0-.59,.48-1.06,1.06-1.06,.58,0,1.06,.47,1.06,1.06v7.35c.01,6.58,5.34,11.9,11.92,11.91,.59,0,1.06,.48,1.06,1.06,0,.58-.47,1.06-1.06,1.06l-.04-.03Z"/>
        <path class="cls-24" d="M140.11,157.92c-13.07-.02-23.66-10.61-23.68-23.68,0-.55,.45-1,1-1s1,.45,1,1c.26,11.98,10.17,21.48,22.15,21.22,11.61-.25,20.97-9.61,21.22-21.22,0-.55,.45-1,1-1s1,.45,1,1c-.02,13.08-10.61,23.67-23.69,23.68Z"/>
        <path class="cls-14" d="M139.92,47.75h0c9.44,0,17.1,7.66,17.1,17.1v65.67c0,9.44-7.66,17.1-17.1,17.1h0c-9.44,0-17.1-7.66-17.1-17.1V64.85c0-9.44,7.66-17.1,17.1-17.1Z"/>
        <path class="cls-14" d="M139.92,47.75h0c9.44,0,17.1,7.66,17.1,17.1v65.67c0,9.44-7.66,17.1-17.1,17.1h0c-9.44,0-17.1-7.66-17.1-17.1V64.85c0-9.44,7.66-17.1,17.1-17.1Z"/>
        <path class="cls-3" d="M139.92,32.7h0c9.44,0,17.1,7.66,17.1,17.1V115.47c0,9.44-7.66,17.1-17.1,17.1h0c-9.44,0-17.1-7.66-17.1-17.1V49.8c0-9.44,7.66-17.1,17.1-17.1Z"/>
        <circle class="cls-14" cx="139.93" cy="65.53" r="53.09"/>
        <path class="cls-4" d="M193,65.53c.4,29.32-23.04,53.42-52.37,53.82-29.32,.4-53.42-23.04-53.82-52.37,0-.49,0-.97,0-1.46,0-3.09,.27-6.18,.8-9.23,5.09,28.88,32.62,48.17,61.51,43.08,21.99-3.87,39.21-21.09,43.08-43.08,.53,3.05,.8,6.14,.8,9.23Z"/>
        <path class="cls-10" d="M53.08,131.46h0v114.89H0v-61.8c0-29.32,23.75-53.08,53.07-53.09h0Z"/>
        <rect class="cls-17" x="52.45" y="195.32" width="1.5" height="51.07"/>
        <circle class="cls-25" cx="125.39" cy="60.03" r="4.66"/>
        <circle class="cls-25" cx="156.87" cy="60.03" r="4.66"/>
        <circle class="cls-21" cx="141.27" cy="13.27" r="13.27"/>
        <path class="cls-7" d="M209.67,261.22h-48.33c-1.73,0-3.13,1.4-3.13,3.13h0v69.46c0,2.08,1.68,3.76,3.76,3.76h47.08c2.07,0,3.75-1.68,3.75-3.75,0,0,0,0,0-.01l-.22-31.53,.22-37.93c0-1.73-1.4-3.13-3.13-3.13Z"/>
        <rect class="cls-7" x="156.27" y="259.49" width="59.46" height="6.31" rx="3.15" ry="3.15"/>
        <path class="cls-23" d="M212.8,265.78v2.14c-.07,0-.13,0-.2,0h-53.18c-.42,0-.83-.09-1.21-.26v-2.14c.38,.17,.79,.26,1.21,.25h53.38Z"/>
        <rect class="cls-7" x="156.27" y="333.81" width="59.46" height="6.31" rx="3.15" ry="3.15"/>
        <path class="cls-23" d="M215.73,337c0,.83-.34,1.63-.92,2.23-.59,.59-1.39,.92-2.23,.92h-53.15c-1.74,0-3.15-1.4-3.16-3.14,0,0,0,0,0-.01,0-.43,.09-.85,.25-1.24,.5,1.16,1.65,1.91,2.91,1.91h53.15c.84,0,1.64-.33,2.23-.92,.28-.29,.51-.63,.67-1,.17,.4,.25,.82,.25,1.25Z"/>
        <path class="cls-15" d="M65.86,289.42h0c0-1.31,1.04-2.38,2.35-2.39l17.09-.13c1.31,0,2.38,1.04,2.39,2.35h0c0,1.31-1.04,2.38-2.35,2.39l-17.09,.13c-1.31,0-2.38-1.04-2.39-2.35Z"/>
        <circle class="cls-15" cx="94.7" cy="289.56" r="2.6"/>
        <path class="cls-13" d="M150.08,324.94H57.57c-1.1,0-2-.9-2-2s.9-2,2-2h92.51c1.1,0,2,.9,2,2s-.9,2-2,2Z"/>
        <g class="cls-31">
          <rect class="cls-22" x="34.6" y="160.99" width="19.07" height="2" transform="translate(-79.02 47.88) rotate(-31.94)"/>
          <rect class="cls-22" x="42.54" y="163.7" width="9.75" height="2" transform="translate(-80.83 51) rotate(-32.38)"/>
        </g>
        <g class="cls-31">
          <rect class="cls-22" x="197.64" y="241.59" width="19.07" height="2" transform="translate(-96.98 146.36) rotate(-31.94)"/>
          <rect class="cls-22" x="205.16" y="243.33" width="9.75" height="2" transform="translate(-98.19 150.47) rotate(-32.38)"/>
        </g>
        <g class="cls-30">
          <path class="cls-5" d="M194.06,391.72c-.36,0-.7-.18-.9-.49-.31-.5-.16-1.15,.33-1.47l16.1-10.16c.51-.29,1.16-.1,1.44,.41,.26,.47,.13,1.07-.31,1.38l-16.09,10.17c-.17,.1-.37,.16-.57,.16Z"/>
          <path class="cls-5" d="M200.84,392.85c-.58,.05-1.1-.39-1.14-.97-.04-.43,.19-.83,.57-1.03l8.23-5.22c.5-.32,1.16-.17,1.48,.33,0,.01,.02,.03,.02,.04,.31,.49,.16,1.15-.33,1.46l-8.24,5.23c-.18,.11-.38,.17-.59,.16Z"/>
        </g>
        <path class="cls-7" d="M123.88,97.19c-2.22,0-4-2.12-4-4.73,0-.38,.04-.77,.12-1.14,2.76-13.1,14-21.08,25.09-17.83,7.44,2.18,13.26,9,15.11,17.83,.53,2.53-.77,5.1-2.92,5.73-.32,.09-.66,.14-1,.14h-32.4Z"/>
        <circle class="cls-21" cx="534.28" cy="106.16" r="13.27"/>
        <circle class="cls-21" cx="554.61" cy="119.15" r="13.27"/>
        <circle class="cls-21" cx="566.19" cy="137.79" r="13.27"/>
        <circle class="cls-14" cx="566.21" cy="156.71" r="13.27"/>
        <circle class="cls-21" cx="497.88" cy="106.45" r="13.27"/>
        <circle class="cls-21" cx="477.55" cy="119.44" r="13.27"/>
        <circle class="cls-21" cx="465.98" cy="138.07" r="13.27"/>
        <circle class="cls-19" cx="499.58" cy="110.59" r="13.27"/>
        <circle class="cls-19" cx="479.25" cy="123.58" r="13.27"/>
        <circle class="cls-19" cx="467.67" cy="142.21" r="13.27"/>
        <circle class="cls-14" cx="461.46" cy="156.71" r="13.27"/>
        <circle class="cls-1" cx="461.46" cy="156.71" r="7.25"/>
        <circle class="cls-1" cx="566.49" cy="156.71" r="7.25"/>
        <rect class="cls-16" x="446" y="480.03" width="34.7" height="321.07"/>
        <rect class="cls-2" x="446" y="480.03" width="34.7" height="277.76"/>
        <rect class="cls-16" x="547.65" y="480.03" width="34.7" height="321.07"/>
        <rect class="cls-2" x="547.65" y="480.03" width="34.7" height="279.62"/>
        <rect class="cls-28" x="436.81" y="427.51" width="53.08" height="321.07"/>
        <rect class="cls-28" x="538.76" y="427.51" width="53.08" height="321.07"/>
        <rect class="cls-18" x="446" y="801.43" width="34.7" height="33.55"/>
        <rect class="cls-18" x="389.53" y="834.93" width="102.78" height="5.65"/>
        <rect class="cls-18" x="547.39" y="801.43" width="34.7" height="33.55"/>
        <rect class="cls-18" x="535.78" y="834.93" width="102.78" height="5.65"/>
        <path class="cls-27" d="M489.85,739.55h-53c-.2,0-.36-.16-.36-.36,0-.2,.16-.35,.36-.36h53c.2,0,.36,.16,.36,.36,0,.2-.16,.36-.36,.36h0Z"/>
        <path class="cls-27" d="M489.85,743.5h-53c-.2,.03-.38-.1-.41-.3s.1-.38,.3-.41c.04,0,.08,0,.12,0h53c.2-.03,.38,.1,.41,.3s-.1,.38-.3,.41c-.04,0-.08,0-.12,0Z"/>
        <path class="cls-27" d="M591.88,739.55h-53c-.2,0-.36-.16-.36-.36,0-.2,.16-.35,.36-.36h53c.2,0,.36,.16,.36,.36,0,.2-.16,.36-.36,.36h0Z"/>
        <path class="cls-27" d="M591.88,743.5h-53c-.2,.03-.38-.1-.41-.3s.1-.38,.3-.41c.04,0,.08,0,.12,0h53c.2-.03,.38,.1,.41,.3s-.1,.38-.3,.41c-.04,0-.08,0-.12,0Z"/>
        <rect class="cls-28" x="436.81" y="276.31" width="155.03" height="197.3"/>
        <rect class="cls-6" x="436.81" y="276.31" width="155.03" height="161.15"/>
        <rect class="cls-10" x="427.36" y="218.96" width="173.93" height="203.29"/>
        <path class="cls-14" d="M538.27,408.51h-130c-11.05,0-20-8.95-20-20v-101.9c-.7-11.02,7.67-20.53,18.7-21.22,11.02-.7,20.53,7.67,21.22,18.7,.05,.84,.05,1.69,0,2.53v82h110c11.03,.65,19.44,10.12,18.78,21.15-.6,10.11-8.67,18.18-18.78,18.78l.08-.03Z"/>
        <path class="cls-14" d="M626.23,506c-11.05,0-20-8.95-20-20v-184.7c0-11.05,8.95-20,20-20s20,8.95,20,20v184.7c0,11.05-8.95,20-20,20Z"/>
        <rect class="cls-3" x="606.23" y="280.54" width="40" height="66.89"/>
        <rect class="cls-3" x="388.25" y="280.54" width="40" height="66.89"/>
        <path class="cls-10" d="M653.65,333.87h-53.08v-114.88h0c29.32,0,53.08,23.76,53.08,53.08h0v61.8h0Z"/>
        <rect class="cls-17" x="599.41" y="287.46" width="1.5" height="46.55"/>
        <path class="cls-6" d="M505,441.56c-1.31,0-2.38-1.07-2.38-2.38s1.07-2.38,2.38-2.38,2.38,1.07,2.38,2.38-1.07,2.38-2.38,2.38h0Zm0-3.76c-.76,0-1.38,.62-1.38,1.38s.62,1.38,1.38,1.38,1.38-.62,1.38-1.38-.62-1.38-1.38-1.38h0Z"/>
        <path class="cls-6" d="M505,449.47c-1.32,0-2.39-1.06-2.4-2.38s1.06-2.39,2.38-2.4,2.39,1.06,2.4,2.38c0,0,0,0,0,0,0,1.31-1.06,2.38-2.37,2.39,0,0,0,0-.01,0Zm0-3.77c-.77,0-1.39,.61-1.4,1.38,0,.77,.61,1.39,1.38,1.4,.77,0,1.39-.61,1.4-1.38,0,0,0-.01,0-.02,0-.76-.62-1.38-1.38-1.38h0Z"/>
        <path class="cls-6" d="M505,456.62c-1.32,0-2.39-1.06-2.4-2.38,0-1.32,1.06-2.39,2.38-2.4,1.32,0,2.39,1.06,2.4,2.38,0,0,0,.01,0,.02,0,1.31-1.07,2.38-2.38,2.38h0Zm0-3.77c-.77,0-1.39,.61-1.4,1.38,0,.77,.61,1.39,1.38,1.4s1.39-.61,1.4-1.38c0,0,0,0,0,0,0-.76-.61-1.38-1.37-1.39,0,0,0,0-.01,0Z"/>
        <path class="cls-26" d="M447.61,640.53h0c2.44,0,4.41,1.97,4.41,4.41v23.96c0,2.44-1.97,4.41-4.41,4.41h0c-2.44,0-4.41-1.97-4.41-4.41v-23.96c0-2.44,1.97-4.41,4.41-4.41Z"/>
        <path class="cls-6" d="M513.38,473.5c-.58,0-1.05-.48-1.06-1.06v-48.83c.06-.59,.58-1.02,1.17-.96,.51,.05,.91,.45,.96,.96v48.83c0,.59-.48,1.06-1.07,1.06Z"/>
        <path class="cls-6" d="M437.68,444.52c-.59,0-1.06-.48-1.06-1.06,0-.58,.47-1.06,1.06-1.06,6.58-.01,11.9-5.34,11.91-11.92v-7.34c.06-.59,.58-1.02,1.17-.96,.51,.05,.91,.45,.96,.96v7.34c-.01,7.75-6.29,14.03-14.04,14.04Z"/>
        <path class="cls-6" d="M592.25,444.52c-7.73,0-14-6.27-14-14v-7.34c0-.59,.48-1.06,1.06-1.06,.58,0,1.06,.47,1.06,1.06v7.34c0,6.58,5.33,11.91,11.91,11.92,.59,0,1.06,.47,1.06,1.06s-.47,1.06-1.06,1.06h0l-.03-.04Z"/>
        <path class="cls-24" d="M514.51,245.45c-13.07-.02-23.66-10.61-23.68-23.68,0-.55,.45-1,1-1s1,.45,1,1c.26,11.98,10.17,21.48,22.15,21.22,11.61-.25,20.97-9.61,21.22-21.22,0-.55,.45-1,1-1s1,.45,1,1c-.02,13.08-10.61,23.67-23.69,23.68Z"/>
        <path class="cls-14" d="M514.32,135.28h0c9.44,0,17.1,7.66,17.1,17.1v65.67c0,9.44-7.66,17.1-17.1,17.1h0c-9.44,0-17.1-7.66-17.1-17.1v-65.67c0-9.44,7.66-17.1,17.1-17.1Z"/>
        <path class="cls-14" d="M514.32,135.28h0c9.44,0,17.1,7.66,17.1,17.1v65.67c0,9.44-7.66,17.1-17.1,17.1h0c-9.44,0-17.1-7.66-17.1-17.1v-65.67c0-9.44,7.66-17.1,17.1-17.1Z"/>
        <path class="cls-3" d="M514.32,120.23h0c9.44,0,17.1,7.66,17.1,17.1v65.67c0,9.44-7.66,17.1-17.1,17.1h0c-9.44,0-17.1-7.66-17.1-17.1v-65.67c0-9.44,7.66-17.1,17.1-17.1Z"/>
        <circle class="cls-14" cx="514.33" cy="153.06" r="53.09" transform="translate(280.86 636.23) rotate(-80.78)"/>
        <path class="cls-4" d="M567.42,153.06c.4,29.32-23.04,53.42-52.37,53.82-29.32,.4-53.42-23.04-53.82-52.37,0-.49,0-.97,0-1.46,0-3.09,.27-6.18,.8-9.23,4.37,24.92,18,51.87,52.3,51.87,37.19,0,47.92-26.95,52.29-51.87,.53,3.05,.8,6.14,.8,9.23Z"/>
        <path class="cls-10" d="M427.48,219h0v114.88h-53.08v-61.8c0-29.32,23.76-53.08,53.08-53.08h0Z"/>
        <path class="cls-12" d="M382.31,294.31c-1.1,0-2-.9-2-2v-15c0-15.57,4.79-28.71,13.87-38,9.72-10,24.27-15.22,42.07-15.22,1.1,0,2,.9,2,2s-.9,2-2,2c-32.53,0-51.94,18.4-51.94,49.22v15c0,1.1-.9,2-2,2Z"/>
        <path class="cls-7" d="M385.61,259c-.23,0-.46-.04-.68-.12-1.03-.38-1.57-1.51-1.2-2.55,5.33-14.92,16.57-25.16,32.51-29.63,1.07-.27,2.16,.38,2.43,1.45,.26,1.03-.33,2.09-1.35,2.4-14.63,4.1-24.95,13.48-29.83,27.13-.29,.79-1.04,1.32-1.88,1.32Z"/>
        <rect class="cls-17" x="426.85" y="280.64" width="1.5" height="53.28"/>
        <circle class="cls-25" cx="499.78" cy="147.56" r="4.66"/>
        <circle class="cls-25" cx="531.27" cy="147.56" r="4.66"/>
        <circle class="cls-21" cx="515.67" cy="100.8" r="13.27" transform="translate(225.2 538.64) rotate(-67.5)"/>
        <path class="cls-7" d="M584.07,348.75h-48.33c-1.73,0-3.13,1.4-3.13,3.13h0v69.46c0,2.07,1.68,3.75,3.75,3.75h47.09c2.07,0,3.74-1.66,3.75-3.73v-.02l-.2-31.53,.22-37.93c0-1.73-1.4-3.13-3.13-3.13,0,0-.01,0-.02,0Z"/>
        <rect class="cls-7" x="530.67" y="347.02" width="59.46" height="6.31" rx="3.15" ry="3.15"/>
        <path class="cls-23" d="M587.19,353.31v2.14c-.07,0-.13,0-.2,0h-53.17c-.42,0-.83-.09-1.21-.26v-2.14c.38,.17,.79,.26,1.21,.25h53.37Z"/>
        <rect class="cls-7" x="530.67" y="421.34" width="59.46" height="6.31" rx="3.15" ry="3.15"/>
        <path class="cls-23" d="M590.13,424.5c0,.83-.34,1.63-.92,2.23-.59,.59-1.4,.92-2.24,.92h-53.14c-1.74,0-3.15-1.4-3.16-3.14h0c0-.44,.09-.86,.25-1.25,.5,1.16,1.65,1.91,2.91,1.91h53.17c.84,0,1.64-.33,2.24-.92,.28-.29,.51-.63,.67-1,.16,.4,.23,.82,.22,1.25Z"/>
        <path class="cls-15" d="M440.25,376.96h0c0-1.31,1.04-2.38,2.35-2.39l17.09-.13c1.31,0,2.38,1.04,2.39,2.35h0c0,1.31-1.04,2.38-2.35,2.39l-17.09,.13c-1.31,0-2.38-1.04-2.39-2.35Z"/>
        <circle class="cls-15" cx="469.1" cy="377.09" r="2.6"/>
        <path class="cls-13" d="M524.48,412.47h-92.48c-1.1,0-2-.9-2-2s.9-2,2-2h92.51c1.1,0,2,.9,2,2s-.9,2-2,2h-.03Z"/>
        <g class="cls-31">
          <rect class="cls-22" x="573.36" y="330.96" width="19.07" height="2" transform="translate(-87.36 358.68) rotate(-31.94)"/>
          <rect class="cls-22" x="579.56" y="330.85" width="9.75" height="2" transform="translate(-86.84 364.58) rotate(-32.38)"/>
        </g>
        <g class="cls-30">
          <path class="cls-5" d="M568.46,479.25c-.36,0-.7-.18-.9-.49-.31-.5-.16-1.15,.33-1.47l16.11-10.16c.51-.29,1.16-.1,1.44,.41,.26,.47,.13,1.07-.31,1.38l-16.13,10.17c-.16,.1-.35,.15-.54,.16Z"/>
          <path class="cls-5" d="M575.24,480.38c-.58,.05-1.1-.39-1.14-.97-.04-.43,.19-.83,.57-1.03l8.23-5.22c.51-.3,1.17-.14,1.47,.37,.3,.51,.14,1.17-.37,1.47h0l-8.24,5.23c-.16,.1-.34,.15-.52,.15Z"/>
        </g>
        <rect class="cls-29" x="504.3" y="127.27" width="21.17" height="1.35"/>
        <rect class="cls-29" x="495.51" y="123.36" width="38.74" height="1.35"/>
        <rect class="cls-29" x="504.3" y="131.19" width="21.17" height="1.35"/>
        <path class="cls-7" d="M532.39,164c2.22,0,4,2.12,4,4.73,0,.38-.04,.77-.12,1.14-2.76,13.1-14,21.08-25.09,17.83-7.44-2.18-13.26-9-15.11-17.83-.53-2.53,.77-5.1,2.92-5.73,.32-.09,.66-.14,1-.14h32.4Z"/>
        <path class="cls-9" d="M648,325.35h0c-3.02,0-5.46-2.44-5.46-5.46v-32.94c0-3.02,2.44-5.46,5.46-5.46h0c3.02,0,5.46,2.44,5.46,5.46v32.94c0,3.02-2.44,5.46-5.46,5.46Z"/>
        <path class="cls-8" d="M648,312.53h0c-3.02,0-5.46-2.44-5.46-5.46v-7.31c0-3.02,2.44-5.46,5.46-5.46h0c3.02,0,5.46,2.44,5.46,5.46v7.31c0,3.02-2.44,5.46-5.46,5.46Z"/>
        <path class="cls-15" d="M473.91,131.73c.86-1.76,1.83-3.46,2.93-5.09,.26-.37,.51-.73,.78-1.09l.23-.31c.16-.21-.11,.14,0-.06s.29-.37,.43-.54c.58-.7,1.18-1.37,1.81-2,.55-.62,.49-1.57-.14-2.12-.56-.49-1.39-.5-1.95-.02-2.74,2.86-5,6.14-6.7,9.71-.42,.72-.18,1.64,.54,2.06,.72,.42,1.64,.18,2.05-.54h.02Z"/>
        <path class="cls-14" d="M493.17,138.33c.83,0,1.5-.67,1.5-1.5s-.67-1.5-1.5-1.5h0c-.83,0-1.5,.67-1.5,1.5s.67,1.5,1.5,1.5Z"/>
        <circle class="cls-15" cx="483.91" cy="117.59" r="2.22"/>
        <circle class="cls-9" cx="647.71" cy="267.9" r="5.84"/>
        <path class="cls-26" d="M447.61,556.58c-1.66,0-3-1.34-3-3v-70c0-1.66,1.34-3,3-3s3,1.34,3,3v70c0,1.66-1.34,3-3,3Z"/>
        <path class="cls-26" d="M447.61,590.08c-1.66,0-3-1.34-3-3v-20c0-1.66,1.34-3,3-3s3,1.34,3,3v20c0,1.66-1.34,3-3,3Z"/>
        <path class="cls-20" d="M447.61,547.17c-1.66,0-3-1.34-3-3v-20c0-1.66,1.34-3,3-3s3,1.34,3,3v20c0,1.66-1.34,3-3,3Z"/>
        <path class="cls-15" d="M617.87,390c-1.38,0-2.5-1.12-2.5-2.5v-19.99c0-1.38,1.12-2.5,2.5-2.5s2.5,1.12,2.5,2.5v19.95c.02,1.38-1.08,2.52-2.46,2.54-.01,0-.03,0-.04,0Z"/>
        <path class="cls-7" d="M617.87,415.4c-1.38,0-2.5-1.12-2.5-2.5v-27c0-1.38,1.12-2.5,2.5-2.5s2.5,1.12,2.5,2.5v27c0,1.38-1.12,2.5-2.5,2.5Z"/>
        <path class="cls-7" d="M617.87,471.37c-1.38,0-2.5-1.12-2.5-2.5v-8.77c0-1.38,1.12-2.5,2.5-2.5s2.5,1.12,2.5,2.5v8.77c0,1.38-1.12,2.5-2.5,2.5Z"/>
        <path class="cls-15" d="M617.87,451.8c-1.38,0-2.5-1.12-2.5-2.5v-25c0-1.38,1.12-2.5,2.5-2.5s2.5,1.12,2.5,2.5v25c0,1.38-1.12,2.5-2.5,2.5Z"/>
        <path class="cls-20" d="M447.61,508.39c-1.66,0-3-1.34-3-3v-7.53c0-1.66,1.34-3,3-3s3,1.34,3,3h0v7.53c0,1.66-1.34,3-3,3Z"/>
        <path class="cls-26" d="M447.61,476.39c-1.66,0-3-1.34-3-3h0v-7.53c0-1.66,1.34-3,3-3s3,1.34,3,3v7.53c0,1.66-1.34,3-3,3h0Z"/>
        <path class="cls-11" d="M382.11,315c-1.1,0-2-.9-2-2v-11.3c0-1.1,.9-2,2-2s2,.9,2,2v11.3c0,1.1-.9,2-2,2Z"/>
      </g>
    </g>
  </g>
</svg>