<?xml version="1.0" encoding="UTF-8"?>
<svg id="Layer_2" data-name="Layer 2" xmlns="http://www.w3.org/2000/svg" viewBox="0 0 614.97 464.48">
  <defs>
    <style>
      .cls-1, .cls-2, .cls-3, .cls-4, .cls-5, .cls-6, .cls-7, .cls-8, .cls-9, .cls-10, .cls-11, .cls-12, .cls-13, .cls-14 {
        fill: none;
        stroke: #111;
      }

      .cls-1, .cls-9, .cls-14 {
        stroke-miterlimit: 10;
      }

      .cls-1, .cls-11 {
        stroke-width: 3.94px;
      }

      .cls-15 {
        fill: #f7af21;
      }

      .cls-16 {
        fill: #01b6dd;
      }

      .cls-17 {
        fill: #019bbe;
      }

      .cls-18 {
        fill: #035f7c;
      }

      .cls-19 {
        fill: #008399;
      }

      .cls-20 {
        fill: #fff;
      }

      .cls-21 {
        fill: #ffa945;
      }

      .cls-22 {
        fill: #ffce5c;
      }

      .cls-23 {
        fill: #6b717f;
      }

      .cls-24 {
        fill: #6b4e5a;
      }

      .cls-25 {
        fill: #b5e4f9;
      }

      .cls-26 {
        fill: #c1e6ed;
      }

      .cls-27 {
        fill: #bac3cc;
      }

      .cls-28 {
        fill: #8da3b5;
      }

      .cls-29 {
        fill: #057ab5;
      }

      .cls-30 {
        fill: #111;
      }

      .cls-31 {
        fill: #93ceb1;
      }

      .cls-32 {
        fill: #957a7a;
      }

      .cls-33 {
        fill: #556a7c;
      }

      .cls-34 {
        fill: #26ef4c;
      }

      .cls-35 {
        fill: #3d4851;
      }

      .cls-36 {
        fill: #39424f;
      }

      .cls-37 {
        fill: #71aeb0;
      }

      .cls-38 {
        fill: #82ced3;
      }

      .cls-39 {
        fill: #262f35;
      }

      .cls-40 {
        fill: #509393;
      }

      .cls-2 {
        stroke-width: 2.46px;
      }

      .cls-2, .cls-3, .cls-4, .cls-5, .cls-6, .cls-7, .cls-8, .cls-10, .cls-11, .cls-12, .cls-13 {
        stroke-linecap: round;
        stroke-linejoin: round;
      }

      .cls-3 {
        stroke-width: 3.24px;
      }

      .cls-4, .cls-9 {
        stroke-width: 3.28px;
      }

      .cls-5 {
        stroke-width: 3.26px;
      }

      .cls-6 {
        stroke-width: 2.4px;
      }

      .cls-7 {
        stroke-width: 4.15px;
      }

      .cls-8 {
        stroke-width: 3.59px;
      }

      .cls-10 {
        stroke-width: 3.55px;
      }

      .cls-12 {
        stroke-width: 2.31px;
      }

      .cls-13 {
        stroke-width: 3.6px;
      }

      .cls-14 {
        stroke-width: 1.97px;
      }
    </style>
  </defs>
  <g id="Layer_2-2" data-name="Layer 2">
    <g>
      <g>
        <rect class="cls-36" x="257.79" y="418.72" width="54.94" height="11.81" rx="5.9" ry="5.9"/>
        <g>
          <rect class="cls-15" x="18.17" y="432.18" width="516.7" height="30.66" rx="15.33" ry="15.33"/>
          <rect class="cls-22" x="1.64" y="432.18" width="516.7" height="30.66" rx="15.33" ry="15.33"/>
          <path class="cls-15" d="M516.9,447.67c0,4.24-1.72,8.07-4.49,10.84-2.78,2.78-6.61,4.49-10.84,4.49H15.53c-8.47,0-15.33-6.86-15.33-15.33,0-2.79,.75-5.41,2.06-7.66,2.64,4.58,7.6,7.66,13.27,7.66H501.57c4.23,0,8.06-1.72,10.84-4.49,.94-.94,1.76-2.01,2.43-3.17,1.31,2.25,2.06,4.87,2.06,7.66Z"/>
          <rect class="cls-20" x="16.94" y="432.18" width="48.44" height="11.01" rx="5.5" ry="5.5"/>
          <rect class="cls-20" x="69.45" y="432.18" width="12.34" height="11.01" rx="5.5" ry="5.5"/>
          <rect class="cls-23" x="209.17" y="417.06" width="110.76" height="15.11" rx="7.56" ry="7.56"/>
          <line class="cls-2" x1="85.39" y1="453.38" x2="28.58" y2="453.38"/>
          <line class="cls-2" x1="515.87" y1="442.01" x2="478.06" y2="442.01"/>
          <path class="cls-4" d="M367.36,462.84H16.97c-8.47,0-15.33-6.86-15.33-15.33h0c0-8.47,6.86-15.33,15.33-15.33H145.04"/>
          <path class="cls-4" d="M155.86,432.18H502.15c8.47,0,15.33,6.86,15.33,15.33h0c0,8.47-6.86,15.33-15.33,15.33h-123.44"/>
          <path class="cls-9" d="M480.31,432.18h38.03c8.47,0,15.33,6.86,15.33,15.33h0c0,8.47-6.86,15.33-15.33,15.33h-38.03"/>
          <path class="cls-9" d="M224.11,417.06h88.26c4.17,0,7.56,3.38,7.56,7.56h0c0,4.17-3.38,7.56-7.56,7.56h-88.26"/>
          <rect class="cls-9" x="207.93" y="417.06" width="103.38" height="15.11" rx="7.56" ry="7.56"/>
          <path class="cls-30" d="M472.67,443.51c1.93,0,1.93-3,0-3s-1.93,3,0,3h0Z"/>
          <path class="cls-22" d="M414.06,443.54c-2.2,2.32-2.21,6.37-.02,8.69,.73,.78,1.66,1.36,2.63,1.81,1.99,.92,4.28,1.29,6.39,.73s4-2.15,4.64-4.24c.94,1.84,3.17,2.61,5.22,2.84,2.63,.3,5.71-.23,7.11-2.48,.81-1.3,.89-2.95,.53-4.44s-1.12-2.85-1.9-4.16"/>
          <path class="cls-15" d="M106.94,454.46c-2.01-.97-2.93-3.49-2.53-5.69s1.9-4.05,3.65-5.43c2.33-1.83,5.27-2.99,8.23-2.82s5.89,1.76,7.32,4.36c1.26-2.75,3.3-4.42,6.12-5.47,3.42-1.28,7.22-1.84,10.73-.84,3.51,1.01,6.62,3.81,7.31,7.4,.94,4.91-.93,8.59-5.88,9"/>
        </g>
      </g>
      <g>
        <g>
          <path class="cls-32" d="M542.93,32.84c-.14-10.57-.29-20.31-.43-30.88,22.12,.55,44.25-.55,66.37,0-8.17,12.3-7.23,29.31-3.95,43.71s8.63,28.61,8.28,43.37c-.23,9.74-2.94,19.21-5.19,28.69-6.56,27.63-9.27,56.44-5,84.52,1.53,10.08,3.96,20.03,5,30.18,2.6,25.27-3.76,51.36-17.69,72.6l-16.59-.13"/>
          <path class="cls-24" d="M542.85,26.56h32.29c6.34,0,11.48,5.14,11.48,11.48V301.58h-43.77V26.56h0Z"/>
          <rect class="cls-16" x="358.65" y="34.77" width="218.18" height="269.75"/>
          <g>
            <rect class="cls-20" x="515.34" y="35.78" width="9.82" height="268.79"/>
            <rect class="cls-20" x="536.19" y="35.78" width="20.85" height="268.79"/>
          </g>
          <rect class="cls-29" x="359.37" y="173.1" width="216.25" height="9.46"/>
          <path class="cls-29" d="M429.97,209.59h96.83c5.22,0,9.46,4.24,9.46,9.46h-106.28v-9.46h0Z" transform="translate(697.43 -268.79) rotate(90)"/>
          <path class="cls-31" d="M310.24,83.18h96.83c5.22,0,9.46,4.24,9.46,9.46h-106.28v-9.46h0Z" transform="translate(451.29 -275.47) rotate(90)"/>
          <path class="cls-30" d="M360.78,220.78v-72.95c0-2.7-4.19-2.7-4.19,0v72.95c0,2.7,4.19,2.7,4.19,0h0Z"/>
          <path class="cls-30" d="M414.62,37.24h155.61c2.09,0,4.27,.18,6.35,0,.09,0,.19,0,.28,0l-2.1-2.1V165.16c0,13.1,0,26.21,0,39.31v36.4c0,10.29,0,20.58,0,30.87s0,14.8,0,22.2c0,3.48-.17,7.01,0,10.49,0,.15,0,.31,0,.46l2.1-2.1h-209.3c-2.82,0-5.7-.18-8.51,0-.12,0-.25,0-.37,0l2.1,2.1v-72.58c0-2.7-4.19-2.7-4.19,0v72.58c0,1.13,.96,2.1,2.1,2.1h209.3c2.83,0,5.68,.07,8.51,0,.12,0,.25,0,.37,0,1.13,0,2.1-.96,2.1-2.1v-7.26c0-6.53,0-13.06,0-19.59V46.09c0-3.49,.06-7,0-10.49,0-.15,0-.31,0-.46,0-1.13-.96-2.1-2.1-2.1h-142.27c-6.55,0-13.15-.21-19.7,0-.09,0-.19,0-.28,0-2.7,0-2.7,4.19,0,4.19h0Z"/>
          <path class="cls-30" d="M360.78,66.79v-31.65l-2.1,2.1h46.78c2.7,0,2.7-4.19,0-4.19h-46.78c-1.13,0-2.1,.96-2.1,2.1v31.65c0,2.7,4.19,2.7,4.19,0h0Z"/>
          <path class="cls-30" d="M361.47,138v-57.61c0-2.78-4.33-2.79-4.33,0v57.61c0,2.78,4.33,2.79,4.33,0h0Z"/>
          <g>
            <ellipse class="cls-21" cx="276.2" cy="92.69" rx="17.23" ry="21.77" transform="translate(86.36 313.67) rotate(-67.89)"/>
            <path class="cls-20" d="M296.36,100.88c-3.58,8.82-.09-7.49-16.86-16.33-16.66-8.78-27.05,8.76-23.47-.06,3.58-8.82,15.52-12.3,26.65-7.77s17.26,15.34,13.68,24.16Z"/>
            <ellipse class="cls-1" cx="275.19" cy="92.28" rx="17.23" ry="21.77" transform="translate(86.11 312.49) rotate(-67.89)"/>
          </g>
          <polygon class="cls-29" points="476.83 156.69 476.83 35.78 459.79 35.78 459.79 156.69 359.31 156.69 359.31 173.73 459.79 173.73 459.79 304.25 476.83 304.25 476.83 173.73 576.11 173.73 576.11 156.69 476.83 156.69"/>
          <path class="cls-30" d="M378.54,153.99h-19.17c-1.13,0-2.1,.96-2.1,2.1v17.04c0,1.13,.96,2.1,2.1,2.1h52.53c2.7,0,2.7-4.19,0-4.19h-52.53l2.1,2.1v-17.04l-2.1,2.1h19.17c2.7,0,2.7-4.19,0-4.19h0Z"/>
          <path class="cls-30" d="M457.76,85.76v70.33l2.1-2.1h-71.36c-2.7,0-2.7,4.19,0,4.19h71.36c1.13,0,2.1-.96,2.1-2.1V85.76c0-2.7-4.19-2.7-4.19,0h0Z"/>
          <path class="cls-30" d="M503.84,153.99h-26.95l2.1,2.1V50.04c0-4.87,.18-9.78,0-14.65,0-.07,0-.14,0-.21,0-1.13-.96-2.1-2.1-2.1h-17.04c-1.13,0-2.1,.96-2.1,2.1v39.38c0,2.7,4.19,2.7,4.19,0V35.18l-2.1,2.1h17.04l-2.1-2.1v106.05c0,4.87-.18,9.78,0,14.65,0,.07,0,.14,0,.21,0,1.13,.96,2.1,2.1,2.1h26.95c2.7,0,2.7-4.19,0-4.19h0Z"/>
          <path class="cls-30" d="M514.69,175.22h61.48c1.13,0,2.1-.96,2.1-2.1v-17.04c0-1.13-.96-2.1-2.1-2.1h-60.46c-2.7,0-2.7,4.19,0,4.19h60.46l-2.1-2.1v17.04l2.1-2.1h-61.48c-2.7,0-2.7,4.19,0,4.19h0Z"/>
          <path class="cls-30" d="M457.76,247.24v20.22c0,2.7,4.19,2.7,4.19,0v-20.22c0-2.7-4.19-2.7-4.19,0h0Z"/>
          <path class="cls-30" d="M423.78,175.22h36.08l-2.1-2.1v65.26c0,2.7,4.19,2.7,4.19,0v-22.06c0-11.72,0-23.43,0-35.15v-8.04c0-1.13-.96-2.1-2.1-2.1h-36.08c-2.7,0-2.7,4.19,0,4.19h0Z"/>
          <path class="cls-30" d="M370.08,287.85c2.07-1.76,4.03-3.66,5.85-5.69,.47-.53,.56-1.4,0-1.91-.52-.47-1.41-.56-1.91,0-1.82,2.02-3.77,3.92-5.85,5.69-.54,.46-.51,1.45,0,1.91,.58,.53,1.33,.49,1.91,0h0Z"/>
          <path class="cls-30" d="M375.32,289.54c2.2-1.52,4.07-3.41,5.56-5.63,.4-.59,.13-1.52-.48-1.85-.68-.36-1.43-.14-1.85,.48-.16,.24-.33,.48-.5,.72-.05,.07-.1,.14-.16,.21-.11,.14,0-.01,.05-.07-.1,.11-.18,.23-.27,.34-.38,.46-.78,.91-1.2,1.33s-.84,.81-1.29,1.19c-.11,.09-.22,.19-.34,.28-.06,.05-.11,.09-.17,.14-.19,.15,.17-.12,.03-.02-.25,.18-.49,.36-.75,.54-.58,.4-.9,1.2-.48,1.85,.37,.58,1.23,.91,1.85,.48h0Z"/>
          <path class="cls-30" d="M573.72,315.46c5.09,0,10.18,0,15.27,0,1.13,0,2.1-.96,2.1-2.1s-.96-2.1-2.1-2.1c-5.09,0-10.18,0-15.27,0-1.13,0-2.1,.96-2.1,2.1s.96,2.1,2.1,2.1h0Z"/>
          <rect class="cls-18" x="441.6" y="216.05" width="61.25" height="9.46" rx="4.73" ry="4.73" transform="translate(693 -251.44) rotate(90)"/>
          <path class="cls-30" d="M457.76,278.23v25.42c0,1.13,.96,2.1,2.1,2.1h17.04c1.13,0,2.1-.96,2.1-2.1,0-4.32,0-8.65,0-12.97v-112.26c0-1.66,.16-3.4,0-5.06,0-.07,0-.15,0-.23l-2.1,2.1h28.64c2.7,0,2.7-4.19,0-4.19h-28.64c-1.13,0-2.1,.96-2.1,2.1,0,4.32,0,8.65,0,12.97v112.26c0,1.66-.16,3.4,0,5.06,0,.07,0,.15,0,.23l2.1-2.1h-17.04l2.1,2.1v-25.42c0-2.7-4.19-2.7-4.19,0h0Z"/>
          <rect class="cls-37" x="345.13" y="301.94" width="245.28" height="18.27"/>
          <path class="cls-20" d="M531.61,308.48h-186.48v-6.54h193.03c0,3.61-2.93,6.54-6.54,6.54Z"/>
          <path class="cls-40" d="M403.93,313.37h186.48v6.54h-193.03c0-3.61,2.93-6.54,6.54-6.54Z"/>
          <path class="cls-30" d="M393.58,303.74h188.76c2.54,0,5.15,.18,7.68,0,.11,0,.22,0,.33,0l-1.8-1.8v18.27l1.8-1.8h-235.28c-3.18,0-6.41-.18-9.59,0-.14,0-.27,0-.41,0l1.8,1.8v-18.27l-1.8,1.8h39.01c2.32,0,2.32-3.6,0-3.6h-39.01c-.97,0-1.8,.83-1.8,1.8v18.27c0,.97,.83,1.8,1.8,1.8h235.28c3.19,0,6.4,.06,9.59,0,.14,0,.27,0,.41,0,.97,0,1.8-.83,1.8-1.8v-18.27c0-.97-.83-1.8-1.8-1.8h-188.76c-2.56,0-5.13-.07-7.68,0-.11,0-.22,0-.33,0-2.32,0-2.32,3.6,0,3.6h0Z"/>
          <path class="cls-30" d="M566.94,315.46c2.7,0,2.7-4.19,0-4.19s-2.7,4.19,0,4.19h0Z"/>
          <g>
            <path class="cls-32" d="M416.85,214.44h13.01c1.61,0,2.91,1.3,2.91,2.91v63.33c0,5.2-4.22,9.42-9.42,9.42h0c-5.2,0-9.42-4.22-9.42-9.42v-63.33c0-1.61,1.3-2.91,2.91-2.91Z" transform="translate(105.16 -124.06) rotate(18.99)"/>
            <path class="cls-24" d="M423.65,280.2l-.46,1.31c-1.69,4.91-7.05,7.53-11.97,5.84-4.91-1.69-7.53-7.05-5.84-11.97l20.62-59.88c.26-.77,.8-1.36,1.48-1.68l-19.55,56.82c-1.69,4.91,.93,10.27,5.84,11.97,3.59,1.24,7.41,.18,9.88-2.4Z"/>
            <path class="cls-24" d="M427.6,219.12c3.91,2.05,8.04,3.68,12.31,4.82v-3.48c-1.75,.47-3.65,.33-5.28-.49-.87-.44-1.95-.23-2.47,.65-.47,.81-.22,2.01,.65,2.47,2.46,1.28,4.8,2.77,7.22,4.12,.85,.47,1.97,.21,2.47-.65s.21-1.99-.65-2.47c-2.42-1.35-4.76-2.84-7.22-4.12l-1.82,3.11c2.51,1.26,5.34,1.59,8.05,.85,1.71-.46,1.72-3.01,0-3.48-4-1.07-7.8-2.55-11.45-4.46-.86-.45-1.96-.22-2.47,.65-.48,.81-.22,2.01,.65,2.47h0Z"/>
            <g>
              <g>
                <path class="cls-27" d="M137.71,398.57l-4.81-9.84,7.42-3.63h0c14.17-6.93,31.26-1.06,38.19,13.11h0c6.93,14.17,1.06,31.26-13.11,38.19h0s-7.42,3.63-7.42,3.63l-4.81-9.84h0c8.73-4.27,12.35-14.81,8.08-23.54h0c-4.27-8.73-14.81-12.35-23.54-8.08h0"/>
                <path class="cls-20" d="M154.01,431.41c.98,2.1,2.04,4.17,3.17,6.2,.43,.77,1.63,1.38,2.5,1.02,6.53-2.7,12.96-6.4,16.64-12.67,1.45-2.47-2.38-4.7-3.83-2.24-3.06,5.21-8.55,8.38-13.99,10.63l2.5,1.02c-1.13-2.03-2.18-4.1-3.17-6.2-.51-1.08-2.07-1.36-3.03-.8-1.11,.65-1.3,1.94-.8,3.03h0Z"/>
                <path class="cls-28" d="M170.01,388.17c-10.15-7.37-24.55-7.89-35.35-1.65-4.01,2.32-.39,8.55,3.64,6.22,4.38-2.53,9.08-3.58,14.28-3.31,.64,.03,1.27,.09,1.9,.16,1.21,.13-.32-.06,.36,.05,.31,.05,.63,.1,.94,.16,1.31,.25,2.6,.59,3.87,1.02,.3,.1,.6,.21,.9,.32-.02,0,1.03,.41,.55,.21,.58,.25,1.16,.53,1.72,.82,1.24,.65,2.42,1.39,3.56,2.21,1.58,1.14,4.02,.27,4.93-1.29,1.07-1.82,.29-3.78-1.29-4.93h0Z"/>
                <path class="cls-8" d="M137.71,398.57l-4.81-9.84,7.42-3.63h0c14.17-6.93,31.26-1.06,38.19,13.11h0c6.93,14.17,1.06,31.26-13.11,38.19h0s-7.42,3.63-7.42,3.63l-4.81-9.84h0c8.73-4.27,12.35-14.81,8.08-23.54h0c-4.27-8.73-14.81-12.35-23.54-8.08h0"/>
              </g>
              <path class="cls-30" d="M157.26,435.83c8.31-2.39,15.43-9.13,15.77-18.16,.06-1.74-2.64-1.74-2.7,0-.29,7.81-6.66,13.51-13.78,15.55-1.67,.48-.96,3.09,.72,2.61h0Z"/>
              <path class="cls-30" d="M171.5,413.78c1.74,0,1.74-2.7,0-2.7s-1.74,2.7,0,2.7h0Z"/>
            </g>
            <path class="cls-30" d="M419.92,250.6c-1.49,10.77-6.32,20.88-13.82,28.76-.8,.84,.47,2.12,1.27,1.27,7.7-8.08,12.75-18.49,14.28-29.55,.16-1.13-1.58-1.62-1.74-.48h0Z"/>
            <path class="cls-27" d="M173.98,408.54c-8.29,0-15.02-6.72-15.02-15.02,0-74.83,47.98-140.59,50.02-143.35,4.93-6.67,14.33-8.08,21.01-3.15,6.67,4.93,8.08,14.33,3.15,21-.6,.82-44.15,60.86-44.15,125.5,0,8.29-6.72,15.02-15.02,15.02Z"/>
            <path class="cls-28" d="M180.67,405.56c-3.26-14.14-2.65-29.14,1.43-43.08,.64-2.17,1.35-4.31,2.07-6.45,1.6-4.78,3.21-11.97,4.81-16.75-.11,.34,2.75,4.9,2.97,5.31,.62,1.12,.11,2.3,.51,3.51,.6,1.79,1.78,3.85,1.85,5.75,.04,1.06-.34,2.09-.68,3.09-2.17,6.4-3.14,13.13-3.81,19.84s-.53,13.03-1.35,19.56c-.44,3.51-1.79,7.79-5.29,8.28"/>
            <path class="cls-3" d="M173.98,408.54c-8.29,0-15.02-6.72-15.02-15.02,0-74.83,47.98-140.59,50.02-143.35,4.93-6.67,14.33-8.08,21.01-3.15,6.67,4.93,8.08,14.33,3.15,21-.6,.82-44.15,60.86-44.15,125.5,0,8.29-6.72,15.02-15.02,15.02Z"/>
            <path class="cls-27" d="M282.77,392.32c0,16.3-13.21,29.51-29.51,29.51s-29.51-13.21-29.51-29.51"/>
            <path class="cls-28" d="M282.77,381.84c0,16.3-13.21,29.51-29.51,29.51s-29.51-13.21-29.51-29.51"/>
            <path class="cls-30" d="M280.97,393.52c-.05,8.32-3.76,16.15-10.17,21.46s-15.85,7.52-24.22,5.44c-5.22-1.3-9.88-4.1-13.58-7.99-1.6-1.68-4.15,.87-2.55,2.55,7.38,7.76,18.25,11.26,28.77,9.28,9.01-1.7,17.03-7.58,21.45-15.6,2.56-4.64,3.87-9.85,3.9-15.14,.01-2.32-3.59-2.32-3.6,0h0Z"/>
            <path class="cls-30" d="M281.42,381.84c-.07,10.25-5.64,19.66-14.57,24.67-1.52,.85-.16,3.19,1.36,2.33,9.75-5.48,15.84-15.83,15.91-27.01,.01-1.74-2.69-1.74-2.7,0h0Z"/>
            <path class="cls-17" d="M300.54,367.66c-21.81,44.19-76.33,44.19-98.14,0l-7.25-14.69-7.25-14.69c-21.81-44.19,5.45-99.42,49.07-99.42h28.99c43.62,0,70.88,55.24,49.07,99.42l-7.25,14.69-7.25,14.69Z"/>
            <path class="cls-20" d="M289.03,243.05l9.53,7.4c21.01,16.99,30.93,49.92,20.34,79.78l-6.84,15.03c-41.46-5.23-45.15-54.02-45.15-71.71s10.45-31.68,10.45-31.68"/>
            <path class="cls-30" d="M262.53,409.04c-6.65,2.5-13.93,2.55-20.57-.03-5.82-2.27-10.81-6.57-13.96-11.95-1.9-3.24-3.09-6.8-3.63-10.51-.25-1.72-2.86-.99-2.61,.72,2.07,14.08,13.86,25.1,28.03,26.29,4.55,.38,9.19-.31,13.46-1.91,1.61-.61,.92-3.22-.72-2.61h0Z"/>
            <path class="cls-19" d="M314.61,338.41l-7.26,14.69-7.25,14.68c-21.81,44.19-76.33,44.19-98.14,0l-4.42-8.96c23.92,36.71,73.44,34.27,93.97-7.32l7.25-14.69,7.26-14.68c9.66-19.57,9.7-41.32,2.93-59.48,14.36,20.14,18.44,49.85,5.66,75.76Z"/>
            <path class="cls-38" d="M314.77,338.21l-3.35,6.8c-5.48-.72-10.28-2.21-14.51-4.3l2.02-4.1,7.26-14.68c9.66-19.57,9.35-41.65,2.58-59.81,14.36,20.14,18.79,50.18,6.01,76.09Z"/>
            <path class="cls-30" d="M229.25,407.37c-2.42-4.23-3.68-8.98-3.7-13.85-.01-2.32-3.61-2.32-3.6,0,.02,5.5,1.46,10.9,4.2,15.67,1.15,2.01,4.27,.2,3.11-1.82h0Z"/>
            <line class="cls-11" x1="253.8" y1="221.9" x2="250.84" y2="237.66"/>
            <rect class="cls-17" x="190.43" y="90.92" width="109.92" height="131.41" rx="32.07" ry="32.07" transform="translate(-24.89 48.47) rotate(-10.74)"/>
            <g>
              <circle class="cls-25" cx="266.37" cy="34.43" r="9.51"/>
              <path class="cls-30" d="M227.28,87.09c.04-1.67,.63-3.46,1.75-4.75s2.6-2.06,4.23-1.92c1.29,.12,2.81,.99,3.5,2.16,.23,.39,.26,.46,.37,.88,.08,.33,.12,.66,.06,1.16-.08,.63-.41,1.36-.89,1.99-1.16,1.56-3.17,2.69-4.96,3.64-1.68,.89-.19,3.44,1.49,2.55,2.08-1.1,4.21-2.38,5.68-4.26,1.57-2.01,2.16-4.6,1.05-6.97-.94-2.02-3.03-3.5-5.18-3.95-2.48-.52-4.89,.25-6.76,1.92-2.11,1.88-3.24,4.75-3.31,7.54-.05,1.9,2.91,1.9,2.96,0h0Z"/>
              <path class="cls-30" d="M227.79,85.2c-2.42-15.59,4.53-31.63,17.58-40.48,3.44-2.33,7.18-4.14,11.14-5.37,1.81-.56,1.04-3.42-.79-2.85-15.77,4.89-27.87,18.4-30.68,34.73-.84,4.91-.87,9.85-.1,14.77,.29,1.87,3.14,1.08,2.85-.79h0Z"/>
              <circle class="cls-14" cx="266.37" cy="34.43" r="9.51"/>
            </g>
            <path class="cls-35" d="M281.57,133.55h14.29c1.6,0,2.9,1.3,2.9,2.9v28.58c0,1.6-1.3,2.9-2.9,2.9h-14.29c-9.48,0-17.18-7.7-17.18-17.18h0c0-9.48,7.7-17.18,17.18-17.18Z" transform="translate(-23.16 55.11) rotate(-10.74)"/>
            <path class="cls-39" d="M300.36,165.2l-14.05,2.67c-9.32,1.77-18.31-4.36-20.08-13.69-.2-1.08-.31-2.16-.31-3.23v-.07c3.46,6.38,10.77,10.09,18.29,8.66l14.05-2.66c1.57-.3,2.61-1.81,2.31-3.39l-4.03-21.24c.4,.37,.68,.89,.79,1.49l5.33,28.08c.29,1.56-.75,3.08-2.31,3.38Z"/>
            <path class="cls-26" d="M193.47,120.09c.08-2.67,.95-5.09,2.65-7.62,1.34-1.99,3.68-4.2,5.79-5.57,5.75-3.73,12.6-5.09,19.34-6.41,7.94-1.56,15.88-3.09,23.82-4.64,7.04-1.37,14.54-3.07,21.69-1.78,1.72,.31,3.37,.8,5.01,1.4,1.11,.41-.55-.29,.51,.22,.45,.21,.9,.42,1.33,.66,.65,.35,1.29,.72,1.91,1.13,1.09,.72,2.24,1.68,3.39,3,0,0,.73,.92,.34,.4,.29,.39,.56,.79,.81,1.2,.45,.73,.82,1.49,1.15,2.27,.76,1.79,3.4,2.19,4.93,1.29,1.86-1.09,2.06-3.13,1.29-4.93-2.76-6.51-9.1-10.86-15.7-12.86-8.07-2.44-16.67-1.21-24.78,.31-8.52,1.6-17.03,3.31-25.54,4.97-7.71,1.5-15.69,2.99-22.5,7.14s-12.41,11.44-12.65,19.82c-.06,1.95,1.7,3.6,3.6,3.6s3.55-1.65,3.6-3.6h0Z"/>
            <rect class="cls-34" x="289.95" y="131.5" width="8.1" height="34.26" transform="translate(-22.55 57.39) rotate(-10.74)"/>
            <path class="cls-5" d="M282.21,133.63h14.29c1.6,0,2.9,1.3,2.9,2.9v28.58c0,1.6-1.3,2.9-2.9,2.9h-14.29c-9.48,0-17.18-7.7-17.18-17.18h0c0-9.48,7.7-17.18,17.18-17.18Z" transform="translate(-23.16 55.23) rotate(-10.74)"/>
            <path class="cls-19" d="M218.85,181.62c5.32,4.99,13.06,5.01,19.72,3.18,3.7-1.02,7.21-2.57,10.2-4.99s4.95-5.6,6.15-9.13c.63-1.84-.72-3.94-2.52-4.43-1.98-.54-3.8,.67-4.43,2.52-.72,2.12-2.11,4.2-4.14,5.82s-4.56,2.55-7.18,3.27c-.61,.17-1.21,.32-1.83,.45-.31,.06-.61,.13-.92,.18,0,0-1.15,.17-.54,.09-1.3,.16-2.63,.21-3.94,.13-.31-.02-.61-.04-.92-.08,.66,.09-.46-.1-.48-.11-.59-.13-1.16-.3-1.73-.49s.03,.04-.29-.12c-.27-.13-.53-.27-.79-.42-.31-.18-.62-.37-.9-.59,.46,.35-.34-.33-.38-.37-1.42-1.33-3.69-1.41-5.1,0s-1.42,3.76,0,5.1h0Z"/>
            <circle class="cls-33" cx="231.99" cy="159.16" r="19.34"/>
            <path class="cls-19" d="M250.25,221.96l16.52-2.77c5.27-.88,10.68-1.5,15.85-2.89,8.69-2.33,16.05-8.5,19.79-16.71,2.07-4.53,3.17-9.46,2.84-14.46-.13-1.94-1.56-3.6-3.6-3.6-1.85,0-3.73,1.65-3.6,3.6,.06,.96,.08,1.92,.04,2.89-.02,.42-.05,.84-.09,1.26,0,.09-.09,.83-.04,.42s-.08,.51-.1,.59c-.33,1.89-.87,3.76-1.6,5.53,.22-.53-.23,.49-.3,.63-.21,.44-.43,.86-.66,1.29-.49,.9-1.03,1.77-1.61,2.62-.1,.15-.21,.3-.31,.44-.04,.06-.49,.65-.26,.36s-.23,.29-.28,.34c-.12,.14-.23,.28-.35,.42-.67,.78-1.38,1.52-2.12,2.21-.35,.33-.71,.65-1.08,.96-.14,.12-.28,.23-.42,.34,.4-.32-.07,.05-.13,.1-.83,.6-1.68,1.16-2.57,1.67-.37,.21-.74,.41-1.11,.59-.1,.05-1.32,.62-.78,.39-1.08,.46-2.21,.81-3.34,1.12-4.92,1.36-10.08,1.95-15.11,2.79l-17.49,2.93c-1.92,.32-3,2.7-2.52,4.43,.56,2.04,2.51,2.84,4.43,2.52h0Z"/>
            <line class="cls-11" x1="192.53" y1="172.84" x2="188.97" y2="154.08"/>
            <path class="cls-11" d="M216.57,95.21l39.06-7.41c17.4-3.3,34.19,8.13,37.49,25.54l12.53,66.08c3.3,17.4-8.13,34.19-25.54,37.49l-44.97,8.53c-17.4,3.3-34.19-8.13-37.49-25.54l-3.16-16.68"/>
            <path class="cls-11" d="M187.06,144.01l-1.93-10.19c-2.89-15.23,5.5-29.98,19.31-35.64"/>
            <path class="cls-5" d="M244.97,144.83c3.9,3.54,6.36,8.65,6.36,14.33,0,10.68-8.66,19.34-19.34,19.34s-19.34-8.66-19.34-19.34,8.66-19.34,19.34-19.34c2.67,0,5.21,.54,7.53,1.52"/>
            <path class="cls-12" d="M244.01,152.64c1.05,1.94,1.65,4.16,1.65,6.52,0,7.55-6.12,13.67-13.67,13.67s-13.67-6.12-13.67-13.67,6.12-13.67,13.67-13.67c3.78,0,7.19,1.53,9.67,4"/>
            <g>
              <line class="cls-6" x1="190.75" y1="127.68" x2="192.53" y2="136.84"/>
              <line class="cls-6" x1="195.77" y1="126.51" x2="197.55" y2="135.67"/>
            </g>
            <g>
              <line class="cls-6" x1="296.17" y1="349.94" x2="291.81" y2="358.2"/>
              <line class="cls-6" x1="300.8" y1="352.18" x2="296.45" y2="360.44"/>
            </g>
            <path class="cls-26" d="M202.53,113.88c2.66-2.89,6.09-4.77,9.74-5.94,4.52-1.44,9.15-1.95,13.82-2.43,1.94-.2,3.6-1.51,3.6-3.6,0-1.79-1.66-3.81-3.6-3.6-10.21,1.06-21.29,2.51-28.65,10.48-1.32,1.43-1.42,3.68,0,5.1,1.34,1.34,3.77,1.44,5.1,0h0Z"/>
            <path class="cls-26" d="M187.77,316.18c-.24-3.6-.32-7.22-.19-10.83,.07-1.88,.19-3.75,.37-5.62s.34-3.11,.62-4.83c.58-3.55,1.37-7.07,2.42-10.51s2.24-6.57,3.77-9.69,3.4-6.28,5.5-9.17c.76-1.05,1.68-2.19,2.78-3.43s2.35-2.52,3.61-3.69c2.52-2.35,4.53-3.9,7.45-5.74,1.4-.88,2.84-1.7,4.31-2.45,.73-.37,1.48-.73,2.23-1.07s.94-.42,1.94-.79c1.71-.65,3.45-1.2,5.22-1.64,.91-.23,1.83-.43,2.75-.61,.43-.08,.86-.16,1.3-.22,.19-.03,.37-.06,.56-.08-.4,.06-.03,0,.16-.02,1.87-.21,3.74-.32,5.62-.29,.88,.01,1.76,.06,2.63,.13,.5,.04,1,.09,1.5,.15,0,0,.61,.08,.27,.03-.31-.04,.67,.11,.65,.11,1.92,.31,3.88-.5,4.43-2.52,.47-1.72-.59-4.12-2.52-4.43-14.85-2.42-29.53,2.65-41.01,12.08s-18.94,23.93-21.93,38.68c-1.76,8.7-2.25,17.63-1.65,26.47,.13,1.94,1.56,3.6,3.6,3.6,1.85,0,3.74-1.65,3.6-3.6h0Z"/>
            <path class="cls-3" d="M202.7,252.26c9.31-8.31,21.03-13.4,34.26-13.4h28.99c8.18,0,15.78,1.94,22.59,5.39"/>
            <path class="cls-3" d="M189.3,341.14l-1.4-2.85c-13.64-27.65-8.08-59.62,8.68-79.68"/>
            <path class="cls-3" d="M315.03,338.29l-7.25,14.69-7.25,14.69c-21.81,44.19-76.33,44.19-98.14,0l-7.25-14.69-2.7-5.47"/>
            <path class="cls-30" d="M291.75,183.96c4.73,.48,9.66-.84,13.52-3.63,.79-.57,1.17-1.57,.65-2.47-.45-.78-1.67-1.22-2.47-.65-3.47,2.51-7.46,3.57-11.7,3.14-.97-.1-1.8,.9-1.8,1.8,0,1.06,.83,1.7,1.8,1.8h0Z"/>
            <path class="cls-27" d="M307.45,315.19c-2.64,0-5.29-.07-7.96-.21-29.42-1.53-50.83-11.07-51.73-11.47-8.47-3.83-12.23-13.79-8.4-22.26,3.82-8.45,13.75-12.21,22.2-8.43,.28,.12,17.52,7.62,40.81,8.61,29.97,1.26,55.88-8.42,77.02-28.81,6.69-6.45,17.33-6.26,23.79,.42,6.45,6.69,6.26,17.33-.42,23.79-26.1,25.18-58.91,38.35-95.3,38.35Z"/>
            <path class="cls-28" d="M403.44,276.41c-26.1,25.18-58.9,38.35-95.29,38.35-2.63,0-5.29-.06-7.97-.2-29.41-1.53-50.82-11.07-51.73-11.47-8.05-3.64-11.85-12.84-8.88-21.03,1.48,4.13,4.57,7.69,8.88,9.64,.9,.41,22.31,9.95,51.73,11.47,2.68,.13,5.33,.2,7.97,.2,36.39,0,69.2-13.17,95.29-38.35,1.92-1.85,3.3-4.06,4.16-6.4,2.17,6.04,.77,13.05-4.16,17.79Z"/>
            <path class="cls-30" d="M270.47,291.72c1.53-4.72,2.03-9.75,1.76-14.69-.05-.97-.79-1.8-1.8-1.8-.93,0-1.86,.83-1.8,1.8,.25,4.66-.19,9.29-1.63,13.74-.3,.93,.35,1.97,1.26,2.22,.98,.27,1.92-.33,2.22-1.26h0Z"/>
            <path class="cls-30" d="M258.08,307.7c4.17-2.45,7.55-6.1,9.91-10.31,.46-.82,.22-2.01-.65-2.47s-1.97-.23-2.47,.65c-.54,.95-1.12,1.88-1.76,2.76-.09,.13-.19,.25-.28,.38-.2,.27,.08-.09-.05,.07-.18,.22-.36,.45-.54,.67-.35,.42-.71,.83-1.09,1.22-.75,.79-1.55,1.53-2.39,2.21-.1,.08-.2,.16-.3,.24,.31-.24-.1,.07-.13,.09-.21,.15-.42,.3-.63,.45-.47,.32-.95,.63-1.44,.92-.81,.48-1.17,1.65-.65,2.47s1.6,1.16,2.47,.65h0Z"/>
            <path class="cls-30" d="M330.14,280.28c2.83,10.18,3.52,20.66,1.82,31.1-.37,2.27,3.1,3.25,3.48,.96,1.81-11.09,1.19-22.18-1.82-33.01-.62-2.23-4.1-1.28-3.48,.96h0Z"/>
            <path class="cls-30" d="M344.16,275.51l3.4,13.81c.55,2.25,4.03,1.3,3.48-.96l-3.4-13.81c-.55-2.25-4.03-1.3-3.48,.96h0Z"/>
            <path class="cls-30" d="M348.87,296.96c.58,3.62,1.17,7.23,1.75,10.85,.15,.93,1.36,1.54,2.22,1.26,1.01-.33,1.42-1.22,1.26-2.22-.58-3.62-1.17-7.23-1.75-10.85-.15-.93-1.36-1.54-2.22-1.26-1.01,.33-1.42,1.22-1.26,2.22h0Z"/>
            <path class="cls-30" d="M355.03,270.87c6.04,9.04,10.85,18.83,14.27,29.15,.73,2.19,4.21,1.25,3.48-.96-3.52-10.6-8.43-20.72-14.63-30.01-1.28-1.92-4.41-.12-3.11,1.82h0Z"/>
            <path class="cls-30" d="M367.26,263.17c3.28,3.84,6.28,7.89,8.9,12.21,3.04,5.01,5.65,10.27,8.23,15.53,1.02,2.08,4.13,.26,3.11-1.82-2.63-5.36-5.29-10.72-8.4-15.81-2.73-4.47-5.88-8.66-9.28-12.65-1.51-1.77-4.05,.79-2.55,2.55h0Z"/>
            <path class="cls-30" d="M379.01,253.96c3.09,3.25,6.17,6.5,9.26,9.75,.65,.69,1.9,.7,2.55,0s.69-1.82,0-2.55c-3.09-3.25-6.17-6.5-9.26-9.75-.65-.69-1.9-.7-2.55,0s-.69,1.82,0,2.55h0Z"/>
            <path class="cls-30" d="M392.38,269.16c1.86,3.54,3.73,7.07,5.59,10.61,.44,.84,1.67,1.16,2.47,.65,.85-.55,1.12-1.57,.65-2.47-1.86-3.54-3.73-7.07-5.59-10.61-.44-.84-1.67-1.16-2.47-.65-.85,.55-1.12,1.57-.65,2.47h0Z"/>
            <path class="cls-20" d="M280,288.61c9.99,2.92,20.33,4.54,30.73,4.85,2.85,.08,2.85-4.35,0-4.43-10.02-.3-19.93-1.88-29.56-4.69-2.74-.8-3.92,3.48-1.18,4.27h0Z"/>
            <path class="cls-20" d="M316.5,293.58c2.85,0,2.86-4.43,0-4.43s-2.86,4.43,0,4.43h0Z"/>
            <path class="cls-30" d="M283.74,304.64c3.3-7.54,5.19-15.56,5.53-23.79,.1-2.32-3.51-2.32-3.6,0-.31,7.55-2.01,15.04-5.04,21.97-.39,.89-.26,1.93,.65,2.47,.76,.45,2.07,.25,2.47-.65h0Z"/>
            <path class="cls-30" d="M277.81,313.1c1.58-1.02,2.78-2.47,3.75-4.07,.24-.4,.3-.94,.18-1.39-.12-.42-.44-.87-.83-1.08-.42-.22-.92-.33-1.39-.18s-.83,.42-1.08,.83c-.29,.49-.6,.96-.95,1.41l.28-.36c-.47,.6-1,1.16-1.6,1.63l.36-.28c-.18,.14-.36,.27-.55,.39-.39,.25-.7,.62-.83,1.08-.12,.43-.07,1.01,.18,1.39s.62,.72,1.08,.83,.98,.08,1.39-.18h0Z"/>
            <path class="cls-30" d="M297.86,314.44c6.34-9.12,9.28-20.49,8.14-31.54-.1-.98-.76-1.79-1.8-1.8-.9,0-1.9,.84-1.8,1.8,1.09,10.5-1.62,21.05-7.64,29.73-1.33,1.91,1.8,3.71,3.11,1.82h0Z"/>
            <path class="cls-30" d="M317.01,282.56c1.22,9.98,2.63,20.83-1.72,30.28-.96,2.09,2.14,3.93,3.11,1.82,4.67-10.16,3.53-21.35,2.22-32.1-.12-.97-.74-1.79-1.8-1.8-.88,0-1.92,.84-1.8,1.8h0Z"/>
            <path class="cls-30" d="M240.63,386.36c8.78,.36,17.51-1.58,25.34-5.56,2.07-1.05,.25-4.16-1.82-3.11-7.27,3.69-15.38,5.4-23.52,5.06-2.32-.1-2.32,3.51,0,3.6h0Z"/>
            <path class="cls-30" d="M271.38,377.41c2.32,0,2.32-3.6,0-3.6s-2.32,3.6,0,3.6h0Z"/>
            <path class="cls-30" d="M422.01,249.18c1.16,0,1.16-1.8,0-1.8s-1.16,1.8,0,1.8h0Z"/>
            <path class="cls-13" d="M273.25,313.53c6.05,15.28,17.36,29.09,38.34,31.73"/>
            <path class="cls-13" d="M276.9,241.87s-10.46,14-10.46,31.68"/>
            <path class="cls-3" d="M322.15,314.43c-.65,5.3-1.87,10.6-3.72,15.81"/>
            <path class="cls-3" d="M298.09,250.45c9.19,7.44,16.26,17.92,20.42,29.87"/>
            <path class="cls-30" d="M158.48,390.84c8.85,5.58,20.2,6.82,30.02,3.19,2.16-.8,1.22-4.28-.96-3.48-8.99,3.32-19.14,2.29-27.25-2.83-1.97-1.24-3.78,1.88-1.82,3.11h0Z"/>
            <path class="cls-30" d="M160.06,376.4c4.71,2.53,9.82,4.29,15.11,5.08,2.58,.38,5.18,.59,7.79,.54,2.43-.04,5.08-.15,7.12-1.62,1.87-1.34,.07-4.47-1.82-3.11-1.7,1.22-3.96,1.13-5.97,1.13-2.36,0-4.72-.17-7.04-.56-4.68-.79-9.19-2.33-13.37-4.57-2.04-1.1-3.87,2.01-1.82,3.11h0Z"/>
            <path class="cls-30" d="M162.17,362.46c3.29,2.33,7.12,3.68,11.11,4.14,.94,.11,1.84-.91,1.8-1.8-.05-1.07-.8-1.69-1.8-1.8-.12-.01-.23-.03-.35-.04,.19,.03,.18,.02-.04,0-.23-.04-.46-.07-.69-.12-.4-.07-.8-.16-1.2-.26-.88-.22-1.74-.49-2.59-.81-.19-.07-.38-.15-.57-.23,.3,.13-.32-.14-.37-.17-.4-.18-.79-.38-1.17-.59-.8-.43-1.56-.91-2.3-1.43s-2.04-.16-2.47,.65c-.49,.93-.18,1.88,.65,2.47h0Z"/>
            <path class="cls-30" d="M182.09,367.37c2.4,.31,4.82,.36,7.23,.14,.49-.04,.92-.17,1.27-.53,.31-.31,.55-.83,.53-1.27-.04-.9-.8-1.89-1.8-1.8-2.41,.22-4.83,.17-7.23-.14-.42-.06-.99,.24-1.27,.53-.31,.31-.55,.83-.53,1.27s.17,.95,.53,1.27c.38,.35,.77,.46,1.27,.53h0Z"/>
            <path class="cls-30" d="M165.11,347.76c4.45,2.78,9.48,4.64,14.68,5.37,.96,.13,1.94-.23,2.22-1.26,.23-.84-.29-2.08-1.26-2.22-4.92-.69-9.6-2.37-13.82-5-1.97-1.23-3.78,1.88-1.82,3.11h0Z"/>
            <path class="cls-30" d="M185.47,354.12l6.33,.5c.94,.07,1.84-.88,1.8-1.8-.05-1.04-.79-1.72-1.8-1.8l-6.33-.5c-.94-.07-1.84,.88-1.8,1.8,.05,1.04,.79,1.72,1.8,1.8h0Z"/>
            <path class="cls-30" d="M169.09,333.91c5.19,2.81,10.93,4.4,16.83,4.68,.97,.05,1.8-.86,1.8-1.8,0-1.01-.83-1.76-1.8-1.8-5.25-.25-10.39-1.69-15.01-4.19-2.04-1.1-3.86,2.01-1.82,3.11h0Z"/>
            <path class="cls-3" d="M353.13,271.29c9.42-4.65,18.19-10.87,26.25-18.66,6.69-6.45,17.33-6.26,23.79,.42,6.45,6.69,6.26,17.33-.42,23.79-26.1,25.18-58.91,38.35-95.3,38.35-2.64,0-5.29-.07-7.96-.21-29.42-1.53-50.83-11.07-51.73-11.47-8.47-3.83-12.23-13.79-8.4-22.26,3.82-8.45,13.75-12.21,22.2-8.43,.28,.12,17.52,7.62,40.81,8.61,14.13,.6,27.36-1.24,39.62-5.49l5.61-2.14"/>
            <path class="cls-7" d="M416.85,214.44h13.01c1.61,0,2.91,1.3,2.91,2.91v63.33c0,5.2-4.22,9.42-9.42,9.42h0c-5.2,0-9.42-4.22-9.42-9.42v-63.33c0-1.61,1.3-2.91,2.91-2.91Z" transform="translate(105.16 -124.06) rotate(18.99)"/>
            <path class="cls-30" d="M413.73,287.39c-.21-2.09-.45-4.27,.01-6.35,.51-2.27,2.03-3.65,3.55-5.28,2.59-2.77,4.45-6.1,5.84-9.62,2.98-7.56,3.64-15.74,5.74-23.54,1.21-4.49,2.93-8.82,5.74-12.56,.7-.93-.87-1.83-1.56-.91-5.08,6.75-6.59,15.24-8.16,23.34s-3.42,16.33-9.17,22.32c-1.62,1.68-3.1,3.25-3.68,5.58s-.36,4.69-.12,7.02c.12,1.14,1.92,1.15,1.8,0h0Z"/>
            <path class="cls-20" d="M424.44,194.47l11.75-34.12,10.45,3.6s-1.26,14.53-.41,13.42,7.1-11.12,7.1-11.12l7.53,2.59-3.34,9.69,8.35-7.96,5.44,1.87-11.75,34.12"/>
            <path class="cls-29" d="M455.23,167.31c-2.12,1.7-2.22,5.25-1.47,8.05s2.14,5.44,2.31,8.36c.13,2.21-.4,4.68,.78,6.45,.68,1.02,1.85,1.64,2.21,2.85,.27,.91,0,1.91-.01,2.87s1.64,3.33,2.5,3.35c.74,.02,1.25-2.01,1.61-2.75,2.95-6.09,5.49-12.42,7.61-18.93,.61-1.87,2.36-2.83,1.49-4.56-1-1.98-5.91-3.59-7.78-2.71s-3.22,2.7-4.51,4.45c.73-1.6,1.47-3.3,1.35-5.1s-1.51-3.6-3.09-3.3"/>
            <path class="cls-10" d="M424.44,194.47l8.14-35.33,14.06,4.8s-1.26,14.53-.41,13.42,7.1-11.12,7.1-11.12l7.53,2.59-3.34,9.69,8.35-7.96,7.84,3.07-14.15,32.92"/>
            <line class="cls-6" x1="431.97" y1="194.9" x2="437.87" y2="171.82"/>
            <line class="cls-6" x1="445.4" y1="201.08" x2="451.02" y2="184.77"/>
            <line class="cls-6" x1="440.26" y1="199.76" x2="444.03" y2="188.81"/>
            <rect class="cls-32" x="416.22" y="199.79" width="44.47" height="17.22" transform="translate(91.7 -131.36) rotate(18.99)"/>
            <path class="cls-24" d="M461.05,210.48l-4.31,12.51-42.05-14.48,1.33-3.86c3.63,1.85,7.63,2.97,11.64,3.84,10.93,2.38,22.25,3.05,33.39,1.98Z"/>
            <rect class="cls-7" x="416.22" y="199.79" width="44.47" height="17.22" transform="translate(91.7 -131.36) rotate(18.99)"/>
            <path class="cls-27" d="M438.64,250.49l7.23,8.22-6.21,5.46h0c-11.84,10.41-29.88,9.25-40.29-2.59h0c-10.41-11.84-9.25-29.88,2.59-40.29h0s6.21-5.46,6.21-5.46l7.23,8.22h0c-7.3,6.42-8.02,17.54-1.6,24.84h0c6.42,7.3,17.54,8.02,24.84,1.6h0"/>
            <path class="cls-30" d="M423.81,243.54c.03-2.38,.2-4.77,.87-7.07s1.93-4.12,3.28-6.05c2.57-3.67,4.25-7.82,4.88-12.26,.16-1.13-1.58-1.62-1.74-.48-.69,4.89-2.71,8.96-5.5,12.97s-3.54,8.22-3.59,12.89c-.01,1.16,1.79,1.16,1.8,0h0Z"/>
            <path class="cls-30" d="M439.16,217.6c-.75,.02-1.35,.42-1.78,1.03s-.5,1.35-.52,2.06-.01,1.12-.2,1.75c-.04,.14-.09,.28-.14,.42,0,.02-.07,.17-.13,.28-.07,.15-.16,.29-.24,.43-.04,.06-.07,.11-.11,.17,0,0-.16,.21-.09,.14-.3,.38-.37,.9,0,1.27,.31,.31,.97,.39,1.27,0,.8-1.03,1.29-2.19,1.41-3.49,.05-.57-.02-1.21,.11-1.7,.02-.06,.03-.12,.05-.17,.05-.13-.06,.1,.01-.02,.04-.06,.07-.13,.11-.19-.05,.08-.03,.02,.02-.02,.04-.04,.08-.08,.12-.12-.07,.06-.04,.03,.02,0,.21-.12-.09,.02,.05-.02s-.2,0,.04,0c.47-.01,.92-.4,.9-.9s-.4-.92-.9-.9h0Z"/>
            <path class="cls-20" d="M414.29,223.12c-1.5-1.77-3.06-3.49-4.69-5.15-.91-.93-2.19-.73-3.13,0-5.43,4.19-10.44,9.46-12.28,16.25-.31,1.16,.39,2.41,1.55,2.73s2.41-.39,2.73-1.55c1.61-5.96,6.23-10.5,11.13-14.29h-3.13c1.62,1.66,3.19,3.38,4.69,5.15,.77,.91,2.34,.8,3.13,0,.91-.91,.78-2.22,0-3.13h0Z"/>
            <path class="cls-28" d="M410.19,269.03c11.71,4.44,25.76,1.18,34.53-7.69,3.27-3.3-1.83-8.4-5.1-5.1-3.57,3.61-7.81,5.86-12.94,6.98-.66,.14-1.33,.27-2,.37,.51-.08-.12,.01-.32,.03-.31,.03-.61,.06-.92,.08-1.35,.1-2.7,.11-4.05,.03-.61-.04-1.23-.09-1.83-.17,.65,.09-.37-.07-.5-.09-.36-.07-.72-.14-1.08-.22-1.32-.29-2.61-.69-3.88-1.17-1.82-.69-3.95,.77-4.43,2.52-.56,2.03,.69,3.74,2.52,4.43h0Z"/>
            <path class="cls-8" d="M438.64,250.49l7.23,8.22-6.21,5.46h0c-11.84,10.41-29.88,9.25-40.29-2.59h0c-10.41-11.84-9.25-29.88,2.59-40.29h0s6.21-5.46,6.21-5.46l7.23,8.22h0c-7.3,6.42-8.02,17.54-1.6,24.84h0c6.42,7.3,17.54,8.02,24.84,1.6h0"/>
          </g>
          <path class="cls-30" d="M494.96,292.64c.9-1.16,1.94-2.19,3.09-3.09l-.36,.28c.51-.39,1.03-.75,1.57-1.09,.39-.24,.71-.63,.83-1.08s.07-1.01-.18-1.39c-.52-.81-1.61-1.17-2.47-.65-1.92,1.18-3.65,2.68-5.03,4.46-.31,.39-.53,.75-.53,1.27,0,.44,.2,.97,.53,1.27s.79,.55,1.27,.53c.44-.02,.99-.16,1.27-.53h0Z"/>
          <path class="cls-30" d="M540.94,21.38c.05,3.82,.14,7.64,.19,11.46,.01,.94,.82,1.85,1.8,1.8s1.82-.79,1.8-1.8c-.05-3.82-.14-7.64-.19-11.46-.01-.94-.82-1.85-1.8-1.8s-1.82,.79-1.8,1.8h0Z"/>
          <path class="cls-30" d="M553.44,.31c-3.65,0-7.29-.07-10.94-.16-.96-.02-1.82,.85-1.8,1.8,.05,3.47,.1,6.93,.14,10.4,.01,.94,.82,1.85,1.8,1.8s1.82-.79,1.8-1.8c-.05-3.47-.1-6.93-.14-10.4l-1.8,1.8c3.65,.09,7.29,.16,10.94,.16,.94,0,1.85-.83,1.8-1.8s-.79-1.8-1.8-1.8h0Z"/>
          <path class="cls-30" d="M591.87,305.93c10.48-16.07,16.71-34.74,18.18-53.85,.77-9.98,.01-19.89-1.64-29.75-1.8-10.72-4.11-21.31-5.01-32.16-1.78-21.43,.21-43.03,4.58-64.04,2.16-10.37,5.36-20.57,6.59-31.11s-.53-20.87-3.08-31.05c-4.44-17.72-11.36-37.31-4.12-55.31,.82-2.03,1.87-3.96,3.06-5.79,.77-1.18-.25-2.68-1.56-2.71-15.22-.37-30.45,.02-45.67,.13-2.32,.02-2.32,3.62,0,3.6,15.22-.11,30.45-.5,45.67-.13l-1.56-2.71c-10.25,15.68-6.66,35.87-2.21,52.83,2.67,10.15,5.76,20.36,6.24,30.91,.49,10.71-2.33,21.02-4.81,31.34-5,20.8-7.91,42.22-7.32,63.65,.3,10.75,1.63,21.37,3.6,31.93s3.88,20.54,3.95,31.05c.14,19.21-4.8,38.42-14.24,55.15-1.19,2.11-2.45,4.17-3.77,6.2s1.85,3.76,3.11,1.82h0Z"/>
          <path class="cls-30" d="M586.85,300.3c6.48-10.26,11.01-21.73,13.28-33.65,2.38-12.51,2.02-25.12-.11-37.64-1.28-7.5-3.07-14.9-4.87-22.29-.27-1.13-2.01-.65-1.74,.48,3.13,12.9,6.3,25.94,6.61,39.27,.27,11.83-1.73,23.68-5.8,34.8-2.32,6.34-5.33,12.41-8.93,18.12-.62,.98,.94,1.89,1.56,.91h0Z"/>
          <path class="cls-30" d="M593.4,203.7c1.16,0,1.16-1.8,0-1.8s-1.16,1.8,0,1.8h0Z"/>
          <path class="cls-30" d="M579.67,281.77c5.66-4.8,9.08-11.72,10.25-18.99,.59-3.67,.66-7.42,.2-11.11-.52-4.12-1.8-7.97-3.15-11.88-1.74-5.01-3.51-10.35-1.96-15.64,.33-1.12-1.41-1.59-1.74-.48-2.54,8.7,2.85,16.9,4.58,25.19,1.5,7.2,.93,15.05-2.1,21.79-1.71,3.79-4.17,7.15-7.34,9.84-.89,.75,.39,2.02,1.27,1.27h0Z"/>
          <path class="cls-30" d="M585.6,220.32c1.16,0,1.16-1.8,0-1.8s-1.16,1.8,0,1.8h0Z"/>
          <path class="cls-30" d="M589.86,214.39c-5.11-8.54-4.33-18.87-3.17-28.34s2.69-19.44-.76-28.69c-1.6-4.29-4.15-8.07-7.83-10.84-.93-.7-1.83,.87-.91,1.56,7.04,5.3,9.18,14.65,9.09,23.03-.11,10.01-2.86,19.87-2.13,29.91,.36,5.01,1.56,9.95,4.16,14.28,.6,.99,2.15,.09,1.56-.91h0Z"/>
          <path class="cls-30" d="M578.57,141.6c5.14,1.83,8.9,6.31,10.88,11.29,2.41,6.07,2.36,12.77,1.92,19.18-.08,1.16,1.72,1.15,1.8,0,.48-6.9,.44-14.11-2.35-20.56-2.26-5.23-6.31-9.71-11.76-11.65-1.09-.39-1.57,1.35-.48,1.74h0Z"/>
          <path class="cls-30" d="M591.7,176.9c1.16,0,1.16-1.8,0-1.8s-1.16,1.8,0,1.8h0Z"/>
          <path class="cls-30" d="M601.48,146.45c-5.65-6.92-11.83-14.6-12-23.98-.08-4.43,1.64-8.11,3.61-11.96,1.72-3.38,3.4-6.93,2.99-10.82-.12-1.14-1.92-1.15-1.8,0,.45,4.34-1.87,8.13-3.74,11.86s-3.14,7.83-2.8,12.22c.73,9.4,6.73,16.94,12.46,23.96,.73,.9,2-.38,1.27-1.27h0Z"/>
          <path class="cls-30" d="M605.48,130.69c-2.66-2.48-5.52-5.23-6.43-8.88-1.03-4.15,.82-8.37,2.3-12.17,2.69-6.93,4-14.29,2.9-21.71-.61-4.08-2-8.01-4.15-11.53-.6-.99-2.16-.08-1.56,.91,4.05,6.62,5.06,14.63,3.83,22.21-.63,3.88-1.94,7.49-3.34,11.15s-2.7,7.66-1.71,11.62,4.01,6.98,6.9,9.68c.85,.79,2.12-.48,1.27-1.27h0Z"/>
          <path class="cls-30" d="M595.78,74.78c1.16,0,1.16-1.8,0-1.8s-1.16,1.8,0,1.8h0Z"/>
          <path class="cls-30" d="M582.42,3.6c.83,11.02,4.42,21.5,7.05,32.16,1.34,5.42,2.43,10.92,2.67,16.51s-.52,11.47-1.96,17.04c-1.64,6.37-4.03,12.51-6.42,18.62-.42,1.08,1.32,1.55,1.74,.48,4.2-10.74,8.45-21.8,8.5-33.5s-3.42-21.9-6.24-32.57c-1.63-6.15-3.07-12.38-3.54-18.74-.09-1.15-1.89-1.16-1.8,0h0Z"/>
          <path class="cls-30" d="M549.43,3.14c5.53,9.58,7.58,20.97,5.66,31.87-.2,1.13,1.54,1.62,1.74,.48,2-11.39-.05-23.24-5.84-33.26-.58-1-2.14-.1-1.56,.91h0Z"/>
          <path class="cls-30" d="M566.98,2.43c-2.99,6.56-1.95,14-.43,20.81,.69,3.12,1.76,6.77,4.3,8.92,1.03,.88,2.36,1.55,3.75,1.4,1.48-.16,2.41-1.28,3.09-2.51,1.94-3.46,2.32-7.55,1.98-11.44-.1-1.15-1.9-1.16-1.8,0,.32,3.67,.06,7.69-1.95,10.89-.5,.79-1.08,1.4-2.1,1.24-.92-.14-1.78-.85-2.37-1.52-1.2-1.36-1.94-3.13-2.47-4.84-1.08-3.47-1.72-7.24-2-10.86-.3-3.8-.03-7.68,1.56-11.19,.48-1.05-1.08-1.96-1.56-.91h0Z"/>
          <path class="cls-30" d="M578.13,16.09c1.16,0,1.16-1.8,0-1.8s-1.16,1.8,0,1.8h0Z"/>
          <path class="cls-30" d="M578.42,10.78c-.24-2.28-.7-4.51-1.43-6.68-.15-.46-.62-.76-1.11-.63-.45,.12-.78,.65-.63,1.11,.67,2.01,1.15,4.09,1.37,6.21,.05,.48,.38,.9,.9,.9,.45,0,.95-.41,.9-.9h0Z"/>
          <path class="cls-30" d="M596.2,2.42c-2.73,4.11-2.67,9.84,.19,13.88,.66,.94,2.23,.04,1.56-.91-2.51-3.55-2.6-8.43-.19-12.06,.64-.97-.92-1.87-1.56-.91h0Z"/>
          <path class="cls-30" d="M598.83,18.47c1.16,0,1.16-1.8,0-1.8s-1.16,1.8,0,1.8h0Z"/>
          <path class="cls-30" d="M610.92,73.42c-4.48-1.44-8.17-4.81-10.09-9.09-.2-.44-.84-.55-1.23-.32-.46,.27-.52,.79-.32,1.23,2.11,4.7,6.27,8.35,11.17,9.92,1.11,.36,1.58-1.38,.48-1.74h0Z"/>
          <path class="cls-30" d="M599.85,62.57c1.16,0,1.16-1.8,0-1.8s-1.16,1.8,0,1.8h0Z"/>
          <path class="cls-30" d="M601.78,56.83c.04-.16,.08-.32,.13-.48,.03-.08,.06-.17,.09-.25,.02-.04,.03-.08,.05-.12,.04-.11-.01,.04-.03,.07,.16-.3,.3-.61,.5-.9,.04-.07,.09-.13,.14-.19,.02-.03,.12-.16,.03-.04s.02-.02,.03-.03c.11-.13,.22-.25,.34-.37s.24-.23,.37-.34c.06-.05,.29-.21,.07-.06,.07-.05,.14-.1,.21-.15,.39-.27,.6-.8,.32-1.23-.25-.39-.82-.61-1.23-.32-1.36,.93-2.37,2.34-2.74,3.95-.1,.46,.14,1,.63,1.11,.46,.1,1-.14,1.11-.63h0Z"/>
        </g>
        <path d="M205.66,213.66c13.56-2.51,27.12-5.03,40.67-7.54,1.9-.35,1.09-3.24-.8-2.89-13.56,2.51-27.12,5.03-40.67,7.54-1.9,.35-1.09,3.24,.8,2.89h0Z"/>
        <path d="M253.52,205.13c1.93,0,1.93-3,0-3s-1.93,3,0,3h0Z"/>
        <path class="cls-31" d="M386.71,88.18c5.5-4.39,10.81-9.03,15.9-13.9l-7.07-5.45c-3.89,7-7.77,14.01-11.66,21.01-.94,1.69-.78,4.09,.7,5.45s3.59,1.63,5.45,.7c6.53-3.24,12.5-7.66,17.55-12.91l-6.36-6.36c-6.3,7.62-10.01,16.81-10.68,26.69-.22,3.27,4.04,5.8,6.77,3.89,7.59-5.33,15.19-10.65,22.78-15.98,1.92-1.35,3.01-4,1.61-6.16-1.23-1.91-4.1-3.06-6.16-1.61-7.59,5.33-15.19,10.65-22.78,15.98l6.77,3.89c.04-.55,.08-1.1,.14-1.65,.03-.28,.06-.55,.09-.82-.07,.51-.07,.5,.01-.04,.16-.95,.33-1.91,.55-2.85,.45-1.95,1.05-3.87,1.78-5.74,.08-.19,.15-.39,.23-.58-.19,.44-.17,.41,.04-.07,.23-.5,.46-1.01,.71-1.5,.43-.87,.89-1.72,1.38-2.56s1.01-1.65,1.56-2.45c.31-.46,.64-.9,.97-1.35-.53,.71,.48-.59,.58-.72,1.5-1.81,1.91-4.61,0-6.36-1.77-1.62-4.62-1.81-6.36,0-1.2,1.25-2.44,2.45-3.74,3.59-.6,.52-1.2,1.03-1.82,1.53-.13,.1-1.02,.8-.73,.58s-.62,.46-.76,.55c-2.74,1.99-5.65,3.74-8.68,5.25l6.16,6.16c3.89-7,7.77-14.01,11.66-21.01,2.48-4.47-3.34-9.02-7.07-5.45-5.09,4.87-10.39,9.5-15.9,13.9-1.85,1.48-1.65,4.85,0,6.36,1.96,1.8,4.39,1.57,6.36,0h0Z"/>
      </g>
    </g>
  </g>
</svg>