<?xml version="1.0" encoding="UTF-8"?>
<svg id="Layer_2" data-name="Layer 2" xmlns="http://www.w3.org/2000/svg" viewBox="0 0 104.89 95.8">
  <defs>
    <style>
      .cls-1 {
        fill: #fff;
      }

      .cls-2 {
        fill: #ecebeb;
      }

      .cls-3 {
        fill: #ffc754;
      }

      .cls-4 {
        fill: #a2fce2;
      }

      .cls-5 {
        fill: #d8d2d2;
      }

      .cls-6 {
        fill: #3e3127;
      }

      .cls-7 {
        fill: #94a5af;
      }

      .cls-8 {
        fill: #455760;
      }

      .cls-9 {
        fill: #637582;
      }
    </style>
  </defs>
  <g id="Layer_1-2" data-name="Layer 1">
    <g>
      <rect class="cls-2" x="11.42" y="46.37" width="82.04" height="17.72"/>
      <rect class="cls-5" x="12.06" y="52.74" width="80.44" height="3.42"/>
      <path class="cls-2" d="M15.67,1.13h0c2.05,0,3.72,1.67,3.72,3.72h0v13.18h-7.39V4.85c0-2.04,1.64-3.69,3.67-3.72Z"/>
      <rect class="cls-9" x="2.35" y="18.03" width="101.49" height="34.69" rx="5" ry="5"/>
      <path class="cls-7" d="M9.16,52.73H4.91c-1.78-.15-3.12-1.7-3-3.49V21.51c-.12-1.78,1.22-3.33,3-3.48h4.25c-1.78,.15-3.12,1.7-3,3.48v27.73c-.12,1.79,1.22,3.34,3,3.49Z"/>
      <path class="cls-8" d="M102.67,20.1v28.71c0,1.66-1.34,3-3,3H49.9c21.66-6.47,30.33-25.12,33.44-34.69h16.34c1.65,0,2.98,1.33,2.99,2.98Z"/>
      <circle class="cls-3" cx="15.91" cy="33.42" r="3.92"/>
      <circle class="cls-4" cx="39.65" cy="33.42" r="3.92"/>
      <circle class="cls-3" cx="27.78" cy="33.42" r="3.92"/>
      <path class="cls-6" d="M27.78,38.36c-2.73,0-4.94-2.21-4.94-4.94,0-2.73,2.21-4.94,4.94-4.94s4.94,2.21,4.94,4.94-2.21,4.94-4.94,4.94h0Zm0-7.84c-1.61,0-2.91,1.29-2.92,2.9,0,1.61,1.29,2.91,2.9,2.92,1.61,0,2.91-1.29,2.92-2.9,0,0,0-.01,0-.02,0-1.6-1.3-2.9-2.9-2.9Z"/>
      <path class="cls-6" d="M99.8,54.42H5.09C2.28,54.42,0,52.15,0,49.33V21.42c0-2.81,2.28-5.08,5.09-5.08H99.8c2.8,0,5.08,2.28,5.09,5.08v27.91c0,2.81-2.28,5.08-5.09,5.09ZM5.09,19.73c-.93,0-1.69,.76-1.7,1.69v27.91c0,.94,.76,1.7,1.7,1.7H99.8c.93,0,1.69-.77,1.69-1.7V21.42c0-.93-.76-1.69-1.69-1.69H5.09Z"/>
      <path class="cls-6" d="M94.82,70.91H10.07v-19.52H94.82v19.52Zm-82-2.72H92.1v-14.09H12.78l.04,14.09Z"/>
      <path class="cls-6" d="M15.88,38.36c-2.73,0-4.94-2.21-4.94-4.94s2.21-4.94,4.94-4.94,4.94,2.21,4.94,4.94-2.21,4.94-4.94,4.94h0Zm0-7.84c-1.61,0-2.91,1.29-2.92,2.9,0,1.61,1.29,2.91,2.9,2.92,1.61,0,2.91-1.29,2.92-2.9,0,0,0-.01,0-.02,0-1.6-1.3-2.89-2.9-2.9Z"/>
      <rect class="cls-9" x="2.35" y="59.41" width="101.49" height="34.69" rx="5" ry="5"/>
      <path class="cls-8" d="M103.19,62.41v28.7c0,1.66-1.34,3-3,3H50.42c21.65-6.47,30.33-25.12,33.44-34.7h16.34c1.65,0,2.99,1.35,2.99,3Z"/>
      <path class="cls-6" d="M24.55,71.18H14.27c-.55,0-1-.45-1-1s.45-1,1-1h10.28c.55,0,1,.45,1,1s-.45,1-1,1Z"/>
      <path class="cls-6" d="M24.55,77.78H14.27c-.55,0-1-.45-1-1s.45-1,1-1h10.28c.55,0,1,.45,1,1s-.45,1-1,1Z"/>
      <path class="cls-6" d="M24.55,84.38H14.27c-.55,0-1-.45-1-1s.45-1,1-1h10.28c.55,0,1,.45,1,1s-.45,1-1,1Z"/>
      <path class="cls-6" d="M46.58,71.18h-10.29c-.55,0-1-.45-1-1s.45-1,1-1h10.29c.55,0,1,.45,1,1s-.45,1-1,1Z"/>
      <path class="cls-6" d="M46.58,77.78h-10.29c-.55,0-1-.45-1-1s.45-1,1-1h10.29c.55,0,1,.45,1,1s-.45,1-1,1Z"/>
      <path class="cls-6" d="M46.58,84.38h-10.29c-.55,0-1-.45-1-1s.45-1,1-1h10.29c.55,0,1,.45,1,1s-.45,1-1,1Z"/>
      <path class="cls-6" d="M68.6,71.18h-10.29c-.55,0-1-.45-1-1s.45-1,1-1h10.29c.55,0,1,.45,1,1s-.45,1-1,1Z"/>
      <path class="cls-6" d="M68.6,77.78h-10.29c-.55,0-1-.45-1-1s.45-1,1-1h10.29c.55,0,1,.45,1,1s-.45,1-1,1Z"/>
      <path class="cls-6" d="M68.6,84.38h-10.29c-.55,0-1-.45-1-1s.45-1,1-1h10.29c.55,0,1,.45,1,1s-.45,1-1,1Z"/>
      <path class="cls-6" d="M90.62,71.18h-10.29c-.55,0-1-.45-1-1s.45-1,1-1h10.29c.55,0,1,.45,1,1s-.45,1-1,1Z"/>
      <path class="cls-6" d="M90.62,77.78h-10.29c-.55,0-1-.45-1-1s.45-1,1-1h10.29c.55,0,1,.45,1,1s-.45,1-1,1Z"/>
      <path class="cls-6" d="M90.62,84.38h-10.29c-.55,0-1-.45-1-1s.45-1,1-1h10.29c.55,0,1,.45,1,1s-.45,1-1,1Z"/>
      <polygon class="cls-1" points="18.9 6.18 11.99 12.16 11.99 9.9 18.9 3.92 18.9 6.18"/>
      <polygon class="cls-1" points="18.9 10.11 11.99 16.1 11.99 13.84 18.9 7.85 18.9 10.11"/>
      <path class="cls-6" d="M20.75,19.39H10.6V4.85C10.72,2.05,13.1-.12,15.9,0c2.63,.12,4.73,2.22,4.85,4.85v14.54Zm-7.44-2.72h4.69V4.85c0-1.3-1.06-2.36-2.36-2.36-1.3,0-2.36,1.06-2.36,2.36l.03,11.82Z"/>
      <path class="cls-6" d="M39.65,38.36c-2.73,0-4.94-2.21-4.94-4.94s2.21-4.94,4.94-4.94,4.94,2.21,4.94,4.94-2.21,4.94-4.94,4.94h0Zm0-7.84c-1.61,0-2.91,1.29-2.92,2.9,0,1.61,1.29,2.91,2.9,2.92,1.61,0,2.91-1.29,2.92-2.9,0,0,0-.01,0-.02,0-1.6-1.3-2.89-2.9-2.9Z"/>
      <circle class="cls-8" cx="71.09" cy="36.45" r="4.45"/>
      <circle class="cls-8" cx="64.58" cy="29.84" r="2.02" transform="translate(-1.55 3.62) rotate(-3.17)"/>
      <path class="cls-7" d="M9.16,94.11H4.91c-1.78-.15-3.12-1.7-3-3.48v-27.74c-.12-1.78,1.22-3.33,3-3.48h4.25c-1.78,.15-3.12,1.7-3,3.48v27.71c-.13,1.79,1.21,3.36,3,3.51Z"/>
      <path class="cls-6" d="M99.8,95.8H5.09c-2.81,0-5.08-2.27-5.09-5.08v-27.91c0-2.81,2.28-5.09,5.09-5.09H99.8c2.81,0,5.08,2.28,5.09,5.09v27.91c-.01,2.8-2.29,5.07-5.09,5.08ZM5.09,61.11c-.94,0-1.7,.76-1.7,1.7h0v27.91c0,.93,.77,1.69,1.7,1.69H99.8c.93,0,1.69-.76,1.69-1.69h0v-27.91c0-.93-.76-1.69-1.69-1.7H5.09Z"/>
    </g>
  </g>
</svg>