<?xml version="1.0" encoding="UTF-8"?>
<svg id="Layer_2" data-name="Layer 2" xmlns="http://www.w3.org/2000/svg" viewBox="0 0 108.92 35.02">
  <defs>
    <style>
      .cls-1 {
        fill: #eba42c;
      }

      .cls-2 {
        fill: #d38a20;
      }

      .cls-3 {
        fill: #3e3127;
      }

      .cls-4 {
        fill: #94a5af;
      }

      .cls-5 {
        fill: #455760;
      }

      .cls-6 {
        fill: #637582;
      }
    </style>
  </defs>
  <g id="Layer_1-2" data-name="Layer 1">
    <g>
      <path class="cls-6" d="M17.78,2.01H90.5c8.73,0,15.81,7.08,15.81,15.81h0c0,8.73-7.08,15.81-15.81,15.81H17.78c-8.73,0-15.81-7.08-15.81-15.81h0C1.97,9.09,9.05,2.01,17.78,2.01Z"/>
      <path class="cls-4" d="M24.83,33.95h-6.3c-8.8,0-15.93-7.13-15.93-15.93S9.73,2.09,18.53,2.09h6.29c-8.8,0-15.93,7.13-15.93,15.93s7.13,15.93,15.93,15.93h.01Z"/>
      <path class="cls-5" d="M105.53,17.65c0,8.12-6.58,14.7-14.7,14.71H51.83c7.5-9.39,8.54-20.4,7.51-29.42h31.45c8.12-.02,14.72,6.56,14.74,14.68,0,.01,0,.02,0,.03Z"/>
      <circle class="cls-5" cx="56.68" cy="23.51" r="6.12"/>
      <circle class="cls-5" cx="45.79" cy="18.37" r="2.73"/>
      <circle class="cls-1" cx="25.59" cy="17.62" r="10.86"/>
      <path class="cls-2" d="M26.72,6c8.7,0,15,10.23,7.57,19.3-4.06,2.58-7.93,3-11.17,1.81,5.66-2,8.63-8.21,6.63-13.87-1.09-3.1-3.53-5.54-6.63-6.63,1.16-.41,2.37-.61,3.6-.61Z"/>
      <path class="cls-3" d="M25.97,29.84c-6.75,0-12.22-5.46-12.23-12.21s5.46-12.22,12.21-12.23c6.74,0,12.21,5.44,12.23,12.18,.02,6.75-5.45,12.24-12.2,12.26,0,0,0,0-.01,0Zm0-21.72c-5.25,0-9.51,4.25-9.52,9.5s4.25,9.51,9.5,9.52,9.51-4.25,9.52-9.5v-.02c0-5.24-4.26-9.49-9.5-9.5Z"/>
      <path class="cls-3" d="M90.82,35.01H18.1C8.44,35.34,.34,27.77,.01,18.1S7.25,.34,16.92,.01c.39-.01,.79-.01,1.18,0H90.82c9.66-.33,17.76,7.24,18.09,16.91s-7.24,17.76-16.91,18.09c-.39,.01-.79,.01-1.18,0h0ZM18.1,3.39c-7.8-.21-14.28,5.94-14.49,13.74s5.94,14.28,13.74,14.49c.25,0,.5,0,.75,0H90.82c7.8-.21,13.95-6.7,13.74-14.49-.2-7.5-6.24-13.54-13.74-13.74H18.1Z"/>
    </g>
  </g>
</svg>