<?xml version="1.0" encoding="UTF-8"?>
<svg id="Layer_2" data-name="Layer 2" xmlns="http://www.w3.org/2000/svg" viewBox="0 0 108.09 74.88">
  <defs>
    <style>
      .cls-1 {
        fill: #fff;
      }

      .cls-2 {
        fill: #dbcec8;
      }

      .cls-3 {
        fill: #3e3127;
      }
    </style>
  </defs>
  <g id="Layer_1-2" data-name="Layer 1">
    <g>
      <path class="cls-1" d="M106,17.65V57.48c0,3.01-2.45,5.45-5.46,5.45h-10.11l-5.19,8.15c-.21,.33-.64,.44-.98,.23-.1-.06-.18-.14-.23-.23l-4.85-8.14H35.27c-3.01,0-5.45-2.44-5.45-5.45V17.66c0-3.02,2.44-5.46,5.46-5.46H100.51c3.02-.02,5.47,2.41,5.49,5.43,0,0,0,.01,0,.02Z"/>
      <path class="cls-2" d="M81.73,43.12V12.82l-4.47-.5-2.28,39-2.88,1.49-2.38,.4-5-.15,1.27,.27-8.63-1.8-21.56,.7c-1.4,0-2.54-1.14-2.54-2.54V6.91c0-.58,.09-1.16,.28-1.71-2.31,.69-3.9,2.82-3.9,5.23V50.25c0,3.01,2.45,5.45,5.46,5.46h10.66l15.87-.06,5.55,.06h6.57c2.57,0,6.7,0,8-2.26s-.02-6.58-.02-10.33Z"/>
      <circle class="cls-2" cx="36.96" cy="51.4" r="3.52"/>
      <circle class="cls-2" cx="43.23" cy="48.46" r="1.57"/>
      <circle class="cls-2" cx="75.47" cy="50.81" r="1.21"/>
      <path class="cls-3" d="M99.2,27.61H41.46c-.55,0-1-.45-1-1s.45-1,1-1h57.74c.55,0,1,.45,1,1s-.45,1-1,1Z"/>
      <path class="cls-3" d="M99.2,36.85h-21.77c-.55,0-1-.45-1-1s.45-1,1-1h21.77c.55,0,1,.45,1,1s-.45,1-1,1Z"/>
      <path class="cls-3" d="M99.2,46.08h-32.63c-.55,0-1-.45-1-1s.45-1,1-1h32.63c.55,0,1,.45,1,1s-.45,1-1,1Z"/>
      <path class="cls-3" d="M85,74.88l-6.35-10.64H33.65c-2.81,0-5.08-2.28-5.09-5.09V17.26c0-3.95,3.21-7.15,7.16-7.15H103c2.81,0,5.09,2.28,5.09,5.09V59.15c0,2.81-2.28,5.08-5.09,5.09h-11.25l-6.75,10.64ZM35.68,13.5c-2.08,0-3.76,1.68-3.77,3.76V59.15c0,.93,.77,1.69,1.7,1.69h46.93l4.52,7.59,4.83-7.58h13.11c.93,0,1.69-.76,1.7-1.69V15.2c0-.94-.76-1.7-1.7-1.7H35.68Z"/>
      <path class="cls-1" d="M2.09,7.54V47.37c0,3.01,2.45,5.45,5.46,5.45h10.08l5.19,8.15c.2,.33,.63,.44,.96,.24,.1-.06,.18-.14,.24-.24l4.86-8.13h43.9c3.01,0,5.45-2.44,5.46-5.45V7.55c0-3.02-2.44-5.46-5.46-5.46H7.55c-3.01,0-5.45,2.43-5.46,5.44,0,0,0,0,0,.01Z"/>
      <path class="cls-2" d="M36.93,48.12h34c1.4,0,2.54-1.14,2.54-2.54V2.84h0c-.02-.51,.38-.95,.89-.97,.22,0,.43,.06,.6,.19,1.33,1.03,2.11,2.62,2.11,4.3V50.71c0,.52-.42,.93-.94,.93H29.41"/>
      <circle class="cls-2" cx="71.1" cy="45.37" r="3.52"/>
      <circle class="cls-2" cx="64.83" cy="42.42" r="1.57"/>
      <circle class="cls-2" cx="37.44" cy="47.04" r="2.72"/>
      <circle class="cls-2" cx="32.59" cy="44.77" r="1.21"/>
      <path class="cls-3" d="M66.59,17.5H8.86c-.55,0-1-.45-1-1s.45-1,1-1h57.73c.55,0,1,.45,1,1s-.45,1-1,1Z"/>
      <path class="cls-3" d="M30.63,26.74H8.86c-.55,0-1-.45-1-1s.45-1,1-1H30.63c.55,0,1,.45,1,1s-.45,1-1,1Z"/>
      <path class="cls-3" d="M41.49,35.97H8.86c-.55,0-1-.45-1-1s.45-1,1-1H41.49c.55,0,1,.45,1,1s-.45,1-1,1Z"/>
      <path class="cls-3" d="M23.09,64.77l-6.78-10.65H2.63C1.18,54.12,0,52.94,0,51.49t0,0V2.63C0,1.18,1.18,0,2.63,0H76.91c1.45,0,2.63,1.18,2.63,2.63h0V51.49c0,1.45-1.18,2.63-2.63,2.63H29.44l-6.35,10.65ZM3.39,50.77h13.33c.9,0,1.74,.46,2.22,1.22l4,6.36,3.76-6.3c.47-.82,1.35-1.32,2.3-1.32h47.14V3.43H3.39V50.77Z"/>
    </g>
  </g>
</svg>