<?xml version="1.0" encoding="UTF-8"?>
<svg id="Layer_2" data-name="Layer 2" xmlns="http://www.w3.org/2000/svg" viewBox="0 0 97.58 105.54">
  <defs>
    <style>
      .cls-1 {
        fill: #f4cda2;
      }

      .cls-2 {
        fill: #eba42c;
      }

      .cls-3 {
        fill: #fcdcbe;
      }

      .cls-4, .cls-5 {
        fill: #fff;
      }

      .cls-6 {
        fill: #d38a20;
      }

      .cls-7 {
        fill: #3e3127;
      }

      .cls-8 {
        fill: #94a5af;
      }

      .cls-9 {
        fill: #455760;
      }

      .cls-10 {
        fill: #637582;
      }

      .cls-5 {
        isolation: isolate;
        opacity: .5;
      }
    </style>
  </defs>
  <g id="Layer_1-2" data-name="Layer 1">
    <g>
      <path class="cls-7" d="M62.96,30c-8.28,0-15-6.72-15-15S54.68,0,62.96,0s15,6.72,15,15-6.72,15-15,15h0Zm0-26.58c-6.41,0-11.6,5.19-11.6,11.6,0,6.41,5.19,11.6,11.6,11.6,6.41,0,11.6-5.19,11.6-11.6h0c0-6.41-5.2-11.6-11.6-11.6Z"/>
      <circle class="cls-4" cx="34.62" cy="15.01" r="13.29"/>
      <path class="cls-7" d="M34.64,30c-8.28,0-15-6.72-15-15S26.36,0,34.64,0s15,6.72,15,15-6.72,15-15,15h0Zm0-26.58c-6.41,0-11.6,5.18-11.61,11.59s5.18,11.6,11.59,11.61c6.41,0,11.6-5.18,11.61-11.59v-.02c-.01-6.4-5.19-11.58-11.59-11.59Z"/>
      <rect class="cls-10" x="2.08" y="17.55" width="94.19" height="20.23" rx="3.66" ry="3.66"/>
      <path class="cls-8" d="M95.49,22.41v3.86c0-2.26,.89-4.1-1.39-4.1H2.02c-2.26,0-.71,1.84-.71,4.1v-3.86c0-2.25-1.55-4.1,.71-4.1H94.1c2.28,0,1.39,1.85,1.39,4.1Z"/>
      <path class="cls-10" d="M12.48,37.55H83.84c3.48,0,6.31,2.83,6.31,6.31v51.63c-.01,4.58-3.73,8.29-8.31,8.29H14.48c-4.59,0-8.31-3.72-8.31-8.31V43.86c0-3.48,2.83-6.31,6.31-6.31Z"/>
      <rect class="cls-9" x="7.04" y="38.35" width="83.6" height="5.78"/>
      <rect class="cls-9" x="7.04" y="97.68" width="83.6" height="5.78"/>
      <path class="cls-2" d="M60.35,104.32V18.03c-.51-.51-21.58,0-21.58,0V104.32h21.58Z"/>
      <rect class="cls-1" x="38.56" y="18.23" width="21.57" height="3.86"/>
      <rect class="cls-6" x="38" y="38.36" width="21.57" height="5.77"/>
      <rect class="cls-6" x="38" y="97.68" width="21.57" height="5.77"/>
      <path class="cls-7" d="M87.39,105.54H10.19c-2.81,0-5.09-2.28-5.09-5.09V35.89H92.48V100.45c0,2.81-2.28,5.08-5.09,5.09ZM8.49,39.28v61.17c0,.94,.76,1.7,1.7,1.7H87.39c.93,0,1.69-.76,1.69-1.7V39.28H8.49Z"/>
      <circle class="cls-9" cx="74.07" cy="49.14" r="6.93"/>
      <circle class="cls-6" cx="44.89" cy="95.8" r="4.89"/>
      <circle class="cls-6" cx="49.35" cy="90.37" r="1.54"/>
      <circle class="cls-9" cx="81.78" cy="57.62" r="2.64"/>
      <path class="cls-4" d="M13.98,88.5c-.55,0-1-.45-1-1v-24.55c0-.55,.45-1,1-1s1,.45,1,1v24.53c.01,.55-.43,1.01-.98,1.02,0,0-.01,0-.02,0Z"/>
      <path class="cls-5" d="M13.98,58.21c-.55,0-1-.45-1-1v-5.43c0-.55,.45-1,1-1s1,.45,1,1v5.37c.03,.55-.39,1.03-.94,1.06-.02,0-.04,0-.06,0Z"/>
      <polygon class="cls-1" points="59.24 68.4 39.02 60.19 39.02 47.87 59.24 56.07 59.24 68.4"/>
      <polygon class="cls-3" points="59.24 76.37 39.02 68.16 39.02 64.05 59.24 72.26 59.24 76.37"/>
      <polygon class="cls-3" points="59.24 79.47 39.02 71.26 39.02 69.85 59.24 78.06 59.24 79.47"/>
      <rect class="cls-7" x="36.64" y="16.49" width="2.71" height="86.29"/>
      <rect class="cls-7" x="58.22" y="16.49" width="2.71" height="86.29"/>
      <path class="cls-7" d="M92.49,38.7H5.08c-2.81,0-5.08-2.28-5.08-5.09v-13.44c0-2.81,2.27-5.08,5.08-5.09H92.49c2.81,0,5.09,2.28,5.09,5.09v13.44c0,2.81-2.28,5.09-5.09,5.09ZM5.08,18.47c-.93,0-1.69,.76-1.69,1.7v13.44c0,.93,.76,1.69,1.69,1.7H92.49c.94,0,1.7-.76,1.7-1.7h0v-13.44c0-.94-.76-1.7-1.7-1.7H5.08Z"/>
    </g>
  </g>
</svg>