<?xml version="1.0" encoding="UTF-8"?>
<svg id="Layer_2" data-name="Layer 2" xmlns="http://www.w3.org/2000/svg" viewBox="0 0 61.52 100.51">
  <defs>
    <style>
      .cls-1 {
        fill: #fff;
      }

      .cls-2 {
        fill: #eff7f9;
      }

      .cls-3 {
        fill: #919fa8;
      }

      .cls-4 {
        fill: #81919b;
      }

      .cls-5 {
        fill: #b7dbeb;
      }

      .cls-6 {
        fill: #dbcec8;
      }

      .cls-7 {
        fill: #3e3127;
      }

      .cls-8 {
        fill: #455760;
      }

      .cls-9 {
        fill: #637582;
      }
    </style>
  </defs>
  <g id="Layer_1-2" data-name="Layer 1">
    <g>
      <path class="cls-1" d="M49.42,92.09H14.35c-1.34,0-2.45-1.05-2.53-2.39L7.86,20.11H55.86l-3.94,69.59c-.08,1.33-1.17,2.37-2.5,2.39Z"/>
      <path class="cls-6" d="M54.86,18.08l-3.94,69.58c-.07,1.34-1.19,2.39-2.53,2.39H29.58c16.11-26.37,15.77-66.73,1.53-72l23.75,.03Z"/>
      <circle class="cls-6" cx="40.96" cy="40.53" r="4.51"/>
      <circle class="cls-6" cx="32.91" cy="36.76" r="2.01"/>
      <polygon class="cls-9" points="52.39 67.5 10.93 67.5 9.87 48.85 53.45 48.85 52.39 67.5"/>
      <polygon class="cls-4" points="15.64 68.01 11.67 68.01 10.21 49.36 14.18 49.36 15.64 68.01"/>
      <path class="cls-8" d="M52.96,49.19l-1.1,18.65h-13.17c1.56-6.11,2.5-12.35,2.79-18.65h11.48Z"/>
      <rect class="cls-7" x="9.75" y="48.17" width="45.1" height="2.04"/>
      <rect class="cls-7" x="9.75" y="66.82" width="43.36" height="2.04"/>
      <path class="cls-7" d="M49.25,91.92H14.18c-2.25,0-4.1-1.76-4.22-4L5.96,16.54H57.55l-4,71.38c-.12,2.28-2.02,4.05-4.3,4ZM9.51,19.92l3.84,67.8c.02,.44,.39,.79,.83,.79H49.25c.44,0,.81-.35,.84-.79l3.83-67.8H9.51Z"/>
      <path class="cls-8" d="M12.8,11.16l1.22-6.31c.36-1.92,2.1-3.27,4.05-3.15l29.06,1.78c2.05,.12,3.65,1.82,3.65,3.88v4.48"/>
      <path class="cls-7" d="M52.65,11.84h-3.4V7.36c0-1.16-.9-2.12-2.06-2.19l-29.05-1.77c-1.1-.07-2.08,.69-2.29,1.77l-1.22,6.31-3.33-.64,1.22-6.31C13.05,1.77,15.55-.16,18.35,.01l29,1.77c2.95,.18,5.25,2.63,5.25,5.58l.05,4.48Z"/>
      <path class="cls-9" d="M58.75,19.47H3.86c-.38,0-.68-.3-.68-.68v-1.06c0-4.78,3.87-8.65,8.65-8.65H50.74c4.78,0,8.65,3.87,8.65,8.65v1.11c-.03,.34-.3,.61-.64,.63Z"/>
      <path class="cls-4" d="M57.69,14.44c-1.38-.89-2.99-1.36-4.64-1.36H14.13c-4.43,0-8.14,3.36-8.6,7.77H3.53c-.37,0-.67-.31-.68-.68v-1.06c0-4.78,3.88-8.65,8.66-8.65H50.42c2.94,0,5.69,1.5,7.27,3.98Z"/>
      <path class="cls-7" d="M59.14,21.56H4.29c-1.31,0-2.37-1.07-2.37-2.38v-1.06c0-5.71,4.63-10.34,10.34-10.35H51.17c5.71,0,10.34,4.64,10.35,10.35v1.06c0,1.31-1.07,2.37-2.38,2.38ZM5.31,18.16H58.12c-.03-3.83-3.12-6.92-6.95-6.95H12.26c-3.85,0-6.97,3.1-7,6.95h.05Z"/>
      <circle class="cls-4" cx="12.16" cy="14.38" r="1.74"/>
      <circle class="cls-4" cx="15.79" cy="15.71" r="1.04"/>
      <path class="cls-3" d="M35.58,62.36c-1.54,1.09-4,1-6.18-.33-2.66-1.67-3.78-4.65-2.52-6.67,0,0,.07-.11,.11-.15,.13,.35,.31,.69,.53,1,.53,.79,1.28,1.42,2.15,1.81,.52,.23,1.07,.38,1.63,.44,.5,.03,1,.1,1.48,.23,.84,.39,1.51,1.06,1.9,1.89,.33,.62,.61,1.26,.9,1.78Z"/>
      <path class="cls-3" d="M36.86,60.98l-.2,.27c-.18-.47-.37-1-.65-1.58-.23-.51-.54-.98-.9-1.4-.42-.5-.97-.87-1.58-1.1-.57-.16-1.16-.26-1.75-.28-.46-.02-.9-.11-1.33-.28-.73-.28-1.38-.73-1.91-1.31-.28-.3-.53-.64-.74-1,1.49-1.38,4.21-1.42,6.54,0,2.63,1.68,3.76,4.66,2.52,6.68Z"/>
      <path class="cls-5" d="M6.29,88.43H54.58c2.58,0,4.68,2.1,4.68,4.68h0c0,2.58-2.1,4.68-4.68,4.68H6.29c-2.58,0-4.68-2.1-4.68-4.68h0c0-2.58,2.1-4.68,4.68-4.68Z"/>
      <path class="cls-2" d="M58.75,93.96c-.54-.22-1.12-.33-1.71-.33H8.74c-2.57,0-4.66,2.08-4.67,4.65,0,0,0,.01,0,.02,0,.59,.11,1.18,.33,1.73-2.39-.99-3.52-3.73-2.52-6.12,.71-1.72,2.38-2.85,4.23-2.88H54.41c1.91,0,3.63,1.15,4.34,2.93Z"/>
      <path class="cls-7" d="M54.92,100.5H6.63c-3.52,.14-6.49-2.6-6.63-6.12-.14-3.52,2.6-6.49,6.12-6.63,.17,0,.34,0,.51,0H54.92c3.52,.14,6.26,3.11,6.12,6.63-.13,3.33-2.8,5.99-6.12,6.12ZM6.63,91.15c-1.66,0-3,1.34-3,3s1.34,3,3,3H54.92c1.66,0,3-1.34,3-3s-1.34-3-3-3H6.63Z"/>
    </g>
  </g>
</svg>