<?xml version="1.0" encoding="UTF-8"?>
<svg id="Layer_2" data-name="Layer 2" xmlns="http://www.w3.org/2000/svg" viewBox="0 0 114.4 93.71">
  <defs>
    <style>
      .cls-1 {
        fill: #fff;
      }

      .cls-2 {
        fill: #dbcec8;
      }

      .cls-3, .cls-4 {
        fill: #3e3127;
      }

      .cls-4 {
        isolation: isolate;
        opacity: .5;
      }
    </style>
  </defs>
  <g id="Layer_1-2" data-name="Layer 1">
    <g>
      <path class="cls-1" d="M14.02,76.24l3.86,14.79c.17,.64,.83,1.03,1.47,.86l44.72-11.66c.65-.17,1.03-.83,.86-1.48,0,0,0,0,0,0h0c-.14-.55-.64-.93-1.2-.91-13.23,.48-32.61,7.73-47.84-2.89-.55-.39-1.3-.26-1.69,.29-.21,.29-.27,.66-.18,1Z"/>
      <rect class="cls-1" x="9.06" y="21.06" width="48.63" height="66.08" rx="1.3" ry="1.3" transform="translate(-12.57 10.18) rotate(-14.62)"/>
      <circle class="cls-1" cx="30.38" cy="73.86" r="1.12"/>
      <circle class="cls-1" cx="24.81" cy="77.42" r="3.16"/>
      <path class="cls-2" d="M14.02,76.24l3.86,14.79c.17,.64,.83,1.03,1.47,.86l44.72-11.66c.65-.17,1.03-.83,.86-1.48,0,0,0,0,0,0h0c-.14-.55-.64-.93-1.2-.91-13.23,.48-32.61,7.73-47.84-2.89-.55-.39-1.3-.26-1.69,.29-.21,.29-.27,.66-.18,1Z"/>
      <path class="cls-3" d="M18.82,93.7c-1.18,0-2.2-.79-2.5-1.93L.09,29.54c-.18-.68-.09-1.4,.27-2,.36-.56,.92-.95,1.57-1.11L47.28,14.61c.66-.18,1.36-.08,1.95,.27,.59,.33,1.02,.89,1.19,1.55l16.24,62.23c.18,.68,.09,1.4-.27,2-.34,.59-.91,1.02-1.58,1.19l-45.35,11.83c-.21,.04-.43,.04-.64,.02ZM3.6,29.43l15.82,60.65,43.77-11.41-15.84-60.62L3.6,29.43Z"/>
      <circle class="cls-2" cx="30.43" cy="73.78" r="1.06"/>
      <circle class="cls-2" cx="25.18" cy="77.13" r="2.98"/>
      <rect class="cls-3" x="16.36" y="32.51" width="27.38" height="2.04" transform="translate(-7.45 8.6) rotate(-14.52)"/>
      <rect class="cls-4" x="32.64" y="35.88" width="12.52" height="2.04" transform="translate(-7.53 10.09) rotate(-13.49)"/>
      <path class="cls-1" d="M65.9,49.56h-.1l-3.46-.31c-.55-.05-.96-.54-.9-1.1s.54-.96,1.1-.9l3.46,.31c.55,.02,.98,.49,.96,1.04s-.49,.98-1.04,.96Z"/>
      <polygon class="cls-1" points="103.69 75.07 103.69 10.45 40.82 10.45 40.82 89.74 89.36 89.74 103.69 75.07"/>
      <polygon class="cls-3" points="114.4 90.74 98.54 90.74 98.54 88.02 111.68 88.02 111.68 11.33 109.9 11.33 109.9 8.62 114.4 8.62 114.4 90.74"/>
      <polygon class="cls-2" points="102.9 9.26 102.9 73.88 88.56 88.55 79.66 88.55 97.64 70.57 97.64 9.26 102.9 9.26"/>
      <circle class="cls-2" cx="97.12" cy="27.71" r="3.52"/>
      <circle class="cls-2" cx="90.85" cy="24.77" r="1.57"/>
      <path class="cls-3" d="M90.33,90.91H39.39V8.23H105.65V75.23l-15.32,15.68Zm-47.55-3.39h46.13l13.35-13.67V11.62H42.78V87.52Z"/>
      <path class="cls-3" d="M57.86,32.95c-4.25-.01-7.69-3.45-7.7-7.7v-4.63h2.72v4.63c0,2.76,2.24,5,5,5s5-2.24,5-5V8.43c0-3.15-2.56-5.71-5.71-5.71-3.15,0-5.71,2.56-5.71,5.71v1.26h-2.72v-1.26c0-4.66,3.77-8.43,8.43-8.43s8.43,3.77,8.43,8.43V25.25c0,4.26-3.46,7.71-7.72,7.7,0,0-.01,0-.02,0Z"/>
      <rect class="cls-3" x="52.58" y="41.52" width="33.03" height="2.71"/>
      <rect class="cls-3" x="52.58" y="48.32" width="16.07" height="2.71"/>
      <rect class="cls-3" x="52.58" y="55.04" width="27.61" height="2.71"/>
    </g>
  </g>
</svg>