<?xml version="1.0" encoding="UTF-8"?>
<svg id="Layer_2" data-name="Layer 2" xmlns="http://www.w3.org/2000/svg" viewBox="0 0 113.7 79.71">
  <defs>
    <style>
      .cls-1 {
        fill: #fff;
      }

      .cls-2 {
        fill: #ecebeb;
      }

      .cls-3 {
        fill: #ffc754;
      }

      .cls-4 {
        fill: #a2fce2;
      }

      .cls-5 {
        fill: #3e3127;
      }

      .cls-6 {
        fill: #94a5af;
      }

      .cls-7 {
        fill: #455760;
      }

      .cls-8 {
        fill: #637582;
      }
    </style>
  </defs>
  <g id="Layer_1-2" data-name="Layer 1">
    <g>
      <path class="cls-8" d="M11.87,.55l93.17,.16c4.7,0,8.5,3.82,8.5,8.52h0s-.1,59.13-.1,59.13c0,4.7-3.82,8.5-8.52,8.5h0l-100.28-.18c-.77,0-1.4-.63-1.4-1.4l.12-66.24c0-4.7,3.82-8.5,8.52-8.5h0Z"/>
      <path class="cls-7" d="M112.38,10.69l-.1,60c0,4.46-3.62,8.07-8.08,8.06,0,0,0,0-.01,0l-53.86-.09c17.66-20.72,26-57.94,29.14-76.11h24.85c4.46,0,8.07,3.62,8.06,8.08,0,.02,0,.04,0,.06Z"/>
      <rect class="cls-6" x="-27.25" y="42.71" width="63.75" height="3.47" transform="translate(-39.83 49) rotate(-89.9)"/>
      <path class="cls-2" d="M111.58,6.49v6.59L1.38,12.89V6.31c.1-2.01,1.8-3.56,3.81-3.48l102.61,.18c2-.08,3.7,1.47,3.78,3.47,0,0,0,0,0,0Z"/>
      <circle class="cls-5" cx="10.22" cy="7.62" r="1.11"/>
      <circle class="cls-5" cx="14.76" cy="7.63" r="1.11"/>
      <circle class="cls-5" cx="19.3" cy="7.64" r="1.11"/>
      <polygon class="cls-1" points="68.05 3.08 62.13 13.14 55.35 13.13 61.28 3.06 68.05 3.08"/>
      <polygon class="cls-1" points="83.9 3.1 77.98 13.17 71.19 13.15 77.12 3.09 83.9 3.1"/>
      <path class="cls-5" d="M107.81,79.71h0l-102.05-.17c-3.18-.02-5.75-2.6-5.76-5.78L.12,5.76C.11,2.58,2.68,0,5.86,0c.01,0,.02,0,.03,0h0L107.94,.17c3.18,.02,5.75,2.6,5.76,5.78l-.12,68c0,3.18-2.59,5.76-5.77,5.76ZM5.88,3.42c-.63,0-1.24,.24-1.68,.69-.45,.44-.7,1.05-.7,1.68l-.12,68c0,1.31,1.07,2.37,2.38,2.38l102.05,.18h0c1.31,0,2.37-1.07,2.38-2.38l.11-68c0-1.31-1.05-2.37-2.36-2.38,0,0,0,0-.01,0L5.88,3.42Z"/>
      <rect class="cls-5" x="56.17" y="-42.65" width="2.04" height="110.77" transform="translate(44.35 69.9) rotate(-89.9)"/>
      <path class="cls-3" d="M62.81,22.96h0l-48.9-.08c-.55,0-1-.45-1-1s.45-1,1-1h0l48.91,.08c.55,0,1,.45,1,1s-.45,1-1,1h-.01Z"/>
      <path class="cls-4" d="M41.25,31.28H13.89c-.55,0-1-.45-1-1s.45-1,1-1h27.37c.55,0,1,.45,1,1s-.45,1-1,1h0Z"/>
      <path class="cls-1" d="M46.27,39.64H13.88c-.55,0-1-.45-1-1s.45-1,1-1h0l32.39,.06c.55,0,1,.45,1,1s-.45,1-1,1v-.06Z"/>
      <path class="cls-1" d="M53.18,31.3h-3.67c-.55,0-1-.45-1-1s.45-1,1-1h3.68c.55,0,1,.45,1,1s-.45,1-1,1h0Z"/>
      <path class="cls-3" d="M61.07,39.67h-7.27c-.55,0-1-.45-1-1s.45-1,1-1h7.27c.55,0,1,.45,1,1s-.45,1-1,1Z"/>
    </g>
  </g>
</svg>