<?xml version="1.0" encoding="UTF-8"?>
<svg id="Layer_2" data-name="Layer 2" xmlns="http://www.w3.org/2000/svg" viewBox="0 0 84.31 113.81">
  <defs>
    <style>
      .cls-1 {
        fill: #fff;
      }

      .cls-2 {
        fill: #dbcec8;
      }

      .cls-3 {
        fill: #3e3127;
      }

      .cls-4, .cls-5 {
        fill: #94a5af;
      }

      .cls-6 {
        fill: #455760;
      }

      .cls-7 {
        fill: #637582;
      }

      .cls-5 {
        isolation: isolate;
        opacity: .3;
      }
    </style>
  </defs>
  <g id="Layer_1-2" data-name="Layer 1">
    <g>
      <path class="cls-7" d="M5.84,13.25H73.16c2.07,0,3.75,1.68,3.75,3.75h0c0,2.07-1.68,3.75-3.75,3.75H5.84c-2.07,0-3.75-1.68-3.75-3.75h0c0-2.07,1.68-3.75,3.75-3.75Z"/>
      <path class="cls-6" d="M76.52,17.82c0,2.07-1.68,3.74-3.75,3.75h-12.66c2.07,0,3.74-1.68,3.75-3.75,0-2.07-1.68-3.75-3.75-3.75h12.66c2.07,0,3.75,1.68,3.75,3.75Z"/>
      <path class="cls-1" d="M82.43,33.11c0,4.08-2.23,7.83-5.82,9.78l-63.9,.65c-5.4-2.92-7.41-9.67-4.49-15.07,1.94-3.59,5.7-5.83,9.78-5.83h49.56c5.78-2.07,12.15,.94,14.22,6.72,.43,1.2,.65,2.47,.65,3.75Z"/>
      <path class="cls-1" d="M17.19,44.28h-4.31c-5.4-2.92-7.41-9.67-4.49-15.07,1.94-3.59,5.7-5.83,9.79-5.83h4.39c-6.14,0-11.13,4.96-11.13,11.11,0,4.06,2.2,7.8,5.75,9.75v.04Z"/>
      <path class="cls-2" d="M83.72,32.85c0,4.08-2.23,7.84-5.82,9.78l-25.32,.26c-5.18-3.3-6.71-10.17-3.41-15.35,2.05-3.21,5.6-5.16,9.41-5.15h17.79c4.41,1.59,7.35,5.77,7.35,10.46Z"/>
      <path class="cls-7" d="M41.68,112h30.1c.25,0,.46-.19,.49-.44l6.65-67.08,1.91-.48H6.88l4,.53,6.65,67.08c.04,.23,.24,.39,.47,.39h30.1"/>
      <path class="cls-4" d="M22,113.12h-4c-.25,0-.45-.19-.48-.44L10.86,45.6l-4-.53h4l4,.53,6.65,67.08c.02,.25,.24,.45,.49,.44Z"/>
      <path class="cls-6" d="M79.62,44.9l-1.9,.54-6.66,67.08c-.03,.25-.23,.44-.48,.44h-20.37c13.26-19.42,17.15-54.67,18.18-68.06h11.23Z"/>
      <ellipse class="cls-6" cx="68.33" cy="55.53" rx="2.77" ry="3.24" transform="translate(-16.91 33.46) rotate(-24.58)"/>
      <ellipse class="cls-6" cx="63.1" cy="52.59" rx="1.24" ry="1.44" transform="translate(-16.16 31.01) rotate(-24.58)"/>
      <circle class="cls-6" cx="63.37" cy="17.68" r="1.04"/>
      <circle class="cls-6" cx="61.51" cy="16.8" r=".47"/>
      <circle class="cls-2" cx="46.4" cy="31.26" r="4.51"/>
      <circle class="cls-2" cx="37.95" cy="33.99" r="2.01"/>
      <path class="cls-6" d="M36.75,105c-.81,0-1.48-.61-1.56-1.41l-4.86-49c-.09-.86,.55-1.63,1.41-1.72s1.63,.55,1.72,1.41l4.86,49c.08,.86-.55,1.63-1.41,1.72h-.16Z"/>
      <path class="cls-5" d="M31.87,104.87c-.52,0-.95-.39-1-.91l-4.87-48.96c-.06-.55,.35-1.04,.9-1.1,.55-.06,1.04,.35,1.1,.9l4.86,49c.07,.55-.32,1.05-.87,1.12-.01,0-.03,0-.04,0l-.08-.05Z"/>
      <path class="cls-3" d="M55,104.77h-.14c-.74-.07-1.28-.73-1.21-1.48,0,0,0,0,0,0l4.86-49c.02-.75,.65-1.34,1.4-1.32,.75,.02,1.34,.65,1.32,1.4,0,.06,0,.13-.02,.19l-4.86,49c-.08,.69-.66,1.21-1.35,1.21Z"/>
      <path class="cls-3" d="M47.89,113.81H20.79c-2.84,0-5.22-2.17-5.47-5L9,44.76c-.05-.94,.68-1.74,1.61-1.78,.87-.04,1.64,.59,1.77,1.45l6.36,64.09c.1,1.08,1.01,1.9,2.09,1.9h27.1c.94-.07,1.75,.63,1.83,1.56,.07,.94-.63,1.75-1.56,1.83-.09,0-.17,0-.26,0h-.04Z"/>
      <path class="cls-3" d="M68.56,113.81h-27.1c-.94-.07-1.64-.89-1.56-1.83,.06-.84,.73-1.5,1.56-1.56h27.1c1.08,0,1.99-.82,2.1-1.9l6.34-64.09c.09-.93,.92-1.61,1.85-1.52,.93,.09,1.61,.92,1.52,1.85l-6.37,64.09c-.27,2.81-2.62,4.95-5.44,4.96Z"/>
      <path class="cls-3" d="M72.77,23H5.45c-3.01,0-5.45-2.44-5.45-5.45s2.44-5.45,5.45-5.45H72.77c3.01,0,5.45,2.44,5.45,5.45s-2.44,5.45-5.45,5.45ZM5.45,15.51c-1.13-.08-2.12,.78-2.2,1.91-.08,1.13,.78,2.12,1.91,2.2,.1,0,.19,0,.29,0H72.77c1.13-.08,1.99-1.06,1.91-2.2-.07-1.02-.89-1.84-1.91-1.91H5.45Z"/>
      <path class="cls-3" d="M27.62,13.83c-.75,0-1.36-.61-1.36-1.36h0V7.47c.01-4.12,3.36-7.46,7.48-7.47h8.8c4.12,.01,7.45,3.35,7.46,7.47v.29c.06,.75-.49,1.41-1.24,1.47-.75,.06-1.41-.49-1.47-1.24,0-.08,0-.16,0-.23v-.29c0-2.63-2.13-4.76-4.76-4.76h-8.8c-2.62,.02-4.73,2.14-4.73,4.76v5c0,.75-.61,1.36-1.36,1.36,0,0-.01,0-.02,0Z"/>
      <path class="cls-3" d="M44.68,103.56c-.75,0-1.36-.61-1.36-1.36h0V53.77c.06-.75,.72-1.3,1.47-1.24,.66,.06,1.18,.58,1.24,1.24v48.43c0,.75-.59,1.35-1.34,1.36,0,0,0,0-.01,0Z"/>
      <path class="cls-3" d="M13.22,45.42c-.22,0-.44-.06-.64-.17-6.06-3.28-8.32-10.85-5.04-16.92,3.28-6.06,10.85-8.32,16.92-5.04,4.03,2.18,6.54,6.4,6.54,10.98,0,.75-.61,1.36-1.36,1.36-.75,0-1.36-.61-1.36-1.36,0-5.39-4.38-9.76-9.77-9.75-5.39,0-9.76,4.38-9.75,9.77,0,3.58,1.96,6.87,5.11,8.57,.66,.36,.91,1.18,.55,1.84-.24,.44-.7,.71-1.2,.71Z"/>
      <path class="cls-3" d="M77.13,44.76c-.5,0-.96-.27-1.2-.71-.36-.66-.11-1.48,.55-1.84,4.74-2.57,6.5-8.49,3.93-13.23-2.57-4.74-8.49-6.5-13.23-3.93-3.15,1.7-5.11,4.99-5.11,8.57,0,.75-.61,1.36-1.36,1.36s-1.36-.61-1.36-1.36c.01-6.89,5.61-12.47,12.5-12.46s12.47,5.61,12.46,12.5c0,4.57-2.52,8.77-6.54,10.95-.2,.1-.42,.15-.64,.14Z"/>
      <path class="cls-3" d="M34.42,104.77c-.7,0-1.28-.53-1.35-1.22l-4.86-49c-.13-.74,.37-1.44,1.11-1.57,.74-.13,1.44,.37,1.57,1.11,.01,.06,.02,.12,.02,.19l4.86,49c.07,.74-.48,1.41-1.22,1.48h-.13Z"/>
      <path class="cls-3" d="M17.11,39.26c-.16,0-.33-.04-.47-.12-1.88-1.1-3.01-3.15-2.93-5.33-.09-2.32,1.2-4.47,3.29-5.49,.52-.22,1.12,.03,1.34,.54,.22,.52-.03,1.12-.55,1.34-1.31,.72-2.08,2.12-2,3.61-.06,1.42,.64,2.76,1.84,3.53,.51,.21,.75,.8,.54,1.31-.17,.4-.58,.65-1.01,.61h-.05Z"/>
      <path class="cls-6" d="M22.78,45.82h47.66v3.18H26c-1.77,0-3.21-1.44-3.21-3.21h0v.03Z"/>
      <path class="cls-3" d="M80.61,45.76H6.66c-.94,0-1.7-.76-1.7-1.7s.76-1.7,1.7-1.7H80.66c.94,0,1.7,.76,1.7,1.7s-.76,1.7-1.7,1.7h-.05Z"/>
    </g>
  </g>
</svg>