<?xml version="1.0" encoding="UTF-8"?>
<svg id="Layer_2" data-name="Layer 2" xmlns="http://www.w3.org/2000/svg" viewBox="0 0 135.47 51.42">
  <defs>
    <style>
      .cls-1 {
        fill: #e8aa46;
      }

      .cls-2 {
        fill: #fff;
      }

      .cls-3 {
        fill: #ffc754;
      }

      .cls-4 {
        fill: #dbcec8;
      }

      .cls-5 {
        fill: #3e3127;
      }
    </style>
  </defs>
  <g id="Layer_1-2" data-name="Layer 1">
    <g>
      <path class="cls-2" d="M25.77,1.71H109.81c13.26,0,24.01,10.75,24.01,24.01h0c0,13.26-10.75,24.01-24.01,24.01H25.77C12.51,49.72,1.76,38.97,1.76,25.71h0C1.76,12.45,12.51,1.71,25.77,1.71Z"/>
      <path class="cls-4" d="M132.86,25.23c0,13.25-10.75,24-24,24H24.86C11.61,49.23,.86,38.48,.86,25.23c0-1.08,.08-2.17,.22-3.24,1.62,11.9,11.78,20.77,23.79,20.77H108.87c12.01,0,22.16-8.88,23.77-20.78,.14,1.08,.22,2.16,.22,3.25Z"/>
      <path class="cls-5" d="M109.25,51.42H25.2C11.01,51.14-.27,39.4,0,25.2,.28,11.4,11.4,.28,25.2,0H109.25c14.2-.28,25.93,11,26.21,25.2,.28,14.2-11,25.93-25.2,26.21-.34,0-.68,0-1.01,0ZM25.2,3.42c-12.32,0-22.31,10-22.3,22.32,0,12.31,9.99,22.3,22.3,22.3H109.25c12.32,0,22.31-9.98,22.32-22.3,0-12.32-9.98-22.31-22.3-22.32H25.2Z"/>
      <path class="cls-3" d="M46.88,10.1l1.8,3.65c.09,.19,.27,.32,.48,.35l4,.58c.34,.05,.59,.36,.54,.71-.02,.14-.09,.27-.19,.37l-2.92,2.85c-.15,.15-.22,.36-.18,.56l.69,4c.06,.34-.18,.67-.52,.72-.13,.02-.27,0-.39-.06l-3.62-1.9c-.18-.09-.4-.09-.58,0l-3.61,1.9c-.31,.17-.69,.05-.85-.26-.07-.12-.09-.27-.07-.4l.69-4c.04-.21-.03-.42-.18-.56l-2.92-2.85c-.25-.24-.26-.64-.02-.89,.1-.1,.23-.17,.37-.19l4-.58c.2-.03,.38-.16,.47-.35l1.81-3.65c.11-.33,.46-.51,.79-.41,.19,.06,.35,.21,.41,.41Z"/>
      <path class="cls-3" d="M25.81,10.1l1.81,3.65c.09,.19,.27,.32,.47,.35l4,.58c.34,.05,.59,.36,.54,.71-.02,.14-.09,.27-.19,.37l-2.92,2.85c-.15,.14-.22,.35-.18,.56l.69,4c.06,.34-.17,.67-.52,.73-.14,.02-.28,0-.4-.07l-3.61-1.9c-.18-.09-.4-.09-.58,0l-3.61,1.9c-.31,.17-.69,.05-.85-.26-.07-.12-.09-.27-.07-.4l.69-4c.04-.2-.03-.41-.18-.56l-2.92-2.85c-.25-.24-.26-.64-.02-.89,.1-.1,.23-.17,.37-.19l4-.58c.21-.03,.39-.16,.48-.35l1.8-3.65c.11-.33,.46-.51,.79-.41,.19,.06,.35,.21,.41,.41Z"/>
      <path class="cls-3" d="M67.94,10.1l1.8,3.65c.09,.19,.27,.32,.48,.35l4,.58c.35,.06,.58,.39,.52,.74-.02,.13-.08,.25-.17,.34l-2.93,2.85c-.14,.15-.21,.36-.18,.56l.69,4c.06,.34-.18,.67-.52,.72-.13,.02-.27,0-.39-.06l-3.61-1.9c-.19-.09-.4-.09-.59,0l-3.61,1.9c-.32,.16-.7,.03-.86-.29-.06-.12-.08-.25-.06-.37l.69-4c.04-.21-.03-.42-.18-.56l-2.92-2.85c-.25-.25-.24-.66,0-.91,.09-.09,.21-.15,.34-.17l4-.58c.2-.03,.38-.16,.47-.35l1.81-3.65c.1-.33,.45-.53,.78-.43,.21,.06,.37,.22,.43,.43Z"/>
      <path class="cls-3" d="M89,10.1l1.81,3.65c.09,.19,.27,.32,.47,.35l4,.58c.35,.06,.58,.39,.52,.74-.02,.13-.08,.25-.17,.34l-2.92,2.85c-.15,.14-.22,.35-.18,.56l.69,4c.05,.35-.2,.67-.55,.72-.13,.02-.26,0-.37-.06l-3.61-1.9c-.19-.09-.4-.09-.59,0l-3.61,1.9c-.31,.16-.69,.04-.85-.27-.06-.12-.08-.26-.06-.39l.69-4c.03-.21-.04-.42-.19-.56l-2.92-2.85c-.25-.25-.24-.66,0-.91,.09-.09,.21-.15,.34-.17l4-.58c.21-.03,.38-.16,.47-.35l1.81-3.65c.1-.33,.45-.53,.78-.43,.21,.06,.37,.22,.43,.43Z"/>
      <path class="cls-3" d="M110.06,10.1l1.81,3.65c.09,.19,.27,.32,.47,.35l4,.58c.35,.06,.58,.39,.52,.74-.02,.13-.08,.25-.17,.34l-2.92,2.85c-.15,.14-.22,.35-.18,.56l.69,4c.06,.34-.17,.67-.52,.73-.14,.02-.28,0-.4-.07l-3.61-1.9c-.19-.09-.4-.09-.59,0l-3.61,1.9c-.31,.16-.69,.04-.85-.27-.06-.12-.08-.26-.06-.39l.69-4c.04-.2-.03-.41-.18-.56l-2.83-2.85c-.25-.24-.26-.64-.02-.89,.1-.1,.23-.17,.37-.19l4-.58c.21-.03,.39-.16,.48-.35l1.8-3.65c.16-.31,.55-.42,.85-.26,.11,.06,.2,.15,.26,.26Z"/>
      <path class="cls-1" d="M29.32,18.61c-.15,.14-.22,.35-.18,.56l.68,4c.07,.34-.15,.66-.49,.73-.14,.03-.29,0-.42-.07l-3.61-1.9c-.09-.04-.19-.07-.29-.07V9.74c.24,0,.46,.14,.57,.35l1.8,3.66c.09,.19,.27,.32,.47,.35l4,.59c.34,.04,.58,.35,.54,.69-.02,.15-.09,.28-.19,.38l-2.88,2.85Z"/>
      <path class="cls-1" d="M50.32,18.61c-.15,.14-.22,.35-.18,.56l.69,4c.06,.34-.17,.67-.52,.73-.14,.02-.28,0-.4-.07l-3.59-1.85c-.09-.04-.19-.07-.29-.07V9.74c.24,0,.46,.14,.57,.35l1.8,3.66c.09,.19,.27,.32,.47,.35l4,.59c.34,.04,.58,.35,.54,.69-.02,.15-.09,.28-.19,.38l-2.9,2.85Z"/>
      <path class="cls-1" d="M71.39,18.61c-.15,.15-.22,.36-.18,.56l.69,4c.07,.34-.15,.66-.49,.73-.14,.03-.29,0-.42-.07l-3.62-1.9c-.09-.04-.19-.07-.29-.07V9.74c.24,0,.46,.14,.57,.35l1.8,3.66c.09,.19,.27,.32,.48,.35l4,.59c.34,.04,.58,.35,.54,.69-.02,.15-.09,.28-.19,.38l-2.89,2.85Z"/>
      <path class="cls-1" d="M92.46,18.61c-.15,.14-.22,.35-.19,.56l.69,4c.07,.34-.15,.66-.49,.73-.14,.03-.29,0-.42-.07l-3.61-1.9c-.09-.04-.2-.07-.3-.07V9.74c.24,0,.46,.14,.57,.35l1.8,3.66c.09,.19,.27,.32,.48,.35l4,.59c.34,.04,.58,.35,.54,.69-.02,.15-.09,.28-.19,.38l-2.88,2.85Z"/>
      <path class="cls-1" d="M113.81,18.61c-.15,.14-.22,.35-.18,.56l.68,4c.07,.34-.15,.66-.49,.73-.14,.03-.29,0-.42-.07l-3.61-1.9c-.09-.04-.19-.07-.29-.07V9.74c.24,0,.46,.14,.57,.35l1.8,3.66c.09,.19,.27,.32,.47,.35l4,.59c.34,.04,.58,.35,.54,.69-.02,.15-.09,.28-.19,.38l-2.88,2.85Z"/>
      <path class="cls-5" d="M101.08,33.3H33.72c-.55,0-1-.45-1-1s.45-1,1-1H101.08c.55,0,1,.45,1,1s-.45,1-1,1Z"/>
      <path class="cls-5" d="M44.75,39.74H22.68c-.55,0-1-.45-1-1s.45-1,1-1h22.07c.55,0,1,.45,1,1s-.45,1-1,1Z"/>
      <path class="cls-5" d="M59.76,39.74h-8.88c-.55,0-1-.45-1-1s.45-1,1-1h8.88c.55,0,1,.45,1,1s-.45,1-1,1Z"/>
      <circle class="cls-4" cx="116" cy="31.72" r="2.67"/>
      <circle class="cls-4" cx="112.63" cy="39.92" r="6.99"/>
      <path class="cls-5" d="M20.76,24.6c-.72,0-1.31-.59-1.31-1.31,0-.07,0-.15,.02-.22l.69-4-2.91-2.8c-.52-.5-.54-1.33-.03-1.85,.2-.21,.47-.35,.76-.39l4-.58,1.77-3.64c.22-.44,.68-.72,1.18-.72,.5,0,.95,.28,1.17,.72l1.81,3.66,4,.56c.49,.08,.89,.42,1.05,.89,.16,.48,.03,1-.33,1.35l-2.92,2.84,.71,4c.08,.49-.12,.99-.53,1.28-.4,.3-.93,.34-1.37,.1l-3.61-1.9-3.57,1.9c-.18,.08-.38,.12-.58,.11Zm-2.44-9.26l2.85,2.78c.31,.3,.45,.73,.38,1.16l-.68,3.93,3.53-1.86c.38-.2,.84-.2,1.22,0l3.52,1.86-.67-3.93c-.07-.43,.07-.86,.38-1.16l2.85-2.78-3.94-.57c-.43-.06-.81-.33-1-.72l-1.78-3.6-1.74,3.6c-.19,.39-.57,.66-1,.72l-3.92,.57Z"/>
      <path class="cls-5" d="M41.82,24.6c-.28,0-.55-.09-.77-.25-.4-.29-.6-.79-.52-1.28l.69-4-2.91-2.8c-.52-.5-.54-1.33-.03-1.85,.2-.21,.47-.35,.76-.39l4-.58,1.77-3.64c.33-.65,1.11-.91,1.76-.58,.25,.13,.45,.33,.58,.58l1.81,3.66,4,.56c.72,.1,1.22,.76,1.12,1.48-.04,.29-.18,.56-.39,.76l-2.93,2.84,.71,4c.08,.49-.12,.99-.52,1.28-.4,.3-.94,.34-1.38,.1l-3.61-1.9-3.57,1.9c-.18,.08-.37,.12-.57,.11Zm4.2-3.4c.21,0,.42,.05,.61,.15l3.52,1.86-.67-3.93c-.07-.43,.07-.86,.38-1.16l2.85-2.78-3.94-.57c-.43-.06-.81-.33-1-.72l-1.77-3.6-1.75,3.6c-.19,.39-.57,.66-1,.72l-3.94,.57,2.85,2.78c.31,.3,.45,.73,.38,1.16l-.67,3.93,3.52-1.86c.19-.1,.41-.15,.63-.15Z"/>
      <path class="cls-5" d="M62.88,24.6c-.27,0-.54-.08-.76-.25-.41-.29-.61-.79-.53-1.28l.69-4-2.9-2.8c-.36-.35-.49-.87-.33-1.35,.15-.46,.53-.8,1-.89l4-.58,1.77-3.64c.22-.44,.67-.72,1.17-.72,.5,0,.96,.28,1.18,.72l1.8,3.66,4,.56c.72,.1,1.22,.76,1.12,1.48-.04,.29-.18,.56-.39,.76l-2.92,2.84,.7,4c.12,.71-.36,1.39-1.07,1.51-.28,.05-.57,0-.83-.13l-3.61-1.9-3.57,1.9c-.16,.07-.34,.11-.52,.11Zm-2.49-9.26l2.85,2.78c.31,.3,.45,.73,.38,1.16l-.67,3.93,3.52-1.86c.38-.2,.84-.2,1.22,0l3.53,1.86-.68-3.93c-.07-.43,.07-.86,.38-1.16l2.85-2.78-3.94-.57c-.43-.06-.81-.33-1-.72l-1.77-3.6-1.75,3.6c-.19,.39-.57,.66-1,.72l-3.92,.57Z"/>
      <path class="cls-5" d="M83.95,24.6c-.72,0-1.31-.59-1.31-1.31,0-.07,0-.15,.02-.22l.69-4-2.91-2.8c-.36-.35-.49-.87-.33-1.35,.15-.46,.53-.8,1-.89l4-.58,1.77-3.64c.33-.65,1.13-.91,1.78-.57,.25,.13,.45,.33,.57,.57l1.8,3.66,4,.56c.49,.07,.9,.42,1.06,.89,.16,.48,.03,1-.33,1.35l-2.92,2.84,.7,4c.12,.71-.36,1.39-1.07,1.51-.28,.05-.57,0-.83-.13l-3.61-1.9-3.56,1.9c-.16,.07-.34,.11-.52,.11Zm4.19-3.4c.21,0,.42,.05,.61,.15l3.53,1.86-.67-3.93c-.08-.42,.06-.86,.37-1.16l2.85-2.78-3.94-.57c-.43-.06-.81-.33-1-.72l-1.78-3.6-1.75,3.6c-.19,.39-.57,.66-1,.72l-3.94,.57,2.85,2.78c.31,.3,.45,.74,.37,1.16l-.67,3.93,3.53-1.86c.2-.1,.42-.16,.64-.15Z"/>
      <path class="cls-5" d="M105.01,24.6c-.72,0-1.31-.59-1.31-1.31,0-.07,0-.15,.02-.22l.69-4-2.91-2.8c-.36-.35-.49-.87-.33-1.35,.16-.47,.57-.82,1.06-.89l4-.58,1.77-3.64c.33-.65,1.13-.91,1.78-.57,.25,.13,.45,.33,.57,.57l1.81,3.66,4,.56c.49,.08,.89,.42,1.05,.89,.16,.48,.03,1-.33,1.35l-2.92,2.84,.7,4c.12,.71-.36,1.39-1.08,1.51-.28,.05-.56,0-.81-.13l-3.62-1.9-3.56,1.9c-.18,.08-.38,.12-.58,.11Zm-2.49-9.26l2.85,2.78c.31,.3,.45,.73,.38,1.16l-.68,3.93,3.53-1.86c.38-.2,.83-.2,1.21,0l3.53,1.86-.67-3.93c-.08-.43,.07-.86,.38-1.16l2.85-2.78-3.94-.57c-.43-.06-.81-.33-1-.72l-1.78-3.6-1.75,3.6c-.19,.4-.57,.67-1,.72l-3.91,.57Z"/>
    </g>
  </g>
</svg>