<?xml version="1.0" encoding="utf-8"?>
<!-- Generator: Adobe Illustrator 27.0.0, SVG Export Plug-In . SVG Version: 6.00 Build 0)  -->
<svg version="1.1" id="Layer_1" xmlns="http://www.w3.org/2000/svg" xmlns:xlink="http://www.w3.org/1999/xlink" x="0px" y="0px"
	 viewBox="0 0 279.8 460.3" style="enable-background:new 0 0 279.8 460.3;" xml:space="preserve">
<style type="text/css">
	.st0{fill:#5DCBFD;}
	.st1{fill:#373635;}
	.st2{fill:#25252D;}
	.st3{opacity:0.5;fill:#21201F;enable-background:new    ;}
	.st4{fill:#FFFFFF;}
	.st5{enable-background:new    ;}
	.st6{fill:#E1E4FE;}
	.st7{opacity:0.5;fill:#FFFFFF;enable-background:new    ;}
</style>
<path class="st0" d="M102.5,6.3h146.4c14.6,0,26.4,11.8,26.4,26.4v367.7c0,14.6-11.8,26.4-26.4,26.4H102.5
	c-14.6,0-26.4-11.8-26.4-26.4V32.7C76.1,18.1,87.9,6.3,102.5,6.3z"/>
<path class="st1" d="M274.4,26.1v375.5c0,14.4-18.7,26-41.7,26H114.6V7h118.1C255.7,7,274.4,11.8,274.4,26.1z"/>
<path class="st2" d="M126.1,3.9v10.6c0,3.8,2.6,6.9,5.7,6.9h87.9c3.2,0,5.7-3.1,5.7-6.9V3.9"/>
<path class="st3" d="M76.1,397.5v-16.7c0,14.4,11.6,26,26,26l0,0h147.2c14.4,0,26-11.6,26-26v16.7c0,14.4-11.6,26-26,26H102.1
	C87.7,423.4,76.1,411.8,76.1,397.5z"/>
<path class="st2" d="M251,429.5H100.5c-15.9,0-28.9-12.9-28.9-28.9V28.9C71.6,12.9,84.6,0,100.5,0H251c15.9,0,28.9,12.9,28.9,28.9
	v371.8C279.9,416.6,266.9,429.5,251,429.5z M100.5,9c-11,0-19.9,8.9-19.9,19.9v371.8c0,11,8.9,19.9,19.9,19.9H251
	c11,0,19.9-8.9,19.9-19.9V28.9C270.9,17.9,262,9,251,9H100.5z"/>
<path class="st2" d="M205.5,395.7H146c-2.5,0-4.5-2-4.5-4.5s2-4.5,4.5-4.5h59.5c2.5,0,4.5,2,4.5,4.5S208,395.7,205.5,395.7
	L205.5,395.7z"/>
<path class="st4" d="M76.1,123.2c-1.4,0-2.5-1.1-2.5-2.5v-20.5c0-1.4,1.1-2.5,2.5-2.5s2.5,1.1,2.5,2.5v20.5
	C78.6,122.1,77.5,123.2,76.1,123.2z"/>
<path class="st4" d="M76.1,133.2c-1.4,0-2.5-1.1-2.5-2.5v-4.3c0-1.4,1.1-2.5,2.5-2.5s2.5,1.1,2.5,2.5v4.3
	C78.6,132.1,77.5,133.2,76.1,133.2z"/>
<path class="st4" d="M76.1,139.5c-1.4,0-2.5-1.1-2.5-2.5v-1.3c0-1.4,1.1-2.5,2.5-2.5s2.5,1.1,2.5,2.5v1.3
	C78.6,138.4,77.5,139.5,76.1,139.5z"/>
<path class="st4" d="M76.2,127.9c-1.4,0-2.5-1.1-2.5-2.5V105c0-1.4,1.1-2.5,2.5-2.5s2.5,1.1,2.5,2.5v20.5
	C78.6,126.8,77.5,127.9,76.2,127.9z"/>
<path class="st4" d="M76.1,134.8c-1.4,0-2.5-1.1-2.5-2.5c0,0,0,0,0,0v-2.7c0-1.4,1.1-2.5,2.5-2.5s2.5,1.1,2.5,2.5v2.7
	C78.6,133.6,77.5,134.8,76.1,134.8C76.1,134.8,76.1,134.8,76.1,134.8z"/>
<path class="st4" d="M127.6,171.9H24.9c-9.3,0-16.9-7.6-16.9-16.9L7.6,82.3c0-9.4,7.6-17,17-17h102.7c9.3,0,16.9,7.5,17,16.9
	l0.3,72.7C144.6,164.3,137,171.9,127.6,171.9z"/>
<g class="st5">
	<path class="st2" d="M83.8,135.4h-8.4l-3.3-8.7H56.8l-3.2,8.7h-8.2l14.9-38.2h8.2L83.8,135.4z M69.6,120.3l-5.3-14.2l-5.2,14.2
		H69.6z"/>
	<path class="st2" d="M87.9,97.2h14.1c3.2,0,5.6,0.2,7.3,0.7c2.2,0.7,4.2,1.8,5.8,3.5c1.6,1.7,2.8,3.7,3.6,6.2
		c0.8,2.4,1.2,5.4,1.2,9c0,3.1-0.4,5.9-1.2,8.1c-1,2.8-2.3,5-4.1,6.7c-1.3,1.3-3.1,2.3-5.4,3c-1.7,0.5-4,0.8-6.8,0.8H87.9V97.2z
		 M95.6,103.7v25.3h5.8c2.2,0,3.7-0.1,4.7-0.4c1.2-0.3,2.3-0.8,3.1-1.6s1.5-2,2-3.7c0.5-1.7,0.8-4,0.8-7c0-3-0.3-5.2-0.8-6.8
		c-0.5-1.6-1.2-2.8-2.2-3.7c-0.9-0.9-2.1-1.5-3.6-1.8c-1.1-0.2-3.2-0.4-6.3-0.4H95.6z"/>
</g>
<polygon class="st6" points="142.4,167 12,167 11.7,154.7 142.1,154.7 "/>
<path class="st2" d="M130.7,176.4H21.8c-10.1,0-18.3-8.2-18.4-18.3L3.1,79.3c0-10.2,8.2-18.4,18.4-18.5c0,0,0,0,0,0h108.9
	c10.1,0,18.3,8.2,18.4,18.3l0.3,78.8C149.1,168.1,140.9,176.4,130.7,176.4C130.7,176.4,130.7,176.4,130.7,176.4z M21.5,69.8
	c-5.2,0-9.4,4.2-9.4,9.4c0,0,0,0,0,0l0.3,78.7c0,5.2,4.2,9.4,9.4,9.4h108.9c5.2,0,9.4-4.2,9.4-9.4l-0.3-78.8c0-5.2-4.2-9.4-9.4-9.4
	L21.5,69.8z"/>
<rect x="244.2" y="43.2" class="st7" width="7" height="55.4"/>
<rect x="244" y="109.5" class="st7" width="7" height="12.4"/>
<rect x="244.2" y="135.7" class="st4" width="7" height="17.9"/>
<rect x="131.5" y="451.3" class="st2" width="92.8" height="9"/>
<rect x="108" y="451.3" class="st2" width="11" height="9"/>
<rect x="236.8" y="451.3" class="st2" width="12.7" height="9"/>
<rect y="80" class="st4" width="17.8" height="12.5"/>
<rect y="90.7" class="st4" width="17.8" height="26.7"/>
<rect y="129.9" class="st4" width="17.8" height="12.5"/>
<rect x="68.2" y="216.5" class="st4" width="12.5" height="12.5"/>
<rect x="68.2" y="241.4" class="st4" width="12.5" height="12.5"/>
<rect x="68.2" y="266.3" class="st4" width="12.5" height="12.5"/>
<rect x="68.2" y="291.2" class="st4" width="12.5" height="12.5"/>
<rect x="91.6" y="268.6" class="st7" width="7" height="55.5"/>
<rect x="91.4" y="335.1" class="st7" width="7" height="11.1"/>
</svg>
