<?xml version="1.0" encoding="UTF-8"?>
<svg id="Layer_2" data-name="Layer 2" xmlns="http://www.w3.org/2000/svg" viewBox="0 0 140.98 104.86">
  <defs>
    <style>
      .cls-1 {
        fill: #f4ad5e;
      }

      .cls-2 {
        fill: #00abaf;
      }

      .cls-3 {
        fill: #000201;
      }

      .cls-4 {
        fill: #ffdcc0;
      }

      .cls-5 {
        fill: #fff;
      }

      .cls-6 {
        fill: #ffc68d;
      }

      .cls-7 {
        fill: #b0dcf7;
      }

      .cls-8 {
        fill: #dcf0ff;
      }

      .cls-9 {
        fill: #caf0ff;
      }

      .cls-10 {
        fill: #e28c37;
      }

      .cls-11 {
        fill: #14b8c4;
      }

      .cls-12 {
        fill: #34e0f7;
      }

      .cls-13 {
        fill: #37a7d3;
      }

      .cls-14 {
        opacity: .5;
      }
    </style>
  </defs>
  <g id="Layer_1-2" data-name="Layer 1">
    <g>
      <g class="cls-14">
        <path class="cls-5" d="M68.38,38.99c.01,5.6-4.52,10.15-10.12,10.16,0,0,0,0-.01,0H27.11c-7.66,0-13.87-6.21-13.87-13.87s6.21-13.87,13.87-13.87h0c1.71,0,3.41,.31,5,.93,3.59-6.77,11.99-9.34,18.75-5.75,4.54,2.41,7.37,7.13,7.37,12.27,5.59,0,10.13,4.52,10.15,10.11v.02Z"/>
        <path class="cls-9" d="M68.38,38.99c.02,5.6-4.51,10.15-10.11,10.17,0,0,0,0-.01,0H27.12c-7.67,0-13.89-6.21-13.9-13.88h0c0-1.59,.28-3.17,.82-4.67,1.96,5.54,7.2,9.24,13.08,9.23h31.1c3.79,0,7.26-2.1,9-5.47,.77,1.42,1.16,3.01,1.16,4.62Z"/>
        <path class="cls-3" d="M16.73,26.57c-.3,0-.54-.24-.54-.54,0-.13,.05-.26,.14-.36,.63-.71,1.34-1.34,2.1-1.9,.23-.19,.57-.17,.76,.06,.19,.23,.17,.57-.06,.76-.02,.01-.03,.03-.05,.04h0c-.7,.53-1.35,1.13-1.94,1.78-.11,.11-.26,.17-.41,.16Z"/>
        <path class="cls-3" d="M58.21,49.7H27.11c-7.97-.01-14.42-6.49-14.41-14.45,0-2.66,.75-5.28,2.15-7.55,.17-.24,.51-.3,.75-.13,.22,.16,.29,.45,.17,.69h0c-3.88,6.26-1.95,14.47,4.31,18.35,2.11,1.31,4.55,2,7.03,2h31.1c5.3,.17,9.74-3.99,9.91-9.3s-3.99-9.74-9.3-9.91c-.21,0-.41,0-.62,0h0c-.3,0-.54-.24-.54-.54h0c.01-2.75-.83-5.43-2.41-7.68-.17-.24-.12-.57,.12-.74,0,0,0,0,.01,0,.25-.17,.58-.11,.76,.13h0c1.59,2.29,2.49,4.99,2.58,7.77,5.9,.25,10.48,5.24,10.23,11.13-.24,5.76-5.01,10.28-10.77,10.24h.02Z"/>
        <path class="cls-3" d="M21.3,23.21c-.3-.03-.51-.3-.48-.59,.02-.17,.11-.32,.26-.41,3.39-1.55,7.24-1.73,10.76-.51,3.63-6.32,11.41-8.94,18.13-6.11,.27,.12,.4,.44,.28,.71-.11,.27-.41,.41-.69,.3,0,0-.02,0-.02,0h0c-6.37-2.71-13.75-.11-17,6-.13,.24-.42,.35-.68,.25-1.52-.6-3.14-.9-4.78-.9-1.92,0-3.81,.42-5.55,1.23-.07,.03-.15,.05-.23,.04Z"/>
        <path class="cls-3" d="M34.84,25.84c-.2,0-.38-.11-.47-.28-.63-1.18-1.58-2.15-2.75-2.79-.26-.14-.36-.47-.22-.74s.47-.36,.74-.22h0c1.35,.75,2.45,1.87,3.17,3.24,.14,.26,.05,.59-.21,.73h0c-.08,.04-.17,.05-.26,.05Z"/>
        <path class="cls-3" d="M58.21,49.44H27.11c-7.83,0-14.17-6.35-14.18-14.18,0-.15,.12-.28,.27-.29,0,0,0,0,.01,0,.16,0,.29,.13,.3,.29h0c0,7.51,6.09,13.59,13.6,13.6h31.1c5.44,.17,10-4.1,10.17-9.54,.17-5.44-4.1-10-9.54-10.17-.21,0-.42,0-.63,0h0c-.15,0-.28-.12-.29-.27,0,0,0,0,0-.01,0-.16,.13-.29,.29-.3h0c5.76-.18,10.58,4.35,10.76,10.11,.18,5.76-4.35,10.58-10.11,10.76-.22,0-.43,0-.65,0Z"/>
        <path class="cls-3" d="M54.48,19.43c-.14,0-.27-.06-.37-.15-.71-.69-1.49-1.29-2.33-1.81-.25-.16-.33-.49-.17-.75,.16-.25,.49-.33,.74-.17h0c.91,.55,1.75,1.21,2.51,1.95,.21,.21,.21,.55,0,.76h0c-.1,.11-.24,.17-.38,.17Z"/>
      </g>
      <g class="cls-14">
        <path class="cls-5" d="M68.59,74.02c-.02,5.6,4.51,10.15,10.11,10.17,.01,0,.02,0,.03,0h31.14c7.66,0,13.87-6.21,13.87-13.87,0-7.66-6.21-13.87-13.87-13.87h0c-1.71,0-3.41,.31-5,.93-3.57-6.78-11.96-9.37-18.74-5.8-4.57,2.41-7.42,7.16-7.4,12.32-5.59,0-10.13,4.52-10.14,10.11h0Z"/>
        <path class="cls-9" d="M68.58,74.03c0,5.61,4.53,10.15,10.14,10.16,0,0,0,0,.01,0h31.14c7.66-.02,13.85-6.22,13.86-13.88h0c0-1.59-.28-3.17-.83-4.67-1.96,5.53-7.2,9.23-13.07,9.23h-31.1c-3.78,0-7.25-2.11-9-5.47-.76,1.42-1.16,3.02-1.15,4.63Z"/>
        <path class="cls-3" d="M120.22,61.61c.3,0,.55-.25,.54-.56,0-.13-.05-.26-.13-.35-.64-.71-1.34-1.35-2.09-1.93-.24-.18-.58-.13-.76,.11-.18,.24-.13,.58,.11,.76,.7,.53,1.34,1.12,1.93,1.77,.1,.12,.24,.19,.4,.2Z"/>
        <path class="cls-3" d="M78.73,84.77h31.11c7.97-.01,14.42-6.49,14.41-14.45,0-2.66-.75-5.28-2.15-7.55-.16-.25-.5-.33-.75-.17s-.33,.5-.17,.75c3.88,6.27,1.95,14.5-4.32,18.38-2.11,1.31-4.54,2-7.02,2h-31.11c-5.3,.17-9.74-3.99-9.91-9.3-.17-5.3,3.99-9.74,9.3-9.91,.21,0,.41,0,.62,0h0c.3,0,.54-.24,.54-.54h0c-.01-2.78,.85-5.49,2.46-7.76,.17-.25,.11-.59-.14-.76-.25-.17-.58-.11-.75,.14h0c-1.61,2.28-2.51,4.98-2.6,7.77-5.91,.14-10.59,5.04-10.46,10.94s5.04,10.59,10.94,10.46Z"/>
        <path class="cls-3" d="M115.66,58.25c.3,0,.54-.24,.55-.54,0-.21-.13-.4-.32-.49-3.38-1.56-7.24-1.74-10.76-.51-3.64-6.32-11.41-8.94-18.13-6.11-.27,.11-.41,.41-.3,.69,0,0,0,.02,0,.02,.12,.27,.43,.4,.71,.29h0c6.37-2.71,13.74-.1,17,6,.13,.24,.42,.35,.68,.25,1.52-.6,3.15-.91,4.79-.9,1.93,0,3.83,.41,5.58,1.21,.06,.04,.12,.07,.19,.09Z"/>
        <path class="cls-3" d="M102.13,60.87c.19,0,.37-.11,.47-.28,.63-1.18,1.58-2.16,2.75-2.82,.27-.12,.4-.43,.29-.71-.12-.27-.43-.4-.71-.29-.03,.01-.07,.03-.1,.05h0c-1.35,.75-2.45,1.87-3.18,3.23-.14,.26-.05,.59,.21,.73h0c.08,.05,.17,.08,.27,.08Z"/>
        <path class="cls-3" d="M78.73,84.48h31.11c7.83-.01,14.17-6.35,14.18-14.18,0-.16-.13-.29-.29-.29s-.29,.13-.29,.29h0c-.01,7.51-6.09,13.59-13.6,13.6h-31.11c-5.44,.17-10-4.1-10.17-9.54s4.1-10,9.54-10.17c.21,0,.42,0,.63,0h0c.16,0,.29-.13,.3-.29,0-.16-.13-.29-.29-.29h0c-5.76,.18-10.29,4.99-10.11,10.76,.17,5.51,4.6,9.94,10.11,10.11h-.01Z"/>
        <path class="cls-3" d="M82.48,54.46c.14,0,.28-.05,.38-.15,.71-.68,1.49-1.29,2.33-1.8,.25-.16,.33-.5,.17-.75-.15-.26-.48-.34-.74-.19,0,0,0,0,0,0h0c-.9,.56-1.74,1.21-2.51,1.95-.21,.21-.21,.56,0,.77h0c.1,.11,.24,.17,.38,.16Z"/>
      </g>
      <path class="cls-11" d="M75.15,.62C48.23,.62,26.4,22.44,26.4,49.37s21.83,48.75,48.75,48.75,48.75-21.83,48.75-48.75h0c-.05-26.9-21.85-48.7-48.75-48.75Zm0,4.43c11.32,0,22.21,4.37,30.4,12.19-1.48-.76-3.12-1.17-4.79-1.2-2.88,0-7.66,1.24-7.66,9.53,.59,3.5,2.04,6.81,4.21,9.62,2.92,4.74,6.25,10.1,5.4,14.31-1.9,5.63-4.56,13.38-7.13,20.7l-12.41-38.56h.84c1.21,.02,2.2-.95,2.22-2.16,0,0,0,0,0-.01h0c0-1.22-.98-2.21-2.2-2.22,0,0-.01,0-.02,0h-19.94c-1.22,.02-2.19,1-2.21,2.22,0,1.22,.99,2.21,2.21,2.21h1.66l7,20c-1.79,5.35-4.09,12.09-6.35,18.52l-12.46-38.56h1.29c1.21,.01,2.2-.96,2.21-2.17h0c0-1.22-.98-2.21-2.2-2.22,0,0,0,0-.01,0h-18.39c7.91-13.7,22.51-22.15,38.33-22.2ZM30.83,49.37c0-6.1,1.27-12.14,3.73-17.73h2l20.38,58.13c-15.89-7.17-26.1-22.97-26.11-40.4Zm44.32,44.31c-4,0-7.98-.55-11.83-1.64,2-5.45,7.58-21.27,11.83-33.59l11.83,33.59c-3.85,1.09-7.83,1.65-11.83,1.64Zm18.21-3.91c3-8.24,9.49-26.63,13.25-37.89,.09-.15,.15-.32,.18-.49,.08-.21,.14-.44,.18-.66,.58-1.64,1-3.1,1.42-4.3,2.35-7.45,4.56-17.11,2.74-22.78,14.26,19.78,9.79,47.37-9.99,61.63-2.44,1.76-5.04,3.26-7.78,4.49Z"/>
      <path class="cls-2" d="M124.1,47.83v1.11c.39,26.92-21.13,49.06-48.05,49.44S27,77.26,26.61,50.33c0-.47,0-.93,0-1.4v-1.11c.67,26.92,23.03,48.2,49.95,47.54,25.98-.64,46.89-21.55,47.54-47.54Z"/>
      <path class="cls-5" d="M26.61,50.55v-1.1C26.22,22.53,47.74,.39,74.66,0c26.92-.39,49.06,21.13,49.44,48.05,0,.47,0,.93,0,1.4v1.1c-.67-26.92-23.03-48.2-49.95-47.54-25.98,.64-46.89,21.55-47.54,47.54Z"/>
      <path class="cls-5" d="M51.38,66.98c-.23,0-.44-.14-.52-.37l-5.84-16.85c-.1-.29,.05-.61,.34-.71,.29-.1,.61,.05,.71,.34l5.84,16.85c.1,.29-.05,.61-.34,.71-.06,.02-.12,.03-.18,.03Z"/>
      <path class="cls-5" d="M44.5,47.14c-.23,0-.44-.14-.52-.37l-3.91-11.28c-.1-.29,.05-.61,.34-.71,.29-.1,.61,.05,.71,.34l3.91,11.28c.1,.29-.05,.61-.34,.71-.06,.02-.12,.03-.18,.03Z"/>
      <path class="cls-2" d="M92.83,88.96c-.06,0-.13-.01-.19-.03-.29-.1-.44-.42-.33-.71l5.74-15.93c.1-.29,.42-.44,.71-.33,.29,.1,.44,.42,.33,.71l-5.74,15.93c-.08,.23-.29,.37-.52,.37Z"/>
      <path class="cls-2" d="M63.64,88.54c-.06,0-.13-.01-.19-.03-.29-.1-.44-.42-.33-.71l5.73-15.92c.1-.29,.42-.44,.71-.33,.29,.1,.44,.42,.33,.71l-5.73,15.92c-.08,.23-.29,.37-.52,.37Z"/>
      <path class="cls-2" d="M88.85,53.31c-.24,0-.46-.15-.53-.39l-5.07-16.15c-.09-.29,.07-.6,.36-.7,.29-.09,.6,.07,.7,.36l5.07,16.15c.09,.29-.07,.6-.36,.7-.06,.02-.11,.03-.17,.03Z"/>
      <path class="cls-5" d="M52.48,29h-13.35c-.55,0-1-.45-1-1s.45-1,1-1h13.35c.55,0,1,.45,1,1s-.45,1-1,1Z"/>
      <path class="cls-5" d="M80.11,29h-13.35c-.55,0-1-.45-1-1s.45-1,1-1h13.35c.55,0,1,.45,1,1s-.45,1-1,1Z"/>
      <path class="cls-5" d="M72.26,49.52c-.41,0-.8-.26-.94-.67l-4.77-13.61c-.18-.52,.09-1.09,.61-1.27,.52-.18,1.09,.09,1.27,.61l4.77,13.61c.18,.52-.09,1.09-.61,1.27-.11,.04-.22,.06-.33,.06Z"/>
      <path class="cls-3" d="M75.15,98.67c-27.19,0-49.31-22.12-49.31-49.31S47.96,.06,75.15,.06h0c27.14,.05,49.25,22.17,49.3,49.3,0,27.19-22.12,49.31-49.31,49.31Zm0-97.5C48.58,1.17,26.96,22.79,26.96,49.37s21.62,48.19,48.19,48.19,48.19-21.62,48.19-48.19c-.05-26.52-21.67-48.14-48.2-48.19h0Zm0,93.06c-4.03,0-8.06-.55-11.98-1.66-.15-.04-.27-.14-.34-.28-.07-.14-.08-.3-.03-.44,1.91-5.19,7.37-20.66,11.83-33.58,.08-.22,.29-.37,.52-.37h0c.24,0,.45,.15,.52,.37l4.4,12.5c.1,.29-.05,.61-.34,.71-.29,.1-.61-.05-.71-.34l-3.87-11c-4.2,12.15-9.12,26.07-11.11,31.53,7.28,1.95,14.93,1.95,22.21,0l-5.5-15.61c-.1-.29,.05-.61,.34-.71,.29-.1,.61,.05,.71,.34l5.7,16.17c.05,.14,.04,.3-.03,.44-.07,.14-.19,.24-.34,.28-3.92,1.11-7.95,1.66-11.98,1.66Zm18.21-3.91c-.14,0-.27-.05-.38-.15-.16-.15-.22-.39-.14-.6,3.01-8.27,9.5-26.67,13.25-37.88,.01-.04,.03-.07,.05-.11,.06-.09,.09-.2,.11-.3,0-.03,.01-.07,.03-.1,.07-.18,.12-.37,.15-.56,.34-.99,.61-1.83,.86-2.61,.2-.64,.39-1.23,.58-1.77,2.24-7.11,4.54-16.79,2.74-22.43-.08-.26,.03-.54,.28-.66,.25-.12,.54-.05,.7,.17,7.14,9.89,9.93,22.44,7.65,34.43-.06,.3-.35,.49-.65,.44-.3-.06-.5-.35-.44-.65,2.05-10.78-.11-22.02-5.92-31.27,.65,5.93-1.34,14.09-3.31,20.32-.19,.55-.38,1.13-.58,1.76-.25,.79-.52,1.65-.85,2.56-.02,.16-.08,.39-.17,.62-.04,.2-.11,.39-.21,.57-3.57,10.68-9.61,27.84-12.78,36.59,10.89-5.34,19.11-14.96,22.68-26.59,.09-.29,.4-.46,.69-.37,.29,.09,.46,.4,.37,.69-3.79,12.36-12.72,22.51-24.49,27.84-.07,.03-.15,.05-.23,.05Zm-36.42,0c-.08,0-.15-.02-.23-.05-22.32-10.03-32.49-36.42-22.66-58.83,.09-.2,.29-.33,.51-.33h2c.24,0,.45,.15,.52,.37l3.79,10.78c.1,.29-.05,.61-.34,.71-.29,.1-.61-.05-.71-.34l-3.66-10.41h-1.24c-9.17,21.38,.22,46.37,21.05,56.48l-10.45-29.75c-.1-.29,.05-.61,.34-.71,.29-.1,.61,.05,.71,.34l10.89,31c.07,.21,.02,.44-.15,.59-.1,.1-.24,.15-.38,.15Zm9.44-19.57h0c-.24,0-.45-.16-.52-.38l-12.46-38.56c-.05-.17-.02-.35,.08-.5s.27-.23,.45-.23h1.29c.45,.02,.85-.16,1.17-.47,.31-.31,.49-.71,.49-1.15,0-.91-.73-1.66-1.65-1.66h-18.4c-.2,0-.38-.11-.48-.28s-.1-.38,0-.56c7.98-13.82,22.85-22.43,38.81-22.48h0c11.52,0,22.45,4.38,30.78,12.34,.2,.19,.23,.5,.07,.72-.16,.22-.46,.3-.71,.17-1.4-.72-2.97-1.11-4.55-1.14-3.23,0-7.1,1.56-7.1,8.98,.57,3.31,1.99,6.55,4.09,9.28l.1,.16c2.95,4.78,6.29,10.21,5.4,14.6-2.15,6.38-4.82,14.12-7.15,20.77-.08,.22-.28,.4-.53,.37-.24,0-.45-.16-.52-.39l-12.41-38.56c-.05-.17-.02-.35,.08-.5,.1-.14,.27-.23,.45-.23h.84s.02,0,.02,0c.9,0,1.63-.72,1.64-1.61,0-.92-.73-1.66-1.65-1.67h-19.96c-.91,.02-1.64,.75-1.65,1.67,0,.91,.74,1.65,1.65,1.65h1.66c.24,0,.45,.15,.52,.37l7,20c.04,.12,.04,.24,0,.36-2.01,6-4.32,12.75-6.35,18.53-.08,.22-.29,.37-.52,.37Zm-11.7-38.56l11.72,36.27c1.87-5.35,3.93-11.36,5.74-16.78l-6.81-19.45h-1.27c-1.52,0-2.77-1.24-2.77-2.77,.02-1.53,1.23-2.75,2.76-2.77h19.95c1.55,0,2.78,1.25,2.77,2.78-.02,1.53-1.25,2.73-2.78,2.72h-.07l11.67,36.26c2.2-6.27,4.62-13.31,6.58-19.14,.78-3.89-2.44-9.12-5.28-13.73l-.07-.12c-2.19-2.83-3.68-6.24-4.28-9.82,0-8.87,5.14-10.18,8.21-10.18,.78,.01,1.55,.11,2.31,.28-7.82-6.57-17.63-10.16-27.92-10.16-15.24,.05-29.46,8.1-37.36,21.09h17.42c1.54,0,2.77,1.25,2.77,2.78,0,.74-.3,1.42-.82,1.94-.52,.51-1.23,.78-1.95,.79h-.52Zm-9.68,24.02c-.23,0-.44-.14-.52-.37l-3.65-10.39c-.1-.29,.05-.61,.34-.71,.29-.1,.61,.05,.71,.34l3.65,10.39c.1,.29-.05,.61-.34,.71-.06,.02-.12,.03-.18,.03Z"/>
      <circle class="cls-5" cx="70.54" cy="39.22" r=".94"/>
      <circle class="cls-5" cx="71.69" cy="40.91" r=".18"/>
      <circle class="cls-5" cx="69.71" cy="34.5" r=".44"/>
      <circle class="cls-5" cx="70.83" cy="36.35" r=".21"/>
      <circle class="cls-5" cx="72.71" cy="37.55" r=".47"/>
      <circle class="cls-5" cx="72.11" cy="44.2" r=".81"/>
      <circle class="cls-5" cx="72.86" cy="41.77" r=".42"/>
      <circle class="cls-5" cx="74.9" cy="46.73" r=".42"/>
      <circle class="cls-5" cx="73.36" cy="48.37" r=".44"/>
      <circle class="cls-5" cx="67.6" cy="32.02" r=".31"/>
      <circle class="cls-5" cx="70.54" cy="29.34" r=".86"/>
      <circle class="cls-5" cx="74.51" cy="31.22" r=".34"/>
      <circle class="cls-5" cx="76.56" cy="29.63" r=".68"/>
      <circle class="cls-2" cx="95.86" cy="77.23" r="1.04"/>
      <circle class="cls-2" cx="92.32" cy="82.58" r=".74"/>
      <circle class="cls-2" cx="93.34" cy="79.85" r=".27"/>
      <circle class="cls-2" cx="93.18" cy="72.89" r=".66"/>
      <circle class="cls-2" cx="91.62" cy="87.75" r=".12"/>
      <circle class="cls-2" cx="91.7" cy="86.02" r=".27"/>
      <path class="cls-3" d="M26.59,97.72h-10.32c-.18,0-.32-.14-.32-.32s.14-.32,.32-.32h10.32c.18,0,.32,.14,.32,.32s-.14,.32-.32,.32Z"/>
      <rect class="cls-1" x="8.84" y="94.98" width="131.65" height="9.38"/>
      <path class="cls-3" d="M140.48,104.86H8.84c-.28,0-.5-.22-.5-.5v-9.38c0-.28,.22-.5,.5-.5h2.19c.28,0,.5,.22,.5,.5s-.22,.5-.5,.5h-1.69v8.38H139.98v-8.38H15.51c-.28,0-.5-.22-.5-.5s.22-.5,.5-.5h124.97c.28,0,.5,.22,.5,.5v9.38c0,.28-.22,.5-.5,.5Z"/>
      <circle class="cls-3" cx="28.78" cy="97.4" r=".68"/>
      <circle class="cls-3" cx="13.17" cy="95.01" r=".68"/>
      <path class="cls-12" d="M70.98,.62C44.06,.62,22.23,22.44,22.23,49.37s21.83,48.75,48.75,48.75,48.75-21.83,48.75-48.75h0c-.05-26.9-21.85-48.7-48.75-48.75Zm0,4.43c11.32,0,22.21,4.37,30.4,12.19-1.48-.76-3.12-1.17-4.79-1.2-2.88,0-7.66,1.24-7.66,9.53,.59,3.5,2.04,6.81,4.21,9.62,2.92,4.74,6.25,10.1,5.4,14.31-1.9,5.63-4.56,13.38-7.13,20.7l-12.41-38.56h.84c1.21,.01,2.2-.96,2.22-2.17h0c0-1.22-1-2.21-2.22-2.22h-19.94c-1.18,.04-2.13,1-2.17,2.18,.01,1.22,1,2.2,2.22,2.21h1.64l7,20c-1.86,5.39-4.13,12.13-6.39,18.56l-12.47-38.56h1.29c1.21,.01,2.2-.96,2.21-2.17h0c0-1.22-.98-2.21-2.2-2.22,0,0,0,0-.01,0h-18.37c7.91-13.7,22.51-22.15,38.33-22.2ZM26.66,49.37c0-6.1,1.27-12.14,3.73-17.73h1.95l20.39,58.13c-15.87-7.18-26.07-22.98-26.07-40.4Zm44.32,44.31c-4,0-7.98-.55-11.83-1.64,1.95-5.45,7.58-21.27,11.83-33.59l11.83,33.59c-3.85,1.09-7.83,1.65-11.83,1.64Zm18.21-3.91c3-8.24,9.49-26.63,13.25-37.89,.09-.15,.15-.32,.18-.49,.08-.21,.14-.44,.18-.66,.57-1.64,1-3.1,1.42-4.3,2.34-7.45,4.56-17.11,2.74-22.78,14.26,19.78,9.79,47.37-9.99,61.63-2.44,1.76-5.04,3.26-7.78,4.49Z"/>
      <path class="cls-2" d="M119.93,47.83v1.11c.39,26.92-21.13,49.06-48.05,49.44S22.83,77.26,22.44,50.33c0-.47,0-.93,0-1.4v-1.11c.67,26.92,23.03,48.2,49.95,47.54,25.98-.64,46.89-21.55,47.54-47.54Z"/>
      <path class="cls-5" d="M22.44,50.55v-1.1C22.05,22.53,43.57,.39,70.49,0s49.06,21.13,49.44,48.05c0,.47,0,.93,0,1.4v1.1c-.67-26.92-23.03-48.2-49.95-47.54-25.98,.64-46.89,21.55-47.54,47.54Z"/>
      <path class="cls-5" d="M47.21,66.98c-.23,0-.44-.14-.52-.37l-5.84-16.85c-.1-.29,.05-.61,.34-.71,.29-.1,.61,.05,.71,.34l5.84,16.85c.1,.29-.05,.61-.34,.71-.06,.02-.12,.03-.18,.03Z"/>
      <path class="cls-5" d="M40.33,47.14c-.23,0-.44-.14-.52-.37l-3.91-11.28c-.1-.29,.05-.61,.34-.71,.29-.1,.61,.05,.71,.34l3.91,11.28c.1,.29-.05,.61-.34,.71-.06,.02-.12,.03-.18,.03Z"/>
      <path class="cls-2" d="M88.66,88.96c-.06,0-.13-.01-.19-.03-.29-.1-.44-.42-.33-.71l5.74-15.93c.1-.29,.42-.44,.71-.33,.29,.1,.44,.42,.33,.71l-5.74,15.93c-.08,.23-.29,.37-.52,.37Z"/>
      <path class="cls-2" d="M59.46,88.54c-.06,0-.13-.01-.19-.03-.29-.1-.44-.42-.33-.71l5.74-15.92c.1-.29,.42-.44,.71-.33,.29,.1,.44,.42,.33,.71l-5.74,15.92c-.08,.23-.29,.37-.52,.37Z"/>
      <path class="cls-2" d="M84.68,53.31c-.24,0-.46-.15-.53-.39l-5.07-16.15c-.09-.29,.07-.6,.36-.7,.29-.09,.6,.07,.7,.36l5.07,16.15c.09,.29-.07,.6-.36,.7-.06,.02-.11,.03-.17,.03Z"/>
      <path class="cls-5" d="M48.31,29h-13.35c-.55,0-1-.45-1-1s.45-1,1-1h13.35c.55,0,1,.45,1,1s-.45,1-1,1Z"/>
      <path class="cls-5" d="M75.94,29h-13.35c-.55,0-1-.45-1-1s.45-1,1-1h13.35c.55,0,1,.45,1,1s-.45,1-1,1Z"/>
      <path class="cls-5" d="M68.09,49.52c-.41,0-.8-.26-.94-.67l-4.77-13.61c-.18-.52,.09-1.09,.61-1.27,.52-.18,1.09,.09,1.27,.61l4.77,13.61c.18,.52-.09,1.09-.61,1.27-.11,.04-.22,.06-.33,.06Z"/>
      <path class="cls-3" d="M70.98,98.67c-27.19,0-49.31-22.12-49.31-49.31S43.79,.06,70.98,.06h0c27.14,.05,49.25,22.17,49.3,49.3,0,27.19-22.12,49.31-49.31,49.31Zm0-97.5C44.41,1.17,22.79,22.79,22.79,49.37s21.62,48.19,48.19,48.19,48.19-21.62,48.19-48.19c-.05-26.52-21.67-48.14-48.2-48.19h0Zm0,93.06c-4.03,0-8.06-.55-11.98-1.66-.15-.04-.27-.14-.34-.28-.07-.14-.08-.3-.03-.44,2.34-6.53,7.81-21.95,11.83-33.58,.08-.22,.29-.37,.52-.37h0c.24,0,.45,.15,.52,.37l4.4,12.5c.1,.29-.05,.61-.34,.71-.29,.1-.61-.05-.71-.34l-3.87-11c-3.84,11.1-8.78,25.01-11.11,31.53,7.28,1.95,14.93,1.95,22.21,0l-5.5-15.61c-.1-.29,.05-.61,.34-.71,.29-.1,.61,.05,.71,.34l5.7,16.17c.05,.14,.04,.3-.03,.44-.07,.14-.19,.24-.34,.28-3.92,1.11-7.95,1.66-11.98,1.66Zm18.21-3.91c-.14,0-.27-.05-.38-.15-.16-.15-.22-.39-.14-.6,3.01-8.28,9.51-26.69,13.25-37.88,.01-.04,.03-.07,.05-.11,.06-.09,.09-.19,.11-.3,0-.03,.01-.07,.03-.1,.07-.18,.12-.37,.15-.56,.32-.95,.58-1.76,.82-2.5,.22-.68,.42-1.31,.62-1.88,2.24-7.11,4.54-16.79,2.74-22.43-.08-.26,.03-.54,.28-.66,.25-.12,.54-.05,.7,.17,7.14,9.89,9.93,22.44,7.66,34.43-.06,.3-.35,.49-.65,.44-.3-.06-.5-.35-.44-.65,2.05-10.78-.11-22.02-5.92-31.27,.65,5.93-1.34,14.09-3.31,20.32-.2,.58-.4,1.2-.62,1.87-.24,.76-.51,1.58-.81,2.44-.02,.16-.08,.39-.17,.62-.04,.2-.11,.39-.21,.57-3.56,10.66-9.61,27.83-12.78,36.59,10.89-5.34,19.11-14.96,22.68-26.59,.09-.29,.4-.46,.69-.37,.29,.09,.46,.4,.37,.69-3.79,12.36-12.72,22.51-24.49,27.84-.07,.03-.15,.05-.23,.05Zm-36.46,0c-.08,0-.15-.02-.23-.05-22.32-10.03-32.49-36.42-22.66-58.83,.09-.2,.29-.33,.51-.33h1.95c.23,0,.44,.15,.52,.37l3.83,10.75c.1,.29-.05,.61-.34,.71-.29,.1-.61-.05-.71-.34l-3.7-10.38h-1.19c-9.17,21.38,.22,46.37,21.06,56.48l-10.41-29.76c-.1-.29,.05-.61,.34-.71,.29-.1,.6,.05,.71,.34l10.85,31c.07,.21,.01,.44-.15,.59-.1,.1-.24,.15-.38,.15Zm9.47-19.57h0c-.24,0-.45-.16-.52-.38l-12.47-38.56c-.05-.17-.03-.35,.08-.5s.27-.23,.45-.23h1.29c.47,.02,.85-.16,1.17-.47,.31-.31,.49-.71,.49-1.15,0-.91-.73-1.66-1.65-1.66h-18.38c-.2,0-.38-.11-.48-.28s-.1-.38,0-.56c7.98-13.82,22.85-22.43,38.81-22.48h0c11.52,0,22.45,4.38,30.78,12.34,.2,.19,.23,.5,.07,.72-.16,.22-.46,.3-.71,.17-1.4-.72-2.97-1.11-4.55-1.14-3.23,0-7.1,1.56-7.1,8.98,.57,3.31,1.99,6.55,4.09,9.28l.1,.16c2.95,4.78,6.29,10.21,5.4,14.6-2.15,6.38-4.82,14.12-7.15,20.77-.08,.22-.3,.4-.53,.37-.24,0-.45-.16-.52-.39l-12.41-38.56c-.05-.17-.02-.35,.08-.5,.1-.14,.27-.23,.45-.23h.84c.94,.03,1.65-.72,1.66-1.62,0-.91-.75-1.65-1.67-1.66h-19.94c-.87,.03-1.59,.75-1.62,1.64,0,.89,.76,1.63,1.67,1.64h1.64c.24,0,.45,.15,.52,.37l7,20c.04,.12,.04,.25,0,.36-.65,1.89-1.35,3.95-2.09,6.1-1.36,3.98-2.83,8.29-4.3,12.47-.08,.22-.29,.37-.52,.37Zm-11.71-38.56l11.73,36.27c1.28-3.68,2.56-7.42,3.75-10.9,.71-2.08,1.39-4.08,2.03-5.92l-6.81-19.45h-1.25c-1.52,0-2.76-1.25-2.78-2.76,.05-1.49,1.23-2.69,2.71-2.74h19.96c1.52,0,2.77,1.25,2.77,2.77-.02,1.51-1.25,2.73-2.75,2.73h-.1l11.67,36.26c2.2-6.27,4.62-13.31,6.58-19.14,.78-3.89-2.44-9.12-5.28-13.73l-.07-.12c-2.19-2.83-3.68-6.24-4.28-9.82,0-8.87,5.14-10.18,8.21-10.18,.78,.01,1.55,.11,2.31,.28-7.82-6.57-17.63-10.16-27.92-10.16-15.24,.05-29.46,8.1-37.36,21.09h17.4c1.54,0,2.77,1.25,2.77,2.78,0,.74-.3,1.42-.82,1.94-.52,.51-1.23,.78-1.95,.79h-.52Zm-9.76,23.99c-.23,0-.44-.14-.52-.37l-3.6-10.39c-.1-.29,.05-.61,.34-.71,.29-.1,.61,.05,.71,.34l3.6,10.39c.1,.29-.05,.61-.34,.71-.06,.02-.12,.03-.18,.03Z"/>
      <circle class="cls-5" cx="66.37" cy="39.22" r=".94"/>
      <circle class="cls-5" cx="67.52" cy="40.91" r=".18"/>
      <circle class="cls-5" cx="65.54" cy="34.5" r=".44"/>
      <circle class="cls-5" cx="66.66" cy="36.35" r=".21"/>
      <circle class="cls-5" cx="68.54" cy="37.55" r=".47"/>
      <circle class="cls-5" cx="67.94" cy="44.2" r=".81"/>
      <circle class="cls-5" cx="68.69" cy="41.77" r=".42"/>
      <circle class="cls-5" cx="70.73" cy="46.73" r=".42"/>
      <circle class="cls-5" cx="69.19" cy="48.37" r=".44"/>
      <circle class="cls-5" cx="63.43" cy="32.02" r=".31"/>
      <circle class="cls-5" cx="66.37" cy="29.34" r=".86"/>
      <circle class="cls-5" cx="70.33" cy="31.22" r=".34"/>
      <circle class="cls-5" cx="72.39" cy="29.63" r=".68"/>
      <circle class="cls-2" cx="91.68" cy="77.23" r="1.04"/>
      <circle class="cls-2" cx="88.15" cy="82.58" r=".74"/>
      <circle class="cls-2" cx="89.17" cy="79.85" r=".27"/>
      <circle class="cls-2" cx="89.01" cy="72.89" r=".66"/>
      <circle class="cls-2" cx="87.45" cy="87.75" r=".12"/>
      <circle class="cls-2" cx="87.53" cy="86.02" r=".27"/>
      <rect class="cls-13" x="13.46" y="60.91" width="36.96" height="11.19" rx="1.44" ry="1.44"/>
      <rect class="cls-13" x="13.46" y="72.26" width="36.96" height="11.19" rx="1.44" ry="1.44"/>
      <rect class="cls-13" x="13.46" y="83.45" width="36.96" height="11.19" rx="1.44" ry="1.44"/>
      <path class="cls-3" d="M13.22,70.93c-.24,0-.43-.19-.43-.43v-8.31c0-.24,.19-.43,.43-.43s.43,.19,.43,.43v8.31c0,.24-.19,.43-.43,.43Z"/>
      <path class="cls-3" d="M48.73,72.37h-14.84c-.24,0-.43-.19-.43-.43s.19-.43,.43-.43h14.84c.55,0,1-.45,1.01-1v-8.3c0-.57-.45-1.01-1-1.01h-2.18c-.24,0-.43-.19-.43-.43s.19-.43,.43-.43h2.18c1.02,0,1.85,.83,1.86,1.85v8.33c-.01,1.02-.85,1.85-1.87,1.85Z"/>
      <path class="cls-3" d="M14.65,83.71c-.49,0-.95-.19-1.3-.54-.35-.35-.55-.81-.55-1.31v-8.32c0-.24,.19-.43,.43-.43s.43,.19,.43,.43v8.3c0,.57,.45,1.01,1,1.01H48.73c.28,0,.53-.11,.72-.3,.19-.19,.29-.44,.29-.71v-8.3c0-.57-.45-1.01-1-1.01h-11.25c-.24,0-.43-.19-.43-.43s.19-.43,.43-.43h11.25c1.02,0,1.85,.83,1.86,1.85v8.32c0,.49-.19,.96-.54,1.32-.35,.35-.81,.55-1.31,.55H14.65Z"/>
      <path class="cls-3" d="M48.74,94.9H14.66c-1.03,0-1.87-.84-1.87-1.87v-8.31c0-1.03,.84-1.87,1.87-1.87H48.74c1.03,0,1.87,.84,1.87,1.87v8.31c0,1.03-.84,1.87-1.87,1.87Zm-34.08-11.19c-.56,0-1.01,.45-1.01,1.01v8.31c0,.56,.45,1.01,1.01,1.01H48.74c.56,0,1.01-.45,1.01-1.01v-8.31c0-.56-.45-1.01-1.01-1.01H14.66Z"/>
      <rect class="cls-8" x="8.73" y="60.91" width="36.96" height="11.19" rx="1.44" ry="1.44"/>
      <rect class="cls-8" x="8.73" y="72.26" width="36.96" height="11.19" rx="1.44" ry="1.44"/>
      <rect class="cls-8" x="8.73" y="83.45" width="36.96" height="11.19" rx="1.44" ry="1.44"/>
      <path class="cls-7" d="M44.25,94.63H10.17c-.8-.03-1.44-.69-1.44-1.5H43.02c-.09-.7,.39-1.33,1.09-1.43,0,0,.01,0,.02,0h.12v-8.25c.79-.03,1.45,.59,1.48,1.38,0,.02,0,.03,0,.05h0v8.31c0,.79-.63,1.43-1.42,1.44-.02,0-.04,0-.06,0Z"/>
      <path class="cls-7" d="M44.25,83.37H10.17c-.81-.03-1.45-.7-1.44-1.51H43.02c-.09-.7,.41-1.34,1.11-1.43,0,0,0,0,0,0h.12v-8.25c.79-.02,1.46,.6,1.48,1.4,0,.01,0,.03,0,.04h0v8.31c0,.79-.63,1.43-1.42,1.44-.02,0-.04,0-.06,0Z"/>
      <path class="cls-7" d="M44.25,71.77H10.17c-.8-.04-1.43-.68-1.44-1.48H43.02c-.09-.7,.41-1.34,1.11-1.43,0,0,0,0,0,0h.12v-8.25c.79-.03,1.45,.59,1.48,1.38,0,.02,0,.04,0,.06h0v8.31c-.02,.8-.67,1.43-1.47,1.41,0,0,0,0-.01,0Z"/>
      <path class="cls-3" d="M26.44,100.01c-.24,0-.43-.19-.43-.43v-4.87c0-.24,.19-.43,.43-.43s.43,.19,.43,.43v4.87c0,.24-.19,.43-.43,.43Z"/>
      <path class="cls-3" d="M26.32,103.77c-1.24,0-2.25-1.01-2.25-2.25s1.01-2.25,2.25-2.25,2.25,1.01,2.25,2.25-1.01,2.25-2.25,2.25Zm0-3.64c-.77,0-1.39,.62-1.39,1.39s.62,1.39,1.39,1.39,1.39-.62,1.39-1.39-.62-1.39-1.39-1.39Z"/>
      <circle class="cls-5" cx="40.15" cy="77.63" r="1.82"/>
      <circle class="cls-5" cx="40.15" cy="89.24" r="1.82"/>
      <circle class="cls-5" cx="40.15" cy="66.38" r="1.82"/>
      <path class="cls-3" d="M12.58,69.93s-.05,0-.07-.01c-.14-.04-.22-.18-.18-.32l1.87-6.49c.04-.14,.18-.22,.32-.18,.14,.04,.22,.18,.18,.32l-1.87,6.49c-.03,.11-.14,.19-.25,.19Z"/>
      <path class="cls-3" d="M15.36,69.93s-.05,0-.07-.01c-.14-.04-.22-.18-.18-.32l1.86-6.49c.04-.14,.18-.22,.32-.18,.14,.04,.22,.18,.18,.32l-1.86,6.49c-.03,.11-.14,.19-.25,.19Z"/>
      <path class="cls-3" d="M20.91,69.93s-.05,0-.07-.01c-.14-.04-.22-.18-.18-.32l1.86-6.49c.04-.14,.18-.22,.32-.18,.14,.04,.22,.18,.18,.32l-1.86,6.49c-.03,.11-.14,.19-.25,.19Z"/>
      <path class="cls-3" d="M23.69,69.93s-.05,0-.07-.01c-.14-.04-.22-.18-.18-.32l1.86-6.49c.04-.14,.18-.22,.32-.18,.14,.04,.22,.18,.18,.32l-1.86,6.49c-.03,.11-.14,.19-.25,.19Z"/>
      <path class="cls-3" d="M18.13,69.93s-.05,0-.07-.01c-.14-.04-.22-.18-.18-.32l1.87-6.49c.04-.14,.18-.22,.32-.18,.14,.04,.22,.18,.18,.32l-1.87,6.49c-.03,.11-.14,.19-.25,.19Z"/>
      <path class="cls-3" d="M12.58,81.11s-.05,0-.07-.01c-.14-.04-.22-.18-.18-.32l1.87-6.48c.04-.14,.18-.22,.32-.18,.14,.04,.22,.18,.18,.32l-1.87,6.48c-.03,.11-.14,.19-.25,.19Z"/>
      <path class="cls-3" d="M15.36,81.11s-.05,0-.07-.01c-.14-.04-.22-.18-.18-.32l1.86-6.48c.04-.14,.18-.22,.32-.18,.14,.04,.22,.18,.18,.32l-1.86,6.48c-.03,.11-.14,.19-.25,.19Z"/>
      <path class="cls-3" d="M20.91,81.11s-.05,0-.07-.01c-.14-.04-.22-.18-.18-.32l1.86-6.48c.04-.14,.18-.22,.32-.18,.14,.04,.22,.18,.18,.32l-1.86,6.48c-.03,.11-.14,.19-.25,.19Z"/>
      <path class="cls-3" d="M23.69,81.11s-.05,0-.07-.01c-.14-.04-.22-.18-.18-.32l1.86-6.48c.04-.14,.18-.22,.32-.18,.14,.04,.22,.18,.18,.32l-1.86,6.48c-.03,.11-.14,.19-.25,.19Z"/>
      <path class="cls-3" d="M18.13,81.11s-.05,0-.07-.01c-.14-.04-.22-.18-.18-.32l1.87-6.48c.04-.14,.18-.22,.32-.18,.14,.04,.22,.18,.18,.32l-1.87,6.48c-.03,.11-.14,.19-.25,.19Z"/>
      <path class="cls-3" d="M12.58,92.05s-.05,0-.07-.01c-.14-.04-.22-.18-.18-.32l1.87-6.48c.04-.14,.18-.22,.32-.18,.14,.04,.22,.18,.18,.32l-1.87,6.48c-.03,.11-.14,.19-.25,.19Z"/>
      <path class="cls-3" d="M15.36,92.05s-.05,0-.07-.01c-.14-.04-.22-.18-.18-.32l1.86-6.48c.04-.14,.18-.22,.32-.18,.14,.04,.22,.18,.18,.32l-1.86,6.48c-.03,.11-.14,.19-.25,.19Z"/>
      <path class="cls-3" d="M20.91,92.05s-.05,0-.07-.01c-.14-.04-.22-.18-.18-.32l1.86-6.48c.04-.14,.18-.22,.32-.18,.14,.04,.22,.18,.18,.32l-1.86,6.48c-.03,.11-.14,.19-.25,.19Z"/>
      <path class="cls-3" d="M23.69,92.05s-.05,0-.07-.01c-.14-.04-.22-.18-.18-.32l1.86-6.48c.04-.14,.18-.22,.32-.18,.14,.04,.22,.18,.18,.32l-1.86,6.48c-.03,.11-.14,.19-.25,.19Z"/>
      <path class="cls-3" d="M18.13,92.05s-.05,0-.07-.01c-.14-.04-.22-.18-.18-.32l1.87-6.48c.04-.14,.18-.22,.32-.18,.14,.04,.22,.18,.18,.32l-1.87,6.48c-.03,.11-.14,.19-.25,.19Z"/>
      <rect class="cls-5" x="11.93" y="61.07" width="22.7" height="1.13"/>
      <rect class="cls-5" x="11.93" y="72.18" width="22.7" height="1.13"/>
      <rect class="cls-5" x="8.93" y="83.36" width="22.7" height="1.13"/>
      <path class="cls-3" d="M8.73,65.87c-.24,0-.43-.19-.43-.43v-3.25c0-1.03,.85-1.82,1.87-1.85h7.9c.24,0,.43,.19,.43,.43s-.19,.43-.43,.43h-7.91c-.55,0-1,.44-1,.99v3.25c0,.24-.19,.43-.43,.43Z"/>
      <path class="cls-3" d="M44.29,72.37H10.17c-1.03,0-1.87-.84-1.87-1.87v-3.18c0-.24,.19-.43,.43-.43s.43,.19,.43,.43v3.18c0,.56,.45,1.01,1.01,1.01H44.29c.56,0,1.01-.45,1.01-1.01v-8.31c-.02-.58-.47-1.01-1.04-.99H20.81c-.24,0-.43-.19-.43-.43s.19-.43,.43-.43h23.44c.99-.04,1.87,.77,1.91,1.79v8.37c0,1.03-.84,1.87-1.87,1.87Z"/>
      <path class="cls-3" d="M10.16,83.71c-1.02,0-1.85-.83-1.86-1.85v-3.28c0-.24,.19-.43,.43-.43s.43,.19,.43,.43v3.26c0,.57,.48,1.01,1.01,1.01H44.29c.28,0,.53-.11,.72-.3s.29-.44,.29-.71v-8.3c-.02-.6-.49-1.02-1.03-1.01H10.17c-.28,0-.53,.11-.72,.3-.19,.19-.29,.44-.29,.71v2.64c0,.24-.19,.43-.43,.43s-.43-.19-.43-.43v-2.64c0-1.02,.82-1.86,1.85-1.87H44.25c1-.01,1.87,.77,1.91,1.79v8.38c0,1.02-.82,1.86-1.85,1.87H10.16Z"/>
      <path class="cls-3" d="M44.25,94.9H10.17c-1.03,0-1.87-.84-1.87-1.87v-8.31c0-1.03,.84-1.87,1.87-1.87H44.25c1.03,0,1.87,.84,1.87,1.87v8.31c0,1.03-.84,1.87-1.87,1.87Zm-34.08-11.19c-.56,0-1.01,.45-1.01,1.01v8.31c0,.56,.45,1.01,1.01,1.01H44.25c.56,0,1.01-.45,1.01-1.01v-8.31c0-.56-.45-1.01-1.01-1.01H10.17Z"/>
      <path class="cls-3" d="M37.99,77.94h-4.86c-.24,0-.43-.19-.43-.43s.19-.43,.43-.43h4.86c.24,0,.43,.19,.43,.43s-.19,.43-.43,.43Z"/>
      <path class="cls-3" d="M39.94,79.88c-1.24,0-2.25-1.01-2.25-2.25s1.01-2.25,2.25-2.25,2.25,1.01,2.25,2.25-1.01,2.25-2.25,2.25Zm0-3.64c-.77,0-1.39,.62-1.39,1.39s.62,1.39,1.39,1.39,1.39-.62,1.39-1.39-.62-1.39-1.39-1.39Z"/>
      <path class="cls-3" d="M37.99,89.55h-4.86c-.24,0-.43-.19-.43-.43s.19-.43,.43-.43h4.86c.24,0,.43,.19,.43,.43s-.19,.43-.43,.43Z"/>
      <path class="cls-3" d="M39.94,91.49c-1.24,0-2.25-1.01-2.25-2.25s1.01-2.25,2.25-2.25,2.25,1.01,2.25,2.25-1.01,2.25-2.25,2.25Zm0-3.64c-.77,0-1.39,.62-1.39,1.39s.62,1.39,1.39,1.39,1.39-.62,1.39-1.39-.62-1.39-1.39-1.39Z"/>
      <path class="cls-3" d="M37.99,66.69h-4.86c-.24,0-.43-.19-.43-.43s.19-.43,.43-.43h4.86c.24,0,.43,.19,.43,.43s-.19,.43-.43,.43Z"/>
      <path class="cls-3" d="M39.94,68.63c-1.24,0-2.25-1.01-2.25-2.25s1.01-2.25,2.25-2.25,2.25,1.01,2.25,2.25-1.01,2.25-2.25,2.25Zm0-3.64c-.77,0-1.39,.62-1.39,1.39s.62,1.39,1.39,1.39,1.39-.62,1.39-1.39-.62-1.39-1.39-1.39Z"/>
      <rect class="cls-1" x=".5" y="94.98" width="134.41" height="9.38"/>
      <rect class="cls-6" x=".5" y="94.98" width="134.41" height="2.25"/>
      <rect class="cls-10" x=".5" y="102.02" width="134.41" height="2.25"/>
      <path class="cls-3" d="M18.25,97.72H7.93c-.18,0-.32-.14-.32-.32s.14-.32,.32-.32h10.32c.18,0,.32,.14,.32,.32s-.14,.32-.32,.32Z"/>
      <path class="cls-4" d="M134.75,101.14c-12.91-.17-23-.97-31.91-1.68-8.56-.68-16.64-1.32-25.86-1.32-10.26,0-18.33,.7-26.88,1.45-4.91,.43-9.99,.87-15.8,1.21-11.27,.42-22.62-.26-33.75-2l.1-.65c11.09,1.74,22.4,2.41,33.62,2,5.79-.34,10.86-.78,15.77-1.21,8.57-.75,16.66-1.45,26.94-1.45,9.24,0,17.34,.64,25.91,1.32,8.9,.71,18.98,1.5,31.87,1.68v.66Z"/>
      <path class="cls-4" d="M76.67,101.83c-6.92-.08-13.9-.63-20.75-1.63-18.32-2.18-36.87-1.96-55.15,.64l-.09-.65c18.33-2.61,36.94-2.83,55.33-.64,6.83,1,13.77,1.55,20.66,1.63,9.16,0,17.2-.64,25.71-1.32,8.94-.71,19.07-1.52,32.05-1.68v.66c-12.95,.16-23.07,.97-32,1.68-8.52,.68-16.58,1.32-25.77,1.32Z"/>
      <path class="cls-3" d="M134.9,104.86H.5c-.28,0-.5-.22-.5-.5v-9.38c0-.28,.22-.5,.5-.5H2.69c.28,0,.5,.22,.5,.5s-.22,.5-.5,.5H1v8.38H134.4v-8.38H7.17c-.28,0-.5-.22-.5-.5s.22-.5,.5-.5h127.73c.28,0,.5,.22,.5,.5v9.38c0,.28-.22,.5-.5,.5Z"/>
      <circle class="cls-3" cx="20.44" cy="97.4" r=".68"/>
      <circle class="cls-3" cx="4.83" cy="95.01" r=".68"/>
    </g>
  </g>
</svg>