<?xml version="1.0" encoding="UTF-8"?>
<svg id="Layer_2" data-name="Layer 2" xmlns="http://www.w3.org/2000/svg" viewBox="0 0 221.43 102.96">
  <defs>
    <style>
      .cls-1 {
        fill: #000201;
      }

      .cls-2 {
        fill: #fff;
      }

      .cls-3 {
        fill: #ff4500;
      }

      .cls-4 {
        fill: #9cb5bc;
      }

      .cls-5 {
        fill: #b52200;
      }

      .cls-6 {
        fill: #caf0ff;
      }

      .cls-7 {
        fill: #108bf9;
      }

      .cls-8 {
        fill: #34e0f7;
      }

      .cls-9 {
        fill: #536b77;
      }

      .cls-10 {
        fill: #2a3e44;
      }

      .cls-11 {
        fill: #31444c;
      }

      .cls-12 {
        fill: #32f9c9;
      }

      .cls-13 {
        fill: #708993;
      }
    </style>
  </defs>
  <g id="Layer_1-2" data-name="Layer 1">
    <g id="Layer_2-5" data-name="Layer 2-5">
      <g id="Layer_1-2-3" data-name="Layer 1-2-3">
        <path class="cls-2" d="M87.61,29.76c.06,6.78-5.39,12.33-12.17,12.39-.02,0-.04,0-.06,0H37.76c-9.28,.23-16.98-7.11-17.2-16.39-.23-9.28,7.11-16.98,16.39-17.2,.27,0,.55,0,.82,0h0c2.07-.01,4.13,.37,6.06,1.13C48.07,1.48,58.17-1.74,66.38,2.51c5.62,2.91,9.13,8.74,9.05,15.06,6.72,.03,12.16,5.47,12.18,12.19Z"/>
        <polygon class="cls-6" points="88.79 24.93 51.77 27.08 51.77 20.05 83.43 20.53 88.79 24.93"/>
        <path class="cls-6" d="M87.61,29.76c.06,6.78-5.39,12.33-12.17,12.39-.02,0-.04,0-.06,0H37.76c-9.27,.06-16.84-7.42-16.9-16.69v-.16c0-1.92,.33-3.83,1-5.63,2.42,6.79,8.9,11.28,16.1,11.16h37.53c4.53-.08,8.66-2.65,10.73-6.68,.91,1.73,1.39,3.65,1.39,5.61Z"/>
        <path class="cls-1" d="M43.72,10s-.09,0-.13-.02c-1.9-.75-3.87-1.13-5.94-1.11h0c-.19,0-.35-.16-.35-.35,0-.19,.15-.35,.35-.35,2.04,0,4.01,.34,5.91,1.04C46.55,3.72,52.26,.31,58.53,.29h0c.19,0,.35,.16,.35,.35,0,.19-.16,.35-.35,.35-6.12,.01-11.67,3.39-14.5,8.81-.06,.12-.18,.19-.31,.19Z"/>
        <path class="cls-1" d="M25.1,14.74c-.16,0-.31-.06-.44-.17-.26-.24-.28-.65-.04-.91,.78-.85,1.64-1.63,2.55-2.33,.28-.22,.69-.16,.9,.12,.22,.28,.16,.69-.12,.9-.86,.65-1.66,1.38-2.39,2.17-.13,.14-.3,.21-.48,.21Z"/>
        <path class="cls-1" d="M37.71,42.75c-9.62,0-17.46-7.81-17.49-17.43-.01-3.32,.89-6.5,2.62-9.25,.19-.3,.59-.39,.89-.21,.3,.19,.39,.59,.21,.89-1.6,2.55-2.43,5.49-2.42,8.51,.03,8.97,7.3,16.21,16.2,16.21h37.56c6.42,0,11.65-5.22,11.65-11.65s-5.22-11.65-11.65-11.65c-.17,0-.34-.07-.46-.19-.12-.12-.19-.29-.19-.46,.02-3.35-.98-6.58-2.89-9.34-.2-.29-.13-.69,.16-.9,.29-.2,.69-.13,.9,.16,1.94,2.8,3.01,6.06,3.11,9.45,6.84,.33,12.3,6,12.3,12.92s-5.8,12.94-12.94,12.94H37.71Z"/>
        <path class="cls-1" d="M30.63,10.66c-.25,0-.48-.14-.59-.38-.15-.33,0-.71,.32-.85,2.3-1.04,4.78-1.55,7.27-1.56,1.95,0,3.91,.32,5.77,.98C46.47,3.39,52.21,.01,58.5,0c2.38,.03,4.65,.47,6.81,1.4,.33,.14,.48,.52,.34,.85-.14,.33-.52,.48-.85,.34-1.99-.86-4.09-1.3-6.26-1.3h-.03c-6.01,.01-11.46,3.33-14.24,8.65-.15,.29-.5,.42-.81,.3-1.87-.73-3.84-1.07-5.83-1.09h-.02c-2.34,0-4.6,.49-6.72,1.44-.09,.04-.18,.06-.26,.06Z"/>
        <path class="cls-1" d="M47.02,13.8c-.23,0-.44-.12-.56-.33-.79-1.4-1.94-2.57-3.32-3.38-.31-.18-.41-.57-.23-.88,.18-.31,.58-.41,.88-.23,1.59,.93,2.9,2.26,3.8,3.86,.17,.31,.06,.7-.25,.88-.1,.06-.21,.08-.32,.08Z"/>
        <circle class="cls-6" cx="52.3" cy="24.45" r="4.72"/>
        <circle class="cls-6" cx="57.03" cy="22.46" r="4.72"/>
        <circle class="cls-6" cx="63.73" cy="22.46" r="4.72"/>
        <circle class="cls-6" cx="69.58" cy="22.46" r="4.72"/>
        <circle class="cls-6" cx="75.32" cy="22.78" r="4.72"/>
        <path class="cls-1" d="M37.71,42.46c-9.45,0-17.17-7.68-17.2-17.14l.35-.06h.35c.03,9.13,7.43,16.5,16.5,16.5h37.61c6.58,0,11.94-5.36,11.94-11.94s-5.36-11.94-11.94-11.94c-.19,0-.35-.16-.35-.35s.16-.35,.35-.35c6.97,0,12.64,5.67,12.64,12.64s-5.67,12.64-12.64,12.64H37.71Z"/>
        <circle class="cls-6" cx="48.12" cy="30.3" r="4.72"/>
        <path class="cls-2" d="M134.84,30.03c-.03,6.66,5.34,12.09,12,12.13h37.24c9.14,.53,16.99-6.45,17.52-15.59s-6.45-16.99-15.59-17.52c-.63-.04-1.25-.04-1.88,0-2.05,0-4.08,.38-6,1.12-4.29-8.06-14.3-11.11-22.36-6.82-5.39,2.87-8.76,8.49-8.76,14.6-6.7-.02-12.14,5.38-12.17,12.08Z"/>
        <path class="cls-2" d="M134.84,30.03c-.03,6.66,5.34,12.09,12,12.13h37.24c9.14,.53,16.99-6.45,17.52-15.59s-6.45-16.99-15.59-17.52c-.63-.04-1.25-.04-1.88,0-2.05,0-4.08,.38-6,1.12-4.29-8.06-14.3-11.11-22.36-6.82-5.39,2.87-8.76,8.49-8.76,14.6-6.7-.02-12.14,5.38-12.17,12.08Z"/>
        <circle class="cls-1" cx="177.98" cy="102.15" r=".8"/>
        <circle class="cls-1" cx="33.79" cy="102.15" r=".8"/>
        <path class="cls-1" d="M46.72,102.72h-9.92c-.31,0-.56-.25-.56-.56s.25-.56,.56-.56h9.92c.31,0,.56,.25,.56,.56s-.25,.56-.56,.56Z"/>
        <path class="cls-1" d="M174.92,102.72h-9.93c-.31,0-.56-.25-.56-.56s.25-.56,.56-.56h9.93c.31,0,.56,.25,.56,.56s-.25,.56-.56,.56Z"/>
        <path class="cls-1" d="M220.86,90.27h-9.93c-.31,0-.56-.25-.56-.56s.25-.56,.56-.56h9.93c.31,0,.56,.25,.56,.56s-.25,.56-.56,.56Z"/>
        <path class="cls-1" d="M19.42,88.73s-.09,0-.14-.01c-.37-.07-.63-.4-.61-.78,.07-1.26,.32-2.5,.74-3.7,.12-.35,.5-.56,.86-.48,.37,.08,.62,.42,.59,.79-.1,1.24-.35,2.47-.73,3.66-.1,.31-.39,.52-.71,.52Z"/>
        <path class="cls-1" d="M19.42,88.73s-.09,0-.14-.01c-.37-.07-.63-.4-.61-.78,.07-1.26,.32-2.5,.74-3.7,.12-.35,.5-.56,.86-.48,.37,.08,.62,.42,.59,.79-.1,1.24-.35,2.47-.73,3.66-.1,.31-.39,.52-.71,.52Z"/>
        <path class="cls-1" d="M20.09,85.19c-.06,0-.11,0-.17-.02-.36-.08-.61-.42-.58-.79,.05-.58,.05-1.18,0-1.76-.01-.81-.1-1.57-.26-2.31-.05-.23,0-.46,.16-.64,.15-.18,.36-.29,.6-.27,.82,.02,1.62,.16,2.4,.4,.22,.07,.4,.24,.48,.45,.08,.22,.06,.46-.06,.65-.73,1.2-1.36,2.48-1.87,3.8-.11,.29-.4,.48-.7,.48Zm.64-4.2c.01,.08,.02,.15,.03,.23,.04-.07,.07-.14,.11-.2-.05,0-.09-.02-.14-.02Z"/>
        <path class="cls-1" d="M19.42,88.73s-.09,0-.14-.01c-.37-.07-.63-.4-.61-.78,.07-1.26,.32-2.5,.74-3.7,.12-.35,.5-.56,.86-.48,.37,.08,.62,.42,.59,.79-.1,1.24-.35,2.47-.73,3.66-.1,.31-.39,.52-.71,.52Z"/>
        <path class="cls-1" d="M70.23,6.11c-.16,0-.33-.06-.45-.19-.84-.84-1.78-1.59-2.79-2.22-.3-.19-.39-.59-.2-.89,.19-.3,.59-.39,.89-.2,1.09,.69,2.1,1.49,3.01,2.4,.25,.25,.25,.66,0,.91-.13,.13-.29,.19-.46,.19Z"/>
        <path class="cls-6" d="M134.84,30.03c-.03,6.66,5.34,12.09,12,12.13h37.24c9.16,0,16.58-7.43,16.58-16.59h0c-.02-1.83-.36-3.64-1-5.36-2.34,6.59-8.57,10.99-15.56,11h-37.09c-4.52-.02-8.65-2.54-10.73-6.55-.89,1.65-1.39,3.49-1.44,5.37Z"/>
        <path class="cls-1" d="M185.06,42.54c-.33,0-.66,0-1-.03h-37.22c-6.84-.04-12.38-5.64-12.35-12.48,.03-6.76,5.46-12.26,12.17-12.42,.12-6.12,3.52-11.68,8.94-14.56,3.98-2.12,8.55-2.56,12.86-1.25,4.21,1.29,7.69,4.1,9.83,7.94,1.88-.68,3.84-1.03,5.84-1.04,.62-.04,1.26-.04,1.9,0,9.32,.54,16.46,8.57,15.92,17.89-.52,8.99-8,15.95-16.89,15.95Zm-38.09-24.24c-6.47,0-11.75,5.25-11.78,11.73h0c-.03,6.46,5.19,11.74,11.65,11.78h37.24c8.96,.52,16.65-6.32,17.17-15.26,.52-8.94-6.33-16.63-15.26-17.15-.61-.04-1.23-.04-1.84,0-2.04,0-4.01,.37-5.9,1.1-.16,.06-.35,0-.43-.16-2.03-3.81-5.43-6.61-9.56-7.87-4.13-1.26-8.51-.84-12.33,1.2-5.29,2.82-8.58,8.29-8.57,14.29,0,.09-.04,.18-.1,.25s-.15,.1-.25,.1h-.04Zm-12.13,11.73h0Z"/>
        <path class="cls-1" d="M185.06,42.76c-.33,0-.67,0-1.01-.03h-37.21c-6.96-.04-12.6-5.74-12.56-12.7,.03-6.81,5.44-12.36,12.18-12.63,.19-6.12,3.62-11.65,9.05-14.54,4.03-2.15,8.66-2.59,13.02-1.26,4.21,1.28,7.69,4.07,9.86,7.88,1.85-.65,3.77-.98,5.74-.99,.61-.04,1.27-.04,1.92,0,9.44,.55,16.67,8.68,16.12,18.12-.53,9.1-8.11,16.15-17.11,16.15Zm-.98-1.16c8.85,.52,16.44-6.24,16.96-15.06,.51-8.82-6.24-16.41-15.06-16.92-.6-.04-1.21-.04-1.81,0-2.02,0-3.98,.37-5.83,1.08-.27,.1-.57,0-.7-.26-2-3.76-5.35-6.52-9.43-7.77-4.08-1.24-8.4-.83-12.16,1.18-5.22,2.78-8.46,8.18-8.46,14.1,0,.15-.06,.29-.17,.4-.11,.11-.25,.17-.4,.17-.02-.01-.03,0-.04,0-6.35,0-11.54,5.16-11.56,11.52h0c-.03,6.34,5.1,11.53,11.44,11.56h37.24Zm-49.24-11.57h0Z"/>
        <rect class="cls-10" x="142.56" y="37.65" width="65.31" height="15.4" rx=".91" ry=".91"/>
        <path class="cls-1" d="M207.92,42.46c-.31,0-.56-.25-.56-.56v-3.44c-.01-.15-.17-.29-.35-.3h-18.45c-.31,0-.56-.25-.56-.56s.25-.56,.56-.56h18.46c.78,0,1.42,.62,1.47,1.39v3.48c0,.31-.25,.56-.56,.56Z"/>
        <path class="cls-1" d="M143.48,53.63c-.81,0-1.48-.66-1.48-1.47v-13.65c0-.31,.25-.56,.56-.56s.56,.25,.56,.56v13.64c0,.19,.16,.35,.35,.35h63.48c.16-.02,.33-.18,.35-.39v-5.87c0-.31,.25-.56,.56-.56s.56,.25,.56,.56v5.92c-.07,.81-.67,1.41-1.43,1.47h-63.53Z"/>
        <rect class="cls-9" x="134.84" y="37.65" width="61.71" height="15.4" rx=".91" ry=".91"/>
        <path class="cls-1" d="M202.88,50.31c-.18,0-.32-.14-.32-.32v-9.23c0-.18,.14-.32,.32-.32s.32,.14,.32,.32v9.23c0,.18-.14,.32-.32,.32Z"/>
        <path class="cls-1" d="M205.03,50.31c-.18,0-.32-.14-.32-.32v-9.23c0-.18,.14-.32,.32-.32s.32,.14,.32,.32v9.23c0,.18-.14,.32-.32,.32Z"/>
        <rect class="cls-10" x="142.56" y="56.05" width="65.31" height="15.4" rx=".91" ry=".91"/>
        <path class="cls-1" d="M143.38,72.02c-.69,0-1.31-.56-1.37-1.3v-13.75c-.06-.74,.53-1.42,1.3-1.48,.02,0,.04,0,.06,0h63.65c.82,0,1.48,.68,1.48,1.49v6.81c0,.31-.25,.56-.56,.56s-.56-.25-.56-.56v-6.81c0-.19-.16-.35-.35-.36h-63.62s-.02,0-.02,0c-.12,.01-.24,.15-.23,.31v13.72c.01,.13,.16,.25,.31,.24h63.53c.19,0,.35-.16,.35-.35v-2.47c0-.31,.25-.56,.56-.56s.56,.25,.56,.56v2.47c0,.81-.66,1.48-1.48,1.48h-63.48s-.07,0-.11,0Z"/>
        <rect class="cls-9" x="134.84" y="56.05" width="61.71" height="15.4" rx=".91" ry=".91"/>
        <path class="cls-1" d="M202.88,68.66c-.18,0-.32-.14-.32-.32v-9.17c0-.18,.14-.32,.32-.32s.32,.14,.32,.32v9.17c0,.18-.14,.32-.32,.32Z"/>
        <path class="cls-1" d="M205.03,68.66c-.18,0-.32-.14-.32-.32v-9.17c0-.18,.14-.32,.32-.32s.32,.14,.32,.32v9.17c0,.18-.14,.32-.32,.32Z"/>
        <rect class="cls-10" x="142.56" y="74.46" width="65.31" height="15.4" rx=".91" ry=".91"/>
        <path class="cls-1" d="M207.88,82.38c-.31,0-.56-.25-.56-.56v-6.66c-.01-.17-.18-.34-.39-.36h-14.9c-.31,0-.56-.25-.56-.56s.25-.56,.56-.56h14.95c.82,.07,1.41,.67,1.47,1.44v6.7c0,.31-.25,.56-.56,.56Z"/>
        <path class="cls-1" d="M142.56,89.57c-.31,0-.56-.25-.56-.56v-13.63c0-.31,.25-.56,.56-.56s.56,.25,.56,.56v13.63c0,.31-.25,.56-.56,.56Z"/>
        <path class="cls-1" d="M181.47,90.43c-.31,0-.56-.25-.56-.56s.25-.56,.56-.56h25.49c.18,0,.33-.15,.35-.33v-2.75c0-.31,.25-.56,.56-.56s.56,.25,.56,.56v2.79c-.05,.81-.7,1.42-1.47,1.42h-25.49Z"/>
        <rect class="cls-9" x="134.84" y="74.46" width="61.71" height="15.4" rx=".91" ry=".91"/>
        <path class="cls-1" d="M202.88,87.12c-.18,0-.32-.14-.32-.32v-9.23c0-.18,.14-.32,.32-.32s.32,.14,.32,.32v9.23c0,.18-.14,.32-.32,.32Z"/>
        <path class="cls-1" d="M205.03,87.12c-.18,0-.32-.14-.32-.32v-9.23c0-.18,.14-.32,.32-.32s.32,.14,.32,.32v9.23c0,.18-.14,.32-.32,.32Z"/>
        <rect class="cls-1" x="138.75" y="53.05" width="65.95" height="3.01"/>
        <rect class="cls-1" x="138.75" y="71.45" width="65.95" height="3.01"/>
        <path class="cls-1" d="M202.88,66.06c-.13,0-.24-.11-.24-.24s.11-.24,.24-.24c5.78,0,10.49-4.71,10.49-10.49s-4.71-10.49-10.49-10.49c-.13,0-.24-.11-.24-.24s.11-.24,.24-.24c6.05,0,10.97,4.92,10.97,10.97s-4.92,10.97-10.97,10.97Z"/>
        <path class="cls-1" d="M205.01,83.02c-.13,0-.24-.1-.24-.23,0-.13,.1-.24,.23-.25,5.54-.17,10.01-4.64,10.18-10.17,.18-5.79-4.39-10.64-10.18-10.82-.13,0-.24-.11-.23-.25,0-.13,.1-.23,.25-.23,6.05,.18,10.82,5.26,10.64,11.31-.18,5.79-4.85,10.46-10.64,10.64,0,0,0,0,0,0Z"/>
        <circle class="cls-11" cx="188.55" cy="82.35" r="2.74"/>
        <circle class="cls-11" cx="188.55" cy="63.51" r="2.74"/>
        <circle class="cls-11" cx="188.55" cy="45.16" r="2.74"/>
        <path class="cls-1" d="M188.55,85.68c-1.69,0-3.06-1.37-3.06-3.06s1.37-3.06,3.06-3.06,3.06,1.37,3.06,3.06-1.37,3.06-3.06,3.06Zm0-5.48c-1.33,0-2.42,1.09-2.42,2.42s1.09,2.42,2.42,2.42,2.42-1.09,2.42-2.42-1.09-2.42-2.42-2.42Z"/>
        <path class="cls-1" d="M188.55,66.84c-1.69,0-3.06-1.37-3.06-3.06s1.37-3.06,3.06-3.06,3.06,1.37,3.06,3.06-1.37,3.06-3.06,3.06Zm0-5.48c-1.33,0-2.42,1.09-2.42,2.42s1.09,2.42,2.42,2.42,2.42-1.09,2.42-2.42-1.09-2.42-2.42-2.42Z"/>
        <path class="cls-1" d="M188.55,48.43c-1.69,0-3.06-1.37-3.06-3.06s1.37-3.06,3.06-3.06,3.06,1.37,3.06,3.06-1.37,3.06-3.06,3.06Zm0-5.48c-1.33,0-2.42,1.09-2.42,2.42s1.09,2.42,2.42,2.42,2.42-1.09,2.42-2.42-1.09-2.42-2.42-2.42Z"/>
        <path class="cls-1" d="M185.81,82.94h-6.44c-.18,0-.32-.14-.32-.32s.14-.32,.32-.32h6.44c.18,0,.32,.14,.32,.32s-.14,.32-.32,.32Z"/>
        <path class="cls-1" d="M185.81,64.1h-6.44c-.18,0-.32-.14-.32-.32s.14-.32,.32-.32h6.44c.18,0,.32,.14,.32,.32s-.14,.32-.32,.32Z"/>
        <path class="cls-1" d="M185.81,45.69h-6.44c-.18,0-.32-.14-.32-.32s.14-.32,.32-.32h6.44c.18,0,.32,.14,.32,.32s-.14,.32-.32,.32Z"/>
        <path class="cls-13" d="M177.17,37.59l-5.79,15.24h-35.69c-.47,0-.85-.38-.86-.85,0-.02,0-.04,0-.06v-13.63c.08-.41,.43-.7,.85-.7h41.49Z"/>
        <path class="cls-13" d="M170.25,55.84l-5.79,15.4h-28.77c-.47,0-.85-.38-.85-.85,0,0,0,0,0-.01v-13.63c-.03-.47,.33-.88,.8-.91h34.61Z"/>
        <path class="cls-13" d="M163.49,74.24l-5.9,15.41h-21.9c-.47,0-.85-.39-.86-.86,0-.02,0-.04,0-.06v-13.58c-.01-.49,.36-.89,.85-.92h27.81Z"/>
        <circle class="cls-1" cx="144.49" cy="37.65" r="1.07"/>
        <polygon class="cls-2" points="151.42 55.84 152.7 55.84 146.91 71.29 145.62 71.29 151.42 55.84"/>
        <polygon class="cls-2" points="144.5 74.3 145.78 74.3 140.04 89.65 138.75 89.65 144.5 74.3"/>
        <polygon class="cls-2" points="159.57 37.43 153.78 52.83 152.49 52.83 158.29 37.43 159.57 37.43"/>
        <polygon class="cls-4" points="154.32 55.84 156.84 55.84 151.04 71.29 148.52 71.29 154.32 55.84"/>
        <polygon class="cls-4" points="147.39 74.3 149.92 74.3 144.17 89.65 141.65 89.65 147.39 74.3"/>
        <polygon class="cls-4" points="163.71 37.43 157.91 52.83 155.44 52.83 161.24 37.43 163.71 37.43"/>
        <path class="cls-1" d="M135.75,53.63c-.81,0-1.48-.66-1.48-1.48v-13.64c-.03-.33,.09-.7,.33-.98,.24-.29,.59-.47,.96-.5h5.07c.31,0,.56,.25,.56,.56s-.25,.56-.56,.56h-5c-.08,0-.14,.07-.17,.1-.05,.06-.07,.13-.07,.21v13.69c0,.19,.16,.35,.35,.35h59.88c.17-.01,.34-.18,.36-.39v-6.51c0-.31,.25-.56,.56-.56s.56,.25,.56,.56v6.56c-.07,.82-.67,1.41-1.44,1.47h-59.92Z"/>
        <path class="cls-1" d="M135.65,72.02c-.3,0-.62-.12-.88-.33-.29-.24-.46-.58-.49-.96-.02-.05-.02-.14,0-.25v-13.51c-.06-.73,.52-1.42,1.29-1.48h60.12c.82,0,1.48,.67,1.48,1.48v4.77c0,.31-.25,.56-.56,.56s-.56-.25-.56-.56v-4.77c0-.19-.16-.35-.35-.36h-60.04c-.13,.01-.25,.15-.24,.31v13.62s0,.04,0,.06c0,0,0,.02,0,.03,0,.11,.06,.17,.1,.2s.1,.07,.2,.06h59.93c.2,0,.35-.16,.35-.35v-3.7c0-.31,.25-.56,.56-.56s.56,.25,.56,.56v3.7c0,.81-.66,1.48-1.47,1.48h-59.89s-.07,0-.1,0Z"/>
        <path class="cls-1" d="M135.66,90.39c-.31,0-.64-.12-.9-.35-.29-.25-.46-.59-.49-.97v-13.92c0-.39,.14-.76,.42-1.04,.28-.28,.64-.44,1.04-.44h59.96c.82,.07,1.41,.67,1.47,1.44v2.45c0,.31-.25,.56-.56,.56s-.56-.25-.56-.56v-2.41c-.01-.17-.18-.34-.39-.36h-59.89c-.1,0-.18,.04-.25,.11s-.1,.15-.1,.25v13.88c0,.08,.06,.14,.1,.17,.03,.03,.1,.07,.21,.07h59.92s0,0,0,0c.19,0,.34-.15,.35-.33v-6.77c0-.31,.25-.56,.56-.56s.56,.25,.56,.56v6.81c-.05,.82-.72,1.44-1.49,1.42h-59.88s-.06,0-.09,0Z"/>
        <path class="cls-1" d="M196.6,41.92c-.31,0-.56-.25-.56-.56v-2.9c-.01-.15-.17-.29-.35-.3h-47.48c-.31,0-.56-.25-.56-.56s.25-.56,.56-.56h47.49c.78,0,1.42,.62,1.47,1.39v2.94c0,.31-.25,.56-.56,.56Z"/>
        <path class="cls-1" d="M155.07,85.17c-.13,0-.24-.11-.24-.24v-5.47c0-.13,.11-.24,.24-.24s.24,.11,.24,.24v5.47c0,.13-.11,.24-.24,.24Z"/>
        <path class="cls-1" d="M152.22,85.17c-.13,0-.24-.11-.24-.24v-5.47c0-.13,.11-.24,.24-.24s.24,.11,.24,.24v5.47c0,.13-.11,.24-.24,.24Z"/>
        <path class="cls-1" d="M149.32,85.17c-.13,0-.24-.11-.24-.24v-5.47c0-.13,.11-.24,.24-.24s.24,.11,.24,.24v5.47c0,.13-.11,.24-.24,.24Z"/>
        <path class="cls-1" d="M146.48,85.17c-.13,0-.24-.11-.24-.24v-5.47c0-.13,.11-.24,.24-.24s.24,.11,.24,.24v5.47c0,.13-.11,.24-.24,.24Z"/>
        <path class="cls-1" d="M143.58,85.17c-.13,0-.24-.11-.24-.24v-5.47c0-.13,.11-.24,.24-.24s.24,.11,.24,.24v5.47c0,.13-.11,.24-.24,.24Z"/>
        <path class="cls-1" d="M140.74,85.17c-.13,0-.24-.11-.24-.24v-5.47c0-.13,.11-.24,.24-.24s.24,.11,.24,.24v5.47c0,.13-.11,.24-.24,.24Z"/>
        <path class="cls-1" d="M155.07,66.98c-.13,0-.24-.11-.24-.24v-5.47c0-.13,.11-.24,.24-.24s.24,.11,.24,.24v5.47c0,.13-.11,.24-.24,.24Z"/>
        <path class="cls-1" d="M152.22,66.98c-.13,0-.24-.11-.24-.24v-5.47c0-.13,.11-.24,.24-.24s.24,.11,.24,.24v5.47c0,.13-.11,.24-.24,.24Z"/>
        <path class="cls-1" d="M149.32,66.98c-.13,0-.24-.11-.24-.24v-5.47c0-.13,.11-.24,.24-.24s.24,.11,.24,.24v5.47c0,.13-.11,.24-.24,.24Z"/>
        <path class="cls-1" d="M146.48,66.98c-.13,0-.24-.11-.24-.24v-5.47c0-.13,.11-.24,.24-.24s.24,.11,.24,.24v5.47c0,.13-.11,.24-.24,.24Z"/>
        <path class="cls-1" d="M143.58,66.98c-.13,0-.24-.11-.24-.24v-5.47c0-.13,.11-.24,.24-.24s.24,.11,.24,.24v5.47c0,.13-.11,.24-.24,.24Z"/>
        <path class="cls-1" d="M140.74,66.98c-.13,0-.24-.11-.24-.24v-5.47c0-.13,.11-.24,.24-.24s.24,.11,.24,.24v5.47c0,.13-.11,.24-.24,.24Z"/>
        <path class="cls-1" d="M155.28,48.35c-.13,0-.24-.11-.24-.24v-5.47c0-.13,.11-.24,.24-.24s.24,.11,.24,.24v5.47c0,.13-.11,.24-.24,.24Z"/>
        <path class="cls-1" d="M152.38,48.35c-.13,0-.24-.11-.24-.24v-5.47c0-.13,.11-.24,.24-.24s.24,.11,.24,.24v5.47c0,.13-.11,.24-.24,.24Z"/>
        <path class="cls-1" d="M149.54,48.35c-.13,0-.24-.11-.24-.24v-5.47c0-.13,.11-.24,.24-.24s.24,.11,.24,.24v5.47c0,.13-.11,.24-.24,.24Z"/>
        <path class="cls-1" d="M146.69,48.35c-.13,0-.24-.11-.24-.24v-5.47c0-.13,.11-.24,.24-.24s.24,.11,.24,.24v5.47c0,.13-.11,.24-.24,.24Z"/>
        <path class="cls-1" d="M143.8,48.35c-.13,0-.24-.11-.24-.24v-5.47c0-.13,.11-.24,.24-.24s.24,.11,.24,.24v5.47c0,.13-.11,.24-.24,.24Z"/>
        <path class="cls-1" d="M140.95,48.35c-.13,0-.24-.11-.24-.24v-5.47c0-.13,.11-.24,.24-.24s.24,.11,.24,.24v5.47c0,.13-.11,.24-.24,.24Z"/>
        <rect class="cls-10" x="8.35" y="37.65" width="65.31" height="15.4" rx=".91" ry=".91"/>
        <path class="cls-1" d="M73.61,42.46c-.31,0-.56-.25-.56-.56v-3.44c0-.16-.13-.29-.3-.3h-18.4c-.31,0-.56-.25-.56-.56s.25-.56,.56-.56h18.41c.78,0,1.42,.65,1.42,1.42v3.45c0,.31-.25,.56-.56,.56Z"/>
        <path class="cls-1" d="M9.21,53.63c-.81-.05-1.42-.7-1.42-1.47v-13.64c0-.31,.25-.56,.56-.56s.56,.25,.56,.56v13.64c0,.18,.15,.33,.33,.35h63.5c.15-.01,.29-.17,.29-.35v-5.92c0-.31,.25-.56,.56-.56s.56,.25,.56,.56v5.92c0,.78-.62,1.42-1.39,1.47H9.21Z"/>
        <rect class="cls-9" x=".57" y="37.65" width="61.71" height="15.4" rx=".91" ry=".91"/>
        <path class="cls-1" d="M68.67,50.31c-.18,0-.32-.14-.32-.32v-9.23c0-.18,.14-.32,.32-.32s.32,.14,.32,.32v9.23c0,.18-.14,.32-.32,.32Z"/>
        <path class="cls-1" d="M70.82,50.31c-.18,0-.32-.14-.32-.32v-9.23c0-.18,.14-.32,.32-.32s.32,.14,.32,.32v9.23c0,.18-.14,.32-.32,.32Z"/>
        <rect class="cls-10" x="8.35" y="56.05" width="65.31" height="15.4" rx=".91" ry=".91"/>
        <path class="cls-1" d="M9.2,72.02c-.37,0-.72-.14-.98-.4-.27-.26-.42-.62-.43-1v-13.65c-.03-.34,.1-.7,.34-.99s.59-.46,.97-.48h63.65c.78,0,1.42,.64,1.42,1.42v6.88c0,.31-.25,.56-.56,.56s-.56-.25-.56-.56v-6.87c0-.16-.14-.29-.3-.29H9.17c-.09,0-.15,.06-.18,.1-.03,.03-.08,.1-.07,.21v13.67c0,.11,.06,.17,.09,.2s.05,.11,.2,.08h63.6c.08,0,.15-.06,.18-.1,.03-.03,.08-.1,.07-.21v-2.51c0-.31,.25-.56,.56-.56s.56,.25,.56,.56v2.47c.03,.34-.1,.7-.34,.99s-.59,.46-.97,.48H9.21s-.01,0-.02,0Z"/>
        <rect class="cls-9" x=".57" y="56.05" width="61.71" height="15.4" rx=".91" ry=".91"/>
        <path class="cls-1" d="M68.67,68.66c-.18,0-.32-.14-.32-.32v-9.17c0-.18,.14-.32,.32-.32s.32,.14,.32,.32v9.17c0,.18-.14,.32-.32,.32Z"/>
        <path class="cls-1" d="M70.82,68.66c-.18,0-.32-.14-.32-.32v-9.17c0-.18,.14-.32,.32-.32s.32,.14,.32,.32v9.17c0,.18-.14,.32-.32,.32Z"/>
        <rect class="cls-10" x="8.35" y="74.46" width="65.31" height="15.4" rx=".91" ry=".91"/>
        <path class="cls-1" d="M73.61,82.38c-.31,0-.56-.25-.56-.56v-6.66c0-.19-.15-.34-.33-.36h-14.88c-.31,0-.56-.25-.56-.56s.25-.56,.56-.56h14.92c.82,.05,1.43,.7,1.42,1.49v6.66c0,.31-.25,.56-.56,.56Z"/>
        <path class="cls-1" d="M8.35,89.57c-.31,0-.56-.25-.56-.56v-13.63c0-.31,.25-.56,.56-.56s.56,.25,.56,.56v13.63c0,.31-.25,.56-.56,.56Z"/>
        <path class="cls-1" d="M72.75,90.43h-25.49c-.31,0-.56-.25-.56-.56s.25-.56,.56-.56h25.49c.16,0,.29-.13,.29-.29v-2.79c0-.31,.25-.56,.56-.56s.56,.25,.56,.56v2.79c0,.79-.64,1.42-1.42,1.42Z"/>
        <rect class="cls-9" x=".57" y="74.46" width="61.71" height="15.4" rx=".91" ry=".91"/>
        <path class="cls-1" d="M68.67,87.12c-.18,0-.32-.14-.32-.32v-9.23c0-.18,.14-.32,.32-.32s.32,.14,.32,.32v9.23c0,.18-.14,.32-.32,.32Z"/>
        <path class="cls-1" d="M70.82,87.12c-.18,0-.32-.14-.32-.32v-9.23c0-.18,.14-.32,.32-.32s.32,.14,.32,.32v9.23c0,.18-.14,.32-.32,.32Z"/>
        <rect class="cls-1" x="4.54" y="53.05" width="65.95" height="3.01"/>
        <rect class="cls-1" x="4.54" y="71.45" width="65.95" height="3.01"/>
        <path class="cls-1" d="M68.67,66.06c-.13,0-.24-.11-.24-.24s.11-.24,.24-.24c5.78,0,10.49-4.71,10.49-10.49s-4.71-10.49-10.49-10.49c-.13,0-.24-.11-.24-.24s.11-.24,.24-.24c6.05,0,10.97,4.92,10.97,10.97s-4.92,10.97-10.97,10.97Z"/>
        <path class="cls-1" d="M70.82,83.02c-.13,0-.24-.1-.24-.23,0-.13,.1-.24,.23-.25,5.54-.17,10.01-4.64,10.17-10.17,.09-2.8-.93-5.47-2.85-7.52-1.92-2.04-4.52-3.21-7.33-3.3-.13,0-.24-.11-.23-.25,0-.13,.1-.23,.25-.23,2.93,.09,5.65,1.31,7.66,3.45,2.01,2.14,3.07,4.93,2.98,7.86-.18,5.79-4.85,10.46-10.64,10.64,0,0,0,0,0,0Z"/>
        <path class="cls-1" d="M54.34,85.68c-1.69,0-3.06-1.37-3.06-3.06s1.37-3.06,3.06-3.06,3.06,1.37,3.06,3.06-1.37,3.06-3.06,3.06Zm0-5.48c-1.33,0-2.42,1.09-2.42,2.42s1.09,2.42,2.42,2.42,2.42-1.09,2.42-2.42-1.09-2.42-2.42-2.42Z"/>
        <path class="cls-1" d="M54.34,66.84c-1.69,0-3.06-1.37-3.06-3.06s1.37-3.06,3.06-3.06,3.06,1.37,3.06,3.06-1.37,3.06-3.06,3.06Zm0-5.48c-1.33,0-2.42,1.09-2.42,2.42s1.09,2.42,2.42,2.42,2.42-1.09,2.42-2.42-1.09-2.42-2.42-2.42Z"/>
        <path class="cls-1" d="M51.61,82.94h-6.5c-.18,0-.32-.14-.32-.32s.14-.32,.32-.32h6.5c.18,0,.32,.14,.32,.32s-.14,.32-.32,.32Z"/>
        <path class="cls-1" d="M51.61,64.1h-6.5c-.18,0-.32-.14-.32-.32s.14-.32,.32-.32h6.5c.18,0,.32,.14,.32,.32s-.14,.32-.32,.32Z"/>
        <path class="cls-1" d="M51.61,45.69h-6.5c-.18,0-.32-.14-.32-.32s.14-.32,.32-.32h6.5c.18,0,.32,.14,.32,.32s-.14,.32-.32,.32Z"/>
        <path class="cls-13" d="M42.91,37.59l-5.79,15.24H1.49c-.5,0-.91-.4-.92-.9,0,0,0,0,0-.01H.57v-13.63c.1-.42,.49-.71,.92-.7H42.91Z"/>
        <path class="cls-13" d="M36.01,55.84l-5.79,15.4H1.49c-.49,0-.89-.38-.92-.86v-13.63c0-.5,.42-.91,.92-.91H36.01Z"/>
        <path class="cls-13" d="M29.34,74.24l-6,15.41H1.49c-.51,0-.92-.41-.92-.92H.57v-13.58c.04-.49,.43-.88,.92-.92H29.34Z"/>
        <circle class="cls-1" cx="10.23" cy="37.65" r="1.07"/>
        <polygon class="cls-2" points="17.15 55.84 18.44 55.84 12.65 71.29 11.36 71.29 17.15 55.84"/>
        <polygon class="cls-2" points="10.29 74.3 11.52 74.3 5.78 89.65 4.49 89.65 10.29 74.3"/>
        <polygon class="cls-2" points="25.37 37.43 19.57 52.83 18.28 52.83 24.08 37.43 25.37 37.43"/>
        <polygon class="cls-4" points="20.11 55.84 22.58 55.84 16.78 71.29 14.31 71.29 20.11 55.84"/>
        <polygon class="cls-4" points="13.18 74.3 15.71 74.3 9.91 89.65 7.44 89.65 13.18 74.3"/>
        <polygon class="cls-4" points="29.5 37.43 23.7 52.83 21.18 52.83 26.97 37.43 29.5 37.43"/>
        <path class="cls-1" d="M1.49,53.63c-.81-.06-1.42-.66-1.48-1.43v-13.69c0-.82,.66-1.48,1.48-1.48H6.42c.31,0,.56,.25,.56,.56s-.25,.56-.56,.56H1.49c-.2,0-.35,.16-.35,.35v13.64c.02,.16,.19,.33,.4,.35H61.44c.15-.01,.29-.16,.28-.34v-6.57c0-.31,.25-.56,.56-.56s.56,.25,.56,.56v6.56c.01,.78-.6,1.43-1.38,1.47H1.49Z"/>
        <path class="cls-1" d="M1.47,72.02c-.38,0-.75-.15-1.03-.42-.28-.28-.44-.64-.44-1.04v-13.59c0-.82,.67-1.49,1.48-1.49H61.48c.79,0,1.42,.64,1.42,1.43v4.83c0,.31-.25,.56-.56,.56s-.56-.25-.56-.56v-4.83c0-.16-.13-.3-.29-.3H1.48c-.2,0-.35,.16-.35,.36v13.57c0,.1,.04,.18,.1,.25,.07,.06,.15,.1,.24,.1H61.48s.12-.04,.17-.1c.03-.03,.08-.1,.07-.21v-3.74c0-.31,.25-.56,.56-.56s.56,.25,.56,.56v3.7c.06,.74-.53,1.42-1.31,1.47H1.48s-.01,0-.02,0Z"/>
        <path class="cls-1" d="M1.49,90.39c-.78,0-1.43-.61-1.48-1.39v-13.85c.06-.82,.67-1.42,1.44-1.48H61.49c.82,.04,1.44,.7,1.43,1.49v2.4c0,.31-.25,.56-.56,.56s-.56-.25-.56-.56v-2.41c0-.19-.14-.35-.33-.36H1.49c-.17,.02-.34,.18-.36,.4v13.77c.01,.15,.17,.29,.35,.29H61.44c.11,0,.17-.05,.2-.09,.03-.03,.08-.1,.08-.2v-6.82c0-.31,.25-.56,.56-.56s.56,.25,.56,.56v6.81c0,.37-.14,.73-.4,1s-.62,.42-1,.43H1.49Z"/>
        <path class="cls-1" d="M62.4,41.92c-.31,0-.56-.25-.56-.56v-2.9c0-.16-.13-.3-.3-.3H13.94c-.31,0-.56-.25-.56-.56s.25-.56,.56-.56H61.53c.79,0,1.43,.64,1.43,1.43v2.9c0,.31-.25,.56-.56,.56Z"/>
        <path class="cls-1" d="M20.86,85.17c-.13,0-.24-.11-.24-.24v-5.47c0-.13,.11-.24,.24-.24s.24,.11,.24,.24v5.47c0,.13-.11,.24-.24,.24Z"/>
        <path class="cls-1" d="M17.96,85.17c-.13,0-.24-.11-.24-.24v-5.47c0-.13,.11-.24,.24-.24s.24,.11,.24,.24v5.47c0,.13-.11,.24-.24,.24Z"/>
        <path class="cls-1" d="M15.12,85.17c-.13,0-.24-.11-.24-.24v-5.47c0-.13,.11-.24,.24-.24s.24,.11,.24,.24v5.47c0,.13-.11,.24-.24,.24Z"/>
        <path class="cls-1" d="M12.22,85.17c-.13,0-.24-.11-.24-.24v-5.47c0-.13,.11-.24,.24-.24s.24,.11,.24,.24v5.47c0,.13-.11,.24-.24,.24Z"/>
        <path class="cls-1" d="M9.38,85.17c-.13,0-.24-.11-.24-.24v-5.47c0-.13,.11-.24,.24-.24s.24,.11,.24,.24v5.47c0,.13-.11,.24-.24,.24Z"/>
        <path class="cls-1" d="M6.53,85.17c-.13,0-.24-.11-.24-.24v-5.47c0-.13,.11-.24,.24-.24s.24,.11,.24,.24v5.47c0,.13-.11,.24-.24,.24Z"/>
        <path class="cls-1" d="M20.86,66.98c-.13,0-.24-.11-.24-.24v-5.47c0-.13,.11-.24,.24-.24s.24,.11,.24,.24v5.47c0,.13-.11,.24-.24,.24Z"/>
        <path class="cls-1" d="M17.96,66.98c-.13,0-.24-.11-.24-.24v-5.47c0-.13,.11-.24,.24-.24s.24,.11,.24,.24v5.47c0,.13-.11,.24-.24,.24Z"/>
        <path class="cls-1" d="M15.12,66.98c-.13,0-.24-.11-.24-.24v-5.47c0-.13,.11-.24,.24-.24s.24,.11,.24,.24v5.47c0,.13-.11,.24-.24,.24Z"/>
        <path class="cls-1" d="M12.22,66.98c-.13,0-.24-.11-.24-.24v-5.47c0-.13,.11-.24,.24-.24s.24,.11,.24,.24v5.47c0,.13-.11,.24-.24,.24Z"/>
        <path class="cls-1" d="M9.38,66.98c-.13,0-.24-.11-.24-.24v-5.47c0-.13,.11-.24,.24-.24s.24,.11,.24,.24v5.47c0,.13-.11,.24-.24,.24Z"/>
        <path class="cls-1" d="M6.53,66.98c-.13,0-.24-.11-.24-.24v-5.47c0-.13,.11-.24,.24-.24s.24,.11,.24,.24v5.47c0,.13-.11,.24-.24,.24Z"/>
        <path class="cls-1" d="M21.02,48.35c-.13,0-.24-.11-.24-.24v-5.47c0-.13,.11-.24,.24-.24s.24,.11,.24,.24v5.47c0,.13-.11,.24-.24,.24Z"/>
        <path class="cls-1" d="M18.17,48.35c-.13,0-.24-.11-.24-.24v-5.47c0-.13,.11-.24,.24-.24s.24,.11,.24,.24v5.47c0,.13-.11,.24-.24,.24Z"/>
        <path class="cls-1" d="M15.33,48.35c-.13,0-.24-.11-.24-.24v-5.47c0-.13,.11-.24,.24-.24s.24,.11,.24,.24v5.47c0,.13-.11,.24-.24,.24Z"/>
        <path class="cls-1" d="M12.44,48.35c-.13,0-.24-.11-.24-.24v-5.47c0-.13,.11-.24,.24-.24s.24,.11,.24,.24v5.47c0,.13-.11,.24-.24,.24Z"/>
        <path class="cls-1" d="M9.59,48.35c-.13,0-.24-.11-.24-.24v-5.47c0-.13,.11-.24,.24-.24s.24,.11,.24,.24v5.47c0,.13-.11,.24-.24,.24Z"/>
        <path class="cls-1" d="M6.69,48.35c-.13,0-.24-.11-.24-.24v-5.47c0-.13,.11-.24,.24-.24s.24,.11,.24,.24v5.47c0,.13-.11,.24-.24,.24Z"/>
        <rect class="cls-10" x="61.91" y="22.78" width="99.17" height="23.4" rx="1.34" ry="1.34"/>
        <path class="cls-1" d="M161.01,30.27c-.41,0-.75-.34-.75-.75v-5.37c0-.18-.06-.33-.17-.44s-.26-.17-.42-.18h-27.89c-.41,0-.75-.34-.75-.75s.34-.75,.75-.75h27.9c.56,0,1.09,.23,1.48,.62,.39,.4,.61,.92,.6,1.48v5.39c0,.41-.34,.75-.75,.75Z"/>
        <path class="cls-1" d="M159.67,47.08H63.09c-1.21,0-2.2-.99-2.2-2.2V24.15c0-.48,.38-.86,.86-.86s.86,.38,.86,.86v20.73c0,.26,.22,.48,.48,.48h96.58c.26,0,.48-.22,.48-.48v-9c0-.48,.38-.86,.86-.86s.86,.38,.86,.86v9c0,1.21-.99,2.2-2.2,2.2Z"/>
        <rect class="cls-9" x="50.16" y="22.78" width="93.69" height="23.4" rx="1.34" ry="1.34"/>
        <path class="cls-1" d="M153.51,42c-.27,0-.48-.22-.48-.48v-13.95c0-.27,.22-.48,.48-.48s.48,.22,.48,.48v13.95c0,.27-.22,.48-.48,.48Z"/>
        <path class="cls-1" d="M156.78,42c-.27,0-.48-.22-.48-.48v-13.95c0-.27,.22-.48,.48-.48s.48,.22,.48,.48v13.95c0,.27-.22,.48-.48,.48Z"/>
        <rect class="cls-10" x="61.91" y="50.74" width="99.17" height="23.4" rx="1.34" ry="1.34"/>
        <path class="cls-1" d="M159.67,74.9H63.09c-1.15,0-2.09-.94-2.09-2.09v-20.72c0-1.15,.94-2.09,2.09-2.09h96.59c1.15,0,2.09,.94,2.09,2.09v10.36c0,.41-.34,.75-.75,.75s-.75-.34-.75-.75v-10.36c0-.33-.26-.59-.59-.59H63.09c-.33,0-.59,.26-.59,.59v20.72c0,.33,.26,.59,.59,.59h96.58c.33,0,.59-.26,.59-.59v-3.81c0-.41,.34-.75,.75-.75s.75,.34,.75,.75v3.81c0,1.15-.94,2.09-2.09,2.09Z"/>
        <rect class="cls-9" x="50.16" y="50.74" width="93.69" height="23.4" rx="1.34" ry="1.34"/>
        <path class="cls-1" d="M153.51,69.96c-.27,0-.48-.22-.48-.48v-14.01c0-.27,.22-.48,.48-.48s.48,.22,.48,.48v14.01c0,.27-.22,.48-.48,.48Z"/>
        <path class="cls-1" d="M156.78,69.96c-.27,0-.48-.22-.48-.48v-14.01c0-.27,.22-.48,.48-.48s.48,.22,.48,.48v14.01c0,.27-.22,.48-.48,.48Z"/>
        <rect class="cls-10" x="61.91" y="78.7" width="99.17" height="23.4" rx="1.34" ry="1.34"/>
        <path class="cls-1" d="M161.01,90.56c-.41,0-.75-.34-.75-.75v-9.72c0-.35-.27-.63-.62-.64h-22.63c-.41,0-.75-.34-.75-.75s.34-.75,.75-.75h22.66c1.18,.04,2.09,.98,2.09,2.14v9.72c0,.41-.34,.75-.75,.75Z"/>
        <path class="cls-1" d="M61.92,101.61c-.48,0-.86-.38-.86-.86v-20.66c0-.48,.38-.86,.86-.86s.86,.38,.86,.86v20.66c0,.48-.38,.86-.86,.86Z"/>
        <path class="cls-1" d="M121.01,102.96c-.41,0-.75-.34-.75-.75s.34-.75,.75-.75h38.66c.32-.01,.59-.29,.59-.64v-4.19c0-.41,.34-.75,.75-.75s.75,.34,.75,.75v4.19c0,1.16-.91,2.1-2.06,2.14h-38.69Z"/>
        <rect class="cls-9" x="50.16" y="78.7" width="93.69" height="23.4" rx="1.34" ry="1.34"/>
        <path class="cls-1" d="M153.51,97.92c-.27,0-.48-.22-.48-.48v-14.01c0-.27,.22-.48,.48-.48s.48,.22,.48,.48v14.01c0,.27-.22,.48-.48,.48Z"/>
        <path class="cls-1" d="M156.78,97.92c-.27,0-.48-.22-.48-.48v-14.01c0-.27,.22-.48,.48-.48s.48,.22,.48,.48v14.01c0,.27-.22,.48-.48,.48Z"/>
        <rect class="cls-1" x="56.17" y="46.18" width="100.13" height="4.56"/>
        <rect class="cls-1" x="56.17" y="74.14" width="100.13" height="4.56"/>
        <path class="cls-1" d="M154.46,66.28c-.32,0-.64-.01-.96-.03-.21-.01-.36-.19-.35-.4,.01-.21,.19-.37,.4-.35,.61,.04,1.22,.04,1.83,0,8.86-.51,15.66-8.13,15.15-16.99-.51-8.86-8.14-15.67-16.99-15.15-.2,0-.38-.15-.4-.35-.01-.21,.15-.38,.35-.4,9.27-.54,17.25,6.58,17.78,15.86,.53,9.27-6.58,17.25-15.86,17.78-.32,.02-.64,.03-.96,.03Z"/>
        <path class="cls-1" d="M157.19,92.08c-.14,0-.28,0-.42,0-.21,0-.37-.18-.37-.38,0-.21,.19-.35,.38-.37,.26,0,.53,0,.79,0,4.3-.11,8.3-1.88,11.27-5s4.54-7.2,4.44-11.5c-.22-8.88-7.63-15.92-16.5-15.7-.22,0-.38-.16-.38-.37,0-.21,.16-.38,.37-.38,9.28-.23,17.04,7.14,17.27,16.44,.11,4.5-1.54,8.78-4.64,12.04-3.1,3.26-7.29,5.12-11.79,5.23-.14,0-.28,0-.42,0Z"/>
        <circle class="cls-11" cx="131.78" cy="90.72" r="4.19"/>
        <circle class="cls-11" cx="131.78" cy="62.12" r="4.19"/>
        <circle class="cls-11" cx="131.78" cy="34.16" r="4.19"/>
        <path class="cls-1" d="M131.78,95.77c-2.58,0-4.67-2.1-4.67-4.67s2.1-4.67,4.67-4.67,4.67,2.1,4.67,4.67-2.1,4.67-4.67,4.67Zm0-8.38c-2.04,0-3.71,1.66-3.71,3.71s1.66,3.71,3.71,3.71,3.71-1.66,3.71-3.71-1.66-3.71-3.71-3.71Z"/>
        <path class="cls-1" d="M131.78,67.12c-2.58,0-4.67-2.1-4.67-4.67s2.1-4.67,4.67-4.67,4.67,2.1,4.67,4.67-2.1,4.67-4.67,4.67Zm0-8.38c-2.04,0-3.71,1.66-3.71,3.71s1.66,3.71,3.71,3.71,3.71-1.66,3.71-3.71-1.66-3.71-3.71-3.71Z"/>
        <path class="cls-1" d="M131.78,39.22c-2.58,0-4.67-2.1-4.67-4.67s2.1-4.67,4.67-4.67,4.67,2.1,4.67,4.67-2.1,4.67-4.67,4.67Zm0-8.38c-2.04,0-3.71,1.66-3.71,3.71s1.66,3.71,3.71,3.71,3.71-1.66,3.71-3.71-1.66-3.71-3.71-3.71Z"/>
        <path class="cls-1" d="M127.59,91.58h-9.82c-.27,0-.48-.22-.48-.48s.22-.48,.48-.48h9.82c.27,0,.48,.22,.48,.48s-.22,.48-.48,.48Z"/>
        <path class="cls-1" d="M127.59,62.93h-9.82c-.27,0-.48-.22-.48-.48s.22-.48,.48-.48h9.82c.27,0,.48,.22,.48,.48s-.22,.48-.48,.48Z"/>
        <path class="cls-1" d="M127.59,35.03h-9.82c-.27,0-.48-.22-.48-.48s.22-.48,.48-.48h9.82c.27,0,.48,.22,.48,.48s-.22,.48-.48,.48Z"/>
        <path class="cls-13" d="M114.44,22.46l-8.8,23.4H51.5c-.74,0-1.34-.6-1.34-1.34V23.8c0-.74,.6-1.34,1.34-1.34h62.94Z"/>
        <path class="cls-13" d="M103.93,50.42l-8.8,23.4H51.5c-.74,0-1.34-.61-1.34-1.35v-20.71c0-.74,.6-1.34,1.34-1.34h52.43Z"/>
        <path class="cls-13" d="M93.73,78.38l-9,23.61H51.5c-.74,0-1.34-.6-1.34-1.34v-20.88c0-.75,.59-1.36,1.34-1.39h42.23Z"/>
        <circle class="cls-1" cx="66.74" cy="22.78" r=".97"/>
        <circle class="cls-1" cx="173.26" cy="16.24" r=".64"/>
        <polygon class="cls-2" points="75.32 50.42 77.26 50.42 68.46 73.87 66.52 73.87 75.32 50.42"/>
        <polygon class="cls-2" points="64.81 78.43 66.79 78.43 58.04 101.77 56.06 101.77 64.81 78.43"/>
        <polygon class="cls-2" points="87.77 22.46 78.97 45.86 76.99 45.86 85.79 22.46 87.77 22.46"/>
        <polygon class="cls-4" points="79.73 50.42 83.54 50.42 74.73 73.87 70.92 73.87 79.73 50.42"/>
        <polygon class="cls-4" points="69.26 78.43 73.07 78.43 64.32 101.77 60.51 101.77 69.26 78.43"/>
        <polygon class="cls-4" points="94.05 22.46 85.25 45.86 81.44 45.86 90.24 22.46 94.05 22.46"/>
        <path class="cls-1" d="M174.55,14.36c-.1,0-.2-.02-.3-.07-.32-.16-.44-.55-.28-.87,.86-1.67,2.2-3.03,3.86-3.91,.31-.17,.7-.05,.87,.27,.17,.31,.05,.71-.27,.87-1.43,.76-2.58,1.93-3.32,3.37-.11,.22-.34,.35-.57,.35Z"/>
        <ellipse class="cls-12" cx="58.1" cy="40.87" rx="1.82" ry="1.88"/>
        <path class="cls-1" d="M58.1,43.07c-1.18,0-2.14-.99-2.14-2.2s.96-2.2,2.14-2.2,2.14,.99,2.14,2.2-.96,2.2-2.14,2.2Zm0-3.76c-.83,0-1.5,.7-1.5,1.56s.67,1.56,1.5,1.56,1.5-.7,1.5-1.56-.67-1.56-1.5-1.56Z"/>
        <ellipse class="cls-12" cx="58.1" cy="34.64" rx="1.82" ry="1.88"/>
        <path class="cls-1" d="M58.1,36.84c-1.18,0-2.14-.99-2.14-2.2s.96-2.2,2.14-2.2,2.14,.99,2.14,2.2-.96,2.2-2.14,2.2Zm0-3.76c-.83,0-1.5,.7-1.5,1.56s.67,1.56,1.5,1.56,1.5-.7,1.5-1.56-.67-1.56-1.5-1.56Z"/>
        <ellipse class="cls-12" cx="58.1" cy="28.47" rx="1.82" ry="1.88"/>
        <path class="cls-1" d="M58.1,30.67c-1.18,0-2.14-.99-2.14-2.2s.96-2.2,2.14-2.2,2.14,.99,2.14,2.2-.96,2.2-2.14,2.2Zm0-3.76c-.83,0-1.5,.7-1.5,1.56s.67,1.56,1.5,1.56,1.5-.7,1.5-1.56-.67-1.56-1.5-1.56Z"/>
        <ellipse class="cls-12" cx="63.84" cy="40.87" rx="1.82" ry="1.88"/>
        <path class="cls-1" d="M63.84,43.07c-1.18,0-2.14-.99-2.14-2.2s.96-2.2,2.14-2.2,2.14,.99,2.14,2.2-.96,2.2-2.14,2.2Zm0-3.76c-.83,0-1.5,.7-1.5,1.56s.67,1.56,1.5,1.56,1.5-.7,1.5-1.56-.67-1.56-1.5-1.56Z"/>
        <ellipse class="cls-12" cx="63.84" cy="34.64" rx="1.82" ry="1.88"/>
        <path class="cls-1" d="M63.84,36.84c-1.18,0-2.14-.99-2.14-2.2s.96-2.2,2.14-2.2,2.14,.99,2.14,2.2-.96,2.2-2.14,2.2Zm0-3.76c-.83,0-1.5,.7-1.5,1.56s.67,1.56,1.5,1.56,1.5-.7,1.5-1.56-.67-1.56-1.5-1.56Z"/>
        <ellipse class="cls-12" cx="63.84" cy="28.47" rx="1.82" ry="1.88"/>
        <path class="cls-1" d="M63.84,30.67c-1.18,0-2.14-.99-2.14-2.2s.96-2.2,2.14-2.2,2.14,.99,2.14,2.2-.96,2.2-2.14,2.2Zm0-3.76c-.83,0-1.5,.7-1.5,1.56s.67,1.56,1.5,1.56,1.5-.7,1.5-1.56-.67-1.56-1.5-1.56Z"/>
        <ellipse class="cls-8" cx="69.58" cy="40.87" rx="1.82" ry="1.88"/>
        <path class="cls-1" d="M69.58,43.07c-1.18,0-2.14-.99-2.14-2.2s.96-2.2,2.14-2.2,2.14,.99,2.14,2.2-.96,2.2-2.14,2.2Zm0-3.76c-.83,0-1.5,.7-1.5,1.56s.67,1.56,1.5,1.56,1.5-.7,1.5-1.56-.67-1.56-1.5-1.56Z"/>
        <ellipse class="cls-8" cx="69.58" cy="34.64" rx="1.82" ry="1.88"/>
        <path class="cls-1" d="M69.58,36.84c-1.18,0-2.14-.99-2.14-2.2s.96-2.2,2.14-2.2,2.14,.99,2.14,2.2-.96,2.2-2.14,2.2Zm0-3.76c-.83,0-1.5,.7-1.5,1.56s.67,1.56,1.5,1.56,1.5-.7,1.5-1.56-.67-1.56-1.5-1.56Z"/>
        <ellipse class="cls-7" cx="69.58" cy="28.47" rx="1.82" ry="1.88"/>
        <path class="cls-1" d="M69.58,30.67c-1.18,0-2.14-.99-2.14-2.2s.96-2.2,2.14-2.2,2.14,.99,2.14,2.2-.96,2.2-2.14,2.2Zm0-3.76c-.83,0-1.5,.7-1.5,1.56s.67,1.56,1.5,1.56,1.5-.7,1.5-1.56-.67-1.56-1.5-1.56Z"/>
        <ellipse class="cls-12" cx="75.32" cy="40.87" rx="1.82" ry="1.88"/>
        <path class="cls-1" d="M75.32,43.07c-1.18,0-2.14-.99-2.14-2.2s.96-2.2,2.14-2.2,2.14,.99,2.14,2.2-.96,2.2-2.14,2.2Zm0-3.76c-.83,0-1.5,.7-1.5,1.56s.67,1.56,1.5,1.56,1.5-.7,1.5-1.56-.67-1.56-1.5-1.56Z"/>
        <ellipse class="cls-12" cx="75.32" cy="34.64" rx="1.82" ry="1.88"/>
        <path class="cls-1" d="M75.32,36.84c-1.18,0-2.14-.99-2.14-2.2s.96-2.2,2.14-2.2,2.14,.99,2.14,2.2-.96,2.2-2.14,2.2Zm0-3.76c-.83,0-1.5,.7-1.5,1.56s.67,1.56,1.5,1.56,1.5-.7,1.5-1.56-.67-1.56-1.5-1.56Z"/>
        <ellipse class="cls-12" cx="75.32" cy="28.47" rx="1.82" ry="1.88"/>
        <path class="cls-1" d="M75.32,30.67c-1.18,0-2.14-.99-2.14-2.2s.96-2.2,2.14-2.2,2.14,.99,2.14,2.2-.96,2.2-2.14,2.2Zm0-3.76c-.83,0-1.5,.7-1.5,1.56s.67,1.56,1.5,1.56,1.5-.7,1.5-1.56-.67-1.56-1.5-1.56Z"/>
        <ellipse class="cls-12" cx="58.1" cy="68.34" rx="1.82" ry="1.88"/>
        <path class="cls-1" d="M58.1,70.54c-1.18,0-2.14-.99-2.14-2.2s.96-2.2,2.14-2.2,2.14,.99,2.14,2.2-.96,2.2-2.14,2.2Zm0-3.76c-.83,0-1.5,.7-1.5,1.56s.67,1.56,1.5,1.56,1.5-.7,1.5-1.56-.67-1.56-1.5-1.56Z"/>
        <ellipse class="cls-12" cx="58.1" cy="62.12" rx="1.82" ry="1.88"/>
        <path class="cls-1" d="M58.1,64.32c-1.18,0-2.14-.99-2.14-2.2s.96-2.2,2.14-2.2,2.14,.99,2.14,2.2-.96,2.2-2.14,2.2Zm0-3.76c-.83,0-1.5,.7-1.5,1.56s.67,1.56,1.5,1.56,1.5-.7,1.5-1.56-.67-1.56-1.5-1.56Z"/>
        <ellipse class="cls-12" cx="58.1" cy="55.89" rx="1.82" ry="1.88"/>
        <path class="cls-1" d="M58.1,58.09c-1.18,0-2.14-.99-2.14-2.2s.96-2.2,2.14-2.2,2.14,.99,2.14,2.2-.96,2.2-2.14,2.2Zm0-3.76c-.83,0-1.5,.7-1.5,1.56s.67,1.56,1.5,1.56,1.5-.7,1.5-1.56-.67-1.56-1.5-1.56Z"/>
        <ellipse class="cls-12" cx="63.84" cy="68.34" rx="1.82" ry="1.88"/>
        <path class="cls-1" d="M63.84,70.54c-1.18,0-2.14-.99-2.14-2.2s.96-2.2,2.14-2.2,2.14,.99,2.14,2.2-.96,2.2-2.14,2.2Zm0-3.76c-.83,0-1.5,.7-1.5,1.56s.67,1.56,1.5,1.56,1.5-.7,1.5-1.56-.67-1.56-1.5-1.56Z"/>
        <ellipse class="cls-12" cx="63.84" cy="62.12" rx="1.82" ry="1.88"/>
        <path class="cls-1" d="M63.84,64.32c-1.18,0-2.14-.99-2.14-2.2s.96-2.2,2.14-2.2,2.14,.99,2.14,2.2-.96,2.2-2.14,2.2Zm0-3.76c-.83,0-1.5,.7-1.5,1.56s.67,1.56,1.5,1.56,1.5-.7,1.5-1.56-.67-1.56-1.5-1.56Z"/>
        <ellipse class="cls-12" cx="63.84" cy="55.89" rx="1.82" ry="1.88"/>
        <path class="cls-1" d="M63.84,58.09c-1.18,0-2.14-.99-2.14-2.2s.96-2.2,2.14-2.2,2.14,.99,2.14,2.2-.96,2.2-2.14,2.2Zm0-3.76c-.83,0-1.5,.7-1.5,1.56s.67,1.56,1.5,1.56,1.5-.7,1.5-1.56-.67-1.56-1.5-1.56Z"/>
        <ellipse class="cls-8" cx="69.58" cy="68.34" rx="1.82" ry="1.88"/>
        <path class="cls-1" d="M69.58,70.54c-1.18,0-2.14-.99-2.14-2.2s.96-2.2,2.14-2.2,2.14,.99,2.14,2.2-.96,2.2-2.14,2.2Zm0-3.76c-.83,0-1.5,.7-1.5,1.56s.67,1.56,1.5,1.56,1.5-.7,1.5-1.56-.67-1.56-1.5-1.56Z"/>
        <ellipse class="cls-8" cx="69.58" cy="62.12" rx="1.82" ry="1.88"/>
        <path class="cls-1" d="M69.58,64.32c-1.18,0-2.14-.99-2.14-2.2s.96-2.2,2.14-2.2,2.14,.99,2.14,2.2-.96,2.2-2.14,2.2Zm0-3.76c-.83,0-1.5,.7-1.5,1.56s.67,1.56,1.5,1.56,1.5-.7,1.5-1.56-.67-1.56-1.5-1.56Z"/>
        <path class="cls-1" d="M69.58,58.09c-1.18,0-2.14-.99-2.14-2.2s.96-2.2,2.14-2.2,2.14,.99,2.14,2.2-.96,2.2-2.14,2.2Zm0-3.76c-.83,0-1.5,.7-1.5,1.56s.67,1.56,1.5,1.56,1.5-.7,1.5-1.56-.67-1.56-1.5-1.56Z"/>
        <ellipse class="cls-8" cx="69.58" cy="55.89" rx="1.82" ry="1.88"/>
        <path class="cls-1" d="M69.58,58.09c-1.18,0-2.14-.99-2.14-2.2s.96-2.2,2.14-2.2,2.14,.99,2.14,2.2-.96,2.2-2.14,2.2Zm0-3.76c-.83,0-1.5,.7-1.5,1.56s.67,1.56,1.5,1.56,1.5-.7,1.5-1.56-.67-1.56-1.5-1.56Z"/>
        <ellipse class="cls-12" cx="75.32" cy="68.34" rx="1.82" ry="1.88"/>
        <path class="cls-1" d="M75.32,70.54c-1.18,0-2.14-.99-2.14-2.2s.96-2.2,2.14-2.2,2.14,.99,2.14,2.2-.96,2.2-2.14,2.2Zm0-3.76c-.83,0-1.5,.7-1.5,1.56s.67,1.56,1.5,1.56,1.5-.7,1.5-1.56-.67-1.56-1.5-1.56Z"/>
        <ellipse class="cls-12" cx="75.32" cy="62.12" rx="1.82" ry="1.88"/>
        <path class="cls-1" d="M75.32,64.32c-1.18,0-2.14-.99-2.14-2.2s.96-2.2,2.14-2.2,2.14,.99,2.14,2.2-.96,2.2-2.14,2.2Zm0-3.76c-.83,0-1.5,.7-1.5,1.56s.67,1.56,1.5,1.56,1.5-.7,1.5-1.56-.67-1.56-1.5-1.56Z"/>
        <ellipse class="cls-12" cx="75.32" cy="55.89" rx="1.82" ry="1.88"/>
        <path class="cls-1" d="M75.32,58.09c-1.18,0-2.14-.99-2.14-2.2s.96-2.2,2.14-2.2,2.14,.99,2.14,2.2-.96,2.2-2.14,2.2Zm0-3.76c-.83,0-1.5,.7-1.5,1.56s.67,1.56,1.5,1.56,1.5-.7,1.5-1.56-.67-1.56-1.5-1.56Z"/>
        <ellipse class="cls-12" cx="58.1" cy="96.62" rx="1.82" ry="1.88"/>
        <path class="cls-1" d="M58.1,98.82c-1.18,0-2.14-.99-2.14-2.2s.96-2.2,2.14-2.2,2.14,.99,2.14,2.2-.96,2.2-2.14,2.2Zm0-3.76c-.83,0-1.5,.7-1.5,1.56s.67,1.56,1.5,1.56,1.5-.7,1.5-1.56-.67-1.56-1.5-1.56Z"/>
        <ellipse class="cls-12" cx="58.1" cy="90.45" rx="1.82" ry="1.88"/>
        <path class="cls-1" d="M58.1,92.65c-1.18,0-2.14-.99-2.14-2.2s.96-2.2,2.14-2.2,2.14,.99,2.14,2.2-.96,2.2-2.14,2.2Zm0-3.76c-.83,0-1.5,.7-1.5,1.56s.67,1.56,1.5,1.56,1.5-.7,1.5-1.56-.67-1.56-1.5-1.56Z"/>
        <ellipse class="cls-12" cx="58.1" cy="84.23" rx="1.82" ry="1.88"/>
        <path class="cls-1" d="M58.1,86.43c-1.18,0-2.14-.99-2.14-2.2s.96-2.2,2.14-2.2,2.14,.99,2.14,2.2-.96,2.2-2.14,2.2Zm0-3.76c-.83,0-1.5,.7-1.5,1.56s.67,1.56,1.5,1.56,1.5-.7,1.5-1.56-.67-1.56-1.5-1.56Z"/>
        <ellipse class="cls-12" cx="63.84" cy="96.62" rx="1.82" ry="1.88"/>
        <path class="cls-1" d="M63.84,98.82c-1.18,0-2.14-.99-2.14-2.2s.96-2.2,2.14-2.2,2.14,.99,2.14,2.2-.96,2.2-2.14,2.2Zm0-3.76c-.83,0-1.5,.7-1.5,1.56s.67,1.56,1.5,1.56,1.5-.7,1.5-1.56-.67-1.56-1.5-1.56Z"/>
        <ellipse class="cls-12" cx="63.84" cy="90.45" rx="1.82" ry="1.88"/>
        <path class="cls-1" d="M63.84,92.65c-1.18,0-2.14-.99-2.14-2.2s.96-2.2,2.14-2.2,2.14,.99,2.14,2.2-.96,2.2-2.14,2.2Zm0-3.76c-.83,0-1.5,.7-1.5,1.56s.67,1.56,1.5,1.56,1.5-.7,1.5-1.56-.67-1.56-1.5-1.56Z"/>
        <ellipse class="cls-12" cx="63.84" cy="84.23" rx="1.82" ry="1.88"/>
        <path class="cls-1" d="M63.84,86.43c-1.18,0-2.14-.99-2.14-2.2s.96-2.2,2.14-2.2,2.14,.99,2.14,2.2-.96,2.2-2.14,2.2Zm0-3.76c-.83,0-1.5,.7-1.5,1.56s.67,1.56,1.5,1.56,1.5-.7,1.5-1.56-.67-1.56-1.5-1.56Z"/>
        <ellipse class="cls-8" cx="69.58" cy="96.62" rx="1.82" ry="1.88"/>
        <path class="cls-1" d="M69.58,98.82c-1.18,0-2.14-.99-2.14-2.2s.96-2.2,2.14-2.2,2.14,.99,2.14,2.2-.96,2.2-2.14,2.2Zm0-3.76c-.83,0-1.5,.7-1.5,1.56s.67,1.56,1.5,1.56,1.5-.7,1.5-1.56-.67-1.56-1.5-1.56Z"/>
        <ellipse class="cls-8" cx="69.58" cy="90.45" rx="1.82" ry="1.88"/>
        <path class="cls-1" d="M69.58,92.65c-1.18,0-2.14-.99-2.14-2.2s.96-2.2,2.14-2.2,2.14,.99,2.14,2.2-.96,2.2-2.14,2.2Zm0-3.76c-.83,0-1.5,.7-1.5,1.56s.67,1.56,1.5,1.56,1.5-.7,1.5-1.56-.67-1.56-1.5-1.56Z"/>
        <ellipse class="cls-8" cx="69.58" cy="84.23" rx="1.82" ry="1.88"/>
        <path class="cls-1" d="M69.58,86.43c-1.18,0-2.14-.99-2.14-2.2s.96-2.2,2.14-2.2,2.14,.99,2.14,2.2-.96,2.2-2.14,2.2Zm0-3.76c-.83,0-1.5,.7-1.5,1.56s.67,1.56,1.5,1.56,1.5-.7,1.5-1.56-.67-1.56-1.5-1.56Z"/>
        <ellipse class="cls-12" cx="75.32" cy="96.62" rx="1.82" ry="1.88"/>
        <path class="cls-1" d="M75.32,98.82c-1.18,0-2.14-.99-2.14-2.2s.96-2.2,2.14-2.2,2.14,.99,2.14,2.2-.96,2.2-2.14,2.2Zm0-3.76c-.83,0-1.5,.7-1.5,1.56s.67,1.56,1.5,1.56,1.5-.7,1.5-1.56-.67-1.56-1.5-1.56Z"/>
        <ellipse class="cls-12" cx="75.32" cy="90.45" rx="1.82" ry="1.88"/>
        <path class="cls-1" d="M75.32,92.65c-1.18,0-2.14-.99-2.14-2.2s.96-2.2,2.14-2.2,2.14,.99,2.14,2.2-.96,2.2-2.14,2.2Zm0-3.76c-.83,0-1.5,.7-1.5,1.56s.67,1.56,1.5,1.56,1.5-.7,1.5-1.56-.67-1.56-1.5-1.56Z"/>
        <ellipse class="cls-12" cx="75.32" cy="84.23" rx="1.82" ry="1.88"/>
        <path class="cls-1" d="M75.32,86.43c-1.18,0-2.14-.99-2.14-2.2s.96-2.2,2.14-2.2,2.14,.99,2.14,2.2-.96,2.2-2.14,2.2Zm0-3.76c-.83,0-1.5,.7-1.5,1.56s.67,1.56,1.5,1.56,1.5-.7,1.5-1.56-.67-1.56-1.5-1.56Z"/>
        <path class="cls-10" d="M125.5,42.37h17.87c.38-.04,.72,.22,.8,.59v1c0,.94-.77,1.7-1.71,1.71h-17c-.95,0-1.71-.76-1.72-1.71h0c0-.95,.77-1.72,1.72-1.72h0l.04,.13Z"/>
        <path class="cls-10" d="M142.08,38.35h0c.74,0,1.34,.6,1.34,1.34v2.84c0,.74-.6,1.34-1.34,1.34h0c-.74,0-1.34-.6-1.34-1.34v-2.84c0-.74,.6-1.34,1.34-1.34Z"/>
        <path class="cls-10" d="M125.5,70.54h16.95c.95,0,1.72,.77,1.72,1.71h0c0,.95-.77,1.71-1.72,1.71h-16.95c-.95,0-1.72-.77-1.72-1.71h0c0-.95,.77-1.71,1.72-1.71Z"/>
        <path class="cls-10" d="M142.08,66.52h0c.74,0,1.34,.6,1.34,1.34v2.84c0,.74-.6,1.34-1.34,1.34h0c-.74,0-1.34-.6-1.34-1.34v-2.84c0-.74,.6-1.34,1.34-1.34Z"/>
        <path class="cls-10" d="M125.5,99.2h17.87c.41,0,.75,.34,.75,.75v1c0,.95-.77,1.72-1.72,1.72h-16.9c-.95,0-1.72-.77-1.72-1.72h0c-.02-.95,.74-1.73,1.69-1.75,.01,0,.02,0,.03,0Z"/>
        <path class="cls-10" d="M142.08,95.15h0c.74,0,1.34,.6,1.34,1.34v2.85c0,.74-.6,1.34-1.34,1.34h0c-.74,0-1.34-.6-1.34-1.34v-2.85c0-.74,.6-1.34,1.34-1.34Z"/>
        <path class="cls-10" d="M115.2,99.2h17.86c.41,0,.75,.33,.76,.74,0,0,0,0,0,.01v1c0,.95-.77,1.72-1.72,1.72h-16.9c-.95,0-1.72-.77-1.72-1.72h0c-.02-.95,.74-1.73,1.69-1.75,.01,0,.02,0,.03,0Z"/>
        <path class="cls-1" d="M142.52,46.9H51.28c-1.15,0-2.09-.94-2.09-2.09V24.15c0-1.15,.94-2.09,2.09-2.09h11.73c.41,0,.75,.34,.75,.75s-.34,.75-.75,.75h-11.73c-.33,0-.59,.26-.59,.59v20.66c0,.33,.26,.59,.59,.59h91.23c.32,0,.58-.25,.59-.57v-9.97c0-.41,.34-.75,.75-.75s.75,.34,.75,.75v10c-.04,1.16-.96,2.04-2.09,2.04Z"/>
        <circle class="cls-10" cx="136.82" cy="99.04" r=".7"/>
        <circle class="cls-10" cx="139.02" cy="97.91" r=".32"/>
        <circle class="cls-10" cx="138.38" cy="98.88" r=".32"/>
        <circle class="cls-10" cx="134.14" cy="97.48" r=".27"/>
        <circle class="cls-10" cx="134.78" cy="98.93" r=".38"/>
        <circle class="cls-10" cx="132.96" cy="98.55" r=".16"/>
        <circle class="cls-10" cx="132.26" cy="96.73" r=".43"/>
        <circle class="cls-10" cx="131.99" cy="99.2" r=".27"/>
        <circle class="cls-10" cx="139.77" cy="96.51" r=".43"/>
        <circle class="cls-10" cx="136.82" cy="70.54" r=".7"/>
        <circle class="cls-10" cx="139.02" cy="69.42" r=".32"/>
        <circle class="cls-10" cx="138.38" cy="70.43" r=".32"/>
        <circle class="cls-10" cx="134.14" cy="68.99" r=".27"/>
        <circle class="cls-10" cx="134.78" cy="70.49" r=".38"/>
        <circle class="cls-10" cx="132.96" cy="70.06" r=".16"/>
        <circle class="cls-10" cx="132.26" cy="68.23" r=".43"/>
        <circle class="cls-10" cx="131.99" cy="70.76" r=".27"/>
        <circle class="cls-10" cx="139.77" cy="68.02" r=".43"/>
        <circle class="cls-13" cx="106.29" cy="83.96" r=".7"/>
        <circle class="cls-13" cx="104.09" cy="85.08" r=".32"/>
        <circle class="cls-13" cx="104.73" cy="84.07" r=".32"/>
        <circle class="cls-13" cx="108.97" cy="85.51" r=".27"/>
        <circle class="cls-13" cx="108.33" cy="84.01" r=".38"/>
        <circle class="cls-13" cx="110.15" cy="84.44" r=".16"/>
        <circle class="cls-13" cx="110.85" cy="86.21" r=".43"/>
        <circle class="cls-13" cx="111.12" cy="83.74" r=".27"/>
        <circle class="cls-13" cx="103.34" cy="86.43" r=".43"/>
        <path class="cls-13" d="M101.62,78.59h17.39c1.1,0,2,.9,2,2h0c0,1.1-.9,2-2,2h-17.39c-1.1,0-2-.9-2-2h0c0-1.1,.9-2,2-2Z"/>
        <circle class="cls-13" cx="106.29" cy="56.38" r=".7"/>
        <circle class="cls-13" cx="104.09" cy="57.5" r=".32"/>
        <circle class="cls-13" cx="104.73" cy="56.54" r=".32"/>
        <circle class="cls-13" cx="108.97" cy="57.93" r=".27"/>
        <circle class="cls-13" cx="108.33" cy="56.48" r=".38"/>
        <circle class="cls-13" cx="110.15" cy="56.86" r=".16"/>
        <circle class="cls-13" cx="110.85" cy="58.68" r=".43"/>
        <circle class="cls-13" cx="111.12" cy="56.21" r=".27"/>
        <circle class="cls-13" cx="103.34" cy="58.9" r=".43"/>
        <path class="cls-13" d="M101.62,51.06h17.39c1.1,0,2,.9,2,2h0c0,1.1-.9,2-2,2h-17.39c-1.1,0-2-.9-2-2h0c0-1.1,.9-2,2-2Z"/>
        <circle class="cls-13" cx="116.27" cy="27.77" r=".7"/>
        <circle class="cls-13" cx="114.07" cy="28.9" r=".32"/>
        <circle class="cls-13" cx="114.77" cy="27.93" r=".32"/>
        <circle class="cls-13" cx="119.01" cy="29.33" r=".27"/>
        <circle class="cls-13" cx="118.31" cy="27.88" r=".38"/>
        <circle class="cls-13" cx="120.19" cy="28.26" r=".16"/>
        <circle class="cls-13" cx="120.88" cy="30.08" r=".43"/>
        <circle class="cls-13" cx="121.15" cy="27.61" r=".27"/>
        <circle class="cls-13" cx="113.32" cy="30.3" r=".43"/>
        <path class="cls-13" d="M111.66,22.46h17.38c1.1,0,1.99,.89,1.99,1.99h0c0,1.1-.89,1.99-1.99,1.99h-17.38c-1.1,0-1.99-.89-1.99-1.99h0c0-1.1,.89-1.99,1.99-1.99Z"/>
        <path class="cls-1" d="M51.28,102.9c-1.19-.05-2.09-.99-2.09-2.15v-20.66c0-1.16,.91-2.1,2.06-2.14h91.26c1.18,.04,2.09,.98,2.09,2.14v3.71c0,.41-.34,.75-.75,.75s-.75-.34-.75-.75v-3.71c0-.35-.27-.63-.62-.64H51.28c-.32,.01-.59,.29-.59,.64v20.66c0,.35,.27,.64,.62,.65h91.2c.32-.01,.59-.3,.59-.65v-10.3c0-.41,.34-.75,.75-.75s.75,.34,.75,.75v10.3c0,1.16-.9,2.1-2.06,2.15H51.28Z"/>
        <path class="cls-1" d="M143.85,29.17c-.41,0-.75-.34-.75-.75v-4.3c0-.33-.26-.59-.59-.59H70.44c-.41,0-.75-.34-.75-.75s.34-.75,.75-.75h72.07c1.15,0,2.09,.94,2.09,2.09v4.3c0,.41-.34,.75-.75,.75Z"/>
        <path class="cls-2" d="M52.3,30.68c-.21,0-.38-.17-.38-.38v-2.85c0-.21,.17-.38,.38-.38s.38,.17,.38,.38v2.85c0,.21-.17,.38-.38,.38Z"/>
        <circle class="cls-2" cx="52.3" cy="25.36" r=".54"/>
        <path class="cls-1" d="M142.52,74.9H51.28c-1.15,0-2.09-.94-2.09-2.09v-20.73c0-1.15,.94-2.09,2.09-2.09h91.23c1.15,0,2.09,.94,2.09,2.09v7.3c0,.41-.34,.75-.75,.75s-.75-.34-.75-.75v-7.3c0-.33-.26-.59-.59-.59H51.28c-.33,0-.59,.26-.59,.59v20.73c0,.33,.26,.59,.59,.59h91.23c.32,0,.58-.26,.59-.58v-5.67c0-.41,.34-.75,.75-.75s.75,.34,.75,.75v5.69c-.03,1.14-.96,2.06-2.09,2.06Z"/>
        <polygon class="cls-3" points="107.57 47.31 109.99 40.22 116 44.09 108.81 25.41 100.44 28.63 107.57 47.31"/>
        <polygon class="cls-5" points="103.12 35.66 107.79 35.23 111.76 33.03 108.81 25.41 100.44 28.63 103.12 35.66"/>
        <path class="cls-1" d="M107.57,47.69c-.16,0-.29-.1-.35-.24l-7.13-18.68c-.07-.19,.02-.41,.22-.48l8.37-3.22c.19-.07,.41,.02,.48,.22l7.19,18.68c.06,.15,.01,.32-.11,.43-.13,.1-.3,.11-.44,.02l-5.61-3.61-2.27,6.64c-.05,.15-.19,.25-.35,.25h0Zm-6.65-18.84l6.63,17.36,2.08-6.11c.04-.11,.12-.2,.23-.23,.11-.04,.23-.02,.33,.04l5.04,3.25-6.64-17.26-7.67,2.95Z"/>
        <polygon class="cls-3" points="96.63 47.31 94.27 40.87 88.2 44.09 95.34 25.41 103.76 28.63 96.63 47.31"/>
        <polygon class="cls-5" points="101.24 35.23 96.41 35.02 92.71 32.34 95.34 25.41 103.76 28.63 101.24 35.23"/>
        <path class="cls-1" d="M96.63,47.69h0c-.16,0-.3-.1-.35-.25l-2.21-6.04-5.69,3.02c-.14,.07-.31,.05-.42-.05-.12-.1-.16-.27-.1-.42l1.34-3.49c.07-.19,.29-.29,.48-.22,.19,.07,.29,.29,.22,.48l-.98,2.55,5.19-2.75c.1-.05,.21-.06,.31-.02,.1,.04,.18,.12,.22,.22l2.02,5.5,6.64-17.39-7.72-2.95-2.93,7.65c-.07,.19-.29,.29-.48,.22-.19-.07-.29-.29-.22-.48l3.06-8c.07-.19,.29-.29,.48-.22l8.42,3.22c.19,.07,.29,.29,.22,.48l-7.13,18.68c-.06,.15-.2,.24-.35,.24Z"/>
        <path class="cls-1" d="M90.46,38.62s-.09,0-.13-.02c-.19-.07-.29-.29-.22-.48l.96-2.58c.07-.19,.29-.29,.48-.22,.19,.07,.29,.29,.22,.48l-.96,2.58c-.06,.15-.2,.24-.35,.24Z"/>
        <path class="cls-5" d="M104.46,33.03h0c-6.48,.08-11.82-5.05-12-11.53h0c-.15-6.54,5.01-11.96,11.55-12.13h.43c6.51,.12,11.71,5.48,11.6,12v.12h0c-.13,6.33-5.25,11.43-11.58,11.54Z"/>
        <path class="cls-1" d="M104.32,33.41c-6.58,0-12.05-5.31-12.23-11.9-.16-6.73,5.19-12.34,11.92-12.52h.44c6.72,.12,12.08,5.67,11.98,12.38v.11c-.14,6.57-5.39,11.8-11.95,11.92-.01,0-.1,0-.15,0Zm.15-.38h0Zm-.03-23.28h-.42c-6.3,.16-11.32,5.43-11.17,11.75,.17,6.23,5.42,11.25,11.62,11.16,6.16-.11,11.08-5.02,11.21-11.17v-.11c.1-6.3-4.94-11.51-11.23-11.62Z"/>
        <path id="Fill-3" class="cls-2" d="M107.01,23.64c-.67,.14-1.32-.28-1.47-.95-.14-.67,.28-1.32,.95-1.46h0c.17-.04,.35-.04,.52,0,.67-.14,1.32,.28,1.46,.95,.14,.67-.28,1.32-.95,1.46-.17,.04-.34,.04-.51,0m0,2c-.7,.65-1.58,1.06-2.53,1.18-1.04,.05-2.06-.28-2.89-.91-.11-.12-.11-.31,0-.43m.42,0c1.51,.93,3.43,.93,4.94,0,.13-.12,.33-.12,.46,0h0c.11,.12,.11,.31,0,.43m-6.86-3.27c0-.68,.55-1.23,1.23-1.23,.68,0,1.23,.55,1.23,1.23s-.55,1.23-1.23,1.23h0c-.65,.03-1.2-.46-1.23-1.11,0,0,0,0,0-.01-.01-.04-.01-.07,0-.11m11.59-1.18c.03-.94-.7-1.74-1.65-1.77,0,0-.01,0-.02,0h0c-.44,0-.86,.18-1.18,.49-1.38-1.04-3.05-1.64-4.78-1.72l.75-3.7,2.58,.59c.15,.76,.89,1.25,1.65,1.1,.49-.1,.89-.45,1.05-.93,.13-.67-.31-1.32-.98-1.46,0,0-.01,0-.02,0-.17-.04-.35-.04-.52,0-.45,0-.86,.24-1.07,.64l-2.94-.55h0l-.86,4.08h0c-1.66,.02-3.28,.52-4.66,1.45-.33-.29-.74-.46-1.18-.48-.92-.18-1.82,.43-2,1.35-.07,.33-.04,.68,.08,1,0,.67,.4,1.27,1,1.55-.03,.18-.03,.36,0,.54,0,2.63,3.06,4.77,6.87,4.77s6.92-2.14,6.92-4.77c.03-.18,.03-.36,0-.54,.57-.3,.93-.9,.92-1.55"/>
        <path class="cls-3" d="M101.24,33.03h0c-6.4-.02-11.63-5.13-11.8-11.53h0c0-6.53,5.27-11.83,11.8-11.86h0c6.51,.02,11.77,5.29,11.77,11.8v.06h0c-.15,6.4-5.37,11.51-11.77,11.53Z"/>
        <path class="cls-1" d="M101.21,33.66c-6.69-.03-12.15-5.49-12.19-12.17-.01-1.53,.27-3.02,.83-4.44,.08-.19,.3-.29,.49-.21,.19,.08,.29,.29,.21,.49-.52,1.33-.78,2.73-.77,4.16,.03,6.27,5.16,11.4,11.43,11.43,6.31,0,11.43-5.12,11.43-11.42v-.33c-.01-6.27-5.12-11.39-11.4-11.4-3.66,0-7.12,1.79-9.24,4.77-.12,.17-.35,.21-.52,.09-.17-.12-.21-.35-.09-.52,2.26-3.18,5.95-5.08,9.86-5.09,6.69,.02,12.13,5.47,12.15,12.15v.33c0,6.71-5.46,12.17-12.17,12.17Z"/>
        <path class="cls-2" d="M92.39,16.19c-.07,0-.13-.02-.19-.05-.18-.11-.23-.34-.13-.51,.66-1.1,1.53-2.03,2.57-2.77,.17-.12,.4-.08,.52,.09,.12,.17,.08,.4-.09,.52-.96,.68-1.76,1.54-2.37,2.55-.07,.12-.19,.18-.32,.18Z"/>
        <circle class="cls-2" cx="95.98" cy="12.48" r=".48"/>
        <circle class="cls-2" cx="93.57" cy="34.59" r=".48"/>
        <path class="cls-2" d="M92.44,37.92s-.09,0-.13-.02c-.19-.07-.29-.29-.22-.48l.65-1.72c.07-.19,.29-.29,.48-.22,.19,.07,.29,.29,.22,.48l-.65,1.72c-.06,.15-.2,.24-.35,.24Z"/>
      </g>
    </g>
  </g>
</svg>