<?xml version="1.0" encoding="UTF-8"?>
<svg id="Layer_2" data-name="Layer 2" xmlns="http://www.w3.org/2000/svg" viewBox="0 0 126.7 104.25">
  <defs>
    <style>
      .cls-1 {
        fill: #f3e6ff;
      }

      .cls-2 {
        fill: #f9a846;
      }

      .cls-3 {
        fill: #000201;
      }

      .cls-4 {
        fill: #fff;
      }

      .cls-5 {
        fill: #ffebd4;
      }

      .cls-6 {
        fill: #fffaf5;
      }

      .cls-7 {
        fill: #ffd297;
      }

      .cls-8 {
        fill: #7e2ecc;
      }

      .cls-9 {
        fill: #b263e5;
      }

      .cls-10 {
        fill: #d3aefc;
      }

      .cls-11 {
        fill: #e0c0ff;
      }

      .cls-12 {
        font-family: OperatorMono-Bold, 'Operator Mono';
        font-size: 16.2px;
        font-weight: 700;
        isolation: isolate;
      }

      .cls-13 {
        opacity: .4;
      }
    </style>
  </defs>
  <g id="Layer_1-2" data-name="Layer 1">
    <g id="Layer_2-4" data-name="Layer 2-4">
      <g id="Layer_1-2-2" data-name="Layer 1-2-2">
        <path class="cls-7" d="M99.64,87.54v8.86c0,3.93-3.17,7.11-7.1,7.14H41.43c-3.93-.03-7.09-3.21-7.1-7.14v-8.86H99.64Z"/>
        <rect class="cls-2" x="34.78" y="87.49" width="65.31" height="2.82"/>
        <rect class="cls-1" x="34.33" y="41.5" width="65.31" height="46.04"/>
        <path class="cls-10" d="M99.39,45.28v3c-19.19,12.89-42.82,17.4-65.41,12.47v-15.47H99.39Z"/>
        <path class="cls-3" d="M41.43,104.25c-4.3-.03-7.8-3.55-7.81-7.84v-8.86c0-.39,.32-.71,.71-.71s.71,.32,.71,.71v8.86c0,3.52,2.88,6.41,6.4,6.44h51.1c3.52-.02,6.39-2.91,6.4-6.44v-8.86c0-.39,.32-.71,.71-.71s.71,.32,.71,.71v8.86c0,4.3-3.5,7.82-7.8,7.85H41.43Z"/>
        <path class="cls-3" d="M99.64,88.25H46.96c-.39,0-.71-.32-.71-.71s.32-.71,.71-.71h51.98V42.21H35.03v23.4c0,.39-.32,.71-.71,.71s-.71-.32-.71-.71v-24.11c0-.39,.32-.71,.71-.71H99.64c.39,0,.71,.32,.71,.71v46.04c0,.39-.32,.71-.71,.71Z"/>
        <path class="cls-3" d="M34.33,76.33c-.39,0-.71-.32-.71-.71v-5.84c0-.39,.32-.71,.71-.71s.71,.32,.71,.71v5.84c0,.39-.32,.71-.71,.71Z"/>
        <path class="cls-3" d="M43.24,88.25h-8.91c-.39,0-.71-.32-.71-.71v-6.14c0-.39,.32-.71,.71-.71s.71,.32,.71,.71v5.44h8.21c.39,0,.71,.32,.71,.71s-.32,.71-.71,.71Z"/>
        <path d="M62.46,99.57c-4.18,.35-5.39-1.51-5.39-4s1.36-4.17,5.34-4.22v1.4c-3.32,0-3.88,.91-3.88,2.67s.86,3,3.93,2.87v1.28Z"/>
        <path d="M68.19,97.35c0-1.3-3.72-1.81-3.72-3.67s1.36-2.47,4.73-2.26v1.3c-2.62,0-3.27,0-3.27,.76s3.77,1.76,3.77,3.67-1.41,2.62-5,2.47v-1.36c2.54,.2,3.49-.25,3.49-.91Z"/>
        <path d="M75.44,97.35c0-1.3-3.73-1.81-3.73-3.67s1.36-2.47,4.73-2.26v1.3c-2.61,0-3.22,0-3.22,.76s3.73,1.76,3.73,3.67-1.36,2.62-5,2.47v-1.36c2.43,.2,3.49-.25,3.49-.91Z"/>
        <path class="cls-9" d="M21.95,34.16l3.76,19.12c.23,1.11,1.03,2.01,2.11,2.36,26.16,7.39,54.28,1.9,75.74-14.78,.92-.7,1.33-1.88,1.06-3l-3.52-18.16"/>
        <path class="cls-8" d="M101.25,20.37l1.06,5.64c-36.94,31.09-79.6,11.77-79.6,11.77l-.61-3.07h.81l38.94,5.39c.97,.13,1.96-.04,2.82-.51l34.67-18.73,1.91-.49Z"/>
        <path class="cls-8" d="M98.33,5.48l2.92,15.09-1.91,.36-34.72,18.71c-.86,.47-1.85,.64-2.82,.51l-38.94-5.59h-.81l-2-10,2.42-5.34L96.47,5.79l1.86-.31Z"/>
        <g class="cls-13">
          <path class="cls-8" d="M102.05,24.75l1.46,7.34c-36.83,31.1-80.35,8.16-80.35,8.16l-.25-1.16h.8l39,5.38c.97,.14,1.96-.04,2.82-.5l34.71-18.82,1.81-.4Z"/>
          <path class="cls-8" d="M99.19,10.06l2.86,15.09h-1.86l-34.82,18.71c-.86,.46-1.84,.64-2.81,.5l-38.85-5.42h-.8l-2-10.07,2.41-5.38L97.32,10.06h1.87Z"/>
        </g>
        <path class="cls-9" d="M119.97,9.2L58.88,.75c-.97-.14-1.95,.04-2.81,.5L.71,31.14v.5l61.18,8.61c.98,.11,1.96-.08,2.82-.56L120.02,9.86"/>
        <path class="cls-3" d="M61.05,35.21h0c-.18,.2-.48,.21-.68,.03s-.21-.48-.03-.68h0l1.16-5.48c.07-.21,.28-.34,.5-.31,.21,.05,.34,.25,.31,.46l-1,5.48c.01,.2-.09,.39-.26,.5Z"/>
        <path class="cls-3" d="M63.41,32.04h0c-.19-.02-.33-.18-.31-.37,0,0,0,0,0-.01,0-.02,0-.05,0-.07h0l.6-2.92c.08-.2,.31-.31,.52-.23,.11,.04,.2,.12,.24,.23l-.6,2.92c.06,.19-.04,.39-.23,.45-.07,.02-.15,.02-.23,0h.01Z"/>
        <path class="cls-3" d="M60.33,59.67c-.36,0-.67-.27-.7-.64-.04-.39,.25-.73,.63-.77,15.71-1.53,30.58-7.48,43-17.21,.7-.54,1.04-1.44,.85-2.3l-3.52-18.18c-.07-.38,.18-.75,.56-.83,.38-.07,.75,.18,.83,.56l3.52,18.17c.29,1.38-.25,2.83-1.37,3.69-12.63,9.89-27.75,15.95-43.73,17.5-.02,0-.05,0-.07,0Z"/>
        <path class="cls-3" d="M50.43,60.09c-1.48,0-2.95-.04-4.42-.12-.39-.02-.69-.35-.67-.74,.02-.39,.34-.68,.74-.67,2.88,.16,5.8,.16,8.68,0,.4-.02,.72,.28,.74,.67,.02,.39-.28,.72-.67,.74-1.47,.08-2.94,.12-4.42,.12Z"/>
        <path class="cls-3" d="M40.71,59.57s-.05,0-.08,0c-4.38-.5-8.76-1.37-13-2.58-1.34-.37-2.37-1.5-2.61-2.88,0-.04-.01-.08-.01-.12v-.5c0-.39,.32-.71,.71-.71s.71,.32,.71,.71v.44c.16,.82,.78,1.48,1.59,1.7,4.18,1.2,8.48,2.05,12.78,2.54,.39,.04,.67,.39,.62,.78-.04,.36-.35,.63-.7,.63Z"/>
        <path class="cls-3" d="M24.96,50.31c-.33,0-.62-.23-.69-.57l-.7-3.57c-.07-.38,.17-.75,.56-.83,.38-.07,.75,.17,.83,.56l.7,3.57c.07,.38-.17,.75-.56,.83-.05,0-.09,.01-.14,.01Z"/>
        <path class="cls-3" d="M23.6,43.42c-.33,0-.63-.23-.69-.57l-1.51-7.9c-.07-.38,.18-.75,.56-.82,.38-.08,.75,.18,.82,.56l1.51,7.9c.07,.38-.18,.75-.56,.82-.04,0-.09,.01-.13,.01Z"/>
        <path class="cls-4" d="M30.3,35.57s-.1,0-.15,0l-27.52-3.17c-.56-.06-1.02-.48-1.13-1.04s.14-1.12,.64-1.4l3.83-2.17L53.78,1.91c.64-.34,1.43-.11,1.78,.53,.34,.64,.11,1.43-.53,1.78L6.92,30.25l23.53,2.71c.72,.08,1.23,.73,1.15,1.45-.08,.67-.64,1.16-1.3,1.16Z"/>
        <ellipse class="cls-8" cx="77.41" cy="38.38" rx="4.58" ry="3.17" transform="translate(-5.89 15.45) rotate(-10.98)"/>
        <ellipse class="cls-8" cx="91.83" cy="36.68" rx="1.61" ry="1.16" transform="translate(-5.3 18.15) rotate(-10.97)"/>
        <circle class="cls-8" cx="86.31" cy="35.57" r="2.62"/>
        <circle class="cls-8" cx="98.08" cy="33" r=".96"/>
        <circle class="cls-8" cx="94.31" cy="32.6" r="1.61"/>
        <path class="cls-8" d="M64.12,39.74c-.47,0-.92-.25-1.16-.69-.34-.64-.1-1.43,.54-1.77L108.98,13l-41.88,7.45c-.71,.13-1.39-.35-1.52-1.06-.13-.71,.35-1.39,1.06-1.52l50.02-8.9c.63-.11,1.26,.25,1.47,.86,.21,.61-.05,1.28-.62,1.58l-52.78,28.17c-.2,.1-.41,.15-.62,.15Z"/>
        <path class="cls-3" d="M62.43,40.99c-.21,0-.42-.01-.63-.04L.61,32.34c-.35-.05-.61-.35-.61-.7v-.5c0-.26,.14-.5,.37-.62l23.26-12.58c.34-.18,.77-.06,.96,.28,.19,.34,.06,.77-.28,.96L2.19,31.14l59.79,8.41c.82,.1,1.65-.07,2.38-.48L119.68,9.24c.34-.18,.77-.06,.96,.29,.18,.34,.06,.77-.29,.96l-55.31,29.83c-.8,.45-1.69,.68-2.61,.68Z"/>
        <path class="cls-3" d="M28.65,16.75c-.25,0-.5-.14-.62-.37-.18-.34-.05-.77,.29-.95l6.03-3.22c.34-.18,.77-.05,.95,.29,.18,.34,.05,.77-.29,.95l-6.03,3.22c-.11,.06-.22,.08-.33,.08Z"/>
        <ellipse class="cls-7" cx="60.35" cy="19.1" rx="5.84" ry="4.78" transform="translate(-2.53 11.84) rotate(-10.98)"/>
        <path class="cls-3" d="M119.5,58.26c-.33,0-.63-.23-.69-.57l-3.77-19.37c-.07-.38,.17-.75,.56-.83,.38-.07,.75,.18,.83,.56l3.77,19.37c.07,.38-.17,.75-.56,.83-.05,0-.09,.01-.14,.01Z"/>
        <path class="cls-3" d="M115.18,35.92c-.33,0-.63-.23-.69-.57l-.96-4.93c-.07-.38,.17-.75,.56-.83,.38-.07,.75,.17,.83,.56l.96,4.93c.07,.38-.17,.75-.56,.83-.05,0-.09,.01-.14,.01Z"/>
        <path class="cls-3" d="M113.63,27.92c-.07,0-.14,0-.21-.03-.37-.11-.58-.51-.47-.88l5.24-17.07-52.06,8.67c-.38,.06-.75-.2-.81-.58-.06-.38,.2-.75,.58-.81l53.18-8.86c.24-.04,.49,.05,.65,.23,.16,.18,.21,.44,.14,.67l-5.58,18.16c-.09,.3-.37,.5-.67,.5Z"/>
        <path class="cls-5" d="M62.51,15.09c-.58,.21-1.1,.55-1.51,1-.66,.71-1,1.72-1.66,2.42-1.05,.96-2.48,1.39-3.88,1.16h-.95c.5-2.44,2.53-4.27,5-4.53,.98-.25,2.01-.26,3-.05Z"/>
        <path class="cls-2" d="M60.7,23.67c-.46,0-.85-.36-.88-.82-.03-.48,.33-.9,.82-.94,1.95-.13,3.55-1.63,3.81-3.57,.06-.48,.51-.82,.99-.76,.48,.06,.82,.51,.76,.99-.37,2.76-2.65,4.9-5.43,5.09-.02,0-.04,0-.06,0Z"/>
        <path class="cls-3" d="M60.01,24.5c-.49,0-.97-.05-1.45-.15-.38-.08-.63-.45-.55-.83,.08-.38,.45-.62,.83-.55,.77,.16,1.56,.16,2.33,0,.06-.01,.12-.02,.18-.01,.62,.04,1.26-.08,1.84-.32,1.02-.43,1.81-1.23,2.23-2.26,.42-1.03,.41-2.15-.02-3.17-.89-2.1-3.32-3.09-5.43-2.2-.09,.04-.18,.06-.27,.06h-.18c-2.46,.22-4.34,2.42-4.15,4.94,.11,.37,.28,.7,.51,1.01,.24,.31,.18,.75-.13,.99-.31,.24-.75,.18-.99-.13-.36-.47-.61-.99-.77-1.55-.01-.04-.02-.08-.02-.13-.14-1.61,.36-3.17,1.39-4.4s2.49-1.99,4.1-2.13h.1c2.79-1.1,5.97,.23,7.15,3.01,.58,1.37,.59,2.88,.03,4.25s-1.62,2.45-2.98,3.03c-.74,.31-1.56,.47-2.37,.44-.45,.09-.91,.13-1.36,.13Z"/>
        <path class="cls-11" d="M105.43,9.51s-.09,0-.14,0L60.75,3.51c-.58-.08-.98-.61-.9-1.19s.61-.98,1.19-.9l44.53,5.99c.58,.08,.98,.61,.9,1.19-.07,.53-.52,.91-1.04,.91Z"/>
        <path class="cls-3" d="M38.41,11.57c-.25,0-.49-.13-.62-.37-.19-.34-.06-.77,.28-.96L55.73,.63c1-.54,2.12-.74,3.25-.58l61.09,8.45c.39,.05,.65,.41,.6,.79-.05,.39-.41,.66-.79,.6L58.78,1.45c-.82-.12-1.65,.03-2.38,.42l-17.66,9.61c-.11,.06-.22,.09-.34,.09Z"/>
        <ellipse class="cls-11" cx="65.11" cy="4.36" rx="2.16" ry="1.46" transform="translate(.36 12.48) rotate(-10.98)"/>
        <circle class="cls-11" cx="69" cy="5.88" r=".45"/>
        <circle class="cls-11" cx="60.95" cy="4.52" r=".81"/>
        <path class="cls-7" d="M117.55,55.34c-.25,0,5,17.56,1.16,22.59l7.29-1.41-4-20.42"/>
        <path class="cls-6" d="M120.37,77.86c-.07,0-.14,0-.21-.03-.47-.12-.76-.59-.64-1.07,.74-3,.74-6.18,0-9.19-.12-.47,.17-.95,.64-1.07,.47-.12,.95,.17,1.07,.64,.81,3.28,.81,6.75,0,10.03-.1,.4-.46,.67-.85,.67Z"/>
        <path class="cls-2" d="M123.19,62.03l.25,1.51c-1.43,.42-2.96,.27-4.28-.4l-.3-1.46c1.35,.63,2.89,.76,4.33,.35Z"/>
        <path class="cls-3" d="M118.71,78.79c-.21,0-.42-.1-.56-.27-.16-.21-.19-.49-.08-.73,1.37-2.93,1.77-6.15,1.16-9.33-.07-.38,.18-.75,.56-.83,.38-.07,.75,.18,.83,.56,.58,3.02,.33,6.09-.74,8.95l5.3-1.03-3.86-19.73c-.07-.38,.17-.75,.56-.83,.38-.07,.75,.17,.83,.56l4,20.42c.04,.18,0,.37-.11,.53-.1,.16-.27,.26-.45,.3l-7.29,1.41s-.09,.01-.13,.01Z"/>
        <path class="cls-3" d="M119.54,66.11c-.34,0-.65-.25-.7-.6-.77-5.28-1.97-9.94-1.98-9.99-.1-.38,.13-.76,.51-.86,.37-.1,.76,.13,.86,.51,.01,.05,1.23,4.78,2.02,10.13,.06,.39-.21,.74-.6,.8-.03,0-.07,0-.1,0Z"/>
        <ellipse class="cls-7" cx="120.45" cy="56.54" rx="4.78" ry="5.84" transform="translate(6.19 124.74) rotate(-55.98)"/>
        <path class="cls-5" d="M124.71,55.34c-.55-.27-1.15-.39-1.76-.35-1,0-1.92,.5-2.92,.5-1.41-.04-2.71-.75-3.52-1.91l-.56-.81c2-1.38,4.64-1.38,6.64,0,.91,.67,1.64,1.55,2.12,2.57Z"/>
        <path class="cls-2" d="M121.19,61.51c-1.3,0-2.61-.46-3.67-1.37-.37-.32-.41-.87-.09-1.24,.32-.37,.87-.41,1.24-.09,1.46,1.25,3.58,1.25,5.04,0,.37-.32,.92-.27,1.24,.09,.32,.37,.27,.92-.09,1.24-1.06,.91-2.37,1.37-3.67,1.37Z"/>
        <path class="cls-3" d="M121.23,62.42c-1.34,0-2.69-.44-3.83-1.35-.77-.51-1.46-1.2-2.01-2.02-.21-.32-.13-.76,.2-.98,.32-.21,.76-.13,.98,.2,.44,.66,1,1.22,1.66,1.66,2.02,1.6,4.83,1.37,6.5-.49,.77-1.94,.32-4.13-1.16-5.61-2.04-2.04-5.35-2.04-7.39,0-.16,.22-.32,.55-.42,.9-.1,.38-.49,.59-.87,.49-.38-.1-.59-.49-.49-.87,.15-.52,.39-1.01,.72-1.45,2.65-2.66,6.86-2.66,9.45-.07,1.91,1.92,2.47,4.77,1.42,7.26-.03,.07-.07,.13-.12,.19-1.21,1.41-2.92,2.14-4.65,2.14Z"/>
        <circle class="cls-2" cx="121.43" cy="63.64" r=".86"/>
        <path class="cls-3" d="M123.63,77.61c-.22,0-.42-.16-.47-.39l-.65-3.27c-.05-.26,.12-.51,.38-.56,.26-.05,.51,.12,.56,.38l.65,3.27c.05,.26-.12,.51-.38,.56-.03,0-.06,0-.09,0Z"/>
        <path class="cls-3" d="M91.34,45.13c-.26,0-.51-.14-.63-.39-.17-.35-.03-.77,.32-.94,1.25-.62,2.48-1.32,3.65-2.07,.33-.21,.76-.12,.97,.21,.21,.33,.12,.76-.21,.97-1.22,.78-2.49,1.51-3.79,2.15-.1,.05-.21,.07-.31,.07Z"/>
        <path class="cls-3" d="M97.53,41.38c-.23,0-.45-.11-.59-.32-.22-.32-.13-.76,.2-.98,2.29-1.52,4.52-3.19,6.63-4.95,.3-.25,.74-.21,.99,.09,.25,.3,.21,.74-.09,.99-2.15,1.8-4.42,3.5-6.75,5.05-.12,.08-.26,.12-.39,.12Z"/>
        <circle class="cls-3" cx="34.23" cy="78.54" r=".75"/>
        <path class="cls-4" d="M37.15,75.64c-.35,0-.63-.28-.63-.63v-4.73c0-.35,.28-.63,.63-.63s.63,.28,.63,.63v4.73c0,.35-.28,.63-.63,.63Z"/>
        <circle class="cls-4" cx="37.15" cy="67.77" r=".86"/>
        <path class="cls-4" d="M44.54,93.3h-4.67c-.35,0-.63-.28-.63-.63s.28-.63,.63-.63h4.67c.35,0,.63,.28,.63,.63s-.28,.63-.63,.63Z"/>
        <circle class="cls-4" cx="37.35" cy="92.67" r=".86"/>
        <text class="cls-12" transform="translate(45 78.84)"><tspan x="0" y="0">{ : }</tspan></text>
        <circle class="cls-10" cx="68.39" cy="61.88" r="2.21"/>
        <circle class="cls-10" cx="73.58" cy="61.68" r=".6"/>
        <circle class="cls-10" cx="76.7" cy="59.37" r=".86"/>
        <circle class="cls-10" cx="61.5" cy="62.08" r="1.26"/>
        <circle class="cls-10" cx="64.77" cy="63.79" r=".55"/>
        <circle class="cls-10" cx="80.97" cy="58.41" r="1.46"/>
        <circle class="cls-10" cx="76.14" cy="62.28" r=".96"/>
      </g>
    </g>
  </g>
</svg>