<?xml version="1.0" encoding="utf-8"?>
<!-- Generator: Adobe Illustrator 27.0.0, SVG Export Plug-In . SVG Version: 6.00 Build 0)  -->
<svg version="1.1" id="Layer_1" xmlns="http://www.w3.org/2000/svg" xmlns:xlink="http://www.w3.org/1999/xlink" x="0px" y="0px"
	 viewBox="0 0 282.1 416.2" style="enable-background:new 0 0 282.1 416.2;" xml:space="preserve">
<style type="text/css">
	.st0{fill:#FFFFFF;}
	.st1{fill:#E5E5E5;}
	.st2{fill:#A9EA9C;}
	.st3{fill:#91CD86;}
	.st4{fill:#426572;}
	.st5{fill:#F9F9F9;}
	.st6{opacity:0.5;}
	.st7{fill:#7490A8;}
	.st8{enable-background:new    ;}
</style>
<path class="st0" d="M279.9,279.9v44.6c0,20.8-16.8,37.6-37.6,37.6h-195c-20.7,0-37.5-16.8-37.5-37.6V43.6C9.7,22.8,26.6,6,47.3,6
	h195c20.8,0,37.6,16.8,37.6,37.6V123"/>
<path class="st1" d="M6,323.3v-22.1c0,20.8,16.8,37.6,37.6,37.6h195c20.8,0,37.6-16.8,37.6-37.6v22.1c0,20.8-16.8,37.6-37.6,37.6
	h-195C22.8,360.9,6,344.1,6,323.3z"/>
<circle class="st2" cx="141.1" cy="359.7" r="51.5"/>
<path class="st3" d="M190.2,356.7c0,28.4-23.1,51.5-51.5,51.5s-51.5-23.1-51.5-51.5c0-2.2,0.1-4.3,0.4-6.5
	c3.6,28.2,29.4,48.2,57.6,44.6c23.3-3,41.7-21.3,44.6-44.6C190,352.3,190.2,354.5,190.2,356.7z"/>
<path class="st4" d="M238.6,368.1h-31.9v-12h31.9c17.4,0,31.6-14.2,31.6-31.6V43.6c0-17.4-14.2-31.6-31.6-31.6h-195
	C26.1,12,12,26.2,12,43.6v280.9c0,17.4,14.2,31.6,31.6,31.6h34v12h-34C19.5,368.1,0,348.6,0,324.5V43.6C0,19.5,19.5,0,43.6,0h195
	c24.1,0,43.6,19.5,43.6,43.6v280.9C282.1,348.6,262.6,368.1,238.6,368.1z"/>
<rect x="95.1" y="162.4" class="st4" width="92" height="12"/>
<rect x="95.1" y="191.4" class="st4" width="92" height="12"/>
<rect x="95.1" y="220.4" class="st4" width="92" height="12"/>
<path class="st4" d="M141.1,416.2c-31.8,0-57.5-25.7-57.5-57.5s25.7-57.5,57.5-57.5s57.5,25.7,57.5,57.5
	C198.5,390.4,172.8,416.1,141.1,416.2z M141.1,313.2c-25.1,0-45.5,20.4-45.5,45.5s20.4,45.5,45.5,45.5s45.5-20.4,45.5-45.5l0,0
	C186.5,333.6,166.2,313.2,141.1,313.2z"/>
<polygon class="st4" points="136.2,394.4 112.1,371.5 120.3,362.8 134.2,376 162.2,334.8 172.1,341.6 "/>
<path class="st5" d="M109.2,350.2c0,0.1-0.1,0.3,0.1-0.6s0.4-2.1,0.7-3.1c0.8-3,2.1-5.9,3.7-8.5c5.8-9.4,15.7-13,26.4-12.7
	c3.9,0.1,3.9-5.9,0-6c-12.3-0.4-23.7,4-30.8,14.3c-3.4,5-5.5,10.7-6.2,16.7C102.8,354,108.8,354,109.2,350.2L109.2,350.2z"/>
<g class="st6">
	<path class="st7" d="M34.7,36h34.8c3.9,0,3.9-6,0-6H34.7C30.8,30,30.8,36,34.7,36z"/>
	<path class="st7" d="M83.9,36h86.3c3.9,0,3.9-6,0-6H83.9C80,30,80,36,83.9,36z"/>
</g>
<g class="st8">
	<path class="st4" d="M77.3,116.5v-7.3h18.7v17.1c-1.8,1.8-4.5,3.3-7.9,4.7c-3.5,1.3-7,2-10.5,2c-4.5,0-8.4-0.9-11.8-2.8
		c-3.3-1.9-5.9-4.6-7.5-8.1c-1.7-3.5-2.5-7.3-2.5-11.5c0-4.5,0.9-8.5,2.8-12c1.9-3.5,4.6-6.2,8.3-8c2.8-1.4,6.2-2.1,10.3-2.1
		c5.3,0,9.5,1.1,12.5,3.4c3,2.2,4.9,5.3,5.8,9.3l-8.6,1.6c-0.6-2.1-1.7-3.8-3.4-5c-1.7-1.2-3.8-1.8-6.3-1.8c-3.8,0-6.8,1.2-9.1,3.6
		c-2.2,2.4-3.4,6-3.4,10.7c0,5.1,1.1,8.9,3.4,11.5s5.2,3.8,8.9,3.8c1.8,0,3.6-0.4,5.5-1.1c1.8-0.7,3.4-1.6,4.7-2.6v-5.5H77.3z"/>
	<path class="st4" d="M104.1,89.3h15.9c3.6,0,6.3,0.3,8.2,0.8c2.5,0.7,4.7,2.1,6.5,4c1.8,1.9,3.2,4.2,4.1,7
		c0.9,2.8,1.4,6.1,1.4,10.2c0,3.5-0.4,6.6-1.3,9.2c-1.1,3.1-2.6,5.7-4.6,7.6c-1.5,1.5-3.5,2.6-6.1,3.4c-1.9,0.6-4.5,0.9-7.7,0.9
		h-16.4V89.3z M112.8,96.6v28.5h6.5c2.4,0,4.2-0.1,5.3-0.4c1.4-0.4,2.6-0.9,3.5-1.8c0.9-0.8,1.7-2.2,2.3-4.2
		c0.6-1.9,0.9-4.6,0.9-7.9c0-3.3-0.3-5.9-0.9-7.7c-0.6-1.8-1.4-3.2-2.5-4.2c-1.1-1-2.4-1.7-4-2c-1.2-0.3-3.6-0.4-7.1-0.4H112.8z"/>
	<path class="st4" d="M147.5,132.4v-43h13.9c5.3,0,8.7,0.2,10.3,0.6c2.5,0.6,4.5,2.1,6.2,4.2c1.7,2.2,2.5,5,2.5,8.4
		c0,2.6-0.5,4.9-1.4,6.7c-1,1.8-2.2,3.2-3.7,4.2c-1.5,1-3,1.7-4.5,2c-2.1,0.4-5.1,0.6-9,0.6h-5.7v16.2H147.5z M156.2,96.6v12.2h4.8
		c3.4,0,5.7-0.2,6.9-0.7c1.2-0.5,2.1-1.2,2.7-2.1c0.7-1,1-2.1,1-3.3c0-1.6-0.5-2.9-1.4-3.9c-0.9-1-2.1-1.7-3.5-1.9
		c-1-0.2-3.1-0.3-6.3-0.3H156.2z"/>
	<path class="st4" d="M187.7,132.4v-43H206c4.6,0,7.9,0.4,10,1.2c2.1,0.8,3.8,2.1,5,4.1c1.3,2,1.9,4.2,1.9,6.8c0,3.2-0.9,5.9-2.8,8
		c-1.9,2.1-4.7,3.4-8.5,4c1.9,1.1,3.4,2.3,4.7,3.6c1.2,1.3,2.9,3.6,4.9,7l5.3,8.4H216l-6.3-9.4c-2.2-3.3-3.8-5.5-4.6-6.3
		c-0.8-0.9-1.7-1.5-2.6-1.8c-0.9-0.3-2.4-0.5-4.4-0.5h-1.8v18H187.7z M196.4,107.5h6.4c4.2,0,6.8-0.2,7.8-0.5c1-0.4,1.8-1,2.4-1.8
		c0.6-0.9,0.9-1.9,0.9-3.2c0-1.4-0.4-2.6-1.2-3.5c-0.8-0.9-1.9-1.5-3.3-1.7c-0.7-0.1-2.8-0.1-6.3-0.1h-6.8V107.5z"/>
</g>
</svg>
