<?xml version="1.0" encoding="utf-8"?>
<!-- Generator: Adobe Illustrator 27.0.0, SVG Export Plug-In . SVG Version: 6.00 Build 0)  -->
<svg version="1.1" id="Layer_1" xmlns="http://www.w3.org/2000/svg" xmlns:xlink="http://www.w3.org/1999/xlink" x="0px" y="0px"
	 viewBox="0 0 329.3 347.5" style="enable-background:new 0 0 329.3 347.5;" xml:space="preserve">
<style type="text/css">
	.st0{fill:#FFFFFF;}
	.st1{fill:#426572;}
	.st2{fill:#385868;}
	.st3{fill:#F58C05;}
	.st4{fill:#D06926;}
	.st5{enable-background:new    ;}
	.st6{opacity:0.5;}
	.st7{fill:#7490A8;}
</style>
<path class="st0" d="M279.4,220.9v35c0,16.3-14.2,29.5-31.8,29.5H82.8c-17.6,0-31.8-13.2-31.8-29.5V35.5C51.1,19.2,65.3,6,82.8,6
	h164.8c17.5,0,31.8,13.2,31.8,29.5v62.3"/>
<path class="st1" d="M247.6,291.3h-27v-12h27c14.2,0,25.8-10.5,25.8-23.5V35.5c0-13-11.6-23.5-25.8-23.5H82.8
	c-14.2,0-25.8,10.5-25.8,23.5v220.3c0,13,11.6,23.5,25.8,23.5h28.8v12H82.8c-20.8,0-37.8-15.9-37.8-35.5V35.5C45.1,15.9,62,0,82.8,0
	h164.8c20.8,0,37.8,15.9,37.8,35.5v220.3C285.4,275.4,268.5,291.3,247.6,291.3z"/>
<rect x="120.7" y="138.2" class="st2" width="72.2" height="12"/>
<rect x="120.7" y="160.9" class="st2" width="72.2" height="12"/>
<rect x="120.7" y="183.6" class="st2" width="72.2" height="12"/>
<path class="st3" d="M48.8,135.8h234c23,0,41.6,18.6,41.6,41.6v122.5c0,23-18.6,41.6-41.6,41.6h-234c-23,0-41.6-18.6-41.6-41.6
	V177.4C7.2,154.4,25.8,135.8,48.8,135.8z"/>
<rect x="-2.9" y="277.6" transform="matrix(0.7904 -0.6126 0.6126 0.7904 -160.5129 98.0278)" class="st4" width="131.7" height="12"/>
<rect x="255.8" y="213.9" transform="matrix(0.6203 -0.7843 0.7843 0.6203 -121.954 312.4523)" class="st4" width="12" height="136.6"/>
<path class="st4" d="M164.6,286.8c-4.9,0-17.8-1.2-30.3-12.1c-9.8-8.5-125.9-109.1-127-110.1l7.9-9.1c1.2,1,117.3,101.6,127.1,110.2
	c9.5,8.2,18.9,9.1,22.4,9.1s13-0.9,22.4-9.1c9.8-8.5,125.9-109.1,127.1-110.2l7.9,9.1c-1.2,1-117.2,101.6-127,110.1
	C182.4,285.6,169.6,286.8,164.6,286.8z"/>
<rect x="-8" y="266.4" transform="matrix(0.7843 -0.6203 0.6203 0.7843 -155.953 96.1384)" class="st1" width="136.6" height="12"/>
<rect x="264" y="210.1" transform="matrix(0.6222 -0.7828 0.7828 0.6222 -113.5271 315.3145)" class="st1" width="12" height="130.4"/>
<path class="st1" d="M281.6,347.5h-234C21.4,347.5,0,326.2,0,299.9V177.4c0-26.3,21.3-47.6,47.6-47.6h234
	c26.3,0,47.6,21.3,47.6,47.6v122.5C329.2,326.2,307.9,347.5,281.6,347.5z M47.6,141.8c-19.7,0-35.6,16-35.6,35.6v122.5
	c0,19.7,16,35.6,35.6,35.6h234c19.7,0,35.6-16,35.6-35.6V177.4c0-19.7-16-35.6-35.6-35.6L47.6,141.8z"/>
<path class="st1" d="M164.6,274.8c-4.9,0-17.8-1.2-30.3-12.1c-9.8-8.5-125.9-109.1-127-110.1l7.9-9.1c1.2,1,117.3,101.6,127.1,110.2
	c9.5,8.2,18.9,9.1,22.4,9.1s13-0.9,22.4-9.1c9.8-8.5,125.9-109.1,127.1-110.2l7.9,9.1c-1.2,1-117.2,101.6-127,110.1
	C182.4,273.7,169.6,274.8,164.6,274.8z"/>
<path class="st0" d="M55.9,160.3h34.8c3.9,0,3.9-6,0-6H55.9C52,154.3,52,160.3,55.9,160.3z"/>
<path class="st0" d="M105,160.3h86.3c3.9,0,3.9-6,0-6H105C101.1,154.3,101.1,160.3,105,160.3z"/>
<g class="st5">
	<path class="st1" d="M105,103.5v-7.3h18.7v17.1c-1.8,1.8-4.5,3.3-7.9,4.7c-3.5,1.3-7,2-10.5,2c-4.5,0-8.4-0.9-11.8-2.8
		c-3.3-1.9-5.9-4.6-7.5-8.1c-1.7-3.5-2.5-7.3-2.5-11.5c0-4.5,0.9-8.5,2.8-12c1.9-3.5,4.6-6.2,8.3-8c2.8-1.4,6.2-2.1,10.3-2.1
		c5.3,0,9.5,1.1,12.5,3.4c3,2.2,4.9,5.3,5.8,9.3l-8.6,1.6c-0.6-2.1-1.7-3.8-3.4-5c-1.7-1.2-3.8-1.8-6.3-1.8c-3.8,0-6.8,1.2-9.1,3.6
		c-2.2,2.4-3.4,6-3.4,10.7c0,5.1,1.1,8.9,3.4,11.5s5.2,3.8,8.9,3.8c1.8,0,3.6-0.4,5.5-1.1c1.8-0.7,3.4-1.6,4.7-2.6v-5.5H105z"/>
	<path class="st1" d="M131.7,76.3h15.9c3.6,0,6.3,0.3,8.2,0.8c2.5,0.7,4.7,2.1,6.5,4s3.2,4.2,4.1,7c0.9,2.8,1.4,6.1,1.4,10.2
		c0,3.5-0.4,6.6-1.3,9.2c-1.1,3.1-2.6,5.7-4.6,7.6c-1.5,1.5-3.5,2.6-6.1,3.4c-1.9,0.6-4.5,0.9-7.7,0.9h-16.4V76.3z M140.4,83.6v28.5
		h6.5c2.4,0,4.2-0.1,5.3-0.4c1.4-0.4,2.6-0.9,3.5-1.8c0.9-0.8,1.7-2.2,2.3-4.2c0.6-1.9,0.9-4.6,0.9-7.9c0-3.3-0.3-5.9-0.9-7.7
		c-0.6-1.8-1.4-3.2-2.5-4.2c-1.1-1-2.4-1.7-4-2c-1.2-0.3-3.6-0.4-7.1-0.4H140.4z"/>
	<path class="st1" d="M175.2,119.3v-43h13.9c5.3,0,8.7,0.2,10.3,0.6c2.5,0.6,4.5,2.1,6.2,4.2c1.7,2.2,2.5,5,2.5,8.4
		c0,2.6-0.5,4.9-1.4,6.7c-1,1.8-2.2,3.2-3.7,4.2c-1.5,1-3,1.7-4.5,2c-2.1,0.4-5.1,0.6-9,0.6h-5.7v16.2H175.2z M183.9,83.6v12.2h4.8
		c3.4,0,5.7-0.2,6.9-0.7c1.2-0.5,2.1-1.2,2.7-2.1c0.7-1,1-2.1,1-3.3c0-1.6-0.5-2.9-1.4-3.9c-0.9-1-2.1-1.7-3.5-1.9
		c-1-0.2-3.1-0.3-6.3-0.3H183.9z"/>
	<path class="st1" d="M215.3,119.3v-43h18.3c4.6,0,7.9,0.4,10,1.2c2.1,0.8,3.8,2.1,5,4.1c1.3,2,1.9,4.2,1.9,6.8c0,3.2-0.9,5.9-2.8,8
		c-1.9,2.1-4.7,3.4-8.5,4c1.9,1.1,3.4,2.3,4.7,3.6c1.2,1.3,2.9,3.6,4.9,7l5.3,8.4h-10.4l-6.3-9.4c-2.2-3.3-3.8-5.5-4.6-6.3
		s-1.7-1.5-2.6-1.8c-0.9-0.3-2.4-0.5-4.4-0.5H224v18H215.3z M224,94.5h6.4c4.2,0,6.8-0.2,7.8-0.5c1-0.4,1.8-1,2.4-1.8
		c0.6-0.9,0.9-1.9,0.9-3.2c0-1.4-0.4-2.6-1.2-3.5c-0.8-0.9-1.9-1.5-3.3-1.7c-0.7-0.1-2.8-0.1-6.3-0.1H224V94.5z"/>
</g>
<g class="st6">
	<path class="st7" d="M75.6,32.3h34.8c3.9,0,3.9-6,0-6H75.6C71.7,26.3,71.7,32.3,75.6,32.3z"/>
	<path class="st7" d="M124.8,32.3h86.3c3.9,0,3.9-6,0-6h-86.3C120.9,26.3,120.9,32.3,124.8,32.3z"/>
</g>
</svg>
