<?xml version="1.0" encoding="utf-8"?>
<!-- Generator: Adobe Illustrator 27.0.0, SVG Export Plug-In . SVG Version: 6.00 Build 0)  -->
<svg version="1.1" id="Layer_1" xmlns="http://www.w3.org/2000/svg" xmlns:xlink="http://www.w3.org/1999/xlink" x="0px" y="0px"
	 viewBox="0 0 299.6 401.3" style="enable-background:new 0 0 299.6 401.3;" xml:space="preserve">
<style type="text/css">
	.st0{fill:#FBC907;}
	.st1{fill:#F3A70F;}
	.st2{fill:#426572;}
	.st3{fill:#FFFFFF;}
	.st4{enable-background:new    ;}
</style>
<path class="st0" d="M227.8,284.1H74.2c-20.6,0-37.2-16.7-37.2-37.2V37.4C37,16.9,53.6,0.2,74.2,0.2h153.6
	c20.5,0,37.2,16.7,37.2,37.2v209.5C265,267.4,248.3,284.1,227.8,284.1z M83.5,237.6h135V46.7h-135V237.6z"/>
<path class="st1" d="M265.3,114.2v142c0,20.6-16.7,37.2-37.3,37.2H74.4c-20.6,0-37.2-16.7-37.2-37.2v-142h46.5v132.7h135V114.2
	H265.3z"/>
<path class="st2" d="M227.8,296H74.2C50.3,296,31,276.6,31,252.8V43.2C31,19.4,50.3,0,74.2,0h153.6C251.7,0,271,19.4,271,43.2v209.5
	C271,276.6,251.7,296,227.8,296z M74.2,12C56.9,12,43,26,43,43.2v209.5c0,17.3,14,31.3,31.2,31.3h153.6c17.3,0,31.2-14,31.2-31.3
	V43.2C259,26,245,12,227.8,12H74.2z M224.5,249.4h-147V46.5h147L224.5,249.4z M89.5,237.4h123V58.5h-123L89.5,237.4z"/>
<path class="st0" d="M18,140.2h263.6c6.6,0,12,5.4,12,12v233.6c0,6.6-5.4,12-12,12H18c-6.6,0-12-5.4-12-12V152.2
	C6,145.6,11.4,140.2,18,140.2z"/>
<path class="st1" d="M296,153.9v230.9c0,7.4-6,13.4-13.4,13.4H154.5V140.5h128.1C290,140.6,296,146.5,296,153.9z"/>
<path class="st2" d="M281.6,401.3H18c-9.9,0-18-8.1-18-18V149.7c0-9.9,8.1-18,18-18h263.6c9.9,0,18,8.1,18,18v233.6
	C299.6,393.3,291.6,401.3,281.6,401.3z M18,143.7c-3.3,0-6,2.7-6,6v233.6c0,3.3,2.7,6,6,6h263.6c3.3,0,6-2.7,6-6V149.7
	c0-3.3-2.7-6-6-6H18z"/>
<path class="st3" d="M27.9,165.3h36.4c3.9,0,3.9-6,0-6H27.9C24.1,159.3,24.1,165.3,27.9,165.3z"/>
<path class="st3" d="M79.4,165.3h90.4c3.9,0,3.9-6,0-6H79.4C75.6,159.3,75.6,165.3,79.4,165.3z"/>
<g class="st4">
	<path class="st2" d="M86.8,274.7v-7.3h18.7v17.1c-1.8,1.8-4.5,3.3-7.9,4.7c-3.5,1.3-7,2-10.5,2c-4.5,0-8.4-0.9-11.8-2.8
		c-3.3-1.9-5.9-4.6-7.5-8.1c-1.7-3.5-2.5-7.3-2.5-11.5c0-4.5,0.9-8.5,2.8-12c1.9-3.5,4.6-6.2,8.3-8c2.8-1.4,6.2-2.1,10.3-2.1
		c5.3,0,9.5,1.1,12.5,3.4c3,2.2,4.9,5.3,5.8,9.3l-8.6,1.6c-0.6-2.1-1.7-3.8-3.4-5c-1.7-1.2-3.8-1.8-6.3-1.8c-3.8,0-6.8,1.2-9.1,3.6
		c-2.2,2.4-3.4,6-3.4,10.7c0,5.1,1.1,8.9,3.4,11.5c2.3,2.6,5.2,3.8,8.9,3.8c1.8,0,3.6-0.4,5.5-1.1c1.8-0.7,3.4-1.6,4.7-2.6v-5.5
		H86.8z"/>
	<path class="st2" d="M113.5,247.5h15.9c3.6,0,6.3,0.3,8.2,0.8c2.5,0.7,4.7,2.1,6.5,4s3.2,4.2,4.1,7c0.9,2.8,1.4,6.1,1.4,10.2
		c0,3.5-0.4,6.6-1.3,9.2c-1.1,3.1-2.6,5.7-4.6,7.6c-1.5,1.5-3.5,2.6-6.1,3.4c-1.9,0.6-4.5,0.9-7.7,0.9h-16.4V247.5z M122.2,254.8
		v28.5h6.5c2.4,0,4.2-0.1,5.3-0.4c1.4-0.4,2.6-0.9,3.5-1.8c0.9-0.8,1.7-2.2,2.3-4.2c0.6-1.9,0.9-4.6,0.9-7.9s-0.3-5.9-0.9-7.7
		c-0.6-1.8-1.4-3.2-2.5-4.2s-2.4-1.7-4-2c-1.2-0.3-3.6-0.4-7.1-0.4H122.2z"/>
	<path class="st2" d="M156.9,290.5v-43h13.9c5.3,0,8.7,0.2,10.3,0.6c2.5,0.6,4.5,2.1,6.2,4.2c1.7,2.2,2.5,5,2.5,8.4
		c0,2.6-0.5,4.9-1.4,6.7c-1,1.8-2.2,3.2-3.7,4.2c-1.5,1-3,1.7-4.5,2c-2.1,0.4-5.1,0.6-9,0.6h-5.7v16.2H156.9z M165.6,254.8V267h4.8
		c3.4,0,5.7-0.2,6.9-0.7c1.2-0.5,2.1-1.2,2.7-2.1c0.7-1,1-2.1,1-3.3c0-1.6-0.5-2.9-1.4-3.9c-0.9-1-2.1-1.7-3.5-1.9
		c-1-0.2-3.1-0.3-6.3-0.3H165.6z"/>
	<path class="st2" d="M197.1,290.5v-43h18.3c4.6,0,7.9,0.4,10,1.2c2.1,0.8,3.8,2.1,5,4.1c1.3,2,1.9,4.2,1.9,6.8c0,3.2-0.9,5.9-2.8,8
		c-1.9,2.1-4.7,3.4-8.5,4c1.9,1.1,3.4,2.3,4.7,3.6c1.2,1.3,2.9,3.6,4.9,7l5.3,8.4h-10.4l-6.3-9.4c-2.2-3.3-3.8-5.5-4.6-6.3
		s-1.7-1.5-2.6-1.8c-0.9-0.3-2.4-0.5-4.4-0.5h-1.8v18H197.1z M205.8,265.7h6.4c4.2,0,6.8-0.2,7.8-0.5c1-0.4,1.8-1,2.4-1.8
		c0.6-0.9,0.9-1.9,0.9-3.2c0-1.4-0.4-2.6-1.2-3.5c-0.8-0.9-1.9-1.5-3.3-1.7c-0.7-0.1-2.8-0.1-6.3-0.1h-6.8V265.7z"/>
</g>
</svg>
