<?xml version="1.0" encoding="utf-8"?>
<!-- Generator: Adobe Illustrator 27.0.0, SVG Export Plug-In . SVG Version: 6.00 Build 0)  -->
<svg version="1.1" id="Layer_1" xmlns="http://www.w3.org/2000/svg" xmlns:xlink="http://www.w3.org/1999/xlink" x="0px" y="0px"
	 viewBox="0 0 485.7 301" style="enable-background:new 0 0 485.7 301;" xml:space="preserve">
<style type="text/css">
	.st0{fill:#E5E5E5;}
	.st1{fill:#FFFFFF;}
	.st2{fill:#426572;}
	.st3{fill:#32CAF8;}
	.st4{opacity:0.5;fill:#078DE5;enable-background:new    ;}
	.st5{enable-background:new    ;}
</style>
<path class="st0" d="M452.6,14.9v230.1c0,3.5-2.9,6.2-6.3,6.2c0,0,0,0,0,0H44.9c-3.4,0-6.3-2.7-6.3-6.2V14.9c0-3.4,2.9-6.2,6.3-6.2
	h401.4C449.7,8.6,452.5,11.4,452.6,14.9C452.6,14.9,452.6,14.9,452.6,14.9z"/>
<path class="st1" d="M64.6,233.3v-12.4c0,2.7,2.5,4.8,5.6,4.8h352c3.1,0,5.5-2.2,5.5-4.8v12.4c0,2.7-2.5,4.8-5.5,4.8h-352
	C67,238.1,64.6,235.9,64.6,233.3z"/>
<path class="st1" d="M450.3,9.9v15.7c0-3.4-2.8-6.2-6.3-6.1c0,0,0,0,0,0H47.1c-3.4,0-6.2,2.7-6.3,6.1V9.9c0-3.4,2.8-6.2,6.3-6.1H444
	C447.4,3.7,450.2,6.4,450.3,9.9C450.3,9.9,450.3,9.9,450.3,9.9z"/>
<path class="st2" d="M439.5,267.1H51.7c-10.2-0.1-18.4-8.3-18.3-18.5V18.5C33.3,8.3,41.5,0.1,51.7,0h387.8
	c10.2,0.1,18.4,8.3,18.3,18.5v230.1C457.8,258.8,449.6,267,439.5,267.1z M51.7,12.4c-3.4,0-6.1,2.8-6.1,6.2v230.1
	c0,3.4,2.7,6.1,6.1,6.2h387.8c3.4,0,6.1-2.8,6.1-6.2V18.5c0-3.4-2.7-6.1-6.1-6.2H51.7z"/>
<path class="st3" d="M423.9,40.4v182.8c-0.2,2.9-2.6,5-5.5,4.9H72.7c-2.9,0.1-5.3-2.1-5.4-4.9V40.4c0.2-2.9,2.6-5,5.4-4.9h345.8
	C421.3,35.4,423.7,37.6,423.9,40.4z"/>
<path class="st4" d="M422.7,214.4v9.5c-1.8,0.3-3.6,0.3-5.5,0.3H71.5c-1.8,0.1-3.6,0-5.4-0.3v-9.5c1.8-0.3,3.6-0.3,5.4-0.3h345.8
	C419.1,214.1,420.9,214.1,422.7,214.4z"/>
<g class="st5">
	<path class="st2" d="M168.7,138.6v-8.6h22.3v20.4c-2.2,2.1-5.3,3.9-9.4,5.5c-4.1,1.6-8.3,2.4-12.5,2.4c-5.4,0-10-1.1-14-3.4
		c-4-2.2-7-5.5-9-9.6c-2-4.2-3-8.7-3-13.6c0-5.3,1.1-10.1,3.3-14.2c2.2-4.1,5.5-7.3,9.8-9.5c3.3-1.7,7.4-2.5,12.2-2.5
		c6.4,0,11.3,1.3,14.9,4c3.6,2.7,5.9,6.3,6.9,11l-10.3,1.9c-0.7-2.5-2.1-4.5-4.1-5.9c-2-1.5-4.5-2.2-7.4-2.2
		c-4.5,0-8.1,1.4-10.8,4.3c-2.7,2.9-4,7.1-4,12.7c0,6.1,1.3,10.6,4,13.7c2.7,3,6.2,4.6,10.6,4.6c2.2,0,4.3-0.4,6.5-1.3
		c2.2-0.8,4-1.9,5.6-3.1v-6.5H168.7z"/>
	<path class="st2" d="M200.4,106.2h18.9c4.3,0,7.5,0.3,9.7,1c3,0.9,5.6,2.5,7.7,4.7c2.1,2.3,3.8,5,4.9,8.3c1.1,3.3,1.7,7.3,1.7,12.1
		c0,4.2-0.5,7.8-1.6,10.9c-1.3,3.7-3.1,6.7-5.5,9c-1.8,1.7-4.2,3.1-7.3,4.1c-2.3,0.7-5.3,1.1-9.1,1.1h-19.4V106.2z M210.7,114.9
		v33.9h7.7c2.9,0,5-0.2,6.2-0.5c1.7-0.4,3.1-1.1,4.2-2.1c1.1-1,2-2.6,2.7-4.9c0.7-2.3,1-5.4,1-9.4c0-4-0.3-7-1-9.1
		c-0.7-2.1-1.7-3.8-2.9-5c-1.3-1.2-2.8-2-4.8-2.4c-1.4-0.3-4.3-0.5-8.5-0.5H210.7z"/>
	<path class="st2" d="M252,157.4v-51.2h16.6c6.3,0,10.4,0.3,12.3,0.8c2.9,0.8,5.4,2.4,7.4,5c2,2.6,3,5.9,3,10c0,3.1-0.6,5.8-1.7,7.9
		c-1.1,2.1-2.6,3.8-4.3,5c-1.8,1.2-3.5,2-5.4,2.4c-2.5,0.5-6,0.7-10.7,0.7h-6.7v19.3H252z M262.4,114.9v14.5h5.7
		c4.1,0,6.8-0.3,8.2-0.8c1.4-0.5,2.4-1.4,3.2-2.5c0.8-1.1,1.2-2.5,1.2-4c0-1.9-0.5-3.4-1.6-4.6c-1.1-1.2-2.5-2-4.2-2.3
		c-1.2-0.2-3.7-0.3-7.4-0.3H262.4z"/>
	<path class="st2" d="M299.7,157.4v-51.2h21.7c5.5,0,9.4,0.5,11.9,1.4c2.5,0.9,4.5,2.6,5.9,4.9c1.5,2.3,2.2,5,2.2,8.1
		c0,3.8-1.1,7-3.4,9.5c-2.3,2.5-5.6,4.1-10.1,4.7c2.2,1.3,4.1,2.7,5.5,4.3c1.5,1.6,3.4,4.3,5.9,8.3l6.2,10h-12.4l-7.5-11.1
		c-2.7-4-4.5-6.5-5.4-7.5c-1-1-2-1.7-3.1-2.1c-1.1-0.4-2.8-0.6-5.2-0.6h-2.1v21.4H299.7z M310.1,127.9h7.6c5,0,8-0.2,9.3-0.6
		c1.2-0.4,2.2-1.1,2.9-2.2s1-2.3,1-3.8c0-1.7-0.5-3.1-1.4-4.2c-0.9-1.1-2.2-1.7-3.9-2c-0.8-0.1-3.3-0.2-7.5-0.2h-8.1V127.9z"/>
</g>
<path class="st2" d="M414.2,231.7H76.9c-8.8,0-16-6.3-16-14V43.3c0-7.7,7.1-14,16-14h337.3c8.8,0,16,6.3,16,14v174.4
	C430.2,225.4,423,231.7,414.2,231.7z M76.9,38.6c-2.9,0-5.3,2.1-5.3,4.7v174.4c0,2.6,2.4,4.7,5.3,4.7h337.3c2.9,0,5.3-2.1,5.3-4.7
	V43.3c0-2.6-2.4-4.7-5.3-4.7L76.9,38.6z"/>
<path class="st1" d="M485.6,257.2c0,6.6-1.2,13.1-3.6,19.1H14.6c-2.5-6.1-3.7-12.6-3.7-19.1H485.6z"/>
<path class="st0" d="M480.7,276.4c-1.3,3.2-3,6.3-5.1,9.1c-5.4,7.3-12.9,11.8-21.1,11.8H39.5c-11.3,0-21.1-8.5-26.2-20.9H480.7z"/>
<path class="st1" d="M484.3,257.2c0,6.6-1.2,13.1-3.7,19.1H13.3c-2.5-6.1-3.7-12.6-3.7-19.1H484.3z"/>
<path class="st0" d="M480.7,276.4c-1.3,3.2-3,6.3-5.1,9.1c-5.4,7.3-12.9,11.8-21.1,11.8H39.5c-11.3,0-21.1-8.5-26.2-20.9H480.7z"/>
<path class="st2" d="M457.2,301H28.5C12.8,301,0,288.3,0,272.5V250h485.7v22.5C485.7,288.2,472.9,301,457.2,301z M11,261v11.5
	c0,9.7,7.8,17.5,17.5,17.5h428.7c9.7,0,17.5-7.8,17.5-17.5V261H11z"/>
<path class="st1" d="M263,60.1h36.1c3.9,0,3.9-6,0-6H263C259.1,54.1,259.1,60.1,263,60.1z"/>
<path class="st1" d="M314,60.1h89.5c3.9,0,3.9-6,0-6H314C310.1,54.1,310.1,60.1,314,60.1z"/>
</svg>
