<?xml version="1.0" encoding="utf-8"?>
<!-- Generator: Adobe Illustrator 27.0.0, SVG Export Plug-In . SVG Version: 6.00 Build 0)  -->
<svg version="1.1" id="Layer_1" xmlns="http://www.w3.org/2000/svg" xmlns:xlink="http://www.w3.org/1999/xlink" x="0px" y="0px"
	 viewBox="0 0 335.5 368.1" style="enable-background:new 0 0 335.5 368.1;" xml:space="preserve">
<style type="text/css">
	.st0{fill:#FFFFFF;}
	.st1{fill:#E5E5E5;}
	.st2{fill:#426572;}
	.st3{fill:#FBC907;}
	.st4{fill:#F3A70F;}
	.st5{fill:#F9F9F9;}
	.st6{opacity:0.5;}
	.st7{fill:#7490A8;}
	.st8{enable-background:new    ;}
</style>
<path class="st0" d="M277.2,279.9v44.6c0,20.8-16.8,37.6-37.6,37.6h-195c-20.7,0-37.6-16.8-37.6-37.6V43.6C7.1,22.8,23.9,6,44.6,6
	c0,0,0,0,0,0h195c20.8,0,37.6,16.8,37.6,37.6V123"/>
<path class="st1" d="M5.2,326.2V304c0,20.8,16.8,37.6,37.6,37.6c0,0,0,0,0,0h195c20.8,0,37.6-16.8,37.6-37.6v22.1
	c0,20.8-16.8,37.6-37.6,37.6h-195C22,363.7,5.2,346.9,5.2,326.2z"/>
<path class="st2" d="M238.6,368.1h-195C19.5,368,0,348.6,0,324.5V43.6C0,19.5,19.5,0,43.6,0h195c24.1,0,43.6,19.5,43.6,43.6V123h-12
	V43.6c0-17.5-14.2-31.6-31.6-31.6h-195C26.1,12,12,26.2,12,43.6v280.9c0,17.4,14.2,31.6,31.6,31.6h195c17.4,0,31.6-14.2,31.6-31.6
	v-44.6h12v44.6C282.1,348.6,262.6,368.1,238.6,368.1z"/>
<rect x="57.5" y="162.4" class="st2" width="92" height="12"/>
<rect x="57.5" y="191.4" class="st2" width="92" height="12"/>
<rect x="57.5" y="220.4" class="st2" width="92" height="12"/>
<path class="st3" d="M276.8,269.4c0,0,52.6-26.3,52.6-65.8v-52.6l-52.6-13.2l-52.6,13.2v52.6C224.2,243.1,276.8,269.4,276.8,269.4z"
	/>
<path class="st4" d="M329.5,178.6v22c0,39.5-52.6,65.8-52.6,65.8s-52.6-26.3-52.6-65.8v-22c0,39.5,52.6,65.8,52.6,65.8
	S329.5,218.1,329.5,178.6z"/>
<path class="st2" d="M276.8,272.6l-2.7-1.3c-2.3-1.1-56-28.5-56-71.2v-57.3l58.6-14.7l58.6,14.7v57.3c0,42.7-53.7,70-56,71.2
	L276.8,272.6z M230.2,152.2v48c0,30.5,36.3,53.2,46.6,59c10.3-5.8,46.6-28.6,46.6-59v-48l-46.6-11.7L230.2,152.2z"/>
<path class="st5" d="M250.2,163.1l15.5-3l10.6-2.1c1.2-0.2,2.4-0.4,3.5-0.7c1.8-0.5,1,0.4-0.2-0.2c1.6,0.9,3.9,1.1,5.6,1.6l10.7,3
	l15.5,4.4c3.7,1,5.3-4.7,1.6-5.8l-16-4.5c-5.1-1.4-10.7-3.9-16-4.5c-5-0.6-11.2,1.9-16.1,2.8l-16.5,3.2
	C244.9,158,246.5,163.8,250.2,163.1L250.2,163.1z"/>
<g class="st6">
	<path class="st7" d="M38,36h34.8c3.9,0,3.9-6,0-6H38C34.1,30,34.1,36,38,36z"/>
	<path class="st7" d="M87.2,36h86.3c3.9,0,3.9-6,0-6H87.2C83.3,30,83.3,36,87.2,36z"/>
</g>
<g class="st8">
	<path class="st2" d="M78.4,119.4v-7.3h18.7v17.1c-1.8,1.8-4.5,3.3-7.9,4.7c-3.5,1.3-7,2-10.5,2c-4.5,0-8.4-0.9-11.8-2.8
		c-3.3-1.9-5.9-4.6-7.5-8.1c-1.7-3.5-2.5-7.3-2.5-11.5c0-4.5,0.9-8.5,2.8-12c1.9-3.5,4.6-6.2,8.3-8c2.8-1.4,6.2-2.1,10.3-2.1
		c5.3,0,9.5,1.1,12.5,3.4c3,2.2,4.9,5.3,5.8,9.3l-8.6,1.6c-0.6-2.1-1.7-3.8-3.4-5c-1.7-1.2-3.8-1.8-6.3-1.8c-3.8,0-6.8,1.2-9.1,3.6
		c-2.2,2.4-3.4,6-3.4,10.7c0,5.1,1.1,8.9,3.4,11.5c2.3,2.6,5.2,3.8,8.9,3.8c1.8,0,3.6-0.4,5.5-1.1c1.8-0.7,3.4-1.6,4.7-2.6v-5.5
		H78.4z"/>
	<path class="st2" d="M105.1,92.1H121c3.6,0,6.3,0.3,8.2,0.8c2.5,0.7,4.7,2.1,6.5,4c1.8,1.9,3.2,4.2,4.1,7c0.9,2.8,1.4,6.1,1.4,10.2
		c0,3.5-0.4,6.6-1.3,9.2c-1.1,3.1-2.6,5.7-4.6,7.6c-1.5,1.5-3.5,2.6-6.1,3.4c-1.9,0.6-4.5,0.9-7.7,0.9h-16.4V92.1z M113.8,99.4v28.5
		h6.5c2.4,0,4.2-0.1,5.3-0.4c1.4-0.4,2.6-0.9,3.5-1.8c0.9-0.8,1.7-2.2,2.3-4.2c0.6-1.9,0.9-4.6,0.9-7.9c0-3.3-0.3-5.9-0.9-7.7
		c-0.6-1.8-1.4-3.2-2.5-4.2c-1.1-1-2.4-1.7-4-2c-1.2-0.3-3.6-0.4-7.1-0.4H113.8z"/>
	<path class="st2" d="M148.6,135.2v-43h13.9c5.3,0,8.7,0.2,10.3,0.6c2.5,0.6,4.5,2.1,6.2,4.2c1.7,2.2,2.5,5,2.5,8.4
		c0,2.6-0.5,4.9-1.4,6.7c-1,1.8-2.2,3.2-3.7,4.2c-1.5,1-3,1.7-4.5,2c-2.1,0.4-5.1,0.6-9,0.6h-5.7v16.2H148.6z M157.3,99.4v12.2h4.8
		c3.4,0,5.7-0.2,6.9-0.7c1.2-0.5,2.1-1.2,2.7-2.1c0.7-1,1-2.1,1-3.3c0-1.6-0.5-2.9-1.4-3.9c-0.9-1-2.1-1.7-3.5-1.9
		c-1-0.2-3.1-0.3-6.3-0.3H157.3z"/>
	<path class="st2" d="M188.7,135.2v-43H207c4.6,0,7.9,0.4,10,1.2c2.1,0.8,3.8,2.1,5,4.1c1.3,2,1.9,4.2,1.9,6.8c0,3.2-0.9,5.9-2.8,8
		c-1.9,2.1-4.7,3.4-8.5,4c1.9,1.1,3.4,2.3,4.7,3.6c1.2,1.3,2.9,3.6,4.9,7l5.3,8.4H217l-6.3-9.4c-2.2-3.3-3.8-5.5-4.6-6.3
		c-0.8-0.9-1.7-1.5-2.6-1.8c-0.9-0.3-2.4-0.5-4.4-0.5h-1.8v18H188.7z M197.4,110.4h6.4c4.2,0,6.8-0.2,7.8-0.5c1-0.4,1.8-1,2.4-1.8
		c0.6-0.9,0.9-1.9,0.9-3.2c0-1.4-0.4-2.6-1.2-3.5c-0.8-0.9-1.9-1.5-3.3-1.7c-0.7-0.1-2.8-0.1-6.3-0.1h-6.8V110.4z"/>
</g>
</svg>
