<svg xmlns="http://www.w3.org/2000/svg" xmlns:xlink="http://www.w3.org/1999/xlink" width="2800" height="2800" viewBox="0 0 2800 2800"><defs><style>.cls-1{fill:#252344;}.cls-2{fill:#a1c923;}.cls-3{fill:url(#linear-gradient);}.cls-4{fill:url(#linear-gradient-2);}.cls-5{fill:#debd1b;}.cls-6{fill:url(#linear-gradient-3);}.cls-7{fill:#7c4938;}.cls-8{fill:url(#linear-gradient-4);}.cls-9{fill:url(#linear-gradient-5);}.cls-10{fill:url(#linear-gradient-6);}.cls-11{fill:url(#linear-gradient-7);}.cls-12{fill:url(#linear-gradient-8);}.cls-13{fill:url(#linear-gradient-9);}.cls-14{fill:#145650;}.cls-15{fill:url(#linear-gradient-10);}.cls-16{fill:url(#linear-gradient-11);}.cls-17{fill:url(#linear-gradient-12);}.cls-18{fill:url(#linear-gradient-13);}.cls-19{fill:url(#linear-gradient-14);}.cls-20{fill:#1fbfaf;}.cls-21{fill:url(#linear-gradient-15);}.cls-22{fill:#f29353;}.cls-23{fill:url(#linear-gradient-16);}.cls-24{fill:url(#linear-gradient-17);}.cls-25{fill:url(#linear-gradient-18);}.cls-26{fill:url(#linear-gradient-19);}.cls-27{fill:url(#linear-gradient-20);}.cls-28{fill:#78b894;}.cls-29{fill:url(#linear-gradient-21);}.cls-30{fill:url(#linear-gradient-22);}.cls-31{fill:url(#linear-gradient-23);}.cls-32{fill:url(#linear-gradient-24);}.cls-33{fill:#7492d6;}.cls-34{fill:url(#linear-gradient-25);}.cls-35{fill:#ee4e39;}.cls-36{fill:url(#linear-gradient-26);}.cls-37{fill:url(#linear-gradient-27);}.cls-38{fill:url(#linear-gradient-28);}.cls-39{fill:url(#linear-gradient-29);}.cls-40{fill:url(#linear-gradient-30);}.cls-41{fill:url(#linear-gradient-31);}.cls-42{fill:url(#linear-gradient-32);}.cls-43{fill:#d7e3d7;}.cls-44{fill:url(#linear-gradient-33);}.cls-45{fill:url(#linear-gradient-34);}.cls-46{fill:url(#linear-gradient-35);}.cls-47{fill:#f7afb3;}.cls-48{fill:url(#linear-gradient-36);}.cls-49{fill:url(#linear-gradient-37);}.cls-50{fill:url(#linear-gradient-38);}.cls-51{fill:url(#linear-gradient-39);}.cls-52{fill:url(#linear-gradient-40);}.cls-53{fill:url(#linear-gradient-41);}.cls-54{fill:url(#linear-gradient-42);}.cls-55{fill:url(#linear-gradient-43);}.cls-56{fill:url(#linear-gradient-44);}.cls-57{fill:#c25329;}.cls-58{fill:url(#linear-gradient-45);}.cls-59{fill:url(#linear-gradient-46);}.cls-60{fill:url(#linear-gradient-47);}.cls-61{fill:url(#linear-gradient-48);}.cls-62{fill:url(#linear-gradient-49);}.cls-63{fill:url(#linear-gradient-50);}.cls-64{fill:url(#linear-gradient-51);}.cls-65{fill:url(#linear-gradient-52);}.cls-66{fill:url(#linear-gradient-53);}.cls-67{fill:url(#linear-gradient-54);}.cls-68{fill:#969240;}.cls-69{fill:url(#linear-gradient-55);}.cls-70{fill:url(#linear-gradient-56);}.cls-71{fill:url(#linear-gradient-57);}.cls-72{fill:url(#linear-gradient-58);}.cls-73{fill:url(#linear-gradient-59);}.cls-74{fill:#a28287;}.cls-75{fill:url(#linear-gradient-60);}.cls-76{fill:url(#linear-gradient-61);}.cls-77{fill:url(#linear-gradient-62);}.cls-78{fill:url(#linear-gradient-63);}.cls-79{fill:url(#linear-gradient-64);}.cls-80{fill:url(#linear-gradient-65);}.cls-81{fill:url(#linear-gradient-66);}.cls-82{fill:url(#linear-gradient-67);}.cls-83{fill:url(#linear-gradient-68);}.cls-84{fill:url(#linear-gradient-69);}.cls-85{fill:url(#linear-gradient-70);}.cls-86{fill:url(#linear-gradient-71);}.cls-87{fill:url(#linear-gradient-72);}.cls-88{fill:url(#linear-gradient-73);}.cls-89{fill:url(#linear-gradient-74);}.cls-90{fill:url(#linear-gradient-75);}.cls-91{fill:#f16eaa;}.cls-92{fill:url(#linear-gradient-76);}.cls-93{fill:url(#linear-gradient-77);}.cls-94{fill:url(#linear-gradient-78);}.cls-95{fill:url(#linear-gradient-79);}.cls-96{fill:url(#linear-gradient-80);}.cls-97{fill:url(#linear-gradient-81);}.cls-98{fill:url(#linear-gradient-82);}.cls-99{fill:url(#linear-gradient-83);}.cls-100{fill:url(#linear-gradient-84);}.cls-101{fill:url(#linear-gradient-85);}.cls-102{fill:#f19353;}.cls-103{fill:url(#linear-gradient-86);}</style><linearGradient id="linear-gradient" x1="1599.4042" y1="819.0506" x2="1537.107" y2="1157.6223" gradientUnits="userSpaceOnUse"><stop offset="0" stop-color="#004f80" stop-opacity="0"/><stop offset="1" stop-color="#00003a"/></linearGradient><linearGradient id="linear-gradient-2" x1="1894.1976" y1="272.971" x2="1663.066" y2="601.6112" gradientUnits="userSpaceOnUse"><stop offset="0" stop-color="#fff"/><stop offset="0.3892" stop-color="#ffeddb"/><stop offset="1" stop-color="#fff" stop-opacity="0"/></linearGradient><linearGradient id="linear-gradient-3" x1="2518.9086" y1="1288.8484" x2="2259.303" y2="1210.8388" xlink:href="#linear-gradient"/><linearGradient id="linear-gradient-4" x1="1184.5318" y1="847.3338" x2="1442.8586" y2="1202.8528" xlink:href="#linear-gradient-2"/><linearGradient id="linear-gradient-5" x1="1638.3724" y1="2128.2871" x2="1962.3466" y2="1609.9285" xlink:href="#linear-gradient-2"/><linearGradient id="linear-gradient-6" x1="1989.9746" y1="1260.118" x2="1938.8207" y2="1047.8297" xlink:href="#linear-gradient"/><linearGradient id="linear-gradient-7" x1="1382.3478" y1="2418.1459" x2="1382.3478" y2="1410.9461" xlink:href="#linear-gradient"/><linearGradient id="linear-gradient-8" x1="4254.3293" y1="1748.4363" x2="4254.3293" y2="1775.0699" gradientTransform="matrix(-1, 0, 0, 1, 5964.466, 0)" xlink:href="#linear-gradient"/><linearGradient id="linear-gradient-9" x1="4329.5356" y1="1748.4363" x2="4329.5356" y2="1775.0699" gradientTransform="matrix(-1, 0, 0, 1, 5964.466, 0)" xlink:href="#linear-gradient"/><linearGradient id="linear-gradient-10" x1="4423.692" y1="2066.052" x2="4544.6628" y2="2351.4491" gradientTransform="matrix(-1, 0, 0, 1, 5964.466, 0)" xlink:href="#linear-gradient"/><linearGradient id="linear-gradient-11" x1="4292.4497" y1="1835.9223" x2="4292.4497" y2="1811.6736" gradientTransform="matrix(-1, 0, 0, 1, 5964.466, 0)" xlink:href="#linear-gradient"/><linearGradient id="linear-gradient-12" x1="4170.7589" y1="1724.169" x2="4174.8695" y2="1773.7905" gradientTransform="matrix(-1, 0, 0, 1, 5964.466, 0)" xlink:href="#linear-gradient-2"/><linearGradient id="linear-gradient-13" x1="323.1641" y1="1879.9076" x2="323.1641" y2="1896.374" xlink:href="#linear-gradient"/><linearGradient id="linear-gradient-14" x1="369.6607" y1="1879.9076" x2="369.6607" y2="1896.374" xlink:href="#linear-gradient"/><linearGradient id="linear-gradient-15" x1="427.8733" y1="2076.2749" x2="502.664" y2="2252.7229" xlink:href="#linear-gradient"/><linearGradient id="linear-gradient-16" x1="346.7322" y1="1933.9962" x2="346.7322" y2="1919.0044" xlink:href="#linear-gradient"/><linearGradient id="linear-gradient-17" x1="271.4963" y1="1864.9043" x2="274.0377" y2="1895.583" xlink:href="#linear-gradient-2"/><linearGradient id="linear-gradient-18" x1="1230.9965" y1="1807.7506" x2="1230.9965" y2="1829.3653" xlink:href="#linear-gradient"/><linearGradient id="linear-gradient-19" x1="1292.0309" y1="1807.7506" x2="1292.0309" y2="1829.3653" xlink:href="#linear-gradient"/><linearGradient id="linear-gradient-20" x1="1368.4444" y1="2065.5145" x2="1466.6194" y2="2297.1312" xlink:href="#linear-gradient"/><linearGradient id="linear-gradient-21" x1="1261.9335" y1="1878.7507" x2="1261.9335" y2="1859.0714" xlink:href="#linear-gradient"/><linearGradient id="linear-gradient-22" x1="1163.1742" y1="1788.0563" x2="1166.5102" y2="1828.3271" xlink:href="#linear-gradient-2"/><linearGradient id="linear-gradient-23" x1="655.3388" y1="1626.342" x2="655.3388" y2="1648.3615" xlink:href="#linear-gradient"/><linearGradient id="linear-gradient-24" x1="717.5158" y1="1626.342" x2="717.5158" y2="1648.3615" xlink:href="#linear-gradient"/><linearGradient id="linear-gradient-25" x1="795.36" y1="2064.6688" x2="895.373" y2="2300.6218" xlink:href="#linear-gradient"/><linearGradient id="linear-gradient-26" x1="686.855" y1="1698.6714" x2="686.855" y2="1678.6237" xlink:href="#linear-gradient"/><linearGradient id="linear-gradient-27" x1="586.2466" y1="1606.279" x2="589.6451" y2="1647.3037" xlink:href="#linear-gradient-2"/><linearGradient id="linear-gradient-28" x1="806.5918" y1="1894.7134" x2="806.5918" y2="1918.0067" xlink:href="#linear-gradient"/><linearGradient id="linear-gradient-29" x1="872.3657" y1="1894.7134" x2="872.3657" y2="1918.0067" xlink:href="#linear-gradient"/><linearGradient id="linear-gradient-30" x1="954.7131" y1="2062.0065" x2="1060.5117" y2="2311.6091" xlink:href="#linear-gradient"/><linearGradient id="linear-gradient-31" x1="839.9312" y1="1971.227" x2="839.9312" y2="1950.0196" xlink:href="#linear-gradient"/><linearGradient id="linear-gradient-32" x1="733.5027" y1="1873.4898" x2="737.0978" y2="1916.8878" xlink:href="#linear-gradient-2"/><linearGradient id="linear-gradient-33" x1="403.0273" y1="2079.6773" x2="403.0273" y2="2098.6602" xlink:href="#linear-gradient"/><linearGradient id="linear-gradient-34" x1="456.6299" y1="2079.6773" x2="456.6299" y2="2098.6602" xlink:href="#linear-gradient"/><linearGradient id="linear-gradient-35" x1="523.7391" y1="2216.0132" x2="609.9601" y2="2419.4276" xlink:href="#linear-gradient"/><linearGradient id="linear-gradient-36" x1="430.1973" y1="2142.0322" x2="430.1973" y2="2124.7492" xlink:href="#linear-gradient"/><linearGradient id="linear-gradient-37" x1="343.4631" y1="2062.381" x2="346.393" y2="2097.7483" xlink:href="#linear-gradient-2"/><linearGradient id="linear-gradient-38" x1="685.7845" y1="2037.517" x2="685.7845" y2="2059.6868" xlink:href="#linear-gradient"/><linearGradient id="linear-gradient-39" x1="748.386" y1="2037.517" x2="748.386" y2="2059.6868" xlink:href="#linear-gradient"/><linearGradient id="linear-gradient-40" x1="826.7616" y1="2301.8995" x2="927.4574" y2="2539.4632" xlink:href="#linear-gradient"/><linearGradient id="linear-gradient-41" x1="717.5159" y1="2110.3402" x2="717.5159" y2="2090.1556" xlink:href="#linear-gradient"/><linearGradient id="linear-gradient-42" x1="616.2207" y1="2017.3171" x2="619.6424" y2="2058.6219" xlink:href="#linear-gradient-2"/><linearGradient id="linear-gradient-43" x1="1042.0589" y1="1937.6748" x2="1042.0589" y2="1953.8227" xlink:href="#linear-gradient"/><linearGradient id="linear-gradient-44" x1="1087.6561" y1="1937.6748" x2="1087.6561" y2="1953.8227" xlink:href="#linear-gradient"/><linearGradient id="linear-gradient-45" x1="1144.7429" y1="2328.996" x2="1218.087" y2="2502.0312" xlink:href="#linear-gradient"/><linearGradient id="linear-gradient-46" x1="1065.1712" y1="1990.7172" x2="1065.1712" y2="1976.0154" xlink:href="#linear-gradient"/><linearGradient id="linear-gradient-47" x1="991.3904" y1="1922.9616" x2="993.8827" y2="1953.047" xlink:href="#linear-gradient-2"/><linearGradient id="linear-gradient-48" x1="3549.9919" y1="1997.1787" x2="3549.9919" y2="2016.9605" gradientTransform="matrix(-1, 0, 0, 1, 5964.466, 0)" xlink:href="#linear-gradient"/><linearGradient id="linear-gradient-49" x1="3605.8506" y1="1997.1787" x2="3605.8506" y2="2016.9605" gradientTransform="matrix(-1, 0, 0, 1, 5964.466, 0)" xlink:href="#linear-gradient"/><linearGradient id="linear-gradient-50" x1="3675.7843" y1="2233.0845" x2="3765.6341" y2="2445.0602" gradientTransform="matrix(-1, 0, 0, 1, 5964.466, 0)" xlink:href="#linear-gradient"/><linearGradient id="linear-gradient-51" x1="3578.3055" y1="2062.158" x2="3578.3055" y2="2044.1476" gradientTransform="matrix(-1, 0, 0, 1, 5964.466, 0)" xlink:href="#linear-gradient"/><linearGradient id="linear-gradient-52" x1="3487.9209" y1="1979.1544" x2="3490.974" y2="2016.0103" gradientTransform="matrix(-1, 0, 0, 1, 5964.466, 0)" xlink:href="#linear-gradient-2"/><linearGradient id="linear-gradient-53" x1="4640.616" y1="2077.0888" x2="4640.616" y2="2103.0557" gradientTransform="matrix(-1, 0, 0, 1, 5964.466, 0)" xlink:href="#linear-gradient"/><linearGradient id="linear-gradient-54" x1="4713.9396" y1="2077.0888" x2="4713.9396" y2="2103.0557" gradientTransform="matrix(-1, 0, 0, 1, 5964.466, 0)" xlink:href="#linear-gradient"/><linearGradient id="linear-gradient-55" x1="4805.739" y1="2386.7534" x2="4923.6814" y2="2665.006" gradientTransform="matrix(-1, 0, 0, 1, 5964.466, 0)" xlink:href="#linear-gradient"/><linearGradient id="linear-gradient-56" x1="4677.7822" y1="2162.3847" x2="4677.7822" y2="2138.7431" gradientTransform="matrix(-1, 0, 0, 1, 5964.466, 0)" xlink:href="#linear-gradient"/><linearGradient id="linear-gradient-57" x1="4559.1377" y1="2053.4291" x2="4563.1454" y2="2101.8084" gradientTransform="matrix(-1, 0, 0, 1, 5964.466, 0)" xlink:href="#linear-gradient-2"/><linearGradient id="linear-gradient-58" x1="3949.0498" y1="1859.1537" x2="3949.0498" y2="1885.6068" gradientTransform="matrix(-1, 0, 0, 1, 5964.466, 0)" xlink:href="#linear-gradient"/><linearGradient id="linear-gradient-59" x1="4023.7462" y1="1859.1537" x2="4023.7462" y2="1885.6068" gradientTransform="matrix(-1, 0, 0, 1, 5964.466, 0)" xlink:href="#linear-gradient"/><linearGradient id="linear-gradient-60" x1="4117.2643" y1="2385.7374" x2="4237.4148" y2="2669.1994" gradientTransform="matrix(-1, 0, 0, 1, 5964.466, 0)" xlink:href="#linear-gradient"/><linearGradient id="linear-gradient-61" x1="3986.9118" y1="1946.0466" x2="3986.9118" y2="1921.9623" gradientTransform="matrix(-1, 0, 0, 1, 5964.466, 0)" xlink:href="#linear-gradient"/><linearGradient id="linear-gradient-62" x1="3866.046" y1="1835.051" x2="3870.1288" y2="1884.3361" gradientTransform="matrix(-1, 0, 0, 1, 5964.466, 0)" xlink:href="#linear-gradient-2"/><linearGradient id="linear-gradient-63" x1="4130.7576" y1="2181.5616" x2="4130.7576" y2="2209.5449" gradientTransform="matrix(-1, 0, 0, 1, 5964.466, 0)" xlink:href="#linear-gradient"/><linearGradient id="linear-gradient-64" x1="4209.775" y1="2181.5616" x2="4209.775" y2="2209.5449" gradientTransform="matrix(-1, 0, 0, 1, 5964.466, 0)" xlink:href="#linear-gradient"/><linearGradient id="linear-gradient-65" x1="4308.703" y1="2382.539" x2="4435.8042" y2="2682.399" gradientTransform="matrix(-1, 0, 0, 1, 5964.466, 0)" xlink:href="#linear-gradient"/><linearGradient id="linear-gradient-66" x1="4170.8098" y1="2273.4811" x2="4170.8098" y2="2248.0036" gradientTransform="matrix(-1, 0, 0, 1, 5964.466, 0)" xlink:href="#linear-gradient"/><linearGradient id="linear-gradient-67" x1="4042.9521" y1="2156.0646" x2="4047.2711" y2="2208.2007" gradientTransform="matrix(-1, 0, 0, 1, 5964.466, 0)" xlink:href="#linear-gradient-2"/><linearGradient id="linear-gradient-68" x1="3764.0622" y1="2227.1777" x2="3764.0622" y2="2249.9828" gradientTransform="matrix(-1, 0, 0, 1, 5964.466, 0)" xlink:href="#linear-gradient"/><linearGradient id="linear-gradient-69" x1="3828.4577" y1="2227.1777" x2="3828.4577" y2="2249.9828" gradientTransform="matrix(-1, 0, 0, 1, 5964.466, 0)" xlink:href="#linear-gradient"/><linearGradient id="linear-gradient-70" x1="3909.0793" y1="2390.9648" x2="4012.6608" y2="2635.3367" gradientTransform="matrix(-1, 0, 0, 1, 5964.466, 0)" xlink:href="#linear-gradient"/><linearGradient id="linear-gradient-71" x1="3796.7029" y1="2302.0878" x2="3796.7029" y2="2281.3248" gradientTransform="matrix(-1, 0, 0, 1, 5964.466, 0)" xlink:href="#linear-gradient"/><linearGradient id="linear-gradient-72" x1="3692.5048" y1="2206.3988" x2="3696.0246" y2="2248.8873" gradientTransform="matrix(-1, 0, 0, 1, 5964.466, 0)" xlink:href="#linear-gradient-2"/><linearGradient id="linear-gradient-73" x1="4400.9363" y1="2033.1383" x2="4400.9363" y2="2052.5375" gradientTransform="matrix(-1, 0, 0, 1, 5964.466, 0)" xlink:href="#linear-gradient"/><linearGradient id="linear-gradient-74" x1="4455.7146" y1="2033.1383" x2="4455.7146" y2="2052.5375" gradientTransform="matrix(-1, 0, 0, 1, 5964.466, 0)" xlink:href="#linear-gradient"/><linearGradient id="linear-gradient-75" x1="4520.8766" y1="2470.9068" x2="4592.5015" y2="2639.8857" gradientTransform="matrix(-1, 0, 0, 1, 5964.466, 0)" xlink:href="#linear-gradient"/><linearGradient id="linear-gradient-76" x1="4428.7022" y1="2096.8608" x2="4428.7022" y2="2079.1987" gradientTransform="matrix(-1, 0, 0, 1, 5964.466, 0)" xlink:href="#linear-gradient"/><linearGradient id="linear-gradient-77" x1="4340.0658" y1="2015.4627" x2="4343.0599" y2="2051.6057" gradientTransform="matrix(-1, 0, 0, 1, 5964.466, 0)" xlink:href="#linear-gradient-2"/><linearGradient id="linear-gradient-78" x1="1983.2274" y1="1153.7741" x2="1930.3864" y2="934.4838" xlink:href="#linear-gradient"/><linearGradient id="linear-gradient-79" x1="1074.5135" y1="1712.6791" x2="1302.148" y2="1331.5831" xlink:href="#linear-gradient"/><linearGradient id="linear-gradient-80" x1="1042.5246" y1="1752.6482" x2="1096.6698" y2="1662.0007" xlink:href="#linear-gradient"/><linearGradient id="linear-gradient-81" x1="1577.23" y1="1296.4786" x2="1517.5505" y2="1274.3119" xlink:href="#linear-gradient"/><linearGradient id="linear-gradient-82" x1="2114.6969" y1="1477.4561" x2="2092.5302" y2="1456.9946" xlink:href="#linear-gradient"/><linearGradient id="linear-gradient-83" x1="1896.4135" y1="555.3875" x2="1868.4249" y2="627.6161" xlink:href="#linear-gradient-2"/><linearGradient id="linear-gradient-84" x1="3611.5942" y1="1099.9331" x2="3583.3833" y2="1116.1989" gradientTransform="matrix(-1, 0, 0, 1, 5471.2615, -412.8525)" gradientUnits="userSpaceOnUse"><stop offset="0" stop-color="#00003a"/><stop offset="0.9986" stop-color="#004f80" stop-opacity="0"/></linearGradient><linearGradient id="linear-gradient-85" x1="1537.151" y1="890.2357" x2="1793.5626" y2="1074.4187" xlink:href="#linear-gradient-2"/><linearGradient id="linear-gradient-86" x1="1949.181" y1="775.5703" x2="1904.0381" y2="690.7016" xlink:href="#linear-gradient"/></defs><g id="artwork"><path class="cls-1" d="M1802.7563,630.8107a64.5251,64.5251,0,0,0-21.959,11.5185c-2.4858,1.998-4.888,4.2711-6.1577,7.1967a11.67,11.67,0,0,0,12.8115,16.1251c-2.7764,1.692-5.6289,3.469-7.4806,6.1414s-2.441,6.5023-.5164,9.1228c2.5943,3.5322,7.8953,3.1338,12.2109,2.3707-3.451,5.383,1.285,13.08,7.4965,14.5974s12.6609-1.3579,17.9206-4.994a61.5936,61.5936,0,0,0,25.9509-44.6728c.5-5.76-.0327-12.11-3.9382-16.3727"/><path class="cls-2" d="M1768.06,941.2055c-96.8641-29.1775-198.2881-65.95-260.4588-145.7549-33.6739-43.2252-53.0816-96.1967-63.2833-150.0323s-11.6506-108.9041-12.5455-163.6905c-.3264-19.9818-.0365-41.6836,12.2477-57.4468,11.2326-14.4139,30.1216-20.509,48.2135-23.0815,22.5054-3.2,47.6941-1.3219,64.4308,14.06,16.8,15.44,20.6859,40.05,23.59,62.6817,6.0017,46.77,9.8977,94.3021,18.1421,140.7689,18.6307,105.0033,131.2493,149.7375,224.7714,165.7666,5.6914.9754,12.0426,1.7059,16.7962-1.5723"/><path class="cls-3" d="M1768.06,941.2055c-96.8641-29.1775-198.2881-65.95-260.4588-145.7549-33.6739-43.2252-53.0816-96.1967-63.2833-150.0323s-11.6506-108.9041-12.5455-163.6905c-.3264-19.9818-.0365-41.6836,12.2477-57.4468,11.2326-14.4139,30.1216-20.509,48.2135-23.0815,22.5054-3.2,47.6941-1.3219,64.4308,14.06,16.8,15.44,20.6859,40.05,23.59,62.6817,6.0017,46.77,9.8977,94.3021,18.1421,140.7689,18.6307,105.0033,131.2493,149.7375,224.7714,165.7666,5.6914.9754,12.0426,1.7059,16.7962-1.5723"/><path class="cls-4" d="M1768.06,941.2055c-96.8641-29.1775-198.2881-65.95-260.4588-145.7549-33.6739-43.2252-53.0816-96.1967-63.2833-150.0323s-11.6506-108.9041-12.5455-163.6905c-.3264-19.9818-.0365-41.6836,12.2477-57.4468,11.2326-14.4139,30.1216-20.509,48.2135-23.0815,22.5054-3.2,47.6941-1.3219,64.4308,14.06,16.8,15.44,20.6859,40.05,23.59,62.6817,6.0017,46.77,9.8977,94.3021,18.1421,140.7689,18.6307,105.0033,131.2493,149.7375,224.7714,165.7666,5.6914.9754,12.0426,1.7059,16.7962-1.5723"/><path class="cls-5" d="M2489.5155,1362.49l56.134-54.4861c4.0069-3.8893,8.3619-7.9627,13.8616-8.9293,3.9583-.6957,7.9965.3275,11.8718,1.3925a469.6719,469.6719,0,0,1,47.4024,15.7832c7.0805-16.4608,2.6346-35.61-4.4919-52.0513-21.2934-49.1244-66.8125-87.0362-118.978-99.094-3.92-.9061-8.0468-1.67-11.9248-.5993-4.2445,1.1722-7.5838,4.3654-10.7311,7.445L2357.6041,1284.534a20.0661,20.0661,0,0,0-3.0724,24.8342c11.5781,18.8682,24.3828,37.0851,41.9856,50.2624,21.8653,16.3683,53.6877,39.276,92.9982,2.8592"/><path class="cls-6" d="M2489.5155,1362.49l56.134-54.4861c4.0069-3.8893,8.3619-7.9627,13.8616-8.9293,3.9583-.6957,7.9965.3275,11.8718,1.3925a469.6719,469.6719,0,0,1,47.4024,15.7832c7.0805-16.4608,2.6346-35.61-4.4919-52.0513-21.2934-49.1244-66.8125-87.0362-118.978-99.094-3.92-.9061-8.0468-1.67-11.9248-.5993-4.2445,1.1722-7.5838,4.3654-10.7311,7.445L2357.6041,1284.534a20.0661,20.0661,0,0,0-3.0724,24.8342c11.5781,18.8682,24.3828,37.0851,41.9856,50.2624,21.8653,16.3683,53.6877,39.276,92.9982,2.8592"/><path class="cls-7" d="M1873.5736,1137.73a1042.4134,1042.4134,0,0,0-346.3526-71.4386c-32.82-1.0684-66.5382-.4267-97.1462,11.4663-53.011,20.5977-87.6749,70.7985-118.6733,118.48Q1191.9337,1380.0019,1079.66,1568.312c-7.741,12.9837-15.6975,28.507-9.9532,42.4893,4.2949,10.4543,15.0568,16.5785,25.3743,21.1926a248.0056,248.0056,0,0,0,84.8768,21.027c20.3583,1.3284,40.8383,17.2812,60.2271,10.9331,48.62-15.9184,81.4706-77.6951,110.6852-119.6925l148.7711-213.8662c4.0919-5.8824,8.5159-12.0444,15.0862-14.904,9.9687-4.3388,21.3364.2068,31.3628,4.4105a532.7831,532.7831,0,0,0,244.5682,39.7809c76.2256-5.691,154.9275-30.45,205.8647-87.4425s64.1373-151.4161,14.5044-209.5478"/><path class="cls-8" d="M1873.5736,1137.73a1042.4134,1042.4134,0,0,0-346.3526-71.4386c-32.82-1.0684-66.5382-.4267-97.1462,11.4663-53.011,20.5977-87.6749,70.7985-118.6733,118.48Q1191.9337,1380.0019,1079.66,1568.312c-7.741,12.9837-15.6975,28.507-9.9532,42.4893,4.2949,10.4543,15.0568,16.5785,25.3743,21.1926a248.0056,248.0056,0,0,0,84.8768,21.027c20.3583,1.3284,40.8383,17.2812,60.2271,10.9331,48.62-15.9184,81.4706-77.6951,110.6852-119.6925l148.7711-213.8662c4.0919-5.8824,8.5159-12.0444,15.0862-14.904,9.9687-4.3388,21.3364.2068,31.3628,4.4105a532.7831,532.7831,0,0,0,244.5682,39.7809c76.2256-5.691,154.9275-30.45,205.8647-87.4425s64.1373-151.4161,14.5044-209.5478"/><path class="cls-7" d="M1918.3337,1081.0112c-22.2368,89.69-44.5224,179.659-56.9453,271.3452-14.92,110.1155-39.2981,320.6993,83.5121,383.1271,89.3733,45.431,190.6344-8.5663,263.4082-61.2854,67.5687-48.9487,180.4173-168.2193,231.74-234.3056,49.069-63.1836,53.3285-83.1676,21.7928-165.4063-30.079-78.44-93.2042-37.7141-137.3676-.0684-79.44,67.7156-160.1533,134.1639-245.3225,194.6081,78.8068-311.1377,65.6157-315.1915-9.1644-437.9557"/><path class="cls-9" d="M1918.3337,1081.0112c-22.2368,89.69-44.5224,179.659-56.9453,271.3452-14.92,110.1155-39.2981,320.6993,83.5121,383.1271,89.3733,45.431,190.6344-8.5663,263.4082-61.2854,67.5687-48.9487,180.4173-168.2193,231.74-234.3056,49.069-63.1836,53.3285-83.1676,21.7928-165.4063-30.079-78.44-93.2042-37.7141-137.3676-.0684-79.44,67.7156-160.1533,134.1639-245.3225,194.6081,78.8068-311.1377,65.6157-315.1915-9.1644-437.9557"/><path class="cls-10" d="M1786.5132,1095.0316c7.0592,43.5711,37.19,81.0959,74.4979,104.6835s81.25,34.64,125.0249,40.3017c34.3629,4.4449,69.6412,5.7387,103.3418-2.3134,15.1342-3.616,31.38-10.503,37.4643-24.8242,2.178-5.1261,2.82-10.7591,3.248-16.3122a147.5533,147.5533,0,0,0-.6536-32.8173c-5.3947-36.6261-17.18-81.8361-51.6619-95.3113"/><rect class="cls-11" x="188.7833" y="2087.2418" width="2387.129" height="407.9975"/><path class="cls-1" d="M1703.81,1770.4441c17.0876,1.3233,35.285-5.4726,45.0645-19.5473s8.9987-35.4057-3.6778-46.94c-10.0283-9.1247-25.5964-10.7417-38.1441-5.6055s-22.0861,16.2071-27.31,28.7187-6.47,26.3779-5.7759,39.9183a19.6952,19.6952,0,0,0,.85,5.5248"/><path class="cls-12" d="M1703.8105,1770.4441l-28.9929,2.0691a19.6951,19.6951,0,0,1-.85-5.5253,107.961,107.961,0,0,1,1.3181-24.4105c26.6857.3183,51.2761,4.5019,71.1928,11.3984C1736.31,1765.9461,1719.5941,1771.6663,1703.8105,1770.4441Z"/><path class="cls-1" d="M1674.8715,1763.6688c-6.242-15.9491-13.1933-31.9581-24.32-44.9788s-27.1294-22.832-44.2565-22.793a28,28,0,0,0-11.5093,2.1724c-8.2029,3.7162-13.071,12.7191-13.9983,21.6766-1.8455,17.8279,10.09,34.9629,25.628,43.8964s34.0285,11.07,51.9478,11.4457"/><path class="cls-13" d="M1665.78,1742.6121c3.3667,6.8561,6.3128,13.9549,9.092,21.0568l-16.5084,11.4189c-17.9189-.3753-36.41-2.5122-51.9473-11.4455a56.0864,56.0864,0,0,1-11.4266-8.74C1614.6221,1747.7258,1639.0784,1743.2209,1665.78,1742.6121Z"/><rect class="cls-14" x="1416.5407" y="1814.2068" width="510.9511" height="307.5102" transform="translate(3344.0325 3935.9238) rotate(-180)"/><path class="cls-15" d="M1416.5407,1937.3948a267.9981,267.9981,0,0,1,53.3191-5.3553c124.8641,0,226.0863,84.9216,226.0863,189.6779H1416.5407Z"/><rect class="cls-5" x="1398.5107" y="1762.7547" width="547.0111" height="51.452" transform="translate(3344.0325 3576.9615) rotate(-180)"/><rect class="cls-1" x="1643.8289" y="1762.7546" width="56.3747" height="51.4522" transform="translate(3344.0325 3576.9614) rotate(-180)"/><rect class="cls-1" x="1646.2901" y="1814.2068" width="51.4522" height="307.5105" transform="translate(3344.0325 3935.9242) rotate(-180)"/><rect class="cls-16" x="1416.5407" y="1814.2068" width="510.951" height="35.2342"/><path class="cls-17" d="M1945.5221,1762.7546h0a24.5942,24.5942,0,0,1-20.67,24.3362c-30.5868,4.8368-69.571,7.7372-112.0457,7.7372-93.8187,0-170.6227-14.1418-177.3925-32.0734Z"/><path class="cls-14" d="M327.0754,1893.514c-10.5644.8182-21.815-3.3834-27.8613-12.0851s-5.5634-21.89,2.2739-29.021c6.2-5.6413,15.8251-6.6411,23.5827-3.4656s13.6548,10.02,16.8843,17.7555,4,16.3082,3.571,24.68a12.18,12.18,0,0,1-.5257,3.4157"/><path class="cls-18" d="M327.0753,1893.514,345,1894.7933a12.18,12.18,0,0,0,.5257-3.416,66.7524,66.7524,0,0,0-.8149-15.0919c-16.4986.1967-31.7017,2.7833-44.0153,7.0471C306.9825,1890.7331,317.317,1894.27,327.0753,1893.514Z"/><path class="cls-14" d="M344.9669,1889.3252c3.8592-9.8606,8.1569-19.7582,15.0358-27.8083s16.773-14.1161,27.3618-14.0919a17.3109,17.3109,0,0,1,7.1157,1.3431c5.0715,2.2975,8.0812,7.8636,8.6545,13.4017,1.141,11.0221-6.2381,21.6159-15.8446,27.1391s-21.0383,6.8441-32.1169,7.0763"/><path class="cls-19" d="M350.5881,1876.3068c-2.0816,4.2388-3.9029,8.6277-5.6212,13.0185l10.2063,7.06c11.0785-.232,22.51-1.5531,32.1167-7.0762a34.6736,34.6736,0,0,0,7.0645-5.4034C382.2164,1879.4684,367.0962,1876.6832,350.5881,1876.3068Z"/><rect class="cls-20" x="188.7833" y="1920.5705" width="315.8977" height="190.1195"/><path class="cls-21" d="M504.6811,1996.7321a165.691,165.691,0,0,0-32.9648-3.311c-77.1977,0-139.7788,52.5032-139.7788,117.2692H504.6811Z"/><rect class="cls-22" x="177.6362" y="1888.7601" width="338.192" height="31.8104"/><rect class="cls-14" x="329.3053" y="1888.76" width="34.8539" height="31.8106"/><rect class="cls-14" x="330.8269" y="1920.5706" width="31.8106" height="190.1197"/><rect class="cls-23" x="188.7833" y="1920.5706" width="315.8977" height="21.7837"/><path class="cls-24" d="M177.6361,1888.76h0a15.2053,15.2053,0,0,0,12.7793,15.0459c18.91,2.99,43.0126,4.7836,69.2728,4.7836,58.0038,0,105.4882-8.7432,109.6736-19.83Z"/><path class="cls-5" d="M1236.1308,1825.6112c-13.8676,1.0739-28.6358-4.4413-36.5724-15.8638s-7.303-28.7338,2.9847-38.0946c8.1385-7.4052,20.773-8.7176,30.9562-4.5492s17.9241,13.153,22.1634,23.3069,5.2511,21.4072,4.6874,32.3961a15.9842,15.9842,0,0,1-.69,4.4836"/><path class="cls-25" d="M1236.1306,1825.6112l23.53,1.6792a15.9878,15.9878,0,0,0,.69-4.4841,87.621,87.621,0,0,0-1.07-19.8105c-21.657.2583-41.6136,3.6535-57.7772,9.2505C1209.7556,1821.9608,1223.3213,1826.6031,1236.1306,1825.6112Z"/><path class="cls-5" d="M1259.6163,1820.1127c5.0658-12.9437,10.7072-25.9359,19.737-36.5029s22.0171-18.53,35.9167-18.498a22.7245,22.7245,0,0,1,9.3405,1.7631c6.6572,3.0159,10.6079,10.3223,11.3605,17.5919,1.4978,14.4683-8.1886,28.3744-20.7987,35.6244s-27.6161,8.9841-42.1586,9.2889"/><path class="cls-26" d="M1266.995,1803.0239c-2.7324,5.5641-5.1232,11.3253-7.3787,17.0889l13.3975,9.267c14.5422-.3045,29.5485-2.0387,42.1583-9.2886a45.5129,45.5129,0,0,0,9.2733-7.0929C1308.5123,1807.174,1288.6645,1803.518,1266.995,1803.0239Z"/><rect class="cls-7" x="1054.6" y="1861.1272" width="414.6671" height="249.5628"/><path class="cls-27" d="M1469.267,1961.1016a217.4984,217.4984,0,0,0-43.2715-4.3461c-101.3346,0-183.4825,68.9189-183.4825,153.9348h226.754Z"/><rect class="cls-28" x="1039.9676" y="1819.3709" width="443.9319" height="41.7564"/><rect class="cls-5" x="1239.0578" y="1819.3707" width="45.7514" height="41.7565"/><rect class="cls-5" x="1241.0553" y="1861.1273" width="41.7565" height="249.563"/><rect class="cls-29" x="1054.6" y="1861.1273" width="414.667" height="28.5946"/><path class="cls-30" d="M1039.9674,1819.3707v0a19.96,19.96,0,0,0,16.7749,19.75c24.8231,3.9253,56.461,6.2792,90.9318,6.2792,76.1394,0,138.47-11.4769,143.9645-26.03Z"/><path class="cls-2" d="M660.5692,1644.537c-14.1272,1.0941-29.172-4.5244-37.2572-16.1607s-7.44-29.2718,3.0407-38.8079c8.2908-7.5439,21.1619-8.8808,31.5357-4.6344s18.26,13.3993,22.5783,23.7433,5.35,21.808,4.7752,33.0026a16.2812,16.2812,0,0,1-.703,4.5676"/><path class="cls-31" d="M660.5689,1644.5371l23.97,1.7106a16.281,16.281,0,0,0,.7031-4.568,89.26,89.26,0,0,0-1.09-20.1815c-22.0625.2631-42.3927,3.7219-58.8589,9.4237C633.7,1640.8183,647.52,1645.5475,660.5689,1644.5371Z"/><path class="cls-2" d="M684.4944,1638.9356c5.1606-13.186,10.9076-26.4215,20.1064-37.1864s22.4294-18.8765,36.5892-18.8442a23.1505,23.1505,0,0,1,9.5154,1.796c6.7818,3.0724,10.8065,10.5156,11.5731,17.9213,1.5259,14.7392-8.3418,28.9056-21.188,36.2914s-28.1332,9.1523-42.9479,9.4628"/><path class="cls-32" d="M692.0112,1621.5269c-2.7835,5.6683-5.2192,11.5372-7.5169,17.4088l13.6483,9.44c14.8146-.31,30.1018-2.0769,42.9477-9.4625a46.372,46.372,0,0,0,9.4469-7.2257C734.3058,1625.7547,714.0864,1622.03,692.0112,1621.5269Z"/><rect class="cls-33" x="475.6397" y="1680.718" width="422.4305" height="429.972"/><path class="cls-34" d="M898.07,1958.301a221.5644,221.5644,0,0,0-44.0817-4.4275c-103.2318,0-186.9176,70.2092-186.9176,156.8168H898.07Z"/><rect class="cls-35" x="460.7333" y="1638.1799" width="452.2433" height="42.5381"/><rect class="cls-2" x="663.551" y="1638.1797" width="46.608" height="42.5383"/><rect class="cls-2" x="665.5858" y="1680.7181" width="42.5383" height="429.9722"/><rect class="cls-36" x="475.6397" y="1680.7181" width="422.4305" height="29.13"/><path class="cls-37" d="M460.7331,1638.18v0a20.3333,20.3333,0,0,0,17.089,20.12c25.2878,3.9988,57.5181,6.3968,92.6342,6.3968,77.5649,0,141.0629-11.6918,146.66-26.5169Z"/><path class="cls-20" d="M812.1248,1913.961c-14.9445,1.1574-30.86-4.7861-39.4125-17.0956s-7.87-30.9652,3.2166-41.0529c8.77-7.98,22.3861-9.3945,33.36-4.9025s19.316,14.1745,23.8845,25.1168,5.6589,23.07,5.0514,34.9118a17.2247,17.2247,0,0,1-.7436,4.8318"/><path class="cls-38" d="M812.1245,1913.961l25.3567,1.81a17.2288,17.2288,0,0,0,.7437-4.8323,94.4244,94.4244,0,0,0-1.1528-21.3489c-23.3388.2784-44.8451,3.9373-62.2639,9.9688C783.7014,1910.0272,798.3205,1915.03,812.1245,1913.961Z"/><path class="cls-20" d="M837.434,1908.0355c5.4592-13.9487,11.5386-27.95,21.27-39.3375s23.7269-19.9685,38.7059-19.9344a24.49,24.49,0,0,1,10.0658,1.9c7.1741,3.25,11.4316,11.1238,12.2426,18.9579,1.6141,15.592-8.8244,30.5779-22.4137,38.3909s-29.7607,9.6817-45.4325,10.01"/><path class="cls-39" d="M845.3857,1889.62c-2.9446,5.9962-5.5211,12.2047-7.9517,18.4159l14.4378,9.9867c15.6716-.3282,31.8432-2.1971,45.4322-10.01a49.0524,49.0524,0,0,0,9.9934-7.6437C890.127,1894.0921,868.7379,1890.1522,845.3857,1889.62Z"/><rect class="cls-2" x="616.4973" y="1952.235" width="446.8677" height="158.455"/><path class="cls-40" d="M1063.365,1949.4855a234.3819,234.3819,0,0,0-46.6318-4.6837c-109.2036,0-197.7306,74.2707-197.7306,165.8885H1063.365Z"/><rect class="cls-1" x="600.7286" y="1907.2361" width="478.4051" height="44.9989"/><rect class="cls-20" x="815.2791" y="1907.236" width="49.3042" height="44.9991"/><rect class="cls-20" x="817.4316" y="1952.2351" width="44.9991" height="158.4552"/><rect class="cls-41" x="616.4973" y="1952.2351" width="446.8676" height="30.8151"/><path class="cls-42" d="M600.7284,1907.236h0A21.51,21.51,0,0,0,618.806,1928.52c26.7507,4.23,60.8455,6.7668,97.993,6.7668,82.0519,0,149.2232-12.3681,155.1439-28.0507Z"/><path class="cls-43" d="M407.5364,2095.3631c-12.179.9432-25.1491-3.9005-32.1193-13.9321s-6.4138-25.2351,2.6213-33.4562c7.1476-6.5035,18.2437-7.656,27.1869-3.9953s15.7416,11.5515,19.4647,20.4691,4.6118,18.8006,4.1167,28.4514a14.0388,14.0388,0,0,1-.606,3.9377"/><path class="cls-44" d="M407.5362,2095.3632l20.6644,1.4747a14.0344,14.0344,0,0,0,.6061-3.9381,76.9538,76.9538,0,0,0-.9394-17.3984c-19.02.2269-36.5467,3.2087-50.7422,8.1242C384.3727,2092.1572,396.2866,2096.2343,407.5362,2095.3632Z"/><path class="cls-43" d="M428.1622,2090.5341c4.449-11.3676,9.4035-22.7778,17.3337-32.0582s19.3364-16.2734,31.5435-16.2456a19.9577,19.9577,0,0,1,8.2032,1.5484c5.8465,2.6487,9.3162,9.0654,9.9771,15.45,1.3155,12.7067-7.1914,24.9195-18.2661,31.2868s-24.2535,7.89-37.0253,8.1578"/><path class="cls-45" d="M434.6424,2075.5261c-2.4,4.8867-4.4994,9.9463-6.48,15.0081l11.7662,8.1387c12.7715-.2675,25.9506-1.7905,37.025-8.1576a39.9767,39.9767,0,0,0,8.1442-6.2293C471.1045,2079.1709,453.6735,2075.96,434.6424,2075.5261Z"/><rect class="cls-35" x="248.1092" y="2126.5546" width="364.1762" height="129.1333"/><path class="cls-46" d="M612.2853,2124.3139a191.0118,191.0118,0,0,0-38.0027-3.817c-88.9958,0-161.1411,60.5272-161.1411,135.1913H612.2853Z"/><rect class="cls-47" x="235.2585" y="2089.8826" width="389.8776" height="36.672"/><rect class="cls-43" x="410.107" y="2089.8825" width="40.1806" height="36.6722"/><rect class="cls-43" x="411.8612" y="2126.5547" width="36.6722" height="129.1335"/><rect class="cls-48" x="248.1092" y="2126.5547" width="364.1761" height="25.1128"/><path class="cls-49" d="M235.2583,2089.8825h0a17.5293,17.5293,0,0,0,14.7324,17.3455c21.8005,3.4473,49.5862,5.5146,79.86,5.5146,66.8684,0,121.61-10.0794,126.435-22.86Z"/><path class="cls-1" d="M691.0507,2055.8363c-14.2237,1.1015-29.3711-4.5553-37.5115-16.2711s-7.49-29.4716,3.0614-39.0728c8.3474-7.5954,21.3063-8.9414,31.751-4.666s18.3843,13.4907,22.7324,23.9053,5.386,21.9569,4.8079,33.2279a16.3977,16.3977,0,0,1-.7078,4.5988"/><path class="cls-50" d="M691.05,2055.8363l24.1337,1.7223a16.3938,16.3938,0,0,0,.7078-4.5992,89.8642,89.8642,0,0,0-1.0972-20.3192c-22.2131.2649-42.6821,3.7473-59.2607,9.488C663.9982,2052.0922,677.9122,2056.8536,691.05,2055.8363Z"/><path class="cls-1" d="M715.1392,2050.1966c5.1958-13.276,10.9821-26.6018,20.2437-37.44s22.5825-19.0054,36.839-18.9729a23.3071,23.3071,0,0,1,9.58,1.8083c6.8281,3.0934,10.88,10.5873,11.6522,18.0436,1.5362,14.84-8.3988,29.103-21.3327,36.5392s-28.3252,9.2147-43.2412,9.5274"/><path class="cls-51" d="M722.7073,2032.669c-2.8025,5.707-5.2548,11.6161-7.5681,17.5277l13.7414,9.505c14.9157-.3124,30.3073-2.0911,43.2409-9.5272a46.6846,46.6846,0,0,0,9.5114-7.275C765.2907,2036.9257,744.9333,2033.1758,722.7073,2032.669Z"/><rect class="cls-14" x="504.8588" y="2092.2642" width="425.3143" height="255.9707"/><path class="cls-52" d="M930.173,2194.8056a223.0844,223.0844,0,0,0-44.3826-4.4577c-103.9365,0-188.1936,70.6885-188.1936,157.8873H930.173Z"/><rect class="cls-5" x="489.8506" y="2049.4357" width="455.3305" height="42.8285"/><rect class="cls-1" x="694.0528" y="2049.4356" width="46.9262" height="42.8287"/><rect class="cls-1" x="696.1016" y="2092.2643" width="42.8287" height="255.9709"/><rect class="cls-53" x="504.8588" y="2092.2643" width="425.3142" height="29.3288"/><path class="cls-54" d="M489.85,2049.4356h0a20.4722,20.4722,0,0,0,17.2057,20.2574c25.46,4.0261,57.9107,6.44,93.2666,6.44,78.0944,0,142.0258-11.7716,147.661-26.6978Z"/><path class="cls-22" d="M1045.8946,1951.018c-10.36.8024-21.3931-3.3179-27.3224-11.8514s-5.4559-21.4663,2.23-28.46c6.08-5.5322,15.519-6.5127,23.1267-3.3986s13.3906,9.8263,16.5577,17.412,3.923,15.9929,3.5019,24.2024a11.9405,11.9405,0,0,1-.5156,3.35"/><path class="cls-55" d="M1045.8944,1951.018l17.5783,1.2545a11.9426,11.9426,0,0,0,.5156-3.35,65.4567,65.4567,0,0,0-.7992-14.8c-16.1794.193-31.0885,2.73-43.164,6.9108C1026.19,1948.2909,1036.3249,1951.7591,1045.8944,1951.018Z"/><path class="cls-22" d="M1063.44,1946.91c3.7845-9.67,7.9991-19.376,14.745-27.27s16.4485-13.843,26.8326-13.8194a16.9776,16.9776,0,0,1,6.978,1.3171c4.9734,2.2532,7.9249,7.7116,8.4871,13.1425,1.119,10.809-6.1174,21.1979-15.5381,26.6142s-20.6314,6.7118-31.4957,6.9395"/><path class="cls-56" d="M1068.9524,1934.1436c-2.0412,4.1568-3.8274,8.4608-5.5124,12.7667l10.0089,6.9232c10.8642-.2275,22.075-1.5231,31.4955-6.9393a34.0048,34.0048,0,0,0,6.9279-5.299C1099.969,1937.2441,1085.1412,1934.5127,1068.9524,1934.1436Z"/><rect class="cls-57" x="910.2773" y="1977.5512" width="309.7877" height="385.1943"/><path class="cls-58" d="M1220.065,2250.9917a162.4853,162.4853,0,0,0-32.3271-3.2469c-75.7047,0-137.0753,51.4876-137.0753,115.0009H1220.065Z"/><rect class="cls-7" x="899.3458" y="1946.356" width="331.6507" height="31.1952"/><rect class="cls-22" x="1048.0813" y="1946.3559" width="34.1798" height="31.1953"/><rect class="cls-22" x="1049.5735" y="1977.5512" width="31.1953" height="385.1945"/><rect class="cls-59" x="910.2773" y="1977.5512" width="309.7876" height="21.3623"/><path class="cls-60" d="M899.3456,1946.3559h0a14.9114,14.9114,0,0,0,12.5322,14.755c18.5447,2.9325,42.1806,4.691,67.9329,4.691,56.8819,0,103.4479-8.5741,107.5524-19.446Z"/><path class="cls-14" d="M2409.7752,2013.5247c12.6916.9829,26.2075-4.0646,33.4711-14.5185s6.6837-26.2972-2.7316-34.8642c-7.4484-6.7773-19.0115-7.9784-28.3312-4.1635s-16.4041,12.0377-20.2839,21.3305-4.8058,19.5919-4.29,29.6489a14.6285,14.6285,0,0,0,.6316,4.1035"/><path class="cls-61" d="M2409.7754,2013.5248l-21.5342,1.5367a14.6306,14.6306,0,0,1-.6316-4.1038,80.1918,80.1918,0,0,1,.979-18.1306c19.8206.2364,38.0849,3.3437,52.8778,8.466C2433.9138,2010.1839,2421.4985,2014.4325,2409.7754,2013.5248Z"/><path class="cls-14" d="M2388.2813,2008.4925c-4.6362-11.846-9.7993-23.7365-18.0633-33.4075s-20.15-16.9583-32.8711-16.9293a20.7962,20.7962,0,0,0-8.5484,1.6135c-6.0926,2.76-9.7084,9.447-10.3971,16.1-1.3708,13.2415,7.4942,25.9683,19.0349,32.6036s25.2743,8.2222,38.5837,8.5011"/><path class="cls-62" d="M2381.5283,1992.8528c2.5006,5.0923,4.6888,10.3649,6.753,15.64l-12.2614,8.4812c-13.3091-.2787-27.0429-1.8659-38.5834-8.501a41.6577,41.6577,0,0,1-8.4869-6.4914C2343.5316,1996.651,2361.6963,1993.305,2381.5283,1992.8528Z"/><rect class="cls-47" x="2196.4087" y="2046.029" width="379.5036" height="228.4" transform="translate(4772.321 4320.4581) rotate(-180)"/><path class="cls-63" d="M2196.4087,2137.5257a199.0537,199.0537,0,0,1,39.6022-3.9776c92.7415,0,167.9233,63.0746,167.9233,140.8812H2196.4087Z"/><rect class="cls-22" x="2183.0171" y="2007.8136" width="406.2868" height="38.2155" transform="translate(4772.3211 4053.8426) rotate(-180)"/><rect class="cls-14" x="2365.2246" y="2007.8135" width="41.8717" height="38.2156" transform="translate(4772.321 4053.8425) rotate(-180)"/><rect class="cls-14" x="2367.0527" y="2046.0291" width="38.2156" height="228.4003" transform="translate(4772.321 4320.4584) rotate(-180)"/><rect class="cls-64" x="2196.4087" y="2046.0291" width="379.5036" height="26.1698"/><path class="cls-65" d="M2589.3041,2007.8135h0a18.267,18.267,0,0,1-15.3524,18.0754c-22.7181,3.5925-51.6732,5.7468-83.2209,5.7468-69.6828,0-126.7282-10.5037-131.7564-23.8222Z"/><path class="cls-5" d="M1317.6819,2098.5457c16.66,1.29,34.4016-5.3356,43.9363-19.058s8.7734-34.5193-3.5858-45.765c-9.7771-8.8962-24.9556-10.4728-37.1892-5.4652s-21.5331,15.8015-26.6259,28-6.3085,25.7176-5.6313,38.919a19.2036,19.2036,0,0,0,.829,5.3865"/><path class="cls-66" d="M1317.6822,2098.5457l-28.2671,2.0173a19.2,19.2,0,0,1-.8291-5.387,105.262,105.262,0,0,1,1.2851-23.7994c26.0177.31,49.9925,4.3892,69.4107,11.1131C1349.3678,2094.16,1333.0706,2099.7373,1317.6822,2098.5457Z"/><path class="cls-5" d="M1289.4676,2091.94c-6.0857-15.55-12.863-31.158-23.7109-43.8528s-26.45-22.26-43.1487-22.2224a27.2987,27.2987,0,0,0-11.2212,2.118c-7.9975,3.6232-12.7437,12.4007-13.6478,21.134-1.7994,17.3816,9.8373,34.0876,24.9864,42.7975s33.1767,10.793,50.6473,11.1591"/><path class="cls-67" d="M1280.6033,2071.41c3.2825,6.6845,6.1547,13.6056,8.8644,20.53l-16.0951,11.133c-17.47-.3659-35.4982-2.4493-50.6469-11.1589a54.6805,54.6805,0,0,1-11.14-8.521C1230.7264,2076.3962,1254.5706,2072.004,1280.6033,2071.41Z"/><rect class="cls-68" x="1037.6038" y="2141.2128" width="498.1601" height="299.8121" transform="translate(2573.3676 4582.2378) rotate(-180)"/><path class="cls-69" d="M1037.6038,2261.317a261.29,261.29,0,0,1,51.9843-5.2212c121.7382,0,220.4265,82.7957,220.4265,184.9295H1037.6038Z"/><rect class="cls-28" x="1020.0251" y="2091.0488" width="533.3174" height="50.164" transform="translate(2573.3677 4232.2617) rotate(-180)"/><rect class="cls-5" x="1259.2021" y="2091.0487" width="54.9635" height="50.1642" transform="translate(2573.3676 4232.2616) rotate(-180)"/><rect class="cls-5" x="1261.6017" y="2141.2129" width="50.1642" height="299.8124" transform="translate(2573.3676 4582.2382) rotate(-180)"/><rect class="cls-70" x="1037.6038" y="2141.2129" width="498.16" height="34.3521"/><path class="cls-71" d="M1553.3428,2091.0487h0a23.9786,23.9786,0,0,1-20.1526,23.727c-29.8212,4.7157-67.8294,7.5435-109.2409,7.5435-91.47,0-166.3513-13.7878-172.9516-31.2705Z"/><path class="cls-2" d="M2009.1326,1881.0123c16.9717,1.3143,35.0457-5.4354,44.7589-19.4147s8.9377-35.1657-3.6529-46.6218c-9.96-9.0629-25.4228-10.6689-37.8855-5.5676s-21.9362,16.0973-27.1244,28.524-6.4266,26.1991-5.7367,39.6477a19.5636,19.5636,0,0,0,.8445,5.4873"/><path class="cls-72" d="M2009.1329,1881.0123l-28.7963,2.0551a19.56,19.56,0,0,1-.8446-5.4878,107.2276,107.2276,0,0,1,1.3091-24.245c26.5048.3161,50.9285,4.4714,70.71,11.3211C2041.4117,1876.5448,2024.8094,1882.2262,2009.1329,1881.0123Z"/><path class="cls-2" d="M1980.39,1874.283c-6.2-15.841-13.1039-31.7414-24.1549-44.6738s-26.9455-22.6773-43.9564-22.6385a27.8107,27.8107,0,0,0-11.4313,2.1576c-8.1473,3.691-12.9824,12.6329-13.9034,21.53-1.833,17.707,10.0215,34.7258,25.4542,43.5988s33.7978,10.995,51.5956,11.3681"/><path class="cls-73" d="M1971.36,1853.369c3.3439,6.81,6.27,13.86,9.03,20.9141l-16.3964,11.3414c-17.7974-.3727-36.1627-2.4951-51.5951-11.3678a55.7072,55.7072,0,0,1-11.3491-8.6806C1920.5492,1858.4481,1944.84,1853.9737,1971.36,1853.369Z"/><rect class="cls-74" x="1723.8108" y="1924.4783" width="507.4868" height="516.5466" transform="translate(3955.1083 4365.5032) rotate(-180)"/><path class="cls-75" d="M1723.8109,2257.9525a266.177,266.177,0,0,1,52.9575-5.319c124.0175,0,224.5534,84.3458,224.5534,188.3918H1723.8109Z"/><rect class="cls-35" x="1705.9031" y="1873.3751" width="543.3023" height="51.1032" transform="translate(3955.1084 3797.8534) rotate(-180)"/><rect class="cls-2" x="1949.5579" y="1873.375" width="55.9925" height="51.1034" transform="translate(3955.1083 3797.8533) rotate(-180)"/><rect class="cls-2" x="1952.0025" y="1924.4784" width="51.1034" height="516.5469" transform="translate(3955.1083 4365.5036) rotate(-180)"/><rect class="cls-76" x="1723.8109" y="1924.4784" width="507.4867" height="34.9953"/><path class="cls-77" d="M2249.2056,1873.375h0a24.4274,24.4274,0,0,1-20.53,24.1712c-30.3795,4.804-69.0993,7.6847-111.2861,7.6847-93.1825,0-169.4658-14.0459-176.19-31.8559Z"/><path class="cls-20" d="M1827.0614,2204.6847c17.9535,1.39,37.073-5.75,47.3481-20.5379s9.4547-37.2-3.8642-49.3188c-10.5364-9.5871-26.8935-11.2861-40.0771-5.89s-23.2053,17.0285-28.6935,30.1741-6.7984,27.7146-6.0686,41.9412a20.6905,20.6905,0,0,0,.8934,5.8047"/><path class="cls-78" d="M1827.0617,2204.6847l-30.4622,2.1739a20.6946,20.6946,0,0,1-.8935-5.8052,113.4307,113.4307,0,0,1,1.385-25.6475c28.038.3343,53.8746,4.73,74.8006,11.976C1861.2078,2199.9587,1843.6451,2205.9688,1827.0617,2204.6847Z"/><path class="cls-20" d="M1796.6562,2197.5661c-6.5584-16.7574-13.862-33.5776-25.5523-47.2582s-28.5043-23.9891-46.4993-23.9481a29.4185,29.4185,0,0,0-12.0925,2.2825c-8.6186,3.9045-13.7334,13.3637-14.7077,22.7752-1.9391,18.7313,10.6012,36.7346,26.9267,46.1208s35.753,11.6312,54.58,12.0258"/><path class="cls-79" d="M1787.1034,2175.4423c3.5374,7.2035,6.6327,14.6621,9.5528,22.1239l-17.3449,11.9975c-18.827-.3943-38.2548-2.64-54.58-12.0254a58.9267,58.9267,0,0,1-12.0056-9.1828C1733.3535,2180.8152,1759.0492,2176.0819,1787.1034,2175.4423Z"/><rect class="cls-2" x="1525.234" y="2250.6651" width="536.8443" height="190.3598" transform="translate(3587.3123 4691.6901) rotate(-180)"/><path class="cls-80" d="M1525.2341,2247.3619a281.5824,281.5824,0,0,1,56.021-5.6267c131.1918,0,237.5436,89.2252,237.5436,199.29H1525.2341Z"/><rect class="cls-1" x="1506.2903" y="2196.6057" width="574.7317" height="54.0594" transform="translate(3587.3124 4447.2708) rotate(-180)"/><rect class="cls-20" x="1764.0403" y="2196.6055" width="59.2316" height="54.0597" transform="translate(3587.3123 4447.2707) rotate(-180)"/><rect class="cls-20" x="1766.6263" y="2250.6652" width="54.0597" height="190.3601" transform="translate(3587.3123 4691.6905) rotate(-180)"/><rect class="cls-81" x="1525.2341" y="2250.6652" width="536.8442" height="37.0197"/><path class="cls-82" d="M2081.0223,2196.6055v0a25.84,25.84,0,0,1-21.7175,25.5694c-32.1369,5.0819-73.0967,8.1293-117.7239,8.1293-98.573,0-179.2692-14.8584-186.3821-33.6988Z"/><path class="cls-43" d="M2194.9868,2246.0219c14.6313,1.1331,30.2128-4.6858,38.5865-16.7373s7.7052-30.3163-3.1491-40.1926c-8.5867-7.813-21.917-9.1976-32.661-4.8s-18.9112,13.8774-23.3839,24.59-5.54,22.5861-4.9456,34.18a16.8619,16.8619,0,0,0,.7281,4.7306"/><path class="cls-83" d="M2194.987,2246.022l-24.8252,1.7716a16.8622,16.8622,0,0,1-.7281-4.731,92.4427,92.4427,0,0,1,1.1286-20.9015c22.85.2725,43.9053,3.8547,60.959,9.76C2222.8145,2242.1705,2208.5017,2247.0685,2194.987,2246.022Z"/><path class="cls-43" d="M2170.208,2240.2206c-5.3448-13.6564-11.2969-27.3642-20.8239-38.5131s-23.23-19.55-37.8947-19.5167a23.9754,23.9754,0,0,0-9.8549,1.86c-7.0237,3.182-11.1921,10.8907-11.9861,18.5606-1.58,15.2652,8.6395,29.9371,21.9441,37.5864s29.1369,9.4788,44.48,9.8"/><path class="cls-84" d="M2162.4229,2222.1908c2.8829,5.87,5.4054,11.9489,7.7851,18.03l-14.1353,9.7774c-15.3431-.3213-31.1758-2.151-44.48-9.8a48.0207,48.0207,0,0,1-9.784-7.4835C2118.6192,2226.5694,2139.56,2222.712,2162.4229,2222.1908Z"/><rect class="cls-20" x="1949.0119" y="2283.4938" width="437.5024" height="155.1343" transform="translate(4335.5262 4722.1219) rotate(180)"/><path class="cls-85" d="M1949.0117,2280.8019a229.4692,229.4692,0,0,1,45.6546-4.5855c106.9151,0,193.5868,72.7143,193.5868,162.412H1949.0117Z"/><rect class="cls-47" x="1933.5735" y="2239.4379" width="468.3793" height="44.0559" transform="translate(4335.5263 4522.9318) rotate(-180)"/><rect class="cls-43" x="2143.6276" y="2239.4378" width="48.271" height="44.0561" transform="translate(4335.5262 4522.9317) rotate(-180)"/><rect class="cls-43" x="2145.7351" y="2283.4939" width="44.0561" height="155.1345" transform="translate(4335.5262 4722.1223) rotate(-180)"/><rect class="cls-86" x="1949.0117" y="2283.4939" width="437.5028" height="30.1693"/><path class="cls-87" d="M2401.953,2239.4378h0a21.0587,21.0587,0,0,1-17.6988,20.8379c-26.19,4.1415-59.57,6.625-95.9393,6.625-80.3324,0-146.0961-12.1089-151.8927-27.4629Z"/><path class="cls-22" d="M1558.9217,2049.1682c12.4461.9639,25.7006-3.9861,32.8237-14.2377s6.5544-25.7886-2.6788-34.19c-7.3043-6.6462-18.6438-7.824-27.7832-4.0829s-16.0868,11.8048-19.8916,20.9179-4.7129,19.213-4.2069,29.0754a14.3413,14.3413,0,0,0,.6193,4.0241"/><path class="cls-88" d="M1558.9219,2049.1682l-21.1177,1.5071a14.3447,14.3447,0,0,1-.6194-4.0245,78.6391,78.6391,0,0,1,.96-17.78c19.4372.2318,37.3482,3.279,51.855,8.3023C1582.5934,2045.892,1570.4182,2050.0584,1558.9219,2049.1682Z"/><path class="cls-22" d="M1537.8435,2044.2333c-4.5466-11.6169-9.61-23.2774-17.7139-32.7614s-19.76-16.63-32.2353-16.6018a20.3942,20.3942,0,0,0-8.3831,1.5823c-5.9748,2.7068-9.52,9.2642-10.196,15.7887-1.3442,12.9854,7.3492,25.466,18.6668,31.9729s24.7855,8.0632,37.8374,8.3368"/><path class="cls-89" d="M1531.2211,2028.8961c2.4523,4.9938,4.5981,10.1644,6.6224,15.3373l-12.0242,8.3171c-13.0517-.2733-26.52-1.83-37.8371-8.3365a40.8494,40.8494,0,0,1-8.3228-6.3659C1493.9594,2032.6208,1511.7727,2029.34,1531.2211,2028.8961Z"/><rect class="cls-1" x="1349.6821" y="2081.0438" width="372.1633" height="414.1952" transform="translate(3071.5275 4576.2828) rotate(-180)"/><path class="cls-90" d="M1349.6821,2409.5414a195.2063,195.2063,0,0,1,38.8362-3.9006c90.9477,0,164.6753,13.2968,164.6753,89.5985H1349.6821Z"/><rect class="cls-91" x="1336.5495" y="2043.5675" width="398.4285" height="37.4763" transform="translate(3071.5275 4124.6113) rotate(-180)"/><rect class="cls-22" x="1515.2328" y="2043.5674" width="41.0619" height="37.4765" transform="translate(3071.5275 4124.6112) rotate(-180)"/><rect class="cls-22" x="1517.0255" y="2081.0438" width="37.4765" height="414.1954" transform="translate(3071.5275 4576.2831) rotate(-180)"/><rect class="cls-92" x="1349.6821" y="2081.0438" width="372.1633" height="25.6636"/><path class="cls-93" d="M1734.9782,2043.5674h0a17.9137,17.9137,0,0,1-15.0555,17.7258c-22.2787,3.523-50.6737,5.6356-81.6112,5.6356-68.335,0-124.2771-10.3005-129.208-23.3614Z"/><path class="cls-22" d="M1906.7514,803.59l-81.1-23.1a54.3578,54.3578,0,0,1-37.3882-67.1689l10.6583-37.42a82.3568,82.3568,0,0,1,56.0216-56.4656h0a39.5579,39.5579,0,0,1,50.6928,37.6568Z"/><path class="cls-2" d="M1964.5123,754.71a553.4062,553.4062,0,0,0-217.679,67.1362c-10.8745,6.0429-21.8236,12.6981-29.3431,22.6092-20.7472,27.3458-7.8111,67.0126,10.6629,95.9426s42.7161,57.4177,43.3551,91.7375c.666,35.7739-5.8159,65.0241,28.3333,88.7992,66.604,46.3706,168.8586,37.4825,243.8545,20.1214,19.4974-4.5136,38.9992-10.4032,55.8522-21.1967,41.4984-26.5776,47.2674-79.0226,42.389-124.1515-9.8806-91.4042-12.7888-257.9322-177.4249-240.9979"/><path class="cls-94" d="M2031.2034,1143.8026c26.71-70.9567,24.886-151.04,19.8744-227.5534L1866.25,1079.0114a146.0928,146.0928,0,0,0-9.91,67.2828C1912.147,1161.08,1977.374,1155.0839,2031.2034,1143.8026Z"/><path class="cls-5" d="M1092.6074,1600.3653l-45.2429,63.8188c-3.2295,4.5555-6.7676,9.3554-11.9984,11.31-3.7648,1.4067-7.9219,1.138-11.9266.7984a469.6576,469.6576,0,0,1-49.4871-6.8636c-3.9563,17.4768,3.911,35.4928,13.9194,50.3563,29.9042,44.4112,81.58,73.3754,135.07,75.7066,4.0194.1752,8.2166.1731,11.8339-1.5879,3.9591-1.9274,6.6593-5.6766,9.1914-9.2791l92.5672-131.697a20.0661,20.0661,0,0,0-1.5132-24.9777c-14.8283-16.4373-30.7437-32.01-50.4564-41.7523-24.4862-12.1012-59.9561-28.8141-91.9572,14.1676"/><path class="cls-95" d="M1092.6074,1600.3653l-45.2429,63.8188c-3.2295,4.5555-6.7676,9.3554-11.9984,11.31-3.7648,1.4067-7.9219,1.138-11.9266.7984a469.6576,469.6576,0,0,1-49.4871-6.8636c-3.9563,17.4768,3.911,35.4928,13.9194,50.3563,29.9042,44.4112,81.58,73.3754,135.07,75.7066,4.0194.1752,8.2166.1731,11.8339-1.5879,3.9591-1.9274,6.6593-5.6766,9.1914-9.2791l92.5672-131.697a20.0661,20.0661,0,0,0-1.5132-24.9777c-14.8283-16.4373-30.7437-32.01-50.4564-41.7523-24.4862-12.1012-59.9561-28.8141-91.9572,14.1676"/><path class="cls-96" d="M1135.2392,1793.6427a31.4463,31.4463,0,0,0-1.7394-7.82c-5.3306-15.3474-17.02-27.6242-29.4613-38.0729-24.7945-20.8232-53.5688-36.2615-82.1127-51.5457q-17.0672-9.1383-34.1334-18.2771c-4.5378-2.43-9.3478-4.9112-14.3219-5.8844-2.6642,16.6494,4.8913,33.6189,14.401,47.7428,29.9043,44.4113,81.58,73.3754,135.07,75.7066,4.0194.1753,8.2171.1731,11.8337-1.5879C1134.9363,1793.8255,1135.0825,1793.7268,1135.2392,1793.6427Z"/><path class="cls-97" d="M1629.874,1286.8276c-19.0731-40.7274-76.1138-43.3-99.2342-4.7257q-10.6415,17.7542-21.2831,35.5084a22.49,22.49,0,0,1,5.37-3.3979c9.9691-4.3389,21.3367.2068,31.3632,4.4106a529.7506,529.7506,0,0,0,99.2384,30.5068c.4132-14.8724-2.8611-30.055-7.9665-44.1394C1635.038,1298.5794,1632.55,1292.5408,1629.874,1286.8276Z"/><path class="cls-98" d="M2081.2745,1467.5051q-11.4731,43.9518-20.9086,88.4019c-.3878,1.8279-.7451,3.851.1865,5.4706,1.7416,3.0275,6.254,2.35,9.5246,1.1242,43.0881-16.1464,73.5779-56.39,89.0925-99.71,7.4951-20.9274,11.9725-42.6475,14.897-64.6868Q2128.42,1433.7928,2081.2745,1467.5051Z"/><path class="cls-1" d="M1906.2153,733.1885c-19.2326-16.2842-33.1911-49.4384-26.723-73.7948-5.7889,1.8586-11.7022,3.7369-17.7817,3.6657s-12.4647-2.433-15.8573-7.4783-2.6161-12.9387,2.5643-16.1214l-27.5627,7.1149c-2.99.772-6.4116,1.4785-8.9694-.2526s-2.144-6.8768.9444-6.8887c-6.5856,6.3562-19.007,2.11-22.3294-6.4184s.91-18.59,7.95-24.438,16.2835-8.2683,25.3166-9.743c15.3578-2.5072,33.61-1.6234,43.0469,10.75-.1894-4.2932,3.7171-8.0149,7.9651-8.6649s8.55,1.1839,11.9324,3.8348a26.6961,26.6961,0,0,1,9.6144,25.1129c5.9093-8.3493,20.5451-6.16,25.67,2.6917,1.949,3.3664,2.7658,7.5983,1.2687,11.1886s-5.7144,6.1079-9.416,4.912c4.4276,3.8387,8.5968,8.7054,9.0208,14.55s-4.73,12.2125-10.4544,10.9574c3.31,18.7038,6.7391,45.1172-6.2,59.0223"/><path class="cls-99" d="M1906.2153,733.1885c-19.2326-16.2842-33.1911-49.4384-26.723-73.7948-5.7889,1.8586-11.7022,3.7369-17.7817,3.6657s-12.4647-2.433-15.8573-7.4783-2.6161-12.9387,2.5643-16.1214l-27.5627,7.1149c-2.99.772-6.4116,1.4785-8.9694-.2526s-2.144-6.8768.9444-6.8887c-6.5856,6.3562-19.007,2.11-22.3294-6.4184s.91-18.59,7.95-24.438,16.2835-8.2683,25.3166-9.743c15.3578-2.5072,33.61-1.6234,43.0469,10.75-.1894-4.2932,3.7171-8.0149,7.9651-8.6649s8.55,1.1839,11.9324,3.8348a26.6961,26.6961,0,0,1,9.6144,25.1129c5.9093-8.3493,20.5451-6.16,25.67,2.6917,1.949,3.3664,2.7658,7.5983,1.2687,11.1886s-5.7144,6.1079-9.416,4.912c4.4276,3.8387,8.5968,8.7054,9.0208,14.55s-4.73,12.2125-10.4544,10.9574c3.31,18.7038,6.7391,45.1172-6.2,59.0223"/><ellipse class="cls-22" cx="1886.2689" cy="702.8678" rx="21.4107" ry="16.8925" transform="translate(-39.7102 1288.2206) rotate(-37.3419)"/><ellipse class="cls-100" cx="1886.3178" cy="702.9318" rx="10.7053" ry="8.4462" transform="translate(-39.7391 1288.2633) rotate(-37.3419)"/><path class="cls-1" d="M1808.2586,685.0658l-8.2953,13.4183-4.1476,6.7091-2.0738,3.3546a7.9585,7.9585,0,0,0-1.493,3.1709c-.2651,2.4553,2.0627,4.02,3.8327,5.2726a22.5,22.5,0,0,0,5.7267,2.8652,22.8489,22.8489,0,0,0,12.7134.5294c3.0337-.7355,1.749-5.4163-1.29-4.6795a18.0809,18.0809,0,0,1-13.0724-1.8693c-1.0317-.5882-2.9262-1.5593-3.4078-2.666l.3312,1.2247q-.2718.4314.0719-.1407l.5184-.8387,1.037-1.6773,1.8146-2.9352,4.018-6.5,7.9065-12.7893c1.6468-2.6639-2.5494-5.1037-4.19-2.4493Z"/><path class="cls-1" d="M1813.5849,734.1617a30.4169,30.4169,0,0,0,10.7121-3.5186,80.961,80.961,0,0,0,9.3151-5.486,84.4833,84.4833,0,0,0,16.1278-14.3109c2.0413-2.3467-1.3772-5.7931-3.4315-3.4315a79.6018,79.6018,0,0,1-14.7958,13.3121,81.0731,81.0731,0,0,1-8.532,5.146c-2.929,1.5288-6.0584,3.1117-9.3957,3.436a2.494,2.494,0,0,0-2.4265,2.4264,2.4437,2.4437,0,0,0,2.4265,2.4265Z"/><path class="cls-1" d="M1844.6145,701.0838a61.8072,61.8072,0,0,0,2.2146,11.2762,2.4271,2.4271,0,1,0,4.68-1.29c-.5088-1.7014-.9444-3.4238-1.2958-5.1647q-.2634-1.3055-.4666-2.6219c-.0312-.2025-.06-.4053-.09-.608-.1015-.6811.0621.5163-.0237-.167q-.0893-.7116-.1649-1.4245a2.6289,2.6289,0,0,0-.7107-1.7158,2.4264,2.4264,0,0,0-4.1422,1.7158Z"/><path class="cls-2" d="M1971.6933,787.82c-35.3906,73.4025-73.2749,146.8406-127.823,207.3792a595.228,595.228,0,0,1-43.1725,42.8657,806.55,806.55,0,0,1-273.86,162.5726c-11.12,3.8878-23.5343,8.5854-28.3191,19.35-1.8969,4.2678-2.3239,9.0317-2.4734,13.7-1.2177,38.0253,15.6228,76.6695,45.629,100.0582,11.6521,9.0824,25.8471,16.0323,40.6,15.2516,9.3871-.4967,18.3034-4.0636,27.0194-7.5844,43.2628-17.4758,86.6823-35.0271,127.1642-58.2283,39.5707-22.679,75.9406-50.5374,110.928-79.7959,111.6948-93.4057,213.2527-206.5144,258.68-344.85"/><path class="cls-101" d="M1971.6933,787.82c-35.3906,73.4025-73.2749,146.8406-127.823,207.3792a595.228,595.228,0,0,1-43.1725,42.8657,806.55,806.55,0,0,1-273.86,162.5726c-11.12,3.8878-23.5343,8.5854-28.3191,19.35-1.8969,4.2678-2.3239,9.0317-2.4734,13.7-1.2177,38.0253,15.6228,76.6695,45.629,100.0582,11.6521,9.0824,25.8471,16.0323,40.6,15.2516,9.3871-.4967,18.3034-4.0636,27.0194-7.5844,43.2628-17.4758,86.6823-35.0271,127.1642-58.2283,39.5707-22.679,75.9406-50.5374,110.928-79.7959,111.6948-93.4057,213.2527-206.5144,258.68-344.85"/><path class="cls-102" d="M1546.74,1238.8529c-39.4066-19.1086-88.0322-17.8818-126.4252,3.19-11.8508,6.5041-23.6563,16.26-25.3421,29.6727-.4616,3.6732-.0351,7.6448,2.1781,10.6125,3.6795,4.9336,11.0944,5.4853,16.8846,3.3988s10.593-6.1872,15.8985-9.3067a51.6119,51.6119,0,0,1,23.2817-7.0138,85.3876,85.3876,0,0,0-43.0738,24.8388c-4.5334,4.8651-8.6223,10.5739-9.5338,17.1611s2.2607,14.1084,8.5276,16.3326c6.3721,2.2616,13.1856-1.3773,18.9644-4.8876l36.6993-22.2923a82.6778,82.6778,0,0,0-31.7184,34.03c-3.5783,7.1661-6.1,15.625-3.2305,23.1034s13.1827,12.165,19.3153,7.0125a21.5946,21.5946,0,0,0,4.2565-5.7219,116.5965,116.5965,0,0,1,24.7009-29.105,61.1008,61.1008,0,0,0-27.06,42.3091c-1.01,7.2172.3629,16.2446,7.138,18.9289,5.9554,2.36,12.5634-1.76,16.6728-6.6741s7.1656-10.93,12.5184-14.4484c6.1247-4.0263,13.9383-3.959,21.2136-4.85,25.58-3.1313,48.8833-20.7579,58.8583-44.52s6.2359-52.7408-9.444-73.1925"/><path class="cls-22" d="M1577.24,356.4757c-2.149-7.4787-9.0659-14.7466-16.6563-13.0336-.9146-7.4087-1.87-14.9644-5.0694-21.7089s-9.0873-12.6612-16.4483-13.9042-15.7988,3.5616-16.819,10.9564c-3.8212-7.0243-10.2456-13.4481-18.2229-13.9982-7.4672-.5148-15.1964,6.5554-13.8533,13.6032a15.207,15.207,0,0,0-29.5868,2.8909c-4.9815-4.03-12.82-2.4895-17.53,1.8544s-6.9376,10.7168-8.5049,16.93c-7.5635,29.9824-3.05,62.6946,11.662,89.8364,15.4485,28.5,60.1518,32.4692,86.5186,20.3043,17.3884-8.0226,23.4324-25.95,32.112-42.8912C1572.0018,393.3392,1581.8745,372.6007,1577.24,356.4757Z"/><path class="cls-1" d="M1546.9489,340.4489a44.4868,44.4868,0,0,0-25.58,8.1724c-3.6122,2.58-7.7039,5.8344-9.3875,10.0775-1.8505,4.6634.8062,8.9129,4.4972,11.6629a34.8567,34.8567,0,0,0,14.9144,5.9346l-.58-4.4349c-11.8231,5.5049-18.6117,18.96-16.72,31.7215a2.4428,2.4428,0,0,0,2.9848,1.6947,2.4886,2.4886,0,0,0,1.6947-2.9848c-1.5878-10.7088,4.8028-21.7309,14.4894-26.2411,1.8179-.8464,1.4369-4.1015-.58-4.4349a34.5405,34.5405,0,0,1-11.6806-4.0916c-2.4811-1.4308-5.794-3.9015-4.4837-7.1763a12.78,12.78,0,0,1,3.2625-4.1589,36.5761,36.5761,0,0,1,4.3685-3.613,40.1312,40.1312,0,0,1,10.08-5.1485,39.6873,39.6873,0,0,1,12.72-2.1267c3.1222-.0066,3.128-4.86,0-4.8529Z"/><path class="cls-1" d="M1459.9452,363.1125c4.8011,5.4421,15.4631,10.83,21.7268,4.6965,2.7479-2.6908,3.7912-6.6643,4.0319-10.3873a25.4747,25.4747,0,0,0-2.7555-12.9795c-1.12-2.2426-4.4691-1.0546-4.5216,1.2247a31.3028,31.3028,0,0,0,2.7568,13.4821c1.7157,3.8565,4.4083,8.0831,8.4047,9.8584a11.6,11.6,0,0,0,11.6233-1.6681c3.6323-2.7577,5.35-7.1045,5.73-11.5453.4608-5.3881-1.353-10.6482-3.1308-15.6455a2.4286,2.4286,0,0,0-4.68,1.29,73.3937,73.3937,0,0,0,4.5206,14.3294c1.6381,3.8135,4.8111,8.3106,9.5958,7.0075,3.01-.82,1.7322-5.5026-1.29-4.68-.962.262-1.8091-.711-2.3816-1.4778a20.35,20.35,0,0,1-2.3568-4.8387,70.9132,70.9132,0,0,1-3.4083-11.631l-4.68,1.29c2.2165,6.23,5.3791,14.7992.5812,20.6913-1.74,2.1369-4.8381,3.5753-7.574,2.6878-3.0517-.99-4.99-4.4581-6.3126-7.1507a25.86,25.86,0,0,1-2.546-12l-4.5216,1.2246a20.4367,20.4367,0,0,1,2.1321,9.6636c-.0671,2.6068-.5845,5.5874-2.4123,7.5791-2.0476,2.2312-5.1988,1.5151-7.7476.628a17.6076,17.6076,0,0,1-7.3535-5.0812c-2.07-2.3466-5.4916,1.0963-3.4315,3.4315Z"/><path class="cls-1" d="M1524.0735,334.2246c.25.4747.4791.9573.7064,1.4431q.1712.3938.0275.053.0876.2122.171.4261.1253.3207.2411.6451a23.94,23.94,0,0,1,.8977,3.2029q.0814.3934.15.7894c.0147.0855.1253.8269.094.5855s.0532.5037.0613.59q.0376.4.0614.8011a24.2545,24.2545,0,0,1-.0351,3.3258,2.4378,2.4378,0,0,0,2.4264,2.4264,2.4867,2.4867,0,0,0,2.4265-2.4264,26.4761,26.4761,0,0,0-3.0377-14.3111,2.446,2.446,0,0,0-3.32-.87,2.4808,2.4808,0,0,0-.87,3.32Z"/><path class="cls-1" d="M1421.8938,1285.98a66.3521,66.3521,0,0,1,39.1279-14.3983c3.115-.1,3.1289-4.9535,0-4.8529a71.8041,71.8041,0,0,0-42.5594,15.82,2.4419,2.4419,0,0,0,0,3.4315,2.4844,2.4844,0,0,0,3.4315,0Z"/><path class="cls-1" d="M1469.4224,1293.9a80.0553,80.0553,0,0,0-27.2095,18.4075c-2.168,2.2494,1.2592,5.6854,3.4315,3.4315a74.3164,74.3164,0,0,1,25.0681-17.1595,2.5058,2.5058,0,0,0,1.6947-2.9848,2.4421,2.4421,0,0,0-2.9848-1.6947Z"/><path class="cls-1" d="M1459.0357,1352.5972a106.9269,106.9269,0,0,1,14.7342-13.2092c4.8876-3.601,10.4236-7.34,16.7638-6.964,3.12.1849,3.1089-4.6686,0-4.8528-7.044-.4174-13.364,3.3565-18.8469,7.358a113.1705,113.1705,0,0,0-16.0826,14.2365c-2.1278,2.2825,1.2964,5.7218,3.4315,3.4315Z"/><path class="cls-103" d="M2073.2214,787.17c.7211-1.1939,1.3846-2.4276,2.02-3.678-24.9373-21.8817-60.21-33.9776-110.729-28.7811a552.5657,552.5657,0,0,0-128.9541,27.6734l-1.8744,5.1228a394.494,394.494,0,0,0,128.4739,36.5442c20.5094,2.1948,41.5275,2.7382,61.4855-2.4728S2062.548,804.82,2073.2214,787.17Z"/></g></svg>