<svg xmlns="http://www.w3.org/2000/svg" xmlns:xlink="http://www.w3.org/1999/xlink" width="2800" height="2800" viewBox="0 0 2800 2800"><defs><style>.cls-1{fill:#debd1b;}.cls-2{fill:#969240;}.cls-3{fill:url(#linear-gradient);}.cls-4{fill:url(#linear-gradient-2);}.cls-5{fill:url(#linear-gradient-3);}.cls-6{fill:url(#linear-gradient-4);}.cls-7{fill:url(#linear-gradient-5);}.cls-8{fill:#ee4e39;}.cls-9{fill:url(#linear-gradient-6);}.cls-10{fill:#252344;}.cls-11{fill:#d7e3d7;}.cls-12{fill:url(#linear-gradient-7);}.cls-13{fill:url(#linear-gradient-8);}.cls-14{fill:url(#linear-gradient-9);}.cls-15{fill:#1fbfaf;}.cls-16{fill:url(#linear-gradient-10);}.cls-17{fill:url(#linear-gradient-11);}.cls-18{fill:url(#linear-gradient-12);}.cls-19{fill:url(#linear-gradient-13);}.cls-20{fill:url(#linear-gradient-14);}.cls-21{fill:url(#linear-gradient-15);}.cls-22{fill:url(#linear-gradient-16);}.cls-23{fill:url(#linear-gradient-17);}.cls-24{fill:url(#linear-gradient-18);}.cls-25{fill:url(#linear-gradient-19);}.cls-26{fill:url(#linear-gradient-20);}.cls-27{fill:url(#linear-gradient-21);}.cls-28{fill:url(#linear-gradient-22);}.cls-29{fill:url(#linear-gradient-23);}.cls-30{fill:url(#linear-gradient-24);}.cls-31{fill:url(#linear-gradient-25);}.cls-32{fill:url(#linear-gradient-26);}.cls-33{fill:url(#linear-gradient-27);}.cls-34{fill:url(#linear-gradient-28);}.cls-35{fill:url(#linear-gradient-29);}.cls-36{fill:url(#linear-gradient-30);}.cls-37{fill:url(#linear-gradient-31);}.cls-38{fill:url(#linear-gradient-32);}.cls-39{fill:url(#linear-gradient-33);}.cls-40{fill:url(#linear-gradient-34);}.cls-41{fill:url(#linear-gradient-35);}.cls-42{fill:url(#linear-gradient-36);}.cls-43{fill:url(#linear-gradient-37);}.cls-44{fill:url(#linear-gradient-38);}.cls-45{fill:url(#linear-gradient-39);}.cls-46{fill:url(#linear-gradient-40);}.cls-47{fill:#7492d6;}.cls-48{fill:url(#linear-gradient-41);}.cls-49{fill:url(#linear-gradient-42);}.cls-50{fill:url(#linear-gradient-43);}.cls-51{fill:url(#linear-gradient-44);}.cls-52{fill:url(#linear-gradient-45);}.cls-53{fill:url(#linear-gradient-46);}.cls-54{fill:url(#linear-gradient-47);}.cls-55{fill:url(#linear-gradient-48);}.cls-56{fill:url(#linear-gradient-49);}.cls-57{fill:url(#linear-gradient-50);}.cls-58{fill:url(#linear-gradient-51);}.cls-59{fill:url(#linear-gradient-52);}.cls-60{fill:#a1c923;}.cls-61{fill:url(#linear-gradient-53);}.cls-62{fill:url(#linear-gradient-54);}.cls-63{fill:url(#linear-gradient-55);}.cls-64{fill:url(#linear-gradient-56);}.cls-65{fill:url(#linear-gradient-57);}.cls-66{fill:url(#linear-gradient-58);}.cls-67{fill:url(#linear-gradient-59);}.cls-68{fill:url(#linear-gradient-60);}.cls-69{fill:url(#linear-gradient-61);}.cls-70{fill:url(#linear-gradient-62);}.cls-71{fill:url(#linear-gradient-63);}.cls-72{fill:url(#linear-gradient-64);}.cls-73{fill:url(#linear-gradient-65);}.cls-74{fill:url(#linear-gradient-66);}.cls-75{fill:url(#linear-gradient-67);}.cls-76{fill:url(#linear-gradient-68);}.cls-77{fill:#f7afb3;}.cls-78{fill:url(#linear-gradient-69);}.cls-79{fill:url(#linear-gradient-70);}.cls-80{fill:url(#linear-gradient-71);}.cls-81{fill:url(#linear-gradient-72);}.cls-82{fill:url(#linear-gradient-73);}.cls-83{fill:url(#linear-gradient-74);}.cls-84{fill:url(#linear-gradient-75);}.cls-85{fill:url(#linear-gradient-76);}.cls-86{fill:url(#linear-gradient-77);}.cls-87{fill:url(#linear-gradient-78);}.cls-88{fill:url(#linear-gradient-79);}.cls-89{fill:url(#linear-gradient-80);}.cls-90{fill:url(#linear-gradient-81);}.cls-91{fill:url(#linear-gradient-82);}.cls-92{fill:url(#linear-gradient-83);}.cls-93{fill:url(#linear-gradient-84);}.cls-94{fill:url(#linear-gradient-85);}.cls-95{fill:url(#linear-gradient-86);}.cls-96{fill:url(#linear-gradient-87);}.cls-97{fill:url(#linear-gradient-88);}</style><linearGradient id="linear-gradient" x1="1900.5879" y1="697.8425" x2="1740.8265" y2="1330.9158" gradientUnits="userSpaceOnUse"><stop offset="0" stop-color="#004f80" stop-opacity="0"/><stop offset="1" stop-color="#00003a"/></linearGradient><linearGradient id="linear-gradient-2" x1="2225.6988" y1="127.8652" x2="1939.0241" y2="687.7767" gradientUnits="userSpaceOnUse"><stop offset="0" stop-color="#fff"/><stop offset="0.3892" stop-color="#ffeddb"/><stop offset="1" stop-color="#fff" stop-opacity="0"/></linearGradient><linearGradient id="linear-gradient-3" x1="2020.2849" y1="980.3619" x2="1613.5137" y2="741.6272" xlink:href="#linear-gradient"/><linearGradient id="linear-gradient-4" x1="1497.0524" y1="766.76" x2="1495.7591" y2="766.001" xlink:href="#linear-gradient"/><linearGradient id="linear-gradient-5" x1="1429.2325" y1="712.4886" x2="1467.8513" y2="796.6483" xlink:href="#linear-gradient"/><linearGradient id="linear-gradient-6" x1="1365.2261" y1="789.9426" x2="1410.4052" y2="1286.0755" xlink:href="#linear-gradient"/><linearGradient id="linear-gradient-7" x1="1332.9024" y1="1755.1621" x2="1093.2602" y2="1524.4785" xlink:href="#linear-gradient"/><linearGradient id="linear-gradient-8" x1="1320.4992" y1="1836.6881" x2="1320.4992" y2="2034.5235" xlink:href="#linear-gradient"/><linearGradient id="linear-gradient-9" x1="1170.4178" y1="1836.6881" x2="1170.4178" y2="2034.5235" xlink:href="#linear-gradient"/><linearGradient id="linear-gradient-10" x1="556.3223" y1="1941.2899" x2="556.3223" y2="1919.1175" xlink:href="#linear-gradient"/><linearGradient id="linear-gradient-11" x1="556.3223" y1="2059.6358" x2="556.3223" y2="1961.1295" xlink:href="#linear-gradient"/><linearGradient id="linear-gradient-12" x1="1161.6394" y1="1941.2899" x2="1161.6394" y2="1919.1175" xlink:href="#linear-gradient"/><linearGradient id="linear-gradient-13" x1="1161.6394" y1="2059.6358" x2="1161.6394" y2="1961.1295" xlink:href="#linear-gradient"/><linearGradient id="linear-gradient-14" x1="1336.8" y1="1941.2899" x2="1336.8" y2="1919.1175" xlink:href="#linear-gradient"/><linearGradient id="linear-gradient-15" x1="1336.8" y1="2059.6358" x2="1336.8" y2="1961.1295" xlink:href="#linear-gradient"/><linearGradient id="linear-gradient-16" x1="1161.6394" y1="2131.941" x2="1161.6394" y2="2109.7685" xlink:href="#linear-gradient"/><linearGradient id="linear-gradient-17" x1="1161.6394" y1="2250.2868" x2="1161.6394" y2="2151.7806" xlink:href="#linear-gradient"/><linearGradient id="linear-gradient-18" x1="1336.8" y1="2131.941" x2="1336.8" y2="2109.7685" xlink:href="#linear-gradient"/><linearGradient id="linear-gradient-19" x1="1336.8" y1="2250.2868" x2="1336.8" y2="2151.7806" xlink:href="#linear-gradient"/><linearGradient id="linear-gradient-20" x1="1161.6394" y1="2322.592" x2="1161.6394" y2="2300.4196" xlink:href="#linear-gradient"/><linearGradient id="linear-gradient-21" x1="1161.6394" y1="2440.9379" x2="1161.6394" y2="2342.4316" xlink:href="#linear-gradient"/><linearGradient id="linear-gradient-22" x1="1336.8" y1="2322.592" x2="1336.8" y2="2300.4196" xlink:href="#linear-gradient"/><linearGradient id="linear-gradient-23" x1="1336.8" y1="2440.9379" x2="1336.8" y2="2342.4316" xlink:href="#linear-gradient"/><linearGradient id="linear-gradient-24" x1="591.2269" y1="1757.2632" x2="635.7121" y2="1576.1447" xlink:href="#linear-gradient"/><linearGradient id="linear-gradient-25" x1="844.8568" y1="2134.5337" x2="1013.2952" y2="2134.5337" xlink:href="#linear-gradient"/><linearGradient id="linear-gradient-26" x1="1104.012" y1="1582.188" x2="1084.9469" y2="1659.64" xlink:href="#linear-gradient-2"/><linearGradient id="linear-gradient-27" x1="1933.0024" y1="1759.0484" x2="1830.1893" y2="1588.7163" xlink:href="#linear-gradient"/><linearGradient id="linear-gradient-28" x1="1591.262" y1="2131.941" x2="1591.262" y2="2109.7685" xlink:href="#linear-gradient"/><linearGradient id="linear-gradient-29" x1="1591.262" y1="2250.2868" x2="1591.262" y2="2151.7806" xlink:href="#linear-gradient"/><linearGradient id="linear-gradient-30" x1="2196.579" y1="2131.941" x2="2196.579" y2="2109.7685" xlink:href="#linear-gradient"/><linearGradient id="linear-gradient-31" x1="2196.579" y1="2250.2868" x2="2196.579" y2="2151.7806" xlink:href="#linear-gradient"/><linearGradient id="linear-gradient-32" x1="2371.7397" y1="2131.941" x2="2371.7397" y2="2109.7685" xlink:href="#linear-gradient"/><linearGradient id="linear-gradient-33" x1="2371.7397" y1="2250.2868" x2="2371.7397" y2="2151.7806" xlink:href="#linear-gradient"/><linearGradient id="linear-gradient-34" x1="2196.579" y1="2322.592" x2="2196.579" y2="2300.4196" xlink:href="#linear-gradient"/><linearGradient id="linear-gradient-35" x1="2196.579" y1="2345.6124" x2="2196.579" y2="2247.1061" xlink:href="#linear-gradient"/><linearGradient id="linear-gradient-36" x1="2371.7397" y1="2322.592" x2="2371.7397" y2="2300.4196" xlink:href="#linear-gradient"/><linearGradient id="linear-gradient-37" x1="2371.7397" y1="2345.6124" x2="2371.7397" y2="2247.1061" xlink:href="#linear-gradient"/><linearGradient id="linear-gradient-38" x1="1626.1666" y1="1947.9143" x2="1670.6518" y2="1766.7958" xlink:href="#linear-gradient"/><linearGradient id="linear-gradient-39" x1="1879.7965" y1="2229.8592" x2="2048.2349" y2="2229.8592" xlink:href="#linear-gradient"/><linearGradient id="linear-gradient-40" x1="2138.9517" y1="1772.8391" x2="2119.8866" y2="1850.2911" xlink:href="#linear-gradient-2"/><linearGradient id="linear-gradient-41" x1="2436.3866" y1="1445.8515" x2="2418.9672" y2="1413.9988" xlink:href="#linear-gradient"/><linearGradient id="linear-gradient-42" x1="2450.0242" y1="1664.6005" x2="2450.0242" y2="1642.428" xlink:href="#linear-gradient"/><linearGradient id="linear-gradient-43" x1="2450.0242" y1="1782.9463" x2="2450.0242" y2="1684.4401" xlink:href="#linear-gradient"/><linearGradient id="linear-gradient-44" x1="2450.0242" y1="1855.2515" x2="2450.0242" y2="1833.0791" xlink:href="#linear-gradient"/><linearGradient id="linear-gradient-45" x1="2450.0242" y1="1973.5974" x2="2450.0242" y2="1875.0911" xlink:href="#linear-gradient"/><linearGradient id="linear-gradient-46" x1="2580.5248" y1="1930.4596" x2="2659.2954" y2="1930.4596" xlink:href="#linear-gradient"/><linearGradient id="linear-gradient-47" x1="1484.9379" y1="1215.9483" x2="1383.4073" y2="2479.1087" xlink:href="#linear-gradient-2"/><linearGradient id="linear-gradient-48" x1="1400.2812" y1="2569.3232" x2="1400.2812" y2="2099.5051" xlink:href="#linear-gradient-2"/><linearGradient id="linear-gradient-49" x1="1428.1535" y1="1809.5722" x2="1383.3606" y2="2339.6218" xlink:href="#linear-gradient-2"/><linearGradient id="linear-gradient-50" x1="787.9534" y1="1520.4074" x2="799.6452" y2="1472.8048" xlink:href="#linear-gradient"/><linearGradient id="linear-gradient-51" x1="826.1044" y1="1481.2683" x2="866.7913" y2="1443.7542" xlink:href="#linear-gradient"/><linearGradient id="linear-gradient-52" x1="936.2971" y1="1541.8019" x2="922.8592" y2="1489.5435" xlink:href="#linear-gradient-2"/><linearGradient id="linear-gradient-53" x1="1648.3896" y1="1670.4195" x2="1660.0814" y2="1622.8168" xlink:href="#linear-gradient"/><linearGradient id="linear-gradient-54" x1="1805.7311" y1="1755.7139" x2="1778.9721" y2="1651.6511" xlink:href="#linear-gradient-2"/><linearGradient id="linear-gradient-55" x1="1686.5406" y1="1631.2803" x2="1727.2275" y2="1593.7662" xlink:href="#linear-gradient"/><linearGradient id="linear-gradient-56" x1="1384.3825" y1="1502.8714" x2="1344.5854" y2="1052.8579" xlink:href="#linear-gradient"/><linearGradient id="linear-gradient-57" x1="1678.591" y1="1392.2364" x2="1689.9387" y2="1128.4028" xlink:href="#linear-gradient"/><linearGradient id="linear-gradient-58" x1="1768.9694" y1="1338.0675" x2="1708.4484" y2="1258.6338" xlink:href="#linear-gradient"/><linearGradient id="linear-gradient-59" x1="1572.4764" y1="1166.724" x2="1610.3019" y2="1983.7569" xlink:href="#linear-gradient"/><linearGradient id="linear-gradient-60" x1="1780.1548" y1="1094.2653" x2="1763.5285" y2="1135.2373" xlink:href="#linear-gradient"/><linearGradient id="linear-gradient-61" x1="1576.5375" y1="1233.0037" x2="1560.1464" y2="1047.6582" xlink:href="#linear-gradient"/><linearGradient id="linear-gradient-62" x1="1551.1773" y1="946.155" x2="1578.5575" y2="1246.8305" xlink:href="#linear-gradient"/><linearGradient id="linear-gradient-63" x1="1689.1894" y1="1030.5153" x2="1728.2759" y2="1008.4503" xlink:href="#linear-gradient"/><linearGradient id="linear-gradient-64" x1="1832.2685" y1="908.841" x2="1887.746" y2="1235.4019" xlink:href="#linear-gradient"/><linearGradient id="linear-gradient-65" x1="1497.8396" y1="1127.502" x2="1505.4034" y2="1081.2291" xlink:href="#linear-gradient"/><linearGradient id="linear-gradient-66" x1="1651.1603" y1="810.2107" x2="1645.2306" y2="860.1685" xlink:href="#linear-gradient"/><linearGradient id="linear-gradient-67" x1="1652.3385" y1="829.8932" x2="1645.5758" y2="824.2314" xlink:href="#linear-gradient"/><linearGradient id="linear-gradient-68" x1="1611.4254" y1="818.234" x2="1600.9634" y2="906.3765" xlink:href="#linear-gradient"/><linearGradient id="linear-gradient-69" x1="1582.675" y1="845.0074" x2="1578.5773" y2="874.9521" gradientUnits="userSpaceOnUse"><stop offset="0" stop-color="#00003a"/><stop offset="0.9986" stop-color="#004f80" stop-opacity="0"/></linearGradient><linearGradient id="linear-gradient-70" x1="1562.2646" y1="928.4181" x2="1586.2908" y2="1192.2623" xlink:href="#linear-gradient"/><linearGradient id="linear-gradient-71" x1="1576.531" y1="1032.7834" x2="1563.628" y2="658.5963" xlink:href="#linear-gradient"/><linearGradient id="linear-gradient-72" x1="1584.0412" y1="987.2037" x2="1522.3441" y2="901.7769" xlink:href="#linear-gradient"/><linearGradient id="linear-gradient-73" x1="1568.7706" y1="924.3302" x2="1681.4646" y2="1155.0425" xlink:href="#linear-gradient"/><linearGradient id="linear-gradient-74" x1="1519.2754" y1="879.4768" x2="1551.6071" y2="908.249" xlink:href="#linear-gradient-2"/><linearGradient id="linear-gradient-75" x1="1601.3359" y1="838.0103" x2="1592.4373" y2="912.9812" xlink:href="#linear-gradient"/><linearGradient id="linear-gradient-76" x1="1634.1498" y1="915.2961" x2="1690.656" y2="1030.9782" xlink:href="#linear-gradient"/><linearGradient id="linear-gradient-77" x1="1615.1939" y1="897.4471" x2="1637.3292" y2="877.4252" xlink:href="#linear-gradient"/><linearGradient id="linear-gradient-78" x1="-3257.3189" y1="5076.0189" x2="-3277.6896" y2="5087.7642" gradientTransform="matrix(-1, 0, 0, 1, -1655.358, -4201.721)" xlink:href="#linear-gradient-69"/><linearGradient id="linear-gradient-79" x1="1639.5763" y1="834.129" x2="1636.5731" y2="841.9709" xlink:href="#linear-gradient"/><linearGradient id="linear-gradient-80" x1="1506.9915" y1="1152.0031" x2="1490.6005" y2="1279.3492" xlink:href="#linear-gradient"/><linearGradient id="linear-gradient-81" x1="1506.2694" y1="1239.1574" x2="1548.2978" y2="1220.6649" xlink:href="#linear-gradient"/><linearGradient id="linear-gradient-82" x1="1865.8818" y1="974.5148" x2="1893.0985" y2="1033.6262" xlink:href="#linear-gradient"/><linearGradient id="linear-gradient-83" x1="-5468.1791" y1="1102.2842" x2="-5468.1791" y2="721.9313" gradientTransform="matrix(-1, 0, 0, 1, -4784.6882, 0)" xlink:href="#linear-gradient-2"/><linearGradient id="linear-gradient-84" x1="-3932.799" y1="1395.7397" x2="-3932.799" y2="1145.9416" gradientTransform="translate(6129.3781)" xlink:href="#linear-gradient-2"/><linearGradient id="linear-gradient-85" x1="-15184.989" y1="704.0512" x2="-15184.989" y2="257.3753" gradientTransform="translate(16187.5894)" xlink:href="#linear-gradient-2"/><linearGradient id="linear-gradient-86" x1="1410.4607" y1="948.9051" x2="1400.5544" y2="935.5827" xlink:href="#linear-gradient"/><linearGradient id="linear-gradient-87" x1="1405.3287" y1="689.362" x2="1442.4901" y2="711.9503" xlink:href="#linear-gradient"/><linearGradient id="linear-gradient-88" x1="954.1648" y1="1638.381" x2="892.4501" y2="1486.5827" xlink:href="#linear-gradient"/></defs><g id="artwork"><path class="cls-1" d="M1410.1,764.4159c-1.08-11.0476-2.16-22.1739-1.1517-33.2283s4.2462-22.1582,11.0174-30.954c2.0336-2.6418,4.5244-5.1506,7.7263-6.0791s7.2074.2489,8.5307,3.3088a12.5333,12.5333,0,0,1,22.2141-7.7914,10.1292,10.1292,0,0,1,19.6061-3.5817c.2078-4.1838,3.5608-7.8141,7.5586-9.0652a16.0767,16.0767,0,0,1,12.139,1.5668c6.7584,3.5891,11.2229,10.6351,13.0287,18.0713s1.2174,15.2591-.1688,22.7848a110.9381,110.9381,0,0,1-29.0745,56.5514c-4.4851,4.6476-9.5856,9.0172-15.7671,10.8891s-13.6565.6955-17.7635-4.2892"/><path class="cls-2" d="M1486.4853,726.5042c63.5534,5.58,81.7713-84.8671,119.7283-126.7209s87.8618-80.3277,144.3077-77.8106c4.8814.2177,10.1351.6586,14.2947-1.9052,3.8857-2.395,5.8784-6.8425,8.2933-10.7159,14.4383-23.1578,52.3175-26.2035,70.27-5.65,20.8257-14.79,45.7694-25.9686,71.2-23.5669s50.3519,21.8188,52.2738,47.29a76.858,76.858,0,0,1,112.9635,58.5647c29.65-8.3358,62.3866,10.559,76.3188,38.0277s11.7858,60.8361,1.4688,89.8567c28.1807-20.4684,72.4181-7.8687,90.1537,22.1072s10.5448,70.7434-12.3015,97.0331c17.5811,4.8621,23.4393,26.9271,22.9816,45.1624-1.91,76.0869-67.7322,145.2025-143.6354,150.8217-4.3036.3186-8.9.5521-12.3824,3.1005-3.2243,2.3594-4.8636,6.249-6.5932,9.8506-24.31,50.6227-90.2824,69.3442-145.17,57.4692-11.1681-2.4162-22.3205-5.8568-33.7388-5.4242-9.4528.3581-18.5721,3.3584-27.79,5.4823-38.4441,8.8577-85.4584-1.7-103.4758-36.7964a57.6951,57.6951,0,0,1-97.9424-18.3709c-2.5274-7.0767-3.7858-14.8681-8.46-20.7518-4.55-5.7273-11.6012-8.7192-18.0817-12.1114-34.6756-18.1509-59.1744-54.4549-63.0308-93.4034-.36-3.6316-.7065-7.63-3.3135-10.1839-2.4579-2.4077-6.1781-2.7918-9.5629-3.4093-27.6036-5.0355-45.35-32.3131-54.536-58.8257s-13.6075-55.445-29.9872-78.227c-1.0517-1.4627-2.6336-3.0669-4.3573-2.5427s-.5363,4.0527.7719,2.814"/><path class="cls-3" d="M1486.4853,726.5042c63.5534,5.58,81.7713-84.8671,119.7283-126.7209s87.8618-80.3277,144.3077-77.8106c4.8814.2177,10.1351.6586,14.2947-1.9052,3.8857-2.395,5.8784-6.8425,8.2933-10.7159,14.4383-23.1578,52.3175-26.2035,70.27-5.65,20.8257-14.79,45.7694-25.9686,71.2-23.5669s50.3519,21.8188,52.2738,47.29a76.858,76.858,0,0,1,112.9635,58.5647c29.65-8.3358,62.3866,10.559,76.3188,38.0277s11.7858,60.8361,1.4688,89.8567c28.1807-20.4684,72.4181-7.8687,90.1537,22.1072s10.5448,70.7434-12.3015,97.0331c17.5811,4.8621,23.4393,26.9271,22.9816,45.1624-1.91,76.0869-67.7322,145.2025-143.6354,150.8217-4.3036.3186-8.9.5521-12.3824,3.1005-3.2243,2.3594-4.8636,6.249-6.5932,9.8506-24.31,50.6227-90.2824,69.3442-145.17,57.4692-11.1681-2.4162-22.3205-5.8568-33.7388-5.4242-9.4528.3581-18.5721,3.3584-27.79,5.4823-38.4441,8.8577-85.4584-1.7-103.4758-36.7964a57.6951,57.6951,0,0,1-97.9424-18.3709c-2.5274-7.0767-3.7858-14.8681-8.46-20.7518-4.55-5.7273-11.6012-8.7192-18.0817-12.1114-34.6756-18.1509-59.1744-54.4549-63.0308-93.4034-.36-3.6316-.7065-7.63-3.3135-10.1839-2.4579-2.4077-6.1781-2.7918-9.5629-3.4093-27.6036-5.0355-45.35-32.3131-54.536-58.8257s-13.6075-55.445-29.9872-78.227c-1.0517-1.4627-2.6336-3.0669-4.3573-2.5427s-.5363,4.0527.7719,2.814"/><path class="cls-4" d="M1486.4853,726.5042c63.5534,5.58,81.7713-84.8671,119.7283-126.7209s87.8618-80.3277,144.3077-77.8106c4.8814.2177,10.1351.6586,14.2947-1.9052,3.8857-2.395,5.8784-6.8425,8.2933-10.7159,14.4383-23.1578,52.3175-26.2035,70.27-5.65,20.8257-14.79,45.7694-25.9686,71.2-23.5669s50.3519,21.8188,52.2738,47.29a76.858,76.858,0,0,1,112.9635,58.5647c29.65-8.3358,62.3866,10.559,76.3188,38.0277s11.7858,60.8361,1.4688,89.8567c28.1807-20.4684,72.4181-7.8687,90.1537,22.1072s10.5448,70.7434-12.3015,97.0331c17.5811,4.8621,23.4393,26.9271,22.9816,45.1624-1.91,76.0869-67.7322,145.2025-143.6354,150.8217-4.3036.3186-8.9.5521-12.3824,3.1005-3.2243,2.3594-4.8636,6.249-6.5932,9.8506-24.31,50.6227-90.2824,69.3442-145.17,57.4692-11.1681-2.4162-22.3205-5.8568-33.7388-5.4242-9.4528.3581-18.5721,3.3584-27.79,5.4823-38.4441,8.8577-85.4584-1.7-103.4758-36.7964a57.6951,57.6951,0,0,1-97.9424-18.3709c-2.5274-7.0767-3.7858-14.8681-8.46-20.7518-4.55-5.7273-11.6012-8.7192-18.0817-12.1114-34.6756-18.1509-59.1744-54.4549-63.0308-93.4034-.36-3.6316-.7065-7.63-3.3135-10.1839-2.4579-2.4077-6.1781-2.7918-9.5629-3.4093-27.6036-5.0355-45.35-32.3131-54.536-58.8257s-13.6075-55.445-29.9872-78.227c-1.0517-1.4627-2.6336-3.0669-4.3573-2.5427s-.5363,4.0527.7719,2.814"/><path class="cls-5" d="M2201.7986,876.8767c-13.2634,9.8717-37.2933,8.5858-41.1649-7.4886-14.021,44.1607-77.2093,63.0153-113.1369,33.7583-9.6758-7.88-17.4413-18.3945-28.6513-23.8774s-28.006-2.87-31.5922,9.0822c-1.3174-11.8736-11.485-22.1784-23.34-23.6548s-24.24,6.02-28.4292,17.2076c-16.3375-26.6479-35.7349-55.5986-66.1561-62.7823-45.2364-10.6825-88.4559,32.4544-134.6726,27.5046-41.0911-4.4007-67.6361-43.6857-99.2289-70.3263-38.97-32.861-92.0689-48.3509-142.5955-41.5974l-3.7776,1.7139,7.3678,28.4306c1.7072-.4864,3.2727,1.0982,4.3164,2.5492,16.3793,22.7819,20.8009,51.7143,29.9869,78.2269s26.9322,53.79,54.5359,58.8258c3.3851.6175,7.1052,1.0016,9.5629,3.4093,2.6072,2.5536,2.954,6.5523,3.3139,10.1839,3.8566,38.9485,28.3547,75.2525,63.0309,93.4035,6.48,3.3921,13.5318,6.3839,18.0814,12.1113,4.6743,5.8837,5.9322,13.6751,8.46,20.7518a57.6949,57.6949,0,0,0,97.9423,18.3708c18.0174,35.0968,65.0322,45.6542,103.4762,36.7965,9.218-2.1239,18.3373-5.1243,27.79-5.4823,11.4177-.4326,22.57,3.008,33.7384,5.4242,54.8874,11.875,120.86-6.8465,145.17-57.4693,1.7294-3.6015,3.3688-7.4911,6.5932-9.8505,3.483-2.5483,8.0789-2.7819,12.3823-3.1005,75.9038-5.6193,141.7255-74.7347,143.6358-150.8217.4095-16.3319-4.2537-35.7259-17.8606-43.0917a56.0174,56.0174,0,0,0-6.0014,4.7517C2222.3722,850.9916,2215.0626,867.0048,2201.7986,876.8767Z"/><path class="cls-6" d="M1497.1524,767.6676l-.7308-2.8205c-.0138.0039-.0275.0024-.0412.0065C1494.6569,765.3778,1495.8442,768.9063,1497.1524,767.6676Z"/><path class="cls-2" d="M1495.9566,736.1621c-26.0406-24.5348-43.068-57.2211-68.0184-82.8637-3.985-4.0955-8.9291-8.2868-14.6194-7.7642-5.1373.4719-9.23,4.8694-10.9366,9.7378s-1.5028,10.17-1.2785,15.324c-7.4032,2.3469-14.9611,6.2216-18.4731,13.1483s-.6882,17.2657,6.877,19.0216c-6.1459-2.46-13.3789,3.251-14.0183,9.84s3.7911,12.84,9.4314,16.3061,12.33,4.6972,18.8519,5.8344q41.8355,7.2954,83.9364,12.94"/><path class="cls-7" d="M1495.9566,736.1621c-26.0406-24.5348-43.068-57.2211-68.0184-82.8637-3.985-4.0955-8.9291-8.2868-14.6194-7.7642-5.1373.4719-9.23,4.8694-10.9366,9.7378s-1.5028,10.17-1.2785,15.324c-7.4032,2.3469-14.9611,6.2216-18.4731,13.1483s-.6882,17.2657,6.877,19.0216c-6.1459-2.46-13.3789,3.251-14.0183,9.84s3.7911,12.84,9.4314,16.3061,12.33,4.6972,18.8519,5.8344q41.8355,7.2954,83.9364,12.94"/><path class="cls-1" d="M1474.4313,796.7587c9.772-5.0431,19.707-10.2026,27.5354-17.9254s13.3684-18.5466,12.1134-29.4713c-1.0154-8.8384-6.2472-16.6061-11.9641-23.4226-3.7612-4.4847-9.2994-9.1447-14.8-7.1451-3.0417,1.1057-5.0671,4.0478-6.1678,7.0913a21.0488,21.0488,0,0,0,1.587,17.5029c-4.8444-.2614-9.3391,2.3987-13.2459,5.2751-6.4086,4.7185-12.3505,10.52-15.3291,17.9s-2.425,16.5778,2.9731,22.4255"/><path class="cls-8" d="M1447.2927,1074.4173c-60.5678,12.63-154.3634,16.0678-202.98-29.81-28.8189-27.1961-30.6872-78.466-19.471-113.6187,11.0464-34.62,28.828-66.9414,50.9848-95.7455a358.5915,358.5915,0,0,1,86.0305-80.152c13.6272-9.0252,28.5319-17.3236,44.8424-18.3836,29.14-1.8936,55.8372,21.0486,65.4716,48.6144,3.1623,9.0482,4.8432,18.8968,2.7326,28.2464-1.7477,7.7421-5.9644,14.6652-10.1287,21.4219q-32.0285,51.9676-65.1019,103.2813c-1.2105,1.878-2.5656,3.8736-4.665,4.6383s-5.0274-.5318-4.9725-2.7655a341.5791,341.5791,0,0,1,112.2827-20.2773c11.5221-.1207,24.1651.7826,32.5463,8.69,11.0753,10.449,9.91,28.0964,7.6813,43.1588"/><path class="cls-9" d="M1447.2927,1074.4173c-60.5678,12.63-154.3634,16.0678-202.98-29.81-28.8189-27.1961-30.6872-78.466-19.471-113.6187,11.0464-34.62,28.828-66.9414,50.9848-95.7455a358.5915,358.5915,0,0,1,86.0305-80.152c13.6272-9.0252,28.5319-17.3236,44.8424-18.3836,29.14-1.8936,55.8372,21.0486,65.4716,48.6144,3.1623,9.0482,4.8432,18.8968,2.7326,28.2464-1.7477,7.7421-5.9644,14.6652-10.1287,21.4219q-32.0285,51.9676-65.1019,103.2813c-1.2105,1.878-2.5656,3.8736-4.665,4.6383s-5.0274-.5318-4.9725-2.7655a341.5791,341.5791,0,0,1,112.2827-20.2773c11.5221-.1207,24.1651.7826,32.5463,8.69,11.0753,10.449,9.91,28.0964,7.6813,43.1588"/><polygon class="cls-10" points="1125.098 1601.191 556.322 1601.191 556.322 2536.418 1507.058 2536.418 1507.058 1821.715 1125.098 1601.191"/><path class="cls-11" d="M1505.3058,1820.704,1125.0979,1601.19H556.3224V1820.704h561.12a26.2049,26.2049,0,0,1,26.2049,26.2049v13.492a25.0094,25.0094,0,0,0,25.0093,25.0093h0a25.0093,25.0093,0,0,0,25.0093-25.0093v-13.492a26.2049,26.2049,0,0,1,26.2049-26.2049h0a26.2048,26.2048,0,0,1,26.2048,26.2049h0a19.8377,19.8377,0,0,0,19.8377,19.8377H1277.19a19.817,19.817,0,0,1,19.817,19.8171v5.3381a19.6377,19.6377,0,0,0,19.6377,19.6377h0a19.6377,19.6377,0,0,0,19.6377-19.6377v-10.564a19.817,19.817,0,0,1,19.817-19.817h29.9251a20.4084,20.4084,0,0,0,20.4084-20.4084h0a20.4083,20.4083,0,0,1,20.4084-20.4084Z"/><path class="cls-12" d="M1505.3058,1820.704l-351.9511-203.2c-.2649.17-.5336.3331-.7975.5049l-10.41,46.648c64.8476,85.35,161.02,146.2826,265.807,168.7352a20.4063,20.4063,0,0,1,18.8866-12.6884Z"/><path class="cls-13" d="M1297.223,1819.36a355.4207,355.4207,0,0,0-63.0917,5.5818,26.1656,26.1656,0,0,1,11.9447,21.9674h0a19.8377,19.8377,0,0,0,19.8376,19.8377H1277.19a19.8171,19.8171,0,0,1,19.8173,19.817v5.3382a19.6378,19.6378,0,0,0,39.2755,0v-10.5641a19.8171,19.8171,0,0,1,19.8173-19.8169h29.9248a20.4083,20.4083,0,0,0,20.4084-20.4084,20.4866,20.4866,0,0,1,.4343-4.1883C1373.8433,1825.689,1336.6173,1819.36,1297.223,1819.36Z"/><path class="cls-14" d="M1168.657,1885.41a25.0094,25.0094,0,0,0,25.0092-25.0094v-13.4919a26.0484,26.0484,0,0,1,3.5219-13.0815,284.9665,284.9665,0,0,0-53.5406,22.251v4.3224A25.0093,25.0093,0,0,0,1168.657,1885.41Z"/><polygon class="cls-15" points="556.322 1601.191 174.362 1821.715 174.362 2536.418 938.282 2536.418 938.282 1821.715 556.322 1601.191"/><rect class="cls-1" x="508.6595" y="1927.9841" width="95.3255" height="95.3255"/><rect class="cls-16" x="508.6595" y="1927.9841" width="95.3255" height="16.682"/><rect class="cls-17" x="508.6595" y="2023.3096" width="95.3255" height="95.3255"/><rect class="cls-1" x="1113.9766" y="1927.9841" width="95.3255" height="95.3255"/><rect class="cls-18" x="1113.9766" y="1927.9841" width="95.3255" height="16.682"/><rect class="cls-19" x="1113.9766" y="2023.3096" width="95.3255" height="95.3255"/><rect class="cls-1" x="1289.1372" y="1927.9841" width="95.3255" height="95.3255"/><rect class="cls-20" x="1289.1372" y="1927.9841" width="95.3255" height="16.682"/><rect class="cls-21" x="1289.1372" y="2023.3096" width="95.3255" height="95.3255"/><rect class="cls-1" x="1113.9766" y="2118.6351" width="95.3255" height="95.3255"/><rect class="cls-22" x="1113.9766" y="2118.6351" width="95.3255" height="16.682"/><rect class="cls-23" x="1113.9766" y="2213.9607" width="95.3255" height="95.3255"/><rect class="cls-1" x="1289.1372" y="2118.6351" width="95.3255" height="95.3255"/><rect class="cls-24" x="1289.1372" y="2118.6351" width="95.3255" height="16.682"/><rect class="cls-25" x="1289.1372" y="2213.9607" width="95.3255" height="95.3255"/><rect class="cls-1" x="1113.9766" y="2309.2862" width="95.3255" height="95.3255"/><rect class="cls-26" x="1113.9766" y="2309.2862" width="95.3255" height="16.682"/><rect class="cls-27" x="1113.9766" y="2404.6117" width="95.3255" height="95.3255"/><rect class="cls-1" x="1289.1372" y="2309.2862" width="95.3255" height="95.3255"/><rect class="cls-28" x="1289.1372" y="2309.2862" width="95.3255" height="16.682"/><rect class="cls-29" x="1289.1372" y="2404.6117" width="95.3255" height="95.3255"/><path class="cls-30" d="M211.6537,1800.1853c117.5021,45.8538,273.2639,73.7809,444.141,73.7809,101.0435,0,196.7981-9.7683,282.4873-27.23v-25.0207l-381.96-220.5249Z"/><path class="cls-31" d="M802.5193,2536.4183H938.282V1821.7154l-154.2669-89.0662c-16.0938,108.0566-24.9513,225.973-24.9513,349.4446C759.0638,2246.834,774.8271,2401.69,802.5193,2536.4183Z"/><path class="cls-32" d="M1138.7773,1726.2116c59.6768,0,114.6848-9.4935,158.747-25.47l-172.4265-99.5507H876.64c0,.1014-.0079.2022-.0079.3037C876.632,1670.3738,993.9982,1726.2116,1138.7773,1726.2116Z"/><polygon class="cls-10" points="2160.038 1791.842 1591.262 1791.842 1591.262 2536.418 2541.997 2536.418 2541.997 2012.366 2160.038 1791.842"/><polygon class="cls-11" points="2540.245 2011.355 2160.038 1791.842 1591.262 1791.842 1591.262 2011.355 2540.245 2011.355"/><polygon class="cls-33" points="2402.361 1937.271 2375.145 1916.034 2160.037 1791.842 1591.013 1791.842 2402.361 1937.271"/><polygon class="cls-8" points="1591.262 1791.842 1209.302 2012.366 1209.302 2536.418 1973.222 2536.418 1973.222 2012.366 1591.262 1791.842"/><rect class="cls-1" x="1543.5992" y="2118.6351" width="95.3255" height="95.3255"/><rect class="cls-34" x="1543.5992" y="2118.6351" width="95.3255" height="16.682"/><rect class="cls-35" x="1543.5992" y="2213.9607" width="95.3255" height="95.3255"/><rect class="cls-1" x="2148.9163" y="2118.6351" width="95.3255" height="95.3255"/><rect class="cls-36" x="2148.9163" y="2118.6351" width="95.3255" height="16.682"/><rect class="cls-37" x="2148.9163" y="2213.9607" width="95.3255" height="95.3255"/><rect class="cls-1" x="2324.0769" y="2118.6351" width="95.3255" height="95.3255"/><rect class="cls-38" x="2324.0769" y="2118.6351" width="95.3255" height="16.682"/><rect class="cls-39" x="2324.0769" y="2213.9607" width="95.3255" height="95.3255"/><rect class="cls-1" x="2148.9163" y="2309.2862" width="95.3255" height="95.3255"/><rect class="cls-40" x="2148.9163" y="2309.2862" width="95.3255" height="16.682"/><rect class="cls-41" x="2148.9163" y="2309.2862" width="95.3255" height="95.3255"/><rect class="cls-1" x="2324.0769" y="2309.2862" width="95.3255" height="95.3255"/><rect class="cls-42" x="2324.0769" y="2309.2862" width="95.3255" height="16.682"/><rect class="cls-43" x="2324.0769" y="2309.2862" width="95.3255" height="95.3255"/><path class="cls-44" d="M1246.5934,1990.8364c117.5021,45.8537,273.2639,73.7808,444.141,73.7808,101.0435,0,196.7981-9.7683,282.4873-27.23v-25.0208l-381.96-220.5249Z"/><path class="cls-45" d="M1837.459,2536.4183h135.7627V2012.3664L1818.9548,1923.3c-16.0938,108.0567-24.9513,225.973-24.9513,349.4446C1794.0035,2437.4851,1809.7668,2401.69,1837.459,2536.4183Z"/><path class="cls-46" d="M2173.717,1916.8627c59.6767,0,114.6848-9.4936,158.7469-25.47l-172.4264-99.5508H1911.58c0,.1015-.008.2022-.008.3037C1911.5716,1861.0249,2028.9379,1916.8627,2173.717,1916.8627Z"/><polygon class="cls-11" points="2244.242 1504.175 2244.242 2495.567 2626.2 2495.567 2626.202 1283.65 2244.242 1504.175"/><polygon class="cls-47" points="2244.242 1545.026 2244.242 2536.418 2626.2 2536.418 2626.202 1324.501 2244.242 1545.026"/><polygon class="cls-48" points="2626.202 1324.501 2244.242 1545.026 2244.242 1562.943 2626.202 1342.418 2626.202 1324.501"/><rect class="cls-1" x="2402.3615" y="1651.2946" width="95.3255" height="95.3255"/><rect class="cls-49" x="2402.3615" y="1651.2946" width="95.3255" height="16.682"/><rect class="cls-50" x="2402.3615" y="1746.6202" width="95.3255" height="95.3255"/><rect class="cls-1" x="2402.3615" y="1841.9457" width="95.3255" height="95.3255"/><rect class="cls-51" x="2402.3615" y="1841.9457" width="95.3255" height="16.682"/><rect class="cls-52" x="2402.3615" y="1937.2712" width="95.3255" height="95.3255"/><path class="cls-53" d="M2587.044,2536.4183H2626.2l.0019-1211.9173-61.8475,35.7076c-22.211,147.1692-35.3411,329.0957-35.3411,526.0224C2529.0132,2143.0957,2551.35,2374.4509,2587.044,2536.4183Z"/><path class="cls-54" d="M174.3625,2001.9381a329.2966,329.2966,0,0,1,104.22-12.0614c182.3163,8.9659,333.33,144.0575,509.736,190.9687,145.2562,38.6276,306.3373,13.21,432.6422-68.2686,38.461-24.811,74.3814-54.8178,117.3462-70.5923,113.3845-41.63,234.1745,25.3991,351.8836,52.4842a537.0266,537.0266,0,0,0,321.3986-26.1388c97.6958-39.9833,183.0364-108.7284,284.5972-137.5129,111.1316-31.4972,235.6862-8.5629,330.0136,57.5814v548.02H174.3625Z"/><path class="cls-55" d="M2626.2,2184.58a329.3,329.3,0,0,0-104.22-12.0613c-182.3163,8.9659-333.33,144.0575-509.7359,190.9687-145.2563,38.6276-306.3373,13.21-432.6423-68.2686-38.461-24.811-74.3813-54.8178-117.3462-70.5923-113.3844-41.63-234.1745,25.3991-351.8835,52.4842a537.0269,537.0269,0,0,1-321.3987-26.1388c-97.6958-39.9834-183.0363-108.7284-284.5972-137.5129-111.1316-31.4972-235.6862-8.5629-330.0135,57.5814v398.2824H2626.2Z"/><path class="cls-56" d="M2521.4155,2097.4556c-182.3162,8.9659-333.33,144.0575-509.7359,190.9687-145.2562,38.6275-306.3373,13.21-432.6422-68.2686-38.461-24.811-74.3814-54.8178-117.3463-70.5924-113.3844-41.63-234.1745,25.3992-351.8835,52.4843a537.027,537.027,0,0,1-321.3987-26.1388c-97.6958-39.9834-183.0363-108.7284-284.5972-137.5129-111.1316-31.4972-235.6862-8.563-330.0135,57.5814v86.65c94.3273-66.1444,218.8819-89.0787,330.0135-57.5815,101.5609,28.7845,186.9014,97.53,284.5972,137.513a537.0269,537.0269,0,0,0,321.3987,26.1387c117.709-27.0851,238.4991-94.1138,351.8835-52.4842,42.9649,15.7746,78.8853,45.7814,117.3463,70.5924,126.3049,81.4784,287.386,106.8961,432.6422,68.2686,176.4056-46.9113,327.42-182.0028,509.7359-190.9687a329.2946,329.2946,0,0,1,104.22,12.0613v-86.65A329.2975,329.2975,0,0,0,2521.4155,2097.4556Z"/><rect class="cls-2" x="730.5771" y="1495.7861" width="114.9685" height="105.4042"/><rect class="cls-57" x="730.5771" y="1495.7861" width="114.9685" height="48.3632"/><rect class="cls-10" x="845.5456" y="1495.7861" width="114.9685" height="105.4042"/><path class="cls-11" d="M960.7632,1470.9875H730.328a8.9585,8.9585,0,0,0-8.9585,8.9586v7.628a8.9584,8.9584,0,0,0,8.9585,8.9585H880.26a8.9585,8.9585,0,0,1,8.9585,8.9586v5.518a8.9586,8.9586,0,0,0,8.9586,8.9585h3.36a8.9586,8.9586,0,0,0,8.9585-8.9585v-5.518a8.9586,8.9586,0,0,1,8.9585-8.9586h0a8.9586,8.9586,0,0,1,8.9585,8.9586v24.4737a8.9586,8.9586,0,0,0,8.9585,8.9585h5.2259a8.9586,8.9586,0,0,0,8.9586-8.9585v-11.5715a8.9585,8.9585,0,0,1,8.9585-8.9586h.2492a8.9586,8.9586,0,0,0,8.9585-8.9585v-3.9437h0v-16.5865A8.9586,8.9586,0,0,0,960.7632,1470.9875Z"/><path class="cls-58" d="M804.0946,1470.9876h34.19a7.2614,7.2614,0,0,1,7.2614,7.2614v18.2838a0,0,0,0,1,0,0h-41.451a7.2614,7.2614,0,0,1-7.2614-7.2614v-11.0224A7.2614,7.2614,0,0,1,804.0946,1470.9876Z"/><path class="cls-59" d="M938.491,1478.8263c-25.7048,0-48.4637,6.9793-62.5108,17.7063h4.28a8.9584,8.9584,0,0,1,8.9587,8.9586v5.5179a8.9586,8.9586,0,0,0,8.9587,8.9586h3.36a8.9587,8.9587,0,0,0,8.9584-8.9586v-5.5179a8.9586,8.9586,0,1,1,17.9171,0v24.4736a8.9586,8.9586,0,0,0,8.9587,8.9586h5.2255a8.9586,8.9586,0,0,0,8.9588-8.9586v-11.5714a8.9584,8.9584,0,0,1,8.9587-8.9586h.2488a8.9585,8.9585,0,0,0,8.9587-8.9585V1482.49A131.3837,131.3837,0,0,0,938.491,1478.8263Z"/><rect class="cls-60" x="1591.0133" y="1645.7982" width="114.9685" height="146.0434"/><rect class="cls-61" x="1591.0133" y="1645.7982" width="114.9685" height="48.3632"/><rect class="cls-10" x="1705.9818" y="1645.7982" width="114.9685" height="146.0434"/><path class="cls-11" d="M1821.1994,1621H1590.7642a8.9586,8.9586,0,0,0-8.9585,8.9585v7.628a8.9586,8.9586,0,0,0,8.9585,8.9586h149.9322a8.9584,8.9584,0,0,1,8.9585,8.9585v98.9862a10.6383,10.6383,0,0,0,10.6384,10.6383h0a10.6383,10.6383,0,0,0,10.6383-10.6383v-98.9862a8.9585,8.9585,0,0,1,8.9586-8.9585h0a8.9584,8.9584,0,0,1,8.9585,8.9585v21.8609a11.5713,11.5713,0,0,0,11.5713,11.5713h0a11.5713,11.5713,0,0,0,11.5713-11.5713v-8.9587a8.9585,8.9585,0,0,1,8.9585-8.9585h.2492a8.9585,8.9585,0,0,0,8.9585-8.9586v-3.9436h0v-16.5866A8.9585,8.9585,0,0,0,1821.1994,1621Z"/><path class="cls-62" d="M1798.9272,1628.8384c-25.7048,0-48.4637,6.9793-62.5108,17.7063h4.28a8.9586,8.9586,0,0,1,8.9587,8.9587v98.9858a10.6385,10.6385,0,0,0,10.6385,10.6385h0a10.6381,10.6381,0,0,0,10.6381-10.6382v-98.6111a9.2071,9.2071,0,0,1,8.6835-9.33,8.9586,8.9586,0,0,1,9.2336,8.9544v21.8608a11.5714,11.5714,0,0,0,11.5715,11.5714h0a11.5714,11.5714,0,0,0,11.5715-11.5714v-8.9584a8.9586,8.9586,0,0,1,8.9587-8.9587h.2488a8.9587,8.9587,0,0,0,8.9587-8.9587v-17.9864A131.3838,131.3838,0,0,0,1798.9272,1628.8384Z"/><path class="cls-63" d="M1664.5309,1621h34.19a7.2614,7.2614,0,0,1,7.2614,7.2614v18.2838a0,0,0,0,1,0,0h-41.451a7.2614,7.2614,0,0,1-7.2614-7.2614V1628.261A7.2614,7.2614,0,0,1,1664.5309,1621Z"/><path class="cls-10" d="M1860.5667,1198.9855c19.0465-2.6233,38.31,6.5674,51.7566,20.3092s21.8883,31.566,28.7435,49.5286c2.4832,6.5067,4.8243,13.2835,4.5294,20.2417s-3.8,14.2059-10.1733,17.0149c-8.7458,3.855-18.7368-1.6887-28.28-1.1589-9.32.5174-17.233,6.7235-24.3019,12.82-18.0129,15.534-35.6547,32.5845-57.8994,41.0075-8.7751,3.3226-19.899,4.722-26.4941-1.9524-3.0483-3.0851-4.5133-7.3584-5.8155-11.4954a392.3171,392.3171,0,0,1-16.7829-85.78"/><path class="cls-8" d="M1333.0547,1239.1358a1727.6755,1727.6755,0,0,0-177.075,242.59c-6.0491,10.013-12.1167,20.4149-13.85,31.9841-2.7351,18.2519,5.8515,36.5255,17.526,50.82,27.866,34.1185,77.5522,50.98,118.549,34.86,24.5321-9.6459,43.7688-29.3572,59.4692-50.5319,23.67-31.9226,40.927-68.04,58.35-103.758,8.3228-17.0625,16.8939-34.3518,29.775-48.2972,20.626-22.33,50.0531-33.8447,76.0285-49.6356a251.7121,251.7121,0,0,0,80.2934-78.0983c11.1355-17.2233,20.3373-36.5747,20.72-57.0807s-9.8582-42.22-28.63-50.4816"/><path class="cls-64" d="M1333.0547,1239.1358a1727.6755,1727.6755,0,0,0-177.075,242.59c-6.0491,10.013-12.1167,20.4149-13.85,31.9841-2.7351,18.2519,5.8515,36.5255,17.526,50.82,27.866,34.1185,77.5522,50.98,118.549,34.86,24.5321-9.6459,43.7688-29.3572,59.4692-50.5319,23.67-31.9226,40.927-68.04,58.35-103.758,8.3228-17.0625,16.8939-34.3518,29.775-48.2972,20.626-22.33,50.0531-33.8447,76.0285-49.6356a251.7121,251.7121,0,0,0,80.2934-78.0983c11.1355-17.2233,20.3373-36.5747,20.72-57.0807s-9.8582-42.22-28.63-50.4816"/><path class="cls-8" d="M1530.3725,1205.9908a706.2515,706.2515,0,0,0-24.9592,129.1007c-5.0014,51.0383-1.3317,111.7367,46.2751,142.1693,56.3673,36.032,116.7154,18.4713,170.1019-14.5793,26.7377-16.5529,51.0317-36.65,74.7391-57.2167,20.7839-18.0305,44.5405-33.4053,55.7305-59.886,10.3982-24.6071,6.3213-54.7341-10.2429-75.6926s-44.9342-31.8858-71.278-27.4543c-18.7963,3.1618-35.5821,13.2879-51.8525,23.2162l-33.6217,20.5162c-5.103,3.1139-10.4285,6.4542-13.3255,11.6835-3.082,5.5634-2.8864,12.2967-4.4529,18.4609s-6.42,12.6229-12.7438,11.9427a348.4813,348.4813,0,0,0,24.3635-85.2958c2.7023-17.8278,2.5591-39.2957-12.034-49.8868"/><path class="cls-65" d="M1530.3725,1205.9908a706.2515,706.2515,0,0,0-24.9592,129.1007c-5.0014,51.0383-1.3317,111.7367,46.2751,142.1693,56.3673,36.032,116.7154,18.4713,170.1019-14.5793,26.7377-16.5529,51.0317-36.65,74.7391-57.2167,20.7839-18.0305,44.5405-33.4053,55.7305-59.886,10.3982-24.6071,6.3213-54.7341-10.2429-75.6926s-44.9342-31.8858-71.278-27.4543c-18.7963,3.1618-35.5821,13.2879-51.8525,23.2162l-33.6217,20.5162c-5.103,3.1139-10.4285,6.4542-13.3255,11.6835-3.082,5.5634-2.8864,12.2967-4.4529,18.4609s-6.42,12.6229-12.7438,11.9427a348.4813,348.4813,0,0,0,24.3635-85.2958c2.7023-17.8278,2.5591-39.2957-12.034-49.8868"/><path class="cls-66" d="M1685.1756,1300.5036c-2.6368,36.3406-5.606,73.8828-22.6563,106.0834a64.12,64.12,0,0,0,20.5126-16.8926c3.2267-4.0529,5.973-8.5124,9.6324-12.1794,9.4436-9.4634,23.4017-12.3272,36.3149-15.79a256.8634,256.8634,0,0,0,96.7735-49.94c9.9809-8.2514,19.4876-17.4591,25.6711-28.8375s8.715-25.2683,4.334-37.4548c-1.131-3.1461-2.8145-6.2641-5.6054-8.1047-2.3625-1.5581-5.2566-2.0352-8.06-2.4211a217.9286,217.9286,0,0,0-48.5245-1.2167"/><path class="cls-11" d="M1411.4838,1151.12c-9.2371-3.8563-84.6765,49.3178-92.1767,55.9467a278.6637,278.6637,0,0,0-37.3172,40.19c-10.0884,13.2789-19.3838,29.7952-14.86,45.8463,3.5687,12.6616,14.9312,21.5209,26.5073,27.7694,38.4255,20.7412,85.7565,22.0086,127.0667,7.86s76.7647-42.7041,103.593-77.1562c31.2405,58.8746,103.372,89.7557,169.4733,81.2207,49.9809-6.4534,106.6154-24.3562,146.3429-56.2235,67.4653-54.1171,59.1108-156.5362-23.8956-191.0774-29.5367-12.291-81.88-7.8755-110.9551,5.47"/><path class="cls-67" d="M1411.4838,1151.12c-9.2371-3.8563-84.6765,49.3178-92.1767,55.9467a278.6637,278.6637,0,0,0-37.3172,40.19c-10.0884,13.2789-19.3838,29.7952-14.86,45.8463,3.5687,12.6616,14.9312,21.5209,26.5073,27.7694,38.4255,20.7412,85.7565,22.0086,127.0667,7.86s76.7647-42.7041,103.593-77.1562c31.2405,58.8746,103.372,89.7557,169.4733,81.2207,49.9809-6.4534,106.6154-24.3562,146.3429-56.2235,67.4653-54.1171,59.1108-156.5362-23.8956-191.0774-29.5367-12.291-81.88-7.8755-110.9551,5.47"/><path class="cls-68" d="M1705.2624,1090.9669l-5.19,1.0627c1.42,7.7022,6.187,14.3557,11.04,20.5251a339.6007,339.6007,0,0,0,27.9291,31.3146l88.3137,33.6423c9.2584-22.0865,8.7685-40.45,6.6186-64.302q-.24-2.6674-.5919-5.3323a28.244,28.244,0,0,0-17.0205-22.321l-.1438-.06C1786.6809,1073.2054,1734.3381,1077.6209,1705.2624,1090.9669Z"/><path class="cls-8" d="M1396.32,1135.2093c-13.303,2.4-22.7208,13.9527-30.8993,24.7156l-37.014,48.71c-7.6447,10.0605-15.7265,21.9157-13.0513,34.2647,3.0788,14.2122,18.8269,21.6007,33.0827,24.4707,32.3749,6.5176,66.7733.4417,96.0094-14.9163s53.3692-39.6566,70.4348-67.93c35.2277,42.976,87.8922,71.7405,143.2937,76.0522s112.6843-16.5094,150.91-56.8419c13.1621-13.8875,24.5917-31.7606,22.6036-50.7909-1.4206-13.5974-9.6584-25.7466-19.99-34.6995s-22.7071-15.1547-34.9386-21.262c-9.7894-4.888-19.7869-9.8432-30.6113-11.4418s-22.8135.6953-30.415,8.5657"/><path class="cls-69" d="M1396.32,1135.2093c-13.303,2.4-22.7208,13.9527-30.8993,24.7156l-37.014,48.71c-7.6447,10.0605-15.7265,21.9157-13.0513,34.2647,3.0788,14.2122,18.8269,21.6007,33.0827,24.4707,32.3749,6.5176,66.7733.4417,96.0094-14.9163s53.3692-39.6566,70.4348-67.93c35.2277,42.976,87.8922,71.7405,143.2937,76.0522s112.6843-16.5094,150.91-56.8419c13.1621-13.8875,24.5917-31.7606,22.6036-50.7909-1.4206-13.5974-9.6584-25.7466-19.99-34.6995s-22.7071-15.1547-34.9386-21.262c-9.7894-4.888-19.7869-9.8432-30.6113-11.4418s-22.8135.6953-30.415,8.5657"/><path class="cls-10" d="M1395.0116,1090.9669c-.816,4.4411-12.8575,16.0349-7.9866,54.9872a18.1126,18.1126,0,0,0,12.4991,14.9931c40.2537,12.8068,187.4133,48.9865,334.9652-48.1312a18.1507,18.1507,0,0,0,8.0773-17.2562c-2.8524-24.4815-9.5975-81.2463-10.2971-76.71"/><path class="cls-8" d="M1569.2039,942.4066s-25.1411-24.0922-82.9822-6.5682c-19.4928,5.9057-100.6182,56.8884-110.6564,146.12a21.7293,21.7293,0,0,0,15.7762,23.372c56.5384,15.6733,242.19,55.6059,345.9455-60.365a21.7384,21.7384,0,0,0,5.471-12.7126c2.6566-32.4259,7.65-161.565-86.467-120.4125"/><path class="cls-70" d="M1569.204,942.4066s-25.1412-24.0922-82.982-6.5682c-19.4933,5.9057-100.6185,56.8884-110.6563,146.12a21.7289,21.7289,0,0,0,15.776,23.372c56.5383,15.6733,242.1894,55.6059,345.9453-60.365a21.739,21.739,0,0,0,5.4712-12.7126c2.6561-32.4259,7.65-161.5651-86.4673-120.4125"/><path class="cls-71" d="M1681.2906,1042.5346a87.0578,87.0578,0,0,0,22.34,32.9,216.4737,216.4737,0,0,0,33.6566-30.4694,21.74,21.74,0,0,0,5.4711-12.7126,321.7882,321.7882,0,0,0,.6116-43.0658l-62.3616-7.124A87.227,87.227,0,0,0,1681.2906,1042.5346Z"/><path class="cls-8" d="M1672.0773,905.6864a401.5734,401.5734,0,0,1,170.1915-35.737c21.8008.265,43.72,2.3426,64.6651,8.3961,45.6,13.1791,85.7382,46.5955,103.5591,90.589s11.4295,97.8059-19.023,134.2155c-10.5476,12.611-23.522,22.9421-36.6446,32.8461-18.1994,13.7356-40.2074,27.5286-62.2841,21.8266-14.724-3.8029-25.8729-15.57-35.7308-27.1494-8.3363-9.7922-16.7177-20.6545-17.8983-33.46-1.1341-12.3017,4.59-24.0808,10.161-35.1074l31.2428-61.8412c-4.8518,11.6839-15.638,20.0951-27.36,24.855s-24.4544,6.3257-37.0194,7.7995c-37.4669,4.3947-76.1738,8.261-112.315-2.55-5.49-1.6422-11.0165-3.6927-15.3481-7.4439-5.5674-4.8215-8.58-11.95-10.5454-19.0477a92.4414,92.4414,0,0,1,2.25-55.9864"/><path class="cls-72" d="M1672.0773,905.6864a401.5734,401.5734,0,0,1,170.1915-35.737c21.8008.265,43.72,2.3426,64.6651,8.3961,45.6,13.1791,85.7382,46.5955,103.5591,90.589s11.4295,97.8059-19.023,134.2155c-10.5476,12.611-23.522,22.9421-36.6446,32.8461-18.1994,13.7356-40.2074,27.5286-62.2841,21.8266-14.724-3.8029-25.8729-15.57-35.7308-27.1494-8.3363-9.7922-16.7177-20.6545-17.8983-33.46-1.1341-12.3017,4.59-24.0808,10.161-35.1074l31.2428-61.8412c-4.8518,11.6839-15.638,20.0951-27.36,24.855s-24.4544,6.3257-37.0194,7.7995c-37.4669,4.3947-76.1738,8.261-112.315-2.55-5.49-1.6422-11.0165-3.6927-15.3481-7.4439-5.5674-4.8215-8.58-11.95-10.5454-19.0477a92.4414,92.4414,0,0,1,2.25-55.9864"/><path class="cls-73" d="M1550.7266,1124.3239c-.5535-.2642-48.6017-23.3466-9.3745-55.119,39.4529-31.9559-18.8674-40.2506-18.8674-40.2506l-63.3229,14.7985s-.5247,46.7177,22.1667,78.3078c.0467.0654.0965.1257.144.1908A462.53,462.53,0,0,0,1550.7266,1124.3239Z"/><circle class="cls-11" cx="1649.7839" cy="821.8063" r="14.1636"/><circle class="cls-74" cx="1649.7839" cy="821.8063" r="14.1636"/><path class="cls-75" d="M1649.7843,835.97a14.1569,14.1569,0,0,0,13.3744-9.537,9.8635,9.8635,0,0,1-3.5234.2151c-4.5635-.4066-9.208-2.3065-11.8852-6.025l-10.9517,6.831A14.1618,14.1618,0,0,0,1649.7843,835.97Z"/><path class="cls-8" d="M1570.1024,838.7333c1.05-5.4193,5.4321-9.7162,10.412-12.0976s10.5523-3.1536,16.0222-3.8961l36.9215-5.0118c3.37-.4575,6.8737-.9049,10.1145.1279s6.1325,4.0041,5.9018,7.3976c-.3248,4.7767-6.061,7.2811-7.8814,11.7092-1.2627,3.0714-.45,6.5431-.3366,9.862a23.2593,23.2593,0,0,1-10.014,19.6758"/><path class="cls-76" d="M1570.1024,838.7333c1.05-5.4193,5.4321-9.7162,10.412-12.0976s10.5523-3.1536,16.0222-3.8961l36.9215-5.0118c3.37-.4575,6.8737-.9049,10.1145.1279s6.1325,4.0041,5.9018,7.3976c-.3248,4.7767-6.061,7.2811-7.8814,11.7092-1.2627,3.0714-.45,6.5431-.3366,9.862a23.2593,23.2593,0,0,1-10.014,19.6758"/><path class="cls-77" d="M1580.6962,951.9487l-45.49,46.5128a20.1755,20.1755,0,0,1-20.2125-28.2289L1562.65,861.982a32.6639,32.6639,0,0,1,27.0667-19.38h0a32.6641,32.6641,0,0,1,32.724,45.7024Z"/><path class="cls-78" d="M1602.6844,854.7581c.1191-.6163-.2923-1.3709-.92-1.3626l-39.2055,8.7925-5.1953,11.8015a9.56,9.56,0,0,0,6.8152,2.3591,23.4865,23.4865,0,0,0,7.2569-1.6154,82.7226,82.7226,0,0,0,30.214-18.4384A3.13,3.13,0,0,0,1602.6844,854.7581Z"/><path class="cls-11" d="M1540.92,920.47a60.4476,60.4476,0,0,0-54.698,15.3689c-15.3,14.93-21.402,36.8689-24.3847,58.0372a273.6634,273.6634,0,0,0-2.6091,44.1864c.2142,9.7238.98,19.5924,4.3749,28.7068s9.7313,17.491,18.5959,21.4931c8.8718,4.0054,19.3293,3.2191,28.4739-.1166s17.2244-9.0125,25.0688-14.7759c48.849-35.89,93.6319-78.0767,127.78-128.1593,7.6053-11.1542,14.8742-25.4191,8.85-37.5011-4.4243-8.8739-15.0185-13.2832-24.934-13.2124s-19.3952,3.7941-28.6073,7.4624c-17.0746,6.7993-35.5083,14.7765-44.1234,31.0107"/><path class="cls-79" d="M1540.92,920.47a60.4476,60.4476,0,0,0-54.698,15.3689c-15.3,14.93-21.402,36.8689-24.3847,58.0372a273.6634,273.6634,0,0,0-2.6091,44.1864c.2142,9.7238.98,19.5924,4.3749,28.7068s9.7313,17.491,18.5959,21.4931c8.8718,4.0054,19.3293,3.2191,28.4739-.1166s17.2244-9.0125,25.0688-14.7759c48.849-35.89,93.6319-78.0767,127.78-128.1593,7.6053-11.1542,14.8742-25.4191,8.85-37.5011-4.4243-8.8739-15.0185-13.2832-24.934-13.2124s-19.3952,3.7941-28.6073,7.4624c-17.0746,6.7993-35.5083,14.7765-44.1234,31.0107"/><path class="cls-80" d="M1653.8955,938.9077a70.5669,70.5669,0,0,1-34.0251,7.0177,34.4829,34.4829,0,0,0-30.4388,16.0649c-15.7874,24.8607-47.8866,65.9125-93.2722,77.4615l2.0085-1.7772a37.6576,37.6576,0,0,0,12.5835-31.68c-2.418-25.9222-2.2344-71.7534,26.4661-86.2424,40.8091-20.602,50.8944-2.5081,50.8944-2.5081s16.0173-10.6041,21.7275-11.3457,5.4876,6.6,5.4876,6.6"/><path class="cls-81" d="M1615.327,912.4982s.2218-7.3415-5.4876-6.6-21.7275,11.3457-21.7275,11.3457-2.8462-5.1068-11.6337-6.8051l-58.666,73.8414s-15.7743,25.442,3.9791,33.0626a23.84,23.84,0,0,0,23.6672-4.1556c19.8549-16.4946,34.7189-36.6247,43.9729-51.1971a34.8257,34.8257,0,0,1,8.84-9.443,13.82,13.82,0,0,0,5.3394-7.9495c.1834-.7772.356-1.5094.5187-2.1911,4.4491-18.6369,2.966-22.2185,10.6785-25.6185a6.8087,6.8087,0,0,0,2.889-2.6672Z"/><path class="cls-11" d="M1589.7163,842.6016c-11.8844,1.0329-26.898,6.38-31.7044,17.2984l-.2311.5247a2.7759,2.7759,0,0,0,2.3,3.91c3.3578.2121,6.7212.4537,10.088.3758,5.0059-.1158,9.8125-1.7042,14.6554-2.8345q5.0541-1.18,10.1322-2.2537c.8479-.1794,7.727-.9942,7.727-2.1072-.3307,3.2709-1.9745,6.942-3.0028,10.1165q-1.71,5.2783-3.6318,10.485-3.8428,10.41-8.5172,20.4883c-1.0891,2.3492-2.3363,4.8214-4.5791,6.1161-1.9633,1.1333-4.3478,1.1627-6.6148,1.189-12.0969.1412-24.6795,1.2617-35.6515,5.9621l-25.6924,58.3609a20.1755,20.1755,0,0,0,20.2126,28.2288l15.4707-1.3447a33.8874,33.8874,0,0,0,25.4256-15.1715,89.2185,89.2185,0,0,0,4.8686-8.4256c6.7479-13.2744,10.4862-27.8366,14.1747-42.2638q5.83-22.8071,11.6617-45.6141c.3916-1.53,1.9143-3.4625,3.0812-2.398a166.1269,166.1269,0,0,0-.3744,25.7666,3.4368,3.4368,0,0,0,.8423,2.4679,1.8872,1.8872,0,0,0,1.722.3609l10.3617-23.5351A32.6642,32.6642,0,0,0,1589.7163,842.6016Z"/><path class="cls-82" d="M1589.7163,842.6016c-11.8844,1.0329-26.898,6.38-31.7044,17.2984l-.2311.5247a2.7759,2.7759,0,0,0,2.3,3.91c3.3578.2121,6.7212.4537,10.088.3758,5.0059-.1158,9.8125-1.7042,14.6554-2.8345q5.0541-1.18,10.1322-2.2537c.8479-.1794,7.727-.9942,7.727-2.1072-.3307,3.2709-1.9745,6.942-3.0028,10.1165q-1.71,5.2783-3.6318,10.485-3.8428,10.41-8.5172,20.4883c-1.0891,2.3492-2.3363,4.8214-4.5791,6.1161-1.9633,1.1333-4.3478,1.1627-6.6148,1.189-12.0969.1412-24.6795,1.2617-35.6515,5.9621l-25.6924,58.3609a20.1755,20.1755,0,0,0,20.2126,28.2288l15.4707-1.3447a33.8874,33.8874,0,0,0,25.4256-15.1715,89.2185,89.2185,0,0,0,4.8686-8.4256c6.7479-13.2744,10.4862-27.8366,14.1747-42.2638q5.83-22.8071,11.6617-45.6141c.3916-1.53,1.9143-3.4625,3.0812-2.398a166.1269,166.1269,0,0,0-.3744,25.7666,3.4368,3.4368,0,0,0,.8423,2.4679,1.8872,1.8872,0,0,0,1.722.3609l10.3617-23.5351A32.6642,32.6642,0,0,0,1589.7163,842.6016Z"/><path class="cls-83" d="M1589.7163,842.6016c-11.8844,1.0329-26.898,6.38-31.7044,17.2984l-.2311.5247a2.7759,2.7759,0,0,0,2.3,3.91c3.3578.2121,6.7212.4537,10.088.3758,5.0059-.1158,9.8125-1.7042,14.6554-2.8345q5.0541-1.18,10.1322-2.2537c.8479-.1794,7.727-.9942,7.727-2.1072-.3307,3.2709-1.9745,6.942-3.0028,10.1165q-1.71,5.2783-3.6318,10.485-3.8428,10.41-8.5172,20.4883c-1.0891,2.3492-2.3363,4.8214-4.5791,6.1161-1.9633,1.1333-4.3478,1.1627-6.6148,1.189-12.0969.1412-24.6795,1.2617-35.6515,5.9621l-25.6924,58.3609a20.1755,20.1755,0,0,0,20.2126,28.2288l15.4707-1.3447a33.8874,33.8874,0,0,0,25.4256-15.1715,89.2185,89.2185,0,0,0,4.8686-8.4256c6.7479-13.2744,10.4862-27.8366,14.1747-42.2638q5.83-22.8071,11.6617-45.6141c.3916-1.53,1.9143-3.4625,3.0812-2.398a166.1269,166.1269,0,0,0-.3744,25.7666,3.4368,3.4368,0,0,0,.8423,2.4679,1.8872,1.8872,0,0,0,1.722.3609l10.3617-23.5351A32.6642,32.6642,0,0,0,1589.7163,842.6016Z"/><path class="cls-11" d="M1564.8641,851.3572c10.9926-.43,26.0959-.5185,36.3073,3.5739s19.4032,11.24,24.7539,20.8523a14.0248,14.0248,0,0,0,2.4026,3.5644,3.8831,3.8831,0,0,0,3.954,1.0309,5.6264,5.6264,0,0,0,2.4836-2.7982c1.5446-2.8438,3.1369-5.9011,2.8582-9.1253a13.4707,13.4707,0,0,0-1.3739-4.48c-5.4767-11.7284-16.0919-20.0684-27.6792-25.28-12.8478-5.7789-27.97-9.2877-41.2919-2.9212a9.0853,9.0853,0,0,0-3.0583,2.0878,14.21,14.21,0,0,0-1.9779,3.9668,38.8555,38.8555,0,0,0-1.8816,4.4532,5.4831,5.4831,0,0,0,.515,4.6486,2.6911,2.6911,0,0,0,3.9882.4267"/><path class="cls-84" d="M1564.8639,851.3571c10.993-.4295,26.0964-.5185,36.3078,3.574s19.403,11.24,24.7536,20.8523a14.016,14.016,0,0,0,2.4024,3.5645,3.8831,3.8831,0,0,0,3.9539,1.0308,5.6284,5.6284,0,0,0,2.4842-2.7982c1.5445-2.8438,3.1365-5.9011,2.8578-9.1253a13.45,13.45,0,0,0-1.374-4.48c-5.4767-11.7284-16.0914-20.0684-27.6791-25.28-12.8474-5.7788-27.9695-9.2876-41.2917-2.9211a9.0929,9.0929,0,0,0-3.0587,2.0878,14.2148,14.2148,0,0,0-1.9773,3.9668,38.69,38.69,0,0,0-1.8816,4.4533,5.4821,5.4821,0,0,0,.5145,4.6485,2.691,2.691,0,0,0,3.9882.4266"/><path class="cls-11" d="M1610.293,889.0449c-1.4212,9.23-2.8338,18.7361-.6821,27.8237a34.0557,34.0557,0,0,0,15.2583,21.2758,29.7241,29.7241,0,0,0,25.8518,2.313,20.0349,20.0349,0,0,0,6.7279-4.2446,18.2084,18.2084,0,0,0,5.0039-10.5237c.7121-5.37-1.23-11.61-6.1618-13.8493-2.6851-1.2192-5.8118-1.0782-8.6743-1.712a3.34,3.34,0,0,1-2.5379-2.98,8.1987,8.1987,0,0,0-4.2356-6.1832,11.8806,11.8806,0,0,0-9.592-.3274,8.2077,8.2077,0,0,0-4.8784-14.8925"/><path class="cls-85" d="M1610.293,889.0449c-1.4212,9.23-2.8338,18.7361-.6821,27.8237a34.0557,34.0557,0,0,0,15.2583,21.2758,29.7241,29.7241,0,0,0,25.8518,2.313,20.0349,20.0349,0,0,0,6.7279-4.2446,18.2084,18.2084,0,0,0,5.0039-10.5237c.7121-5.37-1.23-11.61-6.1618-13.8493-2.6851-1.2192-5.8118-1.0782-8.6743-1.712a3.34,3.34,0,0,1-2.5379-2.98,8.1987,8.1987,0,0,0-4.2356-6.1832,11.8806,11.8806,0,0,0-9.592-.3274,8.2077,8.2077,0,0,0-4.8784-14.8925"/><path class="cls-86" d="M1626.3729,885.7446l-16.08,3.3c-.5979,3.8824-1.1779,7.8134-1.508,11.7417,4.2187,2.9928,10.8342,3.0487,16.63-.321a17.0591,17.0591,0,0,0,8.2325-10.47A8.468,8.468,0,0,0,1626.3729,885.7446Z"/><ellipse class="cls-77" cx="1621.1756" cy="885.6936" rx="15.4603" ry="12.1978" transform="translate(-225.5105 934.825) rotate(-30.173)"/><ellipse class="cls-87" cx="1621.2048" cy="885.7439" rx="7.7301" ry="6.0989" transform="translate(-225.5318 934.8465) rotate(-30.173)"/><path class="cls-77" d="M1557.6441,884.72c-5.5473,2.3361-11.7172,2.5919-17.5862,3.9278a3.7361,3.7361,0,0,0-1.7948.7763,3.3135,3.3135,0,0,0-.7857,1.4233,14.4173,14.4173,0,0,0,.598,9.65,30.2777,30.2777,0,0,0,5.3028,8.2648"/><path class="cls-10" d="M1557.1107,882.7855a50.4545,50.4545,0,0,1-11.2249,2.7658c-1.9155.3113-3.8332.6158-5.7312,1.0233-1.7266.3706-3.3441.9553-4.1746,2.6428-1.6945,3.4433-1.2785,7.9158.0076,11.4125a32.3951,32.3951,0,0,0,5.9719,9.5512c1.666,1.9773,4.4921-.8736,2.8374-2.8374a26.97,26.97,0,0,1-4.94-7.78,14.2855,14.2855,0,0,1-.9469-4.72,10.39,10.39,0,0,1,.1755-2.2229c.1016-.5035.1834-1.4262.5962-1.7773a4.3354,4.3354,0,0,1,1.5395-.3991c.7722-.1657,1.5479-.3144,2.3253-.4538,1.6993-.3048,3.4068-.5617,5.109-.85a44.2339,44.2339,0,0,0,9.5219-2.4853,2.0717,2.0717,0,0,0,1.4013-2.4681,2.0194,2.0194,0,0,0-2.4681-1.4013Z"/><path class="cls-10" d="M1547.9475,926.8645a74.5641,74.5641,0,0,0,23.7324-17.0017c1.7633-1.8842-1.0684-4.7278-2.8375-2.8374a71.6667,71.6667,0,0,1-22.92,16.3743,2.0212,2.0212,0,0,0-.72,2.7451,2.0548,2.0548,0,0,0,2.7451.72Z"/><path class="cls-10" d="M1567.2692,906.1344a16.278,16.278,0,0,0,2.9505,4.9,2.02,2.02,0,0,0,1.4187.5876,2.0418,2.0418,0,0,0,1.4188-.5876,2.019,2.019,0,0,0,.5876-1.4187l-.0717-.5334a2.0042,2.0042,0,0,0-.5159-.8853q-.2272-.2688-.4426-.547l.3137.4061a15.1252,15.1252,0,0,1-1.9111-3.2724l.2023.4793q-.0409-.0974-.0809-.195a2.2438,2.2438,0,0,0-.9221-1.199,2.0061,2.0061,0,0,0-2.745.72,1.939,1.939,0,0,0-.2023,1.5461Z"/><path class="cls-88" d="M1644.5334,832.7429a19.1771,19.1771,0,0,0-4.7262-2.8936,8.0054,8.0054,0,0,0-5.0329-.6881,38.5868,38.5868,0,0,1,6.4825,18.0865c-.0016-.1782.0054-.3562,0-.5345-.1137-3.3188-.9264-6.7906.3363-9.862A13.8056,13.8056,0,0,1,1644.5334,832.7429Z"/><rect class="cls-1" x="1453.5058" y="1113.2945" width="107.1988" height="75.6512" rx="16.066"/><rect class="cls-89" x="1453.5058" y="1113.2945" width="107.1988" height="75.6512" rx="16.066"/><path class="cls-90" d="M1512.531,1202.0733a181.414,181.414,0,0,0-8.0605,72.2046,266.328,266.328,0,0,0,19.76-22.6179C1517.4715,1236.0629,1513.8348,1219.0726,1512.531,1202.0733Z"/><path class="cls-10" d="M1155.7767,1520.6837c-23.8871,26.3443-33.5741,38.6-50.8353,35.9541-11.1175-1.7041-24.116-6.8426-32.3821.7846-3.6191,3.34-5.1376,8.4142-5.5559,13.3209-1.2318,14.4494,5.6825,28.3072,13.5359,40.4985,18.3383,28.4678,45.42,58.3972,76.2752,73.629,18.3908,9.0782,36.4605-6.7414,48.4271-19.2314a395.3616,395.3616,0,0,0,35.4276-43.2825c5.59-7.7908,10.9736-15.7274,16.2384-23.7407,4.4023-6.7,10.915-14.079,12.5755-22.11,2.3884-11.5519-12.5744-26.6427-19.2148-34.9862A241.7344,241.7344,0,0,0,1218,1508.129c-9.8509-8.4-22.1407-16.4336-34.8158-13.8-12.8055,2.66-20.8292,15.0508-27.4073,26.3551"/><path class="cls-91" d="M1880.1426,1003.1571a450.5878,450.5878,0,0,1,28.4939-62.7674c-29.2829,22.2637-59.2567,46.5357-73.7819,80.3317-1.3055,3.0384-2.3381,6.7517-1.653,9.7992a97.3874,97.3874,0,0,0,19.7546-5.4014,57.484,57.484,0,0,0,17.08-10.5854l6.2359-7.02c.5969-.8441,1.1651-1.7079,1.6935-2.5977q-.4047.8008-.8092,1.6022Z"/><path class="cls-1" d="M1908.3164,1132.2085c-5.5906-11.4724-15.5638-20.4433-26.8665-26.37s-23.9078-8.9942-36.5531-10.7165c-12.6336-1.7207-25.7277-2.1133-37.9069,1.66s-23.3908,12.2419-28.012,24.1252c-2.2313,5.7377-2.2462,13.46,2.9543,16.7545,4.628,2.9321,10.7856.7171,15.3255-2.35s8.8321-7.0624,14.2562-7.8334c2.6831-.3813,5.7107.2314,7.4038,2.3475a8.4219,8.4219,0,0,1,1.5714,4.1495c.8746,6.2936-2.0144,12.6881-6.441,17.2465s-10.2393,7.5161-16.1456,9.859c-7.9367,3.1482-16.9883,5.9181-21.2573,13.3125-1.4213,2.4618-2.17,5.5066-1.1689,8.1669a9.6786,9.6786,0,0,0,3.3019,4.1208c7.8892,6.0517,19.3918,3.5461,28.168-1.1274-4.4828,2.5764-9.1047,5.2759-12.1267,9.4712s-3.9943,10.3349-.863,14.4492c2.88,3.784,8.3745,4.7414,12.9794,3.5546s8.54-4.1021,12.3458-6.9536l7.47-5.5971c-.717,4.3167-3.9888,7.6685-6.5647,11.2058s-4.5786,8.321-2.5005,12.172c1.5009,2.7814,4.7769,4.2008,7.928,4.4443,10.0112.7737,17.9758-7.8334,24.2593-15.6654-2.7024,4.2576-5.4753,8.7084-6.0431,13.7192s1.7835,10.7374,6.5617,12.35c4.7543,1.6042,9.8109-1.275,13.6732-4.4782a99.035,99.035,0,0,0,15.0756-16.32,213.3,213.3,0,0,0,28.05-48.9276c3.9941-9.7787,7.2819-20.6767,4.1418-30.7622"/><path class="cls-10" d="M1805.0948,1189.2358a98.81,98.81,0,0,0,23.2091-17.0491c1.8394-1.8181-.9982-4.6554-2.8374-2.8374a95.0575,95.0575,0,0,1-22.3969,16.4216c-2.2835,1.2082-.2581,4.6731,2.0252,3.4649Z"/><path class="cls-10" d="M1825.2,1205.9614a88.059,88.059,0,0,0,23.8316-22.3211,2.0209,2.0209,0,0,0-.72-2.7451,2.0526,2.0526,0,0,0-2.7451.72,82.85,82.85,0,0,1-22.392,20.8815c-2.1746,1.38-.1638,4.8537,2.0253,3.4649Z"/><path class="cls-10" d="M1848.32,1219.5186a18.96,18.96,0,0,1,4.3195-4.6406,39.8669,39.8669,0,0,0,4.7336-4.7395,37.6956,37.6956,0,0,0,6.68-12.0353c.8237-2.4537-3.05-3.5062-3.8693-1.0668a32.5162,32.5162,0,0,1-6.3207,11.0561c-2.8558,3.2579-6.8124,5.5918-9.0075,9.4008-1.2918,2.2415,2.1744,4.2646,3.4648,2.0253Z"/><path class="cls-10" d="M1855.2527,1132.4594h.3733a2.0621,2.0621,0,0,0,2.0064-2.0064l-.0717-.5333a2.0044,2.0044,0,0,0-.516-.8854l-.4061-.3137a1.9964,1.9964,0,0,0-1.0126-.2739h-.3733a2.062,2.062,0,0,0-2.0063,2.0063l.0716.5334a2.0054,2.0054,0,0,0,.516.8853l.4061.3138a1.9976,1.9976,0,0,0,1.0126.2739Z"/><path class="cls-10" d="M1873.8421,1139.3372l.3732-.3733a2.0632,2.0632,0,0,0,0-2.8374l-.406-.3137a1.997,1.997,0,0,0-1.0127-.2739l-.5333.0717a2.0051,2.0051,0,0,0-.8854.5159l-.3733.3733a2.0635,2.0635,0,0,0,0,2.8374l.4061.3137a1.9977,1.9977,0,0,0,1.0126.274l.5334-.0717a2.0044,2.0044,0,0,0,.8854-.516Z"/><path class="cls-10" d="M1886.6078,1149.2567h.7465a2.062,2.062,0,0,0,2.0064-2.0063l-.0717-.5334a2.0035,2.0035,0,0,0-.516-.8853l-.406-.3138a1.998,1.998,0,0,0-1.0127-.2739h-.7465a2.0621,2.0621,0,0,0-2.0064,2.0064l.0717.5333a2.0044,2.0044,0,0,0,.516.8854l.406.3137a1.997,1.997,0,0,0,1.0127.2739Z"/><path class="cls-11" d="M502.4725,969.762a65.215,65.215,0,0,1,87.0142-70.4163,89.2768,89.2768,0,0,1,177.73-4.6564,67.32,67.32,0,0,1,81.1311,65.8566c0,1.323-.0486,2.6338-.1236,3.9382a41.4976,41.4976,0,0,1,37.1321,41.265h0a41.4944,41.4944,0,0,1-41.4942,41.4947H523.12a41.4948,41.4948,0,0,1-41.4947-41.4947h0A41.4678,41.4678,0,0,1,502.4725,969.762Z"/><path class="cls-92" d="M502.4725,969.762a65.215,65.215,0,0,1,87.0142-70.4163,89.2768,89.2768,0,0,1,177.73-4.6564,67.32,67.32,0,0,1,81.1311,65.8566c0,1.323-.0486,2.6338-.1236,3.9382a41.4976,41.4976,0,0,1,37.1321,41.265h0a41.4944,41.4944,0,0,1-41.4942,41.4947H523.12a41.4948,41.4948,0,0,1-41.4947-41.4947h0A41.4678,41.4678,0,0,1,502.4725,969.762Z"/><path class="cls-11" d="M2315.4636,1308.7053a42.83,42.83,0,0,0-57.147-46.2462,58.6329,58.6329,0,0,0-116.725-3.0581,44.2127,44.2127,0,0,0-53.2831,43.2516c0,.8689.0319,1.73.0812,2.5864a27.2536,27.2536,0,0,0-24.3866,27.101h0a27.2514,27.2514,0,0,0,27.2514,27.2517h210.6488a27.2517,27.2517,0,0,0,27.2517-27.2517h0A27.2342,27.2342,0,0,0,2315.4636,1308.7053Z"/><path class="cls-93" d="M2315.4636,1308.7053a42.83,42.83,0,0,0-57.147-46.2462,58.6329,58.6329,0,0,0-116.725-3.0581,44.2127,44.2127,0,0,0-53.2831,43.2516c0,.8689.0319,1.73.0812,2.5864a27.2536,27.2536,0,0,0-24.3866,27.101h0a27.2514,27.2514,0,0,0,27.2514,27.2517h210.6488a27.2517,27.2517,0,0,0,27.2517-27.2517h0A27.2342,27.2342,0,0,0,2315.4636,1308.7053Z"/><path class="cls-11" d="M1215.1836,548.4208a76.587,76.587,0,0,0-102.1872-82.695,104.8443,104.8443,0,0,0-208.7216-5.4683,79.0588,79.0588,0,0,0-95.278,77.34c0,1.5537.057,3.0931.1452,4.6249a48.7337,48.7337,0,0,0-43.607,48.46h0a48.73,48.73,0,0,0,48.73,48.73h376.6711a48.73,48.73,0,0,0,48.73-48.73h0A48.699,48.699,0,0,0,1215.1836,548.4208Z"/><path class="cls-94" d="M1215.1836,548.4208a76.587,76.587,0,0,0-102.1872-82.695,104.8443,104.8443,0,0,0-208.7216-5.4683,79.0588,79.0588,0,0,0-95.278,77.34c0,1.5537.057,3.0931.1452,4.6249a48.7337,48.7337,0,0,0-43.607,48.46h0a48.73,48.73,0,0,0,48.73,48.73h376.6711a48.73,48.73,0,0,0,48.73-48.73h0A48.699,48.699,0,0,0,1215.1836,548.4208Z"/><path class="cls-95" d="M1400.83,936.4663c.4591-.7126.9137-1.4279,1.3722-2.1408l-.1979.1036q-10.8861,18.3533-21.4488,36.8963c3.547,1.1894,7.3651-.4523,10.7032-2.14A228.4436,228.4436,0,0,0,1414.033,955.97c11.2525-7.4281,22.5016-16.8933,26.17-29.7049A341.2821,341.2821,0,0,0,1400.83,936.4663Z"/><path class="cls-96" d="M1415.9712,655.4313c-1.2921,5.4654,1.7309,10.89,4.06,16.0008s3.8541,11.6562.2,15.9211a24.6361,24.6361,0,0,0-2.3358,2.603c-1.35,2.1264-.9024,4.8635-.8215,7.3809a22.7541,22.7541,0,0,1-24.6645,23.403,12.0432,12.0432,0,0,1-6.8394-2.4536c-4.0111-3.3984-3.2192-10.8405,1.4172-13.3187,2.7264-1.4573,6.6942-1.7832,7.5815-4.7446.8035-2.682-1.7251-5.07-2.9462-7.5894a8.7752,8.7752,0,0,1,1.3517-9.4715c2.2967-2.5417,5.8258-3.4579,9.0289-4.6725s6.5739-3.2324,7.347-6.57c.7019-3.03-.99-6.1061-.9637-9.2162a8.67,8.67,0,0,1,7.1033-8.22"/><path class="cls-10" d="M1482.2616,719.012a23.0438,23.0438,0,0,0-1.9,23.755c1.1582,2.3085,4.6209.2789,3.4648-2.0253a19.0815,19.0815,0,0,1,1.9-19.7044,2.02,2.02,0,0,0-.72-2.7451,2.0539,2.0539,0,0,0-2.745.72Z"/><path class="cls-10" d="M1462.8584,753.8767c3.344-3.1591,7.6419-5.0705,11.8762-6.7323,4.6755-1.835,9.5371-3.2845,14.6106-2.89,2.5751.2,2.5621-3.8137,0-4.0127-5.5613-.4319-10.9916,1.1668-16.105,3.203-4.7578,1.8947-9.4539,4.0379-13.2192,7.595-1.8811,1.7771.96,4.611,2.8374,2.8375Z"/><path class="cls-10" d="M1475,690.9617a37.3243,37.3243,0,0,0-.9255,12.0829c.3372,3.66.9681,7.8943,3.0676,11.0123,4.0176,5.9666,12.7467,5.348,17.2222.2578a18.3111,18.3111,0,0,0,4.1862-10.9029c.1924-2.5759-3.8213-2.5636-4.0127,0a13.36,13.36,0,0,1-3.8546,8.9316,7.526,7.526,0,0,1-8.0164,1.4493c-3.22-1.5436-3.918-6.0386-4.3937-9.1823a33.049,33.049,0,0,1,.5962-12.5819c.6007-2.51-3.2677-3.5811-3.8693-1.0668Z"/><polygon class="cls-97" points="730.577 1601.19 1168.299 1687.546 1154.387 1618.101 1125.098 1601.19 730.577 1601.19"/></g></svg>